<?xml version="1.0" encoding="utf-8"?>
<!-- Generator: Adobe Illustrator 16.0.1, SVG Export Plug-In . SVG Version: 6.00 Build 0)  -->
<!DOCTYPE svg PUBLIC "-//W3C//DTD SVG 1.1//EN" "http://www.w3.org/Graphics/SVG/1.1/DTD/svg11.dtd">
<svg version="1.1" id="Capa_1" xmlns="http://www.w3.org/2000/svg" xmlns:xlink="http://www.w3.org/1999/xlink" x="0px" y="0px"
	 width="34.217px" height="54.501px" viewBox="150.972 155.5 34.217 54.501" enable-background="new 150.972 155.5 34.217 54.501"
	 xml:space="preserve">
<g>
	<path fill="#F76E66" d="M168.119,155.5h-0.078c-9.412,0-17.07,7.654-17.07,17.063c0,6.167,2.809,14.307,8.348,24.192
		c4.107,7.33,8.272,12.942,8.313,12.999c0.116,0.155,0.298,0.247,0.492,0.247c0.005,0,0.011,0,0.016,0
		c0.2-0.006,0.385-0.108,0.495-0.274c0.041-0.063,4.175-6.306,8.255-13.943c5.505-10.309,8.297-18.121,8.297-23.22
		C185.188,163.154,177.531,155.5,168.119,155.5z M175.999,172.98c0,4.366-3.552,7.917-7.919,7.917c-4.366,0-7.917-3.552-7.917-7.917
		c0-4.366,3.552-7.918,7.917-7.918C172.446,165.063,175.999,168.614,175.999,172.98z"/>
</g>
</svg>
