<?xml version="1.0" encoding="UTF-8"?>
<svg width="2560px" height="774px" viewBox="0 0 2560 774" version="1.1" xmlns="http://www.w3.org/2000/svg" xmlns:xlink="http://www.w3.org/1999/xlink">
    <!-- Generator: Sketch 61.2 (89653) - https://sketch.com -->
    <title>Group 17</title>
    <desc>Created with Sketch.</desc>
    <defs>
        <linearGradient x1="50%" y1="0%" x2="50%" y2="97.8968411%" id="linearGradient-1">
            <stop stop-color="#CAE1F2" offset="0%"></stop>
            <stop stop-color="#F7FAFF" offset="100%"></stop>
        </linearGradient>
    </defs>
    <g id="Экраны-🖥" stroke="none" stroke-width="1" fill="none" fill-rule="evenodd">
        <g id="Game" transform="translate(0.000000, -1.000000)">
            <g id="Group-17" transform="translate(-24.000000, 1.000000)">
                <rect id="Rectangle" fill="url(#linearGradient-1)" x="17" y="0" width="2578" height="775"></rect>
                <path d="M2192.01973,208 L2192.01973,249.912576 L2206.73916,249.912576 L2206.73916,220.108689 L2229.554,220.108 L2229.55415,209 L2238.627,209 L2238.62703,208 L2249.05082,208 L2249.05082,227.558529 L2250.403,227.558 L2250.40338,209 L2254.67743,209 L2254.677,227.558 L2269.90241,227.558529 L2269.90241,208 L2284.61949,208 L2284.61949,244.324325 L2301.17544,244.324325 L2301.17544,221.039135 L2326.93115,221.039135 L2326.93115,208 L2344.10264,208 L2344.10264,221.971671 L2363.11277,221.971671 L2363.11277,208 L2385.80135,208 L2385.80135,236.87344 L2414.01148,236.87344 L2414.01148,214.519742 L2433.02348,214.519742 L2433.02348,233.149217 L2446.51488,233.149217 L2446.51488,217.314912 L2461.84281,217.314912 L2461.84281,247.119843 L2484.53139,247.119843 L2484.53139,225.697636 L2508.44776,225.697636 L2508.44776,208 L2521.32573,208 L2521.32573,240.600102 L2537.88403,240.600102 L2537.88403,208 L2555.05318,208 L2555.05318,219.177894 L2583.2633,219.177894 L2583.2633,208 L2603.49935,208 L2603.49935,232.216681 L2620.66873,232.216681 L2620.66873,208 L2634.7752,208 L2634.7752,234.07827 L2655.01124,234.07827 L2655.01124,208 L2669.72856,208 L2669.72856,252.708094 L2688.12549,252.708094 L2688.12549,225.697636 L2698.578,225.697 L2698.57895,224.765448 L2708.975,224.765 L2708.9752,208 L2721.85294,208 L2721.852,224.765 L2726.52329,224.765448 L2726.52329,208 L2748.59868,208 L2748.59868,249.912576 L2763.3181,249.912576 L2763.3181,220.108689 L2795.20597,220.108689 L2795.20597,208 L2805.62977,208 L2805.62977,227.558529 L2826.48135,227.558529 L2826.48135,208 L2841.19843,208 L2841.19843,244.324325 L2857.75439,244.324325 L2857.75439,221.039135 L2883.5101,221.039135 L2883.5101,208 L2900.68159,208 L2900.68159,221.971671 L2919.69172,221.971671 L2919.69172,208 L2942.3803,208 L2942.3803,236.87344 L2970.59042,236.87344 L2970.59042,214.519742 L2989.60243,214.519742 L2989.60243,233.149217 L3003.09383,233.149217 L3003.09383,217.314912 L3018.42176,217.314912 L3018.42176,247.119843 L3041.11034,247.119843 L3041.11034,225.697636 L3065.02671,225.697636 L3065.02671,208 L3077.90468,208 L3077.90468,240.600102 L3094.46298,240.600102 L3094.46298,208 L3111.63213,208 L3111.63213,219.177894 L3139.84225,219.177894 L3139.84225,208 L3160.07829,208 L3160.07829,232.216681 L3177.24767,232.216681 L3177.24767,208 L3191.35414,208 L3191.35414,234.07827 L3211.59019,234.07827 L3211.59019,208 L3226.3075,208 L3226.3075,252.708094 L3244.70444,252.708094 L3244.70444,225.697636 L3248,225.697 L3248,224.765448 L3265.554,224.765 L3265.55415,208 L3298.01973,208 L3298.01973,249.912576 L3312.73916,249.912576 L3312.73916,220.108689 L3344.62703,220.108689 L3344.62703,208 L3355.05082,208 L3355.05082,227.558529 L3375.90241,227.558529 L3375.90241,208 L3390.61949,208 L3390.61949,244.324325 L3407.17544,244.324325 L3407.17544,221.039135 L3432.93115,221.039135 L3432.93115,208 L3450.10264,208 L3450.10264,221.971671 L3469.11277,221.971671 L3469.11277,208 L3491.80135,208 L3491.80135,236.87344 L3520.01148,236.87344 L3520.01148,214.519742 L3539.02348,214.519742 L3539.02348,233.149217 L3552.51488,233.149217 L3552.51488,217.314912 L3567.84281,217.314912 L3567.84281,247.119843 L3590.53139,247.119843 L3590.53139,225.697636 L3614.44776,225.697636 L3614.44776,208 L3627.32573,208 L3627.32573,240.600102 L3643.88403,240.600102 L3643.88403,208 L3661.05318,208 L3661.05318,219.177894 L3689.2633,219.177894 L3689.2633,208 L3709.49935,208 L3709.49935,232.216681 L3726.66873,232.216681 L3726.66873,208 L3740.7752,208 L3740.7752,234.07827 L3761.01124,234.07827 L3761.01124,208 L3775.72856,208 L3775.72856,252.708094 L3794.12549,252.708094 L3794.12549,225.697636 L3804.578,225.697 L3804.57895,224.765448 L3814.975,224.765 L3814.9752,208 L3827.85294,208 L3827.852,224.765 L3832.52329,224.765448 L3832.52329,208 L3854.59868,208 L3854.59868,249.912576 L3869.3181,249.912576 L3869.3181,220.108689 L3901.20597,220.108689 L3901.20597,208 L3911.62977,208 L3911.62977,227.558529 L3932.48135,227.558529 L3932.48135,208 L3947.19843,208 L3947.19843,244.324325 L3963.75439,244.324325 L3963.75439,221.039135 L3989.5101,221.039135 L3989.5101,208 L4006.68159,208 L4006.68159,221.971671 L4025.69172,221.971671 L4025.69172,208 L4048.3803,208 L4048.3803,236.87344 L4076.59042,236.87344 L4076.59042,214.519742 L4095.60243,214.519742 L4095.60243,233.149217 L4109.09383,233.149217 L4109.09383,217.314912 L4124.42176,217.314912 L4124.42176,247.119843 L4147.11034,247.119843 L4147.11034,225.697636 L4171.02671,225.697636 L4171.02671,208 L4183.90468,208 L4183.90468,240.600102 L4200.46298,240.600102 L4200.46298,208 L4217.63213,208 L4217.63213,219.177894 L4245.84225,219.177894 L4245.84225,208 L4266.07829,208 L4266.07829,232.216681 L4283.24767,232.216681 L4283.24767,208 L4297.35414,208 L4297.35414,234.07827 L4317.59019,234.07827 L4317.59019,208 L4332.3075,208 L4332.3075,252.708094 L4350.70444,252.708094 L4350.70444,225.697636 L4371.55415,225.697636 L4371.55415,208 L4384.43189,208 L4384.43189,235.010458 L4392.40338,235.010458 L4392.40338,208 L4396.67743,208 L4396.67743,542 L2254.677,542 L2254.67743,543 L-1.13686838e-13,543 L-1.13686838e-13,225.765448 L27.9443441,225.765448 L27.9443441,209 L50.0197308,209 L50.0197308,250.912576 L64.7391575,250.912576 L64.7391575,221.108689 L96.6270261,221.108689 L96.6270261,209 L107.050824,209 L107.050824,228.558529 L127.902406,228.558529 L127.902406,209 L142.619487,209 L142.619487,245.324325 L159.175441,245.324325 L159.175441,222.039135 L184.931153,222.039135 L184.931153,209 L202.102645,209 L202.102645,222.971671 L221.112775,222.971671 L221.112775,209 L243.801353,209 L243.801353,237.87344 L272.011477,237.87344 L272.011477,215.519742 L291.023483,215.519742 L291.023483,234.149217 L304.514883,234.149217 L304.514883,218.314912 L319.842811,218.314912 L319.842811,248.119843 L342.531389,248.119843 L342.531389,226.697636 L366.44776,226.697636 L366.44776,209 L379.325734,209 L379.325734,241.600102 L395.884033,241.600102 L395.884033,209 L413.053179,209 L413.053179,220.177894 L441.263302,220.177894 L441.263302,209 L461.499347,209 L461.499347,233.216681 L478.668727,233.216681 L478.668727,209 L492.775196,209 L492.775196,235.07827 L513.011241,235.07827 L513.011241,209 L527.728557,209 L527.728557,253.708094 L546.125494,253.708094 L546.125494,226.697636 L556.578,226.697 L556.578947,225.765448 L566.975,225.765 L566.9752,209 L579.852939,209 L579.852,225.765 L584.523291,225.765448 L584.523291,209 L606.598678,209 L606.598678,250.912576 L621.318105,250.912576 L621.318105,221.108689 L653.205973,221.108689 L653.205973,209 L663.629771,209 L663.629771,228.558529 L684.481354,228.558529 L684.481354,209 L699.198435,209 L699.198435,245.324325 L715.754388,245.324325 L715.754388,222.039135 L741.510101,222.039135 L741.510101,209 L758.681592,209 L758.681592,222.971671 L777.691722,222.971671 L777.691722,209 L800.380301,209 L800.380301,237.87344 L828.590424,237.87344 L828.590424,215.519742 L847.60243,215.519742 L847.60243,234.149217 L861.093831,234.149217 L861.093831,218.314912 L876.421758,218.314912 L876.421758,248.119843 L899.110337,248.119843 L899.110337,226.697636 L923.026707,226.697636 L923.026707,209 L935.904681,209 L935.904681,241.600102 L952.46298,241.600102 L952.46298,209 L969.632126,209 L969.632126,220.177894 L997.842249,220.177894 L997.842249,209 L1018.07829,209 L1018.07829,233.216681 L1035.24767,233.216681 L1035.24767,209 L1049.35414,209 L1049.35414,235.07827 L1069.59019,235.07827 L1069.59019,209 L1084.3075,209 L1084.3075,253.708094 L1102.70444,253.708094 L1102.70444,226.697636 L1106,226.697 L1106,225.765448 L1123.554,225.765 L1123.55415,209 L1156.01973,209 L1156.01973,250.912576 L1170.73916,250.912576 L1170.73916,221.108689 L1202.62703,221.108689 L1202.62703,209 L1213.05082,209 L1213.05082,228.558529 L1233.90241,228.558529 L1233.90241,209 L1248.61949,209 L1248.61949,245.324325 L1265.17544,245.324325 L1265.17544,222.039135 L1290.93115,222.039135 L1290.93115,209 L1308.10264,209 L1308.10264,222.971671 L1327.11277,222.971671 L1327.11277,209 L1349.80135,209 L1349.80135,237.87344 L1378.01148,237.87344 L1378.01148,215.519742 L1397.02348,215.519742 L1397.02348,234.149217 L1410.51488,234.149217 L1410.51488,218.314912 L1425.84281,218.314912 L1425.84281,248.119843 L1448.53139,248.119843 L1448.53139,226.697636 L1472.44776,226.697636 L1472.44776,209 L1485.32573,209 L1485.32573,241.600102 L1501.88403,241.600102 L1501.88403,209 L1519.05318,209 L1519.05318,220.177894 L1547.2633,220.177894 L1547.2633,209 L1567.49935,209 L1567.49935,233.216681 L1584.66873,233.216681 L1584.66873,209 L1598.7752,209 L1598.7752,235.07827 L1619.01124,235.07827 L1619.01124,209 L1633.72856,209 L1633.72856,253.708094 L1652.12549,253.708094 L1652.12549,226.697636 L1662.578,226.697 L1662.57895,225.765448 L1672.975,225.765 L1672.9752,209 L1685.85294,209 L1685.852,225.765 L1690.52329,225.765448 L1690.52329,209 L1712.59868,209 L1712.59868,250.912576 L1727.3181,250.912576 L1727.3181,221.108689 L1759.20597,221.108689 L1759.20597,209 L1769.62977,209 L1769.62977,228.558529 L1790.48135,228.558529 L1790.48135,209 L1805.19843,209 L1805.19843,245.324325 L1821.75439,245.324325 L1821.75439,222.039135 L1847.5101,222.039135 L1847.5101,209 L1864.68159,209 L1864.68159,222.971671 L1883.69172,222.971671 L1883.69172,209 L1906.3803,209 L1906.3803,237.87344 L1934.59042,237.87344 L1934.59042,215.519742 L1953.60243,215.519742 L1953.60243,234.149217 L1967.09383,234.149217 L1967.09383,218.314912 L1982.42176,218.314912 L1982.42176,248.119843 L2005.11034,248.119843 L2005.11034,226.697636 L2029.02671,226.697636 L2029.02671,209 L2041.90468,209 L2041.90468,241.600102 L2058.46298,241.600102 L2058.46298,209 L2075.63213,209 L2075.63213,220.177894 L2103.84225,220.177894 L2103.84225,209 L2124.07829,209 L2124.07829,233.216681 L2141.24767,233.216681 L2141.24767,209 L2155.35414,209 L2155.354,224.765 L2169.94434,224.765448 L2169.94434,208 L2192.01973,208 Z" id="Combined-Shape-Copy-3" fill="#E4EFFB"></path>
                <path d="M2217.01973,421 L2217.01973,456.656967 L2231.73916,456.656967 L2231.73916,431.301422 L2254.554,431.301 L2254.55415,421.850746 L2263.627,421.85 L2263.62703,421 L2274.05082,421 L2274.05082,437.639345 L2275.403,437.639 L2275.40338,421.850746 L2279.67743,421.850746 L2279.677,437.639 L2294.90241,437.639345 L2294.90241,421 L2309.61949,421 L2309.61949,451.902784 L2326.17544,451.902784 L2326.17544,432.092996 L2351.93115,432.092996 L2351.93115,421 L2369.10264,421 L2369.10264,432.886347 L2388.11277,432.886347 L2388.11277,421 L2410.80135,421 L2410.80135,445.563972 L2439.01148,445.563972 L2439.01148,426.546646 L2458.02348,426.546646 L2458.02348,442.395602 L2471.51488,442.395602 L2471.51488,428.924626 L2486.84281,428.924626 L2486.84281,454.281061 L2509.53139,454.281061 L2509.53139,436.056198 L2533.44776,436.056198 L2533.44776,421 L2546.32573,421 L2546.32573,448.734415 L2562.88403,448.734415 L2562.88403,421 L2580.05318,421 L2580.05318,430.509552 L2608.2633,430.509552 L2608.2633,421 L2628.49935,421 L2628.49935,441.602251 L2645.66873,441.602251 L2645.66873,421 L2659.7752,421 L2659.7752,443.185991 L2680.01124,443.185991 L2680.01124,421 L2694.72856,421 L2694.72856,459.035244 L2713.12549,459.035244 L2713.12549,436.056198 L2723.578,436.056 L2723.57895,435.263142 L2733.975,435.263 L2733.9752,421 L2746.85294,421 L2746.852,435.263 L2751.52329,435.263142 L2751.52329,421 L2773.59868,421 L2773.59868,456.656967 L2788.3181,456.656967 L2788.3181,431.301422 L2820.20597,431.301422 L2820.20597,421 L2830.62977,421 L2830.62977,437.639345 L2851.48135,437.639345 L2851.48135,421 L2866.19843,421 L2866.19843,451.902784 L2882.75439,451.902784 L2882.75439,432.092996 L2908.5101,432.092996 L2908.5101,421 L2925.68159,421 L2925.68159,432.886347 L2944.69172,432.886347 L2944.69172,421 L2967.3803,421 L2967.3803,445.563972 L2995.59042,445.563972 L2995.59042,426.546646 L3014.60243,426.546646 L3014.60243,442.395602 L3028.09383,442.395602 L3028.09383,428.924626 L3043.42176,428.924626 L3043.42176,454.281061 L3066.11034,454.281061 L3066.11034,436.056198 L3090.02671,436.056198 L3090.02671,421 L3102.90468,421 L3102.90468,448.734415 L3119.46298,448.734415 L3119.46298,421 L3136.63213,421 L3136.63213,430.509552 L3164.84225,430.509552 L3164.84225,421 L3185.07829,421 L3185.07829,441.602251 L3202.24767,441.602251 L3202.24767,421 L3216.35414,421 L3216.35414,443.185991 L3236.59019,443.185991 L3236.59019,421 L3251.3075,421 L3251.3075,459.035244 L3269.70444,459.035244 L3269.70444,436.056198 L3273,436.056 L3273,435.263142 L3290.554,435.263 L3290.55415,421 L3323.01973,421 L3323.01973,456.656967 L3337.73916,456.656967 L3337.73916,431.301422 L3369.62703,431.301422 L3369.62703,421 L3380.05082,421 L3380.05082,437.639345 L3400.90241,437.639345 L3400.90241,421 L3415.61949,421 L3415.61949,451.902784 L3432.17544,451.902784 L3432.17544,432.092996 L3457.93115,432.092996 L3457.93115,421 L3475.10264,421 L3475.10264,432.886347 L3494.11277,432.886347 L3494.11277,421 L3516.80135,421 L3516.80135,445.563972 L3545.01148,445.563972 L3545.01148,426.546646 L3564.02348,426.546646 L3564.02348,442.395602 L3577.51488,442.395602 L3577.51488,428.924626 L3592.84281,428.924626 L3592.84281,454.281061 L3615.53139,454.281061 L3615.53139,436.056198 L3639.44776,436.056198 L3639.44776,421 L3652.32573,421 L3652.32573,448.734415 L3668.88403,448.734415 L3668.88403,421 L3686.05318,421 L3686.05318,430.509552 L3714.2633,430.509552 L3714.2633,421 L3734.49935,421 L3734.49935,441.602251 L3751.66873,441.602251 L3751.66873,421 L3765.7752,421 L3765.7752,443.185991 L3786.01124,443.185991 L3786.01124,421 L3800.72856,421 L3800.72856,459.035244 L3819.12549,459.035244 L3819.12549,436.056198 L3829.578,436.056 L3829.57895,435.263142 L3839.975,435.263 L3839.9752,421 L3852.85294,421 L3852.852,435.263 L3857.52329,435.263142 L3857.52329,421 L3879.59868,421 L3879.59868,456.656967 L3894.3181,456.656967 L3894.3181,431.301422 L3926.20597,431.301422 L3926.20597,421 L3936.62977,421 L3936.62977,437.639345 L3957.48135,437.639345 L3957.48135,421 L3972.19843,421 L3972.19843,451.902784 L3988.75439,451.902784 L3988.75439,432.092996 L4014.5101,432.092996 L4014.5101,421 L4031.68159,421 L4031.68159,432.886347 L4050.69172,432.886347 L4050.69172,421 L4073.3803,421 L4073.3803,445.563972 L4101.59042,445.563972 L4101.59042,426.546646 L4120.60243,426.546646 L4120.60243,442.395602 L4134.09383,442.395602 L4134.09383,428.924626 L4149.42176,428.924626 L4149.42176,454.281061 L4172.11034,454.281061 L4172.11034,436.056198 L4196.02671,436.056198 L4196.02671,421 L4208.90468,421 L4208.90468,448.734415 L4225.46298,448.734415 L4225.46298,421 L4242.63213,421 L4242.63213,430.509552 L4270.84225,430.509552 L4270.84225,421 L4291.07829,421 L4291.07829,441.602251 L4308.24767,441.602251 L4308.24767,421 L4322.35414,421 L4322.35414,443.185991 L4342.59019,443.185991 L4342.59019,421 L4357.3075,421 L4357.3075,459.035244 L4375.70444,459.035244 L4375.70444,436.056198 L4396.55415,436.056198 L4396.55415,421 L4409.43189,421 L4409.43189,443.979046 L4417.40338,443.979046 L4417.40338,421 L4421.67743,421 L4421.67743,705.149254 L2279.677,705.149 L2279.67743,706 L25,706 L25,436.113889 L52.9443441,436.113889 L52.9443441,421.850746 L75.0197308,421.850746 L75.0197308,457.507714 L89.7391575,457.507714 L89.7391575,432.152168 L121.627026,432.152168 L121.627026,421.850746 L132.050824,421.850746 L132.050824,438.490092 L152.902406,438.490092 L152.902406,421.850746 L167.619487,421.850746 L167.619487,452.75353 L184.175441,452.75353 L184.175441,432.943742 L209.931153,432.943742 L209.931153,421.850746 L227.102645,421.850746 L227.102645,433.737093 L246.112775,433.737093 L246.112775,421.850746 L268.801353,421.850746 L268.801353,446.414718 L297.011477,446.414718 L297.011477,427.397392 L316.023483,427.397392 L316.023483,443.246349 L329.514883,443.246349 L329.514883,429.775373 L344.842811,429.775373 L344.842811,455.131807 L367.531389,455.131807 L367.531389,436.906944 L391.44776,436.906944 L391.44776,421.850746 L404.325734,421.850746 L404.325734,449.585161 L420.884033,449.585161 L420.884033,421.850746 L438.053179,421.850746 L438.053179,431.360298 L466.263302,431.360298 L466.263302,421.850746 L486.499347,421.850746 L486.499347,442.452997 L503.668727,442.452997 L503.668727,421.850746 L517.775196,421.850746 L517.775196,444.036738 L538.011241,444.036738 L538.011241,421.850746 L552.728557,421.850746 L552.728557,459.88599 L571.125494,459.88599 L571.125494,436.906944 L581.578,436.906746 L581.578947,436.113889 L591.975,436.113746 L591.9752,421.850746 L604.852939,421.850746 L604.852,436.113746 L609.523291,436.113889 L609.523291,421.850746 L631.598678,421.850746 L631.598678,457.507714 L646.318105,457.507714 L646.318105,432.152168 L678.205973,432.152168 L678.205973,421.850746 L688.629771,421.850746 L688.629771,438.490092 L709.481354,438.490092 L709.481354,421.850746 L724.198435,421.850746 L724.198435,452.75353 L740.754388,452.75353 L740.754388,432.943742 L766.510101,432.943742 L766.510101,421.850746 L783.681592,421.850746 L783.681592,433.737093 L802.691722,433.737093 L802.691722,421.850746 L825.380301,421.850746 L825.380301,446.414718 L853.590424,446.414718 L853.590424,427.397392 L872.60243,427.397392 L872.60243,443.246349 L886.093831,443.246349 L886.093831,429.775373 L901.421758,429.775373 L901.421758,455.131807 L924.110337,455.131807 L924.110337,436.906944 L948.026707,436.906944 L948.026707,421.850746 L960.904681,421.850746 L960.904681,449.585161 L977.46298,449.585161 L977.46298,421.850746 L994.632126,421.850746 L994.632126,431.360298 L1022.84225,431.360298 L1022.84225,421.850746 L1043.07829,421.850746 L1043.07829,442.452997 L1060.24767,442.452997 L1060.24767,421.850746 L1074.35414,421.850746 L1074.35414,444.036738 L1094.59019,444.036738 L1094.59019,421.850746 L1109.3075,421.850746 L1109.3075,459.88599 L1127.70444,459.88599 L1127.70444,436.906944 L1131,436.906746 L1131,436.113889 L1148.554,436.113746 L1148.55415,421.850746 L1181.01973,421.850746 L1181.01973,457.507714 L1195.73916,457.507714 L1195.73916,432.152168 L1227.62703,432.152168 L1227.62703,421.850746 L1238.05082,421.850746 L1238.05082,438.490092 L1258.90241,438.490092 L1258.90241,421.850746 L1273.61949,421.850746 L1273.61949,452.75353 L1290.17544,452.75353 L1290.17544,432.943742 L1315.93115,432.943742 L1315.93115,421.850746 L1333.10264,421.850746 L1333.10264,433.737093 L1352.11277,433.737093 L1352.11277,421.850746 L1374.80135,421.850746 L1374.80135,446.414718 L1403.01148,446.414718 L1403.01148,427.397392 L1422.02348,427.397392 L1422.02348,443.246349 L1435.51488,443.246349 L1435.51488,429.775373 L1450.84281,429.775373 L1450.84281,455.131807 L1473.53139,455.131807 L1473.53139,436.906944 L1497.44776,436.906944 L1497.44776,421.850746 L1510.32573,421.850746 L1510.32573,449.585161 L1526.88403,449.585161 L1526.88403,421.850746 L1544.05318,421.850746 L1544.05318,431.360298 L1572.2633,431.360298 L1572.2633,421.850746 L1592.49935,421.850746 L1592.49935,442.452997 L1609.66873,442.452997 L1609.66873,421.850746 L1623.7752,421.850746 L1623.7752,444.036738 L1644.01124,444.036738 L1644.01124,421.850746 L1658.72856,421.850746 L1658.72856,459.88599 L1677.12549,459.88599 L1677.12549,436.906944 L1687.578,436.906746 L1687.57895,436.113889 L1697.975,436.113746 L1697.9752,421.850746 L1710.85294,421.850746 L1710.852,436.113746 L1715.52329,436.113889 L1715.52329,421.850746 L1737.59868,421.850746 L1737.59868,457.507714 L1752.3181,457.507714 L1752.3181,432.152168 L1784.20597,432.152168 L1784.20597,421.850746 L1794.62977,421.850746 L1794.62977,438.490092 L1815.48135,438.490092 L1815.48135,421.850746 L1830.19843,421.850746 L1830.19843,452.75353 L1846.75439,452.75353 L1846.75439,432.943742 L1872.5101,432.943742 L1872.5101,421.850746 L1889.68159,421.850746 L1889.68159,433.737093 L1908.69172,433.737093 L1908.69172,421.850746 L1931.3803,421.850746 L1931.3803,446.414718 L1959.59042,446.414718 L1959.59042,427.397392 L1978.60243,427.397392 L1978.60243,443.246349 L1992.09383,443.246349 L1992.09383,429.775373 L2007.42176,429.775373 L2007.42176,455.131807 L2030.11034,455.131807 L2030.11034,436.906944 L2054.02671,436.906944 L2054.02671,421.850746 L2066.90468,421.850746 L2066.90468,449.585161 L2083.46298,449.585161 L2083.46298,421.850746 L2100.63213,421.850746 L2100.63213,431.360298 L2128.84225,431.360298 L2128.84225,421.850746 L2149.07829,421.850746 L2149.07829,442.452997 L2166.24767,442.452997 L2166.24767,421.850746 L2180.35414,421.850746 L2180.354,435.263 L2194.94434,435.263142 L2194.94434,421 L2217.01973,421 Z" id="Combined-Shape" fill="#F3F8FF"></path>
            </g>
        </g>
    </g>
</svg>