<svg xmlns="http://www.w3.org/2000/svg" width="2559" height="285" viewBox="0 0 2559 285">
    <path fill="#F3F8FF" fill-rule="evenodd" d="M2192.02 0v35.657h14.72V10.301h22.814V.851l9.073-.001V0h10.424v16.64l1.352-.001V.851h4.274v15.788h15.225V0h14.717v30.903h16.556v-19.81h25.756V0h17.172v11.886h19.01V0h22.688v24.564h28.21V5.547h19.012v15.849h13.492V7.925h15.328V33.28h22.688V15.056h23.917V0h12.878v27.734h16.558V0h17.17v9.51h28.21V0h20.235v20.602h17.17V0h14.106v22.186h20.236V0h14.718v38.035h18.396V15.056h10.453l.001-.793h10.396V0h12.878l-.001 14.263h4.671V0h22.076v35.657h14.72V10.301h31.887V0h10.424v16.64h20.851V0h14.717v30.903h16.556v-19.81h25.756V0h17.172v11.886h19.01V0h22.688v24.564h28.21V5.547h19.012v15.849h13.492V7.925h15.328V33.28h22.688V15.056h23.917V0h12.878v27.734h16.558V0h17.17v9.51h28.21V0h20.235v20.602h17.17V0h14.106v22.186h20.236V0h14.717v38.035h18.397V15.056H3248v-.793h17.554V0h32.466v35.657h14.72V10.301h31.887V0h10.424v16.64h20.851V0h14.717v30.903h16.556v-19.81h25.756V0h17.172v11.886h19.01V0h22.688v24.564h28.21V5.547h19.012v15.849h13.492V7.925h15.328V33.28h22.688V15.056h23.917V0h12.878v27.734h16.558V0h17.17v9.51h28.21V0h20.235v20.602h17.17V0h14.106v22.186h20.236V0h14.718v38.035h18.396V15.056h10.453l.001-.793h10.396V0h12.878l-.001 14.263h4.671V0h22.076v35.657h14.72V10.301h31.887V0h10.424v16.64h20.851V0h14.717v30.903h16.556v-19.81h25.756V0h17.172v11.886h19.01V0h22.688v24.564h28.21V5.547h19.012v15.849h13.492V7.925h15.328V33.28h22.688V15.056h23.917V0h12.878v27.734h16.558V0h17.17v9.51h28.21V0h20.235v20.602h17.17V0h14.106v22.186h20.236V0h14.717v38.035h18.397V15.056h20.85V0h12.878v22.979h7.971V0h4.274v284.15l-2142-.001V285H0V15.114h27.944V.85H50.02v35.657h14.72V11.152h31.887V.851h10.424v16.64h20.851V.85h14.717v30.903h16.556v-19.81h25.756V.85h17.172v11.886h19.01V.851H243.8v24.564h28.21V6.397h19.012v15.85h13.492V8.774h15.328v25.357h22.688V15.907h23.917V.85h12.878v27.734h16.558V.851h17.17v9.51h28.21V.85h20.235v20.602h17.17V.851h14.106v22.186h20.236V.85h14.718v38.035h18.396v-22.98h10.453v-.792h10.397V.85h12.878l-.001 14.263h4.671V.85H606.6v35.657h14.72V11.152h31.887V.851h10.424v16.64h20.851V.85h14.717v30.903h16.556v-19.81h25.756V.85h17.172v11.886h19.01V.851h22.688v24.564h28.21V6.397h19.012v15.85h13.492V8.774h15.328v25.357h22.688V15.907h23.917V.85h12.878v27.734h16.558V.851h17.17v9.51h28.21V.85h20.235v20.602h17.17V.851h14.106v22.186h20.236V.85h14.717v38.035h18.397v-22.98H1106v-.792h17.554V.85h32.466v35.657h14.72V11.152h31.887V.851h10.424v16.64h20.851V.85h14.717v30.903h16.556v-19.81h25.756V.85h17.172v11.886h19.01V.851h22.688v24.564h28.21V6.397h19.012v15.85h13.492V8.774h15.328v25.357h22.688V15.907h23.917V.85h12.878v27.734h16.558V.851h17.17v9.51h28.21V.85h20.235v20.602h17.17V.851h14.106v22.186h20.236V.85h14.718v38.035h18.396v-22.98h10.453l.001-.792h10.396V.85h12.878l-.001 14.263h4.671V.85h22.076v35.657h14.72V11.152h31.887V.851h10.424v16.64h20.851V.85h14.717v30.903h16.556v-19.81h25.756V.85h17.172v11.886h19.01V.851h22.688v24.564h28.21V6.397h19.012v15.85h13.492V8.774h15.328v25.357h22.688V15.907h23.917V.85h12.878v27.734h16.558V.851h17.17v9.51h28.21V.85h20.235v20.602h17.17V.851h14.106v13.412h14.59V0h22.076z"/>
</svg>
