<svg xmlns="http://www.w3.org/2000/svg" width="2560" height="335" viewBox="0 0 2560 335">
    <path fill="#E4EFFB" fill-rule="evenodd" d="M2168.02 0v41.913h14.72V12.109l22.814-.001V1h9.073V0h10.424v19.559l1.352-.001V1h4.274v18.558h15.225V0h14.717v36.324h16.556V13.04h25.756V0h17.172v13.972h19.01V0h22.688v28.873h28.21V6.52h19.012v18.63h13.492V9.314h15.328V39.12h22.688V17.698h23.917V0h12.878v32.6h16.558V0h17.17v11.178h28.21V0h20.235v24.217h17.17V0h14.106v26.078h20.236V0h14.718v44.708h18.396v-27.01l10.453-.001.001-.932h10.396V0h12.878l-.001 16.765h4.671V0h22.076v41.913h14.72V12.109h31.887V0h10.424v19.559h20.851V0h14.717v36.324h16.556V13.04h25.756V0h17.172v13.972h19.01V0h22.688v28.873h28.21V6.52h19.012v18.63h13.492V9.314h15.328V39.12h22.688V17.698h23.917V0h12.878v32.6h16.558V0h17.17v11.178h28.21V0h20.235v24.217h17.17V0h14.106v26.078h20.236V0h14.717v44.708h18.397v-27.01l3.296-.001v-.932h17.554V0h32.466v41.913h14.72V12.109h31.887V0h10.424v19.559h20.851V0h14.717v36.324h16.556V13.04h25.756V0h17.172v13.972h19.01V0h22.688v28.873h28.21V6.52h19.012v18.63h13.492V9.314h15.328V39.12h22.688V17.698h23.917V0h12.878v32.6h16.558V0h17.17v11.178h28.21V0h20.235v24.217h17.17V0h14.106v26.078h20.236V0h14.718v44.708h18.396v-27.01l10.453-.001.001-.932h10.396V0h12.878l-.001 16.765h4.671V0h22.076v41.913h14.72V12.109h31.887V0h10.424v19.559h20.851V0h14.717v36.324h16.556V13.04h25.756V0h17.172v13.972h19.01V0h22.688v28.873h28.21V6.52h19.012v18.63h13.492V9.314h15.328V39.12h22.688V17.698h23.917V0h12.878v32.6h16.558V0h17.17v11.178h28.21V0h20.235v24.217h17.17V0h14.106v26.078h20.236V0h14.717v44.708h18.397v-27.01h20.85V0h12.878v27.01h7.971V0h4.274v334h-2142v1H-24V17.765H3.944V1H26.02v41.913h14.72V13.109h31.887V1h10.424v19.559h20.851V1h14.717v36.324h16.556V14.04h25.756V1h17.172v13.972h19.01V1H219.8v28.873h28.21V7.52h19.012v18.63h13.492V10.314h15.328V40.12h22.688V18.698h23.917V1h12.878v32.6h16.558V1h17.17v11.178h28.21V1h20.235v24.217h17.17V1h14.106v26.078h20.236V1h14.718v44.708h18.396v-27.01l10.453-.001v-.932h10.397V1h12.878l-.001 16.765h4.671V1H582.6v41.913h14.72V13.109h31.887V1h10.424v19.559h20.851V1h14.717v36.324h16.556V14.04h25.756V1h17.172v13.972h19.01V1h22.688v28.873h28.21V7.52h19.012v18.63h13.492V10.314h15.328V40.12h22.688V18.698h23.917V1h12.878v32.6h16.558V1h17.17v11.178h28.21V1h20.235v24.217h17.17V1h14.106v26.078h20.236V1h14.717v44.708h18.397v-27.01l3.296-.001v-.932h17.554V1h32.466v41.913h14.72V13.109h31.887V1h10.424v19.559h20.851V1h14.717v36.324h16.556V14.04h25.756V1h17.172v13.972h19.01V1h22.688v28.873h28.21V7.52h19.012v18.63h13.492V10.314h15.328V40.12h22.688V18.698h23.917V1h12.878v32.6h16.558V1h17.17v11.178h28.21V1h20.235v24.217h17.17V1h14.106v26.078h20.236V1h14.718v44.708h18.396v-27.01l10.453-.001.001-.932h10.396V1h12.878l-.001 16.765h4.671V1h22.076v41.913h14.72V13.109h31.887V1h10.424v19.559h20.851V1h14.717v36.324h16.556V14.04h25.756V1h17.172v13.972h19.01V1h22.688v28.873h28.21V7.52h19.012v18.63h13.492V10.314h15.328V40.12h22.688V18.698h23.917V1h12.878v32.6h16.558V1h17.17v11.178h28.21V1h20.235v24.217h17.17V1h14.106v15.765h14.59V0h22.076z"/>
</svg>
