<svg xmlns="http://www.w3.org/2000/svg" width="33" height="32" viewBox="0 0 33 32">
    <path fill="#1D519D" d="M24.455 4.468c0 1.205-.498 2.332-1.403 3.175-.094.087-.215.13-.338.13-.125 0-.25-.046-.345-.138-.187-.182-.184-.474.008-.652.716-.667 1.11-1.56 1.11-2.516 0-1.94-1.655-3.518-3.689-3.518s-3.69 1.579-3.69 3.518c0 .94.385 1.824 1.082 2.488.189.18.189.472 0 .652-.189.18-.495.18-.684 0-.88-.839-1.364-1.954-1.364-3.14 0-2.448 2.089-4.44 4.656-4.44 2.567 0 4.657 1.992 4.657 4.44zM2.81 15.969c-.253-.08-.527.05-.612.29-.16.456-.242.933-.242 1.417 0 .357.044.713.132 1.056.054.21.252.352.469.352.038 0 .077-.005.115-.013.26-.06.419-.31.355-.558-.07-.271-.105-.553-.105-.837 0-.384.065-.762.192-1.123.085-.241-.05-.502-.304-.584zm3.284 5.191c-.759-.101-1.456-.422-2.016-.926-.193-.175-.5-.167-.683.018-.184.185-.175.477.019.652.706.636 1.587 1.04 2.546 1.169.023.003.045.004.068.004.237 0 .444-.166.478-.397.037-.252-.147-.485-.412-.52zm4.619-2.612c-.252-.084-.528.043-.615.284-.267.732-.79 1.37-1.475 1.794-.223.14-.287.425-.14.638.092.136.247.21.405.21.09 0 .182-.025.263-.076.863-.536 1.523-1.34 1.86-2.264.087-.24-.046-.503-.298-.586zm-1.616-4.626c-.226-.136-.524-.072-.667.143-.143.215-.076.5.15.636.66.398 1.18.997 1.465 1.686.075.182.257.292.45.292.059 0 .12-.01.177-.032.248-.093.37-.36.272-.598-.36-.87-1.015-1.625-1.847-2.127zm-3.46-.587c-.891.18-1.7.605-2.343 1.226-.187.182-.185.474.005.652.094.088.217.132.34.132.125 0 .25-.045.344-.137.509-.492 1.15-.828 1.855-.972.261-.053.428-.298.372-.547-.056-.249-.314-.41-.574-.354zm5.182.661l1.323-1.485c.172-.194.148-.484-.056-.65-.204-.164-.509-.141-.682.054L10.083 13.4c-.173.193-.148.484.055.65.091.073.202.109.313.109.137 0 .273-.055.369-.163zm2.699-4.453l-.978 1.096c-.172.194-.148.485.056.65.091.074.202.11.313.11.137 0 .273-.055.369-.163l.977-1.097c.173-.194.148-.484-.056-.65-.204-.165-.508-.141-.681.054zm.946-.35c.09.073.202.11.313.11.136 0 .273-.056.368-.163l.849-.952c.172-.194.147-.485-.056-.65-.203-.165-.509-.142-.682.053l-.848.952c-.173.194-.148.485.056.65zm16.458 8.064c-.107-.945-1.039-1.651-1.834-1.611-.409.02-.471.289-.471.289v3.207c0 .103-.073.187-.161.187-.089 0-.529-.084-.529-.187v-4.084s.017-.202-.09-.34c-.516-.66-1.646-.742-2.118-.641-.234.05-.217.335-.217.335v4.067c0 .103-.44.188-.529.188-.088 0-.16-.085-.16-.188v-4.21s-.006-.312-.283-.433c-.499-.22-1.575-.337-1.92-.35-.262-.01-.274.203-.274.203v3.492c0 .103-.073.187-.16.187-.089 0-.53-.084-.53-.187l-.182-11.003c-.067-.995-.758-1.745-1.482-1.745-.463 0-1.529.288-1.624 2.231-.048 3.65-.052 8.896-.129 11.773-.025-.088-.635-2.105-.658-2.192-.063-2.278-2.182-4.024-3.816-3.774-.438.066-.29.044.329 5.966.003.024 2.226 7.304 3.993 10.041.115.217.104 2.642.14 2.794.102.435.487.695 1.03.695l8.96.005c.58 0 1.57-.344 1.613-.898.026-.335.068-2.793.097-2.95.657-3.464 1.427-7.116 1.005-10.867z"/>
</svg>
