<svg xmlns="http://www.w3.org/2000/svg" width="32" height="32" viewBox="0 0 32 32">
    <g fill="#1D519D">
        <path d="M29.638 27.255v-2.114c0-.519-.41-.94-.917-.94h-.565v-9.98h.043c.507 0 .917-.42.917-.94v-1.73h1.273c.407 0 .766-.275.88-.676.115-.4-.042-.83-.386-1.056L16.148.15c-.302-.198-.688-.198-.99 0L.424 9.818c-.343.225-.5.656-.386 1.056.114.4.473.676.88.676H2.19v1.73c0 .52.41.94.917.94h.043v9.98h-.565c-.507 0-.917.421-.917.94v2.114h27.97zm-11.496-3.054v-9.98h.042c.507 0 .918-.42.918-.94v-1.73h3.117v1.73c0 .52.411.94.918.94h.042v9.98h-5.037zm-9.972-9.98c.506 0 .917-.42.917-.94v-1.73h3.118v1.73c0 .52.41.94.917.94h.043v9.98H8.127v-9.98h.043zM0 29.135v1.925c0 .52.41.94.917.94H30.39c.507 0 .917-.42.917-.94v-1.925H0z" transform="translate(.5)"/>
    </g>
</svg>
