<svg xmlns="http://www.w3.org/2000/svg" width="33" height="32" viewBox="0 0 33 32">
    <path fill="#1D519D" d="M31.883 23.707h-.097l-.967-5.495.532-4.945-.526-2.174.593-.28-3.847-6.036-1.565-.055c.825-.893 1.018-2.306.278-3.444-.596-.916-1.71-1.382-2.753-1.14-1.166.27-1.919 1.22-2.072 2.289l-1.939.5c.143.589.72.946 1.29.8l.716-.185c.038.145.08.29.142.43.515 1.161 1.715 1.764 2.879 1.551l-.845 1.085.887 3.225-1.827 2.148-.284-1.867.526-.085c.29-.047.489-.328.443-.628l-.165-1.086c-.046-.3-.318-.505-.608-.457L9.537 9.986c-.29.047-.49.328-.443.628l.165 1.086c.045.3.317.505.607.458l.526-.086.697 4.591-2.729-.623-.413-2.773-1.333-.688c1.078-.35 1.865-1.38 1.865-2.608 0-.225-.034-.44-.083-.65l.776-.2c.57-.147.916-.743.773-1.332l-2.02.522c-.576-.78-1.537-1.24-2.6-1.041-1.061.199-1.926 1.086-2.12 2.183-.257 1.45.592 2.727 1.819 3.126l-1.333.688-1.063 7.143h.585l.478 4.945-.967 5.495H.5v1.099h31.383c.294 0 .532-.246.532-.55v-7.143c0-.303-.238-.549-.532-.549zM6.98 30.85H4.423l1.396-3.846.557-3.736 1.57 2.087-.966 5.495zm18.875-7.143H12.734c-.294 0-.532.246-.532.55v6.593H8.656l1.95-6.044L8.48 20.41h.532l-.297-1.993 2.992.276c.474.044.899-.303.967-.79.004-.028.003-.055.004-.084l10.183-1.65c.29-.047.488-.328.443-.628l-.231-1.519c.187-.015.37-.087.521-.224l1.67-1.517.35 1.277.571-.27-2.28 4.375 1.95 6.044zm1.676 0l-.967-5.495 1.439-1.91.688 3.559 1.397 3.846H27.53z"/>
</svg>
