<svg id="c42535ee-17bc-4546-a2b4-ed5cdf7c0f3d" data-name="Слой 1" xmlns="http://www.w3.org/2000/svg" width="1921.62" height="1017.48" viewBox="0 0 1921.62 1017.48">
  <defs>
    <style>
      .e9cc6434-fede-4759-a4be-afdbc41e9b0a {
        fill: #f4f4f4;
      }
    </style>
  </defs>
  <title>background</title>
  <g>
    <path id="92a0628c-87aa-418e-9bfe-bc668503d82e" data-name="qykma" class="e9cc6434-fede-4759-a4be-afdbc41e9b0a" d="M423.5,620.4C459,693.18,430.55,780,357.77,815.49A146.46,146.46,0,0,1,161.84,748c-35.5-72.78-4.47-158.7,68.31-194.2S388,547.62,423.5,620.4Zm41.07,295.3-13.36-45c-5.79-25.06,20.38-55,46.2-50.41l45.64,5.62c8.63.09,17.29-4.14,20-11.87l21.34-66.19c2.67-7.73.17-17.24-7.56-19.91L537.36,704.3c-24-14-25.36-52-3.63-69l37.36-28.95c6.09-5.12,8.75-12.85,4.52-21.52l-30.42-62.38a18.52,18.52,0,0,0-19.74-9.68l-45,13.35c-26.8,6.64-56.72-19.53-52.15-45.35L434,435.12c1.82-9.47-4.14-17.29-11.87-19.95L357.62,393c-7.73-2.66-17.24-.17-21.64,8.41l-23.67,39.43c-12.3,23.16-52,25.36-69,3.64l-27.22-38.21a18.51,18.51,0,0,0-21.51-4.53l-62.39,30.43c-8.66,4.23-11.32,12-9.68,19.74l11.62,45.81c6.64,26.8-17.79,55.87-45.35,52.15l-45.64-5.62c-7.74-2.66-15.56,3.3-18.22,11L1,620.55c-2.66,7.73,1.57,16.39,8.41,21.64l39.44,23.67c23.16,12.3,25.35,52,5.36,68.17L16,761.24c-7.82,6-9.64,15.43-6.26,22.36L40.15,846c4.23,8.66,12,11.32,21.47,8.83l45.82-11.62c25.06-5.79,54.14,18.64,50.41,46.2L152.23,935c-.93,6.89,3.3,15.56,11,18.22l67,23.08c7.73,2.66,16.4-1.56,19.91-7.56l23.67-39.43c14-24,52-25.36,68.17-5.37L371,961.34c6,7.82,13.69,10.49,22.36,6.26l62.38-30.43c6.93-3.38,11.33-12,8.83-21.47Z" transform="translate(-0.18 -0.05)"/>
    <path id="317b37f2-3920-439f-bf96-8ae4580b8fc7" data-name="qykmb" class="e9cc6434-fede-4759-a4be-afdbc41e9b0a" d="M1480,268.64c133.5,38.28,211.49,174.16,173.21,307.66s-177.34,210.59-310.84,172.31S1135,572.18,1173.26,438.67,1346.51,230.35,1480,268.64ZM1903.53,555.2l-72.65-34.6c-38.58-21.38-46.7-89.07-11.24-116.74l59.55-51.72c10-10.89,14.56-26.79,7.76-39.06l-59.86-103.16c-6.8-12.27-21.78-20-34-13.2l-75.42,23.09c-45.44,14.49-95.36-27.35-92.14-74.58l6-80.84c.47-13.63-6.33-25.9-22.22-30.46L1494.81,1.12c-12.72-3.65-28.17,2.24-35,14.05l-34.59,72.64c-22.3,41.76-90,49.87-117.66,14.42l-51.72-59.55c-10-13.18-26.79-14.56-39.06-7.76L1114.54,91.6c-12.27,6.8-20,21.78-14.11,37.23l23.09,75.42c15.4,42.26-27.34,95.36-74.58,92.14L969,287.23c-13.63-.47-26.81,9.51-30.46,22.22L905.74,423.88c-4.56,15.9,2.25,28.17,14,35l71.73,37.77c41.77,22.3,50.79,86.8,14.42,117.66L946.39,666c-12.27,6.8-13.65,23.61-6.85,35.88l55.77,105.43c6.8,12.27,22.69,16.83,37.23,14.11L1108,798.35c42.26-15.4,95.36,27.34,93,71.4l-9.16,79.93c-1.38,16.81,8.6,30,21.31,33.64l114.44,32.81c15.89,4.56,28.16-2.25,35.9-17.23l37.76-71.73c21.39-38.58,85.89-47.61,116.75-11.24l51.72,59.55c7.71,9.09,23.61,13.65,35.88,6.85l106.34-59c12.27-6.8,16.83-22.69,13.2-34l-23.09-75.42c-14.49-45.44,27.34-95.36,71.4-93l80.85,6c16.8,1.38,29.07-5.42,33.63-21.31l32.81-114.43c3.65-12.72-2.24-28.17-17.22-35.9Z" transform="translate(-0.18 -0.05)"/>
  </g>
</svg>
