<svg xmlns="http://www.w3.org/2000/svg" width="23" height="20" viewBox="0 0 23 20"><g><g><g><path fill="#0092e8" d="M22.414 13.73a.583.583 0 0 0-.585.58v2.213c0 1.277-1.05 2.317-2.342 2.317H3.513c-1.291 0-2.342-1.04-2.342-2.317v-2.214c0-.32-.262-.579-.585-.579a.582.582 0 0 0-.586.58v2.213c0 1.916 1.576 3.475 3.513 3.475h15.974c1.937 0 3.513-1.559 3.513-3.475v-2.214c0-.32-.262-.579-.586-.579z"/></g><g><path fill="#0092e8" d="M18.855 16.01H4.135a.583.583 0 0 0-.585.58c0 .32.262.579.586.579h14.719c.323 0 .585-.26.585-.58 0-.32-.262-.579-.585-.579z"/></g><g><path fill="#0092e8" d="M17.431 7.863a.59.59 0 0 0-.827-.046l-4.514 3.99V.578c0-.32-.262-.579-.585-.579a.582.582 0 0 0-.586.58v11.226l-4.513-3.99a.59.59 0 0 0-.827.047.575.575 0 0 0 .046.818l4.905 4.334a1.47 1.47 0 0 0 1.95 0l4.904-4.334a.575.575 0 0 0 .047-.818z"/></g></g></g></svg>