<svg xmlns="http://www.w3.org/2000/svg" width="17" height="17" viewBox="0 0 17 17"><g><g><path fill="#fafafa" d="M8.957 9.158H7.825L7.65 5.914h1.482zm-1.293 1.2c0-.208.061-.37.185-.485.123-.115.303-.173.538-.173.234 0 .41.058.53.173.12.116.18.277.18.486 0 .205-.062.366-.187.481-.124.116-.299.174-.523.174-.226 0-.403-.058-.531-.174-.128-.115-.192-.276-.192-.481zM9.284 17l.622-.948.92.659.438-1.047 1.025.477.238-1.109 1.095.28.032-1.134 1.128.073-.177-1.121 1.122-.136-.379-1.07 1.078-.34-.568-.982.997-.533-.738-.86L17 8.5l-.883-.709.738-.86-.997-.533.568-.982-1.078-.34.379-1.07-1.122-.136.177-1.12-1.128.072-.032-1.134-1.095.28-.238-1.11-1.025.478-.438-1.047-.92.659L9.284 0 8.5.817 7.716 0l-.622.948-.92-.659-.438 1.047L4.711.859l-.238 1.109-1.095-.28-.032 1.134-1.128-.073.177 1.121-1.122.136.379 1.07-1.078.34.568.982-.997.533.738.86L0 8.5l.883.709-.738.86.997.533-.568.982 1.078.34-.379 1.07 1.122.136-.177 1.12 1.128-.072.032 1.134 1.095-.28.238 1.11 1.025-.478.438 1.047.92-.659.622.948.784-.817z"/></g></g></svg>