<svg xmlns="http://www.w3.org/2000/svg" xmlns:xlink="http://www.w3.org/1999/xlink" width="20" height="17" viewBox="0 0 20 17"><defs><path id="oq2ra" d="M662.662 468.852l8.453-8.452c.34-.341.529-.795.529-1.28-.001-.485-.19-.939-.534-1.28a1.81 1.81 0 0 0-2.55.005l-7.34 7.34a.593.593 0 0 1-.843 0 .593.593 0 0 1 0-.844l7.34-7.34a3.005 3.005 0 0 1 4.233-.008c.57.566.886 1.32.887 2.123v.007a2.98 2.98 0 0 1-.879 2.12l-8.452 8.453a4.9 4.9 0 0 1-6.922 0 4.863 4.863 0 0 1-1.433-3.46c0-1.308.509-2.537 1.433-3.462l6.944-6.944a.593.593 0 0 1 .844 0 .593.593 0 0 1 0 .844l-6.944 6.944a3.677 3.677 0 0 0-1.084 2.617c0 .989.385 1.918 1.084 2.617a3.705 3.705 0 0 0 5.234 0zm-5.552-2.617c0-.784.305-1.521.86-2.075l6.944-6.944c.257-.258.399-.6.399-.964s-.142-.706-.4-.963a1.353 1.353 0 0 0-.963-.4c-.364 0-.706.143-.963.4l-6.944 6.944a5.623 5.623 0 0 0-1.658 4.002c0 1.512.589 2.933 1.658 4.002a5.666 5.666 0 0 0 8.004 0l8.453-8.452a3.74 3.74 0 0 0 1.103-2.662v-.008a3.74 3.74 0 0 0-1.113-2.665 3.773 3.773 0 0 0-5.315.01l-7.34 7.34c-.257.257-.399.6-.399.963 0 .364.142.706.4.963.257.258.599.4.963.4s.706-.142.963-.4l7.34-7.34a1.043 1.043 0 0 1 1.776.737c0 .278-.108.539-.305.735l-8.452 8.453a2.915 2.915 0 0 1-2.076.858 2.915 2.915 0 0 1-2.075-.858 2.916 2.916 0 0 1-.86-2.076z"/></defs><g><g transform="translate(-654 -455)"><use fill="#2196f3" xlink:href="#oq2ra"/></g></g></svg>