<svg id="a4b02f3b-bb78-4d2d-8139-b25627285487" data-name="Слой 1" xmlns="http://www.w3.org/2000/svg" xmlns:xlink="http://www.w3.org/1999/xlink" width="477" height="477" viewBox="0 0 477 477">
  <defs>
    <style>
      .a16dc25f-a098-4a60-96f3-a04323ad32af {
        fill: url(#fd8419fb-b4dd-4d63-8659-3b8949943387);
      }

      .c2e515b4-a95b-4f94-b3c7-307f6269c2f1 {
        isolation: isolate;
        font-size: 220px;
        fill: #d40005;
        font-family: SegoeUI, Segoe UI;
      }
    </style>
    <linearGradient id="fd8419fb-b4dd-4d63-8659-3b8949943387" data-name="Новый образец градиентной залив" y1="238.5" x2="477" y2="238.5" gradientUnits="userSpaceOnUse">
      <stop offset="0" stop-color="#ab47bc"/>
      <stop offset="1" stop-color="#2196f3"/>
    </linearGradient>
  </defs>
  <title>gear-gradient</title>
  <path id="770ce791-9ec0-455d-bd45-4157295213c7" data-name="wwupe" class="a16dc25f-a098-4a60-96f3-a04323ad32af" d="M237.73,122c64.83,0,117.32,50.94,117.32,115.78A117.27,117.27,0,0,1,237.73,355.05C172.89,355.05,122,302.56,122,237.73S172.89,122,237.73,122Zm226.92,74.1-37-6.18c-20.07-4.63-32.42-34-20.07-50.94l20.07-30.87c3.09-6.18,3.09-13.9-1.54-18.53L385.92,50.94c-4.63-4.63-12.35-6.17-17-1.54L338.07,69.47c-18.53,12.35-46.31,0-50.94-21.62l-7.72-37C277.86,4.63,273.23,0,265.51,0H209.94a14.82,14.82,0,0,0-13.89,10.81l-6.18,37c-4.63,21.62-34,34-50.94,21.62L108.06,49.4a14.06,14.06,0,0,0-18.53,1.54L50.94,89.53a14.06,14.06,0,0,0-1.54,18.53l20.07,30.87c12.35,17,0,46.31-21.62,50.94l-37,6.18A14.82,14.82,0,0,0,0,209.94v55.57c0,7.72,4.63,12.35,10.81,13.9l37,7.71c21.62,4.64,34,32.42,21.62,50.95L49.4,368.94c-4.63,4.63-3.09,12.35,1.54,17l38.59,40.14c4.64,4.63,12.35,4.63,18.53,1.54l30.87-20.07c17-12.35,46.31,0,50.94,20.07l6.18,37c1.54,7.72,7.72,12.35,13.89,12.35h55.58c7.71,0,12.35-4.63,13.89-12.35l7.72-37c4.63-20.07,32.41-32.42,50.94-20.07l30.87,20.07c4.63,3.09,12.35,3.09,17-1.54l40.14-40.14c4.63-4.63,4.63-12.35,1.54-17l-20.07-30.87c-12.35-18.53,0-46.31,20.07-50.95l37-7.71c7.72-1.55,12.35-6.18,12.35-13.9V209.94C477,203.77,472.37,197.59,464.65,196.05Z"/>
  <text class="c2e515b4-a95b-4f94-b3c7-307f6269c2f1" transform="translate(208.37 286.79)"> </text>
</svg>
