<svg id="0d16eaea-f3cf-4d7e-8429-ab0ff8280780" data-name="Слой 1" xmlns="http://www.w3.org/2000/svg" xmlns:xlink="http://www.w3.org/1999/xlink" width="66.55" height="79.86" viewBox="0 0 66.55 79.86">
  <defs>
    <style>
      .\32 7e3003a-9da6-4281-8beb-786b9c21dd22 {
        fill: url(#2c598b74-8443-44ba-ae14-cc8293c269a9);
      }

      .\35 cd4602f-d3bb-4728-b431-768ea8fe2854 {
        fill: url(#582a6180-d7ca-463c-8202-4a4f4d4d46db);
      }

      .\37 0d5a157-ccd8-46f8-a71b-2e441a80a94a {
        fill: url(#3c99c7e7-0af2-4866-bd83-d86e35fd83bf);
      }

      .\30 2b77689-4b7d-4acf-9382-50efab537f28 {
        fill: url(#5a5c43a7-1b51-4247-97ff-f8bf54ae8065);
      }

      .\34 9eaadd9-6937-4153-a82e-06f06aa77b97 {
        fill: url(#ecd0513d-e3fe-4c6c-b60c-86c357c0e306);
      }

      .\30 75aa059-3c79-4971-8def-688c625ff742 {
        fill: url(#43f26433-56e7-4e9b-890d-7f2e62db9ade);
      }
    </style>
    <linearGradient id="2c598b74-8443-44ba-ae14-cc8293c269a9" data-name="Новый образец градиентной залив" x1="39.93" y1="79.86" x2="39.93" gradientUnits="userSpaceOnUse">
      <stop offset="0" stop-color="#ab47bc"/>
      <stop offset="1" stop-color="#2196f3"/>
    </linearGradient>
    <linearGradient id="582a6180-d7ca-463c-8202-4a4f4d4d46db" x1="18.48" y1="21.77" x2="18.48" y2="18.11" xlink:href="#2c598b74-8443-44ba-ae14-cc8293c269a9"/>
    <linearGradient id="3c99c7e7-0af2-4866-bd83-d86e35fd83bf" x1="64.38" y1="32.05" x2="64.38" y2="28.06" xlink:href="#2c598b74-8443-44ba-ae14-cc8293c269a9"/>
    <linearGradient id="5a5c43a7-1b51-4247-97ff-f8bf54ae8065" x1="31.74" y1="18.43" x2="31.74" y2="6.65" xlink:href="#2c598b74-8443-44ba-ae14-cc8293c269a9"/>
    <linearGradient id="ecd0513d-e3fe-4c6c-b60c-86c357c0e306" x1="44.62" y1="72.13" x2="44.62" y2="33.41" xlink:href="#2c598b74-8443-44ba-ae14-cc8293c269a9"/>
    <linearGradient id="43f26433-56e7-4e9b-890d-7f2e62db9ade" x1="39.93" y1="51.22" x2="39.93" y2="19.24" xlink:href="#2c598b74-8443-44ba-ae14-cc8293c269a9"/>
  </defs>
  <title>how-it-work-icon-3-gradient</title>
  <g>
    <path class="27e3003a-9da6-4281-8beb-786b9c21dd22" d="M71.54,14.14h0c-5.19,0-9.13-3-13.31-6.25C53.44,4.19,48,0,39.93,0S26.42,4.19,21.63,7.89c-4.18,3.21-8.12,6.25-13.31,6.25a1.66,1.66,0,0,0-1.66,1.67c0,19.42,2.42,32.36,7.84,41.94S27.91,73.18,39.1,79.64a1.69,1.69,0,0,0,1.66,0C52,73.18,60,67.26,65.36,57.75S73.2,35.23,73.2,15.81A1.66,1.66,0,0,0,71.54,14.14ZM39.93,76.27C19.86,64.57,10.25,54.49,10,17.39c5.48-.56,9.64-3.76,13.67-6.87C28.25,7,33,3.33,39.93,3.33S51.62,7,56.2,10.52c4,3.11,8.19,6.31,13.67,6.87C69.61,54.49,60,64.57,39.93,76.27Z" transform="translate(-6.66 0)"/>
    <path class="5cd4602f-d3bb-4728-b431-768ea8fe2854" d="M20.27,19h0A1.67,1.67,0,0,0,18,18.3l-.63.32a1.67,1.67,0,0,0,1.47,3l.71-.36A1.66,1.66,0,0,0,20.27,19Z" transform="translate(-6.66 0)"/>
    <path class="70d5a157-ccd8-46f8-a71b-2e441a80a94a" d="M64.2,32.05h0A1.66,1.66,0,0,0,66,30.54l.06-.64a1.67,1.67,0,0,0-3.31-.37v.09l-.06.62A1.67,1.67,0,0,0,64.2,32.05Z" transform="translate(-6.66 0)"/>
    <path class="02b77689-4b7d-4acf-9382-50efab537f28" d="M23.56,18.43h0a1.66,1.66,0,0,0,1-.32c1-.7,1.91-1.41,2.81-2.1,4.25-3.23,7.92-6,12.59-6a1.67,1.67,0,1,0,0-3.33c-5.79,0-10.07,3.26-14.6,6.71-.89.68-1.81,1.38-2.74,2.05a1.67,1.67,0,0,0,1,3Z" transform="translate(-6.66 0)"/>
    <path class="49eaadd9-6937-4153-a82e-06f06aa77b97" d="M39.93,68.52c-4.26-2.63-9.4-6.15-13.26-10.7A1.66,1.66,0,0,0,24.14,60c4.43,5.23,10.3,9.12,14.93,11.92l0,0,.13.06.08,0,.11,0,.1,0,.1,0,.11,0h.42l.11,0,.1,0,.1,0,.11,0,.08,0,.13-.06,0,0c4.63-2.8,10.5-6.69,14.93-11.92C60.78,54,64,46,65.46,35.32a1.66,1.66,0,0,0-3.29-.51v0c-1.4,10-4.34,17.5-9,23C49.33,62.37,44.19,65.89,39.93,68.52Z" transform="translate(-6.66 0)"/>
    <path class="075aa059-3c79-4971-8def-688c625ff742" d="M50.67,20.82h0L33.31,38.17l-4.12-4.12a5.41,5.41,0,1,0-7.64,7.65l8,7.95.07.07,0,0,.07.07,0,0,.07.06,0,0,.07.06,0,0,.07.06,0,0,.08.06,0,0,.08.06,0,0,.08,0,0,0,.07,0,0,0,.08,0,0,0,.08.05,0,0,.09,0h0l.08,0,.05,0,.08,0h0l.05,0,.09,0,.08,0h0l.08,0h0l.08,0,.05,0h0l.08,0,.09,0h0l.09,0h0l.09,0h0l.08,0h0l.09,0h.17l.09,0H34.1l.09,0h.18l.08,0h0l.09,0h0l.09,0h0l.09,0h0L35,51l.08,0h0l0,0,.09,0h0l.08,0,0,0,.08,0a.2.2,0,0,0,.08,0l0,0h0l.08,0,0,0,.08,0,.08,0,0,0,0,0,.08,0,0,0,.08,0,0,0,.07,0h0l.08-.06,0,0,.07-.06,0,0,.08,0,0,0,.08-.06.06-.05,0,0s0,0,0,0l.07-.06,0,0,.07-.06,0,0,.07-.07,0,0L58.32,28.46a5.42,5.42,0,0,0,0-7.64,5.42,5.42,0,0,0-7.65,0ZM56,26.11,34.78,47.29h0l-.15.14h0l-.2.14-.28.15h0l-.19.07h0l-.29.07h0l-.14,0h-.37l-.15,0h0l-.29-.07h0l-.16-.06-.31-.16-.29-.22-8-8a2.09,2.09,0,0,1,0-3,2.1,2.1,0,0,1,2.94,0l5.3,5.3a1.66,1.66,0,0,0,2.35,0h0L53,23.17A2.08,2.08,0,0,1,56,26.11Z" transform="translate(-6.66 0)"/>
  </g>
</svg>
