<svg id="a386ff5a-1ded-44d6-8ffe-86dd73bdf716" data-name="Слой 1" xmlns="http://www.w3.org/2000/svg" width="66.55" height="79.86" viewBox="0 0 66.55 79.86">
  <defs>
    <style>
      .f85d457e-3fe1-43e9-aa3e-ee98399ec047 {
        fill: #333;
      }

      .\35 7c2824a-b60c-4b40-927a-8dbf8670948b {
        fill: #ab47bc;
      }
    </style>
  </defs>
  <title>how-it-work-icon-3</title>
  <g>
    <path id="b49792da-fe08-4496-a09f-99cfa3fa643e" data-name="wwupK" class="f85d457e-3fe1-43e9-aa3e-ee98399ec047" d="M39.93,76.27C19.86,64.57,10.25,54.49,10,17.39c5.48-.56,9.64-3.76,13.67-6.87C28.25,7,33,3.33,39.93,3.33S51.62,7,56.2,10.52c4,3.11,8.19,6.31,13.67,6.87C69.61,54.49,60,64.57,39.93,76.27ZM71.54,14.14c-5.19,0-9.13-3-13.31-6.25C53.44,4.19,48,0,39.93,0S26.42,4.19,21.63,7.89c-4.18,3.21-8.12,6.25-13.31,6.25a1.66,1.66,0,0,0-1.66,1.67c0,19.42,2.42,32.36,7.84,41.94S27.91,73.18,39.1,79.64a1.69,1.69,0,0,0,1.66,0C52,73.18,60,67.26,65.36,57.75S73.2,35.23,73.2,15.81a1.66,1.66,0,0,0-1.66-1.67Z" transform="translate(-6.66 0)"/>
    <path id="fdc71075-6623-480b-94f8-b89655a657e0" data-name="wwupL" class="57c2824a-b60c-4b40-927a-8dbf8670948b" d="M20.27,19A1.67,1.67,0,0,0,18,18.3l-.63.32a1.67,1.67,0,0,0,1.47,3l.71-.36A1.66,1.66,0,0,0,20.27,19Z" transform="translate(-6.66 0)"/>
    <path id="d95418cd-f43b-4f19-b88d-b214e6ff7e65" data-name="wwupM" class="57c2824a-b60c-4b40-927a-8dbf8670948b" d="M64.2,32.05A1.66,1.66,0,0,0,66,30.54l.06-.64a1.67,1.67,0,0,0-3.31-.37v.09l-.06.62a1.67,1.67,0,0,0,1.51,1.81Z" transform="translate(-6.66 0)"/>
    <path id="79ba677f-cc32-4a3a-8ca0-aa0e174e2903" data-name="wwupN" class="57c2824a-b60c-4b40-927a-8dbf8670948b" d="M23.56,18.43a1.66,1.66,0,0,0,1-.32c1-.7,1.91-1.41,2.81-2.1,4.25-3.23,7.92-6,12.59-6a1.67,1.67,0,1,0,0-3.33c-5.79,0-10.07,3.26-14.6,6.71-.89.68-1.81,1.38-2.74,2.05a1.67,1.67,0,0,0,1,3Z" transform="translate(-6.66 0)"/>
    <path id="d9215303-d79d-4bd7-8747-e503151f0bd9" data-name="wwupO" class="f85d457e-3fe1-43e9-aa3e-ee98399ec047" d="M39.93,68.52c-4.26-2.63-9.4-6.15-13.26-10.7A1.66,1.66,0,0,0,24.14,60c4.43,5.23,10.3,9.12,14.93,11.92l0,0,.13.06.08,0,.11,0,.1,0,.1,0,.11,0h.42l.11,0,.1,0,.1,0,.11,0,.08,0,.13-.06,0,0c4.63-2.8,10.5-6.69,14.93-11.92C60.78,54,64,46,65.46,35.32a1.66,1.66,0,0,0-3.29-.51v0c-1.4,10-4.34,17.5-9,23-3.86,4.55-9,8.07-13.26,10.7Z" transform="translate(-6.66 0)"/>
    <path id="2391b2ad-a6ff-4fd6-b247-168d5c8d4b99" data-name="wwupP" class="f85d457e-3fe1-43e9-aa3e-ee98399ec047" d="M56,26.11,34.78,47.29h0l-.15.14h0l-.2.14-.28.15h0l-.19.07h0l-.29.07h0l-.14,0h-.37l-.15,0h0l-.29-.07h0l-.16-.06-.31-.16-.29-.22-8-8a2.09,2.09,0,0,1,0-3,2.1,2.1,0,0,1,2.94,0l5.3,5.3a1.66,1.66,0,0,0,2.35,0h0L53,23.17A2.08,2.08,0,0,1,56,26.11Zm-5.29-5.3L33.31,38.17l-4.12-4.12a5.41,5.41,0,1,0-7.64,7.65l8,7.95.07.07,0,0,.07.07,0,0,.07.06,0,0,.07.06,0,0,.07.06,0,0,.08.06,0,0,.08.06,0,0,.08,0,0,0,.07,0,0,0,.08,0,0,0,.08.05,0,0,.09,0h0l.08,0,.05,0,.08,0h0l.05,0,.09,0,.08,0h0l.08,0h0l.08,0,.05,0h0l.08,0,.09,0h0l.09,0h0l.09,0h0l.08,0h0l.09,0h.17l.09,0H34.1l.09,0h.18l.08,0h0l.09,0h0l.09,0h0l.09,0h0L35,51l.08,0h0l0,0,.09,0h0l.08,0,0,0,.08,0a.2.2,0,0,0,.08,0l0,0h0l.08,0,0,0,.08,0,.08,0,0,0,0,0,.08,0,0,0,.08,0,0,0,.07,0h0l.08-.06,0,0,.07-.06,0,0,.08,0,0,0,.08-.06.06-.05,0,0s0,0,0,0l.07-.06,0,0,.07-.06,0,0,.07-.07,0,0L58.32,28.46a5.42,5.42,0,0,0,0-7.64,5.42,5.42,0,0,0-7.65,0Z" transform="translate(-6.66 0)"/>
  </g>
</svg>
