<svg id="fd12a303-b3b9-4e6f-9397-327bd4f38231" data-name="Слой 1" xmlns="http://www.w3.org/2000/svg" xmlns:xlink="http://www.w3.org/1999/xlink" width="79.86" height="79.86" viewBox="0 0 79.86 79.86">
  <defs>
    <style>
      .dcbba1c9-9d8b-43d9-82c1-c42867633487 {
        fill: url(#f6b5472d-687b-45c4-8452-b201ae923711);
      }

      .c7ac0404-4d3f-4a66-8b8a-519762ac3006 {
        fill: url(#da1cfcba-0e15-4f0f-853d-9fdc8f65d550);
      }

      .\36 3025219-db96-4df1-a8f4-de558f5d4d57 {
        fill: url(#1ba678c1-80d5-4925-bc86-f19a94c38f88);
      }

      .\39 28612b5-fe21-456b-a21e-ad00bc5e83d5 {
        fill: url(#7ec55c8a-b89d-4053-9eb4-92b46fe539f9);
      }

      .\34 6ddab08-daea-4036-9909-c6676229c621 {
        fill: url(#32e15c79-a398-47e4-a89c-a2af48a7965a);
      }

      .\36 1169d9f-94bf-4d23-bbad-933a96194295 {
        fill: url(#4a8c2f56-9d4c-4e75-b362-b71973dc6d25);
      }

      .d8705bd0-65f0-4987-b820-6418373068e8 {
        fill: url(#02ef060f-e447-48f0-b2e3-d69d0e2a46d2);
      }
    </style>
    <linearGradient id="f6b5472d-687b-45c4-8452-b201ae923711" data-name="Новый образец градиентной залив" x1="26.51" y1="79.86" x2="26.51" y2="43.61" gradientUnits="userSpaceOnUse">
      <stop offset="0" stop-color="#ab47bc"/>
      <stop offset="1" stop-color="#2196f3"/>
    </linearGradient>
    <linearGradient id="da1cfcba-0e15-4f0f-853d-9fdc8f65d550" x1="58.68" y1="42.02" x2="58.68" y2="42.02" xlink:href="#f6b5472d-687b-45c4-8452-b201ae923711"/>
    <linearGradient id="1ba678c1-80d5-4925-bc86-f19a94c38f88" x1="47.43" y1="79.84" x2="47.43" y2="24.58" xlink:href="#f6b5472d-687b-45c4-8452-b201ae923711"/>
    <linearGradient id="7ec55c8a-b89d-4053-9eb4-92b46fe539f9" x1="68.34" y1="22.17" x2="68.34" y2="0" xlink:href="#f6b5472d-687b-45c4-8452-b201ae923711"/>
    <linearGradient id="32e15c79-a398-47e4-a89c-a2af48a7965a" x1="39.93" y1="22.17" x2="39.93" y2="0" xlink:href="#f6b5472d-687b-45c4-8452-b201ae923711"/>
    <linearGradient id="4a8c2f56-9d4c-4e75-b362-b71973dc6d25" x1="11.52" y1="22.17" x2="11.52" y2="0" xlink:href="#f6b5472d-687b-45c4-8452-b201ae923711"/>
    <linearGradient id="02ef060f-e447-48f0-b2e3-d69d0e2a46d2" x1="32.43" y1="40.59" x2="32.43" y2="37.46" xlink:href="#f6b5472d-687b-45c4-8452-b201ae923711"/>
  </defs>
  <title>how-it-work-icon-2-gradient</title>
  <g>
    <path class="dcbba1c9-9d8b-43d9-82c1-c42867633487" d="M32.43,43.61a1.56,1.56,0,0,0-1.56,1.56v5.74L29.4,48.18A5.52,5.52,0,0,0,19.18,52.1L22,63.93a21.13,21.13,0,0,0,3.54,7.63l5.59,7.66a1.55,1.55,0,0,0,2.18.34h0a1.56,1.56,0,0,0,.34-2.18h0L28.1,69.72a18.34,18.34,0,0,1-3-6.52L22.22,51.36a2.38,2.38,0,0,1,1.25-2.7h0a2.38,2.38,0,0,1,3.18,1l4.41,8.16A1.56,1.56,0,0,0,34,57.08V45.17A1.56,1.56,0,0,0,32.43,43.61Z" transform="translate(0 0)"/>
    <polygon class="c7ac0404-4d3f-4a66-8b8a-519762ac3006" points="58.68 42.02 58.68 42.02 58.68 42.02 58.68 42.02"/>
    <path class="63025219-db96-4df1-a8f4-de558f5d4d57" d="M58.68,42a5.21,5.21,0,0,0-2.54.65,5.33,5.33,0,0,0-5-3.42,5.26,5.26,0,0,0-2.67.73,5.32,5.32,0,0,0-7-2.63V29.9a5.31,5.31,0,1,0-10.62,0v2.7a1.56,1.56,0,0,0,3.12,0V29.9a2.19,2.19,0,0,1,4.38,0v22a1.56,1.56,0,0,0,3.12,0V42.19a2.19,2.19,0,0,1,4.38,0V51.9a1.56,1.56,0,0,0,3.12,0V44.56a2.19,2.19,0,1,1,4.38,0V51.9a1.56,1.56,0,0,0,3.12,0V47.33a2.19,2.19,0,0,1,4.38,0V60.49a34.52,34.52,0,0,1-1.58,10.33l-2.2,7a1.56,1.56,0,0,0,3,.94l2.2-7A37.74,37.74,0,0,0,64,60.49V47.33A5.31,5.31,0,0,0,58.68,42Z" transform="translate(0 0)"/>
    <path class="928612b5-fe21-456b-a21e-ad00bc5e83d5" d="M79.73,8.27h0a2.62,2.62,0,0,0-2.12-1.79l-4.78-.69L70.69,1.46a2.63,2.63,0,0,0-4.71,0L63.85,5.79l-4.78.7A2.62,2.62,0,0,0,57.62,11l3.46,3.37-.82,4.76a2.63,2.63,0,0,0,3.81,2.76l4.27-2.25,4.28,2.25a2.63,2.63,0,0,0,3.81-2.77l-.82-4.76L79.07,11A2.63,2.63,0,0,0,79.73,8.27Zm-6.48,4a2.65,2.65,0,0,0-.76,2.33l.69,4-3.61-1.9a2.65,2.65,0,0,0-2.45,0L63.5,18.64l.69-4a2.63,2.63,0,0,0-.75-2.33L60.51,9.43l4.05-.59a2.61,2.61,0,0,0,2-1.43l1.81-3.67L70.15,7.4a2.6,2.6,0,0,0,2,1.44l4,.59Z" transform="translate(0 0)"/>
    <path class="46ddab08-daea-4036-9909-c6676229c621" d="M32.66,14.34l-.81,4.76a2.63,2.63,0,0,0,3.81,2.76l4.27-2.25,4.28,2.25A2.63,2.63,0,0,0,48,19.09l-.82-4.76L50.65,11a2.61,2.61,0,0,0,.67-2.69h0A2.62,2.62,0,0,0,49.2,6.48l-4.78-.69L42.28,1.46a2.63,2.63,0,0,0-4.71,0L35.44,5.79l-4.78.7A2.62,2.62,0,0,0,29.21,11Zm3.48-5.5a2.61,2.61,0,0,0,2-1.43l1.81-3.67L41.74,7.4a2.6,2.6,0,0,0,2,1.44l4,.59-2.92,2.85a2.62,2.62,0,0,0-.76,2.33l.69,4-3.62-1.9a2.63,2.63,0,0,0-2.44,0l-3.62,1.91.69-4A2.63,2.63,0,0,0,35,12.28L32.1,9.43Z" transform="translate(0 0)"/>
    <path class="61169d9f-94bf-4d23-bbad-933a96194295" d="M19.61,19.09l-.82-4.76L22.24,11a2.61,2.61,0,0,0,.67-2.69h0a2.62,2.62,0,0,0-2.12-1.79L16,5.79,13.87,1.46a2.63,2.63,0,0,0-4.71,0L7,5.79l-4.78.7A2.62,2.62,0,0,0,.8,11l3.45,3.37L3.44,19.1a2.62,2.62,0,0,0,3.81,2.76l4.27-2.25,4.28,2.25a2.63,2.63,0,0,0,3.81-2.77Zm-3.19-6.81a2.65,2.65,0,0,0-.75,2.33l.69,4-3.62-1.9a2.63,2.63,0,0,0-2.44,0L6.68,18.64l.69-4a2.63,2.63,0,0,0-.75-2.33L3.69,9.43l4-.59a2.61,2.61,0,0,0,2-1.43l1.81-3.67L13.33,7.4a2.6,2.6,0,0,0,2,1.44l4,.59Z" transform="translate(0 0)"/>
    <path class="d8705bd0-65f0-4987-b820-6418373068e8" d="M32.43,40.59a1.56,1.56,0,0,0,1.1-2.67,1.61,1.61,0,0,0-1.1-.46,1.57,1.57,0,0,0,0,3.13Z" transform="translate(0 0)"/>
  </g>
</svg>
