<svg id="06a23562-55e0-4b78-8af4-5b902e81a65b" data-name="Слой 1" xmlns="http://www.w3.org/2000/svg" width="63.01" height="79.86" viewBox="0 0 63.01 79.86">
  <defs>
    <style>
      .\34 2dc3674-3f25-4418-a8d7-5dc4e4029055 {
        fill: #202427;
      }

      .\32 74494bd-5e76-4cd2-88bb-ae037a4bfa3c {
        fill: #ab47bc;
      }
    </style>
  </defs>
  <title>how-it-work-icon-1</title>
  <g>
    <path id="fc69c547-a296-4670-bca5-0a1392630ae1" data-name="wwupm" class="42dc3674-3f25-4418-a8d7-5dc4e4029055" d="M62.08,15.6V70.5H17.78V15.6ZM29,8.85a1.14,1.14,0,0,1,1.13-1.13h3.63a1.56,1.56,0,0,0,1.51-1.15,4.69,4.69,0,0,1,4.51-3.45h.28a4.68,4.68,0,0,1,4.51,3.45,1.56,1.56,0,0,0,1.51,1.15h3.63a1.14,1.14,0,0,1,1.13,1.13v3.63H29ZM69.88,40.26a1.56,1.56,0,0,0,1.56-1.56h0V14a7.81,7.81,0,0,0-7.8-7.8H53.07A4.26,4.26,0,0,0,49.72,4.6H47.18A7.81,7.81,0,0,0,40.07,0h-.28a7.82,7.82,0,0,0-7.11,4.6H30.14a4.24,4.24,0,0,0-3.35,1.64H16.22A7.81,7.81,0,0,0,8.42,14v58a7.81,7.81,0,0,0,7.8,7.8H63.64a7.81,7.81,0,0,0,7.8-7.8V51.77a1.56,1.56,0,0,0-3.12,0h0V72.06a4.69,4.69,0,0,1-4.68,4.68H16.22a4.69,4.69,0,0,1-4.68-4.68V14a4.69,4.69,0,0,1,4.68-4.68h9.67v3.12H17.78a3.12,3.12,0,0,0-3.12,3.12V70.5a3.12,3.12,0,0,0,3.12,3.12h44.3A3.12,3.12,0,0,0,65.2,70.5V15.6a3.12,3.12,0,0,0-3.12-3.12H54V9.36h9.67A4.69,4.69,0,0,1,68.32,14V38.7a1.56,1.56,0,0,0,1.56,1.56Z" transform="translate(-8.42 0)"/>
    <path id="3f7ce7c9-e26c-4e4f-bbd2-e07fe8c11b0a" data-name="wwupn" class="42dc3674-3f25-4418-a8d7-5dc4e4029055" d="M71,44.27a1.61,1.61,0,0,0-1.1-.46,1.57,1.57,0,0,0-1.56,1.56,1.53,1.53,0,0,0,.46,1.11A1.56,1.56,0,1,0,71,44.27Z" transform="translate(-8.42 0)"/>
    <path id="dd81a634-568e-49fd-9cf5-7b8e3f4644d9" data-name="wwupo" class="42dc3674-3f25-4418-a8d7-5dc4e4029055" d="M42.13,27.91A1.59,1.59,0,0,0,41,27.45a1.56,1.56,0,0,0,0,3.12,1.61,1.61,0,0,0,1.11-.46,1.57,1.57,0,0,0,0-2.2Z" transform="translate(-8.42 0)"/>
    <path id="438c579f-d314-418f-b198-974570d956a1" data-name="wwupp" class="42dc3674-3f25-4418-a8d7-5dc4e4029055" d="M57.16,27.45H47.89a1.56,1.56,0,1,0,0,3.12h9.28a1.56,1.56,0,1,0,0-3.12Z" transform="translate(-8.42 0)"/>
    <path id="f0ae62bc-17d4-41a4-abce-6ba8bbdd4b47" data-name="wwupq" class="42dc3674-3f25-4418-a8d7-5dc4e4029055" d="M57.16,44.3H41a1.56,1.56,0,1,0,0,3.12H57.16a1.56,1.56,0,1,0,0-3.12Z" transform="translate(-8.42 0)"/>
    <path id="f4cdc858-7a32-43fe-8759-696072386340" data-name="wwupr" class="42dc3674-3f25-4418-a8d7-5dc4e4029055" d="M57.16,61.14H41a1.56,1.56,0,1,0,0,3.12H57.16a1.56,1.56,0,1,0,0-3.12Z" transform="translate(-8.42 0)"/>
    <path id="c5db38f2-6a6a-46bb-ba95-3511d47ea946" data-name="wwups" class="42dc3674-3f25-4418-a8d7-5dc4e4029055" d="M31.2,27.45H25.27V21.53a1.56,1.56,0,1,0-3.12,0h0V29a1.56,1.56,0,0,0,1.56,1.56H31.2a1.56,1.56,0,0,0,0-3.12Z" transform="translate(-8.42 0)"/>
    <path id="037d2541-7206-4460-a54e-267dcf8389d2" data-name="wwupt" class="274494bd-5e76-4cd2-88bb-ae037a4bfa3c" d="M34.48,19.92a1.56,1.56,0,0,0-2.21,0l-2.15,2.15-.18-.18a1.56,1.56,0,0,0-2.21,2.2L29,25.38a1.55,1.55,0,0,0,2.2,0l3.26-3.25a1.56,1.56,0,0,0,0-2.21Z" transform="translate(-8.42 0)"/>
    <path id="d76a73e3-3424-4631-8705-1761568153a9" data-name="wwupu" class="42dc3674-3f25-4418-a8d7-5dc4e4029055" d="M31.2,44.25H25.27V38.33a1.56,1.56,0,0,0-3.12,0v7.48a1.56,1.56,0,0,0,1.56,1.56H31.2a1.56,1.56,0,0,0,0-3.12Z" transform="translate(-8.42 0)"/>
    <path id="0e3d2032-d63b-4a82-957c-55638dadc65b" data-name="wwupv" class="274494bd-5e76-4cd2-88bb-ae037a4bfa3c" d="M34.48,36.72a1.56,1.56,0,0,0-2.21,0l-2.15,2.15-.18-.18a1.56,1.56,0,0,0-2.21,2.2L29,42.18a1.55,1.55,0,0,0,2.2,0l3.26-3.25a1.56,1.56,0,0,0,0-2.21Z" transform="translate(-8.42 0)"/>
    <path id="7ec23ade-b139-42be-8286-739804e637e7" data-name="wwupw" class="42dc3674-3f25-4418-a8d7-5dc4e4029055" d="M31.2,61.14H25.27V55.22a1.56,1.56,0,1,0-3.12,0h0V62.7a1.56,1.56,0,0,0,1.56,1.56H31.2a1.56,1.56,0,1,0,0-3.12Z" transform="translate(-8.42 0)"/>
    <path id="4c7fef8e-6302-4949-a84c-e668f40f359c" data-name="wwupx" class="274494bd-5e76-4cd2-88bb-ae037a4bfa3c" d="M34.48,53.61a1.56,1.56,0,0,0-2.21,0l-2.15,2.15-.18-.18a1.56,1.56,0,0,0-2.21,2.21L29,59.07a1.55,1.55,0,0,0,2.2,0l3.26-3.25a1.56,1.56,0,0,0,0-2.21Z" transform="translate(-8.42 0)"/>
  </g>
</svg>
