<svg id="b2a2b5d0-476f-4d10-97d8-508a2b74f220" data-name="Слой 1" xmlns="http://www.w3.org/2000/svg" width="79.86" height="79.86" viewBox="0 0 79.86 79.86">
  <defs>
    <style>
      .\31 e5fe3b9-fb91-49cd-b760-ce17d5bee0aa {
        fill: #333;
      }

      .\36 8402916-d2cd-4af0-8c43-76c105a953ef {
        fill: #ab47bc;
      }
    </style>
  </defs>
  <title>how-it-work-icon-2</title>
  <g>
    <path id="7efd0c7d-26b3-4bea-9c00-6882f9df2d74" data-name="wwupB" class="1e5fe3b9-fb91-49cd-b760-ce17d5bee0aa" d="M23.47,48.66a2.38,2.38,0,0,1,3.18,1l4.41,8.16A1.56,1.56,0,0,0,34,57.08V45.17a1.56,1.56,0,0,0-3.12,0v5.74L29.4,48.18A5.52,5.52,0,0,0,19.18,52.1L22,63.93a21.13,21.13,0,0,0,3.54,7.63l5.59,7.66a1.55,1.55,0,0,0,2.18.34h0a1.56,1.56,0,0,0,.34-2.18h0L28.1,69.72a18.34,18.34,0,0,1-3-6.52L22.22,51.36a2.38,2.38,0,0,1,1.25-2.7Z"/>
    <path id="869a03fb-0ccb-465f-8c20-ec7ffecdfb50" data-name="wwupC" class="1e5fe3b9-fb91-49cd-b760-ce17d5bee0aa" d="M58.68,42a5.21,5.21,0,0,0-2.54.65,5.33,5.33,0,0,0-5-3.42,5.26,5.26,0,0,0-2.67.73,5.32,5.32,0,0,0-7-2.63V29.9a5.31,5.31,0,1,0-10.62,0v2.7a1.56,1.56,0,0,0,3.12,0V29.9a2.19,2.19,0,0,1,4.38,0v22a1.56,1.56,0,0,0,3.12,0V42.19a2.19,2.19,0,0,1,4.38,0V51.9a1.56,1.56,0,0,0,3.12,0V44.56a2.19,2.19,0,1,1,4.38,0V51.9a1.56,1.56,0,0,0,3.12,0V47.33a2.19,2.19,0,0,1,4.38,0V60.49a34.52,34.52,0,0,1-1.58,10.33l-2.2,7a1.56,1.56,0,0,0,3,.94l2.2-7A37.74,37.74,0,0,0,64,60.49V47.33A5.31,5.31,0,0,0,58.68,42Z"/>
    <path id="400c4362-8436-4147-8b98-c7f1b035b9c4" data-name="wwupD" class="1e5fe3b9-fb91-49cd-b760-ce17d5bee0aa" d="M73.25,12.28a2.65,2.65,0,0,0-.76,2.33l.69,4-3.61-1.9a2.65,2.65,0,0,0-2.45,0L63.5,18.64l.69-4a2.63,2.63,0,0,0-.75-2.33L60.51,9.43l4.05-.59a2.61,2.61,0,0,0,2-1.43l1.81-3.67L70.15,7.4a2.6,2.6,0,0,0,2,1.44l4,.59Zm6.48-4a2.62,2.62,0,0,0-2.12-1.79l-4.78-.69L70.69,1.46a2.63,2.63,0,0,0-4.71,0L63.85,5.79l-4.78.7A2.62,2.62,0,0,0,57.62,11l3.46,3.37-.82,4.76a2.63,2.63,0,0,0,3.81,2.76l4.27-2.25,4.28,2.25a2.63,2.63,0,0,0,3.81-2.77l-.82-4.76L79.07,11a2.63,2.63,0,0,0,.66-2.69Z"/>
    <path id="2c4e3b1d-ea20-4033-ab0a-bff596c02ef3" data-name="wwupE" class="68402916-d2cd-4af0-8c43-76c105a953ef" d="M44.84,12.28a2.62,2.62,0,0,0-.76,2.33l.69,4-3.62-1.9a2.63,2.63,0,0,0-2.44,0l-3.62,1.91.69-4A2.63,2.63,0,0,0,35,12.28L32.1,9.43l4-.59a2.61,2.61,0,0,0,2-1.43l1.81-3.67L41.74,7.4a2.6,2.6,0,0,0,2,1.44l4,.59Zm6.48-4A2.62,2.62,0,0,0,49.2,6.48l-4.78-.69L42.28,1.46a2.63,2.63,0,0,0-4.71,0L35.44,5.79l-4.78.7A2.62,2.62,0,0,0,29.21,11l3.45,3.37-.81,4.76a2.63,2.63,0,0,0,3.81,2.76l4.27-2.25,4.28,2.25A2.63,2.63,0,0,0,48,19.09l-.82-4.76L50.65,11a2.61,2.61,0,0,0,.67-2.69Z"/>
    <path id="8c7b85fc-5c98-426c-860c-9f213b3416aa" data-name="wwupF" class="1e5fe3b9-fb91-49cd-b760-ce17d5bee0aa" d="M16.42,12.28a2.65,2.65,0,0,0-.75,2.33l.69,4-3.62-1.9a2.63,2.63,0,0,0-2.44,0L6.68,18.64l.69-4a2.63,2.63,0,0,0-.75-2.33L3.69,9.43l4-.59a2.61,2.61,0,0,0,2-1.43l1.81-3.67L13.33,7.4a2.6,2.6,0,0,0,2,1.44l4,.59Zm6.49-4a2.62,2.62,0,0,0-2.12-1.79L16,5.79,13.87,1.46a2.63,2.63,0,0,0-4.71,0L7,5.79l-4.78.7A2.62,2.62,0,0,0,.8,11l3.45,3.37L3.44,19.1a2.62,2.62,0,0,0,3.81,2.76l4.27-2.25,4.28,2.25a2.63,2.63,0,0,0,3.81-2.77l-.82-4.76L22.24,11a2.61,2.61,0,0,0,.67-2.69Z"/>
    <path id="ff1564cd-b091-4aa2-b821-2478a63cf4c4" data-name="wwupG" class="1e5fe3b9-fb91-49cd-b760-ce17d5bee0aa" d="M33.53,37.92a1.61,1.61,0,0,0-1.1-.46,1.57,1.57,0,0,0-1.1.46A1.59,1.59,0,0,0,30.87,39,1.56,1.56,0,0,0,34,39,1.59,1.59,0,0,0,33.53,37.92Z"/>
  </g>
</svg>
