<svg xmlns="http://www.w3.org/2000/svg" xmlns:xlink="http://www.w3.org/1999/xlink" width="17" height="20" viewBox="0 0 17 20"><defs><path id="4m6ea" d="M876.434 319.15a4.592 4.592 0 0 1-4.377-3.22l-.02-.068a4.762 4.762 0 0 1-.052-.193l-.016-.064a4.82 4.82 0 0 1-.029-.132l-.01-.054a4.42 4.42 0 0 1-.02-.116l-.006-.036a4.445 4.445 0 0 1-.02-.147l-.005-.043a4.632 4.632 0 0 1-.014-.144l-.001-.012a4.575 4.575 0 0 1-.01-.544l.002-.031a4.662 4.662 0 0 1 .044-.452l.011-.073c.01-.059.02-.118.032-.176v-.002a4.6 4.6 0 0 1 3.227-3.483l.02-.005a4.935 4.935 0 0 1 .468-.106 4.589 4.589 0 0 1 5.359 4.517 4.589 4.589 0 0 1-4.583 4.584zm-4.937-6.812l-.001.002a5.826 5.826 0 0 0-.043.098l-.012.028-.019.046a5.37 5.37 0 0 0-.32 1.091 15.59 15.59 0 0 1-.502.009c-1.294 0-2.506-.156-3.411-.44-.957-.298-1.172-.618-1.172-.706v-3.085c.239.136.54.266.923.386.984.307 2.284.476 3.66.476 1.097 0 2.145-.107 3.023-.307a5.437 5.437 0 0 0-1.617 1.51c-.453.043-.926.065-1.406.065-.6 0-1.187-.034-1.743-.1a.417.417 0 1 0-.1.827 15.55 15.55 0 0 0 2.749.08l-.01.02zm-.897 3.374c-1.294 0-2.506-.156-3.411-.438-.957-.3-1.172-.62-1.172-.708v-.984c.239.136.54.267.923.386.984.308 2.284.477 3.66.477.14 0 .28-.002.418-.006a5.485 5.485 0 0 0 0 .27l.002.043.004.097.004.054.005.087.006.058.007.081.007.064.01.074.009.07.01.067.012.075.01.06.016.082.01.051.007.03c-.178.007-.357.01-.537.01zm-4.583-12.633c.239.136.54.266.923.386.984.307 2.284.476 3.66.476 1.377 0 2.677-.169 3.66-.476.383-.12.685-.25.924-.386v.984c0 .088-.216.408-1.172.707-.906.283-2.117.439-3.412.439-.6 0-1.187-.034-1.743-.1a.417.417 0 1 0-.1.827c.59.07 1.21.106 1.843.106 1.377 0 2.677-.17 3.66-.476.383-.12.685-.25.924-.386v3.084c0 .089-.216.409-1.172.708-.906.282-2.117.438-3.412.438-1.294 0-2.506-.156-3.411-.438-.957-.3-1.172-.62-1.172-.708v-.984c.239.136.54.267.923.386.984.308 2.284.477 3.66.477.82 0 1.606-.059 2.335-.175a.417.417 0 1 0-.132-.823 14.28 14.28 0 0 1-2.203.165c-1.294 0-2.506-.156-3.411-.44-.957-.298-1.172-.618-1.172-.706v-3.085zm1.172-1.824c.905-.283 2.117-.439 3.411-.439 1.295 0 2.506.156 3.412.439.956.299 1.172.619 1.172.707 0 .089-.216.408-1.172.707-.906.283-2.117.439-3.412.439-1.294 0-2.506-.156-3.411-.439-.957-.299-1.172-.618-1.172-.707 0-.088.215-.408 1.172-.707zm9.245 7.895c-.14 0-.28.005-.417.016v-7.204c0-.435-.305-1.049-1.757-1.502-.983-.308-2.283-.477-3.66-.477-1.376 0-2.676.17-3.66.477-1.452.453-1.756 1.067-1.756 1.502v12.604c0 .435.304 1.05 1.756 1.503.984.307 2.284.477 3.66.477.263 0 .525-.007.784-.02a5.426 5.426 0 0 0 5.05 3.457 5.423 5.423 0 0 0 5.416-5.417 5.423 5.423 0 0 0-5.416-5.416z"/></defs><g><g transform="translate(-865 -300)"><use fill="#2196f3" xlink:href="#4m6ea"/></g></g></svg>