<svg xmlns="http://www.w3.org/2000/svg" width="18" height="18" viewBox="0 0 18 18"><g><g><path fill="#0092e8" d="M17.307 4.992H.703V2.848c0-.582.474-1.055 1.055-1.055H3.31v.677a.352.352 0 0 0 .704 0v-.677h2.864v.668a.352.352 0 0 0 .703 0v-.668h2.85v.668a.352.352 0 0 0 .703 0v-.668H14v.677a.352.352 0 0 0 .704 0v-.677h1.548c.581 0 1.055.473 1.055 1.055zm0 1.406H.703v-.703h16.604zm0 9.844c0 .582-.474 1.055-1.055 1.055H1.758a1.056 1.056 0 0 1-1.055-1.055v-9.14h16.604zM16.242 1.09h-1.547V.36a.352.352 0 0 0-.703 0v.73h-2.865V.352a.352.352 0 0 0-.703 0v.738H7.576V.352a.352.352 0 0 0-.703 0v.738H4.011V.36a.352.352 0 0 0-.703 0v.73h-1.55A1.76 1.76 0 0 0 0 2.848v13.394C0 17.212.789 18 1.758 18h14.484A1.76 1.76 0 0 0 18 16.242V2.848a1.76 1.76 0 0 0-1.758-1.758z"/></g><g><path fill="#0092e8" d="M5.883 14.706c.315.302.777.453 1.387.453.576 0 1.044-.145 1.403-.436.455-.37.537-.961.537-1.512 0-.599-.274-1.006-.822-1.221.201-.092.357-.257.469-.496.111-.239.167-.52.167-.841 0-.969-.571-1.453-1.714-1.453a2.39 2.39 0 0 0-.849.138 1.35 1.35 0 0 0-.554.357c-.126.146-.22.297-.279.45a1.29 1.29 0 0 0-.089.467c0 .177.034.297.101.358.068.062.215.093.441.093.334 0 .501-.134.501-.402 0-.36.24-.54.72-.54.474 0 .712.237.712.709 0 .316-.065.526-.193.63-.128.106-.31.158-.546.158-.208 0-.313.137-.313.412 0 .275.103.412.308.412.236 0 .5.038.681.205.312.29.3 1.086.002 1.384-.137.138-.357.206-.659.206-.259 0-.464-.052-.615-.157a.5.5 0 0 1-.226-.433c0-.134-.038-.23-.113-.287-.076-.056-.218-.085-.429-.085-.183 0-.312.03-.388.09-.075.059-.113.166-.113.323 0 .377.158.717.473 1.018z"/></g><g><path fill="#0092e8" d="M10.31 10.79a.28.28 0 0 0 .194-.074l.258-.258v4.317c0 .103.052.184.154.243a.73.73 0 0 0 .372.089c.14 0 .263-.03.368-.089.105-.06.158-.14.158-.243V9.52c0-.097-.049-.178-.146-.243a.57.57 0 0 0-.323-.097.333.333 0 0 0-.219.08l-.954.729a.423.423 0 0 0-.202.38c0 .108.032.205.097.29.065.087.146.13.243.13z"/></g></g></svg>