<svg xmlns="http://www.w3.org/2000/svg" width="18" height="24" viewBox="0 0 18 24"><g><g><path fill="#111" d="M9 24c-1.165 0-2.118-1.08-2.118-2.4h4.236c0 1.32-.953 2.4-2.118 2.4zm1.588-22.2v.84c3.018.78 5.294 3.9 5.294 7.56v6.6L18 19.2v1.2H0v-1.2l2.118-2.4v-6.6c0-3.66 2.276-6.78 5.294-7.56V1.8C7.412.78 8.1 0 9 0c.9 0 1.588.78 1.588 1.8zm-1.64 2.381c-.3 0-1.222.258-1.222.258-2.331.603-3.972 3.026-3.972 5.761v7.362l-.477.54-.398.452h12.242l-.398-.452-.477-.54V10.2c0-2.735-1.64-5.158-3.972-5.76 0 0-.86-.259-1.223-.259z"/></g></g></svg>