<?xml version="1.0"?>
<svg xmlns="http://www.w3.org/2000/svg" id="Layer_1" data-name="Layer 1" viewBox="0 0 512 512" width="512" height="512"><title>Repair Service</title><path d="M229.014,370.964A95.181,95.181,0,1,0,198,188.621V359.939a77.342,77.342,0,0,1,14.084,8.278A95.659,95.659,0,0,0,229.014,370.964Z"/><path d="M325.7,167.466a7,7,0,0,1-8.274-.086,137.534,137.534,0,0,0-44.031-22.317,7,7,0,0,1-5.044-6.538l-.86-32.7-27.309-1.912A78.969,78.969,0,0,1,198,152.061v21.484A109.178,109.178,0,1,1,235.822,385.2c-2.391,0-4.792-.086-7.2-.241a77.029,77.029,0,0,1,14.8,45.258,77.85,77.85,0,0,1-2.246,18.6l2.315.162,5.4-32.266a7,7,0,0,1,5.905-5.773,133.413,133.413,0,0,0,46.616-15.918,7,7,0,0,1,8.3,1.015l23.572,22.469,29.891-25.985L344.2,366.058a7,7,0,0,1,.087-8.275,137.479,137.479,0,0,0,22.314-44.03,7,7,0,0,1,6.531-5.044l32.243-.886,2.775-39.676-32.266-5.4a7,7,0,0,1-5.772-5.906A133.449,133.449,0,0,0,354.2,210.223a7,7,0,0,1,1.014-8.3l22.5-23.6-25.577-29.8Z"/><path d="M128,480.335V452.744a7.1,7.1,0,0,1,3.22-5.826L162.3,426.254a7.058,7.058,0,0,1,7.93.091l31.443,21.994a7,7,0,0,1,2.99,5.759l-.088,26.287a62.47,62.47,0,0,0,20.612-27.395,6.869,6.869,0,0,1,.288-.727,63.159,63.159,0,0,0-36.966-81.077,6.964,6.964,0,0,1-4.51-6.558V147.372a6.966,6.966,0,0,1,4.51-6.558A63.1,63.1,0,0,0,205,31.665V59.256a7.175,7.175,0,0,1-3.3,5.826L170.578,85.746a7.069,7.069,0,0,1-7.937-.091l-31.46-21.994a7.009,7.009,0,0,1-3-5.76l.084-26.287a62.632,62.632,0,0,0-24.845,50.167,63.32,63.32,0,0,0,40.988,59.033,7.037,7.037,0,0,1,4.59,6.558V364.628a7.038,7.038,0,0,1-4.591,6.558,63.394,63.394,0,0,0-41.069,59.033A64.051,64.051,0,0,0,128,480.335Z"/></svg>
