<svg xmlns="http://www.w3.org/2000/svg" width="60" height="60" viewBox="0 0 60 60"><g><g><path fill="#0092e8" d="M30 57.116L27.232 60l-2.193-3.346-3.249 2.324-1.544-3.693-3.618 1.685-.842-3.916-3.865.99-.11-4.005-3.981.258.624-3.956-3.96-.48 1.337-3.775-3.805-1.202L4.03 37.42.51 35.536l2.604-3.034L0 30l3.115-2.502-2.604-3.034 3.52-1.885-2.005-3.463 3.805-1.202-1.338-3.775 3.96-.48-.623-3.956 3.98.258.111-4.004 3.865.989.842-3.916 3.618 1.685 1.544-3.693 3.249 2.324L27.232 0 30 2.884 32.768 0l2.193 3.346 3.249-2.324 1.544 3.693 3.618-1.685.842 3.916 3.865-.99.11 4.005 3.981-.258-.624 3.956 3.96.48-1.337 3.775 3.805 1.202-2.005 3.463 3.52 1.885-2.604 3.034L60 30l-3.115 2.502 2.604 3.034-3.52 1.885 2.005 3.463-3.805 1.202 1.338 3.775-3.96.48.623 3.956-3.98-.258-.111 4.004-3.865-.989-.842 3.916-3.618-1.685-1.544 3.693-3.249-2.324L32.768 60zm7.941-36.155L27.584 31.79l-4.924-5.205-3.46 3.615 4.925 5.204-.019.02 3.459 3.616 3.459-3.616L41.4 24.578z"/></g></g></svg>