<svg xmlns="http://www.w3.org/2000/svg" width="80" height="80" viewBox="0 0 80 80"><g><g clip-path="url(#clip-B42B586F-A4A0-497B-A784-201D4E78DF44)"><g><path fill="#0092e8" d="M21.997 25.337a1.999 1.999 0 0 1-1.997-2c0-1.105.894-2 1.997-2 1.103 0 1.997.895 1.997 2 0 1.104-.894 2-1.997 2zm0-6.667a4.667 4.667 0 1 0 0 9.333 4.667 4.667 0 0 0 0-9.333z"/></g><g><path fill="#0092e8" d="M57.997 25.337a1.999 1.999 0 0 1-1.997-2c0-1.105.894-2 1.997-2 1.103 0 1.997.895 1.997 2 0 1.104-.894 2-1.997 2zm0-6.667a4.667 4.667 0 1 0 0 9.333 4.667 4.667 0 0 0 0-9.333z"/></g><g><path fill="#0092e8" d="M47.995 25.337H31.998v-4h15.997zm.002-6.667h-16a2.667 2.667 0 0 0-2.667 2.667v4a2.667 2.667 0 0 0 2.667 2.666h16a2.667 2.667 0 0 0 2.666-2.666v-4a2.667 2.667 0 0 0-2.666-2.667z"/></g><g><path fill="#0092e8" d="M77.333 77.323h-4V2.667h4zm-6.656-23.04l-13.344-3.33V49.33h9.34c.738 0 1.335-.596 1.335-1.332v-1.331h2.669zm-16.01-7.616V44h10.656v2.667zm8.01-9.334v4h-5.344v-4zm-45.344-2.666A1.333 1.333 0 0 1 16 33.333V32h48v1.333c0 .737-.597 1.334-1.333 1.334zm0 6.666v-4h5.344v4zm7.99 5.334H14.667V44h10.656zm-2.646 4.286L9.333 54.282v-7.615h2.669v1.331c0 .736.597 1.332 1.334 1.332h9.34zM16 19.944a1.322 1.322 0 0 1 .501-1.039l4.934-3.944c.108-.092.211-.19.309-.294h36.488c.072.066.133.133.216.2l5.05 4.037c.317.252.502.635.502 1.04v9.38H16zm8.839-16.233a1.323 1.323 0 0 1 1.294-1.044h2.094a4.785 4.785 0 0 0 .83 5.609c.71.713.821 1.827.267 2.667l-.701 1.053h-5.627zm5.839.009l.7-1.053h2.519a4.793 4.793 0 0 0 .829 5.609c.708.713.82 1.827.266 2.667l-.7 1.053H31.77a4.793 4.793 0 0 0-.829-5.61 2.126 2.126 0 0 1-.263-2.666zm5.678 0l.701-1.053h16.788c.629 0 1.172.438 1.304 1.053L56.933 12H37.45a4.783 4.783 0 0 0-.829-5.61 2.123 2.123 0 0 1-.264-2.67zM6.666 77.323h-4V2.667h4zM78.667 0H72c-.736 0-1.333.597-1.333 1.333V44H68v-1.333c0-.737-.597-1.334-1.333-1.334h-1.334v-5.04a3.98 3.98 0 0 0 1.334-2.96V19.948a3.981 3.981 0 0 0-1.502-3.124l-5.049-4.039a1.333 1.333 0 0 1-.413-.564l-1.947-9.066A4.021 4.021 0 0 0 53.846 0H26.132a3.976 3.976 0 0 0-3.904 3.133l-2 8.992a1.347 1.347 0 0 1-.47.754l-4.934 3.946a3.977 3.977 0 0 0-1.492 3.123v13.385a3.98 3.98 0 0 0 1.334 2.96v5.04h-1.334c-.736 0-1.333.597-1.333 1.334V44H9.333V1.333C9.333.597 8.736 0 8 0H1.333C.597 0 0 .597 0 1.333v77.334C0 79.403.597 80 1.333 80H8c.736 0 1.333-.597 1.333-1.333V57.04l14.99-3.747A1.333 1.333 0 0 0 25.333 52v-2.667h1.334c.736 0 1.333-.597 1.333-1.333v-5.333c0-.737-.597-1.334-1.333-1.334h-1.334v-4h29.334v4h-1.334c-.736 0-1.333.597-1.333 1.334V48c0 .736.597 1.333 1.333 1.333h1.334V52c0 .612.416 1.145 1.01 1.293l14.99 3.747v21.627c0 .736.597 1.333 1.333 1.333h6.667c.736 0 1.333-.597 1.333-1.333V1.333C80 .597 79.403 0 78.667 0z"/></g><g><path fill="#0092e8" d="M45.333 54.664c-.736 0-1.333.597-1.333 1.333v11.999h-8v-12c0-.735-.597-1.332-1.333-1.332H32.88L40 48.436l7.119 6.228zm6.211.329l-10.667-9.334a1.334 1.334 0 0 0-1.754 0l-10.667 9.334a1.333 1.333 0 0 0 .877 2.337h4v12c0 .736.597 1.333 1.334 1.333h10.666c.737 0 1.334-.597 1.334-1.333v-12h4a1.333 1.333 0 0 0 .877-2.337z"/></g></g></g></svg>