<svg xmlns="http://www.w3.org/2000/svg" width="210" height="80" viewBox="0 0 210 80"><g><g><g><g><path fill="#fff" d="M86.997 25.337a1.999 1.999 0 0 1-1.997-2c0-1.105.894-2 1.997-2 1.103 0 1.997.895 1.997 2 0 1.104-.894 2-1.997 2zm0-6.667a4.667 4.667 0 1 0 0 9.333 4.667 4.667 0 0 0 0-9.333z"/></g><g><path fill="#fff" d="M122.997 25.337a1.999 1.999 0 0 1-1.997-2c0-1.105.894-2 1.997-2 1.103 0 1.997.895 1.997 2 0 1.104-.894 2-1.997 2zm0-6.667a4.667 4.667 0 1 0 0 9.333 4.667 4.667 0 0 0 0-9.333z"/></g><g><path fill="#fff" d="M112.995 25.337H96.998v-4h15.997zm.002-6.667h-16a2.667 2.667 0 0 0-2.667 2.667v4a2.667 2.667 0 0 0 2.667 2.666h16a2.667 2.667 0 0 0 2.666-2.666v-4a2.667 2.667 0 0 0-2.666-2.667z"/></g><g><path fill="#fff" d="M142.333 77.323h-4V2.667h4zm-6.656-23.04l-13.344-3.33V49.33h9.34c.738 0 1.335-.596 1.335-1.332v-1.331h2.669zm-16.01-7.616V44h10.656v2.667zm8.01-9.334v4h-5.344v-4zm-45.344-2.666A1.333 1.333 0 0 1 81 33.333V32h48v1.333c0 .737-.597 1.334-1.333 1.334zm0 6.666v-4h5.344v4zm7.99 5.334H79.667V44h10.656zm-2.646 4.286l-13.344 3.329v-7.615h2.669v1.331c0 .736.597 1.332 1.334 1.332h9.34zM81 19.944a1.322 1.322 0 0 1 .501-1.039l4.934-3.944c.108-.092.211-.19.309-.294h36.488c.072.066.133.133.216.2l5.05 4.037c.317.252.502.635.502 1.04v9.38H81zm8.839-16.233a1.323 1.323 0 0 1 1.294-1.044h2.094a4.785 4.785 0 0 0 .83 5.609c.71.713.821 1.827.267 2.667l-.701 1.053h-5.627zm5.839.009l.7-1.053h2.519a4.793 4.793 0 0 0 .829 5.609c.708.713.82 1.827.266 2.667l-.7 1.053H96.77a4.793 4.793 0 0 0-.829-5.61 2.126 2.126 0 0 1-.263-2.666zm5.678 0l.701-1.053h16.788c.629 0 1.172.438 1.304 1.053l1.784 8.28H102.45a4.783 4.783 0 0 0-.829-5.61 2.123 2.123 0 0 1-.264-2.67zm-29.69 73.603h-4V2.667h4zm72-77.323H137c-.736 0-1.333.597-1.333 1.333V44H133v-1.333c0-.737-.597-1.334-1.333-1.334h-1.334v-5.04a3.98 3.98 0 0 0 1.334-2.96V19.948a3.981 3.981 0 0 0-1.502-3.124l-5.049-4.039a1.333 1.333 0 0 1-.413-.564l-1.947-9.066A4.021 4.021 0 0 0 118.846 0H91.132a3.976 3.976 0 0 0-3.904 3.133l-2 8.992a1.347 1.347 0 0 1-.47.754l-4.934 3.946a3.977 3.977 0 0 0-1.492 3.123v13.385a3.98 3.98 0 0 0 1.334 2.96v5.04h-1.334c-.736 0-1.333.597-1.333 1.334V44h-2.667V1.333C74.333.597 73.736 0 73 0h-6.667C65.597 0 65 .597 65 1.333v77.334c0 .736.597 1.333 1.333 1.333H73c.736 0 1.333-.597 1.333-1.333V57.04l14.99-3.747A1.333 1.333 0 0 0 90.333 52v-2.667h1.334c.736 0 1.333-.597 1.333-1.333v-5.333c0-.737-.597-1.334-1.333-1.334h-1.334v-4h29.334v4h-1.334c-.736 0-1.333.597-1.333 1.334V48c0 .736.597 1.333 1.333 1.333h1.334V52c0 .612.417 1.145 1.01 1.293l14.99 3.747v21.627c0 .736.597 1.333 1.333 1.333h6.667c.736 0 1.333-.597 1.333-1.333V1.333C145 .597 144.403 0 143.667 0z"/></g><g><path fill="#fff" d="M110.333 54.664c-.736 0-1.333.597-1.333 1.333v11.999h-8v-12c0-.735-.597-1.332-1.333-1.332H97.88L105 48.436l7.119 6.228zm6.211.329l-10.667-9.334a1.334 1.334 0 0 0-1.754 0l-10.667 9.334a1.333 1.333 0 0 0 .877 2.337h4v12c0 .736.597 1.333 1.334 1.333h10.666c.737 0 1.334-.597 1.334-1.333v-12h4a1.333 1.333 0 0 0 .877-2.337z"/></g></g><g><g><path fill="#fff" d="M169.165 31.03a1.817 1.817 0 0 1-1.815-1.818c0-1.004.812-1.818 1.815-1.818 1.002 0 1.814.814 1.814 1.818a1.816 1.816 0 0 1-1.814 1.819zm0-6.06a4.238 4.238 0 0 0-4.235 4.242 4.239 4.239 0 0 0 4.235 4.243c2.338 0 4.234-1.9 4.234-4.243a4.238 4.238 0 0 0-4.234-4.242z"/></g><g><path fill="#fff" d="M201.835 31.03a1.817 1.817 0 0 1-1.815-1.818c0-1.004.812-1.818 1.815-1.818 1.002 0 1.814.814 1.814 1.818a1.816 1.816 0 0 1-1.814 1.819zm0-6.06a4.238 4.238 0 0 0-4.235 4.242 4.239 4.239 0 0 0 4.235 4.243c2.338 0 4.234-1.9 4.234-4.243a4.238 4.238 0 0 0-4.234-4.242z"/></g><g><path fill="#fff" d="M192.758 31.03H178.24v-3.636h14.518zm0-6.06H178.24a2.422 2.422 0 0 0-2.42 2.424v3.637a2.422 2.422 0 0 0 2.42 2.424h14.518a2.422 2.422 0 0 0 2.42-2.424v-3.637a2.422 2.422 0 0 0-2.42-2.424z"/></g><g><path fill="#fff" d="M206.065 41.94v3.636h-4.839v-3.637zm-41.135-2.415c-.668 0-1.21-.545-1.21-1.217v-1.217h43.555v1.217c0 .672-.541 1.217-1.21 1.217zm0 6.05V41.94h4.84v3.637zm-1.21-19.437c-.001-.368.167-.717.455-.946l4.476-3.59c.098-.085.192-.174.28-.269h33.11c.066.061.121.122.196.182l4.583 3.676c.288.23.455.578.455.947v8.539H163.72zm8.02-14.764c.12-.554.609-.95 1.175-.95h1.9a4.365 4.365 0 0 0 .753 5.106c.644.649.745 1.663.242 2.427l-.636.958h-5.106zm5.3.009l.636-.959h2.29a4.365 4.365 0 0 0 .754 5.106c.644.649.745 1.663.242 2.427l-.637.958h-2.292a4.365 4.365 0 0 0-.754-5.105 1.937 1.937 0 0 1-.24-2.427zm5.151 0l.636-.959h15.234c.57 0 1.063.4 1.183.959l1.619 7.536h-17.68a4.363 4.363 0 0 0-.752-5.105 1.936 1.936 0 0 1-.24-2.431zm24.584 36.092c1.71 0 1.71-1.9 1.71-1.9v-4.581a3.62 3.62 0 0 0 1.21-2.69v-12.17a3.622 3.622 0 0 0-1.362-2.84l-4.582-3.67a1.211 1.211 0 0 1-.375-.514l-1.767-8.242A3.65 3.65 0 0 0 198.061 8h-25.146a3.61 3.61 0 0 0-3.543 2.849l-1.814 8.174c-.061.27-.212.512-.428.685l-4.476 3.588a3.618 3.618 0 0 0-1.354 2.839v12.168a3.62 3.62 0 0 0 1.21 2.691v4.582s0 1.899 1.89 1.899h5.998c1.79 0 1.79-1.9 1.79-1.9V41.94h26.618v3.637s0 1.899 1.583 1.899h6.386z"/></g></g><g><g><path fill="#fff" d="M8.165 31.03a1.817 1.817 0 0 1-1.815-1.818c0-1.004.812-1.818 1.815-1.818 1.002 0 1.814.814 1.814 1.818a1.816 1.816 0 0 1-1.814 1.819zm0-6.06a4.238 4.238 0 0 0-4.235 4.242 4.239 4.239 0 0 0 4.235 4.243c2.338 0 4.234-1.9 4.234-4.243a4.238 4.238 0 0 0-4.234-4.242z"/></g><g><path fill="#fff" d="M40.835 31.03a1.817 1.817 0 0 1-1.815-1.818c0-1.004.812-1.818 1.815-1.818 1.002 0 1.814.814 1.814 1.818a1.816 1.816 0 0 1-1.814 1.819zm0-6.06a4.238 4.238 0 0 0-4.235 4.242 4.239 4.239 0 0 0 4.235 4.243c2.338 0 4.234-1.9 4.234-4.243a4.238 4.238 0 0 0-4.234-4.242z"/></g><g><path fill="#fff" d="M31.758 31.03H17.24v-3.636h14.518zm0-6.06H17.24a2.422 2.422 0 0 0-2.42 2.424v3.637a2.422 2.422 0 0 0 2.42 2.424h14.518a2.422 2.422 0 0 0 2.42-2.424v-3.637a2.422 2.422 0 0 0-2.42-2.424z"/></g><g><path fill="#fff" d="M45.065 41.94v3.636h-4.839v-3.637zM3.93 39.524c-.668 0-1.21-.545-1.21-1.217v-1.217h43.555v1.217c0 .672-.541 1.217-1.21 1.217zm0 6.05V41.94h4.84v3.637zM2.72 26.139c-.001-.368.167-.717.455-.946l4.476-3.59c.098-.085.192-.174.28-.269h33.11c.066.061.121.122.196.182l4.583 3.676c.288.23.455.578.455.947v8.539H2.72zm8.02-14.764c.12-.554.609-.95 1.175-.95h1.9a4.365 4.365 0 0 0 .753 5.106c.644.649.745 1.663.242 2.427l-.636.958H9.068zm5.3.009l.636-.959h2.29a4.365 4.365 0 0 0 .754 5.106c.644.649.745 1.663.242 2.427l-.637.958h-2.292a4.365 4.365 0 0 0-.754-5.105 1.937 1.937 0 0 1-.24-2.427zm5.151 0l.636-.959h15.234c.57 0 1.063.4 1.183.959l1.619 7.536h-17.68a4.363 4.363 0 0 0-.752-5.105 1.936 1.936 0 0 1-.24-2.431zm24.584 36.092c1.71 0 1.71-1.9 1.71-1.9v-4.581a3.62 3.62 0 0 0 1.21-2.69v-12.17a3.622 3.622 0 0 0-1.362-2.84l-4.582-3.67a1.211 1.211 0 0 1-.375-.514l-1.767-8.242A3.65 3.65 0 0 0 37.061 8H11.915a3.61 3.61 0 0 0-3.543 2.849l-1.814 8.174c-.061.27-.212.512-.428.685l-4.476 3.588A3.618 3.618 0 0 0 .3 26.135v12.168a3.62 3.62 0 0 0 1.21 2.691v4.582s0 1.899 1.89 1.899h5.998c1.79 0 1.79-1.9 1.79-1.9V41.94h26.618v3.637s0 1.899 1.583 1.899h6.386z"/></g></g></g></g></svg>