<svg xmlns="http://www.w3.org/2000/svg" width="17" height="17" viewBox="0 0 17 17"><g><g><path fill="#fff" d="M8.5 16.192l-.784.818-.622-.949-.92.66-.438-1.048-1.025.478-.238-1.11-1.095.28-.032-1.135-1.128.073.177-1.121L1.273 13l.379-1.07-1.078-.34.568-.982-.997-.535.738-.86L0 8.505l.883-.71-.738-.86.997-.534-.568-.982 1.078-.34-.379-1.07 1.122-.137-.177-1.121 1.128.073.032-1.135 1.095.28L4.71.86l1.025.478L6.174.29l.92.659L7.716 0 8.5.818 9.284 0l.622.949.92-.66.438 1.048 1.025-.478.238 1.11 1.095-.28.032 1.135 1.128-.073-.177 1.121 1.122.137-.379 1.07 1.078.34-.568.982.997.535-.738.86.883.709-.883.71.738.86-.997.534.568.982-1.078.34.379 1.07-1.122.137.177 1.121-1.128-.073-.032 1.135-1.095-.28-.238 1.11-1.025-.478-.438 1.047-.92-.659-.622.949zM10.75 5.94L7.815 9.007 6.42 7.532l-.98 1.024 1.395 1.475-.005.006.98 1.024.98-1.024 2.94-3.073z"/></g></g></svg>