<svg xmlns="http://www.w3.org/2000/svg" viewBox="0 0 18 21"><title>comparation1-icon</title><path data-name="Rounded Rectangle 1" d="M1.5 11A1.5 1.5 0 0 1 3 12.5v7A1.5 1.5 0 0 1 1.5 21 1.5 1.5 0 0 1 0 19.5v-7A1.5 1.5 0 0 1 1.5 11z" fill="#00aeef"/><path data-name="Rounded Rectangle 1-2" d="M6.5 6A1.5 1.5 0 0 1 8 7.5v12A1.5 1.5 0 0 1 6.5 21 1.5 1.5 0 0 1 5 19.5v-12A1.5 1.5 0 0 1 6.5 6z" fill="#00aeef"/><path data-name="Rounded Rectangle 1-3" d="M11.5 9a1.5 1.5 0 0 1 1.5 1.5v9a1.5 1.5 0 0 1-1.5 1.5 1.5 1.5 0 0 1-1.5-1.5v-9A1.5 1.5 0 0 1 11.5 9z" fill="#00aeef"/><path data-name="Rounded Rectangle 1-4" d="M16.5 0A1.5 1.5 0 0 1 18 1.5v18a1.5 1.5 0 0 1-1.5 1.5 1.5 1.5 0 0 1-1.5-1.5v-18A1.5 1.5 0 0 1 16.5 0z" fill="#00aeef"/></svg>