<svg xmlns="http://www.w3.org/2000/svg" viewBox="0 0 54.5 37.7"><path class="st0" d="M3.8 16.6l-.5-1.2v-.1l.1-.1h.4l.1.2.2.1v.2l.1.1-.1.3.1.2-.1.2h-.2l-.1.1zm50.4 12.9l.1.4-.1.7-.2.3v.1l-.2.3-.1.5-.1.3.3.3v.2l-.2.5-.1-.1h-.2l-.1.1-.2-.1-.1-.7.3-.3v-.8l.2-.2.1-.2.2-.2v-.4l.1-.4-.1-.3v-.1h.2zm.3-1.1l-.1.8-.1.1h-.2v-.9l-.2-.5.1-.1-.4-.3.2-.3.1-.2v-.1h-.3l-.1-.1.1-.2-.1-.3.1-.3-.2-.1-.1-.1.1-.2.2-.1v-.1l.4.1.1.5-.1.5.2.3.1.2v.6l-.1.2.1.2z"/><path class="st0" d="M44.4 14l-.1.5.2-.1v-.2l-.1-.2zM54 24.5l-.1-.3-.4-.7.1-.3.1-.1V23l-.4-.3-.1-.2v-.3l.3-.3v-.4l-.2-.1H53l-.2-.1-.1-.3.3-.1v-.3l-.4-.3-.4-.1-.1-.4-.4-.5v-.5l-.3-.2v-.4l.1-.2-.1-.4.1-.4.2-.2h.5l.1-.2-.2-.3V16l-.2-.7v-1.2l.1-.2.3-.4v-.2l-.2-.3h-.8l-.6-.1-.1-.5-.2-.4.2-.5v-.2l.1-.1.2.1.4-.1.2-.3.3-.2.2-.3-.1-.4-.7-.3.1-.2-.1-.2-.2-.1.3-.2-.5-.2-.3.3-.5.2-.4.7h-.3l-1.8 1h-.1l-.6.5-.3.1v.4l-.7.8-.1.4-.2.1-.1.2.1.4v.1l-.3.3-.2.1-.2.4v-.2l-.1.2-.2.2h-.1l-.1-.2v4.8c0 1.6-1.1 2-1.1 2s-11 5.5-12.3 6c-1.2.6-2.3 0-2.3 0S18.5 22.8 16.9 22c-1.5-.8-1.8-2.6-1.8-2.6v-6.2H15l-.1.1-.1-.2-.1.1-.2-.2h-.1l-.1.1-.2-.1v.1h-.3l-.1.2v.2l-.1.3H13l-.1.2-.6.7v-.1.1h-.2v.1h-.2l-.1.1v.1l-.2.1-.1.2h-.2l-.1-.1-.1.6-.1.2-.4.1-1-.1h-1l-.5-.2-.1.2.1.3-.1.2h-.3l-.2-.1h-.1l-.3.2v.4l-.1-.1h-.2l-.1.3-.3.1.1.1-.4.4.1.1-.1.1h.1v.1l-.1.1v.1l.3.2v.1l-.1.3h.2l-.4.1-.1.2h-.2v.2h-.1l-.1.2v.3h-.2l.1.3-.1.1v.1l-.3-.1-.1-.1V20h-.1l-.1.2-.3.2-.1.2.2.1.1-.1.1.2.1.1v.2l.1.1-.2.4v.1l-.1-.1v.1l-.2.1.1.3.1.1-.1.1v.1h-.1l.1.1-.1-.1v-.1l-.1.1h-.1l-.1.2.2.1v.3l.4.2-.1.5h.2v.1l.1.1v.2h.2l-.1.1.1.2v.2l.2.1h-.1v.2h-.2l-.1-.1v.1l.1.1H5v-.1h-.2v.1l-.1.1h-.1v.1h-.2l-.1.1-.3-.4-.1.1h-.3l-.2.1h-.1v.1l.1.1L3 25l-1 .2h-.1l-.2-.2h-.2l.1-.3-.1-.1v-.2h-.1V24h-.2l-.3-.2-.3-.1H.4l-.1.2.1.2v.5-.2l-.3.1-.1.2v.3l.1-.1-.1.1.2.2.4.1.2.2.3.1.2.3.2.1v.1l-.1.3.2.7-.1.9h.3l.2.3v.2l.1.2v.2l.3.3.3-.2-.2.1v.2l.1.1v.3l.1.1h-.1l.1.2h-.1v.1h.2l.2.1.1-.1.1-.1h.1v.2l.2.2-.2.1.2.6h.1v.5l.2.2.2-.1.2.1h.4l.2-1 .3-.2h.3v-.2l-.1-.1h.2l-.2-.3v-.1l-.2-.1h.1l.4-.1h.1v-.2l.1.2H6l.2.2.2-.1h.4v-.3l-.1-.2v-.1h.1v.1h.1l.2-.7v-.1l-.2-.3-.1.1v-.5l.1.1v-.1l-.1-.1v-.2l.2-.1h.4v-.2h.1l.2-.2h.4l-.1-.1.1.1v.2l-.1.3.1.1h.2l.2-.4.1.1H9l.1-.1.1.1h.4l.2-.1v-.1l.1.2.1.1.3.1.2.1v.2l.2.2v.2l.1.1v.3h-.1v.1l.1-.1v-.1h.1l.1.2v.1l.1.3.3-.1h.2v.1l.2.1v.2h.1l.1-.1.3.2h.1l.1.2v.2l.2.3v.1h.1l.2-.1.1.2.2.1.3.1.1-.1.1-.2-.1-.1v-.1h-.1l-.1-.1.1-.1v-.1h.1l-.4-.3v-.2.1h.5v-.3h.1l.2-.1.3.2.1.1-.2-.2.1-.1-.1-.1.1-.1h.2l-.3-.2h.2v-.1l.1.1h.1v.1h.1v.1h.1l.2.1v.1h.1l.2.1h.2v.1h.1l.2.1h.1l.2.2.1-.5h.3v.1l.9.2v-.1l.2.1.1.1v-.1l.2.2.3-.3v.1l.2.2.1-.1h.2-.1v.8l-.1.2.1.1.1-.1h.1l.1.1v-.2l.1.1.1.1h-.1v.1-.1l.1.1v.1l.1.1h.2l-.1.2h-.2.2l-.1.1h-.2.2l.1.2.1-.1h.3l.2-.1V31h.7l-.1.2h.1l-.1.2h-.1v.1l.4.7.4 2h.2V34h.1l.1.1h.2v.4l.5.1.1-.1h.4l.2.2v.4l.3.2.1.2h.2l.2.1.1-.1.2-.1h.1l-.1.1h.1v.2h.1v.1h.4l.1-.2.3.1v-.1.1h.1v-.1l.1.1.1-.1v-.2.2-.2l.5-.1.1-.1h.2l.2-.2h.2l.1-.1.1.1h.2v.1l.1.1.5.1v.3l.1.1h.2l.3.1.2-.1.3.1v-.1l.2.1.2.1.2-.2.2-.3v-.1l-.1-.1v-.1l-.1-.1.1-.3h.1l.1-.2.2-.1.1-.2.3.1v.1h.3l.3.2.3.1.1.5.2.2.3.1v.1h.4l.1-.1.4-.2.4.1h.2l.3.2h.3v-.1.1h.1v.2l.3.2.3-.1.5.1.1-.1h.2l.3-.2.7-.2.1-.3.5-.4h.2l.4.2.3-.2.4.2h.4l.2-.4.3-.1v-.2h-.1l.1-.6v-.4l.2-.3v-.2l-.1-.1v-.1h-.1l-.2.1-.1-.1.3-.5.4-.2h.1l.6-.3.6.1.1-.1h.2l.1.1h.1l.1.1h.1v.1l.3.1v.1h.1v.1l.3.2.1.2v-.1.2l.3.1.1.3h.2v.2l.2.2h.3l.2-.1v.1h.2l.2-.1.5.2.2-.1v.1l.1-.1-.1.1v.1h.1l.1.1v.2l.3.2.2-.1h.1l.4-.3v-.2h.1l.1-.2.2-.1.2-.3.3-.1v-.2.4l.2.1v.2l-.1.2.1.1v.1l-.1.1h.2l.1.1h.1v.2h-.2l.1.2-.1.4.1.1-.1.1.1.3v.1h-.6l-.1.3-.2.2.4.4.1.4.1.1v.4l-.3.3h.1l.1.2h.2l.3-.5.7-.2.3-.3.5-.9v-.7l.3-1.4V33l-.1-.4.1-.3v-.4l.1-.6-.1-.4-.3-.8-.6-.1-.1-.3v-.3h.2l.2.2v.2l.6.7.2.5.4.3.1.3.3.3.2.4.4.4.3-.1-.2-.5.1-.1.2.1.2.2h.1l.1-.1-.1-.3-.3-.3h-.3l-.1-.1-.5-.3-.3-.9.2-.2.5.2.1-.1v-.1l-.2-.2-.3-.1-.7-.5-.9-.8-.2-.5-.6-.5-.1-.2-.4-.2-.2.3v.1l.3.1-.2.4H47l-.6-.3h-.1v.4h-.2l-.2-.1-.1-.3-.1-.1-.4.3-.2.4-.2.1.4-1.3-.1-.2.3-1.1-.1-.3.1-.3v-.5l.3-.4.4-.3h.3l.2-.3 1.1-.6.1-.1.3-.1.4-.5v-.2l.2-.1.3-.5v-.1l-.1-.2-.4.1-.2-.1v-.7l-.1-.2v-.2l-.1-.2.3-.5.1-.1h.2l.3.3.4.1.1-.2h.3v.5l.3.9v.4l-.1.2-.1.4.1.1h.2v.2l.1.2v.3l.3.5.4.4 1.4 1 .5.3.5.4.5.1v-1zm-2.5-14.4zm-44.7 7H7h-.2zm.7.7zm6.9-4.6zm.4.3v-.2h-.1l.1-.1v.3zm31.9 19.4l-.1.1.1-.1zm-.3.2l-.3.1.3-.1z"/><path class="st0" d="M46.1 10.7l-.1-.4v-.2l.2-.3.3-.1.2.1.1.2-.1.6-.2.4-.3-.1z"/><path class="st1" d="M43.9 14.6zm.2 0l.2.2v-.4l-.2.2z"/><path class="st0" d="M29.7 24.2c-.6 0-1-.4-1-1V11.5c0-.6.4-1 1-1s1 .4 1 1v11.7c0 .5-.4 1-1 1zM35 13.8c-.6 0-1-.4-1-1V8.9l-9.8-4.6c-.5-.3-.7-.8-.5-1.3s.8-.7 1.3-.5l10.4 4.9c.4.1.6.5.6.9v4.5c0 .5-.4 1-1 1z"/><path class="st0" d="M29.6 12.5c-.6 0-1-.2-1.1-.2l-10-4.9c-.5-.2-.7-.8-.5-1.3.2-.5.8-.7 1.3-.5l10 4.9s.2.1.5 0c.7-.4 9.6-4.6 10-4.8.5-.2 1.1 0 1.3.5.2.5 0 1.1-.5 1.3-.1 0-9.2 4.4-10 4.8-.3.1-.6.2-1 .2z"/><path class="st0" d="M29.8 24.4c-.7 0-1.2-.2-1.3-.3-.1 0-7.5-3.6-8.6-4.1-1.3-.6-1.8-1.9-1.9-2.6V6.5c0-1.1.9-1.7 1.4-1.9 0 0 8.3-3.9 9.1-4.3 1.1-.6 2.2 0 2.3 0 .3.1 8 3.8 9 4.3 1.3.6 1.6 1.9 1.5 2.6v10.3c0 1.4-.9 2.1-1.4 2.3-.2.1-8 3.9-8.9 4.3-.4.2-.9.3-1.2.3zM20 17.2c0 .2.2.8.7 1 1.1.5 8.3 4 8.6 4.1 0 0 .4.2.9 0 .9-.4 8.9-4.2 9-4.3.1 0 .2-.2.2-.5V7.1c0-.2 0-.5-.4-.7-1-.5-8.9-4.3-9-4.3-.1 0-.3-.1-.5 0-.9.4-8.9 4.2-9.3 4.3-.1 0-.2.1-.2.1v10.7z"/></svg>