<svg xmlns="http://www.w3.org/2000/svg" viewBox="0 0 55.9 57"><linearGradient id="a" gradientUnits="userSpaceOnUse" x1="-.028" y1="28.502" x2="55.971" y2="28.502"><stop offset="0" stop-color="#d4090c"/><stop offset="1" stop-color="#ed1d1b"/></linearGradient><path d="M55.3 31.6l-.9-1.2c-.9-1.3-1-3 0-4.3l.8-1.2c1.2-1.7.8-4-.9-5.2-.1-.1-.3-.2-.4-.2l-1.3-.7c-1.4-.7-2.2-2.3-1.9-3.9l.2-1.4c.3-2-1-3.9-3-4.3h-.5L46 9.1C44.4 9 43 8 42.6 6.4L42.2 5c-.6-2-2.6-3.1-4.6-2.5-.2 0-.3.1-.4.2l-1.3.6c-1.5.6-3.2.3-4.2-.9l-1-1.1C29.3-.2 27-.4 25.5 1l-.3.3-1 1.1c-1.1 1.2-2.8 1.6-4.2 1l-1.4-.6c-1.9-.8-4.1.1-4.9 2-.1.1-.1.3-.1.4L13 6.7c-.4 1.5-1.8 2.6-3.4 2.7l-1.4.1c-2 .1-3.6 1.9-3.5 3.9 0 .2 0 .3.1.5l.2 1.4c.3 1.6-.5 3.1-1.8 3.9l-1.3.7c-1.8 1-2.4 3.2-1.4 5 .1.1.2.3.3.4l.9 1.2c.9 1.3 1 3 0 4.3L.9 32c-1.2 1.7-.8 4 .9 5.2.1.1.3.2.4.2l1.3.7c1.4.7 2.2 2.3 1.9 3.9L5 43.5c-.3 2 1 3.9 3 4.3h.5l1.5.1c1.6.1 3 1.1 3.4 2.7l.4 1.4c.6 2 2.6 3.1 4.6 2.5.2 0 .3-.1.4-.2l1.3-.6c1.5-.6 3.2-.3 4.2.9l1 1.1c1.4 1.5 3.7 1.7 5.2.3l.3-.3 1-1.1c1.1-1.2 2.8-1.6 4.2-1l1.4.6c1.9.8 4.1-.1 4.9-2 .1-.1.1-.3.1-.4l.4-1.4c.4-1.5 1.8-2.6 3.4-2.7l1.5-.1c2-.1 3.6-1.9 3.5-3.9 0-.2 0-.3-.1-.5l-.3-1.4c-.3-1.6.5-3.1 1.8-3.9l1.3-.7c1.8-1 2.4-3.2 1.4-5 .1-.3 0-.4 0-.6z" fill="url(#a)"/></svg>