<svg id="Слой_1" xmlns="http://www.w3.org/2000/svg" viewBox="0 0 24.2 35.9"><style>.st0{fill:#28abe2}</style><path class="st0" d="M17.4 8.4c-.5-.5-1.2-.5-1.7 0l-5.2 5.1-2.4-2.4c-.5-.5-1.2-.5-1.7 0s-.5 1.2 0 1.7l3.3 3.3c.2.2.5.4.8.4s.6-.1.8-.3l6-6c.6-.6.6-1.3.1-1.8zm0 0c-.5-.5-1.2-.5-1.7 0l-5.2 5.1-2.4-2.4c-.5-.5-1.2-.5-1.7 0s-.5 1.2 0 1.7l3.3 3.3c.2.2.5.4.8.4s.6-.1.8-.3l6-6c.6-.6.6-1.3.1-1.8z"/><path class="st0" d="M24.2 12c0-6.6-5.4-12-12.1-12C5.5 0 0 5.4 0 12c0 3.6 1.6 6.9 4.2 9.1l-.5 13.1c0 .6.4 1.2.9 1.5.6.3 1.2.2 1.7-.2l5.8-4.9 5.8 4.9c.3.3.7.4 1 .4.2 0 .5 0 .7-.1.6-.3.9-.8.9-1.5l-.6-13.2c2.7-2.2 4.3-5.5 4.3-9.1zm-11 16.3c-.6-.6-1.5-.6-2.1 0l-4.9 4.2.4-9.9c1.7.9 3.6 1.3 5.6 1.3s3.9-.5 5.6-1.3l.4 9.9-5-4.2zm-1.1-6.7c-5.4 0-9.7-4.3-9.7-9.6s4.3-9.6 9.7-9.6 9.7 4.3 9.7 9.6-4.3 9.6-9.7 9.6z"/></svg>