<svg xmlns="http://www.w3.org/2000/svg" viewBox="0 0 266.8 54.6"><path class="st0" d="M139.9 19.8v3.4c0 .4-.3.7-.7.7h-12.7v3.3h9.3c.4 0 .7.3.7.7V32c0 .4-.3.7-.7.7h-9.3V36h13.4c.4 0 .7.3.7.7V40c0 .4-.3.7-.7.7h-21.2c-.4 0-.7-.3-.7-.7V19.8c0-.4.3-.7.7-.7h20.5c.4 0 .7.3.7.7zm-53.8-.7c-.4 0-.7.3-.7.7v20.1c0 .4.3.7.7.7h7.2c.4 0 .7-.3.7-.7V29.1l10.3 10.8c.1.2.5.7 1 .7h8.2c.4 0 .7-.3.7-.7V19.8c0-.4-.3-.7-.7-.7h-7.2c-.4 0-.7.3-.7.7v10.8L95.3 19.8c-.1-.2-.6-.7-1-.7h-8.2zm179.3 0h-20.5c-.4 0-.7.3-.7.7v20.1c0 .4.3.7.7.7h21.2c.4 0 .7-.3.7-.7v-3.3c0-.4-.3-.7-.7-.7h-13.4v-3.3h9.3c.4 0 .7-.3.7-.7v-4.1c0-.4-.3-.7-.7-.7h-9.3v-3.3h12.7c.4 0 .7-.3.7-.7v-3.4c0-.3-.3-.6-.7-.6zm-53.1 0c-.4 0-.7.3-.7.7v20.1c0 .4.3.7.7.7h7.2c.4 0 .7-.3.7-.7V29.1l10.3 10.8c.1.2.5.7 1 .7h8.2c.4 0 .7-.3.7-.7V19.8c0-.4-.3-.7-.7-.7h-7.2c-.4 0-.7.3-.7.7v10.8l-10.3-10.8c-.2-.2-.6-.7-1-.7h-8.2zm-15.9 15.5H183V19.8c0-.4-.3-.7-.7-.7h-7.2c-.4 0-.7.3-.7.7v20.1c0 .4.3.7.7.7h21.2c.4 0 .7-.3.7-.7v-4.7c0-.3-.3-.6-.6-.6zm11.1-14.8c0-.4-.3-.7-.7-.7h-7.2c-.4 0-.7.3-.7.7v20.1c0 .4.3.7.7.7h7.2c.4 0 .7-.3.7-.7V19.8zm-35 10c0 6.3-6.7 11.4-14.9 11.4s-14.9-5.1-14.9-11.4c0-6.3 6.7-11.4 14.9-11.4 8.2.1 14.9 5.2 14.9 11.4zm-7.9.1c0-3.3-3.2-6-7.1-6-3.9 0-7.1 2.7-7.1 6s3.2 6 7.1 6c4 0 7.1-2.7 7.1-6z"/><g fill="#00acec"><path class="st1" d="M18.1 53.4V39.9l13.4-13.5v13.5h8.7l20.6-20.6H79l-9.1 9-25 25.1"/><path class="st1" d="M60.9 0v13.5L47.5 27V13.5h-8.7L18.2 34.1H0l9.1-9L34.2 0"/></g><path class="st2" d="M90.7 49.4h-3.6l-.8 2.2h-.7l3-7.8h.6l3 7.8h-.7l-.8-2.2zm-3.4-.5h3.1l-1.6-4.3-1.5 4.3zm6.4 2.7v-5.8h2.1c.7 0 1.3.1 1.7.4.4.3.6.6.6 1.2 0 .3-.1.5-.3.8s-.4.4-.8.5c.4.1.7.2.9.5.2.3.3.5.3.9 0 .5-.2.9-.6 1.2-.4.3-.9.4-1.6.4h-2.3zm.6-3.2h1.6c1 0 1.5-.4 1.5-1 0-.4-.1-.6-.4-.8-.3-.2-.7-.2-1.2-.2h-1.5v2zm0 .6v2.1h1.9c.5 0 .9-.1 1.1-.3s.4-.5.4-.8c0-.3-.1-.6-.4-.8-.3-.1-.7-.2-1.1-.2h-1.9zm10-2.6h-2.1v5.3h-.6v-5.3h-2v-.5h4.8v.5zm.9 2.3c0-.6.1-1.1.3-1.5.2-.4.5-.8.9-1 .4-.2.8-.4 1.3-.4.8 0 1.4.3 1.9.8s.7 1.3.7 2.2v.1c0 .6-.1 1.1-.3 1.5-.2.4-.5.8-.9 1s-.8.4-1.3.4c-.8 0-1.4-.3-1.9-.8s-.7-1.3-.7-2.2v-.1zm.6.1c0 .7.2 1.3.5 1.7.4.4.8.7 1.4.7.6 0 1-.2 1.4-.7.4-.4.5-1 .5-1.8v-.1c0-.4-.1-.8-.2-1.2s-.4-.7-.7-.9-.6-.3-1-.3c-.6 0-1 .2-1.4.7s-.5 1-.5 1.8v.1zm8.3-2.5c-.4 0-.8.1-1.1.4s-.4.6-.4 1h-.6c0-.4.1-.7.3-1 .2-.3.5-.5.8-.7s.7-.3 1.1-.3c.7 0 1.3.3 1.7.7.5.5.7 1.2.7 2v.4c0 .6-.1 1.1-.3 1.5-.2.4-.5.8-.9 1-.4.2-.8.4-1.3.4-.6 0-1.2-.2-1.6-.6-.4-.4-.6-.9-.6-1.5h.6c0 .5.1.8.4 1.1.3.3.7.4 1.1.4.5 0 1-.2 1.3-.6.3-.4.5-.9.5-1.6h-2.6v-.5h2.6c0-.7-.2-1.2-.5-1.6-.2-.3-.7-.5-1.2-.5zm8.8-.5v5.8h-.6v-5.3h-2.4l-.1 2.2c0 .8-.1 1.4-.2 1.8s-.3.7-.5.9-.5.3-.9.3h-.2v-.6h.2c.4 0 .6-.2.8-.5s.3-1 .3-1.9l.1-2.8h3.5zm4.4 6c-.5 0-.9-.1-1.3-.4-.4-.2-.7-.6-.9-1-.2-.4-.3-.9-.3-1.5v-.2c0-.6.1-1.1.3-1.5.2-.4.5-.8.9-1.1s.8-.4 1.3-.4c.7 0 1.3.2 1.7.7.4.5.6 1.1.6 2v.4h-4.1v.1c0 .7.2 1.2.6 1.6.4.4.9.7 1.4.7.3 0 .6-.1.9-.2.3-.1.5-.3.7-.6l.4.3c-.6.7-1.3 1.1-2.2 1.1zm-.1-5.5c-.5 0-.9.2-1.2.5-.3.4-.5.8-.6 1.4h3.5v-.1c0-.6-.2-1-.5-1.4s-.7-.4-1.2-.4zm5.5 2.7h-.9v2.7h-.6v-5.8h.6v2.6h.9l2.1-2.6h.8l-2.4 2.8 2.6 3h-.8l-2.3-2.7zm8.8-2.6h-2.1v5.3h-.6v-5.3h-2v-.5h4.8v.5zm6.1 2.4c0 .9-.2 1.6-.6 2.2-.4.5-.9.8-1.6.8-.8 0-1.4-.3-1.8-.8v3h-.6v-8h.6v.8c.4-.6 1-.9 1.8-.9.7 0 1.2.3 1.6.8.4.3.6 1.1.6 2.1zm-.6-.1c0-.7-.2-1.3-.5-1.8-.3-.4-.7-.6-1.3-.6-.4 0-.7.1-1 .3-.3.2-.5.5-.6.8v2.8c.2.3.4.6.7.8.3.2.6.3 1 .3.5 0 1-.2 1.3-.6s.4-1.2.4-2zm2.1 0c0-.6.1-1.1.3-1.5s.5-.8.9-1 .8-.4 1.3-.4c.8 0 1.4.3 1.9.8s.7 1.3.7 2.2v.1c0 .6-.1 1.1-.3 1.5s-.5.8-.9 1c-.4.2-.8.4-1.3.4-.8 0-1.4-.3-1.9-.8s-.7-1.3-.7-2.2v-.1zm.7.1c0 .7.2 1.3.5 1.7.4.4.8.7 1.4.7.6 0 1-.2 1.4-.7.4-.4.5-1 .5-1.8v-.1c0-.4-.1-.8-.2-1.2-.2-.4-.4-.7-.7-.9s-.6-.3-1-.3c-.6 0-1 .2-1.4.7-.4.4-.5 1-.5 1.8v.1zm10.8 2.8h-.6V49h-3.1v2.7h-.6v-5.8h.6v2.6h3.1v-2.6h.6v5.7zm5.9-5.8h.6v5.8h-.6v-4.8l-3.1 4.8h-.6v-5.8h.6v4.8l3.1-4.8zm4.4 3.2h-.9v2.7h-.7v-5.8h.7v2.6h.9l2.1-2.6h.8l-2.4 2.8 2.6 3h-.8l-2.3-2.7zm8.3 2.6c-.1-.2-.1-.5-.1-.8-.2.3-.5.5-.9.7-.3.2-.7.2-1.1.2-.6 0-1-.2-1.4-.5-.3-.3-.5-.7-.5-1.2 0-.6.2-1 .7-1.3.5-.3 1.1-.5 2-.5h1.2v-.7c0-.4-.1-.7-.4-1s-.6-.4-1.1-.4c-.4 0-.8.1-1.1.3-.3.2-.4.5-.4.8h-.6c0-.5.2-.9.6-1.2.4-.3 1-.5 1.6-.5.6 0 1.2.2 1.5.5s.6.8.6 1.4v2.8c0 .6.1 1 .2 1.3v.1h-.8zm-2.1-.4c.4 0 .8-.1 1.2-.3.3-.2.6-.5.7-.8v-1.3h-1.1c-.6 0-1.1.1-1.5.4-.4.2-.5.5-.5.9 0 .3.1.6.4.8.1.2.4.3.8.3zm11.6-5.4h.6v5.8h-.6v-4.8l-3.1 4.8h-.6v-5.8h.6v4.8l3.1-4.8zm9.6 5.8c-.1-.2-.1-.5-.1-.8-.2.3-.5.5-.9.7-.3.2-.7.2-1.1.2-.6 0-1-.2-1.4-.5-.3-.3-.5-.7-.5-1.2 0-.6.2-1 .7-1.3.5-.3 1.1-.5 2-.5h1.2v-.7c0-.4-.1-.7-.4-1s-.6-.4-1.1-.4c-.4 0-.8.1-1.1.3-.3.2-.4.5-.4.8h-.6c0-.5.2-.9.6-1.2.4-.3 1-.5 1.6-.5.6 0 1.2.2 1.5.5s.6.8.6 1.4v2.8c0 .6.1 1 .2 1.3v.1h-.8zm-2-.4c.4 0 .8-.1 1.2-.3.3-.2.6-.5.7-.8v-1.3h-1.1c-.6 0-1.1.1-1.5.4-.4.2-.5.5-.5.9 0 .3.1.6.4.8.1.2.4.3.8.3zm6.3-2.2h-.9v2.7h-.7v-5.8h.7v2.6h.9l2.1-2.6h.8l-2.4 2.8 2.6 3h-.8l-2.3-2.7zm6.6 2.2c.4 0 .8-.1 1.1-.4.3-.3.5-.6.5-1h.6c0 .4-.1.7-.3 1s-.5.5-.8.7c-.3.2-.7.2-1.1.2-.8 0-1.4-.3-1.8-.8-.4-.5-.7-1.2-.7-2.1v-.2c0-.6.1-1.1.3-1.5.2-.4.5-.8.9-1 .4-.2.8-.4 1.3-.4.6 0 1.2.2 1.6.6.4.4.6.9.7 1.5h-.6c0-.5-.2-.8-.5-1.1s-.7-.4-1.1-.4c-.6 0-1 .2-1.4.6-.3.4-.5 1-.5 1.8v.2c0 .7.2 1.3.5 1.7.3.4.7.6 1.3.6zm6.2.6c-.5 0-.9-.1-1.3-.4s-.7-.6-.9-1c-.2-.4-.3-.9-.3-1.5v-.2c0-.6.1-1.1.3-1.5s.5-.8.9-1.1.8-.4 1.3-.4c.7 0 1.3.2 1.7.7.4.5.6 1.1.6 2v.4h-4.1v.1c0 .7.2 1.2.6 1.6s.9.7 1.4.7c.3 0 .6-.1.9-.2.3-.1.5-.3.7-.6l.4.3c-.6.7-1.3 1.1-2.2 1.1zm-.1-5.5c-.5 0-.9.2-1.2.5-.3.4-.5.8-.6 1.4h3.5v-.1c0-.6-.2-1-.5-1.4s-.7-.4-1.2-.4zm6.1 4.9c.4 0 .8-.1 1.1-.4.3-.3.5-.6.5-1h.6c0 .4-.1.7-.3 1s-.5.5-.8.7c-.3.2-.7.2-1.1.2-.8 0-1.4-.3-1.8-.8-.4-.5-.7-1.2-.7-2.1v-.2c0-.6.1-1.1.3-1.5.2-.4.5-.8.9-1 .4-.2.8-.4 1.3-.4.6 0 1.2.2 1.6.6.4.4.6.9.7 1.5h-.7c0-.5-.2-.8-.5-1.1s-.7-.4-1.1-.4c-.6 0-1 .2-1.4.6-.3.4-.5 1-.5 1.8v.2c0 .7.2 1.3.5 1.7.4.4.8.6 1.4.6zm6.1 0c.4 0 .8-.1 1.1-.4.3-.3.5-.6.5-1h.6c0 .4-.1.7-.3 1s-.5.5-.8.7c-.3.2-.7.2-1.1.2-.8 0-1.4-.3-1.8-.8-.4-.5-.7-1.2-.7-2.1v-.2c0-.6.1-1.1.3-1.5.2-.4.5-.8.9-1 .4-.2.8-.4 1.3-.4.6 0 1.2.2 1.6.6.4.4.6.9.7 1.5h-.6c0-.5-.2-.8-.5-1.1s-.7-.4-1.1-.4c-.6 0-1 .2-1.4.6-.3.4-.5 1-.5 1.8v.2c0 .7.2 1.3.5 1.7.3.4.8.6 1.3.6zm5.8-.5l1.7-4.9h.7l-2.5 6.8-.1.3c-.3.7-.8 1.1-1.5 1.1-.2 0-.3 0-.5-.1v-.5h.3c.3 0 .6-.1.8-.2.2-.2.4-.4.5-.8l.3-.8-2.2-5.8h.7l1.8 4.9zm7.4.9c-.1-.2-.1-.5-.1-.8-.2.3-.5.5-.9.7-.3.2-.7.2-1.1.2-.6 0-1-.2-1.4-.5-.3-.3-.5-.7-.5-1.2 0-.6.2-1 .7-1.3.5-.3 1.1-.5 2-.5h1.2v-.7c0-.4-.1-.7-.4-1s-.6-.4-1.1-.4c-.4 0-.8.1-1.1.3-.3.2-.4.5-.4.8h-.6c0-.5.2-.9.6-1.2.4-.3 1-.5 1.6-.5.6 0 1.2.2 1.5.5s.6.8.6 1.4v2.8c0 .6.1 1 .2 1.3v.1h-.8zm-2-.4c.4 0 .8-.1 1.2-.3.3-.2.6-.5.7-.8v-1.3h-1.1c-.6 0-1.1.1-1.5.4-.4.2-.5.5-.5.9 0 .3.1.6.4.8.1.2.4.3.8.3zm9.4-2.4c0 .9-.2 1.6-.6 2.2-.4.5-.9.8-1.6.8-.8 0-1.4-.3-1.8-.8v3h-.6v-8h.6v.8c.4-.6 1-.9 1.8-.9.7 0 1.2.3 1.6.8.4.3.6 1.1.6 2.1zm-.7-.1c0-.7-.2-1.3-.5-1.8-.3-.4-.7-.6-1.3-.6-.4 0-.7.1-1 .3-.3.2-.5.5-.6.8v2.8c.2.3.4.6.7.8.3.2.6.3 1 .3.5 0 1-.2 1.3-.6s.4-1.2.4-2zm3.3-.8h1.7c.4 0 .8.1 1.1.2.3.2.6.4.7.6.2.3.3.6.3 1 0 .6-.2 1-.6 1.4-.4.3-.9.5-1.6.5H250v-5.8h.6v2.1zm0 .6v2.6h1.7c.5 0 .8-.1 1.1-.3.3-.2.4-.6.4-1s-.1-.7-.4-.9-.6-.4-1.1-.4h-1.7zm5.7 3.1h-.6v-5.8h.6v5.8z" fill="#999"/></svg>