<svg xmlns="http://www.w3.org/2000/svg" viewBox="0 0 248 50"><path d="M130.1 16.6v3.1c0 .3-.3.6-.6.6h-11.8v3.1h8.6c.3 0 .6.3.6.6v3.8c0 .3-.3.6-.6.6h-8.6v3.1h12.4c.3 0 .6.3.6.6v3.1c0 .3-.3.6-.6.6h-19.7c-.3 0-.6-.3-.6-.6V16.6c0-.3.3-.6.6-.6h19.1c.3 0 .6.3.6.6zm-50-.6c-.3 0-.6.3-.6.6v18.7c0 .3.3.6.6.6h6.6c.3 0 .6-.3.6-.6v-10l9.5 10c.1.1.5.6.9.6h7.6c.3 0 .6-.3.6-.6V16.6c0-.3-.3-.6-.6-.6h-6.6c-.3 0-.6.3-.6.6v10l-9.5-10c-.1-.1-.5-.6-1-.6h-7.5zm166.5 0h-19.1c-.3 0-.6.3-.6.6v18.7c0 .3.3.6.6.6h19.7c.3 0 .6-.3.6-.6v-3.1c0-.3-.3-.6-.6-.6h-12.4v-3.1h8.6c.3 0 .6-.3.6-.6V24c0-.3-.3-.6-.6-.6h-8.6v-3.1h11.8c.3 0 .6-.3.6-.6v-3.1c0-.3-.3-.6-.6-.6zm-49.4 0c-.3 0-.6.3-.6.6v18.7c0 .3.3.6.6.6h6.6c.3 0 .6-.3.6-.6v-10l9.5 10c.1.1.5.6.9.6h7.6c.3 0 .6-.3.6-.6V16.6c0-.3-.3-.6-.6-.6h-6.6c-.3 0-.6.3-.6.6v10l-9.5-10c-.2-.1-.5-.6-1-.6h-7.5zm-14.7 14.3H170V16.6c0-.3-.3-.6-.6-.6h-6.6c-.3 0-.6.3-.6.6v18.7c0 .3.3.6.6.6h19.7c.3 0 .6-.3.6-.6V31c0-.4-.3-.7-.6-.7zm10.3-13.7c0-.3-.3-.6-.6-.6h-6.6c-.3 0-.6.3-.6.6v18.7c0 .3.3.6.6.6h6.6c.3 0 .6-.3.6-.6V16.6zm-32.5 9.3c0 5.8-6.2 10.6-13.8 10.6s-13.8-4.7-13.8-10.6c0-5.8 6.2-10.6 13.8-10.6s13.8 4.8 13.8 10.6zm-7.3 0c0-3.1-3-5.6-6.6-5.6s-6.6 2.5-6.6 5.6 3 5.6 6.6 5.6c3.7 0 6.6-2.5 6.6-5.6z" fill="#0a0d11"/><path fill="#00aeef" d="M17 49.8V37.2l12.5-12.5v12.5h8l19.2-19.1h16.8l-8.4 8.4-23.3 23.3"/><path fill="#00aeef" d="M56.7.2v12.6L44.2 25.3V12.8h-8L17 31.9H.2l8.4-8.4L31.9.2"/><path d="M84 45.1c-.6.2-1.4.4-2 .4-1.4 0-2-.4-2-1.6 0-1.4.8-1.6 1.9-1.6.5 0 .8 0 1.3.1 0-1-.3-1.2-1.3-1.2-.5 0-1 .1-1.4.2l-.2-.8c.4-.1 1.1-.2 1.7-.2 1.4 0 2 .4 2 1.9v2.8zm-.9-2c-.3 0-.7-.1-1.1-.1-.8 0-1.1.1-1.1.8 0 .8.2.9 1.1.9.4 0 .8-.1 1.1-.2v-1.4zm5.4-2.5h.9v4.5c-.6.2-1.4.4-2.1.4-1.4 0-1.9-.5-1.9-2.2v-2.7h.9v2.6c0 1.3.3 1.5 1.2 1.5.4 0 .7 0 1-.1v-4zm3.3.8v2.3c0 .7.2 1 .8 1 .3 0 .6 0 .9-.1l.2.7c-.3.1-.8.2-1.2.2-1.1 0-1.6-.3-1.6-1.7v-2.4h-.8v-.8h.8v-.9l.9-.4v1.3h1.7v.8h-1.7zm2.6 1.6c0-1.9.7-2.5 2.2-2.5s2.2.5 2.2 2.5-.7 2.5-2.2 2.5-2.2-.6-2.2-2.5zm.9 0c0 1.4.3 1.8 1.3 1.8s1.3-.3 1.3-1.8-.3-1.8-1.3-1.8-1.3.3-1.3 1.8zm5.6 2.4h-.9v-4.5c.5-.2 1.4-.4 2-.4s1 .1 1.3.3c.5-.2 1.2-.3 1.7-.3 1.4 0 1.8.5 1.8 2.2v2.7h-.8v-2.6c0-1.3-.3-1.5-1.1-1.5-.3 0-.7 0-1.1.2.1.3.2.7.2 1.3v2.7h-1v-2.6c0-1.3-.2-1.5-1.1-1.5-.3 0-.7 0-1 .1v3.9zM108 43c0-1.9.7-2.5 2.2-2.5s2.2.5 2.2 2.5-.7 2.5-2.2 2.5c-1.4 0-2.2-.6-2.2-2.5zm1 0c0 1.4.3 1.8 1.3 1.8s1.3-.3 1.3-1.8-.3-1.8-1.3-1.8-1.3.3-1.3 1.8zm4.7-4.4h.9v2.2c.3-.2.7-.3 1.3-.3 1.4 0 2.1.6 2.1 2.5 0 2-.7 2.5-2.2 2.5-.6 0-1.5-.1-2-.4v-6.5h-.1zm.9 6c.3.1.7.2 1.1.2 1 0 1.3-.3 1.3-1.7s-.3-1.7-1.3-1.7c-.6 0-1.1.2-1.1.6v2.6zm5.5-5.4c0 .5-.1.5-.5.5s-.5-.1-.5-.5.1-.5.5-.5.5.1.5.5zm0 6.2h-.9v-4.8h.9v4.8zm2.2-1.3c0 .5.1.7.4 1.1l-.8.4c-.4-.4-.5-.8-.5-1.4v-5.5h.9v5.4zm5.2 1.1c-.5.2-1.2.3-1.6.3-1.4 0-2.3-.6-2.3-2.5s.8-2.5 2.2-2.5c1.4 0 2.1.5 2 2.7h-3.2c0 1.3.5 1.6 1.4 1.6.3 0 1-.1 1.4-.2l.1.6zm-3-2.7h2.4c0-1-.3-1.2-1.1-1.2-.9-.1-1.2.2-1.3 1.2zm10.7 2.7c-.5.2-1.2.3-1.6.3-1.4 0-2.3-.6-2.3-2.5s.8-2.5 2.2-2.5 2.1.5 2 2.7h-3.2c0 1.3.5 1.6 1.4 1.6.3 0 1-.1 1.4-.2l.1.6zm-2.9-2.7h2.4c0-1-.3-1.2-1.1-1.2-.9-.1-1.2.2-1.3 1.2zm5.2 1.6c0 .5.1.7.4 1.1l-.8.4c-.4-.4-.5-.8-.5-1.4v-5.5h.9v5.4zm5.2 1.1c-.5.2-1.2.3-1.6.3-1.4 0-2.3-.6-2.3-2.5s.8-2.5 2.2-2.5 2.1.5 2 2.7h-3.2c0 1.3.5 1.6 1.4 1.6.3 0 1-.1 1.4-.2l.1.6zm-3-2.7h2.4c0-1-.3-1.2-1.1-1.2-.9-.1-1.2.2-1.3 1.2zm8 2.8c-.4.2-1 .3-1.4.3-1.5 0-2.3-.6-2.3-2.5s.9-2.5 2.3-2.5c.4 0 1.1.1 1.4.2l-.2.8c-.3-.1-.7-.2-1.1-.2-1 0-1.4.2-1.4 1.7 0 1.4.5 1.7 1.4 1.7.4 0 .8-.1 1.1-.2l.2.7zm1.9-3.9v2.3c0 .7.2 1 .8 1 .3 0 .6 0 .9-.1l.2.7c-.3.1-.8.2-1.2.2-1.1 0-1.6-.3-1.6-1.7v-2.4h-.8v-.8h.8v-.9l.9-.4v1.3h1.7v.8h-1.7zm2.7-.8h.9v.4c.2-.2.6-.5 1.3-.5h.5v.9h-.6c-.6 0-1.2.2-1.2.6v3.5h-.9v-4.9zm3.2 2.4c0-1.9.7-2.5 2.2-2.5s2.2.5 2.2 2.5-.7 2.5-2.2 2.5c-1.4 0-2.2-.6-2.2-2.5zm1 0c0 1.4.3 1.8 1.3 1.8s1.3-.3 1.3-1.8-.3-1.8-1.3-1.8-1.3.3-1.3 1.8zm5.6 2.4h-.9v-4.5c.5-.2 1.4-.4 2.1-.4 1.4 0 1.9.5 1.9 2.2v2.7h-.9v-2.6c0-1.3-.3-1.5-1.2-1.5-.4 0-.7 0-1 .1v4zm5.4-6.2c0 .5-.1.5-.5.5s-.5-.1-.5-.5.1-.5.5-.5.5.1.5.5zm-.1 6.2h-.9v-4.8h.9v4.8zm5-.1c-.4.2-1 .3-1.4.3-1.5 0-2.3-.6-2.3-2.5s.9-2.5 2.3-2.5c.4 0 1.1.1 1.4.2l-.2.8c-.3-.1-.7-.2-1.1-.2-1 0-1.4.2-1.4 1.7 0 1.4.5 1.7 1.4 1.7.4 0 .8-.1 1.1-.2l.2.7zm3.9-3.8c-.4-.1-.9-.2-1.4-.2-.7 0-1 .1-1 .7 0 .4.3.6 1.1.6 1.2.1 1.7.5 1.7 1.4 0 1.2-.7 1.6-1.9 1.6-.5 0-1.3-.1-1.7-.3l.2-.8c.3.1 1 .3 1.5.3.7 0 1.1-.1 1.1-.7 0-.4-.2-.6-1.1-.7-1.1-.1-1.7-.4-1.7-1.3 0-1.2.7-1.5 2-1.5.5 0 1.1.1 1.6.2l-.4.7zm8 3.6c-.6.2-1.4.4-2 .4-1.4 0-2-.4-2-1.6 0-1.4.8-1.6 1.9-1.6.5 0 .8 0 1.3.1 0-1-.3-1.2-1.3-1.2-.5 0-1 .1-1.4.2l-.2-.8c.4-.1 1.1-.2 1.7-.2 1.4 0 2 .4 2 1.9v2.8zm-.9-2c-.3-.1-.7-.1-1.1-.1-.8 0-1.1.1-1.1.8 0 .8.2.9 1.1.9.4 0 .8-.1 1.1-.2v-1.4zm3.1 2.3h-.9v-4.5c.5-.2 1.4-.4 2.1-.4 1.4 0 1.9.5 1.9 2.2v2.7h-.9v-2.6c0-1.3-.3-1.5-1.2-1.5-.4 0-.7 0-1 .1v4zm8.6-.3c-.5.2-1.4.4-2 .4-1.5 0-2.2-.6-2.2-2.5s.7-2.5 2.1-2.5c.6 0 1 .2 1.2.3v-2.2h.9v6.5zm-.9-3.3c0-.4-.5-.6-1.1-.6-1 0-1.3.4-1.3 1.7 0 1.5.3 1.7 1.3 1.7.4 0 .8-.1 1.1-.2v-2.6zm8.7 3.3c-.6.2-1.4.4-2 .4-1.4 0-2-.4-2-1.6 0-1.4.8-1.6 1.9-1.6.5 0 .8 0 1.3.1 0-1-.3-1.2-1.3-1.2-.5 0-1 .1-1.4.2l-.2-.8c.4-.1 1.1-.2 1.7-.2 1.4 0 2 .4 2 1.9v2.8zm-.9-2c-.3-.1-.7-.1-1.1-.1-.8 0-1.1.1-1.1.8 0 .8.2.9 1.1.9.4 0 .8-.1 1.1-.2v-1.4zm5.8 2.2c-.4.2-1 .3-1.4.3-1.5 0-2.3-.6-2.3-2.5s.9-2.5 2.3-2.5c.4 0 1.1.1 1.4.2l-.2.8c-.3-.1-.7-.2-1.1-.2-1 0-1.4.2-1.4 1.7 0 1.4.5 1.7 1.4 1.7.4 0 .8-.1 1.1-.2l.2.7zm4.4 0c-.4.2-1 .3-1.4.3-1.5 0-2.3-.6-2.3-2.5s.9-2.5 2.3-2.5c.4 0 1.1.1 1.4.2l-.2.8c-.3-.1-.7-.2-1.1-.2-1 0-1.4.2-1.4 1.7 0 1.4.5 1.7 1.4 1.7.4 0 .8-.1 1.1-.2l.2.7zm4.6-.1c-.5.2-1.2.3-1.6.3-1.4 0-2.3-.6-2.3-2.5s.8-2.5 2.2-2.5 2.1.5 2 2.7h-3.2c0 1.3.5 1.6 1.4 1.6.3 0 1-.1 1.4-.2l.1.6zm-3-2.7h2.4c0-1-.3-1.2-1.1-1.2-.9-.1-1.2.2-1.3 1.2zm7.5-1c-.4-.1-.9-.2-1.4-.2-.7 0-1 .1-1 .7 0 .4.3.6 1.1.6 1.2.1 1.7.5 1.7 1.4 0 1.2-.7 1.6-1.9 1.6-.5 0-1.3-.1-1.7-.3l.2-.8c.3.1 1 .3 1.5.3.7 0 1.1-.1 1.1-.7 0-.4-.2-.6-1.1-.7-1.1-.1-1.7-.4-1.7-1.3 0-1.2.7-1.5 2-1.5.5 0 1.1.1 1.6.2l-.4.7zm4.7 0c-.4-.1-.9-.2-1.4-.2-.7 0-1 .1-1 .7 0 .4.3.6 1.1.6 1.2.1 1.7.5 1.7 1.4 0 1.2-.7 1.6-1.9 1.6-.5 0-1.3-.1-1.7-.3l.2-.8c.3.1 1 .3 1.5.3.7 0 1.1-.1 1.1-.7 0-.4-.2-.6-1.1-.7-1.1-.1-1.7-.4-1.7-1.3 0-1.2.7-1.5 2-1.5.5 0 1.1.1 1.6.2l-.4.7zm1.4 1.5c0-1.9.7-2.5 2.2-2.5s2.2.5 2.2 2.5-.7 2.5-2.2 2.5c-1.5 0-2.2-.6-2.2-2.5zm.9 0c0 1.4.3 1.8 1.3 1.8s1.3-.3 1.3-1.8-.3-1.8-1.3-1.8-1.3.3-1.3 1.8zm4.7-2.4h.9v.4c.2-.2.6-.5 1.3-.5h.5v.9h-.6c-.6 0-1.2.2-1.2.6v3.5h-.9v-4.9zm4.4-1.4c0 .5-.1.5-.5.5s-.5-.1-.5-.5.1-.5.5-.5.5.1.5.5zm-.1 6.2h-.9v-4.8h.9v4.8zm5.1-.2c-.5.2-1.2.3-1.6.3-1.4 0-2.3-.6-2.3-2.5s.8-2.5 2.2-2.5 2.1.5 2 2.7h-3.2c0 1.3.5 1.6 1.4 1.6.3 0 1-.1 1.4-.2l.1.6zm-2.9-2.7h2.4c0-1-.3-1.2-1.1-1.2-.9-.1-1.2.2-1.3 1.2zm7.5-1c-.4-.1-.9-.2-1.4-.2-.7 0-1 .1-1 .7 0 .4.3.6 1.1.6 1.2.1 1.7.5 1.7 1.4 0 1.2-.7 1.6-1.9 1.6-.5 0-1.3-.1-1.7-.3l.2-.8c.3.1 1 .3 1.5.3.7 0 1.1-.1 1.1-.7 0-.4-.2-.6-1.1-.7-1.1-.1-1.7-.4-1.7-1.3 0-1.2.7-1.5 2-1.5.5 0 1.1.1 1.6.2l-.4.7z" fill="#606161"/></svg>