<svg id="иконки" xmlns="http://www.w3.org/2000/svg" viewBox="0 0 100 100"><style>.st0{fill-rule:evenodd;clip-rule:evenodd;fill:#fff}.st1,.st2{fill:#00afee}.st2{fill-rule:evenodd;clip-rule:evenodd}</style><path class="st0" d="M37.3 35.4H61c1.1 0 2 .9 2 2V71c0 1.1-.9 2-2 2H37.3c-1.1 0-2-.9-2-2V37.4c0-1.1.9-2 2-2z" fill-rule="evenodd" clip-rule="evenodd" fill="#fff"/><path class="st1" d="M61 73.4H37.3c-1.3 0-2.4-1.1-2.4-2.4V37.4c0-1.3 1.1-2.4 2.4-2.4H61c1.3 0 2.4 1.1 2.4 2.4V71c0 1.4-1.1 2.4-2.4 2.4zM37.3 35.8c-.9 0-1.6.7-1.6 1.6V71c0 .9.7 1.6 1.6 1.6H61c.9 0 1.6-.7 1.6-1.6V37.4c0-.9-.7-1.6-1.6-1.6H37.3z" fill="#00afee"/><path class="st0" d="M38.6 27.1h21.2c1.1 0 2 .9 2 2v51.4c0 1.1-.9 2-2 2H38.6c-1.1 0-2-.9-2-2V29.1c0-1.1.9-2 2-2z" fill-rule="evenodd" clip-rule="evenodd" fill="#fff"/><path class="st1" d="M59.8 82.8H38.6c-1.3 0-2.4-1.1-2.4-2.4V29.1c0-1.3 1.1-2.4 2.4-2.4h21.2c1.3 0 2.4 1.1 2.4 2.4v51.4c-.1 1.2-1.1 2.3-2.4 2.3zM38.6 27.4c-.9 0-1.6.7-1.6 1.6v51.4c0 .9.7 1.6 1.6 1.6h21.2c.9 0 1.6-.7 1.6-1.6V29.1c0-.9-.7-1.6-1.6-1.6H38.6z" fill="#00afee"/><path class="st0" d="M38.6 30.7h21.2c1.1 0 2 .9 2 2v44.2c0 1.1-.9 2-2 2H38.6c-1.1 0-2-.9-2-2V32.7c0-1.1.9-2 2-2z" fill-rule="evenodd" clip-rule="evenodd" fill="#fff"/><path class="st1" d="M59.8 79.3H38.6c-1.3 0-2.4-1.1-2.4-2.4V32.7c0-1.3 1.1-2.4 2.4-2.4h21.2c1.3 0 2.4 1.1 2.4 2.4v44.2c-.1 1.3-1.1 2.4-2.4 2.4zM38.6 31.1c-.9 0-1.6.7-1.6 1.6v44.2c0 .9.7 1.6 1.6 1.6h21.2c.9 0 1.6-.7 1.6-1.6V32.7c0-.9-.7-1.6-1.6-1.6H38.6z" fill="#00afee"/><path class="st0" d="M38.4 35.4H60c1 0 1.8.8 1.8 1.8v34c0 1-.8 1.8-1.8 1.8H38.4c-1 0-1.8-.8-1.8-1.8v-34c0-1 .8-1.8 1.8-1.8z" fill-rule="evenodd" clip-rule="evenodd" fill="#fff"/><path class="st1" d="M59.9 73.4H38.4c-1.2 0-2.2-1-2.2-2.2v-34c0-1.2 1-2.2 2.2-2.2H60c1.2 0 2.2 1 2.2 2.2v34c-.1 1.2-1.1 2.2-2.3 2.2zM38.4 35.8c-.8 0-1.4.6-1.4 1.4v34c0 .8.6 1.4 1.4 1.4H60c.8 0 1.4-.6 1.4-1.4v-34c0-.8-.6-1.4-1.4-1.4H38.4z" fill="#00afee"/><path class="st0" d="M46 32.2h6.3c.5 0 .9.4.9.9s-.4.9-.9.9H46c-.5 0-.9-.4-.9-.9 0-.4.4-.9.9-.9z" fill-rule="evenodd" clip-rule="evenodd" fill="#fff"/><path class="st1" d="M52.3 34.5H46c-.7 0-1.3-.6-1.3-1.3s.6-1.3 1.3-1.3h6.3c.7 0 1.3.6 1.3 1.3s-.6 1.3-1.3 1.3zM46 32.6c-.3 0-.6.3-.6.6s.3.6.6.6h6.3c.3 0 .6-.3.6-.6s-.3-.6-.6-.6H46z" fill="#00afee"/><path class="st0" d="M48.4 74.8h1.5c.3 0 .5.2.5.5v1.5c0 .3-.2.5-.5.5h-1.5c-.3 0-.5-.2-.5-.5v-1.5c0-.3.2-.5.5-.5z" fill-rule="evenodd" clip-rule="evenodd" fill="#fff"/><path class="st1" d="M49.9 77.6h-1.5c-.5 0-.9-.4-.9-.9v-1.5c0-.5.4-.9.9-.9h1.5c.5 0 .9.4.9.9v1.5c0 .5-.4.9-.9.9zm-1.5-2.5c-.1 0-.1.1-.1.1v1.5c0 .1.1.1.1.1h1.5c.1 0 .1-.1.1-.1v-1.5c0-.1-.1-.1-.1-.1h-1.5z" fill="#00afee"/><path class="st0" fill-rule="evenodd" clip-rule="evenodd" fill="#fff" d="M40.2 27.1h18V15.8l-2.4-1-3.3 1.7-3.3-2-3.4 2-3.2-1.7-2.4 1z"/><path class="st1" d="M58.5 27.4H39.8V15.6l2.8-1.2 3.2 1.7 3.3-2 3.3 2 3.2-1.7 2.8 1.2v11.8zm-18-.7h17.3V16.1l-2-.9-3.3 1.7-3.3-1.9-3.3 1.9-3.3-1.7-2 .9v10.6z" fill="#00afee"/><path class="st2" d="M49.2 20h7.7c.2 0 .4.2.4.4s-.2.4-.4.4H41.5c-.2 0-.4-.2-.4-.4s.2-.4.4-.4h7.7zm0 4.9h7.7c.2 0 .4.2.4.4s-.2.4-.4.4H41.5c-.2 0-.4-.2-.4-.4s.2-.4.4-.4h7.7zm-.5-2.1h.9c.1 0 .2.1.2.2v.4c0 .1-.1.2-.2.2h-.9c-.1 0-.2-.1-.2-.2V23c-.1-.1.1-.2.2-.2zm3.3 0h.9c.1 0 .2.1.2.2v.4c0 .1-.1.2-.2.2H52c-.1 0-.2-.1-.2-.2V23c0-.1.1-.2.2-.2zm3.3 0h.9c.1 0 .2.1.2.2v.4c0 .1-.1.2-.2.2h-.9c-.1 0-.2-.1-.2-.2V23c0-.1.1-.2.2-.2zm-9.9 0h.9c.1 0 .2.1.2.2v.4c0 .1-.1.2-.2.2h-.9c-.1 0-.2-.1-.2-.2V23c-.1-.1 0-.2.2-.2zm-3.3 0h.9c.1 0 .2.1.2.2v.4c0 .1-.1.2-.2.2h-.9c-.1 0-.2-.1-.2-.2V23c-.1-.1 0-.2.2-.2zm7.1 32.4h9.1c.3 0 .5.2.5.4s-.2.4-.5.4H40c-.3 0-.5-.2-.5-.4s.2-.4.5-.4h9.2zm0 5.7h9.1c.3 0 .5.2.5.4s-.2.4-.5.4H40c-.3 0-.5-.2-.5-.4s.2-.4.5-.4h9.2zm0 8.6h9.1c.3 0 .5.2.5.4s-.2.4-.5.4H40c-.3 0-.5-.2-.5-.4s.2-.4.5-.4h9.2zm-2.3-11.6H48c.1 0 .2.1.2.2v.4c0 .1-.1.2-.2.2h-1.1c-.1 0-.2-.1-.2-.2v-.4s.1-.2.2-.2zm3.4 0h1.1c.1 0 .3.1.3.2v.4c0 .1-.1.2-.3.2h-1.1c-.1 0-.2-.1-.2-.2v-.4c-.1 0 0-.2.2-.2zm3.3 0h1.1c.1 0 .3.1.3.2v.4c0 .1-.1.2-.3.2h-1.1c-.1 0-.2-.1-.2-.2v-.4c-.1 0 .1-.2.2-.2zm-10 0h1.1c.1 0 .2.1.2.2v.4c0 .1-.1.2-.2.2h-1.1c-.1 0-.2-.1-.2-.2v-.4s.1-.2.2-.2zm-3.3 0h1.1c.1 0 .2.1.2.2v.4c0 .1-.1.2-.2.2h-1.1c-.1 0-.2-.1-.2-.2v-.4c-.1 0 0-.2.2-.2zm16.6 0H58c.1 0 .3.1.3.2v.4c0 .1-.1.2-.3.2h-1.1c-.1 0-.2-.1-.2-.2v-.4s.1-.2.2-.2zm-10 5.9H48c.1 0 .2.1.2.2v.4c0 .1-.1.2-.2.2h-1.1c-.1 0-.2-.1-.2-.2V64c0-.1.1-.2.2-.2zm3.4 0h1.1c.1 0 .3.1.3.2v.4c0 .1-.1.2-.3.2h-1.1c-.1 0-.2-.1-.2-.2V64c-.1-.1 0-.2.2-.2zm3.3 0h1.1c.1 0 .3.1.3.2v.4c0 .1-.1.2-.3.2h-1.1c-.1 0-.2-.1-.2-.2V64c-.1-.1.1-.2.2-.2zm-10 0h1.1c.1 0 .2.1.2.2v.4c0 .1-.1.2-.2.2h-1.1c-.1 0-.2-.1-.2-.2V64c0-.1.1-.2.2-.2zm-3.3 0h1.1c.1 0 .2.1.2.2v.4c0 .1-.1.2-.2.2h-1.1c-.1 0-.2-.1-.2-.2V64c-.1-.1 0-.2.2-.2zm16.6 0H58c.1 0 .3.1.3.2v.4c0 .1-.1.2-.3.2h-1.1c-.1 0-.2-.1-.2-.2V64c0-.1.1-.2.2-.2zm-10 2.8H48c.1 0 .2.1.2.2v.4c0 .1-.1.2-.2.2h-1.1c-.1 0-.2-.1-.2-.2v-.4s.1-.2.2-.2zm3.4 0h1.1c.1 0 .3.1.3.2v.4c0 .1-.1.2-.3.2h-1.1c-.1 0-.2-.1-.2-.2v-.4c-.1 0 0-.2.2-.2zm3.3 0h1.1c.1 0 .3.1.3.2v.4c0 .1-.1.2-.3.2h-1.1c-.1 0-.2-.1-.2-.2v-.4c-.1 0 .1-.2.2-.2zm-10 0h1.1c.1 0 .2.1.2.2v.4c0 .1-.1.2-.2.2h-1.1c-.1 0-.2-.1-.2-.2v-.4s.1-.2.2-.2zm-3.3 0h1.1c.1 0 .2.1.2.2v.4c0 .1-.1.2-.2.2h-1.1c-.1 0-.2-.1-.2-.2v-.4c-.1 0 0-.2.2-.2zm16.6 0H58c.1 0 .3.1.3.2v.4c0 .1-.1.2-.3.2h-1.1c-.1 0-.2-.1-.2-.2v-.4s.1-.2.2-.2z" fill-rule="evenodd" clip-rule="evenodd" fill="#00afee"/><path class="st1" d="M49.2 53.3c-4.2 0-7.5-3.4-7.5-7.5s3.4-7.5 7.5-7.5c4.2 0 7.5 3.4 7.5 7.5s-3.4 7.5-7.5 7.5zm0-14.4c-3.7 0-6.8 3-6.8 6.8 0 3.7 3 6.8 6.8 6.8s6.8-3 6.8-6.8c-.1-3.7-3.1-6.8-6.8-6.8z" fill="#00afee"/><path class="st2" d="M49.9 46.8h-1.2v.8h2.1c.2 0 .4.2.4.4s-.2.4-.4.4h-2.1v1c0 .3-.1.6-.2.7-.1.2-.3.2-.5.2s-.4-.1-.5-.2c-.1-.2-.2-.4-.2-.7v-1h-.6c-.2 0-.4-.2-.4-.4s.2-.4.4-.4h.6V43c0-.4.1-.6.2-.8.1-.2.4-.2.6-.2h1.7c.5 0 .9 0 1.2.1.3.1.5.2.7.4.2.2.3.5.5.8.1.3.2.6.2 1 0 .8-.2 1.4-.6 1.8-.4.5-1.1.7-1.9.7zm-.3-3.6h-.9v2.4h.9c.3 0 .6 0 .8-.1.2-.1.4-.2.5-.4.1-.2.2-.4.2-.7 0-.3-.1-.6-.3-.9-.2-.2-.6-.3-1.2-.3z" fill-rule="evenodd" clip-rule="evenodd" fill="#00afee"/></svg>