<svg id="иконки" xmlns="http://www.w3.org/2000/svg" viewBox="0 0 100 100"><style>.st0{fill:#00afee}</style><path class="st0" d="M67.7 71.7H30.1c-.2 0-.4-.2-.4-.4-.1-6.6 2.1-10.8 7.1-13.9 3.2-1.6 5.1-3.5 5.7-5.6.4-1.8-.8-4.3-1.8-5.1-2.4-2.3-3.8-5.5-3.8-8.8 0-6.6 5.4-12 12-12s12 5.4 12 12c0 3.3-1.4 6.5-3.8 8.8-1 .9-2.2 3.3-1.8 5.2.4 1.5 1.4 2.9 3.1 4.1.1.1.2.2.2.3v4.5c0 .6.5 1.2 1.2 1.2h5.8c.1 0 .2.1.3.2 1.5 2.4 2.2 5.4 2.2 9.2 0 .1-.2.3-.4.3zm-37.2-.8h36.9c0-3.4-.6-6-1.9-8.2h-5.6c-1.1 0-1.9-.9-1.9-1.9v-4.4c-1.8-1.3-2.9-2.8-3.3-4.4-.5-2.2.9-4.9 2-5.9 2.3-2.1 3.6-5.1 3.6-8.2 0-6.2-5-11.2-11.2-11.2s-11.2 5-11.2 11.2c0 3.1 1.3 6.1 3.6 8.2 1.1 1 2.5 3.7 2 5.9-.6 2.4-2.6 4.4-6.1 6.1-4.9 2.8-6.9 6.7-6.9 12.8z"/><path class="st0" d="M76.2 61.2H60.4c-.6 0-1.1-.5-1.1-1.1v-9.3c0-.6.5-1.1 1.1-1.1h15.8c.6 0 1.1.5 1.1 1.1v9.3c0 .6-.5 1.1-1.1 1.1zM60.4 50.4c-.2 0-.4.2-.4.4v9.3c0 .2.2.4.4.4h15.8c.2 0 .4-.2.4-.4v-9.3c0-.2-.2-.4-.4-.4H60.4z"/><path class="st0" d="M74.6 50.4h-3.1V46c0-.8-.3-1.6-.9-2.2-.6-.6-1.4-.9-2.2-.9h-.3c-.8 0-1.6.3-2.2.9S65 45.2 65 46v4.3h-3V46c0-1.6.6-3.2 1.8-4.3 1.2-1.2 2.7-1.8 4.3-1.8h.3c1.6 0 3.2.6 4.3 1.8 1.2 1.2 1.8 2.7 1.8 4.3v4.4zm-2.3-.8h1.6V46c0-1.4-.6-2.8-1.6-3.8s-2.4-1.6-3.8-1.6h-.3c-1.4 0-2.8.6-3.8 1.6s-1.6 2.4-1.6 3.8v3.6h1.6V46c0-1 .4-2 1.1-2.7s1.7-1.1 2.7-1.1h.3c1 0 2 .4 2.7 1.1.7.7 1.1 1.7 1.1 2.7v3.6z"/></svg>