<svg id="иконки" xmlns="http://www.w3.org/2000/svg" viewBox="0 0 100 100"><style>.st0,.st1{fill:#00afee}.st1{fill-rule:evenodd;clip-rule:evenodd}</style><path class="st0" d="M34.5 61.3H17.9c-1.2 0-2.2-1-2.2-2.2V31.4c0-1.2 1-2.2 2.2-2.2h45.2c1.2 0 2.2 1 2.2 2.2v10.2H35.9c-.8 0-1.5.7-1.5 1.5v18.2zM17.9 30c-.8 0-1.4.6-1.4 1.4v27.7c0 .8.6 1.4 1.4 1.4h15.9V43.1c0-1.2 1-2.2 2.2-2.2h28.6v-9.5c0-.8-.6-1.4-1.4-1.4H17.9z"/><path class="st1" d="M17.1 36.9h46.8v4.3h-28c-.9 0-1.5.8-1.7 1.3H17.1v-5.6zm3.3 9.4h13.7v2.2H20.4c-.5 0-.9-.4-.9-.9v-.4c0-.4.4-.9.9-.9z"/><path class="st0" d="M82.9 75H37.7c-1.2 0-2.2-1-2.2-2.2V45.1c0-1.2 1-2.2 2.2-2.2h45.2c1.2 0 2.2 1 2.2 2.2v27.7c0 1.2-1 2.2-2.2 2.2zM37.7 43.6c-.8 0-1.4.6-1.4 1.4v27.7c0 .8.6 1.4 1.4 1.4h45.2c.8 0 1.4-.6 1.4-1.4V45.1c0-.8-.6-1.4-1.4-1.4H37.7z"/><path class="st0" d="M47.8 56h-6.7c-.7 0-1.2-.5-1.2-1.2v-5.1c0-.7.5-1.2 1.2-1.2h6.7c.7 0 1.2.5 1.2 1.2v5.1c.1.7-.5 1.2-1.2 1.2zm-6.7-6.8c-.3 0-.5.2-.5.5v5.1c0 .3.2.5.5.5h6.7c.3 0 .5-.2.5-.5v-5.1c0-.3-.2-.5-.5-.5h-6.7zm25.8 8.9c-3.3 0-6.1-2.7-6.1-6.1s2.7-6.1 6.1-6.1S73 48.7 73 52s-2.8 6.1-6.1 6.1zm0-11.4c-2.9 0-5.3 2.4-5.3 5.3s2.4 5.3 5.3 5.3 5.3-2.4 5.3-5.3-2.4-5.3-5.3-5.3z"/><path class="st0" d="M74.6 58.1c-3.3 0-6.1-2.7-6.1-6.1s2.7-6.1 6.1-6.1 6.1 2.7 6.1 6.1-2.7 6.1-6.1 6.1zm0-11.4c-2.9 0-5.3 2.4-5.3 5.3s2.4 5.3 5.3 5.3 5.3-2.4 5.3-5.3-2.3-5.3-5.3-5.3zM48.3 67.6h-8.4c-.4 0-.7-.3-.7-.7V65c0-.4.3-.7.7-.7h8.4c.4 0 .7.3.7.7v2c0 .3-.3.6-.7.6zM40 65.1V67l8.4-.1-.1-1.9-8.3.1zm-.1 0zm19.2 2.5h-8.4c-.4 0-.7-.3-.7-.7V65c0-.4.3-.7.7-.7h8.4c.4 0 .7.3.7.7v2c0 .3-.3.6-.7.6zm-8.4-2.5V67l8.4-.1L59 65l-8.3.1zm0 0zm19.2 2.5h-8.4c-.4 0-.7-.3-.7-.7V65c0-.4.3-.7.7-.7h8.4c.4 0 .7.3.7.7v2c0 .3-.3.6-.7.6zm-8.4-2.5V67l8.4-.1-.1-1.9-8.3.1zm-.1 0zm19.3 2.5h-8.4c-.4 0-.7-.3-.7-.7V65c0-.4.3-.7.7-.7h8.4c.4 0 .7.3.7.7v2c-.1.3-.4.6-.7.6zm-8.4-2.5V67l8.4-.1-.1-1.9-8.3.1zm-.1 0z"/></svg>