<svg id="иконки" xmlns="http://www.w3.org/2000/svg" viewBox="0 0 100 100"><style>.st0{fill:#00afee}</style><path class="st0" d="M57.9 54.6H10.2c-1.3 0-2.3-1-2.3-2.3V30c0-1.3 1-2.3 2.3-2.3H58c1.3 0 2.3 1 2.3 2.3v22.2c0 1.3-1.1 2.4-2.4 2.4zM10.2 28.4c-.9 0-1.6.7-1.6 1.6v22.2c0 .9.7 1.6 1.6 1.6H58c.9 0 1.6-.7 1.6-1.6V30c0-.9-.7-1.6-1.6-1.6H10.2z"/><path class="st0" d="M90.3 65.1h-6.8v-.3c-.6-3.9-4-6.8-7.9-6.8-3.9 0-7.4 2.9-7.9 6.8v.3H34v-.3c-.6-3.9-4-6.8-7.9-6.8s-7.4 2.9-7.9 6.8v.3H9.7c-1.1 0-2-.9-2-2v-5.7c0-1.1.9-2 2-2h51.8V28.6c0-.8.7-1.5 1.5-1.5h16.2c1.1 0 2 .6 2.4 1.6L87.7 45l3.6 3.2c.7.6 1 1.4 1 2.3v12.7c0 .5-.2 1-.6 1.4-.3.3-.8.5-1.4.5zm-6.2-.7h6.2c.3 0 .6-.1.9-.4.2-.2.4-.5.4-.9V50.4c0-.7-.3-1.3-.8-1.7l-3.7-3.4L80.8 29c-.3-.7-.9-1.1-1.7-1.1H63c-.4 0-.7.3-.7.7v27.6H9.7c-.7 0-1.2.6-1.2 1.2v5.7c0 .7.6 1.2 1.2 1.2h7.8c.8-4.1 4.4-7.2 8.6-7.2s7.9 3.1 8.6 7.2h32.2c.8-4.1 4.4-7.2 8.6-7.2s7.9 3.1 8.6 7.3zM83 45.5H66V32.2h12.5L83 45.5zm-16.2-.7H82l-4-11.9H66.8v11.9z"/><path class="st0" d="M26.1 72.9c-3.8 0-6.9-3.1-6.9-6.9s3.1-6.9 6.9-6.9S33 62.2 33 66s-3.1 6.9-6.9 6.9zm0-13.1c-3.4 0-6.2 2.8-6.2 6.2 0 3.4 2.8 6.2 6.2 6.2s6.2-2.8 6.2-6.2c-.1-3.5-2.8-6.2-6.2-6.2zm49.4 13.1c-3.8 0-6.9-3.1-6.9-6.9s3.1-6.9 6.9-6.9c3.8 0 6.9 3.1 6.9 6.9s-3.1 6.9-6.9 6.9zm0-13.1c-3.4 0-6.2 2.8-6.2 6.2 0 3.4 2.8 6.2 6.2 6.2s6.2-2.8 6.2-6.2c0-3.5-2.8-6.2-6.2-6.2zm-56-16.5v1.1h-4.2c0-.4.2-.8.4-1.2.2-.4.7-.9 1.3-1.5.5-.5.9-.8 1-1 .2-.2.2-.5.2-.7 0-.3-.1-.5-.2-.6-.1-.1-.3-.2-.6-.2-.2 0-.4.1-.6.2-.1.1-.2.4-.3.7l-1-.1c.1-.7.3-1.1.7-1.4.4-.3.8-.4 1.4-.4.6 0 1.1.2 1.4.5.3.3.5.7.5 1.2 0 .3 0 .5-.2.8-.1.3-.3.5-.5.8-.1.2-.4.4-.8.8-.4.3-.6.6-.7.7-.1.1-.2.2-.2.3h2.4zm.9-.5v-1.2h2.3v1.2h-2.3zm2.8 0l1.2-.1c0 .3.1.5.3.6s.4.2.6.2c.2 0 .5-.1.6-.3.2-.2.3-.5.3-.9s-.1-.7-.3-.9c-.2-.2-.4-.3-.7-.3-.3 0-.6.2-.9.5l-1-.1.6-3.2H27v1.1h-2.2l-.2 1.1c.3-.1.5-.2.8-.2.5 0 1 .2 1.3.6s.5.9.5 1.5c0 .5-.1 1-.4 1.4-.4.5-1 .8-1.7.8-.6 0-1-.2-1.4-.5s-.4-.7-.5-1.3zm8-4.6h4.3v5.2h.5v2.4h-1v-1.4h-3.9v1.4h-1v-2.4h.5c.3-.5.4-1.1.5-1.8.1-.7.1-1.6.1-2.7v-.7zm1.2 1.1c0 1.9-.2 3.3-.5 4.1h2.4v-4.1h-1.9zm4.4 5.1v-6.2h1.3v2.4h2.4v-2.4h1.2v6.2h-1.2v-2.7h-2.4v2.7h-1.3zm6.3 0v-6.2h4.6v1h-3.3v1.4h3.1v1h-3.1v1.7h3.5v1h-4.8zm5.8-6.2H50v4.1l2.5-4.1h1.2v6.2h-1.2v-4l-2.5 4h-1.3v-6.2zm3.2-1.5h.6c0 .4-.2.7-.4.9-.2.2-.5.3-.9.3s-.7-.1-.9-.3c-.2-.2-.4-.5-.4-.9h.6c0 .2.1.4.2.5.1.1.3.2.5.2s.4-.1.5-.2c.1-.1.1-.3.2-.5z"/></svg>