<svg id="Layer_1" xmlns="http://www.w3.org/2000/svg" viewBox="0 0 119.4 33.4"><style>.st0,.st1{fill-rule:evenodd;clip-rule:evenodd;fill:#4a7eab}.st1{fill:#375a7d}</style><path class="st0" d="M98.5 5.2c-3.2 0-5.6.8-7.6 1.2l-.6 4.8c1-.5 4-1.3 6.5-1.4 2.5-.1 4 .5 3.4 2.6-7.4 0-12.4 1.5-13.4 6.3-1.5 8.2 7.6 8 11.1 4.4l-.4 2h6.6L107 12c1.1-5.5-3.9-6.9-8.5-6.8zm.4 13.4c-.4 1.7-1.8 2.5-3.4 2.6-1.5.1-2.8-1.2-1.8-2.7.7-1.3 2.8-1.6 4-1.6h1.6c-.2.5-.3 1.1-.4 1.7zM112.6 0l-5.5 25.1h6.8L119.4 0h-6.8zM81.8.1H69.5l-5.4 25h7.1l1.8-8.3h5.1c5 0 9.1-3 10.2-8.2 1.3-5.9-3-8.5-6.5-8.5zm-.2 8.5c-.4 1.9-2.4 3.4-4.2 3.4h-3.3l1.5-6.8h3.5c1.8 0 2.9 1.5 2.5 3.4z" fill-rule="evenodd" clip-rule="evenodd" fill="#4a7eab"/><path class="st1" d="M34.2 5.2c-3.1 0-5.6.8-7.4 1.2l-.6 4.8c.9-.5 3.8-1.3 6.3-1.4 2.5-.1 3.9.5 3.5 2.6-7.3 0-12.2 1.5-13.3 6.3-1.4 8.2 7.5 8 10.9 4.4l-.4 2h6.6L42.6 12c1.2-5.5-3.9-6.9-8.4-6.8zm.5 13.4c-.4 1.7-1.8 2.5-3.5 2.6-1.4.1-2.7-1.2-1.7-2.7.7-1.3 2.8-1.6 3.9-1.6h1.7c-.2.5-.4 1.1-.4 1.7zM45.5 5.5h6.6l1.1 11.7 6.4-11.7h6.8L50.8 33.4h-7.4l4.8-8.2-2.7-19.7zM17.8.1H5.5L0 25.1h7.2L9 16.8h5.2c4.9 0 9.1-3 10.2-8.2 1.2-5.9-3-8.5-6.6-8.5zm-.3 8.5c-.4 1.9-2.3 3.4-4.1 3.4H10l1.5-6.8H15c1.9 0 3.1 1.5 2.5 3.4z" fill-rule="evenodd" clip-rule="evenodd" fill="#375a7d"/></svg>