<svg xmlns="http://www.w3.org/2000/svg" viewBox="0 0 39.8 8.8"><path d="M37.6.2H33v8.4h1.9V6h2.7c1.5 0 2.3-1.3 2.3-2.8-.1-1.7-.6-3-2.3-3zm-.7 4.2h-2V1.9H37c.5 0 .8.4.8 1.3-.1.8-.4 1.2-.9 1.2zM0 4.3h3.1v1.8H0zm13.2 1.6c0 2.2-.8 2.8-3.3 2.8-.9 0-1.8 0-2.7-.2l.3-1.7c.7.1 1.4.2 2 .2 1.4 0 1.6-.1 1.6-1 0-.8-.2-1-1.6-1-.7 0-1.3 0-2 .1V.2h5.4v1.7H9.4v1.4h.8c2.3 0 3 .7 3 2.6zM17.7 0c-2.1 0-3.2.9-3.2 4.3s1.1 4.5 3.2 4.5 3.2-1 3.2-4.5C20.9.9 19.8 0 17.7 0zm0 7c-1.1 0-1.3-.3-1.3-2.7 0-2.3.2-2.5 1.3-2.5S19 2 19 4.3 18.8 7 17.7 7zm7.5-7C23.1 0 22 .9 22 4.3s1.1 4.5 3.2 4.5 3.2-1 3.2-4.5C28.4.9 27.3 0 25.2 0zm0 7c-1.1 0-1.3-.3-1.3-2.7 0-2.3.2-2.5 1.3-2.5s1.3.3 1.3 2.5c0 2.3-.2 2.7-1.3 2.7z" fill="#fff"/></svg>