<svg id="Слой_1" xmlns="http://www.w3.org/2000/svg" viewBox="0 0 29.9 36.9"><style>.st0{fill:#28abe2}</style><path class="st0" d="M29.1 36.9H.8c-.7-.3-.9-.9-.8-1.7v-2c.1-1.8.2-3.7.4-5.5.1-.6.3-1.2.4-1.8.5-1.4 1.4-2.5 2.6-3.4.7-.6 1.5-1.1 2.3-1.6.8-.4 1.6-.8 2.4-1.1 1-.5 1.6 0 1.9.8.2.5.5 1 .7 1.4.1.4.3.7.5 1 .5 1.1 1.1 2.2 1.6 3.3.2.4.3.7.5 1.1.5 1 1 1.9 1.6 2.8 0-.1.1-.1.1-.1 1.7-2.9 3.2-6 4.7-9.1.1-.2.2-.4.3-.7.2-.5.6-.7 1.1-.8.3 0 .5.1.7.2 1 .4 1.9.9 2.8 1.4.3.2.5.3.8.5 1 .7 1.9 1.4 2.7 2.3.2.3.4.5.6.8.6 1.2.9 2.6 1.1 4 0 .5 0 .9.1 1.4v2.5c0 .8-.6 1.3-1.3 1.2-.5-.1-.9-.4-1-1.1v-1.4c.1-.8 0-1.6 0-2.4-.1-.8-.2-1.5-.5-2.2-.1-.4-.2-.7-.5-1-.7-1-1.7-1.7-2.8-2.3-.2-.2-.5-.3-.8-.4-.3-.2-.6-.3-.9-.5-.2-.1-.2-.1-.3.1-.4.9-.9 1.9-1.3 2.8-.5.9-.9 1.9-1.4 2.8-.1.1-.1.2-.2.3-.8 1.5-1.6 3-2.6 4.4-.5.8-1.2.9-2 .3l-.6-.9c-.6-1.1-1.3-2.1-1.9-3.2-.1-.3-.3-.6-.4-.8-.6-1.2-1.2-2.3-1.8-3.5-.1-.3-.2-.5-.4-.8-.2-.5-.5-1-.7-1.5-.1-.1-.1-.2-.3-.1-1.2.6-2.4 1.2-3.5 2.1-.8.6-1.4 1.3-1.6 2.4-.3 1.2-.4 2.4-.5 3.6-.1.5-.1 1-.1 1.5 0 .8 0 1.6-.1 2.4 0 .2.1.2.2.2h25.8c.5 0 .9.2 1.2.6.2.4.2.8 0 1.2.1.2-.2.4-.5.5zm-7.8-17.7H20c-.9-.2-1.7-.4-2.6-.8h-.2c-.4.1-.9 0-1.3-.2-.3-.2-.5-.5-.6-.7-.1-.4-.2-.7 0-1.1.3-1 1.2-1.4 2.2-1l.6.6c0 .1.1.2.1.2.9.4 1.8.7 2.8.6 1.2-.1 1.8-.7 2.1-2 .1-.7.5-1 1.2-1.1.2 0 .3 0 .5-.1.6-.1 1.1-.4 1.3-1 .5-1.2-.2-2.9-1.6-3.2-.4-.1-.8 0-1.1-.2-.3-.3-.4-.6-.5-1-.2-.9-.6-1.7-1.1-2.4-.2-.3-.4-.6-.6-.8-.8-1-1.8-1.7-3-2.1-.3-.1-.7-.3-1.1-.3-.6-.2-1.1-.2-1.7-.2-1.3 0-2.6.1-3.8.7-1.9.8-3.2 2.2-4 4-.2.3-.3.7-.4 1-.2.6-.6.9-1.2 1-.1 0-.3 0-.4.1-.9 0-1.7.8-1.8 1.8-.4 1.2.1 2.5 1.6 2.6.3 0 .6 0 .9.1.2.2.4.4.6.7.2 1.1-.3 1.7-1.4 1.6h-.2c-.4 0-.8-.1-1.2-.2-1.1-.5-2-1.2-2.4-2.4-.1-.3-.3-.7-.4-1-.1-1.5.3-2.8 1.2-4 .6-.8 1.4-1.3 2.5-1.6.2 0 .3-.1.4-.3C6.7 3.3 9 1.2 12.2.4c2.2-.6 4.4-.6 6.6.2.1 0 .3.1.4.1.3.1.6.3.9.4 1 .6 1.9 1.3 2.7 2.2.2.3.4.5.6.8.7.9 1.2 1.8 1.5 2.8.1.3.4.2.7.3.3.1.5.3.8.4 1.1.7 1.7 1.7 2.1 2.9.1.4.1.8.2 1.2 0 .7-.1 1.4-.5 2-.6 1.1-1.4 1.8-2.6 2.1-.2.1-.3.2-.4.4-.7 1.8-2 2.8-3.9 3z"/><path class="st0" d="M12.9 21.3c-.3-.2-.5-.4-.8-.6-.9-.7-1.7-1.5-2.4-2.5l-.6-.9c-.5-.9-1-1.8-1.2-2.9l-.3-.6c0-.4-.1-.8-.1-1.2v-.2c0-2.2.6-4.1 1.9-5.8 1.1-1.5 2.6-2.4 4.4-2.7.8-.1 1.5-.1 2.3-.1.4.1.8.2 1.1.2 1.2.4 2.2 1 3 1.8.2.2.4.5.6.7.7 1.1 1.2 2.3 1.4 3.7 0 .5.1.9.1 1.4-.1 1-.2 2-.6 3-.2.6-.6.9-1.1 1-.6 0-.9-.2-1.2-.9-.1-.3 0-.6.1-.9l.3-.9c.1-.4.2-.8.2-1.2 0-1.2-.1-2.3-.7-3.3-.3-.2-.5-.5-.7-.7-1-1.1-2.2-1.5-3.6-1.5-.7 0-1.5.1-2.1.5-1.8 1-2.7 2.7-3 4.7-.2 1.5.2 2.9.9 4.2.1.3.3.6.5.9.7 1 1.6 1.9 2.6 2.6.2.2.5.4.8.6.5.4 1 .6 1.5 1 .4.3.6.8.5 1.3s-.5.8-1 .9c-.3 0-.6-.1-.8-.2-.7-.6-1.4-1-2-1.4z"/></svg>