<svg id="макет" xmlns="http://www.w3.org/2000/svg" viewBox="0 0 100 100"><style>.st0{fill:#00afee}</style><path class="st0" d="M49.7 59.3H17.9c-.2 0-.4-.2-.4-.4V27.2c0-.2.2-.4.4-.4h31.8c.2 0 .4.2.4.4V59c0 .1-.2.3-.4.3zm-31.4-.7h31v-31h-31v31z"/><path class="st0" d="M82.1 59.3H50.3c-.2 0-.4-.2-.4-.4V27.2c0-.2.2-.4.4-.4h31.8c.2 0 .4.2.4.4V59c-.1.1-.2.3-.4.3zm-31.4-.7h31v-31h-31v31zm-34.1 5.3h66.8v.8H16.6zm0 8.5h66.8v.8H16.6z"/><path class="st0" d="M50.3 73l-.6-.4 6.7-8.5.6.4z"/><path class="st0" d="M49.3 73l-6.7-8.5.6-.4 6.7 8.5zM65 73l-6.6-8.5.6-.4 6.6 8.5zm-30.4 0l-.6-.4 6.7-8.5.6.4z"/><path class="st0" d="M66 73l-.5-.4 6.6-8.5.6.4zm-32.4 0l-6.7-8.5.6-.4 6.7 8.5zm47.2 0l-6.7-8.5.6-.4 6.7 8.5zm-62 0l-.6-.4 6.7-8.5.6.4zm16.8-8.3H32v-6.1h3.6v6.1zm-2.9-.8h2.1v-4.6h-2.1v4.6zm35.3.8h-3.6v-6.1H68v6.1zm-2.9-.8h2.1v-4.6h-2.1v4.6z"/><path transform="rotate(-45.001 22.577 54.298)" class="st0" d="M22.3 47.7h.5v13.1h-.5z"/><path transform="rotate(-45.001 25.358 51.517)" class="st0" d="M25.1 41h.5v21h-.5z"/><path transform="rotate(-45.001 28.14 48.735)" class="st0" d="M27.9 34.3h.5v28.9h-.5z"/><path transform="rotate(-45.001 30.92 45.954)" class="st0" d="M30.7 27.6h.5v36.7h-.5z"/><path transform="rotate(-45.001 33.702 43.173)" class="st0" d="M33.5 20.7h.5v44.9h-.5z"/><path transform="rotate(-45.001 36.483 40.392)" class="st0" d="M36.2 21.7h.5V59h-.5z"/><path transform="rotate(-45.001 39.265 37.61)" class="st0" d="M39 22.9h.5v29.5H39z"/><path transform="rotate(-45.001 42.046 34.829)" class="st0" d="M41.8 24h.5v21.6h-.5z"/><path transform="rotate(-45.001 44.829 32.048)" class="st0" d="M44.6 25.2h.5v13.7h-.5z"/></svg>