<svg id="макет" xmlns="http://www.w3.org/2000/svg" viewBox="0 0 100 100"><style>.st0{fill:#00afee}</style><path class="st0" d="M40.5 79.5c-.1 0-.1 0-.2-.1L20.7 66.5c-.1-.1-.2-.2-.2-.3l.9-37.2c0-.2.2-.4.4-.4l32.9-1.3 28.2 3.5c.1 0 .2.1.3.2.1.1.1.2.1.3L74 73.8c0 .2-.2.3-.3.3l-33.2 5.4zM21.3 66l19.3 12.7 32.7-5.3 9.1-41.8L54.6 28l-32.5 1.2-.8 36.8z"/><path class="st0" d="M48.9 35c-.1 0-.1 0 0 0l-27.1-5.7.2-.7 27 5.7 33.9-3.5.1.7L48.9 35z"/><path transform="rotate(-79.351 44.676 56.875)" class="st0" d="M22.1 56.5h45.2v.8H22.1z"/><path transform="rotate(-79.333 57.073 55.226)" class="st0" d="M34.9 54.9h44.4v.7H34.9z"/><path class="st0" d="M57.9 72.2c-.1 0-.2 0-.3-.1-.1-.1-.1-.2-.1-.3l5.1-26.5c0-.2.2-.3.3-.3l13.6-1.7c.1 0 .2 0 .3.1.1.1.1.2.1.3l-5.7 26c0 .1-.2.3-.3.3l-13 2.2zm5.4-26.5l-4.9 25.7 12.2-2.1L76 44.1l-12.7 1.6zM45.7 76.2c-.1 0-.2 0-.3-.1-.1-.1-.1-.2-.1-.3l.8-5.7c0-.2.2-.3.4-.3l3.9-.1c.1 0 .2 0 .3.1.1.1.1.2.1.3l-.8 5.6c0 .2-.2.3-.3.3l-4 .2zm1.1-5.8l-.7 5 3.1-.2.7-4.9-3.1.1zM40 28.6c-.1 0-.2 0-.3-.1-.1-.1-.1-.2-.1-.3v-5.3c0-.2.2-.4.4-.4h6.4c.2 0 .4.2.4.4V28c0 .2-.2.4-.4.4l-6.4.2zm.4-5.3v4.6l5.6-.2v-4.4h-5.6z"/></svg>