<svg id="макет" xmlns="http://www.w3.org/2000/svg" viewBox="0 0 100 100"><style>.st0{fill:#00afee}</style><path class="st0" d="M83.3 72.6H16.8c-1.3 0-2.4-1.1-2.4-2.4V29.7c0-1.3 1.1-2.4 2.4-2.4h66.5c1.3 0 2.4 1.1 2.4 2.4v40.6c-.1 1.3-1.1 2.3-2.4 2.3zM16.8 28.1c-.9 0-1.6.7-1.6 1.6v40.6c0 .9.7 1.6 1.6 1.6h66.5c.9 0 1.6-.7 1.6-1.6V29.7c0-.9-.7-1.6-1.6-1.6H16.8z"/><path class="st0" d="M79.5 66.5h-59c-.7 0-1.3-.6-1.3-1.3v-31c0-.7.6-1.3 1.3-1.3h58.9c.7 0 1.3.6 1.3 1.3v31c.1.8-.5 1.3-1.2 1.3zm-59-32.9c-.3 0-.6.2-.6.6v31c0 .3.2.6.6.6h58.9c.3 0 .6-.2.6-.6v-31c0-.3-.2-.6-.6-.6H20.5z"/><path class="st0" d="M72.6 58.3h-9.2v-.8h9.2v.8zm-11.2 0h-10v-.8h10v.8zm-12 0h-10v-.8h10v.8zm-12 0h-10v-.8h10v.8zm-7.1-5l-1 .7-1-.7v-4.7l1-.8 1 .8v4.7zm.1-6.2l-1 .8-1-.8v-4.6l1-.8 1 .8v4.6zm5.8 6.4l1 .8-1 .8h-5.7l-.9-.8.9-.8h5.7zm.1-12.9l1 .8-1 .8h-5.7l-1-.8 1-.8h5.7zm2.2 12.7l-1 .7-1-.7v-4.7l1-.8 1 .8v4.7zm.1-6.2l-1 .8-1-.8v-4.6l1-.8 1 .8v4.6zm2.7.7l1 .8v4.6l-2 1.5v-6.2l1-.7zm.1-7.2l1 .8v5.7l-1 .8-1-.8v-5.7l1-.8zm8.1 13.7l-1 .8h-7.9l2-1.5h5.9l1 .7zm2.8-6.2l1 .8v4.4l-2 1.6V49l1-.9zm1-1.3l-1 .8-1-.8v-5.9l2 1.5v4.4zm6.2 6.7l1 .8-1 .8h-7.9l2-1.5h5.9zm1.1-12.1l-1 .8h-5.9l-2-1.5h7.9l1 .7zm-1.1 5.7l1 .8-1 .8h-5.9l-1-.8 1-.8h5.9zm3.8.7l1 .8v4.6l-2 1.5v-6.2l1-.7zm1-.7l-1 .8-1-.8v-6.2l2 1.5v4.7zm5.8 6.4l1 .8-1 .8h-7.6l2-1.5h5.6zm1.1-12.1l-1 .8h-5.6l-2-1.5h7.6l1 .7zm.3 6.4l1 .8v4.6l-1 .8-1-.8v-4.6l1-.8zm.1-6.1l1 .8v4.6l-1 .8-1-.8v-4.6l1-.8z"/></svg>