<svg id="макет" xmlns="http://www.w3.org/2000/svg" viewBox="0 0 100 100"><style>.st0{fill:#00afee}</style><path class="st0" d="M52.7 59.4h-.1c-.2-.1-.3-.2-.2-.4l.4-3.2-5.9-7.8c-.3-.3-.4-.8-.4-1.2 0-.5.3-.9.6-1.2l2.3-1.7c.8-.5 1.8-.4 2.3.4l5.8 7.8 3.2.6c.2 0 .3.2.3.3 0 .2-.1.3-.2.4l-2.6 1-1.2 1.8c0 .1-.1.1-.2.2l-2.2.6-1.6 2.2c-.1.1-.2.2-.3.2zm-5.1-13.2c-.2.1-.3.4-.3.7 0 .3 0 .5.2.7l5.9 7.9c.1.1.1.2.1.3l-.2 1.9.9-1.2c0-.1.1-.1.2-.1l2.2-.7 1.2-1.9c0-.1.1-.1.2-.1l1.4-.5-2-.4c-.1 0-.2-.1-.2-.1l-5.9-7.9c-.3-.4-.8-.5-1.3-.2l-2.4 1.6zm7.4-4.1h-.1c-.2 0-.5-.2-.6-.4l-2.5-3.2c-.1-.1-.1-.2-.1-.4s.1-.5.3-.7l6.1-4.5c.1-.1.4-.2.6-.2.2 0 .5.2.6.4l2.5 3.2c.1.1.2.4.2.6 0 .2-.2.5-.4.6l-6 4.5c-.2 0-.4.1-.6.1zm-2.4-4.2v.1l2.5 3.3 6.2-4.5-2.5-3.4-6.2 4.5zm7.5 10.7c-.1 0-.1 0 0 0-.3 0-.6-.2-.8-.5l-2.5-3.3c-.2-.4-.2-.8.1-1.1l6.2-4.5c.4-.2.8-.2 1.1.1l2.5 3.4c.2.4.2.8-.1 1.1l-6.1 4.5c-.1.2-.3.3-.4.3zm3.6-8.8c-.1 0-.1 0 0 0l-6.2 4.5v.1l2.5 3.2c.1.1.1.2.2.2l6.1-4.5v-.1l-2.6-3.4zm.6-4.8c-.2 0-.4-.1-.6-.3l-2.5-3.3c-.2-.4-.2-.8.1-1.1l6.1-4.5c.3-.2.5-.2.7-.1.2.1.4.2.5.4l2.5 3.2c.2.4.2.8-.1 1.1l-6.1 4.5c-.2.1-.4.1-.6.1zm3.6-8.6l-6.1 4.5v.1l2.5 3.2h.1l6-4.5v-.1l-2.5-3.2c.1 0 .1 0 0 0zm1.4 15.2h-.1c-.2 0-.5-.2-.6-.4L66.1 38c-.1-.1-.2-.4-.2-.6 0-.2.2-.5.4-.6l6-4.5c.1-.1.4-.2.6-.2.2 0 .5.2.6.4l2.5 3.2c.1.1.1.2.1.4s-.1.5-.3.7l-6.1 4.5c0 .2-.2.3-.4.3zm3.7-8.7l-6.2 4.5 2.5 3.4 6.2-4.5v-.1L73 32.9zm-36.7 23c-.2 0-.4-.1-.6-.3l-2.5-3.3c-.2-.4-.2-.8.1-1.1l6.1-4.5h.1c.2-.1.5-.1.7-.1.2.1.3.2.4.3l2.5 3.2c.2.4.2.8-.1 1.1l-6.1 4.5c-.2.2-.4.2-.6.2zm3.6-8.6l-6.1 4.5v.1l2.5 3.2h.1l6-4.5v-.1L40 47.3h-.1zm1.4 15.2h-.1c-.2 0-.5-.2-.6-.4l-2.5-3.2c-.1-.1-.2-.4-.2-.6 0-.2.2-.5.4-.6l6-4.5c.1-.1.4-.2.6-.2.2 0 .5.2.6.4l2.5 3.2c.2.4.2.9-.2 1.1l-6.1 4.5c0 .2-.2.3-.4.3zm3.7-8.7l-6.2 4.5 2.5 3.4 6.2-4.5v-.1L45 53.8zm-18 9h-.1c-.2 0-.5-.2-.6-.4l-2.5-3.1c-.2-.4-.2-.9.1-1.2l6.1-4.5c.1-.1.4-.2.6-.2.2 0 .5.2.6.4l2.5 3.2c.1.1.2.4.2.6 0 .2-.2.5-.4.6l-6 4.5c-.1 0-.3.1-.5.1zm-2.4-4.2c-.1.1 0 .2 0 .3L27 62l6.2-4.5-2.5-3.4-6.1 4.5zM32 69.3h-.2c-.1 0-.3-.2-.4-.5l-2.5-3.3c-.2-.4-.2-.8.1-1.1l6.1-4.5c.4-.2.8-.2 1.1.1l2.5 3.4c.2.4.2.8-.1 1.1L32.5 69c-.2.2-.3.3-.5.3zm3.7-8.8c-.1 0-.1 0 0 0L29.5 65v.1l2.5 3.2s0 .1.1.1l.2.3-.2-.3 6.1-4.5v-.1l-2.5-3.3zM55 65.6c-.2 0-.4-.2-.4-.4s.2-.4.4-.4c2.3 0 4.5-.8 6.5-2.2 1.9-1.4 3.3-3.3 4.1-5.6.1-.2.3-.3.5-.2.2.1.3.3.2.5-.9 2.5-2.3 4.5-4.3 6-2.1 1.5-4.5 2.3-7 2.3zm.4 4.1c-.2 0-.4-.2-.4-.4s.2-.4.4-.4c3.1-.1 6.1-1.1 8.7-3 2.5-1.8 4.4-4.4 5.4-7.4.1-.2.3-.3.5-.2.2.1.3.3.2.5-1 3.1-3 5.9-5.6 7.8-2.8 1.9-5.9 3-9.2 3.1zm.4 4.7c-.2 0-.4-.2-.4-.4s.1-.4.4-.4c4.2-.2 8.1-1.6 11.2-3.9 3.3-2.5 5.7-5.8 7-9.6.1-.2.3-.3.5-.2.2.1.3.3.2.5-1.3 3.9-3.8 7.4-7.2 10-3.3 2.4-7.3 3.8-11.7 4z"/></svg>