<svg id="макет" xmlns="http://www.w3.org/2000/svg" viewBox="0 0 100 100"><style>.st0,.st1{fill:#00afee}.st1{fill-rule:evenodd;clip-rule:evenodd}</style><path class="st0" d="M67.1 69.3H19.7c-1.4 0-2.7-.7-3.5-1.9s-.9-2.6-.4-3.9l12.3-29.6c.8-1.9 2.6-3.1 4.7-3.1h47.4c1.4 0 2.7.7 3.5 1.9.8 1.2.9 2.6.4 3.9L71.8 66.2c-.8 1.9-2.6 3.1-4.7 3.1zM32.9 31.5c-1.8 0-3.3 1-4 2.6L16.6 63.7c-.5 1.1-.3 2.2.3 3.2s1.7 1.5 2.9 1.5h47.4c1.8 0 3.3-1 4-2.6l12.3-29.6c.5-1.1.3-2.2-.3-3.2-.7-1-1.7-1.5-2.9-1.5H32.9z"/><path class="st1" d="M32.2 49.6L38 37.8h9.9l-1 2h-7.2l-1.3 2.6h6.7l-1 2h-6.7l-1.6 3.2h7.5l-1 2H32.2zm11.2 0h3.2l4.9-4 1 4h3.2l-1.6-6.2 7-5.7H58l-4.4 3.5-.9-3.5h-3.2l1.4 5.7-7.5 6.2zm19.5-11.8h4.9c1.1 0 1.9.1 2.4.2.7.2 1.2.6 1.5 1.1.3.5.4 1.2.3 1.9-.1.8-.4 1.7-.9 2.8-.5 1-1 1.8-1.6 2.5-.8.9-1.6 1.6-2.4 2.1-.7.4-1.4.7-2.4.9-.7.2-1.5.3-2.5.3h-5.1l5.8-11.8zm1.8 2h1.2c1.1 0 1.8 0 2.2.1.5.1.8.3 1 .6.2.3.3.7.2 1.1-.1.5-.3 1.2-.8 2.1-.4.9-.9 1.6-1.3 2.2-.4.5-.9.9-1.3 1.1-.4.2-.8.4-1.3.5-.4.1-.9.1-1.7.1h-2l3.8-7.8z" fill-rule="evenodd"/><path class="st1" d="M31.5 60.8l2.2-6.1H35l-.7 4.2 2.3-4.2h1.3l-2.2 6.1h-.8l1.7-4.8-2.6 4.8h-.8L34 56l-1.7 4.8h-.8zm7-3c.2-.6.5-1.1.8-1.6.2-.3.4-.6.7-.8.3-.2.5-.4.7-.5.3-.2.7-.2 1-.2.6 0 1 .3 1.2.8.2.6.1 1.3-.3 2.3-.4 1-.8 1.8-1.4 2.3-.6.6-1.2.8-1.8.8-.6 0-1-.3-1.2-.8-.1-.6 0-1.4.3-2.3zm.9-.1c-.3.7-.3 1.2-.2 1.6.1.4.3.5.6.5s.7-.2 1-.5c.3-.4.6-.9.9-1.6.3-.7.3-1.2.2-1.6-.1-.3-.3-.5-.7-.5-.4 0-.7.2-1 .5-.3.4-.5.9-.8 1.6zm6.2-3h1.6c.4 0 .6 0 .8.1.2.1.4.3.4.6.1.3.1.6 0 1 0 .4-.2.9-.4 1.4-.2.5-.4.9-.6 1.3-.3.4-.5.8-.8 1.1-.2.2-.5.4-.8.5-.2.1-.5.1-.8.1h-1.6l2.2-6.1zm.5 1l-1.5 4h.6c.2 0 .4 0 .5-.1.2 0 .3-.1.4-.3.1-.1.3-.3.4-.6.2-.3.3-.6.5-1.1.2-.5.3-.8.3-1.1v-.6c-.1-.1-.1-.2-.3-.3-.1 0-.3-.1-.7-.1h-.2v.2zm5-1h.9L50.7 58c-.2.5-.3.9-.3 1-.1.2 0 .5 0 .6.1.2.2.2.5.2.2 0 .4-.1.6-.2.2-.1.3-.3.4-.5.1-.2.2-.6.4-1l1.2-3.4h.9l-1.2 3.2c-.3.7-.5 1.2-.6 1.5-.2.3-.3.6-.5.8-.2.2-.4.4-.7.5-.3.1-.5.2-.9.2s-.7-.1-.8-.2c-.2-.1-.3-.3-.3-.5v-.7c.1-.3.2-.9.5-1.5l1.2-3.3zm3.3 6.1h3l.4-1h-2.1l1.8-5h-.9l-2.2 6zm4.8 0l2.2-6.1h3.1l-.4 1h-2.3l-.5 1.4h2.1l-.4 1h-2l-.6 1.6h2.4l-.4 1h-3.2z"/></svg>