<svg id="макет" xmlns="http://www.w3.org/2000/svg" viewBox="0 0 100 100"><style>.st0{fill:#00afee}</style><path class="st0" d="M39.4 71.7c-.1 0-.1 0 0 0l-23-6.2c-.1 0-.2-.1-.2-.2L12.3 57V37.8c0-.2.1-.3.3-.4l29.3-6.3h.1l46.7 3.1c.2 0 .3.2.3.4v8.5c0 .1 0 .2-.1.3l-6.5 5.4v8.7l-1.7 3.6v4.2c0 .2-.1.3-.3.4l-41 6zm-22.7-6.8L39.4 71l40.3-5.9v-4.2l1.7-3.6v-8.6c0-.1 0-.2.1-.3L88 43v-8l-46.2-3.1-28.9 6.2v18.8l3.8 8z"/><path class="st0" d="M34.1 64.4H34l-9.1-2.8-2.3 1.5c-.1.1-.2.1-.3.1l-7.9-1.7.2-.7 7.8 1.7 2.3-1.6c.1-.1.2-.1.3 0l9.1 2.8 1.9-2.3V49c0-.1 0-.2.1-.2l5.5-6.6V31.5h.8v10.8c0 .1 0 .2-.1.2l-5.5 6.6v12.3c0 .1 0 .2-.1.2l-2.1 2.6c-.3.1-.4.2-.5.2z"/><path class="st0" d="M39 45.1h.8v26.2H39zm40.6 16l-.3-21.8-37.2-1v-.8l37.6 1c.2 0 .4.2.4.4l.3 22.1-.8.1z"/><path class="st0" d="M44.3 66c-.1 0-.2 0-.2-.1-.1-.1-.1-.2-.1-.3v-21c0-.2.2-.4.4-.4l13.1-.2c.1 0 .2 0 .3.1.1.1.1.2.1.3v19.1c0 .2-.1.3-.3.4L44.3 66c.1 0 .1 0 0 0zm.4-21.1v20.3l12.4-2V44.8l-12.4.1zm18.2 19.2c-.1 0-.2 0-.2-.1-.1-.1-.1-.2-.1-.3V42.4c0-.2.2-.4.4-.4l2.6-.1 14.2-.1v.8l-16.4.2v20.5l2.1-.3L80 61.4l.1.7-14.6 1.6-2.6.4c.1 0 .1 0 0 0zm-22 12c-.3 0-.6 0-.9-.1-2.2-.3-3.8-1.3-3.6-2.5.1-.8 1-1.4 2.3-1.6l.1.7c-1.1.1-1.6.6-1.7.9-.1.6 1.2 1.4 3 1.6 1.8.2 3.2-.3 3.3-.9.1-.4-.7-1.1-2.1-1.5l.2-.7c1.7.4 2.7 1.3 2.6 2.3-.2 1.2-1.5 1.8-3.2 1.8zm35.4-5.8h-.8c-.8-.1-1.6-.4-2.2-.7-.7-.4-1-.9-.9-1.4.1-.7.8-1.2 2-1.4l.1.7c-.9.1-1.3.5-1.3.7 0 .2.2.5.6.7.5.3 1.2.5 1.9.6.7.1 1.4 0 2-.1.4-.1.7-.4.7-.6 0-.3-.4-.7-1.3-1.1l.3-.7c1.2.4 1.9 1.1 1.8 1.9-.1.5-.5.9-1.2 1.2-.6.2-1.1.2-1.7.2z"/><path class="st0" d="M40.3 74.8h-.4c-.8-.1-1.4-.4-1.5-.8v-2.7c0-.1.1-.2.1-.3s.2-.1.3-.1l.6.2 1.9-.3c.1 0 .2 0 .3.1.1.1.1.2.1.3v2.9c-.1.4-.7.7-1.4.7zm-1.2-1.1c.1.1.4.3.9.4.6.1.9-.1 1-.2v-2.4l-1.5.2h-.2l-.2-.1v2.1zM76 69.6h-.4c-.8-.1-1.4-.4-1.5-.9v-2.4c0-.2.1-.3.3-.4l2.6-.4c.1 0 .2 0 .3.1.1.1.1.2.1.3v2.9c0 .4-.6.8-1.4.8zm-1.2-1.2c.1.1.4.3.9.4.6.1.9-.1 1-.2v-2.3l-1.9.3v1.8z"/></svg>