<svg id="иконка" xmlns="http://www.w3.org/2000/svg" viewBox="0 0 66 57.2"><style>.st0{fill:#fff}</style><path class="st0" d="M63.9 57.2H2.1c-1.2 0-2.1-.9-2.1-2.1V13.2c0-1.2.9-2.1 2.1-2.1h3.5v.8H2.1c-.7 0-1.3.6-1.3 1.3v41.9c0 .7.6 1.3 1.3 1.3h61.8c.7 0 1.3-.6 1.3-1.3V13.2c0-.7-.6-1.3-1.3-1.3h-3.5v-.8h3.5c1.2 0 2.1.9 2.1 2.1v41.9c0 1.2-1 2.1-2.1 2.1z"/><path class="st0" d="M32 55.3c-6.1 0-14.2-4-18.3-15.6l-7.3-23C5.2 12.2 4.6 8.6 4.8 6c.2-2.2.9-2.4 3.3-3l.3-.1C17.5.7 27.7.1 33 0c5.3.1 15.5.7 24.6 2.9l.3.1c2.4.6 3.1.8 3.2 3 .2 2.6-.3 6.2-1.5 10.7l-7.4 22.9c-4.3 12.2-13 16-19.2 15.6-.3.1-.6.1-1 .1zM33 .8c-5.3.1-15.4.6-24.4 2.9l-.4.1c-2.3.5-2.5.6-2.6 2.3-.2 2.5.4 6.1 1.5 10.4l7.4 22.9C18.6 51.2 27 54.9 33 54.5c6 .4 14.4-3.3 18.5-15.1l7.4-22.9c1.2-4.3 1.7-7.9 1.5-10.4-.1-1.7-.4-1.7-2.7-2.3l-.3-.1C48.4 1.4 38.2.9 33 .8z"/><path class="st0" d="M6.3 15l-.2-.7c14.1-4 28-5 41.2-2.9l-.1.7c-13.1-2-26.9-1-40.9 2.9zm53.3 0c-.8-.3-1.7-.5-2.6-.7l.2-.7c.8.2 1.7.5 2.6.8l-.2.6zM5.3 6.6l-.2-.8c19.2-5.7 38-5.7 55.8 0l-.2.7C43 .9 24.3.9 5.3 6.6z"/><path class="st0" d="M52.4 17.6c-3 0-5.5-2.5-5.5-5.5s2.5-5.5 5.5-5.5 5.5 2.5 5.5 5.5-2.5 5.5-5.5 5.5zm0-10.3c-2.6 0-4.7 2.1-4.7 4.7s2.1 4.7 4.7 4.7 4.7-2.1 4.7-4.7c0-2.5-2.1-4.7-4.7-4.7z"/><path class="st0" d="M52.8 13.9c-1.6 0-2.9-1.3-2.9-2.9s1.3-2.9 2.9-2.9 2.9 1.3 2.9 2.9-1.2 2.9-2.9 2.9zm0-5.1c-1.2 0-2.2 1-2.2 2.2s1 2.2 2.2 2.2 2.2-1 2.2-2.2-1-2.2-2.2-2.2zM33 47.9c-6.9 0-12.6-5.6-12.6-12.6S26 22.7 33 22.7c6.9 0 12.6 5.6 12.6 12.6S39.9 47.9 33 47.9zm0-24.4c-6.5 0-11.8 5.3-11.8 11.8 0 6.5 5.3 11.8 11.8 11.8s11.8-5.3 11.8-11.8c0-6.5-5.3-11.8-11.8-11.8z"/><path class="st0" d="M33 46.8c-6.3 0-11.5-5.1-11.5-11.5 0-6.3 5.1-11.5 11.5-11.5 6.3 0 11.5 5.1 11.5 11.5-.1 6.3-5.2 11.5-11.5 11.5zm0-22.2c-5.9 0-10.7 4.8-10.7 10.7S27.1 46 33 46s10.7-4.8 10.7-10.7S38.9 24.6 33 24.6z"/><path class="st0" d="M33 41.8c-3.6 0-6.5-2.9-6.5-6.5s2.9-6.5 6.5-6.5 6.5 2.9 6.5 6.5c-.1 3.6-3 6.5-6.5 6.5zm0-12.2c-3.1 0-5.7 2.6-5.7 5.7S29.8 41 33 41s5.7-2.6 5.7-5.7-2.6-5.7-5.7-5.7z"/><path class="st0" d="M33 40.6c-2.9 0-5.3-2.4-5.3-5.3S30.1 30 33 30s5.3 2.4 5.3 5.3-2.4 5.3-5.3 5.3zm0-9.9c-2.5 0-4.6 2-4.6 4.6s2 4.6 4.6 4.6c2.5 0 4.6-2 4.6-4.6s-2.1-4.6-4.6-4.6z"/><path class="st0" d="M33 39.4c-2.2 0-4-1.8-4-4s1.8-4 4-4 4 1.8 4 4-1.8 4-4 4zm0-7.4c-1.8 0-3.3 1.5-3.3 3.3s1.5 3.3 3.3 3.3c1.8 0 3.3-1.5 3.3-3.3S34.8 32 33 32z"/></svg>