<svg xmlns="http://www.w3.org/2000/svg" viewBox="0 0 45.5 14"><title>51F551A6-3E13-489D-8683-31F3D48CD0DC</title><path class="st0" d="M16 13.8L18.3.2H22l-2.3 13.6H16zM33 .6c-.7-.3-1.8-.6-3.3-.6-3.6 0-6.2 1.8-6.2 4.5 0 2 1.8 3 3.2 3.7 1.4.7 1.9 1.1 1.9 1.7 0 .9-1.1 1.3-2.2 1.3-1.5 0-2.3-.2-3.5-.7l-.5-.2-.5 3c.9.4 2.5.7 4.1.7 3.9 0 6.4-1.8 6.4-4.6 0-1.5-1-2.7-3.1-3.7-1.3-.6-2.1-1-2.1-1.7 0-.6.7-1.2 2.1-1.2 1.2 0 2.1.2 2.8.5l.3.2.6-2.9zm9.5-.4h-2.8c-.9 0-1.5.2-1.9 1.1l-5.5 12.4h3.9s.6-1.7.8-2h4.7l.4 2h3.4L42.5.2zM37.9 9c.3-.8 1.5-3.8 1.5-3.8s.3-.8.5-1.3l.3 1.2s.7 3.2.8 3.9h-3.1zM12.9.2L9.3 9.5l-.4-1.9c-.6-2.2-2.7-4.5-5.1-5.7l3.3 11.9H11L16.8.3 12.9.2z" fill="#004686"/><path class="st1" d="M6 .2H0v.3c4.6 1.1 7.7 3.8 8.9 7.1L7.7 1.4C7.4.5 6.8.3 6 .2z" fill="#ef9b11"/></svg>