<svg id="Слой_1" xmlns="http://www.w3.org/2000/svg" viewBox="0 0 140.1 28.6"><style>.st0{fill:#fff}</style><path class="st0" d="M9.1 2.3H7.5c-.5 0-1 .1-1.4.3-.5.3-.9.6-1.3 1-.4.5-.7 1-.9 1.8-.1.7-.3 1.6-.3 2.6s.1 1.8.4 2.5c.2.7.6 1.2.9 1.7.4.4.8.7 1.3.9.6.1 1.1.2 1.6.2h1.3v-11zM2.9 24.2H.1l5-9.3c-1.5-.7-2.5-1.6-3.1-2.8s-.9-2.6-.9-4.2c0-1.2.2-2.3.5-3.3S2.4 2.8 3 2.2c.6-.7 1.3-1.1 2.1-1.5C5.9.4 6.7.2 7.6.2h4v24H9.1v-8.9H7.5l-4.6 8.9zM131.5 8.3v1.2h3.6v14.4h1.5V9.5h3.6V8.3h-8.7zM126 8c-2.6 0-4.5 3-4.5 8.1s1.5 8.1 4.8 8.1c2.5 0 3.7-1.8 3.7-1.8l-.5-1.2s-1.1 1.7-3.2 1.7c-2.3 0-3.4-2.3-3.4-6.6h7.1c.4-5.5-1.4-8.3-4-8.3zm2.5 7.2h-5.7c.1-3.9 1.5-6 3.1-6s2.9 1.8 2.6 6zm-13.7.3l5.1-7.2h-1.4l-5.2 7.3V8.3h-1.5v15.6h1.4v-8.1l5.4 8.1h1.6l-5.4-8.4zM104.9 8c-1.7 0-2.9 1.4-3.5 2.9l-.1-2.6H100v20.4h1.5v-5.9c.6.8 1.6 1.4 2.8 1.4 2.9 0 4.8-2.8 4.8-8.5 0-4.6-1.6-7.7-4.2-7.7zm-.6 15c-1.4 0-2.3-.6-2.9-1.9v-8.7c.7-1.7 1.8-3.2 3.2-3.2 1.8 0 2.9 2.4 2.9 6.5.1 5-1.2 7.3-3.2 7.3zm-7.7-2v-8.5c0-3.1-1.5-4.5-4-4.5-1.8 0-3.1.8-3.7 1.6l.4 1.4c.8-1.1 2-1.8 3.3-1.8 1.7 0 2.6 1 2.6 3.4v2h-1.7c-3.4 0-5.2 1.7-5.2 5.1 0 2.8 1.5 4.5 3.6 4.5 1.5 0 2.7-.9 3.4-2.4.1 1.1.3 1.7.4 2.1H97c-.2-.6-.4-1.8-.4-2.9zm-1.4-1.1c-.6 1.7-1.6 3.1-3 3.1-1.5 0-2.4-1.3-2.4-3.5 0-2.7 1.2-3.9 3.8-3.9h1.7l-.1 4.3zM83.9 1.7l-3.8 14.1c-.2.6-.4 1.7-.5 2.6h-.1c-.1-.8-.3-2-.5-2.6L75.3 1.7h-1.8v22.1h1.4V8.4c0-1.1 0-2.2-.1-3.3h.1c.2 1 .4 2 .7 3.2l3.3 12.2h1.2l3.3-12.3c.2-.9.5-1.8.7-3.1h.1c-.1 1.1-.1 2.2-.1 3.3v15.5h1.5V1.7h-1.7zm-16 20c-.3.1-.7.3-1.2.4s-.9.2-1.4.2c-1.2 0-2.1-.5-2.7-1.6-.6-1.1-.9-2.6-.9-4.4 0-.8.1-1.6.2-2.4.1-.8.3-1.5.5-2.1s.5-1.1.9-1.5.8-.5 1.2-.5c.4 0 .7.1 1.1.3s.7.5 1 .8l1.3-2.1c-.4-.3-.9-.6-1.5-.8-.5-.2-1.2-.3-1.9-.3-.8 0-1.5.2-2.1.7-.7.4-1.2 1-1.7 1.8s-.9 1.7-1.1 2.8c-.3 1.1-.4 2.4-.4 3.7 0 2.5.5 4.4 1.5 5.7 1 1.3 2.3 2 3.9 2 .8 0 1.4-.1 2-.3.6-.2 1.1-.5 1.6-.8l-.3-1.6zm-13.7-6.3l3.9-7.2h-2.6l-3.4 7-.3.3V8.2h-2.5v16h2.5V16l.3.3 3.8 7.9h2.8l-4.5-8.8zM21 8.2v6.3h-3.7V8.2h-2.5v16h2.5v-7.6H21v7.6h2.5v-16H21zm25.9 7.2c0-2.5-.4-4.4-1.2-5.7s-1.8-1.9-3.1-1.9c-.9 0-1.6.3-2.2.8-.6.5-1.1 1.2-1.5 2s-.7 1.8-.9 2.9-.3 2.2-.3 3.4c0 2.4.5 4.3 1.5 5.7 1 1.3 2.3 2 3.9 2 .8 0 1.5-.1 2.1-.3.6-.2 1.2-.5 1.7-.8l-.3-1.8c-.3.1-.7.3-1.2.4s-1 .2-1.5.2c-1.3 0-2.2-.5-2.8-1.5s-.9-2.3-.9-4.1h6.7v-1.3zm-2.6-.7h-4.1c0-.7.1-1.4.2-2 .1-.6.3-1.1.4-1.6.2-.5.4-.8.7-1 .3-.3.6-.4.9-.4.5 0 .9.3 1.2 1s.5 1.6.6 2.8v.7l.1.5zm-9.4 7.5v-14H28v4.5c0 1.1-.1 2.2-.3 3.3l-.6 3.3c-.4.9-.8 1.9-1.3 2.9h-1v5.1H27v-3.1h6.8v3.1H36v-5.1h-1.1zm-2.5 0H28c.4-.7.8-1.5 1-2.4.3-.9.5-1.9.6-3 .2-1 .3-2.1.3-3.2.1-1.1.1-2.1.1-3.1v-.3h2.3l.1 12z"/></svg>