<svg xmlns="http://www.w3.org/2000/svg" viewBox="0 0 105 62"><path d="M20.8 36.9c.1-.1.2-.3.3-.3.1-.1.3-.1.4 0 .2.1.3.2.3.3l1.3 2.6 2.8.4c.2 0 .3.1.4.2.1.1.1.3.1.4 0 .2-.1.3-.2.4l-2.1 2 .5 2.9c0 .2 0 .3-.1.4-.1.1-.2.2-.4.3-.2 0-.3 0-.4-.1l-2.6-1.3-2.6 1.3c-.1.1-.3.1-.4.1-.2 0-.3-.1-.4-.3.3 0 .2-.2.3-.3l.5-2.9-2.1-2c-.1-.1-.2-.3-.2-.4 0-.2 0-.3.1-.4.1-.1.2-.2.4-.2l2.8-.4 1.3-2.7zm15 0c.1-.1.2-.3.3-.3.1-.1.3-.1.4 0 .2.1.3.2.3.3l1.3 2.6 2.8.4c.2 0 .3.1.4.2.1.1.1.3.1.4 0 .2-.1.3-.2.4l-2.1 2 .5 2.9c0 .2 0 .3-.1.4-.1.1-.2.2-.4.3-.2 0-.3 0-.4-.1l-2.6-1.3-2.6 1.3c-.1.1-.3.1-.4.1-.2 0-.3-.1-.4-.3.3 0 .2-.2.3-.3l.5-2.9-2.1-2c-.1-.1-.2-.3-.2-.4 0-.2 0-.3.1-.4.1-.1.2-.2.4-.2l2.8-.4 1.3-2.7zm16 0c.1-.1.2-.3.3-.3.1-.1.3-.1.4 0 .2.1.3.2.3.3l1.3 2.6 2.8.4c.2 0 .3.1.4.2.1.1.1.3.1.4 0 .2-.1.3-.2.4l-2.1 2 .5 2.9c0 .2 0 .3-.1.4-.1.1-.2.2-.4.3-.2 0-.3 0-.4-.1l-2.6-1.3-2.6 1.3c-.1.1-.3.1-.4.1-.2 0-.3-.1-.4-.3.3 0 .2-.2.3-.3l.5-2.9-2.1-2c-.1-.1-.2-.3-.2-.4 0-.2 0-.3.1-.4.1-.1.2-.2.4-.2l2.8-.4 1.3-2.7zm16 0c.1-.1.2-.3.3-.3.1-.1.3-.1.4 0 .2.1.3.2.3.3l1.3 2.6 2.8.4c.2 0 .3.1.4.2.1.1.1.3.1.4 0 .2-.1.3-.2.4l-2.1 2 .5 2.9c0 .2 0 .3-.1.4-.1.1-.2.2-.4.3-.2 0-.3 0-.4-.1l-2.6-1.3-2.6 1.3c-.1.1-.3.1-.4.1-.2 0-.3-.1-.4-.3.3 0 .2-.2.3-.3l.5-2.9-2.1-2c-.1-.1-.2-.3-.2-.4 0-.2 0-.3.1-.4.1-.1.2-.2.4-.2l2.8-.4 1.3-2.7zm16 0c.1-.1.2-.3.3-.3.1-.1.3-.1.4 0 .2.1.3.2.3.3l1.3 2.6 2.8.4c.2 0 .3.1.4.2.1.1.1.3.1.4 0 .2-.1.3-.2.4l-2.1 2 .5 2.9c0 .2 0 .3-.1.4-.1.1-.2.2-.4.3-.2 0-.3 0-.4-.1l-2.6-1.3-2.6 1.3c-.1.1-.3.1-.4.1-.2 0-.3-.1-.4-.3.3 0 .2-.2.3-.3l.5-2.9-2.1-2c-.1-.1-.2-.3-.2-.4 0-.2 0-.3.1-.4.1-.1.2-.2.4-.2l2.8-.4 1.3-2.7zm1.3-17.5v.6H87v7.1h.7V20h1.8v-.6h-4.4zm-2.9-.1c-1.3 0-2.3 1.5-2.3 4s.8 4 2.5 4c.7 0 1.4-.3 1.9-.9l-.3-.6c-.4.5-1 .8-1.6.8-1.2 0-1.7-1.1-1.8-3.3h3.6c.3-2.6-.6-4-2-4zm1.3 3.5h-2.9c.1-1.9.8-3 1.6-3 .8.1 1.4 1 1.3 3zm-7 .2l2.6-3.6h-.7L75.7 23v-3.6H75v7.7h.7v-4l2.8 4h.8L76.5 23zm-5.1-3.7c-.8.1-1.5.6-1.8 1.4l-.1-1.3h-.7v10.1h.8v-2.9c.3.4.9.7 1.4.7 1.5 0 2.5-1.4 2.5-4.2 0-2.3-.8-3.8-2.1-3.8zm-.3 7.4c-.6 0-1.2-.3-1.5-.9v-4.3c.2-.8.9-1.4 1.7-1.6.9 0 1.5 1.2 1.5 3.2 0 2.4-.7 3.6-1.7 3.6zm-4-1v-4.2c0-1.5-.8-2.2-2.1-2.2-.7 0-1.4.3-1.9.8l.2.7c.4-.5 1-.9 1.7-.8.9 0 1.3.5 1.3 1.7v1h-.9c-1.7 0-2.7.9-2.7 2.5 0 1.4.8 2.2 1.8 2.2.8 0 1.5-.5 1.8-1.2 0 .4.1.7.2 1h.7c0-.5-.1-1-.1-1.5zm-.7-.5c-.1.8-.8 1.4-1.6 1.5-.8 0-1.3-.6-1.3-1.7-.1-.9.5-1.8 1.4-1.9h1.5v2.1zm-5.8-9l-1.9 7c-.1.4-.2.8-.3 1.3h-.1c-.1-.4-.1-.9-.2-1.3l-1.9-7h-.9v10.9h.7v-7.6c0-.5 0-1.1-.1-1.6h.1c.1.5.2 1 .4 1.6l1.7 6h.6l1.7-6.1c.1-.5.2-.9.4-1.5h.1c0 .5-.1 1.1-.1 1.6v7.6h.8V16.2h-1zM52.4 26c-.2.1-.4.1-.6.2-.2.1-.5.1-.7.1-.6 0-1.1-.3-1.4-.8-.3-.7-.5-1.4-.4-2.2 0-.4 0-.8.1-1.2.1-.3.2-.7.3-1s.2-.5.4-.7.4-.3.6-.3c.2 0 .4.1.6.2.2.1.4.2.5.4l.7-1.1c-.2-.2-.5-.3-.8-.4s-.6-.1-.9-.1c-.4 0-.8.1-1.1.3-.4.2-.7.5-.9.9-.3.4-.5.9-.6 1.4-.1.6-.2 1.2-.2 1.8-.1 1 .2 2 .8 2.8.5.6 1.2 1 2 1 .3 0 .7 0 1-.2.3-.1.6-.2.8-.4l-.2-.7zm-7.1-3.1l2-3.5H46l-1.7 3.4-.2.2v-3.6h-1.3v7.9h1.3v-4.1l.2.2 2 3.9h1.4l-2.4-4.4zm-17.1-3.5v3.1h-1.9v-3.1H25v7.9h1.3v-3.8h1.9v3.8h1.3v-7.9h-1.3zm13.3 3.5c.1-1-.1-1.9-.6-2.8s-1.6-1.2-2.5-.7c-.1 0-.1.1-.2.1-.3.3-.6.6-.8 1-.2.5-.4 1-.5 1.5-.1.6-.2 1.1-.2 1.7-.1 1 .2 2 .8 2.8.5.6 1.2 1 2 1 .4 0 .7 0 1.1-.2.3-.1.6-.2.9-.4l-.1-.9c-.2.1-.4.1-.6.2-.2.1-.5.1-.8.1-.6 0-1.1-.2-1.4-.7-.3-.6-.5-1.3-.5-2h3.4v-.7zm-1.3-.3h-2.1c0-.4.1-.7.1-1s.1-.5.2-.8c.1-.2.2-.4.3-.5s.3-.2.5-.2c.3 0 .5.2.6.5.2.4.3.9.3 1.4v.6h.1zm-4.8 3.7v-6.9h-3.6v2.2c0 .5-.1 1.1-.1 1.6-.1.5-.2 1.1-.3 1.6-.1.5-.3 1-.6 1.5h-.5v2.5h1.1v-1.5h3.5v1.5H36v-2.5h-.6zm-1.3 0h-2.3c.2-.4.4-.8.5-1.2.1-.5.3-1 .3-1.5.1-.5.2-1 .2-1.6 0-.5.1-1 .1-1.5v-.2h1.2v6zm-12-9.8h-.8c-.3 0-.5.1-.8.2-.2.1-.5.3-.6.5-.2.3-.4.5-.4.9-.1.4-.2.8-.2 1.3 0 .4.1.8.2 1.2.1.3.3.6.5.8.2.2.4.4.7.5.3.1.5.1.8.1h.7v-5.5h-.1zm-3.2 10.8h-1.4l2.6-4.6c-.7-.3-1.2-.8-1.6-1.4-.3-.6-.5-1.3-.5-2.1 0-.6.1-1.1.3-1.6.2-.4.4-.8.7-1.2.3-.3.7-.6 1.1-.7.4-.2.9-.2 1.3-.2h2v11.8h-1.3v-4.4h-.8l-2.4 4.4z"/></svg>