<svg xmlns="http://www.w3.org/2000/svg" viewBox="0 0 161 32.3"><path d="M39.9 24.8V9h-8v1.5c0 1.1 0 2.3-.1 3.5 0 1.2-.1 2.5-.3 3.7-.2 1.2-.4 2.5-.7 3.7-.3 1.2-.8 2.3-1.3 3.4h-1.1v5.9H31v-3.6h7.9v3.6h2.5v-5.9h-1.5zm-2.8 0H32c.5-.9.9-1.8 1.2-2.7.3-1.1.6-2.2.8-3.4.2-1.2.3-2.4.4-3.6.1-1.2.1-2.4.1-3.5v-.4h2.7l-.1 13.6zm16.7-7.6c.1-2.2-.3-4.5-1.4-6.5-1.1-2-3.5-2.8-5.5-1.7-.2.1-.4.2-.6.4-.7.6-1.4 1.4-1.8 2.3-.5 1-.8 2.1-1 3.3-.2 1.3-.3 2.6-.3 3.9-.1 2.3.4 4.5 1.7 6.5 1 1.5 2.7 2.3 4.4 2.3.8 0 1.7-.1 2.4-.4.7-.2 1.3-.5 2-.9l-.3-2c-.4.2-.9.3-1.4.4-.6.1-1.1.2-1.7.2-1.3.1-2.5-.6-3.2-1.7-.8-1.4-1.1-3-1-4.6h7.7v-1.5zm-3-.8h-4.7c.1-.8.1-1.5.3-2.2.1-.6.3-1.2.5-1.8.2-.4.4-.9.8-1.2.3-.3.7-.4 1.1-.4.7.1 1.2.5 1.4 1.1.4 1 .6 2.1.7 3.2v.9l-.1.4zM24 9v7.2h-4.2V9H17v18.2h2.8v-8.7H24v8.7h2.8V9H24zm38.2 8.2L66.7 9h-3l-3.9 7.9-.3.4V9h-2.8v18.2h2.8v-9.3l.3.4 4.4 9h3.2l-5.2-10.1zM78 24.3c-.4.2-.9.3-1.3.4-.6.2-1.1.3-1.7.3-1.3 0-2.5-.7-3.1-1.8-.7-1.6-1.1-3.3-1-5 0-.9.1-1.8.2-2.7.1-.8.3-1.6.6-2.3.2-.6.6-1.2 1-1.7.3-.4.8-.6 1.3-.6s.9.1 1.3.4c.4.3.8.6 1.1 1L78 9.7c-.5-.4-1.1-.7-1.7-.9-.7-.2-1.4-.3-2.1-.3-.9 0-1.7.3-2.5.7-.8.5-1.5 1.3-2 2.1-.6 1-1 2.1-1.3 3.2-.3 1.5-.4 2.9-.4 4.3-.1 2.3.4 4.6 1.7 6.5 1 1.4 2.7 2.3 4.4 2.3.8 0 1.6-.1 2.3-.4.6-.2 1.3-.5 1.8-.9l-.2-2zM96.3 1.6L92 17.7c-.2.6-.5 2-.6 2.9h-.1c-.1-1-.3-2-.5-2.9L86.4 1.6h-2.1v25.1h1.6V9.2c0-1.3 0-2.5-.1-3.7h.1c.2 1.2.5 2.3.8 3.6L90.5 23h1.4l3.8-14c.3-1 .5-2.1.8-3.5h.1c-.1 1.3-.1 2.5-.1 3.7v17.6h1.7V1.6h-1.9zm14.6 21.9v-9.7c0-3.5-1.7-5.1-4.6-5.1-1.6-.1-3.2.6-4.2 1.8l.5 1.6c.8-1.2 2.3-2 3.8-1.9 1.9 0 3 1.2 3 3.9v2.2h-1.9c-3.9 0-6 2-6 5.8 0 3.2 1.7 5.1 4.1 5.1 1.7 0 3.3-1.1 3.9-2.7.1.8.2 1.6.4 2.4h1.5c-.3-1.2-.5-2.3-.5-3.4zm-1.6-1.2c-.6 1.9-1.8 3.5-3.5 3.5s-2.8-1.4-2.8-3.9c0-3.1 1.4-4.4 4.4-4.4h1.9v4.8zm11.2-13.6c-2 0-3.3 1.6-4.1 3.3l-.2-2.9h-1.5v23.2h1.7v-6.7c.8 1 2 1.6 3.2 1.5 3.3 0 5.6-3.2 5.6-9.7 0-5.1-1.7-8.7-4.7-8.7zm-.7 17.1c-1.4.1-2.8-.8-3.3-2.1v-9.9c.8-1.9 2.1-3.6 3.7-3.6 2.1 0 3.3 2.8 3.3 7.4 0 5.5-1.5 8.2-3.7 8.2zm12-8.5l5.9-8.2h-1.6l-6 8.3V9.1h-1.7v17.7h1.7v-9.2l6.2 9.2h1.8l-6.3-9.5zm12.8-8.6c-3 0-5.2 3.4-5.2 9.2s1.7 9.2 5.5 9.2c1.6 0 3.2-.7 4.2-2l-.5-1.3c-.8 1.2-2.2 1.9-3.6 1.9-2.6 0-3.9-2.6-3.9-7.5h8.1c.5-6.3-1.5-9.5-4.6-9.5zm3 8.2h-6.5c.1-4.4 1.7-6.8 3.6-6.8 1.8 0 3.2 2.1 2.9 6.8zm3.4-7.8v1.4h4.2v16.4h1.7V10.4h4.1V9.1h-10z" fill="#333"/><path d="M10.4 2.3H8.5c-.6 0-1.1.1-1.7.4-.5.2-1 .6-1.4 1.1-.4.6-.8 1.3-1 2-.2.9-.4 1.9-.3 2.9 0 .9.1 1.9.4 2.8.2.7.6 1.3 1.1 1.9.4.5.9.8 1.5 1.1.6.2 1.2.3 1.8.3h1.5V2.3zM3.2 27.2H0l5.8-10.5C4.3 16 3 14.9 2.2 13.4 1.4 12 1 10.3 1.1 8.7c-.1-1.3.2-2.5.6-3.7.3-1.1.9-2 1.6-2.8C4 1.5 4.8.9 5.7.5 6.6.2 7.6 0 8.6 0h4.6v27.2h-2.8V17.1H8.5L3.2 27.2z" fill="red"/></svg>