<svg xmlns="http://www.w3.org/2000/svg" xmlns:xlink="http://www.w3.org/1999/xlink" width="16" height="16" viewBox="0 0 16 16"><defs><path id="2e5ia" d="M41.743 37.144a5.408 5.408 0 0 1-5.404-5.401 5.41 5.41 0 0 1 5.404-5.404 5.413 5.413 0 0 1 5.404 5.404 5.41 5.41 0 0 1-5.404 5.4zm9.061 2.72l-3.846-3.847A6.745 6.745 0 0 0 41.743 25a6.743 6.743 0 1 0 0 13.486 6.707 6.707 0 0 0 4.27-1.525l3.847 3.843a.666.666 0 1 0 .944-.94z"/></defs><g><g transform="translate(-35 -25)"><use fill="#808fa3" xlink:href="#2e5ia"/></g></g></svg>