<svg xmlns="http://www.w3.org/2000/svg" xmlns:xlink="http://www.w3.org/1999/xlink" width="38" height="38" viewBox="0 0 38 38"><defs><path id="n6qta" d="M1048 978c0-10.493 8.507-19 19-19s19 8.507 19 19-8.507 19-19 19-19-8.507-19-19zm26.3-.89c.441 0 .881-.165 1.203-.49a1.761 1.761 0 0 0 0-2.454L1067.5 966l-8.003 8.166a1.761 1.761 0 0 0 0 2.453c.322.328.762.491 1.202.491.44 0 .881-.163 1.202-.49l3.899-3.979v15.928c0 .958.762 1.735 1.7 1.735s1.7-.777 1.7-1.735v-15.928l3.899 3.978c.321.328.761.491 1.202.491z"/></defs><g><g transform="translate(-1048 -959)"><use fill="#0b9af5" xlink:href="#n6qta"/></g></g></svg>