<svg id="dfc26dd0-c6f2-4d9b-ac95-5ce6bd5b491b" data-name="Слой 1" xmlns="http://www.w3.org/2000/svg" width="346.68" height="84.86" viewBox="0 0 346.68 84.86">
  <defs>
    <style>
      .\33 8cf6919-0595-4007-b5dc-84434926559f, .a2a94876-8b0b-49fd-9026-cf6a0575bd84 {
        fill: #fff;
      }

      .a2a94876-8b0b-49fd-9026-cf6a0575bd84 {
        fill-rule: evenodd;
      }

      .\33 8cf6919-0595-4007-b5dc-84434926559f {
        font-size: 19.31px;
        font-family: ArialMT, Arial;
      }
    </style>
  </defs>
  <title>logo</title>
  <path class="a2a94876-8b0b-49fd-9026-cf6a0575bd84" d="M47.19,82.71a57,57,0,0,1-8,1.65,55.58,55.58,0,0,1-7.07.5q-15.28,0-23.9-7.84Q0,69.57,0,57,0,45.36,7.3,38,16,29.22,32.66,29.22a56.83,56.83,0,0,1,7.92.54q1.16.15,5.22.92l1.23.23V45.13a29,29,0,0,0-5.11-1.5,28,28,0,0,0-5.72-.58,14.65,14.65,0,0,0-10.49,3.81,12.76,12.76,0,0,0-4,9.72,14.44,14.44,0,0,0,2.62,8.84q3.77,5.07,12.29,5.07a24.16,24.16,0,0,0,4.31-.39,52.8,52.8,0,0,0,6.3-1.69v14.3Zm59.4-52.57L89.46,70.8a26.48,26.48,0,0,1-5.92,9.14q-5.31,4.92-14,4.92a51.19,51.19,0,0,1-6.76-.5A69.57,69.57,0,0,1,55.64,83V69.41a26.48,26.48,0,0,0,4,1,18.87,18.87,0,0,0,2.92.23,5.82,5.82,0,0,0,2.84-.5,1.64,1.64,0,0,0,.85-1.5c0-.2,0-.53-.08-1A10.7,10.7,0,0,0,65,64.88L47.65,30.14H71.09l7.53,23.29h.31l7.38-23.29ZM155.4,57q0,11.45-7.38,19-8.61,8.83-24.75,8.84a53.68,53.68,0,0,1-7.65-.5,70.83,70.83,0,0,1-7.8-1.65V68.41a40.54,40.54,0,0,0,6.42,1.81,31.74,31.74,0,0,0,6.11.65,16,16,0,0,0,9-2.3A11,11,0,0,0,134,62.19H115.36v-11H134a11.29,11.29,0,0,0-3.45-5.3q-3.85-3.24-10.61-3.23a34.22,34.22,0,0,0-5.49.5,28.24,28.24,0,0,0-6.58,2V30.91l1.16-.23a63.2,63.2,0,0,1,7.49-1.19c2.08-.18,4.16-.27,6.26-.27q12.61,0,20.6,4.84A23.6,23.6,0,0,1,153,45.13,29.43,29.43,0,0,1,155.4,57Zm61.09,26.9H195.9V64.11H182.14V83.94h-20.6V30.14h20.6v18.6H195.9V30.14h20.59v53.8Zm66.4,0H258.3L245.08,61.11h-.3V83.94h-20.6V30.14h20.6V51.28h.3l12.68-21.14H281.2L263.07,55.35l19.82,28.59ZM345.3,57q0,13-7.88,20.4t-22.09,7.42q-14.22,0-22.1-7.42T285.35,57q0-13,7.88-20.4t22.1-7.42q14.21,0,22.09,7.42T345.3,57Zm-21.67,0a29,29,0,0,0-1.23-9.53q-2-5.38-7.07-5.38t-7.07,5.3A29.35,29.35,0,0,0,307,57a29,29,0,0,0,1.23,9.53q2,5.39,7.07,5.38t7.07-5.3A29.35,29.35,0,0,0,323.63,57Z"/>
  <text class="38cf6919-0595-4007-b5dc-84434926559f" transform="translate(0.04 16.57) scale(0.88 1)">ПУБЛИЧНОЕ АКЦИОНЕРНОЕ ОБЩЕСТВО</text>
</svg>
