<svg id="9a8daaad-210d-4153-9483-734350938b9d" data-name="Слой 1" xmlns="http://www.w3.org/2000/svg" width="428.98" height="512" viewBox="0 0 428.98 512">
  <defs>
    <style>
      .\31 1c1cea2-64f3-4ca3-a2e2-aacbbcf0063f {
        fill: #d6f2ff;
      }

      .aa4d2ac4-3384-4fb8-baf5-c23e6c59c576 {
        fill: #8ba9aa;
      }

      .b2d2cba8-0b3f-4c24-92a2-bfa58b972955 {
        fill: #b3d1d4;
      }

      .\39 f6359a7-a354-4e8c-8b47-26996eb14a32 {
        fill: #90acb1;
      }

      .\39 3aff254-2f33-43f2-a267-21afdd7186d7 {
        fill: #70ac58;
      }

      .a7842496-784d-46ab-8156-8b83a42f0ed6 {
        fill: #f2d154;
      }
    </style>
  </defs>
  <title>menu__icon-history</title>
  <g>
    <polygon class="11c1cea2-64f3-4ca3-a2e2-aacbbcf0063f" points="336 473.21 93.33 473.21 152.4 248.38 146.15 44.74 28.21 46.69 150.33 0.29 276.13 0.29 394.67 46.67 276.13 50.67 278.67 252.49 336 473.21"/>
    <g>
      <g>
        <path class="aa4d2ac4-3384-4fb8-baf5-c23e6c59c576" d="M121.35,372.06A7.52,7.52,0,0,1,117,358.39L272.28,249.73a7.51,7.51,0,0,1,8.61,12.3L125.65,370.7A7.45,7.45,0,0,1,121.35,372.06Z"/>
        <path class="aa4d2ac4-3384-4fb8-baf5-c23e6c59c576" d="M90.31,480.72a7.51,7.51,0,0,1-3.37-14.22L304.27,357.83A7.51,7.51,0,1,1,311,371.26L93.66,479.93A7.45,7.45,0,0,1,90.31,480.72Z"/>
        <path class="aa4d2ac4-3384-4fb8-baf5-c23e6c59c576" d="M307.62,372.06a7.47,7.47,0,0,1-4.3-1.36L148.09,262a7.51,7.51,0,0,1,8.61-12.31L311.94,358.4a7.51,7.51,0,0,1-4.32,13.66Z"/>
        <path class="aa4d2ac4-3384-4fb8-baf5-c23e6c59c576" d="M338.67,480.72a7.45,7.45,0,0,1-3.35-.79L118,371.26a7.51,7.51,0,1,1,6.72-13.43L342,466.49a7.51,7.51,0,0,1-3.37,14.23Z"/>
        <path class="aa4d2ac4-3384-4fb8-baf5-c23e6c59c576" d="M276.57,139.21a7.41,7.41,0,0,1-4.15-1.27L148.23,55.15a7.51,7.51,0,0,1,8.33-12.49l124.19,82.79a7.51,7.51,0,0,1-4.18,13.76Z"/>
        <path class="aa4d2ac4-3384-4fb8-baf5-c23e6c59c576" d="M276.57,263.39a7.48,7.48,0,0,1-4.15-1.26L148.23,179.34a7.51,7.51,0,0,1,8.33-12.5l124.19,82.8a7.51,7.51,0,0,1-4.18,13.75Z"/>
      </g>
      <path class="aa4d2ac4-3384-4fb8-baf5-c23e6c59c576" d="M338.67,480.72a7.51,7.51,0,0,1-7.21-5.45L269.36,258a7.61,7.61,0,0,1-.29-2.07V15H159.9V255.88a7.6,7.6,0,0,1-.28,2.07L97.52,475.27a7.51,7.51,0,1,1-14.44-4.12l61.81-216.32V7.51A7.51,7.51,0,0,1,152.4,0H276.58a7.51,7.51,0,0,1,7.51,7.51V254.83L345.9,471.15a7.51,7.51,0,0,1-5.16,9.28A7.39,7.39,0,0,1,338.67,480.72Z"/>
      <path class="b2d2cba8-0b3f-4c24-92a2-bfa58b972955" d="M359.38,504.26H69.6v-25a6,6,0,0,1,6-6H353.37a6,6,0,0,1,6,6v25Z"/>
      <path class="9f6359a7-a354-4e8c-8b47-26996eb14a32" d="M359.38,504.26H328.33V473.21h25a6,6,0,0,1,6,6v25Z"/>
      <path class="93aff254-2f33-43f2-a267-21afdd7186d7" d="M382.23,512H46.75a7.74,7.74,0,1,1,0-15.48H382.23a7.74,7.74,0,0,1,0,15.48Z"/>
      <g>
        <path class="aa4d2ac4-3384-4fb8-baf5-c23e6c59c576" d="M307.63,372.05H121.35a7.51,7.51,0,1,1,0-15H307.63a7.51,7.51,0,1,1,0,15Z"/>
        <path class="aa4d2ac4-3384-4fb8-baf5-c23e6c59c576" d="M276.58,263.39H152.4a7.51,7.51,0,1,1,0-15H276.58a7.51,7.51,0,1,1,0,15Z"/>
        <path class="aa4d2ac4-3384-4fb8-baf5-c23e6c59c576" d="M421.47,180.6H7.51a7.51,7.51,0,0,1-2.06-14.73l144.88-41.39a7.61,7.61,0,0,1,2.07-.29H276.58a7.54,7.54,0,0,1,2.06.29l144.89,41.39a7.51,7.51,0,0,1-2.06,14.73Zm-360.35-15H367.86L275.53,139.2H153.45Z"/>
      </g>
      <g>
        <path class="b2d2cba8-0b3f-4c24-92a2-bfa58b972955" d="M48.9,211.65a7.5,7.5,0,0,1-7.5-7.51v-31a7.51,7.51,0,1,1,15,0v31A7.51,7.51,0,0,1,48.9,211.65Z"/>
        <path class="b2d2cba8-0b3f-4c24-92a2-bfa58b972955" d="M380.07,211.65a7.51,7.51,0,0,1-7.51-7.51v-31a7.51,7.51,0,1,1,15,0v31A7.51,7.51,0,0,1,380.07,211.65Z"/>
      </g>
      <g>
        <path class="a7842496-784d-46ab-8156-8b83a42f0ed6" d="M63.6,235.19H34.22a6,6,0,0,1-6-6v-19a6,6,0,0,1,6-6H63.6a6,6,0,0,1,6,6v19A6,6,0,0,1,63.6,235.19Z"/>
        <path class="a7842496-784d-46ab-8156-8b83a42f0ed6" d="M394.76,235.19H365.38a6,6,0,0,1-6-6v-19a6,6,0,0,1,6-6h29.38a6,6,0,0,1,6,6v19A6,6,0,0,1,394.76,235.19Z"/>
      </g>
      <path class="aa4d2ac4-3384-4fb8-baf5-c23e6c59c576" d="M423.53,41.69,278.64.29a7.51,7.51,0,0,0-4.12,14.44L367.86,41.4H61.12l93.34-26.67A7.51,7.51,0,1,0,150.33.29L5.45,41.69A7.5,7.5,0,0,0,7.51,56.41h414a7.5,7.5,0,0,0,2.06-14.72Z"/>
      <path class="b2d2cba8-0b3f-4c24-92a2-bfa58b972955" d="M48.9,88A8.09,8.09,0,0,1,40.82,80v-31a8.09,8.09,0,1,1,16.17,0V80A8.09,8.09,0,0,1,48.9,88Z"/>
      <path class="a7842496-784d-46ab-8156-8b83a42f0ed6" d="M63.6,111H34.22a6,6,0,0,1-6-6V86a6,6,0,0,1,6-6H63.6a6,6,0,0,1,6,6v19A6,6,0,0,1,63.6,111Z"/>
      <path class="b2d2cba8-0b3f-4c24-92a2-bfa58b972955" d="M380.07,88A8.09,8.09,0,0,1,372,80v-31a8.09,8.09,0,0,1,16.18,0V80A8.09,8.09,0,0,1,380.07,88Z"/>
      <path class="a7842496-784d-46ab-8156-8b83a42f0ed6" d="M394.76,111H365.38a6,6,0,0,1-6-6V86a6,6,0,0,1,6-6h29.38a6,6,0,0,1,6,6v19A6,6,0,0,1,394.76,111Z"/>
    </g>
  </g>
</svg>
