<svg id="591d1549-edea-4c3c-8981-0d12c74196f9" data-name="Слой 1" xmlns="http://www.w3.org/2000/svg" width="284.95" height="301.48" viewBox="0 0 284.95 301.48">
  <defs>
    <style>
      .e0790062-6076-4f22-b6fc-0b58678da5c6 {
        fill: #4e4946;
      }

      .df9226cc-c641-401c-ac43-e072ce29c561 {
        fill: #d8e3e2;
      }

      .\33 a951a99-562e-42b6-95a8-bfa8ec15ca4b {
        fill: #d8bfb7;
      }

      .a29e1a5d-9a48-4d06-b750-bd75224b19b0 {
        fill: #232323;
      }

      .\31 c66f3bb-2a03-45be-848b-972d020de45e {
        fill: #373736;
      }
    </style>
  </defs>
  <title>menu__icon-persons</title>
  <g>
    <g>
      <path class="e0790062-6076-4f22-b6fc-0b58678da5c6" d="M249.64,210.15l-44.55-8.32a4.3,4.3,0,0,0-.88-.08H80.74a4.3,4.3,0,0,0-.88.08l-44.95,8.42C12,216.67,0,239.24,0,258.23v26c0,9.5,8.52,17.23,19,17.23H266c10.48,0,19-7.73,19-17.23v-26C285,239.24,273,216.67,249.64,210.15Z"/>
      <path class="df9226cc-c641-401c-ac43-e072ce29c561" d="M144.76,202.45,102.05,178.6a4.76,4.76,0,0,0-6.11,1.29L78,203.63a4.75,4.75,0,0,0-.15,5.53l29,42.74a9.46,9.46,0,0,0,7,4.12c.3,0,.61,0,.91,0a9.46,9.46,0,0,0,6.7-2.77,3.17,3.17,0,0,0,.34-.39l19.68-24.43a4.75,4.75,0,0,0,.55-.85l4.72-9.4a4.76,4.76,0,0,0,.5-2.13v-9.5A4.74,4.74,0,0,0,144.76,202.45Z"/>
      <path class="df9226cc-c641-401c-ac43-e072ce29c561" d="M140.13,202.45l42.71-23.85a4.75,4.75,0,0,1,6.1,1.29l17.93,23.74a4.76,4.76,0,0,1,.14,5.53L178.06,251.9a9.49,9.49,0,0,1-7,4.12c-.31,0-.61,0-.92,0a9.48,9.48,0,0,1-6.7-2.77,4.32,4.32,0,0,1-.34-.39l-19.68-24.43a4.21,4.21,0,0,1-.54-.85l-4.72-9.4a4.64,4.64,0,0,1-.51-2.13v-9.5A4.75,4.75,0,0,1,140.13,202.45Z"/>
      <path class="3a951a99-562e-42b6-95a8-bfa8ec15ca4b" d="M208.93,87.86l-9.37-9.49s-32.18-8.71-99.86,0L71.21,87.86c0,6.53-6.3,11.31,0,33.25,15.11,52.65,31.89,85.48,71.23,85.48s56.82-33.92,71.24-85.48c2.06-7.38,0-22.26,0-33.25C212.45,89.24,208.93,87.86,208.93,87.86Z"/>
      <path class="e0790062-6076-4f22-b6fc-0b58678da5c6" d="M47.49,269.73a38,38,0,0,0-11.13-26.87L15.28,221.77A52.67,52.67,0,0,0,0,258.23v26c0,9.5,8.52,17.23,19,17.23H47.49V269.73Z"/>
      <path class="e0790062-6076-4f22-b6fc-0b58678da5c6" d="M269.63,221.81l-21,21.05a38,38,0,0,0-11.13,26.87v31.75H266c10.48,0,19-7.73,19-17.23v-26A52.46,52.46,0,0,0,269.63,221.81Z"/>
    </g>
    <path class="a29e1a5d-9a48-4d06-b750-bd75224b19b0" d="M221.09,92.49A20.57,20.57,0,0,1,225,78.78c5-6.93,15.57-17.17,12.42-25.09-7.57-19-30.27-32.09-46.76-44.07-14.9-10.83-30.53-13-47-3.34a4.41,4.41,0,0,1-3.79,0c-14.66-8.81-29.29-8.22-43.35.85C78.79,18.62,56,31.74,47.49,51.19c-4.07,9.36,4.86,23.07,11.3,31,.91,1.13,2.5,3,3.53,4.35,2,2.58,1.88,8.9,4.63,12.27l1.48,4.25c-.25,2.77,12.19,10.06,12.19,10l1,.5c2.74,1.32,4.3,2.56,8.18-1.37,1-1,23.51-25,27.25-28.94s8.69-5,13.49-2.34c7.62,4.23,15,4.33,22.68.14,5.21-2.84,10-1.81,14.05,2.59,3.38,3.64,24.12,24,31.13,30.89a5.35,5.35,0,0,0,6.52.84l0,0,9-5.6A18.72,18.72,0,0,0,221.16,94C221.13,93.5,221.11,93,221.09,92.49Z"/>
    <g>
      <path class="1c66f3bb-2a03-45be-848b-972d020de45e" d="M130.36,150.32a16.45,16.45,0,0,1,2.22.29c6.53,1.92,13,1.63,19.62.14a11.14,11.14,0,0,1,7.84,1.77,187.23,187.23,0,0,1,16.21,12.88c1.34,1.17,1.92,3.4,2.43,5.25.19.72-.76,1.76-1.19,2.65l-2.18-1.69c-1.11-.85-2.13-2.21-3.36-2.45-4.83-.93-9.8-1.18-14.57-2.31-5.09-1.21-10-4.36-15-4.38-4.85,0-9.62,3.19-14.57,4.36s-10,1.57-15,2.25c-1.78.24-3.47.34-3.53,2.82,0,.47-1.31,1.42-1.53,1.3-.68-.38-1.68-1.32-1.56-1.79.52-2.11.8-4.81,2.24-6.08,5.38-4.72,11.1-9.07,16.89-13.3C126.83,150.92,129,150.75,130.36,150.32Z"/>
      <path class="1c66f3bb-2a03-45be-848b-972d020de45e" d="M142.16,177.45c-4.39,0-8.78,0-13.17,0-2.68,0-5.06-.61-5-3.72,0-2.77,2.18-3.68,4.75-3.67,9.05,0,18.1-.14,27.13.2,1.56.06,4.07,2,4.32,3.44.5,2.72-1.85,3.72-4.44,3.71-4.52,0-9,0-13.57,0Z"/>
      <path class="1c66f3bb-2a03-45be-848b-972d020de45e" d="M140.73,192.06c-1.7-.18-5.74.8-5.62-3.78.1-4.11,3.84-3.51,6.7-3.59,1.19,0,2.62-.39,3.52.14a24.36,24.36,0,0,1,4,3.55,24,24,0,0,1-3.92,3.59C144.54,192.49,143.1,192.06,140.73,192.06Z"/>
    </g>
    <path class="1c66f3bb-2a03-45be-848b-972d020de45e" d="M143.76,146.5c-7.08-.05-12.19-2-17.4-3.52a3.26,3.26,0,0,1-2.41-4,3.5,3.5,0,0,1,4.14-2.88,9.16,9.16,0,0,1,2.3.59,31.07,31.07,0,0,0,23.64-.11,7.4,7.4,0,0,1,1.52-.46c2.27-.41,4,.36,4.65,2.65a3.33,3.33,0,0,1-2.51,4.33C152.62,144.52,147.63,146.45,143.76,146.5Z"/>
  </g>
</svg>
