<svg id="26470ac4-d561-4a98-a2c2-40b4d6f1f040" data-name="Слой 1" xmlns="http://www.w3.org/2000/svg" width="511.76" height="512" viewBox="0 0 511.76 512">
  <defs>
    <style>
      .\31 247b140-37cf-476f-ba51-4e8427416c4a {
        fill: #d6f2ff;
      }

      .\39 7b4b39a-0548-47cc-9344-0c948f3b9eb0 {
        fill: #e1f2f3;
      }

      .f9c12754-0d98-48f8-b46a-aae8160b55a6 {
        fill: #e7d472;
      }

      .\32 ffdebf4-f933-430e-ad0e-78bb87bcc966 {
        fill: #b3d1d4;
      }

      .a306a570-f218-4a5e-aeee-69b6c3c8a93b {
        fill: #d1b944;
      }
    </style>
  </defs>
  <title>menu__icon-projects</title>
  <g>
    <circle class="1247b140-37cf-476f-ba51-4e8427416c4a" cx="255.76" cy="256" r="192"/>
    <path class="97b4b39a-0548-47cc-9344-0c948f3b9eb0" d="M86.06,86.3A240,240,0,0,1,408.89,71.22l-19.8-4.94a8,8,0,0,0-3.88,15.53L439.34,95.3a8.64,8.64,0,0,0,1.94.23,8,8,0,0,0,7.25-11.38L424.92,33.61a8,8,0,1,0-14.5,6.76l8.63,18.49A256,256,0,0,0,74.75,75C-10.32,160-24.49,294.83,41,395.49a8,8,0,0,0,13.41-8.73C-7,292.4,6.31,166,86.06,86.3Z"/>
    <path class="f9c12754-0d98-48f8-b46a-aae8160b55a6" d="M232,405.26,357.43,249.57a6.65,6.65,0,0,0-5-10.81L260,236.69l27.49-126.16a4.51,4.51,0,0,0-7.92-3.79L154.1,262.43a6.64,6.64,0,0,0,5,10.81l92.43,2.07L224.06,401.47A4.52,4.52,0,0,0,232,405.26Z"/>
    <path class="2ffdebf4-f933-430e-ad0e-78bb87bcc966" d="M424.92,33.61a8,8,0,1,0-14.5,6.77l8.63,18.48A254.51,254.51,0,0,0,360,22.07a8,8,0,0,0-10.05,3.22l-.08.13a7.93,7.93,0,0,0,3.72,11.33,238.14,238.14,0,0,1,55.32,34.47l-19.8-4.94a8,8,0,0,0-3.88,15.53L439.34,95.3a8.64,8.64,0,0,0,1.94.23,8,8,0,0,0,7.25-11.38Z"/>
    <path class="97b4b39a-0548-47cc-9344-0c948f3b9eb0" d="M425.7,425.7a240,240,0,0,1-322.83,15.08l19.8,4.94a8,8,0,0,0,3.88-15.53L72.42,416.7a8.64,8.64,0,0,0-1.94-.23,8,8,0,0,0-7.25,11.38l23.61,50.54a8,8,0,1,0,14.5-6.76l-8.63-18.48A256,256,0,0,0,437,437c85.06-85.06,99.23-219.85,33.7-320.51a8,8,0,0,0-13.41,8.73C518.74,219.6,505.45,346,425.7,425.7Z"/>
    <path class="2ffdebf4-f933-430e-ad0e-78bb87bcc966" d="M86.84,478.39a8,8,0,1,0,14.5-6.76l-8.63-18.49a254.37,254.37,0,0,0,59.08,36.79,8,8,0,0,0,10-3.22l.08-.13a7.93,7.93,0,0,0-3.72-11.33,238.14,238.14,0,0,1-55.32-34.47l19.8,4.94a8,8,0,0,0,3.88-15.53L72.42,416.7a8.64,8.64,0,0,0-1.94-.23,8,8,0,0,0-7.25,11.38Z"/>
    <path class="a306a570-f218-4a5e-aeee-69b6c3c8a93b" d="M224,402.22l73.19-122A16,16,0,0,0,283.5,256H234.82a16,16,0,0,1-14-23.71l66.46-120.83.2-.93a4.51,4.51,0,0,0-7.92-3.79L154.09,262.43a6.65,6.65,0,0,0,5,10.81l92.43,2.07L223.91,402.18C224.11,402.26,223.82,402.14,224,402.22Z"/>
  </g>
</svg>
