<svg xmlns="http://www.w3.org/2000/svg" width="163" height="40" viewBox="0 0 163 40">
    <path fill="#FFF" fill-rule="evenodd" d="M52.722 4.377c1.234-.065 2.082-.243 1.761-1.758.21-1.252.01-2.091-1.619-1.99-1.202.076-2.068.044-2 1.706.057 1.378.251 2.128 1.858 2.042zm-37.358 7.917c-.975-.77-1.332-1.596-1.15-2.92.314-2.278-1.397-4.006-3.653-4.005-2.193 0-3.78 1.657-3.706 3.864.077 2.235 1.849 3.825 4.162 3.481 1.25-.186 2.186-.055 3.005.938.467.567 1.008 1.081 1.771.252.752-.818.054-1.228-.43-1.61zm11.852 20.563c-1.13-.401-1.673-1.028-1.763-2.194-.048-.607-.292-1.196-.409-1.8-.194-1.006-.883-.978-1.48-.564-.279.194-.392.873-.318 1.285.297 1.66 1.01 3.187-.688 4.737-1.17 1.066-.801 2.98.25 4.25 1.042 1.261 2.736 1.753 4.168 1.21 1.502-.57 2.492-1.987 2.488-4.013-.05-1.14-.755-2.38-2.248-2.91zm13.09-14.794c-1.703-.756-3.148-.319-4.586 1.132-.453.456-1.264.653-1.944.761-.588.092-1.223-.11-2.247-.229-.184.144-.818.387-.947.791-.316.998.477 1.194 1.25 1.272.615.062 1.272-.014 1.838.182.607.21 1.327.537 1.653 1.038 1.104 1.696 2.539 2.506 4.227 2.143 1.562-.337 2.838-1.773 2.988-3.364.147-1.548-.769-3.075-2.233-3.726zm-29.903 4.57c-1.47.6-2.696.857-4.195-.288-1.61-1.231-4.236-.178-5.078 1.68-.87 1.916.053 4.279 1.967 5.039 2.065.82 4.527-.187 4.956-2.27.277-1.35 1.092-1.712 2.138-2.057 1.297-.427 2.585-.882 3.985-1.361l-.774-1.653c-1.054.313-2.061.526-3 .91zM35.23 4.413c.338-1.523-.382-3.087-1.813-3.94-1.321-.789-3.324-.568-4.454.491-1.2 1.124-1.553 2.818-.753 4.387.433.85.372 1.51-.116 2.28-.852 1.344-1.638 2.733-2.492 4.17.956 1.085 1.648 1.23 2.31-.083.533-1.055 1.242-2.019 1.8-3.062.456-.854 1.026-1.24 2.057-1.277 1.877-.067 3.069-1.196 3.461-2.966zm19.285 18.263c0-3.927-.059-7.855.03-11.78.035-1.499-.758-1.508-1.84-1.517-1.111-.009-1.832.07-1.82 1.54.065 7.698.064 15.396 0 23.094-.01 1.405.591 1.612 1.764 1.599 1.165-.014 1.945-.064 1.9-1.623-.106-3.769-.034-7.542-.034-11.313zM28.39 19.837c.008-3.589-2.946-6.558-6.485-6.518-3.519.04-6.38 2.926-6.408 6.463-.028 3.582 2.909 6.514 6.507 6.497 3.523-.018 6.377-2.898 6.386-6.442zm55.646 11.484c-1.498.01-2.997 0-4.496-.002-2.062-.005-2.065-.005-2.065-2.01 0-8.992-.029-17.982.034-26.973.01-1.453-.565-1.71-1.832-1.706-1.244.005-1.853.21-1.828 1.687.089 5.27.035 10.54.034 15.811 0 5.27.04 10.541-.027 15.81-.016 1.304.4 1.717 1.677 1.671 2.27-.082 4.547-.011 6.82-.025 3.393-.022 2.778.373 2.874-3.05.024-.877-.359-1.22-1.19-1.213zm-14.243-.018c-1.496.066-3.003-.07-4.493.04-1.462.107-1.81-.459-1.801-1.863.061-9.094.004-18.188.062-27.28.01-1.43-.64-1.558-1.783-1.566-1.156-.006-1.79.143-1.768 1.566.077 5.27.03 10.54.03 15.81 0 5.27.052 10.542-.035 15.811-.024 1.471.463 1.856 1.855 1.794 2.269-.104 4.545-.028 6.819-.028 2.617 0 2.617 0 2.594-2.565 0-.051-.005-.104.002-.155.133-1.116-.309-1.615-1.482-1.564zm38.106-19.576c.019-1.345-.158-2.053-1.802-2.072-1.765-.021-1.725.893-1.715 2.14.038 4.599.046 9.198.002 13.797-.023 2.495-.733 4.714-3.123 5.984-5.124 2.722-10.392-.42-10.415-6.21-.018-4.65-.055-9.303.026-13.952.026-1.42-.496-1.75-1.802-1.736-1.239.014-1.758.335-1.712 1.671.092 2.633.027 5.27.027 7.906 0 1.86-.046 3.722.014 5.58.05 1.488-.022 3.045.394 4.442 1.207 4.05 4.361 5.696 8.305 6.048 6.411.572 12.117-2.662 11.81-10.266-.18-4.438-.07-8.888-.01-13.332zm37.247-2.29c-1.127-.007-1.21.61-1.207 1.493.02 7.698.039 15.398-.014 23.096-.01 1.25.406 1.59 1.597 1.58 5.425-.047 10.851-.017 16.276-.027.391 0 .782-.087 1.137-.129v-2.995h-1.784c-4.03 0-8.061-.027-12.091.017-1.099.012-1.606-.283-1.56-1.481.075-2.013.071-4.032 0-6.044-.04-1.152.378-1.541 1.52-1.527 3.72.05 7.442 0 11.162.029 1.083.009 1.726-.16 1.713-1.514-.013-1.286-.406-1.705-1.69-1.681-3.72.068-7.441-.01-11.16.045-1.129.016-1.599-.326-1.543-1.497.073-1.546.07-3.102 0-4.649-.05-1.13.334-1.545 1.504-1.529 4.081.058 8.164.026 12.246.018.55 0 1.1-.052 1.717-.085V9.612c-.32-.075-.47-.138-.617-.138-5.735-.012-11.47-.003-17.206-.037zM160.871.664H91.105c-.879 0-1.76-.028-2.635.019-.326.018-.901.184-.92.337-.105.859-.217 1.77-.015 2.585.072.293 1.016.521 1.562.522 24.134.025 48.268.022 72.402.017.49 0 .982-.077 1.501-.121V.663h-2.129zm-22.444 12.36v22.378c-3.393.503-3.401.503-3.39-2.58.022-5.53.057-11.06.081-16.59.002-.357-.042-.715-.338-1.204-.213.402-.489.783-.63 1.21-2.016 6.009-4.06 12.01-5.976 18.052-.383 1.206-1.047 1.314-2.053 1.312-1.063-.001-1.976.06-2.406-1.289-1.63-5.105-3.36-10.179-5.041-15.267-.404-1.221-.754-2.461-1.166-3.68-.083-.246-.33-.436-.849-.566.047.627.132 1.253.137 1.88.044 5.892.057 11.784.123 17.676.015 1.42-.927 1.214-1.793 1.23-.905.016-1.747.11-1.74-1.28.039-7.857.027-15.714.005-23.57-.003-.934.356-1.256 1.274-1.305 3.636-.195 3.698-.242 4.878 3.204 1.984 5.802 3.877 11.635 5.819 17.452.106.321.303.612.638 1.27.73-2.089 1.366-3.843 1.958-5.612 1.688-5.033 3.365-10.07 5.027-15.112.283-.858.78-1.189 1.706-1.207 3.736-.075 3.736-.105 3.736 3.599z"/>
</svg>
