<svg xmlns="http://www.w3.org/2000/svg" width="140" height="56" viewBox="0 0 140 56">
    <g fill="#FFF">
        <path d="M77.891 55.593L114.269 0.034 139.593 0 103.255 55.497z" opacity=".242"/>
        <g>
            <path fill-opacity=".627" d="M6.782 23.152V9.74l6.314 7.767h.552l6.297-7.767v13.413h6.983V0h-6.331l-7.15 8.686L6.331 0H0v23.152h6.782zm34.027.301c2.105 0 3.89-.384 5.354-1.152 1.464-.769 2.564-1.816 3.3-3.14.734-1.326 1.102-2.835 1.102-4.528 0-1.28-.206-2.45-.618-3.508-.412-1.058-1.022-1.982-1.83-2.773-.807-.79-1.826-1.406-3.056-1.846-1.231-.44-2.648-.66-4.252-.66-1.592 0-2.995.218-4.21.652-1.213.434-2.235 1.055-3.065 1.863-.83.807-1.447 1.734-1.854 2.78-.406 1.048-.61 2.211-.61 3.492 0 1.693.365 3.202 1.095 4.527.729 1.325 1.826 2.372 3.29 3.14 1.465.769 3.25 1.153 5.354 1.153zm0-4.477c-1.091 0-1.932-.39-2.522-1.169-.59-.78-.886-1.837-.886-3.174 0-1.347.293-2.402.877-3.165.585-.763 1.429-1.145 2.531-1.145 1.114 0 1.963.382 2.548 1.145.584.763.877 1.818.877 3.165 0 1.348-.293 2.408-.877 3.182-.585.774-1.434 1.161-2.548 1.161zm18.893 4.177v-9.99c.212-.3.418-.584.618-.852.2-.267.448-.545.743-.835.296-.29.63-.526 1.003-.71.373-.184.804-.276 1.294-.276 1.036 0 1.707.348 2.013 1.044.306.697.46 1.512.46 2.448v9.17h6.013v-9.989c0-4.878-2.038-7.316-6.114-7.316-1.169 0-2.23.203-3.182.61-.952.406-1.901 1.116-2.848 2.13v-2.44h-6.014v17.005h6.014zm22.418 7.734l11.56-24.74h-5.848L83.907 14.6l-3.458-8.453h-6.465l6.732 14.784-4.677 9.956h6.08z" transform="translate(0 16.8)"/>
            <path d="M102.819 23.152L107.262 16.601 111.728 23.152 121.794 23.152 112.522 11.024 121.25 0.074 112.318 0.074 108.01 6.354 103.748 0.074 93.705 0.074 102.819 11.817 93.887 23.152z" transform="translate(0 16.8)"/>
        </g>
    </g>
</svg>
