<svg xmlns="http://www.w3.org/2000/svg" width="97" height="63" viewBox="0 0 97 63">
    <g fill="#FFF" fill-rule="evenodd">
        <path fill-rule="nonzero" d="M8.53 25.2V14.82l8.094 10.38h8.063l-10.38-12.602 9.491-11.333h-7.682L8.53 11.137V1.265H2.308V25.2H8.53zm31.077.667c1.926 0 3.703-.323 5.333-.969 1.63-.645 3.032-1.54 4.206-2.682 1.175-1.143 2.09-2.481 2.746-4.016.656-1.534.984-3.19.984-4.967 0-1.778-.328-3.434-.984-4.968-.656-1.535-1.571-2.873-2.746-4.016-1.174-1.143-2.577-2.037-4.206-2.682C43.31.92 41.533.598 39.607.598c-1.947 0-3.73.323-5.349.969-1.619.645-3.01 1.54-4.174 2.682-1.164 1.143-2.074 2.481-2.73 4.016-.656 1.534-.984 3.19-.984 4.968 0 1.777.328 3.433.984 4.967.656 1.535 1.566 2.873 2.73 4.016 1.164 1.143 2.555 2.037 4.174 2.682 1.62.646 3.402.969 5.349.969zm0-6.032c-.91 0-1.772-.164-2.587-.492-.815-.328-1.53-.788-2.143-1.38-.614-.593-1.1-1.292-1.46-2.096-.36-.804-.54-1.682-.54-2.634 0-.953.18-1.831.54-2.635.36-.804.846-1.503 1.46-2.095.614-.593 1.328-1.053 2.143-1.381.815-.328 1.677-.492 2.587-.492.91 0 1.772.164 2.587.492.815.328 1.534.788 2.159 1.38.624.593 1.116 1.292 1.476 2.096.36.804.54 1.682.54 2.635 0 .952-.18 1.83-.54 2.634-.36.804-.852 1.503-1.476 2.095-.625.593-1.344 1.053-2.159 1.381-.815.328-1.677.492-2.587.492zM18.015 62.505v-2.318c1.777-.127 3.391-.513 4.84-1.158 1.45-.646 2.694-1.487 3.73-2.524 1.038-1.037 1.836-2.227 2.397-3.571.561-1.344.841-2.767.841-4.27 0-1.545-.275-2.994-.825-4.349-.55-1.354-1.338-2.54-2.365-3.555-1.026-1.016-2.27-1.846-3.73-2.492-1.46-.645-3.09-1.042-4.888-1.19V34.76h-5.778v2.318c-1.82.148-3.455.545-4.904 1.19-1.45.646-2.688 1.476-3.714 2.492-1.027 1.016-1.815 2.2-2.365 3.555-.55 1.355-.826 2.804-.826 4.35 0 1.523.276 2.957.826 4.3.55 1.344 1.338 2.53 2.365 3.556 1.026 1.026 2.27 1.862 3.73 2.508 1.46.645 3.09 1.031 4.888 1.158v2.318h5.778zm-5.778-8.222h-.19c-.74 0-1.44-.148-2.095-.444-.656-.297-1.222-.699-1.699-1.207-.476-.508-.851-1.105-1.127-1.793-.275-.688-.412-1.423-.412-2.206 0-.784.137-1.519.412-2.207.276-.687.651-1.285 1.127-1.793.477-.508 1.043-.91 1.699-1.207.656-.296 1.354-.444 2.095-.444h.19v11.3zm5.936 0h-.158v-11.3h.158c.741 0 1.44.147 2.095.443.657.297 1.228.699 1.715 1.207.486.508.867 1.106 1.142 1.793.276.688.413 1.423.413 2.207 0 .783-.137 1.518-.413 2.206-.275.688-.656 1.285-1.142 1.793-.487.508-1.058.91-1.715 1.207-.656.296-1.354.444-2.095.444zM48.258 60.6v-5.27h-7.396v-4.126h6.983v-5.27h-6.983v-4h7.396v-5.269H34.64V60.6h13.618z"/>
        <path d="M96.6 1.6v60.8h-40V1.6h40zM62.768 49.936c-.427 0-.832.085-1.216.256-.384.17-.715.4-.992.688-.277.288-.496.619-.656.992-.16.373-.24.773-.24 1.2 0 .427.08.832.24 1.216.16.384.384.72.672 1.008.288.288.619.512.992.672.373.16.763.24 1.168.24.875 0 1.621-.299 2.24-.896.619-.597.928-1.355.928-2.272 0-.405-.08-.8-.24-1.184-.16-.384-.384-.715-.672-.992-.288-.277-.619-.501-.992-.672-.373-.17-.784-.256-1.232-.256zm10.752-7.84h-5.312v13.728h24.128V42.096h-5.312v7.456h-4.16v-7.04h-5.312v7.04H73.52v-7.456zm-10.752-.864c-.427 0-.832.085-1.216.256-.384.17-.715.4-.992.688-.277.288-.496.619-.656.992-.16.373-.24.773-.24 1.2 0 .427.08.832.24 1.216.16.384.384.72.672 1.008.288.288.619.512.992.672.373.16.763.24 1.168.24.896 0 1.648-.299 2.256-.896.608-.597.912-1.344.912-2.24 0-.875-.299-1.616-.896-2.224-.597-.608-1.344-.912-2.24-.912zM92.336 8.464L79.632 18.928 68.208 9.36v7.744l9.952 7.648h-9.952v6.272h24.128v-6.272H81.872l10.464-8.16V8.464z" opacity=".6"/>
    </g>
</svg>
