<svg xmlns="http://www.w3.org/2000/svg" width="128" height="176" viewBox="0 0 128 176">
    <g fill="none" fill-rule="evenodd">
        <path d="M72.768 116.044c-.004 1.638-.446 3.245-1.28 4.651 2.776-1.16 5.368-2.728 7.69-4.651-2.323-1.921-4.914-3.487-7.689-4.648.833 1.405 1.274 3.01 1.279 4.648z"/>
        <path d="M77.367 95.967c-.924-.39-1.964-.403-2.897-.034-.148.079-.322.092-.48.038-.157-.057-.284-.177-.35-.331l-9.808-23.686-10.07 24.306-.58-.33c-.93-.367-1.966-.354-2.887.037-2.506.84-6.45 3.899-11.012 13.7-2.755 5.922-7.963 15.315-11.92 22.277 7.807 12.897 21.69 20.79 36.677 20.85 14.869.04 28.686-7.727 36.465-20.502-5.072-8.905-9.608-17.21-12.128-22.625-4.56-9.801-8.503-12.86-11.01-13.7zm3.119 20.512c-4.644 4.205-10.566 6.695-16.797 7.061-6.23-.366-12.153-2.856-16.797-7.06l-.462-.436.462-.436c4.644-4.204 10.566-6.694 16.797-7.06 6.23.366 12.153 2.856 16.797 7.06l.462.436-.462.435z"/>
        <ellipse cx="64.847" cy="40.051" rx="3.245" ry="3.272"/>
        <path d="M69.582 110.748c-3.827-1.272-7.959-1.272-11.786 0-2.67 3.017-2.67 7.575 0 10.593 3.828 1.269 7.958 1.269 11.786 0 2.67-3.018 2.67-7.576 0-10.593zm-5.894 7.14c-.74 0-1.406-.45-1.69-1.138-.282-.69-.126-1.482.397-2.01.523-.527 1.31-.684 1.993-.4.683.286 1.129.958 1.129 1.704 0 1.018-.819 1.843-1.829 1.844z"/>
        <path d="M55.89 111.392c-2.776 1.16-5.368 2.728-7.69 4.652 2.323 1.92 4.914 3.487 7.689 4.648-1.705-2.862-1.704-6.439.002-9.3zM117.156 140.082l-4.031-2.263.286-.522c.264-.476.527-.966.777-1.459l.272-.532 4.107 2.143c1.211-2.4 2.263-4.877 3.15-7.417l-4.422-1.484.187-.566c.173-.525.342-1.059.499-1.585l.17-.57 4.482 1.358c.762-2.584 1.354-5.216 1.774-7.879l-4.712-.655.08-.592c.077-.543.146-1.098.202-1.646l.062-.595 4.759.516c.245-2.257.367-4.525.367-6.795v-1.209h-4.867v-2.947h4.867v-7.829h-4.867v-2.947h4.867v-7.83h-4.867v-2.946h4.867v-7.83h-4.867v-2.764h4.867v-8.433h-17.037v44.735c.006 4.842-.779 9.653-2.321 14.239-.167.495-.453 1.173-.719 1.79-.103.243-.19.454-.275.662l8.842 19.287c1.26-1.749 2.43-3.563 3.501-5.435zM63.69 65.803c-.498-.02-.994-.07-1.485-.151l2.302 4.84 10.007 24.163c1.04-.257 2.131-.203 3.142.153 2.744.883 7.018 4.09 11.793 14.354 5.995 12.883 23.47 42.24 32.348 56.956L73.467 60.697c-2.248 3.196-5.891 5.098-9.778 5.106zM69.275 40.05c0 .888-.262 1.756-.756 2.491 2.33 1.024 4.274 2.774 5.546 4.993L95.75 1.896H82.193L66.01 35.763c1.921.525 3.257 2.28 3.264 4.288zM60.826 41.893c-.846-1.835-.338-4.016 1.23-5.28L45.467 1.897H31.912l21.568 45.39c1.654-2.699 4.291-4.635 7.346-5.393zM26.68 130.745c3.9-6.874 8.872-15.864 11.531-21.583 4.777-10.265 9.051-13.472 11.795-14.355 1.01-.354 2.1-.407 3.14-.152L63.19 70.48l-2.387-5.018c-.008-.017.003-.035-.003-.053-2.683-.674-5.052-2.26-6.71-4.49L24.332 125.83c.451 1.113.92 2.224 1.455 3.286.28.553.59 1.088.893 1.628zM15.864 149.38l-.312-.38 3.553-2.963-.317-.395-3.638 2.855-.363-.471c-.134-.174-.251-.363-.384-.538l-8.55 18.65c2.728-4.519 6.264-10.415 10.01-16.758z"/>
        <path d="M63.69 64.61c5.167 0 9.62-3.672 10.645-8.778 1.026-5.107-1.658-10.235-6.418-12.264l-.227-.124c-.564.491-1.243.83-1.973.982l-.783 2.834c-.072.258-.305.436-.57.436-.054 0-.108-.007-.16-.022-.314-.088-.498-.416-.41-.733l.68-2.464c-.314-.026-.625-.087-.926-.18l-.642 2.325c-.072.258-.305.436-.57.436-.055 0-.108-.007-.16-.022-.314-.088-.498-.416-.411-.733l.692-2.506c-.36-.24-.685-.53-.963-.865-5.458 1.135-9.18 6.25-8.613 11.838.566 5.59 5.235 9.84 10.808 9.84zM18.991 143.97l.365.47c.337.437.686.874 1.033 1.299l.376.458-3.548 2.96c1.148 1.372 2.356 2.7 3.601 3.956.631.635 1.273 1.253 1.927 1.856l3.082-3.462.439.399c.406.369.824.736 1.243 1.092l.452.385-2.987 3.554c2.05 1.72 4.207 3.306 6.46 4.745l2.432-3.98.503.311c.467.29.943.576 1.417.852l.51.296-2.317 4.06c2.322 1.326 4.728 2.497 7.203 3.504l1.693-4.39.552.216c.509.2 1.026.394 1.546.579l.556.2-1.566 4.447c2.523.88 5.1 1.591 7.716 2.13l.89-4.646.58.112c.535.103 1.08.201 1.626.29l.584.095-.753 4.674c2.638.41 5.3.646 7.967.708l.065-4.739.591.008c.548.01 1.105.008 1.655-.001l.59-.008.068 4.74c2.668-.064 5.33-.302 7.967-.712l-.757-4.673.584-.096c.54-.09 1.088-.187 1.622-.292l.582-.113.89 4.647c2.616-.54 5.194-1.252 7.717-2.134l-1.568-4.446.557-.199c.515-.185 1.034-.38 1.545-.58l.552-.217 1.691 4.39c2.475-1.008 4.881-2.18 7.203-3.508l-2.322-4.058.513-.298c.478-.277.954-.563 1.416-.853l.504-.313 2.437 3.981c2.252-1.44 4.409-3.027 6.457-4.75l-2.987-3.552.452-.386c.419-.356.837-.725 1.243-1.095l.44-.398 3.083 3.462c.644-.597 1.277-1.208 1.899-1.834 1.318-1.329 2.157-2.219 3.27-3.558-3.083-5.224-6.306-10.75-9.365-16.103-8.054 12.821-22.074 20.575-37.127 20.533-15.525-.058-29.89-8.295-37.876-21.717-.504-.854-.98-1.723-1.43-2.61-.68-1.345-1.29-2.724-1.832-4.131-1.956-5.1-2.955-10.52-2.947-15.988V64.804H2.915v8.37h4.87V76h-4.87v7.864h4.87v2.946h-4.87v7.83h4.87v2.946h-4.87v7.83h4.87v2.946h-4.87v1.176c0 2.281.125 4.56.37 6.828l4.761-.517.062.594c.056.543.125 1.096.201 1.645l.081.59-4.71.656c.42 2.662 1.014 5.293 1.777 7.877l4.481-1.36.171.57c.16.53.328 1.065.5 1.584l.186.566-4.419 1.487c.887 2.539 1.94 5.015 3.15 7.414l4.104-2.143.272.53c.254.492.518.984.781 1.464l.286.52-4.03 2.263c1.326 2.333 2.803 4.576 4.42 6.714l3.632-2.85z"/>
        <path fill="#1A1A1A" fill-rule="nonzero" d="M.522 174.927l1.04.564c.07-.115 7.086-11.567 15.116-25.16 1.063 1.251 2.162 2.474 3.304 3.625.786.79 1.589 1.558 2.41 2.301l.439.4 3.086-3.468.379.332-2.99 3.556.45.385c2.38 2.037 4.905 3.893 7.557 5.551l.504.316 2.437-3.99.43.258-2.32 4.062.51.298c2.703 1.579 5.52 2.95 8.428 4.099l.552.217 1.696-4.398.471.177-1.568 4.45.556.2c2.942 1.059 5.96 1.892 9.026 2.493l.582.113.89-4.654.494.088-.753 4.677.584.096c3.08.509 6.194.785 9.314.828l.592.008.064-4.745c.17.005.338.001.509 0l.066 4.745.592-.008c3.121-.045 6.236-.324 9.316-.833l.583-.096-.758-4.677.492-.088.892 4.654.582-.114c3.067-.602 6.084-1.437 9.025-2.498l.557-.2-1.569-4.448.47-.177 1.693 4.397.552-.218c2.909-1.15 5.727-2.522 8.43-4.102l.508-.3-2.322-4.059c.145-.086.289-.173.432-.26l2.44 3.989.503-.316c2.651-1.66 5.177-3.517 7.554-5.555l.45-.386-2.989-3.555c.127-.11.252-.222.379-.334l3.089 3.468.438-.401c.814-.737 1.608-1.496 2.382-2.278 1.212-1.222 2.06-2.12 3.073-3.319 7.959 13.468 14.786 24.623 14.927 24.854.165.268.508.36.783.211.276-.149.388-.489.257-.775l-12.91-28.16c1.554-2.115 2.974-4.328 4.252-6.624l.29-.521-4.04-2.268c.079-.145.157-.293.236-.441l4.107 2.141.273-.526c1.445-2.794 2.676-5.696 3.684-8.679l.192-.568-4.433-1.49c.051-.16.102-.32.15-.48l4.482 1.358.173-.566c.92-3.016 1.612-6.097 2.072-9.217l.088-.595-4.726-.658.06-.502 4.75.515.069-.586c.293-2.496.44-5.008.441-7.521v-2.401h-4.868v-.563h4.868V96.362h-4.868v-.563h4.868V85.585h-4.868v-.562h4.868V74.81h-4.868v-.38h4.868V63.611h-19.402v45.928c.004 4.712-.758 9.393-2.257 13.856-.13.384-.339.882-.547 1.372l-29.94-65.304c.991-1.773 1.518-3.77 1.532-5.804-.006-1.647-.344-3.275-.994-4.786L97.626.703H81.45l-16.671 34.89c-.591.008-1.174.137-1.714.378L46.373 1.041c-.1-.206-.307-.338-.534-.338H30.971c-.203 0-.392.105-.5.278-.11.174-.121.391-.033.576l22.287 46.901c.02.042.06.062.087.097-1.726 3.577-1.532 7.792.515 11.193l-29.589 64.54c-1.717-4.725-2.597-9.717-2.6-14.75V63.612H1.732v10.755h4.87v.443h-4.87v10.248h4.87v.561h-4.87v10.215h4.87v.561h-4.87v10.215h4.87v.561h-4.87v2.369c0 2.525.15 5.048.445 7.555l.07.584 4.75-.514c.02.165.039.332.062.497l-4.73.66.089.595c.462 3.12 1.157 6.2 2.076 9.215l.174.566 4.481-1.36.153.48-4.433 1.491.191.568c1.01 2.983 2.243 5.883 3.687 8.678l.273.526 4.107-2.144.236.444-4.04 2.268.29.522c1.24 2.202 2.612 4.326 4.106 6.361l-.148-.07-13.05 28.466zm104.566-49.358c.266-.618.552-1.296.719-1.791 1.542-4.586 2.327-9.397 2.321-14.24V64.805h17.037v8.433h-4.867V76h4.867v7.83h-4.867v2.946h4.867v7.83h-4.867v2.947h4.867v7.829h-4.867v2.947h4.867v1.209c0 2.27-.123 4.538-.367 6.795l-4.759-.516-.062.595c-.056.548-.125 1.102-.201 1.646l-.081.592 4.712.655c-.42 2.663-1.012 5.295-1.774 7.879l-4.481-1.358-.171.57c-.157.526-.326 1.06-.5 1.585l-.186.565 4.421 1.485c-.886 2.54-1.938 5.017-3.149 7.417l-4.107-2.143-.273.532c-.25.493-.512.983-.776 1.46l-.286.521 4.03 2.263c-1.07 1.872-2.24 3.686-3.5 5.435l-8.842-19.287c.085-.208.172-.419.275-.661zm16.709 40.549c-8.878-14.715-26.353-44.073-32.348-56.956-4.775-10.264-9.049-13.47-11.793-14.354-1.01-.356-2.102-.41-3.142-.153L64.507 70.492l-2.302-4.84c.491.081.987.132 1.484.15 3.887-.007 7.53-1.909 9.778-5.105l48.33 105.42zm-21.292-33.826c-7.78 12.775-21.596 20.543-36.465 20.501-14.987-.06-28.87-7.952-36.676-20.85 3.956-6.96 9.164-16.354 11.919-22.276 4.562-9.801 8.506-12.86 11.012-13.7.921-.39 1.957-.404 2.888-.037l.58.33 10.069-24.306L73.64 95.64c.065.154.192.274.349.33.158.055.332.042.48-.037.933-.369 1.973-.356 2.897.034 2.507.84 6.45 3.899 11.01 13.7 2.52 5.415 7.055 13.72 12.128 22.625zM82.193 1.896H95.75L74.065 47.534c-1.272-2.22-3.215-3.969-5.546-4.993.798-1.19.976-2.695.478-4.04-.498-1.346-1.61-2.366-2.986-2.738L82.193 1.896zM64.846 36.779c1.313-.001 2.498.795 3 2.018.504 1.223.227 2.63-.701 3.567-.929.936-2.325 1.216-3.538.71-1.213-.506-2.004-1.7-2.004-3.023.002-1.806 1.453-3.27 3.243-3.273zM31.912 1.896h13.555l16.59 34.718c-1.569 1.263-2.077 3.444-1.231 5.279-3.055.758-5.692 2.694-7.346 5.392L31.912 1.895zm20.913 51.763c.011-5.193 3.628-9.667 8.67-10.727.277.334.601.626.962.865l-.692 2.506c-.087.317.097.645.411.733.052.015.106.022.16.022.265 0 .498-.178.57-.436l.643-2.326c.3.094.61.155.924.181l-.68 2.464c-.087.317.097.645.411.733.052.015.106.023.16.022.265 0 .498-.178.57-.436l.783-2.833c.73-.154 1.409-.492 1.973-.983l.227.125c5.013 2.135 7.685 7.68 6.252 12.973-1.433 5.293-6.53 8.7-11.923 7.971-5.394-.728-9.42-5.368-9.421-10.854zm1.266 7.26c1.658 2.23 4.027 3.817 6.71 4.491.006.018-.005.036.003.053l2.387 5.018-10.045 24.174c-1.04-.255-2.13-.202-3.14.152-2.744.883-7.018 4.09-11.795 14.355-2.66 5.719-7.632 14.709-11.53 21.583-.303-.54-.614-1.075-.894-1.628-.536-1.062-1.004-2.173-1.455-3.286L54.091 60.92zm-43.153 79.188l4.031-2.262-.286-.52c-.263-.48-.527-.973-.781-1.466l-.273-.528-4.102 2.142c-1.212-2.398-2.264-4.875-3.151-7.414l4.42-1.487-.188-.566c-.171-.52-.34-1.054-.499-1.585l-.171-.568-4.482 1.359c-.762-2.583-1.356-5.215-1.776-7.876l4.71-.656-.08-.59c-.077-.55-.146-1.103-.202-1.646l-.062-.594-4.761.517c-.245-2.267-.37-4.547-.37-6.828v-1.176h4.87v-2.946h-4.87v-7.83h4.87V94.64h-4.87v-7.83h4.87v-2.946h-4.87V76h4.87v-2.827h-4.87v-8.37h17.04v44.735c-.008 5.467.991 10.889 2.947 15.988.541 1.407 1.153 2.786 1.832 4.131.45.888.927 1.758 1.43 2.61 7.986 13.422 22.351 21.659 37.876 21.717 15.053.041 29.073-7.712 37.127-20.533 3.059 5.353 6.282 10.879 9.364 16.103-1.112 1.34-1.95 2.23-3.27 3.558-.62.627-1.253 1.238-1.898 1.834l-3.084-3.462-.439.398c-.406.37-.825.739-1.243 1.095l-.452.386 2.986 3.552c-2.047 1.723-4.204 3.31-6.456 4.75l-2.437-3.981-.504.313c-.462.29-.938.575-1.416.853l-.513.298 2.322 4.058c-2.322 1.328-4.728 2.5-7.203 3.507l-1.691-4.389-.552.217c-.51.2-1.03.395-1.546.58l-.556.199 1.568 4.446c-2.523.881-5.101 1.594-7.718 2.134l-.89-4.647-.581.113c-.534.105-1.081.203-1.622.292l-.584.096.757 4.673c-2.638.41-5.299.647-7.967.711l-.067-4.74-.592.009c-.55.01-1.106.01-1.654.001l-.591-.008-.065 4.74c-2.668-.063-5.33-.3-7.967-.709l.753-4.674-.585-.094c-.545-.09-1.09-.188-1.626-.292l-.58-.111-.89 4.646c-2.614-.539-5.192-1.25-7.715-2.13l1.566-4.447-.556-.2c-.52-.185-1.038-.38-1.546-.58l-.552-.216-1.693 4.39c-2.475-1.007-4.881-2.177-7.203-3.504l2.317-4.059-.51-.297c-.474-.276-.95-.562-1.417-.851l-.503-.312-2.433 3.981c-2.252-1.44-4.41-3.024-6.459-4.745l2.987-3.554-.453-.385c-.418-.357-.836-.723-1.242-1.093l-.44-.398-3.081 3.462c-.654-.603-1.296-1.222-1.927-1.856-1.245-1.255-2.453-2.584-3.601-3.957l3.548-2.959-.376-.459c-.347-.425-.696-.861-1.033-1.298l-.365-.47-3.631 2.851c-1.618-2.138-3.095-4.38-4.422-6.714zm3.465 7.38c.132.176.25.365.384.539l.362.471 3.639-2.855.316.395-3.553 2.962.313.38c-3.747 6.344-7.284 12.24-10.01 16.76l8.549-18.651z"/>
        <path fill="#1A1A1A" fill-rule="nonzero" d="M63.69 108.548c-6.232.366-12.154 2.856-16.798 7.06l-.462.436.462.435c4.644 4.205 10.566 6.695 16.797 7.061 6.231-.366 12.154-2.856 16.797-7.06l.462-.436-.462-.436c-4.644-4.204-10.566-6.694-16.797-7.06zm-15.49 7.496c2.322-1.924 4.914-3.492 7.69-4.652-1.706 2.861-1.706 6.438-.002 9.3-2.774-1.161-5.365-2.728-7.688-4.648zm9.596 5.297c-2.67-3.018-2.67-7.576 0-10.593 3.828-1.272 7.959-1.272 11.786 0 2.67 3.017 2.67 7.575 0 10.593-3.828 1.269-7.958 1.269-11.786 0zm13.692-.646c1.706-2.86 1.707-6.437.001-9.299 2.776 1.16 5.366 2.727 7.69 4.648-2.323 1.923-4.915 3.491-7.691 4.651z"/>
        <ellipse cx="63.688" cy="116.044" fill="#1A1A1A" fill-rule="nonzero" rx="1.829" ry="1.843"/>
    </g>
</svg>
