<svg xmlns="http://www.w3.org/2000/svg" width="16" height="16" viewBox="0 0 16 16">
    <path fill="#FFF" d="M1.08.611c.638-.639 2.564-.745 2.58-.407.014.338 1.735 4.086 1.75 4.424.015.338-1.135 1.49-1.471 1.828-.334.334 2.249 3.26 2.297 3.315.056.049 2.974 2.637 3.308 2.304.336-.338 1.485-1.49 1.823-1.475.337.015 4.077 1.74 4.414 1.754.337.016.231 1.946-.407 2.586-.545.546-3.368 2.53-8.278-1.012-.538-.31-1.391-1.023-2.684-2.318l-.002-.002-.003-.003-.003-.003-.003-.003C3.11 10.304 2.4 9.45 2.09 8.91-1.444 3.99.535 1.158 1.08.611z"/>
</svg>
