<svg id="Слой_1" data-name="Слой 1" xmlns="http://www.w3.org/2000/svg" viewBox="0 0 581.8 350"><defs><style>.cls-1{fill:#dadada;fill-rule:evenodd;}.cls-2{fill:#d32825;}</style></defs><title>region-4</title><path class="cls-1" d="M0,107.94l12.51,34.12,8.68,23.45,54.67,55.33.77.8.11,1.12,6.77,67.62,23.37,43.95,19.33,3.21,4.92-12.27.76-1.9,2.05-.08,46.09-1.9L187,310.15l1.6-2.6,2.67,1.5,15.58,8.8,1.37.76.23,1.58,2.71,19.87L228.49,350l38.13-27.25,4.75-51.21.21-2.19,2.08-.58,49.44-14L325.52,178l2.93-.12,44.67-1.94,24-19.23,1.74-1.41,1.91,1.21,48.12,30.18,38-53.19,1.85-2.59,2.58,1.89,45.22,32.67L568,151.57l13.76-16.32L555,100.35l-55.09-56-30.63-13.4L468,30.35l-.45-1.3L457.57.89,423.7,0,409.88,9.19l-.77.54-1,0L291.92,8.76,265.36,23.94l-2,1.14-1.73-1.6L246.05,8.87l-35.14,2.69L196.16,32.73l-.72,1.07-1.28.24-23.83,4.78L104.49,78.5l-.7.43L103,79,45.24,80.89Z"/><path class="cls-2" d="M218.49,30.77a5.67,5.67,0,0,0-5,8.36l4.67,8.45a.35.35,0,0,0,.31.19.34.34,0,0,0,.31-.19l4.68-8.46a5.6,5.6,0,0,0,.68-2.69A5.67,5.67,0,0,0,218.49,30.77Zm0,8.5a2.84,2.84,0,1,1,2.84-2.84A2.84,2.84,0,0,1,218.49,39.27Z"/><path class="cls-2" d="M170.49,65.77a5.67,5.67,0,0,0-5,8.36l4.67,8.45a.35.35,0,0,0,.31.19.34.34,0,0,0,.31-.19l4.68-8.46a5.6,5.6,0,0,0,.68-2.69A5.67,5.67,0,0,0,170.49,65.77Zm0,8.5a2.84,2.84,0,1,1,2.84-2.84A2.84,2.84,0,0,1,170.49,74.27Z"/><path class="cls-2" d="M181.49,107.77a5.67,5.67,0,0,0-5,8.36l4.67,8.45a.35.35,0,0,0,.31.19.34.34,0,0,0,.31-.19l4.68-8.46a5.6,5.6,0,0,0,.68-2.69A5.67,5.67,0,0,0,181.49,107.77Zm0,8.5a2.84,2.84,0,1,1,2.84-2.84A2.84,2.84,0,0,1,181.49,116.27Z"/><path class="cls-2" d="M234.49,93.77a5.67,5.67,0,0,0-5,8.36l4.67,8.45a.35.35,0,0,0,.31.19.34.34,0,0,0,.31-.19l4.68-8.46a5.6,5.6,0,0,0,.68-2.69A5.67,5.67,0,0,0,234.49,93.77Zm0,8.5a2.84,2.84,0,1,1,2.84-2.84A2.84,2.84,0,0,1,234.49,102.27Z"/><path class="cls-2" d="M228.49,146.77a5.67,5.67,0,0,0-5,8.36l4.67,8.45a.35.35,0,0,0,.31.19.34.34,0,0,0,.31-.19l4.68-8.46a5.6,5.6,0,0,0,.68-2.69A5.67,5.67,0,0,0,228.49,146.77Zm0,8.5a2.84,2.84,0,1,1,2.84-2.84A2.84,2.84,0,0,1,228.49,155.27Z"/><path class="cls-2" d="M198.49,180.77a5.67,5.67,0,0,0-5,8.36l4.67,8.45a.35.35,0,0,0,.31.19.34.34,0,0,0,.31-.19l4.68-8.46a5.6,5.6,0,0,0,.68-2.69A5.67,5.67,0,0,0,198.49,180.77Zm0,8.5a2.84,2.84,0,1,1,2.84-2.84A2.84,2.84,0,0,1,198.49,189.27Z"/><path class="cls-2" d="M198.49,135.77a5.67,5.67,0,0,0-5,8.36l4.67,8.45a.35.35,0,0,0,.31.19.34.34,0,0,0,.31-.19l4.68-8.46a5.6,5.6,0,0,0,.68-2.69A5.67,5.67,0,0,0,198.49,135.77Zm0,8.5a2.84,2.84,0,1,1,2.84-2.84A2.84,2.84,0,0,1,198.49,144.27Z"/><path class="cls-2" d="M164.49,221.77a5.67,5.67,0,0,0-5,8.36l4.67,8.45a.35.35,0,0,0,.31.19.34.34,0,0,0,.31-.19l4.68-8.46a5.6,5.6,0,0,0,.68-2.69A5.67,5.67,0,0,0,164.49,221.77Zm0,8.5a2.84,2.84,0,1,1,2.84-2.84A2.84,2.84,0,0,1,164.49,230.27Z"/><path class="cls-2" d="M173.49,269.77a5.67,5.67,0,0,0-5,8.36l4.67,8.45a.35.35,0,0,0,.31.19.34.34,0,0,0,.31-.19l4.68-8.46a5.6,5.6,0,0,0,.68-2.69A5.67,5.67,0,0,0,173.49,269.77Zm0,8.5a2.84,2.84,0,1,1,2.84-2.84A2.84,2.84,0,0,1,173.49,278.27Z"/><path class="cls-2" d="M212.49,286.77a5.67,5.67,0,0,0-5,8.36l4.67,8.45a.35.35,0,0,0,.31.19.34.34,0,0,0,.31-.19l4.68-8.46a5.6,5.6,0,0,0,.68-2.69A5.67,5.67,0,0,0,212.49,286.77Zm0,8.5a2.84,2.84,0,1,1,2.84-2.84A2.84,2.84,0,0,1,212.49,295.27Z"/><path class="cls-2" d="M307.49,224.77a5.67,5.67,0,0,0-5,8.36l4.67,8.45a.35.35,0,0,0,.31.19.34.34,0,0,0,.31-.19l4.68-8.46a5.6,5.6,0,0,0,.68-2.69A5.67,5.67,0,0,0,307.49,224.77Zm0,8.5a2.84,2.84,0,1,1,2.84-2.84A2.84,2.84,0,0,1,307.49,233.27Z"/><path class="cls-2" d="M32.49,115.77a5.67,5.67,0,0,0-5,8.36l4.67,8.45a.35.35,0,0,0,.31.19.34.34,0,0,0,.31-.19l4.68-8.46a5.6,5.6,0,0,0,.68-2.69A5.67,5.67,0,0,0,32.49,115.77Zm0,8.5a2.84,2.84,0,1,1,2.84-2.84A2.84,2.84,0,0,1,32.49,124.27Z"/><path class="cls-2" d="M437.49,11.77a5.67,5.67,0,0,0-5,8.36l4.67,8.45a.35.35,0,0,0,.31.19.34.34,0,0,0,.31-.19l4.68-8.46a5.6,5.6,0,0,0,.68-2.69A5.67,5.67,0,0,0,437.49,11.77Zm0,8.5a2.84,2.84,0,1,1,2.84-2.84A2.84,2.84,0,0,1,437.49,20.27Z"/><path class="cls-2" d="M558.49,129.77a5.67,5.67,0,0,0-5,8.36l4.67,8.45a.35.35,0,0,0,.31.19.34.34,0,0,0,.31-.19l4.68-8.46a5.6,5.6,0,0,0,.68-2.69A5.67,5.67,0,0,0,558.49,129.77Zm0,8.5a2.84,2.84,0,1,1,2.84-2.84A2.84,2.84,0,0,1,558.49,138.27Z"/><path class="cls-2" d="M504.49,71.77a5.67,5.67,0,0,0-5,8.36l4.67,8.45a.35.35,0,0,0,.31.19.34.34,0,0,0,.31-.19l4.68-8.46a5.6,5.6,0,0,0,.68-2.69A5.67,5.67,0,0,0,504.49,71.77Zm0,8.5a2.84,2.84,0,1,1,2.84-2.84A2.84,2.84,0,0,1,504.49,80.27Z"/><path class="cls-2" d="M448.49,146.77a5.67,5.67,0,0,0-5,8.36l4.67,8.45a.35.35,0,0,0,.31.19.34.34,0,0,0,.31-.19l4.68-8.46a5.6,5.6,0,0,0,.68-2.69A5.67,5.67,0,0,0,448.49,146.77Zm0,8.5a2.84,2.84,0,1,1,2.84-2.84A2.84,2.84,0,0,1,448.49,155.27Z"/><path class="cls-2" d="M65.49,169.77a5.67,5.67,0,0,0-5,8.36l4.67,8.45a.35.35,0,0,0,.31.19.34.34,0,0,0,.31-.19l4.68-8.46a5.6,5.6,0,0,0,.68-2.69A5.67,5.67,0,0,0,65.49,169.77Zm0,8.5a2.84,2.84,0,1,1,2.84-2.84A2.84,2.84,0,0,1,65.49,178.27Z"/><path class="cls-2" d="M65.49,135.77a5.67,5.67,0,0,0-5,8.36l4.67,8.45a.35.35,0,0,0,.31.19.34.34,0,0,0,.31-.19l4.68-8.46a5.6,5.6,0,0,0,.68-2.69A5.67,5.67,0,0,0,65.49,135.77Zm0,8.5a2.84,2.84,0,1,1,2.84-2.84A2.84,2.84,0,0,1,65.49,144.27Z"/><path class="cls-2" d="M88.49,87.77a5.67,5.67,0,0,0-5,8.36l4.67,8.45a.35.35,0,0,0,.31.19.34.34,0,0,0,.31-.19l4.68-8.46a5.6,5.6,0,0,0,.68-2.69A5.67,5.67,0,0,0,88.49,87.77Zm0,8.5a2.84,2.84,0,1,1,2.84-2.84A2.84,2.84,0,0,1,88.49,96.27Z"/><path class="cls-2" d="M104.49,221.77a5.67,5.67,0,0,0-5,8.36l4.67,8.45a.35.35,0,0,0,.31.19.34.34,0,0,0,.31-.19l4.68-8.46a5.6,5.6,0,0,0,.68-2.69A5.67,5.67,0,0,0,104.49,221.77Zm0,8.5a2.84,2.84,0,1,1,2.84-2.84A2.84,2.84,0,0,1,104.49,230.27Z"/><path class="cls-2" d="M104.49,252.77a5.67,5.67,0,0,0-5,8.36l4.67,8.45a.35.35,0,0,0,.31.19.34.34,0,0,0,.31-.19l4.68-8.46a5.6,5.6,0,0,0,.68-2.69A5.67,5.67,0,0,0,104.49,252.77Zm0,8.5a2.84,2.84,0,1,1,2.84-2.84A2.84,2.84,0,0,1,104.49,261.27Z"/><path class="cls-2" d="M124.49,278.77a5.67,5.67,0,0,0-5,8.36l4.67,8.45a.35.35,0,0,0,.31.19.34.34,0,0,0,.31-.19l4.68-8.46a5.6,5.6,0,0,0,.68-2.69A5.67,5.67,0,0,0,124.49,278.77Zm0,8.5a2.84,2.84,0,1,1,2.84-2.84A2.84,2.84,0,0,1,124.49,287.27Z"/><path class="cls-2" d="M141.49,174.77a5.67,5.67,0,0,0-5,8.36l4.67,8.45a.35.35,0,0,0,.31.19.34.34,0,0,0,.31-.19l4.68-8.46a5.6,5.6,0,0,0,.68-2.69A5.67,5.67,0,0,0,141.49,174.77Zm0,8.5a2.84,2.84,0,1,1,2.84-2.84A2.84,2.84,0,0,1,141.49,183.27Z"/><path class="cls-2" d="M98.49,154.77a5.67,5.67,0,0,0-5,8.36l4.67,8.45a.35.35,0,0,0,.31.19.34.34,0,0,0,.31-.19l4.68-8.46a5.6,5.6,0,0,0,.68-2.69A5.67,5.67,0,0,0,98.49,154.77Zm0,8.5a2.84,2.84,0,1,1,2.84-2.84A2.84,2.84,0,0,1,98.49,163.27Z"/><path class="cls-2" d="M138.49,101.77a5.67,5.67,0,0,0-5,8.36l4.67,8.45a.35.35,0,0,0,.31.19.34.34,0,0,0,.31-.19l4.68-8.46a5.6,5.6,0,0,0,.68-2.69A5.67,5.67,0,0,0,138.49,101.77Zm0,8.5a2.84,2.84,0,1,1,2.84-2.84A2.84,2.84,0,0,1,138.49,110.27Z"/><path class="cls-2" d="M290.49,39.77a5.67,5.67,0,0,0-5,8.36l4.67,8.45a.35.35,0,0,0,.31.19.34.34,0,0,0,.31-.19l4.68-8.46a5.6,5.6,0,0,0,.68-2.69A5.67,5.67,0,0,0,290.49,39.77Zm0,8.5a2.84,2.84,0,1,1,2.84-2.84A2.84,2.84,0,0,1,290.49,48.27Z"/><path class="cls-2" d="M307.49,107.77a5.67,5.67,0,0,0-5,8.36l4.67,8.45a.35.35,0,0,0,.31.19.34.34,0,0,0,.31-.19l4.68-8.46a5.6,5.6,0,0,0,.68-2.69A5.67,5.67,0,0,0,307.49,107.77Zm0,8.5a2.84,2.84,0,1,1,2.84-2.84A2.84,2.84,0,0,1,307.49,116.27Z"/><path class="cls-2" d="M267.49,174.77a5.67,5.67,0,0,0-5,8.36l4.67,8.45a.35.35,0,0,0,.31.19.34.34,0,0,0,.31-.19l4.68-8.46a5.6,5.6,0,0,0,.68-2.69A5.67,5.67,0,0,0,267.49,174.77Zm0,8.5a2.84,2.84,0,1,1,2.84-2.84A2.84,2.84,0,0,1,267.49,183.27Z"/><path class="cls-2" d="M234.49,246.77a5.67,5.67,0,0,0-5,8.36l4.67,8.45a.35.35,0,0,0,.31.19.34.34,0,0,0,.31-.19l4.68-8.46a5.6,5.6,0,0,0,.68-2.69A5.67,5.67,0,0,0,234.49,246.77Zm0,8.5a2.84,2.84,0,1,1,2.84-2.84A2.84,2.84,0,0,1,234.49,255.27Z"/><path class="cls-2" d="M338.49,24.77a5.67,5.67,0,0,0-5,8.36l4.67,8.45a.35.35,0,0,0,.31.19.34.34,0,0,0,.31-.19l4.68-8.46a5.6,5.6,0,0,0,.68-2.69A5.67,5.67,0,0,0,338.49,24.77Zm0,8.5a2.84,2.84,0,1,1,2.84-2.84A2.84,2.84,0,0,1,338.49,33.27Z"/><path class="cls-2" d="M341.49,146.77a5.67,5.67,0,0,0-5,8.36l4.67,8.45a.35.35,0,0,0,.31.19.34.34,0,0,0,.31-.19l4.68-8.46a5.6,5.6,0,0,0,.68-2.69A5.67,5.67,0,0,0,341.49,146.77Zm0,8.5a2.84,2.84,0,1,1,2.84-2.84A2.84,2.84,0,0,1,341.49,155.27Z"/><path class="cls-2" d="M350.49,84.77a5.67,5.67,0,0,0-5,8.36l4.67,8.45a.35.35,0,0,0,.31.19.34.34,0,0,0,.31-.19l4.68-8.46a5.6,5.6,0,0,0,.68-2.69A5.67,5.67,0,0,0,350.49,84.77Zm0,8.5a2.84,2.84,0,1,1,2.84-2.84A2.84,2.84,0,0,1,350.49,93.27Z"/><path class="cls-2" d="M313.49,68.77a5.67,5.67,0,0,0-5,8.36l4.67,8.45a.35.35,0,0,0,.31.19.34.34,0,0,0,.31-.19l4.68-8.46a5.6,5.6,0,0,0,.68-2.69A5.67,5.67,0,0,0,313.49,68.77Zm0,8.5a2.84,2.84,0,1,1,2.84-2.84A2.84,2.84,0,0,1,313.49,77.27Z"/><path class="cls-2" d="M359.49,47.77a5.67,5.67,0,0,0-5,8.36l4.67,8.45a.35.35,0,0,0,.31.19.34.34,0,0,0,.31-.19l4.68-8.46a5.6,5.6,0,0,0,.68-2.69A5.67,5.67,0,0,0,359.49,47.77Zm0,8.5a2.84,2.84,0,1,1,2.84-2.84A2.84,2.84,0,0,1,359.49,56.27Z"/><path class="cls-2" d="M399.49,27.77a5.67,5.67,0,0,0-5,8.36l4.67,8.45a.35.35,0,0,0,.31.19.34.34,0,0,0,.31-.19l4.68-8.46a5.6,5.6,0,0,0,.68-2.69A5.67,5.67,0,0,0,399.49,27.77Zm0,8.5a2.84,2.84,0,1,1,2.84-2.84A2.84,2.84,0,0,1,399.49,36.27Z"/><path class="cls-2" d="M388.49,116.77a5.67,5.67,0,0,0-5,8.36l4.67,8.45a.35.35,0,0,0,.31.19.34.34,0,0,0,.31-.19l4.68-8.46a5.6,5.6,0,0,0,.68-2.69A5.67,5.67,0,0,0,388.49,116.77Zm0,8.5a2.84,2.84,0,1,1,2.84-2.84A2.84,2.84,0,0,1,388.49,125.27Z"/><path class="cls-2" d="M431.49,90.77a5.67,5.67,0,0,0-5,8.36l4.67,8.45a.35.35,0,0,0,.31.19.34.34,0,0,0,.31-.19l4.68-8.46a5.6,5.6,0,0,0,.68-2.69A5.67,5.67,0,0,0,431.49,90.77Zm0,8.5a2.84,2.84,0,1,1,2.84-2.84A2.84,2.84,0,0,1,431.49,99.27Z"/></svg>