<svg id="Слой_1" data-name="Слой 1" xmlns="http://www.w3.org/2000/svg" viewBox="0 0 318.13 350"><defs><style>.cls-1{fill:#dadada;fill-rule:evenodd;}.cls-2{fill:#d32825;}</style></defs><title>region-5</title><path class="cls-1" d="M290.33,141.8l-21,9.57-.61.28-.62-.24-59.63-23L188.38,151l-1,1.12-1.17-.94-9.48-7.58-.6-.49V106.64L171.21,95l-.38-.92.66-.75,47.76-53.39-2-23.07L203.41,0,184.63,3l-27.1,17.72-.43.27h-.5l-24.15-1-3.39,8.49,17.11,16.11,1.17,1.09-1.13,1.17-21,21.71,0,0L114.77,79.88l-1,32.82,0,1.58-1.56,0-51.41-1L40.42,134l12.81,13,0,0,.08.11,14.27,18.55.77,1-.81,1-8,9.44-.25.28-.32.15-16.89,7.45-.83.37-.74-.53L18.52,169,0,194.89l4.19,18.64,9.68,7.84,44.81,7.87.55.1.36.42,17.88,19.86.18.2.1.25,6,14.42.11.26V265l1,29.31,0,.72,0,0,.5,49.21,1.81,5.7,10.53-26.87.34-.86.9-.13,24.82-3.81,11.65-42.25.35-1.25,1.29.11,12.93,1,.27,0,.28.13,14,6.54,17.13-14.37L183,256.49l.5-10.35.07-1.56,1.57,0,27.82,1h.59l.44.41,16.3,15.35L243,259.05l.87-.16.59.69,9.82,11.29,7.68,6L275,262.13l10.18-13.79-11.58-10.13-.54-.48v-18.4l1-.42,44.11-18.56-1.49-23.75Z"/><path class="cls-2" d="M160.62,24.3A5.67,5.67,0,0,0,155,30a5.77,5.77,0,0,0,.68,2.69l4.68,8.46a.36.36,0,0,0,.62,0l4.68-8.46a5.76,5.76,0,0,0,.67-2.69A5.67,5.67,0,0,0,160.62,24.3Zm0,8.5A2.84,2.84,0,1,1,163.45,30,2.84,2.84,0,0,1,160.62,32.8Z"/><path class="cls-2" d="M200.62,24.3A5.67,5.67,0,0,0,195,30a5.77,5.77,0,0,0,.68,2.69l4.68,8.46a.36.36,0,0,0,.62,0l4.68-8.46a5.76,5.76,0,0,0,.67-2.69A5.67,5.67,0,0,0,200.62,24.3Zm0,8.5A2.84,2.84,0,1,1,203.45,30,2.84,2.84,0,0,1,200.62,32.8Z"/><path class="cls-2" d="M170.62,62.3A5.67,5.67,0,0,0,165,68a5.77,5.77,0,0,0,.68,2.69l4.68,8.46a.36.36,0,0,0,.62,0l4.68-8.46a5.76,5.76,0,0,0,.67-2.69A5.67,5.67,0,0,0,170.62,62.3Zm0,8.5A2.84,2.84,0,1,1,173.45,68,2.84,2.84,0,0,1,170.62,70.8Z"/><path class="cls-2" d="M137.62,83.3A5.67,5.67,0,0,0,132,89a5.77,5.77,0,0,0,.68,2.69l4.68,8.46a.36.36,0,0,0,.62,0l4.68-8.46a5.76,5.76,0,0,0,.67-2.69A5.67,5.67,0,0,0,137.62,83.3Zm0,8.5A2.84,2.84,0,1,1,140.45,89,2.84,2.84,0,0,1,137.62,91.8Z"/><path class="cls-2" d="M81.62,126.3A5.67,5.67,0,0,0,76,132a5.77,5.77,0,0,0,.68,2.69l4.68,8.46a.36.36,0,0,0,.62,0l4.68-8.46a5.76,5.76,0,0,0,.67-2.69A5.67,5.67,0,0,0,81.62,126.3Zm0,8.5A2.84,2.84,0,1,1,84.45,132,2.84,2.84,0,0,1,81.62,134.8Z"/><path class="cls-2" d="M130.62,137.3A5.67,5.67,0,0,0,125,143a5.77,5.77,0,0,0,.68,2.69l4.68,8.46a.36.36,0,0,0,.62,0l4.68-8.46a5.76,5.76,0,0,0,.67-2.69A5.67,5.67,0,0,0,130.62,137.3Zm0,8.5a2.84,2.84,0,1,1,2.83-2.83A2.84,2.84,0,0,1,130.62,145.8Z"/><path class="cls-2" d="M166.62,150.3A5.67,5.67,0,0,0,161,156a5.77,5.77,0,0,0,.68,2.69l4.68,8.46a.36.36,0,0,0,.62,0l4.68-8.46a5.76,5.76,0,0,0,.67-2.69A5.67,5.67,0,0,0,166.62,150.3Zm0,8.5a2.84,2.84,0,1,1,2.83-2.83A2.84,2.84,0,0,1,166.62,158.8Z"/><path class="cls-2" d="M99.62,159.3A5.67,5.67,0,0,0,94,165a5.77,5.77,0,0,0,.68,2.69l4.68,8.46a.36.36,0,0,0,.62,0l4.68-8.46a5.76,5.76,0,0,0,.67-2.69A5.67,5.67,0,0,0,99.62,159.3Zm0,8.5a2.84,2.84,0,1,1,2.83-2.83A2.84,2.84,0,0,1,99.62,167.8Z"/><path class="cls-2" d="M70.62,184.3A5.67,5.67,0,0,0,65,190a5.77,5.77,0,0,0,.68,2.69l4.68,8.46a.36.36,0,0,0,.62,0l4.68-8.46a5.76,5.76,0,0,0,.67-2.69A5.67,5.67,0,0,0,70.62,184.3Zm0,8.5A2.84,2.84,0,1,1,73.45,190,2.84,2.84,0,0,1,70.62,192.8Z"/><path class="cls-2" d="M29.62,193.3A5.67,5.67,0,0,0,24,199a5.77,5.77,0,0,0,.68,2.69l4.68,8.46a.36.36,0,0,0,.62,0l4.68-8.46a5.76,5.76,0,0,0,.67-2.69A5.67,5.67,0,0,0,29.62,193.3Zm0,8.5A2.84,2.84,0,1,1,32.45,199,2.84,2.84,0,0,1,29.62,201.8Z"/><path class="cls-2" d="M87.62,221.3A5.67,5.67,0,0,0,82,227a5.77,5.77,0,0,0,.68,2.69l4.68,8.46a.36.36,0,0,0,.62,0l4.68-8.46a5.76,5.76,0,0,0,.67-2.69A5.67,5.67,0,0,0,87.62,221.3Zm0,8.5A2.84,2.84,0,1,1,90.45,227,2.84,2.84,0,0,1,87.62,229.8Z"/><path class="cls-2" d="M108.62,261.3A5.67,5.67,0,0,0,103,267a5.77,5.77,0,0,0,.68,2.69l4.68,8.46a.36.36,0,0,0,.62,0l4.68-8.46a5.76,5.76,0,0,0,.67-2.69A5.67,5.67,0,0,0,108.62,261.3Zm0,8.5a2.84,2.84,0,1,1,2.83-2.83A2.84,2.84,0,0,1,108.62,269.8Z"/><path class="cls-2" d="M96.62,297.3A5.67,5.67,0,0,0,91,303a5.77,5.77,0,0,0,.68,2.69l4.68,8.46a.36.36,0,0,0,.62,0l4.68-8.46a5.76,5.76,0,0,0,.67-2.69A5.67,5.67,0,0,0,96.62,297.3Zm0,8.5A2.84,2.84,0,1,1,99.45,303,2.84,2.84,0,0,1,96.62,305.8Z"/><path class="cls-2" d="M158.62,247.3A5.67,5.67,0,0,0,153,253a5.77,5.77,0,0,0,.68,2.69l4.68,8.46a.36.36,0,0,0,.62,0l4.68-8.46a5.76,5.76,0,0,0,.67-2.69A5.67,5.67,0,0,0,158.62,247.3Zm0,8.5a2.84,2.84,0,1,1,2.83-2.83A2.84,2.84,0,0,1,158.62,255.8Z"/><path class="cls-2" d="M122.62,229.3A5.67,5.67,0,0,0,117,235a5.77,5.77,0,0,0,.68,2.69l4.68,8.46a.36.36,0,0,0,.62,0l4.68-8.46a5.76,5.76,0,0,0,.67-2.69A5.67,5.67,0,0,0,122.62,229.3Zm0,8.5a2.84,2.84,0,1,1,2.83-2.83A2.84,2.84,0,0,1,122.62,237.8Z"/><path class="cls-2" d="M114.62,196.3A5.67,5.67,0,0,0,109,202a5.77,5.77,0,0,0,.68,2.69l4.68,8.46a.36.36,0,0,0,.62,0l4.68-8.46a5.76,5.76,0,0,0,.67-2.69A5.67,5.67,0,0,0,114.62,196.3Zm0,8.5a2.84,2.84,0,1,1,2.83-2.83A2.84,2.84,0,0,1,114.62,204.8Z"/><path class="cls-2" d="M140.62,175.3A5.67,5.67,0,0,0,135,181a5.77,5.77,0,0,0,.68,2.69l4.68,8.46a.36.36,0,0,0,.62,0l4.68-8.46a5.76,5.76,0,0,0,.67-2.69A5.67,5.67,0,0,0,140.62,175.3Zm0,8.5a2.84,2.84,0,1,1,2.83-2.83A2.84,2.84,0,0,1,140.62,183.8Z"/><path class="cls-2" d="M143.62,215.3A5.67,5.67,0,0,0,138,221a5.77,5.77,0,0,0,.68,2.69l4.68,8.46a.36.36,0,0,0,.62,0l4.68-8.46a5.76,5.76,0,0,0,.67-2.69A5.67,5.67,0,0,0,143.62,215.3Zm0,8.5a2.84,2.84,0,1,1,2.83-2.83A2.84,2.84,0,0,1,143.62,223.8Z"/><path class="cls-2" d="M219.62,137.3A5.67,5.67,0,0,0,214,143a5.77,5.77,0,0,0,.68,2.69l4.68,8.46a.36.36,0,0,0,.62,0l4.68-8.46a5.76,5.76,0,0,0,.67-2.69A5.67,5.67,0,0,0,219.62,137.3Zm0,8.5a2.84,2.84,0,1,1,2.83-2.83A2.84,2.84,0,0,1,219.62,145.8Z"/><path class="cls-2" d="M166.62,176.3A5.67,5.67,0,0,0,161,182a5.77,5.77,0,0,0,.68,2.69l4.68,8.46a.36.36,0,0,0,.62,0l4.68-8.46a5.76,5.76,0,0,0,.67-2.69A5.67,5.67,0,0,0,166.62,176.3Zm0,8.5a2.84,2.84,0,1,1,2.83-2.83A2.84,2.84,0,0,1,166.62,184.8Z"/><path class="cls-2" d="M184.62,185.3A5.67,5.67,0,0,0,179,191a5.77,5.77,0,0,0,.68,2.69l4.68,8.46a.36.36,0,0,0,.62,0l4.68-8.46a5.76,5.76,0,0,0,.67-2.69A5.67,5.67,0,0,0,184.62,185.3Zm0,8.5a2.84,2.84,0,1,1,2.83-2.83A2.84,2.84,0,0,1,184.62,193.8Z"/><path class="cls-2" d="M176.62,212.3A5.67,5.67,0,0,0,171,218a5.77,5.77,0,0,0,.68,2.69l4.68,8.46a.36.36,0,0,0,.62,0l4.68-8.46a5.76,5.76,0,0,0,.67-2.69A5.67,5.67,0,0,0,176.62,212.3Zm0,8.5a2.84,2.84,0,1,1,2.83-2.83A2.84,2.84,0,0,1,176.62,220.8Z"/><path class="cls-2" d="M213.62,224.3A5.67,5.67,0,0,0,208,230a5.77,5.77,0,0,0,.68,2.69l4.68,8.46a.36.36,0,0,0,.62,0l4.68-8.46a5.76,5.76,0,0,0,.67-2.69A5.67,5.67,0,0,0,213.62,224.3Zm0,8.5a2.84,2.84,0,1,1,2.83-2.83A2.84,2.84,0,0,1,213.62,232.8Z"/><path class="cls-2" d="M210.62,193.3A5.67,5.67,0,0,0,205,199a5.77,5.77,0,0,0,.68,2.69l4.68,8.46a.36.36,0,0,0,.62,0l4.68-8.46a5.76,5.76,0,0,0,.67-2.69A5.67,5.67,0,0,0,210.62,193.3Zm0,8.5a2.84,2.84,0,1,1,2.83-2.83A2.84,2.84,0,0,1,210.62,201.8Z"/><path class="cls-2" d="M251.62,169.3A5.67,5.67,0,0,0,246,175a5.77,5.77,0,0,0,.68,2.69l4.68,8.46a.36.36,0,0,0,.62,0l4.68-8.46a5.76,5.76,0,0,0,.67-2.69A5.67,5.67,0,0,0,251.62,169.3Zm0,8.5a2.84,2.84,0,1,1,2.83-2.83A2.84,2.84,0,0,1,251.62,177.8Z"/><path class="cls-2" d="M260.62,204.3A5.67,5.67,0,0,0,255,210a5.77,5.77,0,0,0,.68,2.69l4.68,8.46a.36.36,0,0,0,.62,0l4.68-8.46a5.76,5.76,0,0,0,.67-2.69A5.67,5.67,0,0,0,260.62,204.3Zm0,8.5a2.84,2.84,0,1,1,2.83-2.83A2.84,2.84,0,0,1,260.62,212.8Z"/><path class="cls-2" d="M289.62,176.3A5.67,5.67,0,0,0,284,182a5.77,5.77,0,0,0,.68,2.69l4.68,8.46a.36.36,0,0,0,.62,0l4.68-8.46a5.76,5.76,0,0,0,.67-2.69A5.67,5.67,0,0,0,289.62,176.3Zm0,8.5a2.84,2.84,0,1,1,2.83-2.83A2.84,2.84,0,0,1,289.62,184.8Z"/></svg>