<svg id="Слой_1" data-name="Слой 1" xmlns="http://www.w3.org/2000/svg" viewBox="0 0 264.78 350"><defs><style>.cls-1{fill:#dadada;fill-rule:evenodd;}.cls-2{fill:#d32825;}</style></defs><title>region-1</title><path class="cls-1" d="M0,75.17l4.66,30.29,16.5,25.92,23.16,12.81,1.53.81v53.54l-.53.76L30.55,220.65l-.14.15L21.7,231.69l9.52,19.74,23.1,14.36,1.21.74.13,1.44L59.78,309l.13,1.38-1,1L40.09,330.25v17.88l26.27-1.43,10.71-9.93,1.43-1.34,1.75.8,15.5,7L120.39,337l8.56-7,1.7-1.4,1.81,1.26,16.36,11.46L161.76,350l12.29-10.84.86-.79,1.17.05L214.65,340l14.53-22.15,9.92-28.21-9.28-8.56-.2-.19-.13-.16-17.24-22.17-.3-.39-.18-.51-14-42.69-.29-.91.29-.88,9.85-30.39.19-.57.37-.45,32-37,.15-.15.1-.09,19.82-18.23L264.78,104,239.5,74.11l-60.22.81h-.88l-.73-.47-66.52-42.7-1.43-.93.11-1.68L111.34,4,103.46,0,96.73,6.74l-.68.67-1,.15L38.18,15.45l-.57,5.14-.09.74-.41.61Z"/><path class="cls-2" d="M51.26,26.13A5.68,5.68,0,0,0,45.6,31.8a5.6,5.6,0,0,0,.68,2.69L51,43a.36.36,0,0,0,.62,0l4.68-8.46a5.67,5.67,0,0,0-5-8.36Zm0,8.5A2.83,2.83,0,1,1,54.1,31.8,2.83,2.83,0,0,1,51.26,34.63Z"/><path class="cls-2" d="M86.26,29.13A5.68,5.68,0,0,0,80.6,34.8a5.6,5.6,0,0,0,.68,2.69L86,46a.36.36,0,0,0,.62,0l4.68-8.46a5.67,5.67,0,0,0-5-8.36Zm0,8.5A2.83,2.83,0,1,1,89.1,34.8,2.83,2.83,0,0,1,86.26,37.63Z"/><path class="cls-2" d="M126.26,54.13a5.68,5.68,0,0,0-5.66,5.67,5.6,5.6,0,0,0,.68,2.69L126,71a.36.36,0,0,0,.62,0l4.68-8.46a5.67,5.67,0,0,0-5-8.36Zm0,8.5a2.83,2.83,0,1,1,2.84-2.83A2.83,2.83,0,0,1,126.26,62.63Z"/><path class="cls-2" d="M173.26,91.13a5.68,5.68,0,0,0-5.66,5.67,5.6,5.6,0,0,0,.68,2.69L173,108a.36.36,0,0,0,.62,0l4.68-8.46a5.67,5.67,0,0,0-5-8.36Zm0,8.5a2.83,2.83,0,1,1,2.84-2.83A2.83,2.83,0,0,1,173.26,99.63Z"/><path class="cls-2" d="M235.26,100.13a5.68,5.68,0,0,0-5.66,5.67,5.6,5.6,0,0,0,.68,2.69L235,117a.36.36,0,0,0,.62,0l4.68-8.46a5.67,5.67,0,0,0-5-8.36Zm0,8.5a2.83,2.83,0,1,1,2.84-2.83A2.83,2.83,0,0,1,235.26,108.63Z"/><path class="cls-2" d="M149.26,97.13a5.68,5.68,0,0,0-5.66,5.67,5.6,5.6,0,0,0,.68,2.69L149,114a.36.36,0,0,0,.62,0l4.68-8.46a5.67,5.67,0,0,0-5-8.36Zm0,8.5a2.83,2.83,0,1,1,2.84-2.83A2.83,2.83,0,0,1,149.26,105.63Z"/><path class="cls-2" d="M107.26,80.13a5.68,5.68,0,0,0-5.66,5.67,5.6,5.6,0,0,0,.68,2.69L107,97a.36.36,0,0,0,.62,0l4.68-8.46a5.67,5.67,0,0,0-5-8.36Zm0,8.5a2.83,2.83,0,1,1,2.84-2.83A2.83,2.83,0,0,1,107.26,88.63Z"/><path class="cls-2" d="M80.26,69.13A5.68,5.68,0,0,0,74.6,74.8a5.6,5.6,0,0,0,.68,2.69L80,86a.36.36,0,0,0,.62,0l4.68-8.46a5.67,5.67,0,0,0-5-8.36Zm0,8.5A2.83,2.83,0,1,1,83.1,74.8,2.83,2.83,0,0,1,80.26,77.63Z"/><path class="cls-2" d="M13.26,69.13A5.68,5.68,0,0,0,7.6,74.8a5.6,5.6,0,0,0,.68,2.69L13,86a.36.36,0,0,0,.62,0l4.68-8.46a5.67,5.67,0,0,0-5-8.36Zm0,8.5A2.83,2.83,0,1,1,16.1,74.8,2.83,2.83,0,0,1,13.26,77.63Z"/><path class="cls-2" d="M33.26,106.13a5.68,5.68,0,0,0-5.66,5.67,5.6,5.6,0,0,0,.68,2.69L33,123a.36.36,0,0,0,.62,0l4.68-8.46a5.67,5.67,0,0,0-5-8.36Zm0,8.5a2.83,2.83,0,1,1,2.84-2.83A2.83,2.83,0,0,1,33.26,114.63Z"/><path class="cls-2" d="M72.26,143.13a5.68,5.68,0,0,0-5.66,5.67,5.6,5.6,0,0,0,.68,2.69L72,160a.36.36,0,0,0,.62,0l4.68-8.46a5.67,5.67,0,0,0-5-8.36Zm0,8.5a2.83,2.83,0,1,1,2.84-2.83A2.83,2.83,0,0,1,72.26,151.63Z"/><path class="cls-2" d="M113.26,146.13a5.68,5.68,0,0,0-5.66,5.67,5.6,5.6,0,0,0,.68,2.69L113,163a.36.36,0,0,0,.62,0l4.68-8.46a5.67,5.67,0,0,0-5-8.36Zm0,8.5a2.83,2.83,0,1,1,2.84-2.83A2.83,2.83,0,0,1,113.26,154.63Z"/><path class="cls-2" d="M176.26,167.13a5.68,5.68,0,0,0-5.66,5.67,5.6,5.6,0,0,0,.68,2.69L176,184a.36.36,0,0,0,.62,0l4.68-8.46a5.67,5.67,0,0,0-5-8.36Zm0,8.5a2.83,2.83,0,1,1,2.84-2.83A2.83,2.83,0,0,1,176.26,175.63Z"/><path class="cls-2" d="M199.26,152.13a5.68,5.68,0,0,0-5.66,5.67,5.6,5.6,0,0,0,.68,2.69L199,169a.36.36,0,0,0,.62,0l4.68-8.46a5.67,5.67,0,0,0-5-8.36Zm0,8.5a2.83,2.83,0,1,1,2.84-2.83A2.83,2.83,0,0,1,199.26,160.63Z"/><path class="cls-2" d="M138.26,190.13a5.68,5.68,0,0,0-5.66,5.67,5.6,5.6,0,0,0,.68,2.69L138,207a.36.36,0,0,0,.62,0l4.68-8.46a5.67,5.67,0,0,0-5-8.36Zm0,8.5a2.83,2.83,0,1,1,2.84-2.83A2.83,2.83,0,0,1,138.26,198.63Z"/><path class="cls-2" d="M72.26,196.13a5.68,5.68,0,0,0-5.66,5.67,5.6,5.6,0,0,0,.68,2.69L72,213a.36.36,0,0,0,.62,0l4.68-8.46a5.67,5.67,0,0,0-5-8.36Zm0,8.5a2.83,2.83,0,1,1,2.84-2.83A2.83,2.83,0,0,1,72.26,204.63Z"/><path class="cls-2" d="M49.26,235.13a5.68,5.68,0,0,0-5.66,5.67,5.6,5.6,0,0,0,.68,2.69L49,252a.36.36,0,0,0,.62,0l4.68-8.46a5.67,5.67,0,0,0-5-8.36Zm0,8.5a2.83,2.83,0,1,1,2.84-2.83A2.83,2.83,0,0,1,49.26,243.63Z"/><path class="cls-2" d="M96.26,229.13a5.68,5.68,0,0,0-5.66,5.67,5.6,5.6,0,0,0,.68,2.69L96,246a.36.36,0,0,0,.62,0l4.68-8.46a5.67,5.67,0,0,0-5-8.36Zm0,8.5a2.83,2.83,0,1,1,2.84-2.83A2.83,2.83,0,0,1,96.26,237.63Z"/><path class="cls-2" d="M160.26,226.13a5.68,5.68,0,0,0-5.66,5.67,5.6,5.6,0,0,0,.68,2.69L160,243a.36.36,0,0,0,.62,0l4.68-8.46a5.67,5.67,0,0,0-5-8.36Zm0,8.5a2.83,2.83,0,1,1,2.84-2.83A2.83,2.83,0,0,1,160.26,234.63Z"/><path class="cls-2" d="M184.26,246.13a5.68,5.68,0,0,0-5.66,5.67,5.6,5.6,0,0,0,.68,2.69L184,263a.36.36,0,0,0,.62,0l4.68-8.46a5.67,5.67,0,0,0-5-8.36Zm0,8.5a2.83,2.83,0,1,1,2.84-2.83A2.83,2.83,0,0,1,184.26,254.63Z"/><path class="cls-2" d="M214.26,279.13a5.68,5.68,0,0,0-5.66,5.67,5.6,5.6,0,0,0,.68,2.69L214,296a.36.36,0,0,0,.62,0l4.68-8.46a5.67,5.67,0,0,0-5-8.36Zm0,8.5a2.83,2.83,0,1,1,2.84-2.83A2.83,2.83,0,0,1,214.26,287.63Z"/><path class="cls-2" d="M193.26,308.13a5.68,5.68,0,0,0-5.66,5.67,5.6,5.6,0,0,0,.68,2.69L193,325a.36.36,0,0,0,.62,0l4.68-8.46a5.67,5.67,0,0,0-5-8.36Zm0,8.5a2.83,2.83,0,1,1,2.84-2.83A2.83,2.83,0,0,1,193.26,316.63Z"/><path class="cls-2" d="M144.26,314.13a5.68,5.68,0,0,0-5.66,5.67,5.6,5.6,0,0,0,.68,2.69L144,331a.36.36,0,0,0,.62,0l4.68-8.46a5.67,5.67,0,0,0-5-8.36Zm0,8.5a2.83,2.83,0,1,1,2.84-2.83A2.83,2.83,0,0,1,144.26,322.63Z"/><path class="cls-2" d="M167.26,288.13a5.68,5.68,0,0,0-5.66,5.67,5.6,5.6,0,0,0,.68,2.69L167,305a.36.36,0,0,0,.62,0l4.68-8.46a5.67,5.67,0,0,0-5-8.36Zm0,8.5a2.83,2.83,0,1,1,2.84-2.83A2.83,2.83,0,0,1,167.26,296.63Z"/><path class="cls-2" d="M80.26,268.13a5.68,5.68,0,0,0-5.66,5.67,5.6,5.6,0,0,0,.68,2.69L80,285a.36.36,0,0,0,.62,0l4.68-8.46a5.67,5.67,0,0,0-5-8.36Zm0,8.5a2.83,2.83,0,1,1,2.84-2.83A2.83,2.83,0,0,1,80.26,276.63Z"/><path class="cls-2" d="M138.26,265.13a5.68,5.68,0,0,0-5.66,5.67,5.6,5.6,0,0,0,.68,2.69L138,282a.36.36,0,0,0,.62,0l4.68-8.46a5.67,5.67,0,0,0-5-8.36Zm0,8.5a2.83,2.83,0,1,1,2.84-2.83A2.83,2.83,0,0,1,138.26,273.63Z"/><path class="cls-2" d="M93.26,302.13a5.68,5.68,0,0,0-5.66,5.67,5.6,5.6,0,0,0,.68,2.69L93,319a.36.36,0,0,0,.62,0l4.68-8.46a5.67,5.67,0,0,0-5-8.36Zm0,8.5a2.83,2.83,0,1,1,2.84-2.83A2.83,2.83,0,0,1,93.26,310.63Z"/><path class="cls-2" d="M55.26,325.13a5.68,5.68,0,0,0-5.66,5.67,5.6,5.6,0,0,0,.68,2.69L55,342a.36.36,0,0,0,.62,0l4.68-8.46a5.67,5.67,0,0,0-5-8.36Zm0,8.5a2.83,2.83,0,1,1,2.84-2.83A2.83,2.83,0,0,1,55.26,333.63Z"/></svg>