<svg id="Слой_1" data-name="Слой 1" xmlns="http://www.w3.org/2000/svg" viewBox="0 0 438.52 350"><defs><style>.cls-1{fill:#dadada;fill-rule:evenodd;}.cls-2{fill:#d32825;}</style></defs><title>region-2</title><path class="cls-1" d="M69.53,25.93,24.88,74,3.21,103.69,0,123.93l11,29.74L44.28,180l1,.79.37,1.2,9.44,29.46.21.69,0,.69-.77,28.78L100.8,244l2.36.09,1.1,2.07L132,297l28.09,16.19,17.75-5.23,25.42-16.17,3-1.91,2.36,2.63L251.5,340l28.84,10,26-1.08,86.1-76.79.16-.14.24-.17,45.67-32.31-10.66-28.82-17.55-47.94L322.09,14.15,268.27,12,249.52,28.52l-2.43,2.15-2.65-1.78L223.21,14.74l-.08-.07L202.18,0,191.65,8.6l-.73.58-.92.24-37.71,9.42-1.4.36-1.32-.6L128.5,9.15,114.07,22.58l-1.15,1-1.5.06Z"/><path class="cls-2" d="M359.77,154.47a5.68,5.68,0,0,0-5.67,5.67,5.6,5.6,0,0,0,.68,2.69l4.68,8.46a.35.35,0,0,0,.31.18.37.37,0,0,0,.31-.18l4.67-8.46a5.6,5.6,0,0,0,.68-2.69A5.68,5.68,0,0,0,359.77,154.47Zm0,8.5a2.83,2.83,0,1,1,2.83-2.83A2.84,2.84,0,0,1,359.77,163Z"/><path class="cls-2" d="M80.77,42.47a5.68,5.68,0,0,0-5.67,5.67,5.6,5.6,0,0,0,.68,2.69l4.68,8.46a.35.35,0,0,0,.31.18.37.37,0,0,0,.31-.18l4.67-8.46a5.6,5.6,0,0,0,.68-2.69A5.68,5.68,0,0,0,80.77,42.47Zm0,8.5a2.83,2.83,0,1,1,2.83-2.83A2.84,2.84,0,0,1,80.77,51Z"/><path class="cls-2" d="M263.77,31.47a5.68,5.68,0,0,0-5.67,5.67,5.6,5.6,0,0,0,.68,2.69l4.68,8.46a.35.35,0,0,0,.31.18.37.37,0,0,0,.31-.18l4.67-8.46a5.6,5.6,0,0,0,.68-2.69A5.68,5.68,0,0,0,263.77,31.47Zm0,8.5a2.83,2.83,0,1,1,2.83-2.83A2.84,2.84,0,0,1,263.77,40Z"/><path class="cls-2" d="M199.77,17.47a5.68,5.68,0,0,0-5.67,5.67,5.6,5.6,0,0,0,.68,2.69l4.68,8.46a.35.35,0,0,0,.31.18.37.37,0,0,0,.31-.18l4.67-8.46a5.6,5.6,0,0,0,.68-2.69A5.68,5.68,0,0,0,199.77,17.47Zm0,8.5a2.83,2.83,0,1,1,2.83-2.83A2.84,2.84,0,0,1,199.77,26Z"/><path class="cls-2" d="M178.77,33.47a5.68,5.68,0,0,0-5.67,5.67,5.6,5.6,0,0,0,.68,2.69l4.68,8.46a.35.35,0,0,0,.31.18.37.37,0,0,0,.31-.18l4.67-8.46a5.6,5.6,0,0,0,.68-2.69A5.68,5.68,0,0,0,178.77,33.47Zm0,8.5a2.83,2.83,0,1,1,2.83-2.83A2.84,2.84,0,0,1,178.77,42Z"/><path class="cls-2" d="M181.77,71.47a5.68,5.68,0,0,0-5.67,5.67,5.6,5.6,0,0,0,.68,2.69l4.68,8.46a.35.35,0,0,0,.31.18.37.37,0,0,0,.31-.18l4.67-8.46a5.6,5.6,0,0,0,.68-2.69A5.68,5.68,0,0,0,181.77,71.47Zm0,8.5a2.83,2.83,0,1,1,2.83-2.83A2.84,2.84,0,0,1,181.77,80Z"/><path class="cls-2" d="M205.77,137.47a5.68,5.68,0,0,0-5.67,5.67,5.6,5.6,0,0,0,.68,2.69l4.68,8.46a.35.35,0,0,0,.31.18.37.37,0,0,0,.31-.18l4.67-8.46a5.6,5.6,0,0,0,.68-2.69A5.68,5.68,0,0,0,205.77,137.47Zm0,8.5a2.83,2.83,0,1,1,2.83-2.83A2.84,2.84,0,0,1,205.77,146Z"/><path class="cls-2" d="M184.77,189.47a5.68,5.68,0,0,0-5.67,5.67,5.6,5.6,0,0,0,.68,2.69l4.68,8.46a.35.35,0,0,0,.31.18.37.37,0,0,0,.31-.18l4.67-8.46a5.6,5.6,0,0,0,.68-2.69A5.68,5.68,0,0,0,184.77,189.47Zm0,8.5a2.83,2.83,0,1,1,2.83-2.83A2.84,2.84,0,0,1,184.77,198Z"/><path class="cls-2" d="M196.77,221.47a5.68,5.68,0,0,0-5.67,5.67,5.6,5.6,0,0,0,.68,2.69l4.68,8.46a.35.35,0,0,0,.31.18.37.37,0,0,0,.31-.18l4.67-8.46a5.6,5.6,0,0,0,.68-2.69A5.68,5.68,0,0,0,196.77,221.47Zm0,8.5a2.83,2.83,0,1,1,2.83-2.83A2.84,2.84,0,0,1,196.77,230Z"/><path class="cls-2" d="M178.77,271.47a5.68,5.68,0,0,0-5.67,5.67,5.6,5.6,0,0,0,.68,2.69l4.68,8.46a.35.35,0,0,0,.31.18.37.37,0,0,0,.31-.18l4.67-8.46a5.6,5.6,0,0,0,.68-2.69A5.68,5.68,0,0,0,178.77,271.47Zm0,8.5a2.83,2.83,0,1,1,2.83-2.83A2.84,2.84,0,0,1,178.77,280Z"/><path class="cls-2" d="M231.77,280.47a5.68,5.68,0,0,0-5.67,5.67,5.6,5.6,0,0,0,.68,2.69l4.68,8.46a.35.35,0,0,0,.31.18.37.37,0,0,0,.31-.18l4.67-8.46a5.6,5.6,0,0,0,.68-2.69A5.68,5.68,0,0,0,231.77,280.47Zm0,8.5a2.83,2.83,0,1,1,2.83-2.83A2.84,2.84,0,0,1,231.77,289Z"/><path class="cls-2" d="M272.77,318.47a5.68,5.68,0,0,0-5.67,5.67,5.6,5.6,0,0,0,.68,2.69l4.68,8.46a.35.35,0,0,0,.31.18.37.37,0,0,0,.31-.18l4.67-8.46a5.6,5.6,0,0,0,.68-2.69A5.68,5.68,0,0,0,272.77,318.47Zm0,8.5a2.83,2.83,0,1,1,2.83-2.83A2.84,2.84,0,0,1,272.77,327Z"/><path class="cls-2" d="M326.77,291.47a5.68,5.68,0,0,0-5.67,5.67,5.6,5.6,0,0,0,.68,2.69l4.68,8.46a.35.35,0,0,0,.31.18.37.37,0,0,0,.31-.18l4.67-8.46a5.6,5.6,0,0,0,.68-2.69A5.68,5.68,0,0,0,326.77,291.47Zm0,8.5a2.83,2.83,0,1,1,2.83-2.83A2.84,2.84,0,0,1,326.77,300Z"/><path class="cls-2" d="M293.77,265.47a5.68,5.68,0,0,0-5.67,5.67,5.6,5.6,0,0,0,.68,2.69l4.68,8.46a.35.35,0,0,0,.31.18.37.37,0,0,0,.31-.18l4.67-8.46a5.6,5.6,0,0,0,.68-2.69A5.68,5.68,0,0,0,293.77,265.47Zm0,8.5a2.83,2.83,0,1,1,2.83-2.83A2.84,2.84,0,0,1,293.77,274Z"/><path class="cls-2" d="M345.77,265.47a5.68,5.68,0,0,0-5.67,5.67,5.6,5.6,0,0,0,.68,2.69l4.68,8.46a.35.35,0,0,0,.31.18.37.37,0,0,0,.31-.18l4.67-8.46a5.6,5.6,0,0,0,.68-2.69A5.68,5.68,0,0,0,345.77,265.47Zm0,8.5a2.83,2.83,0,1,1,2.83-2.83A2.84,2.84,0,0,1,345.77,274Z"/><path class="cls-2" d="M383.77,238.47a5.68,5.68,0,0,0-5.67,5.67,5.6,5.6,0,0,0,.68,2.69l4.68,8.46a.35.35,0,0,0,.31.18.37.37,0,0,0,.31-.18l4.67-8.46a5.6,5.6,0,0,0,.68-2.69A5.68,5.68,0,0,0,383.77,238.47Zm0,8.5a2.83,2.83,0,1,1,2.83-2.83A2.84,2.84,0,0,1,383.77,247Z"/><path class="cls-2" d="M394.77,197.47a5.68,5.68,0,0,0-5.67,5.67,5.6,5.6,0,0,0,.68,2.69l4.68,8.46a.35.35,0,0,0,.31.18.37.37,0,0,0,.31-.18l4.67-8.46a5.6,5.6,0,0,0,.68-2.69A5.68,5.68,0,0,0,394.77,197.47Zm0,8.5a2.83,2.83,0,1,1,2.83-2.83A2.84,2.84,0,0,1,394.77,206Z"/><path class="cls-2" d="M332.77,213.47a5.68,5.68,0,0,0-5.67,5.67,5.6,5.6,0,0,0,.68,2.69l4.68,8.46a.35.35,0,0,0,.31.18.37.37,0,0,0,.31-.18l4.67-8.46a5.6,5.6,0,0,0,.68-2.69A5.68,5.68,0,0,0,332.77,213.47Zm0,8.5a2.83,2.83,0,1,1,2.83-2.83A2.84,2.84,0,0,1,332.77,222Z"/><path class="cls-2" d="M252.77,230.47a5.68,5.68,0,0,0-5.67,5.67,5.6,5.6,0,0,0,.68,2.69l4.68,8.46a.35.35,0,0,0,.31.18.37.37,0,0,0,.31-.18l4.67-8.46a5.6,5.6,0,0,0,.68-2.69A5.68,5.68,0,0,0,252.77,230.47Zm0,8.5a2.83,2.83,0,1,1,2.83-2.83A2.84,2.84,0,0,1,252.77,239Z"/><path class="cls-2" d="M146.77,232.47a5.68,5.68,0,0,0-5.67,5.67,5.6,5.6,0,0,0,.68,2.69l4.68,8.46a.35.35,0,0,0,.31.18.37.37,0,0,0,.31-.18l4.67-8.46a5.6,5.6,0,0,0,.68-2.69A5.68,5.68,0,0,0,146.77,232.47Zm0,8.5a2.83,2.83,0,1,1,2.83-2.83A2.84,2.84,0,0,1,146.77,241Z"/><path class="cls-2" d="M83.77,210.47a5.68,5.68,0,0,0-5.67,5.67,5.6,5.6,0,0,0,.68,2.69l4.68,8.46a.35.35,0,0,0,.31.18.37.37,0,0,0,.31-.18l4.67-8.46a5.6,5.6,0,0,0,.68-2.69A5.68,5.68,0,0,0,83.77,210.47Zm0,8.5a2.83,2.83,0,1,1,2.83-2.83A2.84,2.84,0,0,1,83.77,219Z"/><path class="cls-2" d="M59.77,175.47a5.68,5.68,0,0,0-5.67,5.67,5.6,5.6,0,0,0,.68,2.69l4.68,8.46a.35.35,0,0,0,.31.18.37.37,0,0,0,.31-.18l4.67-8.46a5.6,5.6,0,0,0,.68-2.69A5.68,5.68,0,0,0,59.77,175.47Zm0,8.5a2.83,2.83,0,1,1,2.83-2.83A2.84,2.84,0,0,1,59.77,184Z"/><path class="cls-2" d="M34.77,134.47a5.68,5.68,0,0,0-5.67,5.67,5.6,5.6,0,0,0,.68,2.69l4.68,8.46a.35.35,0,0,0,.31.18.37.37,0,0,0,.31-.18l4.67-8.46a5.6,5.6,0,0,0,.68-2.69A5.68,5.68,0,0,0,34.77,134.47Zm0,8.5a2.83,2.83,0,1,1,2.83-2.83A2.84,2.84,0,0,1,34.77,143Z"/><path class="cls-2" d="M48.77,79.47a5.68,5.68,0,0,0-5.67,5.67,5.6,5.6,0,0,0,.68,2.69l4.68,8.46a.35.35,0,0,0,.31.18.37.37,0,0,0,.31-.18l4.67-8.46a5.6,5.6,0,0,0,.68-2.69A5.68,5.68,0,0,0,48.77,79.47Zm0,8.5a2.83,2.83,0,1,1,2.83-2.83A2.84,2.84,0,0,1,48.77,88Z"/><path class="cls-2" d="M80.77,88.47a5.68,5.68,0,0,0-5.67,5.67,5.6,5.6,0,0,0,.68,2.69l4.68,8.46a.35.35,0,0,0,.31.18.37.37,0,0,0,.31-.18l4.67-8.46a5.6,5.6,0,0,0,.68-2.69A5.68,5.68,0,0,0,80.77,88.47Zm0,8.5a2.83,2.83,0,1,1,2.83-2.83A2.84,2.84,0,0,1,80.77,97Z"/><path class="cls-2" d="M70.77,134.47a5.68,5.68,0,0,0-5.67,5.67,5.6,5.6,0,0,0,.68,2.69l4.68,8.46a.35.35,0,0,0,.31.18.37.37,0,0,0,.31-.18l4.67-8.46a5.6,5.6,0,0,0,.68-2.69A5.68,5.68,0,0,0,70.77,134.47Zm0,8.5a2.83,2.83,0,1,1,2.83-2.83A2.84,2.84,0,0,1,70.77,143Z"/><path class="cls-2" d="M143.77,102.47a5.68,5.68,0,0,0-5.67,5.67,5.6,5.6,0,0,0,.68,2.69l4.68,8.46a.35.35,0,0,0,.31.18.37.37,0,0,0,.31-.18l4.67-8.46a5.6,5.6,0,0,0,.68-2.69A5.68,5.68,0,0,0,143.77,102.47Zm0,8.5a2.83,2.83,0,1,1,2.83-2.83A2.84,2.84,0,0,1,143.77,111Z"/><path class="cls-2" d="M105.77,146.47a5.68,5.68,0,0,0-5.67,5.67,5.6,5.6,0,0,0,.68,2.69l4.68,8.46a.35.35,0,0,0,.31.18.37.37,0,0,0,.31-.18l4.67-8.46a5.6,5.6,0,0,0,.68-2.69A5.68,5.68,0,0,0,105.77,146.47Zm0,8.5a2.83,2.83,0,1,1,2.83-2.83A2.84,2.84,0,0,1,105.77,155Z"/><path class="cls-2" d="M135.77,36.47a5.68,5.68,0,0,0-5.67,5.67,5.6,5.6,0,0,0,.68,2.69l4.68,8.46a.35.35,0,0,0,.31.18.37.37,0,0,0,.31-.18l4.67-8.46a5.6,5.6,0,0,0,.68-2.69A5.68,5.68,0,0,0,135.77,36.47Zm0,8.5a2.83,2.83,0,1,1,2.83-2.83A2.84,2.84,0,0,1,135.77,45Z"/><path class="cls-2" d="M234.77,71.47a5.68,5.68,0,0,0-5.67,5.67,5.6,5.6,0,0,0,.68,2.69l4.68,8.46a.35.35,0,0,0,.31.18.37.37,0,0,0,.31-.18l4.67-8.46a5.6,5.6,0,0,0,.68-2.69A5.68,5.68,0,0,0,234.77,71.47Zm0,8.5a2.83,2.83,0,1,1,2.83-2.83A2.84,2.84,0,0,1,234.77,80Z"/><path class="cls-2" d="M307.77,71.47a5.68,5.68,0,0,0-5.67,5.67,5.6,5.6,0,0,0,.68,2.69l4.68,8.46a.35.35,0,0,0,.31.18.37.37,0,0,0,.31-.18l4.67-8.46a5.6,5.6,0,0,0,.68-2.69A5.68,5.68,0,0,0,307.77,71.47Zm0,8.5a2.83,2.83,0,1,1,2.83-2.83A2.84,2.84,0,0,1,307.77,80Z"/><path class="cls-2" d="M280.77,99.47a5.68,5.68,0,0,0-5.67,5.67,5.6,5.6,0,0,0,.68,2.69l4.68,8.46a.35.35,0,0,0,.31.18.37.37,0,0,0,.31-.18l4.67-8.46a5.6,5.6,0,0,0,.68-2.69A5.68,5.68,0,0,0,280.77,99.47Zm0,8.5a2.83,2.83,0,1,1,2.83-2.83A2.84,2.84,0,0,1,280.77,108Z"/><path class="cls-2" d="M240.77,160.47a5.68,5.68,0,0,0-5.67,5.67,5.6,5.6,0,0,0,.68,2.69l4.68,8.46a.35.35,0,0,0,.31.18.37.37,0,0,0,.31-.18l4.67-8.46a5.6,5.6,0,0,0,.68-2.69A5.68,5.68,0,0,0,240.77,160.47Zm0,8.5a2.83,2.83,0,1,1,2.83-2.83A2.84,2.84,0,0,1,240.77,169Z"/><path class="cls-2" d="M293.77,184.47a5.68,5.68,0,0,0-5.67,5.67,5.6,5.6,0,0,0,.68,2.69l4.68,8.46a.35.35,0,0,0,.31.18.37.37,0,0,0,.31-.18l4.67-8.46a5.6,5.6,0,0,0,.68-2.69A5.68,5.68,0,0,0,293.77,184.47Zm0,8.5a2.83,2.83,0,1,1,2.83-2.83A2.84,2.84,0,0,1,293.77,193Z"/><path class="cls-2" d="M351.77,105.47a5.68,5.68,0,0,0-5.67,5.67,5.6,5.6,0,0,0,.68,2.69l4.68,8.46a.35.35,0,0,0,.31.18.37.37,0,0,0,.31-.18l4.67-8.46a5.6,5.6,0,0,0,.68-2.69A5.68,5.68,0,0,0,351.77,105.47Zm0,8.5a2.83,2.83,0,1,1,2.83-2.83A2.84,2.84,0,0,1,351.77,114Z"/></svg>