<svg id="Слой_1" data-name="Слой 1" xmlns="http://www.w3.org/2000/svg" viewBox="0 0 260.34 350"><defs><style>.cls-1{fill:#dadada;fill-rule:evenodd;}.cls-2{fill:#d32825;}</style></defs><title>region-3</title><path class="cls-1" d="M64.2,0,46.15,16.59l-35.57,41L0,90.26,15.24,136.9l19,24.4,11.85,10.92,1.57,1.46-.71,2.06L34.88,210l-.13.42-.22.29L18,235.92,85.75,350,133,321.76l.75-.44.85,0,59.91-2,65.86-39.71L246.57,241,182.1,158.42l-31.89-13.95-.65-.28-.48-.5L124.6,117.15l-1.85-2,1.64-2.2,18-24,7.56-30.21-15-15L102.58,70.51l-2.38,2-2.11-2.23L67.45,37.57l-.8-.86-.09-1.18Z"/><path class="cls-2" d="M63.05,207.21a5.67,5.67,0,0,0-5,8.36L62.74,224a.37.37,0,0,0,.31.18.35.35,0,0,0,.31-.18L68,215.57a5.67,5.67,0,0,0-5-8.36Zm0,8.5a2.84,2.84,0,1,1,2.84-2.83A2.83,2.83,0,0,1,63.05,215.71Z"/><path class="cls-2" d="M52.05,37.21a5.67,5.67,0,0,0-5,8.36L51.74,54a.37.37,0,0,0,.31.18.35.35,0,0,0,.31-.18L57,45.57a5.67,5.67,0,0,0-5-8.36Zm0,8.5a2.84,2.84,0,1,1,2.84-2.83A2.83,2.83,0,0,1,52.05,45.71Z"/><path class="cls-2" d="M124.05,66.21a5.67,5.67,0,0,0-5,8.36L123.74,83a.37.37,0,0,0,.31.18.35.35,0,0,0,.31-.18L129,74.57a5.67,5.67,0,0,0-5-8.36Zm0,8.5a2.84,2.84,0,1,1,2.84-2.83A2.83,2.83,0,0,1,124.05,74.71Z"/><path class="cls-2" d="M84.05,106.21a5.67,5.67,0,0,0-5,8.36L83.74,123a.37.37,0,0,0,.31.18.35.35,0,0,0,.31-.18L89,114.57a5.67,5.67,0,0,0-5-8.36Zm0,8.5a2.84,2.84,0,1,1,2.84-2.83A2.83,2.83,0,0,1,84.05,114.71Z"/><path class="cls-2" d="M58.05,83.21a5.67,5.67,0,0,0-5,8.36L57.74,100a.37.37,0,0,0,.31.18.35.35,0,0,0,.31-.18L63,91.57a5.67,5.67,0,0,0-5-8.36Zm0,8.5a2.84,2.84,0,1,1,2.84-2.83A2.83,2.83,0,0,1,58.05,91.71Z"/><path class="cls-2" d="M41.05,126.21a5.67,5.67,0,0,0-5,8.36L40.74,143a.37.37,0,0,0,.31.18.35.35,0,0,0,.31-.18L46,134.57a5.67,5.67,0,0,0-5-8.36Zm0,8.5a2.84,2.84,0,1,1,2.84-2.83A2.83,2.83,0,0,1,41.05,134.71Z"/><path class="cls-2" d="M74.05,135.21a5.67,5.67,0,0,0-5,8.36L73.74,152a.37.37,0,0,0,.31.18.35.35,0,0,0,.31-.18L79,143.57a5.67,5.67,0,0,0-5-8.36Zm0,8.5a2.84,2.84,0,1,1,2.84-2.83A2.83,2.83,0,0,1,74.05,143.71Z"/><path class="cls-2" d="M118.05,144.21a5.67,5.67,0,0,0-5,8.36l4.67,8.46a.37.37,0,0,0,.31.18.35.35,0,0,0,.31-.18l4.68-8.46a5.67,5.67,0,0,0-5-8.36Zm0,8.5a2.84,2.84,0,1,1,2.84-2.83A2.83,2.83,0,0,1,118.05,152.71Z"/><path class="cls-2" d="M71.05,171.21a5.67,5.67,0,0,0-5,8.36L70.74,188a.37.37,0,0,0,.31.18.35.35,0,0,0,.31-.18L76,179.57a5.67,5.67,0,0,0-5-8.36Zm0,8.5a2.84,2.84,0,1,1,2.84-2.83A2.83,2.83,0,0,1,71.05,179.71Z"/><path class="cls-2" d="M104.05,193.21a5.67,5.67,0,0,0-5,8.36l4.67,8.46a.37.37,0,0,0,.31.18.35.35,0,0,0,.31-.18l4.68-8.46a5.67,5.67,0,0,0-5-8.36Zm0,8.5a2.84,2.84,0,1,1,2.84-2.83A2.83,2.83,0,0,1,104.05,201.71Z"/><path class="cls-2" d="M154.05,190.21a5.67,5.67,0,0,0-5,8.36l4.67,8.46a.37.37,0,0,0,.31.18.35.35,0,0,0,.31-.18l4.68-8.46a5.67,5.67,0,0,0-5-8.36Zm0,8.5a2.84,2.84,0,1,1,2.84-2.83A2.83,2.83,0,0,1,154.05,198.71Z"/><path class="cls-2" d="M189.05,207.21a5.67,5.67,0,0,0-5,8.36l4.67,8.46a.37.37,0,0,0,.31.18.35.35,0,0,0,.31-.18l4.68-8.46a5.67,5.67,0,0,0-5-8.36Zm0,8.5a2.84,2.84,0,1,1,2.84-2.83A2.83,2.83,0,0,1,189.05,215.71Z"/><path class="cls-2" d="M230.05,258.21a5.67,5.67,0,0,0-5,8.36l4.67,8.46a.37.37,0,0,0,.31.18.35.35,0,0,0,.31-.18l4.68-8.46a5.67,5.67,0,0,0-5-8.36Zm0,8.5a2.84,2.84,0,1,1,2.84-2.83A2.83,2.83,0,0,1,230.05,266.71Z"/><path class="cls-2" d="M90.05,315.21a5.67,5.67,0,0,0-5,8.36L89.74,332a.37.37,0,0,0,.31.18.35.35,0,0,0,.31-.18L95,323.57a5.67,5.67,0,0,0-5-8.36Zm0,8.5a2.84,2.84,0,1,1,2.84-2.83A2.83,2.83,0,0,1,90.05,323.71Z"/><path class="cls-2" d="M87.05,282.21a5.67,5.67,0,0,0-5,8.36L86.74,299a.37.37,0,0,0,.31.18.35.35,0,0,0,.31-.18L92,290.57a5.67,5.67,0,0,0-5-8.36Zm0,8.5a2.84,2.84,0,1,1,2.84-2.83A2.83,2.83,0,0,1,87.05,290.71Z"/><path class="cls-2" d="M71.05,258.21a5.67,5.67,0,0,0-5,8.36L70.74,275a.37.37,0,0,0,.31.18.35.35,0,0,0,.31-.18L76,266.57a5.67,5.67,0,0,0-5-8.36Zm0,8.5a2.84,2.84,0,1,1,2.84-2.83A2.83,2.83,0,0,1,71.05,266.71Z"/><path class="cls-2" d="M101.05,241.21a5.67,5.67,0,0,0-5,8.36l4.67,8.46a.37.37,0,0,0,.31.18.35.35,0,0,0,.31-.18l4.68-8.46a5.67,5.67,0,0,0-5-8.36Zm0,8.5a2.84,2.84,0,1,1,2.84-2.83A2.83,2.83,0,0,1,101.05,249.71Z"/><path class="cls-2" d="M143.05,238.21a5.67,5.67,0,0,0-5,8.36l4.67,8.46a.37.37,0,0,0,.31.18.35.35,0,0,0,.31-.18l4.68-8.46a5.67,5.67,0,0,0-5-8.36Zm0,8.5a2.84,2.84,0,1,1,2.84-2.83A2.83,2.83,0,0,1,143.05,246.71Z"/><path class="cls-2" d="M124.05,267.21a5.67,5.67,0,0,0-5,8.36l4.67,8.46a.37.37,0,0,0,.31.18.35.35,0,0,0,.31-.18l4.68-8.46a5.67,5.67,0,0,0-5-8.36Zm0,8.5a2.84,2.84,0,1,1,2.84-2.83A2.83,2.83,0,0,1,124.05,275.71Z"/><path class="cls-2" d="M115.05,291.21a5.67,5.67,0,0,0-5,8.36l4.67,8.46a.37.37,0,0,0,.31.18.35.35,0,0,0,.31-.18l4.68-8.46a5.67,5.67,0,0,0-5-8.36Zm0,8.5a2.84,2.84,0,1,1,2.84-2.83A2.83,2.83,0,0,1,115.05,299.71Z"/><path class="cls-2" d="M157.05,297.21a5.67,5.67,0,0,0-5,8.36l4.67,8.46a.37.37,0,0,0,.31.18.35.35,0,0,0,.31-.18l4.68-8.46a5.67,5.67,0,0,0-5-8.36Zm0,8.5a2.84,2.84,0,1,1,2.84-2.83A2.83,2.83,0,0,1,157.05,305.71Z"/><path class="cls-2" d="M157.05,273.21a5.67,5.67,0,0,0-5,8.36l4.67,8.46a.37.37,0,0,0,.31.18.35.35,0,0,0,.31-.18l4.68-8.46a5.67,5.67,0,0,0-5-8.36Zm0,8.5a2.84,2.84,0,1,1,2.84-2.83A2.83,2.83,0,0,1,157.05,281.71Z"/><path class="cls-2" d="M195.05,252.21a5.67,5.67,0,0,0-5,8.36l4.67,8.46a.37.37,0,0,0,.31.18.35.35,0,0,0,.31-.18l4.68-8.46a5.67,5.67,0,0,0-5-8.36Zm0,8.5a2.84,2.84,0,1,1,2.84-2.83A2.83,2.83,0,0,1,195.05,260.71Z"/></svg>