<svg width="19" height="28" viewBox="0 0 19 28" fill="none" xmlns="http://www.w3.org/2000/svg">
<path d="M9.13415 0C4.09768 0 0 4.09768 0 9.13416C0 10.6461 0.378014 12.1452 1.09663 13.4749L8.63465 27.108C8.735 27.2898 8.92623 27.4024 9.13415 27.4024C9.34208 27.4024 9.53331 27.2898 9.63366 27.108L17.1745 13.4704C17.8903 12.1452 18.2683 10.6461 18.2683 9.1341C18.2683 4.09768 14.1706 0 9.13415 0ZM9.13415 13.7012C6.61592 13.7012 4.5671 11.6524 4.5671 9.13416C4.5671 6.61592 6.61592 4.5671 9.13415 4.5671C11.6524 4.5671 13.7012 6.61592 13.7012 9.13416C13.7012 11.6524 11.6524 13.7012 9.13415 13.7012Z" fill="#D32825"/>
</svg>
