<svg width="67" height="42" viewBox="0 0 67 42" fill="none" xmlns="http://www.w3.org/2000/svg">
<path d="M40 39L42 41L56.5 33L42 13L40.5 14.5L40 39Z" fill="#FF8C2B"/>
<path d="M65.2818 24.1367L44.1044 12.4347C43.5898 12.1503 43.0043 12 42.4114 12C41.8109 12 41.2189 12.154 40.6994 12.4453C39.6512 13.0332 39 14.1262 39 15.2978V38.702C39 39.8735 39.6512 40.9665 40.6992 41.5544C41.2186 41.846 41.8107 42 42.4113 42C43.0038 42 43.5894 41.8496 44.1043 41.5652L65.2814 29.863C66.3415 29.2771 67 28.1802 67 26.9999C67 25.8196 66.3418 24.7226 65.2818 24.1367ZM56.1049 21.3697L53.1972 25.285L46.242 15.9197L56.1049 21.3697ZM42.2779 39.9885C42.0888 39.9707 41.9033 39.9174 41.7376 39.8245C41.3252 39.5931 41.069 39.163 41.069 38.702V15.2977C41.069 14.8367 41.3252 14.4066 41.7378 14.1753C41.9029 14.0826 42.0869 14.0274 42.276 14.0086L51.9237 26.9999L42.2779 39.9885ZM46.242 38.0802L53.1972 28.7147L56.1049 32.63L46.242 38.0802ZM64.2549 28.1264L57.9107 31.6321L54.4705 26.9999L57.9107 22.3676L64.2549 25.8733C64.672 26.1038 64.9312 26.5355 64.9312 26.9999C64.9312 27.4643 64.6721 27.896 64.2549 28.1264Z" fill="#191818"/>
<path d="M22.2578 0H5.74219C2.57595 0 0 2.57595 0 5.74219V22.2578C0 25.4241 2.57595 28 5.74219 28H22.2578C25.4241 28 28 25.4241 28 22.2578V5.74219C28 2.57595 25.4241 0 22.2578 0ZM26.3594 22.2578C26.3594 24.5194 24.5194 26.3594 22.2578 26.3594H5.74219C3.48059 26.3594 1.64062 24.5194 1.64062 22.2578V5.74219C1.64062 3.48059 3.48059 1.64062 5.74219 1.64062H22.2578C24.5194 1.64062 26.3594 3.48059 26.3594 5.74219V22.2578Z" fill="#191818"/>
<path d="M14.8388 9.27539L11.1289 15.7677V18.0864H19.4762L14.8388 9.27539Z" fill="#FF8C2B"/>
<path d="M16.715 6.75329C16.6205 6.40056 16.3943 6.10569 16.078 5.92314C15.4253 5.54623 14.5875 5.77062 14.2104 6.42358L14 6.78802L13.7896 6.42353C13.4126 5.77072 12.5748 5.54623 11.922 5.92308H11.9219C11.2691 6.30004 11.0446 7.1378 11.4215 7.79072L12.4213 9.52234L8.73239 15.9118H6.04297C5.2891 15.9118 4.67578 16.5251 4.67578 17.2789C4.67578 18.0328 5.2891 18.6461 6.04297 18.6461H16.4259L14.8472 15.9118H11.8898L16.5784 7.79077C16.761 7.47451 16.8096 7.10603 16.715 6.75329Z" fill="#191818"/>
<path d="M21.9583 15.9147H19.2689L16.2115 10.6191L14.6328 13.3535L19.3799 21.5757C19.5625 21.892 19.8573 22.1182 20.2101 22.2128C20.3279 22.2443 20.4474 22.26 20.5662 22.26C20.8031 22.26 21.0369 22.1979 21.2476 22.0762C21.9005 21.6992 22.1249 20.8614 21.748 20.2086L20.8476 18.6491H21.9583C22.7122 18.6491 23.3255 18.0358 23.3255 17.2819C23.3255 16.5281 22.7122 15.9147 21.9583 15.9147Z" fill="#191818"/>
<path d="M6.52209 19.7422L6.25319 20.2079C5.87629 20.8608 6.10078 21.6986 6.75364 22.0755C6.9684 22.1995 7.20311 22.2584 7.43493 22.2584C7.90776 22.2584 8.36829 22.0131 8.62127 21.575L9.67947 19.7422H6.52209Z" fill="#191818"/>
</svg>
