<svg width="50" height="50" viewBox="0 0 50 50" fill="none" xmlns="http://www.w3.org/2000/svg">
<path d="M42.0873 30.8028C45.3003 30.8028 47.905 28.1943 47.905 24.9766C47.905 21.7589 45.3003 19.1504 42.0873 19.1504C38.8742 19.1504 36.2695 21.7589 36.2695 24.9766C36.2695 28.1943 38.8742 30.8028 42.0873 30.8028Z" fill="#FF8C2B"/>
<path d="M13.299 19.3574H2.07812V30.5932H13.299V19.3574Z" fill="#FF8C2B"/>
<path d="M42.0964 32.8856C46.4527 32.8856 49.9975 29.3366 49.9975 24.975C49.9975 20.6144 46.4527 17.0664 42.0964 17.0664C37.7401 17.0664 34.1953 20.6144 34.1953 24.975C34.1953 29.3376 37.7401 32.8856 42.0964 32.8856ZM42.0964 21.2342C44.1558 21.2342 45.8308 22.9124 45.8308 24.976C45.8308 27.0396 44.1558 28.7199 42.0964 28.7199C40.037 28.7199 38.362 27.0407 38.362 24.976C38.362 22.9124 40.037 21.2342 42.0964 21.2342Z" fill="#191818"/>
<path d="M17.7366 49.391C18.1428 49.7972 18.6762 50.0004 19.2085 50.0004C19.7418 50.0004 20.2751 49.7962 20.6824 49.3889L24.9752 45.0908L29.2679 49.3889C29.6752 49.7962 30.2085 50.0004 30.7419 50.0004C31.2742 50.0004 31.8075 49.7972 32.2137 49.391C33.0283 48.5784 33.0294 47.2586 32.2158 46.445L27.9189 42.1428L32.2158 37.8406C33.0294 37.027 33.0283 35.7072 32.2137 34.8947C31.4002 34.0811 30.0814 34.0822 29.2679 34.8968L24.9752 39.1948L20.6824 34.8968C19.8699 34.0832 18.5512 34.0822 17.7366 34.8947C16.922 35.7072 16.921 37.027 17.7345 37.8406L22.0314 42.1428L17.7345 46.445C16.921 47.2586 16.922 48.5784 17.7366 49.391Z" fill="#191818"/>
<path d="M19.2074 15.7172H30.7428C31.4647 15.7172 32.1345 15.3432 32.5147 14.7296C32.8939 14.1161 32.9293 13.3494 32.6064 12.7035L26.8376 1.15212C26.4845 0.445847 25.7626 0 24.973 0C24.1834 0 23.4616 0.446889 23.1084 1.15212L17.3407 12.7035C17.0178 13.3494 17.0532 14.1161 17.4324 14.7296C17.8147 15.3432 18.4855 15.7172 19.2074 15.7172ZM24.9751 6.74604L27.3741 11.5504H22.5761L24.9751 6.74604Z" fill="#191818"/>
<path d="M2.08334 32.678H13.3042C14.4542 32.678 15.3876 31.7446 15.3876 30.5946V19.3588C15.3876 18.2088 14.4542 17.2754 13.3042 17.2754H2.08334C0.933338 17.2754 0 18.2088 0 19.3588V30.5946C0 31.7456 0.933338 32.678 2.08334 32.678ZM4.16669 21.4422H11.2209V28.5112H4.16669V21.4422Z" fill="#191818"/>
</svg>
