<svg width="42" height="42" viewBox="0 0 42 42" fill="none" xmlns="http://www.w3.org/2000/svg">
<path d="M36.4219 21.9023C35.5158 21.9023 34.7812 21.1678 34.7812 20.2617V16.4062C34.7812 12.7877 31.8373 9.84375 28.2188 9.84375H13.9453C10.3267 9.84375 7.38281 12.7877 7.38281 16.4062V20.2617C7.38281 21.1678 6.6483 21.9023 5.74219 21.9023C4.83607 21.9023 4.10156 21.1678 4.10156 20.2617V16.4062C4.10156 10.9784 8.51747 6.5625 13.9453 6.5625H28.2188C33.6466 6.5625 38.0625 10.9784 38.0625 16.4062V20.2617C38.0625 21.1678 37.328 21.9023 36.4219 21.9023ZM42 32.1562V30.5156C42 27.3494 39.4241 24.7734 36.2578 24.7734H30.9355C28.4422 24.7734 26.1337 26.1959 25.054 28.3972C24.2891 29.9569 22.7356 30.9258 21 30.9258C19.2644 30.9258 17.7109 29.9569 16.946 28.3972C15.8663 26.1959 13.5577 24.7734 11.0645 24.7734H5.74219C2.57595 24.7734 0 27.3494 0 30.5156V32.1562C0 37.5841 4.41591 42 9.84375 42H32.1562C37.5841 42 42 37.5841 42 32.1562ZM11.0645 28.0547C12.3152 28.0547 13.4675 28.7563 13.9999 29.8421C14.6322 31.1314 15.6078 32.2208 16.8211 32.9928C18.0695 33.7871 19.5147 34.207 21 34.207C22.4853 34.207 23.9305 33.7871 25.1789 32.9927C26.3922 32.2207 27.3678 31.1313 28.0001 29.8421C28.5325 28.7562 29.6848 28.0546 30.9355 28.0546H36.2578C37.6148 28.0546 38.7188 29.1586 38.7188 30.5155V32.1562C38.7188 35.7747 35.7748 38.7187 32.1562 38.7187H9.84375C6.22519 38.7187 3.28125 35.7747 3.28125 32.1562V30.5155C3.28125 29.1586 4.38523 28.0546 5.74219 28.0546L11.0645 28.0547ZM36.8495 6.13905C37.567 5.58575 37.7002 4.55552 37.1469 3.838C35.266 1.39888 32.4239 0 29.3491 0H12.7148C9.64015 0 6.79801 1.39888 4.91712 3.838C4.36382 4.55552 4.49695 5.58575 5.21448 6.13905C5.93209 6.69244 6.9624 6.55922 7.51554 5.84169C8.77029 4.21444 10.6655 3.28125 12.7148 3.28125H29.3491C31.3985 3.28125 33.2937 4.21444 34.5484 5.84169C34.8716 6.26087 35.3575 6.48055 35.8489 6.48055C36.1985 6.48055 36.5512 6.36915 36.8495 6.13905Z" fill="#191818"/>
<path d="M29.2422 17.9648C29.2422 17.0587 28.5077 16.3242 27.6016 16.3242H25.7969C24.8908 16.3242 24.1562 17.0587 24.1562 17.9648C24.1562 18.871 24.8908 19.6055 25.7969 19.6055H27.6016C28.5077 19.6055 29.2422 18.871 29.2422 17.9648ZM21.2031 17.9648C21.2031 17.0587 20.4686 16.3242 19.5625 16.3242H14.6406C13.7345 16.3242 13 17.0587 13 17.9648C13 18.871 13.7345 19.6055 14.6406 19.6055H19.5625C20.4686 19.6055 21.2031 18.871 21.2031 17.9648Z" fill="#FF8C2B"/>
</svg>
