<svg width="40" height="40" viewBox="0 0 40 40" fill="none" xmlns="http://www.w3.org/2000/svg">
<path d="M7.29616 40C5.51454 40 4.02436 39.538 2.84394 38.6163C0.956729 37.1423 0 34.5874 0 31.0223C0 27.8418 2.26655 25.1523 5.38911 24.6271C6.3611 24.4635 7.33095 24.2349 8.27212 23.9468C9.94631 23.4344 11.7493 23.8791 12.977 25.1068L14.6839 26.8021C15.1966 27.3145 15.9766 27.4139 16.5848 27.0483C20.6727 24.5886 24.5844 20.6769 27.0487 16.5842C27.4143 15.9763 27.3145 15.1962 26.8058 14.6875L25.1032 12.9733C23.8792 11.7493 23.4348 9.94659 23.9469 8.27209C24.235 7.33093 24.4639 6.36108 24.6271 5.3891C25.1523 2.26654 27.8419 0 31.0224 0C34.5875 0 37.1424 0.957031 38.6164 2.84393C40.0614 4.69421 40.3764 7.30682 39.5527 10.6088C38.2295 16.069 35.5934 21.3406 31.9294 25.8539C31.3856 26.5237 30.4014 26.626 29.7315 26.0822C29.0617 25.538 28.9594 24.5541 29.5033 23.884C32.8776 19.7278 35.3028 14.8807 36.5168 9.86694L36.5196 9.85596C37.0997 7.53357 36.9764 5.82153 36.1534 4.76746C35.3022 3.67767 33.5758 3.125 31.0224 3.125C29.3736 3.125 27.9801 4.29535 27.7088 5.90759C27.5233 7.01263 27.2629 8.11584 26.9355 9.1864C26.7622 9.75311 26.908 10.3589 27.3167 10.7672L29.0195 12.4817C30.5415 14.0039 30.8338 16.355 29.726 18.1958C27.0109 22.7054 22.7006 27.0157 18.1958 29.726C16.355 30.8337 14.0039 30.5414 12.4781 29.0155L10.7709 27.3203C10.3589 26.908 9.75344 26.7618 9.18643 26.9351C8.11587 27.2626 7.01265 27.5229 5.90761 27.7087C4.29536 27.98 3.12501 29.3735 3.12501 31.0223C3.12501 33.5757 3.67768 35.3021 4.76747 36.1533C5.82124 36.9763 7.53328 37.0996 9.85598 36.5195C14.7156 35.3061 18.7442 33.4227 22.8064 30.2354C23.4851 29.7026 24.4672 29.8213 25 30.5C25.5328 31.179 25.4144 32.1614 24.7354 32.6939C20.3299 36.1506 15.896 38.2324 10.6131 39.5517C9.41592 39.8508 8.30874 40 7.29616 40Z" fill="#191818"/>
</svg>
