<svg width="43" height="42" viewBox="0 0 43 42" fill="none" xmlns="http://www.w3.org/2000/svg">
<circle cx="20.9986" cy="21.0006" r="18.6666" fill="#FF8C2B"/>
<path d="M41.1299 24.9913L23.9561 12.5137L34.0408 5.18664C38.6054 8.95261 41.5184 14.648 41.5184 21.011C41.5184 22.3727 41.3844 23.7034 41.1299 24.9913Z" fill="#191818" stroke="#191818"/>
<path d="M21.0081 0.5C24.6377 0.5 28.0491 1.44772 31.0095 3.10844L13.8387 15.5839L9.9844 3.72257C13.1703 1.68359 16.9528 0.5 21.0081 0.5Z" fill="#191818" stroke="#191818"/>
<path d="M0.5 21.0106C0.5 15.0765 3.03338 9.72304 7.07723 5.97355L13.6342 26.152H1.15344C0.727523 24.5087 0.5 22.7861 0.5 21.0106Z" fill="#191818" stroke="#191818"/>
<path d="M23.6195 29.6133L19.7636 41.4808C12.0594 41.0172 5.48652 36.2812 2.39233 29.6133H23.6195Z" fill="#191818" stroke="#191818"/>
<path d="M29.9998 21.184L40.0953 28.5189C37.3773 35.4041 31.0371 40.4766 23.4386 41.3773L29.9998 21.184Z" fill="#191818" stroke="#191818"/>
</svg>
