<svg xmlns="http://www.w3.org/2000/svg" width="61" height="61" viewBox="0 0 61 61"><g><g><path fill="#2b97df" d="M56.77 15.868a29.852 29.852 0 0 1 1.262 26.504 9.013 9.013 0 0 1-.64 10.826 9.021 9.021 0 0 1-10.584 2.378 29.94 29.94 0 0 1-20.997 4.44 29.924 29.924 0 0 1-17.988-10.03 9.003 9.003 0 0 1-6.096-11.203A29.847 29.847 0 0 1 .52 30.385a30.176 30.176 0 0 1 2.792-12.668l.075-.16a9.658 9.658 0 0 1 1.186-2.064 1 1 0 0 1 .13-.392A29.84 29.84 0 0 1 22.313 1.53h.001a30 30 0 0 1 22.507 2.49 9.018 9.018 0 0 1 10.047 1.82 9.01 9.01 0 0 1 1.904 10.027zm-8.266-2.612a2.006 2.006 0 1 0 0-4.011 2.006 2.006 0 0 0 0 4.011zm-2.027 1.437zm0 0a5.078 5.078 0 0 0-2.651 2.781 6.98 6.98 0 0 0 9.354 0 5.077 5.077 0 0 0-2.651-2.781 3.89 3.89 0 0 1-4.052 0zm9.049-2.44a7.019 7.019 0 1 0-13.097 3.507 6.96 6.96 0 0 1 2.585-2.568 3.96 3.96 0 0 1-.523-1.942 4.012 4.012 0 0 1 8.025 0 3.961 3.961 0 0 1-.524 1.943 6.961 6.961 0 0 1 2.586 2.567 6.97 6.97 0 0 0 .948-3.507zm-25-9.858a27.96 27.96 0 0 0-6.12.672 5.466 5.466 0 0 0 3.255 1.305c.48.01.961-.013 1.439-.068a5.912 5.912 0 0 1 3.987.622 3.211 3.211 0 0 1 1.476 3.675c-.31.72-.795 1.351-1.41 1.837-.5.462-.828.784-.805 1.045.003.031.01.115.158.22.354.212.776.278 1.178.187.42-.116.828-.267 1.222-.453a7.64 7.64 0 0 1 1.943-.637 5.163 5.163 0 0 1 2.695.39 9.012 9.012 0 0 1 3.286-5.948 28.038 28.038 0 0 0-12.304-2.847zm-8.324 1.27A27.767 27.767 0 0 0 8.014 13.74a4.139 4.139 0 0 1 2.13.335 3.352 3.352 0 0 1 1.8 2.27 6.354 6.354 0 0 1-.542 3.795 4.092 4.092 0 0 0-.424 2.678c.27.707 1.096 1.245 2.599 1.692l.182.052a6.853 6.853 0 0 1 3.94 2.178c.542.836.89 1.783 1.017 2.772.087.623.268 1.229.537 1.798.7 1.255 2.417 1.761 4.115 2.171 2.018.491 4.036.99 6.054 1.497a5.948 5.948 0 0 0-.843-.954l-.494-.393c-1.42-1.115-3.187-2.501-3.187-4.88a3.303 3.303 0 0 1 5.148-2.903c.167.079.336.159.508.229.039.017.075.03.108.041-.141-1.144-.367-3.047 1.477-4.238a9.008 9.008 0 0 1 2.972-1.08c.503-.107.999-.242 1.486-.404a15.752 15.752 0 0 0 3.61-2.05c.309-.212.57-.367.84-.527.083-.05.165-.102.249-.152a8.961 8.961 0 0 1-1.735-4.23 3.825 3.825 0 0 0-2.421-.652 5.992 5.992 0 0 0-1.435.492 9.056 9.056 0 0 1-1.559.563 3.614 3.614 0 0 1-2.81-.507 2.308 2.308 0 0 1-.987-1.67 3.29 3.29 0 0 1 1.445-2.7c.36-.279.66-.629.877-1.029a1.264 1.264 0 0 0-.651-1.31 4.116 4.116 0 0 0-2.736-.323c-.57.065-1.143.09-1.715.075a7.401 7.401 0 0 1-5.367-2.712zM2.527 30.384c.003 1.89.198 3.775.581 5.626a9.025 9.025 0 0 1 10.819-2.981 9.018 9.018 0 0 1-3.036 17.305 27.931 27.931 0 0 0 11.353 6.772 3.991 3.991 0 0 1-.596-2.023c.045-.93.319-1.832.796-2.63.147-.334.255-.684.325-1.042a4.67 4.67 0 0 1 .973-2.194 4.946 4.946 0 0 1 1.632-1.09c.294-.127.576-.284.84-.467a5.714 5.714 0 0 0 1.428-1.733c.195-.341.37-.733.549-1.13a8.74 8.74 0 0 1 1.476-2.485c1.345-1.417 3.57-1.532 6.108-.317a16.985 16.985 0 0 1 4.715 3.16c.358.364.713.72 1.069 1.075a9.005 9.005 0 0 1 15.017-5.544 27.963 27.963 0 0 0-1.01-22.826A9 9 0 0 1 42.7 19.158c-.214.138-.43.268-.631.387-.228.135-.45.266-.65.403a17.845 17.845 0 0 1-4.142 2.334c-.56.19-1.132.348-1.712.47-.819.138-1.609.412-2.337.813-.676.436-.738.988-.573 2.325a2.038 2.038 0 0 1-.491 1.739 2.08 2.08 0 0 1-2.39.296c-.184-.076-.385-.17-.584-.264-.73-.343-1.04-.46-1.418-.302-.538.247-.88.789-.868 1.38 0 1.415 1.176 2.338 2.42 3.315l.529.419c.032.027 2.132 1.853 1.903 3.373-.083.54-.446.993-.955 1.19-.436.155-.911.161-1.351.018a757.486 757.486 0 0 0-6.555-1.623c-2.034-.491-4.298-1.181-5.393-3.143a7.947 7.947 0 0 1-.754-2.385 5.003 5.003 0 0 0-.663-1.971 5.341 5.341 0 0 0-2.877-1.442l-.194-.055c-1.362-.405-3.237-1.144-3.91-2.902a5.706 5.706 0 0 1 .414-4.082c.404-.806.572-1.71.484-2.607a1.372 1.372 0 0 0-.73-.963 2.823 2.823 0 0 0-2.224.136c-.24.102-.458.25-.642.435a6.076 6.076 0 0 0-1.2 1.95l-.075.162a28.155 28.155 0 0 0-2.604 11.82zm7.855 11.953a2.006 2.006 0 1 0 0 0zm-2.026 1.438a5.076 5.076 0 0 0-2.652 2.78 6.98 6.98 0 0 0 9.355 0 5.077 5.077 0 0 0-2.651-2.78 3.896 3.896 0 0 1-4.052 0zm2.026-9.46a7.01 7.01 0 0 0-6.085 3.506 7.004 7.004 0 0 0 .01 7.02 6.97 6.97 0 0 1 2.586-2.567 3.95 3.95 0 0 1-.524-1.942 4.012 4.012 0 0 1 8.025 0 3.961 3.961 0 0 1-.523 1.942 6.97 6.97 0 0 1 2.584 2.568 7.009 7.009 0 0 0-6.074-10.527zm20.144 24.068a27.87 27.87 0 0 0 14.366-3.977 9.03 9.03 0 0 1-3.239-5.31 65.58 65.58 0 0 1-2.595-2.538 15.255 15.255 0 0 0-4.154-2.756c-.801-.385-2.78-1.168-3.78-.112a7.362 7.362 0 0 0-1.105 1.933c-.197.437-.402.889-.638 1.303a7.64 7.64 0 0 1-1.951 2.328c-.371.268-.77.497-1.19.681a3.32 3.32 0 0 0-1.013.63 3.067 3.067 0 0 0-.507 1.312 6.571 6.571 0 0 1-.493 1.496 3.93 3.93 0 0 0-.573 1.7 3.327 3.327 0 0 0 1.522 2.277c.362.255.737.49 1.124.705 1.398.218 2.81.327 4.226.328zm15.306-5.81a6.982 6.982 0 0 0 9.356 0 5.076 5.076 0 0 0-2.653-2.78 3.893 3.893 0 0 1-4.051 0 5.075 5.075 0 0 0-2.652 2.78zm4.678-4.218a2.006 2.006 0 1 0 0-4.011 2.006 2.006 0 0 0 0 4.01zm6.074 2.503a7.019 7.019 0 0 0-1.556-8.897 7.025 7.025 0 0 0-9.036 0 7.02 7.02 0 0 0-1.557 8.897 6.976 6.976 0 0 1 2.585-2.567 3.961 3.961 0 0 1-.523-1.941 4.013 4.013 0 0 1 8.025 0A3.955 3.955 0 0 1 54 48.293a6.97 6.97 0 0 1 2.585 2.567z"/></g></g></svg>