<svg xmlns="http://www.w3.org/2000/svg" width="60" height="60" viewBox="0 0 60 60"><g><g><path fill="#2b97df" d="M59-.014a1 1 0 0 1 1 1v12a1 1 0 0 1-1 1h-6a1 1 0 0 1-1-1v-1h-.72l-1.337.799a9.024 9.024 0 0 1-7.943.648v7.552a1 1 0 0 1-1 1H11a1 1 0 0 1-1-1v-16a1 1 0 0 1 1-1h16.819l4.18-3.34a3.001 3.001 0 0 1 1.873-.659h14.656c.466 0 .925.108 1.341.316L52 1.368V.986a1 1 0 0 1 1-1zM40 19.985v-9.586l-.95.95a3 3 0 0 1-4.242-4.241l1.121-1.122H12v13.999zM52 9.979V3.604l-3.025-1.513a1.021 1.021 0 0 0-.447-.105H33.872a.999.999 0 0 0-.625.22l-2.226 1.78h6.908l.765-.765a1 1 0 0 1 1.414 1.414l-3.886 3.887a1 1 0 1 0 1.414 1.414l2.66-2.66 2-2a1 1 0 0 1 1.024-.241l1.1.368a5.03 5.03 0 0 0 3.162 0l1.1-.368a1.002 1.002 0 0 1 .632 1.9l-1.1.367a7.042 7.042 0 0 1-4.428 0l-.516-.172L42 8.4v2.878l.674.274a7.03 7.03 0 0 0 6.24-.482l1.57-.941a.994.994 0 0 1 .51-.144zm6-7.993h-4v10h4zm-32 8a1 1 0 1 0 0 2 2.993 2.993 0 0 1 1 5.815v1.184h-2V17.8a3 3 0 0 1-2-2.816h2a1 1 0 1 0 1-1 2.993 2.993 0 0 1-1-5.815V6.986h2V8.17a3 3 0 0 1 2 2.815h-2a1 1 0 0 0-1-1zm-6 2a1 1 0 0 1 0 2h-2a1 1 0 0 1 0-2zm14 0a1 1 0 0 1 0 2h-2a1 1 0 0 1 0-2zm7.458 35.77c.263.453.402.967.402 1.49a3.016 3.016 0 0 1-1.5 2.607l-13.4 7.729a2.924 2.924 0 0 1-1.5.4H10.61c-.598 0-1.182-.18-1.676-.516L8 58.846v.136a1 1 0 0 1-1 1H1a1 1 0 0 1-1-1v-12a1 1 0 0 1 1-1h6a1 1 0 0 1 1 1v.8a10.97 10.97 0 0 1 12.1.067l.2.134H28a3.001 3.001 0 0 1 2.931 2.373l6.427-3.7a2.99 2.99 0 0 1 4.1 1.1zM6 47.983H2v10h4zm33.36 2.133c.31-.181.5-.514.5-.874a.964.964 0 0 0-.135-.487.995.995 0 0 0-.61-.473.973.973 0 0 0-.747.1l-8.387 4.836c-.544.49-1.25.762-1.981.764h-6a1 1 0 1 1 0-2h6a1 1 0 1 0 0-2h-8c-.197 0-.39-.058-.554-.167l-.453-.3a8.976 8.976 0 0 0-9.985 0l-.454.3a1.004 1.004 0 0 1-.554.168v6.463l2.053 1.363a.977.977 0 0 0 .557.173h14.85a.929.929 0 0 0 .485-.127zM39 25.984a1 1 0 0 1 1 1v17.999a1 1 0 0 1-1 1H13a1 1 0 0 1-1-1V26.984a1 1 0 0 1 1-1zm-14 2v4h2v-4zm13 0h-9v5a1 1 0 0 1-1 1h-4a1 1 0 0 1-1-1v-5h-9v15.999h24zm-18 10a1 1 0 0 1 0 2h-4a1 1 0 0 1 0-2zm4 0a1 1 0 0 1 0 2h-1a1 1 0 0 1 0-2zm-4 3a1 1 0 0 1 0 2h-4a1 1 0 0 1 0-2zm4 0a1 1 0 1 1 0 2h-1a1 1 0 0 1 0-2z"/></g></g></svg>