<svg xmlns="http://www.w3.org/2000/svg" width="66" height="61" viewBox="0 0 66 61"><g><g><path fill="#2b97df" d="M65.512 50.293v9.217a1.27 1.27 0 1 1-2.54 0v-7.945H43.414v7.945a1.27 1.27 0 1 1-2.54 0v-9.217a1.27 1.27 0 0 1 1.27-1.27v-7.526c0-3.511 1.2-6.961 3.378-9.714l4.205-5.312a4.711 4.711 0 0 1 4.4-1.758 4.714 4.714 0 0 1 3.735 2.916 4.762 4.762 0 0 1-.442 4.434l-4.503 6.787a1.269 1.269 0 0 1-1.76.356 1.272 1.272 0 0 1-.356-1.763l4.504-6.787a2.22 2.22 0 0 0 .206-2.066 2.198 2.198 0 0 0-1.742-1.36 2.196 2.196 0 0 0-2.05.82l-4.206 5.312a13.16 13.16 0 0 0-2.829 8.135v7.525h19.558c.701 0 1.27.57 1.27 1.271zm-1.652-6.386c.236.236.372.564.372.899a1.274 1.274 0 0 1-1.27 1.271 1.27 1.27 0 1 1 .898-2.17zM45.637 8.336a5.401 5.401 0 0 1 2.415-6.905 5.424 5.424 0 0 1 4.386-.335 5.432 5.432 0 0 1 3.19 3.031l5.792 13.96A36.65 36.65 0 0 1 64.231 32.2v7.35a1.27 1.27 0 1 1-2.54 0v-7.35c0-4.533-.88-8.953-2.617-13.14l-5.791-13.96a2.848 2.848 0 0 0-1.695-1.61 2.843 2.843 0 0 0-2.331.179 2.87 2.87 0 0 0-1.284 3.668l6.133 14.394a1.27 1.27 0 1 1-2.336.997zm3.677 46.385a1.272 1.272 0 0 1-.937 2.13c-.343 0-.686-.14-.937-.413l-.01-.01a1.272 1.272 0 0 1 .08-1.797 1.269 1.269 0 0 1 1.794.08zm-24.188-4.428v9.216a1.27 1.27 0 1 1-2.54 0v-7.945H3.028v7.945a1.27 1.27 0 1 1-2.54 0v-9.216a1.27 1.27 0 0 1 1.27-1.271h.01v-16.82c0-4.87.946-9.618 2.812-14.115l5.791-13.96a5.432 5.432 0 0 1 3.19-3.031 5.425 5.425 0 0 1 4.387.335 5.402 5.402 0 0 1 2.415 6.905L14.23 22.73a1.27 1.27 0 1 1-2.336-.998l6.132-14.394a2.87 2.87 0 0 0-1.283-3.668 2.843 2.843 0 0 0-2.33-.179 2.848 2.848 0 0 0-1.696 1.61l-5.791 13.96a34.118 34.118 0 0 0-2.618 13.14v16.821h17.008v-7.525a13.16 13.16 0 0 0-2.83-8.135l-4.204-5.313a2.197 2.197 0 0 0-2.051-.819c-.79.112-1.44.62-1.742 1.36a2.22 2.22 0 0 0 .206 2.066l4.503 6.787a1.27 1.27 0 1 1-2.116 1.407L8.58 32.063a4.762 4.762 0 0 1-.442-4.434 4.714 4.714 0 0 1 3.736-2.916 4.711 4.711 0 0 1 4.4 1.758l4.204 5.312a15.716 15.716 0 0 1 3.379 9.714v7.525c.701 0 1.27.57 1.27 1.271zm-6.635 4.338c.517.475.552 1.278.079 1.796l-.01.011a1.267 1.267 0 0 1-1.795.08 1.272 1.272 0 0 1-.079-1.797l.01-.01a1.269 1.269 0 0 1 1.795-.08zm21.357-23.268a58.547 58.547 0 0 1-6.134 4.926 1.266 1.266 0 0 1-1.428 0 58.565 58.565 0 0 1-6.134-4.926c-4.242-3.928-6.393-7.342-6.393-10.147 0-4.888 3.68-8.865 8.204-8.865 1.83 0 3.607.67 5.037 1.868 1.43-1.199 3.208-1.868 5.037-1.868 4.524 0 8.204 3.977 8.204 8.865 0 2.805-2.151 6.219-6.393 10.147zM43.7 21.216c0-3.486-2.541-6.322-5.664-6.322-1.55 0-2.998.687-4.077 1.935a1.27 1.27 0 0 1-1.92 0c-1.08-1.248-2.527-1.935-4.077-1.935-3.123 0-5.664 2.836-5.664 6.322 0 2.01 1.981 4.95 5.578 8.28A57.541 57.541 0 0 0 33 33.68c1.05-.762 3.11-2.317 5.145-4.203 3.583-3.323 5.556-6.256 5.556-8.261z"/></g></g></svg>