<svg xmlns="http://www.w3.org/2000/svg" width="61" height="61" viewBox="0 0 61 61"><g><g><path fill="#2b97df" d="M60.486 10.49v23.054c0 10.978-10.475 10.978-13.966 10.978-.599 0-.998-.4-.998-.998 0-.6.4-.998.998-.998h.399c2.195-.2 3.79-2.196 3.591-4.391-.299-2.096-2.095-3.593-4.19-3.593h-6.684c.699 1.197.998 2.595.998 3.992v.698c.1 4.092-2.195 7.885-5.986 9.482 0 .598.3 1.796 2.993 1.796 2.794 0 4.988 2.196 4.988 4.99v4.99h-1.995V55.5c0-1.597-1.197-2.894-2.793-2.994l-4.889 2.395c-.398.2-.798.3-1.296.4v5.09H29.66V55.3c-.399-.1-.897-.3-1.296-.5l-4.889-2.395c-1.596.1-2.793 1.397-2.793 2.994v4.99h-1.995V55.4c0-2.794 2.195-4.99 4.988-4.99 2.693 0 2.993-1.198 2.993-1.796-3.592-1.597-5.986-5.19-5.986-9.182 0-.998.1-1.896.4-2.894a8.963 8.963 0 0 1-2.395-6.088c0-.599.399-.998.997-.998h8.979v-1.996H14.896c-2.095 0-3.89 1.497-4.19 3.593v.399a4.003 4.003 0 0 0 3.99 3.992c.6 0 .998.4.998.998 0 .599-.399.998-.998.998-3.491 0-13.966 0-13.966-10.978V4.502A4.003 4.003 0 0 1 4.72.51h27.933a4.003 4.003 0 0 1 3.99 3.992v1.995h19.953c2.194 0 3.99 1.797 3.89 3.993zm-45.59 14.97h17.757a2.002 2.002 0 0 0 1.995-1.996V4.502a2.001 2.001 0 0 0-1.995-1.996H4.72a2.001 2.001 0 0 0-1.995 1.996v21.956c0 4.89 2.295 7.585 7.183 8.583-.898-1.198-1.297-2.695-1.197-4.192.399-3.094 3.092-5.39 6.185-5.39zm5.886 5.988c.499 3.393 3.392 5.988 6.883 5.988H38.54c-.499-3.393-3.392-5.988-6.883-5.988zm17.857 7.984H27.665c-1.795 0-3.491-.499-4.888-1.397-.1.399-.1.898-.1 1.397 0 3.393 2.095 6.387 5.288 7.585.398.1.698.499.698.898v.499c.1 1.397-.698 2.794-1.995 3.393l2.494 1.298c.897.4 1.995.4 2.893 0l2.593-1.298c-1.297-.599-2.095-1.996-1.995-3.393v-.599c0-.399.3-.798.699-.898 3.192-1.098 5.287-4.092 5.287-7.485zm19.952-5.988V10.49a2.002 2.002 0 0 0-1.995-1.996H36.644v14.97a4.003 4.003 0 0 1-3.99 3.992h-1.996v1.996h.998a8.917 8.917 0 0 1 6.684 2.994h8.08c3.192 0 5.786 2.295 6.185 5.389.1 1.497-.3 2.994-1.197 4.192 4.888-.998 7.183-3.693 7.183-8.583zM26.668 14.482v4.99c0 1.696-1.297 2.994-2.993 2.994h-8.979c0 .599-.399.998-.997.998h-3.99c-.6 0-.998-.4-.998-.998V11.488c0-.6.399-.998.997-.998h3.99c.6 0 .998.399.998.998.599 0 .998-.4.998-.998V7.495c0-1.696 1.297-2.993 2.993-2.993s2.993 1.297 2.993 2.993v2.995c0 .598.399.998.997.998h.998c1.696 0 2.993 1.297 2.993 2.994zM12.7 12.486h-1.995v8.982h1.995zm11.971 1.996c0-.6-.399-.998-.997-.998h-.998c-1.696 0-2.993-1.298-2.993-2.994V7.495c0-.598-.399-.998-.997-.998-.599 0-.998.4-.998.998v2.995c0 1.696-1.297 2.994-2.993 2.994v6.986h8.979c.598 0 .997-.4.997-.998zm31.924-2.994v10.978c0 .599-.4.998-.998.998h-3.99c-.599 0-.998-.4-.998-.998-.599 0-.998.399-.998.998v2.994c0 1.696-1.296 2.994-2.992 2.994s-2.993-1.298-2.993-2.994v-2.994c0-.599-.4-.998-.998-.998h-.997c-1.696 0-2.993-1.297-2.993-2.994v-4.99c0-1.697 1.297-2.994 2.993-2.994h8.978c0-.6.4-.998.998-.998h3.99c.599 0 .998.399.998.998zM50.61 20.47v-6.986h-8.978c-.599 0-.998.399-.998.998v4.99c0 .598.399.998.998.998h.997c1.696 0 2.993 1.297 2.993 2.994v2.994c0 .598.399.998.998.998.598 0 .997-.4.997-.998v-2.994c0-1.697 1.297-2.994 2.993-2.994zm3.99-7.984h-1.995v8.982H54.6zM37.641 26.458h3.99v1.996h-3.99zM27.665 5.499h.998v1.996h-.998v.999H25.67v-.999h-.998V5.5h.998v-.997h1.995z"/></g></g></svg>