<svg xmlns="http://www.w3.org/2000/svg" width="61" height="60" viewBox="0 0 61 60"><g><g><path fill="#2b97df" d="M23.499 44.13a.896.896 0 0 1-.897.896C10.18 45.026.074 34.929.074 22.519.074 10.109 10.18.012 22.602.012c4.515 0 8.87 1.33 12.597 3.844a.896.896 0 1 1-1.004 1.485 20.645 20.645 0 0 0-11.593-3.538c-11.433 0-20.735 9.293-20.735 20.716 0 11.422 9.302 20.715 20.735 20.715.496 0 .897.401.897.896zm11.662-2.923a22.319 22.319 0 0 1-8.144 3.387.897.897 0 0 1-.35-1.757 20.542 20.542 0 0 0 7.493-3.116.897.897 0 0 1 1.001 1.486zm-1.088-30.526a16.4 16.4 0 0 0-11.595-4.638 16.405 16.405 0 0 0-11.538 4.825 16.36 16.36 0 0 0-4.83 11.65 16.36 16.36 0 0 0 4.83 11.651 16.403 16.403 0 0 0 11.665 4.827c4.307 0 8.375-1.645 11.468-4.64a.897.897 0 0 1 1.248 1.288 18.18 18.18 0 0 1-12.716 5.143h-.14a18.187 18.187 0 0 1-12.793-5.35 18.14 18.14 0 0 1-5.356-12.918A18.14 18.14 0 0 1 9.672 9.6a18.188 18.188 0 0 1 12.793-5.35 18.194 18.194 0 0 1 12.856 5.143.895.895 0 1 1-1.248 1.287zM23.5 15.083v6.598c2.856.372 5.051 2.492 5.051 5.043s-2.195 4.67-5.051 5.043v.844a.896.896 0 0 1-1.793 0v-.844c-2.856-.372-5.051-2.492-5.051-5.043a.896.896 0 0 1 1.793 0c0 1.58 1.397 2.903 3.258 3.23v-6.597c-2.856-.372-5.051-2.492-5.051-5.043s2.195-4.67 5.05-5.043v-.844a.896.896 0 0 1 1.794 0v.844c2.856.372 5.051 2.492 5.051 5.043a.896.896 0 0 1-1.793 0c0-1.58-1.397-2.903-3.258-3.23zm-1.793 6.461v-6.46c-1.861.327-3.258 1.65-3.258 3.23s1.397 2.903 3.258 3.23zm1.793 1.949v6.462c1.861-.328 3.258-1.652 3.258-3.231 0-1.58-1.397-2.903-3.258-3.23zm36.547 22.81L45.68 59.745a.895.895 0 0 1-1.226 0L30.087 46.303a.896.896 0 0 1 .613-1.55h5.652V.908c0-.495.402-.896.897-.896h15.635c.495 0 .896.4.896.896v26.025a.896.896 0 0 1-1.793 0V1.803H38.146V45.65a.896.896 0 0 1-.897.896h-4.28l12.097 11.32 12.098-11.32h-4.28a.896.896 0 0 1-.897-.896V30.517a.896.896 0 0 1 1.793 0v14.236h5.653a.896.896 0 0 1 .613 1.55z"/></g></g></svg>