<svg xmlns="http://www.w3.org/2000/svg" width="61" height="61" viewBox="0 0 61 61"><g><g><path fill="#2b97df" d="M18.24 26.518a4.174 4.174 0 0 0-.725-2.586 6.42 6.42 0 0 1 0-7.257c.52-.758.775-1.667.725-2.586l-.002-.036c-.15-2.608 1.31-5.051 3.72-6.222l.022-.011a4.384 4.384 0 0 0 1.987-1.913l.01-.017c1.213-2.312 3.726-3.715 6.398-3.574l.04.003a4.662 4.662 0 0 0 2.755-.716 6.981 6.981 0 0 1 7.408 0h.001c.821.52 1.784.77 2.754.716l.041-.002c2.672-.14 5.186 1.262 6.4 3.574l.012.025a4.379 4.379 0 0 0 1.982 1.903l.022.011c2.41 1.173 3.87 3.615 3.722 6.223l-.002.039c-.05.918.206 1.827.725 2.585a6.42 6.42 0 0 1 0 7.256 4.178 4.178 0 0 0-.725 2.586l.002.037c.149 2.608-1.312 5.05-3.72 6.222l-.02.01a4.392 4.392 0 0 0-1.99 1.914l-.006.012c-1.216 2.317-3.73 3.72-6.402 3.578l-.04-.002a4.658 4.658 0 0 0-2.755.717 6.981 6.981 0 0 1-7.408 0 4.658 4.658 0 0 0-2.755-.717l-.04.002c-2.677.14-5.187-1.261-6.4-3.574l-.01-.018a4.385 4.385 0 0 0-1.984-1.91l-.025-.012c-2.409-1.171-3.869-3.614-3.72-6.222zm1.125-8.564a4.158 4.158 0 0 0-.002 4.7 6.44 6.44 0 0 1 1.12 3.99l-.002.04c-.098 1.698.868 3.296 2.458 4.07l.02.01a6.614 6.614 0 0 1 2.994 2.884l.011.021a4.554 4.554 0 0 0 4.291 2.375l.04-.001a6.886 6.886 0 0 1 4.075 1.06c1.532.96 3.477.96 5.01 0a6.894 6.894 0 0 1 4.075-1.06l.039.002c1.797.096 3.483-.837 4.29-2.373l.008-.017a6.63 6.63 0 0 1 3-2.893l.017-.008c1.59-.773 2.555-2.37 2.458-4.07l-.002-.038a6.439 6.439 0 0 1 1.12-3.99 4.158 4.158 0 0 0 0-4.701 6.435 6.435 0 0 1-1.12-3.99l.002-.04c.097-1.7-.868-3.297-2.458-4.07l-.018-.01a6.622 6.622 0 0 1-2.996-2.884l-.014-.028c-.804-1.533-2.485-2.463-4.288-2.368l-.04.002a6.894 6.894 0 0 1-4.073-1.06 4.723 4.723 0 0 0-5.012 0 6.88 6.88 0 0 1-4.074 1.06l-.039-.002c-1.794-.096-3.483.835-4.29 2.373l-.01.02a6.622 6.622 0 0 1-2.998 2.889l-.02.009a4.277 4.277 0 0 0-2.455 4.068l.003.038a6.436 6.436 0 0 1-1.12 3.991zM29.62 31.935a1.126 1.126 0 0 1-.358-1.55l13.316-21.35a1.125 1.125 0 1 1 1.908 1.19L31.17 31.578a1.124 1.124 0 0 1-1.549.358zm1.194-11.575c-2.738 0-4.965-2.542-4.965-5.666 0-3.124 2.227-5.665 4.965-5.665 2.737 0 4.964 2.541 4.964 5.665s-2.227 5.666-4.964 5.666zm0-9.08c-1.498 0-2.716 1.532-2.716 3.414 0 1.883 1.218 3.416 2.716 3.416 1.497 0 2.716-1.532 2.716-3.416 0-1.883-1.219-3.415-2.716-3.415zm7.155 14.636c0-3.124 2.227-5.665 4.965-5.665 2.737 0 4.964 2.542 4.964 5.665s-2.227 5.665-4.965 5.665c-2.737 0-4.964-2.541-4.964-5.665zm7.68 0c0-1.884-1.218-3.415-2.716-3.415-1.497 0-2.716 1.532-2.716 3.415s1.22 3.415 2.716 3.415c1.498 0 2.717-1.532 2.717-3.415zm14.94 18.682a1.125 1.125 0 0 1-.369 1.498l-20.05 12.98c-.045.03-.091.054-.14.076a14.978 14.978 0 0 1-9.379 1.037l-13.828-3.884a3.97 3.97 0 0 0-2.966.325l-2.315 1.24-.025.937a1.125 1.125 0 0 1-1.124 1.094h-.031l-8.914-.245A1.125 1.125 0 0 1 .356 58.5l.538-19.578a1.124 1.124 0 0 1 1.154-1.093l8.915.245c.62.017 1.11.534 1.093 1.156l-.052 1.875a14.582 14.582 0 0 1 13.514-.014l.828.43a8.596 8.596 0 0 0 3.694.954l8.13.224a7.172 7.172 0 0 1 6.114 3.775l8.807-4.163a5.676 5.676 0 0 1 7.499 2.287zM9.3 57.62l.477-17.328-6.666-.184-.477 17.328zM57.975 44.87a3.431 3.431 0 0 0-3.884-.544l-.026.013-9.03 4.27c.085.482.122.971.108 1.46a1.126 1.126 0 0 1-1.123 1.095h-.032l-13.363-.368a1.124 1.124 0 0 1 .061-2.25l12.11.333a4.93 4.93 0 0 0-4.686-3.93l-8.13-.225a10.838 10.838 0 0 1-4.667-1.207l-.828-.429a12.349 12.349 0 0 0-12.553.67l-.317 11.522 1.184-.634a6.21 6.21 0 0 1 4.633-.507l13.793 3.873c2.624.537 5.352.233 7.794-.87z"/></g></g></svg>