<svg xmlns="http://www.w3.org/2000/svg" width="60" height="60" viewBox="0 0 60 60"><g><g><path fill="#2b97df" d="M33.404 17.707A.998.998 0 0 1 33.11 17c0-1.654 1.347-3 3.002-3a3.004 3.004 0 0 1 3.001 3h-2a1.002 1.002 0 0 0-1.939-.351l3.646 3.644a.996.996 0 0 1 .293.707c0 1.654-1.346 3-3.001 3a3.004 3.004 0 0 1-3.002-3h2.001a1.002 1.002 0 0 0 1.938.35zM.096 47V5c0-2.757 2.244-5 5.002-5h23.01a5.007 5.007 0 0 1 5.002 5v5.525A8.949 8.949 0 0 1 36.112 10c4.964 0 9.004 4.038 9.004 9s-4.04 9-9.004 9a8.941 8.941 0 0 1-3.002-.525v11.709c1.162.414 2.001 1.514 2.001 2.816v6a1 1 0 0 1-.05.316l-2.951 8.846V60h-2v-3a1 1 0 0 1 .05-.316l2.95-8.846V42c0-.551-.449-1-1-1-.551 0-1 .449-1 1v3h-2.001v-5c0-.551-.45-1-1-1-.552 0-1.001.449-1.001 1v5h-2.001v-6c0-.551-.45-1-1-1-.552 0-1.001.449-1.001 1v6h-2v-6c0-.551-.45-1-1.001-1-.552 0-1 .449-1 1v6h-2.002V30c0-.551-.449-1-1-1-.551 0-1 .449-1 1v14c0 .107-.018.214-.052.316l-.95 2.846v4.424l3.71 3.707a.997.997 0 0 1 .293.707v4h-2.001v-3.586l-3.709-3.707a.997.997 0 0 1-.293-.707H5.098a5.007 5.007 0 0 1-5.002-5zM12.1 50v-3c0-.107.017-.214.051-.316L13.047 44H2.097v3c0 1.654 1.346 3 3 3zm7.003-20v1h2.001c.551 0 1-.45 1-1v-4c0-.551-.449-1-1-1H11.101c-.552 0-1 .449-1 1v4c0 .55.448 1 1 1h2v-1c0-1.654 1.347-3 3.002-3a3.004 3.004 0 0 1 3.001 3zm17.008-18a6.95 6.95 0 0 0-4.232 1.436c-.021.016-.042.03-.063.047-.47.366-.888.788-1.248 1.254l-.035.047a7.088 7.088 0 0 0-.482.722c0 .002-.003.004-.004.006a7.018 7.018 0 0 0-.678 1.617c-.013.045-.023.09-.035.135-.06.227-.104.458-.14.692-.01.064-.021.127-.03.192a6.883 6.883 0 0 0-.056.852c0 .287.022.57.058.853.007.064.019.128.029.192.036.233.08.465.14.692l.035.135c.159.566.385 1.11.678 1.617l.004.006c.145.25.307.491.482.722l.035.047c.359.465.778.887 1.248 1.254.02.016.042.03.063.047.223.17.456.328.701.47a6.953 6.953 0 0 0 3.53.965c3.862 0 7.003-3.14 7.003-7s-3.141-7-7.003-7zm-5.002-.478V8H2.097v34H13.1v-9h-2a3.004 3.004 0 0 1-3.002-3v-4c0-1.654 1.347-3 3.002-3h10.004a3.004 3.004 0 0 1 3.001 3v4c0 1.654-1.346 3-3 3h-2.002v3.184a2.969 2.969 0 0 1 1-.184c.772 0 1.47.3 2.002.78.532-.48 1.23-.78 2-.78 1.066 0 1.998.562 2.53 1.401A2.969 2.969 0 0 1 28.109 37c1.384 0 2.54.945 2.885 2.22l.02-.006c.033-.013.063-.031.097-.043V26.478c-.298-.2-.579-.42-.85-.652-.036-.032-.07-.066-.107-.098a8.742 8.742 0 0 1-.77-.77 9.201 9.201 0 0 1-.615-.77l-.02-.026a9.021 9.021 0 0 1-1.012-1.881l-.04-.112a8.78 8.78 0 0 1-.485-1.882c-.012-.082-.027-.162-.037-.244A8.968 8.968 0 0 1 27.108 19c0-.353.026-.7.066-1.043.009-.082.025-.162.037-.244a8.616 8.616 0 0 1 .484-1.882c.014-.037.026-.075.041-.112.263-.67.602-1.3 1.011-1.881.007-.009.015-.017.02-.026a9.21 9.21 0 0 1 .616-.771c.04-.046.082-.09.123-.135.205-.222.421-.433.647-.634.036-.033.07-.066.107-.098.271-.233.552-.453.85-.652zM2.097 5v1H31.11V5c0-1.654-1.347-3-3.002-3H5.098a3.004 3.004 0 0 0-3.001 3zm57.732 12.293a.998.998 0 0 1 0 1.414l-4.001 4-1.415-1.414L56.707 19h-9.59v-2h9.59l-2.294-2.293 1.415-1.414zM16.103 15c.747 0 2.209.156 3.601 1.2l-1.2 1.6a4.036 4.036 0 0 0-2.401-.8 4.04 4.04 0 0 0-2.401.8l-1.2-1.6a6.057 6.057 0 0 1 3.6-1.2zm0-4c1.37 0 4.049.286 6.603 2.199l-1.2 1.6A9.082 9.082 0 0 0 16.102 13a9.08 9.08 0 0 0-5.402 1.8L9.5 13.2c1.095-.822 3.41-2.2 6.603-2.2zm-1 8h2v2h-2z"/></g></g></svg>