<svg xmlns="http://www.w3.org/2000/svg" width="60" height="60" viewBox="0 0 60 60"><g><g><path fill="#fff" d="M54.379 14.607a7.341 7.341 0 0 1 5.624 7.157c0 4.06-3.303 7.363-7.363 7.363-.363 0-.72-.026-1.07-.077l-5.078 18.69a6.397 6.397 0 0 1 3.88 5.876 6.394 6.394 0 0 1-6.388 6.387 6.394 6.394 0 0 1-6.35-7.078l-2.889-.728a.879.879 0 0 1 .43-1.705l2.888.727a6.428 6.428 0 0 1 1.96-2.61L32.962 35.39c-.724.255-1.501.393-2.31.393a6.933 6.933 0 0 1-3.62-1.014l-6.278 6.51a7.914 7.914 0 0 1 1.637 5.997l9.102 2.29a.88.88 0 0 1-.214 1.732.863.863 0 0 1-.215-.027l-9.102-2.29c-1.13 3.016-4.043 5.169-7.449 5.169-4.384 0-7.95-3.567-7.95-7.95 0-3.569 2.361-6.595 5.603-7.599L9.57 25.02a9.047 9.047 0 0 1-.78.035c-4.85 0-8.794-3.946-8.794-8.795S3.942 7.464 8.79 7.464a8.73 8.73 0 0 1 3.571.756.88.88 0 0 1-.714 1.606 7.045 7.045 0 0 0-9.893 6.433c0 3.88 3.156 7.037 7.036 7.036 3.88 0 7.037-3.157 7.037-7.036a6.96 6.96 0 0 0-1.533-4.385.879.879 0 0 1 1.374-1.096c.333.417.626.864.876 1.332l12.59-5.191A5.625 5.625 0 0 1 34.6-.003a5.625 5.625 0 0 1 5.618 5.618c0 1.122-.33 2.168-.899 3.046l8.46 7.572a7.323 7.323 0 0 1 2.393-1.409.878.878 0 1 1 .59 1.657 5.617 5.617 0 0 0-3.728 5.283c0 3.11 2.533 5.605 5.605 5.605a5.612 5.612 0 0 0 5.605-5.605 5.588 5.588 0 0 0-4.28-5.448.879.879 0 1 1 .414-1.709zM32.905 22.21a7.008 7.008 0 0 1 4.348 4.353l8.303-2.787a7.356 7.356 0 0 1 1.052-6.231l-8.46-7.575a5.59 5.59 0 0 1-3.67 1.263zM34.6 1.755a3.865 3.865 0 0 0-3.861 3.86 3.865 3.865 0 0 0 3.86 3.861 3.865 3.865 0 0 0 3.861-3.86 3.865 3.865 0 0 0-3.86-3.861zm-17.386 11.98c.244.815.37 1.666.37 2.524a8.74 8.74 0 0 1-.777 3.616l8.042 5.07a6.972 6.972 0 0 1 6.33-3.088l1.567-10.937a5.646 5.646 0 0 1-2.94-2.377zm-3.322 24.537a7.914 7.914 0 0 1 5.627 1.755l6.133-6.36a6.947 6.947 0 0 1-1.975-4.857c0-.799.136-1.567.384-2.283l-8.137-5.13a8.826 8.826 0 0 1-4.628 3.293zm.62 14.12a6.2 6.2 0 0 0 6.192-6.193 6.2 6.2 0 0 0-6.192-6.193c-3.4 0-6.193 2.762-6.193 6.193a6.2 6.2 0 0 0 6.193 6.193zM25.436 28.81a5.221 5.221 0 0 0 5.216 5.216 5.221 5.221 0 0 0 5.215-5.216 5.221 5.221 0 0 0-5.215-5.215 5.22 5.22 0 0 0-5.216 5.215zm23.178 24.806a4.634 4.634 0 0 0-4.63-4.63 4.634 4.634 0 0 0-4.63 4.63 4.635 4.635 0 0 0 4.63 4.63 4.635 4.635 0 0 0 4.63-4.63zm1.26-25.028a7.407 7.407 0 0 1-3.635-3.186l-8.633 2.897a6.973 6.973 0 0 1-3.073 6.302l7.006 13.114a6.352 6.352 0 0 1 3.256-.435zm-16.97-.657a.88.88 0 0 1 0 1.758h-1.31V31a.879.879 0 0 1-1.758 0v-1.31h-1.31a.879.879 0 0 1 0-1.758h1.31v-1.31a.879.879 0 1 1 1.759 0v1.31z"/></g></g></svg>