<svg xmlns="http://www.w3.org/2000/svg" width="60" height="60" viewBox="0 0 60 60"><g><g><path fill="#fff" d="M60 5v2a1 1 0 0 1-1 1h-7v14.586l1.793-1.793a3.121 3.121 0 1 1 4.414 4.414L52 31.414V55a5.006 5.006 0 0 1-5 5H5a5.006 5.006 0 0 1-5-5v-2a1 1 0 0 1 1-1h7V5a5.006 5.006 0 0 1 5-5h42a5.006 5.006 0 0 1 5 5zM43.002 58c-.03-.039-.051-.084-.079-.125-.06-.08-.107-.165-.16-.25a5.026 5.026 0 0 1-.413-.82 5.108 5.108 0 0 1-.186-.6c-.023-.092-.052-.177-.07-.277A4.984 4.984 0 0 1 42 55v-1H2v1a3 3 0 0 0 3 3zM50 33.414l-8.293 8.292a.998.998 0 0 1-.465.263l-4 1c-.08.02-.16.03-.242.03h-.006a1.006 1.006 0 0 1-.411-.099.981.981 0 0 1-.29-.193 1 1 0 0 1-.263-.95l1-3.999a1 1 0 0 1 .263-.465L50 24.586V5c.001-.312.032-.622.092-.928.018-.095.047-.185.07-.278.05-.204.112-.404.186-.6a5.016 5.016 0 0 1 .414-.82c.052-.084.102-.17.159-.249.028-.041.049-.086.079-.125H13a3 3 0 0 0-3 3v47h33a1 1 0 0 1 1 1v2a3 3 0 0 0 6 0zM54.414 23L56 24.586l.793-.793a1.123 1.123 0 0 0 0-1.586 1.148 1.148 0 0 0-1.586 0zM38.901 38.515l-.53 2.114 2.115-.53 14.1-14.1L53 24.415zM58 5a3 3 0 1 0-6 0v1h6zM19 6h22v2H19zm3.293 4.293l1.414 1.414L21 14.414V18a1 1 0 0 1-1 1h-5a1 1 0 0 1-1-1v-5a1 1 0 0 1 1-1h5a.97.97 0 0 1 .46.126zM19 16.413l-.293.294-1.414-1.414L18.586 14H16v3h3zM25 12h21v2H25zm0 4h17v2H25zm-2.707 4.293l1.414 1.414L21 24.414V28a1 1 0 0 1-1 1h-5a1 1 0 0 1-1-1v-5a1 1 0 0 1 1-1h5a.97.97 0 0 1 .46.126zM19 26.413l-.293.294-1.414-1.414L18.586 24H16v3h3zM25 22h21v2H25zm0 4h17v2H25zm-2.707 4.293l1.414 1.414L21 34.414V38a1 1 0 0 1-1 1h-5a1 1 0 0 1-1-1v-5a1 1 0 0 1 1-1h5a.97.97 0 0 1 .46.126zM19 36.413l-.293.294-1.414-1.414L18.586 34H16v3h3zM25 32h13v2H25zm0 4h9v2h-9zm-2.707 4.293l1.414 1.414L21 44.414V48a1 1 0 0 1-1 1h-5a1 1 0 0 1-1-1v-5a1 1 0 0 1 1-1h5a.97.97 0 0 1 .46.126zM19 46.413l-.293.294-1.414-1.414L18.586 44H16v3h3zM25 42h9v2h-9zm0 4h17v2H25z"/></g></g></svg>