<svg xmlns="http://www.w3.org/2000/svg" width="61" height="60" viewBox="0 0 61 60"><g><g><path fill="#fff" d="M39.819 23.313c.218.218.343.52.343.829 0 .308-.125.61-.343.829-.219.218-.521.343-.83.343-.308 0-.611-.125-.83-.343a1.18 1.18 0 0 1-.343-.829c0-.308.126-.61.344-.829.218-.218.52-.343.83-.343.308 0 .61.125.829.343zm20.99-19.8v18.285a3.522 3.522 0 0 1-3.519 3.516H44.151a1.173 1.173 0 1 1 0-2.344H56.14l-9.623-11.233-4.966 3.57a1.172 1.172 0 0 1-1.371-.002L35.22 11.73l-9.628 11.24h7.53a1.173 1.173 0 1 1 0 2.344h-8.68a3.522 3.522 0 0 1-3.52-3.516V3.513A3.513 3.513 0 0 1 22.54.557a3.499 3.499 0 0 1 1.902-.56H57.29a3.5 3.5 0 0 1 2.012.633l.04.029a3.513 3.513 0 0 1 1.468 2.854zm-27.497 6.84l-9.986-7.2a1.165 1.165 0 0 0-.057.36v18.285c0 .085.01.168.027.248zm22.26-8.012H26.209l14.658 10.57zm-7.144 8.022l10.008 11.683a1.17 1.17 0 0 0 .028-.248V3.513c0-.114-.018-.224-.048-.329zM54.475 52.4v.108c0 .647-.525 1.172-1.173 1.172h-1.065a1.173 1.173 0 1 1 0-2.344h.572a1.173 1.173 0 0 1 1.666 1.064zm0-5.86v1.172a1.173 1.173 0 0 1-2.346 0v-1.172a1.173 1.173 0 0 1 2.346 0zm-5.758 5.968c0 .647-.525 1.172-1.173 1.172h-1.173a1.173 1.173 0 1 1 0-2.344h1.173c.648 0 1.173.525 1.173 1.172zm5.758-23.55v1.172a1.173 1.173 0 0 1-2.346 0v-1.172a1.173 1.173 0 0 1 2.346 0zm0 5.86v1.173a1.173 1.173 0 0 1-2.346 0v-1.172a1.173 1.173 0 0 1 2.346 0zm0 5.861v1.172a1.173 1.173 0 0 1-2.346 0v-1.172a1.173 1.173 0 0 1 2.346 0zM7.08 7.498c0-.647.525-1.172 1.173-1.172h1.173a1.173 1.173 0 1 1 0 2.344H8.253A1.173 1.173 0 0 1 7.08 7.498zm5.865 0c0-.647.526-1.172 1.174-1.172h1.173a1.173 1.173 0 1 1 0 2.344h-1.173a1.173 1.173 0 0 1-1.174-1.172zm-5.865 5.86v-1.171a1.173 1.173 0 0 1 2.346 0v1.172a1.173 1.173 0 0 1-2.346 0zm0 5.861v-1.172a1.173 1.173 0 0 1 2.346 0v1.172a1.173 1.173 0 0 1-2.346 0zm6.644 28.286c.218.217.344.52.344.828 0 .308-.125.61-.344.829-.219.218-.52.343-.83.343-.308 0-.61-.125-.83-.343a1.18 1.18 0 0 1-.342-.829c0-.308.124-.61.342-.828.22-.219.521-.344.83-.344.31 0 .612.125.83.344zm23.542 1.24c.86.858 1.333 2 1.333 3.214a4.514 4.514 0 0 1-1.333 3.214l-1.479 1.478a11.444 11.444 0 0 1-8.113 3.352 11.443 11.443 0 0 1-8.113-3.352l-3.038-3.035a1.171 1.171 0 1 1 1.659-1.658l3.038 3.035c3.211 3.209 8.24 3.52 11.807.938l-5.545-5.54a1.171 1.171 0 1 1 1.659-1.658l5.626 5.621.84-.839c.416-.416.645-.968.645-1.556 0-.588-.229-1.141-.645-1.557l-6.181-6.176a2.207 2.207 0 0 0-3.116 0l-.403.403a3.788 3.788 0 0 1-5.348 0l-4.421-4.418a3.747 3.747 0 0 1-1.082-2.234l-5.86-5.856a1.171 1.171 0 1 1 1.659-1.658l4.882 4.878c.12-.166.253-.324.401-.472l.403-.403c.86-.858.86-2.255 0-3.113l-6.181-6.176a2.208 2.208 0 0 0-3.117 0l-1.479 1.478c-3.558 3.555-3.558 9.34 0 12.896l4.033 4.03a1.171 1.171 0 1 1-1.66 1.657l-4.032-4.029c-4.473-4.47-4.473-11.742 0-16.212l1.48-1.477a4.558 4.558 0 0 1 6.434 0l6.181 6.176a4.548 4.548 0 0 1 0 6.428l-.403.403c-.27.27-.42.63-.42 1.013 0 .383.15.743.42 1.014l4.422 4.417c.559.56 1.47.56 2.029 0l.402-.402a4.558 4.558 0 0 1 6.435 0z"/></g></g></svg>