<svg xmlns="http://www.w3.org/2000/svg" width="21" height="24" viewBox="0 0 21 24"><g><g><path fill="#2b97df" d="M12.606 12.069c.86.378 1.81.587 2.809.587V24H-.031V2.906h8.97a7.031 7.031 0 0 0 2.394 8.437H5.586v1.407h7.021zm-9.83-2.132h5.618V8.531H2.777zm1.405 9.844H2.777v1.406H4.18zm0-2.813H2.777v1.407H4.18zm0-2.812H2.777v1.406H4.18zm0-2.812H2.777v1.406H4.18zm8.425 8.437h-7.02v1.406h7.02zm0-2.813h-7.02v1.407h7.02zm0-2.812h-7.02v1.406h7.02zM15.415 0c3.097 0 5.616 2.523 5.616 5.625s-2.52 5.625-5.616 5.625c-3.098 0-5.617-2.523-5.617-5.625S12.318 0 15.415 0zm2.808 4.922h-2.106v-2.11h-1.405v2.11h-2.106v1.406h2.106v2.11h1.404v-2.11h2.107z"/></g></g></svg>