<svg xmlns="http://www.w3.org/2000/svg" width="28" height="25" viewBox="0 0 28 25"><g><g><path fill="#2b97df" d="M26.66 3.787c.7.148 1.15.84 1.002 1.538l-.314 2.016L8.303 3.31l.314-2.016c.148-.699.84-1.15 1.538-1.002zM20.004 8.79l6.63 1.402-1.165 5.504a1.301 1.301 0 0 1-1.539 1.001l-1.84-.389.491 1.77a1.315 1.315 0 0 1-.912 1.613L5.26 24.247a1.314 1.314 0 0 1-1.613-.913l-2.86-10.31a1.314 1.314 0 0 1 .912-1.613l5.076-1.41.812-3.839 7.387 1.564 3.133-.87a1.315 1.315 0 0 1 1.613.912zm1.612 4.218a.536.536 0 0 0 .412.633l1.918.406a.536.536 0 0 0 .632-.412l.406-1.919a.536.536 0 0 0-.412-.632l-1.918-.407a.536.536 0 0 0-.632.412zm-19.63-.569a.246.246 0 0 0-.17.298l.56 2.016L19.25 10.07l-.425-1.528-.135-.488a.248.248 0 0 0-.298-.168l-1.153.32L6.525 11.18zm18.927 3.62l-1.03-3.71-16.874 4.685 1.669 6.014a.248.248 0 0 0 .298.169l16.408-4.555a.236.236 0 0 0 .144-.115.239.239 0 0 0 .024-.184zM8.158 20.692a.535.535 0 0 1-.372.657l-1.916.532a.536.536 0 0 1-.658-.371l-.531-1.917a.535.535 0 0 1 .371-.658l1.916-.532a.535.535 0 0 1 .658.372z"/></g></g></svg>