<svg xmlns="http://www.w3.org/2000/svg" width="20" height="20" viewBox="0 0 20 20"><g><g><path fill="#4d9855" d="M3.28 16.718c-3.704-3.705-3.704-9.733 0-13.437 3.706-3.705 9.734-3.705 13.438 0 3.705 3.705 3.706 9.733.001 13.438-3.705 3.704-9.733 3.704-13.438-.001zM16.103 3.897c-3.365-3.365-8.84-3.365-12.205 0s-3.365 8.84 0 12.205 8.84 3.365 12.206 0c3.365-3.364 3.364-8.84-.001-12.205zM7.136 14.505l-1.642-1.642L8.358 10 5.494 7.136l1.642-1.642L10 8.357l2.863-2.863 1.642 1.642L11.642 10l2.862 2.862-1.642 1.642L10 11.642z"/></g></g></svg>