<svg xmlns="http://www.w3.org/2000/svg" width="64" height="25" viewBox="0 0 64 25"><g><g><path fill="#2b97df" d="M34.727 11.235c0 .389-.203.616-.397.616h-.997v-1.232h.956c.195 0 .438.22.438.616zm16.102.875c0 .867-.47 1.506-1.297 1.506H48.9V10.62h.632c.81 0 1.297.6 1.297 1.49zm-36.288-.875c0 .389-.203.616-.398.616h-.996v-1.232h.956c.194 0 .438.22.438.616zm48.973 13.267H.486L4.72.498h54.56zm-46.899-9.509L15.32 12.88c.518-.364.826-.98.826-1.644 0-.98-.81-1.992-1.937-1.992h-2.642v5.75h1.58v-1.765h.592l1.094 1.765zm4.611 0v-1.377h-2.52v-.907h2.09v-1.28h-2.09v-.81h2.447V9.244h-4.028v5.75zm4.992-1.757c0-1.078-.673-1.45-1.735-1.782-.664-.21-1.07-.276-1.07-.575 0-.203.187-.284.463-.284.689 0 1.523.527 1.523.527l.681-1.304c-.518-.26-1.32-.624-2.156-.624-1.134 0-2.147.673-2.147 1.944 0 .842.445 1.271 1.459 1.612.689.235 1.28.307 1.28.64 0 .153-.121.25-.462.25-.883 0-1.848-.631-1.848-.631l-.68 1.385c.688.405 1.67.672 2.504.672 1.07 0 2.188-.445 2.188-1.83zm4.797 1.757v-1.377h-2.52v-.907h2.09v-1.28h-2.09v-.81h2.448V9.244h-4.029v5.75zm5.787 0l-1.297-2.114c.519-.364.827-.98.827-1.644 0-.98-.81-1.992-1.937-1.992h-2.643v5.75h1.58v-1.765h.593l1.093 1.765zm5.251-5.75h-1.662l-1.11 3.766-1.127-3.766h-1.669l2.14 5.75h1.313zm4.53 5.75v-1.377h-2.52v-.907h2.09v-1.28h-2.09v-.81h2.447V9.244h-4.028v5.75zm5.85-2.883c0-1.587-.988-2.867-2.9-2.867H47.32v5.75h2.212c1.751 0 2.902-1.142 2.902-2.883z"/></g></g></svg>