<svg xmlns="http://www.w3.org/2000/svg" width="24" height="24" viewBox="0 0 24 24"><g><g><path fill="#fff" d="M24.006 24.006H-.006l6.532-6.331h.378L12 23.729l5.096-6.054h.378zM12 12.656a4.226 4.226 0 0 1-4.221-4.22 4.226 4.226 0 0 1 4.22-4.221 4.226 4.226 0 0 1 4.222 4.22A4.226 4.226 0 0 1 12 12.658zM9.89 9.14h1.406v1.407h1.408V9.14h1.406V7.732h-1.406V6.325h-1.408v1.407H9.89zm-4.35 4.73a8.447 8.447 0 0 1-1.982-5.433C3.558 3.78 7.345-.006 12-.006s8.442 3.787 8.442 8.442a8.448 8.448 0 0 1-1.982 5.433L12 21.544zM12 2.808a5.634 5.634 0 0 0-5.628 5.628A5.634 5.634 0 0 0 12 14.064a5.634 5.634 0 0 0 5.628-5.628A5.634 5.634 0 0 0 12 2.808z"/></g></g></svg>