<svg xmlns="http://www.w3.org/2000/svg" width="26" height="25" viewBox="0 0 26 25"><g><g><path fill="#2b97df" d="M5.207 5.315L14.135.889a1.405 1.405 0 0 1 1.882.634l.528 1.068-9.973 2.724zM19.64 2.67c.618 0 1.186.41 1.354 1.037l.439 1.608H9.772l7.155-1.953 2.343-.64c.124-.035.248-.052.371-.052zM22.897 6.3A1.4 1.4 0 0 1 24.3 7.704v3.835h-8.338a2.363 2.363 0 0 0-1.708.723 2.379 2.379 0 0 0-.677 1.664v3.125a2.39 2.39 0 0 0 2.388 2.389h8.335v3.92c0 .776-.63 1.406-1.405 1.406H2.13c-.775 0-1.404-.63-1.404-1.405V7.704a1.403 1.403 0 0 1 1.407-1.405zm2.388 6.584a1.4 1.4 0 0 1 .458 1.037v3.128a1.4 1.4 0 0 1-.95 1.33 1.422 1.422 0 0 1-.455.075h-8.374c-.776 0-1.405-.63-1.405-1.405V13.92c0-.775.63-1.405 1.405-1.405h8.374a1.396 1.396 0 0 1 .947.369zm-6.388 2.414a.703.703 0 0 0-.703-.703h-.466a.712.712 0 0 0-.433.152.69.69 0 0 0-.27.55v.468c0 .388.315.703.703.703h.466a.703.703 0 0 0 .703-.703z"/></g></g></svg>