<svg xmlns="http://www.w3.org/2000/svg" width="19" height="19" viewBox="0 0 19 19"><g><g><path fill="#b3b3b3" d="M14.04 12.672c.714.712 1.43 1.424 2.14 2.139.595.6.591 1.333-.007 1.94-.405.408-.835.797-1.216 1.224-.558.625-1.254.828-2.055.783-1.164-.064-2.234-.45-3.267-.951a17.812 17.812 0 0 1-5.897-4.618C2.522 11.744 1.518 10.167.86 8.392.538 7.535.31 6.655.381 5.722c.045-.573.258-1.063.681-1.464.457-.434.887-.887 1.336-1.33.584-.576 1.317-.576 1.905-.003.363.356.718.719 1.078 1.078.348.352.696.697 1.044 1.049.613.618.613 1.337.003 1.951-.437.442-.872.884-1.317 1.314-.116.116-.127.21-.067.352.295.704.718 1.33 1.194 1.914.957 1.176 2.039 2.22 3.33 3.033.277.172.584.3.872.457.146.082.247.056.367-.067.437-.45.883-.892 1.328-1.334.584-.58 1.317-.58 1.905 0zm-.715-2.984a4.767 4.767 0 0 0-1.332-2.576 4.76 4.76 0 0 0-2.725-1.36l.195-1.39a6.136 6.136 0 0 1 3.518 1.757 6.176 6.176 0 0 1 1.725 3.333zm2.16-6.007a10.267 10.267 0 0 1 2.865 5.531l-1.38.236a8.83 8.83 0 0 0-2.474-4.774 8.826 8.826 0 0 0-5.044-2.517l.195-1.39a10.18 10.18 0 0 1 5.837 2.914z"/></g></g></svg>