<svg xmlns="http://www.w3.org/2000/svg" width="32" height="32" viewBox="0 0 32 32"><g><g><path fill="#2b97df" d="M27.314 4.686A15.896 15.896 0 0 1 32 16c0 4.274-1.664 8.292-4.686 11.314A15.896 15.896 0 0 1 16 32a15.896 15.896 0 0 1-11.314-4.686A15.896 15.896 0 0 1 0 16c0-4.274 1.664-8.292 4.686-11.314A15.896 15.896 0 0 1 16 0c4.274 0 8.291 1.664 11.314 4.686zM30.125 16c0-.315-.012-.627-.032-.938h-4.051a.937.937 0 1 0 0 1.875h4.05c.021-.31.033-.622.033-.937zm-11.504 2.074v1.185c0 .27.331.411.653.411.33 0 .652-.14.652-.411v-1.185h.472c.211 0 .412-.302.412-.603 0-.311-.14-.612-.412-.612h-.472v-1.055c0-.291-.321-.412-.652-.412-.322 0-.653.12-.653.412v1.055h-1.175l1.928-3.857c.03-.06.05-.12.05-.17 0-.302-.422-.503-.653-.503-.21 0-.431.09-.552.342l-2.38 4.68a.537.537 0 0 0-.07.26c0 .292.19.463.442.463zm7.78-9.162a.937.937 0 1 0 .938 1.624l1.334-.77a14.154 14.154 0 0 0-.94-1.622zm-4.937-4.251a.937.937 0 1 0 1.624.937l.768-1.33a14.08 14.08 0 0 0-1.622-.94zm.77 24.011a14.07 14.07 0 0 0 1.622-.94l-.768-1.33a.937.937 0 1 0-1.624.937zm5.499-4.816c.347-.517.661-1.06.94-1.622l-1.334-.77a.937.937 0 1 0-.937 1.624zM16.937 1.906a14.204 14.204 0 0 0-1.875 0v4.052a.938.938 0 0 0 1.875 0zM1.875 16c0 .315.011.627.032.937h4.051a.938.938 0 0 0 0-1.875H1.907c-.02.31-.032.623-.032.938zM9.766 3.327c-.563.278-1.105.592-1.622.94l.768 1.331a.936.936 0 0 0 1.28.343.938.938 0 0 0 .344-1.28zM4.267 8.144c-.348.517-.662 1.06-.94 1.622l1.334.77a.937.937 0 0 0 .937-1.624zm-.94 14.09c.278.563.592 1.105.94 1.622l1.331-.768a.938.938 0 0 0-.937-1.624zm4.817 5.499c.517.348 1.06.661 1.622.94l.77-1.334a.937.937 0 1 0-1.624-.937zm3.046-8.474c0 .25.341.411.572.411h3.575c.221 0 .412-.28.412-.582 0-.301-.191-.562-.412-.562h-2.792v-.241c0-1.045 3.184-1.748 3.184-3.917 0-1.275-1.085-2.038-2.25-2.038-1.114 0-2.159.702-2.159 1.847 0 .543.251.703.593.703.432 0 .683-.24.683-.482 0-.622.402-.884.893-.884.663 0 .934.483.934.894 0 1.416-3.233 2.27-3.233 3.877zm3.873 10.834a14.203 14.203 0 0 0 1.874 0V26.04a.938.938 0 0 0-1.875 0z"/></g></g></svg>