<svg xmlns="http://www.w3.org/2000/svg" xmlns:xlink="http://www.w3.org/1999/xlink" width="14" height="20" viewBox="0 0 14 20"><defs><path id="o7fva" d="M710.75 915.294l.766 1.917-1.35 3.387a.09.09 0 0 1-.079.057.089.089 0 0 1-.083-.051l-.745-1.567a.795.795 0 0 0-.964-.42l-1.702.566a.087.087 0 0 1-.092-.025.093.093 0 0 1-.017-.096l2.103-5.235.545-.145.566 1.306a.71.71 0 0 0 .654.434.692.692 0 0 0 .398-.128zm6.512 3.631a.093.093 0 0 1-.016.097.087.087 0 0 1-.093.024l-1.702-.565a.795.795 0 0 0-.963.42l-.746 1.567a.088.088 0 0 1-.162-.006l-2.259-5.658.554-.481 1.06.924a.7.7 0 0 0 .62.156.717.717 0 0 0 .493-.415l.57-1.308.602.162zm-2.138-11.078c0 1.84-1.456 3.331-3.25 3.331-1.796 0-3.251-1.491-3.251-3.331 0-1.84 1.455-3.331 3.25-3.331s3.25 1.491 3.25 3.33zm2.281-1.78a.736.736 0 0 0 .194.92l1.103.856v.005l-1.104.858a.738.738 0 0 0-.199.92l.645 1.266v.005l-1.364.272a.723.723 0 0 0-.576.74l.044 1.426-.004.003-1.346-.361a.705.705 0 0 0-.832.41l-.566 1.305-.005.001-1.06-.924a.697.697 0 0 0-.923 0l-1.06.924h-.005l-.566-1.306a.705.705 0 0 0-.832-.41l-1.346.361-.004-.003.043-1.427a.724.724 0 0 0-.576-.74l-1.364-.271-.067.356.065-.36.642-1.266a.743.743 0 0 0-.216-.921l-1.126-.858v-.005l1.125-.855a.74.74 0 0 0 .21-.922l-.638-1.264.004-.005 1.364-.272a.724.724 0 0 0 .577-.74l-.043-1.427.003-.003 1.347.362a.705.705 0 0 0 .832-.41l.565-1.306.005-.001 1.06.924a.697.697 0 0 0 .924 0l1.06-.924.005.001.566 1.306a.705.705 0 0 0 .832.41l1.346-.362.004.003-.044 1.427a.724.724 0 0 0 .576.74l1.364.272.068-.357-.066.361zm-1.572 1.78c0-2.242-1.773-4.059-3.96-4.059-2.187 0-3.96 1.817-3.96 4.059 0 2.241 1.773 4.058 3.96 4.058 2.186-.002 3.958-1.818 3.96-4.058z"/><linearGradient id="o7fvb" x1="715.42" x2="706.51" y1="908.28" y2="917.56" gradientUnits="userSpaceOnUse"><stop offset="0" stop-color="#ff50b1"/><stop offset="1" stop-color="#ff7ddb"/></linearGradient></defs><g><g transform="translate(-705 -901)"><use fill="url(#o7fvb)" xlink:href="#o7fva"/></g></g></svg>