<svg xmlns="http://www.w3.org/2000/svg" xmlns:xlink="http://www.w3.org/1999/xlink" width="16" height="20" viewBox="0 0 16 20"><defs><path id="jh2ka" d="M709.371 255.453c0-.799.632-1.446 1.41-1.446.78 0 1.411.647 1.411 1.446 0 .798-.631 1.445-1.41 1.445-.779 0-1.41-.647-1.41-1.445zm7.375-1.181a.534.534 0 0 1-.527-.54v-3.194l3.54 3.734zm-3.232 6.998h-5.454v-.219c0-1.284 1.016-2.324 2.268-2.326h.895c1.251 0 2.29 1.044 2.29 2.326zm1.995-7.535c.002.7.558 1.266 1.241 1.264h3.504v13.537c-.005.806-.643 1.457-1.43 1.46H706.43c-.786-.003-1.424-.654-1.429-1.46V251.46c.005-.806.643-1.457 1.43-1.46h9.08zm-6.847 1.718c0 1.2.949 2.172 2.12 2.172 1.17 0 2.12-.972 2.12-2.172 0-1.2-.95-2.173-2.12-2.173-1.17.001-2.12.973-2.12 2.173zm-1.312 6.173a.365.365 0 0 0 .354.371h6.143c.196 0 .376-.17.376-.371v-.575c-.005-1.692-1.349-3.059-3-3.053h-.91c-1.64.005-2.967 1.372-2.963 3.053zm-.318 2.916c0 .2.159.364.355.364h6.11a.36.36 0 0 0 .356-.364.36.36 0 0 0-.355-.363h-6.111a.36.36 0 0 0-.355.363zm10.562 2.09h-10.207a.36.36 0 0 0-.355.364c0 .2.159.364.355.364h10.207a.36.36 0 0 0 .355-.364.36.36 0 0 0-.355-.363z"/><linearGradient id="jh2kb" x1="716.6" x2="706.68" y1="257.41" y2="266.85" gradientUnits="userSpaceOnUse"><stop offset="0" stop-color="#ff50b1"/><stop offset="1" stop-color="#ff7ddb"/></linearGradient></defs><g><g transform="translate(-705 -250)"><use fill="url(#jh2kb)" xlink:href="#jh2ka"/></g></g></svg>