<svg xmlns="http://www.w3.org/2000/svg" xmlns:xlink="http://www.w3.org/1999/xlink" width="16" height="18" viewBox="0 0 16 18"><defs><path id="60nga" d="M710.3 1058.079c0-.954.752-1.727 1.68-1.727.928 0 1.68.773 1.68 1.727 0 .954-.752 1.727-1.68 1.727-.928 0-1.68-.773-1.68-1.727zm2.19 3.692c1.474.008 2.663 1.247 2.655 2.766v.288h-6.376v-.288c.002-1.526 1.202-2.763 2.684-2.766zm6.035-7.325v13.278H705v-13.289c.002-.795.632-1.437 1.408-1.435h10.687c.782 0 1.43.644 1.43 1.446zm-8.935 3.628c0 1.353 1.07 2.449 2.39 2.449s2.39-1.097 2.39-2.45c0-1.352-1.07-2.448-2.39-2.448-1.32.001-2.389 1.097-2.39 2.449zm6.274 6.447c.005-1.915-1.506-3.472-3.375-3.477h-1.032c-1.876.003-3.395 1.561-3.397 3.484v.662c0 .2.177.353.372.353h7.092a.347.347 0 0 0 .34-.353zm3.37 2.249h1.385v1.954h-1.385zm0-11.543h1.385v2h-1.385zm0 3.863h1.385v1.954h-1.385zm0 3.862h1.385v1.964h-1.385zM705 1068.451h13.525v1.008a1.44 1.44 0 0 1-1.43 1.446h-10.697c-.776-.004-1.402-.651-1.398-1.446z"/><linearGradient id="60ngb" x1="716.88" x2="706.72" y1="1059.63" y2="1068.08" gradientUnits="userSpaceOnUse"><stop offset="0" stop-color="#ff50b1"/><stop offset="1" stop-color="#ff7ddb"/></linearGradient></defs><g><g transform="translate(-705 -1053)"><use fill="url(#60ngb)" xlink:href="#60nga"/></g></g></svg>