<svg xmlns="http://www.w3.org/2000/svg" xmlns:xlink="http://www.w3.org/1999/xlink" width="752" height="203" viewBox="0 0 752 203" preserveAspectRatio="none"><defs><path id="z5n7a" d="M647.868 304.208c236.65-69.191 270.807-25.569 472.815 40.081 202.01 65.65 323.426 4.945 353.663-101.376 30.238-106.322-22.732-207.536-22.732-207.536L787.111 19.73S411.217 373.398 647.868 304.208z"/><path id="z5n7c" d="M554.927 398.15c93.26-34.807 252.33-103.487 430.59-61.263 178.261 42.224 398.548 119.92 601.01-57.117 202.46-177.039 139.31-344.145-52.697-331.003C1341.823-38.09 1318.228-30.1 1169.68-129.26 1021.135-228.422 919.83 57.799 709.708 3.229c-210.122-54.572-185.1-108.148-302.706-173.245-117.605-65.098-229.812 47.928-81.017 284.082 148.795 236.155 11.35 184.471-36.231 284.085-47.581 99.613 171.912 34.808 265.173 0z"/><path id="z5n7e" d="M1068.129 367.287c181.791 32.545 108.576-61.302 250.758 2.383 142.182 63.684 271.952 86.08 193.164-139.453-78.788-225.533-303.26-57.21-216.875-225.953 86.384-168.742-67.734-120.408-121.58-48.583-53.847 71.826-101.354 151.483 0 192.12 101.354 40.635 192.26 67.19 30.128 119.854-162.133 52.663-317.387 67.087-135.595 99.632z"/><path id="z5n7g" d="M1326.213 372.112c73.363-117.65 12.202-150.313-48.496-157.154-60.699-6.84-310.05 1.493 112.138-117.341 422.188-118.835 190.99 139.748 167.711 170.08-23.279 30.333-99.867 87.922-220.633 209.984-120.765 122.062-84.083 12.082-10.72-105.569z"/><path id="z5n7i" d="M1139.512 255.366c37.443 66.542 120.827 144.772 122.289 44.275 1.462-100.496 21.423-97.234 44.108-64.024 22.685 33.21 59.887 96.104 77.583 0 .95-5.157 1.747-10.84 2.4-16.964 11.501-107.987-22.156-352.538-62.496-250.292-42.628 108.043-67.436 257.459-157.088 151.376-89.652-106.083-148.897-74.255-85.403 67.319 63.494 141.574 21.164 1.768 58.607 68.31z"/><path id="z5n7k" d="M678.357 259.157c-115.13 28.042-310.832 92.574 0 66.344 310.833-26.23 284.903-68.758 156.31-66.344-128.592 2.413 33.454-55.085 109.348-73.637 75.895-18.553 137.596-49.281-140.217-43.858-277.814 5.424-10.31 89.452-125.44 117.495z"/><path id="z5n7m" d="M642.957 296.698c-115.13-28.043-310.832-92.575 0-66.345 310.833 26.23 284.903 68.758 156.31 66.345-128.592-2.414 33.454 55.084 109.348 73.637 75.895 18.552 137.596 49.28-140.217 43.857-277.814-5.424-10.31-89.452-125.44-117.494z"/><path id="z5n7o" d="M1279.78 253.385c0-5.741 3.774-10.395 8.43-10.395s8.43 4.654 8.43 10.395-3.774 10.395-8.43 10.395-8.43-4.654-8.43-10.395z"/><linearGradient id="z5n7d" x1="688.01" x2="897.5" y1="-188.21" y2="731.32" gradientUnits="userSpaceOnUse"><stop offset="0" stop-color="#00f9ff"/><stop offset="1" stop-color="#0037ff"/></linearGradient><linearGradient id="z5n7f" x1="1156.18" x2="1205.44" y1="-318.59" y2="607.56" gradientUnits="userSpaceOnUse"><stop offset="0" stop-color="#ffb7be"/><stop offset="1" stop-color="#ff61c1"/></linearGradient><linearGradient id="z5n7h" x1="1488.76" x2="1359.2" y1="158.38" y2="370.43" gradientUnits="userSpaceOnUse"><stop offset="0" stop-color="#00368a"/><stop offset="1" stop-color="#00c7ff"/></linearGradient><linearGradient id="z5n7j" x1="1124.51" x2="1324.74" y1="43.29" y2="276.43" gradientUnits="userSpaceOnUse"><stop offset="0" stop-color="#513cff"/><stop offset="1" stop-color="#34bdff"/></linearGradient><linearGradient id="z5n7l" x1="759.59" x2="759.59" y1="147.99" y2="331.64" gradientUnits="userSpaceOnUse"><stop offset="0" stop-color="#fff" stop-opacity=".13"/><stop offset="1" stop-color="#fff" stop-opacity=".56"/></linearGradient><linearGradient id="z5n7n" x1="724.18" x2="724.18" y1="231.17" y2="414.82" gradientUnits="userSpaceOnUse"><stop offset="0" stop-color="#fff" stop-opacity=".13"/><stop offset="1" stop-color="#fff" stop-opacity=".56"/></linearGradient><linearGradient id="z5n7p" x1="1283.32" x2="1293.44" y1="248.11" y2="260.12" gradientUnits="userSpaceOnUse"><stop offset="0" stop-color="#4e47ff"/><stop offset="1" stop-color="#36b4ff"/></linearGradient><clipPath id="z5n7b"><use xlink:href="#z5n7a"/></clipPath></defs><g><g clip-path="url(#clip-D92D6603-9A7B-4F35-912A-EBB6CF08D373)" transform="rotate(-12 -225.764 3365.641)"><g><use fill="#d8d8d8" xlink:href="#z5n7a"/></g><g clip-path="url(#z5n7b)"><use fill="url(#z5n7d)" xlink:href="#z5n7c"/></g><g clip-path="url(#z5n7b)"><use fill="url(#z5n7f)" xlink:href="#z5n7e"/></g><g clip-path="url(#z5n7b)" transform="rotate(26 1444.5 217.5)"><use fill="url(#z5n7h)" xlink:href="#z5n7g"/></g><g clip-path="url(#z5n7b)"><use fill="url(#z5n7j)" xlink:href="#z5n7i"/></g><g clip-path="url(#z5n7b)" transform="rotate(20 773 283.5)"><use fill="url(#z5n7l)" xlink:href="#z5n7k"/></g><g clip-path="url(#z5n7b)"><use fill="url(#z5n7n)" xlink:href="#z5n7m"/></g><g clip-path="url(#z5n7b)"><use fill="url(#z5n7p)" xlink:href="#z5n7o"/></g></g></g></svg>