<svg xmlns="http://www.w3.org/2000/svg" xmlns:xlink="http://www.w3.org/1999/xlink" width="35" height="36" viewBox="0 0 35 36"><defs><path id="pgsfa" d="M919.599 1030.95h-30.27v-22.752h30.27zm1.746 0h-.582v-22.752h.582a.59.59 0 0 0 .582-.6.59.59 0 0 0-.582-.598h-33.763a.59.59 0 0 0-.582.599c0 .33.26.599.582.599h.582v22.752h-.582a.59.59 0 0 0-.582.599c0 .33.26.599.582.599h9.67l-3.236 9.99a.603.603 0 0 0 .369.757.58.58 0 0 0 .737-.38l3.357-10.367h11.969l3.36 10.368a.58.58 0 0 0 .737.38.603.603 0 0 0 .369-.759l-3.24-9.99h9.671a.59.59 0 0 0 .582-.598.59.59 0 0 0-.582-.599z"/><path id="pgsfc" d="M906.211 1011.795a.591.591 0 0 1-.583-.599c0-.33.261-.598.583-.598.323 0 .584.268.584.598 0 .33-.261.599-.584.599zm-.005-2.395c-.964 0-1.746.804-1.746 1.796s.782 1.797 1.746 1.797c.965 0 1.747-.805 1.747-1.797 0-.992-.782-1.796-1.747-1.796z"/><path id="pgsfe" d="M906.211 1016.585a.591.591 0 0 1-.583-.599c0-.33.261-.598.583-.598.323 0 .584.268.584.598 0 .33-.261.599-.584.599zm-.005-2.395c-.964 0-1.746.804-1.746 1.796s.782 1.797 1.746 1.797c.965 0 1.747-.805 1.747-1.797 0-.992-.782-1.796-1.747-1.796z"/><path id="pgsfg" d="M906.211 1021.375a.591.591 0 0 1-.583-.599c0-.33.261-.598.583-.598.323 0 .584.268.584.598 0 .33-.261.599-.584.599zm-.005-2.395c-.964 0-1.746.804-1.746 1.796s.782 1.797 1.746 1.797c.965 0 1.747-.805 1.747-1.797 0-.992-.782-1.796-1.747-1.796z"/><path id="pgsfi" d="M909.12 1011.79v-1.2h5.82v1.2z"/><path id="pgsfk" d="M916.11 1011.79v-1.2h2.33v1.2z"/><path id="pgsfm" d="M909.12 1016.58v-1.2h5.82v1.2z"/><path id="pgsfo" d="M916.11 1016.58v-1.2h2.33v1.2z"/><path id="pgsfq" d="M909.12 1021.37v-1.2h5.82v1.2z"/><path id="pgsfs" d="M916.11 1021.37v-1.2h2.33v1.2z"/><path id="pgsfu" d="M909.128 1028.56h-1.174v-2.402h1.174zm-4.667 0h-1.164v-1.207h1.164zm-4.657 0h-1.164v-3.598h1.164zm-4.647 0h-1.174v-2.402h1.174zm15.707-.002h-.582v-2.994a.59.59 0 0 0-.582-.599h-2.329a.59.59 0 0 0-.582.599v2.994h-1.164v-1.797a.59.59 0 0 0-.582-.598h-2.328a.59.59 0 0 0-.583.598v1.797h-1.164v-4.192a.59.59 0 0 0-.582-.598h-2.328a.59.59 0 0 0-.583.598v4.192h-1.164v-2.994a.59.59 0 0 0-.582-.599h-2.328a.59.59 0 0 0-.583.599v2.994h-1.164v-5.39a.59.59 0 0 0-.582-.598.59.59 0 0 0-.582.599v5.987c0 .33.26.599.582.599h19.792a.59.59 0 0 0 .582-.599.59.59 0 0 0-.582-.598z"/><path id="pgsfw" d="M917.856 1024.96h-1.164a.59.59 0 0 0-.582.599c0 .33.26.599.582.599h1.164a.59.59 0 0 0 .582-.6.59.59 0 0 0-.582-.598z"/><path id="pgsfy" d="M914.356 1024.96h-1.164a.59.59 0 0 0-.582.599c0 .33.26.599.582.599h1.164a.59.59 0 0 0 .582-.6.59.59 0 0 0-.582-.598z"/><path id="pgsfA" d="M914.356 1027.36h-1.164a.59.59 0 0 0-.582.599c0 .33.26.599.582.599h1.164a.59.59 0 0 0 .582-.6.59.59 0 0 0-.582-.598z"/><path id="pgsfC" d="M917.856 1027.36h-1.164a.59.59 0 0 0-.582.599c0 .33.26.599.582.599h1.164a.59.59 0 0 0 .582-.6.59.59 0 0 0-.582-.598z"/><path id="pgsfE" d="M896.31 1021.34c-2.875-.331-4.945-2.997-4.622-5.955a5.473 5.473 0 0 1 1.112-2.763l.83.854c-1.347 1.855-.976 4.48.828 5.866 1.803 1.384 4.356 1.003 5.702-.852.406-.56.67-1.214.768-1.905h1.172c-.322 2.958-2.914 5.087-5.79 4.755zm.001-10.71v1.207a3.965 3.965 0 0 0-1.858.792l-.83-.854a5.111 5.111 0 0 1 2.688-1.145zm2.64 3.24a3.055 3.055 0 0 1 0 4.234 2.854 2.854 0 0 1-4.116-.001 3.037 3.037 0 0 1-.852-2.117 3.016 3.016 0 0 1 .853-2.117 2.854 2.854 0 0 1 4.116 0zm3.149 1.518h-1.173c-.26-1.839-1.664-3.282-3.451-3.55v-1.208c2.43.284 4.348 2.257 4.624 4.758zm-5.207-5.988c-3.536 0-6.403 2.949-6.403 6.586-.024 3.613 2.804 6.562 6.316 6.587h.087c3.537 0 6.404-2.95 6.404-6.587 0-3.637-2.867-6.586-6.404-6.586z"/><linearGradient id="pgsfb" x1="897.8" x2="900.93" y1="992.7" y2="1056.28" gradientUnits="userSpaceOnUse"><stop offset="0" stop-color="#ffb7be"/><stop offset="1" stop-color="#ff61c1"/></linearGradient><linearGradient id="pgsfd" x1="905.54" x2="905.86" y1="1007.97" y2="1014.32" gradientUnits="userSpaceOnUse"><stop offset="0" stop-color="#ffb7be"/><stop offset="1" stop-color="#ff61c1"/></linearGradient><linearGradient id="pgsff" x1="905.54" x2="905.86" y1="1012.76" y2="1019.11" gradientUnits="userSpaceOnUse"><stop offset="0" stop-color="#ffb7be"/><stop offset="1" stop-color="#ff61c1"/></linearGradient><linearGradient id="pgsfh" x1="905.54" x2="905.86" y1="1017.55" y2="1023.9" gradientUnits="userSpaceOnUse"><stop offset="0" stop-color="#ffb7be"/><stop offset="1" stop-color="#ff61c1"/></linearGradient><linearGradient id="pgsfj" x1="910.92" x2="911.44" y1="1010.11" y2="1012.24" gradientUnits="userSpaceOnUse"><stop offset="0" stop-color="#ffb7be"/><stop offset="1" stop-color="#ff61c1"/></linearGradient><linearGradient id="pgsfl" x1="916.83" x2="917.03" y1="1010.11" y2="1012.24" gradientUnits="userSpaceOnUse"><stop offset="0" stop-color="#ffb7be"/><stop offset="1" stop-color="#ff61c1"/></linearGradient><linearGradient id="pgsfn" x1="910.92" x2="911.44" y1="1014.9" y2="1017.03" gradientUnits="userSpaceOnUse"><stop offset="0" stop-color="#ffb7be"/><stop offset="1" stop-color="#ff61c1"/></linearGradient><linearGradient id="pgsfp" x1="916.83" x2="917.03" y1="1014.9" y2="1017.03" gradientUnits="userSpaceOnUse"><stop offset="0" stop-color="#ffb7be"/><stop offset="1" stop-color="#ff61c1"/></linearGradient><linearGradient id="pgsfr" x1="910.92" x2="911.44" y1="1019.69" y2="1021.82" gradientUnits="userSpaceOnUse"><stop offset="0" stop-color="#ffb7be"/><stop offset="1" stop-color="#ff61c1"/></linearGradient><linearGradient id="pgsft" x1="916.83" x2="917.03" y1="1019.69" y2="1021.82" gradientUnits="userSpaceOnUse"><stop offset="0" stop-color="#ffb7be"/><stop offset="1" stop-color="#ff61c1"/></linearGradient><linearGradient id="pgsfv" x1="896.97" x2="898.85" y1="1019.71" y2="1032.42" gradientUnits="userSpaceOnUse"><stop offset="0" stop-color="#ffb7be"/><stop offset="1" stop-color="#ff61c1"/></linearGradient><linearGradient id="pgsfx" x1="916.83" x2="917.03" y1="1024.48" y2="1026.61" gradientUnits="userSpaceOnUse"><stop offset="0" stop-color="#ffb7be"/><stop offset="1" stop-color="#ff61c1"/></linearGradient><linearGradient id="pgsfz" x1="913.33" x2="913.54" y1="1024.48" y2="1026.61" gradientUnits="userSpaceOnUse"><stop offset="0" stop-color="#ffb7be"/><stop offset="1" stop-color="#ff61c1"/></linearGradient><linearGradient id="pgsfB" x1="913.33" x2="913.54" y1="1026.88" y2="1029.01" gradientUnits="userSpaceOnUse"><stop offset="0" stop-color="#ffb7be"/><stop offset="1" stop-color="#ff61c1"/></linearGradient><linearGradient id="pgsfD" x1="916.83" x2="917.03" y1="1026.88" y2="1029.01" gradientUnits="userSpaceOnUse"><stop offset="0" stop-color="#ffb7be"/><stop offset="1" stop-color="#ff61c1"/></linearGradient><linearGradient id="pgsfF" x1="894.45" x2="895.6" y1="1004.16" y2="1027.46" gradientUnits="userSpaceOnUse"><stop offset="0" stop-color="#ffb7be"/><stop offset="1" stop-color="#ff61c1"/></linearGradient></defs><g><g transform="translate(-887 -1007)"><g><use fill="url(#pgsfb)" xlink:href="#pgsfa"/></g><g><use fill="url(#pgsfd)" xlink:href="#pgsfc"/></g><g><use fill="url(#pgsff)" xlink:href="#pgsfe"/></g><g><use fill="url(#pgsfh)" xlink:href="#pgsfg"/></g><g><use fill="url(#pgsfj)" xlink:href="#pgsfi"/></g><g><use fill="url(#pgsfl)" xlink:href="#pgsfk"/></g><g><use fill="url(#pgsfn)" xlink:href="#pgsfm"/></g><g><use fill="url(#pgsfp)" xlink:href="#pgsfo"/></g><g><use fill="url(#pgsfr)" xlink:href="#pgsfq"/></g><g><use fill="url(#pgsft)" xlink:href="#pgsfs"/></g><g><use fill="url(#pgsfv)" xlink:href="#pgsfu"/></g><g><use fill="url(#pgsfx)" xlink:href="#pgsfw"/></g><g><use fill="url(#pgsfz)" xlink:href="#pgsfy"/></g><g><use fill="url(#pgsfB)" xlink:href="#pgsfA"/></g><g><use fill="url(#pgsfD)" xlink:href="#pgsfC"/></g><g><use fill="url(#pgsfF)" xlink:href="#pgsfE"/></g></g></g></svg>