<svg xmlns="http://www.w3.org/2000/svg" xmlns:xlink="http://www.w3.org/1999/xlink" width="35" height="36" viewBox="0 0 35 36"><defs><path id="77u0a" d="M890.503 924.2c-.645 0-1.169-.537-1.169-1.2 0-.663.524-1.2 1.17-1.2.645 0 1.168.537 1.168 1.2 0 .663-.523 1.2-1.169 1.2zm0-3.6c-1.288 0-2.333 1.075-2.333 2.4s1.045 2.4 2.333 2.4c1.289 0 2.334-1.075 2.334-2.4s-1.045-2.4-2.334-2.4z"/><path id="77u0c" d="M890.5 926c-1.933 0-3.5 1.612-3.5 3.6v1.8c0 .331.261.6.583.6a.592.592 0 0 0 .584-.6v-1.8c0-1.325 1.044-2.4 2.333-2.4 1.289 0 2.333 1.075 2.333 2.4v1.8c0 .331.262.6.584.6a.592.592 0 0 0 .583-.6v-1.8c0-1.988-1.567-3.6-3.5-3.6z"/><path id="77u0e" d="M899.833 924.2c-.644 0-1.166-.537-1.166-1.2 0-.663.522-1.2 1.166-1.2.645 0 1.167.537 1.167 1.2 0 .663-.522 1.2-1.167 1.2zm0-3.6c-1.288 0-2.333 1.075-2.333 2.4s1.045 2.4 2.333 2.4c1.289 0 2.334-1.075 2.334-2.4s-1.045-2.4-2.334-2.4z"/><path id="77u0g" d="M899.83 926c-1.933 0-3.5 1.612-3.5 3.6v1.8c0 .331.261.6.583.6a.592.592 0 0 0 .584-.6v-1.8c0-1.325 1.044-2.4 2.333-2.4 1.289 0 2.333 1.075 2.333 2.4v1.8c0 .331.262.6.584.6a.592.592 0 0 0 .583-.6v-1.8c0-1.988-1.567-3.6-3.5-3.6z"/><path id="77u0i" d="M909.163 924.2c-.644 0-1.166-.537-1.166-1.2 0-.663.522-1.2 1.166-1.2.645 0 1.167.537 1.167 1.2 0 .663-.522 1.2-1.167 1.2zm0-3.6c-1.288 0-2.333 1.075-2.333 2.4s1.045 2.4 2.333 2.4c1.289 0 2.334-1.075 2.334-2.4s-1.045-2.4-2.334-2.4z"/><path id="77u0k" d="M909.17 926c-1.933 0-3.5 1.612-3.5 3.6v1.8c0 .331.261.6.583.6a.592.592 0 0 0 .584-.6v-1.8c0-1.325 1.044-2.4 2.333-2.4 1.289 0 2.333 1.075 2.333 2.4v1.8c0 .331.262.6.584.6a.592.592 0 0 0 .583-.6v-1.8c0-1.988-1.567-3.6-3.5-3.6z"/><path id="77u0m" d="M918.503 924.2c-.645 0-1.169-.537-1.169-1.2 0-.663.524-1.2 1.17-1.2.645 0 1.168.537 1.168 1.2 0 .663-.523 1.2-1.169 1.2zm0-3.6c-1.288 0-2.333 1.075-2.333 2.4s1.045 2.4 2.333 2.4c1.289 0 2.334-1.075 2.334-2.4s-1.045-2.4-2.334-2.4z"/><path id="77u0o" d="M918.5 926c-1.932.002-3.498 1.613-3.5 3.6v1.8c0 .331.261.6.583.6a.592.592 0 0 0 .584-.6v-1.8c0-1.325 1.044-2.4 2.333-2.4 1.289 0 2.333 1.075 2.333 2.4v1.8c0 .331.262.6.584.6a.592.592 0 0 0 .583-.6v-1.8c-.002-1.987-1.568-3.598-3.5-3.6z"/><path id="77u0q" d="M890.503 912.8c-.645 0-1.169-.537-1.169-1.2 0-.663.524-1.2 1.17-1.2.645 0 1.168.537 1.168 1.2 0 .663-.523 1.2-1.169 1.2zm0-3.6c-1.288 0-2.333 1.075-2.333 2.4s1.045 2.4 2.333 2.4c1.289 0 2.334-1.075 2.334-2.4s-1.045-2.4-2.334-2.4z"/><path id="77u0s" d="M890.5 914.6c-1.933 0-3.5 1.612-3.5 3.6v1.8c0 .331.261.6.583.6a.592.592 0 0 0 .584-.6v-1.8c0-1.325 1.044-2.4 2.333-2.4 1.289 0 2.333 1.075 2.333 2.4v1.8c0 .331.262.6.584.6a.592.592 0 0 0 .583-.6v-1.8c0-1.988-1.567-3.6-3.5-3.6z"/><path id="77u0u" d="M899.833 912.8c-.644 0-1.166-.537-1.166-1.2 0-.663.522-1.2 1.166-1.2.645 0 1.167.537 1.167 1.2 0 .663-.522 1.2-1.167 1.2zm0-3.6c-1.288 0-2.333 1.075-2.333 2.4s1.045 2.4 2.333 2.4c1.289 0 2.334-1.075 2.334-2.4s-1.045-2.4-2.334-2.4z"/><path id="77u0w" d="M899.83 914.6c-1.933 0-3.5 1.612-3.5 3.6v1.8c0 .331.261.6.583.6a.592.592 0 0 0 .584-.6v-1.8c0-1.325 1.044-2.4 2.333-2.4 1.289 0 2.333 1.075 2.333 2.4v1.8c0 .331.262.6.584.6a.592.592 0 0 0 .583-.6v-1.8c0-1.988-1.567-3.6-3.5-3.6z"/><path id="77u0y" d="M909.163 912.8c-.644 0-1.166-.537-1.166-1.2 0-.663.522-1.2 1.166-1.2.645 0 1.167.537 1.167 1.2 0 .663-.522 1.2-1.167 1.2zm0-3.6c-1.288 0-2.333 1.075-2.333 2.4s1.045 2.4 2.333 2.4c1.289 0 2.334-1.075 2.334-2.4s-1.045-2.4-2.334-2.4z"/><path id="77u0A" d="M909.17 914.6c-1.933 0-3.5 1.612-3.5 3.6v1.8c0 .331.261.6.583.6a.592.592 0 0 0 .584-.6v-1.8c0-1.325 1.044-2.4 2.333-2.4 1.289 0 2.333 1.075 2.333 2.4v1.8c0 .331.262.6.584.6a.592.592 0 0 0 .583-.6v-1.8c0-1.988-1.567-3.6-3.5-3.6z"/><path id="77u0C" d="M918.503 912.8c-.645 0-1.169-.537-1.169-1.2 0-.663.524-1.2 1.17-1.2.645 0 1.168.537 1.168 1.2 0 .663-.523 1.2-1.169 1.2zm0-3.6c-1.288 0-2.333 1.075-2.333 2.4s1.045 2.4 2.333 2.4c1.289 0 2.334-1.075 2.334-2.4s-1.045-2.4-2.334-2.4z"/><path id="77u0E" d="M918.5 914.6c-1.932.002-3.498 1.613-3.5 3.6v1.8c0 .331.261.6.583.6a.592.592 0 0 0 .584-.6v-1.8c0-1.325 1.044-2.4 2.333-2.4 1.289 0 2.333 1.075 2.333 2.4v1.8c0 .331.262.6.584.6a.592.592 0 0 0 .583-.6v-1.8c-.002-1.987-1.568-3.598-3.5-3.6z"/><path id="77u0G" d="M916.17 906.8h-23.334v-9.6h23.334zm.583-10.8h-24.5a.592.592 0 0 0-.583.6v10.8c0 .331.261.6.583.6h24.5a.592.592 0 0 0 .584-.6v-10.8c0-.331-.262-.6-.584-.6z"/><path id="77u0I" d="M912.387 903.254l-1.47-1.507v-1.509c1.313.172 2.333.906 2.333 1.756a1.563 1.563 0 0 1-.863 1.26zm-2.061.546c-1.577 0-2.91-.824-2.91-1.8 0-.853 1.018-1.59 2.328-1.762V902c0 .16.061.312.17.424l1.249 1.288a4.4 4.4 0 0 1-.837.088zm.007-4.8c-2.29 0-4.083 1.32-4.083 3s1.794 3 4.083 3c2.29 0 4.084-1.32 4.084-3s-1.794-3-4.084-3z"/><path id="77u0K" d="M895.75 899h-1.167a.592.592 0 0 0-.583.6c0 .331.261.6.583.6h1.167a.592.592 0 0 0 .583-.6c0-.331-.26-.6-.583-.6z"/><path id="77u0M" d="M903.92 899h-6.417a.592.592 0 0 0-.583.6c0 .331.261.6.583.6h6.417a.592.592 0 0 0 .583-.6c0-.331-.26-.6-.583-.6z"/><path id="77u0O" d="M901 901.4h-6.417a.592.592 0 0 0-.583.6c0 .331.261.6.583.6H901a.592.592 0 0 0 .583-.6c0-.331-.26-.6-.583-.6z"/><path id="77u0Q" d="M903.92 901.4h-1.167a.592.592 0 0 0-.583.6c0 .331.261.6.583.6h1.167a.592.592 0 0 0 .583-.6c0-.331-.26-.6-.583-.6z"/><path id="77u0S" d="M897.5 903.8h-2.917a.592.592 0 0 0-.583.6c0 .331.261.6.583.6h2.917a.592.592 0 0 0 .583-.6c0-.331-.26-.6-.583-.6z"/><path id="77u0U" d="M903.92 903.8h-4.667a.592.592 0 0 0-.583.6c0 .331.261.6.583.6h4.667a.592.592 0 0 0 .583-.6c0-.331-.26-.6-.583-.6z"/><linearGradient id="77u0b" x1="889.61" x2="890.03" y1="918.69" y2="927.18" gradientUnits="userSpaceOnUse"><stop offset="0" stop-color="#ffb7be"/><stop offset="1" stop-color="#ff61c1"/></linearGradient><linearGradient id="77u0d" x1="889.16" x2="889.79" y1="923.61" y2="934.23" gradientUnits="userSpaceOnUse"><stop offset="0" stop-color="#ffb7be"/><stop offset="1" stop-color="#ff61c1"/></linearGradient><linearGradient id="77u0f" x1="898.94" x2="899.36" y1="918.69" y2="927.18" gradientUnits="userSpaceOnUse"><stop offset="0" stop-color="#ffb7be"/><stop offset="1" stop-color="#ff61c1"/></linearGradient><linearGradient id="77u0h" x1="898.49" x2="899.12" y1="923.61" y2="934.23" gradientUnits="userSpaceOnUse"><stop offset="0" stop-color="#ffb7be"/><stop offset="1" stop-color="#ff61c1"/></linearGradient><linearGradient id="77u0j" x1="908.27" x2="908.69" y1="918.69" y2="927.18" gradientUnits="userSpaceOnUse"><stop offset="0" stop-color="#ffb7be"/><stop offset="1" stop-color="#ff61c1"/></linearGradient><linearGradient id="77u0l" x1="907.83" x2="908.46" y1="923.61" y2="934.23" gradientUnits="userSpaceOnUse"><stop offset="0" stop-color="#ffb7be"/><stop offset="1" stop-color="#ff61c1"/></linearGradient><linearGradient id="77u0n" x1="917.61" x2="918.03" y1="918.69" y2="927.18" gradientUnits="userSpaceOnUse"><stop offset="0" stop-color="#ffb7be"/><stop offset="1" stop-color="#ff61c1"/></linearGradient><linearGradient id="77u0p" x1="917.16" x2="917.79" y1="923.61" y2="934.23" gradientUnits="userSpaceOnUse"><stop offset="0" stop-color="#ffb7be"/><stop offset="1" stop-color="#ff61c1"/></linearGradient><linearGradient id="77u0r" x1="889.61" x2="890.03" y1="907.29" y2="915.78" gradientUnits="userSpaceOnUse"><stop offset="0" stop-color="#ffb7be"/><stop offset="1" stop-color="#ff61c1"/></linearGradient><linearGradient id="77u0t" x1="889.16" x2="889.79" y1="912.21" y2="922.83" gradientUnits="userSpaceOnUse"><stop offset="0" stop-color="#ffb7be"/><stop offset="1" stop-color="#ff61c1"/></linearGradient><linearGradient id="77u0v" x1="898.94" x2="899.36" y1="907.29" y2="915.78" gradientUnits="userSpaceOnUse"><stop offset="0" stop-color="#ffb7be"/><stop offset="1" stop-color="#ff61c1"/></linearGradient><linearGradient id="77u0x" x1="898.49" x2="899.12" y1="912.21" y2="922.83" gradientUnits="userSpaceOnUse"><stop offset="0" stop-color="#ffb7be"/><stop offset="1" stop-color="#ff61c1"/></linearGradient><linearGradient id="77u0z" x1="908.27" x2="908.69" y1="907.29" y2="915.78" gradientUnits="userSpaceOnUse"><stop offset="0" stop-color="#ffb7be"/><stop offset="1" stop-color="#ff61c1"/></linearGradient><linearGradient id="77u0B" x1="907.83" x2="908.46" y1="912.21" y2="922.83" gradientUnits="userSpaceOnUse"><stop offset="0" stop-color="#ffb7be"/><stop offset="1" stop-color="#ff61c1"/></linearGradient><linearGradient id="77u0D" x1="917.61" x2="918.03" y1="907.29" y2="915.78" gradientUnits="userSpaceOnUse"><stop offset="0" stop-color="#ffb7be"/><stop offset="1" stop-color="#ff61c1"/></linearGradient><linearGradient id="77u0F" x1="917.16" x2="917.79" y1="912.21" y2="922.83" gradientUnits="userSpaceOnUse"><stop offset="0" stop-color="#ffb7be"/><stop offset="1" stop-color="#ff61c1"/></linearGradient><linearGradient id="77u0H" x1="899.6" x2="901.9" y1="891.22" y2="912.46" gradientUnits="userSpaceOnUse"><stop offset="0" stop-color="#ffb7be"/><stop offset="1" stop-color="#ff61c1"/></linearGradient><linearGradient id="77u0J" x1="908.78" x2="909.51" y1="896.61" y2="907.23" gradientUnits="userSpaceOnUse"><stop offset="0" stop-color="#ffb7be"/><stop offset="1" stop-color="#ff61c1"/></linearGradient><linearGradient id="77u0L" x1="894.72" x2="894.93" y1="898.52" y2="900.65" gradientUnits="userSpaceOnUse"><stop offset="0" stop-color="#ffb7be"/><stop offset="1" stop-color="#ff61c1"/></linearGradient><linearGradient id="77u0N" x1="899.26" x2="899.94" y1="898.52" y2="900.65" gradientUnits="userSpaceOnUse"><stop offset="0" stop-color="#ffb7be"/><stop offset="1" stop-color="#ff61c1"/></linearGradient><linearGradient id="77u0P" x1="896.34" x2="897.02" y1="900.92" y2="903.05" gradientUnits="userSpaceOnUse"><stop offset="0" stop-color="#ffb7be"/><stop offset="1" stop-color="#ff61c1"/></linearGradient><linearGradient id="77u0R" x1="902.89" x2="903.1" y1="900.92" y2="903.05" gradientUnits="userSpaceOnUse"><stop offset="0" stop-color="#ffb7be"/><stop offset="1" stop-color="#ff61c1"/></linearGradient><linearGradient id="77u0T" x1="895.26" x2="895.63" y1="903.32" y2="905.45" gradientUnits="userSpaceOnUse"><stop offset="0" stop-color="#ffb7be"/><stop offset="1" stop-color="#ff61c1"/></linearGradient><linearGradient id="77u0V" x1="900.47" x2="900.99" y1="903.32" y2="905.45" gradientUnits="userSpaceOnUse"><stop offset="0" stop-color="#ffb7be"/><stop offset="1" stop-color="#ff61c1"/></linearGradient></defs><g><g transform="translate(-887 -896)"><g><use fill="url(#77u0b)" xlink:href="#77u0a"/></g><g><use fill="url(#77u0d)" xlink:href="#77u0c"/></g><g><use fill="url(#77u0f)" xlink:href="#77u0e"/></g><g><use fill="url(#77u0h)" xlink:href="#77u0g"/></g><g><use fill="url(#77u0j)" xlink:href="#77u0i"/></g><g><use fill="url(#77u0l)" xlink:href="#77u0k"/></g><g><use fill="url(#77u0n)" xlink:href="#77u0m"/></g><g><use fill="url(#77u0p)" xlink:href="#77u0o"/></g><g><use fill="url(#77u0r)" xlink:href="#77u0q"/></g><g><use fill="url(#77u0t)" xlink:href="#77u0s"/></g><g><use fill="url(#77u0v)" xlink:href="#77u0u"/></g><g><use fill="url(#77u0x)" xlink:href="#77u0w"/></g><g><use fill="url(#77u0z)" xlink:href="#77u0y"/></g><g><use fill="url(#77u0B)" xlink:href="#77u0A"/></g><g><use fill="url(#77u0D)" xlink:href="#77u0C"/></g><g><use fill="url(#77u0F)" xlink:href="#77u0E"/></g><g><use fill="url(#77u0H)" xlink:href="#77u0G"/></g><g><use fill="url(#77u0J)" xlink:href="#77u0I"/></g><g><use fill="url(#77u0L)" xlink:href="#77u0K"/></g><g><use fill="url(#77u0N)" xlink:href="#77u0M"/></g><g><use fill="url(#77u0P)" xlink:href="#77u0O"/></g><g><use fill="url(#77u0R)" xlink:href="#77u0Q"/></g><g><use fill="url(#77u0T)" xlink:href="#77u0S"/></g><g><use fill="url(#77u0V)" xlink:href="#77u0U"/></g></g></g></svg>