<svg xmlns="http://www.w3.org/2000/svg" xmlns:xlink="http://www.w3.org/1999/xlink" width="35" height="36"
     viewBox="0 0 35 36">
    <defs>
        <path id="wxwfa"
              d="M836.823 1040.8h-9.906V1030h9.906zm-11.073 0h-10.5v-21.6h10.5zm-7-23.152l.825-.848h1.85l.825.848v.352h-3.5zm.998-3.672l-.415-.424v-.352h2.344v.352l-.414.424a.607.607 0 0 0-.172.424v1.2h-1.172v-1.2a.607.607 0 0 0-.171-.424zm-2.738-6.776h6.98a7.641 7.641 0 0 1-1.987 4.8h-3.006a7.64 7.64 0 0 1-1.987-4.8zm1.157 5.735c-1.722-.83-2.848-2.58-2.917-4.535h.726a8.808 8.808 0 0 0 2.19 4.43zm6.855-4.535h.728c-.07 1.954-1.195 3.705-2.917 4.535v-.105a8.808 8.808 0 0 0 2.189-4.43zm-10.949 32.4h-9.906V1030h9.906zm23.344-12h-10.5v-10.2c0-.331-.262-.6-.584-.6h-2.916v-.6a.609.609 0 0 0-.171-.424l-.996-1.024v-1.304l.315-.324c2.582-.843 4.34-3.305 4.352-6.092v-.432c0-.331-.262-.6-.584-.6h-1.185c.006-.131.019-.262.019-.394v-.206c0-.331-.262-.6-.584-.6h-8.166a.592.592 0 0 0-.584.6v.206c0 .132.013.263.019.394h-1.185a.592.592 0 0 0-.584.6v.432c.011 2.787 1.77 5.248 4.352 6.092l.315.324v1.304l-.996 1.024a.609.609 0 0 0-.17.424v.6h-2.917a.592.592 0 0 0-.584.6v10.2h-10.5a.592.592 0 0 0-.583.6v12c0 .331.261.6.583.6h33.834a.592.592 0 0 0 .583-.6v-12c0-.331-.261-.6-.583-.6z"/>
        <linearGradient id="wxwfb" x1="813.82" x2="816.95" y1="991.67" y2="1055.38" gradientUnits="userSpaceOnUse">
            <stop offset="0" stop-color="#ffb7be"/>
            <stop offset="1" stop-color="#ff61c1"/>
        </linearGradient>
    </defs>
    <g>
        <g transform="translate(-803 -1006)">
            <g>
                <use fill="url(#wxwfb)" xlink:href="#wxwfa"/>
            </g>
        </g>
    </g>
</svg>