<svg xmlns="http://www.w3.org/2000/svg" xmlns:xlink="http://www.w3.org/1999/xlink" width="26" height="36" viewBox="0 0 26 36"><defs><path id="s8afa" d="M990.178 1032.8h-15.022v-6h15.022zm-1.156 9h-12.71v-7.8h12.71zm-12.71-18h1.155v1.8h-1.156zm0-1.8c0-.331.258-.6.577-.6a.59.59 0 0 1 .578.6v.6h-1.156zm6.923.6v3h-1.146v-3zm-1.146-1.2v-.6c0-.331.256-.6.573-.6.316 0 .572.269.572.6v.6zm-4.622-1.8c0-.994.776-1.8 1.733-1.8h6.933c.958 0 1.734.806 1.734 1.8v.71c-.69.254-1.153.93-1.156 1.69v3.6H984.4v-4.8c0-.994-.776-1.8-1.733-1.8-.958 0-1.734.806-1.734 1.8v4.8h-2.31v-3.6c-.004-.76-.466-1.436-1.156-1.69zm11.545 4.2v1.8h-1.145v-1.8zm-.572-2.4c.316 0 .572.269.572.6v.6h-1.145v-.6c0-.331.256-.6.573-.6zm2.316 4.2h-.578v-3.6c-.003-.76-.466-1.436-1.156-1.69v-.71c-.002-1.656-1.294-2.998-2.889-3H979.2c-1.595.002-2.887 1.344-2.889 3v.71c-.69.254-1.152.93-1.155 1.69v3.6h-.578a.59.59 0 0 0-.578.6v7.2c0 .331.259.6.578.6h.578v8.4c0 .331.258.6.577.6H989.6a.59.59 0 0 0 .578-.6v-8.4h.578a.59.59 0 0 0 .577-.6v-7.2a.59.59 0 0 0-.577-.6z"/><path id="s8afc" d="M982.66 1014.2c-1.593 0-2.884-1.343-2.884-3 .001-1.656 1.292-2.998 2.883-3 1.593 0 2.884 1.343 2.884 3s-1.29 3-2.884 3zm.004-7.2c-2.233 0-4.044 1.88-4.044 4.2.003 2.318 1.812 4.197 4.044 4.2 2.234 0 4.045-1.88 4.045-4.2 0-2.32-1.81-4.2-4.045-4.2z"/><path id="s8afe" d="M998.84 1012.4a.59.59 0 0 1-.578.6h-4.622c-.153 0-.3.063-.408.176l-1.325 1.376v-.952a.59.59 0 0 0-.578-.6h-1.156a.59.59 0 0 1-.577-.6v-3.6c0-.331.258-.6.577-.6h8.09a.59.59 0 0 1 .577.6zm-.578-5.4h-8.089c-.957 0-1.733.806-1.733 1.8v3.6c0 .994.776 1.8 1.733 1.8h.578v1.8c0 .331.259.6.578.6.153 0 .3-.063.408-.176l2.142-2.224h4.383c.958 0 1.734-.806 1.734-1.8v-3.6c0-.994-.776-1.8-1.734-1.8z"/><path id="s8afg" d="M991.33 1011.2v-1.2h1.16v1.2z"/><path id="s8afi" d="M995.96 1011.2v-1.2h1.16v1.2z"/><path id="s8afk" d="M993.64 1011.2v-1.2h1.16v1.2z"/><linearGradient id="s8afb" x1="979.36" x2="980.91" y1="1006.09" y2="1052.81" gradientUnits="userSpaceOnUse"><stop offset="0" stop-color="#ffb7be"/><stop offset="1" stop-color="#ff61c1"/></linearGradient><linearGradient id="s8afd" x1="981.12" x2="981.85" y1="1003.66" y2="1018.52" gradientUnits="userSpaceOnUse"><stop offset="0" stop-color="#ffb7be"/><stop offset="1" stop-color="#ff61c1"/></linearGradient><linearGradient id="s8aff" x1="992.01" x2="993.05" y1="1003.18" y2="1020.17" gradientUnits="userSpaceOnUse"><stop offset="0" stop-color="#ffb7be"/><stop offset="1" stop-color="#ff61c1"/></linearGradient><linearGradient id="s8afh" x1="991.69" x2="991.79" y1="1009.52" y2="1011.65" gradientUnits="userSpaceOnUse"><stop offset="0" stop-color="#ffb7be"/><stop offset="1" stop-color="#ff61c1"/></linearGradient><linearGradient id="s8afj" x1="996.32" x2="996.42" y1="1009.52" y2="1011.65" gradientUnits="userSpaceOnUse"><stop offset="0" stop-color="#ffb7be"/><stop offset="1" stop-color="#ff61c1"/></linearGradient><linearGradient id="s8afl" x1="994" x2="994.1" y1="1009.52" y2="1011.65" gradientUnits="userSpaceOnUse"><stop offset="0" stop-color="#ffb7be"/><stop offset="1" stop-color="#ff61c1"/></linearGradient></defs><g><g transform="translate(-974 -1007)"><g><use fill="url(#s8afb)" xlink:href="#s8afa"/></g><g><use fill="url(#s8afd)" xlink:href="#s8afc"/></g><g><use fill="url(#s8aff)" xlink:href="#s8afe"/></g><g><use fill="url(#s8afh)" xlink:href="#s8afg"/></g><g><use fill="url(#s8afj)" xlink:href="#s8afi"/></g><g><use fill="url(#s8afl)" xlink:href="#s8afk"/></g></g></g></svg>