<svg xmlns="http://www.w3.org/2000/svg" xmlns:xlink="http://www.w3.org/1999/xlink" width="35" height="36" viewBox="0 0 35 36"><defs><path id="6j8ma" d="M832.116 929.728h-27.952v-33.53h27.952zm.572-34.728h-29.106a.59.59 0 0 0-.582.599v34.727c0 .331.26.6.582.6h29.106a.59.59 0 0 0 .582-.6V895.6a.59.59 0 0 0-.582-.599z"/><path id="6j8mc" d="M836.765 899.79h-1.167v-1.082l.583-1.497.584 1.497zm0 26.935h-1.167v-25.737h1.167zm0 2.405c0 .33-.261.598-.584.598a.591.591 0 0 1-.583-.598v-1.198h1.167zm1.116-30.759l-1.164-2.994a.577.577 0 0 0-1.081 0l-1.165 2.994a.614.614 0 0 0-.041.222v30.537c0 .992.782 1.796 1.746 1.796.965 0 1.747-.804 1.747-1.796v-30.537a.614.614 0 0 0-.042-.222z"/><path id="6j8me" d="M815.82 910.94l-3.263-3.364 3.263-3.364a5.523 5.523 0 0 1 0 6.728zm-8.18.008c-1.805-2.328-1.437-5.722.824-7.58a5.16 5.16 0 0 1 2.687-1.147v5.36c.001.07.014.139.039.204.003.008 0 .016.005.024a.234.234 0 0 1 .021.033.583.583 0 0 0 .085.132c.009.01.012.022.02.03l3.683 3.792c-2.26 1.859-5.558 1.48-7.364-.848zm4.676-8.728c.98.11 1.91.508 2.678 1.146l-2.678 2.765zm-.583-1.23c-3.536 0-6.403 2.949-6.403 6.586-.022 3.615 2.809 6.564 6.323 6.587h.08c3.537 0 6.404-2.95 6.404-6.587 0-3.637-2.867-6.586-6.404-6.586z"/><path id="6j8mg" d="M828.61 905.78v-1.2h2.33v1.2z"/><path id="6j8mi" d="M821.63 905.78v-1.2h5.82v1.2z"/><path id="6j8mk" d="M827.45 910.57v-1.2h3.49v1.2z"/><path id="6j8mm" d="M821.63 910.57v-1.2h4.66v1.2z"/><path id="6j8mo" d="M825.12 908.18v-1.2h5.82v1.2z"/><path id="6j8mq" d="M821.63 908.18v-1.2h2.33v1.2z"/><path id="6j8ms" d="M820.295 904.759a.59.59 0 0 0-.826 0 .638.638 0 0 0-.169.425c-.001.16.06.313.169.425a.85.85 0 0 0 .192.132.584.584 0 0 0 .803-.557.638.638 0 0 0-.169-.425z"/><path id="6j8mu" d="M820.418 907.344a.695.695 0 0 0-.123-.198.597.597 0 0 0-.826 0 .621.621 0 0 0-.122.198.605.605 0 0 0 .122.652.57.57 0 0 0 .823.004.607.607 0 0 0 .126-.656z"/><path id="6j8mw" d="M819.882 909.37a.59.59 0 0 0-.582.599c-.001.159.06.312.169.425a.57.57 0 0 0 .823.003.607.607 0 0 0 .172-.428.59.59 0 0 0-.582-.599z"/><path id="6j8my" d="M821.63 899.19v-1.2h2.33v1.2z"/><path id="6j8mA" d="M812.31 899.19v-1.2h8.15v1.2z"/><path id="6j8mC" d="M826.286 927.335h-19.792V915.96a.59.59 0 0 0-.582-.599.59.59 0 0 0-.582.599v11.975c0 .33.26.599.582.599h20.374a.59.59 0 0 0 .582-.6.59.59 0 0 0-.582-.598z"/><path id="6j8mE" d="M820.796 924.245l-3.667-1.077a.567.567 0 0 0-.344.008l-3.174 1.087-2.249-2.056 1.533-.79 2.068 1.066c.193.1.423.08.599-.049l3.722-2.734 2.935 2.35zm4.118-1.56a.538.538 0 0 0-.02-.016l-1.106-.885 1.234-1.903a.61.61 0 0 0-.162-.83.572.572 0 0 0-.807.166l-1.186 1.83-3.211-2.57a.57.57 0 0 0-.699-.014l-3.79 2.783-2.015-1.036a.568.568 0 0 0-.52 0l-2.212 1.138-1.8-1.647a.571.571 0 0 0-.823.049.61.61 0 0 0 .048.845l1.455 1.33-1.326.681a.607.607 0 0 0-.257.804.575.575 0 0 0 .78.268h.001l1.747-.898 2.848 2.604a.57.57 0 0 0 .57.12l3.323-1.138 3.9 1.147a.578.578 0 0 0 .643-.242l1.611-2.488 1.04.83c.249.21.615.17.818-.086a.61.61 0 0 0-.084-.842z"/><path id="6j8mG" d="M830.36 918.95h-2.328a.59.59 0 0 0-.582.599c0 .33.26.599.582.599h2.329a.59.59 0 0 0 .582-.6.59.59 0 0 0-.582-.598z"/><path id="6j8mI" d="M830.36 922.54h-2.328a.59.59 0 0 0-.582.599c0 .33.26.599.582.599h2.329a.59.59 0 0 0 .582-.6.59.59 0 0 0-.582-.598z"/><linearGradient id="6j8mb" x1="812.36" x2="815.07" y1="880.7" y2="944.28" gradientUnits="userSpaceOnUse"><stop offset="0" stop-color="#ffb7be"/><stop offset="1" stop-color="#ff61c1"/></linearGradient><linearGradient id="6j8md" x1="835.51" x2="835.83" y1="880.7" y2="944.28" gradientUnits="userSpaceOnUse"><stop offset="0" stop-color="#ffb7be"/><stop offset="1" stop-color="#ff61c1"/></linearGradient><linearGradient id="6j8mf" x1="809.29" x2="810.44" y1="895.75" y2="919.05" gradientUnits="userSpaceOnUse"><stop offset="0" stop-color="#ffb7be"/><stop offset="1" stop-color="#ff61c1"/></linearGradient><linearGradient id="6j8mh" x1="829.33" x2="829.54" y1="904.1" y2="906.23" gradientUnits="userSpaceOnUse"><stop offset="0" stop-color="#ffb7be"/><stop offset="1" stop-color="#ff61c1"/></linearGradient><linearGradient id="6j8mj" x1="823.43" x2="823.95" y1="904.1" y2="906.23" gradientUnits="userSpaceOnUse"><stop offset="0" stop-color="#ffb7be"/><stop offset="1" stop-color="#ff61c1"/></linearGradient><linearGradient id="6j8ml" x1="828.53" x2="828.84" y1="908.89" y2="911.02" gradientUnits="userSpaceOnUse"><stop offset="0" stop-color="#ffb7be"/><stop offset="1" stop-color="#ff61c1"/></linearGradient><linearGradient id="6j8mn" x1="823.07" x2="823.49" y1="908.89" y2="911.02" gradientUnits="userSpaceOnUse"><stop offset="0" stop-color="#ffb7be"/><stop offset="1" stop-color="#ff61c1"/></linearGradient><linearGradient id="6j8mp" x1="826.92" x2="827.44" y1="906.51" y2="908.61" gradientUnits="userSpaceOnUse"><stop offset="0" stop-color="#ffb7be"/><stop offset="1" stop-color="#ff61c1"/></linearGradient><linearGradient id="6j8mr" x1="822.35" x2="822.56" y1="906.51" y2="908.61" gradientUnits="userSpaceOnUse"><stop offset="0" stop-color="#ffb7be"/><stop offset="1" stop-color="#ff61c1"/></linearGradient><linearGradient id="6j8mt" x1="819.66" x2="819.76" y1="904.12" y2="906.22" gradientUnits="userSpaceOnUse"><stop offset="0" stop-color="#ffb7be"/><stop offset="1" stop-color="#ff61c1"/></linearGradient><linearGradient id="6j8mv" x1="819.66" x2="819.76" y1="906.5" y2="908.63" gradientUnits="userSpaceOnUse"><stop offset="0" stop-color="#ffb7be"/><stop offset="1" stop-color="#ff61c1"/></linearGradient><linearGradient id="6j8mx" x1="819.66" x2="819.76" y1="908.89" y2="911.02" gradientUnits="userSpaceOnUse"><stop offset="0" stop-color="#ffb7be"/><stop offset="1" stop-color="#ff61c1"/></linearGradient><linearGradient id="6j8mz" x1="822.35" x2="822.56" y1="897.51" y2="899.64" gradientUnits="userSpaceOnUse"><stop offset="0" stop-color="#ffb7be"/><stop offset="1" stop-color="#ff61c1"/></linearGradient><linearGradient id="6j8mB" x1="814.83" x2="815.56" y1="897.51" y2="899.64" gradientUnits="userSpaceOnUse"><stop offset="0" stop-color="#ffb7be"/><stop offset="1" stop-color="#ff61c1"/></linearGradient><linearGradient id="6j8mD" x1="811.99" x2="813.92" y1="910.12" y2="933.42" gradientUnits="userSpaceOnUse"><stop offset="0" stop-color="#ffb7be"/><stop offset="1" stop-color="#ff61c1"/></linearGradient><linearGradient id="6j8mF" x1="813.05" x2="814.62" y1="915.49" y2="928.21" gradientUnits="userSpaceOnUse"><stop offset="0" stop-color="#ffb7be"/><stop offset="1" stop-color="#ff61c1"/></linearGradient><linearGradient id="6j8mH" x1="828.53" x2="828.84" y1="918.47" y2="920.6" gradientUnits="userSpaceOnUse"><stop offset="0" stop-color="#ffb7be"/><stop offset="1" stop-color="#ff61c1"/></linearGradient><linearGradient id="6j8mJ" x1="828.53" x2="828.84" y1="922.06" y2="924.19" gradientUnits="userSpaceOnUse"><stop offset="0" stop-color="#ffb7be"/><stop offset="1" stop-color="#ff61c1"/></linearGradient></defs><g><g transform="translate(-803 -895)"><g><use fill="url(#6j8mb)" xlink:href="#6j8ma"/></g><g><use fill="url(#6j8md)" xlink:href="#6j8mc"/></g><g><use fill="url(#6j8mf)" xlink:href="#6j8me"/></g><g><use fill="url(#6j8mh)" xlink:href="#6j8mg"/></g><g><use fill="url(#6j8mj)" xlink:href="#6j8mi"/></g><g><use fill="url(#6j8ml)" xlink:href="#6j8mk"/></g><g><use fill="url(#6j8mn)" xlink:href="#6j8mm"/></g><g><use fill="url(#6j8mp)" xlink:href="#6j8mo"/></g><g><use fill="url(#6j8mr)" xlink:href="#6j8mq"/></g><g><use fill="url(#6j8mt)" xlink:href="#6j8ms"/></g><g><use fill="url(#6j8mv)" xlink:href="#6j8mu"/></g><g><use fill="url(#6j8mx)" xlink:href="#6j8mw"/></g><g><use fill="url(#6j8mz)" xlink:href="#6j8my"/></g><g><use fill="url(#6j8mB)" xlink:href="#6j8mA"/></g><g><use fill="url(#6j8mD)" xlink:href="#6j8mC"/></g><g><use fill="url(#6j8mF)" xlink:href="#6j8mE"/></g><g><use fill="url(#6j8mH)" xlink:href="#6j8mG"/></g><g><use fill="url(#6j8mJ)" xlink:href="#6j8mI"/></g></g></g></svg>