<svg xmlns="http://www.w3.org/2000/svg" xmlns:xlink="http://www.w3.org/1999/xlink" width="27" height="36" viewBox="0 0 27 36"><defs><path id="h0cda" d="M737.079 1022.2h-1.168a.592.592 0 0 1-.583-.6v-.6c0-.331.261-.6.583-.6h1.168c.322 0 .584.269.584.6h1.167c0-.994-.784-1.8-1.751-1.8v-1.2h-1.168v1.2c-.967 0-1.751.806-1.751 1.8v.6c0 .994.784 1.8 1.751 1.8h1.168c.322 0 .584.269.584.6v.6c0 .331-.262.6-.584.6h-1.168a.592.592 0 0 1-.583-.6h-1.168c0 .994.784 1.8 1.751 1.8v1.2h1.168v-1.2c.967 0 1.751-.806 1.751-1.8v-.6c0-.994-.784-1.8-1.751-1.8z"/><path id="h0cdc" d="M736.49 1031.204c-4.512.002-8.17-3.757-8.172-8.396-.002-2.953 1.504-5.69 3.967-7.208h8.401c2.456 1.521 3.96 4.251 3.968 7.2.002 4.64-3.654 8.402-8.165 8.404zm-5.254-18.004h10.509c.322 0 .583.269.583.6 0 .331-.261.6-.583.6h-10.509a.592.592 0 0 1-.583-.6c0-.331.261-.6.583-.6zm2.157-5.971c.092-.02.185-.029.278-.029a1.952 1.952 0 0 1 1.41.6c.789.773 2.03.773 2.819 0 .373-.385.88-.601 1.41-.6.78 0 1.412.652 1.412 1.454 0 .096-.01.192-.028.286l-.596 3.06h-7.215l-.596-3.06c-.154-.786.34-1.553 1.106-1.711zm9.078 8.204c.877-.418 1.26-1.488.853-2.39a1.75 1.75 0 0 0-1.58-1.043h-.455l.55-2.828c.28-1.436-.627-2.834-2.025-3.12a2.515 2.515 0 0 0-.504-.052 3.096 3.096 0 0 0-2.236.952.828.828 0 0 1-1.167 0 3.096 3.096 0 0 0-2.236-.952c-1.425 0-2.58 1.188-2.58 2.653 0 .175.017.348.05.52l.55 2.827h-.455c-.967.006-1.746.816-1.74 1.81.003.698.399 1.33 1.014 1.623-2.124 1.825-3.354 4.522-3.36 7.367-.004 5.302 4.174 9.603 9.333 9.608 5.159.004 9.344-4.29 9.348-9.593.002-2.851-1.229-5.556-3.36-7.382z"/><path id="h0cde" d="M748.47 1035.445l-3.187 3.276a2.861 2.861 0 0 1-2.064.88h-13.146v-3h2.92c.126 0 .248-.043.35-.12l2.18-1.68h2.724c.645 0 1.168.536 1.168 1.2 0 .662-.523 1.2-1.168 1.2h-2.335v1.2h2.335c.834-.001 1.605-.458 2.022-1.2h3.233a.576.576 0 0 0 .413-.177s2.048-2.105 3.006-3.096c.212-.217.501-.335.8-.328.28 0 .55.115.746.321.204.215.312.506.3.805a1.05 1.05 0 0 1-.296.72zm-19.554 5.355h-4.679v-5.4h4.679zm20.383-7.72a2.183 2.183 0 0 0-1.604-.68 2.206 2.206 0 0 0-1.602.683c-.79.817-2.321 2.392-2.833 2.917h-2.676c0-1.325-1.046-2.4-2.336-2.4h-2.919a.573.573 0 0 0-.35.12l-2.18 1.68h-2.724v-.6c0-.331-.261-.6-.583-.6h-5.838a.592.592 0 0 0-.584.6v6.6c0 .332.261.6.584.6h5.838a.592.592 0 0 0 .583-.6v-.6h13.144a4.003 4.003 0 0 0 2.89-1.23l3.187-3.276c.851-.892.853-2.32.003-3.214z"/><path id="h0cdg" d="M726.57 1039.6v-1.2h1.17v1.2z"/><linearGradient id="h0cdb" x1="735.6" x2="736.02" y1="1014.18" y2="1031.17" gradientUnits="userSpaceOnUse"><stop offset="0" stop-color="#ffb7be"/><stop offset="1" stop-color="#ff61c1"/></linearGradient><linearGradient id="h0cdd" x1="732.92" x2="734.6" y1="995.49" y2="1042.22" gradientUnits="userSpaceOnUse"><stop offset="0" stop-color="#ffb7be"/><stop offset="1" stop-color="#ff61c1"/></linearGradient><linearGradient id="h0cdf" x1="731.37" x2="733.78" y1="1028.58" y2="1045.57" gradientUnits="userSpaceOnUse"><stop offset="0" stop-color="#ffb7be"/><stop offset="1" stop-color="#ff61c1"/></linearGradient><linearGradient id="h0cdh" x1="726.93" x2="727.04" y1="1037.92" y2="1040.05" gradientUnits="userSpaceOnUse"><stop offset="0" stop-color="#ffb7be"/><stop offset="1" stop-color="#ff61c1"/></linearGradient></defs><g><g transform="translate(-723 -1006)"><g><use fill="url(#h0cdb)" xlink:href="#h0cda"/></g><g><use fill="url(#h0cdd)" xlink:href="#h0cdc"/></g><g><use fill="url(#h0cdf)" xlink:href="#h0cde"/></g><g><use fill="url(#h0cdh)" xlink:href="#h0cdg"/></g></g></g></svg>