<svg xmlns="http://www.w3.org/2000/svg" xmlns:xlink="http://www.w3.org/1999/xlink" width="35" height="36" viewBox="0 0 35 36"><defs><path id="zjpaa" d="M1002.823 926.2c0 .331-.26.6-.582.6h-6.992a.592.592 0 0 1-.582-.6v-4.8c0-.331.26-.6.582-.6h2.09l.823.848v1.552h1.166v-1.552l.823-.848h2.09c.321 0 .582.269.582.6zm-.573-6.6h-2.333a.575.575 0 0 0-.413.176l-.754.776-.754-.776a.575.575 0 0 0-.413-.176h-2.333c-.967 0-1.75.806-1.75 1.8v4.8c0 .994.783 1.8 1.75 1.8h7c.967 0 1.75-.806 1.75-1.8v-4.8c0-.994-.783-1.8-1.75-1.8z"/><path id="zjpac" d="M978.323 926.2c0 .331-.26.6-.582.6h-6.992a.592.592 0 0 1-.582-.6v-4.8c0-.331.26-.6.582-.6h2.09l.823.848v1.552h1.166v-1.552l.823-.848h2.09c.321 0 .582.269.582.6zm-.573-6.6h-2.333a.575.575 0 0 0-.413.176l-.754.776-.754-.776a.575.575 0 0 0-.413-.176h-2.333c-.967 0-1.75.806-1.75 1.8v4.8c0 .994.783 1.8 1.75 1.8h7c.967 0 1.75-.806 1.75-1.8v-4.8c0-.994-.783-1.8-1.75-1.8z"/><path id="zjpae" d="M986.495 898c-1.286 0-2.328-1.075-2.328-2.4s1.042-2.4 2.328-2.4c1.286 0 2.328 1.075 2.328 2.4s-1.042 2.4-2.328 2.4zm.005-6c-1.933 0-3.5 1.612-3.5 3.6s1.567 3.6 3.5 3.6c1.932-.002 3.498-1.613 3.5-3.6 0-1.988-1.567-3.6-3.5-3.6z"/><path id="zjpag" d="M998.746 917.8c-1.286 0-2.329-1.075-2.329-2.4s1.043-2.4 2.329-2.4c1.285 0 2.328 1.075 2.328 2.4s-1.043 2.4-2.328 2.4zM983 907a.592.592 0 0 1-.583-.6v-4.8c0-.331.261-.6.583-.6h1.436l.858 1.326-.535 2.754a.612.612 0 0 0 .16.54l1.165 1.2a.57.57 0 0 0 .824 0l1.165-1.2a.612.612 0 0 0 .159-.54l-.535-2.756.858-1.324h1.436c.322 0 .583.269.583.6v4.8c0 .331-.26.6-.583.6zm5.824 8.4c0 1.325-1.043 2.4-2.328 2.4-1.286 0-2.329-1.075-2.329-2.4s1.043-2.4 2.329-2.4c1.285 0 2.328 1.075 2.328 2.4zM987.16 901l-.562.867a.612.612 0 0 0-.087.45l.522 2.686-.533.549-.534-.55.522-2.682a.608.608 0 0 0-.086-.452l-.563-.868zm-10.587 14.4c0 1.325-1.043 2.4-2.328 2.4-1.286 0-2.329-1.075-2.329-2.4s1.043-2.4 2.329-2.4c1.285 0 2.328 1.075 2.328 2.4zm25.628-.596c-.249-1.511-1.4-2.695-2.868-2.95V910c0-.331-.261-.6-.583-.6h-11.667v-1.2H990c.966 0 1.75-.806 1.75-1.8v-4.8c0-.994-.784-1.8-1.75-1.8h-7c-.967 0-1.75.806-1.75 1.8v4.8c0 .994.783 1.8 1.75 1.8h2.916v1.2h-11.666a.592.592 0 0 0-.584.6v1.854c-1.906.331-3.19 2.19-2.868 4.15.323 1.96 2.129 3.28 4.035 2.95 1.906-.332 3.19-2.19 2.868-4.15-.249-1.511-1.4-2.695-2.868-2.95V910.6h11.083v1.254c-1.906.331-3.19 2.19-2.868 4.15.323 1.96 2.129 3.28 4.035 2.95 1.906-.332 3.19-2.19 2.868-4.15-.249-1.511-1.4-2.695-2.868-2.95V910.6h11.083v1.254c-1.906.331-3.19 2.19-2.868 4.15.323 1.96 2.129 3.28 4.035 2.95 1.906-.332 3.19-2.19 2.868-4.15z"/><path id="zjpai" d="M990.573 926.2c0 .331-.26.6-.582.6h-6.992a.592.592 0 0 1-.582-.6v-4.8c0-.331.26-.6.582-.6h2.09l.823.848v1.552h1.166v-1.552l.823-.848h2.09c.321 0 .582.269.582.6zm-.573-6.6h-2.333a.575.575 0 0 0-.413.176l-.754.776-.754-.776a.575.575 0 0 0-.413-.176H983c-.967 0-1.75.806-1.75 1.8v4.8c0 .994.783 1.8 1.75 1.8h7c.967 0 1.75-.806 1.75-1.8v-4.8c0-.994-.783-1.8-1.75-1.8z"/><linearGradient id="zjpab" x1="996.75" x2="997.69" y1="916.26" y2="931.12" gradientUnits="userSpaceOnUse"><stop offset="0" stop-color="#ffb7be"/><stop offset="1" stop-color="#ff61c1"/></linearGradient><linearGradient id="zjpad" x1="972.25" x2="973.19" y1="916.26" y2="931.12" gradientUnits="userSpaceOnUse"><stop offset="0" stop-color="#ffb7be"/><stop offset="1" stop-color="#ff61c1"/></linearGradient><linearGradient id="zjpaf" x1="985.16" x2="985.79" y1="889.13" y2="901.88" gradientUnits="userSpaceOnUse"><stop offset="0" stop-color="#ffb7be"/><stop offset="1" stop-color="#ff61c1"/></linearGradient><linearGradient id="zjpah" x1="980.49" x2="983.31" y1="892.16" y2="926.13" gradientUnits="userSpaceOnUse"><stop offset="0" stop-color="#ffb7be"/><stop offset="1" stop-color="#ff61c1"/></linearGradient><linearGradient id="zjpaj" x1="984.5" x2="985.44" y1="916.26" y2="931.12" gradientUnits="userSpaceOnUse"><stop offset="0" stop-color="#ffb7be"/><stop offset="1" stop-color="#ff61c1"/></linearGradient></defs><g><g transform="translate(-969 -892)"><g><use fill="url(#zjpab)" xlink:href="#zjpaa"/></g><g><use fill="url(#zjpad)" xlink:href="#zjpac"/></g><g><use fill="url(#zjpaf)" xlink:href="#zjpae"/></g><g><use fill="url(#zjpah)" xlink:href="#zjpag"/></g><g><use fill="url(#zjpaj)" xlink:href="#zjpai"/></g></g></g></svg>