<svg xmlns="http://www.w3.org/2000/svg" xmlns:xlink="http://www.w3.org/1999/xlink" width="153" height="37" viewBox="0 0 153 37"><defs><path id="kmaca" d="M460.909 41.644c1.427.025 2.475.405 3.144 1.138a3.92 3.92 0 0 1 .995 2.697 3.86 3.86 0 0 1-.995 2.658c-.66.762-1.712 1.15-3.144 1.174h-5.939v-7.667zm-.35-10.763c1.412.039 2.453.385 3.116 1.05a3.655 3.655 0 0 1 1.017 2.613 3.462 3.462 0 0 1-1.017 2.557c-.666.736-1.704 1.105-3.116 1.105h-5.589v-7.31zM451.1 52.958h10.741a6.815 6.815 0 0 0 5.024-2.012c1.353-1.288 2.042-3.034 2.068-5.24a7.182 7.182 0 0 0-1-3.696 5.138 5.138 0 0 0-3.143-2.186v-.07a8.21 8.21 0 0 0 1.855-1.174 4.89 4.89 0 0 0 1.156-1.296 5.879 5.879 0 0 0 .75-3.01c-.01-2.069-.647-3.72-1.906-4.954-1.26-1.234-3.144-1.864-5.652-1.89H451.1z"/><path id="kmacb" d="M472.96 27.43h3.884v25.521h-3.884z"/><path id="kmacc" d="M489.774 49.287c3.314-.044 4.994-1.228 5.04-3.552.026-1.905-1.082-3.049-3.325-3.43-1.027-.14-2.152-.301-3.378-.476-2.194-.358-3.862-1.173-5.006-2.445a6.766 6.766 0 0 1-1.77-4.726c0-2.229.741-4.027 2.225-5.394 1.436-1.353 3.473-2.04 6.109-2.064 2.967.003 5.86.927 8.279 2.644l-2.152 3.186a11.716 11.716 0 0 0-6.32-1.963 4.828 4.828 0 0 0-2.975.894c-.83.627-1.252 1.55-1.268 2.77.006.754.315 1.473.859 1.995.57.608 1.486 1.028 2.746 1.26.698.116 1.659.252 2.871.403 2.392.328 4.16 1.186 5.303 2.574a7.22 7.22 0 0 1 1.7 4.761c-.13 4.877-3.117 7.35-8.963 7.423-3.782 0-7.031-1.164-9.749-3.493l2.536-2.906a11.216 11.216 0 0 0 7.238 2.54z"/><path id="kmacd" d="M537.16 27.43h3.643l7.312 16.63 7.178-16.63h3.65v25.521h-3.842V37.04h-.088l-5.34 12.254h-3.235L541.1 37.04h-.07V52.95h-3.87z"/><path id="kmace" d="M576.29 43.82l-3.69-11.154h-.07l-3.692 11.154zm1.107 3.427h-9.68l-1.963 5.704h-4.094l9.278-25.521h3.238l9.278 25.521h-4.08z"/><path id="kmacf" d="M590.05 39.335h5.716c1.433-.024 2.51-.467 3.234-1.331a4.321 4.321 0 0 0 1.029-2.795 4.96 4.96 0 0 0-.419-2.151c-.28-.523-.7-.956-1.214-1.251a4.85 4.85 0 0 0-2.762-.72h-5.581zm-3.87-11.905h9.24c.975-.002 1.948.091 2.906.28a7.884 7.884 0 0 1 2.836 1.505 6.113 6.113 0 0 1 1.96 2.445c.55 1.133.821 2.381.79 3.64a7.758 7.758 0 0 1-1.995 5.163c-1.365 1.63-3.36 2.47-5.988 2.522h-5.879v9.959h-3.87z"/><path id="kmacg" d="M517.499 23.03c-7.346.01-13.3 5.963-13.309 13.309a12.984 12.984 0 0 0 1.167 5.432c3.325 7.283 9.707 14.971 11.583 17.151a.737.737 0 0 0 1.121 0c1.876-2.18 8.258-9.868 11.587-17.151a12.98 12.98 0 0 0 1.163-5.432c-.01-7.348-5.964-13.301-13.312-13.309z"/><path id="kmaci" d="M518.19 30.46l-.517.52a.241.241 0 0 1-.349 0l-.52-.52-2.56 16.743a.28.28 0 0 0 .07.23l2.975 3.245a.272.272 0 0 0 .409 0l2.976-3.245a.269.269 0 0 0 .07-.23z"/><path id="kmacj" d="M517.679 29.727l.517-.52 1.125-1.125a.241.241 0 0 0-.171-.412h-3.287a.241.241 0 0 0-.172.412l1.125 1.125.52.52a.241.241 0 0 0 .343 0z"/><linearGradient id="kmach" x1="504.19" x2="530.82" y1="41.11" y2="41.11" gradientUnits="userSpaceOnUse"><stop offset="0" stop-color="#0aacff"/><stop offset=".21" stop-color="#1b96ff"/><stop offset=".46" stop-color="#2983ff"/><stop offset=".72" stop-color="#3278ff"/><stop offset="1" stop-color="#3574ff"/></linearGradient></defs><g><g transform="translate(-451 -23)"><g><g><use xlink:href="#kmaca"/></g><g><use xlink:href="#kmacb"/></g><g><use xlink:href="#kmacc"/></g><g><use xlink:href="#kmacd"/></g><g><use xlink:href="#kmace"/></g><g><use xlink:href="#kmacf"/></g></g><g><g><use fill="url(#kmach)" xlink:href="#kmacg"/></g><g><use fill="#fff" xlink:href="#kmaci"/></g><g><use fill="#fff" xlink:href="#kmacj"/></g></g></g></g></svg>