<svg xmlns="http://www.w3.org/2000/svg" xmlns:xlink="http://www.w3.org/1999/xlink" width="24" height="22" viewBox="0 0 24 22"><defs><path id="a1jea" d="M463.266 259.835c-.434 0-1.048-.117-1.452-.175-1.662 2.033-4.596 1.506-4.596 1.506 1.842-.848 2.17-2.355 1.842-2.545-1.453-.834-2.126-1.77-2.126-3.189 0-2.501 2.784-4.432 6.332-4.432 3.563 0 5.734 1.93 5.734 4.432 0 2.516-2.17 4.403-5.734 4.403zm-7.38 8.06c2.17.322 4.221 2.077 4.656 2.428.598.512.898 2.677.898 2.677h-16.438s-.075-2.209.644-3.101c.404-.38 1.677-1.682 3.847-2.004 2.156-.307 1.497-2.648 1.572-2.618.075.043-.015-.498-.015-.498s-1.572-1.477-1.557-2.808c.03-1.346 0-2.034 0-2.034s.255-3.16 2.47-3.16l1.213.586c1.991 0 2.306 2.574 2.306 2.574v2.224s-.24 1.887-1.497 2.574c0 0-.045.542.03.498.074-.03-.285 2.355 1.87 2.662z"/></defs><g><g transform="translate(-445 -251)"><use fill="#e9e9e9" xlink:href="#a1jea"/></g></g></svg>