<svg xmlns="http://www.w3.org/2000/svg" xmlns:xlink="http://www.w3.org/1999/xlink" width="19" height="18"
     viewBox="0 0 19 18">
    <defs>
        <path id="zjfea"
              d="M455.214 203.474c-.357.05.473-.052-.6.153-1.072.218-1.289 1.6-1.34 2.113-.05.512-.063.665-.038 1.434.102.46-.408.46-.408.46-.651-.038-.753 1.972-.753 1.972.089.5-.039.743.919 1.127.446 1.293 1.608 1.946 1.608 1.946s.05.832.076 1.42c-.102-.038-.178 1.524-3.127 1.96-2.961.435-3.523 1.395-4.084 1.932-.562.538-.46 3.009-.46 3.009H466s-.128-2.47-.676-3.009c-.562-.537-1.175-1.497-4.123-1.933-2.961-.435-2.757-1.958-2.783-2.048.013-.23.115-1.23.115-1.23s.957-.793 1.404-2.086c.715-.448.983-.512 1.11-1.037 0 0 .32-1.971-.446-1.971 0 0-.88.05-.779-.41.102-.46.064-.615.013-1.127-.051-.512.255-1.984-.817-2.189-.727-.128-.498.077-.855.026-.357-.051-.779-.986-1.442-.986l-1.06.218c-.664 0-.09.204-.447.256z"/>
        <linearGradient id="zjfeb" x1="453.81" x2="455.9" y1="201.17" y2="226.43" gradientUnits="userSpaceOnUse">
            <stop offset="0" stop-color="#00baff"/>
            <stop offset="1" stop-color="#4c56ff"/>
        </linearGradient>
    </defs>
    <g>
        <g transform="translate(-447 -203)">
            <use fill="url(#zjfeb)" xlink:href="#zjfea"/>
        </g>
    </g>
</svg>