<svg xmlns="http://www.w3.org/2000/svg" xmlns:xlink="http://www.w3.org/1999/xlink" width="24" height="18" viewBox="0 0 24 18"><defs><path id="4s3da" d="M464.579 321.97s-.075-3.549-.226-3.714c-.135-.18-.15-.898-1.759-1.887.165-.494.015-.629.045-.614.045.03-.015-.329-.015-.329s-1.113-.988-1.098-1.872c.015-.883 0-1.557 0-1.557s.226-2.007 1.67-2.007l1.263.15c1.308 0 1.428 1.857 1.428 1.857v1.692s-.39 1.213-1.203 1.662c0 0-.06.36-.015.33.045-.015.045 1.602 1.459 1.812 1.413.21 1.82 1.078 2.09 1.332.27.255.782 3.175.782 3.175l-4.421-.03zm-6.872-5.675c2.3.329 4.015 1.752 4.45 2.17.437.405.723 3.445.723 3.445H445s-.03-2.47.722-3.444c.436-.42 2.571-1.842 4.887-2.171 2.3-.345 1.67-2.89 1.744-2.846.076.03-.015-.554-.015-.554s-1.428-1.602-1.398-3.055c.015-1.452 0-2.396 0-2.396s-.045-3.444 2.3-3.444l1.46.644c2.12 0 2.27 2.8 2.27 2.8v2.606s-.09 1.992-1.414 2.725c0 0-.105.584-.03.554.076-.044-.135 2.621 2.18 2.966z"/></defs><g><g transform="translate(-445 -304)"><use fill="#e9e9e9" xlink:href="#4s3da"/></g></g></svg>