<svg xmlns="http://www.w3.org/2000/svg" xmlns:xlink="http://www.w3.org/1999/xlink" width="12" height="12" viewBox="0 0 12 12"><defs><path id="ehf1a" d="M1326 210.75v-1.5l1.25-1.25h1.5l1.25 1.25v1.5l-1.25 1.25h-1.5l-1.25-1.25zm-1.94.25c.07.46.18.87.34 1.22l-1.59 1.59 1.38 1.38 1.59-1.59c.35.16.76.27 1.22.33V216h2v-2.07c.46-.06.87-.17 1.22-.33l1.59 1.59 1.38-1.38-1.6-1.59c.17-.35.28-.76.34-1.22H1334v-2H1331.93c-.06-.46-.17-.87-.34-1.22l1.6-1.59-1.38-1.38-1.59 1.59c-.35-.16-.76-.27-1.22-.34V204h-2v2.06c-.46.07-.87.18-1.22.34l-1.59-1.59-1.38 1.38 1.59 1.59c-.16.35-.27.76-.34 1.22H1322v2h2.06z"/></defs><g><g opacity=".9" transform="translate(-1322 -204)"><use fill="#fff" xlink:href="#ehf1a"/></g></g></svg>