<svg xmlns="http://www.w3.org/2000/svg" xmlns:xlink="http://www.w3.org/1999/xlink" width="22" height="22" viewBox="0 0 22 22"><defs><path id="8mn7a" d="M1241 1632.11c0-6.03 4.89-10.92 10.92-10.92s10.92 4.889 10.92 10.92c0 6.03-4.889 10.92-10.92 10.92-6.03 0-10.92-4.89-10.92-10.92z"/><path id="8mn7b" d="M1244.803 1632.61c-.039 1.879 1.255 3.672 3.036 4.257 1.677.563 3.739.142 4.855-1.295.815-1.006 1-2.348.911-3.601-1.436-.013-2.872-.009-4.306-.006-.002.511 0 1.021.002 1.533.86.023 1.72.012 2.58.03-.217.744-.711 1.436-1.462 1.705-1.45.638-3.298-.196-3.754-1.716-.55-1.456.35-3.213 1.838-3.636.923-.325 1.873.04 2.662.52.4-.374.774-.774 1.142-1.178-.897-.75-2.05-1.21-3.234-1.11-2.324.028-4.358 2.174-4.27 4.496z"/><path id="8mn7c" d="M1256.397 1630.67c-.005.428-.01.858-.011 1.286-.43.004-.858.006-1.286.008v1.282c.428.002.858.004 1.286.009.004.427.004.855.008 1.285.426 0 .854-.002 1.282 0 .002-.43.004-.858.009-1.288l1.285-.006v-1.282c-.427-.002-.858-.004-1.285-.008l-.01-1.286h-1.278z"/><path id="8mn7d" d="M1244.803 1632.61c-.088-2.322 1.945-4.468 4.27-4.496 1.185-.101 2.337.359 3.234 1.11-.368.404-.742.803-1.142 1.177-.79-.48-1.74-.844-2.662-.52-1.488.424-2.389 2.18-1.838 3.636.456 1.52 2.305 2.354 3.754 1.716.75-.269 1.245-.961 1.462-1.705-.86-.017-1.72-.007-2.58-.03-.002-.512-.004-1.022-.002-1.533 1.434-.003 2.87-.007 4.306.006.088 1.254-.096 2.595-.911 3.601-1.116 1.437-3.178 1.858-4.855 1.295-1.78-.585-3.075-2.378-3.036-4.257z"/><path id="8mn7e" d="M1256.397 1630.67h1.279l.009 1.286c.427.004.857.006 1.285.008v1.282l-1.285.006c-.005.43-.007.858-.01 1.288-.427-.002-.855 0-1.28 0-.005-.43-.005-.858-.01-1.286-.427-.004-.857-.006-1.285-.008v-1.282c.428-.002.856-.004 1.286-.008.002-.428.006-.858.01-1.286z"/></defs><g><g transform="translate(-1241 -1621)"><g><use fill="#dc4e41" xlink:href="#8mn7a"/></g><g><g><use fill="#dc4e41" xlink:href="#8mn7b"/></g><g><use fill="#dc4e41" xlink:href="#8mn7c"/></g><g><g><use fill="#fff" xlink:href="#8mn7d"/></g><g><use fill="#fff" xlink:href="#8mn7e"/></g></g></g></g></g></svg>