<svg xmlns="http://www.w3.org/2000/svg" xmlns:xlink="http://www.w3.org/1999/xlink" width="22" height="22" viewBox="0 0 22 22"><defs><path id="bu7qa" d="M1343 1631.92c0-6.03 4.89-10.92 10.92-10.92s10.92 4.89 10.92 10.92-4.889 10.92-10.92 10.92c-6.03 0-10.92-4.889-10.92-10.92z"/><path id="bu7qb" d="M1360.615 1628.844a5.209 5.209 0 0 1-1.5.41c.54-.322.953-.833 1.148-1.443-.504.299-1.063.516-1.658.633a2.611 2.611 0 0 0-4.449 2.381 7.41 7.41 0 0 1-5.38-2.727 2.61 2.61 0 0 0 .808 3.486 2.592 2.592 0 0 1-1.183-.328v.033c0 1.265.9 2.32 2.094 2.56a2.602 2.602 0 0 1-1.179.045 2.613 2.613 0 0 0 2.439 1.813 5.238 5.238 0 0 1-3.865 1.081 7.384 7.384 0 0 0 4.001 1.173c4.802 0 7.428-3.978 7.428-7.428a7.47 7.47 0 0 0-.007-.338c.51-.368.953-.827 1.303-1.35z"/></defs><g><g transform="translate(-1343 -1621)"><g><use fill="#55acee" xlink:href="#bu7qa"/></g><g><use fill="#f1f2f2" xlink:href="#bu7qb"/></g></g></g></svg>