<svg xmlns="http://www.w3.org/2000/svg" xmlns:xlink="http://www.w3.org/1999/xlink" width="22" height="22"
     viewBox="0 0 22 22">
    <defs>
        <path id="g4i2a"
              d="M1208 1631.92c0-6.03 4.89-10.92 10.92-10.92s10.92 4.89 10.92 10.92-4.889 10.92-10.92 10.92c-6.03 0-10.92-4.889-10.92-10.92z"/>
        <path id="g4i2b"
              d="M1218.507 1636.707h.857s.259-.028.39-.17c.123-.132.119-.377.119-.377s-.017-1.15.517-1.32c.526-.167 1.202 1.112 1.918 1.603.542.372.953.29.953.29l1.915-.026s1.002-.062.527-.85c-.039-.064-.276-.582-1.424-1.647-1.2-1.115-1.04-.934.407-2.862.88-1.174 1.233-1.891 1.123-2.198-.105-.293-.753-.216-.753-.216l-2.156.014s-.16-.022-.279.049a.604.604 0 0 0-.19.231s-.341.91-.797 1.682c-.96 1.63-1.344 1.716-1.5 1.615-.366-.236-.275-.948-.275-1.454 0-1.58.24-2.239-.466-2.41-.235-.056-.407-.093-1.007-.1-.769-.007-1.42.003-1.789.184-.245.12-.435.388-.32.403.143.02.466.087.637.32.221.3.213.976.213.976s.127 1.86-.296 2.091c-.29.159-.69-.165-1.546-1.644-.438-.758-.77-1.596-.77-1.596s-.063-.156-.177-.24a.894.894 0 0 0-.332-.134l-2.049.014s-.307.008-.42.142c-.1.12-.008.365-.008.365s1.604 3.753 3.42 5.645c1.666 1.734 3.558 1.62 3.558 1.62z"/>
    </defs>
    <g>
        <g transform="translate(-1208 -1621)">
            <g>
                <use fill="#4d76a1" xlink:href="#g4i2a"/>
            </g>
            <g>
                <use fill="#fff" xlink:href="#g4i2b"/>
            </g>
        </g>
    </g>
</svg>