<svg xmlns="http://www.w3.org/2000/svg" xmlns:xlink="http://www.w3.org/1999/xlink" width="22" height="22" viewBox="0 0 22 22"><defs><path id="un9oa" d="M1174 1631.92c0-6.03 4.89-10.92 10.92-10.92s10.92 4.89 10.92 10.92-4.889 10.92-10.92 10.92c-6.03 0-10.92-4.889-10.92-10.92z"/><path id="un9ob" d="M1187.124 1632.647c.409-.063.807-.088 1.18-.088 1.227 0 2.186.268 2.409.336a5.87 5.87 0 0 1-2.465 3.867 25.632 25.632 0 0 0-1.124-4.115zm-5.778 3.928c.168-.329 1.382-2.52 4.59-3.638a.05.05 0 0 1 .007-.002 24.452 24.452 0 0 1 1.238 4.404 5.816 5.816 0 0 1-2.262.456 5.827 5.827 0 0 1-3.573-1.22zm-2.286-4.784h.154c.727 0 3.25-.06 5.85-.833.158.31.309.623.449.937-.066.019-.13.037-.195.058-2.928.948-4.538 3.455-4.785 3.865a5.836 5.836 0 0 1-1.473-4.027zm5.491-1.804a22.208 22.208 0 0 1-5.303.706h-.057a5.883 5.883 0 0 1 3.214-4.049c.202.279 1.206 1.68 2.146 3.343zm4.24-2.46c-.164.222-1.051 1.328-3.03 2.074a31.616 31.616 0 0 0-2.159-3.375 5.873 5.873 0 0 1 5.189 1.301zm2 4.32a14.454 14.454 0 0 0-2.714-.263c-.43 0-.884.021-1.338.078a19.605 19.605 0 0 0-.493-1.106c2.053-.848 3.043-2.026 3.249-2.292a5.85 5.85 0 0 1 1.296 3.583zm-12.811.08c0 3.824 3.115 6.935 6.945 6.935s6.945-3.111 6.945-6.936c0-3.824-3.116-6.936-6.945-6.936-3.83 0-6.945 3.112-6.945 6.936z"/></defs><g><g transform="translate(-1174 -1621)"><g><use fill="#f26798" xlink:href="#un9oa"/></g><g><use fill="#f1f2f2" xlink:href="#un9ob"/></g></g></g></svg>