<svg xmlns="http://www.w3.org/2000/svg" xmlns:xlink="http://www.w3.org/1999/xlink" width="22" height="22" viewBox="0 0 22 22"><defs><path id="o231a" d="M1309 1631.92c0-6.03 4.89-10.92 10.92-10.92s10.92 4.89 10.92 10.92-4.889 10.92-10.92 10.92c-6.03 0-10.92-4.889-10.92-10.92z"/><path id="o231b" d="M1325.452 1628.414v1.023h-3.385v-1.023zm-6.857 5.218c.004-1.146-.863-1.138-.863-1.138h-2.386v2.212h2.267c.34-.008.982-.109.982-1.074zm-3.25-2.403h2.247c.388 0 .728-.125.728-.981 0-.857-.58-.857-.58-.857h-2.394zm5.009 2.498c0 2.51-2.615 2.43-2.615 2.43h-4.279v-8.227h4.28c1.301 0 2.326.72 2.326 2.19 0 1.473-1.253 1.565-1.253 1.565 1.653 0 1.541 2.042 1.54 2.042zm4.768-1.243s.02-1.255-1.253-1.255c-1.27 0-1.445 1.255-1.445 1.255zm1.567 1.11h-4.252c0 1.526 1.443 1.43 1.443 1.43 1.366 0 1.319-.885 1.319-.885h1.442c0 2.35-2.81 2.19-2.81 2.19-3.369 0-3.153-3.146-3.153-3.146 0-.017.004-3.16 3.154-3.16 3.325 0 2.857 3.572 2.857 3.572z"/></defs><g><g transform="translate(-1309 -1621)"><g><use fill="#4176fa" xlink:href="#o231a"/></g><g><use fill="#f1f2f2" xlink:href="#o231b"/></g></g></g></svg>