<svg xmlns="http://www.w3.org/2000/svg" xmlns:xlink="http://www.w3.org/1999/xlink" width="22" height="22" viewBox="0 0 22 22"><defs><path id="e6t6a" d="M1289.478 1629.314a.81.81 0 0 1 0-1.617.81.81 0 0 1 0 1.617zm-3.505 6.09a3.405 3.405 0 0 1-3.401-3.401c0-1.875 1.526-3.401 3.4-3.401 1.876 0 3.402 1.526 3.402 3.4 0 1.876-1.526 3.402-3.401 3.402zm3.27-8.564h-6.54c-1.044 0-1.893.85-1.893 1.893v6.54c0 1.043.85 1.893 1.893 1.893h6.54c1.043 0 1.893-.85 1.893-1.894v-6.539c0-1.044-.85-1.893-1.894-1.893z"/><path id="e6t6c" d="M1285.973 1630.04c-1.082 0-1.963.88-1.963 1.962 0 1.083.881 1.964 1.963 1.964s1.963-.881 1.963-1.964c0-1.081-.881-1.962-1.963-1.962z"/><path id="e6t6e" d="M1292.57 1635.27a3.333 3.333 0 0 1-3.33 3.329h-6.54a3.333 3.333 0 0 1-3.329-3.33v-6.539a3.333 3.333 0 0 1 3.33-3.329h6.54a3.333 3.333 0 0 1 3.328 3.33zm-6.6-14.27c-6.058 0-10.97 4.912-10.97 10.97 0 6.059 4.912 10.97 10.97 10.97 6.059 0 10.97-4.911 10.97-10.97 0-6.058-4.911-10.97-10.97-10.97z"/><linearGradient id="e6t6b" x1="1280.81" x2="1292.46" y1="1623.03" y2="1640.42" gradientUnits="userSpaceOnUse"><stop offset="0" stop-color="#f400ff"/><stop offset="1" stop-color="#ffa600"/></linearGradient><linearGradient id="e6t6d" x1="1284.01" x2="1288.43" y1="1628.59" y2="1635.2" gradientUnits="userSpaceOnUse"><stop offset="0" stop-color="#f400ff"/><stop offset="1" stop-color="#ffa600"/></linearGradient><linearGradient id="e6t6f" x1="1275" x2="1299.76" y1="1612.9" y2="1649.87" gradientUnits="userSpaceOnUse"><stop offset="0" stop-color="#f400ff"/><stop offset="1" stop-color="#ffa600"/></linearGradient></defs><g><g transform="translate(-1275 -1621)"><g><use fill="url(#e6t6b)" xlink:href="#e6t6a"/></g><g><use fill="url(#e6t6d)" xlink:href="#e6t6c"/></g><g><use fill="url(#e6t6f)" xlink:href="#e6t6e"/></g></g></g></svg>