<svg id="755f5f1a-9504-44e2-8263-fa7db96b3366" data-name="Layer 1" xmlns="http://www.w3.org/2000/svg" width="461" height="326.22" viewBox="0 0 461 326.22">
  <defs>
    <style>
      .\37 3ce6691-dba2-4472-a643-9803d6e02772 {
        fill: #f61c0d;
      }

      .\35 6becfee-045b-4add-a903-dcbdc0c3460c {
        fill: #fff;
      }
    </style>
  </defs>
  <title>youtube-button</title>
  <path class="73ce6691-dba2-4472-a643-9803d6e02772" d="M365.26,0H95.74A95.75,95.75,0,0,0,0,95.74V230.47a95.75,95.75,0,0,0,95.74,95.75H365.26A95.74,95.74,0,0,0,461,230.47V95.74A95.74,95.74,0,0,0,365.26,0Z"/>
  <path class="56becfee-045b-4add-a903-dcbdc0c3460c" d="M175.58,229.68l126.06-60.12a5.07,5.07,0,0,0,.11-9.09L175.69,96.59a5.06,5.06,0,0,0-7.35,4.52v124A5.06,5.06,0,0,0,175.58,229.68Z"/>
</svg>
