<svg width="22" height="15" viewBox="0 0 22 15" fill="none" xmlns="http://www.w3.org/2000/svg">
<path d="M16.5358 4.34547C16.5058 4.34547 1.5512 4.34547 1.5512 4.34547L4.70192 0.902463C4.90624 0.679176 4.88622 0.336706 4.65719 0.137508C4.42826 -0.0616483 4.0769 -0.0422102 3.87259 0.181118L0.324145 4.05868C-0.108077 4.53114 -0.108034 5.24348 0.324188 5.71581L3.87263 9.59341C3.98246 9.71343 4.13461 9.77451 4.28745 9.77451C4.4191 9.77451 4.55123 9.72914 4.65724 9.63702C4.88626 9.43782 4.90624 9.09535 4.70197 8.87207L1.55124 5.42902C1.55124 5.42902 16.5058 5.42902 16.5358 5.42902C18.936 5.42902 20.8886 7.33277 20.8886 9.67272C20.8886 12.0127 18.9359 13.9164 16.5358 13.9164H13.8898C13.5829 13.9164 13.3341 14.159 13.3341 14.4582C13.3341 14.7574 13.5829 15 13.8898 15H16.5358C19.5488 15 22 12.6102 22 9.67272C22 6.73526 19.5488 4.34547 16.5358 4.34547Z" fill="#191818"/>
</svg>
