<svg width="948" height="1080" viewBox="0 0 948 1080" fill="none" xmlns="http://www.w3.org/2000/svg">
<rect width="948" height="1080" fill="url(#paint0_linear)"/>
<mask id="mask0" mask-type="alpha" maskUnits="userSpaceOnUse" x="0" y="0" width="948" height="1080">
<rect width="948" height="1080" fill="url(#paint1_linear)"/>
</mask>
<g mask="url(#mask0)">
<g opacity="0.5" filter="url(#filter0_b)">
<path d="M15.5 277.88H24.6C34.68 277.88 39.72 273.493 39.72 264.72C39.72 255.947 34.68 251.56 24.6 251.56H15.5V277.88ZM15.5 335H-11.94V229.44H31.74C43.5933 229.44 52.6467 232.52 58.9 238.68C65.2467 244.84 68.42 253.52 68.42 264.72C68.42 275.92 65.2467 284.6 58.9 290.76C52.6467 296.92 43.5933 300 31.74 300H15.5V335ZM115.983 270.18H155.603V229.44H183.043V335H155.603V291.46H115.983V335H88.5428V229.44H115.983V270.18ZM234.704 282.22C234.704 286.42 235.497 290.293 237.084 293.84C238.671 297.387 240.817 300.467 243.524 303.08C246.231 305.693 249.357 307.747 252.904 309.24C256.544 310.64 260.371 311.34 264.384 311.34C268.397 311.34 272.177 310.64 275.724 309.24C279.364 307.747 282.537 305.693 285.244 303.08C288.044 300.467 290.237 297.387 291.824 293.84C293.411 290.293 294.204 286.42 294.204 282.22C294.204 278.02 293.411 274.147 291.824 270.6C290.237 267.053 288.044 263.973 285.244 261.36C282.537 258.747 279.364 256.74 275.724 255.34C272.177 253.847 268.397 253.1 264.384 253.1C260.371 253.1 256.544 253.847 252.904 255.34C249.357 256.74 246.231 258.747 243.524 261.36C240.817 263.973 238.671 267.053 237.084 270.6C235.497 274.147 234.704 278.02 234.704 282.22ZM206.004 282.22C206.004 274.38 207.451 267.1 210.344 260.38C213.237 253.567 217.251 247.64 222.384 242.6C227.517 237.56 233.631 233.64 240.724 230.84C247.911 227.947 255.797 226.5 264.384 226.5C272.877 226.5 280.717 227.947 287.904 230.84C295.091 233.64 301.251 237.56 306.384 242.6C311.611 247.64 315.671 253.567 318.564 260.38C321.457 267.1 322.904 274.38 322.904 282.22C322.904 290.06 321.457 297.387 318.564 304.2C315.671 310.92 311.611 316.8 306.384 321.84C301.251 326.88 295.091 330.847 287.904 333.74C280.717 336.54 272.877 337.94 264.384 337.94C255.797 337.94 247.911 336.54 240.724 333.74C233.631 330.847 227.517 326.88 222.384 321.84C217.251 316.8 213.237 310.92 210.344 304.2C207.451 297.387 206.004 290.06 206.004 282.22ZM345.837 335V229.44H373.277L423.957 293.98V229.44H451.257V335H423.957L373.277 270.46V335H345.837ZM539.055 252.68H506.435V270.32H537.235V293.56H506.435V311.76H539.055V335H478.995V229.44H539.055V252.68ZM48.54 452.68H15.5V470.32H45.6V493.56H15.5V535H-11.94V429.44H48.54V452.68ZM97.9359 429.44V535H70.4959V429.44H97.9359ZM125.588 535V429.44H153.028L203.708 493.98V429.44H231.008V535H203.708L153.028 470.46V535H125.588ZM286.187 511.76H292.487C297.247 511.76 301.493 511.013 305.227 509.52C308.96 508.027 312.087 505.973 314.607 503.36C317.22 500.747 319.18 497.667 320.487 494.12C321.887 490.48 322.587 486.513 322.587 482.22C322.587 478.02 321.887 474.1 320.487 470.46C319.087 466.82 317.08 463.693 314.467 461.08C311.947 458.467 308.82 456.413 305.087 454.92C301.353 453.427 297.153 452.68 292.487 452.68H286.187V511.76ZM258.747 429.44H299.347C306.533 429.44 313.253 430.887 319.507 433.78C325.853 436.673 331.36 440.547 336.027 445.4C340.787 450.16 344.52 455.76 347.227 462.2C349.933 468.547 351.287 475.22 351.287 482.22C351.287 489.127 349.933 495.8 347.227 502.24C344.613 508.587 340.927 514.187 336.167 519.04C331.5 523.893 325.993 527.767 319.647 530.66C313.393 533.553 306.627 535 299.347 535H258.747V429.44ZM434.465 452.68H401.845V470.32H432.645V493.56H401.845V511.76H434.465V535H374.405V429.44H434.465V452.68ZM487.289 476.62H492.469C497.882 476.62 502.036 475.5 504.929 473.26C507.822 471.02 509.269 467.8 509.269 463.6C509.269 459.4 507.822 456.18 504.929 453.94C502.036 451.7 497.882 450.58 492.469 450.58H487.289V476.62ZM547.629 535H513.469L487.289 494.4V535H459.849V429.44H502.549C508.429 429.44 513.562 430.327 517.949 432.1C522.336 433.78 525.929 436.113 528.729 439.1C531.622 442.087 533.769 445.54 535.169 449.46C536.662 453.38 537.409 457.58 537.409 462.06C537.409 470.087 535.449 476.62 531.529 481.66C527.702 486.607 522.009 489.967 514.449 491.74L547.629 535Z" fill="url(#paint2_linear)" fill-opacity="0.1"/>
<path d="M15.5 277.88H15V278.38H15.5V277.88ZM15.5 251.56V251.06H15V251.56H15.5ZM15.5 335V335.5H16V335H15.5ZM-11.94 335H-12.44V335.5H-11.94V335ZM-11.94 229.44V228.94H-12.44V229.44H-11.94ZM58.9 238.68L58.5491 239.036L58.5518 239.039L58.9 238.68ZM58.9 290.76L58.5518 290.401L58.5491 290.404L58.9 290.76ZM15.5 300V299.5H15V300H15.5ZM15.5 278.38H24.6V277.38H15.5V278.38ZM24.6 278.38C29.7014 278.38 33.6207 277.271 36.2683 274.967C38.9291 272.651 40.22 269.203 40.22 264.72H39.22C39.22 269.01 37.9909 272.142 35.6117 274.213C33.2193 276.295 29.5786 277.38 24.6 277.38V278.38ZM40.22 264.72C40.22 260.237 38.9291 256.789 36.2683 254.473C33.6207 252.169 29.7014 251.06 24.6 251.06V252.06C29.5786 252.06 33.2193 253.145 35.6117 255.227C37.9909 257.298 39.22 260.43 39.22 264.72H40.22ZM24.6 251.06H15.5V252.06H24.6V251.06ZM15 251.56V277.88H16V251.56H15ZM15.5 334.5H-11.94V335.5H15.5V334.5ZM-11.44 335V229.44H-12.44V335H-11.44ZM-11.94 229.94H31.74V228.94H-11.94V229.94ZM31.74 229.94C43.5092 229.94 52.4183 232.997 58.5491 239.036L59.2509 238.324C52.875 232.043 43.6774 228.94 31.74 228.94V229.94ZM58.5518 239.039C64.7772 245.081 67.92 253.617 67.92 264.72H68.92C68.92 253.423 65.7162 244.599 59.2482 238.321L58.5518 239.039ZM67.92 264.72C67.92 275.823 64.7772 284.359 58.5518 290.401L59.2482 291.119C65.7162 284.841 68.92 276.017 68.92 264.72H67.92ZM58.5491 290.404C52.4183 296.443 43.5092 299.5 31.74 299.5V300.5C43.6774 300.5 52.875 297.397 59.2509 291.116L58.5491 290.404ZM31.74 299.5H15.5V300.5H31.74V299.5ZM15 300V335H16V300H15ZM115.983 270.18H115.483V270.68H115.983V270.18ZM155.603 270.18V270.68H156.103V270.18H155.603ZM155.603 229.44V228.94H155.103V229.44H155.603ZM183.043 229.44H183.543V228.94H183.043V229.44ZM183.043 335V335.5H183.543V335H183.043ZM155.603 335H155.103V335.5H155.603V335ZM155.603 291.46H156.103V290.96H155.603V291.46ZM115.983 291.46V290.96H115.483V291.46H115.983ZM115.983 335V335.5H116.483V335H115.983ZM88.5428 335H88.0428V335.5H88.5428V335ZM88.5428 229.44V228.94H88.0428V229.44H88.5428ZM115.983 229.44H116.483V228.94H115.983V229.44ZM115.983 270.68H155.603V269.68H115.983V270.68ZM156.103 270.18V229.44H155.103V270.18H156.103ZM155.603 229.94H183.043V228.94H155.603V229.94ZM182.543 229.44V335H183.543V229.44H182.543ZM183.043 334.5H155.603V335.5H183.043V334.5ZM156.103 335V291.46H155.103V335H156.103ZM155.603 290.96H115.983V291.96H155.603V290.96ZM115.483 291.46V335H116.483V291.46H115.483ZM115.983 334.5H88.5428V335.5H115.983V334.5ZM89.0428 335V229.44H88.0428V335H89.0428ZM88.5428 229.94H115.983V228.94H88.5428V229.94ZM115.483 229.44V270.18H116.483V229.44H115.483ZM237.084 293.84L237.54 293.636L237.084 293.84ZM243.524 303.08L243.871 302.72L243.524 303.08ZM252.904 309.24L252.71 309.701L252.717 309.704L252.724 309.707L252.904 309.24ZM275.724 309.24L275.908 309.705L275.914 309.703L275.724 309.24ZM285.244 303.08L284.903 302.714L284.897 302.72L285.244 303.08ZM291.824 293.84L292.28 294.044L291.824 293.84ZM291.824 270.6L292.28 270.396L291.824 270.6ZM285.244 261.36L284.897 261.72L284.903 261.726L285.244 261.36ZM275.724 255.34L275.53 255.801L275.537 255.804L275.544 255.807L275.724 255.34ZM252.904 255.34L253.087 255.805L253.094 255.803L252.904 255.34ZM243.524 261.36L243.871 261.72L243.524 261.36ZM237.084 270.6L237.54 270.804L237.084 270.6ZM210.344 260.38L210.803 260.578L210.804 260.575L210.344 260.38ZM222.384 242.6L222.034 242.243L222.384 242.6ZM240.724 230.84L240.908 231.305L240.911 231.304L240.724 230.84ZM287.904 230.84L287.717 231.304L287.722 231.306L287.904 230.84ZM306.384 242.6L306.034 242.957L306.037 242.96L306.384 242.6ZM318.564 260.38L318.104 260.575L318.105 260.578L318.564 260.38ZM318.564 304.2L319.023 304.398L319.024 304.395L318.564 304.2ZM306.384 321.84L306.037 321.48L306.034 321.483L306.384 321.84ZM287.904 333.74L288.085 334.206L288.091 334.204L287.904 333.74ZM240.724 333.74L240.535 334.203L240.542 334.206L240.724 333.74ZM222.384 321.84L222.034 322.197L222.384 321.84ZM210.344 304.2L209.884 304.395L209.885 304.398L210.344 304.2ZM234.204 282.22C234.204 286.485 235.01 290.428 236.628 294.044L237.54 293.636C235.985 290.158 235.204 286.355 235.204 282.22H234.204ZM236.628 294.044C238.239 297.647 240.422 300.781 243.177 303.44L243.871 302.72C241.212 300.153 239.102 297.126 237.54 293.636L236.628 294.044ZM243.177 303.44C245.929 306.097 249.108 308.184 252.71 309.701L253.098 308.779C249.607 307.309 246.532 305.29 243.871 302.72L243.177 303.44ZM252.724 309.707C256.423 311.129 260.311 311.84 264.384 311.84V310.84C260.43 310.84 256.664 310.151 253.083 308.773L252.724 309.707ZM264.384 311.84C268.457 311.84 272.299 311.129 275.908 309.705L275.54 308.775C272.055 310.151 268.338 310.84 264.384 310.84V311.84ZM275.914 309.703C279.609 308.186 282.837 306.099 285.591 303.44L284.897 302.72C282.238 305.288 279.118 307.307 275.534 308.777L275.914 309.703ZM285.585 303.446C288.435 300.786 290.667 297.651 292.28 294.044L291.367 293.636C289.808 297.122 287.653 300.147 284.903 302.714L285.585 303.446ZM292.28 294.044C293.898 290.428 294.704 286.485 294.704 282.22H293.704C293.704 286.355 292.923 290.158 291.367 293.636L292.28 294.044ZM294.704 282.22C294.704 277.955 293.898 274.012 292.28 270.396L291.367 270.804C292.923 274.282 293.704 278.085 293.704 282.22H294.704ZM292.28 270.396C290.667 266.789 288.435 263.654 285.585 260.994L284.903 261.726C287.653 264.293 289.808 267.318 291.367 270.804L292.28 270.396ZM285.591 261C282.835 258.339 279.604 256.296 275.903 254.873L275.544 255.807C279.124 257.184 282.24 259.155 284.897 261.72L285.591 261ZM275.918 254.879C272.307 253.359 268.461 252.6 264.384 252.6V253.6C268.333 253.6 272.047 254.334 275.53 255.801L275.918 254.879ZM264.384 252.6C260.307 252.6 256.416 253.359 252.714 254.877L253.094 255.803C256.672 254.334 260.434 253.6 264.384 253.6V252.6ZM252.72 254.875C249.114 256.299 245.931 258.341 243.177 261L243.871 261.72C246.53 259.153 249.601 257.181 253.087 255.805L252.72 254.875ZM243.177 261C240.422 263.659 238.239 266.793 236.628 270.396L237.54 270.804C239.102 267.314 241.212 264.287 243.871 261.72L243.177 261ZM236.628 270.396C235.01 274.012 234.204 277.955 234.204 282.22H235.204C235.204 278.085 235.985 274.282 237.54 270.804L236.628 270.396ZM206.504 282.22C206.504 274.443 207.939 267.231 210.803 260.578L209.885 260.182C206.963 266.969 205.504 274.317 205.504 282.22H206.504ZM210.804 260.575C213.673 253.821 217.649 247.949 222.734 242.957L222.034 242.243C216.852 247.331 212.802 253.313 209.884 260.185L210.804 260.575ZM222.734 242.957C227.817 237.966 233.873 234.082 240.908 231.305L240.54 230.375C233.389 233.198 227.218 237.154 222.034 242.243L222.734 242.957ZM240.911 231.304C248.032 228.437 255.854 227 264.384 227V226C255.74 226 247.789 227.456 240.537 230.376L240.911 231.304ZM264.384 227C272.819 227 280.595 228.437 287.717 231.304L288.091 230.376C280.839 227.457 272.935 226 264.384 226V227ZM287.722 231.306C294.851 234.083 300.952 237.968 306.034 242.957L306.734 242.243C301.549 237.152 295.331 233.197 288.085 230.374L287.722 231.306ZM306.037 242.96C311.214 247.952 315.236 253.823 318.104 260.575L319.024 260.185C316.105 253.311 312.007 247.328 306.731 242.24L306.037 242.96ZM318.105 260.578C320.969 267.231 322.404 274.443 322.404 282.22H323.404C323.404 274.317 321.945 266.969 319.023 260.182L318.105 260.578ZM322.404 282.22C322.404 289.997 320.969 297.257 318.104 304.005L319.024 304.395C321.945 297.517 323.404 290.123 323.404 282.22H322.404ZM318.105 304.002C315.237 310.662 311.215 316.487 306.037 321.48L306.731 322.2C312.006 317.113 316.104 311.178 319.023 304.398L318.105 304.002ZM306.034 321.483C300.951 326.474 294.848 330.406 287.717 333.276L288.091 334.204C295.334 331.288 301.55 327.286 306.734 322.197L306.034 321.483ZM287.722 333.274C280.599 336.049 272.821 337.44 264.384 337.44V338.44C272.933 338.44 280.835 337.031 288.085 334.206L287.722 333.274ZM264.384 337.44C255.852 337.44 248.028 336.049 240.905 333.274L240.542 334.206C247.793 337.031 255.742 338.44 264.384 338.44V337.44ZM240.913 333.277C233.876 330.407 227.818 326.475 222.734 321.483L222.034 322.197C227.216 327.285 233.385 331.287 240.535 334.203L240.913 333.277ZM222.734 321.483C217.648 316.489 213.671 310.664 210.803 304.002L209.885 304.398C212.803 311.176 216.853 317.111 222.034 322.197L222.734 321.483ZM210.804 304.005C207.939 297.257 206.504 289.997 206.504 282.22H205.504C205.504 290.123 206.963 297.517 209.884 304.395L210.804 304.005ZM345.837 335H345.337V335.5H345.837V335ZM345.837 229.44V228.94H345.337V229.44H345.837ZM373.277 229.44L373.67 229.131L373.52 228.94H373.277V229.44ZM423.957 293.98L423.563 294.289L424.457 295.426V293.98H423.957ZM423.957 229.44V228.94H423.457V229.44H423.957ZM451.257 229.44H451.757V228.94H451.257V229.44ZM451.257 335V335.5H451.757V335H451.257ZM423.957 335L423.563 335.309L423.713 335.5H423.957V335ZM373.277 270.46L373.67 270.151L372.777 269.014V270.46H373.277ZM373.277 335V335.5H373.777V335H373.277ZM346.337 335V229.44H345.337V335H346.337ZM345.837 229.94H373.277V228.94H345.837V229.94ZM372.883 229.749L423.563 294.289L424.35 293.671L373.67 229.131L372.883 229.749ZM424.457 293.98V229.44H423.457V293.98H424.457ZM423.957 229.94H451.257V228.94H423.957V229.94ZM450.757 229.44V335H451.757V229.44H450.757ZM451.257 334.5H423.957V335.5H451.257V334.5ZM424.35 334.691L373.67 270.151L372.883 270.769L423.563 335.309L424.35 334.691ZM372.777 270.46V335H373.777V270.46H372.777ZM373.277 334.5H345.837V335.5H373.277V334.5ZM539.055 252.68V253.18H539.555V252.68H539.055ZM506.435 252.68V252.18H505.935V252.68H506.435ZM506.435 270.32H505.935V270.82H506.435V270.32ZM537.235 270.32H537.735V269.82H537.235V270.32ZM537.235 293.56V294.06H537.735V293.56H537.235ZM506.435 293.56V293.06H505.935V293.56H506.435ZM506.435 311.76H505.935V312.26H506.435V311.76ZM539.055 311.76H539.555V311.26H539.055V311.76ZM539.055 335V335.5H539.555V335H539.055ZM478.995 335H478.495V335.5H478.995V335ZM478.995 229.44V228.94H478.495V229.44H478.995ZM539.055 229.44H539.555V228.94H539.055V229.44ZM539.055 252.18H506.435V253.18H539.055V252.18ZM505.935 252.68V270.32H506.935V252.68H505.935ZM506.435 270.82H537.235V269.82H506.435V270.82ZM536.735 270.32V293.56H537.735V270.32H536.735ZM537.235 293.06H506.435V294.06H537.235V293.06ZM505.935 293.56V311.76H506.935V293.56H505.935ZM506.435 312.26H539.055V311.26H506.435V312.26ZM538.555 311.76V335H539.555V311.76H538.555ZM539.055 334.5H478.995V335.5H539.055V334.5ZM479.495 335V229.44H478.495V335H479.495ZM478.995 229.94H539.055V228.94H478.995V229.94ZM538.555 229.44V252.68H539.555V229.44H538.555ZM48.54 452.68V453.18H49.04V452.68H48.54ZM15.5 452.68V452.18H15V452.68H15.5ZM15.5 470.32H15V470.82H15.5V470.32ZM45.6 470.32H46.1V469.82H45.6V470.32ZM45.6 493.56V494.06H46.1V493.56H45.6ZM15.5 493.56V493.06H15V493.56H15.5ZM15.5 535V535.5H16V535H15.5ZM-11.94 535H-12.44V535.5H-11.94V535ZM-11.94 429.44V428.94H-12.44V429.44H-11.94ZM48.54 429.44H49.04V428.94H48.54V429.44ZM48.54 452.18H15.5V453.18H48.54V452.18ZM15 452.68V470.32H16V452.68H15ZM15.5 470.82H45.6V469.82H15.5V470.82ZM45.1 470.32V493.56H46.1V470.32H45.1ZM45.6 493.06H15.5V494.06H45.6V493.06ZM15 493.56V535H16V493.56H15ZM15.5 534.5H-11.94V535.5H15.5V534.5ZM-11.44 535V429.44H-12.44V535H-11.44ZM-11.94 429.94H48.54V428.94H-11.94V429.94ZM48.04 429.44V452.68H49.04V429.44H48.04ZM97.9359 429.44H98.4359V428.94H97.9359V429.44ZM97.9359 535V535.5H98.4359V535H97.9359ZM70.4959 535H69.9959V535.5H70.4959V535ZM70.4959 429.44V428.94H69.9959V429.44H70.4959ZM97.4359 429.44V535H98.4359V429.44H97.4359ZM97.9359 534.5H70.4959V535.5H97.9359V534.5ZM70.9959 535V429.44H69.9959V535H70.9959ZM70.4959 429.94H97.9359V428.94H70.4959V429.94ZM125.588 535H125.088V535.5H125.588V535ZM125.588 429.44V428.94H125.088V429.44H125.588ZM153.028 429.44L153.421 429.131L153.271 428.94H153.028V429.44ZM203.708 493.98L203.315 494.289L204.208 495.426V493.98H203.708ZM203.708 429.44V428.94H203.208V429.44H203.708ZM231.008 429.44H231.508V428.94H231.008V429.44ZM231.008 535V535.5H231.508V535H231.008ZM203.708 535L203.315 535.309L203.465 535.5H203.708V535ZM153.028 470.46L153.421 470.151L152.528 469.014V470.46H153.028ZM153.028 535V535.5H153.528V535H153.028ZM126.088 535V429.44H125.088V535H126.088ZM125.588 429.94H153.028V428.94H125.588V429.94ZM152.635 429.749L203.315 494.289L204.101 493.671L153.421 429.131L152.635 429.749ZM204.208 493.98V429.44H203.208V493.98H204.208ZM203.708 429.94H231.008V428.94H203.708V429.94ZM230.508 429.44V535H231.508V429.44H230.508ZM231.008 534.5H203.708V535.5H231.008V534.5ZM204.101 534.691L153.421 470.151L152.635 470.769L203.315 535.309L204.101 534.691ZM152.528 470.46V535H153.528V470.46H152.528ZM153.028 534.5H125.588V535.5H153.028V534.5ZM286.187 511.76H285.687V512.26H286.187V511.76ZM305.227 509.52L305.041 509.056L305.227 509.52ZM314.607 503.36L314.253 503.006L314.247 503.013L314.607 503.36ZM320.487 494.12L320.02 493.94L320.018 493.947L320.487 494.12ZM320.487 470.46L320.953 470.281L320.487 470.46ZM314.467 461.08L314.107 461.427L314.113 461.434L314.467 461.08ZM305.087 454.92L305.272 454.456L305.087 454.92ZM286.187 452.68V452.18H285.687V452.68H286.187ZM258.747 429.44V428.94H258.247V429.44H258.747ZM319.507 433.78L319.297 434.234L319.299 434.235L319.507 433.78ZM336.027 445.4L335.666 445.747L335.673 445.754L336.027 445.4ZM347.227 462.2L346.766 462.394L346.767 462.396L347.227 462.2ZM347.227 502.24L346.766 502.046L346.764 502.05L347.227 502.24ZM336.167 519.04L335.81 518.69L335.806 518.693L336.167 519.04ZM319.647 530.66L319.439 530.205L319.437 530.206L319.647 530.66ZM258.747 535H258.247V535.5H258.747V535ZM286.187 512.26H292.487V511.26H286.187V512.26ZM292.487 512.26C297.299 512.26 301.61 511.505 305.412 509.984L305.041 509.056C301.377 510.522 297.195 511.26 292.487 511.26V512.26ZM305.412 509.984C309.204 508.467 312.392 506.377 314.967 503.707L314.247 503.013C311.781 505.57 308.716 507.586 305.041 509.056L305.412 509.984ZM314.96 503.714C317.626 501.048 319.625 497.906 320.956 494.293L320.018 493.947C318.735 497.428 316.814 500.445 314.253 503.006L314.96 503.714ZM320.953 494.299C322.378 490.597 323.087 486.569 323.087 482.22H322.087C322.087 486.458 321.396 490.363 320.02 493.941L320.953 494.299ZM323.087 482.22C323.087 477.963 322.377 473.982 320.953 470.281L320.02 470.639C321.396 474.218 322.087 478.077 322.087 482.22H323.087ZM320.953 470.281C319.53 466.579 317.486 463.392 314.82 460.726L314.113 461.434C316.674 463.995 318.644 467.061 320.02 470.639L320.953 470.281ZM314.827 460.733C312.252 458.063 309.064 455.973 305.272 454.456L304.901 455.384C308.576 456.854 311.641 458.87 314.107 461.427L314.827 460.733ZM305.272 454.456C301.471 452.935 297.207 452.18 292.487 452.18V453.18C297.1 453.18 301.235 453.918 304.901 455.384L305.272 454.456ZM292.487 452.18H286.187V453.18H292.487V452.18ZM285.687 452.68V511.76H286.687V452.68H285.687ZM258.747 429.94H299.347V428.94H258.747V429.94ZM299.347 429.94C306.464 429.94 313.112 431.372 319.297 434.234L319.717 433.326C313.395 430.401 306.603 428.94 299.347 428.94V429.94ZM319.299 434.235C325.591 437.103 331.045 440.94 335.666 445.747L336.387 445.053C331.675 440.153 326.116 436.244 319.714 433.325L319.299 434.235ZM335.673 445.754C340.386 450.466 344.083 456.011 346.766 462.394L347.688 462.006C344.957 455.509 341.188 449.854 336.38 445.046L335.673 445.754ZM346.767 462.396C349.447 468.68 350.787 475.286 350.787 482.22H351.787C351.787 475.154 350.42 468.413 347.687 462.004L346.767 462.396ZM350.787 482.22C350.787 489.059 349.447 495.667 346.766 502.046L347.688 502.434C350.42 495.933 351.787 489.194 351.787 482.22H350.787ZM346.764 502.05C344.175 508.337 340.524 513.883 335.81 518.69L336.524 519.39C341.329 514.49 345.051 508.836 347.689 502.43L346.764 502.05ZM335.806 518.693C331.185 523.5 325.731 527.337 319.439 530.205L319.854 531.115C326.256 528.196 331.815 524.287 336.527 519.387L335.806 518.693ZM319.437 530.206C313.253 533.067 306.558 534.5 299.347 534.5V535.5C306.695 535.5 313.534 534.039 319.857 531.114L319.437 530.206ZM299.347 534.5H258.747V535.5H299.347V534.5ZM259.247 535V429.44H258.247V535H259.247ZM434.465 452.68V453.18H434.965V452.68H434.465ZM401.845 452.68V452.18H401.345V452.68H401.845ZM401.845 470.32H401.345V470.82H401.845V470.32ZM432.645 470.32H433.145V469.82H432.645V470.32ZM432.645 493.56V494.06H433.145V493.56H432.645ZM401.845 493.56V493.06H401.345V493.56H401.845ZM401.845 511.76H401.345V512.26H401.845V511.76ZM434.465 511.76H434.965V511.26H434.465V511.76ZM434.465 535V535.5H434.965V535H434.465ZM374.405 535H373.905V535.5H374.405V535ZM374.405 429.44V428.94H373.905V429.44H374.405ZM434.465 429.44H434.965V428.94H434.465V429.44ZM434.465 452.18H401.845V453.18H434.465V452.18ZM401.345 452.68V470.32H402.345V452.68H401.345ZM401.845 470.82H432.645V469.82H401.845V470.82ZM432.145 470.32V493.56H433.145V470.32H432.145ZM432.645 493.06H401.845V494.06H432.645V493.06ZM401.345 493.56V511.76H402.345V493.56H401.345ZM401.845 512.26H434.465V511.26H401.845V512.26ZM433.965 511.76V535H434.965V511.76H433.965ZM434.465 534.5H374.405V535.5H434.465V534.5ZM374.905 535V429.44H373.905V535H374.905ZM374.405 429.94H434.465V428.94H374.405V429.94ZM433.965 429.44V452.68H434.965V429.44H433.965ZM487.289 476.62H486.789V477.12H487.289V476.62ZM504.929 473.26L505.235 473.655L504.929 473.26ZM504.929 453.94L505.235 453.545L504.929 453.94ZM487.289 450.58V450.08H486.789V450.58H487.289ZM547.629 535V535.5H548.643L548.026 534.696L547.629 535ZM513.469 535L513.049 535.271L513.197 535.5H513.469V535ZM487.289 494.4L487.709 494.129L486.789 492.702V494.4H487.289ZM487.289 535V535.5H487.789V535H487.289ZM459.849 535H459.349V535.5H459.849V535ZM459.849 429.44V428.94H459.349V429.44H459.849ZM517.949 432.1L517.762 432.564L517.77 432.567L517.949 432.1ZM528.729 439.1L528.364 439.442L528.37 439.448L528.729 439.1ZM535.169 449.46L534.698 449.628L534.702 449.638L535.169 449.46ZM531.529 481.66L531.134 481.353L531.134 481.354L531.529 481.66ZM514.449 491.74L514.335 491.253L513.581 491.43L514.052 492.044L514.449 491.74ZM487.289 477.12H492.469V476.12H487.289V477.12ZM492.469 477.12C497.942 477.12 502.221 475.989 505.235 473.655L504.623 472.865C501.85 475.011 497.823 476.12 492.469 476.12V477.12ZM505.235 473.655C508.27 471.306 509.769 467.929 509.769 463.6H508.769C508.769 467.671 507.375 470.734 504.623 472.865L505.235 473.655ZM509.769 463.6C509.769 459.271 508.27 455.894 505.235 453.545L504.623 454.335C507.375 456.466 508.769 459.529 508.769 463.6H509.769ZM505.235 453.545C502.221 451.211 497.942 450.08 492.469 450.08V451.08C497.823 451.08 501.85 452.189 504.623 454.335L505.235 453.545ZM492.469 450.08H487.289V451.08H492.469V450.08ZM486.789 450.58V476.62H487.789V450.58H486.789ZM547.629 534.5H513.469V535.5H547.629V534.5ZM513.889 534.729L487.709 494.129L486.869 494.671L513.049 535.271L513.889 534.729ZM486.789 494.4V535H487.789V494.4H486.789ZM487.289 534.5H459.849V535.5H487.289V534.5ZM460.349 535V429.44H459.349V535H460.349ZM459.849 429.94H502.549V428.94H459.849V429.94ZM502.549 429.94C508.38 429.94 513.447 430.819 517.762 432.564L518.136 431.636C513.678 429.834 508.478 428.94 502.549 428.94V429.94ZM517.77 432.567C522.097 434.224 525.623 436.518 528.364 439.442L529.094 438.758C526.235 435.709 522.575 433.336 518.128 431.633L517.77 432.567ZM528.37 439.448C531.214 442.383 533.322 445.775 534.698 449.628L535.64 449.292C534.216 445.305 532.031 441.79 529.088 438.752L528.37 439.448ZM534.702 449.638C536.172 453.497 536.909 457.637 536.909 462.06H537.909C537.909 457.523 537.153 453.263 535.636 449.282L534.702 449.638ZM536.909 462.06C536.909 470.005 534.97 476.421 531.134 481.353L531.924 481.967C535.928 476.819 537.909 470.169 537.909 462.06H536.909ZM531.134 481.354C527.393 486.19 521.811 489.5 514.335 491.253L514.563 492.227C522.207 490.434 528.012 487.024 531.925 481.966L531.134 481.354ZM514.052 492.044L547.232 535.304L548.026 534.696L514.846 491.436L514.052 492.044Z" fill="url(#paint3_linear)" fill-opacity="0.3"/>
<path d="M15.5 277.88H15V278.38H15.5V277.88ZM15.5 251.56V251.06H15V251.56H15.5ZM15.5 335V335.5H16V335H15.5ZM-11.94 335H-12.44V335.5H-11.94V335ZM-11.94 229.44V228.94H-12.44V229.44H-11.94ZM58.9 238.68L58.5491 239.036L58.5518 239.039L58.9 238.68ZM58.9 290.76L58.5518 290.401L58.5491 290.404L58.9 290.76ZM15.5 300V299.5H15V300H15.5ZM15.5 278.38H24.6V277.38H15.5V278.38ZM24.6 278.38C29.7014 278.38 33.6207 277.271 36.2683 274.967C38.9291 272.651 40.22 269.203 40.22 264.72H39.22C39.22 269.01 37.9909 272.142 35.6117 274.213C33.2193 276.295 29.5786 277.38 24.6 277.38V278.38ZM40.22 264.72C40.22 260.237 38.9291 256.789 36.2683 254.473C33.6207 252.169 29.7014 251.06 24.6 251.06V252.06C29.5786 252.06 33.2193 253.145 35.6117 255.227C37.9909 257.298 39.22 260.43 39.22 264.72H40.22ZM24.6 251.06H15.5V252.06H24.6V251.06ZM15 251.56V277.88H16V251.56H15ZM15.5 334.5H-11.94V335.5H15.5V334.5ZM-11.44 335V229.44H-12.44V335H-11.44ZM-11.94 229.94H31.74V228.94H-11.94V229.94ZM31.74 229.94C43.5092 229.94 52.4183 232.997 58.5491 239.036L59.2509 238.324C52.875 232.043 43.6774 228.94 31.74 228.94V229.94ZM58.5518 239.039C64.7772 245.081 67.92 253.617 67.92 264.72H68.92C68.92 253.423 65.7162 244.599 59.2482 238.321L58.5518 239.039ZM67.92 264.72C67.92 275.823 64.7772 284.359 58.5518 290.401L59.2482 291.119C65.7162 284.841 68.92 276.017 68.92 264.72H67.92ZM58.5491 290.404C52.4183 296.443 43.5092 299.5 31.74 299.5V300.5C43.6774 300.5 52.875 297.397 59.2509 291.116L58.5491 290.404ZM31.74 299.5H15.5V300.5H31.74V299.5ZM15 300V335H16V300H15ZM115.983 270.18H115.483V270.68H115.983V270.18ZM155.603 270.18V270.68H156.103V270.18H155.603ZM155.603 229.44V228.94H155.103V229.44H155.603ZM183.043 229.44H183.543V228.94H183.043V229.44ZM183.043 335V335.5H183.543V335H183.043ZM155.603 335H155.103V335.5H155.603V335ZM155.603 291.46H156.103V290.96H155.603V291.46ZM115.983 291.46V290.96H115.483V291.46H115.983ZM115.983 335V335.5H116.483V335H115.983ZM88.5428 335H88.0428V335.5H88.5428V335ZM88.5428 229.44V228.94H88.0428V229.44H88.5428ZM115.983 229.44H116.483V228.94H115.983V229.44ZM115.983 270.68H155.603V269.68H115.983V270.68ZM156.103 270.18V229.44H155.103V270.18H156.103ZM155.603 229.94H183.043V228.94H155.603V229.94ZM182.543 229.44V335H183.543V229.44H182.543ZM183.043 334.5H155.603V335.5H183.043V334.5ZM156.103 335V291.46H155.103V335H156.103ZM155.603 290.96H115.983V291.96H155.603V290.96ZM115.483 291.46V335H116.483V291.46H115.483ZM115.983 334.5H88.5428V335.5H115.983V334.5ZM89.0428 335V229.44H88.0428V335H89.0428ZM88.5428 229.94H115.983V228.94H88.5428V229.94ZM115.483 229.44V270.18H116.483V229.44H115.483ZM237.084 293.84L237.54 293.636L237.084 293.84ZM243.524 303.08L243.871 302.72L243.524 303.08ZM252.904 309.24L252.71 309.701L252.717 309.704L252.724 309.707L252.904 309.24ZM275.724 309.24L275.908 309.705L275.914 309.703L275.724 309.24ZM285.244 303.08L284.903 302.714L284.897 302.72L285.244 303.08ZM291.824 293.84L292.28 294.044L291.824 293.84ZM291.824 270.6L292.28 270.396L291.824 270.6ZM285.244 261.36L284.897 261.72L284.903 261.726L285.244 261.36ZM275.724 255.34L275.53 255.801L275.537 255.804L275.544 255.807L275.724 255.34ZM252.904 255.34L253.087 255.805L253.094 255.803L252.904 255.34ZM243.524 261.36L243.871 261.72L243.524 261.36ZM237.084 270.6L237.54 270.804L237.084 270.6ZM210.344 260.38L210.803 260.578L210.804 260.575L210.344 260.38ZM222.384 242.6L222.034 242.243L222.384 242.6ZM240.724 230.84L240.908 231.305L240.911 231.304L240.724 230.84ZM287.904 230.84L287.717 231.304L287.722 231.306L287.904 230.84ZM306.384 242.6L306.034 242.957L306.037 242.96L306.384 242.6ZM318.564 260.38L318.104 260.575L318.105 260.578L318.564 260.38ZM318.564 304.2L319.023 304.398L319.024 304.395L318.564 304.2ZM306.384 321.84L306.037 321.48L306.034 321.483L306.384 321.84ZM287.904 333.74L288.085 334.206L288.091 334.204L287.904 333.74ZM240.724 333.74L240.535 334.203L240.542 334.206L240.724 333.74ZM222.384 321.84L222.034 322.197L222.384 321.84ZM210.344 304.2L209.884 304.395L209.885 304.398L210.344 304.2ZM234.204 282.22C234.204 286.485 235.01 290.428 236.628 294.044L237.54 293.636C235.985 290.158 235.204 286.355 235.204 282.22H234.204ZM236.628 294.044C238.239 297.647 240.422 300.781 243.177 303.44L243.871 302.72C241.212 300.153 239.102 297.126 237.54 293.636L236.628 294.044ZM243.177 303.44C245.929 306.097 249.108 308.184 252.71 309.701L253.098 308.779C249.607 307.309 246.532 305.29 243.871 302.72L243.177 303.44ZM252.724 309.707C256.423 311.129 260.311 311.84 264.384 311.84V310.84C260.43 310.84 256.664 310.151 253.083 308.773L252.724 309.707ZM264.384 311.84C268.457 311.84 272.299 311.129 275.908 309.705L275.54 308.775C272.055 310.151 268.338 310.84 264.384 310.84V311.84ZM275.914 309.703C279.609 308.186 282.837 306.099 285.591 303.44L284.897 302.72C282.238 305.288 279.118 307.307 275.534 308.777L275.914 309.703ZM285.585 303.446C288.435 300.786 290.667 297.651 292.28 294.044L291.367 293.636C289.808 297.122 287.653 300.147 284.903 302.714L285.585 303.446ZM292.28 294.044C293.898 290.428 294.704 286.485 294.704 282.22H293.704C293.704 286.355 292.923 290.158 291.367 293.636L292.28 294.044ZM294.704 282.22C294.704 277.955 293.898 274.012 292.28 270.396L291.367 270.804C292.923 274.282 293.704 278.085 293.704 282.22H294.704ZM292.28 270.396C290.667 266.789 288.435 263.654 285.585 260.994L284.903 261.726C287.653 264.293 289.808 267.318 291.367 270.804L292.28 270.396ZM285.591 261C282.835 258.339 279.604 256.296 275.903 254.873L275.544 255.807C279.124 257.184 282.24 259.155 284.897 261.72L285.591 261ZM275.918 254.879C272.307 253.359 268.461 252.6 264.384 252.6V253.6C268.333 253.6 272.047 254.334 275.53 255.801L275.918 254.879ZM264.384 252.6C260.307 252.6 256.416 253.359 252.714 254.877L253.094 255.803C256.672 254.334 260.434 253.6 264.384 253.6V252.6ZM252.72 254.875C249.114 256.299 245.931 258.341 243.177 261L243.871 261.72C246.53 259.153 249.601 257.181 253.087 255.805L252.72 254.875ZM243.177 261C240.422 263.659 238.239 266.793 236.628 270.396L237.54 270.804C239.102 267.314 241.212 264.287 243.871 261.72L243.177 261ZM236.628 270.396C235.01 274.012 234.204 277.955 234.204 282.22H235.204C235.204 278.085 235.985 274.282 237.54 270.804L236.628 270.396ZM206.504 282.22C206.504 274.443 207.939 267.231 210.803 260.578L209.885 260.182C206.963 266.969 205.504 274.317 205.504 282.22H206.504ZM210.804 260.575C213.673 253.821 217.649 247.949 222.734 242.957L222.034 242.243C216.852 247.331 212.802 253.313 209.884 260.185L210.804 260.575ZM222.734 242.957C227.817 237.966 233.873 234.082 240.908 231.305L240.54 230.375C233.389 233.198 227.218 237.154 222.034 242.243L222.734 242.957ZM240.911 231.304C248.032 228.437 255.854 227 264.384 227V226C255.74 226 247.789 227.456 240.537 230.376L240.911 231.304ZM264.384 227C272.819 227 280.595 228.437 287.717 231.304L288.091 230.376C280.839 227.457 272.935 226 264.384 226V227ZM287.722 231.306C294.851 234.083 300.952 237.968 306.034 242.957L306.734 242.243C301.549 237.152 295.331 233.197 288.085 230.374L287.722 231.306ZM306.037 242.96C311.214 247.952 315.236 253.823 318.104 260.575L319.024 260.185C316.105 253.311 312.007 247.328 306.731 242.24L306.037 242.96ZM318.105 260.578C320.969 267.231 322.404 274.443 322.404 282.22H323.404C323.404 274.317 321.945 266.969 319.023 260.182L318.105 260.578ZM322.404 282.22C322.404 289.997 320.969 297.257 318.104 304.005L319.024 304.395C321.945 297.517 323.404 290.123 323.404 282.22H322.404ZM318.105 304.002C315.237 310.662 311.215 316.487 306.037 321.48L306.731 322.2C312.006 317.113 316.104 311.178 319.023 304.398L318.105 304.002ZM306.034 321.483C300.951 326.474 294.848 330.406 287.717 333.276L288.091 334.204C295.334 331.288 301.55 327.286 306.734 322.197L306.034 321.483ZM287.722 333.274C280.599 336.049 272.821 337.44 264.384 337.44V338.44C272.933 338.44 280.835 337.031 288.085 334.206L287.722 333.274ZM264.384 337.44C255.852 337.44 248.028 336.049 240.905 333.274L240.542 334.206C247.793 337.031 255.742 338.44 264.384 338.44V337.44ZM240.913 333.277C233.876 330.407 227.818 326.475 222.734 321.483L222.034 322.197C227.216 327.285 233.385 331.287 240.535 334.203L240.913 333.277ZM222.734 321.483C217.648 316.489 213.671 310.664 210.803 304.002L209.885 304.398C212.803 311.176 216.853 317.111 222.034 322.197L222.734 321.483ZM210.804 304.005C207.939 297.257 206.504 289.997 206.504 282.22H205.504C205.504 290.123 206.963 297.517 209.884 304.395L210.804 304.005ZM345.837 335H345.337V335.5H345.837V335ZM345.837 229.44V228.94H345.337V229.44H345.837ZM373.277 229.44L373.67 229.131L373.52 228.94H373.277V229.44ZM423.957 293.98L423.563 294.289L424.457 295.426V293.98H423.957ZM423.957 229.44V228.94H423.457V229.44H423.957ZM451.257 229.44H451.757V228.94H451.257V229.44ZM451.257 335V335.5H451.757V335H451.257ZM423.957 335L423.563 335.309L423.713 335.5H423.957V335ZM373.277 270.46L373.67 270.151L372.777 269.014V270.46H373.277ZM373.277 335V335.5H373.777V335H373.277ZM346.337 335V229.44H345.337V335H346.337ZM345.837 229.94H373.277V228.94H345.837V229.94ZM372.883 229.749L423.563 294.289L424.35 293.671L373.67 229.131L372.883 229.749ZM424.457 293.98V229.44H423.457V293.98H424.457ZM423.957 229.94H451.257V228.94H423.957V229.94ZM450.757 229.44V335H451.757V229.44H450.757ZM451.257 334.5H423.957V335.5H451.257V334.5ZM424.35 334.691L373.67 270.151L372.883 270.769L423.563 335.309L424.35 334.691ZM372.777 270.46V335H373.777V270.46H372.777ZM373.277 334.5H345.837V335.5H373.277V334.5ZM539.055 252.68V253.18H539.555V252.68H539.055ZM506.435 252.68V252.18H505.935V252.68H506.435ZM506.435 270.32H505.935V270.82H506.435V270.32ZM537.235 270.32H537.735V269.82H537.235V270.32ZM537.235 293.56V294.06H537.735V293.56H537.235ZM506.435 293.56V293.06H505.935V293.56H506.435ZM506.435 311.76H505.935V312.26H506.435V311.76ZM539.055 311.76H539.555V311.26H539.055V311.76ZM539.055 335V335.5H539.555V335H539.055ZM478.995 335H478.495V335.5H478.995V335ZM478.995 229.44V228.94H478.495V229.44H478.995ZM539.055 229.44H539.555V228.94H539.055V229.44ZM539.055 252.18H506.435V253.18H539.055V252.18ZM505.935 252.68V270.32H506.935V252.68H505.935ZM506.435 270.82H537.235V269.82H506.435V270.82ZM536.735 270.32V293.56H537.735V270.32H536.735ZM537.235 293.06H506.435V294.06H537.235V293.06ZM505.935 293.56V311.76H506.935V293.56H505.935ZM506.435 312.26H539.055V311.26H506.435V312.26ZM538.555 311.76V335H539.555V311.76H538.555ZM539.055 334.5H478.995V335.5H539.055V334.5ZM479.495 335V229.44H478.495V335H479.495ZM478.995 229.94H539.055V228.94H478.995V229.94ZM538.555 229.44V252.68H539.555V229.44H538.555ZM48.54 452.68V453.18H49.04V452.68H48.54ZM15.5 452.68V452.18H15V452.68H15.5ZM15.5 470.32H15V470.82H15.5V470.32ZM45.6 470.32H46.1V469.82H45.6V470.32ZM45.6 493.56V494.06H46.1V493.56H45.6ZM15.5 493.56V493.06H15V493.56H15.5ZM15.5 535V535.5H16V535H15.5ZM-11.94 535H-12.44V535.5H-11.94V535ZM-11.94 429.44V428.94H-12.44V429.44H-11.94ZM48.54 429.44H49.04V428.94H48.54V429.44ZM48.54 452.18H15.5V453.18H48.54V452.18ZM15 452.68V470.32H16V452.68H15ZM15.5 470.82H45.6V469.82H15.5V470.82ZM45.1 470.32V493.56H46.1V470.32H45.1ZM45.6 493.06H15.5V494.06H45.6V493.06ZM15 493.56V535H16V493.56H15ZM15.5 534.5H-11.94V535.5H15.5V534.5ZM-11.44 535V429.44H-12.44V535H-11.44ZM-11.94 429.94H48.54V428.94H-11.94V429.94ZM48.04 429.44V452.68H49.04V429.44H48.04ZM97.9359 429.44H98.4359V428.94H97.9359V429.44ZM97.9359 535V535.5H98.4359V535H97.9359ZM70.4959 535H69.9959V535.5H70.4959V535ZM70.4959 429.44V428.94H69.9959V429.44H70.4959ZM97.4359 429.44V535H98.4359V429.44H97.4359ZM97.9359 534.5H70.4959V535.5H97.9359V534.5ZM70.9959 535V429.44H69.9959V535H70.9959ZM70.4959 429.94H97.9359V428.94H70.4959V429.94ZM125.588 535H125.088V535.5H125.588V535ZM125.588 429.44V428.94H125.088V429.44H125.588ZM153.028 429.44L153.421 429.131L153.271 428.94H153.028V429.44ZM203.708 493.98L203.315 494.289L204.208 495.426V493.98H203.708ZM203.708 429.44V428.94H203.208V429.44H203.708ZM231.008 429.44H231.508V428.94H231.008V429.44ZM231.008 535V535.5H231.508V535H231.008ZM203.708 535L203.315 535.309L203.465 535.5H203.708V535ZM153.028 470.46L153.421 470.151L152.528 469.014V470.46H153.028ZM153.028 535V535.5H153.528V535H153.028ZM126.088 535V429.44H125.088V535H126.088ZM125.588 429.94H153.028V428.94H125.588V429.94ZM152.635 429.749L203.315 494.289L204.101 493.671L153.421 429.131L152.635 429.749ZM204.208 493.98V429.44H203.208V493.98H204.208ZM203.708 429.94H231.008V428.94H203.708V429.94ZM230.508 429.44V535H231.508V429.44H230.508ZM231.008 534.5H203.708V535.5H231.008V534.5ZM204.101 534.691L153.421 470.151L152.635 470.769L203.315 535.309L204.101 534.691ZM152.528 470.46V535H153.528V470.46H152.528ZM153.028 534.5H125.588V535.5H153.028V534.5ZM286.187 511.76H285.687V512.26H286.187V511.76ZM305.227 509.52L305.041 509.056L305.227 509.52ZM314.607 503.36L314.253 503.006L314.247 503.013L314.607 503.36ZM320.487 494.12L320.02 493.94L320.018 493.947L320.487 494.12ZM320.487 470.46L320.953 470.281L320.487 470.46ZM314.467 461.08L314.107 461.427L314.113 461.434L314.467 461.08ZM305.087 454.92L305.272 454.456L305.087 454.92ZM286.187 452.68V452.18H285.687V452.68H286.187ZM258.747 429.44V428.94H258.247V429.44H258.747ZM319.507 433.78L319.297 434.234L319.299 434.235L319.507 433.78ZM336.027 445.4L335.666 445.747L335.673 445.754L336.027 445.4ZM347.227 462.2L346.766 462.394L346.767 462.396L347.227 462.2ZM347.227 502.24L346.766 502.046L346.764 502.05L347.227 502.24ZM336.167 519.04L335.81 518.69L335.806 518.693L336.167 519.04ZM319.647 530.66L319.439 530.205L319.437 530.206L319.647 530.66ZM258.747 535H258.247V535.5H258.747V535ZM286.187 512.26H292.487V511.26H286.187V512.26ZM292.487 512.26C297.299 512.26 301.61 511.505 305.412 509.984L305.041 509.056C301.377 510.522 297.195 511.26 292.487 511.26V512.26ZM305.412 509.984C309.204 508.467 312.392 506.377 314.967 503.707L314.247 503.013C311.781 505.57 308.716 507.586 305.041 509.056L305.412 509.984ZM314.96 503.714C317.626 501.048 319.625 497.906 320.956 494.293L320.018 493.947C318.735 497.428 316.814 500.445 314.253 503.006L314.96 503.714ZM320.953 494.299C322.378 490.597 323.087 486.569 323.087 482.22H322.087C322.087 486.458 321.396 490.363 320.02 493.941L320.953 494.299ZM323.087 482.22C323.087 477.963 322.377 473.982 320.953 470.281L320.02 470.639C321.396 474.218 322.087 478.077 322.087 482.22H323.087ZM320.953 470.281C319.53 466.579 317.486 463.392 314.82 460.726L314.113 461.434C316.674 463.995 318.644 467.061 320.02 470.639L320.953 470.281ZM314.827 460.733C312.252 458.063 309.064 455.973 305.272 454.456L304.901 455.384C308.576 456.854 311.641 458.87 314.107 461.427L314.827 460.733ZM305.272 454.456C301.471 452.935 297.207 452.18 292.487 452.18V453.18C297.1 453.18 301.235 453.918 304.901 455.384L305.272 454.456ZM292.487 452.18H286.187V453.18H292.487V452.18ZM285.687 452.68V511.76H286.687V452.68H285.687ZM258.747 429.94H299.347V428.94H258.747V429.94ZM299.347 429.94C306.464 429.94 313.112 431.372 319.297 434.234L319.717 433.326C313.395 430.401 306.603 428.94 299.347 428.94V429.94ZM319.299 434.235C325.591 437.103 331.045 440.94 335.666 445.747L336.387 445.053C331.675 440.153 326.116 436.244 319.714 433.325L319.299 434.235ZM335.673 445.754C340.386 450.466 344.083 456.011 346.766 462.394L347.688 462.006C344.957 455.509 341.188 449.854 336.38 445.046L335.673 445.754ZM346.767 462.396C349.447 468.68 350.787 475.286 350.787 482.22H351.787C351.787 475.154 350.42 468.413 347.687 462.004L346.767 462.396ZM350.787 482.22C350.787 489.059 349.447 495.667 346.766 502.046L347.688 502.434C350.42 495.933 351.787 489.194 351.787 482.22H350.787ZM346.764 502.05C344.175 508.337 340.524 513.883 335.81 518.69L336.524 519.39C341.329 514.49 345.051 508.836 347.689 502.43L346.764 502.05ZM335.806 518.693C331.185 523.5 325.731 527.337 319.439 530.205L319.854 531.115C326.256 528.196 331.815 524.287 336.527 519.387L335.806 518.693ZM319.437 530.206C313.253 533.067 306.558 534.5 299.347 534.5V535.5C306.695 535.5 313.534 534.039 319.857 531.114L319.437 530.206ZM299.347 534.5H258.747V535.5H299.347V534.5ZM259.247 535V429.44H258.247V535H259.247ZM434.465 452.68V453.18H434.965V452.68H434.465ZM401.845 452.68V452.18H401.345V452.68H401.845ZM401.845 470.32H401.345V470.82H401.845V470.32ZM432.645 470.32H433.145V469.82H432.645V470.32ZM432.645 493.56V494.06H433.145V493.56H432.645ZM401.845 493.56V493.06H401.345V493.56H401.845ZM401.845 511.76H401.345V512.26H401.845V511.76ZM434.465 511.76H434.965V511.26H434.465V511.76ZM434.465 535V535.5H434.965V535H434.465ZM374.405 535H373.905V535.5H374.405V535ZM374.405 429.44V428.94H373.905V429.44H374.405ZM434.465 429.44H434.965V428.94H434.465V429.44ZM434.465 452.18H401.845V453.18H434.465V452.18ZM401.345 452.68V470.32H402.345V452.68H401.345ZM401.845 470.82H432.645V469.82H401.845V470.82ZM432.145 470.32V493.56H433.145V470.32H432.145ZM432.645 493.06H401.845V494.06H432.645V493.06ZM401.345 493.56V511.76H402.345V493.56H401.345ZM401.845 512.26H434.465V511.26H401.845V512.26ZM433.965 511.76V535H434.965V511.76H433.965ZM434.465 534.5H374.405V535.5H434.465V534.5ZM374.905 535V429.44H373.905V535H374.905ZM374.405 429.94H434.465V428.94H374.405V429.94ZM433.965 429.44V452.68H434.965V429.44H433.965ZM487.289 476.62H486.789V477.12H487.289V476.62ZM504.929 473.26L505.235 473.655L504.929 473.26ZM504.929 453.94L505.235 453.545L504.929 453.94ZM487.289 450.58V450.08H486.789V450.58H487.289ZM547.629 535V535.5H548.643L548.026 534.696L547.629 535ZM513.469 535L513.049 535.271L513.197 535.5H513.469V535ZM487.289 494.4L487.709 494.129L486.789 492.702V494.4H487.289ZM487.289 535V535.5H487.789V535H487.289ZM459.849 535H459.349V535.5H459.849V535ZM459.849 429.44V428.94H459.349V429.44H459.849ZM517.949 432.1L517.762 432.564L517.77 432.567L517.949 432.1ZM528.729 439.1L528.364 439.442L528.37 439.448L528.729 439.1ZM535.169 449.46L534.698 449.628L534.702 449.638L535.169 449.46ZM531.529 481.66L531.134 481.353L531.134 481.354L531.529 481.66ZM514.449 491.74L514.335 491.253L513.581 491.43L514.052 492.044L514.449 491.74ZM487.289 477.12H492.469V476.12H487.289V477.12ZM492.469 477.12C497.942 477.12 502.221 475.989 505.235 473.655L504.623 472.865C501.85 475.011 497.823 476.12 492.469 476.12V477.12ZM505.235 473.655C508.27 471.306 509.769 467.929 509.769 463.6H508.769C508.769 467.671 507.375 470.734 504.623 472.865L505.235 473.655ZM509.769 463.6C509.769 459.271 508.27 455.894 505.235 453.545L504.623 454.335C507.375 456.466 508.769 459.529 508.769 463.6H509.769ZM505.235 453.545C502.221 451.211 497.942 450.08 492.469 450.08V451.08C497.823 451.08 501.85 452.189 504.623 454.335L505.235 453.545ZM492.469 450.08H487.289V451.08H492.469V450.08ZM486.789 450.58V476.62H487.789V450.58H486.789ZM547.629 534.5H513.469V535.5H547.629V534.5ZM513.889 534.729L487.709 494.129L486.869 494.671L513.049 535.271L513.889 534.729ZM486.789 494.4V535H487.789V494.4H486.789ZM487.289 534.5H459.849V535.5H487.289V534.5ZM460.349 535V429.44H459.349V535H460.349ZM459.849 429.94H502.549V428.94H459.849V429.94ZM502.549 429.94C508.38 429.94 513.447 430.819 517.762 432.564L518.136 431.636C513.678 429.834 508.478 428.94 502.549 428.94V429.94ZM517.77 432.567C522.097 434.224 525.623 436.518 528.364 439.442L529.094 438.758C526.235 435.709 522.575 433.336 518.128 431.633L517.77 432.567ZM528.37 439.448C531.214 442.383 533.322 445.775 534.698 449.628L535.64 449.292C534.216 445.305 532.031 441.79 529.088 438.752L528.37 439.448ZM534.702 449.638C536.172 453.497 536.909 457.637 536.909 462.06H537.909C537.909 457.523 537.153 453.263 535.636 449.282L534.702 449.638ZM536.909 462.06C536.909 470.005 534.97 476.421 531.134 481.353L531.924 481.967C535.928 476.819 537.909 470.169 537.909 462.06H536.909ZM531.134 481.354C527.393 486.19 521.811 489.5 514.335 491.253L514.563 492.227C522.207 490.434 528.012 487.024 531.925 481.966L531.134 481.354ZM514.052 492.044L547.232 535.304L548.026 534.696L514.846 491.436L514.052 492.044Z" fill="url(#paint4_linear)"/>
</g>
<g opacity="0.5" filter="url(#filter1_b)">
<path d="M27.5 277.88H36.6C46.68 277.88 51.72 273.493 51.72 264.72C51.72 255.947 46.68 251.56 36.6 251.56H27.5V277.88ZM27.5 335H0.0600005V229.44H43.74C55.5933 229.44 64.6467 232.52 70.9 238.68C77.2467 244.84 80.42 253.52 80.42 264.72C80.42 275.92 77.2467 284.6 70.9 290.76C64.6467 296.92 55.5933 300 43.74 300H27.5V335ZM127.983 270.18H167.603V229.44H195.043V335H167.603V291.46H127.983V335H100.543V229.44H127.983V270.18ZM246.704 282.22C246.704 286.42 247.497 290.293 249.084 293.84C250.671 297.387 252.817 300.467 255.524 303.08C258.231 305.693 261.357 307.747 264.904 309.24C268.544 310.64 272.371 311.34 276.384 311.34C280.397 311.34 284.177 310.64 287.724 309.24C291.364 307.747 294.537 305.693 297.244 303.08C300.044 300.467 302.237 297.387 303.824 293.84C305.411 290.293 306.204 286.42 306.204 282.22C306.204 278.02 305.411 274.147 303.824 270.6C302.237 267.053 300.044 263.973 297.244 261.36C294.537 258.747 291.364 256.74 287.724 255.34C284.177 253.847 280.397 253.1 276.384 253.1C272.371 253.1 268.544 253.847 264.904 255.34C261.357 256.74 258.231 258.747 255.524 261.36C252.817 263.973 250.671 267.053 249.084 270.6C247.497 274.147 246.704 278.02 246.704 282.22ZM218.004 282.22C218.004 274.38 219.451 267.1 222.344 260.38C225.237 253.567 229.251 247.64 234.384 242.6C239.517 237.56 245.631 233.64 252.724 230.84C259.911 227.947 267.797 226.5 276.384 226.5C284.877 226.5 292.717 227.947 299.904 230.84C307.091 233.64 313.251 237.56 318.384 242.6C323.611 247.64 327.671 253.567 330.564 260.38C333.457 267.1 334.904 274.38 334.904 282.22C334.904 290.06 333.457 297.387 330.564 304.2C327.671 310.92 323.611 316.8 318.384 321.84C313.251 326.88 307.091 330.847 299.904 333.74C292.717 336.54 284.877 337.94 276.384 337.94C267.797 337.94 259.911 336.54 252.724 333.74C245.631 330.847 239.517 326.88 234.384 321.84C229.251 316.8 225.237 310.92 222.344 304.2C219.451 297.387 218.004 290.06 218.004 282.22ZM357.837 335V229.44H385.277L435.957 293.98V229.44H463.257V335H435.957L385.277 270.46V335H357.837ZM551.055 252.68H518.435V270.32H549.235V293.56H518.435V311.76H551.055V335H490.995V229.44H551.055V252.68Z" fill="url(#paint5_linear)" fill-opacity="0.1"/>
<path d="M27.5 277.88H27V278.38H27.5V277.88ZM27.5 251.56V251.06H27V251.56H27.5ZM27.5 335V335.5H28V335H27.5ZM0.0600004 335H-0.44V335.5H0.0600004V335ZM0.0600004 229.44V228.94H-0.44V229.44H0.0600004ZM70.9 238.68L70.5491 239.036L70.5518 239.039L70.9 238.68ZM70.9 290.76L70.5518 290.401L70.5491 290.404L70.9 290.76ZM27.5 300V299.5H27V300H27.5ZM27.5 278.38H36.6V277.38H27.5V278.38ZM36.6 278.38C41.7014 278.38 45.6207 277.271 48.2683 274.967C50.9291 272.651 52.22 269.203 52.22 264.72H51.22C51.22 269.01 49.9909 272.142 47.6117 274.213C45.2193 276.295 41.5786 277.38 36.6 277.38V278.38ZM52.22 264.72C52.22 260.237 50.9291 256.789 48.2683 254.473C45.6207 252.169 41.7014 251.06 36.6 251.06V252.06C41.5786 252.06 45.2193 253.145 47.6117 255.227C49.9909 257.298 51.22 260.43 51.22 264.72H52.22ZM36.6 251.06H27.5V252.06H36.6V251.06ZM27 251.56V277.88H28V251.56H27ZM27.5 334.5H0.0600004V335.5H27.5V334.5ZM0.56 335V229.44H-0.44V335H0.56ZM0.0600004 229.94H43.74V228.94H0.0600004V229.94ZM43.74 229.94C55.5092 229.94 64.4183 232.997 70.5491 239.036L71.2509 238.324C64.875 232.043 55.6774 228.94 43.74 228.94V229.94ZM70.5518 239.039C76.7772 245.081 79.92 253.617 79.92 264.72H80.92C80.92 253.423 77.7162 244.599 71.2482 238.321L70.5518 239.039ZM79.92 264.72C79.92 275.823 76.7772 284.359 70.5518 290.401L71.2482 291.119C77.7162 284.841 80.92 276.017 80.92 264.72H79.92ZM70.5491 290.404C64.4183 296.443 55.5092 299.5 43.74 299.5V300.5C55.6774 300.5 64.875 297.397 71.2509 291.116L70.5491 290.404ZM43.74 299.5H27.5V300.5H43.74V299.5ZM27 300V335H28V300H27ZM127.983 270.18H127.483V270.68H127.983V270.18ZM167.603 270.18V270.68H168.103V270.18H167.603ZM167.603 229.44V228.94H167.103V229.44H167.603ZM195.043 229.44H195.543V228.94H195.043V229.44ZM195.043 335V335.5H195.543V335H195.043ZM167.603 335H167.103V335.5H167.603V335ZM167.603 291.46H168.103V290.96H167.603V291.46ZM127.983 291.46V290.96H127.483V291.46H127.983ZM127.983 335V335.5H128.483V335H127.983ZM100.543 335H100.043V335.5H100.543V335ZM100.543 229.44V228.94H100.043V229.44H100.543ZM127.983 229.44H128.483V228.94H127.983V229.44ZM127.983 270.68H167.603V269.68H127.983V270.68ZM168.103 270.18V229.44H167.103V270.18H168.103ZM167.603 229.94H195.043V228.94H167.603V229.94ZM194.543 229.44V335H195.543V229.44H194.543ZM195.043 334.5H167.603V335.5H195.043V334.5ZM168.103 335V291.46H167.103V335H168.103ZM167.603 290.96H127.983V291.96H167.603V290.96ZM127.483 291.46V335H128.483V291.46H127.483ZM127.983 334.5H100.543V335.5H127.983V334.5ZM101.043 335V229.44H100.043V335H101.043ZM100.543 229.94H127.983V228.94H100.543V229.94ZM127.483 229.44V270.18H128.483V229.44H127.483ZM249.084 293.84L249.54 293.636L249.084 293.84ZM255.524 303.08L255.871 302.72L255.524 303.08ZM264.904 309.24L264.71 309.701L264.717 309.704L264.724 309.707L264.904 309.24ZM287.724 309.24L287.908 309.705L287.914 309.703L287.724 309.24ZM297.244 303.08L296.903 302.714L296.897 302.72L297.244 303.08ZM303.824 293.84L304.28 294.044L303.824 293.84ZM303.824 270.6L304.28 270.396L303.824 270.6ZM297.244 261.36L296.897 261.72L296.903 261.726L297.244 261.36ZM287.724 255.34L287.53 255.801L287.537 255.804L287.544 255.807L287.724 255.34ZM264.904 255.34L265.087 255.805L265.094 255.803L264.904 255.34ZM255.524 261.36L255.871 261.72L255.524 261.36ZM249.084 270.6L249.54 270.804L249.084 270.6ZM222.344 260.38L222.803 260.578L222.804 260.575L222.344 260.38ZM234.384 242.6L234.034 242.243L234.384 242.6ZM252.724 230.84L252.908 231.305L252.911 231.304L252.724 230.84ZM299.904 230.84L299.717 231.304L299.722 231.306L299.904 230.84ZM318.384 242.6L318.034 242.957L318.037 242.96L318.384 242.6ZM330.564 260.38L330.104 260.575L330.105 260.578L330.564 260.38ZM330.564 304.2L331.023 304.398L331.024 304.395L330.564 304.2ZM318.384 321.84L318.037 321.48L318.034 321.483L318.384 321.84ZM299.904 333.74L300.085 334.206L300.091 334.204L299.904 333.74ZM252.724 333.74L252.535 334.203L252.542 334.206L252.724 333.74ZM234.384 321.84L234.034 322.197L234.384 321.84ZM222.344 304.2L221.884 304.395L221.885 304.398L222.344 304.2ZM246.204 282.22C246.204 286.485 247.01 290.428 248.628 294.044L249.54 293.636C247.985 290.158 247.204 286.355 247.204 282.22H246.204ZM248.628 294.044C250.239 297.647 252.422 300.781 255.177 303.44L255.871 302.72C253.212 300.153 251.102 297.126 249.54 293.636L248.628 294.044ZM255.177 303.44C257.929 306.097 261.108 308.184 264.71 309.701L265.098 308.779C261.607 307.309 258.532 305.29 255.871 302.72L255.177 303.44ZM264.724 309.707C268.423 311.129 272.311 311.84 276.384 311.84V310.84C272.43 310.84 268.664 310.151 265.083 308.773L264.724 309.707ZM276.384 311.84C280.457 311.84 284.299 311.129 287.908 309.705L287.54 308.775C284.055 310.151 280.338 310.84 276.384 310.84V311.84ZM287.914 309.703C291.609 308.186 294.837 306.099 297.591 303.44L296.897 302.72C294.238 305.288 291.118 307.307 287.534 308.777L287.914 309.703ZM297.585 303.446C300.435 300.786 302.667 297.651 304.28 294.044L303.367 293.636C301.808 297.122 299.653 300.147 296.903 302.714L297.585 303.446ZM304.28 294.044C305.898 290.428 306.704 286.485 306.704 282.22H305.704C305.704 286.355 304.923 290.158 303.367 293.636L304.28 294.044ZM306.704 282.22C306.704 277.955 305.898 274.012 304.28 270.396L303.367 270.804C304.923 274.282 305.704 278.085 305.704 282.22H306.704ZM304.28 270.396C302.667 266.789 300.435 263.654 297.585 260.994L296.903 261.726C299.653 264.293 301.808 267.318 303.367 270.804L304.28 270.396ZM297.591 261C294.835 258.339 291.604 256.296 287.903 254.873L287.544 255.807C291.124 257.184 294.24 259.155 296.897 261.72L297.591 261ZM287.918 254.879C284.307 253.359 280.461 252.6 276.384 252.6V253.6C280.333 253.6 284.047 254.334 287.53 255.801L287.918 254.879ZM276.384 252.6C272.307 252.6 268.416 253.359 264.714 254.877L265.094 255.803C268.672 254.334 272.434 253.6 276.384 253.6V252.6ZM264.72 254.875C261.114 256.299 257.931 258.341 255.177 261L255.871 261.72C258.53 259.153 261.601 257.181 265.087 255.805L264.72 254.875ZM255.177 261C252.422 263.659 250.239 266.793 248.628 270.396L249.54 270.804C251.102 267.314 253.212 264.287 255.871 261.72L255.177 261ZM248.628 270.396C247.01 274.012 246.204 277.955 246.204 282.22H247.204C247.204 278.085 247.985 274.282 249.54 270.804L248.628 270.396ZM218.504 282.22C218.504 274.443 219.939 267.231 222.803 260.578L221.885 260.182C218.963 266.969 217.504 274.317 217.504 282.22H218.504ZM222.804 260.575C225.673 253.821 229.649 247.949 234.734 242.957L234.034 242.243C228.852 247.331 224.802 253.313 221.884 260.185L222.804 260.575ZM234.734 242.957C239.817 237.966 245.873 234.082 252.908 231.305L252.54 230.375C245.389 233.198 239.218 237.154 234.034 242.243L234.734 242.957ZM252.911 231.304C260.032 228.437 267.854 227 276.384 227V226C267.74 226 259.789 227.456 252.537 230.376L252.911 231.304ZM276.384 227C284.819 227 292.595 228.437 299.717 231.304L300.091 230.376C292.839 227.457 284.935 226 276.384 226V227ZM299.722 231.306C306.851 234.083 312.952 237.968 318.034 242.957L318.734 242.243C313.549 237.152 307.331 233.197 300.085 230.374L299.722 231.306ZM318.037 242.96C323.214 247.952 327.236 253.823 330.104 260.575L331.024 260.185C328.105 253.311 324.007 247.328 318.731 242.24L318.037 242.96ZM330.105 260.578C332.969 267.231 334.404 274.443 334.404 282.22H335.404C335.404 274.317 333.945 266.969 331.023 260.182L330.105 260.578ZM334.404 282.22C334.404 289.997 332.969 297.257 330.104 304.005L331.024 304.395C333.945 297.517 335.404 290.123 335.404 282.22H334.404ZM330.105 304.002C327.237 310.662 323.215 316.487 318.037 321.48L318.731 322.2C324.006 317.113 328.104 311.178 331.023 304.398L330.105 304.002ZM318.034 321.483C312.951 326.474 306.848 330.406 299.717 333.276L300.091 334.204C307.334 331.288 313.55 327.286 318.734 322.197L318.034 321.483ZM299.722 333.274C292.599 336.049 284.821 337.44 276.384 337.44V338.44C284.933 338.44 292.835 337.031 300.085 334.206L299.722 333.274ZM276.384 337.44C267.852 337.44 260.028 336.049 252.905 333.274L252.542 334.206C259.793 337.031 267.742 338.44 276.384 338.44V337.44ZM252.913 333.277C245.876 330.407 239.818 326.475 234.734 321.483L234.034 322.197C239.216 327.285 245.385 331.287 252.535 334.203L252.913 333.277ZM234.734 321.483C229.648 316.489 225.671 310.664 222.803 304.002L221.885 304.398C224.803 311.176 228.853 317.111 234.034 322.197L234.734 321.483ZM222.804 304.005C219.939 297.257 218.504 289.997 218.504 282.22H217.504C217.504 290.123 218.963 297.517 221.884 304.395L222.804 304.005ZM357.837 335H357.337V335.5H357.837V335ZM357.837 229.44V228.94H357.337V229.44H357.837ZM385.277 229.44L385.67 229.131L385.52 228.94H385.277V229.44ZM435.957 293.98L435.563 294.289L436.457 295.426V293.98H435.957ZM435.957 229.44V228.94H435.457V229.44H435.957ZM463.257 229.44H463.757V228.94H463.257V229.44ZM463.257 335V335.5H463.757V335H463.257ZM435.957 335L435.563 335.309L435.713 335.5H435.957V335ZM385.277 270.46L385.67 270.151L384.777 269.014V270.46H385.277ZM385.277 335V335.5H385.777V335H385.277ZM358.337 335V229.44H357.337V335H358.337ZM357.837 229.94H385.277V228.94H357.837V229.94ZM384.883 229.749L435.563 294.289L436.35 293.671L385.67 229.131L384.883 229.749ZM436.457 293.98V229.44H435.457V293.98H436.457ZM435.957 229.94H463.257V228.94H435.957V229.94ZM462.757 229.44V335H463.757V229.44H462.757ZM463.257 334.5H435.957V335.5H463.257V334.5ZM436.35 334.691L385.67 270.151L384.883 270.769L435.563 335.309L436.35 334.691ZM384.777 270.46V335H385.777V270.46H384.777ZM385.277 334.5H357.837V335.5H385.277V334.5ZM551.055 252.68V253.18H551.555V252.68H551.055ZM518.435 252.68V252.18H517.935V252.68H518.435ZM518.435 270.32H517.935V270.82H518.435V270.32ZM549.235 270.32H549.735V269.82H549.235V270.32ZM549.235 293.56V294.06H549.735V293.56H549.235ZM518.435 293.56V293.06H517.935V293.56H518.435ZM518.435 311.76H517.935V312.26H518.435V311.76ZM551.055 311.76H551.555V311.26H551.055V311.76ZM551.055 335V335.5H551.555V335H551.055ZM490.995 335H490.495V335.5H490.995V335ZM490.995 229.44V228.94H490.495V229.44H490.995ZM551.055 229.44H551.555V228.94H551.055V229.44ZM551.055 252.18H518.435V253.18H551.055V252.18ZM517.935 252.68V270.32H518.935V252.68H517.935ZM518.435 270.82H549.235V269.82H518.435V270.82ZM548.735 270.32V293.56H549.735V270.32H548.735ZM549.235 293.06H518.435V294.06H549.235V293.06ZM517.935 293.56V311.76H518.935V293.56H517.935ZM518.435 312.26H551.055V311.26H518.435V312.26ZM550.555 311.76V335H551.555V311.76H550.555ZM551.055 334.5H490.995V335.5H551.055V334.5ZM491.495 335V229.44H490.495V335H491.495ZM490.995 229.94H551.055V228.94H490.995V229.94ZM550.555 229.44V252.68H551.555V229.44H550.555Z" fill="url(#paint6_linear)" fill-opacity="0.3"/>
<path d="M27.5 277.88H27V278.38H27.5V277.88ZM27.5 251.56V251.06H27V251.56H27.5ZM27.5 335V335.5H28V335H27.5ZM0.0600004 335H-0.44V335.5H0.0600004V335ZM0.0600004 229.44V228.94H-0.44V229.44H0.0600004ZM70.9 238.68L70.5491 239.036L70.5518 239.039L70.9 238.68ZM70.9 290.76L70.5518 290.401L70.5491 290.404L70.9 290.76ZM27.5 300V299.5H27V300H27.5ZM27.5 278.38H36.6V277.38H27.5V278.38ZM36.6 278.38C41.7014 278.38 45.6207 277.271 48.2683 274.967C50.9291 272.651 52.22 269.203 52.22 264.72H51.22C51.22 269.01 49.9909 272.142 47.6117 274.213C45.2193 276.295 41.5786 277.38 36.6 277.38V278.38ZM52.22 264.72C52.22 260.237 50.9291 256.789 48.2683 254.473C45.6207 252.169 41.7014 251.06 36.6 251.06V252.06C41.5786 252.06 45.2193 253.145 47.6117 255.227C49.9909 257.298 51.22 260.43 51.22 264.72H52.22ZM36.6 251.06H27.5V252.06H36.6V251.06ZM27 251.56V277.88H28V251.56H27ZM27.5 334.5H0.0600004V335.5H27.5V334.5ZM0.56 335V229.44H-0.44V335H0.56ZM0.0600004 229.94H43.74V228.94H0.0600004V229.94ZM43.74 229.94C55.5092 229.94 64.4183 232.997 70.5491 239.036L71.2509 238.324C64.875 232.043 55.6774 228.94 43.74 228.94V229.94ZM70.5518 239.039C76.7772 245.081 79.92 253.617 79.92 264.72H80.92C80.92 253.423 77.7162 244.599 71.2482 238.321L70.5518 239.039ZM79.92 264.72C79.92 275.823 76.7772 284.359 70.5518 290.401L71.2482 291.119C77.7162 284.841 80.92 276.017 80.92 264.72H79.92ZM70.5491 290.404C64.4183 296.443 55.5092 299.5 43.74 299.5V300.5C55.6774 300.5 64.875 297.397 71.2509 291.116L70.5491 290.404ZM43.74 299.5H27.5V300.5H43.74V299.5ZM27 300V335H28V300H27ZM127.983 270.18H127.483V270.68H127.983V270.18ZM167.603 270.18V270.68H168.103V270.18H167.603ZM167.603 229.44V228.94H167.103V229.44H167.603ZM195.043 229.44H195.543V228.94H195.043V229.44ZM195.043 335V335.5H195.543V335H195.043ZM167.603 335H167.103V335.5H167.603V335ZM167.603 291.46H168.103V290.96H167.603V291.46ZM127.983 291.46V290.96H127.483V291.46H127.983ZM127.983 335V335.5H128.483V335H127.983ZM100.543 335H100.043V335.5H100.543V335ZM100.543 229.44V228.94H100.043V229.44H100.543ZM127.983 229.44H128.483V228.94H127.983V229.44ZM127.983 270.68H167.603V269.68H127.983V270.68ZM168.103 270.18V229.44H167.103V270.18H168.103ZM167.603 229.94H195.043V228.94H167.603V229.94ZM194.543 229.44V335H195.543V229.44H194.543ZM195.043 334.5H167.603V335.5H195.043V334.5ZM168.103 335V291.46H167.103V335H168.103ZM167.603 290.96H127.983V291.96H167.603V290.96ZM127.483 291.46V335H128.483V291.46H127.483ZM127.983 334.5H100.543V335.5H127.983V334.5ZM101.043 335V229.44H100.043V335H101.043ZM100.543 229.94H127.983V228.94H100.543V229.94ZM127.483 229.44V270.18H128.483V229.44H127.483ZM249.084 293.84L249.54 293.636L249.084 293.84ZM255.524 303.08L255.871 302.72L255.524 303.08ZM264.904 309.24L264.71 309.701L264.717 309.704L264.724 309.707L264.904 309.24ZM287.724 309.24L287.908 309.705L287.914 309.703L287.724 309.24ZM297.244 303.08L296.903 302.714L296.897 302.72L297.244 303.08ZM303.824 293.84L304.28 294.044L303.824 293.84ZM303.824 270.6L304.28 270.396L303.824 270.6ZM297.244 261.36L296.897 261.72L296.903 261.726L297.244 261.36ZM287.724 255.34L287.53 255.801L287.537 255.804L287.544 255.807L287.724 255.34ZM264.904 255.34L265.087 255.805L265.094 255.803L264.904 255.34ZM255.524 261.36L255.871 261.72L255.524 261.36ZM249.084 270.6L249.54 270.804L249.084 270.6ZM222.344 260.38L222.803 260.578L222.804 260.575L222.344 260.38ZM234.384 242.6L234.034 242.243L234.384 242.6ZM252.724 230.84L252.908 231.305L252.911 231.304L252.724 230.84ZM299.904 230.84L299.717 231.304L299.722 231.306L299.904 230.84ZM318.384 242.6L318.034 242.957L318.037 242.96L318.384 242.6ZM330.564 260.38L330.104 260.575L330.105 260.578L330.564 260.38ZM330.564 304.2L331.023 304.398L331.024 304.395L330.564 304.2ZM318.384 321.84L318.037 321.48L318.034 321.483L318.384 321.84ZM299.904 333.74L300.085 334.206L300.091 334.204L299.904 333.74ZM252.724 333.74L252.535 334.203L252.542 334.206L252.724 333.74ZM234.384 321.84L234.034 322.197L234.384 321.84ZM222.344 304.2L221.884 304.395L221.885 304.398L222.344 304.2ZM246.204 282.22C246.204 286.485 247.01 290.428 248.628 294.044L249.54 293.636C247.985 290.158 247.204 286.355 247.204 282.22H246.204ZM248.628 294.044C250.239 297.647 252.422 300.781 255.177 303.44L255.871 302.72C253.212 300.153 251.102 297.126 249.54 293.636L248.628 294.044ZM255.177 303.44C257.929 306.097 261.108 308.184 264.71 309.701L265.098 308.779C261.607 307.309 258.532 305.29 255.871 302.72L255.177 303.44ZM264.724 309.707C268.423 311.129 272.311 311.84 276.384 311.84V310.84C272.43 310.84 268.664 310.151 265.083 308.773L264.724 309.707ZM276.384 311.84C280.457 311.84 284.299 311.129 287.908 309.705L287.54 308.775C284.055 310.151 280.338 310.84 276.384 310.84V311.84ZM287.914 309.703C291.609 308.186 294.837 306.099 297.591 303.44L296.897 302.72C294.238 305.288 291.118 307.307 287.534 308.777L287.914 309.703ZM297.585 303.446C300.435 300.786 302.667 297.651 304.28 294.044L303.367 293.636C301.808 297.122 299.653 300.147 296.903 302.714L297.585 303.446ZM304.28 294.044C305.898 290.428 306.704 286.485 306.704 282.22H305.704C305.704 286.355 304.923 290.158 303.367 293.636L304.28 294.044ZM306.704 282.22C306.704 277.955 305.898 274.012 304.28 270.396L303.367 270.804C304.923 274.282 305.704 278.085 305.704 282.22H306.704ZM304.28 270.396C302.667 266.789 300.435 263.654 297.585 260.994L296.903 261.726C299.653 264.293 301.808 267.318 303.367 270.804L304.28 270.396ZM297.591 261C294.835 258.339 291.604 256.296 287.903 254.873L287.544 255.807C291.124 257.184 294.24 259.155 296.897 261.72L297.591 261ZM287.918 254.879C284.307 253.359 280.461 252.6 276.384 252.6V253.6C280.333 253.6 284.047 254.334 287.53 255.801L287.918 254.879ZM276.384 252.6C272.307 252.6 268.416 253.359 264.714 254.877L265.094 255.803C268.672 254.334 272.434 253.6 276.384 253.6V252.6ZM264.72 254.875C261.114 256.299 257.931 258.341 255.177 261L255.871 261.72C258.53 259.153 261.601 257.181 265.087 255.805L264.72 254.875ZM255.177 261C252.422 263.659 250.239 266.793 248.628 270.396L249.54 270.804C251.102 267.314 253.212 264.287 255.871 261.72L255.177 261ZM248.628 270.396C247.01 274.012 246.204 277.955 246.204 282.22H247.204C247.204 278.085 247.985 274.282 249.54 270.804L248.628 270.396ZM218.504 282.22C218.504 274.443 219.939 267.231 222.803 260.578L221.885 260.182C218.963 266.969 217.504 274.317 217.504 282.22H218.504ZM222.804 260.575C225.673 253.821 229.649 247.949 234.734 242.957L234.034 242.243C228.852 247.331 224.802 253.313 221.884 260.185L222.804 260.575ZM234.734 242.957C239.817 237.966 245.873 234.082 252.908 231.305L252.54 230.375C245.389 233.198 239.218 237.154 234.034 242.243L234.734 242.957ZM252.911 231.304C260.032 228.437 267.854 227 276.384 227V226C267.74 226 259.789 227.456 252.537 230.376L252.911 231.304ZM276.384 227C284.819 227 292.595 228.437 299.717 231.304L300.091 230.376C292.839 227.457 284.935 226 276.384 226V227ZM299.722 231.306C306.851 234.083 312.952 237.968 318.034 242.957L318.734 242.243C313.549 237.152 307.331 233.197 300.085 230.374L299.722 231.306ZM318.037 242.96C323.214 247.952 327.236 253.823 330.104 260.575L331.024 260.185C328.105 253.311 324.007 247.328 318.731 242.24L318.037 242.96ZM330.105 260.578C332.969 267.231 334.404 274.443 334.404 282.22H335.404C335.404 274.317 333.945 266.969 331.023 260.182L330.105 260.578ZM334.404 282.22C334.404 289.997 332.969 297.257 330.104 304.005L331.024 304.395C333.945 297.517 335.404 290.123 335.404 282.22H334.404ZM330.105 304.002C327.237 310.662 323.215 316.487 318.037 321.48L318.731 322.2C324.006 317.113 328.104 311.178 331.023 304.398L330.105 304.002ZM318.034 321.483C312.951 326.474 306.848 330.406 299.717 333.276L300.091 334.204C307.334 331.288 313.55 327.286 318.734 322.197L318.034 321.483ZM299.722 333.274C292.599 336.049 284.821 337.44 276.384 337.44V338.44C284.933 338.44 292.835 337.031 300.085 334.206L299.722 333.274ZM276.384 337.44C267.852 337.44 260.028 336.049 252.905 333.274L252.542 334.206C259.793 337.031 267.742 338.44 276.384 338.44V337.44ZM252.913 333.277C245.876 330.407 239.818 326.475 234.734 321.483L234.034 322.197C239.216 327.285 245.385 331.287 252.535 334.203L252.913 333.277ZM234.734 321.483C229.648 316.489 225.671 310.664 222.803 304.002L221.885 304.398C224.803 311.176 228.853 317.111 234.034 322.197L234.734 321.483ZM222.804 304.005C219.939 297.257 218.504 289.997 218.504 282.22H217.504C217.504 290.123 218.963 297.517 221.884 304.395L222.804 304.005ZM357.837 335H357.337V335.5H357.837V335ZM357.837 229.44V228.94H357.337V229.44H357.837ZM385.277 229.44L385.67 229.131L385.52 228.94H385.277V229.44ZM435.957 293.98L435.563 294.289L436.457 295.426V293.98H435.957ZM435.957 229.44V228.94H435.457V229.44H435.957ZM463.257 229.44H463.757V228.94H463.257V229.44ZM463.257 335V335.5H463.757V335H463.257ZM435.957 335L435.563 335.309L435.713 335.5H435.957V335ZM385.277 270.46L385.67 270.151L384.777 269.014V270.46H385.277ZM385.277 335V335.5H385.777V335H385.277ZM358.337 335V229.44H357.337V335H358.337ZM357.837 229.94H385.277V228.94H357.837V229.94ZM384.883 229.749L435.563 294.289L436.35 293.671L385.67 229.131L384.883 229.749ZM436.457 293.98V229.44H435.457V293.98H436.457ZM435.957 229.94H463.257V228.94H435.957V229.94ZM462.757 229.44V335H463.757V229.44H462.757ZM463.257 334.5H435.957V335.5H463.257V334.5ZM436.35 334.691L385.67 270.151L384.883 270.769L435.563 335.309L436.35 334.691ZM384.777 270.46V335H385.777V270.46H384.777ZM385.277 334.5H357.837V335.5H385.277V334.5ZM551.055 252.68V253.18H551.555V252.68H551.055ZM518.435 252.68V252.18H517.935V252.68H518.435ZM518.435 270.32H517.935V270.82H518.435V270.32ZM549.235 270.32H549.735V269.82H549.235V270.32ZM549.235 293.56V294.06H549.735V293.56H549.235ZM518.435 293.56V293.06H517.935V293.56H518.435ZM518.435 311.76H517.935V312.26H518.435V311.76ZM551.055 311.76H551.555V311.26H551.055V311.76ZM551.055 335V335.5H551.555V335H551.055ZM490.995 335H490.495V335.5H490.995V335ZM490.995 229.44V228.94H490.495V229.44H490.995ZM551.055 229.44H551.555V228.94H551.055V229.44ZM551.055 252.18H518.435V253.18H551.055V252.18ZM517.935 252.68V270.32H518.935V252.68H517.935ZM518.435 270.82H549.235V269.82H518.435V270.82ZM548.735 270.32V293.56H549.735V270.32H548.735ZM549.235 293.06H518.435V294.06H549.235V293.06ZM517.935 293.56V311.76H518.935V293.56H517.935ZM518.435 312.26H551.055V311.26H518.435V312.26ZM550.555 311.76V335H551.555V311.76H550.555ZM551.055 334.5H490.995V335.5H551.055V334.5ZM491.495 335V229.44H490.495V335H491.495ZM490.995 229.94H551.055V228.94H490.995V229.94ZM550.555 229.44V252.68H551.555V229.44H550.555Z" fill="url(#paint7_linear)"/>
</g>
</g>
<defs>
<filter id="filter0_b" x="-22.4414" y="216" width="581.083" height="329.5" filterUnits="userSpaceOnUse" color-interpolation-filters="sRGB">
<feFlood flood-opacity="0" result="BackgroundImageFix"/>
<feGaussianBlur in="BackgroundImage" stdDeviation="5"/>
<feComposite in2="SourceAlpha" operator="in" result="effect1_backgroundBlur"/>
<feBlend mode="normal" in="SourceGraphic" in2="effect1_backgroundBlur" result="shape"/>
</filter>
<filter id="filter1_b" x="-10.4414" y="216" width="571.995" height="132.44" filterUnits="userSpaceOnUse" color-interpolation-filters="sRGB">
<feFlood flood-opacity="0" result="BackgroundImageFix"/>
<feGaussianBlur in="BackgroundImage" stdDeviation="5"/>
<feComposite in2="SourceAlpha" operator="in" result="effect1_backgroundBlur"/>
<feBlend mode="normal" in="SourceGraphic" in2="effect1_backgroundBlur" result="shape"/>
</filter>
<linearGradient id="paint0_linear" x1="474" y1="1080" x2="474" y2="6.97006e-06" gradientUnits="userSpaceOnUse">
<stop stop-color="#FCFCFC"/>
<stop offset="0.0666667" stop-color="#FDFDFD"/>
<stop offset="0.133333" stop-color="#FCFCFC"/>
<stop offset="0.2" stop-color="#FDFDFD"/>
<stop offset="0.266667" stop-color="#FCFCFC"/>
<stop offset="0.333333" stop-color="#FAFAFA"/>
<stop offset="0.4" stop-color="#F8F8F8"/>
<stop offset="0.466667" stop-color="#F6F6F6"/>
<stop offset="0.533333" stop-color="#F3F3F3"/>
<stop offset="0.6" stop-color="#F1F1F1"/>
<stop offset="0.666667" stop-color="#EFEFEF"/>
<stop offset="0.733333" stop-color="#EDEDED"/>
<stop offset="0.8" stop-color="#ECECEC"/>
<stop offset="0.866667" stop-color="#EBEBEB"/>
<stop offset="0.933333" stop-color="#EAEAEA"/>
<stop offset="1" stop-color="#EAEAEA"/>
</linearGradient>
<linearGradient id="paint1_linear" x1="474" y1="1080" x2="474" y2="6.97006e-06" gradientUnits="userSpaceOnUse">
<stop stop-color="#FCFCFC"/>
<stop offset="0.0666667" stop-color="#FDFDFD"/>
<stop offset="0.133333" stop-color="#FCFCFC"/>
<stop offset="0.2" stop-color="#FDFDFD"/>
<stop offset="0.266667" stop-color="#FCFCFC"/>
<stop offset="0.333333" stop-color="#FAFAFA"/>
<stop offset="0.4" stop-color="#F8F8F8"/>
<stop offset="0.466667" stop-color="#F6F6F6"/>
<stop offset="0.533333" stop-color="#F3F3F3"/>
<stop offset="0.6" stop-color="#F1F1F1"/>
<stop offset="0.666667" stop-color="#EFEFEF"/>
<stop offset="0.733333" stop-color="#EDEDED"/>
<stop offset="0.8" stop-color="#ECECEC"/>
<stop offset="0.866667" stop-color="#EBEBEB"/>
<stop offset="0.933333" stop-color="#EAEAEA"/>
<stop offset="1" stop-color="#EAEAEA"/>
</linearGradient>
<linearGradient id="paint2_linear" x1="263" y1="126.667" x2="263" y2="580" gradientUnits="userSpaceOnUse">
<stop offset="0.598958" stop-opacity="0.494792"/>
<stop offset="0.619792"/>
<stop offset="1" stop-color="#676767" stop-opacity="0"/>
</linearGradient>
<linearGradient id="paint3_linear" x1="-650.492" y1="-339.048" x2="781.02" y2="-275.333" gradientUnits="userSpaceOnUse">
<stop stop-color="#4D4D4D"/>
<stop offset="1" stop-color="#B8B8B8" stop-opacity="0"/>
</linearGradient>
<linearGradient id="paint4_linear" x1="627.274" y1="550.667" x2="193.612" y2="553.004" gradientUnits="userSpaceOnUse">
<stop stop-color="white" stop-opacity="0.5"/>
<stop offset="1" stop-color="white" stop-opacity="0"/>
</linearGradient>
<linearGradient id="paint5_linear" x1="274.5" y1="153.333" x2="274.5" y2="380" gradientUnits="userSpaceOnUse">
<stop offset="0.598958" stop-opacity="0.494792"/>
<stop offset="0.619792"/>
<stop offset="1" stop-color="#676767" stop-opacity="0"/>
</linearGradient>
<linearGradient id="paint6_linear" x1="-637.395" y1="-79.5242" x2="783.227" y2="46.7152" gradientUnits="userSpaceOnUse">
<stop stop-color="#4D4D4D"/>
<stop offset="1" stop-color="#B8B8B8" stop-opacity="0"/>
</linearGradient>
<linearGradient id="paint7_linear" x1="638.137" y1="365.333" x2="205.271" y2="369.991" gradientUnits="userSpaceOnUse">
<stop stop-color="white" stop-opacity="0.5"/>
<stop offset="1" stop-color="white" stop-opacity="0"/>
</linearGradient>
</defs>
</svg>
