<svg width="30" height="28" viewBox="0 0 30 28" fill="none" xmlns="http://www.w3.org/2000/svg">
<path d="M16.3271 0C10.503 0 5.45472 3.74385 3.5032 9.13376C3.29789 9.70077 3.12984 10.2773 2.99882 10.8616H1.17193C0.698022 10.8616 0.270756 11.1537 0.0892916 11.6018C-0.0921147 12.0498 0.00802207 12.5656 0.343003 12.9086L3.34221 15.9133C3.80076 16.383 4.5493 16.3749 5 15.9133L8.24629 12.9086C8.58127 12.5656 8.68141 12.0498 8.5 11.6018C8.31853 11.1537 7.89133 10.8616 7.41736 10.8616H5.41341C6.72802 6.03541 11.0863 2.39853 16.3271 2.39853C22.5741 2.39853 27.6562 7.60293 27.6562 14C27.6562 20.3971 22.5741 25.6015 16.3271 25.6015C14.4733 25.6015 12.6347 25.1333 11.0104 24.2475C10.4393 23.936 9.72949 24.1573 9.42509 24.7419C9.1207 25.3264 9.33703 26.0527 9.9082 26.3642C11.8706 27.4343 14.0902 28 16.3271 28C19.9794 28 23.4131 26.5437 25.9956 23.8992C28.5779 21.2551 30 17.7394 30 14C30 6.26564 23.8886 0 16.3271 0Z" fill="#191818"/>
</svg>
