<svg width="22" height="22" viewBox="0 0 22 22" fill="none" xmlns="http://www.w3.org/2000/svg">
<path d="M20.7955 9.28139H20.7968H12.7187V1.21842C12.7187 0.554834 12.1814 0 11.5178 0H10.4842C9.82076 0 9.28114 0.554834 9.28114 1.21842V9.28139H1.2032C0.539984 9.28139 0 9.81798 0 10.4817V11.5213C0 12.1845 0.539805 12.7188 1.2032 12.7188H9.28132V20.8109C9.28132 21.4741 9.82076 22 10.4843 22H11.518C12.1816 22 12.7189 21.474 12.7189 20.8109V12.7188H20.7955C21.4591 12.7188 22 12.1843 22 11.5213V10.4817C22 9.81798 21.4591 9.28139 20.7955 9.28139Z" fill="#191818"/>
</svg>
