<svg id="Слой_1" data-name="Слой 1" xmlns="http://www.w3.org/2000/svg" xmlns:xlink="http://www.w3.org/1999/xlink" viewBox="0 0 134.22 114.63"><defs><style>.cls-1{fill:none;stroke:#ba8a50;stroke-miterlimit:10;stroke-width:0.5px;}.cls-2{fill:url(#radial-gradient);}</style><radialGradient id="radial-gradient" cx="4348.57" cy="958.74" r="117.93" gradientTransform="translate(2009.8 -3931.74) rotate(102.73)" gradientUnits="userSpaceOnUse"><stop offset="0.18" stop-color="#fff"/><stop offset="0.35" stop-color="#fdfdfc"/><stop offset="0.47" stop-color="#f7f6f3"/><stop offset="0.58" stop-color="#edeae2"/><stop offset="0.68" stop-color="#dfd9cc"/><stop offset="0.76" stop-color="#d0c7b4"/><stop offset="0.83" stop-color="#cec8b8"/><stop offset="0.89" stop-color="#c8ccc3"/><stop offset="0.95" stop-color="#bed3d5"/><stop offset="1" stop-color="#b4dae9"/></radialGradient></defs><title>Безымянный-2</title><path class="cls-1" d="M120.93,48.62c13.38,18.8,17.21,38.73,8,52.08C114.84,121,75.77,118.39,41.64,94.78S-8.76,35.55,5.31,15.21C14.57,1.83,34.65-1.6,57,4.34"/><path class="cls-1" d="M121.43,53C132,69.83,134.59,87.1,126.39,99c-13.5,19.51-51,17-83.71-5.68S-5.66,36.46,7.83,17C16,5.1,33.09,1.39,52.55,5.38"/><path class="cls-1" d="M121.65,57.08c8.23,14.91,9.72,29.82,2.47,40.31-13,18.76-49,16.31-80.51-5.46s-46.48-54.64-33.5-73.4C17.36,8,31.82,4.18,48.67,6.62"/><path class="cls-1" d="M121.55,61.31c6,12.86,6.52,25.39.24,34.47-12.45,18-47,15.65-77.22-5.24S0,38.13,12.43,20.13c6.28-9.07,18.19-13,32.32-11.93"/><path class="cls-1" d="M121.06,66c3.76,10.56,3.48,20.59-1.74,28.12-11.88,17.19-44.9,15-73.73-5S3,39,14.9,21.84c5.2-7.52,14.44-11.32,25.61-11.54"/><path class="cls-1" d="M120.24,70.26c2,8.4,1.18,16.22-3,22.34-11.4,16.48-43.06,14.33-70.72-4.8S5.63,39.8,17,23.31c4.23-6.11,11.25-9.66,19.82-10.73"/><path class="cls-1" d="M119.05,74.61c.64,6.23-.53,12-3.78,16.66-11,15.85-41.41,13.79-68-4.61S8,40.49,19,24.64c3.24-4.69,8.2-7.82,14.26-9.41"/><path class="cls-1" d="M116.9,80.24a21.3,21.3,0,0,1-3.59,9.67c-10.52,15.21-39.73,13.23-65.24-4.42S10.4,41.21,20.91,26a21.32,21.32,0,0,1,7.74-6.75"/><path class="cls-2" d="M86.72,109.06a55.8,55.8,0,1,1,36.6-69.9A55.79,55.79,0,0,1,86.72,109.06Z"/><path class="cls-1" d="M126,104.25c-16,16.38-52.36,12.66-84.35-9.47C7.51,71.17-8.76,35.55,5.31,15.21a27.55,27.55,0,0,1,4.55-5.08"/><path class="cls-1" d="M124.05,101.87c-15.11,16.27-50.37,12.86-81.37-8.59C9.94,70.64-5.66,36.46,7.83,17a26.43,26.43,0,0,1,4.35-4.85"/><path class="cls-1" d="M121.42,100.66c-14.77,15.11-48.29,11.68-77.81-8.73C12.13,70.15-2.87,37.29,10.11,18.53a24.26,24.26,0,0,1,3.5-4.06"/><path class="cls-1" d="M119.2,98.91c-14.16,14.5-46.32,11.21-74.63-8.37C14.37,69.65,0,38.13,12.43,20.13A25.62,25.62,0,0,1,15,17"/><path class="cls-1" d="M116.3,97.61c-13.8,13.21-44,9.91-70.71-8.54C16.75,69.12,3,39,14.9,21.84a25,25,0,0,1,1.91-2.41"/><path class="cls-1" d="M114,96.28c-13.37,12.33-42.13,9.08-67.52-8.48C18.81,68.67,5.63,39.8,17,23.31a24.93,24.93,0,0,1,1.54-2"/><path class="cls-1" d="M111.89,95.09c-13,11.53-40.4,8.33-64.63-8.43C20.66,68.26,8,40.49,19,24.64c.32-.47.66-.93,1-1.36"/></svg>