<svg id="Layer_1" data-name="Layer 1" xmlns="http://www.w3.org/2000/svg" xmlns:xlink="http://www.w3.org/1999/xlink" viewBox="0 0 54.29 44.86"><defs><style>.cls-1{fill:none;stroke:#ba8a50;stroke-miterlimit:10;stroke-width:0.5px;}.cls-2{fill:url(#radial-gradient);}</style><radialGradient id="radial-gradient" cx="355.55" cy="-213.87" r="47.4" gradientTransform="matrix(-1, 0, 0, -1, 370.24, -169.49)" gradientUnits="userSpaceOnUse"><stop offset="0.18" stop-color="#d48428"/><stop offset="0.36" stop-color="#d58128"/><stop offset="0.49" stop-color="#d77828"/><stop offset="0.61" stop-color="#db6727"/><stop offset="0.72" stop-color="#e15126"/><stop offset="0.76" stop-color="#e44526"/><stop offset="0.8" stop-color="#e04529"/><stop offset="0.84" stop-color="#d54432"/><stop offset="0.87" stop-color="#c34341"/><stop offset="0.91" stop-color="#a84256"/><stop offset="0.94" stop-color="#874071"/><stop offset="0.96" stop-color="#6b3f88"/></radialGradient></defs><title>planet-small-item-dark</title><path class="cls-1" d="M16.74,34.59C8.37,33.73,2,30,.55,24.24-1.64,15.48,8.49,5.41,23.18,1.74s28.37.45,30.56,9.2C55.18,16.7,51.29,23,44.27,27.73"/><path class="cls-1" d="M14.25,32.75c-6.07-1.34-10.51-4.51-11.64-9C.59,15.64,9.94,6.35,23.49,3s26.17.41,28.19,8.49c1.13,4.51-1.3,9.4-6,13.44"/><path class="cls-1" d="M12,30.45c-3.8-1.51-6.48-4-7.29-7.25C2.82,15.81,11.39,7.3,23.8,4.2s24,.38,25.82,7.77c.81,3.24-.38,6.69-3,9.8"/><path class="cls-1" d="M10.07,27.81a8.81,8.81,0,0,1-3.65-5C4.71,16,12.61,8.1,24.06,5.23s22.11.36,23.81,7.18A8.82,8.82,0,0,1,47,18.58"/><path class="cls-2" d="M8.07,33.67a22.43,22.43,0,1,1,30.64,8.16A22.43,22.43,0,0,1,8.07,33.67Z"/><path class="cls-1" d="M.28,22.58c-.64-8.33,9.13-17.4,22.9-20.84,14.69-3.67,28.37.45,30.56,9.2a9.88,9.88,0,0,1,.3,2.47"/><path class="cls-1" d="M2.36,22.19C1.78,14.51,10.79,6.14,23.49,3,37-.42,49.66,3.38,51.68,11.46A9.07,9.07,0,0,1,52,13.39"/><path class="cls-1" d="M4.43,21.52c-.3-7,7.89-14.46,19.37-17.32,12.41-3.1,24,.38,25.82,7.77a10.78,10.78,0,0,1,.2,1.11"/></svg>