<svg width="254" height="22" viewBox="0 0 254 22" fill="none" xmlns="http://www.w3.org/2000/svg">
<path d="M244.475 0.743568H245.943V4.83321H246.789V0.743568H248.25V0H244.475V0.743568Z" fill="#575756"/>
<path d="M251.667 4.83321L253.154 1.17305V4.83321H254V0H252.801L251.487 3.25632L250.173 0H248.974V4.83321H249.827V1.17305L251.308 4.83321H251.667Z" fill="#575756"/>
<path d="M9.43566 18.0316H10.019C9.41643 20.0956 7.91006 21.1277 5.49986 21.1277C3.94862 21.1277 2.64096 20.602 1.58329 19.5444C0.532038 18.4931 0 17.0957 0 15.3586C0 13.5766 0.570498 12.1343 1.71149 11.0254C2.85249 9.91642 4.20502 9.36515 5.76267 9.36515C6.69855 9.36515 7.56391 9.57027 8.35235 9.98052C9.14079 10.3908 9.53181 10.8972 9.53181 11.4869C9.53181 11.7112 9.4613 11.9164 9.31387 12.1087C9.16644 12.301 8.9549 12.4035 8.67927 12.4035C8.09595 12.4035 7.73698 12.0638 7.60237 11.3779C7.4934 10.8651 7.33315 10.5061 7.1088 10.301C6.87803 10.0959 6.42933 9.99334 5.76908 9.99334C4.58322 9.99334 3.69221 10.4036 3.08966 11.2305C2.49353 12.051 2.19225 13.2945 2.19225 14.9483C2.19225 16.6598 2.51276 17.9995 3.15377 18.9611C3.79478 19.929 4.76911 20.4097 6.07036 20.4097C7.83954 20.4226 8.96131 19.6277 9.43566 18.0316Z" fill="#575756"/>
<path d="M18.3008 16.9547V2.4166H17.9995C17.7303 2.53839 17.2239 2.6666 16.4932 2.78839C15.7624 2.91018 15.1278 2.97428 14.5894 2.97428V3.58324C15.3778 3.58324 15.8714 3.73708 16.0765 4.03194C16.2816 4.32681 16.3842 5.05116 16.3842 6.19215V16.9483C16.3842 18.2111 16.365 18.9739 16.3201 19.2367C16.2752 19.5059 16.1406 19.711 15.9163 19.8585C15.6919 20.0059 15.3137 20.0764 14.7817 20.0764H14.4099V20.6854H20.2303V20.0764H19.9098C19.3393 20.0764 18.9482 19.9995 18.7239 19.8392C18.4995 19.679 18.3777 19.4482 18.3457 19.1469C18.3136 18.8457 18.3008 18.1149 18.3008 16.9547Z" fill="#575756"/>
<path d="M35.2876 9.80744V16.9483C35.2876 18.1342 35.3068 18.8777 35.3389 19.179C35.3709 19.4803 35.5055 19.7046 35.7299 19.8585C35.9542 20.0059 36.3645 20.0828 36.9478 20.0828V20.6918C35.6017 20.711 34.6145 20.852 33.9991 21.1148H33.8389C33.5568 20.6277 33.403 19.788 33.3838 18.5893C32.8453 19.429 32.2235 20.0636 31.5313 20.4867C30.8326 20.9097 30.0698 21.1277 29.2236 21.1277C28.4993 21.1277 27.8519 20.961 27.2942 20.6277C26.7365 20.2944 26.3519 19.8905 26.1468 19.4098C25.9417 18.929 25.8327 18.2111 25.8327 17.2431V13.5317C25.8327 12.2753 25.8134 11.5061 25.7686 11.2241C25.7237 10.9484 25.5827 10.7369 25.3519 10.6087C25.1147 10.4741 24.6853 10.41 24.0571 10.41V9.80744H27.7493V17.3585C27.7493 18.1021 27.7942 18.647 27.8839 18.9803C27.9737 19.3136 28.198 19.6085 28.5634 19.8649C28.9288 20.1149 29.3454 20.2431 29.8262 20.2431C30.5056 20.2431 31.1595 20.0187 31.7812 19.57C32.403 19.1213 32.8261 18.647 33.0504 18.147C33.2748 17.647 33.3902 16.9291 33.3902 15.9996V13.5381C33.3902 12.3522 33.3774 11.6279 33.3517 11.3715C33.3261 11.1151 33.2107 10.8907 33.012 10.6984C32.8133 10.5061 32.3966 10.41 31.7684 10.41H31.4928V9.80744H35.2876Z" fill="#575756"/>
<path fill-rule="evenodd" clip-rule="evenodd" d="M42.6079 21.1277H43.1271C43.4797 20.3649 43.9476 19.6982 44.5245 19.1213C44.9284 19.7815 45.4348 20.2879 46.0437 20.6213C46.6527 20.961 47.3578 21.1277 48.1655 21.1277C49.8064 21.1277 51.1397 20.5636 52.1654 19.429C53.191 18.2944 53.7038 16.8714 53.7038 15.1727C53.7038 13.4804 53.2038 12.0894 52.2038 10.9997C51.2038 9.91 49.9218 9.36514 48.3513 9.36514C47.6911 9.36514 47.0437 9.49976 46.4091 9.77539C45.7681 10.051 45.1399 10.4677 44.5181 11.0254V2.4166H44.2425C43.9797 2.53839 43.4797 2.6666 42.7425 2.78839C42.0118 2.91018 41.3836 2.97428 40.8579 2.97428V3.58965C41.4413 3.58965 41.8515 3.66016 42.0887 3.814C42.3195 3.96784 42.4669 4.19861 42.5246 4.50629C42.5823 4.81398 42.6079 5.49986 42.6079 6.56393V21.1277ZM44.5245 16.0765V11.8138C45.0886 11.2305 45.6655 10.7882 46.2488 10.5061C46.8322 10.2241 47.4219 10.0767 48.0244 10.0767C49.0757 10.0767 49.9218 10.4997 50.5564 11.3459C51.191 12.1856 51.5051 13.4227 51.5051 15.0445C51.5051 16.8073 51.1654 18.1598 50.4859 19.0957C49.8064 20.038 48.8962 20.5059 47.7552 20.5059C47.0116 20.5059 46.3578 20.2815 45.8001 19.8392C45.2424 19.3969 44.8899 18.929 44.7425 18.4482C44.595 17.9675 44.5245 17.1726 44.5245 16.0765Z" fill="#575756"/>
<path d="M83.4594 20.6918H74.4212V19.4675C75.2032 19.4675 75.7737 19.3905 76.1327 19.2367C76.4981 19.0828 76.7352 18.8585 76.8442 18.5572C76.9532 18.2624 77.0109 17.8521 77.0109 17.3393V6.04472L70.2034 20.6918H69.3893L62.4984 6.04472V16.7688C62.4984 17.3329 62.5177 17.7688 62.5561 18.0701C62.5946 18.3713 62.6971 18.6277 62.8638 18.8393C63.0305 19.0508 63.2869 19.2111 63.6394 19.3136C63.992 19.4162 64.4856 19.4675 65.1137 19.4675V20.6918H58.4472V19.4675C59.0818 19.4675 59.5818 19.4162 59.928 19.3072C60.2805 19.1982 60.5305 19.038 60.6908 18.8264C60.851 18.6149 60.9472 18.3585 60.9856 18.0636C61.0177 17.7688 61.0369 17.3329 61.0369 16.7688V6.56393C61.0369 5.80113 60.9985 5.25627 60.9151 4.91654C60.8318 4.57681 60.6139 4.32681 60.2549 4.15374C59.8959 3.98067 59.2934 3.89733 58.4408 3.89733V2.6666H65.0368L71.0174 15.3842L77.0109 2.6666H83.4594V3.89092C82.3505 3.89092 81.639 4.05118 81.312 4.37809C80.9915 4.69859 80.8249 5.24986 80.8249 6.01907V17.3457C80.8249 17.8329 80.8762 18.2303 80.9851 18.5316C81.0941 18.8329 81.3377 19.0636 81.7223 19.2303C82.1069 19.3969 82.6838 19.4739 83.4594 19.4739V20.6918Z" fill="#575756"/>
<path fill-rule="evenodd" clip-rule="evenodd" d="M98.2539 20.6918H106.754V19.461C106.158 19.461 105.696 19.3649 105.369 19.1726C105.042 18.9867 104.786 18.7111 104.6 18.3649C104.414 18.0188 104.119 17.3457 103.722 16.3521L98.2347 2.31404H96.9719L91.7733 15.9227C91.4079 16.8714 91.0682 17.6021 90.7541 18.1213C90.44 18.6406 90.1131 18.9931 89.767 19.179C89.4208 19.3649 88.9978 19.461 88.5042 19.461V20.6854H94.7091V19.461C94.1579 19.461 93.6771 19.3969 93.2669 19.2495C92.8566 19.1021 92.6515 18.7688 92.6515 18.2367C92.6515 17.9419 92.7733 17.4675 93.0233 16.8137L93.4592 15.647H99.3052L100.158 17.7752C100.267 18.0508 100.318 18.3201 100.318 18.5893C100.318 18.9675 100.151 19.2111 99.8244 19.3136C99.4911 19.4162 98.9719 19.4675 98.2539 19.4675V20.6918ZM96.3437 8.0639L98.8308 14.3522H93.9784L96.3437 8.0639Z" fill="#575756"/>
<path fill-rule="evenodd" clip-rule="evenodd" d="M131.253 20.6918H126.439C126.26 20.4995 126.042 20.211 125.779 19.8392C125.516 19.4675 125.234 19.0316 124.92 18.5316C124.612 18.0316 124.356 17.6149 124.151 17.288L122.926 15.2688C122.375 14.365 121.965 13.7497 121.683 13.4163C121.407 13.083 121.087 12.8715 120.728 12.7753C120.369 12.6856 119.76 12.6343 118.901 12.6343H118.221V17.3393C118.221 17.8329 118.273 18.2367 118.382 18.538C118.491 18.8393 118.741 19.07 119.132 19.2303C119.529 19.3905 120.1 19.4675 120.85 19.4675V20.6918H111.811V19.4675C112.907 19.4675 113.619 19.3072 113.933 18.9867C114.247 18.6662 114.407 18.1213 114.407 17.3393V5.96139C114.407 5.19218 114.254 4.64091 113.946 4.3204C113.638 3.99349 112.927 3.83324 111.811 3.83324V2.58968L115.984 2.45506C116.305 2.43584 116.67 2.42302 117.08 2.4166L117.159 2.41537C117.54 2.4094 117.898 2.40379 118.228 2.40379C118.503 2.40379 118.959 2.41019 119.6 2.42943C120.497 2.45506 121.33 2.51276 122.112 2.58968C122.894 2.6666 123.51 2.76916 123.958 2.89736C124.625 3.06403 125.253 3.34607 125.849 3.73067C126.446 4.12169 126.933 4.6345 127.311 5.27551C127.689 5.91011 127.875 6.65368 127.875 7.4934C127.875 8.09595 127.747 8.67927 127.484 9.24977C127.221 9.82027 126.798 10.3203 126.221 10.7626C125.638 11.2048 124.875 11.5574 123.926 11.8138C124.574 12.192 125.125 12.6664 125.574 13.2304C126.022 13.7945 126.734 14.8266 127.702 16.3329C128.26 17.1919 128.721 17.8393 129.087 18.2816C129.452 18.7175 129.785 19.0188 130.093 19.1726C130.401 19.3264 130.785 19.429 131.253 19.4739V20.6918ZM123.798 7.46776C123.798 6.0319 123.362 5.0768 122.491 4.60886C121.619 4.14092 120.478 3.90375 119.068 3.90375C118.875 3.90375 118.721 3.90375 118.612 3.91016C118.503 3.91656 118.375 3.91656 118.234 3.91656V11.16H119.074C120.414 11.16 121.535 10.942 122.446 10.5061C123.356 10.0703 123.798 9.06387 123.798 7.46776Z" fill="#575756"/>
<path fill-rule="evenodd" clip-rule="evenodd" d="M150.842 20.6918H155.656V19.4739C155.188 19.429 154.804 19.3264 154.496 19.1726C154.188 19.0188 153.855 18.7175 153.49 18.2816C153.124 17.8393 152.663 17.1919 152.105 16.3329C151.137 14.8266 150.426 13.7945 149.977 13.2304C149.528 12.6664 148.977 12.192 148.33 11.8138C149.278 11.5574 150.041 11.2048 150.624 10.7626C151.208 10.3203 151.624 9.82027 151.887 9.24977C152.15 8.67927 152.278 8.09595 152.278 7.4934C152.278 6.65368 152.092 5.91011 151.714 5.27551C151.336 4.6345 150.849 4.12169 150.253 3.73067C149.656 3.34607 149.028 3.06403 148.362 2.89736C147.913 2.76916 147.298 2.6666 146.516 2.58968C145.734 2.51276 144.9 2.45506 144.003 2.42943C143.362 2.41019 142.907 2.40379 142.631 2.40379C142.301 2.40379 141.943 2.4094 141.562 2.41537L141.484 2.4166C141.073 2.42302 140.708 2.43584 140.387 2.45506L136.215 2.58968V3.83324C137.33 3.83324 138.041 3.99349 138.349 4.3204C138.657 4.64091 138.811 5.19218 138.811 5.96139V17.3393C138.811 18.1213 138.65 18.6662 138.336 18.9867C138.022 19.3072 137.311 19.4675 136.215 19.4675V20.6918H145.253V19.4675C144.503 19.4675 143.932 19.3905 143.535 19.2303C143.144 19.07 142.894 18.8393 142.785 18.538C142.676 18.2367 142.625 17.8329 142.625 17.3393V12.6343H143.304C144.163 12.6343 144.772 12.6856 145.131 12.7753C145.49 12.8715 145.804 13.083 146.086 13.4163C146.368 13.7497 146.778 14.365 147.33 15.2688L148.554 17.288C148.759 17.6149 149.015 18.0316 149.323 18.5316C149.637 19.0316 149.919 19.4675 150.182 19.8392C150.445 20.211 150.663 20.4995 150.842 20.6918ZM146.894 4.60886C147.766 5.0768 148.201 6.0319 148.201 7.46776C148.201 9.06387 147.759 10.0703 146.849 10.5061C145.939 10.942 144.817 11.16 143.477 11.16H142.637V3.91656C142.778 3.91656 142.907 3.91656 143.016 3.91016C143.125 3.90375 143.278 3.90375 143.471 3.90375C144.881 3.90375 146.022 4.14092 146.894 4.60886Z" fill="#575756"/>
<path d="M169.675 20.6918H160.528V19.4675C161.291 19.4675 161.868 19.3969 162.259 19.2495C162.65 19.1021 162.906 18.8841 163.022 18.5893C163.143 18.2944 163.201 17.8777 163.201 17.3393V6.01907C163.201 5.23705 163.041 4.69218 162.714 4.37168C162.387 4.05118 161.663 3.89092 160.528 3.89092V2.6666H169.675V3.89092C168.912 3.89092 168.335 3.96784 167.944 4.11528C167.56 4.26912 167.303 4.48706 167.182 4.77552C167.06 5.06397 167.002 5.48063 167.002 6.01907V17.3457C167.002 17.8585 167.06 18.2624 167.175 18.5572C167.291 18.8521 167.534 19.0764 167.912 19.2367C168.291 19.3969 168.874 19.4739 169.675 19.4739V20.6918Z" fill="#575756"/>
<path fill-rule="evenodd" clip-rule="evenodd" d="M193.418 16.2881C194.2 14.8522 194.591 13.3202 194.591 11.6792C194.591 10.7305 194.431 9.73053 194.098 8.68568C193.771 7.63443 193.232 6.62804 192.482 5.67294C191.732 4.71783 190.681 3.92298 189.335 3.29479C187.989 2.6666 186.354 2.35251 184.431 2.35251C182.322 2.35251 180.508 2.7884 178.995 3.66017C177.483 4.53194 176.342 5.67935 175.592 7.1088C174.842 8.53184 174.464 10.051 174.464 11.6536C174.464 12.7625 174.656 13.865 175.053 14.9612C175.444 16.0637 176.053 17.0701 176.874 17.9931C177.694 18.9162 178.752 19.6469 180.047 20.1982C181.342 20.7495 182.842 21.0251 184.54 21.0251C186.624 21.0251 188.425 20.5956 189.957 19.7303C191.482 18.8649 192.636 17.7175 193.418 16.2881ZM190.027 8.7562C190.2 9.66002 190.284 10.6151 190.284 11.6279C190.284 12.333 190.239 13.083 190.143 13.8715C190.046 14.6599 189.816 15.4868 189.45 16.3522C189.079 17.2175 188.495 17.9483 187.694 18.5444C186.893 19.1405 185.848 19.4418 184.566 19.4418C183.277 19.4418 182.22 19.1534 181.406 18.5701C180.592 17.9867 179.995 17.2752 179.624 16.4291C179.252 15.5829 179.015 14.756 178.919 13.9484C178.822 13.1407 178.771 12.3651 178.771 11.6215C178.771 10.269 178.925 9.03183 179.233 7.89083C179.54 6.74983 180.124 5.80114 180.976 5.04475C181.835 4.28836 183.021 3.91016 184.547 3.91016C185.649 3.91016 186.585 4.12811 187.335 4.55758C188.091 4.98706 188.681 5.57037 189.117 6.30112C189.553 7.03829 189.854 7.85237 190.027 8.7562Z" fill="#575756"/>
<path d="M217.591 7.78185H216.328C216.212 6.6665 215.969 5.83959 215.591 5.30756C215.213 4.77551 214.809 4.4486 214.373 4.32681C213.937 4.20502 213.437 4.14091 212.873 4.14091H210.584V17.3393C210.584 17.8649 210.636 18.2688 210.745 18.5572C210.854 18.8457 211.097 19.07 211.488 19.2303C211.879 19.3905 212.45 19.4675 213.2 19.4675V20.6918H204.162V19.4675C205.27 19.4675 205.982 19.3072 206.302 18.9867C206.623 18.6662 206.783 18.1149 206.783 17.3393V4.14091H204.867C204.117 4.14091 203.488 4.19861 202.995 4.3204C202.495 4.44219 202.059 4.7691 201.687 5.30115C201.309 5.83959 201.097 6.6665 201.04 7.78185H199.777V2.6666H217.591V7.78185Z" fill="#575756"/>
<path d="M239.443 7.78185H240.705V2.6666H222.892V7.78185H224.155C224.212 6.6665 224.424 5.83959 224.802 5.30115C225.174 4.7691 225.61 4.44219 226.11 4.3204C226.603 4.19861 227.231 4.14091 227.981 4.14091H229.898V17.3393C229.898 18.1149 229.738 18.6662 229.417 18.9867C229.097 19.3072 228.385 19.4675 227.276 19.4675V20.6918H236.315V19.4675C235.565 19.4675 234.994 19.3905 234.603 19.2303C234.212 19.07 233.968 18.8457 233.859 18.5572C233.75 18.2688 233.699 17.8649 233.699 17.3393V4.14091H235.988C236.552 4.14091 237.052 4.20502 237.488 4.32681C237.923 4.4486 238.327 4.77551 238.706 5.30756C239.084 5.83959 239.327 6.6665 239.443 7.78185Z" fill="#575756"/>
</svg>
