<?xml version="1.0" encoding="UTF-8"?>
<!DOCTYPE svg PUBLIC "-//W3C//DTD SVG 1.1//EN" "http://www.w3.org/Graphics/SVG/1.1/DTD/svg11.dtd">
<!-- Creator: CorelDRAW X6 -->
<svg xmlns="http://www.w3.org/2000/svg" xml:space="preserve" width="24.7226mm" height="5.2492mm" version="1.1" style="shape-rendering:geometricPrecision; text-rendering:geometricPrecision; image-rendering:optimizeQuality; fill-rule:evenodd; clip-rule:evenodd"
viewBox="0 0 2472 525"
 xmlns:xlink="http://www.w3.org/1999/xlink">
 <defs>
  <style type="text/css">
   <![CDATA[
    .fil0 {fill:#FEFEFE}
   ]]>
  </style>
 </defs>
 <g id="Слой_x0020_1">
  <metadata id="CorelCorpID_0Corel-Layer"/>
  <path class="fil0" d="M259 175c32,-34 95,-37 126,1 30,36 21,106 -23,151 -27,28 -54,45 -73,56 -17,8 -23,12 -30,12 -7,0 -14,-4 -31,-12 -19,-11 -46,-28 -73,-56 -45,-45 -53,-117 -22,-152 32,-37 94,-33 125,0l0 0 0 0 1 0 0 0 0 0 0 0zm1644 6l-19 58 -18 1 -10 29 18 1c-2,8 -16,61 -18,64 -3,2 -42,35 -52,29 -10,-4 -7,-22 -5,-30 6,-24 23,-78 24,-93 -9,1 -36,1 -42,6 -8,7 -18,84 -30,96 -6,7 -13,13 -24,19 -51,26 -9,-62 -1,-112l-44 4c-3,6 -14,50 -16,61 -5,20 -14,42 -8,64 10,49 78,11 93,-15 4,6 0,22 14,32 33,27 79,-32 90,-37 3,8 9,51 48,44 19,-5 47,-24 60,-32 6,9 1,16 13,27 9,8 22,6 34,2 26,-7 39,-22 53,-30 3,28 16,39 45,30 11,-2 20,-7 27,-12 20,-12 47,-39 62,-57 3,-3 6,-7 9,-11 22,-27 2,-8 36,-25 -1,6 -15,30 -22,48 -18,45 6,79 55,47 9,-5 34,-24 39,-31 6,11 8,23 25,34 50,31 111,-22 116,-43 -2,-3 -2,-3 -4,-5 -10,1 -10,6 -22,14 -7,5 -16,10 -26,11 -23,3 -35,-15 -38,-36 18,-8 15,0 42,-17 67,-41 25,-97 -30,-74 -34,13 -57,51 -62,88 -2,14 -4,15 -12,20 -12,8 -29,16 -47,12 -13,-20 34,-100 35,-125l-15 0c-7,15 -20,30 -33,40 -2,2 -5,4 -8,5 -1,0 -2,1 -4,1 -15,-1 4,-28 0,-40 -4,-17 -46,-4 -49,31 -3,24 10,26 16,31l-52 54c-6,4 -14,14 -24,13 -20,-20 26,-111 31,-136l-54 7c0,0 -1,1 -1,2l-21 64c-11,32 -5,31 -38,54 -9,7 -24,9 -27,-7 -1,-9 5,-32 7,-40 7,-23 16,-49 21,-73l-47 5 -29 91c-3,4 -17,14 -23,18 -34,19 -40,-7 -35,-28 2,-9 16,-53 19,-59 30,0 23,3 35,-16 4,-5 8,-11 10,-17l-34 0 20 -60 -53 4 0 0zm-619 113c0,2 -2,2 -3,2 -9,0 -1,-14 -1,-14 4,-7 13,-20 22,-33 11,-17 27,-33 54,-29 15,2 24,14 25,27 2,30 -37,38 -40,11 -3,-29 -21,-10 -15,3 1,8 18,19 35,56 17,37 1,82 -53,82 -23,0 -47,-7 -47,-36 1,-34 47,-50 60,-27 5,10 2,20 -7,23 -15,4 -16,-14 -20,-14l0 0 0 0c0,0 -4,6 -1,14 4,8 15,14 30,8 15,-6 15,-28 4,-50 -9,-19 -22,-37 -26,-39l-17 16 0 0 0 0zm-113 51c0,0 -4,6 -1,14 5,8 15,14 30,8 15,-7 15,-29 5,-50 -10,-20 -23,-38 -27,-40 -6,2 -45,57 -53,66 -13,18 -40,51 -61,55 -34,7 -40,-29 -41,-36 -9,7 -15,13 -25,20 -35,23 -73,25 -89,-14 -9,-23 -8,-54 -4,-80 4,-24 17,-69 18,-73 -10,1 -14,16 -18,25 -10,27 -48,127 -61,141 -5,6 -17,12 -26,15 -10,3 -25,8 -33,1 -5,-10 9,-3 10,-40 0,-22 1,-137 -2,-143 -6,2 -4,2 -6,9 -2,4 -3,7 -4,11 -13,45 -15,87 -47,132 -4,7 -7,10 -12,16 -21,20 -67,26 -86,3 -21,-25 -13,-72 27,-69 20,2 25,15 26,35 0,10 7,15 17,9 25,-15 34,-80 40,-108 7,-37 22,-101 55,-121 11,-7 39,-10 50,-4 3,16 -10,10 -12,44 -2,27 0,135 0,165 4,-8 9,-22 14,-32 19,-47 49,-119 78,-156 15,-20 24,-23 48,-23 31,0 23,1 14,28 -10,28 -17,51 -25,82 -7,30 -24,92 -8,120 11,20 37,1 47,-7 21,-18 17,-15 26,-45 7,-20 15,-66 33,-66 9,-1 24,-1 33,0 1,15 -36,92 -30,113 3,13 18,7 26,2 28,-16 61,-73 82,-103 12,-18 27,-33 55,-29 14,2 23,14 24,27 2,29 -37,37 -40,11 -2,-30 -21,-10 -15,2 1,8 18,20 35,56 17,38 1,83 -52,83 -24,0 -48,-8 -47,-37 0,-34 46,-50 59,-26 5,9 2,20 -7,22 -14,4 -16,-13 -20,-13l0 0 0 0 0 0zm-107 -129c11,3 40,3 46,-4 5,-5 15,-34 13,-39 -9,-5 -39,-1 -46,4 -6,5 -15,30 -13,39zm660 -93c-12,5 -21,11 -36,16 -30,9 -123,0 -153,5 -80,13 -71,128 -27,114 15,-4 17,-22 6,-32 -5,-5 -23,-17 -11,-34 8,-11 25,-11 42,-11 29,0 143,3 155,-2 14,-5 19,-13 26,-27 2,-6 6,-12 8,-17 3,-8 -1,-15 -10,-12l0 0zm-216 189c0,0 0,3 9,1 3,-1 6,-1 9,-2 6,-2 12,-4 18,-4 6,69 -46,87 -58,64 -10,-19 10,-67 -34,-25 -45,46 68,91 116,20 12,-18 21,-41 24,-67 9,-5 34,-5 40,-9 5,-3 13,-28 14,-36l-53 11c-2,-67 16,-58 16,-72 -13,-6 -35,5 -41,11 -15,15 -20,42 -22,64 -1,13 -3,9 -14,15 -6,4 -31,20 -24,29l0 0zm855 7c11,-3 29,-16 35,-22 6,-7 20,-30 9,-42 -13,-13 -31,7 -35,15 -7,12 -9,32 -9,49zm-2197 -282l186 0c72,0 132,60 132,133l0 185c0,73 -60,133 -132,133l-186 0c-73,0 -133,-60 -133,-133l0 -185c0,-73 60,-133 133,-133zm-7 -16l199 0c78,0 142,64 142,142l0 199c0,78 -64,142 -142,142l-199 0c-78,0 -142,-64 -142,-142l0 -199c0,-78 64,-142 142,-142zm203 221c1,21 -6,44 -25,63 -21,21 -41,34 -56,42 -23,12 -20,13 -42,1 -16,-7 -37,-20 -59,-43 -19,-19 -26,-43 -25,-65 2,-60 57,-75 98,-39 -14,16 -22,36 -21,51 2,36 53,36 55,0 1,-15 -6,-35 -20,-51 41,-37 94,-19 95,41zm-210 -49c-24,30 -17,88 20,126 23,23 45,38 61,46 14,7 20,11 25,10l0 0 1 0 0 0 0 0c6,1 11,-3 25,-10 16,-8 39,-23 62,-46 35,-37 43,-92 22,-123 -24,-35 -79,-29 -108,-2 -29,-26 -83,-33 -108,-1zm91 60c-1,-8 0,-18 7,-31 3,-5 6,-10 10,-14 3,4 7,9 9,14 7,13 9,23 7,31 -4,24 -29,24 -33,0z"/>
 </g>
</svg>
