<?xml version="1.0" encoding="UTF-8"?>
<!DOCTYPE svg PUBLIC "-//W3C//DTD SVG 1.1//EN" "http://www.w3.org/Graphics/SVG/1.1/DTD/svg11.dtd">
<!-- Creator: CorelDRAW X6 -->
<svg xmlns="http://www.w3.org/2000/svg" xml:space="preserve" width="8.4666mm" height="8.4666mm" version="1.1" style="shape-rendering:geometricPrecision; text-rendering:geometricPrecision; image-rendering:optimizeQuality; fill-rule:evenodd; clip-rule:evenodd"
viewBox="0 0 847 847"
 xmlns:xlink="http://www.w3.org/1999/xlink">
 <defs>
  <style type="text/css">
   <![CDATA[
    .fil0 {fill:#D9DADA}
    .fil1 {fill:#C21C43}
   ]]>
  </style>
 </defs>
 <g id="Слой_x0020_1">
  <metadata id="CorelCorpID_0Corel-Layer"/>
  <g id="_424500840">
   <path class="fil0" d="M423 42c211,0 381,171 381,381 0,211 -170,381 -381,381 -210,0 -381,-170 -381,-381 0,-210 171,-381 381,-381zm0 59c179,0 323,144 323,322 0,179 -144,323 -323,323 -178,0 -322,-144 -322,-323 0,-178 144,-322 322,-322z"/>
   <path class="fil1" d="M804 431c-4,207 -173,373 -381,373l0 -58c176,0 319,-140 323,-315l58 0z"/>
  </g>
 </g>
</svg>
