<svg id="92ced047-d0f7-41ff-8954-1c350b85632e" data-name="Слой 1" xmlns="http://www.w3.org/2000/svg" width="5.33" height="5.76" viewBox="0 0 5.33 5.76">
  <defs>
    <style>
      .\37 68ad757-2c57-41f1-a7b5-99a42a46bc04 {
        fill: #434242;
      }
    </style>
  </defs>
  <title>share-link</title>
  <g id="676fa2fc-3426-48b5-a73a-a81827d4e57e" data-name="Слой_1">
    <path class="768ad757-2c57-41f1-a7b5-99a42a46bc04" d="M4.39,0a.94.94,0,1,1,0,1.87,1,1,0,0,1-.65-.27L1.84,2.67a.75.75,0,0,1,0,.42l1.9,1.07a1,1,0,0,1,.65-.27.94.94,0,1,1-.93.94.31.31,0,0,1,0-.1L1.54,3.59a.94.94,0,0,1-.61.23A.94.94,0,0,1,.93,2a1,1,0,0,1,.61.22L3.47,1a.38.38,0,0,1,0-.1A.93.93,0,0,1,4.39,0Z"/>
  </g>
</svg>
