<?xml version="1.0" encoding="UTF-8"?>
<!DOCTYPE svg PUBLIC "-//W3C//DTD SVG 1.1//EN" "http://www.w3.org/Graphics/SVG/1.1/DTD/svg11.dtd">
<!-- Creator: CorelDRAW 2017 -->
<svg xmlns="http://www.w3.org/2000/svg" xml:space="preserve" width="2.5398mm" height="2.5398mm" version="1.1" style="shape-rendering:geometricPrecision; text-rendering:geometricPrecision; image-rendering:optimizeQuality; fill-rule:evenodd; clip-rule:evenodd"
viewBox="0 0 2540 2540"
 xmlns:xlink="http://www.w3.org/1999/xlink">
 <defs>
  <style type="text/css">
   <![CDATA[
    .fil0 {fill:#FEFEFE}
   ]]>
  </style>
 </defs>
 <g id="Слой_x0020_1">
  <metadata id="CorelCorpID_0Corel-Layer"/>
  <path class="fil0" d="M1270 85c655,0 1185,531 1185,1185 0,655 -531,1185 -1185,1185 -655,0 -1185,-531 -1185,-1185 0,-655 531,-1185 1185,-1185zm-124 459l248 0 0 644 360 0 0 248 -609 0 0 -12 0 -236 0 -644zm124 -287c560,0 1013,454 1013,1013 0,560 -454,1013 -1013,1013 -560,0 -1013,-454 -1013,-1013 0,-560 454,-1013 1013,-1013z"/>
 </g>
</svg>
