<svg id="c95973a1-f19d-4b4b-bdf1-99aaed340fbd" data-name="Layer 1" xmlns="http://www.w3.org/2000/svg" width="335.9" height="448.2" viewBox="0 0 335.9 448.2">
  <title>icon-faq</title>
  <g>
    <path d="M221.2,64.8l-2.4-.7c-3.7-1-7.5-2-11.8-2.9-1.7-.4-3.5-.7-5.3-1.1-2.8-.5-5.6-.9-8.5-1.2-2.6-.4-5.3-.7-7.9-.9l-.1-58L82.3,90l103.3,89.6-.2-63.4a16,16,0,0,1,2.3.3c2.9.4,5.8,1,8.6,1.6a107.79,107.79,0,0,1,11.8,3.5c2.2.8,4.4,1.6,6.5,2.5a108.14,108.14,0,0,1,12.6,6.6l1.2.7,3,1.8a103.31,103.31,0,0,1,12.5,10l1.1.9c.5.4.9.8,1.3,1.1a101,101,0,0,1,11.1,13.1l.7.8a8.74,8.74,0,0,1,.8,1,101.44,101.44,0,0,1,8.4,14.9l.6,1.2a3.7,3.7,0,0,1,.5,1.1,97.13,97.13,0,0,1,5.2,16,9.83,9.83,0,0,0,.5,1.6,12.75,12.75,0,0,1,.4,1.4,96.14,96.14,0,0,1,2.1,20.2,98.12,98.12,0,0,1-20.3,60.3l-5.5,7.2,43.4,39.2,7-8.6c22.8-28.4,34.8-62.3,34.7-98.3C335.9,146.4,289.7,85.5,221.2,64.8Z"/>
    <path d="M150.8,331.9a19.67,19.67,0,0,1-2.4-.3c-2.9-.4-5.8-1-8.6-1.6a112,112,0,0,1-11.8-3.5c-2.2-.8-4.4-1.6-6.5-2.5a127,127,0,0,1-12.6-6.6l-1.4-.8c-.9-.6-1.9-1.1-2.8-1.7a103.31,103.31,0,0,1-12.5-10l-1.1-.9c-.5-.4-.9-.8-1.3-1.1a103.45,103.45,0,0,1-11.1-13,7,7,0,0,0-.8-1,7.05,7.05,0,0,1-.7-.9,102.73,102.73,0,0,1-8.4-14.9c-.2-.5-.5-1-.7-1.4a4.05,4.05,0,0,1-.5-.9,97.15,97.15,0,0,1-5.2-16,7.49,7.49,0,0,0-.5-1.6,12.75,12.75,0,0,1-.4-1.4,102.26,102.26,0,0,1-2.2-20.1,98.53,98.53,0,0,1,20.3-60.3l5.5-7.2L41.7,125l-7,8.6A154.48,154.48,0,0,0,0,231.9c.1,69.9,46.3,130.8,114.9,151.5l2.4.7c3.7,1,7.5,2,11.8,2.9,1.7.4,3.5.8,5.3,1.1,2.8.5,5.7.9,8.5,1.2s5.3.6,7.9.9l.1,58,102.9-90L150.5,268.6Z"/>
  </g>
</svg>
