<svg id="9e962639-aceb-473d-8f44-b46898e643be" data-name="Capa 1" xmlns="http://www.w3.org/2000/svg" width="97" height="97" viewBox="0 0 97 97">
  <title>icon-battles</title>
  <path d="M95,44.31H87.48A39.36,39.36,0,0,0,52.69,9.52V2a2,2,0,0,0-2-2H46.31a2,2,0,0,0-2,2V9.52h0A39.36,39.36,0,0,0,9.52,44.31H2a2,2,0,0,0-2,2v4.38a2,2,0,0,0,2,2H9.52A39.36,39.36,0,0,0,44.31,87.48V95a2,2,0,0,0,2,2h4.38a2,2,0,0,0,2-2V87.48h0A39.36,39.36,0,0,0,87.48,52.69H95a2,2,0,0,0,2-2V46.31A2,2,0,0,0,95,44.31ZM24.9,52.69a2,2,0,0,0,2-2V46.31a2,2,0,0,0-2-2H18.4A30.49,30.49,0,0,1,44.31,18.4v6.5a2,2,0,0,0,2,2h4.38a2,2,0,0,0,2-2V18.4A30.48,30.48,0,0,1,78.6,44.31H72.1a2,2,0,0,0-2,2v4.38a2,2,0,0,0,2,2h6.5A30.48,30.48,0,0,1,52.69,78.6V72.11a2,2,0,0,0-2-2H46.31a2,2,0,0,0-2,2V78.6A30.48,30.48,0,0,1,18.4,52.69Z"/>
</svg>
