<svg id="4f51ce9a-82d3-4545-94c0-c450648467dc" data-name="Capa 1" xmlns="http://www.w3.org/2000/svg" width="512" height="341.34" viewBox="0 0 512 341.34">
  <defs>
    <style>
      .\38 cef8c83-b0c0-4b32-ad79-62e03ccc787e {
        fill: #f0f0f0;
      }

      .cb5b8a7d-5197-4ccb-a139-0f5e46d75ed6 {
        fill: #d80027;
      }

      .\38 a3bb6ad-58d4-4127-8163-35a72a0b0bbb {
        fill: #2e52b2;
      }
    </style>
  </defs>
  <title>language-usa</title>
  <rect class="8cef8c83-b0c0-4b32-ad79-62e03ccc787e" width="512" height="341.34"/>
  <g>
    <rect class="cb5b8a7d-5197-4ccb-a139-0f5e46d75ed6" y="42.66" width="512" height="42.66"/>
    <rect class="cb5b8a7d-5197-4ccb-a139-0f5e46d75ed6" y="128" width="512" height="42.66"/>
    <rect class="cb5b8a7d-5197-4ccb-a139-0f5e46d75ed6" y="213.33" width="512" height="42.66"/>
    <rect class="cb5b8a7d-5197-4ccb-a139-0f5e46d75ed6" y="298.66" width="512" height="42.66"/>
  </g>
  <rect class="8a3bb6ad-58d4-4127-8163-35a72a0b0bbb" width="256" height="183.8"/>
  <g>
    <polygon class="8cef8c83-b0c0-4b32-ad79-62e03ccc787e" points="99.82 75.29 95.7 87.98 82.36 87.98 93.15 95.81 89.03 108.5 99.82 100.66 110.61 108.5 106.48 95.81 117.28 87.98 103.94 87.98 99.82 75.29"/>
    <polygon class="8cef8c83-b0c0-4b32-ad79-62e03ccc787e" points="103.94 133.75 99.82 121.07 95.7 133.75 82.36 133.75 93.15 141.59 89.03 154.27 99.82 146.43 110.61 154.27 106.48 141.59 117.28 133.75 103.94 133.75"/>
    <polygon class="8cef8c83-b0c0-4b32-ad79-62e03ccc787e" points="47.58 133.75 43.46 121.07 39.34 133.75 26 133.75 36.79 141.59 32.67 154.27 43.46 146.43 54.24 154.27 50.12 141.59 60.91 133.75 47.58 133.75"/>
    <polygon class="8cef8c83-b0c0-4b32-ad79-62e03ccc787e" points="43.46 75.29 39.34 87.98 26 87.98 36.79 95.81 32.67 108.5 43.46 100.66 54.24 108.5 50.12 95.81 60.91 87.98 47.58 87.98 43.46 75.29"/>
    <polygon class="8cef8c83-b0c0-4b32-ad79-62e03ccc787e" points="99.82 29.52 95.7 42.2 82.36 42.2 93.15 50.04 89.03 62.72 99.82 54.89 110.61 62.72 106.48 50.04 117.28 42.2 103.94 42.2 99.82 29.52"/>
    <polygon class="8cef8c83-b0c0-4b32-ad79-62e03ccc787e" points="43.46 29.52 39.34 42.2 26 42.2 36.79 50.04 32.67 62.72 43.46 54.89 54.24 62.72 50.12 50.04 60.91 42.2 47.58 42.2 43.46 29.52"/>
    <polygon class="8cef8c83-b0c0-4b32-ad79-62e03ccc787e" points="156.18 75.29 152.06 87.98 138.72 87.98 149.51 95.81 145.39 108.5 156.18 100.66 166.97 108.5 162.85 95.81 173.64 87.98 160.3 87.98 156.18 75.29"/>
    <polygon class="8cef8c83-b0c0-4b32-ad79-62e03ccc787e" points="160.3 133.75 156.18 121.07 152.06 133.75 138.72 133.75 149.51 141.59 145.39 154.27 156.18 146.43 166.97 154.27 162.85 141.59 173.64 133.75 160.3 133.75"/>
    <polygon class="8cef8c83-b0c0-4b32-ad79-62e03ccc787e" points="216.66 133.75 212.55 121.07 208.42 133.75 195.09 133.75 205.88 141.59 201.75 154.27 212.55 146.43 223.33 154.27 219.21 141.59 230 133.75 216.66 133.75"/>
    <polygon class="8cef8c83-b0c0-4b32-ad79-62e03ccc787e" points="212.55 75.29 208.42 87.98 195.09 87.98 205.88 95.81 201.75 108.5 212.55 100.66 223.33 108.5 219.21 95.81 230 87.98 216.66 87.98 212.55 75.29"/>
    <polygon class="8cef8c83-b0c0-4b32-ad79-62e03ccc787e" points="156.18 29.52 152.06 42.2 138.72 42.2 149.51 50.04 145.39 62.72 156.18 54.89 166.97 62.72 162.85 50.04 173.64 42.2 160.3 42.2 156.18 29.52"/>
    <polygon class="8cef8c83-b0c0-4b32-ad79-62e03ccc787e" points="212.55 29.52 208.42 42.2 195.09 42.2 205.88 50.04 201.75 62.72 212.55 54.89 223.33 62.72 219.21 50.04 230 42.2 216.66 42.2 212.55 29.52"/>
  </g>
</svg>
