<svg id="0ca41c2b-9cc1-452b-99d8-5390cb1b2cde" data-name="Слой 1" xmlns="http://www.w3.org/2000/svg" xmlns:xlink="http://www.w3.org/1999/xlink" width="3003.64" height="714.89" viewBox="0 0 3003.64 714.89">
  <defs>
    <style>
      .cb670a12-8833-4726-b766-01f74d3ad516 {
        fill: #fff;
      }

      .\36 aee79e2-cadd-4c63-b0ee-994775451290 {
        fill: url(#afe152f9-02ad-4240-91ed-24e8fe866b5c);
      }

      .\36 fc6b798-f5ff-47e2-be77-8db97499d860 {
        fill: url(#3fb0c4b1-5413-4ede-8c0d-f1bddddf4e76);
      }
    </style>
    <linearGradient id="afe152f9-02ad-4240-91ed-24e8fe866b5c" data-name="Безымянный градиент 8" x1="1595.17" y1="296.78" x2="1595.17" y2="700.85" gradientUnits="userSpaceOnUse">
      <stop offset="0" stop-color="#ffef53"/>
      <stop offset="1" stop-color="#ff2700"/>
    </linearGradient>
    <linearGradient id="3fb0c4b1-5413-4ede-8c0d-f1bddddf4e76" x1="989.07" y1="357.44" x2="1470.85" y2="357.44" xlink:href="#afe152f9-02ad-4240-91ed-24e8fe866b5c"/>
  </defs>
  <title>logo</title>
  <path class="cb670a12-8833-4726-b766-01f74d3ad516" d="M219.83,467.83v1.43h-62.2l.36-1.08V458.9q0-15-8.51-21.46t-28-6.42Q95.21,431,86,442.81q-7.8,10.37-12.06,44L68.61,531.1a203,203,0,0,0-2.13,26.09q0,16.81,7.69,23t28.77,6.26q23.24,0,33.25-9.47t12.87-33.78h63.62q-6.44,51.84-30.56,75.24T108.67,641.9H85.07q-46.11,0-65.59-17T0,567.55a250.94,250.94,0,0,1,2.15-31.09l6.79-55.41Q16.08,422.81,40,399.2t77.56-23.6h19.3q46.11,0,65.6,15.2t19.48,52a108,108,0,0,1-.44,10.9Q221.12,457.82,219.83,467.83Z"/>
  <path class="cb670a12-8833-4726-b766-01f74d3ad516" d="M473.25,638.69H406.41l-6.08-46.83H312.76l-17.51,46.83H228.4L332.78,378.82H434.29ZM395.69,545,382.82,426.72H372.45L329.56,545Z"/>
  <path class="cb670a12-8833-4726-b766-01f74d3ad516" d="M726.68,434.59l-1.78,15H665.2a43.57,43.57,0,0,0,.36-6.44q0-10-6.1-13.94T639,425.29H622.83q-18,0-25.67,4.47t-9.51,17l-1.45,11.08v4.29q0,9.3,6.26,12.51t23.06,5l50.76,5.71q56.1,7.16,56.11,51.83v9.65l-3.22,25.74Q715.22,604,693.7,623T639.91,641.9h-57q-39.43,0-57.91-12.15T506.5,590.43v-5.72a38.4,38.4,0,0,1,.71-6.79L509,563.27h59.69a19.71,19.71,0,0,0-.36,3.75v2.68q0,12.16,7.72,17.16t26.74,5h17.58q18,0,25.66-5.18t9.52-18.41L657,556.83v-4.64q0-9.66-6.43-13.41t-22.16-5.54l-55.77-6.44q-26.08-2.85-38.24-15.36t-12.15-36.82a100.64,100.64,0,0,1,1.07-14.3l2.14-16.44q4.29-36.11,27.88-54.33a56,56,0,0,1,25.38-11.26q14.65-2.69,36.82-2.69h41.82q34.32,0,52.18,12.87t17.87,37.18v4.29A24.91,24.91,0,0,0,726.68,434.59Z"/>
  <path class="cb670a12-8833-4726-b766-01f74d3ad516" d="M975.1,378.82,968.68,431H843.21l-6.44,53.61h121.9l-5.37,44H831.42l-7.15,57.91h221.56l-6.43,52.19H755.28l31.81-259.87Z"/>
  <g>
    <path class="cb670a12-8833-4726-b766-01f74d3ad516" d="M2276.26,437.09l-2.15,17.51q-4.67,41.11-45.75,45.76l-.36,3.22q19.29,3.93,29.13,16.43t9.83,31.11v7.15L2264.81,574q-4.67,37.89-27.57,51.83-21.13,12.87-70.89,12.87H2049.28l31.81-259.87h118.67q41.1,0,59.16,10.19t18,36.28v4.29A59.35,59.35,0,0,1,2276.26,437.09Zm-72.57,115.1v-5q0-18.23-23.23-18.23h-55.4l-7.16,57.55h55.65q25.83,0,28.7-23.23Zm7.87-99.73a12.1,12.1,0,0,0,.35-2.86v-2.15q0-8.93-5.18-12.86t-17-3.94h-52.9l-6.44,54.69h52.91q24.3,0,26.8-22.16Z"/>
    <path class="cb670a12-8833-4726-b766-01f74d3ad516" d="M2524.67,378.82l-6.43,52.2H2392.78l-6.44,53.61h121.89l-5.36,44H2381l-7.14,57.91h128.32l-6.44,52.19H2304.85l31.81-259.87Z"/>
    <path class="cb670a12-8833-4726-b766-01f74d3ad516" d="M2762.37,434.59l-1.78,15h-59.7a43.87,43.87,0,0,0,.35-6.44q0-10-6.1-13.94t-20.46-3.93h-16.16q-18,0-25.67,4.47t-9.52,17l-1.44,11.08v4.29q0,9.3,6.26,12.51t23.06,5l50.76,5.71q56.1,7.16,56.11,51.83v9.65l-3.22,25.74q-4,31.46-25.47,50.4T2675.6,641.9h-57q-39.43,0-57.92-12.15t-18.47-39.32v-5.72a38.52,38.52,0,0,1,.72-6.79l1.79-14.65h59.69A18.93,18.93,0,0,0,2604,567v2.68q0,12.16,7.72,17.16t26.74,5h17.58q18,0,25.66-5.18t9.52-18.41l1.43-11.44v-4.64q0-9.66-6.44-13.41t-22.15-5.54l-55.77-6.44q-26.08-2.85-38.25-15.36t-12.15-36.82a102.13,102.13,0,0,1,1.07-14.3l2.15-16.44q4.29-36.11,27.88-54.33a55.9,55.9,0,0,1,25.38-11.26q14.64-2.69,36.82-2.69H2693q34.32,0,52.18,12.87t17.87,37.18v4.29A24.08,24.08,0,0,0,2762.37,434.59Z"/>
    <path class="cb670a12-8833-4726-b766-01f74d3ad516" d="M3003.64,378.82l-6.42,52.2h-66.49l-25.38,207.67h-63.27L2867.46,431h-66.85l6.44-52.2Z"/>
  </g>
  <path class="6aee79e2-cadd-4c63-b0ee-994775451290" d="M1921,296.78H1362.06l-124.33,264.9v111c0,15.5,14.22,28.17,31.6,28.17H1921c17.39,0,31.61-12.67,31.61-28.17V325C1952.62,309.46,1938.4,296.78,1921,296.78Z"/>
  <polygon class="6fc6b798-f5ff-47e2-be77-8db97499d860" points="989.07 155.41 1128.94 714.89 1470.85 0 1144.48 404.07 989.07 155.41"/>
  <g>
    <path d="M1560.12,447.1l-1.07,7.86h-63.27q0-12.87-8.76-18.41T1458.61,431h-17.52q-27.87,0-36.64,10.72t-13,45L1386,531.1q-1.07,8.56-1.6,14.83t-.54,10.9q0,17.16,8,23.41t30.21,6.26h19.3q22.15,0,32.17-6.62t11.8-23.41l1.79-13.94h-39.68l5.36-42.89h100.44L1548,541.46q-6.09,52.2-31.1,76.31t-73.63,24.13h-47.19q-74.34,0-74.35-83.63a227.64,227.64,0,0,1,1.79-25.74l5-40.4q7.52-60,33.61-88.28t76.49-28.25h37.89q38.24,0,61,18.06t22.69,45.93Z"/>
    <path d="M1821.41,481.05l-6.79,55.41q-7.15,58.26-31.09,81.85T1705.6,641.9h-34.31q-46.12,0-65.6-17t-19.48-57.37a252.89,252.89,0,0,1,2.15-31.09l6.79-55.41q7.15-58.24,31.1-81.85t77.56-23.6h34.31q45.77,0,65.6,17t19.83,57A254.91,254.91,0,0,1,1821.41,481.05Zm-64.69,5.72q1.07-11.43,1.6-16.26a85,85,0,0,0,.54-9.47q0-17.52-8-23.77T1720.61,431h-12.86q-27.54,0-36.29,10.54t-13,45.21l-5.36,44.33a198.17,198.17,0,0,0-2.15,26.09q0,16.81,8,23t29.85,6.26h12.87q27.87,0,36.64-10.55t13-44.85Z"/>
    <path d="M1915.05,576.49l-7.51,62.2h-50l7.5-62.2Z"/>
  </g>
  <polygon points="1021.64 630.08 986.17 630.08 991.17 594.61 1026.64 594.61 1021.64 630.08"/>
</svg>
