<svg id="Слой_1" data-name="Слой 1" xmlns="http://www.w3.org/2000/svg" viewBox="0 0 884 216"><defs><style>.cls-1{fill:#fff;}.cls-2{fill:#3d4049;}.cls-3{fill:#405c8b;}.cls-4{fill:#3f9c90;}.cls-5{fill:#905e7e;}.cls-6{fill:#d4787f;}</style></defs><title>bottom</title><path id="Mask" class="cls-1" d="M28,0H856q.69,0,1.38,0l1.36.1,1.37.17,1.35.24c.45.09.9.19,1.34.3s.89.23,1.33.37.87.27,1.3.43.86.32,1.29.49.84.36,1.25.56.83.4,1.23.62.8.44,1.2.67.78.48,1.16.74.75.52,1.12.79.73.55,1.08.85.7.59,1,.89.68.63,1,.95.64.66,1,1,.6.68.89,1,.58.71.85,1.08.54.74.79,1.12.5.77.74,1.16.46.8.67,1.2.43.81.62,1.23.38.83.56,1.25.34.86.49,1.29.3.86.43,1.3.26.88.37,1.33.21.89.3,1.34.17.9.24,1.35.12.91.16,1.36.08.92.11,1.38,0,.91,0,1.37V188q0,.69,0,1.38c0,.45-.06.91-.11,1.36s-.1.92-.16,1.37-.15.9-.24,1.35-.19.9-.3,1.34-.23.89-.37,1.33-.27.87-.43,1.3-.32.86-.49,1.29-.36.84-.56,1.25-.4.83-.62,1.23-.44.8-.67,1.2-.48.78-.74,1.16-.52.75-.79,1.12-.56.73-.85,1.08-.59.7-.89,1-.63.67-1,1-.66.64-1,.95-.68.6-1,.9-.71.57-1.08.84-.74.54-1.12.79-.77.5-1.16.74-.8.46-1.2.67-.81.43-1.23.62-.83.38-1.25.56-.86.34-1.29.49-.86.3-1.3.43-.88.26-1.33.37-.89.21-1.34.3l-1.35.24-1.37.17-1.36.1q-.69,0-1.38,0H28c-.46,0-.92,0-1.37,0l-1.38-.1-1.36-.17q-.67-.1-1.35-.24c-.45-.09-.9-.19-1.34-.3s-.89-.23-1.33-.37-.87-.27-1.3-.43-.86-.32-1.29-.49-.84-.36-1.25-.56-.83-.4-1.23-.62-.8-.44-1.2-.67-.78-.48-1.16-.74-.75-.52-1.12-.79-.73-.55-1.08-.84-.7-.6-1-.9-.68-.63-1-.95-.64-.66-.95-1-.6-.68-.89-1-.58-.71-.85-1.08-.54-.74-.79-1.12-.5-.77-.74-1.16-.46-.8-.67-1.2-.43-.81-.62-1.23-.38-.83-.56-1.25-.34-.85-.49-1.29-.3-.86-.43-1.3S1,195.25.84,194.8s-.21-.89-.3-1.34-.17-.9-.24-1.35-.12-.91-.17-1.37-.07-.91-.1-1.36,0-.92,0-1.38V28c0-.46,0-.92,0-1.37s.06-.92.1-1.38.11-.91.17-1.36.15-.9.24-1.35.19-.9.3-1.34.23-.89.37-1.33.27-.87.43-1.3.32-.86.49-1.29.36-.84.56-1.25.4-.83.62-1.23.44-.8.67-1.2.48-.78.74-1.16.52-.75.79-1.12.55-.73.85-1.08.59-.7.89-1,.63-.68.95-1,.66-.64,1-.95.68-.6,1-.89.71-.58,1.08-.85.74-.54,1.12-.79.77-.5,1.16-.74.8-.46,1.2-.67.81-.43,1.23-.62.83-.38,1.25-.56.86-.34,1.29-.49.86-.3,1.3-.43S20.75,1,21.2.84s.89-.21,1.34-.3.9-.17,1.35-.24L25.25.13,26.63,0C27.08,0,27.54,0,28,0Z"/><g id="Возраст-франшизы-в-годах"><path class="cls-2" d="M309.94,40.23a3.9,3.9,0,0,1,1.51,1.39,3.78,3.78,0,0,1,.55,2,3.93,3.93,0,0,1-1.29,3,4.42,4.42,0,0,1-3.13,1.19h-6.29V33.15h5.83a4.3,4.3,0,0,1,3.06,1.17,3.8,3.8,0,0,1,1.25,2.91A3.53,3.53,0,0,1,309.94,40.23ZM399.38,39a5.36,5.36,0,0,1,0,7.27,6.31,6.31,0,0,1-3.87,1.8v4h-2.22V48a6.28,6.28,0,0,1-3.87-1.8,5.34,5.34,0,0,1,0-7.27,6.29,6.29,0,0,1,3.87-1.81v-4h2.22v4A6.32,6.32,0,0,1,399.38,39Zm-92.26-3.55H303.7v3.86h3.42a1.83,1.83,0,0,0,1.35-.55,2,2,0,0,0,0-2.75A1.84,1.84,0,0,0,307.12,35.42ZM318.9,48.13a5.39,5.39,0,0,1-3.92-1.6,5.56,5.56,0,0,1,0-7.85,5.55,5.55,0,1,1,3.92,9.45ZM334.09,45a2.56,2.56,0,0,0-1.68-2.5,2.56,2.56,0,0,0,1.22-2.33,2.78,2.78,0,0,0-1-2.18,4.21,4.21,0,0,0-2.81-.89,4.12,4.12,0,0,0-4,2.35l1.85,1a2.19,2.19,0,0,1,2.18-1.38,1.86,1.86,0,0,1,1.18.34,1.09,1.09,0,0,1,.44.89,1.12,1.12,0,0,1-.39.9,1.67,1.67,0,0,1-1.08.32h-1.11v2h1.49a1.73,1.73,0,0,1,1.11.32,1.06,1.06,0,0,1,.4.87,1.16,1.16,0,0,1-.5,1,2.29,2.29,0,0,1-1.39.37,2.35,2.35,0,0,1-2.46-1.58l-1.84,1.1A4.23,4.23,0,0,0,330,48.13a4.68,4.68,0,0,0,3.05-.91A2.82,2.82,0,0,0,334.09,45Zm7.79-7.9a4.88,4.88,0,0,1,3.69,1.61,5.76,5.76,0,0,1,0,7.84,5,5,0,0,1-3.69,1.6,4.27,4.27,0,0,1-3.68-1.77v5.69h-2.27V37.35h2.27v1.51A4.26,4.26,0,0,1,341.88,37.08Zm17.87.27h-2.27v1.49a4.27,4.27,0,0,0-3.67-1.76,4.91,4.91,0,0,0-3.7,1.6,5.79,5.79,0,0,0,0,7.84,4.92,4.92,0,0,0,3.7,1.61,4.25,4.25,0,0,0,3.67-1.79v1.51h2.27Zm7.6,10.78a5.53,5.53,0,1,1,2.79-10.32,4.74,4.74,0,0,1,1.89,2l-1.95,1.13A2.68,2.68,0,0,0,369,39.74a3.17,3.17,0,0,0-1.67-.43,3.13,3.13,0,0,0-2.32.94,3.41,3.41,0,0,0,0,4.7,3.14,3.14,0,0,0,2.32.95,3.25,3.25,0,0,0,1.67-.44,2.88,2.88,0,0,0,1.12-1.18l2,1.12a5,5,0,0,1-1.94,2A5.44,5.44,0,0,1,367.35,48.13Zm45.15-9.44a4.89,4.89,0,0,0-3.7-1.61,4.24,4.24,0,0,0-3.67,1.78V37.35h-2.27v14.7h2.27V46.36a4.25,4.25,0,0,0,3.67,1.77,5,5,0,0,0,3.7-1.6,5.79,5.79,0,0,0,0-7.84Zm11.91-1.34h2.27v10.5h-2.27V46.34a4.26,4.26,0,0,1-3.68,1.79A4.92,4.92,0,0,1,417,46.52a5.76,5.76,0,0,1,0-7.84,4.91,4.91,0,0,1,3.69-1.6,4.29,4.29,0,0,1,3.68,1.76Zm52.08,5.13a2.56,2.56,0,0,1,1.68,2.5,2.82,2.82,0,0,1-1.09,2.24,4.68,4.68,0,0,1-3.05.91,4.23,4.23,0,0,1-4.28-2.52l1.85-1.1a2.33,2.33,0,0,0,2.45,1.58,2.29,2.29,0,0,0,1.39-.37,1.16,1.16,0,0,0,.5-1,1.06,1.06,0,0,0-.4-.87,1.73,1.73,0,0,0-1.11-.32h-1.49v-2h1.11a1.67,1.67,0,0,0,1.08-.32,1.12,1.12,0,0,0,.39-.9,1.07,1.07,0,0,0-.44-.89,1.84,1.84,0,0,0-1.18-.34,2.19,2.19,0,0,0-2.18,1.38l-1.85-1a4.12,4.12,0,0,1,4-2.35,4.21,4.21,0,0,1,2.81.89,2.78,2.78,0,0,1,1,2.18A2.56,2.56,0,0,1,476.49,42.48Zm52.77,5.65a5.41,5.41,0,0,1-3.93-1.6,5.59,5.59,0,0,1,0-7.85,5.64,5.64,0,0,1,7.87,0,5.61,5.61,0,0,1,0,7.85A5.39,5.39,0,0,1,529.26,48.13Zm28.41-10.78h2.27v10.5h-2.27V46.34A4.23,4.23,0,0,1,554,48.13a4.94,4.94,0,0,1-3.7-1.61,5.79,5.79,0,0,1,0-7.84,4.93,4.93,0,0,1,3.7-1.6,4.26,4.26,0,0,1,3.67,1.76ZM381.8,39.54V37.35h-9.14v2.19h3.45v8.31h2.27V39.54Zm56.87-2.19H436.4v4.18h-4.81V37.35h-2.27v10.5h2.27V43.67h4.81v4.18h2.27Zm15.05,0H456v10.5h-14.7V37.35h2.27v8.36h3.95V37.35h2.27v8.36h3.94Zm14.24,0h-1.74L460.84,44V37.35h-2.22v10.5h1.74l5.38-6.68v6.68H468Zm19.39,4.53a4,4,0,0,0-2.76-1h-2.31V37.35H480v10.5h4.57a4,4,0,0,0,2.76-1,3.24,3.24,0,0,0,1.07-2.5A3.2,3.2,0,0,0,487.35,41.88Zm4.59-4.53h-2.26v10.5h2.26Zm15.14,5.11a2.46,2.46,0,0,1,1.56,2.41,2.81,2.81,0,0,1-.89,2.15,3.59,3.59,0,0,1-2.55.83h-5.38V37.35h4.95a3.59,3.59,0,0,1,2.51.81,2.69,2.69,0,0,1,.9,2.09A2.47,2.47,0,0,1,507.08,42.46Zm15.69-2.92V37.35h-7v10.5H518V39.54Zm24.74,6.17H546.1V37.35h-8v4.56a6.53,6.53,0,0,1-1,3.8h-1.28v5h2.22V47.85h7.2v2.82h2.23Zm21.84,2.14H572l-3.93-5.37,3.74-5.13h-2.65l-2.41,3.32-2.42-3.32h-2.63l3.74,5.11-3.94,5.39h2.64l2.63-3.59ZM339.15,45a3.43,3.43,0,0,0,4.74,0,3.52,3.52,0,0,0,0-4.81,3.41,3.41,0,0,0-4.74,0,3.52,3.52,0,0,0,0,4.81Zm15,1a3.22,3.22,0,0,1-2.37-1,3.55,3.55,0,0,1,0-4.81,3.42,3.42,0,0,1,4.75,0,3.55,3.55,0,0,1,0,4.81A3.23,3.23,0,0,1,354.16,46Zm54.29,0a3.26,3.26,0,0,1-2.38-1,3.55,3.55,0,0,1,0-4.81,3.23,3.23,0,0,1,2.38-1,3.19,3.19,0,0,1,2.37,1,3.52,3.52,0,0,1,0,4.81A3.22,3.22,0,0,1,408.45,46Zm10.27-1a3.43,3.43,0,0,0,4.74,0,3.52,3.52,0,0,0,0-4.81,3.41,3.41,0,0,0-4.74,0,3.52,3.52,0,0,0,0,4.81ZM552,45a3.44,3.44,0,0,0,4.75,0,3.55,3.55,0,0,0,0-4.81,3.42,3.42,0,0,0-4.75,0A3.55,3.55,0,0,0,552,45ZM316.57,45a3.37,3.37,0,0,0,4.67,0,3.47,3.47,0,0,0,0-4.75,3.28,3.28,0,0,0-5.61,2.37A3.23,3.23,0,0,0,316.57,45Zm188-5.7H502v2.34h2.63c.92,0,1.38-.4,1.38-1.18S505.53,39.28,504.61,39.28ZM526.93,45a3.36,3.36,0,0,0,4.66,0,3.44,3.44,0,0,0,0-4.75,3.33,3.33,0,0,0-4.66,0,3.44,3.44,0,0,0,0,4.75ZM391,40.48a3.07,3.07,0,0,0-.8,2.12,3,3,0,0,0,.8,2.12,3.87,3.87,0,0,0,2.25,1.16V39.33A3.86,3.86,0,0,0,391,40.48Zm4.47,5.4a3.92,3.92,0,0,0,2.25-1.15,3.24,3.24,0,0,0,0-4.26,3.91,3.91,0,0,0-2.25-1.14Zm148.37-.17h-4.24a9.35,9.35,0,0,0,.69-3.8V39.43h3.55Zm-236.3-.13A1.92,1.92,0,0,0,309,45a2.13,2.13,0,0,0,0-2.92,1.89,1.89,0,0,0-1.42-.6H303.7v4.11Zm178.16-.16a1.68,1.68,0,0,1-1.13.4h-2.33V43h2.33a1.67,1.67,0,0,1,1.13.39,1.3,1.3,0,0,1,.45,1A1.32,1.32,0,0,1,485.74,45.42Zm19.24.46a1.47,1.47,0,0,0,1.17-.41,1.2,1.2,0,0,0,.26-.83,1,1,0,0,0-.37-.85,1.69,1.69,0,0,0-1.06-.31h-3v2.4Z"/></g><path id="Rectangle" class="cls-3" d="M168,80h80l.79,0q.39,0,.78.06t.78.09l.77.14.77.17q.38.09.75.21c.26.07.5.16.75.25s.49.18.73.28.48.2.72.32.47.23.7.35.46.25.69.39.44.27.66.42.43.29.64.45.42.32.62.48l.6.51c.19.18.38.36.56.55s.37.37.55.56l.51.6c.16.2.33.41.48.62s.31.42.45.64.29.44.42.66.27.46.39.69.24.46.35.7.22.47.32.72.2.48.29.73l.24.74c.08.26.15.51.21.76s.12.51.17.77.1.51.14.77.07.52.09.78.05.52.06.78,0,.53,0,.79v64c0,.26,0,.52,0,.79s0,.52-.06.78-.06.52-.09.78-.09.52-.14.77-.11.51-.17.77-.13.5-.21.76l-.24.74c-.09.25-.19.49-.29.73s-.2.48-.32.72-.23.47-.35.7-.25.46-.39.69-.27.44-.42.66-.29.43-.45.64-.32.42-.48.62l-.51.6c-.18.19-.36.38-.55.56s-.37.37-.56.55l-.6.51c-.2.16-.41.33-.62.48s-.42.31-.64.45l-.66.42q-.35.21-.69.39l-.7.35c-.24.12-.47.22-.72.32s-.48.2-.73.28-.49.18-.75.25l-.75.21-.77.17-.77.14q-.39.06-.78.09t-.78.06l-.79,0H168l-.79,0q-.39,0-.78-.06t-.78-.09l-.77-.14-.77-.17-.76-.21c-.25-.07-.49-.16-.74-.25s-.49-.18-.73-.28-.48-.2-.72-.32l-.7-.35q-.35-.18-.69-.39l-.66-.42c-.22-.14-.43-.29-.64-.45s-.42-.32-.62-.48l-.6-.51c-.19-.18-.38-.36-.56-.55s-.37-.37-.55-.56l-.51-.6c-.16-.2-.33-.41-.48-.62s-.31-.42-.45-.64-.29-.44-.42-.66-.27-.46-.39-.69-.24-.46-.35-.7-.22-.47-.32-.72-.2-.48-.28-.73-.18-.49-.25-.74-.15-.51-.21-.76-.12-.51-.17-.77-.1-.51-.14-.77-.07-.52-.09-.78-.05-.52-.06-.78,0-.53,0-.79V96c0-.26,0-.52,0-.79s0-.52.06-.78,0-.52.09-.78.09-.52.14-.77.11-.51.17-.77.13-.5.21-.76.16-.49.25-.74.18-.49.28-.73.2-.48.32-.72.23-.47.35-.7.25-.46.39-.69.27-.44.42-.66.29-.43.45-.64.32-.42.48-.62l.51-.6c.18-.19.36-.38.55-.56s.37-.37.56-.55l.6-.51c.2-.16.41-.33.62-.48s.42-.31.64-.45.44-.29.66-.42.46-.27.69-.39.46-.24.7-.35.47-.22.72-.32.48-.2.73-.28.49-.18.74-.25l.76-.21.77-.17.77-.14q.39-.06.78-.09t.78-.06Z"/><path id="Rectangle-Copy-2" class="cls-4" d="M320,80h80l.79,0q.39,0,.78.06t.78.09l.77.14.77.17q.38.09.75.21c.26.07.5.16.75.25s.49.18.73.28.48.2.72.32l.7.35.69.39q.33.19.66.42c.22.14.43.29.64.45s.42.32.62.48l.6.51c.19.18.38.36.56.55s.37.37.55.56l.51.6c.16.2.33.41.48.62s.31.42.45.64.29.44.42.66.27.46.39.69.24.46.35.7.22.47.32.72.2.48.29.73l.24.74c.08.26.15.51.21.76s.12.51.17.77.1.51.14.77.07.52.09.78.05.52.06.78,0,.53,0,.79v64c0,.26,0,.52,0,.79s0,.52-.06.78-.06.52-.09.78-.09.52-.14.77-.11.51-.17.77-.13.5-.21.76l-.24.74c-.09.25-.19.49-.29.73s-.2.48-.32.72-.23.47-.35.7-.25.46-.39.69-.27.44-.42.66-.29.43-.45.64-.32.42-.48.62l-.51.6c-.18.19-.36.38-.55.56s-.37.37-.56.55l-.6.51c-.2.16-.41.33-.62.48s-.42.31-.64.45l-.66.42-.69.39-.7.35c-.24.12-.47.22-.72.32s-.48.2-.73.28-.49.18-.75.25l-.75.21-.77.17-.77.14q-.39.06-.78.09t-.78.06l-.79,0H320l-.79,0q-.39,0-.78-.06t-.78-.09l-.77-.14-.77-.17-.76-.21c-.25-.07-.49-.16-.74-.25s-.49-.18-.73-.28-.48-.2-.72-.32l-.7-.35-.69-.39-.66-.42c-.22-.14-.43-.29-.64-.45s-.42-.32-.62-.48l-.6-.51c-.19-.18-.38-.36-.56-.55s-.37-.37-.55-.56l-.51-.6c-.16-.2-.33-.41-.48-.62s-.31-.42-.45-.64-.29-.44-.42-.66-.27-.46-.39-.69-.24-.46-.35-.7-.22-.47-.32-.72-.2-.48-.28-.73-.18-.49-.25-.74-.15-.51-.21-.76-.12-.51-.17-.77-.1-.51-.14-.77-.07-.52-.09-.78-.05-.52-.06-.78,0-.53,0-.79V96c0-.26,0-.52,0-.79s0-.52.06-.78.05-.52.09-.78.09-.52.14-.77.11-.51.17-.77.13-.5.21-.76.16-.49.25-.74.18-.49.28-.73.2-.48.32-.72.23-.47.35-.7.25-.46.39-.69.27-.44.42-.66.29-.43.45-.64.32-.42.48-.62l.51-.6c.18-.19.36-.38.55-.56s.37-.37.56-.55l.6-.51c.2-.16.41-.33.62-.48s.42-.31.64-.45.44-.29.66-.42l.69-.39.7-.35c.24-.12.47-.22.72-.32s.48-.2.73-.28.49-.18.74-.25l.76-.21.77-.17.77-.14q.39-.06.78-.09t.78-.06Z"/><path id="Rectangle-Copy-6" class="cls-5" d="M472,80h80l.79,0,.78.06q.39,0,.78.09l.77.14.77.17q.38.09.75.21c.26.07.5.16.75.25s.49.18.73.28.48.2.72.32.47.23.7.35.46.25.69.39.44.27.66.42.43.29.64.45.42.32.62.48l.6.51c.19.18.38.36.56.55s.37.37.55.56l.51.6c.16.2.33.41.48.62s.31.42.45.64.29.44.42.66.27.46.39.69.24.46.35.7.22.47.32.72.2.48.29.73l.24.74c.08.26.15.51.21.76s.12.51.17.77.1.51.14.77.07.52.09.78.05.52.06.78,0,.53,0,.79v64c0,.26,0,.52,0,.79s0,.52-.06.78-.06.52-.09.78-.09.52-.14.77-.11.51-.17.77-.13.5-.21.76l-.24.74c-.09.25-.19.49-.29.73s-.2.48-.32.72-.23.47-.35.7-.25.46-.39.69-.27.44-.42.66-.29.43-.45.64-.32.42-.48.62l-.51.6c-.18.19-.36.38-.55.56s-.37.37-.56.55l-.6.51c-.2.16-.41.33-.62.48s-.42.31-.64.45-.44.29-.66.42-.46.27-.69.39l-.7.35c-.24.12-.47.22-.72.32s-.48.2-.73.28-.49.18-.75.25l-.75.21-.77.17-.77.14q-.39.06-.78.09t-.78.06l-.79,0H472l-.79,0q-.39,0-.78-.06t-.78-.09l-.77-.14-.77-.17-.76-.21c-.25-.07-.49-.16-.74-.25s-.49-.18-.73-.28-.48-.2-.72-.32l-.7-.35-.69-.39-.66-.42c-.22-.14-.43-.29-.64-.45s-.42-.32-.62-.48l-.6-.51c-.19-.18-.38-.36-.56-.55s-.37-.37-.55-.56l-.51-.6c-.16-.2-.33-.41-.48-.62s-.31-.42-.45-.64-.29-.44-.42-.66-.27-.46-.39-.69-.24-.46-.35-.7-.22-.47-.32-.72-.2-.48-.28-.73-.18-.49-.25-.74-.15-.51-.21-.76-.12-.51-.17-.77-.1-.51-.14-.77-.07-.52-.09-.78-.05-.52-.06-.78,0-.53,0-.79V96c0-.26,0-.52,0-.79s0-.52.06-.78.05-.52.09-.78.09-.52.14-.77.11-.51.17-.77.13-.5.21-.76.16-.49.25-.74.18-.49.28-.73.2-.48.32-.72.23-.47.35-.7.25-.46.39-.69.27-.44.42-.66.29-.43.45-.64.32-.42.48-.62l.51-.6c.18-.19.36-.38.55-.56s.37-.37.56-.55l.6-.51c.2-.16.41-.33.62-.48s.42-.31.64-.45.44-.29.66-.42l.69-.39.7-.35c.24-.12.47-.22.72-.32s.48-.2.73-.28.49-.18.74-.25l.76-.21.77-.17.77-.14q.39-.06.78-.09t.78-.06Z"/><path id="Rectangle-Copy-7" class="cls-6" d="M624,80h80l.79,0,.78.06q.39,0,.78.09l.77.14.77.17q.38.09.75.21c.26.07.5.16.75.25s.49.18.73.28.48.2.72.32.47.23.7.35.46.25.69.39.44.27.66.42.43.29.64.45.42.32.62.48l.6.51c.19.18.38.36.56.55s.37.37.55.56l.51.6c.16.2.33.41.48.62s.31.42.45.64.29.44.42.66.27.46.39.69.24.46.35.7.22.47.32.72.2.48.29.73l.24.74c.08.26.15.51.21.76s.12.51.17.77.1.51.14.77.07.52.09.78.05.52.06.78,0,.53,0,.79v64c0,.26,0,.52,0,.79s0,.52-.06.78-.06.52-.09.78-.09.52-.14.77-.11.51-.17.77-.13.5-.21.76l-.24.74c-.09.25-.19.49-.29.73s-.2.48-.32.72-.23.47-.35.7-.25.46-.39.69-.27.44-.42.66-.29.43-.45.64-.32.42-.48.62l-.51.6c-.18.19-.36.38-.55.56s-.37.37-.56.55l-.6.51c-.2.16-.41.33-.62.48s-.42.31-.64.45-.44.29-.66.42-.46.27-.69.39l-.7.35c-.24.12-.47.22-.72.32s-.48.2-.73.28-.49.18-.75.25l-.75.21-.77.17-.77.14q-.39.06-.78.09t-.78.06l-.79,0H624l-.79,0q-.39,0-.78-.06t-.78-.09l-.77-.14-.77-.17-.76-.21c-.25-.07-.49-.16-.74-.25s-.49-.18-.73-.28-.48-.2-.72-.32l-.7-.35q-.35-.18-.69-.39t-.66-.42c-.22-.14-.43-.29-.64-.45s-.42-.32-.62-.48l-.6-.51c-.19-.18-.38-.36-.56-.55s-.37-.37-.55-.56l-.51-.6c-.16-.2-.33-.41-.48-.62s-.31-.42-.45-.64-.29-.44-.42-.66-.27-.46-.39-.69-.24-.46-.35-.7-.22-.47-.32-.72-.2-.48-.28-.73-.18-.49-.25-.74-.15-.51-.21-.76-.12-.51-.17-.77-.1-.51-.14-.77-.07-.52-.09-.78-.05-.52-.06-.78,0-.53,0-.79V96c0-.26,0-.52,0-.79s0-.52.06-.78,0-.52.09-.78.09-.52.14-.77.11-.51.17-.77.13-.5.21-.76.16-.49.25-.74.18-.49.28-.73.2-.48.32-.72.23-.47.35-.7.25-.46.39-.69.27-.44.42-.66.29-.43.45-.64.32-.42.48-.62l.51-.6c.18-.19.36-.38.55-.56s.37-.37.56-.55l.6-.51c.2-.16.41-.33.62-.48s.42-.31.64-.45.44-.29.66-.42.46-.27.69-.39.46-.24.7-.35.47-.22.72-.32.48-.2.73-.28.49-.18.74-.25l.76-.21.77-.17.77-.14q.39-.06.78-.09l.78-.06Z"/><g id="_5_" data-name="5+"><path class="cls-1" d="M205.1,127.26a7,7,0,0,0-4.73-1.67h-2.46l.33-4.36h7.95v-3H195.27l-.75,10.53h5.71a3.85,3.85,0,0,1,2.6.84,2.85,2.85,0,0,1,1,2.3,2.9,2.9,0,0,1-1,2.31,3.91,3.91,0,0,1-2.65.85q-3.1,0-3.89-2.66l-2.77,1.6a5.89,5.89,0,0,0,2.55,3.12,7.78,7.78,0,0,0,4.11,1.08,7.31,7.31,0,0,0,4.88-1.68,6.42,6.42,0,0,0,0-9.23Zm16.69,2.17v-2.86h-4.73v-4.73H214.2v4.73h-4.73v2.86h4.73v4.73h2.86v-4.73Z"/></g><g id="_3-5" data-name="3-5"><path class="cls-1" d="M347,126.21a6.61,6.61,0,0,1,3.46,2,5.28,5.28,0,0,1,1.33,3.69,5.71,5.71,0,0,1-2,4.62,7.28,7.28,0,0,1-4.87,1.68,7.87,7.87,0,0,1-4-1,5.91,5.91,0,0,1-2.56-3l2.74-1.6A3.64,3.64,0,0,0,345,135a3.9,3.9,0,0,0,2.66-.85,2.92,2.92,0,0,0,1-2.31,2.89,2.89,0,0,0-1-2.3,4,4,0,0,0-2.66-.84h-.73l-1.29-1.93,4.23-5.57H339v-3h12V121Zm32.48,1.05a7,7,0,0,0-4.73-1.67h-2.46l.33-4.36h7.95v-3H369.67l-.75,10.53h5.71a3.85,3.85,0,0,1,2.6.84,2.85,2.85,0,0,1,1,2.3,2.9,2.9,0,0,1-1,2.31,3.91,3.91,0,0,1-2.65.85q-3.1,0-3.89-2.66l-2.77,1.6a5.89,5.89,0,0,0,2.55,3.12,7.78,7.78,0,0,0,4.11,1.08,7.31,7.31,0,0,0,4.88-1.68,6.42,6.42,0,0,0,.05-9.23Zm-24.75,3.49v-2.92h10.36v2.92Z"/></g><g id="_1-3" data-name="1-3"><path class="cls-1" d="M497.61,118.2h2.8v19.6h-3.22V121.65l-3.95,1.12-.78-2.75Zm32,10a6.61,6.61,0,0,0-3.46-2l4-5.26V118.2h-12v3h8.2l-4.23,5.57,1.29,1.93h.73a4,4,0,0,1,2.66.84,2.89,2.89,0,0,1,1,2.3,2.92,2.92,0,0,1-1,2.31,3.92,3.92,0,0,1-2.66.85,3.64,3.64,0,0,1-3.84-2.52l-2.74,1.6a5.86,5.86,0,0,0,2.56,3,7.84,7.84,0,0,0,4,1,7.3,7.3,0,0,0,4.87-1.68,5.71,5.71,0,0,0,2-4.62A5.32,5.32,0,0,0,529.6,128.18Zm-25.13,2.57v-2.92h10.36v2.92Z"/></g><g id="_0-1" data-name="0-1"><path class="cls-1" d="M657.32,135.39a7.17,7.17,0,0,1-11.34,0,14.47,14.47,0,0,1,0-14.78,7.19,7.19,0,0,1,11.34,0,14.47,14.47,0,0,1,0,14.78Zm25.75-17.19h-2.8L675.12,120l.78,2.75,4-1.12V137.8h3.22ZM651.65,135a3.7,3.7,0,0,0,3.33-1.82,12.38,12.38,0,0,0,0-10.42,3.95,3.95,0,0,0-6.65,0,12.28,12.28,0,0,0,0,10.42A3.73,3.73,0,0,0,651.65,135Zm10.78-4.28v-2.92h10.36v2.92Z"/></g></svg>