<?xml version="1.0" encoding="utf-8"?>
<svg width="337px" height="724px" viewBox="0 0 337 724" version="1.1" xmlns:xlink="http://www.w3.org/1999/xlink" xmlns="http://www.w3.org/2000/svg">
  <desc>Created with Lunacy</desc>
  <g id="Group-9" transform="translate(-387 0)">
    <path d="M0 362C0 162.073 162.073 0 362 0C561.927 0 724 162.073 724 362C724 561.927 561.927 724 362 724C162.073 724 0 561.927 0 362ZM723.001 362C723.001 162.624 561.375 0.998621 362 0.998621C162.624 0.998621 0.998621 162.624 0.998621 362C0.998621 561.375 162.624 723.001 362 723.001C561.375 723.001 723.001 561.375 723.001 362Z" id="Oval" fill="#FFFFFF" fill-opacity="0.350864947" fill-rule="evenodd" stroke="none" />
    <path d="M0 277.117C0 124.07 124.07 0 277.117 0C430.165 0 554.234 124.07 554.234 277.117C554.234 430.165 430.165 554.234 277.117 554.234C124.07 554.234 0 430.165 0 277.117ZM553.236 277.117C553.236 124.621 429.613 0.998621 277.117 0.998621C124.621 0.998621 0.998621 124.621 0.998621 277.117C0.998621 429.613 124.621 553.236 277.117 553.236C429.613 553.236 553.236 429.613 553.236 277.117Z" transform="translate(87.87863 78.89104)" id="Oval-Copy" fill="#FFFFFF" fill-opacity="0.350864947" fill-rule="evenodd" stroke="none" />
    <path d="M0 188.24C0 84.2779 84.2779 0 188.24 0C292.202 0 376.48 84.2779 376.48 188.24C376.48 292.202 292.202 376.48 188.24 376.48C84.2779 376.48 0 292.202 0 188.24ZM375.481 188.24C375.481 84.8294 291.651 0.998621 188.24 0.998621C84.8294 0.998621 0.998621 84.8294 0.998621 188.24C0.998621 291.651 84.8294 375.481 188.24 375.481C291.651 375.481 375.481 291.651 375.481 188.24Z" transform="translate(172.7614 167.7683)" id="Oval-Copy-2" fill="#FFFFFF" fill-opacity="0.350864947" fill-rule="evenodd" stroke="none" />
    <path d="M0 116.839C0 52.3104 52.3104 0 116.839 0C181.367 0 233.677 52.3104 233.677 116.839C233.677 181.367 181.367 233.677 116.839 233.677C52.3104 233.677 0 181.367 0 116.839ZM232.679 116.839C232.679 52.862 180.815 0.998621 116.839 0.998621C52.862 0.998621 0.998621 52.862 0.998621 116.839C0.998621 180.815 52.862 232.679 116.839 232.679C180.815 232.679 232.679 180.815 232.679 116.839Z" transform="translate(242.6648 238.6703)" id="Oval-Copy-3" fill="#FFFFFF" fill-opacity="0.350864947" fill-rule="evenodd" stroke="none" />
  </g>
</svg>