<?xml version="1.0" encoding="utf-8"?>
<svg width="556px" height="490px" viewBox="0 0 556 490" version="1.1" xmlns:xlink="http://www.w3.org/1999/xlink" xmlns="http://www.w3.org/2000/svg">
  <desc>Created with Lunacy</desc>
  <g id="Group-5" transform="translate(1 1)" opacity="0.8269624">
    <path d="M245.851 488C381.63 488 491.701 378.757 491.701 244C491.701 109.243 381.63 0 245.851 0C110.071 0 0 109.243 0 244C0 378.757 110.071 488 245.851 488Z" transform="translate(294.2986 0)" id="Oval" fill="none" stroke="#FFFFFF" stroke-opacity="0.164705887" stroke-width="2" />
    <path d="M145.274 288.361C225.507 288.361 290.548 223.809 290.548 144.18C290.548 64.5518 225.507 0 145.274 0C65.0414 0 0 64.5518 0 144.18C0 223.809 65.0414 288.361 145.274 288.361Z" transform="translate(394.8752 99.81958)" id="Oval" fill="none" stroke="#FFFFFF" stroke-opacity="0.164705887" stroke-width="2" />
    <path d="M80.1622 159.117C124.434 159.117 160.324 123.498 160.324 79.5587C160.324 35.6197 124.434 0 80.1622 0C35.8898 0 0 35.6197 0 79.5587C0 123.498 35.8898 159.117 80.1622 159.117Z" transform="translate(459.9872 164.4413)" id="Oval" fill="none" stroke="#FFFFFF" stroke-opacity="0.164705887" stroke-width="2" />
    <path d="M0 44.5661C33.2697 44.5661 33.4529 123.648 67.86 123.648C102.267 123.648 93.8207 61.9762 126.017 61.9762C158.214 61.9762 160.083 -1.72394e-07 193.057 0C226.03 1.72394e-07 225.441 34.1516 258.767 34.1516C292.094 34.1516 293.279 70.3889 327.966 70.3889C362.653 70.3889 364.364 34.1516 399.051 34.1516C433.738 34.1516 436.554 70.3889 468.52 70.3889C500.486 70.3889 505.428 1.64226e-06 538.755 4.22872e-14C572.082 -1.64226e-06 570.214 16.5526 604.221 16.5526" transform="matrix(-1 0 0 -1 609.7251 241.8615)" id="line" fill="none" stroke="#FFFFFF" stroke-width="2" />
    <path d="M6.93091 13.8477C10.7587 13.8477 13.8618 10.7478 13.8618 6.92387C13.8618 3.09992 10.7587 0 6.93091 0C3.10307 0 0 3.09992 0 6.92387C0 10.7478 3.10307 13.8477 6.93091 13.8477Z" transform="translate(0 218.0785)" id="Oval-2" fill="#FFFFFF" stroke="none" />
    <path d="M6.9309 13.8477C10.7587 13.8477 13.8618 10.7478 13.8618 6.92387C13.8618 3.09992 10.7587 0 6.9309 0C3.10307 0 0 3.09992 0 6.92387C0 10.7478 3.10307 13.8477 6.9309 13.8477Z" transform="translate(63.99683 235.127)" id="Oval-2" fill="#FFFFFF" stroke="none" />
    <path d="M6.93091 13.8477C10.7587 13.8477 13.8618 10.7478 13.8618 6.92387C13.8618 3.09992 10.7587 0 6.93091 0C3.10307 0 0 3.09992 0 6.92387C0 10.7478 3.10307 13.8477 6.93091 13.8477Z" transform="translate(136.5265 164.8019)" id="Oval-2" fill="#FFFFFF" stroke="none" />
    <path d="M6.93091 13.8477C10.7587 13.8477 13.8618 10.7478 13.8618 6.92387C13.8618 3.09992 10.7587 0 6.93091 0C3.10307 0 0 3.09992 0 6.92387C0 10.7478 3.10307 13.8477 6.93091 13.8477Z" transform="translate(204.7898 201.0299)" id="Oval-2" fill="#FFFFFF" stroke="none" />
    <path d="M6.93091 13.8477C10.7587 13.8477 13.8618 10.7478 13.8618 6.92387C13.8618 3.09992 10.7587 0 6.93091 0C3.10307 0 0 3.09992 0 6.92387C0 10.7478 3.10307 13.8477 6.93091 13.8477Z" transform="translate(275.1863 164.8019)" id="Oval-2" fill="#FFFFFF" stroke="none" />
    <path d="M6.93091 13.8477C10.7587 13.8477 13.8618 10.7478 13.8618 6.92387C13.8618 3.09992 10.7587 0 6.93091 0C3.10307 0 0 3.09992 0 6.92387C0 10.7478 3.10307 13.8477 6.93091 13.8477Z" transform="translate(356.2489 203.161)" id="Oval-2" fill="#FFFFFF" stroke="none" />
    <path d="M6.93091 13.8477C10.7587 13.8477 13.8618 10.7478 13.8618 6.92387C13.8618 3.09992 10.7587 0 6.93091 0C3.10307 0 0 3.09992 0 6.92387C0 10.7478 3.10307 13.8477 6.93091 13.8477Z" transform="translate(415.9792 232.9958)" id="Oval-2" fill="#FFFFFF" stroke="none" />
    <path d="M6.93091 13.8477C10.7587 13.8477 13.8618 10.7478 13.8618 6.92387C13.8618 3.09992 10.7587 0 6.93091 0C3.10307 0 0 3.09992 0 6.92387C0 10.7478 3.10307 13.8477 6.93091 13.8477Z" transform="translate(477.8429 173.3262)" id="Oval-2" fill="#FFFFFF" stroke="none" />
    <path d="M6.93088 13.8477C10.7587 13.8477 13.8618 10.7478 13.8618 6.92387C13.8618 3.09992 10.7587 0 6.93088 0C3.10306 0 0 3.09992 0 6.92387C0 10.7478 3.10306 13.8477 6.93088 13.8477Z" transform="translate(535.4399 111.5253)" id="Oval-2" fill="#FFFFFF" stroke="none" />
  </g>
</svg>