<?xml version="1.0" encoding="utf-8"?>
<svg width="230px" height="54px" viewBox="0 0 230 54" version="1.1" xmlns:xlink="http://www.w3.org/1999/xlink" xmlns="http://www.w3.org/2000/svg">
  <desc>Created with Lunacy</desc>
  <g id="Group-40-Copy">
    <path d="M21.5805 0.585021C20.4466 -0.32486 19.18 0.0121583 17.8708 0.360524C16.5786 0.704386 15.2448 1.0593 13.9559 0.237021C13.2712 -0.200313 12.6485 0.765687 12.5832 1.65302C12.5665 1.87369 12.5112 2.09035 12.4799 2.30969C11.7012 7.67702 10.9232 13.0444 10.0132 19.3177C10.0129 19.3202 10.0125 19.3233 10.0121 19.3268C9.99337 19.48 9.86809 20.5035 11.3452 20.583C12.4792 20.6444 13.2259 20.2464 13.3879 18.9584C13.8165 15.5537 14.4672 12.171 14.7565 8.75635C15.0479 5.31569 16.0385 2.80769 20.0859 2.78102C21.5092 2.77169 22.3772 1.22369 21.5805 0.585021ZM36.1064 2.49712C36.2682 1.24371 36.4313 -0.0197035 38.2839 0.157687C40.035 0.324936 39.741 1.36442 39.4849 2.26963C39.4174 2.50823 39.3526 2.73751 39.3285 2.93902C38.7112 8.10635 37.9405 13.2557 37.2645 18.417C37.0819 19.8164 36.3259 21.2184 35.0359 20.4817C33.472 19.5884 32.1654 19.9703 30.8387 20.3581C30.3901 20.4892 29.9392 20.621 29.4752 20.7044C24.8439 21.5357 22.0859 19.163 22.2912 13.9917C22.7999 10.3837 23.4292 6.22035 23.9499 2.04435C24.1205 0.671687 24.6825 0.0416874 26.0759 0.162354C27.6482 0.299104 27.456 1.28264 27.2837 2.16414C27.2502 2.3355 27.2174 2.50301 27.1985 2.65969C26.7719 6.17702 26.2192 9.67902 25.7579 13.193C25.4639 15.4244 25.4885 17.5204 28.4765 17.881C31.7305 18.273 34.1819 16.715 34.5685 13.945C35.0905 10.2164 35.5679 6.48102 36.0732 2.74969C36.0846 2.66584 36.0955 2.5815 36.1064 2.49712ZM0.0152142 17.827C-0.133452 16.199 0.819881 15.4117 2.32855 15.0784C3.58055 15.3097 4.61721 15.8064 4.73521 17.313C4.86455 18.959 3.93055 19.9117 2.46455 20.007C1.15588 20.0917 0.147881 19.2764 0.0152142 17.827Z" transform="translate(189.3281 23.13365)" id="Combined-Shape" fill="#FFFFFF" fill-rule="evenodd" stroke="none" />
    <path d="M12.8014 15.5684C13.6552 15.4188 14.5235 15.2667 15.2893 15.35C20.4087 15.906 23.204 18.4133 23.5313 23.6093C23.7967 27.8373 23.1873 32.0313 21.67 36.008C19.652 41.2953 15.84 43.8887 10.19 43.9093C6.75067 43.9213 3.33667 43.5747 0 42.6667L0 40C0.627863 39.7396 0.659606 39.2174 0.690892 38.7027C0.69917 38.5665 0.707417 38.4308 0.726667 38.3007C1.41133 33.6993 2.15933 29.106 2.726 24.4907C3 22.264 4.572 22.1687 6.094 22.2093C7.82667 22.2551 7.54278 23.3775 7.30329 24.3244C7.24607 24.5506 7.19138 24.7669 7.16733 24.956C6.65 29.02 5.93733 33.0587 5.38667 37.1187C5.36591 37.2713 5.33352 37.4301 5.30054 37.5919C5.14177 38.3704 4.96929 39.2162 6.01533 39.7593C9.576 41.6067 15.884 39.3373 17.378 35.5407C18.732 32.1 19.1387 28.43 19.1747 24.7833C19.2113 21.052 17.362 19.3473 13.544 19.3787C10.7827 19.4013 8.02133 19.7293 5.26733 19.996C3.79067 20.1387 3.27467 19.682 3.51267 18.142C4.292 13.108 5.022 8.06467 5.66067 3.01067C5.82533 1.70733 6.5 0.849333 7.33333 0L9.33333 0C10.022 0.915333 10.314 1.88933 10.0913 3.06933C9.784 4.69933 9.59467 6.354 9.40467 8.00333C9.32587 8.68819 9.1698 9.41808 9.01336 10.1497C8.64305 11.8816 8.27063 13.6234 8.916 14.8007C9.63992 16.1223 11.195 15.8498 12.8014 15.5684ZM95.9653 32.698C96.21 31.5047 96.4527 30.3053 96.5947 29.0973C97.874 18.2467 94.9733 15.0153 84.1273 15.5753C81.8267 15.6947 81.79 14.7447 82.0213 13.106C82.4853 9.816 82.8767 6.51467 83.3993 3.234C83.6313 1.78333 83.35 0.696667 82 0L80.6667 0C79.1827 0.920667 79.04 2.48533 78.8173 3.97667C78.3273 7.264 77.8787 10.5567 77.4367 13.8507C76.6133 19.9927 76.6207 19.9933 82.8587 19.4387C91.4607 18.6727 93.074 20.3573 92.0753 29.074C91.962 30.0633 91.8747 31.0613 91.6747 32.0347C90.3173 38.652 88.074 40.2433 81.306 39.988C78.806 39.8933 78.3147 38.892 78.6907 36.714C79.3507 32.8947 79.978 29.0647 80.4307 25.2173C80.4563 25.0001 80.5323 24.7423 80.6125 24.4705C80.9082 23.4681 81.2599 22.276 79.3413 22.2293C77.69 22.1893 76.122 22.4093 75.9513 24.848C75.704 28.376 75.0573 31.8773 74.5453 35.3847C73.951 39.4585 73.6512 41.4985 74.5313 42.5612C75.4144 43.6274 77.4854 43.7097 81.6387 43.8753C89.8513 44.2027 94.3153 40.7253 95.9653 32.698ZM186.667 0L184.667 0C182.659 3.01 183.041 6.588 182.362 9.906C181.251 15.3247 181.339 15.3427 175.924 15.3727C169.879 15.406 166.033 17.9327 163.963 23.5807C162.505 27.5573 161.787 31.728 162.032 35.9833C162.274 40.186 164.545 42.7527 168.626 43.612C171.832 44.2873 174.999 43.8237 178.161 43.3609C178.838 43.2617 179.515 43.1625 180.193 43.0747C181.534 42.9013 181.827 41.834 182.001 40.6393C182.766 35.3753 183.512 30.1053 184.444 24.8693C184.76 23.0927 184.211 22.4973 182.564 22.2413C180.849 21.9753 180.179 22.5547 179.961 24.2753C179.461 28.232 178.457 32.15 178.263 36.1133C178.097 39.5087 176.486 40.244 173.632 39.974C173.277 39.9403 172.918 39.9502 172.559 39.9601C172.25 39.9686 171.942 39.9771 171.635 39.958C168.071 39.7373 166.609 38.3033 166.525 34.7753C166.442 31.312 166.977 27.9053 168.03 24.6173C169.208 20.936 171.343 19.358 175.178 19.3767C177.609 19.3887 180.048 19.636 182.463 19.94C184.261 20.1673 185.292 19.9787 185.568 17.7727C186.187 12.828 187.055 7.91 187.959 3.00667C188.225 1.57 187.569 0.797333 186.667 0ZM125.085 15.0113C125.925 15.0633 127.371 15.0653 128.79 15.256C133.143 15.8407 135.427 18.3207 135.013 22.7287C134.433 28.902 133.418 35.0333 132.616 41.186C132.39 42.9213 131.297 43.3327 129.785 43.2173C127.984 43.08 128.083 41.9167 128.278 40.5833C128.695 37.734 128.987 34.8653 129.413 32.0173C129.641 30.4993 129.298 29.672 127.573 29.8C125.915 29.9233 124.235 29.8173 122.591 30.024C118.981 30.478 117.101 33.1907 117.652 36.9527C118.023 39.4907 119.71 40.188 123.726 39.598C123.923 39.5689 124.146 39.4965 124.376 39.4219C125.122 39.1797 125.94 38.9137 126.196 40.0267C126.467 41.204 126.005 42.304 124.448 42.7567C122.039 43.4573 119.635 43.734 117.243 43.0867C114.744 42.41 113.415 40.6413 113.21 37.9973C112.843 33.2673 114.395 29.7993 117.795 28.0973C120.773 26.6067 124 26.522 127.225 26.606C129.036 26.6527 130.546 26.586 130.585 24.1727C130.587 24.1013 130.588 24.0301 130.589 23.9589C130.626 21.8513 130.662 19.8301 128.009 19.122C125.975 18.579 123.948 18.775 121.92 18.9712C121.194 19.0414 120.467 19.1116 119.741 19.148C119.568 19.1568 119.381 19.1852 119.19 19.2142C118.395 19.335 117.535 19.4658 117.335 18.226C117.111 16.832 117.698 15.7947 119.188 15.592C120.943 15.3533 122.715 15.238 125.085 15.0113ZM151.626 15.1107C149.615 15.194 147.689 15.6453 145.833 16.4653C145.73 16.5107 145.629 16.571 145.526 16.6324C145.148 16.8579 144.741 17.1002 144.121 16.69C140.715 14.4313 139.859 14.8707 139.332 18.8153C138.391 25.852 137.391 32.8813 136.419 39.914C136.385 40.1535 136.329 40.4029 136.273 40.6526C136.014 41.8019 135.752 42.9595 137.727 43.212C139.929 43.4927 140.533 42.312 140.779 40.3073C141.453 34.8033 142.329 29.324 143.15 23.8393C143.665 20.4027 147.291 18.3687 151.648 19.0333C154.698 19.4993 155.68 21.2673 155.108 25.3533C154.4 30.4067 153.678 35.458 152.934 40.506C152.928 40.5474 152.922 40.5888 152.916 40.6302C152.732 41.8649 152.556 43.0459 154.343 43.2027C155.777 43.3287 157.055 43.1567 157.303 41.3527C158.133 35.308 158.967 29.2633 159.692 24C159.891 17.7007 157.088 14.884 151.626 15.1107ZM114.621 16.0713C114.517 15.1227 113.829 15.1489 113.172 15.1739C113.048 15.1786 112.926 15.1832 112.808 15.1813C111.824 15.1652 110.848 15.5181 109.887 15.8652C108.118 16.5049 106.403 17.1248 104.794 15.378C102.433 15.2573 102.245 16.6447 102.053 18.0694C102.045 18.1247 102.038 18.18 102.03 18.2353C101.028 25.4807 99.9953 32.722 98.9933 39.9673C98.9641 40.1791 98.9199 40.3986 98.8756 40.6191C98.6376 41.8018 98.3937 43.0141 100.415 43.2187C102.37 43.4167 103.161 42.5187 103.386 40.5793C103.87 36.3987 104.936 32.2547 105.083 28.072C105.273 22.624 106.791 18.8427 113.025 18.8247C113.241 18.824 113.48 18.7787 113.671 18.68C114.781 18.11 114.729 17.0553 114.621 16.0713ZM74.5493 15.9787C73.3607 15.6233 71.8407 15.3333 70.8893 16.6733C70.45 17.2913 70.2413 18.0767 69.9493 18.7947C67.404 25.0607 64.8753 31.334 62.3027 37.5887C62.2431 37.7335 62.1936 37.8973 62.1429 38.065C61.9345 38.7539 61.7061 39.5093 60.6827 39.2873C59.9064 39.1187 59.9038 38.4651 59.9014 37.8527C59.9006 37.6661 59.8999 37.4834 59.8773 37.3193C59.006 30.9433 58.0727 24.5727 57.3913 18.1753C57.1553 15.96 56.046 15.7133 54.29 15.8193C52.321 15.9373 52.5381 17.1677 52.7383 18.3027C52.7643 18.45 52.7901 18.5958 52.8107 18.7373C53.8347 25.7627 54.9273 32.7787 55.9693 39.8013C56.1527 41.0393 56.296 42.6147 57.4727 42.9513C60.2507 43.7479 59.47 45.1498 58.7224 46.4919C58.596 46.7189 58.4705 46.9443 58.3633 47.1647C57.164 49.6333 54.914 49.9133 52.4347 49.9433C52.0225 49.9482 51.5286 49.8232 51.0222 49.6949C49.5999 49.3347 48.0794 48.9496 47.9973 51.3513C47.9227 53.5334 49.2902 53.4207 50.5926 53.3134C51.2443 53.2598 51.8798 53.2074 52.31 53.4447C57.898 53.4733 60.2693 52.1313 62.4427 47.176C66.6287 37.6313 70.6453 28.012 74.684 18.4033C74.7485 18.2495 74.8483 18.0783 74.9528 17.8991C75.3632 17.1952 75.8459 16.3671 74.5493 15.9787ZM44.3467 18.4253C44.5573 16.8707 44.928 15.6213 46.9213 15.73C48.2567 15.8027 49.042 16.1653 48.826 17.6947C47.696 25.6993 46.612 33.7113 45.456 41.712C45.0733 44.358 42.562 43.944 41.692 43.1053C40.5414 41.9966 39.7392 42.2876 38.8093 42.625C38.6282 42.6907 38.4423 42.7581 38.248 42.8173C36.9807 43.2033 35.6993 43.6213 34.3933 43.79C28.58 44.5433 25.284 41.5227 25.4187 34.512C26.11 29.6987 27.016 23.788 27.7807 17.858C28.042 15.8327 29.2633 15.6193 30.826 15.7887C32.5139 15.9717 32.3104 17.0824 32.1261 18.0888C32.0942 18.263 32.0629 18.4341 32.042 18.5967C31.464 23.0993 30.686 27.58 30.2233 32.094C30.1779 32.5357 30.1039 32.9939 30.029 33.4584C29.6762 35.6445 29.3014 37.967 31.7747 39.3367C34.6601 40.9343 37.5566 39.7231 40.3149 38.5697C40.4423 38.5165 40.5693 38.4634 40.696 38.4107C41.9067 37.9073 41.828 36.6367 41.978 35.5393C42.7587 29.834 43.5733 24.1327 44.3467 18.4253Z" id="Combined-Shape" fill="#FFFFFF" fill-rule="evenodd" stroke="none" />
  </g>
</svg>