<svg id="Слой_1" data-name="Слой 1" xmlns="http://www.w3.org/2000/svg" xmlns:xlink="http://www.w3.org/1999/xlink" viewBox="0 0 711.81 160.2"><defs><style>.cls-1,.cls-5,.cls-6{fill:none;}.cls-2,.cls-7{fill:#3d4049;}.cls-3{fill:#fff;}.cls-4{clip-path:url(#clip-path);}.cls-5{stroke:#2e5bff;stroke-opacity:0.08;stroke-width:1.8px;}.cls-6{stroke:#d5dee7;stroke-width:0.9px;}.cls-7{fill-rule:evenodd;}.cls-8{fill:#c1f6d4;}.cls-9{fill:#2c8cf5;}</style><clipPath id="clip-path" transform="translate(0.45 0.45)"><path class="cls-1" d="M22.05.45h201.6c.35,0,.71,0,1.06,0s.71,0,1.06.07l1,.13,1,.18c.35.07.7.15,1,.24s.68.18,1,.28.67.21,1,.33l1,.38,1,.43c.32.15.63.31.94.48s.62.34.92.52.61.37.9.57l.87.61.83.65c.28.23.54.46.81.7s.51.48.76.73.5.5.73.76.47.53.7.81.44.55.65.83l.61.87c.2.29.38.59.57.89s.35.62.52.93.33.62.48.94.29.65.43,1,.26.66.38,1,.23.67.33,1,.2.68.28,1,.17.69.23,1,.13.69.19,1,.09.7.13,1.05.06.71.07,1.06,0,.71,0,1.06v115.2c0,.35,0,.71,0,1.06s0,.71-.07,1.06-.08.7-.13,1-.12.7-.19,1-.14.7-.23,1-.18.68-.28,1-.21.67-.33,1-.25.66-.38,1-.28.65-.43,1-.31.63-.48.94-.34.62-.52.92-.37.61-.57.9l-.61.87c-.21.28-.43.56-.65.83s-.46.54-.7.81-.48.51-.73.76-.5.5-.76.73-.53.47-.81.7l-.83.65-.87.61c-.29.2-.59.38-.9.57s-.61.35-.92.52-.62.33-.94.48l-1,.43-1,.38c-.34.12-.67.23-1,.33s-.68.2-1,.28-.69.17-1,.23l-1,.19-1,.13c-.35,0-.71.06-1.06.07s-.71,0-1.06,0H22.05c-.35,0-.71,0-1.06,0s-.71,0-1.06-.07l-1.05-.13-1-.19c-.35-.06-.7-.14-1-.23s-.68-.18-1-.28-.67-.21-1-.33l-1-.38-1-.43c-.32-.15-.63-.31-.94-.48l-.93-.52c-.3-.19-.6-.37-.89-.57l-.87-.61L8.35,154c-.28-.23-.54-.46-.81-.7s-.51-.48-.76-.73-.5-.5-.73-.76-.47-.53-.7-.81-.44-.55-.65-.83l-.61-.87q-.3-.44-.57-.9c-.18-.3-.35-.61-.52-.92s-.33-.62-.48-.94-.29-.65-.43-1-.26-.66-.38-1-.23-.67-.33-1-.2-.68-.28-1-.17-.69-.23-1-.13-.69-.19-1-.09-.7-.13-1-.06-.71-.07-1.06,0-.71,0-1.06V22.05c0-.35,0-.71,0-1.06s0-.71.07-1.06.08-.7.13-1.05.12-.7.19-1,.14-.7.23-1,.18-.68.28-1,.21-.67.33-1,.25-.66.38-1,.28-.65.43-1,.31-.63.48-.94.34-.62.52-.93.37-.6.57-.89l.61-.87c.21-.28.43-.56.65-.83s.46-.54.7-.81.48-.51.73-.76.5-.5.76-.73.53-.47.81-.7l.83-.65.87-.61c.29-.2.59-.39.89-.57L11.87,3c.31-.17.62-.33.94-.48l1-.43,1-.38c.34-.12.67-.23,1-.33s.68-.2,1-.28.69-.17,1-.24l1-.18L19.93.55c.35,0,.71-.06,1.06-.07s.71,0,1.06,0Z"/></clipPath></defs><title>top</title><g id="Сокращенное-название-франшизы"><path class="cls-2" d="M367.33,51.27a7.62,7.62,0,1,1,0-15.24A7.38,7.38,0,0,1,371,37a7,7,0,0,1,2.64,2.61l-1.7,1a4.76,4.76,0,0,0-1.88-2,5.48,5.48,0,0,0-2.77-.72,5.56,5.56,0,0,0-5.75,5.73,5.61,5.61,0,0,0,1.61,4.08,5.54,5.54,0,0,0,4.14,1.63,5.48,5.48,0,0,0,2.77-.72A4.75,4.75,0,0,0,372,46.72l1.7,1a6.83,6.83,0,0,1-2.63,2.62A7.33,7.33,0,0,1,367.33,51.27Zm252.24-9.19a5.33,5.33,0,0,1,0,7.35,6.24,6.24,0,0,1-3.93,1.78v4h-1.81v-4a6.24,6.24,0,0,1-3.93-1.78,5.36,5.36,0,0,1,0-7.35,6.22,6.22,0,0,1,3.93-1.79v-4h1.81v4A6.25,6.25,0,0,1,619.57,42.08Zm-235,7.6a5.64,5.64,0,0,1-7.85,0,5.53,5.53,0,0,1,3.92-9.45,5.37,5.37,0,0,1,3.93,1.6,5.59,5.59,0,0,1,0,7.85Zm20.16-9.45a5,5,0,0,1,3.76,1.61,5.72,5.72,0,0,1,0,7.83,5,5,0,0,1-3.76,1.6,4.46,4.46,0,0,1-4-2.07v6H399V40.5h1.83v1.81A4.44,4.44,0,0,1,404.78,40.23Zm18,.27H421v1.81a4.44,4.44,0,0,0-4-2.08,5,5,0,0,0-3.76,1.61,5.72,5.72,0,0,0,0,7.83,5,5,0,0,0,3.76,1.6,4.46,4.46,0,0,0,4-2.07V51h1.83Zm23,8.28a3.46,3.46,0,0,1-1.29-2.19h8.8a5.76,5.76,0,0,0,.06-.82A5.62,5.62,0,0,0,452,41.86a4.81,4.81,0,0,0-3.77-1.63,5.27,5.27,0,0,0-4,1.57,5.41,5.41,0,0,0-1.54,4,5.33,5.33,0,0,0,1.57,4,5.49,5.49,0,0,0,4.06,1.56,5.13,5.13,0,0,0,4.62-2.37L451.38,48a3.29,3.29,0,0,1-3,1.53A4.07,4.07,0,0,1,445.84,48.78Zm42.27.9a5.64,5.64,0,0,1-7.85,0,5.53,5.53,0,0,1,3.92-9.45,5.37,5.37,0,0,1,3.93,1.6,5.59,5.59,0,0,1,0,7.85Zm6.35-.9a3.46,3.46,0,0,1-1.29-2.19H502a5.76,5.76,0,0,0,.06-.82,5.66,5.66,0,0,0-1.46-3.91,4.81,4.81,0,0,0-3.77-1.63,5.3,5.3,0,0,0-4,1.57,5.45,5.45,0,0,0-1.53,4,5.37,5.37,0,0,0,1.56,4,5.51,5.51,0,0,0,4.07,1.56,5.15,5.15,0,0,0,4.62-2.37L500,48a3.29,3.29,0,0,1-3,1.53A4.05,4.05,0,0,1,494.46,48.78Zm37.3-8.28h-1.82v1.81a4.46,4.46,0,0,0-4-2.08,5,5,0,0,0-3.76,1.61,5.69,5.69,0,0,0,0,7.83,5,5,0,0,0,3.76,1.6,4.47,4.47,0,0,0,4-2.07V51h1.82Zm8.45,5.13A2.51,2.51,0,0,1,542,48.12a2.85,2.85,0,0,1-1.05,2.24,4.39,4.39,0,0,1-3,.91,4.13,4.13,0,0,1-4.22-2.51l1.53-.91a2.56,2.56,0,0,0,2.71,1.72,2.61,2.61,0,0,0,1.63-.45,1.42,1.42,0,0,0,.57-1.16,1.26,1.26,0,0,0-.47-1,1.88,1.88,0,0,0-1.27-.4h-1.53V44.87H538a1.81,1.81,0,0,0,1.24-.39,1.46,1.46,0,0,0-.07-2.15,2.2,2.2,0,0,0-1.42-.42,2.36,2.36,0,0,0-2.39,1.49l-1.5-.86a4.51,4.51,0,0,1,6.61-1.43,2.8,2.8,0,0,1,1,2.16A2.56,2.56,0,0,1,540.21,45.63Zm23-5.13H565V51H563.2V49.2a4.46,4.46,0,0,1-4,2.07,5,5,0,0,1-3.76-1.6,5.72,5.72,0,0,1,0-7.83,5,5,0,0,1,3.76-1.61,4.44,4.44,0,0,1,4,2.08Zm30.9,8.28a3.46,3.46,0,0,1-1.29-2.19h8.8a5.76,5.76,0,0,0,.06-.82,5.62,5.62,0,0,0-1.46-3.91,4.81,4.81,0,0,0-3.77-1.63,5.27,5.27,0,0,0-4,1.57,5.41,5.41,0,0,0-1.54,4,5.33,5.33,0,0,0,1.57,4,5.49,5.49,0,0,0,4.06,1.56,5.13,5.13,0,0,0,4.62-2.37L599.64,48a3.29,3.29,0,0,1-3,1.53A4.07,4.07,0,0,1,594.1,48.78Zm38.65-6.94A5,5,0,0,0,629,40.23a4.46,4.46,0,0,0-4,2.08V40.5H623.2V55.2H625v-6a4.47,4.47,0,0,0,4,2.07,5,5,0,0,0,3.76-1.6,5.69,5.69,0,0,0,0-7.83Zm12.43-1.34H647V51h-1.83V49.2a4.44,4.44,0,0,1-4,2.07,5,5,0,0,1-3.76-1.6,5.69,5.69,0,0,1,0-7.83,5,5,0,0,1,3.76-1.61,4.43,4.43,0,0,1,4,2.08Zm51.18,5.13a2.52,2.52,0,0,1,1.75,2.49,2.83,2.83,0,0,1-1.06,2.24,4.37,4.37,0,0,1-3,.91,4.13,4.13,0,0,1-4.22-2.51l1.54-.91a2.54,2.54,0,0,0,2.7,1.72,2.59,2.59,0,0,0,1.63-.45A1.4,1.4,0,0,0,696.3,48a1.29,1.29,0,0,0-.47-1,1.9,1.9,0,0,0-1.27-.4H693V44.87h1.14a1.82,1.82,0,0,0,1.24-.39,1.35,1.35,0,0,0,.44-1.06,1.32,1.32,0,0,0-.52-1.09,2.17,2.17,0,0,0-1.42-.42,2.37,2.37,0,0,0-2.39,1.49L690,42.54a4.49,4.49,0,0,1,6.6-1.43,2.77,2.77,0,0,1,1,2.16A2.56,2.56,0,0,1,696.36,45.63ZM395,51h2.27l-5.19-5.42,5-5.08h-2.35l-4.54,4.64V40.5H388.4V51h1.82V46Zm44.84-1.74h1.45v4.56h-1.81V51H425.57V40.5h1.82v8.76h4.41V40.5h1.83v8.76H438V40.5h1.83Zm22.93-8.76h1.83V51h-1.83V46.61h-5.44V51h-1.83V40.5h1.83v4.37h5.44Zm13.69,0h-1.83v4.37h-5.43V40.5h-1.83V51h1.83V46.61h5.43V51h1.83Zm40.17,0h1.83V51h-1.83V46.61h-5.43V51h-1.83V40.5h1.83v4.37h5.43ZM552.53,48a2.45,2.45,0,0,0-1.61-2.44,2.48,2.48,0,0,0,1.13-2.24,2.67,2.67,0,0,0-.86-2.07,3.46,3.46,0,0,0-2.44-.79h-4.83V51h5.25a3.44,3.44,0,0,0,2.49-.83A2.8,2.8,0,0,0,552.53,48Zm24.36-7.54h-1.82v4.37h-5.44V40.5H567.8V51h1.83V46.61h5.44V51h1.82Zm10.4,0h1.47V51H587V43.63L581.14,51h-1.47V40.5h1.8v7.37Zm71.59,0h-1.83v4.37h-5.44V40.5h-1.83V51h1.83V46.61h5.44V51h1.83Zm15.33,0H676V51H661.65V40.5h1.83v8.76h4.45V40.5h1.83v8.76h4.45Zm13.71,0h-1.47l-5.82,7.37V40.5h-1.8V51h1.47l5.81-7.37V51h1.81Zm19.2,4.72a3.72,3.72,0,0,0-2.61-.94h-2.6V40.5h-1.83V51h4.43a3.76,3.76,0,0,0,2.61-.93,3.35,3.35,0,0,0,0-4.85Zm4.24-4.72h-1.83V51h1.83ZM445.75,42.78a3.6,3.6,0,0,1,2.43-.83,3.37,3.37,0,0,1,2.21.78A3.53,3.53,0,0,1,451.57,45h-7A3.58,3.58,0,0,1,445.75,42.78Zm48.61,0A3.64,3.64,0,0,1,496.8,42a3.35,3.35,0,0,1,2.2.78A3.48,3.48,0,0,1,500.18,45h-7A3.57,3.57,0,0,1,494.36,42.78Zm99.65,0a3.6,3.6,0,0,1,2.43-.83,3.37,3.37,0,0,1,2.21.78A3.53,3.53,0,0,1,599.83,45h-7A3.53,3.53,0,0,1,594,42.78ZM404.55,49.51a3.56,3.56,0,0,0,2.64-1.08,3.89,3.89,0,0,0,0-5.36A3.56,3.56,0,0,0,404.55,42a3.6,3.6,0,0,0-2.67,1.08,3.89,3.89,0,0,0,0,5.36A3.6,3.6,0,0,0,404.55,49.51Zm15.35-1.08a3.82,3.82,0,0,1-5.32,0,3.89,3.89,0,0,1,0-5.36,3.82,3.82,0,0,1,5.32,0,3.89,3.89,0,0,1,0,5.36Zm109,0a3.82,3.82,0,0,1-5.32,0,3.89,3.89,0,0,1,0-5.36,3.82,3.82,0,0,1,5.32,0,3.89,3.89,0,0,1,0,5.36Zm30.59,1.08a3.6,3.6,0,0,0,2.67-1.08,3.89,3.89,0,0,0,0-5.36A3.6,3.6,0,0,0,559.46,42a3.56,3.56,0,0,0-2.64,1.08,3.89,3.89,0,0,0,0,5.36A3.56,3.56,0,0,0,559.46,49.51Zm71.95-1.08a3.8,3.8,0,0,1-5.31,0,3.87,3.87,0,0,1,0-5.36,3.8,3.8,0,0,1,5.31,0,3.89,3.89,0,0,1,0,5.36Zm10,1.08a3.59,3.59,0,0,0,2.66-1.08,3.89,3.89,0,0,0,0-5.36,3.8,3.8,0,0,0-5.31,0,3.89,3.89,0,0,0,0,5.36A3.6,3.6,0,0,0,641.45,49.51Zm-260.76,0a3.74,3.74,0,1,0,0-7.48,3.53,3.53,0,0,0-2.62,1.08,3.74,3.74,0,0,0,2.62,6.4Zm103.49,0a3.77,3.77,0,1,0-3.7-3.74,3.64,3.64,0,0,0,1.07,2.67A3.6,3.6,0,0,0,484.18,49.49Zm126.06-3.74a3.43,3.43,0,0,0,1,2.46,4.32,4.32,0,0,0,2.63,1.24V42.06a4.19,4.19,0,0,0-2.63,1.21A3.47,3.47,0,0,0,610.24,45.75Zm5.4,3.7a4.29,4.29,0,0,0,2.62-1.24,3.65,3.65,0,0,0,0-4.91,4.18,4.18,0,0,0-2.62-1.24Zm-69.93-7.31h3c1.06,0,1.59.45,1.59,1.34s-.53,1.41-1.59,1.41h-3Zm160.11,6.71a2,2,0,0,1-1.31.45h-2.6V46h2.6a2,2,0,0,1,1.31.46,1.54,1.54,0,0,1,.54,1.22A1.49,1.49,0,0,1,705.82,48.85ZM550.3,49a1.83,1.83,0,0,1-1.23.37h-3.36V46.51h3.36a1.83,1.83,0,0,1,1.23.37,1.27,1.27,0,0,1,.43,1A1.39,1.39,0,0,1,550.3,49Z" transform="translate(0.45 0.45)"/></g><g id="Суммарный-коэффициент"><path class="cls-2" d="M361.82,121.07a7.42,7.42,0,0,0,5.51,2.21,7.33,7.33,0,0,0,3.72-1,6.83,6.83,0,0,0,2.63-2.62l-1.7-1a4.75,4.75,0,0,1-1.88,1.92,5.48,5.48,0,0,1-2.77.72,5.54,5.54,0,0,1-4.14-1.63,6,6,0,0,1,0-8.17,5.55,5.55,0,0,1,4.14-1.64,5.48,5.48,0,0,1,2.77.72,4.76,4.76,0,0,1,1.88,2l1.7-1A7,7,0,0,0,371,109a7.68,7.68,0,0,0-9.22,12.08Zm166-7a5.33,5.33,0,0,1,0,7.35,6.21,6.21,0,0,1-3.93,1.78v4h-1.8v-4a6.21,6.21,0,0,1-3.93-1.78,5.33,5.33,0,0,1,0-7.35,6.22,6.22,0,0,1,3.93-1.79v-4h1.8v4A6.22,6.22,0,0,1,527.86,114.08Zm15.64,3.67a5.07,5.07,0,0,0-1.47-3.67,6.22,6.22,0,0,0-3.92-1.79v-4H536.3v4a6.22,6.22,0,0,0-3.93,1.79,5.33,5.33,0,0,0,0,7.35,6.21,6.21,0,0,0,3.93,1.78v4h1.81v-4a6.21,6.21,0,0,0,3.92-1.78A5.09,5.09,0,0,0,543.5,117.75Zm-76.1-6.82v-1.6h5.67v1.6Zm-45.55,1.57h1.83V123h-1.83v-1.8a4.47,4.47,0,0,1-4,2.08,5.05,5.05,0,0,1-3.76-1.61,5.72,5.72,0,0,1,0-7.83,5,5,0,0,1,3.76-1.61,4.44,4.44,0,0,1,4,2.08ZM436,113.84a5,5,0,0,0-3.75-1.61,4.44,4.44,0,0,0-4,2.08V112.5h-1.83v14.7h1.83v-6a4.47,4.47,0,0,0,4,2.08,5,5,0,0,0,3.75-1.61,5.69,5.69,0,0,0,0-7.83Zm66.24,7.84a5.61,5.61,0,0,1-7.85,0,5.53,5.53,0,0,1,3.92-9.45,5.37,5.37,0,0,1,3.93,1.6,5.56,5.56,0,0,1,0,7.85Zm11.43-7.9a5.11,5.11,0,0,0-3.87-1.55A5.54,5.54,0,0,0,507,113a4.72,4.72,0,0,0-1.89,2l1.58.9a3.07,3.07,0,0,1,1.23-1.37,3.54,3.54,0,0,1,1.94-.52,3.31,3.31,0,0,1,2.27.8,3.63,3.63,0,0,1,1.15,2.1h-4.68v1.72h4.68a3.6,3.6,0,0,1-1.17,2.1,3.35,3.35,0,0,1-2.29.8,3.76,3.76,0,0,1-2-.52,2.92,2.92,0,0,1-1.17-1.39l-1.55.9a4.38,4.38,0,0,0,1.83,2,5.64,5.64,0,0,0,2.94.75,5.13,5.13,0,0,0,3.88-1.57,6,6,0,0,0,0-7.93Zm70.79,7a3.46,3.46,0,0,1-1.29-2.19H592a5.76,5.76,0,0,0,.06-.82,5.65,5.65,0,0,0-1.45-3.91,4.83,4.83,0,0,0-3.77-1.63,5.28,5.28,0,0,0-4,1.57,5.41,5.41,0,0,0-1.54,4,5.33,5.33,0,0,0,1.57,4,5.49,5.49,0,0,0,4.06,1.57,5.14,5.14,0,0,0,4.62-2.38L590,120a3.29,3.29,0,0,1-3,1.53A4.07,4.07,0,0,1,584.46,120.78ZM385,112.5h-2l-3,8.23-3.59-8.23h-1.93L379.09,123l-.16.38c-.61,1.5-1.55,2.2-2.84,2.1v1.7a3.92,3.92,0,0,0,2.77-.83,5.84,5.84,0,0,0,1.89-2.72Zm12,0V123h-1.78v-7.62L392,120.76h-.23l-3.34-5.38V123h-1.81V112.5h1.95l3.3,5.32,3.3-5.32ZM410.36,123V112.5h-1.95l-3.3,5.32-3.29-5.32h-2V123h1.81v-7.62l3.34,5.38h.23l3.34-5.38V123ZM447,112.5h1.83V123H447v-4.39h-5.44V123h-1.83V112.5h1.83v4.37H447Zm11.64,4.72a3.72,3.72,0,0,0-2.61-.94h-2.61V112.5h-1.82V123H456a3.76,3.76,0,0,0,2.61-.93,3.35,3.35,0,0,0,0-4.85Zm4.23-4.72h-1.82V123h1.82Zm10.42,0h1.47V123H473v-7.37L467.15,123h-1.47V112.5h1.8v7.37ZM489.41,123h2.27l-5.19-5.42,5-5.08h-2.36l-4.53,4.64V112.5h-1.83V123h1.83v-5Zm63.88-10.5h1.47V123H553v-7.37L547.14,123h-1.47V112.5h1.8v7.37Zm14.78,8.76h-1.72V112.5h-1.83v8.76h-5.16V112.5h-1.83V123h8.74v2.82h1.8Zm9.58-8.76h1.47V123h-1.81v-7.37L571.5,123H570V112.5h1.8v7.37Zm23.75,0h1.83V123H601.4v-4.39H596V123h-1.83V112.5H596v4.37h5.44Zm12.41,1.77V112.5h-9v1.77h3.59V123h1.83v-8.73Zm-29.44.51a3.61,3.61,0,0,1,2.44-.83,3.35,3.35,0,0,1,2.2.78,3.53,3.53,0,0,1,1.18,2.27h-7A3.63,3.63,0,0,1,584.37,114.78Zm-166.26,6.73a3.6,3.6,0,0,0,2.67-1.08,3.89,3.89,0,0,0,0-5.36,3.6,3.6,0,0,0-2.67-1.08,3.56,3.56,0,0,0-2.64,1.08,3.89,3.89,0,0,0,0,5.36A3.56,3.56,0,0,0,418.11,121.51Zm16.55-1.08a3.8,3.8,0,0,1-5.31,0,3.89,3.89,0,0,1,0-5.36,3.8,3.8,0,0,1,5.31,0,3.89,3.89,0,0,1,0,5.36Zm63.65,1.06a3.74,3.74,0,1,0,0-7.48,3.67,3.67,0,0,0-3.69,3.74,3.66,3.66,0,0,0,3.69,3.74Zm20.22-3.74a3.43,3.43,0,0,0,1,2.46,4.37,4.37,0,0,0,2.64,1.24v-7.39a4.24,4.24,0,0,0-2.64,1.21A3.47,3.47,0,0,0,518.53,117.75Zm5.4,3.7a4.32,4.32,0,0,0,2.63-1.24,3.68,3.68,0,0,0,0-4.91,4.21,4.21,0,0,0-2.63-1.24Zm9.73-1.24a3.46,3.46,0,0,1-.95-2.46,3.51,3.51,0,0,1,.95-2.48,4.24,4.24,0,0,1,2.64-1.21v7.39A4.37,4.37,0,0,1,533.66,120.21Zm7.07,0a4.29,4.29,0,0,1-2.62,1.24v-7.39a4.18,4.18,0,0,1,2.62,1.24,3.65,3.65,0,0,1,0,4.91Zm-83.38.64a2,2,0,0,1-1.31.45h-2.61V118H456a2,2,0,0,1,1.31.46,1.54,1.54,0,0,1,.54,1.22A1.49,1.49,0,0,1,457.35,120.85Z" transform="translate(0.45 0.45)"/></g><g id="Group-11"><g id="Card-Base-Copy"><path id="path_1" data-name="path 1" class="cls-3" d="M22.05.45h201.6c.35,0,.71,0,1.06,0s.71,0,1.06.07l1,.13,1,.18c.35.07.7.15,1,.24s.68.18,1,.28.67.21,1,.33l1,.38,1,.43c.32.15.63.31.94.48s.62.34.92.52.61.37.9.57l.87.61.83.65c.28.23.54.46.81.7s.51.48.76.73.5.5.73.76.47.53.7.81.44.55.65.83l.61.87c.2.29.38.59.57.89s.35.62.52.93.33.62.48.94.29.65.43,1,.26.66.38,1,.23.67.33,1,.2.68.28,1,.17.69.23,1,.13.69.19,1,.09.7.13,1.05.06.71.07,1.06,0,.71,0,1.06v115.2c0,.35,0,.71,0,1.06s0,.71-.07,1.06-.08.7-.13,1-.12.7-.19,1-.14.7-.23,1-.18.68-.28,1-.21.67-.33,1-.25.66-.38,1-.28.65-.43,1-.31.63-.48.94-.34.62-.52.92-.37.61-.57.9l-.61.87c-.21.28-.43.56-.65.83s-.46.54-.7.81-.48.51-.73.76-.5.5-.76.73-.53.47-.81.7l-.83.65-.87.61c-.29.2-.59.38-.9.57s-.61.35-.92.52-.62.33-.94.48l-1,.43-1,.38c-.34.12-.67.23-1,.33s-.68.2-1,.28-.69.17-1,.23l-1,.19-1,.13c-.35,0-.71.06-1.06.07s-.71,0-1.06,0H22.05c-.35,0-.71,0-1.06,0s-.71,0-1.06-.07l-1.05-.13-1-.19c-.35-.06-.7-.14-1-.23s-.68-.18-1-.28-.67-.21-1-.33l-1-.38-1-.43c-.32-.15-.63-.31-.94-.48l-.93-.52c-.3-.19-.6-.37-.89-.57l-.87-.61L8.35,154c-.28-.23-.54-.46-.81-.7s-.51-.48-.76-.73-.5-.5-.73-.76-.47-.53-.7-.81-.44-.55-.65-.83l-.61-.87q-.3-.44-.57-.9c-.18-.3-.35-.61-.52-.92s-.33-.62-.48-.94-.29-.65-.43-1-.26-.66-.38-1-.23-.67-.33-1-.2-.68-.28-1-.17-.69-.23-1-.13-.69-.19-1-.09-.7-.13-1-.06-.71-.07-1.06,0-.71,0-1.06V22.05c0-.35,0-.71,0-1.06s0-.71.07-1.06.08-.7.13-1.05.12-.7.19-1,.14-.7.23-1,.18-.68.28-1,.21-.67.33-1,.25-.66.38-1,.28-.65.43-1,.31-.63.48-.94.34-.62.52-.93.37-.6.57-.89l.61-.87c.21-.28.43-.56.65-.83s.46-.54.7-.81.48-.51.73-.76.5-.5.76-.73.53-.47.81-.7l.83-.65.87-.61c.29-.2.59-.39.89-.57L11.87,3c.31-.17.62-.33.94-.48l1-.43,1-.38c.34-.12.67-.23,1-.33s.68-.2,1-.28.69-.17,1-.24l1-.18L19.93.55c.35,0,.71-.06,1.06-.07s.71,0,1.06,0Z" transform="translate(0.45 0.45)"/><g class="cls-4"><path id="path_1-2" data-name="path 1" class="cls-5" d="M22.05.45h201.6c.35,0,.71,0,1.06,0s.71,0,1.06.07l1,.13,1,.18c.35.07.7.15,1,.24s.68.18,1,.28.67.21,1,.33l1,.38,1,.43c.32.15.63.31.94.48s.62.34.92.52.61.37.9.57l.87.61.83.65c.28.23.54.46.81.7s.51.48.76.73.5.5.73.76.47.53.7.81.44.55.65.83l.61.87c.2.29.38.59.57.89s.35.62.52.93.33.62.48.94.29.65.43,1,.26.66.38,1,.23.67.33,1,.2.68.28,1,.17.69.23,1,.13.69.19,1,.09.7.13,1.05.06.71.07,1.06,0,.71,0,1.06v115.2c0,.35,0,.71,0,1.06s0,.71-.07,1.06-.08.7-.13,1-.12.7-.19,1-.14.7-.23,1-.18.68-.28,1-.21.67-.33,1-.25.66-.38,1-.28.65-.43,1-.31.63-.48.94-.34.62-.52.92-.37.61-.57.9l-.61.87c-.21.28-.43.56-.65.83s-.46.54-.7.81-.48.51-.73.76-.5.5-.76.73-.53.47-.81.7l-.83.65-.87.61c-.29.2-.59.38-.9.57s-.61.35-.92.52-.62.33-.94.48l-1,.43-1,.38c-.34.12-.67.23-1,.33s-.68.2-1,.28-.69.17-1,.23l-1,.19-1,.13c-.35,0-.71.06-1.06.07s-.71,0-1.06,0H22.05c-.35,0-.71,0-1.06,0s-.71,0-1.06-.07l-1.05-.13-1-.19c-.35-.06-.7-.14-1-.23s-.68-.18-1-.28-.67-.21-1-.33l-1-.38-1-.43c-.32-.15-.63-.31-.94-.48l-.93-.52c-.3-.19-.6-.37-.89-.57l-.87-.61L8.35,154c-.28-.23-.54-.46-.81-.7s-.51-.48-.76-.73-.5-.5-.73-.76-.47-.53-.7-.81-.44-.55-.65-.83l-.61-.87q-.3-.44-.57-.9c-.18-.3-.35-.61-.52-.92s-.33-.62-.48-.94-.29-.65-.43-1-.26-.66-.38-1-.23-.67-.33-1-.2-.68-.28-1-.17-.69-.23-1-.13-.69-.19-1-.09-.7-.13-1-.06-.71-.07-1.06,0-.71,0-1.06V22.05c0-.35,0-.71,0-1.06s0-.71.07-1.06.08-.7.13-1.05.12-.7.19-1,.14-.7.23-1,.18-.68.28-1,.21-.67.33-1,.25-.66.38-1,.28-.65.43-1,.31-.63.48-.94.34-.62.52-.93.37-.6.57-.89l.61-.87c.21-.28.43-.56.65-.83s.46-.54.7-.81.48-.51.73-.76.5-.5.76-.73.53-.47.81-.7l.83-.65.87-.61c.29-.2.59-.39.89-.57L11.87,3c.31-.17.62-.33.94-.48l1-.43,1-.38c.34-.12.67-.23,1-.33s.68-.2,1-.28.69-.17,1-.24l1-.18L19.93.55c.35,0,.71-.06,1.06-.07s.71,0,1.06,0Z" transform="translate(0.45 0.45)"/></g></g><path id="Rectangle" class="cls-6" d="M29.25,22.05H216.8l.36,0,.35.05.34.06.35.08.34.09.34.11.33.13.32.14.31.16.31.17.3.19.29.21.28.21.27.23.25.25.24.25.24.27.21.28.21.29.19.3.17.31a3,3,0,0,1,.16.31l.14.32c.05.11.09.22.13.33s.08.23.11.34.07.23.09.34.06.23.08.34l.06.35c0,.12,0,.24,0,.35a2.19,2.19,0,0,1,0,.36c0,.11,0,.23,0,.35v36c0,.12,0,.24,0,.35a2.19,2.19,0,0,1,0,.36c0,.11,0,.23,0,.35l-.06.35c0,.11,0,.23-.08.34s-.06.23-.09.34-.07.23-.11.34-.08.22-.13.33l-.14.32a3,3,0,0,1-.16.31l-.17.31-.19.3-.21.29-.21.28-.24.27-.24.25-.25.25-.27.23-.28.21-.29.21-.3.19-.31.17-.31.16-.32.14-.33.13-.34.11-.34.09-.35.08-.34.06-.35,0-.36,0H28.9l-.36,0-.35,0-.35-.06-.34-.08-.34-.09L26.82,72l-.33-.13-.32-.14-.31-.16-.31-.17-.3-.19L25,71l-.28-.21-.27-.23-.25-.25-.25-.25-.23-.27-.21-.28-.21-.29-.19-.3-.17-.31a3,3,0,0,1-.16-.31L22.6,68c-.05-.11-.09-.22-.13-.33s-.08-.23-.11-.34-.07-.23-.09-.34-.06-.23-.08-.34l-.06-.35c0-.12,0-.24-.05-.35s0-.24,0-.36,0-.23,0-.35v-36c0-.12,0-.24,0-.35s0-.24,0-.36,0-.23.05-.35l.06-.35c0-.11,0-.23.08-.34s.06-.23.09-.34.07-.23.11-.34.08-.22.13-.33l.14-.32a3,3,0,0,1,.16-.31l.17-.31.19-.3.21-.29.21-.28.23-.27.25-.25.25-.25.27-.23.28-.21.29-.21.3-.19.31-.17.31-.16.32-.14.33-.13.34-.11.34-.09.34-.08.35-.06.35-.05.36,0Z" transform="translate(0.45 0.45)"/><path id="Rectangle-Copy-11" class="cls-6" d="M29.25,86.85H216.8l.36,0,.35.05.34.06.35.08.34.09.34.11.33.13.32.14.31.16.31.17.3.19.29.21.28.21.27.23.25.25.24.25.24.27.21.28.21.29.19.3.17.31A3,3,0,0,1,223,91l.14.32c.05.11.09.22.13.33s.08.23.11.34.07.23.09.34.06.23.08.34l.06.35c0,.12,0,.24,0,.35a2.19,2.19,0,0,1,0,.36c0,.11,0,.23,0,.35v36c0,.12,0,.24,0,.35a2.19,2.19,0,0,1,0,.36c0,.11,0,.23,0,.35l-.06.35c0,.11,0,.23-.08.34s-.06.23-.09.34-.07.23-.11.34-.08.22-.13.33l-.14.32a3,3,0,0,1-.16.31l-.17.31-.19.3-.21.29-.21.28-.24.27-.24.25-.25.25-.27.23-.28.21-.29.21-.3.19-.31.17-.31.16-.32.14-.33.13-.34.11-.34.09-.35.08-.34.06-.35.05-.36,0H28.9l-.36,0-.35-.05-.35-.06L27.5,137l-.34-.09-.34-.11-.33-.13-.32-.14-.31-.16-.31-.17-.3-.19-.29-.21-.28-.21-.27-.23-.25-.25-.25-.25-.23-.27-.21-.28-.21-.29-.19-.3-.17-.31a3,3,0,0,1-.16-.31l-.14-.32c-.05-.11-.09-.22-.13-.33s-.08-.23-.11-.34-.07-.23-.09-.34-.06-.23-.08-.34l-.06-.35c0-.12,0-.24-.05-.35s0-.24,0-.36,0-.23,0-.35v-36c0-.12,0-.24,0-.35s0-.24,0-.36,0-.23.05-.35l.06-.35c0-.11,0-.23.08-.34s.06-.23.09-.34.07-.23.11-.34.08-.22.13-.33l.14-.32a3,3,0,0,1,.16-.31l.17-.31.19-.3.21-.29.21-.28.23-.27.25-.25.25-.25.27-.23.28-.21.29-.21.3-.19.31-.17.31-.16.32-.14.33-.13.34-.11.34-.09.34-.08.35-.06.35-.05.36,0Z" transform="translate(0.45 0.45)"/><path id="GTU" class="cls-7" d="M111.27,54a8.6,8.6,0,0,1-6.25,2.3,9.17,9.17,0,0,1-6.75-2.65,9.27,9.27,0,0,1,0-13,9,9,0,0,1,6.6-2.67,9.32,9.32,0,0,1,4.5,1.12,8.13,8.13,0,0,1,3.19,3.07l-2.5,1.43a5.14,5.14,0,0,0-2.09-2,6.41,6.41,0,0,0-3.1-.76,6.13,6.13,0,0,0-4.56,1.82,6.28,6.28,0,0,0-1.79,4.54,6.14,6.14,0,0,0,1.79,4.51,6.51,6.51,0,0,0,4.74,1.79,6.31,6.31,0,0,0,3.8-1.09,4.75,4.75,0,0,0,1.89-2.95h-5.9V46.83h8.82V48A7.87,7.87,0,0,1,111.27,54Zm11.54,2V41.08h5V38.31H114.92v2.77h5V56Zm18.42-1.34a7.76,7.76,0,0,1-9.62,0,5.8,5.8,0,0,1-1.87-4.51V38.31h2.9V49.93a3.42,3.42,0,0,0,1,2.58,4.63,4.63,0,0,0,5.62,0,3.42,3.42,0,0,0,1-2.58V38.31h2.9V50.1A5.8,5.8,0,0,1,141.23,54.61Z" transform="translate(0.45 0.45)"/><path id="_1057" data-name="1057" class="cls-7" d="M113.43,121.7a4.44,4.44,0,0,0,3.82-1.88,9.69,9.69,0,0,0,0-10,4.44,4.44,0,0,0-3.82-1.88,4.52,4.52,0,0,0-3.83,1.88,9.82,9.82,0,0,0,0,10A4.52,4.52,0,0,0,113.43,121.7Zm-7.37-13.48v13.23h-2.17V110.54l-2.66.76-.53-1.85,3.47-1.23Zm18.39,13.48a4.86,4.86,0,0,0,3.29-1.14,4.32,4.32,0,0,0,0-6.22,4.71,4.71,0,0,0-3.19-1.13h-1.67l.23-2.95h5.37v-2h-7.37l-.51,7.11h3.85a2.61,2.61,0,0,1,1.76.57,2,2,0,0,1,.66,1.54,1.93,1.93,0,0,1-.67,1.56,2.62,2.62,0,0,1-1.79.58,2.44,2.44,0,0,1-2.62-1.8L120,118.86a4,4,0,0,0,1.7,2.1A5.19,5.19,0,0,0,124.45,121.7Zm13.93-11.59-4.65,11.34h-2.28L136,110.3H130v-2.08h8.41Zm-27.19,8.24a2.51,2.51,0,0,0,2.24,1.23,2.49,2.49,0,0,0,2.25-1.23,8.31,8.31,0,0,0,0-7,2.49,2.49,0,0,0-2.25-1.23,2.51,2.51,0,0,0-2.24,1.23,8.31,8.31,0,0,0,0,7Z" transform="translate(0.45 0.45)"/><path id="Triangle-Copy-36" class="cls-8" d="M157.1,109.45,163,120.17a.37.37,0,0,1,.05.11.36.36,0,0,1,0,.11s0,.07,0,.11v.12a.41.41,0,0,1,0,.11.5.5,0,0,1,0,.12s0,.07,0,.11,0,.07-.05.1l-.07.1a.3.3,0,0,1-.08.08.36.36,0,0,1-.09.08l-.09.06-.11.05-.11,0-.11,0H150.35l-.12,0-.11,0-.1-.05-.1-.06-.09-.08-.07-.08a.61.61,0,0,1-.07-.1.47.47,0,0,1-.05-.1.76.76,0,0,1,0-.11.5.5,0,0,1,0-.12.41.41,0,0,1,0-.11.48.48,0,0,1,0-.12s0-.08,0-.11a.36.36,0,0,1,0-.11.37.37,0,0,1,.05-.11l5.84-10.72,0,0,0-.05a.1.1,0,0,1,0,0l0,0,0,0,0,0,0,0,0,0,.06,0,.05,0,.06,0,.06,0h.47l.06,0,.06,0,.05,0,.05,0,0,0,.05,0,0,0,0,0,0,0,0,0,0,.05,0,0Z" transform="translate(0.45 0.45)"/></g><g id="Group-21"><path id="Rectangle-2" data-name="Rectangle" class="cls-9" d="M230.85,43.43h112v1h-112Z" transform="translate(0.45 0.45)"/><path id="Oval" class="cls-9" d="M233.85,46.94a3,3,0,1,0-3-3A3,3,0,0,0,233.85,46.94Z" transform="translate(0.45 0.45)"/></g><g id="Group-21-Copy"><path id="Rectangle-3" data-name="Rectangle" class="cls-9" d="M230.85,115.22h112v1h-112Z" transform="translate(0.45 0.45)"/><path id="Oval-2" data-name="Oval" class="cls-9" d="M233.85,118.71a3,3,0,1,0-3-3A3,3,0,0,0,233.85,118.71Z" transform="translate(0.45 0.45)"/></g></svg>