<?xml version="1.0" standalone="no"?>
<!DOCTYPE svg PUBLIC "-//W3C//DTD SVG 1.1//EN" "http://www.w3.org/Graphics/SVG/1.1/DTD/svg11.dtd" >
<svg>
<metadata>
Created by FontForge 20090622 at Wed Mar 30 20:28:33 2016
 By deploy user
Copyright (c) 2016 by Dmitry Mashkin. All rights reserved.
</metadata>
<defs>
<font id="KarminaBold" horiz-adv-x="291" >
  <font-face 
    font-family="Karmina Bold"
    font-weight="400"
    font-stretch="normal"
    units-per-em="1000"
    panose-1="0 0 0 0 0 0 0 0 0 0"
    ascent="750"
    descent="-250"
    x-height="750"
    cap-height="753"
    bbox="-168.32 -146 863 898.364"
    underline-thickness="50"
    underline-position="-50"
    unicode-range="U+0020-U+FB04"
  />
<missing-glyph horiz-adv-x="303" 
 />
    <glyph glyph-name=".notdef" horiz-adv-x="303" 
 />
    <glyph glyph-name="exclam" unicode="!" horiz-adv-x="69" 
d="M35 50q-16 0 -25.5 10.5t-9.5 24.5v634q0 14 9.5 24t25.5 10q14 0 24.5 -10t10.5 -24v-634q0 -14 -10.5 -24.5t-24.5 -10.5zM35 61q17 0 28.5 -11.5t11.5 -28.5q0 -16 -11.5 -28.5t-28.5 -12.5t-29 12.5t-12 28.5q0 17 12 28.5t29 11.5z" />
    <glyph glyph-name="quotedbl" unicode="&#x22;" horiz-adv-x="256" 
d="M179 634q-18 8 -27 32.5t-4 53.5q7 30 26 50t42 14l-1 1q29 -6 27 -18t-15 -32q-2 -2 -2 -3q17 -8 25 -25t5 -35q-5 -20 -23 -33t-40 -9q-6 0 -10 3l6 -1q-1 0 -1 0.5t-1 0.5zM37 634q-18 8 -27 32.5t-4 53.5q7 30 26 50t42 14l-1 1q29 -6 27 -18t-15 -32q-2 -2 -2 -3
q17 -8 25 -25t5 -35q-5 -20 -23 -33t-40 -9q-6 0 -10 3l6 -1q-1 0 -1 0.5t-1 0.5z" />
    <glyph glyph-name="numbersign" unicode="#" horiz-adv-x="463" 
d="M297 752q14 -5 20 -18t1 -27v1l-240 -704q-5 -8 -14 -16t-18 -8q-1 0 -4 0.5t-5 0.5q-16 6 -22.5 19t-1.5 27v-1l119.5 351.5l119.5 351.5q5 14 17 20.5t26 2.5h2zM451 751q11 -5 18 -17.5t2 -26.5v1l-240 -704q-5 -9 -14.5 -16.5t-18.5 -7.5l-8 1q-15 5 -21.5 18.5
t-2.5 29.5l239 700q5 14 17 20.5t26 2.5zM94 458q2 5 -5 7l324 -7q-2 -1 -2.5 -2t-1.5 -2v-2q0 -5 5 -5l-322 7q0 1 1 2t1 2zM26 257q0 2 -5 5l325 -7q-5 -2 -5 -6q0 -5 5 -5l-325 7q5 2 5 6z" />
    <glyph glyph-name="dollar" unicode="$" horiz-adv-x="288" 
d="M155 -26q27 0 55 13h-1q12 5 25.5 15.5t25.5 28.5t20.5 45t8.5 65q1 34 -6.5 64t-22 57.5t-33.5 54l-40 54.5v-1l-25 33l-6 7l1 -1q-37 45 -52 90.5t-15 85.5q0 49 16 78q12 17 28 23.5t31 1.5q22 -8 33 -39.5t9 -82.5v1q-2 -17 8 -26.5t24 -11.5q19 -2 28 8.5t9 26.5
q1 51 -8.5 86t-24 56.5t-30.5 32.5t-27 15q-17 6 -34 6q-29 0 -57 -16t-48 -45q-14 -23 -20.5 -52.5t-6.5 -61.5q0 -52 19.5 -109t63.5 -110l-2 2l13 -17l17 -23q37 -48 64 -92t25 -93q0 -73 -41 -93q-12 -6 -25 -6q-25 0 -47 18q-18 14 -27 34.5t-9 46.5q0 17 3 31
q4 14 -4.5 26t-21.5 16q-15 4 -27 -4t-15 -22q-5 -23 -5 -47q0 -42 16 -77t47 -60q20 -15 43.5 -23.5t47.5 -8.5zM140 -54q-15 0 -25.5 11.5t-10.5 27.5v765q0 15 10.5 26t25.5 11t25.5 -11t10.5 -26v-765q0 -16 -10.5 -27.5t-25.5 -11.5z" />
    <glyph glyph-name="percent" unicode="%" horiz-adv-x="315" 
d="M299 750q12 -5 18 -17.5t1 -26.5q-1 -1 -17.5 -43l-42 -107.5l-56 -145l-59 -157t-50.5 -143.5t-31 -103l1 2q-2 -13 -11.5 -21t-22.5 -8h-6t-8 4q-11 5 -16.5 16.5t-2.5 22.5v-1q10 41 32 108l49.5 144.5l57.5 156.5l55.5 144l43 108t19.5 49v-1q5 15 18 20t27 0z
M202 586q0 -28 -7 -52t-19 -42t-28.5 -28.5t-35.5 -10.5t-35.5 10.5t-28.5 28.5t-19 42t-7 52t7 52.5t19 42.5t28.5 28t35.5 10t35.5 -10t28.5 -28t19 -42.5t7 -52.5zM91 586q0 -28 6.5 -45.5t14.5 -17.5q7 0 13.5 17.5t6.5 45.5q0 29 -6.5 46.5t-13.5 17.5
q-8 0 -14.5 -17.5t-6.5 -46.5zM197 273q19 0 35.5 -10t28.5 -28t19 -42.5t7 -52.5t-7 -52t-19 -42t-28.5 -28.5t-35.5 -10.5t-35.5 10.5t-28.5 28.5t-19 42t-7 52t7 52.5t19 42.5t28.5 28t35.5 10zM197 77q8 0 14.5 17.5t6.5 45.5q0 29 -6.5 46.5t-14.5 17.5t-14.5 -17.5
t-6.5 -46.5q0 -28 6.5 -45.5t14.5 -17.5z" />
    <glyph glyph-name="ampersand" unicode="&#x26;" horiz-adv-x="464" 
d="M395 214q-4 -22 -11 -42t-16 -38q42 -39 92 -74q11 -8 14 -22.5t-5 -25.5q-5 -6 -13.5 -10.5t-14.5 -4.5q-11 0 -20 6q-26 17 -48 35l-42 36q-33 -41 -78.5 -67.5t-90.5 -26.5q-2 0 -3 0.5t-3 0.5h-5q-17 1 -42.5 9.5t-49.5 33.5t-42 71.5t-21 124.5q1 41 9.5 71.5
t21.5 54.5t30.5 42.5t37.5 34.5q-12 37 -19 73.5t-7 66.5q0 48 17 85v-1q19 41 38.5 63.5t38.5 32.5t35 10t27 -3h-1q21 -6 37.5 -22t27.5 -39.5t16 -52t2 -59.5q-7 -35 -20 -61.5t-30.5 -47t-37.5 -37.5t-41 -32q22 -51 56 -105t82 -106q3 9 5.5 18.5t4.5 19.5
q2 14 12.5 22t24.5 6q16 -4 25 -15t7 -25zM148 618q-9 -18 -9 -53q0 -21 3.5 -43.5t12.5 -51.5q28 22 51 49.5t32 72.5v-2q4 38 -6.5 64t-25.5 30q-11 3 -26 -14.5t-32 -52.5v1zM156 50q31 -3 64.5 17.5t60.5 57.5q-52 56 -91.5 115t-66.5 116q-24 -23 -40 -54.5t-18 -82.5
q3 -78 26.5 -122t64.5 -47z" />
    <glyph glyph-name="quotesingle" unicode="'" horiz-adv-x="98" 
d="M69 786q18 -8 27 -32.5t4 -53.5q-7 -30 -26 -50t-42 -14l1 -1q-29 6 -27 18t15 32q0 1 2 3q-17 8 -25.5 24.5t-5.5 35.5q5 20 23 33.5t41 8.5h-2l7 -2l1 -1z" />
    <glyph glyph-name="parenleft" unicode="(" horiz-adv-x="200" 
d="M176 749q12 -7 16.5 -20.5t-3.5 -26.5l1 1q-51 -95 -75 -182t-24 -168q0 -166 106 -317q8 -13 5.5 -27t-13.5 -22q-8 -7 -20 -7q-18 0 -28 15q-120 169 -120 358q0 176 107 382q8 12 21.5 17t26.5 -3z" />
    <glyph glyph-name="parenright" unicode=")" horiz-adv-x="200" 
d="M24 749q13 8 26 3t21 -17q108 -207 108 -382q0 -189 -120 -358q-10 -15 -28 -15q-12 0 -20 7q-10 8 -11.5 22.5t3.5 26.5q51 75 78.5 155t27.5 162q0 81 -24 168t-75 182l1 -1q-8 13 -3.5 26.5t16.5 20.5z" />
    <glyph glyph-name="asterisk" unicode="*" horiz-adv-x="142" 
d="M93 897q29 -12 23 -40q12 0 22.5 -8t12.5 -19q0 -25 -19 -34q7 -22 -6 -35q-10 -10 -23 -10q-6 0 -10.5 2t-8.5 4q-5 -8 -12.5 -12t-15.5 -4h-5t-8 3q-25 10 -19 37q-13 0 -22 7.5t-11 19.5q-2 11 4 20.5t15 13.5q-3 9 -1.5 19.5t9.5 18.5q8 7 19 7t20 -8q7 10 17 15.5
t19 2.5z" />
    <glyph glyph-name="plus" unicode="+" horiz-adv-x="375" 
d="M358 418q14 0 24.5 -11t10.5 -26q-2 -15 -11 -24t-25 -9l-136 2l-2 -134q-1 -14 -12 -24.5t-25 -10.5q-15 2 -24 11t-9 25l2 136l-134 2q-14 1 -25 12t-9 25q1 15 11 24t24 9l136 -2l2 134q1 14 11 24t24 10q16 0 25.5 -10.5t9.5 -24.5l-2 -136l134 -2v0z" />
    <glyph glyph-name="comma" unicode="," horiz-adv-x="74" 
d="M38 67q3 0 8 -1t7 -3q14 -6 21.5 -25t3.5 -41q-5 -24 -20.5 -39.5t-33.5 -10.5l1 -1q-23 4 -24 15t7 27q-10 6 -15.5 16.5t-3.5 22.5q5 18 18.5 30.5t30.5 9.5z" />
    <glyph glyph-name="hyphen" unicode="-" horiz-adv-x="398" 
d="M34 365q-15 0 -25.5 10t-8.5 26q1 14 11 23t23 9l327 -7q14 0 24 -10t10 -24t-10.5 -24t-24.5 -10z" />
    <glyph glyph-name="period" unicode="." horiz-adv-x="83" 
d="M42 64q18 0 30.5 -13t12.5 -31t-12.5 -30.5t-30.5 -12.5t-31 12.5t-13 30.5t13 31t31 13z" />
    <glyph glyph-name="slash" unicode="/" horiz-adv-x="275" 
d="M269 752q14 -5 20 -18t1 -27v1l-240 -707q-11 -21 -32 -21l-9 1q-16 6 -22.5 19t-1.5 27v-1l239 705q5 13 17 19t26 2h2z" />
    <glyph glyph-name="zero" unicode="0" horiz-adv-x="312" 
d="M310 365q1 -81 -8 -149.5t-26.5 -119t-42.5 -81t-56 -35.5q-2 0 -4.5 -0.5t-3.5 -0.5h-4q-16 0 -33.5 7.5t-36 27t-37 53t-34.5 85.5q-5 18 -9 43t-6.5 54t-4 60.5t-1.5 63.5q0 31 1.5 61t4 56.5t6 48t8.5 36.5q9 39 25 73t36.5 58t44.5 37t48 11q19 -2 42.5 -16.5
t44 -56.5t34 -117t12.5 -198v-1zM166 49q14 3 28 25t25 62.5t17 98t5 131.5q1 86 -5 146t-16 98t-23.5 56t-26.5 19q-11 1 -22.5 -8t-22.5 -26t-19.5 -40t-13.5 -50v2q-1 -1 -1 -5q-4 -11 -7.5 -30t-5.5 -44t-3.5 -54t-1.5 -60q0 -58 4.5 -113t12.5 -86v1q20 -60 40 -92.5
t36 -30.5z" />
    <glyph glyph-name="one" unicode="1" horiz-adv-x="150" 
d="M135 741q0 -1 1 -2h1q1 -3 3 -6q2 -2 2.5 -5.5t2.5 -5.5q0 -185 -1.5 -312.5t-4.5 -210t-7 -127t-9.5 -65t-12 -24t-13.5 -3.5q-14 0 -24.5 10.5t-10.5 24.5q0 5 0.5 7.5t2.5 5.5q2 15 3.5 60.5t3 118t2.5 169t2 212.5l-30 -51q-11 -18 -30 -18q-9 0 -17 4
q-13 8 -16.5 21.5t4.5 26.5l95 166l-1 -1q3 6 7.5 9t12.5 7q3 0 6 1q1 0 3 -0.5t4 -0.5h4q13 0 18 -13q0 1 -0.5 1t-0.5 1zM134 740q-8 6 -12 6zM140 729l-2 6v-3q0 3 -1 4q1 -1 3 -7z" />
    <glyph glyph-name="two" unicode="2" horiz-adv-x="350" 
d="M323 50q14 0 24 -10t10 -24t-10 -24.5t-24 -10.5h-174q-2 0 -3 -0.5t-3 -0.5h-6q-32 0 -64 14.5t-51 50.5l1 -1q-16 27 -16 65q0 49 40 133t136 197q37 45 58 89t21 79q0 27 -13 47q-11 19 -31 26t-41 2q-28 -11 -46.5 -42t-20.5 -78q-1 -14 -12 -24t-25 -10
q-14 2 -24 12.5t-8 24.5q2 72 33.5 120.5t85.5 62.5h-1q10 3 19.5 4t17.5 1q33 0 63 -16.5t49 -44.5q8 -12 16 -33.5t8 -52.5q0 -38 -20 -91t-76 -121q-49 -57 -80 -102t-48.5 -79.5t-24 -60t-6.5 -43.5q0 -12 2.5 -20t4.5 -13q8 -17 26.5 -22.5t36.5 -3.5h176v0z" />
    <glyph glyph-name="three" unicode="3" horiz-adv-x="329" 
d="M142 -20q-37 0 -68 16h1q-14 7 -28 18.5t-25 29t-18 42.5t-7 59q0 22 3 45q2 14 13.5 23t25.5 7t23 -14t7 -26q-2 -10 -2 -18v-16q0 -70 38 -88q8 -5 17.5 -6.5t18.5 -1.5q17 0 29.5 3.5t17.5 8.5q27 22 42 63.5t15 87.5q0 20 -3.5 39t-9.5 38q-5 13 -14 28.5t-24.5 29.5
t-38 23.5t-53.5 9.5h-4q-14 0 -24.5 10.5t-10.5 26.5l1 3q0 11 4 20l153 243h-186q-14 0 -24.5 10.5t-10.5 24.5t10.5 24t24.5 10h249q2 0 3 -0.5t3 -0.5q5 0 13 -5q5 -3 7.5 -7t6.5 -12q0 -1 0.5 -4t0.5 -5q0 -1 -0.5 -1.5t-0.5 -2.5t-1.5 -6.5t-3.5 -6.5q4 4 4 3
l-163 -260q49 -12 87 -46t57 -85q9 -23 13 -49t4 -53q0 -30 -5.5 -59.5t-16 -56.5t-25.5 -49.5t-34 -37.5l1 2q-12 -12 -37.5 -21.5t-54.5 -9.5zM303 739q-3 9 -12 12q10 -3 12 -12zM304 735l-1 1z" />
    <glyph glyph-name="four" unicode="4" horiz-adv-x="259" 
d="M104 727q3 14 15.5 21.5t26.5 3.5q14 -3 21.5 -15.5t3.5 -26.5l-107 -421h58v39q0 14 10.5 24t24.5 10t24 -10t10 -24v-39h50q14 0 24.5 -10t10.5 -24t-10.5 -24.5t-24.5 -10.5h-50v-205q0 -14 -10 -24.5t-24 -10.5t-24.5 10.5t-10.5 24.5v205h-103q-2 0 -4.5 -0.5
t-7.5 2.5q-2 1 -4.5 3t-4.5 4l-4 3q-5 5 -6.5 7t-1.5 6q-2 4 -2 10q0 1 0.5 1.5t0.5 2.5l1 1l1 3q0 2 2 4l-2 -2zM-13 265v-2l-2 -4q0 2 2 6z" />
    <glyph glyph-name="five" unicode="5" horiz-adv-x="270" 
d="M219 24q-14 -15 -37.5 -29.5t-58.5 -14.5q-23 0 -50.5 9t-59.5 29q-12 8 -14.5 22t5.5 27q8 12 21.5 15t25.5 -5q40 -27 72 -27q26 0 44 20q17 19 25.5 47.5t8.5 59.5q0 30 -8 57.5t-23 47.5l1 -1q-21 26 -52 26t-69 -22q-11 -6 -24.5 -3.5t-21.5 13.5q-4 4 -4.5 7
t-0.5 7q-1 2 -1 8q0 103 0.5 175t2 119t3 73t4.5 39q4 14 13 22q5 5 10 6.5t12 1.5h183q16 0 25.5 -10t9.5 -24t-9.5 -24.5t-25.5 -10.5h-153q-2 -38 -3.5 -119.5t-1.5 -196.5q29 8 52 8q39 0 65 -17t40 -35l-1 1q23 -29 34.5 -68t11.5 -80q0 -43 -12.5 -83.5t-38.5 -69.5z
" />
    <glyph glyph-name="six" unicode="6" horiz-adv-x="318" 
d="M165 -20q-52 0 -110 36q-56 39 -65 115q-4 34 3.5 69.5t24.5 67.5v-1q12 25 22.5 50.5l21.5 53.5l23 60l26 70l38.5 102l49.5 128q6 11 19 17.5t26 1.5q12 -5 18.5 -17.5t1.5 -26.5l-49 -127.5l-38 -101.5l-19 -49l-9.5 -27t-6.5 -17.5t-6 -16t-9 -22.5q16 4 34 4
q68 0 110 -54v1q21 -26 31 -60.5t10 -71.5t-12.5 -74t-34.5 -64q-20 -22 -45.5 -34t-54.5 -12zM59 138q2 -15 9 -33t27 -32l-2 1q42 -25 73 -25q27 0 47 22q15 17 22.5 41.5t7.5 51.5q0 25 -7 48.5t-20 40.5q-22 27 -55 27q-14 0 -30.5 -4t-34.5 -14q-18 -24 -29 -59t-8 -65
z" />
    <glyph glyph-name="seven" unicode="7" horiz-adv-x="265" 
d="M161 263q-26 -56 -49 -115.5t-35 -137.5q-2 -13 -12 -22t-26 -7q-14 2 -23.5 13t-7.5 25q7 43 16.5 79.5t21 69.5t25 63l27.5 61l-2 -5q2 2 2 4l12 28q-32 2 -39 10t-7 26q0 16 13 26.5t29 7.5q3 -1 13 -1h21q21 56 40 129t28 167h-190q-14 0 -24.5 10.5t-10.5 24.5
t10.5 24t24.5 10h229q8 0 14 -4q13 -3 16 -17q-2 0 -2 2l2 -4v-1v1q1 -2 2 -4.5t1 -4.5q0 -1 0.5 -1.5t0.5 -2.5q-8 -111 -26 -190t-41 -140q14 -2 23 -11t9 -23t-9.5 -24.5t-25.5 -10.5h-26zM260 749q-2 1 -6 1q1 0 1.5 -0.5t1.5 -0.5h3zM279 727q-2 2 -1 2zM277 731v1v-2
v1zM278 729l-1 2q1 -1 1 -2z" />
    <glyph glyph-name="eight" unicode="8" horiz-adv-x="354" 
d="M296 430l-8.5 -11t-10.5 -11l8 -9q29 -33 42.5 -83.5t13.5 -104.5q0 -57 -15.5 -110t-46.5 -85q-13 -13 -33.5 -25t-49.5 -12q-23 0 -50.5 10.5t-60.5 38.5q-35 35 -51 84t-16 100q0 56 17.5 107t51.5 85q1 1 1.5 1t1.5 1q1 0 1 1l1 1q-1 0 -1.5 1t-1.5 1q-31 26 -44 62
t-13 74q0 43 15 85.5t38 74.5q29 28 56 38.5t50 10.5q25 0 43 -9.5t30 -19.5q32 -28 49 -75.5t17 -97.5q0 -35 -8.5 -66.5t-25.5 -56.5zM192 685q-14 0 -29.5 -8.5t-27.5 -19.5q-15 -20 -24.5 -50t-9.5 -62q0 -22 6 -42.5t20 -34.5q14 -7 34 -14t34 -7q13 0 24.5 5t20.5 18
h-1q11 16 16 37.5t5 45.5q0 36 -10.5 69.5t-30.5 51.5q-12 11 -27 11zM229 64q21 23 31.5 62.5t10.5 84.5q0 42 -10 81.5t-29 62.5q-20 20 -40 20q-25 0 -62 -25q-19 -23 -30.5 -61t-11.5 -78q0 -37 11 -73t33 -60q18 -13 35 -21t30 -8q18 0 33 15h-1z" />
    <glyph glyph-name="nine" unicode="9" horiz-adv-x="317" 
d="M255 719l8 -2q26 -19 42.5 -48.5t20.5 -65.5q3 -33 -4.5 -69.5t-22.5 -67.5v1l-21 -47.5l-20 -48.5l-20 -51.5l-22 -56.5v1q-2 -8 -5.5 -15.5t-5.5 -15.5q-32 -89 -87 -230v1q-4 -11 -13 -17.5t-20 -6.5l-9 1q-16 6 -21.5 20t-0.5 27l-1 -1l68 179l19 51l7.5 18.5
t6.5 17.5q7 19 11 31t7.5 21l7.5 19l10 25q-16 -4 -34 -4q-32 0 -60.5 14t-49.5 40q-20 26 -30.5 61.5t-10.5 70.5q0 38 11.5 74.5t34.5 62.5q39 45 100 45q26 0 53.5 -8.5t56.5 -26.5zM156 454q14 0 30.5 4t33.5 14q20 24 30.5 58t6.5 66q-2 15 -9 33t-26 32l2 -1
q-44 25 -73 25q-28 0 -48 -22q-15 -17 -22 -42t-7 -51t6.5 -49t20.5 -40q21 -27 55 -27zM224 474l-4 -2l-2 -3z" />
    <glyph glyph-name="colon" unicode=":" horiz-adv-x="57" 
d="M28 608q18 0 31 -13t13 -31t-13 -30.5t-31 -12.5t-30.5 12.5t-12.5 30.5t12.5 31t30.5 13zM28 222q18 0 31 -13t13 -31t-13 -30.5t-31 -12.5t-30.5 12.5t-12.5 30.5t12.5 31t30.5 13z" />
    <glyph glyph-name="semicolon" unicode=";" horiz-adv-x="66" 
d="M32 608q18 0 30.5 -13t12.5 -31t-12.5 -30.5t-30.5 -12.5t-31 12.5t-13 30.5t13 31t31 13zM35 221q3 0 8 -1t7 -3q14 -6 21.5 -25t3.5 -41q-5 -24 -20.5 -39.5t-33.5 -10.5l1 -1q-23 3 -24 14.5t7 26.5q-10 7 -15.5 17.5t-3.5 22.5q5 18 18.5 30.5t30.5 9.5z" />
    <glyph glyph-name="less" unicode="&#x3c;" horiz-adv-x="212" 
d="M-19 387v4.5t2 5.5v5l165 231q8 11 23 13.5t26 -7.5l-1 1q11 -8 13.5 -22t-5.5 -27l-145 -202l143 -175q11 -12 9 -25.5t-13 -23.5q-5 -5 -11 -6.5t-11 -1.5q-15 0 -32 17l-156 191l2 -1q-7 7 -7 14q-2 4 -2 9z" />
    <glyph glyph-name="equal" unicode="=" horiz-adv-x="400" 
d="M36 410q-15 0 -25.5 10t-8.5 26q1 14 11 23t23 9l327 -7q14 0 24 -10t10 -24t-10.5 -24t-24.5 -10zM36 300q-15 0 -25.5 10t-8.5 26q1 14 11 23t23 9l327 -7q14 0 24 -10t10 -24t-10.5 -24t-24.5 -10z" />
    <glyph glyph-name="greater" unicode="&#x3e;" horiz-adv-x="213" 
d="M231 387q0 -7 -2 -11q0 -4 -1 -5.5t-6 -6.5l2 1l-156 -191q-8 -8 -16.5 -12.5t-15.5 -4.5q-12 0 -22 8q-11 10 -13 23.5t9 25.5l71 87.5l72 87.5l-145 202q-8 13 -5.5 27t13.5 22t24.5 5t22.5 -12l166 -231v-5q2 -3 2 -5.5v-4.5z" />
    <glyph glyph-name="question" unicode="?" horiz-adv-x="257" 
d="M135 61q17 0 28.5 -11.5t11.5 -28.5q0 -16 -11.5 -28.5t-28.5 -12.5t-28.5 12.5t-11.5 28.5q0 17 11.5 28.5t28.5 11.5zM82 748q16 6 34 6q30 0 61.5 -18.5t54.5 -52.5q11 -20 17 -48t6 -63q0 -54 -20.5 -114t-65.5 -114q-8 -15 -11 -44.5t-3 -61.5q0 -33 2.5 -66.5
t4.5 -53.5q-1 -13 -9.5 -25t-23.5 -14q-15 0 -25 9t-12 21q0 4 -1.5 15.5t-2.5 28.5t-2 38.5t-1 44.5q0 43 5 83.5t21 64.5q42 48 58 97t16 91q0 25 -5.5 47t-13.5 37l2 -2q-12 17 -30 24.5t-34 2.5q-23 -8 -35.5 -42t-10.5 -88v1q2 -15 -8.5 -26t-26.5 -11q-14 0 -23.5 9
t-11.5 23q-2 56 8 93t25 59.5t32 33.5t28 15h1z" />
    <glyph glyph-name="at" unicode="@" horiz-adv-x="386" 
d="M344 130q12 4 23 -1q14 -8 19 -21.5t-3 -26.5l1 1q-16 -32 -38 -53t-47 -33t-50.5 -17t-47.5 -5q-8 0 -15.5 0.5t-12.5 1.5q-1 0 -2 0.5t-2 0.5q-5 0 -9 2q-48 8 -75 40.5t-40.5 85.5t-18 125.5t-6.5 160.5l-1 19q0 3 -1 17.5t-1 37.5q0 33 4 76.5t16 85t34.5 75
t60.5 47.5q39 10 64 10q52 0 86 -28q22 -18 36 -44t22 -58.5t11 -70.5t3 -79q0 -36 -1.5 -74.5t-3.5 -76.5q-2 -39 -3.5 -77.5t-1.5 -71.5v-46v-3zM201 45q14 0 33.5 3.5t39.5 14.5q-23 4 -39 24q-20 -13 -45 -13q-20 0 -38 10q-17 10 -33 44t-17 91l-3 298q1 57 17 90.5
t33 44.5q19 10 39 10q26 0 47 -14h-1q20 -11 31 -29.5t9 -39.5q1 -2 0.5 -3t-0.5 -3l2 -297l3 55q2 38 3.5 75.5t1.5 73.5q0 68 -9 120.5t-37 75.5h1q-19 14 -43 14q-16 0 -38 -5h2q-22 -8 -36 -32.5t-22.5 -56t-11.5 -66t-3 -64.5q0 -16 0.5 -30t1.5 -25v-17
q3 -73 6 -134.5t11.5 -107.5t24.5 -73.5t44 -31.5q4 -1 8 -1q5 -1 18 -1zM201 148q6 4 6 8l-2 420v4q0 2 -3 5l-5 5t-6 3t-7 -1q-18 -10 -15 -74l3 -301q-2 -29 2.5 -48t12.5 -24q4 -2 8 -0.5t6 3.5zM212 562l-5 20l-2 -6q0 -6 4 -10q2 -2 3 -4z" />
    <glyph glyph-name="A" unicode="A" 
d="M48 -17q-14 0 -24 9.5t-11 23.5q-2 36 -2.5 74.5t-0.5 71.5q0 130 10.5 231.5t28 174.5t39.5 117t45 59q15 7 33.5 6.5t31.5 -7.5q22 -15 39 -53t28.5 -96t17 -133.5t5.5 -166.5q-1 -64 -4 -135t-9 -147q-2 -14 -11.5 -23t-26.5 -9q-14 2 -22.5 13.5t-8.5 24.5
q6 73 8.5 129t3.5 113h-51.5h-37.5t-27.5 0.5t-20.5 1.5q-1 -25 -1.5 -50t-0.5 -53q0 -66 3 -141q0 -14 -10 -24.5t-24 -10.5zM218 329q-1 167 -18 252t-36 102q-23 -18 -46.5 -106t-32.5 -245q20 -2 54 -2.5t79 -0.5zM161 685l3 -2l-2 2h-1zM167 685l-3 -2q1 0 2 1z" />
    <glyph glyph-name="B" unicode="B" horiz-adv-x="283" 
d="M12 25q0 145 -0.5 265.5t-1.5 209t-2.5 142t-2.5 66.5q-2 3 -1.5 5.5t0.5 5.5q0 14 10.5 24t24.5 10h3q66 3 116.5 -26t78.5 -86q11 -25 17.5 -52t6.5 -54q0 -40 -14 -78.5t-37 -65.5l-11.5 -11.5t-11.5 -10.5q22 -14 37.5 -32.5t28.5 -44.5t18.5 -54t5.5 -55
q0 -42 -13.5 -81.5t-38.5 -68.5q-23 -26 -52.5 -39.5t-62.5 -13.5q-16 0 -30 2t-30 8h-4q-14 0 -24 10.5t-10 24.5zM190 261q-5 10 -13.5 22t-22 23t-32 19t-42.5 11q1 -60 1 -126.5v-156.5q15 -3 28 -3q39 0 64 28q17 19 25.5 46.5t8.5 57.5q0 20 -4 40.5t-13 38.5z
M175 611q-5 9 -13 20t-20.5 21.5t-29 18.5t-37.5 11q2 -33 3 -96.5t2 -175.5q5 -1 9.5 -1h9.5q36 0 59 27q17 18 25 44.5t8 55.5q0 20 -4 39.5t-12 36.5v-1z" />
    <glyph glyph-name="C" unicode="C" horiz-adv-x="243" 
d="M0 375q-1 81 7.5 149.5t23.5 119t37 80.5t48 35q39 4 72.5 -39t56.5 -133q4 -14 -4 -26.5t-20 -15.5h1q-15 -5 -27 2.5t-17 21.5q-17 65 -31 93.5t-21 26.5q-9 -1 -19.5 -21t-19 -59t-13.5 -97.5t-4 -136.5q-1 -81 4.5 -140t14.5 -99t21 -62t24 -29q2 -2 4 0
q15 9 27.5 41.5t11.5 87.5q0 14 9.5 24.5t25.5 10.5q14 0 24.5 -10.5t10.5 -24.5q0 -67 -19.5 -118t-53.5 -71q-20 -11 -37 -11q-18 0 -38 11q-48 29 -74 130.5t-25 259.5z" />
    <glyph glyph-name="D" unicode="D" horiz-adv-x="264" 
d="M10 4q-2 2 -2 4q-2 3 -2.5 6t-0.5 12q1 8 1.5 60.5t1 142.5t0.5 214.5v276.5q0 14 10.5 24t24.5 10q51 0 92 -33t68 -98q22 -53 32.5 -118.5t10.5 -134.5q0 -55 -6.5 -108.5t-19 -100.5t-30.5 -85t-41 -61q-36 -36 -79 -36q-22 0 -47 12q-9 4 -13 13zM140 596
q-26 61 -62 79v-276.5v-182.5t-1 -109t-3 -57q13 1 26 14q18 18 32.5 50t24.5 72.5t15 87.5t5 95q0 63 -9 122.5t-28 104.5z" />
    <glyph glyph-name="E" unicode="E" horiz-adv-x="235" 
d="M40 -20q-14 0 -24.5 10.5t-10.5 24.5v334q0 2 -0.5 4t1.5 6q0 88 0.5 150t1.5 104t2.5 67t3.5 38l-1 1q0 10 3.5 15t8.5 10q7 7 11.5 8t10.5 1h173q14 0 24.5 -10t10.5 -24t-10.5 -24.5t-24.5 -10.5h-141l-4 -290q33 3 99 3q14 0 24.5 -10.5t10.5 -24.5t-10.5 -24
t-24.5 -10q-35 0 -59.5 -1t-39.5 -3v-120v-39t-0.5 -36t-0.5 -37v-42h146q14 0 24.5 -10.5t10.5 -24.5t-10.5 -24.5t-24.5 -10.5h-180v0z" />
    <glyph glyph-name="F" unicode="F" horiz-adv-x="235" 
d="M41 -20q-16 0 -25.5 10.5t-9.5 24.5v340q0 88 1 151t2 106t2.5 68t3.5 38l-1 1q0 15 11 25q5 8 11 8.5t12 0.5h173q14 0 24 -10t10 -24t-10 -24.5t-24 -10.5h-141q-2 -33 -2.5 -102.5t-1.5 -187.5q33 3 99 3q14 0 24 -9.5t10 -25.5q0 -14 -10 -24t-24 -10q-35 0 -59.5 -1
t-39.5 -3v-125q0 -43 -0.5 -89t-0.5 -95q0 -14 -10 -24.5t-24 -10.5z" />
    <glyph glyph-name="G" unicode="G" 
d="M115 -17q-25 13 -45 49.5t-33.5 92t-21 128t-8.5 157.5q-1 17 -1.5 37.5t-0.5 36.5q0 109 21.5 176t65.5 89q10 5 20.5 7.5t22.5 2.5q39 0 75 -28q15 -13 29 -31t24 -38t14 -41.5t-1 -40.5q-3 -14 -15.5 -21.5t-26.5 -3.5q-14 3 -21.5 15.5t-3.5 26.5q4 15 -8.5 38
t-32.5 40q-8 6 -20.5 12t-23.5 0l1 1q-6 -3 -14.5 -13t-16.5 -32.5t-13.5 -60.5t-5.5 -98q0 -17 0.5 -35t1.5 -38q0 -91 6 -157.5t16 -110.5t22.5 -68t25.5 -31q4 -2 8 2q24 17 41.5 75t17.5 144q0 17 -0.5 26l-1.5 28q-24 3 -70 3q-14 0 -24.5 10.5t-10.5 24.5t10.5 24.5
t24.5 10.5q47 0 74.5 -3.5t41 -9.5t17.5 -13.5t4 -14.5q2 -21 3.5 -43.5t1.5 -42.5q0 -53 -7.5 -98t-19.5 -81t-28.5 -61t-34.5 -37q-22 -14 -45 -14q-9 0 -17.5 2.5t-16.5 6.5z" />
    <glyph glyph-name="H" unicode="H" horiz-adv-x="267" 
d="M14 15q0 145 -1 266t-2.5 211t-3 145.5t-3.5 70.5q-1 2 -1 5.5v5.5q0 14 10 24t24 10q7 0 12.5 -2t10.5 -12.5t9 -33t6.5 -64t4 -105.5t2.5 -157h108v340q0 14 10.5 24t24.5 10t24.5 -10t10.5 -24v-704q0 -14 -10.5 -24.5t-24.5 -10.5t-24.5 10.5t-10.5 24.5v295h-107
v-295q0 -14 -10 -24.5t-24 -10.5t-24.5 10.5t-10.5 24.5z" />
    <glyph glyph-name="I" unicode="I" horiz-adv-x="219" 
d="M145 684q0 -267 2.5 -431t6.5 -203h43q14 0 24.5 -10.5t10.5 -24.5t-10.5 -24.5t-24.5 -10.5h-159q-14 0 -24.5 10.5t-10.5 24.5t10.5 24.5t24.5 10.5h48q-2 27 -4 74.5t-3.5 122.5t-2 182.5t-0.5 254.5h-57q-14 0 -24.5 10.5t-10.5 24.5t10.5 24t24.5 10h178
q14 0 24.5 -10t10.5 -24t-10.5 -24.5t-24.5 -10.5h-52z" />
    <glyph glyph-name="J" unicode="J" horiz-adv-x="207" 
d="M-10 162q2 13 12 23t24 10t24 -11t10 -25q-2 -29 1.5 -49.5t9.5 -33.5t14 -19t15 -7q6 -1 10 5t6 17q8 49 11.5 110t3.5 127q0 57 -1.5 114.5t-3.5 114.5q0 7 -0.5 13.5t-0.5 13.5l-4 119h-61q-14 0 -24.5 10.5t-10.5 24.5t10.5 24t24.5 10h96q14 0 24.5 -10t10.5 -24
q0 -37 1 -80t3 -89v-9l4 -117.5t2 -117.5q0 -66 -4 -130.5t-12 -113.5q-2 -20 -10 -35.5t-20 -26t-26 -15.5t-29 -5l-5 1q-21 1 -41 12.5t-35 34t-23.5 56t-5.5 78.5z" />
    <glyph glyph-name="K" unicode="K" horiz-adv-x="285" 
d="M50 -18q-8 0 -14.5 3.5t-11.5 24t-8.5 64.5t-6 126t-3.5 208.5t-1 310.5q0 14 10.5 24t24.5 10t24.5 -10t10.5 -24v-68.5v-46v-41.5v-55q5 13 9 26.5l8 26.5q12 37 24.5 71.5t29 61.5t40 43t56.5 16q14 0 24 -10t10 -24t-10 -24.5t-24 -10.5t-25.5 -11.5t-21.5 -31.5
t-19 -46l-18 -54q-11 -35 -25.5 -74t-31.5 -73q23 -10 40 -31.5t29.5 -50t22.5 -61l19 -64.5l14 -47t14.5 -42.5t15 -33t15.5 -16.5l-1 1q14 -5 19.5 -18.5t0.5 -26.5q-13 -22 -33 -22q-4 0 -7 0.5t-8 2.5h1q-19 9 -33 26.5t-25 41.5t-20.5 53t-18.5 61l-15.5 52.5t-16 47
t-18 37.5t-20.5 23q2 -131 3.5 -208t3.5 -92q2 -4 1.5 -6.5t-0.5 -4.5q0 -14 -10 -24t-24 -10z" />
    <glyph glyph-name="L" unicode="L" horiz-adv-x="194" 
d="M44 -17q-7 0 -13 5q-14 5 -16 11.5t-2 18.5q0 1 0.5 1t0.5 2q-3 18 -4.5 59.5t-2.5 121.5t-1.5 205t-0.5 310q0 16 10.5 25.5t24.5 9.5t24.5 -9.5t10.5 -25.5q0 -140 0.5 -254t1 -198.5t1.5 -139t2 -74.5h7q17 0 40 -0.5t53 -0.5q14 0 24 -10.5t10 -24.5t-10 -24.5
t-24 -10.5q-60 0 -91 0.5t-45 2.5z" />
    <glyph glyph-name="M" unicode="M" horiz-adv-x="319" 
d="M41 -20q-14 0 -24.5 10.5t-10.5 24.5q0 183 0.5 307.5t2 204.5t3 122t4.5 61q0 22 13 33q6 7 11.5 8.5t13.5 -0.5h1q1 0 1.5 -0.5t2.5 -0.5q7 -2 11 -5l8 -9l-4 3q3 -2 6 -6t4 -7q33 -137 63 -246l14 -53l8 -28l3 17q2 15 5.5 30.5t5.5 30.5l4 21q11 66 22 124.5
t29 110.5l1 1q1 1 1 1.5t1 1.5l8 7q2 2 7 4t7 2q1 0 1.5 0.5t1.5 0.5l-6 -1l3 1q5 2 11 0h5t11 -8l5 -4q5 -5 6 -10t1 -8q1 0 1 1h1q0 -149 1 -273t2.5 -215t3 -145.5t3.5 -66.5q0 -1 0.5 -3.5t0.5 -3.5q0 -14 -10.5 -24.5t-24.5 -10.5q-7 0 -12.5 2t-10 13t-8.5 34.5
t-6.5 66.5t-4.5 109t-3 162l-12 -65t-14 -68v4q0 -1 -0.5 -1.5t-0.5 -1.5q0 -2 -2 -7t-4 -7l-5 -6l-9 -6q-5 -2 -8 -2.5t-5 -0.5q-9 0 -16 5q-6 2 -11 11l-5 5l-16.5 65.5t-18.5 69.5l-13 48q-5 16 -8.5 32.5t-8.5 33.5q-1 -89 -1.5 -205t-0.5 -256q0 -14 -10.5 -24.5
t-24.5 -10.5zM83 729l-5 7q5 -4 5 -7zM282 746l-3 3q3 -2 3 -3zM274 751l5 -2z" />
    <glyph glyph-name="N" unicode="N" horiz-adv-x="298" 
d="M40 -20q-14 0 -24.5 10.5t-10.5 24.5q0 186 0.5 311.5t2 206.5t4 123.5t5.5 61.5q1 7 4 14t8 12q6 8 11.5 8h10.5q8 0 11 -2q9 -2 16 -13l-1 1l8 -9q7 -37 21.5 -86.5l34.5 -115.5l6 -18q11 -37 17.5 -56.5t12.5 -39.5l14 -49l23 -85q1 118 2.5 199t4.5 133.5t6.5 81
t8.5 41.5t11 15.5t13 2.5q14 0 24 -9.5t10 -25.5q0 -7 -1 -11q-2 -13 -3.5 -68t-3 -144.5t-2.5 -211t-1 -267.5q0 -5 -0.5 -7t-3.5 -6l-2.5 -5t-3.5 -5l-4 -3q-2 -2 -7 -4t-7 -2q0 -1 1 -1v-1q-1 0 -4 -0.5t-4 -0.5q-13 0 -24 11l-2 2q-3 3 -4 5q-3 4 -3.5 7t-0.5 6
q-38 154 -73.5 275l-63.5 213q-2 -91 -2.5 -213t-0.5 -271q0 -14 -10 -24.5t-24 -10.5z" />
    <glyph glyph-name="O" unicode="O" horiz-adv-x="272" 
d="M272 358q1 -82 -7.5 -151t-24 -119.5t-38.5 -80t-51 -33.5h-9q-14 0 -30 7t-32.5 26.5t-32.5 53t-31 86.5q-7 26 -9 62t-2 78q0 48 2 98.5t4 92.5q3 52 3 81q0 66 20 117t55 71h-1q18 12 41 12q9 0 20 -3.5t20 -8.5q50 -31 77 -132.5t26 -256.5zM141 44q10 1 21.5 21
t20.5 59t14.5 97t4.5 137q1 80 -5 138.5t-15.5 98.5t-22 62.5t-25.5 29.5q-5 3 -11 0l1 1q-15 -9 -28 -42t-12 -87q0 -14 -0.5 -36t-2.5 -48l-4.5 -89.5t-2.5 -95.5q0 -38 2 -72t7 -54q17 -61 33 -91.5t24 -28.5h1z" />
    <glyph glyph-name="P" unicode="P" horiz-adv-x="255" 
d="M199 359q-25 -34 -56 -53t-66 -23q2 -108 3.5 -173t4.5 -81q3 -6 3 -14q0 -14 -10.5 -24.5t-24.5 -10.5q-7 0 -13.5 3.5t-12 24t-9.5 65t-7 126.5t-4.5 208.5t-1.5 311.5q0 6 3 12q0 5 7 12q10 10 25 10q43 0 75.5 -10t55.5 -25.5t38.5 -34.5t24.5 -37q11 -24 17.5 -51.5
t6.5 -56.5q0 -47 -15 -93.5t-44 -85.5zM172 614q-29 55 -98 67q0 -99 0.5 -177t1.5 -151q24 4 41 19t27 28q18 28 31 66.5t13 71.5q0 44 -16 76zM53 683l21 -2v22z" />
    <glyph glyph-name="Q" unicode="Q" horiz-adv-x="357" 
d="M149 -23q-14 0 -30.5 7.5t-33 27t-32.5 53.5t-31 87q-10 37 -14 98t-4 126q0 62 3.5 116.5t12.5 83.5q7 41 21.5 75t32.5 58t39.5 37t44.5 12q61 -5 93 -105.5t30 -286.5q1 -106 -11.5 -185.5t-35.5 -129.5q20 -20 43.5 -30t51.5 -6q16 2 27.5 -7.5t13.5 -24.5
q2 -14 -7.5 -25.5t-23.5 -13.5q-5 -1 -11 -1h-11q-33 0 -65.5 13.5t-58.5 36.5q-9 -9 -16 -11.5t-18 -4.5h-10zM152 687q-14 -1 -33 -34t-28 -89v1q-1 -1 -1 -5q-8 -22 -11.5 -74t-3.5 -114q0 -59 3.5 -115t11.5 -88q17 -62 33.5 -92.5t24.5 -28.5q-11 19 -18 40.5t-9 45.5
q-2 14 7.5 25.5t24.5 13.5q13 2 24 -6t14 -21q9 39 14 93.5t5 126.5q1 77 -2.5 130.5t-9.5 89t-13.5 55.5t-14 30.5t-12 13t-6.5 2.5zM173 85l35 2q-11 20 -16 55q0 2 -1 4q-4 -19 -8.5 -34t-9.5 -27zM157 35l1 23q-8 -10 -10 -10z" />
    <glyph glyph-name="R" unicode="R" horiz-adv-x="294" 
d="M204 383q-12 -15 -26 -29q4 -22 13.5 -64.5t24 -89.5t34 -91t43.5 -68q9 -10 9.5 -22.5t-7.5 -22.5q-10 -13 -27 -13q-14 0 -24 10q-26 27 -47 68.5t-37 87.5t-27 89.5t-18 74.5q-18 -7 -38 -9q2 -116 3.5 -187t4.5 -89q2 -3 2.5 -5.5t0.5 -7.5q0 -14 -10.5 -24.5
t-24.5 -10.5q-7 0 -13.5 3.5t-12 24t-9.5 65t-7 126.5t-4.5 208.5t-1.5 311.5q0 8 3 12q0 5 7 12q10 10 25 10q44 0 77 -9.5t56 -25t38 -34t24 -36.5q22 -43 22 -100q0 -43 -13.5 -86t-39.5 -79zM74 681v-162t1 -144q26 4 44 19.5t29 29.5q19 27 29.5 59.5t10.5 64.5
q0 39 -15 69q-27 53 -99 64zM76 354q0 5 -0.5 10.5t-0.5 10.5q-5 -1 -9 -1.5t-9 0.5z" />
    <glyph glyph-name="S" unicode="S" 
d="M157 -26q-24 0 -47.5 8.5t-43.5 23.5q-31 25 -47 60t-16 77q0 24 5 47q3 14 15 22t27 4q13 -4 21.5 -16t4.5 -26q-3 -14 -3 -31q0 -26 9 -46.5t27 -34.5q22 -18 47 -18q13 0 25 6q41 20 41 93q2 49 -25 93t-64 92l-17 23l-13 17l2 -2q-44 53 -63.5 110t-19.5 109
q0 32 6.5 61.5t20.5 52.5q20 29 48 45t57 16q17 0 34 -6q11 -4 27 -15t30.5 -32.5t24 -56.5t8.5 -86q0 -16 -9 -26.5t-28 -8.5q-14 2 -24 11.5t-8 26.5v-1q2 51 -9 82.5t-33 39.5q-15 5 -31 -1.5t-28 -23.5q-16 -29 -16 -78q0 -40 15 -85.5t52 -90.5l-1 1l6 -7l25 -33v1
l40 -54.5t33.5 -54t22 -57.5t6.5 -64q0 -38 -8.5 -65t-20.5 -45t-25.5 -28.5t-25.5 -15.5h1q-28 -13 -55 -13z" />
    <glyph glyph-name="T" unicode="T" horiz-adv-x="253" 
d="M16 684q-14 0 -24 10.5t-10 24.5t10 24t24 10h219q14 0 24.5 -10t10.5 -24t-10.5 -24.5t-24.5 -10.5h-69v-669q0 -14 -10.5 -24.5t-24.5 -10.5t-24 10.5t-10 24.5v669h-81v0z" />
    <glyph glyph-name="U" unicode="U" horiz-adv-x="301" 
d="M260 755q16 0 25.5 -10.5t9.5 -24.5v-580q-2 -45 -13 -76.5t-28 -51t-38 -28.5t-42 -9q-29 0 -57.5 15t-52.5 42t-39.5 65t-17.5 84q0 115 -0.5 209.5t-1 163t-1 109t-1.5 48.5q-1 3 -1 9q0 14 10.5 24.5t24.5 10.5q10 0 16.5 -2.5t11 -18.5t6.5 -50.5t3.5 -98t1.5 -161
v-240.5q1 -31 10.5 -56.5t23.5 -44t31 -28.5t33 -10q23 0 36.5 26t15.5 72v577q0 14 10 24.5t24 10.5z" />
    <glyph glyph-name="V" unicode="V" horiz-adv-x="287" 
d="M-8 713l1 -2q-4 15 5.5 27.5t23.5 14.5l-2 -1q15 3 26.5 -6t13.5 -22l23 -142l21.5 -128l21.5 -129l24 -145q10 55 20.5 123.5t20 140.5l18.5 143.5t16 134.5q2 14 13.5 23.5t25.5 7.5t22.5 -12t8.5 -24q0 -6 -0.5 -9t-1.5 -7l-11.5 -92l-17 -133.5t-21.5 -151.5
t-24.5 -146t-25 -118t-24.5 -66q-6 -6 -12 -9.5t-16 -3.5q-5 0 -9.5 0.5t-10.5 5.5q-12 9 -14 23z" />
    <glyph glyph-name="W" unicode="W" horiz-adv-x="431" 
d="M403 753q14 -2 22.5 -13.5t8.5 -24.5q-4 -30 -11 -90.5t-17.5 -135.5l-22.5 -155.5t-24.5 -150.5t-25.5 -121.5t-25 -67.5l1 1q-9 -14 -29 -14q-6 0 -10.5 1t-9.5 6q-2 1 -4.5 5t-4.5 6t-3.5 5t-1.5 8q-3 32 -4.5 52.5t-3 35.5t-3 28.5t-3 30.5t-4 42t-5.5 64
q-5 -49 -10.5 -93t-11.5 -80t-13 -61.5t-15 -36.5l1 1q-9 -14 -29 -14q-5 0 -9.5 0.5t-10.5 5.5q-12 9 -14 23l-115 703l1 -2q-4 15 5.5 27.5t23.5 14.5l-2 -1q13 3 25 -8t17 -26l82 -504q6 55 11.5 119.5t10 131t8 132.5t5.5 123q0 7 4 12q1 5 10 14l9 4l-3 -2q2 2 6 3.5
t10 1.5q2 0 8 -2q3 0 7 -2t11 -9l2 -5l-5 3q3 -2 7 -7l2 -3q2 -4 2 -6l44 -496l18.5 117.5t18 127.5l16.5 129.5l15 121.5q2 14 13 23.5t25 7.5zM251 728l-2 3l-2 4q4 -4 4 -7z" />
    <glyph glyph-name="X" unicode="X" horiz-adv-x="303" 
d="M188 367l111 -342q4 -14 -3 -26.5t-22 -17.5q-1 0 -3.5 -0.5t-4.5 -0.5q-11 0 -20.5 6.5t-12.5 19.5v-1l-81 248l-41 -124.5l-41 -123.5v1q-3 -13 -12 -19.5t-20 -6.5l-9 1q-16 6 -22.5 19t-1.5 27v-1l110 341l-110 341v-1q-5 14 -0.5 26t17.5 17q16 4 30 -2t18 -20v1
q12 -39 22 -68l19 -56.5l19 -56.5t22 -68l81 249v-1q4 14 18 20t30 2q12 -5 17 -16.5t1 -25.5z" />
    <glyph glyph-name="Y" unicode="Y" horiz-adv-x="298" 
d="M64 726q8 -38 20.5 -75.5t27 -73t29.5 -67.5t28 -57l38 137.5l38 137.5q3 12 15.5 20t26.5 4t20.5 -16t3.5 -26l-193 -705q-3 -11 -12.5 -18t-20.5 -7l-5 1q-16 4 -23.5 16.5t-4.5 26.5l91 333l-30 54t-42 84t-42.5 104t-32.5 113l1 -1q-4 15 3.5 26t21.5 15
q15 4 27.5 -4.5t14.5 -23.5v2z" />
    <glyph glyph-name="Z" unicode="Z" horiz-adv-x="301" 
d="M74 50h208q14 0 24.5 -10.5t10.5 -24.5t-10.5 -24.5t-24.5 -10.5h-256l-4 1q-2 0 -7 2t-7 4h-1l-7 8l-3 5q-5 5 -5 16q0 15 14 19q-7 0 -11 -6l211 653q-29 1 -75.5 1.5t-109.5 0.5q-16 0 -25.5 10.5t-9.5 24.5t9.5 24t25.5 10q59 0 100.5 -0.5t69.5 -1t45 -2t26 -4.5
q17 -5 21.5 -14t2.5 -22v-4zM-5 29l-2 -6q0 4 2 6zM10 36q-3 0 -4 -1q2 0 2.5 0.5t1.5 0.5z" />
    <glyph glyph-name="bracketleft" unicode="[" horiz-adv-x="144" 
d="M132 11q12 0 22 -9t10 -23t-10 -23t-22 -9h-100q-12 0 -22 9t-10 23q0 2 1 6t2 6q1 17 2.5 78t3 159.5t2 230t0.5 290.5v6.5t5 8.5q0 1 0.5 1.5t0.5 1.5q3 3 7.5 6.5t12.5 6.5q1 0 2.5 0.5t2.5 0.5l88 6q12 2 22 -7.5t12 -20.5q0 -14 -8.5 -25t-22.5 -11q-19 -1 -28.5 -2
t-28.5 -2q0 -175 -1 -298t-2 -205.5t-3 -131t-4 -73.5h66v0z" />
    <glyph glyph-name="backslash" unicode="\" horiz-adv-x="275" 
d="M8 752q13 3 25 -3t17 -18l240 -705v1q5 -14 -1.5 -27t-22.5 -19q-1 0 -4 -0.5t-5 -0.5q-22 0 -32 21l-240 707v-1q-5 14 1 27t20 18h2z" />
    <glyph glyph-name="bracketright" unicode="]" horiz-adv-x="144" 
d="M77 11q-2 27 -3.5 77.5t-2.5 134t-2 205t-1 291.5l-57 4q-14 0 -22.5 11t-8.5 25q2 11 12 20.5t22 7.5l86 -6q1 -1 3 -1t4 -1q12 -1 22 -17q3 -4 3.5 -7t0.5 -6q0 -159 0.5 -290.5t2 -230l2.5 -159.5t3 -78q3 -6 3 -12q0 -14 -10 -23t-22 -9h-100q-12 0 -22 9t-10 23
t10 23t22 9h65z" />
    <glyph glyph-name="asciicircum" unicode="^" horiz-adv-x="474" 
d="M252 895q7 0 11 -2q4 0 5.5 -1t6.5 -6l-1 2l191 -156q8 -8 12.5 -16.5t4.5 -15.5q0 -12 -8 -22q-11 -11 -24 -13t-25 9l-87.5 71l-87.5 72l-202 -145q-13 -8 -27 -5.5t-22 13.5q-9 11 -6.5 25t12.5 22l232 166h4q4 2 11 2z" />
    <glyph glyph-name="underscore" unicode="_" horiz-adv-x="703" 
d="M45 -18q-20 0 -34 11t-12 28q3 13 16.5 22t29.5 9l610 -8q20 0 33 -9.5t13 -25.5q0 -14 -14 -24.5t-34 -10.5z" />
    <glyph glyph-name="grave" unicode="`" horiz-adv-x="118" 
d="M100 760q-10 0 -21 9l-90 67q-11 9 -13 22.5t6 24.5q9 13 23 15t27 -7l91 -70q11 -9 12.5 -23t-7.5 -25q-6 -8 -13 -10.5t-15 -2.5z" />
    <glyph glyph-name="a" unicode="a" 
d="M48 -17q-14 0 -24 9.5t-11 23.5q-2 36 -2.5 74.5t-0.5 71.5q0 130 10.5 231.5t28 174.5t39.5 117t45 59q15 7 33.5 6.5t31.5 -7.5q22 -15 39 -53t28.5 -96t17 -133.5t5.5 -166.5q-1 -64 -4 -135t-9 -147q-2 -14 -11.5 -23t-26.5 -9q-14 2 -22.5 13.5t-8.5 24.5
q6 73 8.5 129t3.5 113h-51.5h-37.5t-27.5 0.5t-20.5 1.5q-1 -25 -1.5 -50t-0.5 -53q0 -66 3 -141q0 -14 -10 -24.5t-24 -10.5zM218 329q-1 167 -18 252t-36 102q-23 -18 -46.5 -106t-32.5 -245q20 -2 54 -2.5t79 -0.5zM161 685l3 -2l-2 2h-1zM167 685l-3 -2q1 0 2 1z" />
    <glyph glyph-name="b" unicode="b" horiz-adv-x="283" 
d="M12 25q0 145 -0.5 265.5t-1.5 209t-2.5 142t-2.5 66.5q-2 3 -1.5 5.5t0.5 5.5q0 14 10.5 24t24.5 10h3q66 3 116.5 -26t78.5 -86q11 -25 17.5 -52t6.5 -54q0 -40 -14 -78.5t-37 -65.5l-11.5 -11.5t-11.5 -10.5q22 -14 37.5 -32.5t28.5 -44.5t18.5 -54t5.5 -55
q0 -42 -13.5 -81.5t-38.5 -68.5q-23 -26 -52.5 -39.5t-62.5 -13.5q-16 0 -30 2t-30 8h-4q-14 0 -24 10.5t-10 24.5zM190 261q-5 10 -13.5 22t-22 23t-32 19t-42.5 11q1 -60 1 -126.5v-156.5q15 -3 28 -3q39 0 64 28q17 19 25.5 46.5t8.5 57.5q0 20 -4 40.5t-13 38.5z
M175 611q-5 9 -13 20t-20.5 21.5t-29 18.5t-37.5 11q2 -33 3 -96.5t2 -175.5q5 -1 9.5 -1h9.5q36 0 59 27q17 18 25 44.5t8 55.5q0 20 -4 39.5t-12 36.5v-1z" />
    <glyph glyph-name="c" unicode="c" horiz-adv-x="243" 
d="M0 375q-1 81 7.5 149.5t23.5 119t37 80.5t48 35q39 4 72.5 -39t56.5 -133q4 -14 -4 -26.5t-20 -15.5h1q-15 -5 -27 2.5t-17 21.5q-17 65 -31 93.5t-21 26.5q-9 -1 -19.5 -21t-19 -59t-13.5 -97.5t-4 -136.5q-1 -81 4.5 -140t14.5 -99t21 -62t24 -29q2 -2 4 0
q15 9 27.5 41.5t11.5 87.5q0 14 9.5 24.5t25.5 10.5q14 0 24.5 -10.5t10.5 -24.5q0 -67 -19.5 -118t-53.5 -71q-20 -11 -37 -11q-18 0 -38 11q-48 29 -74 130.5t-25 259.5z" />
    <glyph glyph-name="d" unicode="d" horiz-adv-x="264" 
d="M10 4q-2 2 -2 4q-2 3 -2.5 6t-0.5 12q1 8 1.5 60.5t1 142.5t0.5 214.5v276.5q0 14 10.5 24t24.5 10q51 0 92 -33t68 -98q22 -53 32.5 -118.5t10.5 -134.5q0 -55 -6.5 -108.5t-19 -100.5t-30.5 -85t-41 -61q-36 -36 -79 -36q-22 0 -47 12q-9 4 -13 13zM140 596
q-26 61 -62 79v-276.5v-182.5t-1 -109t-3 -57q13 1 26 14q18 18 32.5 50t24.5 72.5t15 87.5t5 95q0 63 -9 122.5t-28 104.5z" />
    <glyph glyph-name="e" unicode="e" horiz-adv-x="235" 
d="M40 -20q-14 0 -24.5 10.5t-10.5 24.5v334q0 2 -0.5 4t1.5 6q0 88 0.5 150t1.5 104t2.5 67t3.5 38l-1 1q0 10 3.5 15t8.5 10q7 7 11.5 8t10.5 1h173q14 0 24.5 -10t10.5 -24t-10.5 -24.5t-24.5 -10.5h-141l-4 -290q33 3 99 3q14 0 24.5 -10.5t10.5 -24.5t-10.5 -24
t-24.5 -10q-35 0 -59.5 -1t-39.5 -3v-120v-39t-0.5 -36t-0.5 -37v-42h146q14 0 24.5 -10.5t10.5 -24.5t-10.5 -24.5t-24.5 -10.5h-180v0z" />
    <glyph glyph-name="f" unicode="f" horiz-adv-x="235" 
d="M41 -20q-16 0 -25.5 10.5t-9.5 24.5v340q0 88 1 151t2 106t2.5 68t3.5 38l-1 1q0 15 11 25q5 8 11 8.5t12 0.5h173q14 0 24 -10t10 -24t-10 -24.5t-24 -10.5h-141q-2 -33 -2.5 -102.5t-1.5 -187.5q33 3 99 3q14 0 24 -9.5t10 -25.5q0 -14 -10 -24t-24 -10q-35 0 -59.5 -1
t-39.5 -3v-125q0 -43 -0.5 -89t-0.5 -95q0 -14 -10 -24.5t-24 -10.5z" />
    <glyph glyph-name="g" unicode="g" 
d="M115 -17q-25 13 -45 49.5t-33.5 92t-21 128t-8.5 157.5q-1 17 -1.5 37.5t-0.5 36.5q0 109 21.5 176t65.5 89q10 5 20.5 7.5t22.5 2.5q39 0 75 -28q15 -13 29 -31t24 -38t14 -41.5t-1 -40.5q-3 -14 -15.5 -21.5t-26.5 -3.5q-14 3 -21.5 15.5t-3.5 26.5q4 15 -8.5 38
t-32.5 40q-8 6 -20.5 12t-23.5 0l1 1q-6 -3 -14.5 -13t-16.5 -32.5t-13.5 -60.5t-5.5 -98q0 -17 0.5 -35t1.5 -38q0 -91 6 -157.5t16 -110.5t22.5 -68t25.5 -31q4 -2 8 2q24 17 41.5 75t17.5 144q0 17 -0.5 26l-1.5 28q-24 3 -70 3q-14 0 -24.5 10.5t-10.5 24.5t10.5 24.5
t24.5 10.5q47 0 74.5 -3.5t41 -9.5t17.5 -13.5t4 -14.5q2 -21 3.5 -43.5t1.5 -42.5q0 -53 -7.5 -98t-19.5 -81t-28.5 -61t-34.5 -37q-22 -14 -45 -14q-9 0 -17.5 2.5t-16.5 6.5z" />
    <glyph glyph-name="h" unicode="h" horiz-adv-x="267" 
d="M14 15q0 145 -1 266t-2.5 211t-3 145.5t-3.5 70.5q-1 2 -1 5.5v5.5q0 14 10 24t24 10q7 0 12.5 -2t10.5 -12.5t9 -33t6.5 -64t4 -105.5t2.5 -157h108v340q0 14 10.5 24t24.5 10t24.5 -10t10.5 -24v-704q0 -14 -10.5 -24.5t-24.5 -10.5t-24.5 10.5t-10.5 24.5v295h-107
v-295q0 -14 -10 -24.5t-24 -10.5t-24.5 10.5t-10.5 24.5z" />
    <glyph glyph-name="i" unicode="i" horiz-adv-x="219" 
d="M145 684q0 -267 2.5 -431t6.5 -203h43q14 0 24.5 -10.5t10.5 -24.5t-10.5 -24.5t-24.5 -10.5h-159q-14 0 -24.5 10.5t-10.5 24.5t10.5 24.5t24.5 10.5h48q-2 27 -4 74.5t-3.5 122.5t-2 182.5t-0.5 254.5h-57q-14 0 -24.5 10.5t-10.5 24.5t10.5 24t24.5 10h178
q14 0 24.5 -10t10.5 -24t-10.5 -24.5t-24.5 -10.5h-52z" />
    <glyph glyph-name="j" unicode="j" horiz-adv-x="207" 
d="M-10 162q2 13 12 23t24 10t24 -11t10 -25q-2 -29 1.5 -49.5t9.5 -33.5t14 -19t15 -7q6 -1 10 5t6 17q8 49 11.5 110t3.5 127q0 57 -1.5 114.5t-3.5 114.5q0 7 -0.5 13.5t-0.5 13.5l-4 119h-61q-14 0 -24.5 10.5t-10.5 24.5t10.5 24t24.5 10h96q14 0 24.5 -10t10.5 -24
q0 -37 1 -80t3 -89v-9l4 -117.5t2 -117.5q0 -66 -4 -130.5t-12 -113.5q-2 -20 -10 -35.5t-20 -26t-26 -15.5t-29 -5l-5 1q-21 1 -41 12.5t-35 34t-23.5 56t-5.5 78.5z" />
    <glyph glyph-name="k" unicode="k" horiz-adv-x="285" 
d="M50 -18q-8 0 -14.5 3.5t-11.5 24t-8.5 64.5t-6 126t-3.5 208.5t-1 310.5q0 14 10.5 24t24.5 10t24.5 -10t10.5 -24v-68.5v-46v-41.5v-55q5 13 9 26.5l8 26.5q12 37 24.5 71.5t29 61.5t40 43t56.5 16q14 0 24 -10t10 -24t-10 -24.5t-24 -10.5t-25.5 -11.5t-21.5 -31.5
t-19 -46l-18 -54q-11 -35 -25.5 -74t-31.5 -73q23 -10 40 -31.5t29.5 -50t22.5 -61l19 -64.5l14 -47t14.5 -42.5t15 -33t15.5 -16.5l-1 1q14 -5 19.5 -18.5t0.5 -26.5q-13 -22 -33 -22q-4 0 -7 0.5t-8 2.5h1q-19 9 -33 26.5t-25 41.5t-20.5 53t-18.5 61l-15.5 52.5t-16 47
t-18 37.5t-20.5 23q2 -131 3.5 -208t3.5 -92q2 -4 1.5 -6.5t-0.5 -4.5q0 -14 -10 -24t-24 -10z" />
    <glyph glyph-name="l" unicode="l" horiz-adv-x="194" 
d="M44 -17q-7 0 -13 5q-14 5 -16 11.5t-2 18.5q0 1 0.5 1t0.5 2q-3 18 -4.5 59.5t-2.5 121.5t-1.5 205t-0.5 310q0 16 10.5 25.5t24.5 9.5t24.5 -9.5t10.5 -25.5q0 -140 0.5 -254t1 -198.5t1.5 -139t2 -74.5h7q17 0 40 -0.5t53 -0.5q14 0 24 -10.5t10 -24.5t-10 -24.5
t-24 -10.5q-60 0 -91 0.5t-45 2.5z" />
    <glyph glyph-name="m" unicode="m" horiz-adv-x="319" 
d="M41 -20q-14 0 -24.5 10.5t-10.5 24.5q0 183 0.5 307.5t2 204.5t3 122t4.5 61q0 22 13 33q6 7 11.5 8.5t13.5 -0.5h1q1 0 1.5 -0.5t2.5 -0.5q7 -2 11 -5l8 -9l-4 3q3 -2 6 -6t4 -7q33 -137 63 -246l14 -53l8 -28l3 17q2 15 5.5 30.5t5.5 30.5l4 21q11 66 22 124.5
t29 110.5l1 1q1 1 1 1.5t1 1.5l8 7q2 2 7 4t7 2q1 0 1.5 0.5t1.5 0.5l-6 -1l3 1q5 2 11 0h5t11 -8l5 -4q5 -5 6 -10t1 -8q1 0 1 1h1q0 -149 1 -273t2.5 -215t3 -145.5t3.5 -66.5q0 -1 0.5 -3.5t0.5 -3.5q0 -14 -10.5 -24.5t-24.5 -10.5q-7 0 -12.5 2t-10 13t-8.5 34.5
t-6.5 66.5t-4.5 109t-3 162l-12 -65t-14 -68v4q0 -1 -0.5 -1.5t-0.5 -1.5q0 -2 -2 -7t-4 -7l-5 -6l-9 -6q-5 -2 -8 -2.5t-5 -0.5q-9 0 -16 5q-6 2 -11 11l-5 5l-16.5 65.5t-18.5 69.5l-13 48q-5 16 -8.5 32.5t-8.5 33.5q-1 -89 -1.5 -205t-0.5 -256q0 -14 -10.5 -24.5
t-24.5 -10.5zM83 729l-5 7q5 -4 5 -7zM282 746l-3 3q3 -2 3 -3zM274 751l5 -2z" />
    <glyph glyph-name="n" unicode="n" horiz-adv-x="298" 
d="M40 -20q-14 0 -24.5 10.5t-10.5 24.5q0 186 0.5 311.5t2 206.5t4 123.5t5.5 61.5q1 7 4 14t8 12q6 8 11.5 8h10.5q8 0 11 -2q9 -2 16 -13l-1 1l8 -9q7 -37 21.5 -86.5l34.5 -115.5l6 -18q11 -37 17.5 -56.5t12.5 -39.5l14 -49l23 -85q1 118 2.5 199t4.5 133.5t6.5 81
t8.5 41.5t11 15.5t13 2.5q14 0 24 -9.5t10 -25.5q0 -7 -1 -11q-2 -13 -3.5 -68t-3 -144.5t-2.5 -211t-1 -267.5q0 -5 -0.5 -7t-3.5 -6l-2.5 -5t-3.5 -5l-4 -3q-2 -2 -7 -4t-7 -2q0 -1 1 -1v-1q-1 0 -4 -0.5t-4 -0.5q-13 0 -24 11l-2 2q-3 3 -4 5q-3 4 -3.5 7t-0.5 6
q-38 154 -73.5 275l-63.5 213q-2 -91 -2.5 -213t-0.5 -271q0 -14 -10 -24.5t-24 -10.5z" />
    <glyph glyph-name="o" unicode="o" horiz-adv-x="272" 
d="M272 358q1 -82 -7.5 -151t-24 -119.5t-38.5 -80t-51 -33.5h-9q-14 0 -30 7t-32.5 26.5t-32.5 53t-31 86.5q-7 26 -9 62t-2 78q0 48 2 98.5t4 92.5q3 52 3 81q0 66 20 117t55 71h-1q18 12 41 12q9 0 20 -3.5t20 -8.5q50 -31 77 -132.5t26 -256.5zM141 44q10 1 21.5 21
t20.5 59t14.5 97t4.5 137q1 80 -5 138.5t-15.5 98.5t-22 62.5t-25.5 29.5q-5 3 -11 0l1 1q-15 -9 -28 -42t-12 -87q0 -14 -0.5 -36t-2.5 -48l-4.5 -89.5t-2.5 -95.5q0 -38 2 -72t7 -54q17 -61 33 -91.5t24 -28.5h1z" />
    <glyph glyph-name="p" unicode="p" horiz-adv-x="255" 
d="M199 359q-25 -34 -56 -53t-66 -23q2 -108 3.5 -173t4.5 -81q3 -6 3 -14q0 -14 -10.5 -24.5t-24.5 -10.5q-7 0 -13.5 3.5t-12 24t-9.5 65t-7 126.5t-4.5 208.5t-1.5 311.5q0 6 3 12q0 5 7 12q10 10 25 10q43 0 75.5 -10t55.5 -25.5t38.5 -34.5t24.5 -37q11 -24 17.5 -51.5
t6.5 -56.5q0 -47 -15 -93.5t-44 -85.5zM172 614q-29 55 -98 67q0 -99 0.5 -177t1.5 -151q24 4 41 19t27 28q18 28 31 66.5t13 71.5q0 44 -16 76zM53 683l21 -2v22z" />
    <glyph glyph-name="q" unicode="q" horiz-adv-x="357" 
d="M149 -23q-14 0 -30.5 7.5t-33 27t-32.5 53.5t-31 87q-10 37 -14 98t-4 126q0 62 3.5 116.5t12.5 83.5q7 41 21.5 75t32.5 58t39.5 37t44.5 12q61 -5 93 -105.5t30 -286.5q1 -106 -11.5 -185.5t-35.5 -129.5q20 -20 43.5 -30t51.5 -6q16 2 27.5 -7.5t13.5 -24.5
q2 -14 -7.5 -25.5t-23.5 -13.5q-5 -1 -11 -1h-11q-33 0 -65.5 13.5t-58.5 36.5q-9 -9 -16 -11.5t-18 -4.5h-10zM152 687q-14 -1 -33 -34t-28 -89v1q-1 -1 -1 -5q-8 -22 -11.5 -74t-3.5 -114q0 -59 3.5 -115t11.5 -88q17 -62 33.5 -92.5t24.5 -28.5q-11 19 -18 40.5t-9 45.5
q-2 14 7.5 25.5t24.5 13.5q13 2 24 -6t14 -21q9 39 14 93.5t5 126.5q1 77 -2.5 130.5t-9.5 89t-13.5 55.5t-14 30.5t-12 13t-6.5 2.5zM173 85l35 2q-11 20 -16 55q0 2 -1 4q-4 -19 -8.5 -34t-9.5 -27zM157 35l1 23q-8 -10 -10 -10z" />
    <glyph glyph-name="r" unicode="r" horiz-adv-x="294" 
d="M204 383q-12 -15 -26 -29q4 -22 13.5 -64.5t24 -89.5t34 -91t43.5 -68q9 -10 9.5 -22.5t-7.5 -22.5q-10 -13 -27 -13q-14 0 -24 10q-26 27 -47 68.5t-37 87.5t-27 89.5t-18 74.5q-18 -7 -38 -9q2 -116 3.5 -187t4.5 -89q2 -3 2.5 -5.5t0.5 -7.5q0 -14 -10.5 -24.5
t-24.5 -10.5q-7 0 -13.5 3.5t-12 24t-9.5 65t-7 126.5t-4.5 208.5t-1.5 311.5q0 8 3 12q0 5 7 12q10 10 25 10q44 0 77 -9.5t56 -25t38 -34t24 -36.5q22 -43 22 -100q0 -43 -13.5 -86t-39.5 -79zM74 681v-162t1 -144q26 4 44 19.5t29 29.5q19 27 29.5 59.5t10.5 64.5
q0 39 -15 69q-27 53 -99 64zM76 354q0 5 -0.5 10.5t-0.5 10.5q-5 -1 -9 -1.5t-9 0.5z" />
    <glyph glyph-name="s" unicode="s" 
d="M157 -26q-24 0 -47.5 8.5t-43.5 23.5q-31 25 -47 60t-16 77q0 24 5 47q3 14 15 22t27 4q13 -4 21.5 -16t4.5 -26q-3 -14 -3 -31q0 -26 9 -46.5t27 -34.5q22 -18 47 -18q13 0 25 6q41 20 41 93q2 49 -25 93t-64 92l-17 23l-13 17l2 -2q-44 53 -63.5 110t-19.5 109
q0 32 6.5 61.5t20.5 52.5q20 29 48 45t57 16q17 0 34 -6q11 -4 27 -15t30.5 -32.5t24 -56.5t8.5 -86q0 -16 -9 -26.5t-28 -8.5q-14 2 -24 11.5t-8 26.5v-1q2 51 -9 82.5t-33 39.5q-15 5 -31 -1.5t-28 -23.5q-16 -29 -16 -78q0 -40 15 -85.5t52 -90.5l-1 1l6 -7l25 -33v1
l40 -54.5t33.5 -54t22 -57.5t6.5 -64q0 -38 -8.5 -65t-20.5 -45t-25.5 -28.5t-25.5 -15.5h1q-28 -13 -55 -13z" />
    <glyph glyph-name="t" unicode="t" horiz-adv-x="253" 
d="M16 684q-14 0 -24 10.5t-10 24.5t10 24t24 10h219q14 0 24.5 -10t10.5 -24t-10.5 -24.5t-24.5 -10.5h-69v-669q0 -14 -10.5 -24.5t-24.5 -10.5t-24 10.5t-10 24.5v669h-81v0z" />
    <glyph glyph-name="u" unicode="u" horiz-adv-x="301" 
d="M260 755q16 0 25.5 -10.5t9.5 -24.5v-580q-2 -45 -13 -76.5t-28 -51t-38 -28.5t-42 -9q-29 0 -57.5 15t-52.5 42t-39.5 65t-17.5 84q0 115 -0.5 209.5t-1 163t-1 109t-1.5 48.5q-1 3 -1 9q0 14 10.5 24.5t24.5 10.5q10 0 16.5 -2.5t11 -18.5t6.5 -50.5t3.5 -98t1.5 -161
v-240.5q1 -31 10.5 -56.5t23.5 -44t31 -28.5t33 -10q23 0 36.5 26t15.5 72v577q0 14 10 24.5t24 10.5z" />
    <glyph glyph-name="v" unicode="v" horiz-adv-x="287" 
d="M-8 713l1 -2q-4 15 5.5 27.5t23.5 14.5l-2 -1q15 3 26.5 -6t13.5 -22l23 -142l21.5 -128l21.5 -129l24 -145q10 55 20.5 123.5t20 140.5l18.5 143.5t16 134.5q2 14 13.5 23.5t25.5 7.5t22.5 -12t8.5 -24q0 -6 -0.5 -9t-1.5 -7l-11.5 -92l-17 -133.5t-21.5 -151.5
t-24.5 -146t-25 -118t-24.5 -66q-6 -6 -12 -9.5t-16 -3.5q-5 0 -9.5 0.5t-10.5 5.5q-12 9 -14 23z" />
    <glyph glyph-name="w" unicode="w" horiz-adv-x="431" 
d="M403 753q14 -2 22.5 -13.5t8.5 -24.5q-4 -30 -11 -90.5t-17.5 -135.5l-22.5 -155.5t-24.5 -150.5t-25.5 -121.5t-25 -67.5l1 1q-9 -14 -29 -14q-6 0 -10.5 1t-9.5 6q-2 1 -4.5 5t-4.5 6t-3.5 5t-1.5 8q-3 32 -4.5 52.5t-3 35.5t-3 28.5t-3 30.5t-4 42t-5.5 64
q-5 -49 -10.5 -93t-11.5 -80t-13 -61.5t-15 -36.5l1 1q-9 -14 -29 -14q-5 0 -9.5 0.5t-10.5 5.5q-12 9 -14 23l-115 703l1 -2q-4 15 5.5 27.5t23.5 14.5l-2 -1q13 3 25 -8t17 -26l82 -504q6 55 11.5 119.5t10 131t8 132.5t5.5 123q0 7 4 12q1 5 10 14l9 4l-3 -2q2 2 6 3.5
t10 1.5q2 0 8 -2q3 0 7 -2t11 -9l2 -5l-5 3q3 -2 7 -7l2 -3q2 -4 2 -6l44 -496l18.5 117.5t18 127.5l16.5 129.5l15 121.5q2 14 13 23.5t25 7.5zM251 728l-2 3l-2 4q4 -4 4 -7z" />
    <glyph glyph-name="x" unicode="x" horiz-adv-x="303" 
d="M188 367l111 -342q4 -14 -3 -26.5t-22 -17.5q-1 0 -3.5 -0.5t-4.5 -0.5q-11 0 -20.5 6.5t-12.5 19.5v-1l-81 248l-41 -124.5l-41 -123.5v1q-3 -13 -12 -19.5t-20 -6.5l-9 1q-16 6 -22.5 19t-1.5 27v-1l110 341l-110 341v-1q-5 14 -0.5 26t17.5 17q16 4 30 -2t18 -20v1
q12 -39 22 -68l19 -56.5l19 -56.5t22 -68l81 249v-1q4 14 18 20t30 2q12 -5 17 -16.5t1 -25.5z" />
    <glyph glyph-name="y" unicode="y" horiz-adv-x="298" 
d="M64 726q8 -38 20.5 -75.5t27 -73t29.5 -67.5t28 -57l38 137.5l38 137.5q3 12 15.5 20t26.5 4t20.5 -16t3.5 -26l-193 -705q-3 -11 -12.5 -18t-20.5 -7l-5 1q-16 4 -23.5 16.5t-4.5 26.5l91 333l-30 54t-42 84t-42.5 104t-32.5 113l1 -1q-4 15 3.5 26t21.5 15
q15 4 27.5 -4.5t14.5 -23.5v2z" />
    <glyph glyph-name="z" unicode="z" horiz-adv-x="301" 
d="M74 50h208q14 0 24.5 -10.5t10.5 -24.5t-10.5 -24.5t-24.5 -10.5h-256l-4 1q-2 0 -7 2t-7 4h-1l-7 8l-3 5q-5 5 -5 16q0 15 14 19q-7 0 -11 -6l211 653q-29 1 -75.5 1.5t-109.5 0.5q-16 0 -25.5 10.5t-9.5 24.5t9.5 24t25.5 10q59 0 100.5 -0.5t69.5 -1t45 -2t26 -4.5
q17 -5 21.5 -14t2.5 -22v-4zM-5 29l-2 -6q0 4 2 6zM10 36q-3 0 -4 -1q2 0 2.5 0.5t1.5 0.5z" />
    <glyph glyph-name="braceleft" unicode="{" horiz-adv-x="183" 
d="M-10 368q0 9 4 13l6 7q4 4 6 5q3 3 8 5q15 2 23.5 5.5t13.5 9.5t8.5 15t7.5 22v-1l6 22l-1 -1q2 11 -3.5 22.5t-15.5 25.5q-13 20 -25 45.5t-12 60.5q0 17 4.5 37t16.5 46q14 20 34.5 32t43.5 14q21 2 39 -6.5t32 -24.5q8 -9 7 -22t-11 -22q-9 -8 -21.5 -6.5t-21.5 11.5
q-9 9 -21 9q-18 -3 -29 -17q-5 -14 -8.5 -27t-3.5 -24q0 -20 9 -38t19 -34q13 -20 23.5 -42t5.5 -45l-8 -32v-1q-6 -22 -11.5 -37t-18.5 -28q11 -12 17.5 -29t12.5 -37l6 -25q6 -29 -3.5 -51t-23.5 -43v1q-10 -17 -19 -34t-9 -39q0 -11 2.5 -24t9.5 -27l-1 3q13 -20 33 -20
q13 2 22 15v-1q6 11 20 13t25 -5q10 -8 11.5 -19t-4.5 -22q-28 -42 -75 -43q-24 0 -46 13t-39 36q-20 46 -20 81t12.5 60.5t25.5 45.5q10 14 15.5 25.5t3.5 22.5l1 -1l-6 22v-1q-8 27 -15.5 38t-33.5 14q-6 -2 -13 4q-2 1 -3 2.5t-3 3.5q-6 5 -7 10q-1 1 -1 2t-1 3v7v0z" />
    <glyph glyph-name="bar" unicode="|" horiz-adv-x="89" 
d="M41 -20q-14 0 -24.5 11t-10.5 26v700q0 15 10.5 25.5t24.5 10.5t24.5 -10.5t10.5 -25.5v-700q0 -15 -10.5 -26t-24.5 -11z" />
    <glyph glyph-name="braceright" unicode="}" horiz-adv-x="183" 
d="M193 366v-8t-5 -8q-1 -2 -1.5 -2t-2.5 -2t-4.5 -4t-8.5 -5q-1 0 -4 -0.5t-4 -0.5q-13 -2 -20.5 -5t-12 -9t-7.5 -15.5l-7 -22.5v1l-6 -22l1 1q-2 -11 3.5 -22.5t15.5 -25.5q13 -20 25.5 -45.5t12.5 -60.5t-20 -81q-17 -23 -39 -36t-48 -13q-45 2 -73 43q-6 11 -4.5 22
t11.5 19q11 7 25 5t20 -13v1q9 -14 24 -15q18 0 31 20l-1 -3q7 14 9.5 27t2.5 24q0 22 -9 39t-19 34v-1q-14 21 -24 42t-5 45l8 32q6 20 12.5 37.5t17.5 28.5q-13 13 -18.5 28t-11.5 37l-7 25q-6 29 4 51t24 44q10 17 19 34t9 38q0 12 -2.5 24.5t-9.5 26.5q-6 6 -14 11
t-16 6q-13 -2 -20 -9q-9 -11 -22 -11.5t-22 7.5q-10 9 -10.5 21.5t7.5 21.5q14 16 32 24.5t39 6.5q22 -2 42.5 -14t35.5 -32q12 -26 16.5 -46t4.5 -37q0 -35 -12 -60.5t-25 -45.5q-10 -14 -15.5 -25.5t-3.5 -22.5l-1 1l6 -22v1q8 -27 15.5 -38t33.5 -14q4 0 7.5 -0.5
t8.5 -7.5l2 -2l5 -7q5 -5 5 -13v-2v0z" />
    <glyph glyph-name="dieresis" unicode="&#xa8;" horiz-adv-x="140" 
d="M-23 796q0 18 13 31t31 13t30.5 -13t12.5 -31t-12.5 -30.5t-30.5 -12.5t-31 12.5t-13 30.5zM73 796q0 18 13 31t31 13t30.5 -13t12.5 -31t-12.5 -30.5t-30.5 -12.5t-31 12.5t-13 30.5z" />
    <glyph glyph-name="copyright" unicode="&#xa9;" horiz-adv-x="386" 
d="M193 753q40 0 76 -15.5t62 -42.5t41.5 -63t15.5 -77t-15.5 -77t-41.5 -63t-62 -42.5t-76 -15.5t-75.5 15.5t-62 42.5t-42 63t-15.5 77t15.5 77t42 63t62 42.5t75.5 15.5zM193 419q-27 0 -51.5 10.5t-42.5 29t-28.5 43.5t-10.5 53t10.5 53t28.5 43.5t42.5 29t51.5 10.5
q28 0 52 -10.5t42 -29t28.5 -43.5t10.5 -53t-10.5 -53t-28.5 -43.5t-42 -29t-52 -10.5zM221 527q13 0 22 -9t9 -22q0 -27 -9 -47t-24 -29l2 1q-12 -8 -24 -8q-14 0 -24 9q-12 9 -19.5 25.5t-11.5 36t-5.5 39t-1.5 35.5q0 24 2.5 47.5t9 43t17 33t27.5 15.5q42 0 59 -69v1
q4 -12 -3.5 -23.5t-24.5 -16.5q-15 0 -25 10q-1 -16 0 -41v-23.5t1 -18.5l1 1q4 4 9.5 7t12.5 3z" />
    <glyph glyph-name="guillemotleft" unicode="&#xab;" horiz-adv-x="362" 
d="M128 387v4.5t2 5.5v5l165 231q8 11 23 13.5t26 -7.5l-1 1q11 -8 13.5 -22t-5.5 -27l-145 -202l143 -175q11 -12 9 -25.5t-13 -23.5q-5 -5 -11 -6.5t-11 -1.5q-15 0 -32 17l-156 191l2 -1q-7 7 -7 14q-2 4 -2 9zM-12 387v4.5t2 5.5v5l165 231q8 11 23 13.5t26 -7.5l-1 1
q11 -8 13.5 -22t-5.5 -27l-145 -202l143 -175q11 -12 9 -25.5t-13 -23.5q-5 -5 -11 -6.5t-11 -1.5q-15 0 -32 17l-156 191l2 -1q-7 7 -7 14q-2 4 -2 9z" />
    <glyph glyph-name="uni00AD" unicode="&#xad;" horiz-adv-x="398" 
d="M34 365q-15 0 -25.5 10t-8.5 26q1 14 11 23t23 9l327 -7q14 0 24 -10t10 -24t-10.5 -24t-24.5 -10z" />
    <glyph glyph-name="registered" unicode="&#xae;" horiz-adv-x="408" 
d="M204 752q42 0 79.5 -15.5t65.5 -41.5t44.5 -61.5t16.5 -75.5t-16.5 -75.5t-44.5 -62t-65.5 -42t-79.5 -15.5q-43 0 -80.5 15.5t-65.5 42t-44 62t-16 75.5t16 75.5t44 61.5t65.5 41.5t80.5 15.5zM204 686q29 0 54.5 -10t44.5 -27.5t30 -40.5t11 -50t-11 -50.5t-30 -41
t-44.5 -27.5t-54.5 -10t-54.5 10t-44.5 27.5t-30 41t-11 50.5t11 50t30 40.5t44.5 27.5t54.5 10zM175 418q11 0 20 6.5t12 17.5q4 -8 10 -13q10 -10 24 -10q13 0 24 8q8 11 8 22q2 8 -0.5 13t-5.5 10q-10 9 -17.5 31t-12.5 44l3 3q1 1 1 2q19 28 19 61q0 22 -10 41l1 -1
q-8 15 -26.5 29t-53.5 16q-6 0 -12.5 -3t-10.5 -7q-6 -6 -6 -7q-3 -4 -3 -14q-1 -75 -0.5 -123.5t2.5 -71.5q0 -8 0.5 -16.5t2.5 -13.5q2 -12 10.5 -18t20.5 -6zM192 624q3 -7 1.5 -16.5t-6.5 -17.5q-2 -2 -4 -4.5t-5 -3.5l27 -18q-1 20 -1 41.5v44.5l-23 -20q8 -2 11 -7v1z
" />
    <glyph glyph-name="acute" unicode="&#xb4;" horiz-adv-x="120" 
d="M16 760q-8 0 -15 2.5t-13 10.5q-9 11 -8 25t12 23l92 70q13 8 27 6t22 -14q8 -11 6 -24.5t-13 -22.5l-91 -69q-11 -7 -19 -7z" />
    <glyph glyph-name="periodcentered" unicode="&#xb7;" horiz-adv-x="83" 
d="M41 451q18 0 31 -13t13 -31t-13 -30.5t-31 -12.5t-30.5 12.5t-12.5 30.5t12.5 31t30.5 13z" />
    <glyph glyph-name="guillemotright" unicode="&#xbb;" horiz-adv-x="362" 
d="M234 387q0 -7 -2 -11q0 -4 -1 -5.5t-6 -6.5l2 1l-156 -191q-8 -8 -16.5 -12.5t-15.5 -4.5q-12 0 -22 8q-11 10 -13 23.5t9 25.5l71 87.5l72 87.5l-145 202q-8 13 -5.5 27t13.5 22t24.5 5t22.5 -12l166 -231v-5q2 -3 2 -5.5v-4.5zM374 387q0 -7 -2 -11q0 -4 -1 -5.5
t-6 -6.5l2 1l-156 -191q-8 -8 -16.5 -12.5t-15.5 -4.5q-12 0 -22 8q-11 10 -13 23.5t9 25.5l71 87.5l72 87.5l-145 202q-8 13 -5.5 27t13.5 22t24.5 5t22.5 -12l166 -231v-5q2 -3 2 -5.5v-4.5z" />
    <glyph glyph-name="onequarter" unicode="&#xbc;" horiz-adv-x="1159" 
d="M275 741q0 -1 1 -2h1q1 -3 3 -6q2 -2 2.5 -5.5t2.5 -5.5q0 -185 -1.5 -312.5t-4.5 -210t-7 -127t-9.5 -65t-12 -24t-13.5 -3.5q-14 0 -24.5 10.5t-10.5 24.5q0 5 0.5 7.5t2.5 5.5q2 15 3.5 60.5t3 118t2.5 169t2 212.5l-30 -51q-11 -18 -30 -18q-9 0 -17 4
q-13 8 -16.5 21.5t4.5 26.5l95 166l-1 -1q3 6 7.5 9t12.5 7q3 0 6 1q1 0 3 -0.5t4 -0.5h4q13 0 18 -13q0 1 -0.5 1t-0.5 1zM274 740q-8 6 -12 6zM280 729l-2 6v-3q0 3 -1 4q1 -1 3 -7zM586 752q14 -5 20 -18t1 -27v1l-240 -707q-11 -21 -32 -21l-9 1q-16 6 -22.5 19t-1.5 27
v-1l239 705q5 13 17 19t26 2h2zM691 727q3 14 15.5 21.5t26.5 3.5q14 -3 21.5 -15.5t3.5 -26.5l-107 -421h58v39q0 14 10.5 24t24.5 10t24 -10t10 -24v-39h50q14 0 24.5 -10t10.5 -24t-10.5 -24.5t-24.5 -10.5h-50v-205q0 -14 -10 -24.5t-24 -10.5t-24.5 10.5t-10.5 24.5
v205h-103q-2 0 -4.5 -0.5t-7.5 2.5q-2 1 -4.5 3t-4.5 4l-4 3q-5 5 -6.5 7t-1.5 6q-2 4 -2 10q0 1 0.5 1.5t0.5 2.5l1 1l1 3q0 2 2 4l-2 -2zM574 265v-2l-2 -4q0 2 2 6z" />
    <glyph glyph-name="onehalf" unicode="&#xbd;" horiz-adv-x="901" 
d="M135 741q0 -1 1 -2h1q1 -3 3 -6q2 -2 2.5 -5.5t2.5 -5.5q0 -185 -1.5 -312.5t-4.5 -210t-7 -127t-9.5 -65t-12 -24t-13.5 -3.5q-14 0 -24.5 10.5t-10.5 24.5q0 5 0.5 7.5t2.5 5.5q2 15 3.5 60.5t3 118t2.5 169t2 212.5l-30 -51q-11 -18 -30 -18q-9 0 -17 4
q-13 8 -16.5 21.5t4.5 26.5l95 166l-1 -1q3 6 7.5 9t12.5 7q3 0 6 1q1 0 3 -0.5t4 -0.5h4q13 0 18 -13q0 1 -0.5 1t-0.5 1zM134 740q-8 6 -12 6zM140 729l-2 6v-3q0 3 -1 4q1 -1 3 -7zM426 752q14 -5 20 -18t1 -27v1l-240 -707q-11 -21 -32 -21l-9 1q-16 6 -22.5 19t-1.5 27
v-1l239 705q5 13 17 19t26 2h2zM750 50q14 0 24 -10t10 -24t-10 -24.5t-24 -10.5h-174q-2 0 -3 -0.5t-3 -0.5h-6q-32 0 -64 14.5t-51 50.5l1 -1q-16 27 -16 65q0 49 40 133t136 197q37 45 58 89t21 79q0 27 -13 47q-11 19 -31 26t-41 2q-28 -11 -46.5 -42t-20.5 -78
q-1 -14 -12 -24t-25 -10q-14 2 -24 12.5t-8 24.5q2 72 33.5 120.5t85.5 62.5h-1q10 3 19.5 4t17.5 1q33 0 63 -16.5t49 -44.5q8 -12 16 -33.5t8 -52.5q0 -38 -20 -91t-76 -121q-49 -57 -80 -102t-48.5 -79.5t-24 -60t-6.5 -43.5q0 -12 2.5 -20t4.5 -13q8 -17 26.5 -22.5
t36.5 -3.5h176v0z" />
    <glyph glyph-name="threequarters" unicode="&#xbe;" horiz-adv-x="925" 
d="M142 -20q-37 0 -68 16h1q-14 7 -28 18.5t-25 29t-18 42.5t-7 59q0 22 3 45q2 14 13.5 23t25.5 7t23 -14t7 -26q-2 -10 -2 -18v-16q0 -70 38 -88q8 -5 17.5 -6.5t18.5 -1.5q17 0 29.5 3.5t17.5 8.5q27 22 42 63.5t15 87.5q0 20 -3.5 39t-9.5 38q-5 13 -14 28.5t-24.5 29.5
t-38 23.5t-53.5 9.5h-4q-14 0 -24.5 10.5t-10.5 26.5l1 3q0 11 4 20l153 243h-186q-14 0 -24.5 10.5t-10.5 24.5t10.5 24t24.5 10h249q2 0 3 -0.5t3 -0.5q5 0 13 -5q5 -3 7.5 -7t6.5 -12q0 -1 0.5 -4t0.5 -5q0 -1 -0.5 -1.5t-0.5 -2.5t-1.5 -6.5t-3.5 -6.5q4 4 4 3
l-163 -260q49 -12 87 -46t57 -85q9 -23 13 -49t4 -53q0 -30 -5.5 -59.5t-16 -56.5t-25.5 -49.5t-34 -37.5l1 2q-12 -12 -37.5 -21.5t-54.5 -9.5zM303 739q-3 9 -12 12q10 -3 12 -12zM304 735l-1 1zM526 752q14 -5 20 -18t1 -27v1l-240 -707q-11 -21 -32 -21l-9 1
q-16 6 -22.5 19t-1.5 27v-1l239 705q5 13 17 19t26 2h2zM631 727q3 14 15.5 21.5t26.5 3.5q14 -3 21.5 -15.5t3.5 -26.5l-107 -421h58v39q0 14 10.5 24t24.5 10t24 -10t10 -24v-39h50q14 0 24.5 -10t10.5 -24t-10.5 -24.5t-24.5 -10.5h-50v-205q0 -14 -10 -24.5t-24 -10.5
t-24.5 10.5t-10.5 24.5v205h-103q-2 0 -4.5 -0.5t-7.5 2.5q-2 1 -4.5 3t-4.5 4l-4 3q-5 5 -6.5 7t-1.5 6q-2 4 -2 10q0 1 0.5 1.5t0.5 2.5l1 1l1 3q0 2 2 4l-2 -2zM514 265v-2l-2 -4q0 2 2 6z" />
    <glyph glyph-name="questiondown" unicode="&#xbf;" horiz-adv-x="401" 
d="M261.008 682.004q-16.998 0 -28.498 11.499q-11.499 11.499 -11.499 28.498q0 15.999 11.499 28.499q11.5 12.499 28.498 12.499q16.999 0 28.499 -12.499q11.499 -12.5 11.499 -28.499q0 -16.999 -11.499 -28.498q-11.5 -11.499 -28.499 -11.499zM314.005 -4.9541
q-15.999 -6 -33.998 -6q-29.998 0 -61.4961 18.499t-54.4971 52.4971q-10.999 19.998 -16.998 47.9971q-6 27.998 -6 62.9961q0 53.9961 20.499 113.993q20.498 59.9961 65.4961 113.993q7.99902 14.999 10.999 44.4971t3 61.4961q0 32.998 -2.5 66.4961t-4.5 53.4961
q1 13 9.5 24.999q8.49902 11.999 23.498 13.999q14.999 0 24.998 -8.99902q10 -9 12 -20.999q0 -4 1.5 -15.499q1.5 -11.5 2.5 -28.498q0.999023 -16.999 1.99902 -38.498t1 -44.4971q0 -42.998 -4.99902 -83.4951q-5 -40.498 -20.999 -64.4961
q-41.9971 -47.9971 -57.9961 -96.9941t-15.999 -90.9941q0 -24.999 5.49902 -46.9971q5.5 -21.999 13.499 -36.998l-2 2q12 -16.999 29.999 -24.499q17.999 -7.49902 33.9971 -2.49902q22.999 7.99902 35.498 41.9971q12.5 33.998 10.5 87.9941v-1q-2 15 8.49902 25.999
t26.498 10.999q14 0 23.499 -8.99902q9.49902 -9 11.499 -22.999q2 -55.9961 -7.99902 -92.9941q-10 -36.998 -24.999 -59.4961q-14.999 -22.499 -31.998 -33.498q-16.999 -11 -27.998 -14.999h-1z" />
    <glyph glyph-name="circumflex" unicode="&#x2c6;" horiz-adv-x="190" 
d="M97 881q8 0 12 -2q6 -2 10 -5q18 -14 36 -30t36 -30q12 -11 14 -24.5t-8 -24.5l1 1q-5 -7 -13 -10.5t-15 -3.5q-13 0 -22 6l-53 45l-62 -45q-9 -6 -20 -6q-7 0 -15 3t-13 11q-8 13 -5.5 27t13.5 22l91 64q4 0 7 1q1 0 3 0.5t3 0.5z" />
    <glyph glyph-name="caron" unicode="&#x2c7;" horiz-adv-x="188" 
d="M88 752q-8 0 -12 2q-5 0 -10 5l-73 59q-12 10 -13.5 24t8.5 26l-1 -1q5 7 12.5 10.5t15.5 3.5q10 0 25 -9l50 -42q14 11 30.5 22.5l30.5 21.5q10 7 21 7q6 0 14 -3t14 -11q8 -13 5.5 -27t-13.5 -22l-81 -58q-4 -4 -7 -5.5t-11 -1.5q-1 0 -2 -0.5t-3 -0.5z" />
    <glyph glyph-name="tilde" unicode="&#x2dc;" horiz-adv-x="182" 
d="M146 818q10 8 25 7.5t24 -10.5q9 -11 8.5 -25t-10.5 -24q-8 -6 -20.5 -12.5t-29.5 -6.5q-5 0 -11.5 1t-14.5 4q-11 3 -20 6.5t-15 5.5l-10 5h1q-16 8 -21.5 9t-9.5 -6q-8 -11 -22 -13.5t-27 5.5l2 -1q-13 8 -16 22t6 27l-1 -1q14 21 29 29t32 8q14 0 28.5 -5.5
l29.5 -11.5l3 -1l18 -7t19 -6q1 -1 2 0z" />
    <glyph glyph-name="Ccedilla" unicode="&#xc7;" horiz-adv-x="269" 
d="M197 -12q-4 -2 -5 -2q13 -11 21.5 -26t8.5 -32q0 -30 -21.5 -52t-52.5 -22q-30 0 -51.5 22t-21.5 52q0 17 10.5 27t25.5 10v20l-5 3q-26 16 -46 50t-34 83t-21.5 112.5t-6.5 138.5q-1 81 7.5 148.5t25.5 118t41 80t54 34.5q15 2 33.5 -3.5t38 -24.5t39 -53t36.5 -89
q5 -14 -3 -28t-23 -19q-14 -2 -27 4.5t-18 20.5q-20 64 -37 90.5t-27 27.5q-11 -3 -23 -23.5t-22 -58.5t-16 -94t-5 -131q-1 -77 5 -133.5t16.5 -95.5t23.5 -61.5t26 -29.5q8 -5 17 0l-1 -1q16 10 29 41t12 82q0 16 10.5 26t25.5 12q16 0 27.5 -11t11.5 -26
q1 -65 -20.5 -115.5t-57.5 -71.5z" />
    <glyph glyph-name="Oslash" unicode="&#xd8;" horiz-adv-x="300" 
d="M293 358q1 -82 -7.5 -151t-24 -119.5t-38.5 -80t-51 -33.5h-9q-14 0 -30 7t-32.5 26.5t-32.5 53t-31 86.5q-7 26 -9 62t-2 78q0 48 2 98.5t4 92.5q3 52 3 81q0 66 20 117t55 71h-1q18 12 41 12q9 0 20 -3.5t20 -8.5q50 -31 77 -132.5t26 -256.5zM162 44q10 1 21.5 21
t20.5 59t14.5 97t4.5 137q1 80 -5 138.5t-15.5 98.5t-22 62.5t-25.5 29.5q-5 3 -11 0l1 1q-15 -9 -28 -42t-12 -87q0 -14 -0.5 -36t-2.5 -48l-4.5 -89.5t-2.5 -95.5q0 -38 2 -72t7 -54q17 -61 33 -91.5t24 -28.5h1zM282 752q14 -5 20 -18t1 -27v1l-240 -707q-11 -21 -32 -21
l-9 1q-16 6 -22.5 19t-1.5 27v-1l239 705q5 13 17 19t26 2h2z" />
    <glyph glyph-name="endash" unicode="&#x2013;" horiz-adv-x="395" 
d="M32 370q-15 0 -25.5 10t-8.5 26q1 14 11 23t23 9l327 -7q14 0 24 -10t10 -24t-10.5 -24t-24.5 -10z" />
    <glyph glyph-name="emdash" unicode="&#x2014;" horiz-adv-x="703" 
d="M45 379q-20 0 -34 11t-12 28q3 13 16.5 22t29.5 9l610 -8q20 0 33 -9.5t13 -25.5q0 -14 -14 -24.5t-34 -10.5z" />
    <glyph glyph-name="quoteleft" unicode="&#x2018;" horiz-adv-x="98" 
d="M30 634q-18 8 -27 32.5t-4 53.5q7 30 26 50t42 14l-1 1q29 -6 27 -18t-15 -32q-2 -2 -2 -3q17 -8 25 -25t5 -35q-5 -20 -23 -33t-40 -9q-6 0 -10 3l6 -1q-1 0 -1 0.5t-1 0.5z" />
    <glyph glyph-name="quoteright" unicode="&#x2019;" horiz-adv-x="98" 
d="M69 786q18 -8 27 -32.5t4 -53.5q-7 -30 -26 -50t-42 -14l1 -1q-29 6 -27 18t15 32q0 1 2 3q-17 8 -25.5 24.5t-5.5 35.5q5 20 23 33.5t41 8.5h-2l7 -2l1 -1z" />
    <glyph glyph-name="quotesinglbase" unicode="&#x201a;" horiz-adv-x="98" 
d="M69 82q18 -8 27 -32.5t4 -53.5q-7 -30 -26 -50t-42 -14l1 -1q-29 6 -27 18t15 32q0 1 2 3q-17 8 -25.5 24.5t-5.5 35.5q5 20 23 33.5t41 8.5h-2l7 -2l1 -1z" />
    <glyph glyph-name="quotedblleft" unicode="&#x201c;" horiz-adv-x="239" 
d="M149 634q-18 8 -27 32.5t-4 53.5q7 30 26 50t42 14l-1 1q29 -6 27 -18t-15 -32q-2 -2 -2 -3q17 -8 25 -25t5 -35q-5 -20 -23 -33t-40 -9q-6 0 -10 3l6 -1q-1 0 -1 0.5t-1 0.5zM37 634q-18 8 -27 32.5t-4 53.5q7 30 26 50t42 14l-1 1q29 -6 27 -18t-15 -32q-2 -2 -2 -3
q17 -8 25 -25t5 -35q-5 -20 -23 -33t-40 -9q-6 0 -10 3l6 -1q-1 0 -1 0.5t-1 0.5z" />
    <glyph glyph-name="quotedblright" unicode="&#x201d;" horiz-adv-x="231" 
d="M78 782q18 -8 27 -32.5t4 -53.5q-7 -30 -26 -50t-42 -14l1 -1q-29 6 -27 18t15 32q0 1 2 3q-17 8 -25.5 24.5t-5.5 35.5q5 20 23 33.5t41 8.5h-2l7 -2l1 -1zM190 782q18 -8 27 -32.5t4 -53.5q-7 -30 -26 -50t-42 -14l1 -1q-29 6 -27 18t15 32q0 1 2 3q-17 8 -26 24.5
t-5 35.5q5 20 23 33.5t41 8.5h-2l7 -2l1 -1z" />
    <glyph glyph-name="quotedblbase" unicode="&#x201e;" horiz-adv-x="238" 
d="M78 78q18 -8 27 -32.5t4 -53.5q-7 -30 -26 -50t-42 -14l1 -1q-29 6 -27 18t15 32q0 1 2 3q-17 8 -25.5 24.5t-5.5 35.5q5 20 23 33.5t41 8.5h-2l7 -2l1 -1zM190 78q18 -8 27 -32.5t4 -53.5q-7 -30 -26 -50t-42 -14l1 -1q-29 6 -27 18t15 32q0 1 2 3q-17 8 -26 24.5
t-5 35.5q5 20 23 33.5t41 8.5h-2l7 -2l1 -1z" />
    <glyph glyph-name="minus" unicode="&#x2212;" horiz-adv-x="395" 
d="M32 370q-15 0 -25.5 10t-8.5 26q1 14 11 23t23 9l327 -7q14 0 24 -10t10 -24t-10.5 -24t-24.5 -10z" />
    <glyph glyph-name="guilsinglright" unicode="&#x203a;" horiz-adv-x="213" 
d="M231 387q0 -7 -2 -11q0 -4 -1 -5.5t-6 -6.5l2 1l-156 -191q-8 -8 -16.5 -12.5t-15.5 -4.5q-12 0 -22 8q-11 10 -13 23.5t9 25.5l71 87.5l72 87.5l-145 202q-8 13 -5.5 27t13.5 22t24.5 5t22.5 -12l166 -231v-5q2 -3 2 -5.5v-4.5z" />
    <glyph glyph-name="guilsinglleft" unicode="&#x2039;" horiz-adv-x="212" 
d="M-19 387v4.5t2 5.5v5l165 231q8 11 23 13.5t26 -7.5l-1 1q11 -8 13.5 -22t-5.5 -27l-145 -202l143 -175q11 -12 9 -25.5t-13 -23.5q-5 -5 -11 -6.5t-11 -1.5q-15 0 -32 17l-156 191l2 -1q-7 7 -7 14q-2 4 -2 9z" />
    <glyph glyph-name="ellipsis" unicode="&#x2026;" horiz-adv-x="423" 
d="M49 64q18 0 30.5 -13t12.5 -31t-12.5 -30.5t-30.5 -12.5t-31 12.5t-13 30.5t13 31t31 13zM212 64q18 0 30.5 -13t12.5 -31t-12.5 -30.5t-30.5 -12.5t-31 12.5t-13 30.5t13 31t31 13zM375 64q18 0 30.5 -13t12.5 -31t-12.5 -30.5t-30.5 -12.5t-31 12.5t-13 30.5t13 31
t31 13z" />
    <glyph glyph-name="uni2215" unicode="&#x2215;" horiz-adv-x="275" 
d="M269 752q14 -5 20 -18t1 -27v1l-240 -707q-11 -21 -32 -21l-9 1q-16 6 -22.5 19t-1.5 27v-1l239 705q5 13 17 19t26 2h2z" />
    <glyph glyph-name="uni0410" unicode="&#x410;" 
d="M48 -17q-14 0 -24 9.5t-11 23.5q-2 36 -2.5 74.5t-0.5 71.5q0 130 10.5 231.5t28 174.5t39.5 117t45 59q15 7 33.5 6.5t31.5 -7.5q22 -15 39 -53t28.5 -96t17 -133.5t5.5 -166.5q-1 -64 -4 -135t-9 -147q-2 -14 -11.5 -23t-26.5 -9q-14 2 -22.5 13.5t-8.5 24.5
q6 73 8.5 129t3.5 113h-51.5h-37.5t-27.5 0.5t-20.5 1.5q-1 -25 -1.5 -50t-0.5 -53q0 -66 3 -141q0 -14 -10 -24.5t-24 -10.5zM218 329q-1 167 -18 252t-36 102q-23 -18 -46.5 -106t-32.5 -245q20 -2 54 -2.5t79 -0.5zM161 685l3 -2l-2 2h-1zM167 685l-3 -2q1 0 2 1z" />
    <glyph glyph-name="uni0411" unicode="&#x411;" horiz-adv-x="278" 
d="M5 724l1 3l-1 -6q0 1 0.5 1.5t0.5 1.5q0 3 3 11q2 5 6.5 9t9.5 5q8 4 14 4l205 2q14 0 24.5 -10.5t10.5 -24.5t-9.5 -23.5t-23.5 -11.5l-170 -1q2 -33 3 -99t2 -181q56 -5 103 -34.5t70 -80.5q25 -53 25 -111q0 -42 -13.5 -81.5t-38.5 -68.5q-46 -53 -117 -53
q-14 0 -30 2t-33 8q-16 0 -25.5 10t-9.5 24q0 147 -0.5 268t-1.5 210.5t-2.5 143.5t-2.5 67q-2 3 -1.5 5.5t0.5 4.5zM31 750q-4 0 -6 -1h3q1 0 1.5 0.5t1.5 0.5zM25 748q-2 0 -2 -1q0 1 2 1zM192 258q-5 10 -13.5 22.5t-21.5 24t-32 19.5t-44 10v-286q8 -2 15.5 -3t13.5 -1
q36 0 65 30v-1q17 19 25.5 47t8.5 58q0 21 -4 41.5t-13 38.5z" />
    <glyph glyph-name="uni0412" unicode="&#x412;" horiz-adv-x="283" 
d="M12 25q0 145 -0.5 265.5t-1.5 209t-2.5 142t-2.5 66.5q-2 3 -1.5 5.5t0.5 5.5q0 14 10.5 24t24.5 10h3q66 3 116.5 -26t78.5 -86q11 -25 17.5 -52t6.5 -54q0 -40 -14 -78.5t-37 -65.5l-11.5 -11.5t-11.5 -10.5q22 -14 37.5 -32.5t28.5 -44.5t18.5 -54t5.5 -55
q0 -42 -13.5 -81.5t-38.5 -68.5q-23 -26 -52.5 -39.5t-62.5 -13.5q-16 0 -30 2t-30 8h-4q-14 0 -24 10.5t-10 24.5zM190 261q-5 10 -13.5 22t-22 23t-32 19t-42.5 11q1 -60 1 -126.5v-156.5q15 -3 28 -3q39 0 64 28q17 19 25.5 46.5t8.5 57.5q0 20 -4 40.5t-13 38.5z
M175 611q-5 9 -13 20t-20.5 21.5t-29 18.5t-37.5 11q2 -33 3 -96.5t2 -175.5q5 -1 9.5 -1h9.5q36 0 59 27q17 18 25 44.5t8 55.5q0 20 -4 39.5t-12 36.5v-1z" />
    <glyph glyph-name="uni0413" unicode="&#x413;" horiz-adv-x="254" 
d="M75 15q0 -14 -10 -24.5t-24 -10.5t-24.5 10.5t-10.5 24.5q0 187 0.5 313.5t1.5 206.5t2.5 121t4.5 59l-1 1q0 10 1.5 16t10.5 11q6 9 11.5 9.5t13.5 -1.5q16 2 58.5 2h129.5q14 0 24.5 -10t10.5 -24t-10.5 -24.5t-24.5 -10.5h-103t-55 -1q-2 -30 -3 -90t-1.5 -145.5
t-1 -194.5t-0.5 -238z" />
    <glyph glyph-name="uni0414" unicode="&#x414;" horiz-adv-x="422" 
d="M425 8l-28 -73v1q-8 -24 -35 -24q-1 0 -3 0.5t-3 0.5q-14 6 -21 20.5t-2 26.5l-1 -1q2 8 4 12t5 12h-67.5t-63 -0.5t-64 -0.5h-69.5l9 -23l-1 1q5 -14 -1.5 -28t-24.5 -19q-1 0 -3 -0.5t-3 -0.5q-22 0 -33 23l-27 73h-1l-1 2q0 13 2 17l4 7q2 4 5.5 8t11.5 9l12 1h85
q0 30 0.5 89.5t1 145t0.5 194.5v238q0 9 4 14q2 7 11 14q4 2 9.5 4t10.5 2l168 -1q8 0 12.5 -2.5t10.5 -7.5q2 -2 4 -5.5t3 -7.5v3q2 -3 3 -6.5t1 -8.5l11 -665h30q3 0 7 -2q-1 1 -4 1l6 -2h1q6 -3 9 -11q-1 3 -2.5 6t-5.5 5h2q12 -5 20 -21q0 -1 0.5 -4t0.5 -4v-12zM402 49
h-1q-1 1 -3 1q3 0 4 -1zM347 727v-1q0 -1 0.5 -1.5t0.5 -1.5zM-8 9l1 -1q-1 0 -1 1zM411 34l-1 1zM282 683q-26 0 -50.5 0.5t-49.5 0.5v-279v-184t-0.5 -111t-2.5 -58h113q-3 162 -5 315t-5 316zM162 684h20v20z" />
    <glyph glyph-name="uni0415" unicode="&#x415;" horiz-adv-x="235" 
d="M40 -20q-14 0 -24.5 10.5t-10.5 24.5v334q0 2 -0.5 4t1.5 6q0 88 0.5 150t1.5 104t2.5 67t3.5 38l-1 1q0 10 3.5 15t8.5 10q7 7 11.5 8t10.5 1h173q14 0 24.5 -10t10.5 -24t-10.5 -24.5t-24.5 -10.5h-141l-4 -290q33 3 99 3q14 0 24.5 -10.5t10.5 -24.5t-10.5 -24
t-24.5 -10q-35 0 -59.5 -1t-39.5 -3v-120v-39t-0.5 -36t-0.5 -37v-42h146q14 0 24.5 -10.5t10.5 -24.5t-10.5 -24.5t-24.5 -10.5h-180v0z" />
    <glyph glyph-name="uni0416" unicode="&#x416;" horiz-adv-x="493" 
d="M34 -20q-10 0 -18.5 6.5t-14.5 16.5q-11 29 18 44q8 3 16 16.5t15.5 33t14.5 43l14 46.5l19 64.5t23 61t29.5 50t39.5 31.5q-19 35 -32.5 73.5t-24.5 73.5l-18 53t-19 46t-22 32.5t-25 12.5q-14 0 -24.5 10.5t-10.5 24.5t10.5 24t24.5 10q33 0 56.5 -16t40 -43t29 -61.5
t24.5 -71.5q2 -8 3.5 -13t4.5 -13v184q0 14 10.5 24t24.5 10t24 -10t10 -24q0 -45 0.5 -87.5t0.5 -83.5v-41l17 54q12 37 24.5 71.5t29.5 61.5t40 43t56 16q14 0 24 -10t10 -24t-10 -24.5t-24 -10.5t-25.5 -12t-21.5 -31.5t-19 -46l-18 -54.5q-11 -36 -24.5 -74.5
t-32.5 -72.5q24 -11 40.5 -32.5t29 -49.5t22.5 -60.5t19 -65.5v1l14 -47.5t14.5 -42.5t15 -32.5t15.5 -16.5q14 -7 19 -18.5t0 -25.5q-6 -10 -14.5 -16.5t-18.5 -6.5q-5 0 -8.5 1t-6.5 3h1q-19 8 -33 25.5t-25 41.5t-20.5 53.5t-18.5 61.5l-15.5 53t-16 47.5t-18 37.5
t-20.5 23q1 -134 3 -212.5t4 -93.5q0 -1 0.5 -3t0.5 -3q0 -14 -10.5 -24.5t-24.5 -10.5q-7 0 -12.5 1.5t-10 10.5t-8 29.5t-6 58.5t-4 96t-2.5 144q-19 -20 -34.5 -63.5t-28.5 -90.5q-9 -32 -18.5 -61.5t-20.5 -53.5t-25 -41.5t-33 -25.5h1q-3 -2 -6.5 -3t-8.5 -1z" />
    <glyph glyph-name="uni0417" unicode="&#x417;" horiz-adv-x="356" 
d="M311 456q-8 -17 -21 -34t-34 -31q24 -14 40 -31t26 -34q14 -24 20.5 -53t6.5 -59q0 -40 -11 -79.5t-33 -73.5q-28 -42 -65.5 -64.5t-80.5 -22.5h-6q-2 0 -4.5 0.5t-6.5 0.5q-31 3 -58 19t-47 42q-17 23 -26.5 51t-9.5 59q0 18 3 35q3 14 13 22.5t24 6.5q16 -4 25 -15
t7 -25q-5 -35 2 -57.5t17 -34.5q23 -29 58 -34q18 -2 33 3t27.5 13.5t21.5 19t15 19.5q16 26 25 55.5t9 58.5q0 46 -19 78q-37 66 -138 60q-32 3 -35 32q0 11 4 18t9 11q10 14 26 14q93 0 121 59q5 11 7.5 26t2.5 29q0 37 -11.5 71.5t-27.5 51.5q-11 14 -25.5 20.5
t-31.5 6.5q-14 0 -24 -3q-25 -7 -40.5 -29t-17.5 -54q-2 -14 -12 -23.5t-25 -7.5q-13 1 -22.5 12.5t-9.5 24.5q6 51 34.5 90t73.5 53q11 4 22 5.5t22 1.5q32 0 61 -14t49 -40l-1 1q22 -25 38.5 -71t16.5 -96q0 -22 -3.5 -43.5t-13.5 -41.5v1v0z" />
    <glyph glyph-name="uni0418" unicode="&#x418;" horiz-adv-x="299" 
d="M224 15q0 150 -1 272t-3 213l-63 -213t-74 -276q0 -3 -1.5 -8t-6.5 -10l-5 -6q-5 -3 -9 -5t-12 -2q-3 0 -5.5 -0.5t-7.5 3.5q-4 2 -6 4q-5 2 -12 14q-3 6 -3 14q0 147 -1 268.5t-2.5 211t-3.5 144t-3 67.5q-2 3 -2 6.5v6.5q0 14 10.5 24t24.5 10q7 0 13 -2t11 -15
t8.5 -41.5t6.5 -81t4.5 -134t2.5 -200.5l33 114.5l30 100.5l10 34l34 114.5t22 88.5l4 4q2 5 5.5 8t10.5 8q5 0 8 1q1 0 3 0.5t3 0.5q6 0 11.5 -0.5t11.5 -9.5q6 -5 9.5 -13.5t1.5 -17.5q3 -21 5 -65.5t3.5 -125.5t2.5 -204.5t1 -301.5q0 -14 -10.5 -24.5t-24.5 -10.5
t-24 10.5t-10 24.5z" />
    <glyph glyph-name="uni0419" unicode="&#x419;" horiz-adv-x="292" 
d="M143 754q-49 0 -88 44q-10 11 -9 25t12 24q11 9 25 8.5t23 -11.5q8 -8 19 -15t19 -7q20 0 46 22q11 9 25 8.5t23 -11.5q8 -11 6.5 -25.5t-10.5 -22.5q-48 -39 -91 -39zM224 15q0 -14 10 -24.5t24 -10.5t24.5 10.5t10.5 24.5q0 178 -1 301.5t-2.5 204.5t-3.5 125.5
t-5 65.5q2 9 -1.5 17.5t-9.5 13.5q-6 9 -11.5 9.5t-11.5 0.5q-1 0 -3 -0.5t-3 -0.5q-3 -1 -8 -1q-7 -5 -10.5 -8t-5.5 -8l-4 -4q-8 -39 -22 -88.5l-34 -114.5l-10 -34l-30 -100.5l-33 -114.5q-1 119 -2.5 200.5t-4.5 134t-6.5 81t-8.5 41.5t-11 15t-13 2q-14 0 -24.5 -10
t-10.5 -24v-6.5t2 -6.5q1 -13 3 -67.5t3.5 -144t2.5 -211t1 -268.5q0 -8 3 -14q7 -12 12 -14q2 -2 6 -4q5 -4 7.5 -3.5t5.5 0.5q8 0 12 2t9 5l5 6q5 5 6.5 10t1.5 8q39 155 74 276l63 213q2 -91 3 -213t1 -272z" />
    <glyph glyph-name="uni041A" unicode="&#x41a;" horiz-adv-x="285" 
d="M50 -18q-8 0 -14.5 3.5t-11.5 24t-8.5 64.5t-6 126t-3.5 208.5t-1 310.5q0 14 10.5 24t24.5 10t24.5 -10t10.5 -24v-68.5v-46v-41.5v-55q5 13 9 26.5l8 26.5q12 37 24.5 71.5t29 61.5t40 43t56.5 16q14 0 24 -10t10 -24t-10 -24.5t-24 -10.5t-25.5 -11.5t-21.5 -31.5
t-19 -46l-18 -54q-11 -35 -25.5 -74t-31.5 -73q23 -10 40 -31.5t29.5 -50t22.5 -61l19 -64.5l14 -47t14.5 -42.5t15 -33t15.5 -16.5l-1 1q14 -5 19.5 -18.5t0.5 -26.5q-13 -22 -33 -22q-4 0 -7 0.5t-8 2.5h1q-19 9 -33 26.5t-25 41.5t-20.5 53t-18.5 61l-15.5 52.5t-16 47
t-18 37.5t-20.5 23q2 -131 3.5 -208t3.5 -92q2 -4 1.5 -6.5t-0.5 -4.5q0 -14 -10 -24t-24 -10z" />
    <glyph glyph-name="uni041B" unicode="&#x41b;" horiz-adv-x="321" 
d="M313 17q0 -14 -9.5 -24.5t-25.5 -10.5q-10 0 -16.5 3.5t-10.5 23t-6.5 62t-3.5 120.5t-1 198v296q-15 0 -27 -0.5t-23 -0.5t-23 -0.5t-28 -0.5l-11 -316q-2 -78 -6.5 -128.5t-11 -86t-16 -61.5t-21.5 -54l-8 -19l-6 -16q-11 -21 -32 -21q-5 0 -8.5 1t-6.5 3h1
q-12 5 -18 17.5t-1 26.5l8 18.5t8 17.5v-1q11 26 19 48.5t14 54t10 79t6 123.5l12 351q0 5 4 11q4 8 12 15t19 7l169 1q14 0 24 -10q2 -2 4 -7t2 -7v2v3q2 -3 3 -6.5t1 -8.5q0 -153 0.5 -278t1 -216t1 -143.5t1.5 -60.5v-5z" />
    <glyph glyph-name="uni041C" unicode="&#x41c;" horiz-adv-x="319" 
d="M41 -20q-14 0 -24.5 10.5t-10.5 24.5q0 183 0.5 307.5t2 204.5t3 122t4.5 61q0 22 13 33q6 7 11.5 8.5t13.5 -0.5h1q1 0 1.5 -0.5t2.5 -0.5q7 -2 11 -5l8 -9l-4 3q3 -2 6 -6t4 -7q33 -137 63 -246l14 -53l8 -28l3 17q2 15 5.5 30.5t5.5 30.5l4 21q11 66 22 124.5
t29 110.5l1 1q1 1 1 1.5t1 1.5l8 7q2 2 7 4t7 2q1 0 1.5 0.5t1.5 0.5l-6 -1l3 1q5 2 11 0h5t11 -8l5 -4q5 -5 6 -10t1 -8q1 0 1 1h1q0 -149 1 -273t2.5 -215t3 -145.5t3.5 -66.5q0 -1 0.5 -3.5t0.5 -3.5q0 -14 -10.5 -24.5t-24.5 -10.5q-7 0 -12.5 2t-10 13t-8.5 34.5
t-6.5 66.5t-4.5 109t-3 162l-12 -65t-14 -68v4q0 -1 -0.5 -1.5t-0.5 -1.5q0 -2 -2 -7t-4 -7l-5 -6l-9 -6q-5 -2 -8 -2.5t-5 -0.5q-9 0 -16 5q-6 2 -11 11l-5 5l-16.5 65.5t-18.5 69.5l-13 48q-5 16 -8.5 32.5t-8.5 33.5q-1 -89 -1.5 -205t-0.5 -256q0 -14 -10.5 -24.5
t-24.5 -10.5zM83 729l-5 7q5 -4 5 -7zM282 746l-3 3q3 -2 3 -3zM274 751l5 -2z" />
    <glyph glyph-name="uni041D" unicode="&#x41d;" horiz-adv-x="267" 
d="M14 15q0 145 -1 266t-2.5 211t-3 145.5t-3.5 70.5q-1 2 -1 5.5v5.5q0 14 10 24t24 10q7 0 12.5 -2t10.5 -12.5t9 -33t6.5 -64t4 -105.5t2.5 -157h108v340q0 14 10.5 24t24.5 10t24.5 -10t10.5 -24v-704q0 -14 -10.5 -24.5t-24.5 -10.5t-24.5 10.5t-10.5 24.5v295h-107
v-295q0 -14 -10 -24.5t-24 -10.5t-24.5 10.5t-10.5 24.5z" />
    <glyph glyph-name="uni041E" unicode="&#x41e;" horiz-adv-x="272" 
d="M272 358q1 -82 -7.5 -151t-24 -119.5t-38.5 -80t-51 -33.5h-9q-14 0 -30 7t-32.5 26.5t-32.5 53t-31 86.5q-7 26 -9 62t-2 78q0 48 2 98.5t4 92.5q3 52 3 81q0 66 20 117t55 71h-1q18 12 41 12q9 0 20 -3.5t20 -8.5q50 -31 77 -132.5t26 -256.5zM141 44q10 1 21.5 21
t20.5 59t14.5 97t4.5 137q1 80 -5 138.5t-15.5 98.5t-22 62.5t-25.5 29.5q-5 3 -11 0l1 1q-15 -9 -28 -42t-12 -87q0 -14 -0.5 -36t-2.5 -48l-4.5 -89.5t-2.5 -95.5q0 -38 2 -72t7 -54q17 -61 33 -91.5t24 -28.5h1z" />
    <glyph glyph-name="uni041F" unicode="&#x41f;" horiz-adv-x="301" 
d="M260 751q14 0 24 -10t10 -24v-704q0 -14 -10 -24.5t-24 -10.5q-16 0 -25.5 10.5t-9.5 24.5v669h-149v-669q0 -14 -10.5 -24.5t-24.5 -10.5t-24.5 10.5t-10.5 24.5v704q0 14 10.5 24t24.5 10h219v0z" />
    <glyph glyph-name="uni0420" unicode="&#x420;" horiz-adv-x="255" 
d="M199 359q-25 -34 -56 -53t-66 -23q2 -108 3.5 -173t4.5 -81q3 -6 3 -14q0 -14 -10.5 -24.5t-24.5 -10.5q-7 0 -13.5 3.5t-12 24t-9.5 65t-7 126.5t-4.5 208.5t-1.5 311.5q0 6 3 12q0 5 7 12q10 10 25 10q43 0 75.5 -10t55.5 -25.5t38.5 -34.5t24.5 -37q11 -24 17.5 -51.5
t6.5 -56.5q0 -47 -15 -93.5t-44 -85.5zM172 614q-29 55 -98 67q0 -99 0.5 -177t1.5 -151q24 4 41 19t27 28q18 28 31 66.5t13 71.5q0 44 -16 76zM53 683l21 -2v22z" />
    <glyph glyph-name="uni0421" unicode="&#x421;" horiz-adv-x="243" 
d="M0 375q-1 81 7.5 149.5t23.5 119t37 80.5t48 35q39 4 72.5 -39t56.5 -133q4 -14 -4 -26.5t-20 -15.5h1q-15 -5 -27 2.5t-17 21.5q-17 65 -31 93.5t-21 26.5q-9 -1 -19.5 -21t-19 -59t-13.5 -97.5t-4 -136.5q-1 -81 4.5 -140t14.5 -99t21 -62t24 -29q2 -2 4 0
q15 9 27.5 41.5t11.5 87.5q0 14 9.5 24.5t25.5 10.5q14 0 24.5 -10.5t10.5 -24.5q0 -67 -19.5 -118t-53.5 -71q-20 -11 -37 -11q-18 0 -38 11q-48 29 -74 130.5t-25 259.5z" />
    <glyph glyph-name="uni0422" unicode="&#x422;" horiz-adv-x="253" 
d="M16 684q-14 0 -24 10.5t-10 24.5t10 24t24 10h219q14 0 24.5 -10t10.5 -24t-10.5 -24.5t-24.5 -10.5h-69v-669q0 -14 -10.5 -24.5t-24.5 -10.5t-24 10.5t-10 24.5v669h-81v0z" />
    <glyph glyph-name="uni0423" unicode="&#x423;" horiz-adv-x="300" 
d="M288 752q14 -3 21.5 -15.5t3.5 -26.5l-194 -705q-3 -11 -12.5 -18t-20.5 -7q-1 0 -2 0.5t-3 0.5q-17 4 -25 17t-3 28v-2l56 207q-5 15 -19.5 62t-32 114t-34.5 147t-27 161q0 13 8.5 24.5t22.5 13.5t25 -7t13 -23q6 -51 15 -101.5t19.5 -98t22 -90.5l21.5 -78l52 186.5
l51 186.5q5 13 17 20t25 4z" />
    <glyph glyph-name="uni0424" unicode="&#x424;" horiz-adv-x="481" 
d="M480 358q1 -67 -7.5 -123.5t-25 -99.5t-40 -69.5t-51.5 -32.5q-4 -2 -6.5 -1.5t-7.5 0.5q-14 0 -31.5 6.5t-35.5 23.5v-47q0 -14 -9.5 -24.5t-25.5 -10.5q-14 0 -24 10.5t-10 24.5v47q-19 -17 -36 -23.5t-31 -6.5h-7t-9 2l1 -1q-29 5 -52 31.5t-39.5 69t-24.5 100
t-7 125.5q-1 102 11.5 165t32 98.5t41.5 49t40 15.5q42 4 80 -29v61q0 14 10 24t24 10q16 0 25.5 -10t9.5 -24v-61q38 33 80 29q18 -2 40 -15.5t41.5 -49t32 -98.5t11.5 -165v-1zM138 102q15 -3 32.5 21.5t35.5 72.5v329q-5 20 -13 37.5t-18 30.5t-21 19.5t-21 5.5
q-12 -2 -23.5 -16.5t-20.5 -45t-14.5 -79.5t-4.5 -119q-1 -59 4.5 -105.5t15 -79.5t22.5 -51t26 -20zM343 102q13 2 25.5 20t22.5 51t15.5 79.5t4.5 106.5q1 70 -4.5 118.5t-15 79t-21.5 45t-24 16.5q-20 3 -40 -25.5t-31 -67.5v-329q18 -48 35.5 -72.5t32.5 -21.5z" />
    <glyph glyph-name="uni0425" unicode="&#x425;" horiz-adv-x="303" 
d="M188 367l111 -342q4 -14 -3 -26.5t-22 -17.5q-1 0 -3.5 -0.5t-4.5 -0.5q-11 0 -20.5 6.5t-12.5 19.5v-1l-81 248l-41 -124.5l-41 -123.5v1q-3 -13 -12 -19.5t-20 -6.5l-9 1q-16 6 -22.5 19t-1.5 27v-1l110 341l-110 341v-1q-5 14 -0.5 26t17.5 17q16 4 30 -2t18 -20v1
q12 -39 22 -68l19 -56.5l19 -56.5t22 -68l81 249v-1q4 14 18 20t30 2q12 -5 17 -16.5t1 -25.5z" />
    <glyph glyph-name="uni0426" unicode="&#x426;" horiz-adv-x="362" 
d="M369 16v-53q0 -14 -10 -24.5t-24 -10.5t-24.5 10.5t-10.5 24.5v18q-11 0 -21 -0.5t-21 -0.5h-219q-14 0 -24.5 10t-10.5 24v705q0 14 10.5 24t24.5 10t24.5 -10t10.5 -24v-670h149q0 100 -2 189t-4 166q0 5 -0.5 10t-0.5 10q-2 68 -3 116.5t-1 82.5q0 36 2 60t6.5 38
t11 21t16.5 10q13 4 26 -3t17 -21v1q4 -11 1.5 -18.5t-7.5 -13.5q-2 -10 -3 -31t-1 -49q0 -32 1 -70.5t2 -81.5q0 -10 0.5 -20t0.5 -20q0 -5 0.5 -10.5t0.5 -10.5q2 -78 4 -166t2 -189q11 0 21.5 0.5t21.5 0.5q8 0 11 -2l6 -3t7 -5q9 -9 9 -22z" />
    <glyph glyph-name="uni0427" unicode="&#x427;" horiz-adv-x="316" 
d="M310 424q-1 -111 -3 -187t-5 -125t-7 -76t-9 -39.5t-11 -14.5t-12 -2q-14 0 -24.5 10.5t-10.5 24.5q0 5 0.5 7.5t2.5 5.5q2 18 4 83.5t4 171.5q-5 -5 -7.5 -6t-7.5 -5q-20 -14 -43.5 -21.5t-45.5 -7.5q-15 0 -30.5 4t-29.5 12l1 -1q-12 6 -27.5 19.5t-29.5 37.5
t-23.5 59.5t-9.5 86.5v258q0 14 10.5 24t24.5 10t24.5 -10t10.5 -24v-258q0 -55 13.5 -91t38.5 -51q14 -7 26 -7q27 0 52 17q19 13 35 37t19 58v17.5t1 17.5v116q0 34 0.5 69.5t0.5 73.5q0 14 10 24t24 10t24.5 -10t10.5 -24v-147t-1 -124v-23v0z" />
    <glyph glyph-name="uni0428" unicode="&#x428;" horiz-adv-x="358" 
d="M351 729q3 -9 0.5 -17.5t-7.5 -15.5q-2 -8 -2.5 -27.5t-0.5 -48.5q0 -40 1 -90.5t3 -104.5q0 -5 0.5 -9.5t0.5 -9.5q2 -81 4 -183.5t2 -207.5q0 -14 -10 -24.5t-24 -10.5h-278q-14 0 -24 10.5t-10 24.5v704q0 14 10 24t24 10q16 0 25.5 -10t9.5 -24v-669h75q0 100 -2 188
t-4 164q0 5 -0.5 11t-0.5 11q-2 69 -3 117.5t-1 82.5q0 36 1.5 59.5t5.5 37.5t11 21t17 10q14 4 26.5 -2.5t17.5 -20.5q3 -9 0.5 -17.5t-7.5 -15.5q-3 -17 -3 -76q0 -40 1 -90.5t3 -104.5q0 -5 0.5 -9t0.5 -9q2 -78 4 -166.5t2 -190.5h64q0 100 -2 188t-4 164q0 5 -0.5 10.5
t-0.5 10.5q-2 65 -3 117t-1 84q0 36 1.5 59.5t5.5 37.5t11 21t17 10q14 4 26.5 -2.5t17.5 -20.5z" />
    <glyph glyph-name="uni0429" unicode="&#x429;" horiz-adv-x="422" 
d="M417 41q2 -2 4 -6v1q3 -5 4.5 -8t1.5 -11v-53q0 -14 -10 -24.5t-24 -10.5t-24.5 10.5t-10.5 24.5v18q-11 0 -21 -0.5t-21 -0.5h-278q-14 0 -24 10t-10 24v705q0 14 10 24t24 10t24.5 -10t10.5 -24v-670h75q0 100 -2 189t-4 166q0 5 -0.5 10t-0.5 10q-2 68 -3 116.5
t-1 82.5q0 36 2 60t6.5 38t11 21t16.5 10q13 4 25.5 -2.5t17.5 -20.5q4 -11 1.5 -18.5t-7.5 -13.5q-2 -10 -3 -32t-1 -51q0 -39 1 -87.5t3 -101.5q0 -5 0.5 -10.5t0.5 -10.5q2 -78 4 -166t2 -189h64q0 100 -2 189t-4 166q0 5 -0.5 10t-0.5 10q-2 68 -3 116.5t-1 82.5
q0 36 2 60t6.5 38t11 21t16.5 10q13 4 26 -3t17 -21v1q3 -9 1 -17t-7 -15q-2 -10 -3 -31t-1 -49q0 -32 1 -70.5t2 -81.5q0 -10 0.5 -20t0.5 -20q0 -7 0.5 -13.5t0.5 -13.5q2 -77 4 -163.5t3 -185.5h43h2q1 0 2 -0.5t3 -0.5q10 -2 16 -8z" />
    <glyph glyph-name="uni042A" unicode="&#x42a;" horiz-adv-x="321" 
d="M149 704q-2 -20 -4 -91.5t-4 -186.5q35 -3 68 -22t59 -54q26 -36 39.5 -78.5t13.5 -85.5q0 -53 -22 -100q-9 -18 -24 -36.5t-38 -34t-56 -25.5t-77 -10q-16 0 -26 13q-1 1 -2 3t-2 2.5t-1 2.5q-1 2 -2.5 4.5t-1.5 9.5q0 159 0.5 273.5t2 193t3 127t4.5 75.5h-17v-17
q0 -14 -10.5 -24.5t-24.5 -10.5t-24 10.5t-10 24.5v55l2 6q3 11 11 18t22 7l76 -1q2 0 3 1t3 -1q2 1 3.5 0.5t3.5 -0.5q14 0 24.5 -10.5t10.5 -24.5q0 -7 -3 -13zM237 117q15 30 15 69q0 31 -10.5 63.5t-29.5 59.5q-11 14 -28.5 30t-43.5 20q-1 -69 -1 -141v-165
q71 11 98 64z" />
    <glyph glyph-name="uni042B" unicode="&#x42b;" horiz-adv-x="337" 
d="M301 753q14 0 23 -10t9 -24q0 -8 -1 -12q-2 -14 -3.5 -68.5t-3 -144.5t-2.5 -211.5t-1 -267.5q0 -14 -9.5 -24.5t-23.5 -10.5t-23.5 10.5t-9.5 24.5q0 184 1.5 310.5t4 208.5t6.5 126.5t9 65t11 24t13 3.5zM81 706q-2 -16 -4 -87.5t-4 -191.5q67 -8 113 -77
q23 -35 35 -78t12 -86q0 -53 -20 -99q-9 -18 -23 -37t-35 -34.5t-50 -25.5t-67 -10q-17 0 -26 14l3 -3q-2 2 -3 5q-3 4 -4 8l1 -3q-2 3 -3 4t-1 10q0 184 1.5 310.5t4 208.5t6.5 126.5t9 65t11 24t13 3.5q14 0 23.5 -10t9.5 -24q0 -7 -2 -13zM154 116q7 15 10 33t3 37
q0 32 -9 64.5t-27 59.5q-8 13 -23 28.5t-35 20.5q-1 -69 -1.5 -141t-0.5 -165q29 6 50.5 21.5t32.5 41.5z" />
    <glyph glyph-name="uni042C" unicode="&#x42c;" horiz-adv-x="227" 
d="M81 706q-2 -16 -4 -87.5t-4 -191.5q67 -8 113 -77q23 -35 35 -78t12 -86q0 -53 -20 -99q-9 -18 -23 -37t-35 -34.5t-50 -25.5t-67 -10q-17 0 -26 14l3 -3q-2 2 -3 5q-3 4 -4 8l1 -3q-2 3 -3 4t-1 10q0 184 1.5 310.5t4 208.5t6.5 126.5t9 65t11 24t13 3.5q14 0 23.5 -10
t9.5 -24q0 -7 -2 -13zM154 116q7 15 10 33t3 37q0 32 -9 64.5t-27 59.5q-8 13 -23 28.5t-35 20.5q-1 -69 -1.5 -141t-0.5 -165q29 6 50.5 21.5t32.5 41.5z" />
    <glyph glyph-name="uni042D" unicode="&#x42d;" horiz-adv-x="319" 
d="M318 375q1 -72 -7.5 -134.5t-24.5 -111.5t-39 -84.5t-51 -53.5q-13 -7 -28.5 -12t-29.5 -5q-13 0 -28 4.5t-28 12.5q-40 24 -63 73t-22 110q0 16 9.5 25.5t25.5 9.5q14 0 25 -11t9 -26q0 -42 13.5 -75t37.5 -47q10 -6 21 -6t22 7q7 4 21.5 18.5t28.5 47t25 86.5t13 137
h-128q-14 0 -24.5 10.5t-10.5 24.5t10.5 24.5t24.5 10.5h128q-2 61 -10 111t-20.5 85.5t-28 56.5t-30.5 26q-20 0 -46.5 -32.5t-47.5 -90.5q-5 -15 -19 -20.5t-28 -0.5q-12 5 -17.5 19t-0.5 27l-1 -1q22 61 47 96t48 52t43.5 20t35.5 0q34 -6 61 -37t46 -81.5t29 -118
t9 -146.5z" />
    <glyph glyph-name="uni042E" unicode="&#x42e;" horiz-adv-x="385" 
d="M382 359q1 -81 -7 -149t-23.5 -117.5t-38 -78.5t-50.5 -33q-1 0 -3.5 -0.5t-5.5 -0.5q-14 0 -29.5 7t-32 26t-32.5 52.5t-30 85.5q-7 25 -9.5 60t-2.5 75v22v19v18.5t1 22.5h-43q-2 -76 -1.5 -163.5t0.5 -189.5q0 -14 -10.5 -24.5t-24.5 -10.5t-24.5 10.5t-10.5 24.5
q0 122 0.5 213.5t1.5 164.5q-2 4 -2 10v6.5t2 4.5q1 84 3 142t5 95.5t7 58t9 30t10.5 11.5t11.5 2q14 0 24.5 -10t10.5 -24q0 -5 -1 -8t-2 -5q-2 -19 -4 -90t-4 -179h46l2 40q3 52 3 80q0 65 20 115t54 70q20 11 39 11q17 0 39 -11q51 -29 77.5 -129t24.5 -254zM253 50
q10 1 21 20.5t20 58t14.5 95.5t4.5 135q1 79 -4.5 136.5t-15 97t-22 61.5t-24.5 29v-1q-5 3 -10 1q-14 -9 -27 -41t-12 -85q0 -10 -0.5 -27.5t-2.5 -35.5q0 -5 -0.5 -10t-0.5 -10q-2 -42 -4 -90.5t-2 -96.5q0 -35 2 -67t6 -52q20 -65 34.5 -92.5t22.5 -25.5z" />
    <glyph glyph-name="uni042F" unicode="&#x42f;" horiz-adv-x="295" 
d="M290 719q0 -185 -1.5 -311.5t-5 -208.5t-7.5 -126.5t-9.5 -65t-11.5 -24t-13 -3.5q-14 0 -24.5 10.5t-10.5 24.5q0 7 2 13q2 15 4.5 83.5t4.5 183.5q-9 -23 -26.5 -63t-40 -84t-49 -86.5t-54.5 -71.5q-11 -7 -22 -7q-5 0 -12 2.5t-12 7.5q-11 10 -10.5 24t10.5 25
q24 27 48 68t45 83t37 78.5t23 54.5q-17 10 -33.5 24t-30.5 33q-26 35 -40 79t-14 86q0 53 22 100q9 18 24.5 36.5t38.5 34t56 25t77 9.5q8 0 15.5 -4t15.5 -17q2 -2 3 -4t1 -9zM285 735q1 -1 1 -3q-1 1 -1 3zM148 424q9 -14 26.5 -29.5t44.5 -19.5q2 69 1.5 140.5
t-0.5 165.5q-35 -5 -60 -21.5t-39 -42.5q-15 -30 -15 -69q0 -32 10.5 -64.5t30.5 -58.5z" />
    <glyph glyph-name="uni0308" unicode="&#x308;" horiz-adv-x="142" 
d="M-21 796q0 18 13 31t31 13t30.5 -13t12.5 -31t-12.5 -30.5t-30.5 -12.5t-31 12.5t-13 30.5zM75 796q0 18 13 31t31 13t30.5 -13t12.5 -31t-12.5 -30.5t-30.5 -12.5t-31 12.5t-13 30.5z" />
    <glyph glyph-name="hungarumlaut" unicode="&#x2dd;" horiz-adv-x="232" 
d="M12 760q-8 0 -15 2.5t-13 10.5q-9 11 -8 25t12 23l92 70q13 8 27 6t22 -14q8 -11 6 -24.5t-13 -22.5l-91 -69q-11 -7 -19 -7zM134 760q-8 0 -15.5 2.5t-13.5 10.5q-8 11 -7 25t12 23l92 70q13 8 27 6t22 -14q8 -11 6 -24.5t-13 -22.5l-91 -69q-11 -7 -19 -7z" />
    <glyph glyph-name="gravecomb" unicode="&#x300;" horiz-adv-x="115" 
d="M100 760q-10 0 -21 9l-90 67q-11 9 -13 22.5t6 24.5q9 13 23 15t27 -7l91 -70q11 -9 12.5 -23t-7.5 -25q-6 -8 -13 -10.5t-15 -2.5z" />
    <glyph glyph-name="acutecomb" unicode="&#x301;" horiz-adv-x="114" 
d="M13 760q-8 0 -15 2.5t-13 10.5q-9 11 -8 25t12 23l92 70q13 8 27 6t22 -14q8 -11 6 -24.5t-13 -22.5l-91 -69q-11 -7 -19 -7z" />
    <glyph glyph-name="tildecomb" unicode="&#x303;" horiz-adv-x="188" 
d="M146 818q10 8 25 7.5t24 -10.5q9 -11 8.5 -25t-10.5 -24q-8 -6 -20.5 -12.5t-29.5 -6.5q-5 0 -11.5 1t-14.5 4q-11 3 -20 6.5t-15 5.5l-10 5h1q-16 8 -21.5 9t-9.5 -6q-8 -11 -22 -13.5t-27 5.5l2 -1q-13 8 -16 22t6 27l-1 -1q14 21 29 29t32 8q14 0 28.5 -5.5
l29.5 -11.5l3 -1l18 -7t19 -6q1 -1 2 0z" />
    <glyph glyph-name="uni0302" unicode="&#x302;" horiz-adv-x="188" 
d="M98 881q8 0 12 -2q6 -2 10 -5q18 -14 36 -30t36 -30q12 -11 14 -24.5t-8 -24.5l1 1q-5 -7 -13 -10.5t-15 -3.5q-13 0 -22 6l-53 45l-62 -45q-9 -6 -20 -6q-7 0 -15 3t-13 11q-8 13 -5.5 27t13.5 22l91 64q4 0 7 1q1 0 3 0.5t3 0.5z" />
    <glyph glyph-name="uni030C" unicode="&#x30c;" horiz-adv-x="184" 
d="M85 752q-8 0 -12 2q-5 0 -10 5l-73 59q-12 10 -13.5 24t8.5 26l-1 -1q5 7 12.5 10.5t15.5 3.5q10 0 25 -9l50 -42q14 11 30.5 22.5l30.5 21.5q10 7 21 7q6 0 14 -3t14 -11q8 -13 5.5 -27t-13.5 -22l-81 -58q-4 -4 -7 -5.5t-11 -1.5q-1 0 -2 -0.5t-3 -0.5z" />
    <glyph glyph-name="uni030B" unicode="&#x30b;" horiz-adv-x="238" 
d="M12 760q-8 0 -15 2.5t-13 10.5q-9 11 -8 25t12 23l92 70q13 8 27 6t22 -14q8 -11 6 -24.5t-13 -22.5l-91 -69q-11 -7 -19 -7zM134 760q-8 0 -15.5 2.5t-13.5 10.5q-8 11 -7 25t12 23l92 70q13 8 27 6t22 -14q8 -11 6 -24.5t-13 -22.5l-91 -69q-11 -7 -19 -7z" />
    <glyph glyph-name="uni037E" unicode="&#x37e;" horiz-adv-x="168" 
d="M32 608q18 0 30.5 -13t12.5 -31t-12.5 -30.5t-30.5 -12.5t-31 12.5t-13 30.5t13 31t31 13zM35 221q3 0 8 -1t7 -3q14 -6 21.5 -25t3.5 -41q-5 -24 -20.5 -39.5t-33.5 -10.5l1 -1q-23 3 -24 14.5t7 26.5q-10 7 -15.5 17.5t-3.5 22.5q5 18 18.5 30.5t30.5 9.5z" />
    <glyph glyph-name="uni0401" unicode="&#x401;" horiz-adv-x="279" 
d="M40 -20q-14 0 -24.5 10.5t-10.5 24.5v334q0 2 -0.5 4t1.5 6q0 88 0.5 150t1.5 104t2.5 67t3.5 38l-1 1q0 10 3.5 15t8.5 10q7 7 11.5 8t10.5 1h173q14 0 24.5 -10t10.5 -24t-10.5 -24.5t-24.5 -10.5h-141l-4 -290q33 3 99 3q14 0 24.5 -10.5t10.5 -24.5t-10.5 -24
t-24.5 -10q-35 0 -59.5 -1t-39.5 -3v-120v-39t-0.5 -36t-0.5 -37v-42h146q14 0 24.5 -10.5t10.5 -24.5t-10.5 -24.5t-24.5 -10.5h-180v0zM73 796q0 18 13 31t31 13t30.5 -13t12.5 -31t-12.5 -30.5t-30.5 -12.5t-31 12.5t-13 30.5zM169 796q0 18 13 31t31 13t30.5 -13
t12.5 -31t-12.5 -30.5t-30.5 -12.5t-31 12.5t-13 30.5z" />
    <glyph glyph-name="uni0430" unicode="&#x430;" 
d="M48 -17q-14 0 -24 9.5t-11 23.5q-2 36 -2.5 74.5t-0.5 71.5q0 130 10.5 231.5t28 174.5t39.5 117t45 59q15 7 33.5 6.5t31.5 -7.5q22 -15 39 -53t28.5 -96t17 -133.5t5.5 -166.5q-1 -64 -4 -135t-9 -147q-2 -14 -11.5 -23t-26.5 -9q-14 2 -22.5 13.5t-8.5 24.5
q6 73 8.5 129t3.5 113h-51.5h-37.5t-27.5 0.5t-20.5 1.5q-1 -25 -1.5 -50t-0.5 -53q0 -66 3 -141q0 -14 -10 -24.5t-24 -10.5zM218 329q-1 167 -18 252t-36 102q-23 -18 -46.5 -106t-32.5 -245q20 -2 54 -2.5t79 -0.5zM161 685l3 -2l-2 2h-1zM167 685l-3 -2q1 0 2 1z" />
    <glyph glyph-name="uni0431" unicode="&#x431;" horiz-adv-x="278" 
d="M5 724l1 3l-1 -6q0 1 0.5 1.5t0.5 1.5q0 3 3 11q2 5 6.5 9t9.5 5q8 4 14 4l205 2q14 0 24.5 -10.5t10.5 -24.5t-9.5 -23.5t-23.5 -11.5l-170 -1q2 -33 3 -99t2 -181q56 -5 103 -34.5t70 -80.5q25 -53 25 -111q0 -42 -13.5 -81.5t-38.5 -68.5q-46 -53 -117 -53
q-14 0 -30 2t-33 8q-16 0 -25.5 10t-9.5 24q0 147 -0.5 268t-1.5 210.5t-2.5 143.5t-2.5 67q-2 3 -1.5 5.5t0.5 4.5zM31 750q-4 0 -6 -1h3q1 0 1.5 0.5t1.5 0.5zM25 748q-2 0 -2 -1q0 1 2 1zM192 258q-5 10 -13.5 22.5t-21.5 24t-32 19.5t-44 10v-286q8 -2 15.5 -3t13.5 -1
q36 0 65 30v-1q17 19 25.5 47t8.5 58q0 21 -4 41.5t-13 38.5z" />
    <glyph glyph-name="uni0432" unicode="&#x432;" horiz-adv-x="283" 
d="M12 25q0 145 -0.5 265.5t-1.5 209t-2.5 142t-2.5 66.5q-2 3 -1.5 5.5t0.5 5.5q0 14 10.5 24t24.5 10h3q66 3 116.5 -26t78.5 -86q11 -25 17.5 -52t6.5 -54q0 -40 -14 -78.5t-37 -65.5l-11.5 -11.5t-11.5 -10.5q22 -14 37.5 -32.5t28.5 -44.5t18.5 -54t5.5 -55
q0 -42 -13.5 -81.5t-38.5 -68.5q-23 -26 -52.5 -39.5t-62.5 -13.5q-16 0 -30 2t-30 8h-4q-14 0 -24 10.5t-10 24.5zM190 261q-5 10 -13.5 22t-22 23t-32 19t-42.5 11q1 -60 1 -126.5v-156.5q15 -3 28 -3q39 0 64 28q17 19 25.5 46.5t8.5 57.5q0 20 -4 40.5t-13 38.5z
M175 611q-5 9 -13 20t-20.5 21.5t-29 18.5t-37.5 11q2 -33 3 -96.5t2 -175.5q5 -1 9.5 -1h9.5q36 0 59 27q17 18 25 44.5t8 55.5q0 20 -4 39.5t-12 36.5v-1z" />
    <glyph glyph-name="uni0433" unicode="&#x433;" horiz-adv-x="254" 
d="M75 15q0 -14 -10 -24.5t-24 -10.5t-24.5 10.5t-10.5 24.5q0 187 0.5 313.5t1.5 206.5t2.5 121t4.5 59l-1 1q0 10 1.5 16t10.5 11q6 9 11.5 9.5t13.5 -1.5q16 2 58.5 2h129.5q14 0 24.5 -10t10.5 -24t-10.5 -24.5t-24.5 -10.5h-103t-55 -1q-2 -30 -3 -90t-1.5 -145.5
t-1 -194.5t-0.5 -238z" />
    <glyph glyph-name="uni0434" unicode="&#x434;" horiz-adv-x="422" 
d="M425 8l-28 -73v1q-8 -24 -35 -24q-1 0 -3 0.5t-3 0.5q-14 6 -21 20.5t-2 26.5l-1 -1q2 8 4 12t5 12h-67.5t-63 -0.5t-64 -0.5h-69.5l9 -23l-1 1q5 -14 -1.5 -28t-24.5 -19q-1 0 -3 -0.5t-3 -0.5q-22 0 -33 23l-27 73h-1l-1 2q0 13 2 17l4 7q2 4 5.5 8t11.5 9l12 1h85
q0 30 0.5 89.5t1 145t0.5 194.5v238q0 9 4 14q2 7 11 14q4 2 9.5 4t10.5 2l168 -1q8 0 12.5 -2.5t10.5 -7.5q2 -2 4 -5.5t3 -7.5v3q2 -3 3 -6.5t1 -8.5l11 -665h30q3 0 7 -2q-1 1 -4 1l6 -2h1q6 -3 9 -11q-1 3 -2.5 6t-5.5 5h2q12 -5 20 -21q0 -1 0.5 -4t0.5 -4v-12zM402 49
h-1q-1 1 -3 1q3 0 4 -1zM347 727v-1q0 -1 0.5 -1.5t0.5 -1.5zM-8 9l1 -1q-1 0 -1 1zM411 34l-1 1zM282 683q-26 0 -50.5 0.5t-49.5 0.5v-279v-184t-0.5 -111t-2.5 -58h113q-3 162 -5 315t-5 316zM162 684h20v20z" />
    <glyph glyph-name="uni0435" unicode="&#x435;" horiz-adv-x="235" 
d="M40 -20q-14 0 -24.5 10.5t-10.5 24.5v334q0 2 -0.5 4t1.5 6q0 88 0.5 150t1.5 104t2.5 67t3.5 38l-1 1q0 10 3.5 15t8.5 10q7 7 11.5 8t10.5 1h173q14 0 24.5 -10t10.5 -24t-10.5 -24.5t-24.5 -10.5h-141l-4 -290q33 3 99 3q14 0 24.5 -10.5t10.5 -24.5t-10.5 -24
t-24.5 -10q-35 0 -59.5 -1t-39.5 -3v-120v-39t-0.5 -36t-0.5 -37v-42h146q14 0 24.5 -10.5t10.5 -24.5t-10.5 -24.5t-24.5 -10.5h-180v0z" />
    <glyph glyph-name="uni0436" unicode="&#x436;" horiz-adv-x="493" 
d="M34 -20q-10 0 -18.5 6.5t-14.5 16.5q-11 29 18 44q8 3 16 16.5t15.5 33t14.5 43l14 46.5l19 64.5t23 61t29.5 50t39.5 31.5q-19 35 -32.5 73.5t-24.5 73.5l-18 53t-19 46t-22 32.5t-25 12.5q-14 0 -24.5 10.5t-10.5 24.5t10.5 24t24.5 10q33 0 56.5 -16t40 -43t29 -61.5
t24.5 -71.5q2 -8 3.5 -13t4.5 -13v184q0 14 10.5 24t24.5 10t24 -10t10 -24q0 -45 0.5 -87.5t0.5 -83.5v-41l17 54q12 37 24.5 71.5t29.5 61.5t40 43t56 16q14 0 24 -10t10 -24t-10 -24.5t-24 -10.5t-25.5 -12t-21.5 -31.5t-19 -46l-18 -54.5q-11 -36 -24.5 -74.5
t-32.5 -72.5q24 -11 40.5 -32.5t29 -49.5t22.5 -60.5t19 -65.5v1l14 -47.5t14.5 -42.5t15 -32.5t15.5 -16.5q14 -7 19 -18.5t0 -25.5q-6 -10 -14.5 -16.5t-18.5 -6.5q-5 0 -8.5 1t-6.5 3h1q-19 8 -33 25.5t-25 41.5t-20.5 53.5t-18.5 61.5l-15.5 53t-16 47.5t-18 37.5
t-20.5 23q1 -134 3 -212.5t4 -93.5q0 -1 0.5 -3t0.5 -3q0 -14 -10.5 -24.5t-24.5 -10.5q-7 0 -12.5 1.5t-10 10.5t-8 29.5t-6 58.5t-4 96t-2.5 144q-19 -20 -34.5 -63.5t-28.5 -90.5q-9 -32 -18.5 -61.5t-20.5 -53.5t-25 -41.5t-33 -25.5h1q-3 -2 -6.5 -3t-8.5 -1z" />
    <glyph glyph-name="uni0437" unicode="&#x437;" horiz-adv-x="356" 
d="M311 456q-8 -17 -21 -34t-34 -31q24 -14 40 -31t26 -34q14 -24 20.5 -53t6.5 -59q0 -40 -11 -79.5t-33 -73.5q-28 -42 -65.5 -64.5t-80.5 -22.5h-6q-2 0 -4.5 0.5t-6.5 0.5q-31 3 -58 19t-47 42q-17 23 -26.5 51t-9.5 59q0 18 3 35q3 14 13 22.5t24 6.5q16 -4 25 -15
t7 -25q-5 -35 2 -57.5t17 -34.5q23 -29 58 -34q18 -2 33 3t27.5 13.5t21.5 19t15 19.5q16 26 25 55.5t9 58.5q0 46 -19 78q-37 66 -138 60q-32 3 -35 32q0 11 4 18t9 11q10 14 26 14q93 0 121 59q5 11 7.5 26t2.5 29q0 37 -11.5 71.5t-27.5 51.5q-11 14 -25.5 20.5
t-31.5 6.5q-14 0 -24 -3q-25 -7 -40.5 -29t-17.5 -54q-2 -14 -12 -23.5t-25 -7.5q-13 1 -22.5 12.5t-9.5 24.5q6 51 34.5 90t73.5 53q11 4 22 5.5t22 1.5q32 0 61 -14t49 -40l-1 1q22 -25 38.5 -71t16.5 -96q0 -22 -3.5 -43.5t-13.5 -41.5v1v0z" />
    <glyph glyph-name="uni0438" unicode="&#x438;" horiz-adv-x="299" 
d="M224 15q0 150 -1 272t-3 213l-63 -213t-74 -276q0 -3 -1.5 -8t-6.5 -10l-5 -6q-5 -3 -9 -5t-12 -2q-3 0 -5.5 -0.5t-7.5 3.5q-4 2 -6 4q-5 2 -12 14q-3 6 -3 14q0 147 -1 268.5t-2.5 211t-3.5 144t-3 67.5q-2 3 -2 6.5v6.5q0 14 10.5 24t24.5 10q7 0 13 -2t11 -15
t8.5 -41.5t6.5 -81t4.5 -134t2.5 -200.5l33 114.5l30 100.5l10 34l34 114.5t22 88.5l4 4q2 5 5.5 8t10.5 8q5 0 8 1q1 0 3 0.5t3 0.5q6 0 11.5 -0.5t11.5 -9.5q6 -5 9.5 -13.5t1.5 -17.5q3 -21 5 -65.5t3.5 -125.5t2.5 -204.5t1 -301.5q0 -14 -10.5 -24.5t-24.5 -10.5
t-24 10.5t-10 24.5z" />
    <glyph glyph-name="uni0439.001" horiz-adv-x="292" 
d="M41 17q-1 -1 -1 -3v-1q0 2 1 4zM52 16q0 1 -0.5 1.5t-0.5 1.5q0 -2 1 -3zM52 18v-2q0 -2 0.5 -2.5t0.5 -1.5q0 3 0 2.5t1 -1.5l-1 3zM236 716q0 -1 1 -2q2 7 5 12q-4 -4 -4 -6q-1 -5 -2 -4zM63 1q0 3 -1 7q-2 8 -10 11q4 -2 7.5 -7.5t3.5 -10.5zM240 681l-3 28q-2 2 0 5
q1 -1 4 -1l6 2l2 3l-1 -2l5 2l-5 -5zM240 681q-2 -8 -4 -17t-5 -19q5 1 12 -1zM37 5q-1 2 0 4q0 2 4 8q2 11 5 21.5l6 21.5v-42l-1 1q0 1 -3 6l3 -6q-2 1 -5 1h-2zM65 112q-6 -2 -13 2v-54zM42 718q1 -10 2.5 -56.5t3 -125t3 -185.5t1.5 -237q-11 5 -11 17q0 138 -0.5 235
t-1 161.5t-1 101.5t-1 55.5t-1 23t-1.5 5.5q5 0 5 6q0 3 2 -1zM196 565q6 18 10.5 35t9.5 32q3 11 15 13l-18 -58l-21 -70v1l-4.5 -17.5t-5.5 -18.5l-48 -162t-54 -194q-3 -10 -15 -14q33 125 63.5 227.5l53.5 180.5zM250 16q0 136 -0.5 238.5t-1 178t-2 127t-3.5 84.5
q10 -4 12 -17q2 -86 4 -243t2 -368q-2 4 -6 4q-5 0 -5 -4zM143 754q-49 0 -88 44q-10 11 -9 25t12 24q11 9 25 8.5t23 -11.5q8 -8 19 -15t19 -7q20 0 46 22q11 9 25 8.5t23 -11.5q8 -11 6.5 -25.5t-10.5 -22.5q-48 -39 -91 -39z" />
    <glyph glyph-name="uni043A" unicode="&#x43a;" horiz-adv-x="285" 
d="M50 -18q-8 0 -14.5 3.5t-11.5 24t-8.5 64.5t-6 126t-3.5 208.5t-1 310.5q0 14 10.5 24t24.5 10t24.5 -10t10.5 -24v-68.5v-46v-41.5v-55q5 13 9 26.5l8 26.5q12 37 24.5 71.5t29 61.5t40 43t56.5 16q14 0 24 -10t10 -24t-10 -24.5t-24 -10.5t-25.5 -11.5t-21.5 -31.5
t-19 -46l-18 -54q-11 -35 -25.5 -74t-31.5 -73q23 -10 40 -31.5t29.5 -50t22.5 -61l19 -64.5l14 -47t14.5 -42.5t15 -33t15.5 -16.5l-1 1q14 -5 19.5 -18.5t0.5 -26.5q-13 -22 -33 -22q-4 0 -7 0.5t-8 2.5h1q-19 9 -33 26.5t-25 41.5t-20.5 53t-18.5 61l-15.5 52.5t-16 47
t-18 37.5t-20.5 23q2 -131 3.5 -208t3.5 -92q2 -4 1.5 -6.5t-0.5 -4.5q0 -14 -10 -24t-24 -10z" />
    <glyph glyph-name="uni043C" unicode="&#x43c;" horiz-adv-x="319" 
d="M41 -20q-14 0 -24.5 10.5t-10.5 24.5q0 183 0.5 307.5t2 204.5t3 122t4.5 61q0 22 13 33q6 7 11.5 8.5t13.5 -0.5h1q1 0 1.5 -0.5t2.5 -0.5q7 -2 11 -5l8 -9l-4 3q3 -2 6 -6t4 -7q33 -137 63 -246l14 -53l8 -28l3 17q2 15 5.5 30.5t5.5 30.5l4 21q11 66 22 124.5
t29 110.5l1 1q1 1 1 1.5t1 1.5l8 7q2 2 7 4t7 2q1 0 1.5 0.5t1.5 0.5l-6 -1l3 1q5 2 11 0h5t11 -8l5 -4q5 -5 6 -10t1 -8q1 0 1 1h1q0 -149 1 -273t2.5 -215t3 -145.5t3.5 -66.5q0 -1 0.5 -3.5t0.5 -3.5q0 -14 -10.5 -24.5t-24.5 -10.5q-7 0 -12.5 2t-10 13t-8.5 34.5
t-6.5 66.5t-4.5 109t-3 162l-12 -65t-14 -68v4q0 -1 -0.5 -1.5t-0.5 -1.5q0 -2 -2 -7t-4 -7l-5 -6l-9 -6q-5 -2 -8 -2.5t-5 -0.5q-9 0 -16 5q-6 2 -11 11l-5 5l-16.5 65.5t-18.5 69.5l-13 48q-5 16 -8.5 32.5t-8.5 33.5q-1 -89 -1.5 -205t-0.5 -256q0 -14 -10.5 -24.5
t-24.5 -10.5zM83 729l-5 7q5 -4 5 -7zM282 746l-3 3q3 -2 3 -3zM274 751l5 -2z" />
    <glyph glyph-name="uni043D" unicode="&#x43d;" horiz-adv-x="267" 
d="M14 15q0 145 -1 266t-2.5 211t-3 145.5t-3.5 70.5q-1 2 -1 5.5v5.5q0 14 10 24t24 10q7 0 12.5 -2t10.5 -12.5t9 -33t6.5 -64t4 -105.5t2.5 -157h108v340q0 14 10.5 24t24.5 10t24.5 -10t10.5 -24v-704q0 -14 -10.5 -24.5t-24.5 -10.5t-24.5 10.5t-10.5 24.5v295h-107
v-295q0 -14 -10 -24.5t-24 -10.5t-24.5 10.5t-10.5 24.5z" />
    <glyph glyph-name="uni043E" unicode="&#x43e;" horiz-adv-x="272" 
d="M272 358q1 -82 -7.5 -151t-24 -119.5t-38.5 -80t-51 -33.5h-9q-14 0 -30 7t-32.5 26.5t-32.5 53t-31 86.5q-7 26 -9 62t-2 78q0 48 2 98.5t4 92.5q3 52 3 81q0 66 20 117t55 71h-1q18 12 41 12q9 0 20 -3.5t20 -8.5q50 -31 77 -132.5t26 -256.5zM141 44q10 1 21.5 21
t20.5 59t14.5 97t4.5 137q1 80 -5 138.5t-15.5 98.5t-22 62.5t-25.5 29.5q-5 3 -11 0l1 1q-15 -9 -28 -42t-12 -87q0 -14 -0.5 -36t-2.5 -48l-4.5 -89.5t-2.5 -95.5q0 -38 2 -72t7 -54q17 -61 33 -91.5t24 -28.5h1z" />
    <glyph glyph-name="uni043F" unicode="&#x43f;" horiz-adv-x="301" 
d="M260 751q14 0 24 -10t10 -24v-704q0 -14 -10 -24.5t-24 -10.5q-16 0 -25.5 10.5t-9.5 24.5v669h-149v-669q0 -14 -10.5 -24.5t-24.5 -10.5t-24.5 10.5t-10.5 24.5v704q0 14 10.5 24t24.5 10h219v0z" />
    <glyph glyph-name="uni0440" unicode="&#x440;" horiz-adv-x="255" 
d="M199 359q-25 -34 -56 -53t-66 -23q2 -108 3.5 -173t4.5 -81q3 -6 3 -14q0 -14 -10.5 -24.5t-24.5 -10.5q-7 0 -13.5 3.5t-12 24t-9.5 65t-7 126.5t-4.5 208.5t-1.5 311.5q0 6 3 12q0 5 7 12q10 10 25 10q43 0 75.5 -10t55.5 -25.5t38.5 -34.5t24.5 -37q11 -24 17.5 -51.5
t6.5 -56.5q0 -47 -15 -93.5t-44 -85.5zM172 614q-29 55 -98 67q0 -99 0.5 -177t1.5 -151q24 4 41 19t27 28q18 28 31 66.5t13 71.5q0 44 -16 76zM53 683l21 -2v22z" />
    <glyph glyph-name="uni0441" unicode="&#x441;" horiz-adv-x="243" 
d="M0 375q-1 81 7.5 149.5t23.5 119t37 80.5t48 35q39 4 72.5 -39t56.5 -133q4 -14 -4 -26.5t-20 -15.5h1q-15 -5 -27 2.5t-17 21.5q-17 65 -31 93.5t-21 26.5q-9 -1 -19.5 -21t-19 -59t-13.5 -97.5t-4 -136.5q-1 -81 4.5 -140t14.5 -99t21 -62t24 -29q2 -2 4 0
q15 9 27.5 41.5t11.5 87.5q0 14 9.5 24.5t25.5 10.5q14 0 24.5 -10.5t10.5 -24.5q0 -67 -19.5 -118t-53.5 -71q-20 -11 -37 -11q-18 0 -38 11q-48 29 -74 130.5t-25 259.5z" />
    <glyph glyph-name="uni0442" unicode="&#x442;" horiz-adv-x="253" 
d="M16 684q-14 0 -24 10.5t-10 24.5t10 24t24 10h219q14 0 24.5 -10t10.5 -24t-10.5 -24.5t-24.5 -10.5h-69v-669q0 -14 -10.5 -24.5t-24.5 -10.5t-24 10.5t-10 24.5v669h-81v0z" />
    <glyph glyph-name="uni0443" unicode="&#x443;" horiz-adv-x="300" 
d="M288 752q14 -3 21.5 -15.5t3.5 -26.5l-194 -705q-3 -11 -12.5 -18t-20.5 -7q-1 0 -2 0.5t-3 0.5q-17 4 -25 17t-3 28v-2l56 207q-5 15 -19.5 62t-32 114t-34.5 147t-27 161q0 13 8.5 24.5t22.5 13.5t25 -7t13 -23q6 -51 15 -101.5t19.5 -98t22 -90.5l21.5 -78l52 186.5
l51 186.5q5 13 17 20t25 4z" />
    <glyph glyph-name="uni0444" unicode="&#x444;" horiz-adv-x="481" 
d="M480 358q1 -67 -7.5 -123.5t-25 -99.5t-40 -69.5t-51.5 -32.5q-4 -2 -6.5 -1.5t-7.5 0.5q-14 0 -31.5 6.5t-35.5 23.5v-47q0 -14 -9.5 -24.5t-25.5 -10.5q-14 0 -24 10.5t-10 24.5v47q-19 -17 -36 -23.5t-31 -6.5h-7t-9 2l1 -1q-29 5 -52 31.5t-39.5 69t-24.5 100
t-7 125.5q-1 102 11.5 165t32 98.5t41.5 49t40 15.5q42 4 80 -29v61q0 14 10 24t24 10q16 0 25.5 -10t9.5 -24v-61q38 33 80 29q18 -2 40 -15.5t41.5 -49t32 -98.5t11.5 -165v-1zM138 102q15 -3 32.5 21.5t35.5 72.5v329q-5 20 -13 37.5t-18 30.5t-21 19.5t-21 5.5
q-12 -2 -23.5 -16.5t-20.5 -45t-14.5 -79.5t-4.5 -119q-1 -59 4.5 -105.5t15 -79.5t22.5 -51t26 -20zM343 102q13 2 25.5 20t22.5 51t15.5 79.5t4.5 106.5q1 70 -4.5 118.5t-15 79t-21.5 45t-24 16.5q-20 3 -40 -25.5t-31 -67.5v-329q18 -48 35.5 -72.5t32.5 -21.5z" />
    <glyph glyph-name="uni0445" unicode="&#x445;" horiz-adv-x="303" 
d="M188 367l111 -342q4 -14 -3 -26.5t-22 -17.5q-1 0 -3.5 -0.5t-4.5 -0.5q-11 0 -20.5 6.5t-12.5 19.5v-1l-81 248l-41 -124.5l-41 -123.5v1q-3 -13 -12 -19.5t-20 -6.5l-9 1q-16 6 -22.5 19t-1.5 27v-1l110 341l-110 341v-1q-5 14 -0.5 26t17.5 17q16 4 30 -2t18 -20v1
q12 -39 22 -68l19 -56.5l19 -56.5t22 -68l81 249v-1q4 14 18 20t30 2q12 -5 17 -16.5t1 -25.5z" />
    <glyph glyph-name="uni0446" unicode="&#x446;" horiz-adv-x="362" 
d="M369 16v-53q0 -14 -10 -24.5t-24 -10.5t-24.5 10.5t-10.5 24.5v18q-11 0 -21 -0.5t-21 -0.5h-219q-14 0 -24.5 10t-10.5 24v705q0 14 10.5 24t24.5 10t24.5 -10t10.5 -24v-670h149q0 100 -2 189t-4 166q0 5 -0.5 10t-0.5 10q-2 68 -3 116.5t-1 82.5q0 36 2 60t6.5 38
t11 21t16.5 10q13 4 26 -3t17 -21v1q4 -11 1.5 -18.5t-7.5 -13.5q-2 -10 -3 -31t-1 -49q0 -32 1 -70.5t2 -81.5q0 -10 0.5 -20t0.5 -20q0 -5 0.5 -10.5t0.5 -10.5q2 -78 4 -166t2 -189q11 0 21.5 0.5t21.5 0.5q8 0 11 -2l6 -3t7 -5q9 -9 9 -22z" />
    <glyph glyph-name="uni0447" unicode="&#x447;" horiz-adv-x="316" 
d="M310 424q-1 -111 -3 -187t-5 -125t-7 -76t-9 -39.5t-11 -14.5t-12 -2q-14 0 -24.5 10.5t-10.5 24.5q0 5 0.5 7.5t2.5 5.5q2 18 4 83.5t4 171.5q-5 -5 -7.5 -6t-7.5 -5q-20 -14 -43.5 -21.5t-45.5 -7.5q-15 0 -30.5 4t-29.5 12l1 -1q-12 6 -27.5 19.5t-29.5 37.5
t-23.5 59.5t-9.5 86.5v258q0 14 10.5 24t24.5 10t24.5 -10t10.5 -24v-258q0 -55 13.5 -91t38.5 -51q14 -7 26 -7q27 0 52 17q19 13 35 37t19 58v17.5t1 17.5v116q0 34 0.5 69.5t0.5 73.5q0 14 10 24t24 10t24.5 -10t10.5 -24v-147t-1 -124v-23v0z" />
    <glyph glyph-name="uni0448" unicode="&#x448;" horiz-adv-x="358" 
d="M351 729q3 -9 0.5 -17.5t-7.5 -15.5q-2 -8 -2.5 -27.5t-0.5 -48.5q0 -40 1 -90.5t3 -104.5q0 -5 0.5 -9.5t0.5 -9.5q2 -81 4 -183.5t2 -207.5q0 -14 -10 -24.5t-24 -10.5h-278q-14 0 -24 10.5t-10 24.5v704q0 14 10 24t24 10q16 0 25.5 -10t9.5 -24v-669h75q0 100 -2 188
t-4 164q0 5 -0.5 11t-0.5 11q-2 69 -3 117.5t-1 82.5q0 36 1.5 59.5t5.5 37.5t11 21t17 10q14 4 26.5 -2.5t17.5 -20.5q3 -9 0.5 -17.5t-7.5 -15.5q-3 -17 -3 -76q0 -40 1 -90.5t3 -104.5q0 -5 0.5 -9t0.5 -9q2 -78 4 -166.5t2 -190.5h64q0 100 -2 188t-4 164q0 5 -0.5 10.5
t-0.5 10.5q-2 65 -3 117t-1 84q0 36 1.5 59.5t5.5 37.5t11 21t17 10q14 4 26.5 -2.5t17.5 -20.5z" />
    <glyph glyph-name="uni0449" unicode="&#x449;" horiz-adv-x="422" 
d="M417 41q2 -2 4 -6v1q3 -5 4.5 -8t1.5 -11v-53q0 -14 -10 -24.5t-24 -10.5t-24.5 10.5t-10.5 24.5v18q-11 0 -21 -0.5t-21 -0.5h-278q-14 0 -24 10t-10 24v705q0 14 10 24t24 10t24.5 -10t10.5 -24v-670h75q0 100 -2 189t-4 166q0 5 -0.5 10t-0.5 10q-2 68 -3 116.5
t-1 82.5q0 36 2 60t6.5 38t11 21t16.5 10q13 4 25.5 -2.5t17.5 -20.5q4 -11 1.5 -18.5t-7.5 -13.5q-2 -10 -3 -32t-1 -51q0 -39 1 -87.5t3 -101.5q0 -5 0.5 -10.5t0.5 -10.5q2 -78 4 -166t2 -189h64q0 100 -2 189t-4 166q0 5 -0.5 10t-0.5 10q-2 68 -3 116.5t-1 82.5
q0 36 2 60t6.5 38t11 21t16.5 10q13 4 26 -3t17 -21v1q3 -9 1 -17t-7 -15q-2 -10 -3 -31t-1 -49q0 -32 1 -70.5t2 -81.5q0 -10 0.5 -20t0.5 -20q0 -7 0.5 -13.5t0.5 -13.5q2 -77 4 -163.5t3 -185.5h43h2q1 0 2 -0.5t3 -0.5q10 -2 16 -8z" />
    <glyph glyph-name="uni044A" unicode="&#x44a;" horiz-adv-x="321" 
d="M149 704q-2 -20 -4 -91.5t-4 -186.5q35 -3 68 -22t59 -54q26 -36 39.5 -78.5t13.5 -85.5q0 -53 -22 -100q-9 -18 -24 -36.5t-38 -34t-56 -25.5t-77 -10q-16 0 -26 13q-1 1 -2 3t-2 2.5t-1 2.5q-1 2 -2.5 4.5t-1.5 9.5q0 159 0.5 273.5t2 193t3 127t4.5 75.5h-17v-17
q0 -14 -10.5 -24.5t-24.5 -10.5t-24 10.5t-10 24.5v55l2 6q3 11 11 18t22 7l76 -1q2 0 3 1t3 -1q2 1 3.5 0.5t3.5 -0.5q14 0 24.5 -10.5t10.5 -24.5q0 -7 -3 -13zM237 117q15 30 15 69q0 31 -10.5 63.5t-29.5 59.5q-11 14 -28.5 30t-43.5 20q-1 -69 -1 -141v-165
q71 11 98 64z" />
    <glyph glyph-name="uni044B" unicode="&#x44b;" horiz-adv-x="337" 
d="M301 753q14 0 23 -10t9 -24q0 -8 -1 -12q-2 -14 -3.5 -68.5t-3 -144.5t-2.5 -211.5t-1 -267.5q0 -14 -9.5 -24.5t-23.5 -10.5t-23.5 10.5t-9.5 24.5q0 184 1.5 310.5t4 208.5t6.5 126.5t9 65t11 24t13 3.5zM81 706q-2 -16 -4 -87.5t-4 -191.5q67 -8 113 -77
q23 -35 35 -78t12 -86q0 -53 -20 -99q-9 -18 -23 -37t-35 -34.5t-50 -25.5t-67 -10q-17 0 -26 14l3 -3q-2 2 -3 5q-3 4 -4 8l1 -3q-2 3 -3 4t-1 10q0 184 1.5 310.5t4 208.5t6.5 126.5t9 65t11 24t13 3.5q14 0 23.5 -10t9.5 -24q0 -7 -2 -13zM154 116q7 15 10 33t3 37
q0 32 -9 64.5t-27 59.5q-8 13 -23 28.5t-35 20.5q-1 -69 -1.5 -141t-0.5 -165q29 6 50.5 21.5t32.5 41.5z" />
    <glyph glyph-name="uni044C" unicode="&#x44c;" horiz-adv-x="227" 
d="M81 706q-2 -16 -4 -87.5t-4 -191.5q67 -8 113 -77q23 -35 35 -78t12 -86q0 -53 -20 -99q-9 -18 -23 -37t-35 -34.5t-50 -25.5t-67 -10q-17 0 -26 14l3 -3q-2 2 -3 5q-3 4 -4 8l1 -3q-2 3 -3 4t-1 10q0 184 1.5 310.5t4 208.5t6.5 126.5t9 65t11 24t13 3.5q14 0 23.5 -10
t9.5 -24q0 -7 -2 -13zM154 116q7 15 10 33t3 37q0 32 -9 64.5t-27 59.5q-8 13 -23 28.5t-35 20.5q-1 -69 -1.5 -141t-0.5 -165q29 6 50.5 21.5t32.5 41.5z" />
    <glyph glyph-name="uni044D" unicode="&#x44d;" horiz-adv-x="319" 
d="M318 375q1 -72 -7.5 -134.5t-24.5 -111.5t-39 -84.5t-51 -53.5q-13 -7 -28.5 -12t-29.5 -5q-13 0 -28 4.5t-28 12.5q-40 24 -63 73t-22 110q0 16 9.5 25.5t25.5 9.5q14 0 25 -11t9 -26q0 -42 13.5 -75t37.5 -47q10 -6 21 -6t22 7q7 4 21.5 18.5t28.5 47t25 86.5t13 137
h-128q-14 0 -24.5 10.5t-10.5 24.5t10.5 24.5t24.5 10.5h128q-2 61 -10 111t-20.5 85.5t-28 56.5t-30.5 26q-20 0 -46.5 -32.5t-47.5 -90.5q-5 -15 -19 -20.5t-28 -0.5q-12 5 -17.5 19t-0.5 27l-1 -1q22 61 47 96t48 52t43.5 20t35.5 0q34 -6 61 -37t46 -81.5t29 -118
t9 -146.5z" />
    <glyph glyph-name="uni044E" unicode="&#x44e;" horiz-adv-x="385" 
d="M382 359q1 -81 -7 -149t-23.5 -117.5t-38 -78.5t-50.5 -33q-1 0 -3.5 -0.5t-5.5 -0.5q-14 0 -29.5 7t-32 26t-32.5 52.5t-30 85.5q-7 25 -9.5 60t-2.5 75v22v19v18.5t1 22.5h-43q-2 -76 -1.5 -163.5t0.5 -189.5q0 -14 -10.5 -24.5t-24.5 -10.5t-24.5 10.5t-10.5 24.5
q0 122 0.5 213.5t1.5 164.5q-2 4 -2 10v6.5t2 4.5q1 84 3 142t5 95.5t7 58t9 30t10.5 11.5t11.5 2q14 0 24.5 -10t10.5 -24q0 -5 -1 -8t-2 -5q-2 -19 -4 -90t-4 -179h46l2 40q3 52 3 80q0 65 20 115t54 70q20 11 39 11q17 0 39 -11q51 -29 77.5 -129t24.5 -254zM253 50
q10 1 21 20.5t20 58t14.5 95.5t4.5 135q1 79 -4.5 136.5t-15 97t-22 61.5t-24.5 29v-1q-5 3 -10 1q-14 -9 -27 -41t-12 -85q0 -10 -0.5 -27.5t-2.5 -35.5q0 -5 -0.5 -10t-0.5 -10q-2 -42 -4 -90.5t-2 -96.5q0 -35 2 -67t6 -52q20 -65 34.5 -92.5t22.5 -25.5z" />
    <glyph glyph-name="uni044F" unicode="&#x44f;" horiz-adv-x="295" 
d="M290 719q0 -185 -1.5 -311.5t-5 -208.5t-7.5 -126.5t-9.5 -65t-11.5 -24t-13 -3.5q-14 0 -24.5 10.5t-10.5 24.5q0 7 2 13q2 15 4.5 83.5t4.5 183.5q-9 -23 -26.5 -63t-40 -84t-49 -86.5t-54.5 -71.5q-11 -7 -22 -7q-5 0 -12 2.5t-12 7.5q-11 10 -10.5 24t10.5 25
q24 27 48 68t45 83t37 78.5t23 54.5q-17 10 -33.5 24t-30.5 33q-26 35 -40 79t-14 86q0 53 22 100q9 18 24.5 36.5t38.5 34t56 25t77 9.5q8 0 15.5 -4t15.5 -17q2 -2 3 -4t1 -9zM285 735q1 -1 1 -3q-1 1 -1 3zM148 424q9 -14 26.5 -29.5t44.5 -19.5q2 69 1.5 140.5
t-0.5 165.5q-35 -5 -60 -21.5t-39 -42.5q-15 -30 -15 -69q0 -32 10.5 -64.5t30.5 -58.5z" />
    <glyph glyph-name="exclamdown" unicode="&#xa1;" horiz-adv-x="219" 
d="M160.002 683.003q15.999 0 25.499 -10.499q9.49902 -10.5 9.49902 -24.499v-633.961q0 -13.999 -9.49902 -23.999q-9.5 -9.99902 -25.499 -9.99902q-13.999 0 -24.498 9.99902q-10.5 10 -10.5 23.999v633.961q0 13.999 10.5 24.499q10.499 10.499 24.498 10.499z
M160.002 672.004q-16.999 0 -28.498 11.499t-11.499 28.498q0 15.999 11.499 28.499q11.499 12.499 28.498 12.499t28.998 -12.499q12 -12.5 12 -28.499q0 -16.999 -12 -28.498q-11.999 -11.499 -28.998 -11.499z" />
    <glyph glyph-name="ccedilla" unicode="&#xe7;" horiz-adv-x="269" 
d="M197 -12q-4 -2 -5 -2q13 -11 21.5 -26t8.5 -32q0 -30 -21.5 -52t-52.5 -22q-30 0 -51.5 22t-21.5 52q0 17 10.5 27t25.5 10v20l-5 3q-26 16 -46 50t-34 83t-21.5 112.5t-6.5 138.5q-1 81 7.5 148.5t25.5 118t41 80t54 34.5q15 2 33.5 -3.5t38 -24.5t39 -53t36.5 -89
q5 -14 -3 -28t-23 -19q-14 -2 -27 4.5t-18 20.5q-20 64 -37 90.5t-27 27.5q-11 -3 -23 -23.5t-22 -58.5t-16 -94t-5 -131q-1 -77 5 -133.5t16.5 -95.5t23.5 -61.5t26 -29.5q8 -5 17 0l-1 -1q16 10 29 41t12 82q0 16 10.5 26t25.5 12q16 0 27.5 -11t11.5 -26
q1 -65 -20.5 -115.5t-57.5 -71.5z" />
    <glyph glyph-name="uni2015" unicode="&#x2015;" horiz-adv-x="395" 
d="M32 370q-15 0 -25.5 10t-8.5 26q1 14 11 23t23 9l327 -7q14 0 24 -10t10 -24t-10.5 -24t-24.5 -10z" />
    <glyph glyph-name="fraction" unicode="&#x2044;" horiz-adv-x="275" 
d="M269 752q14 -5 20 -18t1 -27v1l-240 -707q-11 -21 -32 -21l-9 1q-16 6 -22.5 19t-1.5 27v-1l239 705q5 13 17 19t26 2h2z" />
    <glyph glyph-name="uni0400" unicode="&#x400;" horiz-adv-x="333" 
d="M40 -20q-14 0 -24.5 10.5t-10.5 24.5v334q0 2 -0.5 4t1.5 6q0 88 0.5 150t1.5 104t2.5 67t3.5 38l-1 1q0 10 3.5 15t8.5 10q7 7 11.5 8t10.5 1h173q14 0 24.5 -10t10.5 -24t-10.5 -24.5t-24.5 -10.5h-141l-4 -290q33 3 99 3q14 0 24.5 -10.5t10.5 -24.5t-10.5 -24
t-24.5 -10q-35 0 -59.5 -1t-39.5 -3v-120v-39t-0.5 -36t-0.5 -37v-42h146q14 0 24.5 -10.5t10.5 -24.5t-10.5 -24.5t-24.5 -10.5h-180v0zM205 760q-10 0 -21 9l-90 67q-11 9 -13 22.5t6 24.5q9 13 23 15t27 -7l91 -70q11 -9 12.5 -23t-7.5 -25q-6 -8 -13 -10.5t-15 -2.5z
" />
    <glyph glyph-name="uni0403" unicode="&#x403;" horiz-adv-x="405" 
d="M75 15q0 -14 -10 -24.5t-24 -10.5t-24.5 10.5t-10.5 24.5q0 187 0.5 313.5t1.5 206.5t2.5 121t4.5 59l-1 1q0 10 1.5 16t10.5 11q6 9 11.5 9.5t13.5 -1.5q16 2 58.5 2h129.5q14 0 24.5 -10t10.5 -24t-10.5 -24.5t-24.5 -10.5h-103t-55 -1q-2 -30 -3 -90t-1.5 -145.5
t-1 -194.5t-0.5 -238zM154 760q-8 0 -15 2.5t-13 10.5q-9 11 -8 25t12 23l92 70q13 8 27 6t22 -14q8 -11 6 -24.5t-13 -22.5l-91 -69q-11 -7 -19 -7z" />
    <glyph glyph-name="uni040C" unicode="&#x40c;" horiz-adv-x="393" 
d="M50 -18q-8 0 -14.5 3.5t-11.5 24t-8.5 64.5t-6 126t-3.5 208.5t-1 310.5q0 14 10.5 24t24.5 10t24.5 -10t10.5 -24v-68.5v-46v-41.5v-55q5 13 9 26.5l8 26.5q12 37 24.5 71.5t29 61.5t40 43t56.5 16q14 0 24 -10t10 -24t-10 -24.5t-24 -10.5t-25.5 -11.5t-21.5 -31.5
t-19 -46l-18 -54q-11 -35 -25.5 -74t-31.5 -73q23 -10 40 -31.5t29.5 -50t22.5 -61l19 -64.5l14 -47t14.5 -42.5t15 -33t15.5 -16.5l-1 1q14 -5 19.5 -18.5t0.5 -26.5q-13 -22 -33 -22q-4 0 -7 0.5t-8 2.5h1q-19 9 -33 26.5t-25 41.5t-20.5 53t-18.5 61l-15.5 52.5t-16 47
t-18 37.5t-20.5 23q2 -131 3.5 -208t3.5 -92q2 -4 1.5 -6.5t-0.5 -4.5q0 -14 -10 -24t-24 -10zM148 760q-8 0 -15 2.5t-13 10.5q-9 11 -8 25t12 23l92 70q13 8 27 6t22 -14q8 -11 6 -24.5t-13 -22.5l-91 -69q-11 -7 -19 -7z" />
    <glyph glyph-name="uni040D" unicode="&#x40d;" horiz-adv-x="458" 
d="M224 15q0 150 -1 272t-3 213l-63 -213t-74 -276q0 -3 -1.5 -8t-6.5 -10l-5 -6q-5 -3 -9 -5t-12 -2q-3 0 -5.5 -0.5t-7.5 3.5q-4 2 -6 4q-5 2 -12 14q-3 6 -3 14q0 147 -1 268.5t-2.5 211t-3.5 144t-3 67.5q-2 3 -2 6.5v6.5q0 14 10.5 24t24.5 10q7 0 13 -2t11 -15
t8.5 -41.5t6.5 -81t4.5 -134t2.5 -200.5l33 114.5l30 100.5l10 34l34 114.5t22 88.5l4 4q2 5 5.5 8t10.5 8q5 0 8 1q1 0 3 0.5t3 0.5q6 0 11.5 -0.5t11.5 -9.5q6 -5 9.5 -13.5t1.5 -17.5q3 -21 5 -65.5t3.5 -125.5t2.5 -204.5t1 -301.5q0 -14 -10.5 -24.5t-24.5 -10.5
t-24 10.5t-10 24.5zM267 760q-10 0 -21 9l-90 67q-11 9 -13 22.5t6 24.5q9 13 23 15t27 -7l91 -70q11 -9 12.5 -23t-7.5 -25q-6 -8 -13 -10.5t-15 -2.5z" />
    <glyph glyph-name="Mu" unicode="&#x39c;" horiz-adv-x="319" 
d="M41 -20q-14 0 -24.5 10.5t-10.5 24.5q0 183 0.5 307.5t2 204.5t3 122t4.5 61q0 22 13 33q6 7 11.5 8.5t13.5 -0.5h1q1 0 1.5 -0.5t2.5 -0.5q7 -2 11 -5l8 -9l-4 3q3 -2 6 -6t4 -7q33 -137 63 -246l14 -53l8 -28l3 17q2 15 5.5 30.5t5.5 30.5l4 21q11 66 22 124.5
t29 110.5l1 1q1 1 1 1.5t1 1.5l8 7q2 2 7 4t7 2q1 0 1.5 0.5t1.5 0.5l-6 -1l3 1q5 2 11 0h5t11 -8l5 -4q5 -5 6 -10t1 -8q1 0 1 1h1q0 -149 1 -273t2.5 -215t3 -145.5t3.5 -66.5q0 -1 0.5 -3.5t0.5 -3.5q0 -14 -10.5 -24.5t-24.5 -10.5q-7 0 -12.5 2t-10 13t-8.5 34.5
t-6.5 66.5t-4.5 109t-3 162l-12 -65t-14 -68v4q0 -1 -0.5 -1.5t-0.5 -1.5q0 -2 -2 -7t-4 -7l-5 -6l-9 -6q-5 -2 -8 -2.5t-5 -0.5q-9 0 -16 5q-6 2 -11 11l-5 5l-16.5 65.5t-18.5 69.5l-13 48q-5 16 -8.5 32.5t-8.5 33.5q-1 -89 -1.5 -205t-0.5 -256q0 -14 -10.5 -24.5
t-24.5 -10.5zM83 729l-5 7q5 -4 5 -7zM282 746l-3 3q3 -2 3 -3zM274 751l5 -2z" />
    <glyph glyph-name="nu" unicode="&#x3bd;" horiz-adv-x="287" 
d="M-8 713l1 -2q-4 15 5.5 27.5t23.5 14.5l-2 -1q15 3 26.5 -6t13.5 -22l23 -142l21.5 -128l21.5 -129l24 -145q10 55 20.5 123.5t20 140.5l18.5 143.5t16 134.5q2 14 13.5 23.5t25.5 7.5t22.5 -12t8.5 -24q0 -6 -0.5 -9t-1.5 -7l-11.5 -92l-17 -133.5t-21.5 -151.5
t-24.5 -146t-25 -118t-24.5 -66q-6 -6 -12 -9.5t-16 -3.5q-5 0 -9.5 0.5t-10.5 5.5q-12 9 -14 23z" />
    <glyph glyph-name="Kappa" unicode="&#x39a;" horiz-adv-x="285" 
d="M50 -18q-8 0 -14.5 3.5t-11.5 24t-8.5 64.5t-6 126t-3.5 208.5t-1 310.5q0 14 10.5 24t24.5 10t24.5 -10t10.5 -24v-68.5v-46v-41.5v-55q5 13 9 26.5l8 26.5q12 37 24.5 71.5t29 61.5t40 43t56.5 16q14 0 24 -10t10 -24t-10 -24.5t-24 -10.5t-25.5 -11.5t-21.5 -31.5
t-19 -46l-18 -54q-11 -35 -25.5 -74t-31.5 -73q23 -10 40 -31.5t29.5 -50t22.5 -61l19 -64.5l14 -47t14.5 -42.5t15 -33t15.5 -16.5l-1 1q14 -5 19.5 -18.5t0.5 -26.5q-13 -22 -33 -22q-4 0 -7 0.5t-8 2.5h1q-19 9 -33 26.5t-25 41.5t-20.5 53t-18.5 61l-15.5 52.5t-16 47
t-18 37.5t-20.5 23q2 -131 3.5 -208t3.5 -92q2 -4 1.5 -6.5t-0.5 -4.5q0 -14 -10 -24t-24 -10z" />
    <glyph glyph-name="Iota" unicode="&#x399;" horiz-adv-x="219" 
d="M145 684q0 -267 2.5 -431t6.5 -203h43q14 0 24.5 -10.5t10.5 -24.5t-10.5 -24.5t-24.5 -10.5h-159q-14 0 -24.5 10.5t-10.5 24.5t10.5 24.5t24.5 10.5h48q-2 27 -4 74.5t-3.5 122.5t-2 182.5t-0.5 254.5h-57q-14 0 -24.5 10.5t-10.5 24.5t10.5 24t24.5 10h178
q14 0 24.5 -10t10.5 -24t-10.5 -24.5t-24.5 -10.5h-52z" />
    <glyph glyph-name="Eta" unicode="&#x397;" horiz-adv-x="267" 
d="M14 15q0 145 -1 266t-2.5 211t-3 145.5t-3.5 70.5q-1 2 -1 5.5v5.5q0 14 10 24t24 10q7 0 12.5 -2t10.5 -12.5t9 -33t6.5 -64t4 -105.5t2.5 -157h108v340q0 14 10.5 24t24.5 10t24.5 -10t10.5 -24v-704q0 -14 -10.5 -24.5t-24.5 -10.5t-24.5 10.5t-10.5 24.5v295h-107
v-295q0 -14 -10 -24.5t-24 -10.5t-24.5 10.5t-10.5 24.5z" />
    <glyph glyph-name="Zeta" unicode="&#x396;" horiz-adv-x="301" 
d="M74 50h208q14 0 24.5 -10.5t10.5 -24.5t-10.5 -24.5t-24.5 -10.5h-256l-4 1q-2 0 -7 2t-7 4h-1l-7 8l-3 5q-5 5 -5 16q0 15 14 19q-7 0 -11 -6l211 653q-29 1 -75.5 1.5t-109.5 0.5q-16 0 -25.5 10.5t-9.5 24.5t9.5 24t25.5 10q59 0 100.5 -0.5t69.5 -1t45 -2t26 -4.5
q17 -5 21.5 -14t2.5 -22v-4zM-5 29l-2 -6q0 4 2 6zM10 36q-3 0 -4 -1q2 0 2.5 0.5t1.5 0.5z" />
    <glyph glyph-name="Epsilon" unicode="&#x395;" horiz-adv-x="235" 
d="M40 -20q-14 0 -24.5 10.5t-10.5 24.5v334q0 2 -0.5 4t1.5 6q0 88 0.5 150t1.5 104t2.5 67t3.5 38l-1 1q0 10 3.5 15t8.5 10q7 7 11.5 8t10.5 1h173q14 0 24.5 -10t10.5 -24t-10.5 -24.5t-24.5 -10.5h-141l-4 -290q33 3 99 3q14 0 24.5 -10.5t10.5 -24.5t-10.5 -24
t-24.5 -10q-35 0 -59.5 -1t-39.5 -3v-120v-39t-0.5 -36t-0.5 -37v-42h146q14 0 24.5 -10.5t10.5 -24.5t-10.5 -24.5t-24.5 -10.5h-180v0z" />
    <glyph glyph-name="Beta" unicode="&#x392;" horiz-adv-x="283" 
d="M12 25q0 145 -0.5 265.5t-1.5 209t-2.5 142t-2.5 66.5q-2 3 -1.5 5.5t0.5 5.5q0 14 10.5 24t24.5 10h3q66 3 116.5 -26t78.5 -86q11 -25 17.5 -52t6.5 -54q0 -40 -14 -78.5t-37 -65.5l-11.5 -11.5t-11.5 -10.5q22 -14 37.5 -32.5t28.5 -44.5t18.5 -54t5.5 -55
q0 -42 -13.5 -81.5t-38.5 -68.5q-23 -26 -52.5 -39.5t-62.5 -13.5q-16 0 -30 2t-30 8h-4q-14 0 -24 10.5t-10 24.5zM190 261q-5 10 -13.5 22t-22 23t-32 19t-42.5 11q1 -60 1 -126.5v-156.5q15 -3 28 -3q39 0 64 28q17 19 25.5 46.5t8.5 57.5q0 20 -4 40.5t-13 38.5z
M175 611q-5 9 -13 20t-20.5 21.5t-29 18.5t-37.5 11q2 -33 3 -96.5t2 -175.5q5 -1 9.5 -1h9.5q36 0 59 27q17 18 25 44.5t8 55.5q0 20 -4 39.5t-12 36.5v-1z" />
    <glyph glyph-name="Alpha" unicode="&#x391;" 
d="M48 -17q-14 0 -24 9.5t-11 23.5q-2 36 -2.5 74.5t-0.5 71.5q0 130 10.5 231.5t28 174.5t39.5 117t45 59q15 7 33.5 6.5t31.5 -7.5q22 -15 39 -53t28.5 -96t17 -133.5t5.5 -166.5q-1 -64 -4 -135t-9 -147q-2 -14 -11.5 -23t-26.5 -9q-14 2 -22.5 13.5t-8.5 24.5
q6 73 8.5 129t3.5 113h-51.5h-37.5t-27.5 0.5t-20.5 1.5q-1 -25 -1.5 -50t-0.5 -53q0 -66 3 -141q0 -14 -10 -24.5t-24 -10.5zM218 329q-1 167 -18 252t-36 102q-23 -18 -46.5 -106t-32.5 -245q20 -2 54 -2.5t79 -0.5zM161 685l3 -2l-2 2h-1zM167 685l-3 -2q1 0 2 1z" />
    <glyph glyph-name="uni0404" unicode="&#x404;" horiz-adv-x="318" 
d="M0 375q-1 79 9 146.5t29 118t46 81.5t61 37q15 3 35.5 0t43.5 -20t47.5 -52t47.5 -96l-1 1q5 -13 -1 -27t-18 -19t-25.5 2t-20.5 19q-22 57 -48 90t-46 33q-15 -5 -30.5 -26t-28 -56t-21 -84.5t-9.5 -112.5h128q14 0 24.5 -10.5t10.5 -24.5t-10.5 -24.5t-24.5 -10.5h-128
q1 -84 12 -138t25 -86t28 -46.5t22 -18.5q11 -7 23 -7q10 0 21 6q23 14 36.5 47t14.5 75q-2 15 8.5 26t25.5 11q16 0 25.5 -9.5t9.5 -25.5q1 -61 -22 -110t-63 -73q-13 -8 -28 -12.5t-28 -4.5q-14 0 -29.5 5t-28.5 12q-28 18 -51 53.5t-39 84.5t-24.5 111.5t-7.5 134.5z" />
    <glyph glyph-name="uni0454" unicode="&#x454;" horiz-adv-x="318" 
d="M0 375q-1 79 9 146.5t29 118t46 81.5t61 37q15 3 35.5 0t43.5 -20t47.5 -52t47.5 -96l-1 1q5 -13 -1 -27t-18 -19t-25.5 2t-20.5 19q-22 57 -48 90t-46 33q-15 -5 -30.5 -26t-28 -56t-21 -84.5t-9.5 -112.5h128q14 0 24.5 -10.5t10.5 -24.5t-10.5 -24.5t-24.5 -10.5h-128
q1 -84 12 -138t25 -86t28 -46.5t22 -18.5q11 -7 23 -7q10 0 21 6q23 14 36.5 47t14.5 75q-2 15 8.5 26t25.5 11q16 0 25.5 -9.5t9.5 -25.5q1 -61 -22 -110t-63 -73q-13 -8 -28 -12.5t-28 -4.5q-14 0 -29.5 5t-28.5 12q-28 18 -51 53.5t-39 84.5t-24.5 111.5t-7.5 134.5z" />
    <glyph glyph-name="uni0453" unicode="&#x453;" horiz-adv-x="405" 
d="M75 15q0 -14 -10 -24.5t-24 -10.5t-24.5 10.5t-10.5 24.5q0 187 0.5 313.5t1.5 206.5t2.5 121t4.5 59l-1 1q0 10 1.5 16t10.5 11q6 9 11.5 9.5t13.5 -1.5q16 2 58.5 2h129.5q14 0 24.5 -10t10.5 -24t-10.5 -24.5t-24.5 -10.5h-103t-55 -1q-2 -30 -3 -90t-1.5 -145.5
t-1 -194.5t-0.5 -238zM154 760q-8 0 -15 2.5t-13 10.5q-9 11 -8 25t12 23l92 70q13 8 27 6t22 -14q8 -11 6 -24.5t-13 -22.5l-91 -69q-11 -7 -19 -7z" />
    <glyph glyph-name="uni0450" unicode="&#x450;" horiz-adv-x="333" 
d="M40 -20q-14 0 -24.5 10.5t-10.5 24.5v334q0 2 -0.5 4t1.5 6q0 88 0.5 150t1.5 104t2.5 67t3.5 38l-1 1q0 10 3.5 15t8.5 10q7 7 11.5 8t10.5 1h173q14 0 24.5 -10t10.5 -24t-10.5 -24.5t-24.5 -10.5h-141l-4 -290q33 3 99 3q14 0 24.5 -10.5t10.5 -24.5t-10.5 -24
t-24.5 -10q-35 0 -59.5 -1t-39.5 -3v-120v-39t-0.5 -36t-0.5 -37v-42h146q14 0 24.5 -10.5t10.5 -24.5t-10.5 -24.5t-24.5 -10.5h-180v0zM205 760q-10 0 -21 9l-90 67q-11 9 -13 22.5t6 24.5q9 13 23 15t27 -7l91 -70q11 -9 12.5 -23t-7.5 -25q-6 -8 -13 -10.5t-15 -2.5z
" />
    <glyph glyph-name="uni0451" unicode="&#x451;" horiz-adv-x="278" 
d="M40 -20q-14 0 -24.5 10.5t-10.5 24.5v334q0 2 -0.5 4t1.5 6q0 88 0.5 150t1.5 104t2.5 67t3.5 38l-1 1q0 10 3.5 15t8.5 10q7 7 11.5 8t10.5 1h173q14 0 24.5 -10t10.5 -24t-10.5 -24.5t-24.5 -10.5h-141l-4 -290q33 3 99 3q14 0 24.5 -10.5t10.5 -24.5t-10.5 -24
t-24.5 -10q-35 0 -59.5 -1t-39.5 -3v-120v-39t-0.5 -36t-0.5 -37v-42h146q14 0 24.5 -10.5t10.5 -24.5t-10.5 -24.5t-24.5 -10.5h-180v0zM73 796q0 18 13 31t31 13t30.5 -13t12.5 -31t-12.5 -30.5t-30.5 -12.5t-31 12.5t-13 30.5zM169 796q0 18 13 31t31 13t30.5 -13
t12.5 -31t-12.5 -30.5t-30.5 -12.5t-31 12.5t-13 30.5z" />
    <glyph glyph-name="Wgrave" unicode="&#x1e80;" horiz-adv-x="554" 
d="M403 753q14 -2 22.5 -13.5t8.5 -24.5q-4 -30 -11 -90.5t-17.5 -135.5l-22.5 -155.5t-24.5 -150.5t-25.5 -121.5t-25 -67.5l1 1q-9 -14 -29 -14q-6 0 -10.5 1t-9.5 6q-2 1 -4.5 5t-4.5 6t-3.5 5t-1.5 8q-3 32 -4.5 52.5t-3 35.5t-3 28.5t-3 30.5t-4 42t-5.5 64
q-5 -49 -10.5 -93t-11.5 -80t-13 -61.5t-15 -36.5l1 1q-9 -14 -29 -14q-5 0 -9.5 0.5t-10.5 5.5q-12 9 -14 23l-115 703l1 -2q-4 15 5.5 27.5t23.5 14.5l-2 -1q13 3 25 -8t17 -26l82 -504q6 55 11.5 119.5t10 131t8 132.5t5.5 123q0 7 4 12q1 5 10 14l9 4l-3 -2q2 2 6 3.5
t10 1.5q2 0 8 -2q3 0 7 -2t11 -9l2 -5l-5 3q3 -2 7 -7l2 -3q2 -4 2 -6l44 -496l18.5 117.5t18 127.5l16.5 129.5l15 121.5q2 14 13 23.5t25 7.5zM251 728l-2 3l-2 4q4 -4 4 -7zM315 760q-10 0 -21 9l-90 67q-11 9 -13 22.5t6 24.5q9 13 23 15t27 -7l91 -70q11 -9 12.5 -23
t-7.5 -25q-6 -8 -13 -10.5t-15 -2.5z" />
    <glyph glyph-name="wgrave" unicode="&#x1e81;" horiz-adv-x="554" 
d="M403 753q14 -2 22.5 -13.5t8.5 -24.5q-4 -30 -11 -90.5t-17.5 -135.5l-22.5 -155.5t-24.5 -150.5t-25.5 -121.5t-25 -67.5l1 1q-9 -14 -29 -14q-6 0 -10.5 1t-9.5 6q-2 1 -4.5 5t-4.5 6t-3.5 5t-1.5 8q-3 32 -4.5 52.5t-3 35.5t-3 28.5t-3 30.5t-4 42t-5.5 64
q-5 -49 -10.5 -93t-11.5 -80t-13 -61.5t-15 -36.5l1 1q-9 -14 -29 -14q-5 0 -9.5 0.5t-10.5 5.5q-12 9 -14 23l-115 703l1 -2q-4 15 5.5 27.5t23.5 14.5l-2 -1q13 3 25 -8t17 -26l82 -504q6 55 11.5 119.5t10 131t8 132.5t5.5 123q0 7 4 12q1 5 10 14l9 4l-3 -2q2 2 6 3.5
t10 1.5q2 0 8 -2q3 0 7 -2t11 -9l2 -5l-5 3q3 -2 7 -7l2 -3q2 -4 2 -6l44 -496l18.5 117.5t18 127.5l16.5 129.5l15 121.5q2 14 13 23.5t25 7.5zM251 728l-2 3l-2 4q4 -4 4 -7zM315 760q-10 0 -21 9l-90 67q-11 9 -13 22.5t6 24.5q9 13 23 15t27 -7l91 -70q11 -9 12.5 -23
t-7.5 -25q-6 -8 -13 -10.5t-15 -2.5z" />
    <glyph glyph-name="Wacute" unicode="&#x1e82;" horiz-adv-x="554" 
d="M403 753q14 -2 22.5 -13.5t8.5 -24.5q-4 -30 -11 -90.5t-17.5 -135.5l-22.5 -155.5t-24.5 -150.5t-25.5 -121.5t-25 -67.5l1 1q-9 -14 -29 -14q-6 0 -10.5 1t-9.5 6q-2 1 -4.5 5t-4.5 6t-3.5 5t-1.5 8q-3 32 -4.5 52.5t-3 35.5t-3 28.5t-3 30.5t-4 42t-5.5 64
q-5 -49 -10.5 -93t-11.5 -80t-13 -61.5t-15 -36.5l1 1q-9 -14 -29 -14q-5 0 -9.5 0.5t-10.5 5.5q-12 9 -14 23l-115 703l1 -2q-4 15 5.5 27.5t23.5 14.5l-2 -1q13 3 25 -8t17 -26l82 -504q6 55 11.5 119.5t10 131t8 132.5t5.5 123q0 7 4 12q1 5 10 14l9 4l-3 -2q2 2 6 3.5
t10 1.5q2 0 8 -2q3 0 7 -2t11 -9l2 -5l-5 3q3 -2 7 -7l2 -3q2 -4 2 -6l44 -496l18.5 117.5t18 127.5l16.5 129.5l15 121.5q2 14 13 23.5t25 7.5zM251 728l-2 3l-2 4q4 -4 4 -7zM228 760q-8 0 -15 2.5t-13 10.5q-9 11 -8 25t12 23l92 70q13 8 27 6t22 -14q8 -11 6 -24.5
t-13 -22.5l-91 -69q-11 -7 -19 -7z" />
    <glyph glyph-name="wacute" unicode="&#x1e83;" horiz-adv-x="554" 
d="M403 753q14 -2 22.5 -13.5t8.5 -24.5q-4 -30 -11 -90.5t-17.5 -135.5l-22.5 -155.5t-24.5 -150.5t-25.5 -121.5t-25 -67.5l1 1q-9 -14 -29 -14q-6 0 -10.5 1t-9.5 6q-2 1 -4.5 5t-4.5 6t-3.5 5t-1.5 8q-3 32 -4.5 52.5t-3 35.5t-3 28.5t-3 30.5t-4 42t-5.5 64
q-5 -49 -10.5 -93t-11.5 -80t-13 -61.5t-15 -36.5l1 1q-9 -14 -29 -14q-5 0 -9.5 0.5t-10.5 5.5q-12 9 -14 23l-115 703l1 -2q-4 15 5.5 27.5t23.5 14.5l-2 -1q13 3 25 -8t17 -26l82 -504q6 55 11.5 119.5t10 131t8 132.5t5.5 123q0 7 4 12q1 5 10 14l9 4l-3 -2q2 2 6 3.5
t10 1.5q2 0 8 -2q3 0 7 -2t11 -9l2 -5l-5 3q3 -2 7 -7l2 -3q2 -4 2 -6l44 -496l18.5 117.5t18 127.5l16.5 129.5l15 121.5q2 14 13 23.5t25 7.5zM251 728l-2 3l-2 4q4 -4 4 -7zM228 760q-8 0 -15 2.5t-13 10.5q-9 11 -8 25t12 23l92 70q13 8 27 6t22 -14q8 -11 6 -24.5
t-13 -22.5l-91 -69q-11 -7 -19 -7z" />
    <glyph glyph-name="Wdieresis" unicode="&#x1e84;" horiz-adv-x="554" 
d="M403 753q14 -2 22.5 -13.5t8.5 -24.5q-4 -30 -11 -90.5t-17.5 -135.5l-22.5 -155.5t-24.5 -150.5t-25.5 -121.5t-25 -67.5l1 1q-9 -14 -29 -14q-6 0 -10.5 1t-9.5 6q-2 1 -4.5 5t-4.5 6t-3.5 5t-1.5 8q-3 32 -4.5 52.5t-3 35.5t-3 28.5t-3 30.5t-4 42t-5.5 64
q-5 -49 -10.5 -93t-11.5 -80t-13 -61.5t-15 -36.5l1 1q-9 -14 -29 -14q-5 0 -9.5 0.5t-10.5 5.5q-12 9 -14 23l-115 703l1 -2q-4 15 5.5 27.5t23.5 14.5l-2 -1q13 3 25 -8t17 -26l82 -504q6 55 11.5 119.5t10 131t8 132.5t5.5 123q0 7 4 12q1 5 10 14l9 4l-3 -2q2 2 6 3.5
t10 1.5q2 0 8 -2q3 0 7 -2t11 -9l2 -5l-5 3q3 -2 7 -7l2 -3q2 -4 2 -6l44 -496l18.5 117.5t18 127.5l16.5 129.5l15 121.5q2 14 13 23.5t25 7.5zM251 728l-2 3l-2 4q4 -4 4 -7zM183 796q0 18 13 31t31 13t30.5 -13t12.5 -31t-12.5 -30.5t-30.5 -12.5t-31 12.5t-13 30.5z
M279 796q0 18 13 31t31 13t30.5 -13t12.5 -31t-12.5 -30.5t-30.5 -12.5t-31 12.5t-13 30.5z" />
    <glyph glyph-name="wdieresis" unicode="&#x1e85;" horiz-adv-x="554" 
d="M403 753q14 -2 22.5 -13.5t8.5 -24.5q-4 -30 -11 -90.5t-17.5 -135.5l-22.5 -155.5t-24.5 -150.5t-25.5 -121.5t-25 -67.5l1 1q-9 -14 -29 -14q-6 0 -10.5 1t-9.5 6q-2 1 -4.5 5t-4.5 6t-3.5 5t-1.5 8q-3 32 -4.5 52.5t-3 35.5t-3 28.5t-3 30.5t-4 42t-5.5 64
q-5 -49 -10.5 -93t-11.5 -80t-13 -61.5t-15 -36.5l1 1q-9 -14 -29 -14q-5 0 -9.5 0.5t-10.5 5.5q-12 9 -14 23l-115 703l1 -2q-4 15 5.5 27.5t23.5 14.5l-2 -1q13 3 25 -8t17 -26l82 -504q6 55 11.5 119.5t10 131t8 132.5t5.5 123q0 7 4 12q1 5 10 14l9 4l-3 -2q2 2 6 3.5
t10 1.5q2 0 8 -2q3 0 7 -2t11 -9l2 -5l-5 3q3 -2 7 -7l2 -3q2 -4 2 -6l44 -496l18.5 117.5t18 127.5l16.5 129.5l15 121.5q2 14 13 23.5t25 7.5zM251 728l-2 3l-2 4q4 -4 4 -7zM183 796q0 18 13 31t31 13t30.5 -13t12.5 -31t-12.5 -30.5t-30.5 -12.5t-31 12.5t-13 30.5z
M279 796q0 18 13 31t31 13t30.5 -13t12.5 -31t-12.5 -30.5t-30.5 -12.5t-31 12.5t-13 30.5z" />
    <glyph glyph-name="Ygrave" unicode="&#x1ef2;" horiz-adv-x="433" 
d="M64 726q8 -38 20.5 -75.5t27 -73t29.5 -67.5t28 -57l38 137.5l38 137.5q3 12 15.5 20t26.5 4t20.5 -16t3.5 -26l-193 -705q-3 -11 -12.5 -18t-20.5 -7l-5 1q-16 4 -23.5 16.5t-4.5 26.5l91 333l-30 54t-42 84t-42.5 104t-32.5 113l1 -1q-4 15 3.5 26t21.5 15
q15 4 27.5 -4.5t14.5 -23.5v2zM255 760q-10 0 -21 9l-90 67q-11 9 -13 22.5t6 24.5q9 13 23 15t27 -7l91 -70q11 -9 12.5 -23t-7.5 -25q-6 -8 -13 -10.5t-15 -2.5z" />
    <glyph glyph-name="Omicron" unicode="&#x39f;" horiz-adv-x="272" 
d="M272 358q1 -82 -7.5 -151t-24 -119.5t-38.5 -80t-51 -33.5h-9q-14 0 -30 7t-32.5 26.5t-32.5 53t-31 86.5q-7 26 -9 62t-2 78q0 48 2 98.5t4 92.5q3 52 3 81q0 66 20 117t55 71h-1q18 12 41 12q9 0 20 -3.5t20 -8.5q50 -31 77 -132.5t26 -256.5zM141 44q10 1 21.5 21
t20.5 59t14.5 97t4.5 137q1 80 -5 138.5t-15.5 98.5t-22 62.5t-25.5 29.5q-5 3 -11 0l1 1q-15 -9 -28 -42t-12 -87q0 -14 -0.5 -36t-2.5 -48l-4.5 -89.5t-2.5 -95.5q0 -38 2 -72t7 -54q17 -61 33 -91.5t24 -28.5h1z" />
    <glyph glyph-name="Rho" unicode="&#x3a1;" horiz-adv-x="255" 
d="M199 359q-25 -34 -56 -53t-66 -23q2 -108 3.5 -173t4.5 -81q3 -6 3 -14q0 -14 -10.5 -24.5t-24.5 -10.5q-7 0 -13.5 3.5t-12 24t-9.5 65t-7 126.5t-4.5 208.5t-1.5 311.5q0 6 3 12q0 5 7 12q10 10 25 10q43 0 75.5 -10t55.5 -25.5t38.5 -34.5t24.5 -37q11 -24 17.5 -51.5
t6.5 -56.5q0 -47 -15 -93.5t-44 -85.5zM172 614q-29 55 -98 67q0 -99 0.5 -177t1.5 -151q24 4 41 19t27 28q18 28 31 66.5t13 71.5q0 44 -16 76zM53 683l21 -2v22z" />
    <glyph glyph-name="Nu" unicode="&#x39d;" horiz-adv-x="298" 
d="M40 -20q-14 0 -24.5 10.5t-10.5 24.5q0 186 0.5 311.5t2 206.5t4 123.5t5.5 61.5q1 7 4 14t8 12q6 8 11.5 8h10.5q8 0 11 -2q9 -2 16 -13l-1 1l8 -9q7 -37 21.5 -86.5l34.5 -115.5l6 -18q11 -37 17.5 -56.5t12.5 -39.5l14 -49l23 -85q1 118 2.5 199t4.5 133.5t6.5 81
t8.5 41.5t11 15.5t13 2.5q14 0 24 -9.5t10 -25.5q0 -7 -1 -11q-2 -13 -3.5 -68t-3 -144.5t-2.5 -211t-1 -267.5q0 -5 -0.5 -7t-3.5 -6l-2.5 -5t-3.5 -5l-4 -3q-2 -2 -7 -4t-7 -2q0 -1 1 -1v-1q-1 0 -4 -0.5t-4 -0.5q-13 0 -24 11l-2 2q-3 3 -4 5q-3 4 -3.5 7t-0.5 6
q-38 154 -73.5 275l-63.5 213q-2 -91 -2.5 -213t-0.5 -271q0 -14 -10 -24.5t-24 -10.5z" />
    <glyph glyph-name="omicron" unicode="&#x3bf;" horiz-adv-x="272" 
d="M272 358q1 -82 -7.5 -151t-24 -119.5t-38.5 -80t-51 -33.5h-9q-14 0 -30 7t-32.5 26.5t-32.5 53t-31 86.5q-7 26 -9 62t-2 78q0 48 2 98.5t4 92.5q3 52 3 81q0 66 20 117t55 71h-1q18 12 41 12q9 0 20 -3.5t20 -8.5q50 -31 77 -132.5t26 -256.5zM141 44q10 1 21.5 21
t20.5 59t14.5 97t4.5 137q1 80 -5 138.5t-15.5 98.5t-22 62.5t-25.5 29.5q-5 3 -11 0l1 1q-15 -9 -28 -42t-12 -87q0 -14 -0.5 -36t-2.5 -48l-4.5 -89.5t-2.5 -95.5q0 -38 2 -72t7 -54q17 -61 33 -91.5t24 -28.5h1z" />
    <glyph glyph-name="rho" unicode="&#x3c1;" horiz-adv-x="255" 
d="M199 359q-25 -34 -56 -53t-66 -23q2 -108 3.5 -173t4.5 -81q3 -6 3 -14q0 -14 -10.5 -24.5t-24.5 -10.5q-7 0 -13.5 3.5t-12 24t-9.5 65t-7 126.5t-4.5 208.5t-1.5 311.5q0 6 3 12q0 5 7 12q10 10 25 10q43 0 75.5 -10t55.5 -25.5t38.5 -34.5t24.5 -37q11 -24 17.5 -51.5
t6.5 -56.5q0 -47 -15 -93.5t-44 -85.5zM172 614q-29 55 -98 67q0 -99 0.5 -177t1.5 -151q24 4 41 19t27 28q18 28 31 66.5t13 71.5q0 44 -16 76zM53 683l21 -2v22z" />
    <glyph glyph-name="Chi" unicode="&#x3a7;" horiz-adv-x="303" 
d="M188 367l111 -342q4 -14 -3 -26.5t-22 -17.5q-1 0 -3.5 -0.5t-4.5 -0.5q-11 0 -20.5 6.5t-12.5 19.5v-1l-81 248l-41 -124.5l-41 -123.5v1q-3 -13 -12 -19.5t-20 -6.5l-9 1q-16 6 -22.5 19t-1.5 27v-1l110 341l-110 341v-1q-5 14 -0.5 26t17.5 17q16 4 30 -2t18 -20v1
q12 -39 22 -68l19 -56.5l19 -56.5t22 -68l81 249v-1q4 14 18 20t30 2q12 -5 17 -16.5t1 -25.5z" />
    <glyph glyph-name="chi" unicode="&#x3c7;" horiz-adv-x="303" 
d="M188 367l111 -342q4 -14 -3 -26.5t-22 -17.5q-1 0 -3.5 -0.5t-4.5 -0.5q-11 0 -20.5 6.5t-12.5 19.5v-1l-81 248l-41 -124.5l-41 -123.5v1q-3 -13 -12 -19.5t-20 -6.5l-9 1q-16 6 -22.5 19t-1.5 27v-1l110 341l-110 341v-1q-5 14 -0.5 26t17.5 17q16 4 30 -2t18 -20v1
q12 -39 22 -68l19 -56.5l19 -56.5t22 -68l81 249v-1q4 14 18 20t30 2q12 -5 17 -16.5t1 -25.5z" />
    <glyph glyph-name="AE" unicode="&#xc6;" horiz-adv-x="457" 
d="M437 50q14 0 24.5 -10.5t10.5 -24.5t-10.5 -24t-24.5 -10h-180q-2 0 -1 0.5t-2 0.5q-2 -2 -5 -2.5t-9 1.5q-13 1 -21.5 12t-8.5 24q5 73 8 129.5t4 113.5q-31 0 -53 -0.5t-37.5 -0.5t-26.5 0.5t-20 2.5q-1 -25 -1.5 -50.5t-0.5 -52.5q0 -66 3 -141q0 -14 -9 -24t-23 -11
q-14 -2 -25 8.5t-12 24.5q-2 37 -2.5 76t-0.5 72q0 131 10.5 233t27.5 174.5t39 115.5t46 57q19 9 37 8q1 0 1.5 0.5t2.5 0.5h259q14 0 24.5 -10t10.5 -24t-10.5 -24.5t-24.5 -10.5h-191q39 -87 45 -290q33 3 100 3q14 0 24.5 -10t10.5 -24q0 -16 -10.5 -25.5t-24.5 -9.5
q-37 0 -61.5 -1t-38.5 -3v-30q0 -60 -2 -116.5t-7 -127.5h155zM168 682q-23 -21 -46 -108.5t-34 -241.5q20 -1 53.5 -2t80.5 -1q-1 167 -18 251.5t-36 101.5zM87 313v9.5t1 9.5q-6 1 -11 1t-8 1zM171 685h-6l3 -3z" />
    <glyph glyph-name="ae" unicode="&#xe6;" horiz-adv-x="457" 
d="M437 50q14 0 24.5 -10.5t10.5 -24.5t-10.5 -24t-24.5 -10h-180q-2 0 -1 0.5t-2 0.5q-2 -2 -5 -2.5t-9 1.5q-13 1 -21.5 12t-8.5 24q5 73 8 129.5t4 113.5q-31 0 -53 -0.5t-37.5 -0.5t-26.5 0.5t-20 2.5q-1 -25 -1.5 -50.5t-0.5 -52.5q0 -66 3 -141q0 -14 -9 -24t-23 -11
q-14 -2 -25 8.5t-12 24.5q-2 37 -2.5 76t-0.5 72q0 131 10.5 233t27.5 174.5t39 115.5t46 57q19 9 37 8q1 0 1.5 0.5t2.5 0.5h259q14 0 24.5 -10t10.5 -24t-10.5 -24.5t-24.5 -10.5h-191q39 -87 45 -290q33 3 100 3q14 0 24.5 -10t10.5 -24q0 -16 -10.5 -25.5t-24.5 -9.5
q-37 0 -61.5 -1t-38.5 -3v-30q0 -60 -2 -116.5t-7 -127.5h155zM168 682q-23 -21 -46 -108.5t-34 -241.5q20 -1 53.5 -2t80.5 -1q-1 167 -18 251.5t-36 101.5zM87 313v9.5t1 9.5q-6 1 -11 1t-8 1zM171 685h-6l3 -3z" />
    <glyph glyph-name="breve" unicode="&#x2d8;" horiz-adv-x="160" 
d="M75 754q-22 0 -45.5 12.5t-42.5 32.5q-10 12 -8.5 26t11.5 22q9 8 23 8t24 -11v1q23 -23 39 -23q20 0 46 22q11 9 25 8.5t23 -11.5q8 -11 6.5 -25.5t-10.5 -22.5q-48 -39 -91 -39z" />
    <glyph glyph-name="uni0306" unicode="&#x306;" horiz-adv-x="196" 
d="M95 754q-22 0 -45.5 12.5t-42.5 32.5q-10 12 -8.5 26t11.5 22q9 8 23 8t24 -11v1q23 -23 39 -23q20 0 46 22q11 9 25 8.5t23 -11.5q8 -11 6.5 -25.5t-10.5 -22.5q-48 -39 -91 -39z" />
    <glyph glyph-name="uni02C9" unicode="&#x2c9;" horiz-adv-x="147" 
d="M129 824q14 0 24 -10t10 -24q0 -11 -4.5 -18t-12.5 -13q-8 -4 -18 -4l-114 1q-14 0 -24 10t-10 24t10.5 24.5t24.5 10.5l114 -1v0z" />
    <glyph glyph-name="dotaccent" unicode="&#x2d9;" horiz-adv-x="62" 
d="M31 855q21 0 36 -14.5t15 -35.5t-15 -36t-36 -15q-20 0 -35 15t-15 36t15 35.5t35 14.5z" />
    <glyph glyph-name="uni0307" unicode="&#x307;" horiz-adv-x="99" 
d="M49 855q21 0 36 -14.5t15 -35.5t-15 -36t-36 -15q-20 0 -35 15t-15 36t15 35.5t35 14.5z" />
    <glyph glyph-name="ring" unicode="&#x2da;" horiz-adv-x="86" 
d="M42 880q26 0 44.5 -18.5t18.5 -44.5t-18.5 -44.5t-44.5 -18.5t-45 18.5t-19 44.5t19 44.5t45 18.5zM45 817q0 3 -3 3q-4 0 -4 -3t4 -3q3 0 3 3z" />
    <glyph glyph-name="uni030A" unicode="&#x30a;" horiz-adv-x="124" 
d="M62 880q26 0 44.5 -18.5t18.5 -44.5t-18.5 -44.5t-44.5 -18.5t-45 18.5t-19 44.5t19 44.5t45 18.5zM65 817q0 3 -3 3q-4 0 -4 -3t4 -3q3 0 3 3z" />
    <glyph glyph-name="uni0304" unicode="&#x304;" horiz-adv-x="191" 
d="M152 824q14 0 24 -10t10 -24q0 -11 -4.5 -18t-12.5 -13q-8 -4 -18 -4l-114 1q-14 0 -24 10t-10 24t10.5 24.5t24.5 10.5l114 -1v0z" />
    <glyph glyph-name="Eth" unicode="&#xd0;" horiz-adv-x="310" 
d="M247 623q22 -54 32 -118.5t10 -133.5q0 -54 -6.5 -107.5t-18.5 -100.5t-30 -85t-41 -61q-36 -36 -79 -36q-22 0 -47 12q-9 4 -13 13v-1q-4 6 -4 13q0 2 -0.5 4t-0.5 4q1 11 2 92t1 236h-28q-14 0 -24 10.5t-10 24.5t10.5 24t24.5 10h27q1 66 1 139.5v157.5q0 14 10 24
t24 10q105 0 160 -131zM55 3q0 1 -1 2zM145 66q18 18 32 49.5t23.5 72t14.5 87t5 94.5q0 62 -9 122t-27 105q-13 29 -28.5 49.5t-33.5 29.5v-252h17q14 0 24 -10.5t10 -24.5q0 -8 -4.5 -16t-11.5 -13q-5 -5 -9.5 -5h-9.5h-16v-125.5t-0.5 -86t-1 -56t-1.5 -34.5q12 1 26 14z
" />
    <glyph glyph-name="eth" unicode="&#xf0;" horiz-adv-x="310" 
d="M247 623q22 -54 32 -118.5t10 -133.5q0 -54 -6.5 -107.5t-18.5 -100.5t-30 -85t-41 -61q-36 -36 -79 -36q-22 0 -47 12q-9 4 -13 13v-1q-4 6 -4 13q0 2 -0.5 4t-0.5 4q1 11 2 92t1 236h-28q-14 0 -24 10.5t-10 24.5t10.5 24t24.5 10h27q1 66 1 139.5v157.5q0 14 10 24
t24 10q105 0 160 -131zM55 3q0 1 -1 2zM145 66q18 18 32 49.5t23.5 72t14.5 87t5 94.5q0 62 -9 122t-27 105q-13 29 -28.5 49.5t-33.5 29.5v-252h17q14 0 24 -10.5t10 -24.5q0 -8 -4.5 -16t-11.5 -13q-5 -5 -9.5 -5h-9.5h-16v-125.5t-0.5 -86t-1 -56t-1.5 -34.5q12 1 26 14z
" />
    <glyph glyph-name="Dcroat" unicode="&#x110;" horiz-adv-x="310" 
d="M247 623q22 -54 32 -118.5t10 -133.5q0 -54 -6.5 -107.5t-18.5 -100.5t-30 -85t-41 -61q-36 -36 -79 -36q-22 0 -47 12q-9 4 -13 13v-1q-4 6 -4 13q0 2 -0.5 4t-0.5 4q1 11 2 92t1 236h-28q-14 0 -24 10.5t-10 24.5t10.5 24t24.5 10h27q1 66 1 139.5v157.5q0 14 10 24
t24 10q105 0 160 -131zM55 3q0 1 -1 2zM145 66q18 18 32 49.5t23.5 72t14.5 87t5 94.5q0 62 -9 122t-27 105q-13 29 -28.5 49.5t-33.5 29.5v-252h17q14 0 24 -10.5t10 -24.5q0 -8 -4.5 -16t-11.5 -13q-5 -5 -9.5 -5h-9.5h-16v-125.5t-0.5 -86t-1 -56t-1.5 -34.5q12 1 26 14z
" />
    <glyph glyph-name="dcroat" unicode="&#x111;" horiz-adv-x="310" 
d="M247 623q22 -54 32 -118.5t10 -133.5q0 -54 -6.5 -107.5t-18.5 -100.5t-30 -85t-41 -61q-36 -36 -79 -36q-22 0 -47 12q-9 4 -13 13v-1q-4 6 -4 13q0 2 -0.5 4t-0.5 4q1 11 2 92t1 236h-28q-14 0 -24 10.5t-10 24.5t10.5 24t24.5 10h27q1 66 1 139.5v157.5q0 14 10 24
t24 10q105 0 160 -131zM55 3q0 1 -1 2zM145 66q18 18 32 49.5t23.5 72t14.5 87t5 94.5q0 62 -9 122t-27 105q-13 29 -28.5 49.5t-33.5 29.5v-252h17q14 0 24 -10.5t10 -24.5q0 -8 -4.5 -16t-11.5 -13q-5 -5 -9.5 -5h-9.5h-16v-125.5t-0.5 -86t-1 -56t-1.5 -34.5q12 1 26 14z
" />
    <glyph glyph-name="uni043B" unicode="&#x43b;" horiz-adv-x="321" 
d="M313 17q0 -14 -9.5 -24.5t-25.5 -10.5q-10 0 -16.5 3.5t-10.5 23t-6.5 62t-3.5 120.5t-1 198v296q-15 0 -27 -0.5t-23 -0.5t-23 -0.5t-28 -0.5l-11 -316q-2 -78 -6.5 -128.5t-11 -86t-16 -61.5t-21.5 -54l-8 -19l-6 -16q-11 -21 -32 -21q-5 0 -8.5 1t-6.5 3h1
q-12 5 -18 17.5t-1 26.5l8 18.5t8 17.5v-1q11 26 19 48.5t14 54t10 79t6 123.5l12 351q0 5 4 11q4 8 12 15t19 7l169 1q14 0 24 -10q2 -2 4 -7t2 -7v2v3q2 -3 3 -6.5t1 -8.5q0 -153 0.5 -278t1 -216t1 -143.5t1.5 -60.5v-5z" />
    <glyph glyph-name="Agrave" unicode="&#xc0;" 
d="M48 -17q-14 0 -24 9.5t-11 23.5q-2 36 -2.5 74.5t-0.5 71.5q0 130 10.5 231.5t28 174.5t39.5 117t45 59q15 7 33.5 6.5t31.5 -7.5q22 -15 39 -53t28.5 -96t17 -133.5t5.5 -166.5q-1 -64 -4 -135t-9 -147q-2 -14 -11.5 -23t-26.5 -9q-14 2 -22.5 13.5t-8.5 24.5
q6 73 8.5 129t3.5 113h-51.5h-37.5t-27.5 0.5t-20.5 1.5q-1 -25 -1.5 -50t-0.5 -53q0 -66 3 -141q0 -14 -10 -24.5t-24 -10.5zM218 329q-1 167 -18 252t-36 102q-23 -18 -46.5 -106t-32.5 -245q20 -2 54 -2.5t79 -0.5zM161 685l3 -2l-2 2h-1zM167 685l-3 -2q1 0 2 1z
M189 760q-10 0 -21 9l-90 67q-11 9 -13 22.5t6 24.5q9 13 23 15t27 -7l91 -70q11 -9 12.5 -23t-7.5 -25q-6 -8 -13 -10.5t-15 -2.5z" />
    <glyph glyph-name="Aacute" unicode="&#xc1;" 
d="M48 -17q-14 0 -24 9.5t-11 23.5q-2 36 -2.5 74.5t-0.5 71.5q0 130 10.5 231.5t28 174.5t39.5 117t45 59q15 7 33.5 6.5t31.5 -7.5q22 -15 39 -53t28.5 -96t17 -133.5t5.5 -166.5q-1 -64 -4 -135t-9 -147q-2 -14 -11.5 -23t-26.5 -9q-14 2 -22.5 13.5t-8.5 24.5
q6 73 8.5 129t3.5 113h-51.5h-37.5t-27.5 0.5t-20.5 1.5q-1 -25 -1.5 -50t-0.5 -53q0 -66 3 -141q0 -14 -10 -24.5t-24 -10.5zM218 329q-1 167 -18 252t-36 102q-23 -18 -46.5 -106t-32.5 -245q20 -2 54 -2.5t79 -0.5zM161 685l3 -2l-2 2h-1zM167 685l-3 -2q1 0 2 1z
M102 760q-8 0 -15 2.5t-13 10.5q-9 11 -8 25t12 23l92 70q13 8 27 6t22 -14q8 -11 6 -24.5t-13 -22.5l-91 -69q-11 -7 -19 -7z" />
    <glyph glyph-name="Acircumflex" unicode="&#xc2;" 
d="M48 -17q-14 0 -24 9.5t-11 23.5q-2 36 -2.5 74.5t-0.5 71.5q0 130 10.5 231.5t28 174.5t39.5 117t45 59q15 7 33.5 6.5t31.5 -7.5q22 -15 39 -53t28.5 -96t17 -133.5t5.5 -166.5q-1 -64 -4 -135t-9 -147q-2 -14 -11.5 -23t-26.5 -9q-14 2 -22.5 13.5t-8.5 24.5
q6 73 8.5 129t3.5 113h-51.5h-37.5t-27.5 0.5t-20.5 1.5q-1 -25 -1.5 -50t-0.5 -53q0 -66 3 -141q0 -14 -10 -24.5t-24 -10.5zM218 329q-1 167 -18 252t-36 102q-23 -18 -46.5 -106t-32.5 -245q20 -2 54 -2.5t79 -0.5zM161 685l3 -2l-2 2h-1zM167 685l-3 -2q1 0 2 1z
M161 881q8 0 12 -2q6 -2 10 -5q18 -14 36 -30t36 -30q12 -11 14 -24.5t-8 -24.5l1 1q-5 -7 -13 -10.5t-15 -3.5q-13 0 -22 6l-53 45l-62 -45q-9 -6 -20 -6q-7 0 -15 3t-13 11q-8 13 -5.5 27t13.5 22l91 64q4 0 7 1q1 0 3 0.5t3 0.5z" />
    <glyph glyph-name="Atilde" unicode="&#xc3;" 
d="M48 -17q-14 0 -24 9.5t-11 23.5q-2 36 -2.5 74.5t-0.5 71.5q0 130 10.5 231.5t28 174.5t39.5 117t45 59q15 7 33.5 6.5t31.5 -7.5q22 -15 39 -53t28.5 -96t17 -133.5t5.5 -166.5q-1 -64 -4 -135t-9 -147q-2 -14 -11.5 -23t-26.5 -9q-14 2 -22.5 13.5t-8.5 24.5
q6 73 8.5 129t3.5 113h-51.5h-37.5t-27.5 0.5t-20.5 1.5q-1 -25 -1.5 -50t-0.5 -53q0 -66 3 -141q0 -14 -10 -24.5t-24 -10.5zM218 329q-1 167 -18 252t-36 102q-23 -18 -46.5 -106t-32.5 -245q20 -2 54 -2.5t79 -0.5zM161 685l3 -2l-2 2h-1zM167 685l-3 -2q1 0 2 1z
M220 818q10 8 25 7.5t24 -10.5q9 -11 8.5 -25t-10.5 -24q-8 -6 -20.5 -12.5t-29.5 -6.5q-5 0 -11.5 1t-14.5 4q-11 3 -20 6.5t-15 5.5l-10 5h1q-16 8 -21.5 9t-9.5 -6q-8 -11 -22 -13.5t-27 5.5l2 -1q-13 8 -16 22t6 27l-1 -1q14 21 29 29t32 8q14 0 28.5 -5.5l29.5 -11.5
l3 -1l18 -7t19 -6q1 -1 2 0z" />
    <glyph glyph-name="Adieresis" unicode="&#xc4;" 
d="M48 -17q-14 0 -24 9.5t-11 23.5q-2 36 -2.5 74.5t-0.5 71.5q0 130 10.5 231.5t28 174.5t39.5 117t45 59q15 7 33.5 6.5t31.5 -7.5q22 -15 39 -53t28.5 -96t17 -133.5t5.5 -166.5q-1 -64 -4 -135t-9 -147q-2 -14 -11.5 -23t-26.5 -9q-14 2 -22.5 13.5t-8.5 24.5
q6 73 8.5 129t3.5 113h-51.5h-37.5t-27.5 0.5t-20.5 1.5q-1 -25 -1.5 -50t-0.5 -53q0 -66 3 -141q0 -14 -10 -24.5t-24 -10.5zM218 329q-1 167 -18 252t-36 102q-23 -18 -46.5 -106t-32.5 -245q20 -2 54 -2.5t79 -0.5zM161 685l3 -2l-2 2h-1zM167 685l-3 -2q1 0 2 1zM74 796
q0 18 13 31t31 13t30.5 -13t12.5 -31t-12.5 -30.5t-30.5 -12.5t-31 12.5t-13 30.5zM170 796q0 18 13 31t31 13t30.5 -13t12.5 -31t-12.5 -30.5t-30.5 -12.5t-31 12.5t-13 30.5z" />
    <glyph glyph-name="Aring" unicode="&#xc5;" 
d="M48 -17q-14 0 -24 9.5t-11 23.5q-2 36 -2.5 74.5t-0.5 71.5q0 130 10.5 231.5t28 174.5t39.5 117t45 59q15 7 33.5 6.5t31.5 -7.5q22 -15 39 -53t28.5 -96t17 -133.5t5.5 -166.5q-1 -64 -4 -135t-9 -147q-2 -14 -11.5 -23t-26.5 -9q-14 2 -22.5 13.5t-8.5 24.5
q6 73 8.5 129t3.5 113h-51.5h-37.5t-27.5 0.5t-20.5 1.5q-1 -25 -1.5 -50t-0.5 -53q0 -66 3 -141q0 -14 -10 -24.5t-24 -10.5zM218 329q-1 167 -18 252t-36 102q-23 -18 -46.5 -106t-32.5 -245q20 -2 54 -2.5t79 -0.5zM161 685l3 -2l-2 2h-1zM167 685l-3 -2q1 0 2 1z
M166 880q26 0 44.5 -18.5t18.5 -44.5t-18.5 -44.5t-44.5 -18.5t-45 18.5t-19 44.5t19 44.5t45 18.5zM169 817q0 3 -3 3q-4 0 -4 -3t4 -3q3 0 3 3z" />
    <glyph glyph-name="Egrave" unicode="&#xc8;" horiz-adv-x="235" 
d="M40 -20q-14 0 -24.5 10.5t-10.5 24.5v334q0 2 -0.5 4t1.5 6q0 88 0.5 150t1.5 104t2.5 67t3.5 38l-1 1q0 10 3.5 15t8.5 10q7 7 11.5 8t10.5 1h173q14 0 24.5 -10t10.5 -24t-10.5 -24.5t-24.5 -10.5h-141l-4 -290q33 3 99 3q14 0 24.5 -10.5t10.5 -24.5t-10.5 -24
t-24.5 -10q-35 0 -59.5 -1t-39.5 -3v-120v-39t-0.5 -36t-0.5 -37v-42h146q14 0 24.5 -10.5t10.5 -24.5t-10.5 -24.5t-24.5 -10.5h-180v0zM161 760q-10 0 -21 9l-90 67q-11 9 -13 22.5t6 24.5q9 13 23 15t27 -7l91 -70q11 -9 12.5 -23t-7.5 -25q-6 -8 -13 -10.5t-15 -2.5z
" />
    <glyph glyph-name="Eacute" unicode="&#xc9;" horiz-adv-x="235" 
d="M40 -20q-14 0 -24.5 10.5t-10.5 24.5v334q0 2 -0.5 4t1.5 6q0 88 0.5 150t1.5 104t2.5 67t3.5 38l-1 1q0 10 3.5 15t8.5 10q7 7 11.5 8t10.5 1h173q14 0 24.5 -10t10.5 -24t-10.5 -24.5t-24.5 -10.5h-141l-4 -290q33 3 99 3q14 0 24.5 -10.5t10.5 -24.5t-10.5 -24
t-24.5 -10q-35 0 -59.5 -1t-39.5 -3v-120v-39t-0.5 -36t-0.5 -37v-42h146q14 0 24.5 -10.5t10.5 -24.5t-10.5 -24.5t-24.5 -10.5h-180v0zM74 760q-8 0 -15 2.5t-13 10.5q-9 11 -8 25t12 23l92 70q13 8 27 6t22 -14q8 -11 6 -24.5t-13 -22.5l-91 -69q-11 -7 -19 -7z" />
    <glyph glyph-name="Ecircumflex" unicode="&#xca;" horiz-adv-x="235" 
d="M40 -20q-14 0 -24.5 10.5t-10.5 24.5v334q0 2 -0.5 4t1.5 6q0 88 0.5 150t1.5 104t2.5 67t3.5 38l-1 1q0 10 3.5 15t8.5 10q7 7 11.5 8t10.5 1h173q14 0 24.5 -10t10.5 -24t-10.5 -24.5t-24.5 -10.5h-141l-4 -290q33 3 99 3q14 0 24.5 -10.5t10.5 -24.5t-10.5 -24
t-24.5 -10q-35 0 -59.5 -1t-39.5 -3v-120v-39t-0.5 -36t-0.5 -37v-42h146q14 0 24.5 -10.5t10.5 -24.5t-10.5 -24.5t-24.5 -10.5h-180v0zM123 881q8 0 12 -2q6 -2 10 -5q18 -14 36 -30t36 -30q12 -11 14 -24.5t-8 -24.5l1 1q-5 -7 -13 -10.5t-15 -3.5q-13 0 -22 6l-53 45
l-62 -45q-9 -6 -20 -6q-7 0 -15 3t-13 11q-8 13 -5.5 27t13.5 22l91 64q4 0 7 1q1 0 3 0.5t3 0.5z" />
    <glyph glyph-name="Edieresis" unicode="&#xcb;" horiz-adv-x="235" 
d="M40 -20q-14 0 -24.5 10.5t-10.5 24.5v334q0 2 -0.5 4t1.5 6q0 88 0.5 150t1.5 104t2.5 67t3.5 38l-1 1q0 10 3.5 15t8.5 10q7 7 11.5 8t10.5 1h173q14 0 24.5 -10t10.5 -24t-10.5 -24.5t-24.5 -10.5h-141l-4 -290q33 3 99 3q14 0 24.5 -10.5t10.5 -24.5t-10.5 -24
t-24.5 -10q-35 0 -59.5 -1t-39.5 -3v-120v-39t-0.5 -36t-0.5 -37v-42h146q14 0 24.5 -10.5t10.5 -24.5t-10.5 -24.5t-24.5 -10.5h-180v0zM26 796q0 18 13 31t31 13t30.5 -13t12.5 -31t-12.5 -30.5t-30.5 -12.5t-31 12.5t-13 30.5zM122 796q0 18 13 31t31 13t30.5 -13
t12.5 -31t-12.5 -30.5t-30.5 -12.5t-31 12.5t-13 30.5z" />
    <glyph glyph-name="Igrave" unicode="&#xcc;" horiz-adv-x="219" 
d="M145 684q0 -267 2.5 -431t6.5 -203h43q14 0 24.5 -10.5t10.5 -24.5t-10.5 -24.5t-24.5 -10.5h-159q-14 0 -24.5 10.5t-10.5 24.5t10.5 24.5t24.5 10.5h48q-2 27 -4 74.5t-3.5 122.5t-2 182.5t-0.5 254.5h-57q-14 0 -24.5 10.5t-10.5 24.5t10.5 24t24.5 10h178
q14 0 24.5 -10t10.5 -24t-10.5 -24.5t-24.5 -10.5h-52zM153 760q-10 0 -21 9l-90 67q-11 9 -13 22.5t6 24.5q9 13 23 15t27 -7l91 -70q11 -9 12.5 -23t-7.5 -25q-6 -8 -13 -10.5t-15 -2.5z" />
    <glyph glyph-name="Iacute" unicode="&#xcd;" horiz-adv-x="219" 
d="M145 684q0 -267 2.5 -431t6.5 -203h43q14 0 24.5 -10.5t10.5 -24.5t-10.5 -24.5t-24.5 -10.5h-159q-14 0 -24.5 10.5t-10.5 24.5t10.5 24.5t24.5 10.5h48q-2 27 -4 74.5t-3.5 122.5t-2 182.5t-0.5 254.5h-57q-14 0 -24.5 10.5t-10.5 24.5t10.5 24t24.5 10h178
q14 0 24.5 -10t10.5 -24t-10.5 -24.5t-24.5 -10.5h-52zM66 760q-8 0 -15 2.5t-13 10.5q-9 11 -8 25t12 23l92 70q13 8 27 6t22 -14q8 -11 6 -24.5t-13 -22.5l-91 -69q-11 -7 -19 -7z" />
    <glyph glyph-name="Icircumflex" unicode="&#xce;" horiz-adv-x="219" 
d="M145 684q0 -267 2.5 -431t6.5 -203h43q14 0 24.5 -10.5t10.5 -24.5t-10.5 -24.5t-24.5 -10.5h-159q-14 0 -24.5 10.5t-10.5 24.5t10.5 24.5t24.5 10.5h48q-2 27 -4 74.5t-3.5 122.5t-2 182.5t-0.5 254.5h-57q-14 0 -24.5 10.5t-10.5 24.5t10.5 24t24.5 10h178
q14 0 24.5 -10t10.5 -24t-10.5 -24.5t-24.5 -10.5h-52zM115 881q8 0 12 -2q6 -2 10 -5q18 -14 36 -30t36 -30q12 -11 14 -24.5t-8 -24.5l1 1q-5 -7 -13 -10.5t-15 -3.5q-13 0 -22 6l-53 45l-62 -45q-9 -6 -20 -6q-7 0 -15 3t-13 11q-8 13 -5.5 27t13.5 22l91 64q4 0 7 1
q1 0 3 0.5t3 0.5z" />
    <glyph glyph-name="Idieresis" unicode="&#xcf;" horiz-adv-x="219" 
d="M145 684q0 -267 2.5 -431t6.5 -203h43q14 0 24.5 -10.5t10.5 -24.5t-10.5 -24.5t-24.5 -10.5h-159q-14 0 -24.5 10.5t-10.5 24.5t10.5 24.5t24.5 10.5h48q-2 27 -4 74.5t-3.5 122.5t-2 182.5t-0.5 254.5h-57q-14 0 -24.5 10.5t-10.5 24.5t10.5 24t24.5 10h178
q14 0 24.5 -10t10.5 -24t-10.5 -24.5t-24.5 -10.5h-52zM18 796q0 18 13 31t31 13t30.5 -13t12.5 -31t-12.5 -30.5t-30.5 -12.5t-31 12.5t-13 30.5zM114 796q0 18 13 31t31 13t30.5 -13t12.5 -31t-12.5 -30.5t-30.5 -12.5t-31 12.5t-13 30.5z" />
    <glyph glyph-name="Ntilde" unicode="&#xd1;" horiz-adv-x="298" 
d="M40 -20q-14 0 -24.5 10.5t-10.5 24.5q0 186 0.5 311.5t2 206.5t4 123.5t5.5 61.5q1 7 4 14t8 12q6 8 11.5 8h10.5q8 0 11 -2q9 -2 16 -13l-1 1l8 -9q7 -37 21.5 -86.5l34.5 -115.5l6 -18q11 -37 17.5 -56.5t12.5 -39.5l14 -49l23 -85q1 118 2.5 199t4.5 133.5t6.5 81
t8.5 41.5t11 15.5t13 2.5q14 0 24 -9.5t10 -25.5q0 -7 -1 -11q-2 -13 -3.5 -68t-3 -144.5t-2.5 -211t-1 -267.5q0 -5 -0.5 -7t-3.5 -6l-2.5 -5t-3.5 -5l-4 -3q-2 -2 -7 -4t-7 -2q0 -1 1 -1v-1q-1 0 -4 -0.5t-4 -0.5q-13 0 -24 11l-2 2q-3 3 -4 5q-3 4 -3.5 7t-0.5 6
q-38 154 -73.5 275l-63.5 213q-2 -91 -2.5 -213t-0.5 -271q0 -14 -10 -24.5t-24 -10.5zM204 818q10 8 25 7.5t24 -10.5q9 -11 8.5 -25t-10.5 -24q-8 -6 -20.5 -12.5t-29.5 -6.5q-5 0 -11.5 1t-14.5 4q-11 3 -20 6.5t-15 5.5l-10 5h1q-16 8 -21.5 9t-9.5 -6q-8 -11 -22 -13.5
t-27 5.5l2 -1q-13 8 -16 22t6 27l-1 -1q14 21 29 29t32 8q14 0 28.5 -5.5l29.5 -11.5l3 -1l18 -7t19 -6q1 -1 2 0z" />
    <glyph glyph-name="Ograve" unicode="&#xd2;" horiz-adv-x="272" 
d="M272 358q1 -82 -7.5 -151t-24 -119.5t-38.5 -80t-51 -33.5h-9q-14 0 -30 7t-32.5 26.5t-32.5 53t-31 86.5q-7 26 -9 62t-2 78q0 48 2 98.5t4 92.5q3 52 3 81q0 66 20 117t55 71h-1q18 12 41 12q9 0 20 -3.5t20 -8.5q50 -31 77 -132.5t26 -256.5zM141 44q10 1 21.5 21
t20.5 59t14.5 97t4.5 137q1 80 -5 138.5t-15.5 98.5t-22 62.5t-25.5 29.5q-5 3 -11 0l1 1q-15 -9 -28 -42t-12 -87q0 -14 -0.5 -36t-2.5 -48l-4.5 -89.5t-2.5 -95.5q0 -38 2 -72t7 -54q17 -61 33 -91.5t24 -28.5h1zM179 760q-10 0 -21 9l-90 67q-11 9 -13 22.5t6 24.5
q9 13 23 15t27 -7l91 -70q11 -9 12.5 -23t-7.5 -25q-6 -8 -13 -10.5t-15 -2.5z" />
    <glyph glyph-name="Oacute" unicode="&#xd3;" horiz-adv-x="272" 
d="M272 358q1 -82 -7.5 -151t-24 -119.5t-38.5 -80t-51 -33.5h-9q-14 0 -30 7t-32.5 26.5t-32.5 53t-31 86.5q-7 26 -9 62t-2 78q0 48 2 98.5t4 92.5q3 52 3 81q0 66 20 117t55 71h-1q18 12 41 12q9 0 20 -3.5t20 -8.5q50 -31 77 -132.5t26 -256.5zM141 44q10 1 21.5 21
t20.5 59t14.5 97t4.5 137q1 80 -5 138.5t-15.5 98.5t-22 62.5t-25.5 29.5q-5 3 -11 0l1 1q-15 -9 -28 -42t-12 -87q0 -14 -0.5 -36t-2.5 -48l-4.5 -89.5t-2.5 -95.5q0 -38 2 -72t7 -54q17 -61 33 -91.5t24 -28.5h1zM92 760q-8 0 -15 2.5t-13 10.5q-9 11 -8 25t12 23l92 70
q13 8 27 6t22 -14q8 -11 6 -24.5t-13 -22.5l-91 -69q-11 -7 -19 -7z" />
    <glyph glyph-name="Ocircumflex" unicode="&#xd4;" horiz-adv-x="272" 
d="M272 358q1 -82 -7.5 -151t-24 -119.5t-38.5 -80t-51 -33.5h-9q-14 0 -30 7t-32.5 26.5t-32.5 53t-31 86.5q-7 26 -9 62t-2 78q0 48 2 98.5t4 92.5q3 52 3 81q0 66 20 117t55 71h-1q18 12 41 12q9 0 20 -3.5t20 -8.5q50 -31 77 -132.5t26 -256.5zM141 44q10 1 21.5 21
t20.5 59t14.5 97t4.5 137q1 80 -5 138.5t-15.5 98.5t-22 62.5t-25.5 29.5q-5 3 -11 0l1 1q-15 -9 -28 -42t-12 -87q0 -14 -0.5 -36t-2.5 -48l-4.5 -89.5t-2.5 -95.5q0 -38 2 -72t7 -54q17 -61 33 -91.5t24 -28.5h1zM141 881q8 0 12 -2q6 -2 10 -5q18 -14 36 -30t36 -30
q12 -11 14 -24.5t-8 -24.5l1 1q-5 -7 -13 -10.5t-15 -3.5q-13 0 -22 6l-53 45l-62 -45q-9 -6 -20 -6q-7 0 -15 3t-13 11q-8 13 -5.5 27t13.5 22l91 64q4 0 7 1q1 0 3 0.5t3 0.5z" />
    <glyph glyph-name="Otilde" unicode="&#xd5;" horiz-adv-x="272" 
d="M272 358q1 -82 -7.5 -151t-24 -119.5t-38.5 -80t-51 -33.5h-9q-14 0 -30 7t-32.5 26.5t-32.5 53t-31 86.5q-7 26 -9 62t-2 78q0 48 2 98.5t4 92.5q3 52 3 81q0 66 20 117t55 71h-1q18 12 41 12q9 0 20 -3.5t20 -8.5q50 -31 77 -132.5t26 -256.5zM141 44q10 1 21.5 21
t20.5 59t14.5 97t4.5 137q1 80 -5 138.5t-15.5 98.5t-22 62.5t-25.5 29.5q-5 3 -11 0l1 1q-15 -9 -28 -42t-12 -87q0 -14 -0.5 -36t-2.5 -48l-4.5 -89.5t-2.5 -95.5q0 -38 2 -72t7 -54q17 -61 33 -91.5t24 -28.5h1zM191 818q10 8 25 7.5t24 -10.5q9 -11 8.5 -25t-10.5 -24
q-8 -6 -20.5 -12.5t-29.5 -6.5q-5 0 -11.5 1t-14.5 4q-11 3 -20 6.5t-15 5.5l-10 5h1q-16 8 -21.5 9t-9.5 -6q-8 -11 -22 -13.5t-27 5.5l2 -1q-13 8 -16 22t6 27l-1 -1q14 21 29 29t32 8q14 0 28.5 -5.5l29.5 -11.5l3 -1l18 -7t19 -6q1 -1 2 0z" />
    <glyph glyph-name="Odieresis" unicode="&#xd6;" horiz-adv-x="272" 
d="M272 358q1 -82 -7.5 -151t-24 -119.5t-38.5 -80t-51 -33.5h-9q-14 0 -30 7t-32.5 26.5t-32.5 53t-31 86.5q-7 26 -9 62t-2 78q0 48 2 98.5t4 92.5q3 52 3 81q0 66 20 117t55 71h-1q18 12 41 12q9 0 20 -3.5t20 -8.5q50 -31 77 -132.5t26 -256.5zM141 44q10 1 21.5 21
t20.5 59t14.5 97t4.5 137q1 80 -5 138.5t-15.5 98.5t-22 62.5t-25.5 29.5q-5 3 -11 0l1 1q-15 -9 -28 -42t-12 -87q0 -14 -0.5 -36t-2.5 -48l-4.5 -89.5t-2.5 -95.5q0 -38 2 -72t7 -54q17 -61 33 -91.5t24 -28.5h1zM44 796q0 18 13 31t31 13t30.5 -13t12.5 -31t-12.5 -30.5
t-30.5 -12.5t-31 12.5t-13 30.5zM140 796q0 18 13 31t31 13t30.5 -13t12.5 -31t-12.5 -30.5t-30.5 -12.5t-31 12.5t-13 30.5z" />
    <glyph glyph-name="Ugrave" unicode="&#xd9;" horiz-adv-x="301" 
d="M260 755q16 0 25.5 -10.5t9.5 -24.5v-580q-2 -45 -13 -76.5t-28 -51t-38 -28.5t-42 -9q-29 0 -57.5 15t-52.5 42t-39.5 65t-17.5 84q0 115 -0.5 209.5t-1 163t-1 109t-1.5 48.5q-1 3 -1 9q0 14 10.5 24.5t24.5 10.5q10 0 16.5 -2.5t11 -18.5t6.5 -50.5t3.5 -98t1.5 -161
v-240.5q1 -31 10.5 -56.5t23.5 -44t31 -28.5t33 -10q23 0 36.5 26t15.5 72v577q0 14 10 24.5t24 10.5zM194 760q-10 0 -21 9l-90 67q-11 9 -13 22.5t6 24.5q9 13 23 15t27 -7l91 -70q11 -9 12.5 -23t-7.5 -25q-6 -8 -13 -10.5t-15 -2.5z" />
    <glyph glyph-name="Uacute" unicode="&#xda;" horiz-adv-x="301" 
d="M260 755q16 0 25.5 -10.5t9.5 -24.5v-580q-2 -45 -13 -76.5t-28 -51t-38 -28.5t-42 -9q-29 0 -57.5 15t-52.5 42t-39.5 65t-17.5 84q0 115 -0.5 209.5t-1 163t-1 109t-1.5 48.5q-1 3 -1 9q0 14 10.5 24.5t24.5 10.5q10 0 16.5 -2.5t11 -18.5t6.5 -50.5t3.5 -98t1.5 -161
v-240.5q1 -31 10.5 -56.5t23.5 -44t31 -28.5t33 -10q23 0 36.5 26t15.5 72v577q0 14 10 24.5t24 10.5zM107 760q-8 0 -15 2.5t-13 10.5q-9 11 -8 25t12 23l92 70q13 8 27 6t22 -14q8 -11 6 -24.5t-13 -22.5l-91 -69q-11 -7 -19 -7z" />
    <glyph glyph-name="Ucircumflex" unicode="&#xdb;" horiz-adv-x="301" 
d="M260 755q16 0 25.5 -10.5t9.5 -24.5v-580q-2 -45 -13 -76.5t-28 -51t-38 -28.5t-42 -9q-29 0 -57.5 15t-52.5 42t-39.5 65t-17.5 84q0 115 -0.5 209.5t-1 163t-1 109t-1.5 48.5q-1 3 -1 9q0 14 10.5 24.5t24.5 10.5q10 0 16.5 -2.5t11 -18.5t6.5 -50.5t3.5 -98t1.5 -161
v-240.5q1 -31 10.5 -56.5t23.5 -44t31 -28.5t33 -10q23 0 36.5 26t15.5 72v577q0 14 10 24.5t24 10.5zM156 881q8 0 12 -2q6 -2 10 -5q18 -14 36 -30t36 -30q12 -11 14 -24.5t-8 -24.5l1 1q-5 -7 -13 -10.5t-15 -3.5q-13 0 -22 6l-53 45l-62 -45q-9 -6 -20 -6q-7 0 -15 3
t-13 11q-8 13 -5.5 27t13.5 22l91 64q4 0 7 1q1 0 3 0.5t3 0.5z" />
    <glyph glyph-name="Udieresis" unicode="&#xdc;" horiz-adv-x="301" 
d="M260 755q16 0 25.5 -10.5t9.5 -24.5v-580q-2 -45 -13 -76.5t-28 -51t-38 -28.5t-42 -9q-29 0 -57.5 15t-52.5 42t-39.5 65t-17.5 84q0 115 -0.5 209.5t-1 163t-1 109t-1.5 48.5q-1 3 -1 9q0 14 10.5 24.5t24.5 10.5q10 0 16.5 -2.5t11 -18.5t6.5 -50.5t3.5 -98t1.5 -161
v-240.5q1 -31 10.5 -56.5t23.5 -44t31 -28.5t33 -10q23 0 36.5 26t15.5 72v577q0 14 10 24.5t24 10.5zM59 796q0 18 13 31t31 13t30.5 -13t12.5 -31t-12.5 -30.5t-30.5 -12.5t-31 12.5t-13 30.5zM155 796q0 18 13 31t31 13t30.5 -13t12.5 -31t-12.5 -30.5t-30.5 -12.5
t-31 12.5t-13 30.5z" />
    <glyph glyph-name="Yacute" unicode="&#xdd;" horiz-adv-x="298" 
d="M64 726q8 -38 20.5 -75.5t27 -73t29.5 -67.5t28 -57l38 137.5l38 137.5q3 12 15.5 20t26.5 4t20.5 -16t3.5 -26l-193 -705q-3 -11 -12.5 -18t-20.5 -7l-5 1q-16 4 -23.5 16.5t-4.5 26.5l91 333l-30 54t-42 84t-42.5 104t-32.5 113l1 -1q-4 15 3.5 26t21.5 15
q15 4 27.5 -4.5t14.5 -23.5v2zM105 760q-8 0 -15 2.5t-13 10.5q-9 11 -8 25t12 23l92 70q13 8 27 6t22 -14q8 -11 6 -24.5t-13 -22.5l-91 -69q-11 -7 -19 -7z" />
    <glyph glyph-name="ydieresis" unicode="&#xff;" horiz-adv-x="298" 
d="M64 726q8 -38 20.5 -75.5t27 -73t29.5 -67.5t28 -57l38 137.5l38 137.5q3 12 15.5 20t26.5 4t20.5 -16t3.5 -26l-193 -705q-3 -11 -12.5 -18t-20.5 -7l-5 1q-16 4 -23.5 16.5t-4.5 26.5l91 333l-30 54t-42 84t-42.5 104t-32.5 113l1 -1q-4 15 3.5 26t21.5 15
q15 4 27.5 -4.5t14.5 -23.5v2zM57 796q0 18 13 31t31 13t30.5 -13t12.5 -31t-12.5 -30.5t-30.5 -12.5t-31 12.5t-13 30.5zM153 796q0 18 13 31t31 13t30.5 -13t12.5 -31t-12.5 -30.5t-30.5 -12.5t-31 12.5t-13 30.5z" />
    <glyph glyph-name="yacute" unicode="&#xfd;" horiz-adv-x="298" 
d="M64 726q8 -38 20.5 -75.5t27 -73t29.5 -67.5t28 -57l38 137.5l38 137.5q3 12 15.5 20t26.5 4t20.5 -16t3.5 -26l-193 -705q-3 -11 -12.5 -18t-20.5 -7l-5 1q-16 4 -23.5 16.5t-4.5 26.5l91 333l-30 54t-42 84t-42.5 104t-32.5 113l1 -1q-4 15 3.5 26t21.5 15
q15 4 27.5 -4.5t14.5 -23.5v2zM105 760q-8 0 -15 2.5t-13 10.5q-9 11 -8 25t12 23l92 70q13 8 27 6t22 -14q8 -11 6 -24.5t-13 -22.5l-91 -69q-11 -7 -19 -7z" />
    <glyph glyph-name="udieresis" unicode="&#xfc;" horiz-adv-x="301" 
d="M260 755q16 0 25.5 -10.5t9.5 -24.5v-580q-2 -45 -13 -76.5t-28 -51t-38 -28.5t-42 -9q-29 0 -57.5 15t-52.5 42t-39.5 65t-17.5 84q0 115 -0.5 209.5t-1 163t-1 109t-1.5 48.5q-1 3 -1 9q0 14 10.5 24.5t24.5 10.5q10 0 16.5 -2.5t11 -18.5t6.5 -50.5t3.5 -98t1.5 -161
v-240.5q1 -31 10.5 -56.5t23.5 -44t31 -28.5t33 -10q23 0 36.5 26t15.5 72v577q0 14 10 24.5t24 10.5zM59 796q0 18 13 31t31 13t30.5 -13t12.5 -31t-12.5 -30.5t-30.5 -12.5t-31 12.5t-13 30.5zM155 796q0 18 13 31t31 13t30.5 -13t12.5 -31t-12.5 -30.5t-30.5 -12.5
t-31 12.5t-13 30.5z" />
    <glyph glyph-name="ucircumflex" unicode="&#xfb;" horiz-adv-x="301" 
d="M260 755q16 0 25.5 -10.5t9.5 -24.5v-580q-2 -45 -13 -76.5t-28 -51t-38 -28.5t-42 -9q-29 0 -57.5 15t-52.5 42t-39.5 65t-17.5 84q0 115 -0.5 209.5t-1 163t-1 109t-1.5 48.5q-1 3 -1 9q0 14 10.5 24.5t24.5 10.5q10 0 16.5 -2.5t11 -18.5t6.5 -50.5t3.5 -98t1.5 -161
v-240.5q1 -31 10.5 -56.5t23.5 -44t31 -28.5t33 -10q23 0 36.5 26t15.5 72v577q0 14 10 24.5t24 10.5zM156 881q8 0 12 -2q6 -2 10 -5q18 -14 36 -30t36 -30q12 -11 14 -24.5t-8 -24.5l1 1q-5 -7 -13 -10.5t-15 -3.5q-13 0 -22 6l-53 45l-62 -45q-9 -6 -20 -6q-7 0 -15 3
t-13 11q-8 13 -5.5 27t13.5 22l91 64q4 0 7 1q1 0 3 0.5t3 0.5z" />
    <glyph glyph-name="uacute" unicode="&#xfa;" horiz-adv-x="301" 
d="M260 755q16 0 25.5 -10.5t9.5 -24.5v-580q-2 -45 -13 -76.5t-28 -51t-38 -28.5t-42 -9q-29 0 -57.5 15t-52.5 42t-39.5 65t-17.5 84q0 115 -0.5 209.5t-1 163t-1 109t-1.5 48.5q-1 3 -1 9q0 14 10.5 24.5t24.5 10.5q10 0 16.5 -2.5t11 -18.5t6.5 -50.5t3.5 -98t1.5 -161
v-240.5q1 -31 10.5 -56.5t23.5 -44t31 -28.5t33 -10q23 0 36.5 26t15.5 72v577q0 14 10 24.5t24 10.5zM107 760q-8 0 -15 2.5t-13 10.5q-9 11 -8 25t12 23l92 70q13 8 27 6t22 -14q8 -11 6 -24.5t-13 -22.5l-91 -69q-11 -7 -19 -7z" />
    <glyph glyph-name="ugrave" unicode="&#xf9;" horiz-adv-x="301" 
d="M260 755q16 0 25.5 -10.5t9.5 -24.5v-580q-2 -45 -13 -76.5t-28 -51t-38 -28.5t-42 -9q-29 0 -57.5 15t-52.5 42t-39.5 65t-17.5 84q0 115 -0.5 209.5t-1 163t-1 109t-1.5 48.5q-1 3 -1 9q0 14 10.5 24.5t24.5 10.5q10 0 16.5 -2.5t11 -18.5t6.5 -50.5t3.5 -98t1.5 -161
v-240.5q1 -31 10.5 -56.5t23.5 -44t31 -28.5t33 -10q23 0 36.5 26t15.5 72v577q0 14 10 24.5t24 10.5zM194 760q-10 0 -21 9l-90 67q-11 9 -13 22.5t6 24.5q9 13 23 15t27 -7l91 -70q11 -9 12.5 -23t-7.5 -25q-6 -8 -13 -10.5t-15 -2.5z" />
    <glyph glyph-name="oslash" unicode="&#xf8;" horiz-adv-x="300" 
d="M293 358q1 -82 -7.5 -151t-24 -119.5t-38.5 -80t-51 -33.5h-9q-14 0 -30 7t-32.5 26.5t-32.5 53t-31 86.5q-7 26 -9 62t-2 78q0 48 2 98.5t4 92.5q3 52 3 81q0 66 20 117t55 71h-1q18 12 41 12q9 0 20 -3.5t20 -8.5q50 -31 77 -132.5t26 -256.5zM162 44q10 1 21.5 21
t20.5 59t14.5 97t4.5 137q1 80 -5 138.5t-15.5 98.5t-22 62.5t-25.5 29.5q-5 3 -11 0l1 1q-15 -9 -28 -42t-12 -87q0 -14 -0.5 -36t-2.5 -48l-4.5 -89.5t-2.5 -95.5q0 -38 2 -72t7 -54q17 -61 33 -91.5t24 -28.5h1zM282 752q14 -5 20 -18t1 -27v1l-240 -707q-11 -21 -32 -21
l-9 1q-16 6 -22.5 19t-1.5 27v-1l239 705q5 13 17 19t26 2h2z" />
    <glyph glyph-name="odieresis" unicode="&#xf6;" horiz-adv-x="272" 
d="M272 358q1 -82 -7.5 -151t-24 -119.5t-38.5 -80t-51 -33.5h-9q-14 0 -30 7t-32.5 26.5t-32.5 53t-31 86.5q-7 26 -9 62t-2 78q0 48 2 98.5t4 92.5q3 52 3 81q0 66 20 117t55 71h-1q18 12 41 12q9 0 20 -3.5t20 -8.5q50 -31 77 -132.5t26 -256.5zM141 44q10 1 21.5 21
t20.5 59t14.5 97t4.5 137q1 80 -5 138.5t-15.5 98.5t-22 62.5t-25.5 29.5q-5 3 -11 0l1 1q-15 -9 -28 -42t-12 -87q0 -14 -0.5 -36t-2.5 -48l-4.5 -89.5t-2.5 -95.5q0 -38 2 -72t7 -54q17 -61 33 -91.5t24 -28.5h1zM44 796q0 18 13 31t31 13t30.5 -13t12.5 -31t-12.5 -30.5
t-30.5 -12.5t-31 12.5t-13 30.5zM140 796q0 18 13 31t31 13t30.5 -13t12.5 -31t-12.5 -30.5t-30.5 -12.5t-31 12.5t-13 30.5z" />
    <glyph glyph-name="otilde" unicode="&#xf5;" horiz-adv-x="272" 
d="M272 358q1 -82 -7.5 -151t-24 -119.5t-38.5 -80t-51 -33.5h-9q-14 0 -30 7t-32.5 26.5t-32.5 53t-31 86.5q-7 26 -9 62t-2 78q0 48 2 98.5t4 92.5q3 52 3 81q0 66 20 117t55 71h-1q18 12 41 12q9 0 20 -3.5t20 -8.5q50 -31 77 -132.5t26 -256.5zM141 44q10 1 21.5 21
t20.5 59t14.5 97t4.5 137q1 80 -5 138.5t-15.5 98.5t-22 62.5t-25.5 29.5q-5 3 -11 0l1 1q-15 -9 -28 -42t-12 -87q0 -14 -0.5 -36t-2.5 -48l-4.5 -89.5t-2.5 -95.5q0 -38 2 -72t7 -54q17 -61 33 -91.5t24 -28.5h1zM191 818q10 8 25 7.5t24 -10.5q9 -11 8.5 -25t-10.5 -24
q-8 -6 -20.5 -12.5t-29.5 -6.5q-5 0 -11.5 1t-14.5 4q-11 3 -20 6.5t-15 5.5l-10 5h1q-16 8 -21.5 9t-9.5 -6q-8 -11 -22 -13.5t-27 5.5l2 -1q-13 8 -16 22t6 27l-1 -1q14 21 29 29t32 8q14 0 28.5 -5.5l29.5 -11.5l3 -1l18 -7t19 -6q1 -1 2 0z" />
    <glyph glyph-name="ocircumflex" unicode="&#xf4;" horiz-adv-x="272" 
d="M272 358q1 -82 -7.5 -151t-24 -119.5t-38.5 -80t-51 -33.5h-9q-14 0 -30 7t-32.5 26.5t-32.5 53t-31 86.5q-7 26 -9 62t-2 78q0 48 2 98.5t4 92.5q3 52 3 81q0 66 20 117t55 71h-1q18 12 41 12q9 0 20 -3.5t20 -8.5q50 -31 77 -132.5t26 -256.5zM141 44q10 1 21.5 21
t20.5 59t14.5 97t4.5 137q1 80 -5 138.5t-15.5 98.5t-22 62.5t-25.5 29.5q-5 3 -11 0l1 1q-15 -9 -28 -42t-12 -87q0 -14 -0.5 -36t-2.5 -48l-4.5 -89.5t-2.5 -95.5q0 -38 2 -72t7 -54q17 -61 33 -91.5t24 -28.5h1zM141 881q8 0 12 -2q6 -2 10 -5q18 -14 36 -30t36 -30
q12 -11 14 -24.5t-8 -24.5l1 1q-5 -7 -13 -10.5t-15 -3.5q-13 0 -22 6l-53 45l-62 -45q-9 -6 -20 -6q-7 0 -15 3t-13 11q-8 13 -5.5 27t13.5 22l91 64q4 0 7 1q1 0 3 0.5t3 0.5z" />
    <glyph glyph-name="oacute" unicode="&#xf3;" horiz-adv-x="272" 
d="M272 358q1 -82 -7.5 -151t-24 -119.5t-38.5 -80t-51 -33.5h-9q-14 0 -30 7t-32.5 26.5t-32.5 53t-31 86.5q-7 26 -9 62t-2 78q0 48 2 98.5t4 92.5q3 52 3 81q0 66 20 117t55 71h-1q18 12 41 12q9 0 20 -3.5t20 -8.5q50 -31 77 -132.5t26 -256.5zM141 44q10 1 21.5 21
t20.5 59t14.5 97t4.5 137q1 80 -5 138.5t-15.5 98.5t-22 62.5t-25.5 29.5q-5 3 -11 0l1 1q-15 -9 -28 -42t-12 -87q0 -14 -0.5 -36t-2.5 -48l-4.5 -89.5t-2.5 -95.5q0 -38 2 -72t7 -54q17 -61 33 -91.5t24 -28.5h1zM92 760q-8 0 -15 2.5t-13 10.5q-9 11 -8 25t12 23l92 70
q13 8 27 6t22 -14q8 -11 6 -24.5t-13 -22.5l-91 -69q-11 -7 -19 -7z" />
    <glyph glyph-name="ograve" unicode="&#xf2;" horiz-adv-x="272" 
d="M272 358q1 -82 -7.5 -151t-24 -119.5t-38.5 -80t-51 -33.5h-9q-14 0 -30 7t-32.5 26.5t-32.5 53t-31 86.5q-7 26 -9 62t-2 78q0 48 2 98.5t4 92.5q3 52 3 81q0 66 20 117t55 71h-1q18 12 41 12q9 0 20 -3.5t20 -8.5q50 -31 77 -132.5t26 -256.5zM141 44q10 1 21.5 21
t20.5 59t14.5 97t4.5 137q1 80 -5 138.5t-15.5 98.5t-22 62.5t-25.5 29.5q-5 3 -11 0l1 1q-15 -9 -28 -42t-12 -87q0 -14 -0.5 -36t-2.5 -48l-4.5 -89.5t-2.5 -95.5q0 -38 2 -72t7 -54q17 -61 33 -91.5t24 -28.5h1zM179 760q-10 0 -21 9l-90 67q-11 9 -13 22.5t6 24.5
q9 13 23 15t27 -7l91 -70q11 -9 12.5 -23t-7.5 -25q-6 -8 -13 -10.5t-15 -2.5z" />
    <glyph glyph-name="ntilde" unicode="&#xf1;" horiz-adv-x="298" 
d="M40 -20q-14 0 -24.5 10.5t-10.5 24.5q0 186 0.5 311.5t2 206.5t4 123.5t5.5 61.5q1 7 4 14t8 12q6 8 11.5 8h10.5q8 0 11 -2q9 -2 16 -13l-1 1l8 -9q7 -37 21.5 -86.5l34.5 -115.5l6 -18q11 -37 17.5 -56.5t12.5 -39.5l14 -49l23 -85q1 118 2.5 199t4.5 133.5t6.5 81
t8.5 41.5t11 15.5t13 2.5q14 0 24 -9.5t10 -25.5q0 -7 -1 -11q-2 -13 -3.5 -68t-3 -144.5t-2.5 -211t-1 -267.5q0 -5 -0.5 -7t-3.5 -6l-2.5 -5t-3.5 -5l-4 -3q-2 -2 -7 -4t-7 -2q0 -1 1 -1v-1q-1 0 -4 -0.5t-4 -0.5q-13 0 -24 11l-2 2q-3 3 -4 5q-3 4 -3.5 7t-0.5 6
q-38 154 -73.5 275l-63.5 213q-2 -91 -2.5 -213t-0.5 -271q0 -14 -10 -24.5t-24 -10.5zM204 818q10 8 25 7.5t24 -10.5q9 -11 8.5 -25t-10.5 -24q-8 -6 -20.5 -12.5t-29.5 -6.5q-5 0 -11.5 1t-14.5 4q-11 3 -20 6.5t-15 5.5l-10 5h1q-16 8 -21.5 9t-9.5 -6q-8 -11 -22 -13.5
t-27 5.5l2 -1q-13 8 -16 22t6 27l-1 -1q14 21 29 29t32 8q14 0 28.5 -5.5l29.5 -11.5l3 -1l18 -7t19 -6q1 -1 2 0z" />
    <glyph glyph-name="idieresis" unicode="&#xef;" horiz-adv-x="219" 
d="M145 684q0 -267 2.5 -431t6.5 -203h43q14 0 24.5 -10.5t10.5 -24.5t-10.5 -24.5t-24.5 -10.5h-159q-14 0 -24.5 10.5t-10.5 24.5t10.5 24.5t24.5 10.5h48q-2 27 -4 74.5t-3.5 122.5t-2 182.5t-0.5 254.5h-57q-14 0 -24.5 10.5t-10.5 24.5t10.5 24t24.5 10h178
q14 0 24.5 -10t10.5 -24t-10.5 -24.5t-24.5 -10.5h-52zM18 796q0 18 13 31t31 13t30.5 -13t12.5 -31t-12.5 -30.5t-30.5 -12.5t-31 12.5t-13 30.5zM114 796q0 18 13 31t31 13t30.5 -13t12.5 -31t-12.5 -30.5t-30.5 -12.5t-31 12.5t-13 30.5z" />
    <glyph glyph-name="icircumflex" unicode="&#xee;" horiz-adv-x="219" 
d="M145 684q0 -267 2.5 -431t6.5 -203h43q14 0 24.5 -10.5t10.5 -24.5t-10.5 -24.5t-24.5 -10.5h-159q-14 0 -24.5 10.5t-10.5 24.5t10.5 24.5t24.5 10.5h48q-2 27 -4 74.5t-3.5 122.5t-2 182.5t-0.5 254.5h-57q-14 0 -24.5 10.5t-10.5 24.5t10.5 24t24.5 10h178
q14 0 24.5 -10t10.5 -24t-10.5 -24.5t-24.5 -10.5h-52zM115 881q8 0 12 -2q6 -2 10 -5q18 -14 36 -30t36 -30q12 -11 14 -24.5t-8 -24.5l1 1q-5 -7 -13 -10.5t-15 -3.5q-13 0 -22 6l-53 45l-62 -45q-9 -6 -20 -6q-7 0 -15 3t-13 11q-8 13 -5.5 27t13.5 22l91 64q4 0 7 1
q1 0 3 0.5t3 0.5z" />
    <glyph glyph-name="iacute" unicode="&#xed;" horiz-adv-x="219" 
d="M145 684q0 -267 2.5 -431t6.5 -203h43q14 0 24.5 -10.5t10.5 -24.5t-10.5 -24.5t-24.5 -10.5h-159q-14 0 -24.5 10.5t-10.5 24.5t10.5 24.5t24.5 10.5h48q-2 27 -4 74.5t-3.5 122.5t-2 182.5t-0.5 254.5h-57q-14 0 -24.5 10.5t-10.5 24.5t10.5 24t24.5 10h178
q14 0 24.5 -10t10.5 -24t-10.5 -24.5t-24.5 -10.5h-52zM66 760q-8 0 -15 2.5t-13 10.5q-9 11 -8 25t12 23l92 70q13 8 27 6t22 -14q8 -11 6 -24.5t-13 -22.5l-91 -69q-11 -7 -19 -7z" />
    <glyph glyph-name="igrave" unicode="&#xec;" horiz-adv-x="219" 
d="M145 684q0 -267 2.5 -431t6.5 -203h43q14 0 24.5 -10.5t10.5 -24.5t-10.5 -24.5t-24.5 -10.5h-159q-14 0 -24.5 10.5t-10.5 24.5t10.5 24.5t24.5 10.5h48q-2 27 -4 74.5t-3.5 122.5t-2 182.5t-0.5 254.5h-57q-14 0 -24.5 10.5t-10.5 24.5t10.5 24t24.5 10h178
q14 0 24.5 -10t10.5 -24t-10.5 -24.5t-24.5 -10.5h-52zM153 760q-10 0 -21 9l-90 67q-11 9 -13 22.5t6 24.5q9 13 23 15t27 -7l91 -70q11 -9 12.5 -23t-7.5 -25q-6 -8 -13 -10.5t-15 -2.5z" />
    <glyph glyph-name="edieresis" unicode="&#xeb;" horiz-adv-x="235" 
d="M40 -20q-14 0 -24.5 10.5t-10.5 24.5v334q0 2 -0.5 4t1.5 6q0 88 0.5 150t1.5 104t2.5 67t3.5 38l-1 1q0 10 3.5 15t8.5 10q7 7 11.5 8t10.5 1h173q14 0 24.5 -10t10.5 -24t-10.5 -24.5t-24.5 -10.5h-141l-4 -290q33 3 99 3q14 0 24.5 -10.5t10.5 -24.5t-10.5 -24
t-24.5 -10q-35 0 -59.5 -1t-39.5 -3v-120v-39t-0.5 -36t-0.5 -37v-42h146q14 0 24.5 -10.5t10.5 -24.5t-10.5 -24.5t-24.5 -10.5h-180v0zM26 796q0 18 13 31t31 13t30.5 -13t12.5 -31t-12.5 -30.5t-30.5 -12.5t-31 12.5t-13 30.5zM122 796q0 18 13 31t31 13t30.5 -13
t12.5 -31t-12.5 -30.5t-30.5 -12.5t-31 12.5t-13 30.5z" />
    <glyph glyph-name="ecircumflex" unicode="&#xea;" horiz-adv-x="235" 
d="M40 -20q-14 0 -24.5 10.5t-10.5 24.5v334q0 2 -0.5 4t1.5 6q0 88 0.5 150t1.5 104t2.5 67t3.5 38l-1 1q0 10 3.5 15t8.5 10q7 7 11.5 8t10.5 1h173q14 0 24.5 -10t10.5 -24t-10.5 -24.5t-24.5 -10.5h-141l-4 -290q33 3 99 3q14 0 24.5 -10.5t10.5 -24.5t-10.5 -24
t-24.5 -10q-35 0 -59.5 -1t-39.5 -3v-120v-39t-0.5 -36t-0.5 -37v-42h146q14 0 24.5 -10.5t10.5 -24.5t-10.5 -24.5t-24.5 -10.5h-180v0zM123 881q8 0 12 -2q6 -2 10 -5q18 -14 36 -30t36 -30q12 -11 14 -24.5t-8 -24.5l1 1q-5 -7 -13 -10.5t-15 -3.5q-13 0 -22 6l-53 45
l-62 -45q-9 -6 -20 -6q-7 0 -15 3t-13 11q-8 13 -5.5 27t13.5 22l91 64q4 0 7 1q1 0 3 0.5t3 0.5z" />
    <glyph glyph-name="eacute" unicode="&#xe9;" horiz-adv-x="235" 
d="M40 -20q-14 0 -24.5 10.5t-10.5 24.5v334q0 2 -0.5 4t1.5 6q0 88 0.5 150t1.5 104t2.5 67t3.5 38l-1 1q0 10 3.5 15t8.5 10q7 7 11.5 8t10.5 1h173q14 0 24.5 -10t10.5 -24t-10.5 -24.5t-24.5 -10.5h-141l-4 -290q33 3 99 3q14 0 24.5 -10.5t10.5 -24.5t-10.5 -24
t-24.5 -10q-35 0 -59.5 -1t-39.5 -3v-120v-39t-0.5 -36t-0.5 -37v-42h146q14 0 24.5 -10.5t10.5 -24.5t-10.5 -24.5t-24.5 -10.5h-180v0zM74 760q-8 0 -15 2.5t-13 10.5q-9 11 -8 25t12 23l92 70q13 8 27 6t22 -14q8 -11 6 -24.5t-13 -22.5l-91 -69q-11 -7 -19 -7z" />
    <glyph glyph-name="egrave" unicode="&#xe8;" horiz-adv-x="235" 
d="M40 -20q-14 0 -24.5 10.5t-10.5 24.5v334q0 2 -0.5 4t1.5 6q0 88 0.5 150t1.5 104t2.5 67t3.5 38l-1 1q0 10 3.5 15t8.5 10q7 7 11.5 8t10.5 1h173q14 0 24.5 -10t10.5 -24t-10.5 -24.5t-24.5 -10.5h-141l-4 -290q33 3 99 3q14 0 24.5 -10.5t10.5 -24.5t-10.5 -24
t-24.5 -10q-35 0 -59.5 -1t-39.5 -3v-120v-39t-0.5 -36t-0.5 -37v-42h146q14 0 24.5 -10.5t10.5 -24.5t-10.5 -24.5t-24.5 -10.5h-180v0zM161 760q-10 0 -21 9l-90 67q-11 9 -13 22.5t6 24.5q9 13 23 15t27 -7l91 -70q11 -9 12.5 -23t-7.5 -25q-6 -8 -13 -10.5t-15 -2.5z
" />
    <glyph glyph-name="agrave" unicode="&#xe0;" 
d="M48 -17q-14 0 -24 9.5t-11 23.5q-2 36 -2.5 74.5t-0.5 71.5q0 130 10.5 231.5t28 174.5t39.5 117t45 59q15 7 33.5 6.5t31.5 -7.5q22 -15 39 -53t28.5 -96t17 -133.5t5.5 -166.5q-1 -64 -4 -135t-9 -147q-2 -14 -11.5 -23t-26.5 -9q-14 2 -22.5 13.5t-8.5 24.5
q6 73 8.5 129t3.5 113h-51.5h-37.5t-27.5 0.5t-20.5 1.5q-1 -25 -1.5 -50t-0.5 -53q0 -66 3 -141q0 -14 -10 -24.5t-24 -10.5zM218 329q-1 167 -18 252t-36 102q-23 -18 -46.5 -106t-32.5 -245q20 -2 54 -2.5t79 -0.5zM161 685l3 -2l-2 2h-1zM167 685l-3 -2q1 0 2 1z
M189 760q-10 0 -21 9l-90 67q-11 9 -13 22.5t6 24.5q9 13 23 15t27 -7l91 -70q11 -9 12.5 -23t-7.5 -25q-6 -8 -13 -10.5t-15 -2.5z" />
    <glyph glyph-name="aacute" unicode="&#xe1;" 
d="M48 -17q-14 0 -24 9.5t-11 23.5q-2 36 -2.5 74.5t-0.5 71.5q0 130 10.5 231.5t28 174.5t39.5 117t45 59q15 7 33.5 6.5t31.5 -7.5q22 -15 39 -53t28.5 -96t17 -133.5t5.5 -166.5q-1 -64 -4 -135t-9 -147q-2 -14 -11.5 -23t-26.5 -9q-14 2 -22.5 13.5t-8.5 24.5
q6 73 8.5 129t3.5 113h-51.5h-37.5t-27.5 0.5t-20.5 1.5q-1 -25 -1.5 -50t-0.5 -53q0 -66 3 -141q0 -14 -10 -24.5t-24 -10.5zM218 329q-1 167 -18 252t-36 102q-23 -18 -46.5 -106t-32.5 -245q20 -2 54 -2.5t79 -0.5zM161 685l3 -2l-2 2h-1zM167 685l-3 -2q1 0 2 1z
M102 760q-8 0 -15 2.5t-13 10.5q-9 11 -8 25t12 23l92 70q13 8 27 6t22 -14q8 -11 6 -24.5t-13 -22.5l-91 -69q-11 -7 -19 -7z" />
    <glyph glyph-name="acircumflex" unicode="&#xe2;" 
d="M48 -17q-14 0 -24 9.5t-11 23.5q-2 36 -2.5 74.5t-0.5 71.5q0 130 10.5 231.5t28 174.5t39.5 117t45 59q15 7 33.5 6.5t31.5 -7.5q22 -15 39 -53t28.5 -96t17 -133.5t5.5 -166.5q-1 -64 -4 -135t-9 -147q-2 -14 -11.5 -23t-26.5 -9q-14 2 -22.5 13.5t-8.5 24.5
q6 73 8.5 129t3.5 113h-51.5h-37.5t-27.5 0.5t-20.5 1.5q-1 -25 -1.5 -50t-0.5 -53q0 -66 3 -141q0 -14 -10 -24.5t-24 -10.5zM218 329q-1 167 -18 252t-36 102q-23 -18 -46.5 -106t-32.5 -245q20 -2 54 -2.5t79 -0.5zM161 685l3 -2l-2 2h-1zM167 685l-3 -2q1 0 2 1z
M161 881q8 0 12 -2q6 -2 10 -5q18 -14 36 -30t36 -30q12 -11 14 -24.5t-8 -24.5l1 1q-5 -7 -13 -10.5t-15 -3.5q-13 0 -22 6l-53 45l-62 -45q-9 -6 -20 -6q-7 0 -15 3t-13 11q-8 13 -5.5 27t13.5 22l91 64q4 0 7 1q1 0 3 0.5t3 0.5z" />
    <glyph glyph-name="atilde" unicode="&#xe3;" 
d="M48 -17q-14 0 -24 9.5t-11 23.5q-2 36 -2.5 74.5t-0.5 71.5q0 130 10.5 231.5t28 174.5t39.5 117t45 59q15 7 33.5 6.5t31.5 -7.5q22 -15 39 -53t28.5 -96t17 -133.5t5.5 -166.5q-1 -64 -4 -135t-9 -147q-2 -14 -11.5 -23t-26.5 -9q-14 2 -22.5 13.5t-8.5 24.5
q6 73 8.5 129t3.5 113h-51.5h-37.5t-27.5 0.5t-20.5 1.5q-1 -25 -1.5 -50t-0.5 -53q0 -66 3 -141q0 -14 -10 -24.5t-24 -10.5zM218 329q-1 167 -18 252t-36 102q-23 -18 -46.5 -106t-32.5 -245q20 -2 54 -2.5t79 -0.5zM161 685l3 -2l-2 2h-1zM167 685l-3 -2q1 0 2 1z
M220 818q10 8 25 7.5t24 -10.5q9 -11 8.5 -25t-10.5 -24q-8 -6 -20.5 -12.5t-29.5 -6.5q-5 0 -11.5 1t-14.5 4q-11 3 -20 6.5t-15 5.5l-10 5h1q-16 8 -21.5 9t-9.5 -6q-8 -11 -22 -13.5t-27 5.5l2 -1q-13 8 -16 22t6 27l-1 -1q14 21 29 29t32 8q14 0 28.5 -5.5l29.5 -11.5
l3 -1l18 -7t19 -6q1 -1 2 0z" />
    <glyph glyph-name="adieresis" unicode="&#xe4;" 
d="M48 -17q-14 0 -24 9.5t-11 23.5q-2 36 -2.5 74.5t-0.5 71.5q0 130 10.5 231.5t28 174.5t39.5 117t45 59q15 7 33.5 6.5t31.5 -7.5q22 -15 39 -53t28.5 -96t17 -133.5t5.5 -166.5q-1 -64 -4 -135t-9 -147q-2 -14 -11.5 -23t-26.5 -9q-14 2 -22.5 13.5t-8.5 24.5
q6 73 8.5 129t3.5 113h-51.5h-37.5t-27.5 0.5t-20.5 1.5q-1 -25 -1.5 -50t-0.5 -53q0 -66 3 -141q0 -14 -10 -24.5t-24 -10.5zM218 329q-1 167 -18 252t-36 102q-23 -18 -46.5 -106t-32.5 -245q20 -2 54 -2.5t79 -0.5zM161 685l3 -2l-2 2h-1zM167 685l-3 -2q1 0 2 1zM74 796
q0 18 13 31t31 13t30.5 -13t12.5 -31t-12.5 -30.5t-30.5 -12.5t-31 12.5t-13 30.5zM170 796q0 18 13 31t31 13t30.5 -13t12.5 -31t-12.5 -30.5t-30.5 -12.5t-31 12.5t-13 30.5z" />
    <glyph glyph-name="aring" unicode="&#xe5;" 
d="M48 -17q-14 0 -24 9.5t-11 23.5q-2 36 -2.5 74.5t-0.5 71.5q0 130 10.5 231.5t28 174.5t39.5 117t45 59q15 7 33.5 6.5t31.5 -7.5q22 -15 39 -53t28.5 -96t17 -133.5t5.5 -166.5q-1 -64 -4 -135t-9 -147q-2 -14 -11.5 -23t-26.5 -9q-14 2 -22.5 13.5t-8.5 24.5
q6 73 8.5 129t3.5 113h-51.5h-37.5t-27.5 0.5t-20.5 1.5q-1 -25 -1.5 -50t-0.5 -53q0 -66 3 -141q0 -14 -10 -24.5t-24 -10.5zM218 329q-1 167 -18 252t-36 102q-23 -18 -46.5 -106t-32.5 -245q20 -2 54 -2.5t79 -0.5zM161 685l3 -2l-2 2h-1zM167 685l-3 -2q1 0 2 1z
M166 880q26 0 44.5 -18.5t18.5 -44.5t-18.5 -44.5t-44.5 -18.5t-45 18.5t-19 44.5t19 44.5t45 18.5zM169 817q0 3 -3 3q-4 0 -4 -3t4 -3q3 0 3 3z" />
    <glyph glyph-name="Amacron" unicode="&#x100;" 
d="M48 -17q-14 0 -24 9.5t-11 23.5q-2 36 -2.5 74.5t-0.5 71.5q0 130 10.5 231.5t28 174.5t39.5 117t45 59q15 7 33.5 6.5t31.5 -7.5q22 -15 39 -53t28.5 -96t17 -133.5t5.5 -166.5q-1 -64 -4 -135t-9 -147q-2 -14 -11.5 -23t-26.5 -9q-14 2 -22.5 13.5t-8.5 24.5
q6 73 8.5 129t3.5 113h-51.5h-37.5t-27.5 0.5t-20.5 1.5q-1 -25 -1.5 -50t-0.5 -53q0 -66 3 -141q0 -14 -10 -24.5t-24 -10.5zM218 329q-1 167 -18 252t-36 102q-23 -18 -46.5 -106t-32.5 -245q20 -2 54 -2.5t79 -0.5zM161 685l3 -2l-2 2h-1zM167 685l-3 -2q1 0 2 1z
M223 824q14 0 24 -10t10 -24q0 -11 -4.5 -18t-12.5 -13q-8 -4 -18 -4l-114 1q-14 0 -24 10t-10 24t10.5 24.5t24.5 10.5l114 -1v0z" />
    <glyph glyph-name="Abreve" unicode="&#x102;" 
d="M48 -17q-14 0 -24 9.5t-11 23.5q-2 36 -2.5 74.5t-0.5 71.5q0 130 10.5 231.5t28 174.5t39.5 117t45 59q15 7 33.5 6.5t31.5 -7.5q22 -15 39 -53t28.5 -96t17 -133.5t5.5 -166.5q-1 -64 -4 -135t-9 -147q-2 -14 -11.5 -23t-26.5 -9q-14 2 -22.5 13.5t-8.5 24.5
q6 73 8.5 129t3.5 113h-51.5h-37.5t-27.5 0.5t-20.5 1.5q-1 -25 -1.5 -50t-0.5 -53q0 -66 3 -141q0 -14 -10 -24.5t-24 -10.5zM218 329q-1 167 -18 252t-36 102q-23 -18 -46.5 -106t-32.5 -245q20 -2 54 -2.5t79 -0.5zM161 685l3 -2l-2 2h-1zM167 685l-3 -2q1 0 2 1z
M162 754q-22 0 -45.5 12.5t-42.5 32.5q-10 12 -8.5 26t11.5 22q9 8 23 8t24 -11v1q23 -23 39 -23q20 0 46 22q11 9 25 8.5t23 -11.5q8 -11 6.5 -25.5t-10.5 -22.5q-48 -39 -91 -39z" />
    <glyph glyph-name="amacron" unicode="&#x101;" 
d="M48 -17q-14 0 -24 9.5t-11 23.5q-2 36 -2.5 74.5t-0.5 71.5q0 130 10.5 231.5t28 174.5t39.5 117t45 59q15 7 33.5 6.5t31.5 -7.5q22 -15 39 -53t28.5 -96t17 -133.5t5.5 -166.5q-1 -64 -4 -135t-9 -147q-2 -14 -11.5 -23t-26.5 -9q-14 2 -22.5 13.5t-8.5 24.5
q6 73 8.5 129t3.5 113h-51.5h-37.5t-27.5 0.5t-20.5 1.5q-1 -25 -1.5 -50t-0.5 -53q0 -66 3 -141q0 -14 -10 -24.5t-24 -10.5zM218 329q-1 167 -18 252t-36 102q-23 -18 -46.5 -106t-32.5 -245q20 -2 54 -2.5t79 -0.5zM161 685l3 -2l-2 2h-1zM167 685l-3 -2q1 0 2 1z
M223 824q14 0 24 -10t10 -24q0 -11 -4.5 -18t-12.5 -13q-8 -4 -18 -4l-114 1q-14 0 -24 10t-10 24t10.5 24.5t24.5 10.5l114 -1v0z" />
    <glyph glyph-name="abreve" unicode="&#x103;" 
d="M48 -17q-14 0 -24 9.5t-11 23.5q-2 36 -2.5 74.5t-0.5 71.5q0 130 10.5 231.5t28 174.5t39.5 117t45 59q15 7 33.5 6.5t31.5 -7.5q22 -15 39 -53t28.5 -96t17 -133.5t5.5 -166.5q-1 -64 -4 -135t-9 -147q-2 -14 -11.5 -23t-26.5 -9q-14 2 -22.5 13.5t-8.5 24.5
q6 73 8.5 129t3.5 113h-51.5h-37.5t-27.5 0.5t-20.5 1.5q-1 -25 -1.5 -50t-0.5 -53q0 -66 3 -141q0 -14 -10 -24.5t-24 -10.5zM218 329q-1 167 -18 252t-36 102q-23 -18 -46.5 -106t-32.5 -245q20 -2 54 -2.5t79 -0.5zM161 685l3 -2l-2 2h-1zM167 685l-3 -2q1 0 2 1z
M162 754q-22 0 -45.5 12.5t-42.5 32.5q-10 12 -8.5 26t11.5 22q9 8 23 8t24 -11v1q23 -23 39 -23q20 0 46 22q11 9 25 8.5t23 -11.5q8 -11 6.5 -25.5t-10.5 -22.5q-48 -39 -91 -39z" />
    <glyph glyph-name="Cacute" unicode="&#x106;" horiz-adv-x="243" 
d="M0 375q-1 81 7.5 149.5t23.5 119t37 80.5t48 35q39 4 72.5 -39t56.5 -133q4 -14 -4 -26.5t-20 -15.5h1q-15 -5 -27 2.5t-17 21.5q-17 65 -31 93.5t-21 26.5q-9 -1 -19.5 -21t-19 -59t-13.5 -97.5t-4 -136.5q-1 -81 4.5 -140t14.5 -99t21 -62t24 -29q2 -2 4 0
q15 9 27.5 41.5t11.5 87.5q0 14 9.5 24.5t25.5 10.5q14 0 24.5 -10.5t10.5 -24.5q0 -67 -19.5 -118t-53.5 -71q-20 -11 -37 -11q-18 0 -38 11q-48 29 -74 130.5t-25 259.5zM78 760q-8 0 -15 2.5t-13 10.5q-9 11 -8 25t12 23l92 70q13 8 27 6t22 -14q8 -11 6 -24.5t-13 -22.5
l-91 -69q-11 -7 -19 -7z" />
    <glyph glyph-name="cacute" unicode="&#x107;" horiz-adv-x="243" 
d="M0 375q-1 81 7.5 149.5t23.5 119t37 80.5t48 35q39 4 72.5 -39t56.5 -133q4 -14 -4 -26.5t-20 -15.5h1q-15 -5 -27 2.5t-17 21.5q-17 65 -31 93.5t-21 26.5q-9 -1 -19.5 -21t-19 -59t-13.5 -97.5t-4 -136.5q-1 -81 4.5 -140t14.5 -99t21 -62t24 -29q2 -2 4 0
q15 9 27.5 41.5t11.5 87.5q0 14 9.5 24.5t25.5 10.5q14 0 24.5 -10.5t10.5 -24.5q0 -67 -19.5 -118t-53.5 -71q-20 -11 -37 -11q-18 0 -38 11q-48 29 -74 130.5t-25 259.5zM78 760q-8 0 -15 2.5t-13 10.5q-9 11 -8 25t12 23l92 70q13 8 27 6t22 -14q8 -11 6 -24.5t-13 -22.5
l-91 -69q-11 -7 -19 -7z" />
    <glyph glyph-name="Ccircumflex" unicode="&#x108;" horiz-adv-x="243" 
d="M0 375q-1 81 7.5 149.5t23.5 119t37 80.5t48 35q39 4 72.5 -39t56.5 -133q4 -14 -4 -26.5t-20 -15.5h1q-15 -5 -27 2.5t-17 21.5q-17 65 -31 93.5t-21 26.5q-9 -1 -19.5 -21t-19 -59t-13.5 -97.5t-4 -136.5q-1 -81 4.5 -140t14.5 -99t21 -62t24 -29q2 -2 4 0
q15 9 27.5 41.5t11.5 87.5q0 14 9.5 24.5t25.5 10.5q14 0 24.5 -10.5t10.5 -24.5q0 -67 -19.5 -118t-53.5 -71q-20 -11 -37 -11q-18 0 -38 11q-48 29 -74 130.5t-25 259.5zM127 881q8 0 12 -2q6 -2 10 -5q18 -14 36 -30t36 -30q12 -11 14 -24.5t-8 -24.5l1 1
q-5 -7 -13 -10.5t-15 -3.5q-13 0 -22 6l-53 45l-62 -45q-9 -6 -20 -6q-7 0 -15 3t-13 11q-8 13 -5.5 27t13.5 22l91 64q4 0 7 1q1 0 3 0.5t3 0.5z" />
    <glyph glyph-name="ccircumflex" unicode="&#x109;" horiz-adv-x="243" 
d="M0 375q-1 81 7.5 149.5t23.5 119t37 80.5t48 35q39 4 72.5 -39t56.5 -133q4 -14 -4 -26.5t-20 -15.5h1q-15 -5 -27 2.5t-17 21.5q-17 65 -31 93.5t-21 26.5q-9 -1 -19.5 -21t-19 -59t-13.5 -97.5t-4 -136.5q-1 -81 4.5 -140t14.5 -99t21 -62t24 -29q2 -2 4 0
q15 9 27.5 41.5t11.5 87.5q0 14 9.5 24.5t25.5 10.5q14 0 24.5 -10.5t10.5 -24.5q0 -67 -19.5 -118t-53.5 -71q-20 -11 -37 -11q-18 0 -38 11q-48 29 -74 130.5t-25 259.5zM127 881q8 0 12 -2q6 -2 10 -5q18 -14 36 -30t36 -30q12 -11 14 -24.5t-8 -24.5l1 1
q-5 -7 -13 -10.5t-15 -3.5q-13 0 -22 6l-53 45l-62 -45q-9 -6 -20 -6q-7 0 -15 3t-13 11q-8 13 -5.5 27t13.5 22l91 64q4 0 7 1q1 0 3 0.5t3 0.5z" />
    <glyph glyph-name="Cdotaccent" unicode="&#x10a;" horiz-adv-x="243" 
d="M0 375q-1 81 7.5 149.5t23.5 119t37 80.5t48 35q39 4 72.5 -39t56.5 -133q4 -14 -4 -26.5t-20 -15.5h1q-15 -5 -27 2.5t-17 21.5q-17 65 -31 93.5t-21 26.5q-9 -1 -19.5 -21t-19 -59t-13.5 -97.5t-4 -136.5q-1 -81 4.5 -140t14.5 -99t21 -62t24 -29q2 -2 4 0
q15 9 27.5 41.5t11.5 87.5q0 14 9.5 24.5t25.5 10.5q14 0 24.5 -10.5t10.5 -24.5q0 -67 -19.5 -118t-53.5 -71q-20 -11 -37 -11q-18 0 -38 11q-48 29 -74 130.5t-25 259.5zM121 855q21 0 36 -14.5t15 -35.5t-15 -36t-36 -15q-20 0 -35 15t-15 36t15 35.5t35 14.5z" />
    <glyph glyph-name="cdotaccent" unicode="&#x10b;" horiz-adv-x="243" 
d="M0 375q-1 81 7.5 149.5t23.5 119t37 80.5t48 35q39 4 72.5 -39t56.5 -133q4 -14 -4 -26.5t-20 -15.5h1q-15 -5 -27 2.5t-17 21.5q-17 65 -31 93.5t-21 26.5q-9 -1 -19.5 -21t-19 -59t-13.5 -97.5t-4 -136.5q-1 -81 4.5 -140t14.5 -99t21 -62t24 -29q2 -2 4 0
q15 9 27.5 41.5t11.5 87.5q0 14 9.5 24.5t25.5 10.5q14 0 24.5 -10.5t10.5 -24.5q0 -67 -19.5 -118t-53.5 -71q-20 -11 -37 -11q-18 0 -38 11q-48 29 -74 130.5t-25 259.5zM121 855q21 0 36 -14.5t15 -35.5t-15 -36t-36 -15q-20 0 -35 15t-15 36t15 35.5t35 14.5z" />
    <glyph glyph-name="Ccaron" unicode="&#x10c;" horiz-adv-x="243" 
d="M0 375q-1 81 7.5 149.5t23.5 119t37 80.5t48 35q39 4 72.5 -39t56.5 -133q4 -14 -4 -26.5t-20 -15.5h1q-15 -5 -27 2.5t-17 21.5q-17 65 -31 93.5t-21 26.5q-9 -1 -19.5 -21t-19 -59t-13.5 -97.5t-4 -136.5q-1 -81 4.5 -140t14.5 -99t21 -62t24 -29q2 -2 4 0
q15 9 27.5 41.5t11.5 87.5q0 14 9.5 24.5t25.5 10.5q14 0 24.5 -10.5t10.5 -24.5q0 -67 -19.5 -118t-53.5 -71q-20 -11 -37 -11q-18 0 -38 11q-48 29 -74 130.5t-25 259.5zM116 752q-8 0 -12 2q-5 0 -10 5l-73 59q-12 10 -13.5 24t8.5 26l-1 -1q5 7 12.5 10.5t15.5 3.5
q10 0 25 -9l50 -42q14 11 30.5 22.5l30.5 21.5q10 7 21 7q6 0 14 -3t14 -11q8 -13 5.5 -27t-13.5 -22l-81 -58q-4 -4 -7 -5.5t-11 -1.5q-1 0 -2 -0.5t-3 -0.5z" />
    <glyph glyph-name="ccaron" unicode="&#x10d;" horiz-adv-x="243" 
d="M0 375q-1 81 7.5 149.5t23.5 119t37 80.5t48 35q39 4 72.5 -39t56.5 -133q4 -14 -4 -26.5t-20 -15.5h1q-15 -5 -27 2.5t-17 21.5q-17 65 -31 93.5t-21 26.5q-9 -1 -19.5 -21t-19 -59t-13.5 -97.5t-4 -136.5q-1 -81 4.5 -140t14.5 -99t21 -62t24 -29q2 -2 4 0
q15 9 27.5 41.5t11.5 87.5q0 14 9.5 24.5t25.5 10.5q14 0 24.5 -10.5t10.5 -24.5q0 -67 -19.5 -118t-53.5 -71q-20 -11 -37 -11q-18 0 -38 11q-48 29 -74 130.5t-25 259.5zM116 752q-8 0 -12 2q-5 0 -10 5l-73 59q-12 10 -13.5 24t8.5 26l-1 -1q5 7 12.5 10.5t15.5 3.5
q10 0 25 -9l50 -42q14 11 30.5 22.5l30.5 21.5q10 7 21 7q6 0 14 -3t14 -11q8 -13 5.5 -27t-13.5 -22l-81 -58q-4 -4 -7 -5.5t-11 -1.5q-1 0 -2 -0.5t-3 -0.5z" />
    <glyph glyph-name="Dcaron" unicode="&#x10e;" horiz-adv-x="264" 
d="M10 4q-2 2 -2 4q-2 3 -2.5 6t-0.5 12q1 8 1.5 60.5t1 142.5t0.5 214.5v276.5q0 14 10.5 24t24.5 10q51 0 92 -33t68 -98q22 -53 32.5 -118.5t10.5 -134.5q0 -55 -6.5 -108.5t-19 -100.5t-30.5 -85t-41 -61q-36 -36 -79 -36q-22 0 -47 12q-9 4 -13 13zM140 596
q-26 61 -62 79v-276.5v-182.5t-1 -109t-3 -57q13 1 26 14q18 18 32.5 50t24.5 72.5t15 87.5t5 95q0 63 -9 122.5t-28 104.5zM106 752q-8 0 -12 2q-5 0 -10 5l-73 59q-12 10 -13.5 24t8.5 26l-1 -1q5 7 12.5 10.5t15.5 3.5q10 0 25 -9l50 -42q14 11 30.5 22.5l30.5 21.5
q10 7 21 7q6 0 14 -3t14 -11q8 -13 5.5 -27t-13.5 -22l-81 -58q-4 -4 -7 -5.5t-11 -1.5q-1 0 -2 -0.5t-3 -0.5z" />
    <glyph glyph-name="dcaron" unicode="&#x10f;" horiz-adv-x="264" 
d="M10 4q-2 2 -2 4q-2 3 -2.5 6t-0.5 12q1 8 1.5 60.5t1 142.5t0.5 214.5v276.5q0 14 10.5 24t24.5 10q51 0 92 -33t68 -98q22 -53 32.5 -118.5t10.5 -134.5q0 -55 -6.5 -108.5t-19 -100.5t-30.5 -85t-41 -61q-36 -36 -79 -36q-22 0 -47 12q-9 4 -13 13zM140 596
q-26 61 -62 79v-276.5v-182.5t-1 -109t-3 -57q13 1 26 14q18 18 32.5 50t24.5 72.5t15 87.5t5 95q0 63 -9 122.5t-28 104.5zM106 752q-8 0 -12 2q-5 0 -10 5l-73 59q-12 10 -13.5 24t8.5 26l-1 -1q5 7 12.5 10.5t15.5 3.5q10 0 25 -9l50 -42q14 11 30.5 22.5l30.5 21.5
q10 7 21 7q6 0 14 -3t14 -11q8 -13 5.5 -27t-13.5 -22l-81 -58q-4 -4 -7 -5.5t-11 -1.5q-1 0 -2 -0.5t-3 -0.5z" />
    <glyph glyph-name="Emacron" unicode="&#x112;" horiz-adv-x="235" 
d="M40 -20q-14 0 -24.5 10.5t-10.5 24.5v334q0 2 -0.5 4t1.5 6q0 88 0.5 150t1.5 104t2.5 67t3.5 38l-1 1q0 10 3.5 15t8.5 10q7 7 11.5 8t10.5 1h173q14 0 24.5 -10t10.5 -24t-10.5 -24.5t-24.5 -10.5h-141l-4 -290q33 3 99 3q14 0 24.5 -10.5t10.5 -24.5t-10.5 -24
t-24.5 -10q-35 0 -59.5 -1t-39.5 -3v-120v-39t-0.5 -36t-0.5 -37v-42h146q14 0 24.5 -10.5t10.5 -24.5t-10.5 -24.5t-24.5 -10.5h-180v0zM175 824q14 0 24 -10t10 -24q0 -11 -4.5 -18t-12.5 -13q-8 -4 -18 -4l-114 1q-14 0 -24 10t-10 24t10.5 24.5t24.5 10.5l114 -1v0z" />
    <glyph glyph-name="emacron" unicode="&#x113;" horiz-adv-x="235" 
d="M40 -20q-14 0 -24.5 10.5t-10.5 24.5v334q0 2 -0.5 4t1.5 6q0 88 0.5 150t1.5 104t2.5 67t3.5 38l-1 1q0 10 3.5 15t8.5 10q7 7 11.5 8t10.5 1h173q14 0 24.5 -10t10.5 -24t-10.5 -24.5t-24.5 -10.5h-141l-4 -290q33 3 99 3q14 0 24.5 -10.5t10.5 -24.5t-10.5 -24
t-24.5 -10q-35 0 -59.5 -1t-39.5 -3v-120v-39t-0.5 -36t-0.5 -37v-42h146q14 0 24.5 -10.5t10.5 -24.5t-10.5 -24.5t-24.5 -10.5h-180v0zM175 824q14 0 24 -10t10 -24q0 -11 -4.5 -18t-12.5 -13q-8 -4 -18 -4l-114 1q-14 0 -24 10t-10 24t10.5 24.5t24.5 10.5l114 -1v0z" />
    <glyph glyph-name="Ebreve" unicode="&#x114;" horiz-adv-x="235" 
d="M40 -20q-14 0 -24.5 10.5t-10.5 24.5v334q0 2 -0.5 4t1.5 6q0 88 0.5 150t1.5 104t2.5 67t3.5 38l-1 1q0 10 3.5 15t8.5 10q7 7 11.5 8t10.5 1h173q14 0 24.5 -10t10.5 -24t-10.5 -24.5t-24.5 -10.5h-141l-4 -290q33 3 99 3q14 0 24.5 -10.5t10.5 -24.5t-10.5 -24
t-24.5 -10q-35 0 -59.5 -1t-39.5 -3v-120v-39t-0.5 -36t-0.5 -37v-42h146q14 0 24.5 -10.5t10.5 -24.5t-10.5 -24.5t-24.5 -10.5h-180v0zM114 754q-22 0 -45.5 12.5t-42.5 32.5q-10 12 -8.5 26t11.5 22q9 8 23 8t24 -11v1q23 -23 39 -23q20 0 46 22q11 9 25 8.5t23 -11.5
q8 -11 6.5 -25.5t-10.5 -22.5q-48 -39 -91 -39z" />
    <glyph glyph-name="ebreve" unicode="&#x115;" horiz-adv-x="235" 
d="M40 -20q-14 0 -24.5 10.5t-10.5 24.5v334q0 2 -0.5 4t1.5 6q0 88 0.5 150t1.5 104t2.5 67t3.5 38l-1 1q0 10 3.5 15t8.5 10q7 7 11.5 8t10.5 1h173q14 0 24.5 -10t10.5 -24t-10.5 -24.5t-24.5 -10.5h-141l-4 -290q33 3 99 3q14 0 24.5 -10.5t10.5 -24.5t-10.5 -24
t-24.5 -10q-35 0 -59.5 -1t-39.5 -3v-120v-39t-0.5 -36t-0.5 -37v-42h146q14 0 24.5 -10.5t10.5 -24.5t-10.5 -24.5t-24.5 -10.5h-180v0zM114 754q-22 0 -45.5 12.5t-42.5 32.5q-10 12 -8.5 26t11.5 22q9 8 23 8t24 -11v1q23 -23 39 -23q20 0 46 22q11 9 25 8.5t23 -11.5
q8 -11 6.5 -25.5t-10.5 -22.5q-48 -39 -91 -39z" />
    <glyph glyph-name="Edotaccent" unicode="&#x116;" horiz-adv-x="235" 
d="M40 -20q-14 0 -24.5 10.5t-10.5 24.5v334q0 2 -0.5 4t1.5 6q0 88 0.5 150t1.5 104t2.5 67t3.5 38l-1 1q0 10 3.5 15t8.5 10q7 7 11.5 8t10.5 1h173q14 0 24.5 -10t10.5 -24t-10.5 -24.5t-24.5 -10.5h-141l-4 -290q33 3 99 3q14 0 24.5 -10.5t10.5 -24.5t-10.5 -24
t-24.5 -10q-35 0 -59.5 -1t-39.5 -3v-120v-39t-0.5 -36t-0.5 -37v-42h146q14 0 24.5 -10.5t10.5 -24.5t-10.5 -24.5t-24.5 -10.5h-180v0zM117 855q21 0 36 -14.5t15 -35.5t-15 -36t-36 -15q-20 0 -35 15t-15 36t15 35.5t35 14.5z" />
    <glyph glyph-name="edotaccent" unicode="&#x117;" horiz-adv-x="235" 
d="M40 -20q-14 0 -24.5 10.5t-10.5 24.5v334q0 2 -0.5 4t1.5 6q0 88 0.5 150t1.5 104t2.5 67t3.5 38l-1 1q0 10 3.5 15t8.5 10q7 7 11.5 8t10.5 1h173q14 0 24.5 -10t10.5 -24t-10.5 -24.5t-24.5 -10.5h-141l-4 -290q33 3 99 3q14 0 24.5 -10.5t10.5 -24.5t-10.5 -24
t-24.5 -10q-35 0 -59.5 -1t-39.5 -3v-120v-39t-0.5 -36t-0.5 -37v-42h146q14 0 24.5 -10.5t10.5 -24.5t-10.5 -24.5t-24.5 -10.5h-180v0zM117 855q21 0 36 -14.5t15 -35.5t-15 -36t-36 -15q-20 0 -35 15t-15 36t15 35.5t35 14.5z" />
    <glyph glyph-name="Ecaron" unicode="&#x11a;" horiz-adv-x="235" 
d="M40 -20q-14 0 -24.5 10.5t-10.5 24.5v334q0 2 -0.5 4t1.5 6q0 88 0.5 150t1.5 104t2.5 67t3.5 38l-1 1q0 10 3.5 15t8.5 10q7 7 11.5 8t10.5 1h173q14 0 24.5 -10t10.5 -24t-10.5 -24.5t-24.5 -10.5h-141l-4 -290q33 3 99 3q14 0 24.5 -10.5t10.5 -24.5t-10.5 -24
t-24.5 -10q-35 0 -59.5 -1t-39.5 -3v-120v-39t-0.5 -36t-0.5 -37v-42h146q14 0 24.5 -10.5t10.5 -24.5t-10.5 -24.5t-24.5 -10.5h-180v0zM112 752q-8 0 -12 2q-5 0 -10 5l-73 59q-12 10 -13.5 24t8.5 26l-1 -1q5 7 12.5 10.5t15.5 3.5q10 0 25 -9l50 -42q14 11 30.5 22.5
l30.5 21.5q10 7 21 7q6 0 14 -3t14 -11q8 -13 5.5 -27t-13.5 -22l-81 -58q-4 -4 -7 -5.5t-11 -1.5q-1 0 -2 -0.5t-3 -0.5z" />
    <glyph glyph-name="ecaron" unicode="&#x11b;" horiz-adv-x="235" 
d="M40 -20q-14 0 -24.5 10.5t-10.5 24.5v334q0 2 -0.5 4t1.5 6q0 88 0.5 150t1.5 104t2.5 67t3.5 38l-1 1q0 10 3.5 15t8.5 10q7 7 11.5 8t10.5 1h173q14 0 24.5 -10t10.5 -24t-10.5 -24.5t-24.5 -10.5h-141l-4 -290q33 3 99 3q14 0 24.5 -10.5t10.5 -24.5t-10.5 -24
t-24.5 -10q-35 0 -59.5 -1t-39.5 -3v-120v-39t-0.5 -36t-0.5 -37v-42h146q14 0 24.5 -10.5t10.5 -24.5t-10.5 -24.5t-24.5 -10.5h-180v0zM112 752q-8 0 -12 2q-5 0 -10 5l-73 59q-12 10 -13.5 24t8.5 26l-1 -1q5 7 12.5 10.5t15.5 3.5q10 0 25 -9l50 -42q14 11 30.5 22.5
l30.5 21.5q10 7 21 7q6 0 14 -3t14 -11q8 -13 5.5 -27t-13.5 -22l-81 -58q-4 -4 -7 -5.5t-11 -1.5q-1 0 -2 -0.5t-3 -0.5z" />
    <glyph glyph-name="Gcircumflex" unicode="&#x11c;" 
d="M115 -17q-25 13 -45 49.5t-33.5 92t-21 128t-8.5 157.5q-1 17 -1.5 37.5t-0.5 36.5q0 109 21.5 176t65.5 89q10 5 20.5 7.5t22.5 2.5q39 0 75 -28q15 -13 29 -31t24 -38t14 -41.5t-1 -40.5q-3 -14 -15.5 -21.5t-26.5 -3.5q-14 3 -21.5 15.5t-3.5 26.5q4 15 -8.5 38
t-32.5 40q-8 6 -20.5 12t-23.5 0l1 1q-6 -3 -14.5 -13t-16.5 -32.5t-13.5 -60.5t-5.5 -98q0 -17 0.5 -35t1.5 -38q0 -91 6 -157.5t16 -110.5t22.5 -68t25.5 -31q4 -2 8 2q24 17 41.5 75t17.5 144q0 17 -0.5 26l-1.5 28q-24 3 -70 3q-14 0 -24.5 10.5t-10.5 24.5t10.5 24.5
t24.5 10.5q47 0 74.5 -3.5t41 -9.5t17.5 -13.5t4 -14.5q2 -21 3.5 -43.5t1.5 -42.5q0 -53 -7.5 -98t-19.5 -81t-28.5 -61t-34.5 -37q-22 -14 -45 -14q-9 0 -17.5 2.5t-16.5 6.5zM151 881q8 0 12 -2q6 -2 10 -5q18 -14 36 -30t36 -30q12 -11 14 -24.5t-8 -24.5l1 1
q-5 -7 -13 -10.5t-15 -3.5q-13 0 -22 6l-53 45l-62 -45q-9 -6 -20 -6q-7 0 -15 3t-13 11q-8 13 -5.5 27t13.5 22l91 64q4 0 7 1q1 0 3 0.5t3 0.5z" />
    <glyph glyph-name="gcircumflex" unicode="&#x11d;" 
d="M115 -17q-25 13 -45 49.5t-33.5 92t-21 128t-8.5 157.5q-1 17 -1.5 37.5t-0.5 36.5q0 109 21.5 176t65.5 89q10 5 20.5 7.5t22.5 2.5q39 0 75 -28q15 -13 29 -31t24 -38t14 -41.5t-1 -40.5q-3 -14 -15.5 -21.5t-26.5 -3.5q-14 3 -21.5 15.5t-3.5 26.5q4 15 -8.5 38
t-32.5 40q-8 6 -20.5 12t-23.5 0l1 1q-6 -3 -14.5 -13t-16.5 -32.5t-13.5 -60.5t-5.5 -98q0 -17 0.5 -35t1.5 -38q0 -91 6 -157.5t16 -110.5t22.5 -68t25.5 -31q4 -2 8 2q24 17 41.5 75t17.5 144q0 17 -0.5 26l-1.5 28q-24 3 -70 3q-14 0 -24.5 10.5t-10.5 24.5t10.5 24.5
t24.5 10.5q47 0 74.5 -3.5t41 -9.5t17.5 -13.5t4 -14.5q2 -21 3.5 -43.5t1.5 -42.5q0 -53 -7.5 -98t-19.5 -81t-28.5 -61t-34.5 -37q-22 -14 -45 -14q-9 0 -17.5 2.5t-16.5 6.5zM151 881q8 0 12 -2q6 -2 10 -5q18 -14 36 -30t36 -30q12 -11 14 -24.5t-8 -24.5l1 1
q-5 -7 -13 -10.5t-15 -3.5q-13 0 -22 6l-53 45l-62 -45q-9 -6 -20 -6q-7 0 -15 3t-13 11q-8 13 -5.5 27t13.5 22l91 64q4 0 7 1q1 0 3 0.5t3 0.5z" />
    <glyph glyph-name="Gbreve" unicode="&#x11e;" 
d="M115 -17q-25 13 -45 49.5t-33.5 92t-21 128t-8.5 157.5q-1 17 -1.5 37.5t-0.5 36.5q0 109 21.5 176t65.5 89q10 5 20.5 7.5t22.5 2.5q39 0 75 -28q15 -13 29 -31t24 -38t14 -41.5t-1 -40.5q-3 -14 -15.5 -21.5t-26.5 -3.5q-14 3 -21.5 15.5t-3.5 26.5q4 15 -8.5 38
t-32.5 40q-8 6 -20.5 12t-23.5 0l1 1q-6 -3 -14.5 -13t-16.5 -32.5t-13.5 -60.5t-5.5 -98q0 -17 0.5 -35t1.5 -38q0 -91 6 -157.5t16 -110.5t22.5 -68t25.5 -31q4 -2 8 2q24 17 41.5 75t17.5 144q0 17 -0.5 26l-1.5 28q-24 3 -70 3q-14 0 -24.5 10.5t-10.5 24.5t10.5 24.5
t24.5 10.5q47 0 74.5 -3.5t41 -9.5t17.5 -13.5t4 -14.5q2 -21 3.5 -43.5t1.5 -42.5q0 -53 -7.5 -98t-19.5 -81t-28.5 -61t-34.5 -37q-22 -14 -45 -14q-9 0 -17.5 2.5t-16.5 6.5zM142 754q-22 0 -45.5 12.5t-42.5 32.5q-10 12 -8.5 26t11.5 22q9 8 23 8t24 -11v1
q23 -23 39 -23q20 0 46 22q11 9 25 8.5t23 -11.5q8 -11 6.5 -25.5t-10.5 -22.5q-48 -39 -91 -39z" />
    <glyph glyph-name="gbreve" unicode="&#x11f;" 
d="M115 -17q-25 13 -45 49.5t-33.5 92t-21 128t-8.5 157.5q-1 17 -1.5 37.5t-0.5 36.5q0 109 21.5 176t65.5 89q10 5 20.5 7.5t22.5 2.5q39 0 75 -28q15 -13 29 -31t24 -38t14 -41.5t-1 -40.5q-3 -14 -15.5 -21.5t-26.5 -3.5q-14 3 -21.5 15.5t-3.5 26.5q4 15 -8.5 38
t-32.5 40q-8 6 -20.5 12t-23.5 0l1 1q-6 -3 -14.5 -13t-16.5 -32.5t-13.5 -60.5t-5.5 -98q0 -17 0.5 -35t1.5 -38q0 -91 6 -157.5t16 -110.5t22.5 -68t25.5 -31q4 -2 8 2q24 17 41.5 75t17.5 144q0 17 -0.5 26l-1.5 28q-24 3 -70 3q-14 0 -24.5 10.5t-10.5 24.5t10.5 24.5
t24.5 10.5q47 0 74.5 -3.5t41 -9.5t17.5 -13.5t4 -14.5q2 -21 3.5 -43.5t1.5 -42.5q0 -53 -7.5 -98t-19.5 -81t-28.5 -61t-34.5 -37q-22 -14 -45 -14q-9 0 -17.5 2.5t-16.5 6.5zM142 754q-22 0 -45.5 12.5t-42.5 32.5q-10 12 -8.5 26t11.5 22q9 8 23 8t24 -11v1
q23 -23 39 -23q20 0 46 22q11 9 25 8.5t23 -11.5q8 -11 6.5 -25.5t-10.5 -22.5q-48 -39 -91 -39z" />
    <glyph glyph-name="Gdotaccent" unicode="&#x120;" 
d="M115 -17q-25 13 -45 49.5t-33.5 92t-21 128t-8.5 157.5q-1 17 -1.5 37.5t-0.5 36.5q0 109 21.5 176t65.5 89q10 5 20.5 7.5t22.5 2.5q39 0 75 -28q15 -13 29 -31t24 -38t14 -41.5t-1 -40.5q-3 -14 -15.5 -21.5t-26.5 -3.5q-14 3 -21.5 15.5t-3.5 26.5q4 15 -8.5 38
t-32.5 40q-8 6 -20.5 12t-23.5 0l1 1q-6 -3 -14.5 -13t-16.5 -32.5t-13.5 -60.5t-5.5 -98q0 -17 0.5 -35t1.5 -38q0 -91 6 -157.5t16 -110.5t22.5 -68t25.5 -31q4 -2 8 2q24 17 41.5 75t17.5 144q0 17 -0.5 26l-1.5 28q-24 3 -70 3q-14 0 -24.5 10.5t-10.5 24.5t10.5 24.5
t24.5 10.5q47 0 74.5 -3.5t41 -9.5t17.5 -13.5t4 -14.5q2 -21 3.5 -43.5t1.5 -42.5q0 -53 -7.5 -98t-19.5 -81t-28.5 -61t-34.5 -37q-22 -14 -45 -14q-9 0 -17.5 2.5t-16.5 6.5zM145 855q21 0 36 -14.5t15 -35.5t-15 -36t-36 -15q-20 0 -35 15t-15 36t15 35.5t35 14.5z" />
    <glyph glyph-name="gdotaccent" unicode="&#x121;" 
d="M115 -17q-25 13 -45 49.5t-33.5 92t-21 128t-8.5 157.5q-1 17 -1.5 37.5t-0.5 36.5q0 109 21.5 176t65.5 89q10 5 20.5 7.5t22.5 2.5q39 0 75 -28q15 -13 29 -31t24 -38t14 -41.5t-1 -40.5q-3 -14 -15.5 -21.5t-26.5 -3.5q-14 3 -21.5 15.5t-3.5 26.5q4 15 -8.5 38
t-32.5 40q-8 6 -20.5 12t-23.5 0l1 1q-6 -3 -14.5 -13t-16.5 -32.5t-13.5 -60.5t-5.5 -98q0 -17 0.5 -35t1.5 -38q0 -91 6 -157.5t16 -110.5t22.5 -68t25.5 -31q4 -2 8 2q24 17 41.5 75t17.5 144q0 17 -0.5 26l-1.5 28q-24 3 -70 3q-14 0 -24.5 10.5t-10.5 24.5t10.5 24.5
t24.5 10.5q47 0 74.5 -3.5t41 -9.5t17.5 -13.5t4 -14.5q2 -21 3.5 -43.5t1.5 -42.5q0 -53 -7.5 -98t-19.5 -81t-28.5 -61t-34.5 -37q-22 -14 -45 -14q-9 0 -17.5 2.5t-16.5 6.5zM145 855q21 0 36 -14.5t15 -35.5t-15 -36t-36 -15q-20 0 -35 15t-15 36t15 35.5t35 14.5z" />
    <glyph glyph-name="Hcircumflex" unicode="&#x124;" horiz-adv-x="267" 
d="M14 15q0 145 -1 266t-2.5 211t-3 145.5t-3.5 70.5q-1 2 -1 5.5v5.5q0 14 10 24t24 10q7 0 12.5 -2t10.5 -12.5t9 -33t6.5 -64t4 -105.5t2.5 -157h108v340q0 14 10.5 24t24.5 10t24.5 -10t10.5 -24v-704q0 -14 -10.5 -24.5t-24.5 -10.5t-24.5 10.5t-10.5 24.5v295h-107
v-295q0 -14 -10 -24.5t-24 -10.5t-24.5 10.5t-10.5 24.5zM139 881q8 0 12 -2q6 -2 10 -5q18 -14 36 -30t36 -30q12 -11 14 -24.5t-8 -24.5l1 1q-5 -7 -13 -10.5t-15 -3.5q-13 0 -22 6l-53 45l-62 -45q-9 -6 -20 -6q-7 0 -15 3t-13 11q-8 13 -5.5 27t13.5 22l91 64q4 0 7 1
q1 0 3 0.5t3 0.5z" />
    <glyph glyph-name="hcircumflex" unicode="&#x125;" horiz-adv-x="267" 
d="M14 15q0 145 -1 266t-2.5 211t-3 145.5t-3.5 70.5q-1 2 -1 5.5v5.5q0 14 10 24t24 10q7 0 12.5 -2t10.5 -12.5t9 -33t6.5 -64t4 -105.5t2.5 -157h108v340q0 14 10.5 24t24.5 10t24.5 -10t10.5 -24v-704q0 -14 -10.5 -24.5t-24.5 -10.5t-24.5 10.5t-10.5 24.5v295h-107
v-295q0 -14 -10 -24.5t-24 -10.5t-24.5 10.5t-10.5 24.5zM139 881q8 0 12 -2q6 -2 10 -5q18 -14 36 -30t36 -30q12 -11 14 -24.5t-8 -24.5l1 1q-5 -7 -13 -10.5t-15 -3.5q-13 0 -22 6l-53 45l-62 -45q-9 -6 -20 -6q-7 0 -15 3t-13 11q-8 13 -5.5 27t13.5 22l91 64q4 0 7 1
q1 0 3 0.5t3 0.5z" />
    <glyph glyph-name="Itilde" unicode="&#x128;" horiz-adv-x="219" 
d="M145 684q0 -267 2.5 -431t6.5 -203h43q14 0 24.5 -10.5t10.5 -24.5t-10.5 -24.5t-24.5 -10.5h-159q-14 0 -24.5 10.5t-10.5 24.5t10.5 24.5t24.5 10.5h48q-2 27 -4 74.5t-3.5 122.5t-2 182.5t-0.5 254.5h-57q-14 0 -24.5 10.5t-10.5 24.5t10.5 24t24.5 10h178
q14 0 24.5 -10t10.5 -24t-10.5 -24.5t-24.5 -10.5h-52zM164 818q10 8 25 7.5t24 -10.5q9 -11 8.5 -25t-10.5 -24q-8 -6 -20.5 -12.5t-29.5 -6.5q-5 0 -11.5 1t-14.5 4q-11 3 -20 6.5t-15 5.5l-10 5h1q-16 8 -21.5 9t-9.5 -6q-8 -11 -22 -13.5t-27 5.5l2 -1q-13 8 -16 22
t6 27l-1 -1q14 21 29 29t32 8q14 0 28.5 -5.5l29.5 -11.5l3 -1l18 -7t19 -6q1 -1 2 0z" />
    <glyph glyph-name="itilde" unicode="&#x129;" horiz-adv-x="219" 
d="M145 684q0 -267 2.5 -431t6.5 -203h43q14 0 24.5 -10.5t10.5 -24.5t-10.5 -24.5t-24.5 -10.5h-159q-14 0 -24.5 10.5t-10.5 24.5t10.5 24.5t24.5 10.5h48q-2 27 -4 74.5t-3.5 122.5t-2 182.5t-0.5 254.5h-57q-14 0 -24.5 10.5t-10.5 24.5t10.5 24t24.5 10h178
q14 0 24.5 -10t10.5 -24t-10.5 -24.5t-24.5 -10.5h-52zM164 818q10 8 25 7.5t24 -10.5q9 -11 8.5 -25t-10.5 -24q-8 -6 -20.5 -12.5t-29.5 -6.5q-5 0 -11.5 1t-14.5 4q-11 3 -20 6.5t-15 5.5l-10 5h1q-16 8 -21.5 9t-9.5 -6q-8 -11 -22 -13.5t-27 5.5l2 -1q-13 8 -16 22
t6 27l-1 -1q14 21 29 29t32 8q14 0 28.5 -5.5l29.5 -11.5l3 -1l18 -7t19 -6q1 -1 2 0z" />
    <glyph glyph-name="Imacron.001" horiz-adv-x="219" 
d="M145 684q0 -267 2.5 -431t6.5 -203h43q14 0 24.5 -10.5t10.5 -24.5t-10.5 -24.5t-24.5 -10.5h-159q-14 0 -24.5 10.5t-10.5 24.5t10.5 24.5t24.5 10.5h48q-2 27 -4 74.5t-3.5 122.5t-2 182.5t-0.5 254.5h-57q-14 0 -24.5 10.5t-10.5 24.5t10.5 24t24.5 10h178
q14 0 24.5 -10t10.5 -24t-10.5 -24.5t-24.5 -10.5h-52z" />
    <glyph glyph-name="imacron" unicode="&#x12b;" horiz-adv-x="219" 
d="M145 684q0 -267 2.5 -431t6.5 -203h43q14 0 24.5 -10.5t10.5 -24.5t-10.5 -24.5t-24.5 -10.5h-159q-14 0 -24.5 10.5t-10.5 24.5t10.5 24.5t24.5 10.5h48q-2 27 -4 74.5t-3.5 122.5t-2 182.5t-0.5 254.5h-57q-14 0 -24.5 10.5t-10.5 24.5t10.5 24t24.5 10h178
q14 0 24.5 -10t10.5 -24t-10.5 -24.5t-24.5 -10.5h-52zM167 824q14 0 24 -10t10 -24q0 -11 -4.5 -18t-12.5 -13q-8 -4 -18 -4l-114 1q-14 0 -24 10t-10 24t10.5 24.5t24.5 10.5l114 -1v0z" />
    <glyph glyph-name="Imacron" unicode="&#x12a;" horiz-adv-x="219" 
d="M145 684q0 -267 2.5 -431t6.5 -203h43q14 0 24.5 -10.5t10.5 -24.5t-10.5 -24.5t-24.5 -10.5h-159q-14 0 -24.5 10.5t-10.5 24.5t10.5 24.5t24.5 10.5h48q-2 27 -4 74.5t-3.5 122.5t-2 182.5t-0.5 254.5h-57q-14 0 -24.5 10.5t-10.5 24.5t10.5 24t24.5 10h178
q14 0 24.5 -10t10.5 -24t-10.5 -24.5t-24.5 -10.5h-52zM167 824q14 0 24 -10t10 -24q0 -11 -4.5 -18t-12.5 -13q-8 -4 -18 -4l-114 1q-14 0 -24 10t-10 24t10.5 24.5t24.5 10.5l114 -1v0z" />
    <glyph glyph-name="Idotaccent" unicode="&#x130;" horiz-adv-x="219" 
d="M145 684q0 -267 2.5 -431t6.5 -203h43q14 0 24.5 -10.5t10.5 -24.5t-10.5 -24.5t-24.5 -10.5h-159q-14 0 -24.5 10.5t-10.5 24.5t10.5 24.5t24.5 10.5h48q-2 27 -4 74.5t-3.5 122.5t-2 182.5t-0.5 254.5h-57q-14 0 -24.5 10.5t-10.5 24.5t10.5 24t24.5 10h178
q14 0 24.5 -10t10.5 -24t-10.5 -24.5t-24.5 -10.5h-52zM109 855q21 0 36 -14.5t15 -35.5t-15 -36t-36 -15q-20 0 -35 15t-15 36t15 35.5t35 14.5z" />
    <glyph glyph-name="dotlessi.001" horiz-adv-x="219" 
d="M145 684q0 -267 2.5 -431t6.5 -203h43q14 0 24.5 -10.5t10.5 -24.5t-10.5 -24.5t-24.5 -10.5h-159q-14 0 -24.5 10.5t-10.5 24.5t10.5 24.5t24.5 10.5h48q-2 27 -4 74.5t-3.5 122.5t-2 182.5t-0.5 254.5h-57q-14 0 -24.5 10.5t-10.5 24.5t10.5 24t24.5 10h178
q14 0 24.5 -10t10.5 -24t-10.5 -24.5t-24.5 -10.5h-52z" />
    <glyph glyph-name="dotlessi" unicode="&#x131;" horiz-adv-x="219" 
d="M145 684q0 -267 2.5 -431t6.5 -203h43q14 0 24.5 -10.5t10.5 -24.5t-10.5 -24.5t-24.5 -10.5h-159q-14 0 -24.5 10.5t-10.5 24.5t10.5 24.5t24.5 10.5h48q-2 27 -4 74.5t-3.5 122.5t-2 182.5t-0.5 254.5h-57q-14 0 -24.5 10.5t-10.5 24.5t10.5 24t24.5 10h178
q14 0 24.5 -10t10.5 -24t-10.5 -24.5t-24.5 -10.5h-52zM109 855q21 0 36 -14.5t15 -35.5t-15 -36t-36 -15q-20 0 -35 15t-15 36t15 35.5t35 14.5z" />
    <glyph glyph-name="Jcircumflex" unicode="&#x134;" horiz-adv-x="207" 
d="M-10 162q2 13 12 23t24 10t24 -11t10 -25q-2 -29 1.5 -49.5t9.5 -33.5t14 -19t15 -7q6 -1 10 5t6 17q8 49 11.5 110t3.5 127q0 57 -1.5 114.5t-3.5 114.5q0 7 -0.5 13.5t-0.5 13.5l-4 119h-61q-14 0 -24.5 10.5t-10.5 24.5t10.5 24t24.5 10h96q14 0 24.5 -10t10.5 -24
q0 -37 1 -80t3 -89v-9l4 -117.5t2 -117.5q0 -66 -4 -130.5t-12 -113.5q-2 -20 -10 -35.5t-20 -26t-26 -15.5t-29 -5l-5 1q-21 1 -41 12.5t-35 34t-23.5 56t-5.5 78.5zM109 881q8 0 12 -2q6 -2 10 -5q18 -14 36 -30t36 -30q12 -11 14 -24.5t-8 -24.5l1 1q-5 -7 -13 -10.5
t-15 -3.5q-13 0 -22 6l-53 45l-62 -45q-9 -6 -20 -6q-7 0 -15 3t-13 11q-8 13 -5.5 27t13.5 22l91 64q4 0 7 1q1 0 3 0.5t3 0.5z" />
    <glyph glyph-name="jcircumflex" unicode="&#x135;" horiz-adv-x="207" 
d="M-10 162q2 13 12 23t24 10t24 -11t10 -25q-2 -29 1.5 -49.5t9.5 -33.5t14 -19t15 -7q6 -1 10 5t6 17q8 49 11.5 110t3.5 127q0 57 -1.5 114.5t-3.5 114.5q0 7 -0.5 13.5t-0.5 13.5l-4 119h-61q-14 0 -24.5 10.5t-10.5 24.5t10.5 24t24.5 10h96q14 0 24.5 -10t10.5 -24
q0 -37 1 -80t3 -89v-9l4 -117.5t2 -117.5q0 -66 -4 -130.5t-12 -113.5q-2 -20 -10 -35.5t-20 -26t-26 -15.5t-29 -5l-5 1q-21 1 -41 12.5t-35 34t-23.5 56t-5.5 78.5zM109 881q8 0 12 -2q6 -2 10 -5q18 -14 36 -30t36 -30q12 -11 14 -24.5t-8 -24.5l1 1q-5 -7 -13 -10.5
t-15 -3.5q-13 0 -22 6l-53 45l-62 -45q-9 -6 -20 -6q-7 0 -15 3t-13 11q-8 13 -5.5 27t13.5 22l91 64q4 0 7 1q1 0 3 0.5t3 0.5z" />
    <glyph glyph-name="Lacute" unicode="&#x139;" horiz-adv-x="194" 
d="M44 -17q-7 0 -13 5q-14 5 -16 11.5t-2 18.5q0 1 0.5 1t0.5 2q-3 18 -4.5 59.5t-2.5 121.5t-1.5 205t-0.5 310q0 16 10.5 25.5t24.5 9.5t24.5 -9.5t10.5 -25.5q0 -140 0.5 -254t1 -198.5t1.5 -139t2 -74.5h7q17 0 40 -0.5t53 -0.5q14 0 24 -10.5t10 -24.5t-10 -24.5
t-24 -10.5q-60 0 -91 0.5t-45 2.5zM53 760q-8 0 -15 2.5t-13 10.5q-9 11 -8 25t12 23l92 70q13 8 27 6t22 -14q8 -11 6 -24.5t-13 -22.5l-91 -69q-11 -7 -19 -7z" />
    <glyph glyph-name="lacute" unicode="&#x13a;" horiz-adv-x="194" 
d="M44 -17q-7 0 -13 5q-14 5 -16 11.5t-2 18.5q0 1 0.5 1t0.5 2q-3 18 -4.5 59.5t-2.5 121.5t-1.5 205t-0.5 310q0 16 10.5 25.5t24.5 9.5t24.5 -9.5t10.5 -25.5q0 -140 0.5 -254t1 -198.5t1.5 -139t2 -74.5h7q17 0 40 -0.5t53 -0.5q14 0 24 -10.5t10 -24.5t-10 -24.5
t-24 -10.5q-60 0 -91 0.5t-45 2.5zM53 760q-8 0 -15 2.5t-13 10.5q-9 11 -8 25t12 23l92 70q13 8 27 6t22 -14q8 -11 6 -24.5t-13 -22.5l-91 -69q-11 -7 -19 -7z" />
    <glyph glyph-name="Lcaron" unicode="&#x13d;" horiz-adv-x="194" 
d="M44 -17q-7 0 -13 5q-14 5 -16 11.5t-2 18.5q0 1 0.5 1t0.5 2q-3 18 -4.5 59.5t-2.5 121.5t-1.5 205t-0.5 310q0 16 10.5 25.5t24.5 9.5t24.5 -9.5t10.5 -25.5q0 -140 0.5 -254t1 -198.5t1.5 -139t2 -74.5h7q17 0 40 -0.5t53 -0.5q14 0 24 -10.5t10 -24.5t-10 -24.5
t-24 -10.5q-60 0 -91 0.5t-45 2.5zM178 786q18 -8 27 -32.5t4 -53.5q-7 -30 -26 -50t-42 -14l1 -1q-29 6 -27 18t15 32q0 1 2 3q-17 8 -25.5 24.5t-5.5 35.5q5 20 23 33.5t41 8.5h-2l7 -2l1 -1z" />
    <glyph glyph-name="lcaron" unicode="&#x13e;" horiz-adv-x="194" 
d="M44 -17q-7 0 -13 5q-14 5 -16 11.5t-2 18.5q0 1 0.5 1t0.5 2q-3 18 -4.5 59.5t-2.5 121.5t-1.5 205t-0.5 310q0 16 10.5 25.5t24.5 9.5t24.5 -9.5t10.5 -25.5q0 -140 0.5 -254t1 -198.5t1.5 -139t2 -74.5h7q17 0 40 -0.5t53 -0.5q14 0 24 -10.5t10 -24.5t-10 -24.5
t-24 -10.5q-60 0 -91 0.5t-45 2.5zM178 786q18 -8 27 -32.5t4 -53.5q-7 -30 -26 -50t-42 -14l1 -1q-29 6 -27 18t15 32q0 1 2 3q-17 8 -25.5 24.5t-5.5 35.5q5 20 23 33.5t41 8.5h-2l7 -2l1 -1z" />
    <glyph glyph-name="scaron" unicode="&#x161;" 
d="M157 -26q-24 0 -47.5 8.5t-43.5 23.5q-31 25 -47 60t-16 77q0 24 5 47q3 14 15 22t27 4q13 -4 21.5 -16t4.5 -26q-3 -14 -3 -31q0 -26 9 -46.5t27 -34.5q22 -18 47 -18q13 0 25 6q41 20 41 93q2 49 -25 93t-64 92l-17 23l-13 17l2 -2q-44 53 -63.5 110t-19.5 109
q0 32 6.5 61.5t20.5 52.5q20 29 48 45t57 16q17 0 34 -6q11 -4 27 -15t30.5 -32.5t24 -56.5t8.5 -86q0 -16 -9 -26.5t-28 -8.5q-14 2 -24 11.5t-8 26.5v-1q2 51 -9 82.5t-33 39.5q-15 5 -31 -1.5t-28 -23.5q-16 -29 -16 -78q0 -40 15 -85.5t52 -90.5l-1 1l6 -7l25 -33v1
l40 -54.5t33.5 -54t22 -57.5t6.5 -64q0 -38 -8.5 -65t-20.5 -45t-25.5 -28.5t-25.5 -15.5h1q-28 -13 -55 -13zM140 752q-8 0 -12 2q-5 0 -10 5l-73 59q-12 10 -13.5 24t8.5 26l-1 -1q5 7 12.5 10.5t15.5 3.5q10 0 25 -9l50 -42q14 11 30.5 22.5l30.5 21.5q10 7 21 7
q6 0 14 -3t14 -11q8 -13 5.5 -27t-13.5 -22l-81 -58q-4 -4 -7 -5.5t-11 -1.5q-1 0 -2 -0.5t-3 -0.5z" />
    <glyph glyph-name="Scaron" unicode="&#x160;" 
d="M157 -26q-24 0 -47.5 8.5t-43.5 23.5q-31 25 -47 60t-16 77q0 24 5 47q3 14 15 22t27 4q13 -4 21.5 -16t4.5 -26q-3 -14 -3 -31q0 -26 9 -46.5t27 -34.5q22 -18 47 -18q13 0 25 6q41 20 41 93q2 49 -25 93t-64 92l-17 23l-13 17l2 -2q-44 53 -63.5 110t-19.5 109
q0 32 6.5 61.5t20.5 52.5q20 29 48 45t57 16q17 0 34 -6q11 -4 27 -15t30.5 -32.5t24 -56.5t8.5 -86q0 -16 -9 -26.5t-28 -8.5q-14 2 -24 11.5t-8 26.5v-1q2 51 -9 82.5t-33 39.5q-15 5 -31 -1.5t-28 -23.5q-16 -29 -16 -78q0 -40 15 -85.5t52 -90.5l-1 1l6 -7l25 -33v1
l40 -54.5t33.5 -54t22 -57.5t6.5 -64q0 -38 -8.5 -65t-20.5 -45t-25.5 -28.5t-25.5 -15.5h1q-28 -13 -55 -13zM140 752q-8 0 -12 2q-5 0 -10 5l-73 59q-12 10 -13.5 24t8.5 26l-1 -1q5 7 12.5 10.5t15.5 3.5q10 0 25 -9l50 -42q14 11 30.5 22.5l30.5 21.5q10 7 21 7
q6 0 14 -3t14 -11q8 -13 5.5 -27t-13.5 -22l-81 -58q-4 -4 -7 -5.5t-11 -1.5q-1 0 -2 -0.5t-3 -0.5z" />
    <glyph glyph-name="scircumflex" unicode="&#x15d;" 
d="M157 -26q-24 0 -47.5 8.5t-43.5 23.5q-31 25 -47 60t-16 77q0 24 5 47q3 14 15 22t27 4q13 -4 21.5 -16t4.5 -26q-3 -14 -3 -31q0 -26 9 -46.5t27 -34.5q22 -18 47 -18q13 0 25 6q41 20 41 93q2 49 -25 93t-64 92l-17 23l-13 17l2 -2q-44 53 -63.5 110t-19.5 109
q0 32 6.5 61.5t20.5 52.5q20 29 48 45t57 16q17 0 34 -6q11 -4 27 -15t30.5 -32.5t24 -56.5t8.5 -86q0 -16 -9 -26.5t-28 -8.5q-14 2 -24 11.5t-8 26.5v-1q2 51 -9 82.5t-33 39.5q-15 5 -31 -1.5t-28 -23.5q-16 -29 -16 -78q0 -40 15 -85.5t52 -90.5l-1 1l6 -7l25 -33v1
l40 -54.5t33.5 -54t22 -57.5t6.5 -64q0 -38 -8.5 -65t-20.5 -45t-25.5 -28.5t-25.5 -15.5h1q-28 -13 -55 -13zM151 881q8 0 12 -2q6 -2 10 -5q18 -14 36 -30t36 -30q12 -11 14 -24.5t-8 -24.5l1 1q-5 -7 -13 -10.5t-15 -3.5q-13 0 -22 6l-53 45l-62 -45q-9 -6 -20 -6
q-7 0 -15 3t-13 11q-8 13 -5.5 27t13.5 22l91 64q4 0 7 1q1 0 3 0.5t3 0.5z" />
    <glyph glyph-name="Scircumflex" unicode="&#x15c;" 
d="M157 -26q-24 0 -47.5 8.5t-43.5 23.5q-31 25 -47 60t-16 77q0 24 5 47q3 14 15 22t27 4q13 -4 21.5 -16t4.5 -26q-3 -14 -3 -31q0 -26 9 -46.5t27 -34.5q22 -18 47 -18q13 0 25 6q41 20 41 93q2 49 -25 93t-64 92l-17 23l-13 17l2 -2q-44 53 -63.5 110t-19.5 109
q0 32 6.5 61.5t20.5 52.5q20 29 48 45t57 16q17 0 34 -6q11 -4 27 -15t30.5 -32.5t24 -56.5t8.5 -86q0 -16 -9 -26.5t-28 -8.5q-14 2 -24 11.5t-8 26.5v-1q2 51 -9 82.5t-33 39.5q-15 5 -31 -1.5t-28 -23.5q-16 -29 -16 -78q0 -40 15 -85.5t52 -90.5l-1 1l6 -7l25 -33v1
l40 -54.5t33.5 -54t22 -57.5t6.5 -64q0 -38 -8.5 -65t-20.5 -45t-25.5 -28.5t-25.5 -15.5h1q-28 -13 -55 -13zM151 881q8 0 12 -2q6 -2 10 -5q18 -14 36 -30t36 -30q12 -11 14 -24.5t-8 -24.5l1 1q-5 -7 -13 -10.5t-15 -3.5q-13 0 -22 6l-53 45l-62 -45q-9 -6 -20 -6
q-7 0 -15 3t-13 11q-8 13 -5.5 27t13.5 22l91 64q4 0 7 1q1 0 3 0.5t3 0.5z" />
    <glyph glyph-name="sacute" unicode="&#x15b;" 
d="M157 -26q-24 0 -47.5 8.5t-43.5 23.5q-31 25 -47 60t-16 77q0 24 5 47q3 14 15 22t27 4q13 -4 21.5 -16t4.5 -26q-3 -14 -3 -31q0 -26 9 -46.5t27 -34.5q22 -18 47 -18q13 0 25 6q41 20 41 93q2 49 -25 93t-64 92l-17 23l-13 17l2 -2q-44 53 -63.5 110t-19.5 109
q0 32 6.5 61.5t20.5 52.5q20 29 48 45t57 16q17 0 34 -6q11 -4 27 -15t30.5 -32.5t24 -56.5t8.5 -86q0 -16 -9 -26.5t-28 -8.5q-14 2 -24 11.5t-8 26.5v-1q2 51 -9 82.5t-33 39.5q-15 5 -31 -1.5t-28 -23.5q-16 -29 -16 -78q0 -40 15 -85.5t52 -90.5l-1 1l6 -7l25 -33v1
l40 -54.5t33.5 -54t22 -57.5t6.5 -64q0 -38 -8.5 -65t-20.5 -45t-25.5 -28.5t-25.5 -15.5h1q-28 -13 -55 -13zM102 760q-8 0 -15 2.5t-13 10.5q-9 11 -8 25t12 23l92 70q13 8 27 6t22 -14q8 -11 6 -24.5t-13 -22.5l-91 -69q-11 -7 -19 -7z" />
    <glyph glyph-name="Sacute" unicode="&#x15a;" 
d="M157 -26q-24 0 -47.5 8.5t-43.5 23.5q-31 25 -47 60t-16 77q0 24 5 47q3 14 15 22t27 4q13 -4 21.5 -16t4.5 -26q-3 -14 -3 -31q0 -26 9 -46.5t27 -34.5q22 -18 47 -18q13 0 25 6q41 20 41 93q2 49 -25 93t-64 92l-17 23l-13 17l2 -2q-44 53 -63.5 110t-19.5 109
q0 32 6.5 61.5t20.5 52.5q20 29 48 45t57 16q17 0 34 -6q11 -4 27 -15t30.5 -32.5t24 -56.5t8.5 -86q0 -16 -9 -26.5t-28 -8.5q-14 2 -24 11.5t-8 26.5v-1q2 51 -9 82.5t-33 39.5q-15 5 -31 -1.5t-28 -23.5q-16 -29 -16 -78q0 -40 15 -85.5t52 -90.5l-1 1l6 -7l25 -33v1
l40 -54.5t33.5 -54t22 -57.5t6.5 -64q0 -38 -8.5 -65t-20.5 -45t-25.5 -28.5t-25.5 -15.5h1q-28 -13 -55 -13zM102 760q-8 0 -15 2.5t-13 10.5q-9 11 -8 25t12 23l92 70q13 8 27 6t22 -14q8 -11 6 -24.5t-13 -22.5l-91 -69q-11 -7 -19 -7z" />
    <glyph glyph-name="rcaron" unicode="&#x159;" horiz-adv-x="294" 
d="M204 383q-12 -15 -26 -29q4 -22 13.5 -64.5t24 -89.5t34 -91t43.5 -68q9 -10 9.5 -22.5t-7.5 -22.5q-10 -13 -27 -13q-14 0 -24 10q-26 27 -47 68.5t-37 87.5t-27 89.5t-18 74.5q-18 -7 -38 -9q2 -116 3.5 -187t4.5 -89q2 -3 2.5 -5.5t0.5 -7.5q0 -14 -10.5 -24.5
t-24.5 -10.5q-7 0 -13.5 3.5t-12 24t-9.5 65t-7 126.5t-4.5 208.5t-1.5 311.5q0 8 3 12q0 5 7 12q10 10 25 10q44 0 77 -9.5t56 -25t38 -34t24 -36.5q22 -43 22 -100q0 -43 -13.5 -86t-39.5 -79zM74 681v-162t1 -144q26 4 44 19.5t29 29.5q19 27 29.5 59.5t10.5 64.5
q0 39 -15 69q-27 53 -99 64zM76 354q0 5 -0.5 10.5t-0.5 10.5q-5 -1 -9 -1.5t-9 0.5zM141 752q-8 0 -12 2q-5 0 -10 5l-73 59q-12 10 -13.5 24t8.5 26l-1 -1q5 7 12.5 10.5t15.5 3.5q10 0 25 -9l50 -42q14 11 30.5 22.5l30.5 21.5q10 7 21 7q6 0 14 -3t14 -11q8 -13 5.5 -27
t-13.5 -22l-81 -58q-4 -4 -7 -5.5t-11 -1.5q-1 0 -2 -0.5t-3 -0.5z" />
    <glyph glyph-name="Rcaron" unicode="&#x158;" horiz-adv-x="294" 
d="M204 383q-12 -15 -26 -29q4 -22 13.5 -64.5t24 -89.5t34 -91t43.5 -68q9 -10 9.5 -22.5t-7.5 -22.5q-10 -13 -27 -13q-14 0 -24 10q-26 27 -47 68.5t-37 87.5t-27 89.5t-18 74.5q-18 -7 -38 -9q2 -116 3.5 -187t4.5 -89q2 -3 2.5 -5.5t0.5 -7.5q0 -14 -10.5 -24.5
t-24.5 -10.5q-7 0 -13.5 3.5t-12 24t-9.5 65t-7 126.5t-4.5 208.5t-1.5 311.5q0 8 3 12q0 5 7 12q10 10 25 10q44 0 77 -9.5t56 -25t38 -34t24 -36.5q22 -43 22 -100q0 -43 -13.5 -86t-39.5 -79zM74 681v-162t1 -144q26 4 44 19.5t29 29.5q19 27 29.5 59.5t10.5 64.5
q0 39 -15 69q-27 53 -99 64zM76 354q0 5 -0.5 10.5t-0.5 10.5q-5 -1 -9 -1.5t-9 0.5zM141 752q-8 0 -12 2q-5 0 -10 5l-73 59q-12 10 -13.5 24t8.5 26l-1 -1q5 7 12.5 10.5t15.5 3.5q10 0 25 -9l50 -42q14 11 30.5 22.5l30.5 21.5q10 7 21 7q6 0 14 -3t14 -11q8 -13 5.5 -27
t-13.5 -22l-81 -58q-4 -4 -7 -5.5t-11 -1.5q-1 0 -2 -0.5t-3 -0.5z" />
    <glyph glyph-name="racute" unicode="&#x155;" horiz-adv-x="294" 
d="M204 383q-12 -15 -26 -29q4 -22 13.5 -64.5t24 -89.5t34 -91t43.5 -68q9 -10 9.5 -22.5t-7.5 -22.5q-10 -13 -27 -13q-14 0 -24 10q-26 27 -47 68.5t-37 87.5t-27 89.5t-18 74.5q-18 -7 -38 -9q2 -116 3.5 -187t4.5 -89q2 -3 2.5 -5.5t0.5 -7.5q0 -14 -10.5 -24.5
t-24.5 -10.5q-7 0 -13.5 3.5t-12 24t-9.5 65t-7 126.5t-4.5 208.5t-1.5 311.5q0 8 3 12q0 5 7 12q10 10 25 10q44 0 77 -9.5t56 -25t38 -34t24 -36.5q22 -43 22 -100q0 -43 -13.5 -86t-39.5 -79zM74 681v-162t1 -144q26 4 44 19.5t29 29.5q19 27 29.5 59.5t10.5 64.5
q0 39 -15 69q-27 53 -99 64zM76 354q0 5 -0.5 10.5t-0.5 10.5q-5 -1 -9 -1.5t-9 0.5zM103 760q-8 0 -15 2.5t-13 10.5q-9 11 -8 25t12 23l92 70q13 8 27 6t22 -14q8 -11 6 -24.5t-13 -22.5l-91 -69q-11 -7 -19 -7z" />
    <glyph glyph-name="Racute" unicode="&#x154;" horiz-adv-x="294" 
d="M204 383q-12 -15 -26 -29q4 -22 13.5 -64.5t24 -89.5t34 -91t43.5 -68q9 -10 9.5 -22.5t-7.5 -22.5q-10 -13 -27 -13q-14 0 -24 10q-26 27 -47 68.5t-37 87.5t-27 89.5t-18 74.5q-18 -7 -38 -9q2 -116 3.5 -187t4.5 -89q2 -3 2.5 -5.5t0.5 -7.5q0 -14 -10.5 -24.5
t-24.5 -10.5q-7 0 -13.5 3.5t-12 24t-9.5 65t-7 126.5t-4.5 208.5t-1.5 311.5q0 8 3 12q0 5 7 12q10 10 25 10q44 0 77 -9.5t56 -25t38 -34t24 -36.5q22 -43 22 -100q0 -43 -13.5 -86t-39.5 -79zM74 681v-162t1 -144q26 4 44 19.5t29 29.5q19 27 29.5 59.5t10.5 64.5
q0 39 -15 69q-27 53 -99 64zM76 354q0 5 -0.5 10.5t-0.5 10.5q-5 -1 -9 -1.5t-9 0.5zM103 760q-8 0 -15 2.5t-13 10.5q-9 11 -8 25t12 23l92 70q13 8 27 6t22 -14q8 -11 6 -24.5t-13 -22.5l-91 -69q-11 -7 -19 -7z" />
    <glyph glyph-name="ohungarumlaut" unicode="&#x151;" horiz-adv-x="272" 
d="M272 358q1 -82 -7.5 -151t-24 -119.5t-38.5 -80t-51 -33.5h-9q-14 0 -30 7t-32.5 26.5t-32.5 53t-31 86.5q-7 26 -9 62t-2 78q0 48 2 98.5t4 92.5q3 52 3 81q0 66 20 117t55 71h-1q18 12 41 12q9 0 20 -3.5t20 -8.5q50 -31 77 -132.5t26 -256.5zM141 44q10 1 21.5 21
t20.5 59t14.5 97t4.5 137q1 80 -5 138.5t-15.5 98.5t-22 62.5t-25.5 29.5q-5 3 -11 0l1 1q-15 -9 -28 -42t-12 -87q0 -14 -0.5 -36t-2.5 -48l-4.5 -89.5t-2.5 -95.5q0 -38 2 -72t7 -54q17 -61 33 -91.5t24 -28.5h1zM31 760q-8 0 -15 2.5t-13 10.5q-9 11 -8 25t12 23l92 70
q13 8 27 6t22 -14q8 -11 6 -24.5t-13 -22.5l-91 -69q-11 -7 -19 -7zM153 760q-8 0 -15.5 2.5t-13.5 10.5q-8 11 -7 25t12 23l92 70q13 8 27 6t22 -14q8 -11 6 -24.5t-13 -22.5l-91 -69q-11 -7 -19 -7z" />
    <glyph glyph-name="Ohungarumlaut" unicode="&#x150;" horiz-adv-x="272" 
d="M272 358q1 -82 -7.5 -151t-24 -119.5t-38.5 -80t-51 -33.5h-9q-14 0 -30 7t-32.5 26.5t-32.5 53t-31 86.5q-7 26 -9 62t-2 78q0 48 2 98.5t4 92.5q3 52 3 81q0 66 20 117t55 71h-1q18 12 41 12q9 0 20 -3.5t20 -8.5q50 -31 77 -132.5t26 -256.5zM141 44q10 1 21.5 21
t20.5 59t14.5 97t4.5 137q1 80 -5 138.5t-15.5 98.5t-22 62.5t-25.5 29.5q-5 3 -11 0l1 1q-15 -9 -28 -42t-12 -87q0 -14 -0.5 -36t-2.5 -48l-4.5 -89.5t-2.5 -95.5q0 -38 2 -72t7 -54q17 -61 33 -91.5t24 -28.5h1zM31 760q-8 0 -15 2.5t-13 10.5q-9 11 -8 25t12 23l92 70
q13 8 27 6t22 -14q8 -11 6 -24.5t-13 -22.5l-91 -69q-11 -7 -19 -7zM153 760q-8 0 -15.5 2.5t-13.5 10.5q-8 11 -7 25t12 23l92 70q13 8 27 6t22 -14q8 -11 6 -24.5t-13 -22.5l-91 -69q-11 -7 -19 -7z" />
    <glyph glyph-name="obreve" unicode="&#x14f;" horiz-adv-x="272" 
d="M272 358q1 -82 -7.5 -151t-24 -119.5t-38.5 -80t-51 -33.5h-9q-14 0 -30 7t-32.5 26.5t-32.5 53t-31 86.5q-7 26 -9 62t-2 78q0 48 2 98.5t4 92.5q3 52 3 81q0 66 20 117t55 71h-1q18 12 41 12q9 0 20 -3.5t20 -8.5q50 -31 77 -132.5t26 -256.5zM141 44q10 1 21.5 21
t20.5 59t14.5 97t4.5 137q1 80 -5 138.5t-15.5 98.5t-22 62.5t-25.5 29.5q-5 3 -11 0l1 1q-15 -9 -28 -42t-12 -87q0 -14 -0.5 -36t-2.5 -48l-4.5 -89.5t-2.5 -95.5q0 -38 2 -72t7 -54q17 -61 33 -91.5t24 -28.5h1zM133 754q-22 0 -45.5 12.5t-42.5 32.5q-10 12 -8.5 26
t11.5 22q9 8 23 8t24 -11v1q23 -23 39 -23q20 0 46 22q11 9 25 8.5t23 -11.5q8 -11 6.5 -25.5t-10.5 -22.5q-48 -39 -91 -39z" />
    <glyph glyph-name="Obreve" unicode="&#x14e;" horiz-adv-x="272" 
d="M272 358q1 -82 -7.5 -151t-24 -119.5t-38.5 -80t-51 -33.5h-9q-14 0 -30 7t-32.5 26.5t-32.5 53t-31 86.5q-7 26 -9 62t-2 78q0 48 2 98.5t4 92.5q3 52 3 81q0 66 20 117t55 71h-1q18 12 41 12q9 0 20 -3.5t20 -8.5q50 -31 77 -132.5t26 -256.5zM141 44q10 1 21.5 21
t20.5 59t14.5 97t4.5 137q1 80 -5 138.5t-15.5 98.5t-22 62.5t-25.5 29.5q-5 3 -11 0l1 1q-15 -9 -28 -42t-12 -87q0 -14 -0.5 -36t-2.5 -48l-4.5 -89.5t-2.5 -95.5q0 -38 2 -72t7 -54q17 -61 33 -91.5t24 -28.5h1zM133 754q-22 0 -45.5 12.5t-42.5 32.5q-10 12 -8.5 26
t11.5 22q9 8 23 8t24 -11v1q23 -23 39 -23q20 0 46 22q11 9 25 8.5t23 -11.5q8 -11 6.5 -25.5t-10.5 -22.5q-48 -39 -91 -39z" />
    </font>
</defs>
</svg>
