<svg xmlns="http://www.w3.org/2000/svg" width="64" height="64" viewBox="0 0 64 64">
    <g fill="#1A1A1A" fill-rule="evenodd">
        <path fill-rule="nonzero" d="M43.963 53.379H25.627c-.27 0-.488-.219-.488-.488 0-.138.057-.262.15-.35l4.694-4.695c-.052-.046-.096-.104-.125-.172l-3.833-8.729L2.499 62.471h5.913v-2.965c0-.202.164-.366.366-.366.202 0 .366.164.366.366v2.965H12.3v-1.309c0-.202.164-.366.366-.366.203 0 .366.164.366.366v1.309h3.156v-2.965c0-.202.164-.366.366-.366.202 0 .366.164.366.366v2.965h3.156v-1.309c0-.202.163-.366.366-.366.202 0 .366.164.366.366v1.309h3.155v-2.965c0-.202.164-.366.366-.366.202 0 .366.164.366.366v2.965h3.156v-1.309c0-.202.164-.366.366-.366.202 0 .366.164.366.366v1.309h3.155v-2.965c0-.202.164-.366.366-.366.202 0 .366.164.366.366v2.965h3.155v-1.309c0-.202.164-.366.366-.366.203 0 .367.164.367.366v1.309h3.155v-2.965c0-.202.164-.366.366-.366.202 0 .366.164.366.366v2.965H43.4v-1.309c0-.202.164-.366.366-.366.202 0 .366.164.366.366v1.309h3.156v-2.965c0-.128.065-.24.163-.305l-2.938-2.939c-.508-.508-.762-1.177-.762-1.845 0-.354.07-.708.213-1.038zm-12.869-6.56c.036-.01.073-.017.11-.019 7.577-1.314 12.302 3.49 13.782 5.298l7.111-7.111c-1.808-1.48-6.612-6.206-5.297-13.782.002-.038.008-.075.019-.11.03-.168.062-.336.098-.506l-8.975-3.941c-.149-.015-.294-.076-.413-.182l-18.8-8.254L33.22 32.7c.55-.434 1.216-.65 1.882-.65.78 0 1.561.297 2.157.893.596.596.894 1.377.894 2.157s-.298 1.562-.894 2.157c-.596.596-1.376.894-2.157.894-.78 0-1.562-.298-2.157-.894-.596-.595-.894-1.376-.894-2.157 0-.666.217-1.332.65-1.883L18.213 18.73l6.326 14.408c.01.017.017.036.024.055l6.026 13.725c.17-.036.339-.069.506-.1zm.373.922l-4.661 4.662h17.17c-1.598-1.841-5.867-5.766-12.509-4.662zm20.936-20.936l-4.662 4.663c-1.105 6.642 2.82 10.912 4.662 12.508v-17.17zm.143-1.523c.19-.19.5-.19.69 0 .095.096.143.22.143.345v18.336c.33-.142.684-.213 1.038-.213.668 0 1.337.254 1.845.761l2.939 2.94c.065-.1.177-.164.305-.164h2.965V44.13h-1.309c-.202 0-.366-.164-.366-.366 0-.202.164-.366.366-.366h1.309v-3.155h-2.965c-.202 0-.366-.164-.366-.366 0-.202.164-.366.366-.366h2.965v-3.155h-1.309c-.202 0-.366-.164-.366-.367 0-.202.164-.366.366-.366h1.309V32.47h-2.965c-.202 0-.366-.164-.366-.366 0-.202.164-.366.366-.366h2.965v-3.155h-1.309c-.202 0-.366-.164-.366-.366 0-.203.164-.366.366-.366h1.309v-3.156h-2.965c-.202 0-.366-.164-.366-.366 0-.202.164-.366.366-.366h2.965v-3.156h-1.309c-.202 0-.366-.164-.366-.366 0-.202.164-.366.366-.366h1.309V16.92h-2.965c-.202 0-.366-.164-.366-.366 0-.202.164-.366.366-.366h2.965v-3.156h-1.309c-.202 0-.366-.163-.366-.366 0-.202.164-.366.366-.366h1.309V9.144h-2.965c-.202 0-.366-.164-.366-.366 0-.202.164-.366.366-.366h2.965V2.5L38.945 26.025l8.729 3.833c.067.03.125.072.17.125l4.702-4.7zm-15.04.111l3.292-3.291v-1.396h1.396l.497-.498c-.292-4.15-2.01-7.909-4.668-10.788C35.33 6.5 31.673 4.487 27.56 3.883V5.46h-5.218V3.883c-4.177.613-7.882 2.679-10.586 5.669-2.693 2.976-4.391 6.869-4.574 11.154h2.037v5.217H7.734c.116.443.242.87.38 1.283.169.503.354.988.56 1.455l8.712 16.853 7.899-7.9c.036-.035.074-.066.115-.093l-1.625-3.7c-2.868-.292-5.426-1.635-7.282-3.64-1.905-2.056-3.069-4.807-3.069-7.827 0-3.183 1.29-6.065 3.376-8.15 2.086-2.087 4.968-3.377 8.15-3.377 3.184 0 6.066 1.29 8.151 3.376 2.086 2.086 3.376 4.968 3.376 8.15 0 .48-.031.965-.092 1.45h.002c-.043.341-.102.682-.177 1.021l1.296.57zM23.318 32.78l-6.905-15.725c-.052-.12-.056-.26 0-.39.107-.245.394-.358.64-.25l18.246 8.01c.048-.24.088-.487.12-.739h.001c.054-.425.081-.87.081-1.331 0-2.914-1.18-5.552-3.09-7.46-1.909-1.91-4.547-3.09-7.46-3.09-2.914 0-5.552 1.18-7.46 3.09-1.91 1.908-3.09 4.546-3.09 7.46 0 2.769 1.064 5.288 2.805 7.168 1.577 1.703 3.71 2.884 6.112 3.257zM62.47 48.02h-2.702l2.702 2.701V48.02zm1.464 4.467v10.717c0 .404-.328.732-.732.732H.732c-.404 0-.732-.328-.732-.732 0-.202.082-.385.214-.518l16.088-16.087-8.923-17.261c-.014-.029-.027-.058-.038-.088-.23-.524-.433-1.05-.61-1.58-.189-.562-.35-1.124-.492-1.692l-.012-.054H4.001v-5.217h1.721c.184-4.662 2.026-8.897 4.953-12.132 2.196-2.429 5.004-4.294 8.181-5.354H5.462V5.46H.244V.244h5.218v2.243h16.36c.172-.028.346-.054.52-.077V.244h5.218v2.165c.175.024.349.05.522.078H44.44V.244h5.218V5.46H44.44V3.22H31.047c3.115 1.039 5.875 2.852 8.052 5.21 2.61 2.828 4.382 6.442 4.923 10.448L62.685.214c.286-.285.75-.285 1.035 0 .143.143.215.33.215.518v51.754zm-1.464 1.769l-.807.807h.807v-.807zm0 1.539h-1.54l-5.137 5.138v1.539h3.155v-1.309c0-.202.164-.366.366-.366.203 0 .366.164.366.366v1.309h2.79v-6.677zm-7.41 6.677v-.807l-.806.807h.807zm-4.34 0l-2.702-2.702v2.702h2.701zm2.887-16.924l-8.061 8.06c-.222.223-.333.516-.333.81 0 .294.11.588.333.81l6.94 6.94 9.68-9.68-6.94-6.94c-.222-.222-.516-.334-.81-.334-.294 0-.587.112-.81.334zM35.1 33.027c-.531 0-1.062.202-1.467.607-.405.405-.608.936-.608 1.467s.203 1.062.608 1.467c.405.405.936.608 1.467.608s1.062-.203 1.467-.608c.405-.405.608-.936.608-1.467 0-.53-.203-1.062-.608-1.467-.405-.405-.936-.607-1.467-.607zM8.242 21.682H4.977v3.265h3.265v-3.265zM26.583 1.22h-3.265v3.265h3.265V1.22zm-22.098 0H1.22v3.265h3.265V1.22zm44.196 0h-3.265v3.265h3.265V1.22z"/>
        <path d="M23.003.6H27.189V5.085H23.003zM45.214.6H49.4V5.085H45.214zM.792.6H4.978V5.085H.792z"/>
    </g>
</svg>
