<svg xmlns="http://www.w3.org/2000/svg" width="64" height="64" viewBox="0 0 64 64">
    <g fill="none" fill-rule="evenodd">
        <path fill="#1A1A1A" fill-rule="nonzero" d="M31.676.062l.023-.01h.001l.01-.004.007-.003.004-.001.011-.004.003-.001.032-.01.014-.004h.003c.028-.008.057-.014.086-.017.018-.003.035-.005.053-.006l.017-.001H31.994l.017.001h.001l.053.005c.029.004.057.01.086.017l.003.001.014.004.032.01.002.001.012.004.004.001.006.003.01.003.002.001.023.01 31.184 13.643c.286.1.492.371.492.691v35.14h-.002c0 .282-.164.55-.439.67L32.312 63.848c-.103.055-.22.086-.345.086-.124 0-.24-.031-.343-.086L.492 50.228c-.287-.1-.492-.372-.492-.692v-35.14h.002V14.37l.001-.013c.004-.068.017-.137.041-.204l.005-.012v-.001l.004-.012.01-.023.01-.022v-.002l.006-.01v-.002l.007-.011.012-.023.007-.012v-.001l.007-.01c.02-.034.044-.065.07-.095l.008-.01.002-.002.007-.007.005-.006.004-.004.008-.008.001-.001.01-.01.002-.002.007-.007.006-.005.004-.004.01-.008.026-.022.005-.003.01-.008.057-.038h.001l.015-.01.008-.004.008-.004.004-.003.011-.005.002-.001.037-.018L31.676.062zM32.7 62.085l29.136-12.747-.121-.053c-.32-.144-.282-.603.063-.692.077-.017.158-.011.23.021l.463.203V15.513l-20.94 9.162 3.713 1.625c.192.066.33.248.33.461V41.52h-.002c0 .187-.11.366-.293.446L32.7 47.469v14.616zM31.235 32.71l-11.897-5.205v13.492l.026-.013 1.342-.586c.053-.025.108-.032.166-.03.383.023.48.541.127.7l-.981.43 11.217 4.907V32.711zM32.7 46.406L43.917 41.5l-.981-.43c-.32-.144-.282-.602.064-.692.076-.017.158-.01.23.022l1.34.586.027.013V27.506L32.7 32.711v13.695zm-1.465 1.063L18.69 41.98c-.19-.066-.328-.248-.328-.461V26.76h.001v-.017l.001-.017v-.007l.001-.002c.004-.04.012-.08.026-.119l.003-.008.007-.016.003-.008.003-.008.002-.003.002-.005.003-.007h.001l.004-.008.004-.008.003-.005.001-.003.005-.007v-.001l.004-.007.005-.007.004-.007.005-.008.01-.014.006-.007.005-.006.006-.007.005-.006.006-.007.002-.002.004-.005.004-.003.002-.003.006-.006.007-.007.002-.001.004-.005.004-.003.003-.003.006-.005.007-.006.002-.002h.001l.008-.007.004-.002.006-.005.008-.006.001-.001.01-.007.004-.002.006-.004.001-.001.008-.005.008-.005.003-.001.005-.003.005-.003.003-.002.007-.003.021-.01.006-.003 3.749-1.64-20.94-9.162v33.304l.462-.203c.054-.024.108-.032.166-.03.383.024.48.542.127.701l-.12.053 29.135 12.747V47.469zm-7.009-23.59l7.402-3.24c-.017-.041-.027-.089-.027-.141v-1.464c0-.048.01-.094.028-.139.162-.375.705-.253.705.139v1.464c0 .048-.01.093-.028.138v.003l7.403 3.24 21.672-9.483L31.967 1.528 2.553 14.396l21.673 9.482zm1.214.53l6.527 2.856 6.528-2.856-6.528-2.855-6.527 2.855zm7.26 4.13v3.11l11.17-4.888-3.554-1.555-7.616 3.332zm-1.465 3.11v-3.11l-7.616-3.333-3.555 1.555 11.171 4.888zm-.846 5.312c.352-.159.256-.677-.127-.7-.059-.003-.113.005-.167.03l-1.341.587c-.298.134-.291.55.011.675.093.034.19.037.282-.005l1.342-.587zm-4.695 2.054c.352-.159.256-.677-.127-.7-.059-.002-.113.005-.167.03l-1.34.586c-.298.135-.292.55.01.676.094.034.19.037.282-.005l1.342-.587zm-9.39 4.108c.353-.159.256-.677-.127-.7-.058-.002-.112.005-.166.03l-1.342.586c-.297.135-.29.55.012.676.093.034.19.037.282-.005l1.341-.587zm-4.694 2.054c.352-.159.256-.677-.127-.7-.059-.002-.113.005-.167.03l-1.341.586c-.297.135-.291.55.011.676.094.034.19.036.282-.005l1.342-.587zm-4.695 2.054c.352-.159.256-.677-.127-.7-.058-.003-.113.005-.167.03l-1.341.586c-.297.134-.29.55.011.676.094.034.19.036.283-.005l1.341-.587zm26.925-10.94c-.072-.033-.154-.039-.23-.022-.346.09-.384.548-.064.692l1.342.587c.071.033.153.038.23.021.345-.089.383-.547.063-.691l-1.341-.587zm4.695 2.054c-.072-.033-.154-.039-.23-.022-.346.09-.384.548-.064.692l1.342.587c.071.033.153.038.23.021.345-.089.383-.547.063-.692l-1.341-.586zm9.39 4.108c-.073-.033-.155-.039-.23-.021-.346.089-.384.547-.064.691l1.341.587c.072.032.154.038.23.021.345-.089.383-.547.064-.692l-1.342-.586zm4.694 2.054c-.072-.033-.154-.039-.23-.022-.345.09-.384.548-.064.692l1.342.587c.072.032.154.038.23.021.345-.09.383-.547.063-.692l-1.341-.586zm4.695 2.053c-.072-.032-.154-.038-.23-.02-.346.088-.384.547-.064.691l1.341.587c.072.032.154.038.23.02.346-.088.384-.546.064-.69l-1.341-.588zm-24.98-42.9c0-.392-.543-.514-.705-.138-.019.045-.028.09-.028.138v1.465c0 .391.543.514.705.138.018-.045.028-.09.028-.138V3.66zm0 5.125c0-.392-.543-.514-.705-.138-.019.044-.028.09-.028.138v1.464c0 .392.543.514.705.138.018-.045.028-.09.028-.138V8.785zm0 5.124c0-.392-.543-.514-.705-.138-.019.045-.028.09-.028.138v1.464c0 .392.543.514.705.139.018-.045.028-.09.028-.139V13.91zm0 10.25c0-.393-.543-.515-.705-.14-.019.046-.028.09-.028.14v1.463c0 .392.543.514.705.138.018-.044.028-.09.028-.138v-1.464z"/>
        <path fill="#0D0D0E" d="M38.59 29.766L38.575 43.957 45.11 41.545 45.269 26.96z"/>
    </g>
</svg>
