<svg xmlns="http://www.w3.org/2000/svg" width="64" height="64" viewBox="0 0 64 64">
    <g fill="none" fill-rule="evenodd">
        <path fill="#1A1A1A" fill-rule="nonzero" d="M49.521 55.313H54.5V56.573H49.521zM41.554 55.313H46.533V56.573H41.554zM33.587 55.313H38.566V56.573H33.587zM25.62 55.313H30.599V56.573H25.62zM17.653 55.313H22.631999999999998V56.573H17.653zM9.685 55.313H14.664000000000001V56.573H9.685zM49.521 23.5H54.5V24.76H49.521zM41.554 23.5H46.533V24.76H41.554zM33.587 23.5H38.566V24.76H33.587zM25.62 23.5H30.599V24.76H25.62zM17.653 23.5H22.631999999999998V24.76H17.653zM9.685 23.5H14.664000000000001V24.76H9.685zM34.831 43.186H37.287000000000006V48.636H34.831zM38.822 40.071H41.278000000000006V48.635999999999996H38.822zM42.812 36.568H45.268V48.637H42.812zM46.803 33.064H49.259V48.637H46.803zM50.794 30.727H53.25V48.635000000000005H50.794zM28.297 40.035c0-.454-.042-.896-.103-1.333-.014-.101-.029-.202-.045-.301-.073-.426-.167-.844-.294-1.25-.013-.045-.032-.087-.047-.13-.123-.374-.271-.734-.437-1.084-.039-.08-.075-.163-.114-.242-.19-.373-.4-.733-.635-1.074-.038-.055-.079-.105-.117-.16-.22-.306-.46-.6-.714-.878-.047-.052-.092-.106-.14-.156-.29-.303-.598-.584-.923-.844-.058-.047-.118-.09-.177-.134-.31-.237-.633-.457-.972-.654-.038-.022-.073-.047-.112-.069-.37-.208-.755-.387-1.153-.544-.033-.013-.063-.033-.097-.045l-.003.008c-1.032-.394-2.146-.62-3.314-.62-5.191 0-9.4 4.26-9.4 9.512 0 1.923.569 3.712 1.54 5.208l-.003.001c.007.009.014.017.02.027.2.306.415.6.648.879.03.035.062.068.093.103.2.233.41.456.631.668.07.066.142.13.214.196.197.179.401.348.613.509.077.06.153.12.232.176.258.184.525.357.8.514.033.018.062.04.094.058.312.173.633.326.964.462.084.036.172.063.256.096.248.095.5.18.758.253.115.033.23.062.345.09.25.06.5.108.757.148.11.018.22.038.332.052.364.043.732.072 1.107.072 5.187-.003 9.396-4.26 9.396-9.514zm-5.193-7.054c.163.1.323.201.478.312.084.06.167.125.249.189.157.12.308.247.455.38.065.057.129.115.192.175.168.162.33.33.484.504l.102.114c.588.69 1.063 1.475 1.4 2.322v.001c.107.268.196.542.275.82l.046.18c.056.218.103.44.142.664l.02.135h-6.25l2.205-5.92c.07.04.134.082.202.124zm-5.058 15.26c-.09-.008-.176-.029-.264-.04-.19-.026-.378-.052-.563-.09-.117-.026-.23-.061-.346-.091-.15-.04-.3-.076-.447-.122-.135-.045-.267-.099-.4-.15-.12-.044-.24-.087-.359-.139-.144-.063-.285-.136-.425-.208-.1-.05-.199-.098-.296-.153-.145-.082-.286-.172-.426-.262-.085-.056-.171-.11-.256-.17-.138-.096-.271-.2-.403-.304-.081-.064-.162-.13-.24-.198-.124-.107-.245-.218-.362-.331-.082-.08-.163-.161-.241-.244-.059-.062-.113-.125-.17-.188l6.422-4.255h7.678l-.016.111c-.071.427-.172.844-.305 1.247-.022.064-.046.126-.069.189-.147.41-.319.806-.525 1.183-.019.034-.04.065-.06.098-.215.38-.458.744-.73 1.084-.012.016-.023.033-.036.048-.273.338-.577.648-.9.937-.042.04-.083.08-.127.118-.314.272-.653.516-1.007.738l-.181.112c-.356.21-.73.394-1.118.549-.065.026-.13.049-.197.073-.4.147-.812.268-1.239.351-.05.01-.102.015-.153.024-.452.08-.913.129-1.388.129-.286 0-.57-.015-.851-.046zm.851-8.206l-6.816 4.517c-.844-1.298-1.339-2.849-1.339-4.517 0-4.55 3.659-8.25 8.155-8.25 1.014 0 1.98.196 2.875.538l-2.875 7.712h8.155-8.155z"/>
        <path stroke="#0D0D0E" stroke-width="1.5" d="M.75 20.75H63.25V59.25H.75zM.75 4.75H63.25V15.404H.75z"/>
        <path fill="#0D0D0E" d="M6.754 8.908H9.754V11.908H6.754zM11.754 8.908H14.754V11.908H11.754zM16.754 8.908H19.754V11.908H16.754z"/>
    </g>
</svg>
