<svg xmlns="http://www.w3.org/2000/svg" width="24" height="24" viewBox="0 0 24 24">
    <path fill="#1D1E29" fill-rule="evenodd" d="M12.421 5.571h4.904V1.129h-4.904v4.442zm-5.677 0h4.904V1.129H6.744v4.442zm11.354 6.06V.355H5.971v11.276h.773V6.346h4.904v5.285h.773V6.346h4.904v5.285h.773zm4.138 7.994l-.012.028c-.044.099-.09.202-.136.312-.173.407-.364.954-.462 1.244l-.023.067h-1.687l.03-.124c.068-.273.167-.641.251-.84.251-.589.448-1.457.448-1.975 0-.537-.248-2.383-.547-3.341-.135-.429-.21-1.011-.25-1.424l-.012-.109h1.703l.013.085c.057.393.168 1 .372 1.654.406 1.296.69 2.584.69 3.132 0 .44-.15.778-.378 1.291zM2.457 23.226h19.155v-1.175H2.457v1.175zm-.476-3.261c-.046-.108-.09-.208-.134-.306l-.015-.034c-.227-.514-.376-.852-.376-1.291 0-.549.283-1.837.688-3.133.205-.655.316-1.261.372-1.653l.013-.085h1.702l-.01.109c-.04.41-.115.99-.25 1.424-.3.957-.547 2.803-.547 3.341 0 .519.196 1.388.447 1.975.068.158.152.441.251.84l.03.124H2.466l-.023-.067c-.099-.292-.29-.842-.462-1.244zM5 13.554l.008-.091h1.701l-.006.104c-.018.333-.069 1.142-.167 1.454-.207.664-.37 2.988-.37 3.32 0 .312.128 1.592.308 2.016.055.133.132.607.162.804l.018.115H4.947l-.018-.077c-.09-.381-.222-.896-.346-1.189-.206-.483-.386-1.264-.386-1.673 0-.46.247-2.266.512-3.111.171-.548.255-1.283.29-1.672zm2.274 1.698c.092-.292.164-.894.204-1.694l.004-.095H9.18l-.002.101c-.013.606-.04 1.313-.077 1.482-.12.419-.19 3.087-.194 3.299.003.184.05 1.663.158 2.024.03.13.065.603.08.801l.007.106H7.434l-.013-.085c-.082-.568-.166-.971-.236-1.136-.112-.264-.247-1.394-.247-1.714 0-.341.172-2.566.335-3.089zm2.566.022c.04-.137.09-.54.111-1.713l.002-.098h1.696v7.813H9.926l-.006-.092c-.04-.596-.08-.942-.122-1.058-.056-.266-.119-1.569-.119-1.782 0-.258.084-2.727.16-3.07zm2.581-1.811h1.696l.002.098c.022 1.175.072 1.577.11 1.707.077.35.161 2.819.161 3.076 0 .213-.063 1.515-.114 1.767-.046.13-.086.477-.127 1.073l-.006.092H12.42v-7.813zm4.167 0l.005.095c.023.463.08 1.299.203 1.693.163.523.335 2.749.335 3.09 0 .284-.128 1.436-.247 1.714-.07.165-.154.568-.236 1.136l-.013.085h-1.716l.007-.106c.014-.198.05-.671.077-.794.11-.369.157-1.847.16-2.033-.003-.21-.074-2.879-.192-3.291l-.002-.006c-.036-.167-.063-.875-.076-1.482l-.002-.101h1.697zm2.474 0l.008.091c.035.389.12 1.124.29 1.672.265.846.513 2.651.513 3.111 0 .408-.18 1.189-.387 1.673-.124.293-.256.808-.346 1.189l-.018.077h-1.705l.018-.114c.023-.153.104-.664.16-.803.181-.424.31-1.706.31-2.018 0-.332-.164-2.656-.37-3.32-.099-.312-.15-1.121-.168-1.454l-.006-.104h1.701zm3.851 6.546l.031-.071c.238-.538.443-1.001.443-1.604 0-.774-.39-2.296-.723-3.362-.172-.551-.273-1.073-.327-1.413l-.019-.116h.137c.71 0 1.28-.57 1.28-1.271s-.57-1.273-1.273-1.273c-.668 0-1.217.518-1.268 1.173h.78c.046-.227.247-.398.488-.398.275 0 .5.223.5.498 0 .241-.172.443-.4.489v.01l-.1.018H1.507v-.028c-.227-.046-.399-.248-.399-.489 0-.275.224-.498.5-.498.24 0 .442.171.488.398h.78c-.052-.655-.6-1.173-1.269-1.173-.7 0-1.272.572-1.272 1.273s.571 1.272 1.272 1.272h.118l.007.115c-.054.34-.154.862-.326 1.413-.334 1.066-.723 2.588-.723 3.362 0 .603.205 1.066.442 1.604l.02.042.124.288c.14.328.3.776.41 1.094l.005.033V24h20.701l.005-2.638c.088-.256.257-.737.41-1.094l.112-.259z"/>
</svg>
