<svg xmlns="http://www.w3.org/2000/svg" xmlns:xlink="http://www.w3.org/1999/xlink" width="24" height="24" viewBox="0 0 24 24">
    <defs>
        <path id="prefix__a" d="M0 0L23.936 0 23.936 20.895 0 20.895z"/>
    </defs>
    <g fill="none" fill-rule="evenodd" transform="translate(0 1.5)">
        <mask id="prefix__b" fill="#fff">
            <use xlink:href="#prefix__a"/>
        </mask>
        <path fill="#1D1E29" d="M15.9 16.767c0 .188-.152.341-.341.341h-1.34l.499.501c.065.064.1.15.1.24 0 .091-.035.177-.1.241-.128.13-.354.13-.482 0l-.982-.982h-1.141v1.141l.982.983c.065.064.1.15.1.24 0 .091-.035.177-.1.241-.128.13-.353.13-.482 0l-.5-.498v1.34c0 .188-.153.34-.341.34-.188 0-.341-.152-.341-.34v-1.34l-.5.498c-.064.065-.15.101-.241.101s-.177-.036-.241-.1c-.065-.065-.1-.15-.1-.242 0-.09.035-.176.1-.24l.982-.983v-1.14H10.29l-.982.981c-.13.13-.354.13-.482 0-.065-.064-.1-.15-.1-.24 0-.092.035-.177.1-.242l.498-.5h-1.34c-.188 0-.34-.153-.34-.34 0-.189.152-.342.34-.342h1.342l-.5-.5c-.065-.064-.1-.15-.1-.24 0-.092.035-.177.1-.24.064-.066.15-.102.24-.102.092 0 .178.036.242.101l.982.981h1.14v-1.14l-.981-.983c-.133-.133-.133-.349 0-.482.134-.132.349-.132.48 0l.502.503V12.98c0-.189.153-.34.34-.34.189 0 .342.151.342.34v1.343l.5-.502c.134-.133.349-.133.482 0s.133.35 0 .482l-.982.983v1.14h1.14l.983-.98c.064-.066.15-.102.24-.102.092 0 .178.036.242.101.065.064.1.15.1.24 0 .091-.035.177-.1.241l-.501.5h1.342c.189 0 .34.153.34.341zm2.652.646c.309 1.215-.34 1.787-.594 2.215-.158.265-.222.574-.18.868.026.174-.12.333-.325.354-.015.002-.031.002-.046.002-.186 0-.347-.118-.37-.279-.22-1.518 1.167-1.527.783-3.025-.201-.792-.8-1.383-.923-1.823-.296-1.062 1.088-1.9.784-2.618-.071-.165.03-.348.224-.407.194-.06.409.026.479.191.456 1.074-.968 1.936-.76 2.688.103.364.672.83.928 1.834zm-11.553 0c.31 1.215-.338 1.787-.593 2.215-.158.265-.222.574-.18.868.026.174-.12.333-.326.354-.015.002-.03.002-.045.002-.186 0-.348-.118-.371-.279-.22-1.518 1.167-1.527.784-3.025-.201-.792-.8-1.383-.923-1.823-.297-1.062 1.088-1.9.783-2.618-.07-.165.03-.348.225-.407.193-.06.408.026.479.191.456 1.074-.97 1.936-.76 2.688.102.364.67.83.927 1.834zM18.049 5.19c0 .206-.167.373-.374.373h-3.148c-.207 0-.374-.167-.374-.373 0-.207.167-.374.374-.374h3.148c.207 0 .374.167.374.374zm2.669.711c-.391 0-.71-.318-.71-.709 0-.394.319-.714.71-.714.394 0 .714.32.714.714 0 .391-.32.71-.714.71zm0-2.17c-.803 0-1.457.654-1.457 1.461 0 .804.654 1.457 1.457 1.457.807 0 1.462-.653 1.462-1.457 0-.807-.655-1.462-1.462-1.462zm2.47 6.705c0 .211-.171.382-.381.382h-3.072V8.875c0-.623-.506-1.129-1.13-1.129H5.332c-.623 0-1.13.506-1.13 1.13v1.942H1.13c-.21 0-.382-.17-.382-.382V1.13c0-.21.172-.382.382-.382H4.2v.978c0 .623.508 1.131 1.13 1.131h13.276c.623 0 1.129-.508 1.129-1.13V.746h3.072c.21 0 .382.172.382.382v9.307zm-4.201-1.154H4.949v-.407c0-.21.172-.38.382-.38h13.275c.21 0 .38.17.38.38v.407zM4.949 10.818h14.038v-.788H4.949v.788zm0-10.07h14.038v.977c0 .211-.171.383-.381.383H5.33c-.21 0-.382-.172-.382-.383V.748zM22.807 0H1.13C.507 0 0 .506 0 1.13v9.307c0 .623.507 1.13 1.13 1.13h21.677c.623 0 1.13-.507 1.13-1.13V1.13c0-.623-.507-1.13-1.13-1.13z" mask="url(#prefix__b)"/>
    </g>
</svg>
