<svg xmlns="http://www.w3.org/2000/svg" width="24" height="24" viewBox="0 0 24 24">
    <g fill="#1D1E29">
        <path d="M6.626 12.245V3.922H2.052v14.262h4.574v-5.94zM6.1 11.76h-.332v-1.41h.332v1.41zm0-1.896h-.86v2.38h.86V17.7h-3.52V4.407H6.1v5.457zM11.812 12.245V3.922H7.13v14.262h4.682v-5.94zm-.527-.485h-.333v-1.41h.333v1.41zm0-1.896h-.86v2.38h.86V17.7H7.657V4.407h3.628v5.457zM16.887 12.245V3.922h-4.519v14.262h4.519v-5.94zm-.527-.485h-.33v-1.41h.332l-.002 1.41zm0-1.896h-.857v2.38h.86V17.7h-3.468V4.407h3.465v5.457z" transform="translate(2.5)"/>
        <path d="M17.396 1.888c0-.623-1.084-.947-2.154-.947-.404-.003-.806.046-1.194.147l-.037-.046C13.747.696 13.056.47 12.28.47c-.253 0-.506.025-.754.075C11.095.206 10.33 0 9.468 0 8.606 0 7.836.208 7.41.558 7.146.498 6.876.47 6.605.47c-.775 0-1.455.226-1.727.568l-.031.04C4.47.988 4.083.943 3.695.946c-1.068 0-2.152.325-2.152.948v.41H.9v1.232h.303v20.438h1.334v-1.82c.15.072.318.11.488.109h4.727c.132 0 .264-.019.39-.056l.058-.017c.282-.08.59-.005.791.194.122.124.295.196.477.199h.013c.174 0 .341-.064.464-.177l.04-.037c.208-.189.514-.254.79-.167.136.042.277.064.42.063h4.68c.185 0 .367-.047.527-.133v1.845h1.331V3.535h.306V2.303h-.643v-.415zm-15.325 0c0-.138.553-.463 1.624-.463.41-.007.82.053 1.207.177l.337.122.024-.332c.006-.025.018-.048.037-.066.148-.184.643-.373 1.305-.373.272-.002.543.033.804.104l.166.048.114-.12c.229-.243.87-.5 1.782-.5s1.54.242 1.78.485l.11.114.166-.042c.248-.064.505-.096.762-.094.662 0 1.157.187 1.318.38.02.02.031.045.035.07v.352l.353-.135c.4-.136.825-.202 1.252-.194 1.073 0 1.627.324 1.627.463v.419H2.07v-.415zm-.061 21.6h-.277v-2.181h.277v2.181zm-.277-2.666V19.27h2.09v.849h2.803v-.849h2.581v1.56H1.733v-.008zm2.618-1.195v-.364h1.748v.364H4.35zm12.053 1.835h-.026c-.075.196-.277.327-.503.325H11.2c-.084 0-.168-.014-.248-.04-.466-.144-.981-.034-1.33.285l-.043.038c-.027.023-.063.036-.1.037-.038-.001-.073-.016-.098-.042-.34-.338-.86-.466-1.34-.33l-.06.018c-.074.02-.151.032-.23.031H3.026c-.213.001-.405-.116-.488-.296v-.167h13.867v.14zm.805 2.026h-.277v-2.181h.277v2.181zm0-2.666H9.734V19.27h2.355v.849h2.802v-.849h2.318v1.552zm-4.593-1.188v-.364h1.748v.364h-1.748zm4.593-.849H1.733V3.535H17.21v15.25zm.303-16v.262H1.43v-.26l16.082-.002z" transform="translate(2.5)"/>
    </g>
</svg>
