<svg xmlns="http://www.w3.org/2000/svg" width="25" height="25" viewBox="0 0 25 25">
    <path fill="#1D519D" fill-rule="evenodd" d="M7.819 11.7c.586-.066 2.183-.151 2.946.697.719.803.852 2.19.876 2.746v.017c-.717.06-2.268.082-3.08-.69-.808-.765-.797-2.138-.742-2.77m3.814-1.876v.06c-.715.048-2.255.049-3.072-.724-.825-.783-.788-2.238-.741-2.776.59-.072 2.207-.177 2.937.692.687.817.844 2.076.876 2.748m3.877-.673c-.816.774-2.36.774-3.074.728l-.001-.297c.038-.622.2-1.775.868-2.502.773-.842 2.366-.762 2.95-.7.054.632.065 2.006-.743 2.77m0 5.31c-.814.77-2.362.769-3.074.723v-.123c.024-.657.17-1.878.873-2.676.735-.837 2.247-.777 2.944-.697.055.633.066 2.007-.743 2.774m7.78 7.62l-.006 1.2H.79v-1.198c0-1.371.92-2.594 2.239-2.976.1-.028.185-.095.235-.185.672-1.19 1.935-1.93 3.299-1.93 1.204 0 2.349.585 3.062 1.563.062.085.157.143.26.158.105.014.212-.012.296-.076.543-.406 1.186-.622 1.859-.622.395 0 .784.078 1.156.226.16.066.344.018.453-.116.592-.72 1.467-1.133 2.398-1.133 1.243 0 2.363.737 2.853 1.878.078.183.277.276.467.226.277-.075.553-.114.819-.114 1.71 0 3.103 1.392 3.104 3.099M12.04 5.383c-.433-.318-1.564-1.243-1.564-2.254 0-1.008 1.13-1.936 1.564-2.254.432.318 1.563 1.247 1.563 2.254 0 1.009-1.131 1.936-1.563 2.254m8.146 12.81c-.231 0-.467.022-.703.067-.68-1.272-1.99-2.057-3.436-2.057-1.065 0-2.09.439-2.822 1.208-.247-.078-.513-.132-.79-.16v-1.275c.173.01.34.016.509.016.957 0 2.273-.166 3.109-.958 1.362-1.29.962-3.663.944-3.764-.03-.161-.155-.29-.314-.318-.027-.007-2.705-.526-3.97.909-.098.113-.19.236-.278.37v-1.56c.167.009.33.014.492.014.964 0 2.287-.166 3.126-.961 1.362-1.29.962-3.663.944-3.763-.03-.161-.156-.29-.317-.321-.11-.018-2.691-.478-3.96.906-.101.11-.195.23-.285.365v-.84c.51-.36 1.958-1.51 1.958-2.942 0-1.722-2.056-3.015-2.144-3.07-.127-.078-.292-.08-.418 0-.022.014-2.145 1.34-2.145 3.07 0 1.43 1.447 2.582 1.958 2.943v.89c-.09-.144-.182-.275-.284-.395-1.19-1.42-3.695-.972-3.977-.916-.16.032-.282.157-.311.32-.017.1-.41 2.479.945 3.762.837.793 2.156.959 3.117.959.173 0 .344-.005.51-.014v1.578c-.09-.142-.187-.27-.292-.386-1.261-1.408-3.855-.93-3.963-.907-.161.03-.288.158-.317.32-.017.1-.41 2.479.945 3.762.812.77 2.086.932 3.01.932.247 0 .459-.011.617-.023v1.3c-.58.06-1.136.244-1.618.536-.874-1.01-2.131-1.587-3.463-1.587-1.586 0-3.08.839-3.906 2.193C1.09 18.92 0 20.43 0 22.083v1.594c0 .217.178.395.395.395h23.282c.217 0 .394-.177.395-.393l.009-1.596c0-2.145-1.747-3.89-3.894-3.89"/>
</svg>
