<svg xmlns="http://www.w3.org/2000/svg" xmlns:xlink="http://www.w3.org/1999/xlink" width="24" height="24" viewBox="0 0 24 24">
    <defs>
        <path id="prefix__a" d="M0 0L23.8 0 23.8 23.801 0 23.801z"/>
    </defs>
    <g fill="none" fill-rule="evenodd">
        <mask id="prefix__b" fill="#fff">
            <use xlink:href="#prefix__a"/>
        </mask>
        <path fill="#1D1E29" d="M21.8 18.16h1.24v-2.173H21.8v2.172zm-.76.54c.001.387-.207.748-.542.943-.168.096-.356.145-.545.145-.188 0-.376-.049-.544-.145-.335-.195-.543-.556-.542-.943V1.847c-.001-.388.207-.749.543-.942.335-.195.752-.193 1.088 0 .335.193.543.554.542.942V18.7zm-2.933 0c-.001.598-.489 1.085-1.087 1.086-.599 0-1.086-.488-1.087-1.086V1.847c0-.388.208-.749.544-.942.335-.194.751-.194 1.087 0 .335.193.543.554.543.942V18.7zm-2.934 0c0 .598-.488 1.085-1.087 1.086-.598 0-1.086-.488-1.086-1.086V1.847c-.001-.388.207-.749.543-.942.335-.195.752-.193 1.088 0 .335.193.543.554.542.942V18.7zm-2.933 0c-.001.598-.489 1.085-1.087 1.086-.598 0-1.086-.488-1.087-1.086V1.847c0-.388.208-.749.544-.942.335-.194.751-.194 1.087 0 .336.193.544.554.543.942V18.7zm-2.933 0c-.001.598-.489 1.085-1.087 1.086-.599 0-1.086-.488-1.087-1.086V1.847c-.001-.388.207-.749.543-.942.336-.195.753-.193 1.088 0 .335.193.543.553.543.942V18.7zM5.134 4.56h1.24V2.387h-1.24V4.56zm-.587 13.6h1.827v-2.173H4.547v2.172zm-.76 4.88H2.68v-8.82c0-.198.106-.382.277-.48.17-.098.382-.098.553 0 .171.1.277.283.277.48v8.82zM1.92 18.16l-.103-.003c-.592-.015-1.056-.492-1.057-1.084.001-.59.465-1.068 1.057-1.084l.103-.002v2.173zM21.8 4.56h1.24V2.387H21.8V4.56zm1.832 10.667H21.8V5.321h1.832c.045 0 .087-.018.119-.05.031-.032.049-.074.049-.118V1.794c0-.093-.075-.168-.168-.168h-1.846l-.014-.083C21.657.841 21.14.263 20.456.07c-.686-.197-1.429.03-1.894.566l-.075.087-.076-.087C18.062.233 17.555 0 17.02 0s-1.042.233-1.391.636l-.076.088-.075-.088C15.128.233 14.622 0 14.086 0c-.534 0-1.041.233-1.39.636l-.076.087-.076-.087C12.195.233 11.688 0 11.153 0c-.534 0-1.041.233-1.391.636l-.075.087-.076-.087C9.146.1 8.404-.127 7.717.07 7.033.263 6.516.841 6.4 1.543l-.013.083H4.541c-.092 0-.167.075-.167.168v3.36c0 .043.017.085.049.118.031.03.074.05.118.05h1.833v9.905H4.546V14.22c0-.37-.158-.725-.432-.973-.242-.219-.558-.34-.884-.34-.042 0-.085.002-.128.006-.684.087-1.194.676-1.182 1.368v.946l-.099.001C.817 15.241 0 16.07 0 17.073c0 1.005.817 1.832 1.821 1.846l.099.001v4.713c0 .044.017.087.049.117.032.033.074.051.118.051h2.292c.092 0 .167-.075.167-.168V18.92h1.841l.013.083c.116.703.633 1.281 1.318 1.474.683.195 1.428-.029 1.893-.567l.076-.087.075.087c.35.405.857.637 1.391.637.535 0 1.041-.232 1.391-.637l.076-.087.076.087c.349.405.856.637 1.39.637.535 0 1.042-.232 1.392-.637l.075-.088.076.088c.35.405.856.637 1.391.637.534 0 1.041-.232 1.391-.637l.076-.087.075.087c.466.538 1.212.763 1.894.567.685-.194 1.201-.772 1.316-1.474l.014-.083h1.846c.046 0 .088-.017.118-.049.032-.03.05-.074.05-.119v-3.357c0-.093-.075-.168-.168-.168z" mask="url(#prefix__b)"/>
    </g>
</svg>
