<svg xmlns="http://www.w3.org/2000/svg" width="24" height="24" viewBox="0 0 24 24">
    <path fill="#1D1E29" d="M20.223 0c.026.001.05.01.075.016.013.004.027.003.04.009l.03.02c.023.014.047.027.066.046l.003.003c.01.01.014.024.022.035.014.02.029.038.038.06.009.023.01.047.014.071.002.014.008.026.008.04v23.4c0 .166-.134.3-.3.3H3.38c-.165 0-.3-.134-.3-.3V.3c0-.014.006-.026.008-.04.004-.024.005-.048.015-.07.009-.023.023-.041.037-.06.008-.012.012-.026.022-.036L3.166.09c.019-.02.043-.033.068-.047.01-.006.017-.015.028-.02.012-.005.027-.005.04-.008C3.327.009 3.351 0 3.376 0zM3.68.999V23.4h1.583V2.497L3.68.997zm14.057 1.67H5.863V23.4h11.874V2.668zm2.182-1.67l-1.582 1.5V23.4h1.582V.998zm-4.635 17.081c.165 0 .3.135.3.3v2.613c0 .165-.135.3-.3.3H8.316c-.166 0-.3-.135-.3-.3v-2.613c0-.165.134-.3.3-.3zm-.3.6H8.616v2.013h6.368v-2.013zm.3-5.117c.165 0 .3.134.3.3v2.612c0 .165-.135.3-.3.3H8.316c-.166 0-.3-.135-.3-.3v-2.612c0-.166.134-.3.3-.3zm-.3.6H8.616v2.012h6.368v-2.012zm1.755-1.928c.166 0 .3.134.3.3v1c0 .166-.134.3-.3.3-.165 0-.3-.134-.3-.3v-1c0-.166.135-.3.3-.3zm-1.455-3.19c.165 0 .3.134.3.3v2.612c0 .166-.135.3-.3.3H8.316c-.166 0-.3-.134-.3-.3V9.344c0-.166.134-.3.3-.3zm-.3.6H8.616v2.012h6.368V9.644zm.3-5.118c.165 0 .3.135.3.3v2.612c0 .166-.135.3-.3.3H8.316c-.166 0-.3-.134-.3-.3V4.826c0-.165.134-.3.3-.3zm-.3.6H8.616v2.012h6.368V5.126zM19.467.6H4.133l1.55 1.468h12.234L19.467.6z"/>
</svg>
