<svg xmlns="http://www.w3.org/2000/svg" xmlns:xlink="http://www.w3.org/1999/xlink" width="22" height="24" viewBox="0 0 22 24">
    <defs>
        <path id="prefix__a" d="M0 0L21.213 0 21.213 23.799 0 23.799z"/>
    </defs>
    <g fill="none" fill-rule="evenodd" transform="translate(.096)">
        <mask id="prefix__b" fill="#fff">
            <use xlink:href="#prefix__a"/>
        </mask>
        <path fill="#1D1E29" d="M21.096 23.117c.156.156.156.41 0 .566-.151.151-.414.151-.565 0-.485-.485-1.122-.727-1.76-.727-.636 0-1.273.242-1.758.727-.156.155-.41.155-.565 0-.47-.469-1.094-.728-1.76-.728-.663 0-1.288.26-1.757.728-.148.147-.418.147-.565 0-.97-.97-2.548-.97-3.518 0-.151.151-.414.151-.565 0-.47-.469-1.094-.728-1.76-.728-.664 0-1.288.26-1.758.728-.151.151-.414.151-.565 0-.47-.469-1.094-.728-1.758-.728-.665 0-1.29.26-1.76.728-.155.155-.41.155-.565 0-.156-.156-.156-.41 0-.566.62-.62 1.447-.963 2.325-.963.723 0 1.408.23 1.98.664l.06.046.06-.046c.574-.434 1.259-.664 1.982-.664.724 0 1.409.23 1.98.664l.062.045.06-.045c1.167-.883 2.795-.883 3.962 0l.06.045.06-.045c.573-.434 1.258-.664 1.98-.664.725 0 1.41.23 1.983.664l.06.045.06-.045c1.3-.984 3.152-.855 4.305.3zm0-3.002c.156.156.156.41 0 .566-.151.151-.414.151-.565 0-.485-.485-1.122-.727-1.76-.727-.636 0-1.273.242-1.758.727-.155.155-.41.155-.565 0-.47-.469-1.094-.727-1.76-.727-.663 0-1.287.258-1.757.727-.148.147-.418.147-.565 0-.97-.97-2.548-.97-3.518 0-.151.151-.414.151-.565 0-.47-.469-1.095-.727-1.76-.727-.663 0-1.288.258-1.758.727-.151.151-.414.151-.565 0-.47-.469-1.094-.727-1.758-.727-.665 0-1.29.258-1.76.727-.155.155-.41.155-.565 0-.156-.156-.156-.41 0-.566.62-.62 1.446-.962 2.325-.962.724 0 1.409.23 1.98.663l.06.046.06-.046c.573-.433 1.258-.663 1.982-.663.725 0 1.41.23 1.98.664l.062.046.06-.046c1.166-.883 2.795-.883 3.96 0l.062.046.06-.046c.572-.434 1.257-.664 1.98-.664.726 0 1.41.23 1.983.664l.06.046.06-.046c1.299-.985 3.15-.856 4.305.298zM6.07 14.782h8.629v1.374l-.098.002c-.697.02-1.352.246-1.893.657l-.06.045-.061-.045c-1.166-.883-2.795-.883-3.961 0l-.06.045-.061-.045c-.572-.434-1.257-.664-1.981-.664-.09 0-.176.01-.262.02l-.192.02v-1.409zm0-.8h8.628v-2.159H6.07v2.158zm0-2.96h8.628V8.864H6.07v2.158zm0-2.959h8.628V5.905H6.07v2.158zM.683 17.68c.469-.469 1.094-.728 1.759-.728.664 0 1.289.26 1.758.728.15.151.414.151.565 0 .47-.469 1.094-.728 1.759-.728.665 0 1.289.26 1.759.728.15.151.414.151.565 0 .97-.97 2.548-.97 3.518 0 .147.147.417.147.565 0 .469-.469 1.094-.728 1.758-.728.665 0 1.29.26 1.759.728.156.155.409.155.565 0 .47-.469 1.094-.728 1.759-.728.665.001 1.29.26 1.759.728.15.151.414.151.565 0 .156-.156.156-.41 0-.566-1.154-1.155-3.006-1.284-4.304-.299l-.061.045-.06-.045c-.316-.24-.686-.42-1.1-.534l-.073-.02V2.694c0-1.044.85-1.893 1.894-1.893.505 0 .98.196 1.339.552.358.361.555.836.555 1.341 0 .221.18.401.4.401.22 0 .4-.18.4-.4 0-.718-.28-1.394-.79-1.907C18.787.28 18.11 0 17.393 0c-1.485 0-2.693 1.21-2.693 2.694v2.41h-8.63v-2.41c0-1.044.85-1.893 1.895-1.893.505 0 .98.196 1.339.552.358.361.555.836.555 1.341 0 .221.179.401.4.401.22 0 .4-.18.4-.4 0-.718-.28-1.394-.79-1.907C9.358.28 8.682 0 7.964 0 6.479 0 5.27 1.21 5.27 2.694V16.27c.008.026.01.04.013.055l.009.074-.07.031c-.273.12-.49.241-.68.384l-.06.047-.06-.046c-.572-.434-1.257-.664-1.98-.664-.878 0-1.704.343-2.325.963-.156.156-.156.41 0 .566.156.155.41.155.566 0z" mask="url(#prefix__b)"/>
    </g>
</svg>
