<svg xmlns="http://www.w3.org/2000/svg" xmlns:xlink="http://www.w3.org/1999/xlink" width="24" height="24" viewBox="0 0 24 24">
    <defs>
        <path id="prefix__a" d="M0 0L24 0 24 24 0 24z"/>
    </defs>
    <g fill="none" fill-rule="evenodd">
        <mask id="prefix__b" fill="#fff">
            <use xlink:href="#prefix__a"/>
        </mask>
        <path fill="#1D519D" d="M6.753 18.372H.756V10.87h.75v6.752h5.247v.75zM.756 21.75h5.997v-2.627H.756v2.627zm6.372-4.878H2.256v-6.377c0-.225-.15-.375-.375-.375H.38c-.224 0-.373.15-.373.375v13.13c0 .226.15.375.373.375.226 0 .375-.15.375-.375V22.5h5.997v1.125c0 .226.15.375.375.375.224 0 .375-.15.375-.375v-6.378c0-.226-.15-.375-.375-.375zm-2.625-2.25h14.99v-.75H4.504v.75zm4.454-9.38l2.995-3.75 2.995 3.75h-5.99zm-6.85 0l9.247-4.171L8.02 5.24l-5.915.002zm19.785 0h-6.008l-3.385-4.237 9.393 4.237zM14.248 23.25h-1.874V15.37h7.495c.224 0 .375-.15.375-.375v-1.5c0-.226-.15-.376-.375-.376h-7.495V5.994h11.242c.188 0 .337-.113.375-.3.037-.188-.038-.338-.226-.413L12.148.026c-.111-.037-.224-.037-.298 0L.232 5.28c-.15.075-.262.264-.225.413.037.151.188.3.374.3h11.243v7.128H4.13c-.224 0-.374.15-.374.376v1.5c0 .226.15.375.375.375h7.494v7.879H9.752c-.226 0-.375.15-.375.375 0 .226.15.375.375.375h4.497c.225 0 .375-.15.375-.375 0-.226-.15-.375-.375-.375zm8.993-4.878h-5.995v-.75h5.245V10.87h.75v7.502zm-5.995 3.378h5.995v-2.627h-5.995v2.627zm6.37-11.63h-1.5c-.224 0-.373.15-.373.375v6.377H16.87c-.226 0-.375.15-.375.375v6.378c0 .226.15.375.375.375s.375-.15.375-.375V22.5h5.995v1.125c0 .226.15.375.375.375.224 0 .375-.15.375-.375v-13.13c0-.225-.15-.375-.375-.375z" mask="url(#prefix__b)"/>
    </g>
</svg>
