<svg id="d678ba06-a636-419f-b3ba-0200df34ac4a" data-name="d762966f-9207-448c-9842-8dbbcbb88822" xmlns="http://www.w3.org/2000/svg" width="77.32" height="8.76" viewBox="0 0 77.32 8.76">
  <title>logo</title>
  <g>
    <path d="M1.5,8.46A4.38,4.38,0,0,1,0,7.76L.66,6.3A4.19,4.19,0,0,0,2,6.89a4.68,4.68,0,0,0,1.48.24,2.38,2.38,0,0,0,1.23-.24.75.75,0,0,0,.39-.66.59.59,0,0,0-.23-.49,1.93,1.93,0,0,0-.6-.32c-.24-.08-.57-.17-1-.27A14.08,14.08,0,0,1,1.65,4.7,2.4,2.4,0,0,1,.65,4,2,2,0,0,1,.19,2.66a2.23,2.23,0,0,1,.4-1.32,2.7,2.7,0,0,1,1.19-1,5,5,0,0,1,2-.34A6.88,6.88,0,0,1,5.3.19,5,5,0,0,1,6.65.74l-.6,1.48a4.9,4.9,0,0,0-2.33-.66,2.23,2.23,0,0,0-1.23.33.84.84,0,0,0-.39.7.68.68,0,0,0,.45.64,6.08,6.08,0,0,0,1.38.41c.53.13,1.06.28,1.57.46a2.57,2.57,0,0,1,1,.72A2,2,0,0,1,7,6.15a2.26,2.26,0,0,1-.41,1.31,2.66,2.66,0,0,1-1.2,1,4.9,4.9,0,0,1-2,.34A6.31,6.31,0,0,1,1.5,8.46Z"/>
    <path d="M13.85,6.79H10l-.76,1.8h-2L10.94.19h1.92l3.75,8.4h-2Zm-.61-1.48L11.91,2.1,10.57,5.31Z"/>
    <path d="M17.51.19h1.94V7h4.22V8.59H17.51Z"/>
    <path d="M31.26,7V8.59h-6.5V.19h6.35V1.75H26.69V3.57h3.9V5.09h-3.9V7Z"/>
    <path d="M32.19,4.46h3.4V6h-3.4Z"/>
    <path d="M37.87,8.46a4.38,4.38,0,0,1-1.5-.7L37,6.3a4.19,4.19,0,0,0,1.29.59,4.7,4.7,0,0,0,1.49.24A2.35,2.35,0,0,0,41,6.89a.75.75,0,0,0,.4-.66.63.63,0,0,0-.24-.45,1.52,1.52,0,0,0-.6-.32c-.24-.08-.57-.17-1-.27A14.08,14.08,0,0,1,38,4.74,2.5,2.5,0,0,1,37,4a2,2,0,0,1-.44-1.35,2.23,2.23,0,0,1,.4-1.32,2.7,2.7,0,0,1,1.19-1,5.08,5.08,0,0,1,2-.34,6.88,6.88,0,0,1,1.57.19A5,5,0,0,1,43,.74l-.6,1.48a4.79,4.79,0,0,0-2.33-.66,2.28,2.28,0,0,0-1.25.33.84.84,0,0,0-.39.7.68.68,0,0,0,.45.64,6.08,6.08,0,0,0,1.38.41c.53.13,1.06.28,1.57.46a2.67,2.67,0,0,1,1,.72,2,2,0,0,1,.44,1.33,2.33,2.33,0,0,1-.4,1.31,2.63,2.63,0,0,1-1.21,1,4.9,4.9,0,0,1-2,.34A6.66,6.66,0,0,1,37.87,8.46Z"/>
    <path d="M46.31,1.77H43.62V.19h7.32V1.77H48.25V8.59H46.31Z"/>
    <path d="M53.58,8.17a4.17,4.17,0,0,1-1.65-1.55,4.23,4.23,0,0,1-.59-2.23,4.28,4.28,0,0,1,.59-2.23A4.31,4.31,0,0,1,53.58.61a5.27,5.27,0,0,1,4.71,0,4.36,4.36,0,0,1,1.64,1.55,4.29,4.29,0,0,1,.6,2.23,4.2,4.2,0,0,1-2.24,3.78A5.21,5.21,0,0,1,53.58,8.17Zm3.7-1.43a2.39,2.39,0,0,0,.94-1,2.78,2.78,0,0,0,.34-1.39A2.82,2.82,0,0,0,58.19,3a2.51,2.51,0,0,0-.94-1,2.85,2.85,0,0,0-2.69,0,2.51,2.51,0,0,0-.94,1,2.83,2.83,0,0,0-.34,1.39,2.78,2.78,0,0,0,.34,1.39,2.39,2.39,0,0,0,.94,1,2.79,2.79,0,0,0,2.69,0Z"/>
    <path d="M67.35,8.59,65.73,6.25H63.94V8.59h-2V.19h3.64a4.75,4.75,0,0,1,1.94.37,2.78,2.78,0,0,1,1.26,1.06,2.84,2.84,0,0,1,.45,1.62,2.8,2.8,0,0,1-.4,1.65,2.86,2.86,0,0,1-1.28,1l1.88,2.7Zm-.5-6.44a2,2,0,0,0-1.33-.38H63.94V4.7h1.58a2,2,0,0,0,1.33-.38,1.34,1.34,0,0,0,.46-1.08A1.31,1.31,0,0,0,66.85,2.15Z"/>
    <path d="M77.32,7V8.59H70.81V.19h6.38V1.75H72.75V3.57h3.9V5.09h-3.9V7Z"/>
  </g>
</svg>
