<svg id="d2b406b9-c520-4774-b1d2-213a20de6976" data-name="Слой 1" xmlns="http://www.w3.org/2000/svg" width="1393" height="67" viewBox="0 0 1393 67">
  <defs>
    <style>
      .\33 4f77ee1-3f01-45e6-8b26-3c2bf04fba9f {
        fill: none;
        stroke: #3598db;
        stroke-miterlimit: 10;
        stroke-width: 13px;
      }
    </style>
  </defs>
  <title>wave</title>
  <path class="34f77ee1-3f01-45e6-8b26-3c2bf04fba9f" d="M0,6.5c43.53,0,43.53,54,87.06,54s43.53-54,87.06-54,43.53,54,87.06,54,43.53-54,87.07-54,43.53,54,87.06,54,43.53-54,87.05-54,43.53,54,87.06,54,43.54-54,87.07-54,43.53,54,87.06,54,43.53-54,87.06-54,43.53,54,87.06,54,43.53-54,87.07-54,43.53,54,87.06,54,43.53-54,87.06-54,43.54,54,87.07,54,43.54-54,87.07-54"/>
</svg>
