<svg xmlns="http://www.w3.org/2000/svg" width="80" height="40" viewBox="0 0 80 40">
    <g fill="none">
        <path fill="#1D1E29" d="M2.51 25.8v-6.432h3.96l3.768 6.432h2.472l-3.96-6.72c.992-.352 1.824-.984 2.496-1.896.656-.896.984-1.888.984-2.976 0-1.44-.512-2.664-1.536-3.672C9.67 9.512 8.438 9 6.998 9H.278v16.8H2.51zm4.488-8.448H2.51v-6.264h4.488c.832 0 1.536.304 2.112.912.592.592.888 1.328.888 2.208 0 .88-.296 1.624-.888 2.232-.576.608-1.28.912-2.112.912zm13.368 8.76c1.776 0 3.272-.608 4.488-1.824 1.232-1.232 1.848-2.728 1.848-4.488 0-1.76-.616-3.256-1.848-4.488-1.216-1.216-2.712-1.824-4.488-1.824-1.776 0-3.272.608-4.488 1.824-1.216 1.216-1.824 2.712-1.824 4.488 0 1.776.608 3.272 1.824 4.488 1.216 1.216 2.712 1.824 4.488 1.824zm0-2.04c-1.184 0-2.184-.408-3-1.224-.816-.816-1.224-1.832-1.224-3.048s.408-2.232 1.224-3.048c.816-.816 1.816-1.224 3-1.224 1.2 0 2.208.408 3.024 1.224.816.816 1.224 1.832 1.224 3.048s-.408 2.232-1.224 3.048c-.816.816-1.824 1.224-3.024 1.224z"/>
        <path fill="#5DBAFD" d="M32.607 25.047l-1.349 1.238 5.651 6.159 4.03-4.493-1.364-1.222-2.68 2.99-4.288-4.672zm4.34-12.618c-4.438 0-8.037 3.598-8.037 8.037 0 1.798.59 3.457 1.588 4.796l1.395-1.154c-.74-1.024-1.175-2.282-1.175-3.642 0-3.44 2.789-6.23 6.23-6.23 3.44 0 6.23 2.79 6.23 6.23 0 2.077-1.017 3.917-2.58 5.05l1.341 1.25.009-.007 3.367 3.141 1.249-1.34-3.322-3.096c1.091-1.372 1.743-3.11 1.743-4.998 0-4.439-3.598-8.037-8.037-8.037zm-.03 3.642c-2.47 0-4.472 2.003-4.472 4.473 0 2.47 2.002 4.472 4.472 4.472 2.47 0 4.473-2.002 4.473-4.472 0-2.47-2.003-4.473-4.473-4.473zm0 1.627c1.572 0 2.847 1.274 2.847 2.846s-1.275 2.846-2.847 2.846c-1.571 0-2.846-1.274-2.846-2.846s1.275-2.846 2.846-2.846z"/>
        <path fill="#1D1E29" d="M50.493 25.8v-6.672c0-1.168.284-2.068.852-2.7.568-.632 1.308-.948 2.22-.948.784 0 1.404.26 1.86.78.456.52.684 1.236.684 2.148V25.8h2.088v-6.672c0-1.2.26-2.108.78-2.724.52-.616 1.244-.924 2.172-.924.816 0 1.46.26 1.932.78s.708 1.236.708 2.148V25.8h2.088v-7.464c0-1.472-.412-2.648-1.236-3.528-.824-.88-1.916-1.32-3.276-1.32-1.68 0-2.936.68-3.768 2.04-.736-1.36-1.912-2.04-3.528-2.04-1.568 0-2.76.64-3.576 1.92V13.8h-2.088v12h2.088zm19.008 4.8c1.184.08 2.236-.236 3.156-.948.92-.712 1.644-1.748 2.172-3.108L79.725 13.8h-2.232l-3.456 9.408-4.08-9.408h-2.232l5.232 11.952-.216.456c-.688 1.744-1.768 2.56-3.24 2.448V30.6z"/>
    </g>
</svg>
