<svg id="Слой_1" data-name="Слой 1" xmlns="http://www.w3.org/2000/svg" viewBox="0 0 20.6 23.35"><defs><style>.cls-1{fill:#5dbafd;}</style></defs><title>logo-icon</title><path class="cls-1" d="M16.28,14.72l1.58,1.45-6.6,7.18-4.7-5.24,1.59-1.43,3.13,3.49,5-5.45ZM11.22,0A9.38,9.38,0,0,1,20.6,9.38,9.27,9.27,0,0,1,18.74,15l-1.62-1.34A7.27,7.27,0,1,0,7,15.27L5.4,16.73h0L1.46,20.38,0,18.82l3.88-3.61A9.37,9.37,0,0,1,11.22,0Zm0,4.25A5.22,5.22,0,1,1,6,9.47,5.22,5.22,0,0,1,11.25,4.25Zm0,1.9a3.32,3.32,0,1,0,3.32,3.32,3.32,3.32,0,0,0-3.32-3.32Z"/></svg>