<svg xmlns="http://www.w3.org/2000/svg" xmlns:xlink="http://www.w3.org/1999/xlink" width="328" height="256" viewBox="0 0 328 256">
    <defs>
        <path id="prefix__a" d="M0 0.233L55.133 0.233 55.133 29.61 0 29.61z"/>
        <path id="prefix__c" d="M0.14 0.025L14.984 0.025 14.984 19.552 0.14 19.552z"/>
    </defs>
    <g fill="none" fill-rule="evenodd">
        <path fill="#E3EEFF" d="M239.846 207.191L316.32 207.191 316.32 0 239.846 0z"/>
        <path fill="#F3F8FF" d="M244.009 207.191L316.32 207.191 316.32 0 244.009 0z"/>
        <path fill="#E9F3FF" d="M248.416 202.21L311.914 202.21 311.914 4.981 248.416 4.981z"/>
        <path fill="#FFF" d="M305.673 142.444v47.813h-51.018v-47.813h51.018zm-28.514-97.62v91.643h-22.504V44.825h22.504zm28.515 0v91.643H283.17V44.825h22.504zm-.001-27.89v21.914h-51.018V16.934h51.018z"/>
        <path fill="#E3EEFF" d="M310.771 202.21L311.914 202.21 311.914 4.981 310.771 4.981zM239.846 217.152L252.857 217.152 252.857 207.191 239.846 207.191z"/>
        <path fill="#F3F8FF" d="M252.857 217.152L327.524 217.152 327.524 207.191 252.857 207.191z"/>
        <path fill="#E9F3FF" d="M0 202.357L1.779 201.428 3.559 202.357 3.559 217.151 0 217.151zM17.093 202.357L18.872 201.428 20.652 202.357 20.652 217.151 17.093 217.151zM34.186 202.357L35.965 201.428 37.745 202.357 37.745 217.151 34.186 217.151zM51.279 202.357L53.059 201.428 54.838 202.357 54.838 217.151 51.279 217.151zM68.372 202.357L70.152 201.428 71.931 202.357 71.931 217.151 68.372 217.151zM85.465 202.357L87.245 201.428 89.024 202.357 89.024 217.151 85.465 217.151zM102.558 202.357L104.338 201.428 106.117 202.357 106.117 217.151 102.558 217.151zM119.651 202.357L121.431 201.428 123.21 202.357 123.21 217.151 119.651 217.151zM136.744 202.357L138.524 201.428 140.303 202.357 140.303 217.151 136.744 217.151zM153.837 202.357L155.617 201.428 157.396 202.357 157.396 217.151 153.837 217.151zM170.93 202.357L172.71 201.428 174.489 202.357 174.489 217.151 170.93 217.151zM188.023 202.357L189.803 201.428 191.582 202.357 191.582 217.151 188.023 217.151zM205.116 202.357L206.896 201.428 208.675 202.357 208.675 217.151 205.116 217.151zM222.209 202.357L223.989 201.428 225.768 202.357 225.768 217.151 222.209 217.151z"/>
        <path fill="#E9F3FF" d="M1.779 210.348L223.988 210.348 223.988 207.16 1.779 207.16z"/>
        <path fill="#D1E3FF" d="M72.947 139.329L112.434 139.329 112.434 1.047 72.947 1.047z"/>
        <path fill="#F3F8FF" d="M75.36 139.329L114.847 139.329 114.847 1.047 75.36 1.047z"/>
        <path fill="#FFF" d="M79.69 134.483L110.517 134.483 110.517 5.892 79.69 5.892z"/>
        <path fill="#D1E3FF" d="M108.693 134.483L110.517 134.483 110.517 5.892 108.693 5.892z"/>
        <path fill="#F3F8FF" d="M77.151 111.911L113.056 111.911 113.056 105.406 77.151 105.406zM77.151 20.938L113.056 20.938 113.056 14.433 77.151 14.433z"/>
        <path fill="#D1E3FF" d="M128.014 139.329L167.501 139.329 167.501 1.047 128.014 1.047z"/>
        <path fill="#F3F8FF" d="M130.426 139.329L169.914 139.329 169.914 1.047 130.426 1.047z"/>
        <path fill="#FFF" d="M134.756 134.483L165.582 134.483 165.582 5.892 134.756 5.892z"/>
        <path fill="#D1E3FF" d="M163.759 134.483L165.583 134.483 165.583 5.892 163.759 5.892z"/>
        <path fill="#F3F8FF" d="M132.217 111.911L168.122 111.911 168.122 105.406 132.217 105.406zM132.217 20.938L168.122 20.938 168.122 14.433 132.217 14.433z"/>
        <path fill="#D1E3FF" d="M183.08 139.329L222.566 139.329 222.566 1.047 183.08 1.047z"/>
        <path fill="#F3F8FF" d="M185.492 139.329L224.979 139.329 224.979 1.047 185.492 1.047z"/>
        <path fill="#FFF" d="M189.822 134.483L220.648 134.483 220.648 5.892 189.822 5.892z"/>
        <path fill="#D1E3FF" d="M218.825 134.483L220.648 134.483 220.648 5.892 218.825 5.892z"/>
        <path fill="#F3F8FF" d="M187.282 111.911L223.187 111.911 223.187 105.406 187.282 105.406zM187.282 20.938L223.187 20.938 223.187 14.433 187.282 14.433z"/>
        <path fill="#D1E3FF" d="M17.882 139.329L57.369 139.329 57.369 1.047 17.882 1.047z"/>
        <path fill="#F3F8FF" d="M20.294 139.329L59.782 139.329 59.782 1.047 20.294 1.047z"/>
        <path fill="#FFF" d="M24.624 134.483L55.451 134.483 55.451 5.892 24.624 5.892z"/>
        <path fill="#D1E3FF" d="M53.627 134.483L55.451 134.483 55.451 5.892 53.627 5.892z"/>
        <path fill="#F3F8FF" d="M22.086 111.911L57.99 111.911 57.99 105.406 22.086 105.406zM22.086 20.938L57.99 20.938 57.99 14.433 22.086 14.433z"/>
        <path d="M7.527 3.422L3.162 0.264 4.83 5.373 0.465 8.531 5.861 8.531 7.527 13.638 9.195 8.531 14.591 8.531 10.225 5.373 11.892 0.264z" transform="translate(98.285 78.142)"/>
        <path d="M5.831 5.56L0.502 6.4 5.31 8.839 4.466 14.145 8.282 10.345 13.088 12.784 10.639 7.998 14.454 4.2 9.124 5.04 6.676 0.255z" transform="translate(121.421 67.174)"/>
        <path d="M172.45 42.082c-.65.003-1.3.002-1.948.002-.965-.001-1.93-.002-2.896.007-.723.007-1.273.362-1.66.966-.253.394-.3.84-.3 1.291-.002 3.767-.002 7.536.001 11.303 0 .228.025.458.061.683.118.726.786 1.38 1.508 1.49.087-.03.174-.058.23.05.079.037.159.044.24.01.087-.51.159-1.023.262-1.53.175-.852.324-1.71.48-2.564.17-.926.353-1.85.501-2.781.103-.643.219-1.285.34-1.926.097-.51.19-1.023.577-1.422.498-.509 1.13-.635 1.801-.636 4.17-.005 8.341-.005 12.511.003.253 0 .384-.006.383-.302V45.9c-.003-.449-.188-.827-.476-1.157-.434-.502-1-.68-1.653-.678-1.253.004-2.505.004-3.757.004-1.211 0-2.423 0-3.633.003-.272 0-.475-.077-.665-.275-.5-.519-1.021-1.02-1.532-1.53-.105-.106-.206-.186-.374-.186h-.002"/>
        <path fill="#ECEEFD" d="M219.06 111.326c-5.158.214-27.08-4.922-27.08-4.922s-16.125-25.888-21.069-35.944c-2.928-5.956-10.68-8.684-16.514-9.919-.64 3.233-3.083 7.993-11.942 7.993-10.004 0-12.766-3.999-13.523-6.031-2.08 1.032-4.355 2.284-6.376 3.677-5.587 3.852-36.534 23.964-36.534 23.964s-4.513 4.707 1.29 8.558c5.802 3.852 30.15 21.396 30.15 21.396s.04.041.103.115c.955-1.82 1.983-3.736 2.56-4.68L97.627 96.777l19.834-10.913 3.378 29.307c.862 1.082 3.136 5.523 3.136 5.523l.014.003 47.03-.813-.753-25.889 20.425 22.466s27.938-1.284 29.443-1.284c.274 0 .477.215.637.561.111-1.587.216-3.138.311-4.589-.64.08-1.312.147-2.023.177"/>
        <path fill="#30517F" d="M124.284 120.502L107.255 230.832 145.786 142.216 132.042 255.246 170.49 119.775z"/>
        <path fill="#D3DAE5" d="M140.313 30.815c3.898 0 7.059 5.023 7.059 11.219 0 2.596-.555 4.987-1.487 6.888h.828v10.09h2.542c.552 0 1 .448 1 1v7.575c0 .552-.448 1-1 1h-14c-.553 0-1-.448-1-1v-7.574c0-.553.447-1 1-1l.458-.001v-8.47c-1.457-1.991-2.397-4.912-2.456-8.183l-.002-.325c0-6.196 3.16-11.22 7.058-11.22z"/>
        <path fill="#427CCD" d="M133.786 58.532l6.77 10.11-6.609 4.01 6.448 2.515 4.083 48.355h-22.996l-4.02-37.657-19.835 10.911 21.921 16.262-4.728 6.846-.01-.005c-.626-.349-31.962-17.833-32.011-25.883-.05-7.969 48.966-34.379 50.926-35.432l.06-.032zm15.693-.913l.504.004c15.18.214 21.359 10.056 21.359 10.056l20.639 38.726 27.724 3.209-1.72 8.131-27.294-1.284-20.424-22.466 2.579 29.527h-21.061l-5.205-48.29 7.03-5.628-7.198-.802 2.579-11.18.488-.003z"/>
        <path fill="#06529D" d="M145.484 73.456L144.285 71.773 145.429 67.515 142.912 63.847 141.291 67.63 143.107 71.913 141.791 74.418 144.478 104.586 147.056 106.085 148.453 104.266z"/>
        <path fill="#7294C4" d="M170.266 93.995L169.246 82.763 190.691 116.461z"/>
        <path fill="#304A6F" d="M134.07 36.302s3.173.575 4.443-2.737c0 0 7.17 5.465 9.336-2.492 2.164-7.956-7.584-7.22-11.898-.503-4.315 6.718-5.73 2.537-3.711 9.294 2.018 6.76-.66 11.995 9.272 12.575 9.932.58 5.787-10.231 5.787-10.231s-5.156-3.11-9.451.947c0 0-2.135-4.252-4.135-4.674l.358-2.179z"/>
        <g transform="scale(1 -1) rotate(69 194.784 114.78)">
            <mask id="prefix__b" fill="#fff">
                <use xlink:href="#prefix__a"/>
            </mask>
            <path fill="#5DBAFD" d="M48.807 20.08c-.356-.007-.574.393-.376.692 1.068 1.614 1.882 3.863.419 5.49l-.041.044c-.766.821-1.842 1.273-2.897 1.402-1.482.181-2.987-.33-4.112-1.333-1.064-.95-1.851-2.864-1.337-4.375.732-2.152 2.205-2.444 3.764-2.849.345-.09.447-.534.176-.768-1.235-1.066-1.76-3.085-1.152-4.623.965-2.439 4.1-3.113 6.408-2.313 1.823.632 3.19 2.698 3.36 4.597.205 2.292-2.062 4.085-4.212 4.037m5.558-6.524c-1.003-2.487-3.18-4.351-5.853-4.672-2.666-.32-5.315 1.021-7.132 2.915-.283.295-.552.604-.805.925-.686.869-1.76 1.292-2.819 1.165.009-.307-.154-.59-.43-.697l-.551-.212c-.307-.118-.652.019-.84.309L2.361.348C1.469.004.468.455.127 1.356l-.012.033c-.342.901.106 1.91.999 2.255l1.053.406-.877 2.316.008.003L.39 8.767l.71.273.578-1.525 1.22.47-.579 1.525.71.274.908-2.398 1.188.458-.614 1.619 2.084.803.377-.996.972.374-1.038 2.74 1.22.47 2.13-5.687 24.412 9.41c-.145.396.023.826.38.963l.55.213c.325.125.693-.037.873-.363.85.625 1.348 1.658 1.289 2.758l-.001.023c-.146 2.814.696 5.65 2.748 7.621.948.91 2.175 1.464 3.45 1.71 1.282.249 2.61.044 3.83-.382 3.07-1.07 5.351-3.897 6.492-6.874 1.037-2.77 1.205-5.916.086-8.69" mask="url(#prefix__b)"/>
            <path fill="#427CCD" d="M2.156 4.079L1.29 6.366l.008.003L.39 8.767l.71.273.578-1.526 1.22.47-.579 1.526.71.273.908-2.397 1.187.458-.613 1.619 2.083.803.378-.996.972.374-1.038 2.74 1.22.47 2.13-5.686.094.036-.087-.089L2.156 4.08z" mask="url(#prefix__b)"/>
            <g mask="url(#prefix__b)">
                <g transform="translate(40.15 10.057)">
                    <mask id="prefix__d" fill="#fff">
                        <use xlink:href="#prefix__c"/>
                    </mask>
                    <path fill="#427CCD" d="M11.482.025c.724.733 1.306 1.62 1.704 2.605 1.119 2.774.951 5.919-.087 8.69-1.14 2.977-3.421 5.803-6.49 6.874-1.221.426-2.549.63-3.83.382-.937-.181-1.846-.528-2.64-1.06.072.074.144.147.219.219.948.91 2.175 1.463 3.45 1.71 1.282.248 2.61.044 3.83-.382 3.07-1.071 5.351-3.897 6.491-6.875 1.038-2.77 1.206-5.915.087-8.689C13.644 2.082 12.69.868 11.482.025z" mask="url(#prefix__d)"/>
                </g>
            </g>
            <path fill="#427CCD" d="M44.227 19.151c.345-.09.447-.534.176-.768-1.235-1.066-1.76-3.085-1.152-4.623.966-2.439 4.1-3.113 6.408-2.313.285.099.56.233.82.396-.522-.571-1.153-1.023-1.85-1.265-2.308-.8-5.442-.126-6.408 2.313-.609 1.538-.083 3.557 1.152 4.623.271.234.17.679-.176.768-1.559.405-3.032.697-3.764 2.849-.514 1.51.273 3.426 1.337 4.375.218.194.45.369.693.525-.883-1.02-1.458-2.685-1-4.031.732-2.152 2.205-2.444 3.764-2.849z" mask="url(#prefix__b)"/>
        </g>
        <path fill="#D3DAE5" d="M219.176 111.96s5.772-2.497 7.746-2.216c1.974.28 5.359.561 4.089 1.543-1.27.983-3.807.142-3.807.142s8.743 1.123 10.436 1.262c0 0 .704 3.65-5.642 4.072-6.345.422-13.698-.161-13.698-.161l.876-4.643zM115.687 118.665c1.606 3.598 1.61.698.152 5.136-.357 1.086-3.497.927-2.873 1.886 2.844 4.365 19.552-9.348 5.684-11.29-.091-.014-1.08 1.41-2.963 4.268z"/>
    </g>
</svg>
