<svg width="120" height="123" viewBox="0 0 120 123" fill="none" xmlns="http://www.w3.org/2000/svg">
<path d="M35.8712 33.9194C35.4947 31.2232 35.0429 28.6348 34.8546 26.0105C34.4028 20.3664 35.9089 15.3335 40.314 11.3431C41.2929 10.4803 42.3848 9.7254 43.6273 9.36591C49.3502 7.71223 54.5837 5.05197 59.8925 2.4636C62.9799 0.953723 66.1802 -0.160711 69.757 0.0190361C73.5974 0.198784 76.2706 2.28385 78.6803 4.80032C83.8761 10.3006 85.1939 16.9153 84.2526 24.0333C83.8385 27.2328 83.8008 30.4683 83.5373 33.9194C84.6668 33.488 85.6457 33.0207 86.7752 33.2004C88.9966 33.488 90.6909 35.2136 90.7286 37.5503C90.7662 42.5113 88.6578 46.6096 84.968 49.9529C84.0644 50.7797 82.7842 51.4628 81.5418 51.0314C80.111 50.5281 80.111 51.319 79.9981 52.1458C79.3204 56.1721 77.7767 59.839 75.0658 63.0385C74.5763 63.6137 74.5763 64.2248 74.5763 64.8719C74.5763 69.6173 74.6893 74.3266 74.5387 79.072C74.4634 81.4446 75.5929 83.0264 77.4002 84.3925C80.2616 86.5495 83.6879 87.5201 87.0764 88.5267C104.321 93.5956 114.938 104.74 119.87 121.133C120.172 122.104 119.983 122.463 118.929 122.391C118.289 122.355 117.687 122.355 117.047 122.355C78.605 122.355 40.1258 122.355 1.6842 122.355C0.780578 122.355 -0.348949 122.679 0.102862 121.097C4.47037 106.142 13.5819 95.1414 29.0188 89.3535C31.4661 88.4548 34.0263 87.8796 36.5113 87.0887C38.2809 86.5135 39.9375 85.6148 41.4435 84.5363C43.439 83.0983 44.6062 81.3368 44.4933 78.7484C44.305 74.3266 44.418 69.8689 44.4556 65.4471C44.4556 64.5124 44.2297 63.7575 43.6273 63.0026C41.1423 59.9109 39.674 56.3878 39.1092 52.5053C38.9586 51.5706 38.9209 50.7078 37.3773 51.0673C36.2477 51.319 35.1935 50.6 34.3652 49.845C30.9389 46.7534 28.9811 42.9427 28.7175 38.485C28.454 34.243 31.5414 32.2657 35.8712 33.9194ZM37.2643 42.6551C37.2643 42.3675 37.3019 42.1159 37.3019 41.8283C37.7538 39.204 37.2643 36.7954 35.0805 34.9979C33.4616 33.6678 31.0142 34.3868 30.1483 36.328C29.7341 37.2268 29.6965 38.1974 29.8471 39.1321C30.4118 42.5832 31.8426 45.639 34.2522 48.2633C35.0052 49.0901 35.8712 49.7731 37.0007 50.0248C37.6785 50.1686 38.6197 50.1326 38.5068 49.2339C38.1679 47.041 38.3938 44.7402 37.2643 42.6551ZM81.8806 42.0799C82.0312 42.1878 82.1818 42.3316 82.3324 42.4394C81.0523 44.165 81.4288 46.2141 81.0146 48.1195C80.9017 48.6947 80.4875 49.4136 81.2782 49.9169C82.1065 50.4202 82.8595 49.9888 83.5373 49.6293C86.8129 47.7959 90.1638 40.9296 89.5614 37.2987C89.2978 35.7888 88.3566 34.8181 86.8505 34.4227C85.3821 34.0273 84.3656 34.8181 83.4996 35.8607C81.8806 37.6582 82.0312 39.887 81.8806 42.0799ZM76.12 18.7847C73.3339 19.7913 70.7736 20.5462 68.138 21.0854C59.8925 22.7032 51.6846 22.2718 43.5896 20.2227C42.7613 20.007 42.046 19.5756 42.1213 21.0135C42.4225 26.4779 41.0294 31.6905 39.0339 36.7594C38.695 37.5863 38.4315 38.4131 38.5444 39.3478C39.0715 43.1944 39.448 47.0769 39.9752 50.9235C40.5399 55.2734 41.8954 59.3357 44.8321 62.7869C48.8984 67.5322 53.8683 70.6238 60.5326 70.0487C68.5522 69.3656 76.2706 62.5352 78.3038 54.5544C79.5086 49.845 80.2616 45.0638 80.6381 40.2106C80.7134 39.3837 80.7887 38.6288 80.3746 37.766C77.4378 31.8343 75.5176 25.7229 76.12 18.7847ZM32.9721 89.4973C47.7689 99.2396 69.7947 98.5566 85.7587 89.4254C82.3701 88.4188 79.0568 87.2685 76.3083 85.0755C74.3881 83.5297 73.2209 81.7322 73.3715 79.1798C73.5221 76.7353 73.4092 74.2547 73.4092 71.3428C69.87 78.353 63.2811 79.3596 58.8383 78.1732C55.4497 77.2745 52.8518 75.2613 50.5174 72.8527C48.5972 70.9114 47.1665 68.6107 45.5475 65.9864C45.5475 70.3003 45.3216 74.2188 45.6228 78.0654C45.9617 82.1277 43.8909 84.6082 40.5776 86.5135C38.2056 87.8437 35.6077 88.6345 32.9721 89.4973Z" fill="#1B1B1B"/>
<path d="M76.1203 18.7832C75.5178 25.7215 77.438 31.8329 80.3372 37.7645C80.7513 38.5914 80.676 39.3823 80.6007 40.2091C80.1866 45.0623 79.4335 49.8436 78.2663 54.553C76.2332 62.5337 68.5148 69.3641 60.4951 70.0472C53.8309 70.6224 48.8233 67.5307 44.7947 62.7854C41.8579 59.3342 40.5025 55.2719 39.9377 50.9221C39.4106 47.0755 39.0341 43.1929 38.507 39.3463C38.3941 38.3757 38.6576 37.5848 38.9965 36.758C40.992 31.6891 42.385 26.4764 42.0838 21.0121C42.0085 19.5741 42.7616 20.0055 43.5522 20.2212C51.6848 22.2703 59.8551 22.7017 68.1006 21.084C70.7738 20.5447 73.3341 19.7898 76.1203 18.7832ZM69.9455 42.3301C70.1338 42.5818 70.435 43.0132 70.7362 42.7615C71.1503 42.438 70.6985 42.1863 70.3973 42.0066C68.9289 40.9281 67.4229 39.8496 65.9545 38.7352C65.8416 38.9149 65.691 39.0587 65.578 39.2385C67.0087 40.317 68.4771 41.3235 69.9455 42.3301ZM75.5555 33.2709C72.6564 29.4602 66.4816 28.0222 62.1141 30.1432C66.5569 31.5812 70.9997 32.3721 75.5555 33.2709ZM55.9017 30.1073C51.1201 28.166 44.3052 29.7119 42.4603 33.2349C46.8655 32.3362 51.2707 31.5453 55.9017 30.1073ZM56.9183 43.4446C56.9183 44.2714 56.9936 45.1342 56.9183 45.961C56.5794 49.4122 58.6502 50.4907 62.2647 49.1246C62.6412 48.9808 63.0177 48.8729 62.8295 48.4056C62.6789 48.082 62.34 48.082 62.0388 48.1539C61.6247 48.2618 61.2105 48.3696 60.7587 48.4775C58.6502 48.9808 58.0478 48.5494 58.0102 46.4284C58.0102 44.2714 58.0102 42.1504 57.9725 39.9934C57.9725 39.5261 58.3114 38.6992 57.4454 38.7352C56.6547 38.7711 56.9559 39.562 56.9183 40.0653C56.8806 41.1797 56.9183 42.3301 56.9183 43.4446ZM51.2707 36.8299C51.1201 35.5357 50.367 34.7088 48.974 34.7088C47.5809 34.7088 46.7525 35.5716 46.7525 36.8658C46.7525 38.124 47.6185 38.9868 49.0116 38.9868C50.4047 38.9868 51.1577 38.16 51.2707 36.8299ZM71.6021 36.8299C71.4515 35.4997 70.6985 34.7088 69.3431 34.7088C67.95 34.7088 67.1217 35.5716 67.1217 36.8658C67.1217 38.16 67.9877 38.9868 69.3807 38.9868C70.7362 38.9868 71.4892 38.16 71.6021 36.8299ZM59.328 54.8405C61.0599 54.9484 62.9424 54.6249 64.7873 54.0137C65.3144 53.834 66.331 53.798 66.1051 53.0431C65.8416 52.1803 65.0885 52.8633 64.5614 53.0071C60.9846 54.0137 57.4454 54.2294 53.9062 52.8993C53.4921 52.7555 53.0026 52.396 52.7767 52.8993C52.4755 53.5104 53.1532 53.6902 53.605 53.8699C55.337 54.6608 57.2195 54.8765 59.328 54.8405ZM53.2662 39.3463C53.1532 39.1666 53.0402 38.9868 52.8896 38.843C51.0071 40.0294 49.1246 41.2157 47.2797 42.402C47.3926 42.5818 47.5056 42.7615 47.6562 42.9413C49.5387 41.719 51.3836 40.5326 53.2662 39.3463Z" fill="#F2F2F0"/>
<path d="M32.9727 89.4992C35.6082 88.6724 38.2061 87.8815 40.5781 86.5154C43.8914 84.5742 45.9622 82.1296 45.6234 78.0673C45.3222 74.2207 45.5481 70.3022 45.5481 65.9883C47.2047 68.6126 48.6354 70.9134 50.518 72.8546C52.8523 75.2633 55.4502 77.2764 58.8388 78.1752C63.244 79.3615 69.8705 78.3549 73.4097 71.3448C73.4097 74.2567 73.5227 76.7372 73.3721 79.1818C73.2215 81.7342 74.3886 83.5316 76.3088 85.0775C79.0574 87.2704 82.3706 88.4208 85.7592 89.4274C69.7952 98.5585 47.7695 99.2416 32.9727 89.4992Z" fill="#F2F2F0"/>
<path d="M81.88 42.0817C81.9929 39.8887 81.88 37.6599 83.499 35.7905C84.4026 34.748 85.3815 33.993 86.8499 34.3525C88.3559 34.748 89.2972 35.7186 89.5608 37.2285C90.1632 40.8953 86.8499 47.7617 83.5366 49.5592C82.8589 49.9546 82.1059 50.35 81.2776 49.8467C80.4869 49.3794 80.9011 48.6245 81.014 48.0493C81.3905 46.144 81.0517 44.0948 82.3318 42.3693C82.4071 42.2255 82.4824 42.0817 82.5577 41.9379C82.7083 41.7222 82.8966 41.5424 83.0472 41.3267C83.6872 41.2189 84.2897 41.111 84.1767 40.2482C84.4026 40.1044 84.6285 39.9606 84.8544 39.8168C85.118 39.709 85.6451 39.673 85.4945 39.3495C85.2686 38.9541 84.8921 39.3135 84.5909 39.4933C84.365 39.6371 84.139 39.7809 83.9131 39.9606C83.3484 40.1404 83.0095 40.5358 82.7836 41.0391C82.5954 41.2189 82.4071 41.4346 82.2189 41.6143C82.0682 41.83 81.9929 41.9738 81.88 42.0817ZM84.7415 41.5065C84.6662 41.2908 84.5156 41.0751 84.252 41.2908C84.2144 41.3267 84.3273 41.5424 84.4026 41.6862C84.5909 41.9379 84.8168 42.2255 85.005 42.4771C85.4568 43.5915 84.7415 44.5981 84.2896 46.0721C85.8333 44.67 86.2852 43.5556 85.3815 42.1895C85.118 41.9738 84.9297 41.7222 84.7415 41.5065ZM87.5276 39.4214C87.0382 38.9181 86.4734 38.8822 85.9463 39.4214C86.4734 39.4214 87.0005 39.4214 87.5276 39.4214Z" fill="#EDEDEB"/>
<path d="M37.2634 42.6569C38.3929 44.742 38.2047 47.0428 38.5059 49.2716C38.6188 50.1704 37.6775 50.2063 36.9998 50.0625C35.8703 49.8109 35.0043 49.0919 34.2513 48.301C31.8417 45.6767 30.4109 42.585 29.8462 39.1698C29.6956 38.2351 29.7709 37.2645 30.1474 36.3658C31.0133 34.3885 33.4606 33.6695 35.0796 35.0356C37.301 36.8691 37.7528 39.2417 37.301 41.866C35.5691 39.2777 33.5359 38.4149 31.7664 39.4574C33.8372 39.6372 34.0254 39.6731 35.3055 40.6438C33.1971 42.9805 33.1218 44.2387 34.9667 45.7486C35.1549 45.1734 34.7031 44.8498 34.5149 44.4184C33.9501 43.1243 34.5525 42.1177 35.6067 41.5065C36.6986 40.8594 36.548 42.4053 37.2634 42.6569Z" fill="#EDEDEB"/>
<path d="M37.2666 42.6545C36.5888 42.4029 36.7018 40.893 35.6099 41.5041C34.518 42.1153 33.9533 43.1219 34.518 44.4161C34.7063 44.8115 35.1581 45.171 34.9699 45.7462C33.125 44.2723 33.2379 43.014 35.3087 40.6414C34.0286 39.6707 33.878 39.6348 31.7695 39.455C33.5391 38.4125 35.5723 39.2753 37.3042 41.8636C37.2666 42.0793 37.2666 42.3669 37.2666 42.6545Z" fill="#444443"/>
<path d="M75.5547 33.2723C71.0365 32.3735 66.5561 31.5826 62.1133 30.1447C66.4431 28.0236 72.6179 29.4976 75.5547 33.2723Z" fill="#242424"/>
<path d="M55.9023 30.1101C51.2712 31.5481 46.8661 32.339 42.4609 33.2377C44.3058 29.7147 51.1206 28.1689 55.9023 30.1101Z" fill="#242424"/>
<path d="M56.9172 43.4457C56.9172 42.2953 56.8795 41.1809 56.9172 40.0305C56.9172 39.5631 56.6536 38.7363 57.4443 38.7004C58.3103 38.6644 57.9714 39.4912 57.9714 39.9586C58.009 42.1156 57.9714 44.2366 58.009 46.3935C58.009 48.4786 58.6491 48.946 60.7576 48.4427C61.1717 48.3348 61.5859 48.227 62.0377 48.1191C62.3389 48.0472 62.6778 48.0113 62.8284 48.3708C63.0166 48.8381 62.6401 48.9819 62.2636 49.0898C58.6868 50.4199 56.5783 49.3774 56.9172 45.9262C56.9548 45.1353 56.9172 44.2725 56.9172 43.4457Z" fill="#242424"/>
<path d="M51.2695 36.832C51.1566 38.1621 50.4035 38.953 49.0481 38.9889C47.655 39.0249 46.7891 38.1621 46.7891 36.8679C46.7891 35.6097 47.5797 34.7109 49.0105 34.7109C50.3659 34.7469 51.1189 35.5378 51.2695 36.832Z" fill="#242424"/>
<path d="M71.6015 36.832C71.4886 38.1621 70.7356 38.953 69.3801 38.9889C67.9871 39.0249 67.1587 38.1621 67.1211 36.8679C67.1211 35.5737 67.9494 34.7109 69.3425 34.7109C70.6603 34.7469 71.4509 35.5378 71.6015 36.832Z" fill="#242424"/>
<path d="M59.3277 54.8423C57.1816 54.8783 55.3367 54.6626 53.6047 53.9076C53.1529 53.7279 52.5129 53.5481 52.7764 52.937C53.0023 52.4337 53.4918 52.7932 53.906 52.937C57.4451 54.2671 60.9843 54.0514 64.5612 53.0448C65.0883 52.9011 65.8413 52.218 66.1049 53.0808C66.3308 53.7998 65.3142 53.8717 64.7871 54.0514C62.9798 54.6266 61.0596 54.9502 59.3277 54.8423Z" fill="#242424"/>
<path d="M53.2677 39.3478C51.3852 40.5342 49.5403 41.7205 47.6578 42.9068C47.5448 42.7271 47.4319 42.5473 47.2812 42.3676C49.1638 41.1813 51.0463 39.9949 52.8912 38.8086C53.0418 38.9883 53.1548 39.1681 53.2677 39.3478Z" fill="#444443"/>
<path d="M69.9456 42.3324C68.4772 41.3259 67.0089 40.3193 65.5781 39.2767C65.6911 39.097 65.8417 38.9532 65.9546 38.7734C67.423 39.8519 68.9291 40.9304 70.3974 42.0448C70.2468 42.1527 70.0962 42.2605 69.9456 42.3324Z" fill="#444443"/>
<path d="M70.3971 42.0449C70.6983 42.2247 71.1501 42.4404 70.736 42.7999C70.4348 43.0156 70.1336 42.6201 69.9453 42.3685C70.0959 42.2606 70.2465 42.1528 70.3971 42.0449Z" fill="#444443"/>
<path d="M85.3458 42.1875C86.2494 43.5895 85.7976 44.704 84.2539 46.07C84.7434 44.5961 85.4211 43.5895 84.9693 42.4751C85.0822 42.4032 85.2328 42.2953 85.3458 42.1875Z" fill="#444443"/>
<path d="M82.75 41.1097C82.9759 40.6064 83.3148 40.211 83.8795 40.0312C83.9548 40.1391 84.0678 40.211 84.1431 40.3188C84.2937 41.1457 83.6536 41.2895 83.0136 41.3973C82.9383 41.2895 82.863 41.2176 82.75 41.1097Z" fill="#1B1B1B"/>
<path d="M87.5266 39.4184C86.9995 39.4184 86.4724 39.4184 85.9453 39.4184C86.4724 38.8792 87.0372 38.9151 87.5266 39.4184Z" fill="#1B1B1B"/>
<path d="M82.1797 41.7217C82.3679 41.5419 82.5562 41.3262 82.7445 41.1465C82.8574 41.2184 82.9327 41.3262 83.0457 41.3981C82.8951 41.6138 82.7068 41.7936 82.5562 42.0093C82.4056 41.9014 82.2926 41.7936 82.1797 41.7217Z" fill="#1B1B1B"/>
<path d="M84.5547 39.5996C84.8559 39.4198 85.2324 39.0603 85.4583 39.4558C85.6466 39.7434 85.0818 39.8153 84.8182 39.9231C84.7429 39.7793 84.6676 39.6715 84.5547 39.5996Z" fill="#1B1B1B"/>
<path d="M83.8789 40.0298C84.1048 39.886 84.3307 39.7422 84.5566 39.5625C84.6319 39.6703 84.7449 39.7782 84.8202 39.886C84.5943 40.0298 84.3684 40.1736 84.1425 40.3174C84.0672 40.2455 83.9919 40.1377 83.8789 40.0298Z" fill="#1B1B1B"/>
<path d="M84.7412 41.5059C84.9295 41.7216 85.1554 41.9732 85.3436 42.1889C85.2307 42.2967 85.1177 42.4046 85.0048 42.5124C84.8165 42.2608 84.5906 41.9732 84.4023 41.7216C84.4776 41.6497 84.6283 41.5778 84.7412 41.5059Z" fill="#1B1B1B"/>
<path d="M82.5605 42.0083C82.4852 42.1521 82.4099 42.2959 82.3346 42.4397C82.184 42.3318 82.0334 42.188 81.8828 42.0802C81.9958 41.9723 82.0711 41.8286 82.184 41.7207C82.297 41.7926 82.4099 41.9004 82.5605 42.0083Z" fill="#1B1B1B"/>
<path d="M84.3636 41.686C84.326 41.5422 84.1754 41.2905 84.213 41.2905C84.4766 41.0748 84.6272 41.2905 84.7025 41.5062C84.6272 41.5781 84.4766 41.65 84.3636 41.686Z" fill="#1B1B1B"/>
</svg>
