<svg width="120" height="123" viewBox="0 0 120 123" fill="none" xmlns="http://www.w3.org/2000/svg">
<path d="M85.2013 31.8763C88.711 31.1133 91.1525 32.9826 91.0762 36.5304C90.9999 41.1464 89.0925 44.9995 85.8879 48.204C84.9724 49.1196 83.7516 49.997 82.4927 49.5392C80.7378 48.9288 80.7378 49.9588 80.3945 51.0652C79.25 54.7656 77.0374 57.7412 74.0236 60.1064C73.0699 60.8694 72.7647 61.6324 72.7647 62.815C72.841 66.8206 72.841 70.8263 72.7647 74.8319C72.7266 76.5868 73.3751 77.8838 74.5196 79.0664C78.1437 82.805 82.5308 85.2466 87.2613 87.2303C94.624 90.3204 101.491 94.2497 107.366 99.7431C113.355 105.313 117.59 111.989 119.688 119.924C120.298 122.289 120.184 122.404 117.78 122.404C79.25 122.404 40.7197 122.404 2.22746 122.404C-0.214068 122.404 -0.290365 122.289 0.320017 119.962C2.7234 110.806 7.94979 103.444 15.2362 97.5305C16.6477 96.386 16.7622 95.5849 15.8848 94.1734C14.8166 92.4185 14.2825 90.4348 14.0536 88.4129C13.5577 84.2165 15.1218 80.8594 18.25 78.1127C21.1112 75.633 24.5064 73.9545 27.9398 72.5048C31.7928 70.8644 33.2806 67.9651 33.4714 63.9976C33.624 60.3353 33.128 56.6349 33.8147 52.9726C33.891 52.6674 33.8147 52.2859 34.0055 52.057C35.6459 49.5392 34.9973 47.5936 33.0899 45.3428C31.1443 43.0539 30.2669 40.1164 30.1143 37.0645C29.9235 33.2115 32.2888 31.1514 36.1037 31.8381C36.4089 30.9988 36.0655 30.2359 35.9511 29.4347C33.5095 14.5948 44.7635 0.708642 59.7178 0.0219621C71.8492 -0.512122 83.0268 8.75805 85.0105 20.9275C85.5827 24.4754 85.392 28.0232 84.8961 31.5329C84.8198 31.6474 84.7053 31.7618 84.7053 31.8381C84.8198 32.067 85.0105 31.9526 85.2013 31.8763ZM83.1031 39.6586C83.1794 39.8494 83.2175 40.0401 83.2938 40.2309C81.9205 42.1765 82.1875 44.4654 81.8823 46.6399C81.806 47.2121 81.2719 47.9369 82.0349 48.3566C82.7597 48.7381 83.4846 48.5092 84.1712 48.0895C87.3376 46.2202 90.5421 39.3153 89.8936 35.653C89.5502 33.6693 87.5665 32.2959 85.8879 32.9063C83.8279 33.593 82.2257 37.4079 83.1031 39.6586ZM36.7522 38.2471C37.2863 38.6668 37.8585 39.0864 38.4689 39.5823C38.5833 37.2934 38.2018 35.3478 36.6377 33.7837C34.9973 32.1052 32.6321 32.5248 31.6402 34.623C31.2588 35.4623 31.1443 36.3397 31.2588 37.2171C31.7165 41.0701 33.2425 44.3891 35.9511 47.174C36.4851 47.7081 37.0955 48.204 37.8585 48.3947C38.9267 48.6236 39.7659 48.5473 39.4989 47.0214C39.2319 45.4573 39.0793 43.8932 38.8504 42.2909C38.6978 41.2609 38.2781 40.0783 37.4007 39.8112C36.5614 39.5442 36.9048 38.8575 36.447 38.5523C36.5614 38.476 36.6377 38.3616 36.7522 38.2471ZM46.175 14.4804C45.2212 20.775 43.0086 26.3828 39.6897 31.5711C39.2319 32.2578 39.1937 32.9444 39.2319 33.7456C39.5752 38.3234 40.2237 42.825 40.8723 47.3647C41.9786 54.9945 46.4802 60.0683 53.1562 63.1965C62.846 67.7744 76.3889 61.1365 79.4408 50.2259C81.7679 41.9094 82.4164 33.3641 82.4545 24.7424C82.4545 23.7506 82.1112 23.4835 81.1193 23.5598C79.0974 23.6743 77.0374 23.7124 75.0155 23.6361C64.5627 23.4072 54.6059 21.7668 46.175 14.4804ZM48.3876 61.8994C48.3876 66.5917 48.3494 70.7118 48.4257 74.8319C48.4639 76.8157 47.8154 78.456 46.4039 79.7531C45.9079 80.2109 45.2212 80.5161 44.4964 80.9357C53.5377 87.5355 64.7916 87.0777 74.1381 81.7368C75.13 81.1646 74.634 80.8213 74.1381 80.3635C72.1162 78.6086 71.3914 76.396 71.6203 73.7256C71.7729 71.4748 71.6584 69.224 71.6584 66.5154C71.2769 67.1258 71.1243 67.3166 71.0099 67.5073C66.9661 73.7256 59.9849 74.7175 54.4151 69.8726C51.9736 67.8125 50.2569 65.1802 48.3876 61.8994ZM79.8986 84.8651C79.4789 84.5599 79.0593 84.3691 78.7541 84.0639C76.9611 82.2328 75.3207 82.3854 72.9936 83.568C64.3338 87.9551 55.4451 88.5655 46.7472 83.7587C44.4201 82.4617 42.9323 82.4235 41.063 84.1402C40.3 84.8651 40.1856 85.1702 40.9867 85.8188C43.0086 87.4973 45.2594 88.8325 47.7391 89.6337C57.3526 92.7619 66.6228 91.503 75.7022 87.5355C77.19 86.8488 78.716 86.1621 79.8986 84.8651Z" fill="#1B1B1B"/>
<path d="M46.1721 14.4824C54.603 21.7689 64.5599 23.4093 74.9745 23.6763C76.9964 23.7144 79.0564 23.7144 81.0783 23.6C82.0702 23.5237 82.4517 23.7907 82.4135 24.7826C82.3754 33.4043 81.7269 41.9496 79.3998 50.2661C76.3479 61.1766 62.805 67.8145 53.1152 63.2367C46.4392 60.0703 41.9376 55.0347 40.8313 47.4049C40.1827 42.8652 39.5342 38.3636 39.1909 33.7858C39.1527 33.0228 39.1909 32.3361 39.6487 31.6113C42.9676 26.3849 45.2184 20.7388 46.1721 14.4824ZM76.9583 28.6357C73.0289 25.0115 66.6962 24.4774 63.0339 27.3004C67.5736 28.1016 72.0752 28.4068 76.9583 28.6357ZM56.7394 27.3004C52.6193 24.2104 45.2184 25.5074 43.0821 28.6357C47.6981 28.4449 52.1615 28.0634 56.7394 27.3004ZM60.4398 51.1435C62.8813 51.2961 65.2466 50.6094 67.4973 49.5412C67.917 49.3505 68.6036 49.1597 68.2985 48.4731C67.9933 47.7101 67.421 48.2442 67.0395 48.4349C62.5761 50.6094 58.1509 50.5713 53.6874 48.3968C53.3441 48.206 52.8863 47.7482 52.543 48.3586C52.1233 49.0453 52.81 49.236 53.1915 49.4649C55.4804 50.5713 57.8075 51.2961 60.4398 51.1435ZM72.8 33.4424C72.6093 32.1072 71.9226 31.2298 70.4729 31.2298C69.0233 31.2298 68.2222 32.0691 68.2222 33.4806C68.2222 34.8921 69.0614 35.7313 70.4729 35.7313C71.9226 35.7313 72.6474 34.8539 72.8 33.4424ZM49.7963 35.7695C51.2459 35.6932 52.1233 34.9302 52.1615 33.5569C52.1996 32.1835 51.3985 31.3061 49.9489 31.2679C48.4992 31.2298 47.6981 32.0691 47.6218 33.4424C47.5836 34.8158 48.461 35.5788 49.7963 35.7695ZM57.922 40.8433C57.922 41.4155 57.922 41.8733 57.922 42.3311C57.8838 43.4374 58.3035 44.3148 59.2953 44.8108C60.3253 45.3449 61.3935 45.0778 62.3854 44.5819C62.7669 44.3911 63.0339 44.1241 62.8432 43.7045C62.6906 43.3611 62.3091 43.4756 62.0039 43.5137C59.0283 44.0859 59.0664 44.0478 58.9901 40.9959C58.952 40.1566 59.5242 38.5925 58.4179 38.5925C57.426 38.5544 58.1509 40.1566 57.922 40.8433ZM54.2215 36.1128C54.1071 35.9221 53.9545 35.7695 53.84 35.5788C51.9326 36.8377 49.987 38.0966 48.0796 39.3936C48.194 39.5844 48.3466 39.7751 48.461 39.9659C50.3685 38.6688 52.3141 37.3717 54.2215 36.1128ZM67.0777 35.5025C66.9251 35.6932 66.7725 35.8839 66.6581 36.0365C68.3748 37.3336 70.0915 38.5925 71.8082 39.8896C71.9226 39.6988 72.0752 39.5462 72.1896 39.3555C70.4348 38.0966 68.7562 36.7995 67.0777 35.5025Z" fill="#F2F2F0"/>
<path d="M48.3873 61.9004C50.2566 65.143 51.9733 67.7753 54.4148 69.9117C59.9845 74.7566 66.9658 73.7647 71.0096 67.5464C71.124 67.3557 71.2766 67.1649 71.6581 66.5546C71.6581 69.2631 71.8107 71.5139 71.6199 73.7647C71.4292 76.4351 72.1159 78.6477 74.1378 80.4026C74.6337 80.8604 75.1296 81.2037 74.1378 81.776C64.7531 87.0786 53.5374 87.5746 44.4961 80.9748C45.1828 80.5552 45.8695 80.2882 46.4035 79.7922C47.815 78.457 48.4636 76.8547 48.4254 74.871C48.3491 70.7128 48.3873 66.5927 48.3873 61.9004Z" fill="#F2F2F0"/>
<path d="M79.8966 84.8656C78.714 86.1627 77.188 86.8494 75.7002 87.4979C66.6208 91.4654 57.3125 92.7243 47.7371 89.5961C45.2574 88.795 43.0066 87.4597 40.9847 85.7812C40.2218 85.1327 40.2981 84.8275 41.061 84.1026C42.9303 82.3859 44.4181 82.4241 46.7452 83.7212C55.4432 88.5661 64.3318 87.9557 72.9916 83.5304C75.2806 82.3478 76.9591 82.1952 78.7521 84.0263C79.0573 84.3697 79.4388 84.5604 79.8966 84.8656Z" fill="#EEEEEC"/>
<path d="M36.4454 38.5914C36.9032 38.8585 36.5599 39.5833 37.3992 39.8503C38.2766 40.1174 38.7344 41.3 38.8488 42.33C39.0777 43.8941 39.2303 45.4964 39.4973 47.0605C39.7644 48.5864 38.9251 48.6627 37.8569 48.4338C37.094 48.2812 36.4836 47.7853 35.9495 47.2131C33.2409 44.4282 31.715 41.1092 31.2572 37.2562C31.1427 36.3406 31.2572 35.4632 31.6387 34.6621C32.6305 32.5257 34.9958 32.1443 36.6362 33.8228C38.2003 35.3869 38.5818 37.3325 38.4673 39.6214C37.8569 39.1255 37.2847 38.7059 36.7506 38.2862C36.5599 38.2099 36.3691 37.9047 36.1784 38.1718C35.9113 38.4388 36.2547 38.477 36.4454 38.5914ZM36.1402 39.9648C35.9495 40.1555 35.7588 40.3844 35.6062 40.5752C35.4917 40.8803 35.3773 41.1855 35.2247 41.5289C34.8813 42.7115 35.3391 43.5126 36.331 44.0848C36.0639 43.2456 35.7206 42.4444 35.7206 41.567C35.7969 41.3381 35.835 41.1474 35.9113 40.9185C36.1021 40.6896 36.331 40.4607 36.5217 40.2318C36.6743 40.0792 36.8651 39.8885 36.598 39.7359C36.2928 39.4688 36.2165 39.774 36.1402 39.9648ZM34.1946 37.981C34.9195 38.0192 35.3773 38.4388 35.7206 37.8284C35.301 37.5232 34.9195 37.6758 34.1946 37.981Z" fill="#EDEDEB"/>
<path d="M83.103 39.6587C82.2255 37.4079 83.7897 33.6312 85.926 32.9064C87.6045 32.3341 89.5883 33.7075 89.9316 35.6531C90.5801 39.3154 87.3756 46.2203 84.2093 48.0896C83.5226 48.5093 82.7596 48.7381 82.073 48.3567C81.31 47.937 81.8059 47.2122 81.9204 46.64C82.2255 44.4655 81.9967 42.1765 83.3319 40.2309C83.9041 39.5061 84.3237 39.8495 84.8197 40.3454C86.1167 41.5662 85.2012 42.8251 84.7815 44.3129C86.7271 42.4817 86.6508 41.6806 84.6289 39.0483C85.4301 37.8276 86.9179 38.3235 88.2912 37.7894C85.9641 37.0646 84.7052 37.5605 83.103 39.6587Z" fill="#EDEDEB"/>
<path d="M83.1016 39.6576C84.7038 37.5976 85.9627 37.1017 88.2898 37.7883C86.9165 38.3224 85.4286 37.8265 84.6275 39.0473C86.6494 41.6795 86.6876 42.4807 84.7801 44.3118C85.1616 42.824 86.0772 41.5651 84.8183 40.3443C84.2842 39.8484 83.8645 39.505 83.3305 40.2299C83.216 40.0391 83.1779 39.8484 83.1016 39.6576Z" fill="#444443"/>
<path d="M85.2021 31.8776C85.0113 31.9539 84.8206 32.0683 84.7443 31.8013C84.7062 31.725 84.8587 31.6105 84.935 31.4961C85.0113 31.6487 85.0876 31.7631 85.2021 31.8776Z" fill="#F4F4F2"/>
<path d="M76.9595 28.6336C72.0764 28.4048 67.5749 28.0614 63.0352 27.2984C66.6974 24.5136 73.0683 25.0095 76.9595 28.6336Z" fill="#242424"/>
<path d="M56.7432 27.2982C52.1654 28.0612 47.702 28.4427 43.0859 28.6334C45.2223 25.5052 52.6232 24.2463 56.7432 27.2982Z" fill="#242424"/>
<path d="M60.4437 51.1408C57.8114 51.2553 55.4462 50.5686 53.2336 49.4623C52.8139 49.2715 52.1654 49.0426 52.585 48.356C52.9284 47.7837 53.348 48.2415 53.7295 48.3941C58.1548 50.5686 62.6182 50.6067 67.0816 48.4323C67.4631 48.2415 68.0353 47.7074 68.3405 48.4704C68.6076 49.1189 67.9209 49.3097 67.5394 49.5386C65.2505 50.6067 62.8852 51.3316 60.4437 51.1408Z" fill="#444443"/>
<path d="M72.8005 33.4412C72.6479 34.8527 71.9231 35.7301 70.4734 35.7301C69.0619 35.7301 68.2227 34.8908 68.2227 33.4793C68.2227 32.0678 69.0238 31.2285 70.4734 31.2285C71.9231 31.2285 72.6098 32.1059 72.8005 33.4412Z" fill="#242424"/>
<path d="M49.7972 35.7684C48.462 35.5777 47.5846 34.8147 47.6609 33.4414C47.699 32.068 48.5001 31.2287 49.9879 31.2669C51.4376 31.305 52.2006 32.1824 52.2006 33.5558C52.1243 34.9292 51.2469 35.654 49.7972 35.7684Z" fill="#202020"/>
<path d="M57.9261 40.8406C58.1932 40.1539 57.4302 38.5898 58.4221 38.5898C59.5284 38.5898 58.9561 40.1539 58.9943 40.9932C59.0706 44.0833 59.0706 44.0833 62.008 43.511C62.3132 43.4347 62.6947 43.3585 62.8473 43.7018C63.0381 44.1214 62.771 44.3885 62.3895 44.5792C61.3977 45.0752 60.3676 45.3422 59.2995 44.8081C58.3076 44.3122 57.8498 43.4348 57.9261 42.3284C57.9261 41.8706 57.9261 41.4129 57.9261 40.8406Z" fill="#242424"/>
<path d="M54.224 36.1132C52.3166 37.3722 50.371 38.6692 48.4635 39.9281C48.3491 39.7374 48.1965 39.5466 48.082 39.3559C49.9895 38.097 51.9351 36.8381 53.8425 35.541C53.957 35.7318 54.1096 35.9225 54.224 36.1132Z" fill="#444443"/>
<path d="M67.0828 35.5039C68.7613 36.801 70.478 38.098 72.1566 39.3951C72.0421 39.5858 71.8895 39.7384 71.7751 39.9292C70.0584 38.6321 68.3417 37.3732 66.625 36.0761C66.7776 35.8472 66.9302 35.6947 67.0828 35.5039Z" fill="#444443"/>
<path d="M35.722 41.5303C35.6838 42.4078 36.0272 43.2089 36.3324 44.0482C35.3786 43.4759 34.8827 42.6748 35.226 41.4922C35.3786 41.4922 35.5694 41.4922 35.722 41.5303Z" fill="#444443"/>
<path d="M34.1953 37.9791C34.882 37.6739 35.3016 37.5213 35.7213 37.8265C35.3779 38.3987 34.9201 38.0173 34.1953 37.9791Z" fill="#1B1B1B"/>
<path d="M35.7225 41.526C35.5699 41.526 35.3792 41.526 35.2266 41.526C35.341 41.2208 35.4555 40.9156 35.6081 40.5723C35.7225 40.6867 35.8369 40.763 35.9132 40.8775C35.8369 41.0682 35.7988 41.2971 35.7225 41.526Z" fill="#1B1B1B"/>
<path d="M36.521 40.1547C36.3303 40.3836 36.1014 40.6125 35.9107 40.8414C35.7962 40.7269 35.6818 40.6506 35.6055 40.5362C35.7962 40.3454 35.987 40.1165 36.1396 39.9258C36.254 40.0402 36.3684 40.1165 36.521 40.1547Z" fill="#1B1B1B"/>
<path d="M36.4437 38.5907C36.2529 38.4762 35.9096 38.4381 36.1385 38.1329C36.3292 37.8659 36.52 38.171 36.7107 38.2473C36.6344 38.3618 36.5581 38.4762 36.4437 38.5907Z" fill="#1B1B1B"/>
<path d="M36.1406 39.9632C36.2551 39.7725 36.2932 39.4673 36.5984 39.658C36.8655 39.8488 36.6747 40.0014 36.5221 40.154C36.3695 40.1158 36.2551 40.0395 36.1406 39.9632Z" fill="#1B1B1B"/>
</svg>
