<svg xmlns="http://www.w3.org/2000/svg" width="19" height="19" viewBox="0 0 19 19"><g><g><path fill="#fff" d="M9.5 16.34c-2.375 0-4.494 2.53-5.729.726A9.44 9.44 0 0 0 9.5 19c2.184 0 4.09-4.449 5.7-5.7-1.235 1.805-3.325 3.04-5.7 3.04zm0-5.985c1.9 0 5.812 4.746 5.812 6.646C17.552 15.26 19 12.541 19 9.5 19 4.275 14.725 0 9.5 0S0 4.275 0 9.5c0 3.078 1.512 2.061 3.8 3.8 0-1.9 3.8-2.945 5.7-2.945zm0-7.505c1.615 0 2.85 1.235 2.85 2.85S11.115 8.55 9.5 8.55 6.65 7.315 6.65 5.7 7.885 2.85 9.5 2.85z"/></g></g></svg>