<svg xmlns="http://www.w3.org/2000/svg" width="19" height="19" viewBox="0 0 19 19"><g><g><path fill="#333" d="M16.952 17.192c0 1.017-.832 1.85-1.85 1.85a1.855 1.855 0 0 1-1.85-1.85c0-1.018.833-1.85 1.85-1.85 1.018 0 1.85.832 1.85 1.85zM3.355.542l.832 1.85h13.69c.555 0 .925.37.925.925 0 .185 0 .277-.185.462l-3.33 6.012c-.277.555-.832.925-1.572.925H6.87l-.833 1.573v.093c0 .092.093.185.185.185h10.73v1.85h-11.1a1.855 1.855 0 0 1-1.85-1.85c0-.278.093-.648.185-.925l1.295-2.22-3.33-7.03H.302V.542zm4.347 16.65c0 1.017-.832 1.85-1.85 1.85a1.855 1.855 0 0 1-1.85-1.85c0-1.018.833-1.85 1.85-1.85 1.018 0 1.85.832 1.85 1.85z"/></g></g></svg>