<svg xmlns="http://www.w3.org/2000/svg" width="27" height="21" viewBox="0 0 27 21"><g><g><path fill="#333" d="M20.873 17.847a1.65 1.65 0 0 1-1.648-1.648c0-.908.74-1.647 1.648-1.647.908 0 1.647.739 1.647 1.647a1.65 1.65 0 0 1-1.647 1.648zm-14.679 0a1.65 1.65 0 0 1-1.648-1.648c0-.908.74-1.647 1.648-1.647.909 0 1.648.739 1.648 1.647a1.65 1.65 0 0 1-1.648 1.648zm15.188-10.28H16.18a.43.43 0 0 1-.43-.43v-3.96a.43.43 0 0 1 .43-.431h2.946a.43.43 0 0 1 .374.217l2.256 3.96a.43.43 0 0 1-.374.644zm4.219-.03h-.733L21.07 1.02A2.056 2.056 0 0 0 19.293 0H1.373C.615 0 0 .615 0 1.373V14.89c0 .759.615 1.374 1.373 1.374h.429a4.398 4.398 0 0 0 4.392 4.33 4.398 4.398 0 0 0 4.392-4.33h5.894a4.398 4.398 0 0 0 4.393 4.33 4.398 4.398 0 0 0 4.392-4.33h.336c.758 0 1.373-.615 1.373-1.374V8.91c0-.759-.615-1.373-1.373-1.373z"/></g></g></svg>