<svg xmlns="http://www.w3.org/2000/svg" width="13" height="13" viewBox="0 0 13 13"><g><g><path fill="#333" d="M0 1.5C0 .75.75 0 1.5 0S3 .75 3 1.5 2.25 3 1.5 3 0 2.25 0 1.5z"/></g><g><path fill="#333" d="M0 6.5C0 5.75.75 5 1.5 5S3 5.75 3 6.5 2.25 8 1.5 8 0 7.25 0 6.5z"/></g><g><path fill="#333" d="M0 11.5c0-.75.75-1.5 1.5-1.5s1.5.75 1.5 1.5S2.25 13 1.5 13 0 12.25 0 11.5z"/></g><g><path fill="#333" d="M5 1.5C5 .75 5.75 0 6.5 0S8 .75 8 1.5 7.25 3 6.5 3 5 2.25 5 1.5z"/></g><g><path fill="#333" d="M5 6.5C5 5.75 5.75 5 6.5 5S8 5.75 8 6.5 7.25 8 6.5 8 5 7.25 5 6.5z"/></g><g><path fill="#333" d="M5 11.5c0-.75.75-1.5 1.5-1.5s1.5.75 1.5 1.5S7.25 13 6.5 13 5 12.25 5 11.5z"/></g><g><path fill="#333" d="M10 1.5c0-.75.75-1.5 1.5-1.5S13 .75 13 1.5 12.25 3 11.5 3 10 2.25 10 1.5z"/></g><g><path fill="#333" d="M10 6.5c0-.75.75-1.5 1.5-1.5s1.5.75 1.5 1.5S12.25 8 11.5 8 10 7.25 10 6.5z"/></g><g><path fill="#333" d="M10 11.5c0-.75.75-1.5 1.5-1.5s1.5.75 1.5 1.5-.75 1.5-1.5 1.5-1.5-.75-1.5-1.5z"/></g></g></svg>