<svg xmlns="http://www.w3.org/2000/svg" width="29" height="29" viewBox="0 0 29 29"><defs><linearGradient id="q162a" x1="14.5" x2="14.5" y1=".24" y2="28.93" gradientUnits="userSpaceOnUse"><stop offset="0" stop-color="#e09b3d"/><stop offset=".3" stop-color="#c74c4d"/><stop offset=".6" stop-color="#c21975"/><stop offset="1" stop-color="#7024c4"/></linearGradient><linearGradient id="q162b" x1="14.5" x2="14.5" y1="-.04" y2="29.22" gradientUnits="userSpaceOnUse"><stop offset="0" stop-color="#e09b3d"/><stop offset=".3" stop-color="#c74c4d"/><stop offset=".6" stop-color="#c21975"/><stop offset="1" stop-color="#7024c4"/></linearGradient><linearGradient id="q162c" x1="22.04" x2="22.04" y1=".36" y2="28.45" gradientUnits="userSpaceOnUse"><stop offset="0" stop-color="#e09b3d"/><stop offset=".3" stop-color="#c74c4d"/><stop offset=".6" stop-color="#c21975"/><stop offset="1" stop-color="#7024c4"/></linearGradient></defs><g><g><path fill="url(#q162a)" d="M26.083 20.36a5.722 5.722 0 0 1-5.722 5.723H8.639a5.722 5.722 0 0 1-5.722-5.722V8.639A5.722 5.722 0 0 1 8.64 2.917h11.722a5.722 5.722 0 0 1 5.722 5.722zM20.36 0H8.639C3.876 0 0 3.876 0 8.64v11.72C0 25.125 3.876 29 8.64 29h11.72c4.764 0 8.64-3.876 8.64-8.64V8.64C29 3.875 25.124 0 20.36 0z"/></g><g><path fill="url(#q162b)" d="M14.5 19.172a4.672 4.672 0 1 1 0-9.344 4.672 4.672 0 0 1 0 9.344zm0-12.318c-4.216 0-7.646 3.43-7.646 7.646 0 4.216 3.43 7.646 7.646 7.646 4.216 0 7.646-3.43 7.646-7.646 0-4.216-3.43-7.646-7.646-7.646z"/></g><g><path fill="url(#q162c)" d="M20.277 7.034a1.76 1.76 0 1 1 3.52 0 1.76 1.76 0 0 1-3.52 0z"/></g></g></svg>