<svg xmlns="http://www.w3.org/2000/svg" viewBox="0 0 31 31"><defs><style>.cls-1{opacity:0.05;isolation:isolate;}.cls-2{fill:#ca1626;}</style></defs><title>Asset 3</title><g id="Layer_2" data-name="Layer 2"><g id="Layer_1-2" data-name="Layer 1"><g id="Group_184" data-name="Group 184"><rect id="Rectangle_1236" data-name="Rectangle 1236" class="cls-1" width="31" height="31" rx="10"/><g id="Group_161" data-name="Group 161"><path id="Rectangle_1224" data-name="Rectangle 1224" class="cls-2" d="M10.5,9h0A1.5,1.5,0,0,1,12,10.5h0A1.5,1.5,0,0,1,10.5,12h0A1.5,1.5,0,0,1,9,10.5H9A1.5,1.5,0,0,1,10.5,9Z"/><path id="Rectangle_1227" data-name="Rectangle 1227" class="cls-2" d="M10.5,14h0A1.5,1.5,0,0,1,12,15.5h0A1.5,1.5,0,0,1,10.5,17h0A1.5,1.5,0,0,1,9,15.5H9A1.5,1.5,0,0,1,10.5,14Z"/><path id="Rectangle_1230" data-name="Rectangle 1230" class="cls-2" d="M10.5,19h0A1.5,1.5,0,0,1,12,20.5h0A1.5,1.5,0,0,1,10.5,22h0A1.5,1.5,0,0,1,9,20.5H9A1.5,1.5,0,0,1,10.5,19Z"/><path id="Rectangle_1225" data-name="Rectangle 1225" class="cls-2" d="M15.5,9h5A1.5,1.5,0,0,1,22,10.5h0A1.5,1.5,0,0,1,20.5,12h-5A1.5,1.5,0,0,1,14,10.5h0A1.5,1.5,0,0,1,15.5,9Z"/><path id="Rectangle_1229" data-name="Rectangle 1229" class="cls-2" d="M15.5,14h5A1.5,1.5,0,0,1,22,15.5h0A1.5,1.5,0,0,1,20.5,17h-5A1.5,1.5,0,0,1,14,15.5h0A1.5,1.5,0,0,1,15.5,14Z"/><path id="Rectangle_1232" data-name="Rectangle 1232" class="cls-2" d="M15.5,19h5A1.5,1.5,0,0,1,22,20.5h0A1.5,1.5,0,0,1,20.5,22h-5A1.5,1.5,0,0,1,14,20.5h0A1.5,1.5,0,0,1,15.5,19Z"/></g></g></g></g></svg>