<svg xmlns="http://www.w3.org/2000/svg" width="200" height="27" viewBox="0 0 200 27"><g><g><path fill="#c41525" d="M0 1.64h6.815v6.404c1.031-1.252 2.283-2.482 3.755-3.692 1.472-1.209 2.85-2.114 4.133-2.713h6.815v23.98h-6.815V8.468c-.662.422-1.356.927-2.082 1.515a33.51 33.51 0 0 0-2.193 1.956 32.44 32.44 0 0 0-2.035 2.162 20.208 20.208 0 0 0-1.578 2.082v9.434H0z"/></g><g><path fill="#c41525" d="M78.305 7.003h-.82a9.53 9.53 0 0 0-2.17.252c-.72.168-1.451.554-2.192 1.16-.742.604-1.373 1.588-1.893 2.95-.521 1.362-.781 3.121-.781 5.277 0 2.734.184 5.726.552 8.976h-6.878c-.452-3.534-.679-6.536-.679-9.009 0-3.007.363-5.523 1.089-7.548.726-2.024 1.656-3.567 2.792-4.63 1.136-1.062 2.33-1.793 3.581-2.193a12.554 12.554 0 0 1 3.834-.599h10.38v23.98h-6.815z"/></g><g><path fill="#c41525" d="M94.452 1.64h6.5a45.68 45.68 0 0 1 3.155 5.93 65.222 65.222 0 0 1 2.413 6.335 78.41 78.41 0 0 1 1.737 6.2 83.07 83.07 0 0 1 1.103 5.513h-6.83a64.984 64.984 0 0 1-.316-1.783 32.525 32.525 0 0 0-.426-2.256h-6.752a75.555 75.555 0 0 1 1.231-5h4.165a28.902 28.902 0 0 0-.916-2.99 36.853 36.853 0 0 0-1.033-2.54 89.297 89.297 0 0 0-.734-1.585 58.7 58.7 0 0 0-2.09 5.205 64.095 64.095 0 0 0-1.648 5.546 69.55 69.55 0 0 0-1.136 5.403H86.06a95.342 95.342 0 0 1 1.459-6.35 94.65 94.65 0 0 1 2.035-6.705 77.721 77.721 0 0 1 2.374-6.104c.821-1.857 1.662-3.463 2.524-4.82z"/></g><g><path fill="#c41525" d="M135.668 1.64h6.657a47.369 47.369 0 0 1-.529 3.501 60.18 60.18 0 0 1-.939 4.157 43.638 43.638 0 0 1-1.435 4.496c-.568 1.5-1.173 2.821-1.813 3.967-.758 1.347-1.552 2.5-2.383 3.455-.83.958-1.848 1.807-3.053 2.548-1.204.742-2.59 1.317-4.156 1.727-1.568.411-3.371.636-5.41.68v-5.397c.998-.009 1.905-.118 2.72-.323a10.698 10.698 0 0 0 2.169-.78c.631-.316 1.13-.603 1.498-.86.368-.258.694-.518.98-.78-1.232-.779-2.412-1.757-3.543-2.936a23.634 23.634 0 0 1-3.013-3.88 27.466 27.466 0 0 1-2.264-4.536 28.713 28.713 0 0 1-1.451-5.04h7.004a19.05 19.05 0 0 0 1.381 4.117 20.827 20.827 0 0 0 2.279 3.795c.894 1.182 1.83 2.2 2.808 3.052a36.033 36.033 0 0 0 1.665-5.237c.394-1.704.67-3.613.828-5.727z"/></g><g><path fill="#c41525" d="M155.924 26.69V9.527a7.63 7.63 0 0 0-1.325-.095c-.757 0-1.462.123-2.114.371-.652.247-1.199.707-1.64 1.38-.442.674-.663 1.6-.663 2.776 0 1.547.337 2.643 1.01 3.29.673.646 1.561.97 2.666.97.21 0 .557-.02 1.041-.063v5.001a16.18 16.18 0 0 1-2.176.174c-1.632 0-3.148-.298-4.552-.892-1.404-.594-2.556-1.593-3.455-2.998-.899-1.403-1.349-3.23-1.349-5.482 0-1.534.236-3.013.711-4.432.472-1.42 1.514-2.669 3.122-3.747 1.61-1.078 3.96-1.617 7.052-1.617h1.672V1.64h6.815v2.524h1.688c1.693 0 3.34.228 4.938.686 1.6.457 2.99 1.412 4.173 2.863 1.183 1.451 1.775 3.534 1.775 6.247 0 2.272-.445 4.105-1.334 5.5-.888 1.392-2.034 2.386-3.439 2.98-1.403.594-2.925.892-4.566.892-.59 0-1.32-.059-2.193-.174v-5c.231.041.572.062 1.025.062 2.461 0 3.692-1.42 3.692-4.26 0-1.713-.45-2.897-1.349-3.549-.9-.652-1.959-.978-3.179-.978a6.82 6.82 0 0 0-1.23.095V26.69z"/></g><g><path fill="#c41525" d="M184.746 1.64h6.499a45.549 45.549 0 0 1 3.155 5.93 65.214 65.214 0 0 1 2.414 6.335 78.376 78.376 0 0 1 1.736 6.2c.462 1.982.83 3.82 1.103 5.513h-6.83a73.56 73.56 0 0 1-.316-1.783 31.923 31.923 0 0 0-.426-2.256h-6.752a76.263 76.263 0 0 1 1.232-5h4.164a28.904 28.904 0 0 0-.916-2.99 37.374 37.374 0 0 0-1.032-2.54 86.926 86.926 0 0 0-.735-1.585 59.312 59.312 0 0 0-2.09 5.205 64.074 64.074 0 0 0-1.648 5.546 70.011 70.011 0 0 0-1.136 5.403h-6.815a96.621 96.621 0 0 1 1.46-6.35 94.643 94.643 0 0 1 2.035-6.705 77.314 77.314 0 0 1 2.374-6.104c.82-1.857 1.661-3.463 2.524-4.82z"/></g><g><path fill="#c41525" d="M58.962 7.721a9.391 9.391 0 0 1 2.32 5.56h-3.536a12.093 12.093 0 0 0-1.589-5.556h2.782c.01.003.017-.002.024-.002zm0 11.973H56.16a12.11 12.11 0 0 0 1.584-5.397h3.534a9.443 9.443 0 0 1-2.314 5.4zm-7.657 4.971a14.385 14.385 0 0 0 4.218-3.965h2.5a18.433 18.433 0 0 1-6.717 3.966zm-.043-3.965h3.005a14.075 14.075 0 0 1-6.498 4.535 12.359 12.359 0 0 0 3.49-4.533zm-3.905 0h2.788a9.956 9.956 0 0 1-4.939 4.877 13.043 13.043 0 0 0 2.152-4.875zm-4.383 5.344V20.7h3.352c-.796 3.071-2.075 5.015-3.348 5.346zm0-11.752h4.16a29.032 29.032 0 0 1-.572 5.397h-3.584zm0-6.567h3.588c.368 1.83.56 3.69.573 5.556h-4.157zm0-6.356c1.276.332 2.555 2.278 3.352 5.344h-3.352zm7.173 5.347l-.001-.003zm-2.789-.003a13.061 13.061 0 0 0-2.15-4.876 9.952 9.952 0 0 1 4.938 4.876zm6.911.003l-.002-.003h.001zm-3.01-.003a12.35 12.35 0 0 0-3.493-4.534 14.06 14.06 0 0 1 6.5 4.534zm1.495 6.568a16.776 16.776 0 0 0-1.066-5.556h3.295a11.157 11.157 0 0 1 1.753 5.556zm0 1.011h3.98a11.179 11.179 0 0 1-1.748 5.397h-3.295a16.758 16.758 0 0 0 1.06-5.395zm-5.166-6.567h3.024a15.734 15.734 0 0 1 1.133 5.556H48.15a30 30 0 0 0-.564-5.553zm.56 6.567h3.594a15.692 15.692 0 0 1-1.13 5.397h-3.024c.349-1.778.536-3.583.558-5.395zm9.875-7.576l-.003-.003h.006zm-2.496-.003a14.386 14.386 0 0 0-4.218-3.965 18.443 18.443 0 0 1 6.71 3.965zm-13.56 0h-3.112c.747-2.875 1.917-4.767 3.112-5.264zm0 6.568h-3.922c.013-1.866.205-3.727.573-5.556h3.352zm0 6.408h-3.352a29.032 29.032 0 0 1-.572-5.397h3.921zm0 6.275c-1.195-.492-2.366-2.388-3.112-5.264h3.112zM35.034 20.7h2.788a13.072 13.072 0 0 0 2.15 4.877 9.954 9.954 0 0 1-4.94-4.875zm-4.122 0h3.005a12.346 12.346 0 0 0 3.494 4.535 14.07 14.07 0 0 1-6.502-4.533zm-3.754 0h2.499a14.385 14.385 0 0 0 4.218 3.965 18.422 18.422 0 0 1-6.72-3.963zm-.944-1.01a9.441 9.441 0 0 1-2.31-5.398h3.534a12.11 12.11 0 0 0 1.584 5.397zm0-11.964h2.808a12.092 12.092 0 0 0-1.589 5.556h-3.536a9.393 9.393 0 0 1 2.315-5.554zm7.661-4.976a14.385 14.385 0 0 0-4.218 3.965h-2.499a18.442 18.442 0 0 1 6.714-3.964zm.04 3.966h.003zm-3.002 0a14.066 14.066 0 0 1 6.498-4.535 12.354 12.354 0 0 0-3.495 4.534zm4.122 0a9.954 9.954 0 0 1 4.94-4.877 13.045 13.045 0 0 0-2.15 4.876zm-1.599 6.567a15.734 15.734 0 0 1 1.133-5.556h3.024a30.12 30.12 0 0 0-.562 5.556zm3.6 1.011c.023 1.812.21 3.62.56 5.397H34.57a15.69 15.69 0 0 1-1.13-5.397zm-8.59-1.01a11.157 11.157 0 0 1 1.752-5.557h3.295a16.801 16.801 0 0 0-1.066 5.556zm3.984 1.01a16.773 16.773 0 0 0 1.063 5.397h-3.295a11.179 11.179 0 0 1-1.748-5.397zM42.59.31c-7.197 0-13.499 2.632-16.944 6.552l-.012.014a9.824 9.824 0 0 0 0 13.667l.012.014c3.445 3.921 9.749 6.553 16.943 6.553 10.875 0 19.721-6.013 19.721-13.4 0-7.387-8.846-13.4-19.721-13.4z"/></g></g></svg>