<svg xmlns="http://www.w3.org/2000/svg" viewBox="0 0 200.62 45.67"><defs><style>.cls-1{fill:#323232;}.cls-2{fill:#c41525;}</style></defs><title>1</title><g id="Layer_2" data-name="Layer 2"><g id="Layer_1-2" data-name="Layer 1"><path class="cls-1" d="M7.66,40.06A3.65,3.65,0,0,1,6.5,42.5a3.85,3.85,0,0,1-2.61.86,3.49,3.49,0,0,1-2.83-1.27A5.07,5.07,0,0,1,0,38.71v-1a5.69,5.69,0,0,1,.5-2.44A3.63,3.63,0,0,1,1.9,33.7,3.9,3.9,0,0,1,4,33.13,3.61,3.61,0,0,1,6.55,34a3.66,3.66,0,0,1,1.11,2.45H6.34a2.84,2.84,0,0,0-.74-1.73A2.22,2.22,0,0,0,4,34.2a2.37,2.37,0,0,0-2,.94,4.3,4.3,0,0,0-.71,2.64v1A4.33,4.33,0,0,0,2,41.33a2.17,2.17,0,0,0,1.89,1,2.53,2.53,0,0,0,1.68-.49,2.72,2.72,0,0,0,.77-1.73Z"/><path class="cls-1" d="M13.26,43.22V33.27h3.25a3.78,3.78,0,0,1,2.44.67,2.42,2.42,0,0,1,.81,2,2,2,0,0,1-.39,1.23,2.57,2.57,0,0,1-1.08.83,2.38,2.38,0,0,1,1.27.86A2.49,2.49,0,0,1,20,40.35a2.69,2.69,0,0,1-.87,2.11,3.58,3.58,0,0,1-2.45.76Zm1.31-5.71h2a2.09,2.09,0,0,0,1.38-.43,1.68,1.68,0,0,0,0-2.37,2.43,2.43,0,0,0-1.46-.37H14.57Zm0,1.06v3.58h2.17a2.05,2.05,0,0,0,1.44-.48,1.67,1.67,0,0,0,.53-1.31c0-1.19-.65-1.79-1.95-1.79Z"/><path class="cls-1" d="M27.64,40.62H23.47l-.94,2.6H21.18L25,33.27h1.14l3.81,9.95H28.59Zm-3.78-1.08h3.39l-1.7-4.65Z"/><path class="cls-1" d="M33.14,33.27l3.25,8.12,3.25-8.12h1.71v9.95H40V39.35l.13-4.19-3.27,8.06h-1l-3.26-8,.13,4.17v3.87H31.44V33.27Z"/><path class="cls-1" d="M50.11,33.27h1.31v9.95H50.11V35.55l-4.9,7.67H43.89V33.27h1.32v7.67Z"/><path class="cls-1" d="M64.93,40.06a3.65,3.65,0,0,1-1.16,2.44,3.82,3.82,0,0,1-2.61.86,3.51,3.51,0,0,1-2.83-1.27,5.12,5.12,0,0,1-1.06-3.38v-1a5.69,5.69,0,0,1,.5-2.44,3.69,3.69,0,0,1,1.4-1.61,3.9,3.9,0,0,1,2.11-.57,3.61,3.61,0,0,1,2.54.89,3.66,3.66,0,0,1,1.11,2.45H63.62a2.9,2.9,0,0,0-.75-1.73,2.22,2.22,0,0,0-1.59-.54,2.34,2.34,0,0,0-2,.94,4.23,4.23,0,0,0-.72,2.64v1a4.41,4.41,0,0,0,.68,2.58,2.17,2.17,0,0,0,1.89,1,2.53,2.53,0,0,0,1.68-.49,2.77,2.77,0,0,0,.78-1.73Z"/><path class="cls-1" d="M76.72,43.22H70.2v-.91l3.45-3.83a8,8,0,0,0,1-1.41A2.26,2.26,0,0,0,75,36a1.8,1.8,0,0,0-.47-1.28,1.65,1.65,0,0,0-1.26-.5,1.92,1.92,0,0,0-1.46.54,2,2,0,0,0-.53,1.49H70A2.92,2.92,0,0,1,70.89,34a3.26,3.26,0,0,1,2.37-.85,3.14,3.14,0,0,1,2.2.73,2.5,2.5,0,0,1,.8,1.94c0,1-.62,2.14-1.87,3.5l-2.67,2.89h5Z"/><path class="cls-1" d="M84.47,39a5.75,5.75,0,0,1-.76,3.3,2.68,2.68,0,0,1-2.37,1.08A2.71,2.71,0,0,1,79,42.3a5.48,5.48,0,0,1-.79-3.15V37.46A5.62,5.62,0,0,1,79,34.2a3.2,3.2,0,0,1,4.74,0,5.4,5.4,0,0,1,.78,3.18Zm-1.26-1.73a4.59,4.59,0,0,0-.46-2.35,1.56,1.56,0,0,0-1.42-.73,1.54,1.54,0,0,0-1.42.73,4.51,4.51,0,0,0-.46,2.25v2a4.77,4.77,0,0,0,.47,2.39,1.56,1.56,0,0,0,1.42.77,1.54,1.54,0,0,0,1.39-.73,4.61,4.61,0,0,0,.48-2.28Z"/><path class="cls-1" d="M92.5,39a5.75,5.75,0,0,1-.76,3.3,3.15,3.15,0,0,1-4.73,0,5.48,5.48,0,0,1-.79-3.15V37.46A5.62,5.62,0,0,1,87,34.2a2.7,2.7,0,0,1,2.37-1.07,2.74,2.74,0,0,1,2.37,1,5.4,5.4,0,0,1,.78,3.18Zm-1.27-1.73a4.71,4.71,0,0,0-.45-2.35,1.56,1.56,0,0,0-1.43-.73,1.53,1.53,0,0,0-1.41.73,4.51,4.51,0,0,0-.46,2.25v2A4.77,4.77,0,0,0,88,41.56a1.56,1.56,0,0,0,1.42.77,1.54,1.54,0,0,0,1.39-.73,4.51,4.51,0,0,0,.47-2.28Z"/><path class="cls-1" d="M94.87,38.23l.5-5h5.1v1.17h-4l-.3,2.71a3.16,3.16,0,0,1,1.66-.43,2.75,2.75,0,0,1,2.16.9,3.54,3.54,0,0,1,.8,2.43,3.42,3.42,0,0,1-.83,2.42,3,3,0,0,1-2.32.89,3.21,3.21,0,0,1-2.16-.73,3,3,0,0,1-.95-2h1.2a2,2,0,0,0,.61,1.29,1.89,1.89,0,0,0,1.3.44A1.68,1.68,0,0,0,99,41.72a2.48,2.48,0,0,0,.5-1.66,2.31,2.31,0,0,0-.54-1.6,1.85,1.85,0,0,0-1.45-.6,2.06,2.06,0,0,0-1.29.36l-.34.27Z"/><path class="cls-1" d="M112.45,34.34h-4.8v8.88h-1.32V33.27h6.12Z"/><path class="cls-1" d="M121.43,38.57a6.14,6.14,0,0,1-.49,2.55,3.65,3.65,0,0,1-1.4,1.66,4.07,4.07,0,0,1-4.19,0,3.83,3.83,0,0,1-1.41-1.65,6,6,0,0,1-.51-2.48v-.71a6.12,6.12,0,0,1,.49-2.54,3.87,3.87,0,0,1,1.42-1.68,4,4,0,0,1,4.19,0,3.7,3.7,0,0,1,1.41,1.67,6.22,6.22,0,0,1,.49,2.56Zm-1.3-.65a4.46,4.46,0,0,0-.71-2.71,2.34,2.34,0,0,0-2-1,2.29,2.29,0,0,0-2,1,4.36,4.36,0,0,0-.74,2.62v.74a4.45,4.45,0,0,0,.72,2.69,2.54,2.54,0,0,0,4,.06,4.53,4.53,0,0,0,.72-2.66Z"/><path class="cls-1" d="M132.3,45.66H131V43.22h-7.14v2.45h-1.31V42.15h.81a5.2,5.2,0,0,0,1-1.95,10.93,10.93,0,0,0,.48-2.67l.22-4.26H131v8.88h1.3Zm-7.46-3.51h4.85V34.34h-3.37l-.14,2.93a12.25,12.25,0,0,1-.46,2.93A6.57,6.57,0,0,1,124.84,42.15Z"/><path class="cls-1" d="M139.64,40.62h-4.17l-.93,2.6h-1.36l3.8-9.95h1.15l3.81,9.95h-1.35Zm-3.77-1.08h3.38l-1.69-4.65Z"/><path class="cls-2" d="M.31.87H7.13V7.28a27.39,27.39,0,0,1,3.75-3.69A20.14,20.14,0,0,1,15,.87h6.81v24H15V7.7a23.63,23.63,0,0,0-2.09,1.52c-.75.62-1.49,1.27-2.19,2a29.62,29.62,0,0,0-2,2.16,20,20,0,0,0-1.58,2.08v9.43H.31Z"/><path class="cls-2" d="M78.62,6.24H77.8a9.32,9.32,0,0,0-2.17.25,5.44,5.44,0,0,0-2.19,1.16,6.82,6.82,0,0,0-1.9,2.95,15,15,0,0,0-.78,5.28,82.1,82.1,0,0,0,.55,9H64.44a71.17,71.17,0,0,1-.68-9A22.43,22.43,0,0,1,64.85,8.3a11.4,11.4,0,0,1,2.79-4.63,9.39,9.39,0,0,1,3.58-2.2,12.77,12.77,0,0,1,3.83-.6H85.43v24H78.62Z"/><path class="cls-2" d="M94.77.87h6.5a45.56,45.56,0,0,1,3.15,5.94,64.4,64.4,0,0,1,2.41,6.33q1,3.06,1.74,6.2.65,2.73,1.1,5.51h-6.83c-.11-.59-.22-1.18-.31-1.78-.12-.76-.26-1.51-.43-2.26H95.35c.35-1.68.76-3.34,1.23-5h4.17a31.27,31.27,0,0,0-.92-3c-.31-.85-.66-1.7-1-2.54-.24-.53-.49-1-.74-1.58-.78,1.7-1.47,3.44-2.09,5.2s-1.18,3.68-1.65,5.55-.82,3.59-1.13,5.4H86.37c.42-2.13.9-4.25,1.46-6.35q.9-3.39,2-6.7,1-3.11,2.37-6.11A36.25,36.25,0,0,1,94.77.87Z"/><path class="cls-2" d="M136,.87h6.66c-.13,1.18-.31,2.35-.53,3.51-.26,1.39-.58,2.78-.94,4.15a46.15,46.15,0,0,1-1.43,4.5,30.31,30.31,0,0,1-1.82,4,21,21,0,0,1-2.38,3.45,13,13,0,0,1-3,2.55,15.34,15.34,0,0,1-4.16,1.73,23.83,23.83,0,0,1-5.41.68V20a11.87,11.87,0,0,0,2.72-.32,11,11,0,0,0,2.17-.78,14.36,14.36,0,0,0,1.5-.86,10.49,10.49,0,0,0,1-.78,19.43,19.43,0,0,1-3.55-2.94,24.12,24.12,0,0,1-3-3.88,27.44,27.44,0,0,1-2.26-4.54,28.22,28.22,0,0,1-1.45-5h7A19.2,19.2,0,0,0,128.4,5a20.92,20.92,0,0,0,2.28,3.8,19.82,19.82,0,0,0,2.81,3.05,35.44,35.44,0,0,0,1.66-5.24A37.49,37.49,0,0,0,136,.87Z"/><path class="cls-2" d="M156.24,25.93V8.76a7.37,7.37,0,0,0-1.33-.09A5.85,5.85,0,0,0,152.8,9a3.43,3.43,0,0,0-1.64,1.38,5,5,0,0,0-.66,2.77,4.39,4.39,0,0,0,1,3.29,3.66,3.66,0,0,0,2.66,1c.21,0,.56,0,1-.06v5a15.75,15.75,0,0,1-2.17.18,11.49,11.49,0,0,1-4.56-.9,7.57,7.57,0,0,1-3.45-3,10,10,0,0,1-1.35-5.49,14,14,0,0,1,.71-4.43A7.41,7.41,0,0,1,147.51,5q2.42-1.62,7.06-1.62h1.67V.87h6.81V3.4h1.69a18.18,18.18,0,0,1,4.94.68A8.3,8.3,0,0,1,173.85,7a9.66,9.66,0,0,1,1.78,6.24,10.06,10.06,0,0,1-1.34,5.5,7.42,7.42,0,0,1-3.44,3,11.45,11.45,0,0,1-4.56.9,16.77,16.77,0,0,1-2.2-.18v-5a6.66,6.66,0,0,0,1,.06q3.69,0,3.69-4.26,0-2.56-1.35-3.54a5.22,5.22,0,0,0-3.18-1,6.37,6.37,0,0,0-1.23.09V25.93Z"/><path class="cls-2" d="M185.72.73h6.5a46.1,46.1,0,0,1,3.15,5.93A64.58,64.58,0,0,1,197.78,13c.67,2,1.25,4.11,1.74,6.19s.83,3.82,1.1,5.52h-6.83c-.11-.59-.21-1.19-.31-1.78-.12-.76-.26-1.51-.43-2.26H186.3q.52-2.52,1.23-5h4.17a31.27,31.27,0,0,0-.92-3c-.31-.86-.66-1.71-1-2.54-.24-.53-.49-1.06-.74-1.58-.78,1.7-1.47,3.43-2.09,5.2s-1.18,3.67-1.65,5.55-.82,3.58-1.13,5.4h-6.82q.63-3.2,1.46-6.35.9-3.39,2-6.71c.7-2.06,1.5-4.1,2.37-6.1A35.64,35.64,0,0,1,185.72.73Z"/><path class="cls-2" d="M59.34,7.41A9.34,9.34,0,0,1,61.66,13H58.13a12,12,0,0,0-1.59-5.55h2.8Zm0,12h-2.8A12.09,12.09,0,0,0,58.13,14h3.53a9.5,9.5,0,0,1-2.31,5.4Zm-7.65,5a14.66,14.66,0,0,0,4.22-4h2.5a18.56,18.56,0,0,1-6.72,4Zm0-4h3a14.12,14.12,0,0,1-6.5,4.54,12.34,12.34,0,0,0,3.49-4.54Zm-3.9,0h2.79a9.94,9.94,0,0,1-4.94,4.88,13.05,13.05,0,0,0,2.15-4.88Zm-4.38,5.35V20.39h3.35c-.8,3.07-2.08,5-3.35,5.35Zm0-11.76h4.16a29.64,29.64,0,0,1-.58,5.4H43.36Zm0-6.56h3.58A29.62,29.62,0,0,1,47.52,13H43.36Zm0-6.36c1.27.33,2.55,2.28,3.35,5.34H43.36Zm7.17,5.35h0Zm-2.79,0a13.08,13.08,0,0,0-2.15-4.87A10,10,0,0,1,50.53,6.4Zm6.91,0h0Zm-3,0a12.39,12.39,0,0,0-3.49-4.53,14.15,14.15,0,0,1,6.5,4.53ZM53.14,13a16.68,16.68,0,0,0-1.07-5.55h3.3A11.18,11.18,0,0,1,57.12,13Zm0,1h4a11.17,11.17,0,0,1-1.75,5.4h-3.3A16.61,16.61,0,0,0,53.13,14ZM48,7.42h3A15.54,15.54,0,0,1,52.13,13h-3.6A29.6,29.6,0,0,0,48,7.42ZM48.53,14h3.59A15.43,15.43,0,0,1,51,19.38H48A29.61,29.61,0,0,0,48.53,14Zm9.88-7.57h0Zm-2.5,0a14.37,14.37,0,0,0-4.22-4,18.56,18.56,0,0,1,6.71,4Zm-13.56,0H39.24c.74-2.87,1.91-4.76,3.11-5.26Zm0,6.57H38.43A28.71,28.71,0,0,1,39,7.42h3.35Zm0,6.41H39a28.77,28.77,0,0,1-.57-5.4h3.92Zm0,6.28c-1.2-.5-2.37-2.39-3.11-5.27h3.11Zm-6.93-5.27H38.2a13.21,13.21,0,0,0,2.15,4.88,10,10,0,0,1-4.94-4.88Zm-4.13,0h3a12.34,12.34,0,0,0,3.49,4.54,14.1,14.1,0,0,1-6.5-4.54Zm-3.75,0H30a14.53,14.53,0,0,0,4.22,4,18.4,18.4,0,0,1-6.72-4Zm-.94-1A9.37,9.37,0,0,1,24.29,14h3.53a12.2,12.2,0,0,0,1.58,5.4Zm0-12h2.8A12,12,0,0,0,27.82,13H24.28a9.38,9.38,0,0,1,2.31-5.55Zm7.66-5a14.27,14.27,0,0,0-4.22,4h-2.5a18.44,18.44,0,0,1,6.71-4Zm0,4Zm-3,0a14,14,0,0,1,6.49-4.54A12.34,12.34,0,0,0,34.3,6.41Zm4.12,0a9.94,9.94,0,0,1,4.94-4.88,12.89,12.89,0,0,0-2.15,4.88ZM33.82,13A15.8,15.8,0,0,1,35,7.42h3A30.47,30.47,0,0,0,37.41,13Zm3.6,1A29.61,29.61,0,0,0,38,19.38H35A15.84,15.84,0,0,1,33.82,14Zm-8.59-1a11.08,11.08,0,0,1,1.75-5.56h3.3A16.77,16.77,0,0,0,32.81,13Zm4,1a16.89,16.89,0,0,0,1.07,5.39h-3.3A11.17,11.17,0,0,1,28.83,14ZM43,0C35.77,0,29.47,2.63,26,6.55v0a9.81,9.81,0,0,0,0,13.66v0C29.47,24.17,35.78,26.8,43,26.8c10.88,0,19.72-6,19.72-13.4S53.85,0,43,0Z"/></g></g></svg>