<svg xmlns="http://www.w3.org/2000/svg" width="27" height="29" viewBox="0 0 27 29"><g><g><path fill="#333" d="M17.798 25.858a1.421 1.421 0 1 1 0-2.843 1.421 1.421 0 0 1 0 2.843zm-5.678 0a1.421 1.421 0 1 1 0-2.843 1.421 1.421 0 0 1 0 2.843zm8.15-14.69a3.94 3.94 0 0 1-1.707 1.633 3.938 3.938 0 0 1-4.141-.424l-1.782-1.38H2.743A2.746 2.746 0 0 0 0 13.738v12.518A2.746 2.746 0 0 0 2.743 29h16.572a2.746 2.746 0 0 0 2.743-2.743V13.74a2.747 2.747 0 0 0-1.788-2.571z"/></g><g><path fill="#333" d="M20.766 3.397a9.65 9.65 0 0 0-2.843-.75V1.553a1.091 1.091 0 0 0-1.76-.862l-4.975 3.857a1.092 1.092 0 0 0 0 1.725l4.975 3.857a1.091 1.091 0 0 0 1.76-.863v-.906a9.65 9.65 0 0 1 2.843.75A9.75 9.75 0 0 1 25.3 13.16a.69.69 0 0 0 1.287-.308 9.714 9.714 0 0 0-5.82-9.454z"/></g></g></svg>