<svg xmlns="http://www.w3.org/2000/svg" width="126" height="126" viewBox="0 0 126 126"><g><g opacity=".1"><path fill="#333" d="M62.782 108.182c-15.692 0-29.5-8.16-37.66-20.085 0-12.554 25.107-19.459 37.66-19.459 12.554 0 37.661 6.905 37.661 19.459-8.16 11.926-21.969 20.085-37.66 20.085zm0-89.13c10.671 0 18.83 8.16 18.83 18.83 0 10.67-8.159 18.83-18.83 18.83-10.67 0-18.83-8.16-18.83-18.83 0-10.67 8.16-18.83 18.83-18.83zm0-18.831C28.26.22.014 28.466.014 62.989c0 34.523 28.246 62.769 62.768 62.769 34.523 0 62.769-28.246 62.769-62.769C125.55 28.467 97.305.221 62.782.221z"/></g></g></svg>