<svg xmlns="http://www.w3.org/2000/svg" width="30" height="17" viewBox="0 0 30 17"><g><g><path fill="#1e88e5" d="M14.644 16.39h1.7s.515-.056.776-.34c.242-.259.233-.746.233-.746s-.033-2.283 1.027-2.619c1.044-.33 2.385 2.206 3.807 3.183 1.074.738 1.89.576 1.89.576l3.803-.053s1.988-.123 1.046-1.687c-.077-.128-.55-1.156-2.827-3.27-2.384-2.213-2.064-1.853.807-5.68 1.75-2.33 2.448-3.753 2.23-4.362-.209-.58-1.495-.427-1.495-.427L23.365.99s-.317-.043-.554.098c-.23.139-.377.459-.377.459s-.678 1.804-1.581 3.337c-1.906 3.236-2.669 3.407-2.98 3.206-.724-.468-.543-1.882-.543-2.886 0-3.136.475-4.443-.927-4.781-.466-.112-.807-.187-1.997-.2-1.527-.016-2.82.006-3.551.363-.488.239-.863.77-.633.8.282.038.923.173 1.263.636.44.596.423 1.937.423 1.937s.253 3.692-.589 4.15c-.578.315-1.37-.327-3.068-3.264C7.38 3.342 6.722 1.68 6.722 1.68s-.126-.31-.352-.475c-.274-.201-.658-.265-.658-.265L1.645.963s-.61.018-.834.283c-.2.237-.016.724-.016.724S3.979 9.42 7.583 13.174c3.308 3.443 7.061 3.217 7.061 3.217z"/></g></g></svg>