<svg xmlns="http://www.w3.org/2000/svg" width="29" height="29" viewBox="0 0 29 29"><g><g><path fill="#4caf50" d="M14.235.104h-.008C6.38.104 0 6.487 0 14.336c0 3.113 1.004 5.999 2.71 8.342L.935 27.965l5.47-1.749a14.108 14.108 0 0 0 7.83 2.352c7.847 0 14.228-6.385 14.228-14.232C28.463 6.49 22.082.104 14.235.104z"/></g><g><path fill="#fafafa" d="M22.516 20.201c-.344.97-1.706 1.774-2.793 2.009-.744.158-1.715.285-4.985-1.071-4.182-1.733-6.876-5.983-7.086-6.258-.2-.276-1.69-2.25-1.69-4.293C5.962 8.546 7 7.55 7.418 7.124c.343-.35.91-.51 1.455-.51.176 0 .334.009.477.016.418.018.628.042.903.702.344.828 1.18 2.87 1.28 3.08.1.21.202.494.06.77-.134.285-.251.411-.46.653-.21.242-.41.427-.62.687-.192.226-.41.467-.167.886.242.409 1.078 1.773 2.309 2.869 1.588 1.414 2.876 1.866 3.337 2.058.344.143.753.109 1.004-.158.318-.343.711-.913 1.111-1.473.285-.402.644-.452 1.022-.31.384.134 2.417 1.139 2.835 1.347.418.21.694.31.795.486.1.176.1 1.003-.243 1.974z"/></g></g></svg>