<svg xmlns="http://www.w3.org/2000/svg" width="21" height="21" viewBox="0 0 21 21"><g><g><path fill="#333" d="M20.278 21.104a.793.793 0 0 1-.579-.248l-4.74-4.74c-.331-.331-.331-.855 0-1.158.33-.331.854-.331 1.157 0l4.74 4.74c.331.331.331.855 0 1.158a.793.793 0 0 1-.578.248z"/></g><g><path fill="#333" d="M17.026 9.72c0 4.025-3.28 7.305-7.305 7.305-4.024 0-7.304-3.28-7.304-7.304 0-4.024 3.28-7.304 7.304-7.304 4.025 0 7.305 3.28 7.305 7.304zm1.653 0c0-4.933-4.024-8.957-8.958-8.957C4.788.763.764 4.787.764 9.721s4.024 8.958 8.957 8.958c4.934 0 8.958-4.024 8.958-8.958z"/></g></g></svg>