<svg id="a80af1dc-e443-466c-98ab-dfadc791e44c" data-name="Layer 1" xmlns="http://www.w3.org/2000/svg" xmlns:xlink="http://www.w3.org/1999/xlink" width="75.66" height="75.66" viewBox="0 0 75.66 75.66">
  <defs>
    <style>
      .\31 5db3e51-c577-4909-b56c-8e6a3cc59a08 {
        fill: url(#146ac6ec-7c0b-4566-a1ef-3410edc618ad);
      }

      .\30 df1dce1-384b-4480-84b6-e893211f46ce {
        fill: url(#48029275-01f0-4189-b6cc-938250f3a157);
      }

      .d7be1bfd-5e06-4573-a0c7-ea62bfb41bf3 {
        fill: url(#846e3b90-1a5b-4d89-a5d4-8acbec64f96e);
      }

      .\36 4be029f-0490-44fb-940a-2bcf67dc50e4 {
        fill: url(#0da4c30f-d020-414c-857e-0b26a4d506a5);
      }

      .\37 cb8d00d-c841-4424-a308-1867bd61eac3 {
        fill: url(#30eb4553-5012-41f7-9608-5e839135208e);
      }

      .\34 84cf9fd-2d86-4b34-99a1-1f06d1521ea7 {
        fill: url(#b0b12bc5-63fe-40c2-8658-244c18d916a3);
      }

      .f71a25f4-dcd0-49d6-b31a-3fec475e7df6 {
        fill: url(#dc6d5535-4041-4896-a32f-141e9afda095);
      }

      .d2ff6c62-272b-4087-9474-4b1c8984f49c {
        fill: url(#06608f57-23b4-41d5-a6d4-925ff1c9105c);
      }

      .a4cf6a3b-eb25-4b01-ba1a-895247c0b735 {
        fill: url(#cf53f607-ce9d-4d2e-bc6e-009843ce119b);
      }

      .a9e39cc9-9032-49be-a7e7-358ecf5bfa62 {
        fill: url(#94fc16ad-b83d-4fa5-9c62-4b5f53083183);
      }
    </style>
    <linearGradient id="146ac6ec-7c0b-4566-a1ef-3410edc618ad" data-name="Безымянный градиент 5" x1="34.02" y1="35.12" x2="41.63" y2="35.12" gradientUnits="userSpaceOnUse">
      <stop offset="0" stop-color="#554ae8"/>
      <stop offset="1" stop-color="#de92c2"/>
    </linearGradient>
    <linearGradient id="48029275-01f0-4189-b6cc-938250f3a157" x1="35.57" y1="43.25" x2="39.05" y2="43.25" xlink:href="#146ac6ec-7c0b-4566-a1ef-3410edc618ad"/>
    <linearGradient id="846e3b90-1a5b-4d89-a5d4-8acbec64f96e" x1="39.4" y1="18.23" x2="75.66" y2="18.23" xlink:href="#146ac6ec-7c0b-4566-a1ef-3410edc618ad"/>
    <linearGradient id="0da4c30f-d020-414c-857e-0b26a4d506a5" x1="55.87" y1="19.3" x2="58.99" y2="19.3" xlink:href="#146ac6ec-7c0b-4566-a1ef-3410edc618ad"/>
    <linearGradient id="30eb4553-5012-41f7-9608-5e839135208e" x1="0.03" y1="18.13" x2="36.42" y2="18.13" xlink:href="#146ac6ec-7c0b-4566-a1ef-3410edc618ad"/>
    <linearGradient id="b0b12bc5-63fe-40c2-8658-244c18d916a3" x1="18.82" y1="19.3" x2="21.94" y2="19.3" xlink:href="#146ac6ec-7c0b-4566-a1ef-3410edc618ad"/>
    <linearGradient id="dc6d5535-4041-4896-a32f-141e9afda095" x1="0" y1="57.43" x2="36.26" y2="57.43" xlink:href="#146ac6ec-7c0b-4566-a1ef-3410edc618ad"/>
    <linearGradient id="06608f57-23b4-41d5-a6d4-925ff1c9105c" x1="16.67" y1="56.35" x2="19.79" y2="56.35" xlink:href="#146ac6ec-7c0b-4566-a1ef-3410edc618ad"/>
    <linearGradient id="cf53f607-ce9d-4d2e-bc6e-009843ce119b" x1="39.23" y1="57.53" x2="75.62" y2="57.53" xlink:href="#146ac6ec-7c0b-4566-a1ef-3410edc618ad"/>
    <linearGradient id="94fc16ad-b83d-4fa5-9c62-4b5f53083183" x1="53.72" y1="56.35" x2="56.84" y2="56.35" xlink:href="#146ac6ec-7c0b-4566-a1ef-3410edc618ad"/>
  </defs>
  <title>about_solution</title>
  <g>
    <path class="15db3e51-c577-4909-b56c-8e6a3cc59a08" d="M41.63,33c0-1.8-1.24-3.61-4-3.61a5.86,5.86,0,0,0-3.31,1l-.3.23.88,2.31.54-.42A3.06,3.06,0,0,1,37.25,32c.68,0,1.49.23,1.49,1.31a4.31,4.31,0,0,1-1.35,2.56,5.26,5.26,0,0,0-1.42,4l.08,1h2.62l0-1A3.71,3.71,0,0,1,39.71,37C40.76,35.77,41.63,34.62,41.63,33Z" transform="translate(0 0)"/>
    <path class="0df1dce1-384b-4480-84b6-e893211f46ce" d="M37.31,41.44a1.82,1.82,0,0,0,0,3.63h0a1.82,1.82,0,0,0,0-3.63Z" transform="translate(0 0)"/>
    <path class="d7be1bfd-5e06-4573-a0c7-ea62bfb41bf3" d="M74.16,0H62.42a1.5,1.5,0,0,0-1.06,2.56L64,5.24l-3,2.95A37.46,37.46,0,0,0,41,.37a1.59,1.59,0,0,0-1.14.39,1.51,1.51,0,0,0-.48,1.11V21.69a1.49,1.49,0,0,0,1.23,1.47,15.09,15.09,0,0,1,12,12,1.49,1.49,0,0,0,1.47,1.22H74a1.51,1.51,0,0,0,1.1-.48,1.53,1.53,0,0,0,.39-1.14,37.38,37.38,0,0,0-7.94-20.17l2.94-2.94,2.65,2.64a1.48,1.48,0,0,0,1.63.32,1.5,1.5,0,0,0,.93-1.38V1.53A1.5,1.5,0,0,0,74.16,0Zm-1.5,9.62L71.51,8.5a1.51,1.51,0,0,0-2.12,0l-5,5a1.5,1.5,0,0,0-.08,2,34.46,34.46,0,0,1,7.94,17.92h-17A18.16,18.16,0,0,0,42.4,20.48V3.53a34.44,34.44,0,0,1,17.79,7.83,1.49,1.49,0,0,0,2-.09l5-5a1.51,1.51,0,0,0,0-2.12L66,3h6.62Z" transform="translate(0 0)"/>
    <rect class="64be029f-0490-44fb-940a-2bcf67dc50e4" x="55.87" y="17.74" width="3.12" height="3.12"/>
    <path class="7cb8d00d-c841-4424-a308-1867bd61eac3" d="M1,14.62a1.5,1.5,0,0,0,1.63-.33l2.65-2.64,2.95,3a37.35,37.35,0,0,0-7.82,20,1.55,1.55,0,0,0,.39,1.14,1.55,1.55,0,0,0,1.11.48H21.69A1.5,1.5,0,0,0,23.16,35a15.08,15.08,0,0,1,12-12,1.49,1.49,0,0,0,1.22-1.48V1.7A1.48,1.48,0,0,0,35.94.6,1.49,1.49,0,0,0,34.8.21,37.35,37.35,0,0,0,14.63,8.15L11.69,5.2l2.64-2.64A1.5,1.5,0,0,0,13.27,0H1.53A1.5,1.5,0,0,0,0,1.5V13.23A1.5,1.5,0,0,0,1,14.62ZM3,3H9.65L8.5,4.14a1.51,1.51,0,0,0,0,2.12l5,5a1.5,1.5,0,0,0,2,.08A34.38,34.38,0,0,1,33.42,3.37v17A18.14,18.14,0,0,0,20.48,33.26H3.53a34.44,34.44,0,0,1,7.83-17.79,1.51,1.51,0,0,0-.09-2l-5-5a1.5,1.5,0,0,0-2.13,0L3,9.61Z" transform="translate(0 0)"/>
    <rect class="484cf9fd-2d86-4b34-99a1-1f06d1521ea7" x="18.82" y="17.74" width="3.12" height="3.12"/>
    <path class="f71a25f4-dcd0-49d6-b31a-3fec475e7df6" d="M35,52.5a15.08,15.08,0,0,1-12-12,1.5,1.5,0,0,0-1.48-1.23H1.7a1.48,1.48,0,0,0-1.1.49,1.46,1.46,0,0,0-.39,1.14A37.3,37.3,0,0,0,8.15,61L5.2,64,2.56,61.33A1.5,1.5,0,0,0,.93,61,1.51,1.51,0,0,0,0,62.39V74.13a1.5,1.5,0,0,0,1.5,1.5H13.23a1.5,1.5,0,0,0,1.06-2.56l-2.64-2.65,3-3a37.44,37.44,0,0,0,20,7.83,1.53,1.53,0,0,0,1.14-.39,1.55,1.55,0,0,0,.48-1.11V54A1.5,1.5,0,0,0,35,52.5ZM33.26,72.12A34.34,34.34,0,0,1,15.47,64.3a1.51,1.51,0,0,0-2,.09l-5,5a1.49,1.49,0,0,0,0,2.12l1.14,1.15H3V66l1.14,1.14a1.54,1.54,0,0,0,2.12,0l5-5a1.51,1.51,0,0,0,.08-2A34.41,34.41,0,0,1,3.37,42.23h17a18.14,18.14,0,0,0,12.94,13Z" transform="translate(0 0)"/>
    <rect class="d2ff6c62-272b-4087-9474-4b1c8984f49c" x="16.67" y="54.79" width="3.12" height="3.12"/>
    <path class="a4cf6a3b-eb25-4b01-ba1a-895247c0b735" d="M74.7,61a1.51,1.51,0,0,0-1.64.32L70.42,64l-3-3a37.47,37.47,0,0,0,7.83-20,1.5,1.5,0,0,0-.4-1.14,1.48,1.48,0,0,0-1.1-.48H54a1.49,1.49,0,0,0-1.47,1.22,15.09,15.09,0,0,1-12,12,1.5,1.5,0,0,0-1.23,1.48V74a1.5,1.5,0,0,0,.49,1.1,1.52,1.52,0,0,0,1.14.39A37.41,37.41,0,0,0,61,67.51L64,70.46,61.33,73.1A1.5,1.5,0,0,0,61,74.73a1.51,1.51,0,0,0,1.39.93H74.12a1.5,1.5,0,0,0,1.5-1.5V62.42A1.49,1.49,0,0,0,74.7,61ZM72.62,72.66H66l1.14-1.15a1.49,1.49,0,0,0,0-2.12l-5-5a1.5,1.5,0,0,0-2-.08,34.45,34.45,0,0,1-17.93,7.94v-17A18.11,18.11,0,0,0,55.17,42.4h17A34.34,34.34,0,0,1,64.3,60.19a1.49,1.49,0,0,0,.09,2l5,5a1.51,1.51,0,0,0,2.12,0L72.62,66Z" transform="translate(0 0)"/>
    <rect class="a9e39cc9-9032-49be-a7e7-358ecf5bfa62" x="53.72" y="54.79" width="3.12" height="3.12"/>
  </g>
</svg>
