<svg id="e8a79b60-4ab0-4caa-bf93-118395d6bbbf" data-name="Layer 1" xmlns="http://www.w3.org/2000/svg" xmlns:xlink="http://www.w3.org/1999/xlink" width="89.84" height="86.17" viewBox="0 0 89.84 86.17">
  <defs>
    <style>
      .\31 825ebe0-3bf0-498a-bf42-a103be686513 {
        fill: url(#2cbfd870-5272-4db0-b558-10ece2f79837);
      }

      .f7ebd374-8c59-429e-92a5-08d5d31939b0 {
        fill: url(#07f3a4e9-adbf-4005-a8b3-9db5b61d81be);
      }

      .c60b181a-0646-4d99-873e-771b6d67ff2c {
        fill: url(#6f63e0b1-013b-4d80-bc28-05efa6723f5f);
      }
    </style>
    <linearGradient id="2cbfd870-5272-4db0-b558-10ece2f79837" data-name="Безымянный градиент 5" y1="39.98" x2="89.33" y2="39.98" gradientUnits="userSpaceOnUse">
      <stop offset="0" stop-color="#554ae8"/>
      <stop offset="1" stop-color="#de92c2"/>
    </linearGradient>
    <linearGradient id="07f3a4e9-adbf-4005-a8b3-9db5b61d81be" x1="40.03" y1="52.68" x2="48.18" y2="52.68" xlink:href="#2cbfd870-5272-4db0-b558-10ece2f79837"/>
    <linearGradient id="6f63e0b1-013b-4d80-bc28-05efa6723f5f" x1="0" y1="84.67" x2="89.84" y2="84.67" xlink:href="#2cbfd870-5272-4db0-b558-10ece2f79837"/>
  </defs>
  <title>about_best</title>
  <g>
    <path class="1825ebe0-3bf0-498a-bf42-a103be686513" d="M1.5,80H87.83a1.5,1.5,0,0,0,1.5-1.5V53.55a1.5,1.5,0,0,0-1.5-1.5H75V36.82L85.8,31.07a1.5,1.5,0,0,0,0-2.65L74.15,22.24A1.5,1.5,0,0,0,72,23.57V52.05H60.57V31.48a1.5,1.5,0,0,0-1.5-1.5H46.18V14.76L57,9a1.5,1.5,0,0,0,0-2.65L45.39.17a1.53,1.53,0,0,0-1.48,0,1.52,1.52,0,0,0-.73,1.29V30H30.3a1.5,1.5,0,0,0-1.5,1.5V48.31H17.38V31.72L28.23,26a1.5,1.5,0,0,0,0-2.65L16.59,17.14a1.53,1.53,0,0,0-1.48,0,1.51,1.51,0,0,0-.73,1.29V48.31H1.5A1.5,1.5,0,0,0,0,49.81V78.45A1.5,1.5,0,0,0,1.5,80ZM75,33.43V26.06l7,3.69ZM46.18,11.36V4l7,3.69Zm-28.8,17V21l7,3.68Zm69,26.72V77H60.57V55.05ZM31.8,33H57.57V77H31.8ZM3,51.31H28.77V77H3Z" transform="translate(0 0)"/>
    <path class="f7ebd374-8c59-429e-92a5-08d5d31939b0" d="M46.68,41.8H40v3h5.15V63.56h3V43.3A1.5,1.5,0,0,0,46.68,41.8Z" transform="translate(0 0)"/>
    <rect class="c60b181a-0646-4d99-873e-771b6d67ff2c" y="83.17" width="89.84" height="3"/>
  </g>
</svg>
