<svg id="c108378d-63e8-47d1-b374-c5cfe93abb40" data-name="Layer 1" xmlns="http://www.w3.org/2000/svg" xmlns:xlink="http://www.w3.org/1999/xlink" width="100.69" height="101.88" viewBox="0 0 100.69 101.88">
  <defs>
    <style>
      .\37 4631934-4717-4bfa-87b3-6541e76b7d3b {
        fill: url(#4ac4af6f-3873-4b80-ab4d-aff06e5388fb);
      }

      .ea4f351b-cc39-4d13-8735-b6f0998e58b0 {
        fill: url(#5c7a3b19-9e5b-453c-b732-b14000644a43);
      }

      .\38 eed0f66-dd56-490b-a41e-82ebe90f0124 {
        fill: url(#3fe132be-4907-4520-bfc2-5566e762ddba);
      }

      .\39 541bcee-7d59-44ee-9531-7f4de86b129a {
        fill: url(#5c207115-64d8-42d5-9f7e-fca48341e09f);
      }

      .b3a00579-f95d-4e5b-b22a-b40ab6afbaf5 {
        fill: url(#00bf6f54-7e6d-46e3-8328-b920e42a033a);
      }

      .ffa51b40-54df-4ed2-8eb4-016befb3f76b {
        fill: url(#3360393f-e822-48ea-9637-f1cfbd962e24);
      }

      .\31 544351b-429b-43d7-9a89-f39567b73a2e {
        fill: url(#3b56c090-2115-4625-8639-659be7747d88);
      }

      .dfeaaaef-7f08-4fde-b2f2-8672a18150ee {
        fill: url(#d1433a92-8ff5-4be5-b6cb-974d98f741af);
      }

      .e496e979-342e-4ff2-bdd7-806c78107965 {
        fill: url(#6ab713fa-d542-4eec-8a6d-e9116d375fee);
      }

      .\36 dd36d94-a539-4e10-a6c5-decf690b71ce {
        fill: url(#e53630ec-ac6d-4a88-808d-e52288789e1b);
      }
    </style>
    <linearGradient id="4ac4af6f-3873-4b80-ab4d-aff06e5388fb" data-name="Безымянный градиент 8" x1="-0.02" y1="56.49" x2="100.67" y2="56.49" gradientUnits="userSpaceOnUse">
      <stop offset="0" stop-color="#554ae8"/>
      <stop offset="1" stop-color="#de92c2"/>
    </linearGradient>
    <linearGradient id="5c7a3b19-9e5b-453c-b732-b14000644a43" x1="48.45" y1="1.35" x2="51.46" y2="1.35" gradientTransform="translate(0 -0.13) rotate(0.15)" xlink:href="#4ac4af6f-3873-4b80-ab4d-aff06e5388fb"/>
    <linearGradient id="3fe132be-4907-4520-bfc2-5566e762ddba" x1="35.39" y1="5.55" x2="39.4" y2="5.55" gradientTransform="translate(10.45 -20.96) rotate(36.09)" xlink:href="#4ac4af6f-3873-4b80-ab4d-aff06e5388fb"/>
    <linearGradient id="5c207115-64d8-42d5-9f7e-fca48341e09f" x1="27.95" y1="16.34" x2="31.44" y2="16.34" gradientTransform="translate(36.13 -16.94) rotate(72.12)" xlink:href="#4ac4af6f-3873-4b80-ab4d-aff06e5388fb"/>
    <linearGradient id="00bf6f54-7e6d-46e3-8328-b920e42a033a" x1="28.06" y1="29.59" x2="31.56" y2="29.59" gradientTransform="translate(10.68 -7.8) rotate(18.11)" xlink:href="#4ac4af6f-3873-4b80-ab4d-aff06e5388fb"/>
    <linearGradient id="3360393f-e822-48ea-9637-f1cfbd962e24" x1="68.85" y1="29.24" x2="72.33" y2="29.24" gradientTransform="translate(76.71 -46.92) rotate(72.09)" xlink:href="#4ac4af6f-3873-4b80-ab4d-aff06e5388fb"/>
    <linearGradient id="3b56c090-2115-4625-8639-659be7747d88" x1="68.73" y1="15.99" x2="72.22" y2="15.99" gradientTransform="translate(8.47 -21.14) rotate(18.13)" xlink:href="#4ac4af6f-3873-4b80-ab4d-aff06e5388fb"/>
    <linearGradient id="d1433a92-8ff5-4be5-b6cb-974d98f741af" x1="60.59" y1="5.34" x2="64.6" y2="5.34" gradientTransform="translate(30.24 -48.51) rotate(54.13)" xlink:href="#4ac4af6f-3873-4b80-ab4d-aff06e5388fb"/>
    <linearGradient id="6ab713fa-d542-4eec-8a6d-e9116d375fee" x1="48.22" y1="94.83" x2="51.34" y2="94.83" xlink:href="#4ac4af6f-3873-4b80-ab4d-aff06e5388fb"/>
    <linearGradient id="e53630ec-ac6d-4a88-808d-e52288789e1b" x1="48.22" y1="89" x2="51.34" y2="89" xlink:href="#4ac4af6f-3873-4b80-ab4d-aff06e5388fb"/>
  </defs>
  <title>about_bulb</title>
  <g>
    <path class="74631934-4717-4bfa-87b3-6541e76b7d3b" d="M91.12,64.65a8.44,8.44,0,0,0,1.13-4.21v-6.6A8.46,8.46,0,0,0,85,45.48a5.78,5.78,0,0,0-1.33-2.4c-1.76-1.91-4.77-2.88-8.94-2.88H55.36v-.82a2.49,2.49,0,0,0,.74-1.73c0-2,2-5.76,3.71-8.41l0,0A11.79,11.79,0,0,0,60.14,17h0A11.76,11.76,0,1,0,40,29.21l0,0c1.8,2.8,3.61,6.48,3.61,8.41a2.55,2.55,0,0,0,.77,1.82v.73H25.27c-4.18,0-7.18,1-8.94,2.88A5.8,5.8,0,0,0,15,45.55a8.46,8.46,0,0,0-6.85,8.29v6.6a8.37,8.37,0,0,0,1.2,4.32C.88,68.82-.25,71.69,0,73.2v5.62a1.5,1.5,0,0,0,1.5,1.5h30.4a1.5,1.5,0,0,0,1.5-1.5V73.21c.27-1.54-.89-4.44-9.53-8.56A8.33,8.33,0,0,0,25,60.44v-6.6a8.46,8.46,0,0,0-6.81-8.29,3.15,3.15,0,0,1,.38-.5c.82-.84,2.64-1.85,6.68-1.85H44.43v.32a1.45,1.45,0,0,0,.24.81,10.05,10.05,0,0,0,3.76,3.54v3.41A11.91,11.91,0,0,0,38.22,63v9.87a11.84,11.84,0,0,0,2.12,6.76C26.74,86.08,25.85,90.35,26.11,91.9v8.48a1.5,1.5,0,0,0,1.5,1.5H73.05a1.5,1.5,0,0,0,1.5-1.5V91.9C74.81,90.34,73.91,86,60,79.52a11.85,11.85,0,0,0,2-6.61V63A11.89,11.89,0,0,0,51.43,51.23V47.84a10.09,10.09,0,0,0,3.69-3.51,1.45,1.45,0,0,0,.24-.81V43.2H74.69c4,0,5.86,1,6.67,1.85a3.11,3.11,0,0,1,.44.59,8.46,8.46,0,0,0-6.46,8.2v6.6a8.47,8.47,0,0,0,1.2,4.32c-8.44,4.06-9.57,6.93-9.3,8.44v5.62a1.5,1.5,0,0,0,1.5,1.5h30.4a1.5,1.5,0,0,0,1.5-1.5V73.21C100.91,71.67,99.76,68.77,91.12,64.65Zm-60.7,8.24v4.43H3V73c0-.05,0-.1,0-.15.1-.32,1.06-2.38,8.37-5.79A8.4,8.4,0,0,0,21.87,67C29.35,70.47,30.32,72.57,30.42,72.89Zm-8.4-19v6.6a5.45,5.45,0,1,1-10.9,0v-6.6a5.45,5.45,0,0,1,10.9,0ZM42.56,27.6l0,0a8.68,8.68,0,0,1-1.37-4.7,8.75,8.75,0,0,1,16.36-4.34,8.76,8.76,0,0,1-.23,9.06l0,0c-1.2,1.86-3.92,6.39-4.16,9.59H51.43V24.78h2.75v-3H45.35v3h3.08V37.21H46.64C46.4,33.81,43.48,29,42.56,27.6Zm29,63.87a2.45,2.45,0,0,0,0,.27v7.14H29.11V91.74a1.09,1.09,0,0,0,0-.26c.05-.33.8-3.71,13.37-9.49a11.84,11.84,0,0,0,15.47-.13C70.76,87.72,71.53,91.15,71.57,91.47ZM59,63v9.87a8.89,8.89,0,0,1-17.78,0V63A8.89,8.89,0,0,1,59,63Zm-6.64-20c-.76,1.06-1.86,2.1-2.43,2.14h0c-.57,0-1.68-1.07-2.45-2.14V40.21h4.93Zm26,10.79a5.46,5.46,0,0,1,10.91,0v6.6a5.46,5.46,0,1,1-10.91,0ZM97.64,73v4.28H70.24V73a.76.76,0,0,0,0-.15c.11-.32,1.07-2.38,8.38-5.79A8.4,8.4,0,0,0,89.1,67c7.47,3.45,8.44,5.55,8.55,5.87A.76.76,0,0,0,97.64,73Z" transform="translate(0.02 0)"/>
    <rect class="ea4f351b-cc39-4d13-8735-b6f0998e58b0" x="48.46" width="3" height="2.69" transform="translate(0.01 0.13) rotate(-0.15)"/>
    <rect class="8eed0f66-dd56-490b-a41e-82ebe90f0124" x="35.89" y="4.21" width="3" height="2.69" transform="translate(3.92 23.09) rotate(-36.09)"/>
    <rect class="9541bcee-7d59-44ee-9531-7f4de86b129a" x="28.19" y="14.99" width="3" height="2.69" transform="translate(5.04 39.59) rotate(-72.12)"/>
    <rect class="b3a00579-f95d-4e5b-b22a-b40ab6afbaf5" x="28.46" y="28.09" width="2.7" height="3" transform="translate(-7.71 10.73) rotate(-18.11)"/>
    <rect class="ffa51b40-54df-4ed2-8eb4-016befb3f76b" x="69.09" y="27.89" width="3" height="2.69" transform="translate(21.08 87.42) rotate(-72.09)"/>
    <rect class="1544351b-429b-43d7-9a89-f39567b73a2e" x="69.13" y="14.49" width="2.69" height="3" transform="translate(-1.46 22.72) rotate(-18.13)"/>
    <rect class="dfeaaaef-7f08-4fde-b2f2-8672a18150ee" x="61.25" y="3.84" width="2.69" height="3" transform="matrix(0.59, -0.81, 0.81, 0.59, 21.61, 52.93)"/>
    <rect class="e496e979-342e-4ff2-bdd7-806c78107965" x="48.22" y="93.27" width="3.12" height="3.12"/>
    <rect class="6dd36d94-a539-4e10-a6c5-decf690b71ce" x="48.22" y="87.44" width="3.12" height="3.12"/>
  </g>
</svg>
