<svg id="5fb353b2-488f-417f-9941-5409e28a39b2" data-name="Layer 1" xmlns="http://www.w3.org/2000/svg" xmlns:xlink="http://www.w3.org/1999/xlink" width="83.51" height="99.47" viewBox="0 0 83.51 99.47">
  <defs>
    <style>
      .\35 b1f346f-b8f4-4d33-992a-313d536558fa {
        fill: url(#9b3f41e3-ad25-4495-a325-7f3afb62951b);
      }

      .ea468253-8231-41aa-86f7-7eca9d3f68c7 {
        fill: url(#8f8cfdf5-79e0-475d-ab5e-8a94757761c9);
      }

      .a229b96f-ec54-4a4e-afb1-177086438eb1 {
        fill: url(#62114c52-d6bf-495e-b75a-7e60f86715a5);
      }

      .b3f395ec-1a75-41c5-9f04-ca7f1017703d {
        fill: url(#420c002e-e49c-4887-82d6-cd2cdceb7668);
      }

      .cb8809a2-9bd3-457c-af77-7d6b62d667ca {
        fill: url(#2222de74-269f-4e91-8cf6-bb8526efb2fd);
      }

      .\39 f8562c0-4479-4d85-bedf-f5a24458d179 {
        fill: url(#a045b02c-885f-4b0a-ac39-fd01504e8693);
      }

      .c5e810d8-8a3c-48d9-a9b1-025e298b0900 {
        fill: url(#b8d4f770-8596-4f5e-9cce-0c97a991be4c);
      }

      .\32 15db832-86a2-4311-8bd7-825c5e8cbd69 {
        fill: url(#afc5d582-fe79-4be7-9668-8b74cfdc6f84);
      }

      .\35 fd91b21-9c66-4ff7-8d63-0e6b09e4b6ed {
        fill: url(#a08ac447-d5a0-46a0-afe7-dc6a810c46f3);
      }

      .aebfbbdc-bb52-4ed5-972f-cb766528af60 {
        fill: url(#9a00fe05-dc21-442c-9e78-3700f0cf5432);
      }

      .\37 501e59c-258b-45a8-84d9-dd42b08b95a6 {
        fill: url(#0d7ee660-c397-45fb-a534-ccd38697ab4a);
      }

      .\38 8966020-b505-4d33-90dd-406391334e98 {
        fill: url(#3a8a26d2-5b8d-43d6-9098-ef6220ab8ef4);
      }

      .ce5efc18-0cc9-4090-9304-e30d948cb7a5 {
        fill: url(#d1e16483-ed90-4070-b1f8-9012015d58bd);
      }

      .\30 5efd5a6-d15d-4c67-931a-de976227180c {
        fill: url(#4d50b4f2-3f37-48e2-8135-413da4453a87);
      }

      .c976258f-a7d8-4bf5-b88b-fb181c6ef082 {
        fill: url(#ce29ecaf-ad5a-4d1f-a6e6-f779090655f4);
      }

      .e8234321-3242-4903-8976-4466c602496f {
        fill: url(#11ab39ff-54e3-4a50-896f-424e357817a7);
      }

      .ca6dc3f1-a1a9-4a53-a21f-c81fe1bf027f {
        fill: url(#8c4672c9-985e-4276-8491-edcccb68777e);
      }

      .b1551060-1668-4994-b8fd-03afb6c8f6fe {
        fill: url(#c2df5d17-96df-43e0-9e7e-5966c0af27a3);
      }

      .\37 c4987d9-eb01-4368-a795-a4a0b4008806 {
        fill: url(#df1ba52e-1479-4ee0-82df-0e7d0c4a553d);
      }

      .\33 413f19f-0bf6-4683-8d80-26ed7771a93d {
        fill: url(#17b4b0f1-222a-4695-8a35-7f7f4d188c63);
      }

      .ddd6cabc-9803-48ef-a636-b2542a51ce47 {
        fill: url(#3493f81d-0214-490f-a704-8bf1aa14a8bd);
      }

      .\35 ee1d36b-67a7-4711-a3a1-66d6dd00c7c7 {
        fill: url(#9e582bb8-9cc9-4d98-ac4a-84a0919fc779);
      }
    </style>
    <linearGradient id="9b3f41e3-ad25-4495-a325-7f3afb62951b" data-name="Безымянный градиент 5" x1="13.43" y1="56.08" x2="70.16" y2="56.08" gradientUnits="userSpaceOnUse">
      <stop offset="0" stop-color="#554ae8"/>
      <stop offset="1" stop-color="#de92c2"/>
    </linearGradient>
    <linearGradient id="8f8cfdf5-79e0-475d-ab5e-8a94757761c9" x1="20.36" y1="49" x2="25.8" y2="49" xlink:href="#9b3f41e3-ad25-4495-a325-7f3afb62951b"/>
    <linearGradient id="62114c52-d6bf-495e-b75a-7e60f86715a5" x1="19.72" y1="29.89" x2="42.8" y2="29.89" xlink:href="#9b3f41e3-ad25-4495-a325-7f3afb62951b"/>
    <linearGradient id="420c002e-e49c-4887-82d6-cd2cdceb7668" x1="39.8" y1="2.42" x2="42.8" y2="2.42" xlink:href="#9b3f41e3-ad25-4495-a325-7f3afb62951b"/>
    <linearGradient id="2222de74-269f-4e91-8cf6-bb8526efb2fd" x1="29.06" y1="3.88" x2="33.21" y2="3.88" gradientTransform="translate(2.06 -7.92) rotate(14.99)" xlink:href="#9b3f41e3-ad25-4495-a325-7f3afb62951b"/>
    <linearGradient id="a045b02c-885f-4b0a-ac39-fd01504e8693" x1="19.18" y1="7.92" x2="24.2" y2="7.92" gradientTransform="translate(6.86 -9.78) rotate(30)" xlink:href="#9b3f41e3-ad25-4495-a325-7f3afb62951b"/>
    <linearGradient id="b8d4f770-8596-4f5e-9cce-0c97a991be4c" x1="10.85" y1="14.26" x2="16.39" y2="14.26" gradientTransform="translate(14.07 -5.45) rotate(44.99)" xlink:href="#9b3f41e3-ad25-4495-a325-7f3afb62951b"/>
    <linearGradient id="afc5d582-fe79-4be7-9668-8b74cfdc6f84" x1="4.62" y1="22.48" x2="10.31" y2="22.48" gradientTransform="translate(23.2 4.78) rotate(59.98)" xlink:href="#9b3f41e3-ad25-4495-a325-7f3afb62951b"/>
    <linearGradient id="a08ac447-d5a0-46a0-afe7-dc6a810c46f3" x1="0.92" y1="32.01" x2="6.37" y2="32.01" gradientTransform="translate(33.62 20.21) rotate(74.99)" xlink:href="#9b3f41e3-ad25-4495-a325-7f3afb62951b"/>
    <linearGradient id="9a00fe05-dc21-442c-9e78-3700f0cf5432" x1="0" y1="42.21" x2="4.84" y2="42.21" xlink:href="#9b3f41e3-ad25-4495-a325-7f3afb62951b"/>
    <linearGradient id="0d7ee660-c397-45fb-a534-ccd38697ab4a" x1="1.15" y1="52.37" x2="6.6" y2="52.37" gradientTransform="translate(13.68 0.78) rotate(14.99)" xlink:href="#9b3f41e3-ad25-4495-a325-7f3afb62951b"/>
    <linearGradient id="3a8a26d2-5b8d-43d6-9098-ef6220ab8ef4" x1="5.07" y1="61.82" x2="10.76" y2="61.82" gradientTransform="translate(31.95 4.31) rotate(29.98)" xlink:href="#9b3f41e3-ad25-4495-a325-7f3afb62951b"/>
    <linearGradient id="d1e16483-ed90-4070-b1f8-9012015d58bd" x1="11.49" y1="69.89" x2="17.04" y2="69.89" gradientTransform="translate(53.57 10.37) rotate(44.97)" xlink:href="#9b3f41e3-ad25-4495-a325-7f3afb62951b"/>
    <linearGradient id="4d50b4f2-3f37-48e2-8135-413da4453a87" x1="67.12" y1="69.24" x2="72.66" y2="69.24" gradientTransform="translate(69.35 -29.14) rotate(44.95)" xlink:href="#9b3f41e3-ad25-4495-a325-7f3afb62951b"/>
    <linearGradient id="ce29ecaf-ad5a-4d1f-a6e6-f779090655f4" x1="73.2" y1="61.02" x2="78.89" y2="61.02" gradientTransform="translate(90.8 -35.36) rotate(59.95)" xlink:href="#9b3f41e3-ad25-4495-a325-7f3afb62951b"/>
    <linearGradient id="11ab39ff-54e3-4a50-896f-424e357817a7" x1="77.14" y1="51.49" x2="82.59" y2="51.49" gradientTransform="translate(108.85 -39.01) rotate(74.95)" xlink:href="#9b3f41e3-ad25-4495-a325-7f3afb62951b"/>
    <linearGradient id="8c4672c9-985e-4276-8491-edcccb68777e" x1="78.67" y1="41.3" x2="83.51" y2="41.3" xlink:href="#9b3f41e3-ad25-4495-a325-7f3afb62951b"/>
    <linearGradient id="c2df5d17-96df-43e0-9e7e-5966c0af27a3" x1="76.9" y1="31.13" x2="82.36" y2="31.13" gradientTransform="translate(10.74 -19.5) rotate(14.96)" xlink:href="#9b3f41e3-ad25-4495-a325-7f3afb62951b"/>
    <linearGradient id="df1ba52e-1479-4ee0-82df-0e7d0c4a553d" x1="72.74" y1="21.69" x2="78.44" y2="21.69" gradientTransform="translate(20.93 -34.84) rotate(29.95)" xlink:href="#9b3f41e3-ad25-4495-a325-7f3afb62951b"/>
    <linearGradient id="17b4b0f1-222a-4695-8a35-7f7f4d188c63" x1="66.47" y1="13.62" x2="72.02" y2="13.62" gradientTransform="translate(29.87 -44.95) rotate(44.96)" xlink:href="#9b3f41e3-ad25-4495-a325-7f3afb62951b"/>
    <linearGradient id="3493f81d-0214-490f-a704-8bf1aa14a8bd" x1="58.52" y1="7.46" x2="63.54" y2="7.46" gradientTransform="translate(36.93 -49.1) rotate(59.95)" xlink:href="#9b3f41e3-ad25-4495-a325-7f3afb62951b"/>
    <linearGradient id="9e582bb8-9cc9-4d98-ac4a-84a0919fc779" x1="49.42" y1="3.64" x2="53.57" y2="3.64" gradientTransform="translate(41.63 -47.03) rotate(74.95)" xlink:href="#9b3f41e3-ad25-4495-a325-7f3afb62951b"/>
  </defs>
  <title>about_idea</title>
  <g>
    <path class="5b1f346f-b8f4-4d33-992a-313d536558fa" d="M41.79,12.7A28.33,28.33,0,0,0,25.13,64l.17.18c.05,0,5.1,4.36,5.1,9.2v5.1H28.55a1.5,1.5,0,1,0,0,3H30.4v2.93H28.55a1.5,1.5,0,1,0,0,3H30.4V91.7a1.5,1.5,0,0,0,1.5,1.5h4.35V98a1.5,1.5,0,0,0,1.5,1.5H46.3A1.5,1.5,0,0,0,47.8,98V93.2h4.13a1.5,1.5,0,0,0,1.5-1.5V87.37h2.08a1.5,1.5,0,0,0,0-3H53.43V81.44h2.08a1.5,1.5,0,0,0,0-3H53.43V73.1c0-4.82,5-9.16,5.1-9.2l.11-.1A28.07,28.07,0,0,0,70.16,41.06,28.4,28.4,0,0,0,41.79,12.7Zm3,83.77H39.25V93.2H44.8Zm5.63-6.27h-17V87.37h17Zm0-5.83h-17V81.44h17Zm-17-5.93v-3.6h17v3.6Zm2.13-35.51H33.72a1.81,1.81,0,1,1,1.81-1.81Zm3,2.53h6V71.84h-6ZM56.65,61.54a1.44,1.44,0,0,0-.28.27c-1.06.95-5.22,5-5.85,10h-3V45.93H49.3a4.81,4.81,0,1,0-4.81-4.81v1.34h-6V41.12a4.81,4.81,0,1,0-4.81,4.81h1.81V71.84H33.28c-.7-4.73-4.47-8.55-5.68-9.67a1.35,1.35,0,0,0-.39-.4A25.35,25.35,0,1,1,67.16,41.06,25.11,25.11,0,0,1,56.65,61.54ZM47.49,42.93V41.12a1.82,1.82,0,1,1,1.81,1.81Z" transform="translate(0)"/>
    <path class="ea468253-8231-41aa-86f7-7eca9d3f68c7" d="M23.31,45.86a1.5,1.5,0,0,0-2.9.79A21.74,21.74,0,0,0,23,52.54a1.52,1.52,0,0,0,1.27.7,1.5,1.5,0,0,0,1.26-2.31A18.84,18.84,0,0,1,23.31,45.86Z" transform="translate(0)"/>
    <path class="a229b96f-ec54-4a4e-afb1-177086438eb1" d="M41.3,19.24A21.55,21.55,0,0,0,19.73,38.9a1.5,1.5,0,0,0,1.36,1.63h.14a1.51,1.51,0,0,0,1.49-1.37A18.55,18.55,0,0,1,41.3,22.24a1.5,1.5,0,0,0,0-3Z" transform="translate(0)"/>
    <rect class="b3f395ec-1a75-41c5-9f04-ca7f1017703d" x="39.8" width="3" height="4.84"/>
    <rect class="cb8809a2-9bd3-457c-af77-7d6b62d667ca" x="29.63" y="1.46" width="3" height="4.84" transform="translate(0.06 8.19) rotate(-14.99)"/>
    <rect class="9f8562c0-4479-4d85-bedf-f5a24458d179" x="20.19" y="5.5" width="3" height="4.84" transform="translate(-1.05 11.9) rotate(-30)"/>
    <rect class="c5e810d8-8a3c-48d9-a9b1-025e298b0900" x="12.12" y="11.84" width="3" height="4.84" transform="translate(-6.1 13.8) rotate(-44.99)"/>
    <rect class="215db832-86a2-4311-8bd7-825c5e8cbd69" x="5.96" y="20.06" width="3" height="4.84" transform="translate(-15.74 17.7) rotate(-59.98)"/>
    <rect class="5fd91b21-9c66-4ff7-8d63-0e6b09e4b6ed" x="2.14" y="29.59" width="3" height="4.84" transform="translate(-28.22 27.24) rotate(-74.99)"/>
    <rect class="aebfbbdc-bb52-4ed5-972f-cb766528af60" y="40.71" width="4.84" height="3"/>
    <rect class="7501e59c-258b-45a8-84d9-dd42b08b95a6" x="1.46" y="50.87" width="4.84" height="3" transform="translate(-13.41 2.79) rotate(-14.99)"/>
    <rect class="88966020-b505-4d33-90dd-406391334e98" x="5.5" y="60.32" width="4.84" height="3" transform="translate(-29.83 12.23) rotate(-29.98)"/>
    <rect class="ce5efc18-0cc9-4090-9304-e30d948cb7a5" x="11.84" y="68.39" width="4.84" height="3" transform="translate(-45.22 30.53) rotate(-44.97)"/>
    <rect class="05efd5a6-d15d-4c67-931a-de976227180c" x="68.39" y="66.82" width="3" height="4.84" transform="translate(-28.49 69.62) rotate(-44.95)"/>
    <rect class="c976258f-a7d8-4bf5-b88b-fb181c6ef082" x="74.55" y="58.6" width="3" height="4.84" transform="matrix(0.5, -0.87, 0.87, 0.5, -14.85, 96.3)"/>
    <rect class="e8234321-3242-4903-8976-4466c602496f" x="78.37" y="49.07" width="3" height="4.84" transform="translate(9.4 115.25) rotate(-74.95)"/>
    <rect class="ca6dc3f1-a1a9-4a53-a21f-c81fe1bf027f" x="78.67" y="39.8" width="4.84" height="3"/>
    <rect class="b1551060-1668-4994-b8fd-03afb6c8f6fe" x="77.21" y="29.63" width="4.84" height="3" transform="translate(-5.34 21.61) rotate(-14.96)"/>
    <rect class="7c4987d9-eb01-4368-a795-a4a0b4008806" x="73.17" y="20.19" width="4.84" height="3" transform="translate(-0.73 40.64) rotate(-29.95)"/>
    <rect class="3413f19f-0bf6-4683-8d80-26ed7771a93d" x="66.82" y="12.12" width="4.84" height="3" transform="translate(10.63 52.91) rotate(-44.96)"/>
    <rect class="ddd6cabc-9803-48ef-a636-b2542a51ce47" x="58.6" y="5.96" width="4.84" height="3" transform="translate(24.01 56.55) rotate(-59.95)"/>
    <rect class="5ee1d36b-67a7-4711-a3a1-66d6dd00c7c7" x="49.07" y="2.14" width="4.84" height="3" transform="matrix(0.26, -0.97, 0.97, 0.26, 34.6, 52.42)"/>
  </g>
</svg>
