<svg id="e559954f-52a6-413a-9981-efcd39b88609" data-name="—ÎÓÈ_2" xmlns="http://www.w3.org/2000/svg" viewBox="0 0 163.67 94.74">
  <title>2222</title>
  <g>
    <path d="M74.37,54a10.65,10.65,0,0,0-8.94-4.45H53.62V40.16a2.9,2.9,0,1,1,5.79,0,3.87,3.87,0,1,0,7.73,0A10.6,10.6,0,0,0,53.62,29.94V24.4a2.9,2.9,0,1,1,5.79,0,3.87,3.87,0,0,0,7.73,0A10.6,10.6,0,0,0,53.62,14.18V10.63a2.9,2.9,0,1,1,5.79,0,3.87,3.87,0,0,0,7.73,0A10.63,10.63,0,0,0,46,9.45,10.34,10.34,0,0,0,43,9,10.64,10.64,0,0,0,32.36,19.65a3.87,3.87,0,1,0,7.73,0,2.9,2.9,0,0,1,5.8,0v4.79A10.32,10.32,0,0,0,43,24,10.64,10.64,0,0,0,32.36,34.66a3.87,3.87,0,0,0,7.73,0,2.9,2.9,0,0,1,5.8,0V49.54H34.08A10.63,10.63,0,0,0,25.14,54a8.07,8.07,0,0,0-.9,7.56l1.51,4.21A3.86,3.86,0,1,0,33,63.15L31.46,58.8a.45.45,0,0,1,.08-.49,3.11,3.11,0,0,1,2.54-1H65.43a3.09,3.09,0,0,1,2.53,1c.18.26.13.38,0,.63L57.94,87H41.57L37.84,76.59a3.87,3.87,0,0,0-7.28,2.61l4.65,13a3.88,3.88,0,0,0,3.64,2.56H60.66a3.86,3.86,0,0,0,3.63-2.56L75.21,61.69A8.12,8.12,0,0,0,74.37,54Z"/>
    <path d="M137.71,64.3a3.88,3.88,0,0,0-2.94-1.36h-4V56.3h4.57a2.9,2.9,0,1,0,0-5.79h-4.57V46.93h4.57a2.9,2.9,0,1,0,0-5.8h-5.09a16.11,16.11,0,0,0-.66-2l4.4-2.54a2.9,2.9,0,0,0-2.89-5l-4.69,2.71A15.85,15.85,0,0,0,125,33l2.68-4.64a2.9,2.9,0,0,0-5-2.89l-2.76,4.77a17.72,17.72,0,0,0-1.81-.45V24.4a2.9,2.9,0,1,0-5.79,0v5.41a14.37,14.37,0,0,0-1.88.48l-2.63-4.55a2.89,2.89,0,1,0-5,2.9l2.55,4.43a14.89,14.89,0,0,0-1.53,1.44l-4.25-2.45a2.9,2.9,0,0,0-2.9,5l4,2.33a15.3,15.3,0,0,0-.69,2.24H95.58a2.9,2.9,0,1,0,0,5.79h4v3.07h-4a2.9,2.9,0,1,0,0,5.79h4v6.64h-4a3.86,3.86,0,0,0-3.81,4.48l3.86,24.07a3.87,3.87,0,0,0,3.81,3.25h31.4a3.87,3.87,0,0,0,3.82-3.25l3.86-24.07A3.87,3.87,0,0,0,137.71,64.3ZM107.35,54.22a2.83,2.83,0,0,0,0-1.63V45.36a2.76,2.76,0,0,0,.12-.82,2.49,2.49,0,0,0,0-.47,7.84,7.84,0,0,1,15.62,1V62.94h-15.7ZM127.61,87H102.8l-2.63-16.34h30.06Z"/>
    <path d="M159.8,94.74H3.86a3.87,3.87,0,0,1,0-7.73H159.8a3.87,3.87,0,1,1,0,7.73Z"/>
  </g>
</svg>
