<svg id="6596cfff-8e1f-4de5-9aaa-351de0ef8e74" data-name="—ÎÓÈ_2" xmlns="http://www.w3.org/2000/svg" width="92.9" height="92.9" viewBox="0 0 92.9 92.9">
  <title>111</title>
  <g>
    <path d="M80.74,15.11h0c-.78-.85-1.59-1.67-2.43-2.47A3.87,3.87,0,0,0,73,18.26c.71.67,1.38,1.36,2,2.07h0A38.72,38.72,0,1,1,46.45,7.73c.87,0,1.72,0,2.57.08A3.86,3.86,0,1,0,49.54.1c-1-.07-2-.1-3.09-.1A46.44,46.44,0,1,0,80.74,15.11Z"/>
    <path d="M59.4,10a37.62,37.62,0,0,1,5.12,2.24,3.86,3.86,0,1,0,3.62-6.82A45.67,45.67,0,0,0,62,2.66,3.87,3.87,0,0,0,59.4,10Z"/>
    <path d="M26.49,51.31a3.86,3.86,0,0,0,1.61,7.38,3.79,3.79,0,0,0,1.6-.35L48.06,50A4,4,0,0,0,49.9,48.2L60.61,27.11a3.86,3.86,0,0,0-6.89-3.5L43.62,43.5Z"/>
  </g>
</svg>
