<?xml version="1.0" encoding="UTF-8" standalone="no"?>
<!DOCTYPE svg  PUBLIC '-//W3C//DTD SVG 1.1//EN'  'http://www.w3.org/Graphics/SVG/1.1/DTD/svg11.dtd'>
<svg xmlns="http://www.w3.org/2000/svg">
<defs>
<font id="DSGoose-Regular" horiz-adv-x="554">
<font-face underline-position="-75" font-weight="400" descent="-200" panose-1="2 0 5 6 3 0 0 2 0 3" units-per-em="1000" unicode-range="U+0020-0458" bbox="9 -368 959 923.143" x-height="446" underline-thickness="50" font-family="DSGoose" ascent="800" cap-height="686"/>
<missing-glyph horiz-adv-x="1000"/>
<glyph glyph-name=".notdef" horiz-adv-x="1000"/>
<glyph glyph-name=".null" horiz-adv-x="0"/>
<glyph glyph-name="nonmarkingreturn" horiz-adv-x="1000"/>
<glyph glyph-name="space" horiz-adv-x="500" unicode=" "/>
<glyph glyph-name="exclam" horiz-adv-x="169" unicode="!" d="M35 -14l-5 109l115 2l5 -91zM10 682l149 11l-27 -548l-94 -12z"/>
<glyph glyph-name="quotedbl" horiz-adv-x="363" unicode='&quot;' d="M295 419l-87 44q16 19 26 44t11 51q-26 2 -42 22t-16 47q0 11 5 23t14 24q9 10 21 16t26 7q25 0 44 -13q19 -14 31 -34t18 -44t6 -45q0 -37 -14 -73t-43 -69zM122 427l-89 46q17 21 27 47t11 54q-26 2 -43 24t-17 47q0 12 5 25q5 12 14 24t22 19t28 7q26 0 45 -12t31 -32 t19 -44q6 -25 6 -52q1 -44 -15 -87t-44 -66z"/>
<glyph glyph-name="dollar" horiz-adv-x="520" unicode="$" d="M244 447l2 100q-16 -9 -24 -23t-8 -28q0 -31 30 -49zM342 277l-1 -108q19 9 31 23t11 30q1 14 -9 28t-32 27zM253 735l100 -4l-4 -90q35 -15 75 -42t85 -72l-74 -71q-9 14 -19 24t-22 16q-12 7 -24 13t-24 13l-2 -127q38 -7 68 -27t53 -46q21 -26 33 -56t12 -61 q0 -33 -14 -61t-38 -46q-24 -20 -54 -32q-31 -12 -65 -11l-1 -68l-100 2l2 84q-36 13 -64 37t-45 59l-63 -31l-58 82l132 74q20 -16 45 -48t54 -56l2 144q-74 25 -109 72t-35 98q-1 30 11 58t32 50t48 34q28 13 59 14z"/>
<glyph glyph-name="quotesingle" horiz-adv-x="191" unicode="&apos;" d="M122 427l-89 46q17 21 27 47t11 54q-26 2 -43 24t-17 47q0 12 5 25q5 12 14 24t22 19t28 7q26 0 45 -14t31 -36t19 -47q6 -25 6 -46q-1 -39 -15 -77t-44 -73z"/>
<glyph glyph-name="plus" horiz-adv-x="503" unicode="+" d="M195 442h81v-139h143v-81h-143v-151h-81v151h-147v81h147v139z"/>
<glyph glyph-name="comma" horiz-adv-x="191" unicode="," d="M122 -145l-89 46q17 21 27 47t11 54q-26 2 -43 24t-17 47q0 12 5 25q5 12 14 24t22 19t28 7q26 0 45 -14t31 -36t19 -47q6 -25 6 -46q-1 -39 -15 -77t-44 -73z"/>
<glyph glyph-name="hyphen" horiz-adv-x="503" unicode="-" d="M48 222v81h371v-81h-371z"/>
<glyph glyph-name="hyphen" horiz-adv-x="503" unicode="­" d="M48 222v81h371v-81h-371z"/>
<glyph glyph-name="period" horiz-adv-x="172" unicode="." d="M127 18q-23 -19 -47 -19q-14 0 -26 6q-12 7 -22 17t-16 23t-5 28q-1 13 5 26t16 23t23 18q13 7 28 7q15 1 29 -5t25 -16t18 -22q7 -13 7 -27t-8 -29t-27 -30z"/>
<glyph glyph-name="slash" horiz-adv-x="537" unicode="/" d="M415 700l112 -55l-410 -618l-107 27z"/>
<glyph glyph-name="zero" d="M232 628q-26 -6 -46 -26t-32 -52t-18 -71q-6 -40 -7 -82q0 -54 10 -107q10 -54 29 -96q20 -42 48 -68t65 -27q44 1 76 19t53 48t31 64q10 36 10 70q-1 38 -9 77t-22 75t-35 69q-21 32 -43 56t-47 38t-50 14h-7q-3 0 -6 -1zM192 710q40 12 78 12q65 0 116 -32t86 -84 q36 -52 54 -118t18 -135q0 -62 -18 -125t-54 -114q-36 -52 -88 -84q-53 -32 -124 -32q-60 0 -106 33t-78 86t-48 121t-17 137q1 55 11 108t32 98t57 79q34 34 81 50z" unicode="0"/>
<glyph glyph-name="one" horiz-adv-x="280" unicode="1" d="M52 9v103l54 -4l3 459l-57 -29l-42 92l99 56l104 6l-10 -571h60l7 -110z"/>
<glyph glyph-name="two" horiz-adv-x="456" unicode="2" d="M103 505l-92 20q-1 3 -1 6v6q0 35 18 63t45 46q28 20 63 30t71 11q75 -1 120 -43t45 -118q0 -54 -22 -110t-54 -110t-67 -105q-36 -51 -63 -98l176 -14l-6 100l110 4v-186l-390 6l-14 117q24 34 50 71t56 80q28 43 58 93t59 112q11 24 11 38q0 30 -26 43q-22 11 -48 11 h-10q-32 -2 -59 -22q-27 -18 -30 -51z"/>
<glyph glyph-name="three" horiz-adv-x="465" unicode="3" d="M63 545l-38 81q7 12 27 22t48 19q28 8 59 13q32 5 63 5q37 0 72 -12q34 -11 62 -33t45 -51t17 -62q0 -35 -19 -67t-61 -59q56 -31 86 -83t30 -109q0 -40 -18 -75q-18 -34 -47 -60t-69 -40t-84 -15q-42 0 -82 11q-40 12 -72 34t-51 56q-20 34 -20 77l98 24q7 -25 19 -43 t28 -31q16 -12 36 -18q19 -6 39 -6q39 0 68 24t29 71q0 26 -14 48t-36 38t-52 23q-29 8 -60 8q-12 1 -24 -1t-22 -4l-11 99q25 1 57 5t62 14t50 26t20 38q0 46 -24 65t-61 19q-35 0 -75 -14t-75 -37z"/>
<glyph glyph-name="four" horiz-adv-x="539" unicode="4" d="M212 17l5 77l85 18l-5 125l-219 -5l2 339l-70 8l14 98l158 -24l-14 -327l129 11v220h114l-14 -220h132v-100h-132v-120l69 -1l-9 -89z"/>
<glyph glyph-name="five" horiz-adv-x="471" unicode="5" d="M11 197l98 24q7 -26 21 -46t34 -33q20 -14 44 -20t47 -6q20 0 39 5q20 5 34 15t23 26q9 15 9 36q0 34 -22 58t-57 38q-33 14 -73 20t-74 7q-27 0 -45 -3l-61 35l14 357h389v-100h-293l-13 -173q27 6 53 6q50 1 100 -19t90 -54t66 -78t26 -93q0 -37 -19 -69t-50 -57 t-71 -39t-84 -15q-42 0 -82 11t-72 33q-32 21 -51 55q-20 34 -20 79z"/>
<glyph glyph-name="six" horiz-adv-x="478" unicode="6" d="M369 166q2 7 3 14t1 13q1 26 -15 46q-16 19 -40 33t-52 21t-54 7q-38 0 -60 -14t-22 -43q0 -26 14 -52t34 -48q22 -21 48 -35t54 -14q26 0 50 16t39 56zM376 651l11 -103q-28 0 -63 -13q-34 -13 -66 -33t-56 -46t-30 -51q14 2 26 2h25q70 -1 117 -19t75 -48t40 -71 q12 -40 12 -82q0 -88 -44 -137t-132 -49q-69 0 -121 22q-52 21 -88 59t-53 88q-18 50 -18 107q-1 69 29 133t80 116t117 84q66 34 139 41z"/>
<glyph glyph-name="seven" horiz-adv-x="473" unicode="7" d="M94 477l-76 -10l-8 169l453 7l-3 -194l-271 -452l-179 1l344 476l7 72l-248 -32z"/>
<glyph glyph-name="eight" horiz-adv-x="540" unicode="8" d="M370 550q0 24 -10 42t-26 32q-16 13 -38 20q-20 7 -40 7q-17 0 -33 -5q-17 -5 -29 -16q-12 -12 -20 -28t-7 -39q0 -46 22 -73t71 -27q20 -1 40 5t36 16t25 25q10 15 10 33zM416 246q-3 24 -14 42q-10 18 -28 30t-40 16q-22 6 -44 6q-32 0 -62 -9t-54 -25t-40 -40t-16 -54 q0 -34 14 -61t36 -45t50 -29q28 -10 58 -10q26 0 52 9q26 10 46 28t31 46q12 28 12 68v13q0 7 -1 15zM119 416q-27 28 -39 62t-13 69q1 39 15 73t40 60t61 41q36 15 80 15q50 0 92 -15t72 -41t47 -59q17 -34 17 -72q0 -32 -13 -65t-42 -65q48 -39 71 -89t23 -102 q0 -48 -19 -91t-54 -75t-83 -52q-48 -19 -109 -19q-56 -1 -103 17q-46 18 -80 48t-53 69q-19 40 -19 85q0 52 26 104t83 102z"/>
<glyph glyph-name="nine" horiz-adv-x="486" unicode="9" d="M356 423q5 18 5 32q0 23 -11 41t-29 28q-19 12 -41 18t-45 5q-24 0 -45 -5q-20 -6 -36 -16t-26 -26t-9 -36q-1 -24 13 -46t35 -40t45 -28t48 -11q30 -1 56 19t40 65zM80 3l-32 101q19 0 46 6t57 18q30 11 60 26q29 16 55 32t43 34t21 35q-49 -10 -93 -10q-63 0 -107 20 t-70 53t-38 74t-12 83q0 86 46 133t130 47q69 1 123 -23t91 -64q36 -40 56 -92t20 -111q0 -69 -34 -131t-91 -112q-56 -48 -127 -80t-144 -39z"/>
<glyph glyph-name="colon" horiz-adv-x="172" unicode=":" d="M130 135q-12 -12 -25 -17t-25 -5q-14 0 -27 6t-23 16t-14 23q-6 13 -6 28q0 31 26 57q10 9 22 13t23 4q15 0 29 -6t25 -14q11 -10 18 -22t7 -26t-6 -28t-24 -29zM131 403q-12 -12 -25 -17t-25 -5q-14 0 -27 6q-12 6 -22 16t-16 23t-5 28q0 31 26 57q9 9 21 13t24 5 q15 1 29 -5t25 -15t18 -21t7 -28q-1 -14 -7 -28t-23 -29z"/>
<glyph glyph-name="semicolon" horiz-adv-x="199" unicode=";" d="M130 361q-12 -12 -25 -17t-25 -5q-14 0 -27 6t-23 16t-14 23q-6 13 -6 28q0 31 26 57q9 9 21 13t24 5q15 1 29 -5t25 -15t18 -21t7 -28q0 -14 -6 -28t-24 -29zM130 -145l-89 46q17 21 27 47t11 54q-26 2 -43 24t-17 47q1 17 9 35t28 31q13 9 32 9q22 0 44 -16t34 -36 q23 -43 23 -91q-1 -39 -15 -77t-44 -73z"/>
<glyph glyph-name="equal" horiz-adv-x="503" unicode="=" d="M48 342v81h371v-81h-371zM48 222v81h371v-81h-371z"/>
<glyph glyph-name="question" horiz-adv-x="456" unicode="?" d="M266 28q-12 -12 -25 -17t-25 -5q-14 0 -27 6t-23 16t-14 23q-6 13 -6 28q0 31 26 57q9 10 21 14t24 4q15 0 29 -6t25 -14q11 -10 18 -22t7 -27q0 -14 -6 -28t-24 -29zM104 503l-94 13q12 38 32 72t47 60t61 40t70 14q42 0 88 -22t94 -74q23 -24 33 -48t10 -47 q0 -29 -16 -57q-15 -28 -41 -50t-60 -39t-67 -26l23 -157l-115 5q-6 61 -6 100q0 31 3 51t9 34q7 14 15 24t19 17q19 16 41 27q22 12 40 22t28 21q12 11 12 27q0 18 -17 42q-13 20 -33 28t-41 8q-20 0 -41 -6q-22 -6 -40 -18t-32 -28t-22 -33z"/>
<glyph glyph-name="at" horiz-adv-x="684" unicode="@" d="M336 227q30 11 42 29t12 39q0 29 -19 51t-46 22q-13 0 -23 -5q-16 -7 -24 -21t-8 -30q0 -14 6 -30t14 -28t18 -20t20 -8q6 0 8 1zM571 117l38 -79q-45 -18 -109 -28t-132 -10q-38 0 -74 3q-71 7 -124 37t-88 74t-53 99t-18 113q-1 64 21 126t66 110t108 78q66 30 153 29 q23 -1 48 -3t51 -7q51 -9 91 -37t68 -68q29 -40 43 -88t14 -98q0 -49 -16 -96t-48 -85q-18 -21 -47 -32t-60 -11q-27 0 -52 8t-44 25q-23 -13 -43 -19t-40 -5q-30 -1 -54 13t-40 36t-26 50q-8 28 -8 55q0 25 8 49t22 44q14 18 38 30t57 11q17 1 37 -3t43 -12l11 27l87 -18 l-23 -184q5 -19 19 -19q12 0 25 12t18 27q14 39 20 71t7 61q-1 49 -17 83t-43 56t-63 34q-36 11 -73 11q-45 0 -90 -14t-81 -41q-36 -28 -58 -66t-22 -87q0 -81 24 -137t66 -90q40 -34 92 -50q52 -15 107 -15q43 0 85 8t79 22z"/>
<glyph glyph-name="A" horiz-adv-x="548" unicode="A" d="M260 537l-66 -218l137 2zM90 603v106l215 1l233 -710l-155 -3l-41 227l-164 -6l-42 -209l-126 7l152 592z"/>
<glyph glyph-name="B" horiz-adv-x="414" unicode="B" d="M111 638l-7 -182q8 -1 14 -1h14q64 1 100 27t36 75q0 47 -36 64t-100 17h-21zM117 359l-7 -256q28 -6 52 -6q37 0 65 12t47 31q18 20 28 44t10 50q0 24 -9 48t-27 42t-45 29t-64 11q-12 0 -24 -2t-26 -3zM10 4v735q24 3 48 3q56 0 112 -15t102 -41t74 -64q28 -36 29 -79 q1 -31 -17 -65t-56 -69q54 -37 78 -89t24 -104q0 -44 -15 -84t-42 -69q-18 -20 -45 -32q-26 -13 -58 -19t-66 -8t-68 -3q-28 0 -53 1t-47 2z"/>
<glyph glyph-name="C" d="M532 491l-97 -18q-32 46 -66 66t-66 20q-35 -1 -65 -19t-53 -49t-37 -71t-13 -83q-1 -35 13 -73t36 -68t54 -50q30 -20 64 -19q48 1 94 29t86 70l62 -83q-26 -27 -57 -51t-66 -43t-73 -29t-74 -10q-60 0 -108 30t-84 75q-34 45 -52 101t-19 108q0 70 24 134t64 114 q39 50 91 81q52 30 108 30q64 -1 124 -45t110 -147z" unicode="C"/>
<glyph glyph-name="D" horiz-adv-x="565" unicode="D" d="M215 560l-1 -459q58 3 102 23t72 50t42 70q14 38 14 79q0 43 -14 83t-44 73q-29 33 -72 55t-99 26zM13 574v110l130 -8q96 0 172 -32q75 -32 129 -82q54 -52 82 -116t28 -131q0 -60 -25 -117t-77 -101q-52 -45 -134 -71q-81 -26 -194 -26h-97l-17 110l104 -9l-4 474z"/>
<glyph glyph-name="E" horiz-adv-x="545" unicode="E" d="M14 -10l-4 100l38 1l-18 607l476 1v-100h-344l-1 -154h202l-8 -104l-196 -7l-11 -240l270 7l19 101l98 -22l-1 -175z"/>
<glyph glyph-name="F" horiz-adv-x="517" unicode="F" d="M16 601v100l491 1v-109l-348 10l9 -196l291 8l-5 -115l-298 -3l3 -230h58l1 -98l-199 1l-9 92h45l-5 539h-34z"/>
<glyph glyph-name="G" horiz-adv-x="574" unicode="G" d="M541 610l-89 -78q-20 12 -36 22t-30 20q-14 8 -30 12q-15 4 -36 5q-44 -1 -77 -25t-55 -64t-34 -88q-11 -49 -11 -97q-1 -45 11 -85t34 -70t54 -48t76 -17q48 1 82 37t44 106l-147 -13l-9 127l276 -13l-4 -113q-2 -57 -24 -102q-22 -46 -55 -76q-34 -30 -78 -46t-91 -16 q-68 0 -124 30t-94 80q-40 48 -62 108t-21 121q-1 71 23 139t66 120q42 53 99 85t124 32q51 0 106 -22t112 -71z"/>
<glyph glyph-name="H" horiz-adv-x="492" unicode="H" d="M360 687l107 -1l15 -690l-106 2l-5 280l-165 -1l3 -286l-109 -9l-12 572l-78 -11l4 128l169 20l8 -314l167 18z"/>
<glyph glyph-name="I" horiz-adv-x="296" unicode="I" d="M10 594v100l272 3l4 -100l-92 -3l-5 -479h91v-100l-246 -8l-16 98l71 8l5 481h-84z"/>
<glyph glyph-name="J" horiz-adv-x="469" unicode="J" d="M28 302l98 14q-1 -7 -1 -13v-13q1 -32 9 -62t22 -52t34 -35t41 -13q36 0 56 12q19 12 29 40t12 78q2 48 2 122q0 47 -2 108t-6 141l-312 -34v126l445 14l4 -100l-27 -1q-3 -37 -3 -75q1 -33 3 -67q4 -72 4 -144q0 -50 -9 -110t-31 -112t-58 -85q-37 -34 -93 -34 q-41 0 -81 19q-40 18 -70 52q-32 34 -52 79t-19 97q-1 12 1 24z"/>
<glyph glyph-name="K" horiz-adv-x="618" unicode="K" d="M273 350l-77 -49l-19 -305l-100 8l30 606l-97 -2v100l199 10l-8 -298l296 293l72 -70l-218 -221h2q21 -26 30 -72t18 -94t25 -92t54 -69q4 -2 5 -2q7 -1 11 13t7 32t5 34t6 23l94 -34q0 -29 -6 -59t-20 -55t-36 -41t-54 -15h-12q-6 0 -12 2q-36 6 -62 27t-45 52t-33 68 t-23 75t-17 73t-15 62z"/>
<glyph glyph-name="L" horiz-adv-x="492" unicode="L" d="M15 11l-5 126l47 -7l17 487l-53 -6l-2 107l171 3l-29 -591l300 18l21 -130z"/>
<glyph glyph-name="M" horiz-adv-x="799" unicode="M" d="M10 556l8 157l279 -14l122 -382l200 339l108 14l20 -562l42 2v-100l-173 -8l6 100l25 -1l-14 317l-153 -272l40 2v-100l-178 -2v100h27l-135 334l-10 -394h25l9 -120l-185 7v113l51 -4v472z"/>
<glyph glyph-name="N" horiz-adv-x="661" unicode="N" d="M24 -36v100h52l-1 510l-65 -2v100l235 3l204 -479l25 399l-50 -4l-12 100l239 5v-100h-77l-31 -570l-118 -14l-249 468v-416h29v-100h-181z"/>
<glyph glyph-name="O" d="M232 93q3 -1 6 -1h7q37 0 74 30t67 78t47 106q18 58 18 115q0 33 -10 69t-31 66t-53 48t-76 18q-37 0 -65 -26t-48 -70q-19 -42 -29 -95t-10 -107q1 -42 7 -82t18 -72t32 -52q20 -21 46 -25zM192 11q-47 17 -81 51q-35 34 -57 79t-32 98t-11 108q1 69 17 137t48 121 t78 85t106 33q71 -1 124 -33q52 -32 88 -83t54 -114t18 -125q0 -70 -18 -136t-54 -118q-35 -52 -86 -83q-51 -32 -116 -32q-38 0 -78 12z" unicode="O"/>
<glyph glyph-name="P" horiz-adv-x="462" unicode="P" d="M177 592v-233q19 -4 40 -4q30 0 53 10q22 10 38 26t24 37t7 44q0 24 -8 46t-24 39t-40 27t-56 11q-16 0 -34 -3zM10 577l5 113l158 -5q67 -2 119 -22t88 -51q36 -32 54 -70t18 -78q0 -36 -16 -72t-50 -64t-86 -48t-123 -24l18 -256l-125 4l7 583z"/>
<glyph glyph-name="Q" horiz-adv-x="587" unicode="Q" d="M198 225l-24 98q22 12 48 18t52 6q27 0 52 -7q26 -7 44 -22t30 -38t11 -54q0 -15 -3 -30q14 38 22 84t7 92q0 47 -8 91t-24 78q-15 35 -41 55t-60 20q-50 0 -85 -19t-57 -50t-34 -69q-10 -38 -10 -76q0 -54 16 -110t42 -100t58 -72q33 -28 68 -28h8q1 10 1 20v21 q0 21 -2 41t-8 36t-17 26t-28 9q-24 0 -58 -20zM469 9h100q8 -30 8 -52q1 -32 -11 -56t-31 -40t-43 -24t-49 -8t-49 8q-24 9 -42 25t-30 40t-12 57q0 11 2 21t3 22q-18 -3 -35 -3q-64 -1 -114 31t-84 83t-54 117q-18 66 -18 133q0 68 20 132t59 114t95 80t131 30 q66 1 112 -33q47 -34 75 -85t41 -112t13 -117q0 -50 -9 -98t-27 -93t-45 -81t-64 -61q1 -14 1 -33q0 -18 3 -36t7 -30t12 -14q23 0 29 16t6 38v29z"/>
<glyph glyph-name="R" horiz-adv-x="521" unicode="R" d="M177 592v-233q9 -2 19 -3t18 -1q30 1 54 11t40 27t23 39q8 22 8 44q1 22 -7 44t-24 38t-38 28q-23 10 -54 10q-20 0 -39 -4zM10 577l5 114h150q71 0 125 -20q54 -21 92 -53t56 -74q20 -42 20 -83q0 -55 -35 -105t-109 -77q-6 -8 -6 -30q0 -19 4 -43t12 -47q8 -22 18 -37 t19 -15q19 0 29 12q10 13 13 33q4 20 5 46t4 54l98 -20v-16q0 -39 -9 -78q-9 -38 -27 -70t-46 -52t-66 -19q-36 0 -64 23t-46 58t-28 76t-10 77v14t1 13q-9 -2 -19 -2h-19l18 -256l-118 6v581z"/>
<glyph glyph-name="S" horiz-adv-x="496" unicode="S" d="M38 152l-28 108l149 48q9 -46 25 -80t36 -55t42 -31t40 -10q21 0 35 12t14 34q-1 22 -17 52t-54 66q-22 22 -60 40t-74 42t-64 54q-26 31 -26 77q0 41 16 75t44 60q28 25 63 39q36 14 77 14q33 1 67 -7q35 -8 65 -22t56 -35q26 -20 42 -44l-70 -70q-32 37 -78 55t-86 18 q-32 0 -56 -13t-25 -41q-1 -24 21 -48t52 -48t62 -44q32 -21 53 -39q21 -19 40 -41t33 -48t22 -52t9 -51q1 -23 -11 -49t-34 -48t-52 -38q-30 -14 -68 -14q-36 0 -69 14t-60 40q-27 24 -46 55t-27 64z"/>
<glyph glyph-name="T" horiz-adv-x="530" unicode="T" d="M10 595l5 117l481 5l24 -109l-224 9l10 -630l-116 4l-3 604h-177z"/>
<glyph glyph-name="U" horiz-adv-x="603" unicode="U" d="M10 599l3 104l168 -5q2 -17 3 -38t1 -44q1 -42 -1 -90t-2 -97q0 -59 5 -115t21 -98q16 -44 44 -70q29 -26 77 -27q45 0 75 32q30 31 48 87t24 130q7 74 7 159q-1 38 -1 76t-1 78l100 8q6 -45 9 -95t3 -103q0 -49 -3 -105q-2 -56 -12 -109t-28 -103t-46 -88 q-30 -38 -72 -60t-100 -22q-60 0 -102 18t-69 50t-42 78q-15 44 -22 97t-8 113t-1 122v63q0 33 1 68z"/>
<glyph glyph-name="V" horiz-adv-x="648" unicode="V" d="M382 2h-132l-156 634l-76 -6l-8 100l179 -7l131 -539l172 528l146 9z"/>
<glyph glyph-name="W" horiz-adv-x="839" unicode="W" d="M10 599l3 104l168 -5q2 -16 3 -36t1 -43q0 -45 -2 -95t-2 -102q1 -54 5 -108t18 -96q14 -44 38 -70q25 -26 66 -26q28 0 46 24t28 69q10 43 16 105q4 62 4 136q0 52 -1 107t-3 115l111 9q1 -21 3 -47t2 -54v-123q0 -64 3 -128q3 -63 14 -115t31 -84t55 -32q33 0 53 22 t32 64t16 100t5 130q0 54 -2 114t-4 125l100 8q6 -45 9 -95t3 -103q-1 -39 -3 -90t-10 -105t-22 -105q-14 -53 -38 -93t-58 -65t-80 -25q-45 0 -90 33t-83 99q-31 -60 -69 -88t-81 -28q-51 0 -86 20t-58 56t-36 82t-19 100t-7 110q-1 57 -1 112v63q0 33 1 68z"/>
<glyph glyph-name="X" horiz-adv-x="615" unicode="X" d="M491 -11l-197 307l-154 -285l-130 -2l204 368l-193 323l141 14l137 -238l151 240l134 -18l-199 -307l220 -366z"/>
<glyph glyph-name="Y" horiz-adv-x="486" unicode="Y" d="M10 149l83 62l39 -39t42 -34q21 -16 43 -26t43 -10q31 0 53 16t36 42q14 24 21 54t7 56q0 29 -5 61t-14 67q-38 -50 -80 -71t-84 -21q-44 0 -78 17t-57 45t-35 66t-12 79q0 37 4 85t7 114l113 3q0 -47 -8 -91t-7 -87q1 -20 5 -41q4 -20 14 -38t24 -30q16 -12 39 -11 q36 1 63 21q26 20 44 50t27 62q9 34 9 60q0 19 -2 43t-4 58l102 14q3 -63 4 -103q2 -40 2 -72q0 -30 2 -58t9 -66q7 -48 11 -88t5 -76q-1 -41 -15 -88t-42 -87q-28 -41 -72 -67q-42 -26 -97 -26q-60 0 -122 38t-117 117z"/>
<glyph glyph-name="Z" horiz-adv-x="572" unicode="Z" d="M45 -4l8 125l360 457l-381 -23l-22 204l128 -5l2 -76l422 39l-6 -157l-372 -442l357 25l6 -144z"/>
<glyph glyph-name="backslash" horiz-adv-x="546" unicode="\" d="M114 705l422 -651l-83 -69l-443 642z"/>
<glyph glyph-name="underscore" horiz-adv-x="667" unicode="_" d="M48 -69v81h582v-81h-582z"/>
<glyph glyph-name="grave" horiz-adv-x="191" unicode="`" d="M122 427l-89 46q17 21 27 47t11 54q-26 2 -43 24t-17 47q0 12 5 25q5 12 14 24t22 19t28 7q26 0 45 -14t31 -36t19 -47q6 -25 6 -46q-1 -39 -15 -77t-44 -73z"/>
<glyph glyph-name="a" horiz-adv-x="634" unicode="a" d="M122 155q7 -29 36 -43t64 -13q24 0 49 6t45 17q20 10 32 26t12 35q0 28 -14 50t-32 37q-18 14 -39 22t-36 8q-23 0 -45 -9t-39 -25t-27 -36q-10 -21 -10 -45q0 -17 4 -30zM354 454l112 -4q0 -19 -2 -47q-2 -29 -4 -61t-4 -66t-2 -65q0 -27 2 -49t10 -36l135 25l23 -120 l-223 -32l-9 53q-50 -32 -99 -48t-94 -16q-43 0 -77 13t-59 37t-39 56q-14 33 -14 72q0 48 22 92t58 80q36 35 82 56t97 21q36 0 75 -14q10 30 10 53z"/>
<glyph glyph-name="b" horiz-adv-x="589" unicode="b" d="M177 251v-7q1 -30 13 -56t32 -45t47 -29q26 -10 52 -11q20 0 42 9t40 27t30 45t12 63q-1 24 -13 43t-32 33q-20 13 -46 21t-52 8q-23 0 -44 -6q-20 -6 -38 -18t-29 -31t-14 -46zM10 610v100h178l-13 -289q39 26 79 38t79 12q50 -1 95 -19q44 -18 78 -51t54 -77t19 -97 q0 -53 -18 -97t-49 -74q-30 -32 -72 -50t-89 -17q-57 1 -115 23t-104 67l-5 -82l-98 16l55 597h-74z"/>
<glyph glyph-name="c" horiz-adv-x="503" unicode="c" d="M468 404l-106 -28q-23 18 -45 26t-43 8q-30 0 -57 -14t-47 -36t-30 -49q-12 -27 -12 -54q0 -39 14 -67t34 -48q21 -18 46 -27t48 -9q42 0 86 15t81 32l56 -84q-57 -32 -121 -50t-125 -18q-47 0 -91 13t-76 42t-51 75t-19 112q0 63 19 115t52 89t78 57t97 20q58 0 114 -28 t98 -92z"/>
<glyph glyph-name="d" horiz-adv-x="605" unicode="d" d="M124 111q14 -23 40 -33t55 -10t59 9t52 25q24 16 39 38t15 49q0 19 -7 37t-19 30q-12 14 -30 22q-17 8 -38 9q-28 0 -60 -12q-32 -11 -58 -31t-43 -45t-17 -50q0 -22 12 -38zM338 694l138 28l10 -609l94 9l15 -122l-189 -5l-6 68q-30 -49 -84 -73t-111 -24q-91 0 -143 51 t-51 139q0 55 23 98t61 73q38 29 88 45t104 16q36 0 74 -8z"/>
<glyph glyph-name="e" horiz-adv-x="578" unicode="e" d="M153 332l276 27q-2 23 -13 39t-28 26t-39 16t-45 6q-28 0 -55 -8t-49 -21t-34 -35q-13 -22 -13 -50zM512 186l56 -91q-81 -55 -162 -83t-153 -28q-57 0 -103 20t-76 54q-32 35 -48 85t-16 110q0 65 18 119t55 92q36 38 88 60q52 21 120 21q51 -1 96 -15t79 -46t53 -82 q20 -50 20 -121l-393 -59q0 -36 7 -60t20 -40q13 -15 31 -21t40 -6q30 -1 65 9t71 24t69 30q34 16 63 28z"/>
<glyph glyph-name="f" horiz-adv-x="469" unicode="f" d="M15 308l-5 121l109 9q3 25 3 58q0 40 3 82t17 78q14 35 44 58t84 23q56 0 92 -17q36 -18 58 -46t30 -65t8 -77l-110 -29q-6 73 -24 103t-40 30q-14 0 -26 -10t-22 -28t-15 -42q-6 -24 -6 -52q0 -31 7 -60l126 -2l25 -124l-143 21l36 -324l-127 -2l-15 315z"/>
<glyph glyph-name="g" horiz-adv-x="620" unicode="g" d="M414 242q-4 26 -20 46t-38 34t-48 20q-26 8 -53 8q-26 0 -51 -8q-24 -8 -44 -22q-20 -16 -32 -40t-11 -57q1 -60 35 -91t88 -31q31 -1 62 9q30 10 56 26t42 40q16 23 16 49v9t-2 8zM219 -93l-20 88q20 10 33 10l1 -1q13 0 30 2v19q-24 -3 -45 -3q-57 0 -97 18 q-41 18 -65 48t-35 68t-11 80q0 62 24 104t64 68t94 38q53 12 112 12q54 0 110 -9l184 -6l12 -110l-130 9q18 -23 27 -52t9 -61q0 -33 -10 -65t-29 -58t-48 -43t-66 -20v-34q52 -2 91 -16q38 -15 64 -37t38 -51t13 -61q0 -50 -22 -88q-21 -38 -59 -65q-38 -26 -87 -40 t-102 -14q-37 0 -73 7t-70 21q-34 13 -66 35q-31 22 -56 51l86 71q34 -42 80 -60t93 -18q31 0 57 6t47 20q19 14 31 32t12 41q0 41 -29 65t-80 25q-24 0 -52 -6t-60 -20z"/>
<glyph glyph-name="h" horiz-adv-x="547" unicode="h" d="M10 587v125l189 -14l3 -273q48 39 105 63t107 24q26 0 48 -18t40 -42q16 -24 25 -50q9 -25 9 -38l-5 -353h-93v345q-30 46 -74 46q-36 0 -79 -30t-88 -83l11 -284l-126 -5l32 587h-104z"/>
<glyph glyph-name="i" horiz-adv-x="171" unicode="i" d="M130 536q-12 -12 -25 -17t-25 -5q-14 0 -27 6t-23 16t-14 23q-6 13 -6 28q0 13 6 27t14 24q10 10 23 16t28 7t29 -5t25 -15t18 -21t7 -27q0 -14 -6 -28t-24 -29zM21 462l103 -8l33 -452l-136 -10v470z"/>
<glyph glyph-name="j" horiz-adv-x="382" unicode="j" d="M311 434q-12 -3 -22 -3q-31 0 -48 21t-17 46q0 12 4 24t14 22q9 10 22 16t30 7q15 -1 28 -7t23 -17t16 -25t6 -26q-1 -18 -13 -34t-43 -24zM145 279l15 116l212 -4l-11 -540q0 -43 -12 -83q-13 -40 -33 -70t-48 -48t-61 -18q-46 0 -82 21t-61 57t-39 80q-14 46 -15 96 l109 29q1 -29 7 -56t16 -48t22 -34q14 -13 29 -13q17 0 33 26t26 69l19 431z"/>
<glyph glyph-name="k" horiz-adv-x="532" unicode="k" d="M196 433l-7 -120q13 -5 31 -9t38 -3q24 1 47 5t41 14t30 28q12 16 11 40q0 34 -30 52t-70 18q-23 0 -47 -6t-44 -19zM23 597l-13 100l151 33l11 -184q48 20 97 20q46 0 90 -15t78 -40q35 -25 55 -59t20 -70q0 -38 -16 -66t-42 -49t-62 -33t-75 -18l80 -103l116 13l9 -111 l-166 -5l-172 197l9 -225l-100 -2l-22 627z"/>
<glyph glyph-name="l" horiz-adv-x="141" unicode="l" d="M10 2l11 701l103 4l7 -705h-121z"/>
<glyph glyph-name="m" horiz-adv-x="682" unicode="m" d="M10 512l197 11l4 -20q21 12 49 20t56 8q29 1 53 -11t36 -39q26 15 54 23t54 9q39 -1 67 -23t46 -58t26 -82q10 -46 14 -90q4 -46 6 -86v-67v-87l-104 -9q1 20 1 55v78q0 43 -3 89t-13 83t-28 61t-49 24q-18 1 -32 -11t-17 -39l-2 -326l-115 -7l9 364q1 14 -13 22t-32 8 q-24 0 -47 -12t-27 -36l-28 -342l-100 6l31 383l-89 1z"/>
<glyph glyph-name="n" horiz-adv-x="507" unicode="n" d="M12 392l-2 106l190 22v-45q26 23 62 35t75 13q25 0 49 -6t42 -18q20 -12 34 -31t21 -46q8 -30 11 -66t3 -74q1 -74 -9 -152t-22 -150l-95 9q11 107 18 181t7 128q0 16 -1 38t-7 40q-6 20 -16 33q-12 13 -33 13q-29 0 -67 -28t-78 -85l-24 -321l-100 6l28 402h-8 q-10 0 -32 -1t-46 -3z"/>
<glyph glyph-name="o" horiz-adv-x="574" unicode="o" d="M291 67q27 -1 53 5t46 18t31 30q12 18 12 42q-1 23 -13 52t-33 54t-49 42t-58 17q-32 -1 -63 -13t-55 -32t-40 -46t-16 -52q0 -31 18 -53t46 -36q28 -15 60 -21t61 -7zM324 -48q-42 0 -96 15t-102 44t-82 71t-34 97q0 49 24 97t64 86t92 60q52 24 105 24q41 0 81 -14 t75 -49q60 -56 86 -112t26 -108q1 -45 -17 -83t-50 -68q-32 -28 -76 -44t-96 -16z"/>
<glyph glyph-name="p" horiz-adv-x="635" unicode="p" d="M343 118l54 4q12 0 30 4q17 4 35 17t30 38t12 69q0 40 -24 68t-66 27q-32 -1 -66 -13t-63 -32t-48 -46t-19 -53q0 -21 12 -37t30 -26t41 -15q22 -5 42 -5zM189 -300l-133 -2l54 659l-94 -2l-6 133l189 -10l8 -67q35 27 75 39t79 13q51 0 99 -19t84 -51q37 -32 59 -75 t22 -92q-1 -53 -23 -94t-60 -69q-38 -29 -88 -43t-104 -14q-41 0 -81 8t-76 26z"/>
<glyph glyph-name="q" horiz-adv-x="639" unicode="q" d="M279 108q28 0 54 8t46 22q21 14 33 33t12 42q0 26 -12 46q-12 19 -30 33q-20 14 -45 21t-52 7t-55 -6t-50 -18t-34 -30q-14 -18 -14 -39q0 -26 14 -48q14 -21 37 -37q21 -16 47 -25t49 -9zM379 -361l6 389q-70 -29 -136 -29q-46 0 -89 15t-76 43q-33 27 -53 67t-20 88 q0 50 26 93q27 43 69 75t95 49q53 18 107 18q38 0 75 -10t69 -32l12 55l160 14l5 -134l-94 6l-37 -572l85 46l34 -94l-129 -85z"/>
<glyph glyph-name="r" horiz-adv-x="512" unicode="r" d="M47 2l6 80h48l2 311l-93 7l8 97l140 15l36 -58q26 18 64 26t78 8q31 0 60 -6t52 -18q24 -12 38 -32t16 -47l-96 -79q-27 51 -57 72t-58 21q-29 -1 -51 -17t-35 -41l5 -264l38 -6l2 -89z"/>
<glyph glyph-name="s" horiz-adv-x="521" unicode="s" d="M509 414l-74 -71q-17 16 -39 33q-22 16 -44 30t-46 22q-22 8 -40 9q-24 0 -38 -17t-14 -37q0 -21 18 -39t46 -32q28 -15 60 -28t60 -25q56 -25 84 -71t29 -93q-1 -37 -15 -65t-39 -48t-57 -30t-67 -10q-29 0 -59 7t-57 21t-49 36q-22 21 -37 50l-63 -31l-58 82l132 74 q15 -13 33 -35t39 -44q20 -22 44 -37q24 -16 50 -16q8 -1 20 3t24 12t22 18t10 24t-12 29t-33 31t-49 32t-63 31q-65 29 -97 73t-32 90q0 32 12 60t35 50q21 22 51 34t63 12q51 0 115 -31t135 -103z"/>
<glyph glyph-name="t" horiz-adv-x="441" unicode="t" d="M10 342l9 113l94 7l-6 213l121 17l-13 -204l106 1l7 -96l-124 -20l-5 -248q4 -33 17 -43t33 -10q24 0 40 15q15 15 25 37t14 46t3 42l100 -16q-1 -48 -13 -88t-38 -70q-24 -30 -60 -46t-83 -17q-28 0 -54 3q-26 4 -46 14t-33 28t-16 51l5 275z"/>
<glyph glyph-name="u" horiz-adv-x="544" unicode="u" d="M520 150l14 -141l-160 -3l-12 59q-28 -28 -73 -44t-92 -16q-56 1 -92 23t-57 60t-29 86q-8 49 -8 102q0 68 8 136t13 126l106 -7q-4 -85 -12 -155t-7 -123q0 -28 4 -52q5 -24 15 -42q10 -19 28 -29t45 -10q35 0 69 26t53 75l6 323l100 -1l-3 -424z"/>
<glyph glyph-name="v" horiz-adv-x="645" unicode="v" d="M222 497l26 -96l-48 -12l142 -225l110 241h-67v100l247 3l3 -116l-58 3l-187 -386l-84 -8l-242 388l-42 -6l-12 100z"/>
<glyph glyph-name="w" horiz-adv-x="622" unicode="w" d="M512 502l100 -5l-41 -393q-9 -24 -27 -44t-44 -35q-24 -14 -52 -22t-57 -8q-35 -1 -67 13t-51 44q-27 -16 -55 -25t-56 -9q-36 0 -62 18t-42 46t-26 64t-14 76q-4 38 -6 76q-1 38 -1 67v36q1 21 1 39v34v26l104 10q1 -10 1 -24q1 -18 -1 -42q-2 -43 -3 -93q0 -40 3 -79 q2 -38 12 -70t28 -52t45 -19q18 -1 32 11t17 39l9 316l115 8l-16 -354q0 -17 12 -30t31 -13q12 0 25 5q12 5 24 13t20 20q8 11 7 24z"/>
<glyph glyph-name="x" horiz-adv-x="566" unicode="x" d="M471 -20l-197 197l-194 -182l-70 72l195 181l-181 175l72 70l183 -177l180 170l70 -70l-180 -172l207 -193z"/>
<glyph glyph-name="y" horiz-adv-x="497" unicode="y" d="M35 -171l83 62q18 -19 40 -38t45 -34t47 -25t46 -9q26 0 45 12t31 31q12 18 18 42t5 47q0 41 -10 87t-22 94q-39 -50 -81 -71t-83 -21q-59 0 -96 24t-57 66q-20 40 -28 93q-7 53 -7 110q0 43 2 91t5 102l113 3q0 -41 -4 -98t-4 -114q-1 -26 1 -54t10 -51t24 -38t45 -15 q43 0 71 16t46 43q16 27 22 63t7 76q0 38 -4 80t-10 88l102 14q3 -63 5 -113t6 -91q2 -42 6 -79t10 -76q8 -57 16 -109t7 -100q0 -40 -12 -86t-37 -85q-26 -38 -64 -64t-90 -26q-57 0 -118 39t-131 114z"/>
<glyph glyph-name="z" horiz-adv-x="556" unicode="z" d="M33 -67l8 125l332 312l-340 2l-23 195l124 5l11 -103h401l-6 -126l-348 -290l332 37l8 -117z"/>
<glyph glyph-name="bar" horiz-adv-x="114" unicode="|" d="M10 -129l11 875l76 4l7 -879h-94z"/>
<glyph glyph-name="FL00A0h" horiz-adv-x="500" unicode=" "/>
<glyph glyph-name="FL00A8h" horiz-adv-x="545" unicode="¨" d="M410 798q-12 -12 -25 -17t-25 -5q-14 0 -27 6t-23 16t-14 23q-6 13 -6 28q0 13 6 27t14 24q10 10 23 16t28 7t29 -5t25 -15t18 -21t7 -27q0 -14 -6 -28t-24 -29zM195 789q-12 -12 -25 -17t-25 -5q-14 0 -27 6q-12 6 -22 16t-16 23t-5 28q-1 12 5 26t16 24t22 18 q13 6 28 6t29 -6t25 -14q11 -10 18 -22t7 -26q-1 -14 -7 -28t-23 -29zM14 -10l-4 100l38 1l-18 607l476 1v-100h-344l-1 -154h202l-8 -104l-196 -7l-11 -240l270 7l19 101l98 -22l-1 -175z"/>
<glyph glyph-name="copyright" horiz-adv-x="685" unicode="©" d="M505 461l-92 -41q-1 2 -3 8t-8 14t-15 13q-10 6 -28 6q-24 -1 -41 -9q-16 -8 -28 -22t-17 -31q-5 -18 -5 -36q0 -16 4 -33t11 -31q8 -14 20 -23t29 -9q23 -1 48 11t42 26l41 -81q-33 -23 -68 -35t-67 -11q-34 0 -62 13t-48 37t-30 57t-10 72q0 40 11 76t33 64t52 43 q32 16 74 16q26 -1 52 -7t46 -18q22 -12 38 -30t21 -39zM281 93q15 -3 31 -3q51 0 98 27q46 27 82 70t57 97t21 109q0 37 -16 78t-46 75q-31 34 -78 55q-47 22 -110 22q-46 0 -82 -24t-60 -63q-24 -38 -35 -88q-12 -50 -12 -101q0 -45 9 -88t28 -77t47 -59q28 -24 66 -30z M241 11q-59 21 -102 58t-71 83t-43 101q-14 54 -14 109q1 67 21 131t60 114q40 51 97 81q58 30 133 30q88 0 154 -29t110 -77t66 -109t23 -125q1 -70 -23 -138t-68 -120q-44 -54 -108 -87t-143 -33q-22 0 -45 2t-47 9z"/>
<glyph glyph-name="FL00AAh" d="M363 306h-228q1 -34 17 -66t40 -57t53 -41t55 -15q48 1 94 29t86 70l62 -83q-26 -27 -57 -51t-66 -43t-73 -29t-74 -10q-60 0 -108 30t-84 75q-34 45 -52 101t-19 108q0 70 24 134t64 114q39 50 91 81q52 30 108 30q64 -1 124 -45t110 -147l-97 -18q-32 45 -66 65t-66 20 q-29 0 -55 -14t-48 -36q-22 -24 -38 -55t-22 -66h225v-81z" unicode="ª"/>
<glyph glyph-name="FL00B8h" horiz-adv-x="578" unicode="¸" d="M421 655q-12 -12 -25 -17t-25 -5q-14 0 -27 6q-12 6 -22 16t-16 23t-5 28q-1 12 5 26t16 24t22 18q13 6 28 6t29 -6t25 -14q11 -10 18 -22t7 -26q-1 -14 -7 -28t-23 -29zM206 646q-12 -12 -25 -17t-25 -5q-14 0 -27 6t-23 16t-14 23q-6 13 -6 28q0 13 6 27t14 24 q10 10 23 16t28 7t29 -5t25 -15t18 -21t7 -27q0 -14 -6 -28t-24 -29zM153 332l276 27q-2 23 -13 39t-28 26t-39 16t-45 6q-28 0 -55 -7t-49 -21t-34 -36q-13 -22 -13 -50zM512 186l56 -91q-81 -55 -162 -83t-153 -28q-57 0 -103 20t-76 54q-32 35 -48 85t-16 110 q0 65 18 119t55 92q36 38 88 60q52 21 120 21q51 0 96 -15q45 -14 79 -46t53 -82q20 -50 20 -121l-393 -59q0 -72 26 -100t72 -27q30 -1 65 9t71 24t69 30q34 16 63 28z"/>
<glyph glyph-name="Agrave" horiz-adv-x="548" unicode="À" d="M260 537l-66 -218l137 2zM90 603v106l215 1l233 -710l-155 -3l-41 227l-164 -6l-42 -209l-126 7l152 592z"/>
<glyph glyph-name="Aacute" horiz-adv-x="420" unicode="Á" d="M117 359l-7 -256q28 -6 52 -6q37 0 65 12t47 31q18 20 28 44t10 50q0 24 -9 48t-27 42t-45 29t-64 11q-12 0 -24 -2t-26 -3zM111 638l-7 -182q69 -10 116 -20t82 -27q54 -37 78 -89t24 -104q0 -66 -24 -108t-63 -65q-39 -24 -93 -33t-114 -9q-28 0 -53 1t-47 2v735 q2 -1 6 -1l394 1v-109l-258 9z"/>
<glyph glyph-name="Acircumflex" horiz-adv-x="414" unicode="Â" d="M111 638l-7 -182q8 -1 14 -1h14q64 1 100 27t36 75q0 25 -11 41t-31 25t-50 12t-65 3zM117 359l-7 -256q28 -6 52 -6q37 0 65 12q28 11 47 31q18 20 28 44t10 51q0 23 -9 47t-27 42t-45 29t-64 11q-11 0 -23 -2t-27 -3zM10 4v735q24 3 49 3q57 0 113 -15t101 -41t73 -64 q28 -36 29 -79q1 -31 -17 -65t-56 -69q54 -37 78 -89t24 -104q0 -66 -24 -108t-63 -65q-39 -24 -93 -33t-114 -9q-28 0 -53 1t-47 2z"/>
<glyph glyph-name="Atilde" horiz-adv-x="517" unicode="Ã" d="M16 601v100l491 1v-109l-348 10v-536h58l1 -98l-199 1l-9 92h45l-5 539h-34z"/>
<glyph glyph-name="Adieresis" horiz-adv-x="640" unicode="Ä" d="M308 560l-1 -459q57 3 101 23t72 50t43 70q14 38 14 79q-1 43 -15 83t-43 73t-72 55t-99 26zM19 412l-9 152q17 22 39 42q23 20 49 36t55 25t61 9q94 0 170 -34t130 -88t86 -123q30 -68 30 -136q0 -58 -24 -111t-73 -94q-50 -42 -128 -66t-188 -24h-97l13 83l74 18 l-4 474q-17 0 -39 -8t-55 -27q-18 -18 -30 -32t-21 -26q-9 -14 -18 -30t-21 -40z"/>
<glyph glyph-name="Aring" horiz-adv-x="545" unicode="Å" d="M14 -10l-4 100l38 1l-18 607l476 1v-100h-344l-1 -154h202l-8 -104l-196 -7l-11 -240l270 7l19 101l98 -22l-1 -175z"/>
<glyph glyph-name="AE" horiz-adv-x="969" unicode="Æ" d="M624 357l-77 -49l-19 -305h-8l-94 -7l13 305l-71 49q-10 -28 -22 -66t-28 -77q-16 -40 -34 -79q-18 -40 -44 -70t-58 -48t-72 -19q-30 0 -50 16q-20 17 -30 41t-14 54t-4 59l98 34q4 -7 4 -23t1 -34t3 -32t11 -13q29 1 47 23t31 57t23 75t18 78q9 38 20 64t28 32h2 l-195 221l79 70l266 -293l10 197l-97 -2v100l199 10l-8 -298l296 293l72 -70l-218 -221h2q14 -7 22 -33t15 -63q5 -37 11 -77t16 -76t26 -58t42 -22q7 0 11 14t7 30q3 18 5 34t6 24l94 -34q-1 -29 -7 -59t-20 -55q-14 -24 -36 -40t-53 -16q-40 0 -70 18t-52 50 q-22 30 -37 68t-26 79q-11 39 -19 77t-15 67z"/>
<glyph glyph-name="Ccedilla" horiz-adv-x="474" unicode="Ç" d="M38 152l-28 108l149 48q9 -46 25 -80t37 -55q19 -21 41 -31t40 -10q21 0 35 12t14 34t-16 50t-41 54q-25 27 -54 50t-55 37l12 1q21 16 47 38t47 46q22 24 37 48t15 44q0 26 -22 38t-52 13q-37 -1 -79 -19t-69 -53l-65 69q14 22 38 42t52 34t59 20q31 8 62 8q39 0 73 -16 t60 -42t41 -62q15 -35 15 -73q0 -19 -8 -35t-22 -30q-16 -14 -38 -28t-52 -33q24 -19 47 -43t41 -52t28 -58t11 -58q1 -24 -11 -50t-34 -48t-52 -38q-30 -14 -68 -14q-36 0 -69 14t-60 40q-27 24 -46 55t-27 64z"/>
<glyph glyph-name="Egrave" horiz-adv-x="661" unicode="È" d="M637 -36h-181v100h29l-9 522l-240 -574l-164 26l15 558h-77v100l239 -5l-12 -100l-25 4l-18 -398l222 478l235 -3v-100l-65 2l-1 -510h52v-100z"/>
<glyph glyph-name="Eacute" horiz-adv-x="661" unicode="É" d="M210 904l97 2q1 -17 2 -31q1 -15 3 -25t5 -16q4 -6 12 -6q23 0 29 16t6 38v26l100 3q8 -30 8 -52q0 -32 -12 -56t-30 -40q-19 -16 -43 -24t-49 -8t-49 8q-25 9 -43 25t-30 40t-11 57q-1 11 1 21t4 22zM637 -36h-181v100h29l-9 522l-240 -574l-164 26l15 558h-77v100 l239 -5l-12 -100l-25 4l-18 -398l222 478l235 -3v-100l-65 2l-1 -510h52v-100z"/>
<glyph glyph-name="Ecircumflex" horiz-adv-x="618" unicode="Ê" d="M273 350l-77 -49l-19 -305l-100 8l30 606l-97 -2v100l199 10l-8 -298l296 293l72 -70l-218 -221h2q15 -6 23 -32t14 -64t12 -78t15 -75q10 -35 26 -57t42 -23q7 -1 11 13t7 32t5 34t6 23l94 -34q0 -29 -6 -59t-20 -55t-36 -41t-54 -15q-40 1 -70 19t-52 48t-37 70 q-15 38 -26 78t-19 78t-15 66z"/>
<glyph glyph-name="Edieresis" horiz-adv-x="648" unicode="Ë" d="M553 725l85 -714l-146 9l-40 635q-29 1 -54 -3t-53 -21q-33 -78 -55 -155t-38 -154t-30 -155t-33 -158l-179 -7l8 100l76 -6q13 53 23 110t21 115q11 59 25 115t35 107t50 95t71 76z"/>
<glyph glyph-name="Igrave" horiz-adv-x="799" unicode="Ì" d="M10 556l8 157l279 -14l122 -382l200 339l108 14l20 -562l42 2v-100l-173 -8l6 100l25 -1l-14 317l-153 -272l40 2v-100l-178 -2v100h27l-135 334l-10 -394h25l9 -120l-185 7v113l51 -4v472z"/>
<glyph glyph-name="Iacute" horiz-adv-x="492" unicode="Í" d="M360 687l107 -1l15 -690l-106 2l-5 280l-165 -1l3 -286l-109 -9l-12 572l-78 -11l4 128l169 20l8 -314l167 18z"/>
<glyph glyph-name="Icircumflex" d="M245 92q25 0 50 14t47 38t43 56t35 68t22 76q8 39 9 77q0 33 -10 69t-31 66t-53 48t-76 18q-37 0 -65 -26t-48 -70q-19 -42 -29 -95t-10 -107q0 -44 7 -86t21 -73q14 -32 36 -52t52 -21zM270 -1q-66 -1 -115 29t-81 79t-48 111t-15 128q1 69 17 137t48 121t78 86t106 33 q71 -1 124 -33q52 -32 88 -83t54 -114t18 -125q0 -70 -18 -136t-54 -118q-35 -52 -86 -83q-51 -32 -116 -32z" unicode="Î"/>
<glyph glyph-name="Idieresis" horiz-adv-x="492" unicode="Ï" d="M14 671l453 15l15 -690l-106 2l-5 571l-165 -1l3 -577l-109 -9l-12 572l-78 -11z"/>
<glyph glyph-name="Eth" horiz-adv-x="462" unicode="Ð" d="M177 592v-233q19 -4 40 -4q30 0 53 10q22 10 38 26t24 37t7 44q0 24 -8 46t-24 39t-40 27t-56 11q-16 0 -34 -3zM10 577l5 113l158 -5q67 -2 119 -22t88 -51q36 -32 54 -70t18 -78q0 -36 -16 -72t-50 -64t-86 -48t-123 -24l18 -256l-125 4l7 583z"/>
<glyph glyph-name="Ntilde" d="M532 491l-97 -18q-32 46 -66 66t-66 20q-35 -1 -65 -19t-53 -49t-37 -71t-13 -83q-1 -35 13 -73t36 -68t54 -50q30 -20 64 -19q48 1 94 29t86 70l62 -83q-26 -27 -57 -51t-66 -43t-73 -29t-74 -10q-60 0 -108 30t-84 75q-34 45 -52 101t-19 108q0 70 24 134t64 114 q39 50 91 81q52 30 108 30q64 -1 124 -45t110 -147z" unicode="Ñ"/>
<glyph glyph-name="Ograve" horiz-adv-x="530" unicode="Ò" d="M10 595l5 117l481 5l24 -109l-224 9l10 -630l-116 4l-3 604h-177z"/>
<glyph glyph-name="Oacute" horiz-adv-x="486" unicode="Ó" d="M10 149l83 62l39 -39t42 -34q21 -16 43 -26t43 -10q31 0 53 16t36 42q14 24 21 54t7 56q0 29 -5 61t-14 67q-38 -50 -80 -71t-84 -21q-44 0 -78 17t-57 45t-35 66t-12 79q0 37 4 85t7 114l113 3l-15 -178q1 -20 5 -41q4 -20 14 -38t24 -30q16 -12 39 -11q36 1 63 21 q26 20 44 50t27 62q9 34 9 60q0 19 -2 43t-4 58l102 14q3 -63 4 -103q2 -40 2 -72q0 -30 2 -58t9 -66q7 -48 11 -88t5 -76q-1 -41 -15 -88t-42 -87q-28 -41 -72 -67q-42 -26 -97 -26q-60 0 -122 38t-117 117z"/>
<glyph glyph-name="Ocircumflex" horiz-adv-x="667" unicode="Ô" d="M542 390q0 51 -40 86t-110 35v-236q74 1 112 33t38 82zM125 393q0 -51 37 -83t112 -32l15 236q-39 0 -69 -10t-51 -25q-21 -17 -33 -39t-11 -47zM390 689l1 -86q67 -3 117 -23t83 -50t49 -68t17 -77q0 -37 -16 -72q-17 -35 -49 -63t-82 -49q-50 -20 -117 -26l10 -182 l-134 7l5 178q-68 6 -118 26t-82 48t-48 64q-16 35 -16 72q0 40 16 78t50 67q33 29 83 49t117 24l6 77z"/>
<glyph glyph-name="Otilde" horiz-adv-x="615" unicode="Õ" d="M491 -11l-197 307l-154 -285l-130 -2l204 368l-193 323l141 14l137 -238l151 240l134 -18l-199 -307l220 -366z"/>
<glyph glyph-name="Odieresis" horiz-adv-x="562" unicode="Ö" d="M548 -3l-473 -15l-13 607l-52 2l15 86l141 -7l5 -571l165 1l-3 577l109 9l12 -572l98 11z"/>
<glyph glyph-name="multiply" horiz-adv-x="483" unicode="×" d="M432 -1l-91 1q0 31 4 68q5 38 9 78t8 82t4 82q0 48 -10 88q-38 -50 -80 -71t-84 -21q-44 0 -78 17t-57 45t-35 66t-12 79q0 37 4 85t7 114l113 3q0 -45 -8 -90t-7 -88q1 -20 5 -41q4 -20 14 -38t24 -30q16 -12 39 -11q36 1 63 21q26 20 44 50t27 62q9 34 9 60q0 19 -2 43 t-4 58l100 14v-64q0 -59 6 -108t12 -96t12 -97t5 -113q0 -61 -10 -118t-31 -130z"/>
<glyph glyph-name="Oslash" horiz-adv-x="732" unicode="Ø" d="M722 -5l-647 -21l-13 607l-52 2l15 86l141 -7l5 -571l165 1l-3 577l109 9l-2 -578h164l-3 577l109 9z"/>
<glyph glyph-name="Ugrave" horiz-adv-x="830" unicode="Ù" d="M816 -3l-741 -23l-13 607l-52 2l15 86l141 -7l5 -571l165 1l-3 577l109 9l-2 -578h164l-3 577l109 9l12 -572l98 11z"/>
<glyph glyph-name="Uacute" horiz-adv-x="490" unicode="Ú" d="M205 98q18 -3 34 -3q32 1 56 11t40 27t24 39t8 46q1 22 -7 44t-24 37q-16 16 -38 26q-23 10 -53 10q-21 0 -40 -4v-233zM10 590v94l213 6l-18 -256q71 -5 123 -24q52 -20 86 -48t50 -64t16 -72q0 -40 -18 -78t-54 -70q-36 -31 -88 -51t-119 -22l-96 -3l-6 588h-89z"/>
<glyph glyph-name="Ucircumflex" horiz-adv-x="703" unicode="Û" d="M177 98q18 -3 34 -3q32 1 56 11t40 27t24 39t8 46q1 22 -7 44t-24 37q-16 16 -38 26q-23 10 -53 10q-21 0 -40 -4v-233zM417 582v100l272 3l4 -100l-92 -3l-5 -479h91v-100l-191 -9l5 588h-84zM10 113l67 -10l-7 583l125 4l-18 -256q71 -5 123 -24q52 -20 86 -48t50 -64 t16 -72q0 -40 -18 -78t-54 -70q-36 -31 -88 -51t-119 -22l-158 -5z"/>
<glyph glyph-name="Udieresis" horiz-adv-x="462" unicode="Ü" d="M177 98q18 -3 34 -3q32 1 56 11t40 27t24 39t8 46q1 22 -7 44t-24 37q-16 16 -38 26q-23 10 -53 10q-21 0 -40 -4v-233zM10 113l67 -10l-7 583l125 4l-18 -256q71 -5 123 -24q52 -20 86 -48t50 -64t16 -72q0 -40 -18 -78t-54 -70q-36 -31 -88 -51t-119 -22l-158 -5z"/>
<glyph glyph-name="Yacute" d="M189 306v81h225q-6 35 -22 66t-38 55t-48 36q-26 14 -55 14q-32 0 -66 -20t-66 -65l-97 18q50 103 110 147t124 45q55 0 107 -30q52 -31 92 -81t64 -114t24 -134q-1 -52 -19 -108t-52 -101t-84 -75q-48 -30 -108 -30q-38 0 -75 10t-72 29t-67 43t-56 51l62 83 q40 -42 86 -70t94 -29q26 -1 55 15t53 41t40 57t17 66h-228z" unicode="Ý"/>
<glyph glyph-name="Thorn" horiz-adv-x="822" unicode="Þ" d="M513 92q25 0 50 14t47 38t43 56t35 68t22 76q8 39 9 77q0 33 -10 69t-31 66t-53 48t-76 18q-37 0 -65 -26t-48 -70q-19 -42 -29 -95t-10 -107q0 -44 7 -86t21 -73q14 -32 36 -52t52 -21zM538 -1q-62 1 -110 27t-80 70t-50 102t-19 120h-88l-2 -200h91v-100l-246 -8 l-16 98l71 8l5 481h-84v100l272 3l4 -100l-92 -3l-2 -186h90q6 61 26 117t51 100q31 42 73 68t96 26q70 0 124 -32t90 -83t52 -114q18 -63 18 -125q0 -70 -18 -136t-54 -118q-35 -52 -86 -83q-51 -32 -116 -32z"/>
<glyph glyph-name="germandbls" horiz-adv-x="521" unicode="ß" d="M344 592q-19 4 -39 4q-31 0 -54 -10t-39 -28q-16 -16 -22 -38q-8 -22 -8 -44t8 -44t24 -39t38 -27q24 -10 55 -11q7 0 17 1t20 3v233zM511 577l-67 10v-581l-118 -6l18 256h-20t-18 2q1 -6 1 -13v-14q1 -35 -9 -77t-28 -76t-47 -58q-28 -23 -64 -23q-40 0 -68 22 q-28 23 -46 57t-26 76t-8 80l98 20q3 -28 5 -53t5 -45q4 -20 13 -32t28 -15q10 0 20 15q10 14 18 36t12 46t4 44q0 11 -2 19t-5 12q-75 27 -109 76t-34 105q0 42 20 84t56 74q38 33 92 53t124 20h150z"/>
<glyph glyph-name="agrave" horiz-adv-x="634" unicode="à" d="M222 99l22 6q22 6 47 17q25 10 47 26t22 35q0 28 -14 50t-32 37q-18 14 -39 22t-36 8q-23 0 -45 -8t-38 -24q-18 -16 -28 -37t-10 -46q0 -43 28 -65t76 -21zM354 454l112 -4q0 -19 -2 -47q-2 -29 -4 -61t-4 -66t-2 -65q0 -27 2 -49t10 -36l135 25l23 -120l-223 -32l-9 53 q-50 -32 -99 -48t-94 -16q-43 0 -77 13t-59 37t-39 56q-14 33 -14 72q0 48 22 92t58 80q36 35 82 56t97 21q36 0 75 -14q10 30 10 53z"/>
<glyph glyph-name="aacute" horiz-adv-x="360" unicode="á" d="M115 241l-5 -174q17 -4 35 -4q25 0 44 8q19 7 32 21t19 31t7 34q0 33 -24 60t-74 27q-16 0 -34 -3zM113 410v-65q34 -1 75 -11t77 -31q36 -22 60 -59t24 -92q0 -42 -29 -72t-72 -48q-44 -20 -94 -28t-92 -8q-15 0 -28 1t-24 3v499q1 -1 4 -1l268 1v-74z"/>
<glyph glyph-name="acircumflex" horiz-adv-x="364" unicode="â" d="M110 428l-4 -123q5 -1 9 -1h9q42 0 67 18t25 51q0 31 -24 43t-68 12h-14zM114 239l-4 -173q17 -4 35 -4q25 0 43 8t32 21t20 30t6 34q0 33 -24 60t-74 27q-16 0 -34 -3zM10 1v499h45q146 0 211 -33t65 -97q0 -29 -10 -44t-24 -23q-13 -7 -29 -13t-28 -17q18 -13 38 -29 t37 -32q17 -17 28 -35t11 -36q0 -43 -15 -71t-45 -43q-30 -17 -74 -23t-103 -6q-49 0 -107 3z"/>
<glyph glyph-name="atilde" horiz-adv-x="490" unicode="ã" d="M47 2l6 80h48l2 311l-93 7l8 97l462 -10l-54 -94l-222 7l6 -323l38 -6l2 -89z"/>
<glyph glyph-name="adieresis" horiz-adv-x="502" unicode="ä" d="M208 125q44 1 72 17t46 44q16 28 22 64q6 37 6 78q0 22 -11 38t-27 26t-36 16q-19 6 -36 6q-24 0 -46 -12t-38 -30q-16 -20 -24 -44q-9 -24 -9 -50t2 -52t10 -48t24 -37t45 -16zM123 -109q19 -19 41 -38t44 -34t46 -25t47 -9q26 0 45 12t31 31q11 18 17 42t6 47 q0 41 -10 87t-22 94q-38 -50 -80 -71t-84 -21q-64 0 -102 18t-58 58q-20 38 -26 96t-6 140q0 40 25 75t60 61t73 40t64 14q46 0 86 -10t70 -32t46 -60q17 -38 17 -93q0 -23 1 -41t3 -38t5 -40t7 -48q7 -57 15 -109t8 -100q0 -40 -12 -86t-37 -85q-25 -38 -63 -64t-91 -26 q-57 0 -118 39t-131 114z"/>
<glyph glyph-name="aring" horiz-adv-x="578" unicode="å" d="M153 332l276 27q-2 23 -13 39t-28 26t-39 16t-45 6q-28 0 -55 -7t-49 -21t-34 -36q-13 -22 -13 -50zM512 186l56 -91q-81 -55 -162 -83t-153 -28q-57 0 -103 20t-76 54q-32 35 -48 85t-16 110q0 65 18 119t55 92q36 38 88 60q52 21 120 21q51 0 96 -15q45 -14 79 -46 t53 -82q20 -50 20 -121l-393 -59q0 -72 26 -100t72 -27q30 -1 65 9t71 24t69 30q34 16 63 28z"/>
<glyph glyph-name="ae" horiz-adv-x="773" unicode="æ" d="M402 621l28 -305q16 48 40 91t50 77t52 54q26 22 47 28q9 -6 19 -17t23 -24l27 -27t29 -22q-23 -14 -55 -34t-60 -46t-48 -58t-20 -71q0 -8 6 -22t17 -34q12 -20 32 -44t49 -51l116 13l9 -111l-166 -5l-161 184l17 -213l-92 -3l-22 226l-145 -197l-167 5l-6 111l117 -13 q26 27 42 51t26 44q8 20 12 34t4 22q0 39 -22 71t-56 58q-32 26 -69 46t-65 34q14 9 26 23t23 26q11 13 21 24t16 17q22 -5 51 -27t59 -56t60 -76q30 -43 53 -91l-14 305z"/>
<glyph glyph-name="ccedilla" horiz-adv-x="558" unicode="ç" d="M96 -178q34 -42 80 -60t93 -18q29 0 55 6t46 18t32 26q12 16 13 36q0 32 -14 58t-38 48t-56 38q-32 18 -68 32l20 66q11 8 33 18t44 26t38 44q16 27 16 70q0 26 -14 50t-36 41t-51 27q-28 10 -57 10q-45 0 -90 -24t-74 -59q-8 35 -17 56t-9 46q24 23 47 39t49 25t61 13 q34 4 81 4q23 0 59 -18t70 -49q35 -31 59 -73t24 -89q0 -67 -28 -115t-102 -79q50 -2 85 -17t57 -39q22 -25 34 -55q10 -30 10 -63q0 -54 -22 -96q-22 -43 -60 -71t-86 -42t-102 -15q-72 -1 -143 27t-125 87z"/>
<glyph glyph-name="egrave" horiz-adv-x="544" unicode="è" d="M32 538l106 -7q-4 -85 -12 -155t-7 -123q0 -28 4 -52q5 -24 15 -42q10 -19 28 -29t45 -10q35 0 69 26t53 75l6 323l100 -1l-3 -424l84 31l14 -141l-160 -3l-12 59q-28 -28 -73 -44t-92 -16q-56 1 -92 23t-57 60q-22 38 -30 86t-8 101q0 69 8 137t14 126z"/>
<glyph glyph-name="eacute" horiz-adv-x="544" unicode="é" d="M98 688l82 11q2 -21 12 -25t17 -5q27 0 35 19t7 61l100 3q7 -27 7 -53q0 -37 -14 -67t-38 -50t-52 -32q-28 -10 -56 -10q-42 0 -74 26t-31 79q-1 11 1 21t4 22zM32 538l106 -7q-4 -85 -12 -155t-7 -123q0 -28 4 -52q5 -24 15 -42q10 -19 28 -29t45 -10q35 0 69 26t53 75 l6 323l100 -1l-3 -424l84 31l14 -141l-160 -3l-12 59q-28 -28 -73 -44t-92 -16q-56 1 -92 23t-57 60q-22 38 -30 86t-8 101q0 69 8 137t14 126z"/>
<glyph glyph-name="ecircumflex" horiz-adv-x="532" unicode="ê" d="M161 618l28 -305q15 48 39 91q24 42 50 76t53 56q26 22 47 27q8 -6 18 -17t24 -24q13 -12 27 -26t29 -23q-24 -14 -56 -34t-60 -46q-28 -27 -48 -59t-19 -70q-1 -8 5 -22t18 -34t32 -44t49 -51l116 13l9 -111l-166 -5l-172 197l9 -225l-100 -2l-22 515l-48 -10l-13 100z "/>
<glyph glyph-name="edieresis" horiz-adv-x="645" unicode="ë" d="M222 11l-212 14l12 100l42 -6l242 388l84 -8l187 -386l58 3l-3 -116l-247 3v100h67l-110 241l-142 -225l48 -12z"/>
<glyph glyph-name="igrave" horiz-adv-x="577" unicode="ì" d="M10 388l6 112l199 -10l87 -273l143 242l77 10l15 -402l30 2v-72l-124 -5l4 71l18 -1l-10 227l-109 -194l28 1v-71l-127 -2v72h19l-96 238l-7 -281h18l6 -86l-132 5v81l36 -3v337z"/>
<glyph glyph-name="iacute" horiz-adv-x="555" unicode="í" d="M161 619l27 -296q39 -2 88 -4q16 -1 32 -1q31 0 58 3l28 300l151 -33l-13 -100l-48 10l-22 -515l-100 2l9 225l-187 -2l9 -225l-100 -2l-22 515l-48 -10l-13 100z"/>
<glyph glyph-name="icircumflex" horiz-adv-x="574" unicode="î" d="M291 67q27 -1 53 5t46 18t31 30q12 18 12 42q-1 23 -13 52t-33 54t-49 42t-58 17q-32 -1 -63 -13t-56 -32t-40 -46t-15 -52q0 -31 18 -53t46 -36q28 -15 60 -21t61 -7zM324 -48q-28 0 -62 6t-69 20t-68 33t-59 45t-40 56q-16 31 -16 68q0 49 24 97q24 47 64 85t92 61 t105 23q55 0 103 -28t84 -70t59 -92q22 -50 22 -93q1 -45 -17 -83t-50 -68q-32 -28 -76 -44t-96 -16z"/>
<glyph glyph-name="idieresis" horiz-adv-x="507" unicode="ï" d="M12 392l-2 106l190 22v-45q26 23 62 35t75 13q53 0 85 -21t48 -55t22 -77q5 -43 5 -88q1 -74 -9 -152t-22 -150l-95 9q0 25 4 62t9 79t9 84q4 44 4 82q0 54 -12 90t-46 36q-29 0 -67 -28t-78 -85l-24 -321l-100 6l28 402h-8q-10 0 -32 -1t-46 -3z"/>
<glyph glyph-name="eth" horiz-adv-x="635" unicode="ð" d="M328 120q30 0 62 9t56 26q26 17 42 41t16 54q0 40 -24 68t-66 27q-32 -1 -66 -13t-63 -32t-48 -46t-19 -53q0 -21 10 -36t24 -25q16 -10 36 -15t40 -5zM189 -300l-133 -2l54 659l-94 -2l-6 133l189 -10l8 -67q35 27 75 39t79 13q51 0 99 -19t84 -51q37 -32 59 -75t22 -92 q-1 -53 -23 -94t-60 -69q-38 -29 -88 -43t-104 -14q-41 0 -81 8t-76 26z"/>
<glyph glyph-name="ntilde" horiz-adv-x="503" unicode="ñ" d="M468 404l-106 -28q-22 18 -44 26t-43 8q-30 0 -57 -14t-47 -36q-19 -22 -31 -48q-12 -28 -12 -55q0 -39 14 -67t34 -48q21 -18 46 -27t48 -9q42 0 86 15t81 32l56 -84q-57 -32 -119 -50t-121 -18q-50 1 -94 15t-77 46t-52 84t-19 126q0 59 21 106q22 48 56 80t78 49 t90 17q58 0 114 -28t98 -92z"/>
<glyph glyph-name="ograve" horiz-adv-x="682" unicode="ò" d="M10 512l197 11l4 -20q21 12 49 20t56 8q29 1 53 -11t36 -39q26 15 54 23t54 9q39 0 65 -20q26 -21 44 -53t27 -74q10 -42 15 -84q4 -44 6 -84t2 -71v-107l-104 -9q1 22 1 56v77q0 43 -3 89t-13 83t-28 61t-49 24q-18 1 -32 -11t-17 -39l-2 -326l-115 -7l9 364 q1 14 -13 22t-32 8q-24 0 -47 -12t-27 -36l-28 -342l-100 6l31 383l-89 1z"/>
<glyph glyph-name="oacute" horiz-adv-x="497" unicode="ó" d="M35 -171l83 62q18 -19 40 -38t45 -34t47 -25t46 -9q26 0 45 12t31 31q12 18 18 42t5 47q0 41 -10 87t-22 94q-39 -50 -81 -71t-83 -21q-59 0 -96 24t-57 66q-20 40 -28 93q-7 53 -7 110q0 43 2 91t5 102l113 3q0 -43 -4 -99t-4 -113q0 -37 4 -69t15 -55q10 -19 26 -27 t35 -7q43 0 71 16t46 43q16 27 22 63t7 76q0 38 -4 80t-10 88l100 14q3 -63 5 -113t6 -91q4 -42 8 -79t10 -76q8 -57 16 -109t7 -100q0 -40 -12 -86t-37 -85q-26 -38 -64 -64t-90 -26q-57 0 -118 39t-131 114z"/>
<glyph glyph-name="ocircumflex" horiz-adv-x="783" unicode="ô" d="M252 115q36 0 62 22t26 61q0 28 -16 54t-38 46q-24 20 -52 34q-28 12 -53 12q-19 0 -33 -8t-22 -23q-9 -14 -13 -31t-4 -34q0 -32 13 -56t34 -42q20 -18 46 -26q26 -9 50 -9zM585 86q24 0 41 8q18 8 28 25t15 47t5 75q0 19 -12 41t-28 40q-18 18 -38 30t-39 12 q-21 0 -40 -8t-33 -22t-24 -36q-8 -20 -8 -45q0 -19 12 -47t30 -56q19 -26 43 -45t48 -19zM364 -311l-12 341q-56 -30 -119 -30q-49 0 -89 17t-70 47t-46 71t-17 89q0 49 18 93q17 45 47 77t68 51t80 19q32 0 64 -12t61 -41l-18 67h90l-7 -69q26 29 56 41t63 12q44 0 87 -22 t77 -58t55 -84t21 -103q0 -45 -15 -81t-42 -62t-64 -40t-82 -14q-61 0 -121 29l24 -340l-107 -2v4h-2z"/>
<glyph glyph-name="otilde" horiz-adv-x="566" unicode="õ" d="M471 -20l-197 197l-194 -182l-70 72l195 181l-181 175l72 70l183 -177l180 170l70 -70l-180 -172l207 -193z"/>
<glyph glyph-name="odieresis" horiz-adv-x="573" unicode="ö" d="M437 -146v153l-63 -1l-12 59q-28 -28 -73 -44t-92 -16q-56 1 -92 23t-57 60q-22 38 -30 86t-8 101q0 69 8 137t14 126l106 -7q-4 -85 -12 -155t-7 -123q0 -28 4 -52q5 -24 15 -42q10 -19 28 -29t45 -10q35 0 69 26t53 75l6 323l100 -1l-3 -424l127 21l-43 -286h-83z"/>
<glyph glyph-name="divide" horiz-adv-x="505" unicode="÷" d="M161 619l27 -296q60 -27 100 -27q22 0 40 6t38 19l28 300l101 -23l-33 -615l-100 2l9 225q-29 -12 -57 -18t-58 -7q-36 -1 -74 11t-80 37q-16 31 -23 63t-9 64t-4 66q0 34 -3 70l-40 -10l-13 100z"/>
<glyph glyph-name="oslash" horiz-adv-x="808" unicode="ø" d="M798 7l-117 -1l-12 59q-28 -28 -73 -44t-92 -16q-32 0 -60 8t-49 25q-14 10 -24 24q-35 -35 -80 -50t-94 -15q-56 0 -92 22t-57 59q-22 37 -30 86t-8 103q0 69 8 137t14 126l106 -7q-4 -85 -12 -155t-7 -123q1 -29 5 -53t14 -42t29 -28q18 -10 45 -11q30 1 60 21t50 58 q-3 34 -3 71q0 71 7 143t13 134l106 1q-3 -83 -11 -155t-8 -127q0 -29 4 -54t16 -44q10 -19 28 -30t46 -11q35 0 68 26t52 77l6 323l100 -1l-3 -424l30 2z"/>
<glyph glyph-name="ugrave" horiz-adv-x="880" unicode="ù" d="M744 -146v153l-63 -1l-12 59q-28 -28 -73 -44t-92 -16q-42 -1 -76 13t-57 44q-35 -35 -80 -50t-94 -15q-56 1 -92 23t-57 60q-22 38 -30 86t-8 101q0 69 8 137t14 126l106 -7q-4 -85 -12 -155t-7 -123q1 -29 5 -53t14 -42t29 -28q18 -10 45 -11q30 1 60 21t50 58 q-3 20 -4 40t-1 43q0 68 8 137t14 128l106 1q-3 -83 -11 -155t-8 -127q0 -29 4 -54t16 -44q10 -19 28 -30t46 -11q35 0 68 26t52 77l6 323l100 -1l-3 -424l127 21l-43 -286h-83z"/>
<glyph glyph-name="uacute" horiz-adv-x="498" unicode="ú" d="M317 42q15 0 31 4t28 12t20 21q8 12 8 29q0 21 -14 41q-14 21 -34 37q-22 16 -48 26t-49 10q-17 0 -31 -7t-24 -19t-17 -26q-6 -14 -6 -29q1 -22 13 -40t32 -31q20 -12 43 -20q24 -8 48 -8zM10 466v85l202 26l-12 -279q30 6 61 6q44 0 85 -13q40 -13 72 -37t51 -60 q19 -35 19 -80q0 -72 -44 -114t-116 -42q-46 0 -90 20t-70 60l-5 -55l-85 1l-3 482h-65z"/>
<glyph glyph-name="ucircumflex" horiz-adv-x="597" unicode="û" d="M249 42q15 0 31 4t28 12t20 21q8 12 8 29q0 21 -14 41t-35 36t-47 26t-50 10q-34 0 -56 -25t-21 -55q1 -22 13 -40t32 -31q20 -12 43 -20q24 -8 48 -8zM449 512l103 -8l35 -494l-136 -10zM151 555l-19 -257q30 6 61 6q44 0 85 -13q40 -13 72 -37t51 -60q19 -35 19 -80 q0 -72 -44 -114t-116 -42q-46 0 -90 20t-70 60l-5 -55l-85 1l28 595z"/>
<glyph glyph-name="udieresis" horiz-adv-x="430" unicode="ü" d="M249 42q15 0 31 4t28 12t20 21q8 12 8 29q0 21 -14 41t-35 36t-47 26t-50 10q-34 0 -56 -25t-21 -55q1 -22 13 -40t32 -31q20 -12 43 -20q24 -8 48 -8zM151 555l-19 -257q30 6 61 6q44 0 85 -13q40 -13 72 -37t51 -60q19 -35 19 -80q0 -72 -44 -114t-116 -42 q-46 0 -90 20t-70 60l-5 -55l-85 1l28 595z"/>
<glyph glyph-name="yacute" horiz-adv-x="503" unicode="ý" d="M186 222v81h180q-8 21 -22 41t-31 34t-39 23t-46 9q-21 0 -43 -8t-44 -26l-106 28q42 64 98 92t114 28q46 0 90 -17q45 -17 79 -49t55 -79t21 -107q0 -74 -20 -126t-52 -84q-33 -32 -77 -46t-93 -15q-59 0 -121 18t-119 50l56 84q38 -17 82 -32t85 -15q45 0 81 25t55 91 h-183z"/>
<glyph glyph-name="thorn" horiz-adv-x="735" unicode="þ" d="M452 67q28 -1 54 5t44 18q20 12 32 30t12 42q0 23 -12 52t-34 54q-21 25 -49 42t-58 17q-32 -1 -63 -13t-56 -32t-40 -46t-15 -52q1 -31 19 -53t46 -36q28 -15 60 -21t60 -7zM10 441l103 -8l11 -151h74q18 34 46 64t61 52q35 22 73 35t78 13q54 0 102 -28t86 -70 q36 -42 58 -92t22 -93q0 -45 -18 -83t-49 -68q-32 -28 -76 -44t-96 -16q-39 0 -93 16t-102 45q-50 31 -84 75t-35 101h-40l15 -208l-136 -10v470z"/>
<glyph glyph-name="afii10023" horiz-adv-x="545" unicode="Ё" d="M410 798q-12 -12 -25 -17t-25 -5q-14 0 -27 6t-23 16t-14 23q-6 13 -6 28q0 13 6 27t14 24q10 10 23 16t28 7t29 -5t25 -15t18 -21t7 -27q0 -14 -6 -28t-24 -29zM195 789q-12 -12 -25 -17t-25 -5q-14 0 -27 6q-12 6 -22 16t-16 23t-5 28q-1 12 5 26t16 24t22 18 q13 6 28 6t29 -6t25 -14q11 -10 18 -22t7 -26q-1 -14 -7 -28t-23 -29zM14 -10l-4 100l38 1l-18 607l476 1v-100h-344l-1 -154h202l-8 -104l-196 -7l-11 -240l270 7l19 101l98 -22l-1 -175z"/>
<glyph glyph-name="afii10053" d="M363 306h-228q1 -34 17 -66t40 -57t53 -41t55 -15q48 1 94 29t86 70l62 -83q-26 -27 -57 -51t-66 -43t-73 -29t-74 -10q-60 0 -108 30t-84 75q-34 45 -52 101t-19 108q0 70 24 134t64 114q39 50 91 81q52 30 108 30q64 -1 124 -45t110 -147l-97 -18q-32 45 -66 65t-66 20 q-29 0 -55 -14t-48 -36q-22 -24 -38 -55t-22 -66h225v-81z" unicode="Є"/>
<glyph glyph-name="afii10054" horiz-adv-x="496" unicode="Ѕ" d="M38 152l-28 108l149 48q9 -46 25 -80t36 -55t42 -31t40 -10q21 0 35 12t14 34q-1 22 -17 52t-54 66q-22 22 -60 40t-74 42t-64 54q-26 31 -26 77q0 41 16 75t44 60q28 25 63 39q36 14 77 14q33 1 67 -7q35 -8 65 -22t56 -35q26 -20 42 -44l-70 -70q-32 37 -78 55t-86 18 q-32 0 -56 -13t-25 -41q-1 -24 21 -48t52 -48t62 -44q32 -21 53 -39q21 -19 40 -41t33 -48t22 -52t9 -51q1 -23 -11 -49t-34 -48t-52 -38q-30 -14 -68 -14q-36 0 -69 14t-60 40q-27 24 -46 55t-27 64z"/>
<glyph glyph-name="afii10057" horiz-adv-x="469" unicode="Ј" d="M28 302l98 14q-1 -7 -1 -13v-13q1 -32 9 -62t22 -52t34 -35t41 -13q36 0 56 12q19 12 29 40t12 78q2 48 2 122q0 47 -2 108t-6 141l-312 -34v126l445 14l4 -100l-27 -1q-3 -37 -3 -75q1 -33 3 -67q4 -72 4 -144q0 -50 -9 -110t-31 -112t-58 -85q-37 -34 -93 -34 q-41 0 -81 19q-40 18 -70 52q-32 34 -52 79t-19 97q-1 12 1 24z"/>
<glyph glyph-name="afii10017" horiz-adv-x="548" unicode="А" d="M260 537l-66 -218l137 2zM90 603v106l215 1l233 -710l-155 -3l-41 227l-164 -6l-42 -209l-126 7l152 592z"/>
<glyph glyph-name="afii10018" horiz-adv-x="420" unicode="Б" d="M117 359l-7 -256q28 -6 52 -6q37 0 65 12t47 31q18 20 28 44t10 50q0 24 -9 48t-27 42t-45 29t-64 11q-12 0 -24 -2t-26 -3zM111 638l-7 -182q69 -10 116 -20t82 -27q54 -37 78 -89t24 -104q0 -66 -24 -108t-63 -65q-39 -24 -93 -33t-114 -9q-28 0 -53 1t-47 2v735 q2 -1 6 -1l394 1v-109l-258 9z"/>
<glyph glyph-name="afii10019" horiz-adv-x="414" unicode="В" d="M111 638l-7 -182q8 -1 14 -1h14q64 1 100 27t36 75q0 25 -11 41t-31 25t-50 12t-65 3zM117 359l-7 -256q28 -6 52 -6q37 0 65 12q28 11 47 31q18 20 28 44t10 51q0 23 -9 47t-27 42t-45 29t-64 11q-11 0 -23 -2t-27 -3zM10 4v735q24 3 49 3q57 0 113 -15t101 -41t73 -64 q28 -36 29 -79q1 -31 -17 -65t-56 -69q54 -37 78 -89t24 -104q0 -66 -24 -108t-63 -65q-39 -24 -93 -33t-114 -9q-28 0 -53 1t-47 2z"/>
<glyph glyph-name="afii10020" horiz-adv-x="517" unicode="Г" d="M16 601v100l491 1v-109l-348 10v-536h58l1 -98l-199 1l-9 92h45l-5 539h-34z"/>
<glyph glyph-name="afii10021" horiz-adv-x="640" unicode="Д" d="M308 560l-1 -459q57 3 101 23t72 50t43 70q14 38 14 79q-1 43 -15 83t-43 73t-72 55t-99 26zM19 412l-9 152q17 22 39 42q23 20 49 36t55 25t61 9q94 0 170 -34t130 -88t86 -123q30 -68 30 -136q0 -58 -24 -111t-73 -94q-50 -42 -128 -66t-188 -24h-97l13 83l74 18 l-4 474q-17 0 -39 -8t-55 -27q-18 -18 -30 -32t-21 -26q-9 -14 -18 -30t-21 -40z"/>
<glyph glyph-name="afii10022" horiz-adv-x="545" unicode="Е" d="M14 -10l-4 100l38 1l-18 607l476 1v-100h-344l-1 -154h202l-8 -104l-196 -7l-11 -240l270 7l19 101l98 -22l-1 -175z"/>
<glyph glyph-name="afii10024" horiz-adv-x="969" unicode="Ж" d="M624 357l-77 -49l-19 -305h-8l-94 -7l13 305l-71 49q-10 -28 -22 -66t-28 -77q-16 -40 -34 -79q-18 -40 -44 -70t-58 -48t-72 -19q-30 0 -50 16q-20 17 -30 41t-14 54t-4 59l98 34q4 -7 4 -23t1 -34t3 -32t11 -13q29 1 47 23t31 57t23 75t18 78q9 38 20 64t28 32h2 l-195 221l79 70l266 -293l10 197l-97 -2v100l199 10l-8 -298l296 293l72 -70l-218 -221h2q14 -7 22 -33t15 -63q5 -37 11 -77t16 -76t26 -58t42 -22q7 0 11 14t7 30q3 18 5 34t6 24l94 -34q-1 -29 -7 -59t-20 -55q-14 -24 -36 -40t-53 -16q-40 0 -70 18t-52 50 q-22 30 -37 68t-26 79q-11 39 -19 77t-15 67z"/>
<glyph glyph-name="afii10025" horiz-adv-x="474" unicode="З" d="M38 152l-28 108l149 48q9 -46 25 -80t37 -55q19 -21 41 -31t40 -10q21 0 35 12t14 34t-16 50t-41 54q-25 27 -54 50t-55 37l12 1q21 16 47 38t47 46q22 24 37 48t15 44q0 26 -22 38t-52 13q-37 -1 -79 -19t-69 -53l-65 69q14 22 38 42t52 34t59 20q31 8 62 8q39 0 73 -16 t60 -42t41 -62q15 -35 15 -73q0 -19 -8 -35t-22 -30q-16 -14 -38 -28t-52 -33q24 -19 47 -43t41 -52t28 -58t11 -58q1 -24 -11 -50t-34 -48t-52 -38q-30 -14 -68 -14q-36 0 -69 14t-60 40q-27 24 -46 55t-27 64z"/>
<glyph glyph-name="afii10026" horiz-adv-x="661" unicode="И" d="M637 -36h-181v100h29l-9 522l-240 -574l-164 26l15 558h-77v100l239 -5l-12 -100l-25 4l-18 -398l222 478l235 -3v-100l-65 2l-1 -510h52v-100z"/>
<glyph glyph-name="afii10027" horiz-adv-x="661" unicode="Й" d="M210 904l97 2q1 -17 2 -31q1 -15 3 -25t5 -16q4 -6 12 -6q23 0 29 16t6 38v26l100 3q8 -30 8 -52q0 -32 -12 -56t-30 -40q-19 -16 -43 -24t-49 -8t-49 8q-25 9 -43 25t-30 40t-11 57q-1 11 1 21t4 22zM637 -36h-181v100h29l-9 522l-240 -574l-164 26l15 558h-77v100 l239 -5l-12 -100l-25 4l-18 -398l222 478l235 -3v-100l-65 2l-1 -510h52v-100z"/>
<glyph glyph-name="afii10028" horiz-adv-x="618" unicode="К" d="M273 350l-77 -49l-19 -305l-100 8l30 606l-97 -2v100l199 10l-8 -298l296 293l72 -70l-218 -221h2q15 -6 23 -32t14 -64t12 -78t15 -75q10 -35 26 -57t42 -23q7 -1 11 13t7 32t5 34t6 23l94 -34q0 -29 -6 -59t-20 -55t-36 -41t-54 -15q-40 1 -70 19t-52 48t-37 70 q-15 38 -26 78t-19 78t-15 66z"/>
<glyph glyph-name="afii10029" horiz-adv-x="648" unicode="Л" d="M553 725l85 -714l-146 9l-40 635q-29 1 -54 -3t-53 -21q-33 -78 -55 -155t-38 -154t-30 -155t-33 -158l-179 -7l8 100l76 -6q13 53 23 110t21 115q11 59 25 115t35 107t50 95t71 76z"/>
<glyph glyph-name="afii10030" horiz-adv-x="799" unicode="М" d="M10 556l8 157l279 -14l122 -382l200 339l108 14l20 -562l42 2v-100l-173 -8l6 100l25 -1l-14 317l-153 -272l40 2v-100l-178 -2v100h27l-135 334l-10 -394h25l9 -120l-185 7v113l51 -4v472z"/>
<glyph glyph-name="afii10031" horiz-adv-x="492" unicode="Н" d="M360 687l107 -1l15 -690l-106 2l-5 280l-165 -1l3 -286l-109 -9l-12 572l-78 -11l4 128l169 20l8 -314l167 18z"/>
<glyph glyph-name="afii10032" d="M245 92q25 0 50 14t47 38t43 56t35 68t22 76q8 39 9 77q0 33 -10 69t-31 66t-53 48t-76 18q-37 0 -65 -26t-48 -70q-19 -42 -29 -95t-10 -107q0 -44 7 -86t21 -73q14 -32 36 -52t52 -21zM270 -1q-66 -1 -115 29t-81 79t-48 111t-15 128q1 69 17 137t48 121t78 86t106 33 q71 -1 124 -33q52 -32 88 -83t54 -114t18 -125q0 -70 -18 -136t-54 -118q-35 -52 -86 -83q-51 -32 -116 -32z" unicode="О"/>
<glyph glyph-name="afii10033" horiz-adv-x="492" unicode="П" d="M14 671l453 15l15 -690l-106 2l-5 571l-165 -1l3 -577l-109 -9l-12 572l-78 -11z"/>
<glyph glyph-name="afii10034" horiz-adv-x="462" unicode="Р" d="M177 592v-233q19 -4 40 -4q30 0 53 10q22 10 38 26t24 37t7 44q0 24 -8 46t-24 39t-40 27t-56 11q-16 0 -34 -3zM10 577l5 113l158 -5q67 -2 119 -22t88 -51q36 -32 54 -70t18 -78q0 -36 -16 -72t-50 -64t-86 -48t-123 -24l18 -256l-125 4l7 583z"/>
<glyph glyph-name="afii10035" d="M532 491l-97 -18q-32 46 -66 66t-66 20q-35 -1 -65 -19t-53 -49t-37 -71t-13 -83q-1 -35 13 -73t36 -68t54 -50q30 -20 64 -19q48 1 94 29t86 70l62 -83q-26 -27 -57 -51t-66 -43t-73 -29t-74 -10q-60 0 -108 30t-84 75q-34 45 -52 101t-19 108q0 70 24 134t64 114 q39 50 91 81q52 30 108 30q64 -1 124 -45t110 -147z" unicode="С"/>
<glyph glyph-name="afii10036" horiz-adv-x="530" unicode="Т" d="M10 595l5 117l481 5l24 -109l-224 9l10 -630l-116 4l-3 604h-177z"/>
<glyph glyph-name="afii10037" horiz-adv-x="486" unicode="У" d="M10 149l83 62l39 -39t42 -34q21 -16 43 -26t43 -10q31 0 53 16t36 42q14 24 21 54t7 56q0 29 -5 61t-14 67q-38 -50 -80 -71t-84 -21q-44 0 -78 17t-57 45t-35 66t-12 79q0 37 4 85t7 114l113 3l-15 -178q1 -20 5 -41q4 -20 14 -38t24 -30q16 -12 39 -11q36 1 63 21 q26 20 44 50t27 62q9 34 9 60q0 19 -2 43t-4 58l102 14q3 -63 4 -103q2 -40 2 -72q0 -30 2 -58t9 -66q7 -48 11 -88t5 -76q-1 -41 -15 -88t-42 -87q-28 -41 -72 -67q-42 -26 -97 -26q-60 0 -122 38t-117 117z"/>
<glyph glyph-name="afii10038" horiz-adv-x="667" unicode="Ф" d="M542 390q0 51 -40 86t-110 35v-236q74 1 112 33t38 82zM125 393q0 -51 37 -83t112 -32l15 236q-39 0 -69 -10t-51 -25q-21 -17 -33 -39t-11 -47zM390 689l1 -86q67 -3 117 -23t83 -50t49 -68t17 -77q0 -37 -16 -72q-17 -35 -49 -63t-82 -49q-50 -20 -117 -26l10 -182 l-134 7l5 178q-68 6 -118 26t-82 48t-48 64q-16 35 -16 72q0 40 16 78t50 67q33 29 83 49t117 24l6 77z"/>
<glyph glyph-name="afii10039" horiz-adv-x="615" unicode="Х" d="M491 -11l-197 307l-154 -285l-130 -2l204 368l-193 323l141 14l137 -238l151 240l134 -18l-199 -307l220 -366z"/>
<glyph glyph-name="afii10040" horiz-adv-x="562" unicode="Ц" d="M548 -3l-473 -15l-13 607l-52 2l15 86l141 -7l5 -571l165 1l-3 577l109 9l12 -572l98 11z"/>
<glyph glyph-name="afii10041" horiz-adv-x="483" unicode="Ч" d="M432 -1l-91 1q0 31 4 68q5 38 9 78t8 82t4 82q0 48 -10 88q-38 -50 -80 -71t-84 -21q-44 0 -78 17t-57 45t-35 66t-12 79q0 37 4 85t7 114l113 3q0 -45 -8 -90t-7 -88q1 -20 5 -41q4 -20 14 -38t24 -30q16 -12 39 -11q36 1 63 21q26 20 44 50t27 62q9 34 9 60q0 19 -2 43 t-4 58l100 14v-64q0 -59 6 -108t12 -96t12 -97t5 -113q0 -61 -10 -118t-31 -130z"/>
<glyph glyph-name="afii10042" horiz-adv-x="732" unicode="Ш" d="M722 -5l-647 -21l-13 607l-52 2l15 86l141 -7l5 -571l165 1l-3 577l109 9l-2 -578h164l-3 577l109 9z"/>
<glyph glyph-name="afii10043" horiz-adv-x="830" unicode="Щ" d="M816 -3l-741 -23l-13 607l-52 2l15 86l141 -7l5 -571l165 1l-3 577l109 9l-2 -578h164l-3 577l109 9l12 -572l98 11z"/>
<glyph glyph-name="afii10044" horiz-adv-x="490" unicode="Ъ" d="M205 98q18 -3 34 -3q32 1 56 11t40 27t24 39t8 46q1 22 -7 44t-24 37q-16 16 -38 26q-23 10 -53 10q-21 0 -40 -4v-233zM10 590v94l213 6l-18 -256q71 -5 123 -24q52 -20 86 -48t50 -64t16 -72q0 -40 -18 -78t-54 -70q-36 -31 -88 -51t-119 -22l-96 -3l-6 588h-89z"/>
<glyph glyph-name="afii10045" horiz-adv-x="703" unicode="Ы" d="M177 98q18 -3 34 -3q32 1 56 11t40 27t24 39t8 46q1 22 -7 44t-24 37q-16 16 -38 26q-23 10 -53 10q-21 0 -40 -4v-233zM417 582v100l272 3l4 -100l-92 -3l-5 -479h91v-100l-191 -9l5 588h-84zM10 113l67 -10l-7 583l125 4l-18 -256q71 -5 123 -24q52 -20 86 -48t50 -64 t16 -72q0 -40 -18 -78t-54 -70q-36 -31 -88 -51t-119 -22l-158 -5z"/>
<glyph glyph-name="afii10046" horiz-adv-x="462" unicode="Ь" d="M177 98q18 -3 34 -3q32 1 56 11t40 27t24 39t8 46q1 22 -7 44t-24 37q-16 16 -38 26q-23 10 -53 10q-21 0 -40 -4v-233zM10 113l67 -10l-7 583l125 4l-18 -256q71 -5 123 -24q52 -20 86 -48t50 -64t16 -72q0 -40 -18 -78t-54 -70q-36 -31 -88 -51t-119 -22l-158 -5z"/>
<glyph glyph-name="afii10047" d="M189 306v81h225q-6 35 -22 66t-38 55t-48 36q-26 14 -55 14q-32 0 -66 -20t-66 -65l-97 18q50 103 110 147t124 45q55 0 107 -30q52 -31 92 -81t64 -114t24 -134q-1 -52 -19 -108t-52 -101t-84 -75q-48 -30 -108 -30q-38 0 -75 10t-72 29t-67 43t-56 51l62 83 q40 -42 86 -70t94 -29q26 -1 55 15t53 41t40 57t17 66h-228z" unicode="Э"/>
<glyph glyph-name="afii10048" horiz-adv-x="822" unicode="Ю" d="M513 92q25 0 50 14t47 38t43 56t35 68t22 76q8 39 9 77q0 33 -10 69t-31 66t-53 48t-76 18q-37 0 -65 -26t-48 -70q-19 -42 -29 -95t-10 -107q0 -44 7 -86t21 -73q14 -32 36 -52t52 -21zM538 -1q-62 1 -110 27t-80 70t-50 102t-19 120h-88l-2 -200h91v-100l-246 -8 l-16 98l71 8l5 481h-84v100l272 3l4 -100l-92 -3l-2 -186h90q6 61 26 117t51 100q31 42 73 68t96 26q70 0 124 -32t90 -83t52 -114q18 -63 18 -125q0 -70 -18 -136t-54 -118q-35 -52 -86 -83q-51 -32 -116 -32z"/>
<glyph glyph-name="afii10049" horiz-adv-x="521" unicode="Я" d="M344 592q-19 4 -39 4q-31 0 -54 -10t-39 -28q-16 -16 -22 -38q-8 -22 -8 -44t8 -44t24 -39t38 -27q24 -10 55 -11q7 0 17 1t20 3v233zM511 577l-67 10v-581l-118 -6l18 256h-20t-18 2q1 -6 1 -13v-14q1 -35 -9 -77t-28 -76t-47 -58q-28 -23 -64 -23q-40 0 -68 22 q-28 23 -46 57t-26 76t-8 80l98 20q3 -28 5 -53t5 -45q4 -20 13 -32t28 -15q10 0 20 15q10 14 18 36t12 46t4 44q0 11 -2 19t-5 12q-75 27 -109 76t-34 105q0 42 20 84t56 74q38 33 92 53t124 20h150z"/>
<glyph glyph-name="afii10065" horiz-adv-x="634" unicode="а" d="M222 99l22 6q22 6 47 17q25 10 47 26t22 35q0 28 -14 50t-32 37q-18 14 -39 22t-36 8q-23 0 -45 -8t-38 -24q-18 -16 -28 -37t-10 -46q0 -43 28 -65t76 -21zM354 454l112 -4q0 -19 -2 -47q-2 -29 -4 -61t-4 -66t-2 -65q0 -27 2 -49t10 -36l135 25l23 -120l-223 -32l-9 53 q-50 -32 -99 -48t-94 -16q-43 0 -77 13t-59 37t-39 56q-14 33 -14 72q0 48 22 92t58 80q36 35 82 56t97 21q36 0 75 -14q10 30 10 53z"/>
<glyph glyph-name="afii10066" horiz-adv-x="360" unicode="б" d="M115 241l-5 -174q17 -4 35 -4q25 0 44 8q19 7 32 21t19 31t7 34q0 33 -24 60t-74 27q-16 0 -34 -3zM113 410v-65q34 -1 75 -11t77 -31q36 -22 60 -59t24 -92q0 -42 -29 -72t-72 -48q-44 -20 -94 -28t-92 -8q-15 0 -28 1t-24 3v499q1 -1 4 -1l268 1v-74z"/>
<glyph glyph-name="afii10067" horiz-adv-x="364" unicode="в" d="M110 428l-4 -123q5 -1 9 -1h9q42 0 67 18t25 51q0 31 -24 43t-68 12h-14zM114 239l-4 -173q17 -4 35 -4q25 0 43 8t32 21t20 30t6 34q0 33 -24 60t-74 27q-16 0 -34 -3zM10 1v499h45q146 0 211 -33t65 -97q0 -29 -10 -44t-24 -23q-13 -7 -29 -13t-28 -17q18 -13 38 -29 t37 -32q17 -17 28 -35t11 -36q0 -43 -15 -71t-45 -43q-30 -17 -74 -23t-103 -6q-49 0 -107 3z"/>
<glyph glyph-name="afii10068" horiz-adv-x="490" unicode="г" d="M47 2l6 80h48l2 311l-93 7l8 97l462 -10l-54 -94l-222 7l6 -323l38 -6l2 -89z"/>
<glyph glyph-name="afii10069" horiz-adv-x="502" unicode="д" d="M208 125q44 1 72 17t46 44q16 28 22 64q6 37 6 78q0 22 -11 38t-27 26t-36 16q-19 6 -36 6q-24 0 -46 -12t-38 -30q-16 -20 -24 -44q-9 -24 -9 -50t2 -52t10 -48t24 -37t45 -16zM123 -109q19 -19 41 -38t44 -34t46 -25t47 -9q26 0 45 12t31 31q11 18 17 42t6 47 q0 41 -10 87t-22 94q-38 -50 -80 -71t-84 -21q-64 0 -102 18t-58 58q-20 38 -26 96t-6 140q0 40 25 75t60 61t73 40t64 14q46 0 86 -10t70 -32t46 -60q17 -38 17 -93q0 -23 1 -41t3 -38t5 -40t7 -48q7 -57 15 -109t8 -100q0 -40 -12 -86t-37 -85q-25 -38 -63 -64t-91 -26 q-57 0 -118 39t-131 114z"/>
<glyph glyph-name="afii10070" horiz-adv-x="578" unicode="е" d="M153 332l276 27q-2 23 -13 39t-28 26t-39 16t-45 6q-28 0 -55 -7t-49 -21t-34 -36q-13 -22 -13 -50zM512 186l56 -91q-81 -55 -162 -83t-153 -28q-57 0 -103 20t-76 54q-32 35 -48 85t-16 110q0 65 18 119t55 92q36 38 88 60q52 21 120 21q51 0 96 -15q45 -14 79 -46 t53 -82q20 -50 20 -121l-393 -59q0 -72 26 -100t72 -27q30 -1 65 9t71 24t69 30q34 16 63 28z"/>
<glyph glyph-name="afii10072" horiz-adv-x="773" unicode="ж" d="M402 621l28 -305q16 48 40 91t50 77t52 54q26 22 47 28q9 -6 19 -17t23 -24l27 -27t29 -22q-23 -14 -55 -34t-60 -46t-48 -58t-20 -71q0 -8 6 -22t17 -34q12 -20 32 -44t49 -51l116 13l9 -111l-166 -5l-161 184l17 -213l-92 -3l-22 226l-145 -197l-167 5l-6 111l117 -13 q26 27 42 51t26 44q8 20 12 34t4 22q0 39 -22 71t-56 58q-32 26 -69 46t-65 34q14 9 26 23t23 26q11 13 21 24t16 17q22 -5 51 -27t59 -56t60 -76q30 -43 53 -91l-14 305z"/>
<glyph glyph-name="afii10073" horiz-adv-x="558" unicode="з" d="M96 -178q34 -42 80 -60t93 -18q29 0 55 6t46 18t32 26q12 16 13 36q0 32 -14 58t-38 48t-56 38q-32 18 -68 32l20 66q11 8 33 18t44 26t38 44q16 27 16 70q0 26 -14 50t-36 41t-51 27q-28 10 -57 10q-45 0 -90 -24t-74 -59q-8 35 -17 56t-9 46q24 23 47 39t49 25t61 13 q34 4 81 4q23 0 59 -18t70 -49q35 -31 59 -73t24 -89q0 -67 -28 -115t-102 -79q50 -2 85 -17t57 -39q22 -25 34 -55q10 -30 10 -63q0 -54 -22 -96q-22 -43 -60 -71t-86 -42t-102 -15q-72 -1 -143 27t-125 87z"/>
<glyph glyph-name="afii10074" horiz-adv-x="544" unicode="и" d="M32 538l106 -7q-4 -85 -12 -155t-7 -123q0 -28 4 -52q5 -24 15 -42q10 -19 28 -29t45 -10q35 0 69 26t53 75l6 323l100 -1l-3 -424l84 31l14 -141l-160 -3l-12 59q-28 -28 -73 -44t-92 -16q-56 1 -92 23t-57 60q-22 38 -30 86t-8 101q0 69 8 137t14 126z"/>
<glyph glyph-name="afii10075" horiz-adv-x="544" unicode="й" d="M98 688l82 11q2 -21 12 -25t17 -5q27 0 35 19t7 61l100 3q7 -27 7 -53q0 -37 -14 -67t-38 -50t-52 -32q-28 -10 -56 -10q-42 0 -74 26t-31 79q-1 11 1 21t4 22zM32 538l106 -7q-4 -85 -12 -155t-7 -123q0 -28 4 -52q5 -24 15 -42q10 -19 28 -29t45 -10q35 0 69 26t53 75 l6 323l100 -1l-3 -424l84 31l14 -141l-160 -3l-12 59q-28 -28 -73 -44t-92 -16q-56 1 -92 23t-57 60q-22 38 -30 86t-8 101q0 69 8 137t14 126z"/>
<glyph glyph-name="afii10076" horiz-adv-x="532" unicode="к" d="M161 618l28 -305q15 48 39 91q24 42 50 76t53 56q26 22 47 27q8 -6 18 -17t24 -24q13 -12 27 -26t29 -23q-24 -14 -56 -34t-60 -46q-28 -27 -48 -59t-19 -70q-1 -8 5 -22t18 -34t32 -44t49 -51l116 13l9 -111l-166 -5l-172 197l9 -225l-100 -2l-22 515l-48 -10l-13 100z "/>
<glyph glyph-name="afii10077" horiz-adv-x="645" unicode="л" d="M222 11l-212 14l12 100l42 -6l242 388l84 -8l187 -386l58 3l-3 -116l-247 3v100h67l-110 241l-142 -225l48 -12z"/>
<glyph glyph-name="afii10078" horiz-adv-x="577" unicode="м" d="M10 388l6 112l199 -10l87 -273l143 242l77 10l15 -402l30 2v-72l-124 -5l4 71l18 -1l-10 227l-109 -194l28 1v-71l-127 -2v72h19l-96 238l-7 -281h18l6 -86l-132 5v81l36 -3v337z"/>
<glyph glyph-name="afii10079" horiz-adv-x="555" unicode="н" d="M161 619l27 -296q39 -2 88 -4q16 -1 32 -1q31 0 58 3l28 300l151 -33l-13 -100l-48 10l-22 -515l-100 2l9 225l-187 -2l9 -225l-100 -2l-22 515l-48 -10l-13 100z"/>
<glyph glyph-name="afii10080" horiz-adv-x="574" unicode="о" d="M291 67q27 -1 53 5t46 18t31 30q12 18 12 42q-1 23 -13 52t-33 54t-49 42t-58 17q-32 -1 -63 -13t-56 -32t-40 -46t-15 -52q0 -31 18 -53t46 -36q28 -15 60 -21t61 -7zM324 -48q-28 0 -62 6t-69 20t-68 33t-59 45t-40 56q-16 31 -16 68q0 49 24 97q24 47 64 85t92 61 t105 23q55 0 103 -28t84 -70t59 -92q22 -50 22 -93q1 -45 -17 -83t-50 -68q-32 -28 -76 -44t-96 -16z"/>
<glyph glyph-name="afii10081" horiz-adv-x="507" unicode="п" d="M12 392l-2 106l190 22v-45q26 23 62 35t75 13q53 0 85 -21t48 -55t22 -77q5 -43 5 -88q1 -74 -9 -152t-22 -150l-95 9q0 25 4 62t9 79t9 84q4 44 4 82q0 54 -12 90t-46 36q-29 0 -67 -28t-78 -85l-24 -321l-100 6l28 402h-8q-10 0 -32 -1t-46 -3z"/>
<glyph glyph-name="afii10082" horiz-adv-x="635" unicode="р" d="M328 120q30 0 62 9t56 26q26 17 42 41t16 54q0 40 -24 68t-66 27q-32 -1 -66 -13t-63 -32t-48 -46t-19 -53q0 -21 10 -36t24 -25q16 -10 36 -15t40 -5zM189 -300l-133 -2l54 659l-94 -2l-6 133l189 -10l8 -67q35 27 75 39t79 13q51 0 99 -19t84 -51q37 -32 59 -75t22 -92 q-1 -53 -23 -94t-60 -69q-38 -29 -88 -43t-104 -14q-41 0 -81 8t-76 26z"/>
<glyph glyph-name="afii10083" horiz-adv-x="503" unicode="с" d="M468 404l-106 -28q-22 18 -44 26t-43 8q-30 0 -57 -14t-47 -36q-19 -22 -31 -48q-12 -28 -12 -55q0 -39 14 -67t34 -48q21 -18 46 -27t48 -9q42 0 86 15t81 32l56 -84q-57 -32 -119 -50t-121 -18q-50 1 -94 15t-77 46t-52 84t-19 126q0 59 21 106q22 48 56 80t78 49 t90 17q58 0 114 -28t98 -92z"/>
<glyph glyph-name="afii10084" horiz-adv-x="682" unicode="т" d="M10 512l197 11l4 -20q21 12 49 20t56 8q29 1 53 -11t36 -39q26 15 54 23t54 9q39 0 65 -20q26 -21 44 -53t27 -74q10 -42 15 -84q4 -44 6 -84t2 -71v-107l-104 -9q1 22 1 56v77q0 43 -3 89t-13 83t-28 61t-49 24q-18 1 -32 -11t-17 -39l-2 -326l-115 -7l9 364 q1 14 -13 22t-32 8q-24 0 -47 -12t-27 -36l-28 -342l-100 6l31 383l-89 1z"/>
<glyph glyph-name="afii10085" horiz-adv-x="497" unicode="у" d="M35 -171l83 62q18 -19 40 -38t45 -34t47 -25t46 -9q26 0 45 12t31 31q12 18 18 42t5 47q0 41 -10 87t-22 94q-39 -50 -81 -71t-83 -21q-59 0 -96 24t-57 66q-20 40 -28 93q-7 53 -7 110q0 43 2 91t5 102l113 3q0 -43 -4 -99t-4 -113q0 -37 4 -69t15 -55q10 -19 26 -27 t35 -7q43 0 71 16t46 43q16 27 22 63t7 76q0 38 -4 80t-10 88l100 14q3 -63 5 -113t6 -91q4 -42 8 -79t10 -76q8 -57 16 -109t7 -100q0 -40 -12 -86t-37 -85q-26 -38 -64 -64t-90 -26q-57 0 -118 39t-131 114z"/>
<glyph glyph-name="afii10086" horiz-adv-x="783" unicode="ф" d="M252 115q36 0 62 22t26 61q0 28 -16 54t-38 46q-24 20 -52 34q-28 12 -53 12q-19 0 -33 -8t-22 -23q-9 -14 -13 -31t-4 -34q0 -32 13 -56t34 -42q20 -18 46 -26q26 -9 50 -9zM585 86q24 0 41 8q18 8 28 25t15 47t5 75q0 19 -12 41t-28 40q-18 18 -38 30t-39 12 q-21 0 -40 -8t-33 -22t-24 -36q-8 -20 -8 -45q0 -19 12 -47t30 -56q19 -26 43 -45t48 -19zM364 -311l-12 341q-56 -30 -119 -30q-49 0 -89 17t-70 47t-46 71t-17 89q0 49 18 93q17 45 47 77t68 51t80 19q32 0 64 -12t61 -41l-18 67h90l-7 -69q26 29 56 41t63 12q44 0 87 -22 t77 -58t55 -84t21 -103q0 -45 -15 -81t-42 -62t-64 -40t-82 -14q-61 0 -121 29l24 -340l-107 -2v4h-2z"/>
<glyph glyph-name="afii10087" horiz-adv-x="566" unicode="х" d="M471 -20l-197 197l-194 -182l-70 72l195 181l-181 175l72 70l183 -177l180 170l70 -70l-180 -172l207 -193z"/>
<glyph glyph-name="afii10088" horiz-adv-x="573" unicode="ц" d="M437 -146v153l-63 -1l-12 59q-28 -28 -73 -44t-92 -16q-56 1 -92 23t-57 60q-22 38 -30 86t-8 101q0 69 8 137t14 126l106 -7q-4 -85 -12 -155t-7 -123q0 -28 4 -52q5 -24 15 -42q10 -19 28 -29t45 -10q35 0 69 26t53 75l6 323l100 -1l-3 -424l127 21l-43 -286h-83z"/>
<glyph glyph-name="afii10089" horiz-adv-x="505" unicode="ч" d="M161 619l27 -296q60 -27 100 -27q22 0 40 6t38 19l28 300l101 -23l-33 -615l-100 2l9 225q-29 -12 -57 -18t-58 -7q-36 -1 -74 11t-80 37q-16 31 -23 63t-9 64t-4 66q0 34 -3 70l-40 -10l-13 100z"/>
<glyph glyph-name="afii10090" horiz-adv-x="808" unicode="ш" d="M798 7l-117 -1l-12 59q-28 -28 -73 -44t-92 -16q-32 0 -60 8t-49 25q-14 10 -24 24q-35 -35 -80 -50t-94 -15q-56 0 -92 22t-57 59q-22 37 -30 86t-8 103q0 69 8 137t14 126l106 -7q-4 -85 -12 -155t-7 -123q1 -29 5 -53t14 -42t29 -28q18 -10 45 -11q30 1 60 21t50 58 q-3 34 -3 71q0 71 7 143t13 134l106 1q-3 -83 -11 -155t-8 -127q0 -29 4 -54t16 -44q10 -19 28 -30t46 -11q35 0 68 26t52 77l6 323l100 -1l-3 -424l30 2z"/>
<glyph glyph-name="afii10091" horiz-adv-x="880" unicode="щ" d="M744 -146v153l-63 -1l-12 59q-28 -28 -73 -44t-92 -16q-42 -1 -76 13t-57 44q-35 -35 -80 -50t-94 -15q-56 1 -92 23t-57 60q-22 38 -30 86t-8 101q0 69 8 137t14 126l106 -7q-4 -85 -12 -155t-7 -123q1 -29 5 -53t14 -42t29 -28q18 -10 45 -11q30 1 60 21t50 58 q-3 20 -4 40t-1 43q0 68 8 137t14 128l106 1q-3 -83 -11 -155t-8 -127q0 -29 4 -54t16 -44q10 -19 28 -30t46 -11q35 0 68 26t52 77l6 323l100 -1l-3 -424l127 21l-43 -286h-83z"/>
<glyph glyph-name="afii10092" horiz-adv-x="498" unicode="ъ" d="M317 42q15 0 31 4t28 12t20 21q8 12 8 29q0 21 -14 41q-14 21 -34 37q-22 16 -48 26t-49 10q-17 0 -31 -7t-24 -19t-17 -26q-6 -14 -6 -29q1 -22 13 -40t32 -31q20 -12 43 -20q24 -8 48 -8zM10 466v85l202 26l-12 -279q30 6 61 6q44 0 85 -13q40 -13 72 -37t51 -60 q19 -35 19 -80q0 -72 -44 -114t-116 -42q-46 0 -90 20t-70 60l-5 -55l-85 1l-3 482h-65z"/>
<glyph glyph-name="afii10093" horiz-adv-x="597" unicode="ы" d="M249 42q15 0 31 4t28 12t20 21q8 12 8 29q0 21 -14 41t-35 36t-47 26t-50 10q-34 0 -56 -25t-21 -55q1 -22 13 -40t32 -31q20 -12 43 -20q24 -8 48 -8zM449 512l103 -8l35 -494l-136 -10zM151 555l-19 -257q30 6 61 6q44 0 85 -13q40 -13 72 -37t51 -60q19 -35 19 -80 q0 -72 -44 -114t-116 -42q-46 0 -90 20t-70 60l-5 -55l-85 1l28 595z"/>
<glyph glyph-name="afii10094" horiz-adv-x="430" unicode="ь" d="M249 42q15 0 31 4t28 12t20 21q8 12 8 29q0 21 -14 41t-35 36t-47 26t-50 10q-34 0 -56 -25t-21 -55q1 -22 13 -40t32 -31q20 -12 43 -20q24 -8 48 -8zM151 555l-19 -257q30 6 61 6q44 0 85 -13q40 -13 72 -37t51 -60q19 -35 19 -80q0 -72 -44 -114t-116 -42 q-46 0 -90 20t-70 60l-5 -55l-85 1l28 595z"/>
<glyph glyph-name="afii10095" horiz-adv-x="503" unicode="э" d="M186 222v81h180q-8 21 -22 41t-31 34t-39 23t-46 9q-21 0 -43 -8t-44 -26l-106 28q42 64 98 92t114 28q46 0 90 -17q45 -17 79 -49t55 -79t21 -107q0 -74 -20 -126t-52 -84q-33 -32 -77 -46t-93 -15q-59 0 -121 18t-119 50l56 84q38 -17 82 -32t85 -15q45 0 81 25t55 91 h-183z"/>
<glyph glyph-name="afii10096" horiz-adv-x="735" unicode="ю" d="M452 67q28 -1 54 5t44 18q20 12 32 30t12 42q0 23 -12 52t-34 54q-21 25 -49 42t-58 17q-32 -1 -63 -13t-56 -32t-40 -46t-15 -52q1 -31 19 -53t46 -36q28 -15 60 -21t60 -7zM10 441l103 -8l11 -151h74q18 34 46 64t61 52q35 22 73 35t78 13q54 0 102 -28t86 -70 q36 -42 58 -92t22 -93q0 -45 -18 -83t-49 -68q-32 -28 -76 -44t-96 -16q-39 0 -93 16t-102 45q-50 31 -84 75t-35 101h-40l15 -208l-136 -10v470z"/>
<glyph glyph-name="afii10097" horiz-adv-x="410" unicode="я" d="M270 459q-8 2 -16 3t-16 1q-24 0 -42 -8q-18 -7 -28 -21q-12 -14 -18 -30t-6 -35q0 -18 6 -35t18 -30t32 -21q18 -8 43 -8h13t14 2v182zM400 447l-52 8v-452l-91 -5l13 199q-8 1 -15 1t-14 1q1 -5 1 -10v-9q0 -28 -8 -60t-22 -60t-36 -46t-50 -18q-31 0 -53 17 q-21 17 -35 43t-20 60q-6 32 -7 63l76 15q2 -22 3 -42q0 -20 4 -34t11 -24t22 -13q7 -1 15 11t14 30t10 36q4 19 3 34q0 16 -5 23q-56 21 -84 60t-28 82q0 33 16 65t44 58q29 26 72 40q43 16 97 16h115z"/>
<glyph glyph-name="afii10071" horiz-adv-x="578" unicode="ё" d="M421 655q-12 -12 -25 -17t-25 -5q-14 0 -27 6q-12 6 -22 16t-16 23t-5 28q-1 12 5 26t16 24t22 18q13 6 28 6t29 -6t25 -14q11 -10 18 -22t7 -26q-1 -14 -7 -28t-23 -29zM206 646q-12 -12 -25 -17t-25 -5q-14 0 -27 6t-23 16t-14 23q-6 13 -6 28q0 13 6 27t14 24 q10 10 23 16t28 7t29 -5t25 -15t18 -21t7 -27q0 -14 -6 -28t-24 -29zM153 332l276 27q-2 23 -13 39t-28 26t-39 16t-45 6q-28 0 -55 -7t-49 -21t-34 -36q-13 -22 -13 -50zM512 186l56 -91q-81 -55 -162 -83t-153 -28q-57 0 -103 20t-76 54q-32 35 -48 85t-16 110 q0 65 18 119t55 92q36 38 88 60q52 21 120 21q51 0 96 -15q45 -14 79 -46t53 -82q20 -50 20 -121l-393 -59q0 -72 26 -100t72 -27q30 -1 65 9t71 24t69 30q34 16 63 28z"/>
<glyph glyph-name="afii10101" horiz-adv-x="503" unicode="є" d="M316 222h-183q19 -66 55 -91t81 -25q41 0 85 15t82 32l56 -84q-57 -32 -119 -50t-121 -18q-50 1 -94 15t-77 46t-52 84t-19 126q0 60 21 107t55 79t79 49q44 17 90 17q58 0 114 -28t98 -92l-106 -28q-22 18 -44 26t-43 8q-24 0 -46 -9t-39 -23q-18 -14 -32 -34t-21 -41 h180v-81z"/>
<glyph glyph-name="afii10102" horiz-adv-x="521" unicode="ѕ" d="M509 414l-74 -71q-17 16 -39 33q-22 16 -44 30t-46 22q-22 8 -40 9q-24 0 -38 -17t-14 -37q0 -21 18 -39t46 -32q28 -15 60 -28t60 -25q56 -25 84 -71t29 -93q-1 -37 -15 -65t-39 -48t-57 -30t-67 -10q-29 0 -59 7t-57 21t-49 36q-22 21 -37 50l-63 -31l-58 82l132 74 q15 -13 33 -35t39 -44q20 -22 44 -37q24 -16 50 -16q8 -1 20 3t24 12t22 18t10 24t-12 29t-33 31t-49 32t-63 31q-65 29 -97 73t-32 90q0 32 12 60t35 50q21 22 51 34t63 12q51 0 115 -31t135 -103z"/>
<glyph glyph-name="afii10103" horiz-adv-x="171" unicode="і" d="M130 536q-12 -12 -25 -17t-25 -5q-14 0 -27 6t-23 16t-14 23q-6 13 -6 28q0 13 6 27t14 24q10 10 23 16t28 7t29 -5t25 -15t18 -21t7 -27q0 -14 -6 -28t-24 -29zM21 462l103 -8l33 -452l-136 -10v470z"/>
<glyph glyph-name="afii10105" horiz-adv-x="382" unicode="ј" d="M311 434q-12 -3 -22 -3q-31 0 -48 21t-17 46q0 12 4 24t14 22q9 10 22 16t30 7q15 -1 28 -7t23 -17t16 -25t6 -26q-1 -18 -13 -34t-43 -24zM145 279l15 116l212 -4l-11 -540q0 -43 -12 -83q-13 -40 -33 -70t-48 -48t-61 -18q-46 0 -82 21t-61 57t-39 80q-14 46 -15 96 l109 29q1 -29 7 -56t16 -48t22 -34q14 -13 29 -13q17 0 33 26t26 69l19 431z"/>
</font>
</defs>
</svg>
