<svg xmlns="http://www.w3.org/2000/svg" width="100" height="100" viewBox="0 0 100 100"><g fill-rule="evenodd" clip-rule="evenodd"><path fill="#FFF" d="M50 100c27.5 0 50-22.5 50-50S77.5 0 50 0 0 22.5 0 50s22.5 50 50 50z"/><g fill="none" stroke="#00AFEE" stroke-width=".75" stroke-linejoin="round" stroke-miterlimit="22.926"><path d="M76.7 35.1l-7.5 34.1-26.4 4.3-15.7-10.3.7-29.9 26.3-1z"/><path d="M27.8 33.3l21.7 4.6 27.2-2.8m-27.2 2.8l-6.7 35.6m16.5-36.6l-6.6 35m4-4.2L67 65.9l4.6-20.8-10.9 1.4zm-6-1.6l-3.1.2-.7 4.6 3.1-.3zm-8.3-37.6h5.1v4.1l-5.1.2z"/></g></g></svg>