<svg xmlns="http://www.w3.org/2000/svg" width="100" height="100" viewBox="0 0 100 100"><g fill-rule="evenodd" clip-rule="evenodd"><circle fill="#FFF" cx="50" cy="50" r="50"/><g fill="#00AFEE"><path stroke="#00AFEE" stroke-width=".216" stroke-miterlimit="22.926" d="M69.1 59.9c-3.8 7-11.2 11.8-19.7 11.8-12.3 0-22.3-10-22.3-22.3 0-10 6.6-18.4 15.6-21.3-4.2 3.8-6.8 9.3-6.8 15.3 0 11.4 9.3 20.7 20.7 20.7 4.7 0 9.1-1.6 12.5-4.2z"/><path d="M54.5 26.7l.7 5.1 4.4-2.6-3.6 3.7 4.9 1.8-5.2-.5 1.7 4.9-2.9-4.3-2.8 4.3 1.6-4.9-5.2.5 4.9-1.8-3.6-3.7 4.4 2.6zm14.6 10.6l.6 4.6 3.9-2.4-3.2 3.3 4.3 1.6-4.6-.4 1.5 4.3-2.5-3.8-2.5 3.8L68 44l-4.5.4 4.2-1.6-3.1-3.3 3.9 2.4zm-14 9.2l.5 4.2 3.7-2.2-3 3.1 4 1.4-4.2-.4 1.3 4.1-2.3-3.6-2.4 3.6 1.4-4.1-4.3.4 4-1.4-2.9-3.1 3.6 2.2z"/></g></g></svg>