<svg xmlns="http://www.w3.org/2000/svg" width="100" height="100" viewBox="0 0 100 100"><path fill-rule="evenodd" clip-rule="evenodd" fill="#FFF" d="M50 100c27.5 0 50-22.5 50-50S77.5 0 50 0 0 22.5 0 50s22.5 50 50 50z"/><g fill-rule="evenodd" clip-rule="evenodd"><circle fill="#FFF" cx="50" cy="50" r="50"/><path fill="none" stroke="#00AFEE" stroke-width=".75" stroke-miterlimit="22.926" d="M16.7 27.7h66.5c1.1 0 2 .9 2 2v40.6c0 1.1-.9 2-2 2H16.7c-1.1 0-2-.9-2-2V29.7c.1-1.1.9-2 2-2z"/><path fill="none" stroke="#00AFEE" stroke-width=".75" stroke-miterlimit="22.926" d="M20.7 32.9h58.6c.5 0 .9.4.9.9v30.6c0 .5-.4.9-.9.9H20.7c-.5 0-.9-.4-.9-.9V33.8c0-.5.4-.9.9-.9z"/><path fill="none" stroke="#00AFEE" stroke-width="1.5" stroke-miterlimit="22.926" stroke-dasharray="7.4991,1.4998" d="M33.3 57.9h33.4"/><path fill="#00AFEE" d="M36.8 48.1l-.1 5.7 1 .8 1-.8.1-5.7-1-.8-1 .8zm2.1-1.5l-1 .8-1-.8.1-5.6 1-.8 1 .8-.1 5.6zm9.9-6.4H41l2 1.5h5.7l1-.8-.9-.7zM43 46.6l-1 .8 1 .8h5.7l1-.8-1-.8H43zm-.4 1.8l-.1 5.4-1 .8-1-.8.1-5.4 1-.8 1 .8zm.1-6.4l-.1 4.4-1 .8-1-.8.1-5.9 2 1.5zm8.5 0l-.1 4.4-1 .8-1-.8.1-4.4 1-.8 1 .8zm3.6 11l-1 .8 1 .8h6.1l1-.8-1-.8h-6.1zm.5-12.8l-1 .8 1 .8h6.1l1-.8-1-.8h-6.1zm-.4 1.8l-.1 4.4-1 .8-1-.8.1-4.4 1-.8 1 .8zm8.4 6.4l-.1 4.4-1 .8-1-.8.1-4.4 1-.8 1 .8zm-8.1-1.8l-1 .8 1 .8h5.7l1-.8-1-.8h-5.7z"/></g></svg>