<svg xmlns="http://www.w3.org/2000/svg" width="100" height="100" viewBox="0 0 100 100"><path fill-rule="evenodd" clip-rule="evenodd" fill="#FFF" d="M50 100c27.5 0 50-22.5 50-50S77.5 0 50 0 0 22.5 0 50s22.5 50 50 50z"/><g fill-rule="evenodd" clip-rule="evenodd" fill="none" stroke="#00AFEE" stroke-width=".75" stroke-miterlimit="22.926"><path d="M50 72.5c12.4 0 22.5-10.1 22.5-22.5S62.4 27.5 50 27.5 27.5 37.6 27.5 50 37.6 72.5 50 72.5z"/><path d="M50 69.1c10.5 0 19.1-8.6 19.1-19.1 0-10.5-8.6-19.1-19.1-19.1-10.5 0-19.1 8.6-19.1 19.1 0 10.5 8.6 19.1 19.1 19.1z"/></g><path d="M45.5 47.3l1.5.5c-.2.8-.6 1.4-1.1 1.8-.5.4-1.2.6-2 .6-1 0-1.8-.3-2.4-1s-1-1.6-1-2.8c0-1.2.3-2.2 1-2.9s1.5-1 2.5-1c.9 0 1.7.3 2.2.8.3.3.6.8.8 1.4l-1.6.3c-.1-.4-.3-.7-.6-.9s-.6-.3-1-.3c-.6 0-1 .2-1.3.6-.3.4-.5 1-.5 1.9 0 .9.2 1.6.5 2 .3.4.8.6 1.3.6.4 0 .7-.1 1-.4.4-.2.6-.6.7-1.2zm2.7 2.8v-7.5h2.4c.9 0 1.5 0 1.8.1.4.1.8.4 1.1.7.3.4.4.9.4 1.5 0 .5-.1.8-.2 1.2-.2.3-.4.6-.6.7-.3.2-.5.3-.8.4-.4.1-.9.1-1.6.1h-1v2.8h-1.5zm1.5-6.2V46h.8c.6 0 1 0 1.2-.1.2-.1.4-.2.5-.4.1-.2.2-.4.2-.6 0-.3-.1-.5-.2-.7-.2-.2-.4-.3-.6-.3-.2 0-.5-.1-1.1-.1h-.8zm5.5 6.2v-7.4h1.5v6.1h3.7v1.3h-5.2zm-15.5 7.6v.6h-.9v-.6c-.8 0-1.3-.2-1.6-.6-.3-.4-.5-.8-.5-1.3 0-.6.2-1 .5-1.3.3-.3.9-.5 1.6-.5v-.5h.9v.5c.8 0 1.3.2 1.6.6.3.3.5.8.5 1.3s-.2 1-.5 1.3c-.2.3-.8.5-1.6.5zm-.9-.8v-2.1c-.4 0-.7.1-.9.3-.2.2-.3.5-.3.8 0 .6.4 1 1.2 1zm.9 0c.3 0 .5 0 .7-.1.2-.1.3-.2.4-.3.1-.1.1-.4.1-.6 0-.7-.4-1-1.2-1v2zm2.9-3.4h.9v3.2l1.9-3.2h1v4.8h-.9v-3.1l-1.9 3.1h-1v-4.8zm5.2 0h3.4v4.8h-1v-4h-1.4v2c0 .6 0 1-.1 1.2 0 .2-.1.4-.3.5-.2.1-.4.2-.7.2h-.6v-.7h.2c.2 0 .3 0 .4-.1.1-.1.1-.2.1-.4v-3.5zm4.4 0h1v1.9h1.3c.6 0 1.1.1 1.3.4.3.3.4.6.4 1 0 .3-.1.6-.2.8-.2.2-.4.4-.6.5-.2.1-.5.1-.9.1h-2.3v-4.7zm.9 4h1.5c.1 0 .2-.1.3-.2.1-.1.1-.2.1-.4s-.1-.4-.2-.5c-.2-.1-.4-.2-.8-.2h-1v1.3zm4.3.8v-4H56v-.8h3.8v.8h-1.4v4h-1zm3 0v-4.8H62c.6 0 1 0 1.2.1.3.1.5.2.7.5.2.2.3.6.3.9 0 .3-.1.5-.2.7-.1.2-.2.4-.4.5-.2.1-.3.2-.5.2s-.6.1-1 .1h-.6v1.8h-1.1zm.9-4v1.4h.5c.4 0 .6 0 .8-.1.1-.1.2-.1.3-.2.1-.2.1-.3.1-.4 0-.2-.1-.3-.2-.4-.1-.1-.2-.2-.4-.2h-1.1z" fill="#00AFEE"/></svg>