<svg xmlns="http://www.w3.org/2000/svg" width="100" height="100" viewBox="0 0 100 100"><g fill-rule="evenodd" clip-rule="evenodd"><path fill="#FFF" d="M50 100c27.5 0 50-22.5 50-50S77.5 0 50 0 0 22.5 0 50s22.5 50 50 50z"/><path fill="none" stroke="#00AFEE" stroke-width=".75" stroke-miterlimit="22.926" d="M22.9 27.5h54.2c2.1 0 3.8 1.7 3.8 3.8v32.2c0 2.1-1.7 3.8-3.8 3.8H61.3l-6.5 5.3h-4.5c-.6 0-1-.3-1.3-.8l-.9-1.5h-5L41.8 72c-.3.4-.7.5-1.2.5H22.9c-2.1 0-3.8-1.7-3.8-3.8V31.3c0-2.1 1.7-3.8 3.8-3.8z"/><g fill="#00AFEE"><path d="M30 54.9V43.1c0-1.7 1-2.8 2.3-3.2.5-.2 1-.2 1.4-.2.5 0 1 .1 1.5.3.3.1.6.3.9.4.3-.2.6-.3.9-.4.5-.2 1-.2 1.4-.2.5 0 1 .1 1.5.3 1.3.5 2.3 1.6 2.3 3.2v11.8h-2.9V43.3c0-.2-.2-.4-.4-.5-.1-.1-.3-.1-.5-.1s-.3 0-.5.1-.4.2-.4.5v11.8h-2.9v-12c0-.2-.2-.4-.4-.5-.1-.1-.3-.1-.5-.1s-.3 0-.5.1-.4.2-.4.5v11.8H30zm13.5-11.4h2.2v5h-2.2z"/><ellipse cx="44.7" cy="41.6" rx="1.5" ry="1.3"/><path d="M52.8 43.1h-2c-.4 0-.7.2-.9.4-.3.3-.4.7-.4 1.1 0 .5.2.9.4 1.1.2.3.6.4.9.4h2v2.2h-2c-1 0-1.9-.4-2.5-1.1-.6-.7-1-1.6-1-2.6s.4-2 1-2.6c.6-.7 1.6-1.1 2.5-1.1h2v2.2zm.7 5.3v-4.5c0-1.5.8-2.4 1.8-2.9.4-.2.8-.3 1.3-.3.4 0 .9.1 1.3.3 1 .4 1.8 1.4 1.9 2.9l-2.3.1c0-.5-.2-.8-.5-.9-.1-.1-.3-.1-.4-.1-.1 0-.3 0-.4.1-.3.1-.5.4-.5.8v4.5h-2.2zm11.1-7.6c1.1 0 2 .4 2.7 1.1s1.1 1.6 1.1 2.7-.4 2-1.1 2.7c-.7.7-1.6 1.1-2.7 1.1s-2-.4-2.7-1.1c-.7-.7-1.1-1.6-1.1-2.7s.4-2 1.1-2.7c.7-.7 1.7-1.1 2.7-1.1zm1.2 2.7c-.3-.3-.7-.5-1.1-.5-.4 0-.9.2-1.1.5-.3.3-.5.7-.5 1.1 0 .4.2.9.5 1.1.3.3.7.5 1.1.5.4 0 .9-.2 1.1-.5.3-.3.5-.7.5-1.1 0-.4-.2-.8-.5-1.1zM56 49.3c-2.6.1-5.1.2-6.8.4-1.7.2-2.6.5-3.2.9-.6.4-.9 1-.9 1.5s.3 1.1 1 1.5c.7.4 1.8.7 2.5.9.7.2 1 .4 1.1.6.1.2.1.5-.2.6-.3.2-.9.2-2 .2s-2.7-.1-4.3-.2c-.3.8-.6 1.6-.9 2.5 2.2 0 4.3.1 6 0 1.7 0 2.8-.1 3.7-.3.9-.2 1.5-.7 1.9-1.3.4-.6.5-1.3.3-1.8-.2-.6-.7-1-1.6-1.4-.9-.3-2.1-.5-3-.7-.8-.2-1.2-.3-1.4-.6-.2-.2-.3-.5-.1-.6.1-.2.4-.2 1.7-.3 1.3-.1 3.6-.1 5.8-.2.3-.5.3-1.1.4-1.7zm-.1 5.1c-.4 1.2-.8 2.4-1.3 3.6 1.5-.1 2.9-.1 4.4-.3 1.5-.2 3-.5 4.2-.8 1.2-.4 2.2-.8 3.1-1.4.9-.6 1.6-1.4 2-2.1.3-.7.3-1.2 0-1.6-.3-.5-.7-.9-1.2-1.2-.4-.3-.8-.4-1.2-.5-.9.4-1.8.9-2.6 1.2-.8.3-1.5.5-2.1.7-.2.5-.4.9-.8 1.3s-1.1.8-2 .9-1.6.2-2.5.2zm1.5-5.1c-.1.6-.2 1.2-.2 1.8h1.6c.4 0 .7.1.9.1.4-.3.7-.6 1.1-1 .4-.3.7-.6 1.1-.9-.8-.1-1.6-.1-2.4-.1-.7 0-1.4.1-2.1.1zm3.1 2.1c1.1-.6 2.3-1.3 3.4-1.9.2 0 .5 0 .6.1.2 0 .3.1.4.2-1.3.6-2.5 1.3-3.8 1.9-.1 0-.2-.1-.3-.1-.1-.1-.2-.2-.3-.2z"/></g></g></svg>