<svg xmlns="http://www.w3.org/2000/svg" width="100" height="100" viewBox="0 0 100 100"><g fill-rule="evenodd" clip-rule="evenodd"><circle fill="#FFF" cx="50" cy="50" r="50"/><path fill="none" stroke="#00AFEE" stroke-width=".75" stroke-miterlimit="22.926" d="M34.2 36.2c-.1-.5-.1-1.1-.1-1.6 0-.8.3-1.6.9-2.1.5-.6 1.3-.9 2.1-.9h.2c4.2.2 8.4.7 12.6.7 4.2 0 8.4-.4 12.6-.7h.2c1.6-.1 3.2 1.4 3 3-.2 4.3-.7 8.6-.7 12.9 0 3.8.3 7.5.6 11.2.1.5.1 1.1.1 1.6 0 .8-.3 1.6-.9 2.1-.5.6-1.3.9-2.1.9h-.2c-4.2-.2-8.4-.7-12.6-.7s-8.4.4-12.6.7h-.2c-1.6.1-3.2-1.4-3-3 .2-4.3.7-8.6.7-12.9 0-3.7-.4-7.5-.6-11.2z"/><path fill="#00AFEE" d="M48.7 62.7l.2 4.9h.5v9h1.1v-9h.6l.2-4.9H50c-.4-.1-.9-.1-1.3 0z"/><ellipse fill="none" stroke="#00AFEE" stroke-width=".75" stroke-miterlimit="22.926" cx="50" cy="47.9" rx="8.6" ry="5"/><path fill="#00AFEE" d="M46.9 48.3v-.4h1.5v1.3c-.2.2-.5.3-.7.4-.2.1-.5.1-.7.1-.3 0-.7-.1-.9-.2-.3-.1-.5-.4-.6-.6-.1-.3-.2-.6-.2-.9 0-.3.1-.7.2-.9.1-.3.3-.5.6-.7.3-.1.6-.2.9-.2.3 0 .5 0 .7.1.2.1.4.2.5.3.1.1.2.3.3.6l-.4.1c-.1-.2-.1-.3-.2-.4-.1-.1-.2-.2-.3-.2-.1-.1-.3-.1-.5-.1s-.4 0-.5.1c-.2.1-.3.1-.4.3-.1.1-.2.2-.2.3-.1.2-.1.4-.1.7 0 .3.1.6.2.8.1.2.3.4.5.5.2.1.4.2.6.2.2 0 .4 0 .6-.1.2-.1.3-.2.4-.2v-.7h-1.3v-.2zm2.1 1.3v-3.5h1.8c.2 0 .3.1.4.2l.3.3c.1.1.1.3.1.5 0 .3-.1.5-.3.7-.2.2-.5.3-1 .3h-.9v1.4H49v.1zm.5-1.8h.9c.3 0 .5-.1.6-.2.1-.1.2-.3.2-.5 0-.1 0-.3-.1-.4-.1-.1-.2-.2-.3-.2h-1.3v1.3zm2.6.7h.4c0 .2.1.3.1.4l.3.3c.2.1.3.1.5.1s.3 0 .5-.1c.1-.1.2-.1.3-.2.1-.1.1-.2.1-.3 0-.1 0-.2-.1-.3-.1-.1-.2-.1-.3-.2-.1 0-.3-.1-.6-.2s-.5-.1-.7-.2c-.2-.1-.3-.2-.4-.3-.1-.1-.1-.3-.1-.4 0-.2.1-.3.1-.5.1-.2.2-.3.4-.3.2-.1.4-.1.6-.1.3 0 .5 0 .7.1.2.1.3.2.5.4.1.2.2.3.2.5h-.4c0-.2-.1-.4-.2-.5-.1-.1-.3-.2-.6-.2s-.5.1-.6.2c-.1.1-.2.2-.2.4 0 .1 0 .2.1.3.1.1.3.2.7.2.4.1.6.2.8.2.2.1.4.2.4.4.1.1.1.3.1.5s-.1.4-.2.5c-.1.2-.3.3-.5.4-.2.1-.4.1-.7.1-.3 0-.6 0-.8-.1-.2-.1-.4-.2-.5-.4.2-.2.1-.5.1-.7z"/></g></svg>