<svg xmlns="http://www.w3.org/2000/svg" width="100" height="100" viewBox="0 0 100 100"><g fill-rule="evenodd" clip-rule="evenodd"><circle fill="#FFF" cx="50" cy="50" r="50"/><path fill="#00AFEE" d="M23.2 63.6c-.2-1-.4-1.9-.4-4-.1-2.1 0-5.4 0-7.4.1-2 .2-2.6.7-4.2.4-1.6 1.1-4.2 2.3-7.3s2.7-7 3.9-9.1 2.1-2.6 3.9-3c1.7-.4 4.3-.7 7.2-.8 2.9-.2 6-.2 9.2-.2 3.2 0 6.3.1 9.2.2 2.9.2 5.5.5 7.2.8 1.7.4 2.6.9 3.9 3s2.8 5.9 3.9 9.1 1.8 5.8 2.3 7.3c.4 1.6.6 2.2.7 4.2.1 2 .1 5.2 0 7.4-.1 2.1-.3 3.1-.4 4-.4.5-.8 1.1-1.2 1.6h-.1c-.2.3-.4.6-.7.9-.3.4-.8.8-1.3 1.2H26.3c-.5-.4-.9-.8-1.3-1.2-.3-.3-.5-.6-.7-.9h-.1c-.2-.5-.6-1.1-1-1.6z"/><path fill="#FFF" d="M50 44.2c-1.4 0-2.8-.1-5.6 0-2.7.1-6.8.4-9.9.7-3.1.3-5.2.6-7.3.9.1-1 .2-2 .5-3.2.3-1.3.8-2.8 1.4-4.6.6-1.8 1.2-3.7 1.9-5.7 2.3-.4 4.6-.8 7.7-1 3.2-.2 7.3-.2 11.3-.3 4.1 0 8.1.1 11.3.3 3.2.2 5.5.6 7.7 1 .7 2 1.3 3.9 1.9 5.7.6 1.8 1.1 3.3 1.4 4.6.3 1.3.4 2.2.5 3.2-2.1-.3-4.3-.6-7.3-.9-3.1-.3-7.1-.5-9.9-.7-2.8-.1-4.2 0-5.6 0zm12.9 13.7c.6-1.6 1.1-3.2 1.7-4.1.5-.9 1.1-1.2 2.2-1.4 1.1-.2 2.8-.4 4.1-.3 1.3.1 2.1.5 2.7 1 .6.5.9 1.2.9 2s-.3 1.6-.8 2.1-1.3.6-2.8.7c-1.4.1-3.5.2-4.9.1-1.5 0-2.3 0-3.1-.1zm-25.8 0c-.6-1.6-1.1-3.2-1.7-4.1-.5-.9-1.1-1.2-2.2-1.4-1.1-.2-2.8-.4-4.1-.3-1.3.1-2.1.5-2.7 1-.6.5-.9 1.2-.9 2s.3 1.6.8 2.1 1.3.6 2.8.7c1.4.1 3.5.1 4.9.1 1.5 0 2.3 0 3.1-.1z"/><path fill="#FFF" d="M37.1 57.9c-.6-1.6-1.1-3.2-1.7-4.1-.5-.9-1.1-1.2-2.2-1.4-1.1-.2-2.8-.4-4.1-.3-1.3.1-2.1.5-2.7 1-.6.5-.9 1.2-.9 2s.3 1.6.8 2.1 1.3.6 2.8.7c1.4.1 3.5.1 4.9.1 1.5 0 2.3 0 3.1-.1zM50 54.6c-4.2.1-8.4.1-12.6.2.2.4.4.8.5 1.3h24c.2-.4.4-.8.5-1.3-4 0-8.2-.1-12.4-.2zm0 3.2c-3.7 0-7.4.1-11.2.1-.1-.3-.2-.7-.4-1h23c-.1.3-.2.7-.4 1-3.6 0-7.3-.1-11-.1zm0 4.1h8.5c0 .6.1 1.2.1 1.6 0 .4 0 .6-.1.8h-17c0-.2-.1-.4-.1-.8s0-1 .1-1.6H50z"/><path fill="#00AFEE" d="M76 46.3c.1-.1.3-.3.4-.6.1-.3.2-.8.5-1.1.3-.3.8-.4 1.6-.5.8 0 2 0 2.9.2.9.2 1.4.5 1.7 1 .3.5.3 1.2.3 1.7-.1.5-.2.9-.5 1.2-.3.3-.8.5-1.4.7-.7.1-1.5.2-2.3.2h-1.9c-.5 0-.9 0-1.3-.1-.1-.7-.3-1.5-.4-2.2.1-.2.2-.4.4-.5zm-52 0c-.1-.1-.3-.3-.4-.6-.1-.3-.2-.8-.5-1.1-.3-.3-.8-.4-1.6-.5-.8 0-2 0-2.9.2-.9.2-1.4.5-1.7 1-.3.5-.3 1.2-.3 1.7.1.5.2.9.5 1.2.3.3.8.5 1.4.7.7.1 1.5.2 2.3.2h1.9c.5 0 .9 0 1.3-.1.1-.7.3-1.5.4-2.2-.1-.2-.2-.4-.4-.5z"/><path d="M76.7 49c-.4 1-.9 1.9-1.2 2.6-.3.7-.6 1.2-.9 1.5-.3.3-.6.5-.8.7M23.3 49c.4 1 .9 1.9 1.2 2.6.4.7.6 1.2.9 1.5.3.3.6.5.9.7m38.6 0c-3.1-.1-6.5-.3-8.9-.4-2.4-.1-4.2-.1-6-.1-1.8 0-3.5 0-6 .1-2.4.1-5.8.2-8.9.4m1.7 3.9c.3.5.8 1.2 1.2 1.4.4.2 1 .2 3 .2h18c2 0 2.6 0 3-.2.4-.2 1-1.2 1.3-1.7m-13.3 2c-8.2 0-16.4 0-20.6.1-4.2.1-4.5.2-4.7.6-.2.3-.4.9-.4 1.5s.2 1.4.6 2c.4.7.9 1.2 1.7 1.6.8.4 1.9.6 5.8.7 3.9.1 10.8.1 17.6.1 6.8 0 13.7 0 17.6-.1 3.9-.1 5-.3 5.8-.7.8-.4 1.3-1 1.7-1.6.4-.7.6-1.4.6-2 0-.6-.2-1.1-.4-1.5-.2-.3-.5-.5-4.7-.6-4.2-.1-12.4-.1-20.6-.1z" fill="none" stroke="#FFF" stroke-width=".75" stroke-miterlimit="22.926"/><path fill="#00AFEE" d="M66.7 66.9h7.2v4c0 .9-.7 1.6-1.6 1.6h-4c-.9 0-1.6-.7-1.6-1.6v-4zm-33.4 0h-7.2v4c0 .9.7 1.6 1.6 1.6h4c.9 0 1.6-.7 1.6-1.6v-4zm12.6-31.3V34h1.7v1.5h-1.7v.1zm0 7.2v-6.3h1.7v6.3h-1.7zm3.4 0V34H53c.9 0 1.6.1 2 .2.4.2.8.4 1 .8.3.4.4.9.4 1.4 0 .7-.2 1.2-.6 1.6-.4.4-1 .7-1.7.8.4.2.7.5.9.7.2.3.6.7 1 1.4l1.1 1.7H55l-1.3-1.9c-.5-.7-.8-1.1-.9-1.3-.2-.2-.3-.3-.5-.4-.2-.1-.5-.1-.9-.1H51v3.6h-1.7v.3zm1.7-5.1h1.3c.8 0 1.4 0 1.6-.1.2-.1.4-.2.5-.4.1-.2.2-.4.2-.7 0-.3-.1-.5-.2-.7-.2-.2-.4-.3-.7-.3H51v2.2z"/></g></svg>