<svg xmlns="http://www.w3.org/2000/svg" width="100" height="100" viewBox="0 0 100 100"><g fill-rule="evenodd" clip-rule="evenodd"><circle fill="#FFF" cx="50" cy="50" r="50"/><path fill="#00AFEE" d="M33.5 46.7h9.4c.4 0 .7.3.7.7v13.1c0 .4-.3.7-.7.7h-9.4c-.4 0-.7-.3-.7-.7V47.4c-.1-.4.3-.7.7-.7z"/><path fill="#00AFEE" d="M36.7 43.4h2.6v3.5h-2.6zm24.5 8h5.3c.4 0 .7.3.7.7v10.3c0 .4-.3.7-.7.7h-5.3c-.4 0-.7-.3-.7-.7V52.1c0-.4.3-.7.7-.7z"/><path fill="#00AFEE" d="M62.8 48.4h2.4v3.2h-2.4z"/><path fill="none" stroke="#00AFEE" stroke-width=".75" stroke-linejoin="round" stroke-miterlimit="22.926" d="M61.7 63.1h4.4v3.7h-4.4z"/><path fill="none" stroke="#00AFEE" stroke-width=".5" stroke-miterlimit="22.926" d="M63.7 63.1v1.1h-.4v.8h.9v1h-.5v.8"/><path fill="#00AFEE" d="M37.5 43.5h1.3c0-.3.1-1 .2-1.3.1-1.1.3-2.1.6-3.2.3-1.2.8-2.4 1.3-3.5.5-1 1.1-2 1.8-2.9.6-.8 1.4-1.5 2.2-2.1.8-.5 1.6-.9 2.6-1.2.9-.3 1.9-.4 2.8-.5 1 0 2 0 2.9.2 1 .2 2.1.6 3 1.1.9.5 1.7 1.1 2.4 1.8.8.8 1.4 1.7 2 2.6.6 1.1 1.2 2.3 1.6 3.4.3.9.6 1.9.8 2.9.2.8.3 1.6.3 2.4.1.9 0 1.8 0 2.7v2.4h1.3v-2.4c.1-1 .1-1.9 0-2.9 0-.9-.2-1.7-.3-2.6-.2-1-.5-2.1-.9-3.1-.5-1.3-1-2.5-1.7-3.7-.6-1-1.3-2-2.2-2.9-.8-.8-1.7-1.5-2.7-2.1-1-.6-2.2-.9-3.3-1.2-1.1-.2-2.2-.3-3.3-.3-1.1 0-2.1.2-3.1.5s-2 .8-2.9 1.4c-1 .6-1.8 1.4-2.5 2.4-.8 1-1.4 2-1.9 3.1-.6 1.2-1.1 2.5-1.4 3.8-.3 1.1-.5 2.2-.7 3.4-.1.7-.2 1.4-.2 1.8zm-.7 25.4c0-.7.1-1.3.3-1.8.2-.4.4-.7.7-1 .3-.3.6-.5.9-.6.4-.2.9-.3 1.5-.3 1 0 1.9.3 2.5 1 .6.6.9 1.5.9 2.7 0 1.1-.3 2-.9 2.7-.6.6-1.4 1-2.5 1-1 0-1.9-.3-2.5-1-.6-.7-.9-1.6-.9-2.7zm1.4 0c0 .8.2 1.4.6 1.8.4.4.8.6 1.4.6.6 0 1-.2 1.4-.6.4-.4.5-1 .5-1.8s-.2-1.4-.5-1.8c-.4-.4-.8-.6-1.4-.6-.6 0-1.1.2-1.4.6-.4.4-.6 1-.6 1.8zm8.1 3.5v-5.8h-2.1v-1.2h5.6v1.2h-2.1v5.8h-1.4zm7.6-2.6v-1.2h3v2.8c-.3.3-.7.5-1.3.8-.6.2-1.1.3-1.7.3-.7 0-1.4-.2-1.9-.5s-1-.8-1.2-1.3c-.3-.6-.4-1.2-.4-1.9s.2-1.4.5-1.9c.3-.6.8-1 1.3-1.3.4-.2 1-.3 1.7-.3.9 0 1.5.2 2 .5.5.4.8.9.9 1.5l-1.4.3c-.1-.3-.3-.6-.6-.8-.3-.2-.6-.3-1-.3-.6 0-1.1.2-1.5.6-.4.4-.5 1-.5 1.7 0 .8.2 1.5.6 1.9.4.4.9.6 1.5.6.3 0 .6-.1.9-.2.3-.1.6-.3.8-.4v-.9h-1.7z"/></g></svg>