<svg xmlns="http://www.w3.org/2000/svg" width="100" height="100" viewBox="0 0 100 100"><g fill-rule="evenodd" clip-rule="evenodd"><path fill="#FFF" d="M50 100c27.5 0 50-22.5 50-50S77.5 0 50 0 0 22.5 0 50s22.5 50 50 50z"/><g fill="#00AFEE"><path stroke="#00AFEE" stroke-width="1.5" stroke-miterlimit="22.926" d="M66.4 63.3c-.4-1.3-.7-2.9-1.1-5-.4-2.1-.9-4.7-1.8-7-.8-2.3-2-4.3-2.8-6.9-.9-2.6-1.5-5.7-2.1-8.5-.6-2.7-1.1-5-1.6-6.1-.6-1.1-1.2-1.1-1.7-.7-.5.4-.8 1.2-.8 2.6 0 1.4.4 3.3.9 5.1.4 1.9.8 3.7.9 4.8 0 1.1-.3 1.6-.6 1.6-.3.1-.6-.3-1.1-1.4-.5-1.1-1.1-3.1-2-5.3-.9-2.2-2-4.6-2.9-6.1-.9-1.6-1.6-2.3-2.3-2.7-.7-.4-1.4-.4-1.9-.1-.4.3-.6 1-.4 1.9.2 1 .8 2.3 1.7 4.2.9 1.9 2 4.4 2.8 6 .7 1.7 1.1 2.5 1.1 3.1.1.5-.2.7-.5.6-.3-.1-.8-.4-1.8-2s-2.6-4.5-3.9-6.7c-1.3-2.2-2.2-3.8-3-4.6-.8-.8-1.4-.8-1.9-.6-.5.2-.8.6-.8 1.5s.4 2.3 1.3 4.1c.9 1.8 2.2 3.9 3.2 5.6 1 1.7 1.7 2.9 2.1 3.8.4.9.6 1.6.4 2-.1.4-.6.4-1.1.1-.5-.3-1.1-1.1-2.2-2.7-1.2-1.6-3-4.1-4.2-5.7-1.2-1.6-1.9-2.2-2.5-2.5-.6-.3-1.2-.1-1.5.3-.3.4-.3 1.1-.1 2.1.3 1 .8 2.4 1.7 4 .9 1.7 2.1 3.7 3.6 5.7 1.4 2 3 4.1 4.1 5.7 1.1 1.5 1.6 2.5 1.9 3.5.3 1 .4 2 .1 2.6-.3.6-1 .8-2 .6-1-.3-2.2-1-3.2-1.5s-1.9-.8-2.9-1c-1-.1-2.2-.1-3.1.1-.9.2-1.5.7-1.8 1.2-.3.5-.4 1.1-.1 1.5.2.4.8.7 1.5.9.7.1 1.6.1 2.5.4.9.3 1.9.8 3.2 1.6 1.2.7 2.6 1.7 3.7 2.5s1.8 1.5 2.8 2c1 .5 2.4.8 3.9 1 1.4.2 2.9.2 4.1.4 1.2.2 2.1.5 2.9 1.1.8.5 1.5 1.3 2.2 2 2.9-1.9 5.8-3.8 8.8-5.7-.7-1-1.3-2.1-1.7-3.4z"/><path d="M73 48.7h-5.3V51H73c-.2 1.3-.5 2.6-1.2 3.9l11.7-5-11.7-5c.6 1.2 1 2.5 1.2 3.8zM27.8 51h5.3v-2.3h-5.3c.2-1.3.5-2.6 1.2-3.9l-11.7 5 11.7 5c-.6-1.2-1-2.5-1.2-3.8z"/></g></g></svg>