<svg xmlns="http://www.w3.org/2000/svg" width="100" height="100" viewBox="0 0 100 100"><g fill-rule="evenodd" clip-rule="evenodd"><circle fill="#FFF" cx="50" cy="50" r="50"/><path fill="none" stroke="#00AFEE" stroke-width=".75" stroke-linejoin="round" stroke-miterlimit="22.926" d="M26.3 42.9h22.3v.3l6.4-2.6c1.2-.5 2.7.1 3.2 1.3s-.1 2.7-1.3 3.2l-8.3 3.4v13.9c0 .4-.4.8-.8.8h-3.7V69c0 1.4-1.1 2.5-2.5 2.5s-2.5-1.1-2.5-2.5v-5.8h-3.4V69c0 1.4-1.1 2.5-2.5 2.5s-2.5-1.1-2.5-2.5v-5.8H27c-.4 0-.8-.4-.8-.8V42.9h.1zm3.3-14.1c-.5-.5-.5-1.3 0-1.7.5-.5 1.3-.5 1.7 0l2.2 2.2c1.2-.5 2.6-.7 3.9-.7 1.4 0 2.7.3 3.9.7l2.2-2.2c.5-.5 1.2-.5 1.7 0s.5 1.2 0 1.7l-1.7 1.7c3 2 4.9 5.3 4.9 9.2v.1H26.3v-.1c0-3.8 2-7.2 4.9-9.2l-1.6-1.7zm3.9.5c-.1 0-.1 0-.2.1l.2-.1zm-1.2.5c-.1 0-.1.1-.2.1l.2-.1zm-.2.2c-.1 0-.1.1-.2.1.1-.1.2-.1.2-.1zm-.2.1c-.1 0-.1.1-.2.1m0 0c-.1.1-.3.2-.4.3.1-.1.2-.2.4-.3zm12 .3c-.1 0-.1-.1-.2-.1 0 0 .1 0 .2.1zm-.2-.2c-.1 0-.1-.1-.2-.1 0 .1.1.1.2.1z"/><path fill="none" stroke="#00AFEE" stroke-width=".75" stroke-miterlimit="22.926" d="M23 55.8c0 1.4-1.1 2.5-2.5 2.5S18 57.2 18 55.8v-9.9c0-1.4 1.1-2.5 2.5-2.5s2.5 1.1 2.5 2.5v9.9z"/><circle fill="#00AFEE" cx="41.9" cy="35.2" r="1.6"/><circle fill="#00AFEE" cx="33" cy="35.2" r="1.6"/><g fill="none" stroke="#00AFEE" stroke-width=".75" stroke-linejoin="round" stroke-miterlimit="22.926"><path d="M67.8 48.3c-4.2-2.4-7.7-2.4-10.4 0-4.6 4.9-4.6 11.3 0 19.1 2.3 3.5 4.3 4.8 6.3 4 3.1-1.8 5.9-1.8 8.5 0 3.1 1.1 6.1-1.7 8.8-8.4-3-1.8-4.4-4-4.4-6.6-.2-3.1 1-5.4 3.7-6.8-3.2-4.4-8.3-3.8-12.5-1.3z"/><path d="M67.8 46.2c-.2-4 1.9-6.6 6.4-7.5-.1 4.5-2.2 7-6.4 7.5z"/></g></g></svg>