<svg xmlns="http://www.w3.org/2000/svg" width="100" height="100" viewBox="0 0 100 100"><g fill-rule="evenodd" clip-rule="evenodd"><path fill="#FFF" d="M50 100c27.5 0 50-22.5 50-50S77.5 0 50 0 0 22.5 0 50s22.5 50 50 50z"/><g fill="none" stroke="#00AFEE" stroke-miterlimit="22.926"><path d="M18.4 27.5h31.3v31.3H18.4zm31.9 0h31.3v31.3H50.3z" stroke-width=".75" stroke-linejoin="round"/><path d="M17.1 64.1h65.8m-65.8 8.4h65.8m-32.9 0l6.6-8.4m-7 8.4L43 64.1m22.1 8.4l-6.6-8.4m-24 8.4l6.6-8.4m24.4 8.4l6.6-8.4m-38 8.4l-6.6-8.4m53.2 8.4l-6.6-8.4M19 72.5l6.6-8.4m7-5.3h2.8v5.3h-2.8zm31.9 0h2.8v5.3h-2.8z" stroke-width=".75"/><path d="M18.4 49.7l9.1 9.1m-9.1-14.6L33 58.8M18.4 38.7l20.1 20.1M18.4 33.2L44 58.8M18.3 27.6C28.7 38 39.1 48.5 49.6 58.9m-26-31.4l26 26m-20.5-26l20.6 20.6M34.6 27.5l15.1 15.1m-9.6-15.1l9.6 9.6" stroke-width=".5"/></g></g></svg>