<svg xmlns="http://www.w3.org/2000/svg" width="100" height="100" viewBox="0 0 100 100"><g fill-rule="evenodd" clip-rule="evenodd"><circle fill="#FFF" cx="50" cy="50" r="50"/><path fill="none" stroke="#00AFEE" stroke-width="1.5" stroke-miterlimit="22.926" d="M52 51.7c-2.7 0-4.9 2.2-4.9 4.9v2.8h19.7v-2.8c0-2.7-2.2-4.9-4.9-4.9H52z"/><path fill="#00AFEE" stroke="#00AFEE" stroke-width=".75" stroke-miterlimit="22.926" d="M67.5 59.4c.9 0 1.6.6 1.7 1.5l.6 5.7c.1.5-.1.9-.4 1.3-.3.4-.8.6-1.3.6H45.9c-.5 0-.9-.2-1.3-.6-.3-.4-.5-.8-.4-1.3l.6-5.7c.1-.9.8-1.5 1.7-1.5h21zm-3.7 9.1H67v2.8c0 .7-.5 1.2-1.2 1.2H65c-.7 0-1.2-.5-1.2-1.2v-2.8zm-13.6 0H47v2.8c0 .7.5 1.2 1.2 1.2h.8c.7 0 1.2-.5 1.2-1.2v-2.8z"/><circle fill="#FFF" cx="65.3" cy="64.4" r="1.7"/><circle fill="#FFF" cx="48.7" cy="64.4" r="1.7"/><path fill="#00AFEE" stroke="#00AFEE" stroke-width=".75" stroke-miterlimit="22.926" d="M30.2 62.2V27.5h13.1c2.3 0 4.1.1 5.3.3 1.7.3 3.1.8 4.3 1.6 1.2.8 2.1 1.9 2.8 3.3.7 1.4 1.1 3 1.1 4.7 0 2.9-.9 5.4-2.8 7.5-1.9 2-5.3 3.1-10.2 3.1h-8.9v14.2h-4.7zM34.8 44h9c3 0 5.1-.5 6.3-1.7 1.2-1.1 1.9-2.7 1.9-4.7 0-1.4-.4-2.7-1.1-3.7-.7-1-1.7-1.7-2.9-2.1-.8-.2-2.2-.3-4.3-.3h-8.9V44z"/></g></svg>