<svg xmlns="http://www.w3.org/2000/svg" width="100" height="100" viewBox="0 0 100 100"><g fill-rule="evenodd" clip-rule="evenodd"><circle fill="#FFF" cx="50" cy="50" r="50"/><path fill="none" stroke="#00AFEE" stroke-width=".75" stroke-miterlimit="22.926" d="M16.7 27.7h66.5c1.1 0 2 .9 2 2v40.6c0 1.1-.9 2-2 2H16.7c-1.1 0-2-.9-2-2V29.7c.1-1.1.9-2 2-2z"/><path fill="none" stroke="#00AFEE" stroke-width=".75" stroke-miterlimit="22.926" d="M20.6 32.7h58.9c.5 0 .9.4.9.9V65c0 .5-.4.9-.9.9H20.6c-.5 0-.9-.4-.9-.9V33.7c-.1-.5.4-1 .9-1z"/><path fill="none" stroke="#00AFEE" stroke-width="1.5" stroke-miterlimit="22.926" stroke-dasharray="7.4991,1.4998" d="M25.2 57.9h49.6"/><path fill="#00AFEE" d="M28.3 53l-1 .8 1 .8h6.1l1-.8-1-.8h-6.1zm.5-12.8l-1 .8 1 .8h6.1l1-.8-1-.8h-6.1zm-.3 1.8l-.1 4.4-1 .8-1-.8.1-4.4 1-.8 1 .8zm8.3 6.4l-.1 4.4-1 .8-1-.8.1-4.4 1-.8 1 .8zm-8.1-1.8l-1 .8 1 .8h5.7l1-.8-1-.8h-5.7zM49.2 42l-1-.8-1 .8-.1 4.6 1 .8 1-.8.1-4.6zm-8.4 0l-1-.8-1 .8-.1 4.6 1 .8 1-.8.1-4.6zm8.3 6.1l-.1 4.7-1 .7-1-.7.1-4.7 1-.8 1 .8zm-8.4 0l-.1 4.7-1 .7-1-.7.1-4.7 1-.8 1 .8zm.2 4.9l-1 .8 1 .8h5.8l1-.8-1-.8h-5.8zm.2-12.8h5.8l1 .8-1 .8h-5.8l-1-.8 1-.8zm18.3 7.9l1-.8 1 .8-.1 5.7-1 .8-1-.8.1-5.7zm-8.4 0l1-.8 1 .8-.1 5.7-1 .8-1-.8.1-5.7zm8.5-7.2l-.1 5.7 1 .8 1-.8.1-5.7-1-.8-1 .8zm-8.4 0l-.1 5.7 1 .8 1-.8.1-5.7-1-.8-1 .8zm6.5 5.7l-4.1-4.5v-1.2h1.3l4.1 4.4v1.2h-1.3v.1zm8 0l-1 .8 1 .8h5.7l1-.8-1-.8h-5.7zm6.1-.3l.1-5.4 1-.8 1 .8-.1 5.4-1 .8-1-.8zm-8.5 0l.1-5.4 1-.8 1 .8-.1 5.4-1 .8-1-.8zm8.4 6.5l.1-4.4 1-.8 1 .8-.1 4.4-1 .8-1-.8zm-6.4.2l-1 .8 1 .8h6.1l1-.8-1-.8h-6.1z"/></g></svg>