<svg xmlns="http://www.w3.org/2000/svg" width="100" height="100" viewBox="0 0 100 100"><g fill-rule="evenodd" clip-rule="evenodd"><circle fill="#FFF" cx="50" cy="50" r="50"/><g stroke-width=".75" stroke-miterlimit="22.926"><path fill="#00AFEE" stroke="#00AFEE" d="M31.5 30.8c1.7-.2 3.6-.2 5.6 0l27.6 4.6c2.4.5 2.2 2.7.7 3.1l-6.3 1.8c-.3.1-.7.2-1 .3v9.6c-.2.2-.4.4-.8.4-.4.1-1.1 0-2.1.1s-2.3.4-3.3.8c-.9.3-1.5.7-2 .9-.1 0-.1.1-.2.1-.5.2-.9.1-1.5 0l1.2 3.4c.7.1 1.4.1 2.1.3.6.2 1.2.4 1.6.8.4.4.5 1 .7 1.5.6 0 1.2.1 1.5.3.4.2.5.5.6 1.2.1.6.1 1.5.2 2.6l.2 3.5 2 .4.2.1-.1 1-9.4 4.5c-.5 0-1 0-1.5.1-1.9.1-3.7.2-5.1.1-.8 0-1.4-.1-2-.2-.8-.1-1.6-.3-2.7-.7-1.9-.6-4.6-1.7-6.3-2.2-.1 0-.2-.1-.3-.1-1.4-.4-1.9-.4-2.4-.4l-.2-7.3c.4-.3.9-.6 1.2-.7.4-.1.7-.1 1-.1h.4c.2 0 .5.1.8.1.3-.3.6-.6.9-.7.3-.1.5-.2.6-.4.2-.2.3-.7.6-1.1.2-.2.4-.4.5-.6.2-.2.3-.4.5-.6.1-.2.1-.3.2-.5.1-.3.1-.7.1-1 .7-.3 1.5-.5 2.2-.9.7-.4 1.5-.9 2.2-1.5l.8-2.1h-4.7c-.3 0-.5-.1-.6-.2-.3-.2-.5-.4-.6-.8-.1-.2-.1-.4-.2-.6-.1-.2-.1-.4-.2-.6-.2-.4-.4-.6-.6-.8-.2-.2-.5-.2-.7-.3l.1-7.9c-.1-.2-.1-.4 0-.6.1-.2.2-.4.4-.5.2-.1.4-.2.7-.3.4-.1.9-.2 1.4-.3l-8.6-1.6c-1.9-.3-3.9-2.6-1.6-4.1.8-.5 1.6-.9 2.5-1.3-.1-.2-.2-.4-.4-.6-.3-.3-.8-.6-1-1-.2-.4-.2-1 .2-1.4.4-.4 1.1-.7 2-.8.9-.1 1.9 0 3 .1v3.1z"/><g fill="none" stroke="#FFF"><path d="M34.1 39c-.4.1-.7.1-1 .4-.2.2-.4.7-.2 1.1.2.4.7.8 1 1.2.3.4.4.9.7 1.2.4.3 1 .6 2.3.7 1.3.1 3.2.2 4.9.3 1.7.2 3.3.5 4.2.5.9 0 1-.3 1.3-.5.3-.2.7-.2 1-.1.4.1.7.3 1.2.4.5.1 1.1-.1 2-.3.8-.2 1.9-.6 3.1-.8 1.2-.2 2.7-.3 4.1-.4m-8.9 10.2c-.2 0-1.4-.5-1.7-.5-.5-.2-1.2-.5-2.4-.7-1.2-.2-2.8-.2-4.5-.2h-1.6c.1 1-.1 1.9 0 2.6.1.8.2 1.4.2 2 0 .6-.1 1.2-.2 1.6-.1.4-.2.7-.3 1-.1.2-.2.4-.3.5m10.8-15v9.1m-3.7-8.9v7.4m-11.7-9.2l-.1 9m1.4-8.2l.1 8.8M31 60.6c3.1.7 6.3 1.4 9.4 2.1 0 3.4 0 6.7-.1 10.1M31 60.2c0 3.2 0 6.4.1 9.6m9.4-7c.5 0 1.1.1 1.6 0s.9-.4 1.5-.6c.6-.1 1.4-.1 2 0 .7.1 1.3.3 1.9.4.3-.4.6-.7.8-1.2.2-.5.3-1.1.4-1.6.1-.5.1-.9.4-1.2.2-.3.7-.5 1.1-.7.5-.2 1.1-.4 1.6-.6.6-.2 1.1-.4 1.7-.5m-6 5.8v10.2m0-2.4l9.6-5.1"/><path d="M33.8 58c1.8.4 3.5.9 5.3 1.3-.1.2-.3.4-.4.6.7.1 1.3.2 2 .4l.3-.6c2.5.4 5 .9 7.5 1.3m-13.9-5.1l5.1.9"/><path d="M42.3 51.6c-.2.9-.4 1.7-.5 2.6-.1.9-.2 1.7-.2 2.4s0 1.3-.1 1.9c-.1.6-.5 1.2-.8 1.8m2.5-8.7c0 1.2 0 2.3.1 3.3 0 1 0 2-.1 2.8-.1.8-.3 1.5-.6 2.2m.6-2.2c2 .3 3.9.6 5.9.9m-5.8-6.1c.8.1 1.6.2 2.2.3.6.1 1.1.3 1.4.5.3.3.5.7.7 1.2.2.5.3 1.2.5 1.6.2.4.5.6 1 .8.5.2 1.2.4 1.9.6"/><ellipse transform="rotate(14.798 51.408 60.777)" cx="51.4" cy="60.8" rx="1.6" ry="1.8"/><path d="M31.5 35.7v-7.8c-1-.1-2.1-.2-3-.1-.9.1-1.6.4-2 .8-.4.4-.4 1-.2 1.4.2.4.7.7 1 1 .3.3.5.6.5.9-.1.3-.4.6-.7.9-.3.4-.6.8-.7 1.2-.1.4-.1.9-.1 1.3"/></g></g><path fill="#00AFEE" d="M73.5 28l-8.1 28.5 5.5-4.7-3.2 18 8.1-25.9-5.4 5z"/></g></svg>