<svg xmlns="http://www.w3.org/2000/svg" width="100" height="100" viewBox="0 0 100 100"><g fill-rule="evenodd" clip-rule="evenodd"><path fill="#FFF" d="M50 100c27.5 0 50-22.5 50-50S77.5 0 50 0 0 22.5 0 50s22.5 50 50 50z"/><path fill="none" stroke="#00AFEE" stroke-width=".75" stroke-miterlimit="22.926" d="M26.8 42.6h8v12.2c0 1.4 1.1 2.5 2.5 2.5H49c.3 0 .6-.1.8-.4l1-1.1h3.3l.6 1c.2.3.5.5.9.5h3l4.3-3.5h2.4v12.7c0 1.4-1.1 2.5-2.5 2.5H52.2L48 72.5h-3c-.4 0-.7-.2-.9-.5l-.6-1h-3.3l-1 1.1c-.2.2-.5.4-.8.4H26.8c-1.4 0-2.5-1.1-2.5-2.5V45.1c0-1.3 1.1-2.5 2.5-2.5z"/><g fill="#00AFEE"><path d="M32.4 61.9v-7.5c0-1.1.7-1.8 1.5-2 .3-.1.6-.2.9-.2.3 0 .6.1.9.2.2.1.4.2.5.3.2-.1.4-.2.5-.3.3-.1.6-.2.9-.2.3 0 .6.1.9.2.8.3 1.5 1 1.5 2.1V62h-1.9v-7.5c0-.1-.1-.3-.3-.3-.1 0-.2-.1-.3-.1h-.3c-.1 0-.2.2-.2.3v7.5h-1.9v-7.5c0-.1-.1-.2-.3-.3.2-.1.1-.1 0-.1h-.3c-.1 0-.2.2-.2.3v7.5h-1.9zm8.6-7.3h1.4v3.1H41z"/><ellipse cx="41.7" cy="53.4" rx=".9" ry=".8"/><path d="M46.8 54.3h-1.3c-.2 0-.4.1-.6.3-.2.2-.3.4-.3.7 0 .3.1.5.3.7.2.2.4.3.6.3h1.3v1.4h-1.3c-.6 0-1.2-.3-1.6-.7-.4-.4-.6-1-.6-1.7 0-.6.2-1.2.6-1.7.4-.4 1-.7 1.6-.7h1.3v1.4zm.5 3.4v-2.9c0-.9.5-1.5 1.1-1.8.3-.1.5-.2.8-.2.3 0 .5.1.8.2.6.3 1.2.9 1.2 1.8h-1.4c0-.3-.2-.5-.3-.6-.1 0-.2-.1-.3-.1-.1 0-.2 0-.2.1-.2.1-.3.3-.3.5v2.9h-1.4zm7-4.8c.7 0 1.3.3 1.7.7a2.413 2.413 0 0 1 0 3.4 2.413 2.413 0 0 1-3.4 0 2.413 2.413 0 0 1 0-3.4c.4-.4 1-.7 1.7-.7zm.7 1.7c-.2-.2-.4-.3-.7-.3-.3 0-.5.1-.7.3-.2.2-.3.4-.3.7 0 .3.1.5.3.7.2.2.4.3.7.3.3 0 .5-.1.7-.3.2-.2.3-.4.3-.7 0-.2-.1-.5-.3-.7zm-6.2 3.7c-1.6.1-3.2.1-4.3.2-1.1.1-1.6.3-2 .6-.4.3-.5.6-.5 1 0 .3.2.7.6.9.4.3 1.2.4 1.6.6.4.1.6.2.7.4.1.1.1.3-.1.4-.2.1-.6.1-1.3.1-.7 0-1.7-.1-2.7-.1-.2.5-.4 1-.6 1.6H44c1.1 0 1.8 0 2.3-.2.6-.2 1-.4 1.2-.8.2-.4.3-.8.2-1.2-.1-.4-.4-.7-1-.9-.6-.2-1.4-.3-1.9-.4-.5-.1-.8-.2-.9-.3-.1-.1-.2-.3-.1-.4.1-.1.3-.1 1.1-.2.8 0 2.3-.1 3.7-.1.2-.5.2-.8.2-1.2zm0 3.2c-.3.8-.5 1.5-.8 2.3.9 0 1.9-.1 2.8-.2.9-.1 1.9-.3 2.7-.5.8-.2 1.4-.5 2-.9.6-.4 1-.9 1.3-1.3.2-.4.2-.7 0-1-.2-.3-.5-.6-.7-.8-.3-.2-.5-.2-.7-.3-.6.3-1.1.6-1.6.8-.5.2-.9.3-1.4.5-.1.3-.2.6-.5.8-.3.3-.7.5-1.2.6h-1.9zm.9-3.2c-.1.4-.1.8-.2 1.1h1c.3 0 .4 0 .6.1.2-.2.5-.4.7-.6.2-.2.5-.4.7-.6-.5 0-1-.1-1.5-.1-.4 0-.8.1-1.3.1zm2 1.3c.7-.4 1.4-.8 2.2-1.2h.4c.1 0 .2.1.2.1l-2.4 1.2c-.1 0-.1-.1-.2-.1-.1.1-.1 0-.2 0z"/></g><path fill="#FFF" stroke="#00AFEE" stroke-width=".75" stroke-miterlimit="22.926" d="M37.3 27.5h36c1.4 0 2.5 1.1 2.5 2.5v21.4c0 1.4-1.1 2.5-2.5 2.5H62.8l-4.3 3.5h-3c-.4 0-.7-.2-.9-.5l-.6-1h-3.3l-1 1.1c-.2.2-.5.4-.8.4H37.3c-1.4 0-2.5-1.1-2.5-2.5V30c0-1.4 1.1-2.5 2.5-2.5z"/><g fill="#00AFEE"><path d="M43.1 45.6v-7.5c0-1.1.7-1.8 1.5-2 .3-.1.6-.2.9-.2.3 0 .6.1.9.2.2.1.4.2.5.3.2-.1.4-.2.5-.3.3-.1.6-.2.9-.2.3 0 .6.1.9.2.8.3 1.5 1 1.5 2.1v7.5H49v-7.5c0-.1-.1-.3-.3-.3-.1 0-.2-.1-.3-.1h-.3c-.1 0-.2.2-.2.3v7.5H46v-7.5c0-.1-.1-.2-.3-.3-.1 0-.2-.1-.3-.1h-.3c-.1 0-.2.2-.2.3v7.5h-1.8zm8.6-7.2h1.4v3.1h-1.4z"/><ellipse cx="52.5" cy="37.2" rx=".9" ry=".8"/><path d="M57.6 38.1h-1.3c-.2 0-.4.1-.6.3-.2.2-.3.4-.3.7 0 .3.1.5.3.7.2.2.4.3.6.3h1.3v1.4h-1.3c-.6 0-1.2-.3-1.6-.7-.4-.4-.6-1-.6-1.7 0-.6.2-1.2.6-1.7.4-.4 1-.7 1.6-.7h1.3v1.4zm.4 3.4v-2.9c0-.9.5-1.5 1.1-1.8.3-.1.5-.2.8-.2.3 0 .5.1.8.2.6.3 1.2.9 1.2 1.8h-1.4c0-.3-.2-.5-.3-.6-.1 0-.2-.1-.3-.1-.1 0-.2 0-.2.1-.2.1-.3.3-.3.5v2.9H58zm7.1-4.8c.7 0 1.3.3 1.7.7a2.413 2.413 0 0 1 0 3.4 2.413 2.413 0 0 1-3.4 0 2.413 2.413 0 0 1 0-3.4c.4-.4 1-.7 1.7-.7zm.7 1.7c-.2-.2-.4-.3-.7-.3-.3 0-.5.1-.7.3-.2.2-.3.4-.3.7 0 .3.1.5.3.7.2.2.4.3.7.3.3 0 .5-.1.7-.3.2-.2.3-.4.3-.7 0-.3-.1-.5-.3-.7zm-6.2 3.7c-1.6.1-3.2.1-4.3.2-1.1.1-1.6.3-2 .6-.4.3-.5.6-.5 1 0 .3.2.7.6.9.4.3 1.2.4 1.6.6.4.1.6.2.7.4.1.1.1.3-.1.4-.2.1-.6.1-1.3.1-.7 0-1.7-.1-2.7-.1-.2.5-.4 1-.6 1.6h3.8c1.1 0 1.8 0 2.3-.2.6-.2 1-.4 1.2-.8.2-.4.3-.8.2-1.2-.1-.4-.4-.7-1-.9-.6-.2-1.4-.3-1.9-.4-.5-.1-.8-.2-.9-.3-.1-.1-.2-.3-.1-.4.1-.1.3-.1 1.1-.2.8 0 2.3-.1 3.7-.1.1-.5.2-.9.2-1.2zm-.1 3.2c-.3.8-.5 1.5-.8 2.3.9 0 1.9-.1 2.8-.2.9-.1 1.9-.3 2.7-.5.8-.2 1.4-.5 2-.9.6-.4 1-.9 1.3-1.3.2-.4.2-.7 0-1-.2-.3-.5-.6-.7-.8s-.5-.2-.7-.3c-.6.3-1.1.6-1.6.8-.5.2-.9.3-1.4.5-.1.3-.2.6-.5.8-.3.3-.7.5-1.2.6h-1.9zm1-3.2c-.1.4-.1.8-.2 1.1h1c.3 0 .4 0 .6.1.2-.2.5-.4.7-.6.2-.2.5-.4.7-.6-.5 0-1-.1-1.5-.1-.4 0-.9.1-1.3.1zm2 1.3c.7-.4 1.4-.8 2.2-1.2h.4c.1 0 .2.1.2.1l-2.4 1.2c-.1 0-.1-.1-.2-.1h-.2z"/></g></g></svg>