<svg xmlns="http://www.w3.org/2000/svg" width="100" height="100" viewBox="0 0 100 100"><g fill-rule="evenodd" clip-rule="evenodd"><circle fill="#FFF" cx="50" cy="50" r="50"/><g stroke-miterlimit="22.926"><path fill="none" stroke="#00AFEE" stroke-width="2" d="M89.5 72.5H11.2"/><path fill="#00AFEE" stroke="#FFF" stroke-width=".75" d="M16.1 27.5H84v3.2H16.1zm16.6 3.2h35.1v41.8H32.7z"/><path fill="#FFF" stroke="#00AFEE" stroke-width=".75" d="M34.8 33h31v39.5h-31z"/><path fill="#00AFEE" stroke="#FFF" stroke-width=".75" d="M58.4 30.7h17.9v41.8H58.4zm-34.1 0h17.9v41.8H24.3z"/><path fill="#FFF" stroke="#00AFEE" stroke-width=".75" d="M59.5 31.3h15.7v40.5H59.5zm-34.1 0h15.7v40.5H25.4z"/><path fill="#00AFEE" stroke="#FFF" stroke-width=".5" d="M46.8 28.7h7v2.9h-7z"/><path d="M47.4 32.2h5.8l15.9 39.6H31.6zm2.9 0v40.3m1.2-40.3l11.4 39.6M49.1 32.2L37.7 71.8m12.6-39.6l5.5 39.6m-5.5-39.6l-5.5 39.6" fill="none" stroke="#F00" stroke-width=".75"/></g><path fill="none" stroke="#00AFEE" stroke-width="2" stroke-miterlimit="22.926" d="M24.1 25l52 52m-52 0l52-52"/></g></svg>