<svg xmlns="http://www.w3.org/2000/svg" width="100" height="100" viewBox="0 0 100 100"><g fill-rule="evenodd" clip-rule="evenodd"><path fill="#00AFEE" d="M50 100c27.5 0 50-22.5 50-50S77.5 0 50 0 0 22.5 0 50s22.5 50 50 50z"/><g fill="none" stroke="#FFF" stroke-miterlimit="22.926"><path stroke-width=".75" d="M37.4 43.4c-4 0-7.3 2.7-7.3 6v3.5h29.6v-3.5c0-3.3-3.3-6-7.3-6h-15zm23.3 9.5c1.3 0 2.4.9 2.5 2l.9 7.7c.1.7-.1 1.3-.6 1.8s-1.2.8-1.9.8H28.1c-.8 0-1.4-.3-1.9-.8s-.7-1.1-.6-1.8l.9-7.7c.1-1.2 1.2-2 2.5-2h31.7z"/><path stroke-width=".75" d="M55.1 65.1h4.8v5.6c0 1-.8 1.8-1.8 1.8H57c-1 0-1.8-.8-1.8-1.8v-5.6zm-20.5 0h-4.8v5.6c0 1 .8 1.8 1.8 1.8h1.1c1 0 1.8-.8 1.8-1.8v-5.6zm22.7-3.2c1.4 0 2.6-1.2 2.6-2.6 0-1.4-1.2-2.6-2.6-2.6-1.4 0-2.6 1.2-2.6 2.6 0 1.4 1.2 2.6 2.6 2.6zm-24.9 0c1.4 0 2.6-1.2 2.6-2.6 0-1.4-1.2-2.6-2.6-2.6-1.4 0-2.6 1.2-2.6 2.6 0 1.4 1.1 2.6 2.6 2.6z"/><path d="M54.8 39.3c-.2 0-.4-.2-.4-.4s.2-.4.4-.4c1 0 2.1.2 3 .5.9.3 1.8.8 2.6 1.4.8.6 1.5 1.3 2 2.2.5.8 1 1.8 1.3 2.8.1.2-.1.4-.3.5-.2.1-.4-.1-.5-.3-.3-.9-.7-1.8-1.2-2.6s-1.1-1.4-1.8-2c-.7-.6-1.5-1-2.4-1.3-.8-.2-1.7-.3-2.7-.4zm14.4 5c.1.2-.1.4-.3.5-.2.1-.4-.1-.5-.3-.4-1.6-1.1-3-1.9-4.3-.9-1.3-1.9-2.5-3.2-3.4-1.2-1-2.6-1.7-4.1-2.2-1.5-.5-3-.8-4.7-.8-.2 0-.4-.2-.4-.4s.2-.4.4-.4c1.7 0 3.3.3 4.9.9 1.6.5 3 1.3 4.3 2.4 1.3 1 2.4 2.2 3.3 3.6 1 1.3 1.7 2.8 2.2 4.4zm5.2-1.3c.1.2-.1.4-.3.5-.2.1-.4-.1-.5-.3-.6-2.1-1.6-4-2.8-5.8-1.2-1.8-2.7-3.3-4.4-4.7-1.7-1.3-3.6-2.4-5.6-3.1-2-.7-4.1-1.2-6.3-1.3-.2 0-.4-.2-.4-.4s.2-.4.4-.4c2.2.1 4.5.6 6.5 1.3 2.1.8 4.1 1.9 5.8 3.2 1.8 1.4 3.3 3 4.6 4.9 1.4 1.9 2.4 3.9 3 6.1z" stroke-width=".5"/></g></g></svg>