<svg xmlns="http://www.w3.org/2000/svg" width="100" height="100" viewBox="0 0 100 100"><g fill-rule="evenodd" clip-rule="evenodd"><path fill="#00AFEE" d="M50 100c27.5 0 50-22.5 50-50S77.5 0 50 0 0 22.5 0 50s22.5 50 50 50z"/><g fill="none" stroke="#FFF" stroke-width=".75" stroke-miterlimit="22.926"><path d="M40.2 63.4L67 51.8c.5-.2.7-.8.5-1.2l-9.7-22.5c-.2-.5-.8-.7-1.2-.5L29.8 39.1c-.5.2-.7.8-.5 1.2L39 62.9c.2.4.7.7 1.2.5z"/><path stroke-linejoin="round" d="M28.506 60.259L23.53 48.682l4.135-1.777 4.974 11.577z"/><path d="M51.6 68.3h12.1v4.2H70V59.1h-6.3v3.4h-6.1v-6.6l-6 2.6zM32.5 47.8l2.8 6.6-3.2 2.7-3.8-8.8zm17.6-12.6l1.5 3.6c.2.4.7.6 1.1.4l4.6-2c.4-.2.6-.7.4-1.1l-1.5-3.6c-.2-.4-.7-.6-1.1-.4l-4.6 2c-.4.2-.6.6-.4 1.1z"/></g></g></svg>