<svg xmlns="http://www.w3.org/2000/svg" viewBox="0 0 100 100"><style>.st0{fill:#00b0f0}.st1{fill:#fff}</style><path class="st0" d="M50 100c27.5 0 50-22.5 50-50S77.5 0 50 0 0 22.5 0 50s22.5 50 50 50z" fill="#00b0f0" id="Слой_2"/><g id="иконка"><path class="st1" d="M80.9 78.6H19.1c-1.2 0-2.1-.9-2.1-2.1V34.6c0-1.2.9-2.1 2.1-2.1h3.5v.8h-3.5c-.7 0-1.3.6-1.3 1.3v41.9c0 .7.6 1.3 1.3 1.3h61.8c.7 0 1.3-.6 1.3-1.3V34.6c0-.7-.6-1.3-1.3-1.3h-3.5v-.8h3.5c1.2 0 2.1.9 2.1 2.1v41.9c0 1.2-1 2.1-2.1 2.1z" fill="#fff"/><path class="st1" d="M49 76.7c-6.1 0-14.2-4-18.3-15.6l-7.4-22.9c-1.2-4.5-1.7-8.1-1.6-10.7.2-2.2.9-2.4 3.2-3l.3-.1c9.1-2.3 19.3-2.8 24.6-2.9 5.3.1 15.5.7 24.6 2.9l.3.1c2.4.6 3.1.8 3.2 3 .2 2.6-.3 6.2-1.5 10.7L69 61.1C65 73.2 56.2 77 50 76.6c-.3 0-.6.1-1 .1zm1-54.6c-5.2.1-15.4.6-24.4 2.9l-.3.1c-2.3.6-2.6.6-2.7 2.3-.2 2.5.4 6.1 1.5 10.4l7.4 22.9C35.6 72.6 44 76.3 50 75.9c6 .4 14.4-3.3 18.5-15.1l7.4-22.9c1.2-4.3 1.7-7.9 1.5-10.4-.1-1.7-.4-1.7-2.7-2.3l-.3-.1c-9-2.3-19.2-2.8-24.4-3z" fill="#fff"/><path class="st1" d="M23.4 36.4l-.2-.7c14.1-4 28-5 41.2-2.9l-.1.7c-13.2-2-27-1.1-40.9 2.9zm53.2 0c-.8-.3-1.7-.5-2.6-.7l.2-.7c.8.2 1.7.5 2.6.8l-.2.6zM22.3 28l-.2-.7c19.2-5.7 38-5.7 55.8 0l-.2.7c-17.7-5.7-36.3-5.7-55.4 0z" fill="#fff"/><path class="st1" d="M69.4 39c-3 0-5.5-2.5-5.5-5.5s2.5-5.5 5.5-5.5 5.5 2.5 5.5 5.5-2.5 5.5-5.5 5.5zm0-10.3c-2.6 0-4.7 2.1-4.7 4.7s2.1 4.7 4.7 4.7 4.7-2.1 4.7-4.7c0-2.5-2.1-4.7-4.7-4.7z" fill="#fff"/><path class="st1" d="M69.9 35.3c-1.6 0-2.9-1.3-2.9-2.9s1.3-2.9 2.9-2.9 2.9 1.3 2.9 2.9-1.3 2.9-2.9 2.9zm0-5.1c-1.2 0-2.2 1-2.2 2.2s1 2.2 2.2 2.2 2.2-1 2.2-2.2-1-2.2-2.2-2.2zM50 69.3c-6.9 0-12.6-5.6-12.6-12.6S43.1 44.1 50 44.1c6.9 0 12.6 5.6 12.6 12.6S56.9 69.3 50 69.3zm0-24.4c-6.5 0-11.8 5.3-11.8 11.8 0 6.5 5.3 11.8 11.8 11.8s11.8-5.3 11.8-11.8c0-6.5-5.3-11.8-11.8-11.8z" fill="#fff"/><path class="st1" d="M50 68.2c-6.3 0-11.5-5.1-11.5-11.5 0-6.3 5.1-11.5 11.5-11.5 6.3 0 11.5 5.1 11.5 11.5 0 6.3-5.2 11.5-11.5 11.5zM50 46c-5.9 0-10.7 4.8-10.7 10.7S44.1 67.4 50 67.4s10.7-4.8 10.7-10.7S55.9 46 50 46z" fill="#fff"/><path class="st1" d="M50 63.2c-3.6 0-6.5-2.9-6.5-6.5s2.9-6.5 6.5-6.5 6.5 2.9 6.5 6.5-2.9 6.5-6.5 6.5zM50 51c-3.1 0-5.7 2.6-5.7 5.7s2.6 5.7 5.7 5.7 5.7-2.6 5.7-5.7S53.1 51 50 51z" fill="#fff"/><path class="st1" d="M50 62c-2.9 0-5.3-2.4-5.3-5.3s2.4-5.3 5.3-5.3 5.3 2.4 5.3 5.3S52.9 62 50 62zm0-9.9c-2.5 0-4.6 2-4.6 4.6s2 4.6 4.6 4.6c2.5 0 4.6-2 4.6-4.6s-2.1-4.6-4.6-4.6z" fill="#fff"/><path class="st1" d="M50 60.7c-2.2 0-4-1.8-4-4s1.8-4 4-4 4 1.8 4 4-1.8 4-4 4zm0-7.3c-1.8 0-3.3 1.5-3.3 3.3S48.2 60 50 60c1.8 0 3.3-1.5 3.3-3.3s-1.5-3.3-3.3-3.3z" fill="#fff"/></g></svg>