<svg id="макет" xmlns="http://www.w3.org/2000/svg" viewBox="0 0 100 100"><style>.st0{fill:#00afee}.st1{fill:#fff}</style><circle class="st0" cx="50" cy="50" r="50" fill="#00afee"/><path class="st1" d="M45.7 72.3h-.2l-15.8-7.8c-.1-.1-.2-.2-.2-.3v-17h.8v16.7l15.4 7.6 21.5-10.6-.3-11.9h.8l.3 12.1c0 .1-.1.3-.2.3L45.9 72.2c-.1.1-.1.1-.2.1z" fill="#fff"/><path class="st1" d="M53.4 56.5l-7.7-.9c-.1 0-.2-.1-.3-.2l-3.2-6.8-14.4-7.4 2.6 5.8c.1.2 0 .4-.1.5-.2.1-.4.1-.5-.1L23.4 41c-.1-.1-.1-.2-.1-.3 0-.1.1-.2.2-.3l21.7-10.9c.1-.1.3 0 .4.1l5.8 6.1 4.6-8.9c.1-.2.3-.3.5-.2l15.7 7.7c.1 0 .2.1.2.2v.3l-4.7 9 7.4 1.1c.2 0 .3.2.3.3s-.1.3-.2.4L53.6 56.4c-.1.1-.1.1-.2.1zm-7.5-1.6l7.4.9 20.5-10.2-6.7-1c-.1 0-.2-.1-.3-.2s-.1-.2 0-.3l4.7-9.2-15-7.4-4.6 9.1c-.1.1-.2.2-.3.2-.1 0-.2 0-.3-.1l-6-6.3-21 10.5 4.4 4.6-2.1-4.8c-.1-.1 0-.3.1-.4.1-.1.3-.1.4-.1L42.6 48c.1 0 .1.1.2.2l3.1 6.7z" fill="#fff"/><path class="st1" d="M45.7 55.6h-.2l-15.8-8 .3-.7 15.6 7.9 20.7-10.7-14.8-7.4-16.2 8.2-.3-.6L51.4 36c.1-.1.2-.1.3 0l15.6 7.8c.1.1.2.2.2.3s-.1.3-.2.3L45.9 55.5c-.1.1-.1.1-.2.1z" fill="#fff"/><path class="st1" fill="#fff" d="M45.3 55.2h.8v16.7h-.8zM51 40.4v8.3m-1.5-8.3h3v8.3h-3z"/><path class="st1" fill="#fff" d="M46.8 44.5h8.4M46.8 43h8.4v3h-8.4z"/></svg>