<svg xmlns="http://www.w3.org/2000/svg" width="100" height="100" viewBox="0 0 100 100"><g fill-rule="evenodd" clip-rule="evenodd"><path fill="#FFF" d="M50 100c27.5 0 50-22.5 50-50S77.5 0 50 0 0 22.5 0 50s22.5 50 50 50z"/><g fill="none" stroke="#00AFEE" stroke-width=".75" stroke-miterlimit="22.926"><path stroke-linejoin="round" d="M47.6 46.2l2.1-1.6c.5-.4 1.3-.3 1.7.2l5.5 7.4 3.1.5-2.5.9-1.2 1.9-2.1.6-1.6 2.2.4-3.1-5.5-7.4c-.6-.5-.4-1.2.1-1.6zm4.6-7.8l5.7-4.3c.2-.1.5-.1.6.1l2.3 3.1c.1.2.1.5-.1.6L55 42.2c-.2.1-.5.1-.6-.1L52.1 39c-.1-.2-.1-.5.1-.6zm7.4 9.8l5.7-4.3c.2-.1.2-.4.1-.6l-2.3-3.1c-.1-.2-.4-.2-.6 0l-5.7 4.3c-.2.1-.2.4-.1.6l2.3 3.1c.2.1.4.2.6 0zm7-20.6l-5.7 4.3c-.2.1-.2.4-.1.6l2.3 3.1c.1.2.4.2.6.1l5.7-4.3c.2-.1.2-.4.1-.6l-2.3-3.1c-.1-.2-.4-.3-.6-.1zm7.5 9.8l-5.7 4.3c-.2.1-.5.1-.6-.1l-2.3-3.1c-.1-.2-.1-.5.1-.6l5.7-4.3c.2-.1.5-.1.6.1l2.3 3.1c.1.2.1.5-.1.6zm-33.7 9.8l-5.7 4.3c-.2.1-.2.4-.1.6l2.3 3.1c.1.2.4.2.6.1l5.7-4.3c.2-.1.2-.4.1-.6L41 47.3c-.2-.2-.4-.2-.6-.1zm7.4 9.8l-5.7 4.3c-.2.1-.5.1-.6-.1l-2.3-3.1c-.1-.2-.1-.5.1-.6l5.7-4.3c.2-.1.5-.1.6.1l2.3 3.1c.1.2.1.5-.1.6zm-21.9.8l5.7-4.3c.2-.1.5-.1.6.1l2.3 3.1c.1.2.1.5-.1.6l-5.7 4.3c-.2.1-.5.1-.6-.1l-2.3-3.1c-.1-.2-.1-.4.1-.6zm7.5 9.9l5.7-4.3c.2-.1.2-.4.1-.6l-2.3-3.1c-.1-.2-.4-.2-.6-.1l-5.7 4.3c-.2.1-.2.4-.1.6l2.3 3.1c.1.2.4.2.6.1z"/><path stroke-linecap="round" d="M64.9 56.7c-.7 2.2-2.1 4.1-3.9 5.4-1.8 1.4-4 2.1-6.3 2.2M68.5 58c-.9 2.9-2.7 5.4-5.1 7.1-2.4 1.9-5.3 2.9-8.3 3m17.7-8.5c-1.2 3.7-3.5 6.9-6.6 9.2-3.1 2.3-6.8 3.6-10.7 3.7"/></g></g></svg>