<svg xmlns="http://www.w3.org/2000/svg" width="100" height="100" viewBox="0 0 100 100"><g fill-rule="evenodd" clip-rule="evenodd"><path fill="#FFF" d="M50 100c27.5 0 50-22.5 50-50S77.5 0 50 0 0 22.5 0 50s22.5 50 50 50z"/><path fill="none" stroke="#00AFEE" stroke-width=".75" stroke-miterlimit="22.926" d="M14 72.5h56.5c2.3 0 4.3-1.3 5.1-3.4l14.7-35.3c.6-1.4.5-3-.4-4.3-.9-1.3-2.2-2-3.8-2H29.6c-2.3 0-4.3 1.3-5.1 3.4L9.8 66.2c-.6 1.4-.5 3 .4 4.3.8 1.3 2.2 2 3.8 2z"/><path fill="#00AFEE" d="M28.9 49.6l6.9-14.1h11.8l-1.2 2.4h-8.6L36.3 41h8l-1.2 2.4h-8l-1.9 3.8h8.9L41 49.6H28.9zm13.2 0H46l5.9-4.8 1.2 4.8H57l-2-7.4 8.3-6.8h-3.8l-5.2 4.2-1.1-4.2h-3.8l1.7 6.8-9 7.4zm23.3-14.2h5.9c1.3 0 2.3.1 2.9.3.8.2 1.4.7 1.8 1.3.4.6.5 1.4.4 2.3-.1.9-.5 2-1.1 3.3-.6 1.2-1.2 2.2-2 3-.9 1-1.9 1.9-2.9 2.5-.8.5-1.7.9-2.8 1.1-.8.2-1.8.3-3 .3h-6l6.8-14.1zm2.1 2.4h1.4c1.3 0 2.2 0 2.6.1.5.1.9.3 1.2.7.2.3.3.8.2 1.4-.1.6-.4 1.4-.9 2.5s-1.1 2-1.6 2.6c-.5.6-1 1.1-1.5 1.4-.5.3-1 .5-1.6.6-.4.1-1.1.1-2 .1h-2.4l4.6-9.4zm-39.6 25l2.6-7.2H32l-.9 4.9 2.7-4.9h1.5l-2.6 7.2h-.9l2.1-5.7-3.1 5.7h-1l1.1-5.7-2.1 5.7h-.9zm8.4-3.5c.3-.7.6-1.4.9-1.9.2-.4.5-.7.8-1 .3-.3.6-.5.9-.7.4-.2.8-.3 1.2-.3.7 0 1.2.3 1.4 1 .2.7.1 1.6-.3 2.8-.4 1.2-1 2.1-1.7 2.8-.7.7-1.4 1-2.1 1-.7 0-1.2-.3-1.4-1-.2-.7-.1-1.6.3-2.7zm1.1-.1c-.3.8-.4 1.4-.3 1.9.1.4.4.6.8.6s.8-.2 1.2-.6c.4-.4.8-1.1 1.1-1.9.3-.8.4-1.5.3-1.9-.1-.4-.4-.6-.8-.6s-.8.2-1.2.6c-.5.4-.8 1.1-1.1 1.9zm7.4-3.6h1.9c.4 0 .7 0 .9.1.2.1.4.3.5.7.1.3.1.7.1 1.2-.1.5-.2 1-.5 1.7-.2.6-.5 1.1-.7 1.5-.3.5-.6 1-1 1.3l-.9.6c-.3.1-.6.2-1 .2h-1.9l2.6-7.3zm.5 1.2l-1.7 4.8h.8c.3 0 .5 0 .6-.1.2-.1.4-.2.5-.3.2-.1.3-.4.5-.7.2-.3.4-.8.6-1.3.2-.6.3-1 .4-1.3v-.7c-.1-.2-.2-.3-.3-.3-.1 0-.4-.1-.8-.1h-.6zm6-1.2h1l-1.4 3.9c-.2.6-.4 1-.4 1.2-.1.3 0 .5 0 .7.1.2.3.3.6.3s.5-.1.7-.3c.2-.2.4-.4.5-.6.1-.2.3-.7.5-1.2l1.5-4h1l-1.4 3.8c-.3.9-.6 1.5-.8 1.8-.2.4-.4.7-.6.9-.2.2-.5.4-.8.6-.3.1-.6.2-1 .2-.5 0-.8-.1-1-.2-.2-.2-.3-.4-.4-.6-.1-.3 0-.5 0-.8.1-.4.3-1 .6-1.8l1.4-3.9zm3.9 7.2h3.5l.4-1.2h-2.5l2.2-6h-1l-2.6 7.2zm5.7 0l2.6-7.2h3.7l-.4 1.2h-2.7l-.6 1.6H66l-.4 1.2h-2.5l-.7 2h2.8l-.4 1.2h-3.9z"/></g></svg>