<svg xmlns="http://www.w3.org/2000/svg" width="100" height="100" viewBox="0 0 100 100"><g fill-rule="evenodd" clip-rule="evenodd"><path fill="#FFF" d="M50 100c27.5 0 50-22.5 50-50S77.5 0 50 0 0 22.5 0 50s22.5 50 50 50z"/><path fill="#00AFEE" d="M23.5 67.6l1.3-.1c.1.4.2.8.5 1 .2.2.6.3 1 .3s.8-.1 1-.3c.2-.2.3-.4.3-.6 0-.2 0-.3-.1-.4-.1-.1-.3-.2-.5-.3-.2-.1-.5-.2-1.1-.3-.7-.2-1.2-.4-1.5-.7-.4-.4-.6-.8-.6-1.3 0-.3.1-.7.3-.9.2-.3.5-.5.8-.7.4-.2.8-.2 1.3-.2.8 0 1.5.2 1.9.6.4.4.6.9.7 1.5h-1.3c-.1-.3-.2-.6-.4-.7-.2-.1-.5-.2-.8-.2-.4 0-.7.1-.9.2-.1.1-.2.2-.2.4s.1.3.2.4c.2.1.6.3 1.2.4.6.2 1.1.3 1.4.5.3.2.6.4.7.7.2.3.3.6.3 1.1 0 .4-.1.7-.3 1.1-.2.3-.5.6-.9.7-.4.2-.9.2-1.4.2-.8 0-1.5-.2-1.9-.6-.6-.5-.9-1-1-1.8zm6.5 2.2v-6.6h1.3v6.6H30zm5.7-2.4v-1.1h2.9v2.6c-.3.3-.7.5-1.2.7-.5.2-1.1.3-1.6.3-.7 0-1.3-.1-1.8-.4-.5-.3-.9-.7-1.2-1.2-.3-.5-.4-1.1-.4-1.8s.1-1.3.4-1.8c.3-.5.7-.9 1.3-1.2.4-.2 1-.3 1.6-.3.8 0 1.5.2 1.9.5.5.3.8.8.9 1.4l-1.3.2c-.1-.3-.3-.6-.5-.8-.3-.2-.6-.3-1-.3-.6 0-1 .2-1.4.6-.3.4-.5.9-.5 1.6 0 .8.2 1.4.5 1.8.3.4.8.6 1.4.6.3 0 .6-.1.8-.2.3-.1.5-.2.7-.4v-.8h-1.5zm4.1 2.4v-6.6h1.3l2.7 4.4v-4.4H45v6.6h-1.3L41 65.4v4.3h-1.2v.1zm12.6 0H51l-.6-1.5h-2.7l-.5 1.5h-1.4l2.6-6.6h1.4l2.6 6.6zM50 67.2l-.9-2.4-.9 2.4H50zm3.9 2.6h1.3v-5.5h1.9v-1.1H52v1.1h2v5.5h-.1zm4.2-6.6h1.3v4.7c.1.3.2.5.4.7.2.2.5.2.9.2s.7-.1.8-.2c.2-.2.3-.3.3-.6 0-.2.1-.6.1-1.1v-3.7h1.3v3.5c0 .8 0 1.4-.1 1.7-.1.3-.2.6-.4.8-.2.2-.5.4-.8.5-.3.1-.7.2-1.3.2-.6 0-1.1-.1-1.4-.2-.3-.1-.6-.3-.8-.6-.2-.2-.3-.5-.4-.7-.1-.4-.1-.9-.1-1.7v-3.5h.2zm6.7 6.6v-6.6h2.8c.7 0 1.2.1 1.5.2.3.1.6.3.8.6.2.3.3.7.3 1 0 .5-.1.9-.4 1.2-.3.3-.7.5-1.3.6.3.2.5.4.7.6.2.2.4.6.8 1.1l.8 1.3h-1.6l-1-1.4c-.3-.5-.6-.8-.7-1-.1-.1-.3-.2-.4-.3-.1 0-.4-.1-.7-.1h-.3v2.8h-1.3zm1.3-3.8h1c.6 0 1 0 1.2-.1.2-.1.3-.1.4-.3.1-.1.1-.3.1-.5s-.1-.4-.2-.5c-.1-.1-.3-.2-.5-.3h-2V66zm5.3 3.8v-6.6h4.9v1.1h-3.6v1.5H76v1.1h-3.3v1.8h3.7v1.1h-5z"/><path fill="none" stroke="#00AFEE" stroke-width=".75" stroke-linejoin="round" stroke-miterlimit="22.926" d="M30.7 57.9H58c1.3 0 2.4-.7 2.9-1.9l1.4-3.2H39.4L52.7 34H36.1l-8.3 19.6c-.4 1-.3 2.1.3 3 .6.8 1.5 1.3 2.6 1.3zM64 48.6l8.2-19.3c.4-1 .3-2.1-.3-3-.6-.9-1.5-1.4-2.6-1.4H42c-1.3 0-2.4.7-2.9 1.9l-1.2 2.8h23.2l-13 19H64z"/></g></svg>