<svg xmlns="http://www.w3.org/2000/svg" width="100" height="100" viewBox="0 0 100 100"><g fill-rule="evenodd" clip-rule="evenodd"><circle fill="#FFF" cx="50" cy="50" r="50"/><path fill="none" stroke="#00AFEE" stroke-width=".75" stroke-miterlimit="22.926" d="M16.7 27.7h66.5c1.1 0 2 .9 2 2v40.6c0 1.1-.9 2-2 2H16.7c-1.1 0-2-.9-2-2V29.7c.1-1.1.9-2 2-2z"/><path fill="none" stroke="#00AFEE" stroke-width=".75" stroke-miterlimit="22.926" d="M20.5 33.3h58.9c.5 0 .9.4.9.9v31c0 .5-.4.9-.9.9H20.5c-.5 0-.9-.4-.9-.9v-31c0-.5.4-.9.9-.9z"/><path fill="none" stroke="#00AFEE" stroke-width="1.5" stroke-miterlimit="22.926" stroke-dasharray="7.4991,1.4998" d="M25.3 57.9h50.8"/><path fill="#00AFEE" d="M37.9 42l-1-.8-1 .8-.1 4.6 1 .8 1-.8.1-4.6zm-8.4 0l-1-.8-1 .8-.1 4.6 1 .8 1-.8.1-4.6zm8.3 6.1l-.1 4.7-1 .7-1-.7.1-4.7 1-.8 1 .8zm-8.4 0l-.1 4.7-1 .7-1-.7.1-4.7 1-.8 1 .8zm.2 4.9l-1 .8 1 .8h5.8l1-.8-1-.8h-5.8zm.2-12.8h5.8l1 .8-1 .8h-5.8l-1-.8 1-.8zm9.8 7.9l-.1 6.2 2-1.5.1-4.6-1-.8-1 .7zm.1-7.2l1-.8 1 .8-.1 5.7-1 .8-1-.8.1-5.7zM48 53l1 .8-1 .8h-8.1l2-1.5H48V53zm5.3-6.4l-1 .8 1 .8h6.1l1-.8-1-.8h-6.1zm-.1 6.4l-2 1.5h8.1l1-.8-1-.8h-6.1v.1zm6.2-12.8h-8.1l2 1.5h6.1l1-.8-1-.7zM53 42l-.1 4.4-1 .8-1-.8.1-5.9 2 1.5zm-2.1 6.4l1-.8 1 .8-.1 4.4-2 1.6.1-6zm11.2-.3l-.1 6.2 2-1.5.1-4.6-1-.8-1 .7zm2.2-6.1l-.1 4.6-1 .8-1-.8.1-6.2 2 1.6zm6.1-1.8h-7.8l2 1.5h5.7l1-.8-.9-.7zm-6 12.8h5.7l1 .8-1 .8h-7.8l2.1-1.6zm6.2-4.9l-.1 4.6 1 .8 1-.8.1-4.6-1-.8-1 .8zm.1-6.1l1-.8 1 .8-.1 4.6-1 .8-1-.8.1-4.6z"/></g></svg>