<svg xmlns="http://www.w3.org/2000/svg" width="100" height="100" viewBox="0 0 100 100"><g fill-rule="evenodd" clip-rule="evenodd"><path fill="#FFF" d="M50 100c27.5 0 50-22.5 50-50S77.5 0 50 0 0 22.5 0 50s22.5 50 50 50z"/><g fill="none" stroke="#00AFEE" stroke-width=".75" stroke-linejoin="round" stroke-miterlimit="22.926"><path d="M80.5 65.6l-41.3 6.1-23.4-6.3-3.9-8.4V37.5l29.7-6.4L89 34.3V43l-6.7 5.6v8.9l-1.8 3.8z"/><path d="M13.8 61.2l8.1 1.7 2.4-1.6 9.5 2.9 2.1-2.6V48.9l5.7-6.9V31.1m-2.4 40.6V45m2.8-7.2l38.2 1 .3 22.5"/><path d="M44.2 44.4l13.4-.1v19.4l-13.4 2.1zm36.3 17.5l-14.8 1.6-2.6.4.1-21.7h2.6l14.5-.1M38.5 72.7c-1.2.2-2 .6-2 1.2-.1.9 1.4 1.9 3.3 2.1 2 .2 3.6-.3 3.7-1.2.1-.7-.9-1.5-2.4-1.9m33.7-5.5c-1 .1-1.6.5-1.7 1-.1.8 1.2 1.6 2.8 1.8 1.7.2 3.1-.3 3.2-1.1.1-.5-.5-1.1-1.6-1.5"/><path d="M41.2 74.1v.2c0 .3-.7.6-1.4.5-.6-.1-1.1-.3-1.3-.6v-2.6l.7.2 2-.3v2.6zm33.7-5.3c.1.3.6.6 1.3.6.7.1 1.4-.1 1.4-.5V66l-2.7.4v2.4z"/></g></g></svg>