<svg xmlns="http://www.w3.org/2000/svg" width="100" height="100" viewBox="0 0 100 100"><g fill-rule="evenodd" clip-rule="evenodd"><circle fill="#FFF" cx="50" cy="50" r="50"/><g fill="#00AFEE" stroke="#FFF" stroke-miterlimit="22.926"><path d="M72.6 57.3c-2.3-.2-5 .9-7 3.1-3.1 3.4-3.6 8.2-1 10.6 1.9 1.8 5 1.9 7.8.4l.2-14.1z"/><path d="M72.6 58.5c-1.7-.1-3.6.8-5 2.5-2.3 2.8-2.7 6.8-.7 8.9 1.4 1.5 3.6 1.6 5.6.5l.1-11.9z"/></g><path fill="#00AFEE" stroke="#FFF" stroke-miterlimit="22.926" d="M56.6 27.5c-3 2.5-6 5-8.9 7.1-2.9 2.1-5.8 3.8-8.5 5.6-2.7 1.8-5.3 3.6-7.2 5.4-1.9 1.9-3.1 3.8-3.8 5.5-.7 1.7-1.1 3.2-.9 4.4.1 1.2.7 2.1 1.2 3v4.4c2.7 2.3 5.3 4.6 8 6.2 2.7 1.6 5.3 2.4 8.5 2.7 3.2.4 6.9.3 9.8 0 2.9-.3 4.9-.7 7-1.1.1-1.3.2-2.7.8-4.4.5-1.7 1.5-3.7 2.7-5.2 1.2-1.5 2.7-2.6 4-3.3 1.3-.7 2.4-1 3.5-1.3l-.3-28.9c-5.3-.1-10.6-.1-15.9-.1z"/><path fill="#FFF" stroke="#00AFEE" stroke-width=".75" stroke-miterlimit="22.926" d="M49.5 34.3c1.4 1.6 2.2 2.5 4.2 4 2.1 1.5 4.9 2.8 7.7 3.9s5.5 1.9 7.4 2.3c1.6.3 2.2.4 3.1.4l-.1-17.4H57.5c-2.6 2.1-5.5 4.9-8 6.8z"/><path d="M60.4 70.9c0-2.2-.1-4.4.4-6.5.5-2.1 1.5-4.2 3-5.9 1.5-1.7 3.5-3 5.1-3.8 1.6-.8 2.8-1.2 3.9-1.5m-43-5.1c-.3 1.1-.6 2.3-.8 3.7-.2 1.4-.3 3.1-.4 4.3-.1 1.2-.1 1.7-.1 2.3m11.6 12.3c0-1.2 0-2.4.1-3.5s.4-2 .7-3c.7-1.2 1.4-2.3 2.3-3.3.9-1 1.9-1.8 3-2.6" fill="none" stroke="#FFF" stroke-width=".75" stroke-miterlimit="22.926"/><path fill="#FFF" d="M47.4 58.6c-1.2 1.4-2.4 2.7-3.6 4.1.9.3 1.7.6 3.5.7 1.8.1 4.5.1 6.4-.1 1.9-.2 3.1-.4 3.8-.9.7-.4 1-1 1.1-1.6.1-.6.1-1.2-.2-1.6-.3-.4-.8-.6-1.3-.7-.6-.1-1.2-.1-1.8-.1-1.7.3-3.4.6-5.7.5-.7-.1-1.4-.2-2.2-.3z"/><g fill="none" stroke="#FFF" stroke-width=".75" stroke-miterlimit="22.926"><path d="M28.6 56.6c1.9 1.6 3.7 3.2 5.7 4.6 2 1.4 4.2 2.5 6.4 3.6m-11-16.3c4.7 5.5 10.2 8.9 16.4 10 3.6.6 6.8.5 9.6-.4 6-3.7 11.7-6.8 17.1-9.4m-43.6 2.2c4.3 4.5 9.4 7.5 15.2 9m-15.5-6.5c5.4 4.4 10 7.2 13.9 8.2m-14.1-6.7c5.1 4.1 9.4 6.8 13 8"/><path stroke-linejoin="round" stroke-dasharray="1.4995,0.7498" d="M35.1 48.2l10.6 7.6 3.1-3.8-10.6-7.7z"/></g></g></svg>