<svg xmlns="http://www.w3.org/2000/svg" width="100" height="100" viewBox="0 0 100 100"><g fill-rule="evenodd" clip-rule="evenodd"><path fill="#FFF" d="M50 100c27.5 0 50-22.5 50-50S77.5 0 50 0 0 22.5 0 50s22.5 50 50 50z"/><path d="M38.4 57.3c-.4.3-1 .2-1.2-.2s-.2-1 .2-1.2c1.9-1.4 4-2.5 6.1-3.2 2.1-.7 4.4-1.1 6.6-1.1 2.2 0 4.5.4 6.6 1.1 2.1.7 4.2 1.8 6.1 3.2.4.3.5.8.2 1.2s-.8.5-1.2.2C59.9 56 58 55 56 54.4c-2-.7-4-1-6-1-2.1 0-4.1.3-6 1-2 .6-3.9 1.6-5.6 2.9zm32.5-11c.4.3.5.9.2 1.2-.3.4-.9.5-1.2.2-2.9-2.2-6.1-3.8-9.4-5C57.1 41.6 53.6 41 50 41c-3.6 0-7.1.6-10.4 1.7-3.3 1.1-6.5 2.8-9.4 5-.4.3-1 .2-1.2-.2-.3-.4-.2-1 .2-1.2 3.1-2.3 6.4-4.1 9.9-5.2 3.5-1.2 7.2-1.8 11-1.8 3.7 0 7.4.6 11 1.8 3.4 1.1 6.7 2.9 9.8 5.2zm7.5-9.8c.4.3.5.8.2 1.2-.3.4-.8.5-1.2.2-4-2.8-8.4-5-13-6.4-4.6-1.5-9.5-2.2-14.3-2.2-4.9 0-9.7.8-14.3 2.2-4.6 1.5-9 3.6-13 6.4-.4.3-1 .2-1.2-.2-.3-.4-.2-1 .2-1.2 4.2-2.9 8.7-5.2 13.5-6.7 4.8-1.5 9.8-2.3 14.9-2.3s10.1.8 14.9 2.3c4.6 1.5 9.1 3.8 13.3 6.7zM50 70.7c.8 0 1.5-.3 2-.8s.8-1.2.8-2-.3-1.5-.8-2-1.2-.8-2-.8-1.5.3-2 .8-.8 1.2-.8 2 .3 1.5.8 2 1.2.8 2 .8zm3.3.4c-.8.8-2 1.4-3.3 1.4-1.3 0-2.4-.5-3.3-1.4-.8-.8-1.4-2-1.4-3.3 0-1.3.5-2.4 1.4-3.3.8-.8 2-1.4 3.3-1.4 1.3 0 2.4.5 3.3 1.4.8.8 1.4 2 1.4 3.3-.1 1.3-.6 2.5-1.4 3.3z" fill="none" stroke="#00AFEE" stroke-width=".75" stroke-miterlimit="22.926"/></g></svg>