<svg width="396" height="419" viewBox="0 0 396 419" fill="none" xmlns="http://www.w3.org/2000/svg">
<g filter="url(#filter0_d)">
<path d="M327.706 150.083C360.973 189.616 388.202 236.327 377.721 271.417C367.239 306.392 319.276 329.862 270.401 354.47C221.639 378.965 172.081 404.712 128.446 393.206C84.9257 381.585 47.4434 332.938 28.6452 273.467C9.8471 213.883 9.73316 143.589 43.9116 103.828C78.2039 64.1815 146.789 55.0672 200.79 66.6879C254.906 78.3085 294.325 110.55 327.706 150.083Z" fill="#0092E8"/>
</g>
<mask id="mask0" mask-type="alpha" maskUnits="userSpaceOnUse" x="16" y="0" width="364" height="397">
<path d="M327.706 150.391C360.973 189.924 388.202 236.634 377.721 271.724C367.239 306.7 319.276 330.169 270.401 354.778C221.639 379.272 172.081 405.02 128.446 393.513C84.9257 381.892 47.4434 333.245 28.6452 273.775C9.8471 214.19 9.73316 143.897 43.9116 104.136C78.2039 64.4889 142.997 -10.4103 196.999 1.21033C251.115 12.831 294.325 110.858 327.706 150.391Z" fill="#FFB4BC"/>
</mask>
<g mask="url(#mask0)">
<path d="M327.706 150.294C360.973 189.827 388.201 236.537 377.72 271.627C367.239 306.603 319.275 330.072 270.4 354.681C221.639 379.175 172.08 404.923 128.445 393.416C84.9249 381.795 47.4426 333.148 28.6445 273.678C9.84637 214.093 9.73243 143.8 43.9108 104.039C78.2032 64.3919 146.788 55.2777 200.79 66.8983C254.906 78.519 294.325 110.761 327.706 150.294Z" fill="#0092E8"/>
<path fill-rule="evenodd" clip-rule="evenodd" d="M292.761 176.045C289.292 166.488 291.898 154.388 284.748 146.48C282.634 145.194 281.512 145.91 280.642 148.152C280.116 151.102 278.885 161.26 283.313 161.255C283.87 167.599 283.522 173.989 282.158 180.215C278.891 179.69 276.508 181.37 274.125 182.62C272.347 183.551 270.569 184.244 268.423 183.604C259.561 182.042 257.036 191.351 256.928 198.95C256.798 202.657 256.45 211.3 254.817 214.897C247.428 199.589 231.911 192.62 217.125 189.179C214.807 188.537 212.83 187.661 211.343 186.163C198.885 181.242 204.87 165.12 199.139 155.855C190.168 144.84 179.394 141.67 165.822 143.558C153.947 144.872 145.875 156.939 146.607 168.33C146.826 170.654 145.432 173.099 144.612 175.491C136.415 185.303 123.66 189.693 112.69 195.622C76.1007 213.512 63.4204 227.183 49.2014 265.251C42.5497 279.574 34.5891 293.475 31.9453 309.249C28.8386 327.837 28.8289 346.865 29.9104 365.637C27.8913 365.879 30.0886 380.309 31.8596 385.308C32.4664 387.021 33.9204 388.256 35.7321 388.228C39.3764 390 47.9327 397.14 51.7444 396.903C64.0599 396.145 76.0309 397.318 87.8962 396.711C100.733 396.055 113.446 393.659 126.337 393.97C148.819 394.512 132.723 395.847 155.982 396.903C170.665 397.581 224.232 389.559 238.874 390.868C250.783 393.374 256.216 389.149 254.399 376.703C253.727 371.932 251.582 361.322 258.638 360.872C261.976 361.259 264.739 364.596 267.24 366.545C289.326 382.996 311.89 371.15 313.668 344.107C317.016 321.425 321.709 316.067 311.506 293.416C279.226 209.097 327.86 220.553 295.023 181.058C292.459 183.292 293.111 177.33 292.761 176.045Z" fill="white"/>
<path fill-rule="evenodd" clip-rule="evenodd" d="M280.494 145.849C282.255 144.117 285.056 144.548 286.774 146.088C288.522 147.651 289.574 150.11 290.472 152.229C294.499 161.757 293.561 172.189 295.599 182.158C299.327 184.172 302.692 186.802 305.076 190.34C308.696 195.715 310.414 201.974 308.599 208.343C307.661 211.639 306.067 214.693 304.931 217.918C303.718 221.352 302.975 224.92 302.618 228.546C302.269 232.104 302.221 235.682 302.322 239.254C302.376 241.104 302.474 242.951 302.571 244.797C302.659 246.452 302.952 248.178 302.556 249.8L302.507 249.986C302.662 249.963 302.813 249.932 302.964 249.899C304.262 249.609 305.405 249.159 306.76 249.337C307.816 249.475 308.364 250.356 307.916 251.351C307.721 251.785 307.463 252.149 307.15 252.458C309.873 272.604 314.63 292.426 317.76 312.507C319.179 321.619 320.043 330.756 319.555 339.981L319.504 340.896C319.007 349.366 317.786 358.699 313.484 366.106C311.473 369.574 308.71 372.651 305.361 374.867C303.828 375.883 302.185 376.677 300.399 377.074C291.148 380.76 281.365 379.855 272.641 374.982C268.717 372.792 264.804 370.24 261.6 367.072C260.044 365.531 258.541 363.571 257.62 361.428C257.623 361.909 257.536 362.401 257.633 362.875L257.827 363.812C259.28 370.773 264.818 396.502 264.891 398.662C264.931 399.827 255.126 399.799 254.062 399.835L254.033 399.836C238.152 400.498 222.262 400.144 206.391 399.488L205.138 399.435C189.745 398.784 172.996 397.908 157.587 397.458L157.619 397.201C157.803 395.816 158.701 389.659 158.801 389.187L158.805 389.171C159.241 387.41 160.084 381.934 159.64 380.117C158.498 375.438 153.351 376.506 149.73 377.002L148.967 377.102C148.381 377.183 146.954 377.393 146.968 377.407C146.583 377.006 147.498 375.868 147.724 375.564L147.904 375.313C148.877 373.951 149.758 372.536 149.661 370.781C149.427 366.493 143.303 366.735 140.294 367.032C140.081 367.053 139.995 367.385 140.239 367.434L140.833 367.558C142.742 367.968 146.983 369.013 146.887 370.594C146.833 371.491 145.877 372.153 145.293 372.719C144.649 373.343 144.009 374.015 143.534 374.78C142.62 376.254 142.412 378.243 143.317 379.778C144.361 381.548 146.212 381.754 148.065 381.593L148.17 381.584C148.578 381.545 148.986 381.506 149.394 381.467L151.842 381.227C152.448 381.168 154.396 380.658 154.964 381.01C155.771 381.508 154.801 383.72 154.619 384.449L154.609 384.501C154.453 385.556 154.36 396.608 154.344 397.338C142.336 397.06 130.326 394.389 118.318 395.016C108.778 395.515 99.2644 396.376 89.7426 397.125L89.5023 395.08C86.8633 372.814 82.7253 343.434 84.7113 321.411C84.8666 319.687 82.1761 319.697 82.0218 321.411C79.9684 344.184 84.4632 374.776 87.0777 397.33C83.0243 397.638 78.9692 397.918 74.9094 398.131L73.8742 398.184C60.0594 398.874 45.8007 398.916 32.2811 395.746C31.8642 395.648 31.723 395.231 31.8104 394.885C31.6759 394.962 31.4742 394.919 31.4171 394.73C29.8421 389.537 29.0422 376.313 28.3284 370.591L28.2805 370.216C27.5476 364.657 27.1273 359.034 26.8248 353.441C26.2129 342.251 26.2869 331.049 27.1139 319.873C29.7462 284.227 40.2285 248.214 62.2285 219.566C67.547 212.641 73.6017 206.305 80.8666 201.405C87.9938 196.596 95.9883 193.209 104.1 190.458C109.463 188.638 114.909 187.081 120.355 185.527C120.561 185.424 120.767 185.323 120.975 185.223L121.286 185.074C123.223 184.155 125.129 183.15 127.112 182.332L127.551 182.154C130.425 181.001 133.774 179.98 136.885 180.015C141.925 177.476 146.157 173.639 145.747 167.484C145.579 164.955 149.546 164.958 149.687 167.484C150.057 174.204 145.919 178.969 140.644 182.168L140.669 182.193L140.694 182.221C141.518 183.156 142.399 184.024 143.35 184.831C149.045 189.681 156.25 193.707 163.451 196.357C171.899 199.468 180.341 200.399 189.078 197.884C193.647 196.569 197.96 194.541 201.924 191.917C203.134 191.117 204.294 190.26 205.407 189.341C204.354 187.902 203.514 186.351 202.808 184.707C201.39 181.397 200.216 176.914 201.665 173.42C202.021 172.559 203.437 172.028 203.931 173.124C205.292 176.124 205.861 179.366 207.447 182.299C208.052 183.415 208.748 184.475 209.528 185.474C209.528 185.527 215.486 186.546 215.486 186.546C222.687 186.543 229.467 189.311 235.838 192.768C239.604 194.813 243.305 196.986 246.995 199.163L254.207 203.42C254.739 203.732 255.334 204.035 255.929 204.358C255.233 200.921 254.893 197.416 255.122 193.942C255.468 188.702 257.505 182.972 262.901 181.105C265.453 180.22 268.405 180.493 270.882 181.475C272.025 181.929 273.269 182.531 274.332 183.335C274.846 181.021 277.014 179.285 279.193 178.519C279.899 178.27 280.622 178.112 281.354 178.034C281.333 177.663 281.331 177.287 281.336 176.901L281.341 176.608C281.375 174.893 281.361 173.178 281.324 171.466C281.257 168.221 281.102 165.042 280.773 161.807C280.498 159.129 280.02 156.481 279.665 153.813L279.518 152.667C279.219 150.408 278.717 147.595 280.494 145.849ZM63.8739 364.855L63.2728 364.498C61.3041 363.336 59.2762 362.264 56.8913 362.802C54.6194 363.314 53.0077 365.159 52.1608 367.239C51.7608 368.221 51.552 369.212 51.3977 370.259C51.3109 370.845 51.2525 371.435 51.1496 372.019L51.1152 372.2C51.0686 372.432 50.9973 372.756 50.9324 373.036C50.3125 372.763 49.6882 372.33 49.1809 372.073L48.7717 371.868C47.8115 371.389 46.8126 370.934 45.7662 370.713C43.4997 370.234 40.9853 370.927 39.6897 372.958C38.5815 374.695 38.6041 376.743 39.0281 378.689L39.0583 378.825C39.2422 379.633 40.1926 382.868 41.575 382.396C42.9194 381.937 43.0989 380.149 43.2008 378.958L43.2084 378.844C43.2542 377.946 43.0762 376.058 44.093 375.717C45.3635 375.292 47.8079 377.237 48.9143 377.746C50.8927 378.655 53.0662 378.923 54.6762 377.155C56.1197 375.569 56.2414 373.249 56.615 371.238L56.7115 370.731C56.9097 369.71 57.2932 368.078 58.4233 368.119C59.3468 368.153 60.3607 369.111 61.1219 369.565C61.962 370.067 62.8344 370.485 63.7461 370.841C65.8738 371.673 68.2396 371.939 70.5031 371.693C71.8146 371.551 72.6685 370.925 73.1321 369.691C73.2891 369.329 73.4088 368.955 73.4915 368.569C74.2264 365.807 70.211 363.835 68.7304 366.306C67.0223 366.241 65.4321 365.781 63.8739 364.855ZM311.002 346.383C309.778 345.51 308.115 345.698 307.021 346.682L306.956 346.743C306.652 347.036 305.969 347.799 305.526 348.47L305.387 348.362C305.365 348.345 305.343 348.327 305.322 348.31L305.262 348.261C304.357 347.496 303.412 346.794 302.247 346.482C299.213 345.666 296.455 347.699 295.13 350.304C294.502 351.54 294.233 352.817 293.919 354.149L293.893 354.272C293.767 354.893 293.602 356.153 293.058 356.46C292.858 356.573 292.404 356.35 291.955 356.091C290.93 355.499 290.011 354.746 289.007 354.122C286.652 352.66 283.975 352.056 281.33 353.11C278.712 354.153 276.836 356.615 276.792 359.483C276.759 361.598 278.175 365.288 280.838 365.03C281.372 364.978 282.059 364.65 282.145 364.034C282.375 362.402 281.088 360.396 282.564 359.048C283.991 357.745 285.469 358.841 286.761 359.745L287.687 360.395C289.19 361.44 290.739 362.396 292.642 362.51C295.051 362.654 297.274 361.324 298.486 359.273C299.582 357.419 299.598 355.322 300.455 353.418C300.642 353.002 301.125 352.619 300.964 352.427C301.613 352.765 302.451 353.74 302.855 354.013C304.869 355.372 307.561 355.362 309.326 353.56C310.03 352.843 310.477 351.958 310.998 351.113C311.186 350.808 311.421 350.526 311.593 350.211C311.656 350.096 311.759 349.667 311.844 349.285L311.975 348.677L311.988 348.578C312.1 347.658 311.775 346.935 311.002 346.383ZM233.439 338.355C231.126 337.14 228.274 337.602 226.19 339.074C223.853 340.725 222.706 343.261 221.926 345.942C221.359 347.893 221.087 350.585 219.456 351.998C217.558 353.642 214.376 351.897 212.372 351.248C209.948 350.464 207.035 350.143 204.67 351.303C202.352 352.44 201.234 354.759 200.995 357.243C200.772 359.562 201.104 362.615 202.426 364.556C202.556 364.747 202.804 364.697 202.887 364.495C203.756 362.354 203.588 359.905 204.294 357.69C205.048 355.325 206.813 354.825 209.055 355.461C211.393 356.124 213.534 357.366 215.939 357.808C218.503 358.279 221.041 357.794 223.062 356.099C224.763 354.673 225.793 352.595 226.488 350.526C227.167 348.509 227.277 345.808 228.721 344.133C229.086 343.71 229.721 343.199 230.311 343.145C231.187 343.065 231.503 343.716 232.211 344.215C234.078 345.533 237.058 345.559 238.201 343.241C238.575 342.482 238.761 341.405 238.201 340.662C237.22 339.36 236.414 339.371 235.119 339.652C235.078 339.618 235.031 339.573 234.98 339.512L234.94 339.464C234.598 339.03 233.932 338.614 233.439 338.355ZM141.816 324.674C141.739 322.932 139.643 321.26 137.989 322.477C137.722 322.671 137.459 322.87 137.202 323.077L137.096 323.191C136.788 323.19 136.501 323.109 136.198 323.012L135.666 322.841C134.27 322.398 132.928 322.042 131.438 322.368C128.875 322.931 127.249 325.144 126.413 327.492C125.635 329.681 125.891 331.913 125.526 334.157C125.179 336.285 124.087 337.115 122.035 336.66L121.929 336.635C117.848 335.658 113.197 332.923 109.619 336.672C105.753 340.722 108.282 347.153 112.514 349.755C112.698 349.869 112.903 349.682 112.861 349.488C112.299 346.873 110.658 344.378 111.208 341.601C111.589 339.677 112.926 338.766 114.833 339.073C118.845 339.718 122.598 342.917 126.713 340.596C128.768 339.435 129.901 337.257 130.413 335.025C130.874 333.016 130.743 330.751 131.627 328.856C132.594 326.783 134.222 328.286 135.977 328.569C138.46 328.969 141.948 327.667 141.816 324.674ZM276.417 262.714C276.425 260.982 273.736 260.98 273.728 262.714C273.629 284.649 263.371 304.924 261.528 326.641C261.383 328.366 264.073 328.356 264.218 326.641C266.061 304.917 276.318 284.684 276.417 262.714ZM54.3326 298.619C52.9166 297.015 50.8423 297.513 49.1573 298.316C46.6265 299.524 44.2046 300.881 41.8829 302.449C41.3118 302.835 41.6718 303.673 42.3442 303.544C44.047 303.217 45.7044 302.85 47.3564 302.318C48.5979 301.919 49.8902 301.34 51.1849 301.135C51.1038 301.432 51.0053 301.724 50.8894 302.011C50.6769 302.599 50.4301 303.174 50.2207 303.764C49.804 304.939 49.4286 306.13 49.0645 307.322L48.8833 307.918C48.1266 310.418 47.3913 314.056 50.8836 314.825C52.1794 315.11 53.4636 314.546 54.669 314.102L54.9172 314.012L59.3138 312.453C59.8376 312.267 60.8078 312.138 61.2422 311.812L61.1728 312.146C61.0828 312.589 60.9945 313.024 60.8038 313.466L60.6974 313.709C59.6053 316.186 58.2284 318.664 59.5021 321.402C60.5934 323.748 63.1729 324.861 65.6587 324.195C68.021 323.563 69.7306 320.902 68.5075 318.587C68.0518 317.724 66.7183 317.302 65.871 317.841L65.6434 317.992C65.3765 318.167 64.9171 318.465 64.9059 318.521C64.8427 318.537 64.7765 318.554 64.7093 318.57C64.8518 318.151 64.948 317.505 65.073 317.22L65.5332 316.174C66.3891 314.21 67.131 312.212 66.478 310.009C64.6077 303.701 58.2656 307.287 53.5872 309.087C53.6555 308.821 53.7231 308.558 53.7802 308.3C53.9819 307.386 54.2025 306.478 54.4208 305.569L54.8684 303.693C55.2712 301.964 55.5848 300.038 54.3326 298.619ZM293.693 291.579C293.697 291.429 293.513 291.315 293.384 291.402C290.393 293.413 288.392 297.613 289.516 301.191C290.062 302.929 291.222 304.453 292.851 305.296C294.877 306.344 297.114 305.945 299.242 305.497L300.146 305.303C300.783 305.169 301.411 305.071 302.06 305.25C302.282 305.312 302.541 305.506 302.752 305.547C302.665 305.696 302.572 305.954 302.525 306.05L302.371 306.36C302.216 306.675 302.065 307.001 301.97 307.332C301.652 308.44 301.731 309.63 302.246 310.664C303.205 312.591 305.218 313.677 307.313 313.861C308.561 313.971 311.706 312.878 312.45 314.203C313.926 316.832 318.128 315.064 317.311 312.152C316.759 310.184 315.192 308.912 313.251 308.38C312.216 308.096 311.145 308.134 310.093 308.25C309.681 308.296 309.271 308.36 308.858 308.403L308.548 308.432C308.629 308.426 307.693 308.403 307.318 308.378L307.398 308.163C307.409 308.132 307.42 308.105 307.43 308.085C307.848 307.19 308.158 306.298 308.133 305.299C308.087 303.496 306.92 301.923 305.387 301.055C303.974 300.254 302.292 299.934 300.686 300.113C298.92 300.309 296.411 301.708 294.674 300.971C293.366 300.416 292.922 298.478 292.902 297.208C292.872 295.296 293.639 293.484 293.693 291.579ZM171.866 279.037C167.054 276.876 162.921 280.566 160.098 284.097C159.952 284.279 160.135 284.586 160.365 284.444L160.74 284.21C163.046 282.763 165.602 281.054 168.459 281.547C171.046 281.993 171.687 283.686 171.172 285.994L171.021 286.643C170.473 289.019 170.054 291.478 171.417 293.688C172.703 295.774 175.213 296.686 177.564 296.742C180.276 296.806 182.617 295.544 185.097 294.664L185.293 294.596C186.346 294.232 190.187 293.282 190.24 295.446C190.265 296.435 189.206 297.598 188.799 298.487C188.266 299.651 187.912 300.873 187.918 302.165C187.934 305.387 190.621 308.005 193.801 306.441C195.037 305.833 195.356 304.09 194.711 302.969C193.803 301.389 193.436 301.472 194.072 299.813L194.256 299.346C195.038 297.348 195.662 295.29 194.782 293.192C193.025 289.003 187.757 288.495 183.994 289.883L183.856 289.935C181.514 290.843 174.498 294.48 174.981 289.336C175.172 287.31 175.786 285.367 175.357 283.318C174.957 281.416 173.63 279.829 171.866 279.037ZM148.679 261.831C147.8 260.283 144.851 260.837 145.095 262.801L145.174 263.413C145.274 264.25 145.296 265.036 144.718 265.78C144.016 266.683 142.816 266.956 141.726 266.818C139.419 266.526 137.948 264.386 135.409 264.886C133.348 265.292 131.925 266.979 131.101 268.818C130.229 270.766 130.247 272.878 129.598 274.883C128.849 277.19 127.253 277.084 125.26 276.277L124.832 276.1C122.925 275.308 121.012 274.427 118.888 274.805C115.359 275.435 112.321 280.863 115.627 283.483C116.223 283.956 117.266 283.709 117.241 282.815L117.238 282.645C117.221 281.017 117.632 278.916 119.497 278.533C121.474 278.126 123.709 279.931 125.546 280.451C130.302 281.797 133.012 278.215 133.82 273.979L133.849 273.817C134.107 272.334 134.311 269.591 135.861 268.897C136.688 268.526 137.57 269.437 138.26 269.804C139.334 270.374 140.486 270.736 141.7 270.828C146.192 271.171 151.296 266.445 148.679 261.831ZM261.091 255.98C259.61 255.339 257.403 255.696 257.041 257.628L256.822 258.844C256.392 261.193 255.707 264.13 253.399 264.976C251.955 265.505 250.298 264.578 249.003 264.012C247.448 263.333 245.932 262.75 244.23 262.588C240.775 262.261 238.201 264.261 236.979 267.386L236.872 267.664C235.887 270.29 234.555 275.312 236.713 277.442C237.028 277.753 237.663 277.905 238.049 277.614C239.325 276.657 239.647 275.085 240.085 273.61L240.123 273.483C240.587 271.951 240.968 270.265 241.807 268.884C243.366 266.319 247.434 269.248 249.391 269.924C252.605 271.035 255.938 270.386 258.393 268.01C259.945 266.509 260.862 264.609 261.492 262.598C261.895 262.807 262.313 262.987 262.763 263.109C264.478 263.573 266.512 263.328 267.817 262.029C270.267 259.59 268.938 255.216 265.203 255.923C264.467 256.062 263.984 256.765 263.897 257.483L263.847 257.596C262.907 257.286 261.879 256.321 261.091 255.98ZM87.9823 234.192C84.492 230.599 78.435 232.547 76.0477 236.357C75.5525 237.147 76.3705 238.149 77.2398 237.909C79.3178 237.336 82.25 235.081 84.446 236.516C86.0738 237.58 85.1883 240.36 85.0393 241.916L85.0179 242.148C84.8295 244.265 84.7867 247.162 86.4352 248.747C87.3842 249.66 88.8394 249.536 90.0908 249.406L90.4886 249.365C91.9638 249.216 93.4292 248.956 94.8422 248.502C96.1412 248.085 97.372 247.518 98.5926 246.918L98.8976 246.767C99.4378 246.499 101.239 245.436 101.779 246.104C102.06 246.452 101.363 247.979 101.218 248.319C100.671 249.599 99.9751 250.804 99.4731 252.107C98.5886 254.403 98.5147 256.992 99.7569 259.183C100.96 261.305 103.568 263.025 105.879 261.394C107.203 260.461 107.199 258.762 105.879 257.828C105.181 257.334 104.477 257.008 104.189 256.178C103.812 255.097 104.297 253.95 104.766 252.949L105.327 251.758C106.571 249.099 107.814 246.041 106.076 243.322C104.282 240.516 100.634 240.471 97.8752 241.64C96.3006 242.308 94.8637 243.203 93.2228 243.719C92.0875 244.076 90.9478 244.315 89.7849 244.446C89.5257 243.046 89.8925 241.479 89.8962 240.089C89.9023 237.976 89.5089 235.763 87.9823 234.192ZM267.965 184.223C262.075 183.358 259.224 188.628 258.817 193.703C258.451 198.311 259.197 202.932 260.363 207.412C260.801 209.073 261.291 210.714 261.806 212.329C262.633 214.922 263.53 217.511 264.623 220.007C264.956 220.76 265.292 221.517 265.668 222.243C266.958 223.301 268.062 224.726 269.065 226.096L269.724 227L269.901 227.244C271.606 229.578 273.061 232 274.251 234.633C275.385 237.141 276.229 239.756 276.884 242.425L277.045 243.091C277.55 245.145 278.294 247.597 277.395 249.509C279.16 250.053 280.915 250.548 282.79 250.81C285.379 251.173 288.072 251.197 290.684 251.103C293.208 251.01 295.729 250.813 298.242 250.545L300.053 250.346C300.24 250.324 300.428 250.302 300.615 250.279C300.544 250.191 300.484 250.094 300.44 249.986C299.795 248.439 299.878 246.645 299.807 244.981L299.798 244.797C299.704 242.951 299.647 241.104 299.623 239.254C299.58 235.783 299.674 232.303 300.054 228.849C300.383 225.825 300.897 222.802 301.701 219.866C302.511 216.889 303.748 214.094 304.891 211.236C306.021 208.411 306.952 205.508 306.851 202.427C306.787 200.47 306.357 198.567 305.628 196.767C305.594 196.794 305.551 196.814 305.5 196.811C303.21 196.727 301.042 196.064 298.83 195.506C296.483 194.911 294.08 194.423 291.679 194.134L291.169 194.074C289.168 193.849 286.989 193.74 285.14 194.598C283.14 195.53 281.879 197.602 281.12 199.589L281.035 199.818C279.685 203.586 279.995 208.615 284.169 210.398C285.463 210.953 288.418 211.293 289.084 209.537C289.383 208.737 288.768 207.553 288.536 206.797C288.264 205.895 288.085 205.007 288.106 204.065C288.122 203.239 288.753 202.616 289.555 202.55L289.628 202.545C291.088 202.482 294.096 200.8 294.389 203.221C294.446 203.692 294.086 204.186 293.706 204.415C292.94 204.869 292.14 205.172 291.306 205.357C291.42 205.861 291.582 206.356 291.74 206.847C291.834 206.8 291.938 206.77 292.049 206.759C293.283 206.658 294.503 206.854 295.737 206.867L296.411 206.872C297.369 206.881 298.204 206.932 299.132 207.428C299.99 207.886 299.838 209.033 299.132 209.524C297.28 210.808 294.143 210.055 292.214 208.75C292.298 209.413 292.257 210.089 291.975 210.798C291.141 212.904 288.751 213.953 286.613 214.044C284.713 214.125 282.898 213.526 281.382 212.477C281.073 213.583 280.575 214.646 280.36 215.793C280.077 217.299 280.414 219.062 279.889 220.478C279.365 221.904 277.338 222.859 276.164 221.46C274.446 219.415 274.981 216.176 276.49 214.104C277.294 213.008 278.753 211.75 280.239 211.552C279.207 210.58 278.38 209.379 277.859 208.054C277.822 208.071 277.778 208.074 277.731 208.061C272.9 206.739 270.271 202.36 270.11 197.763C269.753 198.018 269.384 198.247 268.997 198.452C268.072 198.95 266.885 198.513 266.6 197.48C266.338 196.518 267.101 195.331 268.173 195.412C268.785 195.462 269.4 195.466 270.009 195.365C270.093 195.351 270.173 195.335 270.257 195.318C270.311 194.965 270.382 194.611 270.469 194.262C268.644 194.47 266.734 194.171 264.969 193.781C263.45 193.448 263.803 191.03 265.332 191.087L265.578 191.098C267.585 191.194 270.548 191.518 272.268 190.246C272.57 189.809 272.907 189.395 273.27 189.005C273.317 188.907 273.357 188.804 273.394 188.696C274.319 186.032 269.938 184.512 267.965 184.223ZM215.091 221.695C212.798 221.081 210.385 221.917 208.808 223.649C207.483 225.105 206.796 226.893 206.183 228.72L205.833 229.772C205.323 231.26 204.737 232.442 202.916 231.874C200.58 231.147 198.556 229.879 196.017 229.979C193.709 230.07 191.45 231.064 189.843 232.728C188.199 234.431 187.414 236.804 187.763 239.141L187.786 239.284C187.968 240.361 189.542 244.205 191.211 242.435C191.956 241.646 191.809 240.773 191.986 239.77C192.154 238.815 192.514 237.878 193.103 237.104C194.148 235.731 195.828 235.196 197.471 235.682C199.638 236.322 201.552 237.643 203.887 237.674C206.343 237.707 208.428 236.433 209.782 234.433C210.876 232.818 211.266 230.928 212.035 229.173L212.109 229.005C212.755 227.561 213.196 227.039 214.676 227.73L215.193 227.978C217.408 229.031 219.901 229.995 222.192 228.51C224.32 227.131 225.227 224.359 223.437 222.341C222.45 221.227 220.163 221.416 219.521 222.846C219.409 223.091 219.304 223.341 219.201 223.591C219.005 223.531 218.815 223.458 218.634 223.357C217.433 222.815 216.39 222.043 215.091 221.695ZM148.15 205.377C145.534 203.966 143.351 206.74 143.769 209.244L143.789 209.354C143.804 209.43 143.84 209.595 143.884 209.784C143.75 209.767 143.618 209.744 143.486 209.71L142.878 209.636C141.923 209.525 140.997 209.467 140.041 209.774C137.784 210.498 136.674 212.693 136.62 214.942C136.566 217.183 137.725 218.991 138.066 221.132C138.414 223.321 136.148 222.696 134.67 222.536L134.612 222.53C132.554 222.322 130.391 222.318 128.681 223.659C126.915 225.045 126.133 227.439 126.382 229.63C126.608 231.61 127.846 234.657 130.089 234.969C130.31 235 130.563 234.952 130.676 234.73C131.583 232.966 130.321 231.018 130.464 229.156C130.621 227.109 131.925 226.768 133.724 226.901C135.47 227.029 137.212 227.4 138.936 226.879C140.806 226.313 142.164 224.708 142.548 222.814C142.971 220.726 142.193 218.784 141.689 216.8C141.521 216.141 141.438 215.478 141.554 214.804C141.579 214.659 141.705 214.524 141.751 214.467C142.038 214.413 142.468 214.551 142.714 214.577L143.062 214.611C144.957 214.782 146.782 214.668 148.135 213.102C148.829 212.299 149.085 211.319 149.016 210.284L148.981 209.866C148.944 209.464 148.873 208.933 148.664 208.712L148.662 208.701C148.732 208.607 148.798 208.511 148.859 208.41L148.918 208.309C149.499 207.341 149.162 205.922 148.15 205.377ZM282.158 180.829C279.552 180.829 277.091 181.68 275.121 183.997C275.824 184.667 276.385 185.444 276.695 186.355C277.659 185.827 278.681 185.414 279.727 185.121C282.917 184.229 287.281 184.243 289.964 186.432C291.369 187.576 289.826 189.627 288.313 189.274C286.958 188.958 285.781 188.373 284.359 188.306C283.126 188.245 281.915 188.406 280.732 188.763C278.927 189.308 277.286 190.34 276.079 191.763C275.676 192.24 275.323 192.758 275.027 193.317C272.774 197.595 274.472 203.729 277.582 207.25C276.362 203.194 277.579 198.412 280.009 195.052C282.935 191.007 287.312 190.549 291.923 191.18L292.075 191.201C296.536 191.831 302.06 192.93 305.395 196.209C305.062 195.452 304.678 194.719 304.248 194.01C301.72 189.846 297.528 186.597 293.178 184.28C292.448 183.886 291.712 183.523 290.979 183.187C288.192 181.905 285.086 180.829 282.158 180.829ZM283.583 149.054L283.573 149.101C283.571 149.11 283.569 149.119 283.566 149.128C283.412 150.496 283.776 152.065 283.961 153.446L283.987 153.641C284.377 156.783 284.891 159.927 285.059 163.092C285.223 166.135 285.16 169.292 284.794 172.322L284.74 172.754C284.525 174.406 284.397 176.343 283.839 178.038C285.984 178.243 288.128 178.932 290.078 179.666C290.778 179.931 291.474 180.21 292.166 180.507C291.299 175.895 290.835 171.217 289.893 166.62L289.708 165.705C288.685 160.619 287.724 155.501 285.079 150.951C284.726 150.345 284.346 149.838 283.916 149.296C283.822 149.172 283.711 149.091 283.583 149.054Z" fill="black"/>
<path fill-rule="evenodd" clip-rule="evenodd" d="M173.012 36.5217C192.101 36.5217 216.741 48.5006 218.842 60.7693C221.319 75.2276 234.578 130.706 231.584 148.497C228.59 166.287 212.455 179.095 186.636 179.095C160.818 179.095 141.547 165.009 137.122 160.173C132.698 155.337 124.498 138.07 124.498 138.07C124.498 138.07 110.674 136.231 110.608 124.958C110.543 113.685 119.596 109.583 119.596 109.583C119.596 109.583 116.368 65.0956 124.498 53.5131C132.627 41.9307 153.923 36.5217 173.012 36.5217Z" fill="white"/>
<path fill-rule="evenodd" clip-rule="evenodd" d="M217.674 58.7895C217.66 58.5309 218.037 58.5007 218.107 58.7293C222.225 72.3401 224.764 82.9472 227.436 96.9014L228.226 101.006C230.335 111.954 232.465 122.919 234.265 133.92L234.37 134.577C235.272 140.271 235.791 146.021 234.661 151.728C233.606 157.062 230.721 161.952 226.976 165.846C219.738 173.374 209.679 178.075 199.56 180.177C194.443 181.24 189.165 181.65 183.951 181.28C181.352 181.098 178.757 180.732 176.212 180.19L175.931 180.13C173.366 179.576 171.089 178.915 169.727 176.501C169.384 175.892 169.522 174.85 170.241 174.537C171.6 173.951 172.598 173.706 174.08 173.874C175.496 174.035 176.878 174.463 178.276 174.729C180.949 175.236 183.665 175.492 186.385 175.553C191.727 175.67 197.082 175.001 202.189 173.407C210.963 170.666 219.879 165.423 225.006 157.58C231.037 148.354 228.635 137.156 227.037 126.967L226.989 126.659C225.371 116.244 223.772 105.83 222.219 95.4085L221.556 90.9418C219.815 79.1404 218.171 70.7157 217.674 58.7895ZM128.588 29.9035C132.967 27.0159 138.409 26.3063 143.553 26.3462L144.197 26.3543C150.783 26.4547 183.937 27.244 195.037 27.4869L197.678 27.5425C201.173 27.6085 208.222 27.6774 211.853 27.7438L212.063 27.7477C213.845 27.7813 215.626 27.7947 217.408 27.8519L217.669 27.8613C219.004 27.9183 220.115 28.1181 221.16 29.0593C221.692 29.5363 221.899 30.2638 221.85 30.9568L221.843 31.0469L224.488 31.279C226.285 31.4379 227.235 33.0498 226.521 34.6809L226.485 34.7599C225.218 37.4639 224.25 45.3337 223.571 48.2428C223.214 49.7731 222.928 51.3269 222.76 52.8908C222.626 54.122 222.612 55.356 221.927 56.4389C220.464 58.7494 216.349 58.7292 216.275 55.4569C216.272 55.3526 216.275 55.2517 216.285 55.1542C205.931 54.7001 191.794 54.7439 181.453 55.3627C171.795 55.9412 162.18 57.2528 152.716 59.2606C150.319 59.7684 147.929 60.3234 145.555 60.9254C143.609 61.4164 141.219 61.709 139.477 62.7617C137.527 63.9455 137.564 66.0677 137.776 68.0889C138.003 70.2313 138.382 69.1275 138.92 71.0798L138.953 71.2032C139.507 73.322 140.193 75.4173 141.101 77.4083C141.619 78.545 142.453 79.6381 142.136 80.9464C141.958 81.6829 141.376 82.4699 140.842 82.9844C138.408 85.3218 134.293 83.832 132.639 87.0337C130.908 90.3817 130.865 94.9169 130.718 98.6215L130.709 98.8384C130.602 101.391 130.632 103.95 130.8 106.496C130.951 108.817 131.57 111.114 130.777 113.344C130.198 114.965 128.309 115.116 127.321 113.798C127.207 113.647 127.103 113.491 127.006 113.335L126.91 113.179L126.904 113.182C126.998 113.33 127.085 113.482 127.169 113.636C127.26 113.808 127.035 113.996 126.897 113.848C124.571 111.316 121.172 111.82 118.539 113.593C115.873 115.395 114.821 118.819 114.683 121.89C114.529 125.296 114.831 129.289 116.25 132.437C116.848 133.768 117.702 134.993 119.118 135.5C119.76 135.729 120.372 135.699 121.041 135.753C121.736 135.806 122.574 136.156 123.249 136.109C124.127 136.047 124.915 137.049 124.666 137.89L124.648 137.945C124.635 137.986 124.621 138.026 124.608 138.063C124.641 138.093 124.675 138.13 124.698 138.184C127.253 143.407 130.756 148.055 134.629 152.367C136.569 154.523 138.721 156.503 140.97 158.336C142.079 159.241 143.249 160.146 144.483 160.876C144.893 161.114 145.269 161.276 145.73 161.407C145.945 161.467 146.191 161.498 146.399 161.568L146.616 161.643C146.63 161.647 146.645 161.652 146.658 161.656C147.277 161.726 147.798 162.137 148.003 162.779C148.537 164.454 147.566 165.934 145.905 166.395C144.106 166.898 142.41 166.014 140.984 164.999L140.889 164.932C137.981 162.837 135.302 160.485 132.982 157.741C128.393 152.323 125.518 146.051 124.188 139.112C123.858 139.822 123.414 140.441 122.644 140.871C121.447 141.544 120.019 141.544 118.708 141.319C116.068 140.871 113.819 139.26 112.317 137.081C110.756 134.821 110.175 132.077 109.822 129.403C109.472 126.726 109.301 124.039 109.651 121.355C110.152 117.501 111.769 113.69 114.912 111.578C112.559 106.449 112.145 100.698 112.313 95.0818C112.518 88.1671 113.712 81.175 114.63 74.3243L117.239 54.8481L117.345 54.063C117.975 49.4812 118.742 44.8751 120.456 40.558C122.147 36.3036 124.715 32.4561 128.588 29.9035ZM117.608 122.041C121.918 119.949 126.574 121.876 128.894 125.936C130.91 129.465 124.914 131.798 123.913 128.16L123.884 128.048C123.225 125.293 120.542 122.912 117.742 122.542C117.51 122.509 117.339 122.172 117.608 122.041Z" fill="black"/>
<path fill-rule="evenodd" clip-rule="evenodd" d="M206.191 145.337C206.424 145.274 206.629 145.587 206.436 145.759C205.645 146.461 205.142 147.77 204.565 148.663C204.015 149.511 203.486 150.352 203.003 151.24C202.461 152.236 201.938 153.228 201.516 154.282L201.433 154.494C201.559 154.795 201.658 155.092 201.731 155.286L201.752 155.341C202.472 157.181 200.96 159.225 199.256 159.74C196.339 160.619 193.838 158.223 193.768 155.375C193.713 153.133 195.232 151.136 196.775 149.655C198.125 148.359 199.636 147.256 201.327 146.448C202.073 146.091 202.848 145.794 203.658 145.621C204.486 145.444 205.38 145.556 206.191 145.337ZM200.696 153.459C200.909 153.56 201.092 153.807 201.246 154.095C201.169 153.85 201.011 153.608 200.696 153.459ZM202.52 122.319C205.059 123.862 208.927 127.462 206.196 131.289C202.981 134.663 198.353 130.794 196.072 129.045C193.957 127.688 191.581 131.176 193.543 132.76C210.024 144.966 216.712 122.722 203.804 120.504C202.383 120.259 201.855 121.841 202.52 122.319ZM187.291 94.2943C189.113 93.6321 191.007 95.1818 191.243 96.9283C191.515 98.9409 190.064 100.266 188.225 100.506L188.133 100.518C184.073 100.965 180.044 101.783 175.979 102.245C174.133 102.455 172.272 102.593 170.414 102.643L169.085 102.672C167.458 102.714 165.712 102.751 164.209 102.19L164.215 102.18C163.816 102.064 163.632 101.488 164.076 101.174C165.676 100.042 167.833 99.6142 169.695 99.0764C171.568 98.5352 173.454 98.0365 175.346 97.568C179.317 96.5853 183.443 95.6927 187.291 94.2943ZM204.096 94.7648C204.579 92.2186 208.185 91.9455 209.509 93.7983C210.365 94.0922 211.62 94.3989 212.398 94.6296C213.752 95.0315 215.108 95.4311 216.467 95.8182C219.281 96.62 222.027 97.6363 224.793 98.5837C225.078 98.6816 225 99.0435 224.726 99.0795C220.865 99.5822 217.068 99.8161 213.184 99.6549L212.387 99.6191C208.964 99.4856 203.153 99.7402 204.096 94.7648Z" fill="black"/>
<path d="M173.692 114.144C173.543 113.053 173.774 111.738 174.435 110.847L175.029 110.297C175.65 110.013 176.53 109.839 177.215 109.829C178.979 109.802 179.999 111.945 179.704 113.501C179.389 115.166 177.693 117.85 175.672 116.952C174.421 116.396 173.875 115.477 173.692 114.144Z" fill="black" stroke="black" stroke-linecap="round" stroke-linejoin="round"/>
<path d="M215.324 114.483C214.253 114.287 213.097 113.924 212.706 112.811L212.544 111.647C212.618 110.679 213.065 109.663 213.598 108.851C213.989 108.256 214.908 107.961 215.598 108.2C216.33 108.454 216.998 109.274 217.449 109.869C218.086 110.71 218.458 111.804 218.063 112.835C217.664 113.878 216.414 114.684 215.324 114.483Z" fill="black" stroke="black" stroke-linecap="round" stroke-linejoin="round"/>
</g>
<defs>
<filter id="filter0_d" x="0" y="52" width="395.999" height="366.033" filterUnits="userSpaceOnUse" color-interpolation-filters="sRGB">
<feFlood flood-opacity="0" result="BackgroundImageFix"/>
<feColorMatrix in="SourceAlpha" type="matrix" values="0 0 0 0 0 0 0 0 0 0 0 0 0 0 0 0 0 0 127 0"/>
<feOffset dy="6"/>
<feGaussianBlur stdDeviation="8"/>
<feColorMatrix type="matrix" values="0 0 0 0 0 0 0 0 0 0.572549 0 0 0 0 0.909804 0 0 0 0.44 0"/>
<feBlend mode="normal" in2="BackgroundImageFix" result="effect1_dropShadow"/>
<feBlend mode="normal" in="SourceGraphic" in2="effect1_dropShadow" result="shape"/>
</filter>
</defs>
</svg>
