<svg width="84" height="230" viewBox="0 0 84 230" fill="none" xmlns="http://www.w3.org/2000/svg">
<path d="M83.2318 0.322624H0.103516V229.853H83.2318V0.322624Z" fill="#0092E8"/>
<path d="M25.9985 0.322624H0.103516V229.853H25.9985V0.322624Z" fill="#58C1FF"/>
<path d="M83.2318 12.8736H0.103516V14.7925H83.2318V12.8736Z" fill="white"/>
<path d="M83.2318 28.0288H0.103516V29.9477H83.2318V28.0288Z" fill="white"/>
<path d="M83.2318 43.1742H0.103516V45.0931H83.2318V43.1742Z" fill="white"/>
<path d="M83.2318 58.3294H0.103516V60.2483H83.2318V58.3294Z" fill="white"/>
<path d="M83.2318 73.4846H0.103516V75.4034H83.2318V73.4846Z" fill="white"/>
<path d="M83.2318 88.6299H0.103516V90.5488H83.2318V88.6299Z" fill="white"/>
<path d="M83.2318 103.785H0.103516V105.704H83.2318V103.785Z" fill="white"/>
<path d="M83.2318 118.931H0.103516V120.849H83.2318V118.931Z" fill="white"/>
<path d="M83.2318 134.086H0.103516V136.005H83.2318V134.086Z" fill="white"/>
<path d="M83.2318 149.231H0.103516V151.15H83.2318V149.231Z" fill="white"/>
<path d="M83.2318 164.386H0.103516V166.305H83.2318V164.386Z" fill="white"/>
<path d="M83.2318 179.532H0.103516V181.451H83.2318V179.532Z" fill="white"/>
<path d="M83.2318 194.687H0.103516V196.606H83.2318V194.687Z" fill="white"/>
<path d="M83.2318 209.832H0.103516V211.751H83.2318V209.832Z" fill="white"/>
</svg>
