<svg width="153" height="342" viewBox="0 0 153 342" fill="none" xmlns="http://www.w3.org/2000/svg">
<path d="M152.894 23.6237H0.48999V341.863H152.894V23.6237Z" fill="#0092E8"/>
<path d="M47.9723 23.6237H0.48999V341.863H47.9723V23.6237Z" fill="#58C1FF"/>
<path d="M143.123 38.7593H136.103V47.8739H143.123V38.7593Z" fill="white"/>
<path d="M130.327 38.7593H123.308V47.8739H130.327V38.7593Z" fill="white"/>
<path d="M117.532 38.7593H110.512V47.8739H117.532V38.7593Z" fill="white"/>
<path d="M104.736 38.7593H97.7161V47.8739H104.736V38.7593Z" fill="white"/>
<path d="M91.9302 38.7593H84.9106V47.8739H91.9302V38.7593Z" fill="white"/>
<path d="M79.1343 38.7593H72.1147V47.8739H79.1343V38.7593Z" fill="white"/>
<path d="M66.3384 38.7593H59.3188V47.8739H66.3384V38.7593Z" fill="white"/>
<path d="M42.8811 38.7593H35.8616V47.8739H42.8811V38.7593Z" fill="white"/>
<path d="M30.0857 38.7593H23.0662V47.8739H30.0857V38.7593Z" fill="white"/>
<path d="M17.2898 38.7593H10.2703V47.8739H17.2898V38.7593Z" fill="white"/>
<path d="M143.123 57.948H136.103V67.0627H143.123V57.948Z" fill="white"/>
<path d="M130.327 57.948H123.308V67.0627H130.327V57.948Z" fill="white"/>
<path d="M117.532 57.948H110.512V67.0627H117.532V57.948Z" fill="white"/>
<path d="M104.736 57.948H97.7161V67.0627H104.736V57.948Z" fill="white"/>
<path d="M91.9302 57.948H84.9106V67.0627H91.9302V57.948Z" fill="white"/>
<path d="M79.1343 57.948H72.1147V67.0627H79.1343V57.948Z" fill="white"/>
<path d="M66.3384 57.948H59.3188V67.0627H66.3384V57.948Z" fill="white"/>
<path d="M42.8811 57.948H35.8616V67.0627H42.8811V57.948Z" fill="white"/>
<path d="M30.0857 57.948H23.0662V67.0627H30.0857V57.948Z" fill="white"/>
<path d="M17.2898 57.948H10.2703V67.0627H17.2898V57.948Z" fill="white"/>
<path d="M143.123 77.1367H136.103V86.2514H143.123V77.1367Z" fill="white"/>
<path d="M130.327 77.1367H123.308V86.2514H130.327V77.1367Z" fill="white"/>
<path d="M117.532 77.1367H110.512V86.2514H117.532V77.1367Z" fill="white"/>
<path d="M104.736 77.1367H97.7161V86.2514H104.736V77.1367Z" fill="white"/>
<path d="M91.9302 77.1367H84.9106V86.2514H91.9302V77.1367Z" fill="white"/>
<path d="M79.1343 77.1367H72.1147V86.2514H79.1343V77.1367Z" fill="white"/>
<path d="M66.3384 77.1367H59.3188V86.2514H66.3384V77.1367Z" fill="white"/>
<path d="M42.8811 77.1367H35.8616V86.2514H42.8811V77.1367Z" fill="white"/>
<path d="M30.0857 77.1367H23.0662V86.2514H30.0857V77.1367Z" fill="white"/>
<path d="M17.2898 77.1367H10.2703V86.2514H17.2898V77.1367Z" fill="white"/>
<path d="M143.123 96.3255H136.103V105.44H143.123V96.3255Z" fill="white"/>
<path d="M130.327 96.3255H123.308V105.44H130.327V96.3255Z" fill="white"/>
<path d="M117.532 96.3255H110.512V105.44H117.532V96.3255Z" fill="white"/>
<path d="M104.736 96.3255H97.7161V105.44H104.736V96.3255Z" fill="white"/>
<path d="M91.9302 96.3255H84.9106V105.44H91.9302V96.3255Z" fill="white"/>
<path d="M79.1343 96.3255H72.1147V105.44H79.1343V96.3255Z" fill="white"/>
<path d="M66.3384 96.3255H59.3188V105.44H66.3384V96.3255Z" fill="white"/>
<path d="M42.8811 96.3255H35.8616V105.44H42.8811V96.3255Z" fill="white"/>
<path d="M30.0857 96.3255H23.0662V105.44H30.0857V96.3255Z" fill="white"/>
<path d="M17.2898 96.3255H10.2703V105.44H17.2898V96.3255Z" fill="white"/>
<path d="M143.123 115.514H136.103V124.629H143.123V115.514Z" fill="white"/>
<path d="M130.327 115.514H123.308V124.629H130.327V115.514Z" fill="white"/>
<path d="M117.532 115.514H110.512V124.629H117.532V115.514Z" fill="white"/>
<path d="M104.736 115.514H97.7161V124.629H104.736V115.514Z" fill="white"/>
<path d="M91.9302 115.514H84.9106V124.629H91.9302V115.514Z" fill="white"/>
<path d="M79.1343 115.514H72.1147V124.629H79.1343V115.514Z" fill="white"/>
<path d="M66.3384 115.514H59.3188V124.629H66.3384V115.514Z" fill="white"/>
<path d="M42.8811 115.514H35.8616V124.629H42.8811V115.514Z" fill="white"/>
<path d="M30.0857 115.514H23.0662V124.629H30.0857V115.514Z" fill="white"/>
<path d="M17.2898 115.514H10.2703V124.629H17.2898V115.514Z" fill="white"/>
<path d="M143.123 134.703H136.103V143.818H143.123V134.703Z" fill="white"/>
<path d="M130.327 134.703H123.308V143.818H130.327V134.703Z" fill="white"/>
<path d="M117.532 134.703H110.512V143.818H117.532V134.703Z" fill="white"/>
<path d="M104.736 134.703H97.7161V143.818H104.736V134.703Z" fill="white"/>
<path d="M91.9302 134.703H84.9106V143.818H91.9302V134.703Z" fill="white"/>
<path d="M79.1343 134.703H72.1147V143.818H79.1343V134.703Z" fill="white"/>
<path d="M66.3384 134.703H59.3188V143.818H66.3384V134.703Z" fill="white"/>
<path d="M42.8811 134.703H35.8616V143.818H42.8811V134.703Z" fill="white"/>
<path d="M30.0857 134.703H23.0662V143.818H30.0857V134.703Z" fill="white"/>
<path d="M17.2898 134.703H10.2703V143.818H17.2898V134.703Z" fill="white"/>
<path d="M143.123 153.882H136.103V162.997H143.123V153.882Z" fill="white"/>
<path d="M130.327 153.882H123.308V162.997H130.327V153.882Z" fill="white"/>
<path d="M117.532 153.882H110.512V162.997H117.532V153.882Z" fill="white"/>
<path d="M104.736 153.882H97.7161V162.997H104.736V153.882Z" fill="white"/>
<path d="M91.9302 153.882H84.9106V162.997H91.9302V153.882Z" fill="white"/>
<path d="M79.1343 153.882H72.1147V162.997H79.1343V153.882Z" fill="white"/>
<path d="M66.3384 153.882H59.3188V162.997H66.3384V153.882Z" fill="white"/>
<path d="M42.8811 153.882H35.8616V162.997H42.8811V153.882Z" fill="white"/>
<path d="M30.0857 153.882H23.0662V162.997H30.0857V153.882Z" fill="white"/>
<path d="M17.2898 153.882H10.2703V162.997H17.2898V153.882Z" fill="white"/>
<path d="M143.123 173.071H136.103V182.185H143.123V173.071Z" fill="white"/>
<path d="M130.327 173.071H123.308V182.185H130.327V173.071Z" fill="white"/>
<path d="M117.532 173.071H110.512V182.185H117.532V173.071Z" fill="white"/>
<path d="M104.736 173.071H97.7161V182.185H104.736V173.071Z" fill="white"/>
<path d="M91.9302 173.071H84.9106V182.185H91.9302V173.071Z" fill="white"/>
<path d="M79.1343 173.071H72.1147V182.185H79.1343V173.071Z" fill="white"/>
<path d="M66.3384 173.071H59.3188V182.185H66.3384V173.071Z" fill="white"/>
<path d="M42.8811 173.071H35.8616V182.185H42.8811V173.071Z" fill="white"/>
<path d="M30.0857 173.071H23.0662V182.185H30.0857V173.071Z" fill="white"/>
<path d="M17.2898 173.071H10.2703V182.185H17.2898V173.071Z" fill="white"/>
<path d="M143.123 192.259H136.103V201.374H143.123V192.259Z" fill="white"/>
<path d="M130.327 192.259H123.308V201.374H130.327V192.259Z" fill="white"/>
<path d="M117.532 192.259H110.512V201.374H117.532V192.259Z" fill="white"/>
<path d="M104.736 192.259H97.7161V201.374H104.736V192.259Z" fill="white"/>
<path d="M91.9302 192.259H84.9106V201.374H91.9302V192.259Z" fill="white"/>
<path d="M79.1343 192.259H72.1147V201.374H79.1343V192.259Z" fill="white"/>
<path d="M66.3384 192.259H59.3188V201.374H66.3384V192.259Z" fill="white"/>
<path d="M42.8811 192.259H35.8616V201.374H42.8811V192.259Z" fill="white"/>
<path d="M30.0857 192.259H23.0662V201.374H30.0857V192.259Z" fill="white"/>
<path d="M17.2898 192.259H10.2703V201.374H17.2898V192.259Z" fill="white"/>
<path d="M143.123 211.448H136.103V220.563H143.123V211.448Z" fill="white"/>
<path d="M130.327 211.448H123.308V220.563H130.327V211.448Z" fill="white"/>
<path d="M117.532 211.448H110.512V220.563H117.532V211.448Z" fill="white"/>
<path d="M104.736 211.448H97.7161V220.563H104.736V211.448Z" fill="white"/>
<path d="M91.9302 211.448H84.9106V220.563H91.9302V211.448Z" fill="white"/>
<path d="M79.1343 211.448H72.1147V220.563H79.1343V211.448Z" fill="white"/>
<path d="M66.3384 211.448H59.3188V220.563H66.3384V211.448Z" fill="white"/>
<path d="M42.8811 211.448H35.8616V220.563H42.8811V211.448Z" fill="white"/>
<path d="M30.0857 211.448H23.0662V220.563H30.0857V211.448Z" fill="white"/>
<path d="M17.2898 211.448H10.2703V220.563H17.2898V211.448Z" fill="white"/>
<path d="M143.123 230.637H136.103V239.751H143.123V230.637Z" fill="white"/>
<path d="M130.327 230.637H123.308V239.751H130.327V230.637Z" fill="white"/>
<path d="M117.532 230.637H110.512V239.751H117.532V230.637Z" fill="white"/>
<path d="M104.736 230.637H97.7161V239.751H104.736V230.637Z" fill="white"/>
<path d="M91.9302 230.637H84.9106V239.751H91.9302V230.637Z" fill="white"/>
<path d="M79.1343 230.637H72.1147V239.751H79.1343V230.637Z" fill="white"/>
<path d="M66.3384 230.637H59.3188V239.751H66.3384V230.637Z" fill="white"/>
<path d="M42.8811 230.637H35.8616V239.751H42.8811V230.637Z" fill="white"/>
<path d="M30.0857 230.637H23.0662V239.751H30.0857V230.637Z" fill="white"/>
<path d="M17.2898 230.637H10.2703V239.751H17.2898V230.637Z" fill="white"/>
<path d="M143.123 249.826H136.103V258.94H143.123V249.826Z" fill="white"/>
<path d="M130.327 249.826H123.308V258.94H130.327V249.826Z" fill="white"/>
<path d="M117.532 249.826H110.512V258.94H117.532V249.826Z" fill="white"/>
<path d="M104.736 249.826H97.7161V258.94H104.736V249.826Z" fill="white"/>
<path d="M91.9302 249.826H84.9106V258.94H91.9302V249.826Z" fill="white"/>
<path d="M79.1343 249.826H72.1147V258.94H79.1343V249.826Z" fill="white"/>
<path d="M66.3384 249.826H59.3188V258.94H66.3384V249.826Z" fill="white"/>
<path d="M42.8811 249.826H35.8616V258.94H42.8811V249.826Z" fill="white"/>
<path d="M30.0857 249.826H23.0662V258.94H30.0857V249.826Z" fill="white"/>
<path d="M17.2898 249.826H10.2703V258.94H17.2898V249.826Z" fill="white"/>
<path d="M143.123 269.014H136.103V278.129H143.123V269.014Z" fill="white"/>
<path d="M130.327 269.014H123.308V278.129H130.327V269.014Z" fill="white"/>
<path d="M117.532 269.014H110.512V278.129H117.532V269.014Z" fill="white"/>
<path d="M104.736 269.014H97.7161V278.129H104.736V269.014Z" fill="white"/>
<path d="M91.9302 269.014H84.9106V278.129H91.9302V269.014Z" fill="white"/>
<path d="M79.1343 269.014H72.1147V278.129H79.1343V269.014Z" fill="white"/>
<path d="M66.3384 269.014H59.3188V278.129H66.3384V269.014Z" fill="white"/>
<path d="M42.8811 269.014H35.8616V278.129H42.8811V269.014Z" fill="white"/>
<path d="M30.0857 269.014H23.0662V278.129H30.0857V269.014Z" fill="white"/>
<path d="M17.2898 269.014H10.2703V278.129H17.2898V269.014Z" fill="white"/>
<path d="M143.123 288.193H136.103V297.308H143.123V288.193Z" fill="white"/>
<path d="M130.327 288.193H123.308V297.308H130.327V288.193Z" fill="white"/>
<path d="M117.532 288.193H110.512V297.308H117.532V288.193Z" fill="white"/>
<path d="M104.736 288.193H97.7161V297.308H104.736V288.193Z" fill="white"/>
<path d="M91.9302 288.193H84.9106V297.308H91.9302V288.193Z" fill="white"/>
<path d="M79.1343 288.193H72.1147V297.308H79.1343V288.193Z" fill="white"/>
<path d="M66.3384 288.193H59.3188V297.308H66.3384V288.193Z" fill="white"/>
<path d="M42.8811 288.193H35.8616V297.308H42.8811V288.193Z" fill="white"/>
<path d="M30.0857 288.193H23.0662V297.308H30.0857V288.193Z" fill="white"/>
<path d="M17.2898 288.193H10.2703V297.308H17.2898V288.193Z" fill="white"/>
<path d="M143.123 307.382H136.103V316.497H143.123V307.382Z" fill="white"/>
<path d="M130.327 307.382H123.308V316.497H130.327V307.382Z" fill="white"/>
<path d="M117.532 307.382H110.512V316.497H117.532V307.382Z" fill="white"/>
<path d="M104.736 307.382H97.7161V316.497H104.736V307.382Z" fill="white"/>
<path d="M91.9302 307.382H84.9106V316.497H91.9302V307.382Z" fill="white"/>
<path d="M79.1343 307.382H72.1147V316.497H79.1343V307.382Z" fill="white"/>
<path d="M66.3384 307.382H59.3188V316.497H66.3384V307.382Z" fill="white"/>
<path d="M42.8811 307.382H35.8616V316.497H42.8811V307.382Z" fill="white"/>
<path d="M30.0857 307.382H23.0662V316.497H30.0857V307.382Z" fill="white"/>
<path d="M17.2898 307.382H10.2703V316.497H17.2898V307.382Z" fill="white"/>
<path d="M131.502 23.6237H21.8916V10.123C21.8916 4.53285 26.4244 3.8147e-06 32.0146 3.8147e-06H121.379C126.969 3.8147e-06 131.502 4.53285 131.502 10.123V23.6237Z" fill="#0092E8"/>
<path d="M72.3012 3.8147e-06H31.2706C26.0916 3.8147e-06 21.8916 4.2881 21.8916 9.565V23.6139H72.3012V3.8147e-06Z" fill="#58C1FF"/>
</svg>
