<svg width="121" height="186" viewBox="0 0 121 186" fill="none" xmlns="http://www.w3.org/2000/svg">
<path d="M120.352 0.672104H0.490723V185.863H120.352V0.672104Z" fill="#0092E8"/>
<path d="M37.8304 0.672104H0.490723V185.863H37.8304V0.672104Z" fill="#58C1FF"/>
<path d="M112.667 10.0021H107.145V37.6594H112.667V10.0021Z" fill="white"/>
<path d="M102.602 10.0021H97.0808V37.6594H102.602V10.0021Z" fill="white"/>
<path d="M92.538 10.0021H87.0164V37.6594H92.538V10.0021Z" fill="white"/>
<path d="M82.4735 10.0021H76.9519V37.6594H82.4735V10.0021Z" fill="white"/>
<path d="M72.4094 10.0021H66.8877V37.6594H72.4094V10.0021Z" fill="white"/>
<path d="M62.3449 10.0021H56.8232V37.6594H62.3449V10.0021Z" fill="white"/>
<path d="M52.2807 10.0021H46.759V37.6594H52.2807V10.0021Z" fill="white"/>
<path d="M33.8263 10.0021H28.3047V37.6594H33.8263V10.0021Z" fill="white"/>
<path d="M23.7619 10.0021H18.2402V37.6594H23.7619V10.0021Z" fill="white"/>
<path d="M13.6979 10.0021H8.17627V37.6594H13.6979V10.0021Z" fill="white"/>
<path d="M112.667 41.2621H107.145V68.9194H112.667V41.2621Z" fill="white"/>
<path d="M102.602 41.2621H97.0808V68.9194H102.602V41.2621Z" fill="white"/>
<path d="M92.538 41.2621H87.0164V68.9194H92.538V41.2621Z" fill="white"/>
<path d="M82.4735 41.2621H76.9519V68.9194H82.4735V41.2621Z" fill="white"/>
<path d="M72.4094 41.2621H66.8877V68.9194H72.4094V41.2621Z" fill="white"/>
<path d="M62.3449 41.2621H56.8232V68.9194H62.3449V41.2621Z" fill="white"/>
<path d="M52.2807 41.2621H46.759V68.9194H52.2807V41.2621Z" fill="white"/>
<path d="M33.8263 41.2621H28.3047V68.9194H33.8263V41.2621Z" fill="white"/>
<path d="M23.7619 41.2621H18.2402V68.9194H23.7619V41.2621Z" fill="white"/>
<path d="M13.6979 41.2621H8.17627V68.9194H13.6979V41.2621Z" fill="white"/>
<path d="M112.667 72.5222H107.145V100.179H112.667V72.5222Z" fill="white"/>
<path d="M102.602 72.5222H97.0808V100.179H102.602V72.5222Z" fill="white"/>
<path d="M92.538 72.5222H87.0164V100.179H92.538V72.5222Z" fill="white"/>
<path d="M82.4735 72.5222H76.9519V100.179H82.4735V72.5222Z" fill="white"/>
<path d="M72.4094 72.5222H66.8877V100.179H72.4094V72.5222Z" fill="white"/>
<path d="M62.3449 72.5222H56.8232V100.179H62.3449V72.5222Z" fill="white"/>
<path d="M52.2807 72.5222H46.759V100.179H52.2807V72.5222Z" fill="white"/>
<path d="M33.8263 72.5222H28.3047V100.179H33.8263V72.5222Z" fill="white"/>
<path d="M23.7619 72.5222H18.2402V100.179H23.7619V72.5222Z" fill="white"/>
<path d="M13.6979 72.5222H8.17627V100.179H13.6979V72.5222Z" fill="white"/>
<path d="M112.667 103.782H107.145V131.439H112.667V103.782Z" fill="white"/>
<path d="M102.602 103.782H97.0808V131.439H102.602V103.782Z" fill="white"/>
<path d="M92.538 103.782H87.0164V131.439H92.538V103.782Z" fill="white"/>
<path d="M82.4735 103.782H76.9519V131.439H82.4735V103.782Z" fill="white"/>
<path d="M72.4094 103.782H66.8877V131.439H72.4094V103.782Z" fill="white"/>
<path d="M62.3449 103.782H56.8232V131.439H62.3449V103.782Z" fill="white"/>
<path d="M52.2807 103.782H46.759V131.439H52.2807V103.782Z" fill="white"/>
<path d="M33.8263 103.782H28.3047V131.439H33.8263V103.782Z" fill="white"/>
<path d="M23.7619 103.782H18.2402V131.439H23.7619V103.782Z" fill="white"/>
<path d="M13.6979 103.782H8.17627V131.439H13.6979V103.782Z" fill="white"/>
<path d="M112.667 135.052H107.145V162.709H112.667V135.052Z" fill="white"/>
<path d="M102.602 135.052H97.0808V162.709H102.602V135.052Z" fill="white"/>
<path d="M92.538 135.052H87.0164V162.709H92.538V135.052Z" fill="white"/>
<path d="M82.4735 135.052H76.9519V162.709H82.4735V135.052Z" fill="white"/>
<path d="M72.4094 135.052H66.8877V162.709H72.4094V135.052Z" fill="white"/>
<path d="M62.3449 135.052H56.8232V162.709H62.3449V135.052Z" fill="white"/>
<path d="M52.2807 135.052H46.759V162.709H52.2807V135.052Z" fill="white"/>
<path d="M33.8263 135.052H28.3047V162.709H33.8263V135.052Z" fill="white"/>
<path d="M23.7619 135.052H18.2402V162.709H23.7619V135.052Z" fill="white"/>
<path d="M13.6979 135.052H8.17627V162.709H13.6979V135.052Z" fill="white"/>
</svg>
