<svg width="182" height="182" viewBox="0 0 182 182" fill="none" xmlns="http://www.w3.org/2000/svg">
<g filter="url(#filter0_d)">
<rect x="16" y="10" width="150" height="150" rx="26" fill="#0092E8"/>
</g>
<g clip-path="url(#clip0)">
<path d="M140.416 74.1599L91.8715 39.4288C91.3887 39.0839 90.7392 39.0839 90.2564 39.4288L41.5827 74.1591C40.9581 74.604 40.8124 75.472 41.258 76.0966C41.7036 76.7213 42.5709 76.8662 43.1955 76.4206L51.0922 70.7862V129.318C51.0922 130.085 51.7138 130.707 52.4811 130.707H59.9569C60.7242 130.707 61.3458 130.085 61.3458 129.318V87.2477H120.651V129.318C120.651 130.085 121.274 130.707 122.04 130.707H129.516C130.283 130.707 130.905 130.085 130.905 129.318V70.7707L138.8 76.4191C139.203 76.7097 139.731 76.7624 140.184 76.557C140.637 76.3516 140.946 75.9207 140.993 75.4255C141.041 74.931 140.821 74.4482 140.416 74.1599ZM120.651 76.6601H61.345V70.9218H120.651V76.6601ZM61.345 84.47V79.437H120.651V84.47H61.345ZM128.127 127.929H123.429V69.533C123.429 68.7657 122.807 68.1442 122.04 68.1442H59.9562C59.1897 68.1442 58.5673 68.7657 58.5673 69.533V127.929H53.8691V68.8045L91.0624 42.2654L128.127 68.7835V127.929Z" fill="white"/>
<path d="M73.0728 112.026C71.0407 112.026 69.3945 113.673 69.3945 115.704C69.3945 117.735 71.0407 119.382 73.0728 119.382C75.1041 119.382 76.751 117.735 76.751 115.704C76.7487 113.673 75.1033 112.028 73.0728 112.026ZM73.0728 116.604C72.5752 116.604 72.1722 116.201 72.1722 115.704C72.1722 115.206 72.5752 114.803 73.0728 114.803C73.5696 114.803 73.9734 115.206 73.9734 115.704C73.9726 116.201 73.5696 116.603 73.0728 116.604V116.604Z" fill="white"/>
<path d="M108.925 112.026C106.893 112.026 105.246 113.673 105.246 115.704C105.246 117.735 106.893 119.382 108.925 119.382C110.956 119.382 112.603 117.735 112.603 115.704C112.601 113.673 110.955 112.028 108.925 112.026ZM108.925 116.604C108.427 116.604 108.024 116.201 108.024 115.704C108.024 115.206 108.427 114.803 108.925 114.803C109.422 114.803 109.825 115.206 109.825 115.704C109.824 116.201 109.421 116.603 108.925 116.604V116.604Z" fill="white"/>
<path d="M64.8805 111.913L66.1678 122.08C66.212 123.607 67.2141 124.941 68.6688 125.408V128.215C68.6704 129.591 69.7856 130.706 71.1621 130.708H74.5156C75.892 130.706 77.0073 129.591 77.0088 128.215V125.58H104.987V128.215C104.989 129.591 106.104 130.706 107.48 130.708H110.833C112.21 130.706 113.325 129.591 113.326 128.215V125.387C114.751 124.904 115.726 123.587 115.772 122.084L117.115 111.92C117.122 111.86 117.127 111.799 117.127 111.738C117.133 110.375 116.672 109.051 115.82 107.988C116.437 107.74 116.791 107.089 116.665 106.437C116.539 105.783 115.968 105.311 115.303 105.311L112.266 105.313L108.718 98.7723C107.387 96.3868 105.43 93.6487 102.085 93.6487H80.0965C77.3878 93.6487 75.0054 95.4739 73.3856 98.7909L69.7097 105.305L66.6917 105.311C66.0368 105.314 65.4726 105.775 65.3393 106.416C65.2052 107.057 65.5369 107.704 66.136 107.97C65.3021 109.047 64.8565 110.374 64.8712 111.737C64.8704 111.796 64.8735 111.854 64.8805 111.913ZM74.2319 127.929H71.4465V125.58H74.2319V127.929ZM107.765 127.929V125.58H110.549V127.929H107.765ZM113.007 121.799C112.999 121.859 112.995 121.92 112.995 121.981C112.989 122.431 112.625 122.795 112.175 122.801H69.7639C69.3136 122.795 68.9501 122.431 68.9439 121.981C68.9439 121.923 68.9401 121.865 68.9331 121.807L67.6481 111.656C67.683 109.93 68.8238 108.874 69.977 108.786C70.0235 108.791 70.0708 108.794 70.1173 108.795H111.814C113.35 108.795 114.311 110.263 114.348 111.653L113.007 121.799ZM98.246 106.017C98.7435 104.834 99.9022 104.064 101.186 104.064C102.47 104.064 103.628 104.834 104.126 106.017H98.246ZM75.8246 100.119C75.8393 100.094 75.8525 100.068 75.8641 100.042C76.519 98.691 77.9404 96.4256 80.0957 96.4256H102.085C103.587 96.4256 104.845 97.5323 106.284 100.112L109.488 106.018H107.025C106.44 103.26 104.006 101.287 101.187 101.287C98.3676 101.287 95.9333 103.26 95.3489 106.018H72.4959L75.8246 100.119Z" fill="white"/>
<path d="M102.185 113.998C101.607 112.298 99.7457 110.966 97.95 110.966H83.9895C82.186 110.966 80.3345 112.308 79.7742 114.023L79.0751 116.164C78.9372 116.588 79.01 117.051 79.2712 117.411C79.5324 117.771 79.9509 117.984 80.3957 117.984H101.601C102.049 117.984 102.469 117.768 102.73 117.404C102.991 117.04 103.06 116.572 102.916 116.148L102.185 113.998ZM82.31 115.206L82.4155 114.885C82.6859 114.241 83.2928 113.801 83.9895 113.743H97.95C98.656 113.802 99.2722 114.244 99.5551 114.893L99.662 115.207L82.31 115.206Z" fill="white"/>
</g>
<defs>
<filter id="filter0_d" x="0" y="0" width="182" height="182" filterUnits="userSpaceOnUse" color-interpolation-filters="sRGB">
<feFlood flood-opacity="0" result="BackgroundImageFix"/>
<feColorMatrix in="SourceAlpha" type="matrix" values="0 0 0 0 0 0 0 0 0 0 0 0 0 0 0 0 0 0 127 0"/>
<feOffset dy="6"/>
<feGaussianBlur stdDeviation="8"/>
<feColorMatrix type="matrix" values="0 0 0 0 0 0 0 0 0 0.572549 0 0 0 0 0.909804 0 0 0 0.44 0"/>
<feBlend mode="normal" in2="BackgroundImageFix" result="effect1_dropShadow"/>
<feBlend mode="normal" in="SourceGraphic" in2="effect1_dropShadow" result="shape"/>
</filter>
<clipPath id="clip0">
<rect x="41" y="35" width="100" height="100" fill="white"/>
</clipPath>
</defs>
</svg>
