<svg width="69" height="69" viewBox="0 0 69 69" fill="none" xmlns="http://www.w3.org/2000/svg">
<rect width="69" height="69" rx="12" fill="#0092E8"/>
<path d="M22.9446 38.7855C23.4084 38.7855 23.7844 38.4095 23.7844 37.9456C23.7844 37.4818 23.4084 37.1058 22.9446 37.1058C22.4807 37.1058 22.1047 37.4818 22.1047 37.9456C22.1047 38.4095 22.4807 38.7855 22.9446 38.7855Z" fill="white"/>
<path d="M56 30.9303V30.8432C56 28.8986 54.4179 27.3164 52.4732 27.3164H42.407C43.7015 25.0711 44.4004 22.5542 44.4417 19.9523C44.4487 19.5159 44.4453 19.0654 44.4416 18.5885C44.4392 18.2804 44.4367 17.9545 44.4367 17.6024C44.4367 15.7827 42.9598 14.3019 41.1427 14.2973C40.8039 14.294 39.6748 14.3498 38.7864 15.2777C38.382 15.7 38.1027 16.2325 37.9786 16.8173C37.7386 17.9483 37.4391 18.9139 37.063 19.7694C35.6847 22.9047 33.7204 25.5239 31.2248 27.5542C30.5605 28.0947 29.8548 28.5931 29.118 29.0458C28.8416 28.0498 27.9274 27.3163 26.8445 27.3163H13.8398C13.376 27.3163 13 27.6924 13 28.1562V49.863C13 50.3268 13.376 50.7029 13.8398 50.7029H26.8445C28.0769 50.7029 29.0909 49.7531 29.1947 48.5472C30.8076 49.9406 32.8484 50.7029 34.9947 50.7029H52.4731C54.4178 50.7029 56 49.1207 56 47.176C56 46.1008 55.5164 45.1365 54.7552 44.489C55.5164 43.8416 56 42.8773 56 41.8019V41.6966C56 40.6214 55.5164 39.6571 54.7552 39.0096C55.5163 38.3622 56 37.3978 56 36.3226V36.3043C56 35.2291 55.5164 34.2648 54.7552 33.6173C55.5164 32.97 56 32.0056 56 30.9303ZM27.5244 30.431C27.5244 30.4324 27.5244 30.4338 27.5244 30.4352V48.3434C27.5244 48.7182 27.2195 49.0233 26.8445 49.0233H23.7842V41.7059C23.7842 41.2422 23.4082 40.8661 22.9443 40.8661C22.4805 40.8661 22.1045 41.2422 22.1045 41.7059V49.0233H14.6797V28.9961H26.8445C27.2194 28.9961 27.5244 29.3011 27.5244 29.676V30.431ZM50.147 34.4572H52.4731C53.4916 34.4572 54.3203 35.2858 54.3203 36.3043V36.3226C54.3203 37.3412 53.4916 38.1698 52.4731 38.1698H50.147C49.6831 38.1698 49.3071 38.5459 49.3071 39.0096C49.3071 39.4734 49.6831 39.8495 50.147 39.8495H52.4731C53.4916 39.8495 54.3202 40.6781 54.3202 41.6966V41.8019C54.3202 42.8205 53.4916 43.6492 52.473 43.6492H50.1469C49.683 43.6492 49.307 44.0253 49.307 44.489C49.307 44.9528 49.683 45.3289 50.1469 45.3289H52.473C53.4915 45.3289 54.3201 46.1575 54.3201 47.176C54.3201 48.1946 53.4915 49.0232 52.4729 49.0232H34.9948C33.1207 49.0232 31.3455 48.3069 29.9963 47.0061L29.2041 46.2425V30.9425C30.2932 30.3357 31.3277 29.6359 32.2847 28.8572C34.989 26.6571 37.114 23.8269 38.6006 20.4454C39.0236 19.4834 39.3575 18.4107 39.6217 17.1659C39.6818 16.883 39.8089 16.6385 39.9996 16.4393C40.413 16.0075 40.9534 15.9767 41.0988 15.9767C41.1137 15.9767 41.1234 15.977 41.1343 15.977C42.0289 15.977 42.7568 16.7062 42.7569 17.6024C42.7569 17.9592 42.7594 18.2893 42.7619 18.6015C42.7654 19.0683 42.7688 19.5092 42.7622 19.9257C42.718 22.7101 41.8264 25.3864 40.1839 27.6652C39.9995 27.921 39.9739 28.2584 40.1176 28.539C40.2612 28.8196 40.55 28.9961 40.8652 28.9961H52.4731C53.4916 28.9961 54.3202 29.8247 54.3202 30.8432V30.9303H54.3203C54.3203 31.9488 53.4916 32.7775 52.4731 32.7775H50.147C49.6831 32.7775 49.3071 33.1536 49.3071 33.6173C49.3071 34.0811 49.6831 34.4572 50.147 34.4572Z" fill="white"/>
</svg>
