<svg id="Слой_1" data-name="Слой 1" xmlns="http://www.w3.org/2000/svg" xmlns:xlink="http://www.w3.org/1999/xlink" viewBox="0 0 78.81 45.16"><defs><style>.cls-1{fill:#6687a8;}.cls-2{fill:none;}.cls-3{mask:url(#mask);}.cls-4{clip-path:url(#clip-path);}.cls-5{fill:#0092e8;}.cls-6{fill:#fff;}.cls-7{fill:#0f4c81;}</style><mask id="mask" x="-81.46" y="-191.92" width="300" height="300" maskUnits="userSpaceOnUse"><g transform="translate(-81.46 -209.08)"><g id="mask0"><rect class="cls-1" y="17.16" width="300" height="300"/></g></g></mask><clipPath id="clip-path" transform="translate(-81.46 -209.08)"><rect class="cls-2" x="48.52" y="20.6" width="180.49" height="258.79"/></clipPath></defs><title>new-process-3-img-5</title><g class="cls-4"><path class="cls-5" d="M87.58,209.57h66.56a5.64,5.64,0,0,1,5.63,5.64v32.92a5.64,5.64,0,0,1-5.63,5.64H87.58a5.64,5.64,0,0,1-5.64-5.64V215.21A5.65,5.65,0,0,1,87.58,209.57Z" transform="translate(-81.46 -209.08)"/><path class="cls-5" d="M154.14,254.24H87.59a6.13,6.13,0,0,1-6.13-6.12V215.2a6.13,6.13,0,0,1,6.13-6.12h66.55a6.13,6.13,0,0,1,6.13,6.12v32.92A6.13,6.13,0,0,1,154.14,254.24ZM87.58,210.06a5.16,5.16,0,0,0-5.16,5.15v32.92a5.16,5.16,0,0,0,5.16,5.15h66.56a5.16,5.16,0,0,0,5.15-5.15V215.21a5.16,5.16,0,0,0-5.15-5.15Z" transform="translate(-81.46 -209.08)"/><path class="cls-6" d="M88.92,219.52v-3.65l-1,.58v-1.39l1.21-.85H90.6v5.31Zm4.85.09a2.24,2.24,0,0,1-1.83-.7,2.93,2.93,0,0,1-.59-1.93v-.14a2.82,2.82,0,0,1,.68-2,2.3,2.3,0,0,1,1.75-.73q1.93,0,2.1,1.62H94.34a.5.5,0,0,0-.14-.28.46.46,0,0,0-.34-.1c-.54,0-.82.42-.85,1.27a1.37,1.37,0,0,1,.48-.45,1.54,1.54,0,0,1,.74-.15,1.87,1.87,0,0,1,1.26.43,1.59,1.59,0,0,1,.5,1.26,1.72,1.72,0,0,1-.6,1.37A2.42,2.42,0,0,1,93.77,219.61Zm-.48-1.37a.63.63,0,0,0,.9,0,.76.76,0,0,0,.17-.5.69.69,0,0,0-.17-.48.55.55,0,0,0-.44-.19.58.58,0,0,0-.46.19.67.67,0,0,0-.17.48A.71.71,0,0,0,93.29,218.24Zm5.63.07a.69.69,0,0,0,.63-.32,2.09,2.09,0,0,0,.19-1v-.2a2,2,0,0,0-.2-1,.67.67,0,0,0-.63-.32.69.69,0,0,0-.65.32,2.08,2.08,0,0,0-.2,1v.2a2.05,2.05,0,0,0,.2,1A.7.7,0,0,0,98.92,218.31Zm0,1.3a2.4,2.4,0,0,1-1.82-.69,2.71,2.71,0,0,1-.66-1.95v-.21a2.59,2.59,0,0,1,.71-1.93,2.43,2.43,0,0,1,1.8-.7,2.37,2.37,0,0,1,2.51,2.6v.2a2.74,2.74,0,0,1-.69,2A2.44,2.44,0,0,1,98.87,219.61Zm4.23-.09v-.18l2.12-3.87h-1.83v-1.26h4.18v.18l-2.1,3.86h2v1.27Zm4.81-1.67V217l.45-.15v-2.63h1.69v2l1.31-.45v.86l-1.31.45v1.1H112v1.3h-3.62V217.7Z" transform="translate(-81.46 -209.08)"/><path class="cls-6" d="M130.28,226.05H87.57v2.52h42.71Z" transform="translate(-81.46 -209.08)"/><path class="cls-6" d="M147.22,230.19H87.57v2.52h59.65Z" transform="translate(-81.46 -209.08)"/><path class="cls-6" d="M140.45,234.34H87.57v2.51h52.88Z" transform="translate(-81.46 -209.08)"/><path class="cls-6" d="M147.22,238.49H87.57V241h59.65Z" transform="translate(-81.46 -209.08)"/><path class="cls-7" d="M123.39,242.63H87.57v2.52h35.82Z" transform="translate(-81.46 -209.08)"/><path class="cls-7" d="M134.93,246.77H87.57v2.52h47.36Z" transform="translate(-81.46 -209.08)"/></g></svg>