<svg id="Слой_1" data-name="Слой 1" xmlns="http://www.w3.org/2000/svg" xmlns:xlink="http://www.w3.org/1999/xlink" viewBox="0 0 75.57 41.24"><defs><style>.cls-1{fill:#6687a8;}.cls-2{fill:none;}.cls-3{mask:url(#mask);}.cls-4{clip-path:url(#clip-path);}.cls-5{fill:#262721;}.cls-6{fill:#0092e8;}.cls-7{fill:#fff;}.cls-8{fill:#0f4c81;}</style><mask id="mask" x="-144.35" y="-42.88" width="300" height="300" maskUnits="userSpaceOnUse"><g transform="translate(-144.35 -60.04)"><g id="mask0"><rect class="cls-1" y="17.16" width="300" height="300"/></g></g></mask><clipPath id="clip-path" transform="translate(-144.35 -60.04)"><rect class="cls-2" x="48.52" y="20.6" width="180.49" height="258.79"/></clipPath></defs><title>new-process-3-img-2</title><g class="cls-4"><path class="cls-5" d="M193.05,86.68h-10a.63.63,0,1,1,0-1.25h10a.63.63,0,0,1,.63.62A.64.64,0,0,1,193.05,86.68Z" transform="translate(-144.35 -60.04)"/><path class="cls-5" d="M197.33,87.62a1.57,1.57,0,1,0-1.56-1.57A1.56,1.56,0,0,0,197.33,87.62Z" transform="translate(-144.35 -60.04)"/><path class="cls-6" d="M213.8,60.52H150.49a5.63,5.63,0,0,0-5.64,5.64V89.33A5.63,5.63,0,0,0,150.49,95h45.25l9.88,5.82L204.1,95h9.7a5.64,5.64,0,0,0,5.64-5.64V66.16A5.64,5.64,0,0,0,213.8,60.52Z" transform="translate(-144.35 -60.04)"/><path class="cls-6" d="M205.62,101.28a.57.57,0,0,1-.25-.06l-9.77-5.75H150.48a6.14,6.14,0,0,1-6.13-6.13V66.16A6.13,6.13,0,0,1,150.48,60H213.8a6.13,6.13,0,0,1,6.12,6.12V89.34a6.13,6.13,0,0,1-6.12,6.13h-9.07l1.36,5.21a.48.48,0,0,1-.18.51A.48.48,0,0,1,205.62,101.28ZM150.49,61a5.16,5.16,0,0,0-5.16,5.16V89.33a5.16,5.16,0,0,0,5.16,5.16h45.25a.54.54,0,0,1,.25.06l8.87,5.23-1.22-4.68a.48.48,0,0,1,.47-.61h9.7A5.16,5.16,0,0,0,219,89.33V66.16A5.16,5.16,0,0,0,213.81,61Z" transform="translate(-144.35 -60.04)"/><path class="cls-7" d="M174.8,77.87h39V75.35h-39Z" transform="translate(-144.35 -60.04)"/><path class="cls-7" d="M182,82h31.84V79.5H182Z" transform="translate(-144.35 -60.04)"/><path class="cls-7" d="M196.61,86.16h17.2V83.65h-17.2Z" transform="translate(-144.35 -60.04)"/><path class="cls-8" d="M193.74,66.17l1.61-.84L195,67.12l1.3,1.26-1.79.27-.81,1.62-.8-1.62-1.79-.27,1.3-1.26-.32-1.79Z" transform="translate(-144.35 -60.04)"/><path class="cls-8" d="M157.66,86a8.3,8.3,0,1,0-8.29-8.3A8.3,8.3,0,0,0,157.66,86Z" transform="translate(-144.35 -60.04)"/><path class="cls-7" d="M162.49,74.38a.32.32,0,0,0-.6-.13l0,0s-.05,0-.06,0l0,0a2.54,2.54,0,0,0-1.13-2.07,7.15,7.15,0,0,0-3.39-.56,3.21,3.21,0,0,1-1.77-.16,2.88,2.88,0,0,0-.47-.3c-.57-.15-.83.44-.75.92a.65.65,0,0,0-.59.37c-.07.13-.06.27-.12.4-.16.34-.39.57-.26,1a.76.76,0,0,0,.09.92,2.42,2.42,0,0,1,.27.41c.06.14,0,.31-.09.44a5.08,5.08,0,0,0-.17,3.06.79.79,0,0,0-.36,1l.08.12a.88.88,0,0,0,.36.27c.17.1,0,.47.09.66.07.45.48.73.89.44.26,0,.47.71.66.9a3,3,0,0,0,.39.41c.42,1.07,2.55,1.61,3.6,1.56a3.88,3.88,0,0,0,2.46-1.89,3.17,3.17,0,0,0,.6-1.48,7.4,7.4,0,0,0,0-1.63c-.11-1.16-.28-2.83-.39-4A.78.78,0,0,0,162.49,74.38Z" transform="translate(-144.35 -60.04)"/><path d="M158.8,84.44a2.36,2.36,0,0,1-.8-.14h0c-.48-.19-.76-.44-.83-.73a.3.3,0,0,1,.05-.23.32.32,0,0,1,.09-.08l.12,0a.31.31,0,0,1,.13,0,1.44,1.44,0,0,1,.25.18v0a.66.66,0,0,0,.17.12,1.16,1.16,0,0,0,.43.18,2.12,2.12,0,0,0,.44,0,1.7,1.7,0,0,0,.55-.08,2.06,2.06,0,0,0,.48-.21,4.78,4.78,0,0,0,.44-.29,4.49,4.49,0,0,0,.39-.36c.11-.11.23-.23.36-.38a5.86,5.86,0,0,0,.66-.91,2.37,2.37,0,0,0,.2-.54,2.78,2.78,0,0,0,.07-.57c0-.33,0-.66-.08-1l0-.36c0-.49-.08-.94-.12-1.37s0-.67,0-1V76.4c0-.18,0-.35,0-.51v-.17a1,1,0,0,0,0-.17,3,3,0,0,1,0-.52s0,0,0,0h0a.47.47,0,0,1,0,.14h0A.72.72,0,0,0,162,75a1.57,1.57,0,0,0,.19-.15,1.09,1.09,0,0,0,.13-.17.9.9,0,0,1,.15-.19.16.16,0,0,1,.12,0,.17.17,0,0,1,.14.07.14.14,0,0,1,0,.14.47.47,0,0,1-.16.25,1.09,1.09,0,0,1-.72.25h-.09a3.43,3.43,0,0,1,.09.44,1.43,1.43,0,0,1,0,.22c.05.27.1.54.16.82,0,.09,0,.18,0,.27s.07.34.09.52.05.34.07.51,0,.19.05.29c0,.36.09.74.13,1.09a2.6,2.6,0,0,0,0,.26l0,.21c0,.21,0,.45.06.68a2.5,2.5,0,0,1-.06.67,2.75,2.75,0,0,1-.21.61,3.92,3.92,0,0,1-.33.56,8.24,8.24,0,0,1-.8,1,3.48,3.48,0,0,1-2.07,1.12ZM156,83a.67.67,0,0,1-.4-.25l-.05-.05h0a3.57,3.57,0,0,1-.43-.44,3.39,3.39,0,0,1-.34-.5,2,2,0,0,1-.22-.57.41.41,0,0,1-.09.2.52.52,0,0,1-.3.16l-.15,0a.53.53,0,0,1-.28-.07.57.57,0,0,1-.22-.19.66.66,0,0,1-.13-.31.91.91,0,0,1,0-.33v0a.43.43,0,0,1,0-.11l-.08,0a1.31,1.31,0,0,1-.28-.2,1.43,1.43,0,0,1-.35-.56,1.14,1.14,0,0,1,0-.66,1.25,1.25,0,0,1,.21-.37,1.07,1.07,0,0,1,.16-.14.71.71,0,0,1,.18-.12,1.28,1.28,0,0,1-.07-.28v-.05a4.16,4.16,0,0,1,0-1.45,4.81,4.81,0,0,1,.19-.77,2.73,2.73,0,0,1,.36-.7,1.63,1.63,0,0,1-.62-.42.81.81,0,0,1-.19-.34.61.61,0,0,1,0-.19.59.59,0,0,1,0-.19.5.5,0,0,1,.14-.15.71.71,0,0,1-.09-.28.89.89,0,0,1,0-.28.73.73,0,0,1,.46-.49.74.74,0,0,1,0-.33.72.72,0,0,1,.39-.46.81.81,0,0,1,.27,0h.13a1.32,1.32,0,0,0,0-.28,2,2,0,0,1,0-.42.85.85,0,0,1,.08-.17.32.32,0,0,1,.11-.12.5.5,0,0,1,.31-.1.59.59,0,0,1,.34.1,1.5,1.5,0,0,1,.25.19l.16.13a2,2,0,0,0,.46.24,2.93,2.93,0,0,0,1,.16h0a7.72,7.72,0,0,0,1.17-.11,9.24,9.24,0,0,1,1.18-.1h.13a2.72,2.72,0,0,1,.49,0,2.19,2.19,0,0,1,.49.12,2.34,2.34,0,0,1,.84.51,1.69,1.69,0,0,1,.31.43,2.08,2.08,0,0,1,.19.49c0,.16.07.33.1.49v0a.28.28,0,0,0,0,.09.76.76,0,0,1,0,.21,1.11,1.11,0,0,1,0,.19s0,0,0,.07a.12.12,0,0,1,0,.1.15.15,0,0,1-.11,0,.18.18,0,0,1-.12,0,.26.26,0,0,1-.07-.1,2.25,2.25,0,0,1-.07-.52,4.14,4.14,0,0,0-.09-.6,1.6,1.6,0,0,0-.23-.45,1.3,1.3,0,0,0-.35-.35,3.79,3.79,0,0,0-.34-.2,2.29,2.29,0,0,0-.37-.12,2.73,2.73,0,0,0-.76-.08,7.85,7.85,0,0,0-1.19.1h0a9.09,9.09,0,0,1-1.17.11h-.18a3.91,3.91,0,0,1-.48,0,2,2,0,0,1-.46-.12,2.72,2.72,0,0,1-.46-.21l-.25-.19-.11-.09,0,0a.44.44,0,0,0-.22-.1.08.08,0,0,0-.08,0,.27.27,0,0,0,0,.18v0c0,.07,0,.14,0,.2v.29a.93.93,0,0,1,0,.29.24.24,0,0,1-.2.15.14.14,0,0,1-.09,0h0a.33.33,0,0,0-.14,0,.3.3,0,0,0-.16,0,.34.34,0,0,0-.12.12.51.51,0,0,0,0,.13.34.34,0,0,0,.05.14h0a.27.27,0,0,1,0,.26l-.07.07a.2.2,0,0,1-.11,0h0a.35.35,0,0,0-.22.08.34.34,0,0,0-.11.17.28.28,0,0,0,0,.2.27.27,0,0,0,.14.16h0a.2.2,0,0,1,.09.11.24.24,0,0,1,0,.12.18.18,0,0,1-.07.11.17.17,0,0,1-.14,0,.18.18,0,0,1-.1,0s0,0,0,0h0l0,0a.09.09,0,0,0,0,.08.37.37,0,0,0,.07.14l.11.12a1.31,1.31,0,0,0,.27.19,1.57,1.57,0,0,0,.3.12,2,2,0,0,0,.68.09,6.19,6.19,0,0,0,1.43-.23l.42-.1a4.94,4.94,0,0,1,1.14-.14,2.34,2.34,0,0,1,.38,0,2.2,2.2,0,0,1,.37.07,1.55,1.55,0,0,1,.36.13l.33.2s0,0,0,0a0,0,0,0,1,0,0h0a1.52,1.52,0,0,0-.5-.19,2.24,2.24,0,0,0-.52-.06,3.39,3.39,0,0,0-.78.09c-.29.07-.59.15-.87.24a9.08,9.08,0,0,1-1.44.33,2.08,2.08,0,0,1,.25,1.3,2.26,2.26,0,0,1-.11.43c-.06.14-.13.28-.19.41l0,0c-.06.12-.11.24-.16.36a1.34,1.34,0,0,0-.07.4.26.26,0,0,1-.27.24.2.2,0,0,1-.13,0,.3.3,0,0,1-.09-.13,1.43,1.43,0,0,1,.38-1.16c.1-.15.19-.3.28-.46a1.86,1.86,0,0,0,0-1.39h-.29l-.28,0a2.11,2.11,0,0,1-.49-.09l-.07.28a8,8,0,0,0-.19,1.11,7.69,7.69,0,0,0,0,.83c0,.24.07.47.12.71a.24.24,0,0,1,.05.21.89.89,0,0,1,.37.23.76.76,0,0,1,.21.37v0h0a.72.72,0,0,0-.27-.25,1,1,0,0,0-.37-.09.72.72,0,0,0-.37.11,1.09,1.09,0,0,0-.19.18.77.77,0,0,0-.1.23.65.65,0,0,0,0,.51.76.76,0,0,0,.38.37l0,0a.55.55,0,0,1,.23.17.49.49,0,0,1,.06.17,1.15,1.15,0,0,1,0,.18v0a.76.76,0,0,0,0,.26h0a.14.14,0,0,0,0,.06l0,0,0,0h.06s0,0,0,0h0l.09-.08h0a.13.13,0,0,1,.11,0,.23.23,0,0,1,.18.09.39.39,0,0,1,.08.2,0,0,0,0,1,0,0h0l.06.08.06.07a7.58,7.58,0,0,0,.64.76,4.18,4.18,0,0,0,.44.4l.12.07c.13.09.27.18.28.32a.18.18,0,0,1-.1.14S156,83,156,83Zm-1.5-2.82a.31.31,0,0,1-.13,0,.4.4,0,0,1-.16-.2s0,0,0-.07a1.39,1.39,0,0,0-.15-.19,1.33,1.33,0,0,0-.43-.28.05.05,0,0,1,0,0l0,0a.57.57,0,0,1,.31-.06.73.73,0,0,1,.36.08h0a.77.77,0,0,1,.18.1,1.22,1.22,0,0,1,.17.15.46.46,0,0,1,.1.18.28.28,0,0,1,0,.2.2.2,0,0,1-.09.13A.3.3,0,0,1,154.46,80.22Zm5.59-5.3a.12.12,0,0,1-.1,0,2.26,2.26,0,0,0-.23-.31,3.45,3.45,0,0,0-.26-.28,3.15,3.15,0,0,0-.3-.24,1.48,1.48,0,0,0-.35-.19s0,0,0,0,0,0,0,0h0a2.29,2.29,0,0,1,.74.35,2.61,2.61,0,0,1,.31.27,2.1,2.1,0,0,1,.26.33.2.2,0,0,1,0,.11h0a.09.09,0,0,1,0,0Zm1.61-.07h-.08l0,0s0,0,0,0a1,1,0,0,0,.41-.29,1.27,1.27,0,0,0,.2-.36l0-.06a.17.17,0,0,1,.1-.12l0,0a.11.11,0,0,1,.09,0,.11.11,0,0,1,.1.07h0a.08.08,0,0,1,0,0h0a.21.21,0,0,1,.07.2.95.95,0,0,1-.61.62A1.25,1.25,0,0,1,161.66,74.85Zm-1-.14a.14.14,0,0,1-.12-.07,1.77,1.77,0,0,1-.06-.17l0-.11a1.79,1.79,0,0,0-.12-.24,1.61,1.61,0,0,0-.38-.4,0,0,0,0,1,0,0s0,0,0,0a1.06,1.06,0,0,1,.3.1.88.88,0,0,1,.24.19,1.24,1.24,0,0,1,.22.28.59.59,0,0,1,.09.32A.16.16,0,0,1,160.67,74.71ZM155.9,74l-.37,0a1.74,1.74,0,0,1-.51-.13,1.21,1.21,0,0,1-.46-.28.06.06,0,0,1,0-.06s0,0,0,0h0l.16,0a3.56,3.56,0,0,0,.79.15h.07a2,2,0,0,0,.42,0h.46a.12.12,0,0,1,.07.07.11.11,0,0,1,0,.11.61.61,0,0,1-.31.18A1.37,1.37,0,0,1,155.9,74Zm5-.45s0,0,0,0a1.37,1.37,0,0,1-.22-.27.47.47,0,0,0-.09-.12l-.14-.19a1.63,1.63,0,0,1-.17-.2,0,0,0,0,1,0,0,.05.05,0,0,1,0,0h0a1.25,1.25,0,0,1,.44.31.72.72,0,0,1,.17.22.74.74,0,0,1,.11.24.08.08,0,0,1,0,.07Zm-4.84-.27a1.5,1.5,0,0,1-.52-.1,1.46,1.46,0,0,1-.44-.29.06.06,0,0,1,0,0s0,0,0,0h0a3.68,3.68,0,0,0,.63.17h.66a.13.13,0,0,1,.1.1.11.11,0,0,1,0,.09A1,1,0,0,1,156.08,73.32Zm.09-.65a.78.78,0,0,1-.48-.17,0,0,0,0,1,0-.06s0,0,0,0h0a1.15,1.15,0,0,0,.51.09h.08s.06,0,.07.07,0,.06,0,.07Z" transform="translate(-144.35 -60.04)"/><path d="M159.58,81.94a.91.91,0,0,1-.37-.08.77.77,0,0,1-.25-.14,1.31,1.31,0,0,1-.21-.2.33.33,0,0,1,0-.17.22.22,0,0,1,.09-.14.2.2,0,0,1,.14,0h0a.17.17,0,0,1,.14.09h0a.63.63,0,0,0,.26.22.56.56,0,0,0,.25,0h.07a.62.62,0,0,0,.29-.09,1.59,1.59,0,0,0,.24-.2.68.68,0,0,0,.05-.07l.05,0h0a.14.14,0,0,1,.09,0,.15.15,0,0,1,0,.07.62.62,0,0,1-.07.23.74.74,0,0,1-.16.2,1.34,1.34,0,0,1-.23.16,1.06,1.06,0,0,1-.25.09Zm.28-1.52a.88.88,0,0,1-.33-.07,1.87,1.87,0,0,1-.39-.22s0,0-.06-.08a.31.31,0,0,1,0-.1s0-.07.07-.09a.12.12,0,0,1,.1,0,.13.13,0,0,1,.08,0l0,0,.24.16a.52.52,0,0,0,.29.09l.12,0,.12-.08a.36.36,0,0,0,.06-.28.48.48,0,0,0-.14-.25.87.87,0,0,0-.21-.17.08.08,0,0,1,0-.08l0,0,.06,0h0a.75.75,0,0,1,.25.09.52.52,0,0,1,.17.16.56.56,0,0,1,.11.41.65.65,0,0,1-.06.23,1,1,0,0,1-.12.19A.67.67,0,0,1,159.86,80.42Zm-2.15-1.49a.2.2,0,0,1-.14-.06.23.23,0,0,1-.07-.14,1.13,1.13,0,0,1,0-.41.49.49,0,0,1,0-.12.27.27,0,0,1,.27-.25.25.25,0,0,1,.13,0,.18.18,0,0,1,.08.13,1.17,1.17,0,0,1-.12.69.28.28,0,0,1-.07.09A.19.19,0,0,1,157.71,78.93Zm3.14-.09a.21.21,0,0,1-.15-.07,1.19,1.19,0,0,1-.09-.15,1.67,1.67,0,0,1-.05-.18.42.42,0,0,1,.11-.34l0,0a.24.24,0,0,1,.19-.1h.05a.25.25,0,0,1,.18.15.66.66,0,0,1,0,.31,1.52,1.52,0,0,1-.09.28.24.24,0,0,1-.08.09Zm-4.08-1h0a0,0,0,0,1,0,0,1.48,1.48,0,0,1,.3-.37,1.56,1.56,0,0,1,.39-.26,2.1,2.1,0,0,1,.46-.16h.05l.21,0a.31.31,0,0,1,.24.1.16.16,0,0,1,.05.14.1.1,0,0,1-.05.1.4.4,0,0,1-.26.08h-.19a1.76,1.76,0,0,0-.39.06,2.52,2.52,0,0,0-.76.4Zm4.78-.19h0l-.23-.09-.07,0-.26-.11a2.66,2.66,0,0,0-.61-.13.31.31,0,0,1-.12,0,.19.19,0,0,1-.07-.11.18.18,0,0,1,0-.16.25.25,0,0,1,.1-.08h.18a2.49,2.49,0,0,1,.65.22,1.12,1.12,0,0,1,.29.19.89.89,0,0,1,.21.26c0,.06,0,.06,0,.07Z" transform="translate(-144.35 -60.04)"/><path class="cls-8" d="M186.45,66.17l1.61-.84-.31,1.79,1.3,1.26-1.79.27-.81,1.62-.79-1.62-1.8-.27,1.29-1.26-.3-1.79Z" transform="translate(-144.35 -60.04)"/><path class="cls-8" d="M208.32,66.17l1.6-.84-.31,1.79,1.3,1.26-1.79.27-.8,1.62-.81-1.62-1.79-.27,1.3-1.26-.31-1.79Z" transform="translate(-144.35 -60.04)"/><path class="cls-8" d="M201,66.17l1.61-.84-.32,1.79,1.31,1.26-1.8.27-.8,1.62-.8-1.62-1.8-.27,1.3-1.26-.31-1.79Z" transform="translate(-144.35 -60.04)"/><path class="cls-7" d="M179.17,66.17l1.6-.84-.3,1.79,1.3,1.26-1.8.27-.8,1.62-.8-1.62-1.8-.27,1.3-1.26-.31-1.79Z" transform="translate(-144.35 -60.04)"/></g></svg>