<svg width="552" height="575" viewBox="0 0 552 575" fill="none" xmlns="http://www.w3.org/2000/svg">
<g filter="url(#filter0_d)">
<path d="M243.47 438.848C191.579 430.665 124.197 419.586 102.764 382.023C81.45 344.495 106.086 280.482 144.604 228.35C183.088 176.337 235.489 136.086 283.471 138.844C331.377 141.644 374.866 187.453 415.97 234.186C457.039 281.037 495.766 328.888 487.432 366.277C479.099 403.666 423.781 430.551 377.825 441.354C331.911 452.233 295.437 446.989 243.47 438.848Z" fill="#FFB4BC"/>
</g>
<mask id="mask0" mask-type="alpha" maskUnits="userSpaceOnUse" x="0" y="0" width="552" height="553">
<path d="M243.473 438.849C191.582 430.666 124.2 419.587 102.767 382.024C81.453 344.495 106.089 280.482 144.607 228.35C183.091 176.337 220.883 49.9822 268.865 52.7402C316.771 55.5406 336.724 33.0079 377.828 79.7404C461.365 254.241 595.865 324.741 487.435 366.278C479.102 403.667 423.784 430.551 377.828 441.354C331.914 452.234 295.44 446.989 243.473 438.849Z" fill="#FFB4BC"/>
</mask>
<g mask="url(#mask0)">
<path d="M243.47 438.848C191.579 430.665 124.197 419.586 102.764 382.023C81.45 344.495 106.086 280.482 144.604 228.35C183.088 176.337 235.489 136.086 283.471 138.844C331.377 141.644 374.866 187.453 415.97 234.186C457.039 281.037 495.766 328.888 487.432 366.277C479.099 403.666 423.781 430.551 377.825 441.354C331.911 452.233 295.437 446.989 243.47 438.848Z" fill="#0092E8"/>
<path fill-rule="evenodd" clip-rule="evenodd" d="M493.074 314.385C496.509 312.592 499.862 310.643 503.162 308.615C505.486 307.224 503.428 303.721 501.045 304.987C499.826 305.634 498.612 306.288 497.394 306.932C498.353 306.105 499.242 305.206 500.038 304.225L499.983 304.171C503.056 301.417 499.109 296.221 495.615 298.483C492.534 300.718 489.424 302.997 485.887 304.469C478.56 307.577 470.479 308.091 462.616 308.181C459.738 307.964 456.99 308.463 454.197 309.019C455.292 304.626 458.032 301.308 459.485 297.053C460.557 292.758 454.358 289.831 452.162 293.961C451.623 294.975 451.109 296 450.606 297.031C445.858 301.352 437.929 300.971 433.141 305.61C430.413 308.032 429.078 311.318 428.551 314.616C428.193 316.856 428.749 319.101 427.396 321.085C420.851 330.344 410.511 344.981 405.26 355.171C401.541 330.956 391.614 301.004 381.357 278.862C377.966 271.781 374.085 264.861 368.992 258.859C369.569 256.857 367.531 253.303 366.236 254.397C362.247 249.523 355.196 248.261 349.527 245.838C341.873 242.564 335.524 235.759 332.402 228.024C328.392 213.296 318.519 211.425 304.827 212.076C291.723 212.06 282.028 217.667 279.168 231.011C273.36 241.14 259.645 239.465 249.778 242.146C242.547 243.798 235.529 246.353 228.86 249.597C221.441 242.557 194.869 272.104 192.453 279.708C193.875 279.984 195.289 280.316 196.689 280.72C197.936 281.081 197.412 282.966 196.155 282.664C194.589 282.288 193.014 282.029 191.431 281.849C191.383 282.001 191.34 282.151 191.309 282.3C191.131 282.288 190.954 282.273 190.776 282.261C191.17 282.466 191.549 282.704 191.919 283.011C192.812 283.753 191.649 285.185 190.7 284.594C189.806 283.924 188.635 284.03 187.562 283.805C187.498 286.012 179.629 283.543 178.406 282.812C172.973 282.132 167.384 282.862 162.312 280.241C155.563 278.819 148.764 277.247 142.091 275.436C140.324 276.125 138.664 278.59 140.067 280.399C140.856 281.222 139.842 282.567 138.848 281.981C135.515 280.019 132.937 276.955 130.752 273.655C129.723 272.617 127.897 272.84 126.515 272.409C126.331 272.741 126.222 273.112 126.223 273.491C120.361 274.456 124.543 280.862 127.49 282.857C125.927 283.876 125.867 285.87 126.004 287.535C125.673 288.128 125.562 288.864 125.851 289.528C126.953 292.07 129.337 294.21 131.15 296.269C133.152 298.543 134.936 300.829 137.372 302.672C146.655 309.751 157.857 313.709 169.35 315.257C173.43 315.884 179.3 316.843 181.827 320.295C181.207 324.392 180.068 328.321 179.036 332.316C177.592 337.618 177.69 343.17 177.671 348.576C177.469 348.413 177.081 348.447 177.024 348.756C176.688 350.997 176.438 353.288 175.077 355.171C173.883 358.673 173.089 362.408 172.642 366.086C170.855 383.526 170.428 401.479 174.459 418.647C176.014 425.016 178.544 431.069 181.99 436.643C183.018 438.305 184.67 438.792 186.154 438.465C191.119 441.046 197.374 441.873 202.726 441.218C220.972 436.05 214.615 448.493 240.197 444.683C284.355 439.056 328.981 450.114 373.045 443.622C374.131 452.007 388.338 449.602 393.272 446.057C408.069 435.052 415.417 400.212 422.843 382.537C427.947 368.607 436.495 343.933 447.688 334.585C451.045 331.959 455.102 330.577 459.161 329.46C474.312 325.555 489.521 321.861 504.7 318.064C507.274 317.43 506.811 313.038 504.059 313.32C500.406 313.694 496.74 314.032 493.074 314.385Z" fill="white"/>
<path fill-rule="evenodd" clip-rule="evenodd" d="M155.807 311.773C154.781 311.645 153.775 311.28 152.776 310.991C151.251 310.545 149.756 310.025 148.284 309.432C145.246 308.214 142.299 306.775 139.536 305.014C135.074 302.167 131.131 298.517 128.157 294.124L127.953 293.817C126.255 291.23 123.124 285.486 126.635 283.522C124.372 281.63 122.233 278.232 122.354 275.609C122.524 271.9 127.071 271.95 129.421 273.523C130.96 274.553 132.113 275.995 133.27 277.414C134.551 278.99 135.919 280.493 137.34 281.938C137.717 282.321 138.098 282.695 138.486 283.064L138.876 283.431C138.815 283.287 138.762 283.139 138.715 282.988C137.93 280.543 138.866 277.36 141.31 276.24C142.806 275.554 144.359 275.973 145.808 276.555L146.031 276.646C147.982 277.454 149.957 278.168 151.988 278.742C160.27 281.08 168.913 281.469 177.399 282.636C180.668 283.089 183.997 283.659 187.249 284.497C188.49 279.228 191.531 274.177 194.83 270.022C210.628 250.142 236.682 243.572 260.516 239.319C262.689 238.933 264.49 241.811 265.754 241.13C268.151 239.842 270.26 238.017 272.11 236.035C276.057 231.805 278.856 226.831 282.145 222.119C283.771 219.791 287.513 221.874 286.004 224.373L285.265 225.594C282.222 230.596 278.852 235.751 274.487 239.63C272.167 241.69 269.592 243.317 266.649 244.332C264.419 245.101 261.291 245.748 258.85 245.003L258.557 244.576C258.654 244.719 258.752 244.862 258.85 245.003C265.22 254.237 273.213 262.052 281.635 269.428C290.136 276.868 299.307 283.531 308.533 290.046L309.302 290.588C324.332 279.621 337.029 265.316 345.937 248.972C344.07 248.747 342.223 247.55 340.627 246.657C338.706 245.577 336.899 244.289 335.491 242.572C332.423 238.832 332.822 234.012 332.269 229.474C332.235 229.193 332.607 229.122 332.778 229.263C334.441 230.645 335.025 232.909 335.719 234.864C336.483 237.014 337.348 238.785 339.101 240.298C340.734 241.707 342.726 242.743 344.66 243.665C345.658 244.139 350.61 245.355 351.175 246.362C359.731 244.353 368.066 247.824 374.406 253.681C380.531 259.339 385.027 266.694 388.997 273.956C393.231 281.704 396.702 289.78 399.692 298.081C402.723 306.507 405.046 315.117 406.324 323.985C407.402 331.461 408.063 339.055 408.491 346.616L408.543 347.56C414.873 337.622 421.361 327.788 427.982 318.041C426.477 314.02 428.143 309.915 430.963 306.809C434.088 303.371 438.41 301.774 442.543 299.916L443.087 299.67C445.079 298.761 447.065 297.76 448.786 296.398C450.442 295.083 451.66 293.272 453.403 292.061C455.938 290.297 460.538 290.672 460.655 294.526C460.715 296.643 459.807 298.964 458.975 300.865C458.033 303.016 456.762 304.964 455.254 306.755C455.184 306.838 455.108 306.904 455.03 306.956L454.972 306.993C457.057 307.339 459.16 307.617 461.302 307.714C465.624 307.912 469.992 307.594 474.223 306.681C478.555 305.749 482.753 304.233 486.649 302.12C489.978 300.315 493.063 297.981 496.844 297.431C497.193 297.377 497.545 297.344 497.907 297.323C498.511 297.29 499.114 298.001 498.876 298.598C498.745 298.927 498.608 299.252 498.457 299.581C497.15 302.462 495.144 305.257 492.642 307.378L492.449 307.54C493.331 307.235 494.199 306.893 495.054 306.507C500.08 304.243 504.64 300.822 510.027 299.447C510.282 299.379 510.54 299.319 510.799 299.262C512.465 298.903 513.343 300.714 512.364 301.955C512.207 302.157 512.049 302.354 511.885 302.552C509.481 305.537 506.829 308.308 503.905 310.797C502.903 311.648 501.87 312.474 500.817 313.262C500.374 313.596 499.928 313.923 499.477 314.245L499.255 314.402C499.781 314.03 500.301 313.651 500.817 313.262C504.116 312.262 507.369 311.078 510.55 309.767C511.814 309.247 512.797 310.528 512.931 311.581C513.38 315.11 509.464 317.663 506.916 319.359C504.361 321.064 501.548 322.358 498.668 323.398C493.131 325.4 487.315 326.309 481.508 327.123L478.688 327.516C467.524 329.078 455.864 330.945 447.854 339.635C443.365 344.505 440.327 350.555 437.548 356.509C434.772 362.456 432.334 368.56 430.021 374.698C427.624 381.051 425.535 387.52 423.315 393.937C421.277 399.828 418.842 405.645 416.431 411.402L416.05 412.31C410.93 424.546 404.815 436.07 396.292 446.287C394.888 447.974 392.618 445.579 393.915 443.909C402.83 432.411 409.033 418.844 414.152 405.31C416.483 399.153 418.434 392.847 420.673 386.655L422.006 382.977C423.786 378.074 425.581 373.177 427.453 368.312C429.823 362.157 432.428 356.076 435.409 350.193L435.725 349.574C438.643 343.898 442.11 338.305 446.882 334.01C455.471 326.276 466.899 324.421 477.95 322.951L481.426 322.493C486.098 321.872 490.783 321.186 495.326 319.936C497.947 319.219 500.509 318.3 502.916 317.032C503.875 316.529 504.81 315.976 505.716 315.372C503.134 316.13 500.516 316.75 497.85 317.236C496.546 317.474 495.255 317.653 493.968 317.777C490.652 318.105 487.363 318.091 483.967 317.914C483.678 317.897 483.584 317.445 483.893 317.387C486.258 316.967 488.626 316.441 490.984 315.87L491.691 315.697C491.705 315.305 491.859 314.888 492.181 314.493C493.354 313.064 495.584 312.333 497.129 311.323C498.749 310.267 500.318 309.127 501.813 307.905C503.181 306.789 504.495 305.608 505.759 304.374L506.138 304.001C506.013 304.126 505.886 304.25 505.759 304.374C502.346 305.95 499.111 307.973 495.547 309.221C492.714 310.216 489.743 310.887 486.746 311.125L486.56 311.14L486.374 311.152C483.246 311.377 480.098 311.286 477.016 311.964C476.671 312.041 476.564 311.578 476.872 311.447C479.564 310.327 482.364 309.894 485.194 309.371C485.254 309.15 485.408 308.952 485.676 308.824L486.4 308.479C488.556 307.443 490.566 306.397 492.358 304.716C493.941 303.23 495.259 301.493 496.248 299.567C492.288 300.436 488.811 303.438 485.21 305.125C481.288 306.966 477.137 308.288 472.872 309.039L472.386 309.123C464.417 310.453 454.833 310.283 447.693 306.138C447.465 306.004 447.63 305.699 447.864 305.735C449.889 306.067 451.894 306.46 453.899 306.809C453.507 306.45 453.333 305.806 453.785 305.289C455.586 303.225 457.01 300.865 457.92 298.283L458.094 297.778C458.514 296.581 459.222 294.721 458.499 293.641C457.808 292.611 456.182 292.752 455.21 293.188C453.188 294.1 451.844 296.378 450.141 297.753C448.283 299.255 446.171 300.369 444.009 301.365L443.552 301.573C439.812 303.256 435.815 304.673 432.874 307.644C431.292 309.24 429.93 311.236 429.474 313.473C429.267 314.5 429.267 315.556 429.542 316.572C429.759 317.367 430.215 317.857 429.954 318.665C429.612 319.708 428.402 320.956 427.778 321.885C427.054 322.959 426.333 324.035 425.612 325.112C424.174 327.265 422.742 329.425 421.311 331.582C418.447 335.902 415.614 340.242 412.805 344.595C411.89 346.013 410.979 347.432 410.071 348.853L408.711 350.985L407.992 352.109L406.766 354.037C406.81 354.215 406.807 354.403 406.75 354.567C406.541 355.162 406.149 355.569 405.663 355.865L405.576 355.915C398.421 367.229 391.381 378.616 384.269 389.956C383.891 393.417 383.535 396.882 383.227 400.346C382.526 408.188 382.047 416.05 381.892 423.922C381.819 427.733 382.124 431.566 382.288 435.373C382.368 437.19 382.478 439.004 382.622 440.819L382.728 442.104C382.87 443.872 382.95 445.626 382.315 447.31C381.752 448.789 380.035 449.121 379.019 447.994C365.766 447.461 352.502 447.055 339.239 446.803C315.498 446.347 291.747 446.418 268.003 446.877C256.078 447.109 244.148 447.434 232.226 447.837C226.352 448.031 220.475 448.306 214.597 448.387C211.431 448.43 206.447 447.276 206.192 443.712L206.185 443.604C205.79 443.711 205.381 443.798 204.962 443.862C204.775 443.891 204.596 443.882 204.43 443.844L204.348 443.822C199.628 445.261 193.657 443.207 189.172 442.011L188.802 441.913C184.52 440.796 181.08 439.2 178.274 435.651C173.362 429.436 171.686 421.091 170.814 413.4C169.996 406.162 169.949 398.79 170.945 391.566C170.358 385.679 170.931 379.605 171.599 373.752C171.927 370.858 172.313 367.966 172.775 365.089C173.034 363.482 173.372 361.892 173.718 360.306C173.855 359.672 173.97 358.989 174.145 358.33L174.224 358.048C173.687 358.119 173.101 358.001 172.534 357.69C171.186 356.949 170.794 355.449 170.77 354.014C170.697 349.687 171.213 345.236 171.669 340.936C172.128 336.643 172.759 332.333 173.583 328.093L173.797 327C174.422 323.829 175.137 320.555 176.396 317.575C171.666 316.77 166.948 315.915 162.358 314.459C160.119 313.745 157.913 312.856 155.807 311.773ZM402.723 356.801C402.649 356.818 402.579 356.838 402.509 356.858C400.618 357.388 398.707 357.837 396.802 358.32C393.51 359.149 390.291 360.074 387.23 361.513C386.589 369.61 385.638 377.68 384.735 385.755L384.555 387.37C385.943 384.794 387.364 382.238 388.85 379.713C393.372 372.015 397.999 364.377 402.723 356.801ZM175.377 357.603C175.387 358.565 175.186 359.565 175.078 360.49C174.904 361.993 174.763 363.503 174.586 365.005C174.223 368.023 173.915 371.045 173.69 374.077C173.546 376.013 173.452 377.955 173.369 379.897C175.27 372.79 177.787 365.837 180.181 358.874C179.781 358.831 179.372 358.734 178.95 358.621L178.24 358.43C177.821 358.322 176.462 357.988 175.377 357.603ZM408.711 350.985L408.724 351.303C408.775 352.434 408.097 353.071 407.276 353.235C407.752 352.484 408.232 351.733 408.711 350.985ZM191.185 297.414C193.186 297.591 195.148 298.018 197.018 298.756L197.199 298.826C198.583 299.36 200.606 300.032 201.059 301.509C201.186 301.929 200.844 302.274 200.452 302.308C198.95 302.428 197.179 300.818 195.788 300.275C194.239 299.671 192.616 299.222 190.973 298.983C187.282 298.443 183.433 298.853 179.96 300.198C179.755 300.278 179.628 299.953 179.812 299.855C183.312 297.95 187.205 297.062 191.185 297.414ZM148.77 307.006C148.539 306.802 148.307 306.587 148.079 306.373C146.282 304.671 144.69 302.686 143.511 300.504L143.201 299.914C142.241 298.055 141.062 295.406 143.318 294.066C144.666 293.265 146.289 293.466 147.791 293.952C147.888 293.982 147.985 294.016 148.083 294.05C148.753 294.285 149.4 294.566 149.977 294.834C152.481 295.985 154.691 297.659 157.004 299.135C159.511 300.735 161.986 301.758 164.879 302.356L165.151 302.411C167.867 302.948 170.811 303.293 172.705 305.527C173.181 306.091 172.745 307.147 171.924 306.869C166.687 305.102 161.145 304.712 156.337 301.811C154.345 300.61 152.461 299.232 150.426 298.095C149.347 297.49 148.232 296.962 147.044 296.6L146.395 296.409C146.015 296.297 145.561 296.188 145.256 296.297C144.675 296.498 144.861 296.809 145.04 297.352L145.058 297.407C146.47 301.774 150.493 305.43 154.221 307.848C155.076 308.405 155.951 308.915 156.843 309.388C162.88 312.607 169.635 314.105 176.269 315.883C176.269 315.883 180.105 316.955 181.375 317.357C182.79 317.239 184.403 317.739 185.469 318.336C186.505 318.916 187.34 319.695 187.97 320.611C187.97 320.611 188.577 321.117 188.688 321.902C189.006 322.63 189.221 323.414 189.328 324.233C189.388 324.713 189.268 325.081 189.04 325.343C189.725 335.872 186.883 346.342 183.677 356.349L183.36 357.335L183.156 357.961C179.699 368.57 175.733 379.102 173.962 390.163C172.779 397.552 172.816 405.199 173.684 412.622L173.745 413.134C174.601 420.152 176.247 428.024 180.708 433.672C182.984 436.555 185.679 437.836 189.126 438.764L189.315 438.814C192.433 439.635 195.651 440.8 198.867 441.152C201.851 441.477 204.352 440.367 207.037 439.327L207.041 439.324C212.697 434.316 215.265 427.024 217.162 419.665C222.081 400.621 221.471 380.853 218.681 361.53C217.226 351.434 215.248 341.426 213.277 331.421C212.291 326.42 211.228 321.429 210.346 316.411L209.823 313.458C209.534 311.818 209.254 310.176 209.015 308.526C208.693 306.309 208.596 304.129 208.486 301.898C205.777 297.407 201.844 293.708 197.287 291.055C194.025 289.153 190.572 287.835 187.008 286.879C176.819 284.132 165.711 284.326 155.459 282.213C152.014 281.504 148.745 280.452 145.477 279.19L145.032 279.017C143.533 278.433 142.004 278.108 141.26 279.875C140.73 281.133 141.045 282.441 141.84 283.498C143.788 286.087 147.704 287.288 150.651 288.22C152.424 288.784 154.235 289.23 156.065 289.562C157.896 289.894 159.733 289.978 161.49 290.625C162.167 290.873 162.302 291.95 161.49 292.141C159.264 292.661 157.024 292.215 154.812 291.782C152.381 291.302 149.987 290.622 147.66 289.76C147.231 289.602 146.787 289.435 146.335 289.257L145.994 289.122C146.346 289.378 146.698 289.629 147.053 289.881C147.147 289.948 147.09 290.125 146.966 290.082C141.495 288.04 136.517 284.356 132.661 279.997L132.469 279.778C131.111 278.222 128.016 273.513 125.408 274.824C122.959 276.054 127.134 280.796 128.721 282.734L128.905 282.961C130.709 283.008 132.456 284.132 133.917 285.037C136.455 286.611 139.107 287.966 141.81 289.233C147.181 291.759 152.884 293.54 158.198 296.193C158.268 296.23 158.215 296.32 158.148 296.31C154.765 295.77 151.419 294.908 148.15 293.839L148.004 293.793L147.858 293.744C145.816 293.073 143.801 292.316 141.82 291.507C139.617 290.609 137.465 289.599 135.376 288.455C133.485 287.422 131.386 285.561 129.193 285.286C128.959 285.256 128.751 285.252 128.57 285.269C126.052 285.48 128.134 289.653 128.838 290.9C129.988 292.95 131.376 294.841 132.969 296.569C136.197 300.077 140.11 302.857 144.344 305.021C145.789 305.759 147.268 306.409 148.77 307.006Z" fill="black"/>
<path fill-rule="evenodd" clip-rule="evenodd" d="M293.052 93.123C343.869 90.623 366.801 126.417 368.284 142.404C369.314 153.502 362.76 166.293 362.76 176.21C362.76 181.272 368.955 192.139 366.071 199.517C359.651 215.938 346.059 234.162 328.739 234.162C311.419 234.162 288.877 238.954 269.739 211.541C267.943 208.969 245.231 194.35 243.024 180.459C237.528 145.857 256.792 94.9069 293.052 93.123Z" fill="white"/>
<path fill-rule="evenodd" clip-rule="evenodd" d="M290.656 70.8474C292.473 68.7679 295.541 67.9361 298.267 68.0971C302.226 68.3319 305.67 70.777 309.609 70.9581C313.74 71.1493 317.726 69.7171 321.867 70.3812C324.405 70.7904 326.919 71.9677 328.545 73.9533C334.178 72.34 340.293 74.4765 343.881 79.142C348.306 78.4544 353.121 81.3862 354.475 85.6522C360.098 85.8333 365.405 90.3512 366.032 96.0128C368.279 96.6065 370.23 98.1564 371.427 100.205C372.818 102.58 373.049 105.304 372.798 107.98C375.443 109.332 376.788 112.236 377.14 115.309C379.557 117.113 380.607 120.357 380.114 123.419C381.964 124.462 382.92 126.89 382.91 129.057C382.9 131.079 382.364 132.871 383.118 134.823C383.79 136.561 384.031 138.01 383.662 139.831L383.624 140.008C383.559 140.305 383.504 140.59 383.454 140.87C383.955 141.31 384.378 141.86 384.696 142.501C385.856 144.842 385.683 147.512 384.799 149.887C385.186 151.399 385.137 152.996 384.564 154.449C385.636 155.994 386.2 157.888 386.034 159.854C385.849 162.054 384.844 164.025 383.321 165.482C383.727 168.488 382.505 171.735 380.296 173.852C380.609 175.651 380.339 177.537 379.355 179.243C378.653 180.459 377.709 181.364 376.62 181.996C376.656 182.999 376.52 184.026 376.186 185.055C375.722 186.482 374.937 187.797 373.904 188.857C374.52 192.8 372.16 197.176 368.006 198.283C367.657 198.376 367.324 198.418 367.005 198.425C366.592 202.218 365.691 205.959 364.295 209.511C360.748 218.556 354.298 226.465 345.886 231.399C341.725 233.838 337.051 235.508 332.28 236.205C328.847 236.709 325.545 236.584 322.098 236.242C317.773 235.81 313.428 235.162 309.223 234.049L308.547 233.869C306.804 233.402 304.967 232.863 303.457 231.922C301.767 230.869 300.889 229.246 300.5 227.334C300.283 226.27 300.957 225.125 302.121 225.103L302.196 225.104C302.451 225.109 302.704 225.099 302.959 225.083L303.152 225.07H303.162C303.175 225.067 303.182 225.067 303.195 225.067C303.309 225.05 303.42 225.016 303.53 225C304.811 224.784 305.932 224.998 307.135 225.398L307.285 225.449C309.311 226.147 311.319 226.794 313.411 227.274C315.573 227.767 317.763 228.159 319.959 228.468L320.177 228.495L320.244 228.505L320.277 228.508C320.284 228.508 320.291 228.508 320.297 228.511L320.945 228.592C321.454 228.652 321.964 228.706 322.473 228.759C323.412 228.853 324.351 228.927 325.29 228.981C341.493 229.893 355.102 217.131 359.209 201.83C360.698 196.292 360.795 190.768 360.356 185.241C360.215 184.838 360.131 184.392 360.135 183.902C360.135 183.647 360.148 183.396 360.165 183.141C359.619 177.795 358.67 172.445 358.076 167.078C357.382 160.81 356.997 154.504 357.137 148.195C357.208 145.079 357.54 141.994 357.976 138.908L358.133 137.8C356.163 137.415 354.332 136.48 352.874 135.128C349.71 136.956 345.614 137.118 342.491 135.188C338.991 137.383 334.1 137.583 330.576 135.436C328.445 136.957 325.761 137.613 323.126 137.036C321.941 136.776 320.762 136.215 319.753 135.437C319.033 135.564 318.303 135.613 317.577 135.575L317.427 135.659C315.754 136.541 313.901 137.122 311.993 137.057C310.581 137.009 309.126 136.731 307.78 136.203C306.341 137.072 304.767 137.665 303.082 137.878C300.622 138.188 297.968 137.644 295.922 136.248C292.183 138.378 287.584 138.706 283.549 137.275C282.723 138.675 281.579 139.882 280.24 140.813C280.48 141.673 280.556 142.589 280.474 143.47C280.338 144.92 279.975 146.221 279.38 147.389C280.007 148.693 280.195 150.294 279.845 151.901C279.345 154.193 278.012 156.187 276.286 157.74C276.134 161.398 274.128 164.828 270.865 166.733C270.699 166.83 270.535 166.908 270.371 166.979C270.227 167.176 270.055 167.349 269.858 167.496C267.783 169.414 264.498 169.261 261.897 168.178C261.846 168.18 261.797 168.184 261.746 168.185C260.817 168.209 260.183 167.847 259.807 167.313C259.429 167.334 259.053 167.374 258.674 167.444C257.293 167.702 255.777 168.199 254.527 168.843C251.281 170.513 249.779 173.465 249.33 177.013C248.841 180.884 249.954 184.828 252.948 187.448C254.403 188.722 256.264 189.52 258.154 189.856C260.243 190.228 262.476 189.312 264.018 191.107C264.327 191.462 264.538 191.959 264.37 192.438C263.847 193.934 262.986 194.508 261.638 194.716C263.586 197.027 265.584 199.261 267.797 201.337C270.191 203.587 272.665 205.767 274.825 208.249C277.107 210.876 279.169 213.66 280.601 216.846C281.419 218.677 282.076 220.566 282.784 222.44L282.91 222.767C283.7 224.759 284.749 226.679 283.535 228.759C283.052 229.578 281.959 230.369 280.953 230.239C278.12 229.876 277.172 227.961 276.299 225.466C275.642 223.581 275.139 221.642 274.432 219.774C274.3 219.428 274.156 219.086 274.005 218.745C272.371 219.201 270.575 218.839 269.117 217.907C267.56 218.598 265.834 218.943 264.167 218.913C261.936 218.874 259.897 218.254 258.144 217.135C258.005 217.098 257.864 217.063 257.725 217.023C255.059 218.045 251.936 217.862 249.522 216.206C247.958 215.134 246.89 213.703 246.282 212.109C244.262 212.071 242.264 211.354 240.816 209.921C239.487 208.605 238.711 206.907 238.48 205.142C236.741 204.797 235.111 203.957 233.833 202.54C232.765 201.357 232.116 199.851 231.897 198.286C229.78 197.682 227.87 196.299 226.827 194.37C225.856 192.575 225.716 190.627 226.191 188.855L226.068 188.678C223.886 187.536 222.222 185.667 222.051 182.996C222.003 182.236 222.084 181.475 222.291 180.755C222.216 179.951 222.264 179.146 222.475 178.368C219.541 175.514 218.478 170.929 220.071 167.139C217.204 164.053 216.446 159.173 218.549 155.511C217.107 153.766 216.366 151.543 216.49 149.168C216.644 146.203 218.002 143.614 219.628 141.215C218.421 139.88 217.777 138.019 217.825 136.221C217.891 133.615 219.276 131.371 221.01 129.513C219.497 124.925 221.187 119.947 224.899 117.043C224.148 115.805 223.869 114.272 224.114 112.719C224.543 110.006 226.578 108.158 228.774 106.696C228.315 105.2 228.436 103.586 229.167 102.04C230.142 99.9773 231.983 98.6693 233.904 97.5624C234.4 92.9875 239.51 89.08 243.795 91.4413C242.732 88.0369 245.793 84.3609 249.314 83.9718C251.037 78.7462 256.981 75.4525 262.325 76.7505C265.058 73.0141 270.144 71.5756 274.462 73.1785C279.21 69.5393 285.1 68.9993 290.656 70.8474ZM256.837 173.451C260.173 173.27 262.674 175.994 264.431 178.486C266.08 180.824 261.849 183.292 260.615 180.716C260.173 179.797 259.67 178.825 258.996 178.02C258.883 178.178 258.783 178.342 258.683 178.511L258.584 178.68C258.51 178.804 258.433 178.932 258.369 179.063C258.376 179.086 258.275 179.395 258.272 179.408C257.997 180.243 257.397 180.78 256.579 181.068C255.523 181.437 254.523 180.642 254.185 179.71C253.645 178.221 254.899 176.923 256.203 176.332C254.922 176.124 253.662 176.561 252.736 177.547C252.609 177.684 252.394 177.573 252.388 177.402C252.28 175.065 254.725 173.565 256.837 173.451Z" fill="black"/>
<path fill-rule="evenodd" clip-rule="evenodd" d="M338.194 208.331C335.725 209.046 333.074 209.11 330.556 208.371C328.272 207.701 325.928 206.225 324.247 204.273C322.754 202.539 321.787 200.431 321.825 198.182C321.83 197.925 321.921 197.71 322.063 197.544C322.215 197.365 322.427 197.242 322.655 197.188C322.889 197.133 323.136 197.153 323.347 197.249C323.538 197.335 323.701 197.482 323.803 197.698C324.061 198.037 324.319 198.371 324.577 198.697C326.654 201.262 328.665 203.179 331.787 203.866C333.482 204.24 335.174 204.074 336.726 203.505C338.388 202.895 339.891 201.824 341.068 200.453C341.6 199.833 342.228 199.58 342.843 199.576C343.539 199.571 344.227 199.895 344.745 200.412C345.254 200.92 345.595 201.611 345.626 202.333C345.654 202.968 345.447 203.63 344.897 204.221C343.084 206.168 340.736 207.594 338.194 208.331ZM338.119 176.202C340.65 177.741 344.508 181.331 341.785 185.148C338.579 188.513 333.963 184.654 331.688 182.909C329.579 181.557 327.209 185.035 329.166 186.614C345.602 198.788 352.273 176.604 339.399 174.392C337.982 174.148 337.455 175.725 338.119 176.202ZM314.436 169.427C313.622 168.907 312.665 168.728 311.604 169.211C310.775 169.588 309.321 170.845 308.309 172.498C307.616 173.629 307.126 174.955 307.228 176.337C307.252 176.658 307.133 176.895 306.946 177.07C306.798 177.208 306.585 177.309 306.335 177.341C306.122 177.368 305.884 177.344 305.69 177.283C305.322 177.168 305.127 176.929 305.054 176.734C304.345 174.852 304.651 172.751 305.445 170.856C306.516 168.299 308.462 166.156 309.737 165.466C311.919 164.283 314.493 164.229 316.678 165.434C318.538 166.459 319.701 168.114 320.858 169.801C321.104 170.159 321.348 170.515 321.6 170.865C322.105 171.566 322.156 172.261 321.96 172.857C321.743 173.517 321.19 174.075 320.499 174.366C319.86 174.636 319.118 174.674 318.462 174.397C317.907 174.163 317.398 173.707 317.076 172.933C316.534 171.63 315.631 170.192 314.436 169.427ZM355.762 172.327C355.205 172.617 354.769 172.705 354.151 172.52C353.809 172.417 353.471 172.22 353.207 171.955C352.944 171.693 352.755 171.367 352.682 171.005C352.501 170.112 352.013 169.276 351.317 168.731C350.722 168.266 349.971 168.019 349.138 168.158C348.239 168.308 347.383 168.885 346.793 169.565C346.596 169.792 346.442 170.05 346.287 170.307C345.996 170.787 345.714 171.233 345.313 171.585C345.161 171.719 344.932 171.812 344.71 171.812C344.62 171.812 344.529 171.798 344.442 171.77C343.547 170.872 343.375 170.191 343.404 169.515C343.434 168.807 343.714 168.089 344.165 167.42C345.224 165.849 347.234 164.562 348.59 164.27C350.448 163.871 352.292 164.35 353.771 165.388C355.293 166.456 356.421 168.114 356.773 169.983C356.857 170.433 356.821 170.918 356.65 171.34C356.483 171.751 356.191 172.104 355.762 172.327ZM318.532 152.685C317.417 153.771 316.097 153.94 314.763 154.089C314.021 154.173 313.429 154.241 312.846 154.372C311.245 154.734 309.662 155.279 308.218 156.063C306.708 156.883 305.063 157.872 303.88 159.139C303.598 159.44 303.333 159.757 303.067 160.074C302.825 160.363 302.592 160.641 302.346 160.909C302.063 161.218 301.795 161.541 301.528 161.863C301.363 162.135 301.331 162.202 301.297 162.271C301.247 162.376 301.189 162.493 301.123 162.618C301.032 162.79 300.925 162.979 300.814 163.149C300.628 163.461 300.528 163.547 300.442 163.586C300.299 163.649 300.164 163.681 300.033 163.664C299.909 163.648 299.793 163.589 299.679 163.492C299.106 163.008 298.937 162.214 298.955 161.371C298.981 160.092 299.453 158.677 299.887 157.806C300.898 155.784 302.299 153.681 303.985 152.172C305.908 150.449 308.012 149.145 310.429 148.246C311.93 147.687 313.669 147.174 315.305 147.239C316.483 147.286 317.607 147.636 318.536 148.51C319.106 149.047 319.38 149.811 319.38 150.574C319.38 151.352 319.095 152.135 318.532 152.685ZM358.03 162.635C357.959 162.751 357.861 162.831 357.752 162.879C357.637 162.93 357.51 162.944 357.387 162.923C357.265 162.903 357.149 162.847 357.057 162.763C356.969 162.682 356.901 162.574 356.871 162.442C356.131 159.191 354.694 156.771 351.627 155.211C350.118 154.443 348.383 153.956 346.74 153.567C346.263 153.454 345.759 153.381 345.251 153.306C343.659 153.074 342.056 152.808 341.018 151.52C340.393 150.745 340.13 149.753 340.278 148.847C340.418 147.993 340.917 147.21 341.824 146.741C344.081 145.573 346.886 146.719 349.165 147.695C349.334 147.767 349.5 147.838 349.663 147.907C351.892 148.848 353.925 150.09 355.596 151.867C356.922 153.277 358.151 155.361 358.646 157.505C359.057 159.288 358.96 161.109 358.03 162.635Z" fill="black"/>
</g>
<defs>
<filter id="filter0_d" x="18.8623" y="75.2388" width="508.762" height="499.142" filterUnits="userSpaceOnUse" color-interpolation-filters="sRGB">
<feFlood flood-opacity="0" result="BackgroundImageFix"/>
<feColorMatrix in="SourceAlpha" type="matrix" values="0 0 0 0 0 0 0 0 0 0 0 0 0 0 0 0 0 0 127 0"/>
<feOffset dy="6"/>
<feGaussianBlur stdDeviation="8"/>
<feColorMatrix type="matrix" values="0 0 0 0 0 0 0 0 0 0.572549 0 0 0 0 0.909804 0 0 0 0.16 0"/>
<feBlend mode="normal" in2="BackgroundImageFix" result="effect1_dropShadow"/>
<feBlend mode="normal" in="SourceGraphic" in2="effect1_dropShadow" result="shape"/>
</filter>
</defs>
</svg>
