<svg id="Слой_1" data-name="Слой 1" xmlns="http://www.w3.org/2000/svg" xmlns:xlink="http://www.w3.org/1999/xlink" viewBox="0 0 75.58 41.25"><defs><style>.cls-1{fill:#6687a8;}.cls-2{fill:none;}.cls-3{mask:url(#mask);}.cls-4{clip-path:url(#clip-path);}.cls-5{fill:#0092e8;}.cls-6{fill:#fff;}.cls-7{fill:#0f4c81;}.cls-8{fill:#262721;}</style><mask id="mask" x="-134.43" y="-136.21" width="300" height="300" maskUnits="userSpaceOnUse"><g transform="translate(-134.43 -153.37)"><g id="mask0"><rect class="cls-1" y="17.16" width="300" height="300"/></g></g></mask><clipPath id="clip-path" transform="translate(-134.43 -153.37)"><rect class="cls-2" x="48.52" y="20.6" width="180.49" height="258.79"/></clipPath></defs><title>new-process-3-img-4</title><g class="cls-4"><path class="cls-5" d="M203.87,194.13H140.55a5.63,5.63,0,0,1-5.64-5.64V165.31a5.64,5.64,0,0,1,5.64-5.64H185.8l9.88-5.82-1.52,5.82h9.7a5.64,5.64,0,0,1,5.64,5.64v23.18A5.62,5.62,0,0,1,203.87,194.13Z" transform="translate(-134.43 -153.37)"/><path class="cls-5" d="M203.87,194.61H140.55a6.12,6.12,0,0,1-6.12-6.12V165.31a6.12,6.12,0,0,1,6.12-6.12h45.12l9.78-5.75a.48.48,0,0,1,.54,0,.49.49,0,0,1,.18.51l-1.36,5.21h9.07a6.12,6.12,0,0,1,6.12,6.12v23.18A6.13,6.13,0,0,1,203.87,194.61Zm-63.32-34.45a5.16,5.16,0,0,0-5.15,5.15v23.18a5.16,5.16,0,0,0,5.15,5.15h63.32a5.16,5.16,0,0,0,5.15-5.15V165.31a5.16,5.16,0,0,0-5.15-5.15h-9.7a.51.51,0,0,1-.39-.19.48.48,0,0,1-.08-.42l1.22-4.68-8.87,5.22a.52.52,0,0,1-.25.07Z" transform="translate(-134.43 -153.37)"/><path class="cls-6" d="M167.2,178.69h36.68v-2.52H167.2Z" transform="translate(-134.43 -153.37)"/><path class="cls-6" d="M159.29,182.83h44.59v-2.52H159.29Z" transform="translate(-134.43 -153.37)"/><path class="cls-6" d="M178.38,187h25.5v-2.51h-25.5Z" transform="translate(-134.43 -153.37)"/><path class="cls-7" d="M184,166.74l1.61-.84-.31,1.79,1.3,1.26-1.79.27-.81,1.62-.8-1.62-1.79-.27,1.3-1.26-.31-1.79Z" transform="translate(-134.43 -153.37)"/><path class="cls-7" d="M176.71,166.74l1.61-.84-.31,1.79,1.31,1.26-1.8.27-.81,1.62-.79-1.62-1.8-.27,1.29-1.26-.3-1.79Z" transform="translate(-134.43 -153.37)"/><path class="cls-7" d="M198.58,166.74l1.61-.84-.31,1.79,1.29,1.26-1.79.27-.8,1.62-.81-1.62L196,169l1.3-1.26L197,165.9Z" transform="translate(-134.43 -153.37)"/><path class="cls-7" d="M191.29,166.74l1.61-.84-.31,1.79,1.3,1.26-1.8.27-.8,1.62-.8-1.62-1.8-.27,1.3-1.26-.31-1.79Z" transform="translate(-134.43 -153.37)"/><path class="cls-7" d="M169.43,166.74l1.6-.84-.3,1.79L172,169l-1.79.27-.81,1.62-.8-1.62-1.8-.27,1.3-1.26-.31-1.79Z" transform="translate(-134.43 -153.37)"/><path class="cls-7" d="M147.21,185.33a8.29,8.29,0,1,0-8.29-8.29A8.29,8.29,0,0,0,147.21,185.33Z" transform="translate(-134.43 -153.37)"/><path class="cls-6" d="M142.34,174.53a10.19,10.19,0,0,0-.45,5.73,2.76,2.76,0,0,0,.49,1.17,5.46,5.46,0,0,0,.93.8,7.73,7.73,0,0,0,1,.66,3.76,3.76,0,0,0,1.54.41,5.81,5.81,0,0,0,3.9-.65.33.33,0,0,0,.15-.42,2.77,2.77,0,0,0,1.26-1.65c.19-.11.24-.39.27-.58l.19,0a1,1,0,0,0,1.1-.9,3,3,0,0,0,0-.43.6.6,0,0,0,.23,0c-.06.28.27.47.51.42s.23-.23.24-.39a.19.19,0,0,0,.08,0,.31.31,0,0,0,.23,0,.32.32,0,0,0,.14-.45,2.34,2.34,0,0,1-.09-.24,2.85,2.85,0,0,0,.29,0,.2.2,0,0,0,.08,0,.34.34,0,0,0,.13-.48,4.88,4.88,0,0,0-1.42-1.61,2.74,2.74,0,0,0-.93-.34,8.24,8.24,0,0,0-3.5-4.78.29.29,0,0,0-.32,0c-3.16-1.25-5,.75-6.09,3.49C141.46,176.5,143.21,172.23,142.34,174.53Z" transform="translate(-134.43 -153.37)"/><path class="cls-8" d="M145.33,183.38a5.8,5.8,0,0,1-.87-.27,6.2,6.2,0,0,1-1.54-.88,6.29,6.29,0,0,1-.47-.43,4.63,4.63,0,0,1-.41-.49,3.31,3.31,0,0,1-.53-1.16,2.86,2.86,0,0,1-.06-.77,3.92,3.92,0,0,1,.08-.76v-.08c.09-.53.17-1,.22-1.56,0-.14,0-.29,0-.43,0-.45.07-.91.15-1.36a5.59,5.59,0,0,1,.12-.66c.05-.23.11-.44.18-.66a5.79,5.79,0,0,1,.56-1.18,5.66,5.66,0,0,1,.82-1,5.86,5.86,0,0,1,1-.77,5.52,5.52,0,0,1,1.16-.53,4.76,4.76,0,0,1,1.34-.22h.25a4.39,4.39,0,0,1,.71.12,4.32,4.32,0,0,1,.68.26,5.89,5.89,0,0,1,2.13,1.7,6.19,6.19,0,0,1,1.18,2.46,3.07,3.07,0,0,1,.07.53,2.36,2.36,0,0,1,.82.21,2.88,2.88,0,0,1,.7.45,3.47,3.47,0,0,1,.58.63,4.88,4.88,0,0,1,.42.74,1.12,1.12,0,0,1,.1.4.38.38,0,0,1-.37.4h-.09a1.4,1.4,0,0,1,0,.54.31.31,0,0,1-.09.18.27.27,0,0,1-.18.08h0l-.14,0a.5.5,0,0,1-.08.2.38.38,0,0,1-.16.15.43.43,0,0,1-.22.06.54.54,0,0,1-.22,0,.75.75,0,0,1-.18-.13.54.54,0,0,1-.11-.18.64.64,0,0,1,0-.2.12.12,0,0,1,.13-.12s.07,0,.09,0a.16.16,0,0,1,.05.1h0a.34.34,0,0,0,.09.18.23.23,0,0,0,.18.08.29.29,0,0,0,.1,0l0,0a.23.23,0,0,0,0-.32h0s0,0,0-.06a.11.11,0,0,1,0-.08.16.16,0,0,1,.15-.1h0a.45.45,0,0,1,.24.14s0,0,0,0l.09.09s0,0,0-.12v-.07A1.15,1.15,0,0,0,154,178a1.63,1.63,0,0,0-.14-.34h0a.12.12,0,0,1,0-.14.14.14,0,0,1,.13-.07.11.11,0,0,1,.11.07.66.66,0,0,0,.24.23h.07l.05,0a.16.16,0,0,0,0-.15,1.29,1.29,0,0,0-.08-.28l-.14-.26-.08-.13a3.36,3.36,0,0,0-.45-.6,2.48,2.48,0,0,0-.59-.48,2.31,2.31,0,0,0-.56-.24,2.06,2.06,0,0,0-.6-.08,3,3,0,0,0-.42,0,1.69,1.69,0,0,0-.4.13,1.56,1.56,0,0,0-.34.23,1.81,1.81,0,0,0-.29.33,1.49,1.49,0,0,0-.2.49,5.34,5.34,0,0,0-.09.53,3.21,3.21,0,0,1-.1.62.38.38,0,0,0,.23.06.58.58,0,0,0,.53-.58,0,0,0,0,1,0,0,0,0,0,0,1,0,0,.55.55,0,0,1,0,.36.78.78,0,0,1-.21.3.74.74,0,0,1-.41.13.67.67,0,0,1-.39-.12.1.1,0,0,1-.05-.12,5,5,0,0,0,.1-.66,4.55,4.55,0,0,1,.09-.63,1.6,1.6,0,0,1,.1-.31,2,2,0,0,1,.16-.28,1.69,1.69,0,0,1,.28-.32,1.56,1.56,0,0,1,.34-.23,2,2,0,0,1,.79-.26l.25,0h.07c0-.09-.07-.2-.1-.29-.09-.26-.18-.54-.3-.81l-.27-.56a4.66,4.66,0,0,0-.32-.53,6.56,6.56,0,0,0-.81-1,6,6,0,0,0-1-.82,4.4,4.4,0,0,0-1-.52,3.37,3.37,0,0,0-1.14-.19,3.08,3.08,0,0,0-.53,0,5,5,0,0,0-2.28,1,5.49,5.49,0,0,0-1.51,1.84,5.69,5.69,0,0,0-.44,1.34,13.27,13.27,0,0,0-.19,1.41l0,.16c0,.08,0,.17,0,.26,0,.37-.07.74-.12,1.11,0,.19-.06.39-.09.58a8,8,0,0,0-.12,1,2.66,2.66,0,0,0,.2,1.22,3.15,3.15,0,0,0,.69,1,4.57,4.57,0,0,0,1,.77,6.84,6.84,0,0,0,1.13.53,4.68,4.68,0,0,0,1.44.25,3.22,3.22,0,0,0,1-.17,4.07,4.07,0,0,0,.55-.28.15.15,0,0,1,.11,0,.17.17,0,0,1,.13,0,.2.2,0,0,1,.08.12.29.29,0,0,1,0,.13.27.27,0,0,1-.09.12,3.76,3.76,0,0,1-.87.38,3.46,3.46,0,0,1-.92.11A3.94,3.94,0,0,1,145.33,183.38Zm4.12-.67a.17.17,0,0,1-.14-.12.19.19,0,0,1,0-.19.6.6,0,0,1,.27-.2l.06,0A2.2,2.2,0,0,0,150,182a3.65,3.65,0,0,0,.55-.56,5.85,5.85,0,0,0,.56-1l.21-.4a.21.21,0,0,1-.07-.15.11.11,0,0,1,.05-.09l.1,0a.58.58,0,0,1,.19,0,.58.58,0,0,0,.19,0h0a.54.54,0,0,0,.25-.06.69.69,0,0,0,.22-.16,1.66,1.66,0,0,0,.16-.21,1.34,1.34,0,0,0,.17-.78,1.44,1.44,0,0,0-.15-.51.86.86,0,0,0-.15-.22,1.66,1.66,0,0,0-.18-.19,1.57,1.57,0,0,0-.43-.27,1,1,0,0,0-.38-.09q-.14,0-.15.09h0a.2.2,0,0,1,0-.16.19.19,0,0,1,.12-.07.52.52,0,0,1,.17,0l.26,0h0a1.31,1.31,0,0,1,.51.23,1,1,0,0,1,.21.17,1.24,1.24,0,0,1,.18.21,1.72,1.72,0,0,1,.22,1.4,1.48,1.48,0,0,1-.1.27,1.32,1.32,0,0,1-.37.44,1.33,1.33,0,0,1-.28.16,1.13,1.13,0,0,1-.32.06,1.35,1.35,0,0,1-.28,0,3.73,3.73,0,0,1-.22.81,4.4,4.4,0,0,1-.38.75,2.93,2.93,0,0,1-.57.65h0a2.7,2.7,0,0,1-.34.25.76.76,0,0,1-.41.13S149.48,182.71,149.45,182.71ZM151,179a.17.17,0,0,1-.1,0,.25.25,0,0,1-.07-.08.45.45,0,0,1,0-.11.25.25,0,0,1,0-.11,1.06,1.06,0,0,1,.33-.18h.06a1.09,1.09,0,0,1,.35-.07h.08a.89.89,0,0,1,.31.08.64.64,0,0,1,.24.22s0,0,0,0l0,0h0a.58.58,0,0,0-.33-.1.85.85,0,0,0-.23,0,1.51,1.51,0,0,0-.28.15,1.27,1.27,0,0,1-.31.15S151,179,151,179Z" transform="translate(-134.43 -153.37)"/><path d="M144.48,181.22a.75.75,0,0,1-.29-.09,1.2,1.2,0,0,1-.26-.18,1,1,0,0,1-.18-.23.79.79,0,0,1-.08-.26.19.19,0,0,1,0-.07.1.1,0,0,1,.1,0h0s0,0,.06,0l.06.07a1.93,1.93,0,0,0,.28.22.82.82,0,0,0,.32.12h.07a.73.73,0,0,0,.29-.07.86.86,0,0,0,.29-.25h0a.2.2,0,0,1,.16-.1h0a.25.25,0,0,1,.15,0,.23.23,0,0,1,.1.16.23.23,0,0,1,0,.18,1.36,1.36,0,0,1-.51.4,1.06,1.06,0,0,1-.43.08Zm-.6-1.89a.52.52,0,0,1-.14-.21.91.91,0,0,1-.07-.25.71.71,0,0,1,.13-.46.52.52,0,0,1,.18-.18,1.19,1.19,0,0,1,.28-.1h0a.11.11,0,0,1,.07,0s0,0,0,.05a.06.06,0,0,1,0,.08,1.16,1.16,0,0,0-.24.2.64.64,0,0,0-.16.28.38.38,0,0,0,.08.31.3.3,0,0,0,.13.09.32.32,0,0,0,.14,0,.67.67,0,0,0,.33-.1,3.15,3.15,0,0,0,.27-.19l0,0,.09,0a.28.28,0,0,1,.12,0,.3.3,0,0,1,.07.11.12.12,0,0,1,0,.1.14.14,0,0,1-.06.1,2.3,2.3,0,0,1-.43.25.94.94,0,0,1-.37.07A.6.6,0,0,1,143.88,179.33Zm2.78-1.49a.43.43,0,0,1-.09-.1,1.26,1.26,0,0,1-.13-.76.24.24,0,0,1,.08-.15.23.23,0,0,1,.15-.05.29.29,0,0,1,.2.07.33.33,0,0,1,.11.2.61.61,0,0,0,0,.14,1.43,1.43,0,0,1,0,.46.27.27,0,0,1-.08.16.22.22,0,0,1-.16.05A.13.13,0,0,1,146.66,177.84Zm-3.41-.08a.18.18,0,0,1-.13,0,.2.2,0,0,1-.09-.09,1.73,1.73,0,0,1-.11-.32.66.66,0,0,1,0-.34.29.29,0,0,1,.2-.19h.07a.27.27,0,0,1,.21.12v0a.48.48,0,0,1,.13.38,1.6,1.6,0,0,1,0,.21,1,1,0,0,1-.1.17A.27.27,0,0,1,143.25,177.76Zm4.57-1.11a3.4,3.4,0,0,0-.85-.43,1.63,1.63,0,0,0-.45-.07h-.21a.43.43,0,0,1-.29-.1.11.11,0,0,1-.06-.1.21.21,0,0,1,.06-.17.32.32,0,0,1,.27-.11l.23,0h0a2,2,0,0,1,1,.48,1.49,1.49,0,0,1,.33.41v0a.05.05,0,0,1,0,0Zm-5.35-.22,0,0s0,0,0-.09a.86.86,0,0,1,.23-.3,2.2,2.2,0,0,1,.32-.21,3.12,3.12,0,0,1,.73-.24h.09l.09,0a.2.2,0,0,1,.11.09.26.26,0,0,1,0,.17.25.25,0,0,1-.08.12.24.24,0,0,1-.14.05,2.67,2.67,0,0,0-.68.15,1.57,1.57,0,0,0-.3.12l-.08,0-.25.1Z" transform="translate(-134.43 -153.37)"/><path class="cls-6" d="M142.16,180.62c0,.39.4.06.59.06a1,1,0,0,0,.8.07c.29.06.51-.13.77-.22a7.76,7.76,0,0,0,2.34.23c.14.21.12.13.05,0,.18-.25-.15-.42-.31-.55a1.55,1.55,0,0,0-1.91-.52,2.81,2.81,0,0,0-1.25-.14C143,179.64,142.22,180.25,142.16,180.62Z" transform="translate(-134.43 -153.37)"/><path d="M146.9,181.08a1.85,1.85,0,0,0-.69-.21c-.25,0-.51,0-.77,0a3.76,3.76,0,0,1-.67,0,1.37,1.37,0,0,1-.28-.05,1.13,1.13,0,0,1-.21-.12,1.74,1.74,0,0,1-.48.22,1.76,1.76,0,0,1-.46.06l-.46,0h0a2.58,2.58,0,0,0-.39,0l-.24,0a1,1,0,0,0-.21.1h0a.1.1,0,0,1-.15,0,.08.08,0,0,1,0-.1,3.5,3.5,0,0,1,.29-.54,2.5,2.5,0,0,1,.39-.47,1.9,1.9,0,0,1,.49-.35,1.27,1.27,0,0,1,.58-.13l.2,0a1,1,0,0,1,.23.06.82.82,0,0,0,.3.07h.05l.44-.13a1.84,1.84,0,0,1,.41-.06,1.12,1.12,0,0,1,.36.05,2.05,2.05,0,0,1,.38.16.6.6,0,0,1,.25.19,5.14,5.14,0,0,1,.38.42,5.22,5.22,0,0,1,.34.48,1.86,1.86,0,0,1,.1.2.32.32,0,0,1,0,.16c0,.06,0,.09-.11.09Zm-2.16-1.52-.39.11v0h0l-.29-.08-.15-.05a.86.86,0,0,0-.28,0,1.27,1.27,0,0,0-.46.1,1.53,1.53,0,0,0-.4.26,1.88,1.88,0,0,0-.33.36,2.5,2.5,0,0,0-.25.41l.24,0a2.45,2.45,0,0,1,.38,0h.12l.27,0a1.88,1.88,0,0,0,.53-.07,1.83,1.83,0,0,0,.49-.23.09.09,0,0,1,.07,0h.05a.1.1,0,0,1,.09.06c.06.13.25.15.41.15h.46a5,5,0,0,1,1.4.14,3.36,3.36,0,0,0-.32-.51,1.81,1.81,0,0,0-.36-.37,1.43,1.43,0,0,0-.92-.32Z" transform="translate(-134.43 -153.37)"/></g></svg>