<svg id="Слой_1" data-name="Слой 1" xmlns="http://www.w3.org/2000/svg" xmlns:xlink="http://www.w3.org/1999/xlink" viewBox="0 0 215.22 284.14"><defs><style>.cls-1{fill:none;}.cls-2{clip-path:url(#clip-path);}.cls-3{fill:#fff;}.cls-3,.cls-4{fill-rule:evenodd;}</style><clipPath id="clip-path" transform="translate(-13.81 -0.58)"><rect class="cls-1" width="229.45" height="290"/></clipPath></defs><title>new-process-1-back</title><g class="cls-2"><path class="cls-3" d="M224.15,172.37l-9.28.94c-14.81,1.17-29.62,3.61-44.32,5.08a.94.94,0,0,0-1.52-.09c-1.46-.13-3.11-1.29-4.44-.08l-.13,0a98.29,98.29,0,0,1-5.58-14.73c-1-3.08-2.38-6.07-4.9-8.14-4.3-3.09-14.15-9.35-19.19-9.09a4,4,0,0,0-1.2-2.52c1.52-2.69-4.57-4.44-5-4.13.27-9-3.81-16.79-12.82-18.58-8.06-1.73-19.54-2-23.88,6.7-.48-.06-5.35-.08-5.83,0-.73-1-8.78,8.15-5.48,11.32-29.52,13.51-46.3,11.9-54.47,49.88-1.11,3.57-1.19,7.47-2.35,11-4.15,10-7.52,20.7-8.36,31.61-2,.54-2.25,4.23.09,4.76a5.48,5.48,0,0,1,2.3,1c-.51,8.94,1.58,29.36,2.89,29.29,2.69,8.84,14.66,11.34,23.14,8.23-1.46,2.85,0,4.64,0,6.16,30.5,1.19,63.86.5,94.35,2.14,3.9-.06,8,1,11.85.39,2.35-.58,2.35-4.4,0-4.87l10.4-2.34c-.23-.09,4.29-3.2,7.7-9,3.18-6.51,1-14.35,2.46-21.43,11.25-.95,22.69-1.36,33.82-3.33,1.51,4.7,8.08-.92,10.17-3.18h0a2.6,2.6,0,0,0,1.85-2.42,3.28,3.28,0,0,0,.18-3.54c3.11-18.6,7.86-37.58,9.58-56.35a3.91,3.91,0,0,0,1.66-.84l0,0a2.18,2.18,0,0,0-.39-3.39A4.59,4.59,0,0,0,224.15,172.37Z" transform="translate(-13.81 -0.58)"/><path class="cls-4" d="M87.08,125.67a2,2,0,0,1,3.81,1.06,13.82,13.82,0,0,1-1.78,4.41,10.5,10.5,0,0,1-2.22,2.93c1.66,1.55,3.38,3.05,5.15,4.46a62.4,62.4,0,0,0,6,4.29c1.84,1.15,3.76,2.17,5.49,3.48a11,11,0,0,1,3.83,4.6,9.49,9.49,0,0,1-.14,6.18l-.06.23c-.6,2-1.64,4.45-.2,6.35a16.07,16.07,0,0,0,2.71,2.43,21,21,0,0,1,2.28,2.24,18.38,18.38,0,0,1,3.57,5.92l.07.2c.67,1.94,1.17,4.32.25,6.23a.69.69,0,0,1-1.25-.16c-.33-1.21-.31-2.47-.59-3.7a14.2,14.2,0,0,0-1.39-3.62,19.79,19.79,0,0,0-4.8-5.7l-.58-.47c-1.52-1.24-2.91-2.56-3.22-4.62s.55-4.3,1.12-6.39a7.1,7.1,0,0,0,.1-4.15,25.1,25.1,0,0,1-1.8,2.38l-3.38,4.29c-1.16,1.47-2.29,3-3.36,4.49-.48.68-1,1.37-1.43,2.06-.36.52-.86,1-1.25,1.56a.92.92,0,0,1-.08.84c-2.06,2.79-5-3-5.76-4.49-1.56-3-2.71-6.17-4.28-9.16a71.49,71.49,0,0,0-5.52-9c-1.24-1.71-1.94-2.37-3.07-4.13-4.25,3.18-6.4,4.33-11.51,8a59.67,59.67,0,0,0-30.57,33.65c-3.11,8.51-6.59,14.16-9,22.89q-1.84,6.7-3.49,13.46c-1,4-1.76,8-2.88,11.9,2.27-.08,4.85.8,6.79,1.06a112.42,112.42,0,0,1,25.84,6.18,1.84,1.84,0,0,1,1.11,2.25l1.77-.5c-.64-1-.33-2.78-.28-3.88v-.08c0-1.47.21-2.94.31-4.41.2-2.8.46-5.58.8-8.36l.09-.7c.38-3,.67-6.07,1.09-9.1l0-.34c-.2-.78-.44-1.54-.68-2.3-.66-2-1.59-3.93-2.41-5.9-.09-.23.24-.36.39-.22a16.18,16.18,0,0,1,3.35,4.46c0-.07,0-.15,0-.23l.1-.5a8.54,8.54,0,0,1,1.29-3.45.19.19,0,0,1,.31,0,9.49,9.49,0,0,1,.89,4.08c.13,1.54.14,3.11.12,4.65,0,3-.25,6-.42,9.07s-.5,5.9-.92,8.83l-.08.55c-.21,1.4-.37,2.82-.65,4.2l-.07.38a19,19,0,0,1-.53,2.47,161.61,161.61,0,0,1,29-10.38A6.19,6.19,0,0,1,86.28,227c1.46-1.41,3.39-2,5.17-1a.24.24,0,0,1,0,.4l-1,.57,3.24-.88c2.42-.65,4.88-1.47,7.36-1.93a113.73,113.73,0,0,1,14.28-5.5l.57-.19a54.88,54.88,0,0,1,7.55-2.25c1.87-.34,4.06.07,4.8,2a30.51,30.51,0,0,1,2.71,2.09c.62.52,1.21,1.07,1.82,1.61l.11.1a2.26,2.26,0,0,1,1,1.41c.07.35-.16.83-.59.78-1.34-.14-2.42-1.69-3.33-2.61-.7-.72-1.41-1.46-2-2.24a.79.79,0,0,1-1.12-.29c-1.23-2.32-4.6-.71-6.46-.16l-2.67.79c-1.34.4-2.67.79-4,1.2-3.66,1.11-7.3,2.35-11,3.37a.77.77,0,0,1-.35,1.26,80.38,80.38,0,0,1-9.06,2.5l-5.68,1.48a4.66,4.66,0,0,0-.66,1.82c-.36,2.55.34,5.49,1,8l.1.37c.56,2,1.38,4.41,3.09,5.66a3,3,0,0,0,1.48.57l10-5.17a.93.93,0,0,1,1.33.63,20.75,20.75,0,0,0,3.43-.87c1.8-.61,3.21-1.78,4.9-2.58,3.27-1.56,6.61.35,9.53,1.81l.68.34c1.31.63,4,1.86,4.67.11s-1.32-3.48-2.56-4.24a16.65,16.65,0,0,0-4.88-1.79c-1-.23-1.93-.42-2.9-.56a17.39,17.39,0,0,1-3.31-.49.61.61,0,0,1,0-1.16,12.38,12.38,0,0,1,5.3.45l.89.22a21.87,21.87,0,0,1,5,1.8,9,9,0,0,1,3.13,2.69,2.39,2.39,0,0,1,2.42-.38l.48.13a4.56,4.56,0,0,0,2.21.22c.1-.56.21-1.12.32-1.69q1.65-8.28,3.64-16.5,3.43-14.18,7.95-28l.3-.93a33.27,33.27,0,0,1,2.36-6.36,7.45,7.45,0,0,1,4.75-3.45c2.27-.64,4.66-1,7-1.4l1.55-.28c-.44-.8-.76-1.69-1.06-2.38l-.05-.12c-6-13.62-15.75-20-27.11-29.24-.2-.16.06-.43.25-.33,3.24,1.63,5.2,3.4,11,7.65,5.84,4.78,11.58,8.91,17,18.06.41.91,2.85,4.73,3.19,5.78l2.79-.48a447.2,447.2,0,0,1,61-5.93,1.16,1.16,0,0,1,1.1,1.44c-2,11.61-3.71,23.25-5.62,34.86q-1.24,7.61-2.56,15.19c-.44,2.57-1,5.12-1.37,7.69a52.28,52.28,0,0,1-1.16,6.19,11.75,11.75,0,0,1-2.63,4.95,9.34,9.34,0,0,1-5.36,2.56c-5,.87-10.21,1.22-15.28,1.8l-27,3.08a67.76,67.76,0,0,1,.24,10.76l-.1,2c-.09,1.6-.19,3.2-.42,4.78a9.65,9.65,0,0,1-2.52,5.13A30.66,30.66,0,0,1,161,275.5a20.5,20.5,0,0,1-4.82,3l-.23.09c-1.55.61-4.46,1.55-6.58,1.2.28,1.39.82,2.88.34,4.26a.94.94,0,0,1-1.56.41c-1-1.07-1.09-2.49-1.33-3.9s-.47-2.92-.66-4.39c-.37-2.84-.65-5.71-.74-8.57s-.06-5.89.1-8.83c.08-1.51.18-3,.38-4.51.08-.64.16-1.28.25-1.92l.12-.7-2.43.28c-3.72.41-7.44.79-11.19.84a1.19,1.19,0,0,1-1-.48,1.41,1.41,0,0,1-1.25.66c-5.23,0-10.1-1.73-14.86-3.75-2.4-1-4.76-2.12-7.16-3.13-2.24-.94-4.64-1.61-6.83-2.67l-5.75,3a2.59,2.59,0,0,1-.15.4,3.4,3.4,0,0,1-1.87,1.5,4.43,4.43,0,0,1-2.2.31c-12.21,6.4-22,16.64-34,22.69l-.64.32a76.69,76.69,0,0,1-9.63,4.2,17.23,17.23,0,0,0,.05,2.58l0,.19c.1,1.07.31,2.4-.54,3.15a1,1,0,0,1-1.53-.19c-.55-1.08-.06-2.78.11-3.94a10.8,10.8,0,0,1,.25-1.26A26.29,26.29,0,0,1,34,277.4c-3.81-.63-6.76-3-9.14-6a27.21,27.21,0,0,1-5.26-10.58,54.38,54.38,0,0,1-1.13-13.47A124.07,124.07,0,0,1,19.23,233a6.8,6.8,0,0,0-2-.23,1.54,1.54,0,0,1-1.5.66c-1.23,1.35,1.87,2.73,2.86,3.07.35.12.31.68-.09.66h-.25c-1.53-.08-3.11-.34-4-1.77a2.77,2.77,0,0,1,.36-3.42,122.57,122.57,0,0,1,3.19-15.83C19,211,20.4,205.84,21.86,200.76l.66-2.27c2.3-8,5.6-12.91,8.78-20.56,5.82-14,18.9-24.87,32.54-31.25l.3-.11s9.08-4.75,10.51-6.35c-.1-.18-.85-1.88-.94-2.06l-.06.05,0,0a.86.86,0,0,1-1-.13c-.71-.67-.47-1.42,0-2.11l.06-.09c.58-.81,1.1-1.67,1.63-2.51l.34-.53a21.79,21.79,0,0,1,3-4,6.64,6.64,0,0,1,1.81-1.24c-.06-.12.43-.36.56-.24a15.37,15.37,0,0,1,6.6-.38m80.11,122.34-2.83.32c-3.11.36-6.23.7-9.35,1l-6.77.74c0,.38-.07.76-.07,1-.05,1.51-.08,3-.11,4.51-.06,3,0,6,.2,9.05s.45,5.83.84,8.72l.08.58.05.31a1.32,1.32,0,0,1,.9.49c.57.69,2.65,0,3.45-.27a16.34,16.34,0,0,0,3.75-2.07,23.39,23.39,0,0,0,3.12-2.67l.8-.79a9.9,9.9,0,0,0,2.08-2.63,14.45,14.45,0,0,0,.95-4.47c.24-1.81.52-3.62.82-5.42M85,230c-10.09,1.06-19.46,6.38-27.62,9-10.62,4-9.69,2.7-14.32,4l-.75.21c-3.64,1.07-7.34,2.35-10.13,5.4-.1.12-.25-.06-.16-.18,3-3.7,7.3-5.26,11.41-6.62l2.28-.75a121.07,121.07,0,0,0-17.08-5.73c-1.5-.36-3-.63-4.51-1-1-.26-2.06-.63-3.09-.94l-.81-.24v3c0,4.2,0,8.39.18,12.58l0,.78c.22,4.66.55,9.43,2,13.82a25.66,25.66,0,0,0,5.45,9.55A9.59,9.59,0,0,0,32,275.73a12.22,12.22,0,0,0,4.66.4c7.48-.6,13.77-1.53,26-9.5,10.1-5.31,15.92-12.38,26.56-18.7a5,5,0,0,1-.8-.79,14.7,14.7,0,0,1-2.68-6.28,38.68,38.68,0,0,1-.88-7.45m15.2,16.72a.16.16,0,0,1,.24.13,6.3,6.3,0,0,1-.86,2.69l0,.09c-.47,1-1,2.07-1.51,3.08q-1.59,3-3.31,6a71.13,71.13,0,0,1-7.9,11.2c-.69.78-1.81-.22-1.37-1.06a123,123,0,0,1,7.13-11.65c1.27-1.89,2.54-3.79,3.83-5.67.53-.79,1.08-1.58,1.63-2.35l.34-.46m128.39-78.35q-16.06.49-32.07,2.12Q179.71,177.42,165,180c-2.06.35-4.1.72-6.15,1.1l-1.23.23c-2,.39-4.54.55-6.36,1.64s-2.44,3.56-3.08,5.55q-1.14,3.51-2.2,7-4.24,14-7.72,28.2c-1.14,4.7-2.16,9.43-3.23,14.15-.95,4.19-2,8.33-3.1,12.48a1.34,1.34,0,0,1,.5-.22c5.45-1.16,11-1.67,16.52-2.31l.54-.06q8.56-1,17.14-2l37.85-4.26a44.08,44.08,0,0,0,6.8-.88c3.69-1,4.56-5.15,5.18-8.44l0-.1c1.87-9.94,3.35-20,5.1-29.93m-88.76,36.63c-1.47-.1-3.49-1.44-4.6-1.35a4.12,4.12,0,0,1,.51,3.3c-.94,3.33-5.18,1.61-7.23.59a22,22,0,0,0-5.15-2.24c-2.1-.45-3.53.39-5.3,1.35a15.63,15.63,0,0,1-4.69,1.66,9.71,9.71,0,0,1-2.51.11l-.17.11-.44.23a24.18,24.18,0,0,1,5.81,1.26c1.9.57,3.77,1.27,5.62,2l1.83.7c4.5,1.73,9.16,3.36,14,3.35a1.44,1.44,0,0,1,.86.26m-6.81-21.75a5,5,0,0,1,3.95,1c1.4,1.14,2.34,3,4.36,3.16a.53.53,0,0,1,.14,1c-1.5.45-2.71-.37-3.74-1.42l-.68-.71a4.44,4.44,0,0,0-3.65-1.79c-1.83.06-3.66.49-5.48.7-2.07.25-4.13.45-6.2.63-.09,0-.11-.14,0-.16l2.32-.58m7.6-7.75.24,0c2.11-.2,4-.21,5.92.93l.36.21a13.81,13.81,0,0,1,4.61,3.92.37.37,0,0,1-.41.53c-2-.49-3.53-2-5.24-3.11-1.93-1.26-3.92-1.05-6.11-.85s-4.25.44-6.36.8-4,.86-6,1h0a.25.25,0,0,1-.12-.46,27.12,27.12,0,0,1,6.58-1.95M53.11,170.09c0-.13.22-.18.3-.07A24.56,24.56,0,0,1,56,176.19c.71,2.14,1.28,4.3,1.8,6.48A59.09,59.09,0,0,1,59.49,196c0,.64-1.27.81-1.39.15-.82-4.37-1.61-8.74-2.44-13.11-.42-2.2-.91-4.38-1.37-6.57m10.52-1.95c-.09-.27.37-.36.49-.11a24.52,24.52,0,0,1,1.83,17.41c-.26.88-1.79.5-1.59-.37m34.52-28.13c0-.25.31-.29.43-.12,1.31,1.84,1.85,4.3,4.14,5.25,1.14.48,2.42.39,3.43,1.2a1.67,1.67,0,0,1,.69,2.19.54.54,0,0,1-.84.11,5.42,5.42,0,0,0-.94-1.23,7.24,7.24,0,0,0-2.16-.67,5.19,5.19,0,0,1-2.4-1.43m19.44-36a.27.27,0,0,1,.35.1.29.29,0,0,1,0,.44,9.79,9.79,0,0,1,.47,1.59c.14.6.28,1.2.44,1.81.31,1.21.57,2.44.88,3.66s.72,2.56,1.15,3.82l.09.25.06.13v0a.14.14,0,0,1,.25.1c0,.14-.05.27-.07.4l0,.12a2.23,2.23,0,0,1,0,2.25,1,1,0,0,1-.68.44,38.47,38.47,0,0,1-1.54,4.13l-.17.39a22.78,22.78,0,0,1-3.09,5.51c-1.47,1.81-3.5,3-4.78,5a12.25,12.25,0,0,0-1.34,2.92l-.13.4a3.18,3.18,0,0,1-1.21,1.88.61.61,0,0,1-.72-.1c-1.42-1.49.07-4.28.92-5.73,1.18-2,2.9-3.3,4.61-4.82a20.57,20.57,0,0,0,4.18-6c.69-1.32,1.37-2.67,2.08-4a6,6,0,0,1-1.23-2.87l0-.08a32.09,32.09,0,0,1-1-4.43,24.87,24.87,0,0,1-.23-4.31v-.37m3.47,4.21c-.16-.23.11-.48.33-.43a15.16,15.16,0,0,1,3.94,1.78l.13.07a5.53,5.53,0,0,1,2.48,2.2,7,7,0,0,1,.44,3.62v.11a30.76,30.76,0,0,1-.41,4.4,1,1,0,0,1-1.39.77c-.67,2.12-2.57,3.69-4,5.37-1.76,2.14-1.43,5-1.24,7.61.07,1.05-1.23,1.34-1.9.79l-1.54-1.28-.77-.65-.65-.55-.32-.29c-.14-.13-.77-.83-1-.86-.45-.07-1.51,1.1-1.87,1.47l0,0a19.08,19.08,0,0,0-1.87,2.15.14.14,0,0,1-.24-.14,19.28,19.28,0,0,1,1.82-3.14l.14-.19c.47-.64,1.11-1.76,1.94-1.95,1-.23,2,.79,2.78,1.36l0,0,1,.8a10.09,10.09,0,0,1,1.2-5.51,20,20,0,0,1,2.64-3c1-1.12,1.51-2.49,2.42-3.65a.67.67,0,0,1,.45-.26c0-.93.17-1.88.28-2.8l0-.28a5.68,5.68,0,0,0-.13-3.17,7.74,7.74,0,0,0-2.32-2.12l-.65-.5M80.2,128.83a4.66,4.66,0,0,0-1.15.9,18.9,18.9,0,0,0-2.65,4c-.41.75-.81,1.51-1.23,2.26l-.55,1c-.09.14-.35.44-.47.62.14.2.28.4.43.59s4,4.37,5.38,6.06a55.07,55.07,0,0,1,5.6,8.21c1.58,2.85,2.78,5.88,4.24,8.79a22,22,0,0,0,2.58,4.16l.13.14a12.52,12.52,0,0,1,1.91-2.88l0-.06c1.13-1.53,2.33-3,3.55-4.47s2.26-2.63,3.43-3.91l.45-.48a12.94,12.94,0,0,1,3-2.83,5.71,5.71,0,0,0-.45-.68,15.18,15.18,0,0,0-4.27-3.49l-1-.62a69.25,69.25,0,0,1-10.9-7.79,43.09,43.09,0,0,1-5-5.15l-.53-.66m3.74-4.87a22.07,22.07,0,0,0-5.37.7c1.47,1.39,2.86,2.89,4.3,4.31.13-1,.39-1.91.61-2.84" transform="translate(-13.81 -0.58)"/><path class="cls-3" d="M139.76,77.08c-.53-6.9.3-14.14-2.36-20.7-4.64-10.88-17.65-14.51-27.73-18.66-4-1.19-17.63-1.36-22.36-2.94C76.6,31.2,74,26.94,65.54,33.75a9.22,9.22,0,0,0-3,4.16h0a2.32,2.32,0,0,0,.44,2,13.9,13.9,0,0,0-3.34,14.45c6.18,13.06,5.88,20.13,3.9,34.17-2.6,13.11,3.33,17.9,13.17,25a2.39,2.39,0,0,0,0,2.49c11.37,16,32.81,23.62,51.18,15.5,7.45-3.32,10.78-11.26,12.68-18.43a51.24,51.24,0,0,0,1.09-24.66A104.5,104.5,0,0,1,139.76,77.08Z" transform="translate(-13.81 -0.58)"/><path class="cls-4" d="M74.17.61a2.7,2.7,0,0,1,2.92,1.85l0,.07c.16.41.34.81.53,1.2C81.1,2,86,2.47,88.21,5.91c1.56,2.45.61,5.36,0,8l-.38,1.71a2.64,2.64,0,0,1,1.28,2.21v.06L89,20.24a12,12,0,0,0,1.36-1.64c.28-.51.58-1,.91-1.51a2.68,2.68,0,0,1,4.63,2.71,14.37,14.37,0,0,1-1,1.7,15.44,15.44,0,0,0-1,2.47,2.35,2.35,0,0,1,1.38,2.14,6.58,6.58,0,0,1-3.32,6,2.36,2.36,0,0,1-1.86.33l-.31.42A13.64,13.64,0,0,1,92,35.21a42.57,42.57,0,0,1,6-.44,13.29,13.29,0,0,1,8-.72c1.68.29,3.3.85,5,1.25s3.52.44,5.29.73a8.25,8.25,0,0,1,5.4,3,8.11,8.11,0,0,1,4,1.34l8.19,5.27a2.81,2.81,0,0,1,1.25,3l0,.08-.09.49.22.31a20.53,20.53,0,0,1,2.28,3.72,40.63,40.63,0,0,1,2.71,4.52,32.72,32.72,0,0,1,2.57,6.6c.15.58.3,1.16.4,1.75a6.66,6.66,0,0,1-.19,2.27c-.15,1-.2,2-.36,3a1.23,1.23,0,0,1-1.27,1c.22,1.71.38,3.43.54,5.14.22,2.44.36,4.88.49,7.33a5.85,5.85,0,0,0,3,2,6.86,6.86,0,0,0,4-.49c.8-.29,1.46.71,1.07,1.39-1.23,2.11-3.85,2.1-5.84,1.17a5.58,5.58,0,0,1-2.13-1.72c0,.71.07,1.42.11,2.13l0,.65c.4,7.53,1.28,15.31-.14,22.77a28.63,28.63,0,0,1-26.18,23.51,36.27,36.27,0,0,1-15.38-2.75c-2.83-1.13-1.73-3.44.24-2.78,3.39,1.14,9.62,2.82,15.19,2.09,13.14-1.71,24.28-8.28,23.13-36.57-.16-4-.66-8-.77-12s-.06-7.85-.23-11.77l-.06-1.34c-.07-1.56-.14-3.13-.26-4.69-.14-.61-.26-1.23-.43-1.82a27.44,27.44,0,0,0-1.84-4.7,1.37,1.37,0,0,1-.56.26,7.34,7.34,0,0,1-4.46-.45,6.82,6.82,0,0,1-1.83-1.18,2.91,2.91,0,0,1-.58-.69,2.36,2.36,0,0,1-1.85-.71,1.67,1.67,0,0,1-.39-1.72l0,0,0,0A8.73,8.73,0,0,1,123,59.15a12.36,12.36,0,0,1-7.06,1.9,48.64,48.64,0,0,1-8.25-.8c-.71-.11-1.41-.24-2.1-.41,0,0,0,.06-.08.08a7.63,7.63,0,0,1-8.44,1.51,13.08,13.08,0,0,1-4.34-3.23q0,1-.12,2.1l0,.27a5.58,5.58,0,0,1-1.34,3.6c-1.58,1.51-3.87.9-5.69-.08v.14c.5,1.67,1,3.35,1.48,5l.11.36A17.9,17.9,0,0,1,88,73.22c.21,2.38-1.37,4.73-4,3.93a10.53,10.53,0,0,1-3.56-2.51l-.67-.58a64.2,64.2,0,0,1,3,17.46.58.58,0,0,1-.58.58,5.31,5.31,0,0,1-2.19-.4h-.13a8.41,8.41,0,0,1-3.36-1.27,6.25,6.25,0,0,1,.27,2.34c0,.2-.33.27-.37,0a6.12,6.12,0,0,0-6.79-4.45,7.7,7.7,0,0,0-5.91,6.26,12.05,12.05,0,0,0,2.66,9.49,6.41,6.41,0,0,0,3.78,2.36,4.75,4.75,0,0,0,2.09-.12c.29-.09.56-.21.83-.32s.87-.18,1.25-.35A.94.94,0,0,1,75.67,107a3.8,3.8,0,0,1-1.34,1.68c.5.61,1,1.48,1.13,1.71a42.36,42.36,0,0,0,2.75,3.36,28.34,28.34,0,0,0,3.28,3l.49.39a11.43,11.43,0,0,1,2.89,3,1.58,1.58,0,0,1-1.36,2.36c-3.65,0-6.31-3.27-8.21-6.07-.27-.41-.52-.83-.76-1.27a2.2,2.2,0,0,1-.28.38l.21.57c.62,1.65-2,2.73-2.83,1.19a22.42,22.42,0,0,0-1.94-3.19,1.62,1.62,0,0,1-1.08-.66c-.59-.85-1.25-1.72-1.81-2.63-.31-.29-.63-.58-1-.85l-.28.25A11.82,11.82,0,0,1,64,112.76l-.13.17c-1.2,1.52-2.76,3.07-4.7,3.43-.59.12-1.16-.62-.63-1.09,1.35-1.21,3-2,4.2-3.4a15.29,15.29,0,0,0,1.66-2.18l.11-.18c.08-.13.17-.26.25-.4L63.1,108c-1.55,1.32-3.57,1.93-5.28,3l-.17.11c-1.55,1-3.19-1.26-1.94-2.52A53.4,53.4,0,0,0,59.44,104a8.83,8.83,0,0,1-.95-3.55c0-.36-.07-.71-.1-1.07a4.36,4.36,0,0,1-2.49-.8l-.28-.2a8.15,8.15,0,0,1-2.75.4,2.39,2.39,0,0,1-1.66-4,5,5,0,0,1,5.61-1.15l.19-.1a2.21,2.21,0,0,1,0-1.12l0-.2a5.13,5.13,0,0,1-.79-2.13,5,5,0,0,1,.08-1.81,6.34,6.34,0,0,1,.21-.61,4.18,4.18,0,0,1-.27-1.19l-.12-.16a3.18,3.18,0,0,1,.14-4c0-.07,0-.14,0-.21a3.65,3.65,0,0,1-.14-.35,4,4,0,0,1-1.39-3.24,3.42,3.42,0,0,1,.86-2,1.16,1.16,0,0,1,0-.78A11.8,11.8,0,0,1,55.51,69a3,3,0,0,1-.17-1.12,3.36,3.36,0,0,1,3.25-3.21,2.88,2.88,0,0,1,.59.06v0a4.23,4.23,0,0,1,.41-1.39,1,1,0,0,1-.28-.16,15,15,0,0,1-3.5,1.35,1.13,1.13,0,0,1-1.27-1.64,7.07,7.07,0,0,1,.86-1.07,10.17,10.17,0,0,0-1.34.09,2.61,2.61,0,0,1-2.25-1.2l-2,1.91A2.64,2.64,0,0,1,45.4,60.9,3.73,3.73,0,0,1,44,60.23a23.3,23.3,0,0,1-8.34,1.88,2.71,2.71,0,0,1-2.31-4A13.21,13.21,0,0,1,35.77,55a27.76,27.76,0,0,1-4.47,1A2.56,2.56,0,0,1,29,54.64a10,10,0,0,1,.29-8.77l.18-.33c.15-.37.32-.74.5-1.11a6.39,6.39,0,0,1-1-7,2.3,2.3,0,0,1-.27-2.06,17.48,17.48,0,0,1,3.18-5.34,6,6,0,0,1-.34-.81,6.66,6.66,0,0,1,1.91-6.74,9.23,9.23,0,0,1,3.8-2,10.83,10.83,0,0,1,2.2-2.74,2.14,2.14,0,0,1,.1-.22A8.2,8.2,0,0,1,46,13.31,2.67,2.67,0,0,1,47.79,11,8.33,8.33,0,0,1,49,8.6a2.76,2.76,0,0,1,3.67-1,15.37,15.37,0,0,1,2.13,1.45,2.94,2.94,0,0,1,1-.26h.1l2.21-.11c.93-.41,1.86-.84,2.78-1.26a7.64,7.64,0,0,1,1.86-1.13,7.54,7.54,0,0,1,2.34-.56,18.58,18.58,0,0,1,1.94-.54,21,21,0,0,1,4.75-.51c0-.41,0-.83,0-1.26V3.24A2.66,2.66,0,0,1,74.17.61ZM72.62,109.28a5,5,0,0,1-.66.11c.07.17.13.34.2.5l.54.29A5.67,5.67,0,0,1,72.62,109.28Zm-11.53-3.43-.15.28a.83.83,0,0,1-.07.13,5,5,0,0,1,1,0v0l-.12,0A4,4,0,0,1,61.09,105.85Zm6.23-12.54A13.84,13.84,0,0,1,72.8,94.6l.15.08c1.6.79,4.24,2.26,4,4.35a1.21,1.21,0,0,1-1.18,1.18c-1.87-.13-2.94-2-4.21-3.19a21.76,21.76,0,0,0-4.39-3.22.27.27,0,0,1,.11-.49Zm-9-27.65c-.48,0-.32.47-.07.09ZM84,34.78c-4.5.12-9,2.78-12.41,5.47a43.73,43.73,0,0,0-7.72,8.13,43.94,43.94,0,0,0-1.49,4.55c-.28,1-.45,2-.68,3.07l-.08.31a5.22,5.22,0,0,0-.41,1.08,3.23,3.23,0,0,0,1.52.85.89.89,0,0,1,.47.27A10.29,10.29,0,0,0,64.32,56v0c.91-1.49,1.89-2.92,2.94-4.31a51.26,51.26,0,0,1,10-10.22,32.65,32.65,0,0,1,9.64-5A10.5,10.5,0,0,0,84,34.78Z" transform="translate(-13.81 -0.58)"/><path class="cls-4" d="M123.71,113.81a2.09,2.09,0,0,1,1.86-1.07c3.25.38,3.24,4.32,2,6.62a6.08,6.08,0,0,1-5.72,3.07,6.19,6.19,0,0,1-5.39-3.88c-.6-1.5-.88-4.26.72-5.27,0,0,.07,0,.1,0,.76.89.79,2.23,1.46,3.22a3.92,3.92,0,0,0,2.73,1.81,1.92,1.92,0,0,0,2-1,1.28,1.28,0,0,0,.09-.92l-.06-.25A2.76,2.76,0,0,1,123.71,113.81Zm.86-17.29c1.7,1,4.28,3.44,2.46,6-2.15,2.25-5.24-.33-6.76-1.5-1.41-.9-3,1.43-1.69,2.49,11,8.14,15.47-6.71,6.85-8.19C124.48,95.15,124.13,96.21,124.57,96.52Zm-17.89-7.06a2.21,2.21,0,0,1,4,.52c.3,1-.12,1.91-.1,2.91a8.26,8.26,0,0,1-.3,2.61A4.35,4.35,0,0,1,106,98.63a5.27,5.27,0,0,1-4.56-3.07,7.12,7.12,0,0,1,0-5.42.13.13,0,0,1,.22,0,16.61,16.61,0,0,1,1.79,2.42l.55.88c.43.66,1.05,1.5,1.85,1.45h.12c.22,0,.18,0,.35-.28a2.53,2.53,0,0,0,.11-.56V93.9c0-.08,0-.23,0-.49v-.06C106.29,92.13,105.94,90.56,106.68,89.46Zm26.36,1c-.18-2,2.62-2.44,3.56-1a6.36,6.36,0,0,1,.73,2.66l0,.44a5.13,5.13,0,0,1-.25,2.8,3.51,3.51,0,0,1-3.55,2,4.3,4.3,0,0,1-3.45-2.21c-.62-1.13-1.24-3.35-.49-4.53a.13.13,0,0,1,.2,0c.71.63.83,1.78,1.25,2.6a3,3,0,0,0,2.09,1.8c1,.12,1.33-.4,1.08-1.31C134,92.57,133.16,91.77,133,90.5Zm-25.6-12.91.45-.18c1.58-.59,3.74-1.28,5,0a2.37,2.37,0,0,1,.38,2.91c-.68,1.17-1.91,1.2-3.09,1.37a16.05,16.05,0,0,0-4,1.09,25.39,25.39,0,0,0-4,2.18c-1.21.78-2.43,2.07-3.88,2.32a.13.13,0,0,1-.15-.08c-.33-1.43.59-2.83,1.41-3.94a16.54,16.54,0,0,1,3.54-3.45A18.19,18.19,0,0,1,107.44,77.59ZM136,82.66l.14,0a2.58,2.58,0,0,1,2.53.63,2,2,0,0,1,.5,2.09,2.23,2.23,0,0,1-1.56,1.56,25.82,25.82,0,0,1-8.23,0,28,28,0,0,1-3.63-.71l-.54-.16a6.35,6.35,0,0,1-2.84-1.31.45.45,0,0,1,.2-.75c1.25-.49,3-.23,4.31-.27,1.55,0,3.11-.16,4.65-.32S134.51,82.93,136,82.66Z" transform="translate(-13.81 -0.58)"/></g></svg>