<svg id="Слой_1" data-name="Слой 1" xmlns="http://www.w3.org/2000/svg" xmlns:xlink="http://www.w3.org/1999/xlink" viewBox="0 0 78.81 35.42"><defs><style>.cls-1{fill:#6687a8;}.cls-2{fill:none;}.cls-3{mask:url(#mask);}.cls-4{clip-path:url(#clip-path);}.cls-5{fill:#0092e8;}.cls-6{fill:#fff;}</style><mask id="mask" x="-97.57" y="-92.98" width="300" height="300" maskUnits="userSpaceOnUse"><g transform="translate(-97.57 -110.14)"><g id="mask0"><rect class="cls-1" y="17.16" width="300" height="300"/></g></g></mask><clipPath id="clip-path" transform="translate(-97.57 -110.14)"><rect class="cls-2" x="48.52" y="20.6" width="180.49" height="258.79"/></clipPath></defs><title>new-process-3-img-3</title><g class="cls-4"><path class="cls-5" d="M103.69,110.62h66.56a5.64,5.64,0,0,1,5.64,5.64v23.18a5.64,5.64,0,0,1-5.64,5.64H103.69a5.64,5.64,0,0,1-5.63-5.64V116.26A5.64,5.64,0,0,1,103.69,110.62Z" transform="translate(-97.57 -110.14)"/><path class="cls-5" d="M170.25,145.56H103.69a6.13,6.13,0,0,1-6.12-6.12V116.26a6.13,6.13,0,0,1,6.12-6.12h66.56a6.13,6.13,0,0,1,6.13,6.12v23.18A6.13,6.13,0,0,1,170.25,145.56Zm-66.56-34.45a5.16,5.16,0,0,0-5.15,5.15v23.18a5.16,5.16,0,0,0,5.15,5.15h66.56a5.16,5.16,0,0,0,5.16-5.15V116.26a5.16,5.16,0,0,0-5.16-5.15Z" transform="translate(-97.57 -110.14)"/><path class="cls-6" d="M104.61,120.61V117l-1,.59v-1.39l1.21-.85h1.45v5.3Zm3.33,0V117l-1,.59v-1.39l1.22-.85h1.44v5.3Zm5-1.2a.69.69,0,0,0,.63-.32,2.14,2.14,0,0,0,.19-1v-.19a2,2,0,0,0-.2-1,.68.68,0,0,0-.63-.33.71.71,0,0,0-.65.33,2.06,2.06,0,0,0-.2,1v.21a2.05,2.05,0,0,0,.2,1A.72.72,0,0,0,112.9,119.41Zm-.05,1.3A2.4,2.4,0,0,1,111,120a2.71,2.71,0,0,1-.66-2v-.21a2.59,2.59,0,0,1,.71-1.93,2.43,2.43,0,0,1,1.8-.7,2.37,2.37,0,0,1,2.51,2.59V118a2.74,2.74,0,0,1-.69,2A2.44,2.44,0,0,1,112.85,120.71Zm4.23-.1v-.17l2.12-3.87h-1.83v-1.26h4.18v.18l-2.1,3.86h2v1.26Zm4.81-1.66v-.86l.45-.15v-2.63H124v2l1.31-.45v.86l-1.31.45v1.1H126v1.29h-3.62V118.8Z" transform="translate(-97.57 -110.14)"/><path class="cls-6" d="M146.38,127.1h-42.7v2.52h42.7Z" transform="translate(-97.57 -110.14)"/><path class="cls-6" d="M163.33,131.24H103.68v2.52h59.65Z" transform="translate(-97.57 -110.14)"/><path class="cls-6" d="M126.8,135.39H103.68v2.52H126.8Z" transform="translate(-97.57 -110.14)"/></g></svg>