<svg xmlns="http://www.w3.org/2000/svg" width="32" height="32" viewBox="0 0 32 32">
    <path fill="#1D1E29" d="M21.296 7.247c1.127 0 4.546.247 6.602 3.334l.481.723-.693.523c-.99.747-2.796 2.11-2.796 4.809 0 3.196 2.046 4.425 3.028 5.017.434.26.883.53.883 1.118 0 .385-3.067 8.636-7.52 8.636-1.09 0-1.86-.328-2.54-.617-.688-.292-1.28-.544-2.26-.544-.497 0-1.126.235-1.79.484-.91.34-1.938.725-3.105.725h-.03C6.873 31.428 3 21.87 3 17.005c0-7.95 5.964-9.69 8.263-9.69 1.035 0 2.141.406 3.117.766.682.25 1.388.51 1.78.51.235 0 .788-.22 1.277-.414 1.042-.415 2.339-.93 3.849-.93h.009zM21.759 0c.116 4.182-2.875 7.084-5.863 6.902C15.404 3.564 18.883 0 21.76 0z"/>
</svg>
