<svg xmlns="http://www.w3.org/2000/svg" width="32" height="32" viewBox="0 0 32 32">
    <g fill="none">
        <path fill="#FBBB00" d="M7.092 19.338l-1.114 4.158-4.071.086C.69 21.326 0 18.744 0 16c0-2.653.645-5.155 1.789-7.358l3.625.664 1.588 3.603c-.332.969-.513 2.009-.513 3.091 0 1.174.213 2.3.603 3.338z"/>
        <path fill="#518EF8" d="M31.72 13.011c.184.968.28 1.967.28 2.989 0 1.145-.12 2.263-.35 3.34-.779 3.668-2.814 6.871-5.633 9.137h-.001l-4.565-.233-.646-4.034c1.87-1.097 3.332-2.814 4.102-4.87h-8.555v-6.329H31.72z"/>
        <path fill="#28B446" d="M26.016 28.477C23.276 30.681 19.793 32 16 32c-6.093 0-11.39-3.406-14.093-8.418l5.185-4.244c1.351 3.606 4.83 6.173 8.908 6.173 1.753 0 3.395-.474 4.804-1.3l5.212 4.266z"/>
        <path fill="#F14336" d="M26.213 3.683l-5.184 4.244C19.571 7.015 17.847 6.489 16 6.489c-4.17 0-7.714 2.685-8.998 6.42L1.79 8.642h-.001C4.452 3.508 9.816 0 16 0c3.882 0 7.442 1.383 10.213 3.683z"/>
    </g>
</svg>
