<svg xmlns="http://www.w3.org/2000/svg" width="32" height="32" viewBox="0 0 32 32">
    <path fill="#1D519D" fill-rule="evenodd" d="M13.392 19.03L27.348 4.794l.705.705C30.59 8.176 32 12.264 32 15.93 32 24.81 24.81 32 15.93 32 7.19 32 0 24.81 0 15.93 0 7.19 7.19 0 15.93 0c2.819 0 5.638.705 8.035 2.115l.846.563-1.551 2.397-.705-.423C20.581 3.524 18.326 2.96 15.93 2.96c-7.19 0-12.97 5.78-12.97 12.97 0 7.33 5.78 13.11 12.97 13.11 7.33 0 13.11-5.78 13.11-13.11 0-2.397-.705-4.652-1.833-6.767L13.392 23.119 6.485 16.21l1.973-2.114 4.934 4.934z"/>
</svg>
