<svg id="Слой_1" data-name="Слой 1" xmlns="http://www.w3.org/2000/svg" viewBox="0 0 80 50" width="80" height="50"><defs><style>.cls-1{fill:#fff}</style></defs><path class="cls-1" d="M13.87 21.375a.193.193 0 01-.066.144.437.437 0 01-.231.041c-.06 0-.108 0-.147-.005a.344.344 0 01-.09-.016.085.085 0 01-.044-.035.087.087 0 01-.008-.056l.181-2.686a4.44 4.44 0 01.022-.256l.037-.354.041-.388a8.31 8.31 0 01.047-.36h-.01l-.166.302-.176.319-.178.325-.169.31-1.538 2.71a.77.77 0 01-.056.09.219.219 0 01-.063.06.256.256 0 01-.09.03.688.688 0 01-.128.01.754.754 0 01-.117-.007.177.177 0 01-.073-.027.129.129 0 01-.047-.056.379.379 0 01-.026-.095l-.425-2.715a10.96 10.96 0 01-.054-.344l-.046-.335a10.313 10.313 0 01-.061-.576h-.01c-.03.104-.061.214-.095.327l-.103.347c-.034.117-.07.233-.107.35-.038.115-.072.226-.105.333l-.85 2.632a.368.368 0 01-.044.088.152.152 0 01-.06.052.292.292 0 01-.096.021c-.039.004-.09.005-.151.005a.822.822 0 01-.15-.01.135.135 0 01-.072-.03.062.062 0 01-.018-.058.826.826 0 01.02-.087l1.357-4.2a.447.447 0 01.137-.195.368.368 0 01.23-.068h.214a.815.815 0 01.186.017.247.247 0 01.12.06.278.278 0 01.07.116.96.96 0 01.04.178l.327 2.075q.029.186.053.366l.047.357c.015.117.028.231.039.341l.032.323h.01c.054-.108.113-.22.173-.337l.185-.357.19-.358c.064-.12.129-.233.193-.345l1.133-2.065a1.193 1.193 0 01.11-.168.551.551 0 01.12-.115.47.47 0 01.141-.066.67.67 0 01.181-.022h.288a.32.32 0 01.205.053.216.216 0 01.049.196zm6.086-2.905a4.152 4.152 0 01-.068.742 3.778 3.778 0 01-.208.725 3.336 3.336 0 01-.349.654 2.525 2.525 0 01-.49.533 2.255 2.255 0 01-.633.358 2.196 2.196 0 01-.776.132 2.34 2.34 0 01-.774-.112 1.316 1.316 0 01-.525-.325 1.284 1.284 0 01-.3-.517 2.305 2.305 0 01-.095-.687 4.16 4.16 0 01.068-.742 3.73 3.73 0 01.207-.723 3.422 3.422 0 01.35-.654 2.455 2.455 0 01.49-.532 2.3 2.3 0 01.633-.357 2.195 2.195 0 01.776-.131 2.366 2.366 0 01.774.112 1.329 1.329 0 01.525.325 1.286 1.286 0 01.3.515 2.277 2.277 0 01.095.683zm-.615.029a1.841 1.841 0 00-.059-.484.879.879 0 00-.192-.363.869.869 0 00-.35-.23 1.655 1.655 0 00-1.105.03 1.621 1.621 0 00-.47.298 1.967 1.967 0 00-.36.441 2.835 2.835 0 00-.254.545 3.507 3.507 0 00-.15.6 3.908 3.908 0 00-.048.613 1.832 1.832 0 00.058.483.835.835 0 00.542.594 1.671 1.671 0 001.106-.03 1.61 1.61 0 00.47-.3 2.007 2.007 0 00.36-.444 2.825 2.825 0 00.254-.544 3.553 3.553 0 00.15-.599 3.865 3.865 0 00.048-.61zm6.164-.118a4.245 4.245 0 01-.051.616 4.648 4.648 0 01-.164.706 4.202 4.202 0 01-.293.703 2.728 2.728 0 01-.434.612 2.018 2.018 0 01-.591.433 1.742 1.742 0 01-.767.163 1.78 1.78 0 01-.417-.046 1.488 1.488 0 01-.344-.13 1.556 1.556 0 01-.288-.195 2.096 2.096 0 01-.245-.244l-.434 2.187a.13.13 0 01-.022.054.132.132 0 01-.051.042.306.306 0 01-.09.024 1.169 1.169 0 01-.145.007 1.057 1.057 0 01-.137-.007.271.271 0 01-.085-.024.086.086 0 01-.041-.042.098.098 0 01-.005-.054l1.24-6.172a.12.12 0 01.073-.097.56.56 0 01.215-.03.782.782 0 01.12.008.265.265 0 01.075.022.067.067 0 01.037.039.135.135 0 01.002.058l-.18.904a1.26 1.26 0 01.23-.352 2.2 2.2 0 01.397-.354 2.326 2.326 0 01.515-.271 1.62 1.62 0 01.576-.107 1.395 1.395 0 01.616.122 1.091 1.091 0 01.403.33 1.308 1.308 0 01.22.49 2.67 2.67 0 01.065.605zm-.615.025a2.068 2.068 0 00-.042-.427 1.045 1.045 0 00-.131-.342.63.63 0 00-.24-.224.756.756 0 00-.363-.081 1.242 1.242 0 00-.591.159 2.047 2.047 0 00-.554.441 3.09 3.09 0 00-.457.677 3.303 3.303 0 00-.293.866l-.18.889a2.055 2.055 0 00.558.564 1.208 1.208 0 00.662.188 1.012 1.012 0 00.522-.137 1.49 1.49 0 00.415-.361 2.424 2.424 0 00.313-.51 3.996 3.996 0 00.217-.589 4.223 4.223 0 00.125-.593 3.983 3.983 0 00.039-.52zm5.705-.947a.753.753 0 01-.012.136.585.585 0 01-.037.125.248.248 0 01-.063.09.126.126 0 01-.088.034.205.205 0 01-.14-.078 1.659 1.659 0 00-.204-.173 1.473 1.473 0 00-.33-.173 1.433 1.433 0 00-.513-.079 1.278 1.278 0 00-.605.14 1.56 1.56 0 00-.457.361 2.092 2.092 0 00-.322.505 3.682 3.682 0 00-.208.574 4.168 4.168 0 00-.112.562 3.804 3.804 0 00-.034.47 1.292 1.292 0 00.244.855.887.887 0 00.718.288 1.772 1.772 0 00.581-.085 2.167 2.167 0 00.413-.19 3.159 3.159 0 00.275-.19.316.316 0 01.181-.087.066.066 0 01.056.033.166.166 0 01.022.094.839.839 0 01-.007.103 1.116 1.116 0 01-.022.12.642.642 0 01-.04.114.39.39 0 01-.082.113 1.237 1.237 0 01-.208.151 2.018 2.018 0 01-.344.169 2.82 2.82 0 01-.425.124 2.227 2.227 0 01-.473.049 1.501 1.501 0 01-1.13-.388 1.613 1.613 0 01-.374-1.16 4.563 4.563 0 01.051-.651 4.256 4.256 0 01.169-.713 4.055 4.055 0 01.302-.697 2.517 2.517 0 01.454-.597 2.087 2.087 0 01.625-.418 2.024 2.024 0 01.816-.157 2.11 2.11 0 01.37.033 1.983 1.983 0 01.34.088 1.551 1.551 0 01.503.297.375.375 0 01.093.113.25.25 0 01.017.095zm4.215 3.964a.114.114 0 01-.011.054.107.107 0 01-.047.044.256.256 0 01-.093.03 1.196 1.196 0 01-.305 0 .335.335 0 01-.088-.025.1.1 0 01-.046-.04.15.15 0 01-.02-.053l-.268-1.216a1.793 1.793 0 00-.134-.39.736.736 0 00-.506-.406 1.703 1.703 0 00-.41-.043h-.39l-.416 2.09a.07.07 0 01-.026.036.221.221 0 01-.064.03.708.708 0 01-.095.02.917.917 0 01-.122.006.865.865 0 01-.12-.007.54.54 0 01-.088-.02.154.154 0 01-.053-.029.038.038 0 01-.013-.037l.899-4.492a.046.046 0 01.024-.036.191.191 0 01.064-.027.994.994 0 01.095-.017.965.965 0 01.124-.008.85.85 0 01.12.008.807.807 0 01.086.017.115.115 0 01.05.027.036.036 0 01.013.036l-.38 1.92h.38a1.37 1.37 0 00.376-.052 1.3 1.3 0 00.344-.156 1.627 1.627 0 00.31-.264 2.137 2.137 0 00.274-.378l.615-1.021a.253.253 0 01.049-.06.208.208 0 01.075-.045.458.458 0 01.11-.024 1.382 1.382 0 01.157-.008.976.976 0 01.134.008.484.484 0 01.078.017.059.059 0 01.034.024.077.077 0 01.007.034.19.19 0 01-.014.072.534.534 0 01-.049.09l-.708 1.113a2.315 2.315 0 01-.544.605 1.63 1.63 0 01-.271.174 1.468 1.468 0 01-.25.1v.01a1.054 1.054 0 01.272.124 1.042 1.042 0 01.227.2 1.296 1.296 0 01.18.279 1.72 1.72 0 01.127.363l.288 1.216a.288.288 0 01.015.054.317.317 0 01.005.053zm4.978.01a.132.132 0 01-.078.098.56.56 0 01-.215.03.802.802 0 01-.12-.008.263.263 0 01-.075-.022.074.074 0 01-.039-.04.092.092 0 010-.058l.18-.908a1.259 1.259 0 01-.229.352 2.241 2.241 0 01-.398.354 2.416 2.416 0 01-.515.273 1.581 1.581 0 01-.576.11 1.355 1.355 0 01-.65-.137 1.085 1.085 0 01-.4-.358 1.372 1.372 0 01-.2-.498 2.917 2.917 0 01-.054-.555 4.201 4.201 0 01.049-.593 4.503 4.503 0 01.161-.698 4.592 4.592 0 01.288-.706 2.712 2.712 0 01.432-.622 2.042 2.042 0 01.596-.444 1.718 1.718 0 01.774-.17 1.495 1.495 0 01.762.18 2.055 2.055 0 01.556.48l.103-.479a.133.133 0 01.085-.097.586.586 0 01.213-.03.837.837 0 01.122.008.191.191 0 01.076.025.074.074 0 01.034.04.116.116 0 01.002.054zm.098-3.35a2.05 2.05 0 00-.56-.563 1.201 1.201 0 00-.66-.188 1.026 1.026 0 00-.53.14 1.513 1.513 0 00-.418.365 2.418 2.418 0 00-.31.515 4.083 4.083 0 00-.212.589 4.47 4.47 0 00-.122.588 3.865 3.865 0 00-.04.508 2.467 2.467 0 00.03.376 1.04 1.04 0 00.114.346.719.719 0 00.237.257.709.709 0 00.396.1 1.252 1.252 0 00.59-.158 2.041 2.041 0 00.555-.445 3.093 3.093 0 00.454-.678 3.483 3.483 0 00.295-.868zm5.017 3.35a.198.198 0 01-.027.054.113.113 0 01-.054.039.431.431 0 01-.095.024.842.842 0 01-.142.01.8.8 0 01-.139-.01.298.298 0 01-.085-.024.074.074 0 01-.04-.04.078.078 0 010-.053l.391-1.968h-.644a1.577 1.577 0 00-.508.074 1.323 1.323 0 00-.374.193 1.378 1.378 0 00-.276.275 3.21 3.21 0 00-.21.318l-.605 1.05a.83.83 0 01-.063.095.188.188 0 01-.074.056.354.354 0 01-.11.027 1.597 1.597 0 01-.168.007.636.636 0 01-.103-.007.228.228 0 01-.07-.022.118.118 0 01-.042-.034.078.078 0 01-.015-.05.076.076 0 01.008-.03l.024-.054a4.823 4.823 0 01.125-.237l.561-.943a2.669 2.669 0 01.45-.59 1.126 1.126 0 01.507-.279 1.087 1.087 0 01-.627-.334.919.919 0 01-.193-.599 1.389 1.389 0 01.044-.336 1.273 1.273 0 01.144-.344 1.5 1.5 0 01.264-.323 1.566 1.566 0 01.402-.268 2.484 2.484 0 01.562-.184 3.619 3.619 0 01.737-.068c.092 0 .183.002.276.005q.14.006.276.015l.266.019c.087.007.167.015.242.024a.28.28 0 01.178.088.261.261 0 01.037.23zm.224-4.048a5.203 5.203 0 00-.386-.034 8.352 8.352 0 00-.356-.01 2.442 2.442 0 00-.776.101 1.194 1.194 0 00-.452.254.77.77 0 00-.212.332 1.165 1.165 0 00-.054.334.585.585 0 00.06.273.52.52 0 00.189.199.992.992 0 00.322.122 2.316 2.316 0 00.469.04h.879zM21.33 26.657a.753.753 0 01-.013.137.585.585 0 01-.036.125.248.248 0 01-.064.09.126.126 0 01-.088.034.205.205 0 01-.139-.079 1.66 1.66 0 00-.205-.172 1.474 1.474 0 00-.33-.174 1.433 1.433 0 00-.512-.078 1.277 1.277 0 00-.606.14 1.56 1.56 0 00-.456.36 2.091 2.091 0 00-.323.505 3.683 3.683 0 00-.207.575 4.169 4.169 0 00-.112.561 3.802 3.802 0 00-.035.47 1.292 1.292 0 00.245.855.887.887 0 00.717.289 1.772 1.772 0 00.581-.085 2.167 2.167 0 00.413-.19 3.156 3.156 0 00.276-.191.316.316 0 01.18-.086.066.066 0 01.057.032.165.165 0 01.022.095.84.84 0 01-.008.102 1.117 1.117 0 01-.022.12.642.642 0 01-.039.115.39.39 0 01-.083.112 1.237 1.237 0 01-.207.151 2.018 2.018 0 01-.345.17 2.82 2.82 0 01-.424.123 2.227 2.227 0 01-.474.049 1.501 1.501 0 01-1.13-.388 1.613 1.613 0 01-.374-1.16 4.564 4.564 0 01.051-.651 4.257 4.257 0 01.169-.713 4.055 4.055 0 01.303-.696 2.516 2.516 0 01.454-.598 2.087 2.087 0 01.625-.418 2.024 2.024 0 01.815-.156 2.111 2.111 0 01.371.032 1.984 1.984 0 01.34.088 1.551 1.551 0 01.503.298.375.375 0 01.092.112.25.25 0 01.017.095zm5.099 1.011a4.152 4.152 0 01-.068.742 3.779 3.779 0 01-.208.725 3.336 3.336 0 01-.349.655 2.525 2.525 0 01-.49.532 2.256 2.256 0 01-.633.358 2.195 2.195 0 01-.776.132 2.34 2.34 0 01-.774-.112 1.316 1.316 0 01-.525-.324 1.284 1.284 0 01-.3-.518 2.306 2.306 0 01-.096-.687 4.16 4.16 0 01.069-.742 3.73 3.73 0 01.207-.722 3.421 3.421 0 01.35-.655 2.455 2.455 0 01.49-.532 2.3 2.3 0 01.632-.356 2.195 2.195 0 01.777-.132 2.366 2.366 0 01.774.112 1.329 1.329 0 01.524.325 1.286 1.286 0 01.3.515 2.276 2.276 0 01.096.684zm-.615.029a1.842 1.842 0 00-.059-.484.879.879 0 00-.193-.363.87.87 0 00-.349-.23 1.655 1.655 0 00-1.106.03 1.621 1.621 0 00-.469.298 1.967 1.967 0 00-.36.441 2.834 2.834 0 00-.255.545 3.507 3.507 0 00-.149.6 3.91 3.91 0 00-.049.613 1.831 1.831 0 00.059.483.835.835 0 00.542.594 1.671 1.671 0 001.106-.03 1.61 1.61 0 00.469-.3 2.006 2.006 0 00.361-.444 2.825 2.825 0 00.254-.544 3.554 3.554 0 00.149-.599 3.866 3.866 0 00.049-.61zm5.148 2.934a.112.112 0 01-.024.054.132.132 0 01-.056.04.428.428 0 01-.093.024.835.835 0 01-.144.01.756.756 0 01-.137-.01.298.298 0 01-.083-.025.074.074 0 01-.039-.039.078.078 0 010-.054l.796-4.013h-.127a2.815 2.815 0 00-.908.13 1.658 1.658 0 00-.65.397 2.191 2.191 0 00-.449.689 5.828 5.828 0 00-.312.996q-.108.454-.208.779a3.839 3.839 0 01-.207.544 1.48 1.48 0 01-.232.354.841.841 0 01-.281.203 1.198 1.198 0 01-.352.09 3.973 3.973 0 01-.44.022.186.186 0 01-.119-.031.134.134 0 01-.036-.106.491.491 0 01.005-.058l.012-.085a.574.574 0 01.024-.096.404.404 0 01.044-.09.237.237 0 01.061-.066.144.144 0 01.083-.025 1.42 1.42 0 00.39-.046.52.52 0 00.274-.213 1.79 1.79 0 00.217-.48q.1-.315.223-.853a5.907 5.907 0 01.33-1.044 2.577 2.577 0 01.539-.813 2.269 2.269 0 01.842-.525 3.628 3.628 0 011.238-.186h.242c.096 0 .19.002.285.005a.2.2 0 01.13.061.189.189 0 01.022.168zm5.759-1.694a1.867 1.867 0 01-.168.818 1.74 1.74 0 01-.447.583 1.865 1.865 0 01-.64.35 2.479 2.479 0 01-.752.114 1.836 1.836 0 01-.718-.124 1.073 1.073 0 01-.678-.857 1.838 1.838 0 01.02-.65l.585-2.959a.117.117 0 01.025-.053.154.154 0 01.056-.041.313.313 0 01.095-.025 1.157 1.157 0 01.141-.007 1.078 1.078 0 01.142.007.224.224 0 01.083.025.073.073 0 01.037.04.116.116 0 01.002.054l-.327 1.646a2.614 2.614 0 01.469-.103 4.157 4.157 0 01.527-.034 2.179 2.179 0 01.642.088 1.471 1.471 0 01.488.25 1.092 1.092 0 01.31.385 1.129 1.129 0 01.108.493zm-.596.073a.734.734 0 00-.073-.332.72.72 0 00-.205-.249.936.936 0 00-.32-.156 1.544 1.544 0 00-.417-.054 3.398 3.398 0 00-.555.044 2.859 2.859 0 00-.485.122l-.152.762a1.017 1.017 0 00.12.87.877.877 0 00.72.287 1.6 1.6 0 00.54-.09 1.272 1.272 0 00.434-.258 1.197 1.197 0 00.288-.408 1.323 1.323 0 00.105-.538zm11.253-9.268c-.043.004-.028-.07-.034-.085.072.023.032.105.034.085z"/><polygon class="cls-1" points="48.069 19.974 48.06 19.943 48.154 20.027 48.069 19.974"/><path class="cls-1" d="M48.71 20.058c-.081.11-.222-.077-.347-.034l-.023.028-.038-.108a3.959 3.959 0 00.408.114zm.394-.192c-.032.044.065.06-.083-.004l.017-.009a.377.377 0 00.066.013zm-.066-.013c-.067-.02.053-.03 0 0zm.306.103l-.079-.065c.026-.024.107-.011.083-.04.086.047.06.07-.004.105zm.06.112l-.04-.03c.01-.01.024-.011.04.03zm-.128-.092l.087.062c-.018.017-.03.057-.04-.025-.002.04-.012 0-.047-.037zm-.06.006c-.056.015-.123.017-.045.082-.164-.058-.12-.14.045-.082zm-.499.214l-.071.022-.048-.056c.024.027.13-.005.119.034zm1.198-.166c-.003.029-.05.06-.067.092l-.056-.047c.04-.01.108-.01.123-.044zm-.067.092l.08.078c-.085-.026-.094-.052-.08-.078z"/><polygon class="cls-1" points="49.384 20.21 49.25 20.076 49.414 20.218 49.384 20.21"/><polygon class="cls-1" points="50.276 20.16 50.243 20.081 50.307 20.207 50.276 20.16"/><path class="cls-1" d="M50.51 20.26c-.021-.065.085-.064.054-.11a.403.403 0 01.137.153.215.215 0 00-.19-.043zm.253.13a.521.521 0 01-.062-.087.256.256 0 01.062.086zm-.673-.144a.118.118 0 01.098-.047l-.06.06zm.035.014l.002-.001.08.025zm-.045-.017l.01.003c-.006.006-.009.008-.01-.003zm-.425-.039c.045.055.148.127.016.163-.025-.06.05-.08-.016-.163zm.351.114l-.104-.02c.008-.018.035-.04.015-.07z"/><polygon class="cls-1" points="50.046 20.359 50.006 20.318 50.044 20.325 50.046 20.359"/><path class="cls-1" d="M50.568 20.393a.28.28 0 00.127.092.754.754 0 01-.178-.042c0-.025-.009-.075.05-.05zm-.218-.058l.008.008c-.008.004-.013.004-.008-.008z"/><polygon class="cls-1" points="51.212 20.682 51.198 20.691 51.202 20.678 51.212 20.682"/><path class="cls-1" d="M50.502 20.453a.09.09 0 01-.082-.06.52.52 0 00.097.05c0 .012-.002.019-.015.01zm.394.024a.543.543 0 01-.09.012c.03-.015.09-.034.09-.012zm-.516-.149l-.006-.006c.02-.01.016-.003.006.006zm0 0a.26.26 0 01.04.065.322.322 0 01-.062-.05.084.084 0 00.022-.015zm.778.879a.137.137 0 00-.175-.152c-.07-.082.082-.28.215-.364-.01.03-.02.056.054.14-.047.017-.242-.012-.189.081.107.092.11.026.184.02-.086.057.1.194.02.3l-.086-.094c-.01.018.014.066-.023.069zm-.147-.581l-.037-.024a.397.397 0 00.177-.037c.054.056.056.089.05.113.003-.005-.2-.067-.2-.067zm-.216-.091c.003.084.085.15-.005.206-.113-.048-.057-.09-.114-.148.181.088-.039-.06.114-.05a.474.474 0 00-.095-.058.773.773 0 00.111.004l-.006.003h-.001c-.012.006-.017.01-.005.009l.003.003a.1.1 0 00-.002.03c.06.006.016-.015.002-.03l.002-.012h.001l.174.11a.608.608 0 01-.18-.067zm-1.07.017a.025.025 0 00.012-.015c.009.014.011.021-.012.015z"/><path class="cls-1" d="M49.815 20.536c-.01-.016-.012-.05-.058-.058-.046.01-.01.035-.02.059-.02-.029-.08-.077.017-.093l.01.015c.083.002.21-.054.2-.069a.542.542 0 01-.149.146zm.483.018l.143.094-.103.033.018-.036c-.093-.018-.057-.058-.058-.091z"/><polygon class="cls-1" points="51.244 20.655 51.257 20.57 51.298 20.719 51.244 20.655"/><polygon class="cls-1" points="51.437 20.76 51.459 20.692 51.493 20.757 51.437 20.76"/><path class="cls-1" d="M59.704 29.309l.007.051a.166.166 0 01-.007-.051zm-.184-.287l.025-.026c-.007.023-.015.036-.024.026zm-3.62-5.355c.098-.004.226-.03.167.025l-.067.045a.157.157 0 00-.1-.07zm2.23 2.869h-.03l.026-.085zm-.213.248l.098.037a.31.31 0 01-.098-.037zm2.648 4.173l-.048.086c-.036-.077.016-.062.048-.086zm-7.181-9.107a.43.43 0 01.157.041c-.087 0-.174.025-.157-.04zm6.947 6.891c.004.033-.003.053-.018.062-.005-.034-.001-.057.018-.062zm-6.637-6.756l-.038-.002a.377.377 0 00-.115-.092.138.138 0 01.153.094zm8.891 15.328l.011.014c-.01.003-.012-.004-.011-.014zm.874 1.962a.51.51 0 00.005-.084.159.159 0 01-.005.084zM52.242 21.12c-.04-.026-.003-.011 0 0zm-.342.176a.053.053 0 01-.001.042.066.066 0 000-.042zm1.906 1.342l.004.002c-.02.004-.016.003-.004-.002zm-1.643-1.518a.266.266 0 01.064.006.274.274 0 01-.064-.006zm.025-.029l-.04-.01c0-.015.01-.02.04.01z"/><path class="cls-1" d="M52.298 21.152a.266.266 0 00-.071-.026.022.022 0 00.015-.007zm9.738 12.585l.01.007c-.015.052-.017.032-.01-.007z"/><polygon class="cls-1" points="56.243 25.048 56.242 25.042 56.248 25.045 56.243 25.048"/><path class="cls-1" d="M56.315 25.203c.02-.118-.016-.137-.067-.158l.192-.127z"/><path class="cls-1" d="M60.05 29.9c.163.073.122.258.107.357.06.03.137-.13.184.027.074.217-.177.052-.133.181l.16.022c.009.192.141.265.216.39a.096.096 0 01-.008.068c.116.114.03.347.117.432.011-.036.1.024.134.024l.02.222c-.01-.097.057-.125.114-.171.021.062-.001.107.01.152.01-.036.023-.072.067-.055l-.013.25a.12.12 0 01-.044-.045c.023.05.033.176.121.223.023-.018.035-.053.058-.071-.102-.027-.056-.089-.022-.143.055.143.034.027.113.072a.118.118 0 01-.093.177c.078.098.112.126.099.266l.08-.06.02.116.072-.132c.153.174-.138.103 0 .308l.08-.033c.002.102-.123.186-.002.215-.018.105-.167-.1-.11.106a.383.383 0 01.15.134c-.015.078-.115-.012-.118-.057.07.314.346.082.337.393-.092-.072-.13.133-.207-.085-.01.12.193.162.144.302l.079-.107a.224.224 0 01-.01.121l.077-.037c-.093.183.16.23.002.37.127-.103.028.103.105.138.063-.144-.12-.316.01-.376.06.038.011.106.07.143a.297.297 0 01.047-.127c.14.148.017.297.019.412l-.036-.194c-.13.059.007.09-.08.175.11.068.017.175.082.238-.006-.02.007-.025.001-.046.047.206.286.2.31.282.038.077.001.25-.071.21-.022.077-.027-.285-.176-.118.236.062-.018.26.187.48.046-.13.134.037.164-.077a.224.224 0 01-.06.208l.073.022c-.106.193-.12.068-.138.325.031-.091.12.077.15.005a.263.263 0 01-.01.193l.008-.01c.029.25.134.184.09.425l-.043-.015a5.557 5.557 0 00.04.99l-.047-.103c.025.03-.036.213.039.3.001-.019.015-.053.007-.07a.142.142 0 01.138.1l-.065.036.057.024c.016.113-.102-.023-.087.089.209.048.092.48.25.569-.141.086-.022-.214-.15-.121a.225.225 0 01.06.12l-.085-.02a3.354 3.354 0 01.11.776l.018-.013c.034.11.02.169-.054.217.04.023.06-.056.096-.013-.218.19.164.388.012.504.172-.012.34.252.473.15l-.02.08c.114-.021 0-.254.12-.298l-.122-.26c.043.009.106-.033.121.009.002-.064.008-.12.07-.035-.315-.614.025-1.258-.242-1.847.004-.042.048-.023.076-.01-.124-.1.043-.112.051-.175l-.179-.144c.039-.071.093-.026.124-.034-.009-.314-.2-.59-.14-.853-.067-.07-.124.04-.157-.06.179.114.037-.317.16-.248-.196-.066-.128-.36-.354-.267-.044-.117.076-.121.106-.09a.58.58 0 01-.029-.386c-.073-.064-.103-.665-.31-.741.136.053.058-.023.087-.12l.118.046-.057-.185c0-.04-.007-.05-.016-.047-.013-.03-.056.024-.101-.048-.04-.124.004-.145.034-.23l.021.014-.021-.087c-.025-.06-.02.25-.143.065.026-.011.114-.172.023-.202.042.1-.031.11-.074.082l-.06-.14.143.005c-.158-.412-.402-.806-.554-1.247-.098.047-.127-.304-.272-.196l.023.01c.034.108-.138.023-.16-.068.092.066.08-.224.206-.022l-.006-.197c.253-.226-.237-.43-.262-.724a.062.062 0 01-.024.042c-.015-.27-.32-.46-.298-.534l-.088.022a.41.41 0 00-.151-.47c-.011.009-.019.046-.056.022a.285.285 0 00-.051-.308l-.021.02-.126-.239c-.235.144-.094-.484-.39-.396.042-.088-.038-.27-.051-.366a.05.05 0 01-.042.002c.075-.173-.199-.227-.254-.326-.014-.08.044-.081.102-.08-.183-.054-.132-.407-.205-.423-.073-.082-.11.028-.178.04-.072-.147.22-.124.003-.236.005.028.024.071 0 .066-.067-.054-.409.014-.405-.09l.071.015c-.03-.164-.386-.151-.252-.283l.077-.04c-.242-.14-.036-.111-.27-.26l-.01.011c-.06-.097-.184-.075-.112-.205l.04.018a1.655 1.655 0 00-.199-.223c0-.02-.03-.087-.065-.084.084-.078-.177-.289-.224-.333.062.098-.011.089-.068.095.028-.112.005-.155-.107-.18.1-.105.203-.22.088-.367.003.036.023.079-.011.084-.034.006-.038-.049-.04-.067-.034.006-.012.066-.063.084.021-.187-.133-.17-.214-.341.005.073-.048.054-.098.072.115-.125-.276-.08-.073-.175-.341-.163-.641-.629-.834-.63-.067.017-.07-.121-.111-.167l-.044.058c-.032-.215-.061-.13-.115-.367.002.12-.05.124-.155.114v-.204l-.095.064c-.014-.069-.074-.097-.134-.126.022.021.003.017-.012.03.08-.132-.12-.281-.102-.361-.146.072-.102-.137-.229-.06a.274.274 0 00-.023-.09c.066-.03.122-.078.058-.09L56 23.736l-.076.05a.568.568 0 00-.096-.125.233.233 0 00.072.005l-.08-.012-.016-.013.006.012a.107.107 0 01-.093-.078c-.238-.025-.22-.44-.512-.428.038.005.082.027.073.058-.145-.116-.37-.126-.423-.247l.055-.06a1.131 1.131 0 00-.25-.253l.05-.078c-.15-.067-.344-.39-.53-.293.008-.082-.189-.116-.254-.183l-.058.047a.486.486 0 01-.212-.156c-.283-.002-.396-.24-.581-.34l-.012.016-.157-.154c.016.084-.014-.06-.078-.078a.301.301 0 00-.235-.11l-.123-.059c.113.11-.058.084-.104.152l-.047-.096c-.05.02.02.08-.045.068-.032-.064-.186-.137-.196-.235a.137.137 0 01.075-.025c.004.007.004.006.002 0l.008-.002h-.008a.148.148 0 01-.007-.04c-.105-.032-.055-.044-.035-.075-.167.058-.191-.049-.34.043.187-.094-.252-.126-.113-.234-.137.075-.06-.022-.158.05.13.026.195.189.263.284l-.124.024c-.005.16.226.052.258.122-.02-.048-.117-.058-.134-.03l.073-.087c.15.024.213.152.279.246-.103-.01.073.11-.026.148l-.06-.045c-.05.02 0 .081.022.129.257.021.588.319.705.286a.197.197 0 01-.14-.118l.119.018c-.076-.05-.186-.003-.282-.104.054-.05.017-.184.152-.215.277.04.092.269.37.407.013.034.002-.132.124-.013a.463.463 0 01.105.51c-.05-.082-.151-.248-.231-.167.05.082.162.182.13.247.144-.062-.118-.117.038-.146.05.034.05.083.062.116-.006-.066.094-.047.126-.063.165.105.302.104.475.225a.149.149 0 00.074-.059c.065.09.074.334-.002.376.093.075.133.03.196.119-.198-.003.037.003-.02.113.074.074.063-.027.118-.021a.164.164 0 01-.001.107c.107-.038.042-.27.167-.314a1.452 1.452 0 01.359.013 1.254 1.254 0 01-.432.515c-.037.062.125-.004.166.017.177-.015.108.19.223.218l-.027-.1c.032-.013.14.112.135.16.028-.03.06-.213.13-.222a.372.372 0 01.087.49l-.152-.293c-.068.069.1.217.016.303l.232.152c-.025-.025-.087-.117-.02-.133.087.082.058.027.148.042a4.351 4.351 0 01.019-.791l.07.149.065-.023a1.318 1.318 0 01-.056.716c.098.05.209-.14.216-.188.17.131-.037.37.144.485l-.091-.017c.025.048.192.134.15.151.07-.016.19-.091.179-.15l.009.275c-.007-.034.123-.15.134-.181.063.045-.035.232-.09.222a1.015 1.015 0 00.313.001c.022.041-.127.13-.165.125a.231.231 0 00.142.147c-.065-.17.233-.315.301-.433l-.103.626a1.412 1.412 0 01.122-.183c-.084.132.187.432.341.556l-.02-.022c.01-.065.16.026.171.113.014-.03-.004-.035-.024-.057.177.013-.046.282.147.283-.097-.076-.069-.136-.02-.173.03.109.238.231.072.32.073.02.097.076.16.01.004-.004.082.257.082.257.002-.027.031-.074.087-.028-.106-.088-.069-.305-.21-.273.08-.08.16-.083.182-.195a1.25 1.25 0 01.109.687l.212.124-.032.041.123-.053c-.003.042-.01.072.003.069.012-.003.02-.02.027-.041a.122.122 0 01.014.065.356.356 0 00.114-.2l-.096-.002c.018-.077.046-.147.12-.126l.002.044c.017-.054.034-.094.063-.09l.071.179a1.03 1.03 0 00-.13-.004c.011.141.016.305-.115.285l.146.055a1.062 1.062 0 00.062.373c.041-.02.037-.083.085-.078-.02.199.357.158.278.262.05.107-.057.106-.041.185.009-.011.027-.034.041-.018l-.022.126c.047.008.004-.103.092-.05.043.178.062.285.179.371.098.173-.196.041-.084.165.074-.025.159-.06.23.017-.01.075-.062.104-.035.199l.09-.072c.047.073.07.14.141.09a.14.14 0 00.074.14c.027.141-.248.057-.303.059.146.053.157.154.314.134l-.041-.11c.26.117 0 .278.268.233-.056-.063-.064-.179.017-.175l.022.132c.034-.005-.023-.068.04-.043a.866.866 0 01-.023.18l.005-.006c.005-.003.1.195.1.195-.024-.033.006-.065.031-.032l.023.156c.002-.053.055-.034.104.011.125.14-.144.265.029.325-.013-.017-.003-.027-.015-.044l.081.036c-.2.141.201.383-.002.521.139.039.055-.023.086-.197l.117.06c-.015-.044-.05-.067-.055-.12zm-.744-1.2c-.056.01-.048-.075-.052-.112.056.028.112.025.052.111zm-1.381-2.177c-.053-.01-.088-.03-.082-.067a.139.139 0 01.082.067zm-5.266-5.1l-.001-.006c.052.013.082.015 0 .006zm-.077-.03c-.037-.017-.067-.034-.066-.058a.025.025 0 00-.01.036c.032.037.055.037.076.022zm10.134 12.605l.03.023c-.02.025-.037.05-.03-.023z"/><path class="cls-1" d="M57.942 26.755a.114.114 0 00.044-.02c-.002.019-.015.03-.044.02z"/><polygon class="cls-1" points="60.573 30.941 60.576 30.945 60.565 30.957 60.573 30.941"/><path class="cls-1" d="M54.097 23.274a.124.124 0 00.074-.001c-.011.018-.033.024-.074 0zm-2.27-2.403l.081.065a.125.125 0 00-.094-.014c.01-.018.041-.036.013-.05zm-1.002.127c-.01-.014-.028-.011-.037-.026l.019-.036c.056.024.083.069.018.062zm.794.092c-.039.063-.083.013-.14-.03l.011.006c.025-.102.077-.038.129.025zm-.153-.039a.193.193 0 00-.057-.03c.01-.04.027.004.057.03zm.884.189c-.038.002.026-.092-.005-.074.01-.098.146.198.005.074z"/><polygon class="cls-1" points="51.465 21.284 51.526 21.213 51.529 21.296 51.465 21.284"/><path class="cls-1" d="M51.98 21.464l-.11-.026c.009-.013 0-.027-.012-.041.062.027.137.044.122.067zm-.122-.067a.142.142 0 01-.072-.052.322.322 0 01.072.052z"/><polygon class="cls-1" points="51.588 21.374 51.625 21.372 51.697 21.4 51.588 21.374"/><path class="cls-1" d="M53.016 22.029l.088.085c-.005.032-.043.031-.075-.002-.013-.033-.044-.067-.013-.083zm-.434.025c.037 0 .049-.016.08-.032l-.054.099zm.281.203c-.006.032.1.165-.024.081.006-.033-.082-.116.024-.081z"/><polygon class="cls-1" points="54.425 23.133 54.401 23.114 54.514 22.969 54.425 23.133"/><path class="cls-1" d="M55.376 24.451c-.134-.056.048-.108-.082-.147.003-.055.107.032.105-.018.035.09.085.098-.023.165zm.024-.165a.297.297 0 01-.015-.05.133.133 0 01.014.05z"/><polygon class="cls-1" points="63.56 39.619 63.6 39.714 63.537 39.651 63.56 39.619"/><path class="cls-1" d="M63.426 39.792l.117.027-.105.05c.005-.02.014-.06-.012-.077zm-4.509-11.268l.019-.021c.033-.007.047.008.075.04z"/><polygon class="cls-1" points="59.665 29.467 59.652 29.45 59.762 29.427 59.665 29.467"/><path class="cls-1" d="M60.067 30.399c-.025-.033-.03-.086-.055-.12.03.087.175.064.055.12zm6.49 4.921c.008-.013.036.023.043.027-.023.01-.05-.035-.043-.026z"/><polygon class="cls-1" points="66.307 35.434 66.323 35.444 66.264 35.441 66.307 35.434"/><path class="cls-1" d="M66.144 35.615c-.043-.07.068-.057.077-.108l-.008-.017.059.028c-.043.032-.12.054-.128.097zm.039.207c-.018-.026-.038.004.012-.028l.002.009a.097.097 0 00-.014.02zm.014-.019c.019-.018.008.029 0 0zm-.09.076l.042-.007c.009.017-.008.042.01.042-.035.016-.043-.001-.052-.035zm-.064-.013l.02-.006c.004.008.003.013-.02.006zm.063-.017l-.043.011c-.006-.012-.024-.029.018-.007-.02-.013.002-.004.025-.004zm.004-.024c0-.025.009-.05-.034-.043.051-.04.085.002.035.043zm-.034-.255v-.034l.034.001c-.017 0-.017.05-.034.033zm-.075.493c-.014-.009-.026-.037-.04-.052l.03-.007c0 .017-.007.042.01.06zm-.041-.053l-.045.01c.02-.027.033-.023.046-.01z"/><polygon class="cls-1" points="65.975 35.814 66.06 35.807 65.967 35.823 65.975 35.814"/><polygon class="cls-1" points="65.911 36.172 65.954 36.181 65.886 36.172 65.911 36.172"/><path class="cls-1" d="M65.846 36.24c.034.008.028.05.053.05a.146.146 0 01-.087.015c.024-.007.036-.026.034-.065zm-.082.068a.214.214 0 01.048-.003.109.109 0 01-.048.003zm.116-.234a.071.071 0 01.017.052l-.026-.04zm-.01.01l.001.001-.018.026zm.012-.014l-.002.004c-.003-.004-.003-.006.002-.003zm.061-.154c-.034 0-.085.016-.086-.043.034.009.035.042.086.043zm-.093.104l.018-.037c.008.008.017.025.034.025z"/><polygon class="cls-1" points="65.826 36.025 65.85 36.02 65.843 36.033 65.826 36.025"/><path class="cls-1" d="M65.774 36.228a.078.078 0 00-.056.028.182.182 0 01.033-.061c.013.007.04.016.023.033zm.044-.072h-.005c-.001-.003-.001-.006.005 0z"/><polygon class="cls-1" points="65.587 36.417 65.583 36.409 65.59 36.413 65.587 36.417"/><path class="cls-1" d="M65.747 36.186c.004-.019.02-.02.036-.017a.132.132 0 00-.032.026c-.006-.003-.01-.006-.004-.009zm-.037.153a.193.193 0 010-.04c.005.017.012.045 0 .04zm.11-.169l.002-.001c.005.01.001.007-.003 0z"/><path class="cls-1" d="M65.82 36.17a.116.116 0 01-.037-.001.087.087 0 01.03-.012zm-.503.11c.035.025.094.014.083-.045.049-.01.142.099.183.174-.015-.01-.029-.022-.073-.007-.01-.025.012-.102-.039-.1-.05.026-.015.042-.013.076-.028-.05-.102.003-.156-.055l.05-.018c-.01-.009-.035-.008-.035-.025zm.309.068l.014-.01a.154.154 0 00.01.081.073.073 0 01-.06-.006l.044-.065z"/><path class="cls-1" d="M65.686 36.284c-.044-.02-.084-.003-.108-.053.033-.035.052-.001.085-.01-.057.051.034 0 .02.059a.12.12 0 00.035-.024.21.21 0 00-.008.044l-.001-.003v-.001c-.003-.006-.005-.01-.005-.004h-.002l-.015-.008c-.007.023.007.01.015.008l.006.004-.068.043a.146.146 0 01.046-.055zm.068-.445l.007.008c-.008 0-.012 0-.007-.008z"/><path class="cls-1" d="M65.755 35.88c.009 0 .026.01.034-.007 0-.021-.017-.015-.028-.026.016 0 .05-.007.045.034h-.008a.156.156 0 00.019.102.413.413 0 01-.062-.102zm-.046.197l-.058.034-.01-.05.017.016c.016-.034.034-.009.05 0z"/><polygon class="cls-1" points="65.601 36.437 65.645 36.461 65.568 36.447 65.601 36.437"/><polygon class="cls-1" points="65.545 36.498 65.58 36.522 65.547 36.523 65.545 36.498"/><path class="cls-1" d="M62.96 39.184l.002-.016zm.032.038l-.007.025a.117.117 0 01.007-.025zm1.372-1.085c.02.045.056.103.017.075l-.035-.032a.04.04 0 00.018-.043z"/><polygon class="cls-1" points="63.426 39.205 63.417 39.191 63.466 39.195 63.426 39.205"/><path class="cls-1" d="M63.245 39.133c-.003.004.015.036.015.036-.006-.012-.016-.014-.015-.036zm-.695-.503l.018-.05c.025.028-.004.033-.019.05zm2.469-1.472a.121.121 0 01-.012.064c-.005-.04-.024-.081.012-.064zm-2.297 2.539a.064.064 0 010-.05c.006.023.008.041 0 .05zm2.245-2.421l-.001-.016a.096.096 0 00.041-.038c.004.028 0 .054-.04.054zm-4.64-.316h-.008c.003-.005.005-.004.008 0zm-.92.045a.12.12 0 00.027.017c-.006 0-.015-.004-.027-.017zm5.95-.235c.013-.011.005.002 0 0zm-.095-.18a.038.038 0 01-.023-.01.05.05 0 00.023.01zm-.634.659v.001c-.005-.01-.004-.008 0-.001zm.728-.512a.083.083 0 01-.003.026.085.085 0 01.003-.026zm.014.016l.007-.014c.007.003.01.007-.006.014zm-.03.036a.065.065 0 00.013-.026l.004.008zm-3.858 1.101h-.006c-.002-.026.002-.018.006 0z"/><polygon class="cls-1" points="63.707 38.273 63.71 38.272 63.71 38.276 63.707 38.273"/><path class="cls-1" d="M63.644 38.31c.064.006.066-.01.066-.034l.106.087z"/><path class="cls-1" d="M62.842 39.028c-.085-.009-.062-.102-.056-.151-.032-.004-.072.086-.098.02-.04-.087.093-.057.068-.11l-.084.02c-.006-.092-.08-.097-.128-.135a.043.043 0 010-.033c-.066-.026-.042-.148-.094-.166-.003.02-.054.015-.07.023l-.03-.094c.013.041-.019.071-.043.106-.016-.022-.009-.048-.018-.065-.003.019-.006.038-.03.042l-.015-.116a.04.04 0 01.026.009c-.015-.017-.032-.072-.08-.068l-.022.048c.053-.016.036.025.023.058-.04-.05-.018-.003-.061-.001-.03-.032-.004-.087.03-.106-.05-.021-.07-.023-.078-.09l-.033.05-.022-.044-.02.079c-.094-.03.055-.087-.042-.128l-.034.039c-.016-.04.032-.116-.031-.088-.008-.049.096-.013.037-.08a.156.156 0 01-.093-.006c-.006-.036.056-.033.065-.015-.085-.107-.178.084-.225-.044.055-.003.038-.1.112-.037-.017-.054-.119.001-.12-.073l-.018.071c-.014-.01-.013-.04-.016-.052l-.029.042c.01-.107-.111-.034-.066-.15-.038.09-.03-.032-.071-.017-.002.081.109.086.061.157-.033.006-.023-.04-.055-.033a.154.154 0 010 .068c-.086-.008-.057-.113-.08-.157l.05.063c.048-.072-.019-.033.004-.1-.06.013-.044-.058-.087-.055.007.005.002.012.01.016-.07-.053-.171.045-.2.027-.033-.01-.057-.086-.017-.102-.008-.036.077.089.103-.03-.116.075-.053-.102-.193-.09.012.064-.064.044-.05.096-.036-.038-.026-.054-.024-.097l-.036.024c-.004-.111.033-.074-.024-.171.01.045-.066.025-.06.063a.09.09 0 01-.045-.07v.007c-.074-.074-.098-.003-.152-.091l.021-.015c-.067-.123-.222-.168-.316-.258l.049.006c-.018.004-.055-.077-.108-.065.006.007.012.023.02.024-.015.023-.048.05-.077.04l.01-.042-.027.022c-.04-.022.042-.045.001-.067-.082.09-.182-.085-.267-.013.013-.09.082.032.09-.053a.09.09 0 01-.062.007l.034-.04a1.055 1.055 0 01-.312-.094v.012c-.05-.002-.066-.02-.064-.07-.02.018.004.043-.021.054-.012-.154-.183.019-.185-.085-.04.096-.171.145-.167.235l-.023-.023c-.019.066.087.04.073.114l.119-.023c-.014.022-.017.063-.035.065.021.011.038.024-.006.043.287-.054.42.212.665.245.01.013-.01.03-.023.04.07-.035.018.05.033.07l.101-.05c.007.037-.025.052-.033.07.091.075.237.056.287.156.044-.013.035-.069.075-.057-.099.053.074.102.007.14.09-.067.132.061.198-.07.044.021-.002.075-.02.078a.156.156 0 01.098.114c.046-.012.186.175.29.118-.07.037-.02.031-.013.075l-.06.033.062.038c.008.013.013.014.017.009.011.005.019-.03.054-.025.042.027.023.056.025.098l-.011.002.023.025c.02.014-.032-.102.052-.079-.01.015-.023.11.021.088-.034-.023-.003-.054.02-.06l.048.033-.064.05a4.01 4.01 0 01.43.288c.044-.054.096.08.153-.006l-.012.002c-.026-.036.063-.05.083-.018-.05-.001-.019.12-.097.07l.02.082c-.106.169.142.117.174.236a.043.043 0 01.01-.025c.023.108.186.11.177.15l.044-.03c-.006.115-.006.126.083.174.006-.007.01-.025.028-.022-.014.044-.028.087.024.128l.01-.014.06.083c.13-.1.02.188.196.122-.018.053.04.154.059.222a.023.023 0 01.019-.012c-.006.145.112.111.14.168a.095.095 0 01-.02.107c.064-.03.132.326.16.316.042.047.017-.086.028-.134.054.105-.007.25.07.245-.01-.027-.028-.062-.022-.07.015.009.03-.057.041-.119.011-.057.011-.195.025-.163l-.006.08c.048-.001.034-.384.075-.21l.015.09c.03-.225.035-.027.065-.23l-.005-.01c.03-.04.005-.138.066-.07l-.003.03a.797.797 0 00.065-.144.042.042 0 00.026-.048c.05.053.112-.151.119-.17-.034.041-.048.005-.065-.022.062.003.075-.01.056-.06.079.035.164.07.2.012-.016.003-.03.015-.043 0s.013-.02.02-.021c-.012-.015-.034-.001-.057-.022.095-.004.043-.07.101-.117-.033.007-.039-.018-.061-.04.088.043-.031-.124.067-.04 0-.154.166-.3.122-.387-.024-.03.044-.034.058-.053l-.039-.02c.1-.017.05-.03.158-.055-.06 0-.074-.023-.091-.071h.104l-.051-.043c.034-.005.037-.031.041-.058-.007.01-.008.002-.018-.005.085.038.126-.049.17-.038-.063-.068.053-.042-.01-.102a.121.121 0 00.043-.008c.027.03.062.058.057.03l.004-.004-.04-.036a.16.16 0 00.048-.04.097.097 0 00.01.033l-.008-.036.004-.007-.005.003a.03.03 0 01.025-.04c-.025-.107.185-.081.14-.212.002.017-.004.035-.022.029.043-.057.02-.157.077-.172l.039.03a.305.305 0 00.104-.09l.046.029c.018-.061.164-.116.093-.212.044.013.037-.076.069-.096l-.03-.031a.123.123 0 01.07-.072c-.017-.126.102-.143.144-.21l-.009-.008.072-.047c-.043-.006.03.002.037-.023a.079.079 0 00.045-.088l.03-.042c-.058.028-.046-.04-.083-.072l.051-.003c-.01-.025-.043-.006-.036-.032.034-.001.072-.054.124-.04a.077.077 0 01.014.037c-.004 0-.004.001 0 .002v.003-.003l.022.005c.016-.04.023-.015.039 0-.032-.084.024-.073-.023-.156.048.1.067-.083.123 0-.038-.075.012-.02-.026-.079-.014.051-.1.045-.15.056l-.012-.06c-.084-.033-.029.089-.066.09.026 0 .031-.04.017-.053l.046.049c-.013.06-.08.063-.13.074.004-.043-.06.011-.08-.039l.024-.018c-.01-.025-.044-.015-.07-.013-.018.103-.156.213-.133.272-.002-.026.03-.045.056-.047l-.004.052c.022-.028-.007-.085.042-.113.028.032.097.037.12.103-.009.119-.138 0-.196.106-.017.001.07.02.014.059a.273.273 0 01-.268-.023c.042-.012.125-.035.078-.083-.042.012-.09.05-.126.028.04.073.057-.04.08.036-.015.018-.041.012-.058.013.035.006.03.049.04.065a1.977 1.977 0 00-.086.19.128.128 0 00.038.041.231.231 0 01-.198-.036c-.03.037-.001.06-.042.081-.02-.092.002.017-.062-.02-.032.03.02.033.024.059a.109.109 0 01-.058-.01c.032.053.149.042.185.104a.647.647 0 01.034.163 1.115 1.115 0 01-.324-.24c-.037-.02.015.059.01.077.028.083-.09.038-.092.09l.05-.007c.012.016-.043.058-.07.053.02.015.123.04.136.073-.032.073-.186.063-.244.02l.13-.061c-.048-.037-.098.039-.157-.005l-.044.106c.01-.011.048-.038.067-.005-.03.038-.005.026.001.068a2.146 2.146 0 01.413.042l-.065.025.022.031a.922.922 0 01-.38-.053c-.012.044.106.101.133.106-.04.075-.2-.027-.23.056l-.006-.042c-.021.01-.038.087-.054.068.02.033.082.089.11.084h-.143c.016-.002.101.059.12.064-.013.028-.13-.018-.134-.043.032.09.005.056.055.142-.015.012-.094-.058-.096-.075a.065.065 0 00-.047.068c.073-.033.21.105.284.135l-.338-.037a1.187 1.187 0 01.119.053c-.085-.037-.177.098-.205.174l.007-.01c.035.001.024.073-.018.081.018.005.016-.003.023-.013.034.08-.156-.008-.112.079.017-.047.054-.038.085-.018-.05.019-.064.117-.149.048.008.034-.015.048.034.072l-.103.057c.013-.001.044.008.037.037.014-.056.127-.054.079-.114.06.03.081.066.143.07-.077.078-.205.076-.305.1l-.002.105-.029-.01.061.05c-.021.002-.038.002-.033.007a.048.048 0 00.028.008.048.048 0 01-.028.013.295.295 0 00.13.032l-.026-.042c.042.001.084.008.095.042l-.021.004c.031.003.055.008.062.02l-.067.047a.472.472 0 00-.035-.057.138.138 0 01-.166-.036l.022.056a.76.76 0 01-.118-.027c.017.027.037.037.046.062-.063-.065.023.184-.024.108-.022.002-.038-.074-.053-.09a.147.147 0 01.01.038l-.03-.063c.006.034.023.04.025.091-.032-.029-.043-.07-.045-.004-.015 0-.022-.206-.027-.171a.952.952 0 01.01.204l-.018-.174.005.124c-.008-.016-.013-.045-.014.042-.007-.06-.01-.056-.015-.045-.005-.069.022-.206.018-.258a.833.833 0 01-.022.147l.004.038c-.038.089.01-.152-.04.023a.181.181 0 01-.004.113l-.005-.068c-.008.02.005.029-.009.045a.677.677 0 01.01-.113l-.002.006-.017-.043c.005.003-.005.03-.012.027l.005-.053a.04.04 0 01-.037.034c-.042-.019.095-.131.028-.102.007.007-.002.009.001.011.004.004-.034.006-.037.003.11-.097-.1-.151.007-.251-.073.004-.028.02-.046.11l-.062-.01c.008.019.026.024.028.049zm.182.256c.007-.042.007.015.01.038-.008.019-.017.054-.01-.038zm.35-.171c-.01-.024-.01-.042.01-.042a.04.04 0 01-.01.042zm1.83-2.216h.002c-.004.022-.004.035-.002 0zm.011-.03c.007-.015.015-.025.029-.02a.02.02 0 00-.02-.01c-.02.006-.017.018-.009.03zm-4.08 1.184l-.017.004c.003-.017.006-.032.017-.004z"/><path class="cls-1" d="M63.266 39.14a.097.097 0 00.022.019.02.02 0 01-.022-.018z"/><polygon class="cls-1" points="62.546 38.64 62.544 38.639 62.549 38.631 62.546 38.64"/><path class="cls-1" d="M64.322 37.328a.058.058 0 00.008.035.024.024 0 01-.008-.035zm1.164-.685l-.035.02c.014-.012.009-.024.008-.036.01.008.019.024.027.016zm-.046-.461c.008 0 .008-.008.016-.008l.018.016c-.016.018-.042.018-.034-.008zm-.069.326c-.032-.03-.006-.04.017-.055l-.003.004c.054.032.02.041-.014.05zm.022-.059a.05.05 0 00.017-.018c.02.012-.003.01-.017.018zm-.1.346c-.001-.017.05.027.04.01.052.024-.105.026-.04-.01z"/><polygon class="cls-1" points="65.271 36.401 65.308 36.442 65.264 36.427 65.271 36.401"/><path class="cls-1" d="M65.172 36.593l.014-.043a.02.02 0 00.022.002c-.015.022-.024.051-.036.04zm.036-.041a.04.04 0 01.028-.022.082.082 0 01-.028.022z"/><polygon class="cls-1" points="65.222 36.437 65.223 36.454 65.207 36.48 65.222 36.437"/><path class="cls-1" d="M64.903 36.967l-.04.028c-.018-.007-.02-.024-.003-.034.017 0 .033-.01.043.006zm-.036-.203c.002.017.011.025.021.041l-.054-.04zm-.093.101c-.018-.007-.084.024-.045-.022.018.007.058-.022.045.022z"/><polygon class="cls-1" points="64.432 37.492 64.44 37.483 64.53 37.547 64.432 37.492"/><path class="cls-1" d="M63.867 37.873c.007-.063.064.024.063-.036.03.003 0 .05.027.05-.04.014-.037.038-.09-.014zm.09.014l.023-.006a.058.058 0 01-.023.006z"/><polygon class="cls-1" points="59.268 37.004 59.227 37.011 59.263 36.986 59.268 37.004"/><path class="cls-1" d="M59.242 36.902l-.035.062.007-.066c.006.006.016.017.028.004zm3.811 2.208l.001.03a.094.094 0 01-.002.035z"/><polygon class="cls-1" points="62.993 39.115 62.995 39.116 62.952 39.163 62.993 39.115"/><path class="cls-1" d="M62.831 38.793c.014.01.017.035.031.047-.017-.036-.093.001-.03-.047z"/></svg>