<svg id="Слой_1" data-name="Слой 1" xmlns="http://www.w3.org/2000/svg" viewBox="0 0 70 50" width="80" height="50"><defs><style>.cls-1{fill:#fff}</style></defs><path class="cls-1" d="M19.075 18.845a1.55 1.55 0 01-.232.81 1.57 1.57 0 01-.29.342 1.867 1.867 0 01-.406.27 2.227 2.227 0 01-.515.18 2.914 2.914 0 01-.627.063 2.109 2.109 0 01-.81-.132 1.226 1.226 0 01-.484-.34 1.126 1.126 0 01-.232-.469 2.287 2.287 0 01-.061-.52 4.751 4.751 0 01.037-.515 4.953 4.953 0 01.134-.69 4.367 4.367 0 01.273-.747 2.646 2.646 0 01.454-.68 2.235 2.235 0 01.674-.495 2.127 2.127 0 01.938-.193 2.047 2.047 0 01.625.085 1.293 1.293 0 01.434.23.935.935 0 01.254.327.91.91 0 01.083.379 1.116 1.116 0 01-.276.749 1.298 1.298 0 01-.31.259 1.843 1.843 0 01-.395.178 1.042 1.042 0 01.368.157.825.825 0 01.225.23.793.793 0 01.11.263 1.23 1.23 0 01.03.259zm-.615.044a.693.693 0 00-.054-.267.534.534 0 00-.188-.227 1.058 1.058 0 00-.359-.156 2.292 2.292 0 00-.566-.058h-1.167a3.693 3.693 0 00-.068.421q-.02.198-.02.37a1.122 1.122 0 00.244.786 1.027 1.027 0 00.786.263 1.804 1.804 0 00.647-.102 1.241 1.241 0 00.432-.267.966.966 0 00.24-.366 1.163 1.163 0 00.073-.397zm.264-2.085a.554.554 0 00-.052-.238.502.502 0 00-.158-.19.79.79 0 00-.267-.124 1.41 1.41 0 00-.373-.044 1.543 1.543 0 00-.518.088 1.433 1.433 0 00-.464.273 1.88 1.88 0 00-.385.474 2.842 2.842 0 00-.283.688h1.196a2.103 2.103 0 00.583-.071 1.17 1.17 0 00.406-.195.797.797 0 00.236-.293.863.863 0 00.079-.368zm4.855 3.525a.213.213 0 01-.027.054.12.12 0 01-.054.039.494.494 0 01-.095.024.96.96 0 01-.141.01.91.91 0 01-.14-.01.334.334 0 01-.085-.024.071.071 0 01-.039-.093l.39-1.968h-.644a1.577 1.577 0 00-.508.073 1.347 1.347 0 00-.373.193 1.383 1.383 0 00-.276.276 3.1 3.1 0 00-.21.318l-.606 1.05a.81.81 0 01-.063.094.2.2 0 01-.073.057.386.386 0 01-.11.026 1.558 1.558 0 01-.169.008.626.626 0 01-.102-.008.23.23 0 01-.071-.021.129.129 0 01-.041-.035.08.08 0 01-.015-.048.084.084 0 01.007-.033l.025-.053c.01-.025.026-.055.046-.093l.078-.144.562-.942a2.646 2.646 0 01.449-.59 1.107 1.107 0 01.508-.28 1.088 1.088 0 01-.628-.334.916.916 0 01-.193-.598 1.389 1.389 0 01.044-.337 1.279 1.279 0 01.144-.344 1.5 1.5 0 01.264-.323 1.591 1.591 0 01.403-.268 2.486 2.486 0 01.561-.183 3.551 3.551 0 01.738-.068 6.586 6.586 0 01.551.02 10.162 10.162 0 01.508.043.28.28 0 01.178.088.26.26 0 01.037.23zm.225-4.048a4.325 4.325 0 00-.386-.034 7.008 7.008 0 00-.357-.01 2.474 2.474 0 00-.776.1 1.207 1.207 0 00-.452.254.777.777 0 00-.212.332 1.17 1.17 0 00-.054.335.588.588 0 00.061.273.517.517 0 00.188.197.97.97 0 00.323.123 2.242 2.242 0 00.468.042h.88zm5.29 4.048a.117.117 0 01-.025.054.14.14 0 01-.056.039.493.493 0 01-.093.024.947.947 0 01-.144.01.857.857 0 01-.136-.01.336.336 0 01-.083-.024.071.071 0 01-.04-.093l.796-4.014h-.127a2.844 2.844 0 00-.908.13 1.66 1.66 0 00-.65.398 2.17 2.17 0 00-.448.688 5.773 5.773 0 00-.313.996q-.108.454-.207.779a3.812 3.812 0 01-.208.544 1.453 1.453 0 01-.232.354.844.844 0 01-.28.203 1.229 1.229 0 01-.352.09 3.957 3.957 0 01-.44.022.18.18 0 01-.12-.032.13.13 0 01-.036-.104.463.463 0 01.005-.059 3.26 3.26 0 01.012-.086.564.564 0 01.025-.095.411.411 0 01.044-.09.232.232 0 01.06-.066.137.137 0 01.084-.024 1.38 1.38 0 00.39-.047.517.517 0 00.274-.212 1.813 1.813 0 00.217-.481q.1-.315.222-.852a5.883 5.883 0 01.33-1.045 2.581 2.581 0 01.54-.813 2.267 2.267 0 01.841-.525 3.604 3.604 0 011.238-.185h.242c.096 0 .191 0 .286.005a.195.195 0 01.129.06.19.19 0 01.022.169zm6.149-3.549a1.136 1.136 0 01-.154.587 1.252 1.252 0 01-.486.447 2.871 2.871 0 01-.85.286 6.606 6.606 0 01-1.244.1h-.562a3.61 3.61 0 00-.049.361c-.01.118-.014.226-.014.328a1.206 1.206 0 00.26.83 1.09 1.09 0 00.853.293 2.94 2.94 0 00.552-.047 4.212 4.212 0 00.422-.1 2.965 2.965 0 00.288-.1.507.507 0 01.15-.046.06.06 0 01.055.03.172.172 0 01.017.082.493.493 0 01-.007.075.811.811 0 01-.022.098.677.677 0 01-.04.102.31.31 0 01-.058.086.597.597 0 01-.202.115 2.296 2.296 0 01-.34.1q-.195.044-.424.073a3.58 3.58 0 01-.455.03 2.388 2.388 0 01-.732-.1 1.312 1.312 0 01-.52-.3 1.244 1.244 0 01-.31-.502 2.168 2.168 0 01-.103-.7 4.15 4.15 0 01.252-1.385 3.589 3.589 0 01.334-.678 2.603 2.603 0 01.489-.572 2.295 2.295 0 01.654-.395 2.24 2.24 0 01.835-.149 1.89 1.89 0 01.654.1 1.338 1.338 0 01.437.254.953.953 0 01.32.696zm-.615.063a.536.536 0 00-.22-.448 1 1 0 00-.62-.168 1.526 1.526 0 00-.627.122 1.63 1.63 0 00-.486.328 2.01 2.01 0 00-.36.475 3.087 3.087 0 00-.24.57h.541a5.462 5.462 0 00.972-.072 2.2 2.2 0 00.617-.192.803.803 0 00.328-.281.638.638 0 00.095-.334zm5.358 3.486a.117.117 0 01-.024.054.14.14 0 01-.056.039.493.493 0 01-.093.024.947.947 0 01-.144.01.857.857 0 01-.137-.01.336.336 0 01-.083-.024.071.071 0 01-.039-.093l.405-2.046h-2.407l-.405 2.046a.213.213 0 01-.027.054.12.12 0 01-.054.039.494.494 0 01-.095.024.96.96 0 01-.142.01.893.893 0 01-.141-.01.336.336 0 01-.083-.024.071.071 0 01-.04-.093l.88-4.419a.123.123 0 01.075-.096.344.344 0 01.096-.024 1.228 1.228 0 01.146-.007 1.057 1.057 0 01.137.007.244.244 0 01.083.024.075.075 0 01.036.042.115.115 0 01.003.054l-.371 1.875h2.412l.371-1.875a.123.123 0 01.076-.096.344.344 0 01.095-.024 1.178 1.178 0 01.141-.007 1.105 1.105 0 01.142.007.244.244 0 01.083.024.075.075 0 01.037.042.115.115 0 01.002.054zm5.696-1.675a1.897 1.897 0 01-.164.816 1.68 1.68 0 01-.437.576 1.83 1.83 0 01-.632.342 2.516 2.516 0 01-.75.112 1.78 1.78 0 01-.71-.125 1.046 1.046 0 01-.655-.857 1.973 1.973 0 01.027-.649l.586-2.959a.112.112 0 01.025-.054.155.155 0 01.056-.042.344.344 0 01.095-.024 1.178 1.178 0 01.142-.007 1.105 1.105 0 01.141.007.244.244 0 01.083.024.075.075 0 01.037.042.115.115 0 01.002.054l-.327 1.685a2.466 2.466 0 01.452-.103 3.615 3.615 0 01.51-.034 2.225 2.225 0 01.64.085 1.414 1.414 0 01.478.242 1.033 1.033 0 01.298.376 1.151 1.151 0 01.103.493zm-.586.069a.766.766 0 00-.069-.33.671.671 0 00-.197-.245.909.909 0 00-.315-.151 1.559 1.559 0 00-.415-.05 3.094 3.094 0 00-.538.043 3.287 3.287 0 00-.468.117l-.152.738a1.087 1.087 0 00.1.876.822.822 0 00.706.29 1.583 1.583 0 00.535-.087 1.219 1.219 0 00.427-.257 1.192 1.192 0 00.283-.405 1.344 1.344 0 00.103-.54zm1.801 1.606a.213.213 0 01-.026.054.12.12 0 01-.054.039.494.494 0 01-.095.024.96.96 0 01-.142.01.91.91 0 01-.14-.01.334.334 0 01-.085-.024.071.071 0 01-.039-.093l.88-4.419a.112.112 0 01.024-.054.155.155 0 01.056-.042.344.344 0 01.095-.024 1.178 1.178 0 01.142-.007 1.057 1.057 0 01.136.007.244.244 0 01.083.024.086.086 0 01.04.042.098.098 0 01.004.054zm6.15-3.549a1.136 1.136 0 01-.154.587 1.253 1.253 0 01-.486.447 2.872 2.872 0 01-.85.286 6.606 6.606 0 01-1.245.1h-.561a3.608 3.608 0 00-.049.361c-.01.118-.015.226-.015.328a1.206 1.206 0 00.262.83 1.09 1.09 0 00.852.293 2.94 2.94 0 00.551-.047 4.211 4.211 0 00.423-.1 2.965 2.965 0 00.288-.1.507.507 0 01.149-.046.06.06 0 01.056.03.172.172 0 01.017.082.493.493 0 01-.007.075.811.811 0 01-.022.098.678.678 0 01-.04.102.31.31 0 01-.058.086.597.597 0 01-.203.115 2.296 2.296 0 01-.339.1q-.195.044-.425.073a3.58 3.58 0 01-.454.03 2.388 2.388 0 01-.732-.1 1.312 1.312 0 01-.52-.3 1.244 1.244 0 01-.31-.502 2.168 2.168 0 01-.103-.7 4.15 4.15 0 01.252-1.385 3.589 3.589 0 01.334-.678 2.603 2.603 0 01.488-.572 2.295 2.295 0 01.655-.395 2.24 2.24 0 01.835-.149 1.89 1.89 0 01.654.1 1.338 1.338 0 01.437.254.953.953 0 01.32.696zm-.615.063a.536.536 0 00-.22-.448 1 1 0 00-.62-.168 1.526 1.526 0 00-.628.122 1.63 1.63 0 00-.486.328 2.01 2.01 0 00-.358.475 3.087 3.087 0 00-.242.57h.542a5.461 5.461 0 00.972-.072 2.2 2.2 0 00.617-.192.803.803 0 00.327-.281.638.638 0 00.096-.334zM20.143 29.527a.136.136 0 01-.022.054.12.12 0 01-.054.039.493.493 0 01-.095.024.96.96 0 01-.142.01.893.893 0 01-.141-.01.335.335 0 01-.083-.024.071.071 0 01-.04-.093l.553-2.773.044-.293a1.881 1.881 0 00.02-.269 1.012 1.012 0 00-.14-.57.532.532 0 00-.476-.206 1.155 1.155 0 00-.567.161 2.143 2.143 0 00-.544.446 3.068 3.068 0 00-.454.682 3.405 3.405 0 00-.29.864l-.391 1.958a.213.213 0 01-.027.054.12.12 0 01-.054.039.493.493 0 01-.095.024.96.96 0 01-.142.01.857.857 0 01-.136-.01.335.335 0 01-.083-.024.078.078 0 01-.04-.04.099.099 0 01-.004-.053l.551-2.773a2.057 2.057 0 00.052-.316c.008-.102.012-.196.012-.28a.921.921 0 00-.142-.542.539.539 0 00-.473-.2 1.155 1.155 0 00-.567.161 2.143 2.143 0 00-.544.446 3.069 3.069 0 00-.454.682 3.404 3.404 0 00-.29.864l-.386 1.958a.213.213 0 01-.027.054.12.12 0 01-.054.039.493.493 0 01-.095.024.96.96 0 01-.142.01.893.893 0 01-.141-.01.335.335 0 01-.083-.024.071.071 0 01-.04-.093l.89-4.419a.13.13 0 01.021-.053.132.132 0 01.051-.042.306.306 0 01.088-.025.961.961 0 01.127-.007.856.856 0 01.122.007.208.208 0 01.076.025.076.076 0 01.034.042.115.115 0 01.003.053l-.181.904a1.259 1.259 0 01.23-.352 2.329 2.329 0 01.393-.354 2.29 2.29 0 01.5-.271 1.484 1.484 0 01.552-.107 1.438 1.438 0 01.513.08.906.906 0 01.344.224.874.874 0 01.195.342 1.716 1.716 0 01.07.438 1.82 1.82 0 01.26-.357 2.416 2.416 0 01.893-.62 1.449 1.449 0 01.547-.107 1.39 1.39 0 01.532.09.903.903 0 01.347.247.927.927 0 01.188.366 1.742 1.742 0 01.056.454 3.254 3.254 0 01-.017.334 3.54 3.54 0 01-.051.335zm6.379-2.964a4.16 4.16 0 01-.068.743 3.768 3.768 0 01-.208.724 3.281 3.281 0 01-.35.654 2.501 2.501 0 01-.49.533 2.258 2.258 0 01-.632.36 2.195 2.195 0 01-.777.13 2.366 2.366 0 01-.773-.111 1.329 1.329 0 01-.525-.326 1.277 1.277 0 01-.3-.517 2.294 2.294 0 01-.096-.686 4.152 4.152 0 01.068-.742 3.691 3.691 0 01.208-.723 3.392 3.392 0 01.35-.654 2.433 2.433 0 01.49-.532 2.275 2.275 0 01.632-.357 2.195 2.195 0 01.777-.131 2.34 2.34 0 01.773.112 1.316 1.316 0 01.525.324 1.283 1.283 0 01.3.516 2.272 2.272 0 01.096.683zm-.615.03a1.83 1.83 0 00-.059-.484.835.835 0 00-.542-.593 1.671 1.671 0 00-1.106.029 1.642 1.642 0 00-.469.298 1.973 1.973 0 00-.361.442 2.825 2.825 0 00-.254.544 3.553 3.553 0 00-.149.6 3.922 3.922 0 00-.049.614 1.842 1.842 0 00.059.483.879.879 0 00.193.364.87.87 0 00.349.229 1.655 1.655 0 001.106-.03 1.607 1.607 0 00.469-.3 2.029 2.029 0 00.361-.443 2.834 2.834 0 00.254-.545 3.52 3.52 0 00.149-.598 3.876 3.876 0 00.049-.61zm7.15 2.876a.19.19 0 01-.066.143.425.425 0 01-.232.042 2.01 2.01 0 01-.146-.005.338.338 0 01-.09-.017.08.08 0 01-.045-.034.085.085 0 01-.007-.056l.18-2.686c.004-.062.011-.147.023-.256l.036-.354.042-.389c.015-.132.03-.25.046-.358h-.01l-.166.3a92.66 92.66 0 00-.354.644l-.168.31-1.538 2.71a.838.838 0 01-.056.09.219.219 0 01-.064.06.277.277 0 01-.09.031.785.785 0 01-.127.01.736.736 0 01-.117-.008.19.19 0 01-.073-.026.137.137 0 01-.047-.057.37.37 0 01-.027-.094l-.425-2.715a9.54 9.54 0 01-.053-.345l-.047-.334q-.022-.161-.036-.307l-.025-.27h-.01c-.029.104-.06.214-.095.328l-.102.347c-.034.117-.07.233-.108.348a20.2 20.2 0 00-.105.335l-.85 2.632a.41.41 0 01-.043.088.15.15 0 01-.061.05.29.29 0 01-.095.023c-.04.003-.09.005-.152.005a.924.924 0 01-.149-.01.142.142 0 01-.073-.032.061.061 0 01-.017-.055.73.73 0 01.02-.088l1.357-4.2a.436.436 0 01.137-.195.362.362 0 01.23-.068h.214a.883.883 0 01.186.016.256.256 0 01.12.062.281.281 0 01.07.114.971.971 0 01.04.179l.326 2.075q.03.185.054.366c.016.12.032.24.046.357s.028.23.04.341l.031.323h.01l.173-.337.186-.357.19-.359c.064-.118.128-.233.193-.344l1.133-2.065a1.206 1.206 0 01.11-.17.57.57 0 01.12-.113.471.471 0 01.141-.067.672.672 0 01.18-.021h.289a.315.315 0 01.205.053.214.214 0 01.049.196zm5.256.058a.134.134 0 01-.078.098.56.56 0 01-.215.03.784.784 0 01-.12-.009.265.265 0 01-.075-.021.078.078 0 01-.04-.04.092.092 0 010-.058l.181-.908a1.26 1.26 0 01-.23.352 2.2 2.2 0 01-.397.353 2.374 2.374 0 01-.515.274 1.582 1.582 0 01-.577.11 1.367 1.367 0 01-.649-.137 1.087 1.087 0 01-.4-.36 1.359 1.359 0 01-.2-.497 2.899 2.899 0 01-.054-.554 4.213 4.213 0 01.049-.594 4.594 4.594 0 01.449-1.403 2.718 2.718 0 01.432-.623 2.06 2.06 0 01.596-.444 1.718 1.718 0 01.774-.168 1.505 1.505 0 01.761.177 2.06 2.06 0 01.557.482l.102-.479a.131.131 0 01.086-.097.586.586 0 01.212-.03.856.856 0 01.122.007.208.208 0 01.076.025.076.076 0 01.034.042.115.115 0 01.003.053zm.098-3.35a2.054 2.054 0 00-.56-.564 1.208 1.208 0 00-.661-.187 1.025 1.025 0 00-.53.138 1.513 1.513 0 00-.417.367 2.401 2.401 0 00-.31.515 4.03 4.03 0 00-.213.588 4.454 4.454 0 00-.122.589 3.853 3.853 0 00-.039.508 2.477 2.477 0 00.03.376 1.047 1.047 0 00.114.346.716.716 0 00.237.256.7.7 0 00.395.1 1.242 1.242 0 00.591-.158 2.023 2.023 0 00.554-.445 3.07 3.07 0 00.455-.678 3.475 3.475 0 00.295-.867zm8.263 3.35a.136.136 0 01-.022.054.12.12 0 01-.053.039.493.493 0 01-.096.024.96.96 0 01-.141.01.893.893 0 01-.142-.01.335.335 0 01-.083-.024.071.071 0 01-.039-.093l.552-2.773.044-.293a1.881 1.881 0 00.02-.269 1.012 1.012 0 00-.14-.57.532.532 0 00-.476-.206 1.155 1.155 0 00-.566.161 2.143 2.143 0 00-.545.446 3.068 3.068 0 00-.454.682 3.405 3.405 0 00-.29.864l-.391 1.958a.213.213 0 01-.027.054.12.12 0 01-.054.039.493.493 0 01-.095.024.96.96 0 01-.141.01.857.857 0 01-.137-.01.335.335 0 01-.083-.024.078.078 0 01-.04-.04.099.099 0 01-.004-.053l.552-2.773a2.057 2.057 0 00.05-.316c.01-.102.013-.196.013-.28a.921.921 0 00-.141-.542.539.539 0 00-.474-.2 1.155 1.155 0 00-.567.161 2.143 2.143 0 00-.544.446 3.069 3.069 0 00-.454.682 3.404 3.404 0 00-.29.864l-.386 1.958a.213.213 0 01-.027.054.12.12 0 01-.054.039.493.493 0 01-.095.024.96.96 0 01-.142.01.893.893 0 01-.141-.01.335.335 0 01-.083-.024.071.071 0 01-.04-.093l.89-4.419a.13.13 0 01.021-.053.132.132 0 01.052-.042.306.306 0 01.087-.025.961.961 0 01.127-.007.856.856 0 01.123.007.208.208 0 01.075.025.076.076 0 01.034.042.115.115 0 01.003.053l-.18.904a1.259 1.259 0 01.229-.352 2.329 2.329 0 01.393-.354 2.29 2.29 0 01.5-.271 1.484 1.484 0 01.552-.107 1.438 1.438 0 01.513.08.906.906 0 01.344.224.874.874 0 01.195.342 1.716 1.716 0 01.071.438 1.82 1.82 0 01.259-.357 2.416 2.416 0 01.893-.62 1.449 1.449 0 01.547-.107 1.39 1.39 0 01.532.09.903.903 0 01.347.246.927.927 0 01.188.367 1.742 1.742 0 01.056.454 3.254 3.254 0 01-.017.334 3.54 3.54 0 01-.051.335zm5.681-1.675a1.897 1.897 0 01-.164.816 1.68 1.68 0 01-.437.576 1.83 1.83 0 01-.632.342 2.516 2.516 0 01-.75.112 1.78 1.78 0 01-.71-.125 1.046 1.046 0 01-.654-.856 1.973 1.973 0 01.027-.65l.586-2.959a.112.112 0 01.024-.053.155.155 0 01.056-.042.344.344 0 01.095-.025 1.178 1.178 0 01.142-.007 1.105 1.105 0 01.142.007.244.244 0 01.083.025.075.075 0 01.036.042.115.115 0 01.003.053l-.328 1.685a2.466 2.466 0 01.452-.103 3.615 3.615 0 01.51-.034 2.225 2.225 0 01.64.085 1.414 1.414 0 01.478.242 1.033 1.033 0 01.298.376 1.151 1.151 0 01.103.493zm-.586.069a.766.766 0 00-.068-.33.671.671 0 00-.198-.244.909.909 0 00-.315-.152 1.559 1.559 0 00-.415-.05 3.094 3.094 0 00-.537.043 3.287 3.287 0 00-.469.118l-.151.737a1.087 1.087 0 00.1.876.822.822 0 00.705.29 1.583 1.583 0 00.535-.087 1.219 1.219 0 00.427-.257 1.192 1.192 0 00.283-.405 1.344 1.344 0 00.103-.54zm1.802 1.606a.213.213 0 01-.027.054.12.12 0 01-.054.039.493.493 0 01-.095.024.96.96 0 01-.142.01.91.91 0 01-.139-.01.333.333 0 01-.085-.024.071.071 0 01-.04-.093l.88-4.419a.112.112 0 01.024-.053.155.155 0 01.056-.042.344.344 0 01.095-.025 1.178 1.178 0 01.142-.007 1.057 1.057 0 01.137.007.244.244 0 01.083.025.086.086 0 01.039.042.098.098 0 01.005.053zm2.639-7.722c-.043.003-.028-.072-.034-.086.072.023.032.105.034.086z"/><polygon class="cls-1" points="56.901 22.037 56.892 22.005 56.986 22.089 56.901 22.037"/><path class="cls-1" d="M57.542 22.12c-.082.11-.222-.076-.347-.033l-.023.027-.038-.107a3.959 3.959 0 00.408.113zm.394-.192c-.032.044.065.06-.083-.004l.017-.009a.377.377 0 00.066.013zm-.066-.013c-.067-.02.053-.03 0 0zm.306.104l-.079-.065c.026-.025.107-.012.083-.04.086.046.06.07-.004.105zm.06.111l-.04-.03c.01-.01.024-.01.04.03zm-.128-.092l.087.062c-.018.018-.03.058-.04-.024-.002.039-.012-.002-.047-.038zm-.06.006c-.056.015-.123.017-.046.082-.163-.058-.12-.14.046-.082zm-.499.214l-.071.022-.048-.056c.024.028.13-.004.119.034zm1.198-.165c-.003.028-.05.058-.067.09l-.056-.045c.04-.011.108-.01.123-.045zm-.067.091l.08.079c-.085-.026-.094-.052-.08-.08z"/><polygon class="cls-1" points="58.216 22.272 58.082 22.138 58.246 22.28 58.216 22.272"/><polygon class="cls-1" points="59.108 22.223 59.075 22.143 59.139 22.269 59.108 22.223"/><path class="cls-1" d="M59.342 22.322c-.022-.064.085-.063.054-.11a.403.403 0 01.137.153.215.215 0 00-.191-.043zm.253.13a.521.521 0 01-.062-.087.256.256 0 01.062.087zm-.673-.143a.118.118 0 01.098-.047l-.06.059zm.035.014l.002-.002.08.025z"/><path class="cls-1" d="M58.913 22.305l.01.004c-.007.005-.01.007-.01-.004zm-.427-.039c.045.055.149.128.017.163-.025-.06.05-.08-.017-.163zm.351.114l-.103-.02c.008-.018.035-.04.014-.07z"/><polygon class="cls-1" points="58.878 22.421 58.837 22.38 58.876 22.387 58.878 22.421"/><path class="cls-1" d="M59.4 22.455a.28.28 0 00.127.093.754.754 0 01-.178-.042c0-.026-.01-.076.05-.05zm-.218-.058l.008.008c-.008.004-.013.004-.008-.008z"/><polygon class="cls-1" points="60.044 22.744 60.03 22.753 60.033 22.74 60.044 22.744"/><path class="cls-1" d="M59.334 22.516a.09.09 0 01-.082-.06.52.52 0 00.097.05c0 .011-.003.018-.015.01zm.394.024a.543.543 0 01-.09.011c.03-.014.09-.033.09-.012zm-.516-.15l-.006-.005c.02-.01.015-.004.006.005zm0 0a.26.26 0 01.04.065.322.322 0 01-.062-.05.084.084 0 00.022-.015zm.778.879a.137.137 0 00-.175-.152c-.07-.082.082-.28.215-.364-.01.03-.021.056.054.14-.047.017-.242-.012-.189.082.107.092.11.025.184.02-.086.056.1.193.02.299l-.086-.093c-.01.017.014.065-.023.068zm-.147-.581l-.037-.023a.397.397 0 00.177-.038c.054.057.056.09.05.113.003-.005-.2-.067-.2-.067zm-.216-.091c.002.084.085.15-.005.206-.114-.048-.057-.09-.114-.148.181.089-.039-.06.114-.05a.474.474 0 00-.095-.057.773.773 0 00.111.003l-.006.003h-.001c-.012.007-.017.011-.005.01l.003.002a.1.1 0 00-.002.03c.06.006.016-.015.002-.03l.002-.011.001-.001.174.11a.608.608 0 01-.18-.067zm-1.07.017a.025.025 0 00.011-.015c.01.014.012.022-.01.015zm.09-.016c-.01-.015-.012-.05-.058-.058-.046.01-.01.035-.02.06-.021-.03-.08-.078.017-.093l.01.014c.083.003.21-.054.2-.069a.542.542 0 01-.149.146zm.483.018l.143.094-.103.034.018-.037c-.093-.018-.058-.058-.058-.091z"/><polygon class="cls-1" points="60.076 22.717 60.089 22.632 60.13 22.781 60.076 22.717"/><polygon class="cls-1" points="60.269 22.823 60.291 22.754 60.325 22.819 60.269 22.823"/><path class="cls-1" d="M68.536 31.371l.007.052a.166.166 0 01-.007-.052zm-.183-.287l.024-.026c-.007.023-.015.037-.024.026zm-3.621-5.354c.097-.005.226-.031.167.024l-.068.045a.157.157 0 00-.099-.07zm2.231 2.868h-.031l.025-.085zm-.213.249l.097.036a.31.31 0 01-.098-.036zm2.646 4.172l-.047.086c-.036-.077.016-.062.047-.086zm-7.18-9.106a.43.43 0 01.157.04c-.088 0-.174.026-.157-.04zm6.947 6.89c.004.034-.003.053-.018.062-.005-.034-.001-.057.018-.062zm-6.637-6.756l-.038-.002a.377.377 0 00-.115-.092.138.138 0 01.153.094zm8.891 15.328l.011.014c-.01.003-.012-.004-.011-.014zm.873 1.962a.51.51 0 00.006-.084.159.159 0 01-.005.084zM61.074 23.182c-.04-.025-.003-.011 0 0zm-.342.176a.053.053 0 01-.001.042.066.066 0 000-.042zm1.906 1.342l.003.002c-.019.005-.015.004-.003-.002zm-1.643-1.518a.266.266 0 01.064.006.274.274 0 01-.064-.006zm.025-.028l-.04-.011c0-.015.01-.02.04.01zm.11.06a.266.266 0 00-.071-.026.022.022 0 00.015-.006zM70.868 35.8l.01.006c-.016.053-.017.033-.01-.006z"/><polygon class="cls-1" points="65.075 27.111 65.074 27.104 65.08 27.107 65.075 27.111"/><path class="cls-1" d="M65.147 27.266c.02-.119-.016-.138-.067-.159l.192-.127z"/><path class="cls-1" d="M68.881 31.963c.164.073.123.257.108.356.06.03.137-.129.184.028.074.216-.178.051-.133.18l.16.022c.008.192.141.265.216.39a.096.096 0 01-.008.068c.116.114.03.347.116.433.012-.037.1.024.134.023l.02.223c-.01-.098.058-.126.114-.172.022.063 0 .108.01.152.012-.036.024-.072.068-.054l-.013.25a.12.12 0 01-.044-.045c.023.05.033.176.12.222.023-.017.036-.053.059-.07-.102-.027-.056-.09-.022-.143.055.143.034.026.113.071a.118.118 0 01-.093.178c.078.098.112.125.099.266l.08-.06.02.115.072-.131c.153.174-.138.102 0 .307l.08-.032c.002.1-.124.185-.002.215-.018.104-.167-.1-.111.106a.383.383 0 01.15.133c-.014.078-.114-.011-.117-.056.07.314.346.082.337.392-.092-.071-.13.134-.207-.085-.01.121.193.162.144.302l.079-.107a.224.224 0 01-.011.122l.078-.037c-.093.183.16.229.002.37.126-.103.028.103.105.138.063-.144-.12-.317.01-.377.06.038.011.107.07.144a.297.297 0 01.047-.128c.14.148.017.298.019.412l-.036-.193c-.13.058.007.09-.081.174.11.068.018.176.083.239-.006-.02.007-.026 0-.046.048.205.286.2.311.281.038.077.001.25-.071.21-.022.077-.027-.285-.176-.118.235.062-.018.261.187.48.046-.13.134.038.164-.077a.224.224 0 01-.061.208l.074.022c-.106.194-.12.068-.138.326.031-.092.119.076.15.005a.263.263 0 01-.01.193l.008-.011c.028.25.134.184.09.425l-.043-.015a5.557 5.557 0 00.04.991l-.047-.104c.025.03-.036.213.039.301.001-.02.015-.054.007-.071a.142.142 0 01.138.1l-.065.036.057.024c.016.113-.103-.023-.087.09.208.047.092.48.25.568-.141.086-.022-.214-.15-.12a.225.225 0 01.06.12l-.085-.02a3.354 3.354 0 01.11.776l.018-.013c.034.109.02.168-.054.217.04.023.06-.056.095-.014-.217.19.165.389.013.504.172-.011.34.252.473.15l-.02.081c.114-.022 0-.255.12-.298l-.122-.26c.043.008.106-.033.121.008.002-.063.007-.12.07-.035-.315-.613.025-1.258-.242-1.847.004-.042.047-.022.076-.01-.124-.099.043-.111.05-.174l-.178-.144c.039-.072.093-.026.124-.035-.009-.314-.2-.589-.14-.852-.067-.07-.124.04-.157-.06.179.113.037-.318.16-.248-.196-.066-.128-.361-.354-.267-.044-.118.076-.122.106-.091a.58.58 0 01-.029-.386c-.073-.063-.103-.664-.31-.74.135.053.058-.024.087-.12l.118.045-.057-.184c0-.041-.007-.05-.016-.048-.013-.03-.056.025-.101-.048-.04-.124.004-.145.033-.23l.022.015-.021-.087c-.025-.06-.02.249-.144.064.027-.01.115-.171.024-.202.042.1-.031.11-.074.082l-.06-.14.143.005c-.158-.411-.402-.806-.554-1.247-.098.048-.127-.304-.272-.196l.023.01c.033.109-.138.023-.16-.067.092.065.08-.225.206-.023l-.006-.197c.253-.225-.237-.43-.262-.724a.062.062 0 01-.025.042c-.014-.27-.318-.46-.297-.534l-.088.022a.41.41 0 00-.151-.47c-.011.01-.019.047-.056.022a.285.285 0 00-.051-.308l-.021.02-.126-.238c-.235.144-.094-.484-.39-.397.042-.087-.038-.27-.051-.366a.05.05 0 01-.042.002c.075-.172-.199-.226-.254-.326-.014-.08.044-.08.102-.08-.183-.054-.133-.407-.205-.423-.073-.082-.11.028-.178.04-.073-.146.22-.124.003-.235.005.027.024.07 0 .065-.067-.054-.409.014-.405-.089l.071.014c-.03-.164-.386-.15-.252-.282l.077-.041c-.242-.14-.036-.11-.27-.26l-.01.012c-.06-.097-.184-.076-.112-.206l.04.019a1.655 1.655 0 00-.199-.223c0-.021-.03-.088-.065-.084.084-.079-.177-.29-.224-.334.061.098-.011.09-.068.095.028-.112.005-.154-.107-.18.1-.105.203-.22.088-.367.003.037.023.079-.011.085-.034.005-.038-.05-.04-.068-.034.006-.012.066-.063.084.021-.187-.133-.17-.214-.34.005.072-.048.053-.098.072.115-.126-.276-.08-.073-.176-.341-.163-.641-.629-.834-.63-.067.017-.07-.12-.112-.166l-.043.057c-.032-.215-.061-.129-.115-.367.002.121-.05.125-.155.115v-.204l-.095.063c-.014-.069-.074-.097-.134-.125.022.02.003.017-.012.03.08-.133-.121-.282-.102-.362-.146.072-.102-.137-.229-.06a.274.274 0 00-.023-.09c.065-.03.122-.078.058-.09l-.009-.01-.075.05a.568.568 0 00-.096-.125.233.233 0 00.072.005l-.08-.013-.017-.012.007.011a.107.107 0 01-.093-.078c-.238-.024-.22-.439-.512-.427.038.005.081.026.072.057-.145-.116-.368-.125-.422-.247l.055-.06a1.131 1.131 0 00-.25-.253l.05-.077c-.15-.067-.344-.391-.53-.294.008-.082-.189-.116-.254-.182l-.058.046a.486.486 0 01-.212-.156c-.284-.001-.396-.239-.581-.34l-.013.016-.156-.154c.016.084-.014-.06-.078-.078a.301.301 0 00-.235-.109l-.123-.06c.113.11-.058.085-.104.152l-.047-.095c-.05.019.02.08-.045.067-.032-.063-.186-.137-.196-.235a.137.137 0 01.075-.025c.004.008.004.007.002 0l.008-.002h-.008a.148.148 0 01-.007-.04c-.105-.032-.055-.044-.035-.074-.168.058-.191-.05-.34.042.187-.093-.252-.125-.113-.234-.137.075-.06-.022-.158.05.13.026.195.19.263.284l-.124.025c-.005.159.226.051.258.122-.021-.048-.117-.059-.134-.03l.073-.088c.149.024.213.152.279.246-.103-.01.073.11-.026.149l-.061-.046c-.049.02 0 .082.023.129.257.021.588.32.705.287a.197.197 0 01-.14-.12l.119.02c-.076-.052-.186-.003-.282-.105.054-.049.017-.184.152-.215.276.04.092.27.369.408.013.033.003-.133.125-.014a.463.463 0 01.104.51c-.049-.081-.15-.248-.23-.167.05.083.162.183.13.247.144-.062-.118-.116.038-.146.05.034.05.083.062.116-.006-.066.094-.047.126-.063.165.106.301.104.475.225a.149.149 0 00.074-.058c.065.09.074.333-.002.376.093.075.133.03.196.118-.198-.003.037.003-.021.114.075.073.064-.027.12-.022a.164.164 0 01-.002.107c.107-.037.042-.27.167-.314a1.452 1.452 0 01.359.013 1.254 1.254 0 01-.432.515c-.037.062.124-.004.166.017.177-.014.107.19.223.218l-.027-.1c.032-.013.14.112.134.16.029-.03.061-.213.132-.221a.372.372 0 01.086.489l-.152-.293c-.068.07.1.218.016.304l.232.151c-.025-.025-.087-.117-.02-.132.087.081.058.026.148.042a4.351 4.351 0 01.019-.792l.07.15.065-.023a1.318 1.318 0 01-.056.715c.098.05.209-.139.216-.188.17.132-.038.37.144.485l-.091-.017c.025.048.192.134.15.152.07-.016.19-.092.179-.15l.009.274c-.007-.034.122-.15.134-.181.063.045-.035.233-.091.222a1.015 1.015 0 00.314.002c.022.04-.127.13-.165.125a.231.231 0 00.142.147c-.065-.17.233-.316.301-.434l-.104.626a1.412 1.412 0 01.123-.182c-.084.132.186.431.341.556l-.02-.022c.01-.066.16.025.171.112.014-.03-.004-.035-.024-.057.177.013-.046.283.147.283-.097-.076-.07-.135-.021-.173.03.11.239.232.073.32.073.02.097.077.16.01.004-.003.082.257.082.257.002-.026.031-.074.087-.028-.107-.088-.069-.305-.21-.273.08-.079.16-.083.182-.194a1.25 1.25 0 01.109.686l.212.125-.032.04.123-.053c-.003.042-.01.073.003.07.012-.004.02-.02.027-.042a.122.122 0 01.014.065.356.356 0 00.114-.199l-.097-.003c.02-.077.047-.147.122-.125v.043c.017-.054.035-.094.064-.09l.071.18a1.03 1.03 0 00-.13-.005c.01.141.016.305-.115.285l.146.055a1.062 1.062 0 00.062.374c.041-.02.037-.084.085-.078-.02.198.357.158.278.261.05.107-.057.106-.041.186.009-.012.027-.035.041-.019l-.022.126c.047.008.004-.103.092-.049.043.178.062.284.179.37.098.173-.196.042-.085.165.075-.025.16-.06.23.018-.01.075-.062.103-.034.198l.09-.072c.047.073.07.141.141.091a.14.14 0 00.074.14c.027.14-.248.056-.303.058.146.054.156.154.314.134l-.041-.11c.26.117 0 .279.268.233-.056-.063-.064-.179.017-.174l.022.131c.034-.005-.023-.068.04-.042a.866.866 0 01-.023.179l.005-.005c.005-.003.1.195.1.195-.025-.033.006-.065.031-.032l.023.155c.002-.053.055-.034.104.012.124.14-.144.264.029.324-.013-.016-.003-.027-.016-.044l.082.036c-.2.141.201.384-.002.522.139.038.055-.024.086-.197l.117.06c-.015-.045-.05-.068-.055-.121zm-.743-1.202c-.056.01-.048-.074-.052-.11.056.028.112.024.052.11zm-1.381-2.175c-.053-.01-.088-.03-.082-.067a.139.139 0 01.082.067zm-5.266-5.101l-.001-.006c.052.013.081.015 0 .006zm-.077-.03c-.037-.016-.067-.034-.067-.057a.025.025 0 00-.01.035c.033.038.056.037.077.022zM71.548 36.06l.03.023c-.02.025-.037.05-.03-.023z"/><path class="cls-1" d="M66.774 28.817a.114.114 0 00.044-.02c-.002.02-.015.03-.044.02z"/><polygon class="cls-1" points="69.405 33.003 69.408 33.007 69.396 33.019 69.405 33.003"/><path class="cls-1" d="M62.928 25.336a.124.124 0 00.075-.001c-.011.018-.033.024-.075.001zm-2.268-2.403l.08.065a.125.125 0 00-.094-.014c.01-.017.041-.035.013-.05zm-1.003.127c-.01-.014-.028-.01-.037-.026l.019-.036c.056.024.083.069.018.063zm.793.093c-.038.063-.082.013-.139-.03l.011.005c.025-.102.077-.038.129.025zm-.152-.04a.193.193 0 00-.057-.03c.01-.04.027.004.057.03zm.884.189c-.038.002.026-.091-.005-.074.01-.098.146.199.005.074z"/><polygon class="cls-1" points="60.297 23.346 60.358 23.275 60.361 23.358 60.297 23.346"/><path class="cls-1" d="M60.812 23.526l-.11-.026c.009-.013 0-.027-.012-.04.062.027.137.044.122.066zm-.122-.066a.142.142 0 01-.073-.053.322.322 0 01.073.052z"/><polygon class="cls-1" points="60.42 23.437 60.457 23.434 60.529 23.462 60.42 23.437"/><path class="cls-1" d="M61.848 24.091l.088.085c-.005.033-.043.032-.075-.002-.013-.033-.045-.067-.013-.083zm-.434.026c.037 0 .049-.016.08-.032l-.054.098zm.281.202c-.006.033.1.165-.024.081.006-.032-.082-.116.024-.081z"/><polygon class="cls-1" points="63.257 25.195 63.233 25.176 63.345 25.031 63.257 25.195"/><path class="cls-1" d="M64.208 26.513c-.134-.056.048-.107-.082-.147.003-.054.106.033.105-.018.035.09.085.099-.023.165z"/><path class="cls-1" d="M64.231 26.348a.297.297 0 01-.014-.049.133.133 0 01.014.05z"/><polygon class="cls-1" points="72.392 41.681 72.431 41.776 72.369 41.713 72.392 41.681"/><path class="cls-1" d="M72.258 41.854l.117.027-.106.05c.005-.02.015-.06-.011-.077zm-4.509-11.267l.019-.022c.033-.007.047.009.075.04z"/><polygon class="cls-1" points="68.497 31.529 68.484 31.513 68.594 31.489 68.497 31.529"/><path class="cls-1" d="M68.898 32.46c-.024-.032-.029-.085-.054-.118.03.086.175.063.054.119zm6.492 4.923c.007-.013.035.022.042.027-.023.01-.05-.036-.043-.027z"/><polygon class="cls-1" points="75.139 37.497 75.155 37.506 75.096 37.503 75.139 37.497"/><path class="cls-1" d="M74.975 37.677c-.042-.07.069-.057.078-.107l-.008-.017.059.027c-.043.032-.12.055-.129.097zm.039.208c-.017-.026-.037.003.013-.029l.002.009a.097.097 0 00-.015.02zm.016-.02c.018-.017.007.03 0 0zm-.091.076l.042-.007c.009.017-.008.042.009.042-.034.016-.042 0-.051-.035zm-.064-.013l.02-.005c.004.007.003.012-.02.005zm.063-.018l-.043.013c-.006-.012-.025-.03.018-.007-.02-.013.002-.004.025-.005zm.005-.023c0-.025.008-.05-.035-.042.051-.042.085.002.035.042zm-.035-.254v-.034h.034c-.017 0-.017.051-.034.034zm-.075.493c-.014-.01-.026-.037-.04-.053l.03-.006c0 .016-.008.041.01.059zm-.04-.053l-.046.01c.019-.028.033-.023.046-.01z"/><polygon class="cls-1" points="74.807 37.877 74.892 37.869 74.798 37.885 74.807 37.877"/><polygon class="cls-1" points="74.743 38.234 74.785 38.243 74.718 38.235 74.743 38.234"/><path class="cls-1" d="M74.678 38.302c.034.009.027.05.053.05a.146.146 0 01-.087.015c.024-.007.036-.026.034-.065z"/><path class="cls-1" d="M74.596 38.37a.214.214 0 01.048-.003.109.109 0 01-.048.003zm.116-.234a.071.071 0 01.017.053l-.026-.041zm-.01.01v.002l-.017.025zm.012-.013l-.002.003c-.003-.004-.003-.005.002-.003zm.061-.155c-.034 0-.085.017-.086-.043.034.009.035.043.086.043zm-.093.104l.018-.037c.008.009.017.026.034.026z"/><polygon class="cls-1" points="74.658 38.087 74.682 38.082 74.675 38.096 74.658 38.087"/><path class="cls-1" d="M74.606 38.29a.078.078 0 00-.056.028.182.182 0 01.033-.061c.013.007.04.016.023.034zm.044-.072l-.005.001c-.001-.004-.001-.006.004-.001z"/><polygon class="cls-1" points="74.419 38.479 74.415 38.471 74.422 38.476 74.419 38.479"/><path class="cls-1" d="M74.579 38.249c.004-.02.019-.02.036-.018a.132.132 0 00-.032.026c-.006-.003-.01-.006-.004-.008zm-.037.151a.193.193 0 010-.038c.005.016.012.044 0 .039zm.109-.168l.003-.001c.004.01.001.007-.003 0zm0 0a.116.116 0 01-.036-.001.087.087 0 01.03-.012zm-.502.111c.035.024.094.014.083-.046.048-.01.142.1.183.174-.015-.01-.029-.021-.073-.007-.01-.025.012-.102-.04-.1-.049.026-.014.042-.012.076-.028-.05-.102.003-.156-.054l.05-.019c-.01-.008-.035-.007-.035-.024zm.309.067l.014-.009a.154.154 0 00.01.08.073.073 0 01-.06-.005l.044-.066zm.06-.064c-.044-.02-.084-.003-.108-.053.033-.034.052 0 .085-.01-.057.052.034 0 .02.059a.12.12 0 00.035-.024.21.21 0 00-.008.044l-.002-.003c-.002-.007-.004-.01-.004-.005h-.002l-.016-.008c-.006.023.008.01.016.009l.006.003v.001l-.068.042a.146.146 0 01.046-.055zm.068-.445l.007.009c-.008 0-.012-.001-.007-.009zm.001.042c.008 0 .026.009.034-.008 0-.021-.017-.014-.028-.025.016 0 .05-.007.045.033h-.008a.156.156 0 00.019.102.413.413 0 01-.062-.102zm-.047.196l-.057.035-.01-.051.017.016c.016-.034.034-.008.05 0z"/><polygon class="cls-1" points="74.433 38.499 74.476 38.524 74.399 38.509 74.433 38.499"/><polygon class="cls-1" points="74.377 38.56 74.412 38.585 74.379 38.585 74.377 38.56"/><path class="cls-1" d="M71.792 41.246l.002-.016zm.032.039l-.007.025a.117.117 0 01.007-.025zm1.372-1.085c.019.044.056.103.017.074l-.035-.032a.04.04 0 00.018-.042z"/><polygon class="cls-1" points="72.258 41.267 72.249 41.253 72.298 41.257 72.258 41.267"/><path class="cls-1" d="M72.077 41.195c-.003.004.015.036.015.036-.006-.011-.016-.014-.015-.036zm-.696-.502l.02-.05c.024.027-.005.032-.02.05zm2.469-1.473a.121.121 0 01-.01.064c-.006-.039-.025-.081.01-.064zm-2.296 2.54a.064.064 0 010-.05c.006.023.008.04 0 .05zm2.246-2.422l-.002-.016a.096.096 0 00.041-.038c.004.028 0 .055-.04.054zm-4.64-.316l-.01.001c.004-.005.006-.004.01-.001zm-.92.045a.12.12 0 00.026.017c-.006 0-.015-.004-.027-.017zm5.948-.234c.013-.012.006.001 0 0zm-.094-.181a.038.038 0 01-.023-.009.05.05 0 00.023.009zm-.634.659v.002c-.005-.01-.004-.008 0-.002zm.728-.511a.083.083 0 01-.003.025.085.085 0 01.003-.026zm.015.016l.006-.015c.007.003.01.007-.006.015zm-.031.034a.065.065 0 00.013-.025l.003.008zm-3.858 1.102l-.006.001c-.002-.026.002-.02.006 0z"/><polygon class="cls-1" points="72.539 40.336 72.542 40.335 72.542 40.338 72.539 40.336"/><path class="cls-1" d="M72.476 40.373c.064.006.066-.01.066-.035l.105.087z"/><path class="cls-1" d="M71.674 41.09c-.085-.009-.062-.102-.057-.151-.031-.003-.07.086-.097.021-.04-.088.093-.058.068-.111l-.084.02c-.006-.092-.08-.097-.128-.135a.043.043 0 010-.033c-.066-.026-.042-.148-.094-.165-.003.019-.054.014-.07.023l-.03-.095c.013.041-.019.071-.043.107-.017-.023-.009-.049-.018-.066-.003.02-.006.038-.03.043l-.015-.117a.04.04 0 01.026.01c-.016-.017-.032-.072-.08-.069L71 40.42c.053-.016.036.025.023.059-.04-.05-.019-.003-.061-.002-.03-.032-.005-.086.029-.106-.049-.02-.068-.023-.077-.09l-.033.051-.022-.045-.02.08c-.094-.03.055-.087-.042-.129l-.034.04c-.016-.04.032-.116-.032-.089-.007-.048.097-.013.038-.08a.156.156 0 01-.093-.005c-.006-.037.056-.033.065-.016-.085-.107-.178.084-.225-.043.055-.004.037-.1.111-.038-.016-.053-.118.002-.12-.072l-.017.07c-.014-.009-.014-.04-.016-.052l-.029.043c.01-.108-.111-.035-.066-.15-.038.089-.03-.032-.072-.017-.001.08.11.085.062.156-.034.006-.023-.04-.056-.033a.154.154 0 01.001.068c-.087-.007-.058-.113-.08-.157l.05.064c.048-.072-.019-.034.004-.1-.06.013-.044-.059-.088-.056.008.005.003.012.01.017-.068-.053-.17.045-.199.027-.033-.011-.057-.087-.017-.103-.008-.035.077.09.102-.03-.115.076-.052-.101-.193-.09.013.064-.064.044-.049.096-.036-.037-.026-.054-.025-.097l-.035.025c-.004-.112.032-.075-.024-.172.01.045-.066.026-.06.064a.09.09 0 01-.045-.071v.007c-.074-.073-.098-.003-.152-.09l.021-.016c-.068-.122-.222-.168-.316-.257l.048.006c-.018.003-.054-.077-.107-.065.006.006.012.022.02.023-.015.023-.048.05-.078.04l.011-.042-.027.022c-.04-.022.042-.045 0-.067-.081.09-.181-.084-.266-.012.013-.09.082.032.089-.053a.09.09 0 01-.061.006l.033-.04a1.055 1.055 0 01-.311-.093v.012c-.05-.003-.066-.021-.065-.07-.018.017.005.043-.02.054-.012-.154-.183.018-.186-.085-.039.096-.17.144-.166.235l-.023-.024c-.019.067.087.041.073.114l.118-.022c-.014.022-.016.063-.034.064.021.012.038.025-.006.043.287-.053.42.213.665.245.01.013-.01.03-.023.04.07-.035.017.051.032.07l.102-.05c.007.038-.025.053-.033.07.091.075.237.057.287.156.044-.012.035-.068.075-.057-.099.054.073.102.007.141.09-.067.131.06.197-.07.045.02-.001.074-.02.077a.156.156 0 01.098.115c.046-.012.187.174.29.117-.07.037-.02.031-.012.075l-.06.033.062.038c.008.014.013.014.016.01.012.004.02-.031.054-.025.043.026.024.055.026.097l-.011.003.022.025c.022.013-.031-.103.053-.08-.01.015-.024.11.021.088-.034-.023-.003-.054.02-.059l.048.033-.064.05a4.01 4.01 0 01.43.287c.044-.054.096.08.152-.006l-.011.003c-.027-.037.063-.051.083-.019-.05 0-.02.12-.097.07l.02.082c-.106.17.142.117.174.236a.043.043 0 01.01-.024c.023.108.186.11.176.15l.045-.031c-.006.115-.006.126.083.174.006-.006.01-.025.028-.021-.014.043-.028.086.023.127l.011-.013.06.083c.13-.101.02.187.196.122-.018.053.04.154.059.22a.023.023 0 01.018-.011c-.005.146.113.112.14.168a.095.095 0 01-.02.108c.065-.03.132.326.162.316.04.047.016-.087.027-.135.054.105-.007.25.07.245-.01-.027-.028-.061-.022-.07.015.009.03-.057.04-.118.012-.058.012-.195.025-.164l-.005.08c.048-.001.034-.384.074-.21l.015.09c.031-.224.035-.026.066-.23l-.005-.01c.03-.04.005-.137.065-.07l-.002.03a.797.797 0 00.065-.144.042.042 0 00.026-.048c.05.054.112-.15.119-.17-.034.042-.048.006-.066-.022.063.003.076-.01.057-.06.079.035.163.071.2.012-.016.004-.03.015-.043 0s.012-.02.02-.021c-.012-.015-.034-.001-.057-.022.095-.003.043-.07.101-.117-.033.007-.04-.018-.062-.039.089.042-.03-.124.068-.04 0-.155.166-.3.121-.387-.023-.03.045-.034.058-.054l-.038-.02c.1-.017.05-.03.158-.055-.06.001-.074-.022-.091-.07h.104l-.051-.043c.033-.006.037-.032.041-.058-.007.01-.008 0-.018-.006.085.038.125-.049.17-.038-.064-.068.053-.042-.01-.102a.121.121 0 00.042-.008c.028.031.063.058.057.03l.004-.004-.039-.036a.16.16 0 00.047-.04.097.097 0 00.01.034l-.007-.037.004-.006-.005.002a.03.03 0 01.025-.039c-.025-.107.185-.082.14-.212.002.016-.004.034-.022.028.043-.056.02-.156.077-.171l.038.03a.305.305 0 00.105-.091l.046.03c.018-.062.164-.117.093-.213.044.014.037-.075.068-.095l-.029-.032a.123.123 0 01.07-.072c-.018-.125.102-.142.144-.21l-.01-.008.073-.047c-.043-.006.03.003.036-.022a.079.079 0 00.046-.089l.03-.042c-.058.028-.046-.04-.083-.072l.05-.002c-.01-.025-.042-.007-.036-.032.034-.002.073-.055.125-.04a.077.077 0 01.014.037c-.005 0-.004 0 0 0v.004-.003l.021.005c.017-.04.023-.015.04 0-.032-.084.024-.073-.023-.156.048.1.067-.082.123 0-.039-.074.012-.02-.026-.078-.014.05-.1.045-.15.055l-.012-.059c-.084-.034-.029.088-.066.089.026 0 .031-.04.017-.053l.045.049c-.012.06-.08.063-.13.074.005-.043-.059.012-.08-.038l.025-.019c-.01-.025-.044-.014-.07-.013-.018.104-.157.213-.133.272-.003-.025.03-.045.056-.046l-.005.05c.023-.026-.007-.083.043-.112.028.032.097.037.12.104-.009.118-.138-.001-.197.105-.017.002.07.021.014.06a.273.273 0 01-.267-.023c.042-.012.125-.036.078-.083-.042.011-.09.05-.126.027.04.074.056-.039.08.036-.015.019-.041.012-.059.013.036.006.03.05.041.065a1.977 1.977 0 00-.086.191.128.128 0 00.038.04.231.231 0 01-.198-.036c-.03.037-.002.06-.042.082-.02-.093.002.017-.063-.02-.03.03.021.033.024.058a.109.109 0 01-.057-.01c.032.053.149.043.185.104a.647.647 0 01.034.163 1.115 1.115 0 01-.324-.239c-.037-.021.015.058.01.076.028.084-.09.038-.092.09l.05-.006c.011.016-.043.058-.07.052.02.015.123.041.136.074-.033.073-.186.062-.244.019l.13-.061c-.048-.037-.099.04-.157-.005l-.044.106c.01-.01.048-.038.067-.005-.03.038-.005.026.001.069a2.146 2.146 0 01.413.041l-.065.025.022.032a.922.922 0 01-.381-.054c-.01.045.107.102.133.107-.04.074-.198-.027-.228.056l-.007-.043c-.021.011-.038.088-.054.068.02.033.081.089.11.084l-.144.001c.017-.002.102.058.12.064-.012.028-.13-.019-.134-.044.033.09.006.056.056.143-.016.01-.094-.059-.097-.076a.065.065 0 00-.046.069c.073-.033.21.104.284.135l-.338-.038a1.187 1.187 0 01.119.053c-.085-.037-.177.099-.205.174l.006-.01c.036.002.024.074-.018.082.019.005.017-.004.024-.013.034.08-.156-.009-.112.078.017-.047.054-.037.085-.017-.05.018-.064.117-.15.047.008.034-.014.048.035.073l-.103.057c.013-.002.044.008.037.037.014-.056.127-.055.079-.115.06.031.08.066.143.07-.077.079-.205.076-.306.1v.106l-.03-.011.061.05c-.021.002-.038.002-.033.008a.048.048 0 00.028.008.048.048 0 01-.028.012.295.295 0 00.13.032l-.027-.042c.043.002.085.009.096.043l-.021.004c.03.003.055.007.061.02l-.066.046a.472.472 0 00-.035-.057.138.138 0 01-.166-.035l.022.055a.76.76 0 01-.118-.027c.017.027.036.038.046.062-.064-.065.023.185-.025.109-.02.001-.037-.074-.053-.09a.147.147 0 01.012.037l-.03-.063c.005.034.022.041.024.092-.032-.03-.043-.07-.046-.004-.014 0-.022-.206-.026-.172a.952.952 0 01.01.204l-.019-.174.005.125c-.007-.017-.012-.046-.014.041-.006-.06-.01-.056-.015-.044-.004-.07.022-.207.019-.258a.833.833 0 01-.022.146l.004.039c-.039.088.01-.152-.04.023a.181.181 0 01-.004.113l-.005-.069c-.008.02.004.029-.009.045a.677.677 0 01.01-.112l-.002.005-.017-.042c.005.002-.005.03-.012.026l.004-.053a.04.04 0 01-.037.034c-.04-.018.095-.13.03-.101.006.006-.003.008 0 .01.004.005-.034.007-.037.003.11-.097-.101-.15.007-.25-.073.003-.028.02-.047.109l-.06-.01c.007.019.025.024.027.05zm.182.256c.007-.042.007.016.01.038-.008.02-.017.055-.01-.038zm.35-.17c-.01-.025-.01-.042.01-.043a.04.04 0 01-.01.042zm1.83-2.217h.002c-.004.022-.004.035-.003 0zm.011-.03c.007-.014.015-.024.028-.02a.02.02 0 00-.019-.01c-.02.007-.017.018-.009.03zm-4.08 1.184l-.017.004c.003-.016.006-.031.017-.004z"/><path class="cls-1" d="M72.098 41.203a.097.097 0 00.022.018.02.02 0 01-.022-.018z"/><polygon class="cls-1" points="71.378 40.702 71.376 40.701 71.381 40.693 71.378 40.702"/><path class="cls-1" d="M73.154 39.39a.058.058 0 00.008.036.024.024 0 01-.008-.035zm1.164-.685l-.035.021c.014-.012.009-.025.008-.037.01.008.019.025.027.016zm-.046-.46c.008 0 .008-.009.016-.009l.018.016c-.016.018-.042.019-.034-.007zm-.069.325c-.032-.03-.006-.039.017-.055l-.003.004c.053.032.02.042-.014.051zm.022-.059a.05.05 0 00.017-.018c.02.013-.003.01-.017.018zm-.1.346c-.001-.017.05.028.04.011.052.023-.105.026-.04-.011z"/><polygon class="cls-1" points="74.103 38.464 74.14 38.505 74.096 38.489 74.103 38.464"/><path class="cls-1" d="M74.004 38.655l.014-.043a.02.02 0 00.022.002c-.015.022-.024.052-.036.041zm.036-.041a.04.04 0 01.028-.022.082.082 0 01-.028.022z"/><polygon class="cls-1" points="74.054 38.499 74.055 38.516 74.039 38.542 74.054 38.499"/><path class="cls-1" d="M73.735 39.03l-.04.028c-.018-.008-.02-.024-.004-.034.017-.002.033-.011.044.005zm-.035-.204c0 .017.01.025.02.041l-.055-.039zm-.094.101c-.018-.007-.084.024-.045-.022.018.007.058-.022.045.022z"/><polygon class="cls-1" points="73.264 39.555 73.272 39.545 73.362 39.609 73.264 39.555"/><path class="cls-1" d="M72.699 39.935c.007-.062.064.025.063-.036.03.003 0 .05.027.05-.041.014-.037.038-.09-.014zm.09.015l.023-.006a.058.058 0 01-.023.005z"/><polygon class="cls-1" points="68.1 39.066 68.059 39.073 68.095 39.049 68.1 39.066"/><path class="cls-1" d="M68.074 38.965l-.035.061.007-.066c.006.006.016.017.028.005zm3.811 2.208v.03a.094.094 0 01-.002.034z"/><polygon class="cls-1" points="71.825 41.178 71.827 41.178 71.783 41.225 71.825 41.178"/><path class="cls-1" d="M71.663 40.855c.014.011.017.036.031.047-.017-.036-.093.001-.03-.047z"/></svg>