<svg id="Слой_1" data-name="Слой 1" xmlns="http://www.w3.org/2000/svg" viewBox="0 0 80 50" width="80" height="50"><defs><style>.cls-1{fill:#fff}</style></defs><path class="cls-1" d="M9.336 35.548a.117.117 0 01-.024.053.14.14 0 01-.056.04.493.493 0 01-.093.024.947.947 0 01-.144.01.857.857 0 01-.137-.01.335.335 0 01-.083-.024.071.071 0 01-.039-.093l.405-2.046H6.758l-.405 2.046a.212.212 0 01-.027.053.12.12 0 01-.054.04.493.493 0 01-.095.024.96.96 0 01-.141.01.893.893 0 01-.142-.01.335.335 0 01-.083-.024.071.071 0 01-.04-.093l.88-4.42a.123.123 0 01.076-.095.344.344 0 01.095-.024 1.228 1.228 0 01.146-.007 1.057 1.057 0 01.137.007.244.244 0 01.083.024.075.075 0 01.037.042.115.115 0 01.002.054l-.371 1.875h2.412l.371-1.875a.123.123 0 01.076-.096.344.344 0 01.095-.024 1.178 1.178 0 01.142-.007 1.105 1.105 0 01.141.007.244.244 0 01.083.024.075.075 0 01.037.042.115.115 0 01.002.054zm5.564 0a.134.134 0 01-.078.097.56.56 0 01-.215.03.782.782 0 01-.12-.008.265.265 0 01-.075-.022.078.078 0 01-.04-.039.092.092 0 010-.058l.181-.908a1.259 1.259 0 01-.23.351 2.2 2.2 0 01-.397.354 2.374 2.374 0 01-.515.273 1.582 1.582 0 01-.577.11 1.367 1.367 0 01-.649-.136 1.087 1.087 0 01-.4-.36 1.359 1.359 0 01-.2-.498 2.899 2.899 0 01-.054-.553 4.212 4.212 0 01.049-.594 4.593 4.593 0 01.449-1.403 2.718 2.718 0 01.432-.623 2.06 2.06 0 01.596-.445 1.718 1.718 0 01.773-.168 1.505 1.505 0 01.762.178 2.06 2.06 0 01.557.481l.102-.478a.131.131 0 01.086-.098.586.586 0 01.212-.029.856.856 0 01.122.007.208.208 0 01.076.024.076.076 0 01.034.042.115.115 0 01.003.054zm.097-3.35a2.055 2.055 0 00-.559-.564 1.208 1.208 0 00-.661-.188 1.025 1.025 0 00-.53.139 1.513 1.513 0 00-.417.366 2.401 2.401 0 00-.31.516 4.028 4.028 0 00-.213.588 4.45 4.45 0 00-.122.589 3.853 3.853 0 00-.04.507 2.477 2.477 0 00.03.376 1.047 1.047 0 00.115.347.716.716 0 00.237.256.7.7 0 00.395.1 1.242 1.242 0 00.591-.159 2.023 2.023 0 00.554-.444 3.07 3.07 0 00.454-.679 3.475 3.475 0 00.296-.866zm8.265 3.35a.137.137 0 01-.023.053.117.117 0 01-.054.04.487.487 0 01-.094.024.965.965 0 01-.142.01.889.889 0 01-.141-.01.329.329 0 01-.083-.024.076.076 0 01-.04-.04.073.073 0 010-.053l.552-2.774.044-.293a1.955 1.955 0 00.02-.268 1.012 1.012 0 00-.14-.57.53.53 0 00-.476-.207 1.153 1.153 0 00-.566.162 2.136 2.136 0 00-.545.446 3.068 3.068 0 00-.454.682 3.404 3.404 0 00-.29.864l-.391 1.958a.213.213 0 01-.027.053.12.12 0 01-.054.04.493.493 0 01-.095.024.96.96 0 01-.141.01.857.857 0 01-.137-.01.335.335 0 01-.083-.024.078.078 0 01-.04-.04.099.099 0 01-.004-.053l.552-2.774a2.057 2.057 0 00.05-.315 2.87 2.87 0 00.013-.28.921.921 0 00-.142-.542.539.539 0 00-.473-.2 1.155 1.155 0 00-.567.16 2.143 2.143 0 00-.544.447 3.068 3.068 0 00-.454.682 3.404 3.404 0 00-.29.864l-.386 1.958a.213.213 0 01-.027.053.12.12 0 01-.054.04.493.493 0 01-.095.024.96.96 0 01-.142.01.893.893 0 01-.141-.01.335.335 0 01-.083-.024.071.071 0 01-.04-.093l.89-4.42a.13.13 0 01.021-.053.132.132 0 01.052-.042.306.306 0 01.087-.024.96.96 0 01.127-.007.856.856 0 01.123.007.208.208 0 01.075.024.076.076 0 01.034.042.115.115 0 01.003.054l-.18.903a1.259 1.259 0 01.229-.351 2.33 2.33 0 01.393-.355 2.291 2.291 0 01.5-.27 1.484 1.484 0 01.552-.108 1.438 1.438 0 01.513.08.906.906 0 01.344.225.874.874 0 01.195.342 1.716 1.716 0 01.071.437 1.82 1.82 0 01.259-.356 2.384 2.384 0 01.398-.352 2.352 2.352 0 01.496-.268 1.447 1.447 0 01.547-.108 1.393 1.393 0 01.532.09.906.906 0 01.347.247.92.92 0 01.187.366 1.721 1.721 0 01.057.454 3.12 3.12 0 01-.018.334c-.01.11-.028.221-.05.335zm5.91-4.458a.449.449 0 01-.01.088.492.492 0 01-.024.078c-.112.293-.229.6-.355.923q-.187.483-.444 1.015-.257.532-.608 1.12a13.96 13.96 0 01-.85 1.248l-1.308 1.739a.328.328 0 01-.054.05.286.286 0 01-.073.04.519.519 0 01-.107.027 1.082 1.082 0 01-.147.01 1.103 1.103 0 01-.151-.01.2.2 0 01-.098-.037.076.076 0 01-.032-.069.187.187 0 01.052-.1l1.24-1.567-.732-4.345a1.75 1.75 0 01-.015-.098.433.433 0 01-.005-.063.168.168 0 01.012-.067.09.09 0 01.044-.04.317.317 0 01.088-.023 1.128 1.128 0 01.14-.007 1.165 1.165 0 01.146.007.302.302 0 01.085.022.097.097 0 01.047.041.205.205 0 01.02.057l.634 3.882h.01a10.389 10.389 0 00.607-.938q.271-.474.496-.96.224-.485.415-.981.19-.495.362-1.003a.13.13 0 01.03-.059.149.149 0 01.062-.039.433.433 0 01.1-.022 1.352 1.352 0 01.154-.007.599.599 0 01.217.024c.034.016.052.037.052.064zm5.109 1.406a4.273 4.273 0 01-.052.615 4.72 4.72 0 01-.163.705 4.284 4.284 0 01-.293.703 2.788 2.788 0 01-.434.614 2.02 2.02 0 01-.591.431 1.878 1.878 0 01-1.185.118 1.483 1.483 0 01-.343-.13 1.641 1.641 0 01-.288-.195 2.135 2.135 0 01-.245-.244l-.434 2.188a.137.137 0 01-.023.053.129.129 0 01-.05.041.282.282 0 01-.091.025 1.126 1.126 0 01-.144.008 1.021 1.021 0 01-.137-.008.25.25 0 01-.085-.025.083.083 0 01-.041-.04.09.09 0 01-.005-.054l1.24-6.172a.118.118 0 01.073-.098.556.556 0 01.215-.03.79.79 0 01.12.008.262.262 0 01.075.022.064.064 0 01.036.04.14.14 0 01.003.058l-.18.903a1.237 1.237 0 01.23-.351 2.237 2.237 0 01.397-.355 2.328 2.328 0 01.515-.27 1.597 1.597 0 01.576-.108 1.382 1.382 0 01.616.122 1.087 1.087 0 01.402.33 1.313 1.313 0 01.22.49 2.663 2.663 0 01.066.606zm-.615.024a2.037 2.037 0 00-.042-.427 1.032 1.032 0 00-.132-.342.63.63 0 00-.24-.225.754.754 0 00-.362-.08 1.25 1.25 0 00-.591.158 2.046 2.046 0 00-.555.443 3.064 3.064 0 00-.456.676 3.275 3.275 0 00-.293.867l-.18.888a2.055 2.055 0 00.558.564 1.204 1.204 0 00.662.188 1.023 1.023 0 00.523-.136 1.529 1.529 0 00.415-.362 2.478 2.478 0 00.312-.51 3.968 3.968 0 00.217-.588 4.24 4.24 0 00.125-.594 4.056 4.056 0 00.039-.52zm5.364 3.028a.135.135 0 01-.079.097.563.563 0 01-.215.03.794.794 0 01-.12-.008.266.266 0 01-.075-.022.076.076 0 01-.04-.039.086.086 0 010-.058l.182-.908a1.281 1.281 0 01-.23.351 2.203 2.203 0 01-.398.354 2.37 2.37 0 01-.515.273 1.584 1.584 0 01-.576.11 1.366 1.366 0 01-.65-.136 1.084 1.084 0 01-.4-.36 1.35 1.35 0 01-.2-.498 2.86 2.86 0 01-.054-.553 4.141 4.141 0 01.049-.594 4.418 4.418 0 01.161-.698 4.494 4.494 0 01.288-.705 2.716 2.716 0 01.432-.623 2.066 2.066 0 01.595-.445 1.72 1.72 0 01.775-.168 1.505 1.505 0 01.762.178 2.06 2.06 0 01.556.481l.103-.478a.132.132 0 01.085-.098.59.59 0 01.213-.029.86.86 0 01.122.007.205.205 0 01.075.024.074.074 0 01.034.042.121.121 0 01.003.054zm.097-3.35a2.05 2.05 0 00-.56-.564 1.206 1.206 0 00-.66-.188 1.028 1.028 0 00-.531.139 1.511 1.511 0 00-.417.366 2.403 2.403 0 00-.31.516 4.027 4.027 0 00-.213.588 4.301 4.301 0 00-.122.589 3.77 3.77 0 00-.039.507 2.477 2.477 0 00.03.376 1.058 1.058 0 00.114.347.717.717 0 00.237.256.699.699 0 00.396.1 1.244 1.244 0 00.59-.159 2.028 2.028 0 00.554-.444 3.07 3.07 0 00.454-.679 3.495 3.495 0 00.296-.866zm5.422 3.35a.127.127 0 01-.025.053.146.146 0 01-.056.04.483.483 0 01-.093.024.935.935 0 01-.144.01.848.848 0 01-.136-.01.329.329 0 01-.083-.024.076.076 0 01-.04-.04.073.073 0 010-.053l.796-4.014h-.127a2.844 2.844 0 00-.908.129 1.656 1.656 0 00-.65.398 2.152 2.152 0 00-.448.689 5.731 5.731 0 00-.313.996c-.072.303-.14.563-.208.778a3.814 3.814 0 01-.207.545 1.468 1.468 0 01-.232.354.847.847 0 01-.28.203 1.238 1.238 0 01-.352.09 3.97 3.97 0 01-.44.022.18.18 0 01-.12-.032.13.13 0 01-.036-.104.387.387 0 01.005-.06l.012-.085a.617.617 0 01.024-.095.46.46 0 01.044-.09.234.234 0 01.062-.066.135.135 0 01.083-.024 1.383 1.383 0 00.39-.047.519.519 0 00.274-.212 1.799 1.799 0 00.217-.482c.067-.21.14-.494.222-.851a5.882 5.882 0 01.33-1.045 2.59 2.59 0 01.54-.814 2.265 2.265 0 01.841-.524 3.607 3.607 0 011.238-.186h.242c.096 0 .191.001.286.005a.194.194 0 01.129.06.19.19 0 01.022.17zm5.759-1.695a1.86 1.86 0 01-.17.818 1.734 1.734 0 01-.446.584 1.851 1.851 0 01-.64.348 2.454 2.454 0 01-.751.116 1.835 1.835 0 01-.718-.125 1.072 1.072 0 01-.679-.857 1.815 1.815 0 01.02-.65l.586-2.958a.104.104 0 01.024-.054.15.15 0 01.056-.042.348.348 0 01.095-.024 1.173 1.173 0 01.142-.007 1.11 1.11 0 01.142.007.247.247 0 01.083.024.074.074 0 01.036.042.122.122 0 01.003.054l-.327 1.645a2.456 2.456 0 01.468-.102 3.984 3.984 0 01.528-.034 2.178 2.178 0 01.641.088 1.467 1.467 0 01.489.249 1.084 1.084 0 01.31.385 1.13 1.13 0 01.108.493zm-.596.074a.731.731 0 00-.073-.332.72.72 0 00-.205-.25.917.917 0 00-.32-.156 1.503 1.503 0 00-.418-.053 3.403 3.403 0 00-.554.044 2.775 2.775 0 00-.486.122l-.151.762a1.02 1.02 0 00.119.869.882.882 0 00.72.288 1.574 1.574 0 00.54-.091 1.252 1.252 0 00.434-.259 1.196 1.196 0 00.288-.407 1.321 1.321 0 00.106-.537zm5.548 1.621a.128.128 0 01-.024.053.146.146 0 01-.056.04.482.482 0 01-.093.024.935.935 0 01-.144.01.848.848 0 01-.136-.01.329.329 0 01-.083-.024.076.076 0 01-.04-.04.073.073 0 010-.053l.406-2.046h-2.407l-.406 2.046a.214.214 0 01-.027.053.117.117 0 01-.054.04.487.487 0 01-.095.024.965.965 0 01-.141.01.888.888 0 01-.142-.01.329.329 0 01-.083-.024.076.076 0 01-.039-.04.073.073 0 010-.053l.88-4.42a.13.13 0 01.02-.053.134.134 0 01.054-.042.348.348 0 01.096-.024 1.228 1.228 0 01.147-.007 1.067 1.067 0 01.136.007.247.247 0 01.083.024.074.074 0 01.036.042.121.121 0 01.003.054l-.37 1.875h2.411l.371-1.875a.13.13 0 01.022-.054.134.134 0 01.054-.042.348.348 0 01.095-.024 1.173 1.173 0 01.142-.007 1.11 1.11 0 01.142.007.247.247 0 01.083.024.074.074 0 01.036.042.122.122 0 01.003.054zm5.696-1.675a1.89 1.89 0 01-.164.815 1.678 1.678 0 01-.437.577 1.837 1.837 0 01-.632.341 2.516 2.516 0 01-.75.113 1.783 1.783 0 01-.71-.125 1.046 1.046 0 01-.655-.857 1.974 1.974 0 01.028-.65l.586-2.958a.104.104 0 01.024-.054.15.15 0 01.056-.042.348.348 0 01.095-.024 1.173 1.173 0 01.142-.007 1.11 1.11 0 01.142.007.247.247 0 01.083.024.074.074 0 01.036.042.122.122 0 01.003.054l-.327 1.684a2.47 2.47 0 01.45-.102 3.627 3.627 0 01.511-.034 2.23 2.23 0 01.64.085 1.424 1.424 0 01.479.242 1.038 1.038 0 01.297.376 1.151 1.151 0 01.103.493zm-.586.068a.773.773 0 00-.068-.33.673.673 0 00-.199-.244.906.906 0 00-.314-.151 1.564 1.564 0 00-.415-.051 3.09 3.09 0 00-.537.044 3.288 3.288 0 00-.469.117l-.151.737a1.089 1.089 0 00.1.876.823.823 0 00.705.291 1.58 1.58 0 00.535-.087 1.22 1.22 0 00.427-.257 1.198 1.198 0 00.284-.406 1.344 1.344 0 00.102-.539zm1.802 1.607a.214.214 0 01-.028.054.117.117 0 01-.053.039.487.487 0 01-.095.024.965.965 0 01-.142.01.917.917 0 01-.14-.01.335.335 0 01-.084-.024.076.076 0 01-.04-.04.073.073 0 010-.053l.88-4.42a.104.104 0 01.024-.053.15.15 0 01.056-.042.348.348 0 01.095-.024 1.173 1.173 0 01.142-.007 1.067 1.067 0 01.137.007.247.247 0 01.083.024.089.089 0 01.039.042.108.108 0 01.005.054zm6.149-3.55a1.136 1.136 0 01-.154.588 1.255 1.255 0 01-.485.447 2.881 2.881 0 01-.85.285 6.613 6.613 0 01-1.245.1h-.562a3.47 3.47 0 00-.049.362c-.01.117-.014.226-.014.327a1.208 1.208 0 00.26.83 1.092 1.092 0 00.853.293 2.945 2.945 0 00.552-.046 4.202 4.202 0 00.422-.1 2.917 2.917 0 00.288-.1.504.504 0 01.15-.047.059.059 0 01.055.032.166.166 0 01.018.08.502.502 0 01-.008.076.804.804 0 01-.022.098.735.735 0 01-.039.102.333.333 0 01-.058.086.595.595 0 01-.204.114 2.288 2.288 0 01-.338.101q-.197.044-.425.073a3.591 3.591 0 01-.454.03 2.384 2.384 0 01-.733-.101 1.314 1.314 0 01-.52-.3 1.248 1.248 0 01-.31-.5 2.168 2.168 0 01-.102-.701 4.131 4.131 0 01.25-1.385 3.622 3.622 0 01.336-.679 2.59 2.59 0 01.488-.57 2.282 2.282 0 01.654-.396 2.236 2.236 0 01.835-.149 1.894 1.894 0 01.655.1 1.34 1.34 0 01.436.254.956.956 0 01.32.696zm-.615.063a.536.536 0 00-.22-.447 1 1 0 00-.62-.168 1.53 1.53 0 00-.628.122 1.628 1.628 0 00-.485.327 2.01 2.01 0 00-.36.476 3.085 3.085 0 00-.24.57h.541a5.465 5.465 0 00.972-.072 2.195 2.195 0 00.617-.192.8.8 0 00.327-.282.638.638 0 00.096-.334zM10.45 44.746a.136.136 0 01-.021.054.12.12 0 01-.052.039.443.443 0 01-.088.024.785.785 0 01-.127.01.696.696 0 01-.122-.01.286.286 0 01-.075-.024.073.073 0 01-.037-.093l.171-.889a1.222 1.222 0 01-.23.349 2.28 2.28 0 01-.903.615 1.573 1.573 0 01-.561.106 1.499 1.499 0 01-.55-.088.905.905 0 01-.356-.242.922.922 0 01-.193-.367 1.748 1.748 0 01-.059-.465 2.714 2.714 0 01.02-.323 3.74 3.74 0 01.054-.337l.551-2.778a.112.112 0 01.025-.054.155.155 0 01.056-.042.345.345 0 01.095-.024 1.178 1.178 0 01.142-.007 1.057 1.057 0 01.137.007.244.244 0 01.083.024.087.087 0 01.039.042.098.098 0 01.004.054l-.551 2.778a3.21 3.21 0 00-.047.29 2.72 2.72 0 00-.017.306 1.285 1.285 0 00.032.295.615.615 0 00.107.234.492.492 0 00.196.155.731.731 0 00.295.053 1.242 1.242 0 00.59-.159 2.047 2.047 0 00.555-.441 3.033 3.033 0 00.454-.677 3.479 3.479 0 00.296-.861l.395-1.973a.112.112 0 01.025-.054.155.155 0 01.056-.042.345.345 0 01.095-.024 1.178 1.178 0 01.142-.007 1.105 1.105 0 01.141.007.244.244 0 01.083.024.075.075 0 01.037.042.115.115 0 01.002.054zm5.696 0a.117.117 0 01-.024.054.14.14 0 01-.057.039.492.492 0 01-.092.024.946.946 0 01-.144.01.857.857 0 01-.137-.01.335.335 0 01-.083-.024.071.071 0 01-.04-.093l.406-2.046h-2.407l-.405 2.046a.213.213 0 01-.027.054.12.12 0 01-.054.039.493.493 0 01-.095.024.96.96 0 01-.142.01.893.893 0 01-.141-.01.335.335 0 01-.083-.024.071.071 0 01-.04-.093l.88-4.419a.123.123 0 01.075-.096.345.345 0 01.095-.024 1.228 1.228 0 01.147-.007 1.057 1.057 0 01.136.007.244.244 0 01.084.024.075.075 0 01.036.042.115.115 0 01.003.054l-.372 1.875h2.413l.37-1.875a.123.123 0 01.076-.096.345.345 0 01.096-.024 1.178 1.178 0 01.141-.007 1.105 1.105 0 01.142.007.244.244 0 01.083.024.075.075 0 01.036.042.115.115 0 01.003.054zm5.534-3.472a1.222 1.222 0 01-.088.48 1.056 1.056 0 01-.273.375 1.898 1.898 0 01-.476.3 5.544 5.544 0 01-.71.261 4.976 4.976 0 00-.684.242 2.154 2.154 0 00-.437.253.803.803 0 00-.232.272.696.696 0 00-.069.308.53.53 0 00.242.478 1.324 1.324 0 00.71.156 2.227 2.227 0 00.518-.056 2.351 2.351 0 00.354-.105l.33-.146a.96.96 0 01.273-.098.069.069 0 01.059.026.158.158 0 01.02.091.732.732 0 01-.01.098 2.266 2.266 0 01-.025.132.652.652 0 01-.041.129.402.402 0 01-.057.095.812.812 0 01-.197.113 2.526 2.526 0 01-.352.119 3.889 3.889 0 01-.45.093 3.206 3.206 0 01-.48.037 2.416 2.416 0 01-.615-.074 1.513 1.513 0 01-.481-.214 1.013 1.013 0 01-.313-.342.919.919 0 01-.11-.45 1.338 1.338 0 01.105-.544 1.217 1.217 0 01.315-.422 2.24 2.24 0 01.523-.335 5.406 5.406 0 01.752-.28 6.513 6.513 0 00.615-.215 1.872 1.872 0 00.393-.215.744.744 0 00.217-.242.634.634 0 00.069-.3.548.548 0 00-.235-.472 1.067 1.067 0 00-.634-.168 1.982 1.982 0 00-.47.05 1.836 1.836 0 00-.317.102q-.107.048-.268.131a.667.667 0 01-.21.083.06.06 0 01-.056-.029.18.18 0 01-.017-.088.536.536 0 01.01-.093.632.632 0 01.031-.112.837.837 0 01.051-.112.387.387 0 01.069-.093.712.712 0 01.202-.132 1.903 1.903 0 01.306-.112 2.679 2.679 0 01.358-.076 2.622 2.622 0 01.364-.027 1.978 1.978 0 01.615.088 1.284 1.284 0 01.447.241 1.008 1.008 0 01.269.36 1.08 1.08 0 01.09.44zm5.408.42a4.273 4.273 0 01-.052.616 4.72 4.72 0 01-.163.705 4.285 4.285 0 01-.293.703 2.788 2.788 0 01-.435.613 2.021 2.021 0 01-.59.432 1.878 1.878 0 01-1.185.117 1.483 1.483 0 01-.344-.13 1.641 1.641 0 01-.288-.194 2.135 2.135 0 01-.244-.245l-.435 2.188a.137.137 0 01-.022.054.129.129 0 01-.05.04.283.283 0 01-.092.025 1.128 1.128 0 01-.143.008 1.023 1.023 0 01-.137-.008.251.251 0 01-.086-.024.083.083 0 01-.04-.041.09.09 0 01-.006-.054l1.24-6.172a.118.118 0 01.074-.098.556.556 0 01.215-.029.79.79 0 01.119.007.262.262 0 01.076.022.064.064 0 01.036.04.14.14 0 01.003.058l-.18.903a1.237 1.237 0 01.229-.351 2.237 2.237 0 01.397-.355 2.327 2.327 0 01.516-.27 1.597 1.597 0 01.576-.108 1.382 1.382 0 01.615.123 1.087 1.087 0 01.403.329 1.313 1.313 0 01.22.49 2.663 2.663 0 01.066.606zm-.615.025a2.037 2.037 0 00-.042-.428 1.032 1.032 0 00-.132-.342.63.63 0 00-.24-.224.754.754 0 00-.363-.08 1.25 1.25 0 00-.59.158 2.046 2.046 0 00-.555.442 3.064 3.064 0 00-.456.676 3.275 3.275 0 00-.293.867l-.181.889a2.055 2.055 0 00.559.563 1.204 1.204 0 00.662.189 1.023 1.023 0 00.522-.137 1.529 1.529 0 00.415-.361 2.478 2.478 0 00.313-.511 3.967 3.967 0 00.216-.588 4.24 4.24 0 00.125-.594 4.056 4.056 0 00.04-.52zm5.949-.523a1.136 1.136 0 01-.154.588 1.254 1.254 0 01-.486.447 2.881 2.881 0 01-.85.286 6.612 6.612 0 01-1.245.1h-.561a3.477 3.477 0 00-.049.361c-.01.118-.015.226-.015.328a1.208 1.208 0 00.261.83 1.092 1.092 0 00.853.293 2.945 2.945 0 00.551-.047 4.2 4.2 0 00.422-.1 2.916 2.916 0 00.288-.1.504.504 0 01.15-.046.059.059 0 01.056.031.166.166 0 01.017.081.503.503 0 01-.008.075.806.806 0 01-.021.098.734.734 0 01-.04.102.333.333 0 01-.058.086.595.595 0 01-.203.115 2.29 2.29 0 01-.339.1q-.196.044-.425.073a3.591 3.591 0 01-.454.03 2.383 2.383 0 01-.732-.1 1.314 1.314 0 01-.52-.3 1.248 1.248 0 01-.31-.502 2.168 2.168 0 01-.103-.7 4.131 4.131 0 01.251-1.385 3.621 3.621 0 01.335-.678 2.59 2.59 0 01.488-.572 2.282 2.282 0 01.655-.395 2.236 2.236 0 01.835-.149 1.894 1.894 0 01.654.1 1.34 1.34 0 01.437.254.956.956 0 01.32.696zm-.615.064a.536.536 0 00-.22-.448 1 1 0 00-.62-.168 1.53 1.53 0 00-.628.123 1.628 1.628 0 00-.486.327 2.011 2.011 0 00-.359.475 3.085 3.085 0 00-.241.57h.542a5.465 5.465 0 00.972-.072 2.196 2.196 0 00.617-.192.8.8 0 00.327-.281.638.638 0 00.096-.334zm6.153-.606q0 .147-.014.407c-.01.175-.031.37-.063.59-.033.217-.078.45-.137.698a5.24 5.24 0 01-.232.734 4.23 4.23 0 01-.352.696 2.724 2.724 0 01-.493.588 2.223 2.223 0 01-.664.408 2.296 2.296 0 01-.857.152 1.783 1.783 0 01-.71-.125 1.141 1.141 0 01-.457-.342 1.328 1.328 0 01-.244-.508 2.555 2.555 0 01-.073-.627 4.127 4.127 0 01.059-.669 4.266 4.266 0 01.18-.71 3.772 3.772 0 01.313-.68 2.5 2.5 0 01.459-.573 2.138 2.138 0 01.615-.398 1.969 1.969 0 01.781-.149 1.63 1.63 0 01.489.069 1.305 1.305 0 01.382.185 1.08 1.08 0 01.272.279 1.251 1.251 0 01.161.351.86.86 0 00.01-.127v-.195a3.78 3.78 0 00-.086-.823 1.866 1.866 0 00-.288-.68 1.41 1.41 0 00-.542-.458 1.882 1.882 0 00-.842-.168.333.333 0 01-.176-.03.114.114 0 01-.039-.097l.002-.049a.56.56 0 01.01-.063c.005-.024.01-.047.017-.072a.622.622 0 01.022-.068.827.827 0 01.027-.059.186.186 0 01.03-.04.139.139 0 01.078-.043.779.779 0 01.156-.011 2.66 2.66 0 01.905.146 1.725 1.725 0 01.698.461 2.11 2.11 0 01.448.81 4.005 4.005 0 01.156 1.19zm-.863 1.509a1.941 1.941 0 00-.279-1.116.904.904 0 00-.79-.403 1.266 1.266 0 00-.611.142 1.55 1.55 0 00-.459.373 2.216 2.216 0 00-.325.52 3.791 3.791 0 00-.207.582 4.107 4.107 0 00-.113.561 3.562 3.562 0 00-.034.454 1.37 1.37 0 00.232.852.843.843 0 00.71.3 1.537 1.537 0 00.593-.11 1.76 1.76 0 00.477-.29 1.958 1.958 0 00.361-.415 2.723 2.723 0 00.25-.486 3.05 3.05 0 00.146-.5 2.452 2.452 0 00.049-.464zm5.646 2.583a.137.137 0 01-.022.054.118.118 0 01-.051.039.463.463 0 01-.088.024.79.79 0 01-.127.01.692.692 0 01-.122-.01.29.29 0 01-.076-.024.077.077 0 01-.036-.04.073.073 0 010-.053l.17-.889a1.244 1.244 0 01-.229.349 2.28 2.28 0 01-.903.615 1.575 1.575 0 01-.562.106 1.502 1.502 0 01-.55-.088.912.912 0 01-.356-.242.927.927 0 01-.192-.367 1.748 1.748 0 01-.06-.465 2.614 2.614 0 01.02-.323 3.74 3.74 0 01.054-.337l.552-2.778a.104.104 0 01.024-.054.15.15 0 01.056-.042.349.349 0 01.096-.024 1.173 1.173 0 01.141-.007 1.067 1.067 0 01.137.007.248.248 0 01.083.024.089.089 0 01.04.042.108.108 0 01.004.054l-.552 2.778c-.02.094-.035.192-.047.29a2.844 2.844 0 00-.016.306 1.314 1.314 0 00.031.295.63.63 0 00.107.234.499.499 0 00.196.155.735.735 0 00.296.053 1.244 1.244 0 00.59-.159 2.053 2.053 0 00.554-.441 3.032 3.032 0 00.454-.677 3.5 3.5 0 00.296-.861l.396-1.973a.104.104 0 01.024-.054.15.15 0 01.056-.042.348.348 0 01.095-.024 1.173 1.173 0 01.142-.007 1.11 1.11 0 01.142.007.248.248 0 01.083.024.074.074 0 01.036.042.121.121 0 01.003.054zm6.15-3.55a1.136 1.136 0 01-.155.588 1.254 1.254 0 01-.485.447 2.881 2.881 0 01-.85.286 6.613 6.613 0 01-1.245.1h-.561a3.471 3.471 0 00-.05.361 4.32 4.32 0 00-.014.328 1.208 1.208 0 00.26.83 1.092 1.092 0 00.853.293 2.945 2.945 0 00.552-.047 4.199 4.199 0 00.422-.1 2.915 2.915 0 00.288-.1.504.504 0 01.15-.046.059.059 0 01.055.031.166.166 0 01.018.081.502.502 0 01-.008.075.806.806 0 01-.022.098.735.735 0 01-.039.102.333.333 0 01-.058.086.595.595 0 01-.203.115 2.29 2.29 0 01-.34.1q-.195.044-.424.073a3.591 3.591 0 01-.454.03 2.383 2.383 0 01-.732-.1 1.314 1.314 0 01-.521-.3 1.248 1.248 0 01-.31-.502 2.168 2.168 0 01-.102-.7 4.131 4.131 0 01.25-1.385 3.622 3.622 0 01.336-.678 2.59 2.59 0 01.488-.572 2.282 2.282 0 01.654-.395 2.236 2.236 0 01.835-.149 1.894 1.894 0 01.655.1 1.34 1.34 0 01.436.254.956.956 0 01.32.696zm-.616.064a.536.536 0 00-.22-.448 1 1 0 00-.62-.168 1.53 1.53 0 00-.627.123 1.628 1.628 0 00-.486.327 2.01 2.01 0 00-.36.475 3.086 3.086 0 00-.24.57h.542a5.465 5.465 0 00.971-.072 2.195 2.195 0 00.617-.192.8.8 0 00.328-.281.638.638 0 00.095-.334zm5.359 3.486a.128.128 0 01-.025.054.146.146 0 01-.056.039.482.482 0 01-.093.024.935.935 0 01-.144.01.848.848 0 01-.136-.01.328.328 0 01-.083-.024.076.076 0 01-.04-.04.073.073 0 010-.053l.406-2.046h-2.407l-.406 2.046a.214.214 0 01-.027.054.117.117 0 01-.054.039.487.487 0 01-.095.024.965.965 0 01-.141.01.888.888 0 01-.142-.01.328.328 0 01-.083-.024.076.076 0 01-.039-.04.073.073 0 010-.053l.88-4.419a.13.13 0 01.02-.054.134.134 0 01.054-.042.348.348 0 01.096-.024 1.228 1.228 0 01.147-.007 1.067 1.067 0 01.136.007.248.248 0 01.083.024.074.074 0 01.036.042.121.121 0 01.003.054l-.37 1.875h2.411l.371-1.875a.13.13 0 01.022-.054.134.134 0 01.054-.042.348.348 0 01.095-.024 1.173 1.173 0 01.142-.007 1.11 1.11 0 01.142.007.248.248 0 01.083.024.074.074 0 01.036.042.122.122 0 01.003.054zm8.356 0a.137.137 0 01-.022.054.117.117 0 01-.054.039.486.486 0 01-.095.024.965.965 0 01-.141.01.888.888 0 01-.142-.01.328.328 0 01-.083-.024.076.076 0 01-.039-.04.073.073 0 010-.053l.552-2.773.044-.293a1.955 1.955 0 00.02-.269 1.012 1.012 0 00-.14-.57.53.53 0 00-.476-.206 1.153 1.153 0 00-.566.16 2.136 2.136 0 00-.545.447 3.069 3.069 0 00-.454.682 3.385 3.385 0 00-.29.864l-.391 1.958a.214.214 0 01-.027.054.117.117 0 01-.054.039.486.486 0 01-.095.024.965.965 0 01-.141.01.848.848 0 01-.137-.01.328.328 0 01-.083-.024.076.076 0 01-.04-.04.09.09 0 01-.004-.053l.552-2.773a2.055 2.055 0 00.05-.316c.01-.102.013-.196.013-.28a.925.925 0 00-.141-.542.54.54 0 00-.474-.2 1.153 1.153 0 00-.566.16 2.136 2.136 0 00-.545.447 3.068 3.068 0 00-.455.682 3.385 3.385 0 00-.29.864l-.385 1.958a.214.214 0 01-.028.054.117.117 0 01-.053.039.487.487 0 01-.095.024.965.965 0 01-.142.01.888.888 0 01-.141-.01.328.328 0 01-.083-.024.076.076 0 01-.04-.04.073.073 0 010-.053l.89-4.419a.13.13 0 01.02-.054.134.134 0 01.053-.042.297.297 0 01.088-.024.956.956 0 01.127-.007.86.86 0 01.122.007.206.206 0 01.075.024.074.074 0 01.034.042.122.122 0 01.003.054l-.18.903a1.237 1.237 0 01.229-.351 2.307 2.307 0 01.392-.355 2.283 2.283 0 01.501-.27 1.482 1.482 0 01.552-.108 1.442 1.442 0 01.513.08.904.904 0 01.343.225.863.863 0 01.196.342 1.716 1.716 0 01.071.437 1.799 1.799 0 01.259-.356 2.406 2.406 0 01.893-.62 1.447 1.447 0 01.547-.108 1.393 1.393 0 01.533.09.906.906 0 01.346.247.92.92 0 01.188.366 1.721 1.721 0 01.056.455 3.122 3.122 0 01-.017.334 3.84 3.84 0 01-.051.335zm5.681-1.675a1.89 1.89 0 01-.164.816 1.679 1.679 0 01-.437.576 1.836 1.836 0 01-.633.342 2.516 2.516 0 01-.749.112 1.783 1.783 0 01-.71-.125 1.046 1.046 0 01-.655-.857 1.974 1.974 0 01.027-.649l.586-2.959a.104.104 0 01.025-.054.15.15 0 01.056-.042.349.349 0 01.095-.024 1.173 1.173 0 01.142-.007 1.11 1.11 0 01.141.007.248.248 0 01.083.024.074.074 0 01.037.042.122.122 0 01.002.054l-.327 1.685a2.47 2.47 0 01.452-.103 3.627 3.627 0 01.51-.034 2.23 2.23 0 01.64.085 1.424 1.424 0 01.478.242 1.038 1.038 0 01.298.376 1.151 1.151 0 01.103.493zm-.586.069a.773.773 0 00-.069-.33.673.673 0 00-.198-.245.907.907 0 00-.314-.151 1.564 1.564 0 00-.415-.05 3.09 3.09 0 00-.537.043 3.288 3.288 0 00-.47.117l-.15.738a1.089 1.089 0 00.1.876.823.823 0 00.705.29 1.58 1.58 0 00.534-.087 1.221 1.221 0 00.428-.257 1.198 1.198 0 00.283-.405 1.344 1.344 0 00.103-.54zm1.802 1.606a.214.214 0 01-.028.054.117.117 0 01-.053.039.486.486 0 01-.095.024.965.965 0 01-.142.01.917.917 0 01-.14-.01.334.334 0 01-.084-.024.076.076 0 01-.04-.04.073.073 0 010-.053l.88-4.419a.104.104 0 01.024-.054.15.15 0 01.056-.042.348.348 0 01.095-.024 1.173 1.173 0 01.142-.007 1.067 1.067 0 01.137.007.248.248 0 01.083.024.089.089 0 01.039.042.108.108 0 01.004.054zM34.978 29.161c0 .043.073.023.087.028-.028-.07-.107-.024-.087-.028z"/><polygon class="cls-1" points="34.697 28.488 34.73 28.495 34.639 28.408 34.697 28.488"/><path class="cls-1" d="M34.569 27.855c-.104.089.091.216.057.344l-.025.025.11.03a4.009 4.009 0 01-.142-.399zm.163-.407c-.042.035-.065-.06.01.083l.007-.018a.412.412 0 01-.017-.065zm.018.065c.024.065.026-.055 0 0zm-.125-.298l.07.074c.022-.027.004-.107.034-.085-.053-.083-.074-.055-.104.011zm-.115-.052l.032.039c.009-.012.01-.025-.033-.04zm.1.122l-.068-.083c-.016.019-.055.033.027.039-.039.004.002.011.04.044zm-.002.06c-.01.057-.008.124-.078.05.069.16.148.11.078-.05zm-.178.513l-.017.072.06.044c-.03-.022-.005-.13-.043-.116zm.08-1.208c-.028.005-.055.054-.086.074l.05.053c.008-.04.002-.109.036-.127zm-.086.074l-.084-.074c.032.083.058.09.084.074z"/><polygon class="cls-1" points="34.369 27.194 34.512 27.318 34.358 27.164 34.369 27.194"/><polygon class="cls-1" points="34.355 26.3 34.437 26.328 34.306 26.273 34.355 26.3"/><path class="cls-1" d="M34.24 26.074c.065.016.056-.09.104-.062a.4.4 0 00-.162-.126.215.215 0 01.057.188zm-.148-.244a.514.514 0 00.09.056.253.253 0 00-.09-.056zm.19.661a.118.118 0 00.04-.1l-.055.064zm-.016-.033l.001-.003-.03-.078zm.02.042l-.004-.009c-.005.007-.006.01.004.01zm.07.423c-.058-.041-.138-.139-.164-.005.062.021.076-.056.164.005zm-.139-.343l.027.103c.018-.01.038-.038.07-.02z"/><polygon class="cls-1" points="34.173 26.544 34.217 26.581 34.207 26.543 34.173 26.544"/><path class="cls-1" d="M34.102 26.026a.278.278 0 01-.1-.12.743.743 0 00.053.174c.026-.002.076.003.047-.054zm.073.212l-.008-.007c-.003.008-.003.014.008.007z"/><polygon class="cls-1" points="33.768 25.404 33.76 25.418 33.773 25.414 33.768 25.404"/><path class="cls-1" d="M34.046 26.095a.09.09 0 00.066.078.52.52 0 01-.057-.093c-.011.001-.018.003-.009.015zm-.051-.391a.531.531 0 00-.006.09c.013-.031.027-.09.006-.09zm.185.504l.006.005c.01-.02.003-.015-.006-.005zm0 0a.262.262 0 00-.068-.035.324.324 0 00.055.058.094.094 0 01.013-.023zm-.932-.714a.137.137 0 01.164.164c.087.065.274-.101.348-.24-.029.012-.055.025-.144-.044-.013.048.03.24-.067.194-.1-.1-.033-.107-.033-.182-.05.09-.2-.086-.3.002l.1.079c-.018.012-.068-.01-.068.027zm.591.106l.025.035a.4.4 0 01.025-.18c-.06-.049-.093-.048-.116-.041a3.04 3.04 0 01.081.194zm.105.21c-.084.003-.155-.075-.205.018.056.11.094.05.156.104-.101-.175.063.034.042-.117a.47.47 0 01.064.09.712.712 0 01-.012-.11l-.002.006c-.006.013-.01.018-.009.007l-.003-.003a.104.104 0 01-.03.004c-.01-.06.014-.017.03-.004l.011-.003.001-.001-.123-.166a.608.608 0 00.08.174zm.059 1.067a.025.025 0 01.014-.012c-.014-.008-.022-.01-.014.012zm.01-.091c.016.01.05.009.062.054-.006.047-.034.014-.058.025.03.018.083.074.092-.025l-.016-.009c-.008-.082.04-.212.055-.203a.54.54 0 00-.135.158zm-.053-.48l-.103-.136-.026.105.035-.02c.025.091.062.053.095.051z"/><polygon class="cls-1" points="33.793 25.369 33.877 25.351 33.725 25.32 33.793 25.369"/><polygon class="cls-1" points="33.674 25.185 33.741 25.158 33.673 25.129 33.674 25.185"/><path class="cls-1" d="M24.56 17.546l-.053-.003a.163.163 0 00.052.003zm.298.163l.025-.027c-.023.009-.036.018-.025.027zm5.599 3.231c-.002-.098.015-.228-.036-.165l-.04.07a.155.155 0 01.076.094zm-3.02-2.022l.002.031.083-.031zm-.233.231l-.043-.095a.316.316 0 00.043.095zm-4.35-2.344l-.082.053c.08.031.06-.02.082-.053zm9.594 6.515a.433.433 0 00-.052-.154c.007.087-.012.176.052.154zm-7.367-6.44c-.034 0-.053.007-.06.023.034.002.056-.003.06-.023zm7.211 6.14l.004.038a.372.372 0 01.1.108c-.005-.065-.025-.129-.104-.146zM16.37 15.242l-.014-.01c-.002.01.005.01.015.01zm-2.019-.732a.514.514 0 01.084-.012.158.158 0 00-.084.011zm18.907 9.897c.028.038.011.002 0 0zm-.151.354a.051.051 0 00-.042.004.064.064 0 01.042-.004zm-1.474-1.806l-.002-.003c-.004.02-.003.016.002.003zm1.63 1.531a.259.259 0 00-.01-.063.27.27 0 00.01.063zm.027-.027l.014.039c.014-.002.019-.01-.014-.04zm-.068-.105a.269.269 0 01.031.069.021.021 0 01.005-.016zm-13.246-8.819l-.007-.01c-.051.02-.031.02.007.01z"/><polygon class="cls-1" points="29.055 20.696 29.061 20.696 29.058 20.69 29.055 20.696"/><path class="cls-1" d="M28.895 20.635c.117-.028.138.006.163.055l.113-.2z"/><path class="cls-1" d="M23.82 17.197l.068.114c-.17.042-.238-.037-.19.099.123-.212.393.171.52-.04l.041.08c-.017-.012-.027 0-.044-.012.072.168.177-.109.326.005.048.046.071.097.018.103l.157.012c.035.023.005.055-.03.033 0 0 .204.081.202.086l-.005.005a.864.864 0 01.177-.034c.03.06-.037.007-.04.041l.133.013c.01.08-.106.081-.172.03-.027.27.116-.001.25.25l-.112-.033c-.008.159.093.162.156.304-.001-.055-.105-.323.037-.306a.14.14 0 00.144.063c-.044.075.025.093.102.135l-.066.095c.096.02.121-.034.196-.049.082.065.053.152.033.228.131.103-.02-.181.158-.096.095.11.202.122.382.152.061.084-.053.05-.042.096l.125-.031c.016.013-.005.032-.016.043.08.01.072-.097.182-.055.097-.086.084.293.28.259.01.047-.054.047-.071.09a1.062 1.062 0 00.377.035l.065.142c-.03-.13.134-.136.276-.136a1.052 1.052 0 00-.013-.129l.183.059c.007.028-.032.049-.085.07l.044-.003c.026.073-.041.106-.117.13l-.01-.096a.357.357 0 00-.19.127.124.124 0 01.066.01c-.02.009-.037.018-.04.03-.002.014.028.004.07-.002l-.045.127.039-.035.139.203a1.25 1.25 0 01.693.06c-.11.03-.108.11-.181.194.021-.142-.192-.09-.288-.19.05.053.005.085-.022.09 0 0 .266.058.262.063-.06.068-.003.088.021.159.078-.172.215.027.326.05-.034.05-.092.082-.175-.009.014.193.267-.049.293.127-.023-.019-.03-.036-.058-.02.087.004.189.148.124.162l-.023-.018c.135.145.453.394.578.3a1.382 1.382 0 01-.173.136l.617-.148c-.113.076-.236.384-.41.331a.231.231 0 00.156.131c-.009-.037.07-.192.113-.173a1.02 1.02 0 00.023.313c-.014-.055.166-.166.216-.107-.03.014-.137.152-.172.147l.275-.01c-.06-.008-.126.117-.137.188.014-.043.112.118.162.14l-.023-.09c.127.173.35-.051.494.109-.049.01-.23.135-.173.229.11-.038.515-.19.71-.106l-.018.066.153.06a4.368 4.368 0 01-.787.074c.022.089-.035.064.052.145-.01.068-.107.012-.134-.01l.168.22c.08-.09.24.067.304-.006l-.303-.13a.372.372 0 01.494.05c-.003.072-.184.117-.211.147.047-.008.18.09.17.123l-.103-.02c.036.113.236.03.234.207.023.04-.031.206.028.165a1.254 1.254 0 01.483-.468 1.455 1.455 0 01.039.358c-.035.127-.272.079-.301.188a.165.165 0 01.106-.009c.01.055-.091.05-.013.12.106-.065.129.169.112-.028.093.056.05.099.132.187.037-.08.28-.087.375-.029a.147.147 0 00-.053.078c.132.165.14.3.258.458-.014.033.012.131-.054.13.034.01.082.006.12.053-.018.158-.091-.1-.143.048.062-.036.17.069.256.113.075-.086-.098-.175-.184-.218a.463.463 0 01.517.068c.127.113-.039.115-.005.126.158.267.374.066.433.339-.021.137-.158.11-.204.166-.108-.088-.067-.201-.124-.273l.027.117c-.051-.017-.123-.076-.128-.131-.025.119.296.427.336.682.049.02.114.065.13.014l-.05-.057c.032-.102.164.065.147-.036.098.058.23.113.265.26l-.082.08c.027-.02.01-.115-.04-.132.073.027-.018.264.14.248l.016-.125c.1.06.267.114.301.242.066-.104-.026-.02.04-.161-.099.147-.162-.29-.242-.096.08-.155-.028-.171.018-.343-.029.022-.037.074-.077-.03a.143.143 0 01-.04-.003v-.008l-.001.008c-.007-.002-.009-.001 0 .002a.136.136 0 01-.02.077c-.099-.003-.183-.152-.249-.179-.017-.064.05 0 .064-.05l-.098-.04c.064-.05.027-.22.144-.114l-.068-.119a.3.3 0 00-.126-.227c-.022-.062-.168-.082-.083-.072l-.165-.145.015-.013c-.114-.178-.359-.273-.38-.556a.49.49 0 01-.17-.2l.041-.061c-.07-.06-.119-.254-.2-.24.084-.193-.253-.365-.33-.508l-.074.054a1.128 1.128 0 00-.27-.23l-.056.059c-.125-.046-.15-.268-.277-.404.031-.012.055.03.063.068-.01-.293-.422-.245-.463-.481a.107.107 0 01-.084-.087l.012.006-.014-.015-.018-.08a.225.225 0 00.01.072.573.573 0 00-.131-.087l.044-.079-.01-.007c-.018-.063-.062-.004-.087.064a.275.275 0 00-.09-.017c.067-.132-.139-.073-.078-.224-.078.025-.24-.166-.368-.076.013-.016.008-.035.03-.014-.032-.058-.065-.116-.135-.124l.057-.1-.204.015c-.017-.104-.017-.156.104-.164-.242-.036-.158-.071-.374-.088l.054-.047c-.049-.039-.186-.032-.175-.1-.014-.192-.5-.458-.687-.787-.081.209-.064-.184-.18-.06.014-.052-.008-.103.065-.103-.176-.069-.17-.224-.355-.19.014-.052.076-.034.079-.069-.019 0-.073 0-.07-.034.003-.035.047-.018.083-.018-.155-.104-.262.008-.36.114-.033-.11-.077-.13-.187-.093.002-.057-.012-.13.09-.075-.047-.043-.276-.29-.348-.2 0-.035-.068-.06-.089-.059a1.68 1.68 0 00-.236-.182l.02.039c-.123.08-.111-.045-.212-.098l.01-.01c-.165-.223-.121-.02-.277-.252l-.036.08c-.122.143-.133-.212-.3-.231l.02.07c-.103.011-.06-.335-.118-.398-.007-.024.038-.007.066-.004-.127-.208-.084.081-.235.019.007-.068.114-.113.027-.18-.021-.071-.37.005-.436-.174.004.058.008.115-.073.107-.103-.048-.176-.318-.344-.23a.05.05 0 010-.042c-.097-.006-.285-.073-.37-.026.067-.301-.549-.115-.422-.36l-.247-.109.018-.022a.284.284 0 00-.31-.03c-.028-.034.009-.045.018-.056a.409.409 0 00-.48-.117l.016-.09c-.073.027-.284-.264-.554-.259a.062.062 0 01.04-.027c-.295-.004-.534-.478-.741-.21l-.197.008c.21.11-.08.12-.008.207-.091-.016-.189-.18-.078-.155l.011.022c.098-.151-.255-.156-.215-.257-.45-.12-.861-.336-1.283-.464l.016.142-.144-.05c-.031-.04-.027-.114.076-.079-.037-.088-.19.01-.2.038-.193-.11.116-.127.054-.148l-.088-.015.016.02c-.083.036-.1.082-.227.05-.076-.04-.024-.086-.055-.097.002-.01-.008-.015-.049-.012l-.188-.045.055.116c-.095.035-.177-.037-.114.094-.09-.2-.692-.187-.76-.256a.58.58 0 01-.387-.001c.032.027.037.147-.084.111.078-.231-.212-.143-.291-.333.078.117-.362.006-.236.177-.103-.026.003-.09-.071-.152-.259.079-.547-.093-.86-.08-.007.031.042.083-.026.126l-.157-.168c-.062.012-.062.18-.17.063.015.028.037.07-.004.077-.607-.225-1.226.16-1.86-.11.089.056.033.066-.03.072.043.012.005.078.017.12l-.268-.103c-.035.122-.275.026-.29.14l.08-.025c-.092.14.182.289.184.461.104-.16.329.207.503-.023.045.033-.032.058-.007.096.043-.076.102-.096.213-.07l-.011.02a3.357 3.357 0 01.782.055l-.027-.084a.225.225 0 01.125.052c.083-.135-.207.005-.132-.142.1.151.523.005.586.209.113.008-.031-.101.082-.093l.028.055.031-.067a.142.142 0 01.11.13c-.017-.006-.051.01-.07.013.093.068.27-.006.303.016l-.107-.039a5.564 5.564 0 00.991-.03l-.018-.042c.237-.061.179.049.43.06l-.01.008a.263.263 0 01.192-.023c-.069.036.105.111.016.149.256-.037.13-.042.315-.161l.027.072a.224.224 0 01.203-.076c-.112.039.062.115-.065.17.233.189.414-.078.492.152.156-.16-.205-.14-.13-.167-.046-.07.125-.118.204-.086.083.019.094.257.303.29-.02-.005-.025.008-.046.004.068.06.168-.04.244.065.078-.093.12.042.168-.093l-.195-.022c.114-.006.255-.139.412-.01a.296.296 0 01-.124.056c.041.056.106.002.148.059-.05.134-.235-.036-.374.038.04.074.239-.04.144.095.13-.168.194.08.37-.025l-.032.08a.224.224 0 01.121-.02l-.102.087c.137-.06.192.141.312.122-.223-.061-.022-.113-.1-.2.31-.031.098.26.416.308-.045 0-.141-.094-.065-.113a.383.383 0 01.144.14c.21.042-.005-.092.098-.118.038.12.113-.012.214-.017l-.026.082c.214.123.122-.162.306-.022l-.125.081.116.012-.054.085c.139-.024.17.008.272.08a.118.118 0 01.17-.106c.051.076-.067.062.08.107-.051.038-.11.088-.144-.011-.016.024-.05.039-.066.062.052.085.179.086.23.106a.12.12 0 01-.048-.041l.249-.031c.02.043-.015.057-.05.07.045.009.088-.017.153 0-.042.06-.066.129-.164.126l.224.004c.002.034.068.118.033.132.091.081.317-.022.44.086a.097.097 0 01.067-.014c.13.066.212.194.404.188l.033.159c.132.035-.05-.204.17-.146.16.036.007.124.041.182.098-.023.28-.077.363.082-.053 0-.079-.035-.123-.047zm1.49.747c-.037-.002-.12.013-.114-.044.082-.066.082-.01.114.044zm2.227 1.256c-.037.008-.059-.025-.073-.077a.138.138 0 01.073.077zm5.395 4.814l-.006-.001c-.015-.08-.01-.05.006 0zm.057.148a.025.025 0 00.035-.012c-.024.002-.044-.027-.062-.062-.014.022-.013.045.027.074zm-13.346-9.315l.025.028c-.073.012-.049-.006-.025-.028z"/><path class="cls-1" d="M27.232 19.123a.114.114 0 01.017-.047c-.019.004-.03.018-.017.047z"/><polygon class="cls-1" points="22.87 16.795 22.865 16.793 22.854 16.805 22.87 16.795"/><path class="cls-1" d="M30.978 22.71a.126.126 0 01-.004-.074c-.018.012-.022.035.004.074zm2.557 2.093l-.07-.076a.125.125 0 01.021.093c.017-.012.032-.043.05-.017zm-.055 1.009c.015.008.013.027.029.035l.034-.022c-.027-.054-.074-.078-.063-.013zm-.149-.785c-.06.043-.006.084.04.137l-.006-.01c.1-.033.033-.08-.034-.127zm.051.15a.205.205 0 01.034.054c.04-.013-.006-.027-.034-.054zm-.252-.869c.001.038.09-.032.074 0 .098-.017-.208-.132-.074 0z"/><polygon class="cls-1" points="33.15 25.194 33.216 25.128 33.133 25.131 33.15 25.194"/><path class="cls-1" d="M32.933 24.693l.034.107c.013-.009.027-.001.042.01-.032-.06-.054-.134-.076-.117zm.076.117a.143.143 0 00.057.069.318.318 0 00-.057-.07z"/><polygon class="cls-1" points="33.051 25.078 33.051 25.041 33.017 24.971 33.051 25.078"/><path class="cls-1" d="M32.296 23.7l-.09-.083c-.033.009-.03.046.007.075.034.011.07.04.083.008zm.006.434c-.004-.036.012-.05.026-.081l-.095.06zm-.222-.266c-.032.009-.172-.087-.08.03.032-.008.122.074.08-.03z"/><polygon class="cls-1" points="31.095 22.373 31.115 22.395 31.252 22.273 31.095 22.373"/><path class="cls-1" d="M29.712 21.518c.066.13.104-.056.153.072.054-.008-.04-.105.01-.107-.091-.028-.104-.077-.163.035zm.164-.035a.288.288 0 00.05.01.132.132 0 00-.05-.01z"/><polygon class="cls-1" points="14.001 14.432 13.904 14.4 13.971 14.458 14.001 14.432"/><path class="cls-1" d="M13.838 14.579l-.035-.115-.043.109c.02-.007.06-.02.078.006zm11.56 3.696l.02-.02c.004-.033-.012-.046-.045-.072z"/><polygon class="cls-1" points="24.404 17.596 24.422 17.608 24.437 17.497 24.404 17.596"/><path class="cls-1" d="M23.447 17.262c.034.022.087.023.122.046-.088-.023-.075-.17-.122-.046zm-5.371-6.125c.012-.008-.025-.034-.03-.04-.008.024.039.048.03.04z"/><polygon class="cls-1" points="17.98 11.396 17.969 11.38 17.976 11.439 17.98 11.396"/><path class="cls-1" d="M17.812 11.571c.072.038.051-.072.101-.085l.018.007-.032-.057c-.029.045-.046.124-.087.135zm-.21-.024c.027.015-.001.038.027-.015l-.009-.001a.09.09 0 01-.018.016zm.018-.017c.016-.019-.03-.005 0 0zm-.07.097l.005-.043c-.018-.008-.041.01-.043-.006-.013.035.004.042.038.049zm.018.062l.004-.02c-.007-.003-.012-.002-.004.02z"/><path class="cls-1" d="M17.581 11.626l-.009.043c.013.005.03.022.006-.018.014.018.004-.003.003-.025zm.023-.007c.025-.002.05-.012.045.031.038-.054-.008-.085-.045-.031zm.256.017l.034-.003-.003-.034c.002.017-.049.02-.03.037zm-.486.109c.01.014.039.024.056.037l.004-.031c-.017 0-.042.01-.06-.006zm.056.037l-.007.046c.026-.021.02-.035.007-.046z"/><polygon class="cls-1" points="17.625 11.754 17.625 11.669 17.617 11.763 17.625 11.754"/><polygon class="cls-1" points="17.272 11.843 17.261 11.801 17.274 11.868 17.272 11.843"/><path class="cls-1" d="M17.21 11.912c-.012-.033-.053-.023-.055-.049a.146.146 0 00-.009.088c.006-.025.024-.037.063-.039zm-.063.087a.204.204 0 000-.048.112.112 0 000 .048zm.225-.132a.07.07 0 00-.053-.013l.043.023zm-.009.01h-.001l-.025.02zm.012-.013l-.003.003c.005.002.006.002.003-.003zm.151-.071c.002.034-.01.085.048.082-.01-.033-.044-.031-.048-.082zm-.098.1l.036-.02c-.01-.009-.027-.016-.028-.033z"/><polygon class="cls-1" points="17.425 11.917 17.428 11.893 17.415 11.9 17.425 11.917"/><path class="cls-1" d="M17.226 11.984a.078.078 0 01-.024.057.182.182 0 00.059-.037c-.008-.013-.019-.038-.035-.02zm.069-.049v.004c.004.002.006.001 0-.004z"/><polygon class="cls-1" points="17.051 12.183 17.059 12.187 17.054 12.18 17.051 12.183"/><path class="cls-1" d="M17.27 12.007c.018-.005.018-.02.015-.037a.126.126 0 01-.024.034c.003.005.006.009.009.003zm-.15.047a.179.179 0 00.04-.001c-.017-.005-.046-.01-.04.001zm.161-.12v-.003c-.01-.003-.006 0 0 .003zm0 0a.123.123 0 00.004.036.093.093 0 00.01-.03zm-.075.509c-.026-.033-.02-.093.04-.086.006-.05-.109-.135-.187-.17.012.014.024.027.012.072.026.008.101-.019.104.032-.024.051-.042.018-.076.018.052.025.004.102.065.152l.016-.051c.008.008.01.034.026.033zm-.089-.303l.008-.015a.154.154 0 01-.08-.005.072.072 0 00.01.06l.061-.049z"/><path class="cls-1" d="M17.177 12.075c.023.042.009.083.06.104.032-.035-.003-.052.004-.086-.047.061-.002-.034-.06-.015a.12.12 0 01.021-.037.216.216 0 01-.043.012h.004c.006.003.01.005.005.005v.001l.009.016c-.023.008-.011-.007-.01-.016l-.004-.005-.038.07a.146.146 0 00.052-.05zm.439-.099l-.01-.006c.001.007.002.011.01.006zm-.042.002c-.001-.009-.01-.025.005-.035.021 0 .016.016.027.027 0-.017.004-.051-.036-.043v.008a.157.157 0 01-.102-.011.416.416 0 00.106.054zm-.192.06l-.03.06.051.007-.018-.017c.033-.018.006-.034-.003-.05z"/><polygon class="cls-1" points="17.03 12.171 17.002 12.129 17.023 12.205 17.03 12.171"/><polygon class="cls-1" points="16.973 12.231 16.946 12.198 16.948 12.231 16.973 12.231"/><path class="cls-1" d="M14.478 15l.016-.003zm-.041-.03l-.025.01a.114.114 0 00.025-.01zm.985-1.444c-.046-.016-.107-.049-.076-.012l.035.033a.041.041 0 01.041-.021z"/><polygon class="cls-1" points="14.424 14.537 14.438 14.545 14.43 14.497 14.424 14.537"/><path class="cls-1" d="M14.508 14.713c-.004.002-.037-.013-.037-.013.012.005.016.015.037.013zm.551.657l.048-.022c-.028-.022-.031.006-.048.023zm1.293-2.567a.122.122 0 00-.062.016c.038.002.082.018.062-.016zm-2.369 2.471a.064.064 0 00.05-.003c-.024-.005-.042-.005-.05.003zm2.255-2.412h.017a.096.096 0 01.035-.043c-.03-.002-.055.004-.052.043zm.646 4.606l-.001.009c.005-.003.004-.006 0-.009zm.02.921a.116.116 0 01-.019-.025c0 .006.005.014.019.025zm-.19-5.951c.011-.013-.001-.005 0 0zm.188.082a.04.04 0 00.01.022.051.051 0 01-.01-.022zm-.612.68h-.002c.01.004.008.003.001 0zm.458-.763a.08.08 0 00-.026.004.079.079 0 00.026-.004zm-.018-.014l.015-.007c-.003-.007-.008-.01-.014.007zm-.032.033a.068.068 0 01.024-.015.012.012 0 01-.008-.003zm-.824 3.927l-.001.006c.027 0 .019-.004 0-.006z"/><polygon class="cls-1" points="15.333 14.19 15.333 14.187 15.33 14.187 15.333 14.19"/><path class="cls-1" d="M15.3 14.256c-.01-.063.006-.067.03-.069l-.094-.098z"/><path class="cls-1" d="M14.692 15.131l-.014-.06c.088-.025.108.018.106-.055-.092.115-.16-.092-.25.025-.003-.002-.004-.04.001-.037.003.003.004-.006.01 0 .025-.068-.077.076-.098.036a.04.04 0 01.03-.04l-.052.009c-.004-.006.023-.019.026-.014l-.044-.013.005-.002a.677.677 0 01-.11.017c.014-.015.024-.003.044-.012h-.07a.18.18 0 01.113-.012c.17-.063-.065.003.02-.042l.04.002a.812.812 0 01.143-.033c-.051 0-.186.037-.256.037.011-.006.015-.01-.045-.012.086-.008.057-.01.04-.017l.125-.004-.175-.006a.97.97 0 01.204-.005c.034-.006-.172 0-.173-.014.066-.007.024-.015-.007-.045.05-.001.059.015.093.018l-.065-.026a.152.152 0 01.038.009c-.017-.015-.093-.025-.093-.047-.08-.041.175.027.106-.032.025.008.037.027.065.042a.754.754 0 01-.035-.115l.057.017a.138.138 0 01-.047-.163.498.498 0 00-.06-.031l.042-.07c.013.006.02.03.024.06l.003-.02c.035.008.045.049.05.091l-.045-.022a.295.295 0 00.041.126.049.049 0 01.01-.029.049.049 0 00.011.028c.006.005.004-.012.005-.034l.054.057-.012-.028.105-.008c.017-.102.005-.23.078-.312.008.061.045.08.08.138-.063-.045-.054.069-.109.086.029-.009.04.021.04.035l.05-.107c.027.047.04.024.074.029-.075-.08.022-.102.037-.152.022.029.034.065-.011.085.09.038-.012-.145.07-.117-.01.008-.018.007-.012.025.006-.043.076-.06.08-.024l-.009.007c.073-.033.202-.134.16-.216a1.17 1.17 0 01.06.115l-.061-.335c.035.072.182.198.154.273a.064.064 0 00.065-.05c-.017-.002-.092-.075-.082-.092.09.044.055.02.147.046-.026-.003-.08-.116-.053-.131.007.018.073.098.071.115l-.009-.143c-.002.029.058.086.092.103-.02-.014.055-.036.064-.058l-.043-.004c.08-.036-.032-.187.04-.232.007.026.072.14.115.126a.925.925 0 01-.08-.376l.033.02.02-.068a2.14 2.14 0 01.071.41c.042.003.032.028.069-.004.033.016.01.056 0 .067l.102-.052c-.048-.055.024-.11-.016-.156l-.052.134c-.047-.055-.068-.207.002-.244.034.01.067.111.083.13-.007-.027.03-.084.047-.074l-.003.05c.053-.005-.001-.12.084-.097.017-.007.1.04.076.004a1.114 1.114 0 01-.26-.306.646.646 0 01.164.022c.064.032.062.15.116.177a.109.109 0 01-.013-.056c.025 0 .032.053.06.02-.042-.062.07-.049-.025-.061.019-.042.044-.016.08-.048a.23.23 0 01-.052-.195.128.128 0 00.043.035 1.993 1.993 0 00.185-.1c.016.01.059.002.067.036 0-.017-.008-.043.01-.06.076.02-.035.043.041.079-.025-.035.01-.086.018-.128-.05-.044-.068.04-.077.083a.274.274 0 01-.041-.265c.034-.058.06.027.06.01.102-.066-.027-.186.09-.203.069.018.078.086.113.112-.025.051-.085.026-.11.05l.051-.007c0 .025-.017.059-.042.058.06.02.16-.127.261-.152 0-.026.008-.06-.018-.068l-.016.025c-.052-.017-.002-.085-.045-.077.008-.05.006-.118.065-.135l.053.042c-.014-.013-.054-.005-.052.02-.002-.036.124.01.084-.071l-.06-.008c.007-.052-.005-.136.045-.154-.06-.033-.003.013-.08-.02.086.05-.095.082.008.123-.086-.042-.07.013-.156-.012.015.015.04.02.002.039l.006.02h-.003l.004.001c0 .004 0 .005 0 0a.075.075 0 01.039.011c.018.051-.032.093-.031.128-.025.008-.01-.026-.035-.035l.001.051c-.034-.034-.101-.017-.078-.077l-.04.033a.079.079 0 00-.084.051c-.025.008-.011.081-.02.039l-.042.074-.008-.008c-.065.046-.073.167-.2.159a.122.122 0 01-.067.074l-.033-.027c-.018.033-.107.032-.09.076-.1-.065-.146.085-.205.107l.032.045a.302.302 0 00-.083.11l.033.036c-.011.059-.113.042-.166.09-.007-.019.01-.025.027-.024-.133-.036-.093.171-.202.154a.03.03 0 01-.037.028l.002-.005-.006.004-.037-.005a.094.094 0 00.033.008.16.16 0 00-.036.05l-.038-.037-.003.004c-.03-.003 0 .03.033.055a.118.118 0 00-.005.042c-.064-.058-.03.056-.102-.002.014.044-.07.09-.026.172-.008-.009-.016-.01-.007-.017-.026.005-.052.011-.055.045l-.046-.048.008.104c-.05-.014-.074-.025-.077-.086-.018.11-.035.06-.045.162l-.022-.037c-.019.014-.017.082-.05.061-.089-.038-.223.137-.377.149.09.092-.084-.015-.035.07-.023-.02-.048-.025-.044-.058-.042.06-.112.014-.109.109-.022-.021-.01-.045-.026-.056-.001.008-.005.033-.02.022s-.005-.027-.003-.044c-.056.042-.014.124.027.2-.052-.016-.064-.002-.057.06-.028-.015-.065-.027-.026-.063-.018.008-.218.084-.161.13a.042.042 0 00-.046.03.797.797 0 00-.14.074l.03-.004c.072.055-.027.037-.065.07l-.01-.004c-.2.045-.003.035-.224.082l.09.008c.177.028-.206.042-.204.09l.08-.012c.032.012-.105.021-.162.037-.06.014-.125.034-.115.048-.008.007-.044-.008-.072-.016.001.077.141.006.25.052-.047.014-.182 0-.133.037-.007.03.353.072.327.138a.095.095 0 01.106-.027c.058.023.033.143.178.127a.023.023 0 01-.01.02c.068.013.172.064.224.043-.053.18.227.05.136.187l.087.053-.013.012c.044.049.086.031.129.014.005.018-.013.024-.02.03.055.085.065.084.18.07l-.027.047c.038-.012.052.15.162.166a.044.044 0 01-.024.01c.121.024.087.275.248.158l.082.014c-.054-.074.068-.052.064-.102.034.017.026.108-.013.084l.002-.011c-.082.062.055.104.005.152a4.024 4.024 0 01.317.409l.045-.068.037.046c-.004.023-.033.056-.058.024-.019.046.075.025.088.015.03.082-.09.037-.074.058l.026.02.002-.011c.042-.001.07-.022.099.019.008.034-.026.044-.02.055-.005.004-.004.009.01.016l.042.06.028-.063c.045.004.043.054.075-.017-.05.107.146.233.137.28a.156.156 0 01.122.09c.001-.019.051-.069.075-.026-.126.075.005.108-.056.203.035-.07.095.098.141-.004.014.04-.042.035-.051.08.102.042.094.189.176.274.016-.01.03-.042.067-.038l-.043.105c.02.014.103-.044.072.028.01-.014.025-.035.039-.026.05.242.325.356.291.646.016-.046.03-.03.043-.01 0-.017.041-.023.062-.038l-.014.12c.071-.02.054.088.119.064l-.026-.021c.091-.002.13-.137.223-.183-.103.005.057-.178-.098-.179.01-.025.037-.004.053-.024-.049.005-.069-.01-.075-.059l.012-.001a1.054 1.054 0 01-.115-.304l-.038.036a.091.091 0 01.002-.062c-.084.014.043.074-.046.093.066-.09-.115-.177-.032-.265-.025-.04-.041.044-.066.005l.02-.028-.041.013c-.012-.028.012-.064.034-.08.001.008.018.013.025.018.008-.054-.075-.084-.073-.102l.01.048c-.096-.088-.153-.238-.28-.297l-.013.022c-.092-.048-.023-.076-.101-.145l.007-.001a.09.09 0 01-.074-.039c.038.003.013-.072.059-.065-.101-.05-.061-.016-.173-.012l.022-.037c-.043.005-.059.016-.098-.018.053.011.027-.064.092-.056.001-.14-.17-.065-.104-.186-.116.034.014.11-.023.105-.013.04-.09.022-.103-.01-.02-.027.071-.136.013-.2.005.006.012.001.017.008 0-.043-.07-.023-.061-.084-.065.028-.031-.041-.1.012l.067.046c-.046-.02-.149.016-.162-.07a.154.154 0 01.068-.004c.004-.033-.041-.02-.037-.053.067-.053.08.058.16.05.012-.042-.108-.026-.022-.07-.111.054-.048-.073-.154-.055l.04-.032c-.012-.001-.043.001-.054-.012l.07-.023c-.074.004-.026-.102-.08-.114.067.07-.03.058-.03.114-.13-.038.053-.144-.06-.221.019.007.027.069-.01.065a.156.156 0 01-.013-.092c-.07-.054-.027.047-.077.043.023-.065-.048-.012-.09-.025l.037-.037c-.048-.094-.095.06-.13-.032l.077-.026-.047-.02.048-.035c-.067-.004-.07-.024-.095-.071-.016.035-.069.065-.103.037-.002-.043.046-.025-.006-.061.033-.015.072-.035.06.019l.046-.026c0-.048-.056-.06-.073-.075a.04.04 0 01.01.025l-.117-.006c.003-.025.022-.029.04-.033-.017-.008-.043.002-.066-.013.033-.027.061-.061.103-.05l-.096-.023c.007-.018 0-.068.018-.073-.022-.05-.141-.018-.172-.081a.043.043 0 01-.033.002c-.041-.045-.051-.12-.144-.118l.014-.085c-.054-.021-.015.11-.106.075-.066-.021.02-.067.015-.098-.05.009-.14.038-.155-.046.025 0 .031.018.05.024zm-.357-.194c.023.001.08-.003.038.007-.091.013-.056.001-.038-.007zm.225-.367c.001.02-.016.02-.04.013a.04.04 0 01.04-.013zm2.04-1.973v.003c-.035.004-.022.003 0-.003zm.058-.022a.02.02 0 00-.012-.018c.006.012-.004.022-.017.029.012.008.024.01.03-.011zm-.923 4.183l.003-.018c.028.01.013.013-.003.018z"/><path class="cls-1" d="M14.499 14.692a.094.094 0 01-.02-.021.02.02 0 00.02.021z"/><polygon class="cls-1" points="15.05 15.375 15.051 15.377 15.059 15.371 15.05 15.375"/><path class="cls-1" d="M16.232 13.51a.06.06 0 01-.036-.006.024.024 0 00.036.006zm.601-1.21l-.019.036c.012-.014.025-.01.037-.01-.009-.009-.026-.017-.018-.026zm.462.014c0-.009.008-.01.008-.018l-.018-.016c-.016.017-.015.043.01.034zm-.319.091c.031.03.039.003.053-.021l-.003.003c-.036-.05-.043-.016-.05.018zm.057-.026a.05.05 0 01.017-.018c-.014-.02-.01.003-.017.018zm-.338.124c.017 0-.031-.047-.014-.038-.027-.051-.018.106.014.038z"/><polygon class="cls-1" points="17.089 12.497 17.045 12.464 17.064 12.506 17.089 12.497"/><path class="cls-1" d="M16.905 12.61l.042-.017a.02.02 0 01-.004-.022c-.02.016-.05.028-.038.039zm.038-.039a.04.04 0 00.02-.03.087.087 0 00-.02.03z"/><polygon class="cls-1" points="17.057 12.549 17.04 12.549 17.015 12.567 17.057 12.549"/><path class="cls-1" d="M16.551 12.905l-.026.042c.009.017.026.018.034 0 0-.016.01-.033-.008-.042zm.205.021c-.017 0-.025-.01-.043-.018l.043.052zm-.094.1c.008.018-.018.086.025.043-.008-.017.018-.059-.025-.043z"/><polygon class="cls-1" points="16.06 13.412 16.069 13.404 15.999 13.318 16.06 13.412"/><path class="cls-1" d="M15.721 14.003c.062-.012-.03-.063.031-.066-.004-.029-.049.003-.052-.023-.01.041-.034.04.021.089zm-.021-.089l.005-.024a.058.058 0 00-.005.024z"/><polygon class="cls-1" points="16.914 18.528 16.91 18.569 16.933 18.532 16.914 18.528"/><path class="cls-1" d="M17.018 18.547l-.059.04.065-.013c-.006-.005-.018-.015-.006-.027zm-2.474-3.645l-.03.001a.16.16 0 00-.034.005z"/><polygon class="cls-1" points="14.544 14.962 14.543 14.96 14.499 15.007 14.544 14.962"/><path class="cls-1" d="M14.877 15.1c-.012-.012-.037-.014-.049-.026.037.014.005.093.05.027z"/></svg>