<svg id="Слой_1" data-name="Слой 1" xmlns="http://www.w3.org/2000/svg" viewBox="0 0 80 50" width="80" height="50"><defs><style>.cls-1{fill:#fff}</style></defs><path class="cls-1" d="M16.67 26.641a.136.136 0 01-.021.054.112.112 0 01-.052.04.444.444 0 01-.088.024.688.688 0 01-.127.01.613.613 0 01-.122-.01.287.287 0 01-.075-.025.075.075 0 01-.037-.039.078.078 0 010-.054l.17-.888a1.24 1.24 0 01-.229.35 2.308 2.308 0 01-.903.614 1.593 1.593 0 01-.561.105 1.5 1.5 0 01-.55-.088.914.914 0 01-.356-.241.926.926 0 01-.193-.367 1.743 1.743 0 01-.059-.466 2.714 2.714 0 01.02-.322c.013-.11.03-.223.054-.337l.551-2.779a.117.117 0 01.025-.053.143.143 0 01.056-.041.342.342 0 01.095-.026c.04-.004.087-.007.142-.007a1.266 1.266 0 01.136.007.242.242 0 01.083.026.08.08 0 01.04.04.099.099 0 01.004.054l-.551 2.779a3.23 3.23 0 00-.047.29 2.692 2.692 0 00-.017.305 1.285 1.285 0 00.032.295.615.615 0 00.107.235.492.492 0 00.196.154.715.715 0 00.295.054 1.242 1.242 0 00.59-.16 2.047 2.047 0 00.555-.44 3.026 3.026 0 00.454-.677 3.5 3.5 0 00.296-.862l.395-1.973a.117.117 0 01.024-.053.143.143 0 01.057-.041.342.342 0 01.095-.026c.039-.004.086-.007.141-.007a1.318 1.318 0 01.142.007.242.242 0 01.083.026.07.07 0 01.037.04.116.116 0 01.002.054zm5.906-3.974a.761.761 0 01-.012.136.585.585 0 01-.037.125.248.248 0 01-.063.09.131.131 0 01-.088.034.209.209 0 01-.14-.078 1.578 1.578 0 00-.205-.173 1.398 1.398 0 00-.33-.173 1.433 1.433 0 00-.512-.078 1.289 1.289 0 00-.605.138 1.593 1.593 0 00-.457.362 2.117 2.117 0 00-.322.505 3.646 3.646 0 00-.208.575 4.185 4.185 0 00-.112.56 3.818 3.818 0 00-.034.472 1.293 1.293 0 00.244.854.887.887 0 00.718.288 1.772 1.772 0 00.58-.085 2.107 2.107 0 00.413-.191 2.968 2.968 0 00.276-.19.316.316 0 01.18-.085.067.067 0 01.057.03.171.171 0 01.022.097.84.84 0 01-.007.102 1.118 1.118 0 01-.022.12.67.67 0 01-.04.114.39.39 0 01-.082.113 1.236 1.236 0 01-.208.151 2.094 2.094 0 01-.344.17 2.82 2.82 0 01-.425.123 2.292 2.292 0 01-.473.049 1.505 1.505 0 01-1.13-.388 1.615 1.615 0 01-.374-1.16 4.587 4.587 0 01.05-.652 4.302 4.302 0 01.17-.713 4.08 4.08 0 01.302-.695 2.517 2.517 0 01.454-.598 2.087 2.087 0 01.625-.418 2.008 2.008 0 01.816-.156 2.21 2.21 0 01.37.03 2.182 2.182 0 01.34.089 1.43 1.43 0 01.293.142 1.39 1.39 0 01.21.157.387.387 0 01.093.11.255.255 0 01.017.097zm7.136 3.974a.136.136 0 01-.022.054.113.113 0 01-.054.04.494.494 0 01-.095.024.842.842 0 01-.142.01.79.79 0 01-.142-.01.336.336 0 01-.083-.025.074.074 0 01-.039-.039.078.078 0 010-.054l.552-2.773.044-.293a1.871 1.871 0 00.02-.269 1.012 1.012 0 00-.14-.569.532.532 0 00-.476-.207 1.155 1.155 0 00-.566.161 2.163 2.163 0 00-.544.446 3.091 3.091 0 00-.455.682 3.404 3.404 0 00-.29.864l-.39 1.958a.213.213 0 01-.028.054.113.113 0 01-.053.04.494.494 0 01-.096.024.842.842 0 01-.141.01.756.756 0 01-.137-.01.336.336 0 01-.083-.025.074.074 0 01-.039-.039.099.099 0 01-.005-.054l.552-2.773a2.065 2.065 0 00.051-.315c.009-.103.012-.196.012-.28a.925.925 0 00-.141-.543.539.539 0 00-.474-.2 1.155 1.155 0 00-.566.161 2.164 2.164 0 00-.545.446 3.09 3.09 0 00-.454.682 3.404 3.404 0 00-.29.864l-.386 1.958a.213.213 0 01-.027.054.113.113 0 01-.054.04.494.494 0 01-.095.023.842.842 0 01-.141.01.79.79 0 01-.142-.01.336.336 0 01-.083-.024.074.074 0 01-.039-.039.078.078 0 010-.054l.889-4.419a.136.136 0 01.022-.053.122.122 0 01.05-.041.304.304 0 01.089-.026 1.162 1.162 0 01.127-.007 1.028 1.028 0 01.122.007.207.207 0 01.076.026.07.07 0 01.034.04.116.116 0 01.002.054l-.18.904a1.259 1.259 0 01.229-.352 2.284 2.284 0 01.393-.353 2.253 2.253 0 01.5-.272 1.504 1.504 0 01.552-.107 1.46 1.46 0 01.513.08.917.917 0 01.344.224.881.881 0 01.196.342 1.73 1.73 0 01.07.438 1.85 1.85 0 01.26-.357 2.416 2.416 0 01.893-.62 1.468 1.468 0 01.547-.107 1.39 1.39 0 01.532.09.903.903 0 01.347.247.94.94 0 01.188.366 1.742 1.742 0 01.056.454 3.273 3.273 0 01-.017.335q-.017.163-.052.334zm6.378-2.964a4.16 4.16 0 01-.068.743 3.778 3.778 0 01-.207.725 3.336 3.336 0 01-.35.655 2.496 2.496 0 01-.49.53 2.234 2.234 0 01-.633.36 2.196 2.196 0 01-.776.132 2.34 2.34 0 01-.774-.112 1.338 1.338 0 01-.525-.325 1.29 1.29 0 01-.3-.517 2.305 2.305 0 01-.095-.687 4.16 4.16 0 01.068-.742 3.71 3.71 0 01.208-.722 3.393 3.393 0 01.349-.655 2.433 2.433 0 01.49-.532 2.3 2.3 0 01.633-.356 2.196 2.196 0 01.776-.132 2.34 2.34 0 01.774.112 1.318 1.318 0 01.525.325 1.273 1.273 0 01.3.515 2.276 2.276 0 01.095.683zm-.615.03a1.842 1.842 0 00-.058-.484.84.84 0 00-.542-.593 1.671 1.671 0 00-1.106.029 1.645 1.645 0 00-.47.299 1.967 1.967 0 00-.36.441 2.807 2.807 0 00-.254.545 3.518 3.518 0 00-.15.6 3.92 3.92 0 00-.048.613 1.842 1.842 0 00.059.483.883.883 0 00.192.365.867.867 0 00.35.228 1.655 1.655 0 001.106-.03 1.587 1.587 0 00.468-.299 2.03 2.03 0 00.362-.444 2.807 2.807 0 00.254-.545 3.52 3.52 0 00.148-.598 3.865 3.865 0 00.05-.61zm4.861 2.934a.117.117 0 01-.025.054.132.132 0 01-.056.04.493.493 0 01-.093.024.835.835 0 01-.144.01.756.756 0 01-.136-.01.336.336 0 01-.083-.025.074.074 0 01-.04-.039.078.078 0 010-.054l.489-2.436a2.304 2.304 0 01-.276.296 2.097 2.097 0 01-.369.265 2.361 2.361 0 01-.437.194 1.545 1.545 0 01-.476.075 1.187 1.187 0 01-.867-.283 1.12 1.12 0 01-.285-.83 2.81 2.81 0 01.02-.316c.012-.115.03-.226.053-.334l.21-1.05a.117.117 0 01.024-.053.143.143 0 01.057-.041.337.337 0 01.092-.026 1.399 1.399 0 01.144-.007 1.266 1.266 0 01.137.007.242.242 0 01.083.026.08.08 0 01.04.04.099.099 0 01.004.054l-.24 1.177a2.362 2.362 0 00-.03.3l-.003.081a.943.943 0 00.146.574.552.552 0 00.469.193 1.289 1.289 0 00.6-.154 2.016 2.016 0 00.538-.418 2.724 2.724 0 00.424-.62 2.874 2.874 0 00.26-.762l.068-.37a.117.117 0 01.024-.054.143.143 0 01.056-.041.342.342 0 01.095-.026c.04-.004.087-.007.142-.007a1.318 1.318 0 01.141.007.242.242 0 01.083.026.07.07 0 01.037.04.116.116 0 01.003.054zm5.694 0a.117.117 0 01-.024.054.132.132 0 01-.056.04.493.493 0 01-.092.024.835.835 0 01-.144.01.756.756 0 01-.137-.01.336.336 0 01-.083-.025.074.074 0 01-.04-.039.078.078 0 010-.054l.406-2.046h-2.407l-.406 2.046a.213.213 0 01-.026.054.113.113 0 01-.054.04.494.494 0 01-.095.024.842.842 0 01-.142.01.79.79 0 01-.141-.01.336.336 0 01-.083-.025.074.074 0 01-.04-.039.078.078 0 010-.054l.88-4.419a.136.136 0 01.021-.053.122.122 0 01.054-.041.342.342 0 01.095-.026c.04-.004.088-.007.147-.007a1.266 1.266 0 01.136.007.242.242 0 01.083.026.07.07 0 01.037.04.116.116 0 01.003.054l-.372 1.875h2.413l.37-1.875a.136.136 0 01.023-.053.122.122 0 01.053-.041.342.342 0 01.096-.026c.039-.004.086-.007.141-.007a1.318 1.318 0 01.142.007.242.242 0 01.083.026.07.07 0 01.036.04.116.116 0 01.003.054zm5.57 0a.136.136 0 01-.023.054.112.112 0 01-.051.04.444.444 0 01-.088.024.688.688 0 01-.127.01.613.613 0 01-.122-.01.287.287 0 01-.076-.025.075.075 0 01-.036-.039.078.078 0 010-.054l.17-.888a1.24 1.24 0 01-.229.35 2.308 2.308 0 01-.903.614 1.593 1.593 0 01-.562.105 1.5 1.5 0 01-.549-.088.914.914 0 01-.356-.241.926.926 0 01-.193-.367 1.743 1.743 0 01-.059-.466 2.716 2.716 0 01.02-.322c.013-.11.03-.223.053-.337l.552-2.779a.117.117 0 01.024-.053.144.144 0 01.057-.041.342.342 0 01.095-.026c.039-.004.086-.007.141-.007a1.266 1.266 0 01.137.007.242.242 0 01.083.026.08.08 0 01.04.04.099.099 0 01.004.054l-.552 2.779a3.23 3.23 0 00-.046.29 2.692 2.692 0 00-.017.305 1.285 1.285 0 00.032.295.615.615 0 00.107.235.492.492 0 00.195.154.715.715 0 00.296.054 1.242 1.242 0 00.59-.16 2.047 2.047 0 00.555-.44 3.025 3.025 0 00.454-.677 3.5 3.5 0 00.295-.862l.396-1.973a.117.117 0 01.024-.053.143.143 0 01.056-.041.342.342 0 01.096-.026c.039-.004.086-.007.141-.007a1.318 1.318 0 01.142.007.242.242 0 01.083.026.07.07 0 01.036.04.116.116 0 01.003.054zm5.436-.009a.117.117 0 01-.012.053.107.107 0 01-.047.044.3.3 0 01-.093.03 1.196 1.196 0 01-.305 0 .378.378 0 01-.088-.025.1.1 0 01-.046-.039.158.158 0 01-.02-.054l-.268-1.216a1.774 1.774 0 00-.134-.39.736.736 0 00-.506-.405 1.703 1.703 0 00-.41-.044h-.39l-.416 2.09a.068.068 0 01-.026.036.18.18 0 01-.064.029.495.495 0 01-.095.02.77.77 0 01-.122.007.726.726 0 01-.12-.008.392.392 0 01-.088-.02.128.128 0 01-.053-.028.036.036 0 01-.013-.037l.899-4.492a.046.046 0 01.024-.036.191.191 0 01.064-.027.962.962 0 01.095-.018 1.195 1.195 0 01.124-.007 1.049 1.049 0 01.12.007.781.781 0 01.086.018.115.115 0 01.05.027.036.036 0 01.013.036l-.38 1.92h.38a1.409 1.409 0 00.376-.052 1.331 1.331 0 00.344-.156 1.627 1.627 0 00.31-.263 2.136 2.136 0 00.274-.38l.615-1.02a.28.28 0 01.049-.061.221.221 0 01.075-.043.507.507 0 01.11-.026c.043-.004.095-.007.157-.007a1.196 1.196 0 01.134.007.467.467 0 01.078.018.059.059 0 01.034.024.077.077 0 01.008.034.185.185 0 01-.015.07.537.537 0 01-.049.092l-.708 1.113a2.358 2.358 0 01-.544.605 1.621 1.621 0 01-.271.173 1.4 1.4 0 01-.25.1v.01a1.085 1.085 0 01.272.125 1.073 1.073 0 01.227.2 1.313 1.313 0 01.18.278 1.749 1.749 0 01.127.364l.288 1.216a.287.287 0 01.015.054.309.309 0 01.005.054zM12.495 35.83a.117.117 0 01-.012.054.107.107 0 01-.047.044.3.3 0 01-.093.029 1.196 1.196 0 01-.305 0 .377.377 0 01-.088-.025.1.1 0 01-.046-.039.158.158 0 01-.02-.053l-.268-1.216a1.775 1.775 0 00-.134-.39.736.736 0 00-.506-.406 1.703 1.703 0 00-.41-.044h-.39l-.416 2.09a.068.068 0 01-.026.036.179.179 0 01-.064.03.496.496 0 01-.095.019.77.77 0 01-.122.008.727.727 0 01-.12-.008.392.392 0 01-.088-.02.128.128 0 01-.053-.03.036.036 0 01-.013-.035l.899-4.492a.046.046 0 01.024-.037.192.192 0 01.064-.027.755.755 0 01.095-.017 1.198 1.198 0 01.124-.007 1.051 1.051 0 01.12.007.781.781 0 01.085.017.115.115 0 01.052.027.036.036 0 01.012.037l-.38 1.919h.38a1.409 1.409 0 00.376-.051 1.331 1.331 0 00.344-.157 1.626 1.626 0 00.31-.263 2.136 2.136 0 00.274-.38l.615-1.02a.28.28 0 01.049-.061.221.221 0 01.075-.043.507.507 0 01.11-.026c.043-.003.095-.006.157-.006a1.2 1.2 0 01.134.006.466.466 0 01.078.018.059.059 0 01.034.024.076.076 0 01.007.035.185.185 0 01-.014.07.538.538 0 01-.049.09l-.708 1.114a2.358 2.358 0 01-.544.606 1.621 1.621 0 01-.271.172 1.4 1.4 0 01-.25.101v.01a1.086 1.086 0 01.272.124 1.074 1.074 0 01.227.2 1.313 1.313 0 01.18.278 1.748 1.748 0 01.127.365l.288 1.215a.288.288 0 01.015.054.309.309 0 01.005.054zm5.051.01a.117.117 0 01-.025.053.132.132 0 01-.056.04.493.493 0 01-.093.024.835.835 0 01-.144.01.756.756 0 01-.137-.01.335.335 0 01-.083-.025.074.074 0 01-.039-.039.078.078 0 010-.053l.796-4.014h-.127a2.844 2.844 0 00-.908.129 1.671 1.671 0 00-.65.398 2.169 2.169 0 00-.449.689 5.828 5.828 0 00-.312.996q-.108.454-.208.778a3.81 3.81 0 01-.207.545 1.453 1.453 0 01-.232.354.844.844 0 01-.28.203 1.168 1.168 0 01-.352.09 3.733 3.733 0 01-.44.022.18.18 0 01-.12-.032.13.13 0 01-.036-.105.491.491 0 01.005-.058l.012-.085a.55.55 0 01.024-.096.404.404 0 01.044-.09.237.237 0 01.061-.066.137.137 0 01.083-.025 1.42 1.42 0 00.391-.046.524.524 0 00.274-.212 1.805 1.805 0 00.217-.48c.067-.212.14-.495.222-.853a5.88 5.88 0 01.33-1.045 2.592 2.592 0 01.54-.814 2.28 2.28 0 01.841-.524 3.604 3.604 0 011.238-.186h.242c.096 0 .191.002.286.005a.205.205 0 01.129.06.191.191 0 01.022.17zm6.149-3.55a1.142 1.142 0 01-.154.589 1.258 1.258 0 01-.486.446 2.87 2.87 0 01-.85.286 6.696 6.696 0 01-1.244.1h-.562a3.646 3.646 0 00-.063.688 1.204 1.204 0 00.26.83 1.09 1.09 0 00.853.293 3.03 3.03 0 00.552-.046 4.19 4.19 0 00.422-.1 2.963 2.963 0 00.288-.1.507.507 0 01.149-.047.059.059 0 01.056.032.168.168 0 01.017.08.515.515 0 01-.007.077.902.902 0 01-.022.097.668.668 0 01-.04.102.284.284 0 01-.058.086.613.613 0 01-.202.115 2.428 2.428 0 01-.34.1q-.195.044-.425.073a3.58 3.58 0 01-.454.03 2.388 2.388 0 01-.732-.101 1.3 1.3 0 01-.52-.3 1.237 1.237 0 01-.31-.501 2.163 2.163 0 01-.103-.7 4.15 4.15 0 01.252-1.384 3.57 3.57 0 01.334-.68 2.575 2.575 0 01.489-.57 2.276 2.276 0 01.654-.397 2.24 2.24 0 01.835-.148 1.89 1.89 0 01.654.1 1.355 1.355 0 01.437.253.953.953 0 01.32.697zm-.615.063a.537.537 0 00-.22-.447 1.006 1.006 0 00-.62-.168 1.542 1.542 0 00-.628.122 1.63 1.63 0 00-.485.327 1.995 1.995 0 00-.36.477 3.078 3.078 0 00-.241.568h.542a5.566 5.566 0 00.972-.07 2.23 2.23 0 00.617-.194.796.796 0 00.328-.28.638.638 0 00.095-.335zm8.02 3.487a.136.136 0 01-.023.053.113.113 0 01-.053.04.493.493 0 01-.096.024.842.842 0 01-.141.01.79.79 0 01-.142-.01.335.335 0 01-.083-.025.074.074 0 01-.039-.039.078.078 0 010-.053l.552-2.774.044-.293a1.87 1.87 0 00.02-.268 1.012 1.012 0 00-.14-.57.532.532 0 00-.476-.207 1.155 1.155 0 00-.566.161 2.164 2.164 0 00-.545.447 3.09 3.09 0 00-.454.681 3.404 3.404 0 00-.29.865l-.391 1.958a.213.213 0 01-.027.053.113.113 0 01-.054.04.493.493 0 01-.095.024.842.842 0 01-.141.01.756.756 0 01-.137-.01.335.335 0 01-.083-.025.074.074 0 01-.04-.039.099.099 0 01-.004-.053l.552-2.774a2.064 2.064 0 00.05-.314 3.52 3.52 0 00.013-.282.925.925 0 00-.141-.542.539.539 0 00-.474-.2 1.155 1.155 0 00-.566.161 2.164 2.164 0 00-.545.447 3.09 3.09 0 00-.454.681 3.404 3.404 0 00-.29.865l-.386 1.958a.213.213 0 01-.027.053.113.113 0 01-.054.04.493.493 0 01-.095.024.842.842 0 01-.142.01.79.79 0 01-.141-.01.335.335 0 01-.083-.025.074.074 0 01-.04-.039.078.078 0 010-.053l.89-4.42a.136.136 0 01.021-.053.123.123 0 01.052-.041.304.304 0 01.087-.025 1.165 1.165 0 01.127-.007 1.03 1.03 0 01.123.007.207.207 0 01.075.025.07.07 0 01.034.04.116.116 0 01.003.055l-.18.903a1.259 1.259 0 01.229-.352 2.284 2.284 0 01.393-.353 2.254 2.254 0 01.5-.272 1.504 1.504 0 01.552-.107 1.46 1.46 0 01.513.08.917.917 0 01.344.225.881.881 0 01.195.341 1.73 1.73 0 01.071.438 1.849 1.849 0 01.259-.357 2.416 2.416 0 01.893-.62 1.468 1.468 0 01.547-.107 1.39 1.39 0 01.532.09.903.903 0 01.347.247.94.94 0 01.188.366 1.742 1.742 0 01.056.454 3.273 3.273 0 01-.017.335q-.017.163-.051.334zm5.065 0a.117.117 0 01-.025.053.132.132 0 01-.056.04.493.493 0 01-.093.024.835.835 0 01-.144.01.756.756 0 01-.136-.01.335.335 0 01-.083-.025.074.074 0 01-.04-.039.078.078 0 010-.053l.489-2.437a2.304 2.304 0 01-.276.296 2.096 2.096 0 01-.369.266 2.361 2.361 0 01-.437.193 1.545 1.545 0 01-.476.075 1.187 1.187 0 01-.866-.283 1.12 1.12 0 01-.286-.83 2.81 2.81 0 01.02-.316 3.51 3.51 0 01.053-.334l.21-1.05a.117.117 0 01.025-.053.144.144 0 01.056-.041.337.337 0 01.092-.025 1.402 1.402 0 01.145-.007 1.27 1.27 0 01.136.007.242.242 0 01.083.025.081.081 0 01.04.04.099.099 0 01.004.055l-.24 1.176a2.386 2.386 0 00-.033.381.943.943 0 00.146.574.552.552 0 00.469.193 1.289 1.289 0 00.6-.153 2.016 2.016 0 00.538-.418 2.724 2.724 0 00.424-.62 2.875 2.875 0 00.26-.762l.068-.371a.117.117 0 01.024-.054.144.144 0 01.056-.041.342.342 0 01.095-.026c.04-.003.087-.006.142-.006a1.321 1.321 0 01.142.006.242.242 0 01.083.026.07.07 0 01.036.04.116.116 0 01.003.055zm5.563 0a.132.132 0 01-.078.097.56.56 0 01-.215.03.676.676 0 01-.12-.008.237.237 0 01-.075-.022.074.074 0 01-.04-.039.092.092 0 010-.058l.181-.909a1.259 1.259 0 01-.229.352 2.2 2.2 0 01-.398.353 2.332 2.332 0 01-.515.274 1.562 1.562 0 01-.576.11 1.367 1.367 0 01-.65-.136 1.085 1.085 0 01-.4-.359 1.372 1.372 0 01-.2-.498 2.916 2.916 0 01-.054-.555 4.223 4.223 0 01.049-.593 4.49 4.49 0 01.16-.698 4.552 4.552 0 01.289-.706 2.69 2.69 0 01.432-.622 2.063 2.063 0 01.596-.445 1.73 1.73 0 01.774-.168 1.505 1.505 0 01.761.178 2.059 2.059 0 01.557.481l.103-.478a.131.131 0 01.085-.098.586.586 0 01.213-.03 1.03 1.03 0 01.122.008.207.207 0 01.075.025.071.071 0 01.034.041.116.116 0 01.003.054zm.098-3.35a2.055 2.055 0 00-.56-.564 1.208 1.208 0 00-.66-.188 1.035 1.035 0 00-.53.139 1.517 1.517 0 00-.418.367 2.37 2.37 0 00-.31.515 4.04 4.04 0 00-.213.588 4.405 4.405 0 00-.122.588 3.865 3.865 0 00-.039.508 2.467 2.467 0 00.03.376 1.047 1.047 0 00.114.347.708.708 0 00.237.256.7.7 0 00.396.1 1.242 1.242 0 00.59-.159 2.037 2.037 0 00.555-.443 3.1 3.1 0 00.454-.68 3.475 3.475 0 00.295-.866zm8.264 3.35a.136.136 0 01-.023.053.113.113 0 01-.053.04.493.493 0 01-.095.024.842.842 0 01-.142.01.79.79 0 01-.142-.01.335.335 0 01-.083-.025.074.074 0 01-.039-.039.078.078 0 010-.053l.552-2.774.044-.293a1.871 1.871 0 00.02-.268 1.012 1.012 0 00-.14-.57.532.532 0 00-.476-.207 1.155 1.155 0 00-.566.161 2.163 2.163 0 00-.545.447 3.091 3.091 0 00-.454.681 3.404 3.404 0 00-.29.865l-.39 1.958a.213.213 0 01-.028.053.113.113 0 01-.053.04.493.493 0 01-.096.024.842.842 0 01-.141.01.756.756 0 01-.137-.01.335.335 0 01-.083-.025.074.074 0 01-.039-.039.099.099 0 01-.005-.053l.552-2.774a2.064 2.064 0 00.051-.314 3.52 3.52 0 00.012-.282.925.925 0 00-.141-.542.539.539 0 00-.474-.2 1.155 1.155 0 00-.566.161 2.164 2.164 0 00-.545.447 3.09 3.09 0 00-.454.681 3.404 3.404 0 00-.29.865l-.386 1.958a.213.213 0 01-.027.053.113.113 0 01-.054.04.493.493 0 01-.095.024.842.842 0 01-.141.01.79.79 0 01-.142-.01.335.335 0 01-.083-.025.074.074 0 01-.04-.039.078.078 0 010-.053l.89-4.42a.136.136 0 01.022-.053.123.123 0 01.05-.041.304.304 0 01.089-.025 1.165 1.165 0 01.127-.007 1.03 1.03 0 01.122.007.207.207 0 01.075.025.07.07 0 01.035.04.116.116 0 01.002.055l-.18.903a1.259 1.259 0 01.229-.352 2.284 2.284 0 01.393-.353 2.254 2.254 0 01.5-.272 1.504 1.504 0 01.552-.107 1.46 1.46 0 01.513.08.917.917 0 01.344.225.881.881 0 01.195.341 1.73 1.73 0 01.071.438 1.85 1.85 0 01.26-.357 2.416 2.416 0 01.893-.62 1.468 1.468 0 01.547-.107 1.39 1.39 0 01.532.09.903.903 0 01.346.247.94.94 0 01.188.366 1.742 1.742 0 01.057.454 3.273 3.273 0 01-.018.335q-.016.163-.05.334zm5.421-.01a.117.117 0 01-.012.054.107.107 0 01-.046.044.3.3 0 01-.093.029 1.196 1.196 0 01-.305 0 .377.377 0 01-.088-.025.1.1 0 01-.046-.039.158.158 0 01-.02-.053l-.269-1.216a1.775 1.775 0 00-.134-.39.736.736 0 00-.505-.406 1.703 1.703 0 00-.41-.044h-.391l-.415 2.09a.068.068 0 01-.027.036.179.179 0 01-.063.03.496.496 0 01-.096.019.77.77 0 01-.122.008.727.727 0 01-.12-.008.392.392 0 01-.087-.02.128.128 0 01-.054-.03.036.036 0 01-.012-.035l.898-4.492a.046.046 0 01.025-.037.192.192 0 01.063-.027.79.79 0 01.095-.017 1.197 1.197 0 01.125-.007 1.052 1.052 0 01.12.007.781.781 0 01.085.017.115.115 0 01.051.027.036.036 0 01.013.037L53.29 33.3h.38a1.409 1.409 0 00.377-.051 1.331 1.331 0 00.344-.157 1.627 1.627 0 00.31-.263 2.136 2.136 0 00.273-.38l.616-1.02a.279.279 0 01.048-.061.221.221 0 01.076-.043.507.507 0 01.11-.026c.042-.003.094-.006.156-.006a1.2 1.2 0 01.134.006.466.466 0 01.079.018.059.059 0 01.034.024.076.076 0 01.007.035.185.185 0 01-.015.07.538.538 0 01-.048.09l-.708 1.114a2.358 2.358 0 01-.545.606 1.621 1.621 0 01-.27.172 1.4 1.4 0 01-.25.101v.01a1.086 1.086 0 01.271.124 1.074 1.074 0 01.227.2 1.313 1.313 0 01.18.278 1.748 1.748 0 01.128.365l.288 1.215a.288.288 0 01.015.054.309.309 0 01.004.054zm5.105.01a.136.136 0 01-.022.053.112.112 0 01-.051.04.443.443 0 01-.088.024.688.688 0 01-.127.01.613.613 0 01-.122-.01.286.286 0 01-.076-.025.075.075 0 01-.037-.039.078.078 0 010-.053l.171-.89a1.239 1.239 0 01-.23.35 2.308 2.308 0 01-.903.616 1.594 1.594 0 01-.561.104 1.5 1.5 0 01-.55-.088.914.914 0 01-.356-.24.926.926 0 01-.193-.368 1.743 1.743 0 01-.058-.466 2.716 2.716 0 01.02-.322c.012-.11.03-.223.053-.337l.552-2.778a.117.117 0 01.024-.054.144.144 0 01.056-.041.342.342 0 01.095-.025c.04-.004.087-.007.142-.007a1.27 1.27 0 01.137.007.242.242 0 01.083.025.081.081 0 01.039.04.099.099 0 01.005.055l-.552 2.778c-.02.095-.035.191-.046.291a2.691 2.691 0 00-.017.305 1.285 1.285 0 00.031.295.615.615 0 00.108.234.492.492 0 00.195.154.715.715 0 00.295.054 1.242 1.242 0 00.591-.16 2.047 2.047 0 00.554-.44 3.025 3.025 0 00.455-.676 3.5 3.5 0 00.295-.863l.395-1.972a.117.117 0 01.025-.054.144.144 0 01.056-.041.342.342 0 01.095-.025c.04-.004.087-.007.142-.007a1.321 1.321 0 01.141.007.242.242 0 01.083.025.07.07 0 01.037.04.116.116 0 01.002.055zM42.84 20.633c-.006.042-.076.013-.09.017.035-.067.108-.012.09-.017z"/><polygon class="cls-1" points="43.195 19.996 43.162 19.999 43.262 19.922 43.195 19.996"/><path class="cls-1" d="M43.395 19.381c.093.1-.116.205-.097.335l.023.028-.113.017a3.975 3.975 0 00.187-.38zm-.115-.423c.036.04.07-.052-.02.082l-.006-.019a.398.398 0 00.025-.063zm-.026.063c-.031.062-.02-.058 0 0zm.158-.281l-.078.065c-.02-.03.008-.107-.024-.089.061-.076.08-.045.102.024zm.121-.04l-.037.036c-.008-.013-.006-.026.037-.035zm-.114.11l.077-.074c.014.02.051.04-.032.035.038.009-.003.011-.045.039zm-.005.06c.004.058-.006.124.072.06-.087.15-.16.092-.072-.06zm.118.53l.008.074-.063.036c.031-.018.02-.128.055-.11zm.058-1.209c.028.009.049.06.078.083l-.056.047c-.003-.041.01-.108-.021-.13z"/><path class="cls-1" d="M43.668 18.274l.092-.063c-.041.078-.069.082-.092.063z"/><polygon class="cls-1" points="43.669 18.747 43.512 18.854 43.683 18.719 43.669 18.747"/><polygon class="cls-1" points="43.785 17.861 43.7 17.879 43.836 17.839 43.785 17.861"/><path class="cls-1" d="M43.925 17.65c-.067.009-.046-.096-.097-.074a.402.402 0 01.175-.107.215.215 0 00-.078.18zm.175-.226a.504.504 0 01-.097.045.254.254 0 01.097-.045zm-.265.636a.118.118 0 01-.028-.106l.047.071zm.02-.032l-.001-.003.04-.074z"/><path class="cls-1" d="M43.83 18.068l.005-.009c.004.007.006.01-.005.009zm-.117.412c.062-.034.152-.122.163.014-.064.014-.07-.065-.163-.014zm.177-.324l-.039.098c-.017-.012-.033-.042-.067-.027z"/><polygon class="cls-1" points="43.937 18.124 43.89 18.156 43.904 18.119 43.937 18.124"/><path class="cls-1" d="M44.067 17.617a.278.278 0 00.114-.108.744.744 0 01-.074.168c-.025-.006-.075-.006-.04-.06zm-.097.203l.01-.006c.001.009 0 .014-.01.006z"/><polygon class="cls-1" points="44.47 17.038 44.476 17.053 44.464 17.047 44.47 17.038"/><path class="cls-1" d="M44.114 17.693a.09.09 0 01-.074.07.517.517 0 00.067-.086c.012.002.018.005.007.016zm.096-.383a.536.536 0 01-.005.09c-.008-.032-.016-.093.005-.09zm-.242.48l-.006.004c-.007-.021 0-.015.006-.004zm0 0a.26.26 0 01.072-.028.324.324 0 01-.06.052.09.09 0 00-.012-.024zm1.008-.603a.137.137 0 00-.181.144c-.094.055-.26-.132-.319-.278.028.015.052.03.148-.028.008.05-.056.236.045.201.11-.088.045-.103.053-.177.04.095.21-.063.298.036l-.107.067c.015.014.067-.002.063.035zm-.598.037l-.03.032a.399.399 0 00-.004-.18c.065-.043.097-.038.12-.03a3.346 3.346 0 00-.103.185zm-.13.196c.084.013.164-.056.202.043-.068.103-.1.04-.166.085.12-.162-.067.027-.029-.121a.464.464 0 00-.074.082.719.719 0 00.024-.108l.002.006v.001c.004.013.008.019.008.007l.004-.003a.102.102 0 00.03.008c.016-.059-.013-.019-.03-.008l-.011-.004v-.001l.14-.15a.607.607 0 01-.1.163zm-.18 1.055a.024.024 0 00-.013-.014c.015-.007.024-.008.013.014zm.001-.092c-.017.007-.051.003-.068.047.001.046.032.017.054.03-.031.016-.09.065-.088-.034l.017-.007c.017-.08-.014-.216-.03-.209a.54.54 0 01.115.173zm.106-.471l.119-.123.014.107-.032-.025c-.035.09-.068.047-.1.041z"/><polygon class="cls-1" points="44.45 17.001 44.368 16.972 44.522 16.96 44.45 17.001"/><polygon class="cls-1" points="44.589 16.831 44.525 16.797 44.595 16.775 44.589 16.831"/><path class="cls-1" d="M54.516 10.283l.052.002a.166.166 0 01-.052-.002zm-.316.127l-.021-.029c.021.011.033.022.02.029zm-5.93 2.57c.013-.096.01-.227.054-.159l.032.075a.155.155 0 00-.087.084zm3.23-1.663l-.006.03-.079-.04zm.205.256l.054-.09a.316.316 0 01-.054.09zm4.589-1.832l.076.062c-.083.022-.058-.026-.076-.062zM46.02 15.118a.43.43 0 01.068-.147c-.017.086-.007.176-.068.147zm8.053-5.556c.034.003.052.013.058.03-.034-.002-.056-.01-.058-.03zm-7.865 5.276l-.008.038a.373.373 0 00-.112.095c.013-.063.04-.125.12-.133zm16.706-5.91l.016-.008c0 .01-.006.01-.016.008zm2.09-.497a.516.516 0 00-.082-.02.158.158 0 01.082.02zM45.09 16.106c-.032.034-.011 0 0 0zm.11.369a.052.052 0 01.041.008.065.065 0 00-.04-.008zm1.67-1.627l.003-.002c.001.02.001.016-.002.002zm-1.794 1.336a.268.268 0 01.017-.062.267.267 0 01-.017.062zm-.023-.031l-.019.038c-.014-.004-.017-.013.019-.038z"/><path class="cls-1" d="M45.132 16.057a.273.273 0 00-.039.065.021.021 0 00-.003-.016zm14.166-7.249l.009-.009c.048.025.028.023-.009.01z"/><polygon class="cls-1" points="49.69 12.899 49.683 12.898 49.687 12.892 49.69 12.899"/><path class="cls-1" d="M49.855 12.856c-.112-.04-.138-.01-.168.036l-.089-.212z"/><path class="cls-1" d="M55.161 10.053c.102-.148.276-.074.37-.04.04-.053-.102-.16.061-.176.226-.033.018.184.153.164l.051-.154c.19.028.286-.09.423-.14a.096.096 0 01.066.02c.133-.092.346.036.446-.034-.033-.018.042-.094.048-.127l.222.02c-.097-.007-.113-.079-.147-.143.065-.01.105.02.15.018-.032-.017-.065-.035-.04-.076l.243.06a.119.119 0 01-.052.034c.053-.013.179 0 .24-.078-.012-.025-.045-.044-.058-.07-.045.096-.098.039-.144-.005.15-.027.032-.028.091-.097a.118.118 0 01.157.124.285.285 0 01.28-.048l-.044-.09.117.001-.116-.095c.199-.118.075.155.302.057l-.017-.085c.1.017.16.156.21.042.1.037-.128.146.085.129a.383.383 0 01.158-.123c.074.028-.032.11-.077.105.322-.012.145-.326.448-.26-.087.078.107.153-.121.188.117.033.195-.16.323-.085l-.091-.097a.224.224 0 01.118.032l-.022-.083c.162.125.254-.114.364.067-.078-.144.106-.009.155-.078-.13-.089-.333.058-.368-.08.048-.052.106.009.154-.042a.294.294 0 01-.117-.07c.17-.11.295.039.408.058h-.197c.034.138.09.009.157.11.087-.095.176.016.25-.036-.021.002-.024-.012-.045-.01.21-.009.249-.244.334-.253.082-.023.246.045.193.109.071.035-.285-.026-.149.151.105-.22.254.066.507-.095-.12-.07.061-.125-.045-.176a.224.224 0 01.193.099l.035-.07c.17.14.044.13.294.196-.084-.047.097-.102.033-.146a.264.264 0 01.188.045l-.01-.009c.252.018.206-.098.435-.01l-.023.039a5.56 5.56 0 00.982.144l-.111.026c.035-.018.202.076.303.018-.019-.005-.05-.025-.069-.02a.142.142 0 01.124-.117l.023.07.035-.051c.113.005-.042.096.071.102.086-.196.49-.002.606-.142.058.156-.215-.017-.147.127a.225.225 0 01.13-.038l-.037.08a3.356 3.356 0 01.784.035l-.01-.02c.114-.013.17.012.204.094.03-.036-.044-.07.004-.097.147.249.412-.09.498.08.02-.17.31-.286.235-.436l.075.034c0-.116-.25-.048-.271-.172l-.278.071c.017-.04-.013-.11.031-.118-.062-.013-.116-.029-.022-.074-.661.195-1.231-.257-1.86-.103-.04-.013-.013-.051.005-.077-.12.103-.102-.063-.163-.082l-.174.149c-.063-.051-.008-.097-.011-.128-.31-.05-.616.088-.864-.02-.08.053.017.13-.088.143.145-.155-.305-.095-.214-.202-.101.18-.378.059-.327.298-.124.021-.106-.097-.07-.12a.58.58 0 01-.385-.044c-.076.06-.672-.021-.785.168.077-.123-.012-.06-.102-.107l.067-.108-.192.022c-.04-.007-.05-.002-.05.007-.032.007.014.06-.065.09-.13.017-.142-.03-.22-.075l.018-.018-.09.004c-.063.014.242.066.038.153-.006-.028-.148-.143-.195-.06.107-.023.103.05.067.088l-.15.032.033-.139c-.434.08-.867.247-1.328.315.029.105-.322.069-.243.23l.014-.02c.113-.013-.003.14-.095.145.08-.078-.206-.12.015-.207l-.194-.03c-.175-.29-.467.153-.76.124a.062.062 0 01.036.032c-.267-.036-.51.228-.58.193l.006.091a.409.409 0 00-.49.062c.007.012.043.027.011.058a.284.284 0 00-.312-.006l.016.024-.257.08c.098.258-.493.003-.462.31-.078-.057-.273-.012-.37-.017a.05.05 0 01-.005.042c-.156-.106-.26.153-.367.189-.082 0-.072-.058-.06-.115-.087.17-.424.055-.454.124-.094.057.008.113.006.181-.157.045-.08-.238-.23-.045.028 0 .074-.011.065.01-.066.058-.062.406-.163.383l.027-.067c-.167 0-.22.351-.324.195l-.026-.083c-.181.212-.116.016-.305.218l.01.011c-.107.042-.11.168-.223.073l.025-.036a1.677 1.677 0 00-.255.154c-.021-.003-.092.013-.095.049-.062-.098-.317.12-.37.159.109-.043.086.027.082.084-.106-.049-.151-.034-.197.072-.085-.118-.179-.24-.344-.155.036.004.081-.008.08.027 0 .035-.055.028-.073.026 0 .035.063.025.07.078-.179-.055-.192.1-.374.148.073.008.045.057.053.109-.102-.136-.129.257-.186.04-.223.305-.736.514-.772.703.003.07-.133.046-.185.079l.048.053c-.217-.008-.138.036-.382.045.12.021.114.073.084.175l-.2-.038.045.105c-.07 0-.11.055-.148.108.024-.018.017 0 .028.017-.117-.103-.3.067-.375.034.044.157-.154.075-.102.213a.274.274 0 00-.091.007c-.018-.07-.055-.134-.08-.074l-.01.007.035.083a.568.568 0 00-.141.072.229.229 0 00.018-.07l-.027.076-.015.014.012-.004a.107.107 0 01-.094.076c-.067.23-.471.135-.514.425.012-.037.04-.075.07-.06-.14.12-.192.338-.321.37l-.049-.066a1.128 1.128 0 00-.294.199l-.068-.063c-.093.134-.447.265-.386.467-.079-.024-.149.163-.226.215l.035.066a.489.489 0 01-.192.18c-.054.278-.308.344-.442.508l.014.015-.18.125c.085 0-.062.003-.092.062a.301.301 0 00-.15.212l-.081.11c.128-.092.071.072.13.13l-.103.028c.01.052.083-.005.058.057-.068.02-.169.157-.267.15a.137.137 0 01-.011-.08c.008-.002.007-.002 0-.002v-.007l-.002.007a.143.143 0 01-.04 0c-.05.098-.053.045-.08.02.026.176-.083.18-.02.343-.058-.201-.17.224-.252.067.049.149-.033.054.021.165.05-.124.221-.157.327-.206l.001.126c.156.034.092-.212.168-.231-.051.012-.08.105-.055.127l-.072-.089c.051-.142.189-.181.293-.228-.029.099.122-.052.141.052l-.055.052c.01.052.08.014.13 0 .069-.248.423-.518.412-.639a.197.197 0 01-.142.115l.04-.112c-.064.065-.037.181-.155.257-.038-.062-.178-.05-.183-.189.09-.264.282-.04.468-.287.036-.007-.129-.028.01-.126a.463.463 0 01.522-.008c-.09.033-.272.102-.208.196.09-.034.21-.126.267-.083-.034-.153-.136.094-.136-.064a.18.18 0 01.125-.04c-.066-.006-.029-.1-.039-.135.135-.143.158-.277.309-.426a.146.146 0 00-.044-.083c.101-.047.342-.011.37.072.09-.078.053-.126.152-.171-.04.194.01-.036.108.041.086-.06-.015-.067 0-.12a.166.166 0 01.105.02c-.017-.112-.258-.091-.277-.222a1.451 1.451 0 01.079-.35 1.254 1.254 0 01.426.52c.054.047.02-.124.047-.16.018-.177.207-.071.256-.18l-.104.009c-.006-.035.136-.117.182-.103-.023-.034-.198-.1-.193-.17a.372.372 0 01.497.005l-.316.095c.056.08.233-.058.301.041l.192-.2c-.03.02-.13.064-.134-.005.096-.07.037-.052.069-.138a4.37 4.37 0 01-.774-.164l.159-.041-.01-.068c.202-.06.589.137.692.186.068-.087-.098-.23-.145-.247.161-.142.357.106.504-.052l-.033.087c.051-.016.167-.164.176-.12-.003-.072-.055-.204-.114-.203l.271.042c-.035 0-.125-.149-.153-.166.055-.053.222.078.201.13a1.017 1.017 0 00.06-.307c.044-.015.105.148.092.185a.23.23 0 00.17-.113c-.179.033-.266-.287-.37-.376l.596.217a1.386 1.386 0 01-.157-.154c.115.108.459-.103.61-.232l-.025.015c-.063-.02.054-.153.141-.147-.026-.02-.035-.002-.06.013.046-.171.27.098.306-.092-.093.081-.147.043-.175-.011.113-.01.272-.192.33-.013.032-.068.091-.08.038-.155a4.558 4.558 0 01.268-.034c-.026-.006-.068-.044-.012-.09-.106.088-.312.011-.307.156-.063-.093-.052-.173-.157-.215a1.25 1.25 0 01.695.02l.16-.185.035.039-.03-.132c.04.011.07.024.069.01-.001-.012-.016-.023-.036-.034a.122.122 0 01.067-.002.357.357 0 00-.175-.148l-.02.094c-.073-.033-.136-.073-.101-.142l.042.007c-.05-.027-.086-.052-.076-.079l.189-.037a1.045 1.045 0 00-.028.126c.14.017.303.042.259.167l.08-.134a1.064 1.064 0 00.38.009c-.013-.045-.076-.052-.062-.099.192.057.222-.321.308-.224.115-.03.094.075.175.074-.01-.01-.029-.033-.01-.044l.12.045c.016-.044-.101-.023-.031-.1.182-.01.29-.008.396-.107.188-.064.005.2.147.114-.011-.078-.03-.168.06-.223.071.024.09.08.188.07l-.054-.102c.08-.032.151-.042.115-.121a.14.14 0 00.151-.047c.144 0 .01.254.002.308.08-.133.18-.125.19-.283l-.116.02c.162-.235.273.051.278-.221-.072.044-.188.03-.168-.05l.133.004c.001-.035-.071.01-.035-.047a.871.871 0 01.173.055l-.005-.006c-.002-.005.21-.063.21-.063-.037.02-.063-.017-.025-.035l.157.006c-.052-.012-.023-.06.03-.1.16-.097.233.19.324.032-.018.009-.027-.003-.045.006l.05-.073c.102.223.414-.127.512.098.063-.13-.013-.059-.178-.12l.08-.105c-.045.007-.075.037-.128.032zm-1.318.509c0 .057-.082.033-.119.03.038-.05.045-.106.119-.03zm-2.393.956c-.02.05-.045.08-.081.068a.138.138 0 01.08-.068zm-5.985 4.234h-.006c.023-.05.03-.078.006 0zm-.044.07c-.022.033-.045.06-.068.055a.025.025 0 00.033.016c.043-.024.046-.047.035-.07zM59.68 8.187l.028-.024c.021.024.043.045-.028.024z"/><path class="cls-1" d="M51.68 11.544a.115.115 0 00-.011-.048c.018.006.027.02.011.048z"/><polygon class="cls-1" points="56.28 9.73 56.285 9.728 56.294 9.741 56.28 9.73"/><path class="cls-1" d="M47.55 14.68a.126.126 0 00.012-.073c.016.014.018.037-.012.074zm-2.78 1.788l.078-.068a.125.125 0 00-.031.09c-.015-.014-.027-.047-.047-.022zm-.06 1.008c-.016.007-.017.026-.033.032l-.032-.026c.034-.05.083-.07.065-.006zm.237-.763c.054.05-.003.084-.056.132l.008-.01c-.096-.043-.024-.083.048-.122zm-.067.143a.21.21 0 00-.04.05c-.039-.017.008-.026.04-.05zm.349-.834c-.006.038-.086-.042-.074-.008-.095-.029.222-.108.074.008z"/><polygon class="cls-1" points="45.108 16.899 45.05 16.827 45.132 16.839 45.108 16.899"/><path class="cls-1" d="M45.38 16.426l-.046.104c-.01-.011-.026-.005-.042.004.038-.056.069-.126.088-.108zm-.088.108a.143.143 0 01-.065.062.32.32 0 01.065-.062z"/><polygon class="cls-1" points="45.22 16.796 45.224 16.759 45.265 16.693 45.22 16.796"/><path class="cls-1" d="M46.127 15.513l.1-.072c.03.012.023.05-.016.074-.035.007-.074.032-.084-.002zm-.055.431c.007-.036-.007-.05-.017-.084l.087.07zm.25-.239c.031.012.181-.067.076.039-.03-.012-.13.059-.076-.039z"/><polygon class="cls-1" points="47.472 14.332 47.449 14.351 47.327 14.214 47.472 14.332"/><path class="cls-1" d="M48.943 13.64c-.08.121-.097-.067-.16.054-.053-.013.051-.1.002-.107.094-.017.112-.065.158.053zm-.158-.053a.3.3 0 01-.051.005.136.136 0 01.05-.005z"/><polygon class="cls-1" points="65.36 8.395 65.461 8.374 65.387 8.424 65.36 8.395"/><path class="cls-1" d="M65.505 8.559l.049-.11.03.113c-.02-.009-.057-.026-.079-.003zM53.6 10.912l-.018-.023c0-.034.017-.044.052-.067z"/><polygon class="cls-1" points="54.664 10.35 54.645 10.36 54.642 10.248 54.664 10.35"/><path class="cls-1" d="M55.653 10.128c-.036.018-.09.013-.126.031.09-.013.094-.16.126-.031zm6.036-5.472c-.012-.01.028-.03.034-.037.005.025-.044.044-.034.037z"/><polygon class="cls-1" points="61.754 4.924 61.767 4.909 61.753 4.967 61.754 4.924"/><path class="cls-1" d="M61.901 5.117c-.076.03-.043-.078-.09-.095l-.02.005.039-.053c.023.047.031.127.071.143zm.212 0c-.029.013-.004.038-.026-.018h.01a.087.087 0 00.016.018zm-.017-.018c-.014-.021.03-.002 0 0zm.059.103V5.16c.018-.005.04.016.043 0 .01.035-.009.04-.043.043zm-.025.06l-.002-.02c.008-.003.013 0 .002.02zm-.006-.064l.004.044c-.013.003-.033.019-.004-.02-.016.017-.003-.002 0-.024zm-.022-.01c-.025-.004-.048-.017-.048.026-.031-.057.017-.083.048-.026zm-.257-.012l-.033-.007.007-.033c-.004.017.047.026.026.04zm.471.164a.412.412 0 01-.06.03v-.03c.017.002.04.014.06 0zm-.059.03l.001.047c-.023-.024-.017-.037-.001-.047z"/><polygon class="cls-1" points="62.066 5.32 62.075 5.235 62.073 5.33 62.066 5.32"/><polygon class="cls-1" points="62.406 5.449 62.422 5.409 62.402 5.474 62.406 5.449"/><path class="cls-1" d="M62.461 5.525c.014-.032.055-.018.06-.043a.145.145 0 01-.002.088c-.003-.024-.02-.04-.058-.045zm.052.093a.206.206 0 01.006-.048.112.112 0 01-.006.048zm-.209-.157a.071.071 0 01.055-.007l-.045.018zm.008.012h.002l.022.022zm-.01-.015l.002.003c-.004.002-.006.002-.002-.003zm-.142-.088c-.006.033 0 .086-.058.076.015-.031.048-.026.058-.076zm.085.11l-.033-.024c.01-.007.029-.012.032-.029z"/><polygon class="cls-1" points="62.246 5.505 62.245 5.481 62.257 5.49 62.246 5.505"/><path class="cls-1" d="M62.436 5.594a.078.078 0 00.017.06.18.18 0 01-.054-.044c.01-.012.023-.036.037-.016zm-.063-.056v.004c-.004 0-.007 0 0-.004z"/><polygon class="cls-1" points="62.587 5.812 62.579 5.815 62.584 5.809 62.587 5.812"/><path class="cls-1" d="M62.39 5.613c-.018-.008-.015-.023-.01-.04a.126.126 0 00.02.037c-.005.005-.008.008-.01.003zm.143.063a.19.19 0 01-.038-.006c.016-.003.045-.004.038.006zm-.146-.138v-.003c.011-.002.007 0 0 .003zm0 0a.124.124 0 01-.008.036.092.092 0 01-.006-.032zm.016.515c.03-.03.031-.09-.03-.09 0-.05.124-.122.206-.148-.014.013-.027.024-.02.07-.027.005-.099-.03-.107.02.017.054.04.022.073.027-.055.018-.016.1-.082.144l-.01-.053c-.01.007-.013.032-.03.03zm.124-.292l-.007-.015a.155.155 0 00.081.004.072.072 0 01-.017.059l-.056-.056z"/><path class="cls-1" d="M62.475 5.69c-.028.04-.019.082-.073.097-.027-.04.01-.051.007-.086.04.066.006-.033.061-.008a.123.123 0 00-.017-.04.217.217 0 00.042.017h-.004c-.007.002-.01.004-.005.004v.002l-.011.014c.021.01.011-.005.011-.014l.005-.005.03.075a.146.146 0 01-.046-.056zm-.425-.149l.01-.005c-.002.008-.003.012-.01.005z"/><path class="cls-1" d="M62.091 5.548c.002-.008.014-.023-.002-.034-.02-.004-.017.014-.03.022.003-.016.003-.05.042-.038l-.002.008a.157.157 0 00.104 0 .41.41 0 01-.112.042zm.184.082l.023.063-.052.001.02-.014c-.03-.022-.002-.035.01-.05z"/><polygon class="cls-1" points="62.61 5.802 62.642 5.764 62.613 5.837 62.61 5.802"/><polygon class="cls-1" points="62.659 5.869 62.689 5.838 62.684 5.872 62.659 5.869"/><path class="cls-1" d="M64.822 8.905l-.015-.006zm.044-.025l.023.012a.116.116 0 01-.023-.012zm-.814-1.548c.048-.01.112-.036.077-.003l-.038.029a.04.04 0 00-.039-.026z"/><polygon class="cls-1" points="64.928 8.45 64.913 8.456 64.926 8.41 64.928 8.45"/><path class="cls-1" d="M64.824 8.616l.039-.009c-.013.004-.017.013-.039.009zm-.621.59l-.046-.028c.03-.018.03.01.046.028zm-.993-2.699a.121.121 0 01.061.023c-.039-.002-.084.01-.06-.023zm2.072 2.726a.064.064 0 01-.048-.009c.023-.002.041 0 .048.01zM63.317 6.58l-.016-.002a.096.096 0 00-.03-.048c.029.002.054.01.046.05zm-1.167 4.502v.008c-.005-.003-.004-.006 0-.008zm-.125.912a.116.116 0 00.021-.023c0 .007-.006.014-.021.023zm.867-5.89c-.009-.015.003-.005 0 0zm-.195.06a.04.04 0 01-.013.02.052.052 0 00.013-.02zm.531.744l.001.001c-.01.003-.008.002-.001 0zm-.368-.809a.079.079 0 01.024.007.08.08 0 01-.025-.007zm.018-.012l-.013-.009c.004-.006.009-.008.013.009z"/><path class="cls-1" d="M62.907 6.124a.066.066 0 00-.023-.018.012.012 0 00.008-.002zm.37 3.995v.006c-.026-.003-.018-.006 0-.006z"/><polygon class="cls-1" points="64.065 8.002 64.065 7.999 64.068 8 64.065 8.002"/><path class="cls-1" d="M64.09 8.071c.017-.061.001-.067-.022-.071l.105-.088z"/><path class="cls-1" d="M64.647 8.992c-.024.081-.112.042-.16.027-.008.031.072.086.004.1-.095.024-.04-.102-.097-.087l.004.087c-.091-.012-.11.06-.156.1a.044.044 0 01-.032-.006c-.038.06-.154.014-.18.062.018.006.004.055.01.074l-.1.011c.044-.006.067.031.097.062-.024.012-.049 0-.067.006.018.006.036.012.036.036l-.117-.006a.039.039 0 01.013-.024c-.019.012-.076.019-.081.066l.043.03c-.006-.054.031-.03.062-.011-.056.03-.007.017-.013.06-.037.023-.086-.012-.099-.049-.03.045-.035.063-.102.06l.044.041-.049.014.074.034c-.046.087-.075-.07-.133.017l.032.042c-.043.007-.108-.053-.093.014-.049-.002.005-.097-.071-.051a.156.156 0 01-.023.09c-.037-.001-.022-.061-.003-.067-.12.064.05.19-.084.213.006-.055-.091-.055-.017-.116-.055.006-.02.116-.093.104l.067.03c-.012.012-.043.006-.055.006l.036.037c-.103-.03-.054.103-.159.037.08.054-.038.024-.03.067.079.017.104-.092.165-.031 0 .034-.043.015-.043.048a.154.154 0 01.067.012c-.023.084-.121.036-.169.05l.072-.038c-.062-.06-.037.012-.098-.022.002.061-.066.033-.07.076.006-.007.012 0 .018-.007-.065.058.012.176-.01.2-.017.032-.096.04-.104-.001-.037.001.101-.06-.011-.107.053.128-.11.034-.124.174.065-.001.031.07.085.066-.043.028-.058.016-.1.006l.018.04c-.11-.017-.067-.046-.173-.008.046-.002.012.07.051.07a.089.089 0 01-.078.03l.007.002c-.085.06-.02.096-.117.133l-.011-.023c-.133.044-.206.187-.311.263l.014-.047c0 .019-.085.04-.083.094.007-.004.024-.008.027-.015a.078.078 0 01.025.083l-.04-.018.017.03c-.03.036-.036-.049-.066-.013.073.098-.116.164-.061.26-.087-.03.046-.074-.036-.097a.09.09 0 01-.005.062l-.033-.04a1.055 1.055 0 01-.15.288l.012.003c-.01.047-.033.06-.08.05.013.022.043.003.049.03-.154-.017-.015.183-.118.167.087.055.11.194.2.206l-.027.018c.062.031.057-.077.126-.05v-.12c.018.017.058.027.056.045.016-.018.031-.033.042.014 0-.292.286-.374.363-.608.015-.008.027.015.035.03-.022-.075.053-.008.076-.02l-.031-.108c.038 0 .047.034.062.045.09-.076.1-.223.207-.253-.005-.046-.061-.047-.043-.085.035.107.114-.053.14.02-.05-.101.084-.119-.032-.207.028-.04.072.015.072.034a.156.156 0 01.13-.076c-.003-.047.206-.15.17-.263.023.075.026.025.071.026l.021.065.049-.054c.015-.005.016-.01.012-.014.007-.011-.026-.025-.014-.058.034-.037.059-.013.1-.007v.012l.03-.018c.016-.019-.107.012-.068-.066.012.012.103.043.09-.005-.03.03-.055-.007-.055-.03l.041-.041.037.072a4.004 4.004 0 01.362-.37c-.045-.053.096-.08.022-.151v.012c-.04.019-.038-.072-.002-.085-.01.049.114.04.051.108l.084-.004c.146.135.141-.119.264-.128a.044.044 0 01-.022-.014c.11-.003.143-.162.18-.146l-.023-.05c.113.028.124.03.187-.05-.005-.006-.023-.013-.016-.03.04.021.08.043.13 0l-.011-.013.092-.043c-.074-.147.188.015.157-.17.048.027.158-.012.228-.018a.023.023 0 01-.009-.02c.143.032.131-.09.192-.107.064-.005.085.016.102.04-.018-.07.344-.07.34-.1.054-.032-.082-.033-.127-.052.113-.034.244.053.253-.023-.028.005-.065.015-.072.008.011-.013-.05-.04-.11-.062-.054-.022-.19-.047-.156-.054l.078.02c.008-.047-.371-.105-.192-.112l.09.002c-.214-.072-.019-.04-.213-.107l-.01.003c-.035-.037-.135-.03-.058-.077l.03.007a.802.802 0 00-.13-.09.042.042 0 00-.042-.035c.061-.039-.128-.137-.146-.147.035.04-.003.048-.033.06.014-.06.004-.076-.05-.067.05-.07.101-.147.05-.195 0 .017.009.034-.008.043-.016.01-.017-.016-.017-.024-.017.01-.008.034-.033.053.015-.094-.06-.056-.096-.122 0 .034-.024.036-.05.054.058-.079-.127.007-.027-.074-.151-.03-.264-.218-.358-.19-.034.017-.025-.051-.042-.068l-.026.035c.001-.102-.02-.055-.026-.166-.01.06-.035.068-.086.077l.02-.103-.052.043c.001-.034-.024-.043-.05-.052.01.009 0 .009-.008.017.053-.076-.025-.132-.006-.174-.078.05-.032-.06-.102-.01a.12.12 0 000-.042c.035-.021.068-.05.04-.05l-.003-.005-.043.032a.16.16 0 00-.03-.054.092.092 0 00.034-.004h-.037l-.006-.004.002.005a.03.03 0 01-.034-.032c-.11.005-.046-.197-.183-.176.017 0 .033.01.024.026-.047-.052-.15-.048-.154-.107l.036-.032a.305.305 0 00-.07-.12l.038-.04c-.057-.029-.084-.182-.191-.13.02-.04-.068-.05-.082-.085l-.036.023a.122.122 0 01-.058-.082c-.126-.006-.121-.127-.18-.18l-.01.007-.032-.08c-.014.042.008-.028-.016-.04-.002-.032-.038-.056-.078-.06l-.036-.037c.017.062-.048.038-.086.068l.007-.05c-.026.005-.014.04-.038.03.004-.035-.04-.082-.016-.13a.075.075 0 01.038-.007c0 .004 0 .003.002 0h.003l-.003-.001.009-.02c-.036-.023-.011-.025.006-.038-.087.015-.066-.038-.156-.006.107-.03-.07-.081.022-.121-.08.024-.018-.016-.082.01.048.024.026.106.027.158l-.06.001c-.05.077.081.045.075.081.005-.025-.034-.037-.05-.026l.058-.036c.056.024.047.091.049.142-.042-.013 0 .06-.053.071l-.014-.027c-.026.006-.022.04-.026.066.1.037.18.193.243.181-.025-.002-.038-.038-.035-.063l.05.013c-.023-.027-.085-.008-.103-.062.036-.022.054-.088.123-.098.115.03-.026.135.068.212-.002.016.033-.065.06-.003a.274.274 0 01-.07.258c-.005-.043-.013-.13-.068-.092.004.043.032.098.003.13.08-.027-.027-.063.05-.073.016.018.005.043.003.06.012-.033.054-.02.071-.028.054.057.109.066.172.12a.128.128 0 00.047-.03.23.23 0 01-.073.188c.031.036.059.013.073.057-.095.001.017 0-.03.058.022.036.035-.015.06-.013a.108.108 0 01-.02.054c.058-.021.07-.138.136-.163a.644.644 0 01.167-.003 1.116 1.116 0 01-.295.275c-.028.032.06-.005.077.005.087-.013.02.095.071.106l.003-.051c.018-.008.049.053.039.079.018-.017.063-.113.097-.12.066.045.027.194-.026.243l-.036-.139c-.045.04.02.104-.034.153l.096.063c-.009-.011-.028-.054.007-.066.033.035.026.01.068.011a2.141 2.141 0 01.117-.398l.013.069.035-.016c.02.085-.095.305-.123.364.042.02.12-.086.13-.111.065.053-.064.19.012.235l-.043-.001c.007.022.08.053.057.065.036-.014.102-.063.103-.092l-.026.14c0-.016.076-.088.085-.105.025.017-.042.124-.068.123a.464.464 0 00.15-.028c.009.017-.074.081-.09.081a.064.064 0 00.058.058c-.02-.078.141-.186.184-.254l-.099.326a1.163 1.163 0 01.074-.108c-.052.077.064.192.133.234l-.008-.008c.008-.035.076-.01.077.032.008-.017 0-.017-.009-.025.085-.019-.037.152.056.124-.043-.025-.026-.06 0-.086.008.052.102.084.019.155.034-.001.044.024.077-.02l.037.112c.001-.014.016-.043.043-.03-.052-.024-.03-.135-.098-.099.041-.052.08-.067.096-.127.062.09.036.215.04.318l.105.02-.016.027.06-.05c-.001.021-.005.038.002.034a.049.049 0 00.013-.026.048.048 0 01.007.03.294.294 0 00.055-.122l-.046.018c.01-.042.024-.081.06-.086v.022c.008-.03.017-.054.031-.057l.033.073a.486.486 0 00-.063.024.138.138 0 01-.065.157l.059-.01a.75.75 0 01-.049.11c.03-.012.044-.03.07-.034-.076.05.185.012.102.044-.003.021-.08.023-.099.035a.154.154 0 01.04-.004l-.068.018c.034.001.044-.014.094-.007-.034.026-.077.03-.012.044-.003.014-.206-.016-.174-.006a.976.976 0 01.203.028l-.175-.014.124.019c-.018.004-.047.004.038.021-.06-.005-.057 0-.046.006-.07-.007-.199-.06-.25-.065a.82.82 0 01.14.049l.038.002c.08.055-.147-.038.015.044a.181.181 0 01.11.025l-.068-.008c.018.012.03.001.043.017a.68.68 0 01-.109-.03l.005.003-.045.009c.003-.005.029.01.024.016l-.051-.014a.04.04 0 01.026.043c-.025.037-.11-.118-.094-.047.008-.006.008.004.01 0 .006-.002 0 .036-.003.038-.075-.127-.167.071-.245-.053-.01.072.015.032.099.066l-.021.058c.02-.004.028-.021.053-.018zm.285-.132c-.04-.014.016-.003.039-.002.017.01.05.026-.039.003zm-.104-.375c-.025.005-.042.002-.039-.017a.04.04 0 01.04.017zm-1.84-2.207v-.003c.021.008.034.01 0 .003zm-.027-.017c-.013-.01-.021-.02-.014-.032a.02.02 0 00-.014.017c.003.021.015.02.028.015zm.41 4.228l.001.018c-.015-.006-.03-.011 0-.018z"/><path class="cls-1" d="M64.836 8.596a.095.095 0 00.022-.019.02.02 0 01-.022.02z"/><polygon class="cls-1" points="64.211 9.211 64.21 9.213 64.203 9.206 64.211 9.211"/><path class="cls-1" d="M63.25 7.224a.059.059 0 00.035-.002.024.024 0 01-.035.002zm-.46-1.27l.015.037c-.01-.015-.023-.013-.035-.014.01-.008.027-.014.02-.023zm-.46-.04c0-.009-.007-.01-.006-.018l.02-.015c.013.02.01.045-.014.033zm.307.127c-.035.027-.04-.001-.051-.027l.003.004c.041-.046.045-.012.048.023zm-.054-.032a.051.051 0 00-.015-.02c.016-.018.01.004.015.02zm.321.161c-.017 0 .037-.042.018-.036.033-.048.006.108-.018.037z"/><polygon class="cls-1" points="62.513 6.12 62.561 6.091 62.538 6.132 62.513 6.12"/><path class="cls-1" d="M62.683 6.253l-.04-.022a.02.02 0 00.007-.021c.019.018.046.033.033.043zm-.033-.043a.04.04 0 01-.017-.032.086.086 0 01.017.032z"/><polygon class="cls-1" points="62.54 6.175 62.556 6.177 62.579 6.197 62.54 6.175"/><path class="cls-1" d="M63.001 6.586l.021.045c-.01.016-.027.015-.034-.003.002-.017-.005-.035.013-.042zm-.206-.003a.091.091 0 00.045-.012l-.049.046zm.083.111c-.01.016.008.087-.03.04.01-.016-.011-.06.03-.04z"/><polygon class="cls-1" points="63.431 7.146 63.423 7.137 63.502 7.06 63.431 7.146"/><path class="cls-1" d="M63.7 7.772c-.06-.02.037-.059-.023-.07.008-.027.049.01.054-.017.007.043.03.044-.03.087zm.031-.087l-.001-.023a.057.057 0 01.001.023z"/><polygon class="cls-1" points="61.998 12.131 61.998 12.172 61.98 12.133 61.998 12.131"/><path class="cls-1" d="M61.894 12.138l.053.046-.063-.02c.007-.004.02-.012.01-.026zM64.767 8.8l.03.004c.03.006.033.01.033.01z"/><polygon class="cls-1" points="64.761 8.86 64.761 8.858 64.8 8.909 64.761 8.86"/><path class="cls-1" d="M64.414 8.959c.013-.011.038-.01.052-.022-.039.01-.016.093-.052.022z"/></svg>