<svg id="Слой_1" data-name="Слой 1" xmlns="http://www.w3.org/2000/svg" viewBox="0 0 80 50" width="80" height="50"><defs><style>.cls-1{fill:#fff}</style></defs><path class="cls-1" d="M9.758 24.175a.132.132 0 01-.078.097.56.56 0 01-.215.03.8.8 0 01-.12-.007.263.263 0 01-.075-.023.074.074 0 01-.04-.039.092.092 0 010-.058l.181-.909a1.26 1.26 0 01-.23.352 2.241 2.241 0 01-.397.354 2.416 2.416 0 01-.515.274 1.58 1.58 0 01-.577.11 1.355 1.355 0 01-.649-.138 1.085 1.085 0 01-.4-.358 1.372 1.372 0 01-.2-.498 2.917 2.917 0 01-.054-.555 4.201 4.201 0 01.049-.592 4.503 4.503 0 01.16-.699 4.591 4.591 0 01.289-.706 2.712 2.712 0 01.432-.622 2.042 2.042 0 01.596-.444 1.718 1.718 0 01.774-.169 1.495 1.495 0 01.761.179 2.055 2.055 0 01.557.48l.102-.478a.133.133 0 01.086-.098.586.586 0 01.212-.03.839.839 0 01.122.008.191.191 0 01.076.025.074.074 0 01.034.04.116.116 0 01.003.055zm.098-3.35a2.05 2.05 0 00-.56-.564 1.201 1.201 0 00-.661-.188 1.026 1.026 0 00-.53.14 1.513 1.513 0 00-.417.366 2.418 2.418 0 00-.31.514 4.083 4.083 0 00-.213.59 4.47 4.47 0 00-.122.587 3.865 3.865 0 00-.039.508 2.467 2.467 0 00.03.376 1.04 1.04 0 00.114.347.719.719 0 00.237.257.709.709 0 00.395.1 1.252 1.252 0 00.591-.159 2.041 2.041 0 00.554-.444 3.093 3.093 0 00.454-.68 3.483 3.483 0 00.296-.866zm6.291.298a4.245 4.245 0 01-.052.615 4.647 4.647 0 01-.163.706 4.202 4.202 0 01-.293.703 2.727 2.727 0 01-.435.612 2.018 2.018 0 01-.59.433 1.742 1.742 0 01-.767.163 1.78 1.78 0 01-.418-.046 1.488 1.488 0 01-.344-.13 1.557 1.557 0 01-.288-.195 2.096 2.096 0 01-.244-.244l-.435 2.187a.13.13 0 01-.022.054.132.132 0 01-.051.042.307.307 0 01-.09.025 1.166 1.166 0 01-.144.006 1.055 1.055 0 01-.137-.006.271.271 0 01-.086-.025.086.086 0 01-.041-.042.098.098 0 01-.005-.054l1.24-6.171a.12.12 0 01.074-.098.56.56 0 01.214-.03.784.784 0 01.12.008.265.265 0 01.076.022.067.067 0 01.036.039.135.135 0 01.003.059l-.18.903a1.259 1.259 0 01.229-.352 2.2 2.2 0 01.398-.353 2.326 2.326 0 01.515-.272 1.62 1.62 0 01.576-.107 1.395 1.395 0 01.615.122 1.091 1.091 0 01.403.33 1.309 1.309 0 01.22.49 2.67 2.67 0 01.066.606zm-.616.024a2.068 2.068 0 00-.041-.427 1.045 1.045 0 00-.132-.341.63.63 0 00-.24-.225.756.756 0 00-.363-.081 1.242 1.242 0 00-.59.16 2.047 2.047 0 00-.555.44 3.09 3.09 0 00-.457.677 3.303 3.303 0 00-.293.867l-.18.888a2.054 2.054 0 00.559.565 1.208 1.208 0 00.661.187 1.012 1.012 0 00.523-.137 1.49 1.49 0 00.415-.36 2.424 2.424 0 00.312-.51 3.996 3.996 0 00.218-.59 4.224 4.224 0 00.124-.592 3.983 3.983 0 00.04-.52zm6.194.063a4.198 4.198 0 01-.068.743 3.815 3.815 0 01-.208.725 3.36 3.36 0 01-.349.655 2.527 2.527 0 01-.491.532 2.246 2.246 0 01-.632.358 2.195 2.195 0 01-.776.132 2.345 2.345 0 01-.775-.112 1.318 1.318 0 01-.524-.324 1.285 1.285 0 01-.3-.518 2.306 2.306 0 01-.096-.686 4.115 4.115 0 01.069-.743 3.695 3.695 0 01.207-.722 3.396 3.396 0 01.35-.655 2.454 2.454 0 01.49-.532 2.31 2.31 0 01.632-.356 2.195 2.195 0 01.777-.132 2.36 2.36 0 01.773.112 1.327 1.327 0 01.526.325 1.285 1.285 0 01.3.515 2.276 2.276 0 01.095.684zm-.615.03a1.842 1.842 0 00-.059-.483.838.838 0 00-.542-.593 1.656 1.656 0 00-1.106.03 1.635 1.635 0 00-.469.297 1.98 1.98 0 00-.361.441 2.864 2.864 0 00-.254.545 3.506 3.506 0 00-.149.6 3.851 3.851 0 00-.048.613 1.831 1.831 0 00.058.484.832.832 0 00.542.593 1.67 1.67 0 001.106-.029 1.597 1.597 0 00.468-.3 1.993 1.993 0 00.362-.445 2.797 2.797 0 00.254-.544 3.556 3.556 0 00.15-.599 3.925 3.925 0 00.048-.61zm7.15 2.876a.193.193 0 01-.066.144.434.434 0 01-.232.041c-.058 0-.107 0-.146-.004a.352.352 0 01-.09-.017.09.09 0 01-.045-.034.087.087 0 01-.007-.057l.181-2.685a5.57 5.57 0 01.022-.256l.037-.355c.012-.127.026-.256.04-.387s.03-.252.048-.36h-.01l-.166.301-.176.32-.179.325c-.06.108-.116.211-.168.31l-1.538 2.71a.708.708 0 01-.056.09.213.213 0 01-.064.058.256.256 0 01-.09.032.691.691 0 01-.127.01.753.753 0 01-.117-.007.177.177 0 01-.073-.028.133.133 0 01-.047-.055.38.38 0 01-.026-.096l-.425-2.715a9.69 9.69 0 01-.054-.344l-.047-.335a8.744 8.744 0 01-.06-.576h-.01l-.096.327-.102.347c-.034.117-.07.233-.108.35-.037.115-.072.226-.104.334l-.85 2.631a.408.408 0 01-.044.088.156.156 0 01-.061.052.289.289 0 01-.095.022c-.04.004-.09.004-.151.004a.825.825 0 01-.15-.01.135.135 0 01-.073-.03.061.061 0 01-.017-.057.72.72 0 01.02-.088l1.357-4.2a.443.443 0 01.137-.195.367.367 0 01.23-.068h.214a.818.818 0 01.186.018.243.243 0 01.119.06.279.279 0 01.071.115 1.001 1.001 0 01.04.178l.327 2.075c.019.124.037.246.053.367l.046.356c.015.117.028.231.04.342l.031.322h.01l.173-.337a67.433 67.433 0 01.376-.715c.063-.119.128-.233.193-.344l1.133-2.066a1.191 1.191 0 01.11-.168.553.553 0 01.12-.115.459.459 0 01.141-.066.667.667 0 01.18-.022h.289a.322.322 0 01.205.054.218.218 0 01.049.195zm5.256.059a.133.133 0 01-.078.097.563.563 0 01-.215.03.812.812 0 01-.12-.007.264.264 0 01-.075-.023.073.073 0 01-.04-.039.085.085 0 010-.058l.181-.909a1.281 1.281 0 01-.229.352 2.245 2.245 0 01-.398.354 2.412 2.412 0 01-.515.274 1.583 1.583 0 01-.576.11 1.354 1.354 0 01-.65-.138 1.081 1.081 0 01-.4-.358 1.364 1.364 0 01-.2-.498 2.878 2.878 0 01-.054-.555 4.129 4.129 0 01.049-.592 4.393 4.393 0 01.161-.699 4.543 4.543 0 01.288-.706 2.71 2.71 0 01.432-.622 2.049 2.049 0 01.595-.444 1.72 1.72 0 01.775-.169 1.495 1.495 0 01.762.179 2.055 2.055 0 01.556.48l.103-.478a.133.133 0 01.085-.098.59.59 0 01.213-.03.844.844 0 01.122.008.189.189 0 01.075.025.072.072 0 01.034.04.122.122 0 01.003.055zm.098-3.35a2.044 2.044 0 00-.56-.564 1.198 1.198 0 00-.66-.188 1.03 1.03 0 00-.531.14 1.511 1.511 0 00-.417.366 2.42 2.42 0 00-.31.514 4.08 4.08 0 00-.213.59 4.318 4.318 0 00-.122.587 3.782 3.782 0 00-.039.508 2.467 2.467 0 00.03.376 1.05 1.05 0 00.114.347.72.72 0 00.237.257.707.707 0 00.396.1 1.253 1.253 0 00.59-.159 2.047 2.047 0 00.554-.444 3.093 3.093 0 00.454-.68 3.503 3.503 0 00.296-.866zm8.263 3.35a.131.131 0 01-.022.053.11.11 0 01-.054.04.426.426 0 01-.094.024.846.846 0 01-.142.01.786.786 0 01-.142-.01.293.293 0 01-.083-.025.071.071 0 01-.039-.092l.552-2.774.044-.293a1.943 1.943 0 00.02-.268 1.009 1.009 0 00-.14-.569.53.53 0 00-.476-.208 1.153 1.153 0 00-.566.161 2.141 2.141 0 00-.545.448 3.061 3.061 0 00-.454.68 3.385 3.385 0 00-.29.865l-.39 1.958a.199.199 0 01-.028.053.11.11 0 01-.054.04.426.426 0 01-.094.024.846.846 0 01-.142.01.748.748 0 01-.137-.01.293.293 0 01-.083-.025.073.073 0 01-.039-.039.09.09 0 01-.005-.053l.552-2.774a2.043 2.043 0 00.05-.314c.01-.103.013-.197.013-.282a.929.929 0 00-.141-.542.542.542 0 00-.474-.2 1.153 1.153 0 00-.566.161 2.14 2.14 0 00-.545.448 3.061 3.061 0 00-.454.68 3.385 3.385 0 00-.29.864l-.386 1.958a.199.199 0 01-.027.054.11.11 0 01-.054.04.426.426 0 01-.095.024.846.846 0 01-.141.01.786.786 0 01-.142-.01.293.293 0 01-.083-.025.071.071 0 01-.039-.093l.889-4.418a.135.135 0 01.021-.054.132.132 0 01.052-.041.27.27 0 01.088-.025.94.94 0 01.127-.007.844.844 0 01.122.007.189.189 0 01.075.025.072.072 0 01.034.04.123.123 0 01.003.055l-.18.903a1.237 1.237 0 01.229-.352 2.262 2.262 0 01.393-.353 2.286 2.286 0 01.5-.272 1.502 1.502 0 01.552-.107 1.44 1.44 0 01.513.08.893.893 0 01.344.226.856.856 0 01.195.341 1.715 1.715 0 01.071.437 1.828 1.828 0 01.26-.357 2.36 2.36 0 01.397-.351 2.397 2.397 0 01.496-.269 1.466 1.466 0 01.547-.107 1.373 1.373 0 01.532.09.904.904 0 01.347.247.933.933 0 01.187.366 1.732 1.732 0 01.057.454 3.138 3.138 0 01-.018.335c-.01.109-.028.22-.05.334zm5.681 0a.122.122 0 01-.024.053.136.136 0 01-.057.04.42.42 0 01-.093.024.825.825 0 01-.143.01.749.749 0 01-.137-.01.293.293 0 01-.083-.025.071.071 0 01-.039-.092l.405-2.046H44.98l-.405 2.046a.199.199 0 01-.028.053.11.11 0 01-.053.04.426.426 0 01-.095.024.846.846 0 01-.142.01.786.786 0 01-.141-.01.293.293 0 01-.083-.025.071.071 0 01-.04-.092l.88-4.42a.135.135 0 01.021-.053.133.133 0 01.054-.041.317.317 0 01.095-.025 1.202 1.202 0 01.147-.007 1.045 1.045 0 01.137.007.227.227 0 01.083.025.072.072 0 01.036.04.123.123 0 01.003.055l-.371 1.875h2.412l.37-1.875a.135.135 0 01.022-.054.133.133 0 01.054-.041.317.317 0 01.096-.025 1.151 1.151 0 01.141-.007 1.083 1.083 0 01.142.007.227.227 0 01.083.025.072.072 0 01.036.04.122.122 0 01.003.055zm5.695-1.675a1.887 1.887 0 01-.164.815 1.66 1.66 0 01-.436.576 1.804 1.804 0 01-.633.342 2.485 2.485 0 01-.749.112 1.784 1.784 0 01-.71-.124 1.046 1.046 0 01-.655-.857 1.975 1.975 0 01.027-.65l.586-2.958a.108.108 0 01.025-.054.148.148 0 01.055-.041.317.317 0 01.096-.025 1.15 1.15 0 01.141-.007 1.083 1.083 0 01.142.007.227.227 0 01.083.025.072.072 0 01.036.04.123.123 0 01.003.055l-.327 1.684a2.644 2.644 0 01.451-.102 3.78 3.78 0 01.51-.035 2.195 2.195 0 01.64.086 1.422 1.422 0 01.48.242 1.046 1.046 0 01.297.376 1.154 1.154 0 01.102.493zm-.585.068a.768.768 0 00-.069-.329.657.657 0 00-.198-.244.89.89 0 00-.315-.152 1.562 1.562 0 00-.415-.051 3.09 3.09 0 00-.537.044 3.288 3.288 0 00-.468.117l-.152.737a1.092 1.092 0 00.1.877.825.825 0 00.706.29 1.58 1.58 0 00.534-.088 1.186 1.186 0 00.711-.66 1.348 1.348 0 00.103-.54zm1.801 1.607a.2.2 0 01-.027.053.11.11 0 01-.054.04.426.426 0 01-.094.024.846.846 0 01-.142.01.806.806 0 01-.14-.01.299.299 0 01-.085-.025.071.071 0 01-.039-.092l.88-4.42a.108.108 0 01.024-.053.148.148 0 01.055-.041.317.317 0 01.096-.025 1.151 1.151 0 01.141-.007 1.045 1.045 0 01.137.007.227.227 0 01.083.025.087.087 0 01.04.04.11.11 0 01.004.055zm5.569 0a.131.131 0 01-.023.053.11.11 0 01-.05.04.4.4 0 01-.088.024.691.691 0 01-.127.01.61.61 0 01-.123-.01.259.259 0 01-.076-.025.074.074 0 01-.036-.039.073.073 0 010-.053l.171-.89a1.26 1.26 0 01-.23.35 2.308 2.308 0 01-.903.616 1.596 1.596 0 01-.561.104 1.502 1.502 0 01-.55-.088.91.91 0 01-.357-.24.927.927 0 01-.192-.367 1.75 1.75 0 01-.059-.467 2.64 2.64 0 01.02-.322c.013-.11.03-.223.054-.337l.551-2.778a.108.108 0 01.025-.054.148.148 0 01.056-.041.317.317 0 01.095-.025 1.151 1.151 0 01.142-.007 1.045 1.045 0 01.137.007.227.227 0 01.083.025.087.087 0 01.039.04.11.11 0 01.005.055l-.552 2.778c-.02.095-.035.191-.047.29a2.823 2.823 0 00-.017.306 1.33 1.33 0 00.032.295.645.645 0 00.107.235.496.496 0 00.195.153.719.719 0 00.296.054 1.254 1.254 0 00.591-.158 2.057 2.057 0 00.554-.443 3.025 3.025 0 00.454-.675 3.52 3.52 0 00.296-.863l.395-1.972a.108.108 0 01.025-.054.148.148 0 01.055-.041.317.317 0 01.096-.025 1.15 1.15 0 01.142-.007 1.083 1.083 0 01.141.007.227.227 0 01.083.025.072.072 0 01.036.04.123.123 0 01.003.055zm.825-6.495a.987.987 0 01-.034.23 1.25 1.25 0 01-.113.281 1.809 1.809 0 01-.2.288 1.418 1.418 0 01-.296.259 1.592 1.592 0 01-.402.186 1.785 1.785 0 01-.523.07 1.594 1.594 0 01-.54-.08.984.984 0 01-.36-.218.82.82 0 01-.203-.314 1.09 1.09 0 01-.063-.374c0-.042 0-.085.004-.13a1.01 1.01 0 01.015-.12 1.23 1.23 0 01.02-.094.114.114 0 01.024-.057.182.182 0 01.083-.039.9.9 0 01.195-.015.735.735 0 01.117.008.165.165 0 01.069.025.09.09 0 01.034.044.192.192 0 01.01.06.363.363 0 01-.015.1.596.596 0 00-.015.154.575.575 0 00.152.405.665.665 0 00.513.166 1.094 1.094 0 00.338-.05.913.913 0 00.287-.152.888.888 0 00.214-.252 1.126 1.126 0 00.127-.351.148.148 0 01.025-.069.174.174 0 01.05-.049.267.267 0 01.086-.029.848.848 0 01.137-.01 1.013 1.013 0 01.139.008.238.238 0 01.078.022.08.08 0 01.037.039.175.175 0 01.01.058zm-45.01 12.641a4.244 4.244 0 01-.052.615 4.649 4.649 0 01-.163.706 4.202 4.202 0 01-.293.703 2.728 2.728 0 01-.435.613 2.018 2.018 0 01-.59.432 1.742 1.742 0 01-.767.163 1.78 1.78 0 01-.418-.045 1.488 1.488 0 01-.344-.13 1.557 1.557 0 01-.288-.196 2.096 2.096 0 01-.244-.244l-.435 2.188a.13.13 0 01-.022.053.132.132 0 01-.051.042.307.307 0 01-.09.025 1.166 1.166 0 01-.144.007 1.055 1.055 0 01-.137-.007.271.271 0 01-.086-.025.086.086 0 01-.041-.042.098.098 0 01-.005-.053l1.24-6.172a.12.12 0 01.074-.098.56.56 0 01.214-.03.784.784 0 01.12.009.265.265 0 01.076.021.067.067 0 01.036.04.135.135 0 01.003.058l-.18.903a1.259 1.259 0 01.229-.351 2.2 2.2 0 01.398-.354 2.327 2.327 0 01.515-.271 1.62 1.62 0 01.576-.108 1.395 1.395 0 01.615.122 1.091 1.091 0 01.403.33 1.309 1.309 0 01.22.49 2.67 2.67 0 01.066.606zm-.616.024a2.068 2.068 0 00-.041-.426 1.045 1.045 0 00-.132-.342.63.63 0 00-.24-.225.756.756 0 00-.363-.08 1.242 1.242 0 00-.59.158 2.047 2.047 0 00-.555.442 3.089 3.089 0 00-.457.677 3.303 3.303 0 00-.293.866l-.18.888a2.054 2.054 0 00.559.565 1.208 1.208 0 00.661.187 1.012 1.012 0 00.523-.136 1.49 1.49 0 00.415-.362 2.424 2.424 0 00.312-.51 3.996 3.996 0 00.218-.588 4.225 4.225 0 00.124-.593 3.983 3.983 0 00.04-.52zm6.194.064a4.197 4.197 0 01-.068.742 3.814 3.814 0 01-.208.726 3.36 3.36 0 01-.349.654 2.527 2.527 0 01-.491.532 2.246 2.246 0 01-.632.359 2.196 2.196 0 01-.776.131 2.345 2.345 0 01-.775-.112 1.318 1.318 0 01-.524-.324 1.285 1.285 0 01-.3-.518 2.306 2.306 0 01-.096-.686 4.116 4.116 0 01.069-.742 3.695 3.695 0 01.207-.723 3.397 3.397 0 01.35-.654 2.453 2.453 0 01.49-.533 2.31 2.31 0 01.632-.356 2.196 2.196 0 01.777-.132 2.36 2.36 0 01.773.112 1.328 1.328 0 01.526.326 1.285 1.285 0 01.3.514 2.276 2.276 0 01.095.684zm-.615.03a1.842 1.842 0 00-.059-.484.838.838 0 00-.542-.593 1.656 1.656 0 00-1.106.03 1.635 1.635 0 00-.469.297 1.98 1.98 0 00-.361.442 2.864 2.864 0 00-.254.545 3.506 3.506 0 00-.148.6 3.85 3.85 0 00-.05.612 1.831 1.831 0 00.06.484.832.832 0 00.541.594 1.67 1.67 0 001.106-.03 1.597 1.597 0 00.469-.3 1.993 1.993 0 00.36-.445 2.797 2.797 0 00.255-.544 3.555 3.555 0 00.15-.598 3.924 3.924 0 00.048-.61zm5.329-.636a.98.98 0 01-.081.386 1.277 1.277 0 01-.227.355 1.657 1.657 0 01-.346.29 1.553 1.553 0 01-.44.19v.01a1.01 1.01 0 01.295.078.926.926 0 01.269.176.879.879 0 01.193.268.834.834 0 01.073.357 1.433 1.433 0 01-.149.647 1.512 1.512 0 01-.425.52 2.073 2.073 0 01-.669.346 2.828 2.828 0 01-.876.127 2.337 2.337 0 01-.437-.039 2.624 2.624 0 01-.378-.097 1.668 1.668 0 01-.298-.132.912.912 0 01-.195-.142.163.163 0 01-.05-.136.708.708 0 01.013-.124.717.717 0 01.034-.122.322.322 0 01.053-.093.094.094 0 01.072-.037.255.255 0 01.133.066 2.038 2.038 0 00.228.147 1.701 1.701 0 00.879.211 2.17 2.17 0 00.617-.08 1.408 1.408 0 00.46-.224.965.965 0 00.285-.345.994.994 0 00.098-.44.475.475 0 00-.066-.234.614.614 0 00-.21-.21 1.221 1.221 0 00-.376-.148 2.414 2.414 0 00-.569-.057h-.552a.109.109 0 01-.083-.031.122.122 0 01-.029-.086.577.577 0 01.01-.09.728.728 0 01.031-.127.357.357 0 01.064-.115.134.134 0 01.105-.049h.444a2.724 2.724 0 00.625-.065 1.562 1.562 0 00.476-.19.9.9 0 00.303-.302.754.754 0 00.105-.395.49.49 0 00-.234-.451 1.18 1.18 0 00-.625-.145 1.99 1.99 0 00-.535.069 2.86 2.86 0 00-.427.154 5.194 5.194 0 00-.31.153.453.453 0 01-.174.069c-.048 0-.073-.038-.073-.113a.578.578 0 01.012-.112.898.898 0 01.032-.114.688.688 0 01.046-.106.39.39 0 01.062-.083.833.833 0 01.192-.122 2.436 2.436 0 01.342-.137 3.897 3.897 0 01.428-.109 2.281 2.281 0 01.459-.047 2.404 2.404 0 01.587.067 1.23 1.23 0 01.44.197.885.885 0 01.273.325.982.982 0 01.096.441zm6.525 3.511a.193.193 0 01-.066.145.434.434 0 01-.231.04c-.059 0-.108 0-.147-.004a.352.352 0 01-.09-.017.09.09 0 01-.045-.034.087.087 0 01-.006-.057l.18-2.685c.003-.062.01-.148.022-.256l.037-.354c.012-.127.026-.256.04-.388s.031-.252.048-.36h-.01l-.166.301-.176.32q-.088.162-.179.325c-.06.108-.116.212-.168.31l-1.538 2.71a.707.707 0 01-.056.09.213.213 0 01-.064.059.257.257 0 01-.09.031.692.692 0 01-.127.01.754.754 0 01-.117-.007.177.177 0 01-.073-.027.133.133 0 01-.047-.056.38.38 0 01-.026-.096L29.15 30.6a9.713 9.713 0 01-.054-.343l-.047-.335a9.035 9.035 0 01-.06-.576h-.01c-.03.104-.061.213-.096.327l-.102.346c-.034.116-.07.234-.108.35-.037.115-.072.226-.104.334l-.85 2.632a.408.408 0 01-.044.088.157.157 0 01-.061.051.289.289 0 01-.095.022c-.039.004-.09.005-.151.005a.826.826 0 01-.15-.01.135.135 0 01-.073-.031.061.061 0 01-.017-.057.718.718 0 01.02-.088l1.357-4.199a.443.443 0 01.137-.195.367.367 0 01.23-.069h.214a.818.818 0 01.186.018.243.243 0 01.12.06.28.28 0 01.07.116 1 1 0 01.04.177l.327 2.076c.02.124.037.246.053.366l.046.356c.014.116.029.232.04.342l.032.322h.01l.172-.337a67.825 67.825 0 01.376-.714c.064-.12.128-.234.194-.345l1.132-2.066a1.19 1.19 0 01.11-.168.553.553 0 01.12-.115.459.459 0 01.141-.065.667.667 0 01.181-.023h.288a.322.322 0 01.205.054.218.218 0 01.05.195zm5.256.059a.133.133 0 01-.078.097.562.562 0 01-.215.03.814.814 0 01-.12-.007.264.264 0 01-.075-.023.073.073 0 01-.039-.039.085.085 0 010-.058l.18-.908a1.281 1.281 0 01-.229.351 2.245 2.245 0 01-.398.355 2.413 2.413 0 01-.515.273 1.583 1.583 0 01-.576.11 1.354 1.354 0 01-.65-.137 1.081 1.081 0 01-.4-.359 1.364 1.364 0 01-.2-.498 2.878 2.878 0 01-.054-.554 4.127 4.127 0 01.049-.593 4.392 4.392 0 01.161-.698 4.544 4.544 0 01.288-.706 2.71 2.71 0 01.432-.622 2.049 2.049 0 01.596-.445 1.72 1.72 0 01.774-.169 1.495 1.495 0 01.762.179 2.055 2.055 0 01.556.48l.103-.478a.133.133 0 01.085-.098.59.59 0 01.213-.029.844.844 0 01.122.008.189.189 0 01.075.024.072.072 0 01.034.041.123.123 0 01.003.054zm.098-3.35a2.044 2.044 0 00-.56-.563 1.198 1.198 0 00-.66-.189 1.03 1.03 0 00-.531.14 1.511 1.511 0 00-.417.366 2.42 2.42 0 00-.31.515 4.079 4.079 0 00-.212.589 4.317 4.317 0 00-.123.587 3.783 3.783 0 00-.039.508 2.467 2.467 0 00.03.376 1.05 1.05 0 00.114.347.72.72 0 00.237.257.707.707 0 00.396.1 1.253 1.253 0 00.59-.159 2.047 2.047 0 00.554-.444 3.092 3.092 0 00.454-.679 3.503 3.503 0 00.296-.867zm6.291.298a4.251 4.251 0 01-.052.615 4.704 4.704 0 01-.163.706 4.285 4.285 0 01-.293.703 2.76 2.76 0 01-.434.613 2.024 2.024 0 01-.591.432 1.743 1.743 0 01-.767.163 1.784 1.784 0 01-.418-.045 1.484 1.484 0 01-.344-.13 1.541 1.541 0 01-.288-.196 2.06 2.06 0 01-.244-.244l-.434 2.188a.13.13 0 01-.074.095.31.31 0 01-.09.025 1.152 1.152 0 01-.144.007 1.045 1.045 0 01-.137-.007.275.275 0 01-.086-.025.085.085 0 01-.04-.042.09.09 0 01-.006-.053l1.24-6.172a.119.119 0 01.074-.098.556.556 0 01.215-.03.772.772 0 01.119.009.264.264 0 01.076.021.066.066 0 01.036.04.143.143 0 01.003.058l-.18.903a1.237 1.237 0 01.229-.351 2.197 2.197 0 01.397-.354 2.33 2.33 0 01.516-.271 1.618 1.618 0 01.576-.108 1.395 1.395 0 01.615.122 1.09 1.09 0 01.403.33 1.309 1.309 0 01.22.49 2.67 2.67 0 01.066.606zm-.615.024a2.034 2.034 0 00-.042-.426 1.023 1.023 0 00-.132-.342.622.622 0 00-.24-.225.754.754 0 00-.363-.08 1.24 1.24 0 00-.59.158 2.042 2.042 0 00-.555.442 3.07 3.07 0 00-.456.677 3.268 3.268 0 00-.293.866l-.18.888a2.06 2.06 0 00.558.565 1.211 1.211 0 00.662.187 1.013 1.013 0 00.522-.136 1.497 1.497 0 00.415-.362 2.444 2.444 0 00.313-.51 3.94 3.94 0 00.217-.588 4.23 4.23 0 00.125-.593 4.07 4.07 0 00.039-.52zm5.368 3.028a.131.131 0 01-.023.053.11.11 0 01-.05.04.4.4 0 01-.088.024.692.692 0 01-.127.01.61.61 0 01-.122-.01.258.258 0 01-.076-.024.074.074 0 01-.037-.04.073.073 0 010-.053l.171-.889a1.261 1.261 0 01-.23.35 2.308 2.308 0 01-.903.615 1.595 1.595 0 01-.561.104 1.502 1.502 0 01-.55-.087.91.91 0 01-.356-.242.928.928 0 01-.193-.366 1.75 1.75 0 01-.058-.467 2.64 2.64 0 01.02-.322c.012-.11.03-.223.053-.337l.552-2.778a.108.108 0 01.024-.054.148.148 0 01.056-.04.316.316 0 01.096-.025 1.151 1.151 0 01.141-.008 1.045 1.045 0 01.137.008.227.227 0 01.083.024.087.087 0 01.039.041.11.11 0 01.005.054l-.552 2.778c-.02.095-.035.192-.047.291a2.826 2.826 0 00-.016.305 1.329 1.329 0 00.03.296.645.645 0 00.108.234.496.496 0 00.196.153.719.719 0 00.295.054 1.253 1.253 0 00.591-.158 2.057 2.057 0 00.554-.442 3.025 3.025 0 00.454-.676 3.52 3.52 0 00.296-.863l.395-1.972a.108.108 0 01.025-.054.148.148 0 01.056-.04.316.316 0 01.095-.025 1.151 1.151 0 01.142-.008 1.083 1.083 0 01.141.008.227.227 0 01.083.024.072.072 0 01.037.041.122.122 0 01.003.054zm5.695 0a.122.122 0 01-.024.053.136.136 0 01-.057.04.42.42 0 01-.093.024.826.826 0 01-.143.01.75.75 0 01-.137-.01.293.293 0 01-.083-.024.071.071 0 01-.039-.093l.405-2.046h-2.407l-.405 2.046a.199.199 0 01-.028.053.11.11 0 01-.053.04.425.425 0 01-.095.024.847.847 0 01-.142.01.787.787 0 01-.141-.01.293.293 0 01-.083-.024.071.071 0 01-.04-.093l.88-4.42a.135.135 0 01.021-.053.133.133 0 01.054-.04.316.316 0 01.096-.025 1.202 1.202 0 01.146-.008 1.045 1.045 0 01.137.008.227.227 0 01.083.024.072.072 0 01.036.041.123.123 0 01.003.054l-.371 1.875h2.412l.371-1.875a.135.135 0 01.021-.054.133.133 0 01.054-.04.316.316 0 01.096-.025 1.15 1.15 0 01.141-.008 1.083 1.083 0 01.142.008.227.227 0 01.083.024.072.072 0 01.036.041.123.123 0 01.003.054zm5.074-6.781c-.043.003-.027-.07-.034-.085.073.023.032.105.034.085z"/><polygon class="cls-1" points="60.528 26.824 60.519 26.793 60.613 26.877 60.528 26.824"/><path class="cls-1" d="M61.17 26.908c-.082.11-.223-.077-.348-.034l-.023.028-.038-.108a3.967 3.967 0 00.408.114zm.394-.192c-.032.044.064.06-.084-.004l.018-.009a.375.375 0 00.066.013zm-.066-.013c-.067-.02.053-.03 0 0zm.305.103l-.078-.065c.025-.024.107-.011.082-.04.086.047.06.07-.004.105zm.061.112l-.041-.03c.01-.01.024-.011.04.03zm-.129-.092l.088.062c-.018.017-.03.057-.041-.025-.002.04-.012 0-.047-.037zm-.059.006c-.057.015-.124.017-.046.082-.164-.058-.12-.14.046-.082zm-.5.214l-.07.022-.048-.056c.023.027.13-.005.118.034zm1.199-.166c-.003.029-.05.06-.067.092l-.056-.047c.039-.01.107-.01.123-.044zm-.067.092l.08.078c-.085-.026-.094-.052-.08-.078z"/><polygon class="cls-1" points="61.843 27.06 61.709 26.926 61.873 27.068 61.843 27.06"/><polygon class="cls-1" points="62.735 27.01 62.702 26.931 62.766 27.057 62.735 27.01"/><path class="cls-1" d="M62.97 27.11c-.022-.065.084-.064.054-.11a.402.402 0 01.137.153.215.215 0 00-.191-.043zm.253.13a.521.521 0 01-.062-.087.254.254 0 01.062.086zm-.673-.144a.117.117 0 01.098-.047l-.061.06zm.035.014l.002-.001.08.025zm-.045-.017l.01.003c-.006.006-.01.008-.01-.003zm-.426-.039c.045.055.148.127.016.163-.025-.06.05-.08-.016-.163zm.351.114l-.103-.02c.008-.019.034-.04.014-.07z"/><polygon class="cls-1" points="62.505 27.209 62.465 27.168 62.503 27.175 62.505 27.209"/><path class="cls-1" d="M63.027 27.243a.281.281 0 00.127.092.756.756 0 01-.178-.042c0-.025-.009-.075.051-.05zm-.217-.058l.008.008c-.008.004-.014.004-.008-.008z"/><polygon class="cls-1" points="63.671 27.532 63.658 27.541 63.661 27.528 63.671 27.532"/><path class="cls-1" d="M62.962 27.303a.09.09 0 01-.083-.06.527.527 0 00.097.05c0 .012-.002.019-.014.01zm.393.024a.532.532 0 01-.09.012c.031-.015.09-.034.09-.012zm-.516-.149l-.005-.006c.02-.01.015-.003.005.006zm0 0a.256.256 0 01.04.065.325.325 0 01-.062-.05.084.084 0 00.022-.015zm.779.879a.137.137 0 00-.175-.152c-.071-.082.082-.28.215-.364-.01.03-.021.056.054.14-.047.017-.243-.012-.19.081.107.092.11.026.184.02-.086.057.1.194.02.3l-.086-.094c-.01.018.014.066-.022.069zm-.148-.581l-.036-.024a.398.398 0 00.177-.037c.053.056.055.089.05.113.002-.005-.2-.067-.2-.067z"/><path class="cls-1" d="M63.254 27.385c.003.084.086.15-.004.206-.114-.048-.057-.09-.115-.148.182.088-.038-.06.114-.05a.476.476 0 00-.095-.058.773.773 0 00.112.004l-.006.003h-.001c-.012.006-.017.01-.006.009l.004.003a.106.106 0 00-.003.03c.061.006.017-.015.003-.03l.002-.012.175.11a.607.607 0 01-.18-.067zm-1.069.017a.025.025 0 00.01-.015c.01.014.013.021-.01.015zm.09-.016c-.01-.016-.012-.05-.059-.058-.045.01-.01.035-.02.059-.02-.029-.08-.077.018-.093l.01.015c.082.002.21-.054.2-.069a.542.542 0 01-.15.146zm.482.018l.143.094-.102.033.018-.036c-.094-.018-.058-.058-.059-.091z"/><polygon class="cls-1" points="63.704 27.505 63.717 27.42 63.757 27.569 63.704 27.505"/><polygon class="cls-1" points="63.896 27.61 63.918 27.542 63.952 27.607 63.896 27.61"/><path class="cls-1" d="M72.163 36.159l.008.051a.163.163 0 01-.008-.051zm-.183-.287l.025-.026c-.007.023-.015.036-.025.026zm-3.62-5.355c.097-.004.225-.03.166.025l-.067.045a.156.156 0 00-.1-.07zm2.23 2.869h-.031l.026-.085zm-.213.248l.097.037a.313.313 0 01-.097-.037zm2.647 4.173l-.047.086c-.037-.077.015-.062.047-.086zm-7.18-9.107a.428.428 0 01.157.041c-.088 0-.175.025-.157-.04zm6.946 6.891c.004.033-.003.053-.018.062-.004-.034-.001-.057.019-.062zm-6.637-6.756l-.038-.002a.377.377 0 00-.114-.092c.065 0 .13.016.152.094zm8.891 15.328l.012.014c-.01.003-.012-.004-.012-.014zm.874 1.962a.511.511 0 00.006-.084.158.158 0 01-.006.084zM64.701 27.97c-.04-.026-.002-.011 0 0zm-.341.176a.052.052 0 01-.002.042.066.066 0 00.001-.042zm1.906 1.342l.003.002c-.02.004-.016.003-.003-.002zm-1.644-1.518a.266.266 0 01.064.006.274.274 0 01-.064-.006zm.026-.029l-.04-.01c0-.015.009-.02.04.01z"/><path class="cls-1" d="M64.757 28.002a.267.267 0 00-.071-.026.021.021 0 00.015-.007zm9.738 12.585l.01.007c-.015.052-.017.032-.01-.007z"/><polygon class="cls-1" points="68.702 31.898 68.701 31.892 68.708 31.895 68.702 31.898"/><path class="cls-1" d="M68.775 32.053c.019-.118-.017-.137-.067-.158l.192-.127z"/><path class="cls-1" d="M72.509 36.75c.164.073.123.258.108.357.059.03.137-.13.184.027.074.217-.178.052-.134.181l.161.022c.008.192.14.265.216.39a.097.097 0 01-.008.068c.115.114.029.347.116.432.012-.036.1.024.134.024l.02.222c-.01-.097.058-.125.114-.171.022.062 0 .107.01.152.011-.036.023-.072.068-.055l-.014.25a.12.12 0 01-.044-.045c.023.05.033.176.121.223.023-.018.035-.053.058-.071-.102-.027-.056-.089-.021-.143.055.143.033.027.112.072a.118.118 0 01-.093.177c.078.098.113.126.099.266l.08-.06.02.116.072-.132c.153.174-.138.103 0 .308l.08-.033c.002.102-.123.186-.001.215-.018.105-.167-.1-.111.106a.383.383 0 01.15.134c-.014.078-.114-.012-.118-.057.07.314.347.082.338.393-.093-.072-.13.133-.207-.085-.011.12.193.162.143.302l.08-.107a.225.225 0 01-.011.121l.077-.037c-.093.183.16.23.002.37.127-.103.028.103.105.138.063-.144-.119-.316.011-.376.06.038.01.106.07.143a.297.297 0 01.046-.127c.14.148.017.297.02.412l-.036-.194c-.13.059.007.09-.081.175.11.068.017.175.082.238-.006-.02.007-.025.001-.046.048.206.286.2.31.282.039.077.002.25-.07.21-.022.077-.027-.285-.177-.118.236.062-.017.26.188.48.046-.13.133.037.164-.077a.224.224 0 01-.061.208l.074.022c-.106.193-.12.068-.138.325.03-.091.119.077.15.005a.263.263 0 01-.01.193l.007-.01c.029.25.135.184.09.425l-.042-.015a5.556 5.556 0 00.04.99l-.047-.103c.025.03-.037.213.038.3.002-.019.015-.053.008-.07a.142.142 0 01.137.1l-.064.036.057.024c.016.113-.103-.023-.087.089.208.048.092.48.25.569-.142.086-.022-.214-.15-.121a.224.224 0 01.06.12l-.086-.02a3.353 3.353 0 01.11.776l.019-.013c.034.11.019.169-.055.217.04.023.06-.056.096-.013-.217.19.164.388.012.504.173-.012.34.252.473.15l-.02.08c.114-.021.001-.254.12-.298l-.122-.26c.043.009.107-.033.122.009.001-.064.007-.12.07-.035-.315-.614.025-1.258-.243-1.848.005-.041.048-.022.077-.009-.124-.1.043-.112.05-.175l-.178-.144c.038-.071.093-.026.124-.034-.01-.314-.201-.59-.141-.853-.067-.07-.124.04-.157-.06.18.114.038-.317.16-.248-.195-.066-.128-.36-.353-.267-.044-.117.075-.121.105-.09a.58.58 0 01-.028-.386c-.074-.064-.103-.665-.31-.741.135.053.057-.023.086-.12l.119.046-.058-.185c0-.04-.007-.05-.015-.047-.013-.03-.056.024-.101-.048-.04-.124.004-.145.033-.23l.022.014-.022-.087c-.025-.06-.02.25-.143.065.026-.011.114-.172.023-.202.043.1-.03.11-.074.082l-.059-.14.142.005c-.157-.412-.401-.806-.554-1.247-.097.047-.127-.304-.271-.196l.022.01c.034.108-.137.023-.16-.068.092.066.081-.224.206-.022l-.005-.197c.252-.226-.238-.43-.263-.724a.062.062 0 01-.024.042c-.014-.27-.319-.46-.297-.534l-.089.022a.409.409 0 00-.15-.47c-.012.009-.02.046-.056.022a.284.284 0 00-.052-.308l-.02.02-.126-.239c-.235.144-.094-.484-.39-.396.041-.088-.039-.27-.052-.366a.05.05 0 01-.042.002c.076-.173-.198-.227-.253-.326-.015-.08.043-.081.101-.08-.183-.054-.132-.407-.205-.424-.073-.081-.11.029-.177.04-.073-.146.219-.123.002-.235.005.028.025.071.001.066-.068-.054-.41.014-.405-.09l.07.015c-.03-.164-.385-.151-.251-.283l.077-.04c-.242-.14-.037-.111-.27-.26l-.01.011c-.06-.097-.185-.075-.113-.205l.04.018a1.661 1.661 0 00-.198-.223c0-.02-.03-.087-.066-.084.085-.078-.177-.289-.224-.333.062.098-.01.089-.067.095.028-.112.004-.155-.107-.18.1-.105.203-.22.088-.367.002.036.023.079-.011.084-.035.006-.039-.049-.04-.067-.034.006-.013.066-.063.083.02-.186-.133-.17-.215-.34.006.073-.047.054-.097.072.114-.125-.276-.08-.073-.175-.341-.163-.642-.629-.835-.63-.067.017-.07-.121-.111-.167l-.044.058c-.031-.215-.06-.13-.114-.367.001.12-.05.124-.156.114v-.204l-.095.064c-.014-.069-.074-.097-.134-.126.023.021.004.017-.011.03.08-.132-.121-.281-.103-.361-.145.072-.102-.137-.228-.06a.274.274 0 00-.023-.09c.065-.03.121-.078.057-.09l-.008-.011-.075.05a.568.568 0 00-.097-.125.232.232 0 00.073.005l-.08-.012-.017-.013.007.012a.107.107 0 01-.093-.078c-.238-.025-.22-.44-.512-.428.038.005.08.027.072.058-.145-.116-.369-.126-.423-.247l.056-.06a1.13 1.13 0 00-.25-.253l.049-.078c-.149-.067-.344-.39-.53-.293.008-.082-.188-.116-.253-.183l-.059.047a.486.486 0 01-.212-.156c-.283-.002-.395-.24-.581-.34l-.012.016-.157-.154c.016.084-.014-.06-.077-.078a.301.301 0 00-.236-.11l-.123-.059c.114.11-.058.084-.104.152l-.046-.096c-.05.02.02.08-.046.068-.031-.064-.186-.137-.196-.235a.137.137 0 01.075-.025c.004.007.005.006.003 0l.007-.002h-.008a.148.148 0 01-.006-.04c-.106-.032-.055-.044-.035-.075-.168.058-.192-.049-.341.043.187-.094-.252-.126-.113-.234-.136.075-.059-.023-.157.05.13.026.195.189.262.284l-.123.024c-.005.16.225.052.258.122-.021-.048-.118-.058-.135-.03l.073-.087c.15.024.214.152.28.246-.104-.01.073.11-.026.148l-.061-.045c-.05.02 0 .081.023.129.257.021.588.319.705.286a.197.197 0 01-.14-.118l.118.018c-.076-.05-.185-.003-.281-.104.053-.05.016-.184.152-.215.276.04.091.269.369.407.013.034.003-.132.125-.013a.463.463 0 01.104.51c-.05-.082-.15-.248-.23-.167.05.082.161.182.13.247.144-.062-.118-.117.038-.146.05.034.05.083.062.116-.006-.066.094-.047.125-.063.166.105.302.104.476.225a.148.148 0 00.074-.059c.064.09.074.334-.003.376.094.075.134.03.196.119-.198-.003.037.003-.02.113.075.074.064-.027.119-.021a.165.165 0 01-.002.106c.107-.037.042-.27.167-.313a1.453 1.453 0 01.36.013 1.254 1.254 0 01-.433.515c-.036.062.125-.004.167.017.176-.015.107.19.223.218l-.028-.1c.033-.013.14.112.135.16.028-.03.06-.213.131-.222a.372.372 0 01.086.49l-.151-.293c-.068.069.1.217.015.303l.232.152c-.024-.025-.087-.117-.02-.133.087.082.058.027.149.042a4.351 4.351 0 01.018-.791l.07.149.065-.023a1.316 1.316 0 01-.055.716c.098.05.208-.14.215-.188.17.131-.037.37.145.485l-.092-.017c.025.048.193.134.151.151.07-.016.19-.091.178-.15l.009.275c-.007-.034.123-.15.135-.181.062.045-.036.232-.091.222a1.015 1.015 0 00.313.001c.023.041-.127.13-.164.125a.23.23 0 00.141.147c-.065-.17.234-.315.302-.433l-.104.626a1.391 1.391 0 01.123-.183c-.085.132.186.432.34.556l-.02-.022c.01-.065.161.026.172.113.014-.03-.004-.035-.025-.057.177.013-.046.282.147.283-.096-.076-.069-.136-.02-.173.03.109.238.231.072.32.073.02.097.076.16.01.005-.004.083.257.083.257.002-.027.03-.074.087-.028-.107-.089-.07-.305-.21-.273.079-.08.16-.083.181-.195a1.25 1.25 0 01.11.687l.211.124-.032.041.123-.053c-.003.042-.01.072.003.069.012-.003.02-.02.027-.041a.122.122 0 01.015.065.356.356 0 00.113-.2l-.096-.002c.019-.077.047-.147.121-.126v.044c.018-.054.036-.094.064-.09l.072.179a1.03 1.03 0 00-.13-.004c.01.141.016.305-.116.285l.147.055a1.062 1.062 0 00.061.373c.042-.02.037-.083.085-.078-.02.199.357.158.278.262.05.107-.057.106-.041.185.01-.011.028-.034.042-.018l-.022.126c.046.008.003-.103.092-.05.043.178.062.285.178.371.098.173-.196.041-.084.165.075-.025.16-.06.23.017-.01.075-.062.104-.035.199l.09-.072c.047.073.07.14.142.09a.14.14 0 00.074.14c.026.141-.249.057-.303.059.146.053.156.154.313.134l-.04-.11c.26.117 0 .278.268.233-.057-.063-.065-.179.017-.175l.022.132c.034-.005-.023-.068.039-.043a.874.874 0 01-.022.18l.005-.006c.004-.003.1.195.1.195-.025-.033.005-.065.03-.032l.023.156c.002-.053.055-.034.104.011.125.14-.144.265.03.325-.014-.017-.003-.027-.016-.044l.082.036c-.201.141.2.383-.002.521.138.039.055-.023.085-.197l.118.06c-.015-.044-.051-.067-.055-.12zm-.744-1.201c-.056.01-.047-.074-.051-.11.056.027.112.024.051.11zm-1.381-2.176c-.052-.01-.087-.03-.081-.067a.139.139 0 01.081.067zm-5.266-5.1v-.006c.052.013.08.015 0 .006zm-.077-.03c-.036-.017-.066-.034-.066-.058a.025.025 0 00-.01.036c.032.037.055.037.076.022zm10.135 12.605l.029.023c-.02.025-.037.05-.03-.023z"/><path class="cls-1" d="M70.401 33.605a.115.115 0 00.045-.02c-.003.019-.015.03-.045.02z"/><polygon class="cls-1" points="73.033 37.791 73.036 37.795 73.024 37.807 73.033 37.791"/><path class="cls-1" d="M66.556 30.124a.124.124 0 00.074-.002c-.01.019-.033.025-.074.002zm-2.269-2.403l.08.065a.126.126 0 00-.093-.015c.01-.017.04-.035.013-.05zm-1.003.127c-.009-.014-.028-.011-.037-.026l.02-.036c.056.024.083.069.017.062zm.794.092c-.038.063-.083.013-.14-.03l.012.006c.024-.102.077-.038.128.025zm-.153-.039a.197.197 0 00-.057-.03c.01-.04.027.004.057.03zm.885.189c-.039.002.025-.092-.006-.074.01-.098.147.198.006.074z"/><polygon class="cls-1" points="63.925 28.134 63.986 28.063 63.989 28.146 63.925 28.134"/><path class="cls-1" d="M64.44 28.314l-.11-.026c.008-.013 0-.027-.012-.041.062.027.136.044.122.067zm-.122-.067a.142.142 0 01-.073-.052.322.322 0 01.073.052z"/><polygon class="cls-1" points="64.047 28.224 64.084 28.222 64.156 28.25 64.047 28.224"/><path class="cls-1" d="M65.475 28.879l.089.085c-.006.032-.044.031-.075-.002-.013-.033-.045-.067-.014-.083zm-.433.025c.036 0 .048-.016.079-.032l-.053.099zm.281.203c-.006.032.1.165-.024.081.006-.033-.082-.116.024-.081z"/><polygon class="cls-1" points="66.885 29.983 66.861 29.964 66.973 29.819 66.885 29.983"/><path class="cls-1" d="M67.836 31.301c-.134-.056.048-.108-.083-.147.003-.055.107.032.106-.018.034.09.084.098-.023.165zm.023-.165a.297.297 0 01-.015-.05.133.133 0 01.015.05z"/><polygon class="cls-1" points="76.02 46.469 76.059 46.564 75.997 46.501 76.02 46.469"/><path class="cls-1" d="M75.885 46.642l.117.027-.105.05c.005-.02.015-.06-.012-.077zm-4.509-11.268l.02-.021c.032-.007.046.008.075.04z"/><polygon class="cls-1" points="72.124 36.317 72.112 36.3 72.221 36.277 72.124 36.317"/><path class="cls-1" d="M72.526 37.249c-.025-.033-.03-.086-.054-.12.029.087.174.064.054.12zm6.491 4.921c.007-.013.036.023.043.027-.024.01-.051-.035-.043-.026z"/><polygon class="cls-1" points="78.766 42.284 78.783 42.294 78.724 42.291 78.766 42.284"/><path class="cls-1" d="M78.603 42.465c-.042-.07.069-.057.077-.108l-.008-.017.06.028c-.043.032-.12.054-.13.097zm.039.207c-.017-.026-.038.004.013-.028l.002.009a.1.1 0 00-.015.02zm.015-.019c.018-.018.008.029 0 0zm-.091.076l.043-.007c.008.017-.008.042.009.042-.034.016-.043-.001-.052-.035zm-.063-.013l.02-.006c.003.008.002.013-.02.006zm.062-.017l-.042.011c-.007-.012-.025-.029.017-.007-.019-.013.003-.004.025-.004zm.005-.024c0-.025.008-.05-.034-.043.05-.04.085.002.034.043zm-.035-.255v-.034l.034.001c-.017 0-.017.05-.034.033zm-.075.493c-.013-.009-.026-.037-.04-.052l.03-.007c0 .017-.007.042.01.06zm-.04-.053l-.046.01c.02-.027.034-.023.046-.01z"/><polygon class="cls-1" points="78.434 42.664 78.519 42.657 78.426 42.673 78.434 42.664"/><polygon class="cls-1" points="78.37 43.022 78.413 43.031 78.345 43.022 78.37 43.022"/><path class="cls-1" d="M78.306 43.09c.034.008.027.05.052.05a.146.146 0 01-.086.015c.024-.007.035-.026.034-.065zm-.082.068a.214.214 0 01.048-.003.11.11 0 01-.048.003zm.116-.234a.071.071 0 01.016.052l-.026-.04zm-.01.01v.001l-.018.026zm.012-.014l-.003.004c-.002-.004-.003-.006.003-.003zm.06-.154c-.034 0-.084.016-.086-.043.035.009.035.042.086.043zm-.092.104l.017-.037c.009.008.018.025.035.025z"/><polygon class="cls-1" points="78.286 42.875 78.309 42.87 78.303 42.883 78.286 42.875"/><path class="cls-1" d="M78.233 43.078a.08.08 0 00-.055.028.184.184 0 01.033-.061c.013.007.039.016.022.033zm.044-.072h-.004c-.002-.003-.002-.006.004 0z"/><polygon class="cls-1" points="78.047 43.267 78.042 43.259 78.049 43.263 78.047 43.267"/><path class="cls-1" d="M78.206 43.036c.004-.019.02-.02.037-.017a.13.13 0 00-.032.026c-.006-.003-.01-.006-.005-.009zm-.036.153a.187.187 0 010-.04c.005.017.011.045 0 .04zm.109-.169l.003-.001c.004.01 0 .007-.003 0z"/><path class="cls-1" d="M78.279 43.02a.119.119 0 01-.036-.001.086.086 0 01.03-.012zm-.503.11c.035.025.094.014.083-.045.049-.01.143.099.183.174-.015-.01-.028-.022-.073-.007-.01-.025.012-.102-.039-.1-.05.026-.014.042-.013.076-.028-.05-.102.003-.156-.055l.05-.018c-.009-.009-.034-.008-.035-.025zm.309.068l.015-.01a.154.154 0 00.01.081.074.074 0 01-.061-.006l.045-.065z"/><path class="cls-1" d="M78.146 43.134c-.044-.02-.084-.003-.108-.053.033-.035.051-.001.085-.01-.058.051.034 0 .019.059a.118.118 0 00.036-.024.21.21 0 00-.009.044l-.001-.003v-.001c-.003-.006-.005-.01-.004-.004h-.002l-.016-.008c-.007.023.007.01.016.008l.006.004-.068.043a.147.147 0 01.046-.055zm.068-.445l.006.008c-.007 0-.012 0-.006-.008z"/><path class="cls-1" d="M78.214 42.73c.009 0 .026.01.034-.007 0-.021-.017-.015-.028-.026.017 0 .05-.007.046.034h-.009a.157.157 0 00.019.102.415.415 0 01-.062-.102zm-.046.197l-.058.034-.01-.05.017.016c.016-.034.034-.009.051 0z"/><polygon class="cls-1" points="78.06 43.287 78.104 43.311 78.027 43.297 78.06 43.287"/><polygon class="cls-1" points="78.004 43.348 78.04 43.372 78.006 43.373 78.004 43.348"/><path class="cls-1" d="M75.42 46.034l.002-.016zm.032.038l-.007.025a.117.117 0 01.007-.025zm1.371-1.085c.02.045.056.103.017.075l-.035-.032a.04.04 0 00.018-.043z"/><polygon class="cls-1" points="75.886 46.055 75.877 46.041 75.925 46.045 75.886 46.055"/><path class="cls-1" d="M75.704 45.983a.141.141 0 00.015.036c-.005-.012-.016-.014-.015-.036zm-.695-.503l.019-.05c.024.028-.004.033-.02.05zm2.469-1.472a.12.12 0 01-.011.063c-.005-.038-.025-.08.011-.063zm-2.297 2.539a.064.064 0 010-.05c.007.023.008.041 0 .05zm2.246-2.421l-.002-.016a.095.095 0 00.042-.039c.004.029 0 .055-.04.055zm-4.64-.316h-.009c.003-.005.006-.004.009 0zm-.92.045a.12.12 0 00.027.017c-.007 0-.015-.004-.027-.017zm5.949-.235c.013-.011.006.002 0 0zm-.095-.18a.039.039 0 01-.022-.01.05.05 0 00.022.01zm-.634.659v.001c-.005-.01-.004-.008 0-.001zm.728-.512a.08.08 0 01-.003.026.08.08 0 01.003-.026zm.015.016l.006-.014c.008.003.01.007-.006.014zm-.03.036a.065.065 0 00.013-.026l.003.008zm-3.859 1.101h-.006c-.002-.026.003-.018.006 0z"/><polygon class="cls-1" points="76.167 45.123 76.17 45.122 76.17 45.126 76.167 45.123"/><path class="cls-1" d="M76.104 45.16c.063.006.066-.01.066-.034l.105.087z"/><path class="cls-1" d="M75.301 45.878c-.084-.009-.062-.102-.056-.151-.032-.004-.071.086-.097.02-.041-.087.092-.057.067-.11l-.084.02c-.005-.092-.08-.097-.128-.135a.043.043 0 010-.033c-.065-.026-.041-.148-.093-.166-.003.02-.054.015-.071.023l-.03-.094c.014.041-.018.071-.043.106-.016-.022-.008-.048-.018-.065-.002.019-.005.038-.03.042l-.014-.116a.04.04 0 01.026.009c-.016-.017-.033-.072-.08-.068l-.022.048c.052-.016.035.025.023.058-.04-.05-.02-.003-.062-.001-.03-.032-.004-.087.03-.106-.05-.021-.069-.023-.078-.09l-.032.05-.023-.044-.02.079c-.094-.03.056-.087-.041-.128l-.035.039c-.015-.04.033-.116-.03-.088-.008-.049.095-.013.036-.08a.156.156 0 01-.093-.006c-.005-.036.056-.033.065-.015-.084-.107-.177.084-.224-.044.055-.003.037-.1.111-.037-.016-.054-.118.001-.12-.073l-.017.071c-.014-.01-.014-.04-.016-.052l-.03.042c.01-.107-.11-.034-.065-.15-.038.09-.03-.032-.072-.017-.001.081.11.086.062.157-.034.006-.024-.04-.056-.033a.153.153 0 010 .068c-.086-.008-.057-.113-.08-.157l.05.063c.048-.072-.018-.033.005-.1-.06.013-.045-.058-.088-.055.007.005.003.012.01.016-.069-.053-.17.045-.2.027-.033-.01-.056-.086-.016-.102-.009-.036.076.089.102-.03-.115.075-.053-.102-.193-.09.013.064-.064.044-.05.095-.035-.037-.026-.053-.024-.096l-.035.024c-.004-.111.032-.074-.025-.171.01.045-.066.025-.06.063a.09.09 0 01-.044-.07v.007c-.075-.074-.098-.003-.152-.091l.02-.015c-.067-.123-.221-.168-.315-.258l.048.006c-.018.004-.054-.077-.107-.065.005.007.012.023.02.024-.015.023-.049.05-.078.04l.01-.042-.026.022c-.04-.022.041-.045 0-.067-.082.09-.182-.085-.267-.013.014-.09.082.032.09-.053a.092.092 0 01-.062.007l.034-.04a1.058 1.058 0 01-.312-.094v.012c-.049-.002-.066-.021-.064-.07-.019.018.004.043-.02.054-.012-.154-.183.019-.186-.085-.039.096-.17.145-.166.235l-.023-.023c-.02.066.087.04.072.114l.119-.023c-.014.022-.016.063-.034.065.02.011.038.024-.007.043.288-.054.42.212.665.245.01.013-.01.03-.023.04.07-.035.018.05.033.07l.102-.05c.007.037-.025.052-.033.07.09.075.237.056.286.156.044-.013.036-.069.076-.057-.1.053.073.101.006.14.09-.067.132.061.198-.07.045.021-.001.075-.02.078a.156.156 0 01.098.114c.046-.012.186.175.29.118-.07.037-.02.03-.012.075l-.06.033.061.038c.009.013.014.014.017.009.012.005.02-.03.054-.025.043.027.024.056.026.098l-.012.002.023.025c.021.014-.032-.102.052-.079-.01.015-.023.11.022.088-.034-.023-.004-.054.02-.06l.047.033-.063.05a4 4 0 01.43.288c.043-.054.096.08.152-.006l-.012.002c-.026-.036.064-.05.083-.018-.05-.001-.019.12-.097.07l.02.082c-.105.169.143.117.175.236a.044.044 0 01.01-.025c.022.108.185.11.176.15l.045-.03c-.006.115-.006.126.083.174.005-.007.01-.025.028-.022-.014.044-.029.087.023.127l.011-.013.059.083c.13-.1.02.188.197.122-.018.053.04.154.058.222a.023.023 0 01.019-.012c-.005.145.113.111.14.168a.095.095 0 01-.02.107c.065-.03.132.326.161.316.041.047.017-.086.028-.134.053.105-.007.25.07.245-.01-.027-.028-.062-.022-.07.014.009.03-.057.04-.119.012-.057.011-.195.025-.163l-.005.08c.047-.001.034-.384.074-.21l.015.09c.03-.225.035-.027.065-.23l-.004-.01c.03-.04.005-.138.065-.07l-.002.03a.8.8 0 00.065-.144.042.042 0 00.026-.048c.05.053.111-.151.118-.17-.033.041-.048.005-.065-.022.062.003.076-.01.056-.06.08.035.164.07.2.012-.016.003-.03.015-.042 0s.012-.02.02-.022c-.012-.014-.035 0-.058-.021.095-.004.044-.07.102-.117-.033.007-.04-.018-.062-.04.088.043-.03-.124.068-.04 0-.154.165-.3.12-.387-.022-.03.046-.034.059-.053l-.039-.02c.1-.017.05-.03.159-.055-.061 0-.074-.023-.092-.071h.105l-.052-.043c.034-.005.038-.031.042-.058-.007.01-.009.002-.018-.005.084.038.125-.049.17-.038-.064-.068.052-.042-.01-.102a.12.12 0 00.042-.008c.027.03.062.058.057.03l.004-.004-.04-.036a.16.16 0 00.048-.04.098.098 0 00.01.033l-.007-.036.003-.007-.004.003a.03.03 0 01.024-.04c-.024-.107.185-.081.14-.212.002.017-.003.035-.022.029.043-.057.02-.157.078-.172l.038.03a.305.305 0 00.104-.09l.047.029c.018-.061.164-.116.092-.212.045.013.037-.076.069-.096l-.03-.031a.122.122 0 01.07-.072c-.017-.126.103-.143.145-.21l-.01-.008.072-.047c-.043-.006.03.002.037-.023a.079.079 0 00.045-.088l.03-.042c-.058.028-.046-.04-.082-.072l.05-.003c-.01-.025-.043-.006-.036-.032.034-.001.073-.054.125-.04a.076.076 0 01.013.037c-.004 0-.003.001 0 .002l.001.003v-.003l.021.005c.016-.04.023-.015.04 0-.032-.084.024-.073-.024-.156.049.1.067-.083.123 0-.038-.075.012-.02-.025-.079-.014.051-.1.045-.15.056l-.012-.06c-.085-.033-.03.089-.066.09.025 0 .03-.04.016-.054l.046.05c-.013.06-.08.063-.13.074.005-.043-.06.011-.08-.039l.024-.018c-.01-.025-.043-.015-.07-.013-.017.103-.156.213-.133.272-.002-.026.03-.045.056-.047l-.004.052c.023-.028-.007-.085.042-.113.029.032.097.037.12.103-.008.119-.138 0-.196.106-.017.001.07.02.014.059a.274.274 0 01-.267-.023c.041-.012.125-.035.078-.083-.042.012-.09.05-.127.028.041.073.057-.04.081.036-.016.018-.042.012-.059.013.035.006.03.049.04.065a1.953 1.953 0 00-.086.19.125.125 0 00.038.041.23.23 0 01-.197-.036c-.03.037-.002.06-.043.081-.019-.092.003.017-.062-.02-.031.03.02.033.024.059a.109.109 0 01-.057-.01c.031.053.148.042.185.104a.647.647 0 01.033.163 1.115 1.115 0 01-.323-.24c-.038-.02.015.059.009.077.028.083-.09.038-.092.09l.051-.007c.011.016-.044.058-.07.053.02.015.122.04.135.073-.032.073-.185.063-.244.02l.13-.061c-.048-.037-.098.039-.156-.005l-.044.106c.01-.011.048-.038.066-.005-.029.038-.004.026.002.068a2.148 2.148 0 01.413.042l-.066.025.023.031a.922.922 0 01-.381-.053c-.011.044.106.101.133.106-.04.075-.199-.027-.229.056l-.007-.042c-.02.01-.037.087-.053.068.02.033.08.089.11.084h-.144c.017-.002.102.059.12.064-.013.028-.13-.018-.134-.043.033.09.005.056.055.142-.015.012-.093-.058-.096-.075a.065.065 0 00-.046.068c.073-.033.209.105.283.135l-.338-.037a1.187 1.187 0 01.12.053c-.086-.037-.177.098-.206.174l.007-.01c.036.001.024.073-.018.081.018.005.017-.003.023-.013.035.08-.155-.008-.111.079.017-.047.054-.038.084-.018-.049.019-.063.117-.149.048.008.034-.015.048.034.072l-.103.057c.014-.001.045.008.038.037.013-.056.127-.054.078-.114.06.03.082.066.143.07-.077.078-.205.076-.305.1l-.001.105-.03-.01.062.05c-.022.002-.039.002-.033.007a.048.048 0 00.028.008.049.049 0 01-.028.013.294.294 0 00.129.032l-.026-.042c.043.001.084.008.095.042l-.02.004c.03.003.055.008.061.02l-.066.047a.471.471 0 00-.035-.057.138.138 0 01-.167-.036l.022.056a.755.755 0 01-.117-.027c.016.027.036.037.046.062-.064-.065.022.184-.025.108-.021.002-.037-.074-.053-.09a.146.146 0 01.011.038l-.03-.063c.006.034.022.04.024.091-.031-.029-.042-.07-.045-.004-.014 0-.022-.206-.026-.171a.957.957 0 01.01.204l-.019-.174.005.124c-.008-.016-.013-.045-.014.042-.006-.06-.01-.056-.015-.045-.005-.069.022-.206.018-.258a.834.834 0 01-.022.147l.005.038c-.039.089.01-.152-.04.023a.181.181 0 01-.004.113l-.006-.068c-.007.02.005.029-.008.045a.676.676 0 01.009-.113l-.002.006-.017-.043c.006.003-.005.03-.011.027l.004-.053a.04.04 0 01-.037.034c-.041-.019.095-.131.029-.102.007.007-.003.009 0 .011.004.004-.034.006-.036.003.11-.097-.101-.151.007-.251-.073.004-.029.02-.047.11l-.061-.01c.007.019.026.024.027.049zm.182.256c.007-.042.007.015.01.038-.007.019-.016.054-.01-.038zm.35-.171c-.01-.024-.01-.042.01-.042a.04.04 0 01-.01.042zm1.83-2.216h.003c-.004.022-.004.035-.003 0zm.012-.03c.006-.015.015-.025.028-.02a.02.02 0 00-.02-.01c-.02.006-.016.018-.008.03zm-4.08 1.184l-.018.004c.004-.017.006-.032.018-.004z"/><path class="cls-1" d="M75.725 45.99a.098.098 0 00.023.019.02.02 0 01-.023-.018z"/><polygon class="cls-1" points="75.005 45.49 75.003 45.489 75.009 45.481 75.005 45.49"/><path class="cls-1" d="M76.781 44.178a.057.057 0 00.009.035.024.024 0 01-.009-.035zm1.164-.685l-.034.02c.013-.012.008-.024.007-.036.01.008.019.024.027.016zm-.045-.461c.008 0 .007-.008.016-.008l.018.016c-.017.018-.042.018-.035-.008zm-.07.326c-.032-.03-.005-.04.018-.055l-.003.004c.053.032.02.041-.014.05zm.023-.059a.05.05 0 00.016-.018c.021.012-.002.01-.016.018zm-.101.346c0-.017.05.027.04.01.053.024-.105.026-.04-.01z"/><polygon class="cls-1" points="77.731 43.251 77.767 43.292 77.724 43.277 77.731 43.251"/><path class="cls-1" d="M77.632 43.443l.014-.043a.02.02 0 00.021.002c-.014.022-.023.051-.035.04zm.035-.041a.04.04 0 01.028-.022.082.082 0 01-.028.022z"/><polygon class="cls-1" points="77.681 43.287 77.682 43.304 77.667 43.33 77.681 43.287"/><path class="cls-1" d="M77.362 43.817l-.04.028c-.018-.007-.02-.024-.003-.034.017 0 .033-.01.043.006zm-.035-.203c.001.017.01.025.02.041l-.054-.04zm-.094.101c-.018-.007-.083.024-.045-.022.018.007.058-.022.045.022z"/><polygon class="cls-1" points="76.892 44.342 76.899 44.333 76.989 44.397 76.892 44.342"/><path class="cls-1" d="M76.326 44.723c.008-.063.065.024.064-.036.029.003 0 .05.027.05-.041.014-.038.038-.09-.014zm.091.014l.023-.006a.058.058 0 01-.023.006z"/><polygon class="cls-1" points="71.727 43.854 71.687 43.861 71.722 43.836 71.727 43.854"/><path class="cls-1" d="M71.701 43.752l-.035.062.008-.066c.005.006.016.017.027.004zm3.812 2.208v.03a.093.093 0 01-.002.035z"/><polygon class="cls-1" points="75.453 45.965 75.455 45.966 75.411 46.013 75.453 45.965"/><path class="cls-1" d="M75.29 45.643c.015.01.018.035.032.047-.017-.036-.094.001-.031-.047z"/></svg>