<svg data-name="Слой 1" xmlns="http://www.w3.org/2000/svg" viewBox="8 8 21 21"><path d="M14.042 23.489a10.457 10.457 0 012.234-.73l.221-.044a9.73 9.73 0 011.41-.171v-3.657h-4.529a17.916 17.916 0 00.664 4.602zm8.887-10.719a10.01 10.01 0 00.462-.245 9.99 9.99 0 001.538-1.076A9.63 9.63 0 0020.94 9.18a7.982 7.982 0 011.285 1.885 12.465 12.465 0 01.703 1.705zm-5.845-3.881a5.594 5.594 0 00-2.238 2.562 11.601 11.601 0 00-.588 1.405 9.827 9.827 0 002.14.73c.068.015.137.029.211.043a9.491 9.491 0 001.298.163v-4.97c-.066 0-.05.001-.074.002-.25.012-.5.034-.749.065zm-.685 14.564a9.825 9.825 0 00-2.141.73 11.567 11.567 0 00.588 1.405 5.594 5.594 0 002.239 2.563c.247.03.497.053.746.064.025.001.01.002.076.003v-4.971a9.497 9.497 0 00-1.298.163 7.013 7.013 0 00-.21.043zm-.124-9.173a10.489 10.489 0 01-2.233-.744 17.92 17.92 0 00-.664 4.628h4.53v-3.669a9.763 9.763 0 01-1.412-.171 8.023 8.023 0 01-.221-.045zm-2.782-1.017q-.182-.098-.36-.203a8.213 8.213 0 01-.196-.117 10.697 10.697 0 01-1.59-1.201 9.609 9.609 0 00-2.759 6.422h4.197a18.5 18.5 0 01.708-4.9zm.22 11.2a9.949 9.949 0 00-.434.254 10.014 10.014 0 00-1.429 1.077 9.662 9.662 0 003.785 2.065 7.996 7.996 0 01-1.285-1.886 12.271 12.271 0 01-.637-1.51zm-.58-.492c.12-.07.24-.144.36-.209a18.503 18.503 0 01-.708-4.875H8.59a9.66 9.66 0 002.748 6.404 10.594 10.594 0 011.6-1.198c.067-.042.133-.085.195-.122zm.332-11.537c.082.049.165.096.248.142a12.282 12.282 0 01.637-1.51 8 8 0 011.283-1.883 9.658 9.658 0 00-3.773 2.07 9.985 9.985 0 001.42 1.069q.091.057.185.112zm9.673 11.134c.126.061.252.139.376.205.071.039.136.074.199.11a10.557 10.557 0 011.724 1.199 9.585 9.585 0 002.55-6.195H23.79a18.56 18.56 0 01-.653 4.68zm-2.943-9.901a9.829 9.829 0 002.182-.642 11.778 11.778 0 00-.647-1.574 5.605 5.605 0 00-2.245-2.562 9.797 9.797 0 00-.753-.065l-.102-.002v4.986a9.952 9.952 0 001.342-.107c.075-.011.157-.022.223-.034zm3.008 10.743a8.859 8.859 0 00-.274-.142 12.492 12.492 0 01-.702 1.705 7.997 7.997 0 01-1.286 1.886 9.665 9.665 0 003.999-2.26 9.98 9.98 0 00-1.548-1.085 8.975 8.975 0 00-.19-.104zm.509-11.253l-.198.109q-.186.1-.376.191a19.01 19.01 0 01.654 4.707h4.196a9.687 9.687 0 00-2.56-6.212 10.648 10.648 0 01-1.716 1.205zm-1.132.55a10.541 10.541 0 01-2.288.656l-.228.035a11.241 11.241 0 01-1.434.112v3.654h4.568a18.051 18.051 0 00-.618-4.457zM20.3 22.67a10.515 10.515 0 012.283.649 18.052 18.052 0 00.615-4.432H18.63v3.642a11.239 11.239 0 011.434.109c.087.012.17.02.236.031zm2.073 1.344a9.838 9.838 0 00-2.184-.642 7.862 7.862 0 00-.217-.034 10.003 10.003 0 00-1.342-.107v4.987l.1-.003a9.75 9.75 0 00.754-.064 5.604 5.604 0 002.245-2.563 11.774 11.774 0 00.644-1.575z" style="fill:#fff"/></svg>