<svg data-name="Слой 1" xmlns="http://www.w3.org/2000/svg" viewBox="8 1.5 22 22"><path d="M19.1 3.008h7.127a2.288 2.288 0 012.404 2.395c.006 2.075.002 4.15.001 6.225q0 4.05-.003 8.099a2.3 2.3 0 01-2.348 2.36H11.865a2.3 2.3 0 01-2.31-2.305Q9.55 12.573 9.55 5.365a2.3 2.3 0 012.354-2.356q3.598-.003 7.197 0zm-2.267 6.447l-.001.078c.617.09.74.556.836 1.039a1.241 1.241 0 01.027.345 14.572 14.572 0 01-.158 1.462c-.076.398-.33.454-.637.18a2.435 2.435 0 01-.34-.376 11.886 11.886 0 01-1.295-2.39.617.617 0 00-.656-.428c-.593.018-1.187.002-1.78.006-.357.002-.487.187-.344.508a21.23 21.23 0 002.832 4.825 4.903 4.903 0 002.19 1.642 6.191 6.191 0 002.101.243c.446-.002.567-.13.593-.574a3.244 3.244 0 01.127-.793c.132-.41.443-.495.796-.242a2.429 2.429 0 01.341.31c.275.29.539.593.816.882a1.13 1.13 0 00.77.38c.616.024 1.233.026 1.849.033a2.594 2.594 0 00.46-.024c.379-.064.497-.258.324-.605a3.435 3.435 0 00-.523-.782c-.394-.433-.823-.833-1.238-1.246-.457-.453-.485-.659-.112-1.178.359-.501.757-.974 1.102-1.485a9.808 9.808 0 00.766-1.336c.169-.363.005-.558-.397-.559q-1.041-.002-2.082.002c-.45.001-.48.048-.676.445a31.68 31.68 0 01-1.027 1.96 4.252 4.252 0 01-.672.818c-.237.242-.473.172-.568-.156a2.034 2.034 0 01-.074-.592c.011-.693.046-1.386.061-2.079a.538.538 0 00-.451-.631 3.958 3.958 0 00-2.647.11 1.807 1.807 0 00-.313.208z" style="fill:#fff"/></svg>