<svg id="Слой_1" data-name="Слой 1" xmlns="http://www.w3.org/2000/svg" viewBox="6.75 6 22 22"><defs><style>.cls-1{fill:#fff}</style></defs><path class="cls-1" d="M7.864 17.108c0-1.406-.005-2.812.002-4.218a5.624 5.624 0 011.262-3.566 5.702 5.702 0 013.025-1.989 5.446 5.446 0 011.444-.195c2.824 0 5.649-.005 8.473.002a5.568 5.568 0 013.484 1.21 5.713 5.713 0 012.101 3.272 5.159 5.159 0 01.146 1.198c.002 2.845.007 5.69-.002 8.535a5.588 5.588 0 01-1.265 3.542 5.721 5.721 0 01-2.525 1.825 5.444 5.444 0 01-1.587.339q-.237.014-.475.014-4.152.001-8.305-.001a5.635 5.635 0 01-3.824-1.458 5.692 5.692 0 01-1.84-3.175 5.354 5.354 0 01-.114-1.11q.002-2.113 0-4.225zm18.405.001v-4.102a4.566 4.566 0 00-.092-.959 4.16 4.16 0 00-1.353-2.319 4.215 4.215 0 00-2.872-1.056q-4.122 0-8.243.004a5.072 5.072 0 00-.845.075 4.011 4.011 0 00-2.088 1.038 4.2 4.2 0 00-1.377 3.169c-.004.483-.001.966-.001 1.45v6.847a4.247 4.247 0 004.27 4.288h8.297a4.305 4.305 0 00.973-.103 4.248 4.248 0 003.33-4.183q.002-2.074 0-4.149z"/><path class="cls-1" d="M12.466 17.107a5.369 5.369 0 115.322 5.37 5.381 5.381 0 01-5.322-5.37zm5.364 3.836A3.833 3.833 0 1014 17.107a3.827 3.827 0 003.83 3.836zm6.139-9.203a.767.767 0 11.766-.761.764.764 0 01-.766.762z"/></svg>