<svg id="Слой_1" data-name="Слой 1" xmlns="http://www.w3.org/2000/svg" viewBox="4 5 60 100" width="60" height="100"><defs><style>.cls-1{fill:#d50057}.cls-2{fill:#fff}</style></defs><path class="cls-1" d="M7.206 14.045a4.957 4.957 0 001.719-.252 2.967 2.967 0 001.096-.683 3.447 3.447 0 00.688-1.007 9.818 9.818 0 00.459-1.223h2.423v25.18H9.989V16.852H7.206zm10.444 2.878a6.997 6.997 0 011.408-4.694 5.063 5.063 0 014.06-1.637 5.064 5.064 0 014.06 1.637 6.997 6.997 0 011.409 4.694v13.094a6.998 6.998 0 01-1.408 4.695 5.064 5.064 0 01-4.061 1.637 5.063 5.063 0 01-4.06-1.637 6.998 6.998 0 01-1.408-4.695zm3.602 13.346a2.852 2.852 0 00.508 1.924 1.935 1.935 0 002.717 0 2.857 2.857 0 00.508-1.924V16.67a2.86 2.86 0 00-.508-1.924 1.935 1.935 0 00-2.717 0 2.855 2.855 0 00-.508 1.924zm9.365-13.346a6.997 6.997 0 011.407-4.694 5.064 5.064 0 014.06-1.637 5.063 5.063 0 014.06 1.637 6.997 6.997 0 011.409 4.694v13.094a6.998 6.998 0 01-1.409 4.695 5.063 5.063 0 01-4.06 1.637 5.064 5.064 0 01-4.06-1.637 6.998 6.998 0 01-1.407-4.695zm3.602 13.346a2.858 2.858 0 00.506 1.924 1.935 1.935 0 002.718 0 2.852 2.852 0 00.508-1.924V16.67a2.855 2.855 0 00-.508-1.924 1.935 1.935 0 00-2.718 0 2.861 2.861 0 00-.506 1.924zm9.461-15.54a4.495 4.495 0 01.884-2.985 3.727 3.727 0 015.174 0 4.49 4.49 0 01.884 2.985v8.273a4.492 4.492 0 01-.884 2.987 3.73 3.73 0 01-5.174 0 4.498 4.498 0 01-.883-2.987zm2.293 8.454q0 1.582 1.178 1.582a1.066 1.066 0 00.868-.377 1.89 1.89 0 00.311-1.205v-8.634a1.89 1.89 0 00-.31-1.205 1.063 1.063 0 00-.869-.378q-1.177 0-1.178 1.583zM56.188 10.88h2.128L49.28 36.06h-2.129zm-1.145 13.166a4.494 4.494 0 01.884-2.986 3.728 3.728 0 015.172 0 4.494 4.494 0 01.885 2.986v8.273a4.49 4.49 0 01-.885 2.986 3.726 3.726 0 01-5.172 0 4.49 4.49 0 01-.884-2.986zm2.292 8.453q0 1.583 1.179 1.583a1.063 1.063 0 00.867-.378 1.89 1.89 0 00.311-1.205v-8.633a1.892 1.892 0 00-.311-1.205 1.065 1.065 0 00-.867-.377q-1.18 0-1.18 1.582z"/><path class="cls-2" d="M8.592 48.367H7.307v-8.976h1.285v3.847h1.459v-3.847h1.307v8.976h-1.307v-3.846H8.59zm7.842 0H15.14l-.223-1.629h-1.575l-.222 1.63h-1.179l1.307-8.977h1.88zm-2.93-2.846h1.238l-.618-4.54zm3.164-6.131h3.969v1.284h-1.343v7.693H18.01v-7.693h-1.343zm4.902 7.695a1.783 1.783 0 00.222.013h.222a1.05 1.05 0 00.286-.038.531.531 0 00.233-.142.676.676 0 00.151-.295 1.877 1.877 0 00.053-.487L20.87 39.39h1.283l1.413 5.257 1.167-5.257h1.284l-1.681 6.617a7.949 7.949 0 01-.45 1.417 1.978 1.978 0 01-.484.705.985.985 0 01-.554.237q-.298.025-.66.026h-.314a2.02 2.02 0 01-.304-.026zm6.921-7.695a1.776 1.776 0 011.441.565 2.518 2.518 0 01.473 1.654v1.167a2.516 2.516 0 01-.473 1.655 1.776 1.776 0 01-1.44.564h-.608v3.372H26.6v-8.976zm-.607 1.284v3.039h.607a.602.602 0 00.467-.18 1.009 1.009 0 00.163-.667V41.52a1.01 1.01 0 00-.163-.667.601.601 0 00-.467-.18zm7.249 7.693h-1.296l-.222-1.629H32.04l-.222 1.63H30.64l1.307-8.977h1.88zm-2.93-2.846h1.237l-.619-4.54zm7.119-4.847h-1.494v5.462a3.472 3.472 0 01-.151 1.116 1.737 1.737 0 01-.41.685 1.439 1.439 0 01-.588.353 2.343 2.343 0 01-.695.103h-.315a2.03 2.03 0 01-.304-.026v-1.282a1.794 1.794 0 00.222.013h.221a.822.822 0 00.52-.167.848.848 0 00.216-.693v-6.847h4.062v8.976h-1.284zm2.218 7.693v-8.976h1.283v3.373h.608a1.776 1.776 0 011.44.564 2.515 2.515 0 01.474 1.653v1.167a2.515 2.515 0 01-.473 1.655 1.773 1.773 0 01-1.441.564zm1.89-1.282a.599.599 0 00.467-.18 1.007 1.007 0 00.163-.667v-1.345a1.007 1.007 0 00-.163-.667.599.599 0 00-.466-.18h-.608v3.039zm3.782 1.282h-1.284v-8.976h1.284v3.847h1.459v-3.847h1.307v8.976h-1.307v-3.846h-1.46zm3.7 0v-8.976h1.283v3.373h.608a1.776 1.776 0 011.441.564 2.515 2.515 0 01.473 1.653v1.167a2.515 2.515 0 01-.473 1.655 1.773 1.773 0 01-1.441.564zm1.89-1.282a.599.599 0 00.467-.18 1.007 1.007 0 00.163-.667v-1.345a1.007 1.007 0 00-.163-.667.599.599 0 00-.466-.18h-.608v3.039zm2.545-7.694h1.284v8.976h-1.284zm3.536 8.976h-1.319v-8.976h1.144v5.373l1.32-5.373h1.61v8.976h-1.156v-6.5zM61.03 37.84v1.05h-2.824v-1.05z"/><path class="cls-1" d="M8.85 61.19H7.381V50.932h4.629V61.19h-1.495v-8.793H8.85zm9.056-10.258a2.029 2.029 0 011.648.645 2.875 2.875 0 01.54 1.89v1.334a2.875 2.875 0 01-.54 1.89 2.028 2.028 0 01-1.648.645h-.693v3.854h-1.468V50.932zm-.693 1.465v3.474h.693a.683.683 0 00.533-.205 1.154 1.154 0 00.187-.763v-1.539a1.151 1.151 0 00-.187-.761.683.683 0 00-.533-.206zm6.082.997a2.852 2.852 0 01.573-1.913 2.064 2.064 0 011.654-.667 2.064 2.064 0 011.655.667 2.852 2.852 0 01.573 1.913v5.335a2.852 2.852 0 01-.573 1.912 2.06 2.06 0 01-1.655.667 2.06 2.06 0 01-1.654-.667 2.852 2.852 0 01-.573-1.912zm1.468 5.437a1.165 1.165 0 00.206.784.79.79 0 001.107 0 1.165 1.165 0 00.207-.784v-5.54a1.162 1.162 0 00-.207-.783.788.788 0 00-1.107 0 1.162 1.162 0 00-.206.783zm6.055.894a2.086 2.086 0 00.253.014h.254a.946.946 0 00.594-.19.974.974 0 00.246-.791v-7.826h4.642v8.793h.748v2.638H36.06V61.19h-3.748v1.173h-1.494zm2.815-1.084a4.175 4.175 0 01-.12 1.084h1.827v-7.328h-1.707zm7.589 1.084a2.102 2.102 0 00.253.014h.253a1.182 1.182 0 00.328-.044.589.589 0 00.266-.16.761.761 0 00.174-.338 2.159 2.159 0 00.06-.556l-2.134-7.71h1.467l1.614 6.01 1.334-6.01h1.467l-1.92 7.563a9.297 9.297 0 01-.514 1.62 2.276 2.276 0 01-.554.805 1.141 1.141 0 01-.634.271c-.226.02-.478.03-.753.03h-.36a2.256 2.256 0 01-.347-.03zm10.338-2.623l-.454.938v3.15H49.64V50.932h1.466v4.47l1.948-4.47h1.44l-2.04 4.572 2.04 5.686h-1.507zm5.869-6.17h4.535v1.465H60.43v8.793h-1.467v-8.793h-1.534z"/><rect class="cls-2" x="7.414" y="65.969" width="54.292" height=".541"/><path class="cls-2" d="M61.564 66.11v.258H7.557v-.258h54.007m.284-.283H7.273v.824h54.575v-.824z"/><path class="cls-2" d="M47.95 67.523H20.515c-.254 0-.461-.569-.461-1.265 0-.695.207-1.264.46-1.264H47.95c.254 0 .461.569.461 1.264 0 .696-.207 1.265-.46 1.265z"/><path class="cls-1" d="M11.572 86.815a1.896 1.896 0 00-.31-1.27 1.085 1.085 0 00-.831-.33 1.125 1.125 0 00-.832.31 1.486 1.486 0 00-.31 1.07v1.5H7.207v-1.36a3.738 3.738 0 01.831-2.609 3.155 3.155 0 012.452-.91 3.156 3.156 0 012.453.91 3.738 3.738 0 01.831 2.61v.36q0 2.24-1.542 2.879a2.216 2.216 0 011.192 1.11 4.305 4.305 0 01.35 1.83v1.1a3.738 3.738 0 01-.83 2.609 3.156 3.156 0 01-2.454.91 3.155 3.155 0 01-2.452-.91 3.738 3.738 0 01-.831-2.61v-1.76h2.082v1.9a1.486 1.486 0 00.31 1.07 1.122 1.122 0 00.832.31 1.103 1.103 0 00.83-.32 1.853 1.853 0 00.311-1.26v-1.1a2.154 2.154 0 00-.34-1.38 1.372 1.372 0 00-1.102-.399h-.34v-2h.46a1.387 1.387 0 00.972-.32 1.533 1.533 0 00.35-1.16zm9.81 2.46h3.023v2h-3.023v4.099h3.804v2H19.18V83.376h6.006v2h-3.804zm12.353-5.899a3.201 3.201 0 012.473.88 3.678 3.678 0 01.811 2.579v1.82a3.677 3.677 0 01-.811 2.58 3.201 3.201 0 01-2.473.88h-1.04v5.259h-2.203V83.376zm-1.04 2v4.74h1.04a1.087 1.087 0 00.802-.281 1.472 1.472 0 00.28-1.04v-2.1a1.474 1.474 0 00-.28-1.04 1.087 1.087 0 00-.802-.279zm11.531 11.998h-2.202V83.376h2.202v5.999h2.503v-5.999h2.243v13.998h-2.243v-5.999h-2.503zm17.458 0h-2.221l-.381-2.54h-2.703l-.38 2.54h-2.023l2.243-13.998h3.223zm-5.025-4.44h2.123l-1.062-7.079z"/><path class="cls-2" d="M8.838 79.789h-1.4v-9.336h1.214v5.588l1.399-5.588h1.709v9.336h-1.226v-6.762zm6.797-7.042a1.341 1.341 0 00-.192-.847.649.649 0 00-.513-.22.665.665 0 00-.514.207 1.04 1.04 0 00-.192.714v1h-1.289v-.908a2.623 2.623 0 01.515-1.74 1.875 1.875 0 011.517-.606 1.878 1.878 0 011.516.606 2.623 2.623 0 01.514 1.74v.24a1.874 1.874 0 01-.953 1.921 1.416 1.416 0 01.736.74 3.062 3.062 0 01.217 1.22v.735a2.619 2.619 0 01-.514 1.74 1.878 1.878 0 01-1.516.606 1.875 1.875 0 01-1.517-.606 2.62 2.62 0 01-.515-1.74v-1.174h1.288v1.267a1.04 1.04 0 00.193.713.666.666 0 00.514.207.657.657 0 00.513-.213 1.308 1.308 0 00.192-.84v-.734a1.522 1.522 0 00-.21-.92.816.816 0 00-.681-.267h-.211v-1.334h.285a.818.818 0 00.6-.213 1.082 1.082 0 00.217-.773zm6.13 5.708h1.547v-8.002H24.7v8.002h.693v2.401h-1.386V79.79h-3.604v-9.336h1.363zm5.795-4.067h1.869v1.334h-1.87v2.733h2.353v1.334h-3.715v-9.336h3.715v1.334h-2.353zm7.291-2.601h-1.585v5.682a3.523 3.523 0 01-.16 1.16 1.807 1.807 0 01-.433.713 1.546 1.546 0 01-.626.367 2.524 2.524 0 01-.737.106h-.335a2.143 2.143 0 01-.32-.026v-1.334a1.996 1.996 0 00.234.014h.236a.885.885 0 00.55-.174.875.875 0 00.23-.72v-7.122h4.309v9.336H34.85zm2.663 8.002v-9.336h1.362v3.508h.643a1.9 1.9 0 011.53.587 2.586 2.586 0 01.502 1.72v1.213a2.584 2.584 0 01-.502 1.721 1.9 1.9 0 01-1.53.587zm2.005-1.334a.64.64 0 00.496-.186 1.03 1.03 0 00.173-.694v-1.4a1.03 1.03 0 00-.173-.694.64.64 0 00-.496-.186h-.643v3.16zm4.321 1.334h-1.362v-9.336h1.363v4.001h1.548v-4h1.386v9.335H45.39v-4h-1.55zm4.111-7.096a2.559 2.559 0 01.533-1.74 2.246 2.246 0 013.07 0 2.563 2.563 0 01.533 1.74v4.856a2.56 2.56 0 01-.532 1.74 2.246 2.246 0 01-3.07 0 2.555 2.555 0 01-.534-1.74zm1.362 4.949a1.04 1.04 0 00.193.713.74.74 0 001.027 0 1.045 1.045 0 00.192-.713V72.6a1.045 1.045 0 00-.192-.714.743.743 0 00-1.027 0 1.04 1.04 0 00-.193.714zm5.313 2.147h-1.362v-9.336h3.603v1.334h-2.241zm3.044-7.096a2.559 2.559 0 01.534-1.74 2.246 2.246 0 013.07 0 2.563 2.563 0 01.532 1.74v4.856a2.56 2.56 0 01-.532 1.74 2.246 2.246 0 01-3.07 0 2.555 2.555 0 01-.533-1.74zm1.363 4.949a1.04 1.04 0 00.192.713.74.74 0 001.028 0 1.045 1.045 0 00.192-.713V72.6a1.045 1.045 0 00-.192-.714.743.743 0 00-1.028 0 1.04 1.04 0 00-.192.714z"/></svg>