<svg id="Слой_1" data-name="Слой 1" xmlns="http://www.w3.org/2000/svg" viewBox="0 0 250 80" width="250" height="80"><defs><style>.cls-1{fill:#fff}.cls-2{fill:#d50057}</style></defs><rect class="cls-1" x="9.689" y="10.853" width="53.617" height="51.064"/><polygon class="cls-1" points="244.391 70.869 10.232 70.869 6.938 67.606 241.128 67.606 241.128 11.684 244.391 15.128 244.391 70.869"/><path class="cls-1" d="M75.774 23.054V33.91h6.762l-2.841 5.17h-3.921v17.788h-5.285V17.94h14.15l-2.841 5.114zm23.982 33.87l-4.035-15.06a9.035 9.035 0 01-.91.569v14.491H89.47V17.826h8.012a5.537 5.537 0 015.627 5.285v10.343c-.057 2.614-.569 4.319-2.728 5.797 1.534 5.625 3.352 11.99 4.83 17.673zm-3.467-33.983h-1.477v13.468a26.269 26.269 0 002.386-1.42c.455-.228.569-1.08.569-1.478v-9.263c0-.966-.625-1.307-1.478-1.307zm14.321 33.926V17.94h5.398v38.927zm20.685.284h-2.5a5.58 5.58 0 01-5.683-5.455V23.168a5.568 5.568 0 015.683-5.399h2.557a5.682 5.682 0 015.456 5.399v6.99c-2.615 1.534-4.49 2.5-5.399 3.012v-9.377a1.325 1.325 0 00-1.42-1.193c-.853 0-1.478.454-1.478 1.193v27.505a1.462 1.462 0 002.898-.227v-5.91s4.717-3.012 5.399-3.41v9.945a5.433 5.433 0 01-5.513 5.455zm21.936-.284V40.16h-4.035v16.707h-5.285V17.94h5.285v16.821h4.035v-16.82h5.342v38.926zm17.789-33.813V33.91h6.705l-2.841 5.17h-3.865v12.617h8.808l-2.841 5.171h-11.309V17.94h14.15l-2.841 5.114zm14.206 33.813V17.94h5.285v33.756h9.547l-2.33 5.171zm19.094 0V17.94h5.285v33.756h9.547l-2.33 5.171zm19.095 0V17.94h5.399v38.927z"/><path class="cls-2" d="M6.998 10.246v54.17h231.105v-54.17zm17.6 20.543a2.248 2.248 0 01-.218 1.423l-1.27 2.452a2.23 2.23 0 01-1.17 1.037v3.804a18.782 18.782 0 013.135.352c.043.008.085.021.128.03v-2.998H24.02l1.183-4.839h9.301v-4.624h-1.021l1.803-4.892h6.824l1.803 4.892h-.86v3.979h7.097l1.075 5.054h-.86v4.696q2.416-.39 4.862-.586v-3.996a1.937 1.937 0 01-1.152-.938l-1.143-2.132a1.94 1.94 0 01-.2-1.253l2.628-14.938h.003a.402.402 0 01.8 0l2.631 14.952a1.94 1.94 0 01-.188 1.23L57.51 35.61a1.927 1.927 0 01-1.012.895v3.986c.585-.034 4.435-.332 5.022-.346 4.424-.113-1.956 3.262-2.461 3.508l-.05.024a20.946 20.946 0 00-7.496 6.019 18.547 18.547 0 00-2.483 4.328 26.054 26.054 0 00-1.434 5.025 16.06 16.06 0 011.759-10.746 18.282 18.282 0 012.457-3.426 26.12 26.12 0 00-3.05 2.708 46.059 46.059 0 00-3.908 4.665 42.513 42.513 0 00-3.273 5.241 33.74 33.74 0 00-1.305 2.807h-1.218a19.02 19.02 0 01.56-3.544 24.93 24.93 0 012.565-6.234 23.866 23.866 0 012.75-3.886c-.52.327-1.031.67-1.52 1.048a24.448 24.448 0 00-4.047 3.938 37.524 37.524 0 00-3.262 4.772 43.834 43.834 0 00-2.03 3.906h-.728a15.994 15.994 0 01.857-4.757 20.714 20.714 0 012.941-5.631c.115-.16.244-.309.363-.465-.082.074-.168.143-.25.218-1.142 1.018-2.217 2.109-3.261 3.23-1.042 1.127-2.002 2.32-2.999 3.515-1.007 1.197-1.99 2.423-3.152 3.727a11.261 11.261 0 011.03-5.016 18.328 18.328 0 012.745-4.299 20.66 20.66 0 011.246-1.367 26.957 26.957 0 00-4.586 3.763 26.047 26.047 0 00-2.29 2.672l-2.292 2.865a6.335 6.335 0 01.81-3.816 17.152 17.152 0 012.285-3.127c.04-.045.089-.084.13-.13a48.174 48.174 0 00-8.163 5.098 35.149 35.149 0 018.243-7.079 54.4 54.4 0 019.8-4.864c.55-.212 1.107-.407 1.662-.607v-4.562h2.007v3.877c.466-.151.93-.308 1.398-.449V27.426h-5v9.463h-8.495v3.92a15.883 15.883 0 012.096.981 11.48 11.48 0 014.139 3.83 18.484 18.484 0 00-4.798-2.368c-.255-.084-.514-.153-.772-.227a6.229 6.229 0 011.097 1.5 3.751 3.751 0 01.335.947 1.817 1.817 0 01-.033 1.042.13.13 0 01-.239.01l-.01-.022a5.944 5.944 0 00-1.021-1.319c-.39-.397-.775-.798-1.2-1.167-.576-.507-1.196-.967-1.828-1.424a6.276 6.276 0 01.477.808 6.44 6.44 0 01.6 2.276 10.067 10.067 0 01-.114 2.215 8.385 8.385 0 00-1.784-3.64 5.827 5.827 0 00-1.457-1.116 8.687 8.687 0 00-1.406-.614 8.885 8.885 0 011.18 1.368 8.131 8.131 0 011.299 2.998 6.951 6.951 0 01-.053 3.127 9.591 9.591 0 00-2.781-4.823 10.565 10.565 0 00-3.755-2.158 8.627 8.627 0 01.982 1.719 7.779 7.779 0 01.634 2.733 5.94 5.94 0 01-.462 2.727c-.318-.878-.6-1.673-.916-2.433a25.163 25.163 0 00-1.047-2.166 24.716 24.716 0 00-1.248-2.009c-.366-.525-.757-1.04-1.158-1.574-.33.007-.652.02-.986.02h-.008a.604.604 0 01-.245-1.157 15.483 15.483 0 012.515-.833v-2.8a1.673 1.673 0 01-.995-.81l-.987-1.84a1.676 1.676 0 01-.173-1.083l2.27-12.9h.002a.347.347 0 01.692 0l1.073 6.1 2.176-12.364h1.241zm10.295 8.68h-2.205v-2.257h2.205zm3.644-8.387v-3.118h1.451v3.118zm-6.721 6.13v2.258h-2.204v-2.258zm202.17 23.087H64.903V14.363h169.083z"/><path class="cls-2" d="M19.216 34.814l-.837 1.616a1.664 1.664 0 01-.873.773v2.628a22.74 22.74 0 011.877-.272c.36-.028.723-.04 1.085-.053v-3.729a2.242 2.242 0 01-1.252-.963zm29.751 6.591v-4.946h-5.914v6.305a60.59 60.59 0 014.27-1.048c.545-.116 1.095-.21 1.644-.311zm-1.619-4.193h1.102v2.258h-1.102zm-2.733 2.258h-1.102v-2.258h1.102zm1.918.967H45.43V38.18h1.102z"/></svg>