<svg width="76" height="69" viewBox="0 0 76 69" fill="none" xmlns="http://www.w3.org/2000/svg"><path d="M18.86 36.02l-1.97-.95-1.9 1.08.3-2.17-1.61-1.47 2.15-.38.9-2 1.04 1.93 2.17.24-1.52 1.58.44 2.14zm-3.33-14.89l1.31-1.71 6.71 5.14-1.31 1.71-6.71-5.14zm5.24-5.79l5.71-3.45.62 1-1.93 1.17 3.75 6.2-1.85 1.12-3.75-6.2-1.93 1.16-.62-1zM40.27 18l-2.18.12-.46-1.51-2.63.16-.29 1.55-2 .11 1.74-8.56 3.15-.17 2.67 8.3zm-5.07-2.39l2.08-.11L36 11.28l-.8 4.33zm11.03-4.53l2 .89-3 6.6L48.45 20l-.5 1.1-5.2-2.36 3.48-7.66zm7.18 11.49l2.73-5.65 1.41 1.77-2 3.68 4-1.1 1.29 1.62-6.13 1.37L52.55 26l-1.34-1.69 2.2-1.74z" fill="#85754E"/><path d="M37.44 61.35a27.27 27.27 0 01-19.28-46.54 27.263 27.263 0 0138.55 38.56 27.06 27.06 0 01-19.27 7.98zm0-53.94A26.68 26.68 0 0018.57 53 26.697 26.697 0 0056.3 15.22a26.5 26.5 0 00-18.86-7.81z" fill="#85754E"/><path d="M21.12 43.12l4.29 4.73-.7.63-1.45-1.6-4.18 3.79-1.38-1.53 4.17-3.79-1.45-1.6.7-.63zm9.43 14.57l-1.91-.84.15-1.23-2.33-1-.8 1-1.74-.76 4.55-5.19 2.77 1.21-.69 6.81zm-3.49-3.8l1.82.8.42-3.45-2.24 2.65zm7.85-.43a1.34 1.34 0 01.74-1.24 4.78 4.78 0 012.28-.46c.783-.06 1.569.07 2.29.38a1.35 1.35 0 01.78 1.22v.25h-2v-.32a.5.5 0 00-.28-.49 1.59 1.59 0 00-.76-.14 1.69 1.69 0 00-.76.16.51.51 0 00-.26.51.74.74 0 00.31.59c.232.191.487.353.76.48l1 .44c.344.14.678.304 1 .49a3.1 3.1 0 01.76.6c.202.225.313.517.31.82a1.35 1.35 0 01-.76 1.25 5 5 0 01-2.3.46 4.85 4.85 0 01-2.31-.39 1.34 1.34 0 01-.8-1.21v-.45h2v.51a.51.51 0 00.3.5 2.32 2.32 0 001.56 0 .52.52 0 00.28-.5.74.74 0 00-.31-.59 3.828 3.828 0 00-.76-.48c-.3-.15-.63-.3-1-.45a7.294 7.294 0 01-1-.48 3 3 0 01-.76-.61 1.21 1.21 0 01-.31-.85zm7.8-2.05l5.81-2.64.39.85-2 .9 2.34 5.13-1.88.85-2.34-5.13-2 .9-.32-.86zm10.88-3.62l1.9-2.11.69.63-1.9 2.11 1.43 1.29 2.39-2.65.7.63-3.8 4.18-4.88-4.41 3.78-4.18.7.63-2.39 2.65 1.38 1.23z" fill="#85754E"/><path d="M37.44 65.27A31.18 31.18 0 0115.39 12a31.18 31.18 0 1144.09 44.1 30.93 30.93 0 01-22.04 9.17zm0-60A28.86 28.86 0 0017 54.5a28.875 28.875 0 0040.85-40.82 28.681 28.681 0 00-20.41-8.46v.05z" fill="#85754E"/><path d="M60.52 35.93l-1.97-.96-1.9 1.08.3-2.16-1.62-1.48 2.15-.38.91-1.99 1.03 1.92 2.17.25-1.51 1.57.44 2.15z" fill="#85754E"/><path d="M31.5 48.5V21l-3 2-2.5 2.5-2 3-1 4v5l2 5 2.5 3.5 4 2.5z" fill="#00904A"/><path d="M52 38.5l.5-4-.5-4-1.5-3.5-3-3.5L44 21v27.5l3-2 3-3.5 2-4.5z" fill="#CB2F3C"/><path d="M32.04 20.964l-1.04.482v26.508l1.56.964 3.12.482h4.16l2.08-.482 1.04-.482 1.04-.482V21.446l-2.6-.964L39.32 20h-3.64l-2.08.482-1.56.482z" fill="#fff"/><path d="M37.67 49.73c8.224 0 14.89-6.711 14.89-14.99s-6.666-14.99-14.89-14.99-14.89 6.711-14.89 14.99 6.666 14.99 14.89 14.99z" stroke="#85754E" stroke-width="1.42" stroke-miterlimit="10"/></svg>