<svg width="96" height="8" viewBox="0 0 96 8" fill="none" xmlns="http://www.w3.org/2000/svg"><path d="M6.19 6.21l.34.65a2.31 2.31 0 01-1 .58 4 4 0 01-1.28.21A3.42 3.42 0 01.65 4a3.69 3.69 0 011-2.61 3.4 3.4 0 012.6-1 3.24 3.24 0 012.18.69l-.4.65a2.88 2.88 0 00-1.77-.53 2.55 2.55 0 00-1.91.79A2.85 2.85 0 001.57 4a2.78 2.78 0 00.77 2 2.71 2.71 0 002 .78 2.82 2.82 0 001.85-.57zm6.94 1.34h-.87V.46h1.87a2.76 2.76 0 012 .63 2.138 2.138 0 01.62 1.57 2.1 2.1 0 01-.67 1.58 2.65 2.65 0 01-1.91.65H13.1l.03 2.66zm1.08-6.3h-1.08V4h1a1.87 1.87 0 001.24-.38 1.45 1.45 0 000-2.06 1.82 1.82 0 00-1.16-.31zM18.73 4a3.57 3.57 0 011-2.6A3.5 3.5 0 0122.34.35a3.57 3.57 0 012.62 1 3.66 3.66 0 01-2.62 6.26A3.52 3.52 0 0118.73 4zm.92 0a2.83 2.83 0 00.79 2 2.76 2.76 0 003.91 0c.506-.54.78-1.26.76-2a2.781 2.781 0 00-.78-2 2.76 2.76 0 00-3.9 0 2.81 2.81 0 00-.78 2zm10.67 3.65a3.11 3.11 0 01-1.41-.32 2.38 2.38 0 01-.93-.79l.48-.58c.23.277.52.496.85.64.31.156.653.238 1 .24a1.82 1.82 0 001.17-.36 1.2 1.2 0 00.45-1 1 1 0 00-.37-.84 1.53 1.53 0 00-1-.32h-.83v-.81h.77a1.16 1.16 0 00.83-.34 1.111 1.111 0 00.36-.85 1.07 1.07 0 00-.37-.86 1.4 1.4 0 00-.93-.3 2.09 2.09 0 00-1.63.79l-.51-.56a2.6 2.6 0 011-.76 3 3 0 011.27-.28 2.22 2.22 0 011.51.5 1.741 1.741 0 01.57 1.39 1.779 1.779 0 01-.27.92 1.87 1.87 0 01-.77.7 1.48 1.48 0 011 .57c.232.319.352.706.34 1.1a1.86 1.86 0 01-.71 1.52 2.72 2.72 0 01-1.87.6zm5.25-.1V.46h.88l2.69 3.64L41.72.46h.83v7.09h-.87V1.82l-2.54 3.52H39l-2.57-3.49v5.7h-.86zm9.23 0L47.87.42h.75l3.08 7.13h-.93l-.92-2.14h-3.26l-.92 2.14h-.87zm3.42-6l-1.29 3h2.58l-1.29-3zm6.6 6H54V.46h1.87a2.77 2.77 0 012 .63 2.25 2.25 0 010 3.15 2.66 2.66 0 01-1.91.65h-1.07l-.07 2.66zm1.08-6.3h-1.08V4h1a1.89 1.89 0 001.24-.38 1.45 1.45 0 000-2.06 1.85 1.85 0 00-1.16-.31zm5.94 6.3h-.77V.46h.87v5.67L66.29.46h.76v7.09h-.86V1.88l-4.35 5.67zm13.16 0V4.34h-3.91v3.21h-.87V.46h.87v3.07H75V.46h.87v7.09H75zM78.51 4a3.56 3.56 0 011-2.6 3.68 3.68 0 112.62 6.24 3.61 3.61 0 01-2.62-1 3.53 3.53 0 01-1-2.64zm.92 0a2.82 2.82 0 00.78 2 2.63 2.63 0 002 .81 2.59 2.59 0 002-.81 2.86 2.86 0 00.76-2 2.79 2.79 0 00-.79-2 2.6 2.6 0 00-1.94-.81 2.63 2.63 0 00-2 .8A2.84 2.84 0 0079.43 4zm8.98 3.55V.46h.88L92 4.1 94.58.46h.83v7.09h-.87V1.82L92 5.34h-.13L89.3 1.85v5.7h-.89z" fill="#D50057"/></svg>