<svg width="127" height="10" viewBox="0 0 127 10" fill="none" xmlns="http://www.w3.org/2000/svg"><path d="M5.54 7.91l.33.69a2.49 2.49 0 01-.92.62 3.39 3.39 0 01-1.23.22 3.2 3.2 0 01-2.5-1.06 4.08 4.08 0 01-1-2.83c-.036-1.01.29-2 .92-2.79a3 3 0 012.48-1.11 2.87 2.87 0 012.07.74l-.38.69a2.51 2.51 0 00-1.68-.56 2.27 2.27 0 00-1.82.84 3.24 3.24 0 00-.71 2.19 3.2 3.2 0 00.73 2.19 2.44 2.44 0 001.93.84 2.55 2.55 0 001.78-.67zm2.91-5.29v-.86h5.6v.86h-2.38v6.71h-.83V2.62H8.45zm5.86 2.93a4 4 0 011-2.78 3.16 3.16 0 012.49-1.12 3.21 3.21 0 012.49 1.09 4.44 4.44 0 010 5.59 3.37 3.37 0 01-5 0 4 4 0 01-.98-2.78zm.88 0a3.21 3.21 0 00.75 2.16 2.43 2.43 0 003.73 0 3.27 3.27 0 00.72-2.16 3.16 3.16 0 00-.75-2.17 2.44 2.44 0 00-3.71 0 3.23 3.23 0 00-.74 2.17zm7.59 3.78V1.76h.84l2.56 3.88 2.45-3.88h.79v7.57h-.83V3.21L26.18 7h-.13l-2.44-3.73v6.09l-.83-.03zm7.81 0l2.93-7.61h.71l2.93 7.61h-.88L35.4 7h-3.11l-.86 2.29-.84.04zm3.26-6.39l-1.22 3.23h2.45l-1.23-3.23zm2.89-.32v-.86h5.6v.86H40v6.71h-.83V2.62h-2.43zm5.86 2.93a4.09 4.09 0 011-2.78 3.36 3.36 0 015 0 4.44 4.44 0 010 5.59 3.36 3.36 0 01-5 0 4 4 0 01-1-2.81zm.88 0a3.21 3.21 0 00.75 2.16 2.42 2.42 0 003.72 0 3.28 3.28 0 00.73-2.16 3.16 3.16 0 00-.75-2.17 2.44 2.44 0 00-3.71 0 3.18 3.18 0 00-.74 2.17zm7.58 3.78V1.76h.84l2.56 3.88 2.46-3.88h.79v7.57h-.83V3.21L54.46 7h-.12l-2.45-3.73v6.09l-.83-.03zm11.61 0h-.73V1.76h.83v6.06l4.14-6.06h.73v7.57h-.83V3.27l-4.14 6.06zm13.74 0V2.62H72.7v6.71h-.82V1.76h5.35v7.57h-.82zm1.99 0l2.93-7.61H82l3 7.61h-.89L83.21 7h-3.1l-.87 2.29-.84.04zm3.26-6.39l-1.22 3.23h2.45l-1.23-3.23zm9.01 6.39V2.62H87v6.71h-.83V1.76h5.36v7.57h-.86zm3.7 0h-.82V1.76h1.78a2.19 2.19 0 012.52 2.35 2.37 2.37 0 01-.64 1.68 2.309 2.309 0 01-1.81.7h-1l-.03 2.84zm1-6.73h-1v2.93c.38 0 .71.05 1 .05a1.62 1.62 0 001.18-.41 1.68 1.68 0 000-2.2 1.61 1.61 0 00-1.14-.37h-.04zm4.72 6.73h-.73V1.76h.83v6.06l4.14-6.06h.73v7.57h-.83V3.27l-4.14 6.06zm7.01 0V1.76h.83v7.57h-.83zm5-7.57l-3 3.56 3.2 4h-1.06l-3.09-3.95 3-3.62.95.01zm.42 3.79a4.089 4.089 0 011-2.78 3.185 3.185 0 012.5-1.12 3.208 3.208 0 012.49 1.09 4.081 4.081 0 011 2.81 3.998 3.998 0 01-1 2.78 3.365 3.365 0 01-2.5 1.115 3.361 3.361 0 01-2.5-1.115 4.003 4.003 0 01-.99-2.78zm.88 0a3.206 3.206 0 00.75 2.16 2.414 2.414 0 001.86.872 2.418 2.418 0 001.86-.872 3.23 3.23 0 00.73-2.16 3.16 3.16 0 00-.75-2.17 2.433 2.433 0 00-1.855-.855 2.437 2.437 0 00-1.855.855 3.178 3.178 0 00-.74 2.17zm8.31 3.78H121V1.76h.83v6.06L126 1.76h.73v7.57h-.83V3.27l-4.19 6.06zm.37-9.3h.77a.997.997 0 001.05.7c.57 0 .9-.23 1-.7h.78a1.408 1.408 0 01-.57 1 2 2 0 01-1.21.37c-.446.02-.886-.11-1.25-.37a1.444 1.444 0 01-.57-1.03v.03z" fill="#D50057"/></svg>