<svg width="95" height="8" viewBox="0 0 95 8" fill="none" xmlns="http://www.w3.org/2000/svg"><path d="M5.46.62l-2.17 3 2.24 3.11h-.88L2.8 4.2 1 6.74H.13l2.25-3.11-2.15-3h.87l1.77 2.45L4.62.63l.84-.01zm6.4 6.12V1.32H9.64l-.11 1.15a18.401 18.401 0 01-.27 2 7 7 0 01-.36 1.27 2.23 2.23 0 01-.45.72 1.11 1.11 0 01-.5.31 1.48 1.48 0 01-.56 0V6a.67.67 0 00.29 0A.8.8 0 008 5.7c.15-.2.264-.423.34-.66.124-.406.218-.82.28-1.24.09-.54.17-1.2.22-1.95L8.93.62h3.67v6.12h-.74zm4.14 0V.62h3.46v.7h-2.74v2h2.45V4h-2.45v2h2.8v.7L16 6.74zm6.54 0V.62H26v.7h-2.72v1.76c.313-.02.627-.02.94 0a2.37 2.37 0 011.58.48 1.662 1.662 0 01.56 1.32 1.742 1.742 0 01-.62 1.44 2.64 2.64 0 01-1.73.51h-.83l-.64-.09zm1.64-3a7.278 7.278 0 00-.9.06V6h.84a1.7 1.7 0 001.12-.32 1.09 1.09 0 00.38-.88 1 1 0 00-.37-.84 1.59 1.59 0 00-1.07-.24v.02zm5.25 3V.62h.74V6h3.28V.62h.74V6H35v1.84h-.7v-1.1h-4.87zM38.49.62v2.27h.81a2.54 2.54 0 011.7.5 1.73 1.73 0 01.56 1.39 1.81 1.81 0 01-.64 1.49 2.75 2.75 0 01-1.79.53h-1.39V.62h.75zm.76 2.93c-.21 0-.46 0-.76.05V6h.73c1 0 1.56-.43 1.56-1.3a1.07 1.07 0 00-.4-.9 1.77 1.77 0 00-1.13-.25zm3.3 3.19V.62h.75v6.12h-.75zm8.37 0h-.74V.62h1.6a2.34 2.34 0 011.73.54c.334.364.51.846.49 1.34a1.82 1.82 0 01-.57 1.36 2.21 2.21 0 01-1.63.56h-.92l.04 2.32zm.93-5.44h-.93v2.36h.89a1.58 1.58 0 001.06-.32 1.119 1.119 0 00.38-.91 1.09 1.09 0 00-.35-.87 1.52 1.52 0 00-1.05-.26zm6.6 2.25L56 .62h.87l2.42 2.93-2.52 3.19h-.86l2.54-3.19zm1 3.19V.62h.74v6.12h-.74zM63.64.62l-2.48 2.92 2.57 3.2h-.86l-2.52-3.19L62.77.62h.87zm1.79 6.12L68.06.59h.64l2.64 6.15h-.8l-.79-1.85H67l-.77 1.85h-.8zm2.93-5.17l-1.1 2.62h2.2l-1.1-2.62zM78 6.74V4h-3.33v2.77h-.75V.62h.75v2.65H78V.62h.75v6.12H78zM82.89.62v2.27h.82a2.51 2.51 0 011.69.5 1.741 1.741 0 01.57 1.39 1.81 1.81 0 01-.64 1.49 2.77 2.77 0 01-1.79.53h-1.39V.62h.74zm.76 2.93c-.2 0-.45 0-.76.05V6h.74c1 0 1.55-.43 1.55-1.3a1.09 1.09 0 00-.39-.9 1.78 1.78 0 00-1.14-.25zM87 6.74V.62h.74v6.12H87zm4.08 0V.62h3.45v.7h-2.71v2h2.45V4h-2.45v2h2.8v.7l-3.54.04z" fill="#fff"/></svg>