<svg xmlns="http://www.w3.org/2000/svg" width="67" height="57"><path d="M6.67 12.666h53.193c3.668 0 6.67-2.4 6.67-5.333 0-2.934-3.002-5.334-6.67-5.334H6.67C3.002 1.999 0 4.399 0 7.333c0 2.933 3.002 5.333 6.67 5.333m53.026 33.6H6.67c-3.669 0-6.67 2.4-6.67 5.334 0 2.933 3.001 5.333 6.67 5.333h53.193c3.67 0 6.67-2.4 6.67-5.333 0-2.934-3.168-5.334-6.837-5.334m1.371-22.133H5.334c-2.935 0-5.334 2.4-5.334 5.333C0 32.4 2.398 34.8 5.333 34.8H61.2c2.933 0 5.333-2.4 5.333-5.334 0-2.933-2.535-5.333-5.467-5.333"/></svg>