<svg xmlns="http://www.w3.org/2000/svg" xmlns:xlink="http://www.w3.org/1999/xlink" width="79" height="77"><defs><path id="a" d="M0 75.77h77.552V0H0z"/></defs><g fill-rule="evenodd" transform="matrix(1 0 0 -1 0 76.77)"><mask id="b" fill="#fff"><use xlink:href="#a"/></mask><g mask="url(#b)" fill-rule="nonzero"><path d="M65.436 11.773a8.002 8.002 0 00-7.84-6.44H19.969a8 8 0 00-7.867 6.44L5.276 46.24h66.986l-6.826-34.467zm10.96 37.853a5.336 5.336 0 01-4.12 1.947h-5.12l-.094.133L48.396 74.68a2.666 2.666 0 11-4.134-3.36l16-19.76h-44l16 19.76a2.666 2.666 0 11-4.133 3.36L9.462 51.706l-.093-.133H5.276A5.334 5.334 0 01.102 45.2l6.854-34.467A13.333 13.333 0 0120.036 0h37.533a13.334 13.334 0 0113.08 10.733L77.436 45.2a5.336 5.336 0 01-1.04 4.426z"/><path d="M38.77 15.974a2.668 2.668 0 012.666 2.666v13.64a2.668 2.668 0 01-5.334 0V18.64a2.668 2.668 0 012.667-2.666m13.333 0a2.668 2.668 0 012.667 2.666v13.64a2.668 2.668 0 01-5.333 0V18.64a2.668 2.668 0 012.666-2.666m-26.666 0a2.668 2.668 0 012.666 2.666v13.64a2.668 2.668 0 01-5.333 0V18.64a2.668 2.668 0 012.667-2.666"/></g></g></svg>