<svg viewBox="0 0 70 54" xmlns="http://www.w3.org/2000/svg" xmlns:xlink="http://www.w3.org/1999/xlink"><defs><path d="M68.674 8.07L26.25 52.452c-.53.534-1.06.802-1.856.802s-1.591-.268-1.856-.802L1.856 29.993l-.53-.534c-.53-.535-.796-1.337-.796-1.872 0-.534.265-1.337.796-1.871l3.712-3.743c1.06-1.07 2.651-1.07 3.712 0l.265.267 14.583 15.775c.53.535 1.326.535 1.857 0L60.985.85h.265c1.06-1.07 2.652-1.07 3.712 0l3.712 3.744c1.06.802 1.06 2.406 0 3.475z" id="a"/></defs><use fill="#fff" xlink:href="#a"/></svg>