<svg xmlns="http://www.w3.org/2000/svg" xmlns:xlink="http://www.w3.org/1999/xlink" width="48" height="34"><defs><path id="a" d="M0 33.724h48V0H0z"/></defs><g fill="none" fill-rule="evenodd" transform="matrix(1 0 0 -1 0 33.724)"><mask id="b" fill="#fff"><use xlink:href="#a"/></mask><g mask="url(#b)" fill="#555" fill-rule="nonzero"><path d="M42.759 1.658H5.24a3.583 3.583 0 00-3.586 3.594v12.992h44.69V5.252c0-1.99-1.6-3.594-3.586-3.594zm3.586 18.244H1.655v4.976h44.69v-4.976zM5.24 32.065h37.52a3.582 3.582 0 003.586-3.594v-1.935H1.655v1.935c0 1.991 1.6 3.594 3.586 3.594zm37.518 1.658H5.24c-2.868 0-5.24-2.377-5.24-5.252V5.251C0 2.379 2.372 0 5.241 0H42.76C45.628 0 48 2.378 48 5.252v23.22c0 2.874-2.372 5.251-5.241 5.251z"/><path d="M6.841 12.163h8.662v-1.659H6.841zm0-3.317H23.78V7.187H6.841z"/></g></g></svg>