<svg xmlns="http://www.w3.org/2000/svg" xmlns:xlink="http://www.w3.org/1999/xlink" width="24" height="24" viewBox="0 0 24 24"><defs><path id="a" d="M0 23.337h23.576V0H0z"/><path id="c" d="M12.596 22.643c5.584 0 10.155-4.493 10.155-10.053 0-5.56-4.571-10.053-10.155-10.053S2.441 7.063 2.441 12.59c0 5.527 4.571 10.053 10.155 10.053m0-21.722c6.498 0 11.788 5.237 11.788 11.669s-5.29 11.669-11.788 11.669S.808 19.022.808 12.59 6.098.921 12.596.921m6.465 14.837l-1.11 1.163-6.792-6.4-3.886 3.847-1.142-1.132 4.996-4.977 7.934 7.499z"/></defs><g fill="none" fill-rule="evenodd" transform="matrix(1 0 0 -1 0 23.822)"><mask id="b" fill="#fff"><use xlink:href="#a"/></mask><g mask="url(#b)"><g transform="translate(-.808 -.921)"><mask id="d" fill="#fff"><use xlink:href="#c"/></mask><use fill="#FF5859" fill-rule="nonzero" xlink:href="#c"/><g fill="#FF5859" mask="url(#d)"><path d="M-3.192-4.257h35v36h-35z"/></g></g></g></g></svg>