<svg xmlns="http://www.w3.org/2000/svg" xmlns:xlink="http://www.w3.org/1999/xlink" width="42" height="42"><defs><path id="a" d="M21 0A20.94 20.94 0 000 21c0 11.645 9.355 21 21 21s21-9.355 21-21S32.645 0 21 0zm12.123 14.414L17.85 30.259a.865.865 0 01-.668.286c-.287 0-.573-.095-.668-.286l-7.446-8.018-.19-.191a1.031 1.031 0 01-.287-.668c0-.191.095-.477.286-.668l1.337-1.337a.923.923 0 011.336 0l.095.096 5.25 5.632c.191.19.478.19.669 0l12.79-13.269h.096a.923.923 0 011.336 0l1.337 1.337c.382.286.382.859 0 1.24z"/></defs><g fill="none" fill-rule="evenodd"><mask id="b" fill="#fff"><use xlink:href="#a"/></mask><g fill="#FF5859" mask="url(#b)"><path d="M-12.6-14.7h74v76h-74z"/></g></g></svg>