<svg width="12" height="8" xmlns="http://www.w3.org/2000/svg" xmlns:xlink="http://www.w3.org/1999/xlink"><defs><path d="M3.282.395c.041-.04.041-.079.082-.079.041-.04.082-.04.123-.079.041 0 .082-.04.082-.04.041-.039.123-.039.164-.039.041 0 .041 0 .082-.04.082 0 .164-.039.247-.039h.287c.04 0 .082 0 .123.04.04 0 .04.039.082.039.04 0 .082.04.123.04.04 0 .04.039.082.039.041.04.082.04.082.079l6.564 5.136a1.12 1.12 0 01.164 1.66c-.41.513-1.19.592-1.723.157l-5.58-4.346-2.05 2.292a1.226 1.226 0 01-1.724.118A1.121 1.121 0 01.37 3.674L3.2.474c.041 0 .041-.04.082-.079" id="a"/></defs><use xlink:href="#a" transform="matrix(1 0 0 -1 -.059 7.848)"/></svg>