<svg width="14" height="11" xmlns="http://www.w3.org/2000/svg"><path d="M14 4.582c0-.62-.185-1.213-.555-1.779-.37-.565-.867-1.054-1.492-1.464S10.583.603 9.72.362A10.077 10.077 0 007 0C5.73 0 4.557.204 3.484.612 2.411 1.02 1.563 1.576.938 2.28.311 2.985 0 3.752 0 4.582c0 .831.312 1.598.938 2.302.625.704 1.473 1.26 2.546 1.669 1.073.408 2.245.612 3.516.612.365 0 .742-.02 1.133-.057 1.031.835 2.229 1.412 3.594 1.732.255.067.552.12.89.158a.326.326 0 00.238-.065.356.356 0 00.137-.207c.016-.027.017-.055.004-.093a.197.197 0 01-.016-.072c.003-.01-.009-.032-.035-.068l-.047-.064a1.612 1.612 0 00-.117-.125c-.036-.039-.117-.121-.242-.248l-.27-.272a3.822 3.822 0 01-.242-.283 2.89 2.89 0 01-.254-.365 5.357 5.357 0 01-.21-.422 4.297 4.297 0 01-.204-.544c.818-.425 1.463-.95 1.934-1.576.471-.625.707-1.296.707-2.012z" fill-rule="evenodd"/></svg>