<svg xmlns="http://www.w3.org/2000/svg" xmlns:xlink="http://www.w3.org/1999/xlink" width="92" height="93"><defs><path id="a" d="M0 90.708h90.708V0H0z"/></defs><g fill="none" fill-rule="evenodd" transform="matrix(1 0 0 -1 0 92.709)"><mask id="b" fill="#fff"><use xlink:href="#a"/></mask><g mask="url(#b)" fill="#555" fill-rule="nonzero"><path d="M33.354 24.451V56.38c0 .993-1.466 1.775-3.333 1.775-1.867 0-3.333-.782-3.333-1.775V24.451c0-.993 1.466-1.775 3.333-1.775 1.867 0 3.333.782 3.333 1.775m16 .494v40.819c0 1.27-1.466 2.268-3.333 2.268-1.867 0-3.333-.999-3.333-2.268V24.945c0-1.27 1.466-2.268 3.333-2.268 1.867 0 3.333.998 3.333 2.268m14.666 0v24.49c0 1.272-1.466 2.269-3.332 2.269-1.867 0-3.334-.997-3.334-2.268v-24.49c0-1.271 1.467-2.269 3.334-2.269 1.866 0 3.333.998 3.333 2.268"/><path d="M45.354 5.67C23.444 5.67 5.67 23.443 5.67 45.354c0 21.91 17.775 39.685 39.685 39.685 21.91 0 39.686-17.775 39.686-39.685 0-21.911-17.775-39.686-39.686-39.686m0 85.04C20.314 90.71 0 70.395 0 45.355 0 20.313 20.314 0 45.354 0S90.71 20.313 90.71 45.355c0 25.04-20.315 45.354-45.355 45.354"/></g></g></svg>