<svg xmlns="http://www.w3.org/2000/svg" xmlns:xlink="http://www.w3.org/1999/xlink" width="48" height="36"><defs><path id="a" d="M0 35.148h47.92V0H0z"/></defs><g fill="none" fill-rule="evenodd" transform="matrix(1 0 0 -1 0 35.729)"><mask id="b" fill="#fff"><use xlink:href="#a"/></mask><g mask="url(#b)"><path fill="#555" fill-rule="nonzero" d="M46.4 20.594v-5.497H30.88v13.238l7.12.542c1.04.078 2.16-.31 2.88-1.083l4.64-4.955c.56-.62.88-1.394.88-2.245zm0-12.233c0-.774-.64-1.47-1.52-1.47H42c-.4 3.096-3.12 5.496-6.32 5.496s-6-2.4-6.32-5.497H16.72c-.4 3.097-3.12 5.497-6.32 5.497-3.28 0-6-2.4-6.32-5.497H2.24c-.32 0-.56.233-.56.542v6.039H46.4v-5.11zM35.68 1.548c-2.64 0-4.8 2.09-4.8 4.646 0 2.554 2.16 4.645 4.8 4.645 2.64 0 4.8-2.09 4.8-4.645 0-2.555-2.16-4.646-4.8-4.646zm-25.28 0c-2.64 0-4.8 2.09-4.8 4.646 0 2.554 2.16 4.645 4.8 4.645 2.64 0 4.8-2.09 4.8-4.645 0-2.555-2.16-4.646-4.8-4.646zM1.6 33.6h27.68V15.097H1.6V33.6zm36.32-3.174l-7.04-.542v4.49c0 .465-.32.774-.8.774H.8c-.48 0-.8-.31-.8-.774V7.51c0-1.162.96-2.09 2.16-2.09H4C4.4 2.4 7.12 0 10.32 0c3.28 0 5.92 2.323 6.32 5.42h12.64C29.68 2.4 32.4 0 35.6 0s5.92 2.323 6.32 5.42h2.88c1.68 0 3.12 1.315 3.12 3.019v12.154c0 1.24-.48 2.4-1.36 3.33l-4.64 4.954c-.88 1.084-2.48 1.704-4 1.549z"/></g></g></svg>