<svg xmlns="http://www.w3.org/2000/svg" width="28" height="17"><path fill="#FFF" fill-rule="evenodd" d="M16.701 6.317a7.625 7.625 0 01.149 2.453l.038.073h-.046c-.444 4.023-4.035 7.158-8.398 7.158C3.78 16 0 12.419 0 8s3.78-8 8.444-8c2.281 0 4.351.857 5.871 2.25l-2.54 1.805a5.498 5.498 0 00-3.331-1.107c-2.946 0-5.333 2.261-5.333 5.053 0 2.79 2.387 5.053 5.333 5.053 2.642 0 4.836-1.822 5.26-4.21h-5.26V6.316H16.7zm8.187 0V3.37h-2.666v2.948H19.11v2.526h3.112v2.947h2.666V8.843H28V6.317h-3.112z"/></svg>