<svg xmlns="http://www.w3.org/2000/svg" xmlns:xlink="http://www.w3.org/1999/xlink" width="114" height="100"><defs><path id="a" d="M0 98.267h112.267V0H0z"/></defs><g fill="none" fill-rule="evenodd" transform="matrix(1 0 0 -1 0 99.267)"><mask id="b" fill="#fff"><use xlink:href="#a"/></mask><g mask="url(#b)"><path fill="#555" fill-rule="nonzero" d="M14.534 84.133c4.933 4.933 11.466 7.6 18.533 7.6 5.067 0 11.467-3.467 18.4-10.133 1.333-1.2 3.067-1.867 4.8-1.867 1.867 0 3.6.667 4.933 2 5.734 5.6 13.6 8.8 21.067 8.8 4.267 0 10.533-1.067 15.867-6.4 4.8-4.933 7.466-11.6 7.466-18.533 0-6.934-2.666-13.6-7.6-18.4L56.267 7.733 14.4 47.066C9.6 52 6.934 58.533 6.934 65.6c0 6.933 2.666 13.6 7.6 18.533zM53.467 1.066C54.267.4 55.2 0 56.267 0c.933 0 2 .4 2.799 1.066l43.734 41.2c6.4 6.4 9.467 14.934 9.467 23.334s-3.201 16.8-9.6 23.2c-5.733 5.733-13.067 8.266-20.533 8.266-9.2 0-18.667-3.866-25.734-10.8 0 0-.133-.133-.266-.133-.134 0-.134 0-.267.133-6.4 6-14.667 12-23.067 12s-16.8-3.2-23.2-9.6c-12.8-12.8-12.8-33.733 0-46.533L53.467 1.066z"/></g></g></svg>