<svg xmlns="http://www.w3.org/2000/svg" viewBox="0 0 25 25"><g data-name="56_icons" fill="none" stroke="#555" stroke-linecap="round" stroke-linejoin="round"><path d="M15.55 13.68a6.22 6.22 0 012.52-5v-4.9H14.8a5.64 5.64 0 01-9.46 0H2.06v4.83a6.23 6.23 0 012.62 5.07 6.23 6.23 0 01-2.62 5.07v4.83h3.27a5.64 5.64 0 019.46 0h3.28v-4.91a6.22 6.22 0 01-2.52-4.99z"/><rect x="8.14" y="9.98" width="4.06" height="7.41" rx=".93" ry=".93" stroke-width=".6"/><path d="M7.72 5.68v-4.2a1 1 0 011-1h2.57a1 1 0 011 1v4.18" stroke-width=".6"/><path d="M16.12 11.44h7.46v4.48h-7.49m7.49-10.85v16.58"/></g></svg>