<svg xmlns="http://www.w3.org/2000/svg" viewBox="0 0 25 25"><g data-name="56_icons" fill="none" stroke="#555" stroke-linecap="round" stroke-linejoin="round"><circle cx="6.73" cy="20.09" r="3.39"/><path d="M4.81 17.1V4.31a1 1 0 00-.47-.82l-3.4-2v2.93l3.69 2.31m2.48 9.76V4.22h2.24l1.19 2.7H12s4.35 1.81 4.35 8v8.58h-1.49l-1.12-1.91h-3.8"/><path stroke-width=".6" d="M10.83 10.19l2.11 1.28m-2.11 1.46l2.11 1.28m-2.11 1.47l2.11 1.28"/><path d="M20.13 8.75h2.3v12.89h-2.3zm1.15 13.11v1.77"/><path d="M21.19 8.79v-2.6a1.85 1.85 0 00-1.85-1.85h-2.28a1.85 1.85 0 00-1.85 1.85v3.7"/><path d="M22.58 11.13h1.12a.74.74 0 01.74.74v1.83a.74.74 0 01-.74.74h-1.12" stroke-width=".6"/></g></svg>