<svg data-name="8_icons" xmlns="http://www.w3.org/2000/svg" viewBox="0 0 25 25"><path fill="none" stroke="#555" stroke-linecap="round" stroke-linejoin="round" d="M1.76 18h21.58v5.5H1.76zm18.92 2.75h-4.1"/><path fill="none" stroke="#555" stroke-linecap="round" stroke-linejoin="round" stroke-width=".6" d="M13.04 20.75h-1.52m-2.07 0H7.92m-2.07 0H4.33"/><path fill="none" stroke="#555" stroke-linecap="round" stroke-linejoin="round" d="M1.76 12.5h21.58V18H1.76zm18.92 2.75h-4.1"/><path fill="none" stroke="#555" stroke-linecap="round" stroke-linejoin="round" stroke-width=".6" d="M13.04 15.25h-1.52m-2.07 0H7.92m-2.07 0H4.33"/><path fill="none" stroke="#555" stroke-linecap="round" stroke-linejoin="round" d="M1.76 7h21.58v5.5H1.76zm18.92 2.75h-4.1"/><path fill="none" stroke="#555" stroke-linecap="round" stroke-linejoin="round" stroke-width=".6" d="M13.04 9.75h-1.52m-2.07 0H7.92m-2.07 0H4.33"/><path fill="none" stroke="#555" stroke-linecap="round" stroke-linejoin="round" d="M1.76 1.5h21.58V7H1.76zm18.92 2.75h-4.1"/><path fill="none" stroke="#555" stroke-linecap="round" stroke-linejoin="round" stroke-width=".6" d="M13.04 4.25h-1.52m-2.07 0H7.92m-2.07 0H4.33"/></svg>