<svg xmlns="http://www.w3.org/2000/svg" viewBox="0 0 25 25"><g data-name="56_icons" fill="none" stroke="#555" stroke-linecap="round" stroke-linejoin="round"><rect x="1.04" y="18.43" width="23.21" height="5.16" rx=".81" ry=".81"/><path d="M7 18.43l-.88-10V2.21c0-.5-.11-.9-.61-.9h0c-.5 0-.61.4-.61.9v6.25L4 18.43"/><path d="M13.14 12.51a3.17 3.17 0 015.23 0m-7.23-1.77a5.59 5.59 0 019.22-.07m-11.53-2a8.39 8.39 0 0113.83-.1" stroke-width=".6"/><circle cx="15.67" cy="14.89" r=".66" stroke-width=".6"/><path stroke-width=".6" d="M3.68 21h1.81m2.06 0h1.81m2.06 0h1.81m2.06 0h1.8m2.07 0h1.8"/></g></svg>