<svg xmlns="http://www.w3.org/2000/svg" viewBox="0 0 25 25"><g data-name="56_icons" fill="none" stroke="#555" stroke-linecap="round" stroke-linejoin="round"><rect x="13.72" y="11.49" width="10.43" height="8.51" rx=".96" ry=".96"/><path d="M1.76 10.49V20.6a.9.9 0 00.9.9h7.66a.9.9 0 00.9-.9V10.49"/><circle cx="6.47" cy="7.44" r="5.49"/><path d="M11.34 12.83h2.22m-2.22 5.62h2.22"/><path d="M9 18.45v.69a.34.34 0 01-.34.34H4.43a.34.34 0 01-.34-.34v-.69" stroke-width=".6"/><circle cx="6.47" cy="7.44" r="3.67" stroke-width=".6"/><path d="M6.47 6a1.47 1.47 0 011.47 1.44m12.11 6.17h1.96" stroke-width=".6"/></g></svg>