<svg xmlns="http://www.w3.org/2000/svg" viewBox="0 0 25 25"><g data-name="56_icons" fill="none" stroke="#555" stroke-linecap="round" stroke-linejoin="round"><path d="M2.89 8.14h19.33a1.22 1.22 0 011.22 1.22v12.21a2.57 2.57 0 01-2.57 2.57H4.24a2.57 2.57 0 01-2.57-2.57V9.36a1.22 1.22 0 011.22-1.22zm3.84 9.92a5.11 5.11 0 01-5.06-5.36m12.71 5.36h-3.65m12.71-5.36a5.11 5.11 0 01-5.06 5.36M4.55 23.87V17.8m16.2 6.07V17.5"/><path d="M10.27 20.32H7.06v-3.47a1.16 1.16 0 011.16-1.16h.89a1.16 1.16 0 011.16 1.16zm0 0v.78a1.17 1.17 0 01-1.16 1.18h-.89a1.17 1.17 0 01-1.16-1.18v-.78M16 15.69h.89A1.16 1.16 0 0118 16.85v3.47h0-3.2 0v-3.47a1.16 1.16 0 011.2-1.16zm2 4.63v.78a1.17 1.17 0 01-1.16 1.18H16a1.17 1.17 0 01-1.16-1.18v-.78" stroke-width=".6"/><path d="M4.74 7.74V4.46A3.48 3.48 0 018.22 1h9a3.48 3.48 0 013.48 3.48v3.66"/><path stroke-width=".6" d="M8.67 17.35v1.62m7.74-1.62v1.62M7.74 1.42h0A1.62 1.62 0 009.36 3h6.76a1.62 1.62 0 001.62-1.62h0"/></g></svg>