<svg data-name="8_icons" xmlns="http://www.w3.org/2000/svg" viewBox="0 0 25 25"><path d="M15.78 3.27a6.38 6.38 0 013.73 2 6.25 6.25 0 011.94 3.92m-6.21-3.52a4.61 4.61 0 012.7 1.43 4.52 4.52 0 011.4 2.83" fill="none" stroke="#555" stroke-linecap="round" stroke-linejoin="round" stroke-width=".6"/><path d="M5.55 23.31L2 19.76A2.79 2.79 0 011.77 16l7.47-9a2.76 2.76 0 014.08-.1l5.26 5.26a2.76 2.76 0 01-.13 4.11l-9.19 7.29a2.79 2.79 0 01-3.71-.25zm-1.81-5.59l3.94 3.94" fill="none" stroke="#555" stroke-linecap="round" stroke-linejoin="round"/><path fill="none" stroke="#555" stroke-linecap="round" stroke-linejoin="round" d="M9.55 19.95l-4.1-4.1 2.14-2.91 4.86 4.86-2.9 2.15zm4.23-3.85L9.3 11.62l2.14-2.91 5.24 5.24-2.9 2.15z"/><path d="M16.32.69a8.63 8.63 0 015 2.68A8.45 8.45 0 0124 8.67" fill="none" stroke="#555" stroke-linecap="round" stroke-linejoin="round" stroke-width=".6"/></svg>