<svg xmlns="http://www.w3.org/2000/svg" viewBox="0 0 25 25"><g data-name="56_icons" fill="none" stroke="#555" stroke-linecap="round" stroke-linejoin="round"><path stroke-width=".6" d="M7.34.65h11.07v3.06H7.34zm-.99 11.62h13.06v3.16H6.35z"/><path d="M13.95 15.72v8.67h-2.14v-8.67m0-3.73V10.3m2.14 0v1.69m-2.29 4.68L4 23.74a1.07 1.07 0 01-1.52 0h0a1.07 1.07 0 010-1.52l7.06-6.54m4.54.99l7.67 7.08a1.07 1.07 0 001.52 0h0a1.07 1.07 0 000-1.52l-7.05-6.59"/><circle cx="12.93" cy="8.87" r="1.7"/><circle cx="3.28" cy="2.18" r="1.39"/><path d="M16.36 4.07a3.45 3.45 0 01-6.87 0M7.14 2.18H5.03"/></g></svg>