<svg xmlns="http://www.w3.org/2000/svg" viewBox="0 0 25 25"><g data-name="56_icons" fill="none" stroke="#555" stroke-linecap="round" stroke-linejoin="round"><path d="M17.06 8.24l-1.09-1.08-2.2.8"/><path d="M19.51 12.41l1.18-3.31 1.28-1.29 1.83-4.69-1.83-1.83-4.7 1.82-1.28 1.29-3.28 1.16"/><path d="M16.84 8.03l1.09 1.09-.84 2.1m5.69-8.92L19.4 5.69m-8.17-1.21s3.13 2 2.24 4.08a2.92 2.92 0 01-2 1.23c-.76 0-5.09 2.35-6.47 6.82 0 0-.58 2.1-2.1 1.71s-1.8-1.84-1.35-3.23 3.28-6.88 8.86-8.79z"/><path d="M20.46 13.72s-2-3.13-4.08-2.24a2.92 2.92 0 00-1.23 2c0 .76-2.35 5.09-6.82 6.47 0 0-2.1.58-1.71 2.1s1.84 1.77 3.22 1.32 6.88-3.27 8.79-8.86z"/><circle cx="19.03" cy="6.07" r=".53" transform="rotate(-45 19.024 6.07)"/></g></svg>