<svg xmlns="http://www.w3.org/2000/svg" viewBox="0 0 25 25"><g data-name="56_icons" fill="none" stroke="#555" stroke-linecap="round" stroke-linejoin="round"><path d="M17.36 14.08v-2.82l3.23-4.75a1.33 1.33 0 00-1.93-1.78l-3.37 2.73H10L6.59 4.74a1.33 1.33 0 00-1.93 1.77l2.7 4v4.36l-2.7 4a1.33 1.33 0 001.93 1.78l3.89-3.15h4.28l3.89 3.15a1.33 1.33 0 001.93-1.78zm-1.24-7.79a3.79 3.79 0 112.67 2.86M9.06 6.29A3.79 3.79 0 106.4 9.15m9.72 9.97a3.79 3.79 0 102.67-2.86m-9.73 2.86a3.79 3.79 0 11-2.66-2.86"/><path stroke-width=".6" d="M6.94 18.1l.77-.75m10.3.75l-.77-.75M7.01 7.22l.77.75m10.3-.75l-.77.75m-6.23 3.16h3.08v3.08h-3.08z"/></g></svg>