<svg data-name="8_icons" xmlns="http://www.w3.org/2000/svg" viewBox="0 0 25 25"><path fill="none" stroke="#555" stroke-linecap="round" stroke-linejoin="round" d="M24.478 5.647l-18.83 18.83-5.084-5.084L19.394.563z"/><circle cx="14.75" cy="10.28" r="2.1" fill="none" stroke="#555" stroke-linecap="round" stroke-linejoin="round" stroke-width=".6"/><circle cx="10.55" cy="14.49" r="2.1" fill="none" stroke="#555" stroke-linecap="round" stroke-linejoin="round" stroke-width=".6"/><circle cx="6.35" cy="18.69" r="2.1" fill="none" stroke="#555" stroke-linecap="round" stroke-linejoin="round" stroke-width=".6"/><path d="M4.262 1.573l1.502 1.51a1.34 1.34 0 01-.004 1.894l-.858.854a1.34 1.34 0 01-1.895-.004l-1.502-1.51h0l2.757-2.744h0zm-.702.247L2.31.57m-.42 2.92L.64 2.24" fill="none" stroke="#555" stroke-linecap="round" stroke-linejoin="round" stroke-width=".6"/><path fill="none" stroke="#555" stroke-linecap="round" stroke-linejoin="round" d="M21.21 5.948l-1.944 1.944-2.128-2.128 1.944-1.945zM16.85 2.84L15.48 1.6a1.46 1.46 0 00-2 0l-5 4.75a1.46 1.46 0 01-2 0l-.89-.88"/></svg>