<svg data-name="8_icons" xmlns="http://www.w3.org/2000/svg" viewBox="0 0 25 25"><rect x="7.42" y=".8" width="9.39" height="19.94" rx="1.15" ry="1.15" fill="none" stroke="#555" stroke-linecap="round" stroke-linejoin="round"/><path fill="none" stroke="#555" stroke-linecap="round" stroke-linejoin="round" stroke-width=".6" d="M9.12 4.98h5.98v5.14H9.12z"/><path d="M17.09 10.91h3.56a1.66 1.66 0 011.65 1.51l1 10.5a.93.93 0 01-.93.93H3.26a.93.93 0 01-.93-.93l1.24-10.54a1.66 1.66 0 011.65-1.47h2.2m3.15-8.12h3.08" fill="none" stroke="#555" stroke-linecap="round" stroke-linejoin="round"/><path fill="none" stroke="#555" stroke-linecap="round" stroke-linejoin="round" stroke-width=".6" d="M9.52 13.73h5.19m-5.19 2.03h5.19m-5.19 2.03h5.19"/><circle cx="20.02" cy="20.74" r="1.19" fill="none" stroke="#555" stroke-linecap="round" stroke-linejoin="round" stroke-width=".6"/><path fill="none" stroke="#555" stroke-linecap="round" stroke-linejoin="round" stroke-width=".6" d="M20.02 17.52v-1.75"/></svg>