<svg xmlns="http://www.w3.org/2000/svg" viewBox="0 0 25 25"><g data-name="56_icons" fill="none" stroke="#fff" stroke-linecap="round" stroke-linejoin="round"><path d="M13.45 23.8H5.17a1.47 1.47 0 01-1.47-1.47v-3.16a1.47 1.47 0 011.47-1.47H12a2.93 2.93 0 012.93 2.93h0v1.69a1.47 1.47 0 01-1.48 1.48z"/><path stroke-width=".6" d="M4.04 20h10.57"/><path d="M6 17.7v-5l-.82-.7-.47.09a2.67 2.67 0 01-3.15-2.16l-.56-3a2.67 2.67 0 012.21-3.09l9.08-1.54h3.4l1.36 7.24-3.12 1a4.19 4.19 0 00-2.42 3.8v3.33"/><path stroke-width=".6" d="M5.55 5.7l-.93 3.14m3.36-3.41l-.92 3.14m4.8 6.11s2.52 1 2.43.11-.34-4 .31-4.51"/><path d="M16.13 3.18s3.08-.39 4.41.55c0 .14.41 2.36.41 2.36a9.57 9.57 0 01-3.85 2.29m3.67-3.6l3.59-.73"/></g></svg>