<svg data-name="8_icons" xmlns="http://www.w3.org/2000/svg" viewBox="0 0 25 25"><path d="M1.16 21.31L3.71 3.46A2.87 2.87 0 016.55 1H19a2.87 2.87 0 012.84 2.48l2.55 17.85" fill="none" stroke="#555" stroke-linecap="round" stroke-linejoin="round"/><rect x="1.16" y="18.63" width="23.22" height="5.38" rx="2.69" ry="2.69" fill="none" stroke="#555" stroke-linecap="round" stroke-linejoin="round"/><path fill="none" stroke="#555" stroke-linecap="round" stroke-linejoin="round" d="M18.92 21.31h1.98"/><path d="M16.53 13.89a11.08 11.08 0 01-3.67.61c-4.4 0-8-2.42-8-5.41s3.57-5.41 8-5.41 8 2.42 8 5.41A4.81 4.81 0 0118.33 13" fill="none" stroke="#555" stroke-linecap="round" stroke-linejoin="round" stroke-width=".6"/><ellipse cx="12.86" cy="9.09" rx="3.06" ry="2.07" fill="none" stroke="#555" stroke-linecap="round" stroke-linejoin="round" stroke-width=".6"/><path d="M15.4 11.86L17.95 16a1.67 1.67 0 002.42.4h0a1.48 1.48 0 00-.37-2.6z" fill="none" stroke="#555" stroke-linecap="round" stroke-linejoin="round"/></svg>