<svg xmlns="http://www.w3.org/2000/svg" viewBox="0 0 25 25"><g data-name="56_icons" fill="none" stroke="#555" stroke-linecap="round" stroke-linejoin="round"><path d="M18.94 6.38h3A2.11 2.11 0 0124 8.48V19.2a2.11 2.11 0 01-2.11 2.11H3.11A2.11 2.11 0 011 19.2V8.48a2.11 2.11 0 012.11-2.1h6.36"/><circle cx="14.11" cy="12.99" r="8"/><path d="M9 6.17l.61-2.8a1.15 1.15 0 011.11-.84h6.77a1.15 1.15 0 011.11.84l.64 2.91"/><path d="M3.19 6.38V4.94a.61.61 0 01.61-.61h2.68a.61.61 0 01.61.61v1.44" stroke-width=".6"/><path d="M3.68 9.17h.76"/><circle cx="14.11" cy="12.99" r="5.54" stroke-width=".6"/><path d="M15.15 9.51a2.38 2.38 0 012.38 2.38" stroke-width=".6"/></g></svg>