<svg xmlns="http://www.w3.org/2000/svg" viewBox="0 0 25 25"><g data-name="56_icons" fill="none" stroke="#555" stroke-linecap="round" stroke-linejoin="round"><ellipse cx="13.93" cy="12.57" rx="4" ry="10.16"/><path d="M10.37 8.87c1.25 0 2.27 1.65 2.27 3.69s-1 3.69-2.27 3.69"/><path d="M21.5 3.58a17.72 17.72 0 012.08 9c0 3.84-.89 7.23-2.25 9.23M19.39 6.1a12.8 12.8 0 011.5 6.47 12.44 12.44 0 01-1.63 6.67" stroke-width=".6"/><path d="M3.24 16.65c-1 0-1.87-1.83-1.87-4.08s.84-4.08 1.87-4.08M5 16.61a6.26 6.26 0 01-1.12-4A6.12 6.12 0 015 8.48m8.58-6.07h-2.64L5.03 8.48H3.15m0 8.17h2.1l6.72 6.07h1.61"/></g></svg>