<svg xmlns="http://www.w3.org/2000/svg" viewBox="0 0 25 25"><g data-name="56_icons" fill="none" stroke="#555" stroke-linecap="round" stroke-linejoin="round"><path d="M12.46.58H9.75a2.09 2.09 0 00-2.06 1.73l-.08.44A2 2 0 016 4.42h0a1.68 1.68 0 00-1.73 1.69v7.69"/><path d="M12.19.58h2.71A2.09 2.09 0 0117 2.31l.08.44a2 2 0 001.62 1.67h0a1.68 1.68 0 011.68 1.68v7.7"/><path d="M12.19 24.41h2.71a2.09 2.09 0 002.1-1.73l.08-.44a2 2 0 011.66-1.67h0a1.68 1.68 0 001.68-1.68v-7.33"/><path d="M12.46 24.41H9.75a2.09 2.09 0 01-2.06-1.73l-.08-.44A2 2 0 006 20.57h0a1.68 1.68 0 01-1.68-1.68v-7.33"/><rect x="6.45" y="6.23" width="11.8" height="12.76" rx="1.35" ry="1.35"/><path d="M20.38 8.2h1.27a.91.91 0 01.91.91v2.6a.91.91 0 01-.91.91h-1.27 0V8.2h0zm-7.76.36H8.76v2" stroke-width=".6"/></g></svg>