<svg xmlns="http://www.w3.org/2000/svg" viewBox="0 0 25 25"><g data-name="56_icons" fill="none" stroke="#555" stroke-linecap="round" stroke-linejoin="round"><path d="M8.83 7.09h7.31M5.79 17.78H.67V7.09H5.8m10.53 10.69H8.67M19.28 7.09h5.04v10.69h-4.96"/><path stroke-width=".6" d="M16.15 16.14H8.62M19 8.73h2.11a1.46 1.46 0 011.46 1.46v4.49a1.46 1.46 0 01-1.46 1.46h-2.19M8.5 8.73h7.72m-10.3 7.41H3.84a1.46 1.46 0 01-1.46-1.46v-4.49a1.46 1.46 0 011.46-1.46h2"/><path d="M16.33.54h2.76v23.9h-2.76z"/><path stroke-width=".6" d="M17.71 21.65v-1.78m0-6v-1.78"/><path d="M5.92.54h2.76v23.9H5.92z"/><path stroke-width=".6" d="M7.3 21.65v-1.78m0-6v-1.78m10.41-6.2V4.11M7.3 5.89V4.11"/></g></svg>