<svg data-name="8_icons" xmlns="http://www.w3.org/2000/svg" viewBox="0 0 25 25"><rect x=".64" y="4.74" width="23.81" height="17.34" rx="1.2" ry="1.2" fill="none" stroke="#555" stroke-linecap="round" stroke-linejoin="round"/><path fill="none" stroke="#555" stroke-linecap="round" stroke-linejoin="round" d="M.87 5.23l2.02-3.62h11.66"/><path fill="none" stroke="#555" stroke-linecap="round" stroke-linejoin="round" d="M24.21 5.23l-1.73-3.62H10.54M3.03 23.66h2.92m13.68 0h2.91"/><rect x="3.16" y="7.39" width="3.77" height="12.5" rx=".63" ry=".63" fill="none" stroke="#555" stroke-linecap="round" stroke-linejoin="round" stroke-width=".6"/><rect x="6.93" y="7.39" width="3.77" height="12.5" rx=".63" ry=".63" fill="none" stroke="#555" stroke-linecap="round" stroke-linejoin="round" stroke-width=".6"/><rect x="10.7" y="7.39" width="3.77" height="12.5" rx=".63" ry=".63" fill="none" stroke="#555" stroke-linecap="round" stroke-linejoin="round" stroke-width=".6"/><rect x="14.46" y="7.39" width="3.77" height="12.5" rx=".63" ry=".63" fill="none" stroke="#555" stroke-linecap="round" stroke-linejoin="round" stroke-width=".6"/><rect x="18.23" y="7.39" width="3.77" height="12.5" rx=".63" ry=".63" fill="none" stroke="#555" stroke-linecap="round" stroke-linejoin="round" stroke-width=".6"/><path fill="none" stroke="#555" stroke-linecap="round" stroke-linejoin="round" d="M5.04 18.14v-.78m3.77.78v-.78m3.77.78v-.78m3.77.78v-.78m3.77.78v-.78"/></svg>