<svg xmlns="http://www.w3.org/2000/svg" viewBox="0 0 25 25"><g data-name="56_icons" fill="none" stroke="#555" stroke-linecap="round" stroke-linejoin="round"><path d="M9.27 22.66h-4a1.55 1.55 0 01-1.55-1.55v-1.37m9.59-17.48h6a1.55 1.55 0 011.55 1.55v17.3a1.55 1.55 0 01-1.55 1.55h-5.85M3.68 5.1V3.81a1.55 1.55 0 011.55-1.55h3.85"/><path stroke-width=".6" d="M13.24 19.69h7.58"/><path d="M13.53 4.5h1.34m-1.41 18.16l-2.66 1.52a.86.86 0 01-1.45-.62V1.4A.86.86 0 0110.8.79l2.51 1.47"/><path stroke-width=".6" d="M13.24 2.54v20.12"/><path d="M3.68 19.74V5.1"/><path stroke-width=".6" d="M6.52 2.54v20.12"/></g></svg>