<svg xmlns="http://www.w3.org/2000/svg" viewBox="0 0 25 25"><g data-name="56_icons" fill="none" stroke="#555" stroke-linecap="round" stroke-linejoin="round"><path d="M4.69 11.64l-2.77 3.1a2.9 2.9 0 00.23 4.1l4.59 4.1L15 13.67l-4.59-4.1a2.9 2.9 0 00-4 .1"/><path d="M2 7.45h0a1.25 1.25 0 00.1 1.76L6.35 13 8 11.14 3.8 7.35a1.25 1.25 0 00-1.8.1z"/><path stroke-width=".6" d="M11.57 14.79l-2.68 2.87-2.37-2.12 2.67-2.87 2.38 2.12z"/><path d="M15 13.65l7.1-8a2.25 2.25 0 00-.18-3.18h0a2.25 2.25 0 00-3.18.18l-7.1 8m1.8-2.35l-1.11-.98m3.76-1.99l-1.1-.99m3.61-2.01l-1.11-.98m1.5 10.39l-1.11-.99m3.77-2.16l-1.11-.99m3.68-2.54l-1.46-.27M22.62.68l-.75 1.28"/><path stroke-width=".6" d="M3.95 16.87l3.14 2.8"/><path d="M6.75 22.94l-1.23 1.38"/></g></svg>