<svg xmlns="http://www.w3.org/2000/svg" viewBox="0 0 25 25"><g data-name="56_icons" fill="none" stroke="#fff" stroke-linecap="round" stroke-linejoin="round"><rect x="2.08" y="13.83" width="4" height="10.16" rx="2" ry="2"/><rect x="19.24" y="13.83" width="4" height="10.16" rx="2" ry="2"/><path d="M13.94 17.65h5.08m-12.56 0h4.59M6.1 19.46a4.4 4.4 0 003.9 2.69h1.39v-4.5m7.85 1.81a4.58 4.58 0 01-3.94 2.69h-1.42v-4.5"/><path d="M11.35 22v.23a1.32 1.32 0 001.27 1.36h0a1.32 1.32 0 001.27-1.36V22m.02-4.35V3.51h5.03V1.13H6.32v2.38h5.03v14.14"/><path d="M2.41 18.68s1.38-1.5 3.46 0m13.64 0s1.38-1.5 3.46 0" stroke-width=".6"/></g></svg>