<svg xmlns="http://www.w3.org/2000/svg" viewBox="0 0 25 25"><g data-name="56_icons" fill="none" stroke="#555" stroke-linecap="round" stroke-linejoin="round"><path d="M12.89 14h4.58a1.38 1.38 0 001.38-1.37V7.7M2.86 10.71v1.85a1.38 1.38 0 001.37 1.38H9.6"/><path stroke-width=".6" d="M18.94 11.68l2.39-.01.04-4.23"/><path d="M14.35 10.61l-13 .15-.03-5.08a2.22 2.22 0 012.19-2.24h20.58l-1.84 4-4.35.06a3.45 3.45 0 00-3.13 2.21zM3.28 19.87h5.36a2.45 2.45 0 002.49-2.45v-1.78m-7.85 1.21v6.22"/><circle cx="11.13" cy="14.04" r="1.52"/></g></svg>