<svg xmlns="http://www.w3.org/2000/svg" viewBox="0 0 25 25"><g data-name="56_icons" fill="none" stroke="#555" stroke-linecap="round" stroke-linejoin="round"><path d="M23.33 16.27A5.5 5.5 0 0118 20.51h-7.41m-7.24-1.1A5.49 5.49 0 011.14 15h0a5.5 5.5 0 015.5-5.5H18a5.5 5.5 0 015.4 4.43"/><circle cx="6.87" cy="20.51" r="3.64"/><path d="M20.74 4.11a3.29 3.29 0 10-4.18 3.15v2h1.78v-2a3.28 3.28 0 002.4-3.15zm-2.42 16.4v3.26h-2.07v-3.13m2.64-4.42h4.77c.42 0 .34-2.25-.08-2.25h-4.69zM3.49 4h4.94v3.06h0-7 0V6a2 2 0 012.06-2zm.3 3.38v2.61m3.16-2.61v1.94"/><circle cx="6.87" cy="20.51" r="1.6" stroke-width=".6"/><path d="M16.33 3a1.52 1.52 0 111.92 2.4" stroke-width=".6"/></g></svg>