<svg xmlns="http://www.w3.org/2000/svg" viewBox="0 0 25 25"><g data-name="56_icons" fill="none" stroke="#555" stroke-linecap="round" stroke-linejoin="round"><path d="M10.43 6.44v17.45H1.47V6.44z"/><circle cx="5.95" cy="11.21" r="2.71"/><path stroke-width=".6" d="M6.97 11.21H6.7m-1.53 0H4.9"/><circle cx="5.95" cy="18.96" r="2.71"/><path stroke-width=".6" d="M6.97 18.96H6.7m-1.53 0H4.9M4.82 4.34h2.26v2.09H4.82z"/><path d="M5.95 4.13V2.95a2.3 2.3 0 012.3-2.3h3.07a2.3 2.3 0 012.3 2.3v16a2.18 2.18 0 002.18 2.18h.93m0 1.96v-3.95h1.88v3.95zm1.88-3.96l1.7-.92h2.12v5.8h-2.12l-1.7-.92m3.97-.73h1.84m-1.84-2.31h1.84"/></g></svg>