<svg xmlns="http://www.w3.org/2000/svg" viewBox="0 0 25 25"><g data-name="56_icons" fill="none" stroke="#555" stroke-linecap="round" stroke-linejoin="round"><rect x="1.87" y="8.81" width="21.6" height="13.02" rx="1.39" ry="1.39"/><path stroke-width=".6" d="M10.86 8.63v-1.7h3.29v1.7m-.86-5.26h-1.57A1.76 1.76 0 0010 4.69l-.5 2.23h6L15 4.69a1.76 1.76 0 00-1.71-1.32z"/><path d="M14.89 4.42a3.55 3.55 0 002.62-2.57l.4-1M7.11.84l.38 1a3.55 3.55 0 002.59 2.56M5.14.81h14.78" stroke-width=".6"/><circle cx="14.78" cy="15.32" r="4.86"/><circle cx="14.78" cy="15.32" r="2.97" stroke-width=".6"/><path d="M13.46 15.32A1.32 1.32 0 0114.78 14m.7 7.83v2.18H9.57v-2.18M4.62 11.58h2.07M4.27 21.67V19.5m2.31 2.17V19.5" stroke-width=".6"/></g></svg>