<svg xmlns="http://www.w3.org/2000/svg" xmlns:xlink="http://www.w3.org/1999/xlink" width="37" height="48"><defs><path id="a" d="M0 47.484h36.885V0H0z"/></defs><g fill="none" fill-rule="evenodd" transform="matrix(1 0 0 -1 0 47.484)"><mask id="b" fill="#fff"><use xlink:href="#a"/></mask><g mask="url(#b)" fill="#555" fill-rule="nonzero"><path d="M34.859 5.16c0-1.753-1.317-3.096-3.04-3.096H5.067c-1.723 0-3.04 1.343-3.04 3.097v37.161c0 1.755 1.317 3.097 3.04 3.097h17.125v-9.91c0-1.755 1.318-3.097 3.04-3.097h9.728V5.161h-.101zM24.117 43.976l9.323-9.498h-8.31c-.607 0-1.013.413-1.013 1.032v8.466zm12.465-9.807L23.814 47.174c-.204.206-.406.31-.71.31H5.066C2.23 47.483 0 45.211 0 42.321V5.161C0 2.27 2.23 0 5.067 0h26.752c2.837 0 5.067 2.27 5.067 5.16v28.285c0 .31-.103.516-.304.723z"/><path d="M7.397 22.71h7.296c.608 0 1.014.413 1.014 1.032 0 .62-.406 1.032-1.014 1.032H7.397c-.608 0-1.013-.413-1.013-1.032 0-.62.507-1.032 1.013-1.032m15.707-3.613H7.397c-.608 0-1.013-.413-1.013-1.032 0-.62.405-1.033 1.013-1.033h15.707c.609 0 1.013.413 1.013 1.033 0 .619-.404 1.032-1.013 1.032"/></g></g></svg>