<svg width="200" height="32" xmlns="http://www.w3.org/2000/svg" xmlns:xlink="http://www.w3.org/1999/xlink"><defs><path id="a" d="M0 31.2h34.688V0H0z"/></defs><g fill="none" fill-rule="evenodd"><g transform="matrix(1 0 0 -1 0 31.84)"><mask id="b" fill="#fff"><use xlink:href="#a"/></mask><g mask="url(#b)"><path d="M15.55 31.2c7.114 0 13.152-4.858 14.981-11.43l4.157-4.17-4.157-4.17C28.701 4.858 22.664 0 15.55 0 6.997 0 0 7.02 0 15.6s6.997 15.6 15.55 15.6" fill="#FF5859"/><path d="M16.464 17.705h7.863c1.218 0 2.474-.615 2.567-1.97.05-.727-.306-1.423-.89-1.848-.532-.387-1.135-.445-1.772-.445H16.56c-.637 0-1.24.058-1.772.445-.584.425-.94 1.12-.89 1.848.094 1.355 1.35 1.97 2.566 1.97" fill="#FFF"/><path d="M8.859 15.553l-.002.047.002.047h-.005c-.09 2.143.834 4.34 2.915 5.743 2.615 1.765 6.125 1.395 8.36-.823l.059-.059c.595-.4 1.334-.496 2.024-.093.93.54 1.263 1.72.728 2.663-.11.195-.27.408-.457.624a12.15 12.15 0 01-.64.535c-5.23 4.05-12.948 2.206-15.832-3.75A10.344 10.344 0 014.966 15.6a10.345 10.345 0 011.045-4.887c2.884-5.957 10.602-7.801 15.832-3.75.191.148.412.331.64.535.186.216.346.428.457.623a1.959 1.959 0 01-.728 2.664c-.69.402-1.429.307-2.024-.094l-.059-.058c-2.235-2.218-5.745-2.59-8.36-.824-2.081 1.405-3.005 3.6-2.915 5.744h.005z" fill="#FFF"/></g></g><path d="M52.366 12.91H50.35c-1.449 0-2.2-.57-2.2-1.71 0-1.191.725-1.76 2.2-1.76h3.647c1.474 0 2.07.776 2.07 2.64 0 2.305-.854 4.48-2.406 6.008-1.423 1.373-3.208 2.072-5.407 2.072-4.863 0-8.38-3.755-8.38-8.986 0-5.283 3.491-8.934 8.561-8.934 3.286 0 6.415 1.631 6.415 3.392 0 .88-.698 1.606-1.448 1.606-.336 0-.75-.13-1.293-.363-.233-.13.284.182-1.604-.88-.466-.233-1.294-.389-2.044-.389-2.845 0-4.578 2.072-4.578 5.49 0 3.47 1.733 5.672 4.5 5.672 1.45 0 2.717-.674 3.441-1.787.362-.57.517-1.114.543-2.072zM63.65 8.43L62.33 17c-.335 2.228-.879 3.005-2.069 3.005-1.086 0-1.81-.725-1.81-1.865 0-.285.077-1.01.233-1.838l.155-1.166 1.733-10.125c.207-1.114.336-1.502.724-1.916.44-.467 1.112-.726 1.863-.726 1.448 0 2.38.777 2.845 2.46l2.56 8.805 2.562-9.219c.388-1.295 1.293-2.046 2.586-2.046.673 0 1.216.156 1.63.518.595.467.828 1.114 1.164 3.03l1.655 9.66.207.958a8.26 8.26 0 01.181 1.683c0 1.087-.672 1.787-1.81 1.787-1.113 0-1.656-.622-1.889-2.202l-1.5-9.322-2.638 9.478c-.44 1.528-.983 2.046-2.199 2.046-1.216 0-1.707-.492-2.199-2.202L63.65 8.43zm21.398 8.027l-.517 1.554c-.518 1.553-.932 1.994-1.915 1.994-1.112 0-1.966-.751-1.888-1.761.026-.492.181-1.114.44-1.839l4.371-11.498c.75-1.942 1.475-2.538 2.975-2.538 1.345 0 2.07.648 2.768 2.512l4.294 11.524c.362.932.569 1.71.569 2.124 0 .802-.802 1.476-1.81 1.476-.88 0-1.475-.415-1.76-1.27l-.776-2.278h-6.751zm1.164-3.47h4.397l-2.173-6.604-2.224 6.604zm16.224.052v4.998c0 1.19-.75 1.942-1.94 1.942-1.112 0-1.785-.725-1.785-1.942V4.389c0-1.19.673-1.838 1.889-1.838h4.371c3.389 0 5.613 2.175 5.613 5.412 0 2.59-1.448 4.221-4.138 4.687l3.543 3.859c.75.828.958 1.217.958 1.709 0 .932-.906 1.813-1.889 1.813-.569 0-1.086-.363-1.888-1.321l-4.734-5.671zm0-3.004h2.121c1.527 0 2.432-.777 2.432-1.994 0-1.295-.905-2.046-2.432-2.046h-2.12v4.04zm14.802 2.149v5.853c0 1.217-.75 2.02-1.888 2.02-1.06 0-1.837-.83-1.837-2.02V4.26c0-1.14.776-1.942 1.837-1.942 1.138 0 1.888.777 1.888 1.942v4.946l5.794-6.137c.466-.492.983-.751 1.5-.751.88 0 1.656.802 1.656 1.787 0 .414-.155.75-.647 1.268l-.155.156c-.44.466-.362.388-.44.466-.18.181-.258.259-.284.31l-4.113 4.248 5.018 5.308c1.19 1.27 1.475 1.71 1.475 2.357 0 .984-.828 1.787-1.837 1.787-.569 0-1.06-.285-1.63-.855l-6.337-6.966zm28.569-6.163h-2.07c-.879 0-1.345-.104-1.68-.44-.311-.311-.467-.777-.467-1.27 0-1.113.75-1.708 2.147-1.708h7.864c1.423 0 2.147.57 2.147 1.709 0 1.19-.673 1.709-2.147 1.709h-2.095v11.912c0 1.32-.699 2.123-1.81 2.123-1.19 0-1.89-.776-1.89-2.123V6.02z" fill="#000004"/><rect fill="#000004" x="129.633" y="2.56" width="9.856" height="3.328" rx="1.664"/><rect fill="#000004" x="129.633" y="9.504" width="9.856" height="3.328" rx="1.664"/><rect fill="#000004" x="129.633" y="16.544" width="9.856" height="3.328" rx="1.664"/><path d="M159.977 16.522h4.108c1.395 0 2.067.57 2.067 1.685 0 1.063-.724 1.633-2.067 1.633h-5.736c-1.55 0-2.093-.544-2.093-2.1V4.547c0-1.348.75-1.996 2.274-1.996h5.27c1.422 0 2.093.545 2.093 1.66 0 1.14-.697 1.71-2.092 1.71h-3.824v3.603h3.591c.75 0 1.24.104 1.499.389.31.285.516.803.516 1.296 0 1.114-.697 1.659-2.015 1.659h-3.591v3.654zm16.619-14.308c2.868 0 5.167 1.219 5.167 2.722 0 .83-.775 1.685-1.472 1.685-.259 0-.672-.104-1.111-.285-1.034-.39-1.964-.622-2.713-.622-.93 0-2.067.544-2.74 1.244-.852.907-1.394 2.514-1.394 4.225 0 3.37 1.68 5.443 4.392 5.443.775 0 1.24-.13 2.455-.622.568-.26.956-.337 1.291-.337.801 0 1.473.752 1.473 1.685 0 1.555-2.506 2.825-5.503 2.825-4.728 0-8.061-3.655-8.061-8.813 0-5.365 3.41-9.15 8.216-9.15zm11.632 10.394v5.444c0 1.192-.749 1.97-1.937 1.97-1.06 0-1.783-.752-1.783-1.919V4.313c0-1.14.775-1.917 1.86-1.917 1.137 0 1.86.726 1.86 1.918v4.925h7.545V4.314c0-1.218.697-1.97 1.86-1.97 1.111 0 1.86.778 1.86 1.97v13.79c0 1.166-.749 1.917-1.86 1.917-1.163 0-1.86-.725-1.86-1.97v-5.443h-7.545zM40.143 24.628h3.973v.928h-2.924v1.252h1.5c.266 0 .507.036.724.108.217.072.403.176.558.315.156.138.276.307.36.507.085.2.127.43.127.69 0 .533-.157.942-.471 1.226-.314.284-.734.426-1.26.426h-2.587v-5.453zm2.488 4.553c.25 0 .439-.067.566-.203.128-.136.192-.321.192-.557 0-.225-.064-.407-.192-.545-.127-.138-.316-.208-.566-.208h-1.44v1.513h1.44zm3.241-4.554h1.05v1.92h1.04c.276 0 .53.039.762.115.232.077.433.19.601.338.168.149.299.332.39.55.092.217.138.467.138.748 0 .287-.046.54-.138.76s-.22.406-.386.557c-.166.151-.362.267-.59.346s-.473.119-.738.119h-2.129v-5.453zm4.64 5.453v-5.445h1.056v5.445h-1.056zm-3.59-.899h.98c.295 0 .517-.079.665-.238.148-.158.222-.376.222-.652a.91.91 0 00-.23-.642c-.153-.166-.372-.25-.658-.25h-.98v1.782zm10.483-3.625h-1.738v4.524h-1.049v-4.524H52.88v-.929h4.525v.93zm3.616 4.562c-.398 0-.759-.078-1.083-.234a2.661 2.661 0 01-.834-.622 2.832 2.832 0 01-.54-.887 2.831 2.831 0 01-.191-1.021c0-.364.067-.712.202-1.045.136-.333.322-.627.56-.883.237-.256.519-.46.845-.61a2.504 2.504 0 011.064-.227c.393 0 .752.08 1.076.242.324.161.6.372.83.633.23.261.409.558.536.891a2.811 2.811 0 01-.558 2.93 2.65 2.65 0 01-.843.607 2.504 2.504 0 01-1.064.226zm-1.577-2.764c0 .235.036.463.108.683.071.22.174.415.31.584.135.169.3.304.497.407s.42.153.67.153c.255 0 .481-.052.678-.157.196-.105.362-.244.497-.419.135-.174.237-.37.306-.587a2.188 2.188 0 00-.007-1.348 1.886 1.886 0 00-.314-.584c-.135-.169-.301-.303-.498-.403s-.417-.15-.662-.15c-.255 0-.482.053-.681.158a1.512 1.512 0 00-.498.415 1.865 1.865 0 00-.302.583 2.188 2.188 0 00-.104.665zm9.971 1.32c0 .231-.046.433-.138.607-.092.174-.218.32-.379.438a1.77 1.77 0 01-.559.269 2.421 2.421 0 01-.677.092h-2.626v-5.453h2.91c.188 0 .359.041.512.123.153.082.283.188.39.319a1.503 1.503 0 01.138 1.697 1.214 1.214 0 01-.582.518c.312.093.558.258.74.496.18.238.271.536.271.895zm-1.064-.2a.8.8 0 00-.184-.514.624.624 0 00-.199-.157.555.555 0 00-.253-.058h-1.622v1.436h1.569a.687.687 0 00.49-.203.718.718 0 00.199-.503zm-2.258-2.94v1.374H67.5c.179 0 .33-.061.456-.184s.187-.292.187-.507c0-.21-.057-.376-.172-.5a.558.558 0 00-.425-.184h-1.454zm6.387-.907h.934l2.067 5.453h-1.087l-.505-1.36H71.99l-.497 1.36h-1.087l2.074-5.453zm1.218 3.349l-.75-2.143-.781 2.143h1.53zm5.844 2.104v-2.02h-.865l-1.225 2.02h-1.164l1.332-2.15a1.632 1.632 0 01-.75-.615 1.71 1.71 0 01-.283-.975c0-.23.043-.448.13-.653.087-.205.207-.387.36-.545a1.696 1.696 0 011.24-.515h2.274v5.453h-1.05zm0-4.547h-1.11a.747.747 0 00-.291.058.832.832 0 00-.249.161.752.752 0 00-.176.254.83.83 0 00-.065.334c0 .246.073.443.218.591a.725.725 0 00.54.223h1.133v-1.62zm9.338.023h-1.737v4.524h-1.05v-4.524h-1.737v-.929h4.524v.93zm5.087 3.595v.929h-3.774v-5.453h3.705v.93h-2.649v1.313h2.29v.86h-2.29v1.42h2.718zm2.001-4.524l1.355 2.028 1.347-2.028h1.141l-1.937 2.765 1.876 2.688h-1.14l-1.287-1.95-1.294 1.95h-1.148l1.876-2.688-1.937-2.765h1.148zm9.596 0v5.453h-1.05v-2.327h-2.464v2.327h-1.057v-5.453h1.057v2.204h2.465v-2.204h1.049zm2.843 3.825l2.771-3.825h.804v5.453h-1.049v-3.74l-2.733 3.74h-.842v-5.453h1.049v3.825zm6.419-1.582h.428l1.654-2.243h1.194l-1.952 2.634 2.128 2.819H117.1l-1.745-2.258h-.528v2.258h-1.05v-5.453h1.05v2.243zm6.089-2.243h.934l2.067 5.453h-1.087l-.506-1.36h-1.898l-.498 1.36h-1.087l2.075-5.453zm1.217 3.349l-.75-2.143-.781 2.143h1.531zm6.521.476l2.772-3.825h.803v5.453h-1.048v-3.74l-2.733 3.74h-.843v-5.453h1.05v3.825zm9.66 1.674c-.245 0-.485-.028-.72-.084a2.816 2.816 0 01-.658-.246c-.204-.108-.384-.24-.54-.396s-.276-.336-.363-.541l.865-.5c.066.15.152.276.256.38.105.106.22.192.345.258.125.067.255.115.39.146.136.03.267.046.395.046a1.509 1.509 0 001.076-.43 1.74 1.74 0 00.336-.468c.09-.18.15-.37.18-.569h-2.205v-.852h2.182a1.999 1.999 0 00-.176-.503 1.574 1.574 0 00-.314-.427 1.475 1.475 0 00-1.064-.407c-.123 0-.25.015-.383.043a1.6 1.6 0 00-.383.134 1.372 1.372 0 00-.344.25 1.203 1.203 0 00-.26.388l-.812-.561a2.12 2.12 0 01.808-.86c.36-.22.807-.33 1.343-.33a2.7 2.7 0 011.164.238 2.633 2.633 0 011.374 1.493 2.832 2.832 0 01-.011 2.012 2.878 2.878 0 01-.544.899 2.79 2.79 0 01-.842.641 2.407 2.407 0 01-1.095.246zm5.845-3.74c-.057.701-.133 1.29-.23 1.766s-.23.862-.398 1.156-.378.506-.628.634-.556.192-.919.192l-.06-.953c.173-.015.325-.058.455-.13.13-.072.242-.213.337-.423.094-.21.174-.51.24-.902.067-.392.128-.913.184-1.563l.13-1.536h3.292v5.453h-1.048v-4.524h-1.287l-.068.83zm7.98 2.765v.929h-3.774v-5.453h3.705v.93h-2.649v1.313h2.29v.86h-2.29v1.42h2.718zm2.514-2.281h.429l1.653-2.243h1.195l-1.953 2.634 2.129 2.819h-1.18l-1.745-2.258h-.528v2.258h-1.049v-5.453h1.049v2.243zm8.608-1.314h-1.738v4.524h-1.049v-4.524h-1.737v-.929h4.524v.93zm1.312 4.524v-5.453h2.305c.25 0 .48.053.692.158.212.105.395.243.548.414.153.172.273.366.36.584.086.218.13.437.13.657 0 .23-.041.454-.123.672-.081.217-.196.41-.344.58a1.693 1.693 0 01-.536.407c-.21.102-.44.153-.69.153h-1.285v1.828h-1.057zm1.057-2.757h1.225c.194 0 .356-.08.486-.238.13-.159.195-.374.195-.645 0-.139-.02-.263-.061-.373a.906.906 0 00-.161-.28.682.682 0 00-.505-.23h-1.18v1.766zm6.656 2.795c-.399 0-.76-.078-1.084-.234a2.661 2.661 0 01-.834-.622 2.832 2.832 0 01-.54-.887 2.831 2.831 0 01-.191-1.021c0-.364.067-.712.203-1.045a2.88 2.88 0 01.558-.883c.238-.256.52-.46.846-.61a2.504 2.504 0 011.064-.227c.393 0 .752.08 1.076.242.324.161.601.372.83.633.23.261.409.558.537.891a2.811 2.811 0 01-.56 2.93 2.65 2.65 0 01-.841.607 2.504 2.504 0 01-1.064.226zm-1.578-2.764c0 .235.036.463.108.683.071.22.174.415.31.584.135.169.3.304.497.407s.42.153.67.153c.255 0 .481-.052.678-.157.196-.105.362-.244.497-.419a1.86 1.86 0 00.307-.587 2.188 2.188 0 00-.008-1.348 1.886 1.886 0 00-.314-.584 1.44 1.44 0 00-1.16-.553c-.255 0-.482.053-.681.158a1.512 1.512 0 00-.498.415 1.865 1.865 0 00-.302.583 2.188 2.188 0 00-.104.665zm10.247-2.727v5.453h-1.05v-2.327h-2.464v2.327h-1.057v-5.453h1.057v2.204h2.465v-2.204h1.049zm2.843 3.825l2.771-3.825h.804v5.453h-1.049v-3.74l-2.733 3.74h-.842v-5.453h1.05v3.825zm6.419-1.582h.428l1.654-2.243h1.194l-1.952 2.634 2.128 2.819h-1.179l-1.745-2.258h-.528v2.258h-1.05v-5.453h1.05v2.243zm6.089-2.243h.934l2.067 5.453h-1.087l-.505-1.36h-1.899l-.498 1.36h-1.087l2.075-5.453zm1.217 3.349l-.75-2.143-.78 2.143h1.53z" fill="#000004"/></g></svg>