<svg xmlns="http://www.w3.org/2000/svg" width="12" height="23"><path fill="#FFF" fill-rule="evenodd" d="M6 19.217s.693.698 2.096 2.318c1.405 1.622 2.079 1.836 2.935.928.856-.907.583-1.11.42-1.854-.165-.745-2.762-3.314-2.935-3.71-.174-.396.419-.464.419-.464 4.008-.5 2.934-3.245 2.934-3.245-.999-1.69-2.515-.464-2.515-.464C7.744 13.96 6 13.653 6 13.653v5.564-5.564s-1.744.308-3.354-.927c0 0-1.517-1.227-2.516.464 0 0-1.072 2.745 2.935 3.245 0 0 .593.068.42.465-.174.395-2.77 2.964-2.935 3.71-.165.742-.437.946.419 1.853.856.908 1.53.694 2.935-.928C5.308 19.915 6 19.217 6 19.217zM6 .997c2.707 0 4.9 2.453 4.9 5.478 0 3.028-2.193 5.48-4.9 5.48-2.706 0-4.9-2.452-4.9-5.48C1.1 3.45 3.293.996 6 .996zm0 3.195c-1.128 0-2.042 1.022-2.042 2.283 0 1.26.914 2.284 2.042 2.284 1.128 0 2.042-1.023 2.042-2.284 0-1.26-.914-2.283-2.042-2.283z"/></svg>