<svg xmlns="http://www.w3.org/2000/svg" xmlns:xlink="http://www.w3.org/1999/xlink" width="64" height="50"><defs><path id="a" d="M0 48.533h64V0H0z"/></defs><g fill="none" fill-rule="evenodd" transform="matrix(1 0 0 -1 0 49.533)"><mask id="b" fill="#fff"><use xlink:href="#a"/></mask><g fill="#FFF" fill-rule="nonzero" mask="url(#b)"><path d="M56 2.667H8c-2.933 0-5.333 2.4-5.333 5.334v.265h29.466v.267c2.8-2 6.134-3.2 9.734-3.2 3.466 0 6.8 1.068 9.466 2.933h10V8c0-2.934-2.4-5.334-5.333-5.334zm2.533 19.199c0 4.268-1.6 8.135-4.266 11.068h7.066V10.933H54.4c2.533 2.933 4.133 6.8 4.133 10.933zM29.6 10.933H2.667v22H29.6a16.353 16.353 0 01-4.267-11.067c0-4.132 1.6-8 4.267-10.933zM28 21.866c0 7.735 6.267 14 14 14s14-6.265 14-14c0-7.732-6.267-14-14-14-7.733.135-14 6.4-14 14zM8 41.199h48c2.933 0 5.333-2.398 5.333-5.333V35.6h-10A16.164 16.164 0 0142 38.533a16.164 16.164 0 01-9.333-2.932h-30v.265c0 2.935 2.4 5.333 5.333 5.333zm3.467 4.667H16v-2h-4.533v2zm44.533-2H18.667v3.333c0 .802-.534 1.334-1.334 1.334h-7.2c-.8 0-1.333-.532-1.333-1.334v-3.333H8c-4.4 0-8-3.599-8-8V8c0-4.402 3.6-8 8-8h48c4.4 0 8 3.598 8 8v27.865c0 4.401-3.6 8-8 8z"/><path d="M43.333 31.866c0 .8-.533 1.334-1.333 1.334-6.133 0-11.2-5.067-11.2-11.2 0-.8.533-1.334 1.333-1.334.8 0 1.334.534 1.334 1.334 0 4.666 3.866 8.533 8.533 8.533.667 0 1.333.533 1.333 1.333"/></g></g></svg>