<svg xmlns="http://www.w3.org/2000/svg" xmlns:xlink="http://www.w3.org/1999/xlink" width="71" height="82"><defs><path id="a" d="M0 81.436h70.533V0H0z"/></defs><g fill="none" fill-rule="evenodd" transform="matrix(1 0 0 -1 0 81.436)"><mask id="b" fill="#fff"><use xlink:href="#a"/></mask><g mask="url(#b)"><path fill="#FFF" fill-rule="nonzero" d="M63.867 38.4L9.334 5.6c-1.2-.667-2.268-.267-2.667 0-.4.267-1.333.933-1.333 2.267v65.6c0 1.466.933 2.133 1.333 2.266.267.134.667.4 1.334.4.398 0 .933-.133 1.333-.4l54.533-32.8c1.199-.666 1.334-1.866 1.334-2.266 0-.4-.135-1.6-1.334-2.267m2.8 9.067l-54.666 32.8c-2.534 1.466-5.467 1.6-8 .133-2.534-1.467-4-4-4-6.933V8c0-2.933 1.466-5.467 4-6.933C5.2.4 6.534 0 8 0c1.466 0 2.8.4 4.133 1.2l54.533 32.667c2.399 1.466 3.867 4 3.867 6.8s-1.468 5.466-3.867 6.8"/></g></g></svg>