<svg xmlns="http://www.w3.org/2000/svg" xmlns:xlink="http://www.w3.org/1999/xlink" width="90" height="90"><defs><path id="a" d="M0 88.533h88.533V0H0z"/></defs><g transform="matrix(1 0 0 -1 0 89.533)"><mask id="b" fill="#fff"><use xlink:href="#a"/></mask><g mask="url(#b)"><path d="M40.534 81.866c18.666 0 33.865-15.2 33.865-33.866 0-18.667-15.199-33.867-33.865-33.867-18.667 0-33.867 15.2-33.867 33.867 0 18.666 15.2 33.866 33.867 33.866m0-74.4c10 0 19.198 3.6 26.266 9.6L83.867.001l4.667 4.667-17.067 17.065C77.467 28.8 81.066 38 81.066 48c0 22.4-18.266 40.533-40.532 40.533C18.134 88.533 0 70.266 0 48 0 25.6 18.134 7.466 40.534 7.466"/></g></g></svg>