<svg xmlns="http://www.w3.org/2000/svg" width="16" height="16"><g mask="url(#b)" transform="matrix(1 0 0 -1 0 15.86)" fill-rule="evenodd"><path d="M15.052 10.257l-4.434.668-1.987 4.138a.83.83 0 01-.753.474.87.87 0 01-.752-.474l-1.987-4.138-4.434-.668a.822.822 0 01-.67-.582.918.918 0 01.21-.883l3.22-3.232-.753-4.547a.867.867 0 01.335-.84.813.813 0 01.879-.065l3.973 2.155L11.873.108A.845.845 0 0112.271 0c.167 0 .355.065.502.172.25.194.376.518.334.84l-.752 4.548 3.22 3.232a.87.87 0 01.21.883c-.168.324-.419.54-.733.582"/></g></svg>