<svg xmlns="http://www.w3.org/2000/svg" xmlns:xlink="http://www.w3.org/1999/xlink" width="25" height="25"><defs><path id="a" d="M0 25h25V0H0z"/></defs><g fill="none" fill-rule="evenodd" transform="matrix(1 0 0 -1 0 25)"><mask id="b" fill="#fff"><use xlink:href="#a"/></mask><g fill="#555" fill-rule="nonzero" mask="url(#b)"><path d="M23.55 1.47h-7.608v7.721h7.609v-7.72zm0 9.192h-7.608c-.8 0-1.45-.659-1.45-1.47V1.47c0-.813.65-1.471 1.45-1.471h7.609A1.462 1.462 0 0125 1.47v7.721a1.46 1.46 0 01-1.45 1.47zm0 5.147h-7.608v7.72h7.609v-7.72zm0 9.191h-7.608c-.8 0-1.45-.658-1.45-1.47v-7.721c0-.812.65-1.47 1.45-1.47h7.609c.8 0 1.449.658 1.449 1.47v7.72A1.46 1.46 0 0123.55 25zM9.059 1.47h-7.61v7.721h7.609v-7.72zm0 9.192h-7.61A1.46 1.46 0 010 9.192V1.47C0 .658.649 0 1.45 0h7.608c.8 0 1.45.658 1.45 1.47v7.721a1.46 1.46 0 01-1.45 1.47zm0 5.147h-7.61v7.72h7.609v-7.72zm0 9.191h-7.61A1.46 1.46 0 010 23.53v-7.721c0-.812.649-1.47 1.45-1.47h7.608c.8 0 1.45.658 1.45 1.47v7.72A1.46 1.46 0 019.057 25z"/></g></g></svg>