<svg xmlns="http://www.w3.org/2000/svg" width="24" height="19"><path fill="#FFF" fill-rule="evenodd" d="M20.788 4.068l2.213-.44s-1.854 2.082-2.213 2.196c-.003.001-.007-.003-.01-.003-.048 1.015.01 1.32.01 1.32C16.56 25.232 1 17.234 1 17.234c5.662.15 6.167-2.194 6.167-2.194-3.316-.5-3.955-2.633-3.955-2.633 1.127.512 1.757-.44 1.757-.44C1.39 11.046 1.892 7.58 1.892 7.58c.598.546 1.575.753 2.157.831-.405-.469-3.745-4.467-1.718-6.536 0 0 2.44 4.38 8.9 4.8l.431-.108a4.612 4.612 0 014.512-5.57c3.072 0 3.736 1.755 3.736 1.755l2.197-1.316s-.241 2.2-1.319 2.633z"/></svg>