<svg xmlns="http://www.w3.org/2000/svg" xmlns:xlink="http://www.w3.org/1999/xlink" width="24" height="24"><defs><path id="a" d="M0 23.83h23.728V0H0z"/><path id="c" d="M22.468 3.404c0-1.123-.92-2.042-2.042-2.042H3.472A2.048 2.048 0 001.43 3.404v.92c0 2.927 2.213 5.378 5.072 5.753C8 8.715 9.906 8 11.95 8c2.042 0 3.949.749 5.447 2.077 2.86-.34 5.072-2.826 5.072-5.754v-.919zm-5.277 8.068a.693.693 0 01-.51-.204 6.782 6.782 0 00-4.732-1.906c-1.77 0-3.438.68-4.732 1.906a.752.752 0 01-.51.204C2.995 11.2.067 8.068.067 4.323v-.919A3.414 3.414 0 013.472 0h16.92a3.414 3.414 0 013.403 3.404v.92c.035 3.744-2.893 6.876-6.604 7.148z"/><path id="e" d="M11.949 22.468a4.67 4.67 0 004.664-4.664 4.67 4.67 0 00-4.664-4.663 4.67 4.67 0 00-4.664 4.663 4.67 4.67 0 004.664 4.664m0-10.655c3.302 0 6.025 2.69 6.025 6.025 0 3.303-2.723 5.992-6.025 5.992-3.302 0-6.026-2.69-6.026-6.026 0-3.302 2.724-5.991 6.026-5.991"/></defs><g fill="none" fill-rule="evenodd" transform="matrix(1 0 0 -1 0 23.83)"><mask id="b" fill="#fff"><use xlink:href="#a"/></mask><g mask="url(#b)"><g transform="translate(-.068)"><mask id="d" fill="#fff"><use xlink:href="#c"/></mask><use fill="#FF5859" fill-rule="nonzero" xlink:href="#c"/><g fill="#FF5859" mask="url(#d)"><path d="M-4.932-3.17h35v36h-35z"/></g><mask id="f" fill="#fff"><use xlink:href="#e"/></mask><use fill="#FF5859" fill-rule="nonzero" xlink:href="#e"/><g fill="#FF5859" mask="url(#f)"><path d="M.068-12.17h35v36h-35z"/></g></g></g></g></svg>