<svg id="474d3ea0-1851-4d29-afeb-b89bbd8d1bf8" data-name="Слой 1" xmlns="http://www.w3.org/2000/svg" width="480" height="160" viewBox="0 0 480 160">
  <defs>
    <style>
      .\35 ac7ef89-0cb6-4571-a9c4-aade635f130b {
        fill: lime;
      }

      .\35 9d1377e-7e20-4407-838e-869d367298d8 {
        fill: #fff;
      }

      .\38 cd8ce59-e579-4ccf-99e9-63bfdfc8f015 {
        fill: #989898;
      }
    </style>
  </defs>
  <title>lead__contact-social</title>

  <g id="066c0c71-ca87-4a30-baa8-1bd56c3da5c4" data-name="post-instagram">
    <path class="59d1377e-7e20-4407-838e-869d367298d8" d="M68,5H12a7,7,0,0,0-7,7V68a7,7,0,0,0,7,7H68a7,7,0,0,0,7-7V12A7,7,0,0,0,68,5ZM40,26A14,14,0,1,1,26,40,14,14,0,0,1,40,26ZM13.75,68A1.65,1.65,0,0,1,12,66.25V36.5h7.35A11.91,11.91,0,0,0,19,40a21,21,0,0,0,42,0,11.91,11.91,0,0,0-.35-3.5H68V66.25A1.65,1.65,0,0,1,66.25,68ZM68,20.75a1.65,1.65,0,0,1-1.75,1.75h-7a1.65,1.65,0,0,1-1.75-1.75v-7A1.65,1.65,0,0,1,59.25,12h7A1.65,1.65,0,0,1,68,13.75Z"/>
  </g>
  <path class="59d1377e-7e20-4407-838e-869d367298d8" d="M140.46,15.23H99.54A14.54,14.54,0,0,0,85,29.77V50.23A14.54,14.54,0,0,0,99.54,64.77h40.92A14.54,14.54,0,0,0,155,50.23V29.77A14.54,14.54,0,0,0,140.46,15.23ZM130.63,41l-19.14,9.12a.76.76,0,0,1-1.1-.69V30.6a.77.77,0,0,1,1.12-.68l19.14,9.7A.77.77,0,0,1,130.63,41Z"/>
  <g id="89836bfc-9e8c-4c3d-bfae-1ce5754cdc9b" data-name="&lt;Группа&gt;">
    <path id="d71af8b4-6132-456a-baf4-14cd50dfb765" data-name="&lt;Контур&gt;" class="59d1377e-7e20-4407-838e-869d367298d8" d="M183.45,42.28h7.67V73.87A1.14,1.14,0,0,0,192.25,75h13a1.14,1.14,0,0,0,1.13-1.13V42.43h8.82a1.13,1.13,0,0,0,1.12-1l1.34-11.63a1.1,1.1,0,0,0-.28-.88,1.12,1.12,0,0,0-.84-.38H206.39V21.25c0-2.19,1.18-3.31,3.52-3.31h6.64a1.13,1.13,0,0,0,1.13-1.13V6.14A1.13,1.13,0,0,0,216.55,5H207A17.57,17.57,0,0,0,195.5,9.32a12.05,12.05,0,0,0-4,10.7v8.52h-8.05a1.14,1.14,0,0,0-1.13,1.13V41.15A1.13,1.13,0,0,0,183.45,42.28Z"/>
  </g>
  <path class="59d1377e-7e20-4407-838e-869d367298d8" d="M314.63,56.1l-.24-.46a36.13,36.13,0,0,0-7-8l-.07-.07,0,0,0,0h0a39.78,39.78,0,0,1-2.95-3,2.77,2.77,0,0,1-.51-3,27.25,27.25,0,0,1,3.28-4.77c1-1.29,1.78-2.32,2.36-3.1q6.31-8.39,5.47-10.72l-.22-.36a2.07,2.07,0,0,0-1.12-.6,5.84,5.84,0,0,0-2.34-.09l-10.49.07a1.4,1.4,0,0,0-.73,0l-.48.11-.18.09-.15.11a1.7,1.7,0,0,0-.4.38,2.81,2.81,0,0,0-.36.64,59.16,59.16,0,0,1-3.9,8.2c-.9,1.51-1.72,2.81-2.48,3.92a18.81,18.81,0,0,1-1.89,2.44,13.3,13.3,0,0,1-1.39,1.26c-.41.31-.73.45-.95.4l-.62-.15a2.43,2.43,0,0,1-.82-.89A4.11,4.11,0,0,1,286,37a12.93,12.93,0,0,1-.13-1.48c0-.41,0-1,0-1.75s0-1.26,0-1.53q0-1.38.06-3c0-1.09.06-1.94.09-2.57s0-1.3,0-2A9,9,0,0,0,286,23a6.56,6.56,0,0,0-.38-1.16,2,2,0,0,0-.75-.88,4.43,4.43,0,0,0-1.22-.49,24.09,24.09,0,0,0-4.92-.47c-4.52-.05-7.43.24-8.71.87A5,5,0,0,0,268.58,22c-.44.54-.5.83-.18.88a4.47,4.47,0,0,1,3.1,1.57l.22.43a7.11,7.11,0,0,1,.51,1.68,16,16,0,0,1,.32,2.66,28.73,28.73,0,0,1,0,4.56c-.12,1.26-.23,2.24-.34,2.95a6.26,6.26,0,0,1-.49,1.71,6.75,6.75,0,0,1-.44.8.72.72,0,0,1-.18.18,2.6,2.6,0,0,1-1,.19,2.33,2.33,0,0,1-1.24-.51,8.72,8.72,0,0,1-1.51-1.41,18.75,18.75,0,0,1-1.77-2.49c-.65-1.07-1.33-2.34-2-3.79L263,30.35c-.37-.68-.86-1.67-1.5-3s-1.19-2.56-1.67-3.77a2.46,2.46,0,0,0-.88-1.17l-.18-.11a2.48,2.48,0,0,0-.58-.31,4,4,0,0,0-.84-.24l-10,.08a2.52,2.52,0,0,0-2.07.69l-.15.22a1.19,1.19,0,0,0-.11.58,2.84,2.84,0,0,0,.22,1q2.19,5.13,4.75,9.91t4.47,7.69c1.26,1.94,2.55,3.78,3.86,5.5s2.18,2.83,2.61,3.32.76.85,1,1.09l.91.88a22.21,22.21,0,0,0,2.57,2.09,41.5,41.5,0,0,0,3.76,2.41,20.38,20.38,0,0,0,4.79,1.93,16.4,16.4,0,0,0,5.32.6h4.19a2.89,2.89,0,0,0,1.93-.8l.15-.18a2.27,2.27,0,0,0,.27-.68,3.51,3.51,0,0,0,.13-1,11.8,11.8,0,0,1,.23-2.82,7.93,7.93,0,0,1,.62-1.9,5,5,0,0,1,.79-1.07,3.23,3.23,0,0,1,.62-.53l.29-.13a2.31,2.31,0,0,1,2.06.57,11.86,11.86,0,0,1,2.22,2.11c.7.84,1.53,1.78,2.5,2.82a16.76,16.76,0,0,0,2.55,2.34l.73.43a9,9,0,0,0,1.89.81,4.17,4.17,0,0,0,2.05.18l9.33-.15a4.27,4.27,0,0,0,2.15-.45,1.82,1.82,0,0,0,.91-1,3,3,0,0,0,0-1.24A5,5,0,0,0,314.63,56.1Z"/>
  <g>
    <path class="59d1377e-7e20-4407-838e-869d367298d8" d="M349.56,44.62H360.5a13.9,13.9,0,1,1-3.78-14.91,1.5,1.5,0,0,0,2,0l4-3.78a1.49,1.49,0,0,0,0-2.18,22.27,22.27,0,0,0-15-6.13,22.39,22.39,0,1,0,21.91,23.65c0-.15,0-5.14,0-5.14H349.56a1.5,1.5,0,0,0-1.5,1.5v5.5A1.5,1.5,0,0,0,349.56,44.62Z"/>
    <path class="59d1377e-7e20-4407-838e-869d367298d8" d="M388.31,36.62V31.25A1.32,1.32,0,0,0,387,29.93h-4.53a1.32,1.32,0,0,0-1.31,1.32v5.37h-5.37a1.32,1.32,0,0,0-1.32,1.31v4.53a1.32,1.32,0,0,0,1.32,1.31h5.37v5.37a1.32,1.32,0,0,0,1.31,1.32H387a1.32,1.32,0,0,0,1.31-1.32V43.77h5.37A1.32,1.32,0,0,0,395,42.46V37.93a1.32,1.32,0,0,0-1.32-1.31Z"/>
  </g>
  <g>
    <path class="59d1377e-7e20-4407-838e-869d367298d8" d="M436.55,54.31c-5.42-.57-10.32-1.91-14.5-5.18a18.62,18.62,0,0,1-1.53-1.26,4.35,4.35,0,0,1,4.92-7.09,9,9,0,0,1,1.2.71,23.78,23.78,0,0,0,26.37.24,7.16,7.16,0,0,1,2.57-1.33,4,4,0,0,1,4.61,1.85c1.15,1.87,1.14,3.69-.28,5.14a21.23,21.23,0,0,1-7.67,5,36.16,36.16,0,0,1-8.7,1.95c.45.49.66.73.94,1,4,4,8.08,8.08,12.09,12.14a4,4,0,0,1,.9,4.71A4.77,4.77,0,0,1,453,75a4.38,4.38,0,0,1-2.84-1.45c-3-3.06-6.14-6.07-9.12-9.19-.86-.9-1.28-.73-2.05.05-3.06,3.15-6.17,6.26-9.29,9.34a3.89,3.89,0,0,1-4.71.84,4.77,4.77,0,0,1-2.75-4.38,4.37,4.37,0,0,1,1.48-2.94l11.94-12C435.93,55,436.17,54.72,436.55,54.31Z"/>
    <path class="59d1377e-7e20-4407-838e-869d367298d8" d="M439.86,40.43A17.72,17.72,0,1,1,457.68,23,17.72,17.72,0,0,1,439.86,40.43Zm8.8-17.73a8.67,8.67,0,1,0-8.61,8.69A8.63,8.63,0,0,0,448.66,22.7Z"/>
  </g>
  <g id="fc614289-f769-492f-854f-038edbe4d9fe" data-name="post-instagram">
    <path class="8cd8ce59-e579-4ccf-99e9-63bfdfc8f015" d="M68,85H12a7,7,0,0,0-7,7v56a7,7,0,0,0,7,7H68a7,7,0,0,0,7-7V92A7,7,0,0,0,68,85ZM40,106a14,14,0,1,1-14,14A14,14,0,0,1,40,106ZM13.75,148A1.65,1.65,0,0,1,12,146.25V116.5h7.35A11.91,11.91,0,0,0,19,120a21,21,0,0,0,42,0,11.91,11.91,0,0,0-.35-3.5H68v29.75A1.65,1.65,0,0,1,66.25,148ZM68,100.75a1.65,1.65,0,0,1-1.75,1.75h-7a1.65,1.65,0,0,1-1.75-1.75v-7A1.65,1.65,0,0,1,59.25,92h7A1.65,1.65,0,0,1,68,93.75Z"/>
  </g>
  <path class="8cd8ce59-e579-4ccf-99e9-63bfdfc8f015" d="M140.46,95.23H99.54A14.54,14.54,0,0,0,85,109.77v20.46a14.54,14.54,0,0,0,14.54,14.54h40.92A14.54,14.54,0,0,0,155,130.23V109.77A14.54,14.54,0,0,0,140.46,95.23ZM130.63,121l-19.14,9.12a.76.76,0,0,1-1.1-.69V110.6a.77.77,0,0,1,1.12-.68l19.14,9.7A.77.77,0,0,1,130.63,121Z"/>
  <g id="9fe467e4-a874-4298-9ca0-f0c112618bf9" data-name="&lt;Группа&gt;">
    <path id="3be2ef4a-df6b-4e56-9b83-b5254f8dd95b" data-name="&lt;Контур&gt;" class="8cd8ce59-e579-4ccf-99e9-63bfdfc8f015" d="M183.45,122.28h7.67v31.59a1.14,1.14,0,0,0,1.13,1.13h13a1.14,1.14,0,0,0,1.13-1.13V122.43h8.82a1.13,1.13,0,0,0,1.12-1l1.34-11.63a1.1,1.1,0,0,0-.28-.88,1.12,1.12,0,0,0-.84-.38H206.39v-7.29c0-2.19,1.18-3.31,3.52-3.31h6.64a1.13,1.13,0,0,0,1.13-1.13V86.14A1.13,1.13,0,0,0,216.55,85H207a17.57,17.57,0,0,0-11.48,4.32,12.05,12.05,0,0,0-4,10.7v8.52h-8.05a1.14,1.14,0,0,0-1.13,1.13v11.48A1.13,1.13,0,0,0,183.45,122.28Z"/>
  </g>
  <path class="8cd8ce59-e579-4ccf-99e9-63bfdfc8f015" d="M314.63,136.1l-.24-.46a36.13,36.13,0,0,0-7-8l-.07-.07,0,0,0,0h0a39.78,39.78,0,0,1-2.95-3,2.77,2.77,0,0,1-.51-3,27.25,27.25,0,0,1,3.28-4.77c1-1.29,1.78-2.32,2.36-3.1q6.31-8.38,5.47-10.72l-.22-.36a2.07,2.07,0,0,0-1.12-.6,5.84,5.84,0,0,0-2.34-.09l-10.49.07a1.4,1.4,0,0,0-.73,0l-.48.11-.18.09-.15.11a1.7,1.7,0,0,0-.4.38,2.81,2.81,0,0,0-.36.64,59.16,59.16,0,0,1-3.9,8.2c-.9,1.51-1.72,2.81-2.48,3.92a18.81,18.81,0,0,1-1.89,2.44,13.3,13.3,0,0,1-1.39,1.26c-.41.31-.73.45-.95.4l-.62-.15a2.43,2.43,0,0,1-.82-.89A4.11,4.11,0,0,1,286,117a12.93,12.93,0,0,1-.13-1.48c0-.41,0-1,0-1.75s0-1.26,0-1.53q0-1.38.06-3c0-1.09.06-1.94.09-2.57s0-1.3,0-2A9,9,0,0,0,286,103a6.56,6.56,0,0,0-.38-1.16,2,2,0,0,0-.75-.88,4.43,4.43,0,0,0-1.22-.49,24.09,24.09,0,0,0-4.92-.47c-4.52-.05-7.43.24-8.71.87a5,5,0,0,0-1.39,1.09c-.44.54-.5.83-.18.88a4.47,4.47,0,0,1,3.1,1.57l.22.43a7.11,7.11,0,0,1,.51,1.68,16,16,0,0,1,.32,2.66,28.73,28.73,0,0,1,0,4.56c-.12,1.26-.23,2.24-.34,3a6.26,6.26,0,0,1-.49,1.71,6.75,6.75,0,0,1-.44.8.72.72,0,0,1-.18.18,2.6,2.6,0,0,1-1,.19,2.33,2.33,0,0,1-1.24-.51,8.72,8.72,0,0,1-1.51-1.41,18.75,18.75,0,0,1-1.77-2.49c-.65-1.07-1.33-2.34-2-3.79l-.58-1.06c-.37-.68-.86-1.67-1.5-3s-1.19-2.56-1.67-3.77a2.46,2.46,0,0,0-.88-1.17l-.18-.11a2.48,2.48,0,0,0-.58-.31,4,4,0,0,0-.84-.24l-10,.08a2.52,2.52,0,0,0-2.07.69l-.15.22a1.19,1.19,0,0,0-.11.58,2.84,2.84,0,0,0,.22,1q2.19,5.13,4.75,9.91t4.47,7.69c1.26,1.94,2.55,3.78,3.86,5.5s2.18,2.83,2.61,3.32.76.85,1,1.09l.91.88a22.21,22.21,0,0,0,2.57,2.09,41.5,41.5,0,0,0,3.76,2.41,20.38,20.38,0,0,0,4.79,1.93,16.4,16.4,0,0,0,5.32.6h4.19a2.89,2.89,0,0,0,1.93-.8l.15-.18a2.27,2.27,0,0,0,.27-.68,3.51,3.51,0,0,0,.13-1,11.8,11.8,0,0,1,.23-2.82,7.93,7.93,0,0,1,.62-1.9,5,5,0,0,1,.79-1.07,3.23,3.23,0,0,1,.62-.53l.29-.13a2.31,2.31,0,0,1,2.06.57,11.86,11.86,0,0,1,2.22,2.11c.7.84,1.53,1.78,2.5,2.82a16.76,16.76,0,0,0,2.55,2.34l.73.43a9,9,0,0,0,1.89.81,4.17,4.17,0,0,0,2.05.18l9.33-.15a4.27,4.27,0,0,0,2.15-.45,1.82,1.82,0,0,0,.91-1,3,3,0,0,0,0-1.24A5,5,0,0,0,314.63,136.1Z"/>
  <g>
    <path class="8cd8ce59-e579-4ccf-99e9-63bfdfc8f015" d="M349.56,124.62H360.5a13.9,13.9,0,1,1-3.78-14.91,1.5,1.5,0,0,0,2,0l4-3.78a1.49,1.49,0,0,0,0-2.18,22.27,22.27,0,0,0-15-6.13,22.39,22.39,0,1,0,21.91,23.65c0-.15,0-5.14,0-5.14H349.56a1.5,1.5,0,0,0-1.5,1.5v5.5A1.5,1.5,0,0,0,349.56,124.62Z"/>
    <path class="8cd8ce59-e579-4ccf-99e9-63bfdfc8f015" d="M388.31,116.62v-5.37a1.32,1.32,0,0,0-1.31-1.32h-4.53a1.32,1.32,0,0,0-1.31,1.32v5.37h-5.37a1.32,1.32,0,0,0-1.32,1.31v4.53a1.32,1.32,0,0,0,1.32,1.31h5.37v5.37a1.32,1.32,0,0,0,1.31,1.32H387a1.32,1.32,0,0,0,1.31-1.32v-5.37h5.37a1.32,1.32,0,0,0,1.32-1.31v-4.53a1.32,1.32,0,0,0-1.32-1.31Z"/>
  </g>
  <g>
    <path class="8cd8ce59-e579-4ccf-99e9-63bfdfc8f015" d="M436.55,134.31c-5.42-.57-10.32-1.91-14.5-5.18a18.62,18.62,0,0,1-1.53-1.26,4.35,4.35,0,0,1,4.92-7.09,9,9,0,0,1,1.2.71,23.78,23.78,0,0,0,26.37.24,7.16,7.16,0,0,1,2.57-1.33,4,4,0,0,1,4.61,1.85c1.15,1.87,1.14,3.69-.28,5.14a21.23,21.23,0,0,1-7.67,5,36.16,36.16,0,0,1-8.7,2c.45.49.66.73.94,1,4,4.05,8.08,8.08,12.09,12.14a4,4,0,0,1,.9,4.71A4.77,4.77,0,0,1,453,155a4.38,4.38,0,0,1-2.84-1.45c-3-3.06-6.14-6.07-9.12-9.19-.86-.9-1.28-.73-2.05.05-3.06,3.15-6.17,6.26-9.29,9.34a3.89,3.89,0,0,1-4.71.84,4.77,4.77,0,0,1-2.75-4.38,4.37,4.37,0,0,1,1.48-2.94l11.94-12C435.93,135,436.17,134.72,436.55,134.31Z"/>
    <path class="8cd8ce59-e579-4ccf-99e9-63bfdfc8f015" d="M439.86,120.43A17.72,17.72,0,1,1,457.68,103,17.72,17.72,0,0,1,439.86,120.43Zm8.8-17.73a8.67,8.67,0,1,0-8.61,8.69A8.63,8.63,0,0,0,448.66,102.7Z"/>
  </g>
</svg>
