<svg xmlns="http://www.w3.org/2000/svg" width="34" height="34" viewBox="0 0 34 34">
    <g fill="none" fill-rule="evenodd" transform="rotate(-90 17 17)">
        <circle cx="17" cy="17" r="16.646" stroke="#FFF" stroke-width=".708"/>
        <path fill="#FFF" fill-rule="nonzero" d="M17 6.642c.174 0 .318.125.348.29l.006.064v16.827l3.464-5.145c.097-.144.282-.194.436-.127l.056.031c.144.097.194.282.127.436l-.031.056-4.14 6.151c-.129.19-.396.207-.548.05l-.042-.052-4.083-6.151c-.108-.163-.064-.383.1-.491.144-.096.334-.072.45.049l.04.05 3.462 5.215v-16.9c0-.195.16-.353.355-.353z"/>
    </g>
</svg>
