<svg xmlns="http://www.w3.org/2000/svg" width="72" height="64" viewBox="0 0 72 64">
    <g fill="none" fill-rule="evenodd">
        <path fill="#FFF" d="M0 0H72V64H0z"/>
        <path fill="#000" d="M30.244 50.16c.448 0 .815.367.815.819 0 .122-.034.24-.083.349l-3.406 8.685c-.105.343-.41.588-.78.588-.382 0-.696-.258-.783-.608l-1.696-5.045-.12-.448-.149.452-2.014 5.083c-.1.331-.405.566-.771.566-.37 0-.695-.258-.78-.608l-2.875-8.57c-.05-.146-.096-.3-.096-.416 0-.437.349-.787.775-.811h1.92c.343 0 .651.224.76.542v.01c.004.007.004.02.018.036l1.182 3.794.122.443.15-.438.941-2.369-.25-.791c-.038-.146-.093-.3-.093-.416 0-.437.343-.787.775-.811h1.922c.347 0 .647.224.76.542v.01c.003.007.014.02.014.036l1.19 3.786.122.45.136-.442 1.539-3.894c.111-.302.406-.523.755-.523zm14.33 0c.446 0 .813.367.813.819 0 .122-.03.24-.082.349l-3.408 8.685c-.099.343-.413.588-.781.588-.378 0-.694-.258-.787-.608l-1.688-5.045-.128-.448-.141.452-2.012 5.083c-.108.331-.413.566-.77.566-.38 0-.695-.258-.78-.608l-2.886-8.57c-.039-.146-.093-.3-.093-.416 0-.437.34-.787.777-.811h1.924c.347 0 .65.224.755.542v.01l.02.036 1.184 3.794.115.443.154-.438.945-2.369-.286-.901c-.032-.11-.057-.219-.057-.306 0-.437.338-.787.77-.811h1.92c.35 0 .652.224.767.542v.01c.005.007.005.02.005.036l1.2 3.786.11.45.147-.442 1.53-3.894c.115-.302.413-.523.762-.523zm9.306.018c.433 0 .79.35.79.787 0 .426-.334.77-.751.788h-4.055l.004 2.384h2.717c.413 0 .74.333.74.732 0 .41-.322.736-.723.74l-2.479.006h-.259v4.168c-.01.417-.331.742-.745.754h-1.903c-.403 0-.736-.328-.752-.73h-.002V50.88c0-.388.31-.703.7-.703zm-1.074-4.228c.884 0 1.607.718 1.607 1.608 0 .896-.723 1.609-1.607 1.609-.895 0-1.608-.713-1.608-1.61 0-.89.713-1.607 1.608-1.607zm0 .272c-.747 0-1.35.596-1.35 1.336 0 .745.603 1.343 1.35 1.343.737 0 1.343-.598 1.343-1.343 0-.74-.606-1.336-1.343-1.336zm.07.584c.357 0 .532.13.532.432 0 .266-.17.384-.397.413l.435.67h-.252l-.404-.653h-.263v.654h-.237v-1.516zm-.037.188h-.312v.473h.335c.171-.005.306-.037.306-.246 0-.185-.17-.227-.33-.227zM31.909 4.42c1.344-1.106 4.282-2.01 5.715 1.191 1.12 2.466.42 3.017-.873 3.511-.541.2-1.533.804-2.126 1.35-1.134 1.04-1.523.943-2.588.308-5.376 6.78-3.43 15.177 2.67 16.69.631.156 1.12.498 1.44 1.354 1.477 2.97 2.668.21 4.748 1.612 2.881 1.272 2.407-1.259 3.987-1.262 6.18-.036 9.066-5.214 8.937-10.05-.01-.388.223-.414.366.056 2.328 7.667-1.691 21.6-4.905 23.71-3.117 2.054-7.545 2.627-6.144-3.096 2.12-9.99-5.372-7.576-2.284 2.671.257 1.182 2.586 3.268-1.613 3.814-7.252.527-9.201-5.104-11.96-11.293-.142-.418-.39-.32-.39-.116-.183 3.473 3.217 6.239-1.797 6.239-2.754-.204-4.705-.76-6.991-7.792-.997-3.375-.05-3.849-.672-6.417-1.275-5.303-.569-13.175 7.116-17.24.73-.427.812-.194.613-.015-8.878 6.133-5.8 17.255-.103 20.903.202.12.463.13.345-.244-1.336-4.262-.265-3.905-.395-8.092-.125-3.936.812-8.465 6.277-12.151-1.954-2.374-.888-4.388.628-5.64zm-7.378 37.691c.889 0 1.603.725 1.603 1.607 0 .89-.714 1.614-1.603 1.614-.887 0-1.61-.724-1.61-1.614 0-.882.721-1.607 1.61-1.607zm0 .27c-.742 0-1.342.601-1.342 1.337 0 .744.6 1.343 1.342 1.343.736 0 1.343-.6 1.343-1.343 0-.736-.607-1.338-1.343-1.338zm.031.526c.335 0 .613.199.652.555h-.225c-.043-.191-.203-.317-.42-.317-.326 0-.504.243-.504.57 0 .312.197.586.506.586.223 0 .388-.136.418-.332h.236c-.067.346-.328.558-.654.558-.466 0-.764-.351-.764-.812 0-.459.276-.808.755-.808zm13.13-12.224c-.04-.01-.137-.025-.137.045.114 1.78 3.718 2.41 4.412.572.015-.09-.07-.068-.108-.068-1.034.004-2.561-.173-4.166-.55zm1.106-4.156c.92-.017 2.224.15 3.082.405.962.296 1.247 1.472-.021 1.603-1.912.205-1.687 1.482-2.193.5-.555-.714-.968-.8-1.61-1.013-.849-.212-.89-1.457.742-1.495zm4.64-5.171c.722-1.95 1.812-3.539 3.806-2.36 2.463 1.482 2.49 5.594.642 6.567-3.072 1.621-3.203-2.453-4.426-3.822-.082-.078-.078-.232-.022-.385zm-4.608-.525c0 .077-.075.194-.14.258-1.285 1.066-2.167 3.984-4.53 2.993-1.908-.971-2.091-4.753 1.2-6.501 2.291-1.054 3.455 1.034 3.47 3.25zM53.597 6.666c1.529 1.436 1.775 3.095 1.189 4.263-.798 1.565-2.837 3.468-4.165 1.626-.585-.811-1.831-1.783-2.51-2.063-1.043-.44-1.241-1.382-.266-3.01 1.592-2.652 4.364-2.138 5.752-.816z"/>
    </g>
</svg>
