<svg xmlns="http://www.w3.org/2000/svg" width="25" height="17" viewBox="0 0 25 17">
    <g fill="#FFF">
        <path d="M1.206.06l9.295 7.514c.396.297.89.396 1.384.396.495 0 1.088-.1 1.385-.396L22.564.06H1.206z" transform="translate(.7)"/>
        <path d="M22.466 2.531l-9.295 7.12c-.396.296-.791.395-1.286.395-.494 0-.89-.099-1.285-.395L1.305 2.53C.613 2.037.02 2.334.02 3.125V14.89c0 .89.692 1.582 1.582 1.582h20.37c.89 0 1.581-.692 1.581-1.582V3.125c.198-.89-.395-1.088-1.087-.594z" transform="translate(.7)"/>
    </g>
</svg>
