<svg xmlns="http://www.w3.org/2000/svg" width="103" height="39" viewBox="0 0 103 39">
    <g fill="none" fill-rule="evenodd">
        <path fill="#FFF" fill-rule="nonzero" d="M1.893 38.266v-9.978l2.52 9.978h.6l2.54-9.978v9.978h1.479V24.928h-2l-2.32 8.94-2.28-8.94H.394v13.338h1.5zm11.162 0l.54-3.06h2.84l.54 3.06h1.539l-2.64-13.338h-1.74l-2.62 13.338h1.54zm3.2-4.399h-2.48l1.24-7.139 1.24 7.14zm7.281 4.4c1.334 0 2.317-.597 2.95-1.79s.95-2.817.95-4.87c0-2.04-.32-3.662-.96-4.869-.64-1.206-1.62-1.81-2.94-1.81h-2.54v13.338h2.54zm0-1.34h-1.04V26.268h1.04c1.547 0 2.32 1.78 2.32 5.34 0 3.546-.773 5.319-2.32 5.319zm12.042 1.34v-1.34h-3.46v-4.82h3.32v-1.34h-3.32v-4.499h3.46v-1.34h-4.96v13.338h4.96zm9.185 0V24.927h-1.5v13.338h1.5zm5.103 0v-9.24l3.26 9.24h1.44V24.927h-1.5v9.06l-3.2-9.06h-1.5v13.338h1.5zm17.784 0v-1.34h-3.46v-4.82h3.32v-1.34h-3.32v-4.499h3.46v-1.34h-4.96v13.338h4.96zm3.583 0l.54-3.06h2.84l.54 3.06h1.54l-2.64-13.339h-1.74l-2.62 13.338h1.54zm3.2-4.4h-2.48l1.24-7.139 1.24 7.14zm6.242 4.4v-5.38h1.18l1.74 5.38h1.62l-1.96-5.72c.493-.186.923-.58 1.29-1.18.366-.6.55-1.433.55-2.5 0-1.199-.29-2.156-.87-2.869-.58-.713-1.33-1.07-2.25-1.07h-2.8v13.338h1.5zm1.1-6.72h-1.1v-5.279h1.1c.573 0 1.01.24 1.31.72.3.48.45 1.12.45 1.92 0 .8-.15 1.44-.45 1.92-.3.48-.737.72-1.31.72zm9.182 6.72V26.267h2.1v-1.34h-5.72v1.34h2.1v11.998h1.52zm6.302 0v-6.18h3.2v6.18h1.5V24.927h-1.5v5.8h-3.2v-5.8h-1.5v13.338h1.5z" transform="translate(.5)"/>
        <path fill="#5AE596" d="M.394.598H2.446V24.983999999999998H.394zM7.022.598H9.074V24.983999999999998H7.022zM14.132.598H15.132V24.983999999999998H14.132zM87.337.598H88.337V24.983999999999998H87.337zM91.326.598H92.326V24.983999999999998H91.326zM72.32.598H73.32V24.983999999999998H72.32zM15.311.598H16.311V24.983999999999998H15.311zM30.646.56H31.646V24.945999999999998H30.646zM88.513.598H89.513V24.983999999999998H88.513zM92.503.598H93.503V24.983999999999998H92.503zM89.682.598H90.723V24.983999999999998H89.682zM73.499.598H74.499V24.983999999999998H73.499zM81.19.598H82.417V24.983999999999998H81.19zM20.935.598H22.409V24.983999999999998H20.935zM32.47.55H35.553V24.936H32.47zM62.695.598H67.611V24.983999999999998H62.695zM79.178.598H80.616V24.983999999999998H79.178zM43.27.598H44.738V24.983999999999998H43.27zM100.457.598H101.955V24.983999999999998H100.457zM48.35.598H49.35V24.983999999999998H48.35z" transform="translate(.5)"/>
        <path fill="#5AE596" d="M49.286.598H50.286V24.983999999999998H49.286zM53.069.598H54.069V24.983999999999998H53.069zM95.758.598H96.758V24.983999999999998H95.758z" transform="translate(.5)"/>
        <path fill="#5AE596" d="M53.792.598H54.792V24.983999999999998H53.792zM96.488.598H97.488V24.983999999999998H96.488z" transform="translate(.5)"/>
    </g>
</svg>
