<svg xmlns="http://www.w3.org/2000/svg" width="18" height="29" viewBox="0 0 18 29">
    <g fill="#3086D4">
        <path d="M7.137 19.966c-2.197-.23-4.179-.77-5.875-2.097-.21-.165-.428-.324-.62-.509-.742-.713-.817-1.53-.23-2.371.503-.72 1.347-.913 2.224-.5.17.08.331.18.486.288 3.162 2.172 7.505 2.232 10.678.098.314-.241.65-.438 1.04-.538.757-.194 1.463.084 1.87.746.464.757.458 1.496-.114 2.083-.877.9-1.933 1.553-3.105 2.007-1.11.43-2.324.647-3.526.79.182.198.267.295.38.409 1.633 1.64 3.272 3.273 4.899 4.918.554.56.67 1.255.365 1.907-.334.713-1.08 1.182-1.813 1.131-.464-.032-.826-.263-1.148-.587-1.231-1.239-2.486-2.456-3.693-3.718-.351-.368-.52-.298-.83.02-1.24 1.276-2.499 2.532-3.765 3.781-.57.561-1.246.662-1.906.342-.701-.34-1.147-1.056-1.113-1.775.024-.487.263-.859.597-1.192 1.616-1.613 3.226-3.23 4.838-4.846.106-.107.206-.221.361-.387z" transform="translate(.5 .5)"/>
        <path d="M8.476 14.348c-3.92-.014-7.135-3.264-7.112-7.19C1.386 3.188 4.603-.011 8.562 0c3.967.01 7.15 3.256 7.13 7.267-.02 3.918-3.256 7.094-7.216 7.08zm3.563-7.18c-.007-1.95-1.56-3.502-3.506-3.504C6.571 3.662 5.005 5.242 5.02 7.21c.014 1.942 1.58 3.483 3.531 3.476 1.946-.007 3.494-1.57 3.488-3.519z" transform="translate(.5 .5)"/>
    </g>
</svg>
