<svg xmlns="http://www.w3.org/2000/svg" width="31" height="18" viewBox="0 0 31 18">
    <path fill="#3086D4" d="M25.366 10.024c-.484-.612-.346-.884 0-1.431.006-.006 4.006-5.533 4.418-7.407l.002-.001c.205-.683 0-1.185-.99-1.185H25.52c-.834 0-1.22.43-1.425.913 0 0-1.668 3.993-4.028 6.581-.762.748-1.114.988-1.53.988-.204 0-.523-.24-.523-.923V1.185c0-.82-.233-1.185-.924-1.185h-5.152c-.523 0-.834.382-.834.738 0 .777 1.18.955 1.303 3.14V8.62c0 1.039-.189 1.23-.607 1.23-1.114 0-3.817-4.01-5.42-8.598-.322-.89-.638-1.25-1.479-1.25H1.624C.689.001.5.432.5.914.5 1.766 1.614 6 5.68 11.594c2.709 3.818 6.524 5.886 9.996 5.886 2.086 0 2.34-.459 2.34-1.25 0-3.648-.188-3.992.857-3.992.485 0 1.319.24 3.267 2.081 2.226 2.184 2.592 3.161 3.838 3.161h3.276c.934 0 1.407-.459 1.135-1.365-.623-1.907-4.833-5.829-5.023-6.091z"/>
</svg>
