<svg xmlns="http://www.w3.org/2000/svg" width="24" height="24" viewBox="0 0 24 24">
    <g fill="#1D1E29" fill-rule="evenodd" transform="translate(3.5 4.5)">
        <path d="M12.842 1.222c1.192 0 2.158.966 2.158 2.158v5.752c0 1.191-.966 2.157-2.158 2.157H6.281l-2.427 2.157V11.29h-.36c-1.19 0-2.157-.966-2.157-2.157V3.38c0-1.192.966-2.158 2.158-2.158h9.347zm0-1.078H3.495C1.708.144.259 1.593.259 3.38v5.752c-.001 1.51 1.044 2.821 2.517 3.157v1.157c-.001.426.249.812.637.986.389.174.843.104 1.16-.18l2.121-1.884h6.148c1.788 0 3.236-1.449 3.236-3.236V3.38c0-1.787-1.448-3.236-3.236-3.236z"/>
        <circle cx="4.263" cy="6.434" r="1"/>
        <circle cx="8.191" cy="6.402" r="1"/>
        <circle cx="11.838" cy="6.395" r="1"/>
    </g>
</svg>
