<svg xmlns="http://www.w3.org/2000/svg" width="24" height="24" viewBox="0 0 24 24">
    <path fill="#1D1E29" d="M19.463 19.017l-3.63-3.617c1.184-1.218 1.934-2.87 1.934-4.717C17.767 6.988 14.769 4 11.06 4c-3.708 0-6.706 2.988-6.706 6.683s2.998 6.683 6.706 6.683c1.42 0 2.762-.472 3.867-1.219l3.708 3.696c.118.118.276.157.434.157.158 0 .315-.04.434-.157.197-.236.197-.59-.04-.826zM5.537 10.683c0-3.027 2.486-5.504 5.523-5.504 3.038 0 5.523 2.477 5.523 5.504 0 3.027-2.485 5.504-5.523 5.504-3.037 0-5.523-2.477-5.523-5.504z"/>
</svg>
