<svg xmlns="http://www.w3.org/2000/svg" width="25" height="24" viewBox="0 0 25 24">
    <path fill="#1D1E29" fill-rule="evenodd" d="M18.914 6.574H15.53V5.446c0-.623-.505-1.128-1.128-1.128H9.89c-.623 0-1.128.505-1.128 1.128v1.128H5.378c-.623 0-1.128.505-1.128 1.128v9.4c0 .623.505 1.128 1.128 1.128h13.536c.623 0 1.128-.505 1.128-1.128v-9.4c0-.623-.505-1.128-1.128-1.128zM9.89 5.446h4.512v1.128H9.89V5.446zm9.024 2.256v2.823c-.087 0-.173.019-.252.057-1.51.7-3.09 1.237-4.715 1.602-.167-.434-.584-.721-1.049-.722h-1.504c-.477.001-.901.302-1.06.752-1.65-.35-3.25-.897-4.768-1.632-.064-.032-.135-.051-.207-.057V7.702h13.555zm-6.016 4.888v1.128h-1.504V12.59h1.504zm-7.52 4.512v-5.343c1.562.723 3.202 1.263 4.888 1.609v.35c0 .623.505 1.128 1.128 1.128h1.504c.623 0 1.128-.505 1.128-1.128v-.406c1.694-.33 3.337-.882 4.888-1.64v5.43H5.378z"/>
</svg>
