<svg xmlns="http://www.w3.org/2000/svg" width="24" height="24" viewBox="0 0 24 24">
    <path fill="#1D1E29" fill-rule="evenodd" d="M16.363 15.066c.915 0 1.719.609 1.966 1.49h1.009c.308 0 .558.25.558.558 0 .308-.25.558-.558.558h-1.012c-.248.881-1.052 1.49-1.967 1.49s-1.719-.609-1.966-1.49H4.826c-.308 0-.558-.25-.558-.558 0-.308.25-.558.558-.558h9.57c.248-.881 1.052-1.49 1.967-1.49zm-.002 1.118c-.514 0-.93.416-.93.93s.416.93.93.93.93-.416.93-.93-.416-.93-.93-.93zm-4.28-6.143c.845 0 1.601.519 1.906 1.306h5.35c.309 0 .559.25.559.558 0 .308-.25.558-.558.558h-5.243c-.182.967-1.027 1.668-2.011 1.668-.984 0-1.83-.701-2.011-1.668H4.826c-.308 0-.558-.25-.558-.558 0-.309.25-.558.558-.558h5.35c.305-.787 1.062-1.306 1.906-1.306zm0 1.12c-.513 0-.93.416-.93.93 0 .513.417.93.93.93.515 0 .931-.417.931-.93 0-.514-.416-.93-.93-.93zM7.806 4.646c.915 0 1.718.61 1.966 1.49h9.567c.308 0 .558.25.558.558 0 .309-.25.558-.558.558h-9.57c-.248.882-1.052 1.49-1.967 1.49s-1.719-.608-1.967-1.49H4.826c-.308 0-.558-.25-.558-.558 0-.308.25-.558.558-.558h1.012c.248-.88 1.051-1.49 1.967-1.49zm-.002 1.118c-.514 0-.93.417-.93.93 0 .514.416.93.93.93s.93-.416.93-.93c0-.513-.416-.93-.93-.93z"/>
</svg>
