<svg xmlns="http://www.w3.org/2000/svg" width="24" height="24" viewBox="0 0 24 24">
    <path fill="#1D1E29" fill-rule="evenodd" d="M15.282 6.209c.949-.02 1.864.349 2.536 1.02.67.67 1.039 1.587 1.02 2.535-.023.494-.143.977-.356 1.423-.633 1.273-6.4 6.4-6.4 6.4s-5.76-5.131-6.4-6.4c-.228-.44-.35-.927-.356-1.423-.016-.948.353-1.862 1.023-2.532.67-.67 1.585-1.04 2.533-1.023.956 0 2.56 1.518 3.2 2.133.64-.611 2.243-2.133 3.2-2.133zm0-1.067c-.843 0-1.824.53-3.2 1.746-1.376-1.216-2.358-1.746-3.2-1.746C7.3 5.106 5.815 5.9 4.966 7.234c-.85 1.334-.94 3.015-.237 4.433.679 1.347 5.255 5.482 6.642 6.716.405.362 1.017.362 1.422 0 1.39-1.234 5.973-5.369 6.645-6.723.695-1.418.601-3.095-.248-4.426s-2.33-2.124-3.908-2.092z"/>
</svg>
