<svg xmlns="http://www.w3.org/2000/svg" width="24" height="24" viewBox="0 0 24 24">
    <path fill="#1D1E29" fill-rule="evenodd" d="M13.063 4.178c.59 0 1.067.477 1.067 1.066V5.6c.305.097.604.216.892.356l.253-.242c.416-.416 1.09-.416 1.507 0L18.29 7.22c.416.417.416 1.091 0 1.508l-.246.245c.14.289.26.587.356.893h.356c.283 0 .555.113.755.313.2.201.312.473.311.757v2.133c0 .59-.477 1.067-1.066 1.067H18.4c-.097.306-.216.604-.356.892l.246.246c.416.416.416 1.09 0 1.507l-1.508 1.508c-.416.416-1.09.416-1.507 0l-.246-.246c-.288.14-.586.26-.892.356v.356c0 .589-.478 1.066-1.067 1.066h-2.133c-.59 0-1.067-.477-1.067-1.066V18.4c-.305-.097-.604-.216-.892-.356l-.253.239c-.416.416-1.09.416-1.507 0L5.71 16.775c-.416-.416-.416-1.091 0-1.507l.246-.246c-.14-.288-.26-.587-.356-.892h-.356c-.589 0-1.066-.478-1.066-1.067V10.93c0-.59.477-1.067 1.066-1.067H5.6c.097-.306.216-.604.356-.892l-.246-.246c-.416-.416-.416-1.09 0-1.507L7.218 5.71c.416-.416 1.09-.416 1.507 0l.246.246c.288-.14.586-.26.892-.356v-.356c0-.589.478-1.066 1.067-1.066zm.007 1.066h-2.133v1.163c-.764.144-1.49.444-2.133.882l-.825-.825L6.47 7.972l.825.824c-.437.643-.738 1.37-.882 2.134h-1.17v2.133h1.163c.144.764.444 1.49.882 2.133l-.825.825 1.508 1.508.824-.825c.643.438 1.37.738 2.134.882v1.17h2.133v-1.167c.764-.144 1.49-.444 2.133-.881l.825.824 1.508-1.507-.825-.825c.437-.643.738-1.37.882-2.133h1.17v-2.134h-1.17c-.144-.764-.445-1.49-.882-2.133l.832-.821-1.508-1.508-.824.825c-.643-.437-1.37-.738-2.134-.882v-1.17zM12 9.156c1.57 0 2.844 1.273 2.844 2.844 0 1.57-1.273 2.844-2.844 2.844-1.57 0-2.844-1.273-2.844-2.844 0-1.57 1.273-2.844 2.844-2.844zm0 1.066c-.982 0-1.778.796-1.778 1.778s.796 1.778 1.778 1.778 1.778-.796 1.778-1.778-.796-1.778-1.778-1.778z"/>
</svg>
