<svg xmlns="http://www.w3.org/2000/svg" xmlns:xlink="http://www.w3.org/1999/xlink" width="24" height="24" viewBox="0 0 24 24">
    <defs>
        <path id="a" d="M0 23.324h23.562V0H0z"/>
    </defs>
    <g fill="none" fill-rule="evenodd" transform="matrix(1 0 0 -1 0 23.81)">
        <mask id="b" fill="#fff">
            <use xlink:href="#a"/>
        </mask>
        <g mask="url(#b)">
            <path fill="#FF5859" fill-rule="nonzero" d="M18.962 18.77a9.991 9.991 0 0 0 0-14.216C14.991.623 8.55.646 4.601 4.554.652 8.463.652 14.862 4.6 18.77c3.948 3.909 10.413 3.909 14.361 0M3.446 3.411c4.595-4.548 12.076-4.548 16.67 0a11.601 11.601 0 0 1 0 16.502c-4.594 4.549-12.075 4.549-16.67 0a11.601 11.601 0 0 1 0-16.502"/>
            <path fill="#FF5859" fill-rule="nonzero" d="M6.217 10.862h4.756V6.154h1.616v4.708h4.757v1.6h-4.757v4.708h-1.616v-4.708H6.217z"/>
        </g>
    </g>
</svg>
