<svg xmlns="http://www.w3.org/2000/svg" xmlns:xlink="http://www.w3.org/1999/xlink" width="67" height="57" viewBox="0 0 67 57">
    <defs>
        <path id="a" d="M0 54.933h66.533V0H0z"/>
    </defs>
    <g  fill-rule="evenodd" transform="matrix(1 0 0 -1 0 56.933)">
        <g>
            <path fill-rule="nonzero" d="M6.67 44.267h53.193c3.668 0 6.67 2.4 6.67 5.333 0 2.934-3.002 5.334-6.67 5.334H6.67c-3.668 0-6.67-2.4-6.67-5.334 0-2.933 3.002-5.333 6.67-5.333M59.696 10.667H6.67C3.001 10.667 0 8.267 0 5.333 0 2.4 3.001 0 6.67 0h53.193c3.67 0 6.67 2.4 6.67 5.333 0 2.934-3.168 5.334-6.837 5.334M61.067 32.8H5.334C2.399 32.8 0 30.4 0 27.467c0-2.934 2.398-5.334 5.333-5.334H61.2c2.933 0 5.333 2.4 5.333 5.334 0 2.933-2.535 5.333-5.467 5.333"/>
        </g>
    </g>
</svg>
