<?xml version="1.0" encoding="utf-8"?>
<!-- Generator: Adobe Illustrator 21.0.0, SVG Export Plug-In . SVG Version: 6.00 Build 0)  -->
<svg version="1.1" id="Слой_1" xmlns="http://www.w3.org/2000/svg" xmlns:xlink="http://www.w3.org/1999/xlink" x="0px" y="0px"
	 viewBox="0 0 20 21.6" style="enable-background:new 0 0 20 21.6;" xml:space="preserve">
<path class="st0" d="M18.6,2.5v16.7c0,0.6-0.5,1.1-1.1,1.1h-1.3V1.4h1.3C18.1,1.4,18.6,1.9,18.6,2.5z M1.4,19.9V1.8
	c0-0.2,0.1-0.4,0.4-0.4h13v18.8h-13C1.6,20.2,1.4,20.1,1.4,19.9L1.4,19.9z M1.8,0C0.8,0,0,0.8,0,1.8v18.1c0,1,0.8,1.8,1.8,1.8h15.7
	c1.4,0,2.5-1.1,2.5-2.5V2.5C20,1.1,18.9,0,17.5,0L1.8,0L1.8,0z"/>
<path class="st0" d="M3.9,5.3h8.6v1.4H3.9L3.9,5.3z M3.9,8.9h8.6v1.4H3.9L3.9,8.9z"/>
</svg>
