<svg xmlns="http://www.w3.org/2000/svg" viewBox="0 0 24 24">
    <g fill-rule="nonzero">
        <path d="M23.042 7.329c-1.265-2.95-3.415-5.096-6.39-6.364A11.795 11.795 0 0 0 11.98.007c-1.627 0-3.173.32-4.658.958C4.372 2.23 2.212 4.374.945 7.329A11.678 11.678 0 0 0 0 11.987c0 1.627.31 3.19.945 4.671 1.267 2.955 3.427 5.112 6.377 6.378 1.485.637 3.031.957 4.658.957a11.8 11.8 0 0 0 4.672-.957c2.974-1.269 5.124-3.428 6.39-6.378.637-1.485.958-3.044.958-4.671 0-1.627-.32-3.173-.958-4.658zm-1.916 9.96a10.528 10.528 0 0 1-3.857 3.844 10.335 10.335 0 0 1-5.288 1.417c-1.43 0-2.795-.275-4.095-.84-1.299-.564-2.42-1.305-3.359-2.243-.938-.939-1.685-2.071-2.244-3.373a10.331 10.331 0 0 1-.826-4.107c0-1.903.467-3.664 1.404-5.275.94-1.617 2.23-2.9 3.845-3.845 1.613-.944 3.372-1.417 5.274-1.417 1.903 0 3.673.475 5.288 1.417a10.56 10.56 0 0 1 3.858 3.845c.945 1.614 1.417 3.372 1.417 5.275 0 1.903-.469 3.676-1.417 5.301z"/>
        <path d="M12.741 11.882V5.085c0-.407-.354-.735-.76-.735a.74.74 0 0 0-.722.735v6.902c0 .013.026.066.026.105a.686.686 0 0 0 .197.59l3.923 3.924c.263.262.748.262 1.01 0a.708.708 0 0 0 0-1.024l-3.674-3.7z"/>
    </g>
</svg>
