<svg width="14" height="11" xmlns="http://www.w3.org/2000/svg"><path d="M14 4.5824154c0-.62053855-.18489398-1.21362127-.5546875-1.779266-.36979352-.56564472-.86718437-1.05371481-1.4921875-1.46422491S10.58333766.60263656 9.71875.36158121C8.85416234.12052587 7.94792141 0 7 0 5.72916031 0 4.55729703.20405864 3.484375.61218205 2.411453 1.02030546 1.5625031 1.5763951.9375 2.28046765.3124969 2.9845402 0 3.75184843 0 4.5824154c0 .8305669.3124969 1.5978751.9375 2.3019477.6250031.7040725 1.473953 1.2601622 2.546875 1.6682856 1.07292203.4081234 2.24478531.612182 3.515625.612182.36458516 0 .74218555-.0190932 1.1328125-.0572802 1.03125516.8353404 2.22915984 1.4129099 3.59375 1.7327259.25520961.0668272.55208164.1193335.890625.1575205.08854211.0095467.1679684-.0119331.23828125-.0644402.07031285-.0525071.11588531-.12172.13671875-.2076407.01562508-.0262535.01692715-.0548934.00390625-.0930803-.0130209-.038187-.01822918-.0620535-.015625-.0716003.00260418-.0095467-.00911445-.0322199-.03515625-.0680202l-.046875-.0644402c-.00520836-.0071601-.02343734-.0274466-.0546875-.0608602s-.05208328-.0548935-.0625-.0644402c-.03645852-.038187-.11718688-.1205265-.2421875-.2470209-.12500063-.1264944-.21484348-.2171871-.26953125-.2720809-.05468777-.0548938-.13541613-.1491665-.2421875-.2828209-.10677137-.1336545-.19140594-.2553737-.25390625-.3651613-.06250031-.1097875-.13281211-.2505999-.2109375-.4224414-.07812539-.1718414-.14583305-.3532269-.203125-.5441618.81771242-.4248302 1.46223723-.9498934 1.93359375-1.5752053C13.76432527 5.9690702 14 5.2984213 14 4.5824154z" fill="#000" fill-rule="evenodd"/></svg>