<svg xmlns="http://www.w3.org/2000/svg" xmlns:xlink="http://www.w3.org/1999/xlink" width="24" height="24" viewBox="0 0 24 24">
    <defs>
        <circle id="a" cx="12" cy="12" r="12"/>
    </defs>
    <g fill="none" fill-rule="evenodd">
        <g>
            <use fill="#FFF" fill-opacity="0" xlink:href="#a"/>
            <circle cx="12" cy="12" r="11.5" stroke="#555"/>
        </g>
        <path fill="#555" d="M11.139 14.947c.004-.72.065-1.22.181-1.497.117-.278.422-.646.917-1.103.48-.58.821-1.027 1.025-1.34.204-.313.305-.69.305-1.132 0-.527-.137-.931-.41-1.214-.274-.283-.666-.425-1.175-.425-.441 0-.817.123-1.127.369-.31.246-.465.607-.465 1.084H9.022l-.021-.045c-.015-.8.26-1.44.825-1.922C10.39 7.241 11.109 7 11.982 7c.955 0 1.697.25 2.225.748.529.5.793 1.196.793 2.09 0 .64-.17 1.226-.513 1.757-.341.531-.794 1.075-1.356 1.631-.262.268-.42.509-.476.723-.056.213-.084.546-.084.998H11.14zM12.622 18h-1.498v-1.55h1.498V18z"/>
    </g>
</svg>
