<svg xmlns="http://www.w3.org/2000/svg" viewBox="0 0 27.8 27.8"><g id="icons"><path d="M1,20.39V4.75A2.23,2.23,0,0,1,3.21,2.52h0A2.23,2.23,0,0,1,5.44,4.75V23.12A2.89,2.89,0,0,0,8.33,26h0a2.89,2.89,0,0,0,2.89-2.89v-.75H27A3.64,3.64,0,0,1,23.4,26H8.53" style="fill:none;stroke:#555;stroke-linecap:round;stroke-linejoin:round"/><path d="M3.34,2.52H20.72A2.29,2.29,0,0,1,23,4.81V22.12" style="fill:none;stroke:#555;stroke-linecap:round;stroke-linejoin:round"/><line x1="9.1" y1="8.08" x2="19.46" y2="8.08" style="fill:none;stroke:#555;stroke-linecap:round;stroke-linejoin:round"/><line x1="9.1" y1="12.54" x2="19.46" y2="12.54" style="fill:none;stroke:#555;stroke-linecap:round;stroke-linejoin:round"/><line x1="9.1" y1="16.99" x2="14.36" y2="16.99" style="fill:none;stroke:#555;stroke-linecap:round;stroke-linejoin:round"/></g></svg>