<svg id="icons" xmlns="http://www.w3.org/2000/svg" viewBox="0 0 25 25"><title>icon</title><g id="_56_icons" data-name="56_icons"><rect x="-2.78" y="10.68" width="17.45" height="8.96" transform="translate(21.11 9.22) rotate(90)" style="fill:none;stroke:#555;stroke-linecap:round;stroke-linejoin:round"/><circle cx="5.95" cy="11.21" r="2.71" style="fill:none;stroke:#555;stroke-linecap:round;stroke-linejoin:round"/><line x1="6.97" y1="11.21" x2="6.7" y2="11.21" style="fill:none;stroke:#555;stroke-linecap:round;stroke-linejoin:round;stroke-width:0.600000023841858px"/><line x1="5.17" y1="11.21" x2="4.9" y2="11.21" style="fill:none;stroke:#555;stroke-linecap:round;stroke-linejoin:round;stroke-width:0.600000023841858px"/><circle cx="5.95" cy="18.96" r="2.71" style="fill:none;stroke:#555;stroke-linecap:round;stroke-linejoin:round"/><line x1="6.97" y1="18.96" x2="6.7" y2="18.96" style="fill:none;stroke:#555;stroke-linecap:round;stroke-linejoin:round;stroke-width:0.600000023841858px"/><line x1="5.17" y1="18.96" x2="4.9" y2="18.96" style="fill:none;stroke:#555;stroke-linecap:round;stroke-linejoin:round;stroke-width:0.600000023841858px"/><rect x="4.82" y="4.34" width="2.26" height="2.09" style="fill:none;stroke:#555;stroke-linecap:round;stroke-linejoin:round;stroke-width:0.600000023841858px"/><path d="M5.95,4.13V2.95A2.3,2.3,0,0,1,8.25.65h3.07a2.3,2.3,0,0,1,2.3,2.3v16a2.18,2.18,0,0,0,2.18,2.18h.93" style="fill:none;stroke:#555;stroke-linecap:round;stroke-linejoin:round"/><rect x="15.69" y="20.17" width="3.95" height="1.88" transform="translate(-3.44 38.78) rotate(-90)" style="fill:none;stroke:#555;stroke-linecap:round;stroke-linejoin:round"/><polyline points="18.61 19.13 20.31 18.21 22.43 18.21 22.43 24.01 20.31 24.01 18.61 23.09" style="fill:none;stroke:#555;stroke-linecap:round;stroke-linejoin:round"/><line x1="22.58" y1="22.36" x2="24.42" y2="22.36" style="fill:none;stroke:#555;stroke-linecap:round;stroke-linejoin:round"/><line x1="22.58" y1="20.05" x2="24.42" y2="20.05" style="fill:none;stroke:#555;stroke-linecap:round;stroke-linejoin:round"/></g></svg>