<svg id="icons" xmlns="http://www.w3.org/2000/svg" viewBox="0 0 25 25"><title>icon</title><g id="_56_icons" data-name="56_icons"><path d="M13.45,23.8H5.17A1.47,1.47,0,0,1,3.7,22.33V19.17A1.47,1.47,0,0,1,5.17,17.7H12a2.93,2.93,0,0,1,2.93,2.93h0v1.69A1.47,1.47,0,0,1,13.45,23.8Z" style="fill:none;stroke:#555;stroke-linecap:round;stroke-linejoin:round"/><line x1="4.04" y1="20" x2="14.61" y2="20" style="fill:none;stroke:#555;stroke-linecap:round;stroke-linejoin:round;stroke-width:0.600000023841858px"/><path d="M6,17.7v-5L5.18,12l-.47.09A2.67,2.67,0,0,1,1.56,9.93L1,6.93A2.67,2.67,0,0,1,3.21,3.84l9.08-1.54h3.4l1.36,7.24-3.12,1a4.19,4.19,0,0,0-2.42,3.8v3.33" style="fill:none;stroke:#555;stroke-linecap:round;stroke-linejoin:round"/><line x1="5.55" y1="5.7" x2="4.62" y2="8.84" style="fill:none;stroke:#555;stroke-linecap:round;stroke-linejoin:round;stroke-width:0.600000023841858px"/><line x1="7.98" y1="5.43" x2="7.06" y2="8.57" style="fill:none;stroke:#555;stroke-linecap:round;stroke-linejoin:round;stroke-width:0.600000023841858px"/><path d="M11.86,14.68s2.52,1,2.43.11-.34-4,.31-4.51" style="fill:none;stroke:#555;stroke-linecap:round;stroke-linejoin:round;stroke-width:0.600000023841858px"/><path d="M16.13,3.18s3.08-.39,4.41.55c0,.14.41,2.36.41,2.36a9.57,9.57,0,0,1-3.85,2.29" style="fill:none;stroke:#555;stroke-linecap:round;stroke-linejoin:round"/><line x1="20.77" y1="4.78" x2="24.36" y2="4.05" style="fill:none;stroke:#555;stroke-linecap:round;stroke-linejoin:round"/></g></svg>