<svg id="icons" xmlns="http://www.w3.org/2000/svg" viewBox="0 0 25 25"><title>icon</title><g id="_56_icons" data-name="56_icons"><rect x="2.08" y="13.83" width="4" height="10.16" rx="2" ry="2" style="fill:none;stroke:#555;stroke-linecap:round;stroke-linejoin:round"/><rect x="19.24" y="13.83" width="4" height="10.16" rx="2" ry="2" style="fill:none;stroke:#555;stroke-linecap:round;stroke-linejoin:round"/><line x1="13.94" y1="17.65" x2="19.02" y2="17.65" style="fill:none;stroke:#555;stroke-linecap:round;stroke-linejoin:round"/><line x1="6.46" y1="17.65" x2="11.05" y2="17.65" style="fill:none;stroke:#555;stroke-linecap:round;stroke-linejoin:round"/><path d="M6.1,19.46A4.4,4.4,0,0,0,10,22.15h1.39v-4.5" style="fill:none;stroke:#555;stroke-linecap:round;stroke-linejoin:round"/><path d="M19.24,19.46a4.58,4.58,0,0,1-3.94,2.69H13.88l0-4.5" style="fill:none;stroke:#555;stroke-linecap:round;stroke-linejoin:round"/><path d="M11.35,22v.23a1.32,1.32,0,0,0,1.27,1.36h0a1.32,1.32,0,0,0,1.27-1.36V22" style="fill:none;stroke:#555;stroke-linecap:round;stroke-linejoin:round"/><polyline points="13.91 17.65 13.91 3.51 18.94 3.51 18.94 1.13 13.91 1.13 11.35 1.13 6.32 1.13 6.32 3.51 11.35 3.51 11.35 17.65" style="fill:none;stroke:#555;stroke-linecap:round;stroke-linejoin:round"/><path d="M2.41,18.68s1.38-1.5,3.46,0" style="fill:none;stroke:#555;stroke-linecap:round;stroke-linejoin:round;stroke-width:0.600000023841858px"/><path d="M19.51,18.68s1.38-1.5,3.46,0" style="fill:none;stroke:#555;stroke-linecap:round;stroke-linejoin:round;stroke-width:0.600000023841858px"/></g></svg>