<svg id="icons" xmlns="http://www.w3.org/2000/svg" viewBox="0 0 25 25"><title>icon</title><g id="_56_icons" data-name="56_icons"><path d="M15.11,23.41H3.18a1.82,1.82,0,0,1-1.82-1.82V3.45A1.82,1.82,0,0,1,3.18,1.63H17.33a1.82,1.82,0,0,1,1.82,1.82v4" style="fill:none;stroke:#555;stroke-linecap:round;stroke-linejoin:round"/><path d="M13,7.56H23.64a0,0,0,0,1,0,0V21.2a2.21,2.21,0,0,1-2.21,2.21H15.22A2.21,2.21,0,0,1,13,21.2V7.56A0,0,0,0,1,13,7.56Z" style="fill:none;stroke:#555;stroke-linecap:round;stroke-linejoin:round"/><line x1="12.98" y1="20.65" x2="1.36" y2="20.65" style="fill:none;stroke:#555;stroke-linecap:round;stroke-linejoin:round;stroke-width:0.600000023841858px"/><rect x="14.72" y="9.45" width="7.22" height="10.3" style="fill:none;stroke:#555;stroke-linecap:round;stroke-linejoin:round;stroke-width:0.600000023841858px"/><line x1="17.18" y1="21.49" x2="19.48" y2="21.49" style="fill:none;stroke:#555;stroke-linecap:round;stroke-linejoin:round;stroke-width:0.600000023841858px"/><line x1="8.91" y1="3.76" x2="11.32" y2="3.76" style="fill:none;stroke:#555;stroke-linecap:round;stroke-linejoin:round;stroke-width:0.600000023841858px"/></g></svg>