<svg id="icons" xmlns="http://www.w3.org/2000/svg" viewBox="0 0 25 25"><title>icon</title><g id="_56_icons" data-name="56_icons"><path d="M2.89,8.14H22.22a1.22,1.22,0,0,1,1.22,1.22V21.57a2.57,2.57,0,0,1-2.57,2.57H4.24a2.57,2.57,0,0,1-2.57-2.57V9.36A1.22,1.22,0,0,1,2.89,8.14Z" style="fill:none;stroke:#555;stroke-linecap:round;stroke-linejoin:round"/><path d="M6.73,18.06A5.11,5.11,0,0,1,1.67,12.7" style="fill:none;stroke:#555;stroke-linecap:round;stroke-linejoin:round"/><line x1="14.38" y1="18.06" x2="10.73" y2="18.06" style="fill:none;stroke:#555;stroke-linecap:round;stroke-linejoin:round"/><path d="M23.44,12.7a5.11,5.11,0,0,1-5.06,5.36" style="fill:none;stroke:#555;stroke-linecap:round;stroke-linejoin:round"/><line x1="4.55" y1="23.87" x2="4.55" y2="17.8" style="fill:none;stroke:#555;stroke-linecap:round;stroke-linejoin:round"/><line x1="20.75" y1="23.87" x2="20.75" y2="17.5" style="fill:none;stroke:#555;stroke-linecap:round;stroke-linejoin:round"/><path d="M10.27,20.32H7.06V16.85a1.16,1.16,0,0,1,1.16-1.16h.89a1.16,1.16,0,0,1,1.16,1.16Z" style="fill:none;stroke:#555;stroke-linecap:round;stroke-linejoin:round;stroke-width:0.600000023841858px"/><path d="M10.27,20.32v.78a1.17,1.17,0,0,1-1.16,1.18H8.22a1.17,1.17,0,0,1-1.16-1.18v-.78" style="fill:none;stroke:#555;stroke-linecap:round;stroke-linejoin:round;stroke-width:0.600000023841858px"/><path d="M16,15.69h.89A1.16,1.16,0,0,1,18,16.85v3.47a0,0,0,0,1,0,0H14.8a0,0,0,0,1,0,0V16.85A1.16,1.16,0,0,1,16,15.69Z" style="fill:none;stroke:#555;stroke-linecap:round;stroke-linejoin:round;stroke-width:0.600000023841858px"/><path d="M18,20.32v.78a1.17,1.17,0,0,1-1.16,1.18H16a1.17,1.17,0,0,1-1.16-1.18v-.78" style="fill:none;stroke:#555;stroke-linecap:round;stroke-linejoin:round;stroke-width:0.600000023841858px"/><path d="M4.74,7.74V4.46A3.48,3.48,0,0,1,8.22,1h9a3.48,3.48,0,0,1,3.48,3.48V8.14" style="fill:none;stroke:#555;stroke-linecap:round;stroke-linejoin:round"/><line x1="8.67" y1="17.35" x2="8.67" y2="18.97" style="fill:none;stroke:#555;stroke-linecap:round;stroke-linejoin:round;stroke-width:0.600000023841858px"/><line x1="16.41" y1="17.35" x2="16.41" y2="18.97" style="fill:none;stroke:#555;stroke-linecap:round;stroke-linejoin:round;stroke-width:0.600000023841858px"/><path d="M7.74,1.42h0A1.62,1.62,0,0,0,9.36,3h6.76a1.62,1.62,0,0,0,1.62-1.62h0" style="fill:none;stroke:#555;stroke-linecap:round;stroke-linejoin:round;stroke-width:0.600000023841858px"/></g></svg>