<svg id="icons" xmlns="http://www.w3.org/2000/svg" viewBox="0 0 25 25"><title>icon</title><g id="_56_icons" data-name="56_icons"><polyline points="0.53 3.75 2.9 3.75 2.9 20.92" style="fill:none;stroke:#555;stroke-linecap:round;stroke-linejoin:round"/><polyline points="3.24 17.86 5.4 17.86 5.4 19.11 7 19.11 7 17.86 8.49 17.86 8.49 19.79 16.21 19.79 16.21 17.86 17.59 17.86 17.59 19.11 19.18 19.11 19.18 17.86 24.42 17.86 24.42 6.63 3.24 6.63" style="fill:none;stroke:#555;stroke-linecap:round;stroke-linejoin:round"/><line x1="10.48" y1="19.51" x2="10.48" y2="18.12" style="fill:none;stroke:#555;stroke-linecap:round;stroke-linejoin:round;stroke-width:0.600000023841858px"/><line x1="12.29" y1="19.51" x2="12.29" y2="18.12" style="fill:none;stroke:#555;stroke-linecap:round;stroke-linejoin:round;stroke-width:0.600000023841858px"/><line x1="14.1" y1="19.51" x2="14.1" y2="18.12" style="fill:none;stroke:#555;stroke-linecap:round;stroke-linejoin:round;stroke-width:0.600000023841858px"/><polyline points="3 8.92 5.16 8.92 5.16 11.31 3 11.31" style="fill:none;stroke:#555;stroke-linecap:round;stroke-linejoin:round;stroke-width:0.600000023841858px"/><polyline points="3 13.09 5.16 13.09 5.16 15.48 3 15.48" style="fill:none;stroke:#555;stroke-linecap:round;stroke-linejoin:round;stroke-width:0.600000023841858px"/><rect x="10.15" y="10.6" width="2.61" height="2.61" style="fill:none;stroke:#555;stroke-linecap:round;stroke-linejoin:round;stroke-width:0.600000023841858px"/><rect x="16.02" y="10.6" width="2.61" height="2.61" style="fill:none;stroke:#555;stroke-linecap:round;stroke-linejoin:round;stroke-width:0.600000023841858px"/><line x1="13.08" y1="11.91" x2="15.88" y2="11.91" style="fill:none;stroke:#555;stroke-linecap:round;stroke-linejoin:round;stroke-width:0.600000023841858px"/></g></svg>