<svg id="icons" xmlns="http://www.w3.org/2000/svg" viewBox="0 0 25 25"><title>icon</title><g id="_56_icons" data-name="56_icons"><polygon points="19.31 1.85 6.22 1.85 6.22 10.35 8.73 10.35 8.73 11.66 10.76 11.66 10.76 12.97 14.77 12.97 14.77 11.66 16.8 11.66 16.8 10.35 19.31 10.35 19.31 1.85" style="fill:none;stroke:#555;stroke-linecap:round;stroke-linejoin:round"/><rect x="0.62" y="19.18" width="20.4" height="3.94" style="fill:none;stroke:#555;stroke-linecap:round;stroke-linejoin:round"/><line x1="3.86" y1="19.18" x2="3.86" y2="23.12" style="fill:none;stroke:#555;stroke-linecap:round;stroke-linejoin:round;stroke-width:0.600000023841858px"/><line x1="6.83" y1="19.18" x2="6.83" y2="23.12" style="fill:none;stroke:#555;stroke-linecap:round;stroke-linejoin:round;stroke-width:0.600000023841858px"/><line x1="9.8" y1="19.18" x2="9.8" y2="23.12" style="fill:none;stroke:#555;stroke-linecap:round;stroke-linejoin:round;stroke-width:0.600000023841858px"/><line x1="12.77" y1="19.18" x2="12.77" y2="23.12" style="fill:none;stroke:#555;stroke-linecap:round;stroke-linejoin:round;stroke-width:0.600000023841858px"/><line x1="15.73" y1="19.18" x2="15.73" y2="23.12" style="fill:none;stroke:#555;stroke-linecap:round;stroke-linejoin:round;stroke-width:0.600000023841858px"/><polyline points="0.61 19.18 5.83 15.77 24.39 15.77 21.02 19.18" style="fill:none;stroke:#555;stroke-linecap:round;stroke-linejoin:round"/><polyline points="21.02 23.12 24.39 19.95 24.39 15.77" style="fill:none;stroke:#555;stroke-linecap:round;stroke-linejoin:round"/><line x1="8.93" y1="2.26" x2="8.93" y2="4.67" style="fill:none;stroke:#555;stroke-linecap:round;stroke-linejoin:round"/><line x1="11.43" y1="2.26" x2="11.43" y2="4.67" style="fill:none;stroke:#555;stroke-linecap:round;stroke-linejoin:round"/><line x1="13.93" y1="2.26" x2="13.93" y2="4.67" style="fill:none;stroke:#555;stroke-linecap:round;stroke-linejoin:round"/><line x1="16.44" y1="2.26" x2="16.44" y2="4.67" style="fill:none;stroke:#555;stroke-linecap:round;stroke-linejoin:round"/></g></svg>