<svg id="icons" xmlns="http://www.w3.org/2000/svg" viewBox="0 0 25 25"><title>icon</title><g id="_56_icons" data-name="56_icons"><rect x="1.04" y="18.43" width="23.21" height="5.16" rx="0.81" ry="0.81" style="fill:none;stroke:#555;stroke-linecap:round;stroke-linejoin:round"/><path d="M7,18.43l-.88-10V2.21c0-.5-.11-.9-.61-.9h0c-.5,0-.61.4-.61.9V8.46L4,18.43" style="fill:none;stroke:#555;stroke-linecap:round;stroke-linejoin:round"/><path d="M13.14,12.51a3.17,3.17,0,0,1,5.23,0" style="fill:none;stroke:#555;stroke-linecap:round;stroke-linejoin:round;stroke-width:0.600000023841858px"/><path d="M11.14,10.74a5.59,5.59,0,0,1,9.22-.07" style="fill:none;stroke:#555;stroke-linecap:round;stroke-linejoin:round;stroke-width:0.600000023841858px"/><path d="M8.83,8.67a8.39,8.39,0,0,1,13.83-.1" style="fill:none;stroke:#555;stroke-linecap:round;stroke-linejoin:round;stroke-width:0.600000023841858px"/><circle cx="15.67" cy="14.89" r="0.66" style="fill:none;stroke:#555;stroke-linecap:round;stroke-linejoin:round;stroke-width:0.600000023841858px"/><line x1="3.68" y1="21" x2="5.49" y2="21" style="fill:none;stroke:#555;stroke-linecap:round;stroke-linejoin:round;stroke-width:0.600000023841858px"/><line x1="7.55" y1="21" x2="9.36" y2="21" style="fill:none;stroke:#555;stroke-linecap:round;stroke-linejoin:round;stroke-width:0.600000023841858px"/><line x1="11.42" y1="21" x2="13.23" y2="21" style="fill:none;stroke:#555;stroke-linecap:round;stroke-linejoin:round;stroke-width:0.600000023841858px"/><line x1="15.29" y1="21" x2="17.09" y2="21" style="fill:none;stroke:#555;stroke-linecap:round;stroke-linejoin:round;stroke-width:0.600000023841858px"/><line x1="19.16" y1="21" x2="20.96" y2="21" style="fill:none;stroke:#555;stroke-linecap:round;stroke-linejoin:round;stroke-width:0.600000023841858px"/></g></svg>