<svg id="icons" xmlns="http://www.w3.org/2000/svg" viewBox="0 0 25 25"><title>icon</title><g id="_56_icons" data-name="56_icons"><line x1="8.83" y1="7.09" x2="16.14" y2="7.09" style="fill:none;stroke:#555;stroke-linecap:round;stroke-linejoin:round"/><polyline points="5.79 17.78 0.67 17.78 0.67 7.09 5.8 7.09" style="fill:none;stroke:#555;stroke-linecap:round;stroke-linejoin:round"/><line x1="16.33" y1="17.78" x2="8.67" y2="17.78" style="fill:none;stroke:#555;stroke-linecap:round;stroke-linejoin:round"/><polyline points="19.28 7.09 24.32 7.09 24.32 17.78 19.36 17.78" style="fill:none;stroke:#555;stroke-linecap:round;stroke-linejoin:round"/><line x1="16.15" y1="16.14" x2="8.62" y2="16.14" style="fill:none;stroke:#555;stroke-linecap:round;stroke-linejoin:round;stroke-width:0.600000023841858px"/><path d="M19,8.73h2.11a1.46,1.46,0,0,1,1.46,1.46v4.49a1.46,1.46,0,0,1-1.46,1.46H18.92" style="fill:none;stroke:#555;stroke-linecap:round;stroke-linejoin:round;stroke-width:0.600000023841858px"/><line x1="8.5" y1="8.73" x2="16.22" y2="8.73" style="fill:none;stroke:#555;stroke-linecap:round;stroke-linejoin:round;stroke-width:0.600000023841858px"/><path d="M5.92,16.14H3.84a1.46,1.46,0,0,1-1.46-1.46V10.19A1.46,1.46,0,0,1,3.84,8.73h2" style="fill:none;stroke:#555;stroke-linecap:round;stroke-linejoin:round;stroke-width:0.600000023841858px"/><rect x="16.33" y="0.54" width="2.76" height="23.9" style="fill:none;stroke:#555;stroke-linecap:round;stroke-linejoin:round"/><line x1="17.71" y1="21.65" x2="17.71" y2="19.87" style="fill:none;stroke:#555;stroke-linecap:round;stroke-linejoin:round;stroke-width:0.600000023841858px"/><line x1="17.71" y1="13.87" x2="17.71" y2="12.09" style="fill:none;stroke:#555;stroke-linecap:round;stroke-linejoin:round;stroke-width:0.600000023841858px"/><rect x="5.92" y="0.54" width="2.76" height="23.9" style="fill:none;stroke:#555;stroke-linecap:round;stroke-linejoin:round"/><line x1="7.3" y1="21.65" x2="7.3" y2="19.87" style="fill:none;stroke:#555;stroke-linecap:round;stroke-linejoin:round;stroke-width:0.600000023841858px"/><line x1="7.3" y1="13.87" x2="7.3" y2="12.09" style="fill:none;stroke:#555;stroke-linecap:round;stroke-linejoin:round;stroke-width:0.600000023841858px"/><line x1="17.71" y1="5.89" x2="17.71" y2="4.11" style="fill:none;stroke:#555;stroke-linecap:round;stroke-linejoin:round;stroke-width:0.600000023841858px"/><line x1="7.3" y1="5.89" x2="7.3" y2="4.11" style="fill:none;stroke:#555;stroke-linecap:round;stroke-linejoin:round;stroke-width:0.600000023841858px"/></g></svg>