<svg id="icons" xmlns="http://www.w3.org/2000/svg" viewBox="0 0 25 25"><title>icon</title><g id="_56_icons" data-name="56_icons"><path d="M12.89,14l4.58,0a1.38,1.38,0,0,0,1.38-1.37l0-4.93" style="fill:none;stroke:#555;stroke-linecap:round;stroke-linejoin:round"/><path d="M2.86,10.71v1.85a1.38,1.38,0,0,0,1.37,1.38l5.37,0" style="fill:none;stroke:#555;stroke-linecap:round;stroke-linejoin:round"/><polyline points="18.94 11.68 21.33 11.67 21.37 7.44" style="fill:none;stroke:#555;stroke-linecap:round;stroke-linejoin:round;stroke-width:0.600000023841858px"/><path d="M14.35,10.61l-13,.15L1.32,5.68A2.22,2.22,0,0,1,3.51,3.44l20.58,0-1.84,4L17.9,7.5a3.45,3.45,0,0,0-3.13,2.21Z" style="fill:none;stroke:#555;stroke-linecap:round;stroke-linejoin:round"/><path d="M3.28,19.87H8.64a2.45,2.45,0,0,0,2.49-2.45V15.64" style="fill:none;stroke:#555;stroke-linecap:round;stroke-linejoin:round"/><line x1="3.28" y1="16.85" x2="3.28" y2="23.07" style="fill:none;stroke:#555;stroke-linecap:round;stroke-linejoin:round"/><circle cx="11.13" cy="14.04" r="1.52" style="fill:none;stroke:#555;stroke-linecap:round;stroke-linejoin:round"/></g></svg>