<svg id="icons" xmlns="http://www.w3.org/2000/svg" viewBox="0 0 25 25"><title>icon</title><g id="_56_icons" data-name="56_icons"><polyline points="14.78 18.07 0.98 18.07 0.98 1.7 23.94 1.7 23.94 18.07 17.86 18.07" style="fill:none;stroke:#555;stroke-linecap:round;stroke-linejoin:round"/><path d="M14.78,16.17h-7a.7.7,0,0,1-.7-.7V4.3a.7.7,0,0,1,.7-.7H21.14a.7.7,0,0,1,.7.7V15.47a.7.7,0,0,1-.7.7H18" style="fill:none;stroke:#555;stroke-linecap:round;stroke-linejoin:round;stroke-width:0.600000023841858px"/><circle cx="4.13" cy="9.92" r="1.4" style="fill:none;stroke:#555;stroke-linecap:round;stroke-linejoin:round"/><line x1="2.94" y1="14.43" x2="5.11" y2="14.43" style="fill:none;stroke:#555;stroke-linecap:round;stroke-linejoin:round"/><line x1="2.94" y1="5.71" x2="5.11" y2="5.71" style="fill:none;stroke:#555;stroke-linecap:round;stroke-linejoin:round"/><polygon points="17.88 12.36 16.33 10.94 14.78 12.36 15.35 23.42 17.32 23.42 17.88 12.36" style="fill:none;stroke:#555;stroke-linecap:round;stroke-linejoin:round"/><line x1="16.33" y1="8.53" x2="16.33" y2="10.94" style="fill:none;stroke:#555;stroke-linecap:round;stroke-linejoin:round"/></g></svg>