<svg id="icons" xmlns="http://www.w3.org/2000/svg" viewBox="0 0 25 25"><title>icon</title><g id="_56_icons" data-name="56_icons"><path d="M5.68,18.89h-4A.87.87,0,0,1,.81,18V9.62a.87.87,0,0,1,.87-.87h21.8a.87.87,0,0,1,.87.87V18a.87.87,0,0,1-.87.87h-4" style="fill:none;stroke:#555;stroke-linecap:round;stroke-linejoin:round"/><line x1="3.92" y1="15.99" x2="21.36" y2="15.99" style="fill:none;stroke:#555;stroke-linecap:round;stroke-linejoin:round"/><polyline points="19.19 15.9 19.19 22.36 5.96 22.36 5.96 15.9" style="fill:none;stroke:#555;stroke-linecap:round;stroke-linejoin:round;stroke-width:0.600000023841858px"/><polyline points="5.96 8.75 5.96 2.95 19.19 2.95 19.19 8.75" style="fill:none;stroke:#555;stroke-linecap:round;stroke-linejoin:round;stroke-width:0.600000023841858px"/><line x1="20.96" y1="8.55" x2="20.96" y2="6.18" style="fill:none;stroke:#555;stroke-linecap:round;stroke-linejoin:round"/><line x1="4.12" y1="8.55" x2="4.12" y2="6.18" style="fill:none;stroke:#555;stroke-linecap:round;stroke-linejoin:round"/><line x1="8.07" y1="20.41" x2="16.91" y2="20.41" style="fill:none;stroke:#555;stroke-linecap:round;stroke-linejoin:round;stroke-width:0.600000023841858px"/><line x1="8.07" y1="18.44" x2="16.91" y2="18.44" style="fill:none;stroke:#555;stroke-linecap:round;stroke-linejoin:round;stroke-width:0.600000023841858px"/><line x1="17.46" y1="10.98" x2="18.79" y2="10.98" style="fill:none;stroke:#555;stroke-linecap:round;stroke-linejoin:round;stroke-width:0.600000023841858px"/><line x1="20.51" y1="10.98" x2="21.85" y2="10.98" style="fill:none;stroke:#555;stroke-linecap:round;stroke-linejoin:round;stroke-width:0.600000023841858px"/></g></svg>