<svg id="icons" xmlns="http://www.w3.org/2000/svg" viewBox="0 0 25 25"><title>icon</title><g id="_56_icons" data-name="56_icons"><rect x="3.19" y="21.44" width="15.67" height="2.85" style="fill:none;stroke:#555;stroke-linecap:round;stroke-linejoin:round"/><path d="M18.86,21.36,17.57,4.14S15,.74,11.14.74,4.58,4,4.58,4" style="fill:none;stroke:#555;stroke-linecap:round;stroke-linejoin:round"/><polyline points="8.82 4.05 1.4 4.05 4.29 7.61 3.19 21.44" style="fill:none;stroke:#555;stroke-linecap:round;stroke-linejoin:round"/><rect x="9.13" y="8.07" width="3.93" height="10.05" rx="1.96" ry="1.96" style="fill:none;stroke:#555;stroke-linecap:round;stroke-linejoin:round;stroke-width:0.600000023841858px"/><line x1="9.36" y1="10.64" x2="10.86" y2="10.64" style="fill:none;stroke:#555;stroke-linecap:round;stroke-linejoin:round;stroke-width:0.600000023841858px"/><line x1="9.36" y1="13.1" x2="10.86" y2="13.1" style="fill:none;stroke:#555;stroke-linecap:round;stroke-linejoin:round;stroke-width:0.600000023841858px"/><line x1="9.36" y1="15.56" x2="10.86" y2="15.56" style="fill:none;stroke:#555;stroke-linecap:round;stroke-linejoin:round;stroke-width:0.600000023841858px"/><path d="M17.77,6.92a4.17,4.17,0,0,1,.62,8.15" style="fill:none;stroke:#555;stroke-linecap:round;stroke-linejoin:round;stroke-width:0.600000023841858px"/><path d="M17.57,4.14A7,7,0,0,1,24,10.9a7,7,0,0,1-5.31,6.66" style="fill:none;stroke:#555;stroke-linecap:round;stroke-linejoin:round"/></g></svg>