<svg id="icons" xmlns="http://www.w3.org/2000/svg" viewBox="0 0 25 25"><title>icon</title><g id="_56_icons" data-name="56_icons"><path d="M15.55,13.68a6.22,6.22,0,0,1,2.52-5V3.78H14.8a5.64,5.64,0,0,1-9.46,0H2.06V8.61a6.23,6.23,0,0,1,2.62,5.07,6.23,6.23,0,0,1-2.62,5.07v4.83H5.33a5.64,5.64,0,0,1,9.46,0h3.28V18.67A6.22,6.22,0,0,1,15.55,13.68Z" style="fill:none;stroke:#555;stroke-linecap:round;stroke-linejoin:round"/><rect x="8.14" y="9.98" width="4.06" height="7.41" rx="0.93" ry="0.93" style="fill:none;stroke:#555;stroke-linecap:round;stroke-linejoin:round;stroke-width:0.600000023841858px"/><path d="M7.72,5.68V1.48a1,1,0,0,1,1-1h2.57a1,1,0,0,1,1,1V5.66" style="fill:none;stroke:#555;stroke-linecap:round;stroke-linejoin:round;stroke-width:0.600000023841858px"/><polyline points="16.12 11.44 23.58 11.44 23.58 15.92 16.09 15.92" style="fill:none;stroke:#555;stroke-linecap:round;stroke-linejoin:round"/><line x1="23.58" y1="5.07" x2="23.58" y2="21.65" style="fill:none;stroke:#555;stroke-linecap:round;stroke-linejoin:round"/></g></svg>