<svg id="icons" xmlns="http://www.w3.org/2000/svg" viewBox="0 0 25 25"><title>icon</title><g id="_56_icons" data-name="56_icons"><path d="M12.46.58H9.75A2.09,2.09,0,0,0,7.69,2.31l-.08.44A2,2,0,0,1,6,4.42H6A1.68,1.68,0,0,0,4.27,6.11V13.8" style="fill:none;stroke:#555;stroke-linecap:round;stroke-linejoin:round"/><path d="M12.19.58H14.9A2.09,2.09,0,0,1,17,2.31l.08.44A2,2,0,0,0,18.7,4.42h0a1.68,1.68,0,0,1,1.68,1.68V13.8" style="fill:none;stroke:#555;stroke-linecap:round;stroke-linejoin:round"/><path d="M12.19,24.41H14.9A2.09,2.09,0,0,0,17,22.68l.08-.44a2,2,0,0,1,1.66-1.67h0a1.68,1.68,0,0,0,1.68-1.68V11.56" style="fill:none;stroke:#555;stroke-linecap:round;stroke-linejoin:round"/><path d="M12.46,24.41H9.75a2.09,2.09,0,0,1-2.06-1.73l-.08-.44A2,2,0,0,0,6,20.57H6a1.68,1.68,0,0,1-1.68-1.68V11.56" style="fill:none;stroke:#555;stroke-linecap:round;stroke-linejoin:round"/><rect x="6.45" y="6.23" width="11.8" height="12.76" rx="1.35" ry="1.35" style="fill:none;stroke:#555;stroke-linecap:round;stroke-linejoin:round"/><path d="M20.38,8.2h1.27a.91.91,0,0,1,.91.91v2.6a.91.91,0,0,1-.91.91H20.38a0,0,0,0,1,0,0V8.2A0,0,0,0,1,20.38,8.2Z" style="fill:none;stroke:#555;stroke-linecap:round;stroke-linejoin:round;stroke-width:0.600000023841858px"/><polyline points="12.62 8.56 8.76 8.56 8.76 10.56" style="fill:none;stroke:#555;stroke-linecap:round;stroke-linejoin:round;stroke-width:0.600000023841858px"/></g></svg>