<svg id="icons" xmlns="http://www.w3.org/2000/svg" viewBox="0 0 25 25"><title>icon</title><g id="_56_icons" data-name="56_icons"><rect x="7.34" y="0.65" width="11.07" height="3.06" style="fill:none;stroke:#555;stroke-linecap:round;stroke-linejoin:round;stroke-width:0.600000023841858px"/><rect x="6.35" y="12.27" width="13.06" height="3.16" style="fill:none;stroke:#555;stroke-linecap:round;stroke-linejoin:round;stroke-width:0.600000023841858px"/><polyline points="13.95 15.72 13.95 24.39 11.81 24.39 11.81 15.72" style="fill:none;stroke:#555;stroke-linecap:round;stroke-linejoin:round"/><line x1="11.81" y1="11.99" x2="11.81" y2="10.3" style="fill:none;stroke:#555;stroke-linecap:round;stroke-linejoin:round"/><line x1="13.95" y1="10.3" x2="13.95" y2="11.99" style="fill:none;stroke:#555;stroke-linecap:round;stroke-linejoin:round"/><path d="M11.66,16.67,4,23.74a1.07,1.07,0,0,1-1.52,0h0a1.07,1.07,0,0,1,0-1.52l7.06-6.54" style="fill:none;stroke:#555;stroke-linecap:round;stroke-linejoin:round"/><path d="M14.08,16.67l7.67,7.08a1.07,1.07,0,0,0,1.52,0h0a1.07,1.07,0,0,0,0-1.52l-7.05-6.59" style="fill:none;stroke:#555;stroke-linecap:round;stroke-linejoin:round"/><circle cx="12.93" cy="8.87" r="1.7" style="fill:none;stroke:#555;stroke-linecap:round;stroke-linejoin:round"/><circle cx="3.28" cy="2.18" r="1.39" style="fill:none;stroke:#555;stroke-linecap:round;stroke-linejoin:round"/><path d="M16.36,4.07a3.45,3.45,0,0,1-6.87,0" style="fill:none;stroke:#555;stroke-linecap:round;stroke-linejoin:round"/><line x1="7.14" y1="2.18" x2="5.03" y2="2.18" style="fill:none;stroke:#555;stroke-linecap:round;stroke-linejoin:round"/></g></svg>