<svg id="icons" xmlns="http://www.w3.org/2000/svg" viewBox="0 0 25 25"><title>icon</title><g id="_56_icons" data-name="56_icons"><path d="M17.36,14.08V11.26l3.23-4.75a1.33,1.33,0,0,0-1.93-1.78L15.29,7.46H10L6.59,4.74A1.33,1.33,0,0,0,4.66,6.51l2.7,4v4.36l-2.7,4a1.33,1.33,0,0,0,1.93,1.78l3.89-3.15h4.28l3.89,3.15a1.33,1.33,0,0,0,1.93-1.78Z" style="fill:none;stroke:#555;stroke-linecap:round;stroke-linejoin:round"/><path d="M16.12,6.29a3.79,3.79,0,1,1,2.67,2.86" style="fill:none;stroke:#555;stroke-linecap:round;stroke-linejoin:round"/><path d="M9.06,6.29A3.79,3.79,0,1,0,6.4,9.15" style="fill:none;stroke:#555;stroke-linecap:round;stroke-linejoin:round"/><path d="M16.12,19.12a3.79,3.79,0,1,0,2.67-2.86" style="fill:none;stroke:#555;stroke-linecap:round;stroke-linejoin:round"/><path d="M9.06,19.12A3.79,3.79,0,1,1,6.4,16.26" style="fill:none;stroke:#555;stroke-linecap:round;stroke-linejoin:round"/><line x1="6.94" y1="18.1" x2="7.71" y2="17.35" style="fill:none;stroke:#555;stroke-linecap:round;stroke-linejoin:round;stroke-width:0.600000023841858px"/><line x1="18.01" y1="18.1" x2="17.24" y2="17.35" style="fill:none;stroke:#555;stroke-linecap:round;stroke-linejoin:round;stroke-width:0.600000023841858px"/><line x1="7.01" y1="7.22" x2="7.78" y2="7.97" style="fill:none;stroke:#555;stroke-linecap:round;stroke-linejoin:round;stroke-width:0.600000023841858px"/><line x1="18.08" y1="7.22" x2="17.31" y2="7.97" style="fill:none;stroke:#555;stroke-linecap:round;stroke-linejoin:round;stroke-width:0.600000023841858px"/><rect x="11.08" y="11.13" width="3.08" height="3.08" style="fill:none;stroke:#555;stroke-linecap:round;stroke-linejoin:round;stroke-width:0.600000023841858px"/></g></svg>