<svg id="icons" xmlns="http://www.w3.org/2000/svg" viewBox="0 0 25 25"><title>icon</title><g id="_56_icons" data-name="56_icons"><path d="M6.38,5.67v-3A1.89,1.89,0,0,1,8.27.74h9.16a1.89,1.89,0,0,1,1.89,1.89V22.42a1.89,1.89,0,0,1-1.89,1.89H8.27a1.89,1.89,0,0,1-1.89-1.89V9.62" style="fill:none;stroke:#555;stroke-linecap:round;stroke-linejoin:round"/><line x1="11.38" y1="21.94" x2="14.31" y2="21.94" style="fill:none;stroke:#555;stroke-linecap:round;stroke-linejoin:round"/><line x1="18.97" y1="2.95" x2="6.85" y2="2.95" style="fill:none;stroke:#555;stroke-linecap:round;stroke-linejoin:round;stroke-width:0.600000023841858px"/><path d="M19.31,11.24s-.87-3.39-4.05-2.8-2.46,4.2-2.46,4.2l-10-5a1.24,1.24,0,0,1-.45-1.84h0a1.24,1.24,0,0,1,1.3-.48l12.28,3" style="fill:none;stroke:#555;stroke-linecap:round;stroke-linejoin:round;stroke-width:0.600000023841858px"/></g></svg>