<svg id="_8_icons" data-name="8_icons" xmlns="http://www.w3.org/2000/svg" viewBox="0 0 25 25"><title>icon_new</title><path d="M1.16,21.31,3.71,3.46A2.87,2.87,0,0,1,6.55,1H19a2.87,2.87,0,0,1,2.84,2.48l2.55,17.85" style="fill:none;stroke:#555;stroke-linecap:round;stroke-linejoin:round"/><rect x="1.16" y="18.63" width="23.22" height="5.38" rx="2.69" ry="2.69" style="fill:none;stroke:#555;stroke-linecap:round;stroke-linejoin:round"/><line x1="18.92" y1="21.31" x2="20.9" y2="21.31" style="fill:none;stroke:#555;stroke-linecap:round;stroke-linejoin:round"/><path d="M16.53,13.89a11.08,11.08,0,0,1-3.67.61c-4.4,0-8-2.42-8-5.41s3.57-5.41,8-5.41,8,2.42,8,5.41A4.81,4.81,0,0,1,18.33,13" style="fill:none;stroke:#555;stroke-linecap:round;stroke-linejoin:round;stroke-width:0.600000023841858px"/><ellipse cx="12.86" cy="9.09" rx="3.06" ry="2.07" style="fill:none;stroke:#555;stroke-linecap:round;stroke-linejoin:round;stroke-width:0.600000023841858px"/><path d="M15.4,11.86,17.95,16a1.67,1.67,0,0,0,2.42.4h0A1.48,1.48,0,0,0,20,13.8Z" style="fill:none;stroke:#555;stroke-linecap:round;stroke-linejoin:round"/></svg>