<svg id="icons" xmlns="http://www.w3.org/2000/svg" viewBox="0 0 25 25"><title>icon</title><g id="_56_icons" data-name="56_icons"><path d="M18.94,6.38h3A2.11,2.11,0,0,1,24,8.48V19.2a2.11,2.11,0,0,1-2.11,2.11H3.11A2.11,2.11,0,0,1,1,19.2V8.48A2.11,2.11,0,0,1,3.11,6.38H9.47" style="fill:none;stroke:#fff;stroke-linecap:round;stroke-linejoin:round"/><circle cx="14.11" cy="12.99" r="8" style="fill:none;stroke:#fff;stroke-linecap:round;stroke-linejoin:round"/><path d="M9,6.17l.61-2.8a1.15,1.15,0,0,1,1.11-.84h6.77a1.15,1.15,0,0,1,1.11.84l.64,2.91" style="fill:none;stroke:#fff;stroke-linecap:round;stroke-linejoin:round"/><path d="M3.19,6.38V4.94a.61.61,0,0,1,.61-.61H6.48a.61.61,0,0,1,.61.61V6.38" style="fill:none;stroke:#fff;stroke-linecap:round;stroke-linejoin:round;stroke-width:0.600000023841858px"/><line x1="3.68" y1="9.17" x2="4.44" y2="9.17" style="fill:none;stroke:#fff;stroke-linecap:round;stroke-linejoin:round"/><circle cx="14.11" cy="12.99" r="5.54" style="fill:none;stroke:#fff;stroke-linecap:round;stroke-linejoin:round;stroke-width:0.600000023841858px"/><path d="M15.15,9.51a2.38,2.38,0,0,1,2.38,2.38" style="fill:none;stroke:#fff;stroke-linecap:round;stroke-linejoin:round;stroke-width:0.600000023841858px"/></g></svg>