<svg id="_8_icons" data-name="8_icons" xmlns="http://www.w3.org/2000/svg" viewBox="0 0 25 25"><title>icon_new</title><path d="M15.78,3.27a6.38,6.38,0,0,1,3.73,2,6.25,6.25,0,0,1,1.94,3.92" style="fill:none;stroke:#555;stroke-linecap:round;stroke-linejoin:round;stroke-width:0.600000023841858px"/><path d="M15.24,5.67a4.61,4.61,0,0,1,2.7,1.43,4.52,4.52,0,0,1,1.4,2.83" style="fill:none;stroke:#555;stroke-linecap:round;stroke-linejoin:round;stroke-width:0.600000023841858px"/><path d="M5.55,23.31,2,19.76A2.79,2.79,0,0,1,1.77,16L9.24,7a2.76,2.76,0,0,1,4.08-.1l5.26,5.26a2.76,2.76,0,0,1-.13,4.11L9.26,23.56A2.79,2.79,0,0,1,5.55,23.31Z" style="fill:none;stroke:#555;stroke-linecap:round;stroke-linejoin:round"/><line x1="3.74" y1="17.72" x2="7.68" y2="21.66" style="fill:none;stroke:#555;stroke-linecap:round;stroke-linejoin:round"/><polygon points="9.55 19.95 5.45 15.85 7.59 12.94 12.45 17.8 9.55 19.95" style="fill:none;stroke:#555;stroke-linecap:round;stroke-linejoin:round"/><polygon points="13.78 16.1 9.3 11.62 11.44 8.71 16.68 13.95 13.78 16.1" style="fill:none;stroke:#555;stroke-linecap:round;stroke-linejoin:round"/><path d="M16.32.69a8.63,8.63,0,0,1,5,2.68A8.45,8.45,0,0,1,24,8.67" style="fill:none;stroke:#555;stroke-linecap:round;stroke-linejoin:round;stroke-width:0.600000023841858px"/></svg>