<svg id="icons" xmlns="http://www.w3.org/2000/svg" viewBox="0 0 25 25"><title>icon</title><g id="_56_icons" data-name="56_icons"><polyline points="11.27 16.7 11.27 3.45 13.96 3.45 13.96 16.14" style="fill:none;stroke:#555;stroke-linecap:round;stroke-linejoin:round"/><line x1="13.37" y1="16.7" x2="11.53" y2="16.7" style="fill:none;stroke:#555;stroke-linecap:round;stroke-linejoin:round"/><polyline points="19.82 22.85 23.12 22.85 23.12 19.26 23.12 16.7 19.99 16.7" style="fill:none;stroke:#555;stroke-linecap:round;stroke-linejoin:round"/><polyline points="12.05 16.7 2.17 16.7 2.17 19.26 2.17 22.85 13.26 22.85" style="fill:none;stroke:#555;stroke-linecap:round;stroke-linejoin:round"/><polyline points="11 4.9 4.52 4.9 6.08 1.17 18.99 1.17 20.24 4.9 14.41 4.9" style="fill:none;stroke:#555;stroke-linecap:round;stroke-linejoin:round"/><line x1="7.32" y1="2.69" x2="7.52" y2="2.69" style="fill:none;stroke:#555;stroke-linecap:round;stroke-linejoin:round;stroke-width:0.600000023841858px"/><line x1="17.68" y1="2.69" x2="17.88" y2="2.69" style="fill:none;stroke:#555;stroke-linecap:round;stroke-linejoin:round;stroke-width:0.600000023841858px"/><circle cx="16.61" cy="19.78" r="4.44" style="fill:none;stroke:#555;stroke-linecap:round;stroke-linejoin:round"/><line x1="5.06" y1="19.78" x2="6.54" y2="19.78" style="fill:none;stroke:#555;stroke-linecap:round;stroke-linejoin:round;stroke-width:0.600000023841858px"/><line x1="8.68" y1="19.78" x2="10.17" y2="19.78" style="fill:none;stroke:#555;stroke-linecap:round;stroke-linejoin:round;stroke-width:0.600000023841858px"/><line x1="14.1" y1="11.68" x2="15.96" y2="11.68" style="fill:none;stroke:#555;stroke-linecap:round;stroke-linejoin:round;stroke-width:0.600000023841858px"/><circle cx="17.04" cy="11.72" r="1.08" style="fill:none;stroke:#555;stroke-linecap:round;stroke-linejoin:round;stroke-width:0.600000023841858px"/><circle cx="16.61" cy="19.78" r="2.28" style="fill:none;stroke:#555;stroke-linecap:round;stroke-linejoin:round;stroke-width:0.600000023841858px"/></g></svg>