<svg id="icons" xmlns="http://www.w3.org/2000/svg" viewBox="0 0 25 25"><title>icon</title><g id="_56_icons" data-name="56_icons"><rect x="1.87" y="8.81" width="21.6" height="13.02" rx="1.39" ry="1.39" style="fill:none;stroke:#555;stroke-linecap:round;stroke-linejoin:round"/><polyline points="10.86 8.63 10.86 6.93 14.15 6.93 14.15 8.63" style="fill:none;stroke:#555;stroke-linecap:round;stroke-linejoin:round;stroke-width:0.600000023841858px"/><path d="M13.29,3.37H11.72A1.76,1.76,0,0,0,10,4.69l-.5,2.23h6L15,4.69A1.76,1.76,0,0,0,13.29,3.37Z" style="fill:none;stroke:#555;stroke-linecap:round;stroke-linejoin:round;stroke-width:0.600000023841858px"/><path d="M14.89,4.42a3.55,3.55,0,0,0,2.62-2.57l.4-1" style="fill:none;stroke:#555;stroke-linecap:round;stroke-linejoin:round;stroke-width:0.600000023841858px"/><path d="M7.11.84l.38,1a3.55,3.55,0,0,0,2.59,2.56" style="fill:none;stroke:#555;stroke-linecap:round;stroke-linejoin:round;stroke-width:0.600000023841858px"/><line x1="5.14" y1="0.81" x2="19.92" y2="0.81" style="fill:none;stroke:#555;stroke-linecap:round;stroke-linejoin:round;stroke-width:0.600000023841858px"/><circle cx="14.78" cy="15.32" r="4.86" style="fill:none;stroke:#555;stroke-linecap:round;stroke-linejoin:round"/><circle cx="14.78" cy="15.32" r="2.97" style="fill:none;stroke:#555;stroke-linecap:round;stroke-linejoin:round;stroke-width:0.600000023841858px"/><path d="M13.46,15.32A1.32,1.32,0,0,1,14.78,14" style="fill:none;stroke:#555;stroke-linecap:round;stroke-linejoin:round;stroke-width:0.600000023841858px"/><polyline points="15.48 21.83 15.48 24.01 9.57 24.01 9.57 21.83" style="fill:none;stroke:#555;stroke-linecap:round;stroke-linejoin:round;stroke-width:0.600000023841858px"/><line x1="4.62" y1="11.58" x2="6.69" y2="11.58" style="fill:none;stroke:#555;stroke-linecap:round;stroke-linejoin:round;stroke-width:0.600000023841858px"/><line x1="4.27" y1="21.67" x2="4.27" y2="19.5" style="fill:none;stroke:#555;stroke-linecap:round;stroke-linejoin:round;stroke-width:0.600000023841858px"/><line x1="6.58" y1="21.67" x2="6.58" y2="19.5" style="fill:none;stroke:#555;stroke-linecap:round;stroke-linejoin:round;stroke-width:0.600000023841858px"/></g></svg>