<svg id="icons" xmlns="http://www.w3.org/2000/svg" viewBox="0 0 25 25"><title>icon</title><g id="_56_icons" data-name="56_icons"><rect x="13.72" y="11.49" width="10.43" height="8.51" rx="0.96" ry="0.96" style="fill:none;stroke:#555;stroke-linecap:round;stroke-linejoin:round"/><path d="M1.76,10.49V20.6a.9.9,0,0,0,.9.9h7.66a.9.9,0,0,0,.9-.9V10.49" style="fill:none;stroke:#555;stroke-linecap:round;stroke-linejoin:round"/><circle cx="6.47" cy="7.44" r="5.49" style="fill:none;stroke:#555;stroke-linecap:round;stroke-linejoin:round"/><line x1="11.34" y1="12.83" x2="13.56" y2="12.83" style="fill:none;stroke:#555;stroke-linecap:round;stroke-linejoin:round"/><line x1="11.34" y1="18.45" x2="13.56" y2="18.45" style="fill:none;stroke:#555;stroke-linecap:round;stroke-linejoin:round"/><path d="M9,18.45v.69a.34.34,0,0,1-.34.34H4.43a.34.34,0,0,1-.34-.34v-.69" style="fill:none;stroke:#555;stroke-linecap:round;stroke-linejoin:round;stroke-width:0.600000023841858px"/><circle cx="6.47" cy="7.44" r="3.67" style="fill:none;stroke:#555;stroke-linecap:round;stroke-linejoin:round;stroke-width:0.600000023841858px"/><path d="M6.47,6A1.47,1.47,0,0,1,7.94,7.44" style="fill:none;stroke:#555;stroke-linecap:round;stroke-linejoin:round;stroke-width:0.600000023841858px"/><line x1="20.05" y1="13.61" x2="22.01" y2="13.61" style="fill:none;stroke:#555;stroke-linecap:round;stroke-linejoin:round;stroke-width:0.600000023841858px"/></g></svg>