<svg id="icons" xmlns="http://www.w3.org/2000/svg" viewBox="0 0 25 25"><title>icon</title><g id="_56_icons" data-name="56_icons"><ellipse cx="13.93" cy="12.57" rx="4" ry="10.16" style="fill:none;stroke:#555;stroke-linecap:round;stroke-linejoin:round"/><path d="M10.37,8.87c1.25,0,2.27,1.65,2.27,3.69s-1,3.69-2.27,3.69" style="fill:none;stroke:#555;stroke-linecap:round;stroke-linejoin:round"/><path d="M21.5,3.58a17.72,17.72,0,0,1,2.08,9c0,3.84-.89,7.23-2.25,9.23" style="fill:none;stroke:#555;stroke-linecap:round;stroke-linejoin:round;stroke-width:0.600000023841858px"/><path d="M19.39,6.1a12.8,12.8,0,0,1,1.5,6.47,12.44,12.44,0,0,1-1.63,6.67" style="fill:none;stroke:#555;stroke-linecap:round;stroke-linejoin:round;stroke-width:0.600000023841858px"/><path d="M3.24,16.65c-1,0-1.87-1.83-1.87-4.08s.84-4.08,1.87-4.08" style="fill:none;stroke:#555;stroke-linecap:round;stroke-linejoin:round"/><path d="M5,16.61a6.26,6.26,0,0,1-1.12-4A6.12,6.12,0,0,1,5,8.48" style="fill:none;stroke:#555;stroke-linecap:round;stroke-linejoin:round"/><polyline points="13.58 2.41 10.94 2.41 5.03 8.48 3.15 8.48" style="fill:none;stroke:#555;stroke-linecap:round;stroke-linejoin:round"/><polyline points="3.15 16.65 5.25 16.65 11.97 22.72 13.58 22.72" style="fill:none;stroke:#555;stroke-linecap:round;stroke-linejoin:round"/></g></svg>