<svg id="icons" xmlns="http://www.w3.org/2000/svg" viewBox="0 0 25 25"><title>icon</title><g id="_56_icons" data-name="56_icons"><path d="M9.27,22.66h-4a1.55,1.55,0,0,1-1.55-1.55V19.74" style="fill:none;stroke:#555;stroke-linecap:round;stroke-linejoin:round"/><path d="M13.31,2.26h6a1.55,1.55,0,0,1,1.55,1.55v17.3a1.55,1.55,0,0,1-1.55,1.55H13.46" style="fill:none;stroke:#555;stroke-linecap:round;stroke-linejoin:round"/><path d="M3.68,5.1V3.81A1.55,1.55,0,0,1,5.23,2.26H9.08" style="fill:none;stroke:#555;stroke-linecap:round;stroke-linejoin:round"/><line x1="13.24" y1="19.69" x2="20.82" y2="19.69" style="fill:none;stroke:#555;stroke-linecap:round;stroke-linejoin:round;stroke-width:0.600000023841858px"/><line x1="13.53" y1="4.5" x2="14.87" y2="4.5" style="fill:none;stroke:#555;stroke-linecap:round;stroke-linejoin:round"/><path d="M13.46,22.66,10.8,24.18a.86.86,0,0,1-1.45-.62V1.4A.86.86,0,0,1,10.8.79l2.51,1.47" style="fill:none;stroke:#555;stroke-linecap:round;stroke-linejoin:round"/><line x1="13.24" y1="2.54" x2="13.24" y2="22.66" style="fill:none;stroke:#555;stroke-linecap:round;stroke-linejoin:round;stroke-width:0.600000023841858px"/><line x1="3.68" y1="19.74" x2="3.68" y2="5.1" style="fill:none;stroke:#555;stroke-linecap:round;stroke-linejoin:round"/><line x1="6.52" y1="2.54" x2="6.52" y2="22.66" style="fill:none;stroke:#555;stroke-linecap:round;stroke-linejoin:round;stroke-width:0.600000023841858px"/></g></svg>