<svg id="icons" xmlns="http://www.w3.org/2000/svg" viewBox="0 0 25 25"><title>icon</title><g id="_56_icons" data-name="56_icons"><polyline points="17.06 8.24 15.97 7.16 13.77 7.96" style="fill:none;stroke:#555;stroke-linecap:round;stroke-linejoin:round"/><polyline points="19.51 12.41 20.69 9.1 21.97 7.81 23.8 3.12 21.97 1.29 17.27 3.11 15.99 4.4 12.71 5.56" style="fill:none;stroke:#555;stroke-linecap:round;stroke-linejoin:round"/><polyline points="16.84 8.03 17.93 9.12 17.09 11.22" style="fill:none;stroke:#555;stroke-linecap:round;stroke-linejoin:round"/><line x1="22.78" y1="2.3" x2="19.4" y2="5.69" style="fill:none;stroke:#555;stroke-linecap:round;stroke-linejoin:round"/><path d="M11.23,4.48s3.13,2,2.24,4.08a2.92,2.92,0,0,1-2,1.23c-.76,0-5.09,2.35-6.47,6.82,0,0-.58,2.1-2.1,1.71S1.1,16.48,1.55,15.09,4.83,8.21,10.41,6.3Z" style="fill:none;stroke:#555;stroke-linecap:round;stroke-linejoin:round"/><path d="M20.46,13.72s-2-3.13-4.08-2.24a2.92,2.92,0,0,0-1.23,2c0,.76-2.35,5.09-6.82,6.47,0,0-2.1.58-1.71,2.1s1.84,1.77,3.22,1.32,6.88-3.27,8.79-8.86Z" style="fill:none;stroke:#555;stroke-linecap:round;stroke-linejoin:round"/><circle cx="19.03" cy="6.07" r="0.53" transform="translate(1.28 15.23) rotate(-45)" style="fill:none;stroke:#555;stroke-linecap:round;stroke-linejoin:round"/></g></svg>