<svg id="_8_icons" data-name="8_icons" xmlns="http://www.w3.org/2000/svg" viewBox="0 0 25 25"><title>icon_new</title><rect x="1.76" y="18" width="21.58" height="5.5" style="fill:none;stroke:#fff;stroke-linecap:round;stroke-linejoin:round"/><line x1="20.68" y1="20.75" x2="16.58" y2="20.75" style="fill:none;stroke:#fff;stroke-linecap:round;stroke-linejoin:round"/><line x1="13.04" y1="20.75" x2="11.52" y2="20.75" style="fill:none;stroke:#fff;stroke-linecap:round;stroke-linejoin:round;stroke-width:0.600000023841858px"/><line x1="9.45" y1="20.75" x2="7.92" y2="20.75" style="fill:none;stroke:#fff;stroke-linecap:round;stroke-linejoin:round;stroke-width:0.600000023841858px"/><line x1="5.85" y1="20.75" x2="4.33" y2="20.75" style="fill:none;stroke:#fff;stroke-linecap:round;stroke-linejoin:round;stroke-width:0.600000023841858px"/><rect x="1.76" y="12.5" width="21.58" height="5.5" style="fill:none;stroke:#fff;stroke-linecap:round;stroke-linejoin:round"/><line x1="20.68" y1="15.25" x2="16.58" y2="15.25" style="fill:none;stroke:#fff;stroke-linecap:round;stroke-linejoin:round"/><line x1="13.04" y1="15.25" x2="11.52" y2="15.25" style="fill:none;stroke:#fff;stroke-linecap:round;stroke-linejoin:round;stroke-width:0.600000023841858px"/><line x1="9.45" y1="15.25" x2="7.92" y2="15.25" style="fill:none;stroke:#fff;stroke-linecap:round;stroke-linejoin:round;stroke-width:0.600000023841858px"/><line x1="5.85" y1="15.25" x2="4.33" y2="15.25" style="fill:none;stroke:#fff;stroke-linecap:round;stroke-linejoin:round;stroke-width:0.600000023841858px"/><rect x="1.76" y="7" width="21.58" height="5.5" style="fill:none;stroke:#fff;stroke-linecap:round;stroke-linejoin:round"/><line x1="20.68" y1="9.75" x2="16.58" y2="9.75" style="fill:none;stroke:#fff;stroke-linecap:round;stroke-linejoin:round"/><line x1="13.04" y1="9.75" x2="11.52" y2="9.75" style="fill:none;stroke:#fff;stroke-linecap:round;stroke-linejoin:round;stroke-width:0.600000023841858px"/><line x1="9.45" y1="9.75" x2="7.92" y2="9.75" style="fill:none;stroke:#fff;stroke-linecap:round;stroke-linejoin:round;stroke-width:0.600000023841858px"/><line x1="5.85" y1="9.75" x2="4.33" y2="9.75" style="fill:none;stroke:#fff;stroke-linecap:round;stroke-linejoin:round;stroke-width:0.600000023841858px"/><rect x="1.76" y="1.5" width="21.58" height="5.5" style="fill:none;stroke:#fff;stroke-linecap:round;stroke-linejoin:round"/><line x1="20.68" y1="4.25" x2="16.58" y2="4.25" style="fill:none;stroke:#fff;stroke-linecap:round;stroke-linejoin:round"/><line x1="13.04" y1="4.25" x2="11.52" y2="4.25" style="fill:none;stroke:#fff;stroke-linecap:round;stroke-linejoin:round;stroke-width:0.600000023841858px"/><line x1="9.45" y1="4.25" x2="7.92" y2="4.25" style="fill:none;stroke:#fff;stroke-linecap:round;stroke-linejoin:round;stroke-width:0.600000023841858px"/><line x1="5.85" y1="4.25" x2="4.33" y2="4.25" style="fill:none;stroke:#fff;stroke-linecap:round;stroke-linejoin:round;stroke-width:0.600000023841858px"/></svg>