<svg id="icons" xmlns="http://www.w3.org/2000/svg" viewBox="0 0 25 25"><title>icon</title><g id="_56_icons" data-name="56_icons"><path d="M15.36,4.39V3a1.93,1.93,0,0,0-1.93-1.93H4.36A1.93,1.93,0,0,0,2.43,3V21.57A1.93,1.93,0,0,0,4.36,23.5h9.07" style="fill:none;stroke:#555;stroke-linecap:round;stroke-linejoin:round"/><rect x="11.42" y="4.55" width="11.07" height="18.94" rx="1.27" ry="1.27" style="fill:none;stroke:#555;stroke-linecap:round;stroke-linejoin:round"/><line x1="11.88" y1="19.53" x2="22.49" y2="19.53" style="fill:none;stroke:#555;stroke-linecap:round;stroke-linejoin:round;stroke-width:0.600000023841858px"/><circle cx="8.89" cy="20.76" r="1.11" style="fill:none;stroke:#555;stroke-linecap:round;stroke-linejoin:round;stroke-width:0.600000023841858px"/><line x1="7.68" y1="3.07" x2="10.21" y2="3.07" style="fill:none;stroke:#555;stroke-linecap:round;stroke-linejoin:round;stroke-width:0.600000023841858px"/><path d="M19,21v.13a.71.71,0,0,1-.71.71H15.74a.71.71,0,0,1-.71-.71V21" style="fill:none;stroke:#555;stroke-linecap:round;stroke-linejoin:round;stroke-width:0.600000023841858px"/><line x1="11.88" y1="6.77" x2="22.49" y2="6.77" style="fill:none;stroke:#555;stroke-linecap:round;stroke-linejoin:round;stroke-width:0.600000023841858px"/></g></svg>