<svg id="_8_icons" data-name="8_icons" xmlns="http://www.w3.org/2000/svg" viewBox="0 0 25 25"><title>icon_new</title><rect x="-0.8" y="8.92" width="26.63" height="7.19" transform="translate(30.22 12.52) rotate(135)" style="fill:none;stroke:#555;stroke-linecap:round;stroke-linejoin:round"/><circle cx="14.75" cy="10.28" r="2.1" style="fill:none;stroke:#555;stroke-linecap:round;stroke-linejoin:round;stroke-width:0.600000023841858px"/><circle cx="10.55" cy="14.49" r="2.1" style="fill:none;stroke:#555;stroke-linecap:round;stroke-linejoin:round;stroke-width:0.600000023841858px"/><circle cx="6.35" cy="18.69" r="2.1" style="fill:none;stroke:#555;stroke-linecap:round;stroke-linejoin:round;stroke-width:0.600000023841858px"/><path d="M2.37,2.23H4.5A1.34,1.34,0,0,1,5.84,3.57V4.78A1.34,1.34,0,0,1,4.5,6.12H2.37a0,0,0,0,1,0,0V2.23a0,0,0,0,1,0,0Z" transform="translate(4.17 -1.68) rotate(45.13)" style="fill:none;stroke:#555;stroke-linecap:round;stroke-linejoin:round;stroke-width:0.600000023841858px"/><line x1="3.56" y1="1.82" x2="2.31" y2="0.57" style="fill:none;stroke:#555;stroke-linecap:round;stroke-linejoin:round;stroke-width:0.600000023841858px"/><line x1="1.89" y1="3.49" x2="0.64" y2="2.24" style="fill:none;stroke:#555;stroke-linecap:round;stroke-linejoin:round;stroke-width:0.600000023841858px"/><rect x="17.81" y="4.35" width="2.75" height="3.01" transform="translate(36.88 -3.57) rotate(135)" style="fill:none;stroke:#555;stroke-linecap:round;stroke-linejoin:round"/><path d="M16.85,2.84,15.48,1.6a1.46,1.46,0,0,0-2,0l-5,4.75a1.46,1.46,0,0,1-2,0l-.89-.88" style="fill:none;stroke:#555;stroke-linecap:round;stroke-linejoin:round"/></svg>