<svg id="icons" xmlns="http://www.w3.org/2000/svg" viewBox="0 0 25 25"><title>icon</title><g id="_56_icons" data-name="56_icons"><path d="M5.64,14.14a8.33,8.33,0,1,1,14.58-1.33" style="fill:none;stroke:#555;stroke-linecap:round;stroke-linejoin:round"/><path d="M23.44,12.92H6.82a1,1,0,0,0-.9.58L1.32,23.8H20.1l4.24-9.5A1,1,0,0,0,23.44,12.92Z" style="fill:none;stroke:#555;stroke-linecap:round;stroke-linejoin:round"/><path d="M1.32,23.69V10.78a1.2,1.2,0,0,1,1.2-1.2H3.94" style="fill:none;stroke:#555;stroke-linecap:round;stroke-linejoin:round"/><circle cx="12.56" cy="9.51" r="2" style="fill:none;stroke:#555;stroke-linecap:round;stroke-linejoin:round;stroke-width:0.600000023841858px"/><path d="M13.08,4.05A4.94,4.94,0,0,1,18,9" style="fill:none;stroke:#555;stroke-linecap:round;stroke-linejoin:round;stroke-width:0.600000023841858px"/><polyline points="6.19 19.3 5.15 21.63 9.77 21.63" style="fill:none;stroke:#555;stroke-linecap:round;stroke-linejoin:round;stroke-width:0.600000023841858px"/></g></svg>