<svg id="icons" xmlns="http://www.w3.org/2000/svg" viewBox="0 0 25 25"><title>icon</title><g id="_56_icons" data-name="56_icons"><circle cx="6.73" cy="20.09" r="3.39" style="fill:none;stroke:#555;stroke-linecap:round;stroke-linejoin:round"/><path d="M4.81,17.1V4.31a1,1,0,0,0-.47-.82l-3.4-2V4.42L4.63,6.73" style="fill:none;stroke:#555;stroke-linecap:round;stroke-linejoin:round"/><path d="M7.11,16.49V4.22H9.35l1.19,2.7H12s4.35,1.81,4.35,8v8.58H14.86l-1.12-1.91H9.94" style="fill:none;stroke:#555;stroke-linecap:round;stroke-linejoin:round"/><line x1="10.83" y1="10.19" x2="12.94" y2="11.47" style="fill:none;stroke:#555;stroke-linecap:round;stroke-linejoin:round;stroke-width:0.600000023841858px"/><line x1="10.83" y1="12.93" x2="12.94" y2="14.21" style="fill:none;stroke:#555;stroke-linecap:round;stroke-linejoin:round;stroke-width:0.600000023841858px"/><line x1="10.83" y1="15.68" x2="12.94" y2="16.96" style="fill:none;stroke:#555;stroke-linecap:round;stroke-linejoin:round;stroke-width:0.600000023841858px"/><rect x="20.13" y="8.75" width="2.3" height="12.89" style="fill:none;stroke:#555;stroke-linecap:round;stroke-linejoin:round"/><line x1="21.28" y1="21.86" x2="21.28" y2="23.63" style="fill:none;stroke:#555;stroke-linecap:round;stroke-linejoin:round"/><path d="M21.19,8.79V6.19a1.85,1.85,0,0,0-1.85-1.85H17.06a1.85,1.85,0,0,0-1.85,1.85v3.7" style="fill:none;stroke:#555;stroke-linecap:round;stroke-linejoin:round"/><path d="M22.58,11.13H23.7a.74.74,0,0,1,.74.74V13.7a.74.74,0,0,1-.74.74H22.58" style="fill:none;stroke:#555;stroke-linecap:round;stroke-linejoin:round;stroke-width:0.600000023841858px"/></g></svg>