<svg id="_8_icons" data-name="8_icons" xmlns="http://www.w3.org/2000/svg" viewBox="0 0 25 25"><title>icon_new</title><rect x="0.64" y="4.74" width="23.81" height="17.34" rx="1.2" ry="1.2" style="fill:none;stroke:#555;stroke-linecap:round;stroke-linejoin:round"/><polyline points="0.87 5.23 2.89 1.61 14.55 1.61" style="fill:none;stroke:#555;stroke-linecap:round;stroke-linejoin:round"/><polyline points="24.21 5.23 22.48 1.61 10.54 1.61" style="fill:none;stroke:#555;stroke-linecap:round;stroke-linejoin:round"/><line x1="3.03" y1="23.66" x2="5.95" y2="23.66" style="fill:none;stroke:#555;stroke-linecap:round;stroke-linejoin:round"/><line x1="19.63" y1="23.66" x2="22.54" y2="23.66" style="fill:none;stroke:#555;stroke-linecap:round;stroke-linejoin:round"/><rect x="3.16" y="7.39" width="3.77" height="12.5" rx="0.63" ry="0.63" style="fill:none;stroke:#555;stroke-linecap:round;stroke-linejoin:round;stroke-width:0.600000023841858px"/><rect x="6.93" y="7.39" width="3.77" height="12.5" rx="0.63" ry="0.63" style="fill:none;stroke:#555;stroke-linecap:round;stroke-linejoin:round;stroke-width:0.600000023841858px"/><rect x="10.7" y="7.39" width="3.77" height="12.5" rx="0.63" ry="0.63" style="fill:none;stroke:#555;stroke-linecap:round;stroke-linejoin:round;stroke-width:0.600000023841858px"/><rect x="14.46" y="7.39" width="3.77" height="12.5" rx="0.63" ry="0.63" style="fill:none;stroke:#555;stroke-linecap:round;stroke-linejoin:round;stroke-width:0.600000023841858px"/><rect x="18.23" y="7.39" width="3.77" height="12.5" rx="0.63" ry="0.63" style="fill:none;stroke:#555;stroke-linecap:round;stroke-linejoin:round;stroke-width:0.600000023841858px"/><line x1="5.04" y1="18.14" x2="5.04" y2="17.36" style="fill:none;stroke:#555;stroke-linecap:round;stroke-linejoin:round"/><line x1="8.81" y1="18.14" x2="8.81" y2="17.36" style="fill:none;stroke:#555;stroke-linecap:round;stroke-linejoin:round"/><line x1="12.58" y1="18.14" x2="12.58" y2="17.36" style="fill:none;stroke:#555;stroke-linecap:round;stroke-linejoin:round"/><line x1="16.35" y1="18.14" x2="16.35" y2="17.36" style="fill:none;stroke:#555;stroke-linecap:round;stroke-linejoin:round"/><line x1="20.12" y1="18.14" x2="20.12" y2="17.36" style="fill:none;stroke:#555;stroke-linecap:round;stroke-linejoin:round"/></svg>