<svg id="icons" xmlns="http://www.w3.org/2000/svg" viewBox="0 0 25 25"><title>icon</title><g id="_56_icons" data-name="56_icons"><path d="M4.69,11.64,1.92,14.74a2.9,2.9,0,0,0,.23,4.1l4.59,4.1L15,13.67l-4.59-4.1a2.9,2.9,0,0,0-4,.1" style="fill:none;stroke:#555;stroke-linecap:round;stroke-linejoin:round"/><path d="M2,7.45H2a1.25,1.25,0,0,0,.1,1.76L6.35,13,8,11.14,3.8,7.35A1.25,1.25,0,0,0,2,7.45Z" style="fill:none;stroke:#555;stroke-linecap:round;stroke-linejoin:round"/><polygon points="11.57 14.79 8.89 17.66 6.52 15.54 9.19 12.67 11.57 14.79" style="fill:none;stroke:#555;stroke-linecap:round;stroke-linejoin:round;stroke-width:0.600000023841858px"/><path d="M15,13.65l7.1-8a2.25,2.25,0,0,0-.18-3.18h0a2.25,2.25,0,0,0-3.18.18l-7.1,8" style="fill:none;stroke:#555;stroke-linecap:round;stroke-linejoin:round"/><line x1="13.44" y1="8.3" x2="12.33" y2="7.32" style="fill:none;stroke:#555;stroke-linecap:round;stroke-linejoin:round"/><line x1="16.09" y1="5.33" x2="14.99" y2="4.34" style="fill:none;stroke:#555;stroke-linecap:round;stroke-linejoin:round"/><line x1="18.6" y1="2.33" x2="17.49" y2="1.35" style="fill:none;stroke:#555;stroke-linecap:round;stroke-linejoin:round"/><line x1="18.99" y1="11.74" x2="17.88" y2="10.75" style="fill:none;stroke:#555;stroke-linecap:round;stroke-linejoin:round"/><line x1="21.65" y1="8.59" x2="20.54" y2="7.6" style="fill:none;stroke:#555;stroke-linecap:round;stroke-linejoin:round"/><line x1="24.22" y1="5.06" x2="22.76" y2="4.79" style="fill:none;stroke:#555;stroke-linecap:round;stroke-linejoin:round"/><line x1="22.62" y1="0.68" x2="21.87" y2="1.96" style="fill:none;stroke:#555;stroke-linecap:round;stroke-linejoin:round"/><line x1="3.95" y1="16.87" x2="7.09" y2="19.67" style="fill:none;stroke:#555;stroke-linecap:round;stroke-linejoin:round;stroke-width:0.600000023841858px"/><line x1="6.75" y1="22.94" x2="5.52" y2="24.32" style="fill:none;stroke:#555;stroke-linecap:round;stroke-linejoin:round"/></g></svg>