<svg id="icons" xmlns="http://www.w3.org/2000/svg" viewBox="0 0 25 25"><title>icon</title><g id="_56_icons" data-name="56_icons"><path d="M23.33,16.27A5.5,5.5,0,0,1,18,20.51H10.59" style="fill:none;stroke:#555;stroke-linecap:round;stroke-linejoin:round"/><path d="M3.35,19.41A5.49,5.49,0,0,1,1.14,15h0a5.5,5.5,0,0,1,5.5-5.5H18a5.5,5.5,0,0,1,5.4,4.43" style="fill:none;stroke:#555;stroke-linecap:round;stroke-linejoin:round"/><circle cx="6.87" cy="20.51" r="3.64" style="fill:none;stroke:#555;stroke-linecap:round;stroke-linejoin:round"/><path d="M20.74,4.11a3.29,3.29,0,1,0-4.18,3.15v2h1.78v-2A3.28,3.28,0,0,0,20.74,4.11Z" style="fill:none;stroke:#555;stroke-linecap:round;stroke-linejoin:round"/><polyline points="18.32 20.51 18.32 23.77 16.25 23.77 16.25 20.64" style="fill:none;stroke:#555;stroke-linecap:round;stroke-linejoin:round"/><path d="M18.89,16.22h4.77c.42,0,.34-2.25-.08-2.25H18.89Z" style="fill:none;stroke:#555;stroke-linecap:round;stroke-linejoin:round"/><path d="M3.49,4H8.43a0,0,0,0,1,0,0V7.06a0,0,0,0,1,0,0h-7a0,0,0,0,1,0,0V6A2,2,0,0,1,3.49,4Z" style="fill:none;stroke:#555;stroke-linecap:round;stroke-linejoin:round"/><line x1="3.79" y1="7.38" x2="3.79" y2="9.99" style="fill:none;stroke:#555;stroke-linecap:round;stroke-linejoin:round"/><line x1="6.95" y1="7.38" x2="6.95" y2="9.32" style="fill:none;stroke:#555;stroke-linecap:round;stroke-linejoin:round"/><circle cx="6.87" cy="20.51" r="1.6" style="fill:none;stroke:#555;stroke-linecap:round;stroke-linejoin:round;stroke-width:0.600000023841858px"/><path d="M16.33,3A1.52,1.52,0,1,1,18.25,5.4" style="fill:none;stroke:#555;stroke-linecap:round;stroke-linejoin:round;stroke-width:0.600000023841858px"/></g></svg>