<svg id="_8_icons" data-name="8_icons" xmlns="http://www.w3.org/2000/svg" viewBox="0 0 25 25"><title>icon_new</title><rect x="7.42" y="0.8" width="9.39" height="19.94" rx="1.15" ry="1.15" style="fill:none;stroke:#555;stroke-linecap:round;stroke-linejoin:round"/><rect x="9.12" y="4.98" width="5.98" height="5.14" style="fill:none;stroke:#555;stroke-linecap:round;stroke-linejoin:round;stroke-width:0.600000023841858px"/><path d="M17.09,10.91h3.56a1.66,1.66,0,0,1,1.65,1.51l1,10.5a.93.93,0,0,1-.93.93H3.26a.93.93,0,0,1-.93-.93L3.57,12.38a1.66,1.66,0,0,1,1.65-1.47H7.42" style="fill:none;stroke:#555;stroke-linecap:round;stroke-linejoin:round"/><line x1="10.57" y1="2.79" x2="13.65" y2="2.79" style="fill:none;stroke:#555;stroke-linecap:round;stroke-linejoin:round"/><line x1="9.52" y1="13.73" x2="14.71" y2="13.73" style="fill:none;stroke:#555;stroke-linecap:round;stroke-linejoin:round;stroke-width:0.600000023841858px"/><line x1="9.52" y1="15.76" x2="14.71" y2="15.76" style="fill:none;stroke:#555;stroke-linecap:round;stroke-linejoin:round;stroke-width:0.600000023841858px"/><line x1="9.52" y1="17.79" x2="14.71" y2="17.79" style="fill:none;stroke:#555;stroke-linecap:round;stroke-linejoin:round;stroke-width:0.600000023841858px"/><circle cx="20.02" cy="20.74" r="1.19" style="fill:none;stroke:#555;stroke-linecap:round;stroke-linejoin:round;stroke-width:0.600000023841858px"/><line x1="20.02" y1="17.52" x2="20.02" y2="15.77" style="fill:none;stroke:#555;stroke-linecap:round;stroke-linejoin:round;stroke-width:0.600000023841858px"/></svg>