<svg xmlns="http://www.w3.org/2000/svg" xmlns:xlink="http://www.w3.org/1999/xlink" width="24" height="24" viewBox="0 0 24 24">
    <defs>
        <path id="a" d="M0 23.337h23.576V0H0z"/>
    </defs>
    <g fill="none" fill-rule="evenodd" transform="matrix(1 0 0 -1 0 23.822)">
        <mask id="b" fill="#fff">
            <use xlink:href="#a"/>
        </mask>
        <g mask="url(#b)">
            <path fill="#FF5859" fill-rule="nonzero" d="M11.788 21.721c5.583 0 10.155-4.493 10.155-10.052 0-5.56-4.572-10.053-10.155-10.053-5.584 0-10.155 4.525-10.155 10.053 0 5.527 4.571 10.052 10.155 10.052m0-21.72c6.498 0 11.788 5.235 11.788 11.668 0 6.432-5.29 11.668-11.788 11.668S0 18.101 0 11.67C0 5.236 5.29 0 11.788 0"/>
            <path fill="#FF5859" fill-rule="nonzero" d="M10.808 13.931h1.633V6.497h-1.633zM10.808 17.164h1.633v-1.617h-1.633z"/>
        </g>
    </g>
</svg>
