<svg xmlns="http://www.w3.org/2000/svg" width="21" height="26" viewBox="0 0 21 26">
    <g fill="#555" fill-rule="nonzero">
        <path d="M3.5 7.5C5.433 7.5 7 5.927 7 4.003A3.509 3.509 0 0 0 3.5.5 3.503 3.503 0 0 0 0 3.997 3.513 3.513 0 0 0 3.5 7.5zm0-5.374c1.036 0 1.873.842 1.873 1.87A1.878 1.878 0 0 1 3.5 5.869a1.878 1.878 0 0 1-1.873-1.871c0-1.029.844-1.871 1.873-1.871zM3.5 16.5C5.433 16.5 7 14.926 7 13S5.433 9.5 3.5 9.5a3.5 3.5 0 0 0 0 7zm0-5.373c1.036 0 1.873.844 1.873 1.873A1.88 1.88 0 0 1 3.5 14.873 1.875 1.875 0 0 1 1.627 13c0-1.036.844-1.873 1.873-1.873zM3.5 25.5C5.433 25.5 7 23.926 7 22c0-1.933-1.574-3.5-3.5-3.5A3.509 3.509 0 0 0 0 22c0 1.926 1.574 3.5 3.5 3.5zm0-5.38c1.036 0 1.873.844 1.873 1.873A1.875 1.875 0 0 1 3.5 23.866a1.88 1.88 0 0 1-1.873-1.873A1.88 1.88 0 0 1 3.5 20.12zM9.453 5h11.094c.25 0 .453-.447.453-1 0-.553-.202-1-.453-1H9.453C9.203 3 9 3.447 9 4c0 .553.202 1 .453 1zM9.453 14h11.094c.25 0 .453-.447.453-1 0-.553-.202-1-.453-1H9.453c-.25 0-.453.447-.453 1 0 .553.202 1 .453 1zM9.453 23h11.094c.25 0 .453-.447.453-1 0-.553-.202-1-.453-1H9.453c-.25 0-.453.447-.453 1 0 .553.202 1 .453 1z"/>
    </g>
</svg>
