<svg xmlns="http://www.w3.org/2000/svg" xmlns:xlink="http://www.w3.org/1999/xlink" width="82" height="101" viewBox="0 0 82 101">
    <defs>
        <path id="a" d="M0 99.467h81.267V0H0z"/>
    </defs>
    <g  transform="matrix(1 0 0 -1 0 100.467)">
       
        <g mask="url(#b)">
            <path d="M40.633 47.867C33.7 47.867 28.1 53.733 28.1 60.8s5.6 13.067 12.533 13.067c6.934 0 12.534-5.867 12.534-12.934 0-7.066-5.6-13.066-12.534-13.066m0 32.666c-10.533 0-19.2-8.8-19.2-19.6S30.1 41.2 40.633 41.2c10.534 0 19.2 8.8 19.2 19.6s-8.666 19.733-19.2 19.733"/>
            <path d="M72.5 46.4c-1.6-4.4-4.266-8.533-7.866-12.4l-24-25.6-24 25.6c-3.601 3.867-6.268 8-7.867 12.4-1.6 4.533-2.401 9.2-2 13.733 1.067 16 14 32.667 33.867 32.667C60.5 92.8 73.433 76.133 74.5 60.133c.4-4.533-.267-9.2-2-13.733M40.634 99.467C19.3 99.467 1.567 82.4.1 60.533-.301 54.933.5 49.467 2.5 44c1.865-5.2 5.066-10.133 9.198-14.667L38.234 1.067C38.9.4 39.699 0 40.634 0c.933 0 1.732.4 2.399 1.067l26.534 28.266C73.834 33.867 76.901 38.8 78.766 44c2 5.467 2.801 10.933 2.401 16.533C79.7 82.4 61.967 99.467 40.634 99.467"/>
        </g>
    </g>
</svg>
