<svg xmlns="http://www.w3.org/2000/svg" xmlns:xlink="http://www.w3.org/1999/xlink" width="38" height="48" viewBox="0 0 38 48">
    <defs>
        <path id="a" d="M0 47.307h37.73V0H0z"/>
    </defs>
    <g fill="none" fill-rule="evenodd" transform="matrix(1 0 0 -1 0 47.707)">
        <mask id="b" fill="#fff">
            <use xlink:href="#a"/>
        </mask>
        <g mask="url(#b)">
            <path fill="#555" fill-rule="nonzero" d="M36.113 7.147c0-3.094-2.533-5.6-5.66-5.6H7.278c-3.127 0-5.66 2.506-5.66 5.6v16.16c0 3.093 2.533 5.6 5.66 5.6h23.177c3.126 0 5.66-2.507 5.66-5.6V7.147zM10.241 36.8c0 4.907 3.989 8.907 8.894 8.907s8.893-4 8.893-8.907v-6.293H10.241V36.8zm27.49-13.493c0 3.946-3.288 7.2-7.277 7.2h-.809V36.8c0 5.813-4.689 10.507-10.51 10.507-5.822 0-10.51-4.747-10.51-10.507v-6.293H7.276c-3.99 0-7.277-3.254-7.277-7.2V7.2C0 3.253 3.288 0 7.277 0h23.177c3.989 0 7.276 3.253 7.276 7.2v16.107z"/>
            <path fill="#555" fill-rule="nonzero" d="M18.865 16.267c-1.347 0-2.48-1.12-2.48-2.454 0-1.066.702-1.973 1.672-2.293V7.787c0-.427.377-.8.808-.8.431 0 .809.373.809.8v3.733c.97.32 1.67 1.227 1.67 2.293 0 1.387-1.131 2.454-2.479 2.454"/>
        </g>
    </g>
</svg>
