<svg width="200" height="32" xmlns="http://www.w3.org/2000/svg" xmlns:xlink="http://www.w3.org/1999/xlink"><defs><path id="a" d="M0 31.1991459h34.6875058V0H0z"/></defs><g fill="none" fill-rule="evenodd"><g transform="matrix(1 0 0 -1 0 31.839317)"><mask id="b" fill="#fff"><use xlink:href="#a"/></mask><g mask="url(#b)"><path d="M15.5496861 31.1994015h.0004253c7.1140881 0 13.1517275-4.8575998 14.9809672-11.429973l4.1565124-4.1698132-4.1565124-4.1698133C28.7014136 4.8582822 22.6641995-.000171 15.5496861-.000171 6.9972142-.000171.0000852 7.01934881.0000852 15.5991886v.0004267c0 8.5798398 6.997129 15.5997862 15.5496009 15.5997862" fill="#FF5859"/><path d="M16.46447574 17.70483156h7.86262606c1.2176502 0 2.4735778-.61525332 2.5667198-1.96949328.050186-.72746665-.3062201-1.42378664-.8897395-1.84831996-.5316321-.38655999-1.1355662-.44458665-1.7722488-.44458665h-7.67166378c-.6371079 0-1.24104197.05802666-1.77224876.44458665-.58351939.42453333-.93992555 1.12042664-.88973948 1.84831996.09356725 1.35423996 1.34906961 1.96949328 2.56629446 1.96949328" fill="#FFF"/><path d="M8.85881878 15.5527251l-.00212653.0469333.00212653.0469333h-.00467836c-.09016481 2.1435733.83359912 4.3396266 2.91461981 5.7437865 2.61562991 1.76512 6.12482707 1.3943467 8.36023367-.8234666l.0586922-.05888c.595428-.40064 1.3341839-.4957867 2.024455-.09344.929293.5405867 1.2627326 1.7211733.7276981 2.6632533-.1105795.1949866-.2704945.4078933-.4572036.6242133-.2275386.20352-.4482722.38656-.6396598.53504-5.2299839 4.0503465-12.94843134 2.2058666-15.83200384-3.7508266-.76172247-1.5726933-1.09516212-3.2029866-1.04540136-4.8866132-.04976076-1.68362664.2836789-3.31349326 1.04540136-4.88661322C8.89454446 4.75592533 16.6129919 2.91187204 21.8429758 6.9622186c.1913876.14890667.4121212.33194666.6396598.53546666.1867091.21589333.3466241.42879999.4572036.62378665.5350345.94207997.2015949 2.12266661-.7276981 2.66367993-.6902711.40191999-1.429027.30677333-2.024455-.09429333l-.0586922-.05802666c-2.2354066-2.21781328-5.74460376-2.58901327-8.36023367-.82346665-2.08102069 1.40415996-3.00478462 3.59978658-2.91461981 5.7433599h.00467836z" fill="#FFF"/></g></g><path d="M52.3662178 12.9091329H50.348584c-1.4485577 0-2.1987036-.5697109-2.1987036-1.7091329 0-1.1912139.7242788-1.76092486 2.1987036-1.76092486h3.6472611c1.4744247 0 2.069368.77687866 2.069368 2.64138726 0 2.3047399-.8536143 4.48-2.4056403 6.0078613C52.2368823 19.4608092 50.4520524 20.16 48.2533488 20.16c-4.8630149 0-8.3809405-3.7549133-8.3809405-8.985896 0-5.28277452 3.4920585-8.934104 8.5620102-8.934104 3.2851218 0 6.4150409 1.63144509 6.4150409 3.39236994 0 .88046243-.6984117 1.60554914-1.4485576 1.60554914-.3362723 0-.7501459-.12947977-1.293355-.36254336-.2328039-.12947977.2845381.18127168-1.6037602-.88046243-.4656079-.23306358-1.2933551-.3884393-2.043501-.3884393-2.845381 0-4.5784767 2.0716763-4.5784767 5.48994221 0 3.4700578 1.7330957 5.6712139 4.5008754 5.6712139 1.4485576 0 2.7160456-.6732948 3.4403244-1.7868209.3621394-.5697109.517342-1.113526.5432091-2.0716763zm11.283804-4.47999995l-1.3192222 8.57156065c-.3362723 2.2270521-.8794814 3.0039307-2.069368 3.0039307-1.0864182 0-1.810697-.7250867-1.810697-1.8645087 0-.2848555.0776013-1.0099422.2328039-1.8386127l.1552026-1.1653179 1.7330957-10.12531795c.2069368-1.11352601.3362723-1.50196532.7242788-1.91630058.4397407-.46612716 1.1122853-.7250867 1.8624313-.7250867 1.4485576 0 2.3797732.77687861 2.845381 2.46011561l2.5608429 8.80462432 2.560843-9.21895958c.3880065-1.29479769 1.293355-2.04578035 2.58671-2.04578035.6725446 0 1.2157537.15537572 1.6296273.51791907.5949433.46612717.8277473 1.11352602 1.1640196 3.02982659l1.6554944 9.65919077.2069368.9581503c.1293355.5956069.1810697 1.2171098.1810697 1.683237 0 1.08763-.6725446 1.7868208-1.810697 1.7868208-1.1122854 0-1.6554945-.6215029-1.8882984-2.2011561l-1.5002918-9.32254334-2.6384442 9.47791904c-.4397407 1.5278613-.9829498 2.0457804-2.1987036 2.0457804-1.2157537 0-1.7072286-.4920231-2.1987035-2.2011561l-2.6643113-9.37433525zM85.047862 16.4568786l-.517342 1.5537572c-.517342 1.5537573-.9312156 1.9939885-1.9141654 1.9939885-1.1122854 0-1.9658997-.7509827-1.8882984-1.7609249.0258671-.4920231.1810697-1.113526.4397407-1.8386127l4.37154-11.49780346c.7501459-1.94219653 1.4744247-2.53780347 2.9747165-2.53780347 1.3450893 0 2.0693681.64739884 2.7677798 2.51190751l4.2939387 11.52369942c.3621394.9322543.5690762 1.709133.5690762 2.1234682 0 .8027746-.8018801 1.4760694-1.8106971 1.4760694-.8794814 0-1.4744247-.4143353-1.7589628-1.2689018l-.776013-2.2788439H85.047862zm1.1640195-3.4700578h4.3974071l-2.1728365-6.6034682-2.2245706 6.6034682zm16.2244205.0517919v4.9979191c0 1.1912139-.750146 1.9421965-1.940033 1.9421965-1.1122852 0-1.7848298-.7250867-1.7848298-1.9421965V4.38936416c0-1.19121387.6725446-1.83861271 1.8882988-1.83861271h4.37154c3.38859 0 5.61316 2.17526011 5.61316 5.41225433 0 2.58959542-1.448557 4.22104042-4.138736 4.68716762l3.543793 3.8584971c.750146.8286705.957083 1.2171098.957083 1.709133 0 .9322543-.905349 1.8127167-1.888299 1.8127167-.569076 0-1.086418-.3625433-1.888298-1.3206936l-4.733679-5.6712139zm0-3.0039306h2.121102c1.526159 0 2.431507-.77687863 2.431507-1.99398846 0-1.29479769-.905348-2.04578035-2.431507-2.04578035h-2.121102v4.03976881zm14.801729 2.1493641v5.8524856c0 1.2171098-.750146 2.0198844-1.888298 2.0198844-1.060551 0-1.836564-.8286705-1.836564-2.0198844V4.25988439c0-1.13942196.776013-1.94219653 1.836564-1.94219653 1.138152 0 1.888298.77687861 1.888298 1.94219653v4.94612717l5.794231-6.13734104c.465608-.49202312.98295-.75098266 1.500292-.75098266.879481 0 1.655494.80277457 1.655494 1.78682081 0 .41433526-.155203.75098266-.646677 1.26890173l-.155203.15537573c-.439741.46612716-.362139.3884393-.439741.46612716-.181069.18127168-.258671.25895954-.284538.31075145l-4.112869 4.24693646 5.018218 5.3086705c1.189886 1.2689017 1.474424 1.7091329 1.474424 2.3565318 0 .9840462-.827747 1.7868208-1.836564 1.7868208-.569076 0-1.060551-.2848555-1.629627-.8545665l-6.33744-6.9660116zm28.568776-6.16323695h-2.069368c-.879482 0-1.34509-.10358382-1.681362-.44023122-.310405-.31075144-.465608-.77687861-.465608-1.26890173 0-1.11352601.750146-1.70913295 2.14697-1.70913295h7.863598c1.422691 0 2.146969.56971099 2.146969 1.70913295 0 1.19121387-.672544 1.70913295-2.146969 1.70913295h-2.095235V17.932948c0 1.3206936-.698412 2.1234682-1.810697 2.1234682-1.189887 0-1.888298-.7768786-1.888298-2.1234682V6.02080925z" fill="#000004"/><rect fill="#000004" x="129.633172" y="2.56" width="9.85645921" height="3.32799988" rx="1.66399994"/><rect fill="#000004" x="129.633172" y="9.50400024" width="9.85645921" height="3.32799988" rx="1.66399994"/><rect fill="#000004" x="129.633172" y="16.5440002" width="9.85645921" height="3.32799988" rx="1.66399994"/><path d="M159.976715 16.52224h4.108133c1.395216 0 2.066986.57024 2.066986 1.6848 0 1.06272-.723445 1.63296-2.066986 1.63296h-5.735885c-1.550239 0-2.092823-.54432-2.092823-2.09952V4.5472c0-1.34784.749283-1.99584 2.273685-1.99584h5.270813c1.421053 0 2.092823.54432 2.092823 1.65888 0 1.14048-.697608 1.71072-2.092823 1.71072h-3.823923v3.60288h3.591387c.749282 0 1.240191.10368 1.498565.3888.310048.28512.516746.80352.516746 1.296 0 1.11456-.697608 1.65888-2.015311 1.65888h-3.591387v3.65472zM176.595853 2.2144c2.867943 0 5.167464 1.21824 5.167464 2.7216 0 .82944-.775119 1.6848-1.472727 1.6848-.258373 0-.67177-.10368-1.111005-.28512-1.033493-.3888-1.963636-.62208-2.712918-.62208-.930144 0-2.066986.54432-2.738756 1.24416-.852632.9072-1.395216 2.51424-1.395216 4.22496 0 3.3696 1.679426 5.4432 4.392345 5.4432.775119 0 1.240191-.1296 2.454545-.62208.568421-.2592.955981-.33696 1.291866-.33696.800957 0 1.472728.75168 1.472728 1.6848 0 1.5552-2.50622 2.82528-5.50335 2.82528-4.728229 0-8.061244-3.65472-8.061244-8.8128 0-5.36544 3.410527-9.14976 8.216268-9.14976zm11.632536 10.39392v5.4432c0 1.19232-.749282 1.96992-1.937799 1.96992-1.05933 0-1.782775-.75168-1.782775-1.91808V4.31392c0-1.14048.77512-1.91808 1.860287-1.91808 1.136842 0 1.860287.72576 1.860287 1.91808v4.9248h7.544498v-4.9248c0-1.21824.697607-1.96992 1.860287-1.96992 1.111005 0 1.860287.7776 1.860287 1.96992v13.78944c0 1.1664-.749282 1.91808-1.860287 1.91808-1.16268 0-1.860287-.72576-1.860287-1.96992v-5.4432h-7.544498zM40.1429027 24.6272h3.9732058v.92928h-2.924402v1.25184h1.5004785c.2653921 0 .506538.0358396.723445.10752.216907.0716804.403189.1766393.5588517.31488.1556626.1382407.2755976.307199.3598086.50688.0842109.199681.1263158.4300787.1263158.6912 0 .5324827-.1569363.9407986-.4708134 1.22496-.3138772.2841614-.7336497.42624-1.2593302.42624h-2.5875598v-5.4528zm2.4880383 4.55424c.250081 0 .4389148-.0678393.5665072-.20352.1275923-.1356807.1913875-.3212788.1913875-.5568 0-.2252811-.0637952-.4070393-.1913875-.54528-.1275924-.1382407-.3164262-.20736-.5665072-.20736h-1.4392345v1.51296h1.4392345zm3.2414673-4.55424h1.0488038v1.92h1.0411483c.2755995 0 .5295045.0383996.7617225.1152.2322181.0768004.4325351.1894393.600957.33792.1684219.1484807.2985641.3315189.3904306.54912.0918665.2176011.137799.4671986.137799.7488 0 .2867214-.0459325.5401589-.137799.76032s-.2207328.4057592-.3866029.5568c-.16587.1510408-.3623593.2662396-.5894737.3456s-.4733639.11904-.738756.11904h-2.1282296v-5.4528zm4.6392344 5.4528v-5.44512h1.0564594V30.08h-1.0564594zm-3.5904306-.89856h.9799043c.2960142 0 .5180216-.0793592.6660287-.23808.1480071-.1587208.2220096-.3763186.2220096-.6528 0-.2611213-.0765543-.4748792-.2296651-.64128-.1531108-.1664008-.3725663-.2496-.6583732-.2496h-.9799043v1.78176zm10.4835726-3.62496h-1.7377991V30.08h-1.0488038v-4.52352h-1.7377991v-.92928h4.524402v.92928zm3.6165869 4.56192c-.3980882 0-.7591691-.0780792-1.0832536-.23424-.3240846-.1561608-.6022317-.3635187-.8344498-.62208-.2322181-.2585613-.4121206-.5542383-.5397129-.88704-.1275924-.3328017-.1913876-.6732783-.1913876-1.02144 0-.3635218.067623-.7116783.2028708-1.04448.1352479-.3328017.32153-.6271987.5588517-.8832.2373218-.2560013.5192966-.4595192.845933-.61056.3266364-.1510408.6813378-.22656 1.0641149-.22656.3929844 0 .7515135.0806392 1.0755981.24192.3240845.1612808.6009557.3724787.830622.6336.2296662.2611213.4082928.5580783.5358851.89088.1275924.3328017.1913876.6707183.1913876 1.01376 0 .3635218-.066347.7103983-.1990431 1.04064-.132696.3302417-.3164262.6220787-.5511961.87552-.23477.2534413-.5154689.4556792-.8421053.60672-.3266364.1510408-.6813378.22656-1.0641148.22656zm-1.5770335-2.7648c0 .2355212.0357253.4633589.107177.68352.0714517.2201611.1748.4147192.3100478.58368.1352479.1689608.3011155.3046395.4976077.40704s.4197755.1536.6698565.1536c.2551847 0 .4810197-.0524795.6775119-.15744.1964922-.1049605.3623598-.2444791.4976077-.41856.1352479-.1740809.2373202-.3699189.3062201-.58752.0688998-.2176011.1033493-.4390389.1033493-.66432 0-.2355212-.0370013-.4633589-.1110048-.68352-.0740036-.2201611-.1786277-.4147192-.3138756-.58368-.1352479-.1689608-.3011155-.3033595-.4976077-.4032s-.4172236-.14976-.6622009-.14976c-.2551847 0-.4822957.0524795-.6813397.15744-.1990441.1049605-.3649117.2431991-.4976077.41472-.132696.1715209-.2334925.3660789-.3023923.58368-.0688999.2176011-.1033493.4390389-.1033493.66432zm9.9706539 1.32096c0 .2304012-.0459326.4326391-.1377991.60672-.0918665.1740809-.218181.3199994-.3789474.43776-.1607663.1177606-.3470483.2073597-.5588516.2688-.2118033.0614403-.4376384.09216-.677512.09216h-2.6258373v-5.4528h2.9090909c.1888367 0 .3598078.0409596.5129187.12288.1531108.0819204.283253.1881593.3904306.31872.1071776.1305607.1901113.2790392.2488038.44544.0586925.1664008.0880383.3340792.0880383.50304 0 .2662413-.066347.5158388-.1990431.7488-.132696.2329612-.3266335.4057594-.5818182.5184.3113254.0921605.5575749.2572788.738756.49536.1811812.2380812.2717704.5363182.2717704.89472zm-1.0641149-.19968c0-.0972805-.0165867-.1907196-.0497607-.28032-.033174-.0896004-.0778307-.1676797-.1339713-.23424-.0561407-.0665603-.1224877-.1190398-.1990431-.15744-.0765554-.0384002-.1607651-.0576-.2526316-.0576h-1.6229665v1.43616h1.569378c.0969702 0 .1875594-.0179198.2717703-.05376.084211-.0358402.1569375-.0857597.2181819-.14976.0612443-.0640003.1097287-.1395196.1454545-.22656.0357259-.0870404.0535885-.1791995.0535885-.27648zm-2.2583732-2.94144v1.37472h1.4086125c.1786292 0 .3304619-.0614394.4555024-.18432s.1875598-.2918389.1875598-.50688c0-.209921-.0574157-.3763194-.1722488-.4992-.1148332-.1228806-.2564585-.18432-.4248804-.18432h-1.4545455zm6.3878788-.90624h.9339713l2.0669856 5.4528h-1.0870813l-.5052632-1.35936h-1.8985646L71.4928229 30.08h-1.0870814l2.0746412-5.4528zm1.2172249 3.34848l-.7502393-2.14272-.7808612 2.14272h1.5311005zM79.5419457 30.08v-2.01984h-.8650718L77.4519935 30.08h-1.1636363l1.3320574-2.1504c-.3113253-.1280006-.5614026-.3327986-.7502393-.6144-.1888366-.2816014-.2832536-.6067182-.2832536-.97536 0-.2304012.0433808-.447999.1301436-.6528.0867628-.204801.2066978-.3865592.3598086-.54528s.3355651-.2841595.5473684-.37632c.2118033-.0921605.442742-.13824.692823-.13824h2.2736842V30.08h-1.0488038zm0-4.54656h-1.1100479c-.1020738 0-.1990426.0191998-.2909091.0576-.0918665.0384002-.1748002.0921597-.2488038.16128-.0740036.0691203-.1326952.1535995-.1760765.25344-.0433814.0998405-.0650718.2111994-.0650718.33408 0 .2457612.0727265.4428793.2181818.59136.1454553.1484807.3253578.22272.5397129.22272h1.1330144v-1.62048zm9.3384369.02304h-1.737799V30.08h-1.0488038v-4.52352h-1.7377991v-.92928h4.5244019v.92928zm5.0864434 3.59424V30.08h-3.7741627v-5.4528h3.7052632v.92928h-2.6488038v1.31328h2.2889952v.86016h-2.2889952v1.4208h2.7177033zm2.0012759-4.52352l1.3550239 2.02752 1.3473685-2.02752h1.1406698L97.874322 27.392l1.8755981 2.688h-1.1406699l-1.2861244-1.95072L96.0293459 30.08h-1.1483253l1.8755981-2.688-1.9368422-2.7648h1.1483254zm9.5955341 0V30.08h-1.048804v-2.32704h-2.465071V30.08h-1.05646v-5.4528h1.05646v2.20416h2.465071V24.6272h1.048804zm2.843381 3.82464l2.771292-3.82464h.803828V30.08h-1.048804v-3.74016L108.200319 30.08h-.842105v-5.4528h1.048803v3.82464zm6.418501-1.58208h.428708l1.653589-2.24256h1.194258l-1.952153 2.63424 2.12823 2.81856h-1.178948l-1.745454-2.25792h-.52823V30.08h-1.048804v-5.4528h1.048804v2.24256zm6.089314-2.24256h.933972l2.066985 5.4528h-1.087081l-.505263-1.35936h-1.898565l-.497608 1.35936h-1.087081l2.074641-5.4528zm1.217225 3.34848l-.750239-2.14272-.780861 2.14272h1.5311zm6.521212.47616l2.771292-3.82464h.803828V30.08h-1.048804v-3.74016L128.446571 30.08h-.842106v-5.4528h1.048804v3.82464zm9.659968 1.67424c-.244977 0-.484847-.0281597-.719617-.08448-.23477-.0563203-.454225-.1382395-.658373-.24576-.204148-.1075205-.38405-.2393592-.539713-.39552s-.276874-.336639-.363636-.54144l.865071-.4992c.066348.1484807.151834.2751995.25646.38016.104625.1049605.219457.1907197.344497.25728.125041.0665603.255183.1151998.390431.14592.135248.0307202.266666.04608.394258.04608.219459 0 .419776-.0383996.600957-.1152.181181-.0768004.339394-.1817593.474641-.31488.135248-.1331207.247528-.2892791.336843-.46848.089314-.1792009.149282-.368639.179904-.56832h-2.204785v-.85248h2.181818c-.035726-.1740809-.094417-.3417592-.176076-.50304-.081659-.1612808-.186283-.3033594-.313876-.42624-.127592-.1228806-.279425-.2214396-.455502-.29568-.176078-.0742404-.378946-.11136-.608613-.11136-.122488 0-.250079.0140799-.382775.04224-.132696.0281601-.260286.0729597-.382775.1344-.122489.0614403-.23732.1446395-.344498.2496-.107177.1049605-.193939.2342392-.260287.38784l-.811483-.56064c.178629-.3532818.447845-.6399989.807656-.86016.35981-.2201611.807652-.33024 1.34354-.33024.438918 0 .826793.0793592 1.163637.23808.336843.1587208.620094.3660787.84976.62208.229667.2560013.404466.5465584.524402.87168.119937.3251216.179905.6540783.179905.98688 0 .3481617-.063796.6899183-.191388 1.02528-.127592.3353617-.308771.6348787-.543541.89856-.234769.2636813-.515468.4774392-.842105.64128-.326636.1638408-.691545.24576-1.094737.24576zm5.844338-3.74016c-.05614.7014435-.132694 1.2902376-.229665 1.7664-.09697.4761624-.229664.8614385-.398086 1.15584s-.37767.5055994-.627751.6336c-.250081.1280006-.556298.192-.91866.192l-.061244-.95232c.173525-.0153601.325358-.0588796.455502-.13056.130144-.0716804.242424-.212479.336842-.4224.094419-.209921.174801-.510718.241149-.9024.066348-.391682.127591-.9126367.183732-1.56288l.130143-1.536h3.291866V30.08h-1.048804v-4.52352h-1.286124l-.0689.82944zm7.980224 2.7648V30.08h-3.774163v-5.4528h3.705263v.92928h-2.648804v1.31328h2.288996v.86016h-2.288996v1.4208h2.717704zm2.514194-2.28096h.428708l1.653589-2.24256h1.194258l-1.952153 2.63424 2.12823 2.81856h-1.178948l-1.745454-2.25792h-.52823V30.08h-1.048804v-5.4528h1.048804v2.24256zm8.607975-1.31328h-1.737799V30.08h-1.048804v-4.52352h-1.737799v-.92928h4.524402v.92928zm1.31228 4.52352v-5.4528h2.304307c.250081 0 .481019.0524795.692823.15744.211803.1049605.394257.2431991.547368.41472.153111.1715209.273046.3660789.359809.58368.086762.2176011.130143.4364789.130143.65664 0 .2304012-.040829.4543989-.122488.672-.081659.2176011-.19649.4108792-.344497.57984-.148008.1689608-.326634.3046395-.535886.40704-.209251.1024005-.438914.1536-.688995.1536h-1.286124V30.08h-1.05646zm1.05646-2.75712h1.22488c.19394 0 .35598-.0793592.486125-.23808.130144-.1587208.195215-.3737586.195215-.64512 0-.1382407-.020415-.2623994-.061244-.37248-.04083-.1100806-.094418-.2035196-.160766-.28032-.066348-.0768004-.144178-.1343998-.233493-.1728-.089314-.0384002-.179903-.0576-.27177-.0576h-1.178947v1.7664zm6.655821 2.79552c-.398088 0-.759169-.0780792-1.083253-.23424-.324085-.1561608-.602232-.3635187-.83445-.62208-.232218-.2585613-.412121-.5542383-.539713-.88704-.127593-.3328017-.191388-.6732783-.191388-1.02144 0-.3635218.067623-.7116783.202871-1.04448.135248-.3328017.32153-.6271987.558852-.8832.237322-.2560013.519296-.4595192.845933-.61056.326636-.1510408.681338-.22656 1.064115-.22656.392984 0 .751513.0806392 1.075598.24192.324084.1612808.600955.3724787.830622.6336.229666.2611213.408293.5580783.535885.89088.127592.3328017.191387.6707183.191387 1.01376 0 .3635218-.066347.7103983-.199043 1.04064-.132696.3302417-.316426.6220787-.551196.87552-.23477.2534413-.515469.4556792-.842105.60672-.326636.1510408-.681338.22656-1.064115.22656zm-1.577033-2.7648c0 .2355212.035725.4633589.107177.68352.071451.2201611.1748.4147192.310047.58368.135248.1689608.301116.3046395.497608.40704s.419776.1536.669857.1536c.255184 0 .481019-.0524795.677512-.15744.196492-.1049605.362359-.2444791.497607-.41856.135248-.1740809.23732-.3699189.30622-.58752.0689-.2176011.10335-.4390389.10335-.66432 0-.2355212-.037002-.4633589-.111005-.68352-.074004-.2201611-.178628-.4147192-.313876-.58368-.135248-.1689608-.301115-.3033595-.497607-.4032-.196493-.0998405-.417224-.14976-.662201-.14976-.255185 0-.482296.0524795-.68134.15744-.199044.1049605-.364912.2431991-.497608.41472-.132696.1715209-.233492.3660789-.302392.58368-.0689.2176011-.103349.4390389-.103349.66432zm10.246252-2.7264V30.08h-1.048804v-2.32704h-2.465072V30.08h-1.056459v-5.4528h1.056459v2.20416h2.465072V24.6272h1.048804zm2.843381 3.82464l2.771292-3.82464h.803827V30.08h-1.048803v-3.74016L183.59043 30.08h-.842105v-5.4528h1.048804v3.82464zm6.418501-1.58208h.428708l1.653588-2.24256h1.194259l-1.952154 2.63424 2.12823 2.81856h-1.178947l-1.745455-2.25792h-.528229V30.08h-1.048804v-5.4528h1.048804v2.24256zm6.089314-2.24256h.933971l2.066986 5.4528h-1.087082l-.505263-1.35936h-1.898564l-.497608 1.35936h-1.087081l2.074641-5.4528zm1.217225 3.34848l-.75024-2.14272-.780861 2.14272h1.531101z" fill="#000004"/></g></svg>