<svg xmlns="http://www.w3.org/2000/svg" xmlns:xlink="http://www.w3.org/1999/xlink" width="48" height="42" viewBox="0 0 48 42">
    <defs>
        <path id="a" d="M0 41.502h47.742V0H0z"/>
    </defs>
    <g fill="none" fill-rule="evenodd" transform="matrix(1 0 0 -1 0 42)">
        <mask id="b" fill="#fff">
            <use xlink:href="#a"/>
        </mask>
        <g mask="url(#b)">
            <path fill="#FF5859" d="M21.402 41.503c9.792 0 18.102-6.462 20.62-15.205l5.72-5.547-5.72-5.547C39.501 6.463 31.193 0 21.401 0 9.63 0 0 9.337 0 20.75v.001c0 11.413 9.63 20.752 21.402 20.752"/>
            <path fill="#FFF" d="M22.66 23.552h10.822c1.676 0 3.405-.819 3.533-2.62.07-.968-.421-1.894-1.225-2.459-.731-.514-1.562-.591-2.439-.591H22.792c-.876 0-1.708.077-2.439.591-.803.565-1.293 1.49-1.224 2.459.128 1.801 1.856 2.62 3.532 2.62"/>
            <path fill="#FFF" d="M12.193 20.689l-.003.062.003.063h-.007c-.124 2.851 1.148 5.772 4.012 7.64 3.6 2.348 8.43 1.855 11.506-1.095l.081-.078c.82-.533 1.836-.66 2.786-.125 1.28.72 1.738 2.29 1.002 3.543-.152.26-.372.543-.63.83-.312.271-.616.515-.88.712-7.198 5.388-17.821 2.934-21.79-4.99a13.373 13.373 0 0 1-1.439-6.5c-.068-2.24.39-4.407 1.44-6.5 3.968-7.924 14.591-10.378 21.79-4.99.263.198.567.442.88.713.257.287.477.57.63.83.735 1.253.277 2.823-1.003 3.543-.95.534-1.966.408-2.786-.126l-.08-.077c-3.077-2.95-7.907-3.444-11.507-1.095-2.864 1.868-4.136 4.788-4.012 7.64h.007z"/>
        </g>
    </g>
</svg>
