<svg xmlns="http://www.w3.org/2000/svg" xmlns:xlink="http://www.w3.org/1999/xlink" width="627" height="100" viewBox="0 0 627 100">
    <defs>
        <path id="a" d="M0 97.497h108.745V0H0z"/>
        <path id="c" d="M0 88.461h500.697V0H0z"/>
    </defs>
    <g fill="none" fill-rule="evenodd">
        <g transform="matrix(1 0 0 -1 0 99.498)">
            <mask id="b" fill="#fff">
                <use xlink:href="#a"/>
            </mask>
            <g mask="url(#b)">
                <path fill="#FF5859" d="M48.748 97.498h.002c22.302 0 41.23-15.18 46.965-35.719l13.03-13.03-13.03-13.03C89.979 15.181 71.052-.002 48.748-.002 21.936 0 0 21.935 0 48.747v.002c0 26.812 21.936 48.75 48.748 48.75"/>
                <path fill="#FFF" d="M51.616 55.328h24.65c3.817 0 7.754-1.923 8.046-6.155.157-2.273-.96-4.45-2.79-5.776-1.666-1.208-3.56-1.39-5.555-1.39h-24.05c-1.998 0-3.892.182-5.557 1.39-1.83 1.327-2.947 3.501-2.79 5.776.294 4.232 4.23 6.155 8.046 6.155"/>
                <path fill="#FFF" d="M27.772 48.602l-.006.147.006.147h-.014c-.283 6.698 2.613 13.56 9.137 17.949 8.2 5.516 19.201 4.357 26.21-2.573l.183-.184c1.867-1.252 4.183-1.55 6.347-.292 2.913 1.689 3.959 5.378 2.281 8.322-.346.61-.848 1.275-1.433 1.95a38.06 38.06 0 0 1-2.005 1.673C52.082 88.398 27.884 82.634 18.844 64.02c-2.388-4.915-3.433-10.01-3.277-15.271-.156-5.261.89-10.355 3.277-15.27 9.04-18.617 33.238-24.38 49.634-11.722.6.465 1.292 1.037 2.005 1.673.585.675 1.087 1.34 1.433 1.95 1.678 2.944.632 6.633-2.28 8.324-2.165 1.256-4.48.958-6.348-.295l-.184-.181c-7.008-6.931-18.009-8.091-26.209-2.574-6.524 4.388-9.42 11.25-9.137 17.948h.014z"/>
            </g>
        </g>
        <g transform="matrix(1 0 0 -1 125 94.462)">
            <mask id="d" fill="#fff">
                <use xlink:href="#c"/>
            </mask>
            <g mask="url(#d)">
                <path fill="#000004" d="M253.215 13.001h-.013l-2.187-6.685h4.408l-2.208 6.685zm7.211-11.537c.095-.29.157-.523.181-.693.026-.17-.008-.298-.093-.384-.093-.083-.25-.138-.477-.158-.226-.021-.54-.03-.932-.03-.416 0-.739.004-.967.017-.23.013-.405.036-.53.075a.49.49 0 0 0-.254.153.715.715 0 0 0-.119.252l-1.033 3.159h-5.925l-.99-3.071a.953.953 0 0 0-.129-.287.511.511 0 0 0-.252-.182 1.857 1.857 0 0 0-.497-.091 11.848 11.848 0 0 0-.846-.025c-.374 0-.664.013-.876.038-.21.024-.354.082-.434.174-.083.094-.112.228-.087.397.024.17.087.395.183.68l4.84 13.945c.046.138.104.248.169.332a.58.58 0 0 0 .308.195c.144.045.34.073.592.087.25.012.58.017.993.017.478 0 .859-.005 1.14-.017.287-.014.507-.042.664-.087a.651.651 0 0 0 .34-.2c.067-.09.127-.21.174-.364l4.857-13.932zM241.639.696a.345.345 0 0 0-.074-.223c-.046-.062-.134-.112-.262-.154a2.788 2.788 0 0 0-.505-.09 8.436 8.436 0 0 0-.812-.03c-.353 0-.633.009-.847.03-.214.02-.389.054-.517.099a.635.635 0 0 0-.295.183.776.776 0 0 0-.144.285l-1.264 3.503a7.68 7.68 0 0 1-.56 1.284c-.194.344-.409.625-.646.841a2.048 2.048 0 0 1-.8.455 3.595 3.595 0 0 1-1.011.133h-.716V.709a.351.351 0 0 0-.076-.225c-.044-.061-.132-.11-.253-.156a1.923 1.923 0 0 0-.484-.099 7.628 7.628 0 0 0-.771-.03c-.307 0-.564.009-.77.03-.207.02-.369.054-.489.099a.641.641 0 0 0-.262.156.34.34 0 0 0-.079.225v14.856a.34.34 0 0 0 .079.226.586.586 0 0 0 .262.152c.12.037.282.07.488.09.207.022.464.031.771.031.31 0 .572-.01.77-.03.205-.02.366-.05.485-.091.121-.04.209-.091.253-.152a.332.332 0 0 0 .076-.226V9.672h.716c.365 0 .688.05.961.145.278.1.527.254.751.46.224.211.425.486.61.82.182.336.355.752.529 1.246l1.057 3.129c.041.11.088.205.145.28.058.079.15.141.274.183.125.045.29.078.497.098.203.022.48.031.83.031.314 0 .575-.01.778-.03.207-.02.368-.05.485-.086.119-.037.199-.085.236-.145a.405.405 0 0 0 .062-.224c0-.104-.016-.236-.054-.39a6.137 6.137 0 0 0-.19-.605l-1.052-2.79c-.196-.518-.391-.96-.584-1.32a5.272 5.272 0 0 0-.615-.93 3.225 3.225 0 0 0-.68-.625 3.667 3.667 0 0 0-.79-.402v-.009c.322-.141.617-.293.878-.468.265-.177.513-.399.745-.664.23-.268.452-.596.663-.985.207-.39.423-.866.643-1.434l1.289-3.261c.133-.332.207-.56.23-.688.027-.125.04-.228.04-.312zm-18.62-.01c0-.08-.026-.151-.08-.213a.597.597 0 0 0-.26-.154 2.63 2.63 0 0 0-.493-.09 7.801 7.801 0 0 0-.772-.03c-.305 0-.563.009-.77.03-.207.02-.369.054-.485.09a.51.51 0 0 0-.249.154.32.32 0 0 0-.073.212V8.97c0 .315.004.624.012.928.006.306.02.576.037.807h-.027c-.064-.112-.14-.244-.23-.393l-.286-.472c-.102-.167-.21-.336-.322-.511-.118-.173-.228-.344-.34-.505L213.222.672a1.743 1.743 0 0 0-.2-.228.688.688 0 0 0-.268-.153 1.61 1.61 0 0 0-.399-.075 7.768 7.768 0 0 0-.612-.017c-.316 0-.572.009-.764.03-.193.02-.346.054-.456.09a.446.446 0 0 0-.224.157.451.451 0 0 0-.061.233v14.87a.32.32 0 0 0 .079.212.582.582 0 0 0 .265.152c.124.037.29.07.495.09.197.022.453.031.761.031.31 0 .572-.01.77-.03.203-.02.365-.054.485-.091a.515.515 0 0 0 .253-.152.33.33 0 0 0 .075-.212V7.245a30.215 30.215 0 0 0-.05-1.674h.026c.14.24.314.534.525.874.21.34.432.671.655.994l5.465 8.152c.059.078.117.15.184.212.067.06.152.112.26.153.108.036.245.065.407.081.162.018.368.027.621.027.307 0 .556-.01.747-.03.19-.02.338-.054.456-.091.11-.04.19-.091.236-.152a.378.378 0 0 0 .066-.226V.685zm-19.766.023a.344.344 0 0 0-.078-.22.592.592 0 0 0-.261-.157 2.734 2.734 0 0 0-.485-.095A6.205 6.205 0 0 0 201.67.2c-.316 0-.577.013-.782.038a2.685 2.685 0 0 0-.486.095.583.583 0 0 0-.253.157.337.337 0 0 0-.077.22v6.352h-5.894V.71a.358.358 0 0 0-.076-.22.513.513 0 0 0-.252-.157 2.784 2.784 0 0 0-.485-.095 6.352 6.352 0 0 0-.77-.038c-.307 0-.565.013-.771.038a2.74 2.74 0 0 0-.49.095.586.586 0 0 0-.26.157.34.34 0 0 0-.08.22v14.844a.34.34 0 0 0 .08.22c.054.062.14.116.26.158.12.041.282.07.49.096.206.022.464.037.77.037.311 0 .572-.015.771-.037.203-.026.365-.059.485-.096a.522.522 0 0 0 .252-.158.358.358 0 0 0 .076-.22V9.772h5.894v5.781c0 .079.022.154.077.22a.595.595 0 0 0 .253.158c.119.037.279.07.486.096.205.022.466.037.782.037.302 0 .56-.015.758-.037.204-.026.366-.055.485-.096a.604.604 0 0 0 .261-.158.344.344 0 0 0 .078-.22V.71zm-18.31.766c.146-.284.242-.508.287-.679.045-.17.016-.303-.079-.39-.1-.091-.273-.145-.526-.169a11.38 11.38 0 0 0-1.06-.038c-.378 0-.682.009-.896.025-.219.017-.39.041-.514.08a.56.56 0 0 0-.273.152.84.84 0 0 0-.145.24l-2.96 5.673-2.934-5.673a1.084 1.084 0 0 0-.157-.24.567.567 0 0 0-.273-.152 2.626 2.626 0 0 0-.527-.08 12.783 12.783 0 0 0-.883-.025c-.422 0-.75.013-.982.038-.227.024-.384.078-.468.17-.079.086-.095.22-.046.389.046.17.15.395.303.679l3.759 6.864-3.498 6.448a5.186 5.186 0 0 0-.298.7c-.05.174-.034.304.062.389.091.084.266.137.514.157.253.022.609.031 1.069.031.381 0 .684-.01.908-.027.223-.016.397-.04.525-.077.134-.039.226-.088.275-.153.053-.062.103-.146.152-.242l2.773-5.2 2.672 5.2c.051.096.1.18.155.242.05.065.136.114.253.153.115.037.276.061.484.077.207.018.494.027.858.027.401 0 .721-.01.957-.03.232-.02.395-.074.485-.166.087-.087.111-.22.066-.39a4.68 4.68 0 0 0-.272-.691l-3.499-6.411 3.733-6.901zm-17.588.054c0-.236-.008-.43-.029-.592a1.443 1.443 0 0 0-.09-.381.512.512 0 0 0-.154-.216.323.323 0 0 0-.2-.067h-7.881c-.264 0-.49.08-.672.238-.182.157-.274.413-.274.77v13.7c0 .356.092.614.274.771a.99.99 0 0 0 .672.236h7.845a.33.33 0 0 0 .195-.061.545.545 0 0 0 .145-.212 1.81 1.81 0 0 0 .09-.39c.022-.161.03-.36.03-.605 0-.228-.008-.417-.03-.58a1.456 1.456 0 0 0-.09-.381.585.585 0 0 0-.145-.216.317.317 0 0 0-.195-.066h-5.607v-3.83h4.724a.311.311 0 0 0 .199-.064.496.496 0 0 0 .153-.208c.042-.091.07-.216.092-.378.02-.157.028-.349.028-.572 0-.236-.008-.43-.028-.584a1.428 1.428 0 0 0-.092-.368.41.41 0 0 0-.153-.2.345.345 0 0 0-.199-.062h-4.724V2.785h5.643a.315.315 0 0 0 .2-.066.507.507 0 0 0 .153-.215c.042-.095.071-.224.091-.381a4.67 4.67 0 0 0 .03-.594zM152.63 14.68c0-.236-.008-.435-.028-.606a1.677 1.677 0 0 0-.09-.397.496.496 0 0 0-.155-.223.302.302 0 0 0-.199-.076h-3.93V.71a.344.344 0 0 0-.077-.22.597.597 0 0 0-.262-.157 2.752 2.752 0 0 0-.492-.095 6.525 6.525 0 0 0-.771-.038c-.307 0-.564.013-.772.038a2.802 2.802 0 0 0-.492.095.6.6 0 0 0-.261.157.345.345 0 0 0-.079.22v12.668h-3.928c-.08 0-.15.026-.208.076a.532.532 0 0 0-.144.223 1.67 1.67 0 0 0-.092.397c-.02.171-.03.37-.03.606 0 .24.01.448.03.618.02.17.053.306.092.404.04.106.09.175.144.22a.322.322 0 0 0 .208.067h11.064c.07 0 .137-.02.199-.067a.478.478 0 0 0 .154-.22c.04-.098.07-.234.091-.404.02-.17.028-.378.028-.618zm-31.856-1.151h-1.65c-.687 0-1.205-.055-1.549-.159a2.131 2.131 0 0 1-.832-.454 1.734 1.734 0 0 1-.473-.719 2.829 2.829 0 0 1-.145-.928c0-.332.053-.633.157-.915.108-.277.27-.522.49-.725.22-.208.5-.37.84-.481.345-.112.833-.171 1.467-.171h1.695v4.552zM123.958.685c0-.08-.025-.15-.076-.212-.045-.062-.128-.112-.248-.154a2.488 2.488 0 0 0-.485-.09 7.772 7.772 0 0 0-.771-.03c-.315 0-.576.009-.779.03a2.71 2.71 0 0 0-.489.09c-.128.042-.216.092-.261.154a.322.322 0 0 0-.075.212v5.879h-1.181c-.484 0-.858-.05-1.111-.145a1.937 1.937 0 0 1-.684-.45 3.134 3.134 0 0 1-.53-.76 9.152 9.152 0 0 1-.447-1.072L115.627.735a.86.86 0 0 0-.157-.251.765.765 0 0 0-.299-.17 2.217 2.217 0 0 0-.526-.09c-.22-.016-.496-.025-.836-.025a7.85 7.85 0 0 0-.879.038 2.02 2.02 0 0 0-.493.103c-.112.047-.183.096-.216.15a.365.365 0 0 0-.05.182c0 .083.012.183.042.299.029.118.086.293.177.529l1.177 3.087c.154.402.311.756.474 1.057.161.299.34.568.537.81.2.235.412.438.63.6.225.16.469.29.734.39a5.582 5.582 0 0 0-1.33.537c-.386.224-.709.494-.974.814a3.38 3.38 0 0 0-.597 1.106 4.606 4.606 0 0 0-.198 1.4c0 .714.124 1.36.368 1.936.25.58.618 1.072 1.103 1.475.484.407 1.093.721 1.819.94.725.224 1.737.336 3.033.336h3.855a.97.97 0 0 0 .662-.236c.183-.157.275-.415.275-.77V.684zm-23.81 12.316h-.013l-2.188-6.685h4.41l-2.208 6.685zm7.21-11.537c.096-.29.159-.523.183-.693.025-.17-.008-.298-.095-.384-.092-.083-.25-.138-.477-.158-.224-.021-.539-.03-.932-.03-.414 0-.738.004-.966.017a2.343 2.343 0 0 0-.53.075.485.485 0 0 0-.254.153.716.716 0 0 0-.12.252l-1.032 3.159H97.21L96.22.784a.953.953 0 0 0-.129-.287.51.51 0 0 0-.253-.182 1.846 1.846 0 0 0-.497-.091 11.794 11.794 0 0 0-.846-.025 7.72 7.72 0 0 0-.874.038c-.211.024-.356.082-.435.174-.083.094-.112.228-.087.397.024.17.087.395.182.68l4.841 13.945c.045.138.103.248.17.332.062.087.166.15.306.195.145.045.34.073.592.087.25.012.581.017.996.017.476 0 .857-.005 1.139-.017.285-.014.505-.042.662-.087.158-.045.271-.112.34-.2.067-.09.13-.21.175-.364l4.856-13.932zm-22.013 3.41c0 .365-.063.691-.183.982-.12.285-.299.525-.535.721-.232.195-.53.344-.894.452-.364.104-.838.158-1.422.158h-1.889V2.71h2.304c.443 0 .816.045 1.123.141.301.09.562.232.786.413.22.183.395.407.524.68.123.27.186.582.186.928zm-.822 6.738c0 .315-.049.597-.144.85a1.53 1.53 0 0 1-.436.625c-.194.166-.438.29-.733.382-.295.087-.688.132-1.181.132h-1.607V9.524h1.777c.46 0 .83.055 1.102.167.274.106.501.256.684.446.182.19.314.415.406.667.087.257.132.523.132.808zm4.128-6.623c0-.558-.078-1.065-.232-1.518a4.142 4.142 0 0 0-.633-1.204 4.27 4.27 0 0 0-.97-.899 5.82 5.82 0 0 0-1.243-.621A7.447 7.447 0 0 0 84.122.39a11.226 11.226 0 0 0-1.715-.118h-4.174c-.264 0-.49.08-.671.238-.183.157-.275.413-.275.77v13.7c0 .356.092.614.275.771a.984.984 0 0 0 .67.236h3.938c.961 0 1.773-.081 2.441-.243.667-.162 1.227-.408 1.683-.734a3.195 3.195 0 0 0 1.048-1.244c.244-.502.365-1.09.365-1.768 0-.383-.049-.739-.145-1.075a3.132 3.132 0 0 0-1.11-1.645c-.27-.211-.577-.38-.925-.51a4.246 4.246 0 0 0 1.235-.426c.377-.203.704-.466.981-.783.283-.319.502-.697.664-1.124.162-.43.244-.91.244-1.447zm-20.97 3.163c0 .824-.067 1.575-.195 2.25-.13.677-.348 1.257-.659 1.738-.31.479-.724.852-1.244 1.116-.517.263-1.164.395-1.938.395-.783 0-1.439-.148-1.96-.443a3.596 3.596 0 0 1-1.276-1.185 4.85 4.85 0 0 1-.684-1.728c-.134-.663-.2-1.36-.2-2.099 0-.856.066-1.627.196-2.31.128-.685.348-1.269.654-1.757a2.993 2.993 0 0 1 1.235-1.11c.517-.255 1.168-.383 1.952-.383.783 0 1.437.145 1.96.44a3.5 3.5 0 0 1 1.276 1.188c.324.501.552 1.087.684 1.755.132.666.199 1.38.199 2.133zm3.357.161c0-1.301-.161-2.465-.485-3.493-.323-1.027-.804-1.901-1.447-2.615a6.222 6.222 0 0 0-2.37-1.641C65.792.187 64.703 0 63.464 0c-1.222 0-2.288.161-3.196.481-.913.319-1.67.804-2.28 1.463-.605.655-1.06 1.487-1.362 2.499-.303 1.012-.456 2.209-.456 3.592 0 1.269.161 2.413.485 3.429.323 1.015.804 1.877 1.447 2.59a6.252 6.252 0 0 0 2.369 1.637c.945.381 2.039.57 3.287.57 1.189 0 2.237-.157 3.149-.47.908-.316 1.67-.802 2.279-1.46.614-.655 1.073-1.479 1.385-2.478.31-1.002.468-2.181.468-3.54zm-18.99 6.366c0-.236-.009-.435-.029-.606a1.614 1.614 0 0 0-.09-.397.505.505 0 0 0-.154-.223.305.305 0 0 0-.2-.076h-3.929V.71a.344.344 0 0 0-.077-.22.592.592 0 0 0-.262-.157 2.82 2.82 0 0 0-.493-.095 6.51 6.51 0 0 0-.77-.038c-.307 0-.565.013-.771.038a2.82 2.82 0 0 0-.494.095.6.6 0 0 0-.261.157.345.345 0 0 0-.079.22v12.668h-3.928a.31.31 0 0 0-.208.076.559.559 0 0 0-.144.223 1.67 1.67 0 0 0-.092.397c-.02.171-.029.37-.029.606 0 .24.01.448.03.618.02.17.053.306.091.404.042.106.091.175.144.22.059.047.13.067.208.067h11.064c.071 0 .138-.02.2-.067a.487.487 0 0 0 .154-.22c.041-.098.069-.234.09-.404.02-.17.03-.378.03-.618zM26.23 5.193c0 .386-.059.734-.17 1.04a1.985 1.985 0 0 1-.523.788 2.461 2.461 0 0 1-.899.506c-.364.118-.904.181-1.616.181h-1.641V2.736h1.69c.743 0 1.306.073 1.683.224.377.148.668.344.879.579.21.241.364.502.456.792.094.29.141.581.141.862zm3.281.266a5.88 5.88 0 0 0-.344-2.047 4.252 4.252 0 0 0-1.089-1.621c-.493-.46-1.14-.828-1.936-1.102-.795-.278-1.88-.416-3.257-.416H19.18a1.25 1.25 0 0 0-.382.055.826.826 0 0 0-.31.183.992.992 0 0 0-.212.313c-.054.13-.079.279-.079.457V15.58a.32.32 0 0 0 .079.212.582.582 0 0 0 .265.152c.124.037.29.07.497.09.207.022.455.031.759.031.31 0 .572-.01.77-.03.203-.02.365-.054.485-.091.121-.04.208-.091.253-.152a.337.337 0 0 0 .075-.212v-5.435h1.981c1.176 0 2.113-.099 2.813-.301.702-.203 1.298-.502 1.787-.899.488-.399.87-.89 1.143-1.479.27-.594.406-1.261.406-2.006zM34.634.685c0-.08-.025-.15-.08-.212a.597.597 0 0 0-.26-.154 2.652 2.652 0 0 0-.493-.09A7.772 7.772 0 0 0 33.03.2c-.307 0-.564.009-.767.03a2.71 2.71 0 0 0-.489.09.59.59 0 0 0-.27.154.312.312 0 0 0-.078.212V15.58a.32.32 0 0 0 .079.212.577.577 0 0 0 .269.152c.124.037.29.07.497.09.208.022.46.031.759.031.307 0 .564-.01.77-.03.207-.02.374-.054.494-.091.12-.04.207-.091.26-.152a.314.314 0 0 0 .08-.212V.685zM8.981 4.945c0 .344-.058.659-.17.935a1.927 1.927 0 0 1-.502.717c-.219.2-.506.354-.848.456-.35.104-.81.158-1.388.158H4.007V2.687H6.11c.522 0 .953.049 1.289.144.34.098.621.245.85.434.227.196.406.436.538.718.128.285.195.604.195.962zm3.233.202c0-.714-.121-1.363-.365-1.955a4.137 4.137 0 0 0-1.099-1.539C10.257 1.22 9.635.883 8.882.64 8.132.395 7.152.273 5.955.273H1.811c-.293 0-.53.08-.712.238-.182.157-.274.426-.274.806v13.664c0 .356.092.614.274.771a.985.985 0 0 0 .675.236h8.897c.079 0 .151-.02.212-.061a.445.445 0 0 0 .158-.212 1.38 1.38 0 0 0 .1-.39c.02-.157.028-.356.028-.597a4.83 4.83 0 0 0-.028-.58 1.399 1.399 0 0 0-.1-.385.53.53 0 0 0-.158-.22.34.34 0 0 0-.202-.066H4.007V9.575h2.62c1.011 0 1.848-.098 2.507-.291.655-.196 1.215-.485 1.665-.867a3.81 3.81 0 0 0 1.05-1.396c.244-.55.365-1.177.365-1.874zM492.206 13.001h-.012l-2.188-6.685h4.41l-2.21 6.685zm7.21-11.537c.097-.29.158-.523.183-.693.024-.17-.008-.298-.094-.384-.092-.083-.25-.138-.478-.158-.224-.021-.538-.03-.932-.03-.414 0-.737.004-.966.017-.23.013-.404.036-.53.075a.495.495 0 0 0-.254.153.692.692 0 0 0-.118.252l-1.033 3.159h-5.925l-.99-3.071a.921.921 0 0 0-.13-.287.511.511 0 0 0-.252-.182 1.846 1.846 0 0 0-.498-.091 11.848 11.848 0 0 0-.845-.025c-.375 0-.664.013-.876.038-.21.024-.355.082-.433.174-.083.094-.114.228-.087.397.024.17.087.395.183.68l4.838 13.945c.047.138.104.248.171.332.061.087.165.15.307.195.144.045.34.073.592.087.25.012.581.017.994.017.478 0 .86-.005 1.14-.017a3.02 3.02 0 0 0 .663-.087.651.651 0 0 0 .34-.2c.068-.09.128-.21.175-.364l4.856-13.932zM480.63.696a.344.344 0 0 0-.073-.223c-.046-.062-.135-.112-.263-.154a2.766 2.766 0 0 0-.505-.09 8.417 8.417 0 0 0-.812-.03c-.354 0-.634.009-.846.03-.216.02-.389.054-.517.099a.628.628 0 0 0-.295.183.757.757 0 0 0-.145.285l-1.264 3.503a7.68 7.68 0 0 1-.56 1.284c-.193.344-.41.625-.647.841a2.053 2.053 0 0 1-.798.455 3.602 3.602 0 0 1-1.01.133h-.718V.709a.358.358 0 0 0-.075-.225c-.045-.061-.133-.11-.253-.156a1.948 1.948 0 0 0-.486-.099 7.592 7.592 0 0 0-.77-.03c-.306 0-.563.009-.77.03-.208.02-.369.054-.489.099a.66.66 0 0 0-.263.156.338.338 0 0 0-.077.225v14.856c0 .087.024.162.077.226a.602.602 0 0 0 .263.152c.12.037.281.07.49.09.206.022.463.031.769.031.31 0 .573-.01.77-.03.204-.02.366-.05.486-.091.12-.04.208-.091.253-.152a.338.338 0 0 0 .075-.226V9.672h.717c.364 0 .688.05.96.145.279.1.527.254.75.46.225.211.427.486.611.82.182.336.355.752.53 1.246l1.056 3.129c.042.11.088.205.146.28a.533.533 0 0 0 .274.183c.124.045.29.078.497.098.201.022.48.031.828.031.315 0 .576-.01.78-.03.207-.02.368-.05.484-.086.12-.037.2-.085.236-.145a.395.395 0 0 0 .063-.224c0-.104-.018-.236-.055-.39a5.489 5.489 0 0 0-.19-.605l-1.053-2.79c-.194-.518-.39-.96-.584-1.32a5.27 5.27 0 0 0-.613-.93 3.258 3.258 0 0 0-.68-.625 3.647 3.647 0 0 0-.792-.402v-.009c.323-.141.617-.293.879-.468a3.8 3.8 0 0 0 .746-.664c.228-.268.452-.596.663-.985.207-.39.423-.866.641-1.434l1.29-3.261c.133-.332.206-.56.232-.688.026-.125.037-.228.037-.312zm-18.62-.01c0-.08-.025-.151-.079-.213a.605.605 0 0 0-.26-.154 2.673 2.673 0 0 0-.493-.09 7.838 7.838 0 0 0-.772-.03c-.307 0-.563.009-.77.03-.207.02-.37.054-.486.09-.12.042-.203.092-.248.154a.322.322 0 0 0-.075.212V8.97c0 .315.004.624.012.928.008.306.02.576.038.807h-.026c-.065-.112-.14-.244-.23-.393l-.287-.472c-.103-.167-.21-.336-.323-.511-.116-.173-.228-.344-.34-.505L452.214.672a1.847 1.847 0 0 0-.2-.228.704.704 0 0 0-.27-.153 1.597 1.597 0 0 0-.398-.075 7.768 7.768 0 0 0-.612-.017c-.316 0-.572.009-.763.03-.194.02-.348.054-.457.09a.441.441 0 0 0-.223.157.44.44 0 0 0-.062.233v14.87a.32.32 0 0 0 .078.212.598.598 0 0 0 .266.152c.124.037.29.07.494.09.2.022.455.031.762.031.31 0 .572-.01.77-.03.203-.02.364-.054.486-.091.12-.04.206-.091.253-.152a.336.336 0 0 0 .073-.212V7.245a26.974 26.974 0 0 0-.05-1.675h.026c.142.24.315.535.526.875.212.34.432.671.654.994l5.467 8.152c.059.078.116.15.183.212a.83.83 0 0 0 .261.153c.108.036.245.065.407.081.161.018.368.027.621.027.305 0 .556-.01.745-.03.191-.02.34-.054.456-.091a.483.483 0 0 0 .236-.152.378.378 0 0 0 .067-.226V.685zm-19.765.023a.344.344 0 0 0-.078-.22.59.59 0 0 0-.262-.157 2.74 2.74 0 0 0-.484-.095 6.22 6.22 0 0 0-.758-.038c-.316 0-.577.013-.784.038a2.709 2.709 0 0 0-.485.095.59.59 0 0 0-.253.157.344.344 0 0 0-.078.22v6.352h-5.893V.71a.365.365 0 0 0-.075-.22.52.52 0 0 0-.252-.157 2.803 2.803 0 0 0-.486-.095 6.321 6.321 0 0 0-.77-.038c-.308 0-.564.013-.77.038a2.74 2.74 0 0 0-.49.095.6.6 0 0 0-.26.157.34.34 0 0 0-.08.22v14.844a.34.34 0 0 0 .08.22.612.612 0 0 0 .26.158c.12.041.282.07.49.096.206.022.462.037.77.037.311 0 .572-.015.77-.037.204-.026.365-.059.486-.096a.53.53 0 0 0 .252-.158.365.365 0 0 0 .075-.22V9.772h5.893v5.781c0 .079.024.154.078.22a.604.604 0 0 0 .253.158c.12.037.279.07.485.096.207.022.468.037.784.037.302 0 .56-.015.758-.037.202-.026.365-.055.484-.096a.602.602 0 0 0 .262-.158.344.344 0 0 0 .078-.22V.71zm-21.866 7.443c0 .824-.065 1.575-.194 2.25-.128.677-.347 1.257-.659 1.738-.31.479-.725.852-1.243 1.116-.518.263-1.165.395-1.938.395-.784 0-1.44-.148-1.962-.443a3.596 3.596 0 0 1-1.276-1.185 4.874 4.874 0 0 1-.684-1.728 10.609 10.609 0 0 1-.198-2.099c0-.856.065-1.627.194-2.31.128-.685.348-1.269.654-1.757a3.005 3.005 0 0 1 1.236-1.11c.517-.255 1.168-.383 1.952-.383.782 0 1.437.145 1.96.44.525.29.953.687 1.277 1.188.323.501.55 1.087.683 1.755.133.666.198 1.38.198 2.133zm3.358.161c0-1.301-.163-2.465-.486-3.493-.322-1.027-.802-1.901-1.446-2.615a6.212 6.212 0 0 0-2.37-1.641C418.49.187 417.401 0 416.162 0c-1.224 0-2.288.161-3.197.481-.91.319-1.67.804-2.279 1.463-.605.655-1.06 1.487-1.363 2.499-.302 1.012-.456 2.209-.456 3.592 0 1.269.162 2.413.484 3.429.326 1.015.806 1.877 1.447 2.59a6.278 6.278 0 0 0 2.37 1.637c.946.381 2.04.57 3.287.57 1.19 0 2.238-.157 3.151-.47.905-.316 1.67-.802 2.277-1.46.614-.655 1.074-1.479 1.386-2.478.31-1.002.468-2.181.468-3.54zm-23.478 2.668c0 .552-.1 1.008-.294 1.366-.195.354-.436.621-.722.792a2.486 2.486 0 0 1-.896.322 6.803 6.803 0 0 1-.973.067h-1.367V8.181h1.443c.512 0 .94.07 1.288.207.344.137.63.332.85.581.218.244.385.542.5.887.113.343.171.721.171 1.125zm3.331.234c0-.888-.136-1.667-.413-2.346a4.443 4.443 0 0 0-1.207-1.721c-.525-.467-1.173-.82-1.939-1.063-.766-.245-1.67-.366-2.71-.366h-1.314V.709a.332.332 0 0 0-.08-.22.578.578 0 0 0-.26-.157 2.434 2.434 0 0 0-.485-.095 6.352 6.352 0 0 0-.77-.038c-.307 0-.565.013-.773.038a2.746 2.746 0 0 0-.488.095.513.513 0 0 0-.252.157.358.358 0 0 0-.076.22v14.136c0 .38.1.667.3.856.2.192.46.287.782.287h3.706c.372 0 .73-.012 1.064-.04.336-.03.738-.092 1.211-.183a5.398 5.398 0 0 0 1.425-.517c.48-.25.895-.57 1.235-.953.34-.387.601-.834.78-1.352.179-.515.264-1.09.264-1.728zm-16.19 3.464c0-.236-.01-.435-.03-.606a1.614 1.614 0 0 0-.09-.397.496.496 0 0 0-.155-.223.297.297 0 0 0-.199-.076h-3.928V.71a.34.34 0 0 0-.08-.22.586.586 0 0 0-.26-.157 2.795 2.795 0 0 0-.493-.095 6.517 6.517 0 0 0-.77-.038c-.308 0-.565.013-.773.038a2.802 2.802 0 0 0-.492.095.592.592 0 0 0-.261.157.345.345 0 0 0-.079.22v12.668h-3.928a.305.305 0 0 0-.207.076.546.546 0 0 0-.145.223 1.67 1.67 0 0 0-.092.397c-.02.171-.03.37-.03.606 0 .24.01.448.03.618.02.17.053.306.092.404.041.106.09.175.145.22a.318.318 0 0 0 .207.067h11.064c.072 0 .137-.02.199-.067a.478.478 0 0 0 .154-.22c.042-.098.07-.234.091-.404.02-.17.03-.378.03-.618zM371.232.696a.346.346 0 0 0-.076-.223c-.046-.062-.134-.112-.26-.154a2.806 2.806 0 0 0-.507-.09 8.417 8.417 0 0 0-.812-.03c-.352 0-.633.009-.845.03-.216.02-.39.054-.518.099a.628.628 0 0 0-.294.183.757.757 0 0 0-.146.285l-1.264 3.503c-.177.513-.364.94-.558 1.284-.196.344-.41.625-.648.841a2.053 2.053 0 0 1-.799.455 3.611 3.611 0 0 1-1.012.133h-.716V.709a.351.351 0 0 0-.076-.225c-.045-.061-.132-.11-.25-.156a1.974 1.974 0 0 0-.487-.099 7.574 7.574 0 0 0-.77-.03c-.308 0-.565.009-.77.03-.208.02-.37.054-.49.099a.635.635 0 0 0-.26.156.34.34 0 0 0-.08.225v14.856a.34.34 0 0 0 .08.226.58.58 0 0 0 .26.152c.12.037.282.07.49.09.205.022.462.031.77.031.311 0 .572-.01.77-.03.204-.02.365-.05.486-.091a.511.511 0 0 0 .251-.152.332.332 0 0 0 .076-.226V9.672h.716c.365 0 .688.05.961.145.28.1.527.254.751.46.224.211.427.486.61.82.182.336.357.752.529 1.246l1.057 3.129c.041.11.088.205.145.28.06.079.15.141.274.183.125.045.29.078.497.098.203.022.481.031.83.031.314 0 .575-.01.78-.03.205-.02.367-.05.483-.086.12-.037.2-.085.236-.145a.394.394 0 0 0 .062-.224c0-.104-.016-.236-.054-.39a5.214 5.214 0 0 0-.19-.605l-1.052-2.79c-.195-.518-.39-.96-.584-1.32a5.346 5.346 0 0 0-.614-.93 3.258 3.258 0 0 0-.68-.625 3.647 3.647 0 0 0-.792-.402v-.009c.324-.141.618-.293.88-.468.264-.177.514-.399.744-.664.23-.268.452-.596.664-.985.207-.39.423-.866.643-1.434l1.288-3.261c.133-.332.208-.56.232-.688.027-.125.039-.228.039-.312zm-18.026.833c0-.236-.008-.43-.029-.592a1.503 1.503 0 0 0-.09-.381.512.512 0 0 0-.153-.216.326.326 0 0 0-.2-.067h-7.882a1 1 0 0 0-.672.238c-.182.157-.274.413-.274.77v13.7c0 .356.092.614.274.771a.992.992 0 0 0 .672.236h7.845c.07 0 .137-.02.195-.061a.518.518 0 0 0 .145-.212 1.81 1.81 0 0 0 .09-.39c.022-.161.03-.36.03-.605 0-.228-.008-.417-.03-.58a1.456 1.456 0 0 0-.09-.381.555.555 0 0 0-.145-.216.314.314 0 0 0-.195-.066h-5.607v-3.83h4.724c.075 0 .14-.019.2-.064a.51.51 0 0 0 .154-.208c.04-.091.068-.216.09-.378.022-.157.03-.349.03-.572 0-.236-.008-.43-.03-.584a1.492 1.492 0 0 0-.09-.368.42.42 0 0 0-.155-.2.345.345 0 0 0-.199-.062h-4.724V2.785h5.643a.318.318 0 0 0 .201-.066.507.507 0 0 0 .154-.215c.04-.095.07-.224.09-.381a4.67 4.67 0 0 0 .028-.594zM336.925.685c0-.08-.026-.15-.076-.212-.046-.062-.13-.112-.252-.154a2.652 2.652 0 0 0-.494-.09 7.772 7.772 0 0 0-.77-.03c-.316 0-.576.009-.779.03-.2.02-.365.054-.485.09-.12.042-.208.092-.254.154a.328.328 0 0 0-.073.212v12.692h-3.357a108.28 108.28 0 0 0-.696-4.865c-.234-1.383-.486-2.573-.755-3.559-.264-.99-.563-1.804-.881-2.432-.32-.636-.69-1.136-1.096-1.505a3.323 3.323 0 0 0-1.39-.759 6.91 6.91 0 0 0-1.758-.206.922.922 0 0 0-.32.049.383.383 0 0 0-.21.183.979.979 0 0 0-.117.372c-.025.161-.039.37-.039.617 0 .35.01.63.026.847.017.21.045.377.084.492.041.121.094.198.161.237a.41.41 0 0 0 .232.061c.248 0 .493.051.72.154.233.1.456.3.672.601.216.299.423.721.621 1.263.2.545.395 1.257.586 2.149.19.885.381 1.967.57 3.243.191 1.276.386 2.793.582 4.55.05.415.144.706.29.872.144.166.36.247.64.247h7.706c.293 0 .517-.081.676-.247.156-.166.236-.42.236-.76V.685zM319.14 8.251c0-1.4-.162-2.618-.482-3.651-.318-1.032-.782-1.89-1.396-2.57a5.677 5.677 0 0 0-2.246-1.525C314.13.171 313.107 0 311.95 0c-.397 0-.805.03-1.218.092-.42.057-.812.141-1.182.24-.369.099-.697.22-.982.357-.29.135-.49.26-.602.368-.116.107-.189.199-.224.27-.036.074-.069.169-.089.289a2.844 2.844 0 0 0-.059.427 8.268 8.268 0 0 0-.017.626c0 .398.039.688.108.866.075.178.179.27.32.27.095 0 .228-.062.396-.192a4.45 4.45 0 0 1 .697-.409c.291-.15.655-.285 1.098-.407.444-.124.981-.186 1.625-.186.572 0 1.093.092 1.555.274.46.182.861.46 1.196.832.336.374.602.842.797 1.402.195.56.307 1.218.34 1.968h-6.536a.314.314 0 0 0-.208.066.516.516 0 0 0-.148.215 1.643 1.643 0 0 0-.092.383c-.02.161-.03.35-.03.58 0 .228.01.421.03.585.02.16.055.288.092.384a.54.54 0 0 0 .148.207.308.308 0 0 0 .208.068h6.499a5.782 5.782 0 0 1-.403 1.748c-.21.505-.484.93-.824 1.28-.345.353-.75.613-1.23.788a4.623 4.623 0 0 1-1.585.26c-.525 0-.99-.063-1.397-.182a6.692 6.692 0 0 1-1.052-.398 5.65 5.65 0 0 1-.725-.402c-.186-.125-.323-.186-.414-.186a.224.224 0 0 0-.142.053.526.526 0 0 0-.115.183c-.03.088-.059.198-.079.348a3.91 3.91 0 0 0-.029.544c0 .244.004.45.016.62.013.17.033.306.059.418.025.108.053.204.092.279a.6.6 0 0 0 .168.223c.074.074.232.174.47.308.231.132.528.26.89.376.361.117.77.214 1.226.3.462.085.963.126 1.504.126 1.078 0 2.052-.169 2.923-.505a5.687 5.687 0 0 0 2.216-1.512c.61-.672 1.079-1.508 1.405-2.507.328-1.002.494-2.162.494-3.486zM290.202.685c0-.08-.025-.15-.079-.212a.61.61 0 0 0-.26-.154 2.652 2.652 0 0 0-.494-.09 7.772 7.772 0 0 0-.77-.03c-.309 0-.565.009-.772.03-.206.02-.369.054-.484.09-.12.042-.204.092-.249.154a.323.323 0 0 0-.076.212V8.97c0 .315.005.624.013.928.008.306.022.576.036.807h-.024c-.065-.112-.14-.244-.232-.393l-.285-.472a49.367 49.367 0 0 0-.324-.511c-.116-.173-.228-.344-.34-.505L280.405.672a1.645 1.645 0 0 0-.199-.228.704.704 0 0 0-.27-.153 1.61 1.61 0 0 0-.398-.075 7.768 7.768 0 0 0-.612-.017c-.315 0-.573.009-.763.03-.196.02-.348.054-.456.09a.44.44 0 0 0-.224.157.44.44 0 0 0-.062.233v14.87c0 .078.025.148.08.212.053.061.14.112.265.152.124.037.29.07.492.09.199.022.456.031.763.031.31 0 .572-.01.77-.03.203-.02.366-.054.486-.091a.504.504 0 0 0 .252-.152.339.339 0 0 0 .076-.212V7.245a30.425 30.425 0 0 0-.05-1.674h.023c.143.24.317.534.528.874.21.34.43.671.655.994l5.465 8.152c.059.078.117.15.183.212.065.06.153.112.261.153.108.036.244.065.405.081.162.018.37.027.622.027.308 0 .556-.01.746-.03.19-.02.34-.054.458-.091.11-.04.19-.091.234-.152a.378.378 0 0 0 .067-.226V.685zM154.045 54.555l-6.836 20.1-6.917-20.1h13.753zm36.558 23.157V63.431c1.66-.288 3.712-.291 5.292-.291 5.245 0 8.617 1.928 8.617 7.505 0 5.16-2.953 7.067-7.87 7.067h-6.04zM38.087 55.767h-7.539c-3.412 0-6.55 1.15-6.55 5.045s3.14 5.045 6.55 5.045h11.816c1.984 0 4.405-.332 5.713-2.005 1.254-1.601 1.498-4.05 1.498-6.013 0-6.814-1.651-13.386-6.306-18.534-4.756-5.26-11.085-7.317-18.078-7.317-7.536 0-13.754 2.844-18.544 8.668C1.997 46.306 0 52.977 0 60.261c0 7.371 1.957 14.203 6.805 19.84 4.972 5.784 11.462 8.36 19.046 8.36 3.6 0 7.145-.545 10.548-1.733 3.413-1.193 6.73-3.088 8.717-6.207.525-.826.79-1.74.79-2.718 0-3.164-1.635-5.008-4.85-5.008-1.073 0-2.073.284-2.96.889-1.116.763-2.255 1.57-3.405 2.277-1.118.69-2.35 1.33-3.631 1.703-1.719.537-3.597.708-5.392.708-4.51 0-7.95-1.944-10.521-5.605-2.478-3.672-3.443-7.894-3.443-12.286 0-4.438.921-8.764 3.376-12.513 2.516-3.843 5.972-5.89 10.588-5.89 2.457 0 4.799.546 6.953 1.731 2.078 1.147 3.554 2.806 4.512 4.971.776 1.75.928 4.815.954 6.987zm64.514 14.87L93.74 38.831c-.921-3.308-2.815-6.183-6.592-6.183-3.775 0-5.659 2.88-6.59 6.179l-9.005 31.842-4.406-32.389c-.191-1.399-.542-3.268-1.394-4.405-1.034-1.447-2.726-1.887-4.426-1.887-3.552 0-5.02 2.324-5.02 5.67 0 .506.153 1.298.229 1.807l.88 6.019L62.7 81.08c.303 2.039 1.221 3.779 2.765 5.144 1.551 1.37 3.386 2.017 5.451 2.017 4.025 0 6.579-2.109 7.61-5.969l8.603-32.185 8.543 32.185c1.027 3.865 3.6 5.97 7.623 5.97 2.094 0 3.973-.646 5.54-2.045 1.549-1.384 2.462-3.128 2.762-5.181l6.31-43.228c.273-1.696-.115-3.237-1.346-4.459-.993-.986-2.305-1.341-3.677-1.341-1.727 0-3.344.488-4.347 1.936-.889 1.112-1.234 2.97-1.41 4.34L102.6 70.637zm54.76-25.952h-20.45l-2.859-8.274c-.879-2.444-2.492-4.423-5.264-4.423-1.403 0-2.696.41-3.752 1.344-1.083.96-1.563 2.23-1.563 3.664 0 .997.144 1.992.494 2.93l15.632 42.053c1.329 3.576 3.668 6.482 7.745 6.482 3.975 0 6.368-2.456 7.673-6.048l15.414-42.42c.349-.964.636-2.037.636-3.07 0-1.438-.538-2.674-1.639-3.604-1.085-.915-2.368-1.331-3.785-1.331-2.958 0-4.624 2.068-5.527 4.692l-2.755 8.005zm33.242 9.343V38.647c0-3.751-1.407-6.806-5.558-6.806-4.125 0-5.412 3.194-5.412 6.855v42.177c0 4.374 2.152 6.928 6.623 6.928h10.495c4.813 0 9.574-1.041 13.426-4.066 4.043-3.176 5.674-7.615 5.674-12.684 0-9.32-4.964-14.159-13.575-15.264l12.26-13.539c1.36-1.503 2.563-3.376 2.563-5.472 0-1.401-.478-2.635-1.518-3.583-1.021-.929-2.276-1.352-3.65-1.352-2.219 0-4.067 1.546-5.416 3.158l-15.912 19.029zm46.912 2.267V38.77c0-3.756-1.387-6.855-5.559-6.855-4.119 0-5.41 3.181-5.41 6.841v42.568c0 3.663 1.266 6.916 5.41 6.916 4.157 0 5.559-3.065 5.559-6.818v-13.65l18.274 17.524c1.343 1.287 3.372 2.944 5.342 2.944 1.428 0 2.68-.506 3.696-1.509 1.018-1.003 1.532-2.255 1.532-3.681 0-2.018-1.98-4.063-3.358-5.324l-16.568-15.498L266.3 41.92c1.28-1.335 2.333-3.003 2.333-4.91 0-1.44-.525-2.694-1.588-3.667-1.044-.958-2.298-1.427-3.714-1.427-2.163 0-4.176 1.713-5.586 3.19l-20.23 21.189zm49.701 21.049V66.149h11.261c3.411 0 6.646-1.117 6.646-5.044 0-3.925-3.235-5.044-6.646-5.044h-11.261V42.96h12.581c3.578 0 6.575-1.319 6.575-5.302 0-3.982-3.328-5.081-6.77-5.081h-16.807c-1.69 0-3.687.261-4.971 1.472-1.299 1.228-1.579 3.232-1.579 4.93v41.834c0 4.263 1.955 6.99 6.404 6.99h17.026c3.53 0 6.549-1.274 6.549-5.229 0-3.988-3.113-5.229-6.647-5.229h-12.361zm49.185.221V38.831c0-3.752-1.392-6.843-5.557-6.843-4.119 0-5.41 3.184-5.41 6.843v38.734h-6.59c-3.439 0-6.695 1.123-6.695 5.082 0 4.008 3.279 5.154 6.77 5.154h24.07c3.491 0 6.771-1.146 6.771-5.154 0-3.946-3.22-5.082-6.659-5.082h-6.7z"/>
                <path fill="#FF5859" d="M416.356 77.712v-14.28c1.659-.288 3.71-.291 5.29-.291 5.246 0 8.62 1.927 8.62 7.505 0 5.159-2.955 7.066-7.874 7.066h-6.036zm58.93.293c-3.938 0-7.163-1.517-9.751-4.476-3.164-3.616-3.956-8.81-3.956-13.45 0-4.322.836-8.633 3.229-12.295 2.473-3.786 5.97-5.56 10.477-5.56 4.518 0 8.059 1.77 10.554 5.562 2.385 3.63 3.154 8.014 3.154 12.292 0 4.626-.766 9.879-3.92 13.488-2.593 2.968-5.846 4.439-9.788 4.439zm-106.723-.293v-16.48h6.55c2.434 0 4.747.577 6.598 2.216 1.822 1.614 2.45 3.825 2.45 6.208 0 5.838-3.313 8.056-8.9 8.056h-6.698zm47.793-23.683V38.648c0-3.752-1.41-6.807-5.56-6.807-4.125 0-5.412 3.195-5.412 6.856v42.176c0 4.373 2.153 6.928 6.624 6.928H422.5c4.815 0 9.578-1.04 13.428-4.065 4.043-3.176 5.674-7.616 5.674-12.686 0-9.32-4.963-14.158-13.575-15.264l12.259-13.538c1.36-1.503 2.562-3.375 2.562-5.472 0-1.4-.474-2.634-1.516-3.582-1.021-.93-2.277-1.353-3.65-1.353-2.218 0-4.067 1.545-5.415 3.157l-15.912 19.03zm84.341 6.05c0-7.273-1.845-14.114-6.58-19.737-4.873-5.786-11.317-8.353-18.832-8.353-7.522 0-13.888 2.65-18.757 8.428-4.735 5.616-6.652 12.376-6.652 19.661 0 7.275 1.841 14.112 6.577 19.736 4.892 5.81 11.306 8.427 18.832 8.427 7.534 0 14.02-2.547 18.907-8.353 4.736-5.628 6.505-12.551 6.505-19.81zm-132.134-8.935V38.758c0-3.75-1.422-6.77-5.56-6.77-4.12 0-5.41 3.184-5.41 6.842v42.055c0 4.37 2.159 6.916 6.623 6.916h12.181c5.17 0 10.063-1.313 13.95-4.837 3.896-3.531 5.37-8.283 5.37-13.455 0-3.624-.813-7.08-2.7-10.188-1.93-3.18-4.668-5.417-8.117-6.797-2.425-.971-4.992-1.38-7.596-1.38h-8.741z"/>
            </g>
        </g>
    </g>
</svg>
