<svg xmlns="http://www.w3.org/2000/svg" xmlns:xlink="http://www.w3.org/1999/xlink" width="64" height="64" viewBox="0 0 64 64">
    <defs>
        <path id="a" d="M0 64h64V0H0z"/>
    </defs>
    <g fill="none" fill-rule="evenodd" transform="matrix(1 0 0 -1 0 64)">
        <mask id="b" fill="#fff">
            <use xlink:href="#a"/>
        </mask>
        <g mask="url(#b)">
            <path fill="#FFF" fill-rule="nonzero" d="M44.667 2.666H19.333v2c0 2.933 2.4 5.333 5.334 5.333h14.666c2.934 0 5.334-2.4 5.334-5.333v-2zM29.333 46c0 1.468 1.2 2.667 2.667 2.667A2.674 2.674 0 0 0 34.667 46c0-1.466-1.2-2.666-2.667-2.666a2.675 2.675 0 0 0-2.667 2.666zm10-33.333h-6v28.267c2.267.534 4 2.666 4 5.201 0 2.932-2.4 5.333-5.333 5.333-2.933 0-5.333-2.4-5.333-5.333 0-2.535 1.733-4.535 4-5.201V12.666h-6c-4.4 0-8-3.599-8-8V1.333c0-.8.533-1.334 1.333-1.334h28c.8 0 1.333.534 1.333 1.334v3.333c0 4.401-3.6 8-8 8zM43.6 53.733a1.289 1.289 0 0 1-1.866 0 1.289 1.289 0 0 1 0-1.866c3.2-3.2 3.2-8.4 0-11.6a1.289 1.289 0 0 1 0-1.867c.533-.533 1.466-.533 1.866 0a10.784 10.784 0 0 1 0 15.333"/>
            <path fill="#FFF" fill-rule="nonzero" d="M49.867 58.4a1.289 1.289 0 0 1-1.866 0 1.287 1.287 0 0 1 0-1.867c2.798-2.8 4.266-6.533 4.266-10.4 0-3.866-1.468-7.6-4.266-10.4a1.287 1.287 0 0 1 0-1.866c.666-.534 1.333-.534 1.866 0 3.334 3.333 5.067 7.6 5.067 12.266 0 4.534-1.733 8.934-5.067 12.267"/>
            <path fill="#FFF" fill-rule="nonzero" d="M56.667 63.6a1.289 1.289 0 0 1-1.867 0 1.289 1.289 0 0 1 0-1.867c8.667-8.667 8.667-22.667 0-31.333a1.289 1.289 0 0 1 0-1.867c.667-.533 1.2-.533 1.867 0C61.333 33.2 64 39.466 64 46.133c0 6.533-2.533 12.8-7.333 17.467M22.267 51.867a1.289 1.289 0 0 1 0 1.866 1.289 1.289 0 0 1-1.867 0 10.784 10.784 0 0 1 0-15.333 1.289 1.289 0 0 1 1.867 0 1.289 1.289 0 0 1 0 1.867c-3.2 3.2-3.2 8.4 0 11.6"/>
            <path fill="#FFF" fill-rule="nonzero" d="M11.733 46c0 3.867 1.467 7.6 4.267 10.4a1.289 1.289 0 0 1 0 1.867 1.289 1.289 0 0 1-1.867 0c-3.333-3.2-5.067-7.6-5.067-12.267a17.35 17.35 0 0 1 5.067-12.267c.533-.533 1.467-.533 1.867 0a1.289 1.289 0 0 1 0 1.867c-2.8 2.8-4.267 6.533-4.267 10.4"/>
            <path fill="#FFF" fill-rule="nonzero" d="M9.2 61.733a1.289 1.289 0 0 1 0 1.867 1.289 1.289 0 0 1-1.867 0C2.533 58.933 0 52.667 0 46c0-6.667 2.533-12.8 7.333-17.6.4-.533 1.334-.533 1.867 0a1.289 1.289 0 0 1 0 1.867c-8.667 8.8-8.667 22.8 0 31.466"/>
        </g>
    </g>
</svg>
