<svg xmlns="http://www.w3.org/2000/svg" viewBox="0 0 27.8 27.8">
    <g id="icons">
        <path d="M5.73,21.08A4.26,4.26,0,0,1,8.6,19.49a3.26,3.26,0,0,0,2.88-3.71s-1.49-1.5-1.26-3c0,0-1.18-1.22-.85-2S9.9,10,10,10" style="fill:none;stroke:#555;stroke-linecap:round;stroke-linejoin:round"/>
        <path d="M21.95,21.08a4.26,4.26,0,0,0-2.88-1.59,3.26,3.26,0,0,1-2.88-3.71s1.49-1.5,1.26-3c0,0,1.18-1.22.85-2s-.53-.79-.65-.79" style="fill:none;stroke:#555;stroke-linecap:round;stroke-linejoin:round"/>
        <path d="M17.55,10s.51-4.32-3.3-4.32h-.81c-3.81,0-3.3,4.32-3.3,4.32" style="fill:none;stroke:#555;stroke-linecap:round;stroke-linejoin:round"/>
        <circle cx="13.84" cy="13.89" r="13.24" style="fill:none;stroke:#555;stroke-linecap:round;stroke-linejoin:round"/></g>
</svg>