<svg xmlns="http://www.w3.org/2000/svg" xmlns:xlink="http://www.w3.org/1999/xlink" width="16" height="16" viewBox="0 0 16 16">
    <defs>
        <path id="a" d="M0 15.537h15.829V0H0z"/>
    </defs>
    <g  fill-rule="evenodd" transform="matrix(1 0 0 -1 0 15.86)">
        <g mask="url(#b)">
            <path  d="M15.052 10.257l-4.434.668-1.987 4.138a.83.83 0 0 1-.753.474.87.87 0 0 1-.752-.474l-1.987-4.138-4.434-.668a.822.822 0 0 1-.67-.582.918.918 0 0 1 .21-.883l3.22-3.232-.753-4.547a.867.867 0 0 1 .335-.84.813.813 0 0 1 .879-.065l3.973 2.155L11.873.108A.845.845 0 0 1 12.271 0c.167 0 .355.065.502.172.25.194.376.518.334.84l-.752 4.548 3.22 3.232a.87.87 0 0 1 .21.883c-.168.324-.419.54-.733.582"/>
        </g>
    </g>
</svg>
