<svg xmlns="http://www.w3.org/2000/svg" width="25" height="14" viewBox="0 0 25 14">
    <path fill="#FFF" fill-rule="evenodd" d="M12.232 13.981h1.494s.452-.049.682-.293c.212-.225.206-.645.206-.645s-.03-1.992.9-2.283c.918-.286 2.096 1.905 3.345 2.747.944.637 1.661.474 1.661.474l3.34.003s1.746-.131.917-1.48c-.067-.11-.482-.998-2.482-2.824-2.094-1.91-1.813-1.6.709-4.903 1.536-2.013 2.15-3.24 1.957-3.766C24.78.51 23.657.595 23.657.595L19.89.594s-.279-.026-.485.095c-.202.119-.332.427-.332.427s-.595 1.584-1.389 2.91c-1.673 2.793-2.343 2.942-2.616 2.767-.637-.404-.478-1.623-.478-2.49 0-2.708.418-3.836-.813-4.129-.409-.097-.71-.162-1.755-.17-1.341-.014-2.476.002-3.12.312-.427.204-.757.665-.556.692.249.03.811.149 1.11.547.385.516.371 1.673.371 1.673s.222 3.186-.517 3.582c-.506.272-1.201-.284-2.694-2.817-.764-1.299-1.341-2.761-1.341-2.761S5.163.964 4.965.82C4.724.646 4.387.59 4.387.59L.815.593S.28.608.082.837c-.175.203-.014.625-.014.625s2.796 6.48 5.963 9.72c2.904 2.973 6.201 2.8 6.201 2.8z"/>
</svg>
