<svg version="1" xmlns="http://www.w3.org/2000/svg" width="346.667" height="346.667" viewBox="0 0 260.000000 260.000000"><path d="M44.6 1.6C28 5.6 13.3 17.5 6 32.6c-6 12.5-6 11.5-6 97.5 0 75 .1 78.9 2 86.3 4.8 18.7 18.5 33.8 37.1 40.7l6.4 2.4 81.8.3c91 .3 87.3.5 101.6-6.5 14.7-7.1 26.1-22.1 29.6-38.8 2.2-10.4 2.2-158.6 0-169-4.1-19.4-19.2-36.2-38.3-42.7C213.5.5 213.3.5 144.8.2L76-.1v160.6l26.6 15.3c14.6 8.4 27.1 15.2 27.8 15 .7-.2 12.8-6.8 26.9-14.8l25.7-14.5-.1-31.5V98.5l-26.4-15.2L130.1 68l-15.3 8.9c-8.4 4.9-15.4 8.8-15.5 8.7-.1-.1-.3-5.5-.4-12.1l-.2-12 11.9-7.2c6.5-4 13.7-8.2 15.9-9.4l4-2.1L168 64.9l37.5 22v86.5l-37 21.3c-20.3 11.6-37.7 21.2-38.5 21.2-.9.1-18-9.3-38-20.8l-36.5-20.9-.3-87.1L55 0l-2.3.1c-1.2 0-4.8.7-8.1 1.5z"/></svg>