<svg xmlns="http://www.w3.org/2000/svg" width="64" height="64" viewBox="0 0 64 64">
    <g fill="none" fill-rule="evenodd">
        <path fill="#0D0D0E" fill-rule="nonzero" d="M35.025 32.06l-4.131 17h-2.341l4.108-17h2.364zm4.973 2.403l10.393 4.486v2.438l-10.395 4.518.002-2.845 7.393-2.91-7.389-2.874-.004-2.813zm-15.999-.016v2.861l-7.39 2.81 7.39 2.926v2.826l-10.39-4.502V38.93l10.39-4.483z"/>
        <path stroke="#0D0D0E" stroke-width="1.5" d="M.75 4.75H63.25V15.404H.75zM.75 20.75H63.25V59.25H.75z"/>
        <path fill="#0D0D0E" d="M6.754 8.908H9.754V11.908H6.754zM11.754 8.908H14.754V11.908H11.754zM16.754 8.908H19.754V11.908H16.754z"/>
    </g>
</svg>
