<svg xmlns="http://www.w3.org/2000/svg" width="64" height="64" viewBox="0 0 64 64">
    <g fill="none" fill-rule="evenodd">
        <path fill="#0D0D0E" fill-rule="nonzero" d="M3.62 54.307c.684 0 1.302-.149 1.852-.446.55-.298.982-.709 1.296-1.234.314-.525.47-1.117.47-1.776s-.156-1.251-.47-1.776c-.314-.525-.746-.936-1.296-1.233-.55-.298-1.168-.447-1.853-.447s-1.302.149-1.853.447c-.55.297-.982.71-1.296 1.238-.313.528-.47 1.118-.47 1.771 0 .653.157 1.243.47 1.771.314.528.746.941 1.296 1.239.55.297 1.168.446 1.853.446zm0-1.094c-.449 0-.852-.101-1.21-.303-.359-.201-.64-.483-.845-.844-.205-.362-.307-.767-.307-1.215 0-.448.102-.853.307-1.214.205-.362.486-.643.845-.845.358-.202.761-.302 1.21-.302.447 0 .85.1 1.209.302.358.202.64.483.845.845.204.361.307.766.307 1.214 0 .448-.103.853-.307 1.215-.205.361-.487.643-.845.844-.359.202-.762.303-1.21.303zm6.191.998v-4.128h1.373v-.96H9.773v-.307c0-.55.253-.826.758-.826.237 0 .458.07.663.212l.336-.903c-.263-.185-.624-.278-1.085-.278-.583 0-1.034.158-1.354.475-.32.317-.48.75-.48 1.3v.327h-.845v.96h.845v4.128h1.2zm3.543 0v-4.128h1.372v-.96h-1.41v-.307c0-.55.252-.826.758-.826.236 0 .457.07.662.212l.336-.903c-.262-.185-.624-.278-1.085-.278-.582 0-1.033.158-1.353.475-.32.317-.48.75-.48 1.3v.327h-.845v.96h.845v4.128h1.2zm3.379 0v-7.123h-1.2v7.123h1.2zm2.179-5.971c.224 0 .408-.072.552-.216.144-.144.216-.322.216-.533 0-.198-.074-.363-.22-.494-.148-.131-.33-.197-.548-.197-.218 0-.4.069-.547.206-.147.138-.221.31-.221.514 0 .205.074.376.22.514.148.137.33.206.548.206zm.595 5.971v-5.126h-1.2v5.126h1.2zm2.775 0V51.62c0-.499.128-.881.384-1.147s.604-.398 1.046-.398c.39 0 .691.113.902.34.212.228.317.565.317 1.013v2.784h1.2v-2.937c0-.743-.195-1.303-.585-1.68-.39-.378-.91-.567-1.556-.567-.377 0-.716.061-1.017.183-.301.121-.55.3-.749.537v-.662h-1.142v5.126h1.2zm7.785.067c.442 0 .839-.07 1.19-.21.353-.142.644-.35.874-.625l-.643-.739c-.365.371-.829.557-1.392.557-.442 0-.811-.11-1.109-.331-.297-.221-.481-.52-.552-.898h4.023c.012-.154.019-.272.019-.355 0-.525-.11-.987-.331-1.387-.221-.4-.528-.71-.922-.932-.394-.22-.84-.33-1.34-.33-.505 0-.96.111-1.362.335-.404.224-.719.536-.946.936-.227.4-.34.85-.34 1.349 0 .506.116.958.35 1.358.233.4.564.712.993.936.429.224.925.336 1.488.336zm1.267-3.043h-2.908c.057-.377.219-.68.484-.907.266-.227.59-.34.975-.34.39 0 .717.114.979.345.262.23.42.531.47.902zM34.274 7.507c.684 0 1.302-.149 1.852-.446.55-.298.983-.709 1.296-1.234.314-.525.47-1.117.47-1.776s-.156-1.251-.47-1.776c-.313-.525-.745-.936-1.296-1.233-.55-.298-1.168-.447-1.852-.447-.685 0-1.303.149-1.853.447-.55.297-.983.71-1.296 1.238-.314.528-.47 1.118-.47 1.771 0 .653.156 1.243.47 1.771.313.528.745.941 1.296 1.239.55.297 1.168.446 1.853.446zm0-1.094c-.448 0-.852-.101-1.21-.303-.358-.201-.64-.483-.845-.844-.205-.362-.307-.767-.307-1.215 0-.448.102-.853.307-1.214.205-.362.487-.643.845-.845.358-.202.762-.302 1.21-.302.448 0 .85.1 1.21.302.358.202.64.483.844.845.205.361.307.766.307 1.214 0 .448-.102.853-.307 1.215-.205.361-.486.643-.845.844-.358.202-.761.303-1.21.303zm6.028.998V4.82c0-.499.128-.881.384-1.147s.605-.398 1.047-.398c.39 0 .691.113.902.34.211.228.317.565.317 1.013v2.784h1.2V4.474c0-.743-.195-1.303-.586-1.68-.39-.378-.908-.567-1.555-.567-.377 0-.717.061-1.017.183-.301.121-.55.3-.75.537v-.662h-1.142V7.41h1.2zm6.576 0V.288h-1.2v7.123h1.2zm2.18-5.971c.224 0 .408-.072.552-.216.144-.144.216-.322.216-.533 0-.198-.074-.363-.221-.494-.147-.131-.33-.197-.547-.197-.218 0-.4.069-.548.206-.147.138-.22.31-.22.514 0 .205.073.376.22.514.148.137.33.206.548.206zm.595 5.971V2.285h-1.2V7.41h1.2zm2.774 0V4.82c0-.499.128-.881.384-1.147s.605-.398 1.047-.398c.39 0 .69.113.902.34.211.228.317.565.317 1.013v2.784h1.2V4.474c0-.743-.195-1.303-.586-1.68-.39-.378-.909-.567-1.555-.567-.378 0-.717.061-1.018.183-.3.121-.55.3-.748.537v-.662h-1.143V7.41h1.2zm7.786.067c.441 0 .838-.07 1.19-.21.352-.142.643-.35.874-.625l-.643-.739c-.365.371-.83.557-1.392.557-.442 0-.812-.11-1.11-.331-.297-.221-.48-.52-.551-.898h4.022c.013-.154.02-.272.02-.355 0-.525-.111-.987-.332-1.387-.22-.4-.528-.71-.921-.932-.394-.22-.84-.33-1.34-.33-.505 0-.96.111-1.363.335-.403.224-.718.536-.945.936-.228.4-.341.85-.341 1.349 0 .506.117.958.35 1.358.234.4.565.712.994.936.429.224.925.336 1.488.336zm1.267-3.043h-2.909c.058-.377.22-.68.485-.907.266-.227.59-.34.974-.34.39 0 .717.114.98.345.262.23.419.531.47.902z"/>
        <path fill="#1A1A1A" fill-rule="nonzero" d="M26.208 58.927v1.734h-2.949v-1.734h2.949zm19.987-.156l.234-.033.347 1.707-.262.038c-.496.07-.997.12-1.503.15l-.507.021-.505.007h-.334v-1.734h.334c.555 0 1.107-.03 1.653-.088l.543-.068zm-3.663.156v1.734h-2.948v-1.734h2.948zm-4.08 0v1.734h-2.95v-1.734h2.95zm-4.082 0v1.734h-2.949v-1.734h2.949zm-4.081 0v1.734H27.34v-1.734h2.949zm19.514-1.153l.2-.084.92 1.535-.264.112c-.47.198-.95.375-1.442.53l-.496.149-.716.19-.586-1.66.266-.066c.584-.146 1.154-.326 1.707-.54l.411-.166zm3.102-1.836l.164-.131 1.394 1.23-.233.185c-.38.305-.78.592-1.198.862l-.423.263-.613.355-1.127-1.43.256-.142c.507-.282.99-.594 1.444-.933l.336-.259zm2.353-2.541l.12-.18 1.738.82-.162.242c-.258.386-.54.76-.846 1.122l-.314.358-.469.496-1.555-1.074.207-.212c.386-.394.737-.81 1.052-1.243l.229-.33zm1.328-2.916l.06-.224 1.926.36-.069.26c-.115.434-.257.863-.427 1.285l-.179.42-.287.606-1.835-.645.127-.254c.233-.467.426-.948.578-1.438l.106-.37zm2.204-3.588l.023.242c.031.336.047.671.047 1.025l-.009.406-.024.408-.062.637-1.965-.16.03-.258c.04-.343.06-.688.06-1.034l-.004-.3-.013-.288-.043-.548 1.96-.13zm-1.058-3.553l.094.201c.194.413.36.834.501 1.264l.132.433.179.689-1.941.325-.054-.227c-.089-.373-.2-.742-.335-1.102l-.142-.358-.274-.616 1.84-.609zm-2.241-3.145l.145.154c.327.347.632.708.915 1.083l.276.38.416.624-1.759.795-.116-.182c-.215-.335-.452-.661-.707-.974l-.261-.31-.478-.525 1.569-1.045zm-3.262-2.486l.184.106c.432.25.848.52 1.248.809l.394.295.61.489-1.424 1.209-.161-.134c-.324-.27-.665-.524-1.02-.762l-.358-.232-.626-.377 1.153-1.403zm-3.913-1.557l.218.059c.5.134.99.291 1.471.47l.478.187.73.312-.961 1.521-.198-.088c-.403-.18-.817-.342-1.239-.484l-.424-.136-.702-.2.627-1.641zm-4.369-.537l.249.003c.527.006 1.05.035 1.571.087l.52.06.775.112-.388 1.705-.232-.038c-.447-.071-.899-.123-1.352-.155l-.455-.025-.715-.019.027-1.73zm-13.43-.024v1.811l-.191-.052-2.76.001v-1.688l.007-.072h2.944zm4.08 0v1.802l-.172-.043-2.777.001v-1.676l.007-.084h2.943zm4.082 0v1.59l.002.17-.002.034-.158-.035-2.792.001v-1.658l.006-.002.003-.1h2.941zm4.081 0v1.556l.004.204-.004.028-.144-.029-2.806.001v-1.622l.006-.004.004-.134h2.94zm-16.324 0v1.558l.007.202h-.007v.017l-.107-.018-2.843.001v-1.696l.004-.064h2.946zm-6.845-.19l.233.034c.542.078 1.09.127 1.642.146l.554.01h.334v1.734h-.334c-.678 0-1.35-.038-2.017-.114l-.498-.065-.262-.037.348-1.707zm-3.575-1.048l.2.085c.544.23 1.106.427 1.683.59l.435.115.267.067-.586 1.657-.22-.055c-.67-.168-1.326-.375-1.962-.62L15.361 36l-.265-.112.92-1.536zm-3.065-1.882l.164.13c.44.353.91.679 1.403.976l.376.216.256.143-1.125 1.427-.186-.104c-.583-.324-1.14-.684-1.663-1.074l-.387-.3-.232-.185 1.394-1.23zm-2.31-2.59l.12.18c.297.443.63.868.998 1.272l.283.3.207.212-1.552 1.072-.147-.151c-.447-.456-.854-.938-1.22-1.441l-.265-.382-.161-.241 1.738-.82zm-1.267-2.96l.06.224c.13.495.303.981.516 1.455l.168.353.126.254-1.83.644-.099-.198c-.272-.545-.498-1.107-.675-1.68l-.124-.432-.069-.26 1.927-.36zm-2.167-3.122l.022-.242 1.964.13-.024.256c-.027.288-.04.575-.04.879 0 .231.01.462.027.691l.034.344.03.257-1.962.16-.027-.24c-.047-.4-.07-.804-.071-1.21 0-.236.006-.463.02-.688l.027-.337zm.986-3.594l.094-.2 1.845.61-.12.254c-.22.472-.4.955-.54 1.448l-.096.372-.054.227-1.935-.324.062-.26c.138-.582.325-1.153.56-1.711l.184-.416zm2.19-3.192l.145-.154 1.574 1.048-.204.216c-.377.399-.719.82-1.024 1.258l-.222.332-.117.182-1.754-.793.156-.244c.333-.52.71-1.019 1.126-1.494l.32-.351zm3.223-2.534l.184-.106 1.156 1.407-.255.147c-.5.29-.975.61-1.422.955l-.33.265-.161.134-1.42-1.206.229-.19c.498-.415 1.03-.798 1.592-1.15l.427-.256zm3.879-1.604l.218-.06.628 1.645-.267.072c-.58.157-1.145.347-1.692.571l-.407.174-.197.088-.96-1.517.264-.118c.619-.276 1.259-.514 1.916-.713l.497-.142zm4.338-.593l.25-.003.026 1.734-.251.003c-.613.006-1.222.05-1.822.127l-.45.065-.23.037-.388-1.7.264-.043c.683-.11 1.377-.179 2.076-.207l.525-.013zm12.548-.001v1.734h-2.949V12.28h2.95zm4.081 0v1.734h-2.948V12.28h2.948zm-12.243 0v1.734H23.26V12.28h2.949zm4.081 0v1.734h-2.949V12.28h2.949z"/>
        <path fill="#0D0D0E" d="M42.785 9.711L47.16 16.711 38.41 16.711z" transform="rotate(90 42.785 13.211)"/>
        <circle cx="19.889" cy="59.868" r="3.905" fill="#1A1A1A" fill-rule="nonzero"/>
    </g>
</svg>
