<svg xmlns="http://www.w3.org/2000/svg" xmlns:xlink="http://www.w3.org/1999/xlink" width="47" height="69" viewBox="0 0 47 69"><defs><path id="beuia" d="M649.812 585.751a2.802 2.802 0 0 1 3.949 0l13.7 13.63 13.743-13.672a2.817 2.817 0 0 1 3.968 0 2.782 2.782 0 0 1 0 3.948l-15.61 15.531a2.815 2.815 0 0 1-2.735.717 2.784 2.784 0 0 1-1.482-.77l-15.533-15.455a2.768 2.768 0 0 1 0-3.929zm0-18.927a2.802 2.802 0 0 1 3.949 0l13.7 13.63 13.743-13.672a2.816 2.816 0 0 1 3.968 0 2.782 2.782 0 0 1 0 3.948l-15.61 15.531a2.815 2.815 0 0 1-2.735.717 2.784 2.784 0 0 1-1.482-.77l-15.533-15.455a2.768 2.768 0 0 1 0-3.93zm0-18.927a2.802 2.802 0 0 1 3.949 0l13.7 13.63 13.743-13.672a2.816 2.816 0 0 1 3.968 0 2.782 2.782 0 0 1 0 3.948l-15.61 15.531a2.815 2.815 0 0 1-2.735.717 2.784 2.784 0 0 1-1.482-.77l-15.533-15.455a2.768 2.768 0 0 1 0-3.93z"/><path id="beuib" d="M643 612v-71h49v71zm6.812-26.249a2.768 2.768 0 0 0 0 3.929l15.533 15.454c.42.417.94.674 1.482.77.942.26 1.994.021 2.735-.716l15.61-15.53a2.782 2.782 0 0 0 0-3.95 2.817 2.817 0 0 0-3.968 0l-13.743 13.673-13.7-13.63a2.802 2.802 0 0 0-3.95 0zm0-18.927a2.768 2.768 0 0 0 0 3.929l15.533 15.454c.42.417.94.674 1.482.77.942.26 1.994.021 2.735-.716l15.61-15.53a2.782 2.782 0 0 0 0-3.95 2.816 2.816 0 0 0-3.968 0l-13.743 13.673-13.7-13.63a2.802 2.802 0 0 0-3.95 0zm0-18.927a2.768 2.768 0 0 0 0 3.929l15.533 15.454c.42.417.94.674 1.482.77.942.26 1.994.021 2.735-.716l15.61-15.53a2.782 2.782 0 0 0 0-3.95 2.816 2.816 0 0 0-3.968 0l-13.743 13.673-13.7-13.63a2.802 2.802 0 0 0-3.95 0z"/><mask id="beuif" width="2" height="2" x="-1" y="-1"><path fill="#fff" d="M649 547h37v59h-37z"/><use xlink:href="#beuia"/></mask><filter id="beuie" width="71" height="98" x="632" y="530" filterUnits="userSpaceOnUse"><feOffset dy="5" in="SourceGraphic" result="FeOffset1023Out"/><feGaussianBlur in="FeOffset1023Out" result="FeGaussianBlur1024Out" stdDeviation="2.8 2.8"/></filter><filter id="beuic" width="200%" height="200%" x="-50%" y="-50%"><feGaussianBlur in="SourceGraphic" result="FeGaussianBlur1029Out" stdDeviation="3 3"/></filter><mask id="beuid"><use fill="#fff" xlink:href="#beuia"/></mask></defs><g><g transform="translate(-644 -547)"><use fill="#4c3ca2" stroke="#4c3ca2" stroke-width="0" filter="url(#beuic)" mask="url(&quot;#beuid&quot;)" xlink:href="#beuib"/><g filter="url(#beuie)"><use fill="none" stroke-opacity=".15" stroke-width="0" mask="url(&quot;#beuif&quot;)" xlink:href="#beuia"/><use fill-opacity=".15" xlink:href="#beuia"/></g><use fill="#6154a4" xlink:href="#beuia"/><use fill="#4c3ca2" stroke="#4c3ca2" stroke-width="0" filter="url(#beuic)" mask="url(&quot;#beuid&quot;)" xlink:href="#beuib"/></g></g></svg>