<svg xmlns="http://www.w3.org/2000/svg" xmlns:xlink="http://www.w3.org/1999/xlink" width="40" height="40" viewBox="0 0 40 40"><defs><path id="1ib4a" d="M180 4635c8.837 0 16-7.163 16-16s-7.163-16-16-16-16 7.163-16 16 7.163 16 16 16zm0 4c-11.046 0-20-8.954-20-20s8.954-20 20-20 20 8.954 20 20-8.954 20-20 20z"/><path id="1ib4b" d="M175.586 4626.414l-6-6a2 2 0 1 1 2.828-2.828L177 4622.2l9.586-9.614a2 2 0 1 1 2.828 2.828l-11 11a2 2 0 0 1-2.828 0z"/></defs><g><g transform="translate(-160 -4599)"><use fill="#297f5c" xlink:href="#1ib4a"/></g><g transform="translate(-160 -4599)"><use xlink:href="#1ib4b"/></g></g></svg>