<svg xmlns="http://www.w3.org/2000/svg" xmlns:xlink="http://www.w3.org/1999/xlink" width="17" height="14" viewBox="0 0 17 14"><defs><path id="z91xa" d="M174.677 6675.081a.768.768 0 1 0 0-1.535.768.768 0 0 0 0 1.535zm-.768 1.424a2.324 2.324 0 0 1-1.414-1.414h-10.177a.773.773 0 0 1 0-1.545h10.177a2.319 2.319 0 1 1 2.96 2.96v8.63a.773.773 0 0 1-.773.774h-13.91a.773.773 0 0 1-.772-.773v-8.5a.773.773 0 0 1 1.182-.656l5.76 3.6 4.22-2.814a.773.773 0 0 1 .858 1.285l-4.636 3.091a.773.773 0 0 1-.839.013l-5-3.125v6.333h12.364z"/></defs><g><g transform="translate(-160 -6672)"><use fill="#754476" xlink:href="#z91xa"/></g></g></svg>