<svg xmlns="http://www.w3.org/2000/svg" xmlns:xlink="http://www.w3.org/1999/xlink" width="16" height="16" viewBox="0 0 16 16"><defs><path id="sgsaa" d="M171.5 6575.438l-1.225 1.225a.887.887 0 1 1-1.255-1.255l1.561-1.56c.21-.21.511-.302.802-.244l3.903.78a.887.887 0 0 1 .714.872v4.682c0 .41-.282.768-.682.863-3.01.716-7.308-.465-10.982-4.138-3.675-3.672-4.853-7.97-4.137-10.981a.887.887 0 0 1 .864-.682h4.685c.422 0 .786.299.87.714l.78 3.902a.887.887 0 0 1-.242.8l-1.096 1.096a9.306 9.306 0 0 0 1.95 2.382.887.887 0 0 1-1.164 1.34c-.192-.168-.38-.342-.56-.523a11.248 11.248 0 0 1-2.114-2.966.887.887 0 0 1 .167-1.022l1.226-1.225-.545-2.723h-3.21c-.26 2.391.837 5.692 3.78 8.633 2.944 2.942 6.245 4.041 8.635 3.782v-3.207z"/></defs><g><g transform="translate(-160 -6565)"><use fill="#754476" xlink:href="#sgsaa"/></g></g></svg>