<svg xmlns="http://www.w3.org/2000/svg" xmlns:xlink="http://www.w3.org/1999/xlink" width="16" height="18" viewBox="0 0 16 18"><defs><path id="m3vfa" d="M168 6788a1 1 0 1 0 0-2 1 1 0 0 0 0 2zm1.001-3.83a3.001 3.001 0 1 1-2 0V6780a1 1 0 0 1 .999-1c2.1-.002 4.12.783 5.644 2.243 3.144 3.014 3.144 7.92-.016 10.948l-4.95 4.546a1 1 0 0 1-1.353 0l-4.967-4.56c-3.144-3.014-3.144-7.92 0-10.934a1 1 0 0 1 1.384 1.444c-2.323 2.227-2.323 5.819-.015 8.03l4.274 3.926 4.259-3.91c2.323-2.227 2.323-5.819 0-8.046a6.07 6.07 0 0 0-3.259-1.61v3.094z"/></defs><g><g transform="translate(-160 -6779)"><use fill="#754476" xlink:href="#m3vfa"/></g></g></svg>