<svg xmlns="http://www.w3.org/2000/svg" xmlns:xlink="http://www.w3.org/1999/xlink" width="60" height="60" viewBox="0 0 60 60"><defs><path id="ftlca" d="M160 632c0-16.569 13.431-30 30-30 16.569 0 30 13.431 30 30 0 16.569-13.431 30-30 30-16.569 0-30-13.431-30-30z"/><path id="ftlcb" d="M198.569 636.857h-12V621.43h12zM200.283 618h-15.429c-1.028 0-1.714.686-1.714 1.714v18.857c0 1.029.686 1.715 1.714 1.715h15.429c1.028 0 1.714-.686 1.714-1.715v-18.857c0-1.028-.686-1.714-1.714-1.714z"/><path id="ftlcc" d="M193.429 642.003h-12v-15.429c0-1.028-.686-1.714-1.715-1.714-1.028 0-1.714.686-1.714 1.714v17.143c0 1.029.686 1.714 1.714 1.714h13.715c1.028 0 1.714-.685 1.714-1.714 0-1.028-.686-1.714-1.714-1.714z"/><path id="ftlcd" d="M190.004 626.569h5.143c1.029 0 1.714-.686 1.714-1.715 0-1.028-.685-1.714-1.714-1.714h-5.143c-1.028 0-1.714.686-1.714 1.714 0 1.029.686 1.715 1.714 1.715z"/><path id="ftlce" d="M190.004 631.719h5.143c1.029 0 1.714-.686 1.714-1.715 0-1.028-.685-1.714-1.714-1.714h-5.143c-1.028 0-1.714.686-1.714 1.714 0 1.029.686 1.715 1.714 1.715z"/></defs><g><g transform="translate(-160 -602)"><use fill="#f3f3f3" xlink:href="#ftlca"/></g><g transform="translate(-160 -602)"><g><use fill="#297f5c" xlink:href="#ftlcb"/></g><g><use fill="#297f5c" xlink:href="#ftlcc"/></g><g><use xlink:href="#ftlcd"/></g><g><use xlink:href="#ftlce"/></g></g></g></svg>