<svg xmlns="http://www.w3.org/2000/svg" xmlns:xlink="http://www.w3.org/1999/xlink" width="60" height="60" viewBox="0 0 60 60"><defs><path id="cakna" d="M1069 632c0-16.569 13.431-30 30-30 16.569 0 30 13.431 30 30 0 16.569-13.431 30-30 30-16.569 0-30-13.431-30-30z"/><path id="caknb" d="M1094.5 638h3v3h-3zm6-1.5c0-.9-.6-1.5-1.5-1.5h-6c-.9 0-1.5.6-1.5 1.5v4.5h-1.5v-18h12v18h-1.5zm4.5-6h3V641h-3zm6 12V629c0-.9-.6-1.5-1.5-1.5h-4.5v-6c0-.9-.6-1.5-1.5-1.5h-15c-.9 0-1.5.6-1.5 1.5v21c0 .9.6 1.5 1.5 1.5h21c.9 0 1.5-.6 1.5-1.5z"/><path id="caknc" d="M1097.5 632h-3c-.9 0-1.5-.6-1.5-1.5s.6-1.5 1.5-1.5h3c.9 0 1.5.6 1.5 1.5s-.6 1.5-1.5 1.5z"/><path id="caknd" d="M1097.5 627.5h-3c-.9 0-1.5-.6-1.5-1.5s.6-1.5 1.5-1.5h3c.9 0 1.5.6 1.5 1.5s-.6 1.5-1.5 1.5z"/></defs><g><g transform="translate(-1069 -602)"><use fill="#f3f3f3" xlink:href="#cakna"/></g><g transform="translate(-1069 -602)"><g><use fill="#297f5c" xlink:href="#caknb"/></g><g><use xlink:href="#caknc"/></g><g><use xlink:href="#caknd"/></g></g></g></svg>