<svg xmlns="http://www.w3.org/2000/svg" xmlns:xlink="http://www.w3.org/1999/xlink" width="60" height="60" viewBox="0 0 60 60"><defs><path id="po66a" d="M475 632c0-16.569 13.431-30 30-30 16.569 0 30 13.431 30 30 0 16.569-13.431 30-30 30-16.569 0-30-13.431-30-30z"/><path id="po66b" d="M498.25 623c-1.2 0-2.25 1.05-2.25 2.25s1.05 2.25 2.25 2.25 2.25-1.05 2.25-2.25-1.05-2.25-2.25-2.25zm0 7.5c-2.85 0-5.25-2.4-5.25-5.25s2.4-5.25 5.25-5.25 5.25 2.4 5.25 5.25-2.4 5.25-5.25 5.25z"/><path id="po66c" d="M511.75 636.5c-1.2 0-2.25 1.05-2.25 2.25s1.05 2.25 2.25 2.25 2.25-1.05 2.25-2.25-1.05-2.25-2.25-2.25zm0 7.5c-2.85 0-5.25-2.4-5.25-5.25s2.4-5.25 5.25-5.25 5.25 2.4 5.25 5.25-2.4 5.25-5.25 5.25z"/><path id="po66d" d="M494.5 644c-.45 0-.75-.15-1.05-.45-.6-.6-.6-1.5 0-2.1l21-21c.6-.6 1.5-.6 2.1 0 .6.6.6 1.5 0 2.1l-21 21c-.3.3-.6.45-1.05.45z"/></defs><g><g transform="translate(-475 -602)"><use fill="#f3f3f3" xlink:href="#po66a"/></g><g transform="translate(-475 -602)"><g><use fill="#297f5c" xlink:href="#po66b"/></g><g><use fill="#297f5c" xlink:href="#po66c"/></g><g><use xlink:href="#po66d"/></g></g></g></svg>