<svg xmlns="http://www.w3.org/2000/svg" xmlns:xlink="http://www.w3.org/1999/xlink" width="60" height="60" viewBox="0 0 60 60"><defs><path id="1jrna" d="M804 632c0-16.569 13.431-30 30-30 16.569 0 30 13.431 30 30 0 16.569-13.431 30-30 30-16.569 0-30-13.431-30-30z"/><path id="1jrnb" d="M840 636.5h-12v-3h12zM829.5 623h3v7.5h-3zm9 7.5h-3V623h3zm6 0h-3v-9c0-.9-.6-1.5-1.5-1.5h-12c-.9 0-1.5.6-1.5 1.5v9h-3c-.9 0-1.5.6-1.5 1.5s.6 1.5 1.5 1.5h1.5v9c0 .9.6 1.5 1.5 1.5s1.5-.6 1.5-1.5v-3h12v3c0 .9.6 1.5 1.5 1.5s1.5-.6 1.5-1.5v-9h1.5c.9 0 1.5-.6 1.5-1.5s-.6-1.5-1.5-1.5z"/><path id="1jrnc" d="M823.5 633.5a1.5 1.5 0 1 1 0-3h21a1.5 1.5 0 1 1 0 3z"/></defs><g><g transform="translate(-804 -602)"><use fill="#f3f3f3" xlink:href="#1jrna"/></g><g transform="translate(-804 -602)"><g><g><use fill="#297f5c" xlink:href="#1jrnb"/></g></g><g><use xlink:href="#1jrnc"/></g></g></g></svg>