<svg xmlns="http://www.w3.org/2000/svg" xmlns:xlink="http://www.w3.org/1999/xlink" width="200" height="40" viewBox="0 0 200 40"><defs><path id="zxrwa" d="M222.795 39.862c0 .649-.043 1.211-.086 1.73a6.186 6.186 0 0 1-.257 1.34c-.129.39-.258.736-.472 1.082a4.586 4.586 0 0 1-.687.908c-1.115 1.167-2.53 1.73-4.247 1.73-1.716 0-3.132-.563-4.204-1.687-.344-.39-.644-.779-.858-1.254-.215-.476-.387-.908-.472-1.34a28.84 28.84 0 0 1-.13-1.341c-.042-.562-.042-1.254-.042-2.033v-.519c0-.735.043-1.383.086-1.946a6.946 6.946 0 0 1 .257-1.47c.129-.432.258-.821.472-1.124a5.09 5.09 0 0 1 .73-.952 4.948 4.948 0 0 1 1.887-1.297c.687-.26 1.502-.389 2.403-.389.944 0 1.802.13 2.53.432.173.087.344.13.516.217.171.086.3.173.472.302.171.087.3.217.472.39.171.173.386.345.6.562l-2.531 2.551c-.215-.216-.386-.39-.558-.519-.171-.13-.343-.26-.515-.346-.171-.086-.343-.13-.471-.173-.172-.043-.344-.043-.558-.043-.644 0-1.159.216-1.502.649-.128.13-.214.302-.257.475-.043.173-.129.39-.129.562-.043.346-.086.692-.086 1.168-.043.432-.043.951-.043 1.514v.389c0 .994.043 1.73.13 2.205.085.52.214.865.428 1.124.343.433.815.65 1.502.65.643 0 1.115-.217 1.501-.606.343-.39.558-.952.558-1.644v-.216h-2.06V37.83h5.75v2.032z"/><path id="zxrwb" d="M233.184 35.238c-.214.26-.343.649-.429 1.211-.085.52-.128 1.168-.128 1.903v1.038c0 .951.043 1.686.128 2.162.086.476.215.865.43 1.124.386.433.857.692 1.458.692.3 0 .558-.043.815-.173.258-.13.472-.303.644-.519.214-.26.343-.648.429-1.124.086-.476.128-1.21.128-2.162v-1.038c0-.735-.042-1.34-.128-1.903-.086-.519-.215-.951-.43-1.21-.342-.433-.857-.65-1.458-.65-.6 0-1.115.217-1.459.65zm7.208 3.72V40.6c0 .518-.043 1.037-.129 1.556-.086.52-.257.995-.472 1.47-.214.476-.514.909-.9 1.341-1.073 1.124-2.446 1.687-4.162 1.687-1.716 0-3.132-.563-4.205-1.687a4.405 4.405 0 0 1-.9-1.297c-.215-.433-.344-.908-.472-1.384a15.337 15.337 0 0 1-.172-1.47v-2.379c0-.735.043-1.383.086-1.946a6.946 6.946 0 0 1 .257-1.47c.129-.432.258-.821.472-1.124a5.09 5.09 0 0 1 .73-.952c1.072-1.124 2.445-1.686 4.161-1.686 1.716 0 3.132.562 4.204 1.686a5.81 5.81 0 0 1 1.159 1.903c.257.735.343 1.643.343 2.725v1.383z"/><path id="zxrwc" d="M250.897 35.238c-.214.26-.343.649-.429 1.211-.085.52-.128 1.168-.128 1.903v1.038c0 .951.043 1.686.128 2.162.086.476.215.865.429 1.124.385.433.856.692 1.456.692.3 0 .557-.043.814-.173a1.9 1.9 0 0 0 .642-.519c.215-.26.343-.648.429-1.124.085-.476.128-1.21.128-2.162v-1.038c0-.735-.043-1.34-.128-1.903-.086-.519-.214-.951-.429-1.21-.342-.433-.856-.65-1.456-.65s-1.114.217-1.456.65zm7.205 3.72V40.6c0 .518-.043 1.037-.129 1.556-.086.52-.257.995-.472 1.47-.214.476-.514.909-.9 1.341-1.073 1.124-2.446 1.687-4.162 1.687-1.716 0-3.132-.563-4.205-1.687a4.405 4.405 0 0 1-.9-1.297c-.215-.433-.344-.908-.472-1.384a15.337 15.337 0 0 1-.172-1.47v-2.379c0-.735.043-1.383.086-1.946a6.946 6.946 0 0 1 .257-1.47c.129-.432.258-.821.472-1.124a5.09 5.09 0 0 1 .73-.952c1.072-1.124 2.445-1.686 4.161-1.686 1.716 0 3.132.562 4.204 1.686a5.81 5.81 0 0 1 1.159 1.903c.257.735.343 1.643.343 2.725v1.383z"/><path id="zxrwd" d="M270.163 43.239c.815 0 1.373-.303 1.759-.865.086-.173.171-.346.214-.606l.129-.778c.043-.26.043-.562.043-.822v-1.47-1.254c0-.346-.043-.605-.043-.865-.043-.216-.086-.432-.129-.562a1.757 1.757 0 0 0-.214-.39c-.386-.561-.987-.864-1.76-.864h-1.63v8.519h1.63zm.257-11.849c1.673 0 3.046.476 4.033 1.47.3.303.515.562.73.908.214.303.343.649.471 1.038.129.39.215.779.258 1.254.043.476.085.995.085 1.557v1.384c0 .821 0 1.513-.042 2.075 0 .563-.043 1.038-.13 1.384-.042.433-.214.865-.471 1.384-.257.476-.558.908-.944 1.254-.987.995-2.36 1.47-4.033 1.47H264.8V31.433h5.62z"/><path id="zxrwe" d="M288.612 37.796c.472 0 .858-.13 1.158-.434.3-.303.472-.65.472-1.084 0-.433-.172-.824-.472-1.084-.3-.303-.686-.433-1.158-.433h-2.102v3.078h2.102zm1.802 8.73l-2.66-5.623h-1.244v5.622h-3.69V31.39h5.963c.73 0 1.416.13 2.06.346.643.26 1.158.562 1.63.995.472.432.815.95 1.073 1.556a4.92 4.92 0 0 1 .386 1.946c0 1.168-.386 2.12-1.116 2.94-.171.217-.386.39-.558.52-.171.13-.429.302-.815.519l3.26 6.313h-4.29z"/><path id="zxrwf" d="M300.79 46.525V31.39H311v3.33h-6.52v2.551h5.577v3.33h-5.577v2.638H311v3.33h-10.21z"/><path id="zxrwg" d="M326.538 47.135l-4.806-7.61v7.61H318V32h3.218l4.805 7.61V32h3.69v15.135z"/><path id="zxrwh" d="M343.31 34.72v11.805h-3.69V34.72h-3.69v-3.33h11.069v3.33z"/><path id="zxrwi" d="M192.148 30L181 39h19z"/><path id="zxrwk" d="M191.777 30.478V39c0 6.467-5.267 11.734-11.734 11.734S168.308 45.467 168.308 39s5.268-11.734 11.735-11.734c2.013 0 3.897.513 5.524 1.413l6.896-5.31A19.862 19.862 0 0 0 180 19c-11.05 0-20 8.95-20 20s8.95 20 20 20 20-8.95 20-20c-4.111-4.111-8.223-8.522-8.223-8.522z"/><path id="zxrwl" d="M360 35l-12 12h12z"/><linearGradient id="zxrwj" x1="184.47" x2="193.8" y1="38.68" y2="35.31" gradientUnits="userSpaceOnUse"><stop offset=".16" stop-color="#6c376d"/><stop offset=".34" stop-color="#6a356a"/><stop offset=".47" stop-color="#632f61"/><stop offset=".57" stop-color="#572552"/><stop offset=".67" stop-color="#47173c"/><stop offset=".76" stop-color="#340623"/></linearGradient></defs><g><g transform="translate(-160 -19)"><g><g><use xlink:href="#zxrwa"/></g><g><use xlink:href="#zxrwb"/></g><g><use xlink:href="#zxrwc"/></g><g><use xlink:href="#zxrwd"/></g><g><use xlink:href="#zxrwe"/></g><g><use xlink:href="#zxrwf"/></g><g><use xlink:href="#zxrwg"/></g><g><use xlink:href="#zxrwh"/></g></g><g><use fill="url(#zxrwj)" xlink:href="#zxrwi"/></g><g><use fill="#297f5c" xlink:href="#zxrwk"/></g><g><use fill="#297f5c" xlink:href="#zxrwl"/></g></g></g></svg>