<svg xmlns="http://www.w3.org/2000/svg" xmlns:xlink="http://www.w3.org/1999/xlink" width="16" height="16" viewBox="0 0 16 16"><defs><path id="mz6da" d="M1096.8 40.667c-1 0-2-.134-2.933-.467-.4-.133-.934 0-1.2.267l-1.867 1.4c-2.2-1.134-3.533-2.534-4.667-4.667l1.4-1.867c.334-.333.4-.8.267-1.2-.267-.933-.467-1.933-.467-2.933 0-.667-.533-1.2-1.2-1.2h-2.933c-.667 0-1.2.533-1.2 1.2 0 8.133 6.667 14.8 14.8 14.8.667 0 1.2-.533 1.2-1.2v-3c0-.6-.533-1.133-1.2-1.133z"/></defs><g><g transform="translate(-1082 -30)"><use xlink:href="#mz6da"/></g></g></svg>