<svg id="Layer_1" data-name="Layer 1" xmlns="http://www.w3.org/2000/svg" xmlns:xlink="http://www.w3.org/1999/xlink" viewBox="0 0 54.09 44.86"><defs><style>.cls-1{fill:none;stroke:#bb8b50;stroke-miterlimit:10;stroke-width:0.5px;}.cls-2{fill:url(#radial-gradient);}</style><radialGradient id="radial-gradient" cx="-60.83" cy="865.26" r="47.4" gradientTransform="matrix(-1, 0.02, -0.02, -1, -26.86, 911)" gradientUnits="userSpaceOnUse"><stop offset="0.18" stop-color="#fff"/><stop offset="0.35" stop-color="#fdfdfc"/><stop offset="0.47" stop-color="#f8f6f3"/><stop offset="0.58" stop-color="#eeeae2"/><stop offset="0.68" stop-color="#e0dacc"/><stop offset="0.76" stop-color="#d2c8b4"/><stop offset="0.83" stop-color="#d0c9b8"/><stop offset="0.89" stop-color="#cacdc3"/><stop offset="0.95" stop-color="#c0d3d5"/><stop offset="1" stop-color="#b5dae9"/></radialGradient></defs><title>planet-small-item</title><path class="cls-1" d="M17,34.82C8.63,34.15,2.17,30.54.6,24.83c-2.38-8.71,7.53-19,22.14-23s28.37-.18,30.75,8.53c1.57,5.72-2.19,12.14-9.1,17"/><path class="cls-1" d="M14.49,33c-6.1-1.2-10.61-4.28-11.84-8.77-2.19-8,7-17.53,20.42-21.21s26.18-.16,28.37,7.87c1.23,4.48-1.09,9.43-5.72,13.56"/><path class="cls-1" d="M12.15,30.79c-3.83-1.43-6.56-3.86-7.45-7.08-2-7.36,6.37-16,18.71-19.43s24-.15,26,7.21c.88,3.21-.23,6.69-2.79,9.86"/><path class="cls-1" d="M10.2,28.19a8.84,8.84,0,0,1-3.76-5C4.58,16.45,12.31,8.43,23.69,5.31s22.11-.13,24,6.65a8.83,8.83,0,0,1-.72,6.19"/><path class="cls-2" d="M8.33,34.09a22.43,22.43,0,1,1,30.81,7.49A22.43,22.43,0,0,1,8.33,34.09Z"/><path class="cls-1" d="M.3,23.18C-.52,14.86,9.05,5.58,22.74,1.84c14.6-4,28.37-.18,30.75,8.53a9.81,9.81,0,0,1,.35,2.46"/><path class="cls-1" d="M2.37,22.74c-.75-7.67,8.07-16.23,20.7-19.68C36.54-.62,49.25,2.9,51.44,10.93a9,9,0,0,1,.31,1.93"/><path class="cls-1" d="M4.43,22C4,15.08,12,7.4,23.41,4.28c12.34-3.37,24-.15,26,7.21a6.91,6.91,0,0,1,.22,1.1"/></svg>