<svg width="101" height="211" viewBox="0 0 101 211" fill="none" xmlns="http://www.w3.org/2000/svg">
<path d="M100.633 0.716949H0V210.853H100.633V0.716949Z" fill="#0092E8"/>
<path d="M31.3481 0.716949H0V210.853H31.3481V0.716949Z" fill="#58C1FF"/>
<path d="M94.1718 10.7127H89.541V16.7337H94.1718V10.7127Z" fill="white"/>
<path d="M85.723 10.7127H81.0923V16.7337H85.723V10.7127Z" fill="white"/>
<path d="M77.2741 10.7127H72.6433V16.7337H77.2741V10.7127Z" fill="white"/>
<path d="M68.8248 10.7127H64.1941V16.7337H68.8248V10.7127Z" fill="white"/>
<path d="M60.3761 10.7127H55.7454V16.7337H60.3761V10.7127Z" fill="white"/>
<path d="M51.9271 10.7127H47.2964V16.7337H51.9271V10.7127Z" fill="white"/>
<path d="M43.4784 10.7127H38.8477V16.7337H43.4784V10.7127Z" fill="white"/>
<path d="M27.9901 10.7127H23.3594V16.7337H27.9901V10.7127Z" fill="white"/>
<path d="M19.5411 10.7127H14.9104V16.7337H19.5411V10.7127Z" fill="white"/>
<path d="M11.0924 10.7127H6.46167V16.7337H11.0924V10.7127Z" fill="white"/>
<path d="M94.1718 23.391H89.541V29.412H94.1718V23.391Z" fill="white"/>
<path d="M85.723 23.391H81.0923V29.412H85.723V23.391Z" fill="white"/>
<path d="M77.2741 23.391H72.6433V29.412H77.2741V23.391Z" fill="white"/>
<path d="M68.8248 23.391H64.1941V29.412H68.8248V23.391Z" fill="white"/>
<path d="M60.3761 23.391H55.7454V29.412H60.3761V23.391Z" fill="white"/>
<path d="M51.9271 23.391H47.2964V29.412H51.9271V23.391Z" fill="white"/>
<path d="M43.4784 23.391H38.8477V29.412H43.4784V23.391Z" fill="white"/>
<path d="M27.9901 23.391H23.3594V29.412H27.9901V23.391Z" fill="white"/>
<path d="M19.5411 23.391H14.9104V29.412H19.5411V23.391Z" fill="white"/>
<path d="M11.0924 23.391H6.46167V29.412H11.0924V23.391Z" fill="white"/>
<path d="M94.1718 36.0595H89.541V42.0804H94.1718V36.0595Z" fill="white"/>
<path d="M85.723 36.0595H81.0923V42.0804H85.723V36.0595Z" fill="white"/>
<path d="M77.2741 36.0595H72.6433V42.0804H77.2741V36.0595Z" fill="white"/>
<path d="M68.8248 36.0595H64.1941V42.0804H68.8248V36.0595Z" fill="white"/>
<path d="M60.3761 36.0595H55.7454V42.0804H60.3761V36.0595Z" fill="white"/>
<path d="M51.9271 36.0595H47.2964V42.0804H51.9271V36.0595Z" fill="white"/>
<path d="M43.4784 36.0595H38.8477V42.0804H43.4784V36.0595Z" fill="white"/>
<path d="M27.9901 36.0595H23.3594V42.0804H27.9901V36.0595Z" fill="white"/>
<path d="M19.5411 36.0595H14.9104V42.0804H19.5411V36.0595Z" fill="white"/>
<path d="M11.0924 36.0595H6.46167V42.0804H11.0924V36.0595Z" fill="white"/>
<path d="M94.1718 48.728H89.541V54.7489H94.1718V48.728Z" fill="white"/>
<path d="M85.723 48.728H81.0923V54.7489H85.723V48.728Z" fill="white"/>
<path d="M77.2741 48.728H72.6433V54.7489H77.2741V48.728Z" fill="white"/>
<path d="M68.8248 48.728H64.1941V54.7489H68.8248V48.728Z" fill="white"/>
<path d="M60.3761 48.728H55.7454V54.7489H60.3761V48.728Z" fill="white"/>
<path d="M51.9271 48.728H47.2964V54.7489H51.9271V48.728Z" fill="white"/>
<path d="M43.4784 48.728H38.8477V54.7489H43.4784V48.728Z" fill="white"/>
<path d="M27.9901 48.728H23.3594V54.7489H27.9901V48.728Z" fill="white"/>
<path d="M19.5411 48.728H14.9104V54.7489H19.5411V48.728Z" fill="white"/>
<path d="M11.0924 48.728H6.46167V54.7489H11.0924V48.728Z" fill="white"/>
<path d="M94.1718 61.3964H89.541V67.4174H94.1718V61.3964Z" fill="white"/>
<path d="M85.723 61.3964H81.0923V67.4174H85.723V61.3964Z" fill="white"/>
<path d="M77.2741 61.3964H72.6433V67.4174H77.2741V61.3964Z" fill="white"/>
<path d="M68.8248 61.3964H64.1941V67.4174H68.8248V61.3964Z" fill="white"/>
<path d="M60.3761 61.3964H55.7454V67.4174H60.3761V61.3964Z" fill="white"/>
<path d="M51.9271 61.3964H47.2964V67.4174H51.9271V61.3964Z" fill="white"/>
<path d="M43.4784 61.3964H38.8477V67.4174H43.4784V61.3964Z" fill="white"/>
<path d="M27.9901 61.3964H23.3594V67.4174H27.9901V61.3964Z" fill="white"/>
<path d="M19.5411 61.3964H14.9104V67.4174H19.5411V61.3964Z" fill="white"/>
<path d="M11.0924 61.3964H6.46167V67.4174H11.0924V61.3964Z" fill="white"/>
<path d="M94.1718 74.0649H89.541V80.0859H94.1718V74.0649Z" fill="white"/>
<path d="M85.723 74.0649H81.0923V80.0859H85.723V74.0649Z" fill="white"/>
<path d="M77.2741 74.0649H72.6433V80.0859H77.2741V74.0649Z" fill="white"/>
<path d="M68.8248 74.0649H64.1941V80.0859H68.8248V74.0649Z" fill="white"/>
<path d="M60.3761 74.0649H55.7454V80.0859H60.3761V74.0649Z" fill="white"/>
<path d="M51.9271 74.0649H47.2964V80.0859H51.9271V74.0649Z" fill="white"/>
<path d="M43.4784 74.0649H38.8477V80.0859H43.4784V74.0649Z" fill="white"/>
<path d="M27.9901 74.0649H23.3594V80.0859H27.9901V74.0649Z" fill="white"/>
<path d="M19.5411 74.0649H14.9104V80.0859H19.5411V74.0649Z" fill="white"/>
<path d="M11.0924 74.0649H6.46167V80.0859H11.0924V74.0649Z" fill="white"/>
<path d="M94.1718 86.7334H89.541V92.7543H94.1718V86.7334Z" fill="white"/>
<path d="M85.723 86.7334H81.0923V92.7543H85.723V86.7334Z" fill="white"/>
<path d="M77.2741 86.7334H72.6433V92.7543H77.2741V86.7334Z" fill="white"/>
<path d="M68.8248 86.7334H64.1941V92.7543H68.8248V86.7334Z" fill="white"/>
<path d="M60.3761 86.7334H55.7454V92.7543H60.3761V86.7334Z" fill="white"/>
<path d="M51.9271 86.7334H47.2964V92.7543H51.9271V86.7334Z" fill="white"/>
<path d="M43.4784 86.7334H38.8477V92.7543H43.4784V86.7334Z" fill="white"/>
<path d="M27.9901 86.7334H23.3594V92.7543H27.9901V86.7334Z" fill="white"/>
<path d="M19.5411 86.7334H14.9104V92.7543H19.5411V86.7334Z" fill="white"/>
<path d="M11.0924 86.7334H6.46167V92.7543H11.0924V86.7334Z" fill="white"/>
<path d="M94.1718 99.4019H89.541V105.423H94.1718V99.4019Z" fill="white"/>
<path d="M85.723 99.4019H81.0923V105.423H85.723V99.4019Z" fill="white"/>
<path d="M77.2741 99.4019H72.6433V105.423H77.2741V99.4019Z" fill="white"/>
<path d="M68.8248 99.4019H64.1941V105.423H68.8248V99.4019Z" fill="white"/>
<path d="M60.3761 99.4019H55.7454V105.423H60.3761V99.4019Z" fill="white"/>
<path d="M51.9271 99.4019H47.2964V105.423H51.9271V99.4019Z" fill="white"/>
<path d="M43.4784 99.4019H38.8477V105.423H43.4784V99.4019Z" fill="white"/>
<path d="M27.9901 99.4019H23.3594V105.423H27.9901V99.4019Z" fill="white"/>
<path d="M19.5411 99.4019H14.9104V105.423H19.5411V99.4019Z" fill="white"/>
<path d="M11.0924 99.4019H6.46167V105.423H11.0924V99.4019Z" fill="white"/>
<path d="M94.1718 112.08H89.541V118.101H94.1718V112.08Z" fill="white"/>
<path d="M85.723 112.08H81.0923V118.101H85.723V112.08Z" fill="white"/>
<path d="M77.2741 112.08H72.6433V118.101H77.2741V112.08Z" fill="white"/>
<path d="M68.8248 112.08H64.1941V118.101H68.8248V112.08Z" fill="white"/>
<path d="M60.3761 112.08H55.7454V118.101H60.3761V112.08Z" fill="white"/>
<path d="M51.9271 112.08H47.2964V118.101H51.9271V112.08Z" fill="white"/>
<path d="M43.4784 112.08H38.8477V118.101H43.4784V112.08Z" fill="white"/>
<path d="M27.9901 112.08H23.3594V118.101H27.9901V112.08Z" fill="white"/>
<path d="M19.5411 112.08H14.9104V118.101H19.5411V112.08Z" fill="white"/>
<path d="M11.0924 112.08H6.46167V118.101H11.0924V112.08Z" fill="white"/>
<path d="M94.1718 124.749H89.541V130.77H94.1718V124.749Z" fill="white"/>
<path d="M85.723 124.749H81.0923V130.77H85.723V124.749Z" fill="white"/>
<path d="M77.2741 124.749H72.6433V130.77H77.2741V124.749Z" fill="white"/>
<path d="M68.8248 124.749H64.1941V130.77H68.8248V124.749Z" fill="white"/>
<path d="M60.3761 124.749H55.7454V130.77H60.3761V124.749Z" fill="white"/>
<path d="M51.9271 124.749H47.2964V130.77H51.9271V124.749Z" fill="white"/>
<path d="M43.4784 124.749H38.8477V130.77H43.4784V124.749Z" fill="white"/>
<path d="M27.9901 124.749H23.3594V130.77H27.9901V124.749Z" fill="white"/>
<path d="M19.5411 124.749H14.9104V130.77H19.5411V124.749Z" fill="white"/>
<path d="M11.0924 124.749H6.46167V130.77H11.0924V124.749Z" fill="white"/>
<path d="M94.1718 137.417H89.541V143.438H94.1718V137.417Z" fill="white"/>
<path d="M85.723 137.417H81.0923V143.438H85.723V137.417Z" fill="white"/>
<path d="M77.2741 137.417H72.6433V143.438H77.2741V137.417Z" fill="white"/>
<path d="M68.8248 137.417H64.1941V143.438H68.8248V137.417Z" fill="white"/>
<path d="M60.3761 137.417H55.7454V143.438H60.3761V137.417Z" fill="white"/>
<path d="M51.9271 137.417H47.2964V143.438H51.9271V137.417Z" fill="white"/>
<path d="M43.4784 137.417H38.8477V143.438H43.4784V137.417Z" fill="white"/>
<path d="M27.9901 137.417H23.3594V143.438H27.9901V137.417Z" fill="white"/>
<path d="M19.5411 137.417H14.9104V143.438H19.5411V137.417Z" fill="white"/>
<path d="M11.0924 137.417H6.46167V143.438H11.0924V137.417Z" fill="white"/>
<path d="M94.1718 150.086H89.541V156.107H94.1718V150.086Z" fill="white"/>
<path d="M85.723 150.086H81.0923V156.107H85.723V150.086Z" fill="white"/>
<path d="M77.2741 150.086H72.6433V156.107H77.2741V150.086Z" fill="white"/>
<path d="M68.8248 150.086H64.1941V156.107H68.8248V150.086Z" fill="white"/>
<path d="M60.3761 150.086H55.7454V156.107H60.3761V150.086Z" fill="white"/>
<path d="M51.9271 150.086H47.2964V156.107H51.9271V150.086Z" fill="white"/>
<path d="M43.4784 150.086H38.8477V156.107H43.4784V150.086Z" fill="white"/>
<path d="M27.9901 150.086H23.3594V156.107H27.9901V150.086Z" fill="white"/>
<path d="M19.5411 150.086H14.9104V156.107H19.5411V150.086Z" fill="white"/>
<path d="M11.0924 150.086H6.46167V156.107H11.0924V150.086Z" fill="white"/>
<path d="M94.1718 162.754H89.541V168.775H94.1718V162.754Z" fill="white"/>
<path d="M85.723 162.754H81.0923V168.775H85.723V162.754Z" fill="white"/>
<path d="M77.2741 162.754H72.6433V168.775H77.2741V162.754Z" fill="white"/>
<path d="M68.8248 162.754H64.1941V168.775H68.8248V162.754Z" fill="white"/>
<path d="M60.3761 162.754H55.7454V168.775H60.3761V162.754Z" fill="white"/>
<path d="M51.9271 162.754H47.2964V168.775H51.9271V162.754Z" fill="white"/>
<path d="M43.4784 162.754H38.8477V168.775H43.4784V162.754Z" fill="white"/>
<path d="M27.9901 162.754H23.3594V168.775H27.9901V162.754Z" fill="white"/>
<path d="M19.5411 162.754H14.9104V168.775H19.5411V162.754Z" fill="white"/>
<path d="M11.0924 162.754H6.46167V168.775H11.0924V162.754Z" fill="white"/>
<path d="M94.1718 175.423H89.541V181.443H94.1718V175.423Z" fill="white"/>
<path d="M85.723 175.423H81.0923V181.443H85.723V175.423Z" fill="white"/>
<path d="M77.2741 175.423H72.6433V181.443H77.2741V175.423Z" fill="white"/>
<path d="M68.8248 175.423H64.1941V181.443H68.8248V175.423Z" fill="white"/>
<path d="M60.3761 175.423H55.7454V181.443H60.3761V175.423Z" fill="white"/>
<path d="M51.9271 175.423H47.2964V181.443H51.9271V175.423Z" fill="white"/>
<path d="M43.4784 175.423H38.8477V181.443H43.4784V175.423Z" fill="white"/>
<path d="M27.9901 175.423H23.3594V181.443H27.9901V175.423Z" fill="white"/>
<path d="M19.5411 175.423H14.9104V181.443H19.5411V175.423Z" fill="white"/>
<path d="M11.0924 175.423H6.46167V181.443H11.0924V175.423Z" fill="white"/>
<path d="M94.1718 188.091H89.541V194.112H94.1718V188.091Z" fill="white"/>
<path d="M85.723 188.091H81.0923V194.112H85.723V188.091Z" fill="white"/>
<path d="M77.2741 188.091H72.6433V194.112H77.2741V188.091Z" fill="white"/>
<path d="M68.8248 188.091H64.1941V194.112H68.8248V188.091Z" fill="white"/>
<path d="M60.3761 188.091H55.7454V194.112H60.3761V188.091Z" fill="white"/>
<path d="M51.9271 188.091H47.2964V194.112H51.9271V188.091Z" fill="white"/>
<path d="M43.4784 188.091H38.8477V194.112H43.4784V188.091Z" fill="white"/>
<path d="M27.9901 188.091H23.3594V194.112H27.9901V188.091Z" fill="white"/>
<path d="M19.5411 188.091H14.9104V194.112H19.5411V188.091Z" fill="white"/>
<path d="M11.0924 188.091H6.46167V194.112H11.0924V188.091Z" fill="white"/>
</svg>
