<svg width="121" height="251" viewBox="0 0 121 251" fill="none" xmlns="http://www.w3.org/2000/svg">
<path d="M120.197 0.567459H0.335449V250.853H120.197V0.567459Z" fill="#0092E8"/>
<path d="M37.6752 0.567459H0.335449V250.853H37.6752V0.567459Z" fill="#58C1FF"/>
<path d="M112.511 12.4821H106.99V40.1393H112.511V12.4821Z" fill="white"/>
<path d="M102.447 12.4821H96.9253V40.1393H102.447V12.4821Z" fill="white"/>
<path d="M92.3827 12.4821H86.8611V40.1393H92.3827V12.4821Z" fill="white"/>
<path d="M82.3183 12.4821H76.7966V40.1393H82.3183V12.4821Z" fill="white"/>
<path d="M72.2538 12.4821H66.7322V40.1393H72.2538V12.4821Z" fill="white"/>
<path d="M62.1896 12.4821H56.668V40.1393H62.1896V12.4821Z" fill="white"/>
<path d="M52.1252 12.4821H46.6035V40.1393H52.1252V12.4821Z" fill="white"/>
<path d="M33.6708 12.4821H28.1492V40.1393H33.6708V12.4821Z" fill="white"/>
<path d="M23.6164 12.4821H18.0947V40.1393H23.6164V12.4821Z" fill="white"/>
<path d="M13.5522 12.4821H8.03052V40.1393H13.5522V12.4821Z" fill="white"/>
<path d="M112.511 43.7421H106.99V71.3993H112.511V43.7421Z" fill="white"/>
<path d="M102.447 43.7421H96.9253V71.3993H102.447V43.7421Z" fill="white"/>
<path d="M92.3827 43.7421H86.8611V71.3993H92.3827V43.7421Z" fill="white"/>
<path d="M82.3183 43.7421H76.7966V71.3993H82.3183V43.7421Z" fill="white"/>
<path d="M72.2538 43.7421H66.7322V71.3993H72.2538V43.7421Z" fill="white"/>
<path d="M62.1896 43.7421H56.668V71.3993H62.1896V43.7421Z" fill="white"/>
<path d="M52.1252 43.7421H46.6035V71.3993H52.1252V43.7421Z" fill="white"/>
<path d="M33.6708 43.7421H28.1492V71.3993H33.6708V43.7421Z" fill="white"/>
<path d="M23.6164 43.7421H18.0947V71.3993H23.6164V43.7421Z" fill="white"/>
<path d="M13.5522 43.7421H8.03052V71.3993H13.5522V43.7421Z" fill="white"/>
<path d="M112.511 75.0021H106.99V102.659H112.511V75.0021Z" fill="white"/>
<path d="M102.447 75.0021H96.9253V102.659H102.447V75.0021Z" fill="white"/>
<path d="M92.3827 75.0021H86.8611V102.659H92.3827V75.0021Z" fill="white"/>
<path d="M82.3183 75.0021H76.7966V102.659H82.3183V75.0021Z" fill="white"/>
<path d="M72.2538 75.0021H66.7322V102.659H72.2538V75.0021Z" fill="white"/>
<path d="M62.1896 75.0021H56.668V102.659H62.1896V75.0021Z" fill="white"/>
<path d="M52.1252 75.0021H46.6035V102.659H52.1252V75.0021Z" fill="white"/>
<path d="M33.6708 75.0021H28.1492V102.659H33.6708V75.0021Z" fill="white"/>
<path d="M23.6164 75.0021H18.0947V102.659H23.6164V75.0021Z" fill="white"/>
<path d="M13.5522 75.0021H8.03052V102.659H13.5522V75.0021Z" fill="white"/>
<path d="M112.511 106.262H106.99V133.919H112.511V106.262Z" fill="white"/>
<path d="M102.447 106.262H96.9253V133.919H102.447V106.262Z" fill="white"/>
<path d="M92.3827 106.262H86.8611V133.919H92.3827V106.262Z" fill="white"/>
<path d="M82.3183 106.262H76.7966V133.919H82.3183V106.262Z" fill="white"/>
<path d="M72.2538 106.262H66.7322V133.919H72.2538V106.262Z" fill="white"/>
<path d="M62.1896 106.262H56.668V133.919H62.1896V106.262Z" fill="white"/>
<path d="M52.1252 106.262H46.6035V133.919H52.1252V106.262Z" fill="white"/>
<path d="M33.6708 106.262H28.1492V133.919H33.6708V106.262Z" fill="white"/>
<path d="M23.6164 106.262H18.0947V133.919H23.6164V106.262Z" fill="white"/>
<path d="M13.5522 106.262H8.03052V133.919H13.5522V106.262Z" fill="white"/>
<path d="M112.511 137.522H106.99V165.179H112.511V137.522Z" fill="white"/>
<path d="M102.447 137.522H96.9253V165.179H102.447V137.522Z" fill="white"/>
<path d="M92.3827 137.522H86.8611V165.179H92.3827V137.522Z" fill="white"/>
<path d="M82.3183 137.522H76.7966V165.179H82.3183V137.522Z" fill="white"/>
<path d="M72.2538 137.522H66.7322V165.179H72.2538V137.522Z" fill="white"/>
<path d="M62.1896 137.522H56.668V165.179H62.1896V137.522Z" fill="white"/>
<path d="M52.1252 137.522H46.6035V165.179H52.1252V137.522Z" fill="white"/>
<path d="M33.6708 137.522H28.1492V165.179H33.6708V137.522Z" fill="white"/>
<path d="M23.6164 137.522H18.0947V165.179H23.6164V137.522Z" fill="white"/>
<path d="M13.5522 137.522H8.03052V165.179H13.5522V137.522Z" fill="white"/>
<path d="M112.511 168.782H106.99V196.439H112.511V168.782Z" fill="white"/>
<path d="M102.447 168.782H96.9253V196.439H102.447V168.782Z" fill="white"/>
<path d="M92.3827 168.782H86.8611V196.439H92.3827V168.782Z" fill="white"/>
<path d="M82.3183 168.782H76.7966V196.439H82.3183V168.782Z" fill="white"/>
<path d="M72.2538 168.782H66.7322V196.439H72.2538V168.782Z" fill="white"/>
<path d="M62.1896 168.782H56.668V196.439H62.1896V168.782Z" fill="white"/>
<path d="M52.1252 168.782H46.6035V196.439H52.1252V168.782Z" fill="white"/>
<path d="M33.6708 168.782H28.1492V196.439H33.6708V168.782Z" fill="white"/>
<path d="M23.6164 168.782H18.0947V196.439H23.6164V168.782Z" fill="white"/>
<path d="M13.5522 168.782H8.03052V196.439H13.5522V168.782Z" fill="white"/>
<path d="M112.511 200.052H106.99V227.709H112.511V200.052Z" fill="white"/>
<path d="M102.447 200.052H96.9253V227.709H102.447V200.052Z" fill="white"/>
<path d="M92.3827 200.052H86.8611V227.709H92.3827V200.052Z" fill="white"/>
<path d="M82.3183 200.052H76.7966V227.709H82.3183V200.052Z" fill="white"/>
<path d="M72.2538 200.052H66.7322V227.709H72.2538V200.052Z" fill="white"/>
<path d="M62.1896 200.052H56.668V227.709H62.1896V200.052Z" fill="white"/>
<path d="M52.1252 200.052H46.6035V227.709H52.1252V200.052Z" fill="white"/>
<path d="M33.6708 200.052H28.1492V227.709H33.6708V200.052Z" fill="white"/>
<path d="M23.6164 200.052H18.0947V227.709H23.6164V200.052Z" fill="white"/>
<path d="M13.5522 200.052H8.03052V227.709H13.5522V200.052Z" fill="white"/>
</svg>
