<svg width="316" height="203" viewBox="0 0 316 203" fill="none" xmlns="http://www.w3.org/2000/svg">
<path d="M309.789 197.726H5.83318C3.59123 197.726 1.56467 198.646 0.115723 200.134C1.56467 201.622 3.59123 202.543 5.83318 202.543H309.779C312.021 202.543 314.047 201.622 315.496 200.134C314.057 198.646 312.03 197.726 309.789 197.726Z" fill="#F3F3F3"/>
<path d="M64.3982 192.86C64.3982 196.933 61.0989 200.232 57.0262 200.232H13.1467C9.07394 200.232 5.77466 196.933 5.77466 192.86V122.185C5.77466 118.112 9.07394 114.813 13.1467 114.813H57.0262C61.0989 114.813 64.3982 118.112 64.3982 122.185V192.86Z" fill="#262926"/>
<path d="M275.318 56.3753C275.318 56.3753 275.269 51.8424 281.241 51.8424C287.213 51.8424 298.608 51.8424 298.608 51.8424C298.608 51.8424 303.582 52.1165 303.582 57.8144C303.582 63.5123 303.582 63.5123 303.582 63.5123C303.582 63.5123 303.494 66.2242 298.608 67.8493C293.723 69.4745 284.305 71.785 284.305 71.785L275.318 56.3753Z" fill="black"/>
<path d="M309.857 192.86C309.857 196.933 306.558 200.232 302.485 200.232H258.606C254.533 200.232 251.234 196.933 251.234 192.86V122.185C251.234 118.112 254.533 114.813 258.606 114.813H302.485C306.558 114.813 309.857 118.112 309.857 122.185V192.86Z" fill="#262926"/>
<path d="M279.39 63.2382C279.39 63.2382 217.624 56.1795 158.237 56.1795C98.8399 56.1795 37.0737 63.2382 37.0737 63.2382C18.3451 72.4605 12.8333 104.562 12.8333 104.562L158.237 104.905L303.64 104.562C303.64 104.562 298.129 72.4605 279.39 63.2382Z" fill="black"/>
<path d="M76.9883 63.2382C77.7225 63.6689 78.4666 64.0899 79.1813 64.5403C79.847 65.0396 80.5519 65.5291 81.2176 66.0578C81.8344 66.606 82.4708 67.1543 83.068 67.7221L84.7617 69.5137L86.3183 71.3934C86.8176 72.0298 87.2778 72.6857 87.7575 73.3416C88.2372 73.9976 88.6386 74.6731 89.0889 75.3388C89.5393 76.0046 89.9211 76.6997 90.3323 77.3752C90.7435 78.0507 91.1253 78.7556 91.4973 79.4409C91.8791 80.136 92.2414 80.8311 92.584 81.536C92.9267 82.2409 93.2791 82.9458 93.5924 83.6605C93.9155 84.3752 94.2483 85.0801 94.542 85.8045C95.149 87.2437 95.7267 88.6926 96.2651 90.1514C96.8134 91.6101 97.3127 93.0688 97.7826 94.5472L96.3728 93.6073L111.841 93.3626L127.31 93.2059C132.469 93.1472 137.619 93.1178 142.778 93.108L158.247 93.059L173.715 93.108C178.875 93.1178 184.024 93.1374 189.184 93.1961L204.652 93.3528L220.121 93.5975L218.711 94.5374C219.171 93.059 219.68 91.5905 220.228 90.1318C220.767 88.673 221.344 87.2241 221.951 85.7947C222.245 85.0703 222.578 84.3654 222.901 83.6507C223.214 82.936 223.567 82.2311 223.909 81.5262C224.252 80.8213 224.614 80.1262 224.996 79.4311C225.368 78.736 225.74 78.0409 226.161 77.3556C226.572 76.6703 226.954 75.985 227.404 75.3192C227.845 74.6535 228.256 73.978 228.726 73.3221C229.206 72.6661 229.666 72.0102 230.165 71.3738L231.722 69.4941L233.416 67.7025C234.023 67.1347 234.649 66.5864 235.276 66.0382C235.932 65.5095 236.627 65.0298 237.302 64.5305C238.027 64.0801 238.781 63.6592 239.505 63.2284C238.83 63.7179 238.125 64.1878 237.469 64.6969C236.862 65.2452 236.235 65.7836 235.648 66.3417L234.003 68.1039L232.515 69.964L231.174 71.8927C230.743 72.5486 230.361 73.2241 229.94 73.8801C229.519 74.536 229.176 75.2311 228.795 75.9067C228.403 76.5822 228.09 77.2773 227.737 77.9626C227.385 78.6479 227.072 79.3528 226.758 80.0479C226.435 80.743 226.132 81.4479 225.848 82.1626C225.554 82.8675 225.251 83.5724 224.986 84.287C224.712 85.0017 224.428 85.7066 224.184 86.4311C223.674 87.8702 223.195 89.3094 222.754 90.7584C222.294 92.2073 221.922 93.666 221.521 95.1248C221.364 95.673 220.796 96.0548 220.15 96.0646H220.111L204.642 96.3094L189.174 96.466C184.014 96.5248 178.865 96.5443 173.705 96.5541L158.237 96.6031L142.768 96.5541C137.609 96.5443 132.459 96.5247 127.3 96.4562L111.831 96.2996L96.363 96.0548H96.3141C95.6483 96.0451 95.1001 95.6436 94.9533 95.115C94.5519 93.6562 94.1798 92.1975 93.7197 90.7486C93.2791 89.2996 92.7994 87.8604 92.2903 86.4213C92.0456 85.6968 91.7616 84.992 91.4875 84.2773C91.2232 83.5626 90.9197 82.8577 90.626 82.1528C90.3421 81.4381 90.0386 80.743 89.7155 80.0381C89.4022 79.343 89.0889 78.6381 88.7365 77.9528C88.3938 77.2675 88.0708 76.5626 87.6792 75.8969C87.2973 75.2213 86.9547 74.5263 86.5337 73.8703C86.1127 73.2144 85.7309 72.5389 85.3001 71.8829L83.9589 69.9543L82.4708 68.0941L80.826 66.3319C80.2386 65.7738 79.6218 65.2452 79.0149 64.6871C78.3687 64.1976 77.6638 63.7277 76.9883 63.2382Z" fill="black"/>
<path d="M76.9883 63.2382H56.3702C42.1059 71.5794 36.085 99.4814 36.085 99.4814H97.2735C97.2735 99.4814 91.2526 71.5794 76.9883 63.2382Z" fill="#262721"/>
<path d="M260.094 63.2382H239.476C225.211 71.5794 219.19 99.4814 219.19 99.4814H280.379C280.389 99.4814 274.358 71.5794 260.094 63.2382Z" fill="#383A37"/>
<path d="M271.607 99.4814H44.8665V137.516H271.607V99.4814Z" fill="#383A37"/>
<path d="M271.607 125.474H44.8665V131.162H271.607V125.474Z" fill="#474845"/>
<path d="M271.607 115.655H44.8665V121.343H271.607V115.655Z" fill="#474845"/>
<path d="M271.607 105.825H44.8665V111.513H271.607V105.825Z" fill="#474845"/>
<path d="M12.4614 136.214C12.4614 139.024 14.7425 141.305 17.5523 141.305H97.166C99.9758 141.305 102.257 139.034 102.257 136.214V104.562C102.257 101.753 99.9758 99.4716 97.166 99.4716H17.5523C14.7425 99.4716 12.4614 101.743 12.4614 104.562V136.214Z" fill="black"/>
<path d="M12.4614 124.495C12.4614 127.305 14.7425 129.586 17.5523 129.586H97.166C99.9758 129.586 102.257 127.315 102.257 124.495V104.562C102.257 101.753 99.9758 99.4716 97.166 99.4716H17.5523C14.7425 99.4716 12.4614 101.743 12.4614 104.562V124.495Z" fill="white"/>
<path d="M97.166 100.568C99.3688 100.568 101.17 102.36 101.17 104.563V124.496C101.17 126.698 99.3786 128.49 97.166 128.49H17.5523C15.3495 128.49 13.5482 126.698 13.5482 124.496V104.563C13.5482 102.36 15.3397 100.568 17.5523 100.568H97.166ZM97.166 99.4816H17.5523C14.7425 99.4816 12.4614 101.753 12.4614 104.572V124.505C12.4614 127.315 14.7425 129.596 17.5523 129.596H97.166C99.9758 129.596 102.257 127.325 102.257 124.505V104.572C102.247 101.753 99.9758 99.4816 97.166 99.4816Z" fill="black"/>
<path d="M17.5523 128.499C15.3495 128.499 13.5481 126.708 13.5481 124.505V104.572C13.5481 102.369 15.3397 100.578 17.5523 100.578H24.8264V128.509H17.5523V128.499Z" fill="white"/>
<path d="M13.5481 113.834H24.8264V128.499H17.5523C15.3495 128.499 13.5481 126.708 13.5481 124.495V113.834Z" fill="white"/>
<path d="M88.7266 106.335C89.5 106.335 90.1168 106.961 90.1168 107.725V121.333C90.1168 122.106 89.4902 122.723 88.7266 122.723C87.963 122.723 87.3364 122.097 87.3364 121.333V107.725C87.3364 106.961 87.963 106.335 88.7266 106.335Z" fill="white"/>
<path d="M75.0207 106.335C75.7941 106.335 76.4207 106.961 76.4207 107.725V121.333C76.4207 122.106 75.7941 122.723 75.0207 122.723C74.2472 122.723 73.6305 122.097 73.6305 121.333V107.725C73.6207 106.961 74.2472 106.335 75.0207 106.335Z" fill="white"/>
<path d="M81.8736 103.27C82.647 103.27 83.2638 103.897 83.2638 104.66V124.407C83.2638 125.181 82.6372 125.797 81.8736 125.797C81.1002 125.797 80.4834 125.171 80.4834 124.407V104.66C80.4834 103.887 81.1002 103.27 81.8736 103.27Z" fill="white"/>
<path d="M53.0417 106.335C53.8151 106.335 54.4319 106.961 54.4319 107.725V121.333C54.4319 122.106 53.8053 122.723 53.0417 122.723C52.2683 122.723 51.6515 122.097 51.6515 121.333V107.725C51.6417 106.961 52.2683 106.335 53.0417 106.335Z" fill="white"/>
<path d="M39.3256 106.335C40.099 106.335 40.7158 106.961 40.7158 107.725V121.333C40.7158 122.106 40.0892 122.723 39.3256 122.723C38.562 122.723 37.9354 122.097 37.9354 121.333V107.725C37.9256 106.961 38.5522 106.335 39.3256 106.335Z" fill="white"/>
<path d="M46.1788 103.27C46.9522 103.27 47.569 103.897 47.569 104.66V124.407C47.569 125.181 46.9424 125.797 46.1788 125.797C45.4151 125.797 44.7886 125.171 44.7886 124.407V104.66C44.7886 103.887 45.4151 103.27 46.1788 103.27Z" fill="white"/>
<path d="M304.012 136.214C304.012 139.024 301.731 141.305 298.922 141.305H219.308C216.498 141.305 214.217 139.034 214.217 136.214V104.562C214.217 101.753 216.498 99.4716 219.308 99.4716H298.922C301.731 99.4716 304.012 101.743 304.012 104.562V136.214Z" fill="black"/>
<path d="M304.012 124.495C304.012 127.305 301.731 129.586 298.922 129.586H219.308C216.498 129.586 214.217 127.315 214.217 124.495V104.562C214.217 101.753 216.498 99.4716 219.308 99.4716H298.922C301.731 99.4716 304.012 101.743 304.012 104.562V124.495Z" fill="white"/>
<path d="M219.308 100.568H298.922C301.124 100.568 302.926 102.36 302.926 104.563V124.495C302.926 126.698 301.134 128.49 298.922 128.49H219.308C217.105 128.49 215.304 126.698 215.304 124.495V104.563C215.304 102.36 217.095 100.568 219.308 100.568ZM219.308 99.4816C216.498 99.4816 214.217 101.753 214.217 104.572V124.505C214.217 127.315 216.498 129.596 219.308 129.596H298.922C301.731 129.596 304.012 127.325 304.012 124.505V104.572C304.012 101.763 301.731 99.4816 298.922 99.4816H219.308Z" fill="black"/>
<path d="M309.857 165.252C309.857 169.667 306.274 173.25 301.859 173.25H14.6153C10.1999 173.25 6.6167 169.667 6.6167 165.252V145.515C6.6167 141.099 10.1999 137.516 14.6153 137.516H301.849C306.274 137.516 309.848 141.099 309.848 145.515V165.252H309.857Z" fill="#383A37"/>
<path d="M40.7159 56.3753C40.7159 56.3753 40.7648 51.8424 34.7928 51.8424C28.8208 51.8424 17.4348 51.8424 17.4348 51.8424C17.4348 51.8424 12.4614 52.1165 12.4614 57.8144C12.4614 63.5123 12.4614 63.5123 12.4614 63.5123C12.4614 63.5123 12.5496 66.2242 17.4348 67.8493C22.3201 69.4745 31.7383 71.785 31.7383 71.785L40.7159 56.3753Z" fill="black"/>
<path d="M302.025 173.26V182.62C302.025 186.81 298.628 190.207 294.438 190.207H22.0359C17.8457 190.207 14.4485 186.81 14.4485 182.62V173.26H302.025Z" fill="#2D2F2D"/>
<path d="M252.076 11.6929C252.076 11.6929 242.873 0.835648 158.237 0.835648C73.6008 0.835648 64.3981 11.6929 64.3981 11.6929L37.0835 63.2382H158.237H279.4L252.076 11.6929Z" fill="black"/>
<path d="M44.2891 58.9011L67.7953 14.5517C70.3701 12.9461 86.5826 5.19226 158.237 5.19226C201.588 5.19226 224.448 8.09015 236 10.5279C244.175 12.251 247.827 14.0034 248.6 14.4244L272.175 58.9109H44.2891V58.9011Z" fill="#383A37"/>
<path opacity="0.5" d="M275.993 63.2382H158.237H40.4708C26.2065 71.5794 20.1855 99.4814 20.1855 99.4814H158.237H296.278C296.278 99.4814 290.257 71.5794 275.993 63.2382Z" stroke="#4C575D" stroke-width="0.979017" stroke-miterlimit="10"/>
<path d="M205.21 167.915C205.21 170.842 202.831 173.221 199.904 173.221H116.57C113.642 173.221 111.263 170.842 111.263 167.915V147.13C111.263 144.203 113.642 141.824 116.57 141.824H199.894C202.821 141.824 205.2 144.203 205.2 147.13V167.915H205.21Z" fill="white"/>
</svg>
