<svg width="182" height="182" viewBox="0 0 182 182" fill="none" xmlns="http://www.w3.org/2000/svg">
<g filter="url(#filter0_d)">
<rect x="16" y="10" width="150" height="150" rx="26" fill="#0092E8"/>
</g>
<g clip-path="url(#clip0)">
<path d="M119.051 62.4559C120.906 58.2311 122.223 54.3008 122.223 51.6616C122.223 42.4744 114.749 35 105.563 35C96.3753 35 88.9009 42.4744 88.9009 51.6616C88.9009 53.8915 89.8557 57.053 91.2661 60.5259L72.2909 55.7903L41 60.2687V131.121L72.1014 126.673L105.434 135L140.967 130.558V59.7153L119.051 62.4559ZM136.802 64.4339V95.6412L107.645 99.2858V83.498C109.02 81.2886 113.354 74.1906 116.956 66.9156L136.802 64.4339ZM74.3384 95.9989L103.48 103.272V130.217L74.3499 122.941L74.3384 95.9989ZM105.563 39.1652C112.453 39.1652 118.058 44.771 118.058 51.6616C118.058 54.259 116.192 58.958 113.748 63.9819L113.702 64.078C110.965 69.706 107.582 75.5325 105.563 78.9022C103.378 75.2566 99.5991 68.7334 96.7597 62.6872L96.4171 61.9585C94.4631 57.723 93.0661 53.9066 93.0661 51.6616C93.0661 44.771 98.6719 39.1652 105.563 39.1652ZM103.48 83.498V98.978L74.3366 91.7056L74.3232 60.5899L93.4078 65.3531C97.1299 73.1451 102.005 81.1302 103.48 83.498ZM70.1581 60.3025L70.1714 91.4983L45.1652 95.0779V63.8804L70.1581 60.3025ZM45.1652 99.285L70.1732 95.7062L70.1839 122.74L45.1652 126.317V99.285ZM107.645 130.525V103.484L136.802 99.8384V126.881L107.645 130.525Z" fill="white"/>
<path d="M105.331 59.6616C109.925 59.6616 113.662 55.9244 113.662 51.3313C113.662 46.7372 109.925 43 105.331 43C100.736 43 97 46.7372 97 51.3313C97 55.9244 100.736 59.6616 105.331 59.6616ZM105.331 47.1652C107.627 47.1652 109.496 49.0338 109.496 51.3313C109.496 53.6278 107.627 55.4964 105.331 55.4964C103.035 55.4964 101.166 53.6278 101.166 51.3313C101.166 49.0338 103.035 47.1652 105.331 47.1652Z" fill="white"/>
</g>
<defs>
<filter id="filter0_d" x="0" y="0" width="182" height="182" filterUnits="userSpaceOnUse" color-interpolation-filters="sRGB">
<feFlood flood-opacity="0" result="BackgroundImageFix"/>
<feColorMatrix in="SourceAlpha" type="matrix" values="0 0 0 0 0 0 0 0 0 0 0 0 0 0 0 0 0 0 127 0"/>
<feOffset dy="6"/>
<feGaussianBlur stdDeviation="8"/>
<feColorMatrix type="matrix" values="0 0 0 0 0 0 0 0 0 0.572549 0 0 0 0 0.909804 0 0 0 0.44 0"/>
<feBlend mode="normal" in2="BackgroundImageFix" result="effect1_dropShadow"/>
<feBlend mode="normal" in="SourceGraphic" in2="effect1_dropShadow" result="shape"/>
</filter>
<clipPath id="clip0">
<rect x="41" y="35" width="100" height="100" fill="white"/>
</clipPath>
</defs>
</svg>
