<svg width="182" height="182" viewBox="0 0 182 182" fill="none" xmlns="http://www.w3.org/2000/svg">
<g filter="url(#filter0_d)">
<rect x="16" y="10" width="150" height="150" rx="26" fill="#0092E8"/>
</g>
<path d="M125.861 64.0527C126.939 64.0527 127.814 63.1783 127.814 62.0996V40.8594C127.814 37.6285 125.185 35 121.954 35H50.8606C47.6297 35 45.0012 37.6285 45.0012 40.8594V129.141C45.0012 132.371 47.6297 135 50.8606 135H121.954C125.185 135 127.814 132.371 127.814 129.141V114.752C127.814 113.673 126.939 112.798 125.861 112.798C124.782 112.798 123.907 113.673 123.907 114.752V129.141C123.907 130.218 123.031 131.094 121.954 131.094H50.8606C49.7836 131.094 48.9075 130.218 48.9075 129.141V40.8594C48.9075 39.7824 49.7836 38.9062 50.8606 38.9062H121.954C123.031 38.9062 123.907 39.7824 123.907 40.8594V62.0996C123.907 63.1783 124.782 64.0527 125.861 64.0527Z" fill="white"/>
<path d="M96.9546 120.547H86.4077C85.3292 120.547 84.4546 121.421 84.4546 122.5C84.4546 123.579 85.3292 124.453 86.4077 124.453H96.9546C98.0331 124.453 98.9077 123.579 98.9077 122.5C98.9077 121.421 98.0331 120.547 96.9546 120.547Z" fill="white"/>
<path d="M96.9546 109.609H69.2202C68.1417 109.609 67.2671 110.484 67.2671 111.562C67.2671 112.641 68.1417 113.516 69.2202 113.516H96.9546C98.0331 113.516 98.9077 112.641 98.9077 111.562C98.9077 110.484 98.0331 109.609 96.9546 109.609Z" fill="white"/>
<path d="M96.9546 98.6719H69.2202C68.1417 98.6719 67.2671 99.5463 67.2671 100.625C67.2671 101.704 68.1417 102.578 69.2202 102.578H96.9546C98.0331 102.578 98.9077 101.704 98.9077 100.625C98.9077 99.5463 98.0331 98.6719 96.9546 98.6719Z" fill="white"/>
<path d="M62.2591 88.3066C61.896 87.9434 61.3921 87.7344 60.8765 87.7344C60.3626 87.7344 59.8587 87.9434 59.4956 88.3066C59.1323 88.6699 58.9233 89.1738 58.9233 89.6875C58.9233 90.2012 59.1321 90.7051 59.4956 91.0684C59.8608 91.4316 60.3626 91.6406 60.8765 91.6406C61.3921 91.6406 61.894 91.4316 62.2591 91.0684C62.6224 90.7051 62.8315 90.2012 62.8315 89.6875C62.8315 89.1738 62.6226 88.6699 62.2591 88.3066Z" fill="white"/>
<path d="M62.2591 99.2441C61.894 98.8809 61.3921 98.6719 60.8765 98.6719C60.3626 98.6719 59.8608 98.8809 59.4956 99.2441C59.1323 99.6074 58.9233 100.111 58.9233 100.625C58.9233 101.139 59.1321 101.643 59.4956 102.006C59.8608 102.369 60.3626 102.578 60.8765 102.578C61.3921 102.578 61.894 102.369 62.2591 102.006C62.6224 101.643 62.8315 101.139 62.8315 100.625C62.8315 100.111 62.6226 99.6074 62.2591 99.2441Z" fill="white"/>
<path d="M62.2591 110.182C61.894 109.818 61.3921 109.609 60.8765 109.609C60.3626 109.609 59.8608 109.818 59.4956 110.182C59.1323 110.545 58.9233 111.049 58.9233 111.562C58.9233 112.076 59.1321 112.58 59.4956 112.943C59.8587 113.307 60.3626 113.516 60.8765 113.516C61.3921 113.516 61.896 113.307 62.2591 112.943C62.6224 112.58 62.8315 112.076 62.8315 111.562C62.8315 111.049 62.6226 110.545 62.2591 110.182Z" fill="white"/>
<path d="M96.9546 87.7344H69.2202C68.1417 87.7344 67.2671 88.6088 67.2671 89.6875C67.2671 90.7662 68.1417 91.6406 69.2202 91.6406H96.9546C98.0331 91.6406 98.9077 90.7662 98.9077 89.6875C98.9077 88.6088 98.0331 87.7344 96.9546 87.7344Z" fill="white"/>
<path d="M140.899 60.4531C139.001 59.3576 136.791 59.0666 134.674 59.6336C132.558 60.2007 130.788 61.5582 129.693 63.4556L105.115 106.027C104.98 106.26 104.895 106.519 104.865 106.786L103.135 122.283C103.049 123.054 103.427 123.803 104.099 124.192C104.403 124.367 104.74 124.453 105.076 124.453C105.484 124.453 105.891 124.325 106.234 124.073L118.79 114.826C119.007 114.666 119.188 114.463 119.323 114.23L143.901 71.6589C146.163 67.7418 144.816 62.7148 140.899 60.4531ZM107.512 118.28L108.416 110.188L114.068 113.452L107.512 118.28ZM116.917 110.585L109.474 106.288L129.198 72.1261L136.64 76.423L116.917 110.585ZM140.518 69.7056L138.593 73.0402L131.151 68.7433L133.076 65.4088C133.65 64.4148 134.576 63.7039 135.685 63.4068C136.794 63.1095 137.952 63.2623 138.945 63.8361C139.939 64.4099 140.65 65.3365 140.947 66.4451C141.244 67.5537 141.092 68.7117 140.518 69.7056Z" fill="white"/>
<path d="M71.7985 62.427C70.2032 62.427 68.9109 63.7199 68.9109 65.3147C68.9109 66.9094 70.2032 68.2023 71.7985 68.2023C73.3933 68.2023 74.6862 66.9094 74.6862 65.3147C74.6844 63.7205 73.3927 62.4288 71.7985 62.427ZM71.7985 66.0217C71.4079 66.0217 71.0915 65.7047 71.0915 65.3147C71.0915 64.924 71.4079 64.6076 71.7985 64.6076C72.1886 64.6076 72.5055 64.924 72.5055 65.3147C72.5049 65.7047 72.1886 66.0204 71.7985 66.0211V66.0217Z" fill="white"/>
<path d="M99.9443 62.427C98.3496 62.427 97.0566 63.7199 97.0566 65.3147C97.0566 66.9094 98.3496 68.2023 99.9443 68.2023C101.539 68.2023 102.832 66.9094 102.832 65.3147C102.83 63.7205 101.538 62.4288 99.9443 62.427ZM99.9443 66.0217C99.5537 66.0217 99.2373 65.7047 99.2373 65.3147C99.2373 64.924 99.5537 64.6076 99.9443 64.6076C100.335 64.6076 100.651 64.924 100.651 65.3147C100.651 65.7047 100.334 66.0204 99.9443 66.0211V66.0217Z" fill="white"/>
<path d="M65.3672 62.3385L66.3778 70.3206C66.4125 71.5192 67.1992 72.5663 68.3412 72.9326V75.1364C68.3425 76.217 69.218 77.0925 70.2986 77.0937H72.9313C74.0119 77.0925 74.8874 76.217 74.8887 75.1364V73.0677H96.8533V75.1364C96.8545 76.217 97.7301 77.0925 98.8107 77.0937H101.443C102.523 77.0925 103.399 76.217 103.4 75.1364V72.9162C104.518 72.5371 105.284 71.5034 105.32 70.3236L106.374 62.344C106.38 62.2971 106.384 62.249 106.384 62.201C106.389 61.1313 106.027 60.0921 105.358 59.2573C105.842 59.0626 106.12 58.5516 106.021 58.0393C105.922 57.5263 105.474 57.1558 104.952 57.1558L102.568 57.157L99.7824 52.0224C98.7371 50.1496 97.2014 48 94.5753 48H77.3127C75.1862 48 73.3159 49.4329 72.0442 52.037L69.1584 57.1509L66.7891 57.1558C66.275 57.1582 65.832 57.5196 65.7274 58.0228C65.6221 58.526 65.8825 59.0347 66.3529 59.2427C65.6982 60.0885 65.3483 61.1307 65.3599 62.2004C65.3593 62.2466 65.3617 62.2922 65.3672 62.3385ZM72.7086 74.9125H70.5219V73.0677H72.7086V74.9125ZM99.034 74.9125V73.0677H101.22V74.9125H99.034ZM103.149 70.0997C103.143 70.1472 103.14 70.1947 103.14 70.2427C103.135 70.5962 102.85 70.8816 102.496 70.8864H69.201C68.8475 70.8816 68.5621 70.5962 68.5572 70.2427C68.5572 70.1971 68.5542 70.1515 68.5487 70.1058L67.5399 62.1371C67.5673 60.7821 68.4629 59.9528 69.3683 59.8834C69.4048 59.8877 69.4419 59.8901 69.4784 59.8907H102.213C103.418 59.8907 104.173 61.0431 104.202 62.1347L103.149 70.0997ZM91.5611 57.7101C91.9517 56.781 92.8614 56.1768 93.8689 56.1768C94.8771 56.1768 95.7867 56.781 96.1774 57.7101H91.5611ZM73.959 53.0793C73.9705 53.0598 73.9809 53.0397 73.99 53.019C74.5041 51.9585 75.62 50.18 77.3121 50.18H94.5753C95.7545 50.18 96.742 51.0489 97.8713 53.0738L100.387 57.7107H98.4535C97.9942 55.5453 96.083 53.9968 93.8702 53.9968C91.6566 53.9968 89.7455 55.5453 89.2868 57.7107H71.3457L73.959 53.0793Z" fill="white"/>
<path d="M94.6533 63.9758C94.1994 62.6409 92.7385 61.595 91.3288 61.595H80.3689C78.9531 61.595 77.4995 62.6488 77.0596 63.9953L76.5108 65.6764C76.4025 66.0086 76.4597 66.3724 76.6648 66.6548C76.8698 66.9377 77.1984 67.105 77.5476 67.105H94.1951C94.5468 67.105 94.8766 66.9352 95.0816 66.6499C95.286 66.3639 95.3408 65.9964 95.2276 65.6636L94.6533 63.9758ZM79.0504 64.9244L79.1332 64.6718C79.3455 64.1662 79.8219 63.8206 80.3689 63.7756H91.3288C91.883 63.8219 92.3668 64.1687 92.5888 64.6785L92.6728 64.925L79.0504 64.9244Z" fill="white"/>
<defs>
<filter id="filter0_d" x="0" y="0" width="182" height="182" filterUnits="userSpaceOnUse" color-interpolation-filters="sRGB">
<feFlood flood-opacity="0" result="BackgroundImageFix"/>
<feColorMatrix in="SourceAlpha" type="matrix" values="0 0 0 0 0 0 0 0 0 0 0 0 0 0 0 0 0 0 127 0"/>
<feOffset dy="6"/>
<feGaussianBlur stdDeviation="8"/>
<feColorMatrix type="matrix" values="0 0 0 0 0 0 0 0 0 0.572549 0 0 0 0 0.909804 0 0 0 0.44 0"/>
<feBlend mode="normal" in2="BackgroundImageFix" result="effect1_dropShadow"/>
<feBlend mode="normal" in="SourceGraphic" in2="effect1_dropShadow" result="shape"/>
</filter>
</defs>
</svg>
