<svg width="69" height="69" viewBox="0 0 69 69" fill="none" xmlns="http://www.w3.org/2000/svg">
<rect width="69" height="69" rx="12" fill="#0092E8"/>
<g clip-path="url(#clip0)">
<path d="M33.8048 24.171C33.4768 24.171 33.0745 24.1231 32.799 23.8161C32.7033 23.7083 32.6194 23.6076 32.538 23.5236C31.8819 22.8331 30.7516 23.7922 31.4365 24.6888L31.6017 24.9022C31.7094 25.0366 31.9034 25.1923 32.1812 25.3698C32.4519 25.5423 32.7535 25.667 33.0888 25.7413V26.9259C33.0888 27.3334 33.4215 27.6691 33.8288 27.6691C34.2383 27.6691 34.5855 27.3334 34.5855 26.9259V25.7342C35.1219 25.6097 35.5817 25.3482 35.9576 24.9527C36.3359 24.5569 36.5251 24.0319 36.5251 23.3774C36.5251 22.9314 36.439 22.5599 36.2665 22.26C36.0941 21.9627 35.8834 21.7542 35.6319 21.6366C35.3781 21.5191 35.1027 21.416 34.7985 21.3274C34.4969 21.2387 34.2215 21.1763 33.9676 21.138C33.7162 21.1019 33.5055 21.0251 33.333 20.9126C33.1606 20.7974 33.0744 20.6488 33.0744 20.4641C33.0744 19.5818 34.3675 19.6897 34.9374 20.1692C35.778 20.8766 36.719 19.5818 35.7444 18.8506L35.6318 18.7498C35.5552 18.69 35.4211 18.6156 35.2271 18.522C35.0355 18.4287 34.82 18.359 34.5854 18.3086V17.5918V17.2802C34.5854 16.8725 34.2525 16.5369 33.8431 16.5369C33.4359 16.5369 33.1007 16.8724 33.1007 17.2802V18.2967C32.5547 18.4046 32.1021 18.6757 31.7885 19.0759C31.4723 19.4836 31.3119 19.9344 31.3119 20.4377C31.3119 20.9437 31.4293 21.3585 31.6639 21.687C31.8986 22.0153 32.1836 22.2456 32.5212 22.3799C32.8565 22.5142 33.1917 22.6221 33.5269 22.7011C33.8646 22.7827 34.1496 22.8713 34.3842 22.9745C34.6189 23.0752 34.7362 23.2167 34.7362 23.4013C34.7363 23.9144 34.4251 24.171 33.8048 24.171Z" fill="white"/>
<path d="M55.1122 37.2587L48.2114 28.4195C47.7465 27.8226 47.0418 27.4802 46.278 27.4802C45.7389 27.4802 45.2285 27.6513 44.8002 27.9763L40.2839 31.419C39.767 31.8129 39.4368 32.3847 39.3539 33.0289C39.3416 33.1249 39.3357 33.2206 39.3347 33.3158C37.613 33.1854 35.8347 33.3165 34.1078 34.439L34.0303 34.4893L29.6616 33.8213C29.6705 33.67 29.6657 33.5169 29.6458 33.3633C29.5625 32.7206 29.2327 32.1502 28.7168 31.7568L24.1995 28.3173C23.1411 27.508 21.6108 27.7046 20.7879 28.7567L19.1428 30.8643C18.8549 31.233 18.9205 31.7652 19.2892 32.053C19.658 32.3409 20.1902 32.2752 20.478 31.9065L22.1226 29.7997C22.3715 29.4814 22.8514 29.4187 23.1719 29.6639L27.6903 33.1042C27.8433 33.2208 27.9412 33.3902 27.9659 33.5811C27.9907 33.7724 27.939 33.9617 27.8211 34.1131L20.919 42.9537C20.6717 43.2713 20.1912 43.3333 19.8712 43.0907L15.3548 39.6477C15.201 39.5304 15.1026 39.3604 15.078 39.1692C15.0536 38.9789 15.1052 38.7909 15.2241 38.639L16.3975 37.1358C16.6853 36.7671 16.6197 36.2349 16.2509 35.9471C15.8822 35.6592 15.35 35.7249 15.0621 36.0936L13.8894 37.596C13.4899 38.1067 13.3153 38.7421 13.398 39.385C13.4807 40.0291 13.8111 40.6009 14.3279 40.9948L18.8458 44.439C19.2855 44.7725 19.8051 44.9338 20.3213 44.9337C20.6199 44.9337 20.9169 44.8789 21.197 44.7731L21.7817 45.5739C21.4639 46.1536 21.4144 46.85 21.6698 47.5221C22.0349 48.4831 22.8963 49.1346 23.8283 49.1656C23.8571 49.3025 23.8972 49.4393 23.9519 49.5748C24.3275 50.5056 25.1854 51.1392 26.1071 51.1808C26.1113 51.205 26.1145 51.2293 26.1194 51.2535C26.2948 52.1057 26.9486 52.8336 27.785 53.1078C27.9981 53.1776 28.2129 53.2135 28.4256 53.2198C28.5071 53.563 28.6774 53.8944 28.9392 54.1853C29.3473 54.6389 29.9431 54.9291 30.5966 54.929C31.0712 54.929 31.5764 54.775 32.0619 54.4201L33.0209 55.3165C33.5095 55.7724 34.1244 56 34.7335 56C35.3512 55.9999 35.9628 55.7658 36.4299 55.2983C36.7084 55.0196 36.9241 54.6879 37.0637 54.3388C37.3017 54.4111 37.5342 54.4454 37.7572 54.4454C38.3854 54.4453 38.9396 54.1801 39.3368 53.771C39.6617 53.4363 39.8944 52.9908 39.9973 52.5158C40.0316 52.5176 40.066 52.519 40.1005 52.5194C40.109 52.5194 40.1173 52.5194 40.1258 52.5194C40.7938 52.5194 41.4347 52.2607 41.8874 51.8073C42.2045 51.4899 42.4227 51.0991 42.5269 50.6725C42.6885 50.704 42.8507 50.7204 43.0126 50.7204C43.2165 50.7204 43.4198 50.6951 43.6201 50.6438C44.4368 50.4345 45.0675 49.7963 45.2659 48.978C45.4491 48.223 45.2604 47.4276 44.7467 46.7046C46.0768 45.6345 46.6148 45.1073 47.2224 44.1217C47.6375 44.427 48.1427 44.5952 48.6767 44.5952C48.6768 44.5952 48.6768 44.5952 48.6769 44.5952C49.2176 44.5952 49.7288 44.4228 50.1539 44.0977L54.673 40.6568C55.1885 40.2639 55.5183 39.6935 55.6016 39.0508C55.685 38.4075 55.5114 37.7713 55.1122 37.2587ZM24.2714 47.2981C24.1416 47.4153 24.0158 47.4748 23.8973 47.4748C23.6541 47.4748 23.3712 47.2315 23.2531 46.9206C23.146 46.6384 23.1959 46.4025 23.4022 46.2194L23.4049 46.217C23.4057 46.2163 23.4067 46.2154 23.4075 46.2147L26.2608 43.6786C26.4995 43.4669 26.7397 43.3549 26.9556 43.3549C27.2715 43.3549 27.5078 43.5948 27.5935 43.8179C27.6852 44.0562 27.6301 44.2687 27.4305 44.4492L26.9332 44.8978C26.9327 44.8982 26.9322 44.8985 26.9318 44.899C26.9294 44.9011 26.927 44.9032 26.9246 44.9054C26.9068 44.9215 26.8884 44.9382 26.8703 44.9546L24.2714 47.2981ZM26.5777 49.3223C26.4491 49.436 26.3265 49.4911 26.2032 49.4911C25.9462 49.4911 25.6473 49.2494 25.5227 48.9408C25.3855 48.6008 25.5483 48.4439 25.5998 48.3941C25.6329 48.3624 25.6726 48.3243 25.714 48.28C25.7143 48.2797 25.7145 48.2795 25.7148 48.2793L25.7235 48.2716C25.8865 48.1261 27.3212 46.8298 28.0066 46.2104L28.0577 46.1643C28.29 45.9604 28.5253 45.8527 28.7386 45.8527C29.0748 45.8527 29.3252 46.11 29.4155 46.349C29.5053 46.5867 29.4514 46.7947 29.2561 46.9667L29.0804 47.1213C29.079 47.1224 29.0778 47.1234 29.0765 47.1245C29.0761 47.125 29.0757 47.1254 29.0753 47.1258L26.5777 49.3223ZM29.1021 51.1504C29.0904 51.1609 29.0794 51.1719 29.068 51.1826L28.8693 51.3619C28.6927 51.5215 28.5158 51.565 28.3126 51.4983C28.0557 51.414 27.8313 51.1676 27.7787 50.9122C27.733 50.6903 27.8219 50.4845 28.0475 50.2856L28.3301 50.0387C28.3372 50.0325 28.3433 50.0257 28.3502 50.0193L30.2014 48.3913C30.645 47.9992 31.0843 47.9599 31.3768 48.2868C31.4179 48.3328 31.7666 48.7474 31.3409 49.1319L30.204 50.1578C30.1918 50.1686 30.1795 50.1782 30.1674 50.1892C30.1631 50.1932 30.1596 50.1977 30.1554 50.2016L29.1151 51.1403C29.1109 51.1439 29.1062 51.1466 29.1021 51.1504ZM30.1986 53.0523C30.1093 52.9532 29.9371 52.6963 30.2195 52.425L31.3537 51.4017C31.4395 51.3283 31.5222 51.2701 31.5997 51.2301C31.6032 51.2283 31.6068 51.2264 31.6103 51.2246C32.0675 50.9804 32.3152 51.2651 32.3804 51.358C32.4641 51.4776 32.5662 51.7125 32.3095 51.9431L31.5325 52.6416C31.5295 52.6442 31.5267 52.6469 31.5237 52.6495L31.1869 52.9522C30.6333 53.4491 30.2904 53.1546 30.1986 53.0523ZM43.6198 48.5787C43.5677 48.7933 43.4146 48.9479 43.1997 49.003C42.8434 49.0942 42.3924 48.8964 41.9795 48.4727C41.9486 48.4385 41.9168 48.4047 41.8836 48.372L38.6867 45.2119C38.3539 44.8832 37.8177 44.8862 37.4889 45.2189C37.1601 45.5515 37.1631 46.0878 37.4958 46.4166L40.6876 49.5716C40.6929 49.5772 40.6984 49.5828 40.7036 49.5884C40.8311 49.7196 40.902 49.8948 40.9028 50.0844C40.9035 50.2847 40.8276 50.4715 40.6889 50.6104C40.5521 50.7475 40.3474 50.8256 40.1262 50.8256C40.1231 50.8256 40.12 50.8257 40.1169 50.8256C39.9211 50.8237 39.7424 50.7581 39.6166 50.6437C39.5636 50.5751 39.5059 50.5087 39.4425 50.445L37.1053 48.105C36.7747 47.7742 36.2385 47.7738 35.9075 48.1042C35.5766 48.4348 35.5762 48.9709 35.9067 49.3019L38.1232 51.5211C38.1499 51.5602 38.1795 51.5979 38.2136 51.6331L38.3079 51.7303C38.4294 51.9617 38.3541 52.3516 38.1215 52.5913C37.7625 52.9609 37.2573 52.635 36.8974 52.297L35.8965 51.3547C35.5559 51.0341 35.0198 51.0503 34.6993 51.3909C34.3786 51.7315 34.3948 52.2675 34.7354 52.5881L35.5 53.3078C35.5018 53.3096 35.5033 53.3115 35.5052 53.3132C35.5227 53.3295 35.5489 53.3542 35.5503 53.4396C35.5536 53.638 35.4225 53.9102 35.2316 54.1013C34.9529 54.3802 34.4896 54.3702 34.1772 54.0787L33.3391 53.2953L33.4415 53.2032C34.2726 52.4569 34.4068 51.2987 33.7677 50.3864C33.5598 50.0895 33.2993 49.8589 33.0072 49.6988C33.419 48.8866 33.3039 47.9005 32.6391 47.1575C32.2641 46.7382 31.7345 46.4519 31.1432 46.3885C31.1263 46.176 31.0798 45.9619 31.0001 45.7507C30.7124 44.989 30.0728 44.4283 29.3202 44.2341C29.3515 43.8967 29.3049 43.5483 29.1745 43.2094C28.818 42.2833 27.9264 41.661 26.9557 41.661C26.3191 41.661 25.6902 41.9205 25.1362 42.4118L22.9739 44.3339L22.4985 43.6829L28.9457 35.4253L31.8934 35.8761L31.4474 36.1654C29.0589 37.7151 28.884 39.5173 29.5169 40.6873C30.0234 41.6238 31.0344 42.1591 32.1074 42.1591C32.5492 42.159 33.0017 42.0683 33.4336 41.8775C33.4451 41.8723 33.4564 41.8671 33.4675 41.8616L35.7005 40.7544L36.9895 41.9281C36.9908 41.9293 36.9921 41.9301 36.9933 41.9312C36.9946 41.9324 36.9956 41.9336 36.9968 41.9347L42.9549 47.2335C43.4654 47.6874 43.714 48.1903 43.6198 48.5787ZM43.5485 45.4947L38.1262 40.6724L36.4129 39.1124C36.1549 38.8774 35.7791 38.8247 35.4665 38.9798L32.7333 40.3351C31.9907 40.6545 31.2603 40.3505 31.0067 39.8816C30.6581 39.2373 31.1802 38.3578 32.3692 37.5865L35.0303 35.8597C36.4731 34.9218 37.9867 34.8494 40.0571 35.0897L46.0524 42.7715C45.4197 43.9076 45.0837 44.2682 43.5485 45.4947ZM53.9218 38.833C53.8971 39.0237 53.7992 39.1931 53.6465 39.3095L49.1263 42.7511C48.9639 42.8753 48.7923 42.9013 48.6769 42.9013C48.4393 42.9012 48.2212 42.7967 48.0791 42.6149L41.1793 33.7742C41.0611 33.623 41.0094 33.435 41.034 33.2447C41.0586 33.0534 41.1568 32.8833 41.3108 32.766L45.8256 29.3244C45.9894 29.2002 46.1619 29.1741 46.2779 29.1741C46.5157 29.1741 46.7332 29.2783 46.8755 29.461L53.7763 38.3002C53.8949 38.4526 53.9466 38.6417 53.9218 38.833Z" fill="white"/>
<path d="M29.5305 30.2053C30.8603 30.9228 32.3623 31.302 33.8744 31.302C38.9153 31.302 43.0164 27.1963 43.0164 22.1498C43.0164 18.6276 40.9602 15.3796 37.7787 13.8752C36.553 13.2944 35.2395 13 33.8744 13C28.8347 13 24.7346 17.1046 24.7346 22.1498C24.7346 25.5147 26.5718 28.6011 29.5305 30.2053ZM33.8744 14.6938C34.9866 14.6938 36.0561 14.9334 37.054 15.4061C39.647 16.6322 41.3225 19.2793 41.3225 22.1498C41.3225 26.2624 37.9813 29.6082 33.8745 29.6082C32.6423 29.6082 31.4183 29.2992 30.3365 28.7155C27.9259 27.4084 26.4285 24.8926 26.4285 22.1498C26.4285 18.0386 29.7686 14.6938 33.8744 14.6938Z" fill="white"/>
<path d="M17.2418 34.6607C17.3977 34.7852 17.5843 34.8457 17.7695 34.8457C18.0183 34.8457 18.2648 34.7366 18.432 34.527L18.4416 34.5149C18.7333 34.1494 18.6735 33.6165 18.3079 33.3247C17.9423 33.0331 17.4093 33.0927 17.1176 33.4585L17.1081 33.4705C16.8163 33.8361 16.8762 34.369 17.2418 34.6607Z" fill="white"/>
</g>
<defs>
<clipPath id="clip0">
<rect x="13" y="13" width="43" height="43" fill="white"/>
</clipPath>
</defs>
</svg>
