<svg width="69" height="69" viewBox="0 0 69 69" fill="none" xmlns="http://www.w3.org/2000/svg">
<rect width="69" height="69" rx="12" fill="#0092E8"/>
<path d="M32.6489 41.55C32.9697 41.2286 32.9697 40.7083 32.6489 40.3869C32.3277 40.0663 31.8075 40.0663 31.486 40.3869C31.1655 40.7083 31.1655 41.2286 31.486 41.55C31.8075 41.8706 32.3277 41.8706 32.6489 41.55Z" fill="white"/>
<path d="M28.7563 22.041C28.7563 27.0261 32.8121 31.0822 37.7973 31.0822C42.7825 31.0822 46.8383 27.0261 46.8383 22.041C46.8383 17.0558 42.7825 13 37.7973 13C32.8121 13 28.7563 17.0558 28.7563 22.041ZM45.1946 22.041C45.1946 26.1199 41.8762 29.4383 37.7973 29.4383C33.7184 29.4383 30.4 26.1199 30.4 22.041C30.4 17.9624 33.7184 14.644 37.7973 14.644C41.8762 14.644 45.1946 17.9624 45.1946 22.041Z" fill="white"/>
<path d="M22.7717 54.8504C23.0903 55.1715 23.609 55.1751 23.9317 54.8571L27.9165 50.9314C28.5935 50.2544 28.7994 49.2521 28.5016 48.3809L29.3588 47.5542C29.8203 47.1085 30.4279 46.8628 31.0702 46.8628H41.9966C43.9351 46.8628 45.7672 46.1184 47.1562 44.7667C47.2133 44.7111 46.7223 45.2895 54.6103 35.8619C55.7803 34.4777 55.6052 32.3993 54.2198 31.228C52.8431 30.0677 50.7806 30.2344 49.6075 31.5948L44.7575 36.5796C44.1451 35.8259 43.2112 35.3561 42.2021 35.3561H33.0369C31.7327 34.8104 30.3489 34.5342 28.9211 34.5342C24.9632 34.5342 21.5074 36.3622 19.6527 39.7895C18.8714 39.6415 18.0473 39.8778 17.4545 40.4707L13.5445 44.3922C13.2253 44.7124 13.2246 45.2304 13.5432 45.5515L22.7717 54.8504ZM28.9207 36.1779C30.1796 36.1779 31.3968 36.4313 32.5391 36.931C32.6432 36.9766 32.7553 37 32.8686 37H42.2021C43.0933 37 43.8461 37.7268 43.8461 38.6437C43.8461 39.5503 43.1087 40.2876 42.2021 40.2876H35.4962C35.0425 40.2876 34.6744 40.6556 34.6744 41.1094C34.6744 41.5635 35.0425 41.9312 35.4962 41.9312H42.2021C44.015 41.9312 45.4897 40.4565 45.4897 38.6437C45.4897 38.4991 45.4795 38.3559 45.4608 38.214C50.1525 33.3913 50.814 32.7137 50.8423 32.6799C51.4281 31.9885 52.468 31.9008 53.1597 32.484C53.8521 33.0695 53.9398 34.1087 53.3524 34.804L45.9804 43.617C44.904 44.6504 43.4906 45.2192 41.9966 45.2192H31.0702C29.9995 45.2192 28.9859 45.6286 28.2171 46.3714L27.5186 47.0455L21.0796 40.6068C22.5845 37.7836 25.4084 36.1779 28.9207 36.1779ZM18.6177 41.6323C18.8887 41.3612 19.3049 41.3124 19.6354 41.5166C19.7777 41.6034 19.3692 41.2315 26.7543 48.6063C27.0828 48.9348 27.0652 49.4583 26.7588 49.7647L23.3617 53.1114L15.2858 44.9738L18.6177 41.6323Z" fill="white"/>
<path d="M38 17L38 22L40.5 26.5" stroke="white" stroke-width="1.5" stroke-linecap="round"/>
</svg>
