<svg id="Слой_1" data-name="Слой 1" xmlns="http://www.w3.org/2000/svg" xmlns:xlink="http://www.w3.org/1999/xlink" viewBox="0 0 266.14 272.89"><defs><style>.cls-1{fill:#6687a8;}.cls-18,.cls-2{fill:#fff;}.cls-18,.cls-20,.cls-3{fill-rule:evenodd;}.cls-15,.cls-4{fill:none;}.cls-5{mask:url(#mask);}.cls-6{clip-path:url(#clip-path);}.cls-7{fill:#3b71b6;}.cls-8{fill:#1f1f3f;}.cls-9{fill:#597bb2;}.cls-10{fill:#8eaad4;}.cls-11{fill:#262721;}.cls-12{fill:#1d2f3a;opacity:0.17;isolation:isolate;}.cls-13{fill:#1a516e;}.cls-14{fill:#5b82aa;}.cls-15{stroke:#262721;stroke-miterlimit:10;stroke-width:1.63px;}.cls-16{fill:#df9276;}.cls-17{fill:#24425b;}.cls-19{mask:url(#mask-2);}.cls-20{fill:#121314;}</style><mask id="mask" x="-33.45" y="-27.08" width="300" height="300" maskUnits="userSpaceOnUse"><g transform="translate(-33.45 -27.08)"><g id="mask0"><rect class="cls-1" width="300" height="300"/></g></g></mask><clipPath id="clip-path" transform="translate(-33.45 -27.08)"><rect class="cls-4" x="32.97" y="19.78" width="267.03" height="280.22"/></clipPath><mask id="mask-2" x="14.65" y="68.61" width="72" height="65" maskUnits="userSpaceOnUse"><g transform="translate(-33.45 -27.08)"><g id="path-65-outside-1"><rect class="cls-2" x="48.1" y="95.7" width="72" height="65"/><path class="cls-3" d="M84.51,157.28a1.23,1.23,0,0,0,1.85,0l4.38-4.93a1.22,1.22,0,0,0,.31-.7h23.51a2.47,2.47,0,0,0,2.47-2.47V101.37a2.47,2.47,0,0,0-2.47-2.47h-61a2.48,2.48,0,0,0-2.47,2.47v47.81a2.48,2.48,0,0,0,2.47,2.47H79.82a1.27,1.27,0,0,0,.3.7Z"/></g></g></mask></defs><title>new-process-2-back</title><g class="cls-6"><path class="cls-7" d="M104.88,140.11c1.44-13.72-7.57-25.92-20.12-27.24S69.27,123,67.82,136.75,67,161.26,79.54,162.57,103.43,153.82,104.88,140.11Z" transform="translate(-33.45 -27.08)"/><path class="cls-2" d="M207.68,141.73l1.86,2.73,8,12.45,16.2,3.8,14.8-24.41-1.08-9.85Z" transform="translate(-33.45 -27.08)"/><path class="cls-8" d="M53.06,163a2.08,2.08,0,0,1-2-1.62c-.8-3.47-1.91-4.57-5.37-5.37a2.08,2.08,0,0,1,0-4.06c3.47-.8,4.57-1.91,5.37-5.37a2.08,2.08,0,0,1,4.06,0c.8,3.47,1.91,4.57,5.37,5.37a2.08,2.08,0,0,1,0,4.06c-3.47.8-4.57,1.91-5.37,5.37A2.07,2.07,0,0,1,53.06,163Zm-5.46-9a7.52,7.52,0,0,1,5.47,5.47A7.49,7.49,0,0,1,58.53,154a7.46,7.46,0,0,1-5.46-5.46A7.49,7.49,0,0,1,47.6,154Z" transform="translate(-33.45 -27.08)"/><path class="cls-9" d="M81.89,180.44A6.43,6.43,0,1,1,88.32,174,6.44,6.44,0,0,1,81.89,180.44Zm0-10.39a4,4,0,1,0,4,3.95A4,4,0,0,0,81.89,170.05Z" transform="translate(-33.45 -27.08)"/><path class="cls-10" d="M85.85,134.58a1.23,1.23,0,0,1-1.24-1.24v-3.27a1.24,1.24,0,1,1,2.48,0v3.27A1.24,1.24,0,0,1,85.85,134.58Z" transform="translate(-33.45 -27.08)"/><path class="cls-10" d="M85.85,143.34a1.24,1.24,0,0,1-1.24-1.24v-3.28a1.24,1.24,0,1,1,2.48,0v3.28A1.25,1.25,0,0,1,85.85,143.34Z" transform="translate(-33.45 -27.08)"/><path class="cls-10" d="M83.26,137H80a1.24,1.24,0,0,1,0-2.48h3.27a1.24,1.24,0,0,1,0,2.48Z" transform="translate(-33.45 -27.08)"/><path class="cls-10" d="M91.7,137H88.43a1.24,1.24,0,1,1,0-2.48h3.28A1.23,1.23,0,0,1,93,135.8,1.25,1.25,0,0,1,91.7,137Z" transform="translate(-33.45 -27.08)"/><path class="cls-10" d="M52.9,192.09a1.24,1.24,0,0,1-1.24-1.24v-3.28a1.24,1.24,0,0,1,2.48,0v3.28A1.25,1.25,0,0,1,52.9,192.09Z" transform="translate(-33.45 -27.08)"/><path class="cls-10" d="M52.9,200.83a1.24,1.24,0,0,1-1.24-1.24v-3.28a1.24,1.24,0,0,1,2.48,0v3.28A1.24,1.24,0,0,1,52.9,200.83Z" transform="translate(-33.45 -27.08)"/><path class="cls-10" d="M50.31,194.54H47a1.24,1.24,0,1,1,0-2.48h3.28a1.24,1.24,0,0,1,0,2.48Z" transform="translate(-33.45 -27.08)"/><path class="cls-10" d="M58.75,194.54H55.48a1.24,1.24,0,0,1,0-2.48h3.28a1.24,1.24,0,1,1,0,2.48Z" transform="translate(-33.45 -27.08)"/><path class="cls-2" d="M113.32,229.77c9.66,3.86,30.89,7.22,37.82,6,2.41-.42,20-6.63,26-11.3a18.67,18.67,0,0,0,5.29-6c1.41-2.48,2.07-8,2.77-10.79,4.48-18.21-1.28-33.43-7.92-49.38-.13-.32-.38-.38-.6-.1-3.86,5.17-5.86,7.59-8.5,14a81.52,81.52,0,0,1-4.46,10.14c-1.83,3.16-4.42,6-7.48,6.85-1.28.36-2.58.38-3.87.65a13.52,13.52,0,0,0-8.71,7c2.63,3,4.31,4.82,3.53,10.27s-1.43,8.6-5.35,11.8c-7.26,5.9-16.07,10.69-24.08,8.45-4.72-1.33-9.85-3-12.82-7.91-1.55-2.58-7.15-6.7-9.39-9.16C95.5,219.21,105.2,226.54,113.32,229.77Z" transform="translate(-33.45 -27.08)"/><path class="cls-11" d="M113.37,229.63a74.53,74.53,0,0,0,11.48,3.19,118,118,0,0,0,11.79,1.75,76.83,76.83,0,0,0,11.81.45,16.09,16.09,0,0,0,2.77-.38c.85-.24,1.81-.58,2.72-.92,1.85-.69,3.7-1.38,5.53-2.13,3.66-1.5,7.31-3,10.81-4.8a44.1,44.1,0,0,0,5-2.83,22.38,22.38,0,0,0,2.22-1.72,16.61,16.61,0,0,0,3.55-4.22,10.44,10.44,0,0,0,1.05-2.44c.57-1.8,1-3.74,1.38-5.69.21-1,.46-2,.7-2.95l.68-2.86.5-2.89c.15-1,.23-1.94.36-2.92a52.76,52.76,0,0,0-.23-11.78,70.8,70.8,0,0,0-2.58-11.57c-1.19-3.79-2.57-7.52-4.1-11.19L177.68,161l-.59-1.37-.3-.69-.15-.34c0-.09-.06,0,.11.07a.41.41,0,0,0,.31,0,.24.24,0,0,0,.1-.05l-.18.24-.44.61-.87,1.22c-.58.81-1.15,1.61-1.7,2.43a40.78,40.78,0,0,0-3,5.05,57.85,57.85,0,0,0-2.28,5.42c-1.4,3.69-2.62,7.61-5,11.14a16.43,16.43,0,0,1-4.51,4.64,10.16,10.16,0,0,1-3.15,1.39c-1.12.27-2.15.34-3,.5-3.39.6-6.36,3.21-8,6.36l-.2-1.79a19.42,19.42,0,0,1,3.22,4.36,11.08,11.08,0,0,1,.93,5.68c0,.46-.08.9-.13,1.34l-.17,1.27c-.12.83-.25,1.67-.41,2.54a16.87,16.87,0,0,1-1.81,5.21,14.89,14.89,0,0,1-3.71,4.19q-2,1.6-4.1,3.08a40,40,0,0,1-9.24,4.76,25.14,25.14,0,0,1-5.21,1.2,18.15,18.15,0,0,1-5.45-.22l-1.34-.33-1.21-.36c-.81-.25-1.63-.52-2.44-.82A24.08,24.08,0,0,1,109,225.4a15.32,15.32,0,0,1-4-3.67,12.34,12.34,0,0,1-.77-1.12l-.62-1a15.8,15.8,0,0,0-1.49-1.78c-2.22-2.37-4.81-4.45-7.13-7l1.3-.5a13.14,13.14,0,0,0,1.52,6.39,21.29,21.29,0,0,0,4,5.46,32.42,32.42,0,0,0,5.4,4.29A40.29,40.29,0,0,0,113.37,229.63Zm-.12.3a39.61,39.61,0,0,1-6.25-3.12,35.79,35.79,0,0,1-5.62-4.18,24.69,24.69,0,0,1-4.53-5.43,14.67,14.67,0,0,1-2.1-6.9l0-1.86,1.35,1.35c1.12,1.12,2.42,2.16,3.7,3.21s2.6,2.1,3.86,3.27a17.85,17.85,0,0,1,1.85,1.92l.43.6.33.47a8.85,8.85,0,0,0,.7.89,13.25,13.25,0,0,0,3.49,2.86,23.46,23.46,0,0,0,4.29,1.83c.76.25,1.53.47,2.32.69l1.18.31,1.1.22a16.77,16.77,0,0,0,4.48.07,22.23,22.23,0,0,0,4.48-1.11,38.19,38.19,0,0,0,8.38-4.46c1.32-.91,2.63-1.88,3.89-2.9a11.45,11.45,0,0,0,2.88-3.21,13.82,13.82,0,0,0,1.47-4.17c.16-.77.3-1.56.43-2.37s.26-1.61.32-2.34a8,8,0,0,0-.54-4.07,17,17,0,0,0-2.66-3.66l-.72-.84.52-.94a16.8,16.8,0,0,1,4.23-5,13.38,13.38,0,0,1,6.08-2.74c1.09-.17,2.06-.22,2.89-.39a7.52,7.52,0,0,0,2.31-.93,14.2,14.2,0,0,0,3.88-3.78c2.18-3.06,3.6-6.76,5.18-10.44.79-1.84,1.63-3.69,2.62-5.48a43.46,43.46,0,0,1,3.31-5.12c.6-.8,1.21-1.6,1.82-2.39l.93-1.18.45-.59.12-.14a2.19,2.19,0,0,1,.16-.2,1.2,1.2,0,0,1,.4-.27.87.87,0,0,1,.67,0,1,1,0,0,1,.55.64l.14.35.27.69.55,1.39,1.1,2.79c1.43,3.73,2.83,7.48,4,11.32a70.39,70.39,0,0,1,3.58,23.76c-.08,1-.11,2-.21,3l-.37,3-.56,3c-.2,1-.38,1.9-.53,2.9-.33,1.95-.63,3.95-1.16,6-.13.51-.3,1-.48,1.54a7.68,7.68,0,0,1-.32.79c-.13.27-.27.54-.39.76a19.47,19.47,0,0,1-4,5,26.86,26.86,0,0,1-2.49,2,50,50,0,0,1-5.37,3.07A113.56,113.56,0,0,1,160.44,234c-1.9.68-3.8,1.33-5.73,1.9-1,.29-1.92.57-3,.8a18.28,18.28,0,0,1-3.17.23,52.71,52.71,0,0,1-6.06-.4c-2-.21-4-.51-6-.83-3.95-.65-7.86-1.49-11.75-2.4A89.94,89.94,0,0,1,113.25,229.93Z" transform="translate(-33.45 -27.08)"/><path class="cls-2" d="M221.67,157.91A236.63,236.63,0,0,0,248.2,137c-.63,23-8.22,49.3-13.54,71.71-3.36,14.18-5.7,28.67-10.7,42.37a38.2,38.2,0,0,1-6.14,11.66c-8.09-18.7-10.14-39.4-11.33-59.74q-.88-14.92-1.15-29.88c-.09-5-.11-10.06-.07-15.08q0-3.83.11-7.67c.05-1.8.71-7.48,1.84-8.9C209.68,142.41,221.2,157.91,221.67,157.91Z" transform="translate(-33.45 -27.08)"/><path class="cls-2" d="M282.1,291.8h-101c-.67-9-.59-38-5.32-73.48-1.63-12.26-6.8-23.31-1.93-54.67,1.74-11.18,24.28-17.66,33.72-24.43,0,0,2,5.8,4.4,13.08,3.26,9.94,8.86,8.21,8.4,14.8-2.41,34.58.17,93.11.89,93.2,0,0-6.81-67-.89-93.2,1-4.23,25.86-26,27.21-30.44a.63.63,0,0,1,.92-.37c6.32,3.68,16.37,5.35,28.8,11,8.54,3.92,10.21,6.23,10.22,7.35C288.1,189.2,282.22,287.17,282.1,291.8Z" transform="translate(-33.45 -27.08)"/><path class="cls-11" d="M282.22,291.92l-25,.39-25.23.35-25.39.3c-8.48.09-17,.11-25.46.15h-1.22l-.08-1.22c-.26-3.62-.36-7.19-.52-10.76l-.46-10.7c-.33-7.13-.81-14.24-1.33-21.35s-1.22-14.21-2-21.3q-.27-2.65-.6-5.31c-.23-1.76-.4-3.56-.67-5.28-.5-3.48-1.23-7-1.85-10.52a102.59,102.59,0,0,1-1.57-21.57,160,160,0,0,1,2.23-21.43,11.62,11.62,0,0,1,2.28-5.18,22.27,22.27,0,0,1,3.9-3.92,58.18,58.18,0,0,1,9.16-5.77c3.17-1.69,6.42-3.21,9.61-4.8a73.49,73.49,0,0,0,9.27-5.2l.56-.39.21.63c1.65,4.91,3.26,9.91,5,14.72a18.28,18.28,0,0,0,1.77,3.33,17.61,17.61,0,0,0,2.47,2.86,17.22,17.22,0,0,1,2.75,2.93A6.75,6.75,0,0,1,221,167c-.34,5.18-.56,10.36-.69,15.54s-.15,10.38-.13,15.57c0,10.37.24,20.74.6,31.12q.27,7.78.66,15.55l.44,7.75.26,3.87.16,1.92.1.93,0,.44,0,.17v0a.21.21,0,0,0,0-.07.66.66,0,0,0-.11-.2c.11.09-.43-.58-.88-.54l-1.45,1.4c-1.34-13.17-2.4-26.33-3-39.54a370.75,370.75,0,0,1-.11-39.73c.21-3.32.55-6.65,1-10,.14-.83.24-1.66.42-2.49l.25-1.25.12-.63c0-.06.08-.32.14-.5s.12-.31.18-.44a13.37,13.37,0,0,1,1.56-2.39c.54-.68,1.09-1.33,1.65-2,4.49-5,9.24-9.57,13.86-14.27,2.3-2.34,4.61-4.68,6.77-7.08.54-.61,1.06-1.21,1.56-1.82a16.12,16.12,0,0,0,1.29-1.79,2.94,2.94,0,0,0,.18-.34l.1-.28a2.36,2.36,0,0,1,.67-.93,2.41,2.41,0,0,1,2.18-.47,2.81,2.81,0,0,1,.53.22l.14.07.25.14c.66.38,1.37.71,2.08,1,2.88,1.29,6,2.3,9.11,3.34s6.29,2.1,9.42,3.28,6.2,2.49,9.23,3.95a50.16,50.16,0,0,1,4.49,2.43c.74.46,1.47.94,2.19,1.49a9.94,9.94,0,0,1,2.09,2.07,3.89,3.89,0,0,1,.77,2c0,.15,0,.15,0,.22v3.57c0,1.65,0,3.31,0,5-.07,3.3-.11,6.61-.22,9.91-.38,13.2-1,26.39-1.62,39.57s-1.5,26.35-2.31,39.52L283.63,272l-.69,9.87-.36,4.94-.18,2.46C282.37,290.14,282.3,291.08,282.22,291.92Zm-.23-.24c0-.82,0-1.52,0-2.36l.08-2.48.19-4.94.38-9.88.75-19.78q.8-19.76,1.43-39.54c.47-13.18.88-26.36,1.07-39.53.08-3.29.06-6.58.08-9.87,0-1.65,0-3.29,0-4.92l0-2.47,0-1.17c0,.13,0-.08-.19-.27a7.06,7.06,0,0,0-1.44-1.36,20.49,20.49,0,0,0-1.91-1.28c-1.35-.81-2.77-1.55-4.22-2.26-2.92-1.37-5.93-2.63-9-3.76s-6.16-2.16-9.3-3.18a99.16,99.16,0,0,1-9.48-3.41c-.78-.37-1.57-.74-2.34-1.18l-.29-.15-.13-.08a1,1,0,0,0,1.25-.11,1.13,1.13,0,0,0,.32-.43s.05-.14,0-.07l0,.13-.09.25a7.68,7.68,0,0,1-.38.76,17.39,17.39,0,0,1-1.6,2.22c-.54.67-1.1,1.32-1.66,1.94-2.25,2.51-4.58,4.87-6.9,7.21-4.64,4.7-9.42,9.29-13.74,14.1-.53.6-1.05,1.2-1.53,1.82a11.1,11.1,0,0,0-1.18,1.72l0,.13s0,0,0,.1l-.12.58-.24,1.18c-.18.77-.28,1.58-.42,2.38-.5,3.19-.85,6.43-1.09,9.69a366.59,366.59,0,0,0-.17,39.37c.55,13.15,1.37,26.31,2.55,39.41l.12,1.35-1.57,0c-.46,0-1-.66-.93-.58l-.13-.26-.06-.18-.05-.22,0-.31-.06-.53-.1-1-.14-2-.21-3.9c-.13-2.6-.22-5.21-.3-7.8-.17-5.2-.28-10.39-.36-15.6-.16-10.39-.2-20.78-.05-31.18.07-5.19.19-10.39.39-15.58s.42-10.4.78-15.57a5.57,5.57,0,0,0-.71-3.43,16.21,16.21,0,0,0-2.56-2.73,18.42,18.42,0,0,1-2.59-3,19.57,19.57,0,0,1-1.85-3.54c-.5-1.24-.88-2.49-1.29-3.71l-1.22-3.7-2.49-7.37.76.24a73.33,73.33,0,0,1-9.38,5.33c-3.21,1.6-6.41,3.18-9.53,4.88a57,57,0,0,0-8.87,5.77,20.73,20.73,0,0,0-3.58,3.74,10.07,10.07,0,0,0-1.9,4.56c-2,14.08-2.67,28.44.23,42.32.68,3.48,1.5,7,2.08,10.56.3,1.81.49,3.56.74,5.34s.46,3.56.66,5.34c.88,7.11,1.54,14.25,2.08,21.39s.92,14.3,1.21,21.45L182,281c.12,3.56.2,7.15.41,10.66l-1.3-1.22c8.34,0,16.68.06,25,.15l25.12.3,25.26.35Z" transform="translate(-33.45 -27.08)"/><rect class="cls-4" x="139.8" y="130.29" width="5.71" height="19.57"/><path class="cls-12" d="M178.54,219.93c4.35,2.15,8.62,4.48,12.79,6.95,4.95,2.94,9.77,6.08,14.71,9,9,5.35,18.41,10,27.64,15s18.07,10.12,26.83,15.65c3.1,2,10.47,8.41,10.74,8.37l12.13-6.1c0,.63-5.43,10.54-8.95,10.86-10.67,1-24.67-2.16-32-4.75-6.24-2.22-25.75-12.54-29.64-14.6-9.63-5.1-19.27-10.22-28.23-16.41a4.75,4.75,0,0,1-1.92-2c-.56-1.51.5-3.1,1.51-4.35-2.5-1.5-5.31-3.53-5.3-6.44,0-1.17.5-2.31.48-3.47a12.39,12.39,0,0,0-1.11-3.84A4,4,0,0,1,178.54,219.93Z" transform="translate(-33.45 -27.08)"/><path class="cls-2" d="M190.06,228.84c-.12-1.63-4.14-3.81-5.11-5.12-1.22,1.09-4.06,7.69-4.06,7.69C182.67,232,190.07,228.94,190.06,228.84Z" transform="translate(-33.45 -27.08)"/><path class="cls-11" d="M189.9,228.85a1.77,1.77,0,0,0-1.13-1.21c-.56-.26-1.2-.39-1.78-.61a5.36,5.36,0,0,1-1.6-.93,5.21,5.21,0,0,1-1.33-1.72l1.64.17a1.84,1.84,0,0,0-.76.45,4.5,4.5,0,0,0-.74.77,6.21,6.21,0,0,0-.93,1.94c-.2.7-.28,1.46-.42,2.19a16.18,16.18,0,0,1-.55,2.1l-.92-2.07c0-.06,0,0,.12-.08l.17,0,.22-.06,1-.25c.69-.17,1.44-.34,2.21-.45a12.86,12.86,0,0,1,2.48,0,7.58,7.58,0,0,0,1.27,0,3.86,3.86,0,0,0,.59-.12c.09,0,.2-.05.29-.09l.13-.05s.06,0,0,0A.08.08,0,0,0,189.9,228.85Zm.32,0a.44.44,0,0,1-.11.18c-.07.06-.07,0-.1.07l-.14.07-.27.15a4.59,4.59,0,0,0-.51.35,9.49,9.49,0,0,0-1,.84,9.16,9.16,0,0,1-2.05,1.6,9.73,9.73,0,0,1-2.41.86,8.26,8.26,0,0,1-1.39.17h-.37l-.44,0a4.16,4.16,0,0,1-1.06-.23l-1.76-.58.83-1.49a12.9,12.9,0,0,1,1.24-1.87c.48-.58,1-1.14,1.46-1.74a9.32,9.32,0,0,0,1.09-1.92c.15-.34.24-.71.37-1.09a4.45,4.45,0,0,1,.58-1.27l.25-.38,1.38.54a6.45,6.45,0,0,1,1.37.76,5.48,5.48,0,0,1,1.28,1.34,16.26,16.26,0,0,1,1,1.8A7.14,7.14,0,0,1,190.22,228.82Z" transform="translate(-33.45 -27.08)"/><path class="cls-13" d="M191.83,238.7c-.72-1.19-2.32-2.34-3.7-3.57a14.27,14.27,0,0,0-1.25,2.12l-1,2.18A37.85,37.85,0,0,0,191.83,238.7Z" transform="translate(-33.45 -27.08)"/><path class="cls-13" d="M201.87,214.81c1.09.85,3.41,2.27,4.5,3.13.28-1,.56-2.17.76-3s1.08-4.35,1.08-4.35A59.88,59.88,0,0,0,201.87,214.81Z" transform="translate(-33.45 -27.08)"/><path class="cls-14" d="M195.17,215.41a15.65,15.65,0,0,0,5.31,3.66,10.65,10.65,0,0,0-.1-4.83,11,11,0,0,0-.36-1.15,10.07,10.07,0,0,0-.86-1.29A37.33,37.33,0,0,0,195.17,215.41Z" transform="translate(-33.45 -27.08)"/><path class="cls-2" d="M196.26,209.39A90.21,90.21,0,0,0,195,190.05c-.26-1.59-.51-3.18-.77-4.77a11.31,11.31,0,0,0-.75-2.88,7.38,7.38,0,0,0-4-3.42c-1.68-.68-4.69-1.49-6.33-2.22-6.77-3-10.15-4.3-15.51-7.19a2,2,0,0,0-2.27.48,4.9,4.9,0,0,0-.68,4.12,4.56,4.56,0,0,0,1.14,1.83,15.86,15.86,0,0,0,4.51,3c2.64,1.32,5.23,2.54,7.94,3.71-1.37-.17-2.51-.58-3.79,1.06-.86,1.08-1.56,2.45-1,3.72a4.62,4.62,0,0,0-3,6.15,5.59,5.59,0,0,0-2.13,9.38c1.54,1.47,3.76,1.93,5.66,2.91-.89,4.69,0,10.19,3.8,13,1,.73,2.12,1.24,3,2.06,3,2.68,6.43,5.91,9.15,8.87a32.18,32.18,0,0,1,2.58-2.6c2.08-1.43,10.69-8.51,10.36-9s-1.79-.41-3.92-2.27A7.31,7.31,0,0,1,196.26,209.39Z" transform="translate(-33.45 -27.08)"/><path class="cls-15" d="M196.26,209.39A90.21,90.21,0,0,0,195,190.05c-.26-1.59-.51-3.18-.77-4.77a11.31,11.31,0,0,0-.75-2.88,7.38,7.38,0,0,0-4-3.42c-1.68-.68-4.69-1.49-6.33-2.22-6.77-3-10.15-4.3-15.51-7.19a2,2,0,0,0-2.27.48,4.9,4.9,0,0,0-.68,4.12,4.56,4.56,0,0,0,1.14,1.83,15.86,15.86,0,0,0,4.51,3c2.64,1.32,5.23,2.54,7.94,3.71-1.37-.17-2.51-.58-3.79,1.06-.86,1.08-1.56,2.45-1,3.72a4.62,4.62,0,0,0-3,6.15,5.59,5.59,0,0,0-2.13,9.38c1.54,1.47,3.76,1.93,5.66,2.91-.89,4.69,0,10.19,3.8,13,1,.73,2.12,1.24,3,2.06,3,2.68,6.43,5.91,9.15,8.87a32.18,32.18,0,0,1,2.58-2.6c2.08-1.43,10.69-8.51,10.36-9s-1.79-.41-3.92-2.27A7.31,7.31,0,0,1,196.26,209.39Z" transform="translate(-33.45 -27.08)"/><path class="cls-2" d="M194.46,224.17c3.63-3.9,3.75-5.69,4.54-8.2a6.21,6.21,0,0,0,.1-4.34c1.06.8,2.7,1.56,4.28,2.63,2.2,1.5,1.77,1.5,3.49,2.36.28.14.86.42,1,.72a.85.85,0,0,1-.06.58c-.7,2.29-1.42,4.57-2.13,6.85a25.09,25.09,0,0,1-3.09,7.16c-1.35,1.92-2.87,4.67-4.79,6-2.64,1.88-3.31,2.83-5.13,1.46s-6.62-4.43-11.75-8C186.22,231.39,191.48,227.36,194.46,224.17Z" transform="translate(-33.45 -27.08)"/><path class="cls-11" d="M194.39,224.12a19.39,19.39,0,0,0,2.15-2.71,10.71,10.71,0,0,0,1.41-3.1c.16-.55.28-1.11.41-1.68s.29-1.14.37-1.67a5.44,5.44,0,0,0-.3-3.12l-.76-2,1.83,1.28c.84.58,1.85,1.08,2.83,1.67a22.44,22.44,0,0,1,2.84,2,12.64,12.64,0,0,0,1.27,1,14.89,14.89,0,0,1,1.51.94,1.94,1.94,0,0,1,.22.25,1,1,0,0,1,.18.41,1.42,1.42,0,0,1-.07.66l-.29.81-.58,1.58c-.79,2.12-1.47,4.25-2.17,6.4-.36,1.07-.75,2.13-1.21,3.18-.24.51-.49,1-.77,1.53s-.62,1-.9,1.44c-.59,1-1.15,1.94-1.8,2.88a11.34,11.34,0,0,1-2.36,2.66l-1.33,1a9.82,9.82,0,0,1-1.5,1,3.11,3.11,0,0,1-1.08.33,2.45,2.45,0,0,1-1.16-.2,4.41,4.41,0,0,1-.89-.5l-.69-.48c-3.71-2.45-7.51-4.92-11.14-7.59l-2-1.49,2.46.05a15.62,15.62,0,0,0,7.26-1.84,22.83,22.83,0,0,0,3.32-2.05A22.29,22.29,0,0,0,194.39,224.12Zm.12.11c-.89,1-1.85,1.87-2.84,2.76a28.65,28.65,0,0,1-3.14,2.44,18.56,18.56,0,0,1-3.58,1.9,11.84,11.84,0,0,1-4.06.86l.45-1.44c3.73,2.5,7.49,4.91,11.17,7.58l.67.51a3.66,3.66,0,0,0,.57.35,1,1,0,0,0,1,0c.82-.42,1.79-1.18,2.71-1.78a22.18,22.18,0,0,0,4.26-4.93,17.39,17.39,0,0,0,1.82-2.77,21.22,21.22,0,0,0,1.27-3.08c.71-2.13,1.33-4.29,1.89-6.47l.43-1.63.21-.8c0-.11,0-.18,0-.17s0,0,0,0l-.07-.06c-.31-.22-.91-.43-1.42-.7a8.81,8.81,0,0,1-1.48-1c-.9-.64-1.81-1.24-2.75-1.8a25.47,25.47,0,0,1-2.91-1.84l1-.74a6.72,6.72,0,0,1,.3,1.88,7.38,7.38,0,0,1-.3,1.86c-.17.6-.39,1.14-.58,1.68s-.39,1.1-.61,1.65a13.87,13.87,0,0,1-1.77,3.06C196.07,222.5,195.31,223.39,194.51,224.23Z" transform="translate(-33.45 -27.08)"/><path class="cls-2" d="M208.21,210.62c-4.4,13.9-8.55,25.73-22.3,28.8,40.75,25.51,49.29,27.68,63.24,33.69,11,4.71,25.69,6.09,28.7,3,11.4-11.55,12.09-18.18,17.88-48.08,5.82-30.05,2.83-54.17-.42-64.78a10.87,10.87,0,0,0-1.54-3.13c-7.48-10.35-17.08-13.27-26.32-10.27-11.46,3.71-8.45,17.73-9.78,25.06-2.76,15.24,1,36.31-3.79,56a133.54,133.54,0,0,1-33.51-11.57C217.59,218,208.21,210.62,208.21,210.62Z" transform="translate(-33.45 -27.08)"/><path class="cls-11" d="M208.24,210.7c-.82,3-1.81,6.1-2.91,9.11a51.19,51.19,0,0,1-4.05,8.77,25.26,25.26,0,0,1-6.38,7.32,23.75,23.75,0,0,1-8.88,4l.16-1c12,7.32,24,14.7,36.49,21.25,6.22,3.28,12.53,6.32,19,9l9.72,4.1a60.78,60.78,0,0,0,10,2.91,48.44,48.44,0,0,0,10.38,1.05,12.86,12.86,0,0,0,5-.92,4.19,4.19,0,0,0,.5-.31,4,4,0,0,0,.44-.41l.92-.95.91-.94.87-1a38.83,38.83,0,0,0,6-8.6,52.3,52.3,0,0,0,3.58-9.86c.91-3.39,1.68-6.83,2.36-10.28s1.34-6.91,2-10.38l1-5.19.9-5.19c.55-3.48,1-7,1.37-10.46a168.1,168.1,0,0,0,.84-21,130.75,130.75,0,0,0-2.06-20.91l-.53-2.57c-.19-.85-.41-1.7-.61-2.55l-.72-2.49a10,10,0,0,0-1-2.22,10.59,10.59,0,0,0-.75-1l-.79-1c-.53-.67-1.12-1.31-1.69-2a28.83,28.83,0,0,0-3.86-3.39c-.67-.53-1.42-.94-2.14-1.41-.37-.2-.75-.39-1.13-.58a8.63,8.63,0,0,0-1.16-.53,18.79,18.79,0,0,0-4.87-1.37,18.57,18.57,0,0,0-5.05-.07,21.47,21.47,0,0,0-4.93,1.16,11,11,0,0,0-4.09,2.63,13.46,13.46,0,0,0-1.47,2,15.42,15.42,0,0,0-1.05,2.25A33.94,33.94,0,0,0,259,167.85c-.08,1.76-.11,3.53-.27,5.33s-.55,3.52-.74,5.25a98.4,98.4,0,0,0-.62,10.47c-.13,7,.05,14.07-.25,21.14a104.66,104.66,0,0,1-2.66,21.06l-.14.58-.57-.1a114.55,114.55,0,0,1-12.3-3.22c-4-1.29-8-2.75-11.9-4.38l-2.91-1.26-2.88-1.33L221,220a18.44,18.44,0,0,1-2.75-1.63c-1.74-1.21-3.42-2.48-5.09-3.77l-2.49-2-1.24-1-.62-.5-.31-.24C208.38,210.84,208.23,210.78,208.24,210.7Zm-.05-.16a1.31,1.31,0,0,1,.39.26l.32.23.63.48,1.26.94,2.54,1.88c1.7,1.24,3.41,2.47,5.17,3.62a16.86,16.86,0,0,0,2.72,1.52l2.87,1.32L227,222l2.92,1.19q5.86,2.31,11.9,4.13a116,116,0,0,0,12.2,3l-.71.46A103.82,103.82,0,0,0,255.68,210c.22-7-.05-14,.08-21.13a105.18,105.18,0,0,1,.61-10.62c.19-1.77.57-3.56.73-5.21s.18-3.47.25-5.23a35.78,35.78,0,0,1,1.56-10.68,16.73,16.73,0,0,1,1.19-2.54,13.22,13.22,0,0,1,1.71-2.25,12.59,12.59,0,0,1,4.74-3,22.76,22.76,0,0,1,5.34-1.23,21.15,21.15,0,0,1,10.73,1.62,10.78,10.78,0,0,1,1.24.58c.4.21.81.41,1.21.63.76.5,1.56.94,2.27,1.51a30.19,30.19,0,0,1,4,3.61c.6.68,1.2,1.34,1.76,2l.82,1.06a12.59,12.59,0,0,1,.81,1.13,11.6,11.6,0,0,1,1.19,2.55c.26.88.49,1.72.72,2.6s.41,1.72.59,2.6l.51,2.62a133.85,133.85,0,0,1,1.8,21.14,166.07,166.07,0,0,1-1.14,21.15q-.62,5.25-1.52,10.48l-1,5.2-1,5.19c-1.37,6.91-2.67,13.84-4.41,20.68a53.31,53.31,0,0,1-3.56,10,41,41,0,0,1-6,8.8l-.86,1-.91,1-.9,1a5,5,0,0,1-.52.49,5.83,5.83,0,0,1-.62.39,13.63,13.63,0,0,1-5.31,1.11,49,49,0,0,1-10.62-.89A63.64,63.64,0,0,1,251,274.53c-1.68-.63-3.29-1.33-4.92-2l-4.88-2a201.82,201.82,0,0,1-19.18-9c-6.23-3.33-12.33-6.87-18.38-10.49s-12-7.36-18-11.14l-1.08-.68,1.25-.27a22.62,22.62,0,0,0,8.57-3.74,25.18,25.18,0,0,0,6.31-7,50.78,50.78,0,0,0,4.22-8.56C206.09,216.66,207.07,213.66,208.19,210.54Z" transform="translate(-33.45 -27.08)"/><path class="cls-2" d="M171.32,173.27a8.22,8.22,0,0,0,.64-1.55,44.73,44.73,0,0,0-5.1-2.54c-.8-.29-1.23.74-1,1.07C166.32,170.85,170.42,173,171.32,173.27Z" transform="translate(-33.45 -27.08)"/><path class="cls-11" d="M171.32,173.23c.05-.26.14-.61.21-.91l.11-.47,0-.11a.23.23,0,0,1,0,0h0s0,.1,0,.17a.31.31,0,0,0,.11.11l-.23-.1a10.76,10.76,0,0,1-1.72-.89,18.69,18.69,0,0,0-1.6-1.08,7.06,7.06,0,0,0-.89-.39,2.05,2.05,0,0,0-.84-.17.58.58,0,0,0-.39.49c0,.1,0,.23,0,.21s.15.12.26.19c.51.33,1.09.62,1.63.95C169.15,171.82,170.26,172.53,171.32,173.23Zm0,.08a13.2,13.2,0,0,1-3.68-1.36,11.36,11.36,0,0,1-1.67-1.09,1.77,1.77,0,0,1-.43-.46.94.94,0,0,1,0-.74,1.11,1.11,0,0,1,1-.75,2.79,2.79,0,0,1,1,.36l.89.4c.59.26,1.22.47,1.82.73a18.35,18.35,0,0,1,1.68.93l.2.12a.38.38,0,0,1,.13.13.29.29,0,0,1,0,.21v.05a.24.24,0,0,1,0,.07l-.05.13c-.08.15-.15.3-.23.44s-.17.28-.26.42A1.56,1.56,0,0,1,171.32,173.31Z" transform="translate(-33.45 -27.08)"/><path class="cls-16" d="M218.35,94.47a2.26,2.26,0,0,0,.41-1.69c-.06-.36-.29-1.11-.69-1.2a2.5,2.5,0,0,0,.14,1.07c.12.64,0,1.28,0,1.88A.15.15,0,0,0,218.35,94.47Z" transform="translate(-33.45 -27.08)"/><path class="cls-17" d="M149.47,196.21c1.35,2.07,1.77,4.56.56,3.5a2.18,2.18,0,0,1-.37-.44c-1.39-2-1.87-4.61-.74-3.72A3.11,3.11,0,0,1,149.47,196.21Z" transform="translate(-33.45 -27.08)"/><path class="cls-17" d="M151.09,195c1.12,1.76,1.51,3.86.53,2.94a1.76,1.76,0,0,1-.3-.37c-1.16-1.74-1.61-3.91-.69-3.13A2.63,2.63,0,0,1,151.09,195Z" transform="translate(-33.45 -27.08)"/><path class="cls-18" d="M103.11,218.32c4.51,7.34,13.64,9.73,18.19,9.84,10.91.27,33.74-10.55,25-33.31C138.71,196,102.76,216.38,103.11,218.32Z" transform="translate(-33.45 -27.08)"/><path class="cls-11" d="M103.26,218.26a24.17,24.17,0,0,0,14.63,8.11,20.47,20.47,0,0,0,4.1.35,26.65,26.65,0,0,0,4.12-.51,41.21,41.21,0,0,0,8.13-2.5,25.16,25.16,0,0,0,7.26-4.64,17.92,17.92,0,0,0,2.81-3.28c.43-.59.75-1.23,1.12-1.85a18.37,18.37,0,0,0,.86-2,17.5,17.5,0,0,0,1-4.16,19.07,19.07,0,0,0,.09-2.13V204.6l-.11-1.06a29.4,29.4,0,0,0-2.23-8.17l1.54.91a16.87,16.87,0,0,0-2.66.85c-.93.36-1.85.76-2.77,1.19-1.83.84-3.68,1.73-5.49,2.66l-11,5.58-5.48,2.82-5.47,2.84c-1.82,1-3.64,1.91-5.44,2.91-.91.49-1.81,1-2.69,1.5-.44.27-.87.53-1.29.81a5.73,5.73,0,0,0-.62.44l-.26.23C103.34,218.16,103.29,218.31,103.26,218.26Zm-.3.11a.59.59,0,0,1,0-.19.65.65,0,0,1,0-.13,1.8,1.8,0,0,1,.11-.2,2.93,2.93,0,0,1,.24-.34,7.7,7.7,0,0,1,.54-.6c.38-.37.77-.72,1.16-1.07.79-.68,1.61-1.33,2.43-2,1.66-1.26,3.35-2.46,5.07-3.63s3.47-2.28,5.22-3.39,3.54-2.16,5.34-3.2c3.58-2.08,7.25-4,11-5.78,1.9-.88,3.8-1.73,5.75-2.5,1-.39,2-.76,3-1.1a18.48,18.48,0,0,1,3.28-.83l1.16-.16.38,1.07a24.31,24.31,0,0,1-.34,18,22.53,22.53,0,0,1-2.21,4,26.88,26.88,0,0,1-2.86,3.51,34.57,34.57,0,0,1-7.07,5.71,28.21,28.21,0,0,1-8.5,3.5,21.3,21.3,0,0,1-4.67.54,19.21,19.21,0,0,1-4.7-.58,28,28,0,0,1-4.4-1.46,24.26,24.26,0,0,1-4-2.28A17.59,17.59,0,0,1,103,218.37Z" transform="translate(-33.45 -27.08)"/><path class="cls-18" d="M66.9,111.89,57.69,108c-2.56-.9-5.33.22-7.36.07C48,107.9,46,107,44.5,107.43c-5.27,1.67-4.59,8.44.31,13.79a19.24,19.24,0,0,0,15,6.15Z" transform="translate(-33.45 -27.08)"/><path class="cls-11" d="M66.75,112c-2.61-.72-4.9-1.27-7-1.91-.52-.16-1-.31-1.55-.48a10.71,10.71,0,0,0-1.41-.43,10,10,0,0,0-3,.08l-1.77.25c-.32,0-.65.05-1,.05a6.09,6.09,0,0,1-1.06-.07,23.12,23.12,0,0,1-3.52-1,5,5,0,0,0-1.42-.25,2.48,2.48,0,0,0-.69.14l-.37.1-.34.17a3.68,3.68,0,0,0-2,2.25,6.13,6.13,0,0,0-.05,3.24,11.58,11.58,0,0,0,.54,1.6,12.48,12.48,0,0,0,.82,1.47,18.19,18.19,0,0,0,4.66,4.72,18,18,0,0,0,5.79,2.88,20.29,20.29,0,0,0,3.17.66,14.3,14.3,0,0,0,1.59.17c.52,0,1.11,0,1.51,0l-1.39,1C60.58,122,63.41,117.45,66.75,112Zm.31-.11a147.68,147.68,0,0,1-5.71,16.26L61,129l-1,.09a15.52,15.52,0,0,1-2,0c-.65,0-1.28-.09-1.92-.19a19.75,19.75,0,0,1-10.22-4.9,18,18,0,0,1-4.25-6.14,14.67,14.67,0,0,1-1.06-3.55,8.8,8.8,0,0,1,.13-3.75,5.93,5.93,0,0,1,2.22-3.19l.41-.29.44-.23a4.25,4.25,0,0,1,1-.42,6.39,6.39,0,0,1,2.1-.14c1.29.1,2.4.29,3.43.32a27.54,27.54,0,0,0,3.2-.32,10.45,10.45,0,0,1,4,.19,10.12,10.12,0,0,1,1.89.81c.58.29,1.14.6,1.7.9C63.27,109.43,65.33,110.72,67.06,111.84Z" transform="translate(-33.45 -27.08)"/><path class="cls-18" d="M62.15,136.75l-9.89.52c-2.68.32-4.81,2.57-6.73,3.33-2.18.88-4.35.9-5.58,2-4.23,3.86-1.12,9.73,5.34,12.44,8.42,3.54,16-1,16-1Z" transform="translate(-33.45 -27.08)"/><path class="cls-11" d="M62,136.87c-2.67.49-5,1-7.09,1.35-.54.08-1.07.18-1.6.25l-.79.09a4.82,4.82,0,0,0-.65.15,10.64,10.64,0,0,0-2.7,1.41A14.56,14.56,0,0,1,45.89,142a21.3,21.3,0,0,1-3.59.72,6,6,0,0,0-1.43.37,4.34,4.34,0,0,0-1.16.9,4,4,0,0,0-1.18,2.82,5.58,5.58,0,0,0,1,3,9.33,9.33,0,0,0,2.36,2.33A16,16,0,0,0,48,154.54a16.66,16.66,0,0,0,6.41,0,20.87,20.87,0,0,0,3.11-.8c.51-.18,1-.35,1.51-.57a14,14,0,0,0,1.38-.63L59.57,154C60,148.63,61,143.34,62,136.87Zm.23-.24A152.26,152.26,0,0,1,63,154.12l0,.91-.81.48a13,13,0,0,1-1.78.9,16.18,16.18,0,0,1-1.8.67,19.53,19.53,0,0,1-11.29.09,16.35,16.35,0,0,1-6.39-3.87,13.58,13.58,0,0,1-2.31-2.91,7.86,7.86,0,0,1-1.1-3.59,6.44,6.44,0,0,1,1-3.72,6.24,6.24,0,0,1,.59-.79,3.19,3.19,0,0,1,.75-.77,7.57,7.57,0,0,1,1.81-1c1.18-.45,2.25-.78,3.18-1.21s1.71-1.06,2.75-1.69a10.9,10.9,0,0,1,3.65-1.57,5.37,5.37,0,0,1,1.08-.13h1c.65,0,1.29,0,1.93.06C57.83,136.13,60.25,136.4,62.26,136.63Z" transform="translate(-33.45 -27.08)"/><path class="cls-18" d="M58.08,165.14l-9.88.52c-2.68.32-4.81,2.57-6.73,3.33-2.18.88-4.36.9-5.58,2-4.23,3.87-1.12,9.73,5.34,12.45,8.42,3.54,16-1,16-1Z" transform="translate(-33.45 -27.08)"/><path class="cls-11" d="M58,165.25c-2.67.49-4.95,1-7.1,1.35-.53.09-1.07.19-1.59.25l-.79.1a2.83,2.83,0,0,0-.65.15,10.64,10.64,0,0,0-2.7,1.41,15,15,0,0,1-3.31,1.86,20.53,20.53,0,0,1-3.59.72,6,6,0,0,0-1.44.38,4.47,4.47,0,0,0-2.34,3.72,5.64,5.64,0,0,0,1,3.05,9.46,9.46,0,0,0,2.36,2.32,16,16,0,0,0,6.11,2.37,17.11,17.11,0,0,0,6.42,0,22.21,22.21,0,0,0,3.11-.81c.51-.17,1-.35,1.51-.56s1-.44,1.38-.64l-.83,1.39C55.94,177,56.93,171.73,58,165.25Zm.23-.23A150.16,150.16,0,0,1,59,182.51l0,.91-.81.48a13,13,0,0,1-1.78.9,17,17,0,0,1-1.8.67,17.54,17.54,0,0,1-3.73.77,17.9,17.9,0,0,1-7.56-.68,16.35,16.35,0,0,1-6.39-3.87,13.58,13.58,0,0,1-2.31-2.91,7.82,7.82,0,0,1-1.1-3.59,6.32,6.32,0,0,1,1-3.71,6.52,6.52,0,0,1,.58-.8,3.58,3.58,0,0,1,.75-.76,7.64,7.64,0,0,1,1.81-1c1.19-.45,2.26-.78,3.19-1.21s1.71-1.05,2.75-1.69a10.9,10.9,0,0,1,3.65-1.57,5.29,5.29,0,0,1,1.08-.13h1c.65,0,1.29,0,1.93.06C53.77,164.52,56.18,164.78,58.2,165Z" transform="translate(-33.45 -27.08)"/><path class="cls-18" d="M148.35,187.25l-.31-17c-1-7-1.86-12.7-2.73-21.4L125.38,99.77s0-3.89-8.71-8.23-20.19,56.63-20.19,56.63L79.06,196s-.19,8,15.41,20.63c6.52,5.3,26.75.3,26.75.3s14.89-2.53,23.15-15C144.37,202,148.22,192.66,148.35,187.25Z" transform="translate(-33.45 -27.08)"/><path class="cls-11" d="M148.18,187.25l-.19-8.5-.29-8.5v0c-1.27-7.08-2.46-14.2-3.39-21.35l.07.28c-1.8-4-3.59-8.08-5.31-12.14S135.65,129,134,124.85l-2.48-6.14-2.41-6.16-4.71-12.38-.08-.39c0,.06,0,0,0-.09a1.33,1.33,0,0,0,0-.19,4.29,4.29,0,0,0-.13-.44,8.15,8.15,0,0,0-.45-.88,8.85,8.85,0,0,0-1.32-1.65,19.54,19.54,0,0,0-3.45-2.78c-.64-.41-1.28-.81-2-1.17l-.5-.28-.12-.06-.09,0-.17-.07a1.51,1.51,0,0,0-.73,0,3.86,3.86,0,0,0-1.58,1.11A11.33,11.33,0,0,0,112.42,95a45.4,45.4,0,0,0-3.92,8.3c-1.09,2.88-2.06,5.83-2.92,8.8-1.75,5.94-3.23,12-4.51,18s-2.48,12.15-3.51,18.25v.07l0,.1q-2,6-4.14,12c-1.4,4-2.76,8-4.19,12l-8.51,24,.11-.54s0,.32.07.5.09.45.17.67c.11.47.3.93.46,1.41a21.49,21.49,0,0,0,1.36,2.77,34.79,34.79,0,0,0,3.71,5.2c.69.82,1.43,1.61,2.17,2.4s1.51,1.58,2.32,2.31,1.58,1.52,2.42,2.22l1.25,1.07c.41.34.87.76,1.18,1a12.43,12.43,0,0,0,5.56,1.7,40.41,40.41,0,0,0,6.43.15A92.93,92.93,0,0,0,121,215.78l.09,0a37,37,0,0,0,6.57-1.77,39.64,39.64,0,0,0,6.25-3c1-.56,1.95-1.23,2.91-1.88.47-.34.92-.7,1.38-1.06l.68-.53.64-.59c.42-.39.86-.78,1.28-1.18l1.18-1.28c.2-.21.4-.42.59-.64l.53-.69,1.07-1.38,0,.06a76,76,0,0,0,2.64-7.17c.36-1.21.71-2.44,1-3.68A25.78,25.78,0,0,0,148.18,187.25Zm.33,0a23.06,23.06,0,0,1-.48,3.82c-.24,1.26-.57,2.5-.92,3.74-.71,2.46-1.5,4.89-2.42,7.3v0l0,0a34.65,34.65,0,0,1-4.47,5.57l-.63.65-.67.6c-.44.39-.89.8-1.35,1.18-1,.73-1.89,1.48-2.9,2.13a42.46,42.46,0,0,1-6.3,3.49,38.23,38.23,0,0,1-6.91,2.35h.09c-2.22.61-4.42,1.08-6.66,1.48a66.73,66.73,0,0,1-6.79.91,42.53,42.53,0,0,1-7,0,21.51,21.51,0,0,1-3.58-.63A11.69,11.69,0,0,1,94,218.37a17.3,17.3,0,0,1-1.44-1.14l-1.31-1.09c-.89-.72-1.7-1.53-2.56-2.28s-1.65-1.6-2.46-2.4-1.57-1.69-2.32-2.58a38.63,38.63,0,0,1-4.06-5.73,23.82,23.82,0,0,1-1.58-3.25,17,17,0,0,1-.56-1.79,9.39,9.39,0,0,1-.2-1,8,8,0,0,1-.11-1.17v-.26l.11-.28L86.4,171.6c1.48-4,3-7.94,4.51-11.91s3-7.94,4.58-11.89l0,.18c1.33-6.1,2.76-12.14,4.28-18.17s3.13-12,4.93-18c.91-3,1.83-5.95,2.9-8.88a53.6,53.6,0,0,1,3.83-8.61,13.88,13.88,0,0,1,1.41-2,5.11,5.11,0,0,1,2.13-1.6,3.08,3.08,0,0,1,1.57-.09l.37.14a1.48,1.48,0,0,1,.32.13l.53.27c.72.35,1.41.73,2.11,1.13a21.88,21.88,0,0,1,3.91,2.86,11.38,11.38,0,0,1,1.67,1.91,7.27,7.27,0,0,1,.66,1.16,5.66,5.66,0,0,1,.25.66c0,.12.07.24.1.37a2.18,2.18,0,0,1,.06.48l-.08-.39,5.25,12.16,2.57,6.1,2.51,6.12q2.49,6.13,4.88,12.31c1.59,4.12,3.13,8.26,4.65,12.4l.06.16v.12q.36,5.37.89,10.73c.36,3.57.77,7.14,1.19,10.72v8.55Z" transform="translate(-33.45 -27.08)"/><path class="cls-18" d="M117.73,167.69a14.12,14.12,0,0,0,1.42-1.61,33,33,0,0,1,5-4.81l-1.54-19.43s-4.87-.41-10.71-5.23a32.68,32.68,0,0,1-2.52-2.31,11.79,11.79,0,0,1-3.7-7.79,7.83,7.83,0,0,1,.36-3.17c-1.33,1.74-2.82,5.11,0,10.95a23.46,23.46,0,0,0,3.32,5.14,25.4,25.4,0,0,0,8.59,6.68Z" transform="translate(-33.45 -27.08)"/><path class="cls-11" d="M117.79,167.54a.19.19,0,0,0-.13,0l0,0v0l0,0,0-.06.08-.11.16-.23.32-.47.61-1c.45-.66.91-1.26,1.4-1.87s1-1.19,1.56-1.75a22.09,22.09,0,0,1,1.73-1.62l-.42.92c-.22-1.62-.44-3.22-.62-4.84s-.38-3.23-.53-4.84-.31-3.24-.4-4.86-.16-3.25-.17-4.88l1.13,1.14a8.78,8.78,0,0,1-1.87-.5c-.58-.2-1.14-.43-1.69-.68a27.76,27.76,0,0,1-3.13-1.72,35.86,35.86,0,0,1-5.5-4.36,16.71,16.71,0,0,1-4.43-5.5,11.23,11.23,0,0,1-1-3.54,15.51,15.51,0,0,1-.12-1.84,7.68,7.68,0,0,1,.29-2l1.89,1a6.82,6.82,0,0,0-1,2.83,9,9,0,0,0,.17,3,18.46,18.46,0,0,0,2.7,6,26.48,26.48,0,0,0,4.4,5,32.89,32.89,0,0,0,2.63,2.08c.46.32.93.62,1.39.91s1,.57,1.39.77l1,.51,0,1c-.08,1.67-.18,3.34-.31,5s-.3,3.37-.49,5.14-.39,3.57-.56,5.44S117.93,165.53,117.79,167.54Zm-.12.3c-.1-1.58-.19-3.27-.34-5l-.43-5.35c-.16-1.83-.26-3.74-.38-5.65s-.14-3.85-.19-5.78l1,1.54a19,19,0,0,1-1.8-.87c-.56-.31-1.11-.62-1.64-1a26,26,0,0,1-3-2.3A24.93,24.93,0,0,1,106,137.6a23.29,23.29,0,0,1-1.7-3.43,17.54,17.54,0,0,1-1.06-3.77,10.9,10.9,0,0,1,.13-4.06,8.61,8.61,0,0,1,1.86-3.66l4.77-5.44-2.87,6.46a5.07,5.07,0,0,0-.41,1.39,11.67,11.67,0,0,0-.11,1.59,8.88,8.88,0,0,0,.54,3.12,12.6,12.6,0,0,0,3.88,5.3l1.26,1.13c.45.34.89.7,1.37,1a21.09,21.09,0,0,0,2.92,1.66,19.4,19.4,0,0,0,3.11,1.16,15,15,0,0,0,1.58.37,9.8,9.8,0,0,0,1.49.19l1,0,.16,1.11c.24,1.61.45,3.23.6,4.85s.26,3.24.37,4.86.18,3.25.23,4.87.11,3.25.14,4.88l0,.63-.43.3c-.61.4-1.22.81-1.81,1.26s-1.16.92-1.74,1.4-1.14,1-1.69,1.49c-.26.24-.54.55-.83.8l-.45.37-.23.18-.11.09-.06,0,0,0h0l0,0A.25.25,0,0,1,117.67,167.84Z" transform="translate(-33.45 -27.08)"/><path class="cls-18" d="M131.31,209.56A39.5,39.5,0,0,0,148,188.32c5.09-15.43-7.05-63.89-7.05-63.89s-.23-4.75-7.12-3.74-14.18-.9-19.76-3.74c-7.26-3.68-13.76,8.48-5.08,17.28,6.9,7,13.22,7.54,13.22,7.54l1.61,19.32c-17.27,12.75-34.44,61.34-9,55C122.44,214.16,131.31,209.56,131.31,209.56Z" transform="translate(-33.45 -27.08)"/><path class="cls-11" d="M131.23,209.43a35,35,0,0,0,8.6-7.5c.64-.71,1.19-1.5,1.77-2.25s1.08-1.58,1.56-2.39a36.12,36.12,0,0,0,2.57-5.08l.54-1.31c.17-.44.3-.9.45-1.35l.44-1.35c.13-.44.22-.89.32-1.33a33.18,33.18,0,0,0,.57-5.57c0-1.88,0-3.77-.13-5.67s-.26-3.79-.44-5.68c-.72-7.58-1.88-15.15-3.09-22.71s-2.56-15.14-4.16-22.64v-.13a3.39,3.39,0,0,0-.62-1.66,3.68,3.68,0,0,0-1.44-1.17,7.74,7.74,0,0,0-4-.43,31.28,31.28,0,0,1-4.45.28,33,33,0,0,1-4.44-.37,39.83,39.83,0,0,1-8.57-2.33c-.69-.26-1.37-.56-2-.87l-1-.46a6.55,6.55,0,0,0-.93-.35,5,5,0,0,0-1.92-.12,4.88,4.88,0,0,0-1.77.67,6.67,6.67,0,0,0-2.5,3,9.55,9.55,0,0,0-.81,3.91A12,12,0,0,0,108.5,132a19.59,19.59,0,0,0,1.39,1.5c.53.46,1,1,1.58,1.41a29,29,0,0,0,3.38,2.48,26.15,26.15,0,0,0,3.68,1.9,16.16,16.16,0,0,0,1.92.66c.33.1.65.18,1,.25s.67.13.88.15l1.21.09.12,1.24,1.8,19.31.08.9-.75.57a39.76,39.76,0,0,0-7.3,7.67,75.3,75.3,0,0,0-5.81,9.15,79.5,79.5,0,0,0-4.57,9.87,66.72,66.72,0,0,0-3.16,10.35,38.44,38.44,0,0,0-.76,5.3,19.15,19.15,0,0,0,.29,5.2,7.9,7.9,0,0,0,2.3,4.32,7.52,7.52,0,0,0,4.66,1.72,18.44,18.44,0,0,0,5.34-.66,49.48,49.48,0,0,0,5.29-1.6A89.09,89.09,0,0,0,131.23,209.43Zm.15.28c-3.3,1.71-6.69,3.22-10.13,4.62q-2.59,1-5.27,1.88a20.74,20.74,0,0,1-5.59,1.07,9,9,0,0,1-5.7-1.66,9.91,9.91,0,0,1-3.28-5.08,26.9,26.9,0,0,1-.32-11.56,71.09,71.09,0,0,1,7.51-21.35,70.15,70.15,0,0,1,6.1-9.61,40.2,40.2,0,0,1,8.09-8.24l-.66,1.47-1.43-19.34,1.34,1.34a14,14,0,0,1-2.43-.57,20.56,20.56,0,0,1-2.19-.83,24.84,24.84,0,0,1-4-2.25,31.86,31.86,0,0,1-3.57-2.85c-.57-.5-1.09-1.06-1.62-1.59a18.71,18.71,0,0,1-1.5-1.81,13.89,13.89,0,0,1-2.79-8.86,11.17,11.17,0,0,1,1.17-4.57,8.28,8.28,0,0,1,3.24-3.5,6.07,6.07,0,0,1,2.33-.75,6.19,6.19,0,0,1,2.43.26,7.65,7.65,0,0,1,1.1.44l1,.49c.65.32,1.31.62,2,.9a34.71,34.71,0,0,0,8.3,2.37,28.24,28.24,0,0,0,8.61,0,8.85,8.85,0,0,1,4.62.39,4.84,4.84,0,0,1,2.95,3.87v-.13q3.06,11.16,5.43,22.49a175,175,0,0,1,3.23,23,77.36,77.36,0,0,1-.09,11.69,34.65,34.65,0,0,1-1,5.85c-.15.48-.29,1-.46,1.44l-.57,1.36c-.19.45-.36.9-.57,1.35l-.65,1.32a42.23,42.23,0,0,1-6.61,9.56A40.25,40.25,0,0,1,131.38,209.71Z" transform="translate(-33.45 -27.08)"/><path class="cls-18" d="M101.61,203.26c-.92,5.42,1.63,10.57,6.41,12.32a7.14,7.14,0,0,0,.82.26.4.4,0,0,0,.5-.36c-1-9.11,3.23-32,8.37-38.23a70.94,70.94,0,0,0,4.34-6.45l.52-.78,4.52-6.64a.37.37,0,0,0,.08-.26L126.69,144c-.08-1.29-.63-2.86-.08-4.08l1.75-3.89a.62.62,0,0,0-1-.7l-2.55,2.49a2.92,2.92,0,0,1-3.11.72,58.4,58.4,0,0,1-8.23-4.2l-1.64-1a19.58,19.58,0,0,1-5.66-5.35c-.23-.33-.77,0-.67.37a12.62,12.62,0,0,0,3.46,5.88,28.84,28.84,0,0,0,2.51,2.3c5,4.15,9.35,5,10.43,5.2a.36.36,0,0,1,.29.32l1.57,18.81a.46.46,0,0,1-.17.38,32.13,32.13,0,0,0-4.83,4.61c-.81.93-1.71,1.81-2.5,2.87a81.1,81.1,0,0,0-14.64,34.53Z" transform="translate(-33.45 -27.08)"/><path class="cls-11" d="M101.77,203.29a12.09,12.09,0,0,0,.75,6.63,9.41,9.41,0,0,0,4.48,4.74,5,5,0,0,0,.75.33,5,5,0,0,0,.77.25l.39.11h0s0,0-.07.09,0,.05,0,.08,0-.05,0-.07l0-.43c-.16-1.17-.21-2.33-.28-3.49,0-2.33,0-4.65.2-7s.4-4.62.76-6.91.76-4.57,1.33-6.83a62,62,0,0,1,1.95-6.72,30.59,30.59,0,0,1,3.09-6.5l.56-.77.28-.38.28-.32c.34-.41.69-.84,1-1.28.66-.88,1.29-1.81,1.93-2.77,1.28-1.95,2.69-3.77,4-5.63l2-2.79.51-.69c0-.05,0,.06,0,.09a.28.28,0,0,0,0,.08v-2.25l0-6.87c0-2.3-.07-4.59-.14-6.87,0-1.13,0-2.32-.12-3.4a10.1,10.1,0,0,1-.21-3.62,4,4,0,0,1,.17-.49l.17-.39.35-.79.67-1.57.34-.79.08-.2.06-.15h0s0,.06,0,.06,0,0,0,0l-.29.3-1.19,1.24-.6.62a6.83,6.83,0,0,1-.66.65,3.85,3.85,0,0,1-1.95.92,3.48,3.48,0,0,1-1.68-.14l-.44-.16a59.93,59.93,0,0,1-6.36-2.91c-1-.54-2-1.11-3-1.69a23.25,23.25,0,0,1-3-2,18.78,18.78,0,0,1-2.64-2.56c-.2-.23-.39-.47-.58-.71l-.27-.37-.07-.09,0-.05s0,0,0,0a1.11,1.11,0,0,0,.57.38,1,1,0,0,0,1.26-.72.84.84,0,0,0,0-.27.61.61,0,0,0,0-.14s0-.08,0-.05c.06.23.14.47.22.71a11.94,11.94,0,0,0,3.53,4.95l1.22,1.09.62.55.64.5a28,28,0,0,0,2.69,1.8,20.11,20.11,0,0,0,5.85,2.33l.36.07h.13a1,1,0,0,1,.24,0,2,2,0,0,1,1.08.72,2,2,0,0,1,.43,1.11l0,.21,0,.42.15,1.71.3,3.43.57,6.85.25,3.43.12,1.71.07.86,0,.33a2.18,2.18,0,0,1-.25,1,1.73,1.73,0,0,1-.3.41,1.07,1.07,0,0,1-.19.18l-.12.1-.17.12a36.56,36.56,0,0,0-4.76,4.51c-.81.87-1.6,1.65-2.2,2.43s-1.37,1.8-2,2.71c-1.32,1.84-2.6,3.69-3.8,5.61a76.4,76.4,0,0,0-6.15,12.14A65.71,65.71,0,0,0,101.77,203.29Zm-.32,0a95.08,95.08,0,0,1,8.3-26.3c1-2.08,2.15-4.13,3.38-6.1.62-1,1.24-2,1.88-2.94s1.58-1.93,2.3-2.77a32.28,32.28,0,0,1,5.06-5.06l.18-.14,0,0-.11.1a2.2,2.2,0,0,0-.17.25,1.34,1.34,0,0,0-.15.61c0,.08,0,.11,0,.06v-.16L122,160l-.16-1.71-.32-3.42-.57-6.85-.28-3.42-.13-1.72,0-.43,0-.21a1.41,1.41,0,0,0,.29.71,1.36,1.36,0,0,0,.72.48.7.7,0,0,0,.14,0h-.06l-.13,0-.48-.1a23.27,23.27,0,0,1-6.8-2.88,31,31,0,0,1-3-2.09l-.7-.57-.66-.61-1.31-1.24a14.52,14.52,0,0,1-4.15-6.25c-.1-.31-.18-.63-.25-.95l0-.16a2,2,0,0,1,0-.24,1.69,1.69,0,0,1,.06-.49,1.71,1.71,0,0,1,.46-.82,1.79,1.79,0,0,1,1.79-.51,1.65,1.65,0,0,1,.92.62l.16.21.23.33c.15.21.3.43.48.64a18.9,18.9,0,0,0,4.78,4.28c.93.63,1.88,1.25,2.85,1.83a57.71,57.71,0,0,0,6,3.19l.36.15a2.14,2.14,0,0,0,.27.09,1.85,1.85,0,0,0,.58,0,2.21,2.21,0,0,0,1.15-.46c.15-.12.38-.35.59-.53l.63-.59,1.25-1.17.32-.3a1.44,1.44,0,0,1,.75-.37,1.27,1.27,0,0,1,1.36,1.73,1.58,1.58,0,0,1-.1.24l-.09.2-.38.77L127.7,139l-.37.77-.18.39a3.32,3.32,0,0,0-.12.32,8.74,8.74,0,0,0,.16,3.21c.07,1.21.06,2.31.09,3.46,0,2.3.14,4.58.21,6.87l.3,6.86.1,1.71,0,.44v.11a1,1,0,0,1,0,.29,1.2,1.2,0,0,1-.21.48l-.46.72-1.83,2.91c-1.2,1.94-2.47,3.84-3.58,5.8-.57,1-1.16,2-1.81,3-.32.49-.66,1-1,1.47l-.27.36-.21.32-.42.63a35.12,35.12,0,0,0-2.63,6c-.69,2.13-1.34,4.27-1.91,6.46-1.11,4.37-2.11,8.8-2.83,13.28-.39,2.23-.63,4.48-.81,6.74,0,1.13-.11,2.25-.06,3.37v.56a1.1,1.1,0,0,1,0,.31.9.9,0,0,1-.32.41,1,1,0,0,1-.43.17.64.64,0,0,1-.24,0l-.12,0-.06,0-.42-.15a5.18,5.18,0,0,1-.84-.36,6.59,6.59,0,0,1-.79-.41,10.52,10.52,0,0,1-4.49-5.3A12.58,12.58,0,0,1,101.45,203.24Z" transform="translate(-33.45 -27.08)"/><path class="cls-18" d="M117.07,123.91c1.73-1.37,2.13-3.17,2.44-5a24.18,24.18,0,0,1-5.57-2.15,4.72,4.72,0,0,0-4.15-.31,4.44,4.44,0,0,0-1.77,3C107.84,121.54,117.07,123.91,117.07,123.91Z" transform="translate(-33.45 -27.08)"/><path class="cls-11" d="M117,123.75c.09-.45.34-.89.45-1.32a7,7,0,0,0,.27-1.23c.14-.81.2-1.65.31-2.58l1.08,1.65a7.05,7.05,0,0,1-2.5-1c-.76-.52-1.48-1.11-2.22-1.62a3.62,3.62,0,0,0-2.19-.9,3.52,3.52,0,0,0-2,.75l.31-.17a3.86,3.86,0,0,0-.85,2.21c0,.09,0-.06,0-.13s0-.13,0-.19,0-.11,0-.1l.34.24c.33.21.77.48,1.22.73l2.91,1.67c.49.3,1,.6,1.5.93.25.16.49.35.75.52l.37.27.19.15.09.07,0,0h0Zm.06.31h-.19l-.13,0a1.6,1.6,0,0,0-.23,0l-.48,0c-.31,0-.62,0-.93,0a15.91,15.91,0,0,1-1.83-.12,14.2,14.2,0,0,1-3.61-.92,7.58,7.58,0,0,1-1.8-1,4.7,4.7,0,0,1-.94-1,3.7,3.7,0,0,1-.44-.85,2.87,2.87,0,0,1-.12-.61,2.16,2.16,0,0,1,0-.57,5,5,0,0,1,2.66-3.64l.3-.17a6.73,6.73,0,0,1,3,.21,8.85,8.85,0,0,1,1.34.5,8,8,0,0,0,1.18.54,10.11,10.11,0,0,0,2.52.39,11.18,11.18,0,0,1,2.41.47l1.32.43-.25,1.22a8.68,8.68,0,0,1-1.13,3,4.94,4.94,0,0,1-1.15,1.26A3.8,3.8,0,0,1,117.1,124.06Z" transform="translate(-33.45 -27.08)"/><path class="cls-18" d="M136.37,121.14a.34.34,0,0,0-.62-.1h0a37.76,37.76,0,0,0-1.54,5c.14.1.64-.67.71-.79C135.76,124,136.61,122.38,136.37,121.14Z" transform="translate(-33.45 -27.08)"/><path class="cls-11" d="M136.2,121.18c0-.18-.29,0-.12.1l.06,0c.08-.1.05,0,.08,0l.09.21.19.44a1.25,1.25,0,0,1-.17,1.46c-.35.39-1,.68-1.24,1.11a1.58,1.58,0,0,0,0,1.42s.06.11.1,0a.22.22,0,0,0,0-.08v0s0,0,0-.12a.92.92,0,0,0-.39-.55.87.87,0,0,0-.4-.18.71.71,0,0,0-.2,0h-.11l-.21,0-.17.06c-.13,0-.14,0-.16,0s0-.07,0-.12a2.24,2.24,0,0,1,.16-.63,4.48,4.48,0,0,1,.47-1.2,2.22,2.22,0,0,1,.4-.47,2.76,2.76,0,0,1,.67-.36,3.09,3.09,0,0,0,.72-.47A.68.68,0,0,0,136.2,121.18Zm.33-.07a15,15,0,0,0,.77,1.75,2.35,2.35,0,0,1,.18,1,3,3,0,0,1-.22.85,3.91,3.91,0,0,1-1,1.31,4.23,4.23,0,0,1-.68.55l-.24.16-.43.23-.26.09a.74.74,0,0,1-.25,0h-.13l-.23,0a1.17,1.17,0,0,1-.44-.2,1.16,1.16,0,0,1-.4-.59c0-.14,0-.12,0-.15V126a.84.84,0,0,1,.15-.34,2.51,2.51,0,0,0,.77-1.39,10.6,10.6,0,0,0-.35-1.65,1.3,1.3,0,0,1,.79-1.29l.43-.25.22-.12c.05,0,0,0,.15-.15a.48.48,0,0,1,.17-.1A.69.69,0,0,1,136.53,121.11Z" transform="translate(-33.45 -27.08)"/><rect class="cls-4" x="219.74" y="203.69" width="17.13" height="14.68"/><rect class="cls-4" x="220.55" y="202.88" width="16.31" height="4.89"/><path class="cls-2" d="M122.31,221.55H46.17a3.67,3.67,0,0,1-3.67-3.67V79.64A3.67,3.67,0,0,1,46.17,76h76.14A3.67,3.67,0,0,1,126,79.64V217.88A3.67,3.67,0,0,1,122.31,221.55Z" transform="translate(-33.45 -27.08)"/><g class="cls-19"><path class="cls-2" d="M86.36,157.28l1.85,1.65h0Zm-1.85,0-1.85,1.65h0Zm6.23-4.93L92.59,154h0Zm.31-.7-2.46-.24.22-2.23h2.24Zm-11.23,0v-2.47h2.24l.22,2.23Zm.3.7L78.28,154h0Zm8.09,6.58a3.72,3.72,0,0,1-5.55,0l3.7-3.29a1.24,1.24,0,0,0-1.85,0ZM92.59,154l-4.38,4.94-3.7-3.29,4.39-4.94Zm.92-2.11a3.69,3.69,0,0,1-.92,2.11L88.9,150.7a1.28,1.28,0,0,0-.31.71Zm21,2.24H91.05v-4.94h23.51Zm4.94-4.94a4.94,4.94,0,0,1-4.94,4.94v-4.94h4.94Zm0-47.81v47.81h-4.94V101.37Zm-4.94-4.94a4.94,4.94,0,0,1,4.94,4.94h-4.94Zm-61,0h61v4.94h-61Zm-4.94,4.94a4.94,4.94,0,0,1,4.94-4.94v4.94H48.63Zm0,47.81V101.37h4.94v47.81Zm4.94,4.94a4.94,4.94,0,0,1-4.94-4.94h4.94Zm26.25,0H53.57v-4.94H79.82ZM78.28,154a3.7,3.7,0,0,1-.93-2.11l4.93-.47a1.28,1.28,0,0,0-.31-.71Zm4.38,4.94L78.28,154,82,150.7l4.39,4.94Z" transform="translate(-33.45 -27.08)"/></g><path class="cls-2" d="M68,123.49a2.41,2.41,0,0,1-2-.75,3.16,3.16,0,0,1-.62-2.06v-.15a2.94,2.94,0,0,1,.73-2.11,2.45,2.45,0,0,1,1.86-.78c1.37,0,2.12.58,2.24,1.73H68.61a.61.61,0,0,0-.15-.3.54.54,0,0,0-.37-.11c-.57,0-.87.45-.9,1.36a1.37,1.37,0,0,1,.51-.48,1.57,1.57,0,0,1,.79-.17,2,2,0,0,1,1.34.47,1.68,1.68,0,0,1,.54,1.35,1.81,1.81,0,0,1-.64,1.45A2.57,2.57,0,0,1,68,123.49ZM67.48,122a.6.6,0,0,0,.48.21.61.61,0,0,0,.49-.21.76.76,0,0,0,.18-.53.72.72,0,0,0-.18-.51.6.6,0,0,0-.48-.21.64.64,0,0,0-.49.21.84.84,0,0,0,0,1Zm5.7,1.47c-1.56,0-2.37-.67-2.43-2h1.59c0,.48.28.72.73.72s.64-.19.64-.57-.22-.58-.67-.58h-.45V120H73c.46,0,.69-.18.69-.57a.43.43,0,0,0-.15-.35.61.61,0,0,0-.42-.14c-.38,0-.6.23-.67.67H70.89a2,2,0,0,1,.64-1.42,2.43,2.43,0,0,1,1.65-.52,2.74,2.74,0,0,1,1.62.42,1.33,1.33,0,0,1,.58,1.15,1.19,1.19,0,0,1-1,1.22,1.33,1.33,0,0,1,.8.42,1.16,1.16,0,0,1,.31.83,1.58,1.58,0,0,1-.61,1.32A2.66,2.66,0,0,1,73.18,123.49Zm4.57-.1v-5.66h2l1.6,3v-3h1.58v5.66H81.22L79.33,120v3.39Zm9-1.31a1,1,0,0,0,.84-.4,1.72,1.72,0,0,0,.32-1.1v-.06a1.69,1.69,0,0,0-.32-1.09,1,1,0,0,0-.85-.39,1,1,0,0,0-.84.39,1.67,1.67,0,0,0-.31,1.09v.06a1.73,1.73,0,0,0,.31,1.11A1,1,0,0,0,86.71,122.08Zm0,1.41a3,3,0,0,1-2.19-.8,2.81,2.81,0,0,1-.81-2.1v-.06a2.7,2.7,0,0,1,.87-2.09,3.05,3.05,0,0,1,2.16-.8,3.12,3.12,0,0,1,2.18.77,2.62,2.62,0,0,1,.85,2.07v.06a2.82,2.82,0,0,1-.83,2.14A3.09,3.09,0,0,1,86.67,123.49Zm4.47-.1-1.31-5.66h1.81l.65,3.38.68-3.38h1.56l.77,3.42.68-3.42h1.67l-1.32,5.66H94.52L93.73,120l-.8,3.38Zm7.11,0v-5.66h4v1.37H100v.8h1.78v1.26H100V122h2.36v1.38Zm-27.11,7.69a1,1,0,0,0,.84-.4,1.72,1.72,0,0,0,.32-1.1v-.06a1.69,1.69,0,0,0-.32-1.09,1,1,0,0,0-.85-.39,1,1,0,0,0-.84.39,1.67,1.67,0,0,0-.31,1.09v.06a1.73,1.73,0,0,0,.31,1.11A1,1,0,0,0,71.14,131.08Zm0,1.41a3,3,0,0,1-2.19-.8,2.8,2.8,0,0,1-.8-2.1v-.06a2.69,2.69,0,0,1,.86-2.09,3.05,3.05,0,0,1,2.16-.8,3.12,3.12,0,0,1,2.18.77,2.61,2.61,0,0,1,.86,2.07v.06a2.83,2.83,0,0,1-.84,2.14A3.09,3.09,0,0,1,71.1,132.49Zm3.8-.11v-5.65h3.91v1.38H76.69v1H78.4v1.33H76.69v1.89Zm4.62,0v-5.65h4v1.37H81.31v.8h1.77v1.26H81.31V131h2.36v1.37Zm4.91,0v-5.65h2.31a2.85,2.85,0,0,1,1.77.46,1.63,1.63,0,0,1,.6,1.37v0a1.5,1.5,0,0,1-1,1.47l1.29,2.31H87.56l-1.06-1.93h-.28v1.93Zm1.79-3.09h.42c.49,0,.73-.2.73-.62v0a.5.5,0,0,0-.18-.43.87.87,0,0,0-.54-.14h-.43ZM91,132.38V128.1H89.54v-1.37H94.2v1.37H92.77v4.28Zm5.35,0V130l-1.84-3.24h2l.86,1.77.87-1.77h1.72L98.11,130v2.42Z" transform="translate(-33.45 -27.08)"/><path d="M122.31,221.76l-14.12.07c-4.7.08-9.41.12-14.11.25-9.42.2-18.83.52-28.24.75-4.71.13-9.41.28-14.12.35l-3.53.06-1.76,0H45.9a5,5,0,0,1-.65-.07,5,5,0,0,1-1.24-.36,5.46,5.46,0,0,1-3.17-3.9c0-.21-.08-.43-.09-.64s0-.46,0-.57v-.88l0-1.76c-.08-9.42,0-18.83.1-28.24l.56-28.24.3-14.12.18-14.14q.07-14.11,0-28.24,0-7-.18-14.11l-.13-7.07V79.6a5.4,5.4,0,0,1,0-.56,4.66,4.66,0,0,1,.78-2.1,4.75,4.75,0,0,1,3.88-2.08q28.23-.6,56.48-.8L116.76,74l3.53,0,1.76,0h.55a5.05,5.05,0,0,1,.68.07,6.15,6.15,0,0,1,1.33.39A5.78,5.78,0,0,1,128,78.52c0,.23.08.46.09.68s0,.49,0,.6v2.64c.08,9.41.05,18.83.05,28.24s-.07,18.82-.21,28.23l-.1,7.07-.15,7.06c-.08,4.71-.25,9.41-.38,14.12-.25,9.41-.58,18.82-.78,28.24-.13,4.7-.17,9.41-.25,14.11l-.06,7.07c0,.59,0,1.15,0,1.79a3.92,3.92,0,0,1-3.86,3.39Zm0-.41a3.49,3.49,0,0,0,2.83-1.5,3.56,3.56,0,0,0,.57-1.53c.06-.53,0-1.16,0-1.74l-.06-7.07c-.08-4.7-.12-9.41-.25-14.11-.21-9.42-.53-18.83-.78-28.24-.13-4.71-.3-9.41-.38-14.12l-.15-7.06-.1-7.07c-.14-9.41-.14-18.82-.21-28.23s0-18.83,0-28.24V79.8a1.88,1.88,0,0,0,0-.29,1.09,1.09,0,0,0,0-.18,1.65,1.65,0,0,0-.91-1.16,2.17,2.17,0,0,0-.36-.12l-.2,0h-.33l-1.76,0-3.53,0-14.12-.11q-28.25-.18-56.48-.8A2.63,2.63,0,0,0,44,78.14a2.49,2.49,0,0,0-.47,1.15,1.82,1.82,0,0,0,0,.32V80l0,.88L43.37,88q-.13,7-.19,14.12-.13,14.11,0,28.23l.18,14.12.29,14.12.57,28.24c.11,9.41.17,18.82.09,28.23v2.65a2.37,2.37,0,0,0,0,.31c0,.08,0,.14,0,.22a2,2,0,0,0,1.09,1.4,3.26,3.26,0,0,0,.44.15l.23,0h.35l1.77,0,3.53.06c4.7.06,9.41.22,14.12.35,9.41.23,18.82.55,28.23.75,4.71.14,9.41.17,14.12.25Z" transform="translate(-33.45 -27.08)"/><path d="M82.54,217.23a14.86,14.86,0,0,1-2.39-.22,8.56,8.56,0,0,1-3.88-2.12,5.31,5.31,0,0,1-1.53-4.71,5.37,5.37,0,0,1,2.07-3.62v0l-.42.32.42-.39.06-.05a2.24,2.24,0,0,0,.13-.27,7.13,7.13,0,0,1,2.62-2.61,7.31,7.31,0,1,1,5.63,13.36A11.23,11.23,0,0,1,82.54,217.23Z" transform="translate(-33.45 -27.08)"/><path class="cls-11" d="M88.21,83.31h-9.9a.62.62,0,0,1-.62-.62.62.62,0,0,1,.62-.62h9.9a.61.61,0,0,1,.62.62A.62.62,0,0,1,88.21,83.31Z" transform="translate(-33.45 -27.08)"/><path class="cls-11" d="M92.45,84.24a1.55,1.55,0,1,0-1.55-1.55A1.55,1.55,0,0,0,92.45,84.24Z" transform="translate(-33.45 -27.08)"/><path class="cls-2" d="M182,290.05l-2.44,4v4.89L255.87,300l26.23-8.18-6.83-3Z" transform="translate(-33.45 -27.08)"/><path class="cls-2" d="M186.07,109.9c-.69,7,2.08,13.59,5.79,19.33,5.55,9.44,14,12.51,24.6,11.15,3.65-.33,7.3-.84,10.91-1.53,5.7-1.37,13.63-1.88,16.54-7.78,7.2-4.4,7.69-12.15,13.44-15,6-2.23,5.29-8.23,5.09-13.49a62.66,62.66,0,0,1,4.92-23.43c1.52-3.62,3.3-7.32,3.89-11.22,1.06-6.27-1.55-14.21-8.21-15.84-11.85-3.5-24.6-1.92-36.64-.17-12.19,2.6-25.8,4.33-31.74,16.92-2.64,6-5.16,12.74-5.95,19.13C187.88,95.28,186.76,102.56,186.07,109.9Z" transform="translate(-33.45 -27.08)"/><path class="cls-18" d="M148.85,126.82s.36-4.75-6.6-4.59-13.95-2.67-19.14-6.18c-6.75-4.56-14.72,6.7-7.2,16.51,6,7.79,12.17,9.14,12.17,9.14l-.79,18.85a3.9,3.9,0,0,1,.54,2.21c0,.13,0,.26,0,.4,2.2-.9,5.18-.16,5.58,2.53,1.59,10.69-.4,21.2-.52,31.91a3.73,3.73,0,0,1-1.47,3.07c-.34,3-.82,5.9-1.37,8.82a40.16,40.16,0,0,0,17.86-18.4C154.84,176.43,148.85,126.82,148.85,126.82Z" transform="translate(-33.45 -27.08)"/><path class="cls-11" d="M148.68,126.83a4,4,0,0,0-2-3.48,7.77,7.77,0,0,0-4.13-.85,32,32,0,0,1-8.81-.9,37.89,37.89,0,0,1-8.38-3.1c-.67-.33-1.32-.7-2-1.08-.32-.18-.66-.4-1-.56a5.33,5.33,0,0,0-.84-.39,4.41,4.41,0,0,0-1.7-.29,4.55,4.55,0,0,0-1.64.44,6.11,6.11,0,0,0-2.58,2.44,9.84,9.84,0,0,0-.81,1.7,8.91,8.91,0,0,0-.44,1.85A11.83,11.83,0,0,0,116,130.1c.33.57.7,1.12,1.1,1.68s.84,1.12,1.32,1.64a20.73,20.73,0,0,0,1.41,1.55c.47.51,1,1,1.49,1.47a23.21,23.21,0,0,0,3.32,2.52c.59.37,1.19.71,1.81,1a13.25,13.25,0,0,0,1.83.74l.85.25-.06.77-.7,9.42c-.12,1.56-.2,3.14-.31,4.7s-.19,3.14-.26,4.72l-.07-.3a4.24,4.24,0,0,1,.54,1.45,5.62,5.62,0,0,1,0,1.47l-.69-.49a5.56,5.56,0,0,1,2.88-.34,4.22,4.22,0,0,1,2.6,1.41,3.94,3.94,0,0,1,.69,1.37,10.76,10.76,0,0,1,.22,1.37c.13.89.23,1.78.32,2.67a96,96,0,0,1,.31,10.72c-.09,3.56-.28,7.12-.39,10.65-.07,1.77-.09,3.52-.11,5.29v1.31a7.49,7.49,0,0,1-.1,1.56,4.94,4.94,0,0,1-1.83,3l.54-.93-1.27,8.94-2.14-1.62a38.82,38.82,0,0,0,15.44-15c.47-.76.87-1.58,1.28-2.39.22-.41.37-.8.54-1.19l.24-.58.2-.63a38,38,0,0,0,1.28-5.25,96.07,96.07,0,0,0,1.17-11.07c.11-1.87.19-3.75.25-5.62s.13-3.76.16-5.65c.1-3.77.11-7.54.07-11.33A212.19,212.19,0,0,0,148.68,126.83Zm.33,0c.87,7.5,1.74,15,2.54,22.58a178.89,178.89,0,0,1,1.15,22.82,89.81,89.81,0,0,1-1,11.51c-.13,1-.36,1.94-.55,2.9s-.48,1.92-.83,2.89l-.23.71-.3.72a13.82,13.82,0,0,1-.64,1.4c-.45.88-.89,1.76-1.41,2.61a40,40,0,0,1-7.42,9.16,40.94,40.94,0,0,1-9.68,6.71l-2.64,1.3.51-2.92,1.49-8.7.11-.62.42-.31a2.3,2.3,0,0,0,.92-1.39,5.41,5.41,0,0,0,.11-1.07l.06-1.35c.09-1.79.24-3.57.41-5.35.34-3.55.74-7.07,1-10.58a73,73,0,0,0,.17-10.56c-.07-.87-.13-1.75-.25-2.63a10.15,10.15,0,0,0-.19-1.24,2.67,2.67,0,0,0-.49-1,3.77,3.77,0,0,0-4.3-.79l-.77.34.08-.83a4.15,4.15,0,0,0,0-1.23,3.22,3.22,0,0,0-.41-1.08l-.08-.13v-.16c.07-1.57.1-3.15.13-4.71s.09-3.15.09-4.73l.09-9.44.8,1a14,14,0,0,1-2.29-.74,22.27,22.27,0,0,1-2.09-1,26.46,26.46,0,0,1-3.82-2.55,28.39,28.39,0,0,1-3.34-3.14c-.53-.55-1-1.16-1.48-1.74a17.06,17.06,0,0,1-1.36-2,14,14,0,0,1-1.9-9.37,11.62,11.62,0,0,1,1.77-4.62,8.85,8.85,0,0,1,3.92-3.26,6.51,6.51,0,0,1,2.62-.47,7,7,0,0,1,2.56.64,6.64,6.64,0,0,1,1.1.65l.89.63c.58.4,1.18.8,1.78,1.17a36.16,36.16,0,0,0,7.78,3.66,30.13,30.13,0,0,0,4.21,1.05,31,31,0,0,0,4.33.35,9,9,0,0,1,4.33,1A4.42,4.42,0,0,1,149,126.82Z" transform="translate(-33.45 -27.08)"/><path class="cls-18" d="M134,136l-2.84,2.16a2.93,2.93,0,0,1-3.17.32,58.43,58.43,0,0,1-7.64-5.19c-.48-.39-1-.78-1.5-1.22a19.57,19.57,0,0,1-5-6c-.18-.36-.76-.14-.71.28a12.58,12.58,0,0,0,2.7,6.26,29.7,29.7,0,0,0,2.21,2.6c4.48,4.75,8.64,6.17,9.69,6.47a.34.34,0,0,1,.25.35l-.77,18.57a3.9,3.9,0,0,1,.53,2.21c0,.13,0,.26,0,.4a5,5,0,0,1,2.64-.3l1.85-18.38c.09-1.3-.27-2.92.43-4.07l2.22-3.64A.62.62,0,0,0,134,136Z" transform="translate(-33.45 -27.08)"/><path class="cls-18" d="M125.27,123.33c1.88-1.14,2.51-2.89,3-4.71a23.28,23.28,0,0,1-5.25-2.83A4.73,4.73,0,0,0,119,115a4.48,4.48,0,0,0-2.13,2.75C116.41,119.83,125.27,123.33,125.27,123.33Z" transform="translate(-33.45 -27.08)"/><path class="cls-11" d="M125.26,123.25c.28-.35.62-.7.86-1.07a8,8,0,0,0,.66-1.17,17.84,17.84,0,0,0,.83-2.59l.44.88a10.89,10.89,0,0,1-2.35-1.21c-.74-.49-1.42-1-2.11-1.58-.35-.27-.7-.55-1-.77a3.61,3.61,0,0,0-1.12-.45,4.28,4.28,0,0,0-2.33.22l.16-.06a4.18,4.18,0,0,0-1.61,2.39c0,.08,0,0,0,0s0,0,0,0a1.65,1.65,0,0,0,.09.16,3,3,0,0,0,.44.47,12,12,0,0,0,1.26,1c.91.63,1.89,1.24,2.87,1.85S124.34,122.59,125.26,123.25Zm0,.15a21.43,21.43,0,0,1-3.48-.94,17.94,17.94,0,0,1-3.26-1.54,8.06,8.06,0,0,1-1.53-1.15,3.59,3.59,0,0,1-.68-.86,1.92,1.92,0,0,1-.25-.65,1.36,1.36,0,0,1,0-.41,2.15,2.15,0,0,1,.06-.39,4.79,4.79,0,0,1,2.6-3l.13-.06h0a5.92,5.92,0,0,1,4,.92c.39.25.7.51,1.07.7a13.39,13.39,0,0,0,2.34,1c.8.28,1.57.59,2.34.91l.63.27-.21.61a9.59,9.59,0,0,1-1.27,2.74,5.27,5.27,0,0,1-1.08,1.13A4.18,4.18,0,0,1,125.27,123.4Z" transform="translate(-33.45 -27.08)"/><path class="cls-18" d="M144.76,123a.33.33,0,0,0-.6-.17h0a37.34,37.34,0,0,0-2.16,4.76c.13.12.73-.59.82-.7C143.8,125.74,144.85,124.26,144.76,123Z" transform="translate(-33.45 -27.08)"/><path class="cls-11" d="M144.6,123c0-.17-.29-.08-.13.09,0,0,0,0,0,0s.05,0,.08,0l.06.22.13.47a1.24,1.24,0,0,1-.34,1.43c-.4.33-1.07.54-1.36.94a1.55,1.55,0,0,0-.19,1.41s.05.11.1,0a.24.24,0,0,0,0-.08v0s0,0,0-.12a1,1,0,0,0-.31-.6.85.85,0,0,0-.57-.27l-.1,0a.68.68,0,0,0-.21,0l-.18,0c-.13,0-.15,0-.16,0a.47.47,0,0,1,0-.12,2,2,0,0,1,.24-.61,4.19,4.19,0,0,1,.62-1.13,2.52,2.52,0,0,1,.45-.41,2.75,2.75,0,0,1,.7-.28,2.87,2.87,0,0,0,.79-.37A.86.86,0,0,0,144.6,123Zm.32,0a15.56,15.56,0,0,0,.55,1.83,2.25,2.25,0,0,1,.06,1,3.13,3.13,0,0,1-.33.82,3.92,3.92,0,0,1-1.16,1.17,4.81,4.81,0,0,1-.74.47l-.27.12c-.11,0-.21.09-.46.17l-.26.07a1.11,1.11,0,0,1-.26,0h-.13a.93.93,0,0,1-.22,0,1.33,1.33,0,0,1-.41-.25,1.1,1.1,0,0,1-.33-.64c0-.15,0-.13,0-.15v-.07l0-.12a.93.93,0,0,1,.2-.32,2.41,2.41,0,0,0,.93-1.28,12.35,12.35,0,0,0-.13-1.68,1.28,1.28,0,0,1,.94-1.19l.45-.19.24-.09c.06,0,0,0,.16-.14a.67.67,0,0,1,.18-.07A.71.71,0,0,1,144.92,123Z" transform="translate(-33.45 -27.08)"/><path class="cls-2" d="M253.44,154.12a3.4,3.4,0,0,1-.24-.7,44.63,44.63,0,0,1-.8-11,4.14,4.14,0,0,1,.58-2,4.45,4.45,0,0,1,.79-5c-1.37-.69-.57-2.76-1.78-3.59-3-2-5.74-4.14-10.64-4.16.49,7.77-3.36,15.88-8.76,21.42a4.3,4.3,0,0,1-1.19.88,4,4,0,0,1-.6.72c-3.16,3.09-5.34,7-8.6,10-1.5,1.38-4.32,1.77-5.76,0-2.81-3.43-4-7.86-5.4-12-2.31-2.79-4.64-5.84-5.08-9.49a6.58,6.58,0,0,1-.06-.87c-3-1-5.42-3.23-8.13-4.92a2.75,2.75,0,0,1-.33-.23c-1.17,2.18-2,5.09-3.05,7l0,.07a4.59,4.59,0,0,1,0,.9,46,46,0,0,1-6,16.4,3.35,3.35,0,0,1,0,.55,28.13,28.13,0,0,0,.25,3.89l.1-.11c3.89-3.84,8.6-5.94,14-3.94a50.63,50.63,0,0,1,8.36,4.43c1.85,1.15,3.45,2.6,5.35,3.65a4.38,4.38,0,0,1,2.93.42l1.15.58.8.39,0,0a9.8,9.8,0,0,1,3-1.36,4.64,4.64,0,0,1,1.78,0l1-.45c.93-.52,1.88-1,2.79-1.56,3.11-1.89,5.68-3.44,9.44-2.34,3,.88,5.77,3.05,8,5.13,1.8,1.65,3.8,4.51,6.21,5.72a27.51,27.51,0,0,1,.35-6.5C254.25,162.14,253.64,158.11,253.44,154.12Z" transform="translate(-33.45 -27.08)"/><path d="M255.51,164.52c0-2.71-.28-5.47-.51-8.13v0c0-.29-.05-.58-.07-.88l-.18-2.12c-.18-2.26-.41-4.92-.73-7.58l0-.11c-.13-1.07-.26-2.18-.4-3.26l-.12-.84c0-.25-.06-.49-.1-.73h0a19.4,19.4,0,0,0-.6-3.2,1,1,0,0,0,.35-.21,2.55,2.55,0,0,0,.69-2.15,8,8,0,0,0-.62-2.3,10.28,10.28,0,0,0-2.38-3.49,1.37,1.37,0,0,0-.85-.37,13.25,13.25,0,0,0-2.78-1.42,8.77,8.77,0,0,0-2.92-.53,8,8,0,0,0-2.37.37c-.1-.46-.17-.81-.25-1.14l-.08-.38c0-.21-.09-.44-.14-.69a10.8,10.8,0,0,0-.3-1.37,2.3,2.3,0,0,0-.67-1.08l-.07,0,0,0a2.78,2.78,0,0,0-.41,1.88v.45c0,1-.05,2-.05,3.3V132c0,.18,0,.36,0,.54s0,.62,0,.93l0,.19a1.2,1.2,0,0,0-.31,1.07,1.52,1.52,0,0,0,.68,1.21l-.83,1.18-.84,1.18c-2.09,3-3.72,5.2-5.29,7.25-1.79,2.35-3.77,4.7-5.89,7-1.09,1.17-2.1,2.23-3.09,3.24l-.9.88-.4.39-.43.42-.19.18a2.73,2.73,0,0,0-.56.66,1.58,1.58,0,0,0-.12.52.8.8,0,0,1-.05.21,1.26,1.26,0,0,0,.11,1.13.85.85,0,0,0,.69.4,1,1,0,0,0,.34-.06l0,0c-.06,0-.08-.06-.08-.07s0,0,0,0a2,2,0,0,1,.35.08,1.41,1.41,0,0,0,.67-.16l.07,0a3.22,3.22,0,0,0,.67-.55l.12-.12.06-.06c.45-.43.9-.89,1.34-1.34l.24-.24c1.15-1.18,2.19-2.29,3.18-3.41,2-2.28,4-4.71,5.84-7.23a67.69,67.69,0,0,0,5.12-8c.52-.95,1-2,1.59-3.21a1.48,1.48,0,0,0,1-.94,4,4,0,0,0,.18-1.58,15.76,15.76,0,0,0,.87-2.56.14.14,0,0,0-.11-.17h0a.1.1,0,0,0-.08,0,13.69,13.69,0,0,0-.88,1.13c-.1-.47-.21-.92-.31-1.31s-.13-.54-.18-.74l-.44-2.12h.42a9.37,9.37,0,0,1,3.46.7,8.5,8.5,0,0,1,2.9,1.94,2.2,2.2,0,0,0,.58,1l.21.24a7.53,7.53,0,0,1,1,1.61,5.86,5.86,0,0,1,.39,1.64,3.8,3.8,0,0,0,.95,2.42,1.07,1.07,0,0,0,.38.2,28.15,28.15,0,0,0-.32,6.15c0,.59,0,1.2,0,1.78v.23c0,3,.1,6.06.2,8.67l.12,2.86a85.2,85.2,0,0,1-.13,11.41c-1.69-1.49-3.45-2.93-5.25-4.29-1.18-.89-2.4-1.76-3.64-2.59l-1-.67,0,0A24.75,24.75,0,0,0,238.5,159a5.26,5.26,0,0,0-2.11-.45,6.94,6.94,0,0,0-2.92.74c-1.13.53-2.26,1.12-3.35,1.7l-1.53.8-3.79,1.94-.17.09-1,.51c-.27.14-.55.27-.86.41a6.84,6.84,0,0,0-2.64,1.69,6.75,6.75,0,0,0-.18-.68,1.5,1.5,0,0,0-.14-1.08c-2.63-4.84-5-9.71-7.69-15.12-.61-1.26-1.22-2.55-1.82-3.79h0c-.61-1.3-1.24-2.64-1.89-3.95l-1.22-2.51-.32-.64a11.8,11.8,0,0,1-1.86-.58.36.36,0,0,1,0,.11l0,.05c1.15,3.25,2.44,6.41,3.66,9.33,2.37,5.65,4.94,11.31,7.44,16.78l.36.78,0,.11-1-.71c-.24-.17-.48-.33-.7-.51-1.33-1-2.74-1.94-4-2.8-2.26-1.55-4.73-3.11-7.55-4.76l-.51-.31a11.29,11.29,0,0,0-1.67-.83,4.86,4.86,0,0,0-1.77-.36,4.6,4.6,0,0,0-.64,0,11.59,11.59,0,0,0-3.36,1.27l-.66.32-.13.07-3.94,1.87c.38-1.54.83-3.19,1.35-5,.92-3.2,1.95-6.47,3.06-9.69,1-2.89,2.09-5.79,3.34-8.88l.33-.81c-.32-.22-.64-.43-1-.63a4.49,4.49,0,0,1-1.15-1c0,.07-.09.12-.13.2a27.75,27.75,0,0,0-1.65,3.74c-.11.3-.24.61-.36.91l-.1.25c-.71,1.78-1.4,3.57-2,5.32-1.28,3.51-2.48,7.15-3.55,10.81-.49,1.67-1,3.4-1.48,5.29q-.11.41-.27.87c-.09.28-.18.59-.27.89a5.6,5.6,0,0,0-.6.69.74.74,0,0,0-.13.57,1,1,0,0,0,.43.63,2.3,2.3,0,0,0,.35,1.22,1.91,1.91,0,0,0,1.61.84,1.74,1.74,0,0,0,1.24-.49,1.58,1.58,0,0,0,.4-1.19,1.46,1.46,0,0,0-.3-.8v0l0-.06.74-.37.55-.28,4.16-2c.32-.16.64-.34,1-.53a9.74,9.74,0,0,1,2.88-1.21,1.5,1.5,0,0,1,.37,0,5.89,5.89,0,0,1,2.68,1l.58.32.06,0c2.83,1.45,5.6,2.94,7.71,4.08l2.16,1.19h0l1.55.86q.42.22.87.51a10.32,10.32,0,0,0,2.45,1.2,1.25,1.25,0,0,0,.79.28,1.43,1.43,0,0,0,.78-.24c-.07.54-.13,1.08-.16,1.63a4.25,4.25,0,0,1,1.51.65c0-.12,0-.25,0-.37a2.55,2.55,0,0,0,.86.15A5.73,5.73,0,0,0,224,168c.2-.11.42-.24.63-.34l1.25-.65.09-.05,3.23-1.66,1.53-.78,3.06-1.58.34-.18a5,5,0,0,1,2.24-.77,2.72,2.72,0,0,1,1.31.37,75.71,75.71,0,0,1,14.55,11.06,1.84,1.84,0,0,0,1.25.46,1.77,1.77,0,0,0,1-.3,1.34,1.34,0,0,0,.57-.92,39.15,39.15,0,0,0,.43-4.05C255.53,167.31,255.54,166,255.51,164.52Z" transform="translate(-33.45 -27.08)"/><path class="cls-18" d="M127.35,164.5l.59-7.54,12.58,5.29,2.4,15.43v17.18l-4.2,3.9-6.66,7.69-3.63,4.17-1.08-.72Z" transform="translate(-33.45 -27.08)"/><path class="cls-18" d="M183.59,66.07c.27-5.09-2.56-5.82-1.21-10.79,3.21-9.27,14.66-10.16,23-11.78,9.3-1.4,18.89-1.23,27.92,1.55a42.91,42.91,0,0,1,6.28,2.48,2.61,2.61,0,0,1,.84,4c8.64,9.72,6,24.38,13.16,34.83,1.32,1.86,3,3.48,4.16,5.44,1.8,3,2.4,7.47-.66,9.93-4.36,3-7.5-1.63-9,5.77-8.58,26.2-31.31,30.16-54.48,19.6a18.79,18.79,0,0,1-5.65-3.28c-3.63-3.27-3.82-8.41-4.4-12.93q-.51-4-.91-8C181.51,92.2,183.4,76.89,183.59,66.07Z" transform="translate(-33.45 -27.08)"/><path class="cls-20" d="M226.51,31a83.22,83.22,0,0,0-43-2,81.65,81.65,0,0,0-20.12,7.15l-.55.29a12.35,12.35,0,0,0-4.36,3.06,4.73,4.73,0,0,0-.2,5.68,7.1,7.1,0,0,0,4.13,2.58A13.25,13.25,0,0,0,161,49.44a2.3,2.3,0,0,0,.35,3.17,13.47,13.47,0,0,0,6.65,3,6.68,6.68,0,0,0,.89,3.93c2.05,3.48,6.69,3.4,10.21,2.79l.1,0,.45,2.23a2.4,2.4,0,0,0,2.3,2.08h.13a184.46,184.46,0,0,0-1.78,21.79c-.14,3.79-.22,7.59-.29,11.39l0,1.26c-.06,4.1-.24,8.25,0,12.34a15.06,15.06,0,0,0,3.92,9.88,22.2,22.2,0,0,0,8.5,5.28,73.68,73.68,0,0,0,22.14,4.62l.51,0c2.93.12,6,.16,8.71-1,2.43-1,4.86-3.09,4-5.93a1.13,1.13,0,0,0-2.06,0l-.09.19a5.4,5.4,0,0,1-1.92,2.43A9.25,9.25,0,0,1,220,130a41.78,41.78,0,0,1-10.76-.53c-6.51-.94-13.3-2.89-18.94-6.37a11.84,11.84,0,0,1-5.34-6.14c-1.16-3.33-.87-7.15-.9-10.62-.07-7.18,0-14.36.1-21.53l0-1.43c.1-6,.24-12,0-18a1.57,1.57,0,0,0,.23-.76v-.4a3.3,3.3,0,0,0-.07-.91c-.13-1.08-.28-2.14-.46-3.21l-.09-.57c1.15.12,2.29.19,3.44.23A108.16,108.16,0,0,0,211.27,58c4-.75,7.86-1.7,11.74-2.79,2-.55,3.94-1.13,5.89-1.76,1.41-.45,2.78-1,4.16-1.52A12,12,0,0,1,236,59c.15,3-1.51,5.84-.62,8.79.83,2.75,3.34,3.36,5.79,3.79l1.05.18c.8.14,1.39.29,1.64,1.21a28.28,28.28,0,0,1,.44,5c.14,1.92.26,3.84.42,5.76.09,1,.17,2,.28,3a3,3,0,0,0,.56,1.6c1.11.75-.19-.15.31.34a5.11,5.11,0,0,0,.47.41v0a1.41,1.41,0,0,0,1.95-.2l.15-.16a2.29,2.29,0,0,0,.75-1.51s0-.07,0-.11a6.62,6.62,0,0,1,3.51.44,8,8,0,0,1,4,3.48c.53,1,.62,1.18.14.26a9.4,9.4,0,0,1,.76,2c.67,2.54.35,5.76-1.81,7.49a6.37,6.37,0,0,1-3.24,1.36,7.27,7.27,0,0,1-1.68,0,4.32,4.32,0,0,0-1.19-.1,1.72,1.72,0,0,0-.92.36h.08c.2,0,.16,0-.11,0a1.12,1.12,0,0,0-.77,1.76l.07.11a.16.16,0,0,0,0,.06l.06.2a.43.43,0,0,1,0,.05l0,0v0l-1.06,2.1a76.91,76.91,0,0,1-4.23,7.53c-1.12,1.68-2.31,3.33-3.59,4.89-1.15,1.39-2.63,2.17-4,3.32a1.5,1.5,0,0,0,0,2.35c2.31,1.84,5.08-.14,6.6-2a30.44,30.44,0,0,0,3.6-5.9,32.22,32.22,0,0,0,3.36-11.49,3,3,0,0,0,1.17.47,8.58,8.58,0,0,0,2.58.14,10.18,10.18,0,0,0,4.59-1.56c5.63-3.5,5.55-12.09,1.35-16.69a40.49,40.49,0,0,0,.58-4.39l.07-.61c.77-6.73,1-13.76-2.38-19.89a18.69,18.69,0,0,0-1.45-2.28,8.51,8.51,0,0,1-1.39-1.86c-.56-1.52,1.63-3.42,2.18-4.73a3.85,3.85,0,0,0-.68-4.46,3.2,3.2,0,0,0-.51-.4A5.74,5.74,0,0,0,254,43,6.14,6.14,0,0,0,249.87,41a7.39,7.39,0,0,0-3.05.53A71.31,71.31,0,0,0,226.51,31Zm28.72,62.5a6.71,6.71,0,0,0-5.38-1.25c-2,.41-4.38,1.53-5.39,3.41-.79,1.49,1.37,3.31,2.64,2.11s1.89-2.25,3.4-2.94a10.26,10.26,0,0,1,4.58-1C255.25,93.83,255.39,93.62,255.23,93.5Z" transform="translate(-33.45 -27.08)"/><path class="cls-20" d="M226.51,31a83.22,83.22,0,0,0-43-2,81.65,81.65,0,0,0-20.12,7.15l-.55.29a12.35,12.35,0,0,0-4.36,3.06,4.73,4.73,0,0,0-.2,5.68,7.1,7.1,0,0,0,4.13,2.58A13.25,13.25,0,0,0,161,49.44a2.3,2.3,0,0,0,.35,3.17,13.47,13.47,0,0,0,6.65,3,6.68,6.68,0,0,0,.89,3.93c2.05,3.48,6.69,3.4,10.21,2.79l.1,0,.45,2.23a2.4,2.4,0,0,0,2.3,2.08h.13c.05,0,1.58-.16,2-1.22a1.57,1.57,0,0,0,.23-.76v-.4a3.3,3.3,0,0,0-.07-.91c-.13-1.08-.28-2.14-.46-3.21l-.09-.57c1.15.12,2.29.19,3.44.23A108.16,108.16,0,0,0,211.27,58c4-.75,7.86-1.7,11.74-2.79,2-.55,3.94-1.13,5.89-1.76,1.41-.45,2.78-1,4.16-1.52A12,12,0,0,1,236,59c.15,3-1.51,5.84-.62,8.79.83,2.75,3.34,3.36,5.79,3.79l1.05.18c.8.14,1.39.29,1.64,1.21a28.28,28.28,0,0,1,.44,5c.14,1.92.26,3.84.42,5.76.09,1,.17,2,.28,3a3,3,0,0,0,.56,1.6,2.06,2.06,0,0,0,.31.34,5.11,5.11,0,0,0,.47.41v0a1.41,1.41,0,0,0,1.95-.2l.15-.16c1.08-1.18,2.89-3.89,3.89-3.84,2.3.11,6.18,2.89,6.18,2.89a23.32,23.32,0,0,0,.58-4.39l.07-.61c.77-6.73,1-13.76-2.38-19.89a18.69,18.69,0,0,0-1.45-2.28,8.51,8.51,0,0,1-1.39-1.86c-.56-1.52,1.63-3.42,2.18-4.73a3.85,3.85,0,0,0-.68-4.46,3.2,3.2,0,0,0-.51-.4A5.74,5.74,0,0,0,254,43,6.14,6.14,0,0,0,249.87,41a7.39,7.39,0,0,0-3.05.53A71.31,71.31,0,0,0,226.51,31Z" transform="translate(-33.45 -27.08)"/><path class="cls-20" d="M206.74,118.43a8.73,8.73,0,0,0,3.35-3.23,1.7,1.7,0,0,0,.19-1.35,1.91,1.91,0,0,0-.87-1.1,1.72,1.72,0,0,0-1.36-.21,1.63,1.63,0,0,0-1,.86l-.06.1a5.75,5.75,0,0,1-1.91,2,4.85,4.85,0,0,1-2.56.75,7.12,7.12,0,0,1-4.54-2l-.53-.45a.77.77,0,0,0-.43-.27.94.94,0,0,0-.55.07,1,1,0,0,0-.4.38.84.84,0,0,0-.08.55,5.61,5.61,0,0,0,2.2,3.27,8.21,8.21,0,0,0,4.18,1.57A8,8,0,0,0,206.74,118.43Zm-7.49-20.08c-1.5,1.16-3.71,3.73-1.7,6,2.29,1.92,5-.87,6.28-2.15,1.25-1,3,1,1.87,2.18-9.61,8.94-15.45-4.73-7.4-7.06C199.19,97,199.64,98,199.25,98.35ZM217,87.22c-.42-2.2-3.85-2.32-3.94-.09a9.06,9.06,0,0,0,1.55,5.43,1.66,1.66,0,0,0,3.06-1A17.38,17.38,0,0,0,217,87.22Zm-25.78,1.89a1.81,1.81,0,0,0-2.05-.58c-2.46,1-1.31,4.56-.22,6.21a1.78,1.78,0,0,0,2.8.05c1-1.5,1.25-4.3-.37-5.48ZM213,77.85l-.41,0c-1.26-.07-2.83-.11-3.6,1a1.47,1.47,0,0,0,.23,2c1.2.77,2.38.29,3.71.22a14.63,14.63,0,0,1,3.24.18,21.61,21.61,0,0,1,6.49,2.49c.28.14.51-.22.36-.44a12.71,12.71,0,0,0-6.11-4.54A13.8,13.8,0,0,0,213,77.85Zm-20.55,1.29-.3.1c-3.27,1.08-7.45,3-8.67,6.42,0,.47.07.57.13.62l0,0a.4.4,0,0,0,.3.17l.16-.06a8.88,8.88,0,0,0,1.77-.94l.58-.36a17,17,0,0,1,2-1.16,25.28,25.28,0,0,1,4.79-1.63,2.11,2.11,0,0,0,.94-.48,1.49,1.49,0,0,0,.45-.9,1.47,1.47,0,0,0-.31-1.24,1.54,1.54,0,0,0-.85-.58A1.79,1.79,0,0,0,192.47,79.14Z" transform="translate(-33.45 -27.08)"/><path class="cls-20" d="M220.76,118.21a14.56,14.56,0,0,0-10.77-7,29.17,29.17,0,0,0-9.85.64,19.43,19.43,0,0,0-5,1.51,7.7,7.7,0,0,0-3,3.14,15.78,15.78,0,0,0-1.63,5c0,.24-.07.49-.11.74a4.32,4.32,0,0,0,2.17,2.92,8,8,0,0,0,4,.77l.35-.24c2-1.45,3.14-4.47,5.85-4.38,2.41.08,4.32,2.9,5.93,4.49A18.74,18.74,0,0,0,221,120.89,7.79,7.79,0,0,0,220.76,118.21Zm-33.92.69a18.37,18.37,0,0,1,1-3.09,16.82,16.82,0,0,1,7-7.8c7.35-4.18,17.6-3,24.45,1.77a15.13,15.13,0,0,1,5.78,7,1,1,0,0,1,.56.22c4.19-3.35,8.52-6.6,11.71-10.94a25.32,25.32,0,0,0,4.48-10.58c.06-.32.56-.33.58,0,0,.08,0,.16,0,.24,0-.15.26-.1.29,0,1.11,4.45,2.4,9.15,2.21,13.77a14.56,14.56,0,0,1-2.52,7.2,69.74,69.74,0,0,1-5.07,7.13,23.89,23.89,0,0,1-3.81,4.22,50.11,50.11,0,0,1-5.59,3.47c-1.9,1.09-3.84,2.12-5.83,3a57.68,57.68,0,0,1-12.45,4.23c-3.45.72-7.38,1.54-10.87.6a14.69,14.69,0,0,1-6.82-4.3,24,24,0,0,1-4.86-7.5C186,124.72,186.72,119.39,186.84,118.9Z" transform="translate(-33.45 -27.08)"/></g></svg>