<svg id="Слой_1" data-name="Слой 1" xmlns="http://www.w3.org/2000/svg" xmlns:xlink="http://www.w3.org/1999/xlink" viewBox="0 0 157.7 208.81"><defs><style>.cls-1{fill:#6687a8;}.cls-2{fill:none;}.cls-3{mask:url(#mask);}.cls-4{clip-path:url(#clip-path);}.cls-5{fill:#fff;}.cls-6{fill:#0d0c0b;}</style><mask id="mask" x="-71.16" y="-104.85" width="300" height="300" maskUnits="userSpaceOnUse"><g transform="translate(-22.63 -49.87)"><g id="mask0"><rect class="cls-1" x="-48.52" y="-54.97" width="300" height="300"/></g></g></mask><clipPath id="clip-path" transform="translate(-22.63 -49.87)"><rect class="cls-2" width="180.49" height="258.79"/></clipPath></defs><title>new-process-3-back</title><g class="cls-4"><path class="cls-5" d="M176.61,157.56c2.56-2.5,2.93-7.28,3-10.64.1-5.62-11.31-15-11.31-15s2.35-2.13,1.07-7.68-5.12-11.51-9.47-15.58a10.48,10.48,0,0,0-9.29-2.77s4.26-10.22,7.68-17.47.85-10.66-2.56-12-7.68,0-11.52,6.69-32,76.61-32,76.61S67,142.58,72.12,133.94s5.12-16.1,5.12-22.52-4.69-9.79-6.39-11.48-4.89-1.7-7.25,6.34c-2.77,9.43-14.08,17.53-14.5,24.64s4.27,39,4.69,50.43-.7,20.83-1.28,30.34-2.34,19.71-4.26,29.86c-.79,4.15-1.41,8.9-2.82,17.13H118.3c.52-4.58,1.52-8.26,6.52-16,5.67-8.74,10.44-12.15,17.55-19.64,12-12.7,17-18.76,23.61-27.58,5.91-7.93,11.3-15.36,13.42-24.24.92-3.85-5.32-11.16-5.32-11.16S174.05,160.06,176.61,157.56Z" transform="translate(-22.63 -49.87)"/><path d="M177,157.92c2.68-2.62,3.07-7.53,3.14-11,.09-5.26-9.05-13.33-11.1-15.08.66-.91,1.87-3.29.85-7.73-1.24-5.38-4.93-11.45-9.63-15.84a11,11,0,0,0-8.81-3c1.09-2.59,4.51-10.65,7.32-16.61,1.71-3.63,2.1-6.65,1.15-9a6.63,6.63,0,0,0-4-3.66c-2.5-1-7.42-1.3-12.13,6.9-3.69,6.42-29.18,69.62-31.83,76.21-4.28-1.66-36.65-14.47-39.53-22.69a2.51,2.51,0,0,1,.15-2.22c5.19-8.76,5.19-16.21,5.19-22.78,0-5.83-3.77-9.28-5.79-11.13l-.76-.7a3.16,3.16,0,0,0-3.06-1c-2,.52-3.72,3-5,7.52s-4.61,8.66-7.79,12.7c-3.35,4.24-6.51,8.24-6.74,12s1,14.76,2.33,26.27c1.07,9.33,2.17,19,2.37,24.22a198.09,198.09,0,0,1-.78,23.21c-.18,2.32-.36,4.72-.5,7.07-.58,9.51-2.39,19.94-4.26,29.8-.42,2.19-.68,3.84-1,6.11-.34,2.07-1,6.6-1.8,11.12h1c.74-4.36,1.43-8.92,1.76-11,.37-2.26.63-3.9,1-6.08,1.88-9.89,3.69-20.36,4.28-29.92.14-2.35.32-4.74.49-7.06a199.72,199.72,0,0,0,.78-23.33c-.2-5.27-1.3-14.94-2.37-24.29-1.25-11-2.55-22.28-2.32-26.09.21-3.48,3.27-7.37,6.51-11.48s6.6-8.35,8-13c1.58-5.37,3.38-6.57,4.31-6.81a2.19,2.19,0,0,1,2.1.69c.22.22.49.46.79.74,2,1.87,5.46,5,5.46,10.38,0,6.44,0,13.74-5,22.27a3.5,3.5,0,0,0-.23,3.06c3.21,9.19,39.06,22.9,40.58,23.48l.46.17.18-.46c.28-.7,28.18-70,32-76.55,3.21-5.59,7.08-7.89,10.89-6.46a5.74,5.74,0,0,1,3.42,3.1c.83,2,.45,4.78-1.14,8.15-3.38,7.18-7.64,17.4-7.68,17.5l-.4.95,1-.26a10,10,0,0,1,8.82,2.64c4.56,4.26,8.13,10.13,9.33,15.32s-.9,7.19-.92,7.2l-.43.4.45.37c.11.09,11.22,9.28,11.12,14.6-.06,3.29-.42,7.93-2.84,10.29L173.34,160l.31.36c1.68,2,5.91,7.77,5.21,10.72-2.17,9.07-7.84,16.68-13.34,24.06-6.5,8.7-11.44,14.74-23.57,27.53-2,2.15-3.85,3.93-5.61,5.66-4.25,4.17-7.92,7.77-12,14.05-5.06,7.8-6.1,11.75-6.62,16.27h1c.51-4.37,1.55-8.17,6.44-15.72,4-6.18,7.65-9.75,11.86-13.88,1.76-1.73,3.59-3.53,5.63-5.68,12.17-12.83,17.13-18.89,23.64-27.62,5.56-7.45,11.3-15.15,13.51-24.43.86-3.59-3.85-9.68-5.12-11.25Z" transform="translate(-22.63 -49.87)"/><path class="cls-5" d="M147,191.77V57.51a5.2,5.2,0,0,0-5.21-5.2H77.55a5.2,5.2,0,0,0-5.21,5.2V191.77a5.2,5.2,0,0,0,5.21,5.2H141.8A5.21,5.21,0,0,0,147,191.77Z" transform="translate(-22.63 -49.87)"/><path class="cls-6" d="M147,191.77l-.09-26.86-.25-26.86-.89-53.71-.46-26.85a3.48,3.48,0,0,0-2.59-3.25,3.38,3.38,0,0,0-.54-.09,5.92,5.92,0,0,0-.63,0l-1.68,0-3.35,0c-4.48.07-9,.18-13.43.21l-26.86.25-13.43,0H77.23a3.12,3.12,0,0,0-.44.09,2.77,2.77,0,0,0-2,2.66l-.09,26.86c0,9-.17,17.9-.25,26.86L73.59,165l-.46,26.85a4.5,4.5,0,0,0,3.2,4.34,5,5,0,0,0,1.48.21l1.68,0,3.35.06c4.48.07,9,.17,13.43.21l26.86.25,13.43.05h3.35a12.74,12.74,0,0,0,3.33-.2A5.26,5.26,0,0,0,147,191.77Zm0,0a5.24,5.24,0,0,1-3.76,5,5.52,5.52,0,0,1-1.67.22h-5l-13.43,0-26.86.26c-4.48,0-9,.13-13.43.2l-3.35.06-1.68,0a6.17,6.17,0,0,1-1.84-.19,6,6,0,0,1-4.39-5.62l-.46-26.86-.89-53.71c-.08-9-.21-17.9-.24-26.86l-.09-26.86a7.68,7.68,0,0,1,5.54-7.35,8.35,8.35,0,0,1,1.21-.24c.21,0,.41,0,.62,0h5.55l13.43,0,26.86.26c4.48,0,9,.13,13.43.2l3.35.06,1.68,0c.24,0,.68,0,1,.06a6.83,6.83,0,0,1,1.11.23,6.93,6.93,0,0,1,5,6.7l-.45,26.87-.89,53.71-.25,26.86Z" transform="translate(-22.63 -49.87)"/><path class="cls-5" d="M168.52,132.11a2.25,2.25,0,0,0-1.19-.84l-1.21-.51a13.27,13.27,0,0,0-7.41-.78c-4.34.71-9.31,4-12.15,5s-5.4,1.85-5.4,1.85-3.93,5.4,1,9.67S150,150,155.37,149s6.26-1.61,8.11.76,0,3.51,0,3.51,7.37,2.12,10.81,7l2.55-2.5c2.56-2.5,2.93-7.28,3-10.64C179.93,141.49,168.52,132.11,168.52,132.11Z" transform="translate(-22.63 -49.87)"/><path d="M168.89,131.76a2.76,2.76,0,0,0-1.37-1l-1.19-.49a13.62,13.62,0,0,0-7.71-.83c-2.89.47-6.08,2.06-8.64,3.34l-.93.46-4.62,1.87c-1.06.37-2.07.74-2.76,1a2.74,2.74,0,0,0-1.49,1.33c-.92,1.85-2.28,6,1.67,9.37,5,4.28,8,3.72,13.06,2.78l.55-.1,2-.39c3.62-.72,4.18-.83,5.58,1a2.54,2.54,0,0,1,.7,1.88,1.48,1.48,0,0,1-.56.89l-1,.6,1.09.31c.07,0,7.25,2.13,10.54,6.78l.34.48,3-2.92c2.68-2.61,3.07-7.53,3.14-11C180.43,141.47,169.85,132.55,168.89,131.76Zm-25.22,4.79,1-.42a5.28,5.28,0,0,1,2.91,2.1,22.24,22.24,0,0,1,1.61,2.72l-.92.31a18,18,0,0,0-2.23-2.85,6.62,6.62,0,0,0-.53-.53.28.28,0,0,0-.1-.09,5.81,5.81,0,0,0-.49-.42l-.13-.1c-.17-.12-.33-.24-.49-.34l-.12-.08a5.54,5.54,0,0,0-.52-.29Zm4.78,1.1a6.2,6.2,0,0,0-2.3-2l.57-.2a26.52,26.52,0,0,0,2.74-1.22l.9-.36.06,0a3.66,3.66,0,0,1,1.71-.37,4.88,4.88,0,0,1,1.9.39c2,.84,1.63,3.17,1.16,4.29-.22.53-2.46,1.56-5,2.48A22.23,22.23,0,0,0,148.45,137.65Zm28,19.75-2.15,2.09c-2.93-3.74-8-5.76-9.93-6.43a2.51,2.51,0,0,0,.36-.89,3.45,3.45,0,0,0-.89-2.7c-1.77-2.28-2.89-2.06-6.57-1.33l-2,.39-.54.1c-5.08.94-7.63,1.41-12.23-2.55-4.17-3.6-1.58-8-1-8.86l1-.32a.8.8,0,0,0,.43.4,3.27,3.27,0,0,1,.41.17l.45.25a.41.41,0,0,0,.11.07l.45.31.1.08.38.32.13.13a5.07,5.07,0,0,1,.47.46A12.56,12.56,0,0,1,147.6,142l.16.46.46-.15.09,0c1.79-.56,7.23-2.39,7.82-3.8s1-4.46-1.71-5.61a5.73,5.73,0,0,0-1.46-.42,23.77,23.77,0,0,1,5.84-2,13.13,13.13,0,0,1,7.14.75l1.25.53a1.81,1.81,0,0,1,.92.63l.11.12c.12.09,11.22,9.28,11.12,14.6C179.26,150.4,178.9,155,176.49,157.4Z" transform="translate(-22.63 -49.87)"/><path class="cls-5" d="M169.4,124.23c-1.29-5.56-5.12-11.51-9.48-15.58a10.62,10.62,0,0,0-8-2.94l-1.25.17s-4.48-.41-6.61,2.15-2.55,3.83-1.71,7.24,3,6.61,6.4,7.68,9.81,2.13,10.87,2.77-1.15,4.29-1.15,4.29a19,19,0,0,1,9.9,1.9S170.68,129.77,169.4,124.23Z" transform="translate(-22.63 -49.87)"/><path d="M169.89,124.11c-1.24-5.38-4.93-11.45-9.63-15.84a11.11,11.11,0,0,0-8.28-3.08l-.32,0h0l-1.43.18a11.21,11.21,0,0,0-3.51.45l-.46.06h0V106a6,6,0,0,0-2.59,1.75c-2.19,2.63-2.72,4-1.81,7.69,1,4,3.53,7,6.74,8,1.61.5,3.9,1,5.93,1.46a31.56,31.56,0,0,1,4.84,1.27.39.39,0,0,0,0,.06c.16.64-.7,2.45-1.35,3.54l-.56.92,1.07-.17a18.66,18.66,0,0,1,9.61,1.86l.3.14.25-.22C168.77,132.18,171.22,129.88,169.89,124.11Zm-18.42-15.53a13,13,0,0,1,1.47,4.29c.08.35.15.72.24,1.13a1.1,1.1,0,0,1,0,.21l-.61.26c0-.06,0-.12,0-.18v-.12a2.23,2.23,0,0,0,0-.23s0-.1,0-.16,0-.17,0-.26a1.06,1.06,0,0,0,0-.19c0-.09,0-.2,0-.3a1.43,1.43,0,0,1,0-.22c0-.11-.05-.23-.08-.35s0-.15-.06-.24l-.09-.41a1.82,1.82,0,0,1-.07-.25c0-.15-.09-.31-.13-.48l-.08-.25q-.1-.39-.24-.81c-.08-.23-.16-.44-.25-.65s-.06-.11-.09-.18a3.75,3.75,0,0,0-.21-.4l-.09-.15c-.09-.12-.16-.25-.24-.37a.93.93,0,0,0-.13-.15l-.24-.29-.13-.13-.27-.26-.13-.1a3.11,3.11,0,0,0-.28-.23,1,1,0,0,1-.13-.09l-.29-.19-.13-.08a1.91,1.91,0,0,0-.28-.15A4.61,4.61,0,0,1,151.47,108.58Zm.89-.48a4.66,4.66,0,0,0-1.7-1.72l1.25-.18H152a4.41,4.41,0,0,1,4.3,4.55,3.69,3.69,0,0,1-2.13,3c-.08-.37-.16-.72-.22-1A14.42,14.42,0,0,0,152.36,108.1Zm15.84,23.19a20.86,20.86,0,0,0-8.34-1.86h-.52c.53-1,1.22-2.55,1-3.46a1.08,1.08,0,0,0-.49-.69,25.52,25.52,0,0,0-5.14-1.38c-2-.45-4.28-1-5.85-1.44-2.87-.9-5.13-3.64-6.05-7.32-.82-3.29-.4-4.4,1.6-6.8a5,5,0,0,1,2.16-1.44,5.07,5.07,0,0,1,4.05,3.4,15,15,0,0,1,1,4.79l-.07.63v.1l.68-.19a5.43,5.43,0,0,0,1.63-.61c1.49-.7,3.46-2,3.47-4.28a5.15,5.15,0,0,0-1.7-4.1,10.56,10.56,0,0,1,4,2.36c4.56,4.26,8.14,10.13,9.33,15.32C169.86,128.49,168.69,130.62,168.2,131.29Z" transform="translate(-22.63 -49.87)"/><path class="cls-5" d="M72,134c5.12-8.63,5.12-16.1,5.12-22.52s-4.7-9.78-6.4-11.48-4.89-1.69-7.25,6.35C60.71,115.78,49.4,123.89,49,131s4.26,39,4.69,50.43q.06,1.56.06,3.06a57.33,57.33,0,0,0,15.72-24.2c2.65-7.74,1.38-17.48,2.67-22.49A10.16,10.16,0,0,1,72,134Z" transform="translate(-22.63 -49.87)"/><path d="M72.8,134.06a1.64,1.64,0,0,0,0-.23c5-8.44,5-15.52,5-21.77v-.61c0-5.83-3.77-9.28-5.79-11.13l-.76-.7a3.16,3.16,0,0,0-3.06-1,4.72,4.72,0,0,0-2.52,1.91h0l-.19.3c-.11.15-.21.33-.31.5a21.14,21.14,0,0,0-2,4.82,20.63,20.63,0,0,1-1.48,3.61,39.38,39.38,0,0,1-3,4.69l-.4.55h0c-1,1.3-2,2.57-3,3.83-3.34,4.25-6.5,8.25-6.73,12s1,14.77,2.33,26.26c1.07,9.33,2.17,19,2.37,24.22,0,.91,0,1.88,0,3v1.12l.83-.74.16-1.51c0-.7,0-1.34,0-1.94-.2-5.27-1.3-15-2.38-24.3-1.25-11-2.54-22.28-2.31-26.09.2-3.48,3.27-7.37,6.51-11.48,1.07-1.36,2.16-2.73,3.18-4.13a7.6,7.6,0,0,0,2.26.39,3.76,3.76,0,0,0,2-.49c2.37-1.47,4.65-7.23,5.38-9.78a21.5,21.5,0,0,0,.87-3.55v-.41l-3.06-.7a3.45,3.45,0,0,1,1.67-1.18,2,2,0,0,1,.48-.06,2.43,2.43,0,0,1,1.63.75c.22.22.48.46.79.74,2,1.87,5.46,5,5.46,10.39v.61c0,6.15,0,13.11-4.87,21.35a.82.82,0,0,0-.08.54.28.28,0,0,1,0,.09c0,.77,0,1.27,0,1.69,0,.64,0,1.07,0,1.92.24,1.07.81.91,1,.2v-.11c0-.92,0-1.39,0-2C72.8,135.31,72.8,134.81,72.8,134.06ZM65,103.82l3.07.81c0,.17-.1.36-.16.56-.89,3.13-3.1,8.06-4.94,9.2a4.09,4.09,0,0,1-3.09.1,34.76,34.76,0,0,0,2.81-4.62Zm3.24-.13-2.85-.76c.08-.18.17-.35.26-.52s.23-.38.37-.59l0-.07,2.52.57C68.54,102.58,68.43,103,68.24,103.69Z" transform="translate(-22.63 -49.87)"/><path class="cls-5" d="M172.59,186.16a48.1,48.1,0,0,0,6.83-15c.85-3.55-4.39-10-5.21-11h-.1s-3.51-4.09-7.15-5.53l-3.65-1.43s-1.07-1.06-5.83-.64-18.91,2.56-18.91,2.56-2.13,4.27-.36,7.25,5.69,5.83,9,5.69,10.44-.78,11.08,1-1.13,1.85-3.41,6-2.2,6.68-2.2,6.68a13.43,13.43,0,0,0,4.48,11.16c5.39,4.9,6.86,5.16,6.86,5.16h0Z" transform="translate(-22.63 -49.87)"/><path d="M174.6,159.81l-.17-.19h-.11c-.75-.84-3.87-4.18-7.18-5.49l-3.59-1.41c-.38-.29-1.86-1.08-6.13-.7-4.73.42-18.8,2.54-18.94,2.57l-.37.27c-.09.18-2.24,4.54-.34,7.73,1.81,3,5.86,6.11,9.48,5.94l1.42-.08c2.61-.14,8.74-.47,9.18.73.24.69.06.95-.77,1.9a19.57,19.57,0,0,0-2.61,3.66c-2.18,3.94-2.27,6.51-2.27,6.89a12.09,12.09,0,0,0,2.39,8.57c-1.82-5.84-1.39-8.45-1.39-8.46v-.08s0-2.5,2.15-6.43a18,18,0,0,1,2.48-3.48c.85-1,1.42-1.63,1-2.9s-2.64-1.56-5.68-1.56c-1.36,0-2.89.07-4.5.16l-1.41.07c-3.21.13-7-2.72-8.57-5.44-1.39-2.33-.12-5.64.27-6.53l.54-.09a8.71,8.71,0,0,0,2.65,4.61,4.61,4.61,0,0,0,2.8.73,18.6,18.6,0,0,0,7.57-2,4,4,0,0,0,2.07-3.21v-.11l0-.09a11.52,11.52,0,0,0-1.15-1.9c1.67-.22,3.14-.39,4.17-.48,4.32-.39,5.43.49,5.43.49l.07.08,3.75,1.48a18.68,18.68,0,0,1,6.34,4.72l.87.85c1.07,1.31,5.7,7.26,4.95,10.4a47.47,47.47,0,0,1-6.76,14.79l-8.3,11.55-.5.88a3.15,3.15,0,0,0,.58.22l.32.06L173,186.44l0,0a48.38,48.38,0,0,0,6.9-15.12C180.8,167.55,175.64,161.07,174.6,159.81Zm-31.92-.58a7.11,7.11,0,0,1-2.13-3.69l1.43-.21c.42,1.43.86,2.94,1.21,4.17A1.76,1.76,0,0,1,142.68,159.23Zm10.84-3.49A3,3,0,0,1,152,158a16.63,16.63,0,0,1-7.69,1.82l-1.37-4.73c2.78-.4,6.32-.9,9.33-1.29A9.37,9.37,0,0,1,153.52,155.74Z" transform="translate(-22.63 -49.87)"/><path d="M110.42,193.89a11.08,11.08,0,0,1-1.81-.17,6.58,6.58,0,0,1-3-1.61,4.28,4.28,0,0,1,.41-6.34v0l-.31.25.31-.29,0-.05a1.24,1.24,0,0,0,.1-.2,5.52,5.52,0,0,1,9.61.1,5.51,5.51,0,0,1-3.33,8.07A8,8,0,0,1,110.42,193.89Z" transform="translate(-22.63 -49.87)"/><path class="cls-5" d="M23.61,94.36V90.71l-1,.59V89.9l1.22-.84H25.3v5.3Zm3.34,0V90.71l-1,.59V89.9l1.21-.84h1.45v5.3Zm5-1.2a.68.68,0,0,0,.63-.33,2.07,2.07,0,0,0,.19-1v-.19a2.08,2.08,0,0,0-.2-1,.79.79,0,0,0-1.28,0,2,2,0,0,0-.2,1v.21a2,2,0,0,0,.2,1A.72.72,0,0,0,31.91,93.16Zm-.05,1.3A2.39,2.39,0,0,1,30,93.77a2.74,2.74,0,0,1-.66-2v-.21a2.62,2.62,0,0,1,.7-1.94A2.47,2.47,0,0,1,31.89,89a2.5,2.5,0,0,1,1.81.67,2.54,2.54,0,0,1,.7,1.92v.2a2.71,2.71,0,0,1-.69,2A2.46,2.46,0,0,1,31.86,94.46Zm4.22-.1v-.18l2.12-3.86H36.38V89.06h4.17v.18l-2.09,3.85h2v1.27Zm4.81-1.66v-.86l.46-.15V89.06H43v2l1.3-.46v.86L43,92v1.09H45v1.3H41.35V92.55Z" transform="translate(-22.63 -49.87)"/><path class="cls-5" d="M45.8,109.14H22.68v2.52H45.8Z" transform="translate(-22.63 -49.87)"/><path class="cls-5" d="M86.21,152.44h36.68v-2.52H86.21Z" transform="translate(-22.63 -49.87)"/><path class="cls-5" d="M78.3,156.58h44.59v-2.52H78.3Z" transform="translate(-22.63 -49.87)"/><path class="cls-5" d="M97.38,160.72h25.51v-2.51H97.38Z" transform="translate(-22.63 -49.87)"/><path class="cls-5" d="M61.17,154.37c0,.39.4.06.59.06a1,1,0,0,0,.8.07c.28.06.51-.13.77-.23a7.43,7.43,0,0,0,2.34.24c.13.21.12.13,0,0,.17-.24-.16-.42-.31-.54a1.56,1.56,0,0,0-1.92-.52,2.8,2.8,0,0,0-1.25-.14C62,153.39,61.22,154,61.17,154.37Z" transform="translate(-22.63 -49.87)"/></g></svg>