<svg id="Слой_1" data-name="Слой 1" xmlns="http://www.w3.org/2000/svg" xmlns:xlink="http://www.w3.org/1999/xlink" viewBox="0 0 65.93 91.59"><defs><style>.cls-1{fill:#6687a8;}.cls-2{fill:none;}.cls-3{mask:url(#mask);}.cls-4{clip-path:url(#clip-path);}.cls-5{fill:#8eaad4;}.cls-6{fill:#a6d9f7;}.cls-7{fill:#0092e8;fill-rule:evenodd;}.cls-8{fill:#fff;}</style><mask id="mask" x="-51.1" y="-98.9" width="300" height="300" maskUnits="userSpaceOnUse"><g transform="translate(-51.1 -98.9)"><g id="mask0"><rect class="cls-1" width="300" height="300"/></g></g></mask><clipPath id="clip-path" transform="translate(-51.1 -98.9)"><rect class="cls-2" x="32.97" y="19.78" width="267.03" height="280.22"/></clipPath></defs><title>new-process-2-img</title><g class="cls-4"><path class="cls-5" d="M85.85,134.58a1.23,1.23,0,0,1-1.24-1.24v-3.27a1.24,1.24,0,1,1,2.48,0v3.27A1.24,1.24,0,0,1,85.85,134.58Z" transform="translate(-51.1 -98.9)"/><path class="cls-5" d="M85.85,143.34a1.24,1.24,0,0,1-1.24-1.24v-3.28a1.24,1.24,0,1,1,2.48,0v3.28A1.25,1.25,0,0,1,85.85,143.34Z" transform="translate(-51.1 -98.9)"/><path class="cls-5" d="M83.26,137H80a1.24,1.24,0,0,1,0-2.48h3.27a1.24,1.24,0,0,1,0,2.48Z" transform="translate(-51.1 -98.9)"/><path class="cls-5" d="M91.7,137H88.43a1.24,1.24,0,1,1,0-2.48h3.28A1.23,1.23,0,0,1,93,135.8,1.25,1.25,0,0,1,91.7,137Z" transform="translate(-51.1 -98.9)"/><path class="cls-6" d="M91.35,174.07l15.87-10v20.48Z" transform="translate(-51.1 -98.9)"/><path class="cls-6" d="M60.16,184.52V164l15.87,10Z" transform="translate(-51.1 -98.9)"/><path class="cls-6" d="M104.28,190.49H63.11a2.91,2.91,0,0,1-2.86-2.5l23.44-15.45L107.13,188A2.91,2.91,0,0,1,104.28,190.49Z" transform="translate(-51.1 -98.9)"/><path class="cls-6" d="M88.66,172.3l-4.16-2.74a1.44,1.44,0,0,0-1.62,0l-4.16,2.74L60.26,160.62s18.81-14.54,23.43-18c4.63,3.5,23.43,18,23.43,18Z" transform="translate(-51.1 -98.9)"/><path class="cls-7" d="M84.51,157.28a1.23,1.23,0,0,0,1.85,0l4.38-4.93a1.22,1.22,0,0,0,.31-.7h23.51a2.47,2.47,0,0,0,2.47-2.47V101.37a2.47,2.47,0,0,0-2.47-2.47h-61a2.48,2.48,0,0,0-2.47,2.47v47.81a2.48,2.48,0,0,0,2.47,2.47H79.82a1.27,1.27,0,0,0,.3.7Z" transform="translate(-51.1 -98.9)"/><path class="cls-8" d="M68,123.49a2.41,2.41,0,0,1-2-.75,3.16,3.16,0,0,1-.62-2.06v-.15a2.94,2.94,0,0,1,.73-2.11,2.45,2.45,0,0,1,1.86-.78c1.37,0,2.12.58,2.24,1.73H68.61a.61.61,0,0,0-.15-.3.54.54,0,0,0-.37-.11c-.57,0-.87.45-.9,1.36a1.37,1.37,0,0,1,.51-.48,1.57,1.57,0,0,1,.79-.17,2,2,0,0,1,1.34.47,1.68,1.68,0,0,1,.54,1.35,1.81,1.81,0,0,1-.64,1.45A2.57,2.57,0,0,1,68,123.49ZM67.48,122a.6.6,0,0,0,.48.21.61.61,0,0,0,.49-.21.76.76,0,0,0,.18-.53.72.72,0,0,0-.18-.51.6.6,0,0,0-.48-.21.64.64,0,0,0-.49.21.84.84,0,0,0,0,1Zm5.7,1.47c-1.56,0-2.37-.67-2.43-2h1.59c0,.48.28.72.73.72s.64-.19.64-.57-.22-.58-.67-.58h-.45V120H73c.46,0,.69-.18.69-.57a.43.43,0,0,0-.15-.35.61.61,0,0,0-.42-.14c-.38,0-.6.23-.67.67H70.89a2,2,0,0,1,.64-1.42,2.43,2.43,0,0,1,1.65-.52,2.74,2.74,0,0,1,1.62.42,1.33,1.33,0,0,1,.58,1.15,1.19,1.19,0,0,1-1,1.22,1.33,1.33,0,0,1,.8.42,1.16,1.16,0,0,1,.31.83,1.58,1.58,0,0,1-.61,1.32A2.66,2.66,0,0,1,73.18,123.49Zm4.57-.1v-5.66h2l1.6,3v-3h1.58v5.66H81.22L79.33,120v3.39Zm9-1.31a1,1,0,0,0,.84-.4,1.72,1.72,0,0,0,.32-1.1v-.06a1.69,1.69,0,0,0-.32-1.09,1,1,0,0,0-.85-.39,1,1,0,0,0-.84.39,1.67,1.67,0,0,0-.31,1.09v.06a1.73,1.73,0,0,0,.31,1.11A1,1,0,0,0,86.71,122.08Zm0,1.41a3,3,0,0,1-2.19-.8,2.81,2.81,0,0,1-.81-2.1v-.06a2.7,2.7,0,0,1,.87-2.09,3.05,3.05,0,0,1,2.16-.8,3.12,3.12,0,0,1,2.18.77,2.62,2.62,0,0,1,.85,2.07v.06a2.82,2.82,0,0,1-.83,2.14A3.09,3.09,0,0,1,86.67,123.49Zm4.47-.1-1.31-5.66h1.81l.65,3.38.68-3.38h1.56l.77,3.42.68-3.42h1.67l-1.32,5.66H94.52L93.73,120l-.8,3.38Zm7.11,0v-5.66h4v1.37H100v.8h1.78v1.26H100V122h2.36v1.38Zm-27.11,7.69a1,1,0,0,0,.84-.4,1.72,1.72,0,0,0,.32-1.1v-.06a1.69,1.69,0,0,0-.32-1.09,1,1,0,0,0-.85-.39,1,1,0,0,0-.84.39,1.67,1.67,0,0,0-.31,1.09v.06a1.73,1.73,0,0,0,.31,1.11A1,1,0,0,0,71.14,131.08Zm0,1.41a3,3,0,0,1-2.19-.8,2.8,2.8,0,0,1-.8-2.1v-.06a2.69,2.69,0,0,1,.86-2.09,3.05,3.05,0,0,1,2.16-.8,3.12,3.12,0,0,1,2.18.77,2.61,2.61,0,0,1,.86,2.07v.06a2.83,2.83,0,0,1-.84,2.14A3.09,3.09,0,0,1,71.1,132.49Zm3.8-.11v-5.65h3.91v1.38H76.69v1H78.4v1.33H76.69v1.89Zm4.62,0v-5.65h4v1.37H81.31v.8h1.77v1.26H81.31V131h2.36v1.37Zm4.91,0v-5.65h2.31a2.85,2.85,0,0,1,1.77.46,1.63,1.63,0,0,1,.6,1.37v0a1.5,1.5,0,0,1-1,1.47l1.29,2.31H87.56l-1.06-1.93h-.28v1.93Zm1.79-3.09h.42c.49,0,.73-.2.73-.62v0a.5.5,0,0,0-.18-.43.87.87,0,0,0-.54-.14h-.43ZM91,132.38V128.1H89.54v-1.37H94.2v1.37H92.77v4.28Zm5.35,0V130l-1.84-3.24h2l.86,1.77.87-1.77h1.72L98.11,130v2.42Z" transform="translate(-51.1 -98.9)"/></g></svg>