<svg id="Слой_1" data-name="Слой 1" xmlns="http://www.w3.org/2000/svg" viewBox="0 0 77.78 82.36"><defs><style>.cls-1{fill:#0092e8;}.cls-2{fill:none;stroke:#000;stroke-linecap:round;stroke-linejoin:round;stroke-width:1.65px;}</style></defs><title>new-process-1-img</title><path class="cls-1" d="M55.91,22.28l19.57-2L64.11,3.82Z"/><path class="cls-1" d="M23.9,32.21,35.27,48.7l8.44-18.12Z"/><path class="cls-1" d="M58.26.6,22.91,25.78a3,3,0,0,0-1.09,3.7l28.47-2.3L62.06.81A2.91,2.91,0,0,0,58.26.6Z"/><path class="cls-1" d="M55.46,25.37,53.38,30a1.7,1.7,0,0,1-.56.68A1.79,1.79,0,0,1,52,31l-5,.4-9.5,20.28a2.92,2.92,0,0,0,3.77.19l35.21-25a3,3,0,0,0,1.1-3.66Z"/><path class="cls-2" d="M18.91,35.46C13,39.17,8.65,45.84,5.35,51.86"/><path class="cls-2" d="M28.8,52.42c-5.9,5.19-9.75,11.63-12.43,18.94"/><path class="cls-2" d="M11.56,58.92C6.19,65.23,3.21,73.7.82,81.53"/></svg>