<svg id="Слой_1" data-name="Слой 1" xmlns="http://www.w3.org/2000/svg" xmlns:xlink="http://www.w3.org/1999/xlink" viewBox="0 0 62.58 26.01"><defs><style>.cls-1{fill:#6687a8;}.cls-2{fill:none;}.cls-3{mask:url(#mask);}.cls-4{clip-path:url(#clip-path);}.cls-5{fill:#0092e8;}.cls-6{fill:#fff;}</style><mask id="mask" x="-106.65" y="-9.09" width="300" height="300" maskUnits="userSpaceOnUse"><g transform="translate(-106.65 -26.25)"><g id="mask0"><rect class="cls-1" y="17.16" width="300" height="300"/></g></g></mask><clipPath id="clip-path" transform="translate(-106.65 -26.25)"><rect class="cls-2" x="48.52" y="20.6" width="180.49" height="258.79"/></clipPath></defs><title>new-process-3-img-1</title><g class="cls-4"><path class="cls-5" d="M112.77,26.74H163.1a5.63,5.63,0,0,1,5.64,5.64V46.14a5.63,5.63,0,0,1-5.64,5.64H112.77a5.63,5.63,0,0,1-5.64-5.64V32.38A5.63,5.63,0,0,1,112.77,26.74Z" transform="translate(-106.65 -26.25)"/><path class="cls-5" d="M163.11,52.27H112.78a6.14,6.14,0,0,1-6.13-6.13V32.38a6.14,6.14,0,0,1,6.13-6.13h50.33a6.13,6.13,0,0,1,6.12,6.13V46.14A6.13,6.13,0,0,1,163.11,52.27ZM112.77,27.22a5.15,5.15,0,0,0-5.15,5.16V46.14a5.15,5.15,0,0,0,5.15,5.16H163.1a5.16,5.16,0,0,0,5.16-5.16V32.38a5.16,5.16,0,0,0-5.16-5.16Z" transform="translate(-106.65 -26.25)"/><path class="cls-6" d="M113.81,36.55V32.9l-1,.58V32.09l1.22-.85h1.44v5.31Zm2.25,0v-.23l1.8-1.92a7,7,0,0,0,.67-.81,1.15,1.15,0,0,0,.22-.64.53.53,0,0,0-.13-.38.41.41,0,0,0-.35-.15.52.52,0,0,0-.42.19,1.28,1.28,0,0,0-.2.62h-1.51a2,2,0,0,1,.61-1.54,2.3,2.3,0,0,1,1.6-.53,2.2,2.2,0,0,1,1.52.48,1.54,1.54,0,0,1,.53,1.24,1.79,1.79,0,0,1-.25.94,4.5,4.5,0,0,1-.73.9l-.61.58h1.64v1.25Zm6.9.09a2.28,2.28,0,0,1-1.59-.49,1.74,1.74,0,0,1-.55-1.31h1.52a.68.68,0,0,0,.17.41.61.61,0,0,0,.44.13.49.49,0,0,0,.4-.17.82.82,0,0,0,.13-.48.69.69,0,0,0-.16-.49.62.62,0,0,0-.48-.18.94.94,0,0,0-.8.36h-1l.14-3.18h3.68v1.22h-2.48l0,1.08a1.44,1.44,0,0,1,1.27-.59,1.49,1.49,0,0,1,1.17.48,1.93,1.93,0,0,1,.43,1.33,1.73,1.73,0,0,1-.59,1.37A2.38,2.38,0,0,1,123,36.64Zm3.87-.09v-.18L129,32.51h-1.82V31.24h4.17v.18l-2.1,3.86h2v1.27Zm4.81-1.66V34l.45-.16V31.24h1.69v2.05l1.31-.45v.86l-1.31.45v1.1h1.93v1.3h-3.62V34.73Z" transform="translate(-106.65 -26.25)"/><path class="cls-6" d="M156.21,43.22H112.75v2.51h43.46Z" transform="translate(-106.65 -26.25)"/></g></svg>