<svg id="Capa_1" data-name="Capa 1" xmlns="http://www.w3.org/2000/svg" viewBox="0 0 442.03 512"><title>info</title><path d="M377.3,64.73A221,221,0,0,0,64.73,377.3,219.45,219.45,0,0,0,206,441.54V512l23.68-16.81c4.17-3,102.68-73.05,150.8-121.18A206.21,206.21,0,0,0,426,305,223.18,223.18,0,0,0,442,221,219.56,219.56,0,0,0,377.3,64.73ZM236,453.53V412.05H221c-105.34,0-191-85.7-191-191S115.68,30,221,30s191,85.69,191,191c0,51-18.74,97.77-52.75,131.79C327,385.16,268.61,429.48,236,453.53Z"/><path d="M221,79.18C142.81,79.18,79.18,142.81,79.18,221S142.81,362.85,221,362.85,362.85,299.22,362.85,221,299.22,79.18,221,79.18Zm0,253.68A111.85,111.85,0,1,1,332.86,221,112,112,0,0,1,221,332.86Z"/><path d="M205.91,198.75h30.21v86.19H205.91Z"/><path d="M221,157.09c-11.13,0-18.45,7-18.45,16.06s7.32,16.06,18.45,16.06,18.44-7,18.44-16.54c0-9.06-7.31-15.58-18.44-15.58Z"/></svg>