<svg id="Layer_1" data-name="Layer 1" xmlns="http://www.w3.org/2000/svg" xmlns:xlink="http://www.w3.org/1999/xlink" viewBox="0 0 214.3 163.23"><defs><style>.cls-1{fill:#bb8b50;}.cls-2{fill:url(#radial-gradient);}</style><radialGradient id="radial-gradient" cx="5093.95" cy="3123.11" r="163.86" gradientTransform="translate(4561.32 -3804.28) rotate(106.83)" gradientUnits="userSpaceOnUse"><stop offset="0.18" stop-color="#fff"/><stop offset="0.29" stop-color="#fbfdfd"/><stop offset="0.42" stop-color="#edf6f6"/><stop offset="0.55" stop-color="#d8ebeb"/><stop offset="0.69" stop-color="#badcdc"/><stop offset="0.76" stop-color="#a5d2d2"/><stop offset="0.84" stop-color="#a9d4d5"/><stop offset="0.91" stop-color="#b4dbdd"/><stop offset="0.97" stop-color="#c6e6ec"/><stop offset="1" stop-color="#d0ecf3"/></radialGradient></defs><title>reviews-planet</title><path class="cls-1" d="M3.63,48.65C.06,42.52-.93,37,.9,32.4c3.67-9.17,18.21-13.33,40.94-11.69s50.63,8.76,79,20.09,53.54,25.5,71,39.9,25.24,27.53,21.57,36.7c-4.84,12.12-28.48,15.35-63.22,8.66l.14-.71c33.86,6.53,57.78,3.38,62.41-8.21,7.38-18.44-34-52.39-92.2-75.68C92.27,30.16,64.3,23,41.78,21.42S5.11,23.81,1.57,32.67C-3,44.23,12,63,40.88,81.53l-.39.6C22.12,70.31,9.45,58.67,3.63,48.65Z"/><path class="cls-2" d="M77.34,159.71a81.59,81.59,0,1,1,101.73-54.46A81.6,81.6,0,0,1,77.34,159.71Z"/><path class="cls-1" d="M25.53,21.34l-.05-.71C49,18.8,84.66,26.34,120.8,40.8c27.45,11,52.16,24.73,69.57,38.72l-.45.56c-17.35-14-42-27.66-69.39-38.62C84.49,27.05,49,19.53,25.53,21.34Z"/></svg>