<?xml version="1.0" encoding="utf-8"?>
<!-- Generator: Adobe Illustrator 23.0.1, SVG Export Plug-In . SVG Version: 6.00 Build 0)  -->
<svg version="1.0" id="Capa_1" xmlns="http://www.w3.org/2000/svg" xmlns:xlink="http://www.w3.org/1999/xlink" x="0px" y="0px"
	 viewBox="0 0 512 512" style="enable-background:new 0 0 512 512;" xml:space="preserve">
<style type="text/css">
	.st0{fill:#CECECE;}
</style>
<g>
	<g>
		<path class="st0" d="M363.27,0H148.73C66.72,0,0,66.72,0,148.73v214.54C0,445.28,66.72,512,148.73,512h214.54
			C445.28,512,512,445.28,512,363.27V148.73C512,66.72,445.28,0,363.27,0z M472,363.27C472,423.23,423.23,472,363.27,472H148.73
			C88.78,472,40,423.23,40,363.27V148.73C40,88.78,88.78,40,148.73,40h214.54C423.23,40,472,88.78,472,148.73V363.27z"/>
	</g>
</g>
<g>
	<g>
		<path class="st0" d="M256,118c-76.09,0-138,61.91-138,138s61.91,138,138,138s138-61.91,138-138S332.09,118,256,118z M256,354
			c-54.04,0-98-43.96-98-98s43.96-98,98-98s98,43.96,98,98S310.04,354,256,354z"/>
	</g>
</g>
<g>
	<g>
		<circle class="st0" cx="396" cy="116" r="20"/>
	</g>
</g>
</svg>
