<?xml version="1.0" encoding="utf-8"?>
<!-- Generator: Adobe Illustrator 21.0.0, SVG Export Plug-In . SVG Version: 6.00 Build 0)  -->
<svg version="1.1" id="OBJECTS" xmlns="http://www.w3.org/2000/svg" xmlns:xlink="http://www.w3.org/1999/xlink" x="0px" y="0px"
	 viewBox="0 0 201 201" style="enable-background:new 0 0 201 201;" xml:space="preserve">
<style type="text/css">
	.st0{fill:#313332;}
</style>
<path class="st0" d="M201,100.5c0,8.7-8.6,16.1-10.7,24.1c-2.2,8.3,1.5,19-2.7,26.2c-4.2,7.3-15.4,9.5-21.4,15.4
	c-6,6-8.1,17.1-15.4,21.4c-7.2,4.2-17.9,0.5-26.2,2.7c-8,2.1-15.4,10.7-24.1,10.7s-16.1-8.6-24.1-10.7c-8.3-2.2-19,1.5-26.2-2.7
	c-7.3-4.2-9.5-15.4-15.4-21.4c-6-6-17.1-8.1-21.4-15.4c-4.2-7.2-0.5-17.9-2.7-26.2C8.6,116.6,0,109.2,0,100.5s8.6-16.1,10.7-24.1
	c2.2-8.3-1.5-19,2.7-26.2c4.2-7.3,15.4-9.5,21.4-15.4c6-6,8.1-17.1,15.4-21.4c7.2-4.2,17.9-0.5,26.2-2.7C84.4,8.6,91.9,0,100.5,0
	s16.1,8.6,24.1,10.7c8.3,2.2,19-1.5,26.2,2.7c7.3,4.2,9.5,15.4,15.4,21.4c6,6,17.1,8.1,21.4,15.4c4.2,7.2,0.5,17.9,2.7,26.2
	C192.4,84.4,201,91.9,201,100.5z"/>
</svg>
