<svg id="comparation-icon" xmlns="http://www.w3.org/2000/svg" viewBox="0 0 18 21"><title>comparation1-icon</title><path id="Rounded_Rectangle_1" data-name="Rounded Rectangle 1" d="M1.5,11h0A1.5,1.5,0,0,1,3,12.5v7A1.5,1.5,0,0,1,1.5,21h0A1.5,1.5,0,0,1,0,19.5v-7A1.5,1.5,0,0,1,1.5,11Z" style="fill:#00aeef"/><path id="Rounded_Rectangle_1-2" data-name="Rounded Rectangle 1-2" d="M6.5,6h0A1.5,1.5,0,0,1,8,7.5v12A1.5,1.5,0,0,1,6.5,21h0A1.5,1.5,0,0,1,5,19.5V7.5A1.5,1.5,0,0,1,6.5,6Z" style="fill:#00aeef"/><path id="Rounded_Rectangle_1-3" data-name="Rounded Rectangle 1-3" d="M11.5,9h0A1.5,1.5,0,0,1,13,10.5v9A1.5,1.5,0,0,1,11.5,21h0A1.5,1.5,0,0,1,10,19.5v-9A1.5,1.5,0,0,1,11.5,9Z" style="fill:#00aeef"/><path id="Rounded_Rectangle_1-4" data-name="Rounded Rectangle 1-4" d="M16.5,0h0A1.5,1.5,0,0,1,18,1.5v18A1.5,1.5,0,0,1,16.5,21h0A1.5,1.5,0,0,1,15,19.5V1.5A1.5,1.5,0,0,1,16.5,0Z" style="fill:#00aeef"/></svg>