<?xml version="1.0" encoding="utf-8"?>
<!-- Generator: Adobe Illustrator 21.0.0, SVG Export Plug-In . SVG Version: 6.00 Build 0)  -->
<svg version="1.1" id="Слой_1" xmlns="http://www.w3.org/2000/svg" xmlns:xlink="http://www.w3.org/1999/xlink" x="0px" y="0px"
	 viewBox="0 0 54.5 37.7" style="enable-background:new 0 0 54.5 37.7;" xml:space="preserve">

<g>
	<polygon class="st0" points="3.8,16.6 3.3,15.4 3.3,15.3 3.4,15.2 3.8,15.2 3.9,15.4 4.1,15.5 4.1,15.6 4.1,15.7 4.2,15.8 
		4.1,16.1 4.2,16.3 4.1,16.5 3.9,16.5 3.8,16.6 	"/>
</g>
<g>
	<polygon class="st0" points="54.2,29.5 54.3,29.9 54.2,30.6 54,30.9 54,31 53.8,31.3 53.7,31.8 53.6,32.1 53.9,32.4 53.9,32.6 
		53.7,33.1 53.6,33 53.4,33 53.4,33 53.3,33.1 53.1,33 53.1,33 53.1,33 53.1,33 53,32.3 53.3,32 53.3,31.2 53.5,31 53.6,30.8 
		53.8,30.6 53.8,30.2 53.9,29.8 53.8,29.5 53.8,29.4 54,29.4 	"/>
</g>
<g>
	<polygon class="st0" points="54.5,28.4 54.4,29.2 54.3,29.3 54.1,29.3 54.1,28.7 54.1,28.4 53.9,27.9 54,27.8 53.6,27.5 53.8,27.2 
		53.9,27 53.9,26.9 53.6,26.9 53.5,26.8 53.6,26.6 53.5,26.3 53.6,26 53.4,25.9 53.3,25.8 53.4,25.6 53.6,25.5 53.6,25.4 54,25.5 
		54.1,26 54,26.5 54.2,26.8 54.3,27 54.3,27.6 54.2,27.8 54.3,28 	"/>
</g>
<g>
	<path class="st0" d="M44.4,14L44.4,14l-0.1,0.5l0.2-0.1v-0.2L44.4,14z M54,24.5l-0.1-0.3l-0.4-0.7l0.1-0.3l0.1-0.1V23l-0.4-0.3
		l-0.1-0.2v-0.3l0.3-0.3v-0.4l-0.2-0.1H53l-0.2-0.1L52.7,21l0.3-0.1v-0.3l-0.4-0.3l-0.4-0.1l-0.1-0.4l-0.4-0.5v-0.5l-0.3-0.2v-0.4
		l0.1-0.2l-0.1-0.4l0.1-0.4l0.2-0.2h0.5l0.1-0.2l-0.2-0.3V16l-0.2-0.7l0,0v-0.1v-1.1l0.1-0.2l0.3-0.4v-0.2L52.1,13h-0.2h-0.2h-0.4
		l-0.6-0.1l-0.1-0.5L50.4,12l0.2-0.5v-0.2l0.1-0.1l0.2,0.1l0.4-0.1l0.2-0.3l0.3-0.2l0.2-0.3L51.9,10l-0.7-0.3l0.1-0.2l-0.1-0.2
		L51,9.2L51.3,9l-0.5-0.2l-0.3,0.3L50,9.3L49.6,10h-0.3l-1.8,1h-0.1l-0.6,0.5l-0.3,0.1l0,0.4l-0.7,0.8l-0.1,0.4l-0.2,0.1l-0.1,0.2
		l0.1,0.4V14l-0.3,0.3L45,14.4l-0.2,0.4v-0.2l-0.1,0.2L44.5,15h-0.1l-0.1-0.2v4.8c0,1.6-1.1,2-1.1,2s-11,5.5-12.3,6
		c-1.2,0.6-2.3,0-2.3,0S18.5,22.8,16.9,22c-1.5-0.8-1.8-2.6-1.8-2.6v-6.2H15l-0.1,0.1l0,0l0,0l-0.1-0.2l-0.1,0.1l0,0l0,0L14.5,13
		h-0.1l-0.1,0.1L14.1,13v0.1h-0.3l-0.1,0.2v0.2l-0.1,0.3H13L12.9,14l-0.6,0.7v-0.1v0.1h-0.2v0.1H12h-0.1l-0.1,0.1V15l-0.2,0.1
		l-0.1,0.2h-0.2l-0.1-0.1l-0.1,0.6L11,16l-0.4,0.1l-1-0.1l-0.8,0H8.6l-0.5-0.2L8,16l0.1,0.3L8,16.5l0,0l0,0l0,0H7.7l0,0l0,0l0,0l0,0
		l-0.2-0.1H7.4l-0.3,0.2l0,0V17l0,0l0,0L7,16.9l0,0H6.8l-0.1,0.3l-0.3,0.1l0.1,0.1l-0.4,0.4l0.1,0.1L6.1,18h0.1v0.1l-0.1,0.1v0.1
		l0.3,0.2v0.1l-0.1,0.3h0.2L6.1,19L6,19.2H5.8v0.2H5.7l-0.1,0.2v0.3H5.4l0.1,0.3l-0.1,0.1l0,0v0.1l0,0l0,0l-0.3-0.1L5,20.2V20l0,0
		H4.9l-0.1,0.2l-0.3,0.2l-0.1,0.2l0.2,0.1l0.1-0.1l0.1,0.2l0.1,0.1v0.2L5,21.2l-0.2,0.4v0.1l-0.1-0.1v0.1l-0.2,0.1l0.1,0.3l0.1,0.1
		l-0.1,0.1v0.1H4.5l0,0l0.1,0.1l-0.1-0.1v-0.1l0,0l-0.1,0.1H4.3l-0.1,0.2l0.2,0.1V23l0.4,0.2l-0.1,0.5h0.2v0.1L5,23.9v0.2h0.2
		l-0.1,0.1l0.1,0.2v0.2l0.2,0.1H5.3v0.2H5.1L5,24.8v0.1L5.1,25H5v-0.1H4.8V25l-0.1,0.1H4.6v0.1H4.4l-0.1,0.1L4,24.9L3.9,25l-0.3,0
		l-0.2,0.1l0,0H3.3v0.1l0.1,0.1L3,25l-1,0.2H1.9L1.7,25H1.5l0.1-0.3l-0.1-0.1v-0.2H1.4l0-0.4H1.2l-0.3-0.2l-0.3-0.1H0.4l-0.1,0.2
		l0.1,0.2v0.5v-0.2l-0.3,0.1L0,24.7V25l0.1-0.1L0,25l0.2,0.2l0.4,0.1l0.2,0.2l0.3,0.1l0.2,0.3L1.5,26l0,0v0.1l-0.1,0.3l0.2,0.7
		L1.5,28h0.3L2,28.3v0.2l0.1,0.2v0.2l0.3,0.3L2.7,29l-0.2,0.1v0.2l0.1,0.1v0.3l0.1,0.1H2.6L2.7,30H2.6v0.1h0.2L3,30.2l0.1-0.1
		L3.2,30h0.1l0,0l0,0v0.2l0.2,0.2l0,0l-0.2,0.1l0.2,0.6h0.1v0.5l0.2,0.2L4,31.7l0.2,0.1h0.4l0.2-1l0.3-0.2h0.2h0.1v-0.2l-0.1-0.1
		h0.2L5.3,30v-0.1l-0.2-0.1h0.1l0.4-0.1h0.1v-0.2l0.1,0.2H6l0,0l0.2,0.2l0.2-0.1h0.4v-0.2v-0.1l-0.1-0.2l0,0v-0.1l0,0l0,0h0.1l0,0
		v0.1h0.1l0.2-0.7l0,0v-0.1l0,0l-0.2-0.3l0,0l-0.1,0.1l0,0l0,0v-0.1v-0.1l0,0V28l0,0l0,0v-0.2l0.1,0.1v-0.1l-0.1-0.1l0,0v-0.1v-0.1
		l0,0L7,27.4h0.2h0.2v-0.2l0,0h0.1l0,0L7.7,27H8l0,0l0,0l0,0l0,0l0,0l0,0h0.1L8,26.9L8.1,27l0,0l0,0l0,0v0.1v0.1L8,27.5l0,0l0,0l0,0
		l0.1,0.1h0.2l0,0l0.2-0.4l0,0l0.1,0.1h0.2l0,0H9l0.1-0.1l0.1,0.1l0,0h0.3h0.1l0.2-0.1l0,0l0,0l0,0l0,0l0,0v-0.1l0,0l0.1,0.2l0,0
		l0,0l0.1,0.1l0,0l0,0l0.3,0.1l0,0l0,0l0.2,0.1l0,0l0,0v0.1l0,0v0.1l0,0l0.2,0.2v0.1l0,0l0,0v0.1l0.1,0.1l0,0l0,0l0,0v0.1v0.2l0,0
		l0,0h-0.1l0,0v0.1l0.1-0.1v-0.1h0.1l0,0l0,0l0,0l0.1,0.2l0,0v0.1l0.1,0.3l0.3-0.1h0.2l0,0v0.1l0,0l0,0l0.2,0.1v0.2h0.1l0.1-0.1
		l0.3,0.2h0.1l0.1,0.2v0.1v0.1l0,0l0.2,0.3v0.1l0,0l0,0h0.1l0.2-0.1l0,0l0,0l0.1,0.2l0.2,0.1l0.3,0.1l0.1-0.1l0.1-0.2l-0.1-0.1v-0.1
		h-0.1L13.5,30l0.1-0.1l0,0l0,0l0,0l0,0l0,0l0,0l0,0l0,0v-0.1l0,0h0.1l-0.4-0.3v-0.1l0,0v-0.1v0.1h0.1h0.4v-0.1l0,0v-0.2h0.1
		l0.2-0.1l0,0l0,0l0.3,0.2l0,0l0.1,0.1l-0.2-0.2l0.1-0.1l-0.1-0.1l0.1-0.1l0,0h0.2l-0.3-0.2h0.2v-0.1l0,0l0,0l0.1,0.1l0,0l0,0h0.1
		v0.1h0.1v0.1h0.1l0.2,0.1V29h0.1l0,0l0.2,0.1l0,0l0,0l0,0l0,0h0.2v0.1h0.1l0,0l0,0l0.2,0.1H16l0.2,0.2l0.1-0.5l0,0l0,0l0,0h0.1l0,0
		l0,0h0.1l0,0h0.1l0,0l0,0v0.1l0.9,0.2l0,0v-0.1l0,0l0,0l0.2,0.1l0,0l0,0l0,0l0,0l0,0l0.1,0.1v-0.1l0.2,0.2l0.3-0.3v0.1l0.2,0.2
		l0.1-0.1l0,0l0,0h0.1h0.1h-0.1l0,0v0.2v0.1v0.2V30v0.1v0.1l-0.1,0.2l0.1,0.1l0.1-0.1l0,0h0.1l0.1,0.1v-0.1v-0.1l0,0l0,0l0.1,0.1
		l0.1,0.1l0,0h-0.1l0,0v0.1l0,0l0,0v-0.1l0,0l0,0l0.1,0.1v0.1l0.1,0.1l0,0h0.1h0.1l0,0l0,0L19.4,31h-0.2l0,0l0,0l0,0l0,0l0,0h0.1
		h0.1l0,0l-0.1,0.1h-0.1l0,0l0,0h-0.1l0,0h0.1h0.1l0.1,0.2l0.1-0.1l0,0h0.2h0.1l0.2-0.1V31l0,0l0,0h0.1h0.3l0,0h0.1h0.2l0,0l0,0
		l-0.1,0.2h0.1l0,0l-0.1,0.2l0,0l0,0h-0.1v0.1l0.4,0.7l0.4,2l0,0l0,0h0.1h0.1l0,0V34l0,0h0.1l0,0l0.1,0.1h0.1l0,0h0.1v0.2l0,0v0.2
		l0.5,0.1l0,0l0.1-0.1l0,0h0.2h0.2l0.2,0.2l0,0l0,0v0.4l0.3,0.2l0,0l0,0l0.1,0.2h0.1h0.1l0,0l0,0l0,0l0.2,0.1l0.1-0.1l0.2-0.1h0.1
		l-0.1,0.1l0,0h0.1l0,0v0.2l0,0h0.1v0.1h0.1h0.3l0.1-0.2l0.3,0.1v-0.1v0.1h0.1v-0.1l0.1,0.1l0.1-0.1v-0.2v0.2l0,0v-0.2l0.5-0.1
		l0.1-0.1h0.2l0.2-0.2h0.2l0.1-0.1l0.1,0.1h0.2v0.1l0.1,0.1l0.5,0.1v0.3l0.1,0.1H28l0.3,0.1l0.2-0.1l0.3,0.1v-0.1l0.2,0.1l0.2,0.1
		l0.2-0.2l0,0l0.2-0.3v-0.1l-0.1-0.1v-0.1L29.4,35l0.1-0.3h0.1l0.1-0.2l0.2-0.1l0.1-0.2l0,0l0.3,0.1v0.1h0.3l0.3,0.2l0.3,0.1
		l0.1,0.5l0.2,0.2l0.3,0.1v0.1h0.4l0.1-0.1l0.4-0.2l0.4,0.1h0.2l0.3,0.2h0.3v-0.1l0,0l0,0l0,0v0.1H34v0.2l0.3,0.2l0.3-0.1l0.5,0.1
		l0.1-0.1h0.2l0.3-0.2l0.7-0.2l0.1-0.3l0.5-0.4h0.2l0.4,0.2l0.3-0.2l0.4,0.2h0.4l0.2-0.4l0.3-0.1v-0.2h-0.1l0.1-0.6v-0.4l0.2-0.3
		v-0.2l-0.1-0.1v-0.1h-0.1L39,32.7l-0.1-0.1l0.3-0.5l0.4-0.2h0.1l0,0l0.6-0.3l0.6,0.1l0.1-0.1h0.2l0.1,0.1h0.1l0.1,0.1h0.1v0.1
		l0.3,0.1v0.1H42v0.1l0.3,0.2l0.1,0.2v-0.1v0.2l0.3,0.1l0.1,0.3H43v0.2l0.2,0.2h0.3l0.2-0.1v0.1h0.2l0.2-0.1l0.5,0.2l0.2-0.1v0.1
		l0,0l0.1-0.1l0,0l-0.1,0.1v0.1h0.1l0.1,0.1V34l0.3,0.2l0.2-0.1h0.1l0.4-0.3v-0.2h0.1l0.1-0.2l0.2-0.1l0.2-0.3l0.3-0.1l0,0l0,0v-0.2
		l0,0v0.1l0,0l0,0v0.1v0.2l0.2,0.1v0.2L47,33.6l0.1,0.1v0.1L47,33.9h0.2l0.1,0.1h0.1v0.2h-0.2l0.1,0.2l-0.1,0.4l0.1,0.1L47.2,35
		l0.1,0.3v0.1h-0.6l-0.1,0.3l-0.2,0.2l0.4,0.4l0.1,0.4l0.1,0.1v0.4l-0.3,0.3h0.1l0.1,0.2l0,0h0.2l0.3-0.5l0.7-0.2l0.3-0.3l0.5-0.9
		v-0.7l0.3-1.4V33l-0.1-0.4l0.1-0.3v-0.1v-0.3l0.1-0.6l-0.1-0.4l-0.3-0.8L48.3,30l-0.1-0.3v-0.3h0.2l0.2,0.2v0.2l0.6,0.7l0.2,0.5
		l0.4,0.3l0.1,0.3l0.3,0.3l0.2,0.4l0.4,0.4l0.3-0.1l-0.2-0.5L51,32l0.2,0.1l0.2,0.2h0.1l0.1-0.1l-0.1-0.3l-0.3-0.3h-0.3l-0.1-0.1
		l-0.5-0.3L50,30.3l0.2-0.2l0.5,0.2l0.1-0.1v-0.1l-0.2-0.2l-0.3-0.1l-0.7-0.5l-0.9-0.8L48.5,28l-0.6-0.5l-0.1-0.2l-0.4-0.2l-0.2,0.3
		v0.1l0.3,0.1L47.3,28H47l-0.6-0.3h-0.1l0,0.4h-0.2L45.9,28l-0.1-0.3l-0.1-0.1l-0.4,0.3l-0.2,0.4l-0.2,0.1l0.4-1.3l-0.1-0.2l0.3-1.1
		l-0.1-0.3l0.1-0.3v-0.5l0.3-0.4l0.4-0.3h0.3l0.2-0.3l1.1-0.6l0.1-0.1l0.3-0.1l0.4-0.5v-0.2l0.2-0.1l0.3-0.5v-0.1L49,21.3l-0.4,0.1
		l-0.2-0.1v-0.7l-0.1-0.2v-0.2L48.2,20l0.3-0.5l0.1-0.1h0.2l0.3,0.3l0.4,0.1l0.1-0.2h0.2h0.1v0.1v0.4l0.3,0.9v0.4l-0.1,0.2L50,22
		l0.1,0.1h0.2v0.2l0.1,0.2v0.3l0.3,0.5l0.4,0.4l1.4,1L53,25l0.5,0.4l0.5,0.1V24.5z M51.5,10.1L51.5,10.1L51.5,10.1L51.5,10.1
		L51.5,10.1z M6.8,17.1L6.8,17.1H7H6.8z M7.5,17.8L7.5,17.8L7.5,17.8L7.5,17.8z M14.4,13.2L14.4,13.2L14.4,13.2L14.4,13.2z
		 M14.8,13.5v-0.2h-0.1l0,0l0.1-0.1V13.5L14.8,13.5z M46.7,32.9L46.7,32.9L46.6,33L46.7,32.9z M46.4,33.1L46.4,33.1l-0.3,0.1
		L46.4,33.1z"/>
</g>
<g>
	<polygon class="st0" points="46.1,10.7 46,10.3 46,10.1 46.2,9.8 46.5,9.7 46.7,9.8 46.8,10 46.7,10.6 46.5,11 46.2,10.9 	"/>
</g>
<g>
	<path class="st1" d="M43.9,14.6L43.9,14.6L43.9,14.6L43.9,14.6z M44.1,14.6L44.1,14.6l0.2,0.2v-0.4L44.1,14.6z"/>
</g>
<g>
	<path class="st0" d="M29.7,24.2c-0.6,0-1-0.4-1-1V11.5c0-0.6,0.4-1,1-1s1,0.4,1,1v11.7C30.7,23.7,30.3,24.2,29.7,24.2z"/>
</g>
<g>
	<path class="st0" d="M35,13.8c-0.6,0-1-0.4-1-1V8.9l-9.8-4.6C23.7,4,23.5,3.5,23.7,3s0.8-0.7,1.3-0.5l10.4,4.9
		C35.8,7.5,36,7.9,36,8.3v4.5C36,13.3,35.6,13.8,35,13.8z"/>
</g>
<g>
	<path class="st0" d="M29.6,12.5c-0.6,0-1-0.2-1.1-0.2l-10-4.9c-0.5-0.2-0.7-0.8-0.5-1.3c0.2-0.5,0.8-0.7,1.3-0.5l10,4.9
		c0,0,0,0,0,0c0,0,0.2,0.1,0.5,0c0.7-0.4,9.6-4.6,10-4.8c0.5-0.2,1.1,0,1.3,0.5c0.2,0.5,0,1.1-0.5,1.3c-0.1,0-9.2,4.4-10,4.8
		C30.3,12.4,30,12.5,29.6,12.5z"/>
</g>
<g>
	<path class="st0" d="M29.8,24.4c-0.7,0-1.2-0.2-1.3-0.3c-0.1,0-7.5-3.6-8.6-4.1c-1.3-0.6-1.8-1.9-1.9-2.6c0-0.1,0-0.1,0-0.2V6.5
		c0-1.1,0.9-1.7,1.4-1.9c0,0,8.3-3.9,9.1-4.3c1.1-0.6,2.2,0,2.3,0c0.3,0.1,8,3.8,9,4.3c1.3,0.6,1.6,1.9,1.5,2.6l0,10.3
		c0,1.4-0.9,2.1-1.4,2.3c-0.2,0.1-8,3.9-8.9,4.3C30.6,24.3,30.1,24.4,29.8,24.4z M20,17.2c0,0.2,0.2,0.8,0.7,1
		c1.1,0.5,8.3,4,8.6,4.1c0,0,0.4,0.2,0.9,0c0.9-0.4,8.9-4.2,9-4.3c0.1,0,0.2-0.2,0.2-0.5V7.1c0-0.2,0-0.5-0.4-0.7
		c-1-0.5-8.9-4.3-9-4.3c-0.1,0-0.3-0.1-0.5,0c-0.9,0.4-8.9,4.2-9.3,4.3c-0.1,0-0.2,0.1-0.2,0.1V17.2z"/>
</g>
</svg>
