<?xml version="1.0" encoding="utf-8"?>
<!-- Generator: Adobe Illustrator 22.0.1, SVG Export Plug-In . SVG Version: 6.00 Build 0)  -->
<svg version="1.1" id="Слой_1" xmlns="http://www.w3.org/2000/svg" xmlns:xlink="http://www.w3.org/1999/xlink" x="0px" y="0px"
	 viewBox="0 0 55.9 57" style="enable-background:new 0 0 55.9 57;" xml:space="preserve">
<linearGradient id="discount-icon_1_" gradientUnits="userSpaceOnUse" x1="-2.763491e-02" y1="28.5015" x2="55.9705" y2="28.5015">
	<stop  offset="0" style="stop-color:#D4090C"/>
	<stop  offset="1" style="stop-color:#ED1D1B"/>
</linearGradient>
<path id="discount-icon" style="fill:url(#discount-icon_1_);" d="M55.3,31.6l-0.9-1.2c-0.9-1.3-1-3,0-4.3l0.8-1.2
	c1.2-1.7,0.8-4-0.9-5.2c-0.1-0.1-0.3-0.2-0.4-0.2l-1.3-0.7c-1.4-0.7-2.2-2.3-1.9-3.9l0.2-1.4c0.3-2-1-3.9-3-4.3c-0.2,0-0.3,0-0.5,0
	L46,9.1c-1.6-0.1-3-1.1-3.4-2.7l-0.4-1.4c-0.6-2-2.6-3.1-4.6-2.5c-0.2,0-0.3,0.1-0.4,0.2l-1.3,0.6c-1.5,0.6-3.2,0.3-4.2-0.9l-1-1.1
	c-1.4-1.5-3.7-1.7-5.2-0.3c-0.1,0.1-0.2,0.2-0.3,0.3l-1,1.1c-1.1,1.2-2.8,1.6-4.2,1l-1.4-0.6c-1.9-0.8-4.1,0.1-4.9,2
	c-0.1,0.1-0.1,0.3-0.1,0.4L13,6.7c-0.4,1.5-1.8,2.6-3.4,2.7L8.2,9.5c-2,0.1-3.6,1.9-3.5,3.9c0,0.2,0,0.3,0.1,0.5L5,15.3
	c0.3,1.6-0.5,3.1-1.8,3.9l-1.3,0.7c-1.8,1-2.4,3.2-1.4,5c0.1,0.1,0.2,0.3,0.3,0.4l0.9,1.2c0.9,1.3,1,3,0,4.3l-0.8,1.2
	c-1.2,1.7-0.8,4,0.9,5.2c0.1,0.1,0.3,0.2,0.4,0.2l1.3,0.7c1.4,0.7,2.2,2.3,1.9,3.9L5,43.5c-0.3,2,1,3.9,3,4.3c0.2,0,0.3,0,0.5,0
	l1.5,0.1c1.6,0.1,3,1.1,3.4,2.7l0.4,1.4c0.6,2,2.6,3.1,4.6,2.5c0.2,0,0.3-0.1,0.4-0.2l1.3-0.6c1.5-0.6,3.2-0.3,4.2,0.9l1,1.1
	c1.4,1.5,3.7,1.7,5.2,0.3c0.1-0.1,0.2-0.2,0.3-0.3l1-1.1c1.1-1.2,2.8-1.6,4.2-1l1.4,0.6c1.9,0.8,4.1-0.1,4.9-2
	c0.1-0.1,0.1-0.3,0.1-0.4l0.4-1.4c0.4-1.5,1.8-2.6,3.4-2.7l1.5-0.1c2-0.1,3.6-1.9,3.5-3.9c0-0.2,0-0.3-0.1-0.5l-0.3-1.4
	c-0.3-1.6,0.5-3.1,1.8-3.9l1.3-0.7c1.8-1,2.4-3.2,1.4-5C55.4,31.9,55.3,31.8,55.3,31.6z"/>
</svg>
