<?xml version="1.0" encoding="utf-8"?>
<!-- Generator: Adobe Illustrator 21.0.0, SVG Export Plug-In . SVG Version: 6.00 Build 0)  -->
<svg version="1.1" id="Слой_1" xmlns="http://www.w3.org/2000/svg" xmlns:xlink="http://www.w3.org/1999/xlink" x="0px" y="0px"
	 viewBox="0 0 24.2 35.9" style="enable-background:new 0 0 24.2 35.9;" xml:space="preserve">
<style type="text/css">
	.st0{fill:#28ABE2;}
</style>
<path class="st0" d="M17.4,8.4c-0.5-0.5-1.2-0.5-1.7,0l-5.2,5.1l-2.4-2.4c-0.5-0.5-1.2-0.5-1.7,0s-0.5,1.2,0,1.7l3.3,3.3
	c0.2,0.2,0.5,0.4,0.8,0.4s0.6-0.1,0.8-0.3l6-6C17.9,9.6,17.9,8.9,17.4,8.4z M17.4,8.4c-0.5-0.5-1.2-0.5-1.7,0l-5.2,5.1l-2.4-2.4
	c-0.5-0.5-1.2-0.5-1.7,0s-0.5,1.2,0,1.7l3.3,3.3c0.2,0.2,0.5,0.4,0.8,0.4s0.6-0.1,0.8-0.3l6-6C17.9,9.6,17.9,8.9,17.4,8.4z"/>
<path class="st0" d="M24.2,12c0-6.6-5.4-12-12.1-12C5.5,0,0,5.4,0,12c0,3.6,1.6,6.9,4.2,9.1L3.7,34.2l0,0c0,0.6,0.4,1.2,0.9,1.5
	c0.6,0.3,1.2,0.2,1.7-0.2l5.8-4.9l5.8,4.9c0.3,0.3,0.7,0.4,1,0.4c0.2,0,0.5,0,0.7-0.1c0.6-0.3,0.9-0.8,0.9-1.5l0,0l-0.6-13.2
	C22.6,18.9,24.2,15.6,24.2,12z M13.2,28.3c-0.6-0.6-1.5-0.6-2.1,0l-4.9,4.2l0.4-9.9c1.7,0.9,3.6,1.3,5.6,1.3s3.9-0.5,5.6-1.3
	l0.4,9.9L13.2,28.3z M12.1,21.6c-5.4,0-9.7-4.3-9.7-9.6s4.3-9.6,9.7-9.6s9.7,4.3,9.7,9.6S17.5,21.6,12.1,21.6z"/>
</svg>
