<?xml version="1.0" encoding="utf-8"?>
<!-- Generator: Adobe Illustrator 21.0.0, SVG Export Plug-In . SVG Version: 6.00 Build 0)  -->
<svg version="1.1" id="Слой_1" xmlns="http://www.w3.org/2000/svg" xmlns:xlink="http://www.w3.org/1999/xlink" x="0px" y="0px"
	 viewBox="0 0 266.8 54.6" style="enable-background:new 0 0 266.8 54.6;" xml:space="preserve">

<g>
	<g>
		<path class="st0" d="M139.9,19.8v3.4c0,0.4-0.3,0.7-0.7,0.7h-12.7v3.3h9.3c0.4,0,0.7,0.3,0.7,0.7v4.1c0,0.4-0.3,0.7-0.7,0.7h-9.3
			v3.3h13.4c0.4,0,0.7,0.3,0.7,0.7v3.3c0,0.4-0.3,0.7-0.7,0.7h-21.2c-0.4,0-0.7-0.3-0.7-0.7V19.8c0-0.4,0.3-0.7,0.7-0.7h20.5
			C139.6,19.1,139.9,19.4,139.9,19.8z M86.1,19.1c-0.4,0-0.7,0.3-0.7,0.7v20.1c0,0.4,0.3,0.7,0.7,0.7h7.2c0.4,0,0.7-0.3,0.7-0.7
			V29.1l10.3,10.8c0.1,0.2,0.5,0.7,1,0.7h8.2c0.4,0,0.7-0.3,0.7-0.7V19.8c0-0.4-0.3-0.7-0.7-0.7h-7.2c-0.4,0-0.7,0.3-0.7,0.7v10.8
			L95.3,19.8c-0.1-0.2-0.6-0.7-1-0.7H86.1z M265.4,19.1h-20.5c-0.4,0-0.7,0.3-0.7,0.7v20.1c0,0.4,0.3,0.7,0.7,0.7h21.2
			c0.4,0,0.7-0.3,0.7-0.7v-3.3c0-0.4-0.3-0.7-0.7-0.7h-13.4v-3.3h9.3c0.4,0,0.7-0.3,0.7-0.7v-4.1c0-0.4-0.3-0.7-0.7-0.7h-9.3v-3.3
			h12.7c0.4,0,0.7-0.3,0.7-0.7v-3.4C266.1,19.4,265.8,19.1,265.4,19.1z M212.3,19.1c-0.4,0-0.7,0.3-0.7,0.7v20.1
			c0,0.4,0.3,0.7,0.7,0.7h7.2c0.4,0,0.7-0.3,0.7-0.7V29.1l10.3,10.8c0.1,0.2,0.5,0.7,1,0.7h8.2c0.4,0,0.7-0.3,0.7-0.7V19.8
			c0-0.4-0.3-0.7-0.7-0.7h-7.2c-0.4,0-0.7,0.3-0.7,0.7v10.8l-10.3-10.8c-0.2-0.2-0.6-0.7-1-0.7H212.3z M196.4,34.6H183V19.8
			c0-0.4-0.3-0.7-0.7-0.7h-7.2c-0.4,0-0.7,0.3-0.7,0.7v20.1c0,0.4,0.3,0.7,0.7,0.7h21.2c0.4,0,0.7-0.3,0.7-0.7v-4.7
			C197,34.9,196.7,34.6,196.4,34.6z M207.5,19.8c0-0.4-0.3-0.7-0.7-0.7h-7.2c-0.4,0-0.7,0.3-0.7,0.7v20.1c0,0.4,0.3,0.7,0.7,0.7h7.2
			c0.4,0,0.7-0.3,0.7-0.7V19.8z M172.5,29.8c0,6.3-6.7,11.4-14.9,11.4c-8.2,0-14.9-5.1-14.9-11.4c0-6.3,6.7-11.4,14.9-11.4
			C165.8,18.5,172.5,23.6,172.5,29.8z M164.6,29.9c0-3.3-3.2-6-7.1-6c-3.9,0-7.1,2.7-7.1,6c0,3.3,3.2,6,7.1,6
			C161.5,35.9,164.6,33.2,164.6,29.9z"/>
	</g>
	<g style="fill:#00ACEC;">
		<polyline class="st1" points="18.1,53.4 18.1,39.9 18.1,39.9 31.5,26.4 31.5,39.9 40.2,39.9 60.8,19.3 79,19.3 69.9,28.3 
			44.9,53.4 		"/>
		<polyline class="st1" points="60.9,0 60.9,13.5 60.9,13.5 47.5,27 47.5,13.5 38.8,13.5 18.2,34.1 0,34.1 9.1,25.1 34.2,0 		"/>
	</g>
</g>
<g style="fill:#999;">
	<path class="st2" d="M90.7,49.4h-3.6l-0.8,2.2h-0.7l3-7.8h0.6l3,7.8h-0.7L90.7,49.4z M87.3,48.9h3.1l-1.6-4.3L87.3,48.9z"/>
	<path class="st2" d="M93.7,51.6v-5.8h2.1c0.7,0,1.3,0.1,1.7,0.4c0.4,0.3,0.6,0.6,0.6,1.2c0,0.3-0.1,0.5-0.3,0.8s-0.4,0.4-0.8,0.5
		c0.4,0.1,0.7,0.2,0.9,0.5c0.2,0.3,0.3,0.5,0.3,0.9c0,0.5-0.2,0.9-0.6,1.2c-0.4,0.3-0.9,0.4-1.6,0.4H93.7z M94.3,48.4h1.6
		c1,0,1.5-0.4,1.5-1c0-0.4-0.1-0.6-0.4-0.8c-0.3-0.2-0.7-0.2-1.2-0.2h-1.5V48.4z M94.3,49v2.1h1.9c0.5,0,0.9-0.1,1.1-0.3
		s0.4-0.5,0.4-0.8c0-0.3-0.1-0.6-0.4-0.8C97,49.1,96.6,49,96.2,49H94.3z"/>
	<path class="st2" d="M104.3,46.4h-2.1v5.3h-0.6v-5.3h-2v-0.5h4.8V46.4z"/>
	<path class="st2" d="M105.2,48.7c0-0.6,0.1-1.1,0.3-1.5c0.2-0.4,0.5-0.8,0.9-1c0.4-0.2,0.8-0.4,1.3-0.4c0.8,0,1.4,0.3,1.9,0.8
		c0.5,0.5,0.7,1.3,0.7,2.2v0.1c0,0.6-0.1,1.1-0.3,1.5c-0.2,0.4-0.5,0.8-0.9,1s-0.8,0.4-1.3,0.4c-0.8,0-1.4-0.3-1.9-0.8
		c-0.5-0.5-0.7-1.3-0.7-2.2V48.7z M105.8,48.8c0,0.7,0.2,1.3,0.5,1.7c0.4,0.4,0.8,0.7,1.4,0.7c0.6,0,1-0.2,1.4-0.7
		c0.4-0.4,0.5-1,0.5-1.8v-0.1c0-0.4-0.1-0.8-0.2-1.2s-0.4-0.7-0.7-0.9s-0.6-0.3-1-0.3c-0.6,0-1,0.2-1.4,0.7s-0.5,1-0.5,1.8V48.8z"/>
	<path class="st2" d="M114.1,46.3c-0.4,0-0.8,0.1-1.1,0.4s-0.4,0.6-0.4,1h-0.6c0-0.4,0.1-0.7,0.3-1c0.2-0.3,0.5-0.5,0.8-0.7
		s0.7-0.3,1.1-0.3c0.7,0,1.3,0.3,1.7,0.7c0.5,0.5,0.7,1.2,0.7,2l0,0.4c0,0.6-0.1,1.1-0.3,1.5c-0.2,0.4-0.5,0.8-0.9,1
		c-0.4,0.2-0.8,0.4-1.3,0.4c-0.6,0-1.2-0.2-1.6-0.6c-0.4-0.4-0.6-0.9-0.6-1.5h0.6c0,0.5,0.1,0.8,0.4,1.1c0.3,0.3,0.7,0.4,1.1,0.4
		c0.5,0,1-0.2,1.3-0.6c0.3-0.4,0.5-0.9,0.5-1.6h-2.6v-0.5h2.6c0-0.7-0.2-1.2-0.5-1.6C115.1,46.5,114.6,46.3,114.1,46.3z"/>
	<path class="st2" d="M122.9,45.8v5.8h-0.6v-5.3h-2.4l-0.1,2.2c0,0.8-0.1,1.4-0.2,1.8s-0.3,0.7-0.5,0.9s-0.5,0.3-0.9,0.3h-0.2v-0.6
		l0.2,0c0.4,0,0.6-0.2,0.8-0.5s0.3-1,0.3-1.9l0.1-2.8H122.9z"/>
	<path class="st2" d="M127.3,51.8c-0.5,0-0.9-0.1-1.3-0.4c-0.4-0.2-0.7-0.6-0.9-1c-0.2-0.4-0.3-0.9-0.3-1.5v-0.2
		c0-0.6,0.1-1.1,0.3-1.5c0.2-0.4,0.5-0.8,0.9-1.1s0.8-0.4,1.3-0.4c0.7,0,1.3,0.2,1.7,0.7c0.4,0.5,0.6,1.1,0.6,2v0.4h-4.1v0.1
		c0,0.7,0.2,1.2,0.6,1.6c0.4,0.4,0.9,0.7,1.4,0.7c0.3,0,0.6-0.1,0.9-0.2c0.3-0.1,0.5-0.3,0.7-0.6l0.4,0.3
		C128.9,51.4,128.2,51.8,127.3,51.8z M127.2,46.3c-0.5,0-0.9,0.2-1.2,0.5c-0.3,0.4-0.5,0.8-0.6,1.4h3.5v-0.1c0-0.6-0.2-1-0.5-1.4
		S127.7,46.3,127.2,46.3z"/>
	<path class="st2" d="M132.7,49h-0.9v2.7h-0.6v-5.8h0.6v2.6h0.9l2.1-2.6h0.8l-2.4,2.8l2.6,3h-0.8L132.7,49z"/>
	<path class="st2" d="M141.5,46.4h-2.1v5.3h-0.6v-5.3h-2v-0.5h4.8V46.4z"/>
	<path class="st2" d="M147.6,48.8c0,0.9-0.2,1.6-0.6,2.2c-0.4,0.5-0.9,0.8-1.6,0.8c-0.8,0-1.4-0.3-1.8-0.8v3H143v-8h0.6l0,0.8
		c0.4-0.6,1-0.9,1.8-0.9c0.7,0,1.2,0.3,1.6,0.8C147.4,47,147.6,47.8,147.6,48.8L147.6,48.8z M147,48.7c0-0.7-0.2-1.3-0.5-1.8
		c-0.3-0.4-0.7-0.6-1.3-0.6c-0.4,0-0.7,0.1-1,0.3c-0.3,0.2-0.5,0.5-0.6,0.8v2.8c0.2,0.3,0.4,0.6,0.7,0.8c0.3,0.2,0.6,0.3,1,0.3
		c0.5,0,1-0.2,1.3-0.6S147,49.5,147,48.7z"/>
	<path class="st2" d="M149.1,48.7c0-0.6,0.1-1.1,0.3-1.5s0.5-0.8,0.9-1s0.8-0.4,1.3-0.4c0.8,0,1.4,0.3,1.9,0.8
		c0.5,0.5,0.7,1.3,0.7,2.2v0.1c0,0.6-0.1,1.1-0.3,1.5s-0.5,0.8-0.9,1c-0.4,0.2-0.8,0.4-1.3,0.4c-0.8,0-1.4-0.3-1.9-0.8
		c-0.5-0.5-0.7-1.3-0.7-2.2V48.7z M149.8,48.8c0,0.7,0.2,1.3,0.5,1.7c0.4,0.4,0.8,0.7,1.4,0.7c0.6,0,1-0.2,1.4-0.7
		c0.4-0.4,0.5-1,0.5-1.8v-0.1c0-0.4-0.1-0.8-0.2-1.2c-0.2-0.4-0.4-0.7-0.7-0.9s-0.6-0.3-1-0.3c-0.6,0-1,0.2-1.4,0.7
		c-0.4,0.4-0.5,1-0.5,1.8V48.8z"/>
	<path class="st2" d="M160.6,51.6h-0.6V49h-3.1v2.7h-0.6v-5.8h0.6v2.6h3.1v-2.6h0.6V51.6z"/>
	<path class="st2" d="M166.5,45.8h0.6v5.8h-0.6v-4.8l-3.1,4.8h-0.6v-5.8h0.6v4.8L166.5,45.8z"/>
	<path class="st2" d="M170.9,49H170v2.7h-0.7v-5.8h0.7v2.6h0.9l2.1-2.6h0.8l-2.4,2.8l2.6,3h-0.8L170.9,49z"/>
	<path class="st2" d="M179.2,51.6c-0.1-0.2-0.1-0.5-0.1-0.8c-0.2,0.3-0.5,0.5-0.9,0.7c-0.3,0.2-0.7,0.2-1.1,0.2
		c-0.6,0-1-0.2-1.4-0.5c-0.3-0.3-0.5-0.7-0.5-1.2c0-0.6,0.2-1,0.7-1.3c0.5-0.3,1.1-0.5,2-0.5h1.2v-0.7c0-0.4-0.1-0.7-0.4-1
		s-0.6-0.4-1.1-0.4c-0.4,0-0.8,0.1-1.1,0.3c-0.3,0.2-0.4,0.5-0.4,0.8l-0.6,0c0-0.5,0.2-0.9,0.6-1.2c0.4-0.3,1-0.5,1.6-0.5
		c0.6,0,1.2,0.2,1.5,0.5s0.6,0.8,0.6,1.4v2.8c0,0.6,0.1,1,0.2,1.3v0.1H179.2z M177.1,51.2c0.4,0,0.8-0.1,1.2-0.3
		c0.3-0.2,0.6-0.5,0.7-0.8v-1.3h-1.1c-0.6,0-1.1,0.1-1.5,0.4c-0.4,0.2-0.5,0.5-0.5,0.9c0,0.3,0.1,0.6,0.4,0.8
		C176.4,51.1,176.7,51.2,177.1,51.2z"/>
	<path class="st2" d="M188.7,45.8h0.6v5.8h-0.6v-4.8l-3.1,4.8H185v-5.8h0.6v4.8L188.7,45.8z"/>
	<path class="st2" d="M198.3,51.6c-0.1-0.2-0.1-0.5-0.1-0.8c-0.2,0.3-0.5,0.5-0.9,0.7c-0.3,0.2-0.7,0.2-1.1,0.2
		c-0.6,0-1-0.2-1.4-0.5c-0.3-0.3-0.5-0.7-0.5-1.2c0-0.6,0.2-1,0.7-1.3c0.5-0.3,1.1-0.5,2-0.5h1.2v-0.7c0-0.4-0.1-0.7-0.4-1
		s-0.6-0.4-1.1-0.4c-0.4,0-0.8,0.1-1.1,0.3c-0.3,0.2-0.4,0.5-0.4,0.8l-0.6,0c0-0.5,0.2-0.9,0.6-1.2c0.4-0.3,1-0.5,1.6-0.5
		c0.6,0,1.2,0.2,1.5,0.5s0.6,0.8,0.6,1.4v2.8c0,0.6,0.1,1,0.2,1.3v0.1H198.3z M196.3,51.2c0.4,0,0.8-0.1,1.2-0.3
		c0.3-0.2,0.6-0.5,0.7-0.8v-1.3h-1.1c-0.6,0-1.1,0.1-1.5,0.4c-0.4,0.2-0.5,0.5-0.5,0.9c0,0.3,0.1,0.6,0.4,0.8
		C195.6,51.1,195.9,51.2,196.3,51.2z"/>
	<path class="st2" d="M202.6,49h-0.9v2.7H201v-5.8h0.7v2.6h0.9l2.1-2.6h0.8l-2.4,2.8l2.6,3h-0.8L202.6,49z"/>
	<path class="st2" d="M209.2,51.2c0.4,0,0.8-0.1,1.1-0.4c0.3-0.3,0.5-0.6,0.5-1h0.6c0,0.4-0.1,0.7-0.3,1s-0.5,0.5-0.8,0.7
		c-0.3,0.2-0.7,0.2-1.1,0.2c-0.8,0-1.4-0.3-1.8-0.8c-0.4-0.5-0.7-1.2-0.7-2.1v-0.2c0-0.6,0.1-1.1,0.3-1.5c0.2-0.4,0.5-0.8,0.9-1
		c0.4-0.2,0.8-0.4,1.3-0.4c0.6,0,1.2,0.2,1.6,0.6c0.4,0.4,0.6,0.9,0.7,1.5h-0.6c0-0.5-0.2-0.8-0.5-1.1s-0.7-0.4-1.1-0.4
		c-0.6,0-1,0.2-1.4,0.6c-0.3,0.4-0.5,1-0.5,1.8v0.2c0,0.7,0.2,1.3,0.5,1.7C208.2,51,208.6,51.2,209.2,51.2z"/>
	<path class="st2" d="M215.4,51.8c-0.5,0-0.9-0.1-1.3-0.4s-0.7-0.6-0.9-1c-0.2-0.4-0.3-0.9-0.3-1.5v-0.2c0-0.6,0.1-1.1,0.3-1.5
		s0.5-0.8,0.9-1.1s0.8-0.4,1.3-0.4c0.7,0,1.3,0.2,1.7,0.7c0.4,0.5,0.6,1.1,0.6,2v0.4h-4.1v0.1c0,0.7,0.2,1.2,0.6,1.6
		s0.9,0.7,1.4,0.7c0.3,0,0.6-0.1,0.9-0.2c0.3-0.1,0.5-0.3,0.7-0.6l0.4,0.3C217,51.4,216.3,51.8,215.4,51.8z M215.3,46.3
		c-0.5,0-0.9,0.2-1.2,0.5c-0.3,0.4-0.5,0.8-0.6,1.4h3.5v-0.1c0-0.6-0.2-1-0.5-1.4S215.8,46.3,215.3,46.3z"/>
	<path class="st2" d="M221.4,51.2c0.4,0,0.8-0.1,1.1-0.4c0.3-0.3,0.5-0.6,0.5-1h0.6c0,0.4-0.1,0.7-0.3,1s-0.5,0.5-0.8,0.7
		c-0.3,0.2-0.7,0.2-1.1,0.2c-0.8,0-1.4-0.3-1.8-0.8c-0.4-0.5-0.7-1.2-0.7-2.1v-0.2c0-0.6,0.1-1.1,0.3-1.5c0.2-0.4,0.5-0.8,0.9-1
		c0.4-0.2,0.8-0.4,1.3-0.4c0.6,0,1.2,0.2,1.6,0.6c0.4,0.4,0.6,0.9,0.7,1.5H223c0-0.5-0.2-0.8-0.5-1.1s-0.7-0.4-1.1-0.4
		c-0.6,0-1,0.2-1.4,0.6c-0.3,0.4-0.5,1-0.5,1.8v0.2c0,0.7,0.2,1.3,0.5,1.7C220.4,51,220.8,51.2,221.4,51.2z"/>
	<path class="st2" d="M227.5,51.2c0.4,0,0.8-0.1,1.1-0.4c0.3-0.3,0.5-0.6,0.5-1h0.6c0,0.4-0.1,0.7-0.3,1s-0.5,0.5-0.8,0.7
		c-0.3,0.2-0.7,0.2-1.1,0.2c-0.8,0-1.4-0.3-1.8-0.8c-0.4-0.5-0.7-1.2-0.7-2.1v-0.2c0-0.6,0.1-1.1,0.3-1.5c0.2-0.4,0.5-0.8,0.9-1
		c0.4-0.2,0.8-0.4,1.3-0.4c0.6,0,1.2,0.2,1.6,0.6c0.4,0.4,0.6,0.9,0.7,1.5h-0.6c0-0.5-0.2-0.8-0.5-1.1s-0.7-0.4-1.1-0.4
		c-0.6,0-1,0.2-1.4,0.6c-0.3,0.4-0.5,1-0.5,1.8v0.2c0,0.7,0.2,1.3,0.5,1.7C226.5,51,227,51.2,227.5,51.2z"/>
	<path class="st2" d="M233.3,50.7l1.7-4.9h0.7l-2.5,6.8l-0.1,0.3c-0.3,0.7-0.8,1.1-1.5,1.1c-0.2,0-0.3,0-0.5-0.1l0-0.5l0.3,0
		c0.3,0,0.6-0.1,0.8-0.2c0.2-0.2,0.4-0.4,0.5-0.8l0.3-0.8l-2.2-5.8h0.7L233.3,50.7z"/>
	<path class="st2" d="M240.7,51.6c-0.1-0.2-0.1-0.5-0.1-0.8c-0.2,0.3-0.5,0.5-0.9,0.7c-0.3,0.2-0.7,0.2-1.1,0.2
		c-0.6,0-1-0.2-1.4-0.5c-0.3-0.3-0.5-0.7-0.5-1.2c0-0.6,0.2-1,0.7-1.3c0.5-0.3,1.1-0.5,2-0.5h1.2v-0.7c0-0.4-0.1-0.7-0.4-1
		s-0.6-0.4-1.1-0.4c-0.4,0-0.8,0.1-1.1,0.3c-0.3,0.2-0.4,0.5-0.4,0.8l-0.6,0c0-0.5,0.2-0.9,0.6-1.2c0.4-0.3,1-0.5,1.6-0.5
		c0.6,0,1.2,0.2,1.5,0.5s0.6,0.8,0.6,1.4v2.8c0,0.6,0.1,1,0.2,1.3v0.1H240.7z M238.7,51.2c0.4,0,0.8-0.1,1.2-0.3
		c0.3-0.2,0.6-0.5,0.7-0.8v-1.3h-1.1c-0.6,0-1.1,0.1-1.5,0.4c-0.4,0.2-0.5,0.5-0.5,0.9c0,0.3,0.1,0.6,0.4,0.8
		C238,51.1,238.3,51.2,238.7,51.2z"/>
	<path class="st2" d="M248.1,48.8c0,0.9-0.2,1.6-0.6,2.2c-0.4,0.5-0.9,0.8-1.6,0.8c-0.8,0-1.4-0.3-1.8-0.8v3h-0.6v-8h0.6l0,0.8
		c0.4-0.6,1-0.9,1.8-0.9c0.7,0,1.2,0.3,1.6,0.8C247.9,47,248.1,47.8,248.1,48.8L248.1,48.8z M247.4,48.7c0-0.7-0.2-1.3-0.5-1.8
		c-0.3-0.4-0.7-0.6-1.3-0.6c-0.4,0-0.7,0.1-1,0.3c-0.3,0.2-0.5,0.5-0.6,0.8v2.8c0.2,0.3,0.4,0.6,0.7,0.8c0.3,0.2,0.6,0.3,1,0.3
		c0.5,0,1-0.2,1.3-0.6S247.4,49.5,247.4,48.7z"/>
	<path class="st2" d="M250.7,47.9h1.7c0.4,0,0.8,0.1,1.1,0.2c0.3,0.2,0.6,0.4,0.7,0.6c0.2,0.3,0.3,0.6,0.3,1c0,0.6-0.2,1-0.6,1.4
		c-0.4,0.3-0.9,0.5-1.6,0.5H250v-5.8h0.6V47.9z M250.7,48.5v2.6h1.7c0.5,0,0.8-0.1,1.1-0.3c0.3-0.2,0.4-0.6,0.4-1
		c0-0.4-0.1-0.7-0.4-0.9s-0.6-0.4-1.1-0.4H250.7z M256.4,51.6h-0.6v-5.8h0.6V51.6z"/>
</g>
</svg>
