<?xml version="1.0" encoding="utf-8"?>
<!-- Generator: Adobe Illustrator 21.0.0, SVG Export Plug-In . SVG Version: 6.00 Build 0)  -->
<svg version="1.1" id="icon_master" xmlns="http://www.w3.org/2000/svg" xmlns:xlink="http://www.w3.org/1999/xlink" x="0px"
	 y="0px" viewBox="0 0 504 302.4"  xml:space="preserve" style="enable-background:new 0 0 504 302.4;" >
<style type="text/css">
	.st0{fill:#FFB600;}
	.st1{fill:#F7981D;}
	.st2{fill:#FF8500;}
	.st3{fill:#FF5050;}
	.st4{fill:#E52836;}
	.st5{fill:#CB2026;}
	.st6{fill:#FFFFFF;}
	.st7{fill:#DCE5E5;}
</style>
<path class="st0"  d="M504,151.2c0,83.2-67.2,151.2-151.2,151.2c-83.2,0-151.2-68-151.2-151.2l0,0C201.6,68,268.8,0,352,0
	C436.8,0,504,68,504,151.2L504,151.2z" style="fill:#FFB600;" />
<path class="st1" d="M352.8,0C436,0,504,68,504,151.2l0,0c0,83.2-67.2,151.2-151.2,151.2c-83.2,0-151.2-68-151.2-151.2" style="fill:#F7981D;" />
<path class="st2" d="M352.8,0C436,0,504,68,504,151.2l0,0c0,83.2-67.2,151.2-151.2,151.2" style="fill:#FF8500;" />
<path class="st3" d="M149.6,0C67.2,0.8,0,68,0,151.2s67.2,151.2,151.2,151.2c39.2,0,74.4-15.2,101.6-39.2l0,0l0,0
	c5.6-4.8,10.4-10.4,15.2-16h-31.2c-4-4.8-8-10.4-11.2-15.2h53.6c3.2-4.8,6.4-10.4,8.8-16h-71.2c-2.4-4.8-4.8-10.4-6.4-16h83.2
	c4.8-15.2,8-31.2,8-48c0-11.2-1.6-21.6-3.2-32h-92.8c0.8-5.6,2.4-10.4,4-16h83.2c-1.6-5.6-4-11.2-6.4-16H216
	c2.4-5.6,5.6-10.4,8.8-16h53.6c-3.2-5.6-7.2-11.2-12-16h-29.6c4.8-5.6,9.6-10.4,15.2-15.2C225.6,16,189.6,1.6,150.4,1.6
	C150.4,0,150.4,0,149.6,0z" style="fill:#FF5050;" />
<path class="st4" d="M0,151.2c0,83.2,67.2,151.2,151.2,151.2c39.2,0,74.4-15.2,101.6-39.2l0,0l0,0c5.6-4.8,10.4-10.4,15.2-16h-31.2
	c-4-4.8-8-10.4-11.2-15.2h53.6c3.2-4.8,6.4-10.4,8.8-16h-71.2c-2.4-4.8-4.8-10.4-6.4-16h83.2c4.8-15.2,8-31.2,8-48
	c0-11.2-1.6-21.6-3.2-32h-92.8c0.8-5.6,2.4-10.4,4-16h83.2c-1.6-5.6-4-11.2-6.4-16H216c2.4-5.6,5.6-10.4,8.8-16h53.6
	c-3.2-5.6-7.2-11.2-12-16h-29.6c4.8-5.6,9.6-10.4,15.2-15.2C225.6,16,189.6,1.6,150.4,1.6h-0.8" style="fill:#E52836;" />
<path class="st5" d="M151.2,302.4c39.2,0,74.4-15.2,101.6-39.2l0,0l0,0c5.6-4.8,10.4-10.4,15.2-16h-31.2c-4-4.8-8-10.4-11.2-15.2
	h53.6c3.2-4.8,6.4-10.4,8.8-16h-71.2c-2.4-4.8-4.8-10.4-6.4-16h83.2c4.8-15.2,8-31.2,8-48c0-11.2-1.6-21.6-3.2-32h-92.8
	c0.8-5.6,2.4-10.4,4-16h83.2c-1.6-5.6-4-11.2-6.4-16H216c2.4-5.6,5.6-10.4,8.8-16h53.6c-3.2-5.6-7.2-11.2-12-16h-29.6
	c4.8-5.6,9.6-10.4,15.2-15.2C225.6,16,189.6,1.6,150.4,1.6h-0.8" style="fill:#CB2026;" />
<g>
	<path class="st6" d="M204.8,189.6l2.4-13.6c-0.8,0-2.4,0.8-4,0.8c-5.6,0-6.4-3.2-5.6-4.8l4.8-28h8.8l2.4-15.2h-8l1.6-9.6h-16
		c0,0-9.6,52.8-9.6,59.2c0,9.6,5.6,13.6,12.8,13.6C199.2,192,203.2,190.4,204.8,189.6z" style="fill:#FFFFFF;" />
	<path class="st6" d="M210.4,164c0,22.4,15.2,28,28,28c12,0,16.8-2.4,16.8-2.4l3.2-15.2c0,0-8.8,4-16.8,4
		c-17.6,0-14.4-12.8-14.4-12.8H260c0,0,2.4-10.4,2.4-14.4c0-10.4-5.6-23.2-23.2-23.2C222.4,126.4,210.4,144,210.4,164z M238.4,140.8
		c8.8,0,7.2,10.4,7.2,11.2H228C228,151.2,229.6,140.8,238.4,140.8z" style="fill:#FFFFFF;" />
	<path class="st6" d="M340,189.6l3.2-17.6c0,0-8,4-13.6,4c-11.2,0-16-8.8-16-18.4c0-19.2,9.6-29.6,20.8-29.6c8,0,14.4,4.8,14.4,4.8
		l2.4-16.8c0,0-9.6-4-18.4-4c-18.4,0-36.8,16-36.8,46.4c0,20,9.6,33.6,28.8,33.6C331.2,192,340,189.6,340,189.6z" style="fill:#FFFFFF;" />
	<path class="st6" d="M116.8,126.4c-11.2,0-19.2,3.2-19.2,3.2l-2.4,13.6c0,0,7.2-3.2,17.6-3.2c5.6,0,10.4,0.8,10.4,5.6
		c0,3.2-0.8,4-0.8,4s-4.8,0-7.2,0c-13.6,0-28.8,5.6-28.8,24c0,14.4,9.6,17.6,15.2,17.6c11.2,0,16-7.2,16.8-7.2l-0.8,6.4H132l6.4-44
		C138.4,127.2,122.4,126.4,116.8,126.4z M120,162.4c0,2.4-1.6,15.2-11.2,15.2c-4.8,0-6.4-4-6.4-6.4c0-4,2.4-9.6,14.4-9.6
		C119.2,162.4,120,162.4,120,162.4z" style="fill:#FFFFFF;" />
	<path class="st6" d="M153.6,191.2c4,0,24,0.8,24-20.8c0-20-19.2-16-19.2-24c0-4,3.2-5.6,8.8-5.6c2.4,0,11.2,0.8,11.2,0.8l2.4-14.4
		c0,0-5.6-1.6-15.2-1.6c-12,0-24,4.8-24,20.8c0,18.4,20,16.8,20,24c0,4.8-5.6,5.6-9.6,5.6c-7.2,0-14.4-2.4-14.4-2.4l-2.4,14.4
		C136,189.6,140,191.2,153.6,191.2z" style="fill:#FFFFFF;" />
	<path class="st6" d="M472.8,113.6l-3.2,21.6c0,0-6.4-8-15.2-8c-14.4,0-27.2,17.6-27.2,38.4c0,12.8,6.4,26.4,20,26.4
		c9.6,0,15.2-6.4,15.2-6.4l-0.8,5.6h16l12-76.8L472.8,113.6z M465.6,156c0,8.8-4,20-12.8,20c-5.6,0-8.8-4.8-8.8-12.8
		c0-12.8,5.6-20.8,12.8-20.8C462.4,142.4,465.6,146.4,465.6,156z" style="fill:#FFFFFF;" />
	<path class="st6" d="M29.6,190.4l9.6-57.6l1.6,57.6H52l20.8-57.6L64,190.4h16.8l12.8-76.8H67.2l-16,47.2l-0.8-47.2H27.2l-12.8,76.8
		H29.6z" style="fill:#FFFFFF;" />
	<path class="st6" d="M277.6,190.4c4.8-26.4,5.6-48,16.8-44c1.6-10.4,4-14.4,5.6-18.4c0,0-0.8,0-3.2,0c-7.2,0-12.8,9.6-12.8,9.6
		l1.6-8.8h-15.2L260,191.2h17.6V190.4z" style="fill:#FFFFFF;" />
	<path class="st6" d="M376.8,126.4c-11.2,0-19.2,3.2-19.2,3.2l-2.4,13.6c0,0,7.2-3.2,17.6-3.2c5.6,0,10.4,0.8,10.4,5.6
		c0,3.2-0.8,4-0.8,4s-4.8,0-7.2,0c-13.6,0-28.8,5.6-28.8,24c0,14.4,9.6,17.6,15.2,17.6c11.2,0,16-7.2,16.8-7.2l-0.8,6.4H392l6.4-44
		C399.2,127.2,382.4,126.4,376.8,126.4z M380.8,162.4c0,2.4-1.6,15.2-11.2,15.2c-4.8,0-6.4-4-6.4-6.4c0-4,2.4-9.6,14.4-9.6
		C380,162.4,380,162.4,380.8,162.4z" style="fill:#FFFFFF;" />
	<path class="st6" d="M412,190.4c4.8-26.4,5.6-48,16.8-44c1.6-10.4,4-14.4,5.6-18.4c0,0-0.8,0-3.2,0c-7.2,0-12.8,9.6-12.8,9.6
		l1.6-8.8h-15.2l-10.4,62.4H412V190.4z" style="fill:#FFFFFF;" />
</g>
<g>
	<path class="st7" d="M180,178.4c0,9.6,5.6,13.6,12.8,13.6c5.6,0,10.4-1.6,12-2.4l2.4-13.6c-0.8,0-2.4,0.8-4,0.8
		c-5.6,0-6.4-3.2-5.6-4.8l4.8-28h8.8l2.4-15.2h-8l1.6-9.6" style="fill:#DCE5E5;" />
	<path class="st7" d="M218.4,164c0,22.4,7.2,28,20,28c12,0,16.8-2.4,16.8-2.4l3.2-15.2c0,0-8.8,4-16.8,4
		c-17.6,0-14.4-12.8-14.4-12.8H260c0,0,2.4-10.4,2.4-14.4c0-10.4-5.6-23.2-23.2-23.2C222.4,126.4,218.4,144,218.4,164z M238.4,140.8
		c8.8,0,10.4,10.4,10.4,11.2H228C228,151.2,229.6,140.8,238.4,140.8z" style="fill:#DCE5E5;" />
	<path class="st7" d="M340,189.6l3.2-17.6c0,0-8,4-13.6,4c-11.2,0-16-8.8-16-18.4c0-19.2,9.6-29.6,20.8-29.6c8,0,14.4,4.8,14.4,4.8
		l2.4-16.8c0,0-9.6-4-18.4-4c-18.4,0-28.8,16-28.8,46.4c0,20,1.6,33.6,20.8,33.6C331.2,192,340,189.6,340,189.6z" style="fill:#DCE5E5;" />
	<path class="st7" d="M95.2,144c0,0,7.2-3.2,17.6-3.2c5.6,0,10.4,0.8,10.4,5.6c0,3.2-0.8,4-0.8,4s-4.8,0-7.2,0
		c-13.6,0-28.8,5.6-28.8,24c0,14.4,9.6,17.6,15.2,17.6c11.2,0,16-7.2,16.8-7.2l-0.8,6.4H132l6.4-44c0-18.4-16-19.2-22.4-19.2
		 M128,162.4c0,2.4-9.6,15.2-19.2,15.2c-4.8,0-6.4-4-6.4-6.4c0-4,2.4-9.6,14.4-9.6C119.2,162.4,128,162.4,128,162.4z" style="fill:#DCE5E5;" />
	<path class="st7" d="M136,189.6c0,0,4.8,1.6,18.4,1.6c4,0,24,0.8,24-20.8c0-20-19.2-16-19.2-24c0-4,3.2-5.6,8.8-5.6
		c2.4,0,11.2,0.8,11.2,0.8l2.4-14.4c0,0-5.6-1.6-15.2-1.6c-12,0-16,4.8-16,20.8c0,18.4,12,16.8,12,24c0,4.8-5.6,5.6-9.6,5.6" style="fill:#DCE5E5;" />
	<path class="st7" d="M469.6,135.2c0,0-6.4-8-15.2-8c-14.4,0-19.2,17.6-19.2,38.4c0,12.8-1.6,26.4,12,26.4c9.6,0,15.2-6.4,15.2-6.4
		l-0.8,5.6h16l12-76.8 M468.8,156c0,8.8-7.2,20-16,20c-5.6,0-8.8-4.8-8.8-12.8c0-12.8,5.6-20.8,12.8-20.8
		C462.4,142.4,468.8,146.4,468.8,156z" style="fill:#DCE5E5;" />
	<path class="st7" d="M29.6,190.4l9.6-57.6l1.6,57.6H52l20.8-57.6L64,190.4h16.8l12.8-76.8h-20l-22.4,47.2l-0.8-47.2h-8.8
		l-27.2,76.8H29.6z" style="fill:#DCE5E5;" />
	<path class="st7" d="M260.8,190.4h16.8c4.8-26.4,5.6-48,16.8-44c1.6-10.4,4-14.4,5.6-18.4c0,0-0.8,0-3.2,0
		c-7.2,0-12.8,9.6-12.8,9.6l1.6-8.8" style="fill:#DCE5E5;" />
	<path class="st7" d="M355.2,144c0,0,7.2-3.2,17.6-3.2c5.6,0,10.4,0.8,10.4,5.6c0,3.2-0.8,4-0.8,4s-4.8,0-7.2,0
		c-13.6,0-28.8,5.6-28.8,24c0,14.4,9.6,17.6,15.2,17.6c11.2,0,16-7.2,16.8-7.2l-0.8,6.4H392l6.4-44c0-18.4-16-19.2-22.4-19.2
		 M388,162.4c0,2.4-9.6,15.2-19.2,15.2c-4.8,0-6.4-4-6.4-6.4c0-4,2.4-9.6,14.4-9.6C380,162.4,388,162.4,388,162.4z" style="fill:#DCE5E5;" />
	<path class="st7" d="M395.2,190.4H412c4.8-26.4,5.6-48,16.8-44c1.6-10.4,4-14.4,5.6-18.4c0,0-0.8,0-3.2,0c-7.2,0-12.8,9.6-12.8,9.6
		l1.6-8.8" style="fill:#DCE5E5;" />
</g>
</svg>
