<?xml version="1.0" encoding="utf-8"?>
<!-- Generator: Adobe Illustrator 22.0.1, SVG Export Plug-In . SVG Version: 6.00 Build 0)  -->
<svg version="1.1" id="Слой_1" xmlns="http://www.w3.org/2000/svg" xmlns:xlink="http://www.w3.org/1999/xlink" x="0px" y="0px"
	 viewBox="0 0 35.9 24.9" enable-background="new 0 0 35.9 24.9" xml:space="preserve">
<path fill-rule="evenodd" clip-rule="evenodd" fill="#28ABE2" d="M27.8,0.3c0,2.1,0,4.2,0,6.3c-2.1,1.9-4.2,3.9-6.2,5.8
	c0-1.9,0-3.9,0-5.8c-1.4,0-2.9,0-4.3,0c-2.9,3.1-5.8,6.1-8.6,9.2c-2.7,0-5.4,0-8.2,0c1.3-1.3,8.5-9,14.9-15.5
	C19.5,0.3,23.7,0.3,27.8,0.3z M8.7,24.5c0-2.1,0-4.2,0-6.3c3.3-3.3,4.5-4.5,5.8-5.8c0,1.9,0,3.9,0,5.8c1.4,0,2.9,0,4.3,0
	c3-3.1,6.8-6.8,9.1-9.2c2.7,0,5,0,7.7,0c-0.6,0.6-3.1,3.1-11.5,11.6c-1.1,1.3-2.2,2.6-3.4,3.9C16.6,24.5,12.6,24.5,8.7,24.5z"/>
</svg>
