<?xml version="1.0" encoding="utf-8"?>
<!-- Generator: Adobe Illustrator 21.0.0, SVG Export Plug-In . SVG Version: 6.00 Build 0)  -->
<svg version="1.1" id="иконки" xmlns="http://www.w3.org/2000/svg" xmlns:xlink="http://www.w3.org/1999/xlink" x="0px"
	 y="0px" viewBox="0 0 100 100" style="enable-background:new 0 0 100 100;" xml:space="preserve">
<style type="text/css">
	.st0{fill:#00AFEE;}
</style>
<g>
	<g>
		<g>
			<g>
				<path class="st0" d="M57.9,54.6H10.2c-1.3,0-2.3-1-2.3-2.3V30c0-1.3,1-2.3,2.3-2.3h47.8c1.3,0,2.3,1,2.3,2.3v22.2
					C60.3,53.5,59.2,54.6,57.9,54.6z M10.2,28.4c-0.9,0-1.6,0.7-1.6,1.6v22.2c0,0.9,0.7,1.6,1.6,1.6h47.8c0.9,0,1.6-0.7,1.6-1.6V30
					c0-0.9-0.7-1.6-1.6-1.6H10.2z"/>
			</g>
			<g>
				<path class="st0" d="M90.3,65.1h-6.8l0-0.3c-0.6-3.9-4-6.8-7.9-6.8c-3.9,0-7.4,2.9-7.9,6.8l0,0.3H34l0-0.3
					c-0.6-3.9-4-6.8-7.9-6.8s-7.4,2.9-7.9,6.8l0,0.3H9.7c-1.1,0-2-0.9-2-2v-5.7c0-1.1,0.9-2,2-2h51.8V28.6c0-0.8,0.7-1.5,1.5-1.5
					h16.2c1.1,0,2,0.6,2.4,1.6L87.7,45l3.6,3.2c0.7,0.6,1,1.4,1,2.3l0,12.7c0,0.5-0.2,1-0.6,1.4C91.4,64.9,90.9,65.1,90.3,65.1z
					 M84.1,64.4h6.2c0.3,0,0.6-0.1,0.9-0.4c0.2-0.2,0.4-0.5,0.4-0.9l0-12.7c0-0.7-0.3-1.3-0.8-1.7l-3.7-3.4L80.8,29
					c-0.3-0.7-0.9-1.1-1.7-1.1H63c-0.4,0-0.7,0.3-0.7,0.7v27.6H9.7c-0.7,0-1.2,0.6-1.2,1.2v5.7c0,0.7,0.6,1.2,1.2,1.2h7.8
					c0.8-4.1,4.4-7.2,8.6-7.2s7.9,3.1,8.6,7.2h32.2c0.8-4.1,4.4-7.2,8.6-7.2S83.4,60.2,84.1,64.4z M83,45.5H66V32.2h12.5L83,45.5z
					 M66.8,44.8H82L78,32.9H66.8V44.8z"/>
			</g>
			<g>
				<path class="st0" d="M26.1,72.9c-3.8,0-6.9-3.1-6.9-6.9s3.1-6.9,6.9-6.9s6.9,3.1,6.9,6.9S29.9,72.9,26.1,72.9z M26.1,59.8
					c-3.4,0-6.2,2.8-6.2,6.2c0,3.4,2.8,6.2,6.2,6.2s6.2-2.8,6.2-6.2C32.2,62.5,29.5,59.8,26.1,59.8z"/>
			</g>
			<g>
				<path class="st0" d="M75.5,72.9c-3.8,0-6.9-3.1-6.9-6.9s3.1-6.9,6.9-6.9c3.8,0,6.9,3.1,6.9,6.9S79.3,72.9,75.5,72.9z M75.5,59.8
					c-3.4,0-6.2,2.8-6.2,6.2c0,3.4,2.8,6.2,6.2,6.2s6.2-2.8,6.2-6.2C81.7,62.5,78.9,59.8,75.5,59.8z"/>
			</g>
		</g>
		<g>
			<path class="st0" d="M19.5,43.3v1.1h-4.2c0-0.4,0.2-0.8,0.4-1.2c0.2-0.4,0.7-0.9,1.3-1.5c0.5-0.5,0.9-0.8,1-1
				c0.2-0.2,0.2-0.5,0.2-0.7c0-0.3-0.1-0.5-0.2-0.6c-0.1-0.1-0.3-0.2-0.6-0.2c-0.2,0-0.4,0.1-0.6,0.2c-0.1,0.1-0.2,0.4-0.3,0.7
				L15.5,40c0.1-0.7,0.3-1.1,0.7-1.4c0.4-0.3,0.8-0.4,1.4-0.4c0.6,0,1.1,0.2,1.4,0.5c0.3,0.3,0.5,0.7,0.5,1.2c0,0.3,0,0.5-0.2,0.8
				c-0.1,0.3-0.3,0.5-0.5,0.8c-0.1,0.2-0.4,0.4-0.8,0.8c-0.4,0.3-0.6,0.6-0.7,0.7c-0.1,0.1-0.2,0.2-0.2,0.3H19.5z"/>
			<path class="st0" d="M20.4,42.8v-1.2h2.3v1.2H20.4z"/>
			<path class="st0" d="M23.2,42.8l1.2-0.1c0,0.3,0.1,0.5,0.3,0.6s0.4,0.2,0.6,0.2c0.2,0,0.5-0.1,0.6-0.3c0.2-0.2,0.3-0.5,0.3-0.9
				c0-0.4-0.1-0.7-0.3-0.9c-0.2-0.2-0.4-0.3-0.7-0.3c-0.3,0-0.6,0.2-0.9,0.5l-1-0.1l0.6-3.2h3.1v1.1h-2.2l-0.2,1.1
				c0.3-0.1,0.5-0.2,0.8-0.2c0.5,0,1,0.2,1.3,0.6s0.5,0.9,0.5,1.5c0,0.5-0.1,1-0.4,1.4c-0.4,0.5-1,0.8-1.7,0.8c-0.6,0-1-0.2-1.4-0.5
				S23.3,43.4,23.2,42.8z"/>
			<path class="st0" d="M31.2,38.2h4.3v5.2H36v2.4h-1v-1.4h-3.9v1.4h-1v-2.4h0.5c0.3-0.5,0.4-1.1,0.5-1.8c0.1-0.7,0.1-1.6,0.1-2.7
				V38.2z M32.4,39.3c0,1.9-0.2,3.3-0.5,4.1h2.4v-4.1H32.4z"/>
			<path class="st0" d="M36.8,44.4v-6.2h1.3v2.4h2.4v-2.4h1.2v6.2h-1.2v-2.7h-2.4v2.7H36.8z"/>
			<path class="st0" d="M43.1,44.4v-6.2h4.6v1h-3.3v1.4h3.1v1h-3.1v1.7h3.5v1H43.1z"/>
			<path class="st0" d="M48.9,38.2H50v4.1l2.5-4.1h1.2v6.2h-1.2v-4l-2.5,4h-1.3V38.2z M52.1,36.7h0.6c0,0.4-0.2,0.7-0.4,0.9
				c-0.2,0.2-0.5,0.3-0.9,0.3c-0.4,0-0.7-0.1-0.9-0.3c-0.2-0.2-0.4-0.5-0.4-0.9h0.6c0,0.2,0.1,0.4,0.2,0.5c0.1,0.1,0.3,0.2,0.5,0.2
				c0.2,0,0.4-0.1,0.5-0.2C52,37.1,52,36.9,52.1,36.7z"/>
		</g>
	</g>
</g>
</svg>
