<?xml version="1.0" encoding="utf-8"?>
<!-- Generator: Adobe Illustrator 21.0.0, SVG Export Plug-In . SVG Version: 6.00 Build 0)  -->
<svg version="1.1" id="иконки" xmlns="http://www.w3.org/2000/svg" xmlns:xlink="http://www.w3.org/1999/xlink" x="0px"
	 y="0px" viewBox="0 0 100 100" style="enable-background:new 0 0 100 100;" xml:space="preserve">
<style type="text/css">
	.st0{fill:#00AFEE;}
</style>
<g>
	<g>
		<g>
			<path class="st0" d="M67.7,71.7H30.1c-0.2,0-0.4-0.2-0.4-0.4c-0.1-6.6,2.1-10.8,7.1-13.9c3.2-1.6,5.1-3.5,5.7-5.6
				c0.4-1.8-0.8-4.3-1.8-5.1c-2.4-2.3-3.8-5.5-3.8-8.8c0-6.6,5.4-12,12-12c6.6,0,12,5.4,12,12c0,3.3-1.4,6.5-3.8,8.8
				c-1,0.9-2.2,3.3-1.8,5.2c0.4,1.5,1.4,2.9,3.1,4.1c0.1,0.1,0.2,0.2,0.2,0.3v4.5c0,0.6,0.5,1.2,1.2,1.2h5.8c0.1,0,0.2,0.1,0.3,0.2
				c1.5,2.4,2.2,5.4,2.2,9.2C68.1,71.5,67.9,71.7,67.7,71.7z M30.5,70.9h36.9c0-3.4-0.6-6-1.9-8.2h-5.6c-1.1,0-1.9-0.9-1.9-1.9v-4.4
				c-1.8-1.3-2.9-2.8-3.3-4.4c-0.5-2.2,0.9-4.9,2-5.9c2.3-2.1,3.6-5.1,3.6-8.2c0-6.2-5-11.2-11.2-11.2s-11.2,5-11.2,11.2
				c0,3.1,1.3,6.1,3.6,8.2c1.1,1,2.5,3.7,2,5.9c-0.6,2.4-2.6,4.4-6.1,6.1C32.5,60.9,30.5,64.8,30.5,70.9z"/>
		</g>
		<g>
			<path class="st0" d="M76.2,61.2H60.4c-0.6,0-1.1-0.5-1.1-1.1v-9.3c0-0.6,0.5-1.1,1.1-1.1h15.8c0.6,0,1.1,0.5,1.1,1.1v9.3
				C77.3,60.7,76.8,61.2,76.2,61.2z M60.4,50.4c-0.2,0-0.4,0.2-0.4,0.4v9.3c0,0.2,0.2,0.4,0.4,0.4h15.8c0.2,0,0.4-0.2,0.4-0.4v-9.3
				c0-0.2-0.2-0.4-0.4-0.4H60.4z"/>
		</g>
		<g>
			<path class="st0" d="M74.6,50.4h-3.1V46c0-0.8-0.3-1.6-0.9-2.2c-0.6-0.6-1.4-0.9-2.2-0.9h-0.3c-0.8,0-1.6,0.3-2.2,0.9
				s-0.9,1.4-0.9,2.2v4.3H62V46c0-1.6,0.6-3.2,1.8-4.3c1.2-1.2,2.7-1.8,4.3-1.8h0.3c1.6,0,3.2,0.6,4.3,1.8c1.2,1.2,1.8,2.7,1.8,4.3
				V50.4z M72.3,49.6h1.6V46c0-1.4-0.6-2.8-1.6-3.8c-1-1-2.4-1.6-3.8-1.6h-0.3c-1.4,0-2.8,0.6-3.8,1.6c-1,1-1.6,2.4-1.6,3.8v3.6h1.6
				V46c0-1,0.4-2,1.1-2.7s1.7-1.1,2.7-1.1h0.3c1,0,2,0.4,2.7,1.1c0.7,0.7,1.1,1.7,1.1,2.7V49.6z"/>
		</g>
	</g>
</g>
</svg>
