<?xml version="1.0" encoding="utf-8"?>
<!-- Generator: Adobe Illustrator 21.0.0, SVG Export Plug-In . SVG Version: 6.00 Build 0)  -->
<svg version="1.1" id="иконки" xmlns="http://www.w3.org/2000/svg" xmlns:xlink="http://www.w3.org/1999/xlink" x="0px"
	 y="0px" viewBox="0 0 100 100"  xml:space="preserve" style="enable-background:new 0 0 100 100;" >
<style type="text/css">
	.st0{fill-rule:evenodd;clip-rule:evenodd;fill:#FFFFFF;}
	.st1{fill:#00AFEE;}
	.st2{fill-rule:evenodd;clip-rule:evenodd;fill:#00AFEE;}
</style>
<g>
	<g>
		<g>
			<path class="st0" d="M37.3,35.4H61c1.1,0,2,0.9,2,2V71c0,1.1-0.9,2-2,2H37.3c-1.1,0-2-0.9-2-2V37.4
				C35.3,36.3,36.2,35.4,37.3,35.4z" style="fill-rule:evenodd;clip-rule:evenodd;fill:#FFFFFF;" />
			<path class="st1" d="M61,73.4H37.3c-1.3,0-2.4-1.1-2.4-2.4V37.4c0-1.3,1.1-2.4,2.4-2.4H61c1.3,0,2.4,1.1,2.4,2.4V71
				C63.4,72.4,62.3,73.4,61,73.4z M37.3,35.8c-0.9,0-1.6,0.7-1.6,1.6V71c0,0.9,0.7,1.6,1.6,1.6H61c0.9,0,1.6-0.7,1.6-1.6V37.4
				c0-0.9-0.7-1.6-1.6-1.6H37.3z" style="fill:#00AFEE;" />
		</g>
		<g>
			<path class="st0" d="M38.6,27.1h21.2c1.1,0,2,0.9,2,2v51.4c0,1.1-0.9,2-2,2H38.6c-1.1,0-2-0.9-2-2V29.1
				C36.6,28,37.5,27.1,38.6,27.1z" style="fill-rule:evenodd;clip-rule:evenodd;fill:#FFFFFF;" />
			<path class="st1" d="M59.8,82.8H38.6c-1.3,0-2.4-1.1-2.4-2.4V29.1c0-1.3,1.1-2.4,2.4-2.4h21.2c1.3,0,2.4,1.1,2.4,2.4v51.4
				C62.1,81.7,61.1,82.8,59.8,82.8z M38.6,27.4c-0.9,0-1.6,0.7-1.6,1.6v51.4c0,0.9,0.7,1.6,1.6,1.6h21.2c0.9,0,1.6-0.7,1.6-1.6V29.1
				c0-0.9-0.7-1.6-1.6-1.6H38.6z" style="fill:#00AFEE;" />
		</g>
		<g>
			<path class="st0" d="M38.6,30.7h21.2c1.1,0,2,0.9,2,2v44.2c0,1.1-0.9,2-2,2H38.6c-1.1,0-2-0.9-2-2V32.7
				C36.6,31.6,37.5,30.7,38.6,30.7z" style="fill-rule:evenodd;clip-rule:evenodd;fill:#FFFFFF;" />
			<path class="st1" d="M59.8,79.3H38.6c-1.3,0-2.4-1.1-2.4-2.4V32.7c0-1.3,1.1-2.4,2.4-2.4h21.2c1.3,0,2.4,1.1,2.4,2.4v44.2
				C62.1,78.2,61.1,79.3,59.8,79.3z M38.6,31.1c-0.9,0-1.6,0.7-1.6,1.6v44.2c0,0.9,0.7,1.6,1.6,1.6h21.2c0.9,0,1.6-0.7,1.6-1.6V32.7
				c0-0.9-0.7-1.6-1.6-1.6H38.6z" style="fill:#00AFEE;" />
		</g>
		<g>
			<path class="st0" d="M38.4,35.4h21.6c1,0,1.8,0.8,1.8,1.8v34c0,1-0.8,1.8-1.8,1.8H38.4c-1,0-1.8-0.8-1.8-1.8v-34
				C36.6,36.2,37.4,35.4,38.4,35.4z" style="fill-rule:evenodd;clip-rule:evenodd;fill:#FFFFFF;" />
			<path class="st1" d="M59.9,73.4H38.4c-1.2,0-2.2-1-2.2-2.2v-34c0-1.2,1-2.2,2.2-2.2h21.6c1.2,0,2.2,1,2.2,2.2v34
				C62.1,72.4,61.1,73.4,59.9,73.4z M38.4,35.8c-0.8,0-1.4,0.6-1.4,1.4v34c0,0.8,0.6,1.4,1.4,1.4h21.6c0.8,0,1.4-0.6,1.4-1.4v-34
				c0-0.8-0.6-1.4-1.4-1.4H38.4z" style="fill:#00AFEE;" />
		</g>
		<g>
			<path class="st0" d="M46,32.2h6.3c0.5,0,0.9,0.4,0.9,0.9v0c0,0.5-0.4,0.9-0.9,0.9H46c-0.5,0-0.9-0.4-0.9-0.9v0
				C45.1,32.7,45.5,32.2,46,32.2z" style="fill-rule:evenodd;clip-rule:evenodd;fill:#FFFFFF;" />
			<path class="st1" d="M52.3,34.5H46c-0.7,0-1.3-0.6-1.3-1.3s0.6-1.3,1.3-1.3h6.3c0.7,0,1.3,0.6,1.3,1.3S53,34.5,52.3,34.5z
				 M46,32.6c-0.3,0-0.6,0.3-0.6,0.6s0.3,0.6,0.6,0.6h6.3c0.3,0,0.6-0.3,0.6-0.6s-0.3-0.6-0.6-0.6H46z" style="fill:#00AFEE;" />
		</g>
		<g>
			<path class="st0" d="M48.4,74.8h1.5c0.3,0,0.5,0.2,0.5,0.5v1.5c0,0.3-0.2,0.5-0.5,0.5h-1.5c-0.3,0-0.5-0.2-0.5-0.5v-1.5
				C47.9,75,48.1,74.8,48.4,74.8z" style="fill-rule:evenodd;clip-rule:evenodd;fill:#FFFFFF;" />
			<path class="st1" d="M49.9,77.6h-1.5c-0.5,0-0.9-0.4-0.9-0.9v-1.5c0-0.5,0.4-0.9,0.9-0.9h1.5c0.5,0,0.9,0.4,0.9,0.9v1.5
				C50.8,77.2,50.4,77.6,49.9,77.6z M48.4,75.1c-0.1,0-0.1,0.1-0.1,0.1v1.5c0,0.1,0.1,0.1,0.1,0.1h1.5c0.1,0,0.1-0.1,0.1-0.1v-1.5
				c0-0.1-0.1-0.1-0.1-0.1H48.4z" style="fill:#00AFEE;" />
		</g>
		<g>
			<polygon class="st0" points="40.2,27.1 58.2,27.1 58.2,15.8 55.8,14.8 52.5,16.5 49.2,14.5 45.8,16.5 42.6,14.8 40.2,15.8 			" style="fill-rule:evenodd;clip-rule:evenodd;fill:#FFFFFF;" />
			<path class="st1" d="M58.5,27.4H39.8V15.6l2.8-1.2l3.2,1.7l3.3-2l3.3,2l3.2-1.7l2.8,1.2V27.4z M40.5,26.7h17.3V16.1l-2-0.9
				l-3.3,1.7L49.2,15l-3.3,1.9l-3.3-1.7l-2,0.9V26.7z" style="fill:#00AFEE;" />
		</g>
		<g>
			<g>
				<path class="st2" d="M49.2,20h7.7c0.2,0,0.4,0.2,0.4,0.4l0,0c0,0.2-0.2,0.4-0.4,0.4h-7.7h-7.7c-0.2,0-0.4-0.2-0.4-0.4l0,0
					c0-0.2,0.2-0.4,0.4-0.4H49.2z" style="fill-rule:evenodd;clip-rule:evenodd;fill:#00AFEE;" />
			</g>
			<g>
				<path class="st2" d="M49.2,24.9h7.7c0.2,0,0.4,0.2,0.4,0.4l0,0c0,0.2-0.2,0.4-0.4,0.4h-7.7h-7.7c-0.2,0-0.4-0.2-0.4-0.4l0,0
					c0-0.2,0.2-0.4,0.4-0.4H49.2z" style="fill-rule:evenodd;clip-rule:evenodd;fill:#00AFEE;" />
			</g>
			<g>
				<g>
					<path class="st2" d="M48.7,22.8h0.9c0.1,0,0.2,0.1,0.2,0.2v0.4c0,0.1-0.1,0.2-0.2,0.2h-0.9c-0.1,0-0.2-0.1-0.2-0.2V23
						C48.4,22.9,48.6,22.8,48.7,22.8z" style="fill-rule:evenodd;clip-rule:evenodd;fill:#00AFEE;" />
				</g>
				<g>
					<path class="st2" d="M52,22.8h0.9c0.1,0,0.2,0.1,0.2,0.2v0.4c0,0.1-0.1,0.2-0.2,0.2H52c-0.1,0-0.2-0.1-0.2-0.2V23
						C51.8,22.9,51.9,22.8,52,22.8z" style="fill-rule:evenodd;clip-rule:evenodd;fill:#00AFEE;" />
				</g>
				<g>
					<path class="st2" d="M55.3,22.8h0.9c0.1,0,0.2,0.1,0.2,0.2v0.4c0,0.1-0.1,0.2-0.2,0.2h-0.9c-0.1,0-0.2-0.1-0.2-0.2V23
						C55.1,22.9,55.2,22.8,55.3,22.8z" style="fill-rule:evenodd;clip-rule:evenodd;fill:#00AFEE;" />
				</g>
				<g>
					<path class="st2" d="M45.4,22.8h0.9c0.1,0,0.2,0.1,0.2,0.2v0.4c0,0.1-0.1,0.2-0.2,0.2h-0.9c-0.1,0-0.2-0.1-0.2-0.2V23
						C45.1,22.9,45.2,22.8,45.4,22.8z" style="fill-rule:evenodd;clip-rule:evenodd;fill:#00AFEE;" />
				</g>
				<g>
					<path class="st2" d="M42.1,22.8H43c0.1,0,0.2,0.1,0.2,0.2v0.4c0,0.1-0.1,0.2-0.2,0.2h-0.9c-0.1,0-0.2-0.1-0.2-0.2V23
						C41.8,22.9,41.9,22.8,42.1,22.8z" style="fill-rule:evenodd;clip-rule:evenodd;fill:#00AFEE;" />
				</g>
			</g>
			<g>
				<path class="st2" d="M49.2,55.2h9.1c0.3,0,0.5,0.2,0.5,0.4l0,0c0,0.2-0.2,0.4-0.5,0.4h-9.1H40c-0.3,0-0.5-0.2-0.5-0.4l0,0
					c0-0.2,0.2-0.4,0.5-0.4H49.2z" style="fill-rule:evenodd;clip-rule:evenodd;fill:#00AFEE;" />
			</g>
			<g>
				<path class="st2" d="M49.2,60.9h9.1c0.3,0,0.5,0.2,0.5,0.4l0,0c0,0.2-0.2,0.4-0.5,0.4h-9.1H40c-0.3,0-0.5-0.2-0.5-0.4l0,0
					c0-0.2,0.2-0.4,0.5-0.4H49.2z" style="fill-rule:evenodd;clip-rule:evenodd;fill:#00AFEE;" />
			</g>
			<g>
				<path class="st2" d="M49.2,69.5h9.1c0.3,0,0.5,0.2,0.5,0.4l0,0c0,0.2-0.2,0.4-0.5,0.4h-9.1H40c-0.3,0-0.5-0.2-0.5-0.4l0,0
					c0-0.2,0.2-0.4,0.5-0.4H49.2z" style="fill-rule:evenodd;clip-rule:evenodd;fill:#00AFEE;" />
			</g>
			<g>
				<g>
					<path class="st2" d="M46.9,57.9H48c0.1,0,0.2,0.1,0.2,0.2v0.4c0,0.1-0.1,0.2-0.2,0.2h-1.1c-0.1,0-0.2-0.1-0.2-0.2v-0.4
						C46.7,58.1,46.8,57.9,46.9,57.9z" style="fill-rule:evenodd;clip-rule:evenodd;fill:#00AFEE;" />
				</g>
				<g>
					<path class="st2" d="M50.3,57.9h1.1c0.1,0,0.3,0.1,0.3,0.2v0.4c0,0.1-0.1,0.2-0.3,0.2h-1.1c-0.1,0-0.2-0.1-0.2-0.2v-0.4
						C50,58.1,50.1,57.9,50.3,57.9z" style="fill-rule:evenodd;clip-rule:evenodd;fill:#00AFEE;" />
				</g>
				<g>
					<path class="st2" d="M53.6,57.9h1.1c0.1,0,0.3,0.1,0.3,0.2v0.4c0,0.1-0.1,0.2-0.3,0.2h-1.1c-0.1,0-0.2-0.1-0.2-0.2v-0.4
						C53.3,58.1,53.5,57.9,53.6,57.9z" style="fill-rule:evenodd;clip-rule:evenodd;fill:#00AFEE;" />
				</g>
				<g>
					<path class="st2" d="M43.6,57.9h1.1c0.1,0,0.2,0.1,0.2,0.2v0.4c0,0.1-0.1,0.2-0.2,0.2h-1.1c-0.1,0-0.2-0.1-0.2-0.2v-0.4
						C43.4,58.1,43.5,57.9,43.6,57.9z" style="fill-rule:evenodd;clip-rule:evenodd;fill:#00AFEE;" />
				</g>
				<g>
					<path class="st2" d="M40.3,57.9h1.1c0.1,0,0.2,0.1,0.2,0.2v0.4c0,0.1-0.1,0.2-0.2,0.2h-1.1c-0.1,0-0.2-0.1-0.2-0.2v-0.4
						C40,58.1,40.1,57.9,40.3,57.9z" style="fill-rule:evenodd;clip-rule:evenodd;fill:#00AFEE;" />
				</g>
				<g>
					<path class="st2" d="M56.9,57.9H58c0.1,0,0.3,0.1,0.3,0.2v0.4c0,0.1-0.1,0.2-0.3,0.2h-1.1c-0.1,0-0.2-0.1-0.2-0.2v-0.4
						C56.7,58.1,56.8,57.9,56.9,57.9z" style="fill-rule:evenodd;clip-rule:evenodd;fill:#00AFEE;" />
				</g>
			</g>
			<g>
				<g>
					<path class="st2" d="M46.9,63.8H48c0.1,0,0.2,0.1,0.2,0.2v0.4c0,0.1-0.1,0.2-0.2,0.2h-1.1c-0.1,0-0.2-0.1-0.2-0.2V64
						C46.7,63.9,46.8,63.8,46.9,63.8z" style="fill-rule:evenodd;clip-rule:evenodd;fill:#00AFEE;" />
				</g>
				<g>
					<path class="st2" d="M50.3,63.8h1.1c0.1,0,0.3,0.1,0.3,0.2v0.4c0,0.1-0.1,0.2-0.3,0.2h-1.1c-0.1,0-0.2-0.1-0.2-0.2V64
						C50,63.9,50.1,63.8,50.3,63.8z" style="fill-rule:evenodd;clip-rule:evenodd;fill:#00AFEE;" />
				</g>
				<g>
					<path class="st2" d="M53.6,63.8h1.1c0.1,0,0.3,0.1,0.3,0.2v0.4c0,0.1-0.1,0.2-0.3,0.2h-1.1c-0.1,0-0.2-0.1-0.2-0.2V64
						C53.3,63.9,53.5,63.8,53.6,63.8z" style="fill-rule:evenodd;clip-rule:evenodd;fill:#00AFEE;" />
				</g>
				<g>
					<path class="st2" d="M43.6,63.8h1.1c0.1,0,0.2,0.1,0.2,0.2v0.4c0,0.1-0.1,0.2-0.2,0.2h-1.1c-0.1,0-0.2-0.1-0.2-0.2V64
						C43.4,63.9,43.5,63.8,43.6,63.8z" style="fill-rule:evenodd;clip-rule:evenodd;fill:#00AFEE;" />
				</g>
				<g>
					<path class="st2" d="M40.3,63.8h1.1c0.1,0,0.2,0.1,0.2,0.2v0.4c0,0.1-0.1,0.2-0.2,0.2h-1.1c-0.1,0-0.2-0.1-0.2-0.2V64
						C40,63.9,40.1,63.8,40.3,63.8z" style="fill-rule:evenodd;clip-rule:evenodd;fill:#00AFEE;" />
				</g>
				<g>
					<path class="st2" d="M56.9,63.8H58c0.1,0,0.3,0.1,0.3,0.2v0.4c0,0.1-0.1,0.2-0.3,0.2h-1.1c-0.1,0-0.2-0.1-0.2-0.2V64
						C56.7,63.9,56.8,63.8,56.9,63.8z" style="fill-rule:evenodd;clip-rule:evenodd;fill:#00AFEE;" />
				</g>
			</g>
			<g>
				<g>
					<path class="st2" d="M46.9,66.6H48c0.1,0,0.2,0.1,0.2,0.2v0.4c0,0.1-0.1,0.2-0.2,0.2h-1.1c-0.1,0-0.2-0.1-0.2-0.2v-0.4
						C46.7,66.8,46.8,66.6,46.9,66.6z" style="fill-rule:evenodd;clip-rule:evenodd;fill:#00AFEE;" />
				</g>
				<g>
					<path class="st2" d="M50.3,66.6h1.1c0.1,0,0.3,0.1,0.3,0.2v0.4c0,0.1-0.1,0.2-0.3,0.2h-1.1c-0.1,0-0.2-0.1-0.2-0.2v-0.4
						C50,66.8,50.1,66.6,50.3,66.6z" style="fill-rule:evenodd;clip-rule:evenodd;fill:#00AFEE;" />
				</g>
				<g>
					<path class="st2" d="M53.6,66.6h1.1c0.1,0,0.3,0.1,0.3,0.2v0.4c0,0.1-0.1,0.2-0.3,0.2h-1.1c-0.1,0-0.2-0.1-0.2-0.2v-0.4
						C53.3,66.8,53.5,66.6,53.6,66.6z" style="fill-rule:evenodd;clip-rule:evenodd;fill:#00AFEE;" />
				</g>
				<g>
					<path class="st2" d="M43.6,66.6h1.1c0.1,0,0.2,0.1,0.2,0.2v0.4c0,0.1-0.1,0.2-0.2,0.2h-1.1c-0.1,0-0.2-0.1-0.2-0.2v-0.4
						C43.4,66.8,43.5,66.6,43.6,66.6z" style="fill-rule:evenodd;clip-rule:evenodd;fill:#00AFEE;" />
				</g>
				<g>
					<path class="st2" d="M40.3,66.6h1.1c0.1,0,0.2,0.1,0.2,0.2v0.4c0,0.1-0.1,0.2-0.2,0.2h-1.1c-0.1,0-0.2-0.1-0.2-0.2v-0.4
						C40,66.8,40.1,66.6,40.3,66.6z" style="fill-rule:evenodd;clip-rule:evenodd;fill:#00AFEE;" />
				</g>
				<g>
					<path class="st2" d="M56.9,66.6H58c0.1,0,0.3,0.1,0.3,0.2v0.4c0,0.1-0.1,0.2-0.3,0.2h-1.1c-0.1,0-0.2-0.1-0.2-0.2v-0.4
						C56.7,66.8,56.8,66.6,56.9,66.6z" style="fill-rule:evenodd;clip-rule:evenodd;fill:#00AFEE;" />
				</g>
			</g>
		</g>
		<g>
			<path class="st1" d="M49.2,53.3c-4.2,0-7.5-3.4-7.5-7.5s3.4-7.5,7.5-7.5c4.2,0,7.5,3.4,7.5,7.5S53.3,53.3,49.2,53.3z M49.2,38.9
				c-3.7,0-6.8,3-6.8,6.8c0,3.7,3,6.8,6.8,6.8s6.8-3,6.8-6.8C55.9,42,52.9,38.9,49.2,38.9z" style="fill:#00AFEE;" />
		</g>
		<g>
			<path class="st2" d="M49.9,46.8h-1.2v0.8h2.1c0.2,0,0.4,0.2,0.4,0.4c0,0.2-0.2,0.4-0.4,0.4h-2.1v1c0,0.3-0.1,0.6-0.2,0.7
				c-0.1,0.2-0.3,0.2-0.5,0.2c-0.2,0-0.4-0.1-0.5-0.2c-0.1-0.2-0.2-0.4-0.2-0.7v-1h-0.6c-0.2,0-0.4-0.2-0.4-0.4
				c0-0.2,0.2-0.4,0.4-0.4h0.6v-4.6c0-0.4,0.1-0.6,0.2-0.8c0.1-0.2,0.4-0.2,0.6-0.2h1.7c0.5,0,0.9,0,1.2,0.1
				c0.3,0.1,0.5,0.2,0.7,0.4c0.2,0.2,0.3,0.5,0.5,0.8c0.1,0.3,0.2,0.6,0.2,1c0,0.8-0.2,1.4-0.6,1.8C51.4,46.6,50.7,46.8,49.9,46.8
				L49.9,46.8z M49.6,43.2h-0.9v2.4h0.9c0.3,0,0.6,0,0.8-0.1c0.2-0.1,0.4-0.2,0.5-0.4c0.1-0.2,0.2-0.4,0.2-0.7
				c0-0.3-0.1-0.6-0.3-0.9C50.6,43.3,50.2,43.2,49.6,43.2z" style="fill-rule:evenodd;clip-rule:evenodd;fill:#00AFEE;" />
		</g>
	</g>
</g>
</svg>
