<?xml version="1.0" encoding="utf-8"?>
<!-- Generator: Adobe Illustrator 21.0.0, SVG Export Plug-In . SVG Version: 6.00 Build 0)  -->
<svg version="1.1" id="иконки" xmlns="http://www.w3.org/2000/svg" xmlns:xlink="http://www.w3.org/1999/xlink" x="0px"
	 y="0px" viewBox="0 0 100 100" style="enable-background:new 0 0 100 100;" xml:space="preserve">
<style type="text/css">
	.st0{fill:#00AFEE;}
	.st1{fill-rule:evenodd;clip-rule:evenodd;fill:#00AFEE;}
</style>
<g>
	<g>
		<g>
			<g>
				<path class="st0" d="M34.5,61.3H17.9c-1.2,0-2.2-1-2.2-2.2V31.4c0-1.2,1-2.2,2.2-2.2h45.2c1.2,0,2.2,1,2.2,2.2v10.2H35.9
					c-0.8,0-1.5,0.7-1.5,1.5V61.3z M17.9,30c-0.8,0-1.4,0.6-1.4,1.4v27.7c0,0.8,0.6,1.4,1.4,1.4h15.9V43.1c0-1.2,1-2.2,2.2-2.2h28.6
					v-9.5c0-0.8-0.6-1.4-1.4-1.4H17.9z"/>
			</g>
			<g>
				<path class="st1" d="M17.1,36.9h46.8v4.3H35.9c-0.9,0-1.5,0.8-1.7,1.3H17.1V36.9z"/>
			</g>
			<g>
				<path class="st1" d="M20.4,46.3h13.7v2.2H20.4c-0.5,0-0.9-0.4-0.9-0.9v-0.4C19.5,46.8,19.9,46.3,20.4,46.3z"/>
			</g>
		</g>
		<g>
			<path class="st0" d="M82.9,75H37.7c-1.2,0-2.2-1-2.2-2.2V45.1c0-1.2,1-2.2,2.2-2.2h45.2c1.2,0,2.2,1,2.2,2.2v27.7
				C85.1,74,84.1,75,82.9,75z M37.7,43.6c-0.8,0-1.4,0.6-1.4,1.4v27.7c0,0.8,0.6,1.4,1.4,1.4h45.2c0.8,0,1.4-0.6,1.4-1.4V45.1
				c0-0.8-0.6-1.4-1.4-1.4H37.7z"/>
		</g>
		<g>
			<path class="st0" d="M47.8,56h-6.7c-0.7,0-1.2-0.5-1.2-1.2v-5.1c0-0.7,0.5-1.2,1.2-1.2h6.7c0.7,0,1.2,0.5,1.2,1.2v5.1
				C49.1,55.5,48.5,56,47.8,56z M41.1,49.2c-0.3,0-0.5,0.2-0.5,0.5v5.1c0,0.3,0.2,0.5,0.5,0.5h6.7c0.3,0,0.5-0.2,0.5-0.5v-5.1
				c0-0.3-0.2-0.5-0.5-0.5H41.1z"/>
		</g>
		<g>
			<path class="st0" d="M66.9,58.1c-3.3,0-6.1-2.7-6.1-6.1s2.7-6.1,6.1-6.1S73,48.7,73,52S70.2,58.1,66.9,58.1z M66.9,46.7
				c-2.9,0-5.3,2.4-5.3,5.3s2.4,5.3,5.3,5.3s5.3-2.4,5.3-5.3S69.8,46.7,66.9,46.7z"/>
		</g>
		<g>
			<path class="st0" d="M74.6,58.1c-3.3,0-6.1-2.7-6.1-6.1s2.7-6.1,6.1-6.1s6.1,2.7,6.1,6.1S78,58.1,74.6,58.1z M74.6,46.7
				c-2.9,0-5.3,2.4-5.3,5.3s2.4,5.3,5.3,5.3s5.3-2.4,5.3-5.3S77.6,46.7,74.6,46.7z"/>
		</g>
		<g>
			<g>
				<path class="st0" d="M48.3,67.6h-8.4c-0.4,0-0.7-0.3-0.7-0.7V65c0-0.4,0.3-0.7,0.7-0.7h8.4c0.4,0,0.7,0.3,0.7,0.7V67
					C49,67.3,48.7,67.6,48.3,67.6z M40,65.1V67l8.4-0.1L48.3,65L40,65.1z M39.9,65.1L39.9,65.1L39.9,65.1z"/>
			</g>
			<g>
				<path class="st0" d="M59.1,67.6h-8.4c-0.4,0-0.7-0.3-0.7-0.7V65c0-0.4,0.3-0.7,0.7-0.7h8.4c0.4,0,0.7,0.3,0.7,0.7V67
					C59.8,67.3,59.5,67.6,59.1,67.6z M50.7,65.1V67l8.4-0.1L59,65L50.7,65.1z M50.7,65.1L50.7,65.1L50.7,65.1z"/>
			</g>
			<g>
				<path class="st0" d="M69.9,67.6h-8.4c-0.4,0-0.7-0.3-0.7-0.7V65c0-0.4,0.3-0.7,0.7-0.7h8.4c0.4,0,0.7,0.3,0.7,0.7V67
					C70.6,67.3,70.3,67.6,69.9,67.6z M61.5,65.1V67l8.4-0.1L69.8,65L61.5,65.1z M61.4,65.1L61.4,65.1L61.4,65.1z"/>
			</g>
			<g>
				<path class="st0" d="M80.7,67.6h-8.4c-0.4,0-0.7-0.3-0.7-0.7V65c0-0.4,0.3-0.7,0.7-0.7h8.4c0.4,0,0.7,0.3,0.7,0.7V67
					C81.3,67.3,81,67.6,80.7,67.6z M72.3,65.1V67l8.4-0.1L80.6,65L72.3,65.1z M72.2,65.1L72.2,65.1L72.2,65.1z"/>
			</g>
		</g>
	</g>
</g>
</svg>
