<?xml version="1.0" encoding="utf-8"?>
<!-- Generator: Adobe Illustrator 21.0.0, SVG Export Plug-In . SVG Version: 6.00 Build 0)  -->
<svg version="1.1" id="Layer_1" xmlns="http://www.w3.org/2000/svg" xmlns:xlink="http://www.w3.org/1999/xlink" x="0px" y="0px"
	 viewBox="0 0 119.4 33.4"  xml:space="preserve" style="enable-background:new 0 0 119.4 33.4;" >
<style type="text/css">
	.st0{fill-rule:evenodd;clip-rule:evenodd;fill:#4A7EAB;}
	.st1{fill-rule:evenodd;clip-rule:evenodd;fill:#375A7D;}
</style>
<g>
	<path class="st0" d="M98.5,5.2c-3.2,0-5.6,0.8-7.6,1.2l-0.6,4.8c1-0.5,4-1.3,6.5-1.4c2.5-0.1,4,0.5,3.4,2.6
		c-7.4,0-12.4,1.5-13.4,6.3c-1.5,8.2,7.6,8,11.1,4.4l-0.4,2h6.6L107,12C108.1,6.5,103.1,5.1,98.5,5.2z M98.9,18.6
		c-0.4,1.7-1.8,2.5-3.4,2.6c-1.5,0.1-2.8-1.2-1.8-2.7c0.7-1.3,2.8-1.6,4-1.6c0.5,0,1.1,0,1.6,0C99.1,17.4,99,18,98.9,18.6z" style="fill-rule:evenodd;clip-rule:evenodd;fill:#4A7EAB;" />
	<polygon class="st0" points="112.6,0 107.1,25.1 113.9,25.1 119.4,0 112.6,0 112.6,0 	" style="fill-rule:evenodd;clip-rule:evenodd;fill:#4A7EAB;" />
	<path class="st0" d="M81.8,0.1H69.5l-5.4,25h7.1l1.8-8.3h5.1c5,0,9.1-3,10.2-8.2C89.6,2.7,85.3,0.1,81.8,0.1z M81.6,8.6
		c-0.4,1.9-2.4,3.4-4.2,3.4h-3.3l1.5-6.8h3.5C80.9,5.2,82,6.7,81.6,8.6z" style="fill-rule:evenodd;clip-rule:evenodd;fill:#4A7EAB;" />
	<path class="st1" d="M34.2,5.2c-3.1,0-5.6,0.8-7.4,1.2l-0.6,4.8c0.9-0.5,3.8-1.3,6.3-1.4c2.5-0.1,3.9,0.5,3.5,2.6
		c-7.3,0-12.2,1.5-13.3,6.3c-1.4,8.2,7.5,8,10.9,4.4l-0.4,2h6.6L42.6,12C43.8,6.5,38.7,5.1,34.2,5.2z M34.7,18.6
		c-0.4,1.7-1.8,2.5-3.5,2.6c-1.4,0.1-2.7-1.2-1.7-2.7c0.7-1.3,2.8-1.6,3.9-1.6c0.6,0,1.1,0,1.7,0C34.9,17.4,34.7,18,34.7,18.6z" style="fill-rule:evenodd;clip-rule:evenodd;fill:#375A7D;" />
	<polygon class="st1" points="45.5,5.5 52.1,5.5 53.2,17.2 59.6,5.5 66.4,5.5 50.8,33.4 43.4,33.4 48.2,25.2 45.5,5.5 45.5,5.5 	" style="fill-rule:evenodd;clip-rule:evenodd;fill:#375A7D;" />
	<path class="st1" d="M17.8,0.1H5.5L0,25.1h7.2L9,16.8h5.2c4.9,0,9.1-3,10.2-8.2C25.6,2.7,21.4,0.1,17.8,0.1z M17.5,8.6
		c-0.4,1.9-2.3,3.4-4.1,3.4H10l1.5-6.8h3.5C16.9,5.2,18.1,6.7,17.5,8.6z" style="fill-rule:evenodd;clip-rule:evenodd;fill:#375A7D;" />
</g>
</svg>
