<?xml version="1.0" encoding="utf-8"?>
<!-- Generator: Adobe Illustrator 22.0.1, SVG Export Plug-In . SVG Version: 6.00 Build 0)  -->
<svg version="1.1" id="Слой_1" xmlns="http://www.w3.org/2000/svg" xmlns:xlink="http://www.w3.org/1999/xlink" x="0px" y="0px"
	 viewBox="0 0 39.8 8.8" style="enable-background:new 0 0 39.8 8.8;" xml:space="preserve">
<path style="fill:#FFFFFF;" d="M37.6,0.2h-4.6v8.4h1.9V6h2.7c1.5,0,2.3-1.3,2.3-2.8C39.8,1.5,39.3,0.2,37.6,0.2z M36.9,4.4h-2V1.9
	h2.1c0.5,0,0.8,0.4,0.8,1.3C37.7,4,37.4,4.4,36.9,4.4z"/>
<rect y="4.3" style="fill:#FFFFFF;" width="3.1" height="1.8"/>
<path style="fill:#FFFFFF;" d="M13.2,5.9c0,2.2-0.8,2.8-3.3,2.8C9,8.7,8.1,8.7,7.2,8.5l0.3-1.7C8.2,6.9,8.9,7,9.5,7
	c1.4,0,1.6-0.1,1.6-1c0-0.8-0.2-1-1.6-1c-0.7,0-1.3,0-2,0.1V0.2h5.4v1.7H9.4v1.4c0.3,0,0.5,0,0.8,0C12.5,3.3,13.2,4,13.2,5.9z"/>
<path style="fill:#FFFFFF;" d="M17.7,0L17.7,0c-2.1,0-3.2,0.9-3.2,4.3c0,3.4,1.1,4.5,3.2,4.5c2.1,0,3.2-1,3.2-4.5
	C20.9,0.9,19.8,0,17.7,0z M17.7,7L17.7,7c-1.1,0-1.3-0.3-1.3-2.7c0-2.3,0.2-2.5,1.3-2.5C18.8,1.8,19,2,19,4.3C19,6.6,18.8,7,17.7,7z
	"/>
<path style="fill:#FFFFFF;" d="M25.2,0L25.2,0C23.1,0,22,0.9,22,4.3c0,3.4,1.1,4.5,3.2,4.5s3.2-1,3.2-4.5C28.4,0.9,27.3,0,25.2,0z
	 M25.2,7L25.2,7c-1.1,0-1.3-0.3-1.3-2.7c0-2.3,0.2-2.5,1.3-2.5c1.1,0,1.3,0.3,1.3,2.5C26.5,6.6,26.3,7,25.2,7z"/>
</svg>
