<?xml version="1.0" encoding="utf-8"?>
<!-- Generator: Adobe Illustrator 22.0.1, SVG Export Plug-In . SVG Version: 6.00 Build 0)  -->
<svg version="1.1" id="Слой_1" xmlns="http://www.w3.org/2000/svg" xmlns:xlink="http://www.w3.org/1999/xlink" x="0px" y="0px"
	 viewBox="0 0 18.5 18.5" style="enable-background:new 0 0 18.5 18.5;" xml:space="preserve">
<path id="star-icon" style="fill:#FFBA00;" d="M9.7,0.3L12,6.1l6,0.5c0.3,0,0.5,0.3,0.4,0.6c0,0.1-0.1,0.2-0.2,0.3l-4.6,4.1l1.4,6.2
	c0.1,0.3-0.1,0.5-0.3,0.6c-0.1,0-0.3,0-0.4-0.1l-5.2-3.3l-5.2,3.3c-0.2,0.1-0.5,0.1-0.7-0.2c-0.1-0.1-0.1-0.2-0.1-0.4l1.4-6.2
	L0.2,7.5C0,7.3-0.1,7,0.1,6.8c0.1-0.1,0.2-0.2,0.3-0.2l6-0.5l2.4-5.8C8.9,0,9.2-0.1,9.4,0C9.5,0.1,9.6,0.2,9.7,0.3z"/>
</svg>
