<?xml version="1.0" encoding="utf-8"?>
<!-- Generator: Adobe Illustrator 21.0.0, SVG Export Plug-In . SVG Version: 6.00 Build 0)  -->
<svg version="1.1" id="Слой_1" xmlns="http://www.w3.org/2000/svg" xmlns:xlink="http://www.w3.org/1999/xlink" x="0px" y="0px"
	 viewBox="0 0 30.1 28.3" style="enable-background:new 0 0 30.1 28.3;" xml:space="preserve">
<style type="text/css">
	.st0{fill:#28ABE2;}
</style>
<path class="st0" d="M30,20.6c-0.2-0.6-0.9-0.9-1.5-0.7L27,20.4c0.9-1.9,1.4-4,1.4-6.2C28.4,6.4,22,0,14.2,0C6.4,0,0,6.4,0,14.2
	s6.4,14.1,14.2,14.1c0.6,0,1.2-0.5,1.2-1.2s-0.5-1.2-1.2-1.2c-6.5,0-11.9-5.3-11.9-11.8C2.4,7.6,7.7,2.3,14.2,2.3
	s11.9,5.3,11.9,11.8c0,1.8-0.4,3.6-1.2,5.2l-0.5-1.6c-0.2-0.6-0.9-0.9-1.5-0.7c-0.6,0.2-0.9,0.9-0.7,1.5l1.4,4.2
	c0.2,0.5,0.6,0.8,1.1,0.8c0.1,0,0.2,0,0.4-0.1l4.2-1.4C29.8,21.9,30.2,21.2,30,20.6z"/>
</svg>
