<?xml version="1.0" encoding="utf-8"?>
<!-- Generator: Adobe Illustrator 21.0.0, SVG Export Plug-In . SVG Version: 6.00 Build 0)  -->
<svg version="1.1" id="макет" xmlns="http://www.w3.org/2000/svg" xmlns:xlink="http://www.w3.org/1999/xlink" x="0px" y="0px"
	 viewBox="0 0 100 100" style="enable-background:new 0 0 100 100;" xml:space="preserve">
<style type="text/css">
	.st0{fill:#00AFEE;}
</style>
<g>
	<g>
		<g>
			<path class="st0" d="M39.4,71.7C39.3,71.7,39.3,71.7,39.4,71.7l-23-6.2c-0.1,0-0.2-0.1-0.2-0.2l-3.9-8.3c0,0,0-0.1,0-0.2V37.8
				c0-0.2,0.1-0.3,0.3-0.4l29.3-6.3c0,0,0.1,0,0.1,0l46.7,3.1c0.2,0,0.3,0.2,0.3,0.4v8.5c0,0.1,0,0.2-0.1,0.3l-6.5,5.4v8.5
				c0,0.1,0,0.1,0,0.2l-1.7,3.6v4.2c0,0.2-0.1,0.3-0.3,0.4L39.4,71.7C39.4,71.7,39.4,71.7,39.4,71.7z M16.7,64.9L39.4,71l40.3-5.9
				v-4c0-0.1,0-0.1,0-0.2l1.7-3.6v-8.6c0-0.1,0-0.2,0.1-0.3L88,43v-8l-46.2-3.1l-28.9,6.2v18.8L16.7,64.9z"/>
		</g>
		<g>
			<path class="st0" d="M34.1,64.4c0,0-0.1,0-0.1,0l-9.1-2.8l-2.3,1.5c-0.1,0.1-0.2,0.1-0.3,0.1l-7.9-1.7l0.2-0.7l7.8,1.7l2.3-1.6
				c0.1-0.1,0.2-0.1,0.3,0l9.1,2.8l1.9-2.3V49c0-0.1,0-0.2,0.1-0.2l5.5-6.6V31.5h0.8v10.8c0,0.1,0,0.2-0.1,0.2l-5.5,6.6v12.3
				c0,0.1,0,0.2-0.1,0.2l-2.1,2.6C34.3,64.3,34.2,64.4,34.1,64.4z"/>
		</g>
		<g>
			<rect x="39" y="45.1" class="st0" width="0.8" height="26.2"/>
		</g>
		<g>
			<path class="st0" d="M79.6,61.1l-0.3-21.8l-37.2-1l0-0.8l37.6,1c0.2,0,0.4,0.2,0.4,0.4l0.3,22.1L79.6,61.1z"/>
		</g>
		<g>
			<path class="st0" d="M44.3,66c-0.1,0-0.2,0-0.2-0.1C44,65.8,44,65.7,44,65.6V44.6c0-0.2,0.2-0.4,0.4-0.4L57.5,44
				c0.1,0,0.2,0,0.3,0.1c0.1,0.1,0.1,0.2,0.1,0.3v19.1c0,0.2-0.1,0.3-0.3,0.4L44.3,66C44.4,66,44.4,66,44.3,66z M44.7,44.9v20.3
				l12.4-2V44.8L44.7,44.9z"/>
		</g>
		<g>
			<path class="st0" d="M62.9,64.1c-0.1,0-0.2,0-0.2-0.1c-0.1-0.1-0.1-0.2-0.1-0.3l0-21.3c0-0.2,0.2-0.4,0.4-0.4l2.6-0.1l14.2-0.1
				l0,0.8l-16.4,0.2l0,20.5l2.1-0.3L80,61.4l0.1,0.7l-14.6,1.6L62.9,64.1C63,64.1,63,64.1,62.9,64.1z"/>
		</g>
		<g>
			<path class="st0" d="M40.9,76.1c-0.3,0-0.6,0-0.9-0.1c-2.2-0.3-3.8-1.3-3.6-2.5c0.1-0.8,1-1.4,2.3-1.6l0.1,0.7
				c-1.1,0.1-1.6,0.6-1.7,0.9c-0.1,0.6,1.2,1.4,3,1.6c1.8,0.2,3.2-0.3,3.3-0.9c0.1-0.4-0.7-1.1-2.1-1.5l0.2-0.7
				c1.7,0.4,2.7,1.3,2.6,2.3C43.9,75.5,42.6,76.1,40.9,76.1z"/>
		</g>
		<g>
			<path class="st0" d="M76.3,70.3c-0.3,0-0.5,0-0.8,0c-0.8-0.1-1.6-0.4-2.2-0.7c-0.7-0.4-1-0.9-0.9-1.4c0.1-0.7,0.8-1.2,2-1.4
				l0.1,0.7c-0.9,0.1-1.3,0.5-1.3,0.7c0,0.2,0.2,0.5,0.6,0.7c0.5,0.3,1.2,0.5,1.9,0.6c0.7,0.1,1.4,0,2-0.1c0.4-0.1,0.7-0.4,0.7-0.6
				c0-0.3-0.4-0.7-1.3-1.1l0.3-0.7c1.2,0.4,1.9,1.1,1.8,1.9c-0.1,0.5-0.5,0.9-1.2,1.2C77.4,70.3,76.9,70.3,76.3,70.3z"/>
		</g>
		<g>
			<path class="st0" d="M40.3,74.8c-0.1,0-0.2,0-0.4,0c-0.8-0.1-1.4-0.4-1.5-0.8c0,0,0-0.1,0-0.1l0-2.6c0-0.1,0.1-0.2,0.1-0.3
				s0.2-0.1,0.3-0.1l0.6,0.2l1.9-0.3c0.1,0,0.2,0,0.3,0.1c0.1,0.1,0.1,0.2,0.1,0.3l0,2.7c0,0.1,0,0.1,0,0.2
				C41.6,74.5,41,74.8,40.3,74.8z M39.1,73.7c0.1,0.1,0.4,0.3,0.9,0.4c0.6,0.1,0.9-0.1,1-0.2c0,0,0-0.1,0-0.1l0-2.3l-1.5,0.2
				c-0.1,0-0.1,0-0.2,0l-0.2-0.1L39.1,73.7z"/>
		</g>
		<g>
			<path class="st0" d="M76,69.6c-0.1,0-0.2,0-0.4,0c-0.8-0.1-1.4-0.4-1.5-0.9c0,0,0-0.1,0-0.1l0-2.3c0-0.2,0.1-0.3,0.3-0.4l2.6-0.4
				c0.1,0,0.2,0,0.3,0.1c0.1,0.1,0.1,0.2,0.1,0.3l0,2.7c0,0,0,0.1,0,0.2C77.4,69.2,76.8,69.6,76,69.6z M74.8,68.4
				c0.1,0.1,0.4,0.3,0.9,0.4c0.6,0.1,0.9-0.1,1-0.2c0,0,0-0.1,0-0.1l0-2.2l-1.9,0.3L74.8,68.4z"/>
		</g>
	</g>
</g>
</svg>
