<?xml version="1.0" encoding="utf-8"?>
<!-- Generator: Adobe Illustrator 21.0.0, SVG Export Plug-In . SVG Version: 6.00 Build 0)  -->
<svg version="1.1" id="макет" xmlns="http://www.w3.org/2000/svg" xmlns:xlink="http://www.w3.org/1999/xlink" x="0px" y="0px"
	 viewBox="0 0 100 100" style="enable-background:new 0 0 100 100;" xml:space="preserve">
<style type="text/css">
	.st0{fill:#00AFEE;}
	.st1{fill-rule:evenodd;clip-rule:evenodd;fill:#00AFEE;}
</style>
<g>
	<g>
		<g>
			<path class="st0" d="M67.1,69.3H19.7c-1.4,0-2.7-0.7-3.5-1.9s-0.9-2.6-0.4-3.9l12.3-29.6c0.8-1.9,2.6-3.1,4.7-3.1h47.4
				c1.4,0,2.7,0.7,3.5,1.9c0.8,1.2,0.9,2.6,0.4,3.9L71.8,66.2C71,68.1,69.2,69.3,67.1,69.3z M32.9,31.5c-1.8,0-3.3,1-4,2.6
				L16.6,63.7c-0.5,1.1-0.3,2.2,0.3,3.2s1.7,1.5,2.9,1.5h47.4c1.8,0,3.3-1,4-2.6l12.3-29.6c0.5-1.1,0.3-2.2-0.3-3.2
				c-0.7-1-1.7-1.5-2.9-1.5H32.9z"/>
		</g>
		<g>
			<path style="fill-rule:evenodd" class="st1" d="M32.2,49.6L38,37.8h9.9l-1,2h-7.2l-1.3,2.6h6.7l-1,2h-6.7l-1.6,3.2h7.5l-1,2H32.2L32.2,49.6z M43.4,49.6h3.2
				l4.9-4l1,4h3.2l-1.6-6.2l7-5.7H58l-4.4,3.5l-0.9-3.5h-3.2l1.4,5.7L43.4,49.6L43.4,49.6z M62.9,37.8h4.9c1.1,0,1.9,0.1,2.4,0.2
				c0.7,0.2,1.2,0.6,1.5,1.1c0.3,0.5,0.4,1.2,0.3,1.9c-0.1,0.8-0.4,1.7-0.9,2.8c-0.5,1-1,1.8-1.6,2.5c-0.8,0.9-1.6,1.6-2.4,2.1
				c-0.7,0.4-1.4,0.7-2.4,0.9c-0.7,0.2-1.5,0.3-2.5,0.3h-5.1L62.9,37.8L62.9,37.8z M64.7,39.8h1.2c1.1,0,1.8,0,2.2,0.1
				c0.5,0.1,0.8,0.3,1,0.6c0.2,0.3,0.3,0.7,0.2,1.1c-0.1,0.5-0.3,1.2-0.8,2.1c-0.4,0.9-0.9,1.6-1.3,2.2c-0.4,0.5-0.9,0.9-1.3,1.1
				c-0.4,0.2-0.8,0.4-1.3,0.5c-0.4,0.1-0.9,0.1-1.7,0.1h-2L64.7,39.8z"/>
		</g>
		<g>
			<path class="st1" d="M31.5,60.8l2.2-6.1h1.3l-0.7,4.2l2.3-4.2h1.3l-2.2,6.1h-0.8l1.7-4.8l-2.6,4.8h-0.8L34,56l-1.7,4.8H31.5
				L31.5,60.8z M38.5,57.8c0.2-0.6,0.5-1.1,0.8-1.6c0.2-0.3,0.4-0.6,0.7-0.8c0.3-0.2,0.5-0.4,0.7-0.5c0.3-0.2,0.7-0.2,1-0.2
				c0.6,0,1,0.3,1.2,0.8c0.2,0.6,0.1,1.3-0.3,2.3c-0.4,1-0.8,1.8-1.4,2.3c-0.6,0.6-1.2,0.8-1.8,0.8c-0.6,0-1-0.3-1.2-0.8
				C38.1,59.5,38.2,58.7,38.5,57.8L38.5,57.8z M39.4,57.7c-0.3,0.7-0.3,1.2-0.2,1.6c0.1,0.4,0.3,0.5,0.6,0.5c0.3,0,0.7-0.2,1-0.5
				c0.3-0.4,0.6-0.9,0.9-1.6c0.3-0.7,0.3-1.2,0.2-1.6c-0.1-0.3-0.3-0.5-0.7-0.5c-0.4,0-0.7,0.2-1,0.5C39.9,56.5,39.7,57,39.4,57.7
				L39.4,57.7z M45.6,54.7h1.6c0.4,0,0.6,0,0.8,0.1c0.2,0.1,0.4,0.3,0.4,0.6c0.1,0.3,0.1,0.6,0,1c0,0.4-0.2,0.9-0.4,1.4
				c-0.2,0.5-0.4,0.9-0.6,1.3c-0.3,0.4-0.5,0.8-0.8,1.1c-0.2,0.2-0.5,0.4-0.8,0.5c-0.2,0.1-0.5,0.1-0.8,0.1h-1.6L45.6,54.7
				L45.6,54.7z M46.1,55.7l-1.5,4h0.6c0.2,0,0.4,0,0.5-0.1c0.2,0,0.3-0.1,0.4-0.3c0.1-0.1,0.3-0.3,0.4-0.6c0.2-0.3,0.3-0.6,0.5-1.1
				c0.2-0.5,0.3-0.8,0.3-1.1c0-0.3,0-0.4,0-0.6c-0.1-0.1-0.1-0.2-0.3-0.3c-0.1,0-0.3-0.1-0.7-0.1H46.1L46.1,55.7z M51.1,54.7h0.9
				L50.7,58c-0.2,0.5-0.3,0.9-0.3,1c-0.1,0.2,0,0.5,0,0.6c0.1,0.2,0.2,0.2,0.5,0.2c0.2,0,0.4-0.1,0.6-0.2c0.2-0.1,0.3-0.3,0.4-0.5
				c0.1-0.2,0.2-0.6,0.4-1l1.2-3.4h0.9l-1.2,3.2c-0.3,0.7-0.5,1.2-0.6,1.5c-0.2,0.3-0.3,0.6-0.5,0.8c-0.2,0.2-0.4,0.4-0.7,0.5
				c-0.3,0.1-0.5,0.2-0.9,0.2c-0.4,0-0.7-0.1-0.8-0.2c-0.2-0.1-0.3-0.3-0.3-0.5c0-0.2,0-0.4,0-0.7c0.1-0.3,0.2-0.9,0.5-1.5
				L51.1,54.7L51.1,54.7z M54.4,60.8h3l0.4-1h-2.1l1.8-5h-0.9L54.4,60.8L54.4,60.8z M59.2,60.8l2.2-6.1h3.1l-0.4,1h-2.3l-0.5,1.4
				h2.1l-0.4,1H61l-0.6,1.6h2.4l-0.4,1H59.2z"/>
		</g>
	</g>
</g>
</svg>
