<?xml version="1.0" encoding="utf-8"?>
<!-- Generator: Adobe Illustrator 21.0.0, SVG Export Plug-In . SVG Version: 6.00 Build 0)  -->
<svg version="1.1" id="макет" xmlns="http://www.w3.org/2000/svg" xmlns:xlink="http://www.w3.org/1999/xlink" x="0px" y="0px"
	 viewBox="0 0 100 100" style="enable-background:new 0 0 100 100;" xml:space="preserve">
<style type="text/css">
	.st0{fill:#00AFEE;}
</style>
<g>
	<g>
		<path class="st0" d="M83.3,72.6H16.8c-1.3,0-2.4-1.1-2.4-2.4V29.7c0-1.3,1.1-2.4,2.4-2.4h66.5c1.3,0,2.4,1.1,2.4,2.4v40.6
			C85.6,71.6,84.6,72.6,83.3,72.6z M16.8,28.1c-0.9,0-1.6,0.7-1.6,1.6v40.6c0,0.9,0.7,1.6,1.6,1.6h66.5c0.9,0,1.6-0.7,1.6-1.6V29.7
			c0-0.9-0.7-1.6-1.6-1.6H16.8z"/>
	</g>
	<g>
		<path class="st0" d="M79.5,66.5H20.5c-0.7,0-1.3-0.6-1.3-1.3v-31c0-0.7,0.6-1.3,1.3-1.3h58.9c0.7,0,1.3,0.6,1.3,1.3v31
			C80.8,66,80.2,66.5,79.5,66.5z M20.5,33.6c-0.3,0-0.6,0.2-0.6,0.6v31c0,0.3,0.2,0.6,0.6,0.6h58.9c0.3,0,0.6-0.2,0.6-0.6v-31
			c0-0.3-0.2-0.6-0.6-0.6H20.5z"/>
	</g>
	<g>
		<g>
			<path class="st0" d="M72.6,58.3h-9.2v-0.8h9.2V58.3z M61.4,58.3h-10v-0.8h10V58.3z M49.4,58.3h-10v-0.8h10V58.3z M37.4,58.3h-10
				v-0.8h10V58.3z"/>
		</g>
		<g>
			<g>
				<path class="st0" d="M30.3,53.3l-1,0.7l-1-0.7l0-4.7l1-0.8l1,0.8L30.3,53.3z M30.4,47.1l-1,0.8l-1-0.8l0-4.6l1-0.8l1,0.8
					L30.4,47.1z M36.2,53.5l1,0.8l-1,0.8h-5.7l-0.9-0.8l0.9-0.8H36.2z M36.3,40.6l1,0.8l-1,0.8h-5.7l-1-0.8l1-0.8H36.3z M38.5,53.3
					l-1,0.7l-1-0.7l0-4.7l1-0.8l1,0.8L38.5,53.3z M38.6,47.1l-1,0.8l-1-0.8l0-4.6l1-0.8l1,0.8L38.6,47.1z"/>
			</g>
			<g>
				<path class="st0" d="M41.3,47.8l1,0.8l0,4.6l-2,1.5l0-6.2L41.3,47.8z M41.4,40.6l1,0.8l0,5.7l-1,0.8l-1-0.8l0-5.7L41.4,40.6z
					 M49.5,54.3l-1,0.8h-7.9l2-1.5h5.9L49.5,54.3z"/>
			</g>
			<g>
				<path class="st0" d="M52.3,48.1l1,0.8l0,4.4l-2,1.6l0-5.9L52.3,48.1z M53.3,46.8l-1,0.8l-1-0.8l0-5.9l2,1.5L53.3,46.8z
					 M59.5,53.5l1,0.8l-1,0.8h-7.9l2-1.5H59.5z M60.6,41.4l-1,0.8h-5.9l-2-1.5h7.9L60.6,41.4z M59.5,47.1l1,0.8l-1,0.8h-5.9l-1-0.8
					l1-0.8H59.5z"/>
			</g>
			<g>
				<path class="st0" d="M63.3,47.8l1,0.8l0,4.6l-2,1.5l0-6.2L63.3,47.8z M64.3,47.1l-1,0.8l-1-0.8l0-6.2l2,1.5L64.3,47.1z
					 M70.1,53.5l1,0.8l-1,0.8h-7.6l2-1.5H70.1z M71.2,41.4l-1,0.8h-5.6l-2-1.5h7.6L71.2,41.4z M71.5,47.8l1,0.8l0,4.6l-1,0.8l-1-0.8
					l0-4.6L71.5,47.8z M71.6,41.7l1,0.8l0,4.6l-1,0.8l-1-0.8l0-4.6L71.6,41.7z"/>
			</g>
		</g>
	</g>
</g>
</svg>
