<?xml version="1.0" encoding="utf-8"?>
<!-- Generator: Adobe Illustrator 21.0.0, SVG Export Plug-In . SVG Version: 6.00 Build 0)  -->
<svg version="1.1" id="макет" xmlns="http://www.w3.org/2000/svg" xmlns:xlink="http://www.w3.org/1999/xlink" x="0px" y="0px"
	 viewBox="0 0 100 100" style="enable-background:new 0 0 100 100;" xml:space="preserve">
<style type="text/css">
	.st0{fill:#00AFEE;}
</style>
<g>
	<g>
		<g>
			<path class="st0" d="M52.7,59.4c0,0-0.1,0-0.1,0c-0.2-0.1-0.3-0.2-0.2-0.4l0.4-3.2L46.9,48c-0.3-0.3-0.4-0.8-0.4-1.2
				c0-0.5,0.3-0.9,0.6-1.2c0,0,0,0,0,0l2.3-1.7c0.8-0.5,1.8-0.4,2.3,0.4l5.8,7.8l3.2,0.6c0.2,0,0.3,0.2,0.3,0.3
				c0,0.2-0.1,0.3-0.2,0.4l-2.6,1L57,56.2c0,0.1-0.1,0.1-0.2,0.2L54.6,57L53,59.2C52.9,59.3,52.8,59.4,52.7,59.4z M47.6,46.2
				c-0.2,0.1-0.3,0.4-0.3,0.7c0,0.3,0,0.5,0.2,0.7l5.9,7.9c0.1,0.1,0.1,0.2,0.1,0.3l-0.2,1.9l0.9-1.2c0-0.1,0.1-0.1,0.2-0.1l2.2-0.7
				l1.2-1.9c0-0.1,0.1-0.1,0.2-0.1l1.4-0.5l-2-0.4c-0.1,0-0.2-0.1-0.2-0.1l-5.9-7.9c-0.3-0.4-0.8-0.5-1.3-0.2L47.6,46.2z"/>
		</g>
		<g>
			<path class="st0" d="M55,42.1c0,0-0.1,0-0.1,0c-0.2,0-0.5-0.2-0.6-0.4l-2.5-3.2c-0.1-0.1-0.1-0.2-0.1-0.4c0-0.2,0.1-0.5,0.3-0.7
				c0,0,0,0,0,0l6.1-4.5c0.1-0.1,0.4-0.2,0.6-0.2c0.2,0,0.5,0.2,0.6,0.4l2.5,3.2c0.1,0.1,0.2,0.4,0.2,0.6c0,0.2-0.2,0.5-0.4,0.6
				l-6,4.5C55.4,42,55.2,42.1,55,42.1z M52.6,37.9c0,0,0,0.1,0,0.1l2.5,3.3l6.2-4.5l-2.5-3.4L52.6,37.9z"/>
		</g>
		<g>
			<path class="st0" d="M60.1,48.6C60,48.6,60,48.6,60.1,48.6c-0.3,0-0.6-0.2-0.8-0.5l-2.5-3.3c-0.2-0.4-0.2-0.8,0.1-1.1l6.2-4.5
				c0.4-0.2,0.8-0.2,1.1,0.1l2.5,3.4c0.2,0.4,0.2,0.8-0.1,1.1l-6.1,4.5C60.4,48.5,60.2,48.6,60.1,48.6z M63.7,39.8
				C63.6,39.8,63.6,39.8,63.7,39.8l-6.2,4.5c0,0,0,0.1,0,0.1l2.5,3.2c0.1,0.1,0.1,0.2,0.2,0.2c0,0,0,0,0,0l6.1-4.5c0,0,0-0.1,0-0.1
				L63.7,39.8C63.7,39.8,63.7,39.8,63.7,39.8z"/>
		</g>
		<g>
			<path class="st0" d="M64.3,35c-0.2,0-0.4-0.1-0.6-0.3l-2.5-3.3C61,31,61,30.6,61.3,30.3l6.1-4.5c0,0,0,0,0,0
				c0.3-0.2,0.5-0.2,0.7-0.1c0.2,0.1,0.4,0.2,0.5,0.4l2.5,3.2c0.2,0.4,0.2,0.8-0.1,1.1l-6.1,4.5C64.7,35,64.5,35,64.3,35z
				 M67.9,26.4l-6.1,4.5c0,0,0,0.1,0,0.1l2.5,3.2c0,0,0.1,0,0.1,0l6-4.5c0,0,0-0.1,0-0.1L67.9,26.4C68,26.4,68,26.4,67.9,26.4z"/>
		</g>
		<g>
			<path class="st0" d="M69.3,41.6c0,0-0.1,0-0.1,0c-0.2,0-0.5-0.2-0.6-0.4l-2.5-3.2c-0.1-0.1-0.2-0.4-0.2-0.6
				c0-0.2,0.2-0.5,0.4-0.6l6-4.5c0.1-0.1,0.4-0.2,0.6-0.2c0.2,0,0.5,0.2,0.6,0.4l2.5,3.2c0.1,0.1,0.1,0.2,0.1,0.4
				c0,0.2-0.1,0.5-0.3,0.7c0,0,0,0,0,0l-6.1,4.5C69.7,41.5,69.5,41.6,69.3,41.6z M73,32.9l-6.2,4.5l2.5,3.4l6.2-4.5c0,0,0-0.1,0-0.1
				L73,32.9z"/>
		</g>
		<g>
			<path class="st0" d="M36.3,55.9c-0.2,0-0.4-0.1-0.6-0.3l-2.5-3.3c-0.2-0.4-0.2-0.8,0.1-1.1l6.1-4.5c0,0,0,0,0.1,0
				c0.2-0.1,0.5-0.1,0.7-0.1c0.2,0.1,0.3,0.2,0.4,0.3l2.5,3.2c0.2,0.4,0.2,0.8-0.1,1.1l-6.1,4.5C36.7,55.9,36.5,55.9,36.3,55.9z
				 M39.9,47.3l-6.1,4.5c0,0,0,0.1,0,0.1l2.5,3.2c0,0,0.1,0,0.1,0l6-4.5c0,0,0-0.1,0-0.1L40,47.3C40,47.3,39.9,47.3,39.9,47.3z"/>
		</g>
		<g>
			<path class="st0" d="M41.3,62.5c0,0-0.1,0-0.1,0c-0.2,0-0.5-0.2-0.6-0.4l-2.5-3.2c-0.1-0.1-0.2-0.4-0.2-0.6
				c0-0.2,0.2-0.5,0.4-0.6l6-4.5c0.1-0.1,0.4-0.2,0.6-0.2c0.2,0,0.5,0.2,0.6,0.4l2.5,3.2c0.2,0.4,0.2,0.9-0.2,1.1l-6.1,4.5
				C41.7,62.4,41.5,62.5,41.3,62.5z M45,53.8l-6.2,4.5l2.5,3.4l6.2-4.5c0,0,0,0,0,0c0,0,0-0.1,0-0.1L45,53.8z"/>
		</g>
		<g>
			<path class="st0" d="M27,62.8c0,0-0.1,0-0.1,0c-0.2,0-0.5-0.2-0.6-0.4l-2.5-3.1c-0.2-0.4-0.2-0.9,0.1-1.2c0,0,0,0,0,0l6.1-4.5
				c0.1-0.1,0.4-0.2,0.6-0.2c0.2,0,0.5,0.2,0.6,0.4l2.5,3.2c0.1,0.1,0.2,0.4,0.2,0.6c0,0.2-0.2,0.5-0.4,0.6l-6,4.5
				C27.4,62.7,27.2,62.8,27,62.8z M24.6,58.6c-0.1,0.1,0,0.2,0,0.3L27,62l6.2-4.5l-2.5-3.4L24.6,58.6z"/>
		</g>
		<g>
			<path class="st0" d="M32,69.3c-0.1,0-0.2,0-0.2,0c-0.1,0-0.3-0.2-0.4-0.5l-2.5-3.3c-0.2-0.4-0.2-0.8,0.1-1.1l6.1-4.5
				c0.4-0.2,0.8-0.2,1.1,0.1l2.5,3.4c0.2,0.4,0.2,0.8-0.1,1.1l-6.1,4.5c0,0,0,0,0,0C32.3,69.2,32.2,69.3,32,69.3z M35.7,60.5
				C35.6,60.5,35.6,60.5,35.7,60.5L29.5,65c0,0,0,0.1,0,0.1l2.5,3.2c0,0,0,0.1,0.1,0.1l0.2,0.3l-0.2-0.3l6.1-4.5c0,0,0-0.1,0-0.1
				L35.7,60.5C35.7,60.5,35.7,60.5,35.7,60.5z"/>
		</g>
		<g>
			<path class="st0" d="M55,65.6c-0.2,0-0.4-0.2-0.4-0.4s0.2-0.4,0.4-0.4c2.3,0,4.5-0.8,6.5-2.2c1.9-1.4,3.3-3.3,4.1-5.6
				c0.1-0.2,0.3-0.3,0.5-0.2c0.2,0.1,0.3,0.3,0.2,0.5c-0.9,2.5-2.3,4.5-4.3,6C59.9,64.8,57.5,65.6,55,65.6z"/>
		</g>
		<g>
			<path class="st0" d="M55.4,69.7c-0.2,0-0.4-0.2-0.4-0.4c0-0.2,0.2-0.4,0.4-0.4c3.1-0.1,6.1-1.1,8.7-3c2.5-1.8,4.4-4.4,5.4-7.4
				c0.1-0.2,0.3-0.3,0.5-0.2c0.2,0.1,0.3,0.3,0.2,0.5c-1,3.1-3,5.9-5.6,7.8C61.8,68.5,58.7,69.6,55.4,69.7
				C55.4,69.7,55.4,69.7,55.4,69.7z"/>
		</g>
		<g>
			<path class="st0" d="M55.8,74.4c-0.2,0-0.4-0.2-0.4-0.4c0-0.2,0.1-0.4,0.4-0.4c4.2-0.2,8.1-1.6,11.2-3.9c3.3-2.5,5.7-5.8,7-9.6
				c0.1-0.2,0.3-0.3,0.5-0.2c0.2,0.1,0.3,0.3,0.2,0.5c-1.3,3.9-3.8,7.4-7.2,10C64.2,72.8,60.2,74.2,55.8,74.4
				C55.8,74.4,55.8,74.4,55.8,74.4z"/>
		</g>
	</g>
</g>
</svg>
