<?xml version="1.0" encoding="utf-8"?>
<!-- Generator: Adobe Illustrator 21.0.0, SVG Export Plug-In . SVG Version: 6.00 Build 0)  -->
<svg version="1.1" id="макет" xmlns="http://www.w3.org/2000/svg" xmlns:xlink="http://www.w3.org/1999/xlink" x="0px" y="0px"
	 viewBox="0 0 100 100" style="enable-background:new 0 0 100 100;" xml:space="preserve">
<style type="text/css">
	.st0{fill:#00AFEE;}
</style>
<g>
	<g>
		<g>
			<g>
				<path class="st0" d="M49.7,59.3H17.9c-0.2,0-0.4-0.2-0.4-0.4V27.2c0-0.2,0.2-0.4,0.4-0.4h31.8c0.2,0,0.4,0.2,0.4,0.4v31.8
					C50.1,59.1,49.9,59.3,49.7,59.3z M18.3,58.6h31v-31h-31V58.6z"/>
			</g>
			<g>
				<path class="st0" d="M82.1,59.3H50.3c-0.2,0-0.4-0.2-0.4-0.4V27.2c0-0.2,0.2-0.4,0.4-0.4h31.8c0.2,0,0.4,0.2,0.4,0.4v31.8
					C82.4,59.1,82.3,59.3,82.1,59.3z M50.7,58.6h31v-31h-31V58.6z"/>
			</g>
		</g>
		<g>
			<g>
				<rect x="16.6" y="63.9" class="st0" width="66.8" height="0.8"/>
			</g>
			<g>
				<rect x="16.6" y="72.4" class="st0" width="66.8" height="0.8"/>
			</g>
			<g>
				<polygon class="st0" points="50.3,73 49.7,72.6 56.4,64.1 57,64.5 				"/>
			</g>
			<g>
				<polygon class="st0" points="49.3,73 42.6,64.5 43.2,64.1 49.9,72.6 				"/>
			</g>
			<g>
				<polygon class="st0" points="65,73 58.4,64.5 59,64.1 65.6,72.6 				"/>
			</g>
			<g>
				<polygon class="st0" points="34.6,73 34,72.6 40.7,64.1 41.3,64.5 				"/>
			</g>
			<g>
				<polygon class="st0" points="66,73 65.5,72.6 72.1,64.1 72.7,64.5 				"/>
			</g>
			<g>
				<polygon class="st0" points="33.6,73 26.9,64.5 27.5,64.1 34.2,72.6 				"/>
			</g>
			<g>
				<polygon class="st0" points="80.8,73 74.1,64.5 74.7,64.1 81.4,72.6 				"/>
			</g>
			<g>
				<polygon class="st0" points="18.8,73 18.2,72.6 24.9,64.1 25.5,64.5 				"/>
			</g>
		</g>
		<g>
			<path class="st0" d="M35.6,64.7H32v-6.1h3.6V64.7z M32.7,63.9h2.1v-4.6h-2.1V63.9z"/>
		</g>
		<g>
			<path class="st0" d="M68,64.7h-3.6v-6.1H68V64.7z M65.1,63.9h2.1v-4.6h-2.1V63.9z"/>
		</g>
		<g>
			<g>
				
					<rect x="22.3" y="47.7" transform="matrix(0.7071 -0.7071 0.7071 0.7071 -31.7813 31.8678)" class="st0" width="0.5" height="13.1"/>
			</g>
			<g>
				
					<rect x="25.1" y="41" transform="matrix(0.7071 -0.7071 0.7071 0.7071 -29.0001 33.0198)" class="st0" width="0.5" height="21"/>
			</g>
			<g>
				
					<rect x="27.9" y="34.3" transform="matrix(0.7071 -0.7071 0.7071 0.7071 -26.2186 34.1719)" class="st0" width="0.5" height="28.9"/>
			</g>
			<g>
				
					<rect x="30.7" y="27.6" transform="matrix(0.7071 -0.7071 0.7071 0.7071 -23.4373 35.324)" class="st0" width="0.5" height="36.7"/>
			</g>
			<g>
				
					<rect x="33.5" y="20.7" transform="matrix(0.7071 -0.7071 0.7071 0.7071 -20.6562 36.4763)" class="st0" width="0.5" height="44.9"/>
			</g>
			<g>
				
					<rect x="36.2" y="21.7" transform="matrix(0.7071 -0.7071 0.7071 0.7071 -17.8751 37.6279)" class="st0" width="0.5" height="37.3"/>
			</g>
			<g>
				
					<rect x="39" y="22.9" transform="matrix(0.7071 -0.7071 0.7071 0.7071 -15.0936 38.7801)" class="st0" width="0.5" height="29.5"/>
			</g>
			<g>
				
					<rect x="41.8" y="24" transform="matrix(0.7071 -0.7071 0.7071 0.7071 -12.3123 39.9321)" class="st0" width="0.5" height="21.6"/>
			</g>
			<g>
				
					<rect x="44.6" y="25.2" transform="matrix(0.7071 -0.7071 0.7071 0.7071 -9.5309 41.0853)" class="st0" width="0.5" height="13.7"/>
			</g>
		</g>
	</g>
</g>
</svg>
