<?xml version="1.0" encoding="utf-8"?>
<!-- Generator: Adobe Illustrator 21.0.0, SVG Export Plug-In . SVG Version: 6.00 Build 0)  -->
<svg version="1.1" id="макет" xmlns="http://www.w3.org/2000/svg" xmlns:xlink="http://www.w3.org/1999/xlink" x="0px" y="0px"
	 viewBox="0 0 100 100" style="enable-background:new 0 0 100 100;" xml:space="preserve">
<style type="text/css">
	.st0{fill:#00AFEE;}
</style>
<g>
	<g>
		<g>
			<path class="st0" d="M40.5,79.5c-0.1,0-0.1,0-0.2-0.1L20.7,66.5c-0.1-0.1-0.2-0.2-0.2-0.3l0.9-37.2c0-0.2,0.2-0.4,0.4-0.4
				l32.9-1.3l28.2,3.5c0.1,0,0.2,0.1,0.3,0.2c0.1,0.1,0.1,0.2,0.1,0.3l-9.3,42.5c0,0.2-0.2,0.3-0.3,0.3L40.5,79.5
				C40.5,79.5,40.5,79.5,40.5,79.5z M21.3,66l19.3,12.7l32.7-5.3l9.1-41.8L54.6,28l-32.5,1.2L21.3,66z"/>
		</g>
		<g>
			<path class="st0" d="M48.9,35C48.8,35,48.8,35,48.9,35l-27.1-5.7l0.2-0.7l27,5.7l33.9-3.5l0.1,0.7L48.9,35
				C48.9,35,48.9,35,48.9,35z"/>
		</g>
		<g>
			
				<rect x="22.1" y="56.5" transform="matrix(0.1848 -0.9828 0.9828 0.1848 -19.477 90.2727)" class="st0" width="45.2" height="0.8"/>
		</g>
		<g>
			
				<rect x="34.9" y="54.9" transform="matrix(0.1851 -0.9827 0.9827 0.1851 -7.7624 101.089)" class="st0" width="44.4" height="0.7"/>
		</g>
		<g>
			<path class="st0" d="M57.9,72.2c-0.1,0-0.2,0-0.3-0.1c-0.1-0.1-0.1-0.2-0.1-0.3l5.1-26.5c0-0.2,0.2-0.3,0.3-0.3l13.6-1.7
				c0.1,0,0.2,0,0.3,0.1c0.1,0.1,0.1,0.2,0.1,0.3l-5.7,26c0,0.1-0.2,0.3-0.3,0.3L57.9,72.2C57.9,72.2,57.9,72.2,57.9,72.2z
				 M63.3,45.7l-4.9,25.7l12.2-2.1L76,44.1L63.3,45.7z"/>
		</g>
		<g>
			<path class="st0" d="M45.7,76.2c-0.1,0-0.2,0-0.3-0.1c-0.1-0.1-0.1-0.2-0.1-0.3l0.8-5.7c0-0.2,0.2-0.3,0.4-0.3l3.9-0.1
				c0.1,0,0.2,0,0.3,0.1c0.1,0.1,0.1,0.2,0.1,0.3l-0.8,5.6c0,0.2-0.2,0.3-0.3,0.3L45.7,76.2C45.7,76.2,45.7,76.2,45.7,76.2z
				 M46.8,70.4l-0.7,5l3.1-0.2l0.7-4.9L46.8,70.4z"/>
		</g>
		<g>
			<path class="st0" d="M40,28.6c-0.1,0-0.2,0-0.3-0.1c-0.1-0.1-0.1-0.2-0.1-0.3v-5.3c0-0.2,0.2-0.4,0.4-0.4h6.4
				c0.2,0,0.4,0.2,0.4,0.4V28c0,0.2-0.2,0.4-0.4,0.4L40,28.6C40,28.6,40,28.6,40,28.6z M40.4,23.3v4.6l5.6-0.2v-4.4H40.4z"/>
		</g>
	</g>
</g>
</svg>
