<?xml version="1.0" encoding="utf-8"?>
<!-- Generator: Adobe Illustrator 21.0.0, SVG Export Plug-In . SVG Version: 6.00 Build 0)  -->
<svg version="1.1" id="иконка" xmlns="http://www.w3.org/2000/svg" xmlns:xlink="http://www.w3.org/1999/xlink" x="0px"
	 y="0px" viewBox="0 0 66 57.2" style="enable-background:new 0 0 66 57.2;" xml:space="preserve">
<style type="text/css">
	.st0{fill:#FFFFFF;}
</style>
<g>
	<g>
		<path class="st0" d="M63.9,57.2H2.1c-1.2,0-2.1-0.9-2.1-2.1V13.2c0-1.2,0.9-2.1,2.1-2.1h3.5v0.8H2.1c-0.7,0-1.3,0.6-1.3,1.3v41.9
			c0,0.7,0.6,1.3,1.3,1.3h61.8c0.7,0,1.3-0.6,1.3-1.3V13.2c0-0.7-0.6-1.3-1.3-1.3h-3.5v-0.8h3.5c1.2,0,2.1,0.9,2.1,2.1v41.9
			C66,56.3,65,57.2,63.9,57.2z"/>
	</g>
	<g>
		<path class="st0" d="M32,55.3c-6.1,0-14.2-4-18.3-15.6L6.4,16.7C5.2,12.2,4.6,8.6,4.8,6C5,3.8,5.7,3.6,8.1,3l0.3-0.1
			C17.5,0.7,27.7,0.1,33,0c5.3,0.1,15.5,0.7,24.6,2.9L57.9,3c2.4,0.6,3.1,0.8,3.2,3c0.2,2.6-0.3,6.2-1.5,10.7l-7.4,22.9
			c-4.3,12.2-13,16-19.2,15.6C32.7,55.3,32.4,55.3,32,55.3z M33,0.8C27.7,0.9,17.6,1.4,8.6,3.7L8.2,3.8C5.9,4.3,5.7,4.4,5.6,6.1
			c-0.2,2.5,0.4,6.1,1.5,10.4l7.4,22.9C18.6,51.2,27,54.9,33,54.5l0,0l0,0c6,0.4,14.4-3.3,18.5-15.1l7.4-22.9
			c1.2-4.3,1.7-7.9,1.5-10.4c-0.1-1.7-0.4-1.7-2.7-2.3l-0.3-0.1C48.4,1.4,38.2,0.9,33,0.8z"/>
	</g>
	<g>
		<path class="st0" d="M6.3,15l-0.2-0.7c14.1-4,28-5,41.2-2.9l-0.1,0.7C34.1,10.1,20.3,11.1,6.3,15z M59.6,15
			c-0.8-0.3-1.7-0.5-2.6-0.7l0.2-0.7c0.8,0.2,1.7,0.5,2.6,0.8L59.6,15z"/>
	</g>
	<g>
		<path class="st0" d="M5.3,6.6L5.1,5.8c19.2-5.7,38-5.7,55.8,0l-0.2,0.7C43,0.9,24.3,0.9,5.3,6.6z"/>
	</g>
	<g>
		<path class="st0" d="M52.4,17.6c-3,0-5.5-2.5-5.5-5.5c0-3,2.5-5.5,5.5-5.5c3,0,5.5,2.5,5.5,5.5C57.9,15.1,55.4,17.6,52.4,17.6z
			 M52.4,7.3c-2.6,0-4.7,2.1-4.7,4.7c0,2.6,2.1,4.7,4.7,4.7c2.6,0,4.7-2.1,4.7-4.7C57.1,9.5,55,7.3,52.4,7.3z"/>
	</g>
	<g>
		<path class="st0" d="M52.8,13.9c-1.6,0-2.9-1.3-2.9-2.9s1.3-2.9,2.9-2.9s2.9,1.3,2.9,2.9S54.5,13.9,52.8,13.9z M52.8,8.8
			c-1.2,0-2.2,1-2.2,2.2s1,2.2,2.2,2.2s2.2-1,2.2-2.2S54,8.8,52.8,8.8z"/>
	</g>
	<g>
		<path class="st0" d="M33,47.9c-6.9,0-12.6-5.6-12.6-12.6S26,22.7,33,22.7c6.9,0,12.6,5.6,12.6,12.6S39.9,47.9,33,47.9z M33,23.5
			c-6.5,0-11.8,5.3-11.8,11.8c0,6.5,5.3,11.8,11.8,11.8s11.8-5.3,11.8-11.8C44.8,28.8,39.5,23.5,33,23.5z"/>
	</g>
	<g>
		<path class="st0" d="M33,46.8c-6.3,0-11.5-5.1-11.5-11.5c0-6.3,5.1-11.5,11.5-11.5c6.3,0,11.5,5.1,11.5,11.5
			C44.4,41.6,39.3,46.8,33,46.8z M33,24.6c-5.9,0-10.7,4.8-10.7,10.7S27.1,46,33,46s10.7-4.8,10.7-10.7S38.9,24.6,33,24.6z"/>
	</g>
	<g>
		<path class="st0" d="M33,41.8c-3.6,0-6.5-2.9-6.5-6.5c0-3.6,2.9-6.5,6.5-6.5c3.6,0,6.5,2.9,6.5,6.5C39.4,38.9,36.5,41.8,33,41.8z
			 M33,29.6c-3.1,0-5.7,2.6-5.7,5.7S29.8,41,33,41s5.7-2.6,5.7-5.7S36.1,29.6,33,29.6z"/>
	</g>
	<g>
		<path class="st0" d="M33,40.6c-2.9,0-5.3-2.4-5.3-5.3S30.1,30,33,30s5.3,2.4,5.3,5.3S35.9,40.6,33,40.6z M33,30.7
			c-2.5,0-4.6,2-4.6,4.6s2,4.6,4.6,4.6c2.5,0,4.6-2,4.6-4.6S35.5,30.7,33,30.7z"/>
	</g>
	<g>
		<path class="st0" d="M33,39.4c-2.2,0-4-1.8-4-4s1.8-4,4-4s4,1.8,4,4S35.2,39.4,33,39.4z M33,32c-1.8,0-3.3,1.5-3.3,3.3
			s1.5,3.3,3.3,3.3c1.8,0,3.3-1.5,3.3-3.3S34.8,32,33,32z"/>
	</g>
</g>
</svg>
