<?xml version="1.0" encoding="utf-8"?>
<!-- Generator: Adobe Illustrator 21.0.0, SVG Export Plug-In . SVG Version: 6.00 Build 0)  -->
<svg version="1.1" id="icon_visa" xmlns="http://www.w3.org/2000/svg" xmlns:xlink="http://www.w3.org/1999/xlink" x="0px" y="0px"
	 viewBox="0 0 45.5 14" style="enable-background:new 0 0 45.5 14;" xml:space="preserve">

<title>51F551A6-3E13-489D-8683-31F3D48CD0DC</title>
<g>
	<path style="fill:#004686" class="st0" d="M16,13.8l2.3-13.6H22l-2.3,13.6H16z M33,0.6C32.3,0.3,31.2,0,29.7,0c-3.6,0-6.2,1.8-6.2,4.5c0,2,1.8,3,3.2,3.7
		c1.4,0.7,1.9,1.1,1.9,1.7c0,0.9-1.1,1.3-2.2,1.3c-1.5,0-2.3-0.2-3.5-0.7l-0.5-0.2l-0.5,3c0.9,0.4,2.5,0.7,4.1,0.7
		c3.9,0,6.4-1.8,6.4-4.6c0-1.5-1-2.7-3.1-3.7c-1.3-0.6-2.1-1-2.1-1.7c0-0.6,0.7-1.2,2.1-1.2c1.2,0,2.1,0.2,2.8,0.5l0.3,0.2L33,0.6
		L33,0.6z M42.5,0.2h-2.8c-0.9,0-1.5,0.2-1.9,1.1l-5.5,12.4h3.9c0,0,0.6-1.7,0.8-2l4.7,0c0.1,0.5,0.4,2,0.4,2h3.4L42.5,0.2L42.5,0.2
		L42.5,0.2z M37.9,9c0.3-0.8,1.5-3.8,1.5-3.8c0,0,0.3-0.8,0.5-1.3l0.3,1.2c0,0,0.7,3.2,0.8,3.9L37.9,9L37.9,9z M12.9,0.2L9.3,9.5
		L8.9,7.6C8.3,5.4,6.2,3.1,3.8,1.9l3.3,11.9l3.9,0l5.8-13.5L12.9,0.2L12.9,0.2z"/>
	<path style="fill:#EF9B11" class="st1" d="M6,0.2H0l0,0.3c4.6,1.1,7.7,3.8,8.9,7.1L7.7,1.4C7.4,0.5,6.8,0.3,6,0.2z"/>
</g>
</svg>
