<?xml version="1.0" encoding="utf-8"?>
<!-- Generator: Adobe Illustrator 22.0.1, SVG Export Plug-In . SVG Version: 6.00 Build 0)  -->
<svg version="1.1" id="stars" xmlns="http://www.w3.org/2000/svg" xmlns:xlink="http://www.w3.org/1999/xlink" x="0px" y="0px"
	 viewBox="0 0 105 62" style="enable-background:new 0 0 105 62;" xml:space="preserve">
<path id="star"  d="M20.8,36.9c0.1-0.1,0.2-0.3,0.3-0.3c0.1-0.1,0.3-0.1,0.4,0c0.2,0.1,0.3,0.2,0.3,0.3
	l1.3,2.6l2.8,0.4c0.2,0,0.3,0.1,0.4,0.2c0.1,0.1,0.1,0.3,0.1,0.4c0,0.2-0.1,0.3-0.2,0.4l-2.1,2l0.5,2.9c0,0.2,0,0.3-0.1,0.4
	c-0.1,0.1-0.2,0.2-0.4,0.3c-0.2,0-0.3,0-0.4-0.1l-2.6-1.3l-2.6,1.3c-0.1,0.1-0.3,0.1-0.4,0.1c-0.2,0-0.3-0.1-0.4-0.3
	c0.3,0,0.2-0.2,0.3-0.3l0.5-2.9l-2.1-2c-0.1-0.1-0.2-0.3-0.2-0.4c0-0.2,0-0.3,0.1-0.4c0.1-0.1,0.2-0.2,0.4-0.2l2.8-0.4L20.8,36.9z
	 M35.8,36.9c0.1-0.1,0.2-0.3,0.3-0.3c0.1-0.1,0.3-0.1,0.4,0c0.2,0.1,0.3,0.2,0.3,0.3l1.3,2.6l2.8,0.4c0.2,0,0.3,0.1,0.4,0.2
	c0.1,0.1,0.1,0.3,0.1,0.4c0,0.2-0.1,0.3-0.2,0.4l-2.1,2l0.5,2.9c0,0.2,0,0.3-0.1,0.4c-0.1,0.1-0.2,0.2-0.4,0.3c-0.2,0-0.3,0-0.4-0.1
	l-2.6-1.3l-2.6,1.3c-0.1,0.1-0.3,0.1-0.4,0.1c-0.2,0-0.3-0.1-0.4-0.3c0.3,0,0.2-0.2,0.3-0.3l0.5-2.9l-2.1-2
	c-0.1-0.1-0.2-0.3-0.2-0.4c0-0.2,0-0.3,0.1-0.4c0.1-0.1,0.2-0.2,0.4-0.2l2.8-0.4L35.8,36.9z M51.8,36.9c0.1-0.1,0.2-0.3,0.3-0.3
	c0.1-0.1,0.3-0.1,0.4,0c0.2,0.1,0.3,0.2,0.3,0.3l1.3,2.6l2.8,0.4c0.2,0,0.3,0.1,0.4,0.2c0.1,0.1,0.1,0.3,0.1,0.4
	c0,0.2-0.1,0.3-0.2,0.4l-2.1,2l0.5,2.9c0,0.2,0,0.3-0.1,0.4c-0.1,0.1-0.2,0.2-0.4,0.3c-0.2,0-0.3,0-0.4-0.1l-2.6-1.3l-2.6,1.3
	c-0.1,0.1-0.3,0.1-0.4,0.1c-0.2,0-0.3-0.1-0.4-0.3c0.3,0,0.2-0.2,0.3-0.3l0.5-2.9l-2.1-2c-0.1-0.1-0.2-0.3-0.2-0.4
	c0-0.2,0-0.3,0.1-0.4c0.1-0.1,0.2-0.2,0.4-0.2l2.8-0.4L51.8,36.9z M67.8,36.9c0.1-0.1,0.2-0.3,0.3-0.3c0.1-0.1,0.3-0.1,0.4,0
	c0.2,0.1,0.3,0.2,0.3,0.3l1.3,2.6l2.8,0.4c0.2,0,0.3,0.1,0.4,0.2c0.1,0.1,0.1,0.3,0.1,0.4c0,0.2-0.1,0.3-0.2,0.4l-2.1,2l0.5,2.9
	c0,0.2,0,0.3-0.1,0.4c-0.1,0.1-0.2,0.2-0.4,0.3c-0.2,0-0.3,0-0.4-0.1l-2.6-1.3l-2.6,1.3c-0.1,0.1-0.3,0.1-0.4,0.1
	c-0.2,0-0.3-0.1-0.4-0.3c0.3,0,0.2-0.2,0.3-0.3l0.5-2.9l-2.1-2c-0.1-0.1-0.2-0.3-0.2-0.4c0-0.2,0-0.3,0.1-0.4
	c0.1-0.1,0.2-0.2,0.4-0.2l2.8-0.4L67.8,36.9z M83.8,36.9c0.1-0.1,0.2-0.3,0.3-0.3c0.1-0.1,0.3-0.1,0.4,0c0.2,0.1,0.3,0.2,0.3,0.3
	l1.3,2.6l2.8,0.4c0.2,0,0.3,0.1,0.4,0.2c0.1,0.1,0.1,0.3,0.1,0.4c0,0.2-0.1,0.3-0.2,0.4l-2.1,2l0.5,2.9c0,0.2,0,0.3-0.1,0.4
	c-0.1,0.1-0.2,0.2-0.4,0.3c-0.2,0-0.3,0-0.4-0.1l-2.6-1.3l-2.6,1.3c-0.1,0.1-0.3,0.1-0.4,0.1c-0.2,0-0.3-0.1-0.4-0.3
	c0.3,0,0.2-0.2,0.3-0.3l0.5-2.9l-2.1-2c-0.1-0.1-0.2-0.3-0.2-0.4c0-0.2,0-0.3,0.1-0.4c0.1-0.1,0.2-0.2,0.4-0.2l2.8-0.4L83.8,36.9z"
	/>
<path id="ya"  d="M85.1,19.4V20H87v7.1h0.7V20h1.8v-0.6H85.1z M82.2,19.3c-1.3,0-2.3,1.5-2.3,4s0.8,4,2.5,4
	c0.7,0,1.4-0.3,1.9-0.9L84,25.8c-0.4,0.5-1,0.8-1.6,0.8c-1.2,0-1.7-1.1-1.8-3.3h3.6C84.5,20.7,83.6,19.3,82.2,19.3L82.2,19.3z
	 M83.5,22.8h-2.9c0.1-1.9,0.8-3,1.6-3C83,19.9,83.6,20.8,83.5,22.8z M76.5,23l2.6-3.6h-0.7L75.7,23v-3.6H75v7.7h0.7v-4l2.8,4h0.8
	L76.5,23z M71.4,19.3c-0.8,0.1-1.5,0.6-1.8,1.4l-0.1-1.3h-0.7v10.1h0.8v-2.9c0.3,0.4,0.9,0.7,1.4,0.7c1.5,0,2.5-1.4,2.5-4.2
	C73.5,20.8,72.7,19.3,71.4,19.3z M71.1,26.7c-0.6,0-1.2-0.3-1.5-0.9v-4.3c0.2-0.8,0.9-1.4,1.7-1.6c0.9,0,1.5,1.2,1.5,3.2
	C72.8,25.5,72.1,26.7,71.1,26.7z M67.1,25.7v-4.2c0-1.5-0.8-2.2-2.1-2.2c-0.7,0-1.4,0.3-1.9,0.8l0.2,0.7c0.4-0.5,1-0.9,1.7-0.8
	c0.9,0,1.3,0.5,1.3,1.7v1h-0.9c-1.7,0-2.7,0.9-2.7,2.5c0,1.4,0.8,2.2,1.8,2.2c0.8,0,1.5-0.5,1.8-1.2c0,0.4,0.1,0.7,0.2,1h0.7
	C67.2,26.7,67.1,26.2,67.1,25.7L67.1,25.7z M66.4,25.2c-0.1,0.8-0.8,1.4-1.6,1.5c-0.8,0-1.3-0.6-1.3-1.7c-0.1-0.9,0.5-1.8,1.4-1.9
	c0.2,0,0.4,0,0.6,0h0.9V25.2L66.4,25.2z M60.6,16.2l-1.9,7c-0.1,0.4-0.2,0.8-0.3,1.3h-0.1c-0.1-0.4-0.1-0.9-0.2-1.3l-1.9-7h-0.9
	v10.9H56v-7.6c0-0.5,0-1.1-0.1-1.6H56c0.1,0.5,0.2,1,0.4,1.6l1.7,6h0.6l1.7-6.1c0.1-0.5,0.2-0.9,0.4-1.5h0.1c0,0.5-0.1,1.1-0.1,1.6
	v7.6h0.8V16.2H60.6L60.6,16.2z M52.4,26c-0.2,0.1-0.4,0.1-0.6,0.2c-0.2,0.1-0.5,0.1-0.7,0.1c-0.6,0-1.1-0.3-1.4-0.8
	c-0.3-0.7-0.5-1.4-0.4-2.2c0-0.4,0-0.8,0.1-1.2c0.1-0.3,0.2-0.7,0.3-1s0.2-0.5,0.4-0.7s0.4-0.3,0.6-0.3c0.2,0,0.4,0.1,0.6,0.2
	c0.2,0.1,0.4,0.2,0.5,0.4l0.7-1.1c-0.2-0.2-0.5-0.3-0.8-0.4s-0.6-0.1-0.9-0.1c-0.4,0-0.8,0.1-1.1,0.3c-0.4,0.2-0.7,0.5-0.9,0.9
	c-0.3,0.4-0.5,0.9-0.6,1.4c-0.1,0.6-0.2,1.2-0.2,1.8c-0.1,1,0.2,2,0.8,2.8c0.5,0.6,1.2,1,2,1c0.3,0,0.7,0,1-0.2
	c0.3-0.1,0.6-0.2,0.8-0.4L52.4,26z M45.3,22.9l2-3.5H46l-1.7,3.4L44.1,23v-3.6h-1.3v7.9h1.3v-4.1l0.2,0.2l2,3.9h1.4L45.3,22.9z
	 M28.2,19.4v3.1h-1.9v-3.1H25v7.9h1.3v-3.8h1.9v3.8h1.3v-7.9H28.2L28.2,19.4z M41.5,22.9c0.1-1-0.1-1.9-0.6-2.8s-1.6-1.2-2.5-0.7
	c-0.1,0-0.1,0.1-0.2,0.1c-0.3,0.3-0.6,0.6-0.8,1c-0.2,0.5-0.4,1-0.5,1.5c-0.1,0.6-0.2,1.1-0.2,1.7c-0.1,1,0.2,2,0.8,2.8
	c0.5,0.6,1.2,1,2,1c0.4,0,0.7,0,1.1-0.2c0.3-0.1,0.6-0.2,0.9-0.4L41.4,26c-0.2,0.1-0.4,0.1-0.6,0.2c-0.2,0.1-0.5,0.1-0.8,0.1
	c-0.6,0-1.1-0.2-1.4-0.7c-0.3-0.6-0.5-1.3-0.5-2h3.4L41.5,22.9L41.5,22.9z M40.2,22.6h-2.1c0-0.4,0.1-0.7,0.1-1s0.1-0.5,0.2-0.8
	c0.1-0.2,0.2-0.4,0.3-0.5s0.3-0.2,0.5-0.2c0.3,0,0.5,0.2,0.6,0.5c0.2,0.4,0.3,0.9,0.3,1.4v0.2c0,0.1,0,0.1,0,0.2v0.2H40.2z
	 M35.4,26.3v-6.9h-3.6v0.7c0,0.5,0,1,0,1.5s-0.1,1.1-0.1,1.6c-0.1,0.5-0.2,1.1-0.3,1.6c-0.1,0.5-0.3,1-0.6,1.5h-0.5v2.5h1.1v-1.5
	h3.5v1.5H36v-2.5L35.4,26.3L35.4,26.3z M34.1,26.3h-2.3c0.2-0.4,0.4-0.8,0.5-1.2c0.1-0.5,0.3-1,0.3-1.5c0.1-0.5,0.2-1,0.2-1.6
	c0-0.5,0.1-1,0.1-1.5v-0.2h1.2V26.3L34.1,26.3z M22.1,16.5h-0.8c-0.3,0-0.5,0.1-0.8,0.2c-0.2,0.1-0.5,0.3-0.6,0.5
	c-0.2,0.3-0.4,0.5-0.4,0.9c-0.1,0.4-0.2,0.8-0.2,1.3c0,0.4,0.1,0.8,0.2,1.2c0.1,0.3,0.3,0.6,0.5,0.8c0.2,0.2,0.4,0.4,0.7,0.5
	C21,22,21.2,22,21.5,22h0.7v-5.5H22.1L22.1,16.5z M18.9,27.3h-1.4l2.6-4.6c-0.7-0.3-1.2-0.8-1.6-1.4C18.2,20.7,18,20,18,19.2
	c0-0.6,0.1-1.1,0.3-1.6c0.2-0.4,0.4-0.8,0.7-1.2c0.3-0.3,0.7-0.6,1.1-0.7c0.4-0.2,0.9-0.2,1.3-0.2h2v11.8h-1.3v-4.4h-0.8L18.9,27.3z
	"/>
</svg>
