<?xml version="1.0" encoding="utf-8"?>
<!-- Generator: Adobe Illustrator 22.0.1, SVG Export Plug-In . SVG Version: 6.00 Build 0)  -->
<svg version="1.1" id="Слой_1" xmlns="http://www.w3.org/2000/svg" xmlns:xlink="http://www.w3.org/1999/xlink" x="0px" y="0px"
	 viewBox="0 0 140.1 28.6" style="enable-background:new 0 0 140.1 28.6;" xml:space="preserve">
<style type="text/css">
	.st0{fill:#FFFFFF;}
</style>
<path class="st0" d="M9.1,2.3H7.5c-0.5,0-1,0.1-1.4,0.3c-0.5,0.3-0.9,0.6-1.3,1c-0.4,0.5-0.7,1-0.9,1.8C3.8,6.1,3.6,7,3.6,8
	S3.7,9.8,4,10.5c0.2,0.7,0.6,1.2,0.9,1.7c0.4,0.4,0.8,0.7,1.3,0.9c0.6,0.1,1.1,0.2,1.6,0.2h1.3V2.3L9.1,2.3z M2.9,24.2H0.1l5-9.3
	c-1.5-0.7-2.5-1.6-3.1-2.8S1.1,9.5,1.1,7.9c0-1.2,0.2-2.3,0.5-3.3S2.4,2.8,3,2.2c0.6-0.7,1.3-1.1,2.1-1.5c0.8-0.3,1.6-0.5,2.5-0.5h4
	v24H9.1v-8.9H7.5L2.9,24.2z"/>
<path class="st0" d="M131.5,8.3v1.2h3.6v14.4h1.5V9.5h3.6V8.3H131.5z M126,8c-2.6,0-4.5,3-4.5,8.1s1.5,8.1,4.8,8.1
	c2.5,0,3.7-1.8,3.7-1.8l-0.5-1.2c0,0-1.1,1.7-3.2,1.7c-2.3,0-3.4-2.3-3.4-6.6h7.1C130.4,10.8,128.6,8,126,8z M128.5,15.2h-5.7
	c0.1-3.9,1.5-6,3.1-6S128.8,11,128.5,15.2z M114.8,15.5l5.1-7.2h-1.4l-5.2,7.3V8.3h-1.5v15.6h1.4v-8.1l5.4,8.1h1.6L114.8,15.5z
	 M104.9,8c-1.7,0-2.9,1.4-3.5,2.9l-0.1-2.6H100v20.4h1.5v-5.9c0.6,0.8,1.6,1.4,2.8,1.4c2.9,0,4.8-2.8,4.8-8.5
	C109.1,11.1,107.5,8,104.9,8z M104.3,23c-1.4,0-2.3-0.6-2.9-1.9v-8.7c0.7-1.7,1.8-3.2,3.2-3.2c1.8,0,2.9,2.4,2.9,6.5
	C107.6,20.7,106.3,23,104.3,23z M96.6,21v-8.5c0-3.1-1.5-4.5-4-4.5c-1.8,0-3.1,0.8-3.7,1.6l0.4,1.4c0.8-1.1,2-1.8,3.3-1.8
	c1.7,0,2.6,1,2.6,3.4v2h-1.7c-3.4,0-5.2,1.7-5.2,5.1c0,2.8,1.5,4.5,3.6,4.5c1.5,0,2.7-0.9,3.4-2.4c0.1,1.1,0.3,1.7,0.4,2.1H97
	C96.8,23.3,96.6,22.1,96.6,21z M95.2,19.9c-0.6,1.7-1.6,3.1-3,3.1c-1.5,0-2.4-1.3-2.4-3.5c0-2.7,1.2-3.9,3.8-3.9h1.7L95.2,19.9
	L95.2,19.9z M83.9,1.7l-3.8,14.1c-0.2,0.6-0.4,1.7-0.5,2.6h-0.1c-0.1-0.8-0.3-2-0.5-2.6L75.3,1.7h-1.8v22.1h1.4V8.4
	c0-1.1,0-2.2-0.1-3.3h0.1c0.2,1,0.4,2,0.7,3.2l3.3,12.2h1.2l3.3-12.3c0.2-0.9,0.5-1.8,0.7-3.1h0.1c-0.1,1.1-0.1,2.2-0.1,3.3v15.5
	h1.5V1.7H83.9z M67.9,21.7c-0.3,0.1-0.7,0.3-1.2,0.4s-0.9,0.2-1.4,0.2c-1.2,0-2.1-0.5-2.7-1.6c-0.6-1.1-0.9-2.6-0.9-4.4
	c0-0.8,0.1-1.6,0.2-2.4c0.1-0.8,0.3-1.5,0.5-2.1s0.5-1.1,0.9-1.5s0.8-0.5,1.2-0.5c0.4,0,0.7,0.1,1.1,0.3s0.7,0.5,1,0.8l1.3-2.1
	C67.5,8.5,67,8.2,66.4,8c-0.5-0.2-1.2-0.3-1.9-0.3c-0.8,0-1.5,0.2-2.1,0.7c-0.7,0.4-1.2,1-1.7,1.8s-0.9,1.7-1.1,2.8
	c-0.3,1.1-0.4,2.4-0.4,3.7c0,2.5,0.5,4.4,1.5,5.7c1,1.3,2.3,2,3.9,2c0.8,0,1.4-0.1,2-0.3c0.6-0.2,1.1-0.5,1.6-0.8L67.9,21.7z
	 M54.2,15.4l3.9-7.2h-2.6l-3.4,7l-0.3,0.3V8.2h-2.5v16h2.5V16l0.3,0.3l3.8,7.9h2.8L54.2,15.4z M21,8.2v6.3h-3.7V8.2h-2.5v16h2.5
	v-7.6H21v7.6h2.5v-16H21z M46.9,15.4c0-2.5-0.4-4.4-1.2-5.7s-1.8-1.9-3.1-1.9c-0.9,0-1.6,0.3-2.2,0.8c-0.6,0.5-1.1,1.2-1.5,2
	s-0.7,1.8-0.9,2.9s-0.3,2.2-0.3,3.4c0,2.4,0.5,4.3,1.5,5.7c1,1.3,2.3,2,3.9,2c0.8,0,1.5-0.1,2.1-0.3c0.6-0.2,1.2-0.5,1.7-0.8
	l-0.3-1.8c-0.3,0.1-0.7,0.3-1.2,0.4s-1,0.2-1.5,0.2c-1.3,0-2.2-0.5-2.8-1.5s-0.9-2.3-0.9-4.1h6.7V15.4z M44.3,14.7h-4.1
	c0-0.7,0.1-1.4,0.2-2c0.1-0.6,0.3-1.1,0.4-1.6c0.2-0.5,0.4-0.8,0.7-1c0.3-0.3,0.6-0.4,0.9-0.4c0.5,0,0.9,0.3,1.2,1s0.5,1.6,0.6,2.8
	c0,0.2,0,0.3,0,0.4c0,0.1,0,0.2,0,0.3L44.3,14.7L44.3,14.7z M34.9,22.2v-14H28v1.4c0,1,0,2,0,3.1s-0.1,2.2-0.3,3.3
	c-0.2,1.1-0.4,2.2-0.6,3.3c-0.4,0.9-0.8,1.9-1.3,2.9h-1v5.1H27v-3.1h6.8v3.1H36v-5.1H34.9z M32.4,22.2H28c0.4-0.7,0.8-1.5,1-2.4
	c0.3-0.9,0.5-1.9,0.6-3c0.2-1,0.3-2.1,0.3-3.2c0.1-1.1,0.1-2.1,0.1-3.1v-0.3h2.3L32.4,22.2L32.4,22.2z"/>
</svg>
