<?xml version="1.0" encoding="utf-8"?>
<!-- Generator: Adobe Illustrator 22.0.1, SVG Export Plug-In . SVG Version: 6.00 Build 0)  -->
<svg version="1.1" id="ymarket-icon" xmlns="http://www.w3.org/2000/svg" xmlns:xlink="http://www.w3.org/1999/xlink" x="0px"
	 y="0px" viewBox="0 0 161 32.3" style="enable-background:new 0 0 161 32.3;" xml:space="preserve">
<path style="fill:#333333;" d="M39.9,24.8V9h-8v1.5c0,1.1,0,2.3-0.1,3.5c0,1.2-0.1,2.5-0.3,3.7c-0.2,1.2-0.4,2.5-0.7,3.7
	c-0.3,1.2-0.8,2.3-1.3,3.4h-1.1v5.9H31v-3.6h7.9v3.6h2.5v-5.9H39.9z M37.1,24.8H32c0.5-0.9,0.9-1.8,1.2-2.7c0.3-1.1,0.6-2.2,0.8-3.4
	c0.2-1.2,0.3-2.4,0.4-3.6c0.1-1.2,0.1-2.4,0.1-3.5v-0.4h2.7L37.1,24.8L37.1,24.8z M53.8,17.2c0.1-2.2-0.3-4.5-1.4-6.5
	c-1.1-2-3.5-2.8-5.5-1.7c-0.2,0.1-0.4,0.2-0.6,0.4c-0.7,0.6-1.4,1.4-1.8,2.3c-0.5,1-0.8,2.1-1,3.3c-0.2,1.3-0.3,2.6-0.3,3.9
	c-0.1,2.3,0.4,4.5,1.7,6.5c1,1.5,2.7,2.3,4.4,2.3c0.8,0,1.7-0.1,2.4-0.4c0.7-0.2,1.3-0.5,2-0.9l-0.3-2c-0.4,0.2-0.9,0.3-1.4,0.4
	c-0.6,0.1-1.1,0.2-1.7,0.2c-1.3,0.1-2.5-0.6-3.2-1.7c-0.8-1.4-1.1-3-1-4.6h7.7L53.8,17.2L53.8,17.2z M50.8,16.4h-4.7
	c0.1-0.8,0.1-1.5,0.3-2.2c0.1-0.6,0.3-1.2,0.5-1.8c0.2-0.4,0.4-0.9,0.8-1.2c0.3-0.3,0.7-0.4,1.1-0.4c0.7,0.1,1.2,0.5,1.4,1.1
	c0.4,1,0.6,2.1,0.7,3.2c0,0.2,0,0.3,0,0.5s0,0.3,0,0.4L50.8,16.4L50.8,16.4z M24,9v7.2h-4.2V9h-2.8v18.2h2.8v-8.7H24v8.7h2.8V9H24z
	 M62.2,17.2L66.7,9h-3l-3.9,7.9l-0.3,0.4V9h-2.8v18.2h2.8v-9.3l0.3,0.4l4.4,9h3.2L62.2,17.2z M78,24.3c-0.4,0.2-0.9,0.3-1.3,0.4
	C76.1,24.9,75.6,25,75,25c-1.3,0-2.5-0.7-3.1-1.8c-0.7-1.6-1.1-3.3-1-5c0-0.9,0.1-1.8,0.2-2.7c0.1-0.8,0.3-1.6,0.6-2.3
	c0.2-0.6,0.6-1.2,1-1.7c0.3-0.4,0.8-0.6,1.3-0.6c0.5,0,0.9,0.1,1.3,0.4c0.4,0.3,0.8,0.6,1.1,1L78,9.7c-0.5-0.4-1.1-0.7-1.7-0.9
	c-0.7-0.2-1.4-0.3-2.1-0.3c-0.9,0-1.7,0.3-2.5,0.7c-0.8,0.5-1.5,1.3-2,2.1c-0.6,1-1,2.1-1.3,3.2C68.1,16,68,17.4,68,18.8
	c-0.1,2.3,0.4,4.6,1.7,6.5c1,1.4,2.7,2.3,4.4,2.3c0.8,0,1.6-0.1,2.3-0.4c0.6-0.2,1.3-0.5,1.8-0.9L78,24.3z M96.3,1.6L92,17.7
	c-0.2,0.6-0.5,2-0.6,2.9h-0.1c-0.1-1-0.3-2-0.5-2.9L86.4,1.6h-2.1v25.1h1.6V9.2c0-1.3,0-2.5-0.1-3.7h0.1c0.2,1.2,0.5,2.3,0.8,3.6
	l3.8,13.9h1.4l3.8-14c0.3-1,0.5-2.1,0.8-3.5h0.1c-0.1,1.3-0.1,2.5-0.1,3.7v17.6h1.7V1.6L96.3,1.6L96.3,1.6z M110.9,23.5v-9.7
	c0-3.5-1.7-5.1-4.6-5.1c-1.6-0.1-3.2,0.6-4.2,1.8l0.5,1.6c0.8-1.2,2.3-2,3.8-1.9c1.9,0,3,1.2,3,3.9v2.2h-1.9c-3.9,0-6,2-6,5.8
	c0,3.2,1.7,5.1,4.1,5.1c1.7,0,3.3-1.1,3.9-2.7c0.1,0.8,0.2,1.6,0.4,2.4h1.5C111.1,25.7,110.9,24.6,110.9,23.5L110.9,23.5z
	 M109.3,22.3c-0.6,1.9-1.8,3.5-3.5,3.5c-1.7,0-2.8-1.4-2.8-3.9c0-3.1,1.4-4.4,4.4-4.4h1.9V22.3z M120.5,8.7c-2,0-3.3,1.6-4.1,3.3
	l-0.2-2.9h-1.5v23.2h1.7v-6.7c0.8,1,2,1.6,3.2,1.5c3.3,0,5.6-3.2,5.6-9.7C125.2,12.3,123.5,8.7,120.5,8.7z M119.8,25.8
	c-1.4,0.1-2.8-0.8-3.3-2.1v-9.9c0.8-1.9,2.1-3.6,3.7-3.6c2.1,0,3.3,2.8,3.3,7.4C123.5,23.1,122,25.8,119.8,25.8L119.8,25.8z
	 M131.8,17.3l5.9-8.2h-1.6l-6,8.3V9.1h-1.7v17.7h1.7v-9.2l6.2,9.2h1.8L131.8,17.3z M144.6,8.7c-3,0-5.2,3.4-5.2,9.2s1.7,9.2,5.5,9.2
	c1.6,0,3.2-0.7,4.2-2l-0.5-1.3c-0.8,1.2-2.2,1.9-3.6,1.9c-2.6,0-3.9-2.6-3.9-7.5h8.1C149.7,11.9,147.7,8.7,144.6,8.7L144.6,8.7z
	 M147.6,16.9h-6.5c0.1-4.4,1.7-6.8,3.6-6.8C146.5,10.1,147.9,12.2,147.6,16.9L147.6,16.9z M151,9.1v1.4h4.2v16.4h1.7V10.4h4.1V9.1
	L151,9.1L151,9.1z"/>
<path id="Ya" style="fill:#FF0000;" d="M10.4,2.3H8.5c-0.6,0-1.1,0.1-1.7,0.4C6.3,2.9,5.8,3.3,5.4,3.8c-0.4,0.6-0.8,1.3-1,2
	C4.2,6.7,4,7.7,4.1,8.7c0,0.9,0.1,1.9,0.4,2.8c0.2,0.7,0.6,1.3,1.1,1.9c0.4,0.5,0.9,0.8,1.5,1.1c0.6,0.2,1.2,0.3,1.8,0.3h1.5V2.3
	L10.4,2.3L10.4,2.3z M3.2,27.2H0l5.8-10.5C4.3,16,3,14.9,2.2,13.4C1.4,12,1,10.3,1.1,8.7C1,7.4,1.3,6.2,1.7,5C2,3.9,2.6,3,3.3,2.2
	C4,1.5,4.8,0.9,5.7,0.5C6.6,0.2,7.6,0,8.6,0h4.6v27.2h-2.8V17.1H8.5L3.2,27.2z"/>
</svg>
