<svg width="373" height="77" viewBox="0 0 373 77" fill="none" xmlns="http://www.w3.org/2000/svg"><mask id="svgo-slogan-clip-1a" maskUnits="userSpaceOnUse" x="14" y="22" width="41" height="39"><path d="M15.5 58.5c2.167-.833 7.4-2.7 11-3.5 3.6-.8 7.833-.333 9.5 0 1 .167 2.5 1.5 3 2.5M26 27c.333.167 3.3.7 8.5-.5s9.167-1.833 10.5-2c1.833-.5 7.3.3 8.5 1.5" stroke="#000" stroke-width="4"/><path d="M43.5 24.5l-6.5 9L29 47l-2.5 4.5L26 54" stroke="#000" stroke-width="5"/></mask><g mask="url(#svgo-slogan-clip-1a)"><path d="M16.63 59.21a.78.78 0 01-.31-.05 2 2 0 01-1.11-1.56c0-.57.79-.69 1.25-.86a14.6 14.6 0 012.14-.86c.55-.11 1-.35 1.54-.46.82-.16 1.6-.48 2.4-.72.33-.1.68-.16 1-.23a5.08 5.08 0 001-.29c.18-.09.24-.17.24-.25 0-.08-.22-.29-.26-.39a.69.69 0 010-.2 5.37 5.37 0 01.1-.55v-.51a2.23 2.23 0 00-.08-.65c-.05-.15-.17-.29-.17-.45a.249.249 0 010-.12c.05-.12.45-.37.55-.49l.73-.89c.407-.583.765-1.198 1.07-1.84.4-.71.8-1.44 1.2-2.16.67-1.23 1.32-2.45 2-3.66.68-1.21 1.5-2.52 2.25-3.78l2.16-3.67c.34-.56.67-1 1-1.58.14-.26.242-.54.3-.83a4.65 4.65 0 01.62-1c.275-.363.526-.744.75-1.14v-.32a.33.33 0 01.15-.27 1.88 1.88 0 00.36-.21c.103-.133.19-.277.26-.43.17-.28.33-.58.51-.86a1 1 0 00.2-.53c0-.34-.37-.4-.66-.4a36.065 36.065 0 00-5.47 1.09 16.7 16.7 0 01-4 .58c-.48 0-.88-.05-1.06-.58a2 2 0 01-.17-.65.391.391 0 010-.18c.05-.14.21 0 .21-.2s-.35-.59-.35-.87c0-.1 0-.21.16-.21s.14.07.27.12a1.9 1.9 0 00.68.13 12.01 12.01 0 001.69-.23c3.11-.43 6.14-1.4 9.27-1.81 1.71-.23 3.4-.59 5.12-.79.77-.09 1.54-.15 2.31-.21s1.52-.08 2.28-.19c.58-.05 1.17-.16 1.75-.16a1.41 1.41 0 011.19.36c.15.13.71.53.72.74.01.21-.4.37-.4.52 0 .15.08.14.3.27a.92.92 0 01.42.35.53.53 0 01.13.35c-.018.15-.051.297-.1.44-.14.54-.36 1-1 1s-.62-.53-1.12-.69A5.437 5.437 0 0049 26c-.951.037-1.9.127-2.84.27-.32 0-.63.09-.95.09h-.63a.86.86 0 00-.39.09.281.281 0 00-.14.2v.23c0 .35-.13.36-.41.65-.44.46-.56 1.2-1 1.69A16 16 0 0041.2 31c-.67 1-.91 1.08-1.61 2.08-.83 1.19-1.65 2.37-2.41 3.58-.61 1-1.27 1.91-1.9 2.87-.14.22-.19.47-.33.69a7.61 7.61 0 00-.49.67c-.35.65-.76 1.25-1.12 1.9-.67 1.23-1.44 2.43-2.16 3.64l-1.07 1.79c-.47.77-.93 1.55-1.36 2.34a18.791 18.791 0 00-.81 1.83 2.998 2.998 0 00-.32.84c0 .18.06.29.26.29s.27 0 .45-.06a52.292 52.292 0 015.31-.28c.669 0 1.336.04 2 .12.392.027.781.094 1.16.2.318.147.606.35.85.6.23.21.31.33.31.41 0 .08-.58.11-.58.49s.32.31.5.38c.45.17.53.31.6.86 0 .2.05.39.05.58a.92.92 0 01-.58.94.63.63 0 01-.22 0c-.42 0-.52-.8-1-1a6.71 6.71 0 00-2.35-.4c-1 0-1.7.12-2.66.12-.61 0-1.22-.1-1.83-.1a16.125 16.125 0 00-2.4.16c-1.65.26-3.3.67-4.95 1-.77.15-1.52.32-2.26.52-.74.2-1.49.45-2.23.73-.455.2-.937.33-1.43.39l.01.03zm10.82-4a.85.85 0 00.32-.13c.276-.169.588-.268.91-.29.44 0 .87 0 1.3-.1.274-.052.551-.086.83-.1.19 0 .32.14.58.14.26 0 .26-.19.42-.19.16 0 .21.13.36.14a1.05 1.05 0 00.35-.08 4.65 4.65 0 011-.23c.25 0 .71.16 1 .17.08 0 .75 0 .75-.12s-.69-.23-.77-.25a1.676 1.676 0 00-.4-.05h-.67a3.482 3.482 0 00-.55 0c-.74 0-1.45.16-2.2.16H30a3.1 3.1 0 00-1.06.17 2.602 2.602 0 01-.66.14l-.64.07c-.27 0-.56.07-.56.22a.46.46 0 00.4.4l-.03-.07zm.5-4.59a2.94 2.94 0 001-1.55c0-.12 0-.16-.07-.16s-.38.39-.44.5a5.589 5.589 0 00-.55 1.15.059.059 0 00.018.042.06.06 0 00.042.018zm2.15-3.14c.142-.191.266-.395.37-.61a7.32 7.32 0 01.27-.83c.14-.26.36-.35.54-.56.18-.21.19-.41.3-.66.25-.52.75-.89 1-1.41.46-.91.93-1.8 1.45-2.7a21.701 21.701 0 011.9-3.09c.35-.43.5-.92.82-1.37.2-.27 1-1.09 1-1.51 0-.42-.51.44-.6.57-.37.55-.71 1.12-1.11 1.65a30.634 30.634 0 00-1.88 2.77c-.09.16-.21.31-.3.46a2.3 2.3 0 00-.15.49c-.24.55-.77 1-1 1.54a17.487 17.487 0 01-.9 1.56c-.31.47-.62.94-.91 1.41-.124.25-.235.507-.33.77-.189.327-.4.64-.63.94-.242.446-.43.92-.56 1.41 0 .09 0 .14.06.14.18.04.56-.74.66-.93v-.04zm.45-3a3.77 3.77 0 00.62-1.11c.129-.297.3-.573.51-.82a4.58 4.58 0 00.69-1.12c0-.14 0-.18-.06-.18a.91.91 0 00-.42.25c-.19.22-.39.84-.54.84-.15 0-.08-.23-.18-.24-.1-.01-.12 0-.26.15-.185.221-.318.48-.39.76 0 .06 0 .09.08.09s.2.12.2.26a1 1 0 01-.09.37c-.09.19-.22.26-.38.48a4.107 4.107 0 00-.48.86v.09s.63-.53.7-.61v-.07zm2-4.8c.07 0 .92-.63.92-1 0-.12-.05-.21-.13-.21a.22.22 0 00-.16.1c-.05.06-.15.3-.29.51-.14.21-.38.46-.39.57-.01.11 0 .07 0 .07l.05-.04zm.07 1.32c.07 0 .46-.29.46-.45a.08.08 0 00-.09-.09.77.77 0 00-.48.45s0 .09.11.09zm1.15-3.09c.09 0 .26-.21.3-.24.23-.26.38-.6.59-.88.287-.364.526-.764.71-1.19v-.06s-.68.79-.77.93c-.09.14-.21.47-.35.69a4.582 4.582 0 00-.49.69s0 .06.06.06h-.05zM34 26.27c.275-.025.546-.078.81-.16.123-.036.252-.052.38-.05h.36c.116.01.233.01.35 0a8.157 8.157 0 011.8-.32c.12 0 .35.05.66.05h.1a3.79 3.79 0 00.67-.1c.26-.07 1.05-.4 1.05-.69 0-.29-.1-.2-.26-.21h-.23c-.46.07-.91.21-1.37.29-.817.132-1.626.316-2.42.55-.23.07-2.12.32-2.12.53 0 .21.09.11.22.11zm11.8-1.47c.45-.07.89-.1 1.32-.13.412-.023.823-.07 1.23-.14.25-.06.9-.06.9-.46s-.36-.16-.53-.31c-.17-.15-.15-.33-.43-.33h-.15c-.36 0-.7.1-1.06.1-.75 0-2 .16-2.87.24-.46 0-.92.11-1.38.18-.17 0-1.06 0-1.06.24s.3.16.65.16c.35 0 .92-.05 1-.05a2 2 0 00.58-.09c.177-.042.358-.065.54-.07.15 0 .22.09.4.26.18.17.36.12.36.24s-.05.15-.05.19c0 .04 0 0 .06 0s.44-.03.49-.03z" fill="#D50057"/></g><mask id="svgo-slogan-clip-2b" maskUnits="userSpaceOnUse" x="43" y="23" width="22" height="35"><path d="M49 44c1 .5 1.667-.667 2-1l5-6 3-4 2.5-4.5.5-1c.167-.5.4-1.6 0-2-.4-.4-1.167-.5-1.5-.5l-2 2-3.5 4-4 5-3 5.5-2 5-.5 2.5v3c0 .333.1 1.2.5 2s1.5 1.333 2 1.5c.833 0 2.7-.1 3.5-.5 1-.5 2-.5 4.5-2.5 2-1.6 2.833-3 3-3.5" stroke="#000" stroke-width="4"/></mask><g mask="url(#svgo-slogan-clip-2b)"><path d="M47.53 48.33c-.1.39-.24.76-.37 1.13a4.32 4.32 0 00-.27 1.34v.8c0 .27-.15 1-.15 1.28a.767.767 0 000 .15.87.87 0 00.52.63c.18.07.27.08.32.14.05.06.06.17.29.27.466.025.934.025 1.4 0a11.83 11.83 0 002.83-.87c.83-.46 1.82-.94 2.59-1.48.77-.54 1.31-1 1.95-1.49.33-.27.66-.53 1-.81.14-.13.42-.38.61-.38s.21.1.21.38-.34.56-.58.75c-.24.19-.76.61-1.16.89l-1.09.79a5.33 5.33 0 00-1.12.87 1.62 1.62 0 00-.19.49.1.1 0 00.052.099.1.1 0 00.038.011 2.56 2.56 0 00.76-.34c.13-.06.27-.22.41-.22.14 0 .1.09.25.09s.21-.24.27-.35a1.27 1.27 0 01.43-.4.75.75 0 01.39-.07.37.37 0 00.32-.14c.07-.1 0-.21.06-.29.06-.08.08-.17.42-.17a.17.17 0 00.1 0c.11-.08.07-.2.12-.31.254-.32.528-.624.82-.91.08-.11.19-.49.31-.49s.11.14.11.2c0 .27-.35.66-.43.84-.08.18-.14.56-.27.83a3.88 3.88 0 01-.7.86c-.24.25-.44.52-.66.78-.261.268-.557.5-.88.69a6.96 6.96 0 01-.86.67c-.391.163-.77.357-1.13.58a13.226 13.226 0 01-2.35 1.51 5.758 5.758 0 01-2.46.38 4.08 4.08 0 01-2.07-.39c-.69-.38-1.35-2.12-2-2.61a2.54 2.54 0 01-.59-.94c-.153-.23-.32-.45-.5-.66a7.681 7.681 0 01-.41-2.59c0-2.08.6-2.87 1.2-4.84.31-1 .68-2 1.07-3s.87-1.65 1.29-2.5c.23-.45.45-.91.67-1.37a5 5 0 01.74-1.32.21.21 0 01.16-.07c.07 0 .28 0 .28-.17s-.09-.09-.09-.2a2 2 0 01.58-1c.12-.13.27-.25.39-.39s.13-.32.23-.57c.1-.25.42-.35.59-.64a4.49 4.49 0 01.45-.75c.14-.16.53-.28.53-.44 0-.16-.16-.15-.16-.24s.3-.15.45-.21a.43.43 0 00.26-.45c0-.1 0-.17.21-.17a.18.18 0 00.11-.17v-.17c0-.06.09-.13.19-.17a.61.61 0 00.27-.15c.11-.13.25-.28.25-.34s-.06-.12-.06-.19 0-.07.12-.09a.699.699 0 00.23-.08c.14-.08 1-.81 1-1.16 0-.07 0-.07-.05-.07s-.25.18-.36.18c-.11 0-.07 0-.07-.07s.31-.46.48-.51a.612.612 0 01.22 0 .3.3 0 00.2-.08c.199-.149.38-.32.54-.51.18-.19.58-.54.65-.8 0-.05-.09-.14-.08-.19.02-.08.05-.157.09-.23a3.18 3.18 0 01.42-.5 12.004 12.004 0 011.7-1.73 2.66 2.66 0 011.7-.72h.25c.65.11 1.28.13 1.67.73a3.59 3.59 0 01.8 2.09c0 1.76-1.24 3.41-2.07 4.93a40.363 40.363 0 01-3.94 5.81c-.79 1-1.63 1.95-2.49 2.89-.59.63-1.15 1.29-1.73 1.93A24.577 24.577 0 0151 44.13c-.253.24-.54.442-.85.6-.14.05-.284.09-.43.12a1.217 1.217 0 01-.29.06.62.62 0 01-.23-.08.91.91 0 00-.37-.16c-.09 0-.17.07-.26.27-.177.4-.33.812-.46 1.23-.219.71-.399 1.43-.54 2.16h-.04zm-1-3.59c.131-.426.288-.843.47-1.25.15-.32.41-.64.54-1a4.35 4.35 0 01.14-.49c.116-.231.22-.468.31-.71a29.413 29.413 0 012.52-4.47c.93-1.45 1.88-2.83 2.93-4.21 1.05-1.38 2.13-2.72 3.25-4.06.07-.09.46-.46.46-.65s0-.09-.1-.1c-.1-.01-.23.23-.32.26s-.08-.09-.23-.09c-.15 0-.55.39-.65.68-.032.174-.09.342-.17.5-.13.21-.31.3-.46.47-.28.33-.48.72-.76 1.05-.28.33-.72.81-1 1.24a25.485 25.485 0 00-1.46 2.2c-.18.32-.46.48-.64.82-.18.34-.52.89-.81 1.33A20.5 20.5 0 0049 38.81c-.41.83-.89 1.59-1.26 2.43-.46 1-1 2-1.36 3.11A34.525 34.525 0 0044.5 51v.06a.37.37 0 00.07.2c.23-.2.23-.79.29-1.07.12-.53.27-1.06.41-1.59.212-.984.5-1.95.86-2.89.153-.306.29-.62.41-.94l-.01-.03zM57.3 30.78c-.26.57-.93 1-1.3 1.53s-.63.84-1 1.25L53.87 35a1.71 1.71 0 00-.31.54v.22c0 .29-.36.58-.53.81-.42.53-.76 1.1-1.15 1.65-.458.709-.87 1.447-1.23 2.21-.19.36-.5.78-.75 1.17a2 2 0 00-.35.91c0 .11 0 .15.09.15.26 0 1-.92 1-1 .48-.53 1-1 1.44-1.59.44-.59.82-.95 1.24-1.42.42-.47 1-1.17 1.53-1.78.53-.61.85-1 1.25-1.55s.77-1 1.15-1.55c.38-.55.81-1.17 1.2-1.77.28-.43.55-.87.82-1.32.35-.6.71-1.19 1-1.82 0-.11.31-.52.51-.93a2.17 2.17 0 00.28-.74c0-.15-.06-.2-.16-.2-.35 0-1.22.94-1.35 1.07-.49.51-1 1-1.46 1.54a4.382 4.382 0 00-.79 1.18z" fill="#D50057"/></g><mask id="svgo-slogan-clip-3c" maskUnits="userSpaceOnUse" x="65" y="21" width="35" height="48"><path d="M84 39.5c2-.5 4-.833 4-1l3-2.5 4.5-5c.833-1.333 2.2-4.4 1-6-1.2-1.6-2.5-1.333-3-1l-3 1-5 3.5-6 5L74 40l-3.5 5.5L68 51c-.167 1-.1 3.3 1.5 4.5 1.6 1.2 3.333 1.167 4 1l3-1L82 52l8-6.5L77.5 67" stroke="#000" stroke-width="5"/></mask><g mask="url(#svgo-slogan-clip-3c)"><path d="M79.86 67a.61.61 0 01-.33-.13 4.002 4.002 0 01-.86-.88c-.08-.1-.14-.26-.23-.36-.09-.1-.23-.15-.28-.23a1.58 1.58 0 01-.15-.69 4.301 4.301 0 00-.16-.87 2.58 2.58 0 01-.31-.91 4.73 4.73 0 01.61-1.6 24.63 24.63 0 012.12-3.74c.7-1 1.2-2.12 1.84-3.17.24-.41.6-.75.85-1.16.11-.16.48-.57.48-.71a.78.78 0 00-.26.09c-.577.356-1.131.747-1.66 1.17-.66.42-1.26.91-1.91 1.34-.25.16-.53.3-.79.46-.26.16-.3.35-.51.54a7.829 7.829 0 01-2 1c-.608.233-1.233.417-1.87.55a4.228 4.228 0 01-1 .32c-.28 0-.49-.13-.86-.13h-.62a1.35 1.35 0 01-.83-.26 14.651 14.651 0 01-1.58-1.13c-.53-.448-1.02-.943-1.46-1.48a4.881 4.881 0 01-.51-1.69 3.336 3.336 0 01-.09-.75c.01-.441.08-.878.21-1.3.15-.54.35-1.08.48-1.66.053-.269.137-.53.25-.78.2-.309.352-.646.45-1 0-.18 0-.24-.09-.24s-.47.56-.55.7a4.54 4.54 0 00-.53 1.38c-.07.36-.12 1.53-.53 1.53-.12 0-.17-.1-.17-.26.01-.238.036-.476.08-.71.09-.67.21-1.32.36-2a8.002 8.002 0 01.7-1.69 17.88 17.88 0 01.85-1.84c.67-1.09 1.29-2.2 2-3.28.305-.51.66-.99 1.06-1.43.33-.33.54-.7.86-1 .13-.13.22-.19.29-.18.07.01.18.2.3.45.05.094.088.195.11.3 0 .1-.08.17-.23.36a8.695 8.695 0 00-.66.84c-.13.22-.15.46-.38.6a1.47 1.47 0 00-.52.46 1.16 1.16 0 00-.19.5c-.05.372-.21.72-.46 1-.12.19-.24.29-.31.41s-.09.24-.26.34c-.17.1-.7.13-.7.34v.26c0 .11-.14.15-.29.31a1.76 1.76 0 00-.24.33 2.18 2.18 0 00-.19.37 1.15 1.15 0 00-.06.29.66.66 0 01-.11.37c-.13.18-.23.22-.23.32s.18.09.18.21v.19a.19.19 0 00.13.16c.22 0 .42-.68.53-.9.3-.59.64-1.16 1-1.74A27.004 27.004 0 0173 41c.44-.57.87-1.17 1.31-1.74.44-.57.72-.91 1.11-1.34.82-.92 1.74-1.82 2.58-2.82.84-1 2-1.88 2.88-2.87a26.217 26.217 0 012.67-2.48c1.28-1 2.65-2 4-2.87.28-.19.57-.37.86-.55.29-.18.39-.36.6-.49a5.5 5.5 0 00.48-.28c.06 0 .08-.14.16-.2s.37-.05.52-.12c.15-.07.83-.45.83-.62 0-.17 0-.07-.18-.07-.66.17-1.29.44-1.87.8-.59.304-1.164.638-1.72 1-.55.33-1.09.69-1.63 1-.54.31-1.22.63-1.8 1-.56.409-1.08.87-1.55 1.38-1.32 1.25-2.59 2.54-3.86 3.82l-1.13 1.15c-.18.19-.35.34-.52.49a4.04 4.04 0 00-.52.61c-.17.25-.43.45-.59.7-.086.161-.19.312-.31.45-.18.17-.47.38-.71.62-.17.152-.29.35-.35.57 0 .15.12.21.12.29 0 .08-.09.22-.33.22-.24 0-.19-.12-.25-.14h-.27a.2.2 0 01-.17-.17c0-.09.08-.15.14-.24.35-.48.76-1 1.15-1.44a4.33 4.33 0 01.95-1c.1-.07.5-.18.5-.31s-.1-.05-.1-.13a.84.84 0 01.23-.42c.53-.62 1.09-1.24 1.66-1.85.42-.44.85-.87 1.28-1.3.364-.406.751-.79 1.16-1.15.5-.39.89-.87 1.38-1.26.83-.67 1.66-1.35 2.5-2a32.2 32.2 0 013.49-2.45c.27-.16.56-.24.81-.42.23-.17.474-.322.73-.45a13.989 13.989 0 001.63-.74 3.38 3.38 0 011.43-.58c.32.088.622.233.89.43a1.7 1.7 0 00.84.36c.24 0 .46-.09.69-.09.357.054.698.183 1 .38.52.34.88.85 1.39 1.2a2.39 2.39 0 01.95 2.12c-.003.446-.064.89-.18 1.32a15 15 0 01-1.51 3.36c-.28.51-.74.94-1.07 1.43-.395.582-.83 1.137-1.3 1.66-.84.946-1.73 1.844-2.67 2.69-.46.42-1 .74-1.52 1.12-.23.18-.44.37-.68.53-.24.16-.73.33-.82.49a.24.24 0 000 .13c0 .08.07.13.07.23s-.14.19-.23.19a2.718 2.718 0 01-.44-.1 4.78 4.78 0 01-.74.19 2.73 2.73 0 01-.89-.19 3.14 3.14 0 01-1.46-1c-.16-.24-.24-.51-.4-.74-.16-.23-.28-.28-.28-.43 0-.15.11-.13.18-.13.07 0 .16.1.27.1a.8.8 0 00.34-.05 2.34 2.34 0 00.68-.36c.485-.307.952-.641 1.4-1 .44-.42 1-.73 1.42-1.18.402-.489.836-.95 1.3-1.38a22.612 22.612 0 002.91-3 20.613 20.613 0 002.28-3c.428-.66.723-1.397.87-2.17 0-.25-.1-.42-.38-.42-.125.004-.25.024-.37.06l-1.84.58c-.26.058-.51.145-.75.26-.27.18-.3.38-.62.54-.53.26-1.07.54-1.6.84-.59.323-1.162.68-1.71 1.07-.513.438-1.062.832-1.64 1.18a3.16 3.16 0 00-.66.44 5 5 0 00-.52.62c-.08.1-.19.12-.28.24-.09.12 0 .2-.08.27a.31.31 0 01-.23.14.612.612 0 00-.21 0 5.79 5.79 0 00-1.6 1.24c-.2.18-.33.26-.36.37-.03.11 0 .29-.12.39a.11.11 0 01-.07 0h-.13a.19.19 0 00-.1 0c-.23.235-.442.49-.63.76-.38.42-.81.85-1.22 1.25-.41.4-.84 1-1.33 1.52-.512.441-.98.93-1.4 1.46-.39.54-.69 1.11-1.11 1.63-.92 1.17-1.84 2.31-2.64 3.56-.36.55-.68 1.13-1.08 1.65s-.63 1-1 1.49-.63 1.11-1 1.66a4.48 4.48 0 00-.61 1.31 16.54 16.54 0 01-.42 1.81c-.209.474-.33.982-.36 1.5 0 .67.37 1 .95 1.23.339.191.713.31 1.1.35.272-.015.542-.045.81-.09a9.759 9.759 0 003.62-1.3 33.294 33.294 0 003.6-2c1.21-.83 2.37-1.73 3.58-2.57 1.21-.84 2.21-1.61 3.34-2.39A4.9 4.9 0 0088.06 45c.12-.22.23-.49.54-.49.12 0 .15.13.24.13s.19-.09.29-.09c.56 0 .69.41 1 .81.12.19.25.19.37.31s.11.28.16.6c.026.136.08.266.16.38 0 0 .19.13.19.2s-.14.2-.27.44c-.214.516-.46 1.017-.74 1.5-.78 1.1-1.43 2.33-2.15 3.47-.37.59-.66 1.24-1 1.84-.34.6-.65 1-.95 1.58-.67 1.23-1.41 2.41-2.17 3.58-.6.94-1.21 1.88-1.78 2.85-.25.43-.28.78-.51 1.24-.23.46-.43.73-.62 1.13a2.22 2.22 0 00-.25.92c0 .12.06.29.06.42s-.29.29-.31.49c-.02.2-.18.65-.43.65l-.03.04zm-.65-14c0-.06 0-.08-.1-.08-.25 0-.88.41-.88.6a.122.122 0 00.039.089.12.12 0 00.091.031c.17-.06.85-.45.85-.7V53zm1.44-.85c.2 0 .33.11.52.11s.2-.08.21-.19c.01-.11 0-.22 0-.31s.24-.3.42-.34c.18-.04.65-.08.65-.42a.34.34 0 01.06-.18c.314-.322.688-.58 1.1-.76.14-.08.33-.1.46-.19s.11-.4.42-.4h.33c.12 0 .18-.26.18-.47 0-.21.36-.37.49-.47.13-.1.69-.57.69-.84a.06.06 0 00-.07-.07 9.937 9.937 0 00-1.59 1.13c-.42.29-.85.55-1.27.82-.454.277-.888.584-1.3.92-.27.23-.54.45-.82.65-.28.2-.71.5-1.08.74-.12.08-.39.19-.39.33s.14.21.28.2c.14-.01.52-.32.71-.32v.06zm-.92 12.36c.2 0 .65-.9 1.2-1.94.453-.787.864-1.598 1.23-2.43 0-.11 0-.15-.07-.15a9.141 9.141 0 00-1.25 1.86c-.425.83-.805 1.68-1.14 2.55v.06l.03.05zM81 53a2.49 2.49 0 00.85-.45 2 2 0 01.7-.48 6.405 6.405 0 001.2-.73c.16-.12.81-.51.8-.75-.01-.24-.06-.16-.14-.15-.08.01-.54.29-.61.33l-1.13.81-1.17.76c-.09.05-.68.34-.68.54 0 0 .09.12.18.12z" fill="#D50057"/></g><mask id="svgo-slogan-clip-4d" maskUnits="userSpaceOnUse" x="91" y="38" width="28" height="20"><path d="M102 40.5l-4 5-4 7c-.333.667-.8 2.2 0 3 .8.8 2.667-.333 3.5-1l15-14.5-6.5 10.5c-.5.667-1.2 2.4 0 4s4.833-.333 6.5-1.5l5-3.5" stroke="#000" stroke-width="4"/></mask><g mask="url(#svgo-slogan-clip-4d)"><path d="M95.16 57.09a2.55 2.55 0 01-1.54-.66c-.31-.35-.45-.82-.74-1.16-.14-.16-.2-.15-.32-.42a3.12 3.12 0 01-.33-1.09 4.62 4.62 0 01.47-1.46c.04-.21.13-.41.26-.58.23-.24.38-.32.37-.48-.01-.16-.12-.12-.12-.19s.1-.15.15-.25c.05-.1.22-.43.34-.63.202-.404.429-.795.68-1.17.124-.168.221-.353.29-.55a1.92 1.92 0 01.24-.72c.26-.39.64-.6.85-1 .261-.389.473-.809.63-1.25.08-.37 0-.32.3-.51s.3-.12.34-.32a2.691 2.691 0 000-.49.819.819 0 01.08-.34c.155-.26.325-.51.51-.75.37-.54.73-1.08 1.12-1.6a7.7 7.7 0 01.79-1.06 2.31 2.31 0 011.26-.37h.24a3.07 3.07 0 011.19.73c.161.313.266.651.31 1a2.571 2.571 0 01-.48 1.52c-.35.51-.72 1-1.11 1.51-.39.51-.79 1-1.2 1.47-.41.47-.84.74-1.17 1.2a37.503 37.503 0 00-2.13 3.38c-.41.72-.79 1.45-1.17 2.2-.11.23-.38.55-.38.74 0 .19.07.16.27.16a2.64 2.64 0 001.07-.5 23.412 23.412 0 002.54-2.1c.76-.68 1.36-1.54 2.13-2.19a5.56 5.56 0 001.07-1.1c.429-.512.901-.987 1.41-1.42.69-.67 1.21-1.53 2-2.13a7.69 7.69 0 00.88-.93c.17-.2.32-.41.48-.61.048-.083.105-.16.17-.23.16-.14.29-.08.44-.18.15-.1.14-.32.26-.48.133-.147.277-.284.43-.41.429-.338.839-.699 1.23-1.08.44-.48 1.1-1.29 1.79-1.29a.89.89 0 01.52.17c.16.1.31.11.31.26 0 .15-.24.22-.24.38a.303.303 0 00.11.18.485.485 0 00.35.12h.25a.45.45 0 01.4.19c.2.249.322.552.35.87v.09c-.037.175-.06.352-.07.53a1.205 1.205 0 000 .19c.004.07.004.14 0 .21.003.213-.048.423-.15.61a16.213 16.213 0 01-2 2.82c-.34.47-.62 1.13-1 1.61-.38.48-.76.87-1.09 1.42-.33.55-.56.93-.81 1.41-.25.48-.6 1.16-.88 1.77a4.01 4.01 0 00-.44 1.28c0 .18.06.27.27.28.457-.042.903-.16 1.32-.35a24.593 24.593 0 003.42-1.94c.47-.28.94-.54 1.42-.8a6.14 6.14 0 00.68-.45c.14-.09.55-.48.82-.48.1 0 .14 0 .14.07s-.72.5-.72.62 0 0 .15 0 .32-.09.46-.09.15 0 .14.16c-.01.16-.64.36-.64.54 0 .18.14.14.24.14a5.075 5.075 0 001.54-.55c.36-.17 1.15-1 1.6-1 .07 0 .1 0 .1.11s-.35.6-.46.73c-.199.22-.367.465-.5.73-.09.21 0 .42-.28.55-.28.13-.22 0-.36.15-.14.15-.26.35-.43.49-.44.35-.78.73-1.18 1.11a15.13 15.13 0 01-1.6 1.09c-.44.29-.84.62-1.28.92-.501.299-1.022.563-1.56.79a4.32 4.32 0 01-1.87.52 2.48 2.48 0 01-1.24-.33 5.275 5.275 0 01-1.19-.8c-.161-.2-.308-.41-.44-.63a3.916 3.916 0 01-.58-.64 6.902 6.902 0 01-.41-1.58 4.851 4.851 0 01-.22-1.56c0-.16.12-.52.12-.78s0-.29-.2-.29-.45.35-.64.52l-.71.65-1.58 1.48c-.6.52-1.19 1-1.8 1.54-.83.71-1.68 1.41-2.53 2.1a2.71 2.71 0 01-1.51.66zm5.54-5.32c.31-.25.69-.31 1-.55.61-.49 1.14-1.09 1.75-1.59.35-.29.71-.58 1-.88.29-.3.52-.59.82-.84.265-.203.509-.43.73-.68a6.66 6.66 0 00.67-.82c.11-.15 1.25-1.4 1.26-1.72 0-.06 0-.08-.08-.08s-1.09 1-1.27 1.07a4.88 4.88 0 00-.51.41c-.21.21-.45.41-.67.61 0 0-.18 0-.22.06-.04.06 0 .15 0 .22-.14.218-.316.41-.52.57-.503.414-.98.858-1.43 1.33-.26.255-.537.492-.83.71a5.2 5.2 0 00-.61.53s-.33.47-.49.47a.09.09 0 01-.086-.063.092.092 0 01-.004-.037c0-.16.36-.45.44-.51a5.368 5.368 0 001.21-1.07c.139-.2.304-.382.49-.54 0 0 .41-.41.41-.57 0-.16-.06-.06-.1-.06-.27 0-.62.64-.81.82-.19.18-.69.45-1 .76-.31.31-.54.66-.87 1-.1.09-.31.26-.31.38s.11.17.11.27c0 .28-.6.74-.83 1-.09.1-.25.23-.25.32s0 .08.11.08c.32-.02.73-.47.89-.6zm11.27.84c.61-.35 1.19-.75 1.19-.89s0-.08-.1-.07a5.52 5.52 0 00-1.23.66c-.14.08-1.33.68-1.39.89 0 0 0 .08.15.08.497-.163.97-.388 1.41-.67h-.03z" fill="#D50057"/></g><mask id="svgo-slogan-clip-5e" maskUnits="userSpaceOnUse" x="112" y="38" width="19" height="21"><path d="M131 41h-2.5l-3.5.5-3.5 2c-1.167.5-3.4 1.9-3 3.5.4 1.6 1.833 2 2.5 2 1.167.667 3.3 2.3 2.5 3.5-.8 1.2-3 2.5-4 3-1.333.333-4.1.6-4.5-1-.4-1.6 1-3.833 1.5-4.5l.5-1" stroke="#000" stroke-width="5"/></mask><g mask="url(#svgo-slogan-clip-5e)"><path d="M117.06 57.47a.45.45 0 01-.18 0c-.1-.06-.09-.29-.24-.29s-.23.08-.38.08a2.062 2.062 0 01-1-.51 3.32 3.32 0 01-.64-.72 2.269 2.269 0 01-.41-1.1c0-.39-.09-.63-.09-.84a6.45 6.45 0 01.27-1.13c.098-.303.221-.598.37-.88.19-.41.41-.81.61-1.18.2-.37.34-.65.7-.65 0 0 .09 0 .1.2.01.2-.18.49-.18.71 0 .22.19.17.19.43.004.073.004.147 0 .22a7.48 7.48 0 00-.38 1.33.776.776 0 00.11.42c.16.27.27.19.53.27.26.08.37.2.74.2a4.719 4.719 0 001-.12c.248-.099.482-.226.7-.38.26-.13.55-.16.81-.31s.61-.42.91-.63c.45-.3 1.58-.93 1.58-1.44 0-.51-1-.58-1.39-.74-.39-.16-.59-.25-.87-.39s-.58-.19-.83-.32c-.64-.34-.85-1.24-1.08-1.84a5.667 5.667 0 01-.61-1.82c0-.37.34-.54.34-.95 0-.23-.24-.2-.24-.55 0-.35.75-1.21 1-1.46.512-.372 1.05-.706 1.61-1a20.446 20.446 0 013.94-2c.62-.22 1.14-.57 1.72-.83.298-.114.606-.197.92-.25.129-.023.256-.056.38-.1.16-.06.33-.25.5-.25.17 0 .26.21.44.35.229.097.472.158.72.18.314.068.622.162.92.28a2.325 2.325 0 011.17 1.46 3.395 3.395 0 01-.15.76 1.426 1.426 0 01-1.34 1 19.88 19.88 0 00-4.18.93c-.688.22-1.356.494-2 .82-.24.13-.41.33-.66.44-.25.11-.65.39-1 .59-.35.2-1.32.57-1.32 1 0 .21.57.48.75.61l1 .68a7.58 7.58 0 011.37 1.2 4.63 4.63 0 01.94 1.61c.25.72.8 1.2.8 2a3.873 3.873 0 01-.61 1.69 3.777 3.777 0 01-.75.86c-.25.204-.518.384-.8.54-.37.18-.77.3-1.15.44a4.453 4.453 0 00-1 .54 3.692 3.692 0 01-1.07.43 5.26 5.26 0 01-.87.14c-.32 0-.63.05-.94.11a6.718 6.718 0 01-.87.17l.09-.01zm2.76-1.55c.1 0 .87-.36.87-.51 0-.15-.09-.08-.16-.08a5.216 5.216 0 00-.55.25l-.79.24c-.06 0-.29.12-.54.2-.25.08-.75.19-.75.27 0 .08.41.13.54.13.481-.102.945-.27 1.38-.5zm-.25-12.08c.45-.3.91-.64 1-.72l1.19-.74c.12-.08.68-.34.68-.53s0-.08-.1-.07c-.359.081-.698.23-1 .44-.46.27-1 .6-1.3.8-.3.2-1.55 1-1.55 1.23 0 .23 0 .07.1.06a2.65 2.65 0 00.98-.47zm2.48 10.88c0-.06 0-.08-.12-.08-.27 0-1 .42-1 .58 0 .16 0 .1.14.1.3 0 .98-.41.98-.6zm1.21-13.28s0-.07-.1-.08c-.1-.01-.39.12-.39.22a.12.12 0 00.038.078c.023.02.052.032.082.032.11 0 .37-.13.37-.25zm.82-.21c.241-.037.472-.122.68-.25.25-.13.46-.27.46-.43 0-.16 0-.08-.14-.08-.34 0-1.2.39-1.2.64 0 .08.08.12.2.12z" fill="#D50057"/></g><mask id="svgo-slogan-clip-6f" maskUnits="userSpaceOnUse" x="129" y="20" width="23" height="39"><path d="M148.5 22l-10 14.5c-1.667 2.833-5.1 9-5.5 11-.5 2.5-1 4 0 6.5.8 2 2.667 2.167 3.5 2 .667-.167 2.6-.9 5-2.5s4.167-3.5 4.5-4" stroke="#000" stroke-width="5"/><path d="M131 33l20.5.5" stroke="#000" stroke-width="4"/></mask><g mask="url(#svgo-slogan-clip-6f)"><path d="M136.69 57a5.18 5.18 0 01-2.36-.51 4.248 4.248 0 01-1.92-1.94c-.37-.75-.86-1.44-1.21-2.19a4.613 4.613 0 01-.34-1.82 4.993 4.993 0 010-.67 14.833 14.833 0 011.31-4.71c.78-1.58 1.45-3.22 2.3-4.76.45-.81.88-1.62 1.33-2.42.45-.8.86-1.52 1.33-2.26.18-.28.92-1.18.92-1.57 0-.17-.21-.25-.62-.25a9.837 9.837 0 00-1.35.15 15.97 15.97 0 01-2 .17 2.637 2.637 0 01-2.31-.88 2 2 0 01-.29-.84c0-.25-.23-.45-.23-.69 0-.24.07-.31.16-.31a.364.364 0 01.23.17 1.213 1.213 0 001 .52c.23.016.46.016.69 0h5.5a1.77 1.77 0 00.48-.06c.39-.1.55-.48.78-.8.414-.543.795-1.11 1.14-1.7a6.53 6.53 0 00.31-.88c.14-.36.37-.69.54-1 .382-.748.813-1.47 1.29-2.16.2-.31.49-.65.76-1 .27-.318.483-.68.63-1.07a1.17 1.17 0 01.37-.71c.21-.23.3-.47.48-.69a1.065 1.065 0 01.92-.35h.6c.16 0 .28 0 .28.16a2.189 2.189 0 01-.07.33s0 .07.11.07.26-.11.4-.11a.242.242 0 01.15.06c.13.1.08.24.14.36a4.4 4.4 0 01.76 1.86 1.61 1.61 0 010 .38 2.883 2.883 0 01-.73 1 4.51 4.51 0 00-.7.95c-.52.81-1.18 1.56-1.73 2.36-.26.393-.53.773-.81 1.14-.21.375-.48.713-.8 1-.39.22-.49.21-.49.49s.23.34.65.34h2.35c.47 0 .76.07 1.17.08h1.73c.116.02.234.02.35 0 .16-.06.11-.22.25-.22.386.152.703.44.89.81.064.174.104.355.12.54.07.212.123.43.16.65 0 .22-.1.56-.31.56a2.76 2.76 0 01-.75-.22 1.787 1.787 0 00-.51-.07h-.67a1.792 1.792 0 01-.51-.07 1.21 1.21 0 00-.66-.13h-.7a2.892 2.892 0 00-.48 0h-.24c-.14 0-.32.06-.5.06h-.11a4.892 4.892 0 00-.55-.13c-.22 0-.34.07-.55.07h-.08A4.002 4.002 0 00144 34c-.25 0-.6.09-.9.09h-.09c-.27 0-.57-.14-.85-.14s-.43.12-.59.5a2.63 2.63 0 01-.48.71c-.179.19-.343.394-.49.61l-.33.49a3.33 3.33 0 01-.58.7c-.17.15-.21.11-.27.18a.782.782 0 00-.13.24 2.993 2.993 0 01-.17.36c-.072.14-.153.278-.24.41-.09.14-.27.34-.27.51 0 .17.26.08.25.2-.01.12-.06.13-.11.13s-.11-.13-.19-.13-.31.23-.31.41v.51c0 .07-.06.15-.32.25s-.42.18-.52.4c-.1.22-.09.5-.19.66-.1.16-.38.27-.38.41 0 .14.32.14.32.31a.588.588 0 01-.14.29c-.13.16-.73.33-.73.51s.14.19.14.32a3.47 3.47 0 01-.67 1.07 5.342 5.342 0 00-.67 1.13.777.777 0 00-.13.32c0 .16.43.15.43.46a5.12 5.12 0 01-.48 1.38.649.649 0 01-.37.31c-.14.07-.26.13-.26.31s.15.32.15.48c-.008.155-.031.31-.07.46-.34 1.37-.534 2.77-.58 4.18-.033.415.08.83.32 1.17.293.245.67.363 1.05.33h.4a11.421 11.421 0 003.74-1.59 27.985 27.985 0 003.37-2.22c.74-.626 1.522-1.2 2.34-1.72v.11c0 .2-.43.54-.85.86-.42.32-.77.59-.77.7 0 .11.33.11.33.26 0 .15-.23.4-.34.52a4.575 4.575 0 01-1.28 1 4.53 4.53 0 00-1.19.89.431.431 0 00-.1.19c0 .08 0 .11.1.11.156-.033.306-.094.44-.18.763-.521 1.59-.941 2.46-1.25a.06.06 0 01.029.002.054.054 0 01.024.015.06.06 0 01.015.024c.003.01.004.02.002.029 0 .29-1.3 1.34-1.47 1.48-.236.18-.445.391-.62.63a5.335 5.335 0 01-1.22 1 5.916 5.916 0 01-1 .59 2.48 2.48 0 00-.64.47 3.93 3.93 0 01-2.26.53l.03.02zm-4.5-8.64c.191-.492.348-.996.47-1.51.39-1.12.87-2.25 1.36-3.33.49-1.08.95-2 1.48-3a31.092 31.092 0 011.66-2.8c.71-1 1.23-2.2 2-3.2a.754.754 0 00.17-.39c0-.07 0-.11-.09-.11a.591.591 0 00-.25.1c-.16.1-.33.51-.44.68l-.6.9c-.5.75-1 1.51-1.45 2.29-.69 1.16-1.34 2.36-1.92 3.57-.38.79-.85 1.86-1.31 2.93-.46 1.07-.78 1.89-1 2.64a6.413 6.413 0 00-.41 1.39s0 .2.11.2.18-.26.22-.34v-.02zm1.1-1c.23-.63.46-1.25.72-1.86.55-1.28 1.12-2.54 1.79-3.76.67-1.22 1.41-2.54 2.15-3.8.33-.56.69-1.11 1-1.67a8.15 8.15 0 01.47-.81c.11-.15.35-.4.35-.51 0-.11 0-.08-.06-.08s-.7.81-.8.93c-.43.57-.77 1.24-1.15 1.86-.38.62-.73 1.23-1.07 1.85l-.89 1.61c-.29.53-.65 1.25-1 2s-.75 1.63-1.07 2.41a14.696 14.696 0 00-.94 2.58c0 .1 0 .13.05.13s.43-.8.45-.87v-.01zm5.46-14.11s-.13-.07-.51-.07-.52.05-.52.11.23.09.48.09c.25 0 .55-.04.55-.12v-.01zm1.19 1.35c.15 0 .4-.38.4-.53h-.05c-.12 0-.43.34-.43.49 0 .15 0 .09.08.09v-.05zm1.46-3.44c.17-.23.57-.59.57-.93v-.08c-.35.09-.7.86-.92 1.16-.11.15-.51.5-.51.73 0 .06 0 .14.09.14.31.01.6-.77.77-1.01v-.01zm7.33 2.41h.91c.1 0 .22 0 .22-.08s-1-.2-1.17-.21L146 33.2l-2.65-.07h-.21c-.2 0-.51 0-.51.14s0 .08.18.14a.622.622 0 00.23 0c.16 0 .32 0 .48-.05.16-.05.44.05.67.06.63 0 1.24-.05 1.86-.05.62 0 1.27.07 1.9.12.26 0 .53.06.79.06l-.01.02z" fill="#D50057"/></g><mask id="svgo-slogan-clip-7g" maskUnits="userSpaceOnUse" x="141" y="38" width="22" height="21"><path d="M151 40l-5 6.5c-1.5 1.833-3.7 5.7-2.5 8.5 1.5 3.5 6.5-2 7.5-3.5l5-7.5c.5-1 1.5-2.6-.5-3-2-.4-2.667-.167-3 .5L149 45c-.333.833-.5 2.8 1.5 4 2 1.2 8.167-2.5 11-4" stroke="#000" stroke-width="4"/></mask><g mask="url(#svgo-slogan-clip-7g)"><path d="M144.71 57a5.396 5.396 0 01-1.09-.84 6.244 6.244 0 01-.94-1.2 6.209 6.209 0 01-.61-2.51 3.701 3.701 0 01.09-1.33v-.66a4.1 4.1 0 01.26-.77c.18-.44.398-.866.65-1.27a.992.992 0 00.2-.46s-.05-.09-.05-.12.2-.19.29-.27c.328-.328.619-.69.87-1.08.12-.17.09-.31.16-.46.07-.15.1-.14.3-.28a3.31 3.31 0 00.69-.92c.22-.33.54-.45.77-.72.069-.106.145-.206.23-.3.113-.086.217-.183.31-.29.331-.356.685-.69 1.06-1 .39-.37.72-.79 1.13-1.15.41-.36.89-.76 1.34-1.12a2.58 2.58 0 01.66-.48 1.4 1.4 0 01.5 0h.19c.214-.073.417-.178.6-.31.194-.076.401-.113.61-.11a11.99 11.99 0 011.78-.29c.397-.002.787.101 1.13.3a3.717 3.717 0 011.62 2.6 7.702 7.702 0 01-.79 2.92 13.036 13.036 0 01-.74 1.56.803.803 0 00-.13.35c0 .11.07.15.2.15.132-.009.263-.032.39-.07a14.55 14.55 0 003.3-1.1c.184-.109.383-.19.59-.24.18 0 .55-.12.55-.19s-.15 0-.15-.15.24-.17.33-.17c.09 0 .12.19.22.19h.28s-.36.26-.43.29c-.48.24-1 .43-1.5.62-.13 0-1.07.26-1.07.43 0 .17.08.13.19.14.11.01.7-.19.87-.19h.06s-.33.21-.4.3c.054.045.12.072.19.08.23 0 .52-.22.76-.22.08 0 .15 0 .15.1s-.36.27-.49.32c-.39.16-.47.44-.79.67-.32.23-.87.41-.87.59s.09.11.09.2c0 .09-.32.22-.46.29-.44.22-.89.42-1.34.62-.419.211-.85.398-1.29.56a7.53 7.53 0 01-1.39.24 1.68 1.68 0 00-1.05.61c-.306.357-.587.734-.84 1.13-.289.418-.606.816-.95 1.19a8.475 8.475 0 00-.78 1c-.09.13-.25.29-.25.45v.2c0 .12-.35.39-.45.44-.1.05-.24 0-.32.07-.08.07-.09.28-.18.39a2.477 2.477 0 01-.45.35 9.71 9.71 0 01-1.23.75 4.351 4.351 0 01-1.73.36 2 2 0 01-.85-.19zm-1.56-3.93c.22-.61.27-1.28.48-1.9.171-.498.392-.977.66-1.43.35-.61.75-1.19 1.1-1.77a3.58 3.58 0 00.42-.86s-.14.06-.3.2a7.445 7.445 0 00-1.18 1.64 20.438 20.438 0 00-1.18 2 3.793 3.793 0 00-.46 1.6c0 .36.16.89.28.89.12 0 .11-.14.18-.34v-.03zm2.24 1.2a9.83 9.83 0 002.16-1.7c.38-.34.74-.7 1.09-1.07.35-.37.71-.78 1.06-1.17.18-.2.4-.35.4-.53 0-.18 0-.17-.18-.27-.33-.27-.81-.33-1.06-.7-.08-.12-.07-.27-.15-.37-.08-.1-.21-.11-.29-.18-.26-.21-.46-.93-.68-.93-.22 0-.34.33-.56.63l-.89 1.21a9.85 9.85 0 00-.64 1.08 6.224 6.224 0 00-.51.87c-.07.23-.18.25-.18.43v.31c-.075.443-.21.873-.4 1.28a4.78 4.78 0 00-.18.87.415.415 0 000 .21.369.369 0 00.36.2 1.62 1.62 0 00.65-.14v-.03zm7.18-7.63c.45-.62.88-1.25 1.27-1.9a9.067 9.067 0 00.88-1.83 3.15 3.15 0 00.23-.66c0-.09 0-.12-.11-.12-.21 0-.67.37-.78.46a22.215 22.215 0 00-3 2.9c-.17.19-.48.5-.72.82a1.394 1.394 0 00-.36.79c0 .33 1.1.58 1.49.58.39 0 .84-.68 1.1-1.01v-.03zm.9 1.11a1.056 1.056 0 00.61-.76c0-.09 0-.12-.08-.12s-.48.45-.53.88zm1.53-2.3c0-.08 0-.1-.06-.1s-.3.26-.33.3a1.727 1.727 0 00-.3.59c0 .01.002.02.006.03.004.008.01.017.018.023a.068.068 0 00.056.017c.16 0 .61-.68.61-.86zm1.3-3.09v-.08a2 2 0 00-.5 1c0 .07 0 .11.05.11s.44-.71.44-1.03h.01z" fill="#D50057"/></g><mask id="svgo-slogan-clip-8h" maskUnits="userSpaceOnUse" x="168" y="20" width="34" height="40"><path d="M188.5 25.5c-.5 2-3.5 8-10.5 19-6.791 10.672-7.5 13-8.5 14" stroke="#000" stroke-width="4"/><path d="M172.5 30.5c2.667-2.833 9.754-9.793 19.5-7.5 8.5 2 8.167 11 6.5 16-1.833 4.167-8 12.5-23 16.5-.8-.4-1.5-2.333-1.5-3" stroke="#000" stroke-width="5"/></mask><g mask="url(#svgo-slogan-clip-8h)"><path d="M170.56 59.37a.631.631 0 01-.36-.27 4.31 4.31 0 00-.34-.41c-.12-.11-.2-.13-.25-.3-.05-.17 0-.29-.07-.42s-.45-.17-.45-.48a2.255 2.255 0 000-.26 5.04 5.04 0 00-.12-.57 2.018 2.018 0 010-.22 4.996 4.996 0 01.64-1.83 29.447 29.447 0 012.29-4c.83-1.32 1.7-2.6 2.56-3.9.86-1.3 1.54-2.5 2.38-3.71.42-.64.79-1.32 1.18-2 .341-.667.739-1.303 1.19-1.9.4-.45.57-1.07.93-1.57.156-.26.293-.53.41-.81.18-.33.43-.62.62-1 .37-.65.83-1.3 1.19-2s.61-1.27 1-1.91c.39-.64.74-1 1-1.56.14-.3.19-.61.35-.9.182-.305.349-.618.5-.94.32-.68.68-1.36 1-2.07.1-.25.17-.79.54-.79.14 0 .27.05.41.05a.54.54 0 00.26-.07c.19-.12.31-.22.46-.22a.532.532 0 01.29.11c.303.16.541.422.67.74a4.83 4.83 0 01.39 1.69 2.51 2.51 0 01-.05.54 14.237 14.237 0 01-1.94 4.16c-.41.72-.8 1.45-1.22 2.16-.21.35-.42.68-.64 1a5.229 5.229 0 01-.64 1c-.2.18-.37.25-.5.51s0 .25-.09.35c-.09.1-.39.23-.39.41 0 .18.14.14.14.24a2.891 2.891 0 01-.55 1c-.19.25-.48.31-.69.53-.265.292-.499.61-.7.95-.43.66-.84 1.33-1.25 2l-1.11 1.84c-.21.33-.47.64-.66 1a.4.4 0 00-.06.21c0 .11.06.19.06.29a.32.32 0 01-.07.18 4.17 4.17 0 01-.69.7 2.395 2.395 0 00-.64.82 4.317 4.317 0 00-.34.68s0 .1.08.1.38-.25.47-.25c.09 0 0 0 0 .06a11.89 11.89 0 01-1.62 2.2 3.66 3.66 0 00-.67 1.06c-.194.277-.33.59-.4.92 0 .17.11.3.42.3.316-.022.631-.069.94-.14.555-.09 1.104-.22 1.64-.39l1.44-.47c.229-.102.467-.186.71-.25.186-.02.374-.02.56 0h.32c.16 0 .29.18.38.18h.14c.16-.06.31-.21.49-.28.221-.063.438-.14.65-.23.35-.18.7-.3.88-.65.08-.16 0-.19.21-.3.21-.11.25-.11.38-.19.299-.18.61-.34.93-.48.187-.036.371-.086.55-.15.17-.09.22-.23.35-.36.63-.59 1.6-.84 2.29-1.37.4-.31.83-.55 1.24-.84.417-.312.818-.646 1.2-1l1.07-.93.4-.4c.23-.23.5-.46.66-.46.16 0 0 .23.17.23.191-.084.375-.185.55-.3.207-.087.392-.22.54-.39.12-.15.231-.306.33-.47.05-.1.58-.66.58-.84 0-.18 0-.05-.07-.05s-.39.3-.5.3c-.11 0-.06 0-.06-.12 0-.39.55-.87.72-1.09.31-.38.56-.84.83-1.25.54-.84.87-1.79 1.4-2.63a2.48 2.48 0 00.51-1.13c0-.51.21-1 .28-1.49.165-.892.265-1.794.3-2.7a6.691 6.691 0 00-.76-3.37 8.464 8.464 0 00-2-2.39 9.762 9.762 0 00-6.07-2 19.239 19.239 0 00-4.4.52c-.74.17-1.52.28-2.24.49-.72.21-1.48.54-2.22.8a13.46 13.46 0 00-2 .84 7.168 7.168 0 00-1.83 1.23c-.531.495-1.092.956-1.68 1.38-.26.21-.51.43-.79.63s-.63.19-1 .33c-.2.09-.26.29-.43.29a.37.37 0 01-.19-.07c-.23-.14-.36-.55-.47-.78a1.22 1.22 0 01-.12-.5 2.15 2.15 0 01.74-1.29 12.464 12.464 0 011.6-1.39 17.612 17.612 0 011.8-1.31 27.762 27.762 0 014.69-2.42 25.784 25.784 0 014-1.21 19.05 19.05 0 014-.54 11.67 11.67 0 014.88 1.05 9.81 9.81 0 011.84 1.32c.603.465 1.159.987 1.66 1.56a13.314 13.314 0 012.25 3.83c.246.65.44 1.319.58 2 .17.78.29 1.58.4 2.39a6.92 6.92 0 01-.05.91c-.004.381-.027.761-.07 1.14a10.983 10.983 0 01-.38 2.27c-.11.33-.27.63-.38 1-.11.37-.16.68-.29 1a15.034 15.034 0 01-1 2.21c-.07.11-.22.28-.21.43.01.15.13.2.1.37a1.66 1.66 0 01-.62.81c-.31.23-.29.29-.4.63a3.3 3.3 0 01-.46.8 1.003 1.003 0 01-.3.32c-.11.07-.27.06-.38.14-.11.08-.31.49-.5.68-.48.48-1 1-1.48 1.44-.48.44-1.2 1.1-1.82 1.63-.32.27-.63.55-1 .79a3.823 3.823 0 00-.78.53c-.08.11-.08.26-.16.36-.08.1-.21.06-.31.1-.26.09-.41.32-.69.52-.579.333-1.14.697-1.68 1.09a1.824 1.824 0 01-.26.23c-.12.06-.28 0-.4.1-.309.171-.61.358-.9.56-.63.36-1.28.7-1.92 1-.64.3-1.27.62-1.91.91-.837.381-1.695.715-2.57 1-.59.18-1.22.41-1.86.59a7.234 7.234 0 01-1.88.3 3.476 3.476 0 01-1.06-.15c-.72-.21-1-.74-1.44-1.28-.21-.24-.39-1-.66-1-.08 0-.17.06-.27.21a5.498 5.498 0 00-.52 1.09c-.15.39-.27.78-.4 1.15-.05.118-.08.243-.09.37 0 .11.14.06.13.21-.122.343-.32.655-.58.91-.17.16-.39.23-.58.38a.222.222 0 01-.17.07l.03-.01zm3.3-9.07a.113.113 0 00-.007-.051.113.113 0 00-.028-.044.117.117 0 00-.095-.035s-.1 0-.18.15a3.806 3.806 0 00-.61 1.15c0 .07 0 .1.07.11.34.03.85-.98.85-1.28zm1.33-1.48c0-.19-.06-.46-.22-.46s-.41.71-.4.87a.095.095 0 00.004.038.08.08 0 00.019.032.09.09 0 00.067.03c.13 0 .53-.33.53-.51zm.17-1c.27 0 1-1.13 1.17-1.32.42-.56.8-1.15 1.17-1.73.37-.58.92-1.51 1.37-2.33.271-.44.483-.914.63-1.41v-.08c0 .01-.46.54-.53.63-.2.28-.41.55-.61.84-.39.56-.78 1.13-1.15 1.71-.37.58-.76 1.22-1.11 1.85-.16.27-.31.54-.46.82-.21.307-.372.644-.48 1v.02zm1.44 8.58a4.997 4.997 0 001.23-.25c.43-.14.88-.35 1.24-.49a9.86 9.86 0 001.07-.28c.16-.08.23-.15.24-.19.01-.04-.06-.08-.16-.08a.64.64 0 00-.22 0c-.39.1-.77.38-1.18.45a5.55 5.55 0 00-1.21.25c-.39.15-.63.2-1 .36-.13 0-.17.1-.18.13-.01.03.08.07.18.07l-.01.03zm2.2-31.61a19.177 19.177 0 001.94-.72c1.32-.46 3-1 3.22-1 1-.28 2.08-.49 3.13-.67l1.45-.22c.2 0 1.15 0 1.15-.22s-.14-.12-.37-.12c-.51.018-1.018.071-1.52.16l-1.15.19c-.476.081-.947.192-1.41.33-.48.13-1 .28-1.44.39-.963.21-1.911.48-2.84.81-.24.09-2.2.81-2.2 1 0 0 0 .05.07.05l-.03.02zm1.65 15c.304-.336.536-.73.68-1.16 0-.09 0-.12-.07-.12s-.5.43-.56.51a1.999 1.999 0 00-.59 1c0 .07 0 .24.14.24s.36-.34.44-.43l-.04-.04zm1.42 14.62a1.29 1.29 0 00.44-.11l.84-.39 1-.43c.482-.221.947-.478 1.39-.77.43-.28.95-.43 1.41-.67.212-.096.408-.224.58-.38.15-.15.23-.37.41-.48.18-.11.37-.1.54-.2.294-.199.578-.412.85-.64l1.56-1.18c.479-.355.933-.743 1.36-1.16.39-.41.8-.72 1.22-1.09.449-.468.87-.962 1.26-1.48a14.46 14.46 0 001.06-1.3.92.92 0 00.19-.45c0-.05 0-.08-.06-.08s-.17.06-.32.23c-.38.4-.75.83-1.12 1.25-.09.11-.36.54-.54.56-.18.02-.19-.06-.2-.15-.01-.09.07-.24.07-.34 0-.1 0-.07-.06-.07s-.35.24-.38.27l-.66.58a2.35 2.35 0 00-.46.49 1.45 1.45 0 01-.42.47c-.07.06-.11.15-.18.21-.07.06-.18 0-.23.07-.05.07-.2.26-.33.37-.13.11-.34.15-.49.31a2.633 2.633 0 01-.45.5c-.44.28-.85.61-1.26.93-.349.261-.713.502-1.09.72-.39.23-.82.45-1.25.69-.58.297-1.118.67-1.6 1.11-.1.1-.46.39-.46.55 0 .014.003.028.008.04a.098.098 0 00.025.035.09.09 0 00.036.02.098.098 0 00.041.005c.281-.095.547-.23.79-.4a8.38 8.38 0 00.78-.42l1.33-.84c.46-.29.92-.58 1.37-.89.47-.301.918-.635 1.34-1 .128-.162.245-.332.35-.51.177-.179.371-.34.58-.48a4.84 4.84 0 001-.76c.144-.205.309-.396.49-.57.19-.14.44-.19.6-.37.16-.18.27-.43.36-.43.09 0 0 0 0 .09V46c0 .37-.7.81-1 1-.418.34-.815.704-1.19 1.09-.403.41-.83.793-1.28 1.15-.4.29-.79.6-1.18.9-.39.3-.92.69-1.41 1-.461.31-.942.586-1.44.83-.47.24-1 .47-1.42.73-.42.26-.84.58-1.3.81-.28.14-.58.22-.86.33-.217.075-.42.186-.6.33-.12.09-.17.16-.17.2 0 .04 0 .05.1.05l.03-.01z" fill="#D50057"/></g><mask id="svgo-slogan-clip-9i" maskUnits="userSpaceOnUse" x="198" y="36" width="25" height="22"><path d="M203 48c.333.167 1.2.4 2 0s3.333-2.167 4.5-3c1.667-1.333 4.5-3.9 2.5-5.5s-4-.167-5 1c-1.5 1.833-5.2 5.9-6 7.5-1 2-1 5 0 6.5.8 1.2 4.667 1.167 6.5 1 3-1 9.9-3.9 13.5-7.5" stroke="#000" stroke-width="4"/></mask><g mask="url(#svgo-slogan-clip-9i)"><path d="M206.78 57.11a4.99 4.99 0 01-1-.15 3.998 3.998 0 00-.77-.05h-.62a9 9 0 01-1.19-.14 3.297 3.297 0 01-1.28-.52 6.42 6.42 0 01-1.67-1.61 3.526 3.526 0 01-.41-1.11c-.05-.17-.09-.41-.15-.64a1.1 1.1 0 00-.28-.55h-.25c-.09 0-.1-.08-.1-.19v-.46a9.887 9.887 0 010-1.44 9.335 9.335 0 01.75-2.51 21.67 21.67 0 011.34-2.46A30.095 30.095 0 01203 42.8c.56-.72 1.12-1.47 1.73-2.13.35-.38.72-.73 1.1-1.07.38-.34.77-.67 1.17-1 .312-.329.7-.576 1.13-.72.183-.017.367-.017.55 0h.46c.37 0 .61-.05 1.12-.05.474.038.938.16 1.37.36a3.12 3.12 0 012.13 2.91c.003.21-.03.42-.1.62a10.444 10.444 0 01-1.32 2.16c-.193.27-.426.51-.69.71-.3.24-.53.56-.81.83-.64.61-1.41 1.12-2.1 1.67a21.021 21.021 0 01-2.08 1.5 7.5 7.5 0 01-2.27 1 1.691 1.691 0 01-.41.06 3.475 3.475 0 01-.58-.08 5.992 5.992 0 00-.78-.09.779.779 0 00-.33.06c-.143.118-.25.274-.31.45-.07.17-.12.34-.18.46a8.75 8.75 0 00-.49 1.33 1.528 1.528 0 000 .91c0 .18.09.12.08.37-.01.25-.07.31-.07.45 0 .55 1 .69 1.68.69a19.27 19.27 0 002.75-.3 18.66 18.66 0 003.44-1 27.37 27.37 0 003.72-1.75c1-.58 2.08-1.14 3.1-1.73.66-.37 1.31-.76 2-1.16.283-.147.543-.336.77-.56 0-.06 0-.17.06-.24.214-.309.508-.554.85-.71.12 0 .15 0 .14.09-.01.09 0 .17-.06.29-.06.12.07.15.07.23 0 .08-.57.34-.57.47 0 .13.07.07.14.07h.3c.09 0 .16 0 .16.1s-.68.5-.78.55c-.403.219-.793.459-1.17.72a3.014 3.014 0 00-.64.69 2.36 2.36 0 01-.52.4c-.21.12-.44.23-.59.3-.336.155-.651.35-.94.58-.09.08-.42.25-.42.38s.08.1.17.1c.173-.03.337-.1.48-.2a1 1 0 01.45-.18h.09c-.09.18-.49.38-.69.48a5.298 5.298 0 00-.75.46.998.998 0 00-.33.49c0 .06 0 .09.17.09a4.908 4.908 0 001.09-.55 17.2 17.2 0 002.09-1.39c.15-.13.73-.7.93-.7.2 0 .08 0 .08.1s-.25.42-.33.54a7.004 7.004 0 01-2 1.76c-.36.25-.7.52-1.06.77-.36.25-.74.4-1.08.66A17.13 17.13 0 01212 55.4a16.87 16.87 0 01-3.84 1.54 6.236 6.236 0 01-1.35.17h-.03zm-7.16-5.61s.11-.11.18-.36c.07-.25.17-.57.26-.84l.3-.82c.04-.126.064-.258.07-.39 0-.13 0-.25-.16-.25s-.29.36-.32.45a8.152 8.152 0 00-.3.8 3.742 3.742 0 00-.17.95c0 .29.08.46.14.46zm2.2-4.75c.25-.36.5-.81.75-1.16.25-.35.42-.49.62-.8l.36-.48c.39-.49.81-1 1.19-1.46.253-.315.542-.6.86-.85.16-.14.36-.41.53-.58.17-.17.52-.45.52-.57 0-.12-.05-.15-.1-.16-.05-.01-.31.19-.39.24a1.56 1.56 0 00-.42.2l-.45.38c-.14.13-.27.28-.42.41-.15.13-.37.14-.53.26-.16.12-.18.37-.32.62a2.38 2.38 0 01-.53.57c-.06.05-.25.08-.3.13-.05.05-.09.18-.15.33-.083.162-.191.31-.32.44-.23.27-.33.61-.56.89-.128.13-.248.266-.36.41a2.579 2.579 0 00-.2.53c-.1.25-.48.54-.48.83 0 .29.12.35.21.35s.41-.39.49-.53zm2.8-.24a10.41 10.41 0 001.16-.69c.43-.3.84-.63 1.3-.89.172-.078.336-.172.49-.28a.995.995 0 00.33-.5c.19-.35.57-.53.88-.79.31-.26.78-.73 1.16-1.11.355-.335.689-.693 1-1.07a2.42 2.42 0 00.66-1.2c0-.19-.09-.26-.22-.26a1.824 1.824 0 00-.78.35l-1.25.82c-.39.25-.77.52-1.15.79-.38.27-.8.6-1.18.91a13.02 13.02 0 00-2 2c-.27.35-.55.67-.8 1a2.587 2.587 0 00-.47 1c0 .14.07.19.17.19.23.08.54-.18.7-.27z" fill="#D50057"/></g><mask id="svgo-slogan-clip-10j" maskUnits="userSpaceOnUse" x="215" y="23" width="22" height="35"><path d="M221 44c1 .5 1.667-.667 2-1l5-6 3-4 2.5-4.5.5-1c.167-.5.4-1.6 0-2-.4-.4-1.167-.5-1.5-.5l-2 2-3.5 4-4 5-3 5.5-2 5-.5 2.5v3c0 .333.1 1.2.5 2s1.5 1.333 2 1.5c.833 0 2.7-.1 3.5-.5 1-.5 2-.5 4.5-2.5 2-1.6 2.833-3 3-3.5" stroke="#000" stroke-width="4"/></mask><g mask="url(#svgo-slogan-clip-10j)"><path d="M219.35 48.33c-.1.39-.24.76-.37 1.13-.161.43-.252.882-.27 1.34v.8c0 .27-.15 1-.15 1.28a.752.752 0 000 .15.87.87 0 00.52.63c.18.07.27.08.32.14.05.06.06.17.29.27.466.025.934.025 1.4 0a11.83 11.83 0 002.83-.87c.83-.46 1.82-.94 2.59-1.48.77-.54 1.31-1 1.95-1.49.33-.27.66-.53 1-.81.14-.13.42-.38.61-.38s.21.1.21.38-.34.56-.58.75c-.24.19-.76.61-1.16.89l-1.09.79c-.41.239-.787.531-1.12.87a1.6 1.6 0 00-.19.49.104.104 0 00.052.099c.012.006.025.01.038.011.272-.064.533-.172.77-.32.13-.06.27-.22.41-.22.14 0 .09.09.25.09s.21-.24.27-.35c.11-.165.257-.302.43-.4a.748.748 0 01.39-.07.37.37 0 00.32-.14c.07-.1 0-.21.06-.29.06-.08.08-.17.42-.17a.17.17 0 00.1 0c.11-.08.07-.2.12-.31.254-.32.528-.624.82-.91.08-.11.19-.49.31-.49s.11.14.11.2c0 .27-.35.66-.43.84-.08.18-.14.56-.27.83a3.89 3.89 0 01-.7.86c-.24.25-.44.52-.66.78-.261.268-.557.5-.88.69a7.9 7.9 0 01-.86.67 8.04 8.04 0 00-1.13.58 13.254 13.254 0 01-2.35 1.51 5.76 5.76 0 01-2.46.38 4.081 4.081 0 01-2.07-.39c-.69-.38-1.35-2.12-2-2.61a2.534 2.534 0 01-.59-.94c-.153-.23-.32-.45-.5-.66a7.679 7.679 0 01-.41-2.59c0-2.08.6-2.87 1.2-4.84.31-1 .68-2 1.07-3s.87-1.65 1.29-2.5c.23-.45.45-.91.67-1.37a5 5 0 01.74-1.32.213.213 0 01.16-.07c.07 0 .28 0 .28-.17s-.09-.09-.09-.2a2 2 0 01.58-1c.12-.13.27-.25.39-.39s.13-.32.23-.57c.1-.25.42-.35.59-.64a4.49 4.49 0 01.45-.75c.14-.16.53-.28.53-.44 0-.16-.16-.15-.16-.24s.3-.15.45-.21a.429.429 0 00.26-.45c0-.1 0-.17.21-.17a.178.178 0 00.081-.068c.02-.03.03-.066.029-.102v-.17c0-.06.09-.13.19-.17a.614.614 0 00.27-.15c.11-.13.25-.28.25-.34s-.06-.12-.06-.19 0-.07.12-.09a.694.694 0 00.23-.08c.14-.08 1-.81 1-1.16 0-.07 0-.07-.05-.07s-.25.18-.36.18c-.11 0-.07 0-.07-.07s.31-.46.48-.51a.612.612 0 01.22 0 .3.3 0 00.2-.08c.199-.149.38-.32.54-.51.18-.19.58-.54.65-.8 0-.05-.09-.14-.08-.19.02-.08.051-.157.09-.23.123-.18.263-.348.42-.5a11.994 11.994 0 011.7-1.73 2.662 2.662 0 011.7-.72h.25c.65.11 1.28.13 1.67.73.483.594.763 1.326.8 2.09 0 1.76-1.24 3.41-2.08 4.93a39.467 39.467 0 01-3.93 5.81c-.79 1-1.63 1.95-2.49 2.89-.59.63-1.15 1.29-1.73 1.93a24.535 24.535 0 01-1.89 1.93 3.62 3.62 0 01-.85.6c-.14.05-.284.09-.43.12a1.221 1.221 0 01-.29.06.624.624 0 01-.23-.08.91.91 0 00-.37-.16c-.09 0-.17.07-.26.27-.177.4-.33.812-.46 1.23-.219.71-.399 1.43-.54 2.16l.08.01zm-1-3.59c.125-.425.275-.843.45-1.25.15-.32.41-.64.54-1a4.35 4.35 0 01.14-.49 7.33 7.33 0 00.31-.71 29.362 29.362 0 012.52-4.47c.93-1.45 1.88-2.83 2.93-4.21 1.05-1.38 2.13-2.72 3.25-4.06.07-.09.46-.46.46-.65s0-.09-.1-.1c-.1-.01-.23.23-.32.26s-.08-.09-.23-.09c-.15 0-.55.39-.65.68-.032.174-.09.342-.17.5-.13.21-.31.3-.46.47-.28.33-.48.72-.76 1.05-.28.33-.72.81-1 1.24a25.474 25.474 0 00-1.44 2.17c-.18.32-.46.48-.64.82-.18.34-.52.89-.81 1.33a21.921 21.921 0 00-1.51 2.55c-.4.83-.88 1.59-1.25 2.43-.46 1-.95 2-1.36 3.11a34.566 34.566 0 00-1.93 6.68v.06a.37.37 0 00.07.2c.23-.2.23-.79.29-1.07.12-.53.27-1.06.41-1.59.212-.984.499-1.95.86-2.89.153-.306.29-.62.41-.94l-.01-.03zm10.8-13.96c-.26.57-.93 1-1.3 1.53s-.63.84-1 1.25L225.69 35c-.135.16-.241.343-.31.54v.22c0 .29-.36.58-.53.81-.42.53-.76 1.1-1.15 1.65a19.203 19.203 0 00-1.23 2.21c-.2.36-.51.78-.75 1.17a2 2 0 00-.35.91c0 .11 0 .15.09.15.26 0 1-.92 1-1 .48-.53 1-1 1.44-1.59.44-.59.82-.95 1.24-1.42.42-.47 1-1.17 1.53-1.78.53-.61.85-1 1.25-1.55s.77-1 1.15-1.55c.38-.55.81-1.17 1.2-1.77.28-.43.55-.87.82-1.32.35-.6.71-1.19 1-1.82.05-.11.31-.52.51-.93.138-.227.233-.478.28-.74 0-.15-.06-.2-.16-.2-.35 0-1.22.94-1.35 1.07-.49.51-1 1-1.46 1.54a4.365 4.365 0 00-.79 1.18h.03z" fill="#D50057"/></g><mask id="svgo-slogan-clip-11k" maskUnits="userSpaceOnUse" x="229" y="23" width="22" height="35"><path d="M235 44c1 .5 1.667-.667 2-1l5-6 3-4 2.5-4.5.5-1c.167-.5.4-1.6 0-2-.4-.4-1.167-.5-1.5-.5l-2 2-3.5 4-4 5-3 5.5-2 5-.5 2.5v3c0 .333.1 1.2.5 2s1.5 1.333 2 1.5c.833 0 2.7-.1 3.5-.5 1-.5 2-.5 4.5-2.5 2-1.6 2.833-3 3-3.5" stroke="#000" stroke-width="4"/></mask><g mask="url(#svgo-slogan-clip-11k)"><path d="M233.2 48.33c-.099.383-.219.76-.36 1.13-.161.43-.252.882-.27 1.34v.8c0 .27-.15 1-.15 1.28a.752.752 0 000 .15.87.87 0 00.52.63c.18.07.27.08.32.14.05.06.06.17.29.27.463.025.927.025 1.39 0 .98-.17 1.934-.462 2.84-.87.83-.46 1.82-.94 2.59-1.48.77-.54 1.31-1 2-1.49.33-.27.66-.53 1-.81.14-.13.42-.38.61-.38s.21.1.21.38-.34.56-.58.75c-.39.3-.76.61-1.16.89l-1.1.79a5.515 5.515 0 00-1.11.87 1.6 1.6 0 00-.19.49.103.103 0 00.052.099c.012.006.025.01.038.011a2.56 2.56 0 00.76-.34c.13-.06.27-.22.41-.22.14 0 .09.09.25.09s.21-.24.27-.35c.11-.165.257-.302.43-.4a.75.75 0 01.39-.07.37.37 0 00.32-.14c.07-.1 0-.21.06-.29.06-.08.08-.17.42-.17a.19.19 0 00.1 0c.11-.08.07-.2.12-.31.254-.32.528-.624.82-.91.08-.11.19-.49.31-.49s.11.14.11.2c0 .27-.35.66-.43.84-.08.18-.14.56-.27.83a3.89 3.89 0 01-.7.86c-.24.25-.44.52-.66.78a4.18 4.18 0 01-.88.69 7.9 7.9 0 01-.86.67 8.04 8.04 0 00-1.13.58 13.248 13.248 0 01-2.35 1.51 5.76 5.76 0 01-2.46.38 4.08 4.08 0 01-2.07-.39c-.69-.38-1.35-2.12-2-2.61a2.534 2.534 0 01-.59-.94c-.153-.23-.32-.45-.5-.66a7.679 7.679 0 01-.41-2.59c0-2.08.6-2.87 1.2-4.84.31-1 .68-2 1.07-3s.87-1.65 1.29-2.5c.23-.45.45-.91.67-1.37a5 5 0 01.74-1.32.213.213 0 01.16-.07c.07 0 .28 0 .28-.17s-.09-.09-.09-.2a2 2 0 01.58-1c.12-.13.27-.25.39-.39s.12-.32.23-.57c.11-.25.42-.35.58-.64.132-.262.286-.513.46-.75.14-.16.53-.28.53-.44 0-.16-.16-.15-.16-.24s.3-.15.45-.21a.433.433 0 00.26-.45c0-.1 0-.17.21-.17h.05a.177.177 0 00.081-.068c.02-.03.03-.066.029-.102v-.17c0-.06.09-.13.19-.17a.614.614 0 00.27-.15c.11-.13.25-.28.25-.34s-.06-.12-.06-.19 0-.07.12-.09a.694.694 0 00.23-.08c.14-.08 1-.81 1-1.16v-.07s-.25.18-.36.18c-.11 0-.07 0-.07-.07s.31-.46.48-.51a.612.612 0 01.22 0 .3.3 0 00.2-.08c.199-.149.38-.32.54-.51.18-.19.58-.54.65-.8 0-.05-.09-.14-.08-.19.02-.08.051-.157.09-.23a3.18 3.18 0 01.42-.5 11.994 11.994 0 011.7-1.73 2.662 2.662 0 011.7-.72h.25c.65.11 1.28.13 1.66.73.489.59.774 1.324.81 2.09 0 1.76-1.24 3.41-2.08 4.93a39.467 39.467 0 01-3.93 5.81c-.79 1-1.63 1.95-2.49 2.89-.59.63-1.15 1.29-1.73 1.93a24.535 24.535 0 01-1.89 1.93 3.62 3.62 0 01-.85.6c-.14.05-.284.09-.43.12a1.216 1.216 0 01-.29.06.624.624 0 01-.23-.08.91.91 0 00-.37-.16c-.09 0-.17.07-.27.27-.18.39-.31.83-.45 1.23-.219.71-.399 1.43-.54 2.16l-.07.03zm-1-3.59c.125-.425.275-.843.45-1.25.15-.32.41-.64.54-1a4.35 4.35 0 01.14-.49 7.33 7.33 0 00.31-.71 29.362 29.362 0 012.52-4.47c.93-1.45 1.88-2.83 2.93-4.21 1.05-1.38 2.13-2.72 3.25-4.06.07-.09.46-.46.46-.65s0-.09-.1-.1c-.1-.01-.23.23-.32.26s-.08-.09-.23-.09c-.15 0-.55.39-.65.68-.032.174-.09.342-.17.5-.13.21-.31.3-.46.47-.28.33-.48.72-.76 1.05-.28.33-.72.81-1 1.24a25.474 25.474 0 00-1.44 2.17c-.18.32-.46.48-.64.82-.18.34-.52.89-.81 1.33a21.921 21.921 0 00-1.51 2.55c-.4.83-.88 1.59-1.25 2.43-.46 1-1 2-1.36 3.11a34.553 34.553 0 00-1.92 6.68v.06a.37.37 0 00.07.2c.23-.2.23-.79.29-1.07.12-.53.27-1.06.41-1.59.212-.984.499-1.95.86-2.89.153-.306.29-.62.41-.94l-.02-.03zM243 30.78c-.26.57-.93 1-1.3 1.53s-.63.84-1 1.25L239.55 35c-.136.16-.241.343-.31.54v.22c0 .29-.36.58-.53.81-.42.53-.76 1.1-1.15 1.65a19.203 19.203 0 00-1.23 2.21c-.2.36-.51.78-.75 1.17a2 2 0 00-.35.91c0 .11 0 .15.09.15.26 0 1-.92 1-1 .48-.53 1-1 1.44-1.59.44-.59.82-.95 1.24-1.42.42-.47 1-1.17 1.53-1.78.53-.61.85-1 1.25-1.55s.77-1 1.15-1.55c.38-.55.81-1.17 1.2-1.77.28-.43.55-.87.82-1.32.35-.6.71-1.19 1-1.82.05-.11.31-.52.51-.93.138-.227.233-.478.28-.74 0-.15-.06-.2-.16-.2-.35 0-1.22.94-1.35 1.07-.49.51-1 1-1.46 1.54-.319.35-.579.748-.77 1.18z" fill="#D50057"/></g><mask id="svgo-slogan-clip-12l" maskUnits="userSpaceOnUse" x="250" y="19" width="12" height="16"><path d="M260 21l-7.5 12" stroke="#000" stroke-width="4"/></mask><g mask="url(#svgo-slogan-clip-12l)"><path d="M253.21 32.55a3.994 3.994 0 00-.46-.38.73.73 0 01-.24-.57c.02-.309.109-.61.26-.88.19-.39.43-.76.56-1 .24-.47.49-1 .75-1.43a19.55 19.55 0 011.06-1.7c.325-.339.604-.719.83-1.13a16.26 16.26 0 01.65-1.57c.365-.609.67-1.252.91-1.92.14-.5.25-.62.78-.83.255-.1.526-.151.8-.15.408.016.805.14 1.15.36a1.068 1.068 0 01.57.81 1.834 1.834 0 01-.32 1c-.276.417-.58.815-.91 1.19a21.673 21.673 0 00-1.9 2.72c-.51.83-1 1.66-1.55 2.48-.55.82-1.12 1.75-1.7 2.61-.18.26-.44.74-.83.74-.21 0-.26-.16-.41-.35z" fill="#D50057"/></g><mask id="svgo-slogan-clip-13m" maskUnits="userSpaceOnUse" x="247" y="22" width="41" height="39"><path d="M248 58.5c2.167-.833 7.4-2.7 11-3.5 3.6-.8 7.833-.333 9.5 0 1 .167 2.5 1.5 3 2.5m-13-30.5c.333.167 3.3.7 8.5-.5s9.167-1.833 10.5-2c1.833-.5 7.3.3 8.5 1.5" stroke="#000" stroke-width="4"/><path d="M276 24.5l-6.5 9-8 13.5-2.5 4.5-.5 2.5" stroke="#000" stroke-width="5"/></mask><g mask="url(#svgo-slogan-clip-13m)"><path d="M249.27 59.21a.81.81 0 01-.31-.05 1.998 1.998 0 01-1.1-1.56c0-.57.78-.69 1.24-.86.689-.343 1.405-.63 2.14-.86.55-.11 1-.35 1.55-.46.81-.16 1.6-.48 2.39-.72.33-.1.68-.16 1-.23.343-.06.678-.156 1-.29.19-.09.24-.17.24-.25 0-.08-.22-.29-.26-.39a.67.67 0 010-.2 5.39 5.39 0 01.1-.55c.011-.17.011-.34 0-.51a2.264 2.264 0 00-.08-.65c0-.15-.17-.29-.17-.45a.482.482 0 010-.12c.06-.12.46-.37.55-.49.25-.29.49-.59.73-.89.407-.583.765-1.198 1.07-1.84.41-.71.8-1.44 1.2-2.16.68-1.23 1.32-2.45 2.05-3.66.73-1.21 1.51-2.52 2.25-3.78l2.14-3.67c.34-.56.68-1 1.05-1.58.14-.26.241-.54.3-.83a4.65 4.65 0 01.62-1 9.08 9.08 0 00.75-1.14 1.427 1.427 0 000-.32.318.318 0 01.16-.27c.125-.06.245-.131.36-.21.097-.135.18-.28.25-.43.17-.28.33-.58.51-.86.116-.154.186-.338.2-.53 0-.34-.37-.4-.66-.4a36.048 36.048 0 00-5.47 1.09c-1.305.355-2.648.55-4 .58-.48 0-.88-.05-1.06-.58a2.219 2.219 0 01-.17-.65.391.391 0 010-.18c.06-.14.21 0 .21-.2s-.35-.59-.35-.87c0-.1.05-.21.16-.21s.14.07.28.12c.217.085.447.13.68.13.494-.05.985-.13 1.47-.24 3.12-.43 6.14-1.4 9.27-1.81 1.71-.23 3.4-.59 5.12-.79.77-.09 1.54-.15 2.32-.21.78-.06 1.52-.11 2.28-.18.57-.05 1.16-.16 1.75-.16a1.418 1.418 0 011.19.36c.14.13.7.53.71.74.01.21-.4.37-.4.52 0 .15.08.14.3.27a1 1 0 01.43.35c.078.1.121.223.12.35-.013.15-.046.299-.1.44-.14.54-.36 1-1 1s-.63-.53-1.13-.69a5.442 5.442 0 00-1.63-.22 25.5 25.5 0 00-2.84.27c-.31 0-.63.09-.95.09h-.62a.831.831 0 00-.39.09c-.11.07-.14.13-.14.2a1.765 1.765 0 000 .23c0 .35-.13.36-.41.65-.44.46-.55 1.2-1 1.69-.486.575-.93 1.183-1.33 1.82-.67 1-.91 1.08-1.6 2.08-.83 1.19-1.66 2.37-2.42 3.58-.61 1-1.26 1.91-1.89 2.87-.14.22-.2.47-.34.69-.14.22-.35.41-.49.67-.35.65-.76 1.25-1.11 1.9-.68 1.23-1.45 2.43-2.16 3.64l-1.08 1.79c-.47.77-.93 1.55-1.35 2.34-.31.593-.584 1.204-.82 1.83a3.001 3.001 0 00-.31.84c0 .18.05.29.25.29s.27 0 .45-.06a52.459 52.459 0 015.31-.28c.668 0 1.336.04 2 .12.392.027.781.094 1.16.2.32.141.609.345.85.6.23.21.32.33.32.41 0 .08-.59.11-.58.49.01.38.31.31.49.38.46.17.53.31.6.86 0 .2.05.39.05.58a.925.925 0 01-.58.94.633.633 0 01-.21 0c-.43 0-.53-.8-1-1a6.71 6.71 0 00-2.35-.4c-1 0-1.7.12-2.66.12-.61 0-1.22-.1-1.83-.1-.8-.007-1.599.047-2.39.16-1.66.26-3.31.67-5 1-.77.15-1.52.32-2.26.52-.74.2-1.49.45-2.23.73a5.01 5.01 0 01-1.43.39l.04.03zm10.82-4a.855.855 0 00.32-.13c.278-.17.594-.27.92-.29.43 0 .86 0 1.29-.1.277-.053.558-.087.84-.1.18 0 .31.14.57.14.26 0 .26-.19.43-.19.17 0 .2.13.36.14.117-.008.232-.035.34-.08.324-.114.659-.19 1-.23.25 0 .71.16 1 .17.08 0 .75 0 .75-.12s-.69-.23-.77-.25a1.675 1.675 0 00-.4-.05h-.67a3.39 3.39 0 00-.55 0c-.73 0-1.45.16-2.2.16h-.75a3.142 3.142 0 00-1.06.17 2.603 2.603 0 01-.66.14l-.64.07c-.27 0-.55.07-.55.22a.462.462 0 00.39.4l.04-.07zm.51-4.59a2.997 2.997 0 001-1.55c0-.12 0-.16-.07-.16s-.38.39-.44.5a5.573 5.573 0 00-.55 1.15.068.068 0 00.024.043.069.069 0 00.046.017h-.01zm2.14-3.14a3.84 3.84 0 00.38-.61c.065-.283.152-.56.26-.83.15-.26.36-.35.55-.56.19-.21.18-.41.29-.66.25-.52.75-.89 1-1.41.46-.91.94-1.8 1.46-2.7a21.707 21.707 0 011.89-3.09c.35-.43.5-.92.82-1.37.2-.27 1-1.09 1-1.51 0-.42-.51.44-.6.57-.37.55-.71 1.12-1.1 1.65a30.695 30.695 0 00-1.89 2.77c-.09.16-.21.31-.3.46a2.329 2.329 0 00-.15.49c-.23.55-.77 1-1.05 1.54-.269.537-.57 1.058-.9 1.56-.31.47-.61.94-.91 1.41-.15.24-.19.52-.33.77a7.34 7.34 0 01-.63.94c-.238.448-.426.92-.56 1.41 0 .09 0 .14.06.14.23.04.59-.74.71-.93v-.04zm.45-3c.268-.334.481-.709.63-1.11.122-.298.29-.575.5-.82.277-.315.506-.669.68-1.05 0-.14 0-.18-.06-.18a.913.913 0 00-.42.25c-.19.22-.39.84-.54.84-.15 0-.08-.23-.17-.24-.09-.01-.13 0-.27.15-.185.221-.318.48-.39.76 0 .06 0 .09.09.09s.2.12.19.26a1.007 1.007 0 01-.09.37c-.08.19-.21.26-.37.48a4.125 4.125 0 00-.49.86s0 .09.05.09.59-.6.66-.68v-.07zm2-4.8c.07 0 .93-.63.93-1 0-.12-.06-.21-.14-.21a.218.218 0 00-.16.1c0 .06-.15.3-.29.51-.14.21-.38.46-.38.57v.07l.04-.04zm.08 1.22c.08 0 .46-.29.46-.45a.096.096 0 00-.003-.034.072.072 0 00-.017-.03.08.08 0 00-.06-.027.765.765 0 00-.49.451s0 .09.11.09zm1.15-3.09c.1 0 .27-.21.3-.24.212-.283.408-.577.59-.88.294-.36.534-.76.71-1.19v-.06s-.68.79-.78.93c-.1.14-.21.47-.35.69a4.625 4.625 0 00-.49.69.043.043 0 00.001.025.045.045 0 00.012.022c.006.006.014.01.022.012a.05.05 0 00.025.001h-.04zm.22-11.61c.275-.025.546-.078.81-.16.127-.036.258-.053.39-.05h.35c.12.01.24.01.36 0a8.081 8.081 0 011.79-.32c.12 0 .35.05.67.05h.09c.229-.013.457-.046.68-.1.25-.07 1.05-.4 1.05-.69 0-.29-.11-.2-.26-.21h-.24c-.46.07-.91.21-1.37.29a20.07 20.07 0 00-2.42.55c-.23.07-2.12.32-2.12.53 0 .21.09.11.22.11zm11.81-1.47c.45-.07.89-.1 1.33-.13.409-.023.816-.07 1.22-.14.26-.06.9-.06.9-.46s-.36-.16-.53-.31c-.17-.15-.15-.33-.43-.33h-.15c-.36 0-.7.1-1.06.1-.75 0-2 .16-2.87.24-.46 0-.92.11-1.37.18-.17 0-1.06 0-1.06.24s.29.16.64.16c.35 0 .92-.05 1-.05a2 2 0 00.58-.09c.177-.042.358-.065.54-.07.16 0 .22.09.4.26.18.17.36.12.36.24s-.05.15-.05.19c0 .04 0 0 .06 0s.43.04.48.04l.01-.07z" fill="#D50057"/></g><mask id="svgo-slogan-clip-14n" maskUnits="userSpaceOnUse" x="276" y="20" width="23" height="39"><path d="M295 22l-10 14.5c-1.667 2.833-5.1 9-5.5 11-.5 2.5-1 4 0 6.5.8 2 2.667 2.167 3.5 2 .667-.167 2.6-.9 5-2.5s4.167-3.5 4.5-4" stroke="#000" stroke-width="5"/><path d="M277.5 33l20.5.5" stroke="#000" stroke-width="4"/></mask><g mask="url(#svgo-slogan-clip-14n)"><path d="M283.25 57a5.178 5.178 0 01-2.36-.51 4.287 4.287 0 01-1.89-1.92c-.37-.75-.86-1.44-1.21-2.19a4.613 4.613 0 01-.34-1.82 4.682 4.682 0 010-.67 14.593 14.593 0 011.32-4.71c.77-1.58 1.44-3.22 2.29-4.76.45-.81.88-1.62 1.33-2.42.45-.8.86-1.52 1.33-2.26.18-.28.92-1.18.92-1.57 0-.17-.21-.25-.61-.25a9.826 9.826 0 00-1.36.15c-.662.099-1.33.155-2 .17a2.637 2.637 0 01-2.31-.88 2 2 0 01-.29-.84c-.05-.25-.23-.45-.23-.69 0-.24.07-.31.16-.31a.364.364 0 01.23.17 1.21 1.21 0 00.95.52c.23.015.46.015.69 0h5.5a1.81 1.81 0 00.48-.06c.39-.1.56-.48.78-.8.414-.543.795-1.11 1.14-1.7a6.53 6.53 0 00.31-.88c.14-.36.37-.69.54-1 .382-.748.813-1.47 1.29-2.16.2-.31.49-.65.76-1 .27-.318.483-.68.63-1.07.12-.36.09-.43.37-.71.28-.28.3-.47.49-.69a.999.999 0 01.91-.35h.6c.16 0 .28 0 .28.16a2.189 2.189 0 01-.07.33s0 .07.11.07.27-.11.4-.11a.242.242 0 01.15.06c.14.1.08.24.14.36.393.553.653 1.19.76 1.86.003.128-.014.257-.05.38a2.884 2.884 0 01-.73 1 4.869 4.869 0 00-.7.95c-.52.81-1.18 1.56-1.72 2.36-.27.39-.54.77-.82 1.14-.21.375-.48.713-.8 1-.39.22-.49.21-.49.49s.23.34.65.34h2.35c.47 0 .76.07 1.17.08h1.73c.116.02.234.02.35 0 .16-.06.11-.22.25-.22.386.152.703.44.89.81.068.172.109.355.12.54.07.212.123.43.16.65 0 .22-.1.56-.31.56a2.76 2.76 0 01-.75-.22 1.792 1.792 0 00-.51-.07h-.67a1.787 1.787 0 01-.51-.07 1.163 1.163 0 00-.45-.13.9.9 0 00-.21 0h-.7a2.892 2.892 0 00-.48 0h-.24c-.14 0-.32.06-.5.06h-.11a4.725 4.725 0 00-.54-.13c-.23 0-.35.07-.56.07h-.08a3.974 3.974 0 00-.52-.08c-.25 0-.6.09-.9.09h-.09c-.27 0-.57-.14-.85-.14s-.43.12-.59.5c-.12.262-.282.501-.48.71-.179.19-.343.394-.49.61l-.33.49a3.33 3.33 0 01-.58.7c-.16.15-.21.11-.27.18a1.092 1.092 0 00-.13.24 2.993 2.993 0 01-.17.36 4.67 4.67 0 01-.24.41c-.09.14-.27.34-.27.51 0 .17.26.08.25.2-.01.12-.06.13-.11.13s-.11-.13-.19-.13-.31.23-.31.41v.51c0 .07-.06.15-.32.25s-.42.18-.52.4c-.1.22-.09.5-.18.66-.09.16-.39.27-.39.41 0 .14.32.14.32.31a.588.588 0 01-.14.29c-.13.16-.73.33-.73.51s.14.19.14.32a3.47 3.47 0 01-.67 1.07 5.342 5.342 0 00-.67 1.13.776.776 0 00-.13.32c0 .16.43.15.43.46-.094.48-.255.945-.48 1.38a.649.649 0 01-.37.31c-.14.07-.26.13-.26.31s.15.32.15.48c-.008.155-.031.31-.07.46a20.054 20.054 0 00-.58 4.18c-.033.415.08.83.32 1.17.28.232.637.35 1 .33h.4a11.421 11.421 0 003.74-1.59 28.988 28.988 0 003.38-2.22 20.13 20.13 0 012.3-1.75c.05 0 .05.08.05.11 0 .2-.43.54-.84.86-.41.32-.78.59-.78.7 0 .11.33.11.33.26 0 .15-.23.4-.33.52a4.616 4.616 0 01-1.29 1 4.53 4.53 0 00-1.19.89.431.431 0 00-.1.19c0 .08 0 .11.1.11.156-.033.306-.094.44-.18a10.696 10.696 0 012.46-1.25.06.06 0 01.029.002.06.06 0 01.041.068c0 .29-1.3 1.34-1.47 1.48a3.381 3.381 0 00-.62.63 5.335 5.335 0 01-1.22 1 5.916 5.916 0 01-1 .59 2.48 2.48 0 00-.64.47c-.683.4-1.471.585-2.26.53l-.04.02zm-4.5-8.64c.195-.49.353-.995.47-1.51.39-1.12.87-2.25 1.36-3.33.49-1.08.95-2 1.48-3a29.03 29.03 0 011.67-2.8c.7-1 1.22-2.2 2-3.2a.754.754 0 00.17-.39c0-.07 0-.11-.09-.11a.586.586 0 00-.25.1c-.16.1-.33.51-.44.68l-.6.9c-.5.75-1 1.51-1.45 2.29-.69 1.16-1.34 2.36-1.92 3.57-.38.79-.85 1.86-1.31 2.93a45.74 45.74 0 00-1.05 2.64 6.413 6.413 0 00-.41 1.39s0 .2.11.2.22-.26.26-.34v-.02zm1.1-1c.23-.63.46-1.25.72-1.86.55-1.28 1.12-2.54 1.79-3.76.67-1.22 1.41-2.54 2.15-3.8.33-.56.69-1.11 1-1.67a8.15 8.15 0 01.47-.81c.11-.15.35-.4.35-.51 0-.11 0-.08-.05-.08s-.71.81-.81.93c-.43.57-.77 1.24-1.15 1.86-.38.62-.72 1.23-1.07 1.85l-.89 1.61c-.29.53-.65 1.25-1 2s-.75 1.63-1.07 2.41a14.696 14.696 0 00-.94 2.58v.13s.48-.8.5-.87v-.01zm5.46-14.11s-.13-.07-.51-.07-.52.05-.52.11.23.09.48.09c.25 0 .55-.04.55-.12v-.01zm1.19 1.35c.15 0 .4-.38.4-.53 0-.15 0 0 0 0s-.43.34-.43.49c0 .15 0 .09.08.09l-.05-.05zm1.5-3.43c.17-.23.57-.59.57-.93v-.08c-.35.09-.7.86-.92 1.16-.11.15-.51.5-.51.73 0 .06 0 .14.1.14.26 0 .55-.78.76-1.02zm7.33 2.41h.91c.1 0 .22 0 .22-.08s-1-.2-1.17-.21l-2.7-.08-2.65-.07h-.21c-.2 0-.51 0-.51.14s.05.08.18.14a.672.672 0 00.24 0c.15 0 .31 0 .47-.05.16-.05.44.05.67.06.63 0 1.24-.05 1.86-.05.62 0 1.27.07 1.9.12.26 0 .53.06.79.06v.02z" fill="#D50057"/></g><mask id="svgo-slogan-clip-15o" maskUnits="userSpaceOnUse" x="287" y="38" width="26" height="20"><path d="M303.5 41.5c-.5-.833-2.7-2.3-5.5.5s-5.5 6.5-6.5 8c-1.167 1.333-3 4.3-1 5.5 2 1.2 10.5-8.833 14.5-14l-3 6.5c-.5 1.167-1.5 3.8-1.5 5 0 1.2 1 2.167 1.5 2.5h1.5L311 50" stroke="#000" stroke-width="4"/></mask><g mask="url(#svgo-slogan-clip-15o)"><path d="M291.54 57.06A1.581 1.581 0 01291 57a2.772 2.772 0 01-1.62-1.18 3.88 3.88 0 00-.51-.64c-.25-.28-.17-.6-.28-1a3.247 3.247 0 01-.28-.83.335.335 0 010-.1c0-.15.15-.19.23-.3.097-.152.161-.322.19-.5.083-.34.186-.673.31-1 .07-.14.16-.25.24-.38a2.25 2.25 0 00.18-.49c.138-.369.345-.708.61-1a6.04 6.04 0 00.59-.77c.17-.27.16-.57.42-.78.166-.143.323-.297.47-.46.058-.04.118-.077.18-.11.06-.08 0-.12 0-.18s.12-.13.22-.22c.079-.108.143-.225.19-.35.08-.15.2-.28.28-.43.08-.15.21-.64.41-.94.187-.317.405-.615.65-.89.23-.24.49-.44.72-.67.23-.23.41-.59.65-.86a1.13 1.13 0 01.34-.27c.12-.06.23-.05.32-.16s.06-.23.13-.33a.94.94 0 01.3-.26c.27-.21.48-.5.74-.72.285-.246.585-.474.9-.68.6-.43 1.15-.89 1.78-1.27.257-.205.544-.37.85-.49.264-.046.532-.066.8-.06h.47c.361.012.71.134 1 .35.253.177.476.393.66.64.17.22.17.75.45.75h.27c.11 0 .14.08.14.17 0 .09 0 .26.05.26s.21-.12.33-.12a.153.153 0 01.064.005.152.152 0 01.106.145.763.763 0 00.06.33c.1.17.27.14.42.14a.42.42 0 01.22.05c.17.09.36.51.47.69.221.377.345.803.36 1.24.008.24-.055.476-.18.68a18.013 18.013 0 00-.89 2c-.32.73-.67 1.46-1 2.17-.27.55-.48 1.13-.73 1.67s-.48.92-.68 1.42c-.2.5-.31 1-.49 1.44a2.494 2.494 0 00-.29.82c0 .26.2.31.55.31a4.408 4.408 0 001.46-.46 9.415 9.415 0 001.44-.81c.5-.34 1-.59 1.54-.9.198-.15.417-.272.65-.36h.37c.12 0 .15-.1.25-.1 0 .16-.26.26-.26.42 0 .16 0 .08.1.08a1.35 1.35 0 00.51-.21 1.89 1.89 0 01.65-.33.077.077 0 01.036.003.072.072 0 01.031.02.075.075 0 01.02.03c.003.012.005.025.003.037 0 .1-.19.18-.19.3s.06.12.15.12a4.11 4.11 0 001.27-.53c.07-.05.69-.53.91-.53a.073.073 0 01.033.003.06.06 0 01.027.017.063.063 0 01.017.027.06.06 0 01.003.033.357.357 0 010 .08c-.06.23-.44.5-.6.69-.16.19-.38.58-.6.85a13.25 13.25 0 01-1.8 1.71c-.6.51-1.24 1-1.88 1.5a8.699 8.699 0 01-2 1 9.37 9.37 0 01-1.06.35 3.15 3.15 0 01-.82.18.752.752 0 01-.26 0 6.406 6.406 0 01-.82-.44 3.992 3.992 0 01-1-.55 2.208 2.208 0 01-.51-.72 4.115 4.115 0 00-.55-1c-.22-.25-.33-.27-.41-.62a6.215 6.215 0 01-.27-1.43c.002-.275.029-.55.08-.82.1-.263.177-.534.23-.81 0-.09 0-.15-.13-.15s-.25.21-.31.29l-.93 1.06-.66.79a9.94 9.94 0 01-.94 1 7.215 7.215 0 00-.6.64 4.46 4.46 0 01-.91.93 7.061 7.061 0 00-.82.71c-.258.239-.532.46-.82.66a2.81 2.81 0 01-1.48.55l.02-.09zm-.63-2.4c.266-.037.518-.144.73-.31.27-.24.43-.54.72-.76.29-.22.49-.4.78-.64.29-.24.6-.68.93-1 .33-.32.65-.28.82-.57.17-.29.09-.32.21-.48.136-.173.283-.337.44-.49.097-.12.216-.222.35-.3 0 0 .14-.07.19-.11.05-.04.05-.19.11-.24a.205.205 0 01.16-.08c.12 0 .23.09.33.09s.11 0 .16-.16a5.81 5.81 0 01.5-1.08c.17-.29.51-.9.83-.9a.07.07 0 01.046.017.068.068 0 01.024.043c0 .13-.35.45-.41.52s-.23.23-.23.31c0 .08 0 0 0 0s.43-.36.55-.49c.12-.13.38-.29.38-.51 0-.22-.07-.17-.06-.31a.618.618 0 01.22-.41c.13-.13.28-.24.39-.34.327-.317.638-.65.93-1 0 0 .33-.47.43-.47.1 0 0 0 0 .07s-.1.15-.12.18c-.02.03-.33.33-.45.52a.38.38 0 00-.07.18s0 .07.06.07c.06-.01.118-.03.17-.06.236-.191.442-.417.61-.67a.515.515 0 00.15-.31c0-.12-.12-.17-.13-.25-.01-.08 0-.1.08-.19a.368.368 0 01.27-.14v.05c0 .05-.18.3-.07.3.11 0 .29-.17.35-.23s.21-.22.21-.32-.23-.1-.23-.23.37-.35.42-.4c.05-.05.33-.39.47-.59a1.36 1.36 0 00.23-.57.742.742 0 01.18-.3.431.431 0 00.1-.3c0-.08-.07-.11-.16-.11a3.61 3.61 0 00-1.46.43c-.348.234-.682.488-1 .76-.34.25-.7.49-1 .74a9.873 9.873 0 00-1.31 1.1c-.29.31-.56.63-.83.95-.27.32-.64.74-1 1.09-.36.35-.65.65-1 1-.399.414-.77.855-1.11 1.32l-.8 1.25c-.33.44-.65.89-1 1.34a10.33 10.33 0 00-1.13 2.22 2.237 2.237 0 00-.18.57.18.18 0 00.22.2zm9-7.23c.2-.21.46-.44.66-.67a.802.802 0 00.27-.47v-.07s-.59.49-.64.54a7.687 7.687 0 01-.66.73c-.13.12-.47.39-.47.62 0 .034.012.067.034.093a.138.138 0 00.086.047c.19 0 .65-.73.72-.82z" fill="#D50057"/></g><mask id="svgo-slogan-clip-16p" maskUnits="userSpaceOnUse" x="310" y="23" width="21" height="35"><path d="M315.5 44c1 .5 1.667-.667 2-1l5-6 3-4 2.5-4.5.5-1c.167-.5.4-1.6 0-2-.4-.4-1.167-.5-1.5-.5l-2 2-3.5 4-4 5-3 5.5-2 5-.5 2.5v3c0 .333.1 1.2.5 2s1.5 1.333 2 1.5c.833 0 2.7-.1 3.5-.5 1-.5 2-.5 4.5-2.5 2-1.6 2.833-3 3-3.5" stroke="#000" stroke-width="4"/></mask><g mask="url(#svgo-slogan-clip-16p)"><path d="M313.56 48.33c-.09.39-.24.76-.36 1.13a3.995 3.995 0 00-.27 1.34v.65c.005.05.005.1 0 .15 0 .27-.15 1-.15 1.28a.752.752 0 000 .15.86.86 0 00.53.63c.18.07.26.08.31.14.05.06.06.17.29.27.466.025.934.025 1.4 0 .976-.17 1.927-.462 2.83-.87a28.462 28.462 0 002.59-1.48c.67-.46 1.31-1 2-1.49.32-.27.65-.53 1-.81.14-.13.42-.38.61-.38s.21.1.21.38-.35.56-.59.75c-.24.19-.76.61-1.16.89l-1.09.79a5.271 5.271 0 00-1.11.87 1.405 1.405 0 00-.2.49.103.103 0 00.052.099c.012.006.025.01.038.011a2.56 2.56 0 00.76-.34c.13-.06.27-.22.42-.22.15 0 .09.09.24.09s.21-.24.28-.35c.106-.165.25-.302.42-.4a.75.75 0 01.39-.07.404.404 0 00.33-.14.627.627 0 00.05-.29c0-.1.08-.17.42-.17a.23.23 0 00.11 0c.1-.08.06-.2.12-.31.18-.34.58-.59.81-.91.08-.11.19-.49.31-.49s.12.14.11.2c0 .27-.35.66-.43.84-.08.18-.13.56-.27.83a3.398 3.398 0 01-.7.86c-.24.25-.44.52-.66.78a4.18 4.18 0 01-.88.69 6.96 6.96 0 01-.86.67 8.65 8.65 0 00-1.13.58 12.874 12.874 0 01-2.33 1.51 5.74 5.74 0 01-2.45.38 4.122 4.122 0 01-2.08-.39c-.68-.38-1.34-2.12-2-2.61a2.534 2.534 0 01-.59-.94 6.53 6.53 0 00-.49-.66 7.709 7.709 0 01-.42-2.59c0-2.08.6-2.87 1.2-4.84.31-1 .68-2 1.07-3s.87-1.65 1.3-2.5l.66-1.37a4.8 4.8 0 01.75-1.32.2.2 0 01.15-.07c.08 0 .28 0 .28-.17s-.09-.09-.08-.2c.084-.383.283-.732.57-1 .13-.13.27-.25.39-.39s.13-.32.23-.57c.1-.25.42-.35.59-.64a5.32 5.32 0 01.45-.75c.14-.16.54-.28.54-.44 0-.16-.16-.15-.16-.24s.29-.15.44-.21c.15-.06.25-.31.27-.45.02-.14 0-.17.2-.17h.06a.19.19 0 00.1-.17v-.17c0-.06.09-.13.2-.17a.57.57 0 00.26-.15c.11-.13.25-.28.25-.34s-.06-.12-.06-.19.05-.07.12-.09a.67.67 0 00.24-.08c.13-.08 1-.81 1-1.16 0-.07 0-.07-.06-.07s-.24.18-.36.18-.07 0-.07-.07.32-.46.49-.51a.562.562 0 01.21 0 .34.34 0 00.21-.08c.193-.152.371-.322.53-.51.265-.226.488-.497.66-.8 0-.05-.1-.14-.09-.19.02-.08.051-.157.09-.23.129-.176.269-.343.42-.5a12.52 12.52 0 011.7-1.73 2.681 2.681 0 011.7-.72h.25c.65.11 1.29.13 1.67.73.486.591.767 1.325.8 2.09 0 1.76-1.24 3.41-2.07 4.93a40.322 40.322 0 01-3.94 5.81c-.79 1-1.63 1.95-2.49 2.89-.59.63-1.15 1.29-1.73 1.93a22.93 22.93 0 01-1.91 1.96 3.429 3.429 0 01-.85.6 3.05 3.05 0 01-.42.12 1.364 1.364 0 01-.3.06.624.624 0 01-.23-.08.937.937 0 00-.36-.16c-.1 0-.17.07-.27.27-.177.4-.33.812-.46 1.23-.219.71-.399 1.43-.54 2.16h-.01zm-1-3.59c.124-.427.277-.845.46-1.25.15-.32.4-.64.53-1 .041-.166.091-.33.15-.49a7.04 7.04 0 00.3-.71 29.362 29.362 0 012.52-4.47c.94-1.45 1.88-2.83 2.93-4.21 1.05-1.38 2.14-2.72 3.25-4.06.08-.09.47-.46.47-.65s0-.09-.11-.1c-.11-.01-.23.23-.32.26s-.08-.09-.22-.09-.56.39-.66.68c-.032.174-.09.342-.17.5-.13.21-.31.3-.46.47-.27.33-.48.72-.76 1.05-.28.33-.72.81-1 1.24a23.34 23.34 0 00-1.47 2.2c-.19.32-.47.48-.65.82-.241.46-.512.904-.81 1.33a20.483 20.483 0 00-1.5 2.55c-.4.83-.88 1.59-1.26 2.43-.46 1-.95 2-1.35 3.11a33.86 33.86 0 00-1.9 6.62V51c0 .071.021.14.06.2.23-.2.23-.79.29-1.07.12-.53.28-1.06.41-1.59.215-.984.506-1.95.87-2.89.15-.306.283-.62.4-.94v.03zm10.8-13.96c-.26.57-.92 1-1.29 1.53s-.64.84-1 1.25c-.36.41-.78.94-1.16 1.42-.139.157-.245.34-.31.54v.22c0 .29-.36.58-.53.81-.42.53-.76 1.1-1.15 1.65a22.72 22.72 0 00-1.23 2.21c-.19.36-.5.78-.74 1.17-.198.267-.322.58-.36.91 0 .11 0 .15.1.15.26 0 1-.92 1-1 .48-.53 1-1 1.44-1.59.44-.59.83-.95 1.24-1.42.41-.47 1-1.17 1.54-1.78.54-.61.84-1 1.24-1.55s.78-1 1.15-1.55c.37-.55.82-1.17 1.2-1.77.28-.43.55-.87.82-1.32.36-.6.72-1.19 1-1.82.05-.11.3-.52.51-.93.136-.227.227-.479.27-.74 0-.15-.06-.2-.15-.2-.36 0-1.22.94-1.35 1.07-.5.51-1 1-1.47 1.54-.328.356-.598.76-.8 1.2h.03z" fill="#D50057"/></g><mask id="svgo-slogan-clip-17q" maskUnits="userSpaceOnUse" x="322" y="27" width="18" height="32"><path d="M332 39l-6 10.5c-.833 1.667-2 5.2 0 6 2 .8 3.167.333 3.5 0l9-5m-1-22l-4 6.5" stroke="#000" stroke-width="5"/></mask><g mask="url(#svgo-slogan-clip-17q)"><path d="M325.74 56.91a4.006 4.006 0 01-.93-.8 7.399 7.399 0 01-.32-.74c-.12-.28-.26-.52-.42-.52-.16 0-.13.1-.26.1s-.28-.59-.32-.75a5.74 5.74 0 01-.3-1.54 5.86 5.86 0 01.28-1.24c.1-.48.44-.85.55-1.31.253-.79.588-1.55 1-2.27.35-.68.88-1.45 1.24-2.12.36-.67.51-1.21.87-1.85.27-.47.58-.94.85-1.41s.53-.9.81-1.36c.28-.46.57-.94.84-1.42.15-.26.21-.82.46-1a.77.77 0 01.45-.06c.2 0 .46-.08.68-.08.22 0 .34.18.48.27.14.09.3.06.43.16s.09.2.13.38c.04.18.15.13.37.31s.34.89.38 1.24c.04.35 0 .39 0 .56a1.19 1.19 0 01-.24.72c-.63.87-1.13 1.82-1.74 2.71-.61.89-1.19 1.61-1.68 2.5-.23.42-.47.83-.72 1.25-.25.42-.56.8-.76 1.23-.2.43-.43.9-.65 1.35-.22.45-.48 1-.68 1.51a1.944 1.944 0 00-.18.61c.007.12.007.24 0 .36 0 .22-.43.58-.43.8a.306.306 0 00.12.23.6.6 0 00.43.13 4.47 4.47 0 00.94-.17c.488-.124.968-.274 1.44-.45.822-.286 1.627-.62 2.41-1 1-.49 2-1 3-1.59l1.56-.89c.21-.13.45-.31.68-.45.161-.103.341-.17.53-.2.12 0 .29-.11.38-.11h.06s0 .07-.08.15a1.08 1.08 0 01-.55.32 4.696 4.696 0 00-.66.21c-.17.09-.2.26-.34.37-.14.11-.35.07-.53.16-.18.09-.19.25-.29.39a.72.72 0 01-.3.25c-.15.09-.19.23-.32.32s-.27.07-.4.17-.29.18-.52.35c-.23.17-.5.37-.5.45 0 .08 0 0 .07 0 .313-.095.609-.237.88-.42a.58.58 0 01.21-.09h.05s-.11.18-.27.27c-.41.26-.83.5-1.25.76-.06 0-.74.36-.74.49s0 .06.11.06c.298-.018.595-.051.89-.1a4.81 4.81 0 001.24-.52c.255-.106.525-.174.8-.2.12 0 .23 0 .23.12s-.64.42-.73.5c-.62.56-1.31 1.06-1.95 1.59a4.147 4.147 0 01-.91.71 1.66 1.66 0 01-.79 0 .768.768 0 00-.42.12 5.169 5.169 0 01-2.5 1 3.899 3.899 0 01-2.17-.52zm-.74-4.67a7.9 7.9 0 01.52-2c.304-.632.574-1.28.81-1.94a6.028 6.028 0 01.79-1.54 1 1 0 00.23-.43c0-.08-.02-.12-.06-.12-.09 0-.26.14-.45.44a18.102 18.102 0 00-1 1.94c-.34.76-.74 1.69-1 2.46-.168.42-.275.86-.32 1.31 0 .34.13.52.21.52.08 0 .16-.27.27-.64zm8.58-17.6a1.948 1.948 0 01-.51-.63 1.806 1.806 0 01-.41-.86c0-.3.19-.73.19-.92.031-.348.126-.687.28-1a7.78 7.78 0 011.25-2.23c.19-.2.39-.52.65-.63.273-.133.568-.215.87-.24a3.27 3.27 0 011.74.74c.185.23.355.47.51.72.272.265.436.621.46 1a1.992 1.992 0 01-.9 1.44c-.24.21-.4.51-.62.74-.22.23-.44.39-.64.62-.2.23-.47.51-.71.76s-.48.65-.78.79a.85.85 0 01-.4.06 1.94 1.94 0 01-1-.36h.02z" fill="#D50057"/></g><mask id="svgo-slogan-clip-18r" maskUnits="userSpaceOnUse" x="334" y="38" width="25" height="20"><path d="M349.89 41.5c-.5-.833-2.7-2.3-5.5.5s-5.5 6.5-6.5 8c-1.167 1.333-3 4.3-1 5.5 2 1.2 10.5-8.833 14.5-14l-3 6.5c-.5 1.167-1.5 3.8-1.5 5 0 1.2 1 2.167 1.5 2.5h1.5l7.5-5.5" stroke="#000" stroke-width="4"/></mask><g mask="url(#svgo-slogan-clip-18r)"><path d="M337.87 57.06a1.62 1.62 0 01-.56-.1 2.749 2.749 0 01-1.61-1.18 5.298 5.298 0 00-.51-.64c-.25-.28-.18-.6-.28-1a2.914 2.914 0 01-.29-.83.335.335 0 010-.1c0-.15.14-.19.23-.3.088-.156.152-.325.19-.5.074-.342.178-.676.31-1 .06-.14.16-.25.23-.38.083-.154.144-.319.18-.49.142-.367.349-.706.61-1a6.04 6.04 0 00.59-.77c.17-.27.16-.57.43-.78.166-.143.323-.297.47-.46a1.05 1.05 0 01.17-.11c.06-.08 0-.12 0-.18s.13-.13.22-.22c.079-.108.143-.225.19-.35.08-.15.2-.28.29-.43.09-.15.21-.64.4-.94a5.75 5.75 0 01.66-.89c.22-.24.49-.44.72-.67.23-.23.41-.59.65-.86.093-.109.205-.2.33-.27.12-.06.24-.05.33-.16.09-.11.06-.23.12-.33.085-.102.186-.19.3-.26.28-.21.49-.5.75-.72.283-.244.58-.471.89-.68.61-.43 1.15-.89 1.79-1.27.252-.207.536-.372.84-.49.267-.046.539-.066.81-.06h.46a1.8 1.8 0 011 .35c.253.177.476.393.66.64.16.22.16.75.44.75h.27c.1 0 .14.08.15.17.01.09 0 .26 0 .26s.21-.12.33-.12c.12 0 .15.06.16.15a.985.985 0 00.07.33c.1.17.26.14.42.14a.381.381 0 01.21.05c.18.09.36.51.47.69.221.377.345.803.36 1.24.007.238-.052.473-.17.68a16.271 16.271 0 00-.9 2c-.32.73-.66 1.46-1 2.17-.27.55-.48 1.13-.73 1.67s-.48.92-.68 1.42c-.2.5-.31 1-.48 1.44a2.48 2.48 0 00-.3.82c0 .26.2.31.55.31a4.408 4.408 0 001.46-.46 9.117 9.117 0 001.45-.81c.49-.34 1-.59 1.54-.9.196-.149.411-.27.64-.36h.37c.12 0 .16-.1.26-.1 0 .16-.27.26-.27.42 0 .16 0 .08.1.08a1.35 1.35 0 00.51-.21c.195-.149.415-.26.65-.33a.077.077 0 01.036.003.072.072 0 01.031.02.075.075 0 01.02.03c.003.012.005.025.003.037 0 .1-.18.18-.18.3s.05.12.14.12c.451-.102.88-.281 1.27-.53.08-.05.7-.53.92-.53.01 0 .02.002.029.006.01.004.018.01.024.018a.068.068 0 01.015.026c.003.01.003.02.002.03a.268.268 0 010 .08c-.07.23-.45.5-.61.69-.16.19-.38.58-.59.85-.523.625-1.102 1.2-1.73 1.72-.59.51-1.23 1-1.87 1.5a8.755 8.755 0 01-2 1 9.232 9.232 0 01-1.05.35 3.321 3.321 0 01-.78.15.782.782 0 01-.26 0 7.31 7.31 0 01-.82-.44 3.992 3.992 0 01-1-.55 2.356 2.356 0 01-.51-.72 3.79 3.79 0 00-.55-1c-.21-.25-.32-.27-.41-.62a6.215 6.215 0 01-.27-1.43c.002-.275.029-.55.08-.82.1-.263.177-.534.23-.81 0-.09 0-.15-.12-.15s-.25.21-.32.29c-.3.36-.62.71-.93 1.06l-.66.79a9.94 9.94 0 01-.94 1 5.948 5.948 0 00-.59.64c-.259.35-.565.663-.91.93a7.03 7.03 0 00-.83.71 6.62 6.62 0 01-.81.66 2.839 2.839 0 01-1.49.55l-.02-.03zm-.63-2.4c.266-.037.518-.144.73-.31.27-.24.44-.54.72-.76.28-.22.5-.4.78-.64s.6-.68.93-1c.33-.32.65-.28.82-.57.17-.29.1-.32.21-.48.11-.16.3-.33.44-.49.097-.12.216-.222.35-.3.067-.03.13-.068.19-.11.07-.07.06-.19.12-.24a.19.19 0 01.15-.08c.12 0 .24.09.33.09.09 0 .12 0 .16-.16.134-.374.301-.736.5-1.08.18-.29.51-.9.83-.9 0 0 .07 0 .07.06s-.34.45-.41.52c-.07.07-.23.23-.23.31 0 .08 0 0 .05 0s.43-.36.56-.49c.13-.13.37-.29.37-.51 0-.22-.07-.17-.06-.31a.67.67 0 01.22-.41c.13-.13.29-.24.39-.34.332-.312.643-.646.93-1 0 0 .33-.47.43-.47.1 0 0 0 0 .07s-.09.15-.12.18-.33.33-.45.52a.53.53 0 00-.07.18s0 .07.06.07a.38.38 0 00.17-.06 2.79 2.79 0 00.61-.67.472.472 0 00.16-.31c0-.12-.12-.17-.14-.25a.3.3 0 01.08-.19.37.37 0 01.27-.14s.05 0 0 .05-.18.3-.07.3c.11 0 .29-.17.35-.23s.22-.22.22-.32-.24-.1-.24-.23.37-.35.42-.4c.05-.05.33-.39.48-.59.112-.172.187-.367.22-.57a.902.902 0 01.18-.3.43.43 0 00.11-.3c0-.08-.07-.11-.17-.11a2.282 2.282 0 00-.43.06 2.6 2.6 0 00-1 .37c-.348.234-.682.488-1 .76-.34.25-.69.49-1.05.74a9.873 9.873 0 00-1.31 1.1c-.29.31-.56.63-.83.95-.27.32-.64.74-1 1.09-.36.35-.66.65-1 1-.397.417-.767.858-1.11 1.32l-.93 1.25c-.34.44-.66.89-1 1.34a9.849 9.849 0 00-1.13 2.22 1.914 1.914 0 00-.19.57c-.002.03.002.06.014.087a.189.189 0 00.216.113h.1zm9-7.23c.19-.21.46-.44.66-.67a.831.831 0 00.26-.47v-.07s-.6.49-.65.54a7.62 7.62 0 01-.65.73c-.13.12-.47.39-.47.62 0 .034.012.067.034.093a.138.138 0 00.086.047c.2 0 .66-.73.74-.82h-.01z" fill="#D50057"/></g></svg>