<svg width="96" height="19" viewBox="0 0 96 19" fill="none" xmlns="http://www.w3.org/2000/svg"><path d="M6.64.28l-2.17 3 2.24 3.11h-.88L4 3.86 2.13 6.4h-.87l2.25-3.11-2.16-3h.88L4 2.73 5.75.28h.89zm5.08 6.12V1H9.49l-.1 1.16a18.55 18.55 0 01-.27 1.94 6.76 6.76 0 01-.36 1.27 2.23 2.23 0 01-.45.72 1.24 1.24 0 01-.5.32 1.49 1.49 0 01-.56 0v-.74a.67.67 0 00.29 0 .8.8 0 00.32-.27 2 2 0 00.33-.65c.13-.405.228-.82.29-1.24.09-.55.16-1.21.22-2L8.79.28h3.66V6.4h-.73zm2.79 0V.28H18V1h-2.74v2h2.44v.7h-2.44v2h2.79v.7h-3.54zm5.25 0V.28h3.46V1H20.5v1.76c.313-.02.627-.02.94 0a2.39 2.39 0 011.58.48 1.66 1.66 0 01.56 1.32A1.78 1.78 0 0123 5.94a2.7 2.7 0 01-1.73.5h-.83l-.68-.04zm1.63-3a7.131 7.131 0 00-.89.05V5.7h.84a1.7 1.7 0 001.12-.32 1.09 1.09 0 00.38-.88 1.05 1.05 0 00-.37-.84 1.62 1.62 0 00-1.08-.27v.01zm3.94 3V.28h.74V5.7h3.28V.28h.74V5.7h.83v1.84h-.7V6.4h-4.89zM33.07.28v2.28h.81a2.49 2.49 0 011.69.5 1.75 1.75 0 01.57 1.39 1.81 1.81 0 01-.64 1.49 2.75 2.75 0 01-1.79.53h-1.39V.28h.75zm.76 2.93c-.21 0-.46 0-.76.05v2.43h.73c1 0 1.56-.43 1.56-1.3a1.07 1.07 0 00-.4-.9 1.83 1.83 0 00-1.13-.28zm3.3 3.19V.28h.74V6.4h-.74zM46.75.28l-2.17 3 2.25 3.11h-.89l-1.85-2.54-1.84 2.55h-.88l2.25-3.11-2.15-3h.87l1.78 2.45L45.87.29l.88-.01zm2.13 6.12h-.74V.28h1.6a2.34 2.34 0 011.73.53A1.83 1.83 0 0152 2.16a1.86 1.86 0 01-.57 1.37 2.25 2.25 0 01-1.63.56h-.92V6.4zm.93-5.4h-.93v2.36c.33 0 .63.05.89.05a1.58 1.58 0 001.06-.33 1.26 1.26 0 000-1.78 1.56 1.56 0 00-1.02-.3zm8.26-.72L56 5a3.41 3.41 0 01-.67 1.07 1.21 1.21 0 01-.85.33 1.14 1.14 0 01-.74-.22l.26-.63c.135.103.3.16.47.16.31 0 .56-.2.76-.62l.1-.23L52.56.28h.84l2.29 3.84L57.37.28h.7zm5.24 4.97l.29.56a2.16 2.16 0 01-.83.5 3.34 3.34 0 01-1.1.18 3 3 0 01-2.24-.86 3.11 3.11 0 01-.86-2.29 3.2 3.2 0 01.82-2.25A2.89 2.89 0 0161.62.2a2.73 2.73 0 011.86.59l-.34.56a2.49 2.49 0 00-1.51-.46 2.14 2.14 0 00-1.64.69 2.48 2.48 0 00-.63 1.76A2.421 2.421 0 0060 5.11a2.26 2.26 0 001.72.68 2.43 2.43 0 001.59-.54zM64.17 1V.3h5V1h-2.11v5.4h-.74V1h-2.15zm9.12 5.4V4.13h-1.14L70.56 6.4h-.84l1.7-2.4a2.06 2.06 0 01-.86-.66 1.67 1.67 0 01-.35-1.06 1.93 1.93 0 01.61-1.45A2.49 2.49 0 0172.6.26H74V6.4h-.71zm-1.23-3h1.23V1h-.83a1.53 1.53 0 00-1.07.35 1.21 1.21 0 00-.39.93 1.1 1.1 0 00.32.79c.2.198.46.324.74.36V3.4zm4.03 3V.28h.74V5.7h2.32V.28h.74V5.7h2.32V.28H83V5.7h.83v1.84h-.7V6.4h-7.04zm9.75 0h-.66V.28h.75v4.9l3.71-4.9h.66V6.4h-.75V1.51L85.84 6.4zm6.51 0V.28h3.46V1h-2.72v2h2.45v.7h-2.45v2h2.8v.7h-3.54z" fill="#fff"/><path d="M6.19 17.21l.34.65a2.309 2.309 0 01-1 .58 4 4 0 01-1.28.21A3.42 3.42 0 01.65 15a3.69 3.69 0 011-2.61 3.4 3.4 0 012.6-1 3.24 3.24 0 012.18.69l-.4.65a2.88 2.88 0 00-1.77-.53 2.552 2.552 0 00-1.91.79A2.85 2.85 0 001.57 15a2.78 2.78 0 00.77 2 2.71 2.71 0 002 .78 2.82 2.82 0 001.85-.57zm6.94 1.34h-.87v-7.09h1.87a2.76 2.76 0 012 .63 2.139 2.139 0 01.62 1.57 2.1 2.1 0 01-.67 1.58 2.65 2.65 0 01-1.91.65H13.1l.03 2.66zm1.08-6.3h-1.08V15h1a1.87 1.87 0 001.24-.38 1.45 1.45 0 000-2.06 1.82 1.82 0 00-1.16-.31zM18.73 15a3.57 3.57 0 011-2.6 3.502 3.502 0 012.61-1.05 3.57 3.57 0 012.62 1 3.66 3.66 0 01-2.62 6.26A3.518 3.518 0 0118.73 15zm.92 0a2.83 2.83 0 00.79 2 2.76 2.76 0 003.91 0c.506-.54.78-1.26.76-2a2.78 2.78 0 00-.78-2 2.76 2.76 0 00-3.9 0 2.81 2.81 0 00-.78 2zm10.67 3.65a3.11 3.11 0 01-1.41-.32 2.38 2.38 0 01-.93-.79l.48-.58c.23.277.52.496.85.64.31.156.653.238 1 .24a1.82 1.82 0 001.17-.36 1.199 1.199 0 00.45-1 .999.999 0 00-.37-.84 1.53 1.53 0 00-1-.32h-.83v-.81h.77a1.159 1.159 0 00.83-.34 1.11 1.11 0 00.36-.85 1.07 1.07 0 00-.37-.86 1.4 1.4 0 00-.93-.3 2.09 2.09 0 00-1.63.79l-.51-.56a2.6 2.6 0 011-.76 3 3 0 011.27-.28 2.22 2.22 0 011.51.5 1.741 1.741 0 01.57 1.39 1.779 1.779 0 01-.27.92 1.87 1.87 0 01-.77.7 1.48 1.48 0 011 .57c.232.319.352.706.34 1.1a1.86 1.86 0 01-.71 1.52 2.72 2.72 0 01-1.87.6zm5.25-.1v-7.09h.88l2.69 3.64 2.58-3.64h.83v7.09h-.87v-5.73l-2.54 3.52H39l-2.57-3.49v5.7h-.86zm9.23 0l3.07-7.13h.75l3.08 7.13h-.93l-.92-2.14h-3.26l-.92 2.14h-.87zm3.42-6l-1.29 3h2.58l-1.29-3zm6.6 6H54v-7.09h1.87a2.77 2.77 0 012 .63 2.25 2.25 0 010 3.15 2.66 2.66 0 01-1.91.65h-1.07l-.07 2.66zm1.08-6.3h-1.08V15h1a1.89 1.89 0 001.24-.38 1.45 1.45 0 000-2.06 1.85 1.85 0 00-1.16-.31zm5.94 6.3h-.77v-7.09h.87v5.67l4.35-5.67h.76v7.09h-.86v-5.67l-4.35 5.67zm13.16 0v-3.21h-3.91v3.21h-.87v-7.09h.87v3.07H75v-3.07h.87v7.09H75zM78.51 15a3.56 3.56 0 011-2.6 3.68 3.68 0 112.62 6.24 3.61 3.61 0 01-2.62-1 3.529 3.529 0 01-1-2.64zm.92 0a2.82 2.82 0 00.78 2 2.63 2.63 0 002 .81 2.59 2.59 0 002-.81 2.86 2.86 0 00.76-2 2.79 2.79 0 00-.79-2 2.6 2.6 0 00-1.94-.81 2.63 2.63 0 00-2 .8 2.84 2.84 0 00-.81 2.01zm8.98 3.55v-7.09h.88L92 15.1l2.58-3.64h.83v7.09h-.87v-5.73L92 16.34h-.13l-2.57-3.49v5.7h-.89z" fill="#D50057"/></svg>