<svg width="95" height="8" viewBox="0 0 95 8" fill="none" xmlns="http://www.w3.org/2000/svg"><path d="M5.64.28l-2.17 3 2.24 3.11h-.88L3 3.86 1.13 6.4H.26l2.25-3.11-2.16-3h.88L3 2.73 4.75.28h.89zm5.08 6.12V1H8.49l-.1 1.16a18.55 18.55 0 01-.27 1.94 6.76 6.76 0 01-.36 1.27 2.23 2.23 0 01-.45.72 1.24 1.24 0 01-.5.32 1.49 1.49 0 01-.56 0v-.74a.67.67 0 00.29 0 .8.8 0 00.32-.27 2 2 0 00.33-.65c.13-.405.228-.82.29-1.24.09-.55.16-1.21.22-2L7.79.28h3.66V6.4h-.73zm2.79 0V.28H17V1h-2.74v2h2.44v.7h-2.44v2h2.79v.7h-3.54zm5.25 0V.28h3.46V1H19.5v1.76c.313-.02.627-.02.94 0a2.39 2.39 0 011.58.48 1.66 1.66 0 01.56 1.32A1.78 1.78 0 0122 5.94a2.7 2.7 0 01-1.73.5h-.83l-.68-.04zm1.63-3a7.131 7.131 0 00-.89.05V5.7h.84a1.7 1.7 0 001.12-.32 1.09 1.09 0 00.38-.88 1.05 1.05 0 00-.37-.84 1.62 1.62 0 00-1.08-.27v.01zm3.94 3V.28h.74V5.7h3.28V.28h.74V5.7h.83v1.84h-.7V6.4h-4.89zM32.07.28v2.28h.81a2.49 2.49 0 011.69.5 1.75 1.75 0 01.57 1.39 1.81 1.81 0 01-.64 1.49 2.75 2.75 0 01-1.79.53h-1.39V.28h.75zm.76 2.93c-.21 0-.46 0-.76.05v2.43h.73c1 0 1.56-.43 1.56-1.3a1.07 1.07 0 00-.4-.9 1.83 1.83 0 00-1.13-.28zm3.3 3.19V.28h.74V6.4h-.74zM45.75.28l-2.17 3 2.25 3.11h-.89l-1.85-2.54-1.84 2.55h-.88l2.25-3.11-2.15-3h.87l1.78 2.45L44.87.29l.88-.01zm2.13 6.12h-.74V.28h1.6a2.34 2.34 0 011.73.53A1.83 1.83 0 0151 2.16a1.86 1.86 0 01-.57 1.37 2.25 2.25 0 01-1.63.56h-.92V6.4zm.93-5.4h-.93v2.36c.33 0 .63.05.89.05a1.58 1.58 0 001.06-.33 1.26 1.26 0 000-1.78 1.56 1.56 0 00-1.02-.3zm8.26-.72L55 5a3.41 3.41 0 01-.67 1.07 1.21 1.21 0 01-.85.33 1.14 1.14 0 01-.74-.22l.26-.63c.135.103.3.16.47.16.31 0 .56-.2.76-.62l.1-.23L51.56.28h.84l2.29 3.84L56.37.28h.7zm5.24 4.97l.29.56a2.16 2.16 0 01-.83.5 3.34 3.34 0 01-1.1.18 3 3 0 01-2.24-.86 3.11 3.11 0 01-.86-2.29 3.2 3.2 0 01.82-2.25A2.89 2.89 0 0160.62.2a2.73 2.73 0 011.86.59l-.34.56a2.49 2.49 0 00-1.51-.46 2.14 2.14 0 00-1.64.69 2.48 2.48 0 00-.63 1.76A2.421 2.421 0 0059 5.11a2.26 2.26 0 001.72.68 2.43 2.43 0 001.59-.54zM63.17 1V.3h5V1h-2.11v5.4h-.74V1h-2.15zm9.12 5.4V4.13h-1.14L69.56 6.4h-.84l1.7-2.4a2.06 2.06 0 01-.86-.66 1.67 1.67 0 01-.35-1.06 1.93 1.93 0 01.61-1.45A2.49 2.49 0 0171.6.26H73V6.4h-.71zm-1.23-3h1.23V1h-.83a1.53 1.53 0 00-1.07.35 1.21 1.21 0 00-.39.93 1.1 1.1 0 00.32.79c.2.198.46.324.74.36V3.4zm4.03 3V.28h.74V5.7h2.32V.28h.74V5.7h2.32V.28H82V5.7h.83v1.84h-.7V6.4h-7.04zm9.75 0h-.66V.28h.75v4.9l3.71-4.9h.66V6.4h-.75V1.51L84.84 6.4zm6.51 0V.28h3.46V1h-2.72v2h2.45v.7h-2.45v2h2.8v.7h-3.54z" fill="#fff"/></svg>