<svg width="96" height="20" viewBox="0 0 96 20" fill="none" xmlns="http://www.w3.org/2000/svg"><path d="M6.46.62l-2.17 3 2.24 3.11h-.88L3.8 4.2 2 6.74h-.87l2.25-3.11-2.15-3h.87l1.77 2.45L5.62.63l.84-.01zm6.4 6.12V1.32h-2.22l-.11 1.15a18.394 18.394 0 01-.27 2c-.08.434-.2.859-.36 1.27a2.23 2.23 0 01-.45.72 1.11 1.11 0 01-.5.31 1.48 1.48 0 01-.56 0V6a.67.67 0 00.29 0A.8.8 0 009 5.7c.15-.2.264-.423.34-.66.124-.406.218-.82.28-1.24.09-.54.17-1.2.22-1.95L9.93.62h3.67v6.12h-.74zm4.14 0V.62h3.46v.7h-2.74v2h2.45V4h-2.45v2h2.8v.7L17 6.74zm6.54 0V.62H27v.7h-2.72v1.76c.313-.02.627-.02.94 0a2.37 2.37 0 011.58.48 1.662 1.662 0 01.56 1.32 1.742 1.742 0 01-.62 1.44 2.64 2.64 0 01-1.73.51h-.83l-.64-.09zm1.64-3a7.278 7.278 0 00-.9.06V6h.84a1.7 1.7 0 001.12-.32 1.09 1.09 0 00.38-.88 1 1 0 00-.37-.84 1.59 1.59 0 00-1.07-.24v.02zm5.25 3V.62h.74V6h3.28V.62h.74V6H36v1.84h-.7v-1.1h-4.87zM39.49.62v2.27h.81a2.54 2.54 0 011.7.5 1.73 1.73 0 01.56 1.39 1.81 1.81 0 01-.64 1.49 2.75 2.75 0 01-1.79.53h-1.39V.62h.75zm.76 2.93c-.21 0-.46 0-.76.05V6h.73c1 0 1.56-.43 1.56-1.3a1.07 1.07 0 00-.4-.9 1.77 1.77 0 00-1.13-.25zm3.3 3.19V.62h.75v6.12h-.75zm8.37 0h-.74V.62h1.6a2.34 2.34 0 011.73.54c.334.364.51.846.49 1.34a1.82 1.82 0 01-.57 1.36 2.21 2.21 0 01-1.63.56h-.92l.04 2.32zm.93-5.44h-.93v2.36h.89a1.58 1.58 0 001.06-.32 1.119 1.119 0 00.38-.91 1.09 1.09 0 00-.35-.87 1.52 1.52 0 00-1.05-.26zm6.6 2.25L57 .62h.87l2.42 2.93-2.52 3.19h-.86l2.54-3.19zm1 3.19V.62h.74v6.12h-.74zM64.64.62l-2.48 2.92 2.57 3.2h-.86l-2.52-3.19L63.77.62h.87zm1.79 6.12L69.06.59h.64l2.64 6.15h-.8l-.79-1.85H68l-.77 1.85h-.8zm2.93-5.17l-1.1 2.62h2.2l-1.1-2.62zM79 6.74V4h-3.33v2.77h-.75V.62h.75v2.65H79V.62h.75v6.12H79zM83.89.62v2.27h.82a2.51 2.51 0 011.69.5 1.741 1.741 0 01.57 1.39 1.81 1.81 0 01-.64 1.49 2.77 2.77 0 01-1.79.53h-1.39V.62h.74zm.76 2.93c-.2 0-.45 0-.76.05V6h.74c1 0 1.55-.43 1.55-1.3a1.09 1.09 0 00-.39-.9 1.78 1.78 0 00-1.14-.25zM88 6.74V.62h.74v6.12H88zm4.08 0V.62h3.45v.7h-2.71v2h2.45V4h-2.45v2h2.8v.7l-3.54.04z" fill="#fff"/><path d="M6.19 18.3l.33.69a2.3 2.3 0 01-.92.62 3.4 3.4 0 01-1.23.23 3.21 3.21 0 01-2.5-1.07 4.06 4.06 0 01-1-2.83c-.036-1.01.29-2 .92-2.79A3.06 3.06 0 014.31 12a2.91 2.91 0 012.08.74l-.38.69a2.61 2.61 0 00-1.69-.56 2.27 2.27 0 00-1.82.84 3.33 3.33 0 00-.71 2.19 3.2 3.2 0 00.73 2.19 2.45 2.45 0 001.93.84 2.48 2.48 0 001.74-.63zm3.47 1.43v-7.58h.84L13.06 16l2.45-3.89h.79v7.58h-.83V13.6l-2.41 3.77h-.13l-2.44-3.74v6.1h-.83zm7.97-3.79a4.06 4.06 0 011-2.78 3.351 3.351 0 015 0 4.44 4.44 0 010 5.59 3.36 3.36 0 01-5 0 4 4 0 01-1-2.81zm.87 0a3.19 3.19 0 00.75 2.16 2.43 2.43 0 003.73 0 3.24 3.24 0 00.72-2.16 3.18 3.18 0 00-.7-2.17 2.44 2.44 0 00-3.71 0 3.23 3.23 0 00-.79 2.17zm8.23 3.79h-.83v-7.58h1.79a2.2 2.2 0 012.52 2.35 2.39 2.39 0 01-.64 1.69 2.34 2.34 0 01-1.82.69h-1l-.02 2.85zm1-6.73h-1v2.92c.333.018.667.018 1 0a1.61 1.61 0 001.17-.4 1.68 1.68 0 000-2.2 1.6 1.6 0 00-1.14-.32h-.03zm8.46 5.3l.33.69a2.34 2.34 0 01-.93.62 3.31 3.31 0 01-1.22.23 3.21 3.21 0 01-2.5-1.07 4.06 4.06 0 01-1-2.83c-.036-1.01.29-2 .92-2.79A3 3 0 0134.31 12a2.872 2.872 0 012.07.74l-.38.69a2.56 2.56 0 00-1.68-.56 2.27 2.27 0 00-1.82.84 3.28 3.28 0 00-.71 2.19 3.2 3.2 0 00.73 2.19 2.439 2.439 0 001.93.84 2.5 2.5 0 001.74-.63zm1.46 1.43v-7.58h.83v7.58h-.83zm5-7.58l-3 3.56 3.19 4h-1.11l-3.09-3.95 3-3.63 1.01.02zm.23 3.79a4.1 4.1 0 011-2.78 3.36 3.36 0 015 0 4.46 4.46 0 010 5.59 3.351 3.351 0 01-5 0 4 4 0 01-1-2.81zm.88 0a3.19 3.19 0 00.75 2.16 2.421 2.421 0 003.72 0 3.54 3.54 0 000-4.33 2.37 2.37 0 00-1.85-.86 2.34 2.34 0 00-1.86.85 3.18 3.18 0 00-.76 2.18zm8.13 3.79h-.73v-7.58H52v6.06l4.14-6.06h.73v7.58H56v-6.06l-4.11 6.06zm.36-9.31H53a1 1 0 001 .7c.57 0 .91-.23 1-.7h.78a1.339 1.339 0 01-.57 1 2 2 0 01-1.21.37 2 2 0 01-1.24-.37 1.46 1.46 0 01-.51-1zm13.22 7.88l.33.69a2.34 2.34 0 01-.93.62 3.39 3.39 0 01-1.22.23 3.21 3.21 0 01-2.5-1.07 4.06 4.06 0 01-1-2.83 4.19 4.19 0 01.92-2.79A3 3 0 0163.59 12a2.872 2.872 0 012.07.74l-.38.69a2.56 2.56 0 00-1.68-.56 2.27 2.27 0 00-1.82.84 3.28 3.28 0 00-.72 2.19 3.21 3.21 0 00.74 2.19 2.43 2.43 0 001.92.84 2.52 2.52 0 001.75-.63zm.66-2.36a4.1 4.1 0 011-2.78 3.351 3.351 0 015 0 4.44 4.44 0 010 5.59 3.351 3.351 0 01-5 0 4 4 0 01-1-2.81zm.88 0a3.19 3.19 0 00.75 2.16 2.42 2.42 0 003.72 0 3.24 3.24 0 00.73-2.16 3.18 3.18 0 00-.75-2.17 2.37 2.37 0 00-1.85-.86 2.34 2.34 0 00-1.86.85 3.18 3.18 0 00-.75 2.18h.01zm11.33 3.79V13h-2.47l-.12 1.43c-.08.93-.18 1.74-.3 2.4a9.64 9.64 0 01-.4 1.58 2.74 2.74 0 01-.5.89 1.25 1.25 0 01-.56.39 1.578 1.578 0 01-.62 0v-.92c.109.02.221.02.33 0a1 1 0 00.35-.35c.164-.246.289-.516.37-.8.14-.506.247-1.02.32-1.54.1-.68.18-1.48.24-2.42l.1-1.52h4.08v7.58l-.82.01zm3.52-7.58V15c.41 0 .73-.06 1-.06a2.7 2.7 0 011.93.62 2.26 2.26 0 01.64 1.72 2.35 2.35 0 01-.72 1.84 2.9 2.9 0 01-2 .66H81v-7.63h.86zm.89 3.63a7.79 7.79 0 00-.89.06v3h.87a2 2 0 001.32-.4 1.549 1.549 0 00.46-1.21 1.36 1.36 0 00-.46-1.11 2 2 0 00-1.3-.34zm3.96 3.95v-7.58h.83v3.28H89A4 4 0 0190 13a3 3 0 012.26-1 3.09 3.09 0 012.43 1.09 4.14 4.14 0 011 2.81 4.12 4.12 0 01-1 2.79 3 3 0 01-2.43 1.11 3.001 3.001 0 01-2.28-1 3.89 3.89 0 01-1-2.55h-1.46v3.43l-.81.05zm3.15-3.79a3.32 3.32 0 00.71 2.16 2.3 2.3 0 003.59 0 3.47 3.47 0 00.66-2.18 3.35 3.35 0 00-.69-2.18 2.19 2.19 0 00-1.79-.85 2.17 2.17 0 00-1.77.85 3.32 3.32 0 00-.71 2.2z" fill="#D50057"/></svg>