<svg width="128" height="9" viewBox="0 0 128 9" fill="none" xmlns="http://www.w3.org/2000/svg"><path d="M6.39.81L4.07 4l2.41 3.33h-1l-2-2.72-2 2.72H.54L3 4 .71.79h.93l1.9 2.61L5.41.79l.98.02zm7.12 6.54v-5.8h-2.37L11 2.79a20.464 20.464 0 01-.29 2.08c-.088.464-.219.92-.39 1.36a2.07 2.07 0 01-.48.76 1.19 1.19 0 01-.53.34 1.69 1.69 0 01-.6 0v-.8a.64.64 0 00.31 0 1 1 0 00.35-.3 2.33 2.33 0 00.35-.69c.13-.436.23-.88.3-1.33.1-.587.18-1.287.24-2.1l.09-1.3h3.92v6.54h-.76zm4.69 0V.81h3.69v.74H19v2.12h2.62v.74H19V6.6h3v.75h-3.8zm7.29 0V.81h3.71v.74h-2.91v1.88a8.269 8.269 0 011-.05 2.56 2.56 0 011.69.51 1.75 1.75 0 01.6 1.41 1.87 1.87 0 01-.67 1.55 2.83 2.83 0 01-1.85.54h-.88l-.69-.04zm1.75-3.23c-.334 0-.668.02-1 .06V6.6h.9a1.78 1.78 0 001.19-.34 1.15 1.15 0 00.4-.94 1.121 1.121 0 00-.39-.9 1.68 1.68 0 00-1.1-.3zm5.9 3.23V.81h.79V6.6h3.51V.81h.79V6.6h.89v2h-.75V7.35h-5.23zM43.1.81v2.43h.87a2.73 2.73 0 011.82.53 1.89 1.89 0 01.6 1.49 2 2 0 01-.68 1.59 2.93 2.93 0 01-1.92.57h-1.48V.81h.79zm.82 3.13h-.82v2.6h.79c1.11 0 1.66-.46 1.66-1.39a1.15 1.15 0 00-.42-1 1.92 1.92 0 00-1.21-.21zm3.53 3.41V.81h.79v6.54h-.79zM61.11.81L58.8 4l2.4 3.33h-1l-2-2.72-2 2.72h-.93L57.77 4 55.47.79h.93l1.9 2.61L60.17.79l.94.02zm3.97 6.54h-.79V.81H66a2.56 2.56 0 011.86.57 2 2 0 01.56 1.46 1.94 1.94 0 01-.61 1.45 2.39 2.39 0 01-1.74.6h-1l.01 2.46zm1-5.82h-1v2.53h1a1.66 1.66 0 001.13-.35 1.35 1.35 0 000-1.9 1.68 1.68 0 00-1.13-.28zM76.6.81l-2.26 5A3.45 3.45 0 0173.61 7a1.25 1.25 0 01-.9.36 1.22 1.22 0 01-.79-.24l.28-.67a.88.88 0 00.5.17c.33 0 .59-.22.81-.66l.11-.25-3-4.89h.89L74 4.91l1.8-4.1h.8zm7.29 5.3l.32.6a2.22 2.22 0 01-.89.53 3.33 3.33 0 01-1.18.2 3.16 3.16 0 01-3.32-3.36 3.42 3.42 0 01.89-2.41 3.07 3.07 0 012.38-1 2.94 2.94 0 012 .64l-.37.6a2.58 2.58 0 00-1.62-.49 2.25 2.25 0 00-1.74.73 2.62 2.62 0 00-.69 1.89 2.592 2.592 0 00.7 1.96 2.479 2.479 0 001.85.72 2.54 2.54 0 001.67-.61zm2.62-4.56V.81h5.37v.74h-2.29v5.8h-.79v-5.8h-2.29zM98 7.35V4.92h-1.23L95 7.35h-.9L96 4.78a2.2 2.2 0 01-.92-.7 1.78 1.78 0 01-.37-1.13 2.058 2.058 0 01.64-1.56 2.67 2.67 0 011.91-.61h1.49v6.54l-.75.03zm-1.32-3.18H98V1.55h-.89a1.6 1.6 0 00-1.15.38 1.26 1.26 0 00-.41 1 1.17 1.17 0 00.33.84c.202.209.464.349.75.4h.05zm5.95 3.18V.81h.79V6.6h2.48V.81h.79V6.6h2.48V.81h.8V6.6h.88v2h-.74V7.35h-7.48zm12.11 0H114V.81h.79V6l4-5.23h.7v6.54h-.8v-5.2l-3.95 5.24zm8.57 0V.81H127v.74h-2.89v2.12h2.61v.74h-2.61V6.6h3v.75h-3.8z" fill="#fff"/></svg>