<svg width="106" height="36" viewBox="0 0 106 36" fill="none" xmlns="http://www.w3.org/2000/svg"><mask id="svgo-text-classic-19a" maskUnits="userSpaceOnUse" x="-1" y="0" width="108" height="36"><path d="M98.5 24c1.667-1.5 4.6-4.8 3-6-2-1.5-8.5 4.5-9.5 6.5s-2.738 5.654 0 8c3.5 3 9.833-1.167 13.5-3.5" stroke="#000" stroke-width="4"/><path d="M91.5 7.5l-4 6" stroke="#000" stroke-width="5"/><path d="M86.5 17.5c-2.5 5-8.8 14.3-6 15.5 2.8 1.2 7.5-1.833 9.5-3.5" stroke="#000" stroke-width="4"/><path d="M79.5 19.5l-4-.5-3.43 1.5c-1.166.5-3.97 1.4-3.57 3 .4 1.6 2.333 3 3 3 1.167.667 3.37 1.8 2.57 3-.8 1.2-3 2.5-4 3-1.332.333-4.1.6-4.5-1-.4-1.6 1-3.833 1.5-4.5l.5-1M67 19.5l-4-.5-3.43 1.5c-1.166.5-3.97 1.4-3.57 3 .4 1.6 2.333 3 3 3 1.167.667 3.37 1.8 2.57 3-.8 1.2-3 2.5-4 3-1.332.333-4.1.6-4.5-1-.4-1.6 1-3.833 1.5-4.5l.5-1" stroke="#000" stroke-width="5"/><path d="M46.987 20.043c-.467-.765-2.524-2.113-5.142.46-2.618 2.573-5.143 5.973-6.078 7.352-1.09 1.225-2.805 3.951-.935 5.054C36.702 34.012 45.26 24.25 49 19.5l-3.415 6.517c-.468 1.072-1.403 3.492-1.403 4.595 0 1.103.935 1.99 1.403 2.297h1.402L54 27.855" stroke="#000" stroke-width="4"/><path d="M27.14 22.443c.897.459 1.495-.612 1.794-.918l4.485-5.509 2.692-3.672 2.242-4.13.449-.919c.15-.459.359-1.469 0-1.836S37.755 5 37.456 5l-1.794 1.836-3.14 3.672-3.588 4.59-2.691 5.05-1.794 4.59L24 27.033v2.754c0 .306.09 1.102.448 1.836.36.734 1.346 1.224 1.795 1.377.747 0 2.422-.092 3.14-.459.897-.459 1.794-.459 4.036-2.295 1.795-1.469 2.542-2.754 2.692-3.213" stroke="#000" stroke-width="4"/><path d="M13.5 15c2.5-2.5 7.372-8.467 5-10.5C15 1.5 12 5.833 10 8 5.5 13-1.8 24.7 5 31.5c3.5 3.5 13-1.5 20-7" stroke="#000" stroke-width="6"/></mask><g mask="url(#svgo-text-classic-19a)" fill="#D50057"><path d="M10.28 35.55a7.498 7.498 0 01-1.93-.43 12.804 12.804 0 01-2.17-.63 9.2 9.2 0 01-1.65-1.43 10.712 10.712 0 01-2-2.17 25.154 25.154 0 01-.92-2.78c-.19-.4-.38-.79-.54-1.19a5.64 5.64 0 01-.45-1.86c0-.29-.08-2.12-.07-2.92-.03-.728 0-1.457.09-2.18a6 6 0 01.57-1.35c.2-.49.25-1.06.42-1.57.17-.51.4-1 .59-1.44a16.66 16.66 0 011.4-2.73c.52-.83 1.08-1.6 1.65-2.35.27-.36.41-.85.7-1.17.296-.317.573-.65.83-1a9.75 9.75 0 01.93-1c.35-.34.72-.66 1.06-1 .34-.34.63-.66.95-1 .32-.34.68-.44 1-.76.25-.32.524-.622.82-.9.21-.18 1.07-1.09 1.07-1.43 0-.08-.05-.13-.17-.13-.12 0-.63.51-.78.51-.15 0-.12 0-.12-.09a1 1 0 01.49-.68c.34-.26.76-.46.94-.6a1.68 1.68 0 011-.41c.15.002.297.025.44.07.44.116.888.203 1.34.26.45.05.91.08 1.36.12a2.58 2.58 0 011.51.76c.364.37.699.768 1 1.19.326.435.576.922.74 1.44.163.521.25 1.064.26 1.61v1.21c.01.18.01.36 0 .54A9.086 9.086 0 0120 9.93a3.2 3.2 0 01-.89 1.31 5.93 5.93 0 00-.81.9c-.3.44-.63.9-1 1.34-.37.44-.6.74-.9 1.07-.3.33-.87 1-1.36 1a.781.781 0 01-.56-.26 3.681 3.681 0 01-.7-1c-.17-.32-.78-.73-.76-1 .02-.27.77-.87.94-1.12.29-.44.53-.94.8-1.4.62-1.08 1.28-2.11 1.86-3.24.27-.391.467-.828.58-1.29 0-.11 0-.28-.14-.28-.29 0-.64.3-.79.37-.42.2-.86.38-1.28.61-.43.3-.834.635-1.21 1-.902.7-1.73 1.49-2.47 2.36-.67.76-1.31 1.58-2 2.41-.31.38-.67.69-1 1.08-.33.39-.43.83-.67 1.23-.58.95-1.19 1.87-1.72 2.88a12 12 0 00-1.16 2.92c-.15.62-.33 1.21-.5 1.81a13.32 13.32 0 00-.4 1.71c-.156.795-.25 1.6-.28 2.41.046.43.154.85.32 1.25.19.61.41.48.82.71.41.23.75.58 1.12.82.35.294.77.494 1.22.58.38 0 .77-.17 1.19-.18a5.5 5.5 0 001.25-.14 9.695 9.695 0 001.7-.57c1.39-.57 2.76-1.1 4.11-1.71.91-.41 1.8-.85 2.69-1.35.53-.3 1.05-.63 1.56-1s1-.68 1.49-1c.484-.32.94-.68 1.36-1.08.07-.07.63-.8.82-.8.19 0 .07 0 .07.13 0 .37-.74.76-.74 1s.16.17.66.17c.09 0 .15.09.15.39a1.61 1.61 0 01-.64 1.21c-.473.373-.974.707-1.5 1-.57.39-1.16.73-1.75 1.08-.42.24-.84.48-1.26.74l-.86.51c-.23.14-.46.28-.69.44-.203.12-.38.28-.52.47a2.28 2.28 0 00-.19.69c0 .11.08.14.2.14A2.2 2.2 0 0017 30a3.2 3.2 0 01.85-.33c.21 0 .28.13.39.14.11.01.14 0 .27-.15s.11-.23.22-.36c.11-.13.18-.21.27-.3a1.32 1.32 0 01.29-.19 1.22 1.22 0 01.49-.23c.14 0 .26.2.36.2a.35.35 0 00.29-.13c.12-.12.15-.14.15-.18v-.12c0-.03.1-.1.13-.14.03-.04 0-.12.06-.22a.45.45 0 01.34-.15 1.49 1.49 0 01.25 0c.06 0 .13 0 .26-.18.19-.285.4-.556.63-.81a7.05 7.05 0 00.84-.79c.08-.09.45-.87.62-.87.17 0 .08.07.08.25a2.419 2.419 0 01-.45 1c-.39.6-.55 1.2-.89 1.82a9.307 9.307 0 01-1.88 1.93 7.14 7.14 0 01-1.77 1.41 8.69 8.69 0 01-2.08 1.16 8.558 8.558 0 00-2.21 1c-.65.37-1.28.77-1.94 1.07a6.09 6.09 0 01-2.24.68l-.05.04zm-7-16.13c0-.16-.06-.37-.16-.37s-.39.64-.39.87c0 .23 0 .2.1.2s.47-.32.47-.7h-.02zm.57-1.85l1-1.7c.33-.54.63-1.12 1-1.64.37-.52.52-.93.81-1.4.332-.444.69-.868 1.07-1.27.321-.436.612-.894.87-1.37a11 11 0 011.15-1.46c.36-.41 1.12-1.11 1.12-1.58 0-.12 0-.17-.1-.17-.3 0-.86.83-1 .93-.42.49-.85 1-1.27 1.45-.42.45-.76.9-1.13 1.37-.37.47-1 1.25-1.46 1.89a6.01 6.01 0 00-.73 1.39 13.46 13.46 0 01-.65 1.51c-.235.427-.5.838-.79 1.23a3 3 0 00-.46 1.15c0 .11 0 .19.15.19s.34-.34.44-.52h-.02z"/><path d="M25.29 26.24A10.01 10.01 0 0125 27.3a3.878 3.878 0 00-.25 1.27v.75c0 .25-.14.95-.14 1.21a.655.655 0 000 .14.79.79 0 00.49.59c.17.07.25.07.3.13.05.06.05.17.27.26.44.025.88.025 1.32 0 .92-.163 1.817-.439 2.67-.82.79-.44 1.71-.89 2.45-1.39.74-.5 1.23-.91 1.83-1.41l.92-.77c.13-.12.39-.35.58-.35.19 0 .19.09.19.35s-.32.53-.55.71c-.23.18-.71.58-1.09.84-.38.26-.69.49-1 .75a5.001 5.001 0 00-1 .81c-.089.14-.15.297-.18.46 0 .05 0 .11.08.11a2.47 2.47 0 00.71-.32c.13 0 .26-.21.4-.21s.08.09.23.09c.15 0 .2-.23.26-.33a1.21 1.21 0 01.4-.38.77.77 0 01.37-.07.32.32 0 00.3-.13.54.54 0 00.05-.27c0-.09.08-.16.4-.16a.17.17 0 00.1 0c.1-.07.06-.19.11-.29.18-.33.55-.56.77-.86.08-.1.18-.46.29-.46.11 0 .11.13.11.19 0 .26-.33.61-.41.78-.08.17-.13.54-.25.79a3.5 3.5 0 01-.66.82c-.22.232-.427.475-.62.73-.25.25-.528.468-.83.65-.26.226-.534.437-.82.63-.365.156-.72.336-1.06.54a11.831 11.831 0 01-2.22 1.43 5.401 5.401 0 01-2.31.36 3.89 3.89 0 01-2-.37c-.64-.36-1.26-2-1.85-2.46a2.449 2.449 0 01-.56-.88c-.143-.22-.3-.43-.47-.63a7.34 7.34 0 01-.39-2.44c0-2 .57-2.71 1.13-4.56.29-.95.64-1.88 1-2.81.36-.93.81-1.55 1.21-2.35.22-.43.42-.86.63-1.29.167-.447.403-.866.7-1.24a.198.198 0 01.15-.07c.07 0 .26 0 .26-.16s-.08-.09-.08-.19a1.74 1.74 0 01.55-.92c.11-.13.25-.24.36-.38.11-.14.12-.3.22-.53.1-.23.4-.33.55-.6.122-.249.266-.486.43-.71.13-.15.51-.26.51-.42 0-.16-.16-.14-.16-.22 0-.08.28-.14.42-.2a.39.39 0 00.25-.42c0-.1 0-.17.19-.17h.06a.179.179 0 00.09-.16v-.17c0-.06.09-.11.19-.15a.54.54 0 00.25-.15c.1-.12.24-.25.24-.31s-.06-.12-.06-.18 0-.07.11-.09a.7.7 0 00.23-.08c.12-.07 1-.76 1-1.09 0-.07 0-.06-.05-.06s-.24.16-.34.16c-.1 0-.07 0-.07-.06s.3-.44.46-.49a.72.72 0 01.2 0 .32.32 0 00.19-.07c.186-.142.357-.303.51-.48.17-.18.55-.52.61-.76 0 0-.08-.13-.08-.18a.738.738 0 01.09-.21c.114-.172.248-.33.4-.47a11.66 11.66 0 011.6-1.64 2.52 2.52 0 011.6-.68h.24c.61.1 1.21.12 1.57.69a3.35 3.35 0 01.76 2c0 1.66-1.17 3.22-2 4.65a38.481 38.481 0 01-3.71 5.48c-.75.93-1.53 1.84-2.35 2.72-.55.6-1.08 1.22-1.63 1.82-.555.64-1.15 1.245-1.78 1.81-.235.234-.505.43-.8.58-.13.046-.264.083-.4.11a1 1 0 01-.28.05.46.46 0 01-.21-.07.999.999 0 00-.35-.15c-.09 0-.16.07-.25.26-.169.378-.316.765-.44 1.16-.23.66-.34 1.35-.51 2h-.06zm-.94-3.38c.122-.4.266-.794.43-1.18.14-.31.39-.61.51-.92.034-.156.078-.31.13-.46.12-.24.19-.44.29-.67a29.089 29.089 0 012.37-4.21c.89-1.37 1.78-2.67 2.77-4s2-2.57 3.06-3.83c.07-.08.44-.44.44-.62s0-.08-.1-.09c-.1-.01-.22.22-.3.24-.08.02-.08-.08-.21-.08s-.53.37-.62.64a2.262 2.262 0 01-.16.48c-.12.19-.29.27-.43.44-.14.17-.45.68-.72 1-.27.32-.68.76-1 1.17a23.988 23.988 0 00-1.35 2c-.17.3-.44.45-.61.77-.232.433-.486.853-.76 1.26a20.163 20.163 0 00-1.42 2.4c-.38.78-.83 1.5-1.19 2.3-.43 1-.89 1.93-1.27 2.93a31.46 31.46 0 00-1.79 6.23v.07a.32.32 0 00.06.18c.21-.18.21-.74.27-1 .11-.51.26-1 .39-1.5a17.9 17.9 0 01.81-2.73c.143-.286.27-.58.38-.88l.02.06zM34.5 9.72c-.24.54-.87 1-1.21 1.44-.34.44-.6.8-.92 1.19-.32.39-.73.88-1.09 1.33a1.59 1.59 0 00-.3.52v.2c0 .27-.34.55-.5.76-.39.5-.72 1-1.08 1.56a20.17 20.17 0 00-1.17 2.08c-.18.34-.47.74-.7 1.11a1.83 1.83 0 00-.33.85c0 .11 0 .14.09.14.24 0 .91-.86 1-.94.45-.5.91-1 1.35-1.5l1.17-1.33c.49-.56 1-1.11 1.45-1.68.45-.57.79-1 1.17-1.47.38-.47.73-1 1.08-1.45.35-.45.77-1.11 1.14-1.68.26-.4.52-.82.77-1.24.25-.42.67-1.12.95-1.72.05-.1.29-.49.49-.87a2.12 2.12 0 00.26-.7c0-.14-.06-.18-.15-.18-.33 0-1.15.88-1.27 1-.47.48-.93 1-1.38 1.45a4.51 4.51 0 00-.82 1.1v.03z"/><path d="M36.07 34.47c-.18 0-.36-.031-.53-.09A2.64 2.64 0 0134 33.27a4.175 4.175 0 00-.48-.61c-.24-.27-.17-.57-.27-.9A2.878 2.878 0 0133 31a.44.44 0 010-.1c0-.13.14-.17.21-.28a1.5 1.5 0 00.19-.47c.064-.342.16-.677.29-1a2.67 2.67 0 01.22-.36c.075-.146.132-.3.17-.46a2.9 2.9 0 01.57-.91 6.19 6.19 0 00.56-.73c.16-.25.15-.54.4-.73.157-.136.304-.283.44-.44.06-.06.15-.08.17-.11.02-.03 0-.11 0-.17 0-.06.12-.11.21-.2.09-.09.11-.21.18-.33.07-.12.19-.26.27-.4.08-.14.2-.61.38-.9.177-.297.385-.576.62-.83.21-.23.46-.41.68-.64.22-.23.38-.55.61-.8.085-.11.195-.2.32-.26.11-.06.22 0 .3-.15.08-.15.06-.22.12-.31a1.12 1.12 0 01.28-.25c.26-.2.46-.46.71-.68.25-.22.55-.43.84-.64.57-.4 1.08-.83 1.68-1.19.24-.195.51-.35.8-.46.25-.046.505-.066.76-.06h.44c.333.014.654.13.92.33.24.166.453.368.63.6.15.21.15.71.42.71h.25c.1 0 .13.08.14.16.01.08 0 .25 0 .25s.2-.12.32-.12.14.06.15.15a.8.8 0 00.06.3c.1.17.25.14.4.14a.45.45 0 01.2 0c.17.1.34.49.44.66.211.355.328.757.34 1.17a1.27 1.27 0 01-.16.64 14.376 14.376 0 00-.84 1.88c-.31.69-.63 1.37-1 2-.25.52-.45 1.07-.69 1.58-.24.51-.45.86-.64 1.33-.19.47-.29.93-.46 1.35a2.66 2.66 0 00-.27.78c0 .25.19.29.51.29a4.16 4.16 0 001.38-.43 9.37 9.37 0 001.37-.76c.46-.32 1-.56 1.45-.85a2.27 2.27 0 01.61-.34h.35c.12 0 .14-.09.23-.09s-.24.24-.24.39c0 .15 0 .07.09.07a1.45 1.45 0 00.48-.19c.183-.139.39-.244.61-.31.06 0 .09 0 .09.09s-.18.16-.18.28c0 .12.06.11.14.11a3.76 3.76 0 001.2-.5c.07 0 .65-.5.86-.5 0 0 .07 0 .07.08a.235.235 0 010 .07c-.07.22-.43.47-.57.65-.14.18-.36.55-.56.81a14.298 14.298 0 01-1.7 1.6c-.57.49-1.17 1-1.77 1.42a8.44 8.44 0 01-1.86.91c-.32.12-.65.23-1 .32a3 3 0 01-.78.18.729.729 0 01-.25 0c-.26-.09-.51-.3-.77-.42a3.59 3.59 0 01-.94-.52 2 2 0 01-.48-.68 3.844 3.844 0 00-.52-.9c-.2-.23-.31-.26-.38-.58a5.66 5.66 0 01-.26-1.35 4.12 4.12 0 01.08-.78c.088-.248.158-.502.21-.76 0-.09 0-.14-.12-.14s-.23.19-.29.27c-.29.34-.59.67-.88 1-.29.33-.41.49-.62.74a8.88 8.88 0 01-.89.95c-.2.188-.386.388-.56.6a4.479 4.479 0 01-.86.88 8.251 8.251 0 00-.78.66 6.696 6.696 0 01-.76.63 2.71 2.71 0 01-1.4.52h.13zm-.6-2.26a1.46 1.46 0 00.69-.3c.26-.22.41-.51.68-.71.27-.2.47-.38.73-.61.26-.23.57-.64.88-.93.31-.29.61-.26.78-.53.055-.157.118-.31.19-.46.132-.16.272-.314.42-.46.093-.114.205-.212.33-.29 0 0 .13-.06.18-.1.05-.04.05-.18.1-.23a.209.209 0 01.15-.07c.12 0 .22.09.31.09s.11 0 .15-.16c.129-.346.286-.68.47-1 .17-.27.48-.84.79-.84 0 0 .06 0 .06.05s-.32.43-.39.5-.21.22-.21.29c0 .07 0 0 .05 0s.4-.34.52-.46.36-.28.36-.49c0-.21-.07-.16-.06-.29a.55.55 0 01.21-.38c.12-.12.26-.23.36-.32.313-.316.606-.65.88-1 0 0 .31-.45.4-.45.09 0 0 0 0 .06s-.09.14-.11.18c-.15.154-.29.318-.42.49a.32.32 0 00-.07.17v.06a.35.35 0 00.16-.06c.23-.172.427-.386.58-.63a.48.48 0 00.15-.29c0-.11-.12-.16-.13-.23-.01-.07 0-.1.07-.18a.39.39 0 01.26-.14v.05c0 .05-.17.29-.07.29s.28-.17.33-.22c.05-.05.21-.21.21-.31s-.23-.09-.23-.21.35-.33.4-.38c.16-.174.311-.358.45-.55a1.38 1.38 0 00.21-.54.78.78 0 01.17-.28.5.5 0 00.1-.29c0-.07-.07-.1-.16-.11-.139.01-.276.033-.41.07a2.23 2.23 0 00-1 .35c-.35.21-.66.49-1 .71-.34.22-.65.46-1 .7-.445.292-.86.627-1.24 1-.27.29-.53.6-.78.9-.25.3-.61.7-.94 1-.33.3-.62.61-.91.92-.313.45-.594.92-.84 1.41-.29.39-.59.78-.88 1.18-.29.4-.62.83-.9 1.26a9.157 9.157 0 00-1.07 2.09 2.06 2.06 0 00-.17.53c0 .15.09.2.21.2v-.05zM44 25.39c.19-.2.44-.42.62-.63a.8.8 0 00.26-.44c0-.05 0-.07-.05-.07s-.56.46-.6.51c-.21.23-.39.48-.62.69-.23.21-.45.36-.45.58a.13.13 0 00.12.13c.18 0 .61-.69.72-.77z"/><path d="M53.86 34.86a.43.43 0 01-.17 0c-.09-.06-.08-.28-.22-.28s-.22.07-.36.07a2.06 2.06 0 01-.9-.47 3.18 3.18 0 01-.6-.68 2.08 2.08 0 01-.38-1c0-.37-.09-.59-.09-.79a6.77 6.77 0 01.25-1.07c.095-.282.212-.556.35-.82.18-.39.39-.77.58-1.12.19-.35.32-.61.65-.61.06 0 .09 0 .1.19.01.19-.17.46-.17.66s.18.16.18.42c.005.067.005.133 0 .2-.16.404-.28.823-.36 1.25a.71.71 0 00.11.4c.15.25.25.18.5.25s.34.19.7.19c.3-.008.597-.045.89-.11a2.82 2.82 0 00.66-.36c.24-.13.52-.15.76-.29.24-.14.58-.4.86-.59.28-.19 1.49-.88 1.49-1.37 0-.49-.93-.54-1.31-.69-.38-.15-.55-.23-.82-.37-.27-.14-.55-.17-.79-.3-.59-.32-.79-1.17-1-1.74a5.5 5.5 0 01-.58-1.71c0-.35.33-.51.33-.9 0-.21-.23-.18-.23-.51s.71-1.14 1-1.38a13.5 13.5 0 011.52-.92 20.11 20.11 0 013.71-1.86c.58-.21 1.07-.54 1.63-.78.277-.11.566-.19.86-.24.122-.02.242-.05.36-.09.15-.06.31-.24.47-.24.16 0 .24.2.41.33.17.13.47.11.68.17.297.065.588.155.87.27.3.124.555.337.73.61.19.219.318.485.37.77-.023.24-.07.478-.14.71a1.34 1.34 0 01-1.26.92 18.882 18.882 0 00-3.94.88c-.635.21-1.253.468-1.85.77-.23.13-.39.31-.63.42-.32.166-.63.35-.93.55-.28.17-1.24.54-1.24.91 0 .2.54.46.71.58l.93.64c.472.325.905.705 1.29 1.13.395.442.698.96.89 1.52.24.68.75 1.13.75 1.91a3.61 3.61 0 01-.58 1.59 3.32 3.32 0 01-.7.81c-.233.199-.488.37-.76.51a9.984 9.984 0 01-1.08.41 5.23 5.23 0 00-.93.51 3.4 3.4 0 01-1 .41 5.83 5.83 0 01-.82.13c-.3 0-.59 0-.89.1a4.67 4.67 0 01-.82.17l-.04-.07zm2.61-1.47c.09 0 .82-.34.82-.48 0-.14-.09-.07-.16-.07a5.59 5.59 0 00-.52.23l-.74.22c-.06 0-.28.12-.51.2-.23.08-.71.18-.71.26 0 .08.39.11.51.11a5.16 5.16 0 001.31-.47zM56.23 22l1-.68 1.12-.7c.11-.08.64-.32.64-.5s0-.07-.09-.07c-.32.08-.622.219-.89.41-.44.26-.92.57-1.23.76-.31.19-1.46 1-1.46 1.16 0 .16 0 .07.09.06.298-.096.575-.245.82-.44zm2.33 10.25s0-.08-.1-.07c-.26 0-.9.39-.9.54 0 .15.05.1.13.1.23.01.87-.38.87-.56v-.01zm1.15-12.52s0-.07-.1-.07-.36.11-.36.2a.12.12 0 00.11.11c.09.03.35-.12.35-.23v-.01zm.77-.2a1.78 1.78 0 00.64-.23c.24-.13.44-.25.44-.41 0-.16-.05-.07-.13-.07-.32 0-1.14.36-1.14.6 0 .08.08.12.19.11zm6.02 15.33a.4.4 0 01-.17 0c-.1-.06-.09-.28-.23-.28s-.21.07-.36.07a2 2 0 01-.89-.47 2.93 2.93 0 01-.6-.68 2.1 2.1 0 01-.39-1c0-.37-.09-.59-.09-.79.052-.364.14-.722.26-1.07.096-.28.21-.554.34-.82.19-.39.4-.77.58-1.12.18-.35.33-.61.66-.61 0 0 .09 0 .09.19s-.16.46-.16.66.17.16.17.42a.67.67 0 010 .2 7.73 7.73 0 00-.35 1.25.791.791 0 00.1.4c.15.25.26.18.51.25s.34.19.69.19c.303-.009.604-.046.9-.11a2.82 2.82 0 00.66-.36c.24-.13.51-.15.76-.29.25-.14.57-.4.86-.59.29-.19 1.49-.88 1.49-1.37 0-.49-.94-.54-1.31-.69-.37-.15-.56-.23-.82-.37-.26-.14-.55-.17-.79-.3-.6-.32-.79-1.17-1-1.74a5.47 5.47 0 01-.57-1.71c0-.35.32-.51.32-.9 0-.21-.23-.18-.23-.51s.71-1.14 1-1.38a13.5 13.5 0 011.52-.92 19.89 19.89 0 013.72-1.86c.58-.21 1.07-.54 1.62-.78.278-.109.566-.19.86-.24.126-.02.25-.05.37-.09.15-.06.31-.24.47-.24.16 0 .24.2.41.33.17.13.47.11.68.17.297.066.588.156.87.27.3.124.555.337.73.61a1.7 1.7 0 01.36.77c-.014.242-.06.48-.14.71a1.32 1.32 0 01-1.26.92c-1.34.153-2.662.448-3.94.88-.63.213-1.246.47-1.84.77-.23.13-.39.31-.63.42a8.759 8.759 0 00-.93.55c-.28.17-1.24.54-1.24.91 0 .2.54.46.7.58l.94.64c.472.325.905.705 1.29 1.13.391.445.694.961.89 1.52.23.68.75 1.13.75 1.91a3.74 3.74 0 01-.58 1.59 3.158 3.158 0 01-.71.81 4.327 4.327 0 01-.75.51 9.984 9.984 0 01-1.08.41 5.23 5.23 0 00-.93.51 3.51 3.51 0 01-1 .41c-.273.063-.55.106-.83.13-.29 0-.58 0-.88.1a5.107 5.107 0 01-.82.17l-.05-.07zm2.6-1.47c.09 0 .82-.34.82-.48 0-.14-.09-.07-.15-.07-.179.064-.352.14-.52.23l-.74.22c-.06 0-.28.12-.52.2-.24.08-.7.18-.7.26 0 .08.38.11.51.11.453-.097.89-.255 1.3-.47zM68.87 22c.42-.29.85-.61 1-.68l1.11-.7c.12-.08.65-.32.65-.5s0-.07-.09-.07a2.73 2.73 0 00-.9.41l-1.22.76a5.812 5.812 0 00-1.46 1.16s0 .07.09.06c.297-.096.575-.245.82-.44zm2.33 10.25s0-.08-.11-.07c-.26 0-.9.39-.9.54 0 .15.05.1.13.1.24.01.88-.38.88-.56v-.01zm1.14-12.52s0-.07-.09-.07-.37.11-.37.2A.12.12 0 0072 20c.08 0 .34-.15.34-.26v-.01zm.78-.2a1.78 1.78 0 00.64-.23c.24-.13.43-.25.43-.41 0-.16-.05-.07-.13-.07-.32 0-1.13.36-1.13.6 0 .08.07.12.19.11zm7.29 14.79a3.49 3.49 0 01-.87-.75 3.998 3.998 0 01-.31-.7c-.12-.26-.24-.48-.39-.48-.15 0-.13.09-.25.09s-.26-.56-.3-.71a5.18 5.18 0 01-.29-1.45c.05-.398.141-.79.27-1.17.09-.46.41-.8.52-1.24.226-.74.53-1.455.91-2.13.33-.65.83-1.37 1.16-2 .33-.63.48-1.13.83-1.73.25-.45.54-.89.79-1.33l.76-1.28c.27-.45.54-.89.8-1.34.14-.26.2-.78.43-.95a.7.7 0 01.43-.06c.19 0 .43-.07.63-.07s.33.17.46.25c.13.08.29.06.41.15s.08.19.12.36c.04.17.14.13.35.3.21.17.31.83.35 1.17.04.34.05.37.05.52a1.07 1.07 0 01-.23.68c-.59.82-1.06 1.72-1.63 2.55a27.716 27.716 0 00-1.58 2.36c-.22.4-.45.79-.68 1.18-.23.39-.53.76-.72 1.16-.19.4-.41.85-.62 1.27-.21.42-.45.94-.64 1.42A2 2 0 0081 31v.34c0 .22-.4.55-.4.76a.271.271 0 00.11.21.59.59 0 00.41.13c.298-.026.592-.08.88-.16.46-.11.91-.28 1.36-.43a22.645 22.645 0 002.27-.95c1-.47 1.89-1 2.82-1.51l1.46-.83c.21-.12.43-.29.65-.43a1.26 1.26 0 01.5-.18c.11 0 .28-.11.36-.11h.06s0 .07-.08.14a.9.9 0 01-.52.3 4.08 4.08 0 00-.62.21c-.16.08-.19.23-.32.34-.13.11-.33.06-.5.16-.17.1-.18.22-.28.36-.1.14-.13.14-.28.23-.15.09-.18.22-.29.3-.11.08-.27.08-.39.16l-.49.33c-.24.17-.47.35-.47.43 0 .08 0 0 .07 0a2.85 2.85 0 00.82-.4.5.5 0 01.21-.08s.05 0 0 0-.11.17-.25.25c-.39.25-.79.48-1.18.71-.06 0-.7.35-.7.47s0 .06.11.06c.278-.018.555-.051.83-.1a4.464 4.464 0 001.17-.49c.243-.1.499-.165.76-.19.11 0 .21 0 .21.11s-.6.4-.69.48c-.58.53-1.23 1-1.83 1.5-.255.259-.544.48-.86.66a1.5 1.5 0 01-.75 0 .75.75 0 00-.39.1 4.83 4.83 0 01-2.36.95 3.63 3.63 0 01-2-.51zm-.72-4.39a7.498 7.498 0 01.49-1.93c.29-.594.543-1.206.76-1.83a6.21 6.21 0 01.75-1.45.87.87 0 00.21-.41c0-.07 0-.11-.05-.11s-.24.13-.42.42a15.283 15.283 0 00-1 1.83c-.32.71-.7 1.59-1 2.32a4.438 4.438 0 00-.31 1.23c0 .32.13.49.21.49.08 0 .28-.22.36-.56zm8.09-16.6a1.77 1.77 0 01-.48-.6 1.65 1.65 0 01-.38-.8c.045-.293.105-.583.18-.87a2.54 2.54 0 01.26-.92c.272-.776.674-1.5 1.19-2.14.17-.234.38-.437.62-.6.257-.124.535-.2.82-.22a3.07 3.07 0 011.64.7c.177.214.337.442.48.68.254.239.41.563.44.91a1.908 1.908 0 01-.86 1.35 8.39 8.39 0 00-.58.71c-.19.21-.42.36-.6.58-.18.22-.44.48-.67.71-.23.23-.45.61-.74.75a1 1 0 01-.38.06 1.75 1.75 0 01-.94-.3z"/><path d="M95.93 35.07a6.296 6.296 0 01-1.31-.23 10.647 10.647 0 01-1.46-.34 6.549 6.549 0 01-1.12-.77c-.5-.33-.953-.723-1.35-1.17-.33-.42-.35-1-.62-1.5-.13-.22-.26-.43-.37-.65a2.769 2.769 0 01-.3-1c0-.16-.05-1.15-.05-1.58a6.65 6.65 0 01.06-1.18 3 3 0 01.39-.73 8.27 8.27 0 00.28-.84c.11-.26.27-.52.4-.78a9.29 9.29 0 011-1.48c.35-.44.73-.86 1.11-1.26.143-.22.3-.43.47-.63a6.88 6.88 0 00.56-.52 5.43 5.43 0 01.63-.54l.72-.54c.23-.18.42-.35.64-.54.22-.19.46-.24.64-.41a5.21 5.21 0 01.56-.49c.14-.1.72-.59.72-.77 0-.18 0-.07-.11-.07s-.43.27-.53.27h-.08s.14-.27.33-.37c.19-.1.51-.25.64-.33a1.23 1.23 0 01.65-.22c.1-.013.2-.013.3 0 .3.066.604.113.91.14l.92.07a1.8 1.8 0 011 .41 4.7 4.7 0 01.69.64c.215.221.385.483.5.77.108.278.169.572.18.87v.66c.01.096.01.194 0 .29a4.659 4.659 0 01-.39 1c-.139.285-.349.53-.61.71a2.99 2.99 0 00-.54.48c-.21.24-.43.49-.66.72a8.09 8.09 0 01-.6.58c-.29.25-.59.57-.92.57a.64.64 0 01-.38-.15 1.868 1.868 0 01-.47-.54c-.11-.17-.52-.39-.51-.55.01-.16.52-.48.63-.61.11-.13.36-.51.54-.76.42-.58.87-1.14 1.26-1.75.08-.13.39-.49.39-.69 0-.2 0-.16-.1-.16a1.557 1.557 0 00-.53.2c-.28.11-.58.21-.86.33-.286.152-.56.326-.82.52-.594.376-1.153.804-1.67 1.28-.45.41-.88.85-1.31 1.3-.21.21-.45.37-.66.58-.21.21-.29.45-.45.66-.39.52-.8 1-1.16 1.56a6.15 6.15 0 00-.79 1.58c-.1.33-.22.65-.33 1a5.84 5.84 0 00-.27.93 6.908 6.908 0 00-.19 1.3 2 2 0 00.12.72c.13.33.28.26.55.38.261.137.515.287.76.45.25.157.529.259.82.3.26 0 .53-.09.81-.09.282 0 .563-.027.84-.08.39-.07.775-.171 1.15-.3.93-.31 1.86-.6 2.78-.93a20.47 20.47 0 002.86-1.25l1-.56c.316-.172.62-.366.91-.58 0 0 .43-.44.56-.44.13 0 .05 0 0 .07 0 .21-.5.42-.5.53 0 .11.12.09.45.09.06 0 .1.05.11.22a.872.872 0 01-.44.65 6.846 6.846 0 01-1 .54c-.38.21-.78.4-1.18.59l-.85.4-.58.27c-.16.08-.32.15-.47.24-.13.062-.249.147-.35.25a1.13 1.13 0 00-.13.38c0 .06.05.07.14.07a1.65 1.65 0 00.55-.14c.184-.078.375-.138.57-.18.15 0 .19.08.27.08a.36.36 0 00.18-.08c.09-.07.08-.13.15-.2l.18-.16c.061-.037.125-.07.19-.1.105-.062.22-.106.34-.13.09 0 .17.11.24.11a.27.27 0 00.2-.07c.08-.06.09-.07.09-.1v-.06c0-.06.07-.05.09-.07.02-.02 0-.07 0-.12a.29.29 0 01.22-.08h.18s.08 0 .17-.09c.127-.159.267-.306.42-.44.2-.13.39-.273.57-.43.06-.05.31-.47.42-.47.11 0 .06 0 .06.14s-.27.48-.31.53a11.5 11.5 0 00-.6 1c-.375.39-.802.727-1.27 1-.36.307-.76.563-1.19.76a6.605 6.605 0 01-1.41.63 6.352 6.352 0 00-1.49.54c-.44.2-.87.41-1.31.57-.48.205-.99.33-1.51.37h.04zm-4.72-8.71c0-.08 0-.2-.1-.2s-.27.35-.27.47 0 .11.08.11a.37.37 0 00.29-.38zm.4-1l.68-.91c.22-.3.43-.61.67-.89.24-.28.35-.5.55-.76a7.71 7.71 0 01.72-.68c.213-.23.407-.478.58-.74.237-.285.498-.55.78-.79.24-.22.76-.6.76-.85 0-.07 0-.09-.07-.09-.21 0-.59.45-.64.5l-.86.78c-.26.24-.51.49-.76.74s-.66.68-1 1a3.221 3.221 0 00-.49.75c-.13.282-.278.555-.44.82-.163.231-.34.452-.53.66a1.45 1.45 0 00-.31.62.091.091 0 00.026.074.09.09 0 00.074.026c.09.02.18-.16.26-.26z"/></g></svg>