<svg width="96" height="10" viewBox="0 0 96 10" fill="none" xmlns="http://www.w3.org/2000/svg"><path d="M6.19 8.3l.33.69a2.3 2.3 0 01-.92.62 3.4 3.4 0 01-1.23.23 3.21 3.21 0 01-2.5-1.07 4.06 4.06 0 01-1-2.83c-.036-1.01.29-2 .92-2.79A3.06 3.06 0 014.31 2a2.91 2.91 0 012.08.74l-.38.69a2.61 2.61 0 00-1.69-.56 2.27 2.27 0 00-1.82.84 3.33 3.33 0 00-.71 2.19 3.2 3.2 0 00.73 2.19 2.45 2.45 0 001.93.84 2.48 2.48 0 001.74-.63zm3.47 1.43V2.15h.84L13.06 6l2.45-3.89h.79v7.58h-.83V3.6l-2.41 3.77h-.13l-2.44-3.74v6.1h-.83zm7.97-3.79a4.06 4.06 0 011-2.78 3.35 3.35 0 015 0 4.44 4.44 0 010 5.59 3.36 3.36 0 01-5 0 4 4 0 01-1-2.81zm.87 0a3.19 3.19 0 00.75 2.16 2.43 2.43 0 003.73 0 3.24 3.24 0 00.72-2.16 3.18 3.18 0 00-.7-2.17 2.44 2.44 0 00-3.71 0 3.23 3.23 0 00-.79 2.17zm8.23 3.79h-.83V2.15h1.79a2.2 2.2 0 012.52 2.35 2.39 2.39 0 01-.64 1.69 2.34 2.34 0 01-1.82.69h-1l-.02 2.85zm1-6.73h-1v2.92a9.15 9.15 0 001 0 1.61 1.61 0 001.17-.4 1.68 1.68 0 000-2.2A1.6 1.6 0 0027.76 3h-.03zm8.46 5.3l.33.69a2.339 2.339 0 01-.93.62 3.31 3.31 0 01-1.22.23 3.21 3.21 0 01-2.5-1.07 4.06 4.06 0 01-1-2.83c-.036-1.01.29-2 .92-2.79A3 3 0 0134.31 2a2.87 2.87 0 012.07.74l-.38.69a2.56 2.56 0 00-1.68-.56 2.27 2.27 0 00-1.82.84 3.28 3.28 0 00-.71 2.19 3.2 3.2 0 00.73 2.19 2.44 2.44 0 001.93.84 2.5 2.5 0 001.74-.63zm1.46 1.43V2.15h.83v7.58h-.83zm5-7.58l-3 3.56 3.19 4h-1.11l-3.09-3.95 3-3.63 1.01.02zm.23 3.79a4.1 4.1 0 011-2.78 3.36 3.36 0 015 0 4.46 4.46 0 010 5.59 3.35 3.35 0 01-5 0 4 4 0 01-1-2.81zm.88 0a3.19 3.19 0 00.75 2.16 2.42 2.42 0 003.72 0 3.54 3.54 0 000-4.33 2.37 2.37 0 00-1.85-.86 2.34 2.34 0 00-1.86.85 3.18 3.18 0 00-.76 2.18zm8.13 3.79h-.73V2.15H52v6.06l4.14-6.06h.73v7.58H56V3.67l-4.11 6.06zm.36-9.31H53a1 1 0 001 .7c.57 0 .91-.23 1-.7h.78a1.34 1.34 0 01-.57 1 2 2 0 01-1.21.37 2 2 0 01-1.24-.37 1.46 1.46 0 01-.51-1zM65.47 8.3l.33.69a2.339 2.339 0 01-.93.62 3.39 3.39 0 01-1.22.23 3.21 3.21 0 01-2.5-1.07 4.06 4.06 0 01-1-2.83 4.19 4.19 0 01.92-2.79A3 3 0 0163.59 2a2.87 2.87 0 012.07.74l-.38.69a2.56 2.56 0 00-1.68-.56 2.27 2.27 0 00-1.82.84 3.28 3.28 0 00-.72 2.19 3.21 3.21 0 00.74 2.19 2.43 2.43 0 001.92.84 2.52 2.52 0 001.75-.63zm.66-2.36a4.1 4.1 0 011-2.78 3.35 3.35 0 015 0 4.44 4.44 0 010 5.59 3.35 3.35 0 01-5 0 4 4 0 01-1-2.81zm.88 0a3.19 3.19 0 00.75 2.16 2.42 2.42 0 003.72 0 3.24 3.24 0 00.73-2.16 3.18 3.18 0 00-.75-2.17 2.37 2.37 0 00-1.85-.86 2.34 2.34 0 00-1.86.85A3.18 3.18 0 0067 5.94h.01zm11.33 3.79V3h-2.47l-.12 1.43c-.08.93-.18 1.74-.3 2.4a9.64 9.64 0 01-.4 1.58 2.74 2.74 0 01-.5.89 1.25 1.25 0 01-.56.39 1.58 1.58 0 01-.62 0v-.92a.89.89 0 00.33 0 1 1 0 00.35-.35c.164-.246.289-.516.37-.8.14-.506.247-1.02.32-1.54.1-.68.18-1.48.24-2.42l.1-1.52h4.08v7.58l-.82.01zm3.52-7.58V5c.41 0 .73-.06 1-.06a2.7 2.7 0 011.93.62 2.26 2.26 0 01.64 1.72 2.35 2.35 0 01-.72 1.84 2.9 2.9 0 01-2 .66H81V2.15h.86zm.89 3.63a7.792 7.792 0 00-.89.06v3h.87a2 2 0 001.32-.4 1.55 1.55 0 00.46-1.21 1.359 1.359 0 00-.46-1.11 2 2 0 00-1.3-.34zm3.96 3.95V2.15h.83v3.28H89A4 4 0 0190 3a3 3 0 012.26-1 3.09 3.09 0 012.43 1.09 4.14 4.14 0 011 2.81 4.12 4.12 0 01-1 2.79 3 3 0 01-2.43 1.11 3 3 0 01-2.28-1 3.89 3.89 0 01-1-2.55h-1.46v3.43l-.81.05zm3.15-3.79a3.32 3.32 0 00.71 2.16 2.3 2.3 0 003.59 0 3.47 3.47 0 00.66-2.18 3.35 3.35 0 00-.69-2.18 2.19 2.19 0 00-1.79-.85 2.17 2.17 0 00-1.77.85 3.32 3.32 0 00-.71 2.2z" fill="#D50057"/></svg>