<svg width="153" height="53" viewBox="0 0 153 53" fill="none" xmlns="http://www.w3.org/2000/svg"><mask id="svgo-text-rosemary-20a" maskUnits="userSpaceOnUse" x="-1" y="-1" width="154" height="54"><path d="M144 16.5c-3.5 4.833-9.9 14.5-7.5 14.5 3 0 14-11.5 14-12 0-.247-.407 5.669-5 14-6.5 9-13 18-18 18-2.693 0-.347-5.67 5-11 5.305-5.29 13.765-10.245 17.5-9m-19.5-16.5c-3.833 6-11.9 18.1-11.5 18.5.5.5 5.5-11 15.5-16 3-1.5 1.833 1.333-2 4.5" stroke="#000" stroke-width="4"/><path d="M115.987 19.043c-.467-.765-2.524-2.113-5.142.46-2.618 2.573-5.143 5.973-6.078 7.352-1.091 1.225-2.805 3.951-.935 5.054 1.87 1.103 9.818-8.117 13.558-12.866l-2.805 5.974c-.468 1.072-1.403 3.492-1.403 4.595 0 1.103.935 1.99 1.403 2.297h1.402L123 26.855M82.708 16L71.5 33.5c3.718-4.026 12.814-13.026 17.454-14.816 1.785 1.342-.578 3.333-2.23 6.263-1.263 2.237-2.85 5.43-4.016 7.053 4.907-4.921 15.08-14.837 14.723-11.974-.892 1.79-6.246 8.948-4.462 10.737.863.865 2.7.712 4.462 0C98.586 30.297 100.5 29 101.5 29.5" stroke="#000" stroke-width="4"/><path d="M61.518 25.227c.305.149 1.099.357 1.831 0 .733-.357 3.053-1.935 4.12-2.68 1.527-1.19 4.121-3.482 2.29-4.91-1.831-1.43-3.663-.15-4.578.892-1.374 1.637-4.762 5.269-5.494 6.698-.916 1.786-.916 4.465 0 5.805.732 1.071 4.273 1.041 5.952.892 2.746-.892 9.065-3.482 12.361-6.697" stroke="#000" stroke-width="4"/><path d="M60 18.5l-4-.5-3.43 1.5c-1.166.5-3.97 1.4-3.57 3 .4 1.6 2.333 3 3 3 1.167.667 3.37 1.8 2.57 3-.8 1.2-3 2.5-4 3-1.332.333-4.1.6-4.5-1-.4-1.6 1-3.833 1.5-4.5l.5-1" stroke="#000" stroke-width="5"/><path d="M39.549 18.115c-1.167.667-4.8 3.3-6 4.5-1.5 1.5-5.5 6.5-3.5 9.5 1.256 1.885 4.666-.333 6-2 2.666-3.166 7.2-10.3 6-11.5-1.2-1.2-2.5-.333-3 0-1.5 1.334-4 4.2-4 5 0 .8 1.333 2 2 2.5 1.166.167 4.3.1 7.5-1.5l3.5-2M20.5 3c-5.167 7.667-19 29.5-19 31.5" stroke="#000" stroke-width="4"/><path d="M6 9c7.5-4.667 23.2-11.8 26-3 .955 3-1 4.875-4.5 7.5-2 1.5-6.9 4.7-10.5 5.5-3.6.8-4.5-.667-4.5-1.5l2.5.5c0 5.5 2.5 15 8.5 15 1.5 0 3-1.5 3-3" stroke="#000" stroke-width="4"/></mask><g mask="url(#svgo-text-rosemary-20a)" fill="#D50057"><path d="M11.38 18.9c-.4.83-.77 1.69-1.21 2.5-1.79 3.28-3.61 6.54-5.38 9.83-.19.36-.07.87-.25 1.24a14.33 14.33 0 01-1 1.66C3 33.821 2.485 33.47 2 33.08a10.331 10.331 0 01-1.07-1.46v-.87c1.11-.16 1.48-1 1.93-1.9 1.24-2.36 2.49-4.71 3.85-7 3.1-5.16 6.26-10.27 9.41-15.4a12.62 12.62 0 001.06-1.84A31.64 31.64 0 007 9.89c-1.29-1-1.32-2.41.09-3.18 2.1-1.15 4.34-2 6.4-3.25C16.09 2 19 1.64 21.79.85a6.23 6.23 0 012-.14l-4.09.89.08.35c1.17-.25 2.33-.52 3.5-.76a8.68 8.68 0 018.53 2.5c1.57 1.63 1.93 3.25 1.33 5.64-.8 3.13-3.15 4.34-5.4 5.73-2.52 1.57-5.27 2.78-8 4.1-.686.313-1.403.55-2.14.71-.63.15-.79.43-.65 1.07.64 3.25 1.82 6.37 3.49 9.23.746.96 1.7 1.74 2.79 2.28.77.46 1.43-.18 2-.72.57-.54.89-1 1.41-1.54.4 2-.7 3.4-2.5 3.39-3.58 0-6.57-1.28-8.06-4.72-1.28-2.95-2.21-6.05-3.34-9.07-.2-.51.09-1.57-1.1-1.26v-1c-1 1.46-1.79 2.69-2.61 3.92l.17.11c.8-.89 1.48-1.77 2.18-2.66zm6.4 9.43c-.48-.76-.95-1.52-1.41-2.27l-.21.36c-.29-.49-.53-.88-.77-1.27l-.42.24 2.72 5 .64-.4c-.2-.56-.39-1.12-.58-1.68l2.85 3.45.24-.21-3.06-4.92v1.7zm-.93-11.77c-.08.37-.18.78-.27 1.18.38.076.77.076 1.15 0 1.69-.78 3.36-1.59 5-2.47a6.758 6.758 0 001.33-1.19A27.097 27.097 0 0126.12 12c.88-.72 1.91-1.26 2.83-2a4.42 4.42 0 001.57-4.91 3.05 3.05 0 00-1.41-1.78c-2.74-1.41-5.5-.44-8.33 0 .92 1.76.91 1.75-.39 3.06a5.617 5.617 0 00-.62.75c-1.52 2.14-3.05 4.28-4.54 6.45-.55.8-1 1.66-1.44 2.37l3.06.62zM4.23 29.47c.77-2.62 3-4.4 2.94-7.39L5.42 24.5l.71-.11-1.89 2.45.25.19.8-.7C5 27.52 3.3 27.78 4.23 29.47zm3.41-6.62l3.29-5.1c-1.21 1.59-4.01 2.18-3.29 5.1zm6.69-19.18l.1.27 3.68-1.43a2.447 2.447 0 00-.1-.24l-3.68 1.4zm79.46 19.57a56.77 56.77 0 00-10.07 9.33c-1.91-1.38-2.07-2-.84-4.06 1.23-2.06 2.68-4.39 4-6.59.25-.41.46-.85.68-1.27l-.21-.21a23.008 23.008 0 00-2.55 1.69c-2.47 2.14-4.9 4.34-7.32 6.56-1.14 1-2.25 2.13-3.31 3.25a5.31 5.31 0 00-1.06 1.6c-.35.82-.81.64-1.17.17a22.13 22.13 0 01-1.43-2.22 22.783 22.783 0 01-4.09 1.6c-2.25.46-4.68.6-6.59-1a6.08 6.08 0 01-1.45-7.47 27.1 27.1 0 017-8.83c1.34-1.09 4.45-.64 5.44.75a2.55 2.55 0 01.19 3.12A19.13 19.13 0 0163.38 26a3.27 3.27 0 01-1.68.18c-.76-.08-1.26.1-1.44.9a5.16 5.16 0 01-.21.49c-.89 2.23-.32 3.08 2 2.93 2.238-.11 4.43-.679 6.44-1.67 1.8-.92 3.54-1.94 5.34-2.83 1.18-.59 1.34-1.86 2-2.79 1.42-2.13 2.64-4.38 3.94-6.58a1.71 1.71 0 113 1.58c-1.07 1.87-2.29 3.66-3.44 5.48a.94.94 0 00-.19.49c1.44-1.19 2.84-2.43 4.33-3.55 1.12-.84 2.35-1.52 3.54-2.27a2.47 2.47 0 012.93.22 3.27 3.27 0 01.6 3.12c-.235.467-.413.96-.53 1.47.7-.56 1.37-1.15 2.1-1.67 1.31-.94 2.67-1.83 4-2.77a1.74 1.74 0 012.49.43 2.459 2.459 0 01.28 1.95 8.621 8.621 0 01-1.18 2.16c-1.34 2.13-2.7 4.25-4 6.38-.129.288-.222.59-.28.9a6.418 6.418 0 001.68-.15c2.29-.94 4.55-1.94 6.81-2.94.324-.167.6-.415.8-.72 1-1.43 1.92-2.93 2.95-4.34a21.578 21.578 0 016.74-6.12 2.47 2.47 0 012.86.63c.517.622 1.1 1.185 1.74 1.68a2.003 2.003 0 011.012 2.02 1.99 1.99 0 01-.262.75c-1.15 2.56-2.26 5.14-3.37 7.71-.14.32-.22.66-.39 1.15 2.43.16 3.86-2.07 6.26-2.33 2.34-3.9 4.83-8 7.28-12.17.48-.83 1-1.37 2-1.22a1.752 1.752 0 011.7 1.5 6.535 6.535 0 01-.31 1.77c.85-.59 1.59-1.14 2.37-1.63a18.072 18.072 0 012-1.05c1-.45 1.67.31 2.27.8.29.22.19 1.14 0 1.67a6.51 6.51 0 01-2.7 3.54c-.73.48-1.4 1-2.29.23l1.85-3.12c-3.24 1.7-5.62 4.25-8 6.89a28.561 28.561 0 00-5.58 8.78l-2.15-2.13c-1.76.75-3.66 2.55-5.72.56a4.796 4.796 0 01-1.65-5.07l-.75.77c-1.37 1.42-2.7 2.89-4.12 4.27-1.83 1.76-4.09 1.13-4.83-1.3a5.794 5.794 0 00-.6-1.61 10.66 10.66 0 01-.91 1.74 3.22 3.22 0 01-1.33 1 21.88 21.88 0 01-3.63 1 3 3 0 01-3.08-1.16 4.7 4.7 0 01-.47-4.73c.72-1.39 1.47-2.67 2.19-3.98zm10.06 7.81a65.188 65.188 0 0011.29-11.9c-2.83-.25-10.67 8.06-11.29 11.9zm-41.72-7.33c2.54-.83 7.11-5.06 7.13-6.56-2.01.53-6.98 4.63-7.13 6.56zm-2.36.33l4.77-5.82a10.87 10.87 0 00-4.77 5.82zm61.08 7l.36.18 3.46-5.48-.37-.22a32.869 32.869 0 00-3.45 5.56v-.04zM86.31 19.31a25.44 25.44 0 00-7.19 5.82l7.19-5.82zm39.13 2.39l-.3-.24-4.09 6.54.35.22 4.04-6.52zm-33.32 7.9l2.07-4.39C93 26.45 92 27.74 92.12 29.6zm-8.85-.08l.51.3 2.29-4.11-.26-.15-2.54 3.96zm5.62-4.65l.2.21 3.85-3.51-.18-.21-3.87 3.51zm47.11.78l-1 2.45.3.14c1.05-2 2-4 3.16-6 1.16-2 2.21-3.61 3.39-5.37a1.368 1.368 0 01.974-.5 1.36 1.36 0 011.026.38 1.736 1.736 0 01.784 1.243 1.73 1.73 0 01-.454 1.397c-1.64 2.19-3.28 4.38-4.88 6.6-.69 1-1.26 2-1.86 3-.12.24-.214.49-.28.75l.24.21c1.2-.93 2.45-1.81 3.59-2.81 2.42-2.16 4.8-4.37 7.15-6.6a3.13 3.13 0 00.57-1.34c0-.1-.21-.29-.34-.46a2.06 2.06 0 012.68.16c.2.23.44.42.65.65.45.49 1 1-.05 1.46-.17.08-.28.38-.35.6-.57 2-1.11 4-1.69 6-.24.86-.57 1.69-.89 2.63l1 .11.2.21-.59.29.63.58c-.11.09-.17.18-.21.17-1.46-.24-2.32.52-3.09 1.66-2.4 3.59-4.77 7.21-7.35 10.68a24.948 24.948 0 01-7.6 7.29c-1.47.81-3 1.36-4.72.47-1.72-.89-2-2.28-1.52-4 .94-3.67 3.78-5.89 6.2-8.4a41.908 41.908 0 0112.11-8.58 4.806 4.806 0 001.84-2 11.832 11.832 0 001.28-3.57c-1.17 1-2.33 2-3.51 3-1.71 1.44-3.42 2.89-5.16 4.28a2.09 2.09 0 01-3.09-.58 5.27 5.27 0 01.86-6.2zm6.92 7.82l-.14-.15-3.94 2.61a27.71 27.71 0 00-2.84 1.84c-1.11.94-2.1 2-3.15 3.07.51 1.11-.62 1.36-1.06 1.93-1.31 1.72-2.72 3.35-4.05 5-.168.333-.279.69-.33 1.06a4.68 4.68 0 001.12.27 1.742 1.742 0 001-.4 906.01 906.01 0 004.49-4 5.5 5.5 0 00.66-.9l.35.36-6 5.92.23.31a14.813 14.813 0 002.6-1.76c2.13-2.23 4.21-4.5 6.16-6.88a39.6 39.6 0 003.19-4.87c.63-1.08 1.12-2.27 1.68-3.41h.03zM148 21.74l-4.42 4.81c1.42-.28 4.68-3.7 4.42-4.81zm-8.57 19.63l-.21-.2-4.14 5 .23.19c1.32-1.64 2.69-3.31 4.07-4.99h.05zM42.08 23.48h4.24c-2 1.7-3.7 3.21-6.13 3.48a1.76 1.76 0 00-1.09.62c-.93 1.18-1.85 2.38-2.66 3.65A5.66 5.66 0 0132 33.39c-1.15-.18-2.38-1.66-2.73-3.2a7.32 7.32 0 011.51-6.14 30.223 30.223 0 016.17-6.45 6.22 6.22 0 014.49-1.09 2.82 2.82 0 012 3.17 26.82 26.82 0 01-1.05 3.05c-.12.27-.26.62-.31.75zm-8 1.08a11.711 11.711 0 00-2.76 5.5c0 .22 0 .63.08.66a1 1 0 00.79 0 15.128 15.128 0 004.16-3.87 54.61 54.61 0 00-2.24-2.29h-.03zm2.33-.57c.69.54 1.47.86 2 .22A10.519 10.519 0 0041 19.46 14.75 14.75 0 0036.44 24l-.03-.01zm-6.58 5.61l2.41-5.26c-1.41 1.07-2.83 4.15-2.38 5.26h-.03zm16.05-2.55a14.409 14.409 0 00-.27 2.24 1.2 1.2 0 00.63 1A2.93 2.93 0 0048 30.2a18.487 18.487 0 002.88-1.68c.79-.53.71-.89-.15-1.23a2.3 2.3 0 00-.5-.18C48 26.62 47.44 24.88 47 23a2.35 2.35 0 00-.27-.57 4.19 4.19 0 01.37-.93c.4-.54.75-1.24 1.31-1.52 2.48-1.27 5-2.46 7.57-3.6.86-.39 2.88.48 3.37 1.3a1.36 1.36 0 01-.82 2.06c-.656.184-1.324.317-2 .4a17.22 17.22 0 00-7 3.19c.362.294.743.565 1.14.81a7.93 7.93 0 013.4 4.32 3 3 0 01-1.69 3.39 12.74 12.74 0 01-5.05 1.76c-2.46.14-3.59-1.61-3.25-3.39a17.664 17.664 0 011.34-3.31l.46.14z"/></g></svg>