<svg width="123" height="38" viewBox="0 0 123 38" fill="none" xmlns="http://www.w3.org/2000/svg"><mask id="svgo-text-tomato-21a" maskUnits="userSpaceOnUse" x="-2" y="-1" width="126" height="39"><path d="M115 19.5c-1.167.667-5.3 3.8-6.5 5C107 26 103 31 105 34c1.6 2.4 4.667-.333 6-2 2.667-3.167 7.2-10.3 6-11.5-1.2-1.2-2-.333-2.5 0-1.5 1.333-4.5 4.2-4.5 5 0 .8 1.333 2 2 2.5 1.167.167 4.3.1 7.5-1.5l3.5-2" stroke="#000" stroke-width="4"/><path d="M110 1l-10 14.5c-1.667 2.833-5.1 9-5.5 11-.5 2.5-1 4 0 6.5.8 2 2.667 2.167 3.5 2 .667-.167 2.6-.9 5-2.5s4.167-3.5 4.5-4" stroke="#000" stroke-width="5"/><path d="M92.5 12l20.5.5m-28.11 8c-.5-.833-2.7-2.3-5.5.5s-5.5 6.5-6.5 8c-1.167 1.333-3 4.3-1 5.5 2 1.2 10.5-8.833 14.5-14l-3 6.5c-.5 1.167-1.5 3.8-1.5 5 0 1.2 1 2.167 1.5 2.5h1.5l7.5-5.5M49 17.5l-12 19c4.167-4.5 13.8-14 19-16 2 1.5-.647 3.725-2.5 7-1.414 2.5-2.694 5.186-4 7C55 29 65.9 18.8 65.5 22c-1 2-7 10-5 12 1.6 1.6 8-2.5 9-2m-37-12c-1.167.667-4.8 3.3-6 4.5C25 26 21 31 23 34c1.6 2.4 4.667-.333 6-2 2.667-3.167 7.2-10.3 6-11.5-1.2-1.2-2.5-.333-3 0-1.5 1.333-4 4.2-4 5 0 .8 1.333 2 2 2.5 1.167.167 4.3.1 7.5-1.5l3.5-2" stroke="#000" stroke-width="4"/><path d="M27 2C20.167 12 8 30 8 37.5" stroke="#000" stroke-width="5"/><path d="M0 6.5c.667.667 4 2.1 8 .5 5.5-1.5 25.5-5.5 30-4.5s5 3.5 5.5 4" stroke="#000" stroke-width="4"/></mask><g mask="url(#svgo-text-tomato-21a)" fill="#D50057"><path d="M57.22 25.35c1.62-1.23 3.24-2.46 4.87-3.67.482-.364.987-.698 1.51-1 1.33-.78 2-.78 3.05.33a2.359 2.359 0 01.31 1.79 6.582 6.582 0 01-1 2.06c-1.51 2.39-3.07 4.75-4.58 7.15a3.647 3.647 0 00-.28 1.08c.373.063.752.086 1.13.07a23.07 23.07 0 008-3.4c.433-.321.795-.73 1.06-1.2.93-1.37 1.79-2.79 2.75-4.14a14.366 14.366 0 012.1-2.42 64.683 64.683 0 014.65-3.78 2.452 2.452 0 013.83.94 1.6 1.6 0 00.42.35c.8.62 1.89.95 2.15 2.07a2.628 2.628 0 010 1.55c-1.26 3-2.58 5.91-3.87 8.86-.082.26-.13.528-.14.8.32 0 .7.18 1 0 1.37-.66 2.71-1.4 4.07-2.07.34-.17.7-.77 1.16-.07a4.726 4.726 0 001-.39l.15.43a1.83 1.83 0 001.73-1.88c.33-3.56 2.17-6.58 3.76-9.67.93-1.81 2.07-3.51 3.11-5.27.14-.24.25-.49.52-1-1.12.1-2 .21-2.93.25a11.61 11.61 0 01-2.36-.07 2.091 2.091 0 01-1.67-2.59 2.83 2.83 0 002.5.76h4.94a1.3 1.3 0 00.89-.35 24.39 24.39 0 001.58-2.41c1-1.59 1.88-3.21 2.83-4.81.47-.8.91-1.62 1.44-2.38a1.205 1.205 0 01.911-.51 1.211 1.211 0 01.969.39c.24.21.61.3.79.54a2.405 2.405 0 01.622 1.818 2.407 2.407 0 01-.912 1.692 45.49 45.49 0 00-3.11 4.25c-.27.36-.62.65-.92 1-.11.12-.27.28-.24.38.03.1.21.24.36.29.188.053.384.077.58.07 1.84 0 3.67-.08 5.51-.08a.827.827 0 01.62.36c.248.497.429 1.025.54 1.57.08.41-.15.54-.63.48-1.36-.19-2.73-.32-4.1-.4-1.37-.08-2.66-.05-4 0a1.102 1.102 0 00-.79.3A40.37 40.37 0 0099.88 18c-.44.83-1.27 1.44-1.45 2.35-.29 1.45-1.31 2.49-1.89 3.77-.07.17-.18.44-.11.53.67.85-.1 1.38-.4 2-.14.264-.24.547-.3.84-.17 1-.33 2-.45 3a17.29 17.29 0 00-.11 2 1 1 0 001.17 1.15 4.66 4.66 0 001.8-.36c1.64-.83 3.23-1.76 4.81-2.7.26-.15.39-.55.53-.86.54-1.1 1-2.26 1.59-3.3a24.498 24.498 0 014.47-5.17c.52-.48 1.07-.94 1.57-1.44 1.39-1.37 3.21-1.61 5-1.75 1.79-.14 3.14 2 2.67 3.76a28.957 28.957 0 01-1.2 3.16c-.11.28-.24.55-.35.82l.17.28 5.44-1.93.06.19-3 1.24 1.87.28c-.35.25-.71.47-1 .74a9.74 9.74 0 01-3.46 2.22c-.504.174-1.018.314-1.54.42a2.728 2.728 0 00-2 1.25 26.068 26.068 0 01-2.52 3.58 5.946 5.946 0 01-4.12 2.26 2.692 2.692 0 01-2.2-1.11 22.29 22.29 0 01-1.3-1.91c-1 .67-2 1.39-3.07 2.14a4.88 4.88 0 01-6.54-1.36c-.65-1.11-1.27-2.24-1.84-3.26-1.09 1-2.22 2-3.38 3A10.21 10.21 0 0184.58 36c-1.22.34-2.1-.41-2.87-1.11a4.8 4.8 0 01-1.3-2.06 9.251 9.251 0 01-.18-2.48 1.648 1.648 0 000-.78c-.45.53-.88 1.08-1.36 1.57-1.32 1.37-2.63 2.74-4 4a2.91 2.91 0 01-5-1.48 4.061 4.061 0 01-.22-1.45c0-.45.34-.87.38-1.46l-1.12.72.54.36L68 33.58l.42.14a8.07 8.07 0 01-5.34 2.1c-3.11.3-3.93-1.29-4.31-3.73-.32-2 .84-3.46 1.7-5 .39-.71.86-1.37 1.24-2.1a80.925 80.925 0 00-11.18 10.34c-.18-.14-.5-.36-.8-.61a2.06 2.06 0 01-.59-2.66c.41-.8.92-1.56 1.38-2.34.12-.19.33-.37.36-.57.28-1.78 1.56-3 2.51-4.37.5-.73 1-1.48 1.44-2.22l-.23-.21c-.2.1-.41.2-.61.32a44.44 44.44 0 00-8.53 7c-1.75 1.74-3.56 3.41-5.27 5.19a11.948 11.948 0 00-1.4 2.14 2.73 2.73 0 01-2.1-2.45.78.78 0 01.14-.54 14.72 14.72 0 003.55-5.32c1.72-3.8 4.21-7.12 6.13-10.78a1.65 1.65 0 012.25-.58 1.77 1.77 0 011 2.11 9.996 9.996 0 01-1 2c-1.08 1.7-2.2 3.39-3.18 5.21.18-.15.36-.29.53-.45a32.559 32.559 0 017.89-6 2.79 2.79 0 013.32.22 3.58 3.58 0 01.42 3.69c-.19.39-.42.77-.63 1.15l.11.09zm14.58 8.3l.27.24a7.35 7.35 0 001-.65c1.27-1.23 2.46-2.55 3.78-3.71a6.61 6.61 0 002.05-2.32c.06-.14.27-.22.43-.3.16-.08.48-.1.49-.17a2.12 2.12 0 011.68-1.83c.64-.22.65-1.22 1.34-1.59.25-.13.31-.62.48-.94.25-.48.53-1 .85-1.51a3 3 0 00-2.22.66 31.383 31.383 0 00-6.3 6 36.001 36.001 0 00-3 4.22 12.003 12.003 0 00-.85 1.9zm37.2-7.09a13.158 13.158 0 00-3.21 6.28c-.13.63.15.85.77.65a1.14 1.14 0 00.38-.19c1.45-1.35 2.9-2.69 4.33-4.06a.694.694 0 00-.11-.62c-.71-.69-1.43-1.34-2.16-2.06zm7.42-5.19l-.24-.15a2.14 2.14 0 00-.49.28c-1.26 1.22-2.51 2.44-3.73 3.7a4.202 4.202 0 00-.54 1.08c.481.192.98.333 1.49.42.23 0 .56-.25.73-.48a25.55 25.55 0 001.57-2.31c.43-.82.79-1.69 1.18-2.54h.03zm-15.8-8.23c-1.69.8-7.62 12.62-7.29 14.56a59.45 59.45 0 017.26-14.56h.03zM94.2 27.06c1.65-4.53 4.17-8.61 6.51-12.77a50.473 50.473 0 00-6.51 12.77zm-48.7.43l7.91-6.38a28.35 28.35 0 00-7.91 6.38zm-7.7 6.91l.28.2 5-8-.21-.13c-1.68 2.64-3.37 5.283-5.07 7.93zm24-6.95c-1.29.75-2.81 3.85-2.29 4.86l2.29-4.86zm-11.57 4.87c1.52-1.33 2.07-3.26 3.09-4.9a17.56 17.56 0 00-3.07 4.9h-.02zm5.78-5.2l.22.26 5.13-4.55-.16-.19-5.19 4.48zm48.16-14.82v.16H111v-.16h-6.83zM58.76 25.63l.14.17 4.27-3.41-.16-.21-4.25 3.45zm48.35.85l-.27-.22c-.55.78-1.09 1.57-1.63 2.36l.28.19 1.62-2.33zm-71.62-.37l5.36-1.93.07.2-3 1.24 1.84.27a9.174 9.174 0 00-.94.7 10.35 10.35 0 01-5.56 2.83 2 2 0 00-1.18.73c-1 1.27-1.74 2.72-2.81 3.89s-2.51 2.41-4.42 2.3c-1.39-.07-2.91-1.84-3.27-3.52a7.452 7.452 0 011.13-5.91 29.3 29.3 0 017.46-7.8 6.45 6.45 0 014.44-1 3.09 3.09 0 012.22 3.75C36.5 23 36 24 35.59 25l-.33.81.23.3zm-8.49.46a13 13 0 00-3.21 6.4c-.1.53.22.67.66.54a2.07 2.07 0 00.83-.4c1.333-1.26 2.667-2.54 4-3.84a.66.66 0 000-.62c-.77-.65-1.52-1.37-2.28-2.08zm7.44-5.19l-.22-.16c-.18.068-.352.159-.51.27-1.27 1.24-2.54 2.48-3.78 3.76a4.003 4.003 0 00-.51 1c.382.208.793.356 1.22.44a1.41 1.41 0 001-.47 18.752 18.752 0 001.58-2.3c.46-.81.78-1.69 1.22-2.54zm-12 11.08c.15-2.36 1.59-4.12 2.76-6.2-1.85 1.2-3.57 5-2.76 6.2zm-7.77-15.04c-2.78 5.1-6.15 9.92-7.52 15.69 4-9.16 9.4-17.51 14.46-26.08l-.86 1.09-.29-.24 1.78-2.77c-2.57.55-4.9 1-7.21 1.55-3.17.72-6.33 1.51-9.5 2.21a8.17 8.17 0 01-2.37.06c-1.2-.11-1.61-.53-1.91-1.7-.11-.46-.2-.92-.33-1.52 2 1.38 4 .66 5.94.26 3.68-.77 7.32-1.7 11-2.52 1.82-.41 3.66-.73 5.49-1.12a1.34 1.34 0 00.66-.42 1.59 1.59 0 012-.35c.298.133.625.188.95.16 2.68-.23 5.36-.65 8-.69 2.094.058 4.18.275 6.24.65a4.24 4.24 0 011.59.76c.19.12.23.5.32.76.035.173.082.343.14.51.65 1.19.54 1.85-.66 3a5.615 5.615 0 01-.7-1.28 1.56 1.56 0 00-1.21-1.25 22.76 22.76 0 00-8-.58c-1.08.06-2.15.18-3.23.25a1.77 1.77 0 00-1.64.89 27.996 27.996 0 01-2.18 2.33c-1 1.29-2 2.63-2.86 4-1.37 2-2.73 4.11-4 6.23-2.32 3.92-4.63 7.85-6.79 11.86a34.312 34.312 0 00-2.06 5.36 6 6 0 000 1.79c0 .32.07.85-.06.91a1.35 1.35 0 01-1.09.06 2.69 2.69 0 01-1.6-2 1.81 1.81 0 00-.3-.87 1.57 1.57 0 01-.2-1.68c.674-2 1.451-3.962 2.33-5.88 1.55-3.06 3.32-6 5-9 .13-.203.277-.394.44-.57l.23.14zm12.52-15c.44.63.46.57 1.74.4a40.69 40.69 0 019.74-.34c.8.045 1.6.045 2.4 0-4.62-1.1-9.22-.61-13.88-.09v.03zm-14.32 3v.24c.332.04.668.04 1 0 2.92-.58 5.83-1.18 8.73-1.8.286-.122.55-.29.78-.5l-.15-.28-10.36 2.34zm23.26-2.54v-.27l-7.93.56v.22l7.93-.51zm-16.73 2l.06.31 3.1-.6-.06-.31-3.1.6zm-.34.4c0-.11-.05-.21-.07-.31l-3.37.85v.19l3.44-.73z"/></g></svg>