<svg xmlns="http://www.w3.org/2000/svg" width="24" height="24" viewBox="0 0 24 24">
    <path fill="#FFF" d="M20.799 0H2.897C1.3 0 0 1.3 0 2.897v12.815c0 1.597 1.3 2.897 2.897 2.897H4.32l1.318 4.746c.086.308.332.546.644.62.068.017.137.025.205.025.244 0 .48-.102.65-.286l4.68-5.105h8.98c1.598 0 2.898-1.3 2.898-2.897V2.897C23.696 1.3 22.396 0 20.799 0zM6.206 10.585c-.753 0-1.365-.613-1.365-1.366 0-.753.612-1.366 1.365-1.366.754 0 1.367.613 1.367 1.366 0 .753-.613 1.366-1.367 1.366zm5.642 0c-.754 0-1.366-.613-1.366-1.366 0-.753.612-1.366 1.366-1.366.753 0 1.366.613 1.366 1.366 0 .753-.613 1.366-1.366 1.366zm5.64 0c-.752 0-1.365-.613-1.365-1.366 0-.753.613-1.366 1.366-1.366.753 0 1.366.613 1.366 1.366 0 .753-.613 1.366-1.366 1.366z"/>
</svg>
