<svg xmlns="http://www.w3.org/2000/svg" width="24" height="24" viewBox="0 0 24 24">
    <g>
        <path d="M7.273 8.492c-.314 0-.569.226-.569.505v1.417H1.138V1.012h5.566v1.416c0 .28.255.506.57.506.314 0 .568-.227.568-.506V.506c0-.28-.254-.506-.569-.506H.57C.255 0 0 .226 0 .506V10.92c0 .279.255.505.57.505h6.703c.315 0 .57-.226.57-.505V8.997c0-.279-.255-.505-.57-.505z" transform="translate(6 6)"/>
        <path d="M11.356 5.273l-1.53-1.359c-.221-.197-.582-.197-.804 0-.222.198-.222.518 0 .715l.558.496H4.866c-.314 0-.57.227-.57.506 0 .28.255.506.57.506H9.58l-.558.495c-.222.198-.222.518 0 .716.222.197.583.197.805 0l1.529-1.36c.115-.101.163-.22.167-.357 0-.136-.065-.268-.167-.358z" transform="translate(6 6)"/>
    </g>
</svg>
