<svg xmlns="http://www.w3.org/2000/svg" width="24" height="24" viewBox="0 0 24 24">
    <path fill="#1D1E29" d="M22.644 6.868c.329.183.429.569.223.861-1.283 1.823-2.866 3.178-4.738 4.058.04.02.08.045.115.075l.074.07 2.137 2.374c.253.281.23.715-.05.968-.257.23-.638.233-.896.02l-.074-.07-2.137-2.374c-.167-.186-.214-.437-.146-.66-1.32.486-2.774.755-4.355.808.047.075.079.163.091.257l.007.093v3.194c0 .378-.307.685-.686.685-.347 0-.634-.258-.68-.592l-.006-.093v-3.194c0-.129.035-.25.097-.352-1.707-.055-3.288-.356-4.741-.901.025.165-.012.34-.112.485l-.064.079-2.178 2.336c-.259.277-.693.292-.97.034-.252-.235-.287-.615-.097-.89l.063-.08L5.7 11.723c.031-.034.066-.064.102-.09-1.758-.845-3.308-2.083-4.64-3.707-.23-.279-.161-.67.152-.873.313-.204.753-.143.981.136 2.512 3.06 5.803 4.572 9.935 4.568 4.116-.003 7.239-1.554 9.446-4.691.206-.293.64-.381.968-.198z"/>
</svg>
