<svg xmlns="http://www.w3.org/2000/svg" width="24" height="24" viewBox="0 0 24 24">
    <g fill="#1D1E29">
        <path d="M21.85 5.612C16.867-1.832 5.078-1.82.104 5.612c-.139.207-.139.468 0 .675 4.974 7.433 16.77 7.433 21.746 0 .138-.207.138-.468 0-.675zM1.54 5.95c4.496-6.169 14.38-6.166 18.874 0-4.495 6.167-14.38 6.167-18.874 0z" transform="translate(1 6)"/>
        <path d="M10.855 2.653c-1.776 0-3.216 1.44-3.216 3.216 0 1.776 1.44 3.215 3.216 3.215 1.776 0 3.216-1.44 3.216-3.215 0-1.777-1.44-3.216-3.216-3.216zm0 1.373c1.017 0 1.843.825 1.843 1.843 0 1.017-.826 1.842-1.843 1.842-1.018 0-1.843-.825-1.843-1.842 0-1.018.825-1.843 1.843-1.843z" transform="translate(1 6)"/>
    </g>
</svg>
