<svg xmlns="http://www.w3.org/2000/svg" width="24" height="24" viewBox="0 0 24 24">
    <path fill="#FFF" d="M15.516 12.994l7.278 7.232c-.275.132-.579.212-.903.212H2.109c-.324 0-.628-.08-.903-.212l7.278-7.232 1.03 1.03c1.37 1.37 3.601 1.37 4.972 0l1.03-1.03zm8.273-8.226c.131.275.211.58.211.904v12.656c0 .325-.08.629-.211.904L16.509 12zm-23.578 0L7.491 12 .21 19.232C.08 18.957 0 18.652 0 18.328V5.672c0-.325.08-.629.211-.904zm21.68-1.205c.324 0 .628.08.903.21l-9.303 9.257c-.822.823-2.16.823-2.982 0L1.206 3.774c.275-.132.579-.212.903-.212z"/>
</svg>
