<svg xmlns="http://www.w3.org/2000/svg" width="16" height="16" viewBox="0 0 16 16">
    <path fill="#FFF" d="M8 7.762c1.86 0 3.548.399 4.822 1.125C14.096 9.612 15 10.73 15 12.069v2.77c0 .34-.273.615-.609.615H1.61c-.336 0-.609-.276-.609-.615v-2.77c0-1.339.904-2.457 2.178-3.182C4.452 8.16 6.141 7.762 8 7.762zm0 1.23c-1.681 0-3.186.381-4.223.972-1.036.59-1.56 1.323-1.56 2.105v2.154h11.566V12.07c0-.782-.524-1.515-1.56-2.105-1.037-.59-2.542-.972-4.223-.972zm.027-8.43c1.733 0 3.138 1.405 3.138 3.138 0 1.733-1.405 3.138-3.138 3.138-1.734 0-3.138-1.405-3.138-3.138 0-1.733 1.404-3.138 3.138-3.138zm0 1.3c-1.016 0-1.838.823-1.838 1.838 0 1.015.822 1.838 1.838 1.838 1.015 0 1.838-.823 1.838-1.838 0-1.015-.823-1.838-1.838-1.838z"/>
</svg>
