<?xml version="1.0" encoding="UTF-8"?>
<svg width="220px" height="22px" viewBox="0 0 220 22" version="1.1" xmlns="http://www.w3.org/2000/svg" xmlns:xlink="http://www.w3.org/1999/xlink">
    <!-- Generator: Sketch 61.2 (89653) - https://sketch.com -->
    <title>Group</title>
    <desc>Created with Sketch.</desc>
    <g id="Page-1" stroke="none" stroke-width="1" fill="none" fill-rule="evenodd">
        <g id="Artboard" transform="translate(-5.000000, -9.000000)">
            <g id="Group" transform="translate(5.000000, 9.000000)">
                <rect id="Rectangle" fill="#000000" x="174.5" y="0" width="45" height="22"></rect>
                <path d="M10.8,21 L10.8,4.6 L18,4.6 L18,0.5 L7.10542736e-15,0.5 L7.10542736e-15,4.6 L7.2,4.6 L7.2,21 L10.8,21 Z M35.6425532,17 L35.6425532,21 L39.2425532,21 L39.2425532,17 L35.6425532,17 Z M35.6425532,8.5 L24.8425532,8.5 L24.8425532,4.5 L35.6425532,4.5 L35.6425532,8.5 Z M35.6425532,16.9 L35.6425532,12.8 L39.2425532,12.8 L39.2425532,0.5 L21.2425532,0.5 L21.2425532,21 L24.8425532,21 L24.8425532,12.8 L32.0425532,12.8 L32.0425532,16.9 L35.6425532,16.9 Z M53.3361702,0.5 L49.7361702,0.5 L46.1617021,0.5 L42.587234,0.5 L42.587234,4.59415121 L42.587234,8.68830243 L42.587234,12.8116976 L42.587234,16.9058488 L42.587234,21 L46.1617021,21 L46.1617021,16.9058488 L46.1617021,12.8116976 L49.7361702,12.8116976 L53.3361702,12.8116976 L56.9106383,12.8116976 L56.9106383,16.9058488 L56.9106383,21 L60.4851064,21 L60.4851064,16.9058488 L60.4851064,12.8116976 L60.4851064,8.68830243 L60.4851064,4.59415121 L60.4851064,0.5 L56.9106383,0.5 L53.3361702,0.5 Z M49.7361702,4.5 L53.3361702,4.5 L56.9106383,4.5 L56.9106383,9 L53.3361702,9 L49.7361702,9 L46.1617021,9 L46.1617021,4.5 L49.7361702,4.5 Z M81.7276596,21 L81.7276596,16.9058488 L74.5787234,16.9058488 L74.5787234,4.59415121 L81.7276596,4.59415121 L81.7276596,0.5 L63.8297872,0.5 L63.8297872,4.59415121 L70.9787234,4.59415121 L70.9787234,16.9058488 L63.8297872,16.9058488 L63.8297872,21 L81.7276596,21 Z M95.9744681,12.8116976 L95.9744681,16.9058488 L99.5489362,16.9058488 L99.5489362,21 L103.123404,21 L103.123404,0.5 L99.5489362,0.5 L99.5489362,12.8116976 L95.9744681,12.8116976 Z M92.3744681,8.68830243 L92.3744681,4.59415121 L88.8,4.59415121 L88.8,0.5 L85.2255319,0.5 L85.2255319,21 L88.8,21 L88.8,8.68830243 L92.3744681,8.68830243 Z M95.9744681,13 L95.9744681,9 L92.3744681,9 L92.3744681,13 L95.9744681,13 Z M124.468085,21 L124.468085,16.9058488 L117.319149,16.9058488 L117.319149,4.59415121 L124.468085,4.59415121 L124.468085,0.5 L106.570213,0.5 L106.570213,4.59415121 L113.719149,4.59415121 L113.719149,16.9058488 L106.570213,16.9058488 L106.570213,21 L124.468085,21 Z M138.714894,12.8116976 L138.714894,16.9058488 L142.289362,16.9058488 L142.289362,21 L145.86383,21 L145.86383,0.5 L142.289362,0.5 L142.289362,12.8116976 L138.714894,12.8116976 Z M135.114894,8.68830243 L135.114894,4.59415121 L131.540426,4.59415121 L131.540426,0.5 L127.965957,0.5 L127.965957,21 L131.540426,21 L131.540426,8.68830243 L135.114894,8.68830243 Z M138.714894,13 L138.714894,9 L135.114894,9 L135.114894,13 L138.714894,13 Z M163.659574,16.9116809 L160.059574,16.9116809 L156.485106,16.9116809 L152.885106,16.9116809 L152.885106,12.7941595 L152.885106,8.70584046 L152.885106,4.58831909 L156.485106,4.58831909 L160.059574,4.58831909 L163.659574,4.58831909 L167.234043,4.58831909 L167.234043,0.5 L163.659574,0.5 L160.059574,0.5 L156.485106,0.5 L152.885106,0.5 L149.310638,0.5 L149.310638,4.58831909 L149.310638,8.70584046 L149.310638,12.7941595 L149.310638,16.9116809 L149.310638,21 L152.885106,21 L156.485106,21 L160.059574,21 L163.659574,21 L167.234043,21 L167.234043,16.9116809 L167.234043,12.7941595 L167.234043,8.70584046 L163.659574,8.70584046 L160.059574,8.70584046 L156.485106,8.70584046 L156.485106,12.7941595 L160.059574,12.7941595 L163.659574,12.7941595 L163.659574,16.9116809 Z" id="TrainingVR-Copy" fill="#000000" fill-rule="nonzero"></path>
                <polygon id="Path" fill="#89C235" fill-rule="nonzero" points="179.5 8.81534421 179.5 12.0435628 182.728219 12.0435628 182.728219 8.81534421 182.728219 5.58712561 182.728219 2.35890701 179.5 2.35890701 179.5 5.58712561"></polygon>
                <polygon id="Path" fill="#89C235" fill-rule="nonzero" points="192.412874 12.0435628 189.184656 12.0435628 189.184656 15.2717814 192.412874 15.2717814"></polygon>
                <polygon id="Path" fill="#89C235" fill-rule="nonzero" points="185.956437 15.2717814 185.956437 12.0435628 182.728219 12.0435628 182.728219 15.2717814"></polygon>
                <polygon id="Path" fill="#89C235" fill-rule="nonzero" points="192.412874 12.0435628 195.641093 12.0435628 195.641093 8.81534421 195.641093 5.58712561 195.641093 2.35890701 192.412874 2.35890701 192.412874 5.58712561 192.412874 8.81534421"></polygon>
                <polygon id="Path" fill="#89C235" fill-rule="nonzero" points="185.956437 15.2717814 185.956437 18.5 189.184656 18.5 189.184656 15.2717814"></polygon>
                <polygon id="Path" fill="#89C235" fill-rule="nonzero" points="211.553234 15.2717814 211.553234 18.5 214.781453 18.5 214.781453 15.2717814"></polygon>
                <polygon id="Path" fill="#000000" fill-rule="nonzero" points="211.553234 8.81534421 201.868579 8.81534421 201.868579 5.58712561 211.553234 5.58712561"></polygon>
                <polygon id="Path" fill="#89C235" fill-rule="nonzero" points="211.553234 15.2717814 211.553234 12.0435628 214.781453 12.0435628 214.781453 2.35890701 198.64036 2.35890701 198.64036 18.5 201.868579 18.5 201.868579 12.0435628 208.325016 12.0435628 208.325016 15.2717814"></polygon>
                <rect id="Rectangle" fill="#000000" x="202" y="5" width="9" height="4"></rect>
            </g>
        </g>
    </g>
</svg>