<svg id="923afb63-7794-4523-8d50-db988216b9d5" data-name="Слой 1" xmlns="http://www.w3.org/2000/svg" xmlns:xlink="http://www.w3.org/1999/xlink" viewBox="0 0 150 150">
  <defs>
    <style>
      .\38 086510a-5c80-42b0-8736-8e8ab692530f {
        fill: #fff;
      }

      .c30dbb96-e044-41ac-b9cd-e93c4ad6d37e {
        opacity: 0.58;
      }

      .d51b96ac-7dbd-4195-bc1c-199e6c5524e9 {
        fill: url(#777104bf-d28f-4362-857a-6f5f065486c3);
      }
    </style>
    <radialGradient id="777104bf-d28f-4362-857a-6f5f065486c3" data-name="Безымянный градиент 3" cx="75" cy="77" r="73.83" gradientTransform="matrix(1, 0, 0, -1, 0, 152)" gradientUnits="userSpaceOnUse">
      <stop offset="0" stop-color="#3b00dd"/>
      <stop offset="0.46" stop-color="#3b00dd" stop-opacity="0.91"/>
      <stop offset="1" stop-color="#3b00dd" stop-opacity="0"/>
    </radialGradient>
  </defs>
  <title>ua</title>
  <rect class="8086510a-5c80-42b0-8736-8e8ab692530f" width="150" height="150"/>
  <g class="c30dbb96-e044-41ac-b9cd-e93c4ad6d37e">
    <path class="d51b96ac-7dbd-4195-bc1c-199e6c5524e9" d="M6.57,3.34a2.21,2.21,0,0,1,4.41,0,2.21,2.21,0,0,1-4.41,0Zm0,8.69A2.21,2.21,0,1,1,8.78,14.2,2.19,2.19,0,0,1,6.57,12Zm0,8.68a2.21,2.21,0,1,1,2.21,2.18A2.19,2.19,0,0,1,6.57,20.71Zm0,8.69a2.21,2.21,0,1,1,2.21,2.17A2.19,2.19,0,0,1,6.57,29.4Zm0,8.69a2.21,2.21,0,1,1,2.21,2.18A2.2,2.2,0,0,1,6.57,38.09Zm0,8.68a2.21,2.21,0,1,1,2.21,2.17A2.19,2.19,0,0,1,6.57,46.77Zm0,8.69a2.21,2.21,0,1,1,2.21,2.17A2.19,2.19,0,0,1,6.57,55.46Zm0,8.68a2.21,2.21,0,1,1,2.21,2.17A2.19,2.19,0,0,1,6.57,64.14Zm0,8.69A2.21,2.21,0,1,1,8.78,75,2.19,2.19,0,0,1,6.57,72.83Zm0,8.69A2.21,2.21,0,1,1,8.78,83.7a2.2,2.2,0,0,1-2.21-2.18Zm0,8.68a2.21,2.21,0,1,1,2.21,2.17A2.19,2.19,0,0,1,6.57,90.2Zm0,8.69a2.21,2.21,0,1,1,2.21,2.18A2.19,2.19,0,0,1,6.57,98.89Zm0,8.68a2.21,2.21,0,1,1,2.21,2.17A2.19,2.19,0,0,1,6.57,107.57Zm0,8.69a2.21,2.21,0,1,1,2.21,2.17A2.19,2.19,0,0,1,6.57,116.26Zm0,8.69a2.21,2.21,0,1,1,2.21,2.18A2.2,2.2,0,0,1,6.57,125Zm0,8.68a2.21,2.21,0,1,1,2.21,2.17A2.19,2.19,0,0,1,6.57,133.63Zm0,8.69a2.21,2.21,0,1,1,2.21,2.18A2.2,2.2,0,0,1,6.57,142.32ZM15.4,7.69a2.21,2.21,0,1,1,2.21,2.18A2.2,2.2,0,0,1,15.4,7.69Zm0,8.68a2.21,2.21,0,1,1,2.21,2.17,2.19,2.19,0,0,1-2.21-2.17Zm0,8.69a2.21,2.21,0,1,1,2.21,2.18,2.19,2.19,0,0,1-2.21-2.18Zm0,8.68a2.21,2.21,0,1,1,2.21,2.17,2.19,2.19,0,0,1-2.21-2.17Zm0,8.69a2.21,2.21,0,1,1,2.21,2.17,2.19,2.19,0,0,1-2.21-2.17Zm0,8.69a2.21,2.21,0,1,1,2.21,2.18,2.2,2.2,0,0,1-2.21-2.18Zm0,8.68A2.21,2.21,0,1,1,17.61,62,2.19,2.19,0,0,1,15.4,59.8Zm0,8.69a2.21,2.21,0,1,1,2.21,2.18,2.2,2.2,0,0,1-2.21-2.18Zm0,8.68a2.21,2.21,0,1,1,2.21,2.17,2.19,2.19,0,0,1-2.21-2.17Zm0,8.69A2.21,2.21,0,1,1,17.61,88a2.19,2.19,0,0,1-2.21-2.17Zm0,8.68a2.21,2.21,0,1,1,2.21,2.18,2.19,2.19,0,0,1-2.21-2.18Zm0,8.69a2.21,2.21,0,1,1,2.21,2.17,2.19,2.19,0,0,1-2.21-2.17Zm0,8.69a2.21,2.21,0,1,1,2.21,2.18,2.2,2.2,0,0,1-2.21-2.18Zm0,8.68a2.21,2.21,0,1,1,2.21,2.17,2.19,2.19,0,0,1-2.21-2.17Zm0,8.69a2.21,2.21,0,1,1,2.21,2.17,2.19,2.19,0,0,1-2.21-2.17Zm0,8.68a2.21,2.21,0,1,1,2.21,2.17A2.19,2.19,0,0,1,15.4,138Zm0,8.69a2.21,2.21,0,1,1,2.21,2.17,2.19,2.19,0,0,1-2.21-2.17ZM24.23,3.34a2.21,2.21,0,1,1,2.21,2.17A2.19,2.19,0,0,1,24.23,3.34Zm0,8.69a2.21,2.21,0,1,1,2.21,2.17A2.19,2.19,0,0,1,24.23,12Zm0,8.68a2.21,2.21,0,1,1,2.21,2.17A2.19,2.19,0,0,1,24.23,20.71Zm0,8.69a2.21,2.21,0,1,1,2.21,2.17A2.19,2.19,0,0,1,24.23,29.4Zm0,8.69a2.21,2.21,0,1,1,2.21,2.18A2.2,2.2,0,0,1,24.23,38.09Zm0,8.68a2.21,2.21,0,1,1,2.21,2.17A2.19,2.19,0,0,1,24.23,46.77Zm0,8.69a2.21,2.21,0,1,1,2.21,2.17A2.2,2.2,0,0,1,24.23,55.46Zm0,8.68a2.21,2.21,0,1,1,2.21,2.17A2.19,2.19,0,0,1,24.23,64.14Zm0,8.69A2.21,2.21,0,1,1,26.44,75,2.19,2.19,0,0,1,24.23,72.83Zm0,8.69a2.21,2.21,0,1,1,2.21,2.18,2.2,2.2,0,0,1-2.21-2.18Zm0,8.68a2.21,2.21,0,1,1,2.21,2.17A2.19,2.19,0,0,1,24.23,90.2Zm0,8.69a2.21,2.21,0,1,1,2.21,2.18A2.2,2.2,0,0,1,24.23,98.89Zm0,8.68a2.21,2.21,0,1,1,2.21,2.17A2.19,2.19,0,0,1,24.23,107.57Zm0,8.69a2.21,2.21,0,1,1,2.21,2.17A2.19,2.19,0,0,1,24.23,116.26Zm0,8.69a2.21,2.21,0,1,1,2.21,2.18A2.2,2.2,0,0,1,24.23,125Zm0,8.68a2.21,2.21,0,1,1,2.21,2.17A2.19,2.19,0,0,1,24.23,133.63Zm0,8.69a2.21,2.21,0,1,1,2.21,2.18A2.2,2.2,0,0,1,24.23,142.32ZM33.06,7.69a2.21,2.21,0,1,1,2.21,2.18,2.2,2.2,0,0,1-2.21-2.18Zm0,8.68a2.21,2.21,0,1,1,2.21,2.17,2.19,2.19,0,0,1-2.21-2.17Zm0,8.69a2.21,2.21,0,1,1,2.21,2.18,2.2,2.2,0,0,1-2.21-2.18Zm0,8.68a2.21,2.21,0,1,1,2.21,2.17,2.19,2.19,0,0,1-2.21-2.17Zm0,8.69a2.21,2.21,0,1,1,2.21,2.17,2.19,2.19,0,0,1-2.21-2.17Zm0,8.69a2.21,2.21,0,1,1,2.21,2.17,2.2,2.2,0,0,1-2.21-2.17Zm0,8.68A2.21,2.21,0,1,1,35.27,62a2.19,2.19,0,0,1-2.21-2.17Zm0,8.69a2.21,2.21,0,1,1,2.21,2.18,2.2,2.2,0,0,1-2.21-2.18Zm0,8.68a2.21,2.21,0,1,1,2.21,2.17,2.19,2.19,0,0,1-2.21-2.17Zm0,8.69A2.21,2.21,0,1,1,35.27,88a2.19,2.19,0,0,1-2.21-2.17Zm0,8.68a2.21,2.21,0,1,1,2.21,2.17,2.19,2.19,0,0,1-2.21-2.17Zm0,8.69a2.21,2.21,0,1,1,2.21,2.17,2.19,2.19,0,0,1-2.21-2.17Zm0,8.69a2.21,2.21,0,1,1,2.21,2.18,2.2,2.2,0,0,1-2.21-2.18Zm0,8.68a2.21,2.21,0,1,1,2.21,2.17,2.19,2.19,0,0,1-2.21-2.17Zm0,8.69a2.21,2.21,0,1,1,2.21,2.17,2.19,2.19,0,0,1-2.21-2.17Zm0,8.68a2.21,2.21,0,1,1,2.21,2.17A2.19,2.19,0,0,1,33.06,138Zm0,8.69a2.21,2.21,0,1,1,2.21,2.17,2.19,2.19,0,0,1-2.21-2.17ZM41.89,3.34a2.21,2.21,0,0,1,4.42,0,2.21,2.21,0,0,1-4.42,0Zm0,8.69A2.21,2.21,0,1,1,44.1,14.2,2.19,2.19,0,0,1,41.89,12Zm0,8.68a2.21,2.21,0,1,1,2.21,2.17A2.19,2.19,0,0,1,41.89,20.71Zm0,8.69a2.21,2.21,0,1,1,2.21,2.17A2.19,2.19,0,0,1,41.89,29.4Zm0,8.69a2.21,2.21,0,1,1,2.21,2.18A2.2,2.2,0,0,1,41.89,38.09Zm0,8.68a2.21,2.21,0,1,1,2.21,2.17A2.19,2.19,0,0,1,41.89,46.77Zm0,8.69a2.21,2.21,0,1,1,2.21,2.17A2.2,2.2,0,0,1,41.89,55.46Zm0,8.68a2.21,2.21,0,1,1,2.21,2.17A2.19,2.19,0,0,1,41.89,64.14Zm0,8.69A2.21,2.21,0,1,1,44.1,75,2.19,2.19,0,0,1,41.89,72.83Zm0,8.69A2.21,2.21,0,1,1,44.1,83.7a2.2,2.2,0,0,1-2.21-2.18Zm0,8.68a2.21,2.21,0,1,1,2.21,2.17A2.19,2.19,0,0,1,41.89,90.2Zm0,8.69a2.21,2.21,0,1,1,2.21,2.18A2.2,2.2,0,0,1,41.89,98.89Zm0,8.68a2.21,2.21,0,1,1,2.21,2.17A2.19,2.19,0,0,1,41.89,107.57Zm0,8.69a2.21,2.21,0,1,1,2.21,2.17A2.19,2.19,0,0,1,41.89,116.26Zm0,8.69a2.21,2.21,0,1,1,2.21,2.18A2.2,2.2,0,0,1,41.89,125Zm0,8.68a2.21,2.21,0,1,1,2.21,2.17A2.19,2.19,0,0,1,41.89,133.63Zm0,8.69a2.21,2.21,0,1,1,2.21,2.18A2.2,2.2,0,0,1,41.89,142.32ZM50.72,7.69a2.21,2.21,0,1,1,2.21,2.18A2.2,2.2,0,0,1,50.72,7.69Zm0,8.68a2.21,2.21,0,1,1,2.21,2.17A2.19,2.19,0,0,1,50.72,16.37Zm0,8.69a2.21,2.21,0,1,1,2.21,2.18A2.19,2.19,0,0,1,50.72,25.06Zm0,8.68a2.21,2.21,0,1,1,2.21,2.17A2.19,2.19,0,0,1,50.72,33.74Zm0,8.69a2.21,2.21,0,1,1,2.21,2.17A2.19,2.19,0,0,1,50.72,42.43Zm0,8.69a2.21,2.21,0,1,1,2.21,2.18A2.2,2.2,0,0,1,50.72,51.12Zm0,8.68A2.21,2.21,0,1,1,52.93,62a2.19,2.19,0,0,1-2.21-2.17Zm0,8.69a2.21,2.21,0,1,1,2.21,2.18A2.2,2.2,0,0,1,50.72,68.49Zm0,8.68a2.21,2.21,0,1,1,2.21,2.17,2.19,2.19,0,0,1-2.21-2.17Zm0,8.69A2.21,2.21,0,1,1,52.93,88,2.19,2.19,0,0,1,50.72,85.86Zm0,8.68a2.21,2.21,0,1,1,2.21,2.18A2.19,2.19,0,0,1,50.72,94.54Zm0,8.69a2.21,2.21,0,1,1,2.21,2.17A2.19,2.19,0,0,1,50.72,103.23Zm0,8.69a2.21,2.21,0,1,1,2.21,2.18A2.2,2.2,0,0,1,50.72,111.92Zm0,8.68a2.21,2.21,0,1,1,2.21,2.17A2.19,2.19,0,0,1,50.72,120.6Zm0,8.69a2.21,2.21,0,1,1,2.21,2.17A2.19,2.19,0,0,1,50.72,129.29Zm0,8.68a2.21,2.21,0,1,1,2.21,2.17A2.19,2.19,0,0,1,50.72,138Zm0,8.69a2.21,2.21,0,1,1,2.21,2.17A2.19,2.19,0,0,1,50.72,146.66ZM59.55,3.34a2.21,2.21,0,0,1,4.42,0,2.21,2.21,0,0,1-4.42,0Zm0,8.69a2.21,2.21,0,1,1,2.21,2.17A2.19,2.19,0,0,1,59.55,12Zm0,8.68a2.21,2.21,0,1,1,2.21,2.17,2.19,2.19,0,0,1-2.21-2.17Zm0,8.69a2.21,2.21,0,1,1,2.21,2.17,2.19,2.19,0,0,1-2.21-2.17Zm0,8.69a2.21,2.21,0,1,1,2.21,2.18,2.2,2.2,0,0,1-2.21-2.18Zm0,8.68a2.21,2.21,0,1,1,2.21,2.17,2.19,2.19,0,0,1-2.21-2.17Zm0,8.69a2.21,2.21,0,1,1,2.21,2.17,2.2,2.2,0,0,1-2.21-2.17Zm0,8.68a2.21,2.21,0,1,1,2.21,2.17,2.19,2.19,0,0,1-2.21-2.17Zm0,8.69A2.21,2.21,0,1,1,61.76,75a2.19,2.19,0,0,1-2.21-2.17Zm0,8.69a2.21,2.21,0,1,1,2.21,2.18,2.2,2.2,0,0,1-2.21-2.18Zm0,8.68a2.21,2.21,0,1,1,2.21,2.17,2.19,2.19,0,0,1-2.21-2.17Zm0,8.69a2.21,2.21,0,1,1,2.21,2.18,2.2,2.2,0,0,1-2.21-2.18Zm0,8.68a2.21,2.21,0,1,1,2.21,2.17,2.19,2.19,0,0,1-2.21-2.17Zm0,8.69a2.21,2.21,0,1,1,2.21,2.17,2.19,2.19,0,0,1-2.21-2.17Zm0,8.69a2.21,2.21,0,1,1,2.21,2.18A2.2,2.2,0,0,1,59.55,125Zm0,8.68a2.21,2.21,0,1,1,2.21,2.17,2.19,2.19,0,0,1-2.21-2.17Zm0,8.69a2.21,2.21,0,1,1,2.21,2.18,2.2,2.2,0,0,1-2.21-2.18ZM68.38,7.69a2.21,2.21,0,1,1,2.21,2.18A2.2,2.2,0,0,1,68.38,7.69Zm0,8.68a2.21,2.21,0,1,1,2.21,2.17A2.19,2.19,0,0,1,68.38,16.37Zm0,8.69a2.21,2.21,0,1,1,2.21,2.18A2.19,2.19,0,0,1,68.38,25.06Zm0,8.68a2.21,2.21,0,1,1,2.21,2.17A2.19,2.19,0,0,1,68.38,33.74Zm0,8.69a2.21,2.21,0,1,1,2.21,2.17A2.19,2.19,0,0,1,68.38,42.43Zm0,8.69a2.21,2.21,0,1,1,2.21,2.18A2.2,2.2,0,0,1,68.38,51.12Zm0,8.68A2.21,2.21,0,1,1,70.59,62a2.19,2.19,0,0,1-2.21-2.17Zm0,8.69a2.21,2.21,0,1,1,2.21,2.18A2.2,2.2,0,0,1,68.38,68.49Zm0,8.68a2.21,2.21,0,1,1,2.21,2.17,2.19,2.19,0,0,1-2.21-2.17Zm0,8.69A2.21,2.21,0,1,1,70.59,88,2.19,2.19,0,0,1,68.38,85.86Zm0,8.68a2.21,2.21,0,1,1,2.21,2.18A2.19,2.19,0,0,1,68.38,94.54Zm0,8.69a2.21,2.21,0,1,1,2.21,2.17A2.19,2.19,0,0,1,68.38,103.23Zm0,8.69a2.21,2.21,0,1,1,2.21,2.18A2.2,2.2,0,0,1,68.38,111.92Zm0,8.68a2.21,2.21,0,1,1,2.21,2.17A2.19,2.19,0,0,1,68.38,120.6Zm0,8.69a2.21,2.21,0,1,1,2.21,2.17A2.19,2.19,0,0,1,68.38,129.29Zm0,8.68a2.21,2.21,0,1,1,2.21,2.17A2.19,2.19,0,0,1,68.38,138Zm0,8.69a2.21,2.21,0,1,1,2.21,2.17A2.19,2.19,0,0,1,68.38,146.66ZM77.21,3.34a2.21,2.21,0,0,1,4.42,0,2.21,2.21,0,0,1-4.42,0Zm0,8.69a2.21,2.21,0,1,1,2.21,2.17A2.19,2.19,0,0,1,77.21,12Zm0,8.68a2.21,2.21,0,1,1,2.21,2.17,2.19,2.19,0,0,1-2.21-2.17Zm0,8.69a2.21,2.21,0,1,1,2.21,2.17,2.19,2.19,0,0,1-2.21-2.17Zm0,8.69a2.21,2.21,0,1,1,2.21,2.18,2.2,2.2,0,0,1-2.21-2.18Zm0,8.68a2.21,2.21,0,1,1,2.21,2.17,2.19,2.19,0,0,1-2.21-2.17Zm0,8.69a2.21,2.21,0,1,1,2.21,2.17,2.2,2.2,0,0,1-2.21-2.17Zm0,8.68a2.21,2.21,0,1,1,2.21,2.17,2.19,2.19,0,0,1-2.21-2.17Zm0,8.69A2.21,2.21,0,1,1,79.42,75a2.19,2.19,0,0,1-2.21-2.17Zm0,8.69a2.21,2.21,0,1,1,2.21,2.18,2.2,2.2,0,0,1-2.21-2.18Zm0,8.68a2.21,2.21,0,1,1,2.21,2.17,2.19,2.19,0,0,1-2.21-2.17Zm0,8.69a2.21,2.21,0,1,1,2.21,2.18,2.2,2.2,0,0,1-2.21-2.18Zm0,8.68a2.21,2.21,0,1,1,2.21,2.17,2.19,2.19,0,0,1-2.21-2.17Zm0,8.69a2.21,2.21,0,1,1,2.21,2.17,2.19,2.19,0,0,1-2.21-2.17Zm0,8.69a2.21,2.21,0,1,1,2.21,2.18A2.2,2.2,0,0,1,77.21,125Zm0,8.68a2.21,2.21,0,1,1,2.21,2.17,2.19,2.19,0,0,1-2.21-2.17Zm0,8.69a2.21,2.21,0,1,1,2.21,2.18,2.2,2.2,0,0,1-2.21-2.18ZM86,7.69a2.21,2.21,0,1,1,2.21,2.18A2.2,2.2,0,0,1,86,7.69Zm0,8.68a2.21,2.21,0,1,1,2.21,2.17A2.19,2.19,0,0,1,86,16.37Zm0,8.69a2.21,2.21,0,1,1,2.21,2.18A2.19,2.19,0,0,1,86,25.06Zm0,8.68a2.21,2.21,0,1,1,2.21,2.17A2.19,2.19,0,0,1,86,33.74Zm0,8.69a2.21,2.21,0,1,1,2.21,2.17A2.19,2.19,0,0,1,86,42.43Zm0,8.69a2.21,2.21,0,1,1,2.21,2.18A2.2,2.2,0,0,1,86,51.12Zm0,8.68A2.21,2.21,0,1,1,88.25,62,2.19,2.19,0,0,1,86,59.8Zm0,8.69a2.21,2.21,0,1,1,2.21,2.18A2.2,2.2,0,0,1,86,68.49Zm0,8.68a2.21,2.21,0,1,1,2.21,2.17A2.19,2.19,0,0,1,86,77.17Zm0,8.69A2.21,2.21,0,1,1,88.25,88,2.19,2.19,0,0,1,86,85.86Zm0,8.68a2.21,2.21,0,1,1,2.21,2.18A2.19,2.19,0,0,1,86,94.54Zm0,8.69a2.21,2.21,0,1,1,2.21,2.17A2.19,2.19,0,0,1,86,103.23Zm0,8.69a2.21,2.21,0,1,1,2.21,2.18A2.2,2.2,0,0,1,86,111.92Zm0,8.68a2.21,2.21,0,1,1,2.21,2.17A2.19,2.19,0,0,1,86,120.6Zm0,8.69a2.21,2.21,0,1,1,2.21,2.17A2.19,2.19,0,0,1,86,129.29ZM86,138a2.21,2.21,0,1,1,2.21,2.17A2.19,2.19,0,0,1,86,138Zm0,8.69a2.21,2.21,0,1,1,2.21,2.17A2.19,2.19,0,0,1,86,146.66ZM94.87,3.34a2.21,2.21,0,0,1,4.41,0,2.21,2.21,0,0,1-4.41,0Zm0,8.69a2.21,2.21,0,1,1,2.21,2.17A2.19,2.19,0,0,1,94.87,12Zm0,8.68a2.21,2.21,0,1,1,2.21,2.17A2.19,2.19,0,0,1,94.87,20.71Zm0,8.69a2.21,2.21,0,1,1,2.21,2.17A2.19,2.19,0,0,1,94.87,29.4Zm0,8.69a2.21,2.21,0,1,1,2.21,2.18A2.2,2.2,0,0,1,94.87,38.09Zm0,8.68a2.21,2.21,0,1,1,2.21,2.17A2.19,2.19,0,0,1,94.87,46.77Zm0,8.69a2.21,2.21,0,1,1,2.21,2.17A2.2,2.2,0,0,1,94.87,55.46Zm0,8.68a2.21,2.21,0,1,1,2.21,2.17A2.19,2.19,0,0,1,94.87,64.14Zm0,8.69A2.21,2.21,0,1,1,97.08,75,2.19,2.19,0,0,1,94.87,72.83Zm0,8.69a2.21,2.21,0,1,1,2.21,2.18,2.2,2.2,0,0,1-2.21-2.18Zm0,8.68a2.21,2.21,0,1,1,2.21,2.17A2.19,2.19,0,0,1,94.87,90.2Zm0,8.69a2.21,2.21,0,1,1,2.21,2.18A2.2,2.2,0,0,1,94.87,98.89Zm0,8.68a2.21,2.21,0,1,1,2.21,2.17A2.19,2.19,0,0,1,94.87,107.57Zm0,8.69a2.21,2.21,0,1,1,2.21,2.17A2.19,2.19,0,0,1,94.87,116.26Zm0,8.69a2.21,2.21,0,1,1,2.21,2.18A2.2,2.2,0,0,1,94.87,125Zm0,8.68a2.21,2.21,0,1,1,2.21,2.17A2.19,2.19,0,0,1,94.87,133.63Zm0,8.69a2.21,2.21,0,1,1,2.21,2.18A2.2,2.2,0,0,1,94.87,142.32ZM103.7,7.69a2.21,2.21,0,1,1,2.21,2.18,2.2,2.2,0,0,1-2.21-2.18Zm0,8.68a2.21,2.21,0,1,1,2.21,2.17,2.19,2.19,0,0,1-2.21-2.17Zm0,8.69a2.21,2.21,0,1,1,2.21,2.18,2.2,2.2,0,0,1-2.21-2.18Zm0,8.68a2.21,2.21,0,1,1,2.21,2.17,2.19,2.19,0,0,1-2.21-2.17Zm0,8.69a2.21,2.21,0,1,1,2.21,2.17,2.19,2.19,0,0,1-2.21-2.17Zm0,8.69a2.21,2.21,0,1,1,2.21,2.17,2.2,2.2,0,0,1-2.21-2.17Zm0,8.68A2.21,2.21,0,1,1,105.91,62a2.19,2.19,0,0,1-2.21-2.17Zm0,8.69a2.21,2.21,0,1,1,2.21,2.18,2.2,2.2,0,0,1-2.21-2.18Zm0,8.68a2.21,2.21,0,1,1,2.21,2.17,2.19,2.19,0,0,1-2.21-2.17Zm0,8.69A2.21,2.21,0,1,1,105.91,88a2.19,2.19,0,0,1-2.21-2.17Zm0,8.68a2.21,2.21,0,1,1,2.21,2.17,2.19,2.19,0,0,1-2.21-2.17Zm0,8.69a2.21,2.21,0,1,1,2.21,2.17,2.19,2.19,0,0,1-2.21-2.17Zm0,8.69a2.21,2.21,0,1,1,2.21,2.18,2.2,2.2,0,0,1-2.21-2.18Zm0,8.68a2.21,2.21,0,1,1,2.21,2.17,2.19,2.19,0,0,1-2.21-2.17Zm0,8.69a2.21,2.21,0,1,1,2.21,2.17,2.19,2.19,0,0,1-2.21-2.17Zm0,8.68a2.21,2.21,0,1,1,2.21,2.17A2.19,2.19,0,0,1,103.7,138Zm0,8.69a2.21,2.21,0,1,1,2.21,2.17,2.19,2.19,0,0,1-2.21-2.17ZM112.54,3.34a2.2,2.2,0,1,1,2.2,2.17A2.18,2.18,0,0,1,112.54,3.34Zm0,8.69a2.2,2.2,0,1,1,2.2,2.17A2.18,2.18,0,0,1,112.54,12Zm0,8.68a2.2,2.2,0,1,1,2.2,2.17A2.18,2.18,0,0,1,112.54,20.71Zm0,8.69a2.2,2.2,0,1,1,2.2,2.17A2.18,2.18,0,0,1,112.54,29.4Zm0,8.69a2.2,2.2,0,1,1,2.2,2.18A2.19,2.19,0,0,1,112.54,38.09Zm0,8.68a2.2,2.2,0,1,1,2.2,2.17A2.18,2.18,0,0,1,112.54,46.77Zm0,8.69a2.2,2.2,0,1,1,2.2,2.17A2.19,2.19,0,0,1,112.54,55.46Zm0,8.68a2.2,2.2,0,1,1,2.2,2.17A2.18,2.18,0,0,1,112.54,64.14Zm0,8.69a2.2,2.2,0,1,1,2.2,2.17A2.18,2.18,0,0,1,112.54,72.83Zm0,8.69a2.2,2.2,0,1,1,2.2,2.18,2.19,2.19,0,0,1-2.2-2.18Zm0,8.68a2.2,2.2,0,1,1,2.2,2.17A2.18,2.18,0,0,1,112.54,90.2Zm0,8.69a2.2,2.2,0,1,1,2.2,2.18A2.19,2.19,0,0,1,112.54,98.89Zm0,8.68a2.2,2.2,0,1,1,2.2,2.17A2.18,2.18,0,0,1,112.54,107.57Zm0,8.69a2.2,2.2,0,1,1,2.2,2.17A2.18,2.18,0,0,1,112.54,116.26Zm0,8.69a2.2,2.2,0,1,1,2.2,2.18A2.19,2.19,0,0,1,112.54,125Zm0,8.68a2.2,2.2,0,1,1,2.2,2.17A2.18,2.18,0,0,1,112.54,133.63Zm0,8.69a2.2,2.2,0,1,1,2.2,2.18A2.19,2.19,0,0,1,112.54,142.32ZM121.37,7.69a2.2,2.2,0,1,1,2.2,2.18,2.19,2.19,0,0,1-2.2-2.18Zm0,8.68a2.2,2.2,0,1,1,2.2,2.17,2.18,2.18,0,0,1-2.2-2.17Zm0,8.69a2.2,2.2,0,1,1,2.2,2.18,2.19,2.19,0,0,1-2.2-2.18Zm0,8.68a2.2,2.2,0,1,1,2.2,2.17,2.18,2.18,0,0,1-2.2-2.17Zm0,8.69a2.2,2.2,0,1,1,2.2,2.17,2.18,2.18,0,0,1-2.2-2.17Zm0,8.69a2.2,2.2,0,1,1,2.2,2.17,2.19,2.19,0,0,1-2.2-2.17Zm0,8.68a2.2,2.2,0,1,1,2.2,2.17,2.18,2.18,0,0,1-2.2-2.17Zm0,8.69a2.2,2.2,0,1,1,2.2,2.18,2.19,2.19,0,0,1-2.2-2.18Zm0,8.68a2.2,2.2,0,1,1,2.2,2.17,2.18,2.18,0,0,1-2.2-2.17Zm0,8.69a2.2,2.2,0,1,1,2.2,2.17,2.18,2.18,0,0,1-2.2-2.17Zm0,8.68a2.2,2.2,0,1,1,2.2,2.17,2.18,2.18,0,0,1-2.2-2.17Zm0,8.69a2.2,2.2,0,1,1,2.2,2.17,2.18,2.18,0,0,1-2.2-2.17Zm0,8.69a2.2,2.2,0,1,1,2.2,2.18,2.19,2.19,0,0,1-2.2-2.18Zm0,8.68a2.2,2.2,0,1,1,2.2,2.17,2.18,2.18,0,0,1-2.2-2.17Zm0,8.69a2.2,2.2,0,1,1,2.2,2.17,2.18,2.18,0,0,1-2.2-2.17Zm0,8.68a2.2,2.2,0,1,1,2.2,2.17,2.18,2.18,0,0,1-2.2-2.17Zm0,8.69a2.2,2.2,0,1,1,2.2,2.17,2.18,2.18,0,0,1-2.2-2.17ZM130.2,3.34a2.2,2.2,0,1,1,2.2,2.17A2.18,2.18,0,0,1,130.2,3.34Zm0,8.69a2.2,2.2,0,1,1,2.2,2.17A2.18,2.18,0,0,1,130.2,12Zm0,8.68a2.2,2.2,0,1,1,2.2,2.17A2.18,2.18,0,0,1,130.2,20.71Zm0,8.69a2.2,2.2,0,1,1,2.2,2.17A2.18,2.18,0,0,1,130.2,29.4Zm0,8.69a2.2,2.2,0,1,1,2.2,2.18A2.19,2.19,0,0,1,130.2,38.09Zm0,8.68a2.2,2.2,0,1,1,2.2,2.17A2.18,2.18,0,0,1,130.2,46.77Zm0,8.69a2.2,2.2,0,1,1,2.2,2.17A2.19,2.19,0,0,1,130.2,55.46Zm0,8.68a2.2,2.2,0,1,1,2.2,2.17A2.18,2.18,0,0,1,130.2,64.14Zm0,8.69A2.2,2.2,0,1,1,132.4,75,2.18,2.18,0,0,1,130.2,72.83Zm0,8.69a2.2,2.2,0,1,1,2.2,2.18,2.19,2.19,0,0,1-2.2-2.18Zm0,8.68a2.2,2.2,0,1,1,2.2,2.17A2.18,2.18,0,0,1,130.2,90.2Zm0,8.69a2.2,2.2,0,1,1,2.2,2.18A2.19,2.19,0,0,1,130.2,98.89Zm0,8.68a2.2,2.2,0,1,1,2.2,2.17A2.18,2.18,0,0,1,130.2,107.57Zm0,8.69a2.2,2.2,0,1,1,2.2,2.17A2.18,2.18,0,0,1,130.2,116.26Zm0,8.69a2.2,2.2,0,1,1,2.2,2.18A2.19,2.19,0,0,1,130.2,125Zm0,8.68a2.2,2.2,0,1,1,2.2,2.17A2.18,2.18,0,0,1,130.2,133.63Zm0,8.69a2.2,2.2,0,1,1,2.2,2.18A2.19,2.19,0,0,1,130.2,142.32ZM139,7.69a2.2,2.2,0,1,1,2.2,2.18A2.19,2.19,0,0,1,139,7.69Zm0,8.68a2.2,2.2,0,1,1,2.2,2.17,2.18,2.18,0,0,1-2.2-2.17Zm0,8.69a2.2,2.2,0,1,1,2.2,2.18,2.19,2.19,0,0,1-2.2-2.18Zm0,8.68a2.2,2.2,0,1,1,2.2,2.17,2.18,2.18,0,0,1-2.2-2.17Zm0,8.69a2.2,2.2,0,1,1,2.2,2.17,2.18,2.18,0,0,1-2.2-2.17Zm0,8.69a2.2,2.2,0,1,1,2.2,2.17,2.19,2.19,0,0,1-2.2-2.17Zm0,8.68a2.2,2.2,0,1,1,2.2,2.17A2.18,2.18,0,0,1,139,59.8Zm0,8.69a2.2,2.2,0,1,1,2.2,2.18,2.19,2.19,0,0,1-2.2-2.18Zm0,8.68a2.2,2.2,0,1,1,2.2,2.17,2.18,2.18,0,0,1-2.2-2.17Zm0,8.69a2.2,2.2,0,1,1,2.2,2.17,2.18,2.18,0,0,1-2.2-2.17Zm0,8.68a2.2,2.2,0,1,1,2.2,2.17,2.18,2.18,0,0,1-2.2-2.17Zm0,8.69a2.2,2.2,0,1,1,2.2,2.17,2.18,2.18,0,0,1-2.2-2.17Zm0,8.69a2.2,2.2,0,1,1,2.2,2.18,2.19,2.19,0,0,1-2.2-2.18Zm0,8.68a2.2,2.2,0,1,1,2.2,2.17,2.18,2.18,0,0,1-2.2-2.17Zm0,8.69a2.2,2.2,0,1,1,2.2,2.17,2.18,2.18,0,0,1-2.2-2.17Zm0,8.68a2.2,2.2,0,1,1,2.2,2.17A2.18,2.18,0,0,1,139,138Zm0,8.69a2.2,2.2,0,1,1,2.2,2.17,2.18,2.18,0,0,1-2.2-2.17Z"/>
  </g>
</svg>
