<svg id="179c93fa-e8fb-4bb6-bc50-991e226a998d" data-name="Слой 1" xmlns="http://www.w3.org/2000/svg" xmlns:xlink="http://www.w3.org/1999/xlink" viewBox="0 0 150 150">
  <defs>
    <style>
      .\37 471f58d-eab9-4c1f-bcdf-29acda32ad49, .dbf5f643-8c1f-4a9c-97a2-9b3b32627ede, .e3fb667d-be8f-48d5-af83-86aff8e40125, .fee18fff-928c-478d-b735-878952256236 {
        fill: none;
      }

      .\31 20c5846-f2b0-4ee6-a30d-5bfe381f8328 {
        fill: #fff;
      }

      .fee18fff-928c-478d-b735-878952256236 {
        stroke: #3b00dd;
        stroke-width: 3px;
      }

      .dbf5f643-8c1f-4a9c-97a2-9b3b32627ede, .e3fb667d-be8f-48d5-af83-86aff8e40125, .fee18fff-928c-478d-b735-878952256236 {
        stroke-miterlimit: 50;
      }

      .a2e3f13b-c72f-41b2-a99d-4ff941320bb9 {
        fill: #e2d7ff;
      }

      .d74315a0-904e-4175-afca-358909b191d7 {
        fill: #f7f4ff;
      }

      .\31 d89dd9a-4158-4685-8124-f961962a98dc {
        clip-path: url(#0b840401-11c4-4490-8e21-674ec5bc259f);
      }

      .e3fb667d-be8f-48d5-af83-86aff8e40125 {
        stroke: #d5d5d5;
        stroke-width: 2px;
      }

      .\37 cc9f244-3c68-43a2-804b-f0687c97a39d {
        fill-opacity: 0.11;
      }

      .eea35e20-eed7-4109-8aed-f29bbdf30d57 {
        clip-path: url(#16a6ea52-6963-43eb-bfc7-cf6b7db23695);
      }

      .dbf5f643-8c1f-4a9c-97a2-9b3b32627ede {
        stroke: #b0b0b0;
        stroke-width: 0.4px;
      }

      .\37 5b4975b-91b8-4f1b-9983-ab0f49932b21 {
        clip-path: url(#41647502-c4ac-4140-9cfc-b090bcfd67cc);
      }

      .e3fda867-0dfd-4b4b-b7cb-5beae132155d {
        clip-path: url(#cfaf2dfc-3570-45e2-bfa6-a4a9d8723aa3);
      }

      .\38 6b35457-a20e-4ba2-b3fa-12246191aedf {
        clip-path: url(#fa7fb84f-8468-4309-ac53-16a84526157d);
      }

      .bb58bd58-b5d3-4735-bb23-f37760ab6d21 {
        clip-path: url(#02422576-53f7-4aec-bfee-283852bf2dd6);
      }

      .\34 7b676b6-831e-47f5-b037-d8daccad815c {
        clip-path: url(#8f2c5a4a-e0fb-4279-a06d-13cd35a96d52);
      }

      .\30 10f5c05-752d-460e-bdcb-93ed552e30b7 {
        clip-path: url(#e9bedb28-94d9-40f1-affd-518631347118);
      }

      .\32 2cf61c9-b3fc-4658-9b45-d3fae1ae30c2 {
        clip-path: url(#11278080-b810-4323-8350-87556ee756aa);
      }
    </style>
    <clipPath id="0b840401-11c4-4490-8e21-674ec5bc259f">
      <polygon class="7471f58d-eab9-4c1f-bcdf-29acda32ad49" points="42.49 40.87 109 39.5 109 111.5 42.49 112.86 42.49 40.87"/>
    </clipPath>
    <clipPath id="16a6ea52-6963-43eb-bfc7-cf6b7db23695">
      <rect class="7471f58d-eab9-4c1f-bcdf-29acda32ad49" x="72" y="36.5" width="7" height="7"/>
    </clipPath>
    <clipPath id="41647502-c4ac-4140-9cfc-b090bcfd67cc">
      <rect class="7471f58d-eab9-4c1f-bcdf-29acda32ad49" x="104" y="36.5" width="7" height="7"/>
    </clipPath>
    <clipPath id="cfaf2dfc-3570-45e2-bfa6-a4a9d8723aa3">
      <rect class="7471f58d-eab9-4c1f-bcdf-29acda32ad49" x="39" y="36.5" width="7" height="7"/>
    </clipPath>
    <clipPath id="fa7fb84f-8468-4309-ac53-16a84526157d">
      <rect class="7471f58d-eab9-4c1f-bcdf-29acda32ad49" x="39" y="71.5" width="7" height="7"/>
    </clipPath>
    <clipPath id="02422576-53f7-4aec-bfee-283852bf2dd6">
      <rect class="7471f58d-eab9-4c1f-bcdf-29acda32ad49" x="104" y="71.5" width="7" height="7"/>
    </clipPath>
    <clipPath id="8f2c5a4a-e0fb-4279-a06d-13cd35a96d52">
      <rect class="7471f58d-eab9-4c1f-bcdf-29acda32ad49" x="104" y="106.5" width="7" height="7"/>
    </clipPath>
    <clipPath id="e9bedb28-94d9-40f1-affd-518631347118">
      <rect class="7471f58d-eab9-4c1f-bcdf-29acda32ad49" x="72" y="106.5" width="7" height="7"/>
    </clipPath>
    <clipPath id="11278080-b810-4323-8350-87556ee756aa">
      <rect class="7471f58d-eab9-4c1f-bcdf-29acda32ad49" x="39" y="106.5" width="7" height="7"/>
    </clipPath>
  </defs>
  <title>ui</title>
  <rect class="120c5846-f2b0-4ee6-a30d-5bfe381f8328" width="150" height="150"/>
  <g>
    <g>
      <g>
        <path class="120c5846-f2b0-4ee6-a30d-5bfe381f8328" d="M75.85,39.5,106.69,57V92L75.85,109.5,45,92V57Z"/>
        <path class="fee18fff-928c-478d-b735-878952256236" d="M75.85,39.5h0L106.69,57V92L75.85,109.5h0L45,92h0V57h0Z"/>
      </g>
      <path class="a2e3f13b-c72f-41b2-a99d-4ff941320bb9" d="M47,58.13,75.68,74v33.14L47,91.27Z"/>
      <path class="d74315a0-904e-4175-afca-358909b191d7" d="M104.71,58.13,76,74v33.14l28.7-15.89Z"/>
    </g>
    <g class="1d89dd9a-4158-4685-8124-f961962a98dc">
      <path class="e3fb667d-be8f-48d5-af83-86aff8e40125" d="M42.49,40.86h0L109,39.5v72l-66.51,1.36h0Z"/>
    </g>
    <g>
      <g>
        <path class="7471f58d-eab9-4c1f-bcdf-29acda32ad49" d="M72,36.5h7v7H72Z"/>
        <path class="7cc9f244-3c68-43a2-804b-f0687c97a39d" d="M72,36.5h7v7H72Z"/>
      </g>
      <path class="120c5846-f2b0-4ee6-a30d-5bfe381f8328" d="M72,36.5h7v7H72Z"/>
      <g class="eea35e20-eed7-4109-8aed-f29bbdf30d57">
        <path class="dbf5f643-8c1f-4a9c-97a2-9b3b32627ede" d="M72,36.5h7v7H72Z"/>
      </g>
    </g>
    <g>
      <g>
        <path class="7471f58d-eab9-4c1f-bcdf-29acda32ad49" d="M104,36.5h7v7h-7Z"/>
        <path class="7cc9f244-3c68-43a2-804b-f0687c97a39d" d="M104,36.5h7v7h-7Z"/>
      </g>
      <path class="120c5846-f2b0-4ee6-a30d-5bfe381f8328" d="M104,36.5h7v7h-7Z"/>
      <g class="75b4975b-91b8-4f1b-9983-ab0f49932b21">
        <path class="dbf5f643-8c1f-4a9c-97a2-9b3b32627ede" d="M104,36.5h7v7h-7Z"/>
      </g>
    </g>
    <g>
      <g>
        <path class="7471f58d-eab9-4c1f-bcdf-29acda32ad49" d="M39,36.5h7v7H39Z"/>
        <path class="7cc9f244-3c68-43a2-804b-f0687c97a39d" d="M39,36.5h7v7H39Z"/>
      </g>
      <path class="120c5846-f2b0-4ee6-a30d-5bfe381f8328" d="M39,36.5h7v7H39Z"/>
      <g class="e3fda867-0dfd-4b4b-b7cb-5beae132155d">
        <path class="dbf5f643-8c1f-4a9c-97a2-9b3b32627ede" d="M39,36.5h7v7H39Z"/>
      </g>
    </g>
    <g>
      <g>
        <path class="7471f58d-eab9-4c1f-bcdf-29acda32ad49" d="M39,71.5h7v7H39Z"/>
        <path class="7cc9f244-3c68-43a2-804b-f0687c97a39d" d="M39,71.5h7v7H39Z"/>
      </g>
      <path class="120c5846-f2b0-4ee6-a30d-5bfe381f8328" d="M39,71.5h7v7H39Z"/>
      <g class="86b35457-a20e-4ba2-b3fa-12246191aedf">
        <path class="dbf5f643-8c1f-4a9c-97a2-9b3b32627ede" d="M39,71.5h7v7H39Z"/>
      </g>
    </g>
    <g>
      <g>
        <path class="7471f58d-eab9-4c1f-bcdf-29acda32ad49" d="M104,71.5h7v7h-7Z"/>
        <path class="7cc9f244-3c68-43a2-804b-f0687c97a39d" d="M104,71.5h7v7h-7Z"/>
      </g>
      <path class="120c5846-f2b0-4ee6-a30d-5bfe381f8328" d="M104,71.5h7v7h-7Z"/>
      <g class="bb58bd58-b5d3-4735-bb23-f37760ab6d21">
        <path class="dbf5f643-8c1f-4a9c-97a2-9b3b32627ede" d="M104,71.5h7v7h-7Z"/>
      </g>
    </g>
    <g>
      <g>
        <path class="7471f58d-eab9-4c1f-bcdf-29acda32ad49" d="M104,106.5h7v7h-7Z"/>
        <path class="7cc9f244-3c68-43a2-804b-f0687c97a39d" d="M104,106.5h7v7h-7Z"/>
      </g>
      <path class="120c5846-f2b0-4ee6-a30d-5bfe381f8328" d="M104,106.5h7v7h-7Z"/>
      <g class="47b676b6-831e-47f5-b037-d8daccad815c">
        <path class="dbf5f643-8c1f-4a9c-97a2-9b3b32627ede" d="M104,106.5h7v7h-7Z"/>
      </g>
    </g>
    <g>
      <g>
        <path class="7471f58d-eab9-4c1f-bcdf-29acda32ad49" d="M72,106.5h7v7H72Z"/>
        <path class="7cc9f244-3c68-43a2-804b-f0687c97a39d" d="M72,106.5h7v7H72Z"/>
      </g>
      <path class="120c5846-f2b0-4ee6-a30d-5bfe381f8328" d="M72,106.5h7v7H72Z"/>
      <g class="010f5c05-752d-460e-bdcb-93ed552e30b7">
        <path class="dbf5f643-8c1f-4a9c-97a2-9b3b32627ede" d="M72,106.5h7v7H72Z"/>
      </g>
    </g>
    <g>
      <g>
        <path class="7471f58d-eab9-4c1f-bcdf-29acda32ad49" d="M39,106.5h7v7H39Z"/>
        <path class="7cc9f244-3c68-43a2-804b-f0687c97a39d" d="M39,106.5h7v7H39Z"/>
      </g>
      <path class="120c5846-f2b0-4ee6-a30d-5bfe381f8328" d="M39,106.5h7v7H39Z"/>
      <g class="22cf61c9-b3fc-4658-9b45-d3fae1ae30c2">
        <path class="dbf5f643-8c1f-4a9c-97a2-9b3b32627ede" d="M39,106.5h7v7H39Z"/>
      </g>
    </g>
  </g>
</svg>
