<svg id="3651036d-a5c7-473d-9e34-9e10f856376e" data-name="025445d9-fb6f-4676-808c-aee5fdddb7c5" xmlns="http://www.w3.org/2000/svg" xmlns:xlink="http://www.w3.org/1999/xlink" width="1920" height="439.07" viewBox="0 0 1920 439.07"  preserveAspectRatio="none">
  <defs>
    <style>
      .\34 7ac32c9-57aa-4bd2-ab30-b537fda04582 {
        fill: url(#52f5c8bd-93ee-44cf-a2da-060a8c7df80f);
      }

      .cf880a63-0e48-4ddd-a766-f559198c931a {
        fill: url(#174367ea-cbac-4364-b18a-346d476627ea);
      }

      .\35 2f861d2-d2ef-4320-ba52-4a78e9c2ed5c {
        fill: url(#464051e9-8e26-491d-b0bd-3f35c310a2ec);
      }

      .\34 7cd9506-2174-4138-808d-4d9fbe57506a {
        fill: #0f152c;
      }
    </style>
    <linearGradient id="52f5c8bd-93ee-44cf-a2da-060a8c7df80f" data-name="Безымянный градиент" y1="143.92" x2="1284.75" y2="143.92" gradientTransform="matrix(1, 0, 0, -1, 0, 438)" gradientUnits="userSpaceOnUse">
      <stop offset="0" stop-color="#fb516e"/>
      <stop offset="1" stop-color="#853f85"/>
    </linearGradient>
    <linearGradient id="174367ea-cbac-4364-b18a-346d476627ea" data-name="Безымянный градиент 4" x1="1495.09" y1="46.97" x2="1920" y2="46.97" gradientUnits="userSpaceOnUse">
      <stop offset="0" stop-color="#233198"/>
      <stop offset="1" stop-color="#853f85"/>
    </linearGradient>
    <linearGradient id="464051e9-8e26-491d-b0bd-3f35c310a2ec" x1="0" y1="320.81" x2="1203.43" y2="320.81" xlink:href="#174367ea-cbac-4364-b18a-346d476627ea"/>
  </defs>
  <title>events_gradient</title>
  <path class="47ac32c9-57aa-4bd2-ab30-b537fda04582" d="M1027,286a637.44,637.44,0,0,1-107.56-6c-40.53-5.54-80.4-14.43-120.08-24.23-62.21-15.36-123.91-33.24-187.61-41.66-27.81-3.67-55.86-6.18-83.87-7.46-24.25-1.1-48.63-.14-72.92.73-20.59.74-41.25,1.74-61.68,4.26-30.8,3.8-61.55,8.29-92.1,13.78a1071.7,1071.7,0,0,0-182.57,50C78.64,290.19,39.5,307.07,0,323v59c17.09-7.41,34-15.24,51.3-22.17,105.57-42.33,214.51-70.94,328.28-79.21,27-2,54.17-3.29,81.27-3.38a599.9,599.9,0,0,1,66.74,3.56c29.19,3.17,58.39,7,87.23,12.44,47.13,8.9,93.94,19.52,141,29.09,44.82,9.12,90,16.14,135.74,18.12,33.77,1.47,67.55.73,101.21-3.51a549.27,549.27,0,0,0,93.46-19.85c54.48-16.81,104.6-42.71,152.51-73.21,11.18-7.11,34.89-21.79,46-29-11.75,5.77-19,9.19-21.89,10.77C1188.49,262.53,1110,283.28,1027,286Z"/>
  <path class="cf880a63-0e48-4ddd-a766-f559198c931a" d="M1913.09.92c-28.86,2.39-57.76,4.36-86.57,7.21a1207,1207,0,0,0-147.59,24.06C1617.81,46,1558.27,64.69,1501.29,91c-2.08,1-4.14,2-6.2,2.94,23.41-7.31,46.52-15.17,69.9-22.14,48.81-14.56,98.57-25,148.9-32.67,29.75-4.51,59.67-8,89.58-11.31,22-2.44,44.08-4.12,66.16-5.64,16.76-1.14,33.58-1.49,50.37-2.2V0C1917.7.31,1915.4.73,1913.09.92Z"/>
  <path class="52f861d2-d2ef-4320-ba52-4a78e9c2ed5c" d="M0,321.39,36.21,306c77.84-33,157.8-59.34,240.56-76.94,36.3-7.73,72.91-13.53,109.82-17.69a1033.29,1033.29,0,0,1,144.19-5.64,694.91,694.91,0,0,1,136.93,17.52c53.76,12.37,107.23,26,160.89,38.76A897.54,897.54,0,0,0,941,281.86a605.1,605.1,0,0,0,104.25,2.61,567.17,567.17,0,0,0,158.18-33.14c-1.11.59-2.19,1.25-3.33,1.76a495.59,495.59,0,0,1-121.48,36.21,603,603,0,0,1-115.91,7.61,854.31,854.31,0,0,1-105.32-9.63c-46.16-7.12-92.28-14.57-138.45-21.63-54.71-8.36-109.67-14.1-165.12-12.2A994.13,994.13,0,0,0,286.6,299.64C190.37,330.11,100.21,373.57,14.71,427,9.77,430,4.9,433.24,0,436.39Z"/>
  <path class="47cd9506-2174-4138-808d-4d9fbe57506a" d="M1920,439.07V16.67c-45.43,3.2-199.67,11.66-305.33,39.33-148.94,39-201.38,78-248.42,106.25-97.45,58.53-169,108.3-250.72,135.94-66.86,22.62-100.88,26.75-179.28,30.06-88.75,3.75-202.92-31.58-302.4-44.18-129.51-16.4-225.67-16.46-301.79.3-75.88,16.71-131.41,40.13-189.58,68.13C82.24,381.5,54,399.25,0,436.39"/>
</svg>
