<svg id="76156a93-11f0-425f-980f-f4c19f483f29" data-name="Слой 1" xmlns="http://www.w3.org/2000/svg" width="555" height="370" viewBox="0 0 555 370">
  <defs>
    <style>
      .b0f61d92-64f8-49fc-b554-7824b99d76d4 {
        fill: #7fff8d;
      }

      .f236f1fe-14d6-40fa-a511-aeddad3e8ee2 {
        fill: #ec008c;
      }

      .e43a2194-6a2b-4a8d-8f7e-2c0f268c5abf {
        fill: #fff;
      }
    </style>
  </defs>
  <title>header__social-item</title>
  <g>
    <path class="f236f1fe-14d6-40fa-a511-aeddad3e8ee2" d="M130.37,8H54.62A46.71,46.71,0,0,0,8,54.62v75.76A46.71,46.71,0,0,0,54.62,177h75.75A46.71,46.71,0,0,0,177,130.38V54.62A46.71,46.71,0,0,0,130.37,8ZM162,130.38A31.69,31.69,0,0,1,130.38,162H54.62A31.69,31.69,0,0,1,23,130.38V54.62A31.69,31.69,0,0,1,54.62,23h75.75A31.69,31.69,0,0,1,162,54.62v75.76Z"/>
    <path class="f236f1fe-14d6-40fa-a511-aeddad3e8ee2" d="M92.5,48.94A43.56,43.56,0,1,0,136.06,92.5,43.61,43.61,0,0,0,92.5,48.94Zm0,72.12A28.56,28.56,0,1,1,121.06,92.5,28.59,28.59,0,0,1,92.5,121.06Z"/>
    <path class="f236f1fe-14d6-40fa-a511-aeddad3e8ee2" d="M137.89,36.22a11,11,0,1,0,7.78,3.22A11,11,0,0,0,137.89,36.22Z"/>
  </g>
  <g>
    <path class="f236f1fe-14d6-40fa-a511-aeddad3e8ee2" d="M490,37.52l-14.27,0c-16,0-26.38,10.63-26.38,27.07V77.05H435a2.25,2.25,0,0,0-2.25,2.25V97.38A2.24,2.24,0,0,0,435,99.62h14.34v45.64a2.24,2.24,0,0,0,2.24,2.24h18.72a2.24,2.24,0,0,0,2.24-2.24V99.62h16.77a2.24,2.24,0,0,0,2.24-2.24V79.3a2.25,2.25,0,0,0-2.25-2.25H472.55V66.47c0-5.08,1.21-7.67,7.83-7.67H490a2.24,2.24,0,0,0,2.25-2.24V39.77A2.26,2.26,0,0,0,490,37.52Z"/>
    <path class="f236f1fe-14d6-40fa-a511-aeddad3e8ee2" d="M500.37,8H424.62A46.71,46.71,0,0,0,378,54.62v75.76A46.71,46.71,0,0,0,424.62,177h75.75A46.71,46.71,0,0,0,547,130.38V54.62A46.71,46.71,0,0,0,500.37,8ZM532,130.38A31.69,31.69,0,0,1,500.38,162H424.62A31.69,31.69,0,0,1,393,130.38V54.62A31.69,31.69,0,0,1,424.62,23h75.75A31.69,31.69,0,0,1,532,54.62v75.76Z"/>
  </g>
  <g>
    <path class="f236f1fe-14d6-40fa-a511-aeddad3e8ee2" d="M339.34,121.25a7.2,7.2,0,0,0-.43-.81q-3.26-5.86-12.43-14.39l-.13-.13-.06-.06-.07-.07h-.06a71.49,71.49,0,0,1-5.27-5.34,5,5,0,0,1-.92-5.27q.78-2,5.86-8.52c1.78-2.3,3.19-4.15,4.23-5.53q11.26-15,9.76-19.14l-.38-.65a3.8,3.8,0,0,0-2-1.07,10.13,10.13,0,0,0-4.17-.16l-18.74.13a2.4,2.4,0,0,0-1.3,0l-.85.19-.32.17-.26.19a2.82,2.82,0,0,0-.72.69,4.28,4.28,0,0,0-.65,1.13,106.61,106.61,0,0,1-7,14.65c-1.61,2.69-3.08,5-4.43,7a32.75,32.75,0,0,1-3.38,4.36,23.26,23.26,0,0,1-2.48,2.25c-.73.56-1.3.8-1.69.72l-1.11-.27a4.4,4.4,0,0,1-1.46-1.59,7.12,7.12,0,0,1-.75-2.54c-.13-1-.2-1.9-.23-2.63s0-1.78,0-3.13.06-2.25.06-2.73c0-1.65,0-3.44.1-5.37s.12-3.46.16-4.59.07-2.32.07-3.58a15.12,15.12,0,0,0-.23-3,10.13,10.13,0,0,0-.68-2.08,3.5,3.5,0,0,0-1.34-1.57,7.45,7.45,0,0,0-2.18-.87,43,43,0,0,0-8.78-.85q-12.11-.14-15.56,1.56a8.94,8.94,0,0,0-2.47,2c-.78,1-.89,1.48-.33,1.57q3.92.59,5.53,2.79l.4.79a12.87,12.87,0,0,1,.91,3,30,30,0,0,1,.58,4.75,49.93,49.93,0,0,1,0,8.14c-.21,2.25-.42,4-.62,5.27a10.39,10.39,0,0,1-.87,3.06,15,15,0,0,1-.79,1.43,1,1,0,0,1-.32.32,4.78,4.78,0,0,1-1.76.33,4.18,4.18,0,0,1-2.21-.91,15.66,15.66,0,0,1-2.7-2.51,33.31,33.31,0,0,1-3.16-4.46c-1.17-1.91-2.38-4.16-3.64-6.77l-1-1.88q-1-1.83-2.67-5.31t-3-6.73a4.25,4.25,0,0,0-1.56-2.09l-.32-.19a4.57,4.57,0,0,0-1-.55A7,7,0,0,0,237,60l-17.83.13c-1.83,0-3.06.41-3.71,1.24l-.26.39a2.09,2.09,0,0,0-.2,1,5.22,5.22,0,0,0,.39,1.76q3.9,9.18,8.49,17.7t8,13.73q3.38,5.21,6.89,9.83t4.66,5.92c.76.87,1.35,1.52,1.79,2l1.63,1.57a39.82,39.82,0,0,0,4.58,3.74q3,2.18,6.71,4.29a36.24,36.24,0,0,0,8.56,3.45,29.65,29.65,0,0,0,9.5,1.08h7.48a5.19,5.19,0,0,0,3.45-1.43l.26-.33a4.43,4.43,0,0,0,.49-1.2,6.74,6.74,0,0,0,.23-1.79,20.93,20.93,0,0,1,.42-5.05,12.88,12.88,0,0,1,1.11-3.38,8.47,8.47,0,0,1,1.39-1.92,5.87,5.87,0,0,1,1.11-.94,3.83,3.83,0,0,1,.52-.23c1-.35,2.27,0,3.68,1a21.89,21.89,0,0,1,4,3.77c1.24,1.5,2.72,3.18,4.46,5a30.49,30.49,0,0,0,4.55,4.16l1.3.78a16.25,16.25,0,0,0,3.39,1.44,7.28,7.28,0,0,0,3.64.32l16.66-.26a7.57,7.57,0,0,0,3.84-.81,3.21,3.21,0,0,0,1.63-1.79,4.85,4.85,0,0,0,0-2.22A8,8,0,0,0,339.34,121.25Z"/>
    <path class="f236f1fe-14d6-40fa-a511-aeddad3e8ee2" d="M315.37,8H239.62A46.71,46.71,0,0,0,193,54.62v75.76A46.71,46.71,0,0,0,239.62,177h75.75A46.71,46.71,0,0,0,362,130.38V54.62A46.71,46.71,0,0,0,315.37,8ZM347,130.38A31.69,31.69,0,0,1,315.38,162H239.62A31.69,31.69,0,0,1,208,130.38V54.62A31.69,31.69,0,0,1,239.62,23h75.75A31.69,31.69,0,0,1,347,54.62v75.76Z"/>
  </g>
  <g>
    <path class="e43a2194-6a2b-4a8d-8f7e-2c0f268c5abf" d="M130.37,193H54.62A46.71,46.71,0,0,0,8,239.62v75.76A46.71,46.71,0,0,0,54.62,362h75.75A46.71,46.71,0,0,0,177,315.38V239.62A46.71,46.71,0,0,0,130.37,193ZM162,315.38A31.69,31.69,0,0,1,130.38,347H54.62A31.69,31.69,0,0,1,23,315.38V239.62A31.69,31.69,0,0,1,54.62,208h75.75A31.69,31.69,0,0,1,162,239.62v75.76Z"/>
    <path class="e43a2194-6a2b-4a8d-8f7e-2c0f268c5abf" d="M92.5,233.94a43.56,43.56,0,1,0,43.56,43.56A43.61,43.61,0,0,0,92.5,233.94Zm0,72.12a28.56,28.56,0,1,1,28.56-28.56A28.59,28.59,0,0,1,92.5,306.06Z"/>
    <path class="e43a2194-6a2b-4a8d-8f7e-2c0f268c5abf" d="M137.89,221.22a11,11,0,1,0,7.78,3.22A11,11,0,0,0,137.89,221.22Z"/>
  </g>
  <g>
    <path class="e43a2194-6a2b-4a8d-8f7e-2c0f268c5abf" d="M490,222.52l-14.27,0c-16,0-26.38,10.63-26.38,27.07v12.48H435a2.25,2.25,0,0,0-2.25,2.25v18.08a2.24,2.24,0,0,0,2.25,2.24h14.34v45.64a2.24,2.24,0,0,0,2.24,2.24h18.72a2.24,2.24,0,0,0,2.24-2.24V284.62h16.77a2.24,2.24,0,0,0,2.24-2.24V264.3a2.25,2.25,0,0,0-2.25-2.25H472.55V251.47c0-5.08,1.21-7.67,7.83-7.67H490a2.24,2.24,0,0,0,2.25-2.24V224.77A2.26,2.26,0,0,0,490,222.52Z"/>
    <path class="e43a2194-6a2b-4a8d-8f7e-2c0f268c5abf" d="M500.37,193H424.62A46.71,46.71,0,0,0,378,239.62v75.76A46.71,46.71,0,0,0,424.62,362h75.75A46.71,46.71,0,0,0,547,315.38V239.62A46.71,46.71,0,0,0,500.37,193ZM532,315.38A31.69,31.69,0,0,1,500.38,347H424.62A31.69,31.69,0,0,1,393,315.38V239.62A31.69,31.69,0,0,1,424.62,208h75.75A31.69,31.69,0,0,1,532,239.62v75.76Z"/>
  </g>
  <g>
    <path class="e43a2194-6a2b-4a8d-8f7e-2c0f268c5abf" d="M339.34,306.25a7.2,7.2,0,0,0-.43-.81q-3.26-5.87-12.43-14.39l-.13-.13-.06-.06-.07-.07h-.06a71.49,71.49,0,0,1-5.27-5.34,5,5,0,0,1-.92-5.27q.78-2,5.86-8.52c1.78-2.3,3.19-4.15,4.23-5.53q11.26-15,9.76-19.14l-.38-.65a3.8,3.8,0,0,0-2-1.07,10.13,10.13,0,0,0-4.17-.16l-18.74.13a2.4,2.4,0,0,0-1.3,0l-.85.19-.32.17-.26.19a2.82,2.82,0,0,0-.72.69,4.28,4.28,0,0,0-.65,1.13,106.61,106.61,0,0,1-7,14.65c-1.61,2.69-3.08,5-4.43,7a32.75,32.75,0,0,1-3.38,4.36,23.26,23.26,0,0,1-2.48,2.25c-.73.56-1.3.8-1.69.72l-1.11-.27a4.4,4.4,0,0,1-1.46-1.59,7.12,7.12,0,0,1-.75-2.54c-.13-1-.2-1.9-.23-2.63s0-1.78,0-3.13.06-2.25.06-2.73c0-1.65,0-3.44.1-5.37s.12-3.46.16-4.59.07-2.32.07-3.58a15.12,15.12,0,0,0-.23-3,10.13,10.13,0,0,0-.68-2.08,3.5,3.5,0,0,0-1.34-1.57,7.45,7.45,0,0,0-2.18-.87,43,43,0,0,0-8.78-.85q-12.11-.14-15.56,1.56a8.94,8.94,0,0,0-2.47,2c-.78,1-.89,1.48-.33,1.57q3.92.58,5.53,2.79l.4.79a12.87,12.87,0,0,1,.91,3,30,30,0,0,1,.58,4.75,49.93,49.93,0,0,1,0,8.14c-.21,2.25-.42,4-.62,5.27a10.39,10.39,0,0,1-.87,3.06,15,15,0,0,1-.79,1.43,1,1,0,0,1-.32.32,4.78,4.78,0,0,1-1.76.33,4.18,4.18,0,0,1-2.21-.91,15.66,15.66,0,0,1-2.7-2.51,33.31,33.31,0,0,1-3.16-4.46c-1.17-1.91-2.38-4.16-3.64-6.77l-1-1.88q-1-1.83-2.67-5.31t-3-6.73a4.25,4.25,0,0,0-1.56-2.09l-.32-.19a4.57,4.57,0,0,0-1-.55A7,7,0,0,0,237,245l-17.83.13c-1.83,0-3.06.41-3.71,1.24l-.26.39a2.09,2.09,0,0,0-.2,1,5.22,5.22,0,0,0,.39,1.76q3.9,9.18,8.49,17.7t8,13.73q3.38,5.21,6.89,9.83t4.66,5.92c.76.87,1.35,1.52,1.79,2l1.63,1.57a39.82,39.82,0,0,0,4.58,3.74q3,2.17,6.71,4.29a36.24,36.24,0,0,0,8.56,3.45,29.65,29.65,0,0,0,9.5,1.08h7.48a5.19,5.19,0,0,0,3.45-1.43l.26-.33a4.43,4.43,0,0,0,.49-1.2,6.74,6.74,0,0,0,.23-1.79,20.93,20.93,0,0,1,.42-5.05,12.88,12.88,0,0,1,1.11-3.38,8.47,8.47,0,0,1,1.39-1.92,5.87,5.87,0,0,1,1.11-.94,3.83,3.83,0,0,1,.52-.23c1-.35,2.27,0,3.68,1a21.89,21.89,0,0,1,4,3.77c1.24,1.5,2.72,3.18,4.46,5.05a30.49,30.49,0,0,0,4.55,4.16l1.3.78a16.25,16.25,0,0,0,3.39,1.44,7.28,7.28,0,0,0,3.64.32l16.66-.26a7.57,7.57,0,0,0,3.84-.81,3.21,3.21,0,0,0,1.63-1.79,4.85,4.85,0,0,0,0-2.22A8,8,0,0,0,339.34,306.25Z"/>
    <path class="e43a2194-6a2b-4a8d-8f7e-2c0f268c5abf" d="M315.37,193H239.62A46.71,46.71,0,0,0,193,239.62v75.76A46.71,46.71,0,0,0,239.62,362h75.75A46.71,46.71,0,0,0,362,315.38V239.62A46.71,46.71,0,0,0,315.37,193ZM347,315.38A31.69,31.69,0,0,1,315.38,347H239.62A31.69,31.69,0,0,1,208,315.38V239.62A31.69,31.69,0,0,1,239.62,208h75.75A31.69,31.69,0,0,1,347,239.62v75.76Z"/>
  </g>
</svg>
