<svg id="32a084ae-dd40-4115-929d-9b5ebe73ff9d" data-name="Слой 1" xmlns="http://www.w3.org/2000/svg" xmlns:xlink="http://www.w3.org/1999/xlink" width="218.98" height="90.44" viewBox="0 0 218.98 90.44">
  <defs>
    <style>
      .\38 0eae2d1-0d29-4c9b-8d54-455ceb644609, .de575772-f34a-443f-94fa-b1f3a42062fc {
        fill: #fff;
      }

      .\31 3cf6ee1-2580-4a37-9bab-8eeced81b433 {
        fill: url(#49123e00-61f4-4ff9-af8c-00691112298d);
      }

      .\34 d185329-a44e-414f-b9f3-984075a01f55 {
        fill: url(#b7cb640b-f131-484b-b8e3-b0f472d47190);
      }

      .\36 3682147-2429-4960-a0e2-b1c435e67b46 {
        fill: url(#15e7e108-78f7-4989-8808-7857300484d4);
      }

      .\30 32bd139-40ee-4c93-9e3b-084c8a959dbe {
        fill: url(#fb6447e6-492c-4d95-9238-2127a3ec7a62);
      }

      .\30 e6d3b93-5607-4344-8793-8172288f70be {
        fill: url(#80550bde-c9ff-42d4-83d0-e93290b856d7);
      }

      .\33 946bbbe-1bcb-45a5-8653-01a0457f4abf {
        fill: url(#2ee3ab0e-2d7d-4fcb-8a14-0622a07e43c5);
      }

      .\30 e5ed0c2-3b1d-4d0c-9a70-9d2fdc8323d2 {
        fill: url(#45a82c61-8865-4f68-9886-7f229044256f);
      }

      .\33 22b608f-80cf-41d4-8c09-e03264271925 {
        fill: url(#0c20a1c1-8e91-4a3f-b087-a1b14801a3a9);
      }

      .\37 3983bc5-f04b-437d-985e-39296d972311 {
        fill: url(#558f2b7e-51d7-4cb1-baff-d8cbf497ff7d);
      }

      .\34 066033f-7694-49b9-8851-80a6164ca154 {
        fill: url(#aa1c355f-b7c5-4fd0-aff3-77cddaea4490);
      }

      .ef88e208-2cc6-4e05-b858-e81baf11c4a7 {
        fill: url(#62579c96-817e-41ee-a69e-89ffebd06828);
      }

      .\37 adb7eab-a637-4538-b56c-d57957caec2a {
        fill: url(#fa744e77-abbd-4fc6-b60c-870261c0e1a4);
      }

      .\32 7fee0b2-153d-472f-bd96-d9087d47badb {
        fill: url(#e66e6bc4-7c7a-461f-886b-72769abe177e);
      }

      .eb7c1e80-a46e-4221-bc46-c7208105185a {
        fill: url(#66720f6d-d928-4cc9-9c14-b50a89f2ba67);
      }

      .\32 db001f3-55d6-49e2-82ee-c6b75dbea641 {
        fill: url(#95c083f6-7539-46e2-9e4a-debb80b5a62a);
      }

      .\39 9cf67ff-368c-467c-adff-d49d862fbd37 {
        fill: url(#f40e6b44-25df-4a08-907b-aebb63e15ced);
      }

      .\39 c05e0cc-9376-44e6-bae5-6415f481b1cc {
        fill: url(#b60ad876-9323-4c41-ba4c-33b72e7adbac);
      }

      .\34 3e87f52-a895-4495-af39-d0004b94220f {
        fill: url(#6dbd3336-4f97-48c6-abc9-72ff18000b24);
      }

      .\35 f200695-ba2f-4547-8b6b-b39193d8ace2 {
        fill: url(#ff2c6b27-c7a8-4b03-beae-c6dcc559f8dc);
      }

      .e88f8d5f-0afa-4f58-b745-696ca6a3678d {
        fill: url(#fed8410a-42bd-4e3e-91ac-453129b91d7c);
      }

      .aa9623b9-0ae2-413b-8218-d9b06ba43280 {
        fill: url(#dc932e94-1c90-443c-9e23-2a02be4d393a);
      }

      .\38 f970a10-c3b5-471e-a5e7-be927b9654c3 {
        fill: url(#4af42b68-b451-4994-9822-171da3568a3c);
      }

      .de575772-f34a-443f-94fa-b1f3a42062fc {
        font-size: 7.16px;
        font-family: Montserrat-Medium, Montserrat;
        letter-spacing: 1.96em;
      }

      .\34 03d1528-7e66-462c-91bf-001590d37e27 {
        letter-spacing: 2em;
      }

      .\35 bfc93fa-cbc7-4e83-aa42-295add07f32c {
        letter-spacing: 1.99em;
      }

      .c4492621-68a7-4039-8f5d-63d5f7a89f5d {
        letter-spacing: 1.99em;
      }
    </style>
    <linearGradient id="49123e00-61f4-4ff9-af8c-00691112298d" x1="37.56" y1="10.27" x2="22.19" y2="0.21" gradientUnits="userSpaceOnUse">
      <stop offset="0" stop-color="#c20083"/>
      <stop offset="1" stop-color="#7d0055"/>
    </linearGradient>
    <linearGradient id="b7cb640b-f131-484b-b8e3-b0f472d47190" x1="31.85" y1="68.95" x2="12.1" y2="31.63" gradientUnits="userSpaceOnUse">
      <stop offset="0" stop-color="#c20083"/>
      <stop offset="1" stop-color="#8d0f75"/>
    </linearGradient>
    <linearGradient id="15e7e108-78f7-4989-8808-7857300484d4" x1="65.21" y1="86.42" x2="72.07" y2="52.67" gradientUnits="userSpaceOnUse">
      <stop offset="0" stop-color="#c90087"/>
      <stop offset="1" stop-color="#500033"/>
    </linearGradient>
    <linearGradient id="fb6447e6-492c-4d95-9238-2127a3ec7a62" x1="38.32" y1="74.35" x2="36.67" y2="90.08" gradientUnits="userSpaceOnUse">
      <stop offset="0" stop-color="#c20083"/>
      <stop offset="1" stop-color="#aa0074"/>
    </linearGradient>
    <linearGradient id="80550bde-c9ff-42d4-83d0-e93290b856d7" x1="84.49" y1="51.22" x2="71.87" y2="11.16" xlink:href="#b7cb640b-f131-484b-b8e3-b0f472d47190"/>
    <linearGradient id="2ee3ab0e-2d7d-4fcb-8a14-0622a07e43c5" x1="75.84" y1="26.15" x2="30.83" y2="9.87" xlink:href="#15e7e108-78f7-4989-8808-7857300484d4"/>
    <linearGradient id="45a82c61-8865-4f68-9886-7f229044256f" x1="39.16" y1="70.81" x2="82.51" y2="51.88" xlink:href="#b7cb640b-f131-484b-b8e3-b0f472d47190"/>
    <linearGradient id="0c20a1c1-8e91-4a3f-b087-a1b14801a3a9" x1="45.72" y1="62.23" x2="21.3" y2="40.28" xlink:href="#15e7e108-78f7-4989-8808-7857300484d4"/>
    <linearGradient id="558f2b7e-51d7-4cb1-baff-d8cbf497ff7d" x1="21.42" y1="16.29" x2="21.42" y2="16.77" gradientUnits="userSpaceOnUse">
      <stop offset="0" stop-color="#b34991"/>
      <stop offset="1" stop-color="#8d0f75"/>
    </linearGradient>
    <linearGradient id="aa1c355f-b7c5-4fd0-aff3-77cddaea4490" x1="26.59" y1="12.6" x2="26.59" y2="28.88" xlink:href="#558f2b7e-51d7-4cb1-baff-d8cbf497ff7d"/>
    <linearGradient id="62579c96-817e-41ee-a69e-89ffebd06828" x1="42.59" y1="63.8" x2="43.5" y2="76.79" xlink:href="#558f2b7e-51d7-4cb1-baff-d8cbf497ff7d"/>
    <linearGradient id="fa744e77-abbd-4fc6-b60c-870261c0e1a4" x1="32.7" y1="53.85" x2="68.27" y2="53.85" xlink:href="#15e7e108-78f7-4989-8808-7857300484d4"/>
    <linearGradient id="e66e6bc4-7c7a-461f-886b-72769abe177e" x1="54.81" y1="42.46" x2="68.34" y2="18.13" xlink:href="#fb6447e6-492c-4d95-9238-2127a3ec7a62"/>
    <linearGradient id="66720f6d-d928-4cc9-9c14-b50a89f2ba67" x1="0" y1="39.21" x2="10.02" y2="39.21" xlink:href="#15e7e108-78f7-4989-8808-7857300484d4"/>
    <linearGradient id="95c083f6-7539-46e2-9e4a-debb80b5a62a" x1="85.41" y1="50.51" x2="90.04" y2="50.51" xlink:href="#15e7e108-78f7-4989-8808-7857300484d4"/>
    <linearGradient id="f40e6b44-25df-4a08-907b-aebb63e15ced" x1="2.34" y1="33.52" x2="7.16" y2="33.52" xlink:href="#558f2b7e-51d7-4cb1-baff-d8cbf497ff7d"/>
    <linearGradient id="b60ad876-9323-4c41-ba4c-33b72e7adbac" x1="52.45" y1="86.67" x2="56.1" y2="86.67" xlink:href="#558f2b7e-51d7-4cb1-baff-d8cbf497ff7d"/>
    <linearGradient id="6dbd3336-4f97-48c6-abc9-72ff18000b24" x1="84.18" y1="55.13" x2="90.82" y2="55.13" xlink:href="#558f2b7e-51d7-4cb1-baff-d8cbf497ff7d"/>
    <linearGradient id="ff2c6b27-c7a8-4b03-beae-c6dcc559f8dc" x1="112.05" y1="44.91" x2="267.6" y2="44.91" xlink:href="#15e7e108-78f7-4989-8808-7857300484d4"/>
    <linearGradient id="fed8410a-42bd-4e3e-91ac-453129b91d7c" x1="112.05" y1="44.76" x2="267.6" y2="44.76" xlink:href="#15e7e108-78f7-4989-8808-7857300484d4"/>
    <linearGradient id="dc932e94-1c90-443c-9e23-2a02be4d393a" x1="112.05" y1="45.03" x2="267.6" y2="45.03" xlink:href="#15e7e108-78f7-4989-8808-7857300484d4"/>
    <linearGradient id="4af42b68-b451-4994-9822-171da3568a3c" x1="112.05" y1="44.9" x2="267.6" y2="44.9" xlink:href="#15e7e108-78f7-4989-8808-7857300484d4"/>
  </defs>
  <title>logo</title>
  <g>
    <polygon class="80eae2d1-0d29-4c9b-8d54-455ceb644609" points="15.43 67.27 68.27 67.27 68.27 17.56 40.59 19.48 15.43 21.23 15.43 67.27"/>
    <path class="80eae2d1-0d29-4c9b-8d54-455ceb644609" d="M73.51,88.33H13.06V0H73.51ZM15.43,86H71.14V2.37H15.43Z"/>
    <path class="13cf6ee1-2580-4a37-9bab-8eeced81b433" d="M60.82,10.41a35.47,35.47,0,0,1,5.12,1.36C58.05,7,46.94,6,35.57,7.23c-9.29,1-16.55-1-18,1.22-2.37,3.54-.34,6.2,3.9,8.08A58.35,58.35,0,0,1,60.82,10.41Z"/>
    <path class="4d185329-a44e-414f-b9f3-984075a01f55" d="M20,71.9C3.23,54.19,16.71,33.24,36.18,30.08L37,30C15.64,32.32-.71,45.83,2.15,60.35c1.57,7.93,10.18,12.88,20.71,14.22A33.69,33.69,0,0,1,20,71.9Z"/>
    <path class="63682147-2429-4960-a0e2-b1c435e67b46" d="M77,63.41C70,72.91,61.61,78.74,53.05,81.14A39,39,0,0,0,69.9,81C80.33,78.53,85,65.78,82.85,52.57A45.3,45.3,0,0,1,77,63.41Z"/>
    <path class="032bd139-40ee-4c93-9e3b-084c8a959dbe" d="M37.82,74.14a49.37,49.37,0,0,1-15,.43h0a32.31,32.31,0,0,0,30.19,6.57h0A37.23,37.23,0,0,1,37.82,74.14Z"/>
    <path class="0e6d3b93-5607-4344-8793-8172288f70be" d="M77.17,37.44a40.84,40.84,0,0,1,5.68,15.13c6.37-17.08.26-34.86-16.91-40.8C73.51,16.37,78.12,24.48,77.17,37.44Z"/>
    <path class="3946bbbe-1bcb-45a5-8653-01a0457f4abf" d="M43.56,20.07C59.94,20,71,27.57,77.17,37.44c1-13-3.66-21.07-11.23-25.67a35.47,35.47,0,0,0-5.12-1.36,58.35,58.35,0,0,0-39.4,6.12h0C26.77,18.9,35.63,20,43.56,20.07Z"/>
    <path class="0e5ed0c2-3b1d-4d0c-9a70-9d2fdc8323d2" d="M77,63.41a45.3,45.3,0,0,0,5.88-10.84,40.84,40.84,0,0,0-5.68-15.13c-.11,1.51-.3,3.09-.56,4.73C74.75,53.64,67.77,60,59.71,63.28,54,69.12,46,72.67,37.82,74.14a37.23,37.23,0,0,0,15.23,7h0C61.61,78.74,70,72.91,77,63.41Z"/>
    <g>
      <path class="322b608f-80cf-41d4-8c09-e03264271925" d="M24.26,47.21c-.41-5.28.86-9.85,6.33-12,6.54-2.52,8.33,3.29,8.28,8.69-.06,8.37.43,10.15,2.83,10,18.79-.84,16-27.41-5.52-23.92C16.71,33.24,3.23,54.19,20,71.9a33.69,33.69,0,0,0,2.83,2.67,49.37,49.37,0,0,0,15-.43C30.11,68.16,24.79,58.94,24.26,47.21Z"/>
      <polygon class="73983bc5-f04b-437d-985e-39296d972311" points="21.42 16.53 21.42 16.53 21.42 16.53 21.42 16.53"/>
      <path class="4066033f-7694-49b9-8851-80a6164ca154" d="M12.78,23.25c-5.39,6.42-3.6,9,3.11,5C25.44,22.5,35.12,20,43.52,20.07h0C35.63,20,26.77,18.9,21.42,16.53A32.63,32.63,0,0,0,12.78,23.25Z"/>
      <path class="ef88e208-2cc6-4e05-b858-e81baf11c4a7" d="M32.7,64.89h0c-3.34-.91-5.54-3.62-7.46-11.83a40.82,40.82,0,0,1-1-5.85c.53,11.73,5.85,20.95,13.56,26.93C46,72.67,54,69.12,59.71,63.28,49.84,67.28,38.35,66.6,32.7,64.89Z"/>
      <path class="7adb7eab-a637-4538-b56c-d57957caec2a" d="M35.31,65.29a13,13,0,0,1-2.61-.4h0c5.65,1.71,17.14,2.39,27-1.61a30.11,30.11,0,0,0,8.56-21.81C67.13,60.27,53.5,66.45,35.31,65.29Z"/>
      <path class="27fee0b2-153d-472f-bd96-d9087d47badb" d="M43.56,20.07h0c14.72.17,25.5,8.35,24.71,21.4h0a30.11,30.11,0,0,1-8.56,21.81c8.06-3.27,15-9.64,16.9-21.11.26-1.64.45-3.22.56-4.73C71,27.57,59.94,20,43.56,20.07Z"/>
    </g>
    <g>
      <path class="80eae2d1-0d29-4c9b-8d54-455ceb644609" d="M85.65,52.8c-.73,0-2.48.12-.69,2.56,3.12,4.26,6.46,1,5.77-.29C89.9,53.55,87.16,52.75,85.65,52.8Z"/>
      <path class="80eae2d1-0d29-4c9b-8d54-455ceb644609" d="M89.68,49.59c-1.74-2.49-4.93,1.08-4.15,2.21S91.42,52.09,89.68,49.59Z"/>
      <path class="80eae2d1-0d29-4c9b-8d54-455ceb644609" d="M6.89,32.78c-.95-.87-5.16-.84-4.48,1.13S8.39,34.13,6.89,32.78Z"/>
      <path class="80eae2d1-0d29-4c9b-8d54-455ceb644609" d="M9.92,35.69C8.86,34.24-2,39.06.34,42.27S11,37.14,9.92,35.69Z"/>
      <g>
        <path class="eb7c1e80-a46e-4221-bc46-c7208105185a" d="M9.92,35.69C11,37.14,2.73,45.49.34,42.27S8.86,34.24,9.92,35.69Z"/>
        <path class="2db001f3-55d6-49e2-82ee-c6b75dbea641" d="M85.53,51.8c-.78-1.13,2.41-4.7,4.15-2.21S86.3,52.92,85.53,51.8Z"/>
        <path class="99cf67ff-368c-467c-adff-d49d862fbd37" d="M6.89,32.78c1.5,1.35-3.8,3.11-4.48,1.13S5.94,31.91,6.89,32.78Z"/>
        <path class="9c05e0cc-9376-44e6-bae5-6415f481b1cc" d="M55.32,85.2c2.57,6.26-2,7.38-2.79.84C52.05,82.3,53.9,81.73,55.32,85.2Z"/>
        <path class="43e87f52-a895-4495-af39-d0004b94220f" d="M85.65,52.8c1.51,0,4.25.75,5.08,2.27.69,1.28-2.65,4.55-5.77.29C83.17,52.92,84.92,52.82,85.65,52.8Z"/>
      </g>
    </g>
  </g>
  <g>
    <path class="5f200695-ba2f-4547-8b6b-b39193d8ace2" d="M98.29,34.52c0-.56,0-1,0-1.3a1,1,0,0,1,.29-.68,1.26,1.26,0,0,1,.73-.28c.33,0,.8-.08,1.42-.1l2,0c1,0,2.05,0,3.21,0s2.28,0,3.38,0,1.94.06,2.54.12l2.14.18a10.06,10.06,0,0,1,2.09.42,13,13,0,0,1,1.84.72,12.66,12.66,0,0,1,1.72,1A8.31,8.31,0,0,1,122,36.74a18.18,18.18,0,0,1,1.69,2.75,20.33,20.33,0,0,1,1.09,2.64c.26.83.44,1.46.53,1.89a8.84,8.84,0,0,1-.4,5.24,12.73,12.73,0,0,1-3.16,4.41A13.67,13.67,0,0,1,118.46,56a12.49,12.49,0,0,1-4,1.17c-1.86.24-3.71.4-5.54.5s-3.67.11-5.54.06c-.77,0-1.52,0-2.25-.08s-1.46-.08-2.2-.08c-.33,0-.53,0-.6-.16a1,1,0,0,1-.11-.52,1.39,1.39,0,0,0,0-.3c0-.1,0-.2,0-.3,0-1.9,0-3.79,0-5.67s0-3.78,0-5.67c0-1.5,0-2.79,0-3.87V34.52ZM107.11,45q0,1.32,0,2.64c0,.88,0,1.76-.06,2.65,0,.53.29.81.89.84a12.24,12.24,0,0,0,3.65-.24,9.92,9.92,0,0,0,3.29-1.45,8.28,8.28,0,0,0,1.34-1.12,3.3,3.3,0,0,0,.8-1.44,6.12,6.12,0,0,0,.2-2.24,10.14,10.14,0,0,0-.51-2.25,5.18,5.18,0,0,0-1-1.5,4.12,4.12,0,0,0-1.61-1,9.16,9.16,0,0,0-2.87-.64c-1-.05-1.93-.08-2.91-.08-.6,0-1,0-1,.16a1.78,1.78,0,0,0-.15,1c0,.4,0,.87,0,1.4s0,1.06,0,1.56Z"/>
    <path class="e88f8d5f-0afa-4f58-b745-696ca6a3678d" d="M145.43,42.49c.42.14.79.27,1.12.4l1,.4a2.88,2.88,0,0,1,.89.65,5.15,5.15,0,0,1,.92,1.28,8.69,8.69,0,0,1,.71,1.94,10.68,10.68,0,0,1,.29,2.59,5,5,0,0,1-.62,2.32,10.88,10.88,0,0,1-1.58,2.18A13.09,13.09,0,0,1,146,56.06a9.38,9.38,0,0,1-2.22,1.14,16.1,16.1,0,0,1-3.28.76q-1.66.2-3.36.24l-.18,0a.21.21,0,0,0-.17,0,22,22,0,0,1-2.21.06l-2.91-.06L128,58.12a1.71,1.71,0,0,1-.54-.08,2.13,2.13,0,0,1-.4-.2.65.65,0,0,1-.26-.36,4.27,4.27,0,0,1-.23-1.32c0-2.11,0-4.22,0-6.31V43.54c0-1.18,0-2.34,0-3.49s0-2.31,0-3.49c0-.77,0-1.54,0-2.3s-.06-1.53-.12-2.3q0-.6.54-.6l5.36-.08q2.52,0,5.37,0a9.82,9.82,0,0,1,2,.2c.67.13,1.34.28,2,.44a7.54,7.54,0,0,1,2.36,1,11.65,11.65,0,0,1,1.95,1.62A3.48,3.48,0,0,1,146.9,36a15.54,15.54,0,0,1,.27,1.59,6.87,6.87,0,0,1,0,1.5,5.52,5.52,0,0,1-.33,1.42,4.15,4.15,0,0,1-.85,1.34,2.35,2.35,0,0,1-.22.26A4.18,4.18,0,0,1,145.43,42.49Zm-11-4v1.66a.91.91,0,0,0,.27.78,1.3,1.3,0,0,0,.89.16c.41,0,1.05-.08,1.91-.16a5,5,0,0,0,1-.26c.32-.12.65-.26,1-.42a2,2,0,0,0,.89-.86,2.35,2.35,0,0,0,.22-1.18,1.39,1.39,0,0,0-.49-1,2.6,2.6,0,0,0-1.07-.55,7.73,7.73,0,0,0-1.09-.16l-1.13-.08a9.55,9.55,0,0,0-1.07,0c-.36,0-.7,0-1,0-.06.35-.11.69-.15,1S134.54,38.1,134.48,38.45Zm.14,10.93v1a11.64,11.64,0,0,0-.09,1.2.66.66,0,0,0,.2.56,1,1,0,0,0,.64.16c.3,0,.71,0,1.25,0a6.73,6.73,0,0,0,2.54-.32A10.73,10.73,0,0,0,141.43,51a1.76,1.76,0,0,0,.62-2.81,4.21,4.21,0,0,0-1.25-1.08,5.24,5.24,0,0,0-2.65-.78,22,22,0,0,0-2.78.14.85.85,0,0,0-.58.28,1,1,0,0,0-.13.56c0,.19,0,.4,0,.62s0,.45,0,.66Z"/>
    <path class="aa9623b9-0ae2-413b-8218-d9b06ba43280" d="M152.06,32.92c0-.48.07-.77.21-.86a1.82,1.82,0,0,1,1-.06,17.94,17.94,0,0,0,1.8.06c.61,0,1.21,0,1.81,0,.35,0,.72,0,1.09,0a4.77,4.77,0,0,1,1.13,0,1.47,1.47,0,0,1,.92.34,1.31,1.31,0,0,1,.24.9,1,1,0,0,1,0,.38c0,.12,0,.25,0,.38V45.2a3.44,3.44,0,0,0,0,.54.34.34,0,0,0,.23.36.47.47,0,0,0,.4-.2,1.38,1.38,0,0,0,.31-.28,2.64,2.64,0,0,0,.22-.32q2.28-2.85,4.48-5.95c1.46-2.07,2.94-4,4.42-5.91a3.19,3.19,0,0,1,1.25-1.14,4.1,4.1,0,0,1,1.92-.3,18.62,18.62,0,0,0,2.38.08c.81,0,1.61,0,2.38,0a2.5,2.5,0,0,1,1.38.36c.21.19.29.6.27,1.24-.06,2.72-.09,5.52-.07,8.39s0,5.67-.07,8.4q0,1.56,0,2.94c0,.92.06,1.9.09,3,0,.18,0,.34,0,.48a1.61,1.61,0,0,1,0,.48,1,1,0,0,1-.27.58A.73.73,0,0,1,179,58l-2.9-.1c-1,0-2,0-2.94,0l-.62,0a1.83,1.83,0,0,1-.58-.14,1,1,0,0,1-.33-.28.64.64,0,0,1-.16-.4,28.61,28.61,0,0,0,0-3.21,28.42,28.42,0,0,1,0-3.2c0-1,.05-2,.05-3s0-1.95,0-2.94a.85.85,0,0,0,0-.24.21.21,0,0,0-.22-.16.25.25,0,0,0-.21.08l-.15.16c-1.43,1.57-2.85,3.28-4.27,5.11s-2.73,3.62-3.92,5.38c-.24.32-.47.64-.69,1s-.45.64-.69,1a1.78,1.78,0,0,1-1,.76,10.63,10.63,0,0,1-1.29.24c-.36,0-.71,0-1,0s-.69,0-1,0a15.64,15.64,0,0,0-1.81,0,12,12,0,0,1-1.8,0c-.68-.06-1.09-.16-1.22-.32a2,2,0,0,1-.16-1.2c.06-1,.1-2,.11-3s0-2,0-2.94,0-2,0-3l-.09-3c0-.8,0-1.53,0-2.17V32.92Z"/>
    <path class="8f970a10-c3b5-471e-a5e7-be927b9654c3" d="M197.47,42.81c.06,0,.1-.16.13-.5s.06-.72.09-1.18.05-.93.05-1.44,0-.95-.05-1.32c-.06-1-.12-1.95-.2-2.79s-.14-1.77-.2-2.78c0-.46,0-.74.11-.84a1.6,1.6,0,0,1,.92-.2c.94,0,1.89,0,2.84,0l2.85,0c.33,0,.53.06.6.2a1.17,1.17,0,0,1,.12.6c0,1.63,0,3.18,0,4.65s.06,3,.09,4.64v.32a.45.45,0,0,0,.09.28.25.25,0,0,0,.2.12q.15,0,.15,0a3,3,0,0,0,.4-.4,2.36,2.36,0,0,0,.32-.44q1.29-2.28,2.56-4.32c.84-1.37,1.69-2.82,2.56-4.37a2.57,2.57,0,0,1,.73-.92,1.64,1.64,0,0,1,1.22-.24c.75.05,1.49.06,2.23,0s1.48,0,2.23,0a6.06,6.06,0,0,1,.75,0,.74.74,0,0,1,.58.48.83.83,0,0,1,.05.68,4,4,0,0,1-.36.6c-1.13,1.6-2.23,3.13-3.32,4.59s-2.19,3-3.31,4.58a2.09,2.09,0,0,0-.4,1.17,2.25,2.25,0,0,0,.35,1.16L213,47c.42.72.86,1.48,1.34,2.28s.94,1.61,1.4,2.43L217,54l1,1.76c.26.5.44.81.53,1,.27.5.1.8-.49.88a9.61,9.61,0,0,1-1.51.12,15.9,15.9,0,0,0-2.07,0,20.32,20.32,0,0,1-2.07,0,1.32,1.32,0,0,1-1.2-.72c-.87-1.58-1.74-3.11-2.63-4.59s-1.78-3-2.67-4.59a1.64,1.64,0,0,1-.16-.26l-.15-.3a.41.41,0,0,0-.27-.12c-.12,0-.18.07-.18.2s-.05.37-.07.54,0,.36,0,.54c.06,1.53.11,3,.14,4.45s.05,2.94.08,4.49a.76.76,0,0,1-.22.66.64.64,0,0,1-.67.14c-.95,0-1.87,0-2.76,0a24.55,24.55,0,0,0-2.71,0c-.51.05-.81,0-.91-.1a1.62,1.62,0,0,1-.2-.86q0-2.37-.09-4.59c0-1.48-.06-3-.09-4.63v-.38a1.73,1.73,0,0,0-.05-.38c0-.13-.07-.2-.22-.2s-.25,0-.31.08l-.25.3-.24.34c-.71,1.1-1.43,2.18-2.16,3.25s-1.46,2.16-2.2,3.28c-.42.62-.83,1.2-1.25,1.76s-.83,1.15-1.25,1.77a.75.75,0,0,1-.42.36,7.59,7.59,0,0,1-1,0,2.12,2.12,0,0,0-.8-.1c-.45,0-1,0-1.54,0h-3.09c-.86-.06-1-.39-.53-1a9.23,9.23,0,0,1,.75-1,8.23,8.23,0,0,0,.76-1L185,53.33l1.41-1.94c.47-.67.94-1.33,1.42-2l1.29-1.78.94-1.3c.23-.33.37-.51.4-.54a1.27,1.27,0,0,0,.09-1.6l-1-1.57-1-1.56c-.68-1-1.35-1.93-2-2.76s-1.32-1.75-2-2.77c-.32-.48-.63-1-.93-1.46s-.61-1-.93-1.46-.14-.68.48-.68c.39,0,.89,0,1.5,0l1.75,0c.57,0,1.06,0,1.5,0l.73,0a3.86,3.86,0,0,1,1-.06,1.63,1.63,0,0,1,.8.18,1.78,1.78,0,0,1,.65.68l.46.84c.45.77.89,1.52,1.34,2.22s.89,1.41,1.33,2.09.89,1.37,1.34,2.06.9,1.43,1.38,2.2a1.49,1.49,0,0,1,.18.36A.32.32,0,0,0,197.47,42.81Z"/>
  </g>
  <text class="de575772-f34a-443f-94fa-b1f3a42062fc" transform="translate(116.77 71.3)">P<tspan class="403d1528-7e66-462c-91bf-001590d37e27" x="19.18" y="0">A</tspan><tspan class="5bfc93fa-cbc7-4e83-aa42-295add07f32c" x="38.75" y="0">R</tspan><tspan class="c4492621-68a7-4039-8f5d-63d5f7a89f5d" x="58.21" y="0">T</tspan><tspan class="403d1528-7e66-462c-91bf-001590d37e27" x="76.69" y="0">Y</tspan></text>
</svg>
