<svg id="e3b638cd-a324-40a7-b396-fdeea3ecd646" data-name="025445d9-fb6f-4676-808c-aee5fdddb7c5" xmlns="http://www.w3.org/2000/svg" xmlns:xlink="http://www.w3.org/1999/xlink" width="1920" height="436.39" viewBox="0 0 1920 436.39">
  <defs>
    <style>
      .\39 c11929f-8144-4f24-a361-36fed5251d0f {
        fill: url(#bce013be-0a24-4fd5-aa42-aac531bc014a);
      }

      .\33 76d3210-df1a-4c08-a5e8-ec2c7789e9f9 {
        fill: url(#4c8ac849-b4d6-491d-aa39-b25fa66cbb06);
      }

      .fd6858f0-b560-4f94-8ac4-5382b955223f {
        fill: url(#e7f8cadd-9ba3-4f8f-9b51-0320e05ebda3);
      }

      .\37 5131698-8b64-4db6-98a6-351ba665c46c {
        fill: #061335;
      }
    </style>
    <linearGradient id="bce013be-0a24-4fd5-aa42-aac531bc014a" data-name="Безымянный градиент 8" x1="134.13" y1="294.08" x2="1329.13" y2="294.08" gradientUnits="userSpaceOnUse">
      <stop offset="0" stop-color="#33cbcc"/>
      <stop offset="0.24" stop-color="#34ccc9"/>
      <stop offset="0.39" stop-color="#39cec1"/>
      <stop offset="0.51" stop-color="#40d1b3"/>
      <stop offset="0.61" stop-color="#4bd79e"/>
      <stop offset="0.71" stop-color="#58dd84"/>
      <stop offset="0.8" stop-color="#69e663"/>
      <stop offset="0.89" stop-color="#7df03c"/>
      <stop offset="0.97" stop-color="#93fb11"/>
      <stop offset="1" stop-color="#9cff00"/>
    </linearGradient>
    <linearGradient id="4c8ac849-b4d6-491d-aa39-b25fa66cbb06" data-name="Безымянный градиент 16" x1="1524.77" y1="46.97" x2="1920" y2="46.97" gradientUnits="userSpaceOnUse">
      <stop offset="0" stop-color="#8ff919"/>
      <stop offset="1" stop-color="#8ff919"/>
    </linearGradient>
    <linearGradient id="e7f8cadd-9ba3-4f8f-9b51-0320e05ebda3" data-name="Безымянный градиент 12" y1="320.81" x2="1253.49" y2="320.81" gradientUnits="userSpaceOnUse">
      <stop offset="0" stop-color="#0a329b"/>
      <stop offset="1" stop-color="#1896cc"/>
    </linearGradient>
  </defs>
  <title>team_first</title>
  <path class="9c11929f-8144-4f24-a361-36fed5251d0f" d="M1089.39,286a552.06,552.06,0,0,1-100.05-6c-37.7-5.54-74.78-14.43-111.69-24.23-57.87-15.36-115.26-33.24-174.51-41.66-25.86-3.67-51.95-6.18-78-7.46-22.55-1.1-45.23-.14-67.82.73-19.15.74-38.37,1.74-57.37,4.26-28.65,3.8-57.25,8.29-85.67,13.78a942.63,942.63,0,0,0-169.81,50c-37.18,14.77-73.59,31.65-110.33,47.58v59c15.9-7.41,31.63-15.24,47.72-22.17C280,317.5,381.37,288.89,487.19,280.62c25.12-2,50.39-3.29,75.6-3.38a519.42,519.42,0,0,1,62.07,3.56c27.15,3.17,54.31,7,81.14,12.44,43.84,8.9,87.38,19.52,131.15,29.09,41.69,9.12,83.71,16.14,126.26,18.12,31.41,1.47,62.83.73,94.14-3.51a480.12,480.12,0,0,0,86.93-19.85c50.67-16.81,97.29-42.71,141.85-73.21,10.4-7.11,32.46-21.79,42.8-29-10.93,5.77-17.67,9.19-20.36,10.77C1239.59,262.53,1166.59,283.28,1089.39,286Z"/>
  <path class="376d3210-df1a-4c08-a5e8-ec2c7789e9f9" d="M1913.57.92c-26.84,2.39-53.72,4.36-80.52,7.21a1050.75,1050.75,0,0,0-137.28,24.06C1638.92,46,1583.54,64.69,1530.54,91c-1.93,1-3.85,2-5.77,2.94,21.78-7.31,43.27-15.17,65-22.14,45.4-14.56,91.68-25,138.5-32.67,27.67-4.51,55.5-8,83.32-11.31,20.46-2.44,41-4.12,61.54-5.64,15.59-1.14,31.23-1.49,46.85-2.2V0C1917.86.31,1915.72.73,1913.57.92Z"/>
  <path class="fd6858f0-b560-4f94-8ac4-5382b955223f" d="M1106.36,284.47a523.79,523.79,0,0,1-97-2.61A782.06,782.06,0,0,1,904.85,262c-49.92-12.76-99.65-26.39-149.65-38.76a603.75,603.75,0,0,0-127.37-17.52,894.56,894.56,0,0,0-134.12,5.64,991.53,991.53,0,0,0-102.14,17.69c-77,17.6-151.36,43.94-223.76,76.94C87.59,344.72,34.05,379.79,0,404.68v31.71H134.13c4.56-3.15,9.09-6.39,13.68-9.39,79.53-53.43,163.39-96.89,252.9-127.36a866.59,866.59,0,0,1,248.55-46.19c51.58-1.9,102.7,3.84,153.59,12.2,42.94,7.06,85.84,14.51,128.77,21.63a740.8,740.8,0,0,0,98,9.63,522.42,522.42,0,0,0,107.81-7.61,437.09,437.09,0,0,0,113-36.21c1.06-.51,2.07-1.17,3.1-1.76A495.94,495.94,0,0,1,1106.36,284.47Z"/>
  <path class="75131698-8b64-4db6-98a6-351ba665c46c" d="M1920,436.39V11.06c-42.26,3.2-185.72,11.66-284,39.33-138.54,39-187.31,78-231.06,106.25-90.65,58.53-157.23,108.3-233.21,135.94-62.19,22.62-93.83,26.75-166.76,30.06-82.54,3.75-188.74-31.58-281.27-44.18-120.46-16.4-183.2-15.57-280.71.3-71.59,11.65-146.58,31.31-205,48.63-99.5,29.5-229.5,89.5-238,109"/>
</svg>
