<svg id="bcfc392c-51de-48b5-b533-3fe658fb100d" data-name="Слой 1" xmlns="http://www.w3.org/2000/svg" xmlns:xlink="http://www.w3.org/1999/xlink" width="1200" height="400" viewBox="0 0 1200 400">
  <defs>
    <style>
      .\32 9e42523-3322-43d9-967b-2f77bd4d93fb {
        fill: lime;
      }

      .d547fedf-3570-4e83-93e5-6fae079861ea {
        fill: #fff;
      }

      .fdb7d454-baaa-4e5c-ba2d-1ec06c9fb78d {
        fill: url(#ede4f42b-9b00-4d8b-a725-fda999f08c7c);
      }

      .ef6d8410-e33f-4cd5-8f10-caa0a864c074 {
        fill: url(#b8327906-9287-45cc-be75-f8f328903241);
      }

      .d7207fa1-fe15-4512-8389-3de3c3f532be {
        fill: url(#8df9c58f-e668-4752-a5f3-e1a68d3cc281);
      }

      .\35 ac134bb-ea70-4921-8995-dedc5a453ae1 {
        fill: url(#0d378853-8ec1-4e0e-8c3b-dfb83b7082b8);
      }

      .ce7ed70c-44d0-4134-a484-cbb9d2d683cd {
        fill: url(#1d52956b-22c6-47e3-a39e-30066e3391f7);
      }

      .\38 70f19a5-b921-41ac-b554-24879ea4e438 {
        fill: url(#da02e213-da70-4f30-bae4-ef318444eb68);
      }

      .\34 73538e9-42e2-4d03-ada3-90749134a576 {
        fill: url(#7fccb8ea-bcfa-48eb-964d-59a25a17fe71);
      }

      .efd8b72f-960d-4097-9458-e293f2ad61f4 {
        fill: url(#fc81251c-d4aa-4aac-9220-a139e9de80dc);
      }

      .\31 6bbde9b-1e02-4e69-8da8-fdd8de322623 {
        fill: url(#7300053a-5606-4376-a681-7095e96f42e4);
      }

      .\37 b5f0dc2-7e7d-4604-9991-6d471ba9160c {
        fill: url(#1f35b4e1-8098-4d18-ac58-150177aa95d9);
      }

      .\38 a7a2c38-992c-466e-8c98-1cfc419fac51 {
        fill: url(#e0a6cd7d-6be0-4565-a47c-d15e53ecebf2);
      }

      .\34 740d4dd-16d0-47ac-8617-a6ffd4268f15 {
        fill: url(#b1f392d4-3c1e-44a3-bbb7-35bbf3bbe016);
      }

      .\35 561c548-750c-48c4-b260-74a9434f258b {
        fill: url(#11e20e90-4692-4723-b703-223059fdc3d6);
      }

      .c12571fb-24e2-4c49-90ac-6bbce6b5ed31 {
        fill: url(#8216a5aa-5b1d-4c14-86a9-8f120dc38cc9);
      }

      .\35 c6997ab-9ac7-4b08-96cb-af9ca4df1366 {
        fill: url(#07a802bb-1b53-45e1-90e8-ac275e944d3d);
      }

      .a2cb3150-8664-46f5-b88a-641e824f840e {
        fill: url(#67699edd-ef07-4534-a6c9-4af4ffa50a11);
      }

      .e08e93eb-005c-4b9a-8044-42dd4bd788ff {
        fill: url(#646faef1-bc8b-48dc-98fc-de71c09372ed);
      }

      .c45eac3c-0597-485f-9456-f850327eec6f {
        fill: url(#758225ba-5db9-474f-962e-46e36b9bda44);
      }

      .\33 52c66c7-cc1d-48d3-a921-9feec974f3ec {
        fill: url(#a7e4afe2-b7f2-44cb-b2a9-a75b4ae10750);
      }

      .\32 d1d21d6-edff-4d79-9f59-ef50fe337246 {
        fill: url(#5b877966-c8b2-455b-ac71-acb69e018d61);
      }

      .\36 c45f4b8-d16b-4ab1-b58c-b66d45df286f {
        fill: url(#76794c38-44db-43a0-bf97-aae4790d1b87);
      }

      .\33 3f9c378-5a19-4951-8c6e-99f7cb8b704a {
        fill: url(#2779e8f3-072d-4dd1-b834-d1ce41034612);
      }

      .f45064b4-60d2-4ace-a289-2ae206ffbc8f {
        fill: url(#a5a952fb-7fbf-4911-ba6f-6eb8c53f2c32);
      }

      .\37 efeea2c-8c07-4f18-9fb3-1cec2ca59a18 {
        fill: url(#495d3eac-e7f3-444c-942a-06359c97b73b);
      }
    </style>
    <linearGradient id="ede4f42b-9b00-4d8b-a725-fda999f08c7c" data-name="Безымянный градиент 24" x1="440.14" y1="308.68" x2="482.24" y2="308.68" gradientUnits="userSpaceOnUse">
      <stop offset="0" stop-color="#ec008c"/>
      <stop offset="1" stop-color="#940057"/>
    </linearGradient>
    <linearGradient id="b8327906-9287-45cc-be75-f8f328903241" x1="423.04" y1="305.76" x2="576.96" y2="305.76" xlink:href="#ede4f42b-9b00-4d8b-a725-fda999f08c7c"/>
    <linearGradient id="8df9c58f-e668-4752-a5f3-e1a68d3cc281" x1="508.88" y1="287.14" x2="553.6" y2="287.14" xlink:href="#ede4f42b-9b00-4d8b-a725-fda999f08c7c"/>
    <linearGradient id="0d378853-8ec1-4e0e-8c3b-dfb83b7082b8" x1="465.13" y1="221.08" x2="475.89" y2="221.08" xlink:href="#ede4f42b-9b00-4d8b-a725-fda999f08c7c"/>
    <linearGradient id="1d52956b-22c6-47e3-a39e-30066e3391f7" x1="485.91" y1="230.47" x2="496.67" y2="230.47" xlink:href="#ede4f42b-9b00-4d8b-a725-fda999f08c7c"/>
    <linearGradient id="da02e213-da70-4f30-bae4-ef318444eb68" x1="467.8" y1="240.06" x2="478.56" y2="240.06" xlink:href="#ede4f42b-9b00-4d8b-a725-fda999f08c7c"/>
    <linearGradient id="7fccb8ea-bcfa-48eb-964d-59a25a17fe71" x1="836.5" y1="300" x2="963.5" y2="300" xlink:href="#ede4f42b-9b00-4d8b-a725-fda999f08c7c"/>
    <linearGradient id="fc81251c-d4aa-4aac-9220-a139e9de80dc" x1="1030.68" y1="300" x2="1169.32" y2="300" xlink:href="#ede4f42b-9b00-4d8b-a725-fda999f08c7c"/>
    <linearGradient id="7300053a-5606-4376-a681-7095e96f42e4" x1="66.9" y1="262.75" x2="137.19" y2="349.54" xlink:href="#ede4f42b-9b00-4d8b-a725-fda999f08c7c"/>
    <linearGradient id="1f35b4e1-8098-4d18-ac58-150177aa95d9" x1="148.13" y1="254.61" x2="186.43" y2="301.91" xlink:href="#ede4f42b-9b00-4d8b-a725-fda999f08c7c"/>
    <linearGradient id="e0a6cd7d-6be0-4565-a47c-d15e53ecebf2" x1="23.48" y1="259.21" x2="47.09" y2="288.36" xlink:href="#ede4f42b-9b00-4d8b-a725-fda999f08c7c"/>
    <linearGradient id="b1f392d4-3c1e-44a3-bbb7-35bbf3bbe016" x1="744.07" y1="236.77" x2="756.22" y2="236.77" xlink:href="#ede4f42b-9b00-4d8b-a725-fda999f08c7c"/>
    <linearGradient id="11e20e90-4692-4723-b703-223059fdc3d6" x1="643.78" y1="276.89" x2="655.93" y2="276.89" xlink:href="#ede4f42b-9b00-4d8b-a725-fda999f08c7c"/>
    <linearGradient id="8216a5aa-5b1d-4c14-86a9-8f120dc38cc9" x1="653.81" y1="226.74" x2="665.96" y2="226.74" xlink:href="#ede4f42b-9b00-4d8b-a725-fda999f08c7c"/>
    <linearGradient id="07a802bb-1b53-45e1-90e8-ac275e944d3d" x1="734.04" y1="276.89" x2="746.19" y2="276.89" xlink:href="#ede4f42b-9b00-4d8b-a725-fda999f08c7c"/>
    <linearGradient id="67699edd-ef07-4534-a6c9-4af4ffa50a11" x1="764.12" y1="296.94" x2="776.28" y2="296.94" xlink:href="#ede4f42b-9b00-4d8b-a725-fda999f08c7c"/>
    <linearGradient id="646faef1-bc8b-48dc-98fc-de71c09372ed" x1="623.72" y1="327.03" x2="635.88" y2="327.03" xlink:href="#ede4f42b-9b00-4d8b-a725-fda999f08c7c"/>
    <linearGradient id="758225ba-5db9-474f-962e-46e36b9bda44" x1="672.61" y1="264.3" x2="716.05" y2="264.3" xlink:href="#ede4f42b-9b00-4d8b-a725-fda999f08c7c"/>
    <linearGradient id="a7e4afe2-b7f2-44cb-b2a9-a75b4ae10750" x1="690.52" y1="226.44" x2="709.48" y2="226.44" xlink:href="#ede4f42b-9b00-4d8b-a725-fda999f08c7c"/>
    <linearGradient id="5b877966-c8b2-455b-ac71-acb69e018d61" x1="695.64" y1="364.5" x2="766.25" y2="364.5" xlink:href="#ede4f42b-9b00-4d8b-a725-fda999f08c7c"/>
    <linearGradient id="76794c38-44db-43a0-bf97-aae4790d1b87" x1="633.75" y1="344.64" x2="749.91" y2="344.64" xlink:href="#ede4f42b-9b00-4d8b-a725-fda999f08c7c"/>
    <linearGradient id="2779e8f3-072d-4dd1-b834-d1ce41034612" x1="642.13" y1="311.53" x2="732.9" y2="311.53" xlink:href="#ede4f42b-9b00-4d8b-a725-fda999f08c7c"/>
    <linearGradient id="a5a952fb-7fbf-4911-ba6f-6eb8c53f2c32" x1="283.46" y1="300" x2="382.72" y2="300" xlink:href="#ede4f42b-9b00-4d8b-a725-fda999f08c7c"/>
    <linearGradient id="495d3eac-e7f3-444c-942a-06359c97b73b" x1="217.28" y1="311.03" x2="305.07" y2="311.03" xlink:href="#ede4f42b-9b00-4d8b-a725-fda999f08c7c"/>
  </defs>
  <title>why_we_icons-sprite</title>

  <g>
    <path class="d547fedf-3570-4e83-93e5-6fae079861ea" d="M440.53,108.16a19.65,19.65,0,0,0,38.48,8l3.23-29.61c-10.6-5.75-6.72,18.1-25,14.15C444.62,98,441.19,106.05,440.53,108.16Z"/>
    <path class="d547fedf-3570-4e83-93e5-6fae079861ea" d="M576.72,143.71a4.74,4.74,0,0,0-6-3l-13.21,4.39-8.31-25a34.68,34.68,0,0,0,17.65-42.71l-21.7-50.17-57.72,19.2,3.86,15.69L442,51.45l-16.27,52.62A34.7,34.7,0,0,0,448,144.21L442.38,170,428.8,167a4.79,4.79,0,0,0-5.65,3.64,4.74,4.74,0,0,0,3.64,5.65L445,180.24h.1l18.19,3.93a5,5,0,0,0,1,.11,4.75,4.75,0,0,0,1-9.4L451.68,172l5.54-25.64c.91.08,1.82.15,2.74.15a35.22,35.22,0,0,0,34.21-28L498,89.59l2.53,10.29a34.57,34.57,0,0,0,39.63,23.3l8.29,24.91-13.19,4.39a4.75,4.75,0,0,0,1.5,9.26,4.67,4.67,0,0,0,1.5-.25l35.41-11.77A4.75,4.75,0,0,0,576.72,143.71Zm-91.9-26.85a25.83,25.83,0,0,1-30.3,19.52h0a25.51,25.51,0,0,1-19.64-29.9l13.59-43.9,42.36,9.16Zm24.87-19.61L498.74,52.67,539.88,39,558,80.77a25.51,25.51,0,0,1-48.28,16.48Z"/>
    <path class="d547fedf-3570-4e83-93e5-6fae079861ea" d="M552.69,83.46c-.92-2-5.17-9.67-17.39-5.61-17.79,5.92-16.51-18.22-26.42-11.36l6.4,29.07a19.66,19.66,0,0,0,37.41-12.1Z"/>
    <path class="d547fedf-3570-4e83-93e5-6fae079861ea" d="M470.81,26.45a5.38,5.38,0,1,0-5.67-5.08A5.38,5.38,0,0,0,470.81,26.45Z"/>
    <path class="d547fedf-3570-4e83-93e5-6fae079861ea" d="M491.58,35.84a5.38,5.38,0,1,0-5.66-5.08A5.39,5.39,0,0,0,491.58,35.84Z"/>
    <path class="d547fedf-3570-4e83-93e5-6fae079861ea" d="M467.81,40.35a5.38,5.38,0,1,0,5.08-5.66A5.38,5.38,0,0,0,467.81,40.35Z"/>
  </g>
  <path class="d547fedf-3570-4e83-93e5-6fae079861ea" d="M944.88,55.11a63.49,63.49,0,0,0-92.45,87l.66.52c-2.41,5.18-6.52,11.57-13.07,14.79a2.46,2.46,0,0,0,.71,4.64,36.14,36.14,0,0,0,27-7.36l.14.1a63.48,63.48,0,0,0,77-99.66Zm-24,72.05c-1.4,1.43-2.88,2.75-4.2,4.23a8.26,8.26,0,0,1-7.1,2.69,29.22,29.22,0,0,1-11.29-3.3,61.35,61.35,0,0,1-20.41-16A56.57,56.57,0,0,1,868,98.24,21.71,21.71,0,0,1,866.31,89a7.63,7.63,0,0,1,2.35-5.07c1.58-1.5,3.06-3.06,4.62-4.59a4.39,4.39,0,0,1,6.6,0c1.26,1.24,2.48,2.48,3.72,3.72s2.43,2.4,3.61,3.62c2.11,2.13,2.11,4.61,0,6.75-1.5,1.53-3,3.06-4.56,4.54a1,1,0,0,0-.24,1.22,26.45,26.45,0,0,0,4.12,6.59,46.63,46.63,0,0,0,11.53,10.48c1,.61,2,1,3,1.59a.91.91,0,0,0,1.27-.24c1.5-1.56,3.06-3.09,4.59-4.62a4.33,4.33,0,0,1,6.57,0q3.72,3.67,7.39,7.39C923,122.54,923,125.08,920.92,127.16Zm-23.41-41,.79-5.65a25.24,25.24,0,0,1,21.35,20.69l-5.62,1a19.57,19.57,0,0,0-16.52-16Zm31.33,15a36.18,36.18,0,0,0-30.59-29.67l.79-5.64a41.27,41.27,0,0,1,23.75,11.85,41.71,41.71,0,0,1,11.67,22.49Z"/>
  <path id="0204fd4e-5a91-4989-a42d-cce99ba8c523" data-name="&lt;Составной контур&gt;" class="d547fedf-3570-4e83-93e5-6fae079861ea" d="M1116.47,154v4.22a6.69,6.69,0,0,1-5.68,6.63l-1,3.84a4.77,4.77,0,0,1-4.61,3.53h-10.31a4.77,4.77,0,0,1-4.61-3.53l-1-3.84a6.72,6.72,0,0,1-5.71-6.66V154a4.06,4.06,0,0,1,4.07-4.07h24.83A4.11,4.11,0,0,1,1116.47,154Zm19.11-56.89a35.38,35.38,0,0,1-10,24.7,32.74,32.74,0,0,0-8.74,17.71,5.88,5.88,0,0,1-5.82,5h-22.09a5.82,5.82,0,0,1-5.79-4.94,33,33,0,0,0-8.8-17.77,35.58,35.58,0,1,1,61.23-24.67ZM1104,75.57a4,4,0,0,0-4-4,25.71,25.71,0,0,0-25.68,25.69,4,4,0,0,0,8,0A17.68,17.68,0,0,1,1100,79.58,4,4,0,0,0,1104,75.57Zm-4-25.72a4,4,0,0,0,4-4V31.78a4,4,0,0,0-8,0V45.84A4,4,0,0,0,1100,49.85Zm-47.23,47.24a4,4,0,0,0-4-4h-14.06a4,4,0,0,0,0,8h14.06A4,4,0,0,0,1052.77,97.09Zm112.54-4h-14.06a4,4,0,1,0,0,8h14.06a4,4,0,0,0,0-8ZM1060.94,130.5l-10,10a4,4,0,0,0,5.65,5.67l10-9.95a4,4,0,0,0,0-5.68A4,4,0,0,0,1060.94,130.5Zm75.3-65.64a4,4,0,0,0,2.82-1.15l10-10a4,4,0,0,0-5.68-5.68l-10,10a4,4,0,0,0,0,5.68A4.09,4.09,0,0,0,1136.24,64.86Zm-75.3-1.18a4,4,0,0,0,5.65-5.68l-10-10a4,4,0,1,0-5.68,5.68Zm78.12,66.82a4,4,0,0,0-5.68,5.68l10,9.95a4,4,0,1,0,5.65-5.67Z"/>
  <g>
    <path class="d547fedf-3570-4e83-93e5-6fae079861ea" d="M143,69.08a3.57,3.57,0,0,0-.8-1.06,3.3,3.3,0,0,0-1.11-.67l-20.74-7.46a13.18,13.18,0,0,0-9.18.09L95.44,66a34,34,0,0,0-3.29,1.46L91.08,68a29.79,29.79,0,0,0-3.72-1.69,28.4,28.4,0,0,0-12.45-1.72l-10.58.91A3.16,3.16,0,0,0,63,66a3.57,3.57,0,0,0-1.08,1L38.06,100.91a3.81,3.81,0,0,0-.67,2.52,3.72,3.72,0,0,0,1.08,2.35l10.36,10.28a8.28,8.28,0,0,0-1,3.46,8.42,8.42,0,0,0,7.86,9H56a8.46,8.46,0,0,0,2.24,8.64,8.38,8.38,0,0,0,5.24,2.28A8.41,8.41,0,0,0,71.31,151a8.35,8.35,0,0,0,6-2.48A8.45,8.45,0,0,0,85,155.67l.56,0a8.4,8.4,0,0,0,2.92-.53,8.63,8.63,0,0,0,5.16,1.46,8.82,8.82,0,0,0,6-2.73L94,148.2c0-.13,0-.25,0-.39a8.5,8.5,0,0,0-.41-3.2l11.67,11.64a11.56,11.56,0,0,0,4.74.83,11.77,11.77,0,0,0,8.42-4.16l1.17-1.35a1.7,1.7,0,0,0,.26-.43l-18-17.91a1.28,1.28,0,0,1-.09-1.71,1.07,1.07,0,0,1,1.58,0l21.37,21.31a10.13,10.13,0,0,0,3.7.55,10.32,10.32,0,0,0,7.41-3.66l2.82-3.26a4.18,4.18,0,0,0,1-2.88l-18.75-18.69a1.27,1.27,0,0,1-.09-1.7,1.07,1.07,0,0,1,1.59,0l18.83,18.79a8.28,8.28,0,0,0,8.49-2.72l.76-.88a9.72,9.72,0,0,0,2.31-6.72,9.62,9.62,0,0,0-2.78-6.52l-5-5,1.28,1.26L159.88,109a3.6,3.6,0,0,0,1.15-2.1,3.76,3.76,0,0,0-.34-2.4ZM55.92,124.84a4.77,4.77,0,0,1-4.46-5.09,4.79,4.79,0,0,1,4.76-4.47h.32a4.79,4.79,0,1,1-.62,9.55Zm8.15,10.95a4.78,4.78,0,0,1-3.53-8l2.86-3,.47-.5a4.79,4.79,0,1,1,6.95,6.58l-1.33,1.41-.91.95-.15.16-.6.63-.27.29,0,.05A4.77,4.77,0,0,1,64.07,135.79Zm10.68,10.12a4.78,4.78,0,0,1-7-6.55c0-.05,1.13-1.21,2.38-2.52h0l.92-1,2.32-2.46s0,0,.06-.06h0a2,2,0,0,1,.25-.26,4.73,4.73,0,0,1,3.48-1.5,4.79,4.79,0,0,1,3.47,8.08Zm15.61,1.66a4.79,4.79,0,1,1-4.78-5.1h.32A4.79,4.79,0,0,1,90.36,147.57Zm53.42-28.74L106.53,81.69l.42-1.06a2,2,0,0,0-.12-1.75,1.76,1.76,0,0,0-1.42-.9l-2.76-.17-3-.18-.23,3.59a41.54,41.54,0,0,1-4.76,15.59c-4.26,7.56-9.9,10.17-10.77,10.33a15.53,15.53,0,0,1-2.8.37,3.18,3.18,0,0,1-1.4-.26l-1.42-.65A2.51,2.51,0,0,1,77,105.17a2.73,2.73,0,0,1,0-1.91l14.17-31.1,2.41-1.58,1-.37h0l17.81-6.79a9.9,9.9,0,0,1,3.48-.66h.1a10.14,10.14,0,0,1,3.4.59L140,70.8l17.69,35.46Z"/>
    <path class="d547fedf-3570-4e83-93e5-6fae079861ea" d="M163.93,46.43l-14,7A8.81,8.81,0,0,0,146,65.22L164.32,102a8.79,8.79,0,0,0,11.8,4l14-7ZM176.08,99a3.38,3.38,0,1,1,3.38-3.37A3.37,3.37,0,0,1,176.08,99Z"/>
    <path class="d547fedf-3570-4e83-93e5-6fae079861ea" d="M60,57.59A8.78,8.78,0,0,0,56.4,51.9l-12.8-9-33.71,48,12.79,9a8.8,8.8,0,0,0,12.26-2.14l23.6-33.6A8.73,8.73,0,0,0,60,57.59ZM27.59,90.19a3.37,3.37,0,0,1-6.67-1,3.37,3.37,0,1,1,6.67,1Z"/>
  </g>
  <g>
    <path class="d547fedf-3570-4e83-93e5-6fae079861ea" d="M750.14,42.85a6.08,6.08,0,1,0-4.29-1.78A6.11,6.11,0,0,0,750.14,42.85Z"/>
    <path class="d547fedf-3570-4e83-93e5-6fae079861ea" d="M649.86,83a6.09,6.09,0,1,0-4.3-1.79A6.13,6.13,0,0,0,649.86,83Z"/>
    <path class="d547fedf-3570-4e83-93e5-6fae079861ea" d="M659.88,32.82A6.08,6.08,0,1,0,655.59,31,6.13,6.13,0,0,0,659.88,32.82Z"/>
    <path class="d547fedf-3570-4e83-93e5-6fae079861ea" d="M740.12,83a6.09,6.09,0,1,0-4.3-1.79A6.11,6.11,0,0,0,740.12,83Z"/>
    <path class="d547fedf-3570-4e83-93e5-6fae079861ea" d="M774.5,92.65a6.07,6.07,0,1,0,1.78,4.3A6.13,6.13,0,0,0,774.5,92.65Z"/>
    <path class="d547fedf-3570-4e83-93e5-6fae079861ea" d="M635.88,127a6.09,6.09,0,1,0-1.79,4.3A6.11,6.11,0,0,0,635.88,127Z"/>
    <path class="d547fedf-3570-4e83-93e5-6fae079861ea" d="M709.43,43.34a18.9,18.9,0,0,1-18.86,0l-18,41.92,43.44-26.47Z"/>
    <path class="d547fedf-3570-4e83-93e5-6fae079861ea" d="M700,36.13a9.69,9.69,0,1,0-9.48-9.69A9.6,9.6,0,0,0,700,36.13Z"/>
    <path class="d547fedf-3570-4e83-93e5-6fae079861ea" d="M753.32,145.74l-57.68,37.51h64.54a6.07,6.07,0,0,0,5.58-8.47Z"/>
    <path class="d547fedf-3570-4e83-93e5-6fae079861ea" d="M736.3,106,636.16,170.32l-1.92,4.46a6.07,6.07,0,0,0,5.59,8.47H680l69.88-45.44Z"/>
    <polygon class="d547fedf-3570-4e83-93e5-6fae079861ea" points="719.44 66.69 666.83 98.74 642.13 156.37 732.9 98.1 719.44 66.69"/>
  </g>
  <g>
    <path class="d547fedf-3570-4e83-93e5-6fae079861ea" d="M338.74,114.38a49.6,49.6,0,1,0-13.66-.32,16.57,16.57,0,0,0,3.48,18.31l6.46,6.45a5.52,5.52,0,0,1,0,7.8l-6.46,6.46a16.54,16.54,0,0,0,0,23.4l6.46,6.46a5.52,5.52,0,0,0,7.8-7.8l-6.47-6.46a5.53,5.53,0,0,1,0-7.8l6.47-6.46a16.59,16.59,0,0,0,0-23.4l-6.47-6.46a5.52,5.52,0,0,1,0-7.79Zm-5.65-65.85a16.56,16.56,0,0,0-16.55,16.54,5.52,5.52,0,1,1-11,0A27.61,27.61,0,0,1,333.09,37.5a5.52,5.52,0,0,1,0,11Z"/>
    <path class="d547fedf-3570-4e83-93e5-6fae079861ea" d="M272.56,136.44a49.58,49.58,0,0,0,32.51-17.62,60.38,60.38,0,0,1-26.62-79.91,49.61,49.61,0,1,0-19.54,97.2,16.58,16.58,0,0,0,3.47,18.31l6.46,6.46a5.52,5.52,0,0,1,0,7.8l-6.46,6.46a5.52,5.52,0,1,0,7.8,7.8l6.46-6.46a16.57,16.57,0,0,0,0-23.4l-6.46-6.46a5.5,5.5,0,0,1,0-7.8ZM255.88,74.27a16.56,16.56,0,0,0-16.54,16.54,5.52,5.52,0,0,1-11,0,27.6,27.6,0,0,1,27.57-27.57,5.52,5.52,0,1,1,0,11Z"/>
  </g>
  <g>
    <path class="fdb7d454-baaa-4e5c-ba2d-1ec06c9fb78d" d="M440.53,308.16a19.65,19.65,0,0,0,38.48,8l3.23-29.61c-10.6-5.75-6.72,18.1-25,14.15C444.62,298,441.19,306.05,440.53,308.16Z"/>
    <path class="ef6d8410-e33f-4cd5-8f10-caa0a864c074" d="M576.72,343.71a4.74,4.74,0,0,0-6-3l-13.21,4.39-8.31-25a34.68,34.68,0,0,0,17.65-42.71l-21.7-50.17-57.72,19.2,3.86,15.69L442,251.45l-16.27,52.62A34.7,34.7,0,0,0,448,344.21L442.38,370,428.8,367a4.79,4.79,0,0,0-5.65,3.64,4.74,4.74,0,0,0,3.64,5.65L445,380.24h.1l18.19,3.93a5,5,0,0,0,1,.11,4.75,4.75,0,0,0,1-9.4L451.68,372l5.54-25.64c.91.08,1.82.15,2.74.15a35.22,35.22,0,0,0,34.21-28l3.86-28.9,2.53,10.29a34.57,34.57,0,0,0,39.63,23.3l8.29,24.91-13.19,4.39a4.75,4.75,0,0,0,1.5,9.26,4.67,4.67,0,0,0,1.5-.25l35.41-11.77A4.75,4.75,0,0,0,576.72,343.71Zm-91.9-26.85a25.83,25.83,0,0,1-30.3,19.52h0a25.51,25.51,0,0,1-19.64-29.9l13.59-43.9,42.36,9.16Zm24.87-19.61-10.95-44.58L539.88,239,558,280.77a25.51,25.51,0,0,1-48.28,16.48Z"/>
    <path class="d7207fa1-fe15-4512-8389-3de3c3f532be" d="M552.69,283.46c-.92-2-5.17-9.67-17.39-5.61-17.79,5.92-16.51-18.22-26.42-11.36l6.4,29.07a19.66,19.66,0,0,0,37.41-12.1Z"/>
    <path class="5ac134bb-ea70-4921-8995-dedc5a453ae1" d="M470.81,226.45a5.38,5.38,0,1,0-5.67-5.08A5.38,5.38,0,0,0,470.81,226.45Z"/>
    <path class="ce7ed70c-44d0-4134-a484-cbb9d2d683cd" d="M491.58,235.84a5.38,5.38,0,1,0-5.66-5.08A5.39,5.39,0,0,0,491.58,235.84Z"/>
    <path class="870f19a5-b921-41ac-b554-24879ea4e438" d="M467.81,240.35a5.38,5.38,0,1,0,5.08-5.66A5.38,5.38,0,0,0,467.81,240.35Z"/>
  </g>
  <path class="473538e9-42e2-4d03-ada3-90749134a576" d="M944.88,255.11a63.49,63.49,0,0,0-92.45,87l.66.52c-2.41,5.18-6.52,11.57-13.07,14.79a2.46,2.46,0,0,0,.71,4.64,36.14,36.14,0,0,0,27-7.36l.14.1a63.48,63.48,0,0,0,77-99.66Zm-24,72.05c-1.4,1.43-2.88,2.75-4.2,4.23a8.26,8.26,0,0,1-7.1,2.69,29.22,29.22,0,0,1-11.29-3.3,61.35,61.35,0,0,1-20.41-16A56.57,56.57,0,0,1,868,298.24a21.71,21.71,0,0,1-1.66-9.24,7.63,7.63,0,0,1,2.35-5.07c1.58-1.5,3.06-3.06,4.62-4.59a4.39,4.39,0,0,1,6.6,0c1.26,1.24,2.48,2.48,3.72,3.72s2.43,2.4,3.61,3.62c2.11,2.13,2.11,4.61,0,6.75-1.5,1.53-3,3.06-4.56,4.54a1,1,0,0,0-.24,1.22,26.45,26.45,0,0,0,4.12,6.59,46.63,46.63,0,0,0,11.53,10.48c1,.61,2,1,3,1.59a.91.91,0,0,0,1.27-.24c1.5-1.56,3.06-3.09,4.59-4.62a4.33,4.33,0,0,1,6.57,0q3.72,3.67,7.39,7.39C923,322.54,923,325.08,920.92,327.16Zm-23.41-41,.79-5.65a25.24,25.24,0,0,1,21.35,20.69l-5.62,1a19.57,19.57,0,0,0-16.52-16Zm31.33,15a36.18,36.18,0,0,0-30.59-29.67l.79-5.64a41.27,41.27,0,0,1,23.75,11.85,41.71,41.71,0,0,1,11.67,22.49Z"/>
  <path id="53cfbac7-e095-4c2b-bee6-749b4407cd05" data-name="&lt;Составной контур&gt;" class="efd8b72f-960d-4097-9458-e293f2ad61f4" d="M1116.47,354v4.22a6.69,6.69,0,0,1-5.68,6.63l-1,3.84a4.77,4.77,0,0,1-4.61,3.53h-10.31a4.77,4.77,0,0,1-4.61-3.53l-1-3.84a6.72,6.72,0,0,1-5.71-6.66V354a4.06,4.06,0,0,1,4.07-4.07h24.83A4.11,4.11,0,0,1,1116.47,354Zm19.11-56.89a35.38,35.38,0,0,1-10,24.7,32.74,32.74,0,0,0-8.74,17.71,5.88,5.88,0,0,1-5.82,5h-22.09a5.82,5.82,0,0,1-5.79-4.94,33,33,0,0,0-8.8-17.77,35.58,35.58,0,1,1,61.23-24.67ZM1104,275.57a4,4,0,0,0-4-4,25.71,25.71,0,0,0-25.68,25.69,4,4,0,0,0,8,0A17.68,17.68,0,0,1,1100,279.58,4,4,0,0,0,1104,275.57Zm-4-25.72a4,4,0,0,0,4-4V231.78a4,4,0,0,0-8,0v14.06A4,4,0,0,0,1100,249.85Zm-47.23,47.24a4,4,0,0,0-4-4h-14.06a4,4,0,0,0,0,8h14.06A4,4,0,0,0,1052.77,297.09Zm112.54-4h-14.06a4,4,0,1,0,0,8h14.06a4,4,0,0,0,0-8ZM1060.94,330.5l-10,10a4,4,0,0,0,5.65,5.67l10-9.95a4,4,0,0,0,0-5.68A4,4,0,0,0,1060.94,330.5Zm75.3-65.64a4,4,0,0,0,2.82-1.15l10-10a4,4,0,0,0-5.68-5.68l-10,10a4,4,0,0,0,0,5.68A4.09,4.09,0,0,0,1136.24,264.86Zm-75.3-1.18a4,4,0,0,0,5.65-5.68l-10-10a4,4,0,1,0-5.68,5.68Zm78.12,66.82a4,4,0,0,0-5.68,5.68l10,9.95a4,4,0,0,0,5.65-5.67Z"/>
  <g>
    <path class="16bbde9b-1e02-4e69-8da8-fdd8de322623" d="M143,269.08a3.57,3.57,0,0,0-.8-1.06,3.3,3.3,0,0,0-1.11-.67l-20.74-7.46a13.18,13.18,0,0,0-9.18.09l-15.74,6a34,34,0,0,0-3.29,1.46l-1.07.59a29.79,29.79,0,0,0-3.72-1.69,28.4,28.4,0,0,0-12.45-1.72l-10.58.91A3.16,3.16,0,0,0,63,266a3.57,3.57,0,0,0-1.08,1L38.06,300.91a3.81,3.81,0,0,0-.67,2.52,3.72,3.72,0,0,0,1.08,2.35l10.36,10.28a8.28,8.28,0,0,0-1,3.46,8.42,8.42,0,0,0,7.86,9H56a8.46,8.46,0,0,0,2.24,8.64,8.38,8.38,0,0,0,5.24,2.28A8.41,8.41,0,0,0,71.31,351a8.35,8.35,0,0,0,6-2.48A8.45,8.45,0,0,0,85,355.67l.56,0a8.4,8.4,0,0,0,2.92-.53,8.63,8.63,0,0,0,5.16,1.46,8.82,8.82,0,0,0,6-2.73L94,348.2c0-.13,0-.25,0-.39a8.5,8.5,0,0,0-.41-3.2l11.67,11.64a11.56,11.56,0,0,0,4.74.83,11.77,11.77,0,0,0,8.42-4.16l1.17-1.35a1.7,1.7,0,0,0,.26-.43l-18-17.91a1.28,1.28,0,0,1-.09-1.71,1.07,1.07,0,0,1,1.58,0l21.37,21.31a10.13,10.13,0,0,0,3.7.55,10.32,10.32,0,0,0,7.41-3.66l2.82-3.26a4.18,4.18,0,0,0,1-2.88l-18.75-18.69a1.27,1.27,0,0,1-.09-1.7,1.07,1.07,0,0,1,1.59,0l18.83,18.79a8.28,8.28,0,0,0,8.49-2.72l.76-.88a9.72,9.72,0,0,0,2.31-6.72,9.62,9.62,0,0,0-2.78-6.52l-5-5,1.28,1.26L159.88,309a3.6,3.6,0,0,0,1.15-2.1,3.76,3.76,0,0,0-.34-2.4ZM55.92,324.84a4.77,4.77,0,0,1-4.46-5.09,4.79,4.79,0,0,1,4.76-4.47h.32a4.79,4.79,0,1,1-.62,9.55Zm8.15,11a4.78,4.78,0,0,1-3.53-8l2.86-3,.47-.5a4.79,4.79,0,1,1,6.95,6.58l-1.33,1.41-.91.95-.15.16-.6.63-.27.29,0,.05A4.77,4.77,0,0,1,64.07,335.79Zm10.68,10.12a4.78,4.78,0,0,1-7-6.55c0-.05,1.13-1.21,2.38-2.52h0l.92-1,2.32-2.46.06-.06h0a2,2,0,0,1,.25-.26,4.73,4.73,0,0,1,3.48-1.5,4.79,4.79,0,0,1,3.47,8.08Zm15.61,1.66a4.79,4.79,0,1,1-4.78-5.1h.32A4.79,4.79,0,0,1,90.36,347.57Zm53.42-28.74-37.25-37.14.42-1.06a2,2,0,0,0-.12-1.75,1.76,1.76,0,0,0-1.42-.9l-2.76-.17-3-.18-.23,3.59a41.54,41.54,0,0,1-4.76,15.59c-4.26,7.56-9.9,10.17-10.77,10.33a15.53,15.53,0,0,1-2.8.37,3.18,3.18,0,0,1-1.4-.26l-1.42-.65A2.51,2.51,0,0,1,77,305.17a2.73,2.73,0,0,1,0-1.91l14.17-31.1,2.41-1.58,1-.37h0l17.81-6.79a9.9,9.9,0,0,1,3.48-.66h.1a10.14,10.14,0,0,1,3.4.59L140,270.8l17.69,35.46Z"/>
    <path class="7b5f0dc2-7e7d-4604-9991-6d471ba9160c" d="M163.93,246.43l-14,7A8.81,8.81,0,0,0,146,265.22L164.32,302a8.79,8.79,0,0,0,11.8,4l14-7ZM176.08,299a3.38,3.38,0,1,1,3.38-3.37A3.37,3.37,0,0,1,176.08,299Z"/>
    <path class="8a7a2c38-992c-466e-8c98-1cfc419fac51" d="M60,257.59a8.78,8.78,0,0,0-3.61-5.69l-12.8-9-33.71,48,12.79,9a8.8,8.8,0,0,0,12.26-2.14l23.6-33.6A8.73,8.73,0,0,0,60,257.59Zm-32.42,32.6a3.37,3.37,0,0,1-6.67-1,3.37,3.37,0,1,1,6.67,1Z"/>
  </g>
  <g>
    <path class="4740d4dd-16d0-47ac-8617-a6ffd4268f15" d="M750.14,242.85a6.08,6.08,0,1,0-4.29-1.78A6.11,6.11,0,0,0,750.14,242.85Z"/>
    <path class="5561c548-750c-48c4-b260-74a9434f258b" d="M649.86,283a6.09,6.09,0,1,0-4.3-1.79A6.13,6.13,0,0,0,649.86,283Z"/>
    <path class="c12571fb-24e2-4c49-90ac-6bbce6b5ed31" d="M659.88,232.82a6.08,6.08,0,1,0-4.29-1.78A6.13,6.13,0,0,0,659.88,232.82Z"/>
    <path class="5c6997ab-9ac7-4b08-96cb-af9ca4df1366" d="M740.12,283a6.09,6.09,0,1,0-4.3-1.79A6.11,6.11,0,0,0,740.12,283Z"/>
    <path class="a2cb3150-8664-46f5-b88a-641e824f840e" d="M774.5,292.65a6.07,6.07,0,1,0,1.78,4.3A6.13,6.13,0,0,0,774.5,292.65Z"/>
    <path class="e08e93eb-005c-4b9a-8044-42dd4bd788ff" d="M635.88,327a6.09,6.09,0,1,0-1.79,4.3A6.11,6.11,0,0,0,635.88,327Z"/>
    <path class="c45eac3c-0597-485f-9456-f850327eec6f" d="M709.43,243.34a18.9,18.9,0,0,1-18.86,0l-18,41.92,43.44-26.47Z"/>
    <path class="352c66c7-cc1d-48d3-a921-9feec974f3ec" d="M700,236.13a9.69,9.69,0,1,0-9.48-9.69A9.6,9.6,0,0,0,700,236.13Z"/>
    <path class="2d1d21d6-edff-4d79-9f59-ef50fe337246" d="M753.32,345.74l-57.68,37.51h64.54a6.07,6.07,0,0,0,5.58-8.47Z"/>
    <path class="6c45f4b8-d16b-4ab1-b58c-b66d45df286f" d="M736.3,306,636.16,370.32l-1.92,4.46a6.07,6.07,0,0,0,5.59,8.47H680l69.88-45.44Z"/>
    <polygon class="33f9c378-5a19-4951-8c6e-99f7cb8b704a" points="719.44 266.69 666.83 298.74 642.13 356.37 732.9 298.1 719.44 266.69"/>
  </g>
  <g>
    <path class="f45064b4-60d2-4ace-a289-2ae206ffbc8f" d="M338.74,314.38a49.6,49.6,0,1,0-13.66-.32,16.57,16.57,0,0,0,3.48,18.31l6.46,6.45a5.52,5.52,0,0,1,0,7.8l-6.46,6.46a16.54,16.54,0,0,0,0,23.4l6.46,6.46a5.52,5.52,0,0,0,7.8-7.8l-6.47-6.46a5.53,5.53,0,0,1,0-7.8l6.47-6.46a16.59,16.59,0,0,0,0-23.4l-6.47-6.46a5.52,5.52,0,0,1,0-7.79Zm-5.65-65.85a16.56,16.56,0,0,0-16.55,16.54,5.52,5.52,0,1,1-11,0,27.61,27.61,0,0,1,27.58-27.57,5.52,5.52,0,0,1,0,11Z"/>
    <path class="7efeea2c-8c07-4f18-9fb3-1cec2ca59a18" d="M272.56,336.44a49.58,49.58,0,0,0,32.51-17.62,60.38,60.38,0,0,1-26.62-79.91,49.61,49.61,0,1,0-19.54,97.2,16.58,16.58,0,0,0,3.47,18.31l6.46,6.46a5.52,5.52,0,0,1,0,7.8l-6.46,6.46a5.52,5.52,0,1,0,7.8,7.8l6.46-6.46a16.57,16.57,0,0,0,0-23.4l-6.46-6.46a5.5,5.5,0,0,1,0-7.8Zm-16.68-62.17a16.56,16.56,0,0,0-16.54,16.54,5.52,5.52,0,0,1-11,0,27.6,27.6,0,0,1,27.57-27.57,5.52,5.52,0,1,1,0,11Z"/>
  </g>
</svg>
