<svg xmlns="http://www.w3.org/2000/svg" width="16" height="16" viewBox="0 0 16 16">
    <g fill="#FFF">
        <path d="M14.667 9.34h-2.282c-1.438 0-2.607-1.17-2.607-2.607 0-1.438 1.17-2.607 2.607-2.607h2.282c.18 0 .326-.146.326-.326V2.17c0-.719-.585-1.304-1.304-1.304H1.304C.584.866 0 1.451 0 2.17v9.126c0 .719.585 1.304 1.304 1.304h12.385c.719 0 1.304-.585 1.304-1.304v-1.63c0-.18-.146-.326-.326-.326z" transform="translate(0 1.267)"/>
        <path d="M14.613 4.777h-2.281c-1.079 0-1.956.878-1.956 1.956 0 1.078.877 1.956 1.956 1.956h2.281c.54 0 .978-.44.978-.978V5.755c0-.539-.439-.978-.978-.978zm-2.281 2.608c-.36 0-.652-.293-.652-.652 0-.36.292-.652.652-.652.36 0 .652.293.652.652 0 .36-.293.652-.652.652z" transform="translate(0 1.267)"/>
    </g>
</svg>
