<svg xmlns="http://www.w3.org/2000/svg" width="77" height="86" viewBox="0 0 77 86">
    <g fill="none" fill-rule="evenodd">
        <path fill="#F4CC25" d="M25.685 27.272c0 3.978 2.982 7.202 6.66 7.202 3.679 0 6.66-3.224 6.66-7.202 0-3.978-2.981-7.203-6.66-7.203-3.678 0-6.66 3.225-6.66 7.203M64.276 28.941c1.79 3.956 5.354 6.045 7.96 4.666 2.607-1.379 3.269-5.704 1.479-9.66-1.79-3.955-5.354-6.044-7.96-4.665-2.607 1.379-3.269 5.704-1.48 9.66" transform="translate(.394 .884)"/>
        <path fill="#EA284E" d="M21.652 7.829v-.005c.111-1.095-.128-2.183-.595-3.166-.036.066-.073.132-.112.197-1.22 2.163-2.796 4.097-4.498 5.83-.958.975-1.936 1.93-2.82 2.982-.629 1.084-1.124 2.25-1.644 3.402-.704 1.563-1.557 3.051-2.581 4.394.29.208.575.426.853.656.635.522.259 3.186-.477 3.486-.395.16-.638-.228-.896-.431-.779-.616-.794-.255-.948.579-.484 2.616 1.422 3.486 2.792 4.746.519.476.829-.156 1.136-.462 2.735-2.725 5.466-5.472 8.598-7.65 1.312-.912 1.755-2.034 1.781-3.571.02-1.202.114-2.402.174-3.603-.04-2.493-.234-4.963-.763-7.384" transform="translate(.394 .884)"/>
        <path fill="#415AD6" d="M72.943 41.46c-.38-1.514-1.362-2.762-2.42-3.834-.525-.532-1.078-1.031-1.653-1.5.288.098.588.171.9.216.724-.118 1.484-.191 1.989-.836.351-.448.436-.915-.352-.98-3.289-.275-5.143-2.513-6.283-5.57-.883-2.37-1.221-4.87-1.02-7.438.124-1.562.65-2.904 1.853-3.835.408-.315.605-.564.31-1.094-1.777-3.201-3.645-6.324-6.1-8.993-.583-.633-.963-.592-1.484.04-.555.674-1.475 1.164-1.713 1.926-.233.745.591 1.536.906 2.329 1.997 5.029 3.806 10.127 5.166 15.409.654 2.544 1.427 5.063 3.2 7.004-1.45-.846-2.99-1.51-4.582-1.969-.414-1.269-.64-2.617-.975-3.915-.565-2.194-1.086-4.402-1.604-6.61-.266-1.133-.71-1.747-1.977-1.891-4.828-.55-9.646-.472-14.474-.169-1.413.089-1.365.08-.92 1.49 1.165 3.682 1.977 7.425 1.094 11.333-.264 1.165-.656 2.219-1.172 3.164-.79.375-2.043.28-2.352 1.143-1.19 3.322-3.56 5.6-7.872 4.677-1.98-.043-3.913-.731-5.768-2.227-2.566-2.07-3.71-5.077-4.072-8.464-.136-1.28-.23-2.556-.18-3.845.012-.32.143-.755-.123-.932-.358-.238-.633.198-.884.401-2.79 2.268-5.444 4.714-7.992 7.292-1.505 1.522-1.486 1.541-3.16.181-.576-.468-1.079-1.053-1.88-1.381-.913 5.152-2.868 9.928-3.387 15.055-.967 9.532 1.221 18 8.338 24.148 1.244 1.074 2.533 1.991 3.862 2.763-.457.75-.928 1.491-1.414 2.22l4.326 1.582c9.905 3.706 20.658 4.726 31.008 2.941 4.518-.779 9.078-2.145 12.739-5.11 4.258-3.451 6.932-8.802 8.345-14.35 1.414-5.548 1.683-11.35 1.944-17.098.05-1.097.098-2.214-.167-3.274" transform="translate(.394 .884)"/>
        <path fill="#415AD6" d="M26.05 22.246c1.407-2.933 4.861-4.44 7.75-3.377 4.45 1.638 6.815 6.77 5.35 11.609-1.594 5.266-7.23 7.246-11.231 3.868-2.13-1.798-3.032-4.298-2.936-7.412-.144-1.558.331-3.155 1.067-4.688M24.72 33.063c1.821 5.117 6.756 6.505 10.603 5.048 3.57-1.352 5.545-4.686 5.559-9.733-.083-2.76-.988-5.845-2.225-8.788-1.525-3.627-3.508-6.976-5.8-10.105-.436-.596-.9-.918-1.633-.935-2.193-.05-4.347-.41-6.403-1.27-.78-.327-1.082-.17-.899.772 1.042 5.351.594 10.701.059 16.067-.3 3.01-.304 6.014.74 8.944" transform="translate(.394 .884)"/>
        <path fill="#110508" d="M32.24 34.29c3.139-.036 5.554-2.847 5.533-6.438-.025-4.057-2.61-7.187-5.892-7.133-3.107.051-5.47 3.103-5.425 7.005.046 3.895 2.434 6.606 5.784 6.567m-6.19-12.045c1.407-2.933 4.861-4.44 7.75-3.377 4.45 1.638 6.815 6.77 5.35 11.609-1.594 5.266-7.23 7.246-11.231 3.868-2.13-1.798-3.032-4.298-2.936-7.412-.144-1.558.331-3.155 1.067-4.688" transform="translate(.394 .884)"/>
        <path fill="#0B0B0B" d="M60.529 74.455l-.013.012-.08.071c-.004.002.026-.025.093-.083M54.412 78.47l-.088.038.095-.041-.007.003" transform="translate(.394 .884)"/>
        <path fill="#F42246" d="M56.802 14.762c-.436-1.058-.967-2.071-1.47-3.095-.24-.49-.53-.713-1.108-.43-5.394 2.65-10.806 2.19-16.217.043-.278-.11-.532-.342-.878-.201.953 1.833 1.914 3.648 2.843 5.481.366.722.94.44 1.426.38 4.585-.575 9.184-.591 13.788-.446.153.005.307.004.46.012 1.888.107 1.914.094 1.156-1.744M15.136 5.589l-5.163 8.996c-1.083 1.733-5.346 9.723-4.037 11.263 1.712 2.014 3.58 4.132 5.028 4.13 1.85-.004 2.11-1.776 3.567-3.009l3.623-3.067c.943-.798 4.715-1.99 4.714-5.569 0-4.642.181-7.388-1.008-12.13-.985-4.05-1.94-8.625-6.724-.614" transform="translate(.394 .884)"/>
        <path fill="#0C0B0C" d="M73.033 31.003c-.9 2.374-2.549 2.835-4.33 1.128-2.341-2.244-3.134-5.205-3.136-8.478 0-.497-.03-.997.006-1.49.081-1.111.333-2.195 1.343-2.71 1.062-.54 2.124-.196 3.037.48 2.818 2.085 4.358 7.7 3.08 11.07m-1.274 4.503c-.506.645-1.265.718-1.989.836-1.266-.182-2.321-.816-3.243-1.738-1.977-1.978-2.797-4.627-3.485-7.304-1.36-5.283-3.169-10.38-5.166-15.409-.315-.793-1.14-1.584-.906-2.329.238-.762 1.158-1.252 1.713-1.926.521-.632.901-.673 1.484-.04 2.455 2.669 4.323 5.792 6.1 8.993.295.53.098.779-.31 1.094-1.204.93-1.73 2.273-1.852 3.835-.202 2.567.136 5.068 1.02 7.438 1.14 3.057 2.993 5.295 6.282 5.57.788.065.703.532.352.98M71.147 47.9c-.035.573-.077 1.146-.129 1.718-.224 2.51-.605 5.008-1.167 7.458-.609 2.651-1.433 5.25-2.522 7.717-.144.327-.294.651-.446.974l-.019.039c-.037.07-.071.144-.107.217-.074.148-.15.295-.225.442-.318.615-.655 1.219-1.01 1.81-.729 1.212-1.536 2.369-2.422 3.452-.448.546-.915 1.074-1.402 1.58-.246.258-.497.509-.753.754-.135.129-.27.256-.407.381l-.014.014.018-.016-.03.026-.077.069-.087.076c-1.124.983-2.328 1.858-3.593 2.615-.658.395-1.333.757-2.02 1.088-.099.048-.198.094-.297.14l-.024.012.033-.014-.04.017c-.097.046-.13.058-.083.036-.133.059-.265.118-.399.174-.385.163-.774.316-1.165.46-.782.288-1.575.54-2.376.757-.417.112-.835.216-1.256.31-.223.051-.984.205-.985.205-1.905.338-6.815.552-6.94.545-26.817-1.59-39.309-18.363-37.241-33.318.704-5.101 2.474-9.903 3.388-15.055.8.328 1.303.913 1.879 1.381 1.674 1.36 1.655 1.341 3.16-.181 2.548-2.578 5.202-5.024 7.992-7.292.251-.203.526-.64.884-.4.265.176.135.612.123.931-.05 1.289.044 2.566.18 3.845.362 3.387.848 9.905 9.543 11.33 9.39.356 11.66-7.023 12.116-9.04.883-3.909-.352-8.234-1.516-11.916-.446-1.41-.494-1.401.92-1.49 4.827-.303 9.646-.38 14.473.169 1.268.144 1.711.758 1.977 1.891.518 2.208 1.039 4.416 1.604 6.61.523 2.03.78 4.185 1.906 5.962 1.705 2.688 4.083 4.308 7.083 4.83.453.079 1.07-.023 1.13.765.175 2.239.307 7.73.349 7.828l-.006.094M7.985 21.963c.586-1.453 1.396-2.832 2.093-4.225l2.182-4.359c1.19-2.378 2.453-4.721 3.455-7.202.359-.889.728-1.825 1.162-2.64.22-.415.46-.82.737-1.193.07-.095.147-.184.218-.278l.033-.045.032.008c-.044-.007.25.096.245.094.149.061.294.132.437.208.24.129.458.279.672.453.924.75 1.668 1.75 1.99 2.957 1.394 3.187 1.448 11.877 1.274 13.028-.229 1.518-.743 2.706-2.055 3.619-3.132 2.177-5.863 4.925-8.598 7.65-.307.305-.617.937-1.136.46-.882-.81-2.703-2.462-2.79-2.437-.582-1.98-.718-4.194.05-6.098m9.55-20l-.011.001c-.028-.005-.055-.009-.07-.01.027.002.054.006.08.01m13.69 6.586c.733.017 1.197.34 1.633.934 2.292 3.13 4.275 6.48 5.8 10.106 1.237 2.943 2.142 6.028 2.225 8.788-.014 5.047-1.988 8.38-5.56 9.733-3.846 1.457-8.781.07-10.602-5.048-1.043-2.93-1.04-5.934-.74-8.944.536-5.366.984-10.716-.058-16.067-.183-.942.119-1.1.899-.773 2.056.861 4.21 1.22 6.403 1.271m6.782 2.73c5.41 2.147 10.823 2.608 16.217-.042.578-.284.867-.06 1.107.429.504 1.024 1.034 2.037 1.47 3.095.759 1.838.733 1.85-1.155 1.744-.153-.008-.307-.007-.46-.012-4.604-.145-9.203-.13-13.788.446-.486.06-1.06.342-1.426-.38-.93-1.833-1.89-3.648-2.843-5.481.346-.14.6.09.878.2M74.6 38.857c-.039-.228-.134-.427-.267-.6-.032-.746.116-1.479.181-2.212.336-3.761 2.013-7.422.695-11.326-1.027-3.04-2.44-5.673-5.145-7.334-1.099-.674-7.017-11.201-10.902-14.076-.176-.176-.338-.361-.49-.552-2.071 3.706-5.16 6.063-9.186 7.035-5.23 1.262-9.925-.39-14.328-3.334-.617-.413-1.207-.616-1.917-.646-2.175-.095-8.237-1.704-8.583-1.925-.095-.06-.186-.12-.278-.18-.948-2.038-2.983-3.543-5.06-3.692-1.465-.105-3.042.398-4.153 1.458-.86.82-1.44 1.862-1.962 2.95-.49 1.019-.893 2.081-1.325 3.129-.538 1.305-1.203 2.544-1.832 3.8l-4.79 9.57c-.381.761-.796 1.504-1.02 2.34-.208.785-.276 1.599-.283 2.412-.007.941.105 1.882.319 2.795-.035 1.77-.128 3.535-.56 5.256-.911 3.63-1.82 7.25-2.751 10.887-3.631 14.177 3.882 22.675 8.03 27.508 14.571 16.982 48.274 17.64 58.608-.11 1.453-2.498 3.019-4.94 4.08-7.655.99-2.538 1.723-5.19 2.248-7.885.473-2.435.778-4.908.933-7.39.133-2.12.174-4.248.086-6.37-.053-1.286-.136-2.584-.348-3.853" transform="translate(.394 .884)"/>
        <path fill="#FFF" d="M61.217 42.545c0 4.9-3.746 8.873-8.367 8.873-4.62 0-8.366-3.972-8.366-8.873s3.746-8.874 8.366-8.874c4.621 0 8.367 3.973 8.367 8.874" transform="translate(.394 .884)"/>
        <path stroke="#152972" stroke-width="1.25" d="M61.217 42.545c0 4.9-3.746 8.873-8.367 8.873-4.62 0-8.366-3.972-8.366-8.873s3.746-8.874 8.366-8.874c4.621 0 8.367 3.973 8.367 8.874z" transform="translate(.394 .884)"/>
        <path fill="#F42246" d="M52.17 42.108l1.095-2.763 1.276 2.546-2.37.217zm.68-6.293l-5.369 11.55 1.984 1.367 2.3-4.681 3.266-.392 2.456 4.07 1.926-1.845-6.562-10.069z" transform="translate(.394 .884)"/>
    </g>
</svg>
