<svg xmlns="http://www.w3.org/2000/svg" xmlns:xlink="http://www.w3.org/1999/xlink" width="84" height="53" viewBox="0 0 84 53">
    <defs>
        <path id="b2lbzsn7da" d="M0.085 0.006L82.669 0.006 82.669 52.041 0.085 52.041z"/>
    </defs>
    <g fill="none" fill-rule="evenodd" transform="translate(.608 .766)">
        <path fill="#F42246" d="M8.601 17.88c7.14 2.967 12.187 6.256 18.992 10.651.68.44 1.406.893 2.215.908.791.016 1.522-.392 2.207-.788l7.847-4.53c-.438 8.103 4.467 15.59 10.627 20.873-5.617 1.346-13.327 5.663-20.029 5.776-4.214.072-8.544-.913-11.419-3.625C17.933 46.1 7.056 35.701 5.8 34.668c-9.836-8.089-4.773-13.334 2.801-16.789"/>
        <path fill="#FFF" d="M48.783 10.61c-3.577.882-5.89 4.41-6.976 7.93-2.579 8.356-.4 18.241 6.162 24.022 1.127.993 2.952 1.756 4.393 2.183 3.459 1.024 5.344 2.07 9.058-1.78 2.083-2.158 7.603-1.722 10.994-4.02 3.264-2.21 7.243-6.115 8.074-9.968.832-3.852.558-7.862-.056-11.755-.307-1.948-.705-3.905-1.542-5.691-2.503-5.339-6.57-7.357-11.967-9.73-1.606-.706-5.08-.895-6.833-.848-3.67.1-6.317 2.097-8.177 5.262-.778 1.324-1.523 2.7-2.635 3.759-.904.86-2.013 1.474-2.982 2.26-4.189 3.402-5.12 9.321-5.722 14.684"/>
        <mask id="xu9jclo0tb" fill="#fff">
            <use xlink:href="#b2lbzsn7da"/>
        </mask>
        <path fill="#0A0A0A" d="M79.94 27.69c-.169 1.229-1.835 4.768-2.226 5.376-.882 1.373-2.052 2.442-3.574 3.098-3.564 1.538-7.255 1.644-11.03.836-1.685-.36-2.473-1.64-3.216-2.983-.217-.392.057-.466.339-.465 3.137.006 5.641-1.645 8.253-3.01.407-.211.893-.469.582-1.04-.303-.56-.76-.344-1.19-.113-1.604.86-3.177 1.778-4.901 2.404-1.227.446-2.482.612-3.788.463-1.094-.124-1.947-.578-2.423-1.617-.604-1.317-.75-2.701-.611-4.109.104-1.055.971-1.586 1.732-2.131 2.194-1.572 4.704-2.576 7.131-3.725.254-.12.516-.238.768-.37.35-.181.61-.443.406-.86-.218-.446-.608-.458-1.014-.273-3.06 1.393-6.178 2.692-8.822 4.816-.4.322-.735.36-1.157.155-.53-.257-.16-.626-.095-.926.448-2.043.26-3.962-1.136-5.652-.267-.324-.343-.548-.02-.906 2.331-2.582 4.886-4.837 8.355-5.836.41-.117.81-.377.676-.896-.145-.56-.586-.522-1.037-.39-3.148.914-5.63 2.825-7.86 5.108-.32.326-.622.669-.932 1.004-.54.587-1.041.57-1.432-.158-1.308-2.43-1.807-4.845-.312-7.432 2.955-5.113 9.066-7.44 14.586-5.425 3.081.82 5.685 2.48 7.84 4.753 3.538 3.733 5.061 8.382 5.878 13.29.387 2.324.553 4.67.23 7.014M63.503 40.807c-4.202-.015-7.916-1.287-11.008-4.208-.455-.43-.942-.827-1.41-1.244-.35-.31-.736-.537-1.116-.116-.348.384-.091.725.219 1.012 2.562 2.374 5.247 4.561 8.804 5.272.808.161.884.4.588 1.13-.765 1.89-2.322 2.409-4.135 2.334-3.267-.135-6.008-1.547-8.168-3.939-3.594-3.979-5.668-8.583-5.545-13.99.033-1.47.68-2.763 1.294-4.2.919 1.218 1.9 2.261 3.04 3.149.267.208.231.524.217.82-.064 1.296.298 2.52.701 3.736.14.422.306.863.874.703.572-.16.473-.61.342-1.043-.255-.845-.551-1.68-.639-2.566-.042-.43-.041-.7.556-.529 2.179.63 4.01-.061 5.634-1.478.209-.183.337-.5.716-.424.491.098.542.31.485.821-.251 2.246-.118 4.441 1.484 6.29.15.173.31.414.504.462 1.229.305 1.594 1.355 2.092 2.29 1.277 2.403 3.319 3.47 6.005 3.557 1.38.044 2.757.227 4.436.057-1.93 1.46-3.825 2.11-5.97 2.104M43.895 16.313c.648-2.678 2.754-3.524 4.946-4.386.34-.133.403.053.421.315.067.955.439 1.834.784 2.737-.466.103-1.068-.072-1.088.615-.018.642.555.66.973.784 3.216.953 4.751 3.705 3.896 6.746-.611 2.174-4.154 4.154-6.587 2.156-.051-.042-.105-.08-.159-.12-3.469-2.53-4.181-4.731-3.186-8.847m-17.896 33.32c.08.003.24.013 0 0M73.989 4.52C70.209 1.725 64.236-.39 59.43.07c-7 .668-11.716 9.301-11.83 9.376-5.712 3.743-8.104 9.116-8.253 14.634l-9.917 4.407c-.015-.032-.039-.063-.075-.093-5.527-4.56-11.712-8.288-18.327-11.044-.63-.263-1.474-.015-2.085.204-.122.044-1.47.681-.978.886 6.614 2.757 12.8 6.484 18.327 11.045.138.114-1.25 1.335-.757 1.89.47.532 1.202.425 1.738.186 5.31-2.359 6.803-3.19 12.112-5.55.46 7.062 4.375 14.077 9.513 17.954-6.747 1.663-13.311 4.046-20.124 5.442l-.254.039c-.173.025-.345.048-.518.069-.4.047-.802.082-1.204.1-.183.01-.365.015-.548.017h-.26l-.014-.001c-.419-.02-.836-.055-1.25-.117-.186-.027-.37-.063-.554-.098l-.096-.022c-.072-.018-.143-.037-.214-.057-.413-.118-.809-.271-1.202-.442l-.127-.06c-.068-.035-.135-.073-.202-.11-.17-.098-.336-.203-.498-.314-.413-.282-.8-.603-1.194-.912-3.09-2.425-6.108-4.96-8.901-7.724-3.191-3.158-6.102-6.602-8.513-10.395-.795-1.25-3.888-.005-2.97 1.438 4.443 6.99 10.55 12.73 16.99 17.862 1.494 1.19 2.94 2.365 4.817 2.885 1.755.486 3.59.573 5.396.385 1.466-.153 2.914-.46 4.337-.838 1.529-.407 3.067-.776 4.594-1.192 4.516-1.23 8.961-2.697 13.513-3.798.4-.097.888-.375 1.155-.755.351.192.707.37 1.066.53 2.982 1.343 7.03.743 9.778-1.839.411-.386.602-.4.988-.41 2.517-.063 4.755-.426 6.881-1.831 1.851-1.223 3.616-2.15 5.612-3.155 4.222-2.126 6.048-5.516 6.95-9.914.767-3.746 1.025-17.305-8.341-24.227" mask="url(#xu9jclo0tb)"/>
    </g>
</svg>
