<svg xmlns="http://www.w3.org/2000/svg" xmlns:xlink="http://www.w3.org/1999/xlink" width="81" height="50" viewBox="0 0 81 50">
    <defs>
        <path id="1oc1toaqva" d="M0 0.048L81.014 0.048 81.014 49.858 0 49.858z"/>
    </defs>
    <g fill="none" fill-rule="evenodd">
        <path fill="#F42246" d="M77.88 11.124L56.89 2.62c-1.731-.702-3.488-1.41-5.343-1.63-2.79-.329-5.576.468-8.272 1.256l-11.7 3.42c1.437-.59 3.144.06 4.234 1.167 1.09 1.107 4.615 3.906 5.75 4.968 5.008 4.685 3.232 12.987 5.517 13.153 2.284.166 16.149.915 19.538 2.826 1.17.66 6.919 3.252 8.197 3.664 0 0 4.263-5.77 5.08-8.587 1.084-3.737 1.123-8.357.987-10.204" transform="translate(.037 .026)"/>
        <path fill="#FFF" d="M27.454 9c-5.723-.829-11.402-.852-16.525 1.83-5.123 2.683-9.13 7.861-9.437 13.636-.358 6.768 4.197 12.86 9.429 17.169 5.459 4.498 13.28 7.812 19.459 4.369 1.157-.645 2.208-1.508 3.46-1.943 1.291-.449 2.75-.424 3.93-1.115 1.41-.827 3.984-3.642 4.521-5.186 2.078-5.97 1.555-9.48 3.114-15.586.364-1.428-.625-4.666-.842-6.124-.726-4.871-4.936-8.465-9.266-10.812C33.4 4.21 31.31 3.306 29.163 3.506c-2.148.2-5.096 1.665-5.13 3.822" transform="translate(.037 .026)"/>
        <path fill="#050505" d="M26.07 25.647c-1.341 1.148-2.475 2.465-2.907 4.235-.193.79-.052 1.538.645 2.068.62.47 1.286.467 2.063.07.642-.3.973-.95 1.075-1.7.195-1.43.03-2.851-.254-4.255-.057-.278-.09-.873-.622-.418M22.172 22.29c-1.187.114-2.303.48-3.57 1.05-.216.125-.626.323-.991.585-.843.604-1.095 1.563-.661 2.376.392.736 1.396 1.134 2.267.704 1.823-.898 2.77-2.56 3.453-4.38.184-.489-.248-.36-.498-.336M14.91 18.003c-.493.07-.942.266-1.27.652-.385.451-.577.963-.274 1.534.291.548.766.775 1.384.716 1.912-.183 3.586-.998 5.48-2.028-1.898-.763-3.559-1.127-5.32-.874" transform="translate(.037 .026)"/>
        <g transform="translate(.037 .026)">
            <mask id="udua2daj5b" fill="#fff">
                <use xlink:href="#1oc1toaqva"/>
            </mask>
            <path fill="#050505" d="M40.497 12.58c1.98 2.578 3.59 5.334 3.947 8.653.143 1.334.112 2.633-1.037 3.7-3.489-6.806-7.497-10.423-10.439-12.03.255.394 4.928 5.64 5.186 6.034 2.178 3.316 3.746 6.87 4.038 10.875.277 3.802-.65 7.202-3.62 9.823-2.022 1.783-5.168 1.985-7.174.48-1.537-1.154-1.54-2.086-.009-3.17.17-.12.322-.282.508-.367.65-.295.443-.702.117-1.06-.315-.348-.393-1.121-1.231-.608-1.569.96-2.922 2.148-4.063 3.575-.678.85-1.187 1.811-1.442 2.879-.054.224-.28.593.14.705.536.142 1.105.318 1.638.264.401-.04.285-.636.45-.96.199-.392.417-.774.685-1.267.462.743.87 1.334 1.383 1.85 1.388 1.4 1.409 1.44-.113 2.668-5.493 4.432-11.843 2.851-14.234-3.688-.482-1.32-.529-2.702-.807-4.09-.458.24-.543.625-.665.974-.484 1.385-.57 2.803-.209 4.222.158.622.045.817-.563.55-.604-.267-1.227-.486-1.769-.896-2.354-1.783-3.37-4.275-3.829-7.08-.286-1.753-.143-3.506.1-5.5-1.55 1.64-1.682 3.525-1.976 5.466-2.133-1.969-2.904-4.32-2.786-7.02.036-.831.365-1.756.107-2.476-1.161-3.246-.033-5.925 1.97-8.319 5.06-6.044 11.767-8.13 19.415-7.841 1.418.053 2.766.517 4.45.787-1.04-1.198-2.141-1.783-3.259-2.313-.637-.302-.643-.538-.09-.886 1.077-.678 2.204-1.178 3.522-1.163 1.93.022 3.723.516 5.396 1.458 2.54 1.43 4.51 3.49 6.263 5.771m40.381.073c-1.688-1.355-3.735-2.34-5.644-3.334-2.912-1.517-5.884-2.923-8.888-4.25-2.934-1.297-5.905-2.532-8.941-3.571-2.563-.877-5.1-1.595-7.835-1.426-5.219.324-10.078 2.404-14.762 4.583-1.705-.73-3.626-1.254-5.79-1.492-2.71.036-5.074 1.23-7.23 3.053-.343.29-.62.45-1.07.475-6.483.355-12.152 2.627-16.824 7.213-3.453 3.39-4.737 7.384-3.337 12.11.114.384.1.747.06 1.133-.49 4.58 1.039 8.282 4.85 10.946.426.298.56.687.731 1.094.931 2.221 2.088 4.266 4.227 5.571 1.075.655 2.243.953 3.493.927.312-.006.602-.098.827.247 2.663 4.092 6.53 4.513 10.795 3.39 2.842-.748 5.413-2.062 7.297-4.438.231-.291.455-.44.862-.458 4.949-.212 8.77-3.104 10.384-7.807.869-2.533.995-5.122.576-7.744-.1-.629-.046-1.066.501-1.508.524-.424.919-.925 1.213-1.481 1.247-.163 2.504-.233 3.822-.204 1.827.04 3.658.225 5.456.55 3.68.665 7.273 1.843 10.672 3.397 1.88.859 3.696 1.856 5.44 2.964.576.367 1.523.095 2.106-.127.19-.073 1.474-.683.942-1.022-6.58-4.18-14.382-6.942-22.211-7.193-1.912-.061-3.824.022-5.718.283.064-.258.115-.522.154-.792.368-2.567-1.7-13.338-10.537-18.255l.348-.163.301-.14.091-.042c.454-.209.908-.415 1.365-.617.997-.441 2.004-.861 3.024-1.245 2.02-.76 3.85-1.31 6.02-1.564-.015.001.306-.03.33-.034l.262-.02c.275-.016.55-.027.826-.03.37-.003.582-.004.916.03.438.044.869.128 1.298.22l.062.012.047.012.341.085c.297.076.593.158.887.243.6.173 1.193.362 1.784.56 5.967 1.997 11.765 4.654 17.364 7.513.684.349 1.365.704 2.04 1.068.663.357 1.025.556 1.624.903.826.48 1.666.969 2.413 1.568.533.428 1.56.166 2.122-.07.26-.108 1.446-.696.914-1.123" mask="url(#udua2daj5b)"/>
        </g>
    </g>
</svg>
