<svg xmlns="http://www.w3.org/2000/svg" width="85" height="117" viewBox="0 0 85 117">
    <g fill="none" fill-rule="evenodd">
        <path fill="#BF9A86" d="M71.891 27.504c1.899 4.017 4.796 9.1 4.661 13.465-.219 7.085 3.664 10.222 1.851 17.072-1.295 4.892-.358 10.08-1.343 15.034-.92 4.627-2.32 9.165-3.997 13.606-2.534 6.712-4.282 12.939-10.206 17.426-5.923 4.487-11.962 6.13-19.517 3.036-2.538-1.04-6.763-3.018-9.09-4.421-1.852-1.116-4.493-2.95-6.376-4.02-5.41-3.074-7.623-9.266-9.176-15.001-1.207-4.458-2.057-10.372-.843-13.604 1.044-2.777 2.751-5.292 3.933-8.021 2.106-4.864 2.003-10.276 1.802-15.511-.115-2.97-.23-6.052.995-8.8.942-2.11 2.612-3.865 4.392-5.437 3.737-3.3 8.17-6.015 13.12-7.31 4.95-1.297 10.446-1.082 14.99 1.137.795.388 1.605.847 2.504.85.667.002 1.302-.25 1.912-.505 3.092-1.295 7.286-2.574 9.373-.094" transform="rotate(-2 42.8 33.204)"/>
        <path fill="#BF9A86" d="M14.615 108.475c.22-4.308 1.488-22.176.653-28.11.088-.94-2.367-2.588-1.697-3.641 1.258-1.978 4.14-7.96 4.093-10.256.756 2.991-.523 9.277.234 12.268.857 3.39 1.535 7.196 3.186 10.318 1.453 2.745 3.481 5.197 5.734 7.421 7.497 7.406 17.307 12.984 28.16 11.709.629 1.456.761 4.882.641 6.336-1.763.496-18.054 8.043-41.004-6.045" transform="rotate(-2 42.8 33.204)"/>
        <path fill="#A8867B" d="M75.922 31.037c-.954-3.911-7.992-5.462-11.937-3.852-2.5 1.02-4.582 3.364-7.297 3.16-1.052-.078-2.015-.548-3.007-.884-2.058-.7-4.281-.833-6.47-.96-3.213-.187-6.483-.37-9.62.323-3.136.694-6.177 2.405-7.597 5.108-1.558 2.966-1.157 6.948-3.883 9.056-1.38-2.851-.939-6.15-.47-9.254.304-2.013.656-4.133 2.018-5.721 1.24-1.447 3.137-2.236 4.957-2.972 4.21-1.703 8.536-3.432 13.115-3.641 3.789-.173 7.566.709 11.352.487 2.15-.126 4.286-.606 6.434-.471 5.104.32 12.198 4.849 12.405 9.62" transform="rotate(-2 42.8 33.204)"/>
        <path fill="#FCFBFA" d="M50.718 66.813c-2.205.773-4.54 1.216-6.89 1.31.64-.242 1.257-.541 1.838-.892.33-.2.68-.47.688-.836.005-.239-.132-.516.04-.694.126-.13.343-.075.53-.093 1.31-.127 2.312.475 3.39.421.399-.02.595.404 1.118.551" transform="rotate(-2 42.8 33.204)"/>
        <path fill="#593B35" d="M50.138 24.203c2.526.342.34 3.064 9.897.928 2.851-.638 5.791-.876 8.48.2 1.795.719 3.223 2.068 4.336 3.564 3.066 4.125 3.926 9.296 4.704 14.269L79.6 34.81c.477-1.95.955-3.902 1.213-5.885.343-2.633.294-5.309-.143-7.927-.417-2.493-1.534-5.29-4.106-6.064-1.871-.563-3.881.152-5.718.818-4.086 1.48-8.419 2.78-12.77 2.334-1.452-.149-2.883-.492-4.345-.514-1.732-.026-3.434.398-5.109.82-4.109 1.033-8.378 2.145-11.569 4.78-1.188.98-2.212 2.162-3.586 2.9-1.419.761-3.112.993-4.51 1.788-3.183 1.812-3.833 5.792-4.156 9.254.266-3.284 3.63-5.485 6.66-7.18 5.445-3.046 15.34-7.455 18.677-5.73" transform="rotate(-2 42.8 33.204)"/>
        <path fill="#C4A090" d="M60.112 83.238c.335 1.271.236 2.639-.278 3.86-.401.952-1.054 1.84-1.155 2.857-.012.123-.01.26.081.349.078.074.197.092.308.103 1.023.106 1.544.447 2.56.289 1.157-.18 2.794-.895 3.908-1.242.406-.126.85-.281 1.052-.634.233-.407-.189-.807-.521-1.146-.333-.34-.73-.412-1.122-.688-.827-.582-1.241-1.712-1.453-2.659-.074-.331-.113-.692-.35-.948-.609-.653-1.963-.696-2.931-1.094" transform="rotate(-2 42.8 33.204)"/>
        <path fill="#9E796C" d="M18.922 84.157c.286 2.31 1.064 8.356 1.35 10.666.08.647 4.027 11.332 20.375 15.308 4.392 1.067 10.604.439 11.538-1.398-3.729.097-7.325-1.152-10.81-2.383-3.546-1.253-7.186-2.558-9.983-4.945-1.56-1.33-2.801-2.953-4.296-4.347-2.77-2.585-6.692-4.901-6.79-8.562" transform="rotate(-2 42.8 33.204)"/>
        <path fill="#A8867B" d="M42.254 93.974c.019-.141.187-.214.33-.26 1.442-.46 2.91-.845 4.397-1.152 1.33-.275 2.89-.435 3.895.42.245.209.428.454.563.722.147.107.273.201.362.26 2.078 1.369 4.74 2.013 7.157 1.254.665-.209 1.33-.502 2.03-.47.085.005.175.01.268.017.073-.068.147-.133.22-.196l3.355-2.85c.31-.347.588-.65.76-.814.48-.452.853-.675 1.273-1.176.074-.087.143-.19.136-.3-.012-.201-.25-.31-.45-.386-1.613-.621-2.912-1.916-3.47-3.46-.357-.988-.294-1.773.66-2.32-.095 1.458.526 2.942 1.654 3.951.294.264.637.503 1.038.574.354.064.717-.009 1.07-.08l5.66-1.162c-1.599 1.002-3.1 1.936-4.58 3.007-.975 1.03-1.47 2.555-2.487 3.602-4.485 4.612-6.79 3.928-7.742 4.269-.952.341-3.201.892-2.886 1.796-.764-.332-10.205-2.441-11.28-2.831l-1.81-2.146c-.066-.079-.136-.17-.123-.27" transform="rotate(-2 42.8 33.204)"/>
        <path fill="#352220" d="M72.014 11.935c2.873.945 5.628 2.198 8.193 3.728l-1.024.175c.882 1.71 1.884 2.538 3.29 3.91.547.535.677 1.763.686 2.505.009.74-.44 1.506-.925.92l1.863 4.745c-.432.088-.441.662-.313 1.057.199.61.477 1.212.482 1.85.005.638-.361 1.34-1.024 1.497-.245.058-.528.044-.715.202-.236.198-.193.546-.13.835l.876 4.066c.045.21.09.427.04.637-.054.233-.219.428-.376.617-1.644 1.976-2.926 4.213-3.773 6.585-.16.448-.316.919-.67 1.258-.352.338-.683 2.212-.815 1.707-.108-.413-.897-2.785-.982-4.32-.08-1.43-1.18-7.723-1.161-9.22.02-1.459 2.156-3.413 2.099-4.87-.103-2.58.98-5.22.225-7.702-.725-2.383-2.96-4.035-4.67-5.928-1.46-1.616-2.585-3.494-3.299-5.502.627.465 1.383.777 2.174.898" transform="rotate(-2 42.8 33.204)"/>
        <path fill="#161210" d="M37.121 14.86c.334 0 .335-.509 0-.509-.334 0-.334.51 0 .51M37.396 18.379c.334 0 .335-.51 0-.51-.334 0-.335.51 0 .51" transform="rotate(-2 42.8 33.204)"/>
        <path fill="#A8867B" d="M29.994 33.932c-.107 6.12 3.348 9.117 7.852 13.55.977.96.098 8.41-1.741 14.385-.168.543-.967.672-1.558.795-1.79.373-3.655.16-5.482.307-1.827.147-3.793.785-4.684 2.283-.487.819-.957 2.031-1.942 1.866-.37-.062-.66-.331-.884-.613-1.64-2.062-.915-5.016.337-7.312 1.252-2.296 2.994-4.478 3.272-7.039.205-1.897-.426-3.771-.714-5.657-.287-1.886-.727-4.662.707-6.023.713-.677.85.487 1.62-.132 1.73-1.392 2.25-4.581 3.217-6.41" transform="rotate(-2 42.8 33.204)"/>
        <path fill="#B58976" d="M58.37 62.229c-2.367-1.514-5.293-2.123-8.167-2.183-2.874-.06-5.73.395-8.565.849-2.83.453-5.819.974-7.978 2.746-.204.168-.41.363-.462.612-.05.23.04.464.13.683l1.079 2.672c.053.132.112.27.232.356.275.194.66 0 .946-.183 4.045-2.59 9.154-3.115 14.029-3.564.688-.063 1.57-.023 1.819.579.111.27.06.609.272.82.4.396 1.053-.102 1.456-.498.674-.664 1.584-1.118 2.55-1.271.551-.087 1.123-.081 1.655-.243.532-.162 1.041-.555 1.086-1.076" transform="rotate(-2 42.8 33.204)"/>
        <path fill="#FCFBFA" d="M43.305 65.71c-1.396-.168-4.232.419-5.279 1.3 1.3.205 5.71 1.354 6.277 1.089" transform="rotate(-2 42.8 33.204)"/>
        <path fill="#1A100A" d="M44.45 65.074l.726.273c.418.157.888.368 1 .775.047.17.02.353-.048.518-.19.463-.676.765-1.17.947-.641.236-1.345.321-2.028.247-.206-.023-.416-.062-.589-.168-.145-.09-.254-.222-.35-.357-.21-.296-.369-.671-.226-1.001.102-.234.335-.394.566-.527.572-.328 1.197-.574 1.847-.727.134-.031.295-.052.394.037M19.686 70.12l-3.621-4.172M19.87 69.94l-3.622-4.172c-.217-.25-.582.112-.367.36l3.622 4.172c.217.25.582-.112.367-.36" transform="rotate(-2 42.8 33.204)"/>
        <path fill="#CEA999" d="M55.467 99.22c1.887-1.455 4.137-.902 6.01.558 1.307 1.018 2.016 2.85 1.22 4.26-.64 1.134-2.024 1.702-3.34 2.063-1.353.371-2.863.6-4.124.02-.377-.174-.731-.42-1.149-.472-.51-.065-1.002.171-1.483.346-1.8.652-3.868.471-5.624-.264-.814-.34-1.594-.813-2.088-1.505-1.093-1.53-.418-3.75 1.08-4.955 1.497-1.205 3.575-1.572 5.548-1.576.677-.002 1.38.04 1.972.345.443.228 1.556.919 1.978 1.18" transform="rotate(-2 42.8 33.204)"/>
        <path fill="#C6A293" d="M59.842 83.9c-.478 1.98-.8 4.308-.872 6.336-1.676-.08-3.438.857-5.075 1.21-2.538.548-5.622 1-8.224.994.33-1.41 2.57-3.28 3.971-3.891 2.113-.921 4.246-1.999 5.656-3.734.41-.506.837-1.112 1.51-1.198.222-.029.45.005.67-.028.362-.056.661-.283.96-.482.297-.199.645-.385 1.007-.338.362.046.675.442.485.735" transform="rotate(-2 42.8 33.204)"/>
        <path fill="#B28D7D" d="M22.722 59.737c-1.621 3.186-1.53 7.08.24 10.187 1.241 2.18 3.211 3.921 4.615 6.014 4.747 7.078 2.212 16.552 5.421 24.351.357.867.81 1.74 1.594 2.312 1.97 1.438 4.916.352 7.305 1.05 1.599.466 2.837 1.708 4.441 2.16 1.389.391 6.242.569 7.67.322 3.133-.542 5.67-.514 8.946-2.217-1.67 1.817-5.016 3.49-7.074 4.042-7.544 2.027-15.591.656-22.332-3.065-5.62-3.102-9.57-5.433-12.326-11.564-2.101-4.677-2.593-12.16-3.368-16.758-1.19-7.054.137-13.064 5.444-18.21" transform="rotate(-2 42.8 33.204)"/>
        <path fill="#6D483F" d="M10.249 21.857c4.953 3.321 10.931 5.298 17.028 5.63-1.67.604-3.508.793-5.275.542.553 1.698 1.585 3.257 2.964 4.477-1.036.429-2.154.683-3.285.746l1.613 2.68-3.352.301.768 1.865c-1.236.166-.79 1.944-.023 2.861l-3.564-.19 1.876 5.626c-1.23-.005-2.456-.289-3.545-.819.012.799-.176 1.6-.543 2.323l-2.39-1.323c-1.266 2.724-2.333 5.528-3.193 8.386-1.842.65-3.414 1.949-4.327 3.578l-1.494-2.883c-1.699-1.736-3.023-4.03-2.34-6.299-.704-.06-1.032-.753-.763-1.69.067-.232-.863-1.263-.105-1.929-.455-2.496-.059-5.125 1.117-7.413-.809-.518-.303-1.749.467-2.32.771-.571 1.8-.99 2.098-1.866.155-.453.073-.942.023-1.415-.476-4.537-.102-10.348 7.094-10.925" transform="rotate(-2 42.8 33.204)"/>
        <path fill="#D8A593" d="M17.591 66.658c-.235-.35-.107.04-.436.319-.158.133-.252.325-.422.445-.36.256-.911.071-1.181-.265-.27-.337-.018-1.056-.108-1.469-.42-1.914-1.762-3.375-2.769-5.086-.694-1.18-1.727-2.534-3.162-2.38-.948.1-1.682.891-1.952 1.746-.271.855-.173 1.768-.065 2.653.478 3.924 1.096 7.837 2.028 11.688.415 1.713.937 3.49 2.222 4.77 1.287 1.279 3.998 1.764 5.513.716 1.022-1.339.49-3.264.315-5.313-.062-.731-.413-3.19-.284-3.913.119-.665-.028-1.345.022-2.017.05-.672-.334-1.875.352-2.084" transform="rotate(-2 42.8 33.204)"/>
        <path fill="#49302C" d="M5.799 48.556c2.16-6.956 3.64-14.094 4.413-21.296.192-1.784.69-3.983 2.548-4.439 1.482-.364 2.905.674 3.882 1.792 5.215 1.012 10.545 1.521 15.876 1.513l-.06.084c.416-.094.835-.18 1.252-.262 2.416-.474 8.052-1.342 10.496-1.658-3.805 1.484-8.086 3.227-10.726 4.45 0 0-4.255 1.303-5.304 4.338-.206.599.635 1.096 1.103 1.547l-2.086.51c1.077 1.123 1.068 3.012-.019 4.132l.815 2.63c-1.238-.113-2.145.897-2.569 2.055.36 1.383 1.798 3.07 1.76 4.493-.058 2.211-.598 4.385-1.135 6.54-.122.491-.245.985-.445 1.454-.21.497-.504.96-.756 1.44-.623 1.191-2.257 2.225-2.615 3.507l-2.709 9.687c-.338-.928-.696-1.886-1.415-2.6-.167-.165-.143.099-.351-.026-.113.624-.377 1.794-.49 2.418-.199-.76-.496-2.472-.756-3.217-.426-.07-.86-.034-1.253.148.634-1.785-.576-3.634-1.73-5.17l-2.327-3.1c-.182-.241-.406-.494-.655-.7-.392-.051-.773.029-1.108.303-.361.297-.878.86-1.013 1.29-.518 1.648-.491 3.233-.618 4.944-1.53-2.01-2.417-4.44-2.522-6.908-.085.517-.918-.018-1.004-.535-.524-3.143.57-6.304 1.521-9.364" transform="rotate(-2 42.8 33.204)"/>
        <path fill="#A8867B" d="M60.211 82.285c-.428 2.54-.12 5.765.741 8.203-.884 0-1.37-.446-2.676-.158.23-2.619.73-5.217 1.49-7.749" transform="rotate(-2 42.8 33.204)"/>
        <path fill="#5E3E38" d="M9.655 23.302c-1.838-2.518-.85-6.03.96-8.578C15.346 8.066 22.82 3.376 31.365 3.11 34.264 3.02 39.08 1.504 41.5 0c-.077.76.311 2.517.234 3.277 4.09-3.052 9.01-1.944 14.209-1.44.437.042.908.114 1.211.41.256.25.347.622.62.855.467.4 1.205.224 1.808.04 2.175-.662 4.626-1.107 6.682-.182l-1.189.76 4.344.36c.704.059 1.462.138 1.987.58.524.44.602 1.38-.026 1.685.822.068 1.73.177 2.264.763.534.586.213 1.77-.611 1.73 1.242.469 2.271 1.407 2.801 2.555-3.728-.638-7.563-1.275-11.288-.596-6.24 1.138-11 5.688-16.198 9.117-7.18 4.737-15.806 7.539-24.574 7.982" transform="rotate(-2 42.8 33.204)"/>
        <path fill="#6D483F" d="M23.465 17.686c5.483 1.565 11.396-.279 16.616-2.522 5.22-2.244 10.442-4.961 16.175-5.224-3.107.798-6.12 1.919-8.965 3.335l3.713-.374-2.827 1.243.957.39c-6.13 4.266-13.893 6.436-21.512 6.013-1.386-.077-2.915-.309-3.781-1.32" transform="rotate(-2 42.8 33.204)"/>
        <path fill="#6D4D48" d="M9.425 22.05c1.292 2.792 4.992 2.645 8.237 2.314 5.849-.595 10.629-1.005 12.7-1.515-3.567 1.772-4.957 3.455-12.26 3.421.344.776.68 1.206 1.15 1.395-1.511.175-3.436.613-4.946.787l.752.94c-1.053.006-2.106-.18-3.081-.547-.028 1.346-.246 2.69-.647 3.985-.467-.026-.914-.265-1.174-.628.177 1.423.352 2.875.046 4.28-.306 1.406-1.179 2.783-2.578 3.377l-.3-1.676c-.598 1.547-2.331 2.647-4.09 2.597-.143-6.221-1.32-12.19 2.87-17.043" transform="rotate(-2 42.8 33.204)"/>
        <path fill="#66433D" d="M40.722 22.436c5.173-1.02 8.305-5.811 12.497-8.826 3.453-2.483 7.728-3.782 12.017-4.479 2.968-.482 6.11-.68 8.906.353 4.936 1.824 7.457 6.901 8.906 11.67-1.03-2.334-3.262-4.172-5.872-4.837-2.61-.666-5.54-.144-7.71 1.374l1.01.812c-4.394 1.02-9.056-.135-13.526.538-5.56.836-10.394 4.43-16.004 4.888-.988.08-2.212-.073-2.582-.93.62-.238 1.24-.474 1.859-.71" transform="rotate(-2 42.8 33.204)"/>
        <path fill="#49302C" d="M50.611 24.198c3.61.675 6.723-2.185 9.743-4.164 4.7-3.08 10.14-4.85 15.781-3.918.713.118 2.016.793 2.651 1.115.68.345 1.237.868 1.714 1.435 2.361 2.81 2.772 6.93 1.008 10.112-1.444 2.603-4.27 5.271-5.813 7.728-.631-1.877-2.272-9.054-9.472-11.74-2.491-.93-6.379.966-9.054 1.2-2.674.233-5.697-.073-7.45-1.965" transform="rotate(-2 42.8 33.204)"/>
        <path fill="#9B786B" d="M55.114 61.314c-.757.707-1.874.986-2.943.987-1.069 0-2.116-.246-3.162-.45-3.017-.593-11.004.57-13.901 1.57-.31.108-.713.208-.923-.028-.3-.335.194-.783.616-.974 2.624-1.192 10.668-4.404 13.515-3.69 1.536.386 3.056.605 4.099.82.58.12 2.1.478 2.68.6.58.12 1.23.479.719.789" transform="rotate(-2 42.8 33.204)"/>
        <path fill="#3A221A" d="M55.985 60.73c-3.405-1.112-7.12-1.231-10.7-.769-3.578.463-7.048 1.487-10.455 2.618-.718.239-1.587.712-1.447 1.41 3.046-.6 6.107-1.133 9.179-1.6 1.76-.266 3.556-.512 5.319-.272 1.154.157 2.278.52 3.445.55 1.831.045 3.583-.55 4.66-1.937" transform="rotate(-2 42.8 33.204)"/>
        <path fill="#A0786B" d="M40.788 65.582l-4.002 1.563c-.436.17-1.68.878-2.147.819-.468-.06-.14-.983-.064-1.418.079-.442.605-.662 1.059-.808l3.612-1.156c1.025-.328 4.144-.736 4.894-.01-.044.378-2.298.812-2.7.753" transform="rotate(-2 42.8 33.204)"/>
        <path fill="#AF8979" d="M52.874 77.268c-.408-2.563.326-5.46 1.06-7.962.466-1.59 1.542-4.556 1.858-5.724l.29-.39c.476-.549 4.112-1.342 3.886-1.16-.59.477-.867 1.48-.842 2.013.202 4.234.825 7.568-.55 10.851-.252.6-.675.816-1.325 1.034-.314.106-.655.11-.988.113l-1.308.014c-.696.301-1.385.909-2.08 1.21" transform="rotate(-2 42.8 33.204)"/>
        <path fill="#CCAA9E" d="M64.817 61.307c-1.666 1.312-1.135 4.194-.766 6.196.616 3.338 1.472 6.748 3.594 9.492.243.314.513.648.518 1.036.006.429-.312.796-.613 1.121l-3.53 3.814c-.154.166-.322.34-.549.394-.271.065-.548-.058-.8-.174-1.747-.81-3.859-1.408-5.61-.593-.313.146-.609.336-.949.411-.721.161-1.48-.247-1.888-.822-.408-.576-.532-1.286-.594-1.975-.062-.691-.052-1.449.403-2 .52-.631 1.445-.793 2.225-1.117 2.218-.922 3.018-3.305 3.188-5.563.171-2.258-.079-4.499-.333-6.749-.065-.581-.105-1.186.11-1.736.347-.891.802-1.578 1.67-2.071.244-.139.872-.5 1.154-.468.778.087 1.925.698 2.77.804" transform="rotate(-2 42.8 33.204)"/>
        <path fill="#B28D7D" d="M76.192 61.941c-.478 1.934-1.699 4.106-3.363 5.344-1.665 1.238-3.892 1.848-5.978 1.478-.552-.098-1.653-.692-2.19-.841-.998-.277-.952-2.66-.968-4.187.737.06 1.898.708 2.62.858.529.11.89.254 1.425.163 1.072-.184 1.922-.474 2.994-.658.997-.17 2.079-.386 2.726-1.116.25-.282.414-.622.645-.917.232-.296.642-.408 1.005-.274.408.15 1.183-.204 1.084.15" transform="rotate(-2 42.8 33.204)"/>
        <path fill="#FFF" d="M65.624 64.175c2.275-1.459 4.943-2.376 7.685-2.643.279-.027.596-.036.8.144.304.27.288.731.21 1.117-.044.218-.202.456-.338.639-.163.22-.46.31-.737.387-1.278.352-2.563.706-3.884.861-1.322.156-2.693.105-3.938-.332" transform="rotate(-2 42.8 33.204)"/>
        <path fill="#B28D7D" d="M49.999 67.424c.975-.158 2.258.121 2.417 1.033.14.793-.274 1.448-1.026 1.844-3.064 1.613-5.603 2.021-9.116 1.997-1.332-.01-4.028-.257-5.01-1.095-.271-.232-.635-.114-.447-.41.29-.456 1.126-.13 1.567-.464.356-.269.234-.842-.12-1.111-.353-.27-.838-.319-1.293-.357.08-.474.62-.78 1.132-.813.512-.033 1.01.135 1.504.265 3.685.968 7.597-.135 11.25-1.23" transform="rotate(-2 42.8 33.204)"/>
        <path fill="#B59285" d="M52.601 106.083c.794-1.1 1.366-2.237 1.546-3.54.06-.435-.189-.733.264-.854.567-.152.821.233.997.758.366 1.09.809 2.678-.223 3.297-.915.55-1.836.467-2.584.339" transform="rotate(-2 42.8 33.204)"/>
        <path fill="#E0B6AA" d="M13.115 63.54c-1.478 1.123-1.966 3.24-1.11 4.824.284.527.692.986 1.093 1.442 1.685 1.918 3.356 3.953 4.008 6.358.197.728.292 1.518-.005 2.217-.298.7-1.088 1.26-1.88 1.122-1.08-.189-1.487-1.407-1.685-2.417l-.53-2.718c-.205-1.044-.447-2.157-1.255-2.902-.416-.383-.954-.638-1.361-1.029-1.3-1.247-.85-3.273-.552-4.994.28-1.625.341-3.283.18-4.92-.015-.152-.03-.313.04-.451.144-.283.59-.32.875-.156.284.165.444.461.59.742l1.705 3.289" transform="rotate(-2 42.8 33.204)"/>
        <path fill="#AF8979" d="M55.07 83.534c1.774-1.851 4.974-2.337 7.274-1.105.439.235.792.937.305 1.068-.129.034-.265-.003-.392-.038-2.145-.582-4.496-.485-6.582.27" transform="rotate(-2 42.8 33.204)"/>
        <path fill="#A5644A" d="M66.895 89.55c-1.452-.356-2.844-.166-4.054.604-.309.196-.652.353-1.017.417-.569.1-1.137-.117-1.703-.228-2.426-.476-4.79.99-7.259 1.237-2.13.212-4.407-.478-6.363.342 3.458.358 6.94.528 10.42.507 1.467-.009 2.943-.052 4.384-.313 2.179-.394 3.976-1.137 5.71-2.433" transform="rotate(-2 42.8 33.204)"/>
        <path fill="#72403B" d="M45.67 92.44c.063.177-.108.43-.217.586 4.136-1.734 5.97.498 6.56.523-.039-.441.247-.865.624-1.135s.807-.827 1.258-.968c-2.09.543-6.37-.726-8.224.994" transform="rotate(-2 42.8 33.204)"/>
        <path fill="#82473F" d="M47.828 92.418c2.16.112 3.864 1.674 5.824 2.524 3.136 1.36 7.146.722 9.635-1.532 1.15-1.041 2.748-2.894 3.304-3.384-5.801 2.875-12.793 2.684-19.282 1.816" transform="rotate(-2 42.8 33.204)"/>
        <path fill="#A0786B" d="M76.307 62.11c-.262.643-.609 1.255-1.032 1.818-.218.29-.461.572-.771.778-.372.246-.818.37-1.26.473-1.397.321-2.841.458-4.277.404-.813-.03-1.71-.163-2.22-.752 1.81-.044 3.318-.36 5.109-.625.447-.065.902-.141 1.3-.344.397-.203 1.033-.395 1.081-.815.053-.462-.206-1.03.172-1.334.503-.403 1.245.32 1.892.185" transform="rotate(-2 42.8 33.204)"/>
        <path fill="#AF8979" d="M55.095 60.148c1.893-.095 4.98-2.412 6.82-2 1.053.236 1.513.938 2.594.86.38-.027 1.018.215 1.398.171.38-.043.849.14.872.496.014.202-.122.384-.251.547-.364.46-1.17 1.056-1.78 1.075-.642.02-1.54-.568-2.17-.68-.38-.067-.404-.062-.766.064-1.985.694-3.043 2.635-3.085 4.612-1.349-.578-.753-2.295-1.687-3.371-.475-.546-1.958-1.07-1.945-1.774" transform="rotate(-2 42.8 33.204)"/>
        <path fill="#1F1A18" d="M71.877 61.551c.228.406.4.554.491 1.004.092.45-1.383 1.544-1.726 1.64-.783.22-1.121.339-1.868.03-.414-.171-1.153-.426-1.16-.85-.01-.543.947-.931 1.488-1.136.839-.317 1.936-.37 2.775-.688" transform="rotate(-2 42.8 33.204)"/>
        <path fill="#9E796C" d="M12.564 63.484c-.775.735-1.077 1.503-1.56 2.43-.482.927-.613 2.077-.058 2.966.417.668 2.743 2.236 2.816 2.322.306.363.686.198.686.198-.52-.677-2.229-2.414-2.145-3.502.049-.624.315-1.265.856-1.636.54-.37 1.775-.526 2.222-.061.063-.513-.195-.649-.428-1.327-.14-.405-.84-1.66-1.24-1.866-.398-.207-.764.08-1.149.476" transform="rotate(-2 42.8 33.204)"/>
        <path fill="#3A221A" d="M64.754 61.071l.502-.632c2.539-1.855 5.29-3.457 8.191-4.768.305-.137 1.811-.762 2.248-.97.856-.41 2.072-.756 3.22-.577.257.648.46 1.854-.283 2.771-.983-.255-2.507.146-3.455.504l-10.36 3.908c.207-.148-.27-.09-.063-.236" transform="rotate(-2 42.8 33.204)"/>
        <path fill="#A0786B" d="M58.363 75.268c-.949-.444-4.065.792-4.64 1.118-.577.326-1.07.821-1.249 1.427-.17.578-.046 1.19.08 1.777.178.833.89 2.156 1.67 2.592-.41-.929-.972-2.144-.577-3.08.556-1.32 1.095-1.565 2.845-1.598.141-.002.28.06.419.036.16-.027.477-.349.588-.461.348-.356.981-1.342.864-1.81M51.508 66.519c.804.745 1.392 1.594.81 2.588-.306.523-1.066.945-1.635 1.214-3.798 1.8-8.384 1.832-12.456.7 2.043-.417 4.162-.286 6.248-.416 2.086-.13 4.272-.58 5.797-1.92.207-.182.413-.418.374-.68-.026-.174-.407-.601-.374-.774.054-.285 1.236-.712 1.236-.712M63.932 67.314c2.442 2.578 8.18 1.706 10.798-2.086-3.137 1.973-7.597 2.743-10.89 1.064.022.347.311.72.333 1.066" transform="rotate(-2 42.8 33.204)"/>
        <path fill="#221611" d="M65.059 64.07c2.876-2.175 6.723-2.77 10.379-3.29.52-.074 1.076-.143 1.548.07.472.214.766.831.433 1.212-4.226-.542-8.636.22-12.382 2.141M36.087 67.07c4.074-1.898 8.614-2.915 13.16-2.95.795-.006 1.657.04 2.263.517.606.477.704 1.54-.002 1.882-3.573-1.157-7.533-1.252-11.173-.269-1.425.385-2.815.932-4.29 1.066" transform="rotate(-2 42.8 33.204)"/>
        <path fill="#A0786B" d="M66.072 80.878c-.78.405-.598.466-1.185.971-.542.467-1.103.822-1.246 1.548.148-.26.397-.241.612-.44.31-.285.565-.65.843-.97.518-.596.512-.627.976-1.109" transform="rotate(-2 42.8 33.204)"/>
        <path fill="#381F15" d="M42.994 65.78c-2.523-.71-5.437-.055-7.346 1.651l7.917-2.29" transform="rotate(-2 42.8 33.204)"/>
        <path fill="#3A221A" d="M75.989 57.066c.595-.236 1.055-.354 1.507-.398.452-.045.785.524 1.023.905.336-.458.615-1.512.627-2.076.009-.434.063-.531-.153-.84-.03-.042-.142-.324-.142-.324-.044-.052-.124-.05-.192-.042-.535.067-1.029.308-1.51.546-.786.389-1.598.8-2.135 1.485-.38.485-1.287 1.325-1.838 1.611.784.087 2.03-.775 2.813-.867" transform="rotate(-2 42.8 33.204)"/>
        <path fill="#CCAA9E" d="M63.06 83.17c.21.96 1.948 3.98 2.513 4.302.565.32 1.11.813 1.175 1.458.008.084.007.173-.036.245-.091.155-.31.157-.49.146-1.814-.104-3.38.833-4.398 1.25.515-1.29.281-2.63.34-4.017.05-1.197.456-2.268.896-3.384" transform="rotate(-2 42.8 33.204)"/>
    </g>
</svg>
