<svg xmlns="http://www.w3.org/2000/svg" width="88" height="82" viewBox="0 0 88 82">
    <g fill="none" fill-rule="evenodd">
        <path fill="#7F461F" d="M65.136 28.012c8.925-1.117 13.68 1.431 16.865 5.64 1.567 2.069 2.658 4.662 2.282 7.23-.415 2.842-2.499 5.116-4.515 7.162-9.344 9.48-19.385 18.275-30.015 26.287-1.689 1.274-3.449 2.554-5.497 3.083-2.048.53-4.474.14-5.822-1.49-1.088-1.314-1.31-3.19-2.415-4.49-.356-.418-2.236-3.572-2.303-4.116-.101-.818.713-1.42 1.41-1.859 4.761-3.004 10.076-4.6 12.53-9.667 2.27-4.688 3.293-9.87 5.098-14.756 1.805-4.886 4.603-11.798 12.382-13.024" transform="translate(.528 .514)"/>
        <path fill="#415AD6" d="M35.343 5.13c-8.507-2.07-17.57-6.052-25.59-2.54C4.963 4.689 1.457 9.47.897 14.67c-.56 5.199 1.847 10.617 6.08 13.687 1.792 1.299 3.847 2.182 5.727 3.348 3.91 2.422 7.032 6.091 8.798 10.337 1.67 4.016 2.197 8.59 4.815 12.063 2.381 3.159 6.502 5.55 6.66 9.503.033.843-.124 1.734.23 2.5.986 2.129 4.206 1.072 6.112-.297 5.094-3.656 10.371-7.89 12.107-13.914 1.119-3.883 1.525-7.567 2.162-11.557s2.644-7.576 6.154-9.846c-.801-2.136-2.753-3.247-4.99-3.698-.883-.179-1.827-.188-2.619-.619-1.96-1.066-1.866-3.822-2.11-6.04-.578-5.26-4.543-9.661-9.199-12.177-4.656-2.515-9.972-3.464-15.184-4.377" transform="translate(.528 .514)"/>
        <path fill="#DB884F" d="M84.283 40.882c1.003.913.973 4.483.074 5.57-1.434 1.734-19.022 23.155-28.766 23.353l1.022 1.574c-2.074 2.098-9.488 8.094-11.184 8.75-1.695.656-6.29-1.481-5.873-3.251 14.944-9.444 34.88-21.314 44.727-35.996" transform="translate(.528 .514)"/>
        <path fill="#0C0C0B" d="M83.692 46.628l-.001.004-.044.069c-.071.101-.142.202-.216.3-1.188 1.58-2.612 3.005-3.99 4.416-4.645 4.753-9.603 9.273-14.93 13.25-.744.555-1.496 1.097-2.26 1.622-.744.511-1.376.925-2.044 1.334-.696.425-1.404.831-2.128 1.206l-.228.117-.053.023c-.073.002-.26.03-.31.032-.689.034-1.376.061-2.042.263-.278.084-1.137.334-1.174.74-.05.54-.003 1.028.182 1.537.099.271.286.711.276.9-.026.504-.462.87-.84 1.185-.64.533-1.34 1.004-2.024 1.479-1.464 1.014-2.956 1.99-4.472 2.923-.689.424-1.378.859-2.094 1.235-.146.077-.268.13-.429.198-.015.006-.052.025-.083.041l-.003.001.035-.02c-.017.01-.07.024-.106.033-.04.007-.082.012-.122.017l-.023-.01.02.01-.018.002h.02c.096.05-.185-.05-.15-.04-.603-.167-1.072-.644-1.48-1.096-.534-.593-1.011-1.236-1.517-1.854 5.66-4.791 12.191-8.556 18.366-12.687 3.377-2.26 6.71-4.612 9.815-7.237.314-.266.629-.529.954-.78l.318-.243.151-.114.302-.225c.882-.656 1.765-1.31 2.636-1.982 3.593-2.768 7.368-6.037 9.284-10.256.253.667.429 1.36.526 2.027.086.587.036 1.022-.104 1.58m-.007.038c-.01.034-.01.026 0 0m-38.898 32.84h.004c-.047.024-.078.04-.004 0m-.19.03c.1-.004.077.028 0 0m-4.178-4.635c-.613-1.45-1.342-2.852-2.136-4.212-.671-1.151-1.4-2.277-2.203-3.344 2.377-.25 4.68-1.126 6.733-2.377 3.02-1.839 5.345-4.557 7.07-7.615 3.558-6.304 4.431-13.656 7.325-20.234.68-1.548 1.476-3.09 2.441-4.459.272-.385.67-.77.866-1.196.067-.143.09-.3.087-.46.021-.014.043-.028.063-.043.34-.254.693-.488 1.056-.707.199-.12.4-.235.603-.346l.175-.094c.111-.055.221-.112.333-.166.529-.256 1.069-.489 1.618-.699.136-.052.274-.101.41-.152l.025-.01.12-.04c.327-.107.656-.206.988-.297.303-.083.607-.159.914-.227.084-.019.331-.068.319-.067.153-.027.307-.054.461-.078.322-.05.645-.09.969-.122.163-.016.327-.03.49-.04l.126-.007.244-.008c.332-.006.665-.001.998.016.167.008.334.02.501.033.084.008.167.017.251.024l.086.008.085.014c.719.113 1.431.262 2.122.496 2.781.942 5.284 3.3 6.675 5.968 1.152 2.21 1.46 4.618.788 7.008-.326 1.161-.757 2.066-1.388 3.102-.318.522-.664 1.026-1.032 1.514-.175.233-.354.462-.538.688l-.28.338-.106.123-.138.157c-1.6 1.8-3.427 3.387-5.317 4.874-.424.333-.852.66-1.28.987l-.104.077-.317.238-.574.427c-.705.524-1.417 1.042-2.102 1.592-1.237.993-2.439 2.023-3.704 2.982-1.52 1.153-3.082 2.251-4.657 3.327-6.35 4.335-13.042 8.21-19.066 13.007M86.503 44.79c-.129-1.812-.95-3.855-2.229-5.185.21-1.726-.013-3.489-.701-5.114-1.269-2.997-3.707-5.656-6.66-7.043-5.334-2.506-11.996-1.12-16.903 1.791-.129-.228-.273-.446-.431-.65-1.522-1.942-3.981-2.815-6.001-4.104-.497-.318-.965-.666-1.413-1.048l-.03-.025-.15-.15c-.091-.096-.18-.194-.267-.295-.202-.238-.386-.491-.547-.76-.847-1.413-.892-3.214-1.293-4.779-.743-2.896-2.395-5.405-4.558-7.437-2.238-2.103-4.904-3.638-7.656-4.966-3.02-1.457-6.176-2.754-9.397-3.689C25.007.39 21.552-.078 18.117.011c.095.504.153 1.014.176 1.52.01.29.003.575-.022.855 1.398-.03 2.775.044 4.21.26 2.749.413 5.428 1.267 8.033 2.29 4.185 1.64 8.23 3.355 11.668 6.348 1.379 1.2 2.86 3.012 3.638 4.716.475 1.04.799 2.13 1.024 3.249.257 1.271.45 2.558 1.015 3.739.878 1.833 2.525 3.005 4.249 3.984.799.454 1.615.877 2.4 1.354.229.139.453.282.674.432-2.67 1.16-4.617 3.786-5.832 6.501-1.41 3.15-2.126 6.59-3.711 9.655l10.246-15.63.184.151.05.04.03.032c.074.076.149.15.22.23.514.568.734.92.882 1.534-3.64 4.923-5.1 10.899-6.858 16.672-.903 2.968-1.917 5.926-3.401 8.66-1.393 2.563-3.168 4.732-5.462 6.326-.153.106-.308.21-.464.31-.067.044-.134.086-.202.129l-.06.038-.059.033c-.343.196-.692.383-1.05.553-.324.155-.656.292-.988.428l-.04.015c-.1.033-.197.067-.296.099-.173.055-.347.107-.523.155-.199.055-.4.106-.602.15-.073.017-.348.07-.348.073-.346.055-.695.091-1.045.113-.206.012-.412.017-.618.02h-.024l-.256-.012-.075-.006c.11-2.231-.534-4.47-1.781-6.33-.715-1.066-1.655-1.99-2.713-2.714-1.053-.722-2.287-1.277-3.186-2.202-1.747-1.797-2.093-4.621-2.632-6.96-.555-2.414-1.109-4.841-2-7.157-1.007-2.614-2.436-4.977-4.574-6.812-.023-.022-.048-.043-.074-.065-.9-.74-2.047-1.214-3.088-1.715-.675-.324-1.352-.646-2.024-.976-.083-.042-.166-.083-.248-.126-.19-.096-.38-.193-.568-.292-.39-.205-.776-.415-1.158-.631-1.56-.886-3.05-1.897-4.375-3.108l-.045-.041-.028-.027c-.073-.07-.145-.14-.216-.212-.172-.172-.34-.347-.505-.526-.332-.362-.647-.74-.942-1.132-.108-.144-.212-.29-.314-.437-.506-.034-1.012-.13-1.518-.288L0 22.313c.62 1.507 1.485 2.912 2.61 4.158 1.668 1.848 3.703 3.314 5.866 4.528 1.008.567 2.044 1.083 3.084 1.587.438.212.878.421 1.317.632l.585.282c.09.045.42.212.053.025l.28.142c.562.288 1.132.588 1.622.99 3.573 3.022 4.739 7.993 5.765 12.427.559 2.415.953 5.039 2.304 7.168.734 1.157 1.822 1.983 2.97 2.699 1.015.633 2.055 1.244 2.831 2.1 1.756 1.936 2.587 4.55 2.217 7.133-.072.505.313.808.733.96 2.547 2.928 6.52 10.605 6.895 10.594.833 1.065 1.662 2.318 2.93 2.836 1.859.76 4.015-.242 5.605-1.176 1.727-1.014 3.417-2.097 5.081-3.213.797-.534 1.587-1.078 2.364-1.64.701-.509 1.484-1.055 1.962-1.794.318-.494.38-.982.184-1.535-.113-.323-.237-.636-.304-.961.773-.077 1.51-.258 2.217-.598.633-.304 1.25-.646 1.856-.998 1.453-.844 2.857-1.775 4.225-2.75 2.955-2.106 5.758-4.423 8.476-6.824 2.543-2.246 5.017-4.573 7.407-6.98 1.568-1.578 3.157-3.175 4.541-4.92.179-.225.352-.454.504-.698.322-.519.366-1.094.323-1.698" transform="translate(.528 .514)"/>
    </g>
</svg>
