<svg xmlns="http://www.w3.org/2000/svg" width="92" height="55" viewBox="0 0 92 55">
    <g fill="none" fill-rule="evenodd">
        <path fill="#7F461F" d="M35.75 6.322c-2.2-.92-5.76-4.241-8.032-3.437-.597.21-1.053.68-1.48 1.137-9.6 10.287-15.983 22.603-21.484 35.374-1.063 2.468-2.095 5.179-1.36 7.732.663 2.31 2.691 4.038 4.925 5.062 6.5 2.978 15.244.224 18.802-5.922.302-.52.576-1.095.516-1.685-.079-.772-.7-1.363-1.244-1.927-4.898-5.08-5.494-12.9-3.263-19.589 2.23-6.69 7.153-12.091 12.62-16.745" transform="translate(.254 .435)"/>
        <path fill="#DB884F" d="M28.812 2.78C27.38 1.762 25.232.906 24.54 1.26c-1.59.812-4.983 4.808-5.917 6.298-2.256 3.6-4.06 5.747-5.814 10.36-.166.435-.449.84-.473 1.301-.022.402.16.123.192.522.1 1.258-.63 2.393-1.54 3.696C5 32.012.884 42.08.848 43.626c-.035 1.545 1.377 4.124 2.923 4.482-.68-2.647-.086-6.018.983-8.712 1.02-2.566 5.51-11.121 6.418-12.934.937-1.873 2.14-3.61 3.338-5.34 4.416-6.379 8.469-14.43 14.302-18.343" transform="translate(.254 .435)"/>
        <path fill="#3856C6" d="M65.249 8.758c5.683-1.523 14.56-1.197 18.621 1.56 4.06 2.759 6.565 8.026 5.304 12.725-3.313 12.345-12.182 22.463-42.123 19.325-3.592-.376-8.682-2.176-11.976-.682-.792.36-4.306 1.667-5.14 1.92-3.6 1.09-6.72-2.745-7.542-6.284-2.103-9.057.997-17.962 7.224-26.488 1.015-1.39 1.73-3.064 3.216-3.973 1.486-.909 3.744-.857 4.675.56.393.6.501 1.348.923 1.928.743 1.02 2.2 1.222 3.494 1.304 8.224.525 15.31.117 23.324-1.895" transform="translate(.254 .435)"/>
        <path fill="#0A0A0A" d="M87.974 22.955c-.144 1.165-.396 2.317-.762 3.433-.347 1.061-.697 1.862-1.25 2.863-.538.97-1.168 1.885-1.862 2.75l-.122.15c-.002 0-.003.002-.004.004-.085.1-.17.198-.257.296-.185.209-.374.414-.566.615-.376.393-.767.772-1.17 1.136-.197.178-.397.353-.6.524l-.307.256c-.053.043-.29.229-.292.233-.425.325-.856.641-1.299.942-.464.316-.937.618-1.418.907-.235.141-.472.28-.71.414l-.119.066c-.138.07-.273.148-.41.22-1.048.552-2.125 1.048-3.222 1.494-.212.087-.426.17-.64.253l-.25.095c-.149.055-.298.108-.447.161-.548.195-1.1.378-1.656.55-.573.179-1.15.345-1.73.5-.272.072-.545.143-.818.21-.137.035-.273.068-.41.1l-.206.05.175-.043-.181.043c-1.121.252-2.251.465-3.388.639-.575.088-1.152.166-1.73.234-.269.031-.538.06-.807.088l-.402.039-.2.018.127-.013-.147.014c-1.07.083-2.143.136-3.217.148-1.042.012-2.085-.013-3.125-.081l-.256-.019-.192-.016c-.242-.02-.483-.045-.724-.07-.452-.05-.903-.11-1.352-.18-3.772-.585-7.46-1.536-11.29-1.723-2.17-.106-4.341.065-6.451.593-1.023.256-2.03.618-2.982 1.072-.428.203-.842.436-1.265.65-.21.106-.421.212-.64.3l-.04.018-.064.018c-.036.011-.197.053-.239.063l.046-.011-.047.012c-.083.004-.167.004-.25.004-.272-.001-.11-.012-.055-.004-.085-.012-.17-.025-.254-.042-.232-.047-.617-.203-.91-.376-.62-.367-1.135-.93-1.562-1.503-.962-1.287-1.448-2.841-1.776-4.395-.768-3.646-.63-7.406.16-11.036.81-3.726 2.276-7.276 4.163-10.582.977-1.712 2.064-3.36 3.243-4.94.536-.718 1.075-1.452 1.68-2.114.1-.108.38-.422.575-.584.071.028.15.067.196.092.658.359 1.106 1.092 1.56 1.665.272.344.562.653.878.934-.166.416-.41.81-.698 1.153-.728.864-1.706 1.489-2.604 2.187-2.404 1.868-4.396 4.658-4.077 7.602 2.087-3.838 6.585-6.448 8.286-10.254l.12.077c1.444.899 3.196 1.278 4.87 1.434 2.064.192 4.144.129 6.21.016 2.282-.124 4.561-.346 6.822-.675 2.252-.327 4.48-.771 6.694-1.294l1.137-.27.304-.072.046-.01.653-.149c2.235-.498 4.493-.906 6.774-1.12l.096-.008.145-.012c.151-.01.303-.023.454-.032.324-.022.648-.038.973-.05.654-.025 1.31-.03 1.964-.013.31.008.618.021.927.04l.228.015h.013c.173.016.346.032.519.05.63.067 1.26.158 1.883.28.319.063.637.134.952.213.397.1.433.11.765.215.614.196 1.216.428 1.8.7 1.155.537 2.143 1.182 3.082 2.044.965.887 1.784 1.925 2.424 3.068.582 2.536.827 5.14.508 7.73m-3.994 9.2c.033-.04.134-.157 0 0m-54.926 10.82c-.167.04-.077.01 0 0m-5.605 6.72c-.754.67-1.714 1.286-2.607 1.73-.54.266-1.015.464-1.441.614-.27.094-.541.18-.815.259-.129.037-.258.072-.388.105-.045.012-.358.086-.358.088-2.283.49-4.669.41-6.941-.385-1.232-.432-2.417-1.058-3.463-1.839-.575-.43-1.117-.905-1.623-1.414-.275-.276-.54-.563-.793-.858-.1-.116-.202-.232-.295-.353l-.004-.017c-.028-.1-.059-.194-.076-.297-.035-.219-.023-.134-.022-.311.004-.367.038-.733.088-1.097.144-1.046.395-2.077.67-3.095.73-2.693 1.684-5.329 2.78-7.893 1.115-2.606 2.426-5.058 3.978-7.427 2.085-3.183 3.975-6.487 5.922-9.755 1.848-3.102 3.752-6.194 5.993-9.033 1.107-1.403 2.292-2.747 3.57-3.999.333-.327.671-.651 1.02-.963.11-.098.242-.242.375-.302l.014-.006c.082.012.194.052.246.069.835.262 1.654.774 2.376 1.258.552.37 1.066.79 1.548 1.247-1.679.727-2.828 2.302-3.932 3.754-2.449 3.222-4.5 6.734-6.03 10.482-1.474 3.613-2.418 7.472-2.502 11.383-.077 3.551.315 7.604 2.449 10.571.834 1.16 1.994 2.057 3.374 2.378l-.01.033c-.402 2.023-1.585 3.728-3.103 5.074M2.662 40.373c.385-1.526 1.076-2.936 1.774-4.358 1.648-3.357 3.543-6.593 5.45-9.809.795-1.34 1.6-2.674 2.393-4.016.417-.705.881-1.411 1.209-2.164.236-.544.062-1.009-.392-1.401-.357-.309-.332-.257-.145-.75.212-.559.456-1.106.715-1.646 1.122-2.334 2.56-4.51 4.11-6.58 1.76-2.352 3.7-4.57 5.721-6.7.392-.414.765-.85 1.176-1.246.039-.037.102-.104.17-.168.102.045.225.092.249.104.778.388 1.585.837 2.283 1.38-.712.521-1.359 1.2-1.97 1.822-2.699 2.744-4.964 5.883-7.026 9.123-2.147 3.372-4.096 6.864-6.181 10.274-1.747 2.857-3.657 5.568-5.093 8.603-1.33 2.81-2.456 5.73-3.37 8.7-.302.982-.582 1.975-.809 2.978-.557-1.253-.635-2.67-.264-4.146m8.549-20.318c.018-.035.036-.053.001.019l-.001-.02M25.114 1.369l-.106.034c.043-.027.08-.042.106-.034m8.853 5.999c-.025.004-.041.005-.04.003.005-.007.02-.006.04-.003m.206-.04c.034-.02.063-.03.08-.025.009.003-.028.013-.08.025m41.853 1.33c-.056-.005-.222-.021 0 0m15.043 9.816c-.083-1.328-.286-2.645-.574-3.943.006-.07-.008-.141-.047-.213-.024-.101-.075-.184-.147-.251-1.404-2.398-2.815-4.535-5.346-5.725-2.535-1.192-6.235-2.178-9.015-2.274-4.835-.167-9.577.852-14.251 1.96-4.237 1.004-8.668 1.608-13.053 1.786-3.285.134-7.266 1.242-9.693-1.492-.553-.623-.988-1.358-1.63-1.898-.487-.41-1.046-.654-1.64-.752-.018-.032-.04-.063-.07-.094-1.32-1.368-2.98-2.576-4.781-3.223-.363-.13-.71-.194-1.043-.203-.747-.627-1.632-1.142-2.485-1.602-.427-.23-.863-.458-1.35-.524-.82-.112-1.655.159-2.347.589-1.02.633-1.826 1.697-2.637 2.567-.918.985-1.816 1.99-2.687 3.017-1.836 2.162-3.58 4.418-5.086 6.826-.69 1.102-1.328 2.237-1.88 3.414-.255.543-.488 1.096-.703 1.655-.2.519-.336.96.095 1.402.102.105.237.175.336.283.05.054.081.075.124.135l.033.093.01.06.006-.014c.004.004 0 .014-.004.026v.004l-.008.016c-.004.011-.008.02-.006.023l-.002-.006c-.17.329-.344.652-.527.973-.696 1.217-1.425 2.416-2.144 3.62-2.009 3.365-4.014 6.741-5.801 10.23-.852 1.663-1.696 3.367-2.27 5.15-.417 1.295-.589 2.695-.31 4.04.287 1.387 1.105 2.592 2.158 3.518.073.065.156.112.245.147.026.267.083.5.238.727.414.605.992 1.15 1.526 1.648 1.078 1.008 2.312 1.873 3.643 2.515 2.55 1.228 5.414 1.635 8.217 1.327 4.81-.53 10.164-3.376 12.015-8.089.162-.412.298-.83.402-1.258.733-.1 1.448-.321 2.135-.62.911-.394 1.749-.936 2.68-1.287l.161-.055c.113-.037.224-.076.337-.111.253-.08.508-.151.765-.218.042-.011.066-.017.08-.022l.03-.006c.115-.026.23-.05.346-.072.29-.056.58-.104.871-.145.953-.133 1.905-.166 2.918-.143 2.064.045 4.113.363 6.141.727 2.802.504 5.415 1.087 8.219 1.61 8.654 1.612 17.61-.956 22.372-2.91 4.537-1.862 8.82-4.582 11.94-8.412 3.123-3.835 3.798-9.617 3.494-14.526" transform="translate(.254 .435)"/>
        <path fill="#0A0A0A" d="M11.207 20.08l-.002-.013c-.01.02-.017.04-.015.052l.009-.017.008-.022" transform="translate(.254 .435)"/>
    </g>
</svg>
