<svg id="940a88ca-a431-4132-8475-7e045d3f3e69" data-name="Слой 1" xmlns="http://www.w3.org/2000/svg" width="368.87" height="69.99" viewBox="0 0 368.87 69.99">
  <defs>
    <style>
      .\39 ce57943-1641-46ec-8613-90012ce97670 {
        fill: #3b3b3b;
      }
    </style>
  </defs>
  <title>works_header</title>
  <g>
    <path class="9ce57943-1641-46ec-8613-90012ce97670" d="M367.91,70H1c.59-1.71,1-3.48,1.79-5.13C10.28,48.18,18.05,31.6,25.3,14.8,28.2,8.08,31.91,2.64,39,0h291c7,2.63,10.7,8,13.59,14.69,7.27,16.85,15.08,33.47,22.63,50.2C366.88,66.52,367.33,68.29,367.91,70Z"/>
    <path class="9ce57943-1641-46ec-8613-90012ce97670" d="M39,0c-7,2.64-10.75,8.08-13.65,14.8-7.25,16.8-15,33.38-22.55,50.06C2,66.51,1.55,68.28,1,70a16.85,16.85,0,0,1-1-4"/>
    <path class="9ce57943-1641-46ec-8613-90012ce97670" d="M368.87,66a18,18,0,0,1-1,4c-.58-1.7-1-3.47-1.77-5.1-7.55-16.73-15.36-33.35-22.63-50.2C340.62,8,336.9,2.63,329.92,0"/>
  </g>
</svg>
