<svg id="496c3800-a8c4-4081-8e4d-43ac2a3dd829" data-name="Слой 1" xmlns="http://www.w3.org/2000/svg"  viewBox="0 0 39.95 38.28" preserveAspectRatio="none">
  <title>star-mask</title>
  <path d="M39.09,17.35a2.87,2.87,0,0,0-1.59-4.89l-9.68-1.4a1.27,1.27,0,0,1-.95-.7L22.55,1.6a2.86,2.86,0,0,0-5.14,0l-4.33,8.76a1.27,1.27,0,0,1-.95.7l-9.68,1.4A2.86,2.86,0,0,0,.87,17.35l7,6.82a1.29,1.29,0,0,1,.36,1.12L6.58,34.93a2.86,2.86,0,0,0,4.15,3l8.66-4.56a1.29,1.29,0,0,1,1.18,0L29.21,38a3,3,0,0,0,1.34.33,2.88,2.88,0,0,0,1.68-.55,2.84,2.84,0,0,0,1.14-2.8l-1.65-9.64a1.24,1.24,0,0,1,.37-1.12Zm-9,8.21L31.8,35.2A1.27,1.27,0,0,1,30,36.53L21.31,32a2.87,2.87,0,0,0-2.67,0L10,36.53a1.23,1.23,0,0,1-1.33-.1,1.22,1.22,0,0,1-.5-1.23l1.65-9.64A2.86,2.86,0,0,0,9,23L2,16.2a1.24,1.24,0,0,1-.32-1.29,1.27,1.27,0,0,1,1-.87l9.68-1.4a2.88,2.88,0,0,0,2.16-1.57l4.32-8.76a1.26,1.26,0,0,1,2.27,0l4.33,8.76a2.85,2.85,0,0,0,2.15,1.57L37.27,14A1.28,1.28,0,0,1,38,16.2L31,23a2.86,2.86,0,0,0-.83,2.54Zm0,0"/>
</svg>
