<svg id="8273e36c-ac74-4b87-8c1f-f4e9cb80f478" data-name="Слой 1" xmlns="http://www.w3.org/2000/svg" width="3000" height="500" viewBox="0 0 3000 500">
  <defs>
    <style>
      .\32 0c20fd0-5725-4905-809d-aa118c4f49cb {
        fill: #aaffc9;
      }

      .\34 d62c3a6-6f7b-4f6f-8ae0-9ee72196c91c {
        fill: #ff4700;
      }
    </style>
  </defs>
  <title>step-sprite</title>

  <g>
    <rect class="4d62c3a6-6f7b-4f6f-8ae0-9ee72196c91c" x="2415.6" y="163.6" width="21.6" height="14.4"/>
    <rect class="4d62c3a6-6f7b-4f6f-8ae0-9ee72196c91c" x="2398.21" y="113.17" width="20.36" height="14.4" transform="translate(620.29 1738.25) rotate(-45)"/>
    <rect class="4d62c3a6-6f7b-4f6f-8ae0-9ee72196c91c" x="2401.19" y="210.99" width="14.4" height="20.36" transform="translate(549.01 1767.77) rotate(-45)"/>
    <path class="4d62c3a6-6f7b-4f6f-8ae0-9ee72196c91c" d="M2430,77.2h-57.6V55.6a21.55,21.55,0,0,0-41.81-7.39l-78.28,29H2070a36,36,0,0,0-36,36V343.6a36,36,0,0,0,36,36h142l-10.8,43.2h-52a7.2,7.2,0,0,0-7.2,7.2,36,36,0,0,0,36,36h144a36,36,0,0,0,36-36,7.2,7.2,0,0,0-7.2-7.2h-52L2288,379.6h142a36,36,0,0,0,36-36V113.2A36,36,0,0,0,2430,77.2Zm-57.6,79.2h7.2a7.21,7.21,0,0,1,7.2,7.2V178a7.21,7.21,0,0,1-7.2,7.2h-7.2ZM2343.61,55.63v-.08a7.2,7.2,0,0,1,14.39.05V285.23a8.37,8.37,0,0,1-3.29,6.66c-.21.14-.4.29-.61.41a6.76,6.76,0,0,1-1.25.49,6.47,6.47,0,0,1-1.39.28,7.35,7.35,0,0,1-1.7-.08,5.93,5.93,0,0,1-1.28-.26,7.17,7.17,0,0,1-1.57-.83,3.76,3.76,0,0,1-1.52-1.29,7.32,7.32,0,0,1-1-1.44,8.26,8.26,0,0,1-.33-.82,6.83,6.83,0,0,1-.47-2.29V55.63Zm-14.41,8.44V277.52l-165.6-61.34V125.41Zm-36,373.13h49.17A21.64,21.64,0,0,1,2322,451.6H2178a21.64,21.64,0,0,1-20.37-14.4H2293.2ZM2216,422.8l10.8-43.2h46.36l10.8,43.2Zm235.58-79.2a21.62,21.62,0,0,1-21.6,21.6H2070a21.62,21.62,0,0,1-21.6-21.6v-7.2h403.2Zm0-21.6H2048.4V113.2A21.62,21.62,0,0,1,2070,91.6h143.43l-58.31,21.6H2098.8a36,36,0,0,0-36,36v43.2a36.07,36.07,0,0,0,28.8,35.27V278.8a21.62,21.62,0,0,0,21.6,21.6h14.4a21.62,21.62,0,0,0,21.6-21.6V228.4h5.92l175.37,65c.06.15.16.28.22.43a20.78,20.78,0,0,0,2.26,4.37c.16.23.37.43.54.65a21.42,21.42,0,0,0,2.83,3.11c.18.17.3.38.48.54s.63.4.93.63a23.25,23.25,0,0,0,2.09,1.42c.56.33,1.11.64,1.69.91a20.3,20.3,0,0,0,2.42,1c.58.19,1.14.39,1.72.54a23.75,23.75,0,0,0,2.7.44c.6.07,1.19.16,1.8.18.21,0,.41.07.63.07a20,20,0,0,0,2.06-.21c.5,0,1,0,1.52-.08.16,0,.29-.08.44-.11.49-.1,1-.26,1.43-.38a19.31,19.31,0,0,0,2.38-.74,18.59,18.59,0,0,0,2.06-1c.38-.2.77-.38,1.14-.61A21.55,21.55,0,0,0,2372.4,286V199.6h7.2a21.62,21.62,0,0,0,21.6-21.6V163.6a21.62,21.62,0,0,0-21.6-21.6h-7.2V91.6H2430a21.62,21.62,0,0,1,21.6,21.6ZM2098.8,214a21.62,21.62,0,0,1-21.6-21.6V149.2a21.62,21.62,0,0,1,21.6-21.6h50.4V214h-50.4Zm36,14.4v50.4a7.21,7.21,0,0,1-7.2,7.2h-14.4a7.21,7.21,0,0,1-7.2-7.2V228.4Z"/>
  </g>
  <g>
    <path class="4d62c3a6-6f7b-4f6f-8ae0-9ee72196c91c" d="M970.08,61.2H529.92a9.37,9.37,0,0,0-9.37,9.37V429.43a9.37,9.37,0,0,0,9.37,9.37H970.08a9.38,9.38,0,0,0,9.37-9.37V70.57A9.38,9.38,0,0,0,970.08,61.2Zm-9.36,18.73v56.41H539.28V79.93ZM539.28,420.07v-265H960.72v265Z"/>
    <path class="4d62c3a6-6f7b-4f6f-8ae0-9ee72196c91c" d="M666.73,202.19H591.84a9.37,9.37,0,0,0-9.37,9.36v75.86a9.37,9.37,0,0,0,9.37,9.36h74.89a9.36,9.36,0,0,0,9.36-9.36V211.55A9.36,9.36,0,0,0,666.73,202.19ZM657.36,278H601.2V220.92h56.16Z"/>
    <path class="4d62c3a6-6f7b-4f6f-8ae0-9ee72196c91c" d="M711.87,296.77h74.88a9.36,9.36,0,0,0,9.37-9.36V211.55a9.36,9.36,0,0,0-9.37-9.36H711.87a9.37,9.37,0,0,0-9.37,9.36v75.86A9.37,9.37,0,0,0,711.87,296.77Zm9.36-75.85h56.16V278H721.23Z"/>
    <path class="4d62c3a6-6f7b-4f6f-8ae0-9ee72196c91c" d="M831.9,296.77h74.89a9.36,9.36,0,0,0,9.37-9.36V211.55a9.36,9.36,0,0,0-9.37-9.36H831.9a9.36,9.36,0,0,0-9.36,9.36v75.86A9.36,9.36,0,0,0,831.9,296.77Zm9.37-75.85h56.16V278H841.27Z"/>
    <path class="4d62c3a6-6f7b-4f6f-8ae0-9ee72196c91c" d="M666.73,320.54H591.84a9.37,9.37,0,1,0,0,18.73h74.89a9.37,9.37,0,0,0,0-18.73Z"/>
    <path class="4d62c3a6-6f7b-4f6f-8ae0-9ee72196c91c" d="M666.73,355.19H591.84a9.37,9.37,0,1,0,0,18.73h74.89a9.37,9.37,0,0,0,0-18.73Z"/>
    <path class="4d62c3a6-6f7b-4f6f-8ae0-9ee72196c91c" d="M787.44,320.54H712.56a9.37,9.37,0,1,0,0,18.73h74.89a9.37,9.37,0,0,0,0-18.73Z"/>
    <path class="4d62c3a6-6f7b-4f6f-8ae0-9ee72196c91c" d="M787.44,355.19H712.56a9.37,9.37,0,1,0,0,18.73h74.89a9.37,9.37,0,0,0,0-18.73Z"/>
    <path class="4d62c3a6-6f7b-4f6f-8ae0-9ee72196c91c" d="M908.16,320.54H833.27a9.37,9.37,0,0,0,0,18.73h74.89a9.37,9.37,0,1,0,0-18.73Z"/>
    <path class="4d62c3a6-6f7b-4f6f-8ae0-9ee72196c91c" d="M908.16,355.19H833.27a9.37,9.37,0,0,0,0,18.73h74.89a9.37,9.37,0,1,0,0-18.73Z"/>
    <path class="4d62c3a6-6f7b-4f6f-8ae0-9ee72196c91c" d="M591.84,117.29h4.62a9.37,9.37,0,1,0,0-18.73h-4.62a9.37,9.37,0,1,0,0,18.73Z"/>
    <path class="4d62c3a6-6f7b-4f6f-8ae0-9ee72196c91c" d="M630.67,117.29h4.62a9.37,9.37,0,1,0,0-18.73h-4.62a9.37,9.37,0,0,0,0,18.73Z"/>
    <path class="4d62c3a6-6f7b-4f6f-8ae0-9ee72196c91c" d="M669.5,117.29h4.62a9.37,9.37,0,1,0,0-18.73H669.5a9.37,9.37,0,0,0,0,18.73Z"/>
  </g>
  <path class="4d62c3a6-6f7b-4f6f-8ae0-9ee72196c91c" d="M2945.43,65.68H2753.11V43.92a6.67,6.67,0,1,0-13.33,0v64.4h-185.2a6.67,6.67,0,0,0-6.67,6.66V427.66a6.66,6.66,0,0,0,6.67,6.66h185.2v21.76a6.67,6.67,0,1,0,13.33,0v-64.4h192.31a6.67,6.67,0,0,0,6.67-6.66V72.34A6.66,6.66,0,0,0,2945.43,65.68ZM2739.79,262.44V286h-39.12l17-45.31h22.13v21.77Zm0-35.09H2713a6.65,6.65,0,0,0-6.23,4.32l-22,58.63a6.66,6.66,0,0,0,6.24,9h48.73v13.32h-58.73a6.66,6.66,0,0,0-6.23,4.33l-26.4,70.39L2636,382.66l61.62-164.32a6.7,6.7,0,0,1,6.24-4.32h36v13.33Zm0-36v9.33h-36a20.06,20.06,0,0,0-18.71,13l-64,170.55a6.66,6.66,0,0,0,3.9,8.58l24.95,9.35a6.65,6.65,0,0,0,8.58-3.89L2685.68,326h54.11V421H2561.24V171.39h178.55v20Zm0-69.28v36H2561.24V121.64h178.55v.45Zm13.32,85.27V198h57.29a15.55,15.55,0,0,1,0,31.1h-57.29Zm0,111.93V269.1h64.4a29.76,29.76,0,1,1,0,59.51h-64.4v-9.32Zm0,22.65h64.4a43.09,43.09,0,0,0,0-86.17h-64.4V242.45h57.29a28.87,28.87,0,0,0,0-57.74h-57.29V171.39h57.29a42.24,42.24,0,0,1,42.2,42.19,41.68,41.68,0,0,1-9.22,26.27,6.66,6.66,0,0,0,1.91,10,56.38,56.38,0,0,1-27.78,105.46h-64.4V341.94Zm185.65,36.42H2753.11v-9.77h64.4A69.71,69.71,0,0,0,2858,242.12a55.48,55.48,0,0,0-47.59-84.06h-57.29V128.75h185.65Zm0-262.94H2753.11V79h185.65Z"/>
  <g>
    <rect class="4d62c3a6-6f7b-4f6f-8ae0-9ee72196c91c" x="1588.67" y="59.33" width="14.67" height="14.67"/>
    <rect class="4d62c3a6-6f7b-4f6f-8ae0-9ee72196c91c" x="1618" y="59.33" width="14.67" height="14.67"/>
    <rect class="4d62c3a6-6f7b-4f6f-8ae0-9ee72196c91c" x="1559.33" y="59.33" width="14.67" height="14.67"/>
    <path class="4d62c3a6-6f7b-4f6f-8ae0-9ee72196c91c" d="M1940.67,30H1559.33A29.33,29.33,0,0,0,1530,59.33V440.67A29.33,29.33,0,0,0,1559.33,470h381.34A29.33,29.33,0,0,0,1970,440.67V59.33A29.33,29.33,0,0,0,1940.67,30Zm14.66,410.67a14.66,14.66,0,0,1-14.66,14.66H1559.33a14.66,14.66,0,0,1-14.66-14.66V103.33h410.66Zm0-352H1544.67V59.33a14.66,14.66,0,0,1,14.66-14.66h381.34a14.66,14.66,0,0,1,14.66,14.66Z"/>
    <path class="4d62c3a6-6f7b-4f6f-8ae0-9ee72196c91c" d="M1896.67,250h-25.55a122.65,122.65,0,0,0-14.71-35.6l18-18a7.32,7.32,0,0,0,0-10.37l-31.11-31.11a7.55,7.55,0,0,0-10.37,0l-18,18a123.1,123.1,0,0,0-35.61-14.71V132.67a7.34,7.34,0,0,0-7.33-7.34h-44a7.34,7.34,0,0,0-7.33,7.34v25.54a123.1,123.1,0,0,0-35.61,14.71l-18-18a7.34,7.34,0,0,0-10.37,0L1625.55,186a7.32,7.32,0,0,0,0,10.37l18,18a122.65,122.65,0,0,0-14.71,35.6h-25.55a7.33,7.33,0,0,0-7.33,7.33v44a7.34,7.34,0,0,0,7.33,7.34h25.55a122.76,122.76,0,0,0,14.71,35.6l-18,18a7.32,7.32,0,0,0,0,10.37l31.11,31.12a7.55,7.55,0,0,0,10.37,0l18-18a123.38,123.38,0,0,0,35.61,14.71V426a7.33,7.33,0,0,0,7.33,7.33h44a7.33,7.33,0,0,0,7.33-7.33V400.46a123.38,123.38,0,0,0,35.61-14.71l18,18a7.34,7.34,0,0,0,10.37,0l31.11-31.12a7.32,7.32,0,0,0,0-10.37l-18-18a122.76,122.76,0,0,0,14.71-35.6h25.55a7.34,7.34,0,0,0,7.33-7.34v-44A7.33,7.33,0,0,0,1896.67,250Zm-7.34,44H1865.2a7.33,7.33,0,0,0-7.2,6,108.86,108.86,0,0,1-17,41.19,7.32,7.32,0,0,0,.88,9.3l17,17-20.75,20.74-17-17a7.32,7.32,0,0,0-9.3-.87,108.85,108.85,0,0,1-41.19,17,7.33,7.33,0,0,0-6,7.2v24.14h-29.35V394.53a7.33,7.33,0,0,0-6-7.2,108.87,108.87,0,0,1-41.18-17,7.33,7.33,0,0,0-9.31.87l-17,17-20.75-20.74,17-17a7.33,7.33,0,0,0,.88-9.31A108.89,108.89,0,0,1,1642,300a7.32,7.32,0,0,0-7.2-6h-24.13V264.67h24.13a7.34,7.34,0,0,0,7.2-6,108.89,108.89,0,0,1,17-41.18,7.34,7.34,0,0,0-.88-9.31l-17-17,20.75-20.75,17,17a7.33,7.33,0,0,0,9.3.87,108.85,108.85,0,0,1,41.19-17,7.34,7.34,0,0,0,6-7.21V140h29.34v24.13a7.34,7.34,0,0,0,6,7.21,108.87,108.87,0,0,1,41.18,17,7.35,7.35,0,0,0,9.31-.87l17-17,20.75,20.75-17,17a7.33,7.33,0,0,0-.88,9.31,108.82,108.82,0,0,1,17,41.18,7.33,7.33,0,0,0,7.2,6h24.13Z"/>
    <path class="4d62c3a6-6f7b-4f6f-8ae0-9ee72196c91c" d="M1750,184a95.34,95.34,0,1,0,95.33,95.33A95.33,95.33,0,0,0,1750,184Zm0,176a80.67,80.67,0,1,1,80.67-80.67A80.67,80.67,0,0,1,1750,360Z"/>
    <path class="4d62c3a6-6f7b-4f6f-8ae0-9ee72196c91c" d="M1725.07,263.2l-8.8-11.73-29.34,22a7.35,7.35,0,0,0,0,11.73l29.34,22,8.8-11.73-21.51-16.14Z"/>
    <path class="4d62c3a6-6f7b-4f6f-8ae0-9ee72196c91c" d="M1814.53,274.93a7.21,7.21,0,0,0-1.46-1.46l-29.34-22-8.8,11.73,21.51,16.13-21.51,16.14,8.8,11.73,29.34-22A7.34,7.34,0,0,0,1814.53,274.93Z"/>
    <rect class="4d62c3a6-6f7b-4f6f-8ae0-9ee72196c91c" x="1710.51" y="272.04" width="78.98" height="14.67" transform="translate(840.48 1800.33) rotate(-68.19)"/>
  </g>
  <g>
    <path class="4d62c3a6-6f7b-4f6f-8ae0-9ee72196c91c" d="M1460.25,25.25h-420.5A21.75,21.75,0,0,0,1018,47V366a7.26,7.26,0,0,0,7.25,7.25h165.16l-11.6,58H1163a7.26,7.26,0,0,0-7.25,7.25v21.75h-14.5v14.5h217.5v-14.5h-14.5V438.5a7.26,7.26,0,0,0-7.25-7.25h-15.82l-11.6-58h165.17A7.26,7.26,0,0,0,1482,366V47A21.75,21.75,0,0,0,1460.25,25.25Zm-145,420.5h14.5v14.5h-159.5v-14.5h145Zm-121.66-14.5,11.59-58h89.63l11.59,58Zm273.91-72.5h-435V293.5h435ZM1366,90.5h-58a7.26,7.26,0,0,0-7.25,7.25V163h14.5V105h43.5v29h-29v14.5h29v36.25h-29v14.5h29V235.5h-29V250h29v29h-43.5V221h-14.5v58h-29V242.75c0-29.59,35.93-36.09,37.44-36.35a7.43,7.43,0,0,0,2.53-.93,7.26,7.26,0,0,0,2.49-9.95L1249,86.77a7.38,7.38,0,0,0-2-2,7.53,7.53,0,0,0-10.47,2l-65.25,108.75a7.17,7.17,0,0,0-.93,2.52,7.25,7.25,0,0,0,5.93,8.36c1.53.26,37.46,6.76,37.46,36.35V279h-29V221h-14.5v58H1163V148.5h7.25V163h14.5V141.25a7.25,7.25,0,0,0-.59-2.86l-21.75-50.75a7.25,7.25,0,0,0-13.32,0l-21.75,50.75a7.25,7.25,0,0,0-.59,2.86V279h-58V76h362.5V279h-58V97.75A7.26,7.26,0,0,0,1366,90.5ZM1228.25,257.25V250h29v7.25Zm29,14.5V279h-29v-7.25Zm-29.53-36.25c-3.47-23.06-23.21-35.52-39-40.85l46.78-78V177.5H1250V116.68l46.78,78c-15.8,5.29-35.53,17.8-39,40.85ZM1145,134l10.77-25.13L1166.52,134Zm3.52,14.5V279h-7.25V148.5Zm319,130.5h-21.75V68.75a7.26,7.26,0,0,0-7.25-7.25h-377a7.26,7.26,0,0,0-7.25,7.25V279H1032.5V47a7.26,7.26,0,0,1,7.25-7.25h420.5A7.26,7.26,0,0,1,1467.5,47Z"/>
    <path class="4d62c3a6-6f7b-4f6f-8ae0-9ee72196c91c" d="M1250,300.75a21.75,21.75,0,1,0,21.75,21.75A21.75,21.75,0,0,0,1250,300.75Zm0,29a7.25,7.25,0,1,1,7.25-7.25A7.26,7.26,0,0,1,1250,329.75Z"/>
  </g>
  <g>
    <path class="4d62c3a6-6f7b-4f6f-8ae0-9ee72196c91c" d="M474.63,43H192.15a6.78,6.78,0,0,0,0,13.56h275.7V88.2h-181a143.73,143.73,0,0,0-84.37,0H133.39V56.56h29.79a6.78,6.78,0,0,0,0-13.56H25.37a6.79,6.79,0,0,0-6.78,6.78v286.1a6.78,6.78,0,0,0,13.56,0V101.76H171.94a143,143,0,0,0-28,21.84c-55.53,55.54-55.53,145.91,0,201.46a142.44,142.44,0,0,0,186,13.36L387,395.54H32.15V365.71a6.78,6.78,0,0,0-13.56,0v36.61a6.78,6.78,0,0,0,6.78,6.78H400.59L442.52,451a20.4,20.4,0,0,0,28.85-28.85L458.28,409.1h16.35a6.78,6.78,0,0,0,6.78-6.78V163a6.78,6.78,0,0,0-13.56,0V395.54H444.73l-86-86c41.66-55.75,37.19-135.32-13.43-185.94a143,143,0,0,0-28-21.84H467.85v32.43a6.78,6.78,0,0,0,13.56,0V49.78A6.79,6.79,0,0,0,474.63,43ZM119.83,88.2H32.15V56.56h87.68ZM461.77,431.77a6.84,6.84,0,1,1-9.67,9.68l-43.86-43.87-.09-.09-67.73-67.76c1.67-1.51,3.3-3.07,4.91-4.67s3.22-3.31,4.76-5Zm-126-298.59a129.08,129.08,0,0,1,0,182.29q-4.5,4.48-9.33,8.48a3.47,3.47,0,0,0-.42.34A128.89,128.89,0,1,1,205,101.6a6.72,6.72,0,0,0,1.25-.39,130,130,0,0,1,76.68,0,7.59,7.59,0,0,0,1.25.4A128.3,128.3,0,0,1,335.74,133.18Z"/>
    <circle class="4d62c3a6-6f7b-4f6f-8ae0-9ee72196c91c" cx="51.59" cy="72.38" r="6.78"/>
    <circle class="4d62c3a6-6f7b-4f6f-8ae0-9ee72196c91c" cx="102.21" cy="72.38" r="6.78"/>
    <circle class="4d62c3a6-6f7b-4f6f-8ae0-9ee72196c91c" cx="76.9" cy="72.38" r="6.78"/>
    <path class="4d62c3a6-6f7b-4f6f-8ae0-9ee72196c91c" d="M326.14,142.78a115.32,115.32,0,1,0,0,163.09A114.5,114.5,0,0,0,326.14,142.78Zm-9.59,153.5a101.77,101.77,0,1,1,0-143.91A101,101,0,0,1,316.55,296.28Z"/>
    <path class="4d62c3a6-6f7b-4f6f-8ae0-9ee72196c91c" d="M309.19,182.4A20.38,20.38,0,0,0,290,196H260.68a20.34,20.34,0,1,0-37.28,16l-22.78,24.06a20.39,20.39,0,1,0,9.84,9.33l22.79-24.07a20.15,20.15,0,0,0,8.26,1.76,20.37,20.37,0,0,0,19.17-13.56H290a20.34,20.34,0,1,0,19.18-27.13Zm-116.83,79A6.79,6.79,0,1,1,197,249.7l0,0,.09.08a6.78,6.78,0,0,1-4.74,11.63Zm49.15-51.92a6.79,6.79,0,1,1,6.78-6.79A6.79,6.79,0,0,1,241.51,209.53Zm67.68,0a6.78,6.78,0,0,1-6.78-6.74v-.09a6.78,6.78,0,1,1,6.78,6.83Z"/>
  </g>
</svg>
