<svg id="838b67c0-3d96-4ab5-885c-57f8af0b8e68" data-name="Capa 1" xmlns="http://www.w3.org/2000/svg" width="512" height="512" viewBox="0 0 512 512">
  <defs>
    <style>
      .\34 405ef90-ed1f-4b83-ab1f-8fb6535f93cd {
        fill: #ff7019;
      }
    </style>
  </defs>
  <title>what-we-do__slider-icon--support</title>
  <path class="4405ef90-ed1f-4b83-ab1f-8fb6535f93cd" d="M504.42,208.76,465.1,199l-20.92-50.49L465,113.77a10,10,0,0,0-1.5-12.22L410.45,48.46A10,10,0,0,0,398.23,47L363.52,67.82,313,46.9,303.24,7.58A10,10,0,0,0,293.53,0H218.47a10,10,0,0,0-9.7,7.58L199,46.9,148.48,67.82,113.77,47a10,10,0,0,0-12.22,1.5L48.46,101.55A10,10,0,0,0,47,113.77l20.86,34.71L46.9,199,7.58,208.76A10,10,0,0,0,0,218.47v75.06a10,10,0,0,0,7.58,9.71L46.9,313l20.92,50.49L47,398.23a10,10,0,0,0,1.5,12.22l53.09,53.09a10,10,0,0,0,12.22,1.5l34.71-20.86L199,465.1l9.79,39.32a10,10,0,0,0,9.71,7.58h75.06a10,10,0,0,0,9.71-7.58L313,465.1l50.49-20.92L398.23,465a10,10,0,0,0,12.22-1.5l53.09-53.09a10,10,0,0,0,1.5-12.22l-20.86-34.71L465.1,313l39.32-9.79a10,10,0,0,0,7.58-9.71V218.47A10,10,0,0,0,504.42,208.76Zm-12.42,77-36.62,9.12a10,10,0,0,0-6.83,5.88l-24.78,59.8a10,10,0,0,0,.67,9l19.44,32.34-42,42L369.5,424.44a10,10,0,0,0-9-.67l-59.8,24.78a10,10,0,0,0-5.88,6.83L285.72,492H226.28l-9.12-36.63a10,10,0,0,0-5.88-6.82l-59.8-24.78a10,10,0,0,0-9,.67l-32.34,19.43-42-42L87.56,369.5a10,10,0,0,0,.67-9l-24.78-59.8a10,10,0,0,0-6.82-5.88L20,285.72V226.28l36.63-9.12a10,10,0,0,0,6.82-5.88l24.78-59.8a10,10,0,0,0-.67-9L68.12,110.16l42-42L142.5,87.56a10,10,0,0,0,9,.67l59.8-24.78a10,10,0,0,0,5.88-6.83L226.28,20h59.44l9.12,36.63a10,10,0,0,0,5.88,6.82l59.8,24.78a10,10,0,0,0,9-.67l32.34-19.43,42,42L424.44,142.5a10,10,0,0,0-.67,9l24.78,59.8a10,10,0,0,0,6.82,5.88L492,226.28Z"/>
  <path class="4405ef90-ed1f-4b83-ab1f-8fb6535f93cd" d="M296.39,99.08a10,10,0,1,0-5,19.37,141.94,141.94,0,0,1,74.45,227.4,63.75,63.75,0,0,0-49.78-55.54l-17.86-3.9a11.9,11.9,0,0,1-9.15-9.79A59,59,0,0,0,315,227.82V194.64a59,59,0,0,0-117.94,0v33.18a58.92,58.92,0,0,0,25.67,48.63,11.92,11.92,0,0,1-9.18,10l-17.65,3.87a63.72,63.72,0,0,0-49.74,55.56A141.94,141.94,0,0,1,218.68,119a10,10,0,1,0-5.25-19.3A162.3,162.3,0,0,0,94,256c0,89.33,72.67,162,162,162s162-72.67,162-162A161.89,161.89,0,0,0,296.39,99.08ZM217,194.64a39,39,0,0,1,77.94,0v.88a35.09,35.09,0,0,1-15.89-9l-8.9-8.73a10,10,0,0,0-15.58,2,34.94,34.94,0,0,1-29.81,16.89H217v-2Zm0,33.18V216.65h7.76a55.06,55.06,0,0,0,39.38-16.74l.89.87A55,55,0,0,0,295,215.93v11.89a39,39,0,0,1-77.94,0Zm58.65,66.53a33.2,33.2,0,0,1-39.51-.12,32.27,32.27,0,0,0,5-9.33,59.22,59.22,0,0,0,29.45.06A32.08,32.08,0,0,0,275.68,294.35Zm70.57,71.2a141.73,141.73,0,0,1-180.5,0V352.6a44,44,0,0,1,34.4-42.77L217.81,306l1.07-.26a53.15,53.15,0,0,0,74.2,0l.88.22,17.86,3.9a44,44,0,0,1,34.43,42.78Z"/>
  <path class="4405ef90-ed1f-4b83-ab1f-8fb6535f93cd" d="M256.67,94H256a10,10,0,0,0,0,20h.63a10,10,0,0,0,0-20Z"/>
  <path class="4405ef90-ed1f-4b83-ab1f-8fb6535f93cd" d="M208.42,357.88,218.3,348a10,10,0,1,0-14.14-14.14L187.21,350.8a10,10,0,0,0,0,14.15l16.95,16.94a10,10,0,1,0,14.14-14.14Z"/>
  <path class="4405ef90-ed1f-4b83-ab1f-8fb6535f93cd" d="M327.89,350.8,311,333.86A10,10,0,0,0,296.8,348l9.88,9.88-9.88,9.87a10,10,0,1,0,14.14,14.14L327.89,365A10,10,0,0,0,327.89,350.8Z"/>
  <path class="4405ef90-ed1f-4b83-ab1f-8fb6535f93cd" d="M273.11,328.89a10,10,0,0,0-13.68,3.56L235.5,373.17a10,10,0,1,0,17.24,10.13l23.93-40.72A10,10,0,0,0,273.11,328.89Z"/>
</svg>
