<svg id="6503cff4-50b0-4601-a328-4b5aa5dcb72d" data-name="Capa 1" xmlns="http://www.w3.org/2000/svg" width="480" height="480" viewBox="0 0 480 480">
  <defs>
    <style>
      .ae33526f-4247-41ba-854d-613a6e077da9 {
        fill: #ff7019;
      }
    </style>
  </defs>
  <title>what-we-do__slider-icon--brand</title>
  <path class="ae33526f-4247-41ba-854d-613a6e077da9" d="M440,120v-8.88a56,56,0,1,0-80,0V120H344v16H456V120ZM429.82,98.59a39.14,39.14,0,0,1-3.16,3.15,8,8,0,0,0-2.66,6V120H408V99.31l21.66-21.65L418.34,66.34,400,84.69,381.66,66.34,370.34,77.66,392,99.31V120H376V107.7a8,8,0,0,0-2.66-6,40,40,0,1,1,56.48-3.15Z"/>
  <rect class="ae33526f-4247-41ba-854d-613a6e077da9" x="64" y="64" width="16" height="16"/>
  <rect class="ae33526f-4247-41ba-854d-613a6e077da9" x="352" y="184" width="16" height="16"/>
  <path class="ae33526f-4247-41ba-854d-613a6e077da9" d="M72,32a40,40,0,1,0,40,40A40,40,0,0,0,72,32Zm0,64A24,24,0,1,1,96,72,24,24,0,0,1,72,96Z"/>
  <path class="ae33526f-4247-41ba-854d-613a6e077da9" d="M472,280H304V8a8,8,0,0,0-8-8H8A8,8,0,0,0,0,8V440a8,8,0,0,0,8,8H40v8a24,24,0,0,0,48,0v-8h72v24a8,8,0,0,0,8,8H472a8,8,0,0,0,8-8V288A8,8,0,0,0,472,280Zm-8.8,16A40.07,40.07,0,0,1,424,328H216a40.07,40.07,0,0,1-39.2-32ZM72,456a8,8,0,0,1-16,0V432H72Zm0-40H56V400H72Zm0-32H56V256H72ZM56.94,240,64,225.89,71.06,240ZM160,288V432H88V240a8.11,8.11,0,0,0-.84-3.58l-16-32a8.34,8.34,0,0,0-14.32,0l-16,32A8.08,8.08,0,0,0,40,240V432H16V16H288V280H168A8,8,0,0,0,160,288ZM464,464H176V327.12A55.83,55.83,0,0,0,216,344H424a55.83,55.83,0,0,0,40-16.88Z"/>
  <path class="ae33526f-4247-41ba-854d-613a6e077da9" d="M472,152H328a8,8,0,0,0-8,8v96a8,8,0,0,0,8,8H472a8,8,0,0,0,8-8V160A8,8,0,0,0,472,152Zm-8,96H336V168H464Z"/>
  <rect class="ae33526f-4247-41ba-854d-613a6e077da9" x="392" y="216" width="40" height="16"/>
  <rect class="ae33526f-4247-41ba-854d-613a6e077da9" x="136" y="48" width="136" height="16"/>
  <rect class="ae33526f-4247-41ba-854d-613a6e077da9" x="136" y="80" width="104" height="16"/>
  <rect class="ae33526f-4247-41ba-854d-613a6e077da9" x="192" y="400" width="16" height="16"/>
  <rect class="ae33526f-4247-41ba-854d-613a6e077da9" x="232" y="400" width="104" height="16"/>
  <rect class="ae33526f-4247-41ba-854d-613a6e077da9" x="232" y="432" width="72" height="16"/>
  <rect class="ae33526f-4247-41ba-854d-613a6e077da9" x="392" y="184" width="56" height="16"/>
</svg>
