<svg id="d3859908-68b4-43e4-8a99-92eb997e8f68" data-name="Capa 1" xmlns="http://www.w3.org/2000/svg" width="480" height="480" viewBox="0 0 480 480">
  <defs>
    <style>
      .\36 fdd609c-585a-4a59-8a88-0188b81dff99 {
        fill: #ff7019;
      }
    </style>
  </defs>
  <title>what-we-do__slider-icon--adv</title>
  <rect class="6fdd609c-585a-4a59-8a88-0188b81dff99" x="424" y="144" width="24" height="16"/>
  <rect class="6fdd609c-585a-4a59-8a88-0188b81dff99" x="404.68" y="87.97" width="22.62" height="16" transform="translate(53.98 322.26) rotate(-45)"/>
  <rect class="6fdd609c-585a-4a59-8a88-0188b81dff99" x="407.99" y="196.65" width="16" height="22.62" transform="translate(-25.21 355.06) rotate(-45)"/>
  <path class="6fdd609c-585a-4a59-8a88-0188b81dff99" d="M440,48H376V24a23.95,23.95,0,0,0-46.46-8.21L242.57,48H40A40,40,0,0,0,0,88V344a40,40,0,0,0,40,40H197.75l-12,48H128a8,8,0,0,0-8,8,40,40,0,0,0,40,40H320a40,40,0,0,0,40-40,8,8,0,0,0-8-8H294.25l-12-48H440a40,40,0,0,0,40-40V88A40,40,0,0,0,440,48Zm-64,88h8a8,8,0,0,1,8,8v16a8,8,0,0,1-8,8h-8ZM344,24v-.09A8,8,0,0,1,360,24V279.14a9.29,9.29,0,0,1-3.66,7.4,7.38,7.38,0,0,1-.68.46,6.82,6.82,0,0,1-1.38.54,7.36,7.36,0,0,1-1.55.32,8.47,8.47,0,0,1-1.89-.09,7.45,7.45,0,0,1-1.42-.29,8.11,8.11,0,0,1-1.74-.93,4.27,4.27,0,0,1-1.7-1.43,8.64,8.64,0,0,1-1.08-1.6c-.14-.3-.26-.6-.37-.91a7.77,7.77,0,0,1-.51-2.55V24Zm-16,9.39V270.58L144,202.42V101.57ZM288,448h54.63A24,24,0,0,1,320,464H160a24,24,0,0,1-22.63-16H288Zm-85.75-16,12-48h51.5l12,48ZM464,344a24,24,0,0,1-24,24H40a24,24,0,0,1-24-24v-8H464Zm0-24H16V88A24,24,0,0,1,40,64H199.37L134.58,88H72a40,40,0,0,0-40,40v48a40.08,40.08,0,0,0,32,39.19V272a24,24,0,0,0,24,24h16a24,24,0,0,0,24-24V216h6.58l194.85,72.17c.07.17.19.31.25.48a23,23,0,0,0,2.51,4.85c.18.26.41.48.6.72a24,24,0,0,0,3.14,3.46c.2.18.33.42.54.6s.7.44,1,.7a24.82,24.82,0,0,0,2.32,1.57c.62.37,1.24.71,1.88,1a24.24,24.24,0,0,0,2.69,1.06c.64.22,1.27.44,1.91.6a24.69,24.69,0,0,0,3,.49c.67.08,1.32.18,2,.2.23,0,.45.08.7.08.78,0,1.52-.16,2.29-.23.56,0,1.12,0,1.69-.09.17,0,.32-.1.49-.13.55-.1,1.06-.28,1.59-.41a22.43,22.43,0,0,0,2.64-.83,22.89,22.89,0,0,0,2.29-1.09c.43-.23.86-.44,1.27-.69A23.94,23.94,0,0,0,376,280V184h8a24,24,0,0,0,24-24V144a24,24,0,0,0-24-24h-8V64h64a24,24,0,0,1,24,24ZM72,200a24,24,0,0,1-24-24V128a24,24,0,0,1,24-24h56v96H72Zm40,16v56a8,8,0,0,1-8,8H88a8,8,0,0,1-8-8V216Z"/>
</svg>
