<svg id="a7d77edb-5a74-4fa9-a911-6dfb309c035d" data-name="Capa 1" xmlns="http://www.w3.org/2000/svg" width="511.96" height="512" viewBox="0 0 511.96 512">
  <defs>
    <style>
      .a4f217b7-9ffa-4bd0-99e3-b32b7c8e1ae3 {
        fill: #ff7019;
      }
    </style>
  </defs>
  <title>what-we-do__slider-icon--copyright</title>
  <path class="a4f217b7-9ffa-4bd0-99e3-b32b7c8e1ae3" d="M498.79,161.13a45,45,0,0,0-63.64,0L390,206.3V87.43a44.7,44.7,0,0,0-13.18-31.82L334.41,13.18A44.7,44.7,0,0,0,302.59,0H45A45.05,45.05,0,0,0,0,45V467a45.05,45.05,0,0,0,45,45H345a45.05,45.05,0,0,0,45-45V333.63L498.79,224.77A45,45,0,0,0,498.79,161.13ZM300,30c2.83,0,8.29-.49,13.18,4.39l42.43,42.43C360.39,81.58,360,86.8,360,90H300Zm60,437a15,15,0,0,1-15,15H45a15,15,0,0,1-15-15V45A15,15,0,0,1,45,30H270v75a15,15,0,0,0,15,15h75V236.32l-44.26,44.3-21.2,21.2a15,15,0,0,0-3.63,5.86l-21.21,63.64a15,15,0,0,0,19,19l63.64-21.22a15,15,0,0,0,5.86-3.62l1.82-1.82V467ZM326.38,312.43l21.21,21.21-8.1,8.1-31.82,10.61,10.6-31.82Zm42.42,0-21.21-21.21L419.69,219l21.21,21.22ZM477.57,203.56,462.11,219,440.9,197.82l15.46-15.48a15,15,0,1,1,21.21,21.22Z" transform="translate(-0.02)"/>
  <path class="a4f217b7-9ffa-4bd0-99e3-b32b7c8e1ae3" d="M285,150H75a15,15,0,1,0,0,30H285a15,15,0,0,0,0-30Z" transform="translate(-0.02)"/>
  <path class="a4f217b7-9ffa-4bd0-99e3-b32b7c8e1ae3" d="M225,210H75a15,15,0,1,0,0,30H225a15,15,0,0,0,0-30Z" transform="translate(-0.02)"/>
  <path class="a4f217b7-9ffa-4bd0-99e3-b32b7c8e1ae3" d="M225,270H75a15,15,0,1,0,0,30H225a15,15,0,0,0,0-30Z" transform="translate(-0.02)"/>
  <path class="a4f217b7-9ffa-4bd0-99e3-b32b7c8e1ae3" d="M225,330H75a15,15,0,1,0,0,30H225a15,15,0,0,0,0-30Z" transform="translate(-0.02)"/>
  <path class="a4f217b7-9ffa-4bd0-99e3-b32b7c8e1ae3" d="M285,422H195a15,15,0,1,0,0,30h90a15,15,0,0,0,0-30Z" transform="translate(-0.02)"/>
</svg>
