<svg id="218e8739-c404-43ab-a730-873da620079d" data-name="Capa 1" xmlns="http://www.w3.org/2000/svg" width="512" height="471.11" viewBox="0 0 512 471.11">
  <defs>
    <style>
      .\34 7a09b22-2398-4579-907a-eb4eab95814e {
        fill: #ff7019;
      }
    </style>
  </defs>
  <title>what-we-do__slider-icon--audit</title>
  <path class="47a09b22-2398-4579-907a-eb4eab95814e" d="M411.61,56.38H204.44a10,10,0,1,0,0,20H411.61a10,10,0,0,0,0-20Z" transform="translate(0 -20.44)"/>
  <path class="47a09b22-2398-4579-907a-eb4eab95814e" d="M103.23,59.3a10,10,0,1,0,2.93,7.06A10,10,0,0,0,103.23,59.3Z" transform="translate(0 -20.44)"/>
  <path class="47a09b22-2398-4579-907a-eb4eab95814e" d="M66.55,59.3a10,10,0,1,0,2.93,7.06A10,10,0,0,0,66.55,59.3Z" transform="translate(0 -20.44)"/>
  <path class="47a09b22-2398-4579-907a-eb4eab95814e" d="M139.91,59.3a10,10,0,1,0,2.92,7.06A10,10,0,0,0,139.91,59.3Z" transform="translate(0 -20.44)"/>
  <path class="47a09b22-2398-4579-907a-eb4eab95814e" d="M509.08,436.16,430.5,357.59l12.33-12.33h0l12.32-12.32L494,371.73a10,10,0,0,0,14.12-14.11l-45.88-45.88a10,10,0,0,0-14.11,0l-12.34,12.34-6-6A116.83,116.83,0,0,0,255.92,162.19h-192a10,10,0,0,0-10,10V311.89a10,10,0,0,0,10,10H254.39a116.68,116.68,0,0,0,161.3,10.34l6,6-12.34,12.34a10,10,0,0,0,0,14.12l41.82,41.82v43.16a22,22,0,0,1-22,22H41.92a22,22,0,0,1-22-22V112.27H451.15v45a10,10,0,0,0,20,0V62.37a42,42,0,0,0-41.92-41.93H41.92A42,42,0,0,0,0,62.37V449.63a42,42,0,0,0,41.92,41.92H429.19a42,42,0,0,0,41.92-41.92v-23.2L495,450.28a10,10,0,1,0,14.12-14.12ZM223.59,245.89,211,221.59a10,10,0,1,0-17.72,9.18l23.43,45.28a10,10,0,0,0,8.88,5.39,9.85,9.85,0,0,0,4.17-.94,116.79,116.79,0,0,0,9.84,21.41H73.86V182.14H240.59a116.23,116.23,0,0,0-17,60.71C223.55,243.87,223.57,244.88,223.59,245.89Zm116.85,93.88a97,97,0,0,1-96.92-96.92c0-.76,0-1.52,0-2.27l18.37,35.47a10,10,0,0,0,8.86,5.39h.15a10,10,0,0,0,8.85-5.66l21.74-45.28a10,10,0,1,0-18-8.64L270.43,249.1,256.2,221.6a10,10,0,0,0-9-5.39,96.93,96.93,0,1,1,93.2,123.56ZM20,62.37a22,22,0,0,1,22-22H429.19a22,22,0,0,1,22,22V92.31H20Z" transform="translate(0 -20.44)"/>
  <path class="47a09b22-2398-4579-907a-eb4eab95814e" d="M182.48,217.18a10,10,0,0,0-13.32,4.68L156.08,249.1l-14.24-27.51a10,10,0,0,0-17.86.27L110.9,249.1,96.66,221.59a10,10,0,0,0-17.73,9.18l23.43,45.28a10,10,0,0,0,17.86-.27l13.09-27.24,14.23,27.51a10,10,0,0,0,8.87,5.39h.15a10,10,0,0,0,8.85-5.66l21.74-45.28A10,10,0,0,0,182.48,217.18Z" transform="translate(0 -20.44)"/>
  <path class="47a09b22-2398-4579-907a-eb4eab95814e" d="M411.2,217.18a10,10,0,0,0-13.32,4.68L384.8,249.1l-14.24-27.51a10,10,0,0,0-17.86.27L339.62,249.1l-14.24-27.51a10,10,0,0,0-17.73,9.18l23.44,45.28a10,10,0,0,0,8.86,5.39h.15a10,10,0,0,0,8.85-5.66L362,248.54l14.24,27.51a10,10,0,0,0,8.86,5.39h.15a10,10,0,0,0,8.85-5.66l21.74-45.28A10,10,0,0,0,411.2,217.18Z" transform="translate(0 -20.44)"/>
  <path class="47a09b22-2398-4579-907a-eb4eab95814e" d="M70.93,400.66a10,10,0,1,0,2.93,7A10,10,0,0,0,70.93,400.66Z" transform="translate(0 -20.44)"/>
  <path class="47a09b22-2398-4579-907a-eb4eab95814e" d="M292.52,397.74H98.15a10,10,0,0,0,0,20H292.51a10,10,0,0,0,0-20Z" transform="translate(0 -20.44)"/>
  <path class="47a09b22-2398-4579-907a-eb4eab95814e" d="M255.52,349.83H196.63a10,10,0,1,0,0,20h58.89a10,10,0,0,0,0-20Z" transform="translate(0 -20.44)"/>
  <path class="47a09b22-2398-4579-907a-eb4eab95814e" d="M151.8,349.83H63.88a10,10,0,1,0,0,20H151.8a10,10,0,1,0,0-20Z" transform="translate(0 -20.44)"/>
</svg>
