<svg xmlns="http://www.w3.org/2000/svg" xmlns:xlink="http://www.w3.org/1999/xlink" width="234" height="55" viewBox="0 0 234 55">
    <defs>
        <path id="prefix__a" d="M0 0L233.248 0 233.248 54.435 0 54.435z"/>
    </defs>
    <g fill="none" fill-rule="evenodd">
        <mask id="prefix__b" fill="#fff">
            <use xlink:href="#prefix__a"/>
        </mask>
        <path fill="#FFF" d="M195.206 38.92c-1.536.34-2.507 1.141-2.356 2.8.135 1.475 1.162 2.306 2.495 2.22 1.493-.098 2.444-1.068 2.312-2.744-.12-1.535-1.176-2.04-2.45-2.276m19.608-14.762c-2.295-1.842-5.123 1.331-7.766-.355-.698-.445-1.332.539-1.398 1.443-.017.224-.074.445-.106.668l-2.512 17.323c-.013.118-.182 1.206 1.357 1.29 1.155.062 1.915-.344 2.08-1.656.437-3.467 1.1-6.913 1.394-10.39.297-3.505 1.306-6.06 5.428-6.087 1.45-.009 2.334-1.586 1.523-2.236m-98.071-7.79c-.126-1.147-1.092-.893-1.847-.906-2.85-.046-5.634 2.945-8.162.2-2.498-.127-2.608 1.403-2.815 2.911-1.02 7.38-2.073 14.755-3.093 22.134-.19 1.373-.995 3.065 1.448 3.312 1.991.202 2.797-.713 3.026-2.688.493-4.258 1.579-8.48 1.728-12.74.194-5.548 1.74-9.4 8.089-9.418.22 0 .464-.047.658-.147 1.13-.58 1.078-1.655.968-2.657m115.083 7.354c-2.014-.193-2.067 1.286-2.251 2.64-.515 3.8-1.001 7.605-1.533 11.402-.394 2.822-2.89 4.408-6.205 4.01-3.043-.368-3.068-2.503-2.769-4.776.47-3.579 1.033-7.146 1.468-10.728.118-.98.769-2.377-1.144-2.544-1.419-.123-1.991.52-2.165 1.917-.53 4.254-1.171 8.494-1.69 12.169-.209 5.267 2.6 7.683 7.318 6.837 1.87-.336 3.532-1.445 5.663-.227 1.314.75 2.084-.678 2.27-2.103.689-5.257 1.474-10.502 2.102-15.765.118-.983 1.19-2.617-1.064-2.832M47.791 16.02c-2.03-.11-2.408 1.162-2.623 2.745-.787 5.814-1.617 11.62-2.412 17.431-.153 1.118-.073 2.412-1.306 2.925-2.925 1.217-6.012 2.645-9.087.943-3.054-1.691-1.844-4.81-1.58-7.377.472-4.597 1.264-9.161 1.853-13.747.144-1.122.778-2.641-1.239-2.86-1.591-.172-2.835.045-3.102 2.108-.778 6.04-1.701 12.06-2.405 16.962-.138 7.14 3.22 10.217 9.14 9.45 1.33-.172 2.636-.598 3.927-.99 1.214-.37 2.107-1.057 3.507.293.886.854 3.444 1.275 3.834-1.42 1.177-8.148 2.282-16.309 3.432-24.462.22-1.557-.58-1.927-1.94-2m106.644-.632c-2.048.085-4.01.545-5.9 1.38-.489.216-.94.76-1.743.229-3.47-2.3-4.341-1.853-4.879 2.165-.958 7.167-1.977 14.326-2.967 21.49-.19 1.366-1.115 3.045 1.333 3.358 2.242.286 2.857-.917 3.108-2.958.686-5.606 1.579-11.187 2.415-16.773.525-3.5 4.218-5.572 8.656-4.895 3.106.474 4.106 2.275 3.524 6.437-.721 5.147-1.457 10.292-2.215 15.433-.191 1.302-.445 2.582 1.436 2.747 1.46.128 2.762-.047 3.015-1.885.845-6.156 1.694-12.313 2.433-17.674.203-6.416-2.653-9.284-8.216-9.054m-23.259.148c-1.445-.194-2.917-.196-3.773-.249-2.415.231-4.22.349-6.007.592-1.517.206-2.115 1.263-1.887 2.682.252 1.566 1.54.986 2.45.94 2.809-.141 5.609-.778 8.421-.027 2.794.746 2.66 2.92 2.625 5.144-.04 2.458-1.578 2.526-3.423 2.479-3.284-.086-6.57 0-9.604 1.519-3.463 1.733-5.044 5.265-4.67 10.083.209 2.693 1.562 4.494 4.108 5.184 2.436.659 4.884.377 7.338-.337 1.585-.46 2.056-1.581 1.78-2.78-.34-1.483-1.663-.562-2.516-.437-4.09.601-5.808-.11-6.186-2.694-.56-3.832 1.353-6.595 5.03-7.057 1.675-.21 3.386-.103 5.074-.228 1.758-.13 2.107.712 1.875 2.258-.434 2.9-.731 5.823-1.156 8.725-.2 1.358-.3 2.543 1.535 2.683 1.54.117 2.653-.302 2.883-2.07.817-6.266 1.851-12.51 2.442-18.799.422-4.49-1.905-7.015-6.339-7.61m-55.245.736c-1.21-.362-2.759-.658-3.728.707-.447.63-.66 1.43-.957 2.16-2.593 6.383-5.168 12.772-7.788 19.143-.31.753-.354 2.01-1.65 1.73-1.032-.224-.722-1.289-.82-2.005-.888-6.494-1.839-12.982-2.533-19.498-.24-2.257-1.37-2.508-3.158-2.4-2.266.136-1.69 1.718-1.507 2.972 1.043 7.156 2.156 14.302 3.217 21.454.187 1.261.333 2.866 1.531 3.209 3.308.948 1.662 2.74.907 4.291-1.221 2.514-3.513 2.8-6.038 2.83-1.6.02-4.406-1.883-4.52 1.434-.114 3.335 3.08 1.408 4.393 2.132 5.691.03 8.107-1.337 10.32-6.384 4.264-9.722 8.355-19.52 12.468-29.306.324-.772 1.52-1.973-.137-2.47m-60.357-.64c-2.248-.244-5.362 1.502-6.492-.56-.935-1.705.228-4.574.498-6.923.194-1.68.386-3.365.7-5.025.226-1.202-.071-2.194-.773-3.126H7.47c-.848.865-1.536 1.739-1.703 3.066-.65 5.148-1.394 10.285-2.188 15.412-.242 1.568.283 2.034 1.787 1.888 2.805-.271 5.618-.605 8.43-.629 3.889-.031 5.772 1.705 5.735 5.505-.037 3.714-.45 7.452-1.83 10.957-1.522 3.867-7.946 6.178-11.573 4.297-1.287-.669-.763-1.786-.64-2.69.56-4.135 1.286-8.249 1.813-12.388.127-.999 1.094-2.74-1.093-2.797-1.55-.042-3.151.055-3.43 2.323-.577 4.7-1.34 9.38-2.037 14.066-.093.633.069 1.395-.74 1.73v2.717c3.399.925 6.876 1.278 10.379 1.266 5.755-.022 9.637-2.663 11.693-8.048 1.545-4.05 2.166-8.322 1.895-12.629-.333-5.292-3.18-7.846-8.394-8.412M190.123 0h-2.036c-2.045 3.066-1.656 6.71-2.348 10.09-1.13 5.518-1.042 5.537-6.557 5.567-6.156.034-10.074 2.608-12.182 8.36-1.485 4.05-2.217 8.298-1.967 12.633.246 4.28 2.56 6.894 6.716 7.77 3.965.835 7.872-.04 11.78-.548 1.367-.176 1.666-1.263 1.843-2.48.779-5.362 1.539-10.73 2.488-16.062.322-1.81-.238-2.416-1.915-2.677-1.747-.27-2.43.32-2.65 2.072-.51 4.03-1.533 8.02-1.73 12.057-.17 3.458-1.81 4.207-4.717 3.932-.673-.064-1.358.026-2.034-.016-3.63-.225-5.12-1.685-5.205-5.279-.084-3.527.46-6.997 1.533-10.346 1.2-3.75 3.375-5.357 7.28-5.338 2.476.013 4.96.265 7.42.574 1.832.232 2.882.04 3.163-2.207.63-5.037 1.515-10.046 2.435-15.04.271-1.463-.398-2.25-1.316-3.062m-91.74 29.636c-.145 1.23-.392 2.452-.641 3.667-1.68 8.176-6.227 11.718-14.592 11.385-8.446-.337-8.438-.336-7.225-8.648.522-3.572 1.18-7.139 1.432-10.732.174-2.484 1.771-2.708 3.453-2.667 2.484.06 1.232 2.006 1.11 3.043-.462 3.919-1.1 7.82-1.773 11.71-.383 2.218.118 3.238 2.664 3.334 6.893.26 9.178-1.36 10.56-8.1.204-.992.293-2.008.409-3.016 1.017-8.878-.626-10.594-9.388-9.813-6.353.565-6.36.564-5.522-5.692.45-3.355.907-6.709 1.406-10.057.227-1.519.372-3.112 1.884-4.05h1.358c1.375.71 1.661 1.816 1.425 3.294-.532 3.341-.93 6.704-1.403 10.055-.236 1.669-.199 2.636 2.145 2.515 11.046-.57 14 2.72 12.698 13.772" mask="url(#prefix__b)"/>
    </g>
</svg>
