<svg xmlns="http://www.w3.org/2000/svg" xmlns:xlink="http://www.w3.org/1999/xlink" width="112" height="102" viewBox="0 0 112 102">
    <defs>
        <path id="prefix__a" d="M0 0L111.346 0 111.346 101.329 0 101.329z"/>
    </defs>
    <g fill="none" fill-rule="evenodd">
        <mask id="prefix__b" fill="#fff">
            <use xlink:href="#prefix__a"/>
        </mask>
        <path fill="#FEFEFE" d="M109.42 69.768c.043.347.002.74-.124 1.178-.205.715-.516 1.208-.933 1.48-.418.27-.89.34-1.419.209l.28-1.165c.307.035.547-.01.722-.136.175-.125.308-.35.401-.673.096-.335.103-.616.02-.844-.054-.147-.154-.242-.302-.284-.134-.039-.266-.015-.394.071-.164.11-.392.426-.685.948-.292.522-.548.896-.766 1.124-.218.228-.471.382-.76.463-.288.082-.612.07-.972-.033-.327-.093-.606-.272-.839-.535-.233-.263-.371-.58-.415-.952-.043-.371.006-.804.148-1.299.207-.72.532-1.225.976-1.516.443-.29.995-.382 1.653-.274l-.212 1.15c-.395-.04-.71.018-.945.173s-.403.408-.504.758c-.106.37-.108.672-.005.904.103.233.26.38.47.44.134.038.26.032.377-.02.117-.052.239-.166.365-.343.086-.121.257-.404.513-.85.33-.572.642-.951.936-1.136.414-.26.847-.325 1.297-.195.29.083.538.243.743.48.206.237.33.529.373.877zm-4.377-7.764l5.84 1.006-.745 4.33-.989-.17.543-3.15-1.294-.224-.506 2.932-.984-.17.505-2.931-1.59-.274-.562 3.263-.984-.17.766-4.442zm.188-2.222l5.901.554-.112 1.192-5.9-.554.111-1.192zm5.09-4.03c-.005.488-.028.815-.068.982-.051.223-.147.406-.286.55-.139.144-.332.255-.578.333-.246.077-.598.113-1.057.108-.458-.006-.819-.05-1.083-.135-.265-.084-.454-.19-.569-.32-.114-.13-.194-.292-.24-.486-.036-.15-.052-.39-.048-.725l.011-.893 3.926.049-.007.537zm-4.902-1.795l-.027 2.252c-.006.442.031.795.112 1.06.109.355.263.637.463.847.263.278.61.494 1.039.648.351.125.77.191 1.259.197.555.007 1.022-.052 1.403-.177.38-.124.702-.31.967-.554.264-.245.45-.54.557-.887.078-.257.12-.633.127-1.126l.027-2.187-5.927-.073zm2.204-6.078l3.144-.33.125 1.19-3.193.335c-.506.053-.833.102-.98.148-.236.076-.417.217-.543.425-.126.206-.171.476-.137.808.036.338.132.586.287.743.156.157.337.242.541.256.205.014.54-.004 1.007-.053l3.26-.342.126 1.19-3.096.325c-.708.074-1.211.094-1.51.06-.299-.033-.558-.125-.777-.277-.22-.152-.404-.367-.553-.644-.15-.277-.25-.648-.298-1.115-.06-.563-.039-.996.06-1.3.1-.305.245-.553.435-.744.19-.19.396-.324.618-.402.33-.113.824-.204 1.484-.273zm.973-5.965l.98-.21.99 4.604-.98.21-.368-1.715-4.814 1.036-.252-1.17 4.814-1.036-.37-1.719zm-5.157-.45c-.244-.283-.445-.67-.605-1.159-.231-.712-.245-1.313-.04-1.802.205-.49.61-.874 1.217-1.153l.468 1.072c-.35.188-.579.412-.687.672-.108.26-.105.564.007.91.12.366.287.617.503.752.215.136.426.17.634.102.133-.043.234-.12.302-.228.068-.109.105-.272.111-.489.003-.148-.014-.478-.05-.991-.048-.66-.002-1.148.139-1.465.197-.447.52-.743.965-.888.287-.094.582-.1.885-.019.303.082.57.254.8.518.23.264.416.612.557 1.045.23.707.248 1.29.055 1.75-.194.457-.547.78-1.059.966l-.42-1.121c.274-.143.448-.316.522-.517.075-.201.06-.462-.044-.783-.107-.33-.26-.567-.457-.71-.126-.092-.262-.114-.408-.067-.133.044-.23.137-.287.28-.074.184-.086.573-.036 1.169.05.596.047 1.05-.006 1.36-.053.311-.177.58-.37.81-.194.228-.468.4-.824.517-.324.105-.655.113-.996.026-.34-.088-.632-.273-.876-.556zm.848-10.728l-.784-1.574.897-.448 2.101 4.215-.897.448-.783-1.57-4.406 2.197-.534-1.071 4.406-2.197zm-4.185-5.993c.255-.162.539-.241.853-.238.313.004.614.104.903.303.289.197.555.489.8.873.399.628.561 1.188.488 1.68-.074.493-.336.893-.785 1.2l-.686-.981c.23-.207.355-.417.378-.63.022-.214-.057-.463-.238-.748-.186-.293-.393-.485-.618-.574-.146-.058-.284-.046-.413.037-.118.075-.188.19-.208.343-.027.195.059.575.255 1.14.196.566.307 1.005.333 1.32.025.314-.027.606-.157.875-.131.27-.354.505-.67.706-.287.182-.606.273-.958.273-.351 0-.68-.107-.987-.321-.306-.214-.598-.538-.874-.973-.402-.632-.564-1.21-.487-1.735.077-.525.374-.998.892-1.42l.72.922c-.293.269-.459.543-.498.822-.04.28.037.572.233.88.206.325.43.526.673.604.243.077.456.057.64-.06.118-.075.197-.174.236-.296.04-.122.034-.289-.014-.5-.034-.145-.133-.46-.296-.948-.21-.627-.286-1.112-.229-1.454.08-.482.318-.85.714-1.1zm-4.998.644l4.743-3.552.717.957-4.743 3.553-.717-.958zm-2.04-4.645c.053-.462.33-.916.83-1.363.508-.454.99-.682 1.443-.682.453 0 .844.184 1.172.552.329.368.467.774.417 1.219-.051.445-.33.893-.837 1.346-.512.457-.999.687-1.459.687-.46 0-.849-.177-1.167-.533-.317-.355-.45-.764-.398-1.226zm-1.159-.194c-.055.745.211 1.447.798 2.105.58.649 1.245.988 1.994 1.016.75.028 1.481-.277 2.195-.914.72-.642 1.107-1.34 1.162-2.092.055-.751-.208-1.453-.79-2.104-.321-.36-.663-.626-1.026-.797-.271-.13-.574-.202-.908-.216-.334-.014-.659.029-.973.13-.427.138-.865.408-1.315.81-.704.628-1.083 1.315-1.137 2.062zm-.475-5.68l-.835 2.192-1.217-1.066 2.052-1.126zm-4.242 2.324l1.256-.69 1.781 1.562-.498 1.354.979.858 2.122-6.021-.952-.835-5.642 2.936.954.836zm-2.921-2.18l2.874-3.997-1.427-1.027.585-.814 3.824 2.75-.586.814-1.424-1.024-2.875 3.997-.971-.698zm-3.46-2.275l-3.693-1.942 2.736-5.203 1.06.557-2.272 4.32 2.633 1.384-.465.884zm-5.274-7.548l-.05 2.346-1.504-.595 1.554-1.75zm-3.214 3.615l.95-1.072 2.203.873-.015 1.442 1.21.48-.023-6.385-1.177-.466-4.328 4.66 1.18.468zm-5.145-1.511L66.1 7.007l1.52-5.728 1.126.299 1.329 4.448 1.016-3.825 1.074.285-1.521 5.728-1.16-.308-1.318-4.349-.992 3.736zM61.28 3.266c.094-.675.313-1.16.658-1.453.345-.294.762-.407 1.251-.34.488.068.857.288 1.107.659.249.372.327.895.234 1.567-.094.681-.316 1.17-.666 1.47-.35.298-.762.414-1.234.349s-.838-.29-1.098-.676c-.26-.386-.343-.91-.252-1.576zm1.214 3.266c.863.119 1.588-.053 2.178-.518.589-.464.949-1.17 1.08-2.118.132-.955-.025-1.737-.47-2.346-.445-.608-1.1-.972-1.965-1.091-.478-.067-.91-.048-1.298.057-.29.077-.568.218-.832.424-.263.205-.483.448-.657.73-.235.38-.394.87-.477 1.468-.129.934.027 1.703.47 2.307.441.604 1.098.966 1.971 1.087zm-3.628-.472l-1.195-.061.303-5.92 1.195.062-.303 5.919zM52.23 1.1L52.21.098 56.919 0l.02 1.002-1.754.037.102 4.923-1.196.025-.102-4.924-1.758.037zm-1.7 5.131L49.984.33l1.192-.111.548 5.901-1.191.111zm-4.907-4.257c.48-.084.806-.122.977-.114.23.01.427.07.594.18.167.11.311.28.434.507.121.227.222.567.3 1.018.08.451.103.815.069 1.09-.034.275-.104.481-.21.617-.106.137-.25.245-.434.327-.139.063-.374.123-.703.18l-.88.154-.677-3.866.53-.093zm1.359 4.761c.435-.076.776-.178 1.022-.306.328-.173.577-.376.747-.611.224-.31.372-.69.444-1.14.058-.37.046-.794-.038-1.275-.096-.547-.24-.995-.433-1.346-.193-.35-.434-.634-.723-.848-.29-.215-.614-.343-.974-.384-.268-.03-.645-.002-1.131.083l-2.154.378 1.022 5.837 2.218-.388zM32.964 5.97l.858-.369c.446-.191.716-.3.81-.326.192-.047.36-.035.507.036.146.07.258.197.337.38.07.164.092.316.064.457-.027.14-.097.262-.209.363-.112.1-.432.265-.96.491l-.813.35-.594-1.382zm7.145-2.263l1.41 1.874-1.55.462.14-2.336zm-5.2 6.787l-.977-2.273.223-.096c.253-.108.445-.167.58-.176.134-.01.276.018.427.084.152.066.46.25.924.551l1.304.843 1.282-.55 1.146-.342.084-1.43 2.27-.677.881 1.143 1.248-.372-3.967-5.002-1.213.361-.511 6.238-1.027-.71c-.444-.31-.78-.516-1.005-.615-.227-.1-.488-.167-.785-.204.448-.275.735-.597.86-.966.126-.37.101-.759-.074-1.167-.139-.322-.341-.574-.607-.756-.266-.182-.552-.265-.858-.25-.306.016-.75.149-1.331.399l-2.314.995 2.34 5.445 1.1-.473zm-8.184-1.221l-.492-.874 4.101-2.314.493.873-1.528.862 2.42 4.289-1.043.588-2.42-4.289-1.53.865zm-3.004 8.256l-3.625-4.69 3.215-2.484.613.793-2.268 1.753.858 1.11 1.958-1.513.613.793-1.958 1.513 1.54 1.993-.946.732zm-6.179-1.113c.354-.344.754-.5 1.2-.467.447.031.907.291 1.38.778.479.493.729.97.749 1.429.02.46-.14.855-.483 1.188-.342.332-.745.483-1.208.45-.464-.032-.93-.289-1.398-.77-.475-.489-.722-.96-.742-1.413-.019-.453.148-.851.502-1.195zm-.616 3.497c.658.676 1.36 1.026 2.108 1.048.748.023 1.438-.272 2.07-.887.624-.606.934-1.285.93-2.035-.003-.75-.338-1.468-1.006-2.154-.672-.692-1.385-1.05-2.138-1.072-.754-.023-1.444.27-2.07.878-.346.336-.596.69-.752 1.059-.118.277-.178.582-.178.916 0 .335.057.657.171.968.156.42.445.846.865 1.279zm-4.79 5.275l-1.214-.889.552-.753c.287-.392.464-.622.532-.693.141-.137.293-.212.454-.226.162-.013.324.04.485.157.143.105.239.225.287.36.048.136.049.275.003.42-.045.143-.237.447-.576.91l-.524.714zm2.758 2.021L12.9 25.747l.143-.195c.162-.222.299-.371.41-.447.11-.076.248-.124.411-.145.164-.02.522-.018 1.076.007l1.552.064.845-1.154-1.36-.1c-.54-.042-.934-.048-1.179-.02-.245.03-.505.104-.78.224.247-.464.33-.887.251-1.27-.079-.382-.298-.704-.657-.967-.282-.207-.584-.322-.906-.343-.321-.022-.61.051-.865.22-.256.169-.57.509-.945 1.02l-1.489 2.031 4.781 3.503.707-.966zm-3.431 5.604L6.335 29.84l2.204-3.802.867.503-1.604 2.766 1.137.66 1.492-2.575.864.5-1.492 2.575 1.396.809 1.66-2.865.864.5-2.26 3.9zm-6.696 2.85l-.916-.407 1.916-4.302.916.407-.713 1.603 4.498 2.003-.487 1.093-4.498-2.003-.716 1.607zm-1.39.84l5.642 1.814-.367 1.143-4.41 1.093 3.679 1.181-.34 1.059-5.643-1.813.356-1.108 4.51-1.1-3.768-1.21.34-1.058zm3.102 11.55L.667 46.89l.863-4.309.983.197-.628 3.135 1.288.258.585-2.917.979.196-.584 2.917 1.581.317.65-3.246.98.195-.885 4.42zM.772 52.856c-.5-.554-.716-1.244-.646-2.071.06-.723.324-1.291.79-1.706.275-.247.654-.418 1.138-.513l.182 1.205c-.312.044-.566.169-.762.375-.196.207-.307.469-.334.786-.037.437.09.806.381 1.105.291.299.789.478 1.492.538.747.063 1.29-.026 1.63-.268.34-.242.527-.577.564-1.007.026-.317-.051-.598-.233-.843-.183-.246-.486-.436-.91-.572l.465-1.125c.63.231 1.083.567 1.361 1.005.278.439.39.975.337 1.61-.067.783-.389 1.405-.968 1.865-.578.46-1.332.65-2.261.571-.983-.083-1.725-.402-2.226-.955zm5.461 8.592l-5.91.434L0 57.5l1-.074.235 3.19 1.31-.097-.218-2.968.996-.073.218 2.967 1.609-.118-.243-3.302.996-.073.33 4.496zm1.003 5.728L1.41 68.268l-.221-1.176 2.293-.43-.433-2.304-2.292.43-.22-1.176 5.824-1.093.22 1.176-2.546.478.432 2.304L7.015 66l.22 1.176zm1.002 3.434l-4.715 1.422.508 1.683-.96.29-1.36-4.51.96-.29.506 1.68 4.715-1.42.346 1.145zm39.6-9.988c0-.972.788-1.76 1.76-1.76.084 0 .166.007.247.018.081.005.163.023.246.052.733.213 1.269.889 1.269 1.69 0 .973-.789 1.761-1.762 1.761-.972 0-1.76-.788-1.76-1.76zm28.677-4.31c-.396-.25-.733-.594-1.088-.909l.09-.243c.515-.05 1.03-.132 1.545-.138.356-.004.404.218.196.492-.034.045-.074.086-.112.127-.218.236-.58.702-.63.67zM73.07 35.695c-.213.442-.385.866-.628 1.244-.049.077-.445.055-.547-.051-.299-.308-.543-.674-.775-1.039-.045-.069.06-.34.105-.343.545-.03 1.092-.037 1.638-.026.07.002.138.14.207.215zm-2.692-1.02c-.055.014-.128-.052-.213-.09.234-.453.401-.875.66-1.231.097-.134.435-.208.608-.149.351.12.678.331.984.549.076.054.068.394.043.401-.689.192-1.385.36-2.082.52zm-1.363 13.698c-.235-.27-.543-.479-.768-.756-.11-.136-.109-.364-.156-.544.849.247 1.572.451 2.289.672.144.045.267.155.4.235-.115.128-.224.262-.349.38-.067.062-.172.083-.243.143-.625.52-.615.513-1.173-.13zm.25-6.555c.542-.358 1-.898 1.474-.913.591-.019 1.195.396 1.804.627-.354.622-2.05.772-3.277.286zm2.158 10.07c-.2-.222-.428-.435-.564-.693-.09-.172-.13-.485-.032-.615.14-.187.425-.265.648-.39l.057.092c.3.038.6.07.898.116.414.065.528.35.272.675-.22.277-.456.542-.672.824-.214.278-.414.206-.607-.009zm-.56.938c-.04.055-.095.185-.192.252-.28.192-.562.392-.872.519-.137.056-.387-.005-.508-.106-.23-.19-.433-.429-.58-.685-.05-.087.06-.373.165-.423.39-.186.804-.325 1.217-.453.358-.11.764.338.77.896zm2.902 12.64c.004.198.056.408.005.589-.142.501-.454.83-1.088.81-.608.001-.991-.453-1.337-.936-.066-.091 0-.278.005-.42.121.004.257-.025.36.02.5.22.975.247 1.473-.033.152-.085.386-.023.582-.03zm-11.457-5.858c-.2.39-.415.772-.625 1.156l-.2-.024c-.37-.734-.754-1.46-1.102-2.205-.142-.304.124-.505.333-.37.556.358 1.056.805 1.57 1.227.041.034.053.16.024.216zm-4.239-6.126c.043-.396.398-.761.636-1.13.022-.034.16-.03.213.003.433.265.891.503 1.275.828.28.237.278.535-.183.643-.35.081-.694.181-1.041.273l-.116.103c-.28-.242-.807-.51-.784-.72zm21.11 8.61c-.208.477-.387.89-.572 1.302-.021.046-.103.115-.122.106-.403-.201-.816-.39-1.19-.637-.09-.059-.047-.321-.057-.49-.003-.033.032-.068.047-.102.46-1.033.463-1.04 1.534-.556.139.062.229.235.36.376zm-6.174-8.784c-.203-.416-.343-.863-.533-1.372.571-.178 1.12-.37 1.683-.508.14-.035.464.109.465.174.005.343.04.762-.138 1.012-.239.336-.647.566-1.014.79-.104.064-.419-.004-.463-.096zm3.133 12.172c.033.048-.176.341-.327.425-.413.23-.846.433-1.288.603-.379.146-.538.02-.54-.345.21-.527.418-1.054.63-1.58.02-.05.058-.123.1-.133.17-.04.43-.145.506-.071.341.334.646.71.92 1.1zM60.663 54.232l.019-.112 1.056.232c-.131.317-.234.649-.4.947-.487.88-.991.903-1.602.093-.068-.09-.149-.174-.205-.272-.104-.18-.32-.47-.267-.536.136-.17.383-.29.605-.34.254-.055.529-.012.794-.012zm10.016-5.165c.055-.076.115-.151.16-.234.414-.757.496-.786 1.28-.412.253.12.513.237.744.393.12.081.185.245.242.325-.048.29-.052.508-.128.696-.044.108-.222.254-.31.237-.59-.117-1.167-.288-1.754-.413-.407-.087-.463-.273-.234-.592zm-1.74-12.184c.2-.465.462-.904.696-1.356.201-.387.485-.362.725-.09.392.445.739.931 1.22 1.549-.94.127-1.682.238-2.426.307-.064.006-.257-.315-.216-.41zM58.037 56.25c-.35-.186-.711-.352-1.043-.566-.134-.086-.319-.328-.282-.41.231-.51.513-.997.81-1.473.009-.015.398.144.545.288 1.165 1.153.918.884-.03 2.16zm2.768 1.24c-.344.167-.695.532-1.006.497-.283-.033-.51-.496-.777-.753-.427-.412-.301-1.351.23-1.636.047-.025.104-.035.202-.068l.43.41c.321.312.627.64.965.93.291.25.35.428-.044.62zm15.09.264c.473-.974.7-1.117 1.645-1.013.135.015.38.128.374.17-.06.477-.117.964-.276 1.413-.05.14-.396.192-.617.249-.142.036-.3.006-.451.006v.017c-.02.002-.038.006-.057.005l-.944-.089c.108-.253.207-.511.327-.758zm-14.52-1.191c.327-.653.678-1.296 1.045-1.928.042-.07.206-.07.413-.133.112.092.287.191.396.338.158.212.265.46.399.69.297.512.215.77-.366.954-.487.153-.99.274-1.493.354-.12.018-.407-.25-.395-.275zm-5.602-4.708c.417-.441.798-.919 1.235-1.337.115-.11.487-.15.562-.065.312.354.555.767.823 1.159l.246-.198c-.29.433-.57.873-.88 1.292-.06.082-.246.13-.355.107-.502-.107-1-.231-1.492-.376-.346-.103-.409-.298-.139-.582zm1.227 1.992c-.201.298-.351.63-.556.925-.105.15-.28.253-.367.329-.67-.149-1.229-.25-1.77-.413-.095-.028-.204-.345-.153-.462.189-.433.415-.856.686-1.242.093-.131.367-.21.545-.19.452.048.9.15 1.34.261.473.12.546.39.275.792zm15.59-19.201c.409-.886.965-1.008 1.6-.304.374.415.699.882.996 1.357.335.534.241.797-.307 1.107-.082.047-.164.106-.254.126-.409.092-.82.171-1.231.255-.014-.427-.071-.86-.02-1.28.02-.162.27-.312.44-.435.136-.098.309-.147.466-.218l-.064-.194c-.425.039-.849.081-1.274.115-.444.035-.542-.115-.351-.529zm-7 23.562c.39.187.766.418 1.103.688.094.076.11.403.027.518-.38.525-.806 1.016-1.233 1.54-.507-.377-1.057-.778-1.6-1.188-.478-.361-.453-.565.074-.87.36-.208.696-.461 1.067-.648.159-.08.412-.112.562-.04zm14.037.985c-.047.054-.06.209-.019.256.538.619-.043 1.239-.012 1.857.003.067-.404.247-.587.21-.327-.067-.643-.234-.936-.405-.339-.197-.412-.486-.131-.8.3-.337.61-.665.93-1.014-.072-.087-.116-.19-.19-.223-.354-.158-.603-.324-.506-.806.125-.616.282-1.197.867-1.517.312-.172.59.013.656.331.147.702.526 1.425-.072 2.111zm-14.953-3.508c.324-.544.492-.6.923-.145.356.375.617.838 1.009 1.387-.31.202-.506.428-.732.462-.637.096-1.285.136-1.93.155-.45.014-.691.166-.776.637-.056.308-.251.59-.384.884-.268-.195-.546-.378-.801-.59-.691-.573-.874-.893.307-1.209.146-.04.293-.15.43-.137 1.094.107 1.506-.69 1.954-1.444zm10.447-18.668c.151-.076.435-.16.492-.094.117.132.172.367.16.554-.052.81-.317 1.43-1.124 1.88-.543.303-.871.992-1.29 1.513-.193.242-1.429.322-1.623.096-.024-.028-.039-.065-.053-.1-.168-.398.618-1.416 1.048-1.39.4.026.802.006 1.202.006l.052-.308c-.27-.085-.553-.141-.805-.264-.22-.107-.406-.29-.607-.438.198-.143.383-.309.595-.426.645-.355 1.295-.7 1.953-1.029zm-6.373 4.91c-.167.27-1.4.265-1.609.012-.074-.09-.084-.282-.047-.404.06-.197.228-.363.274-.56.169-.733.575-1.067 1.347-.923.663.124.674-.426.874-.876l-.638.404c-.093-.638-.21-1.19-.23-1.745-.006-.143.285-.42.447-.426 1.003-.037 2.009-.024 3.013-.004.38.008.443.308.318.572-.178.375-.415.729-.666 1.061-.2.263-.422.231-.564-.085-.086-.19-.137-.402-.252-.572-.097-.143-.27-.34-.399-.331-.157.01-.303.208-.579.423.897.099.959.775 1.25 1.26.036.06.067.194.042.213-.405.293-.806.6-1.245.832-.087.046-.333-.208-.506-.323l-.264-.177c.345.835-.274 1.176-.566 1.649zm4.577 8.052c.175-.86.593-1.053 1.24-.453.773.716 1.487 1.508 2.146 2.33.687.859 1.308 1.774 1.9 2.702.269.422.419.927.58 1.408.117.346-.02.543-.425.52-.38-.022-.761.005-1.141-.006-.305-.009-.437-.161-.259-.444.182-.288.403-.551.595-.833.263-.385.161-.61-.301-.64-.245-.016-.496.046-.74.024-.152-.014-.345-.082-.427-.193-.056-.076.016-.287.083-.408.337-.6.193-.87-.494-.883-.153-.003-.305-.001-.457.003-.355.01-.481-.18-.438-.506.038-.283.105-.562.13-.846.057-.628-.012-.687-.654-.622-.114.012-.228.018-.262.021-1.305.055-1.323.035-1.076-1.174zm-7.82-.172c-.014-.158-.118-.307-.227-.571.267.013.44.013.61.032.434.047.867.102 1.3.155.133.015.318-.018.387.057.585.63 1.31.342 1.991.329.152-.003.315-.053.454-.013.23.065.445.184.665.281-.13.207-.235.44-.4.616-.346.372-.718.723-1.094 1.067-.117.107-.278.165-.42.245-.074-.137-.194-.266-.215-.41-.187-1.265-.182-1.268-1.46-1.036-.199.036-.393.1-.672.173.545.402 1.132-.311 1.518.279.317.485.32.966-.11 1.323.368.562.715 1.089 1.059 1.617.447.687 1.406.688 1.852-.014.213-.337.368-.711.58-1.048.38-.6.662-.6 1.036.009.168.272.276.582.409.875.182.4-.034.524-.384.536-.434.014-.87-.012-1.302.028-.45.041-.64.312-.492.758.131.395-.07.57-.405.67-.11.032-.222.053-.334.074-.96.18-1.084.125-1.205-.853-.06-.488-.25-.63-.695-.564-.169.026-.347-.006-.513.028-.557.113-.87-.06-1.03-.647-.19-.694-.15-.867.522-1.089.062-.02.118-.063.213-.115-.939-.217-1.032-.223-.974-1.085.05-.724-.608-1.077-.664-1.707zm6.507 15.03c-.32-.009-.647.015-.96-.042-.248-.045-.477-.192-.715-.294-.125-.053-.273-.18-.37-.15-.37.12-.725.292-1.086.444l.002.167c.131.057.262.116.395.172.478.2.578.63.152.904-.337.216-.764.307-1.164.393-.073.016-.288-.255-.295-.4-.01-.193.116-.394.192-.59.14-.359.13-.648-.147-.99-.223-.275-.278-.694-.378-1.058-.085-.308-.222-.456-.576-.505-.81-.112-1.64-.142-2.358-.685-.251-.19-.735-.084-1.112-.093-.527-.011-1.054-.002-1.616-.002.12-.676.171-1.339.369-1.955.122-.38.467-.18.702-.002.574.433 1.156.858 1.71 1.316.478.395.794.255 1.126-.2.177-.24.463-.401.699-.598.115.274.236.546.343.823.11.284.19.58.314.857.056.125.18.305.283.313 1.073.079 1.668 1.018 2.61 1.374-.012.007.047-.014.046-.032-.045-.995.628-1.199 1.413-1.308.45-.063.534.034.407.491-.082.294-.107.603-.157.905l.26.062c.188-.502.388-1 .563-1.506.154-.446.323-.512.68-.231.326.257.675.49.975.775.213.202.597.374.358.789-.236.408-.433.883-1.01.891-.552.008-1.103-.021-1.655-.035zm3.202-3.152l-.058-1.192.245-.05.348.639c-.208.233-.373.417-.535.603zm2.746 2.08c-.401-.335-.829-.925-1.523-.486-.028.017-.098-.033-.175-.062.102-.726 1.309-1.09.8-1.852.144-.757.271-1.351.359-1.951.016-.111-.11-.34-.196-.352-.462-.068-.944-.157-1.39-.074-.129.024-.157.588-.235.903-.009.035-.036.065-.021.04l-2.1.128.616-1.951c.295.125.478.24.676.278.238.046 1.34-1.48 1.266-1.724-.217-.719-1.21-.993-1.747-.482l-.36.346.271-1.266c.367-.097.786-.107 1.066-.309.319-.229.548-.61.743-.966.066-.118-.076-.512-.15-.52-.513-.052-1.166-.23-1.518.008-.423.285-1.19.629-.745 1.548-.714-.073-1.33-.145-1.949-.194-.163-.013-.33.045-.497.07.063.153.087.345.195.45.364.358.783.661 1.135 1.029.34.354.656.652 1.03.365.051.27.016.596.163.764.343.395.147.486-.216.536-.187.026-.38-.001-.57.017-.335.032-.67.08-1.116.136-.011-.19-.07-.518-.041-.839.077-.85-.073-1.073-.93-1.256-1.023-.217-1.033-.216-.915.825.052.466.154.927.239 1.422-.446.04-.48.45-.43.931.012.124-.069.345-.152.37-.11.033-.293-.05-.394-.141-.5-.447-.506-.76-.06-1.32.493-.616.48-.737-.203-1.086-.383-.195-.57-.41-.48-.89.063-.336-.036-.72-.126-1.066-.082-.314-.302-.523-.678-.47-.321.047-.797-.111-.856.347-.066.517-.005 1.063.09 1.58.03.171.337.292.564.472-.115.173-.235.36-.36.543-.335.488-.276.699.268.945.784.356.81.558.14 1.138-.116.099-.256.176-.35.292-.077.093-.178.284-.139.336.233.315.458.678.78.866.156.092.557-.105.772-.269.374-.284.727-.457 1.229-.485.681-.038 1.473.018 1.889-.864.354.87 1.11.235 1.794.634-.292.12-.453.236-.621.248-.398.027-.804-.028-1.198.017-.191.022-.452.151-.533.308-.357.694-.524.856-1.134.417-.754-.543-1.206-.368-1.655.301-.03.046-.083.078-.13.112-.355.26-.328.58-.014.796.519.358 1.087.644 1.615.949l.591-1.078c.29.11.488.265.65.233.473-.093.98-.177 1.386-.416.896-.526 1.863-.286 2.796-.385-.125.064-.249.137-.382.181-.641.214-.731.511-.237.998.317.313.705.554 1.085.846-.047.442.4 1.26.865 1.459.119.05.305.031.424-.028.27-.137.551-.284.768-.489.254-.24.617-.616.261-.913zM46.69 51.815c.236-.203.462-.42.715-.602.153-.11.349-.16.526-.237.02.173.071.35.053.52-.079.706-.307.895-.982.757-.128-.027-.21-.285-.312-.438zm-7.797 9.26c-.09.015-.296-.127-.29-.175.049-.34.112-.683.243-.995.018-.043.46.037.665.141.305.155.573.382.856.579l-.065.164c-.469.1-.936.211-1.41.286zm-6.971-2.993l1.68.08c-.292.594-.512 1.064-.764 1.517-.02.036-.353-.012-.384-.086-.19-.46-.337-.94-.532-1.511zm20.477-4.777h-.015c.006.133.015.265.02.398.02.55-.431.87-.922.607-.126-.068-.224-.39-.175-.544.135-.43.342-.84.549-1.243.057-.111.212-.172.322-.256.074.12.191.231.211.358.035.222.01.453.01.68zm-15.373 6.026c.221-.296.421-.58.867-.274.411.284.808.522.553 1.125-.177.42-.531.525-1.219.332-.483-.136-.179-.432-.156-.682.015-.165-.026-.335-.045-.5zm47.179-8.736c.336.049.42.222.199.511-.229.299-.447.606-.666.912-.168.234-.354.313-.53.029-.24-.386-.483-.774-.664-1.188-.054-.124.096-.337.129-.438.63.07 1.082.108 1.532.174zm-45.217 11.46c-.025-.115-.126-.213-.198-.319.061-.122.11-.34.187-.35.544-.071 1.093-.105 1.641-.137.057-.004.14.063.177.119.183.288-.356 1.287-.703 1.292-.474.006-.964.027-1.104-.605zm43.643 4.606c.02.113-.083.313-.19.373-.507.282-1.024.555-1.562.77-.126.05-.349-.137-.467-.189.036-.432.059-.697.079-.961.028-.362.236-.506.578-.456.413.061.827.127 1.234.22.127.03.31.143.328.243zM38.169 54.657c.496-.14 1.009-.225 1.522-.332.128 1.046-.11 1.313-1.696 1.96-.03-.454-.08-.844-.069-1.233.004-.139.13-.363.243-.395zM26.31 72.393c-.17-.017-.342-.015-.512-.02-.626-.016-.737-.13-.712-.74.02-.498.459-.882 1.049-.927.504-.039.58.32.653.688.022.111.046.224.084.33.273.756.274.754-.563.669zm17.524-17.458c.053-.013.115-.013.167.002.338.095.736 1.132.547 1.425-.03.047-.076.084-.115.125l-1.05 1.11c-.188-.592-.347-.995-.44-1.413-.083-.364.515-1.162.891-1.249zm3.868 28.428c-.565-.147-1.027-.25-1.475-.396-.11-.037-.249-.221-.24-.327.009-.112.159-.262.28-.307.884-.322 1.783-.56 2.681-.069.114.063.142.282.21.428l-1.456.67zm-8.005-31.461c-.305-.73-.324-.757.403-1.088.188-.086.4-.116.592-.19.867-.335.966-.268.988.73.076.393-.112.631-.549.71-.203.037-.412.094-.592.192-.446.242-.657.09-.842-.354zm.436 2.241c-.07-.312-.133-.627-.222-1.053.112-.134.226-.368.413-.472.343-.19.726-.31 1.098-.445.08-.03.253-.02.264.012.132.383.286.77.333 1.167.016.14-.218.356-.385.463-.315.201-.671.339-1 .521-.26.146-.431.116-.5-.193zm32.323 16.545c-.004.438-1.033 1.678-1.436 1.704-.198.013-.423-.11-.605-.222-.118-.073-.177-.24-.266-.362-.45-.623-.415-.699.317-.937.447-.146.868-.372 1.316-.515.318-.102.607-.03.674.332zM46.548 83.532c-.355.06-.615.093-.87.15-.6.135-1.194.296-1.797.414-.162.032-.347-.052-.521-.083.037-.174.05-.357.117-.518.13-.313.304-.608.434-.92.153-.367.435-.429.74-.284.574.27 1.129.58 1.683.89.08.045.111.175.214.35zm-7.536-4.578c.092.124.227.28.214.41-.047.441-.076.914-.268 1.296-.076.15-.589.034-.859.145-.26.107-.462.353-.69.538l-.17-.081c.018-.195.023-.392.055-.585.04-.243.112-.481.153-.724.192-1.126.203-1.137 1.349-1.044.074.006.183 0 .216.045zm.805-29.187l-.015.019.365-.591c-.385-.101-.77-.09-.952-.276-.299-.303-.466-.735-.71-1.15.641-.01 1.997.796 2.109 1.194.415.001.917.515.88.918-.01.104-.065.262-.14.291-.421.166-.85.316-1.29.425-.065.017-.24-.193-.274-.322-.042-.156.014-.338.027-.508zm13.304 34.239c-.043.234-.009.483-.009.705-.652.097-1.208.19-1.767.256-.153.018-.316-.051-.474-.08.046-.154.063-.324.144-.456.275-.445.493-.982.888-1.281.323-.245.864-.21 1.312-.267.036-.005.167.257.146.375-.046.255-.193.492-.24.748zm18.89-5.341l.094.024c-.086.292-.137.814-.265.833-.43.066-.908.016-1.33-.112-.316-.096-.226-1.891.073-2.08.41-.261 1.332.172 1.38.652.024.227.033.455.049.683zm-26.38 5.64c.116-.013.295.034.346.115.047.076-.012.247-.068.354-.376.714-.763 1.423-1.218 2.266-.148-.196-.317-.364-.415-.566-.192-.391-.306-.823-.52-1.2-.297-.52-.041-.689.411-.764.486-.082.974-.153 1.464-.206zM86.055 60.12c-.252-.462-.48-.944-.652-1.44-.171-.495.261-.425.461-.476.694.153 1.324.268 1.94.437.3.083.382.328.12.557-.454.397-.917.786-1.407 1.135-.073.052-.394-.087-.462-.213zm-42.263-8.246c-.195.532-.408 1.058-.636 1.576-.063.143-.2.253-.303.379-.134-.116-.349-.21-.39-.352-.215-.758-.406-1.525-.556-2.3-.03-.156.153-.355.242-.544.62.308 1.132.547 1.622.826.067.038.066.29.02.415zm1.34 30.24c-.387-.167-.778-.313-1.14-.511-.068-.037-.09-.342-.019-.42.255-.276.531-.555.853-.74.215-.123.558-.186.779-.104.565.212 1.098.513 1.636.792.261.136.281.362-.002.448-.689.208-1.396.358-2.108.535zm-4.58-24.92l-.167-.166c.308-.945.096-2.085 1.162-2.744.388-.24 1.274-.2 1.486.184.078.142-.02.481-.152.622-.58.616-1.196 1.198-1.813 1.778-.145.137-.342.219-.516.326zM57.666 81.99c.005.227.024.455.037.682l.053.007c-.043.312.018.805-.148.9-.551.315-1.182.493-1.793.692-.025.008-.225-.297-.216-.45.022-.39.085-.787.193-1.163.056-.196.21-.402.378-.52.277-.194.604-.315.907-.475.367-.193.58-.127.59.327zM39.48 50.197c-.191.291-.368.592-.568.916.127.211.327.469.442.76.107.268.054.596-.31.591-.74-.008-1.479-.085-2.218-.141-.044-.004-.083-.07-.2-.178.725-.395.964-1.326 1.874-1.53l-1.301-.75.023-.173c.18-.05.357-.122.54-.146.527-.068 1.06-.097 1.585-.178.36-.055.43.142.455.418l.015-.018c-.113.142-.238.277-.337.43zm47.32 6.417c.07.614-.32 1.231-.895 1.375-.35.087-.647.018-.757-.386-.154-.565-.334-1.124-.448-1.697-.168-.856.283-1.67 1.073-1.992.123-.05.3-.053.414.002.06.028.054.235.04.357-.055.525-.14 1.047-.184 1.572-.046.556.129.72.758.77zM34.5 74.518c-.011-.22.02-.444.032-.666l-.106.002c-.117.319-.212.649-.36.953-.073.152-.245.366-.365.361-.174-.007-.419-.147-.496-.3-.254-.505-.464-1.035-.657-1.567-.138-.384.028-.617.443-.533.955.195 1.906.414 2.854.644.351.085.418.348.3.67-.093.248-.174.502-.28.743-.237.532-.718.33-1.102.316-.423-.015-.251-.387-.263-.623zm55.508-15.162c-.075 1.396-.514 2.714-1.002 4.012-.244.65-.432.654-.92.177l-.12-.122c-.813-.819-.796-.811-.353-1.837.292-.677.54-1.373.781-2.07.21-.608.646-.979 1.264-.953.608.026.255.504.35.793zm-2.994-5.841c.037-.177.222-.324.339-.484.118.109.252.205.351.329.601.753 1.305 1.453 1.756 2.289.352.653.402 1.475.545 2.23.015.08-.235.289-.38.308-.508.068-1.022.09-1.535.108-.373.013-.524-.17-.408-.545.37-1.198.37-1.203-.87-1.15-.07-.263-.214-.535-.186-.787.088-.771.23-1.538.388-2.298zM72.488 70.103c-.238-.257-.53-.465-.808-.705-.064.324-.034.653-.184.807-.176.182-.502.241-.773.307-1.06.256-1.198.196-1.592-.615-.03.017-.08.028-.088.053-.089.278-.171.8-.254.8-.576-.001-1.205.413-1.732-.117-.406-.408-.792-.835-1.3-1.373.361-.046.555-.095.747-.09 1.55.044 3.097-.005 4.635-.221.485-.068 1.014-.071 1.44-.277.977-.474 1.629.148 2.426.54-.55.395-1.032.78-1.553 1.102-.347.214-.678.098-.964-.211zm15.14-6.314c.404.539.422.905.02 1.435-.252.332-.507.662-.785.97-.248.274-.484.23-.699-.077-.357-.512-.727-1.015-1.104-1.513-.333-.438-.143-.825.094-1.209.286-.463.582-.92.896-1.415-.177-.094-.265-.175-.364-.189-.729-.104-1.46-.2-2.19-.286-.492-.059-.452-.401-.278-.659.413-.61.865-1.197 1.349-1.752.286-.329.636-.174.78.304.152.508.273 1.028.459 1.523.078.208.289.365.44.545.129-.167.27-.325.386-.502.164-.253.309-.518.49-.825.354.536.336 1.338-.03 1.792-.267.332-.33.613-.065.965.216.286.387.606.602.893zM28.88 72.882c-.332-.045-.656-.152-.983-.235l.016-.208c.338-.073.675-.185 1.014-.194.102-.003.212.283.318.436-.122.072-.254.216-.365.201zm.994 1.656c-.492.022-.983.082-1.472.147-.064.008-.169.133-.16.19.013.094.086.23.165.256.49.166.989.307 1.515.465.191.14.418.346.682.468.048.022.253-.3.387-.462.073-.088.142-.181.228-.255.325-.278.272-.501-.079-.705-.1-.058-.183-.146-.375-.305l1.634-.222c-.037-.448-.056-.821-.105-1.192-.012-.093-.102-.232-.182-.253-.424-.11-.855-.188-1.44-.31-.1-.057-.318-.178-.535-.302-.278-.158-.547-.332-.833-.473-.57-.28-1.143-.56-1.732-.797-.137-.055-.388.015-.5.12-.068.063.01.31.055.464.117.403.25.8.384 1.22-.439.094-.75.182-1.068.223-.334.042-.673.04-1.07.06.017.769.587 1.189 1.08 1.364 1.683.598 3.165.314 4.149-1.43-.046.347-.14.621-.288.863-.156.253-.471.466.01.714.051.026.007.24.007.408-.212-.124-.337-.262-.457-.256zm36.81-1.325c.237-.661.718-1.04 1.332-1.246.122-.04.296.074.559.149l-1.892 1.097zm-.088.84c-.142.014-.292.004-.424.048-.585.194-.652.156-.736-.478-.122-.915-.183-.954-1.074-.802-.197.033-.404.004-.607.004l-.026-.137c.475-.191.946-.4 1.43-.568.308-.108.452.083.494.375.036.243.037.504.131.723.07.16.256.279.407.393.148.113.318.198.478.295l-.073.146zm.54.586c.263-.178.54-.34.788-.537.47-.37.873-.888 1.401-1.11.607-.253.652-.142.438-.812-.04-.126-.074-.255-.099-.386-.139-.736-.372-.859-1.116-.624-.185.058-.462.124-.582.034-.394-.296-.744-.181-1.125-.016-.262.113-.536.196-.955.347.265-.278.454-.407.537-.586.072-.156.103-.436.013-.542-.242-.284-.54-.531-.85-.743-.428-.293-.82-.168-1.295.338-.336.358-.309.685.004 1.055.165.196.242.467.36.704l-.158.07c-.15-.167-.323-.317-.445-.502-.399-.606-.72-.661-1.068-.017-.491.913-.875 1.887-1.242 2.86-.074.194.113.701.215.711.49.049.995-.019 1.491-.07.016-.002.049-.298-.005-.422-.128-.293-.294-.571-.461-.845-.183-.297-.202-.523.177-.638.263.529.48 1.054.78 1.527.14.22.444.483.666.476.69-.021 1.144.285 1.544.79.216.273.446.586.88.455l-.099-1.65.205.133zm-25.582 2.032l-2.45.57c.104.226.202.417.284.614.158.38.138.668-.367.726-.471.054-.939.154-1.411.184-.202.012-.412-.102-.67-.172l.401-.598c-.238-.104-.438-.215-.652-.28-.183-.054-.382-.057-.575-.08-.17-.022-.34-.045-.51-.058-1.098-.081-1.098-.08-.984-1.148-.358.44-.738.863-1.067 1.322-.361.503-.799.556-1.138.056-.154-.226-.344-.232-.554-.32-.35-.148-.747-.484-.847-.823-.08-.275.21-.693.41-.998.06-.091.374-.015.627-.015-.05-.111-.11-.213-.143-.322-.06-.195-.106-.394-.158-.591.35-.015.701-.045 1.049-.019.027.002.075.394.027.583-.053.21-.205.397-.248.738.139-.083.346-.135.402-.256.156-.339.363-.433.726-.359.436.09.886.117 1.322.25.636-.226.636-.226 1.234.908.03-.013.08-.021.085-.042.07-.262.132-.526.197-.789.29.122.595.215.862.373.208.123.364.33.55.49.177.15.365.29.547.433l.13-.107c-.062-.103-.113-.215-.188-.308-.342-.42-.679-.845-1.047-1.242-.088-.094-.288-.105-.439-.114-.288-.017-.577-.005-.93-.005.166-.54.272-1 .46-1.424.053-.12.391-.235.52-.177.87.393 1.727.82 2.568 1.274.095.051.126.35.081.503-.097.339-.261.66-.398.987l.138.076.247-.423c.35-.612.61-.68 1.17-.238.253.2.44.483.74.821zM30.032 48.874c.249.299.438.648.653.975l-2.142.622c.269-1.715 1.454-2.973 2.357-4.375l-.165-.156c-.351.309-.785.562-1.036.938-.459.689-.873 1.424-1.186 2.189-.234.572-.39 1.225-.378 1.837.013.597-.192.65-.652.554-.16-.034-.325-.047-.487-.07.041-.463.063-.872.125-1.275.019-.125.154-.335.231-.333.719.018.528-.486.516-.874-.005-.155-.075-.308-.116-.462l-.153-.033c-.327.604-.646 1.212-.985 1.81-.081.144-.225.252-.34.377-.056-.147-.157-.293-.16-.441-.021-.855-.015-1.71-.024-2.565-.007-.698-.126-.728-.747-.435-.737.347-1.52.596-2.28.898-.252.1-.49.23-.736.347l-.147-.176 4.929-5.233c.444.356.842.705 1.271 1.01.475.336.94.764 1.477.916 1.106.314 1.899.946 2.49 1.894.235.376.12.575-.354.711-.617.179-1.223.399-1.827.618-.438.16-.41.402-.134.732zM74.38 85.93c.134-.074.299-.092.553-.166-.162.995-.376 1.84-.814 2.628-.69 1.24-1.758 2.124-2.805 3.028-.299.258-.62.495-.95.711-.127.083-.31.081-.468.118.003-.153-.002-.307.012-.46.014-.142.048-.283-.041-.518-.165.147-.328.295-.494.44-.784.678-1.51 1.447-2.374 2.003-.599.385-1.383.49-2.092.692-.164.047-.36-.02-.733-.052.363-.362.624-.587.838-.85.143-.176.216-.408.321-.614-.208-.036-.415-.097-.624-.104-.836-.026-1.673-.029-2.51-.06-.17-.006-.338-.096-.6-.176l3.506-1.812c-.19-.162-.25-.231-.326-.273-.17-.095-.349-.177-.524-.264.134-.166.252-.347.403-.495.469-.46.931-.932 1.436-1.351.189-.157.502-.28.735-.247 2.045.285 3.916-.272 5.721-1.14.63-.303 1.216-.698 1.83-1.038zM29.277 53.707c.35-.018.578-.176.558-.694l.564.694h-1.122zm2.437-1.45l1.7 1.51-.446 1.428-.125-.005c.015-.34.012-.68.052-1.017.041-.348-.401-1.093-.726-1.124-.09-.008-.206.113-.289.195-.15.151-.285.318-.427.478l-.174-.103.435-1.362zm.546-1.215l.993.425c-.256.342-.979.598-1.056.394-.083-.218.03-.51.063-.819zm-1.534 6.85l.43.875c-.515-.002-.61-.204-.43-.874zm-.772-6.943c-.453-.386-1.18-.32-1.543.228-.293.443.098.757.391 1.043.172.169.366.314.55.47-.256-.003-.428-.148-.618-.176-.141-.02-.422.089-.437.175-.06.346-.04.705-.05 1.06l.802-.028c.02 0 .037-.01.055-.015h.053-.054c-.243.366-.854.531-1.226.3-.414-.257-.05-.527.02-.79.048-.184.103-.366.146-.551.068-.293-.018-.463-.35-.513-.624-.095-.803.058-.737.689.158 1.496.71 2.85 1.39 4.181 1.122 2.192 2.865 3.69 5.062 4.69.788.357 1.626.623 2.466.84.352.09.767-.058 1.153-.094.137-.013.277-.035.41-.017.352.046.7.129 1.053.164.304.03.4-.154.355-.435-.024-.147-.044-.295-.066-.443-.156-.132-.312-.262-.465-.397-.55-.483-1.293-.34-1.587.353-.112-.122-.241-.214-.3-.338-.212-.44-.44-.529-.937-.311-.893.39-1.194.182-1.424-.782-.072-.297-.136-.597-.224-.986-.36.3-.615.522-.881.728-.297.228-.554.254-.697-.175-.06-.18-.126-.362-.22-.525-.166-.289-.357-.564-.559-.88l.351-1.443c-.491.048-.92-.035-1.057.128-.323.383-.703.227-1.042.237-.432.013-.54-.26-.34-.656.13-.258.241-.526.359-.787-.461-.15-.995-.168-1.143-.416-.164-.276.022-.761.055-1.155.068-.01.135-.022.203-.033.173.257.33.527.525.766.112.138.285.225.431.335.104-.148.213-.293.31-.446.181-.285.334-.593.546-.852.072-.088.29-.057.44-.08-.013.166.028.365-.05.492-.392.641-.826 1.257-1.218 1.898-.068.112-.068.372.01.44.097.087.314.086.466.056.389-.077.765-.234 1.155-.272.16-.015.397.156.501.309.159.23.232.52.34.785.227-.2.474-.381.676-.604.545-.603.526-.701-.183-1.108-.228-.13-.467-.268-.719-.327-.495-.116-.626-.454-.704-.983.368.237.648.429.938.603.35.21.688.49 1.07.59.85.225.885.26.319.957-.048.059-.105.112-.145.176-.12.195-.235.394-.352.592.226.012.453.05.677.032.41-.031.816-.095 1.224-.146-1.142.84-1.324 1.645-.437 2.203l-.193.502c.298.06.551.109.805.161 1.43.292 1.192.352 1.717-1.033-.002-.22.039-.61-.016-.624-.262-.067-.551-.03-.87-.03.353-.26.369-.505.032-.816-.752-.693-1.21-1.58-1.54-2.538-.535-1.545-.958-3.094-.506-4.75.23-.842.165-.881-.712-.874-.334.004-.543.114-.601.466-.023.135-.103.26-.156.387L30.7 49.86l-.505 1.28c-.095-.075-.17-.13-.241-.19zm29.203 30.339l-.017-.012-.008-.021.018.017.007.016zm3.91-.959c.525-.283.933-.783 1.392-1.188l-.067-.22c-.57-.047-1.14-.11-1.71-.124-.082-.001-.209.23-.243.371-.043.173-.01.364-.01.547l-.182.06-.452-.973c1.082-.396 2.085-.5 3.113-.112.186.07.426-.001.642-.007-.014-.195-.009-.394-.046-.584-.08-.405-.18-.807-.288-1.276h.562c-.042.798-.022.837.785.845.523.005.933.184 1.258.566l-.045.194c-.418-.094-.836-.19-1.256-.28-.174-.036-.351-.058-.527-.086-.01.182-.032.365-.027.547.003.11.03.229.075.33.146.322-.012.462-.298.529-.186.043-.375.069-.56.11-.95.213-.955.218-.652 1.142-.566.076-1.13.158-1.697.227-.469.057-.939.1-1.409.148l-.056-.302c.571-.146 1.195-.192 1.698-.464zm-1.542-3.319c.174-.026.39-.027.53.061.1.064.173.302.136.426-.066.218-.226.408-.347.61l-.185-.02c-.068-.226-.157-.448-.196-.679-.023-.132.02-.391.062-.398zm6.424-1.209c.18-.102.454-.035.688-.04-.036.19-.064.385-.114.572-.024.087-.086.167-.144.24-.14.178-.289.349-.434.522l-.257-.672c.097-.254.12-.542.26-.622zm-8.026 5.422c.288-.392.71-.217.963-.03.54.4 1.002.906 1.504 1.36.236.214.537.42.79.096.482-.615.91-1.273 1.36-1.914.194.084.397.253.58.235.743-.075 1.471-.421 2.232-.042.049.025.351-.243.336-.347-.05-.352-.203-.687-.292-1.036-.045-.176-.117-.435-.034-.532.112-.127.492-.227.532-.173.132.177.216.43.219.655.003.315-.063.636-.138.945-.113.468.087.647.525.635.68-.02 1.407-.208 2.03-.031.888.252.974-.549 1.477-.845-.602-.177-1.189-.28-1.778-.297-.128-.004-.265.295-.433.498l-1.197-.728c.533-.114 1.087.262 1.246-.49.14-.665-.478-.669-.748-1.061.385.067.737.297.917-.256.309-.942.343-.93 1.333-.728.494.102.69-.044.666-.547-.025-.513-.096-1.023-.139-1.534-.016-.187-.092-.457 0-.551.644-.66.917-1.682 1.912-1.993.361-.113.747-.156 1.096-.295.19-.075.445-.274.46-.436.029-.316.03-.7-.416-.83-1.234-.36-2.172.04-2.79 1.192-.039.071-.137.116-.215.162-.632.377-1.33.68-1.869 1.16-.233.208-.215.79-.173 1.188.041.391.415.357.735.313.179-.025.365-.005.547-.005l.101.194c-.142.092-.292.175-.426.278-.148.116-.292.242-.421.379-.496.522-.811.502-1.233-.057.109-.208.29-.398.293-.59.006-.454-.057-.911-.128-1.361-.019-.119-.157-.29-.26-.305-.115-.017-.292.084-.375.187-.428.532-.849 1.07-1.241 1.627-.18.256-.293.559-.434.841l-.007.002v.013l.016-.017c-.28.403-.536.449-.9.045-.748-.83-1.629-1.27-2.788-.825-.408.157-.494.342-.22.65.311.35.665.663 1.07 1.06l-.382.558c-.153-.245-.235-.42-.355-.564-.508-.604-1.008-1.22-1.561-1.78-.105-.105-.596-.052-.645.052-.19.404-.278.858-.394 1.295-.043.16-.024.345-.095.487-.23.456-.494.893-.733 1.344-.287.543-.224.642.403.672.095.005.202-.024.283.01.16.067.408.145.432.258.028.139-.098.375-.228.46-.117.076-.368.064-.492-.015-.231-.148-.391-.405-.622-.552-.126-.08-.413-.106-.495-.024-.434.435-.497 1.438-.174 1.989.268.27.51.31.773-.05zM20.881 37.47c-.145.059-.302.087-.573.162l.771-3.873c.407.14.393.536.443.864.172 1.146.903 1.562 1.89 1.01.205-.115.406-.418.423-.647.036-.493.24-.638.69-.54.018.004.038.002.057.004 1.372.132 1.385-.44 1.027-1.512-.152-.455-.144-.603.345-.563.39.033.597-.175.72-.516.395-1.102-.354-2.405-1.535-2.557-.283-.037-.68.13-.887.34-.311.315-.497.754-.748 1.132-.055.084-.16.136-.242.202-.075-.097-.213-.194-.213-.29 0-.297-.007-.618.098-.887.262-.672.608-1.312.872-1.984.186-.473.47-.513.846-.288.826.493 1.624 1.04 2.471 1.494.563.303 1.2.463 1.783.732.187.087.384.298.436.49.065.243-.045.528-.02.79.017.18.136.353.21.529.134-.155.384-.31.383-.464-.002-.405-.1-.812-.184-1.213-.035-.168-.13-.324-.199-.485l.223-.19c.254.242.525.469.759.73.314.35.582.742.903 1.085.315.336.37.643.04.994-.195.206-.42.406-.547.652-.112.217-.128.494-.137.746-.002.044.286.174.358.13.21-.128.424-.297.55-.503.084-.14.002-.373.032-.558.019-.116.107-.222.164-.333.109.059.266.09.317.18.269.48.566.958.731 1.475.056.176-.19.553-.395.687-.559.363-.696.589-.438 1.202.203.483.076.737-.412.912-.232.083-.443.283-.607.478-.507.605-.97.685-1.627.246-.165-.11-.343-.201-.607-.355-.055.608.227.932.583 1.165 1.293.844 2.66 1.544 4.137 2.01 1.283.403 2.568.8 3.86 1.17.462.133.947.182 1.587.3-.482.344-.825.585-1.164.831-1.205.876-2.29 1.963-3.79 2.349-1.74.447-3.388.243-4.885-.826-.325-.231-.667-.445-1.02-.629-1.034-.537-1.602-1.424-1.92-2.503-.2-.675-.406-1.348-.569-2.032-.132-.556-.468-.776-.998-.672-.405.08-.823.18-1.188.366-.52.263-.908.18-1.25-.265-.092-.12-.188-.238-.272-.364-.403-.6-.63-.67-1.282-.408zm60.184 37.19c-.097.4-.482.73-.752 1.087l-.657-1.084.56-.726c.302.245.889.56.85.723zm-3.422 1.567c-.025.145-.211.263-.323.394-.102-.122-.248-.228-.298-.368-.315-.89-.203-1.595.317-1.987.108-.082.28-.13.41-.11.075.012.125.19.126.19-.083.712-.132 1.3-.232 1.88zm8.895.327c-.617-.524-.848-1.575-.533-2.34.161-.388.027-.535-.351-.547-.42-.013-.838-.024-1.257-.026-.529-.002-.995-.082-1.378-.534-.274-.324-.64-.314-.887.115-.076.132-.137.28-.238.388-.11.118-.295.304-.384.273-.148-.05-.272-.235-.355-.39-.067-.128-.012-.335-.096-.437-.133-.164-.332-.373-.512-.382-.808-.04-1.62-.018-2.48-.018-.02.126-.053.204-.04.271.12.58-.195.689-.674.655-.323-.022-.648-.013-.971-.022-.326-.008-.477.147-.521.47-.07.509-.14 1.022-.278 1.514-.065.23-.252.469-.452.606-.552.38-.548.487.022.86.29.189.55.45.76.725.067.089-.068.331-.11.503-.18-.065-.395-.09-.532-.207-.134-.113-.163-.345-.287-.479-.114-.123-.294-.187-.445-.277-.065.148-.156.291-.191.447-.096.423-.149.856-.254 1.277-.148.596-.03.728.575.629.267-.044.542-.037.813-.053l.046.194c-.153.129-.288.294-.462.381-.71.355-1.415.724-2.151 1.016-1.131.448-2.34.312-3.519.35-.93.03-1.868-.12-2.794-.06-.645.044-1.363.17-1.892.507-1.124.715-1.858 1.835-2.452 3.009-.142.282-.099.81.082 1.074.435.637.975 1.308 1.798 1.375 1.376.112 2.765.132 4.147.096.711-.02 1.464-.13 2.116-.398 1.27-.523 2.494-1.16 3.71-1.803.736-.39 1.42-.88 2.128-1.324.675-.425 1.336-.876 2.031-1.266.584-.327.796-.173.738.514-.056.663-.173 1.321-.238 1.984-.017.17.062.348.12.631.396-.665.714-1.192 1.027-1.723.81-1.377 2.083-1.928 3.611-1.981.567-.02 1.137.07 1.706.071.16 0 .32-.138.48-.213-.083-.136-.136-.312-.254-.4-.196-.144-.427-.247-.654-.342-1.183-.493-2.425-.606-3.69-.538-.338.018-.569-.052-.551-.452.045-1.047.703-1.81 1.715-1.964.334-.051.553-.16.598-.553.123-1.082.404-1.291 1.472-1.174.494.054.581.232.335.685-.135.249-.302.485-.404.747-.074.19-.066.414-.094.623.216-.03.477.008.64-.1.578-.388 1.115-.84 1.686-1.24.365-.259.372-.452.025-.747zM80.457 60c-.343 1.509-.986 2.882-1.936 4.093-.854 1.087-1.956 1.892-3.166 2.556-.855.47-1.724.845-2.731.83-.564-.009-.987-.143-1.242-.7-.188-.412-.447-.796-.714-1.164-.063-.087-.368-.132-.419-.072-.254.294-.532.602-.665.957-.152.406-.377.493-.738.396-.771-.208-1.54-.43-2.31-.64-.136-.037-.28-.043-.6-.09.3.43.504.725.708 1.02l-.105.196c-.714-.132-1.429-.26-2.142-.398-.147-.028-.288-.113-.434-.121-.114-.006-.296.037-.332.113-.041.087.008.278.086.347.194.173.426.303.643.45l-.118.261c-.488.09-.974.184-1.463.264-.206.035-.417.042-.626.057-.584.04-.64-.088-.552-.646.158-1.01.4-2.043.319-3.044-.18-2.229-.945-4.258-2.392-6.035-1.478-1.814-3.31-2.96-5.584-3.45-.807-.174-.9-.364-.438-1.017.986-1.39 2.003-2.76 3.037-4.115.376-.493 1.04-.402 1.468.064.756.824 1.561 1.604 2.325 2.422.267.286.571.6.682.956.124.402.355.474.689.543.421.086.843.194 1.246.34.406.148.652.06.67-.38.013-.336.078-.818-.106-.986-.389-.353-.895-.695-1.495-.306-.101.065-.242.07-.576.158.282-.666.496-1.192.743-1.702.015-.031.356.012.435.11.93 1.152 1.834 2.325 2.756 3.484.105.132.27.215.409.32.051-.167.175-.35.144-.5-.36-1.747-.752-3.487-1.112-5.234-.057-.278.001-.579.006-.87.27.031.553.023.81.099.91.265 1.81.569 2.719.834.142.041.32-.04.482-.065-.044-.147-.048-.33-.14-.436-.783-.899-1.59-1.777-2.372-2.677-.258-.297-.51-.617-.677-.968-.186-.388-.064-.618.425-.768 1.43-.44 2.834-.967 4.246-1.464.046-.016.076-.078.234-.25-.3-.056-.486-.1-.675-.124-.995-.128-1.99-.256-2.987-.374-.378-.044-.446-.225-.29-.544.232-.476.46-.954.691-1.431l.305-.63-1.2.237-.148-.118c.222-.437.455-.868.663-1.31.838-1.779 2.374-3.092 3.254-4.821.446-.877.96-.844 1.712-.646 1.663.438 3.138 1.137 3.996 2.729.31.575.458 1.189.3 1.865-.287 1.217-.639 2.393-1.541 3.32-.08.08-.14.183-.228.251-1.413 1.09-2.807 2.166-4.565 2.736-1.084.35-2.147.724-3.27.93-.366.066-.462.503-.141.804.312.292.683.569 1.08.716 1.85.684 3.75 1.242 5.565 2.006.978.412 1.824 1.143 2.722 1.74.251.168.464.395.717.562.982.65 1.59 1.608 2.178 2.589.371.617.794 1.204 1.145 1.832.867 1.547 1.01 3.196.62 4.91zm-18.214 9.893c-.82.892-1.639 1.787-2.463 2.674-.085.092-.21.148-.299.209.574-1.184 1.132-2.34 1.697-3.493.18-.367.567-.405 1.016-.133.382.23.29.48.049.743zM59.76 46.616l.189.024c.02.229.141.549.036.667-.163.183-.48.229-.733.333l-.137-.233.645-.791zm-.245-2.675c-.01.33-.135.657-.208.986l-.196-.01c-.189-.645-.39-1.286-.56-1.935-.08-.304-.169-.633-.127-.934.028-.206.275-.381.424-.57.207.196.557.37.593.593.1.612.093 1.246.074 1.87zm-4.178 2.65l.183-.125c.267.2.547.384.798.6.414.358.678.36 1.046-.04.228-.246.452-.497.743-.818.183.615-.003.96-.364 1.225-.362.264-1.637.283-1.973-.028-.213-.197-.293-.538-.433-.814zM54.1 42.07c.184-.315.597-.269.776.077.058.113.101.26.084.383-.113.79-.243 1.576-.381 2.447-.897-.65-.949-2.104-.479-2.907zm.654 5.545c-.672.288-.975.173-1.188-.347-.077-.188-.18-.367-.246-.558-.041-.119-.038-.253-.055-.38.133.004.324-.046.39.023.369.389.708.806 1.1 1.262zm-3.036-.014c-.042-.43.009-.869-.003-1.303-.036-1.356-.117-2.657-1.242-3.7-.492-.456-.707-1.223-1.01-1.866-.355-.75-.673-1.516-.997-2.28-.08-.186-.219-.425-.163-.578.174-.471-.005-.812-.207-1.224-.418-.851-.6-1.774-.347-2.718.055-.204.254-.41.441-.529.313-.2.383-.383.15-.689-.097-.125-.217-.34-.171-.447.212-.497-.11-.823-.29-1.214-.219-.478-.388-.983-.535-1.49-.114-.392.057-.585.483-.49.15.033.328.12.443.068.16-.072.284-.242.402-.388.035-.043-.02-.149-.008-.222.052-.303.034-.804.188-.865.297-.117.693.013.935.031-.22.447-.44.747-.516 1.08-.117.504-.28.784-.879.663-.504-.1-.667.128-.415.568.533.928.614 1.98.875 2.98.035.135-.078.38-.199.47-.383.285-.496.663-.475 1.1.04.849.073 1.681.686 2.394.247.287.659.735.056 1.171-.077.056-.013.388.062.559.26.588.522 1.18.843 1.736.49.851.99 1.7 1.557 2.5.582.82.951 1.67.91 2.695-.02.49.061.988.133 1.477.098.67.834 1.229 1.663 1.207 1.057-.027 2.112-.13 3.168-.178.51-.023 1.022.013 1.532.013.34 0 .686.02 1.017-.039.543-.094.834-.472.824-1.01-.014-.702-.088-1.403-.14-2.104-.029-.394-.097-.786-.093-1.179.012-1.05-.085-2.046-.923-2.824-.565-.524-1.5-.497-1.993.099-.606.732-.888.797-1.774.424-.227-.096-.461-.181-.7-.247-.935-.258-1.664.167-1.902 1.111-.079.313-.119.636-.196.95-.05.204-.137.4-.207.599l-.156.007c-.219-.527-.442-1.053-.655-1.582-.158-.394-.487-.808-.076-1.207.223-.216.527-.41.826-.475.663-.144 1.365-.13 2.014-.313.476-.134.893-.477 1.334-.731.406-.234.82-.231 1.178.056.638.511 1.36.527 2.112.438.151-.018.304-.051.454-.043 1.375.076 1.866.695 1.736 2.092-.067.713-.159 1.427-.155 2.14.004.873.098 1.746.15 2.62.066 1.09-.643 1.811-1.717 1.862-1.746.083-3.488.233-5.233.336-.53.03-1.066.028-1.595-.013-.56-.044-1.129-.755-1.2-1.498zm-4.78-5.561c-.716.33-1.502.274-2.265.288l-.061-.194c.373-.27.745-.54 1.12-.808.14-.098.295-.174.427-.28.466-.371.935-.418 1.192-.108.202.244.028.899-.412 1.102zm3.146-11.452l1.276.368-.054.215-1.291-.31.07-.273zm2.535.149l-1.386-1.274c.811.008 1.366.483 1.386 1.274zm-.57 2.78c.425-.38.635-.308 1.027.348l-1.026-.348zm-.612 5.61l-.153.126-.702-.875c.427.132.805.303.855.75zm-.09-1.772c-.137-.368-.19-.777-.22-1.172-.013-.19.136-.563.177-.558.284.034.626.07.823.247.32.289.283 2.216.007 2.64-.574-.17-.623-.722-.786-1.157zm2.862-.445c-.105.418-.264.83-.455 1.215-.065.133-.292.235-.452.246-.07.005-.198-.244-.23-.393-.053-.257-.053-.526-.076-.79h-.016c0-.17-.037-.351.01-.507.065-.223.161-.58.299-.607.266-.053.615.017.839.17.125.085.134.454.08.666zm-4.873-4.38c1.476 1.425 2.95 2.668 5.006 2.85-1.388.457-4.956-1.09-5.006-2.85zm5.01.771l-3.196-1.38c1.266-.095 2.695.378 3.195 1.38zm.742-5.604c.256-.35.52-.707.84-.995.128-.116.538-.151.616-.056.73.89 1.765 1.571 1.927 2.865.093.739-.051 1.373-.541 1.968-.091-1.66-.4-3.204-1.68-4.392-.944.631-1.433 1.549-1.531 2.548-.096.973.122 1.976.21 3.07-.215-.307-.49-.576-.617-.902-.595-1.519-.13-2.862.776-4.106zm1.321 2.64c.68.092.793.857.223 1.903l-.223-1.904zm.905 6.204h-1.586c.488-.133.976-.7 1.586 0zm4.407-5.57c-1.053.602-2.056 1.034-2.883 1.687-.827.652-1.478 1.525-2.155 2.246-.143-1.137 3.575-4.287 5.038-3.934zm-.987-3.561c-.18.492-.36.984-.542 1.476l-.279-.1.632-1.45.19.074zm.17-1.986c.166-.193.393-.332.64-.535.16.391.185.602-.234.749-.284.099-.515.349-.768.533-.157.114-.31.231-.465.347-.093-.157-.208-.305-.273-.473-.05-.13-.048-.28-.064-.424.652.416.648.404 1.165-.197zm.22 10.306c.048-.167.207-.384.355-.42.149-.035.409.077.508.21.324.427.174 1.973-.204 2.346-.24.236-.432.12-.49-.158-.087-.427-.125-.863-.184-1.295 0-.231-.046-.473.015-.683zm-1.427-1.87c.152-.812.639-1.155 1.402-.942l-1.402.941zm.95 3.051c-.026.23-.018.543-.102.829-.113.387-.418.46-.707.203-.523-.467-.91-1.015-.885-1.776.012-.381.153-.583.536-.57.4.015.927-.271 1.08.388.064.275.05.567.077.926zm-2.516-2.174c1.17-.471 2.237-.827 3.536-.907-.601.737-2.766 1.297-3.536.907zm4.234-8.837l.232.717-.678-.118-.103-.18.55-.419zm.516 1.92c.058.26.086.524.125.787.117.778.167.807.892.539.046-.018.105-.003.245-.003-.057.18-.118.325-.15.476-.047.231-.14.479-.099.698.082.438-.069.686-.471.815.052-.434.119-.866.135-1.3.002-.054-.277-.104-.41-.182-.155-.091-.401-.196-.42-.322-.094-.632-.126-1.272-.18-1.91l.158-.05c.06.15.14.296.175.452zm.287 4.03l.254-.715c.126.566.128.567.713.908l-.967-.192zm.598 6.857c-.428.847-.878 1.684-1.321 2.523l-.14-.038c0-.176-.056-.377.01-.524.326-.722.678-1.434 1.04-2.139.045-.086.21-.11.32-.162.034.115.13.262.091.34zm1.922-4.554c.394-.408.77-.834 1.185-1.217.148-.137.395-.247.589-.236.385.021.765.135 1.18.217-.025.076-.062.239-.129.388-.165.37-.403.424-.709.143-.55-.507-.74-.463-.873.262-.274 1.483-1.314 2.342-2.5 3.047-.708.42-1.205.072-1.152-.746.045-.7.136-1.398.222-2.095.014-.11.116-.21.177-.314l.147.033c-.03.302-.096.606-.078.905.016.26.127.515.196.772.28-.076.608-.084.827-.243.345-.252.617-.604.918-.916zm-36.38 35.346c-.833-.75-.596-1.815-.822-2.743l.213-.063.817 2.745-.208.06zm13.006 18.99c-.115.28-.198.572-.296.858l-.201-.06-.149-1.837c.823.258.902.412.646 1.039zm3.584.83c.074.003.203.148.205.23.018.614.01 1.23.01 2.013-.75-.609-.895-1.416-1.408-2.211.481-.017.838-.044 1.193-.031zm9.465.282l.699-.64c.055.768-.008.82-.7.64zm-4.065 1.31c.07-.125.247-.262.383-.265.474-.01.949.034 1.423.057.169.007.342-.007.507.022.214.038.472.05.622.178.264.227.454.253.75.054.588-.398 1.174-.831 1.826-1.087.324-.127.79.108 1.192.176.315.052.77.253.918.119.337-.306.017-.688-.148-1.027-.131-.271-.22-.564-.35-.836-.223-.473-.495-.516-.886-.17-.356.315-.723.618-1.085.928l-.212-.226 1.203-1.187c-1.533-.638-2.749.304-2.624 1.936-.457.066-.465.038-.388-.34.176-.865.285-1.744.486-2.602.104-.441.346-.85.525-1.273l.185.026.3 1.469.214.054c.497-.724.995-1.447 1.487-2.174.084-.125.113-.325.224-.385.154-.082.362-.064.547-.088-.004.167.06.39-.023.494-.456.577-.948 1.126-1.514 1.785.377.201.768.421 1.169.619.22.11.463.174.689.273.313.137.41.234.24.667-.138.353.15.904.326 1.337.101.25.376.424.53.66.105.161.136.37.2.558-.195.034-.395.11-.587.092-.435-.039-.866-.126-1.299-.187-.144-.02-.291-.021-.551-.039.16.308.306.52.38.755.047.145-.013.324-.026.488-.15-.035-.31-.049-.449-.109-.565-.244-1.124-.503-1.856-.834l.206 1.88-2.377-1.637-.156.123c.023.455.045.91.07 1.451-.194-.09-.32-.12-.411-.193-.489-.389-.974-.782-1.447-1.188-.105-.09-.248-.293-.213-.355zm8.628-5.957c-.036.352-.708.523-.183.877.252.17.585.222.936.347l-.92.975c-.605-.717-.258-1.553-.537-2.416l.704.217zm-21.4-38.89l-.165-.147.259-1.135c-.07-.05-.113-.099-.127-.091-.657.359-1.308.294-1.958-.019.664-.141 1.334-.262 1.992-.432.395-.103.454.062.47.394.01.224.103.446.16.669.197-.094.398-.18.592-.282.407-.213.81-.433 1.214-.65l.076.152-2.513 1.541zm-2.13 1.77l-.147-.103.777-1.566.769.12-1.399 1.549zm6.863-5.213c-.171-.06-.23-.443-.339-.683l.25-.643c.182.115.366.229.547.347.029.02.05.058.065.092.113.254.223.51.334.764-.29.053-.615.207-.857.123zm29.538-18.822c.027-.022.197.131.402.273-.23.272-.37.512-.579.644-.07.044-.313-.188-.477-.293.214-.212.421-.434.654-.624zm5.465 3.708c.415.056.83.112 1.246.17l-.025.226-1.252-.144.03-.252zm6.753 23.879c-.258.211-.401.579-.674.753-.468.301-.733.592-.431.96-.303.431-.56.766-.78 1.124-.128.208-.167.472-.298.677-.247.389-.18.663.208.904.212.132.39.317.584.479l-.147.174c-.461-.356-.923-.71-1.384-1.067-.377-.292-.36-.63-.031-.914.265-.228.597-.38.996-.624l-2.646-1.744.085-.15c.081.023.168.035.243.07.615.3 1.222.613 1.845.895.132.06.315.008.475.008-.02-.139-.008-.29-.063-.413-.161-.365-.35-.717-.525-1.075-.155-.318-.346-.485-.72-.27-.225.131-.491.192-.739.285l-.078-.152c.278-.18.566-.345.828-.545.104-.078.197-.228.206-.352.004-.063-.18-.175-.293-.204-.514-.132-1.032-.245-1.55-.36-.602-.134-1.205-.263-1.808-.394l-.008-.153c.415-.156.837-.298 1.244-.473.17-.074.311-.217.465-.328-.167-.102-.324-.259-.505-.296-.987-.2-1.98-.368-2.97-.557-.284-.055-.56-.144-.967-.25l1.125-.79c-.282-.07-.437-.12-.596-.149-.991-.186-1.986-.355-2.973-.563-.16-.033-.416-.251-.401-.349.058-.377.202-.742.34-1.102.007-.02.271.001.351.074.334.306.642.64.96.962.085.085.171.167.256.25.064-.12.176-.237.183-.36.042-.757.07-1.516.085-2.274.007-.388.186-.575.566-.53.774.09 1.544.216 2.318.291.264.026.662.037.773-.112.121-.163.043-.546-.057-.789-.304-.735-.67-1.445-.993-2.173-.272-.616-.136-.886.452-1.182.807-.408 1.599-.846 2.384-1.294.137-.078.208-.27.309-.41-.151-.054-.3-.144-.455-.156-.682-.052-1.37-.046-2.048-.13-.54-.066-.63-.327-.241-.708.486-.478 1.036-.89 1.548-1.342.127-.114.21-.277.314-.417-.169-.063-.333-.152-.507-.182-.73-.13-1.462-.236-2.192-.36-.316-.053-.463-.227-.374-.566.212-.808.429-1.615.61-2.429.05-.23-.014-.486-.026-.73-.238.081-.52.107-.705.253-.476.375-.913.8-1.358 1.214-.343.317-.55.216-.607-.21-.072-.544-.097-1.095-.16-1.64-.023-.212-.095-.418-.145-.626-.195.118-.434.198-.576.362-.383.445-.716.932-1.085 1.39-.317.393-.517.373-.644-.116-.184-.713-.284-1.449-.44-2.171-.048-.227-.157-.442-.238-.662-.168.154-.362.288-.498.467-.201.266-.36.564-.539.848l-.148-.09c.28-1.296.92-2.428 1.653-3.714.146.348.253.524.293.715.103.492.34.65.81.407.27-.14.552-.262.84-.357.128-.042.368-.05.41.019.074.12.106.368.031.459-.156.188-.376.373-.604.44-.264.077-.57-.004-.85.039-.182.028-.35.153-.523.235.116.152.2.358.353.444.578.328 1.177.619 1.77.92.37.187.731.399 1.118.545.458.173.698-.012.78-.514.031-.189.097-.372.147-.557l.166-.031c.192.313.397.62.573.941.303.554.406.571.958.23.488-.302 1.002-.562 1.518-.847.325.93.398.913 1.079.256.373-.36.867-.594 1.296-.9.224-.16.535-.312.614-.535.284-.802.865-1.306 1.507-1.794.157-.12.29-.429.252-.611-.11-.517-.278-1.03-.5-1.51-.099-.211-.422-.502-.578-.466-.417.095-.178.447-.118.701.113.476.192.909-.247 1.308-.824.747-2.355.634-2.96-.3-.168-.26-.188-.624-.244-.946-.05-.291-.067-.67-.473-.511-.666.26-.93-.085-1.196-.592-.356-.675-.836-1.181-1.717-.993-.2.042-.418.006-.627-.007-.328-.019-.666-.02-.723-.47-.055-.45.225-.598.582-.708.746-.23 1.495-.452 2.228-.718.295-.107.551-.32.879-.517-.16-.13-.212-.206-.275-.218-.39-.075-.78-.158-1.174-.194-.344-.03-.694.004-1.041 0-.713-.009-1.43.01-2.138-.052-.266-.024-.565-.395-.759-.33-.233.076-.376.441-.543.692-.115.172-.178.384-.31.539-.385.448-.455 1.23-1.286 1.23-.057 0-.189.277-.155.385.058.19.207.356.338.516.219.267.209.472-.117.637-.846.427-1.685.87-2.542 1.273-.093.044-.348-.089-.418-.206-.077-.128-.045-.334-.03-.503.144-1.591.302-3.181.433-4.773.026-.307-.048-.622-.077-.934l-.236-.028c-.547 1.764-1.272 3.443-2.203 5.035-.116-.137-.163-.244-.156-.347.138-2.165.485-4.271 1.74-6.12.063-.094.063-.232.092-.35-.136.01-.315-.034-.398.037-.376.32-.779.63-1.073 1.018-.833 1.102-1.615 2.243-2.424 3.364-.192.267-.408.516-.613.774l-.173-.072.613-2.578-.157-.05c-.076.092-.154.183-.227.278-1.255 1.641-2.475 3.312-3.78 4.911-.596.73-.685.876-.201 1.73.163.287.243.62.354.935l-1.95-2.694-1.168 2.14-.207.015c-.208-.45-.41-.902-.629-1.345-.052-.106-.16-.25-.25-.256-.093-.005-.24.116-.286.217-.462.996-.955 1.983-1.345 3.007-.355.928-.304.948-1.272 1.026l.147 1.38c-.823.106-1.217-.52-1.887-.808.17-.026.227-.049.278-.04.891.143.877.144.853-.734-.008-.312.12-.515.5-.325.592.295.774.178.967-.457.186-.615.393-1.232.675-1.808.33-.674.319-.836-.325-1.246-.766-.487-1.521-.993-2.289-1.479-1.584-1.004-3.173-2.002-4.764-2.995-.128-.08-.294-.1-.441-.148l-.115.15 2.114 2.35-.138.138c-1.075-.611-2.11-1.312-3.237-1.81-1.105-.487-2.171-1.134-3.448-1.257 2.135 1.784 4.318 3.485 5.494 6.109-2.164-1.314-4.097-2.903-5.731-4.863l-.136.125 3.273 7.543c-.332-.104-.518-.116-.642-.21-.607-.45-1.195-.927-1.795-1.387-.217-.167-.45-.313-.676-.47.107.283.155.61.33.84.734.96 1.507 1.89 2.287 2.859-.533.098-.47.369-.211.69l1.218 1.51-.115.135-1.324-.862-.163.18 2.437 3.079-.158.167-1.378-.835c.012.933 1.045 1.17 1.177 1.957-1.003.331-1.941.155-2.776-.318-1.002-.569-2.026-.962-3.18-.905-.362.018-.719.178-1.078.272l-.018.233c2.696.54 4.668 2.211 6.58 3.978l-.04.158h-1.744l-.078.205 2.036 1.394c-.142.064-.237.123-.34.15-1.206.324-2.426.602-3.616.978-.64.202-1.237.552-1.832.873-.13.07-.236.309-.226.462.006.102.225.24.37.276.738.182 1.482.346 2.229.492.193.038.403-.012.605-.021l.044-.174c-.248-.19-.514-.36-.74-.572-.224-.211-.407-.465-.65-.748 1.221.008 1.696.464 1.732 1.614.465.027.936.057 1.408.08.315.016.43.12.26.347-1.006-.173-1.926-.212-2.765.437l-.167-.543-1.424.102c-.024-.104-.034-.158-.05-.21-.081-.281-1.536-1.02-1.732-.834-.592.56-1.437.9-1.652 1.804-1.101-.484-1.615.507-2.267.825-.433-.04-.798-.136-1.143-.09-.348.048-.677.237-1.014.365.205.294.367.635.625.874.413.383.419.592-.077.82-.586.27-1.17.545-1.755.819-.473.222-.555.665-.135.972.394.288.843.5 1.269.746.363.21.58.054.68-.301.237-.837.442-1.683.697-2.513.066-.213.24-.433.428-.548.089-.054.414.091.472.219.08.176.07.447-.01.63-.11.256-.335.458-.487.698-.204.324-.386.661-.61 1.05.368.07.61.102.845.165.424.114.795.043.925-.403.093-.32.1-.687.058-1.022-.091-.715-.24-1.424-.358-2.092l2.142-.623-.674.956c.019-.003-.037.014-.093.012-1.086-.05-1.106-.044-.792 1.007.105.35.337.661.511.99l.213-.033c-.268.454-.587.886-.792 1.366-.324.76-.72 1.532-.821 2.332-.221 1.757.54 3.3 1.551 4.645.706.937 1.49 1.882 2.643 2.38.286.123.504.396.774.566.497.311 1 .616 1.525.876.097.048.37-.088.45-.211.203-.315.253-.818.524-.985.981-.602.861-1.468.736-2.371-.016-.112.02-.234-.01-.34-.03-.112-.107-.21-.186-.353-.69.605-1.332 1.163-1.966 1.73-.347.31-.533.13-.581-.218-.049-.353.008-.72-.013-1.078-.01-.154-.062-.347-.168-.437-.06-.052-.27.057-.406.108-.44.161-.87.353-1.319.487-.323.096-.511-.055-.482-.42.05-.64.092-1.28.147-2.047.58 0 1.167.023 1.75-.014.171-.01.36-.164.481-.304.045-.05-.043-.313-.138-.372-.449-.279-.91-.542-1.39-.761-.125-.057-.423.011-.485.116-.288.48-.52.994-.772 1.496l.125.136-.67.038-.094-.146c.26-.335.533-.662.772-1.011.095-.14.173-.345.144-.498-.016-.08-.28-.144-.436-.158-.28-.025-.562-.007-.978-.007l1.373-2.218-1.063-.626.02-.202c.607-.185 1.205-.416 1.823-.54.362-.071.463-.204.379-.522-.089-.33-.217-.651-.288-.984-.068-.312.044-.461.407-.388.52.105 1.049.175 1.576.24.465.056.585-.127.399-.558-.105-.242-.197-.488-.294-.733l.146-.105c.197.095.41.167.588.29.685.469.67.473.818-.38.06-.346.177-.681.304-1.157l.883 1.433-1.184 2.152c-.4.21-.542.463-.236.819.556.645 1.162 1.236 1.958 1.595.321.144.557.05.605-.27.064-.424.587-.931.017-1.266-.39-.23-.928-.204-1.415-.295l-.205-.877c.012-.01.077-.086.16-.123.758-.34 1.514-.688 2.283-1.002.297-.122.494.008.43.36-.032.178-.107.346-.172.545-.448-.391-1.694-.117-2.226.528.462.219.876.489 1.327.59.16.035.412-.34.623-.528l.154.03-1.502 5.917.11.08 1.43-1.1.193.11c-.032.165-.006.39-.104.484-.594.568-.59 1.003.05 1.607.34-.17.671-.356 1.019-.501.306-.128.418-.312.288-.623-.141-.338-.286-.674-.43-1.011l.146-.114c.679.247.644 1.056 1.06 1.736.117-.344.208-.55.255-.765.061-.277.092-.56.127-.842.035-.288.06-.578.09-.867-.292.038-.582.084-.875.11-.152.012-.315.014-.46-.025-.21-.057-.409-.155-.663-.254l.867-.674 1.56-1.88.186.094c-.131 1.49-.225 2.984-.404 4.469-.177 1.47-.439 2.929-.664 4.393.94-1.221 1.734-2.457 2.52-3.698.787-1.24 1.567-2.486 2.35-3.73l.203.042c.141.984.29 1.967.403 2.954.008.07-.26.248-.395.244-.26-.008-.515-.13-.778-.169-.749-.113-1.036.022-1.22.553.042.031.083.075.133.095.088.036.18.078.272.083 1.234.062 2.184.713 3.068 1.486 1.365 1.195 1.842 2.725 1.528 4.476-.13.727-.445 1.445-1.114 1.868-.909.576-1.815 1.185-2.795 1.617-1.145.505-2.015 1.346-2.95 2.11-.371.303-.671.733-.904 1.16-.942 1.73-1.376 3.507-.31 5.364.055.095.069.293.01.35-.07.071-.255.09-.36.052-.356-.131-.749-.234-1.038-.461-1.725-1.358-3.01-3.04-3.64-5.171-.8-2.706-.7-5.328.791-7.8.313-.518.607-1.082 1.042-1.482.789-.727 1.635-1.413 2.54-1.987.541-.343.617-.787.784-1.458-.41.144-.746.18-.976.356-.871.665-1.767 1.316-2.543 2.084-1.04 1.03-1.941 2.192-2.39 3.624-.277.881-.73 1.782-.714 2.668.06 3.294.827 6.355 3.37 8.734 1.076 1.006 2.255 1.864 3.652 2.232 1.348.354 2.77.449 4.168.586 1.926.054 2.954-.239 3.9-.709.763-.315 1.45-.812 2.18-1.211.19-.105.456-.26.615-.2.312.119.574.371.989.659-.772.415-1.467.822-2.19 1.169-.672.322-.742.53-.239 1.085.23.255.493.48.713.74.088.105.172.298.13.4-.035.092-.242.153-.378.162-.36.022-.725-.01-1.085.017-.17.012-.332.109-.498.167.063.148.106.31.194.442.162.239.35.46.619.805-.38 0-.598.03-.805-.006-.468-.082-.93-.2-1.396-.296-.381-.079-.547.076-.462.463.049.223.129.44.165.664.091.567-.102.726-.62.508-.189-.08-.355-.214-.534-.32-.25-.148-.501-.292-.77-.448-.09.259-.15.425-.245.696l-1.743-1.904-.243 1.236-.156.03-.938-1.674-.188.063-.398.988c-.132-.224-.234-.345-.28-.485-.205-.613-.385-1.234-.594-1.845-.057-.167-.183-.311-.278-.465-.11.13-.225.256-.33.39-.077.096-.141.202-.21.304l-.17-.001c-.063-.435-.112-.872-.195-1.303-.058-.298-.164-.587-.249-.88-.217.22-.431.443-.652.66-.115.112-.241.214-.363.321-.118-.135-.294-.253-.343-.41-.146-.47-.225-.96-.367-1.43-.05-.165-.182-.35-.327-.422-.077-.038-.298.124-.393.244-.114.144-.162.34-.239.513l-.25-.179c-.253-.827-.5-1.655-.76-2.48-.059-.183-.162-.353-.244-.528-.139.151-.27.31-.417.452-.101.099-.212.212-.338.246-.05.014-.18-.156-.228-.262-.148-.33-.257-.677-.412-1.003-.325-.688-.67-1.366-1.005-2.049l-.204.06c-.212 1.271-.715 2.527-.077 3.869-.225-.124-.398-.252-.473-.423-.572-1.297-1.124-2.604-1.687-3.905-.035-.08-.096-.182-.166-.202-.06-.016-.19.048-.22.111-.419.827-.826 1.66-1.231 2.493-.076.157-.128.325-.191.489h-.184c-.137-.637-.284-1.273-.4-1.915-.02-.105.081-.249.158-.35.364-.487.353-.536-.215-.697-.183-.052-.367-.104-.553-.145-.723-.16-.874-.025-.76.709.076.489.184.973.278 1.46l-.182.037c-.252-.877-.934-1.64-.618-2.674.028-.092-.074-.283-.169-.343-.205-.13-.438-.234-.673-.291-.225-.055-.467-.036-.702-.049.015.233.003.473.052.699.083.38.204.752.31 1.127l-.288.07c-.158-.646-.352-1.286-.463-1.94-.104-.606-.38-.835-1.153-.728l.369 1.927c-.299-.473-.566-.959-.635-1.47-.066-.493.073-1.013.121-1.52l-.124-.12-1.248 1.317-.158-.1v-1.927c-.207.165-.322.236-.408.332-.263.291-.495.611-.774.886-.378.373-.843.687-.54 1.336.032.067-.045.185-.072.279l-.177.041c-.313-.764-.688-1.51-.921-2.298-.203-.685-.342-1.417-.336-2.128.007-.986.544-1.222 1.332-.635.436.325.792.755 1.206 1.112.124.107.32.13.484.19.005-.18.072-.387.005-.534-.656-1.427-1.596-2.666-3.14-3.109-2.005-.575-2.59-.102-2.675 1.694-.004.076-.016.153-.009.227.166 1.802.746 3.49 1.407 5.156.18.452.346.909.52 1.363l-.219.077c-1.079-1.627-1.965-3.332-2.036-5.406-.162.218-.231.43-.23.64.01 1.205-.038 2.398-.49 3.539-.157.398-.044.671.291.987.412.387.686.92 1.02 1.389l-.187.145-2.497-2.422-.167.07.189.988-.64.22c.213.301.362.567.564.783.675.723 1.035 1.62 1.215 2.545.228 1.167.78 2.076 1.661 2.83.147.126.24.316.357.476l-.15.184-1.31-.555-.13.197c.8 1.02 1.717 1.902 3.128 2.263l-1.039 1.048.126.19 3.31-.183-.571.818c.286-.024.411-.026.534-.045.583-.091 1.162-.21 1.748-.271.355-.037.632.388.619.853-.013.445-.34.354-.58.31-.742-.134-1.478-.294-2.213-.459-.434-.097-.861-.222-1.291-.334l-.104.138c.161.186.296.405.488.551.514.392 1.032.786 1.586 1.118 1.165.698 2.348 1.365 3.536 2.025.253.14.472.057.549-.276.128-.556.254-1.113.427-1.656.116-.364.311-.704.5-1.118l-.541 4.782c-.323-.289-.518-.51-.757-.664-.245-.158-.538-.348-.798-.33-.133.008-.262.43-.349.68-.054.154-.034.338-.034.509.001 1.805.374 3.552.877 5.271.125.427.391.813.592 1.217l.267-.075c-.014-.234-.011-.47-.043-.701-.1-.729-.293-1.457-.278-2.18.006-.28.442-.62.758-.782.116-.059.5.287.68.512.171.214.242.511.35.775.174.424.343.85.514 1.275l.157-.004c.086-.236.147-.485.265-.704.083-.154.223-.327.373-.373.088-.028.288.152.367.282.167.274.294.574.426.868.186.413.363.83.543 1.245.179-.177.187-.328.25-.452.088-.172.216-.324.327-.486.128.167.33.316.372.501.307 1.387.064 1.757-1.33 2.11-.147.036-.309.043-.44.11-.104.053-.17.178-.254.271l.075.169c.809-.04 1.624-.03 2.423-.143.281-.04.715-.352.741-.58.076-.639.417-.929.958-1.118.148-.052.275-.165.444-.27-.728-.784-.646-1.596-.207-2.347-.68-.317-1.322-.606-1.952-.919-.137-.068-.231-.222-.346-.337.13-.125.256-.349.391-.354.279-.012.602.026.836.165.423.252.795.592 1.189.895l.128-.104c-.102-.9-.406-1.715-1.04-2.412-.278-.304-.56-.43-.953-.26-.348.152-.699.301-1.06.414-.108.034-.256-.054-.386-.086.054-.108.082-.28.165-.313.612-.245 1.23-.482 1.859-.68.388-.124.647.061.79.45.171.464.338.937.577 1.367.394.71.79 1.431 1.289 2.065.39.497 1.186.604 1.391 1.328.013.044.082.08.132.105.545.258 1.088.521 1.638.769.754.34 1.513.667 2.27 1.001.015.007.033.022.041.038.192.364.508.242.828.274.58.058 1.222.142 1.69.444.304.196.429.374.838.248.41-.127 1.097-.243 1.278-.033.373.433.678.357 1.095.25.398-.102.805-.174 1.212-.23.11-.014.292.046.345.132.268.433.616.356.994.204.365-.146.735-.283 1.1-.43.258-.105.453-.144.565.215.217.694.407.73.937.227.096-.092.182-.195.276-.29.74-.747.94-.723 1.366.16.01.022.067.022.04.014.433-.502.877-.958 1.249-1.465.298-.408.6-.662 1.112-.41.147-.361.263-.683.409-.992.149-.315.327-.617.52-.974.462.401.74.22 1.029-.098.174-.192.428-.309.637-.472.288-.226.567-.463.933-.765-.662-.34-1.207-.631-1.762-.902-.18-.087-.384-.12-.578-.178-.035.213-.087.425-.099.639-.01.189.014.381.044.569.067.416-.113.66-.512.744-.483.1-.968.207-1.458.26-.099.011-.327-.216-.316-.313.037-.314.131-.63.25-.926.372-.928.383-.925.99-.151.03.036.1.04.214.081.172-.329.358-.65.509-.99.055-.123.062-.297.025-.429-.148-.52-.329-1.03-.48-1.55-.027-.092-.001-.228.053-.31.293-.453.615-.888.899-1.347.085-.138.08-.332.115-.5-.196.012-.465-.053-.574.05-.312.298-.56.663-.959 1.157.058-.272.047-.46.131-.58.69-.974.65-1.203-.356-1.802-.05-.03-.096-.063-.147-.088-.474-.234-.73-.092-.638.425.122.69.355 1.358.5 2.044.037.17-.078.373-.124.561l-.215-.04c-.06-.424-.066-.866-.19-1.27-.222-.716-.514-1.41-.777-2.113-.132-.096-.292-.172-.381-.298-.274-.389-.473-.248-.697.046-.297.393-.32 1.337.003 1.788.144.2.383.339.109.614-.17.17-.265.462-.46.554-.512.24-1.053.431-1.6.581-.321.089-.675.062-1.04.089.053-.42.11-.7.119-.982.038-1.213-.187-1.359-1.32-.84-.122.057-.252.244-.261.378-.034.488.009.982-.036 1.468-.014.154-.182.356-.33.42-.179.076-.413.052-.618.03-.483-.053-.634.188-.545.61.13.615.283 1.224.444 1.83.022.085.149.142.254.237.495-.648 1.204-1.132.946-2.144.826.573.827 1.261.122 1.713-.175.113-.321.27-.494.387-.3.203-.349.42-.105.708.31.367.603.75.968 1.205-.33.074-.715.232-.766.159-.28-.406-.479-.868-.714-1.328l-.866.795-.149-.11c.09-.3.201-.597.263-.904.053-.263.095-.544.062-.807-.067-.527-.386-.808-1.122-.683.287-.392.478-.617.625-.869.074-.127.144-.348.084-.447-.217-.355-1.284-.27-1.52.081-.154.23-.345.433-.52.649-.128-.192-.149-.303-.125-.404.258-1.086.93-1.88 1.784-2.555.104-.082.095-.307.138-.466-.619-.042-1.277-.233-1.843-.08-.465.125-.878.612-1.204 1.026-.282.358-.45.3-.784.11-.62-.353-.804-.254-1.065.407-.358.907-.461 1.921-1.218 2.66-.24.233-.157.53.26.495.736-.06 1.47-.145 2.2-.243.12-.016.223-.153.334-.233-.092-.105-.169-.233-.28-.31-.282-.196-.595-.348-.864-.557-.147-.114-.342-.33-.316-.46.028-.15.26-.3.436-.376.384-.163.792-.27 1.182-.42.145-.055.315-.14.39-.263.284-.46.519-.27.858.058l-2.254 1.177.025.166 3.312 1.425-.045.206c-.17.017-.343.062-.511.048-.512-.042-1.021-.135-1.533-.146-.168-.004-.485.178-.486.28-.009.618.054 1.238.096 1.901.155-.039.292-.033.357-.098.306-.307.567-.66.888-.95.767-.69 1.028-.95 1.688.132.127.208.31.383.448.586.074.108.15.244.147.366-.002.075-.165.218-.229.205-.126-.026-.279-.114-.34-.222-.198-.346-.348-.718-.537-1.07-.155-.287-.462-.427-.601-.085-.223.542-.61.887-1.02 1.258-.314.284-.205.528.223.619.149.032.305.07.453.057.581-.052.9.22.96.78.041.37.031.746.044 1.119-.327-.213-.684-.391-.975-.645-.466-.408-.82-.95-1.528-1.29l.209.918c-.684-.203-1.476-1.07-1.488-1.586l.692.14c.088-.66.16-1.263.25-1.861.068-.439-.137-.597-.513-.45-.473.185-.927.426-1.371.675-.386.215-.68.256-.98-.161-.116-.162-.466-.315-.624-.253-.32.125-.542.992-.384 1.202.363.483.376 1.04-.022 1.646l-1.153-2.412 1.014.301c-.1-1.164-.185-2.209-.288-3.251-.008-.083-.152-.226-.209-.216-.112.02-.24.109-.304.206-.215.335-.399.69-.606 1.029-.24.396-.503.728-.93.128l-.928 1.007-.235-.144.716-2.068.18-.009c.123.26.232.526.374.774.069.12.198.276.305.28.095.003.23-.164.29-.285.222-.46.413-.935.63-1.398.174-.37.06-.541-.338-.546-.418-.005-.837-.002-1.256-.014-.319-.01-.439.097-.4.443.018.155-.111.41-.247.483-.318.171-.68.26-1.035.385-.029-.14-.055-.187-.04-.212.25-.466.514-.924.755-1.395.204-.397.475-.59.95-.495.465.094.944.118 1.416.179.538.07 1.498-.997 1.335-1.512-.04-.127-.18-.259-.307-.315-.525-.23-1.063-.432-1.696-.684-.143-.724-1.187-.586-1.738-1.274l2.918-.755.1.296-2.046.866c.444.212.764.374 1.091.516.155.067.345.064.487.148.757.448.752.452 1.385-.132.14-.128.291-.244.444-.355.302-.22.413-.404.042-.703-.487-.393-.99-.8-1.364-1.295-.713-.946-1.576-1.31-2.719-.975-.036.01-.075.016-.112.021-.33.043-.503.2-.502.563.002.64.005 1.284-.057 1.92-.072.743-.222 1.479-.32 2.22-.054.4.023.731.547.653-.034.564-.878.826-1.678.512l.906-1.92-.06-.16c-.45.14-.904.272-1.35.42-.674.223-.742.355-.467.983.31.704.642 1.4 1.002 2.179-.836 0-1.565.016-2.291-.024-.077-.004-.227-.365-.187-.52.216-.845.518-1.669.72-2.517.157-.658.285-1.339.294-2.011.016-1-.542-1.478-1.544-1.493-.96-.013-1.798.248-2.285.976-.243-.243-.431-.446-.634-.632-.223-.203-.466-.384-.69-.587-.24-.219-.466-.453-.699-.68l-.141.082c0 .214-.018.43.003.642.083.84-.018.92-.805.609-.472-.186-.502-.38-.188-.88.573-.918.593-1.254-.5-1.688-1.034-.41-2.05-.87-3.039-1.378-1.01-.519-1.478-1.438-1.607-2.54-.11-.942.148-1.38 1.097-1.538 1.332-.223 2.639-.14 3.876.54.759.416 1.557.804 2.384 1.042 1.901.545 3.983.315 5.778 1.36.735.428 1.596.668 2.264 1.173 1.035.785 2.002 1.677 2.91 2.61 1.1 1.13 2.18 2.268 3.495 3.16.96.653 1.92 1.284 3.076 1.541 1.39.31 2.767.296 4.189.11 1.763-.23 3.351-.731 4.54-2.085.528-.6 1.007-1.295 1.31-2.029.471-1.134.664-2.388 1.175-3.499.575-1.248 1.305-2.44 2.087-3.574 1.057-1.534 2.65-2.22 4.462-2.372 1.953-.164 3.91-.272 5.867-.366.342-.016.712.114 1.036.253 1.12.481 1.11.491 1.805-.577.126-.194.313-.348.472-.52l.18.14c-.157.31-.327.614-.466.93-.124.282-.215.579-.32.868.368.052.735.106 1.104.153.054.007.112-.021.169-.022.382-.008.487-.177.4-.555-.043-.19.007-.437.098-.617.103-.203.327-.341.448-.538.245-.404.436-.841.693-1.236.086-.131.306-.174.525-.29-.211.38-.363.619-.482.873-.11.238-.16.506-.282.737-.409.772-.416.767.296 1.34.054.042.083.116.097.136-.356.191-.845.293-.987.571-.169.33-.04.814-.04 1.34-.292-.308-.58-.505-.718-.777-.384-.754-1.049-.64-1.686-.611-.376.017-.475.227-.347.591.143.409.26.83.35 1.253.119.551.27.666.825.534 1.232-.291 2.477-.553 3.53-1.326.045-.033.11-.038.154-.072.334-.252.666-.507.998-.762l-.085-.146c.093.009.185.023.279.026.67.022 1.553-.69 1.546-1.274-.003-.218-.118-.433-.147-.654-.052-.386-.27-.43-.566-.289-.377.18-.736.4-1.118.567-.53.23-.876.539-.604 1.177-.486-.008-.635-.151-.43-.377.464-.514.178-.94-.052-1.405-.135-.274-.223-.572-.332-.859l.193.027c.17-.188.32-.401.516-.555.155-.122.369-.242.554-.238.493.011.983.117 1.476.134.798.028.823-.033.87-.818.02-.332.139-.658.23-1.06.601.553.654.74.448 1.359-.257.776-.532 1.546-.778 2.326-.047.147-.041.354.032.48.045.077.286.11.401.065.657-.251 1.303-.53 1.952-.802.425-.178.424-.495.253-.847-.289-.593-.585-1.183-.888-1.769-.087-.167-.175-.372-.322-.462-.447-.273-.324-.592-.119-.919.223-.354.496-.678.699-1.043.18-.324.13-.57-.33-.62-.47-.052-.933-.167-1.399-.26-.37-.074-.573.054-.498.446.049.257.158.501.242.751l.336 1.006c-.6-.2-1.056-.321-1.484-.505-.39-.167-.59-.135-.675.331-.076.406-.243.795-.369 1.192l-.153-.042c-.116-.682.124-1.318.37-1.938.043-.11.353-.18.524-.156.194.028.364.195.554.281.146.066.306.101.459.15.03-.173.114-.359.078-.518-.161-.718-.383-1.422-.533-2.142-.141-.676-.22-1.365-.328-2.047l.226-.079.858 1.932c.428-.497.814-.902 1.148-1.346.227-.301.382-.658.569-.99-.388-.093-.773-.233-1.166-.268-.446-.038-.902.005-1.351.04-.13.01-.253.113-.379.173-.028-.065-.093-.175-.078-.186.138-.11.278-.257.44-.292.407-.089.826-.12 1.24-.183.437-.065.697-.236.32-.732.516-.091.568-.4.559-.81-.011-.49.043-.989.126-1.474.028-.162.205-.345.362-.43.328-.179.7-.274 1.031-.448.47-.247.918-.535 1.445-.846-.598-.478-1.096-.914-1.639-1.283-.123-.084-.455-.003-.6.115zM55.57 100.148c-24.549 0-44.52-19.972-44.52-44.52 0-24.549 19.971-44.52 44.52-44.52 24.548 0 44.52 19.971 44.52 44.52 0 24.548-19.972 44.52-44.52 44.52zm0-90.222c-25.2 0-45.702 20.502-45.702 45.702s20.502 45.701 45.702 45.701 45.701-20.502 45.701-45.701c0-25.2-20.501-45.702-45.701-45.702z" mask="url(#prefix__b)"/>
    </g>
</svg>
