<svg xmlns="http://www.w3.org/2000/svg" width="56" height="56" viewBox="0 0 56 56">
    <path fill="#FFF" d="M5.806 29.245h2.6c.587 0 .873-.71.442-1.105-.12-.11-.279-.172-.443-.172h-2.6c-.668.003-1.317.112-1.946.336-.526.194-.576.903-.08 1.164.168.085.35.098.528.035.472-.174.997-.256 1.499-.258zm29.658-4.04c.127-.125.332-.125.46 0 .126.124.126.327 0 .451l-3.003 2.95c-.127.124-.332.124-.46 0-.126-.125-.126-.327 0-.452l3.003-2.95zm-4.955 4.868c.127-.125.333-.125.46 0 .126.124.126.326 0 .451l-.293.288c-.127.124-.333.124-.46 0-.127-.125-.127-.327 0-.451l.293-.288zM44.943 9.556c.134-.023.278.016.381.118.104.102.144.242.12.374l-1.101 10.38c-.025.233-.237.403-.474.38-.238-.025-.41-.233-.386-.467l.979-9.218-15.669 15.394c-.17.166-.443.166-.612 0-.17-.167-.17-.436 0-.602L43.849 10.52l-9.383.962c-.237.023-.45-.146-.474-.38-.024-.232.149-.441.386-.465l10.565-1.082zM17.063.01H49.74c1.671 0 3.19.671 4.29 1.753 1.102 1.081 1.785 2.573 1.785 4.216V38.08c0 1.642-.683 3.134-1.784 4.216-1.1 1.081-2.62 1.753-4.291 1.753H28.26c-.02.031-.045.062-.071.09-.311.326-.812.234-1.025-.09H17.063c-1.671 0-3.19-.672-4.291-1.753-1.1-1.082-1.784-2.574-1.784-4.216V5.98c0-1.643.683-3.135 1.784-4.216C13.872.68 15.392.01 17.063.01zM49.74 1.287H17.063c-1.312 0-2.506.528-3.372 1.379-.866.85-1.403 2.023-1.403 3.313v21.99h2.616c.163 0 .322.06.442.17.43.396.145 1.106-.443 1.106h-2.615v8.836c0 1.29.537 2.462 1.403 3.313.866.85 2.06 1.379 3.372 1.379h10.001V41.15c0-.16.062-.317.174-.434.403-.424 1.126-.143 1.126.434v1.622h21.375c1.313 0 2.506-.528 3.372-1.379.866-.85 1.403-2.023 1.403-3.313V5.98c0-1.29-.537-2.463-1.403-3.313-.866-.851-2.06-1.379-3.372-1.379zm-47.91 30.39c.24-.484-.194-1.022-.728-.903-.193.046-.35.165-.438.34-.393.785-.59 1.615-.592 2.49v.266c0 .577.722.858 1.125.435.112-.118.174-.274.174-.435v-.267c.003-.68.154-1.316.46-1.926zM1.37 37.7c0-.577-.723-.858-1.125-.435-.112.118-.174.274-.174.435v2.554c0 .577.722.858 1.125.435.112-.118.174-.274.174-.435V37.7zm0 6.384c0-.578-.723-.858-1.125-.435-.112.118-.174.274-.174.435v2.554c0 .577.722.858 1.125.434.112-.117.174-.273.174-.434v-2.554zm.01 6.339c-.03-.393-.405-.666-.796-.577-.31.071-.524.354-.5.667.063.959.39 1.897.926 2.7.346.51 1.152.297 1.191-.315.007-.14-.027-.272-.106-.389-.416-.623-.666-1.342-.715-2.086zm3.436 3.955c-.248-.054-.505.036-.66.235-.286.368-.088.91.373 1.01.899.202 1.817.142 2.733.142.588 0 .874-.71.443-1.106-.12-.11-.279-.17-.443-.17-.79 0-1.656.066-2.446-.11zm6.345.11c-.588 0-.873.71-.443 1.106.12.11.279.171.443.171h2.6c.587 0 .873-.71.442-1.106-.12-.11-.279-.17-.443-.17h-2.599zm6.498 0c-.588 0-.874.71-.443 1.106.12.11.28.171.443.171h2.6c.587 0 .873-.71.442-1.106-.12-.11-.279-.17-.443-.17H17.66zm6.281-.195c-.577.183-.615.962-.058 1.197.146.059.294.067.446.021.933-.282 1.788-.815 2.46-1.51.396-.414.084-1.093-.497-1.075-.173.008-.33.075-.45.2-.516.535-1.182.95-1.9 1.167zm3.124-4.204c0 .578.723.858 1.126.435.112-.118.174-.274.174-.435v-2.554c0-.577-.723-.858-1.126-.434-.112.117-.174.273-.174.434v2.554zm0-12.768c0 .578.723.858 1.126.435.112-.118.174-.274.174-.435v-2.554c0-.577-.723-.858-1.126-.434-.112.117-.174.273-.174.434v2.554zm-.618-5.93c.283.47 1.008.388 1.176-.132.058-.176.034-.366-.062-.524-.499-.824-1.214-1.522-2.058-2.004-.172-.097-.375-.112-.56-.042-.507.194-.561.881-.09 1.148.156.083.327.203.467.309.453.34.836.764 1.127 1.246zM21.4 29.246c.588 0 .874-.71.443-1.105-.12-.11-.279-.172-.443-.172h-2.6c-.587 0-.873.71-.442 1.106.12.11.279.171.443.171h2.6z"/>
</svg>
