<svg xmlns="http://www.w3.org/2000/svg" width="56" height="56" viewBox="0 0 56 56">
    <path fill="#FFF" d="M.445 15.338c-.197 0-.373.126-.427.308-.082.275.13.549.427.549h1.777c.197 0 .373-.126.427-.309.082-.275-.13-.548-.427-.548H.445zm49.025 3.95c0 .19.13.36.32.412.285.079.569-.125.569-.411v-1.715c0-.19-.131-.36-.32-.411-.286-.079-.57.125-.57.411v1.715zM8.525 7.196h39.833v7.071H31.775v31.982h-7.333V14.266H7.858V7.195h.667zM25.108 8.48H9.192v4.5h16.583v31.983h4.667V12.98h16.583v-4.5H25.108zM50.358.432c0-.19-.13-.36-.32-.412-.285-.078-.568.125-.568.412v1.714c0 .19.13.36.32.411.285.079.569-.125.569-.411V.432zm0 4.285c0-.19-.13-.36-.32-.411-.285-.079-.568.125-.568.411v.55h-.137c-.196 0-.373.125-.427.308-.08.275.13.548.427.548h.137v.308c0 .19.13.36.32.412.285.079.569-.125.569-.412v-.308h.752c.197 0 .373-.126.427-.308.081-.275-.13-.549-.427-.549h-.752v-.549zm0 4.286c0-.19-.13-.36-.32-.412-.285-.078-.568.126-.568.412v1.714c0 .19.13.36.32.412.285.078.569-.125.569-.412V9.003zm0 4.286c0-.19-.13-.36-.32-.412-.285-.078-.568.126-.568.412v1.232c0 .19.13.36.32.411.285.079.569-.125.569-.411v-1.232zm-44.5 6c0 .19.131.359.32.411.286.079.57-.125.57-.411v-1.715c0-.19-.132-.36-.32-.411-.286-.079-.57.125-.57.411v1.715zM6.748.432c0-.19-.132-.36-.32-.412-.286-.078-.57.125-.57.412v1.714c0 .19.131.36.32.411.286.079.57-.125.57-.411V.432zm0 4.285c0-.19-.132-.36-.32-.411-.286-.079-.57.125-.57.411v.55H4.89c-.196 0-.373.125-.427.308-.081.275.13.548.427.548h.97v.308c0 .19.13.36.32.412.285.079.568-.125.568-.412v-.315c.163-.029.3-.144.347-.301.074-.25-.094-.498-.347-.542v-.556zm0 4.286c0-.19-.132-.36-.32-.412-.286-.078-.57.126-.57.412v1.714c0 .19.131.36.32.412.286.078.57-.125.57-.412V9.003zm0 4.286c0-.19-.132-.36-.32-.412-.286-.078-.57.126-.57.412V14.5c0 .19.131.36.32.411.286.079.57-.125.57-.411v-1.212zm15.694 41.594c0 .19.13.36.32.411.285.079.569-.125.569-.411v-1.715c0-.19-.131-.36-.32-.411-.285-.079-.57.125-.57.412v1.714zM23.33 1.74c0-.19-.131-.36-.32-.411-.285-.079-.57.125-.57.411v1.715c0 .19.132.359.321.411.285.079.569-.125.569-.411V1.74zm0 17.143c0-.19-.131-.36-.32-.412-.285-.078-.57.126-.57.412v1.714c0 .19.132.36.321.412.285.078.569-.126.569-.412v-1.714zm0 4.286c0-.19-.131-.36-.32-.412-.285-.078-.57.125-.57.412v1.714c0 .19.132.36.321.411.285.08.569-.125.569-.411v-1.714zm0 4.285c0-.19-.131-.36-.32-.411-.285-.079-.57.125-.57.411v1.715c0 .19.132.36.321.411.285.079.569-.125.569-.411v-1.715zm0 4.286c0-.19-.131-.36-.32-.412-.285-.078-.57.126-.57.412v1.714c0 .19.132.36.321.412.285.078.569-.126.569-.412V31.74zm0 4.286c0-.19-.131-.36-.32-.412-.285-.078-.57.126-.57.412v1.714c0 .19.132.36.321.412.285.078.569-.126.569-.412v-1.714zm0 4.285c0-.19-.131-.36-.32-.411-.285-.079-.57.125-.57.411v1.715c0 .19.132.36.321.411.285.079.569-.125.569-.411V40.31zm0 4.286c0-.19-.131-.36-.32-.412-.285-.078-.57.126-.57.412v1.714c0 .19.132.36.321.412.285.078.569-.126.569-.412v-1.714zm0 4.286c0-.19-.131-.36-.32-.412-.285-.078-.57.126-.57.412v1.714c0 .19.132.36.321.411.285.08.569-.125.569-.41v-1.715zm9.555 6c0 .19.131.36.32.411.286.079.57-.125.57-.411v-1.715c0-.19-.132-.36-.32-.411-.286-.079-.57.125-.57.412v1.714zm.89-53.143c0-.19-.132-.36-.32-.411-.286-.079-.57.125-.57.411v1.715c0 .19.131.359.32.411.286.079.57-.125.57-.411V1.74zm0 17.143c0-.19-.132-.36-.32-.412-.286-.078-.57.126-.57.412v1.714c0 .19.131.36.32.412.286.078.57-.126.57-.412v-1.714zm0 4.286c0-.19-.132-.36-.32-.412-.286-.078-.57.125-.57.412v1.714c0 .19.131.36.32.411.286.08.57-.125.57-.411v-1.714zm0 4.285c0-.19-.132-.36-.32-.411-.286-.079-.57.125-.57.411v1.715c0 .19.131.36.32.411.286.079.57-.125.57-.411v-1.715zm0 4.286c0-.19-.132-.36-.32-.412-.286-.078-.57.126-.57.412v1.714c0 .19.131.36.32.412.286.078.57-.126.57-.412V31.74zm0 4.286c0-.19-.132-.36-.32-.412-.286-.078-.57.126-.57.412v1.714c0 .19.131.36.32.412.286.078.57-.126.57-.412v-1.714zm0 4.285c0-.19-.132-.36-.32-.411-.286-.079-.57.125-.57.411v1.715c0 .19.131.36.32.411.286.079.57-.125.57-.411V40.31zm0 4.286c0-.19-.132-.36-.32-.412-.286-.078-.57.126-.57.412v1.714c0 .19.131.36.32.412.286.078.57-.126.57-.412v-1.714zm0 4.286c0-.19-.132-.36-.32-.412-.286-.078-.57.126-.57.412v1.714c0 .19.131.36.32.411.286.08.57-.125.57-.41v-1.715zM15.381 47.32v.857h-1.778v-.857h1.778zm26.666 0v.857H40.27v-.857h1.778zm-4.444 0v.857h-1.778v-.857h1.778zm-4.445 0v.857h-1.778v-.857h1.778zm-4.444 0v.857h-1.778v-.857h1.778zm-4.445 0v.857h-1.778v-.857h1.778zm-4.444 0v.857h-1.778v-.857h1.778zM.445 5.266c-.197 0-.373.126-.427.309-.082.275.13.548.427.548h1.777c.197 0 .373-.126.427-.308.082-.275-.13-.549-.427-.549H.445zm55.11.857c.197 0 .373-.126.427-.308.082-.275-.13-.549-.427-.549h-1.777c-.197 0-.373.126-.427.309-.082.275.13.548.427.548h1.777zm-8.888 0c.196 0 .372-.126.426-.308.082-.275-.13-.549-.426-.549h-1.778c-.197 0-.373.126-.427.309-.081.275.13.548.427.548h1.778zm-4.445 0c.197 0 .373-.126.427-.308.081-.275-.13-.549-.427-.549h-1.778c-.196 0-.372.126-.426.309-.082.275.13.548.426.548h1.778zm-4.444 0c.196 0 .372-.126.427-.308.081-.275-.13-.549-.427-.549H36c-.196 0-.373.126-.427.309-.081.275.13.548.427.548h1.778zm-4.445 0c.197 0 .373-.126.427-.308.082-.275-.13-.549-.427-.549h-1.777c-.197 0-.373.126-.427.309-.082.275.13.548.427.548h1.777zm-4.444 0c.197 0 .373-.126.427-.308.081-.275-.13-.549-.427-.549H27.11c-.196 0-.373.126-.427.309-.081.275.13.548.427.548h1.778zm-4.445 0c.197 0 .373-.126.427-.308.082-.275-.13-.549-.427-.549h-1.777c-.197 0-.373.126-.427.309-.082.275.13.548.427.548h1.777zm-4.444 0c.197 0 .373-.126.427-.308.081-.275-.13-.549-.427-.549h-1.778c-.196 0-.372.126-.426.309-.082.275.13.548.426.548H20zm-4.444 0c.196 0 .372-.126.426-.308.082-.275-.13-.549-.426-.549h-1.778c-.197 0-.373.126-.427.309-.081.275.13.548.427.548h1.778zm-4.445 0c.197 0 .373-.126.427-.308.082-.275-.13-.549-.427-.549H9.334c-.197 0-.373.126-.427.309-.082.275.13.548.427.548h1.777zm44.444 10.072c.197 0 .373-.126.427-.309.082-.275-.13-.548-.427-.548h-1.777c-.197 0-.373.126-.427.308-.082.275.13.549.427.549h1.777zm-4.444 0c.197 0 .373-.126.427-.309.081-.275-.13-.548-.427-.548h-1.778c-.196 0-.373.126-.427.308-.08.275.13.549.427.549h1.778zm-4.444 0c.196 0 .372-.126.426-.309.082-.275-.13-.548-.426-.548h-1.778c-.197 0-.373.126-.427.308-.081.275.13.549.427.549h1.778zm-4.445 0c.197 0 .373-.126.427-.309.081-.275-.13-.548-.427-.548h-1.778c-.196 0-.372.126-.426.308-.082.275.13.549.426.549h1.778zm-4.444 0c.196 0 .372-.126.427-.309.081-.275-.13-.548-.427-.548H36c-.196 0-.373.126-.427.308-.081.275.13.549.427.549h1.778zm-4.445 0c.197 0 .373-.126.427-.309.082-.275-.13-.548-.427-.548h-.965c-.196 0-.373.126-.427.308-.081.275.13.549.427.549h.965zm-9.722-.01c.197 0 .373-.127.427-.31.081-.274-.13-.547-.427-.547l-.944.01c-.197 0-.373.126-.427.308-.082.275.13.549.427.549l.944-.01zm-3.61.01c.196 0 .372-.126.426-.309.081-.275-.13-.548-.427-.548h-1.778c-.196 0-.372.126-.426.308-.082.275.13.549.426.549H20zm-4.445 0c.196 0 .372-.126.426-.309.082-.275-.13-.548-.426-.548h-1.778c-.197 0-.373.126-.427.308-.081.275.13.549.427.549h1.778zm-4.445 0c.197 0 .373-.126.427-.309.082-.275-.13-.548-.427-.548H9.334c-.197 0-.373.126-.427.308-.082.275.13.549.427.549h1.777zm-4.444 0c.196 0 .373-.126.427-.309.081-.275-.13-.548-.427-.548H4.889c-.196 0-.373.126-.427.308-.081.275.13.549.427.549h1.778z"/>
</svg>
