<svg xmlns="http://www.w3.org/2000/svg" width="148" height="56" viewBox="0 0 148 56">
    <g fill="none" fill-rule="evenodd">
        <path fill="#FFF" fill-rule="nonzero" d="M3.98 55.192V40.8l3.634 14.392h.866L12.142 40.8v14.392h2.135V35.954h-2.884L8.047 48.847 4.759 35.954H1.817v19.238H3.98zm16.099 0l.779-4.413h4.095l.779 4.413h2.22l-3.806-19.238h-2.51l-3.778 19.238h2.22zm4.615-6.345h-3.577l1.788-10.297 1.789 10.297zm10.503 6.345c1.923 0 3.34-.86 4.254-2.581.913-1.721 1.37-4.062 1.37-7.023 0-2.942-.461-5.283-1.384-7.023-.923-1.74-2.337-2.61-4.24-2.61h-3.663v19.237h3.663zm0-1.932h-1.5V37.887h1.5c2.23 0 3.346 2.567 3.346 7.7 0 5.115-1.116 7.673-3.346 7.673zm17.368 1.932V53.26h-4.99v-6.951h4.788v-1.933h-4.788v-6.49h4.99v-1.932h-7.153v19.238h7.153zm13.248 0V35.954h-2.164v19.238h2.164zm7.36 0V41.867l4.7 13.325h2.077V35.954h-2.163V49.02l-4.615-13.066H71.01v19.238h2.163zm25.65 0V53.26h-4.99v-6.951h4.787v-1.933h-4.787v-6.49h4.99v-1.932h-7.154v19.238h7.153zm5.167 0l.779-4.413h4.095l.779 4.413h2.22l-3.806-19.238h-2.51l-3.778 19.238h2.22zm4.615-6.345h-3.577l1.788-10.297 1.789 10.297zm9.003 6.345v-7.758h1.702l2.509 7.758h2.336l-2.826-8.249c.711-.269 1.331-.836 1.86-1.701.529-.866.793-2.067.793-3.606 0-1.73-.418-3.11-1.254-4.139-.837-1.028-1.918-1.543-3.245-1.543h-4.038v19.238h2.163zm1.586-9.69h-1.586v-7.615h1.586c.827 0 1.457.346 1.89 1.038.432.692.648 1.615.648 2.769 0 1.154-.216 2.077-.648 2.769-.433.692-1.063 1.038-1.89 1.038zm13.244 9.69V37.887h3.028v-1.933h-8.249v1.933h3.029v17.305h2.192zm9.09 0V46.28h4.614v8.912h2.164V35.954h-2.164v8.365h-4.614v-8.365h-2.163v19.238h2.163z" transform="translate(-1)"/>
        <path fill="#5AE596" d="M1.819.862H4.779V36.035000000000004H1.819zM11.378.862H14.338000000000001V36.035000000000004H11.378zM21.633.862H22.633V36.035000000000004H21.633zM127.217.862H128.21699999999998V36.035000000000004H127.217zM132.971.862H133.971V36.035000000000004H132.971zM105.557.862H106.557V36.035000000000004H105.557zM23.333.862H24.333V36.035000000000004H23.333zM45.45.807H46.45V35.980000000000004H45.45zM128.914.862H129.914V36.035000000000004H128.914zM134.667.862H135.667V36.035000000000004H134.667zM130.6.862H132.102V36.035000000000004H130.6zM107.258.862H108.258V36.035000000000004H107.258zM118.35.862H120.11999999999999V36.035000000000004H118.35zM31.445.862H33.571V36.035000000000004H31.445zM48.082.793H52.529V35.966H48.082zM91.675.862H98.765V36.035000000000004H91.675zM115.45.862H117.524V36.035000000000004H115.45zM63.658.862H65.775V36.035000000000004H63.658zM146.14.862H148.301V36.035000000000004H146.14zM70.985.862H71.985V36.035000000000004H70.985zM72.336.862H73.336V36.035000000000004H72.336zM77.791.862H78.791V36.035000000000004H77.791zM139.363.862H140.363V36.035000000000004H139.363zM78.834.862H79.944V36.035000000000004H78.834zM140.415.862H141.525V36.035000000000004H140.415z" transform="translate(-1)"/>
    </g>
</svg>
