<svg xmlns="http://www.w3.org/2000/svg" width="32" height="32" viewBox="0 0 32 32">
    <path fill="#3C3E4B" d="M6.485 21.271c3.168 3.773 6.982 6.744 11.335 8.846 1.657.782 3.873 1.71 6.343 1.87.153.006.3.013.452.013 1.658 0 2.989-.57 4.074-1.744.006-.007.02-.02.026-.033.386-.464.826-.882 1.285-1.326.313-.299.632-.61.938-.928 1.418-1.473 1.418-3.342-.013-4.768l-4-3.985c-.679-.703-1.491-1.074-2.343-1.074-.852 0-1.67.371-2.37 1.067l-2.382 2.374c-.22-.126-.446-.239-.66-.345-.265-.132-.512-.258-.731-.398-2.17-1.372-4.14-3.162-6.024-5.463-.952-1.2-1.59-2.208-2.037-3.236.626-.564 1.212-1.154 1.777-1.73.2-.206.406-.412.613-.617.719-.717 1.105-1.545 1.105-2.387 0-.843-.38-1.671-1.105-2.388l-1.984-1.975c-.233-.233-.452-.458-.679-.69-.439-.451-.898-.915-1.35-1.333C8.068.351 7.262 0 6.41 0c-.845 0-1.657.351-2.37 1.028l-2.488 2.48C.647 4.409.135 5.504.028 6.77c-.126 1.585.167 3.269.926 5.305 1.164 3.15 2.922 6.073 5.53 9.196zM1.652 6.91c.08-.882.42-1.618 1.059-2.254l2.476-2.467c.386-.371.812-.563 1.224-.563.406 0 .82.192 1.199.576.445.412.865.843 1.317 1.3.227.232.46.464.693.703l1.983 1.976c.413.411.626.829.626 1.24 0 .41-.213.829-.626 1.24-.206.205-.413.417-.619.623-.619.623-1.198 1.213-1.837 1.777l-.033.033c-.553.55-.466 1.074-.333 1.472l.02.053c.512 1.227 1.225 2.394 2.336 3.786 1.997 2.454 4.1 4.357 6.416 5.822.287.186.593.332.879.478.266.132.512.258.732.398.027.013.047.026.073.04.22.112.433.165.646.165.532 0 .879-.338.992-.45l2.489-2.48c.386-.385.805-.59 1.218-.59.506 0 .919.31 1.178.59l4.014 3.991c.798.796.792 1.658-.02 2.5-.28.298-.573.583-.886.882-.466.45-.951.915-1.39 1.439-.766.822-1.678 1.206-2.856 1.206-.113 0-.233-.006-.346-.013-2.183-.14-4.213-.988-5.738-1.71-4.14-1.996-7.774-4.828-10.789-8.422-2.482-2.977-4.153-5.749-5.258-8.72-.685-1.823-.945-3.288-.839-4.62z"/>
</svg>
