<svg xmlns="http://www.w3.org/2000/svg" width="0" height="0" style="position:absolute"><symbol id="1" viewBox="0 0 100 100"><g clip-rule="evenodd"><path fill-rule="evenodd" fill="#FFF" d="M50 100c27.5 0 50-22.5 50-50S77.5 0 50 0 0 22.5 0 50s22.5 50 50 50z"/><g fill="none" stroke="#00AFEE" stroke-width=".75" stroke-linejoin="round" stroke-miterlimit="22.926"><path d="M76.7 35.1l-7.5 34.1-26.4 4.3-15.7-10.3.7-29.9 26.3-1z"/><path d="M27.8 33.3l21.7 4.6 27.2-2.8m-27.2 2.8l-6.7 35.6m16.5-36.6l-6.6 35m4-4.2L67 65.9l4.6-20.8-10.9 1.4zm-6-1.6l-3.1.2-.7 4.6 3.1-.3zm-8.3-37.6h5.1v4.1l-5.1.2z"/></g></g></symbol><symbol id="10" viewBox="0 0 100 100"><g fill-rule="evenodd" clip-rule="evenodd"><circle fill="#FFF" cx="50" cy="50" r="50"/><g fill="#00AFEE"><path stroke="#00AFEE" stroke-width=".216" stroke-miterlimit="22.926" d="M69.1 59.9c-3.8 7-11.2 11.8-19.7 11.8-12.3 0-22.3-10-22.3-22.3 0-10 6.6-18.4 15.6-21.3-4.2 3.8-6.8 9.3-6.8 15.3 0 11.4 9.3 20.7 20.7 20.7 4.7 0 9.1-1.6 12.5-4.2z"/><path d="M54.5 26.7l.7 5.1 4.4-2.6-3.6 3.7 4.9 1.8-5.2-.5 1.7 4.9-2.9-4.3-2.8 4.3 1.6-4.9-5.2.5 4.9-1.8-3.6-3.7 4.4 2.6zm14.6 10.6l.6 4.6 3.9-2.4-3.2 3.3 4.3 1.6-4.6-.4 1.5 4.3-2.5-3.8-2.5 3.8L68 44l-4.5.4 4.2-1.6-3.1-3.3 3.9 2.4zm-14 9.2l.5 4.2 3.7-2.2-3 3.1 4 1.4-4.2-.4 1.3 4.1-2.3-3.6-2.4 3.6 1.4-4.1-4.3.4 4-1.4-2.9-3.1 3.6 2.2z"/></g></g></symbol><symbol id="11" viewBox="0 0 100 100"><path fill-rule="evenodd" clip-rule="evenodd" fill="#FFF" d="M50 100c27.5 0 50-22.5 50-50S77.5 0 50 0 0 22.5 0 50s22.5 50 50 50z"/><g clip-rule="evenodd"><circle fill-rule="evenodd" fill="#FFF" cx="50" cy="50" r="50"/><path fill="none" stroke="#00AFEE" stroke-width=".75" stroke-miterlimit="22.926" d="M16.7 27.7h66.5c1.1 0 2 .9 2 2v40.6c0 1.1-.9 2-2 2H16.7c-1.1 0-2-.9-2-2V29.7c.1-1.1.9-2 2-2z"/><path fill="none" stroke="#00AFEE" stroke-width=".75" stroke-miterlimit="22.926" d="M20.7 32.9h58.6c.5 0 .9.4.9.9v30.6c0 .5-.4.9-.9.9H20.7c-.5 0-.9-.4-.9-.9V33.8c0-.5.4-.9.9-.9z"/><path fill="none" stroke="#00AFEE" stroke-width="1.5" stroke-miterlimit="22.926" stroke-dasharray="7.4991,1.4998" d="M33.3 57.9h33.4"/><path fill-rule="evenodd" fill="#00AFEE" d="M36.8 48.1l-.1 5.7 1 .8 1-.8.1-5.7-1-.8-1 .8zm2.1-1.5l-1 .8-1-.8.1-5.6 1-.8 1 .8-.1 5.6zm9.9-6.4H41l2 1.5h5.7l1-.8-.9-.7zM43 46.6l-1 .8 1 .8h5.7l1-.8-1-.8H43zm-.4 1.8l-.1 5.4-1 .8-1-.8.1-5.4 1-.8 1 .8zm.1-6.4l-.1 4.4-1 .8-1-.8.1-5.9 2 1.5zm8.5 0l-.1 4.4-1 .8-1-.8.1-4.4 1-.8 1 .8zm3.6 11l-1 .8 1 .8h6.1l1-.8-1-.8h-6.1zm.5-12.8l-1 .8 1 .8h6.1l1-.8-1-.8h-6.1zm-.4 1.8l-.1 4.4-1 .8-1-.8.1-4.4 1-.8 1 .8zm8.4 6.4l-.1 4.4-1 .8-1-.8.1-4.4 1-.8 1 .8zm-8.1-1.8l-1 .8 1 .8h5.7l1-.8-1-.8h-5.7z"/></g></symbol><symbol id="12" viewBox="0 0 100 100"><path fill-rule="evenodd" clip-rule="evenodd" fill="#FFF" d="M50 100c27.5 0 50-22.5 50-50S77.5 0 50 0 0 22.5 0 50s22.5 50 50 50z"/><g clip-rule="evenodd" fill="none" stroke="#00AFEE" stroke-width=".75" stroke-miterlimit="22.926"><path d="M50 72.5c12.4 0 22.5-10.1 22.5-22.5S62.4 27.5 50 27.5 27.5 37.6 27.5 50 37.6 72.5 50 72.5z"/><path d="M50 69.1c10.5 0 19.1-8.6 19.1-19.1 0-10.5-8.6-19.1-19.1-19.1-10.5 0-19.1 8.6-19.1 19.1 0 10.5 8.6 19.1 19.1 19.1z"/></g><path d="M45.5 47.3l1.5.5c-.2.8-.6 1.4-1.1 1.8-.5.4-1.2.6-2 .6-1 0-1.8-.3-2.4-1s-1-1.6-1-2.8c0-1.2.3-2.2 1-2.9s1.5-1 2.5-1c.9 0 1.7.3 2.2.8.3.3.6.8.8 1.4l-1.6.3c-.1-.4-.3-.7-.6-.9s-.6-.3-1-.3c-.6 0-1 .2-1.3.6-.3.4-.5 1-.5 1.9 0 .9.2 1.6.5 2 .3.4.8.6 1.3.6.4 0 .7-.1 1-.4.4-.2.6-.6.7-1.2zm2.7 2.8v-7.5h2.4c.9 0 1.5 0 1.8.1.4.1.8.4 1.1.7.3.4.4.9.4 1.5 0 .5-.1.8-.2 1.2-.2.3-.4.6-.6.7-.3.2-.5.3-.8.4-.4.1-.9.1-1.6.1h-1v2.8h-1.5zm1.5-6.2V46h.8c.6 0 1 0 1.2-.1.2-.1.4-.2.5-.4.1-.2.2-.4.2-.6 0-.3-.1-.5-.2-.7-.2-.2-.4-.3-.6-.3-.2 0-.5-.1-1.1-.1h-.8zm5.5 6.2v-7.4h1.5v6.1h3.7v1.3h-5.2zm-15.5 7.6v.6h-.9v-.6c-.8 0-1.3-.2-1.6-.6-.3-.4-.5-.8-.5-1.3 0-.6.2-1 .5-1.3.3-.3.9-.5 1.6-.5v-.5h.9v.5c.8 0 1.3.2 1.6.6.3.3.5.8.5 1.3s-.2 1-.5 1.3c-.2.3-.8.5-1.6.5zm-.9-.8v-2.1c-.4 0-.7.1-.9.3-.2.2-.3.5-.3.8 0 .6.4 1 1.2 1zm.9 0c.3 0 .5 0 .7-.1.2-.1.3-.2.4-.3.1-.1.1-.4.1-.6 0-.7-.4-1-1.2-1v2zm2.9-3.4h.9v3.2l1.9-3.2h1v4.8h-.9v-3.1l-1.9 3.1h-1v-4.8zm5.2 0h3.4v4.8h-1v-4h-1.4v2c0 .6 0 1-.1 1.2 0 .2-.1.4-.3.5-.2.1-.4.2-.7.2h-.6v-.7h.2c.2 0 .3 0 .4-.1.1-.1.1-.2.1-.4v-3.5zm4.4 0h1v1.9h1.3c.6 0 1.1.1 1.3.4.3.3.4.6.4 1 0 .3-.1.6-.2.8-.2.2-.4.4-.6.5-.2.1-.5.1-.9.1h-2.3v-4.7zm.9 4h1.5c.1 0 .2-.1.3-.2.1-.1.1-.2.1-.4s-.1-.4-.2-.5c-.2-.1-.4-.2-.8-.2h-1v1.3zm4.3.8v-4H56v-.8h3.8v.8h-1.4v4h-1zm3 0v-4.8H62c.6 0 1 0 1.2.1.3.1.5.2.7.5.2.2.3.6.3.9 0 .3-.1.5-.2.7-.1.2-.2.4-.4.5-.2.1-.3.2-.5.2s-.6.1-1 .1h-.6v1.8h-1.1zm.9-4v1.4h.5c.4 0 .6 0 .8-.1.1-.1.2-.1.3-.2.1-.2.1-.3.1-.4 0-.2-.1-.3-.2-.4-.1-.1-.2-.2-.4-.2h-1.1z" fill="#00AFEE"/></symbol><symbol id="13" viewBox="0 0 100 100"><g clip-rule="evenodd"><path fill-rule="evenodd" fill="#FFF" d="M50 100c27.5 0 50-22.5 50-50S77.5 0 50 0 0 22.5 0 50s22.5 50 50 50z"/><path fill="none" stroke="#00AFEE" stroke-width=".75" stroke-miterlimit="22.926" d="M22.9 27.5h54.2c2.1 0 3.8 1.7 3.8 3.8v32.2c0 2.1-1.7 3.8-3.8 3.8H61.3l-6.5 5.3h-4.5c-.6 0-1-.3-1.3-.8l-.9-1.5h-5L41.8 72c-.3.4-.7.5-1.2.5H22.9c-2.1 0-3.8-1.7-3.8-3.8V31.3c0-2.1 1.7-3.8 3.8-3.8z"/><g fill-rule="evenodd" fill="#00AFEE"><path d="M30 54.9V43.1c0-1.7 1-2.8 2.3-3.2.5-.2 1-.2 1.4-.2.5 0 1 .1 1.5.3.3.1.6.3.9.4.3-.2.6-.3.9-.4.5-.2 1-.2 1.4-.2.5 0 1 .1 1.5.3 1.3.5 2.3 1.6 2.3 3.2v11.8h-2.9V43.3c0-.2-.2-.4-.4-.5-.1-.1-.3-.1-.5-.1s-.3 0-.5.1-.4.2-.4.5v11.8h-2.9v-12c0-.2-.2-.4-.4-.5-.1-.1-.3-.1-.5-.1s-.3 0-.5.1-.4.2-.4.5v11.8H30zm13.5-11.4h2.2v5h-2.2z"/><ellipse cx="44.7" cy="41.6" rx="1.5" ry="1.3"/><path d="M52.8 43.1h-2c-.4 0-.7.2-.9.4-.3.3-.4.7-.4 1.1 0 .5.2.9.4 1.1.2.3.6.4.9.4h2v2.2h-2c-1 0-1.9-.4-2.5-1.1-.6-.7-1-1.6-1-2.6s.4-2 1-2.6c.6-.7 1.6-1.1 2.5-1.1h2v2.2zm.7 5.3v-4.5c0-1.5.8-2.4 1.8-2.9.4-.2.8-.3 1.3-.3.4 0 .9.1 1.3.3 1 .4 1.8 1.4 1.9 2.9l-2.3.1c0-.5-.2-.8-.5-.9-.1-.1-.3-.1-.4-.1-.1 0-.3 0-.4.1-.3.1-.5.4-.5.8v4.5h-2.2zm11.1-7.6c1.1 0 2 .4 2.7 1.1s1.1 1.6 1.1 2.7-.4 2-1.1 2.7c-.7.7-1.6 1.1-2.7 1.1s-2-.4-2.7-1.1c-.7-.7-1.1-1.6-1.1-2.7s.4-2 1.1-2.7c.7-.7 1.7-1.1 2.7-1.1zm1.2 2.7c-.3-.3-.7-.5-1.1-.5-.4 0-.9.2-1.1.5-.3.3-.5.7-.5 1.1 0 .4.2.9.5 1.1.3.3.7.5 1.1.5.4 0 .9-.2 1.1-.5.3-.3.5-.7.5-1.1 0-.4-.2-.8-.5-1.1zM56 49.3c-2.6.1-5.1.2-6.8.4-1.7.2-2.6.5-3.2.9-.6.4-.9 1-.9 1.5s.3 1.1 1 1.5c.7.4 1.8.7 2.5.9.7.2 1 .4 1.1.6.1.2.1.5-.2.6-.3.2-.9.2-2 .2s-2.7-.1-4.3-.2c-.3.8-.6 1.6-.9 2.5 2.2 0 4.3.1 6 0 1.7 0 2.8-.1 3.7-.3.9-.2 1.5-.7 1.9-1.3.4-.6.5-1.3.3-1.8-.2-.6-.7-1-1.6-1.4-.9-.3-2.1-.5-3-.7-.8-.2-1.2-.3-1.4-.6-.2-.2-.3-.5-.1-.6.1-.2.4-.2 1.7-.3 1.3-.1 3.6-.1 5.8-.2.3-.5.3-1.1.4-1.7zm-.1 5.1c-.4 1.2-.8 2.4-1.3 3.6 1.5-.1 2.9-.1 4.4-.3 1.5-.2 3-.5 4.2-.8 1.2-.4 2.2-.8 3.1-1.4.9-.6 1.6-1.4 2-2.1.3-.7.3-1.2 0-1.6-.3-.5-.7-.9-1.2-1.2-.4-.3-.8-.4-1.2-.5-.9.4-1.8.9-2.6 1.2-.8.3-1.5.5-2.1.7-.2.5-.4.9-.8 1.3s-1.1.8-2 .9-1.6.2-2.5.2zm1.5-5.1c-.1.6-.2 1.2-.2 1.8h1.6c.4 0 .7.1.9.1.4-.3.7-.6 1.1-1 .4-.3.7-.6 1.1-.9-.8-.1-1.6-.1-2.4-.1-.7 0-1.4.1-2.1.1zm3.1 2.1c1.1-.6 2.3-1.3 3.4-1.9.2 0 .5 0 .6.1.2 0 .3.1.4.2-1.3.6-2.5 1.3-3.8 1.9-.1 0-.2-.1-.3-.1-.1-.1-.2-.2-.3-.2z"/></g></g></symbol><symbol id="14" viewBox="0 0 100 100"><g clip-rule="evenodd"><circle fill-rule="evenodd" fill="#FFF" cx="50" cy="50" r="50"/><g fill="none" stroke="#00AFEE" stroke-miterlimit="22.926"><g stroke-width=".75" stroke-linejoin="round"><path d="M67.3 49l.3 12.1-21.9 10.8-15.8-7.8V47.2"/><path d="M45.4 29.8L23.7 40.7l6.2 6.5-3-6.8 15.5 7.9 3.3 6.9 7.7.9 21.7-10.8-7.9-1.2 4.9-9.5-15.7-7.7-4.8 9.4z"/><path d="M29.9 47.2l15.8 8 21.5-11.1-15.6-7.8-16.4 8.3m10.5 10.6v16.7"/></g><path d="M51 40.4v8.3m-4.2-4.2h8.4" stroke-width="3"/></g></g></symbol><symbol id="15" viewBox="0 0 100 100"><g clip-rule="evenodd"><circle fill-rule="evenodd" fill="#FFF" cx="50" cy="50" r="50"/><path fill="none" stroke="#00AFEE" stroke-width=".75" stroke-miterlimit="22.926" d="M34.2 36.2c-.1-.5-.1-1.1-.1-1.6 0-.8.3-1.6.9-2.1.5-.6 1.3-.9 2.1-.9h.2c4.2.2 8.4.7 12.6.7 4.2 0 8.4-.4 12.6-.7h.2c1.6-.1 3.2 1.4 3 3-.2 4.3-.7 8.6-.7 12.9 0 3.8.3 7.5.6 11.2.1.5.1 1.1.1 1.6 0 .8-.3 1.6-.9 2.1-.5.6-1.3.9-2.1.9h-.2c-4.2-.2-8.4-.7-12.6-.7s-8.4.4-12.6.7h-.2c-1.6.1-3.2-1.4-3-3 .2-4.3.7-8.6.7-12.9 0-3.7-.4-7.5-.6-11.2z"/><path fill-rule="evenodd" fill="#00AFEE" d="M48.7 62.7l.2 4.9h.5v9h1.1v-9h.6l.2-4.9H50c-.4-.1-.9-.1-1.3 0z"/><ellipse fill="none" stroke="#00AFEE" stroke-width=".75" stroke-miterlimit="22.926" cx="50" cy="47.9" rx="8.6" ry="5"/><path fill-rule="evenodd" fill="#00AFEE" d="M46.9 48.3v-.4h1.5v1.3c-.2.2-.5.3-.7.4-.2.1-.5.1-.7.1-.3 0-.7-.1-.9-.2-.3-.1-.5-.4-.6-.6-.1-.3-.2-.6-.2-.9 0-.3.1-.7.2-.9.1-.3.3-.5.6-.7.3-.1.6-.2.9-.2.3 0 .5 0 .7.1.2.1.4.2.5.3.1.1.2.3.3.6l-.4.1c-.1-.2-.1-.3-.2-.4-.1-.1-.2-.2-.3-.2-.1-.1-.3-.1-.5-.1s-.4 0-.5.1c-.2.1-.3.1-.4.3-.1.1-.2.2-.2.3-.1.2-.1.4-.1.7 0 .3.1.6.2.8.1.2.3.4.5.5.2.1.4.2.6.2.2 0 .4 0 .6-.1.2-.1.3-.2.4-.2v-.7h-1.3v-.2zm2.1 1.3v-3.5h1.8c.2 0 .3.1.4.2l.3.3c.1.1.1.3.1.5 0 .3-.1.5-.3.7-.2.2-.5.3-1 .3h-.9v1.4H49v.1zm.5-1.8h.9c.3 0 .5-.1.6-.2.1-.1.2-.3.2-.5 0-.1 0-.3-.1-.4-.1-.1-.2-.2-.3-.2h-1.3v1.3zm2.6.7h.4c0 .2.1.3.1.4l.3.3c.2.1.3.1.5.1s.3 0 .5-.1c.1-.1.2-.1.3-.2.1-.1.1-.2.1-.3 0-.1 0-.2-.1-.3-.1-.1-.2-.1-.3-.2-.1 0-.3-.1-.6-.2s-.5-.1-.7-.2c-.2-.1-.3-.2-.4-.3-.1-.1-.1-.3-.1-.4 0-.2.1-.3.1-.5.1-.2.2-.3.4-.3.2-.1.4-.1.6-.1.3 0 .5 0 .7.1.2.1.3.2.5.4.1.2.2.3.2.5h-.4c0-.2-.1-.4-.2-.5-.1-.1-.3-.2-.6-.2s-.5.1-.6.2c-.1.1-.2.2-.2.4 0 .1 0 .2.1.3.1.1.3.2.7.2.4.1.6.2.8.2.2.1.4.2.4.4.1.1.1.3.1.5s-.1.4-.2.5c-.1.2-.3.3-.5.4-.2.1-.4.1-.7.1-.3 0-.6 0-.8-.1-.2-.1-.4-.2-.5-.4.2-.2.1-.5.1-.7z"/></g></symbol><symbol id="16" viewBox="0 0 100 100"><g clip-rule="evenodd"><circle fill-rule="evenodd" fill="#FFF" cx="50" cy="50" r="50"/><path fill-rule="evenodd" fill="#00AFEE" d="M23.2 63.6c-.2-1-.4-1.9-.4-4-.1-2.1 0-5.4 0-7.4.1-2 .2-2.6.7-4.2.4-1.6 1.1-4.2 2.3-7.3s2.7-7 3.9-9.1 2.1-2.6 3.9-3c1.7-.4 4.3-.7 7.2-.8 2.9-.2 6-.2 9.2-.2 3.2 0 6.3.1 9.2.2 2.9.2 5.5.5 7.2.8 1.7.4 2.6.9 3.9 3s2.8 5.9 3.9 9.1 1.8 5.8 2.3 7.3c.4 1.6.6 2.2.7 4.2.1 2 .1 5.2 0 7.4-.1 2.1-.3 3.1-.4 4-.4.5-.8 1.1-1.2 1.6h-.1c-.2.3-.4.6-.7.9-.3.4-.8.8-1.3 1.2H26.3c-.5-.4-.9-.8-1.3-1.2-.3-.3-.5-.6-.7-.9h-.1c-.2-.5-.6-1.1-1-1.6z"/><path fill-rule="evenodd" fill="#FFF" d="M50 44.2c-1.4 0-2.8-.1-5.6 0-2.7.1-6.8.4-9.9.7-3.1.3-5.2.6-7.3.9.1-1 .2-2 .5-3.2.3-1.3.8-2.8 1.4-4.6.6-1.8 1.2-3.7 1.9-5.7 2.3-.4 4.6-.8 7.7-1 3.2-.2 7.3-.2 11.3-.3 4.1 0 8.1.1 11.3.3 3.2.2 5.5.6 7.7 1 .7 2 1.3 3.9 1.9 5.7.6 1.8 1.1 3.3 1.4 4.6.3 1.3.4 2.2.5 3.2-2.1-.3-4.3-.6-7.3-.9-3.1-.3-7.1-.5-9.9-.7-2.8-.1-4.2 0-5.6 0zm12.9 13.7c.6-1.6 1.1-3.2 1.7-4.1.5-.9 1.1-1.2 2.2-1.4 1.1-.2 2.8-.4 4.1-.3 1.3.1 2.1.5 2.7 1 .6.5.9 1.2.9 2s-.3 1.6-.8 2.1-1.3.6-2.8.7c-1.4.1-3.5.2-4.9.1-1.5 0-2.3 0-3.1-.1zm-25.8 0c-.6-1.6-1.1-3.2-1.7-4.1-.5-.9-1.1-1.2-2.2-1.4-1.1-.2-2.8-.4-4.1-.3-1.3.1-2.1.5-2.7 1-.6.5-.9 1.2-.9 2s.3 1.6.8 2.1 1.3.6 2.8.7c1.4.1 3.5.1 4.9.1 1.5 0 2.3 0 3.1-.1z"/><path fill-rule="evenodd" fill="#FFF" d="M37.1 57.9c-.6-1.6-1.1-3.2-1.7-4.1-.5-.9-1.1-1.2-2.2-1.4-1.1-.2-2.8-.4-4.1-.3-1.3.1-2.1.5-2.7 1-.6.5-.9 1.2-.9 2s.3 1.6.8 2.1 1.3.6 2.8.7c1.4.1 3.5.1 4.9.1 1.5 0 2.3 0 3.1-.1zM50 54.6c-4.2.1-8.4.1-12.6.2.2.4.4.8.5 1.3h24c.2-.4.4-.8.5-1.3-4 0-8.2-.1-12.4-.2zm0 3.2c-3.7 0-7.4.1-11.2.1-.1-.3-.2-.7-.4-1h23c-.1.3-.2.7-.4 1-3.6 0-7.3-.1-11-.1zm0 4.1h8.5c0 .6.1 1.2.1 1.6 0 .4 0 .6-.1.8h-17c0-.2-.1-.4-.1-.8s0-1 .1-1.6H50z"/><path fill-rule="evenodd" fill="#00AFEE" d="M76 46.3c.1-.1.3-.3.4-.6.1-.3.2-.8.5-1.1.3-.3.8-.4 1.6-.5.8 0 2 0 2.9.2.9.2 1.4.5 1.7 1 .3.5.3 1.2.3 1.7-.1.5-.2.9-.5 1.2-.3.3-.8.5-1.4.7-.7.1-1.5.2-2.3.2h-1.9c-.5 0-.9 0-1.3-.1-.1-.7-.3-1.5-.4-2.2.1-.2.2-.4.4-.5zm-52 0c-.1-.1-.3-.3-.4-.6-.1-.3-.2-.8-.5-1.1-.3-.3-.8-.4-1.6-.5-.8 0-2 0-2.9.2-.9.2-1.4.5-1.7 1-.3.5-.3 1.2-.3 1.7.1.5.2.9.5 1.2.3.3.8.5 1.4.7.7.1 1.5.2 2.3.2h1.9c.5 0 .9 0 1.3-.1.1-.7.3-1.5.4-2.2-.1-.2-.2-.4-.4-.5z"/><path d="M76.7 49c-.4 1-.9 1.9-1.2 2.6-.3.7-.6 1.2-.9 1.5-.3.3-.6.5-.8.7M23.3 49c.4 1 .9 1.9 1.2 2.6.4.7.6 1.2.9 1.5.3.3.6.5.9.7m38.6 0c-3.1-.1-6.5-.3-8.9-.4-2.4-.1-4.2-.1-6-.1-1.8 0-3.5 0-6 .1-2.4.1-5.8.2-8.9.4m1.7 3.9c.3.5.8 1.2 1.2 1.4.4.2 1 .2 3 .2h18c2 0 2.6 0 3-.2.4-.2 1-1.2 1.3-1.7m-13.3 2c-8.2 0-16.4 0-20.6.1-4.2.1-4.5.2-4.7.6-.2.3-.4.9-.4 1.5s.2 1.4.6 2c.4.7.9 1.2 1.7 1.6.8.4 1.9.6 5.8.7 3.9.1 10.8.1 17.6.1 6.8 0 13.7 0 17.6-.1 3.9-.1 5-.3 5.8-.7.8-.4 1.3-1 1.7-1.6.4-.7.6-1.4.6-2 0-.6-.2-1.1-.4-1.5-.2-.3-.5-.5-4.7-.6-4.2-.1-12.4-.1-20.6-.1z" fill="none" stroke="#FFF" stroke-width=".75" stroke-miterlimit="22.926"/><path fill-rule="evenodd" fill="#00AFEE" d="M66.7 66.9h7.2v4c0 .9-.7 1.6-1.6 1.6h-4c-.9 0-1.6-.7-1.6-1.6v-4zm-33.4 0h-7.2v4c0 .9.7 1.6 1.6 1.6h4c.9 0 1.6-.7 1.6-1.6v-4zm12.6-31.3V34h1.7v1.5h-1.7v.1zm0 7.2v-6.3h1.7v6.3h-1.7zm3.4 0V34H53c.9 0 1.6.1 2 .2.4.2.8.4 1 .8.3.4.4.9.4 1.4 0 .7-.2 1.2-.6 1.6-.4.4-1 .7-1.7.8.4.2.7.5.9.7.2.3.6.7 1 1.4l1.1 1.7H55l-1.3-1.9c-.5-.7-.8-1.1-.9-1.3-.2-.2-.3-.3-.5-.4-.2-.1-.5-.1-.9-.1H51v3.6h-1.7v.3zm1.7-5.1h1.3c.8 0 1.4 0 1.6-.1.2-.1.4-.2.5-.4.1-.2.2-.4.2-.7 0-.3-.1-.5-.2-.7-.2-.2-.4-.3-.7-.3H51v2.2z"/></g></symbol><symbol id="17" viewBox="0 0 100 100"><g clip-rule="evenodd"><circle fill-rule="evenodd" fill="#FFF" cx="50" cy="50" r="50"/><path fill-rule="evenodd" fill="#00AFEE" d="M33.5 46.7h9.4c.4 0 .7.3.7.7v13.1c0 .4-.3.7-.7.7h-9.4c-.4 0-.7-.3-.7-.7V47.4c-.1-.4.3-.7.7-.7z"/><path fill-rule="evenodd" fill="#00AFEE" d="M36.7 43.4h2.6v3.5h-2.6zm24.5 8h5.3c.4 0 .7.3.7.7v10.3c0 .4-.3.7-.7.7h-5.3c-.4 0-.7-.3-.7-.7V52.1c0-.4.3-.7.7-.7z"/><path fill-rule="evenodd" fill="#00AFEE" d="M62.8 48.4h2.4v3.2h-2.4z"/><path fill="none" stroke="#00AFEE" stroke-width=".75" stroke-linejoin="round" stroke-miterlimit="22.926" d="M61.7 63.1h4.4v3.7h-4.4z"/><path fill="none" stroke="#00AFEE" stroke-width=".5" stroke-miterlimit="22.926" d="M63.7 63.1v1.1h-.4v.8h.9v1h-.5v.8"/><path fill-rule="evenodd" fill="#00AFEE" d="M37.5 43.5h1.3c0-.3.1-1 .2-1.3.1-1.1.3-2.1.6-3.2.3-1.2.8-2.4 1.3-3.5.5-1 1.1-2 1.8-2.9.6-.8 1.4-1.5 2.2-2.1.8-.5 1.6-.9 2.6-1.2.9-.3 1.9-.4 2.8-.5 1 0 2 0 2.9.2 1 .2 2.1.6 3 1.1.9.5 1.7 1.1 2.4 1.8.8.8 1.4 1.7 2 2.6.6 1.1 1.2 2.3 1.6 3.4.3.9.6 1.9.8 2.9.2.8.3 1.6.3 2.4.1.9 0 1.8 0 2.7v2.4h1.3v-2.4c.1-1 .1-1.9 0-2.9 0-.9-.2-1.7-.3-2.6-.2-1-.5-2.1-.9-3.1-.5-1.3-1-2.5-1.7-3.7-.6-1-1.3-2-2.2-2.9-.8-.8-1.7-1.5-2.7-2.1-1-.6-2.2-.9-3.3-1.2-1.1-.2-2.2-.3-3.3-.3-1.1 0-2.1.2-3.1.5s-2 .8-2.9 1.4c-1 .6-1.8 1.4-2.5 2.4-.8 1-1.4 2-1.9 3.1-.6 1.2-1.1 2.5-1.4 3.8-.3 1.1-.5 2.2-.7 3.4-.1.7-.2 1.4-.2 1.8zm-.7 25.4c0-.7.1-1.3.3-1.8.2-.4.4-.7.7-1 .3-.3.6-.5.9-.6.4-.2.9-.3 1.5-.3 1 0 1.9.3 2.5 1 .6.6.9 1.5.9 2.7 0 1.1-.3 2-.9 2.7-.6.6-1.4 1-2.5 1-1 0-1.9-.3-2.5-1-.6-.7-.9-1.6-.9-2.7zm1.4 0c0 .8.2 1.4.6 1.8.4.4.8.6 1.4.6.6 0 1-.2 1.4-.6.4-.4.5-1 .5-1.8s-.2-1.4-.5-1.8c-.4-.4-.8-.6-1.4-.6-.6 0-1.1.2-1.4.6-.4.4-.6 1-.6 1.8zm8.1 3.5v-5.8h-2.1v-1.2h5.6v1.2h-2.1v5.8h-1.4zm7.6-2.6v-1.2h3v2.8c-.3.3-.7.5-1.3.8-.6.2-1.1.3-1.7.3-.7 0-1.4-.2-1.9-.5s-1-.8-1.2-1.3c-.3-.6-.4-1.2-.4-1.9s.2-1.4.5-1.9c.3-.6.8-1 1.3-1.3.4-.2 1-.3 1.7-.3.9 0 1.5.2 2 .5.5.4.8.9.9 1.5l-1.4.3c-.1-.3-.3-.6-.6-.8-.3-.2-.6-.3-1-.3-.6 0-1.1.2-1.5.6-.4.4-.5 1-.5 1.7 0 .8.2 1.5.6 1.9.4.4.9.6 1.5.6.3 0 .6-.1.9-.2.3-.1.6-.3.8-.4v-.9h-1.7z"/></g></symbol><symbol id="18" viewBox="0 0 100 100"><g fill-rule="evenodd" clip-rule="evenodd"><path fill="#FFF" d="M50 100c27.5 0 50-22.5 50-50S77.5 0 50 0 0 22.5 0 50s22.5 50 50 50z"/><g fill="#00AFEE"><path stroke="#00AFEE" stroke-width="1.5" stroke-miterlimit="22.926" d="M66.4 63.3c-.4-1.3-.7-2.9-1.1-5-.4-2.1-.9-4.7-1.8-7-.8-2.3-2-4.3-2.8-6.9-.9-2.6-1.5-5.7-2.1-8.5-.6-2.7-1.1-5-1.6-6.1-.6-1.1-1.2-1.1-1.7-.7-.5.4-.8 1.2-.8 2.6 0 1.4.4 3.3.9 5.1.4 1.9.8 3.7.9 4.8 0 1.1-.3 1.6-.6 1.6-.3.1-.6-.3-1.1-1.4-.5-1.1-1.1-3.1-2-5.3-.9-2.2-2-4.6-2.9-6.1-.9-1.6-1.6-2.3-2.3-2.7-.7-.4-1.4-.4-1.9-.1-.4.3-.6 1-.4 1.9.2 1 .8 2.3 1.7 4.2.9 1.9 2 4.4 2.8 6 .7 1.7 1.1 2.5 1.1 3.1.1.5-.2.7-.5.6-.3-.1-.8-.4-1.8-2s-2.6-4.5-3.9-6.7c-1.3-2.2-2.2-3.8-3-4.6-.8-.8-1.4-.8-1.9-.6-.5.2-.8.6-.8 1.5s.4 2.3 1.3 4.1c.9 1.8 2.2 3.9 3.2 5.6 1 1.7 1.7 2.9 2.1 3.8.4.9.6 1.6.4 2-.1.4-.6.4-1.1.1-.5-.3-1.1-1.1-2.2-2.7-1.2-1.6-3-4.1-4.2-5.7-1.2-1.6-1.9-2.2-2.5-2.5-.6-.3-1.2-.1-1.5.3-.3.4-.3 1.1-.1 2.1.3 1 .8 2.4 1.7 4 .9 1.7 2.1 3.7 3.6 5.7 1.4 2 3 4.1 4.1 5.7 1.1 1.5 1.6 2.5 1.9 3.5.3 1 .4 2 .1 2.6-.3.6-1 .8-2 .6-1-.3-2.2-1-3.2-1.5s-1.9-.8-2.9-1c-1-.1-2.2-.1-3.1.1-.9.2-1.5.7-1.8 1.2-.3.5-.4 1.1-.1 1.5.2.4.8.7 1.5.9.7.1 1.6.1 2.5.4.9.3 1.9.8 3.2 1.6 1.2.7 2.6 1.7 3.7 2.5s1.8 1.5 2.8 2c1 .5 2.4.8 3.9 1 1.4.2 2.9.2 4.1.4 1.2.2 2.1.5 2.9 1.1.8.5 1.5 1.3 2.2 2 2.9-1.9 5.8-3.8 8.8-5.7-.7-1-1.3-2.1-1.7-3.4z"/><path d="M73 48.7h-5.3V51H73c-.2 1.3-.5 2.6-1.2 3.9l11.7-5-11.7-5c.6 1.2 1 2.5 1.2 3.8zM27.8 51h5.3v-2.3h-5.3c.2-1.3.5-2.6 1.2-3.9l-11.7 5 11.7 5c-.6-1.2-1-2.5-1.2-3.8z"/></g></g></symbol><symbol id="19" viewBox="0 0 100 100"><g clip-rule="evenodd"><circle fill-rule="evenodd" fill="#FFF" cx="50" cy="50" r="50"/><path fill="none" stroke="#00AFEE" stroke-width=".75" stroke-linejoin="round" stroke-miterlimit="22.926" d="M26.3 42.9h22.3v.3l6.4-2.6c1.2-.5 2.7.1 3.2 1.3s-.1 2.7-1.3 3.2l-8.3 3.4v13.9c0 .4-.4.8-.8.8h-3.7V69c0 1.4-1.1 2.5-2.5 2.5s-2.5-1.1-2.5-2.5v-5.8h-3.4V69c0 1.4-1.1 2.5-2.5 2.5s-2.5-1.1-2.5-2.5v-5.8H27c-.4 0-.8-.4-.8-.8V42.9h.1zm3.3-14.1c-.5-.5-.5-1.3 0-1.7.5-.5 1.3-.5 1.7 0l2.2 2.2c1.2-.5 2.6-.7 3.9-.7 1.4 0 2.7.3 3.9.7l2.2-2.2c.5-.5 1.2-.5 1.7 0s.5 1.2 0 1.7l-1.7 1.7c3 2 4.9 5.3 4.9 9.2v.1H26.3v-.1c0-3.8 2-7.2 4.9-9.2l-1.6-1.7zm3.9.5c-.1 0-.1 0-.2.1l.2-.1zm-1.2.5c-.1 0-.1.1-.2.1l.2-.1zm-.2.2c-.1 0-.1.1-.2.1.1-.1.2-.1.2-.1zm-.2.1c-.1 0-.1.1-.2.1m0 0c-.1.1-.3.2-.4.3.1-.1.2-.2.4-.3zm12 .3c-.1 0-.1-.1-.2-.1 0 0 .1 0 .2.1zm-.2-.2c-.1 0-.1-.1-.2-.1 0 .1.1.1.2.1z"/><path fill="none" stroke="#00AFEE" stroke-width=".75" stroke-miterlimit="22.926" d="M23 55.8c0 1.4-1.1 2.5-2.5 2.5S18 57.2 18 55.8v-9.9c0-1.4 1.1-2.5 2.5-2.5s2.5 1.1 2.5 2.5v9.9z"/><circle fill-rule="evenodd" fill="#00AFEE" cx="41.9" cy="35.2" r="1.6"/><circle fill-rule="evenodd" fill="#00AFEE" cx="33" cy="35.2" r="1.6"/><g fill="none" stroke="#00AFEE" stroke-width=".75" stroke-linejoin="round" stroke-miterlimit="22.926"><path d="M67.8 48.3c-4.2-2.4-7.7-2.4-10.4 0-4.6 4.9-4.6 11.3 0 19.1 2.3 3.5 4.3 4.8 6.3 4 3.1-1.8 5.9-1.8 8.5 0 3.1 1.1 6.1-1.7 8.8-8.4-3-1.8-4.4-4-4.4-6.6-.2-3.1 1-5.4 3.7-6.8-3.2-4.4-8.3-3.8-12.5-1.3z"/><path d="M67.8 46.2c-.2-4 1.9-6.6 6.4-7.5-.1 4.5-2.2 7-6.4 7.5z"/></g></g></symbol><symbol id="2" viewBox="0 0 100 100"><g clip-rule="evenodd"><path fill-rule="evenodd" fill="#FFF" d="M50 100c27.5 0 50-22.5 50-50S77.5 0 50 0 0 22.5 0 50s22.5 50 50 50z"/><g fill="none" stroke="#00AFEE" stroke-miterlimit="22.926"><path d="M18.4 27.5h31.3v31.3H18.4zm31.9 0h31.3v31.3H50.3z" stroke-width=".75" stroke-linejoin="round"/><path d="M17.1 64.1h65.8m-65.8 8.4h65.8m-32.9 0l6.6-8.4m-7 8.4L43 64.1m22.1 8.4l-6.6-8.4m-24 8.4l6.6-8.4m24.4 8.4l6.6-8.4m-38 8.4l-6.6-8.4m53.2 8.4l-6.6-8.4M19 72.5l6.6-8.4m7-5.3h2.8v5.3h-2.8zm31.9 0h2.8v5.3h-2.8z" stroke-width=".75"/><path d="M18.4 49.7l9.1 9.1m-9.1-14.6L33 58.8M18.4 38.7l20.1 20.1M18.4 33.2L44 58.8M18.3 27.6C28.7 38 39.1 48.5 49.6 58.9m-26-31.4l26 26m-20.5-26l20.6 20.6M34.6 27.5l15.1 15.1m-9.6-15.1l9.6 9.6" stroke-width=".5"/></g></g></symbol><symbol id="20" viewBox="0 0 100 100"><g clip-rule="evenodd"><circle fill-rule="evenodd" fill="#FFF" cx="50" cy="50" r="50"/><path fill="none" stroke="#00AFEE" stroke-width="1.5" stroke-miterlimit="22.926" d="M52 51.7c-2.7 0-4.9 2.2-4.9 4.9v2.8h19.7v-2.8c0-2.7-2.2-4.9-4.9-4.9H52z"/><path fill-rule="evenodd" fill="#00AFEE" stroke="#00AFEE" stroke-width=".75" stroke-miterlimit="22.926" d="M67.5 59.4c.9 0 1.6.6 1.7 1.5l.6 5.7c.1.5-.1.9-.4 1.3-.3.4-.8.6-1.3.6H45.9c-.5 0-.9-.2-1.3-.6-.3-.4-.5-.8-.4-1.3l.6-5.7c.1-.9.8-1.5 1.7-1.5h21zm-3.7 9.1H67v2.8c0 .7-.5 1.2-1.2 1.2H65c-.7 0-1.2-.5-1.2-1.2v-2.8zm-13.6 0H47v2.8c0 .7.5 1.2 1.2 1.2h.8c.7 0 1.2-.5 1.2-1.2v-2.8z"/><circle fill-rule="evenodd" fill="#FFF" cx="65.3" cy="64.4" r="1.7"/><circle fill-rule="evenodd" fill="#FFF" cx="48.7" cy="64.4" r="1.7"/><path fill-rule="evenodd" fill="#00AFEE" stroke="#00AFEE" stroke-width=".75" stroke-miterlimit="22.926" d="M30.2 62.2V27.5h13.1c2.3 0 4.1.1 5.3.3 1.7.3 3.1.8 4.3 1.6 1.2.8 2.1 1.9 2.8 3.3.7 1.4 1.1 3 1.1 4.7 0 2.9-.9 5.4-2.8 7.5-1.9 2-5.3 3.1-10.2 3.1h-8.9v14.2h-4.7zM34.8 44h9c3 0 5.1-.5 6.3-1.7 1.2-1.1 1.9-2.7 1.9-4.7 0-1.4-.4-2.7-1.1-3.7-.7-1-1.7-1.7-2.9-2.1-.8-.2-2.2-.3-4.3-.3h-8.9V44z"/></g></symbol><symbol id="21" viewBox="0 0 100 100"><g clip-rule="evenodd"><circle fill-rule="evenodd" fill="#FFF" cx="50" cy="50" r="50"/><path fill="none" stroke="#00AFEE" stroke-width=".75" stroke-miterlimit="22.926" d="M16.7 27.7h66.5c1.1 0 2 .9 2 2v40.6c0 1.1-.9 2-2 2H16.7c-1.1 0-2-.9-2-2V29.7c.1-1.1.9-2 2-2z"/><path fill="none" stroke="#00AFEE" stroke-width=".75" stroke-miterlimit="22.926" d="M20.6 32.7h58.9c.5 0 .9.4.9.9V65c0 .5-.4.9-.9.9H20.6c-.5 0-.9-.4-.9-.9V33.7c-.1-.5.4-1 .9-1z"/><path fill="none" stroke="#00AFEE" stroke-width="1.5" stroke-miterlimit="22.926" stroke-dasharray="7.4991,1.4998" d="M25.2 57.9h49.6"/><path fill-rule="evenodd" fill="#00AFEE" d="M28.3 53l-1 .8 1 .8h6.1l1-.8-1-.8h-6.1zm.5-12.8l-1 .8 1 .8h6.1l1-.8-1-.8h-6.1zm-.3 1.8l-.1 4.4-1 .8-1-.8.1-4.4 1-.8 1 .8zm8.3 6.4l-.1 4.4-1 .8-1-.8.1-4.4 1-.8 1 .8zm-8.1-1.8l-1 .8 1 .8h5.7l1-.8-1-.8h-5.7zM49.2 42l-1-.8-1 .8-.1 4.6 1 .8 1-.8.1-4.6zm-8.4 0l-1-.8-1 .8-.1 4.6 1 .8 1-.8.1-4.6zm8.3 6.1l-.1 4.7-1 .7-1-.7.1-4.7 1-.8 1 .8zm-8.4 0l-.1 4.7-1 .7-1-.7.1-4.7 1-.8 1 .8zm.2 4.9l-1 .8 1 .8h5.8l1-.8-1-.8h-5.8zm.2-12.8h5.8l1 .8-1 .8h-5.8l-1-.8 1-.8zm18.3 7.9l1-.8 1 .8-.1 5.7-1 .8-1-.8.1-5.7zm-8.4 0l1-.8 1 .8-.1 5.7-1 .8-1-.8.1-5.7zm8.5-7.2l-.1 5.7 1 .8 1-.8.1-5.7-1-.8-1 .8zm-8.4 0l-.1 5.7 1 .8 1-.8.1-5.7-1-.8-1 .8zm6.5 5.7l-4.1-4.5v-1.2h1.3l4.1 4.4v1.2h-1.3v.1zm8 0l-1 .8 1 .8h5.7l1-.8-1-.8h-5.7zm6.1-.3l.1-5.4 1-.8 1 .8-.1 5.4-1 .8-1-.8zm-8.5 0l.1-5.4 1-.8 1 .8-.1 5.4-1 .8-1-.8zm8.4 6.5l.1-4.4 1-.8 1 .8-.1 4.4-1 .8-1-.8zm-6.4.2l-1 .8 1 .8h6.1l1-.8-1-.8h-6.1z"/></g></symbol><symbol id="22" viewBox="0 0 100 100"><g clip-rule="evenodd"><circle fill-rule="evenodd" fill="#FFF" cx="50" cy="50" r="50"/><g stroke-width=".75" stroke-miterlimit="22.926"><path fill-rule="evenodd" fill="#00AFEE" stroke="#00AFEE" d="M31.5 30.8c1.7-.2 3.6-.2 5.6 0l27.6 4.6c2.4.5 2.2 2.7.7 3.1l-6.3 1.8c-.3.1-.7.2-1 .3v9.6c-.2.2-.4.4-.8.4-.4.1-1.1 0-2.1.1s-2.3.4-3.3.8c-.9.3-1.5.7-2 .9-.1 0-.1.1-.2.1-.5.2-.9.1-1.5 0l1.2 3.4c.7.1 1.4.1 2.1.3.6.2 1.2.4 1.6.8.4.4.5 1 .7 1.5.6 0 1.2.1 1.5.3.4.2.5.5.6 1.2.1.6.1 1.5.2 2.6l.2 3.5 2 .4.2.1-.1 1-9.4 4.5c-.5 0-1 0-1.5.1-1.9.1-3.7.2-5.1.1-.8 0-1.4-.1-2-.2-.8-.1-1.6-.3-2.7-.7-1.9-.6-4.6-1.7-6.3-2.2-.1 0-.2-.1-.3-.1-1.4-.4-1.9-.4-2.4-.4l-.2-7.3c.4-.3.9-.6 1.2-.7.4-.1.7-.1 1-.1h.4c.2 0 .5.1.8.1.3-.3.6-.6.9-.7.3-.1.5-.2.6-.4.2-.2.3-.7.6-1.1.2-.2.4-.4.5-.6.2-.2.3-.4.5-.6.1-.2.1-.3.2-.5.1-.3.1-.7.1-1 .7-.3 1.5-.5 2.2-.9.7-.4 1.5-.9 2.2-1.5l.8-2.1h-4.7c-.3 0-.5-.1-.6-.2-.3-.2-.5-.4-.6-.8-.1-.2-.1-.4-.2-.6-.1-.2-.1-.4-.2-.6-.2-.4-.4-.6-.6-.8-.2-.2-.5-.2-.7-.3l.1-7.9c-.1-.2-.1-.4 0-.6.1-.2.2-.4.4-.5.2-.1.4-.2.7-.3.4-.1.9-.2 1.4-.3l-8.6-1.6c-1.9-.3-3.9-2.6-1.6-4.1.8-.5 1.6-.9 2.5-1.3-.1-.2-.2-.4-.4-.6-.3-.3-.8-.6-1-1-.2-.4-.2-1 .2-1.4.4-.4 1.1-.7 2-.8.9-.1 1.9 0 3 .1v3.1z"/><g fill="none" stroke="#FFF"><path d="M34.1 39c-.4.1-.7.1-1 .4-.2.2-.4.7-.2 1.1.2.4.7.8 1 1.2.3.4.4.9.7 1.2.4.3 1 .6 2.3.7 1.3.1 3.2.2 4.9.3 1.7.2 3.3.5 4.2.5.9 0 1-.3 1.3-.5.3-.2.7-.2 1-.1.4.1.7.3 1.2.4.5.1 1.1-.1 2-.3.8-.2 1.9-.6 3.1-.8 1.2-.2 2.7-.3 4.1-.4m-8.9 10.2c-.2 0-1.4-.5-1.7-.5-.5-.2-1.2-.5-2.4-.7-1.2-.2-2.8-.2-4.5-.2h-1.6c.1 1-.1 1.9 0 2.6.1.8.2 1.4.2 2 0 .6-.1 1.2-.2 1.6-.1.4-.2.7-.3 1-.1.2-.2.4-.3.5m10.8-15v9.1m-3.7-8.9v7.4m-11.7-9.2l-.1 9m1.4-8.2l.1 8.8M31 60.6c3.1.7 6.3 1.4 9.4 2.1 0 3.4 0 6.7-.1 10.1M31 60.2c0 3.2 0 6.4.1 9.6m9.4-7c.5 0 1.1.1 1.6 0s.9-.4 1.5-.6c.6-.1 1.4-.1 2 0 .7.1 1.3.3 1.9.4.3-.4.6-.7.8-1.2.2-.5.3-1.1.4-1.6.1-.5.1-.9.4-1.2.2-.3.7-.5 1.1-.7.5-.2 1.1-.4 1.6-.6.6-.2 1.1-.4 1.7-.5m-6 5.8v10.2m0-2.4l9.6-5.1"/><path d="M33.8 58c1.8.4 3.5.9 5.3 1.3-.1.2-.3.4-.4.6.7.1 1.3.2 2 .4l.3-.6c2.5.4 5 .9 7.5 1.3m-13.9-5.1l5.1.9"/><path d="M42.3 51.6c-.2.9-.4 1.7-.5 2.6-.1.9-.2 1.7-.2 2.4s0 1.3-.1 1.9c-.1.6-.5 1.2-.8 1.8m2.5-8.7c0 1.2 0 2.3.1 3.3 0 1 0 2-.1 2.8-.1.8-.3 1.5-.6 2.2m.6-2.2c2 .3 3.9.6 5.9.9m-5.8-6.1c.8.1 1.6.2 2.2.3.6.1 1.1.3 1.4.5.3.3.5.7.7 1.2.2.5.3 1.2.5 1.6.2.4.5.6 1 .8.5.2 1.2.4 1.9.6"/><ellipse transform="rotate(14.798 51.408 60.777)" cx="51.4" cy="60.8" rx="1.6" ry="1.8"/><path d="M31.5 35.7v-7.8c-1-.1-2.1-.2-3-.1-.9.1-1.6.4-2 .8-.4.4-.4 1-.2 1.4.2.4.7.7 1 1 .3.3.5.6.5.9-.1.3-.4.6-.7.9-.3.4-.6.8-.7 1.2-.1.4-.1.9-.1 1.3"/></g></g><path fill-rule="evenodd" fill="#00AFEE" d="M73.5 28l-8.1 28.5 5.5-4.7-3.2 18 8.1-25.9-5.4 5z"/></g></symbol><symbol id="23" viewBox="0 0 100 100"><g clip-rule="evenodd"><path fill-rule="evenodd" fill="#FFF" d="M50 100c27.5 0 50-22.5 50-50S77.5 0 50 0 0 22.5 0 50s22.5 50 50 50z"/><path fill="none" stroke="#00AFEE" stroke-width=".75" stroke-miterlimit="22.926" d="M26.8 42.6h8v12.2c0 1.4 1.1 2.5 2.5 2.5H49c.3 0 .6-.1.8-.4l1-1.1h3.3l.6 1c.2.3.5.5.9.5h3l4.3-3.5h2.4v12.7c0 1.4-1.1 2.5-2.5 2.5H52.2L48 72.5h-3c-.4 0-.7-.2-.9-.5l-.6-1h-3.3l-1 1.1c-.2.2-.5.4-.8.4H26.8c-1.4 0-2.5-1.1-2.5-2.5V45.1c0-1.3 1.1-2.5 2.5-2.5z"/><g fill-rule="evenodd" fill="#00AFEE"><path d="M32.4 61.9v-7.5c0-1.1.7-1.8 1.5-2 .3-.1.6-.2.9-.2.3 0 .6.1.9.2.2.1.4.2.5.3.2-.1.4-.2.5-.3.3-.1.6-.2.9-.2.3 0 .6.1.9.2.8.3 1.5 1 1.5 2.1V62h-1.9v-7.5c0-.1-.1-.3-.3-.3-.1 0-.2-.1-.3-.1h-.3c-.1 0-.2.2-.2.3v7.5h-1.9v-7.5c0-.1-.1-.2-.3-.3.2-.1.1-.1 0-.1h-.3c-.1 0-.2.2-.2.3v7.5h-1.9zm8.6-7.3h1.4v3.1H41z"/><ellipse cx="41.7" cy="53.4" rx=".9" ry=".8"/><path d="M46.8 54.3h-1.3c-.2 0-.4.1-.6.3-.2.2-.3.4-.3.7 0 .3.1.5.3.7.2.2.4.3.6.3h1.3v1.4h-1.3c-.6 0-1.2-.3-1.6-.7-.4-.4-.6-1-.6-1.7 0-.6.2-1.2.6-1.7.4-.4 1-.7 1.6-.7h1.3v1.4zm.5 3.4v-2.9c0-.9.5-1.5 1.1-1.8.3-.1.5-.2.8-.2.3 0 .5.1.8.2.6.3 1.2.9 1.2 1.8h-1.4c0-.3-.2-.5-.3-.6-.1 0-.2-.1-.3-.1-.1 0-.2 0-.2.1-.2.1-.3.3-.3.5v2.9h-1.4zm7-4.8c.7 0 1.3.3 1.7.7a2.413 2.413 0 0 1 0 3.4 2.413 2.413 0 0 1-3.4 0 2.413 2.413 0 0 1 0-3.4c.4-.4 1-.7 1.7-.7zm.7 1.7c-.2-.2-.4-.3-.7-.3-.3 0-.5.1-.7.3-.2.2-.3.4-.3.7 0 .3.1.5.3.7.2.2.4.3.7.3.3 0 .5-.1.7-.3.2-.2.3-.4.3-.7 0-.2-.1-.5-.3-.7zm-6.2 3.7c-1.6.1-3.2.1-4.3.2-1.1.1-1.6.3-2 .6-.4.3-.5.6-.5 1 0 .3.2.7.6.9.4.3 1.2.4 1.6.6.4.1.6.2.7.4.1.1.1.3-.1.4-.2.1-.6.1-1.3.1-.7 0-1.7-.1-2.7-.1-.2.5-.4 1-.6 1.6H44c1.1 0 1.8 0 2.3-.2.6-.2 1-.4 1.2-.8.2-.4.3-.8.2-1.2-.1-.4-.4-.7-1-.9-.6-.2-1.4-.3-1.9-.4-.5-.1-.8-.2-.9-.3-.1-.1-.2-.3-.1-.4.1-.1.3-.1 1.1-.2.8 0 2.3-.1 3.7-.1.2-.5.2-.8.2-1.2zm0 3.2c-.3.8-.5 1.5-.8 2.3.9 0 1.9-.1 2.8-.2.9-.1 1.9-.3 2.7-.5.8-.2 1.4-.5 2-.9.6-.4 1-.9 1.3-1.3.2-.4.2-.7 0-1-.2-.3-.5-.6-.7-.8-.3-.2-.5-.2-.7-.3-.6.3-1.1.6-1.6.8-.5.2-.9.3-1.4.5-.1.3-.2.6-.5.8-.3.3-.7.5-1.2.6h-1.9zm.9-3.2c-.1.4-.1.8-.2 1.1h1c.3 0 .4 0 .6.1.2-.2.5-.4.7-.6.2-.2.5-.4.7-.6-.5 0-1-.1-1.5-.1-.4 0-.8.1-1.3.1zm2 1.3c.7-.4 1.4-.8 2.2-1.2h.4c.1 0 .2.1.2.1l-2.4 1.2c-.1 0-.1-.1-.2-.1-.1.1-.1 0-.2 0z"/></g><path fill-rule="evenodd" fill="#FFF" stroke="#00AFEE" stroke-width=".75" stroke-miterlimit="22.926" d="M37.3 27.5h36c1.4 0 2.5 1.1 2.5 2.5v21.4c0 1.4-1.1 2.5-2.5 2.5H62.8l-4.3 3.5h-3c-.4 0-.7-.2-.9-.5l-.6-1h-3.3l-1 1.1c-.2.2-.5.4-.8.4H37.3c-1.4 0-2.5-1.1-2.5-2.5V30c0-1.4 1.1-2.5 2.5-2.5z"/><g fill-rule="evenodd" fill="#00AFEE"><path d="M43.1 45.6v-7.5c0-1.1.7-1.8 1.5-2 .3-.1.6-.2.9-.2.3 0 .6.1.9.2.2.1.4.2.5.3.2-.1.4-.2.5-.3.3-.1.6-.2.9-.2.3 0 .6.1.9.2.8.3 1.5 1 1.5 2.1v7.5H49v-7.5c0-.1-.1-.3-.3-.3-.1 0-.2-.1-.3-.1h-.3c-.1 0-.2.2-.2.3v7.5H46v-7.5c0-.1-.1-.2-.3-.3-.1 0-.2-.1-.3-.1h-.3c-.1 0-.2.2-.2.3v7.5h-1.8zm8.6-7.2h1.4v3.1h-1.4z"/><ellipse cx="52.5" cy="37.2" rx=".9" ry=".8"/><path d="M57.6 38.1h-1.3c-.2 0-.4.1-.6.3-.2.2-.3.4-.3.7 0 .3.1.5.3.7.2.2.4.3.6.3h1.3v1.4h-1.3c-.6 0-1.2-.3-1.6-.7-.4-.4-.6-1-.6-1.7 0-.6.2-1.2.6-1.7.4-.4 1-.7 1.6-.7h1.3v1.4zm.4 3.4v-2.9c0-.9.5-1.5 1.1-1.8.3-.1.5-.2.8-.2.3 0 .5.1.8.2.6.3 1.2.9 1.2 1.8h-1.4c0-.3-.2-.5-.3-.6-.1 0-.2-.1-.3-.1-.1 0-.2 0-.2.1-.2.1-.3.3-.3.5v2.9H58zm7.1-4.8c.7 0 1.3.3 1.7.7a2.413 2.413 0 0 1 0 3.4 2.413 2.413 0 0 1-3.4 0 2.413 2.413 0 0 1 0-3.4c.4-.4 1-.7 1.7-.7zm.7 1.7c-.2-.2-.4-.3-.7-.3-.3 0-.5.1-.7.3-.2.2-.3.4-.3.7 0 .3.1.5.3.7.2.2.4.3.7.3.3 0 .5-.1.7-.3.2-.2.3-.4.3-.7 0-.3-.1-.5-.3-.7zm-6.2 3.7c-1.6.1-3.2.1-4.3.2-1.1.1-1.6.3-2 .6-.4.3-.5.6-.5 1 0 .3.2.7.6.9.4.3 1.2.4 1.6.6.4.1.6.2.7.4.1.1.1.3-.1.4-.2.1-.6.1-1.3.1-.7 0-1.7-.1-2.7-.1-.2.5-.4 1-.6 1.6h3.8c1.1 0 1.8 0 2.3-.2.6-.2 1-.4 1.2-.8.2-.4.3-.8.2-1.2-.1-.4-.4-.7-1-.9-.6-.2-1.4-.3-1.9-.4-.5-.1-.8-.2-.9-.3-.1-.1-.2-.3-.1-.4.1-.1.3-.1 1.1-.2.8 0 2.3-.1 3.7-.1.1-.5.2-.9.2-1.2zm-.1 3.2c-.3.8-.5 1.5-.8 2.3.9 0 1.9-.1 2.8-.2.9-.1 1.9-.3 2.7-.5.8-.2 1.4-.5 2-.9.6-.4 1-.9 1.3-1.3.2-.4.2-.7 0-1-.2-.3-.5-.6-.7-.8s-.5-.2-.7-.3c-.6.3-1.1.6-1.6.8-.5.2-.9.3-1.4.5-.1.3-.2.6-.5.8-.3.3-.7.5-1.2.6h-1.9zm1-3.2c-.1.4-.1.8-.2 1.1h1c.3 0 .4 0 .6.1.2-.2.5-.4.7-.6.2-.2.5-.4.7-.6-.5 0-1-.1-1.5-.1-.4 0-.9.1-1.3.1zm2 1.3c.7-.4 1.4-.8 2.2-1.2h.4c.1 0 .2.1.2.1l-2.4 1.2c-.1 0-.1-.1-.2-.1h-.2z"/></g></g></symbol><symbol id="24" viewBox="0 0 100 100"><g clip-rule="evenodd"><circle fill-rule="evenodd" fill="#FFF" cx="50" cy="50" r="50"/><g stroke-miterlimit="22.926"><path fill="none" stroke="#00AFEE" stroke-width="2" d="M89.5 72.5H11.2"/><path fill-rule="evenodd" fill="#00AFEE" stroke="#FFF" stroke-width=".75" d="M16.1 27.5H84v3.2H16.1zm16.6 3.2h35.1v41.8H32.7z"/><path fill-rule="evenodd" fill="#FFF" stroke="#00AFEE" stroke-width=".75" d="M34.8 33h31v39.5h-31z"/><path fill-rule="evenodd" fill="#00AFEE" stroke="#FFF" stroke-width=".75" d="M58.4 30.7h17.9v41.8H58.4zm-34.1 0h17.9v41.8H24.3z"/><path fill-rule="evenodd" fill="#FFF" stroke="#00AFEE" stroke-width=".75" d="M59.5 31.3h15.7v40.5H59.5zm-34.1 0h15.7v40.5H25.4z"/><path fill-rule="evenodd" fill="#00AFEE" stroke="#FFF" stroke-width=".5" d="M46.8 28.7h7v2.9h-7z"/><path d="M47.4 32.2h5.8l15.9 39.6H31.6zm2.9 0v40.3m1.2-40.3l11.4 39.6M49.1 32.2L37.7 71.8m12.6-39.6l5.5 39.6m-5.5-39.6l-5.5 39.6" fill="none" stroke="#F00" stroke-width=".75"/></g><path fill="none" stroke="#00AFEE" stroke-width="2" stroke-miterlimit="22.926" d="M24.1 25l52 52m-52 0l52-52"/></g></symbol><symbol id="25" viewBox="0 0 100 100"><g clip-rule="evenodd"><path fill-rule="evenodd" fill="#00AFEE" d="M50 100c27.5 0 50-22.5 50-50S77.5 0 50 0 0 22.5 0 50s22.5 50 50 50z"/><g fill="none" stroke="#FFF" stroke-miterlimit="22.926"><path stroke-width=".75" d="M37.4 43.4c-4 0-7.3 2.7-7.3 6v3.5h29.6v-3.5c0-3.3-3.3-6-7.3-6h-15zm23.3 9.5c1.3 0 2.4.9 2.5 2l.9 7.7c.1.7-.1 1.3-.6 1.8s-1.2.8-1.9.8H28.1c-.8 0-1.4-.3-1.9-.8s-.7-1.1-.6-1.8l.9-7.7c.1-1.2 1.2-2 2.5-2h31.7z"/><path stroke-width=".75" d="M55.1 65.1h4.8v5.6c0 1-.8 1.8-1.8 1.8H57c-1 0-1.8-.8-1.8-1.8v-5.6zm-20.5 0h-4.8v5.6c0 1 .8 1.8 1.8 1.8h1.1c1 0 1.8-.8 1.8-1.8v-5.6zm22.7-3.2c1.4 0 2.6-1.2 2.6-2.6 0-1.4-1.2-2.6-2.6-2.6-1.4 0-2.6 1.2-2.6 2.6 0 1.4 1.2 2.6 2.6 2.6zm-24.9 0c1.4 0 2.6-1.2 2.6-2.6 0-1.4-1.2-2.6-2.6-2.6-1.4 0-2.6 1.2-2.6 2.6 0 1.4 1.1 2.6 2.6 2.6z"/><path d="M54.8 39.3c-.2 0-.4-.2-.4-.4s.2-.4.4-.4c1 0 2.1.2 3 .5.9.3 1.8.8 2.6 1.4.8.6 1.5 1.3 2 2.2.5.8 1 1.8 1.3 2.8.1.2-.1.4-.3.5-.2.1-.4-.1-.5-.3-.3-.9-.7-1.8-1.2-2.6s-1.1-1.4-1.8-2c-.7-.6-1.5-1-2.4-1.3-.8-.2-1.7-.3-2.7-.4zm14.4 5c.1.2-.1.4-.3.5-.2.1-.4-.1-.5-.3-.4-1.6-1.1-3-1.9-4.3-.9-1.3-1.9-2.5-3.2-3.4-1.2-1-2.6-1.7-4.1-2.2-1.5-.5-3-.8-4.7-.8-.2 0-.4-.2-.4-.4s.2-.4.4-.4c1.7 0 3.3.3 4.9.9 1.6.5 3 1.3 4.3 2.4 1.3 1 2.4 2.2 3.3 3.6 1 1.3 1.7 2.8 2.2 4.4zm5.2-1.3c.1.2-.1.4-.3.5-.2.1-.4-.1-.5-.3-.6-2.1-1.6-4-2.8-5.8-1.2-1.8-2.7-3.3-4.4-4.7-1.7-1.3-3.6-2.4-5.6-3.1-2-.7-4.1-1.2-6.3-1.3-.2 0-.4-.2-.4-.4s.2-.4.4-.4c2.2.1 4.5.6 6.5 1.3 2.1.8 4.1 1.9 5.8 3.2 1.8 1.4 3.3 3 4.6 4.9 1.4 1.9 2.4 3.9 3 6.1z" stroke-width=".5"/></g></g></symbol><symbol id="26" viewBox="0 0 100 100"><g clip-rule="evenodd"><path fill-rule="evenodd" fill="#00AFEE" d="M50 100c27.5 0 50-22.5 50-50S77.5 0 50 0 0 22.5 0 50s22.5 50 50 50z"/><g fill="none" stroke="#FFF" stroke-width=".75" stroke-miterlimit="22.926"><path d="M40.2 63.4L67 51.8c.5-.2.7-.8.5-1.2l-9.7-22.5c-.2-.5-.8-.7-1.2-.5L29.8 39.1c-.5.2-.7.8-.5 1.2L39 62.9c.2.4.7.7 1.2.5z"/><path stroke-linejoin="round" d="M28.506 60.259L23.53 48.682l4.135-1.777 4.974 11.577z"/><path d="M51.6 68.3h12.1v4.2H70V59.1h-6.3v3.4h-6.1v-6.6l-6 2.6zM32.5 47.8l2.8 6.6-3.2 2.7-3.8-8.8zm17.6-12.6l1.5 3.6c.2.4.7.6 1.1.4l4.6-2c.4-.2.6-.7.4-1.1l-1.5-3.6c-.2-.4-.7-.6-1.1-.4l-4.6 2c-.4.2-.6.6-.4 1.1z"/></g></g></symbol><symbol id="27" viewBox="0 0 100 100"><g clip-rule="evenodd"><path fill-rule="evenodd" fill="#00AFEE" d="M50 100c27.5 0 50-22.5 50-50S77.5 0 50 0 0 22.5 0 50s22.5 50 50 50z"/><g fill="none" stroke="#FFF" stroke-width=".75" stroke-linecap="round" stroke-linejoin="round" stroke-miterlimit="22.926"><path d="M57.2 27.8l-6 17.9L63 44.6 43.7 72.5"/><path d="M55.1 27.5l-17.4 28 10.7-.8-6.9 17.7L59 47l-10.6 1z"/></g></g></symbol><symbol id="28" viewBox="0 0 100 100"><style>.st0{fill:#00b0f0}.st1{fill:#fff}</style><path class="st0" d="M50 100c27.5 0 50-22.5 50-50S77.5 0 50 0 0 22.5 0 50s22.5 50 50 50z" fill="#00b0f0" id="Слой_2"/><g id="иконка"><path class="st1" d="M80.9 78.6H19.1c-1.2 0-2.1-.9-2.1-2.1V34.6c0-1.2.9-2.1 2.1-2.1h3.5v.8h-3.5c-.7 0-1.3.6-1.3 1.3v41.9c0 .7.6 1.3 1.3 1.3h61.8c.7 0 1.3-.6 1.3-1.3V34.6c0-.7-.6-1.3-1.3-1.3h-3.5v-.8h3.5c1.2 0 2.1.9 2.1 2.1v41.9c0 1.2-1 2.1-2.1 2.1z" fill="#fff"/><path class="st1" d="M49 76.7c-6.1 0-14.2-4-18.3-15.6l-7.4-22.9c-1.2-4.5-1.7-8.1-1.6-10.7.2-2.2.9-2.4 3.2-3l.3-.1c9.1-2.3 19.3-2.8 24.6-2.9 5.3.1 15.5.7 24.6 2.9l.3.1c2.4.6 3.1.8 3.2 3 .2 2.6-.3 6.2-1.5 10.7L69 61.1C65 73.2 56.2 77 50 76.6c-.3 0-.6.1-1 .1zm1-54.6c-5.2.1-15.4.6-24.4 2.9l-.3.1c-2.3.6-2.6.6-2.7 2.3-.2 2.5.4 6.1 1.5 10.4l7.4 22.9C35.6 72.6 44 76.3 50 75.9c6 .4 14.4-3.3 18.5-15.1l7.4-22.9c1.2-4.3 1.7-7.9 1.5-10.4-.1-1.7-.4-1.7-2.7-2.3l-.3-.1c-9-2.3-19.2-2.8-24.4-3z" fill="#fff"/><path class="st1" d="M23.4 36.4l-.2-.7c14.1-4 28-5 41.2-2.9l-.1.7c-13.2-2-27-1.1-40.9 2.9zm53.2 0c-.8-.3-1.7-.5-2.6-.7l.2-.7c.8.2 1.7.5 2.6.8l-.2.6zM22.3 28l-.2-.7c19.2-5.7 38-5.7 55.8 0l-.2.7c-17.7-5.7-36.3-5.7-55.4 0z" fill="#fff"/><path class="st1" d="M69.4 39c-3 0-5.5-2.5-5.5-5.5s2.5-5.5 5.5-5.5 5.5 2.5 5.5 5.5-2.5 5.5-5.5 5.5zm0-10.3c-2.6 0-4.7 2.1-4.7 4.7s2.1 4.7 4.7 4.7 4.7-2.1 4.7-4.7c0-2.5-2.1-4.7-4.7-4.7z" fill="#fff"/><path class="st1" d="M69.9 35.3c-1.6 0-2.9-1.3-2.9-2.9s1.3-2.9 2.9-2.9 2.9 1.3 2.9 2.9-1.3 2.9-2.9 2.9zm0-5.1c-1.2 0-2.2 1-2.2 2.2s1 2.2 2.2 2.2 2.2-1 2.2-2.2-1-2.2-2.2-2.2zM50 69.3c-6.9 0-12.6-5.6-12.6-12.6S43.1 44.1 50 44.1c6.9 0 12.6 5.6 12.6 12.6S56.9 69.3 50 69.3zm0-24.4c-6.5 0-11.8 5.3-11.8 11.8 0 6.5 5.3 11.8 11.8 11.8s11.8-5.3 11.8-11.8c0-6.5-5.3-11.8-11.8-11.8z" fill="#fff"/><path class="st1" d="M50 68.2c-6.3 0-11.5-5.1-11.5-11.5 0-6.3 5.1-11.5 11.5-11.5 6.3 0 11.5 5.1 11.5 11.5 0 6.3-5.2 11.5-11.5 11.5zM50 46c-5.9 0-10.7 4.8-10.7 10.7S44.1 67.4 50 67.4s10.7-4.8 10.7-10.7S55.9 46 50 46z" fill="#fff"/><path class="st1" d="M50 63.2c-3.6 0-6.5-2.9-6.5-6.5s2.9-6.5 6.5-6.5 6.5 2.9 6.5 6.5-2.9 6.5-6.5 6.5zM50 51c-3.1 0-5.7 2.6-5.7 5.7s2.6 5.7 5.7 5.7 5.7-2.6 5.7-5.7S53.1 51 50 51z" fill="#fff"/><path class="st1" d="M50 62c-2.9 0-5.3-2.4-5.3-5.3s2.4-5.3 5.3-5.3 5.3 2.4 5.3 5.3S52.9 62 50 62zm0-9.9c-2.5 0-4.6 2-4.6 4.6s2 4.6 4.6 4.6c2.5 0 4.6-2 4.6-4.6s-2.1-4.6-4.6-4.6z" fill="#fff"/><path class="st1" d="M50 60.7c-2.2 0-4-1.8-4-4s1.8-4 4-4 4 1.8 4 4-1.8 4-4 4zm0-7.3c-1.8 0-3.3 1.5-3.3 3.3S48.2 60 50 60c1.8 0 3.3-1.5 3.3-3.3s-1.5-3.3-3.3-3.3z" fill="#fff"/></g></symbol><symbol id="29" viewBox="0 0 100 100"><style>.st0{fill:#00afee}.st1{fill:#fff}</style><circle class="st0" cx="50" cy="50" r="50" fill="#00afee"/><path class="st1" d="M45.7 72.3h-.2l-15.8-7.8c-.1-.1-.2-.2-.2-.3v-17h.8v16.7l15.4 7.6 21.5-10.6-.3-11.9h.8l.3 12.1c0 .1-.1.3-.2.3L45.9 72.2c-.1.1-.1.1-.2.1z" fill="#fff"/><path class="st1" d="M53.4 56.5l-7.7-.9c-.1 0-.2-.1-.3-.2l-3.2-6.8-14.4-7.4 2.6 5.8c.1.2 0 .4-.1.5-.2.1-.4.1-.5-.1L23.4 41c-.1-.1-.1-.2-.1-.3 0-.1.1-.2.2-.3l21.7-10.9c.1-.1.3 0 .4.1l5.8 6.1 4.6-8.9c.1-.2.3-.3.5-.2l15.7 7.7c.1 0 .2.1.2.2v.3l-4.7 9 7.4 1.1c.2 0 .3.2.3.3s-.1.3-.2.4L53.6 56.4c-.1.1-.1.1-.2.1zm-7.5-1.6l7.4.9 20.5-10.2-6.7-1c-.1 0-.2-.1-.3-.2s-.1-.2 0-.3l4.7-9.2-15-7.4-4.6 9.1c-.1.1-.2.2-.3.2-.1 0-.2 0-.3-.1l-6-6.3-21 10.5 4.4 4.6-2.1-4.8c-.1-.1 0-.3.1-.4.1-.1.3-.1.4-.1L42.6 48c.1 0 .1.1.2.2l3.1 6.7z" fill="#fff"/><path class="st1" d="M45.7 55.6h-.2l-15.8-8 .3-.7 15.6 7.9 20.7-10.7-14.8-7.4-16.2 8.2-.3-.6L51.4 36c.1-.1.2-.1.3 0l15.6 7.8c.1.1.2.2.2.3s-.1.3-.2.3L45.9 55.5c-.1.1-.1.1-.2.1z" fill="#fff"/><path class="st1" fill="#fff" d="M45.3 55.2h.8v16.7h-.8zM51 40.4v8.3m-1.5-8.3h3v8.3h-3z"/><path class="st1" fill="#fff" d="M46.8 44.5h8.4M46.8 43h8.4v3h-8.4z"/></symbol><symbol id="3" viewBox="0 0 100 100"><g fill-rule="evenodd" clip-rule="evenodd"><path fill="#FFF" d="M50 100c27.5 0 50-22.5 50-50S77.5 0 50 0 0 22.5 0 50s22.5 50 50 50z"/><g fill="none" stroke="#00AFEE" stroke-width=".75" stroke-miterlimit="22.926"><path stroke-linejoin="round" d="M47.6 46.2l2.1-1.6c.5-.4 1.3-.3 1.7.2l5.5 7.4 3.1.5-2.5.9-1.2 1.9-2.1.6-1.6 2.2.4-3.1-5.5-7.4c-.6-.5-.4-1.2.1-1.6zm4.6-7.8l5.7-4.3c.2-.1.5-.1.6.1l2.3 3.1c.1.2.1.5-.1.6L55 42.2c-.2.1-.5.1-.6-.1L52.1 39c-.1-.2-.1-.5.1-.6zm7.4 9.8l5.7-4.3c.2-.1.2-.4.1-.6l-2.3-3.1c-.1-.2-.4-.2-.6 0l-5.7 4.3c-.2.1-.2.4-.1.6l2.3 3.1c.2.1.4.2.6 0zm7-20.6l-5.7 4.3c-.2.1-.2.4-.1.6l2.3 3.1c.1.2.4.2.6.1l5.7-4.3c.2-.1.2-.4.1-.6l-2.3-3.1c-.1-.2-.4-.3-.6-.1zm7.5 9.8l-5.7 4.3c-.2.1-.5.1-.6-.1l-2.3-3.1c-.1-.2-.1-.5.1-.6l5.7-4.3c.2-.1.5-.1.6.1l2.3 3.1c.1.2.1.5-.1.6zm-33.7 9.8l-5.7 4.3c-.2.1-.2.4-.1.6l2.3 3.1c.1.2.4.2.6.1l5.7-4.3c.2-.1.2-.4.1-.6L41 47.3c-.2-.2-.4-.2-.6-.1zm7.4 9.8l-5.7 4.3c-.2.1-.5.1-.6-.1l-2.3-3.1c-.1-.2-.1-.5.1-.6l5.7-4.3c.2-.1.5-.1.6.1l2.3 3.1c.1.2.1.5-.1.6zm-21.9.8l5.7-4.3c.2-.1.5-.1.6.1l2.3 3.1c.1.2.1.5-.1.6l-5.7 4.3c-.2.1-.5.1-.6-.1l-2.3-3.1c-.1-.2-.1-.4.1-.6zm7.5 9.9l5.7-4.3c.2-.1.2-.4.1-.6l-2.3-3.1c-.1-.2-.4-.2-.6-.1l-5.7 4.3c-.2.1-.2.4-.1.6l2.3 3.1c.1.2.4.2.6.1z"/><path stroke-linecap="round" d="M64.9 56.7c-.7 2.2-2.1 4.1-3.9 5.4-1.8 1.4-4 2.1-6.3 2.2M68.5 58c-.9 2.9-2.7 5.4-5.1 7.1-2.4 1.9-5.3 2.9-8.3 3m17.7-8.5c-1.2 3.7-3.5 6.9-6.6 9.2-3.1 2.3-6.8 3.6-10.7 3.7"/></g></g></symbol><symbol id="4" viewBox="0 0 100 100"><g fill-rule="evenodd" clip-rule="evenodd"><path fill="#FFF" d="M50 100c27.5 0 50-22.5 50-50S77.5 0 50 0 0 22.5 0 50s22.5 50 50 50z"/><path fill="none" stroke="#00AFEE" stroke-width=".75" stroke-miterlimit="22.926" d="M14 72.5h56.5c2.3 0 4.3-1.3 5.1-3.4l14.7-35.3c.6-1.4.5-3-.4-4.3-.9-1.3-2.2-2-3.8-2H29.6c-2.3 0-4.3 1.3-5.1 3.4L9.8 66.2c-.6 1.4-.5 3 .4 4.3.8 1.3 2.2 2 3.8 2z"/><path fill="#00AFEE" d="M28.9 49.6l6.9-14.1h11.8l-1.2 2.4h-8.6L36.3 41h8l-1.2 2.4h-8l-1.9 3.8h8.9L41 49.6H28.9zm13.2 0H46l5.9-4.8 1.2 4.8H57l-2-7.4 8.3-6.8h-3.8l-5.2 4.2-1.1-4.2h-3.8l1.7 6.8-9 7.4zm23.3-14.2h5.9c1.3 0 2.3.1 2.9.3.8.2 1.4.7 1.8 1.3.4.6.5 1.4.4 2.3-.1.9-.5 2-1.1 3.3-.6 1.2-1.2 2.2-2 3-.9 1-1.9 1.9-2.9 2.5-.8.5-1.7.9-2.8 1.1-.8.2-1.8.3-3 .3h-6l6.8-14.1zm2.1 2.4h1.4c1.3 0 2.2 0 2.6.1.5.1.9.3 1.2.7.2.3.3.8.2 1.4-.1.6-.4 1.4-.9 2.5s-1.1 2-1.6 2.6c-.5.6-1 1.1-1.5 1.4-.5.3-1 .5-1.6.6-.4.1-1.1.1-2 .1h-2.4l4.6-9.4zm-39.6 25l2.6-7.2H32l-.9 4.9 2.7-4.9h1.5l-2.6 7.2h-.9l2.1-5.7-3.1 5.7h-1l1.1-5.7-2.1 5.7h-.9zm8.4-3.5c.3-.7.6-1.4.9-1.9.2-.4.5-.7.8-1 .3-.3.6-.5.9-.7.4-.2.8-.3 1.2-.3.7 0 1.2.3 1.4 1 .2.7.1 1.6-.3 2.8-.4 1.2-1 2.1-1.7 2.8-.7.7-1.4 1-2.1 1-.7 0-1.2-.3-1.4-1-.2-.7-.1-1.6.3-2.7zm1.1-.1c-.3.8-.4 1.4-.3 1.9.1.4.4.6.8.6s.8-.2 1.2-.6c.4-.4.8-1.1 1.1-1.9.3-.8.4-1.5.3-1.9-.1-.4-.4-.6-.8-.6s-.8.2-1.2.6c-.5.4-.8 1.1-1.1 1.9zm7.4-3.6h1.9c.4 0 .7 0 .9.1.2.1.4.3.5.7.1.3.1.7.1 1.2-.1.5-.2 1-.5 1.7-.2.6-.5 1.1-.7 1.5-.3.5-.6 1-1 1.3l-.9.6c-.3.1-.6.2-1 .2h-1.9l2.6-7.3zm.5 1.2l-1.7 4.8h.8c.3 0 .5 0 .6-.1.2-.1.4-.2.5-.3.2-.1.3-.4.5-.7.2-.3.4-.8.6-1.3.2-.6.3-1 .4-1.3v-.7c-.1-.2-.2-.3-.3-.3-.1 0-.4-.1-.8-.1h-.6zm6-1.2h1l-1.4 3.9c-.2.6-.4 1-.4 1.2-.1.3 0 .5 0 .7.1.2.3.3.6.3s.5-.1.7-.3c.2-.2.4-.4.5-.6.1-.2.3-.7.5-1.2l1.5-4h1l-1.4 3.8c-.3.9-.6 1.5-.8 1.8-.2.4-.4.7-.6.9-.2.2-.5.4-.8.6-.3.1-.6.2-1 .2-.5 0-.8-.1-1-.2-.2-.2-.3-.4-.4-.6-.1-.3 0-.5 0-.8.1-.4.3-1 .6-1.8l1.4-3.9zm3.9 7.2h3.5l.4-1.2h-2.5l2.2-6h-1l-2.6 7.2zm5.7 0l2.6-7.2h3.7l-.4 1.2h-2.7l-.6 1.6H66l-.4 1.2h-2.5l-.7 2h2.8l-.4 1.2h-3.9z"/></g></symbol><symbol id="5" viewBox="0 0 100 100"><g fill-rule="evenodd" clip-rule="evenodd"><path fill="#FFF" d="M50 100c27.5 0 50-22.5 50-50S77.5 0 50 0 0 22.5 0 50s22.5 50 50 50z"/><path fill="#00AFEE" d="M23.5 67.6l1.3-.1c.1.4.2.8.5 1 .2.2.6.3 1 .3s.8-.1 1-.3c.2-.2.3-.4.3-.6 0-.2 0-.3-.1-.4-.1-.1-.3-.2-.5-.3-.2-.1-.5-.2-1.1-.3-.7-.2-1.2-.4-1.5-.7-.4-.4-.6-.8-.6-1.3 0-.3.1-.7.3-.9.2-.3.5-.5.8-.7.4-.2.8-.2 1.3-.2.8 0 1.5.2 1.9.6.4.4.6.9.7 1.5h-1.3c-.1-.3-.2-.6-.4-.7-.2-.1-.5-.2-.8-.2-.4 0-.7.1-.9.2-.1.1-.2.2-.2.4s.1.3.2.4c.2.1.6.3 1.2.4.6.2 1.1.3 1.4.5.3.2.6.4.7.7.2.3.3.6.3 1.1 0 .4-.1.7-.3 1.1-.2.3-.5.6-.9.7-.4.2-.9.2-1.4.2-.8 0-1.5-.2-1.9-.6-.6-.5-.9-1-1-1.8zm6.5 2.2v-6.6h1.3v6.6H30zm5.7-2.4v-1.1h2.9v2.6c-.3.3-.7.5-1.2.7-.5.2-1.1.3-1.6.3-.7 0-1.3-.1-1.8-.4-.5-.3-.9-.7-1.2-1.2-.3-.5-.4-1.1-.4-1.8s.1-1.3.4-1.8c.3-.5.7-.9 1.3-1.2.4-.2 1-.3 1.6-.3.8 0 1.5.2 1.9.5.5.3.8.8.9 1.4l-1.3.2c-.1-.3-.3-.6-.5-.8-.3-.2-.6-.3-1-.3-.6 0-1 .2-1.4.6-.3.4-.5.9-.5 1.6 0 .8.2 1.4.5 1.8.3.4.8.6 1.4.6.3 0 .6-.1.8-.2.3-.1.5-.2.7-.4v-.8h-1.5zm4.1 2.4v-6.6h1.3l2.7 4.4v-4.4H45v6.6h-1.3L41 65.4v4.3h-1.2v.1zm12.6 0H51l-.6-1.5h-2.7l-.5 1.5h-1.4l2.6-6.6h1.4l2.6 6.6zM50 67.2l-.9-2.4-.9 2.4H50zm3.9 2.6h1.3v-5.5h1.9v-1.1H52v1.1h2v5.5h-.1zm4.2-6.6h1.3v4.7c.1.3.2.5.4.7.2.2.5.2.9.2s.7-.1.8-.2c.2-.2.3-.3.3-.6 0-.2.1-.6.1-1.1v-3.7h1.3v3.5c0 .8 0 1.4-.1 1.7-.1.3-.2.6-.4.8-.2.2-.5.4-.8.5-.3.1-.7.2-1.3.2-.6 0-1.1-.1-1.4-.2-.3-.1-.6-.3-.8-.6-.2-.2-.3-.5-.4-.7-.1-.4-.1-.9-.1-1.7v-3.5h.2zm6.7 6.6v-6.6h2.8c.7 0 1.2.1 1.5.2.3.1.6.3.8.6.2.3.3.7.3 1 0 .5-.1.9-.4 1.2-.3.3-.7.5-1.3.6.3.2.5.4.7.6.2.2.4.6.8 1.1l.8 1.3h-1.6l-1-1.4c-.3-.5-.6-.8-.7-1-.1-.1-.3-.2-.4-.3-.1 0-.4-.1-.7-.1h-.3v2.8h-1.3zm1.3-3.8h1c.6 0 1 0 1.2-.1.2-.1.3-.1.4-.3.1-.1.1-.3.1-.5s-.1-.4-.2-.5c-.1-.1-.3-.2-.5-.3h-2V66zm5.3 3.8v-6.6h4.9v1.1h-3.6v1.5H76v1.1h-3.3v1.8h3.7v1.1h-5z"/><path fill="none" stroke="#00AFEE" stroke-width=".75" stroke-linejoin="round" stroke-miterlimit="22.926" d="M30.7 57.9H58c1.3 0 2.4-.7 2.9-1.9l1.4-3.2H39.4L52.7 34H36.1l-8.3 19.6c-.4 1-.3 2.1.3 3 .6.8 1.5 1.3 2.6 1.3zM64 48.6l8.2-19.3c.4-1 .3-2.1-.3-3-.6-.9-1.5-1.4-2.6-1.4H42c-1.3 0-2.4.7-2.9 1.9l-1.2 2.8h23.2l-13 19H64z"/></g></symbol><symbol id="6" viewBox="0 0 100 100"><g fill-rule="evenodd" clip-rule="evenodd"><circle fill="#FFF" cx="50" cy="50" r="50"/><path fill="none" stroke="#00AFEE" stroke-width=".75" stroke-miterlimit="22.926" d="M16.7 27.7h66.5c1.1 0 2 .9 2 2v40.6c0 1.1-.9 2-2 2H16.7c-1.1 0-2-.9-2-2V29.7c.1-1.1.9-2 2-2z"/><path fill="none" stroke="#00AFEE" stroke-width=".75" stroke-miterlimit="22.926" d="M20.5 33.3h58.9c.5 0 .9.4.9.9v31c0 .5-.4.9-.9.9H20.5c-.5 0-.9-.4-.9-.9v-31c0-.5.4-.9.9-.9z"/><path fill="none" stroke="#00AFEE" stroke-width="1.5" stroke-miterlimit="22.926" stroke-dasharray="7.4991,1.4998" d="M25.3 57.9h50.8"/><path fill="#00AFEE" d="M37.9 42l-1-.8-1 .8-.1 4.6 1 .8 1-.8.1-4.6zm-8.4 0l-1-.8-1 .8-.1 4.6 1 .8 1-.8.1-4.6zm8.3 6.1l-.1 4.7-1 .7-1-.7.1-4.7 1-.8 1 .8zm-8.4 0l-.1 4.7-1 .7-1-.7.1-4.7 1-.8 1 .8zm.2 4.9l-1 .8 1 .8h5.8l1-.8-1-.8h-5.8zm.2-12.8h5.8l1 .8-1 .8h-5.8l-1-.8 1-.8zm9.8 7.9l-.1 6.2 2-1.5.1-4.6-1-.8-1 .7zm.1-7.2l1-.8 1 .8-.1 5.7-1 .8-1-.8.1-5.7zM48 53l1 .8-1 .8h-8.1l2-1.5H48V53zm5.3-6.4l-1 .8 1 .8h6.1l1-.8-1-.8h-6.1zm-.1 6.4l-2 1.5h8.1l1-.8-1-.8h-6.1v.1zm6.2-12.8h-8.1l2 1.5h6.1l1-.8-1-.7zM53 42l-.1 4.4-1 .8-1-.8.1-5.9 2 1.5zm-2.1 6.4l1-.8 1 .8-.1 4.4-2 1.6.1-6zm11.2-.3l-.1 6.2 2-1.5.1-4.6-1-.8-1 .7zm2.2-6.1l-.1 4.6-1 .8-1-.8.1-6.2 2 1.6zm6.1-1.8h-7.8l2 1.5h5.7l1-.8-.9-.7zm-6 12.8h5.7l1 .8-1 .8h-7.8l2.1-1.6zm6.2-4.9l-.1 4.6 1 .8 1-.8.1-4.6-1-.8-1 .8zm.1-6.1l1-.8 1 .8-.1 4.6-1 .8-1-.8.1-4.6z"/></g></symbol><symbol id="7" viewBox="0 0 100 100"><g fill-rule="evenodd" clip-rule="evenodd"><path fill="#FFF" d="M50 100c27.5 0 50-22.5 50-50S77.5 0 50 0 0 22.5 0 50s22.5 50 50 50z"/><g fill="none" stroke="#00AFEE" stroke-width=".75" stroke-linejoin="round" stroke-miterlimit="22.926"><path d="M80.5 65.6l-41.3 6.1-23.4-6.3-3.9-8.4V37.5l29.7-6.4L89 34.3V43l-6.7 5.6v8.9l-1.8 3.8z"/><path d="M13.8 61.2l8.1 1.7 2.4-1.6 9.5 2.9 2.1-2.6V48.9l5.7-6.9V31.1m-2.4 40.6V45m2.8-7.2l38.2 1 .3 22.5"/><path d="M44.2 44.4l13.4-.1v19.4l-13.4 2.1zm36.3 17.5l-14.8 1.6-2.6.4.1-21.7h2.6l14.5-.1M38.5 72.7c-1.2.2-2 .6-2 1.2-.1.9 1.4 1.9 3.3 2.1 2 .2 3.6-.3 3.7-1.2.1-.7-.9-1.5-2.4-1.9m33.7-5.5c-1 .1-1.6.5-1.7 1-.1.8 1.2 1.6 2.8 1.8 1.7.2 3.1-.3 3.2-1.1.1-.5-.5-1.1-1.6-1.5"/><path d="M41.2 74.1v.2c0 .3-.7.6-1.4.5-.6-.1-1.1-.3-1.3-.6v-2.6l.7.2 2-.3v2.6zm33.7-5.3c.1.3.6.6 1.3.6.7.1 1.4-.1 1.4-.5V66l-2.7.4v2.4z"/></g></g></symbol><symbol id="8" viewBox="0 0 100 100"><g fill-rule="evenodd" clip-rule="evenodd"><circle fill="#FFF" cx="50" cy="50" r="50"/><g fill="#00AFEE" stroke="#FFF" stroke-miterlimit="22.926"><path d="M72.6 57.3c-2.3-.2-5 .9-7 3.1-3.1 3.4-3.6 8.2-1 10.6 1.9 1.8 5 1.9 7.8.4l.2-14.1z"/><path d="M72.6 58.5c-1.7-.1-3.6.8-5 2.5-2.3 2.8-2.7 6.8-.7 8.9 1.4 1.5 3.6 1.6 5.6.5l.1-11.9z"/></g><path fill="#00AFEE" stroke="#FFF" stroke-miterlimit="22.926" d="M56.6 27.5c-3 2.5-6 5-8.9 7.1-2.9 2.1-5.8 3.8-8.5 5.6-2.7 1.8-5.3 3.6-7.2 5.4-1.9 1.9-3.1 3.8-3.8 5.5-.7 1.7-1.1 3.2-.9 4.4.1 1.2.7 2.1 1.2 3v4.4c2.7 2.3 5.3 4.6 8 6.2 2.7 1.6 5.3 2.4 8.5 2.7 3.2.4 6.9.3 9.8 0 2.9-.3 4.9-.7 7-1.1.1-1.3.2-2.7.8-4.4.5-1.7 1.5-3.7 2.7-5.2 1.2-1.5 2.7-2.6 4-3.3 1.3-.7 2.4-1 3.5-1.3l-.3-28.9c-5.3-.1-10.6-.1-15.9-.1z"/><path fill="#FFF" stroke="#00AFEE" stroke-width=".75" stroke-miterlimit="22.926" d="M49.5 34.3c1.4 1.6 2.2 2.5 4.2 4 2.1 1.5 4.9 2.8 7.7 3.9s5.5 1.9 7.4 2.3c1.6.3 2.2.4 3.1.4l-.1-17.4H57.5c-2.6 2.1-5.5 4.9-8 6.8z"/><path d="M60.4 70.9c0-2.2-.1-4.4.4-6.5.5-2.1 1.5-4.2 3-5.9 1.5-1.7 3.5-3 5.1-3.8 1.6-.8 2.8-1.2 3.9-1.5m-43-5.1c-.3 1.1-.6 2.3-.8 3.7-.2 1.4-.3 3.1-.4 4.3-.1 1.2-.1 1.7-.1 2.3m11.6 12.3c0-1.2 0-2.4.1-3.5s.4-2 .7-3c.7-1.2 1.4-2.3 2.3-3.3.9-1 1.9-1.8 3-2.6" fill="none" stroke="#FFF" stroke-width=".75" stroke-miterlimit="22.926"/><path fill="#FFF" d="M47.4 58.6c-1.2 1.4-2.4 2.7-3.6 4.1.9.3 1.7.6 3.5.7 1.8.1 4.5.1 6.4-.1 1.9-.2 3.1-.4 3.8-.9.7-.4 1-1 1.1-1.6.1-.6.1-1.2-.2-1.6-.3-.4-.8-.6-1.3-.7-.6-.1-1.2-.1-1.8-.1-1.7.3-3.4.6-5.7.5-.7-.1-1.4-.2-2.2-.3z"/><g fill="none" stroke="#FFF" stroke-width=".75" stroke-miterlimit="22.926"><path d="M28.6 56.6c1.9 1.6 3.7 3.2 5.7 4.6 2 1.4 4.2 2.5 6.4 3.6m-11-16.3c4.7 5.5 10.2 8.9 16.4 10 3.6.6 6.8.5 9.6-.4 6-3.7 11.7-6.8 17.1-9.4m-43.6 2.2c4.3 4.5 9.4 7.5 15.2 9m-15.5-6.5c5.4 4.4 10 7.2 13.9 8.2m-14.1-6.7c5.1 4.1 9.4 6.8 13 8"/><path stroke-linejoin="round" stroke-dasharray="1.4995,0.7498" d="M35.1 48.2l10.6 7.6 3.1-3.8-10.6-7.7z"/></g></g></symbol><symbol id="9" viewBox="0 0 100 100"><g fill-rule="evenodd" clip-rule="evenodd"><path fill="#FFF" d="M50 100c27.5 0 50-22.5 50-50S77.5 0 50 0 0 22.5 0 50s22.5 50 50 50z"/><path d="M38.4 57.3c-.4.3-1 .2-1.2-.2s-.2-1 .2-1.2c1.9-1.4 4-2.5 6.1-3.2 2.1-.7 4.4-1.1 6.6-1.1 2.2 0 4.5.4 6.6 1.1 2.1.7 4.2 1.8 6.1 3.2.4.3.5.8.2 1.2s-.8.5-1.2.2C59.9 56 58 55 56 54.4c-2-.7-4-1-6-1-2.1 0-4.1.3-6 1-2 .6-3.9 1.6-5.6 2.9zm32.5-11c.4.3.5.9.2 1.2-.3.4-.9.5-1.2.2-2.9-2.2-6.1-3.8-9.4-5C57.1 41.6 53.6 41 50 41c-3.6 0-7.1.6-10.4 1.7-3.3 1.1-6.5 2.8-9.4 5-.4.3-1 .2-1.2-.2-.3-.4-.2-1 .2-1.2 3.1-2.3 6.4-4.1 9.9-5.2 3.5-1.2 7.2-1.8 11-1.8 3.7 0 7.4.6 11 1.8 3.4 1.1 6.7 2.9 9.8 5.2zm7.5-9.8c.4.3.5.8.2 1.2-.3.4-.8.5-1.2.2-4-2.8-8.4-5-13-6.4-4.6-1.5-9.5-2.2-14.3-2.2-4.9 0-9.7.8-14.3 2.2-4.6 1.5-9 3.6-13 6.4-.4.3-1 .2-1.2-.2-.3-.4-.2-1 .2-1.2 4.2-2.9 8.7-5.2 13.5-6.7 4.8-1.5 9.8-2.3 14.9-2.3s10.1.8 14.9 2.3c4.6 1.5 9.1 3.8 13.3 6.7zM50 70.7c.8 0 1.5-.3 2-.8s.8-1.2.8-2-.3-1.5-.8-2-1.2-.8-2-.8-1.5.3-2 .8-.8 1.2-.8 2 .3 1.5.8 2 1.2.8 2 .8zm3.3.4c-.8.8-2 1.4-3.3 1.4-1.3 0-2.4-.5-3.3-1.4-.8-.8-1.4-2-1.4-3.3 0-1.3.5-2.4 1.4-3.3.8-.8 2-1.4 3.3-1.4 1.3 0 2.4.5 3.3 1.4.8.8 1.4 2 1.4 3.3-.1 1.3-.6 2.5-1.4 3.3z" fill="none" stroke="#00AFEE" stroke-width=".75" stroke-miterlimit="22.926"/></g></symbol></svg>