<svg xmlns="http://www.w3.org/2000/svg" xmlns:xlink="http://www.w3.org/1999/xlink" width="0" height="0" style="position:absolute">
	
		<symbol id="bage-back" viewBox="0 0 201 201">
			<style>.st0{fill:#313332}</style><path class="st0" d="M201 100.5c0 8.7-8.6 16.1-10.7 24.1-2.2 8.3 1.5 19-2.7 26.2-4.2 7.3-15.4 9.5-21.4 15.4-6 6-8.1 17.1-15.4 21.4-7.2 4.2-17.9.5-26.2 2.7-8 2.1-15.4 10.7-24.1 10.7s-16.1-8.6-24.1-10.7c-8.3-2.2-19 1.5-26.2-2.7-7.3-4.2-9.5-15.4-15.4-21.4-6-6-17.1-8.1-21.4-15.4-4.2-7.2-.5-17.9-2.7-26.2-2.1-8-10.7-15.4-10.7-24.1s8.6-16.1 10.7-24.1c2.2-8.3-1.5-19 2.7-26.2 4.2-7.3 15.4-9.5 21.4-15.4 6-6 8.1-17.1 15.4-21.4 7.2-4.2 17.9-.5 26.2-2.7C84.4 8.6 91.9 0 100.5 0s16.1 8.6 24.1 10.7c8.3 2.2 19-1.5 26.2 2.7 7.3 4.2 9.5 15.4 15.4 21.4 6 6 17.1 8.1 21.4 15.4 4.2 7.2.5 17.9 2.7 26.2 2.1 8 10.7 15.5 10.7 24.1z"></path>
		</symbol>
	
		<symbol id="bg" viewBox="0 0 35.7 73">
			<path d="M0 9V0c2.7-.1 5.2 1 7 3 .6.1 10.8-2.3 14 7 .8.1 8.8-.5 10 11 .8.8 7.7 7.4 3 15 .5.6 5 10.5-3 15-.1 1.2 1.1 10-9 12-.5 1.1-4.6 9.2-14 7-2.4 1.7-5.1 2.7-8 3V9z" fill="#f3f4f6"></path>
		</symbol>
	
		<symbol id="comparison-icon" viewBox="0 0 18 21">
			<title>comparation1-icon</title><path data-name="Rounded Rectangle 1" d="M1.5 11A1.5 1.5 0 0 1 3 12.5v7A1.5 1.5 0 0 1 1.5 21 1.5 1.5 0 0 1 0 19.5v-7A1.5 1.5 0 0 1 1.5 11z" fill="#00aeef"></path><path data-name="Rounded Rectangle 1-2" d="M6.5 6A1.5 1.5 0 0 1 8 7.5v12A1.5 1.5 0 0 1 6.5 21 1.5 1.5 0 0 1 5 19.5v-12A1.5 1.5 0 0 1 6.5 6z" fill="#00aeef"></path><path data-name="Rounded Rectangle 1-3" d="M11.5 9a1.5 1.5 0 0 1 1.5 1.5v9a1.5 1.5 0 0 1-1.5 1.5 1.5 1.5 0 0 1-1.5-1.5v-9A1.5 1.5 0 0 1 11.5 9z" fill="#00aeef"></path><path data-name="Rounded Rectangle 1-4" d="M16.5 0A1.5 1.5 0 0 1 18 1.5v18a1.5 1.5 0 0 1-1.5 1.5 1.5 1.5 0 0 1-1.5-1.5v-18A1.5 1.5 0 0 1 16.5 0z" fill="#00aeef"></path>
		</symbol>
	
		<symbol id="delivery-icon" viewBox="0 0 54.5 37.7">
			<path class="st0" d="M3.8 16.6l-.5-1.2v-.1l.1-.1h.4l.1.2.2.1v.2l.1.1-.1.3.1.2-.1.2h-.2l-.1.1zm50.4 12.9l.1.4-.1.7-.2.3v.1l-.2.3-.1.5-.1.3.3.3v.2l-.2.5-.1-.1h-.2l-.1.1-.2-.1-.1-.7.3-.3v-.8l.2-.2.1-.2.2-.2v-.4l.1-.4-.1-.3v-.1h.2zm.3-1.1l-.1.8-.1.1h-.2v-.9l-.2-.5.1-.1-.4-.3.2-.3.1-.2v-.1h-.3l-.1-.1.1-.2-.1-.3.1-.3-.2-.1-.1-.1.1-.2.2-.1v-.1l.4.1.1.5-.1.5.2.3.1.2v.6l-.1.2.1.2z"></path><path class="st0" d="M44.4 14l-.1.5.2-.1v-.2l-.1-.2zM54 24.5l-.1-.3-.4-.7.1-.3.1-.1V23l-.4-.3-.1-.2v-.3l.3-.3v-.4l-.2-.1H53l-.2-.1-.1-.3.3-.1v-.3l-.4-.3-.4-.1-.1-.4-.4-.5v-.5l-.3-.2v-.4l.1-.2-.1-.4.1-.4.2-.2h.5l.1-.2-.2-.3V16l-.2-.7v-1.2l.1-.2.3-.4v-.2l-.2-.3h-.8l-.6-.1-.1-.5-.2-.4.2-.5v-.2l.1-.1.2.1.4-.1.2-.3.3-.2.2-.3-.1-.4-.7-.3.1-.2-.1-.2-.2-.1.3-.2-.5-.2-.3.3-.5.2-.4.7h-.3l-1.8 1h-.1l-.6.5-.3.1v.4l-.7.8-.1.4-.2.1-.1.2.1.4v.1l-.3.3-.2.1-.2.4v-.2l-.1.2-.2.2h-.1l-.1-.2v4.8c0 1.6-1.1 2-1.1 2s-11 5.5-12.3 6c-1.2.6-2.3 0-2.3 0S18.5 22.8 16.9 22c-1.5-.8-1.8-2.6-1.8-2.6v-6.2H15l-.1.1-.1-.2-.1.1-.2-.2h-.1l-.1.1-.2-.1v.1h-.3l-.1.2v.2l-.1.3H13l-.1.2-.6.7v-.1.1h-.2v.1h-.2l-.1.1v.1l-.2.1-.1.2h-.2l-.1-.1-.1.6-.1.2-.4.1-1-.1h-1l-.5-.2-.1.2.1.3-.1.2h-.3l-.2-.1h-.1l-.3.2v.4l-.1-.1h-.2l-.1.3-.3.1.1.1-.4.4.1.1-.1.1h.1v.1l-.1.1v.1l.3.2v.1l-.1.3h.2l-.4.1-.1.2h-.2v.2h-.1l-.1.2v.3h-.2l.1.3-.1.1v.1l-.3-.1-.1-.1V20h-.1l-.1.2-.3.2-.1.2.2.1.1-.1.1.2.1.1v.2l.1.1-.2.4v.1l-.1-.1v.1l-.2.1.1.3.1.1-.1.1v.1h-.1l.1.1-.1-.1v-.1l-.1.1h-.1l-.1.2.2.1v.3l.4.2-.1.5h.2v.1l.1.1v.2h.2l-.1.1.1.2v.2l.2.1h-.1v.2h-.2l-.1-.1v.1l.1.1H5v-.1h-.2v.1l-.1.1h-.1v.1h-.2l-.1.1-.3-.4-.1.1h-.3l-.2.1h-.1v.1l.1.1L3 25l-1 .2h-.1l-.2-.2h-.2l.1-.3-.1-.1v-.2h-.1V24h-.2l-.3-.2-.3-.1H.4l-.1.2.1.2v.5-.2l-.3.1-.1.2v.3l.1-.1-.1.1.2.2.4.1.2.2.3.1.2.3.2.1v.1l-.1.3.2.7-.1.9h.3l.2.3v.2l.1.2v.2l.3.3.3-.2-.2.1v.2l.1.1v.3l.1.1h-.1l.1.2h-.1v.1h.2l.2.1.1-.1.1-.1h.1v.2l.2.2-.2.1.2.6h.1v.5l.2.2.2-.1.2.1h.4l.2-1 .3-.2h.3v-.2l-.1-.1h.2l-.2-.3v-.1l-.2-.1h.1l.4-.1h.1v-.2l.1.2H6l.2.2.2-.1h.4v-.3l-.1-.2v-.1h.1v.1h.1l.2-.7v-.1l-.2-.3-.1.1v-.5l.1.1v-.1l-.1-.1v-.2l.2-.1h.4v-.2h.1l.2-.2h.4l-.1-.1.1.1v.2l-.1.3.1.1h.2l.2-.4.1.1H9l.1-.1.1.1h.4l.2-.1v-.1l.1.2.1.1.3.1.2.1v.2l.2.2v.2l.1.1v.3h-.1v.1l.1-.1v-.1h.1l.1.2v.1l.1.3.3-.1h.2v.1l.2.1v.2h.1l.1-.1.3.2h.1l.1.2v.2l.2.3v.1h.1l.2-.1.1.2.2.1.3.1.1-.1.1-.2-.1-.1v-.1h-.1l-.1-.1.1-.1v-.1h.1l-.4-.3v-.2.1h.5v-.3h.1l.2-.1.3.2.1.1-.2-.2.1-.1-.1-.1.1-.1h.2l-.3-.2h.2v-.1l.1.1h.1v.1h.1v.1h.1l.2.1v.1h.1l.2.1h.2v.1h.1l.2.1h.1l.2.2.1-.5h.3v.1l.9.2v-.1l.2.1.1.1v-.1l.2.2.3-.3v.1l.2.2.1-.1h.2-.1v.8l-.1.2.1.1.1-.1h.1l.1.1v-.2l.1.1.1.1h-.1v.1-.1l.1.1v.1l.1.1h.2l-.1.2h-.2.2l-.1.1h-.2.2l.1.2.1-.1h.3l.2-.1V31h.7l-.1.2h.1l-.1.2h-.1v.1l.4.7.4 2h.2V34h.1l.1.1h.2v.4l.5.1.1-.1h.4l.2.2v.4l.3.2.1.2h.2l.2.1.1-.1.2-.1h.1l-.1.1h.1v.2h.1v.1h.4l.1-.2.3.1v-.1.1h.1v-.1l.1.1.1-.1v-.2.2-.2l.5-.1.1-.1h.2l.2-.2h.2l.1-.1.1.1h.2v.1l.1.1.5.1v.3l.1.1h.2l.3.1.2-.1.3.1v-.1l.2.1.2.1.2-.2.2-.3v-.1l-.1-.1v-.1l-.1-.1.1-.3h.1l.1-.2.2-.1.1-.2.3.1v.1h.3l.3.2.3.1.1.5.2.2.3.1v.1h.4l.1-.1.4-.2.4.1h.2l.3.2h.3v-.1.1h.1v.2l.3.2.3-.1.5.1.1-.1h.2l.3-.2.7-.2.1-.3.5-.4h.2l.4.2.3-.2.4.2h.4l.2-.4.3-.1v-.2h-.1l.1-.6v-.4l.2-.3v-.2l-.1-.1v-.1h-.1l-.2.1-.1-.1.3-.5.4-.2h.1l.6-.3.6.1.1-.1h.2l.1.1h.1l.1.1h.1v.1l.3.1v.1h.1v.1l.3.2.1.2v-.1.2l.3.1.1.3h.2v.2l.2.2h.3l.2-.1v.1h.2l.2-.1.5.2.2-.1v.1l.1-.1-.1.1v.1h.1l.1.1v.2l.3.2.2-.1h.1l.4-.3v-.2h.1l.1-.2.2-.1.2-.3.3-.1v-.2.4l.2.1v.2l-.1.2.1.1v.1l-.1.1h.2l.1.1h.1v.2h-.2l.1.2-.1.4.1.1-.1.1.1.3v.1h-.6l-.1.3-.2.2.4.4.1.4.1.1v.4l-.3.3h.1l.1.2h.2l.3-.5.7-.2.3-.3.5-.9v-.7l.3-1.4V33l-.1-.4.1-.3v-.4l.1-.6-.1-.4-.3-.8-.6-.1-.1-.3v-.3h.2l.2.2v.2l.6.7.2.5.4.3.1.3.3.3.2.4.4.4.3-.1-.2-.5.1-.1.2.1.2.2h.1l.1-.1-.1-.3-.3-.3h-.3l-.1-.1-.5-.3-.3-.9.2-.2.5.2.1-.1v-.1l-.2-.2-.3-.1-.7-.5-.9-.8-.2-.5-.6-.5-.1-.2-.4-.2-.2.3v.1l.3.1-.2.4H47l-.6-.3h-.1v.4h-.2l-.2-.1-.1-.3-.1-.1-.4.3-.2.4-.2.1.4-1.3-.1-.2.3-1.1-.1-.3.1-.3v-.5l.3-.4.4-.3h.3l.2-.3 1.1-.6.1-.1.3-.1.4-.5v-.2l.2-.1.3-.5v-.1l-.1-.2-.4.1-.2-.1v-.7l-.1-.2v-.2l-.1-.2.3-.5.1-.1h.2l.3.3.4.1.1-.2h.3v.5l.3.9v.4l-.1.2-.1.4.1.1h.2v.2l.1.2v.3l.3.5.4.4 1.4 1 .5.3.5.4.5.1v-1zm-2.5-14.4zm-44.7 7H7h-.2zm.7.7zm6.9-4.6zm.4.3v-.2h-.1l.1-.1v.3zm31.9 19.4l-.1.1.1-.1zm-.3.2l-.3.1.3-.1z"></path><path class="st0" d="M46.1 10.7l-.1-.4v-.2l.2-.3.3-.1.2.1.1.2-.1.6-.2.4-.3-.1z"></path><path class="st1" d="M43.9 14.6zm.2 0l.2.2v-.4l-.2.2z"></path><path class="st0" d="M29.7 24.2c-.6 0-1-.4-1-1V11.5c0-.6.4-1 1-1s1 .4 1 1v11.7c0 .5-.4 1-1 1zM35 13.8c-.6 0-1-.4-1-1V8.9l-9.8-4.6c-.5-.3-.7-.8-.5-1.3s.8-.7 1.3-.5l10.4 4.9c.4.1.6.5.6.9v4.5c0 .5-.4 1-1 1z"></path><path class="st0" d="M29.6 12.5c-.6 0-1-.2-1.1-.2l-10-4.9c-.5-.2-.7-.8-.5-1.3.2-.5.8-.7 1.3-.5l10 4.9s.2.1.5 0c.7-.4 9.6-4.6 10-4.8.5-.2 1.1 0 1.3.5.2.5 0 1.1-.5 1.3-.1 0-9.2 4.4-10 4.8-.3.1-.6.2-1 .2z"></path><path class="st0" d="M29.8 24.4c-.7 0-1.2-.2-1.3-.3-.1 0-7.5-3.6-8.6-4.1-1.3-.6-1.8-1.9-1.9-2.6V6.5c0-1.1.9-1.7 1.4-1.9 0 0 8.3-3.9 9.1-4.3 1.1-.6 2.2 0 2.3 0 .3.1 8 3.8 9 4.3 1.3.6 1.6 1.9 1.5 2.6v10.3c0 1.4-.9 2.1-1.4 2.3-.2.1-8 3.9-8.9 4.3-.4.2-.9.3-1.2.3zM20 17.2c0 .2.2.8.7 1 1.1.5 8.3 4 8.6 4.1 0 0 .4.2.9 0 .9-.4 8.9-4.2 9-4.3.1 0 .2-.2.2-.5V7.1c0-.2 0-.5-.4-.7-1-.5-8.9-4.3-9-4.3-.1 0-.3-.1-.5 0-.9.4-8.9 4.2-9.3 4.3-.1 0-.2.1-.2.1v10.7z"></path>
		</symbol>
	
		<symbol id="discount-icon" viewBox="0 0 55.9 57">
			<linearGradient id="a" gradientUnits="userSpaceOnUse" x1="-.028" y1="28.502" x2="55.971" y2="28.502"><stop offset="0" stop-color="#d4090c"></stop><stop offset="1" stop-color="#ed1d1b"></stop></linearGradient><path d="M55.3 31.6l-.9-1.2c-.9-1.3-1-3 0-4.3l.8-1.2c1.2-1.7.8-4-.9-5.2-.1-.1-.3-.2-.4-.2l-1.3-.7c-1.4-.7-2.2-2.3-1.9-3.9l.2-1.4c.3-2-1-3.9-3-4.3h-.5L46 9.1C44.4 9 43 8 42.6 6.4L42.2 5c-.6-2-2.6-3.1-4.6-2.5-.2 0-.3.1-.4.2l-1.3.6c-1.5.6-3.2.3-4.2-.9l-1-1.1C29.3-.2 27-.4 25.5 1l-.3.3-1 1.1c-1.1 1.2-2.8 1.6-4.2 1l-1.4-.6c-1.9-.8-4.1.1-4.9 2-.1.1-.1.3-.1.4L13 6.7c-.4 1.5-1.8 2.6-3.4 2.7l-1.4.1c-2 .1-3.6 1.9-3.5 3.9 0 .2 0 .3.1.5l.2 1.4c.3 1.6-.5 3.1-1.8 3.9l-1.3.7c-1.8 1-2.4 3.2-1.4 5 .1.1.2.3.3.4l.9 1.2c.9 1.3 1 3 0 4.3L.9 32c-1.2 1.7-.8 4 .9 5.2.1.1.3.2.4.2l1.3.7c1.4.7 2.2 2.3 1.9 3.9L5 43.5c-.3 2 1 3.9 3 4.3h.5l1.5.1c1.6.1 3 1.1 3.4 2.7l.4 1.4c.6 2 2.6 3.1 4.6 2.5.2 0 .3-.1.4-.2l1.3-.6c1.5-.6 3.2-.3 4.2.9l1 1.1c1.4 1.5 3.7 1.7 5.2.3l.3-.3 1-1.1c1.1-1.2 2.8-1.6 4.2-1l1.4.6c1.9.8 4.1-.1 4.9-2 .1-.1.1-.3.1-.4l.4-1.4c.4-1.5 1.8-2.6 3.4-2.7l1.5-.1c2-.1 3.6-1.9 3.5-3.9 0-.2 0-.3-.1-.5l-.3-1.4c-.3-1.6.5-3.1 1.8-3.9l1.3-.7c1.8-1 2.4-3.2 1.4-5 .1-.3 0-.4 0-.6z" fill="url(#a)"></path>
		</symbol>
	
		<symbol id="guarantee-icon" viewBox="0 0 24.2 35.9">
			<style>.st0{fill:#28abe2}</style><path class="st0" d="M17.4 8.4c-.5-.5-1.2-.5-1.7 0l-5.2 5.1-2.4-2.4c-.5-.5-1.2-.5-1.7 0s-.5 1.2 0 1.7l3.3 3.3c.2.2.5.4.8.4s.6-.1.8-.3l6-6c.6-.6.6-1.3.1-1.8zm0 0c-.5-.5-1.2-.5-1.7 0l-5.2 5.1-2.4-2.4c-.5-.5-1.2-.5-1.7 0s-.5 1.2 0 1.7l3.3 3.3c.2.2.5.4.8.4s.6-.1.8-.3l6-6c.6-.6.6-1.3.1-1.8z"></path><path class="st0" d="M24.2 12c0-6.6-5.4-12-12.1-12C5.5 0 0 5.4 0 12c0 3.6 1.6 6.9 4.2 9.1l-.5 13.1c0 .6.4 1.2.9 1.5.6.3 1.2.2 1.7-.2l5.8-4.9 5.8 4.9c.3.3.7.4 1 .4.2 0 .5 0 .7-.1.6-.3.9-.8.9-1.5l-.6-13.2c2.7-2.2 4.3-5.5 4.3-9.1zm-11 16.3c-.6-.6-1.5-.6-2.1 0l-4.9 4.2.4-9.9c1.7.9 3.6 1.3 5.6 1.3s3.9-.5 5.6-1.3l.4 9.9-5-4.2zm-1.1-6.7c-5.4 0-9.7-4.3-9.7-9.6s4.3-9.6 9.7-9.6 9.7 4.3 9.7 9.6-4.3 9.6-9.7 9.6z"></path>
		</symbol>
	
		<symbol id="load" viewBox="0 0 100 100">
			<rect x="47" y="24" rx="9.4" ry="4.8" width="6" height="12" fill="#fff"><animate attributeName="opacity" values="1;0" dur="1s" begin="-0.9166666666666666s" repeatCount="indefinite"></animate></rect><rect x="47" y="24" rx="9.4" ry="4.8" width="6" height="12" fill="#fff" transform="rotate(30 50 50)"><animate attributeName="opacity" values="1;0" dur="1s" begin="-0.8333333333333334s" repeatCount="indefinite"></animate></rect><rect x="47" y="24" rx="9.4" ry="4.8" width="6" height="12" fill="#fff" transform="rotate(60 50 50)"><animate attributeName="opacity" values="1;0" dur="1s" begin="-0.75s" repeatCount="indefinite"></animate></rect><rect x="47" y="24" rx="9.4" ry="4.8" width="6" height="12" fill="#fff" transform="rotate(90 50 50)"><animate attributeName="opacity" values="1;0" dur="1s" begin="-0.6666666666666666s" repeatCount="indefinite"></animate></rect><rect x="47" y="24" rx="9.4" ry="4.8" width="6" height="12" fill="#fff" transform="rotate(120 50 50)"><animate attributeName="opacity" values="1;0" dur="1s" begin="-0.5833333333333334s" repeatCount="indefinite"></animate></rect><rect x="47" y="24" rx="9.4" ry="4.8" width="6" height="12" fill="#fff" transform="rotate(150 50 50)"><animate attributeName="opacity" values="1;0" dur="1s" begin="-0.5s" repeatCount="indefinite"></animate></rect><rect x="47" y="24" rx="9.4" ry="4.8" width="6" height="12" fill="#fff" transform="rotate(180 50 50)"><animate attributeName="opacity" values="1;0" dur="1s" begin="-0.4166666666666667s" repeatCount="indefinite"></animate></rect><rect x="47" y="24" rx="9.4" ry="4.8" width="6" height="12" fill="#fff" transform="rotate(210 50 50)"><animate attributeName="opacity" values="1;0" dur="1s" begin="-0.3333333333333333s" repeatCount="indefinite"></animate></rect><rect x="47" y="24" rx="9.4" ry="4.8" width="6" height="12" fill="#fff" transform="rotate(240 50 50)"><animate attributeName="opacity" values="1;0" dur="1s" begin="-0.25s" repeatCount="indefinite"></animate></rect><rect x="47" y="24" rx="9.4" ry="4.8" width="6" height="12" fill="#fff" transform="rotate(270 50 50)"><animate attributeName="opacity" values="1;0" dur="1s" begin="-0.16666666666666666s" repeatCount="indefinite"></animate></rect><rect x="47" y="24" rx="9.4" ry="4.8" width="6" height="12" fill="#fff" transform="rotate(300 50 50)"><animate attributeName="opacity" values="1;0" dur="1s" begin="-0.08333333333333333s" repeatCount="indefinite"></animate></rect><rect x="47" y="24" rx="9.4" ry="4.8" width="6" height="12" fill="#fff" transform="rotate(330 50 50)"><animate attributeName="opacity" values="1;0" dur="1s" begin="0s" repeatCount="indefinite"></animate></rect>
		</symbol>
	
		<symbol id="loader" viewBox="0 0 40 40">
			<path opacity=".4" d="M20.201 5.169c-8.254 0-14.946 6.692-14.946 14.946 0 8.255 6.692 14.946 14.946 14.946s14.946-6.691 14.946-14.946c-.001-8.254-6.692-14.946-14.946-14.946zm0 26.58c-6.425 0-11.634-5.208-11.634-11.634 0-6.425 5.209-11.634 11.634-11.634 6.425 0 11.633 5.209 11.633 11.634 0 6.426-5.208 11.634-11.633 11.634z"></path><path d="M26.013 10.047l1.654-2.866a14.855 14.855 0 0 0-7.466-2.012v3.312c2.119 0 4.1.576 5.812 1.566z"><animateTransform attributeType="xml" attributeName="transform" type="rotate" from="0 20 20" to="360 20 20" dur="0.8s" repeatCount="indefinite"></animateTransform></path>
		</symbol>
	
		<symbol id="logo" viewBox="0 0 266.8 54.6">
			<path class="st0" d="M139.9 19.8v3.4c0 .4-.3.7-.7.7h-12.7v3.3h9.3c.4 0 .7.3.7.7V32c0 .4-.3.7-.7.7h-9.3V36h13.4c.4 0 .7.3.7.7V40c0 .4-.3.7-.7.7h-21.2c-.4 0-.7-.3-.7-.7V19.8c0-.4.3-.7.7-.7h20.5c.4 0 .7.3.7.7zm-53.8-.7c-.4 0-.7.3-.7.7v20.1c0 .4.3.7.7.7h7.2c.4 0 .7-.3.7-.7V29.1l10.3 10.8c.1.2.5.7 1 .7h8.2c.4 0 .7-.3.7-.7V19.8c0-.4-.3-.7-.7-.7h-7.2c-.4 0-.7.3-.7.7v10.8L95.3 19.8c-.1-.2-.6-.7-1-.7h-8.2zm179.3 0h-20.5c-.4 0-.7.3-.7.7v20.1c0 .4.3.7.7.7h21.2c.4 0 .7-.3.7-.7v-3.3c0-.4-.3-.7-.7-.7h-13.4v-3.3h9.3c.4 0 .7-.3.7-.7v-4.1c0-.4-.3-.7-.7-.7h-9.3v-3.3h12.7c.4 0 .7-.3.7-.7v-3.4c0-.3-.3-.6-.7-.6zm-53.1 0c-.4 0-.7.3-.7.7v20.1c0 .4.3.7.7.7h7.2c.4 0 .7-.3.7-.7V29.1l10.3 10.8c.1.2.5.7 1 .7h8.2c.4 0 .7-.3.7-.7V19.8c0-.4-.3-.7-.7-.7h-7.2c-.4 0-.7.3-.7.7v10.8l-10.3-10.8c-.2-.2-.6-.7-1-.7h-8.2zm-15.9 15.5H183V19.8c0-.4-.3-.7-.7-.7h-7.2c-.4 0-.7.3-.7.7v20.1c0 .4.3.7.7.7h21.2c.4 0 .7-.3.7-.7v-4.7c0-.3-.3-.6-.6-.6zm11.1-14.8c0-.4-.3-.7-.7-.7h-7.2c-.4 0-.7.3-.7.7v20.1c0 .4.3.7.7.7h7.2c.4 0 .7-.3.7-.7V19.8zm-35 10c0 6.3-6.7 11.4-14.9 11.4s-14.9-5.1-14.9-11.4c0-6.3 6.7-11.4 14.9-11.4 8.2.1 14.9 5.2 14.9 11.4zm-7.9.1c0-3.3-3.2-6-7.1-6-3.9 0-7.1 2.7-7.1 6s3.2 6 7.1 6c4 0 7.1-2.7 7.1-6z"></path><g fill="#00acec"><path class="st1" d="M18.1 53.4V39.9l13.4-13.5v13.5h8.7l20.6-20.6H79l-9.1 9-25 25.1"></path><path class="st1" d="M60.9 0v13.5L47.5 27V13.5h-8.7L18.2 34.1H0l9.1-9L34.2 0"></path></g><path class="st2" d="M90.7 49.4h-3.6l-.8 2.2h-.7l3-7.8h.6l3 7.8h-.7l-.8-2.2zm-3.4-.5h3.1l-1.6-4.3-1.5 4.3zm6.4 2.7v-5.8h2.1c.7 0 1.3.1 1.7.4.4.3.6.6.6 1.2 0 .3-.1.5-.3.8s-.4.4-.8.5c.4.1.7.2.9.5.2.3.3.5.3.9 0 .5-.2.9-.6 1.2-.4.3-.9.4-1.6.4h-2.3zm.6-3.2h1.6c1 0 1.5-.4 1.5-1 0-.4-.1-.6-.4-.8-.3-.2-.7-.2-1.2-.2h-1.5v2zm0 .6v2.1h1.9c.5 0 .9-.1 1.1-.3s.4-.5.4-.8c0-.3-.1-.6-.4-.8-.3-.1-.7-.2-1.1-.2h-1.9zm10-2.6h-2.1v5.3h-.6v-5.3h-2v-.5h4.8v.5zm.9 2.3c0-.6.1-1.1.3-1.5.2-.4.5-.8.9-1 .4-.2.8-.4 1.3-.4.8 0 1.4.3 1.9.8s.7 1.3.7 2.2v.1c0 .6-.1 1.1-.3 1.5-.2.4-.5.8-.9 1s-.8.4-1.3.4c-.8 0-1.4-.3-1.9-.8s-.7-1.3-.7-2.2v-.1zm.6.1c0 .7.2 1.3.5 1.7.4.4.8.7 1.4.7.6 0 1-.2 1.4-.7.4-.4.5-1 .5-1.8v-.1c0-.4-.1-.8-.2-1.2s-.4-.7-.7-.9-.6-.3-1-.3c-.6 0-1 .2-1.4.7s-.5 1-.5 1.8v.1zm8.3-2.5c-.4 0-.8.1-1.1.4s-.4.6-.4 1h-.6c0-.4.1-.7.3-1 .2-.3.5-.5.8-.7s.7-.3 1.1-.3c.7 0 1.3.3 1.7.7.5.5.7 1.2.7 2v.4c0 .6-.1 1.1-.3 1.5-.2.4-.5.8-.9 1-.4.2-.8.4-1.3.4-.6 0-1.2-.2-1.6-.6-.4-.4-.6-.9-.6-1.5h.6c0 .5.1.8.4 1.1.3.3.7.4 1.1.4.5 0 1-.2 1.3-.6.3-.4.5-.9.5-1.6h-2.6v-.5h2.6c0-.7-.2-1.2-.5-1.6-.2-.3-.7-.5-1.2-.5zm8.8-.5v5.8h-.6v-5.3h-2.4l-.1 2.2c0 .8-.1 1.4-.2 1.8s-.3.7-.5.9-.5.3-.9.3h-.2v-.6h.2c.4 0 .6-.2.8-.5s.3-1 .3-1.9l.1-2.8h3.5zm4.4 6c-.5 0-.9-.1-1.3-.4-.4-.2-.7-.6-.9-1-.2-.4-.3-.9-.3-1.5v-.2c0-.6.1-1.1.3-1.5.2-.4.5-.8.9-1.1s.8-.4 1.3-.4c.7 0 1.3.2 1.7.7.4.5.6 1.1.6 2v.4h-4.1v.1c0 .7.2 1.2.6 1.6.4.4.9.7 1.4.7.3 0 .6-.1.9-.2.3-.1.5-.3.7-.6l.4.3c-.6.7-1.3 1.1-2.2 1.1zm-.1-5.5c-.5 0-.9.2-1.2.5-.3.4-.5.8-.6 1.4h3.5v-.1c0-.6-.2-1-.5-1.4s-.7-.4-1.2-.4zm5.5 2.7h-.9v2.7h-.6v-5.8h.6v2.6h.9l2.1-2.6h.8l-2.4 2.8 2.6 3h-.8l-2.3-2.7zm8.8-2.6h-2.1v5.3h-.6v-5.3h-2v-.5h4.8v.5zm6.1 2.4c0 .9-.2 1.6-.6 2.2-.4.5-.9.8-1.6.8-.8 0-1.4-.3-1.8-.8v3h-.6v-8h.6v.8c.4-.6 1-.9 1.8-.9.7 0 1.2.3 1.6.8.4.3.6 1.1.6 2.1zm-.6-.1c0-.7-.2-1.3-.5-1.8-.3-.4-.7-.6-1.3-.6-.4 0-.7.1-1 .3-.3.2-.5.5-.6.8v2.8c.2.3.4.6.7.8.3.2.6.3 1 .3.5 0 1-.2 1.3-.6s.4-1.2.4-2zm2.1 0c0-.6.1-1.1.3-1.5s.5-.8.9-1 .8-.4 1.3-.4c.8 0 1.4.3 1.9.8s.7 1.3.7 2.2v.1c0 .6-.1 1.1-.3 1.5s-.5.8-.9 1c-.4.2-.8.4-1.3.4-.8 0-1.4-.3-1.9-.8s-.7-1.3-.7-2.2v-.1zm.7.1c0 .7.2 1.3.5 1.7.4.4.8.7 1.4.7.6 0 1-.2 1.4-.7.4-.4.5-1 .5-1.8v-.1c0-.4-.1-.8-.2-1.2-.2-.4-.4-.7-.7-.9s-.6-.3-1-.3c-.6 0-1 .2-1.4.7-.4.4-.5 1-.5 1.8v.1zm10.8 2.8h-.6V49h-3.1v2.7h-.6v-5.8h.6v2.6h3.1v-2.6h.6v5.7zm5.9-5.8h.6v5.8h-.6v-4.8l-3.1 4.8h-.6v-5.8h.6v4.8l3.1-4.8zm4.4 3.2h-.9v2.7h-.7v-5.8h.7v2.6h.9l2.1-2.6h.8l-2.4 2.8 2.6 3h-.8l-2.3-2.7zm8.3 2.6c-.1-.2-.1-.5-.1-.8-.2.3-.5.5-.9.7-.3.2-.7.2-1.1.2-.6 0-1-.2-1.4-.5-.3-.3-.5-.7-.5-1.2 0-.6.2-1 .7-1.3.5-.3 1.1-.5 2-.5h1.2v-.7c0-.4-.1-.7-.4-1s-.6-.4-1.1-.4c-.4 0-.8.1-1.1.3-.3.2-.4.5-.4.8h-.6c0-.5.2-.9.6-1.2.4-.3 1-.5 1.6-.5.6 0 1.2.2 1.5.5s.6.8.6 1.4v2.8c0 .6.1 1 .2 1.3v.1h-.8zm-2.1-.4c.4 0 .8-.1 1.2-.3.3-.2.6-.5.7-.8v-1.3h-1.1c-.6 0-1.1.1-1.5.4-.4.2-.5.5-.5.9 0 .3.1.6.4.8.1.2.4.3.8.3zm11.6-5.4h.6v5.8h-.6v-4.8l-3.1 4.8h-.6v-5.8h.6v4.8l3.1-4.8zm9.6 5.8c-.1-.2-.1-.5-.1-.8-.2.3-.5.5-.9.7-.3.2-.7.2-1.1.2-.6 0-1-.2-1.4-.5-.3-.3-.5-.7-.5-1.2 0-.6.2-1 .7-1.3.5-.3 1.1-.5 2-.5h1.2v-.7c0-.4-.1-.7-.4-1s-.6-.4-1.1-.4c-.4 0-.8.1-1.1.3-.3.2-.4.5-.4.8h-.6c0-.5.2-.9.6-1.2.4-.3 1-.5 1.6-.5.6 0 1.2.2 1.5.5s.6.8.6 1.4v2.8c0 .6.1 1 .2 1.3v.1h-.8zm-2-.4c.4 0 .8-.1 1.2-.3.3-.2.6-.5.7-.8v-1.3h-1.1c-.6 0-1.1.1-1.5.4-.4.2-.5.5-.5.9 0 .3.1.6.4.8.1.2.4.3.8.3zm6.3-2.2h-.9v2.7h-.7v-5.8h.7v2.6h.9l2.1-2.6h.8l-2.4 2.8 2.6 3h-.8l-2.3-2.7zm6.6 2.2c.4 0 .8-.1 1.1-.4.3-.3.5-.6.5-1h.6c0 .4-.1.7-.3 1s-.5.5-.8.7c-.3.2-.7.2-1.1.2-.8 0-1.4-.3-1.8-.8-.4-.5-.7-1.2-.7-2.1v-.2c0-.6.1-1.1.3-1.5.2-.4.5-.8.9-1 .4-.2.8-.4 1.3-.4.6 0 1.2.2 1.6.6.4.4.6.9.7 1.5h-.6c0-.5-.2-.8-.5-1.1s-.7-.4-1.1-.4c-.6 0-1 .2-1.4.6-.3.4-.5 1-.5 1.8v.2c0 .7.2 1.3.5 1.7.3.4.7.6 1.3.6zm6.2.6c-.5 0-.9-.1-1.3-.4s-.7-.6-.9-1c-.2-.4-.3-.9-.3-1.5v-.2c0-.6.1-1.1.3-1.5s.5-.8.9-1.1.8-.4 1.3-.4c.7 0 1.3.2 1.7.7.4.5.6 1.1.6 2v.4h-4.1v.1c0 .7.2 1.2.6 1.6s.9.7 1.4.7c.3 0 .6-.1.9-.2.3-.1.5-.3.7-.6l.4.3c-.6.7-1.3 1.1-2.2 1.1zm-.1-5.5c-.5 0-.9.2-1.2.5-.3.4-.5.8-.6 1.4h3.5v-.1c0-.6-.2-1-.5-1.4s-.7-.4-1.2-.4zm6.1 4.9c.4 0 .8-.1 1.1-.4.3-.3.5-.6.5-1h.6c0 .4-.1.7-.3 1s-.5.5-.8.7c-.3.2-.7.2-1.1.2-.8 0-1.4-.3-1.8-.8-.4-.5-.7-1.2-.7-2.1v-.2c0-.6.1-1.1.3-1.5.2-.4.5-.8.9-1 .4-.2.8-.4 1.3-.4.6 0 1.2.2 1.6.6.4.4.6.9.7 1.5h-.7c0-.5-.2-.8-.5-1.1s-.7-.4-1.1-.4c-.6 0-1 .2-1.4.6-.3.4-.5 1-.5 1.8v.2c0 .7.2 1.3.5 1.7.4.4.8.6 1.4.6zm6.1 0c.4 0 .8-.1 1.1-.4.3-.3.5-.6.5-1h.6c0 .4-.1.7-.3 1s-.5.5-.8.7c-.3.2-.7.2-1.1.2-.8 0-1.4-.3-1.8-.8-.4-.5-.7-1.2-.7-2.1v-.2c0-.6.1-1.1.3-1.5.2-.4.5-.8.9-1 .4-.2.8-.4 1.3-.4.6 0 1.2.2 1.6.6.4.4.6.9.7 1.5h-.6c0-.5-.2-.8-.5-1.1s-.7-.4-1.1-.4c-.6 0-1 .2-1.4.6-.3.4-.5 1-.5 1.8v.2c0 .7.2 1.3.5 1.7.3.4.8.6 1.3.6zm5.8-.5l1.7-4.9h.7l-2.5 6.8-.1.3c-.3.7-.8 1.1-1.5 1.1-.2 0-.3 0-.5-.1v-.5h.3c.3 0 .6-.1.8-.2.2-.2.4-.4.5-.8l.3-.8-2.2-5.8h.7l1.8 4.9zm7.4.9c-.1-.2-.1-.5-.1-.8-.2.3-.5.5-.9.7-.3.2-.7.2-1.1.2-.6 0-1-.2-1.4-.5-.3-.3-.5-.7-.5-1.2 0-.6.2-1 .7-1.3.5-.3 1.1-.5 2-.5h1.2v-.7c0-.4-.1-.7-.4-1s-.6-.4-1.1-.4c-.4 0-.8.1-1.1.3-.3.2-.4.5-.4.8h-.6c0-.5.2-.9.6-1.2.4-.3 1-.5 1.6-.5.6 0 1.2.2 1.5.5s.6.8.6 1.4v2.8c0 .6.1 1 .2 1.3v.1h-.8zm-2-.4c.4 0 .8-.1 1.2-.3.3-.2.6-.5.7-.8v-1.3h-1.1c-.6 0-1.1.1-1.5.4-.4.2-.5.5-.5.9 0 .3.1.6.4.8.1.2.4.3.8.3zm9.4-2.4c0 .9-.2 1.6-.6 2.2-.4.5-.9.8-1.6.8-.8 0-1.4-.3-1.8-.8v3h-.6v-8h.6v.8c.4-.6 1-.9 1.8-.9.7 0 1.2.3 1.6.8.4.3.6 1.1.6 2.1zm-.7-.1c0-.7-.2-1.3-.5-1.8-.3-.4-.7-.6-1.3-.6-.4 0-.7.1-1 .3-.3.2-.5.5-.6.8v2.8c.2.3.4.6.7.8.3.2.6.3 1 .3.5 0 1-.2 1.3-.6s.4-1.2.4-2zm3.3-.8h1.7c.4 0 .8.1 1.1.2.3.2.6.4.7.6.2.3.3.6.3 1 0 .6-.2 1-.6 1.4-.4.3-.9.5-1.6.5H250v-5.8h.6v2.1zm0 .6v2.6h1.7c.5 0 .8-.1 1.1-.3.3-.2.4-.6.4-1s-.1-.7-.4-.9-.6-.4-1.1-.4h-1.7zm5.7 3.1h-.6v-5.8h.6v5.8z" fill="#999"></path>
		</symbol>
	
		<symbol id="logo-alt" viewBox="0 0 248 50">
			<path d="M130.1 16.6v3.1c0 .3-.3.6-.6.6h-11.8v3.1h8.6c.3 0 .6.3.6.6v3.8c0 .3-.3.6-.6.6h-8.6v3.1h12.4c.3 0 .6.3.6.6v3.1c0 .3-.3.6-.6.6h-19.7c-.3 0-.6-.3-.6-.6V16.6c0-.3.3-.6.6-.6h19.1c.3 0 .6.3.6.6zm-50-.6c-.3 0-.6.3-.6.6v18.7c0 .3.3.6.6.6h6.6c.3 0 .6-.3.6-.6v-10l9.5 10c.1.1.5.6.9.6h7.6c.3 0 .6-.3.6-.6V16.6c0-.3-.3-.6-.6-.6h-6.6c-.3 0-.6.3-.6.6v10l-9.5-10c-.1-.1-.5-.6-1-.6h-7.5zm166.5 0h-19.1c-.3 0-.6.3-.6.6v18.7c0 .3.3.6.6.6h19.7c.3 0 .6-.3.6-.6v-3.1c0-.3-.3-.6-.6-.6h-12.4v-3.1h8.6c.3 0 .6-.3.6-.6V24c0-.3-.3-.6-.6-.6h-8.6v-3.1h11.8c.3 0 .6-.3.6-.6v-3.1c0-.3-.3-.6-.6-.6zm-49.4 0c-.3 0-.6.3-.6.6v18.7c0 .3.3.6.6.6h6.6c.3 0 .6-.3.6-.6v-10l9.5 10c.1.1.5.6.9.6h7.6c.3 0 .6-.3.6-.6V16.6c0-.3-.3-.6-.6-.6h-6.6c-.3 0-.6.3-.6.6v10l-9.5-10c-.2-.1-.5-.6-1-.6h-7.5zm-14.7 14.3H170V16.6c0-.3-.3-.6-.6-.6h-6.6c-.3 0-.6.3-.6.6v18.7c0 .3.3.6.6.6h19.7c.3 0 .6-.3.6-.6V31c0-.4-.3-.7-.6-.7zm10.3-13.7c0-.3-.3-.6-.6-.6h-6.6c-.3 0-.6.3-.6.6v18.7c0 .3.3.6.6.6h6.6c.3 0 .6-.3.6-.6V16.6zm-32.5 9.3c0 5.8-6.2 10.6-13.8 10.6s-13.8-4.7-13.8-10.6c0-5.8 6.2-10.6 13.8-10.6s13.8 4.8 13.8 10.6zm-7.3 0c0-3.1-3-5.6-6.6-5.6s-6.6 2.5-6.6 5.6 3 5.6 6.6 5.6c3.7 0 6.6-2.5 6.6-5.6z" fill="#0a0d11"></path><path fill="#00aeef" d="M17 49.8V37.2l12.5-12.5v12.5h8l19.2-19.1h16.8l-8.4 8.4-23.3 23.3"></path><path fill="#00aeef" d="M56.7.2v12.6L44.2 25.3V12.8h-8L17 31.9H.2l8.4-8.4L31.9.2"></path><path d="M84 45.1c-.6.2-1.4.4-2 .4-1.4 0-2-.4-2-1.6 0-1.4.8-1.6 1.9-1.6.5 0 .8 0 1.3.1 0-1-.3-1.2-1.3-1.2-.5 0-1 .1-1.4.2l-.2-.8c.4-.1 1.1-.2 1.7-.2 1.4 0 2 .4 2 1.9v2.8zm-.9-2c-.3 0-.7-.1-1.1-.1-.8 0-1.1.1-1.1.8 0 .8.2.9 1.1.9.4 0 .8-.1 1.1-.2v-1.4zm5.4-2.5h.9v4.5c-.6.2-1.4.4-2.1.4-1.4 0-1.9-.5-1.9-2.2v-2.7h.9v2.6c0 1.3.3 1.5 1.2 1.5.4 0 .7 0 1-.1v-4zm3.3.8v2.3c0 .7.2 1 .8 1 .3 0 .6 0 .9-.1l.2.7c-.3.1-.8.2-1.2.2-1.1 0-1.6-.3-1.6-1.7v-2.4h-.8v-.8h.8v-.9l.9-.4v1.3h1.7v.8h-1.7zm2.6 1.6c0-1.9.7-2.5 2.2-2.5s2.2.5 2.2 2.5-.7 2.5-2.2 2.5-2.2-.6-2.2-2.5zm.9 0c0 1.4.3 1.8 1.3 1.8s1.3-.3 1.3-1.8-.3-1.8-1.3-1.8-1.3.3-1.3 1.8zm5.6 2.4h-.9v-4.5c.5-.2 1.4-.4 2-.4s1 .1 1.3.3c.5-.2 1.2-.3 1.7-.3 1.4 0 1.8.5 1.8 2.2v2.7h-.8v-2.6c0-1.3-.3-1.5-1.1-1.5-.3 0-.7 0-1.1.2.1.3.2.7.2 1.3v2.7h-1v-2.6c0-1.3-.2-1.5-1.1-1.5-.3 0-.7 0-1 .1v3.9zM108 43c0-1.9.7-2.5 2.2-2.5s2.2.5 2.2 2.5-.7 2.5-2.2 2.5c-1.4 0-2.2-.6-2.2-2.5zm1 0c0 1.4.3 1.8 1.3 1.8s1.3-.3 1.3-1.8-.3-1.8-1.3-1.8-1.3.3-1.3 1.8zm4.7-4.4h.9v2.2c.3-.2.7-.3 1.3-.3 1.4 0 2.1.6 2.1 2.5 0 2-.7 2.5-2.2 2.5-.6 0-1.5-.1-2-.4v-6.5h-.1zm.9 6c.3.1.7.2 1.1.2 1 0 1.3-.3 1.3-1.7s-.3-1.7-1.3-1.7c-.6 0-1.1.2-1.1.6v2.6zm5.5-5.4c0 .5-.1.5-.5.5s-.5-.1-.5-.5.1-.5.5-.5.5.1.5.5zm0 6.2h-.9v-4.8h.9v4.8zm2.2-1.3c0 .5.1.7.4 1.1l-.8.4c-.4-.4-.5-.8-.5-1.4v-5.5h.9v5.4zm5.2 1.1c-.5.2-1.2.3-1.6.3-1.4 0-2.3-.6-2.3-2.5s.8-2.5 2.2-2.5c1.4 0 2.1.5 2 2.7h-3.2c0 1.3.5 1.6 1.4 1.6.3 0 1-.1 1.4-.2l.1.6zm-3-2.7h2.4c0-1-.3-1.2-1.1-1.2-.9-.1-1.2.2-1.3 1.2zm10.7 2.7c-.5.2-1.2.3-1.6.3-1.4 0-2.3-.6-2.3-2.5s.8-2.5 2.2-2.5 2.1.5 2 2.7h-3.2c0 1.3.5 1.6 1.4 1.6.3 0 1-.1 1.4-.2l.1.6zm-2.9-2.7h2.4c0-1-.3-1.2-1.1-1.2-.9-.1-1.2.2-1.3 1.2zm5.2 1.6c0 .5.1.7.4 1.1l-.8.4c-.4-.4-.5-.8-.5-1.4v-5.5h.9v5.4zm5.2 1.1c-.5.2-1.2.3-1.6.3-1.4 0-2.3-.6-2.3-2.5s.8-2.5 2.2-2.5 2.1.5 2 2.7h-3.2c0 1.3.5 1.6 1.4 1.6.3 0 1-.1 1.4-.2l.1.6zm-3-2.7h2.4c0-1-.3-1.2-1.1-1.2-.9-.1-1.2.2-1.3 1.2zm8 2.8c-.4.2-1 .3-1.4.3-1.5 0-2.3-.6-2.3-2.5s.9-2.5 2.3-2.5c.4 0 1.1.1 1.4.2l-.2.8c-.3-.1-.7-.2-1.1-.2-1 0-1.4.2-1.4 1.7 0 1.4.5 1.7 1.4 1.7.4 0 .8-.1 1.1-.2l.2.7zm1.9-3.9v2.3c0 .7.2 1 .8 1 .3 0 .6 0 .9-.1l.2.7c-.3.1-.8.2-1.2.2-1.1 0-1.6-.3-1.6-1.7v-2.4h-.8v-.8h.8v-.9l.9-.4v1.3h1.7v.8h-1.7zm2.7-.8h.9v.4c.2-.2.6-.5 1.3-.5h.5v.9h-.6c-.6 0-1.2.2-1.2.6v3.5h-.9v-4.9zm3.2 2.4c0-1.9.7-2.5 2.2-2.5s2.2.5 2.2 2.5-.7 2.5-2.2 2.5c-1.4 0-2.2-.6-2.2-2.5zm1 0c0 1.4.3 1.8 1.3 1.8s1.3-.3 1.3-1.8-.3-1.8-1.3-1.8-1.3.3-1.3 1.8zm5.6 2.4h-.9v-4.5c.5-.2 1.4-.4 2.1-.4 1.4 0 1.9.5 1.9 2.2v2.7h-.9v-2.6c0-1.3-.3-1.5-1.2-1.5-.4 0-.7 0-1 .1v4zm5.4-6.2c0 .5-.1.5-.5.5s-.5-.1-.5-.5.1-.5.5-.5.5.1.5.5zm-.1 6.2h-.9v-4.8h.9v4.8zm5-.1c-.4.2-1 .3-1.4.3-1.5 0-2.3-.6-2.3-2.5s.9-2.5 2.3-2.5c.4 0 1.1.1 1.4.2l-.2.8c-.3-.1-.7-.2-1.1-.2-1 0-1.4.2-1.4 1.7 0 1.4.5 1.7 1.4 1.7.4 0 .8-.1 1.1-.2l.2.7zm3.9-3.8c-.4-.1-.9-.2-1.4-.2-.7 0-1 .1-1 .7 0 .4.3.6 1.1.6 1.2.1 1.7.5 1.7 1.4 0 1.2-.7 1.6-1.9 1.6-.5 0-1.3-.1-1.7-.3l.2-.8c.3.1 1 .3 1.5.3.7 0 1.1-.1 1.1-.7 0-.4-.2-.6-1.1-.7-1.1-.1-1.7-.4-1.7-1.3 0-1.2.7-1.5 2-1.5.5 0 1.1.1 1.6.2l-.4.7zm8 3.6c-.6.2-1.4.4-2 .4-1.4 0-2-.4-2-1.6 0-1.4.8-1.6 1.9-1.6.5 0 .8 0 1.3.1 0-1-.3-1.2-1.3-1.2-.5 0-1 .1-1.4.2l-.2-.8c.4-.1 1.1-.2 1.7-.2 1.4 0 2 .4 2 1.9v2.8zm-.9-2c-.3-.1-.7-.1-1.1-.1-.8 0-1.1.1-1.1.8 0 .8.2.9 1.1.9.4 0 .8-.1 1.1-.2v-1.4zm3.1 2.3h-.9v-4.5c.5-.2 1.4-.4 2.1-.4 1.4 0 1.9.5 1.9 2.2v2.7h-.9v-2.6c0-1.3-.3-1.5-1.2-1.5-.4 0-.7 0-1 .1v4zm8.6-.3c-.5.2-1.4.4-2 .4-1.5 0-2.2-.6-2.2-2.5s.7-2.5 2.1-2.5c.6 0 1 .2 1.2.3v-2.2h.9v6.5zm-.9-3.3c0-.4-.5-.6-1.1-.6-1 0-1.3.4-1.3 1.7 0 1.5.3 1.7 1.3 1.7.4 0 .8-.1 1.1-.2v-2.6zm8.7 3.3c-.6.2-1.4.4-2 .4-1.4 0-2-.4-2-1.6 0-1.4.8-1.6 1.9-1.6.5 0 .8 0 1.3.1 0-1-.3-1.2-1.3-1.2-.5 0-1 .1-1.4.2l-.2-.8c.4-.1 1.1-.2 1.7-.2 1.4 0 2 .4 2 1.9v2.8zm-.9-2c-.3-.1-.7-.1-1.1-.1-.8 0-1.1.1-1.1.8 0 .8.2.9 1.1.9.4 0 .8-.1 1.1-.2v-1.4zm5.8 2.2c-.4.2-1 .3-1.4.3-1.5 0-2.3-.6-2.3-2.5s.9-2.5 2.3-2.5c.4 0 1.1.1 1.4.2l-.2.8c-.3-.1-.7-.2-1.1-.2-1 0-1.4.2-1.4 1.7 0 1.4.5 1.7 1.4 1.7.4 0 .8-.1 1.1-.2l.2.7zm4.4 0c-.4.2-1 .3-1.4.3-1.5 0-2.3-.6-2.3-2.5s.9-2.5 2.3-2.5c.4 0 1.1.1 1.4.2l-.2.8c-.3-.1-.7-.2-1.1-.2-1 0-1.4.2-1.4 1.7 0 1.4.5 1.7 1.4 1.7.4 0 .8-.1 1.1-.2l.2.7zm4.6-.1c-.5.2-1.2.3-1.6.3-1.4 0-2.3-.6-2.3-2.5s.8-2.5 2.2-2.5 2.1.5 2 2.7h-3.2c0 1.3.5 1.6 1.4 1.6.3 0 1-.1 1.4-.2l.1.6zm-3-2.7h2.4c0-1-.3-1.2-1.1-1.2-.9-.1-1.2.2-1.3 1.2zm7.5-1c-.4-.1-.9-.2-1.4-.2-.7 0-1 .1-1 .7 0 .4.3.6 1.1.6 1.2.1 1.7.5 1.7 1.4 0 1.2-.7 1.6-1.9 1.6-.5 0-1.3-.1-1.7-.3l.2-.8c.3.1 1 .3 1.5.3.7 0 1.1-.1 1.1-.7 0-.4-.2-.6-1.1-.7-1.1-.1-1.7-.4-1.7-1.3 0-1.2.7-1.5 2-1.5.5 0 1.1.1 1.6.2l-.4.7zm4.7 0c-.4-.1-.9-.2-1.4-.2-.7 0-1 .1-1 .7 0 .4.3.6 1.1.6 1.2.1 1.7.5 1.7 1.4 0 1.2-.7 1.6-1.9 1.6-.5 0-1.3-.1-1.7-.3l.2-.8c.3.1 1 .3 1.5.3.7 0 1.1-.1 1.1-.7 0-.4-.2-.6-1.1-.7-1.1-.1-1.7-.4-1.7-1.3 0-1.2.7-1.5 2-1.5.5 0 1.1.1 1.6.2l-.4.7zm1.4 1.5c0-1.9.7-2.5 2.2-2.5s2.2.5 2.2 2.5-.7 2.5-2.2 2.5c-1.5 0-2.2-.6-2.2-2.5zm.9 0c0 1.4.3 1.8 1.3 1.8s1.3-.3 1.3-1.8-.3-1.8-1.3-1.8-1.3.3-1.3 1.8zm4.7-2.4h.9v.4c.2-.2.6-.5 1.3-.5h.5v.9h-.6c-.6 0-1.2.2-1.2.6v3.5h-.9v-4.9zm4.4-1.4c0 .5-.1.5-.5.5s-.5-.1-.5-.5.1-.5.5-.5.5.1.5.5zm-.1 6.2h-.9v-4.8h.9v4.8zm5.1-.2c-.5.2-1.2.3-1.6.3-1.4 0-2.3-.6-2.3-2.5s.8-2.5 2.2-2.5 2.1.5 2 2.7h-3.2c0 1.3.5 1.6 1.4 1.6.3 0 1-.1 1.4-.2l.1.6zm-2.9-2.7h2.4c0-1-.3-1.2-1.1-1.2-.9-.1-1.2.2-1.3 1.2zm7.5-1c-.4-.1-.9-.2-1.4-.2-.7 0-1 .1-1 .7 0 .4.3.6 1.1.6 1.2.1 1.7.5 1.7 1.4 0 1.2-.7 1.6-1.9 1.6-.5 0-1.3-.1-1.7-.3l.2-.8c.3.1 1 .3 1.5.3.7 0 1.1-.1 1.1-.7 0-.4-.2-.6-1.1-.7-1.1-.1-1.7-.4-1.7-1.3 0-1.2.7-1.5 2-1.5.5 0 1.1.1 1.6.2l-.4.7z" fill="#606161"></path>
		</symbol>
	
		<symbol id="logo_mobile" viewBox="0 0 79 53.4">
			<style>.st0{fill:#00acec}</style><path class="st0" d="M18.1 53.4V39.9l13.4-13.5v13.5h8.7l20.6-20.6H79l-9.1 9-25 25.1"></path><path class="st0" d="M60.9 0v13.5L47.5 27V13.5h-8.7L18.2 34.1H0l9.1-9L34.2 0"></path>
		</symbol>
	
		<symbol id="master-card" viewBox="0 0 504 302.4">
			<style>.st0{fill:#ffb600}.st1{fill:#f7981d}.st2{fill:#ff8500}.st3{fill:#ff5050}.st4{fill:#e52836}.st5{fill:#cb2026}.st6{fill:#fff}.st7{fill:#dce5e5}</style><path class="st0" d="M504 151.2c0 83.2-67.2 151.2-151.2 151.2-83.2 0-151.2-68-151.2-151.2C201.6 68 268.8 0 352 0c84.8 0 152 68 152 151.2z" fill="#ffb600"></path><path class="st1" d="M352.8 0C436 0 504 68 504 151.2c0 83.2-67.2 151.2-151.2 151.2-83.2 0-151.2-68-151.2-151.2" fill="#f7981d"></path><path class="st2" d="M352.8 0C436 0 504 68 504 151.2c0 83.2-67.2 151.2-151.2 151.2" fill="#ff8500"></path><path class="st3" d="M149.6 0C67.2.8 0 68 0 151.2s67.2 151.2 151.2 151.2c39.2 0 74.4-15.2 101.6-39.2 5.6-4.8 10.4-10.4 15.2-16h-31.2c-4-4.8-8-10.4-11.2-15.2h53.6c3.2-4.8 6.4-10.4 8.8-16h-71.2c-2.4-4.8-4.8-10.4-6.4-16h83.2c4.8-15.2 8-31.2 8-48 0-11.2-1.6-21.6-3.2-32h-92.8c.8-5.6 2.4-10.4 4-16h83.2c-1.6-5.6-4-11.2-6.4-16H216c2.4-5.6 5.6-10.4 8.8-16h53.6c-3.2-5.6-7.2-11.2-12-16h-29.6c4.8-5.6 9.6-10.4 15.2-15.2C225.6 16 189.6 1.6 150.4 1.6c0-1.6 0-1.6-.8-1.6z" fill="#ff5050"></path><path class="st4" d="M0 151.2c0 83.2 67.2 151.2 151.2 151.2 39.2 0 74.4-15.2 101.6-39.2 5.6-4.8 10.4-10.4 15.2-16h-31.2c-4-4.8-8-10.4-11.2-15.2h53.6c3.2-4.8 6.4-10.4 8.8-16h-71.2c-2.4-4.8-4.8-10.4-6.4-16h83.2c4.8-15.2 8-31.2 8-48 0-11.2-1.6-21.6-3.2-32h-92.8c.8-5.6 2.4-10.4 4-16h83.2c-1.6-5.6-4-11.2-6.4-16H216c2.4-5.6 5.6-10.4 8.8-16h53.6c-3.2-5.6-7.2-11.2-12-16h-29.6c4.8-5.6 9.6-10.4 15.2-15.2C225.6 16 189.6 1.6 150.4 1.6h-.8" fill="#e52836"></path><path class="st5" d="M151.2 302.4c39.2 0 74.4-15.2 101.6-39.2 5.6-4.8 10.4-10.4 15.2-16h-31.2c-4-4.8-8-10.4-11.2-15.2h53.6c3.2-4.8 6.4-10.4 8.8-16h-71.2c-2.4-4.8-4.8-10.4-6.4-16h83.2c4.8-15.2 8-31.2 8-48 0-11.2-1.6-21.6-3.2-32h-92.8c.8-5.6 2.4-10.4 4-16h83.2c-1.6-5.6-4-11.2-6.4-16H216c2.4-5.6 5.6-10.4 8.8-16h53.6c-3.2-5.6-7.2-11.2-12-16h-29.6c4.8-5.6 9.6-10.4 15.2-15.2C225.6 16 189.6 1.6 150.4 1.6h-.8" fill="#cb2026"></path><path class="st6" d="M204.8 189.6l2.4-13.6c-.8 0-2.4.8-4 .8-5.6 0-6.4-3.2-5.6-4.8l4.8-28h8.8l2.4-15.2h-8l1.6-9.6h-16s-9.6 52.8-9.6 59.2c0 9.6 5.6 13.6 12.8 13.6 4.8 0 8.8-1.6 10.4-2.4zm5.6-25.6c0 22.4 15.2 28 28 28 12 0 16.8-2.4 16.8-2.4l3.2-15.2s-8.8 4-16.8 4c-17.6 0-14.4-12.8-14.4-12.8H260s2.4-10.4 2.4-14.4c0-10.4-5.6-23.2-23.2-23.2-16.8-1.6-28.8 16-28.8 36zm28-23.2c8.8 0 7.2 10.4 7.2 11.2H228c0-.8 1.6-11.2 10.4-11.2zM340 189.6l3.2-17.6s-8 4-13.6 4c-11.2 0-16-8.8-16-18.4 0-19.2 9.6-29.6 20.8-29.6 8 0 14.4 4.8 14.4 4.8l2.4-16.8s-9.6-4-18.4-4c-18.4 0-36.8 16-36.8 46.4 0 20 9.6 33.6 28.8 33.6 6.4 0 15.2-2.4 15.2-2.4zm-223.2-63.2c-11.2 0-19.2 3.2-19.2 3.2l-2.4 13.6s7.2-3.2 17.6-3.2c5.6 0 10.4.8 10.4 5.6 0 3.2-.8 4-.8 4h-7.2c-13.6 0-28.8 5.6-28.8 24 0 14.4 9.6 17.6 15.2 17.6 11.2 0 16-7.2 16.8-7.2l-.8 6.4H132l6.4-44c0-19.2-16-20-21.6-20zm3.2 36c0 2.4-1.6 15.2-11.2 15.2-4.8 0-6.4-4-6.4-6.4 0-4 2.4-9.6 14.4-9.6 2.4.8 3.2.8 3.2.8zm33.6 28.8c4 0 24 .8 24-20.8 0-20-19.2-16-19.2-24 0-4 3.2-5.6 8.8-5.6 2.4 0 11.2.8 11.2.8l2.4-14.4s-5.6-1.6-15.2-1.6c-12 0-24 4.8-24 20.8 0 18.4 20 16.8 20 24 0 4.8-5.6 5.6-9.6 5.6-7.2 0-14.4-2.4-14.4-2.4l-2.4 14.4c.8 1.6 4.8 3.2 18.4 3.2zm319.2-77.6l-3.2 21.6s-6.4-8-15.2-8c-14.4 0-27.2 17.6-27.2 38.4 0 12.8 6.4 26.4 20 26.4 9.6 0 15.2-6.4 15.2-6.4l-.8 5.6h16l12-76.8-16.8-.8zm-7.2 42.4c0 8.8-4 20-12.8 20-5.6 0-8.8-4.8-8.8-12.8 0-12.8 5.6-20.8 12.8-20.8 5.6 0 8.8 4 8.8 13.6zm-436 34.4l9.6-57.6 1.6 57.6H52l20.8-57.6-8.8 57.6h16.8l12.8-76.8H67.2l-16 47.2-.8-47.2H27.2l-12.8 76.8h15.2zm248 0c4.8-26.4 5.6-48 16.8-44 1.6-10.4 4-14.4 5.6-18.4h-3.2c-7.2 0-12.8 9.6-12.8 9.6l1.6-8.8h-15.2L260 191.2h17.6v-.8zm99.2-64c-11.2 0-19.2 3.2-19.2 3.2l-2.4 13.6s7.2-3.2 17.6-3.2c5.6 0 10.4.8 10.4 5.6 0 3.2-.8 4-.8 4h-7.2c-13.6 0-28.8 5.6-28.8 24 0 14.4 9.6 17.6 15.2 17.6 11.2 0 16-7.2 16.8-7.2l-.8 6.4H392l6.4-44c.8-19.2-16-20-21.6-20zm4 36c0 2.4-1.6 15.2-11.2 15.2-4.8 0-6.4-4-6.4-6.4 0-4 2.4-9.6 14.4-9.6 2.4.8 2.4.8 3.2.8zm31.2 28c4.8-26.4 5.6-48 16.8-44 1.6-10.4 4-14.4 5.6-18.4h-3.2c-7.2 0-12.8 9.6-12.8 9.6l1.6-8.8h-15.2l-10.4 62.4H412v-.8z" fill="#fff"></path><path class="st7" d="M180 178.4c0 9.6 5.6 13.6 12.8 13.6 5.6 0 10.4-1.6 12-2.4l2.4-13.6c-.8 0-2.4.8-4 .8-5.6 0-6.4-3.2-5.6-4.8l4.8-28h8.8l2.4-15.2h-8l1.6-9.6m11.2 44.8c0 22.4 7.2 28 20 28 12 0 16.8-2.4 16.8-2.4l3.2-15.2s-8.8 4-16.8 4c-17.6 0-14.4-12.8-14.4-12.8H260s2.4-10.4 2.4-14.4c0-10.4-5.6-23.2-23.2-23.2-16.8-1.6-20.8 16-20.8 36zm20-23.2c8.8 0 10.4 10.4 10.4 11.2H228c0-.8 1.6-11.2 10.4-11.2zM340 189.6l3.2-17.6s-8 4-13.6 4c-11.2 0-16-8.8-16-18.4 0-19.2 9.6-29.6 20.8-29.6 8 0 14.4 4.8 14.4 4.8l2.4-16.8s-9.6-4-18.4-4c-18.4 0-28.8 16-28.8 46.4 0 20 1.6 33.6 20.8 33.6 6.4 0 15.2-2.4 15.2-2.4zM95.2 144s7.2-3.2 17.6-3.2c5.6 0 10.4.8 10.4 5.6 0 3.2-.8 4-.8 4h-7.2c-13.6 0-28.8 5.6-28.8 24 0 14.4 9.6 17.6 15.2 17.6 11.2 0 16-7.2 16.8-7.2l-.8 6.4H132l6.4-44c0-18.4-16-19.2-22.4-19.2m12 34.4c0 2.4-9.6 15.2-19.2 15.2-4.8 0-6.4-4-6.4-6.4 0-4 2.4-9.6 14.4-9.6 2.4.8 11.2.8 11.2.8zm8 27.2s4.8 1.6 18.4 1.6c4 0 24 .8 24-20.8 0-20-19.2-16-19.2-24 0-4 3.2-5.6 8.8-5.6 2.4 0 11.2.8 11.2.8l2.4-14.4s-5.6-1.6-15.2-1.6c-12 0-16 4.8-16 20.8 0 18.4 12 16.8 12 24 0 4.8-5.6 5.6-9.6 5.6m316.8-40.8s-6.4-8-15.2-8c-14.4 0-19.2 17.6-19.2 38.4 0 12.8-1.6 26.4 12 26.4 9.6 0 15.2-6.4 15.2-6.4l-.8 5.6h16l12-76.8M468.8 156c0 8.8-7.2 20-16 20-5.6 0-8.8-4.8-8.8-12.8 0-12.8 5.6-20.8 12.8-20.8 5.6 0 12 4 12 13.6zM29.6 190.4l9.6-57.6 1.6 57.6H52l20.8-57.6-8.8 57.6h16.8l12.8-76.8h-20l-22.4 47.2-.8-47.2h-8.8l-27.2 76.8h15.2zm231.2 0h16.8c4.8-26.4 5.6-48 16.8-44 1.6-10.4 4-14.4 5.6-18.4h-3.2c-7.2 0-12.8 9.6-12.8 9.6l1.6-8.8m69.6 15.2s7.2-3.2 17.6-3.2c5.6 0 10.4.8 10.4 5.6 0 3.2-.8 4-.8 4h-7.2c-13.6 0-28.8 5.6-28.8 24 0 14.4 9.6 17.6 15.2 17.6 11.2 0 16-7.2 16.8-7.2l-.8 6.4H392l6.4-44c0-18.4-16-19.2-22.4-19.2m12 34.4c0 2.4-9.6 15.2-19.2 15.2-4.8 0-6.4-4-6.4-6.4 0-4 2.4-9.6 14.4-9.6 3.2.8 11.2.8 11.2.8zm7.2 28H412c4.8-26.4 5.6-48 16.8-44 1.6-10.4 4-14.4 5.6-18.4h-3.2c-7.2 0-12.8 9.6-12.8 9.6l1.6-8.8" fill="#dce5e5"></path>
		</symbol>
	
		<symbol id="neoline-icon" viewBox="0 0 35.9 24.9">
			<path fill-rule="evenodd" clip-rule="evenodd" fill="#28ABE2" d="M27.8.3v6.3c-2.1 1.9-4.2 3.9-6.2 5.8V6.6h-4.3c-2.9 3.1-5.8 6.1-8.6 9.2H.5C1.8 14.5 9 6.8 15.4.3h12.4zM8.7 24.5v-6.3l5.8-5.8v5.8h4.3c3-3.1 6.8-6.8 9.1-9.2h7.7c-.6.6-3.1 3.1-11.5 11.6-1.1 1.3-2.2 2.6-3.4 3.9h-12z"></path>
		</symbol>
	
		<symbol id="order-vant1" viewBox="0 0 100 100">
			<style>.st0{fill:#00afee}</style><path class="st0" d="M67.7 71.7H30.1c-.2 0-.4-.2-.4-.4-.1-6.6 2.1-10.8 7.1-13.9 3.2-1.6 5.1-3.5 5.7-5.6.4-1.8-.8-4.3-1.8-5.1-2.4-2.3-3.8-5.5-3.8-8.8 0-6.6 5.4-12 12-12s12 5.4 12 12c0 3.3-1.4 6.5-3.8 8.8-1 .9-2.2 3.3-1.8 5.2.4 1.5 1.4 2.9 3.1 4.1.1.1.2.2.2.3v4.5c0 .6.5 1.2 1.2 1.2h5.8c.1 0 .2.1.3.2 1.5 2.4 2.2 5.4 2.2 9.2 0 .1-.2.3-.4.3zm-37.2-.8h36.9c0-3.4-.6-6-1.9-8.2h-5.6c-1.1 0-1.9-.9-1.9-1.9v-4.4c-1.8-1.3-2.9-2.8-3.3-4.4-.5-2.2.9-4.9 2-5.9 2.3-2.1 3.6-5.1 3.6-8.2 0-6.2-5-11.2-11.2-11.2s-11.2 5-11.2 11.2c0 3.1 1.3 6.1 3.6 8.2 1.1 1 2.5 3.7 2 5.9-.6 2.4-2.6 4.4-6.1 6.1-4.9 2.8-6.9 6.7-6.9 12.8z"></path><path class="st0" d="M76.2 61.2H60.4c-.6 0-1.1-.5-1.1-1.1v-9.3c0-.6.5-1.1 1.1-1.1h15.8c.6 0 1.1.5 1.1 1.1v9.3c0 .6-.5 1.1-1.1 1.1zM60.4 50.4c-.2 0-.4.2-.4.4v9.3c0 .2.2.4.4.4h15.8c.2 0 .4-.2.4-.4v-9.3c0-.2-.2-.4-.4-.4H60.4z"></path><path class="st0" d="M74.6 50.4h-3.1V46c0-.8-.3-1.6-.9-2.2-.6-.6-1.4-.9-2.2-.9h-.3c-.8 0-1.6.3-2.2.9S65 45.2 65 46v4.3h-3V46c0-1.6.6-3.2 1.8-4.3 1.2-1.2 2.7-1.8 4.3-1.8h.3c1.6 0 3.2.6 4.3 1.8 1.2 1.2 1.8 2.7 1.8 4.3v4.4zm-2.3-.8h1.6V46c0-1.4-.6-2.8-1.6-3.8s-2.4-1.6-3.8-1.6h-.3c-1.4 0-2.8.6-3.8 1.6s-1.6 2.4-1.6 3.8v3.6h1.6V46c0-1 .4-2 1.1-2.7s1.7-1.1 2.7-1.1h.3c1 0 2 .4 2.7 1.1.7.7 1.1 1.7 1.1 2.7v3.6z"></path>
		</symbol>
	
		<symbol id="order-vant2" viewBox="0 0 100 100">
			<style>.st0,.st1{fill:#00afee}.st1{fill-rule:evenodd;clip-rule:evenodd}</style><path class="st0" d="M34.5 61.3H17.9c-1.2 0-2.2-1-2.2-2.2V31.4c0-1.2 1-2.2 2.2-2.2h45.2c1.2 0 2.2 1 2.2 2.2v10.2H35.9c-.8 0-1.5.7-1.5 1.5v18.2zM17.9 30c-.8 0-1.4.6-1.4 1.4v27.7c0 .8.6 1.4 1.4 1.4h15.9V43.1c0-1.2 1-2.2 2.2-2.2h28.6v-9.5c0-.8-.6-1.4-1.4-1.4H17.9z"></path><path class="st1" d="M17.1 36.9h46.8v4.3h-28c-.9 0-1.5.8-1.7 1.3H17.1v-5.6zm3.3 9.4h13.7v2.2H20.4c-.5 0-.9-.4-.9-.9v-.4c0-.4.4-.9.9-.9z"></path><path class="st0" d="M82.9 75H37.7c-1.2 0-2.2-1-2.2-2.2V45.1c0-1.2 1-2.2 2.2-2.2h45.2c1.2 0 2.2 1 2.2 2.2v27.7c0 1.2-1 2.2-2.2 2.2zM37.7 43.6c-.8 0-1.4.6-1.4 1.4v27.7c0 .8.6 1.4 1.4 1.4h45.2c.8 0 1.4-.6 1.4-1.4V45.1c0-.8-.6-1.4-1.4-1.4H37.7z"></path><path class="st0" d="M47.8 56h-6.7c-.7 0-1.2-.5-1.2-1.2v-5.1c0-.7.5-1.2 1.2-1.2h6.7c.7 0 1.2.5 1.2 1.2v5.1c.1.7-.5 1.2-1.2 1.2zm-6.7-6.8c-.3 0-.5.2-.5.5v5.1c0 .3.2.5.5.5h6.7c.3 0 .5-.2.5-.5v-5.1c0-.3-.2-.5-.5-.5h-6.7zm25.8 8.9c-3.3 0-6.1-2.7-6.1-6.1s2.7-6.1 6.1-6.1S73 48.7 73 52s-2.8 6.1-6.1 6.1zm0-11.4c-2.9 0-5.3 2.4-5.3 5.3s2.4 5.3 5.3 5.3 5.3-2.4 5.3-5.3-2.4-5.3-5.3-5.3z"></path><path class="st0" d="M74.6 58.1c-3.3 0-6.1-2.7-6.1-6.1s2.7-6.1 6.1-6.1 6.1 2.7 6.1 6.1-2.7 6.1-6.1 6.1zm0-11.4c-2.9 0-5.3 2.4-5.3 5.3s2.4 5.3 5.3 5.3 5.3-2.4 5.3-5.3-2.3-5.3-5.3-5.3zM48.3 67.6h-8.4c-.4 0-.7-.3-.7-.7V65c0-.4.3-.7.7-.7h8.4c.4 0 .7.3.7.7v2c0 .3-.3.6-.7.6zM40 65.1V67l8.4-.1-.1-1.9-8.3.1zm-.1 0zm19.2 2.5h-8.4c-.4 0-.7-.3-.7-.7V65c0-.4.3-.7.7-.7h8.4c.4 0 .7.3.7.7v2c0 .3-.3.6-.7.6zm-8.4-2.5V67l8.4-.1L59 65l-8.3.1zm0 0zm19.2 2.5h-8.4c-.4 0-.7-.3-.7-.7V65c0-.4.3-.7.7-.7h8.4c.4 0 .7.3.7.7v2c0 .3-.3.6-.7.6zm-8.4-2.5V67l8.4-.1-.1-1.9-8.3.1zm-.1 0zm19.3 2.5h-8.4c-.4 0-.7-.3-.7-.7V65c0-.4.3-.7.7-.7h8.4c.4 0 .7.3.7.7v2c-.1.3-.4.6-.7.6zm-8.4-2.5V67l8.4-.1-.1-1.9-8.3.1zm-.1 0z"></path>
		</symbol>
	
		<symbol id="order-vant3" viewBox="0 0 100 100">
			<style>.st0{fill-rule:evenodd;clip-rule:evenodd;fill:#fff}.st1,.st2{fill:#00afee}.st2{fill-rule:evenodd;clip-rule:evenodd}</style><path class="st0" d="M37.3 35.4H61c1.1 0 2 .9 2 2V71c0 1.1-.9 2-2 2H37.3c-1.1 0-2-.9-2-2V37.4c0-1.1.9-2 2-2z" fill-rule="evenodd" clip-rule="evenodd" fill="#fff"></path><path class="st1" d="M61 73.4H37.3c-1.3 0-2.4-1.1-2.4-2.4V37.4c0-1.3 1.1-2.4 2.4-2.4H61c1.3 0 2.4 1.1 2.4 2.4V71c0 1.4-1.1 2.4-2.4 2.4zM37.3 35.8c-.9 0-1.6.7-1.6 1.6V71c0 .9.7 1.6 1.6 1.6H61c.9 0 1.6-.7 1.6-1.6V37.4c0-.9-.7-1.6-1.6-1.6H37.3z" fill="#00afee"></path><path class="st0" d="M38.6 27.1h21.2c1.1 0 2 .9 2 2v51.4c0 1.1-.9 2-2 2H38.6c-1.1 0-2-.9-2-2V29.1c0-1.1.9-2 2-2z" fill-rule="evenodd" clip-rule="evenodd" fill="#fff"></path><path class="st1" d="M59.8 82.8H38.6c-1.3 0-2.4-1.1-2.4-2.4V29.1c0-1.3 1.1-2.4 2.4-2.4h21.2c1.3 0 2.4 1.1 2.4 2.4v51.4c-.1 1.2-1.1 2.3-2.4 2.3zM38.6 27.4c-.9 0-1.6.7-1.6 1.6v51.4c0 .9.7 1.6 1.6 1.6h21.2c.9 0 1.6-.7 1.6-1.6V29.1c0-.9-.7-1.6-1.6-1.6H38.6z" fill="#00afee"></path><path class="st0" d="M38.6 30.7h21.2c1.1 0 2 .9 2 2v44.2c0 1.1-.9 2-2 2H38.6c-1.1 0-2-.9-2-2V32.7c0-1.1.9-2 2-2z" fill-rule="evenodd" clip-rule="evenodd" fill="#fff"></path><path class="st1" d="M59.8 79.3H38.6c-1.3 0-2.4-1.1-2.4-2.4V32.7c0-1.3 1.1-2.4 2.4-2.4h21.2c1.3 0 2.4 1.1 2.4 2.4v44.2c-.1 1.3-1.1 2.4-2.4 2.4zM38.6 31.1c-.9 0-1.6.7-1.6 1.6v44.2c0 .9.7 1.6 1.6 1.6h21.2c.9 0 1.6-.7 1.6-1.6V32.7c0-.9-.7-1.6-1.6-1.6H38.6z" fill="#00afee"></path><path class="st0" d="M38.4 35.4H60c1 0 1.8.8 1.8 1.8v34c0 1-.8 1.8-1.8 1.8H38.4c-1 0-1.8-.8-1.8-1.8v-34c0-1 .8-1.8 1.8-1.8z" fill-rule="evenodd" clip-rule="evenodd" fill="#fff"></path><path class="st1" d="M59.9 73.4H38.4c-1.2 0-2.2-1-2.2-2.2v-34c0-1.2 1-2.2 2.2-2.2H60c1.2 0 2.2 1 2.2 2.2v34c-.1 1.2-1.1 2.2-2.3 2.2zM38.4 35.8c-.8 0-1.4.6-1.4 1.4v34c0 .8.6 1.4 1.4 1.4H60c.8 0 1.4-.6 1.4-1.4v-34c0-.8-.6-1.4-1.4-1.4H38.4z" fill="#00afee"></path><path class="st0" d="M46 32.2h6.3c.5 0 .9.4.9.9s-.4.9-.9.9H46c-.5 0-.9-.4-.9-.9 0-.4.4-.9.9-.9z" fill-rule="evenodd" clip-rule="evenodd" fill="#fff"></path><path class="st1" d="M52.3 34.5H46c-.7 0-1.3-.6-1.3-1.3s.6-1.3 1.3-1.3h6.3c.7 0 1.3.6 1.3 1.3s-.6 1.3-1.3 1.3zM46 32.6c-.3 0-.6.3-.6.6s.3.6.6.6h6.3c.3 0 .6-.3.6-.6s-.3-.6-.6-.6H46z" fill="#00afee"></path><path class="st0" d="M48.4 74.8h1.5c.3 0 .5.2.5.5v1.5c0 .3-.2.5-.5.5h-1.5c-.3 0-.5-.2-.5-.5v-1.5c0-.3.2-.5.5-.5z" fill-rule="evenodd" clip-rule="evenodd" fill="#fff"></path><path class="st1" d="M49.9 77.6h-1.5c-.5 0-.9-.4-.9-.9v-1.5c0-.5.4-.9.9-.9h1.5c.5 0 .9.4.9.9v1.5c0 .5-.4.9-.9.9zm-1.5-2.5c-.1 0-.1.1-.1.1v1.5c0 .1.1.1.1.1h1.5c.1 0 .1-.1.1-.1v-1.5c0-.1-.1-.1-.1-.1h-1.5z" fill="#00afee"></path><path class="st0" fill-rule="evenodd" clip-rule="evenodd" fill="#fff" d="M40.2 27.1h18V15.8l-2.4-1-3.3 1.7-3.3-2-3.4 2-3.2-1.7-2.4 1z"></path><path class="st1" d="M58.5 27.4H39.8V15.6l2.8-1.2 3.2 1.7 3.3-2 3.3 2 3.2-1.7 2.8 1.2v11.8zm-18-.7h17.3V16.1l-2-.9-3.3 1.7-3.3-1.9-3.3 1.9-3.3-1.7-2 .9v10.6z" fill="#00afee"></path><path class="st2" d="M49.2 20h7.7c.2 0 .4.2.4.4s-.2.4-.4.4H41.5c-.2 0-.4-.2-.4-.4s.2-.4.4-.4h7.7zm0 4.9h7.7c.2 0 .4.2.4.4s-.2.4-.4.4H41.5c-.2 0-.4-.2-.4-.4s.2-.4.4-.4h7.7zm-.5-2.1h.9c.1 0 .2.1.2.2v.4c0 .1-.1.2-.2.2h-.9c-.1 0-.2-.1-.2-.2V23c-.1-.1.1-.2.2-.2zm3.3 0h.9c.1 0 .2.1.2.2v.4c0 .1-.1.2-.2.2H52c-.1 0-.2-.1-.2-.2V23c0-.1.1-.2.2-.2zm3.3 0h.9c.1 0 .2.1.2.2v.4c0 .1-.1.2-.2.2h-.9c-.1 0-.2-.1-.2-.2V23c0-.1.1-.2.2-.2zm-9.9 0h.9c.1 0 .2.1.2.2v.4c0 .1-.1.2-.2.2h-.9c-.1 0-.2-.1-.2-.2V23c-.1-.1 0-.2.2-.2zm-3.3 0h.9c.1 0 .2.1.2.2v.4c0 .1-.1.2-.2.2h-.9c-.1 0-.2-.1-.2-.2V23c-.1-.1 0-.2.2-.2zm7.1 32.4h9.1c.3 0 .5.2.5.4s-.2.4-.5.4H40c-.3 0-.5-.2-.5-.4s.2-.4.5-.4h9.2zm0 5.7h9.1c.3 0 .5.2.5.4s-.2.4-.5.4H40c-.3 0-.5-.2-.5-.4s.2-.4.5-.4h9.2zm0 8.6h9.1c.3 0 .5.2.5.4s-.2.4-.5.4H40c-.3 0-.5-.2-.5-.4s.2-.4.5-.4h9.2zm-2.3-11.6H48c.1 0 .2.1.2.2v.4c0 .1-.1.2-.2.2h-1.1c-.1 0-.2-.1-.2-.2v-.4s.1-.2.2-.2zm3.4 0h1.1c.1 0 .3.1.3.2v.4c0 .1-.1.2-.3.2h-1.1c-.1 0-.2-.1-.2-.2v-.4c-.1 0 0-.2.2-.2zm3.3 0h1.1c.1 0 .3.1.3.2v.4c0 .1-.1.2-.3.2h-1.1c-.1 0-.2-.1-.2-.2v-.4c-.1 0 .1-.2.2-.2zm-10 0h1.1c.1 0 .2.1.2.2v.4c0 .1-.1.2-.2.2h-1.1c-.1 0-.2-.1-.2-.2v-.4s.1-.2.2-.2zm-3.3 0h1.1c.1 0 .2.1.2.2v.4c0 .1-.1.2-.2.2h-1.1c-.1 0-.2-.1-.2-.2v-.4c-.1 0 0-.2.2-.2zm16.6 0H58c.1 0 .3.1.3.2v.4c0 .1-.1.2-.3.2h-1.1c-.1 0-.2-.1-.2-.2v-.4s.1-.2.2-.2zm-10 5.9H48c.1 0 .2.1.2.2v.4c0 .1-.1.2-.2.2h-1.1c-.1 0-.2-.1-.2-.2V64c0-.1.1-.2.2-.2zm3.4 0h1.1c.1 0 .3.1.3.2v.4c0 .1-.1.2-.3.2h-1.1c-.1 0-.2-.1-.2-.2V64c-.1-.1 0-.2.2-.2zm3.3 0h1.1c.1 0 .3.1.3.2v.4c0 .1-.1.2-.3.2h-1.1c-.1 0-.2-.1-.2-.2V64c-.1-.1.1-.2.2-.2zm-10 0h1.1c.1 0 .2.1.2.2v.4c0 .1-.1.2-.2.2h-1.1c-.1 0-.2-.1-.2-.2V64c0-.1.1-.2.2-.2zm-3.3 0h1.1c.1 0 .2.1.2.2v.4c0 .1-.1.2-.2.2h-1.1c-.1 0-.2-.1-.2-.2V64c-.1-.1 0-.2.2-.2zm16.6 0H58c.1 0 .3.1.3.2v.4c0 .1-.1.2-.3.2h-1.1c-.1 0-.2-.1-.2-.2V64c0-.1.1-.2.2-.2zm-10 2.8H48c.1 0 .2.1.2.2v.4c0 .1-.1.2-.2.2h-1.1c-.1 0-.2-.1-.2-.2v-.4s.1-.2.2-.2zm3.4 0h1.1c.1 0 .3.1.3.2v.4c0 .1-.1.2-.3.2h-1.1c-.1 0-.2-.1-.2-.2v-.4c-.1 0 0-.2.2-.2zm3.3 0h1.1c.1 0 .3.1.3.2v.4c0 .1-.1.2-.3.2h-1.1c-.1 0-.2-.1-.2-.2v-.4c-.1 0 .1-.2.2-.2zm-10 0h1.1c.1 0 .2.1.2.2v.4c0 .1-.1.2-.2.2h-1.1c-.1 0-.2-.1-.2-.2v-.4s.1-.2.2-.2zm-3.3 0h1.1c.1 0 .2.1.2.2v.4c0 .1-.1.2-.2.2h-1.1c-.1 0-.2-.1-.2-.2v-.4c-.1 0 0-.2.2-.2zm16.6 0H58c.1 0 .3.1.3.2v.4c0 .1-.1.2-.3.2h-1.1c-.1 0-.2-.1-.2-.2v-.4s.1-.2.2-.2z" fill-rule="evenodd" clip-rule="evenodd" fill="#00afee"></path><path class="st1" d="M49.2 53.3c-4.2 0-7.5-3.4-7.5-7.5s3.4-7.5 7.5-7.5c4.2 0 7.5 3.4 7.5 7.5s-3.4 7.5-7.5 7.5zm0-14.4c-3.7 0-6.8 3-6.8 6.8 0 3.7 3 6.8 6.8 6.8s6.8-3 6.8-6.8c-.1-3.7-3.1-6.8-6.8-6.8z" fill="#00afee"></path><path class="st2" d="M49.9 46.8h-1.2v.8h2.1c.2 0 .4.2.4.4s-.2.4-.4.4h-2.1v1c0 .3-.1.6-.2.7-.1.2-.3.2-.5.2s-.4-.1-.5-.2c-.1-.2-.2-.4-.2-.7v-1h-.6c-.2 0-.4-.2-.4-.4s.2-.4.4-.4h.6V43c0-.4.1-.6.2-.8.1-.2.4-.2.6-.2h1.7c.5 0 .9 0 1.2.1.3.1.5.2.7.4.2.2.3.5.5.8.1.3.2.6.2 1 0 .8-.2 1.4-.6 1.8-.4.5-1.1.7-1.9.7zm-.3-3.6h-.9v2.4h.9c.3 0 .6 0 .8-.1.2-.1.4-.2.5-.4.1-.2.2-.4.2-.7 0-.3-.1-.6-.3-.9-.2-.2-.6-.3-1.2-.3z" fill-rule="evenodd" clip-rule="evenodd" fill="#00afee"></path>
		</symbol>
	
		<symbol id="order-vant4" viewBox="0 0 100 100">
			<style>.st0{fill:#00afee}</style><path class="st0" d="M57.9 54.6H10.2c-1.3 0-2.3-1-2.3-2.3V30c0-1.3 1-2.3 2.3-2.3H58c1.3 0 2.3 1 2.3 2.3v22.2c0 1.3-1.1 2.4-2.4 2.4zM10.2 28.4c-.9 0-1.6.7-1.6 1.6v22.2c0 .9.7 1.6 1.6 1.6H58c.9 0 1.6-.7 1.6-1.6V30c0-.9-.7-1.6-1.6-1.6H10.2z"></path><path class="st0" d="M90.3 65.1h-6.8v-.3c-.6-3.9-4-6.8-7.9-6.8-3.9 0-7.4 2.9-7.9 6.8v.3H34v-.3c-.6-3.9-4-6.8-7.9-6.8s-7.4 2.9-7.9 6.8v.3H9.7c-1.1 0-2-.9-2-2v-5.7c0-1.1.9-2 2-2h51.8V28.6c0-.8.7-1.5 1.5-1.5h16.2c1.1 0 2 .6 2.4 1.6L87.7 45l3.6 3.2c.7.6 1 1.4 1 2.3v12.7c0 .5-.2 1-.6 1.4-.3.3-.8.5-1.4.5zm-6.2-.7h6.2c.3 0 .6-.1.9-.4.2-.2.4-.5.4-.9V50.4c0-.7-.3-1.3-.8-1.7l-3.7-3.4L80.8 29c-.3-.7-.9-1.1-1.7-1.1H63c-.4 0-.7.3-.7.7v27.6H9.7c-.7 0-1.2.6-1.2 1.2v5.7c0 .7.6 1.2 1.2 1.2h7.8c.8-4.1 4.4-7.2 8.6-7.2s7.9 3.1 8.6 7.2h32.2c.8-4.1 4.4-7.2 8.6-7.2s7.9 3.1 8.6 7.3zM83 45.5H66V32.2h12.5L83 45.5zm-16.2-.7H82l-4-11.9H66.8v11.9z"></path><path class="st0" d="M26.1 72.9c-3.8 0-6.9-3.1-6.9-6.9s3.1-6.9 6.9-6.9S33 62.2 33 66s-3.1 6.9-6.9 6.9zm0-13.1c-3.4 0-6.2 2.8-6.2 6.2 0 3.4 2.8 6.2 6.2 6.2s6.2-2.8 6.2-6.2c-.1-3.5-2.8-6.2-6.2-6.2zm49.4 13.1c-3.8 0-6.9-3.1-6.9-6.9s3.1-6.9 6.9-6.9c3.8 0 6.9 3.1 6.9 6.9s-3.1 6.9-6.9 6.9zm0-13.1c-3.4 0-6.2 2.8-6.2 6.2 0 3.4 2.8 6.2 6.2 6.2s6.2-2.8 6.2-6.2c0-3.5-2.8-6.2-6.2-6.2zm-56-16.5v1.1h-4.2c0-.4.2-.8.4-1.2.2-.4.7-.9 1.3-1.5.5-.5.9-.8 1-1 .2-.2.2-.5.2-.7 0-.3-.1-.5-.2-.6-.1-.1-.3-.2-.6-.2-.2 0-.4.1-.6.2-.1.1-.2.4-.3.7l-1-.1c.1-.7.3-1.1.7-1.4.4-.3.8-.4 1.4-.4.6 0 1.1.2 1.4.5.3.3.5.7.5 1.2 0 .3 0 .5-.2.8-.1.3-.3.5-.5.8-.1.2-.4.4-.8.8-.4.3-.6.6-.7.7-.1.1-.2.2-.2.3h2.4zm.9-.5v-1.2h2.3v1.2h-2.3zm2.8 0l1.2-.1c0 .3.1.5.3.6s.4.2.6.2c.2 0 .5-.1.6-.3.2-.2.3-.5.3-.9s-.1-.7-.3-.9c-.2-.2-.4-.3-.7-.3-.3 0-.6.2-.9.5l-1-.1.6-3.2H27v1.1h-2.2l-.2 1.1c.3-.1.5-.2.8-.2.5 0 1 .2 1.3.6s.5.9.5 1.5c0 .5-.1 1-.4 1.4-.4.5-1 .8-1.7.8-.6 0-1-.2-1.4-.5s-.4-.7-.5-1.3zm8-4.6h4.3v5.2h.5v2.4h-1v-1.4h-3.9v1.4h-1v-2.4h.5c.3-.5.4-1.1.5-1.8.1-.7.1-1.6.1-2.7v-.7zm1.2 1.1c0 1.9-.2 3.3-.5 4.1h2.4v-4.1h-1.9zm4.4 5.1v-6.2h1.3v2.4h2.4v-2.4h1.2v6.2h-1.2v-2.7h-2.4v2.7h-1.3zm6.3 0v-6.2h4.6v1h-3.3v1.4h3.1v1h-3.1v1.7h3.5v1h-4.8zm5.8-6.2H50v4.1l2.5-4.1h1.2v6.2h-1.2v-4l-2.5 4h-1.3v-6.2zm3.2-1.5h.6c0 .4-.2.7-.4.9-.2.2-.5.3-.9.3s-.7-.1-.9-.3c-.2-.2-.4-.5-.4-.9h.6c0 .2.1.4.2.5.1.1.3.2.5.2s.4-.1.5-.2c.1-.1.1-.3.2-.5z"></path>
		</symbol>
	
		<symbol id="paypal" viewBox="0 0 119.4 33.4">
			<style>.st0,.st1{fill-rule:evenodd;clip-rule:evenodd;fill:#4a7eab}.st1{fill:#375a7d}</style><path class="st0" d="M98.5 5.2c-3.2 0-5.6.8-7.6 1.2l-.6 4.8c1-.5 4-1.3 6.5-1.4 2.5-.1 4 .5 3.4 2.6-7.4 0-12.4 1.5-13.4 6.3-1.5 8.2 7.6 8 11.1 4.4l-.4 2h6.6L107 12c1.1-5.5-3.9-6.9-8.5-6.8zm.4 13.4c-.4 1.7-1.8 2.5-3.4 2.6-1.5.1-2.8-1.2-1.8-2.7.7-1.3 2.8-1.6 4-1.6h1.6c-.2.5-.3 1.1-.4 1.7zM112.6 0l-5.5 25.1h6.8L119.4 0h-6.8zM81.8.1H69.5l-5.4 25h7.1l1.8-8.3h5.1c5 0 9.1-3 10.2-8.2 1.3-5.9-3-8.5-6.5-8.5zm-.2 8.5c-.4 1.9-2.4 3.4-4.2 3.4h-3.3l1.5-6.8h3.5c1.8 0 2.9 1.5 2.5 3.4z" fill-rule="evenodd" clip-rule="evenodd" fill="#4a7eab"></path><path class="st1" d="M34.2 5.2c-3.1 0-5.6.8-7.4 1.2l-.6 4.8c.9-.5 3.8-1.3 6.3-1.4 2.5-.1 3.9.5 3.5 2.6-7.3 0-12.2 1.5-13.3 6.3-1.4 8.2 7.5 8 10.9 4.4l-.4 2h6.6L42.6 12c1.2-5.5-3.9-6.9-8.4-6.8zm.5 13.4c-.4 1.7-1.8 2.5-3.5 2.6-1.4.1-2.7-1.2-1.7-2.7.7-1.3 2.8-1.6 3.9-1.6h1.7c-.2.5-.4 1.1-.4 1.7zM45.5 5.5h6.6l1.1 11.7 6.4-11.7h6.8L50.8 33.4h-7.4l4.8-8.2-2.7-19.7zM17.8.1H5.5L0 25.1h7.2L9 16.8h5.2c4.9 0 9.1-3 10.2-8.2 1.2-5.9-3-8.5-6.6-8.5zm-.3 8.5c-.4 1.9-2.3 3.4-4.1 3.4H10l1.5-6.8H15c1.9 0 3.1 1.5 2.5 3.4z" fill-rule="evenodd" clip-rule="evenodd" fill="#375a7d"></path>
		</symbol>
	
		<symbol id="play" viewBox="0 0 286.054 286.054">
			<path d="M143.027.004C64.04.004 0 64.036 0 143.022c0 78.996 64.04 143.027 143.027 143.027s143.027-64.031 143.027-143.027c0-78.977-64.04-143.018-143.027-143.018zm0 259.228c-64.183 0-116.209-52.026-116.209-116.209s52.026-116.21 116.209-116.21 116.209 52.026 116.209 116.209-52.026 116.21-116.209 116.21zm57.836-122.798l-81.856-45.581c-5.962-3.638-11.827-.706-11.827 6.526v91.367c0 7.223 5.864 10.173 11.827 6.517l81.722-44.91c7.581-4.318 4.819-11.282.134-13.919z" fill="#2394bc"></path>
		</symbol>
	
		<symbol id="round" viewBox="">
			<circle class="path" cx="50" cy="50" r="40" stroke="#00adef" stroke-width="4" fill="transparent"></circle>
		</symbol>
	
		<symbol id="rubs" viewBox="0 0 39.8 8.8">
			<path d="M37.6.2H33v8.4h1.9V6h2.7c1.5 0 2.3-1.3 2.3-2.8-.1-1.7-.6-3-2.3-3zm-.7 4.2h-2V1.9H37c.5 0 .8.4.8 1.3-.1.8-.4 1.2-.9 1.2zM0 4.3h3.1v1.8H0zm13.2 1.6c0 2.2-.8 2.8-3.3 2.8-.9 0-1.8 0-2.7-.2l.3-1.7c.7.1 1.4.2 2 .2 1.4 0 1.6-.1 1.6-1 0-.8-.2-1-1.6-1-.7 0-1.3 0-2 .1V.2h5.4v1.7H9.4v1.4h.8c2.3 0 3 .7 3 2.6zM17.7 0c-2.1 0-3.2.9-3.2 4.3s1.1 4.5 3.2 4.5 3.2-1 3.2-4.5C20.9.9 19.8 0 17.7 0zm0 7c-1.1 0-1.3-.3-1.3-2.7 0-2.3.2-2.5 1.3-2.5S19 2 19 4.3 18.8 7 17.7 7zm7.5-7C23.1 0 22 .9 22 4.3s1.1 4.5 3.2 4.5 3.2-1 3.2-4.5C28.4.9 27.3 0 25.2 0zm0 7c-1.1 0-1.3-.3-1.3-2.7 0-2.3.2-2.5 1.3-2.5s1.3.3 1.3 2.5c0 2.3-.2 2.7-1.3 2.7z" fill="#fff"></path>
		</symbol>
	
		<symbol id="star-icon" viewBox="0 0 18.5 18.5">
			<path d="M9.7.3L12 6.1l6 .5c.3 0 .5.3.4.6 0 .1-.1.2-.2.3l-4.6 4.1 1.4 6.2c.1.3-.1.5-.3.6-.1 0-.3 0-.4-.1L9.1 15l-5.2 3.3c-.2.1-.5.1-.7-.2-.1-.1-.1-.2-.1-.4l1.4-6.2-4.3-4C0 7.3-.1 7 .1 6.8c.1-.1.2-.2.3-.2l6-.5L8.8.3c.1-.3.4-.4.6-.3l.3.3z" fill="#ffba00"></path>
		</symbol>
	
		<symbol id="support-icon" viewBox="0 0 29.9 36.9">
			<style>.st0{fill:#28abe2}</style><path class="st0" d="M29.1 36.9H.8c-.7-.3-.9-.9-.8-1.7v-2c.1-1.8.2-3.7.4-5.5.1-.6.3-1.2.4-1.8.5-1.4 1.4-2.5 2.6-3.4.7-.6 1.5-1.1 2.3-1.6.8-.4 1.6-.8 2.4-1.1 1-.5 1.6 0 1.9.8.2.5.5 1 .7 1.4.1.4.3.7.5 1 .5 1.1 1.1 2.2 1.6 3.3.2.4.3.7.5 1.1.5 1 1 1.9 1.6 2.8 0-.1.1-.1.1-.1 1.7-2.9 3.2-6 4.7-9.1.1-.2.2-.4.3-.7.2-.5.6-.7 1.1-.8.3 0 .5.1.7.2 1 .4 1.9.9 2.8 1.4.3.2.5.3.8.5 1 .7 1.9 1.4 2.7 2.3.2.3.4.5.6.8.6 1.2.9 2.6 1.1 4 0 .5 0 .9.1 1.4v2.5c0 .8-.6 1.3-1.3 1.2-.5-.1-.9-.4-1-1.1v-1.4c.1-.8 0-1.6 0-2.4-.1-.8-.2-1.5-.5-2.2-.1-.4-.2-.7-.5-1-.7-1-1.7-1.7-2.8-2.3-.2-.2-.5-.3-.8-.4-.3-.2-.6-.3-.9-.5-.2-.1-.2-.1-.3.1-.4.9-.9 1.9-1.3 2.8-.5.9-.9 1.9-1.4 2.8-.1.1-.1.2-.2.3-.8 1.5-1.6 3-2.6 4.4-.5.8-1.2.9-2 .3l-.6-.9c-.6-1.1-1.3-2.1-1.9-3.2-.1-.3-.3-.6-.4-.8-.6-1.2-1.2-2.3-1.8-3.5-.1-.3-.2-.5-.4-.8-.2-.5-.5-1-.7-1.5-.1-.1-.1-.2-.3-.1-1.2.6-2.4 1.2-3.5 2.1-.8.6-1.4 1.3-1.6 2.4-.3 1.2-.4 2.4-.5 3.6-.1.5-.1 1-.1 1.5 0 .8 0 1.6-.1 2.4 0 .2.1.2.2.2h25.8c.5 0 .9.2 1.2.6.2.4.2.8 0 1.2.1.2-.2.4-.5.5zm-7.8-17.7H20c-.9-.2-1.7-.4-2.6-.8h-.2c-.4.1-.9 0-1.3-.2-.3-.2-.5-.5-.6-.7-.1-.4-.2-.7 0-1.1.3-1 1.2-1.4 2.2-1l.6.6c0 .1.1.2.1.2.9.4 1.8.7 2.8.6 1.2-.1 1.8-.7 2.1-2 .1-.7.5-1 1.2-1.1.2 0 .3 0 .5-.1.6-.1 1.1-.4 1.3-1 .5-1.2-.2-2.9-1.6-3.2-.4-.1-.8 0-1.1-.2-.3-.3-.4-.6-.5-1-.2-.9-.6-1.7-1.1-2.4-.2-.3-.4-.6-.6-.8-.8-1-1.8-1.7-3-2.1-.3-.1-.7-.3-1.1-.3-.6-.2-1.1-.2-1.7-.2-1.3 0-2.6.1-3.8.7-1.9.8-3.2 2.2-4 4-.2.3-.3.7-.4 1-.2.6-.6.9-1.2 1-.1 0-.3 0-.4.1-.9 0-1.7.8-1.8 1.8-.4 1.2.1 2.5 1.6 2.6.3 0 .6 0 .9.1.2.2.4.4.6.7.2 1.1-.3 1.7-1.4 1.6h-.2c-.4 0-.8-.1-1.2-.2-1.1-.5-2-1.2-2.4-2.4-.1-.3-.3-.7-.4-1-.1-1.5.3-2.8 1.2-4 .6-.8 1.4-1.3 2.5-1.6.2 0 .3-.1.4-.3C6.7 3.3 9 1.2 12.2.4c2.2-.6 4.4-.6 6.6.2.1 0 .3.1.4.1.3.1.6.3.9.4 1 .6 1.9 1.3 2.7 2.2.2.3.4.5.6.8.7.9 1.2 1.8 1.5 2.8.1.3.4.2.7.3.3.1.5.3.8.4 1.1.7 1.7 1.7 2.1 2.9.1.4.1.8.2 1.2 0 .7-.1 1.4-.5 2-.6 1.1-1.4 1.8-2.6 2.1-.2.1-.3.2-.4.4-.7 1.8-2 2.8-3.9 3z"></path><path class="st0" d="M12.9 21.3c-.3-.2-.5-.4-.8-.6-.9-.7-1.7-1.5-2.4-2.5l-.6-.9c-.5-.9-1-1.8-1.2-2.9l-.3-.6c0-.4-.1-.8-.1-1.2v-.2c0-2.2.6-4.1 1.9-5.8 1.1-1.5 2.6-2.4 4.4-2.7.8-.1 1.5-.1 2.3-.1.4.1.8.2 1.1.2 1.2.4 2.2 1 3 1.8.2.2.4.5.6.7.7 1.1 1.2 2.3 1.4 3.7 0 .5.1.9.1 1.4-.1 1-.2 2-.6 3-.2.6-.6.9-1.1 1-.6 0-.9-.2-1.2-.9-.1-.3 0-.6.1-.9l.3-.9c.1-.4.2-.8.2-1.2 0-1.2-.1-2.3-.7-3.3-.3-.2-.5-.5-.7-.7-1-1.1-2.2-1.5-3.6-1.5-.7 0-1.5.1-2.1.5-1.8 1-2.7 2.7-3 4.7-.2 1.5.2 2.9.9 4.2.1.3.3.6.5.9.7 1 1.6 1.9 2.6 2.6.2.2.5.4.8.6.5.4 1 .6 1.5 1 .4.3.6.8.5 1.3s-.5.8-1 .9c-.3 0-.6-.1-.8-.2-.7-.6-1.4-1-2-1.4z"></path>
		</symbol>
	
		<symbol id="update-icon" viewBox="0 0 30.1 28.3">
			<style>.st0{fill:#28abe2}</style><path class="st0" d="M30 20.6c-.2-.6-.9-.9-1.5-.7l-1.5.5c.9-1.9 1.4-4 1.4-6.2C28.4 6.4 22 0 14.2 0 6.4 0 0 6.4 0 14.2s6.4 14.1 14.2 14.1c.6 0 1.2-.5 1.2-1.2s-.5-1.2-1.2-1.2c-6.5 0-11.9-5.3-11.9-11.8.1-6.5 5.4-11.8 11.9-11.8s11.9 5.3 11.9 11.8c0 1.8-.4 3.6-1.2 5.2l-.5-1.6c-.2-.6-.9-.9-1.5-.7-.6.2-.9.9-.7 1.5l1.4 4.2c.2.5.6.8 1.1.8.1 0 .2 0 .4-.1l4.2-1.4c.5-.1.9-.8.7-1.4z"></path>
		</symbol>
	
		<symbol id="vant1" viewBox="0 0 100 100">
			<style>.st0{fill:#00afee}</style><path class="st0" d="M40.5 79.5c-.1 0-.1 0-.2-.1L20.7 66.5c-.1-.1-.2-.2-.2-.3l.9-37.2c0-.2.2-.4.4-.4l32.9-1.3 28.2 3.5c.1 0 .2.1.3.2.1.1.1.2.1.3L74 73.8c0 .2-.2.3-.3.3l-33.2 5.4zM21.3 66l19.3 12.7 32.7-5.3 9.1-41.8L54.6 28l-32.5 1.2-.8 36.8z"></path><path class="st0" d="M48.9 35c-.1 0-.1 0 0 0l-27.1-5.7.2-.7 27 5.7 33.9-3.5.1.7L48.9 35z"></path><path transform="rotate(-79.351 44.676 56.875)" class="st0" d="M22.1 56.5h45.2v.8H22.1z"></path><path transform="rotate(-79.333 57.073 55.226)" class="st0" d="M34.9 54.9h44.4v.7H34.9z"></path><path class="st0" d="M57.9 72.2c-.1 0-.2 0-.3-.1-.1-.1-.1-.2-.1-.3l5.1-26.5c0-.2.2-.3.3-.3l13.6-1.7c.1 0 .2 0 .3.1.1.1.1.2.1.3l-5.7 26c0 .1-.2.3-.3.3l-13 2.2zm5.4-26.5l-4.9 25.7 12.2-2.1L76 44.1l-12.7 1.6zM45.7 76.2c-.1 0-.2 0-.3-.1-.1-.1-.1-.2-.1-.3l.8-5.7c0-.2.2-.3.4-.3l3.9-.1c.1 0 .2 0 .3.1.1.1.1.2.1.3l-.8 5.6c0 .2-.2.3-.3.3l-4 .2zm1.1-5.8l-.7 5 3.1-.2.7-4.9-3.1.1zM40 28.6c-.1 0-.2 0-.3-.1-.1-.1-.1-.2-.1-.3v-5.3c0-.2.2-.4.4-.4h6.4c.2 0 .4.2.4.4V28c0 .2-.2.4-.4.4l-6.4.2zm.4-5.3v4.6l5.6-.2v-4.4h-5.6z"></path>
		</symbol>
	
		<symbol id="vant2" viewBox="0 0 100 100">
			<style>.st0{fill:#00afee}</style><path class="st0" d="M49.7 59.3H17.9c-.2 0-.4-.2-.4-.4V27.2c0-.2.2-.4.4-.4h31.8c.2 0 .4.2.4.4V59c0 .1-.2.3-.4.3zm-31.4-.7h31v-31h-31v31z"></path><path class="st0" d="M82.1 59.3H50.3c-.2 0-.4-.2-.4-.4V27.2c0-.2.2-.4.4-.4h31.8c.2 0 .4.2.4.4V59c-.1.1-.2.3-.4.3zm-31.4-.7h31v-31h-31v31zm-34.1 5.3h66.8v.8H16.6zm0 8.5h66.8v.8H16.6z"></path><path class="st0" d="M50.3 73l-.6-.4 6.7-8.5.6.4z"></path><path class="st0" d="M49.3 73l-6.7-8.5.6-.4 6.7 8.5zM65 73l-6.6-8.5.6-.4 6.6 8.5zm-30.4 0l-.6-.4 6.7-8.5.6.4z"></path><path class="st0" d="M66 73l-.5-.4 6.6-8.5.6.4zm-32.4 0l-6.7-8.5.6-.4 6.7 8.5zm47.2 0l-6.7-8.5.6-.4 6.7 8.5zm-62 0l-.6-.4 6.7-8.5.6.4zm16.8-8.3H32v-6.1h3.6v6.1zm-2.9-.8h2.1v-4.6h-2.1v4.6zm35.3.8h-3.6v-6.1H68v6.1zm-2.9-.8h2.1v-4.6h-2.1v4.6z"></path><path transform="rotate(-45.001 22.577 54.298)" class="st0" d="M22.3 47.7h.5v13.1h-.5z"></path><path transform="rotate(-45.001 25.358 51.517)" class="st0" d="M25.1 41h.5v21h-.5z"></path><path transform="rotate(-45.001 28.14 48.735)" class="st0" d="M27.9 34.3h.5v28.9h-.5z"></path><path transform="rotate(-45.001 30.92 45.954)" class="st0" d="M30.7 27.6h.5v36.7h-.5z"></path><path transform="rotate(-45.001 33.702 43.173)" class="st0" d="M33.5 20.7h.5v44.9h-.5z"></path><path transform="rotate(-45.001 36.483 40.392)" class="st0" d="M36.2 21.7h.5V59h-.5z"></path><path transform="rotate(-45.001 39.265 37.61)" class="st0" d="M39 22.9h.5v29.5H39z"></path><path transform="rotate(-45.001 42.046 34.829)" class="st0" d="M41.8 24h.5v21.6h-.5z"></path><path transform="rotate(-45.001 44.829 32.048)" class="st0" d="M44.6 25.2h.5v13.7h-.5z"></path>
		</symbol>
	
		<symbol id="vant3" viewBox="0 0 100 100">
			<style>.st0{fill:#00afee}</style><path class="st0" d="M52.7 59.4h-.1c-.2-.1-.3-.2-.2-.4l.4-3.2-5.9-7.8c-.3-.3-.4-.8-.4-1.2 0-.5.3-.9.6-1.2l2.3-1.7c.8-.5 1.8-.4 2.3.4l5.8 7.8 3.2.6c.2 0 .3.2.3.3 0 .2-.1.3-.2.4l-2.6 1-1.2 1.8c0 .1-.1.1-.2.2l-2.2.6-1.6 2.2c-.1.1-.2.2-.3.2zm-5.1-13.2c-.2.1-.3.4-.3.7 0 .3 0 .5.2.7l5.9 7.9c.1.1.1.2.1.3l-.2 1.9.9-1.2c0-.1.1-.1.2-.1l2.2-.7 1.2-1.9c0-.1.1-.1.2-.1l1.4-.5-2-.4c-.1 0-.2-.1-.2-.1l-5.9-7.9c-.3-.4-.8-.5-1.3-.2l-2.4 1.6zm7.4-4.1h-.1c-.2 0-.5-.2-.6-.4l-2.5-3.2c-.1-.1-.1-.2-.1-.4s.1-.5.3-.7l6.1-4.5c.1-.1.4-.2.6-.2.2 0 .5.2.6.4l2.5 3.2c.1.1.2.4.2.6 0 .2-.2.5-.4.6l-6 4.5c-.2 0-.4.1-.6.1zm-2.4-4.2v.1l2.5 3.3 6.2-4.5-2.5-3.4-6.2 4.5zm7.5 10.7c-.1 0-.1 0 0 0-.3 0-.6-.2-.8-.5l-2.5-3.3c-.2-.4-.2-.8.1-1.1l6.2-4.5c.4-.2.8-.2 1.1.1l2.5 3.4c.2.4.2.8-.1 1.1l-6.1 4.5c-.1.2-.3.3-.4.3zm3.6-8.8c-.1 0-.1 0 0 0l-6.2 4.5v.1l2.5 3.2c.1.1.1.2.2.2l6.1-4.5v-.1l-2.6-3.4zm.6-4.8c-.2 0-.4-.1-.6-.3l-2.5-3.3c-.2-.4-.2-.8.1-1.1l6.1-4.5c.3-.2.5-.2.7-.1.2.1.4.2.5.4l2.5 3.2c.2.4.2.8-.1 1.1l-6.1 4.5c-.2.1-.4.1-.6.1zm3.6-8.6l-6.1 4.5v.1l2.5 3.2h.1l6-4.5v-.1l-2.5-3.2c.1 0 .1 0 0 0zm1.4 15.2h-.1c-.2 0-.5-.2-.6-.4L66.1 38c-.1-.1-.2-.4-.2-.6 0-.2.2-.5.4-.6l6-4.5c.1-.1.4-.2.6-.2.2 0 .5.2.6.4l2.5 3.2c.1.1.1.2.1.4s-.1.5-.3.7l-6.1 4.5c0 .2-.2.3-.4.3zm3.7-8.7l-6.2 4.5 2.5 3.4 6.2-4.5v-.1L73 32.9zm-36.7 23c-.2 0-.4-.1-.6-.3l-2.5-3.3c-.2-.4-.2-.8.1-1.1l6.1-4.5h.1c.2-.1.5-.1.7-.1.2.1.3.2.4.3l2.5 3.2c.2.4.2.8-.1 1.1l-6.1 4.5c-.2.2-.4.2-.6.2zm3.6-8.6l-6.1 4.5v.1l2.5 3.2h.1l6-4.5v-.1L40 47.3h-.1zm1.4 15.2h-.1c-.2 0-.5-.2-.6-.4l-2.5-3.2c-.1-.1-.2-.4-.2-.6 0-.2.2-.5.4-.6l6-4.5c.1-.1.4-.2.6-.2.2 0 .5.2.6.4l2.5 3.2c.2.4.2.9-.2 1.1l-6.1 4.5c0 .2-.2.3-.4.3zm3.7-8.7l-6.2 4.5 2.5 3.4 6.2-4.5v-.1L45 53.8zm-18 9h-.1c-.2 0-.5-.2-.6-.4l-2.5-3.1c-.2-.4-.2-.9.1-1.2l6.1-4.5c.1-.1.4-.2.6-.2.2 0 .5.2.6.4l2.5 3.2c.1.1.2.4.2.6 0 .2-.2.5-.4.6l-6 4.5c-.1 0-.3.1-.5.1zm-2.4-4.2c-.1.1 0 .2 0 .3L27 62l6.2-4.5-2.5-3.4-6.1 4.5zM32 69.3h-.2c-.1 0-.3-.2-.4-.5l-2.5-3.3c-.2-.4-.2-.8.1-1.1l6.1-4.5c.4-.2.8-.2 1.1.1l2.5 3.4c.2.4.2.8-.1 1.1L32.5 69c-.2.2-.3.3-.5.3zm3.7-8.8c-.1 0-.1 0 0 0L29.5 65v.1l2.5 3.2s0 .1.1.1l.2.3-.2-.3 6.1-4.5v-.1l-2.5-3.3zM55 65.6c-.2 0-.4-.2-.4-.4s.2-.4.4-.4c2.3 0 4.5-.8 6.5-2.2 1.9-1.4 3.3-3.3 4.1-5.6.1-.2.3-.3.5-.2.2.1.3.3.2.5-.9 2.5-2.3 4.5-4.3 6-2.1 1.5-4.5 2.3-7 2.3zm.4 4.1c-.2 0-.4-.2-.4-.4s.2-.4.4-.4c3.1-.1 6.1-1.1 8.7-3 2.5-1.8 4.4-4.4 5.4-7.4.1-.2.3-.3.5-.2.2.1.3.3.2.5-1 3.1-3 5.9-5.6 7.8-2.8 1.9-5.9 3-9.2 3.1zm.4 4.7c-.2 0-.4-.2-.4-.4s.1-.4.4-.4c4.2-.2 8.1-1.6 11.2-3.9 3.3-2.5 5.7-5.8 7-9.6.1-.2.3-.3.5-.2.2.1.3.3.2.5-1.3 3.9-3.8 7.4-7.2 10-3.3 2.4-7.3 3.8-11.7 4z"></path>
		</symbol>
	
		<symbol id="vant4" viewBox="0 0 100 100">
			<style>.st0,.st1{fill:#00afee}.st1{fill-rule:evenodd;clip-rule:evenodd}</style><path class="st0" d="M67.1 69.3H19.7c-1.4 0-2.7-.7-3.5-1.9s-.9-2.6-.4-3.9l12.3-29.6c.8-1.9 2.6-3.1 4.7-3.1h47.4c1.4 0 2.7.7 3.5 1.9.8 1.2.9 2.6.4 3.9L71.8 66.2c-.8 1.9-2.6 3.1-4.7 3.1zM32.9 31.5c-1.8 0-3.3 1-4 2.6L16.6 63.7c-.5 1.1-.3 2.2.3 3.2s1.7 1.5 2.9 1.5h47.4c1.8 0 3.3-1 4-2.6l12.3-29.6c.5-1.1.3-2.2-.3-3.2-.7-1-1.7-1.5-2.9-1.5H32.9z"></path><path class="st1" d="M32.2 49.6L38 37.8h9.9l-1 2h-7.2l-1.3 2.6h6.7l-1 2h-6.7l-1.6 3.2h7.5l-1 2H32.2zm11.2 0h3.2l4.9-4 1 4h3.2l-1.6-6.2 7-5.7H58l-4.4 3.5-.9-3.5h-3.2l1.4 5.7-7.5 6.2zm19.5-11.8h4.9c1.1 0 1.9.1 2.4.2.7.2 1.2.6 1.5 1.1.3.5.4 1.2.3 1.9-.1.8-.4 1.7-.9 2.8-.5 1-1 1.8-1.6 2.5-.8.9-1.6 1.6-2.4 2.1-.7.4-1.4.7-2.4.9-.7.2-1.5.3-2.5.3h-5.1l5.8-11.8zm1.8 2h1.2c1.1 0 1.8 0 2.2.1.5.1.8.3 1 .6.2.3.3.7.2 1.1-.1.5-.3 1.2-.8 2.1-.4.9-.9 1.6-1.3 2.2-.4.5-.9.9-1.3 1.1-.4.2-.8.4-1.3.5-.4.1-.9.1-1.7.1h-2l3.8-7.8z" fill-rule="evenodd"></path><path class="st1" d="M31.5 60.8l2.2-6.1H35l-.7 4.2 2.3-4.2h1.3l-2.2 6.1h-.8l1.7-4.8-2.6 4.8h-.8L34 56l-1.7 4.8h-.8zm7-3c.2-.6.5-1.1.8-1.6.2-.3.4-.6.7-.8.3-.2.5-.4.7-.5.3-.2.7-.2 1-.2.6 0 1 .3 1.2.8.2.6.1 1.3-.3 2.3-.4 1-.8 1.8-1.4 2.3-.6.6-1.2.8-1.8.8-.6 0-1-.3-1.2-.8-.1-.6 0-1.4.3-2.3zm.9-.1c-.3.7-.3 1.2-.2 1.6.1.4.3.5.6.5s.7-.2 1-.5c.3-.4.6-.9.9-1.6.3-.7.3-1.2.2-1.6-.1-.3-.3-.5-.7-.5-.4 0-.7.2-1 .5-.3.4-.5.9-.8 1.6zm6.2-3h1.6c.4 0 .6 0 .8.1.2.1.4.3.4.6.1.3.1.6 0 1 0 .4-.2.9-.4 1.4-.2.5-.4.9-.6 1.3-.3.4-.5.8-.8 1.1-.2.2-.5.4-.8.5-.2.1-.5.1-.8.1h-1.6l2.2-6.1zm.5 1l-1.5 4h.6c.2 0 .4 0 .5-.1.2 0 .3-.1.4-.3.1-.1.3-.3.4-.6.2-.3.3-.6.5-1.1.2-.5.3-.8.3-1.1v-.6c-.1-.1-.1-.2-.3-.3-.1 0-.3-.1-.7-.1h-.2v.2zm5-1h.9L50.7 58c-.2.5-.3.9-.3 1-.1.2 0 .5 0 .6.1.2.2.2.5.2.2 0 .4-.1.6-.2.2-.1.3-.3.4-.5.1-.2.2-.6.4-1l1.2-3.4h.9l-1.2 3.2c-.3.7-.5 1.2-.6 1.5-.2.3-.3.6-.5.8-.2.2-.4.4-.7.5-.3.1-.5.2-.9.2s-.7-.1-.8-.2c-.2-.1-.3-.3-.3-.5v-.7c.1-.3.2-.9.5-1.5l1.2-3.3zm3.3 6.1h3l.4-1h-2.1l1.8-5h-.9l-2.2 6zm4.8 0l2.2-6.1h3.1l-.4 1h-2.3l-.5 1.4h2.1l-.4 1h-2l-.6 1.6h2.4l-.4 1h-3.2z"></path>
		</symbol>
	
		<symbol id="vant5" viewBox="0 0 100 100">
			<style>.st0{fill:#00afee}</style><path class="st0" d="M83.3 72.6H16.8c-1.3 0-2.4-1.1-2.4-2.4V29.7c0-1.3 1.1-2.4 2.4-2.4h66.5c1.3 0 2.4 1.1 2.4 2.4v40.6c-.1 1.3-1.1 2.3-2.4 2.3zM16.8 28.1c-.9 0-1.6.7-1.6 1.6v40.6c0 .9.7 1.6 1.6 1.6h66.5c.9 0 1.6-.7 1.6-1.6V29.7c0-.9-.7-1.6-1.6-1.6H16.8z"></path><path class="st0" d="M79.5 66.5h-59c-.7 0-1.3-.6-1.3-1.3v-31c0-.7.6-1.3 1.3-1.3h58.9c.7 0 1.3.6 1.3 1.3v31c.1.8-.5 1.3-1.2 1.3zm-59-32.9c-.3 0-.6.2-.6.6v31c0 .3.2.6.6.6h58.9c.3 0 .6-.2.6-.6v-31c0-.3-.2-.6-.6-.6H20.5z"></path><path class="st0" d="M72.6 58.3h-9.2v-.8h9.2v.8zm-11.2 0h-10v-.8h10v.8zm-12 0h-10v-.8h10v.8zm-12 0h-10v-.8h10v.8zm-7.1-5l-1 .7-1-.7v-4.7l1-.8 1 .8v4.7zm.1-6.2l-1 .8-1-.8v-4.6l1-.8 1 .8v4.6zm5.8 6.4l1 .8-1 .8h-5.7l-.9-.8.9-.8h5.7zm.1-12.9l1 .8-1 .8h-5.7l-1-.8 1-.8h5.7zm2.2 12.7l-1 .7-1-.7v-4.7l1-.8 1 .8v4.7zm.1-6.2l-1 .8-1-.8v-4.6l1-.8 1 .8v4.6zm2.7.7l1 .8v4.6l-2 1.5v-6.2l1-.7zm.1-7.2l1 .8v5.7l-1 .8-1-.8v-5.7l1-.8zm8.1 13.7l-1 .8h-7.9l2-1.5h5.9l1 .7zm2.8-6.2l1 .8v4.4l-2 1.6V49l1-.9zm1-1.3l-1 .8-1-.8v-5.9l2 1.5v4.4zm6.2 6.7l1 .8-1 .8h-7.9l2-1.5h5.9zm1.1-12.1l-1 .8h-5.9l-2-1.5h7.9l1 .7zm-1.1 5.7l1 .8-1 .8h-5.9l-1-.8 1-.8h5.9zm3.8.7l1 .8v4.6l-2 1.5v-6.2l1-.7zm1-.7l-1 .8-1-.8v-6.2l2 1.5v4.7zm5.8 6.4l1 .8-1 .8h-7.6l2-1.5h5.6zm1.1-12.1l-1 .8h-5.6l-2-1.5h7.6l1 .7zm.3 6.4l1 .8v4.6l-1 .8-1-.8v-4.6l1-.8zm.1-6.1l1 .8v4.6l-1 .8-1-.8v-4.6l1-.8z"></path>
		</symbol>
	
		<symbol id="vant6" viewBox="0 0 100 100">
			<style>.st0{fill:#00afee}</style><path class="st0" d="M39.4 71.7c-.1 0-.1 0 0 0l-23-6.2c-.1 0-.2-.1-.2-.2L12.3 57V37.8c0-.2.1-.3.3-.4l29.3-6.3h.1l46.7 3.1c.2 0 .3.2.3.4v8.5c0 .1 0 .2-.1.3l-6.5 5.4v8.7l-1.7 3.6v4.2c0 .2-.1.3-.3.4l-41 6zm-22.7-6.8L39.4 71l40.3-5.9v-4.2l1.7-3.6v-8.6c0-.1 0-.2.1-.3L88 43v-8l-46.2-3.1-28.9 6.2v18.8l3.8 8z"></path><path class="st0" d="M34.1 64.4H34l-9.1-2.8-2.3 1.5c-.1.1-.2.1-.3.1l-7.9-1.7.2-.7 7.8 1.7 2.3-1.6c.1-.1.2-.1.3 0l9.1 2.8 1.9-2.3V49c0-.1 0-.2.1-.2l5.5-6.6V31.5h.8v10.8c0 .1 0 .2-.1.2l-5.5 6.6v12.3c0 .1 0 .2-.1.2l-2.1 2.6c-.3.1-.4.2-.5.2z"></path><path class="st0" d="M39 45.1h.8v26.2H39zm40.6 16l-.3-21.8-37.2-1v-.8l37.6 1c.2 0 .4.2.4.4l.3 22.1-.8.1z"></path><path class="st0" d="M44.3 66c-.1 0-.2 0-.2-.1-.1-.1-.1-.2-.1-.3v-21c0-.2.2-.4.4-.4l13.1-.2c.1 0 .2 0 .3.1.1.1.1.2.1.3v19.1c0 .2-.1.3-.3.4L44.3 66c.1 0 .1 0 0 0zm.4-21.1v20.3l12.4-2V44.8l-12.4.1zm18.2 19.2c-.1 0-.2 0-.2-.1-.1-.1-.1-.2-.1-.3V42.4c0-.2.2-.4.4-.4l2.6-.1 14.2-.1v.8l-16.4.2v20.5l2.1-.3L80 61.4l.1.7-14.6 1.6-2.6.4c.1 0 .1 0 0 0zm-22 12c-.3 0-.6 0-.9-.1-2.2-.3-3.8-1.3-3.6-2.5.1-.8 1-1.4 2.3-1.6l.1.7c-1.1.1-1.6.6-1.7.9-.1.6 1.2 1.4 3 1.6 1.8.2 3.2-.3 3.3-.9.1-.4-.7-1.1-2.1-1.5l.2-.7c1.7.4 2.7 1.3 2.6 2.3-.2 1.2-1.5 1.8-3.2 1.8zm35.4-5.8h-.8c-.8-.1-1.6-.4-2.2-.7-.7-.4-1-.9-.9-1.4.1-.7.8-1.2 2-1.4l.1.7c-.9.1-1.3.5-1.3.7 0 .2.2.5.6.7.5.3 1.2.5 1.9.6.7.1 1.4 0 2-.1.4-.1.7-.4.7-.6 0-.3-.4-.7-1.3-1.1l.3-.7c1.2.4 1.9 1.1 1.8 1.9-.1.5-.5.9-1.2 1.2-.6.2-1.1.2-1.7.2z"></path><path class="st0" d="M40.3 74.8h-.4c-.8-.1-1.4-.4-1.5-.8v-2.7c0-.1.1-.2.1-.3s.2-.1.3-.1l.6.2 1.9-.3c.1 0 .2 0 .3.1.1.1.1.2.1.3v2.9c-.1.4-.7.7-1.4.7zm-1.2-1.1c.1.1.4.3.9.4.6.1.9-.1 1-.2v-2.4l-1.5.2h-.2l-.2-.1v2.1zM76 69.6h-.4c-.8-.1-1.4-.4-1.5-.9v-2.4c0-.2.1-.3.3-.4l2.6-.4c.1 0 .2 0 .3.1.1.1.1.2.1.3v2.9c0 .4-.6.8-1.4.8zm-1.2-1.2c.1.1.4.3.9.4.6.1.9-.1 1-.2v-2.3l-1.9.3v1.8z"></path>
		</symbol>
	
		<symbol id="video-reg" viewBox="0 0 66 57.2">
			<style>.st0{fill:#fff}</style><path class="st0" d="M63.9 57.2H2.1c-1.2 0-2.1-.9-2.1-2.1V13.2c0-1.2.9-2.1 2.1-2.1h3.5v.8H2.1c-.7 0-1.3.6-1.3 1.3v41.9c0 .7.6 1.3 1.3 1.3h61.8c.7 0 1.3-.6 1.3-1.3V13.2c0-.7-.6-1.3-1.3-1.3h-3.5v-.8h3.5c1.2 0 2.1.9 2.1 2.1v41.9c0 1.2-1 2.1-2.1 2.1z"></path><path class="st0" d="M32 55.3c-6.1 0-14.2-4-18.3-15.6l-7.3-23C5.2 12.2 4.6 8.6 4.8 6c.2-2.2.9-2.4 3.3-3l.3-.1C17.5.7 27.7.1 33 0c5.3.1 15.5.7 24.6 2.9l.3.1c2.4.6 3.1.8 3.2 3 .2 2.6-.3 6.2-1.5 10.7l-7.4 22.9c-4.3 12.2-13 16-19.2 15.6-.3.1-.6.1-1 .1zM33 .8c-5.3.1-15.4.6-24.4 2.9l-.4.1c-2.3.5-2.5.6-2.6 2.3-.2 2.5.4 6.1 1.5 10.4l7.4 22.9C18.6 51.2 27 54.9 33 54.5c6 .4 14.4-3.3 18.5-15.1l7.4-22.9c1.2-4.3 1.7-7.9 1.5-10.4-.1-1.7-.4-1.7-2.7-2.3l-.3-.1C48.4 1.4 38.2.9 33 .8z"></path><path class="st0" d="M6.3 15l-.2-.7c14.1-4 28-5 41.2-2.9l-.1.7c-13.1-2-26.9-1-40.9 2.9zm53.3 0c-.8-.3-1.7-.5-2.6-.7l.2-.7c.8.2 1.7.5 2.6.8l-.2.6zM5.3 6.6l-.2-.8c19.2-5.7 38-5.7 55.8 0l-.2.7C43 .9 24.3.9 5.3 6.6z"></path><path class="st0" d="M52.4 17.6c-3 0-5.5-2.5-5.5-5.5s2.5-5.5 5.5-5.5 5.5 2.5 5.5 5.5-2.5 5.5-5.5 5.5zm0-10.3c-2.6 0-4.7 2.1-4.7 4.7s2.1 4.7 4.7 4.7 4.7-2.1 4.7-4.7c0-2.5-2.1-4.7-4.7-4.7z"></path><path class="st0" d="M52.8 13.9c-1.6 0-2.9-1.3-2.9-2.9s1.3-2.9 2.9-2.9 2.9 1.3 2.9 2.9-1.2 2.9-2.9 2.9zm0-5.1c-1.2 0-2.2 1-2.2 2.2s1 2.2 2.2 2.2 2.2-1 2.2-2.2-1-2.2-2.2-2.2zM33 47.9c-6.9 0-12.6-5.6-12.6-12.6S26 22.7 33 22.7c6.9 0 12.6 5.6 12.6 12.6S39.9 47.9 33 47.9zm0-24.4c-6.5 0-11.8 5.3-11.8 11.8 0 6.5 5.3 11.8 11.8 11.8s11.8-5.3 11.8-11.8c0-6.5-5.3-11.8-11.8-11.8z"></path><path class="st0" d="M33 46.8c-6.3 0-11.5-5.1-11.5-11.5 0-6.3 5.1-11.5 11.5-11.5 6.3 0 11.5 5.1 11.5 11.5-.1 6.3-5.2 11.5-11.5 11.5zm0-22.2c-5.9 0-10.7 4.8-10.7 10.7S27.1 46 33 46s10.7-4.8 10.7-10.7S38.9 24.6 33 24.6z"></path><path class="st0" d="M33 41.8c-3.6 0-6.5-2.9-6.5-6.5s2.9-6.5 6.5-6.5 6.5 2.9 6.5 6.5c-.1 3.6-3 6.5-6.5 6.5zm0-12.2c-3.1 0-5.7 2.6-5.7 5.7S29.8 41 33 41s5.7-2.6 5.7-5.7-2.6-5.7-5.7-5.7z"></path><path class="st0" d="M33 40.6c-2.9 0-5.3-2.4-5.3-5.3S30.1 30 33 30s5.3 2.4 5.3 5.3-2.4 5.3-5.3 5.3zm0-9.9c-2.5 0-4.6 2-4.6 4.6s2 4.6 4.6 4.6c2.5 0 4.6-2 4.6-4.6s-2.1-4.6-4.6-4.6z"></path><path class="st0" d="M33 39.4c-2.2 0-4-1.8-4-4s1.8-4 4-4 4 1.8 4 4-1.8 4-4 4zm0-7.4c-1.8 0-3.3 1.5-3.3 3.3s1.5 3.3 3.3 3.3c1.8 0 3.3-1.5 3.3-3.3S34.8 32 33 32z"></path>
		</symbol>
	
		<symbol id="visa" viewBox="0 0 45.5 14">
			<title>51F551A6-3E13-489D-8683-31F3D48CD0DC</title><path class="st0" d="M16 13.8L18.3.2H22l-2.3 13.6H16zM33 .6c-.7-.3-1.8-.6-3.3-.6-3.6 0-6.2 1.8-6.2 4.5 0 2 1.8 3 3.2 3.7 1.4.7 1.9 1.1 1.9 1.7 0 .9-1.1 1.3-2.2 1.3-1.5 0-2.3-.2-3.5-.7l-.5-.2-.5 3c.9.4 2.5.7 4.1.7 3.9 0 6.4-1.8 6.4-4.6 0-1.5-1-2.7-3.1-3.7-1.3-.6-2.1-1-2.1-1.7 0-.6.7-1.2 2.1-1.2 1.2 0 2.1.2 2.8.5l.3.2.6-2.9zm9.5-.4h-2.8c-.9 0-1.5.2-1.9 1.1l-5.5 12.4h3.9s.6-1.7.8-2h4.7l.4 2h3.4L42.5.2zM37.9 9c.3-.8 1.5-3.8 1.5-3.8s.3-.8.5-1.3l.3 1.2s.7 3.2.8 3.9h-3.1zM12.9.2L9.3 9.5l-.4-1.9c-.6-2.2-2.7-4.5-5.1-5.7l3.3 11.9H11L16.8.3 12.9.2z" fill="#004686"></path><path class="st1" d="M6 .2H0v.3c4.6 1.1 7.7 3.8 8.9 7.1L7.7 1.4C7.4.5 6.8.3 6 .2z" fill="#ef9b11"></path>
		</symbol>
	
		<symbol id="yamarket" viewBox="0 0 140.1 28.6">
			<style>.st0{fill:#fff}</style><path class="st0" d="M9.1 2.3H7.5c-.5 0-1 .1-1.4.3-.5.3-.9.6-1.3 1-.4.5-.7 1-.9 1.8-.1.7-.3 1.6-.3 2.6s.1 1.8.4 2.5c.2.7.6 1.2.9 1.7.4.4.8.7 1.3.9.6.1 1.1.2 1.6.2h1.3v-11zM2.9 24.2H.1l5-9.3c-1.5-.7-2.5-1.6-3.1-2.8s-.9-2.6-.9-4.2c0-1.2.2-2.3.5-3.3S2.4 2.8 3 2.2c.6-.7 1.3-1.1 2.1-1.5C5.9.4 6.7.2 7.6.2h4v24H9.1v-8.9H7.5l-4.6 8.9zM131.5 8.3v1.2h3.6v14.4h1.5V9.5h3.6V8.3h-8.7zM126 8c-2.6 0-4.5 3-4.5 8.1s1.5 8.1 4.8 8.1c2.5 0 3.7-1.8 3.7-1.8l-.5-1.2s-1.1 1.7-3.2 1.7c-2.3 0-3.4-2.3-3.4-6.6h7.1c.4-5.5-1.4-8.3-4-8.3zm2.5 7.2h-5.7c.1-3.9 1.5-6 3.1-6s2.9 1.8 2.6 6zm-13.7.3l5.1-7.2h-1.4l-5.2 7.3V8.3h-1.5v15.6h1.4v-8.1l5.4 8.1h1.6l-5.4-8.4zM104.9 8c-1.7 0-2.9 1.4-3.5 2.9l-.1-2.6H100v20.4h1.5v-5.9c.6.8 1.6 1.4 2.8 1.4 2.9 0 4.8-2.8 4.8-8.5 0-4.6-1.6-7.7-4.2-7.7zm-.6 15c-1.4 0-2.3-.6-2.9-1.9v-8.7c.7-1.7 1.8-3.2 3.2-3.2 1.8 0 2.9 2.4 2.9 6.5.1 5-1.2 7.3-3.2 7.3zm-7.7-2v-8.5c0-3.1-1.5-4.5-4-4.5-1.8 0-3.1.8-3.7 1.6l.4 1.4c.8-1.1 2-1.8 3.3-1.8 1.7 0 2.6 1 2.6 3.4v2h-1.7c-3.4 0-5.2 1.7-5.2 5.1 0 2.8 1.5 4.5 3.6 4.5 1.5 0 2.7-.9 3.4-2.4.1 1.1.3 1.7.4 2.1H97c-.2-.6-.4-1.8-.4-2.9zm-1.4-1.1c-.6 1.7-1.6 3.1-3 3.1-1.5 0-2.4-1.3-2.4-3.5 0-2.7 1.2-3.9 3.8-3.9h1.7l-.1 4.3zM83.9 1.7l-3.8 14.1c-.2.6-.4 1.7-.5 2.6h-.1c-.1-.8-.3-2-.5-2.6L75.3 1.7h-1.8v22.1h1.4V8.4c0-1.1 0-2.2-.1-3.3h.1c.2 1 .4 2 .7 3.2l3.3 12.2h1.2l3.3-12.3c.2-.9.5-1.8.7-3.1h.1c-.1 1.1-.1 2.2-.1 3.3v15.5h1.5V1.7h-1.7zm-16 20c-.3.1-.7.3-1.2.4s-.9.2-1.4.2c-1.2 0-2.1-.5-2.7-1.6-.6-1.1-.9-2.6-.9-4.4 0-.8.1-1.6.2-2.4.1-.8.3-1.5.5-2.1s.5-1.1.9-1.5.8-.5 1.2-.5c.4 0 .7.1 1.1.3s.7.5 1 .8l1.3-2.1c-.4-.3-.9-.6-1.5-.8-.5-.2-1.2-.3-1.9-.3-.8 0-1.5.2-2.1.7-.7.4-1.2 1-1.7 1.8s-.9 1.7-1.1 2.8c-.3 1.1-.4 2.4-.4 3.7 0 2.5.5 4.4 1.5 5.7 1 1.3 2.3 2 3.9 2 .8 0 1.4-.1 2-.3.6-.2 1.1-.5 1.6-.8l-.3-1.6zm-13.7-6.3l3.9-7.2h-2.6l-3.4 7-.3.3V8.2h-2.5v16h2.5V16l.3.3 3.8 7.9h2.8l-4.5-8.8zM21 8.2v6.3h-3.7V8.2h-2.5v16h2.5v-7.6H21v7.6h2.5v-16H21zm25.9 7.2c0-2.5-.4-4.4-1.2-5.7s-1.8-1.9-3.1-1.9c-.9 0-1.6.3-2.2.8-.6.5-1.1 1.2-1.5 2s-.7 1.8-.9 2.9-.3 2.2-.3 3.4c0 2.4.5 4.3 1.5 5.7 1 1.3 2.3 2 3.9 2 .8 0 1.5-.1 2.1-.3.6-.2 1.2-.5 1.7-.8l-.3-1.8c-.3.1-.7.3-1.2.4s-1 .2-1.5.2c-1.3 0-2.2-.5-2.8-1.5s-.9-2.3-.9-4.1h6.7v-1.3zm-2.6-.7h-4.1c0-.7.1-1.4.2-2 .1-.6.3-1.1.4-1.6.2-.5.4-.8.7-1 .3-.3.6-.4.9-.4.5 0 .9.3 1.2 1s.5 1.6.6 2.8v.7l.1.5zm-9.4 7.5v-14H28v4.5c0 1.1-.1 2.2-.3 3.3l-.6 3.3c-.4.9-.8 1.9-1.3 2.9h-1v5.1H27v-3.1h6.8v3.1H36v-5.1h-1.1zm-2.5 0H28c.4-.7.8-1.5 1-2.4.3-.9.5-1.9.6-3 .2-1 .3-2.1.3-3.2.1-1.1.1-2.1.1-3.1v-.3h2.3l.1 12z"></path>
		</symbol>
	
		<symbol id="yamarket1" viewBox="0 0 105 62">
			<path d="M20.8 36.9c.1-.1.2-.3.3-.3.1-.1.3-.1.4 0 .2.1.3.2.3.3l1.3 2.6 2.8.4c.2 0 .3.1.4.2.1.1.1.3.1.4 0 .2-.1.3-.2.4l-2.1 2 .5 2.9c0 .2 0 .3-.1.4-.1.1-.2.2-.4.3-.2 0-.3 0-.4-.1l-2.6-1.3-2.6 1.3c-.1.1-.3.1-.4.1-.2 0-.3-.1-.4-.3.3 0 .2-.2.3-.3l.5-2.9-2.1-2c-.1-.1-.2-.3-.2-.4 0-.2 0-.3.1-.4.1-.1.2-.2.4-.2l2.8-.4 1.3-2.7zm15 0c.1-.1.2-.3.3-.3.1-.1.3-.1.4 0 .2.1.3.2.3.3l1.3 2.6 2.8.4c.2 0 .3.1.4.2.1.1.1.3.1.4 0 .2-.1.3-.2.4l-2.1 2 .5 2.9c0 .2 0 .3-.1.4-.1.1-.2.2-.4.3-.2 0-.3 0-.4-.1l-2.6-1.3-2.6 1.3c-.1.1-.3.1-.4.1-.2 0-.3-.1-.4-.3.3 0 .2-.2.3-.3l.5-2.9-2.1-2c-.1-.1-.2-.3-.2-.4 0-.2 0-.3.1-.4.1-.1.2-.2.4-.2l2.8-.4 1.3-2.7zm16 0c.1-.1.2-.3.3-.3.1-.1.3-.1.4 0 .2.1.3.2.3.3l1.3 2.6 2.8.4c.2 0 .3.1.4.2.1.1.1.3.1.4 0 .2-.1.3-.2.4l-2.1 2 .5 2.9c0 .2 0 .3-.1.4-.1.1-.2.2-.4.3-.2 0-.3 0-.4-.1l-2.6-1.3-2.6 1.3c-.1.1-.3.1-.4.1-.2 0-.3-.1-.4-.3.3 0 .2-.2.3-.3l.5-2.9-2.1-2c-.1-.1-.2-.3-.2-.4 0-.2 0-.3.1-.4.1-.1.2-.2.4-.2l2.8-.4 1.3-2.7zm16 0c.1-.1.2-.3.3-.3.1-.1.3-.1.4 0 .2.1.3.2.3.3l1.3 2.6 2.8.4c.2 0 .3.1.4.2.1.1.1.3.1.4 0 .2-.1.3-.2.4l-2.1 2 .5 2.9c0 .2 0 .3-.1.4-.1.1-.2.2-.4.3-.2 0-.3 0-.4-.1l-2.6-1.3-2.6 1.3c-.1.1-.3.1-.4.1-.2 0-.3-.1-.4-.3.3 0 .2-.2.3-.3l.5-2.9-2.1-2c-.1-.1-.2-.3-.2-.4 0-.2 0-.3.1-.4.1-.1.2-.2.4-.2l2.8-.4 1.3-2.7zm16 0c.1-.1.2-.3.3-.3.1-.1.3-.1.4 0 .2.1.3.2.3.3l1.3 2.6 2.8.4c.2 0 .3.1.4.2.1.1.1.3.1.4 0 .2-.1.3-.2.4l-2.1 2 .5 2.9c0 .2 0 .3-.1.4-.1.1-.2.2-.4.3-.2 0-.3 0-.4-.1l-2.6-1.3-2.6 1.3c-.1.1-.3.1-.4.1-.2 0-.3-.1-.4-.3.3 0 .2-.2.3-.3l.5-2.9-2.1-2c-.1-.1-.2-.3-.2-.4 0-.2 0-.3.1-.4.1-.1.2-.2.4-.2l2.8-.4 1.3-2.7zm1.3-17.5v.6H87v7.1h.7V20h1.8v-.6h-4.4zm-2.9-.1c-1.3 0-2.3 1.5-2.3 4s.8 4 2.5 4c.7 0 1.4-.3 1.9-.9l-.3-.6c-.4.5-1 .8-1.6.8-1.2 0-1.7-1.1-1.8-3.3h3.6c.3-2.6-.6-4-2-4zm1.3 3.5h-2.9c.1-1.9.8-3 1.6-3 .8.1 1.4 1 1.3 3zm-7 .2l2.6-3.6h-.7L75.7 23v-3.6H75v7.7h.7v-4l2.8 4h.8L76.5 23zm-5.1-3.7c-.8.1-1.5.6-1.8 1.4l-.1-1.3h-.7v10.1h.8v-2.9c.3.4.9.7 1.4.7 1.5 0 2.5-1.4 2.5-4.2 0-2.3-.8-3.8-2.1-3.8zm-.3 7.4c-.6 0-1.2-.3-1.5-.9v-4.3c.2-.8.9-1.4 1.7-1.6.9 0 1.5 1.2 1.5 3.2 0 2.4-.7 3.6-1.7 3.6zm-4-1v-4.2c0-1.5-.8-2.2-2.1-2.2-.7 0-1.4.3-1.9.8l.2.7c.4-.5 1-.9 1.7-.8.9 0 1.3.5 1.3 1.7v1h-.9c-1.7 0-2.7.9-2.7 2.5 0 1.4.8 2.2 1.8 2.2.8 0 1.5-.5 1.8-1.2 0 .4.1.7.2 1h.7c0-.5-.1-1-.1-1.5zm-.7-.5c-.1.8-.8 1.4-1.6 1.5-.8 0-1.3-.6-1.3-1.7-.1-.9.5-1.8 1.4-1.9h1.5v2.1zm-5.8-9l-1.9 7c-.1.4-.2.8-.3 1.3h-.1c-.1-.4-.1-.9-.2-1.3l-1.9-7h-.9v10.9h.7v-7.6c0-.5 0-1.1-.1-1.6h.1c.1.5.2 1 .4 1.6l1.7 6h.6l1.7-6.1c.1-.5.2-.9.4-1.5h.1c0 .5-.1 1.1-.1 1.6v7.6h.8V16.2h-1zM52.4 26c-.2.1-.4.1-.6.2-.2.1-.5.1-.7.1-.6 0-1.1-.3-1.4-.8-.3-.7-.5-1.4-.4-2.2 0-.4 0-.8.1-1.2.1-.3.2-.7.3-1s.2-.5.4-.7.4-.3.6-.3c.2 0 .4.1.6.2.2.1.4.2.5.4l.7-1.1c-.2-.2-.5-.3-.8-.4s-.6-.1-.9-.1c-.4 0-.8.1-1.1.3-.4.2-.7.5-.9.9-.3.4-.5.9-.6 1.4-.1.6-.2 1.2-.2 1.8-.1 1 .2 2 .8 2.8.5.6 1.2 1 2 1 .3 0 .7 0 1-.2.3-.1.6-.2.8-.4l-.2-.7zm-7.1-3.1l2-3.5H46l-1.7 3.4-.2.2v-3.6h-1.3v7.9h1.3v-4.1l.2.2 2 3.9h1.4l-2.4-4.4zm-17.1-3.5v3.1h-1.9v-3.1H25v7.9h1.3v-3.8h1.9v3.8h1.3v-7.9h-1.3zm13.3 3.5c.1-1-.1-1.9-.6-2.8s-1.6-1.2-2.5-.7c-.1 0-.1.1-.2.1-.3.3-.6.6-.8 1-.2.5-.4 1-.5 1.5-.1.6-.2 1.1-.2 1.7-.1 1 .2 2 .8 2.8.5.6 1.2 1 2 1 .4 0 .7 0 1.1-.2.3-.1.6-.2.9-.4l-.1-.9c-.2.1-.4.1-.6.2-.2.1-.5.1-.8.1-.6 0-1.1-.2-1.4-.7-.3-.6-.5-1.3-.5-2h3.4v-.7zm-1.3-.3h-2.1c0-.4.1-.7.1-1s.1-.5.2-.8c.1-.2.2-.4.3-.5s.3-.2.5-.2c.3 0 .5.2.6.5.2.4.3.9.3 1.4v.6h.1zm-4.8 3.7v-6.9h-3.6v2.2c0 .5-.1 1.1-.1 1.6-.1.5-.2 1.1-.3 1.6-.1.5-.3 1-.6 1.5h-.5v2.5h1.1v-1.5h3.5v1.5H36v-2.5h-.6zm-1.3 0h-2.3c.2-.4.4-.8.5-1.2.1-.5.3-1 .3-1.5.1-.5.2-1 .2-1.6 0-.5.1-1 .1-1.5v-.2h1.2v6zm-12-9.8h-.8c-.3 0-.5.1-.8.2-.2.1-.5.3-.6.5-.2.3-.4.5-.4.9-.1.4-.2.8-.2 1.3 0 .4.1.8.2 1.2.1.3.3.6.5.8.2.2.4.4.7.5.3.1.5.1.8.1h.7v-5.5h-.1zm-3.2 10.8h-1.4l2.6-4.6c-.7-.3-1.2-.8-1.6-1.4-.3-.6-.5-1.3-.5-2.1 0-.6.1-1.1.3-1.6.2-.4.4-.8.7-1.2.3-.3.7-.6 1.1-.7.4-.2.9-.2 1.3-.2h2v11.8h-1.3v-4.4h-.8l-2.4 4.4z"></path>
		</symbol>
	
		<symbol id="ymarket-icon" viewBox="0 0 161 32.3">
			<path d="M39.9 24.8V9h-8v1.5c0 1.1 0 2.3-.1 3.5 0 1.2-.1 2.5-.3 3.7-.2 1.2-.4 2.5-.7 3.7-.3 1.2-.8 2.3-1.3 3.4h-1.1v5.9H31v-3.6h7.9v3.6h2.5v-5.9h-1.5zm-2.8 0H32c.5-.9.9-1.8 1.2-2.7.3-1.1.6-2.2.8-3.4.2-1.2.3-2.4.4-3.6.1-1.2.1-2.4.1-3.5v-.4h2.7l-.1 13.6zm16.7-7.6c.1-2.2-.3-4.5-1.4-6.5-1.1-2-3.5-2.8-5.5-1.7-.2.1-.4.2-.6.4-.7.6-1.4 1.4-1.8 2.3-.5 1-.8 2.1-1 3.3-.2 1.3-.3 2.6-.3 3.9-.1 2.3.4 4.5 1.7 6.5 1 1.5 2.7 2.3 4.4 2.3.8 0 1.7-.1 2.4-.4.7-.2 1.3-.5 2-.9l-.3-2c-.4.2-.9.3-1.4.4-.6.1-1.1.2-1.7.2-1.3.1-2.5-.6-3.2-1.7-.8-1.4-1.1-3-1-4.6h7.7v-1.5zm-3-.8h-4.7c.1-.8.1-1.5.3-2.2.1-.6.3-1.2.5-1.8.2-.4.4-.9.8-1.2.3-.3.7-.4 1.1-.4.7.1 1.2.5 1.4 1.1.4 1 .6 2.1.7 3.2v.9l-.1.4zM24 9v7.2h-4.2V9H17v18.2h2.8v-8.7H24v8.7h2.8V9H24zm38.2 8.2L66.7 9h-3l-3.9 7.9-.3.4V9h-2.8v18.2h2.8v-9.3l.3.4 4.4 9h3.2l-5.2-10.1zM78 24.3c-.4.2-.9.3-1.3.4-.6.2-1.1.3-1.7.3-1.3 0-2.5-.7-3.1-1.8-.7-1.6-1.1-3.3-1-5 0-.9.1-1.8.2-2.7.1-.8.3-1.6.6-2.3.2-.6.6-1.2 1-1.7.3-.4.8-.6 1.3-.6s.9.1 1.3.4c.4.3.8.6 1.1 1L78 9.7c-.5-.4-1.1-.7-1.7-.9-.7-.2-1.4-.3-2.1-.3-.9 0-1.7.3-2.5.7-.8.5-1.5 1.3-2 2.1-.6 1-1 2.1-1.3 3.2-.3 1.5-.4 2.9-.4 4.3-.1 2.3.4 4.6 1.7 6.5 1 1.4 2.7 2.3 4.4 2.3.8 0 1.6-.1 2.3-.4.6-.2 1.3-.5 1.8-.9l-.2-2zM96.3 1.6L92 17.7c-.2.6-.5 2-.6 2.9h-.1c-.1-1-.3-2-.5-2.9L86.4 1.6h-2.1v25.1h1.6V9.2c0-1.3 0-2.5-.1-3.7h.1c.2 1.2.5 2.3.8 3.6L90.5 23h1.4l3.8-14c.3-1 .5-2.1.8-3.5h.1c-.1 1.3-.1 2.5-.1 3.7v17.6h1.7V1.6h-1.9zm14.6 21.9v-9.7c0-3.5-1.7-5.1-4.6-5.1-1.6-.1-3.2.6-4.2 1.8l.5 1.6c.8-1.2 2.3-2 3.8-1.9 1.9 0 3 1.2 3 3.9v2.2h-1.9c-3.9 0-6 2-6 5.8 0 3.2 1.7 5.1 4.1 5.1 1.7 0 3.3-1.1 3.9-2.7.1.8.2 1.6.4 2.4h1.5c-.3-1.2-.5-2.3-.5-3.4zm-1.6-1.2c-.6 1.9-1.8 3.5-3.5 3.5s-2.8-1.4-2.8-3.9c0-3.1 1.4-4.4 4.4-4.4h1.9v4.8zm11.2-13.6c-2 0-3.3 1.6-4.1 3.3l-.2-2.9h-1.5v23.2h1.7v-6.7c.8 1 2 1.6 3.2 1.5 3.3 0 5.6-3.2 5.6-9.7 0-5.1-1.7-8.7-4.7-8.7zm-.7 17.1c-1.4.1-2.8-.8-3.3-2.1v-9.9c.8-1.9 2.1-3.6 3.7-3.6 2.1 0 3.3 2.8 3.3 7.4 0 5.5-1.5 8.2-3.7 8.2zm12-8.5l5.9-8.2h-1.6l-6 8.3V9.1h-1.7v17.7h1.7v-9.2l6.2 9.2h1.8l-6.3-9.5zm12.8-8.6c-3 0-5.2 3.4-5.2 9.2s1.7 9.2 5.5 9.2c1.6 0 3.2-.7 4.2-2l-.5-1.3c-.8 1.2-2.2 1.9-3.6 1.9-2.6 0-3.9-2.6-3.9-7.5h8.1c.5-6.3-1.5-9.5-4.6-9.5zm3 8.2h-6.5c.1-4.4 1.7-6.8 3.6-6.8 1.8 0 3.2 2.1 2.9 6.8zm3.4-7.8v1.4h4.2v16.4h1.7V10.4h4.1V9.1h-10z" fill="#333"></path><path d="M10.4 2.3H8.5c-.6 0-1.1.1-1.7.4-.5.2-1 .6-1.4 1.1-.4.6-.8 1.3-1 2-.2.9-.4 1.9-.3 2.9 0 .9.1 1.9.4 2.8.2.7.6 1.3 1.1 1.9.4.5.9.8 1.5 1.1.6.2 1.2.3 1.8.3h1.5V2.3zM3.2 27.2H0l5.8-10.5C4.3 16 3 14.9 2.2 13.4 1.4 12 1 10.3 1.1 8.7c-.1-1.3.2-2.5.6-3.7.3-1.1.9-2 1.6-2.8C4 1.5 4.8.9 5.7.5 6.6.2 7.6 0 8.6 0h4.6v27.2h-2.8V17.1H8.5L3.2 27.2z" fill="red"></path>
		</symbol>
	
</svg>
