<svg width="199" height="181" viewBox="0 0 199 181" fill="none" xmlns="http://www.w3.org/2000/svg">
<path d="M182.413 15.8C172.113 5.6 157.313 0 140.713 0H140.613C127.413 0.1 115.713 3.2 105.813 9.3L99.2134 13.4L92.6134 9.3C82.8134 3.2 71.1134 0.1 57.9134 0H57.7134C41.0134 0 26.2134 5.6 16.0134 15.8C-4.68664 38.6 -5.38664 74.5 14.3134 99.6C37.9134 127.8 71.0134 159.7 98.7134 180.9C98.7134 180.9 98.8134 180.9 98.9134 181C99.0134 181 99.1134 181 99.2134 181C99.4134 181 99.6134 180.9 99.7134 180.9C127.313 159.8 160.313 128 183.813 99.9L184.113 99.6C203.813 74.5 203.013 38.6 182.413 15.8ZM162.713 92.5L162.513 92.7C144.913 113.8 120.213 137.6 99.5134 153.3C99.5134 153.3 99.3134 153.4 99.1134 153.4C99.0134 153.4 98.9134 153.4 98.9134 153.4C98.8134 153.4 98.7134 153.4 98.7134 153.3C78.0134 137.5 53.2134 113.6 35.5134 92.5C20.7134 73.8 21.3134 46.9 36.8134 29.8C44.6134 22.2 55.7134 18 68.1134 18H68.2134C78.1134 18.1 86.8134 20.4 94.2134 25L99.1134 28.1L104.013 25C111.413 20.4 120.113 18.1 130.013 18H130.113C142.613 18 153.713 22.2 161.313 29.9C176.913 46.9 177.513 73.7 162.713 92.5Z" fill="#BB6BD9"/>
<path d="M49.9066 91.1C49.8066 91.1 49.8066 91.1 49.8066 91.1C49.7066 91.1 49.7066 91.1 49.7066 91.1C35.7066 80.4 19.0066 64.3 7.20662 50.1C-2.69338 37.5 -2.39338 19.4 8.10662 8C13.2066 2.9 20.7066 0 29.1066 0H29.2066C35.8066 0 41.7066 1.6 46.7066 4.7L50.0066 6.8L53.3066 4.7C58.3066 1.6 64.1066 0 70.8066 0H70.9066C79.3066 0 86.7066 2.8 91.9066 8C102.307 19.4 102.707 37.5 92.8066 50.1L92.7066 50.3C80.9066 64.5 64.2066 80.5 50.4066 91.1C50.1066 91 50.0066 91.1 49.9066 91.1Z" transform="translate(49.3068 35)" fill="#BB6BD9"/>
</svg>
