<svg width="247" height="224" viewBox="0 0 247 224" fill="none" xmlns="http://www.w3.org/2000/svg">
<path d="M74.4 205.995C79 203.895 86.9 199.395 93.8 196.195C83.7 201.695 78 204.595 74.4 205.995C72.6 207.095 71 207.995 69.6 208.895C68.8 209.294 68.1 209.795 67.4 210.195C66.2 210.795 65.1 211.494 64 212.094C59.4 214.594 54.7 217.095 48.1 220.495C48.7 217.395 49.3 213.795 50.1 209.695C50.5 207.695 50.9 205.495 51.3 203.195C51.7 201.295 52.1 199.195 52.5 196.995C54.7 180.995 57.9 163.194 60.9 146.294C61.4 143.395 61.9 140.594 62.4 137.695C53.7 129.094 45 120.494 36.4 111.994C25.5 100.994 14.6 90.1945 3.8 79.4945C4.4 79.3945 4.9 79.3945 5.4 79.2945C31.6 75.6945 59 71.8945 86.2 68.1945C88 64.5945 89.8 61.0945 91.5 57.5945C98.6 43.3945 105.8 28.8945 112.9 14.5945C116.2 7.9945 118.6 2.5945 119.2 0.594496C119.8 -1.4055 117.8 1.9945 114.9 7.3945C111.5 13.6945 108.1 20.3945 104.2 28.1945C97.8 40.8945 91.4 53.6945 85 66.3945C56.6 70.3945 28.2 74.3945 0 78.2945C7 85.0945 13.9 91.9945 20.9 98.8945C25.2 103.194 29.5 107.494 33.9 111.794C42 119.894 50.2 128.195 58.4 136.195L60.5 138.195C55.6 166.695 50.7 195.095 45.8 223.495C71.3 210.095 96.9 196.794 122.4 183.395C148 196.895 173.7 210.495 199.4 223.995C199.2 222.695 199 221.395 198.7 220.094C194 192.794 189.4 165.594 184.7 138.294C205.4 118.094 226.2 97.7945 246.9 77.5945C239.2 76.4945 231.6 75.3945 223.9 74.2945C212.5 72.6945 201 71.0945 189.6 69.3945C184.1 68.5945 178.7 67.8945 173.3 67.0945C170.6 66.6945 167.9 66.3945 165.3 65.9945C164 65.7945 162.6 65.5945 161.3 65.4945L160.8 65.3945C160.7 65.3945 160.7 65.3945 160.7 65.3945H160.6H160.4C156.7 58.3945 153.2 51.4945 149.7 44.8945C145.8 37.3945 141.9 30.1945 138.2 23.5945C137.1 21.4945 135.4 18.2945 134 15.4945C130 7.7945 125 -2.1055 125.5 0.394496C126.1 2.9945 131.5 13.4945 135.4 21.3945C143.1 36.9945 150.8 52.5945 158.5 68.0945C185.5 72.0945 212.6 75.9945 239.6 79.9945L181 137.094L186 166.395C187.3 173.895 189 182.794 190.2 193.094C186.6 172.695 183.5 155.094 180.8 139.094C180.7 138.395 180.6 137.594 180.4 136.895C199.7 117.994 218.9 99.2945 238 80.4945C211.3 76.6945 184.7 72.9945 158 69.1945L157.9 68.9945C156 65.2945 154.2 61.5945 152.4 58.0945C150.5 54.2945 148.6 50.6945 146.8 47.1945C143.2 40.2945 139.8 33.9945 136.8 28.7945C135 25.5945 134.4 24.9945 135.3 27.2945C136.2 29.6945 138.3 34.0945 140.7 38.8945C146 49.5945 151.4 60.2945 156.7 70.9945C168.1 72.5945 179.5 74.1945 190.8 75.7945C205.2 77.7945 219.6 79.7945 234.1 81.8945C215.6 99.9945 197 118.195 178.4 136.395C179.3 141.594 180.2 146.794 181.1 151.895L191.6 213.294C168.6 201.094 145.5 188.994 122.5 176.794C104.5 186.194 86.6 195.595 68.6 204.995C63.7 207.595 58.7 210.094 53.8 212.695C55 205.795 56.3 198.895 57.5 191.794C58.7 184.895 60 177.895 61.3 170.895C60.6 176.794 59.8 180.994 59.1 185.094L54.5 211.495C65.7 205.595 76.8 199.794 88 193.895C99.5 187.794 110.9 181.795 122.4 175.695C128.1 178.695 133.8 181.594 139.5 184.594C156.3 193.395 173.1 202.195 189.9 210.895C187.6 197.395 185.2 183.794 182.9 170.294C180.8 158.594 178.8 147.094 176.8 135.594C186.1 126.294 195.4 117.094 204.7 107.894C213 99.5945 221.3 91.3945 229.6 83.0945C222.5 82.1945 215.4 81.1945 208.3 80.2945C200 79.1945 191.8 77.9945 183.4 76.8945C178.7 76.2945 174.1 75.5945 169.6 74.9945C164.6 74.3945 159.8 73.6945 155.1 73.0945C154.3 71.5945 153.6 70.1945 152.8 68.6945C152.2 67.5945 151.7 66.5945 151.1 65.5945C150 63.4945 148.9 61.4945 147.8 59.4945C145.6 55.4945 143.6 51.6945 141.6 47.9945C137 39.4945 136 39.4945 139.7 46.9945C143.3 54.3945 145.8 59.4945 147.6 63.5945C148.5 65.5945 149.2 67.2945 149.9 68.8945C150.1 69.2945 150.2 69.6945 150.4 70.0945C150.7 70.7945 151 71.3945 151.3 72.0945C151.9 73.3945 152.5 74.6945 153 75.9945C154.7 76.2945 156.4 76.6945 158.2 76.9945C158.8 77.0945 159.5 77.2945 160.4 77.3945C161 77.4945 161.7 77.5945 162.5 77.7945C164 78.0945 165.8 78.2945 167.7 78.5945C171.5 79.0945 175.8 79.6945 179.5 80.1945C188.3 81.3945 197.1 82.5945 205.9 83.7945C210.3 84.3945 214.7 84.9945 219.1 85.6945L220.9 85.8945C216.1 90.5945 211.2 95.2945 206.3 99.9945C200.9 105.194 195.4 110.594 190 115.894C183.9 121.894 177.8 127.895 171.6 133.895C175.5 156.495 179.4 179.195 183.4 201.895C181.3 200.794 179.2 199.695 177.1 198.594C163.7 191.494 150.2 184.294 136.9 177.395C132.1 174.895 127.2 172.395 122.4 169.794C110.2 176.294 97.9 182.794 85.7 189.294C80 192.294 74.3 195.294 68.6 198.294L62.6 201.495L61.2 202.195L61.4 200.995C65.3 178.695 69.2 156.295 73.1 133.995C70.4 131.395 67.7 128.694 65 126.094C59 120.194 52.8 114.094 47.2 108.494C42.1 103.394 37 98.2945 31.7 93.0945C29.5 90.9945 27.4 88.7945 25.2 86.6945L24.8 86.1945L25.5 86.0945C29.6 85.4945 33.8 84.8945 37.9 84.2945C46.3 83.0945 54.6 81.9945 62.7 80.9945C64.9 80.6945 67.8 80.2945 70.1 79.8945C74.1 79.2945 78.3 78.5945 81.8 77.9945C83.7 77.5945 85.5 77.2945 86.9 77.0945C89.3 76.6945 91.1 76.2945 92 75.9945V75.8945C92.4 74.7945 92.2 74.7945 91.7 75.6945C90.9 75.6945 89.7 75.8945 88.2 75.9945C87.4 76.0945 86.6 76.1945 85.7 76.2945C85.2 76.3945 84.6 76.3945 84 76.4945C81.6 76.7945 78.8 77.0945 75.9 77.3945C73.7 77.6945 71.4 77.8945 69 78.1945C59.6 79.4945 50.2 80.6945 40.7 81.9945C36 82.5945 31.2 83.2945 26.5 83.8945C24.6 84.1945 22.6 84.3945 20.6 84.6945C21.5 85.5945 22.4 86.4945 23.4 87.4945C25.8 89.7945 28.1 92.0945 30.5 94.4945C44.1 107.794 57.7 121.094 71.3 134.395C69 147.794 66.6 161.195 64.3 174.594C63.2 180.895 62.1 187.294 61 193.594L59.7 201.094L58.9 205.195C59.9 204.695 61 204.195 62 203.594L63.6 202.794L66.9 201.094C75.9 196.494 84.9 191.795 93.9 187.195C103.4 182.295 112.9 177.294 122.4 172.395C134.2 178.695 146.1 184.995 158 191.195C167.6 196.195 177.2 201.294 186.8 206.395C184 190.195 181.1 173.895 178.3 157.594C177.7 154.094 176.7 148.994 176.8 147.594C177.6 151.195 178.5 156.195 179.4 161.094C182.1 176.494 184.7 191.795 187.4 207.195C177.5 201.995 167.7 196.895 157.9 191.695C146.1 185.495 134.3 179.395 122.5 173.195C100.7 184.695 79 196.195 57.2 207.695C60.3 189.295 63.5 170.895 66.6 152.495L69.6 134.995C60.1 125.695 50.5 116.394 41 107.094C32.9 99.1945 24.9 91.2945 16.9 83.4945C28.2 81.8945 39.4 80.3945 50.6 78.7945C63.9 76.9945 77.1 75.1945 90.3 73.3945C92 70.0945 93.7 66.7945 95.3 63.4945C96.7 60.6945 98.2 57.8945 99.6 55.0945C102.3 49.8945 104.8 44.7945 107.4 39.4945C111.5 31.0945 113 27.4945 109.6 33.5945C105.2 41.3945 105.7 39.8945 109.7 30.9945C113.3 22.8945 110.3 26.0945 105 36.1945C99 47.4945 93.3 58.2945 87.4 69.4945C84.4 69.8945 81.3 70.1945 78.3 70.5945C75 70.9945 71.7 71.3945 68.3 71.7945C61.5 72.5945 54.6 73.4945 47.3 74.4945C33.2 76.5945 19.3 78.3945 6 80.1945C9.2 83.3945 12.3 86.5945 15.4 89.5945C23.5 97.7945 31.7 105.994 40 114.394C47.6 121.894 55.2 129.494 63 137.294C62 143.294 60.9 149.294 59.8 155.395C57.3 169.594 54.8 183.294 52.3 196.794C51.1 204.294 49.8 211.895 48.5 219.594C57.1 215.094 65.8 210.495 74.4 205.995ZM65.7 144.395C66 142.195 66.5 139.794 66.9 137.395C67 136.794 67.1 136.294 67.2 135.895C66.5 135.195 66.3 134.895 67 135.495C67.1 135.595 67.3 135.695 67.4 135.895C67.2 137.094 67 138.594 66.8 140.094C66.6 141.494 66.3 142.995 66 144.395C65.6 145.895 65.4 146.094 65.7 144.395Z" fill="white"/>
</svg>
