<svg width="232" height="237" viewBox="0 0 232 237" fill="none" xmlns="http://www.w3.org/2000/svg">
<path d="M59.7 4.70445C60 3.90445 60.7 3.60445 61.4 3.70445C61.4 3.50445 61.3 3.40445 61.2 3.20445C61.2 3.10445 61.2 3.10446 61.2 3.00446C59.3 2.40446 57.6 1.30446 56.2 0.004456C49.6 -0.095544 42.7 1.50445 36.5 3.10445C29.4 5.00445 22.4 7.80446 16.7 12.4045C6.4 20.6045 0.399999 33.2045 -7.62939e-07 46.2045C9.9 48.3045 18.2 54.6045 28.3 56.1045C34.3 57.0045 40.4 56.8045 46.3 55.5045C51.4 54.4045 56.1 52.3045 61 50.7045C61.2 50.6045 61.4 50.6045 61.6 50.7045C61.1 47.2045 60.5 43.7045 60 40.2045C59 34.2045 58.2 28.1045 59.1 22.0045C59.7 17.5045 61 13.4045 61.5 9.10445C58.9 15.3045 52.8 20.6045 48.3 24.9044C43 30.0044 36.4 35.1045 28.8 35.8045C28.5 35.8045 28.3 35.3045 28.6 35.1045C41.6 29.7045 54.3 17.9045 59.7 4.70445ZM21.8 38.8045C20.5 38.9045 19.2 38.8045 17.9 39.1045C17.4 39.2045 17.2 38.5045 17.7 38.3045C19.1 37.9045 20.5 37.7045 21.9 38.2045C22.2 38.3045 22.1 38.8045 21.8 38.8045Z" transform="translate(40.3 113.06)" fill="#FF6E98"/>
<path d="M15.4 30.4647C18.8 37.7647 21.8 44.4647 26.8 50.8647C30.8 56.0647 38 67.9647 45.9 65.1647C52.4 54.7647 58.7 44.2647 67.2 35.3647C69.4 33.0647 71.8 30.7647 74.4 28.7647C68.7 24.6647 65.6 18.1647 57.3 19.5647C57 19.6647 56.8 19.1647 57.2 19.0647C60.9 18.3647 64.8 19.1647 68.1 20.9647C70.9 22.3647 75.7 24.1647 76.1 27.5647C76.6 27.1647 77 26.8647 77.5 26.5647C77.4 26.4647 77.2 26.3647 77.1 26.1647C74.1 21.6647 69.9 18.1647 64.5 16.9647C60 15.9647 55.3 16.6647 50.8 15.1647C44.3 13.0647 31.1 1.76473 24.9 6.96473C24.7 7.16473 24.3 6.86473 24.5 6.56473C31.3 0.164732 44 10.7647 50.7 12.7647C56.7 14.5647 63 13.1647 68.8 15.7647C73.2 17.6647 76.7 20.8647 79.1 24.8647C79.2 24.9647 79.2 25.0647 79.2 25.1647C79.7 24.7647 80.3 24.4647 80.9 24.1647C76.7 13.6647 67.3 11.2647 57 10.0647C53.3 9.66473 49.8 8.76473 46.4 7.06473C42.1 4.86473 38.5 1.76473 33.7 0.564732C22.5 -2.13527 15.9 5.36473 8.3 12.0647C6.1 14.0647 3.1 16.0647 0 17.1647C6.6 19.5647 12.3 23.9647 15.4 30.4647Z" transform="translate(98)" fill="#FF6E98"/>
<path d="M35.2169 34C33.5169 34.4 32.2169 32.7 33.0169 31.1C36.4169 24.1 38.5169 16.6 38.9169 8.90001C39.0169 5.90001 38.9169 3 38.5169 -3.05176e-06C30.1169 6.3 17.2169 7.4 7.11694 6.3C5.81694 6.2 4.61693 5.89999 3.31693 5.69999C1.41693 11.1 -0.183066 15.8 0.016934 21.8C0.216934 27.5 1.61693 33.2 3.51693 38.6C7.31693 49.4 12.9169 59.4 15.5169 70.6C25.3169 66 36.8169 69.5 46.4169 64.5C59.1169 57.9 60.7169 38.9 57.2169 26.4C50.5169 30.3 42.7169 32.2 35.2169 34Z" transform="translate(63.6831 165.765)" fill="#FF6E98"/>
<path d="M47.4 15.4971C50.7 1.99706 32.2 1.19705 23.6 0.197053C20.8 -0.102947 18.2 -0.102944 15.7 0.497056C14.2 1.39706 12.7 2.19705 11.2 2.59705C11 2.69705 10.8 2.59705 10.6 2.59705C10 2.99705 9.4 3.39706 8.7 3.89706C8.3 4.19706 8 4.49706 7.6 4.89706C7.1 5.49706 5.9 6.79706 4.6 8.39706C12.1 4.39706 20.1 1.29706 28.9 2.39706C35 3.19706 44.2 5.89705 45.1 13.1971C46.1 21.6971 36.6 25.4971 29.6 24.4971C24.8 23.7971 20.6 21.2971 16.2 19.1971C11.2 16.7971 6 14.9971 0.499998 14.3971C0.599998 14.6971 0.5 14.9971 0.4 15.1971C0.3 15.3971 0.199998 15.5971 -1.52588e-06 15.6971C3.5 22.4971 10.2 25.7971 17.6 26.9971C17.9 26.9971 18.2 26.9971 18.5 27.0971C20 27.2971 21.5 27.3971 23 27.4971C32.3 27.8971 44.7 26.1971 47.4 15.4971Z" transform="translate(105.6 103.068)" fill="#FF6E98"/>
<path d="M19.1 2.54614C12.9 3.94614 6.8 4.84615 0.599998 6.24615C0.399998 6.34615 0.2 6.44614 0 6.54614C4 6.64614 7.9 7.84615 11.7 9.14615C14.9 10.2461 18 11.4461 21.4 11.8461C23.1 12.0461 25 12.3461 26.7 11.8461C29.7 11.8461 30.2 9.64615 28.4 5.14615C27 3.74615 25.4 3.04614 23.5 2.84614C23.3 2.84614 23.4 2.54614 23.5 2.54614C29.3 3.24614 36.1 11.1461 27.7 13.7461C20.6 15.9461 13.9 12.3461 7 10.4461C8.3 10.9461 9.6 11.4461 10.9 12.0461C18 15.4461 31 23.4461 36.9 13.6461C43.3 3.04615 24.9 -0.453859 18.4 0.0461413C14.4 0.346141 10.6 1.44614 7 3.04614C11 2.14614 15.1 1.54615 19 1.74615C19.4 1.74615 19.5 2.44614 19.1 2.54614Z" transform="translate(110.5 107.219)" fill="#FF6E98"/>
<path d="M30.9 47.9C37.9 32.8 34.7 18 21.9 7.8C17.9 7.2 14 6.20001 10.7 4.40001C10.8 4.50001 10.9 4.7 11 4.8C13.9 8.6 17 12.3 19.2 16.6C24 25.7 22.7 36.5 20.1 46.1C20 46.5 19.4 46.4 19.4 46C20.1 34.5 21 24.5 13.9 14.6C10.8 10.3 5.3 5.4 2.4 -3.05176e-06C2.1 1.8 1.7 3.49999 1.4 5.19999C-0.399997 14.2 1.2 22.4 2.9 31.2C5.4 44.4 5 57 1.52588e-06 69.3C12.9 65.9 24.9 61.1 30.9 47.9ZM14.7 53.6C14.9 53 15.2 52.6 15.7 52.2C15.9 52 16.4 52.3 16.2 52.6C15.9 53 15.6 53.4 15.3 53.8C14.9 54.3 14.6 54.9 14.4 55.5C14.4 55.6 14.2 55.6 14.2 55.4C14.2 54.7 14.4 54.2 14.7 53.6Z" transform="translate(101.9 125.765)" fill="#FF6E98"/>
<path d="M1.2 3.3C1.3 3.2 1.3 3.2 1.4 3.1C0.899997 2.1 0.400003 0.999998 3.05176e-06 -1.52588e-06C0.400003 1.1 0.7 2.1 1.2 3.2C1.1 3.2 1.1 3.3 1.2 3.3Z" transform="translate(102.8 109.665)" fill="#FF6E98"/>
<path d="M27.7665 56.2C27.1665 56.1 26.6665 55.4 26.6665 54.8C26.6665 43 31.0665 31.5 38.9665 22.7C29.7665 21.1 21.1665 13.7 15.2665 7.2C13.2665 5.1 11.3665 2.6 9.46648 -3.05176e-06C8.86648 7.5 4.56648 14.9 2.16648 21.8C-1.23352 31.8 -1.23352 41.6 6.56648 49.6C9.66648 52.8 13.4665 55 16.8665 57.8C19.2665 59.8 20.3665 61.8 21.9665 64.4C25.1665 69.5 29.7665 70.1 35.2665 71.4C40.1665 72.5 45.0665 73.7 50.0665 74.8C50.6665 71.3 51.7665 68 53.8665 65.3C44.8665 62.7 36.9665 57.8 27.7665 56.2Z" transform="translate(10.7334 105.765)" fill="#FF6E98"/>
<path d="M34.9 54.6984C40.2 58.9984 45.7 61.0984 51.8 63.5984C53 62.4984 54.2 61.3984 55.5 60.3984C61.5 55.6984 68.7 52.6984 76.1 50.8984C81.7 49.5984 88.5 47.8984 94.7 48.3984C94.5 48.0984 94.3 47.7984 94.1 47.5984C91 45.4984 88.5 42.3984 85.7 39.8984C82.1 36.6984 78.5 33.5984 74.4 31.2984C65.9 26.3984 55.8 24.5984 46.3 22.4984C46.1 22.4984 46.1 22.0984 46.3 22.0984C56.2 22.7984 65.9 24.1984 74.7 28.7984C79 30.8984 83 33.4984 86.6 36.4984C88 37.6984 89.6 38.8984 91.1 40.0984C89.8 35.4984 89 30.6984 88.1 25.9984C86.4 24.0984 85.5 21.3984 83.7 19.5984C80.9 16.6984 77.2 14.6984 73.7 12.7984C65.6 8.69842 56.9 3.49842 48.1 0.898417C37.7 -2.20158 27.7 3.29841 19.1 8.59841C12.4 12.7984 6 17.5984 0 22.7984C9.7 24.4984 16 32.7984 21.8 40.4984C25.7 45.6984 29.9 50.5984 34.9 54.6984ZM25.4 20.0984C28.4 19.1984 31.8 18.9984 34.9 19.6984C35.4 19.7984 35.3 20.5984 34.8 20.5984C31.7 20.3984 28.6 20.2984 25.5 20.1984C25.3 20.2984 25.3 20.1984 25.4 20.0984Z" transform="translate(0 62.5663)" fill="#FF6E98"/>
<path d="M21.0485 33.2029C26.0485 34.1029 30.6485 36.5029 35.1485 38.8029C40.0485 41.2029 44.9485 43.6029 49.7485 46.2029C53.2485 48.1029 56.7485 50.2029 59.6485 53.0029C60.5485 53.8029 61.3485 54.8029 62.0485 55.7029C61.8485 54.8029 61.6485 54.0029 61.3485 53.1029C58.9485 45.0029 55.8485 37.1029 52.0485 29.5029C50.1485 25.7029 47.7485 22.0029 45.8485 18.2029C45.7485 18.2029 45.7485 18.3029 45.6485 18.3029C44.7485 18.5029 43.8485 18.5029 42.9485 18.3029C42.1485 18.1029 41.3485 17.6029 40.6485 17.2029C40.5485 17.1029 40.5485 16.9029 40.7485 16.9029C41.5485 16.9029 42.2485 16.6029 43.0485 16.5029C43.6485 16.4029 44.2485 16.4029 44.8485 16.4029C44.5485 15.7029 44.2485 15.0029 43.9485 14.3029C43.9485 14.4029 43.7485 14.6029 43.4485 14.6029C40.5485 15.2029 38.1485 14.1029 35.5485 12.9029C30.7485 10.7029 26.5485 9.80292 21.2485 9.90292C20.9485 9.90292 20.9485 9.50292 21.2485 9.50292C29.0485 9.00292 35.6485 11.8029 43.2485 12.5029C43.3485 12.5029 43.4485 12.5029 43.5485 12.6029C43.2485 11.7029 42.9485 10.7029 42.7485 9.80292V9.70292C39.8485 12.8029 30.4485 7.00292 27.6485 6.00292C21.9485 4.00292 15.8485 3.30292 11.0485 7.80292C7.44849 11.2029 6.24849 16.0029 4.34849 20.3029C4.24849 20.6029 3.74849 20.4029 3.84849 20.1029C5.24849 13.3029 8.74849 5.30292 15.8485 3.00292C19.6485 1.80292 23.7485 2.50292 27.4485 3.70292C30.8485 4.80292 38.5485 9.80292 42.0485 8.00292C42.1485 7.90292 42.3485 7.90292 42.4485 7.90292C42.2485 6.50292 42.2485 5.20292 42.3485 4.00292C41.4485 4.50292 40.3485 4.90292 39.2485 5.00292C32.9485 5.70292 27.6485 0.00291784 21.2485 0.00291784C3.34849 -0.297082 -4.55151 22.6029 2.64849 36.6029C8.44849 33.8029 14.6485 32.1029 21.0485 33.2029Z" transform="translate(24.5515 26.4618)" fill="#FF6E98"/>
<path d="M14.5153 47.436C17.9153 55.636 20.5153 64.136 22.3153 72.836C24.0153 80.836 24.6153 90.736 32.3153 94.436C26.6153 84.836 29.2153 71.736 30.9153 61.436C33.5153 45.936 32.8153 31.536 23.6153 18.136C23.4153 17.836 23.8153 17.536 24.0153 17.836C32.5153 27.836 35.5153 39.636 34.1153 52.636C33.3153 60.036 31.5153 67.336 31.0153 74.736C30.7153 79.636 31.2153 84.036 32.4153 88.436C31.0153 82.736 31.4153 76.736 32.4153 70.736C33.2153 65.436 34.6153 60.136 35.6153 54.836C36.8153 48.236 36.8153 42.436 35.6153 35.736C35.6153 35.536 35.8153 35.436 35.9153 35.636C42.7153 54.436 27.6153 74.236 36.3153 93.036C36.6153 92.736 37.0153 92.336 37.3153 92.036C36.9153 91.936 36.5153 91.636 36.4153 91.036C35.4153 83.236 35.9153 76.236 37.8153 68.636C37.8153 68.536 37.9153 68.636 37.9153 68.636C36.7153 75.836 36.9153 83.536 38.4153 90.736C39.3153 89.836 40.2153 88.936 41.1153 88.136C40.1153 85.236 39.5153 82.336 39.3153 79.236C39.3153 79.036 39.5153 79.036 39.6153 79.236C40.4153 81.836 41.4153 84.436 42.2153 87.136C42.5153 86.836 42.8153 86.536 43.1153 86.236C42.6153 85.236 42.3153 84.236 42.4153 83.036C42.4153 82.836 42.7153 82.736 42.8153 83.036C43.0153 83.936 43.4153 84.736 43.9153 85.536C44.0153 85.436 44.1153 85.336 44.2153 85.236C43.9153 84.836 43.8153 84.436 43.6153 83.936C43.3153 83.236 44.4153 82.836 44.8153 83.436C45.0153 83.636 45.1153 83.936 45.3153 84.136C47.9153 81.636 50.4153 79.036 52.8153 76.336C58.8153 69.536 64.3153 62.336 69.4153 54.836C70.4153 53.336 71.4153 51.736 72.4153 50.236C68.9153 50.636 65.3153 48.736 62.5153 46.136C57.0153 40.836 52.0153 34.136 47.9153 27.736C43.2153 20.236 41.7153 10.136 33.9153 5.03604C27.4153 0.736042 17.6153 -1.16396 10.0153 0.736041C-2.18472 3.83604 -1.58472 15.836 3.11528 25.136C7.11528 32.536 11.3153 39.636 14.5153 47.436ZM43.8153 45.936C44.0153 45.936 44.0153 46.136 43.8153 46.136C43.6153 46.136 43.6153 45.936 43.8153 45.936Z" transform="translate(69.2847 18.1287)" fill="#FF6E98"/>
<path d="M37.8 0.186816C27.5 0.886816 21 5.98681 13.1 12.0868C9.20001 15.0868 4.8 17.8868 0 18.5868C5.8 20.4868 10.4 23.7868 11.1 30.1868C14.9 28.7868 18.4 26.7868 22.2 25.7868C26.1 24.7868 30.1 24.9868 34.1 25.2868C43.4 26.1868 52.5 28.1868 61.7 29.7868C62.2 29.8868 62 30.5868 61.5 30.4868C52.5 28.5868 43.3 27.5868 34.1 26.7868C29.6 26.3868 25.3 26.3868 21 27.8868C17.6 29.0868 14.6 30.8868 11.1 31.8868C11.1 31.9868 11.1 32.0868 11.1 32.1868C10.9 38.6868 7.40001 43.0868 2.60001 45.8868C12.4 46.7868 21.4 51.0868 30.6 54.6868C30.9 54.5868 31.3 54.5868 31.7 54.8868C31.8 54.9868 32 55.0868 32.1 55.2868C36.6 57.0868 41.2 58.5868 46 59.4868C54.4 61.0868 64.2 60.0868 70.6 53.8868C74.3 50.3868 75.5 45.7868 76.4 40.8868C77.3 36.0868 78.5 31.4868 79.7 26.7868C81.1 21.3868 82 15.4868 79.2 10.2868C76.4 5.08681 71.5 2.88682 65.9 2.18682C56.9 0.886817 47.1 -0.513184 37.8 0.186816Z" transform="translate(145.5 84.1779)" fill="#FF6E98"/>
<path d="M44.4 17.3832C32.6 30.2832 25.1 46.2832 14.7 60.2832C10.2 66.2832 5.4 72.4832 3.05176e-06 78.1832C0.700003 77.7832 1.4 77.2832 2 76.7832C5.4 74.2832 8.3 71.1832 11 67.9832C16.1 61.8832 20.4 55.1832 24.6 48.4832C32.7 35.4832 41.2 24.6832 53.6 15.4832C53.8 15.2832 54.1 15.6832 53.9 15.8832C47.5 21.7832 41.2 27.5832 36 34.5832C31.3 40.8832 27.3 47.7832 23 54.4832C19.2 60.5832 15.2 66.5832 10.4 71.9832C8.5 74.0832 6.4 76.4832 4 78.5832C4.8 78.5832 5.69999 78.5832 6.59999 78.6832C9.69999 78.9832 13.6 79.2832 17.5 79.9832C28.6 80.6832 34.7 72.1832 42.8 66.1832C49.3 61.2832 56.8 59.4832 64.8 59.2832C70.8 59.1832 76.9 59.4832 83 60.0832C83.2 59.6832 83.5 59.3832 83.9 59.2832C84 59.2832 84.2 59.1832 84.3 59.1832C84.4 59.0832 84.5 59.0832 84.6 58.9832C84.9 58.6832 85 58.4832 85.2 58.1832C85.3 58.0832 85.4 57.9832 85.5 57.8832C89.4 53.1832 85.1 48.2832 82.2 44.3832C80.3 41.7832 78.8 39.0832 77.9 35.8832C76 29.0832 76.8 21.7832 77.5 14.8832C77.8 11.2832 78.8 6.98322 77.6 3.48322C75.4 -3.01678 66.8 1.18322 62.6 3.28322C55.6 6.58322 49.6 11.5832 44.4 17.3832Z" transform="translate(121.8 21.3815)" fill="#FF6E98"/>
<path d="M65.3 39.204C65.1 28.404 61.2 19.104 54.9 10.804C42 5.80397 29.6 -1.29604 15.3 0.203961C15.1 0.203961 14.9 0.203961 14.8 0.203961C12.6 0.603961 10.4 0.803967 8.3 0.803967C12.8 3.40397 17 7.00397 21 9.90397C25.5 13.304 29.6 17.204 32 22.404C37.2 33.804 33.5 47.204 37 59.104C37.1 59.304 36.7 59.504 36.6 59.304C31.4 49.204 34.1 37.704 30.9 27.104C28.8 20.204 23.9 15.504 18.2 11.404C16.4 10.104 14.5 9.00397 12.6 7.80397C17.8 16.904 17.9 28.904 14 38.904C11.1 46.404 6.7 52.804 -3.05176e-06 57.304C0.0999969 57.704 0.299998 58.104 0.399998 58.504C0.799999 58.504 1.3 58.804 1.3 59.304C1.2 60.004 1.2 60.704 1.2 61.304C1.6 63.004 1.9 64.804 2.2 66.504C6.3 77.304 22.6 79.304 32.9 81.804C35.7 82.504 38.5 83.304 41.1 84.504C42.6 85.204 44 86.004 45.4 86.904C47.6 88.404 49 91.004 50.6 85.104C51.2 82.804 50 79.804 50.7 77.304C51.2 75.004 52.3 72.904 53.5 71.004C56.6 65.804 60.4 61.404 62.6 55.704C64.4 50.604 65.4 44.904 65.3 39.204Z" transform="translate(123.7 133.261)" fill="#FF6E98"/>
<path d="M42.5 -3.05176e-06C36 10.1 22.1 12.4 11 10.3C8.60001 9.8 6.2 9.20001 3.9 8.40001C9.6 16.5 12.3 26.9 12.2 36.5C12.1 42.8 10.8 49.1 8.29999 54.8C6.29999 59.3 2.60001 63.4 6.10352e-06 67.8C0.900006 66.8 2.00001 65.8 3.00001 64.8C7.20001 60.8 11.7 56.8 17.2 54.5C22.9 52.1 29.3 52.4 35.1 50.3C41 48.2 46.4 45.1 52.4 43.3C50.3 35.6 48.3 27.9 46.5 20.1C45 13.7 43 6.8 42.5 -3.05176e-06Z" transform="translate(179.6 137.265)" fill="#FF6E98"/>
</svg>
