<svg width="280" height="280" viewBox="0 0 280 280" fill="none" xmlns="http://www.w3.org/2000/svg">
<path d="M125.153 101.21L131.061 95.6135L166.818 60.633L117.379 53.3259L109.295 52.2376L105.564 44.9306L83.4869 1.18614e-06L61.2549 44.9306L57.6791 52.2376L49.5947 53.3259L2.37227e-06 60.633L35.9134 95.6135L41.6657 101.21L40.2665 109.295L31.8712 158.734L76.1799 135.414L83.4869 131.527L90.6385 135.414L134.947 158.734L126.552 109.295L125.153 101.21Z" transform="translate(56.5906 64.0533)" fill="#D24858"/>
<g opacity="0.25">
<path opacity="0.25" d="M140.078 0V140.078L161.999 1.71016L140.078 140.078L183.298 6.84064L140.078 140.078L203.665 15.236L140.078 140.078L222.321 26.7407L140.078 140.078L239.112 41.0439L140.078 140.078L253.259 57.6791L140.078 140.078L264.764 76.4908L140.078 140.078L273.159 96.7018L140.078 140.078L278.29 118.157L140.078 140.078H280H140.078L278.29 161.999L140.078 140.078L273.159 183.298L140.078 140.078L264.764 203.665L140.078 140.078L253.259 222.321L140.078 140.078L239.112 239.112L140.078 140.078L222.321 253.259L140.078 140.078L203.665 264.764L140.078 140.078L183.298 273.159L140.078 140.078L161.999 278.29L140.078 140.078V280V140.078L118.157 278.29L140.078 140.078L96.7018 273.159L140.078 140.078L76.4908 264.764L140.078 140.078L57.6791 253.259L140.078 140.078L41.0439 239.112L140.078 140.078L26.7407 222.321L140.078 140.078L15.236 203.665L140.078 140.078L6.84064 183.298L140.078 140.078L1.71016 161.999L140.078 140.078H0H140.078L1.71016 118.157L140.078 140.078L6.84064 96.7018L140.078 140.078L15.236 76.4908L140.078 140.078L26.7407 57.6791L140.078 140.078L41.0439 41.0439L140.078 140.078L57.6791 26.7407L140.078 140.078L76.4908 15.236L140.078 140.078L96.7018 6.84064L140.078 140.078L118.157 1.71016L140.078 140.078V0Z" stroke="#EA8676" stroke-width="2" stroke-miterlimit="10"/>
</g>
<path d="M233.67 84.8862L152.982 73.226L116.913 5.93068e-07L80.6885 73.0705L-5.93068e-07 84.7307L58.4564 141.632L44.6197 222.01L116.913 184.076L189.206 222.01L175.369 141.632L233.67 84.8862ZM124.064 170.55L116.757 166.818L109.45 170.55L65.1416 193.87L73.5369 144.431L74.9361 136.346L69.0283 130.594L33.4259 95.769L83.0205 88.6174L91.1049 87.3737L94.6807 80.0666L116.913 35.136L139.145 80.0666L142.721 87.3737L150.805 88.6174L200.4 95.769L164.486 130.75L158.579 136.502L159.978 144.586L168.373 194.026L124.064 170.55Z" transform="translate(23.1648 28.9172)" fill="#EAB05E"/>
<path d="M62.5812 67.7846C61.3375 66.3853 60.0937 64.9861 58.85 63.5869C57.2953 64.5197 55.896 65.608 54.3414 66.3853C44.8577 71.2049 35.5296 70.7385 26.6678 64.8306C24.0249 63.1205 21.6928 60.633 19.3608 58.4564C18.117 57.3681 16.0959 57.0572 15.0077 58.4564C13.6084 60.1666 12.2092 61.8767 11.1209 63.7424C9.56624 66.2299 7.38967 67.6291 4.7467 68.7174C3.192 69.3392 1.48184 68.8728 0.549021 67.6291C-0.228325 66.5408 -0.228318 64.9861 0.859966 63.5869C2.41466 61.4103 4.43575 59.7002 6.92325 58.7674C8.94435 57.99 10.81 56.7463 12.3647 55.1916C12.9866 54.5697 13.453 53.9478 13.453 53.015C13.2975 52.0822 13.7639 51.4603 14.8522 51.6158C16.0959 51.7712 17.1842 51.4603 18.117 50.8384C20.6045 49.5947 19.8272 49.4392 21.6928 51.3048C23.7139 53.1705 25.5796 55.1916 27.6007 56.9017C30.8655 59.7002 34.9077 60.633 39.1054 60.4775C43.3031 60.322 47.0343 58.9228 50.4546 56.5908C50.921 56.2798 51.232 55.9689 51.8539 55.5025C50.7656 54.1033 49.6773 52.8595 48.4335 51.6158C42.2148 44.4642 35.996 37.4681 29.7772 30.3165C29.1554 29.5391 28.6889 29.5391 28.0671 30.3165C26.046 32.3376 24.0249 34.3587 22.0038 36.3798C21.6928 36.6907 21.3819 37.0017 21.071 37.3126C18.5835 34.8251 16.2514 32.3376 13.7639 29.8501C15.6295 28.1399 17.6506 26.2743 19.6717 24.4087C22.6257 21.7657 25.5796 19.1227 28.5335 16.4797C28.8444 16.1688 29.3108 15.8579 29.6218 15.8579C33.8194 15.8579 38.0171 15.8579 42.2148 15.8579C39.2609 18.8118 36.4624 21.6102 33.353 24.7196C41.4374 33.1149 49.3663 41.3548 57.2953 49.5947C59.0054 46.9517 60.0937 44.1532 60.7156 41.1993C61.8039 35.2915 61.0265 29.6946 58.85 24.2532C56.207 17.1016 51.6984 11.1938 46.7234 5.59689C45.0132 3.73126 43.1476 1.86563 41.4374 0C42.8366 0.777346 44.2359 1.55469 45.6351 2.4875C53.0976 7.46252 59.6273 13.0594 64.4469 20.6774C68.9555 27.829 71.132 35.6024 69.8883 43.9978C69.2664 48.5064 67.5562 52.5486 65.2242 56.2798C64.7578 56.9017 64.9133 57.2127 65.3797 57.6791C66.6234 58.9228 67.8672 60.322 69.1109 61.7213C66.9344 63.7424 64.7578 65.7635 62.5812 67.7846Z" transform="translate(102.216 111.938)" fill="#EAB05E"/>
</svg>
