<svg id="22bf58d1-c6f1-4150-a722-549e713672fa" data-name="3b4ae5f3-d1fe-4011-b14c-313171b11fad" xmlns="http://www.w3.org/2000/svg" width="31.18" height="53.53" viewBox="0 0 31.18 53.53">
  <defs>
    <style>
      .\33 d72d461-843f-4a6d-8257-9d09529b1683 {
        fill: #ea5e2b;
      }
    </style>
  </defs>
  <title>arrow-orange</title>
  <path class="3d72d461-843f-4a6d-8257-9d09529b1683" d="M30.64,25.5a1.69,1.69,0,0,1,.54,1.23A1.65,1.65,0,0,1,30.64,28l-25,25a1.7,1.7,0,0,1-2.4.07L3.17,53,.54,50.25A1.69,1.69,0,0,1,0,49a1.65,1.65,0,0,1,.54-1.23l21.05-21-21-21a1.68,1.68,0,0,1-.1-2.37l.1-.1L3.21.54A1.68,1.68,0,0,1,5.58.44a.94.94,0,0,1,.1.1Z" transform="translate(0 0)"/>
</svg>
