<svg id="622cd618-5d7b-4632-a543-3f0e9d93357a" data-name="3b4ae5f3-d1fe-4011-b14c-313171b11fad" xmlns="http://www.w3.org/2000/svg" width="31.18" height="53.53" viewBox="0 0 31.18 53.53">
  <defs>
    <style>
      .\39 8f25244-cb04-400a-a8b4-740f6097b7d2 {
        fill: #c4c4c4;
      }
    </style>
  </defs>
  <title>arrow-gray</title>
  <path class="98f25244-cb04-400a-a8b4-740f6097b7d2" d="M30.64,25.5a1.69,1.69,0,0,1,.54,1.23A1.65,1.65,0,0,1,30.64,28l-25,25a1.7,1.7,0,0,1-2.4.07L3.17,53,.54,50.25A1.69,1.69,0,0,1,0,49a1.65,1.65,0,0,1,.54-1.23l21.05-21-21-21a1.68,1.68,0,0,1-.1-2.37l.1-.1L3.21.54A1.68,1.68,0,0,1,5.58.44a.94.94,0,0,1,.1.1Z" transform="translate(0 0)"/>
</svg>
