<svg id="3b4ae5f3-d1fe-4011-b14c-313171b11fad" data-name="Слой 1" xmlns="http://www.w3.org/2000/svg" width="31.18" height="53.46" viewBox="0 0 31.18 53.46">
  <defs>
    <style>
      .b1832268-e769-43ac-ab5e-5108f24f1ad9 {
        fill: #fff;
      }
    </style>
  </defs>
  <title>arrow-white</title>
  <path class="b1832268-e769-43ac-ab5e-5108f24f1ad9" d="M30.64,25.5a1.69,1.69,0,0,1,.54,1.23A1.66,1.66,0,0,1,30.64,28l-25,25a1.7,1.7,0,0,1-2.47,0L.54,50.25A1.69,1.69,0,0,1,0,49a1.66,1.66,0,0,1,.54-1.23L21.59,26.73l-21-21a1.68,1.68,0,0,1,0-2.47L3.21.54a1.68,1.68,0,0,1,2.47,0Z"/>
</svg>
