<svg id="4c8ab1f0-3ab7-4f3e-a607-d7b3f5743df9" data-name="Слой 1" xmlns="http://www.w3.org/2000/svg" width="320" height="120" viewBox="0 0 320 120">
  <defs>
    <style>
      .\33 fa0e60a-c7d8-40f6-adb4-c28921b34711 {
        fill: #5ff8ff;
      }

      .\38 5ad8e6f-75bc-4083-90c2-6635e1394e29 {
        fill: #fff;
      }

      .\32 dabd2af-9a78-4930-8780-cb47c0ccf827 {
        fill: none;
      }

      .e6ab42b1-0876-4c06-ac93-7833aa581f06 {
        fill: #2b6999;
      }
    </style>
  </defs>
  <title>icons</title>
  <!--<rect class="3fa0e60a-c7d8-40f6-adb4-c28921b34711" width="320" height="120"/>-->
  <path class="85ad8e6f-75bc-4083-90c2-6635e1394e29" d="M300,38.49A18.5,18.5,0,1,1,318.49,20,18.52,18.52,0,0,1,300,38.49Zm0-36A17.5,17.5,0,1,0,317.49,20,17.53,17.53,0,0,0,300,2.49Z"/>
  <path class="85ad8e6f-75bc-4083-90c2-6635e1394e29" d="M311,26.35a1,1,0,0,1-.33.93l-3.1,3.07a1.66,1.66,0,0,1-.55.4,2.11,2.11,0,0,1-.66.21h-.44a10.84,10.84,0,0,1-1.44-.15,10.57,10.57,0,0,1-2.42-.75,19.79,19.79,0,0,1-3.26-1.78,24.33,24.33,0,0,1-3.87-3.25,25.39,25.39,0,0,1-2.7-3.08,20.32,20.32,0,0,1-1.73-2.71,14.19,14.19,0,0,1-1-2.26,10.54,10.54,0,0,1-.44-1.74,6.11,6.11,0,0,1-.1-1.15c0-.28,0-.44,0-.47a2.11,2.11,0,0,1,.21-.66,1.8,1.8,0,0,1,.39-.55l3.1-3.09a1,1,0,0,1,.75-.33.94.94,0,0,1,.54.17,1.6,1.6,0,0,1,.39.43l2.5,4.73a1.14,1.14,0,0,1,.12.81,1.52,1.52,0,0,1-.4.75L295.47,17a.35.35,0,0,0-.08.15.45.45,0,0,0,0,.17,4,4,0,0,0,.42,1.12,10.22,10.22,0,0,0,.86,1.36,14,14,0,0,0,1.66,1.85,15.74,15.74,0,0,0,1.86,1.67,12,12,0,0,0,1.37.87,3.38,3.38,0,0,0,.84.34l.29.06.15,0a.35.35,0,0,0,.15-.08l1.33-1.35a1.43,1.43,0,0,1,1-.37,1.13,1.13,0,0,1,.63.14h0l4.5,2.65a1.18,1.18,0,0,1,.58.77Zm0,0"/>
  <rect class="2dabd2af-9a78-4930-8780-cb47c0ccf827" x="284.99" y="4.99" width="30" height="30"/>
  <path class="85ad8e6f-75bc-4083-90c2-6635e1394e29" d="M220,38.5A18.5,18.5,0,1,1,238.5,20,18.52,18.52,0,0,1,220,38.5Zm0-36A17.5,17.5,0,1,0,237.5,20,17.52,17.52,0,0,0,220,2.5Z"/>
  <path class="85ad8e6f-75bc-4083-90c2-6635e1394e29" d="M227.62,14.17a7.5,7.5,0,0,0-.37-.93A8,8,0,0,0,212,15.59v1s0,.42,0,.6c.29,2.31,2.12,4.77,3.48,7.08,1.47,2.48,3,4.92,4.49,7.35.93-1.59,1.86-3.2,2.77-4.75.25-.45.53-.9.78-1.34.17-.29.48-.58.62-.84C225.64,22,228,19.29,228,16.62V15.53a8.1,8.1,0,0,0-.38-1.36Zm-7.66,5a2.83,2.83,0,0,1-2.72-1.94,2.43,2.43,0,0,1-.08-.72v-.64a2.69,2.69,0,0,1,2.89-2.64,2.92,2.92,0,0,1,2.92,3,3,3,0,0,1-3,3Zm0,0"/>
  <path class="85ad8e6f-75bc-4083-90c2-6635e1394e29" d="M180,2h0a18,18,0,0,0-14.57,28.55l-2.25,6.69L170.1,35A18,18,0,1,0,180,2Zm10.48,25.42C190,28.64,188.32,29.66,187,30c-.94.2-2.17.36-6.31-1.36-5.29-2.19-8.7-7.56-9-7.91s-2.14-2.85-2.14-5.43a5.75,5.75,0,0,1,1.84-4.38,2.64,2.64,0,0,1,1.84-.65l.61,0c.52,0,.79.06,1.14.89.43,1,1.49,3.63,1.62,3.9a1.06,1.06,0,0,1,.07,1,3.11,3.11,0,0,1-.58.83c-.27.3-.52.54-.78.86s-.52.6-.21,1.13A15.76,15.76,0,0,0,178,22.45a13.15,13.15,0,0,0,4.22,2.61,1.14,1.14,0,0,0,1.27-.2A22.09,22.09,0,0,0,184.9,23a1,1,0,0,1,1.29-.39c.49.17,3.06,1.44,3.59,1.71s.88.39,1,.61a4.61,4.61,0,0,1-.31,2.5Zm0,0"/>
  <g>
    <path class="85ad8e6f-75bc-4083-90c2-6635e1394e29" d="M137.59,23a3.9,3.9,0,0,1-.36-.25,4.84,4.84,0,0,0-1.15-.17H136c-1.82,0-3.42,1.1-3.42,2.36s1.37,2.45,3.12,2.45c2.3,0,3.47-.8,3.47-2.37a1.94,1.94,0,0,0-.06-.46c-.15-.6-.71-1-1.55-1.56Zm0,0"/>
    <path class="85ad8e6f-75bc-4083-90c2-6635e1394e29" d="M136.29,18.21h0a1.44,1.44,0,0,0,1.09-.5,2.88,2.88,0,0,0,.52-2.23c-.2-1.59-1.34-2.91-2.52-2.94h0a1.4,1.4,0,0,0-1.07.49,2.77,2.77,0,0,0-.51,2.19c.21,1.58,1.36,3,2.52,3Zm0,0"/>
    <path class="85ad8e6f-75bc-4083-90c2-6635e1394e29" d="M140,2a18,18,0,1,0,18,18A18,18,0,0,0,140,2Zm-2.08,26.76a7.71,7.71,0,0,1-2.18.3,10.3,10.3,0,0,1-2.46-.29,4.8,4.8,0,0,1-3.11-2,2.58,2.58,0,0,1-.33-1.26,3.15,3.15,0,0,1,.32-1.37,5.84,5.84,0,0,1,5.36-2.91h.06a2.14,2.14,0,0,1-.28-1.07,2.2,2.2,0,0,1,.07-.56A4.3,4.3,0,0,1,131,15.28a4.6,4.6,0,0,1,3.31-4,5.43,5.43,0,0,1,1.76-.3h5.36a.41.41,0,0,1,.39.29.41.41,0,0,1-.15.47l-1.19.86a.39.39,0,0,1-.25.08h-.43a4.21,4.21,0,0,1,.88,2.68A4,4,0,0,1,139,18.44c-.83.65-.86.83-.86,1.2A3.56,3.56,0,0,0,139.37,21a4.15,4.15,0,0,1,2,3.82c0,1.81-1.38,3.37-3.5,4ZM150,19.58a.42.42,0,0,1-.42.43h-3v3a.42.42,0,0,1-.42.42h-.87a.42.42,0,0,1-.42-.42V20h-3a.42.42,0,0,1-.42-.43v-.86a.42.42,0,0,1,.42-.42h3v-3a.42.42,0,0,1,.42-.42h.87a.42.42,0,0,1,.42.42v3h3a.42.42,0,0,1,.42.42Zm0,0"/>
  </g>
  <path class="85ad8e6f-75bc-4083-90c2-6635e1394e29" d="M100,2a18,18,0,1,0,18,18A18,18,0,0,0,100,2Zm8,13.88c0,.18,0,.36,0,.54A11.79,11.79,0,0,1,89.9,26.34a8.22,8.22,0,0,0,1,.06A8.34,8.34,0,0,0,96,24.63a4.14,4.14,0,0,1-3.87-2.88A4.34,4.34,0,0,0,94,21.68a4.14,4.14,0,0,1-3.33-4.06.07.07,0,0,1,0-.05,4,4,0,0,0,1.87.51,4.15,4.15,0,0,1-1.28-5.53,11.74,11.74,0,0,0,8.54,4.33,3.67,3.67,0,0,1-.11-.94,4.15,4.15,0,0,1,7.16-2.84,8.25,8.25,0,0,0,2.64-1,4.16,4.16,0,0,1-1.82,2.29,8.15,8.15,0,0,0,2.37-.65A8.22,8.22,0,0,1,108,15.88Zm0,0"/>
  <g>
    <path class="85ad8e6f-75bc-4083-90c2-6635e1394e29" d="M60,23.6A3.6,3.6,0,0,0,63.6,20,3.61,3.61,0,0,0,60,16.4a3.6,3.6,0,0,0-2.92,1.5A3.6,3.6,0,0,0,60,23.6Zm0,0"/>
    <path class="85ad8e6f-75bc-4083-90c2-6635e1394e29" d="M67.87,15.59V12.12H64.39l0,3.47Zm0,0"/>
    <path class="85ad8e6f-75bc-4083-90c2-6635e1394e29" d="M60,2A18,18,0,1,0,78,20,18,18,0,0,0,60,2ZM70.24,17.9v8.38a4,4,0,0,1-4,4H53.72a4,4,0,0,1-4-4V13.72a4,4,0,0,1,4-4H66.28a4,4,0,0,1,4,4Zm0,0"/>
    <path class="85ad8e6f-75bc-4083-90c2-6635e1394e29" d="M65.6,20a5.6,5.6,0,1,1-10.79-2.1H51.76v8.38a2,2,0,0,0,2,2H66.28a2,2,0,0,0,2-2V17.9H65.18A5.47,5.47,0,0,1,65.6,20Zm0,0"/>
  </g>
  <path class="85ad8e6f-75bc-4083-90c2-6635e1394e29" d="M20,2A18,18,0,1,0,38,20,18,18,0,0,0,20,2Zm4.48,18.63H21.55V31.07H17.21V20.63H15.14V16.94h2.07V14.56a4.07,4.07,0,0,1,4.38-4.38H24.8v3.58H22.47a.89.89,0,0,0-.92,1V17h3.31Zm0,0"/>
  <path class="85ad8e6f-75bc-4083-90c2-6635e1394e29" d="M260,38.5A18.5,18.5,0,1,1,278.5,20,18.52,18.52,0,0,1,260,38.5Zm0-36A17.5,17.5,0,1,0,277.5,20,17.52,17.52,0,0,0,260,2.5Z"/>
  <g>
    <path class="85ad8e6f-75bc-4083-90c2-6635e1394e29" d="M250.74,16.55l2.62,1.82,3.35,2.33.55.39c.27.2.5.37.69.49s.4.26.66.41a3.75,3.75,0,0,0,.74.35,1.91,1.91,0,0,0,.64.11h0a1.91,1.91,0,0,0,.64-.11,3.75,3.75,0,0,0,.74-.35c.26-.15.48-.29.66-.41s.42-.29.69-.49l.55-.39,6-4.15A6.29,6.29,0,0,0,270.83,15a3.37,3.37,0,0,0,.62-1.93,2,2,0,0,0-.6-1.45,2,2,0,0,0-1.44-.6H250.59a1.81,1.81,0,0,0-1.51.66,2.57,2.57,0,0,0-.53,1.67,3,3,0,0,0,.7,1.74,6.51,6.51,0,0,0,1.49,1.48Zm0,0"/>
    <path class="85ad8e6f-75bc-4083-90c2-6635e1394e29" d="M270.18,17.92q-4.2,2.83-6.37,4.41c-.49.35-.88.63-1.18.83a7.87,7.87,0,0,1-1.21.62,3.64,3.64,0,0,1-1.41.31h0a3.64,3.64,0,0,1-1.41-.31,7.87,7.87,0,0,1-1.21-.62c-.3-.2-.69-.48-1.18-.83q-1.73-1.27-6.35-4.41a6.66,6.66,0,0,1-1.29-1.12V27a2,2,0,0,0,2,2.05h18.82a2,2,0,0,0,2-2.05V16.8a7.27,7.27,0,0,1-1.27,1.12Zm0,0"/>
  </g>
  <path class="e6ab42b1-0876-4c06-ac93-7833aa581f06" d="M300,78.5A18.5,18.5,0,1,1,318.49,60,18.52,18.52,0,0,1,300,78.5Zm0-36A17.5,17.5,0,1,0,317.49,60,17.53,17.53,0,0,0,300,42.5Z"/>
  <path class="e6ab42b1-0876-4c06-ac93-7833aa581f06" d="M311,66.35a1,1,0,0,1-.33.93l-3.1,3.07a1.66,1.66,0,0,1-.55.4,2.11,2.11,0,0,1-.66.21h-.44a10.84,10.84,0,0,1-1.44-.15,11,11,0,0,1-2.42-.74,20.57,20.57,0,0,1-3.26-1.78,24.44,24.44,0,0,1-3.87-3.26,25.36,25.36,0,0,1-2.7-3.07,21,21,0,0,1-1.73-2.72,14.52,14.52,0,0,1-1-2.25,10.87,10.87,0,0,1-.44-1.75,6.11,6.11,0,0,1-.1-1.15c0-.28,0-.44,0-.47a2.29,2.29,0,0,1,.21-.66,1.93,1.93,0,0,1,.39-.55l3.1-3.09a1,1,0,0,1,.75-.33.88.88,0,0,1,.54.18,1.47,1.47,0,0,1,.39.43l2.5,4.72a1.15,1.15,0,0,1,.12.82,1.53,1.53,0,0,1-.4.74L295.47,57a.35.35,0,0,0-.08.15.45.45,0,0,0,0,.18,4,4,0,0,0,.42,1.11,10.23,10.23,0,0,0,.86,1.37,15.45,15.45,0,0,0,1.66,1.85,16.47,16.47,0,0,0,1.86,1.66,9.7,9.7,0,0,0,1.37.87,3.38,3.38,0,0,0,.84.34l.29.06a.41.41,0,0,0,.15,0,.35.35,0,0,0,.15-.08l1.33-1.35a1.43,1.43,0,0,1,1-.37,1.23,1.23,0,0,1,.63.14h0l4.5,2.65a1.2,1.2,0,0,1,.58.77Zm0,0"/>
  <rect class="2dabd2af-9a78-4930-8780-cb47c0ccf827" x="284.99" y="45" width="30" height="30"/>
  <path class="e6ab42b1-0876-4c06-ac93-7833aa581f06" d="M220,78.5A18.5,18.5,0,1,1,238.5,60,18.52,18.52,0,0,1,220,78.5Zm0-36A17.5,17.5,0,1,0,237.5,60,17.52,17.52,0,0,0,220,42.5Z"/>
  <path class="e6ab42b1-0876-4c06-ac93-7833aa581f06" d="M227.62,54.17a7.5,7.5,0,0,0-.37-.93A8,8,0,0,0,212,55.59v1s0,.41,0,.59c.29,2.32,2.12,4.77,3.48,7.09,1.47,2.47,3,4.91,4.49,7.35.93-1.59,1.86-3.2,2.77-4.75.25-.46.53-.91.78-1.35.17-.28.48-.57.62-.84C225.64,62,228,59.29,228,56.63v-1.1a8.1,8.1,0,0,0-.38-1.36Zm-7.66,5a2.84,2.84,0,0,1-2.72-1.94,2.52,2.52,0,0,1-.08-.73v-.64a2.69,2.69,0,0,1,2.89-2.64,2.92,2.92,0,0,1,2.92,3,3,3,0,0,1-3,3Zm0,0"/>
  <path class="e6ab42b1-0876-4c06-ac93-7833aa581f06" d="M260,78.5A18.5,18.5,0,1,1,278.5,60,18.52,18.52,0,0,1,260,78.5Zm0-36A17.5,17.5,0,1,0,277.5,60,17.52,17.52,0,0,0,260,42.5Z"/>
  <g>
    <path class="e6ab42b1-0876-4c06-ac93-7833aa581f06" d="M250.74,56.55l2.62,1.82c1.46,1,2.58,1.79,3.35,2.34l.55.39q.4.3.69.48c.18.13.4.26.66.42a3.67,3.67,0,0,0,.74.34,1.94,1.94,0,0,0,.64.12h0a1.94,1.94,0,0,0,.64-.12,3.67,3.67,0,0,0,.74-.34c.26-.16.48-.29.66-.42s.42-.28.69-.48l.55-.39,6-4.16A6.13,6.13,0,0,0,270.83,55a3.37,3.37,0,0,0,.62-1.93,2,2,0,0,0-2-2H250.59a1.79,1.79,0,0,0-1.51.67,2.52,2.52,0,0,0-.53,1.66,2.94,2.94,0,0,0,.7,1.74,6.51,6.51,0,0,0,1.49,1.48Zm0,0"/>
    <path class="e6ab42b1-0876-4c06-ac93-7833aa581f06" d="M270.18,57.92q-4.2,2.84-6.37,4.41c-.49.36-.88.64-1.18.84a7.93,7.93,0,0,1-1.21.61,3.64,3.64,0,0,1-1.41.31h0a3.64,3.64,0,0,1-1.41-.31,7.93,7.93,0,0,1-1.21-.61c-.3-.2-.69-.48-1.18-.84q-1.73-1.26-6.35-4.41a6.62,6.62,0,0,1-1.29-1.11V67a2,2,0,0,0,2,2h18.82a2,2,0,0,0,2-2V56.81a6.84,6.84,0,0,1-1.27,1.11Zm0,0"/>
  </g>
  <path d="M300,118.5a18.5,18.5,0,1,1,18.5-18.5A18.52,18.52,0,0,1,300,118.5Zm0-36a17.5,17.5,0,1,0,17.5,17.5A17.53,17.53,0,0,0,300,82.5Z"/>
  <path d="M311,106.35a1,1,0,0,1-.33.93l-3.1,3.07a1.66,1.66,0,0,1-.55.4,2.11,2.11,0,0,1-.66.21h-.44a10.84,10.84,0,0,1-1.44-.15,11,11,0,0,1-2.42-.74,20.57,20.57,0,0,1-3.26-1.78,24.44,24.44,0,0,1-3.87-3.26,25.36,25.36,0,0,1-2.7-3.07,21,21,0,0,1-1.73-2.72,14.52,14.52,0,0,1-1-2.25,10.87,10.87,0,0,1-.44-1.75,6.11,6.11,0,0,1-.1-1.15c0-.28,0-.44,0-.47a2.29,2.29,0,0,1,.21-.66,1.93,1.93,0,0,1,.39-.55l3.1-3.09a1,1,0,0,1,.75-.33.88.88,0,0,1,.54.18,1.47,1.47,0,0,1,.39.43l2.5,4.72a1.15,1.15,0,0,1,.12.82,1.53,1.53,0,0,1-.4.74L295.47,97a.35.35,0,0,0-.08.15.45.45,0,0,0,0,.18,4,4,0,0,0,.42,1.11,10.23,10.23,0,0,0,.86,1.37,15.45,15.45,0,0,0,1.66,1.85,16.47,16.47,0,0,0,1.86,1.66,9.7,9.7,0,0,0,1.37.87,3.38,3.38,0,0,0,.84.34l.29.06a.41.41,0,0,0,.15,0,.35.35,0,0,0,.15-.08l1.33-1.35a1.43,1.43,0,0,1,1-.37,1.23,1.23,0,0,1,.63.14h0l4.5,2.65a1.2,1.2,0,0,1,.58.77Zm0,0"/>
  <rect class="2dabd2af-9a78-4930-8780-cb47c0ccf827" x="284.99" y="85" width="30" height="30"/>
  <path d="M220,118.5A18.5,18.5,0,1,1,238.5,100,18.52,18.52,0,0,1,220,118.5Zm0-36A17.5,17.5,0,1,0,237.5,100,17.52,17.52,0,0,0,220,82.5Z"/>
  <path d="M227.62,94.17a7.5,7.5,0,0,0-.37-.93A8,8,0,0,0,212,95.59v1s0,.41,0,.59c.29,2.32,2.12,4.77,3.48,7.09,1.47,2.47,3,4.91,4.49,7.35.93-1.59,1.86-3.2,2.77-4.75.25-.46.53-.91.78-1.35.17-.28.48-.57.62-.84,1.47-2.69,3.83-5.39,3.83-8.05v-1.1a8.1,8.1,0,0,0-.38-1.36Zm-7.66,5a2.84,2.84,0,0,1-2.72-1.94,2.52,2.52,0,0,1-.08-.73v-.64a2.69,2.69,0,0,1,2.89-2.64,2.92,2.92,0,0,1,2.92,3,3,3,0,0,1-3,3Zm0,0"/>
  <path d="M260,118.5A18.5,18.5,0,1,1,278.5,100,18.52,18.52,0,0,1,260,118.5Zm0-36A17.5,17.5,0,1,0,277.5,100,17.52,17.52,0,0,0,260,82.5Z"/>
  <g>
    <path d="M250.74,96.55l2.62,1.82c1.46,1,2.58,1.79,3.35,2.34l.55.39q.4.3.69.48c.18.13.4.26.66.42a3.67,3.67,0,0,0,.74.34,1.94,1.94,0,0,0,.64.12h0a1.94,1.94,0,0,0,.64-.12,3.67,3.67,0,0,0,.74-.34c.26-.16.48-.29.66-.42s.42-.28.69-.48l.55-.39,6-4.16A6.13,6.13,0,0,0,270.83,95a3.37,3.37,0,0,0,.62-1.93,2,2,0,0,0-2-2H250.59a1.79,1.79,0,0,0-1.51.67,2.52,2.52,0,0,0-.53,1.66,2.94,2.94,0,0,0,.7,1.74,6.51,6.51,0,0,0,1.49,1.48Zm0,0"/>
    <path d="M270.18,97.92q-4.2,2.83-6.37,4.41c-.49.36-.88.64-1.18.84a7.93,7.93,0,0,1-1.21.61,3.64,3.64,0,0,1-1.41.31h0a3.64,3.64,0,0,1-1.41-.31,7.93,7.93,0,0,1-1.21-.61c-.3-.2-.69-.48-1.18-.84q-1.73-1.26-6.35-4.41a6.62,6.62,0,0,1-1.29-1.11V107a2,2,0,0,0,2,2h18.82a2,2,0,0,0,2-2V96.81a6.84,6.84,0,0,1-1.27,1.11Zm0,0"/>
  </g>
  <path class="e6ab42b1-0876-4c06-ac93-7833aa581f06" d="M180,42h0a18,18,0,0,0-14.57,28.55l-2.25,6.69L170.1,75A18,18,0,1,0,180,42Zm10.48,25.42C190,68.64,188.32,69.66,187,70c-.94.2-2.17.36-6.31-1.36-5.29-2.19-8.7-7.56-9-7.91s-2.14-2.85-2.14-5.43a5.75,5.75,0,0,1,1.84-4.38,2.64,2.64,0,0,1,1.84-.65l.61,0c.52,0,.79.06,1.14.89.43,1,1.49,3.63,1.62,3.9a1.06,1.06,0,0,1,.07,1,3.11,3.11,0,0,1-.58.83c-.27.3-.52.54-.78.86s-.52.6-.21,1.13A15.76,15.76,0,0,0,178,62.45a13.15,13.15,0,0,0,4.22,2.61,1.14,1.14,0,0,0,1.27-.2A22.09,22.09,0,0,0,184.9,63a1,1,0,0,1,1.29-.39c.49.17,3.06,1.44,3.59,1.71s.88.39,1,.61a4.61,4.61,0,0,1-.31,2.5Zm0,0"/>
  <g>
    <path class="e6ab42b1-0876-4c06-ac93-7833aa581f06" d="M137.59,63a3.9,3.9,0,0,1-.36-.25,4.84,4.84,0,0,0-1.15-.17H136c-1.82,0-3.42,1.1-3.42,2.36s1.37,2.45,3.12,2.45c2.3,0,3.47-.8,3.47-2.37a1.94,1.94,0,0,0-.06-.46c-.15-.6-.71-1-1.55-1.56Zm0,0"/>
    <path class="e6ab42b1-0876-4c06-ac93-7833aa581f06" d="M136.29,58.21h0a1.44,1.44,0,0,0,1.09-.5,2.88,2.88,0,0,0,.52-2.23c-.2-1.59-1.34-2.91-2.52-2.94h0a1.4,1.4,0,0,0-1.07.49,2.77,2.77,0,0,0-.51,2.19c.21,1.58,1.36,3,2.52,3Zm0,0"/>
    <path class="e6ab42b1-0876-4c06-ac93-7833aa581f06" d="M140,42a18,18,0,1,0,18,18,18,18,0,0,0-18-18Zm-2.08,26.76a7.71,7.71,0,0,1-2.18.3,10.3,10.3,0,0,1-2.46-.29,4.8,4.8,0,0,1-3.11-2,2.58,2.58,0,0,1-.33-1.26,3.15,3.15,0,0,1,.32-1.37,5.84,5.84,0,0,1,5.36-2.91h.06a2.14,2.14,0,0,1-.28-1.07,2.2,2.2,0,0,1,.07-.56A4.3,4.3,0,0,1,131,55.28a4.6,4.6,0,0,1,3.31-4,5.43,5.43,0,0,1,1.76-.3h5.36a.41.41,0,0,1,.39.29.41.41,0,0,1-.15.47l-1.19.86a.39.39,0,0,1-.25.08h-.43a4.21,4.21,0,0,1,.88,2.68A4,4,0,0,1,139,58.44c-.83.65-.86.83-.86,1.2A3.56,3.56,0,0,0,139.37,61a4.15,4.15,0,0,1,2,3.82c0,1.81-1.38,3.37-3.5,4ZM150,59.58a.42.42,0,0,1-.42.43h-3v3a.42.42,0,0,1-.42.42h-.87a.42.42,0,0,1-.42-.42V60h-3a.42.42,0,0,1-.42-.43v-.86a.42.42,0,0,1,.42-.42h3v-3a.42.42,0,0,1,.42-.42h.87a.42.42,0,0,1,.42.42v3h3a.42.42,0,0,1,.42.42Zm0,0"/>
  </g>
  <path class="e6ab42b1-0876-4c06-ac93-7833aa581f06" d="M100,42a18,18,0,1,0,18,18,18,18,0,0,0-18-18Zm8,13.88c0,.18,0,.36,0,.54A11.79,11.79,0,0,1,89.9,66.34a8.22,8.22,0,0,0,1,.06A8.34,8.34,0,0,0,96,64.63a4.14,4.14,0,0,1-3.87-2.88A4.34,4.34,0,0,0,94,61.68a4.14,4.14,0,0,1-3.33-4.06.07.07,0,0,1,0,0,4,4,0,0,0,1.87.51,4.15,4.15,0,0,1-1.28-5.53,11.74,11.74,0,0,0,8.54,4.33,3.67,3.67,0,0,1-.11-.94,4.15,4.15,0,0,1,7.16-2.84,8.25,8.25,0,0,0,2.64-1,4.16,4.16,0,0,1-1.82,2.29,8.15,8.15,0,0,0,2.37-.65A8.22,8.22,0,0,1,108,55.88Zm0,0"/>
  <g>
    <path class="e6ab42b1-0876-4c06-ac93-7833aa581f06" d="M60,63.6A3.6,3.6,0,0,0,63.6,60,3.61,3.61,0,0,0,60,56.4a3.6,3.6,0,0,0-2.92,1.5A3.6,3.6,0,0,0,60,63.6Zm0,0"/>
    <path class="e6ab42b1-0876-4c06-ac93-7833aa581f06" d="M67.87,55.59V52.12H64.39l0,3.47Zm0,0"/>
    <path class="e6ab42b1-0876-4c06-ac93-7833aa581f06" d="M60,42A18,18,0,1,0,78,60,18,18,0,0,0,60,42ZM70.24,57.9v8.38a4,4,0,0,1-4,4H53.72a4,4,0,0,1-4-4V53.72a4,4,0,0,1,4-4H66.28a4,4,0,0,1,4,4Zm0,0"/>
    <path class="e6ab42b1-0876-4c06-ac93-7833aa581f06" d="M65.6,60a5.6,5.6,0,1,1-10.79-2.1H51.76v8.38a2,2,0,0,0,2,2H66.28a2,2,0,0,0,2-2V57.9H65.18A5.47,5.47,0,0,1,65.6,60Zm0,0"/>
  </g>
  <path class="e6ab42b1-0876-4c06-ac93-7833aa581f06" d="M20,42A18,18,0,1,0,38,60,18,18,0,0,0,20,42Zm4.48,18.63H21.55V71.07H17.21V60.63H15.14V56.94h2.07V54.56a4.07,4.07,0,0,1,4.38-4.38H24.8v3.58H22.47a.89.89,0,0,0-.92,1V57h3.31Zm0,0"/>
  <path d="M180,82h0a18,18,0,0,0-14.57,28.55l-2.25,6.69L170.1,115A18,18,0,1,0,180,82Zm10.48,25.42c-.44,1.22-2.16,2.24-3.53,2.54-.94.2-2.17.36-6.31-1.36-5.29-2.19-8.7-7.56-9-7.91s-2.14-2.85-2.14-5.43a5.75,5.75,0,0,1,1.84-4.38,2.64,2.64,0,0,1,1.84-.65l.61,0c.52,0,.79.06,1.14.89.43,1,1.49,3.63,1.62,3.9a1.06,1.06,0,0,1,.07,1,3.11,3.11,0,0,1-.58.83c-.27.3-.52.54-.78.86s-.52.6-.21,1.13a15.76,15.76,0,0,0,2.92,3.62,13.15,13.15,0,0,0,4.22,2.61,1.14,1.14,0,0,0,1.27-.2,22.09,22.09,0,0,0,1.4-1.87,1,1,0,0,1,1.29-.39c.49.17,3.06,1.44,3.59,1.71s.88.39,1,.61a4.61,4.61,0,0,1-.31,2.5Zm0,0"/>
  <g>
    <path d="M137.59,103a3.9,3.9,0,0,1-.36-.25,4.84,4.84,0,0,0-1.15-.17H136c-1.82,0-3.42,1.1-3.42,2.36s1.37,2.45,3.12,2.45c2.3,0,3.47-.8,3.47-2.37a1.94,1.94,0,0,0-.06-.46c-.15-.6-.71-1-1.55-1.56Zm0,0"/>
    <path d="M136.29,98.21h0a1.44,1.44,0,0,0,1.09-.5,2.88,2.88,0,0,0,.52-2.23c-.2-1.59-1.34-2.91-2.52-2.94h0a1.4,1.4,0,0,0-1.07.49,2.77,2.77,0,0,0-.51,2.19c.21,1.58,1.36,3,2.52,3Zm0,0"/>
    <path d="M140,82a18,18,0,1,0,18,18,18,18,0,0,0-18-18Zm-2.08,26.76a7.71,7.71,0,0,1-2.18.3,10.3,10.3,0,0,1-2.46-.29,4.8,4.8,0,0,1-3.11-2,2.58,2.58,0,0,1-.33-1.26,3.15,3.15,0,0,1,.32-1.37,5.84,5.84,0,0,1,5.36-2.91h.06a2.14,2.14,0,0,1-.28-1.07,2.2,2.2,0,0,1,.07-.56A4.3,4.3,0,0,1,131,95.28a4.6,4.6,0,0,1,3.31-4,5.43,5.43,0,0,1,1.76-.3h5.36a.41.41,0,0,1,.39.29.41.41,0,0,1-.15.47l-1.19.86a.39.39,0,0,1-.25.08h-.43a4.21,4.21,0,0,1,.88,2.68A4,4,0,0,1,139,98.44c-.83.65-.86.83-.86,1.2a3.56,3.56,0,0,0,1.23,1.32,4.15,4.15,0,0,1,2,3.82c0,1.81-1.38,3.37-3.5,4ZM150,99.58a.42.42,0,0,1-.42.43h-3v3a.42.42,0,0,1-.42.42h-.87a.42.42,0,0,1-.42-.42v-3h-3a.42.42,0,0,1-.42-.43v-.86a.42.42,0,0,1,.42-.42h3v-3a.42.42,0,0,1,.42-.42h.87a.42.42,0,0,1,.42.42v3h3a.42.42,0,0,1,.42.42Zm0,0"/>
  </g>
  <path d="M100,82a18,18,0,1,0,18,18,18,18,0,0,0-18-18Zm8,13.88c0,.18,0,.36,0,.54a11.79,11.79,0,0,1-18.14,9.92,8.22,8.22,0,0,0,1,.06A8.34,8.34,0,0,0,96,104.63a4.14,4.14,0,0,1-3.87-2.88,4.34,4.34,0,0,0,1.87-.07,4.14,4.14,0,0,1-3.33-4.06.07.07,0,0,1,0-.05,4,4,0,0,0,1.87.51,4.15,4.15,0,0,1-1.28-5.53,11.74,11.74,0,0,0,8.54,4.33,3.67,3.67,0,0,1-.11-.94,4.15,4.15,0,0,1,7.16-2.84,8.25,8.25,0,0,0,2.64-1,4.16,4.16,0,0,1-1.82,2.29,8.15,8.15,0,0,0,2.37-.65A8.22,8.22,0,0,1,108,95.88Zm0,0"/>
  <g>
    <path d="M60,103.6a3.6,3.6,0,0,0,3.6-3.6A3.61,3.61,0,0,0,60,96.4a3.6,3.6,0,0,0-2.92,1.5A3.6,3.6,0,0,0,60,103.6Zm0,0"/>
    <path d="M67.87,95.59V92.12H64.39l0,3.47Zm0,0"/>
    <path d="M60,82a18,18,0,1,0,18,18A18,18,0,0,0,60,82ZM70.24,97.9v8.38a4,4,0,0,1-4,4H53.72a4,4,0,0,1-4-4V93.72a4,4,0,0,1,4-4H66.28a4,4,0,0,1,4,4Zm0,0"/>
    <path d="M65.6,100a5.6,5.6,0,1,1-10.79-2.1H51.76v8.38a2,2,0,0,0,2,2H66.28a2,2,0,0,0,2-2V97.9H65.18a5.47,5.47,0,0,1,.42,2.1Zm0,0"/>
  </g>
  <path d="M20,82a18,18,0,1,0,18,18A18,18,0,0,0,20,82Zm4.48,18.63H21.55v10.44H17.21V100.63H15.14V96.94h2.07V94.56a4.07,4.07,0,0,1,4.38-4.38H24.8v3.58H22.47a.89.89,0,0,0-.92,1V97h3.31Zm0,0"/>
</svg>
