<svg id="0ad6738a-1fe7-4eb9-b258-d48a4d72ea02" data-name="Слой 1" xmlns="http://www.w3.org/2000/svg" width="323.25" height="59.04" viewBox="0 0 323.25 59.04">
  <defs>
    <style>
      .\35 9949d0f-21fa-4e99-862c-fc499f33fe91 {
        fill: #fff;
      }
    </style>
  </defs>
  <title>logo-white</title>
  <path class="59949d0f-21fa-4e99-862c-fc499f33fe91" d="M8.7,38.75a16.1,16.1,0,0,1-4.82-3.11A12.77,12.77,0,0,1,0,25.55l8,.11v-.11a7.25,7.25,0,0,0,1,3.54c1.18,1.72,3.32,2.69,6.54,2.69,5.25,0,7.6-1.4,7.6-3.55,0-2.36-3-3.75-7.82-4.29a28.76,28.76,0,0,1-7.82-1.83A12.39,12.39,0,0,1,2.7,18.79,9.53,9.53,0,0,1,0,12,10.76,10.76,0,0,1,2.7,4.62c2.68-3,7-4.62,13-4.62,7.82,0,11.68,3.44,13.5,6.33a14.29,14.29,0,0,1,2.14,7.3h-8v.11a5,5,0,0,0-.86-3c-1.18-1.62-3.53-2.69-6.75-2.69-3.43,0-7.28.86-7.28,3.44S11,15.46,16.2,16c5.78.64,10.07,2.46,12.64,5.47a10.35,10.35,0,0,1,2.57,6.87A10.62,10.62,0,0,1,29,35.53a11.34,11.34,0,0,1-5.25,3.33,25.87,25.87,0,0,1-8.14,1.07A21.31,21.31,0,0,1,8.7,38.75Z"/>
  <path class="59949d0f-21fa-4e99-862c-fc499f33fe91" d="M69,1.72v21.9c0,10.2-8.9,16.1-16.29,16.1-6.75,0-16.18-5.47-16.18-16.21V1.72H45v21.9a7,7,0,0,0,2.46,5.58,8.62,8.62,0,0,0,5.25,2.15,8.51,8.51,0,0,0,2.68-.54A12.11,12.11,0,0,0,58.2,29.2,9.29,9.29,0,0,0,60,26.84a7.35,7.35,0,0,0,.64-3.12v-22Z"/>
  <path class="59949d0f-21fa-4e99-862c-fc499f33fe91" d="M92.05,39.83,71.59,1.72h10.5l10,19,9.86-19h10.5Z"/>
  <path class="59949d0f-21fa-4e99-862c-fc499f33fe91" d="M125.37,31.56h17.36v8.16H116.16v-38h26.57V9.88H125.37v6.76h14.78V24.8H125.37Z"/>
  <path class="59949d0f-21fa-4e99-862c-fc499f33fe91" d="M182,1.72v38L156.87,21.15V39.72h-9.11v-38l25.18,19.43V1.72Z"/>
  <path class="59949d0f-21fa-4e99-862c-fc499f33fe91" d="M195.76,1.72v38h-9.11v-38Z"/>
  <path class="59949d0f-21fa-4e99-862c-fc499f33fe91" d="M217.61,16.64l4.82,7.73h-6.1l-4.72-7.19H209v7.19h-5.35V1.82H214.4a7.61,7.61,0,0,1,8,7.73A7.3,7.3,0,0,1,217.61,16.64ZM209,12.24h5.36a4.11,4.11,0,0,0,1.71-.32,4.57,4.57,0,0,0,.75-.54,2.8,2.8,0,0,0,.65-1.93,3,3,0,0,0-.75-1.94,2.92,2.92,0,0,0-2.47-.85h-5.35v5.58Z"/>
  <path class="59949d0f-21fa-4e99-862c-fc499f33fe91" d="M265.72,21.58A19.61,19.61,0,1,1,246.11,1.93,19.64,19.64,0,0,1,265.72,21.58Zm-8.14,0a11.37,11.37,0,1,0-3.33,8.05A11.34,11.34,0,0,0,257.58,21.58Z"/>
  <path class="59949d0f-21fa-4e99-862c-fc499f33fe91" d="M280,10v6.77h10.71v8.16H280V39.83h-9.11V1.72h23.57V9.88H280Z"/>
  <path class="59949d0f-21fa-4e99-862c-fc499f33fe91" d="M308.79,10v6.77H319.5v8.16H308.79V39.83h-9.11V1.72h23.57V9.88H308.79Z"/>
  <path class="59949d0f-21fa-4e99-862c-fc499f33fe91" d="M191.26,30.92c-3.43,0-3.43,5.26,0,5.26S194.58,30.92,191.26,30.92Z"/>
  <path class="59949d0f-21fa-4e99-862c-fc499f33fe91" d="M210,35.32l2.46,4h-3.11L207,35.64h-1.29v3.65h-2.78V27.8h5.57a3.91,3.91,0,0,1,4.07,4A4,4,0,0,1,210,35.32Zm-4.4-2.15h2.68a2,2,0,0,0,.86-.11c.11-.1.32-.21.43-.32a2.07,2.07,0,0,0,.32-1,1.75,1.75,0,0,0-.32-1c-.22-.32-.64-.43-1.29-.43h-2.78v2.79Z"/>
  <path class="59949d0f-21fa-4e99-862c-fc499f33fe91" d="M223.4,27.8v6.66a4.88,4.88,0,0,1-4.93,4.83,5,5,0,0,1-4.93-4.94V27.7h2.57v6.65a2,2,0,0,0,.75,1.72,2.82,2.82,0,0,0,1.61.64c.21,0,.54-.1.75-.1a2.52,2.52,0,0,0,.86-.54,1.86,1.86,0,0,0,.53-.75,2.52,2.52,0,0,0,.22-1V27.7h2.57Z"/>
  <path class="59949d0f-21fa-4e99-862c-fc499f33fe91" d="M14.59,47.45V58.83H11.91V52.49L8.59,54.64,5.38,52.49v6.34H2.59V47.45l6,3.86Z"/>
  <path class="59949d0f-21fa-4e99-862c-fc499f33fe91" d="M39.13,57.22H34.84L34,58.83h-3.1L37,47.45l6.11,11.38H40Zm-1.08-2.15L37,53l-1.07,2Z"/>
  <path class="59949d0f-21fa-4e99-862c-fc499f33fe91" d="M69.55,47.45V58.83l-7.5-5.48v5.48H59.37V47.45l7.5,5.8v-5.8Z"/>
  <path class="59949d0f-21fa-4e99-862c-fc499f33fe91" d="M95.91,47.45V54a4.94,4.94,0,0,1-4.82,4.83A4.85,4.85,0,0,1,86.27,54V47.45h2.57V54a2.14,2.14,0,0,0,.75,1.72,2.87,2.87,0,0,0,1.5.64c.21,0,.53-.11.75-.11a2.36,2.36,0,0,0,.85-.53,2.82,2.82,0,0,0,.54-.65,2.51,2.51,0,0,0,.21-1V47.56h2.47Z"/>
  <path class="59949d0f-21fa-4e99-862c-fc499f33fe91" d="M115.3,49.92v2h3.21v2.47H115.3v4.4h-2.79V47.45h7.07v2.47Z"/>
  <path class="59949d0f-21fa-4e99-862c-fc499f33fe91" d="M141.55,57.22h-4.29l-.86,1.61h-3.1l6.1-11.38,6.11,11.38H142.4Zm-1.07-2.15-1.08-2-1.07,2Z"/>
  <path class="59949d0f-21fa-4e99-862c-fc499f33fe91" d="M169.19,57.43a6,6,0,0,1-3.75,1.4,5.8,5.8,0,1,1,3.75-10.2l-1.72,1.72a3.26,3.26,0,0,0-2-.65,3.34,3.34,0,0,0-2.36,5.69,3.3,3.3,0,0,0,2.36,1,3.26,3.26,0,0,0,2-.64Z"/>
  <path class="59949d0f-21fa-4e99-862c-fc499f33fe91" d="M191.47,50.24v8.59h-2.68V50.24H185.9V47.56h8.57v2.68Z"/>
  <path class="59949d0f-21fa-4e99-862c-fc499f33fe91" d="M220.61,47.45V54a4.94,4.94,0,0,1-4.82,4.83A4.85,4.85,0,0,1,211,54V47.45h2.57V54a2.17,2.17,0,0,0,.75,1.72,2.93,2.93,0,0,0,1.5.64c.22,0,.54-.11.75-.11a2.5,2.5,0,0,0,.86-.53,2.76,2.76,0,0,0,.53-.65,2.51,2.51,0,0,0,.22-1V47.56h2.46Z"/>
  <path class="59949d0f-21fa-4e99-862c-fc499f33fe91" d="M244.29,55l2.46,3.87h-3l-2.36-3.65h-1.29v3.65h-2.68V47.45h5.36a3.88,3.88,0,0,1,4.07,3.86A4.06,4.06,0,0,1,244.29,55ZM240,52.71h2.67a2,2,0,0,0,.86-.11c.11-.11.32-.21.43-.32a1.62,1.62,0,0,0,0-1.93c-.21-.32-.64-.43-1.29-.43H240Z"/>
  <path class="59949d0f-21fa-4e99-862c-fc499f33fe91" d="M265.93,47.45V58.83h-2.68V47.45Z"/>
  <path class="59949d0f-21fa-4e99-862c-fc499f33fe91" d="M292.5,47.45V58.83L285,53.35v5.48h-2.68V47.45l7.5,5.8v-5.8Z"/>
  <path class="59949d0f-21fa-4e99-862c-fc499f33fe91" d="M320.57,52.28v6.55h-2.25V58A6.2,6.2,0,0,1,314.89,59a5.8,5.8,0,1,1,3.75-10.19l-1.71,1.71a3.52,3.52,0,0,0-2-.64,3.33,3.33,0,1,0,2.36,5.69,3.12,3.12,0,0,0,.75-1.08h-2.57V52.28h5.14Z"/>
</svg>
