<svg id="6277d8f0-b93b-4d2f-a74a-25094704f480" data-name="Слой 1" xmlns="http://www.w3.org/2000/svg" width="181.81" height="337.64" viewBox="0 0 181.81 337.64">
  <defs>
    <style>
      .\39 23505a1-787e-4598-b480-3e3d36ffd4d3 {
        fill: #fff;
      }
    </style>
  </defs>
  <title>new-year</title>
  <path class="923505a1-787e-4598-b480-3e3d36ffd4d3" d="M181.38,185c-9.7-8.6-25.8-3.4-36.7-.1-15.7,4.8-31.8,10.7-46.2,18.6-16.2,8.9-31.7,21.4-43.3,36.1-2.2.4-4.3.9-6.5,1.3-11.8,2.4-24.9,5.7-36.9,2.5-13-3.4-7.8-15.1-1.9-22.4,1.8-2.2,3.7-4.4,5.7-6.5,8.8,5.2,25.4,1.5,32.8-.3,20.9-5,42-15.1,61.2-24.5a103.41,103.41,0,0,0,25.1-16.9c4.5-4.1,11.8-11.3,11.4-18-.3-4.8-7.2-6.1-10.8-6-3.9.1-7.9,1.9-11.5,3.3a174.55,174.55,0,0,1-17.4,5.3c-11.9,3.1-22.9,6.5-33.5,12.5a339.3,339.3,0,0,0-49.8,34c-1.9,1.6-4.6,3.7-7.4,6.3-2.5-2.3-3.5-5.9-2.1-11.2,2.6-9.7,9.7-18.7,17.1-26.2,17.3,2,36.9-4.5,52.5-9.9,16-5.6,36.4-12.8,47.8-26.2,2.6-3,4.4-7.5,1.6-11-7.2-8.7-25.4-.2-33.2,2.9-25.9,10.2-50.5,21.7-69.6,41.3-8-.9-14.2-4.1-13.6-12.6.9-11.9,10.5-22.4,20.3-30.4a16.19,16.19,0,0,0,7.2,5.3c11.9,4.7,27.7-1.5,38.7-5.8,11.5-4.5,22.1-10.3,31.2-18.8,8.8-8.2,7.5-17.9-5.7-16.7-14.6,1.3-30.3,9.4-43.3,15.4a131.93,131.93,0,0,0-27.3,16.2,15.4,15.4,0,0,1-1.6-6.3c-.7-9.7,8.9-17.8,16.1-23.2,9.5,5.1,24,3.4,33.5,1.9,11.2-1.7,25.3-6.1,28.7-18.3,2.7-9.4-8.3-9.6-14.5-8.7a88.75,88.75,0,0,0-29.9,10.4c-6,3.4-12.4,7-18.2,11.1-9.6-6.1-1.2-18.2,6.3-24.9a26.59,26.59,0,0,1,4.4-3.3c6,3.7,20.8,0,24.8-1.7,6.5-2.8,7.9-10-.7-9.4a56.19,56.19,0,0,0-23.3,7.3c-1.7-3.4,9.6-13.1,14.5-11,1.3.6,2.5-1.3,1.2-2-7-3.4-20.4,5.2-18.8,13.2a5.78,5.78,0,0,0,.5,1.4c-1,.7-2,1.4-2.9,2.1-8.5,6.6-19.7,20-8.9,29.4a3,3,0,0,0,.7.5c-5.8,4.4-10.9,9.5-14.2,15.9a18.19,18.19,0,0,0,.1,17.4,80.47,80.47,0,0,0-14.3,15.4c-8.1,11.5-12.2,28.2,5.2,32.1l1.6.3c-2.7,3-5.3,6.1-7.8,9.4-5.8,7.5-13,18.6-8.8,28a9.45,9.45,0,0,0,2.1,3.1c-8.1,7.7-16.3,18-11.8,26.6s16.8,9,25.2,8.4a206.21,206.21,0,0,0,25.5-3.7c-.3.5-.7.9-1,1.4-4.7,6.8-7.8,16.5-.5,22.6,5.2,4.3,12.8,5.6,20.6,4.9-.2,1-.4,1.9-.6,2.9-3.7,21.1-3.7,52.3,19.7,61.8,2,.8,2.9-2.4.9-3.2-18.3-7.4-19.8-30.3-18.7-47.3a80.3,80.3,0,0,1,2.1-14.6c11.8-1.9,23.6-7.9,29.1-15,6.3-8.3,3.9-15.7-7-13.5-13.1,2.7-20.7,12.9-24.4,24.8-13.5,1.5-25.4-2.2-22.3-13.8a32.76,32.76,0,0,1,6.5-11.8c8.9-2,17.8-4.2,26.5-6.3,20.7-5,39.5-12.6,58.3-22.4,13.8-7.2,31.7-13.5,40.3-27.3A1.65,1.65,0,0,0,181.38,185ZM88.18,52.91c3.9,0-3.7,4.4-3.9,4.4a45.8,45.8,0,0,1-6.4,1.5c-3.7.7-8.2,1.1-12.1.1A73,73,0,0,1,78,54.61,51.75,51.75,0,0,1,88.18,52.91Zm-1.5,21.2c5.9-2,12.1-3.8,18.4-3.9,12.2-.3,2.9,12.6-2.2,15.8-12.3,7.8-32.3,9.3-46.2,5.7-.8-.2-1.6-.5-2.3-.7A129.33,129.33,0,0,1,86.68,74.11Zm-40.1,45.4c15.6-10.2,33.6-17.1,51.2-23a47,47,0,0,1,11.7-2.5c2.8-.2,9.2,0,6.3,6.1-1,2.1-2.9,3.9-4.5,5.5A72.57,72.57,0,0,1,94,117.91c-12.9,6.7-28.1,13-42.9,12.7-5.3-.1-9.7-2-12.4-5.5C41.48,123,44.08,121.11,46.58,119.51Zm-9.8,47.2c16.3-15.3,35.5-23.6,55.8-32.2,6-2.5,35.6-16.8,38.3-5.3,1.3,5.5-9,11.6-12.5,13.9-18.1,11.9-40,19.4-61,24.1-4.8,1.1-15.1,3.2-24.1,3A38.53,38.53,0,0,1,36.78,166.71Zm33.6,8.3a120.76,120.76,0,0,1,30.9-13.1c10.2-2.8,20-6.1,30-9.2,2.7-.8,13-2.2,11.6,4.6-.5,2.5-3.4,5.6-4.9,7.4a75.64,75.64,0,0,1-15.7,14.2c-9.5,6.6-20.3,11.2-31,15.7-11,4.6-21.8,9.6-33.1,13.6-7.5,2.6-29.8,8.7-40.1,3.8C33.28,197.21,52.68,185.51,70.38,175Zm8.7,85.1a26.09,26.09,0,0,1,11.5-10.8c2-1,15.2-6.4,13.4,1-2.2,8.9-15.4,15.5-28.2,17.8A39.68,39.68,0,0,1,79.08,260.11Zm94-67.9c-4.6,4.4-10.7,7.3-16.3,10.2-23.5,12.1-45.9,23.8-71.6,30.5-8.2,2.1-16.5,3.9-24.8,5.6,2.2-2.4,4.5-4.7,6.6-6.8a152.24,152.24,0,0,1,30.8-23.9c15.1-9,33-15.2,49.7-20.4,7.9-2.4,16.5-4.7,24.8-3.4C179.28,185.21,177.48,188,173.08,192.21Z"/>
  <path class="923505a1-787e-4598-b480-3e3d36ffd4d3" d="M93.38,8.41c-3.9-.1-7.8-.4-11.6-.8-.7-2.1-1.5-4.2-2.3-6.3-.6-1.4-2.4-1.9-3.3-.4-.2.4-.5.8-.7,1.3-1.2,1.5-2.3,3-3.4,4.6a93.89,93.89,0,0,0-13-.1c-1.7.1-2.8,2.6-1,3.5,3.2,1.6,6.3,3.2,9.4,4.9a60.82,60.82,0,0,0-3.6,10.4c-.4,1.7,1.7,3.3,3,2.1a.82.82,0,0,0,.5-.5,37.93,37.93,0,0,1,8-7.5c2.7,1.6,5.4,3.3,8,5.2,1.4,1,3.1-.6,2.7-2.1-.7-2.6-1.4-5.2-2.2-7.8a43,43,0,0,1,9.9-2.8C96.08,11.71,95.48,8.41,93.38,8.41Z"/>
</svg>
