<svg id="d356e9d1-fdb3-4b98-8263-337cee14789e" data-name="Слой 1" xmlns="http://www.w3.org/2000/svg" width="13.5" height="8.63" viewBox="0 0 13.5 8.63">
  <defs>
    <style>
      .a6b554bb-52a7-4a16-840b-19b54da1c5a6 {
        isolation: isolate;
      }
    </style>
  </defs>
  <title>view-icon</title>
  <path class="a6b554bb-52a7-4a16-840b-19b54da1c5a6" d="M13.34,3.75a1.36,1.36,0,0,1,.16.56,1.22,1.22,0,0,1-.16.57,7.45,7.45,0,0,1-2.75,2.71,7.27,7.27,0,0,1-3.84,1,7.19,7.19,0,0,1-3.84-1A7.09,7.09,0,0,1,.16,4.88,1,1,0,0,1,0,4.31a1.11,1.11,0,0,1,.16-.56A7.48,7.48,0,0,1,2.91,1,7.46,7.46,0,0,1,6.75,0a7.54,7.54,0,0,1,3.84,1A7.87,7.87,0,0,1,13.34,3.75ZM6.75,7.5a3.18,3.18,0,0,0,1.59-.42A3.23,3.23,0,0,0,9.49,5.91a3.1,3.1,0,0,0,.45-1.6,3.21,3.21,0,0,0-.45-1.59A3.33,3.33,0,0,0,8.34,1.57a3.2,3.2,0,0,0-1.59-.44,3.06,3.06,0,0,0-1.59.44A3.25,3.25,0,0,0,4,2.72a3.18,3.18,0,0,0-.42,1.59A3.08,3.08,0,0,0,4,5.91,3.15,3.15,0,0,0,5.16,7.08,3,3,0,0,0,6.75,7.5ZM9.19,4.31A2.39,2.39,0,0,0,8.46,2.6,2.43,2.43,0,0,0,5.6,2.16a.94.94,0,0,1,.7.3,1,1,0,0,1,.31.7,1,1,0,0,1-.31.73.93.93,0,0,1-.7.28,1,1,0,0,1-.72-.28,1,1,0,0,1-.29-.73,2.63,2.63,0,0,0-.28,1.15A2.38,2.38,0,0,0,5,6.05a2.34,2.34,0,0,0,1.73.7,2.34,2.34,0,0,0,1.71-.7A2.4,2.4,0,0,0,9.19,4.31Z"/>
</svg>
