<?xml version="1.0" encoding="UTF-8" standalone="no"?>
<svg width="102px" height="102px" viewBox="0 0 102 102" version="1.1" xmlns="http://www.w3.org/2000/svg" xmlns:xlink="http://www.w3.org/1999/xlink" xmlns:sketch="http://www.bohemiancoding.com/sketch/ns">
    <!-- Generator: Sketch Beta 3.3.2 (12041) - http://www.bohemiancoding.com/sketch -->
    <title>Logo</title>
    <desc>Created with Sketch Beta.</desc>
    <defs></defs>
    <g id="Onboarding-v2" stroke="none" stroke-width="1" fill="none" fill-rule="evenodd" sketch:type="MSPage">
        <g id="00-intro" sketch:type="MSArtboardGroup" transform="translate(-454.000000, -274.000000)">
            <g id="Logo" sketch:type="MSLayerGroup" transform="translate(455.000000, 275.000000)">
                <circle id="Circle" stroke="#B5A372" sketch:type="MSShapeGroup" cx="50" cy="50" r="50"></circle>
                <path d="M20.955,57.35 L30.888,57.35 L30.888,55.817 L22.614,55.817 L22.614,42.65 L20.955,42.65 L20.955,57.35 L20.955,57.35 Z M34.454,57.35 L45.185,57.35 L45.185,55.838 L36.113,55.838 L36.113,50.693 L44.135,50.693 L44.135,49.181 L36.113,49.181 L36.113,44.162 L45.08,44.162 L45.08,42.65 L34.454,42.65 L34.454,57.35 L34.454,57.35 Z M54.085,57.455 L55.555,57.455 L61.876,42.65 L60.091,42.65 L54.841,55.313 L49.612,42.65 L47.764,42.65 L54.085,57.455 L54.085,57.455 Z M72.099,57.602 C76.572,57.602 79.617,54.053 79.617,50 C79.638,49.979 79.638,49.979 79.617,49.958 C79.617,45.905 76.614,42.398 72.141,42.398 C67.668,42.398 64.623,45.947 64.623,50 L64.623,50.042 C64.623,54.095 67.626,57.602 72.099,57.602 L72.099,57.602 L72.099,57.602 Z M72.141,56.069 C68.781,56.069 66.345,53.339 66.345,50 L66.345,49.958 C66.345,46.619 68.739,43.931 72.099,43.931 C75.459,43.931 77.895,46.661 77.895,50 L77.895,50.042 C77.895,53.381 75.501,56.069 72.141,56.069 L72.141,56.069 L72.141,56.069 Z" id="LEVO" fill="#B5A372" sketch:type="MSShapeGroup"></path>
            </g>
        </g>
    </g>
</svg>