<svg xmlns="http://www.w3.org/2000/svg" xmlns:xlink="http://www.w3.org/1999/xlink" width="525" height="151" viewBox="0 0 525 151">
    <defs>
        <path id="mvmzvelsta" d="M0 0.086L393.224 0.086 393.224 100.239 0 100.239z"/>
        <path id="ykmmxnbehc" d="M0.004 0L138.735 0 138.735 15.404 0.004 15.404z"/>
        <path id="d1z34loj0e" d="M0.116 0.109L38.534 0.109 38.534 15.561 0.116 15.561z"/>
        <path id="udde9t2zwg" d="M0 0L15.429 0 15.429 7.532 0 7.532z"/>
        <path id="2t8z0pfeyi" d="M0.086 0L7.971 0 7.971 7.558 0.086 7.558z"/>
        <path id="hzcz64sg6k" d="M0 0L7.592 0 7.592 7.532 0 7.532z"/>
        <path id="3hctcbou0m" d="M0.129 0.121L7.707 0.121 7.707 7.768 0.129 7.768z"/>
    </defs>
    <g fill="none" fill-rule="evenodd">
        <g transform="translate(0 23.12)">
            <mask id="gqukzz4o2b" fill="#fff">
                <use xlink:href="#mvmzvelsta"/>
            </mask>
            <path fill="#CDCDCC" d="M157.926 76.673c.998 0 1.996-.01 2.994.004.537.007.796-.203.793-.764-.013-1.823-.01-3.645 0-5.468.002-.513-.153-.826-.733-.823-1.952.01-3.905.006-5.857.002-.477-.001-.723.203-.722.696.003 1.866.007 3.732-.006 5.597-.004.565.264.768.797.76.911-.015 1.823-.004 2.734-.004M0 84.774V69.361c2.29 0 4.58.011 6.871-.006.907-.007.953-.054.96-.965.015-2.203 0-4.407-.003-6.611l.008-7.833c.003-6.628.004-13.256.012-19.884 0-1.126.03-2.251.045-3.377l7.725.023.096.254c-.066 2.524-.075 5.048.004 7.572-.014 2.2-.042 4.401-.037 6.602.002.912.053.96.954.968 2.201.019 4.403.007 6.604.008.446.41.994.23 1.495.232 7.163.014 14.326.013 21.489.015 2.264.004 4.527.018 6.791.007 1.024-.006 1.05-.031 1.06-1.012.016-1.916.015-3.831 0-5.747-.008-1.05-.028-1.063-1.132-1.071-2.133-.016-4.267-.015-6.4-.02l-.107.03c.014-2.249.04-4.496.035-6.744-.003-.941-.078-.985-1.067-1.024-.26-.01-.519.004-.778-.003-1.987-.048-3.976.104-5.96-.081 0-2.21-.014-4.42.005-6.629.006-.63-.166-.962-.873-.95-2.252.041-4.504.042-6.756.058l.03-.025.016-7.612 7.552-.049 7.85.033c2.209.007 4.419.027 6.628.014.904-.005.948-.056.958-.972.019-1.776.007-3.552.005-5.329 0-.519-.05-1.045.265-1.508l7.565-.029 7.578.006c2.29.002 4.58.015 6.871-.001.911-.007.958-.053.965-.96.017-2.203.004-4.407.004-6.611l7.556-.044 7.843.03c.004 2.127.003 4.253.015 6.38.007 1.195.017 1.208 1.249 1.208 2.126.001 4.251-.015 6.377-.024l7.507.062c.333.41.266.899.266 1.372.003 1.822.018 3.643-.007 5.465-.008.642.182 1 .883.933.172-.016.346-.001.52 0 4.206.012 8.413.019 12.62.038 2.991.013 5.983.042 8.975.063l.013 7.506c0 2.078-.008 4.157.004 6.235.007 1.228.11 1.332 1.338 1.34 2.165.011 4.33.003 6.494.003l.005.256c-.001.478-.003.957-.003 1.436 0 1.74.017 3.48-.008 5.22-.009.655.216.986.902.926.216-.019.435-.001.652-.001h19.839c.261 0 .523-.016.783 0 .63.04.832-.274.826-.867-.018-1.87.011-3.742-.013-5.612-.012-.947-.17-1.08-1.199-1.092-1.653-.019-3.306.002-4.96-.008-1.314-.008-1.399-.093-1.406-1.415-.011-2.132-.01-4.264-.012-6.396l7.576-.047c.39.01.781.03 1.172.03 14.648-.001 29.295-.005 43.943-.01.39 0 .781-.023 1.172-.035l.737.08c.416.348.914.204 1.376.206 4.42.017 8.839.02 13.258.026.001 2.078-.006 4.156.007 6.234.008 1.214.115 1.32 1.351 1.326 2.164.009 4.329-.003 6.493-.006l15.405.01c0 2.133.006 4.267-.002 6.4-.006 1.433-.254 1.687-1.657 1.696-1.523.01-3.048-.015-4.57.01-.907.016-1.056.172-1.078 1.083-.027 1.131-.016 2.264-.006 3.395.02 2.289-.273 1.984 1.993 2.057 1.934.063 3.914-.362 5.788.486.182.083.43.02.648.025 7.737.149 15.477-.258 23.215.231 2.81.178 5.638-.122 8.455-.182 5.21-.11 10.425.054 15.638.151 10.793.202 21.592.073 32.388.054 3.519-.006 7.023.436 10.546.283.957-.041 1.102.163 1.118 1.167.02 1.263-.027 2.526.012 3.788.069 2.198-.182 2.357-2.325 2.356-54.983-.014-109.966-.01-164.95-.01-.347 0-.696-.005-1.044 0-1.218.016-1.228.017-1.234 1.236-.01 1.74.01 3.482-.009 5.224-.009.836-.313 1.195-1.11 1.34-.339.061-.695.034-1.043.035-1.567.003-3.134-.013-4.701.007-.916.012-.961.055-.97.968-.02 1.872-.019 3.744 0 5.616.008.926.05.972.957.98 2.002.02 4.005.01 6.007.002.257-.001.561.014.763-.11.8-.491 1.672-.405 2.538-.407 1.132-.003 2.264.007 3.396-.003 1.206-.01 1.214-.017 1.221-1.247.009-1.393-.017-2.787.01-4.18.018-1.039.576-1.576 1.613-1.622.347-.015.696-.002 1.044-.002 55.158 0 110.315 0 165.472-.003 2.321 0 2.208-.113 2.197 2.203-.006 1.305-.029 2.612.012 3.917.03.937.283 1.178 1.165 1.192 2.472.037 4.947.18 7.411.214 9.532.13 19.067.053 28.601.051.389 0 .811.09 1.155-.123.756-.47 1.583-.4 2.407-.398h5.224l.052.602-.066 7.495c-1.387 0-2.774 0-4.16.003-.694 0-1.391-.04-2.08.017-1.124.095-1.314.325-1.317 1.453-.007 2.123 0 4.247 0 6.37l-.01 7.83c0 2.503.002 5.007.004 7.511-.557.146-1.124.082-1.686.082-14.546-.003-29.092-.01-43.638-.013-.476 0-.953.033-1.429.051-.347-.012-.694-.035-1.042-.035-27.394-.01-54.787-.018-82.181-.024-.39 0-.78.032-1.17.048-.26-.012-.52-.034-.78-.034-12.15-.005-24.301-.008-36.452-.008-.302 0-.605.03-.907.047-.433-.013-.866-.038-1.298-.038-9.193-.005-18.385-.006-27.577-.011-.736 0-1.473-.025-2.209-.039-.001-1.957.005-3.914-.006-5.87-.008-1.528-.14-1.66-1.62-1.661-3.218-.004-6.437-.063-9.654.01-6.516.15-13.02-.368-19.535-.279l-.042-7.552c.007-2.255.03-4.51.014-6.765-.007-.91-.166-1.074-1.07-1.077-2.21-.009-4.421.025-6.632.042l-.135-7.615c.005-2.13.019-4.262.014-6.393-.003-1.195-.017-1.197-1.253-1.21-2.086-.024-4.172-.044-6.258-.065-.023-.693-.06-1.385-.066-2.077-.01-1.432 0-2.863-.004-4.295-.004-1.389-.007-1.39-1.453-1.395-.434-.001-.867.009-1.301-.001-1.69-.04-3.381.094-5.069-.08-.003-2.125.002-4.25-.013-6.375-.008-1.085-.025-1.107-1.083-1.113-2.168-.012-4.336.001-6.505.004l-7.53-.032c-.015-.074-.029-.149-.04-.224.002-2.09.024-4.18-.002-6.268-.014-1.083-.26-1.314-1.308-1.315-6.965-.007-13.93-.008-20.894.001-1.003.002-1.025.03-1.033 1.038-.015 2.176-.006 4.353-.006 6.53l-.033.184-7.793.085c-2.168-.002-4.336-.015-6.504-.003-1.056.006-1.073.028-1.08 1.115-.016 2.124-.01 4.25-.014 6.374-2.213.19-4.43.035-6.645.084-1.153.025-1.157.022-1.174 1.156-.009.609.013 1.218-.004 1.826-.045 1.605.116 3.215-.093 4.817-2.126.01-4.253.012-6.379.032-1.082.01-1.105.026-1.11 1.088-.01 2.17.006 4.34.01 6.51-.012.521-.027 1.042-.038 1.563-.044 1.998.087 3.997-.072 5.993-2.13.002-4.259-.005-6.388.008-1.235.008-1.339.11-1.343 1.344-.007 2.173.009 4.346.015 6.519-.003.651-.007 1.302-.008 1.954-.001 1.563-.02 3.126.008 4.689.012.666-.234.97-.909.91-.215-.02-.434-.001-.65-.002-7.295-.008-14.59-.021-21.883-.022-2.474 0-4.948.034-7.421.052l.008-.033c.003-2.163.016-4.327.004-6.49-.005-1.058-.027-1.078-1.107-1.082-2.163-.009-4.326.006-6.489.011l-7.846.012L0 84.774" mask="url(#gqukzz4o2b)"/>
        </g>
        <g transform="translate(146.559)">
            <mask id="ey0c06ljvd" fill="#fff">
                <use xlink:href="#ykmmxnbehc"/>
            </mask>
            <path fill="#C2C2C1" d="M.013 7.614l7.812-.073c5.136.003 10.272.01 15.407.006 2.524-.002 5.048-.026 7.572-.04l15.392.008c2.251.016 4.503.042 6.754.044 1.11 0 1.121-.021 1.126-1.192.01-2.123.002-4.245.002-6.367H92.48c0 2.163-.01 4.326.004 6.49.006 1.028.027 1.06.989 1.06 2.292.005 4.584-.023 6.876-.037l15.397.02 7.577-.002c4.68.025 9.359.047 14.038.082.462.004.96-.145 1.373.212l-.006 7.562-7.582.017c-.006-2.202-.001-4.404-.023-6.605-.01-.911-.038-.941-.963-.947-2.288-.014-4.576-.001-6.864 0l-7.572.005c-2.61-.123-5.219-.093-7.829-.017-.302-.019-.605-.053-.907-.054-12.156-.017-24.312-.031-36.468-.042-.345 0-.69.045-1.035.069-4.1-.017-8.202-.043-12.304-.046-1.033 0-2.071-.09-3.102.065-1.813-.021-3.626-.065-5.44-.06-3.325.008-6.651.044-9.977.069-2.612-.095-5.224-.1-7.836.003-2.525-.096-5.05-.087-7.576-.004-2.611-.042-5.222-.103-7.832.032l-7.565-.01-7.85-.023c0-.075.004-.15.009-.225" mask="url(#ey0c06ljvd)"/>
        </g>
        <path fill="#EAEFEE" d="M177.363 7.506c-2.524.015-5.048.04-7.572.041-5.136.005-10.271-.003-15.407-.006l.012-7.54h22.99l-.023 7.505"/>
        <g transform="translate(485.525 123.177)">
            <mask id="r4937i1olf" fill="#fff">
                <use xlink:href="#d1z34loj0e"/>
            </mask>
            <path fill="#A29F9F" d="M7.946 15.502c-2.61.083-5.22.072-7.83.007l.009-7.545c.429-.317.925-.187 1.392-.188 4.31-.017 8.62-.019 12.93-.028 5.093-.011 10.187-.024 15.28-.04 1.232-.004 1.242-.013 1.247-1.2.01-2.132.007-4.266.01-6.399l7.55.022v7.837c-2.608-.075-5.215-.059-7.823.002-2.434.056-4.87.039-7.305.054l-7.823.004c-2.202-.015-4.404-.04-6.606-.038-.985.002-1.005.028-1.014 1.032-.018 2.16-.013 4.32-.017 6.48" mask="url(#r4937i1olf)"/>
        </g>
        <g transform="translate(246.877)">
            <mask id="vag0434lih" fill="#fff">
                <use xlink:href="#udde9t2zwg"/>
            </mask>
            <path fill="#DFE1E0" d="M15.429 7.532L.032 7.513 0 0h15.414l.015 7.532" mask="url(#vag0434lih)"/>
        </g>
        <path fill="#DFE1E0" d="M177.363 7.506L177.386 0h15.413l-.044 7.515-15.392-.009"/>
        <path fill="#707070" d="M524.059 92.481v15.413l-7.57-.016.012-15.336 7.558-.061"/>
        <path fill="#5D5D5D" d="M447.253 151h-7.838c.004-1.165.026-2.331.007-3.496-.015-.894-.052-.934-.978-.942-2.202-.02-4.403-.011-6.605-.014v-.25c2.123 0 4.245.008 6.367 0 1.197-.005 1.193-.018 1.214-1.244.036-2.12-.083-4.243.068-6.362l7.762.032.003 7.595.013.263-.013 4.418"/>
        <path fill="#4F4E4E" d="M431.84 146.298V151h-7.838l-.01-4.43c.007-.085.01-.17.006-.256l.017-7.58 7.726-.04c.03.47.08.94.083 1.411.013 2.064.012 4.128.016 6.193M0 107.894l7.804.029c.018 2.201.027 4.403.057 6.604.013.927.033.955.947.959 2.289.01 4.578-.01 6.866-.017 2.523.079 5.045.075 7.568.002l-.008.033c.006.066.017.132.03.197-.3.02-.603.059-.904.059-4.809-.005-9.617-.014-14.426-.023-2.644-.098-5.29-.09-7.934-.005v-7.838z"/>
        <path fill="#EAEFEE" d="M0 77.067h7.836l-.008 7.832L0 84.905v-7.838z"/>
        <path fill="#DFE1E0" d="M516.49 107.878l7.569.016v7.838l-7.487.028c-.19-2.618-.048-5.24-.08-7.86l-.003-.022z"/>
        <path fill="#A29F9F" d="M0 115.732c2.645-.084 5.29-.093 7.934.005l-.05 7.507c-.023.045-.052.085-.086.122L0 123.308v-7.576z"/>
        <path fill="#D2D2D1" d="M246.877 0l.032 7.513c-2.292.014-4.584.042-6.876.038-.963-.002-.983-.033-.99-1.062-.013-2.163-.003-4.326-.003-6.489h7.837z"/>
        <path fill="#DFE1E0" d="M0 84.905l7.828-.006c.003 2.204.018 4.408.002 6.611-.006.911-.052.958-.959.965-2.29.017-4.58.006-6.871.006v-7.576z"/>
        <g transform="translate(192.669)">
            <mask id="wz6udpfvdj" fill="#fff">
                <use xlink:href="#2t8z0pfeyi"/>
            </mask>
            <path fill="#CDCDCC" d="M.086 7.515L.131 0h7.837c0 2.122.008 4.244-.001 6.366-.005 1.172-.018 1.193-1.127 1.192-2.251 0-4.502-.027-6.754-.043" mask="url(#wz6udpfvdj)"/>
        </g>
        <g transform="translate(262.29)">
            <mask id="vlr9l1cxxl" fill="#fff">
                <use xlink:href="#hzcz64sg6k"/>
            </mask>
            <path fill="#EAEFEE" d="M.015 7.532L0 0h7.576l.016 7.531-7.577.001" mask="url(#vlr9l1cxxl)"/>
        </g>
        <g transform="translate(516.352 84.774)">
            <mask id="e4l44xwmnn" fill="#fff">
                <use xlink:href="#3hctcbou0m"/>
            </mask>
            <path fill="#DFE1E0" d="M.14.12l7.567.01v7.577l-7.558.06L.129.133.141.12z" mask="url(#e4l44xwmnn)"/>
        </g>
        <path fill="#A29F9F" d="M123.57 151h-7.838l.045-4.428c2.507-.015 5.014-.03 7.521-.043l.285.05-.014 4.421"/>
        <path fill="#3A3939" d="M108.156 151h-7.838l-.002-4.443.273-.047 7.298.001.258.057.01 4.432"/>
        <path fill="#5D5D5D" d="M92.742 151c-.122-1.47.09-2.95-.12-4.418.049-.005.096-.012.143-.02 2.518 0 5.036-.002 7.553-.003l-.002-.002.002 4.443h-7.576z"/>
        <path fill="#3A3939" d="M431.84 151v-4.452c2.2.003 4.402-.005 6.604.014.926.008.963.048.978.942.02 1.165-.003 2.33-.007 3.496h-7.576z"/>
        <path fill="#4F4E4E" d="M108.156 151l-.01-4.432 7.631.004-.045 4.428h-7.576z"/>
        <path fill="#D2D2D1" d="M393.172 91.958c-1.741 0-3.482.002-5.224 0-.824 0-1.65-.071-2.407.398-.344.213-.766.123-1.155.123-9.534.003-19.069.079-28.601-.05-2.465-.034-4.939-.178-7.411-.215-.882-.013-1.136-.255-1.165-1.191-.04-1.305-.019-2.612-.012-3.918.011-2.316.124-2.202-2.197-2.202-55.157.003-110.314.002-165.472.002-.348 0-.697-.013-1.044.003-1.037.045-1.595.583-1.614 1.622-.026 1.393 0 2.786-.009 4.18-.007 1.229-.015 1.236-1.221 1.246-1.132.01-2.264 0-3.396.003-.866.002-1.739-.084-2.538.408-.202.123-.506.108-.763.109-2.002.008-4.005.017-6.007-.002-.906-.008-.949-.054-.958-.98-.018-1.872-.018-3.744 0-5.616.01-.913.055-.956.97-.967 1.568-.02 3.135-.005 4.702-.008.348 0 .704.026 1.042-.035.797-.145 1.102-.503 1.111-1.34.02-1.741 0-3.483.009-5.224.006-1.218.016-1.22 1.234-1.236.348-.004.696 0 1.045 0 54.983 0 109.966-.004 164.949.01 2.143.001 2.394-.158 2.325-2.356-.04-1.261.008-2.525-.012-3.787-.016-1.004-.16-1.21-1.118-1.168-3.523.153-7.027-.289-10.546-.283-10.796.02-21.595.148-32.388-.053-5.213-.098-10.429-.261-15.638-.152-2.817.06-5.646.36-8.455.183-7.738-.49-15.478-.083-23.215-.232-.218-.004-.466.058-.648-.024-1.874-.849-3.854-.424-5.788-.486-2.266-.073-1.973.231-1.993-2.057-.01-1.132-.021-2.264.006-3.396.021-.91.171-1.067 1.077-1.082 1.523-.026 3.047 0 4.571-.01 1.403-.01 1.651-.263 1.656-1.697.009-2.133.003-4.266.003-6.4l.006-.064 7.564.05c.001 2.17-.006 4.34.01 6.51.007 1.033.032 1.072.989 1.074 4.47.012 8.94.012 13.411 0 .974-.002 1-.036 1.006-1.058.015-2.17.005-4.34.005-6.51l7.835.006c0 1.872-.007 3.743.003 5.615.012 2.19-.238 1.95 1.953 1.95 21.804.005 43.608.002 65.411.007.518 0 1.08-.143 1.544.126.768.447 1.585.395 2.41.393 1.261-.002 2.524-.007 3.785.001 1.339.01 1.428.093 1.438 1.386.01 1.393-.01 2.786.006 4.178.012 1.045.51 1.604 1.535 1.733.343.043.696.024 1.044.015 4.862-.135 9.727.217 14.593-.223 2.103-.19 4.25-.17 6.359.232l.014 7.555c-.87.005-1.74.013-2.612.013-3.83.001-7.662-.005-11.493.004-1.233.003-1.333.11-1.342 1.349-.012 1.654-.015 3.308.001 4.962.01 1.095.145 1.28 1.17 1.25 4.479-.132 8.94.423 13.42.287 2.566-.078 5.137-.016 7.705-.013.39 0 .811-.089 1.155.124.756.469 1.583.399 2.407.398 1.655-.002 3.309 0 4.963 0v6.53z"/>
        <path fill="#4F4E4E" d="M338.842 123.36c.477-.019.953-.052 1.429-.052 14.546.004 29.092.01 43.638.013.562 0 1.13.064 1.686-.081-.01.048-.01.096 0 .144.002 2.128-.006 4.257.007 6.385.007 1.083.023 1.104 1.087 1.108 2.172.007 4.343-.011 6.515-.02 2.263.01 4.527.03 6.79.023.984-.003 1.004-.028 1.011-1.048.017-2.177.012-4.354.016-6.53l7.556.047c.005 2.252 0 4.505.019 6.758.008 1 .03 1.023 1.03 1.029 2.254.013 4.507 0 6.76-.003l.035 7.598.01-.003-7.866.01-7.533-.045c-.012-2.218-.042-4.436-.025-6.653.004-.667-.219-.923-.9-.913-2.306.035-4.611.026-6.916.034-2.176-.009-4.352-.029-6.528-.021-1.053.003-1.07.026-1.076 1.123-.012 2.133-.004 4.266-.004 6.398-2.349.019-4.697.054-7.045.053-5.395-.003-10.79-.024-16.185-.037-.002-2.043-.002-4.085-.007-6.128-.004-1.394-.007-1.396-1.457-1.4-2.043-.006-4.085-.01-6.128-.014.003-.303.008-.607.008-.91 0-1.91-.016-3.818.008-5.726.008-.651-.209-.982-.896-.927-.302.024-.607.003-.91.003-4.252-.001-8.503.003-12.754-.01-.46-.002-.96.151-1.375-.206"/>
        <path fill="#3A3939" d="M338.842 123.36c.414.356.914.203 1.375.205 4.251.013 8.502.009 12.753.01.304 0 .61.021.91-.003.688-.055.905.276.897.927-.024 1.908-.008 3.817-.008 5.726 0 .303-.005.607-.008.91-20.17 0-40.341.001-60.512-.002-.476 0-.953-.045-1.43-.07.013-1.91.034-3.822.036-5.734.003-1.907.164-1.754-1.752-1.755-12.211-.008-24.423-.014-36.635-.02-.005-.069-.012-.137-.02-.205.39-.017.78-.049 1.17-.048 27.395.005 54.789.014 82.182.023.348 0 .695.023 1.042.035"/>
        <path fill="#A29F9F" d="M208.25 46.203c-.39.011-.781.033-1.172.034-14.648.005-29.295.009-43.943.01-.39 0-.781-.02-1.172-.03l.065-7.614c.434.018.868.05 1.302.05 14.962.008 29.925.012 44.887.016l.033 7.534"/>
        <path fill="#C2C2C1" d="M154.412 115.465c6.513-.089 13.018.428 19.534.28 3.216-.074 6.436-.015 9.654-.01 1.48 0 1.612.132 1.62 1.66.01 1.957.005 3.914.006 5.87-.086.014-.172.04-.258.04-10.184-.007-20.369-.016-30.553-.025l-.07-7.502.067-.313"/>
        <path fill="#D2D2D1" d="M154.387 46.265c.003 2.131 0 4.263.012 6.395.007 1.323.092 1.407 1.406 1.415 1.654.01 3.307-.01 4.96.008 1.029.011 1.187.145 1.2 1.092.023 1.87-.006 3.742.012 5.612.006.594-.197.908-.826.867-.26-.016-.522 0-.783 0h-19.839c-.217 0-.436-.017-.652.002-.686.06-.91-.271-.902-.927.025-1.74.008-3.48.008-5.22 0-.479.002-.957.003-1.436 2.08.001 4.161.01 6.242 0 1.32-.008 1.58-.277 1.589-1.62.01-1.647-.003-3.294.006-4.941.002-.44-.015-.867-.277-1.244l7.865-.055-.024.052z"/>
        <path fill="#8D8D8D" d="M162.028 38.603l-.065 7.614-7.576.047.024-.051c-.005-2.204-.023-4.41-.007-6.614.005-.636-.18-.955-.88-.942-2.333.044-4.667.049-7 .068l-7.565.024-7.827-.015c-2.992-.022-5.984-.05-8.975-.064-4.207-.019-8.414-.026-12.62-.038-.174-.001-.348-.016-.52 0-.7.067-.891-.29-.883-.933.025-1.821.01-3.643.007-5.465 0-.473.067-.961-.266-1.371l.303-.079 7.535.083c.011 2.172.013 4.345.037 6.517.01.993.03 1.016 1.038 1.021 2.26.012 4.52 0 6.78-.004l7.579-.007c4.9.16 9.802.053 14.702.099.708.006.747-.392.748-.918.004-2.256.022-4.511.035-6.767 2.217.008 4.433.009 6.65.027 1.077.009 1.093.024 1.102 1.092.014 1.739-.002 3.477.006 5.216.005 1.253.013 1.268 1.192 1.272 2.13.006 4.26-.007 6.389-.013.026.065.045.132.057.2"/>
        <path fill="#C2C2C1" d="M92.742 69.228c0-2.177-.01-4.353.006-6.53.008-1.007.03-1.036 1.033-1.038 6.964-.009 13.93-.008 20.894 0 1.049 0 1.294.232 1.308 1.314.026 2.089.004 4.179.002 6.268l-23.243-.014"/>
        <path fill="#B5B3B3" d="M246.877 54.079l-15.405-.01c-.003-2.16.003-4.318-.014-6.477-.008-1.06-.026-1.08-1.101-1.084-2.245-.01-4.49.003-6.736.006-4.42-.006-8.839-.01-13.258-.026-.462-.002-.96.142-1.376-.205l7.085-.076c2.566.012 5.133.034 7.699.033 5.088-.003 10.177-.018 15.265-.029 2.594.055 5.187.12 7.78-.037l.067 7.84-.006.065z"/>
        <path fill="#707070" d="M38.665 53.814c1.984.186 3.973.033 5.96.082.259.006.519-.008.778.003.99.038 1.064.082 1.067 1.023.006 2.248-.021 4.496-.034 6.743h-7.751c.001-2.21.014-4.419 0-6.628-.005-.921-.03-.943-.95-.953-1.689-.017-3.378-.002-5.067-.006-3.118-.007-6.236-.096-9.353.024l-.116-.023.092-7.786 7.78-.025-.03.025c.006 2.116.006 4.233.02 6.35.007 1.162.017 1.179 1.124 1.182 2.16.007 4.32-.006 6.48-.01"/>
        <path fill="#8D8D8D" d="M38.685 61.664l7.75.001.107-.03c-.014 2.118-.026 4.234-.041 6.35-.004.514.076 1.045-.278 1.495-7.163-.003-14.326-.002-21.489-.016-.5-.001-1.05.178-1.495-.232-.002-2.518.084-5.037-.046-7.554.037-.034.08-.054.129-.061.068-.005.132.01.19.045.344.394.808.245 1.225.25 1.564.015 3.129.004 4.693.006 1.73.002 1.658-.144 1.656 1.593-.002 1.521-.009 3.042.003 4.563.009 1.11.02 1.13 1.056 1.139 1.825.015 3.65.015 5.476 0 1.011-.009 1.033-.029 1.041-1.022.017-2.173.01-4.346.012-6.519l.01-.008z"/>
        <path fill="#4F4E4E" d="M146.546 92.499l.136 7.614c-.028.081-.072.15-.134.204h-7.59l-7.755-.05c-.025-.07-.043-.144-.052-.218l.02-7.59 7.756.025 7.619.015"/>
        <path fill="#D2D2D1" d="M31.072 46.268l-7.781.025-7.605-.027-.03-.073.014-7.53 15.417-.006-.015 7.611"/>
        <path fill="#161215" d="M154.415 123.28c10.184.009 20.369.018 30.553.025.086 0 .172-.026.258-.04.736.014 1.473.039 2.209.04 9.192.004 18.384.005 27.577.01.432 0 .865.025 1.298.039v.21l-61.687.005c-2.304 0-4.608-.009-6.912.002-1.13.005-1.143.02-1.149 1.183-.01 2.043-.003 4.086-.003 6.13-.003.076-.016.151-.038.225l-7.543.04.052-7.832 7.578-.034 7.807-.003"/>
        <path fill="#A29F9F" d="M23.265 115.701c-.014-.065-.025-.13-.031-.197 2.473-.018 4.947-.051 7.42-.051 7.295 0 14.589.013 21.883.022.217 0 .436-.018.651.001.675.06.92-.244.909-.91-.028-1.563-.01-3.126-.008-4.69.001-.65.005-1.302.008-1.953l7.722-.044c.092 2.592.1 5.184-.006 7.776-.471.017-.943.046-1.415.05-2.103.02-4.207.034-6.31.05l-7.612.019-7.818-.017c-2.527-.074-5.053-.084-7.58.005-2.609-.107-5.218-.077-7.828-.017l.015-.044z"/>
        <path fill="#5D5D5D" d="M393.158 100.055l.066-7.495c.645-.022 1.29-.049 1.934-.063 1.935-.043 3.873.084 5.807-.071.016 2.167.025 4.334.048 6.502.012 1.097.023 1.12 1.066 1.124 2.168.007 4.336-.012 6.504-.02l.021.225c-2.536.15-5.074.03-7.61.062l-7.734.037-.102-.301"/>
        <path fill="#A29F9F" d="M69.401 84.866c.21-1.602.05-3.211.094-4.817.017-.608-.005-1.217.004-1.826.017-1.134.021-1.13 1.174-1.156 2.215-.049 4.432.105 6.645-.084l.026.114-.025 7.77c-2.594.01-5.19-.11-7.782.067-.05-.014-.095-.037-.136-.068"/>
        <path fill="#EAEFEE" d="M84.884 23.206c.007-2.129.014-4.258.023-6.387.006-1.397.008-1.402 1.455-1.402 2.129-.001 4.258.005 6.388.008l-.028 7.78.005.032-7.843-.03M38.639 38.607c.008-2.127.015-4.255.025-6.383.006-1.384.008-1.392 1.33-1.394 2.171-.004 4.343.004 6.514.007l-.02 7.804-7.85-.034"/>
        <path fill="#A29F9F" d="M131.156 76.982c1.688.174 3.38.04 5.069.08.434.01.867 0 1.301.002 1.446.005 1.45.006 1.453 1.395.004 1.43-.006 2.862.004 4.294.005.692.043 1.385.065 2.078-.036.04-.074.08-.113.118-.463-.15-.942-.101-1.415-.102-2.117-.004-4.235-.003-6.352-.003l-.037-7.747.025-.115zM154.412 115.465l-.066.313-7.688-.077c-.091-2.606-.09-5.21-.002-7.816l7.713.028.043 7.552"/>
        <path fill="#C2C2C1" d="M61.819 107.88l-7.722.043c-.006-2.173-.022-4.346-.015-6.518.004-1.235.108-1.337 1.343-1.344 2.13-.013 4.259-.007 6.388-.009l.108.269c-.016.477-.04.954-.044 1.432-.023 2.042-.04 4.084-.058 6.126"/>
        <path fill="#B5B3B3" d="M400.965 92.425c-1.934.156-3.872.029-5.807.072-.645.014-1.29.041-1.934.062l-.052-.601v-6.53c.059-.705.544-.786 1.112-.782 2.253.016 4.506.021 6.76.03.012.08.021.161.028.243-.16.418-.092.855-.094 1.284-.01 2.074-.01 4.148-.013 6.222"/>
        <path fill="#4F4E4E" d="M61.92 100.32l-.107-.268c.16-1.996.028-3.995.072-5.992.011-.521.026-1.042.038-1.563l7.584-.018.08-.014c-.201 2.159-.056 4.322-.084 6.483-.014 1.08.02 1.098 1.08 1.106 2.163.016 4.327.011 6.491.015-.005.075-.012.15-.021.223l-7.533.026-7.6.003"/>
        <path fill="#B5B3B3" d="M154.37 107.913l-7.714-.028c-.022-.469-.059-.937-.064-1.406-.02-2.054-.03-4.108-.044-6.162.062-.054.106-.123.134-.204 2.21-.016 4.42-.05 6.632-.042.903.004 1.062.167 1.069 1.078.015 2.254-.007 4.509-.014 6.764"/>
        <path fill="#DFE1E0" d="M146.546 46.268c.262.377.28.803.277 1.244-.009 1.647.005 3.294-.006 4.942-.01 1.342-.27 1.611-1.59 1.618-2.08.012-4.16.002-6.241.001l-.005-.256.002-6.059c0-.513-.055-1.037.273-1.49 2.435-.012 4.87-.022 7.306-.033l-.016.033zM46.488 38.64l.02-7.803 7.837.008c-.314.463-.265.99-.265 1.508.002 1.777.014 3.553-.005 5.33-.01.915-.054.966-.958.971-2.21.013-4.419-.007-6.629-.013"/>
        <path fill="#C2C2C1" d="M46.223 69.48c.354-.45.274-.98.278-1.495.015-2.116.027-4.232.04-6.349 2.134.005 4.268.004 6.4.02 1.105.008 1.125.022 1.133 1.071.015 1.916.016 3.832 0 5.747-.01.98-.036 1.007-1.06 1.012-2.263.011-4.527-.003-6.791-.007"/>
        <path fill="#A29F9F" d="M15.674 115.47c-2.288.007-4.577.025-6.866.016-.914-.004-.934-.032-.947-.958-.03-2.202-.04-4.404-.057-6.605l7.846-.012.024 7.558M385.59 115.727c.004-2.61.008-5.219.01-7.829l7.563-.007c.063 2.612.104 5.223-.023 7.834l-7.55.002z"/>
        <path fill="#C2C2C1" d="M7.893 53.805l-.027-7.526 7.79-.086.03.073-.068 7.562-7.725-.023"/>
        <path fill="#A29F9F" d="M15.618 53.828l.068-7.562 7.605.027-.092 7.786-7.485.003-.096-.254"/>
        <path fill="#D2D2D1" d="M139.256 46.268c-.328.453-.273.977-.273 1.49 0 2.02 0 4.04-.002 6.06-2.164-.001-4.329.007-6.494-.005-1.227-.007-1.331-.11-1.338-1.34-.012-2.077-.004-4.155-.004-6.233l7.842-.005c.09.01.179.022.269.033"/>
        <path fill="#8D8D8D" d="M84.916 69.497c2.598-.028 5.195-.057 7.793-.084l.04.106-.003 7.54-7.855-.016.025-7.546M116.025 69.466l7.53.032.024 7.551-7.85.009-.018-7.545.314-.047"/>
        <path fill="#C2C2C1" d="M138.987 46.235l-7.842.005-.013-7.506 7.828.015.027 7.486"/>
        <path fill="#5D5D5D" d="M216.072 46.208l-7.085.075-.737-.08c-.01-2.512-.022-5.023-.033-7.534l.019.012 7.685-.07c.167.503.1 1.023.106 1.536.02 2.02.031 4.04.045 6.06"/>
        <path fill="#3A3939" d="M108.178 30.784l-.303.079-7.506-.063-.042-7.54.032.02 7.795-.023.024 7.527"/>
        <path fill="#DFE1E0" d="M69.493 23.254l7.835-.004c0 2.204.013 4.408-.004 6.612-.007.906-.054.953-.965.959-2.29.016-4.58.003-6.87.001 0-2.523.002-5.045.004-7.568"/>
        <path fill="#C2C2C1" d="M223.621 46.514c2.245-.003 4.49-.016 6.736-.006 1.075.004 1.093.025 1.101 1.084.016 2.159.01 4.318.014 6.477-2.164.002-4.329.014-6.493.005-1.236-.005-1.343-.111-1.35-1.326-.014-2.078-.007-4.156-.008-6.234M393.163 107.89l-7.562.009c0-2.124-.007-4.247 0-6.37.003-1.129.193-1.36 1.317-1.454.689-.057 1.386-.016 2.08-.017 1.386-.002 2.773-.002 4.16-.003l.102.3c-.013.477-.032.953-.037 1.43-.022 2.035-.04 4.07-.06 6.106"/>
        <path fill="#EAEFEE" d="M69.493 23.254l-.005 7.568-7.578-.005c.002-2.159-.005-4.317.01-6.475.008-1.062.027-1.081 1.098-1.087 2.158-.012 4.317-.002 6.475-.001"/>
        <path fill="#B5B3B3" d="M100.327 23.26l.041 7.54c-2.126.009-4.251.026-6.377.025-1.232-.001-1.242-.014-1.249-1.21-.012-2.126-.01-4.252-.015-6.378l-.005-.032c2.535.02 5.07.037 7.605.056M38.665 53.814c-2.16.005-4.32.018-6.48.011-1.107-.003-1.117-.02-1.124-1.182-.014-2.117-.014-4.234-.02-6.35 2.252-.016 4.504-.017 6.756-.057.707-.013.879.32.873.95-.019 2.209-.006 4.418-.005 6.628M69.507 92.479l-7.584.018c-.004-2.17-.02-4.34-.01-6.51.005-1.063.028-1.079 1.11-1.089 2.126-.02 4.253-.022 6.379-.032.04.03.085.054.135.068l-.03 7.545"/>
        <path fill="#C2C2C1" d="M15.674 115.47l-.024-7.56c2.163-.005 4.326-.02 6.49-.011 1.08.004 1.1.024 1.106 1.083.012 2.163 0 4.326-.004 6.489-2.523.073-5.045.077-7.568-.002"/>
        <path fill="#B5B3B3" d="M15.714 54.082l7.485-.003.116.023.007 7.515c-.05.007-.092.027-.129.06l-7.475-.023c-.079-2.524-.07-5.048-.004-7.572"/>
        <path fill="#C2C2C1" d="M15.718 61.654l7.475.024c.13 2.517.044 5.036.046 7.554-2.201 0-4.403.011-6.604-.007-.9-.008-.952-.057-.954-.969-.005-2.2.023-4.401.037-6.602M84.916 69.497l-.025 7.546-7.548.054-.025-.113c.003-2.126-.002-4.25.013-6.375.008-1.087.025-1.109 1.081-1.115 2.168-.012 4.336 0 6.504.003M123.58 77.049l-.025-7.55c2.169-.003 4.337-.016 6.505-.005 1.058.006 1.075.028 1.083 1.113.015 2.125.01 4.25.013 6.375l-.025.115-7.552-.048"/>
        <path fill="#8D8D8D" d="M385.59 115.727l7.55-.002.052 7.592-.022-.014c-2.525.053-5.051-.088-7.574.081-.011-.048-.011-.096-.001-.144l-.005-7.513"/>
        <path fill="#A29F9F" d="M146.546 92.499l-7.619-.015.008-7.535c.04-.038.077-.077.113-.118 2.087.02 4.173.04 6.259.063 1.236.014 1.25.016 1.253 1.211.005 2.131-.009 4.262-.014 6.394"/>
        <path fill="#D2D2D1" d="M157.926 99.793c-.911 0-1.823-.01-2.734.004-.533.008-.8-.195-.797-.76.013-1.865.01-3.731.006-5.597-.001-.493.245-.697.722-.696 1.952.004 3.905.008 5.857-.002.58-.003.735.31.732.824-.01 1.822-.012 3.644 0 5.467.004.561-.255.772-.792.764-.998-.014-1.996-.004-2.994-.004"/>
        <path fill="#222" d="M216.31 123.565v-.211c.302-.017.605-.048.907-.048 12.151 0 24.302.004 36.452.008.26 0 .52.023.78.035l.02.205-.025.024-30.824.003-7.31-.016z"/>
        <path fill="#A29F9F" d="M116.025 69.466l-.314.047-7.569.014h-7.81l-7.583-.008-.04-.106.033-.185 23.243.014c.011.075.024.15.04.224"/>
        <path fill="#CDCDCC" d="M401.043 84.676c-2.253-.009-4.506-.014-6.758-.03-.57-.004-1.054.077-1.113.782-1.654 0-3.308-.002-4.963 0-.824 0-1.65.07-2.407-.398-.344-.213-.766-.123-1.155-.124-2.568-.003-5.139-.065-7.705.013-4.48.136-8.941-.419-13.42-.287-1.025.03-1.16-.155-1.17-1.25-.016-1.654-.013-3.308-.001-4.962.009-1.24.109-1.346 1.342-1.349 3.831-.01 7.662-.003 11.493-.004.871 0 1.742-.008 2.612-.013 4.687.006 9.375.015 14.062.016 1.31 0 1.318-.01 1.323-1.263.008-1.693.008-3.385 0-5.078-.006-1.235-.014-1.252-1.206-1.252-4.731 0-9.462.013-14.193.022-2.108-.401-4.256-.422-6.36-.232-4.865.44-9.73.088-14.592.223-.348.01-.7.028-1.044-.015-1.024-.129-1.523-.688-1.535-1.733-.015-1.392.005-2.785-.006-4.178-.01-1.293-.1-1.377-1.438-1.386-1.261-.008-2.524-.003-3.786 0-.824 0-1.641.053-2.41-.394-.462-.269-1.025-.126-1.543-.126-21.804-.004-43.607-.002-65.411-.007-2.191 0-1.941.24-1.953-1.95-.01-1.872-.003-3.743-.003-5.615l.778-.07 7.066.003c.521.018 1.042.05 1.563.05 9.656.002 19.312 0 28.968 0l8.397.004 14.88.005c2.072-.002 4.145.013 6.217-.015 1.168-.015 1.355-.22 1.359-1.37.006-2.16-.007-4.318-.013-6.477l.046-7.567 7.807.016c0 2.204-.011 4.407.007 6.611.007.906.053.951.965.958 2.204.014 4.408-.001 6.612-.005l7.827.03c0 1.825.01 3.65.001 5.476-.01 2.105-.107 2.046 2.048 2.096 3.993.092 7.968-.45 11.962-.29.971.04 1.128-.16 1.138-1.143.02-2.043.008-4.085.01-6.128l7.83.004c.001 2.118-.003 4.237.006 6.355.005 1.37.082 1.443 1.49 1.447 2.118.005 4.237-.003 6.355-.006l15.42-.023c6.41.008 12.822.018 19.232.021 1.255 0 2.51-.03 3.766-.045l15.394.05c-.002 2.204-.015 4.41.002 6.614.006.907.053.953.965.959 2.291.014 4.582-.002 6.874-.006l7.58-.01.246.045c-.09 2.624.054 5.243-.205 7.876-.244 2.481-.05 5.005-.048 7.51l-.022.022-7.557-.069c0-2.123.006-4.247-.006-6.371-.006-1.13-.02-1.143-1.177-1.15-2.21-.012-4.421-.009-6.632-.012-2.55-.076-5.102.088-7.65-.088-.343-.278-.751-.166-1.132-.166-6.962-.007-13.924-.007-20.885 0-.382 0-.789-.11-1.135.161-2.456.148-4.912.076-7.369.038-.106-.115-.191-.085-.263.038l-.022.017c-2.16.003-4.318.003-6.477.01-1.324.006-1.33.011-1.331 1.38-.001 2.072.008 4.145.013 6.217l.025.025c-2.216-.013-4.432-.039-6.648-.033-.92.003-.964.044-.965.962-.002 2.215.029 4.43.047 6.647l-.019-.013z"/>
        <path fill="#EAEFEE" d="M485.652 61.66c2.173-.002 4.346-.009 6.52-.004 1.307.003 1.314.01 1.32 1.275.007 1.738-.01 3.477.005 5.215.01 1.038.036 1.11.987 1.074 4.212-.154 8.406.42 12.616.27.304-.01.61.02.913-.004.685-.054.907.271.901.926-.022 2.216-.008 4.433-.007 6.65l-.014 7.816h-15.385c-.005-2.22-.002-4.439-.017-6.658-.007-1.131-.02-1.146-1.183-1.15-2.22-.009-4.439 0-6.658.002l-7.568-.006-.002-7.575c2.159 0 4.318.01 6.477-.003 1.068-.007 1.09-.028 1.097-1.091.011-2.246 0-4.491-.002-6.737M354.771 38.665l-7.807-.016h-.02c.012-.085.01-.171-.004-.257l-.008-7.561h13.951c.218 0 .436.014.652 0 .638-.044.822.289.815.874-.02 1.521-.016 3.043-.002 4.564.021 2.446-.304 2.109 2.155 2.135 1 .011 2.007-.081 2.997.017 3.116.31 6.237.239 9.357.237.676 0 .916.259.91.923-.02 2.216-.003 4.433 0 6.65l-7.585.028-7.827-.03c-.002-2.2.007-4.402-.012-6.604-.009-.902-.056-.948-.967-.955-2.202-.018-4.403-.005-6.605-.005M439.44 54.023c-1.255.016-2.51.046-3.766.045-6.41-.003-12.821-.013-19.232-.02l-.02-7.8 21.651-.004c.217 0 .435.009.652.005.501-.01.69.258.687.731-.007 1.044-.003 2.087.001 3.13.006 1.305.018 2.609.027 3.913"/>
        <path fill="#DFE1E0" d="M416.422 46.247l.02 7.8-15.42.023-.019-7.81 15.419-.013"/>
        <path fill="#D2D2D1" d="M478.08 69.491l.002 7.575-7.834-.005c-.001-2.505-.196-5.029.048-7.51.26-2.633.116-5.252.205-7.876l7.572-.007.007 7.823"/>
        <path fill="#EAEFEE" d="M293.119 7.836l13.842.004c.218 0 .436.016.652-.002.665-.056.937.227.923.905-.029 1.436-.008 2.873-.007 4.31 0 .783.003 1.566.005 2.35l-.015.044-7.852-.013-7.541-.078-.007-7.52"/>
        <path fill="#D2D2D1" d="M370.182 46.259l7.585-.028c2.525.013 5.05.025 7.574.039-.001 2.043.01 4.085-.01 6.128-.01.984-.167 1.183-1.138 1.144-3.994-.162-7.969.381-11.962.289-2.155-.05-2.058.01-2.048-2.096.009-1.825 0-3.65-.001-5.476"/>
        <path fill="#EAEFEE" d="M316.1 15.425c2.172-.003 4.344-.012 6.516-.008 1.321.002 1.324.01 1.33 1.396.008 2.128.012 4.257.018 6.386l-.03.073c-.473-.014-.946-.036-1.419-.04-2.107-.023-4.214-.04-6.321-.06-.035-.06-.063-.123-.084-.19l-.01-7.557"/>
        <path fill="#D2D2D1" d="M401.003 46.26l.02 7.81c-2.12.003-4.238.01-6.356.006-1.408-.004-1.484-.078-1.49-1.447-.009-2.118-.005-4.237-.006-6.355l7.832-.014"/>
        <path fill="#DFE1E0" d="M462.675 61.64c-2.292.004-4.583.02-6.874.006-.912-.006-.959-.052-.965-.96-.017-2.204-.004-4.409-.002-6.614l7.834-.006.007 7.574M478.08 69.491l-.007-7.823 7.58-.008c0 2.246.012 4.491 0 6.737-.005 1.063-.028 1.084-1.096 1.09-2.159.014-4.318.004-6.477.004M293.119 7.836l.007 7.52-.283.084-7.573.022.018-.074.006-7.563 7.825.01"/>
        <path fill="#EAEFEE" d="M331.522 23.25c2.218 0 4.436-.008 6.654.002 1.16.006 1.174.02 1.18 1.153.014 2.132.009 4.263.012 6.394l-.024.06c-2.607-.027-5.214-.052-7.822-.078V23.25"/>
        <path fill="#DFE1E0" d="M508.893 84.878l.014-7.816 7.569.016.017 7.817-.012.011-7.588-.028"/>
        <path fill="#EAEFEE" d="M462.675 61.64l-.007-7.574c.264-.316.629-.243.969-.244 1.78-.004 3.562-.014 5.343.002 1.132.01 1.255.138 1.263 1.29.015 2.172.01 4.344.012 6.516l-7.58.01"/>
        <path fill="#DFE1E0" d="M331.522 23.25v7.532l-.007.083-7.552-.08-.03-7.514.032-.072 7.557.05M316.1 15.425l.01 7.557-7.586.025.007-.026-.012-7.534.015-.044 7.566.022M346.932 30.831l.008 7.561c-2.089.002-4.177.008-6.265.004-1.307-.003-1.314-.01-1.32-1.273-.008-2.088-.008-4.176-.011-6.264l.023-.06 7.565.032"/>
        <path fill="#CDCDCC" d="M100.332 15.437l7.837-.005-.045 7.474c-.474.027-.948.072-1.422.077-2.12.02-4.241.027-6.362.038l-.008-7.584"/>
        <path fill="#DFE1E0" d="M100.332 15.437l.008 7.584.019.259-.032-.02-7.604-.055.026-7.78 7.583.012"/>
        <path fill="#EAEFEE" d="M15.656 46.193l-7.79.086c-.01-2.165-.03-4.33-.024-6.495.002-1.105.022-1.118 1.202-1.122 2.209-.009 4.417-.001 6.626 0l-.014 7.531M115.736 15.347c-.002-2.039-.008-4.078-.006-6.117.002-1.39.008-1.393 1.46-1.395 2.125-.003 4.25 0 6.377 0l.01 7.528c-.513.022-1.025.06-1.537.066-2.099.023-4.197.037-6.295.055.016-.047.013-.093-.009-.137"/>
        <path fill="#CDCDCC" d="M131.144 7.836l7.806-.055.057.087-.037 7.507-7.563.083-.268-.087.005-7.535"/>
        <path fill="#DFE1E0" d="M131.144 7.836l-.005 7.535c-.47.017-.939.044-1.408.048-2.054.02-4.107.035-6.16.05l.005-.106-.01-7.528 7.578.001"/>
        <path fill="#A29F9F" d="M108.124 22.905l.045-7.473 7.567-.085c.022.044.025.09.01.137 0 2.083.005 4.166-.002 6.25-.003 1.23-.012 1.236-1.198 1.246-2.126.017-4.252.025-6.378.037l-.044-.112z"/>
        <path fill="#D2D2D1" d="M146.571 7.614c-.005.075-.007.15-.008.225l.014.035-7.57-.006-.057-.087c.252-.22.56-.203.863-.201 2.253.01 4.505.022 6.758.034"/>
        <path fill="#707070" d="M139 138.765c-.018 2.058-.032 4.117-.053 6.175-.005.513.052 1.03-.088 1.536-2.1.003-4.202.003-6.303.012-.47.002-.944-.058-1.405.091h-7.568l-.285-.05c.01-.064.02-.128.026-.192l.257-.072c2.207.007 4.415.025 6.622.015.925-.003.953-.03.956-.945.008-2.207-.013-4.414-.022-6.622 2.615-.009 5.23.122 7.843-.069l.02.12zM408.72 146.468c-.183-1.759-.03-3.523-.083-5.284-.025-.815.074-1.634-.072-2.446l7.866-.01c-.007 2.206-.027 4.413-.015 6.619.004.914.04.945.962.953 2.207.02 4.413.011 6.62.014.003.086.002.17-.005.256l-7.585.012c-1.645-.222-3.298-.058-4.947-.1-.913-.025-1.827-.01-2.74-.014"/>
        <path fill="#5D5D5D" d="M77.054 138.738l-15.133-.055-.02-7.507 15.432-.035.024 7.53-.303.067"/>
        <path fill="#B5B3B3" d="M31.081 131.222c-2.864-.022-5.729-.05-8.593-.065-4.384-.021-8.768-.033-13.152-.049-.26 0-.521-.01-.782-.002-.493.014-.7-.225-.696-.711.01-1.042.01-2.084 0-3.126-.013-1.3-.04-2.602-.06-3.903.034-.037.063-.077.087-.122.516.025 1.031.067 1.547.073 2.07.025 4.14.039 6.209.057.004 2.203.022 4.407.002 6.61-.005.646.195.937.885.925 2.246-.04 4.492-.035 6.739-.048l7.779.074c.028.05.049.102.062.157.016.048.007.092-.027.13"/>
        <path fill="#8D8D8D" d="M77.054 138.738l.303-.067c2.518.124 5.036.053 7.554.039l.021.277c-.009 1.99-.023 3.98-.024 5.97-.001 1.372.006 1.374 1.329 1.382 2.163.015 4.326.026 6.489.038-.007.066.006.128.039.185-.047.008-.094.015-.142.02l-7.72-.017c-1.995-.02-3.988-.042-5.982-.056-1.843-.013-1.637.136-1.645-1.709-.007-1.605.005-3.21-.006-4.814-.003-.424.103-.875-.216-1.248"/>
        <path fill="#C2C2C1" d="M46.513 138.706l-7.817-.007-.028-7.549c2.604-.018 5.209-.087 7.813.038.01 2.506.02 5.012.032 7.518"/>
        <path fill="#707070" d="M61.901 131.176l.02 7.507c-2.611.083-5.222.085-7.833 0l-.024-7.507H61.9"/>
        <path fill="#8D8D8D" d="M54.064 131.176l.024 7.506-7.575.024-.032-7.518 7.583-.012"/>
        <path fill="#5D5D5D" d="M478.072 138.672c-3.126.024-6.253.053-9.38.069-1.998.01-3.996 0-5.995-.001l-7.888-.008h.02l-.018-7.595.063-7.562.225-.238 7.58-.01c-.008 2.262-.027 4.524-.017 6.785.004.993.03 1.002 1.046 1.024.695.016 1.392.006 2.087.003 4.088-.014 8.175-.03 12.263-.045l.022.05-.008 7.528"/>
        <path fill="#707070" d="M454.81 138.732l7.888.008c-.156 1.683-.035 3.37-.07 5.056-.011.52.003 1.039-.003 1.558-.014 1.102-.017 1.108-1.174 1.115-1.255.008-2.51-.02-3.764.009-.947.02-1.902-.13-2.841.11-2.527-.003-5.053-.005-7.58-.006l-.013-.263c2.207-.004 4.413.002 6.62-.019.926-.008.96-.035.963-.95.008-2.206-.016-4.412-.027-6.618M478.072 138.672l.008-7.527 7.57-.004-.01 7.546c-2.522.05-5.045.077-7.568-.015"/>
        <path fill="#C2C2C1" d="M501.108 131.205l-.05 7.505-7.587-.03c.004-2.16 0-4.32.017-6.48.009-1.004.029-1.03 1.014-1.032 2.202-.004 4.404.023 6.606.037"/>
        <path fill="#161215" d="M216.045 7.813c.345-.024.69-.069 1.035-.069 12.156.01 24.312.025 36.468.042.302 0 .605.035.907.054l-.002 7.55c-.955.01-1.909.026-2.863.028-4.166.012-8.332.02-12.498.029l-7.617-.032c-2.253-.001-4.506-.012-6.76.001-1.062.006-1.08.028-1.088 1.105-.014 1.69-.001 3.38-.005 5.07-.004 1.39-.007 1.392-1.453 1.395-2.037.004-4.073.003-6.11.005-.018-.47-.049-.939-.053-1.408-.02-1.969-.033-3.938-.048-5.906.05-.06.07-.128.061-.206l.026-7.658M185.222 7.84c3.326-.024 6.651-.06 9.977-.068 1.813-.005 3.627.039 5.44.06l-.006 7.537-7.83.087-7.576-.086-.005-7.53"/>
        <path fill="#222" d="M200.633 15.369l.006-7.537c1.03-.155 2.068-.066 3.102-.065 4.101.003 8.203.029 12.304.046l-.026 7.658c-.079-.032-.156-.029-.233.01-.516-.02-1.033-.055-1.55-.057-4.534-.022-9.068-.038-13.603-.055"/>
        <path fill="#8D8D8D" d="M269.856 7.853c2.288-.002 4.576-.015 6.864-.001.924.006.954.036.963.947.022 2.202.017 4.403.023 6.605l.021.092c-2.617-.146-5.236-.03-7.853-.063l-.018-7.58"/>
        <path fill="#4F4E4E" d="M161.977 7.872c2.61-.135 5.222-.074 7.832-.032l-.002 7.571-7.838-.002.008-7.537"/>
        <path fill="#222" d="M185.222 7.84l.005 7.53-7.581.088-.251-.088-.009-7.526c2.612-.102 5.224-.098 7.836-.003"/>
        <path fill="#3A3939" d="M254.453 15.39l.002-7.55c2.61-.076 5.22-.106 7.83.017.001 2.518.004 5.035.006 7.552l-7.848.062.01-.081z"/>
        <path fill="#8D8D8D" d="M146.563 7.84c2.617.006 5.233.014 7.85.021l-.01 7.527-7.85-.013.025-7.5-.015-.036z"/>
        <path fill="#5D5D5D" d="M262.29 15.41c-.001-2.518-.004-5.035-.006-7.552l7.572-.005.018 7.58.009-.009-7.623.03.03-.045z"/>
        <path fill="#3A3939" d="M177.386 7.844l.009 7.526-7.578.051-.01-.01.002-7.571c2.526-.083 5.052-.092 7.577.004"/>
        <path fill="#161215" d="M277.706 15.404l7.582-.017-.018.075.008 7.519c-2.522.057-5.044.08-7.565-.013l.014-7.472-.02-.092z"/>
        <path fill="#5D5D5D" d="M154.403 15.388l.01-7.527 7.564.01-.008 7.538-7.605.059.04-.08z"/>
        <path fill="#4F4E4E" d="M485.65 131.141l-7.57.004-.022-.05c.005-.08.003-.16-.006-.24l.033-7.553 7.582-.035c2.6.082 5.2.092 7.8-.007l7.629.05 7.755-.001 7.644-.013.014-.01c-.003 2.134 0 4.267-.01 6.4-.005 1.187-.015 1.195-1.247 1.199-5.093.016-10.187.029-15.28.04-4.31.01-8.62.011-12.93.028-.467.002-.963-.128-1.392.188"/>
        <path fill="#CDCDCC" d="M493.468 123.26c-2.6.1-5.2.089-7.801.007l-.015-7.792c0-4.607.005-9.213.002-13.82 0-1.42-.152-1.583-1.554-1.594-2-.016-3.998-.006-5.997-.007l-.069-7.507c.014-2.116.034-4.232.038-6.348.002-1.37-.165-1.533-1.578-1.547-2.073-.02-4.146-.025-6.219-.037l-.049-7.532.022-.022 7.834.005 7.568.006c.003 2.247-.004 4.495.011 6.742.007 1.058.027 1.08 1.105 1.082 2.248.007 4.495-.01 6.742-.019l15.385.001 7.588.028.02 7.636-.012 15.336.002.022-7.568-.049c-.006-2.128-.004-4.256-.02-6.385-.008-1.126-.022-1.14-1.186-1.145-2.215-.01-4.43-.003-6.646-.004-2.207-.001-4.414-.016-6.62 0-.907.007-.948.05-.953.97-.014 2.208.002 4.415.007 6.622-.085 2.6-.096 5.2.008 7.801l-.045 7.55"/>
        <path fill="#3A3939" d="M447.25 138.724l-7.763-.031-.054.026.026-7.533c2.586-.139 5.173-.093 7.76-.022.01 2.522.018 5.043.026 7.565l.005-.005z"/>
        <path fill="#3A3939" d="M454.81 138.732c.01 2.206.034 4.412.026 6.618-.004.915-.037.942-.964.95-2.206.02-4.412.015-6.619.02l-.003-7.596-.005.005 7.584.003h-.02z"/>
        <path fill="#707070" d="M431.84 146.298c-.004-2.065-.003-4.129-.016-6.193-.003-.47-.054-.941-.083-1.412l.086.027h7.606l.054-.028c-.15 2.12-.03 4.242-.067 6.362-.021 1.226-.017 1.239-1.214 1.243-2.122.009-4.244.001-6.366 0"/>
        <path fill="#3A3939" d="M431.741 138.693l-7.726.04-.01-.008.093-7.575 7.5-.03c.08.013.157.034.231.063l-.002 7.537-.086-.027z"/>
        <path fill="#3A3939" d="M423.998 146.314c-2.207-.003-4.413.006-6.62-.014-.923-.008-.958-.039-.962-.953-.012-2.206.008-4.413.015-6.62l-.01.003 7.584-.005.01.008-.017 7.581"/>
        <path fill="#040404" d="M15.64 123.374c-2.069-.018-4.138-.032-6.208-.057-.516-.006-1.031-.048-1.547-.073l.05-7.507c4.808.009 9.616.018 14.425.023.302 0 .603-.038.905-.059l-.015.044c-.005 2.503-.01 5.005-.017 7.508l.014.089-7.606.032"/>
        <path fill="#B5B3B3" d="M508.923 107.85l7.568.05c.033 2.62-.11 5.242.081 7.86l-.083-.027-7.571-.007-.081.036-.015-7.605c.044-.066.06-.139.05-.217l.051-.09z"/>
        <path fill="#8D8D8D" d="M508.918 115.726l7.57.007.007 7.563-7.644.013.067-7.583"/>
        <path fill="#5D5D5D" d="M123.324 146.337c-.007.064-.015.128-.026.192l-7.521.043-7.632-.004-.258-.057c.306-.41.27-.886.27-1.359.003-2.147.011-4.294.017-6.441l7.573.014c-.003 2.162-.016 4.324-.005 6.485.005 1.062.025 1.075 1.099 1.086 2.16.022 4.322.028 6.483.041"/>
        <path fill="#707070" d="M108.174 138.71c-.006 2.148-.014 4.295-.016 6.442 0 .473.035.95-.27 1.36l-7.3-.001-.255-.227.031-7.593 7.76.029.05-.01z"/>
        <path fill="#5D5D5D" d="M100.333 146.284l.256.227-.273.046.003.002.014-.275"/>
        <path fill="#4F4E4E" d="M100.333 146.284l-.014.275c-2.519 0-5.037.002-7.554.003-.033-.057-.046-.119-.039-.185l.007-7.694-.002-7.548 7.585.016.049 7.54-.032 7.593"/>
        <path fill="#A29F9F" d="M246.883 54.014l-.067-7.84.017.049 7.626.001 7.851.076-.016 7.51c-2.119.004-4.237.003-6.356.018-.42.003-.872-.12-1.24.213-.084 0-.168.008-.251.022l-7.564-.049M377.784 69.499c4.73-.009 9.462-.021 14.193-.022 1.192 0 1.2.017 1.206 1.252.008 1.693.008 3.386 0 5.078-.005 1.253-.013 1.263-1.322 1.263-4.688-.001-9.376-.01-14.063-.016l-.014-7.555"/>
        <path fill="#DFE1E0" d="M254.447 54.063c.083-.014.167-.022.251-.022l15.179.022-.01.017c0 2.17.01 4.34-.004 6.51-.007 1.021-.032 1.056-1.006 1.058-4.47.012-8.94.012-13.411 0-.957-.002-.983-.041-.99-1.074-.015-2.17-.008-4.34-.01-6.51"/>
        <path fill="#A29F9F" d="M278.481 54.016l-.778.07-7.835-.006.009-.017-.022-.235c2.548-.005 5.095-.013 7.642-.013.338 0 .698-.068.984.201"/>
        <path fill="#5D5D5D" d="M362.353 138.677c-.39.016-.78.046-1.17.046-30.177-.003-60.352-.008-90.528-.014-.348 0-.695-.021-1.042-.032l-.017-7.513.273-.082c5.825.009 11.65.021 17.475.024 1.825 0 3.65-.027 5.476-.042.476.024.953.07 1.43.07 20.17.002 40.34.002 60.511.002 2.043.004 4.085.007 6.128.013 1.45.004 1.453.006 1.457 1.4.005 2.043.005 4.085.007 6.128"/>
        <path fill="#707070" d="M408.577 123.349l-7.556-.047-.051.026c.007-.605.018-1.21.02-1.816.016-4.542.03-9.084.044-13.626l7.573.03c-.008 2.164-.027 4.329-.019 6.493.004 1.022.03 1.055 1 1.057 2.25.007 4.502-.017 6.753-.028.026.079.038.16.038.243-2.29.02-4.581.056-6.872.048-.668-.003-.914.233-.905.904.03 2.204.016 4.41.019 6.615l-.044.1z"/>
        <path fill="#5D5D5D" d="M416.386 131.133c-2.253.002-4.506.016-6.76.003-1-.006-1.022-.03-1.03-1.029-.02-2.253-.014-4.506-.019-6.759l.044-.1.224.074c.351.378.812.237 1.23.24 1.65.014 3.3.003 4.95.007 1.394.004 1.397.008 1.4 1.456.003 2.04.002 4.081.002 6.122l-.041-.014z"/>
        <path fill="#161215" d="M401.021 123.302c-.004 2.176.001 4.353-.015 6.53-.008 1.02-.028 1.045-1.011 1.048-2.264.007-4.528-.013-6.792-.022l-.033-7.555.022.014 7.778.011.051-.026z"/>
        <path fill="#A29F9F" d="M401.032 138.693l-7.883-.024.042-7.508c2.305-.008 4.61.001 6.915-.034.682-.01.905.246.9.913-.016 2.217.014 4.436.026 6.653"/>
        <path fill="#3A3939" d="M393.17 123.303l.033 7.555c-2.17.008-4.342.026-6.514.019-1.064-.003-1.08-.025-1.087-1.108-.013-2.128-.005-4.257-.006-6.385 2.523-.169 5.05-.028 7.574-.081"/>
        <path fill="#B5B3B3" d="M424.005 138.725l-7.584.006-.035-7.598.041.014 7.671.003-.093 7.575"/>
        <path fill="#707070" d="M393.19 131.161l-.041 7.508-7.566-.008c0-2.132-.008-4.265.004-6.398.006-1.097.023-1.12 1.076-1.124 2.176-.007 4.352.013 6.528.022"/>
        <path fill="#222" d="M292.82 131.064c-1.826.015-3.65.042-5.476.042-5.825-.003-11.65-.015-17.475-.023-.42-.338-.917-.194-1.38-.196-4.681-.014-9.363-.014-14.044-.018v-7.29l.023-.025c12.212.006 24.424.012 36.635.02 1.916.001 1.755-.152 1.752 1.755-.002 1.912-.023 3.823-.035 5.735"/>
        <path fill="#CDCDCC" d="M162.028 38.603c-.012-.07-.03-.136-.057-.2l.106.01c.434-.004.868-.011 1.302-.012l44.808-.011.049.29-.019-.011c-14.962-.004-29.925-.008-44.887-.015-.434 0-.868-.034-1.302-.051"/>
        <path fill="#707070" d="M146.658 115.7l7.688.078.069 7.502-7.807.003c-.026-2.528-.124-5.056.05-7.582"/>
        <path fill="#A29F9F" d="M146.524 38.725c2.333-.02 4.667-.024 7-.068.7-.013.885.306.88.943-.016 2.204.002 4.408.007 6.613l-7.865.055.016-.033-.038-7.51"/>
        <path fill="#040404" d="M108.178 30.784l-.024-7.528-.007-.032 7.827.014h7.613l7.512-.03 7.853.042.008 7.579-7.818.003-7.623.037-7.806-.002-7.535-.083"/>
        <path fill="#707070" d="M161.97 38.402c-2.129.006-4.258.02-6.388.013-1.18-.004-1.187-.019-1.192-1.272-.008-1.739.008-3.477-.006-5.216-.009-1.068-.025-1.083-1.103-1.092-2.216-.018-4.432-.02-6.649-.027l-.107.042.076-7.554 15.395-.019.083 7.583c-.103 2.517-.098 5.035-.002 7.553l-.106-.01z"/>
        <path fill="#161215" d="M131.142 30.832l7.818-.003 7.565.021.107-.042c-.013 2.256-.03 4.511-.035 6.767 0 .526-.04.925-.748.918-4.9-.046-9.802.06-14.702-.099l-.005-7.562"/>
        <path fill="#5D5D5D" d="M115.713 30.867l7.806.001.048 7.533c-2.26.003-4.52.016-6.779.004-1.009-.005-1.027-.028-1.038-1.021-.024-2.172-.026-4.345-.037-6.517"/>
        <path fill="#222" d="M123.567 38.401l-.048-7.533 7.623-.036.005 7.562-7.58.007z"/>
        <path fill="#B5B3B3" d="M146.524 38.725l.038 7.51-7.307.032-.268-.032-.028-7.486 7.565-.024"/>
        <path fill="#161215" d="M216.072 46.208c-.014-2.02-.025-4.04-.045-6.06-.005-.514.061-1.034-.106-1.537l.065-.007.042.05 22.995-.004.013 7.561c-5.088.01-10.177.026-15.265.03-2.566 0-5.132-.022-7.699-.033"/>
        <path fill="#222" d="M239.036 46.211l-.012-7.56.112-.029 7.65.045.047 7.556-.017-.048c-2.593.156-5.186.09-7.78.036M23.322 61.617l-.007-7.515c3.117-.12 6.235-.03 9.353-.024 1.689.004 3.378-.01 5.067.006.92.01.945.032.95.953.014 2.21.001 4.418 0 6.627l-.01.008-15.163-.01c-.059-.035-.122-.05-.19-.045"/>
        <path fill="#707070" d="M23.512 61.662l15.162.01c-.002 2.173.005 4.346-.012 6.52-.008.992-.03 1.012-1.04 1.02-1.826.016-3.652.016-5.477 0-1.036-.008-1.048-.027-1.056-1.138-.012-1.52-.005-3.042-.003-4.563.002-1.737.074-1.59-1.656-1.593-1.564-.002-3.129.009-4.693-.007-.417-.004-.881.145-1.225-.249"/>
        <path fill="#222" d="M146.658 115.7c-.174 2.527-.076 5.055-.05 7.583-2.526.01-5.052.022-7.578.034l-.116-.045c.043-2.505.077-5.01-.018-7.514.019-.258.054-.517.054-.775.005-4.888.006-9.777.007-14.665l7.591-.001c.014 2.054.025 4.108.044 6.162.005.469.042.937.064 1.406-.088 2.605-.09 5.21.002 7.816"/>
        <path fill="#707070" d="M138.957 100.318c-.001 4.888-.002 9.777-.007 14.665 0 .258-.035.517-.054.775l-7.77-.061.019-7.802-.001-7.575.06-.054 7.753.052"/>
        <path fill="#707070" d="M131.15 100.049c.01.074.028.147.053.218l-.06.053-7.577.004c-.073-.027-.148-.035-.225-.026-.416-.342-.911-.198-1.373-.206-2.073-.034-4.145-.048-6.217-.07-.005-2.427-.01-4.854-.013-7.282.012-.086.01-.173-.005-.26l7.785-.046c.017 2.123.032 4.247.051 6.37.012 1.23.016 1.243 1.21 1.247 2.124.008 4.248 0 6.372-.002"/>
        <path fill="#222" d="M138.935 84.95l-.008 7.534-7.757-.025-.004.002-.01-7.548.012-.07c2.117 0 4.235 0 6.352.004.473.001.952-.048 1.415.102"/>
        <path fill="#5D5D5D" d="M131.15 100.049c-2.123.002-4.247.01-6.371.002-1.194-.004-1.198-.017-1.21-1.247-.02-2.123-.034-4.247-.05-6.37l.027.036 7.62-.009.004-.002-.02 7.59"/>
        <path fill="#040404" d="M216.31 123.565l7.31.015-.003 7.28c-.61.006-1.22.018-1.828.018-25.077.003-50.153.004-75.23.005 0-2.043-.007-4.086.003-6.13.006-1.161.019-1.177 1.15-1.182 2.303-.01 4.607-.002 6.911-.002l61.687-.004"/>
        <path fill="#3A3939" d="M139.03 123.317l-.052 7.833.007-.007-7.788.025-.024-7.817 7.741-.079.116.045z"/>
        <path fill="#3A3939" d="M146.548 138.703l-7.549.062-.02-.12.006-7.502-.007.007 7.543-.041.093.09-.066 7.504"/>
        <path fill="#3A3939" d="M146.56 130.883c25.076-.001 50.152-.002 75.229-.005.609 0 1.218-.012 1.828-.018l30.828.009c4.681.004 9.363.004 14.044.018.463.002.96-.143 1.38.196l-.273.08c-.304-.004-.609-.012-.913-.012-35.318-.003-70.636-.006-105.954-.006-2.783 0-5.567.024-8.35.037-2.588-.066-5.177-.102-7.765.017l-.093-.09c.022-.074.035-.149.038-.226"/>
        <path fill="#222" d="M61.92 100.32l7.6-.002.031 7.558c-.073 5.137-.074 10.275.006 15.413l-.08.019-7.596-.038c-.016-2.539.104-5.078-.068-7.615.105-2.592.098-5.184.006-7.776.019-2.042.035-4.084.058-6.126.005-.478.028-.955.044-1.432"/>
        <path fill="#161215" d="M23.234 123.253l.016-7.508c2.61-.06 5.22-.09 7.828.017l.015 7.55-7.86-.06"/>
        <path fill="#4F4E4E" d="M38.658 115.757l7.819.016.035 7.512h-7.838l-.016-7.528"/>
        <path fill="#5D5D5D" d="M61.813 115.655c.172 2.537.052 5.076.068 7.615l.026.02-7.836-.013.017-7.521c2.103-.017 4.207-.03 6.31-.05.472-.005.944-.034 1.415-.051"/>
        <path fill="#707070" d="M54.088 115.756l-.017 7.52-7.559.009-.036-7.512 7.612-.017"/>
        <path fill="#3A3939" d="M38.658 115.757l.016 7.528-7.588.02.007.008-.015-7.551c2.527-.09 5.053-.079 7.58-.005"/>
        <path fill="#222" d="M400.97 123.328l-7.778-.011-.052-7.592c.126-2.61.086-5.222.023-7.834.02-2.036.038-4.071.06-6.107.005-.476.024-.952.037-1.428l7.733-.037.04 7.566c-.014 4.543-.027 9.085-.043 13.627-.002.605-.013 1.21-.02 1.816"/>
        <path fill="#8D8D8D" d="M401.034 107.886l-.04-7.567c2.536-.032 5.074.087 7.61-.062l7.272.009.497.024.018 7.626c-.081-.01-.163-.008-.244.005l-7.54-.005-7.573-.03"/>
        <path fill="#3A3939" d="M400.965 92.425c.003-2.074.003-4.148.013-6.222.002-.43-.065-.866.094-1.284l7.468-.014c.166 2.512.009 5.028.083 7.541l-.04 7.586c-2.168.008-4.336.027-6.504.02-1.043-.004-1.054-.026-1.066-1.124-.023-2.167-.033-4.335-.048-6.503"/>
        <path fill="#4F4E4E" d="M408.583 100.032l.04-7.585 7.737.029-.018 7.549c-.185.022-.349.087-.466.24l-7.272-.008-.02-.225"/>
        <path fill="#3A3939" d="M77.344 77.097l7.547-.054 7.855.016-.028.041c.008 2.169.027 4.337.018 6.505-.004 1.007-.028 1.028-1.022 1.037-1.864.016-3.73-.001-5.594.01-.422.002-.876-.118-1.244.219l-7.559.037.002-.04.025-7.77"/>
        <path fill="#222" d="M69.507 92.479l.03-7.545c2.593-.177 5.188-.057 7.782-.066l-.002.04-.029 7.55-7.7.006-.08.015z"/>
        <path fill="#3A3939" d="M123.58 77.049l7.55.048.038 7.747-.012.07h-7.6l-.019.03c-.24-.46-.679-.301-1.041-.302-2.255-.009-4.509.003-6.763.009l.024-7.526-.028-.067 7.85-.009"/>
        <path fill="#4F4E4E" d="M408.54 84.905l-7.468.014c-.007-.082-.016-.163-.029-.243l.018.012c2.16.006 4.32.022 6.48.013 1.045-.005 1.06-.026 1.068-1.109.017-2.16.014-4.319.02-6.479l-.026-.025c2.608-.088 5.22.084 7.827-.092l-.01.125c0 2.04-.004 4.08 0 6.12.003 1.393.008 1.397 1.455 1.399 2.04.002 4.08-.002 6.12-.003l.006.277h-7.568l-7.893-.009"/>
        <path fill="#5D5D5D" d="M77.288 92.457l.029-7.549 7.56-.037.081.087c-.007 3.55-.01 7.1-.025 10.65-.007 1.558-.041 3.115-.063 4.673l-7.541.038-.276-.027c.009-.074.016-.148.021-.223.28-.218.257-.53.256-.834-.013-2.26-.028-4.518-.042-6.778"/>
        <path fill="#3A3939" d="M77.288 92.457l.042 6.778c.001.303.023.616-.256.834-2.164-.004-4.328.001-6.491-.015-1.06-.008-1.094-.027-1.08-1.106.028-2.16-.117-4.324.083-6.483l7.702-.008"/>
        <path fill="#707070" d="M77.053 100.292l.275.027.029 7.552-7.805.004-.032-7.557 7.533-.026M92.75 69.52l7.582.008-.01 7.543-7.603.03.027-.042.003-7.54M108.142 69.527l7.569-.014.018 7.545.028.067-7.599-.049-.016-7.549"/>
        <path fill="#8D8D8D" d="M208.236 38.68l-.049-.29.082-7.513 7.685-.079.074 7.857-.042-.051-.065.007-7.685.07M100.359 23.28l-.02-.259c2.122-.011 4.242-.019 6.363-.038.474-.004.948-.05 1.422-.077l.043.111c-.016.068-.023.137-.02.207l.007.033-7.795.023"/>
        <path fill="#161215" d="M254.445 130.869l-30.828-.009c0-2.427.002-4.853.003-7.28l30.824-.002v7.29"/>
        <path fill="#5D5D5D" d="M108.142 69.527l.016 7.55-.004-.009-7.827.008-.005-.005.01-7.543h7.81"/>
        <path fill="#8D8D8D" d="M278.481 54.016c-.286-.27-.646-.201-.984-.201-2.547 0-5.094.008-7.641.013l-7.562-.019.016-7.509-.026-.083c.26.011.52.033.78.033 9.712.001 19.425 0 29.139-.003.302 0 .605-.028.908-.043l7.585.037 7.759-.032c.172 2.259.028 4.52.082 6.78.014.622-.26.869-.86.831-.304-.019-.61-.001-.914-.001-6.611-.002-13.222-.007-19.834.002-.463 0-.963-.15-1.382.198l-7.066-.003z"/>
        <path fill="#DFE1E0" d="M339.354 54.078l-14.88-.005c-.002-1.822-.002-3.643-.008-5.464-.002-.475-.049-.938-.14-1.412-.14-.733-.453-.989-1.212-.972-2.34.052-4.683.027-7.025.032l.02-.022-.007-7.532 7.817-.08 7.602.037c.001 2.159-.006 4.318.007 6.476.007 1.078.024 1.098 1.08 1.105 2.245.015 4.49.007 6.735.009l.017-.01-.006 7.838"/>
        <path fill="#A29F9F" d="M285.547 54.02c.42-.349.92-.199 1.382-.2 6.612-.008 13.223-.003 19.834-.001.305 0 .61-.018.913.001.601.038.875-.21.86-.831-.053-2.26.09-4.521-.081-6.78l.077.03c2.525 0 5.051-.002 7.577-.004l-.02.022-.011 7.811c-9.656.001-19.312.003-28.968.002-.521 0-1.042-.033-1.563-.05"/>
        <path fill="#D2D2D1" d="M316.078 54.068l.011-7.811c2.342-.005 4.684.02 7.025-.032.759-.017 1.073.239 1.212.972.091.474.138.937.14 1.412.006 1.821.006 3.642.009 5.464l-8.397-.005"/>
        <path fill="#C2C2C1" d="M416.43 76.996c-2.607.176-5.219.004-7.827.092-.005-2.072-.014-4.145-.013-6.217 0-1.369.007-1.375 1.331-1.38 2.159-.007 4.318-.007 6.477-.01l.032 7.515M454.854 69.48c2.21.004 4.421 0 6.632.013 1.156.007 1.17.02 1.177 1.15.012 2.124.005 4.248.006 6.372-.021.04-.034.083-.036.129-.561-.024-1.122-.063-1.683-.07-2.034-.027-4.068-.043-6.102-.063l.006-7.53"/>
        <path fill="#A29F9F" d="M470.226 77.083l.05 7.532-.03.279-7.565-.055-.048-7.695c.003-.046.015-.089.036-.13l7.557.07"/>
        <path fill="#B5B3B3" d="M339.354 54.078l.006-7.839 7.558-.023c.006 2.159.02 4.318.013 6.476-.004 1.15-.191 1.356-1.36 1.371-2.072.028-4.144.013-6.217.015"/>
        <path fill="#DFE1E0" d="M354.771 38.665c2.202 0 4.403-.013 6.605.005.911.007.958.053.967.955.02 2.202.01 4.403.012 6.604-2.204.004-4.408.019-6.612.005-.912-.007-.958-.052-.965-.958-.018-2.204-.006-4.407-.007-6.611"/>
        <path fill="#A29F9F" d="M408.628 77.113c-.005 2.16-.002 4.32-.019 6.48-.008 1.082-.023 1.103-1.069 1.107-2.16.01-4.32-.006-6.479-.012-.017-2.215-.048-4.43-.046-6.646.002-.917.045-.96.965-.962 2.216-.006 4.432.02 6.648.033M454.854 69.48l-.006 7.531-7.566.028-.03-7.544-.05-.103c2.55.177 5.102.013 7.652.089M416.43 76.996l-.032-7.515.022-.017.263-.038c2.457.038 4.913.11 7.369-.038l-.049.101-.03 7.543.03.044-7.584.045.011-.125z"/>
        <path fill="#707070" d="M346.918 46.216l-7.558.023-.016.01c.003-2.209-.004-4.418.014-6.627.008-.918.033-.941.958-.95 2.21-.02 4.419-.016 6.628-.022h.02l-.046 7.566"/>
        <path fill="#C2C2C1" d="M424.052 69.388c.346-.271.754-.16 1.135-.161 6.961-.007 13.923-.007 20.885 0 .38 0 .789-.112 1.132.166l.047.102-7.834-.005-7.58-.002-7.834.001.049-.1zM416.683 69.426l-.263.038c.072-.123.157-.153.263-.038"/>
        <path fill="#DFE1E0" d="M493.508 84.877c-2.247.008-4.494.026-6.742.02-1.078-.004-1.098-.025-1.105-1.083-.015-2.247-.008-4.495-.01-6.742 2.218-.002 4.438-.011 6.657-.002 1.163.004 1.176.019 1.183 1.15.015 2.22.013 4.438.017 6.657"/>
        <path fill="#C2C2C1" d="M346.944 38.65c-2.21.006-4.419.002-6.628.022-.925.009-.95.032-.958.95-.018 2.21-.011 4.418-.014 6.628-2.246-.002-4.49.006-6.736-.01-1.056-.006-1.073-.025-1.08-1.104-.013-2.159-.006-4.317-.007-6.476 0-.087-.002-.173-.004-.26l-.002-7.535.007-.083 7.822.076c.003 2.089.003 4.177.012 6.265.005 1.262.012 1.27 1.32 1.272 2.087.005 4.175-.001 6.264-.003.014.086.016.172.004.258"/>
        <path fill="#8D8D8D" d="M277.713 22.968c2.521.093 5.043.07 7.565.013 2.296.013 4.593.04 6.889.033.883-.002.912-.044.92-.997.016-1.863.003-3.727.007-5.591 0-.353-.023-.694-.251-.986l.283-.084 7.541.078c.018 2.172.028 4.345.055 6.517.013.994.027 1.014 1.029 1.02 2.26.015 4.52.008 6.78.01l-.007.026c.007.08.008.16.002.239l-7.82.021c-2.564-.112-5.13-.074-7.694-.02l-7.768.037-7.547.021c-.476-.017-.953-.046-1.43-.047-4.646-.018-9.291-.03-13.937-.044-.026-.07-.056-.137-.09-.202l.117-.05 7.57-.026 7.786.032"/>
        <path fill="#CDCDCC" d="M308.531 22.98c-2.26-.001-4.52.006-6.78-.009-1.002-.006-1.016-.026-1.028-1.02-.028-2.172-.038-4.345-.056-6.517l7.852.013.012 7.534"/>
        <path fill="#B5B3B3" d="M323.933 23.272l.03 7.513-.058.107c-2.212-.16-4.427-.028-6.64-.07-1.12-.022-1.126-.02-1.135-1.172-.018-2.127-.027-4.255-.039-6.383l.103-.095c2.107.02 4.214.037 6.321.06.473.004.946.026 1.418.04"/>
        <path fill="#B5B3B3" d="M308.526 23.246c.006-.08.006-.16-.002-.24 2.529-.007 5.057-.016 7.586-.024.02.067.049.13.084.19-.035.031-.07.063-.103.095l-7.581.018.016-.04z"/>
        <path fill="#3A3939" d="M292.843 15.44c.228.292.251.633.25.986-.003 1.864.01 3.728-.006 5.591-.008.953-.037.995-.92.997-2.296.007-4.593-.02-6.89-.033l-.007-7.519 7.573-.022"/>
        <path fill="#A29F9F" d="M331.515 30.865l.002 7.535-7.536.012-.103-.045c.076-2.422.087-4.843-.006-7.265.027-.067.038-.137.033-.21l.058-.107 7.552.08"/>
        <path fill="#5D5D5D" d="M108.147 23.224c-.003-.07.004-.14.02-.207 2.127-.012 4.253-.02 6.379-.037 1.186-.01 1.195-.017 1.199-1.247.006-2.083 0-4.166 0-6.25 2.098-.017 4.196-.03 6.294-.054.513-.006 1.025-.044 1.537-.066l-.006.107-.002 7.516c-2.071.02-4.143.032-6.214.065-.464.007-.956-.132-1.38.187l-7.827-.014"/>
        <path fill="#161215" d="M138.952 23.25l-7.853-.04.048-6.245c.004-.516-.076-1.048.26-1.507l7.563-.083c2.528.077 5.055.076 7.583 0l7.85.013-.04.08c.01.074.007.15-.008.224-4.777-.005-9.554-.016-14.332-.01-1.004.001-1.025.03-1.034 1.03-.017 1.781-.001 3.562-.008 5.343-.002.397.01.782.265 1.115l-.294.08"/>
        <path fill="#3A3939" d="M131.407 15.458c-.336.46-.256.99-.26 1.507l-.048 6.244-7.513.029c-.014-.084-.02-.168-.018-.252l.002-7.516c2.054-.017 4.107-.03 6.16-.05.47-.005.94-.032 1.41-.049l.267.087"/>
        <path fill="#A29F9F" d="M146.553 15.375c-2.527.076-5.055.077-7.583 0l.036-7.507 7.572.006-.025 7.501"/>
        <path fill="#707070" d="M154.379 131.182c2.783-.013 5.567-.037 8.35-.037 35.318 0 70.636.003 105.954.006.304 0 .609.008.913.013l.017 7.513c-.478.016-.956.047-1.434.047-37.488-.002-74.976-.006-112.465-.012-.434 0-.87-.024-1.304-.037l-.031-7.493"/>
        <path fill="#8D8D8D" d="M154.379 131.182l.031 7.493-7.862.028.066-7.504c2.588-.119 5.177-.083 7.765-.017"/>
        <path fill="#222" d="M138.985 131.143l-.005 7.501c-2.613.19-5.229.06-7.843.07l.017.016-.017-7.587.06.025 7.788-.025z"/>
        <path fill="#3A3939" d="M123.324 146.337c-2.161-.013-4.322-.019-6.483-.04-1.074-.012-1.094-.025-1.1-1.087-.01-2.161.003-4.323.006-6.485l-.01-.017c2.611-.035 5.223.087 7.833-.066-.004.045-.005.09-.003.135l.014 7.488-.257.072"/>
        <path fill="#222" d="M123.581 146.265l-.014-7.488 7.587-.047-.017-.017c.01 2.208.03 4.415.022 6.622-.003.915-.031.942-.956.945-2.207.01-4.415-.008-6.622-.015"/>
        <path fill="#3A3939" d="M38.668 131.15l-7.56-.058c-.013-.055-.034-.108-.062-.157.035-.041.071-.081.108-.12l30.76.063c2.207.005 4.413.023 6.62.01.912-.006.956-.05.96-.962.012-2.206-.01-4.412-.017-6.619l.08-.018 7.672.049c.03.475.08.95.083 1.424.014 2.04.013 4.081.018 6.122l-.006.266.009-.009-15.432.035h-7.837l-7.584.012c-2.603-.125-5.208-.056-7.812-.038M84.911 138.71c-2.518.014-5.036.085-7.554-.039l-.024-7.53-.009.01.273-.038 7.338.032-.04 7.581.016-.016z"/>
        <path fill="#3A3939" d="M23.234 123.253l7.86.06-.008-.008c.043 2.503-.083 5.007.068 7.51-.037.039-.073.079-.108.12l-7.78-.074-.019-7.519-.013-.09z"/>
        <path fill="#707070" d="M23.247 123.342l.02 7.519c-2.247.012-4.493.009-6.739.048-.69.012-.89-.28-.885-.925.02-2.203.002-4.407-.002-6.61l7.606-.032z"/>
        <path fill="#3A3939" d="M92.732 138.683l-.006 7.694c-2.163-.012-4.326-.023-6.49-.038-1.322-.008-1.33-.01-1.328-1.381.001-1.99.015-3.98.024-5.971l.243-.227 7.557-.077"/>
        <path fill="#4F4E4E" d="M85.175 138.76l-.243.227-.02-.277-.017.016.28.034"/>
        <path fill="#8D8D8D" d="M462.679 123.327l-7.58.01c-.074-.014-.148-.018-.223-.014l-.069-.019.075-7.603 15.327.044.039 7.566-.02-.019-7.55.035"/>
        <path fill="#3A3939" d="M462.679 123.327l7.55-.034c.005 2.202 0 4.405.02 6.607.009.933.046.98.937.984 2.289.008 4.577-.017 6.866-.03.009.08.01.16.006.24l-12.263.046c-.696.002-1.392.012-2.087-.004-1.016-.022-1.042-.03-1.046-1.024-.01-2.261.01-4.523.017-6.785"/>
        <path fill="#A29F9F" d="M447.22 131.164c-2.588-.07-5.175-.117-7.761.022-.035-.033-.07-.067-.103-.101.024-.07.04-.143.05-.217 2.247 0 4.493.01 6.739-.002 1.076-.006 1.094-.024 1.1-1.08.014-2.16.006-4.32.006-6.48l7.556-.002.069.019c-.03.084-.03.168-.002.252l-.063 7.563-7.591.026"/>
        <path fill="#8D8D8D" d="M447.22 131.164l7.59-.026.019 7.594-7.584-.003-.025-7.565"/>
        <path fill="#707070" d="M454.874 123.575c-.028-.084-.028-.168.002-.252.075-.004.15 0 .223.013l-.225.24"/>
        <path fill="#040404" d="M216.028 38.655l-.074-7.857c.08-2.522.098-5.043-.008-7.565l.113-.242c2.037-.002 4.073 0 6.11-.005 1.446-.003 1.45-.005 1.453-1.396.004-1.69-.01-3.38.005-5.069.009-1.077.026-1.1 1.089-1.105 2.253-.013 4.506-.002 6.759 0-.008 2.262-.026 4.526-.017 6.789.004.997.03 1.018 1.04 1.026 2.177.018 4.353.013 6.529.017l.079 7.535c-.051 2.613-.107 5.227.03 7.84 0 0-.112.028-.113.027l-22.995.005"/>
        <path fill="#DFE1E0" d="M216.06 22.99l-.114.244-7.719.036c-.004-2.21.003-4.42-.019-6.63-.008-.906-.055-.927-.97-.963-.303-.012-.607-.002-.91-.002l-13.52-.01c-.005-.07-.006-.14-.005-.21l7.83-.086c4.535.017 9.07.033 13.604.054.516.003 1.033.037 1.55.057l.171.197c.015 1.968.028 3.937.048 5.906.004.469.035.938.053 1.408"/>
        <path fill="#D2D2D1" d="M262.24 23.012c.034.066.064.133.09.202-.52.014-1.038.04-1.557.04-4.633.001-9.266-.003-13.899-.006l.007.006c-.002-2.165.005-4.331-.01-6.497-.007-1.059-.027-1.08-1.109-1.084-2.208-.007-4.417.008-6.626.014-.048-.074-.062-.154-.044-.24 4.166-.01 8.332-.017 12.498-.029.954-.002 1.908-.018 2.863-.028l-.01.081c.01 2.162.011 4.323.034 6.485.01 1.003.028 1.024 1.018 1.033 2.249.02 4.497.017 6.745.023"/>
        <path fill="#3A3939" d="M239.092 15.447c-.018.086-.004.166.044.24-.068 2.526-.122 5.051.029 7.576-.049.02-.095.015-.138-.015-2.176-.004-4.353.001-6.529-.017-1.01-.008-1.036-.029-1.04-1.026-.01-2.263.01-4.527.017-6.79l7.617.032"/>
        <path fill="#C2C2C1" d="M215.958 15.677l-.172-.197c.077-.038.154-.041.233-.009.01.078-.01.146-.06.206M192.803 15.456c-.001.07 0 .14.004.21l-.016.017c-2.131-.004-4.262-.015-6.393-.007-1.15.004-1.162.02-1.172 1.16-.018 2.13-.023 4.26-.033 6.39l-7.805.022c-.007-.076-.009-.152-.005-.228.002-2.065.006-4.13.006-6.194 0-.474-.037-.951.257-1.368l7.581-.088 7.576.086"/>
        <path fill="#3A3939" d="M277.713 22.968l-7.786-.032-.044-7.512-.01.01c2.618.031 5.237-.084 7.854.062l-.014 7.472M154.355 15.692c.014-.075.017-.15.009-.225l7.605-.058 7.838.002.01.01-.039 7.538c-.07.016-.14.03-.21.043-2.216-.008-4.432-.02-6.649-.022-.334 0-.71-.092-.939.28l.016.017-15.395.019c-.03-.035-.057-.07-.083-.106.385-.287.834-.185 1.26-.187 1.822-.01 3.645.004 5.468-.007 1.108-.007 1.131-.02 1.135-1.056.006-2.083-.016-4.165-.026-6.248"/>
        <path fill="#A29F9F" d="M169.778 22.959l.039-7.538 7.578-.05.251.087c-.294.417-.257.894-.257 1.368 0 2.064-.004 4.129-.006 6.193l-7.605-.06M262.24 23.012c-2.248-.006-4.496-.003-6.745-.023-.99-.01-1.008-.03-1.018-1.033-.023-2.162-.025-4.323-.035-6.485 2.617-.02 5.233-.04 7.849-.062l-.03.044.096 7.51-.117.05z"/>
        <path fill="#707070" d="M262.357 22.963l-.097-7.51 7.623-.029.043 7.512-7.57.027"/>
        <path fill="#222" d="M508.918 115.726l-.067 7.583-7.755.001-.012-7.574.094.027h7.659l.08-.037z"/>
        <path fill="#161215" d="M478.052 130.854c-2.289.013-4.577.038-6.866.03-.891-.004-.928-.051-.937-.984-.02-2.202-.015-4.405-.02-6.607l.019.018 7.804.01.033-.02-.033 7.553z"/>
        <path fill="#B5B3B3" d="M485.652 115.475l.015 7.792-7.582.035-.033.019.04-7.852 7.56.006"/>
        <path fill="#A29F9F" d="M501.084 115.736l.012 7.574-7.628-.05.045-7.55 7.571.026"/>
        <path fill="#C2C2C1" d="M485.652 115.475l-7.56-.006c-.017-.52-.042-1.041-.05-1.562-.024-1.998-.043-3.997-.064-5.995.107-2.518.064-5.036.023-7.554l.102-.304c1.999.001 3.998-.009 5.997.007 1.402.011 1.553.174 1.554 1.594.003 4.607-.001 9.213-.002 13.82"/>
        <path fill="#707070" d="M478.103 100.054l-.102.304-7.766-.046.01.01-.044-7.862.116.024 7.717.063.069 7.507"/>
        <path fill="#B5B3B3" d="M478.034 92.547l-7.717-.063-.07-7.59.028-.279c2.073.012 4.146.017 6.219.037 1.413.014 1.58.176 1.578 1.547-.004 2.116-.024 4.232-.038 6.348"/>
        <path fill="#5D5D5D" d="M501.084 115.736l-7.571-.026c-.105-2.6-.093-5.2-.008-7.801l7.587-.063c.085.012.165.039.241.08-.083.197-.241.395-.24.591.013 2.416-.152 4.833.085 7.246l-.094-.027z"/>
        <path fill="#C2C2C1" d="M501.334 107.925c-.077-.04-.157-.067-.242-.079l-.021-7.529c2.215 0 4.43-.006 6.646.004 1.164.005 1.178.019 1.186 1.145.016 2.129.014 4.257.02 6.385l-.05.089c-.078-.023-.154-.018-.229.014l-7.31-.029"/>
        <path fill="#A29F9F" d="M501.071 100.317l.02 7.53c-2.528.02-5.057.04-7.586.062-.005-2.207-.02-4.414-.007-6.621.005-.921.046-.964.952-.97 2.207-.016 4.414-.003 6.621 0M431.827 138.72l.002-7.537c-.003-.044 0-.088.01-.13 2.505.15 5.01.1 7.517.031.034.035.068.069.103.102l-.026 7.533-7.606.001"/>
        <path fill="#707070" d="M424.098 131.15l-7.67-.003c-.001-2.04 0-4.081-.003-6.122-.003-1.448-.006-1.452-1.4-1.456-1.65-.004-3.3.007-4.95-.007-.418-.003-.879.138-1.23-.24l7.589-.051 7.561.05-.007-.006.045 6.266c.009 1.324.01 1.33 1.384 1.33 2.045 0 4.091-.007 6.137-.012.018.074.032.148.044.222l-7.5.029"/>
        <path fill="#B5B3B3" d="M431.598 131.121c-.012-.074-.026-.148-.044-.222l.284.153c-.009.043-.012.087-.009.131-.074-.03-.151-.05-.23-.062"/>
        <path fill="#3A3939" d="M501.334 107.925l7.31.03.178.202.015 7.605h-7.66c-.236-2.411-.071-4.83-.084-7.245-.002-.197.156-.394.24-.592"/>
        <path fill="#4F4E4E" d="M508.822 108.157l-.178-.203c.075-.033.151-.037.229-.014.01.078-.007.15-.05.217M115.747 138.725l-7.573-.014-.05.01.045-7.562 7.564-.015.005 7.564.01.017z"/>
        <path fill="#8D8D8D" d="M108.17 131.16l-.046 7.56-7.76-.029-.048-7.54s.004-.115.005-.114c2.584.156 5.168.118 7.753.022l.095.1"/>
        <path fill="#A29F9F" d="M85.175 138.76l-.28-.034.04-7.58 7.81.003-.015-.015.002 7.549-7.557.077M100.316 131.15l-7.585-.016.015.015.024-.283c2.1.003 4.199.002 6.298.015.42.002.86-.102 1.252.155l-.004.115z"/>
        <path fill="#DFE1E0" d="M262.31 46.3l-7.851-.076-.007-7.558c2.262 0 4.524-.012 6.787.002 1.016.007 1.04.03 1.047 1.023.014 2.175 0 4.35-.002 6.525l.026.084z"/>
        <path fill="#D2D2D1" d="M254.451 38.666l.008 7.558-7.626-.001-.047-7.556.073.018.074-.012 7.518-.007"/>
        <path fill="#C2C2C1" d="M262.294 53.81l7.562.018.021.235-15.179-.022c.368-.334.82-.21 1.24-.213 2.119-.015 4.237-.014 6.356-.019"/>
        <path fill="#B5B3B3" d="M416.39 107.916l-.017-7.626.03.007c2.17.004 4.34 0 6.51.018 1.063.008 1.08.027 1.089 1.108.014 1.65.002 3.299.004 4.948.002 1.517.003 1.52 1.46 1.523 2.126.004 4.252.004 6.379.006-.005 2.196-.007 4.392-.02 6.588-.002.437.013.861.293 1.228-.408.332-.27.796-.272 1.213-.01 2.124-.003 4.249-.001 6.374l-7.857.012.007.005c.003-2.16.015-4.32.004-6.48-.005-1.078-.026-1.102-1.082-1.107-2.16-.01-4.32.005-6.48.01l-.058-.063c0-.082-.012-.163-.038-.242.111-2.423.06-4.846.028-7.27.04-.081.047-.165.022-.252M416.434 123.27l-7.589.052-.224-.073c-.003-2.206.01-4.412-.02-6.616-.008-.671.238-.907.906-.904 2.29.008 4.581-.029 6.872-.048l.057.061-.002 7.529"/>
        <path fill="#4F4E4E" d="M416.37 108.168c.03 2.424.082 4.847-.029 7.27-2.251.011-4.502.035-6.753.028-.97-.002-.996-.035-1-1.056-.008-2.165.01-4.33.019-6.495l7.54.006.222.247"/>
        <path fill="#EAEFEE" d="M177.388 23.248l7.805-.021c2.163.008 4.326.026 6.489.019 1.1-.003 1.113-.023 1.117-1.205.006-2.119-.005-4.239-.008-6.358l.016-.017 13.52.009c.304 0 .608-.01.91.002.916.036.963.057.971.963.022 2.21.015 4.42.02 6.63l.04 7.607-.08 7.513-44.81.011c-.433 0-.867.008-1.301.012-.096-2.518-.1-5.036.002-7.553 2.206-.01 4.413-.012 6.62-.032 1.078-.01 1.093-.024 1.104-1.084.023-2.163.028-4.326.041-6.49l7.544-.006z"/>
        <path fill="#3A3939" d="M138.952 23.25l.294-.08c2.424.008 4.848.014 7.272.02.026.037.053.072.083.106l-.076 7.554-7.565-.021-.008-7.579"/>
        <path fill="#161215" d="M123.568 22.986c-.002.084.004.168.018.252h-7.612c.424-.319.916-.18 1.38-.187 2.071-.033 4.143-.046 6.214-.065"/>
        <path fill="#CDCDCC" d="M169.844 23.255c-.013 2.163-.018 4.326-.04 6.489-.012 1.06-.027 1.074-1.106 1.084-2.206.02-4.413.022-6.62.032l-.082-7.583-.016-.016 7.534-.022.33.016"/>
        <path fill="#707070" d="M239.135 38.622c-.137-2.612-.08-5.226-.03-7.84.6.024 1.2.06 1.8.069 1.972.027 3.945.044 5.918.065.002.906-.013 1.813.01 2.718.042 1.68-.121 3.364.1 5.04l-.074.011-.073-.018-7.65-.045"/>
        <path fill="#8D8D8D" d="M138.914 123.272l-7.741.08-7.605-.046.004-7.577.266-.02 7.288-.012 7.77.061c.095 2.504.06 5.01.018 7.514"/>
        <path fill="#5D5D5D" d="M131.126 115.697l-7.288.012-.264-.239-.018-7.583.019.014 7.57-.006-.019 7.802"/>
        <path fill="#A29F9F" d="M131.145 107.895l-7.57.006-.009-7.577 7.578-.004.001 7.575z"/>
        <path fill="#B5B3B3" d="M115.733 92.481c.016.086.017.173.005.26-2.203 0-4.406-.012-6.608.005-.914.007-.963.054-.97.955-.018 2.202-.005 4.405-.004 6.608l.01 7.574-.045.047-7.773-.01c-.01-2.164-.011-4.328-.031-6.492-.01-1.081-.025-1.102-1.084-1.108-2.164-.013-4.328-.002-6.492 0l-.002-7.82c2.22 0 4.439.007 6.658-.006.938-.005.963-.025.966-.924.007-2.219-.012-4.438-.02-6.657l.087.04c2.54-.081 5.08-.08 7.62 0l.085-.04c-.01 2.176-.03 4.351-.028 6.527.001 1.027.02 1.037 1.109 1.042 2.176.009 4.352.006 6.528.008l-.011-.009z"/>
        <path fill="#C2C2C1" d="M123.566 100.324l.009 7.577-.02-.014-7.825.007.006-7.58 7.605-.016c.077-.01.152 0 .225.026M123.518 92.434l-7.785.047.01.01.024-7.57.045.04c2.575-.111 5.15-.076 7.725-.016l.02-.03-.011 7.555-.028-.036z"/>
        <path fill="#C2C2C1" d="M108.156 100.309c0-2.203-.014-4.406.004-6.608.007-.9.056-.948.97-.955 2.202-.017 4.405-.006 6.608-.006l.012 7.283-.014.292v-.001l-7.58-.005"/>
        <path fill="#B5B3B3" d="M115.736 100.315l.014-.292c2.073.021 4.145.035 6.217.069.463.008.958-.136 1.374.206l-7.605.017"/>
        <path fill="#4F4E4E" d="M123.546 92.47l.01-7.555 7.6-.002.01 7.548-7.62.009"/>
        <path fill="#5D5D5D" d="M123.568 123.306l7.605.045.024 7.817-.06-.025-7.569.003c-.042-.013-.086-.019-.13-.016.03-.476.078-.952.083-1.428.022-2.132.033-4.264.047-6.396M77.229 123.338l-7.672-.05c-.08-5.137-.079-10.275-.006-15.412l7.806-.005-.03.05c0 2.171-.01 4.342.004 6.512.007.997.03 1.019 1.033 1.025 2.17.013 4.34.001 6.511 0 .018.086.011.171-.02.254-2.162 0-4.323-.008-6.485.005-1.038.006-1.068.025-1.07.976-.006 2.204.021 4.408.035 6.612l-.106.033z"/>
        <path fill="#161215" d="M69.477 123.307c.008 2.207.029 4.413.018 6.62-.004.911-.05.955-.962.96-2.206.014-4.412-.004-6.619-.009l-.007-7.588-.026-.02 7.596.037"/>
        <path fill="#040404" d="M61.907 123.29l.007 7.588-30.76-.063c-.15-2.503-.025-5.007-.068-7.51l7.588-.02h7.838l7.56-.008 7.835.013"/>
        <path fill="#707070" d="M415.876 100.266c.117-.154.28-.22.466-.24l.06.27-.029-.006-.497-.024M416.37 108.168l-.222-.247c.08-.013.162-.015.243-.005.025.087.018.171-.022.252M408.54 84.905l7.893.008.01 7.58-.083-.017-7.737-.03c-.074-2.513.083-5.029-.083-7.54"/>
        <path fill="#A29F9F" d="M416.402 100.297l-.06-.272c.006-2.516.013-5.033.018-7.55l.082.017 7.632-.059 7.72.008c-.302.477-.783.284-1.19.289-1.87.02-3.742-.004-5.613.014-.93.01-.974.05-.984.953-.02 1.784-.019 3.568-.001 5.352.01.973.039.999 1.062 1.007 1.915.015 3.83-.007 5.744.01.993.009 1.018.034 1.025 1.046.015 2.263.006 4.526.007 6.788h.001c-2.127-.002-4.253-.002-6.38-.006-1.456-.003-1.457-.006-1.459-1.523-.002-1.65.01-3.299-.004-4.948-.01-1.08-.026-1.1-1.09-1.108-2.17-.018-4.34-.014-6.51-.018"/>
        <path fill="#5D5D5D" d="M92.718 77.1l7.604-.029.005.005c.003.56 0 1.12.012 1.68.047 2.066-.11 4.134.091 6.198l-.087-.04c-2.56 0-5.121 0-7.682.002l-7.703.041-.081-.086c.367-.337.82-.217 1.243-.22 1.864-.01 3.73.007 5.594-.01.994-.008 1.018-.029 1.022-1.036.009-2.168-.01-4.336-.018-6.505"/>
        <path fill="#4F4E4E" d="M108.158 77.076l7.599.049-.024 7.526.079.31-.045-.04-7.632-.008-.086.04c.03-.472.082-.944.085-1.416.014-2.156.014-4.312.02-6.469l.004.008z"/>
        <path fill="#707070" d="M115.812 84.962l-.079-.311c2.254-.006 4.508-.018 6.763-.01.363.002.8-.157 1.041.304-2.575-.06-5.15-.095-7.725.017"/>
        <path fill="#5D5D5D" d="M424.001 84.915l-.005-.278.007-7.56-.03-.045 7.867.036-.002-.002c-.042 2.623.1 5.248-.08 7.87-2.578-.01-5.157-.02-7.735-.032l-.022.01z"/>
        <path fill="#8D8D8D" d="M424.074 92.433l-7.632.059-.01-7.578h7.57l.02-.01.052 7.53"/>
        <path fill="#3A3939" d="M424.003 77.076l-.007 7.561c-2.04.001-4.08.005-6.121.002-1.447-.001-1.452-.005-1.455-1.398-.004-2.04 0-4.08 0-6.12l7.583-.045"/>
        <path fill="#A29F9F" d="M84.958 84.958l7.704-.042.077 7.585.002 7.819.002-.003-7.81.029-.063-.065c.022-1.558.056-3.115.063-4.673.016-3.55.018-7.1.025-10.65"/>
        <path fill="#A29F9F" d="M77.357 107.87l-.029-7.551 7.542-.038.062.065-.035 7.564-7.57.012.03-.051z"/>
        <path fill="#C2C2C1" d="M208.269 30.877l-.042-7.607 7.718-.037c.107 2.522.088 5.043.009 7.565l-7.685.079"/>
        <path fill="#8D8D8D" d="M108.154 77.068c-.006 2.157-.006 4.313-.02 6.47-.003.471-.055.943-.085 1.414-2.54-.078-5.08-.08-7.62.001-.2-2.063-.042-4.131-.09-6.197-.012-.56-.009-1.12-.012-1.68l7.827-.008"/>
        <path fill="#EAEFEE" d="M246.933 38.673c-.221-1.675-.058-3.36-.1-5.039-.023-.905-.008-1.812-.01-2.718l.051-7.668c4.633.003 9.266.007 13.9.007.518 0 1.037-.027 1.556-.041 4.646.014 9.291.026 13.937.044.477.001.954.03 1.43.047.003 2.16-.004 4.32.013 6.48.008 1.005.03 1.031 1.02 1.035 2.202.007 4.405-.015 6.608-.025l7.788.016 7.578-.012-.014.063.035 7.832-.025-.026c-2.087-.001-4.174-.007-6.26-.002-1.307.003-1.315.01-1.32 1.276-.01 2.088-.007 4.175-.01 6.262-.302.015-.605.043-.908.043-9.713.004-19.425.004-29.139.003-.26 0-.519-.022-.779-.033.002-2.176.016-4.351.002-6.526-.007-.993-.031-1.016-1.047-1.023-2.263-.014-4.525-.003-6.787-.002l-7.52.007"/>
        <path fill="#707070" d="M308.455 46.21l-7.76.03.005-7.572.025.026c.074-.012.147-.025.22-.04l7.548.006.039 7.58-.077-.03z"/>
        <path fill="#DFE1E0" d="M300.7 38.668l-.004 7.572-7.585-.036c.002-2.087 0-4.174.009-6.262.005-1.266.013-1.273 1.32-1.276 2.086-.005 4.173 0 6.26.002"/>
        <path fill="#EAEFEE" d="M308.532 46.24l-.038-7.58 7.608.043.007 7.532-7.577.005"/>
        <path fill="#8D8D8D" d="M316.102 38.703l-7.608-.043-7.548-.005c.348-.38.808-.234 1.223-.237 2.117-.017 4.234-.013 6.35-.016l7.599-.034 7.76-.001.102.045c-.027.068-.048.139-.06.212l-7.818.08"/>
        <path fill="#B5B3B3" d="M323.92 38.624c.012-.073.033-.144.06-.212l7.537-.012.004.26-7.602-.036"/>
        <path fill="#4F4E4E" d="M447.256 80.982c0 .955.012 1.91-.004 2.864-.01.541.205.79.765.785 2.039-.014 4.078-.01 6.117-.005.495.001.697-.238.696-.718-.007-1.953-.006-3.905-.002-5.858.002-.477-.204-.721-.697-.72-2.039.003-4.078.007-6.117-.006-.564-.003-.77.26-.761.795.014.954.004 1.909.003 2.863m.026-3.943l7.566-.028c2.034.02 4.068.036 6.102.062.56.008 1.122.047 1.683.07l.048 7.696-.01 7.637-.044.044c-2.604-.015-5.21-.028-7.814-.042.011-2.246.004-4.492.047-6.737.013-.688-.254-.892-.908-.882-2.246.035-4.492.03-6.737.04l-7.7.039c-.032-.428-.092-.855-.094-1.283-.008-2.197 0-4.394.001-6.59l-.002.01 7.862-.036"/>
        <path fill="#3A3939" d="M462.67 92.476l.011-7.637 7.565.055.071 7.59-.116-.024-7.53.016"/>
        <path fill="#707070" d="M447.282 77.04l-7.862.035-.004-7.585 7.835.005.03 7.544M431.84 77.068l-7.868-.036.031-7.543h7.835l.002 7.58"/>
        <path fill="#5D5D5D" d="M431.84 77.068l-.002-7.58 7.579.002.003 7.585.002-.01h-7.584l.002.003z"/>
        <path fill="#161215" d="M300.706 23.267l7.82-.021-.017.039.018 7.569-7.837.008.014-.063.002-7.532"/>
        <path fill="#A29F9F" d="M293.126 30.811l-7.789-.015-.093-7.512 7.768-.038c.027.477.07.953.075 1.43.02 2.045.027 4.09.04 6.135"/>
        <path fill="#4F4E4E" d="M293.126 30.811c-.012-2.045-.02-4.09-.039-6.136-.004-.476-.048-.952-.075-1.429 2.565-.053 5.13-.091 7.694.021l-.002 7.532-7.578.012"/>
        <path fill="#DFE1E0" d="M285.244 23.284l.093 7.512c-2.202.01-4.405.031-6.607.024-.99-.004-1.012-.03-1.02-1.036-.017-2.16-.01-4.32-.013-6.479l7.547-.021"/>
        <path fill="#5D5D5D" d="M308.527 30.854l-.018-7.57c2.528-.005 5.055-.01 7.582-.017.012 2.128.021 4.256.039 6.384.009 1.151.016 1.15 1.134 1.17 2.214.043 4.429-.09 6.64.071.006.073-.005.143-.032.21-2.206-.006-4.412-.02-6.618-.013-1.125.004-1.14.021-1.143 1.179-.008 2.033.003 4.067.007 6.1l-7.598.034.007-7.548"/>
        <path fill="#4F4E4E" d="M316.118 38.368c-.004-2.033-.015-4.067-.008-6.1.005-1.158.02-1.175 1.144-1.179 2.206-.007 4.412.007 6.618.013.093 2.422.082 4.843.006 7.265h-7.76"/>
        <path fill="#040404" d="M146.517 23.19l-7.271-.02c-.255-.333-.266-.718-.265-1.115.007-1.781-.009-3.562.008-5.343.01-1 .03-1.028 1.034-1.03 4.778-.006 9.555.005 14.332.01.01 2.083.032 4.165.026 6.248-.004 1.035-.027 1.049-1.135 1.056-1.823.01-3.646-.003-5.469.007-.425.002-.874-.1-1.26.187"/>
        <path fill="#707070" d="M123.568 131.146l7.57-.003.016 7.587-7.587.047c-.002-.045-.001-.09.003-.134l-.002-7.497"/>
        <path fill="#8D8D8D" d="M123.568 131.146l.002 7.497c-2.61.152-5.222.03-7.832.065l-.006-7.564.052-.076 7.654.062c.044-.003.088.003.13.016"/>
        <path fill="#707070" d="M92.77 130.866l-.024.283-7.811-.003-7.338-.032-.267-.23c-.005-2.04-.004-4.081-.018-6.122-.003-.475-.053-.95-.083-1.424l.106-.033 7.59-.03c.083.014.163.038.24.071-.223.342-.267.72-.265 1.12.01 1.78-.007 3.561.009 5.342.009 1.048.027 1.062 1.125 1.07 2.215.016 4.43.014 6.644.02l.092-.032z"/>
        <path fill="#5D5D5D" d="M77.33 130.884l.267.23-.273.036.006-.266"/>
        <path fill="#B5B3B3" d="M454.807 123.304l-7.556.002.003.004c-.001-2.163.007-4.326-.008-6.49-.007-1.062-.028-1.08-1.102-1.088-2.336-.016-4.672-.012-7.008-.017.239-.328.293-.698.29-1.097-.017-2.234-.023-4.467-.032-6.701l.04-.042 7.808.02 7.584-.002.064.276.015 7.271-.023.26-.075 7.604"/>
        <path fill="#222" d="M477.978 107.912c.021 1.998.04 3.997.065 5.995.006.521.032 1.041.05 1.562l-.04 7.851-7.805-.01-.038-7.565.09-7.827 7.678-.006"/>
        <path fill="#707070" d="M470.3 107.918l-.09 7.827-15.328-.044.023-.26c2.262.012 4.525.038 6.787.031.919-.002.966-.051.972-.963.016-2.219 0-4.438-.003-6.657l-.038-7.491.07-.069 7.553.03-.01-.01.064 7.606"/>
        <path fill="#C2C2C1" d="M423.988 123.315l7.857-.012 7.562.017v7.548c-.01.074-.027.147-.05.217-2.507.067-5.013.119-7.519-.032l-.283-.154c-2.047.005-4.092.013-6.138.012-1.375 0-1.375-.006-1.384-1.33l-.045-6.266"/>
        <path fill="#B5B3B3" d="M439.406 130.868l.001-7.548 7.847-.01-.003-.004c0 2.16.008 4.32-.005 6.48-.007 1.056-.025 1.074-1.101 1.08-2.246.011-4.493.003-6.739.002"/>
        <path fill="#D2D2D1" d="M246.874 23.248l-.05 7.668c-1.974-.021-3.947-.038-5.92-.065-.6-.009-1.199-.045-1.798-.068l-.079-7.535c.043.03.09.035.138.015l7.716-.009-.007-.006z"/>
        <path fill="#EAEFEE" d="M246.88 23.254l-7.715.009c-.15-2.525-.097-5.05-.03-7.576 2.21-.006 4.418-.021 6.627-.014 1.082.004 1.102.025 1.109 1.084.015 2.166.008 4.332.01 6.497"/>
        <path fill="#DFE1E0" d="M192.79 15.683c.004 2.12.015 4.239.009 6.358-.004 1.182-.018 1.202-1.117 1.205-2.163.007-4.326-.011-6.489-.019.01-2.13.015-4.261.033-6.392.01-1.14.021-1.155 1.172-1.159 2.131-.008 4.262.003 6.393.007M169.844 23.255l-.33-.016c.017-.08.035-.158.054-.237.07-.013.14-.027.21-.043l7.605.06c-.004.077-.002.153.005.229l-7.544.007"/>
        <path fill="#5D5D5D" d="M169.568 23.002c-.02.079-.037.158-.054.237l-7.534.022c.23-.373.606-.28.94-.28 2.216.001 4.432.013 6.648.021"/>
        <path fill="#3A3939" d="M470.3 107.918l-.064-7.606 7.765.046c.04 2.518.084 5.036-.023 7.554l-7.678.006"/>
        <path fill="#4F4E4E" d="M470.246 100.322l-7.553-.03-.066-7.772.044-.044 7.53-.016.045 7.862"/>
        <path fill="#C2C2C1" d="M416.434 123.27l.002-7.528c2.16-.004 4.321-.019 6.481-.009 1.056.005 1.077.029 1.082 1.106.01 2.16-.001 4.321-.004 6.481l-7.561-.05"/>
        <path fill="#8D8D8D" d="M115.732 131.144l-7.563.015-.095-.1c.033-.061.057-.127.072-.196 2.082.004 4.165.003 6.247.018.467.004.96-.114 1.39.187l-.05.076z"/>
        <path fill="#C2C2C1" d="M108.146 130.863c-.015.069-.038.134-.072.196-2.585.096-5.17.134-7.753-.022-.392-.258-.833-.154-1.253-.156-2.1-.013-4.199-.012-6.298-.015l-.091.032-.016-7.328c.042-.076.062-.158.062-.244l.015-.016 7.587-.01 7.824.014-.005 7.549"/>
        <path fill="#A29F9F" d="M447.254 123.31l-7.847.01-7.562-.017c-.002-2.125-.01-4.25 0-6.374.003-.417-.135-.881.272-1.213h7.02c2.335.004 4.671 0 7.007.016 1.074.007 1.095.026 1.102 1.089.015 2.163.007 4.326.008 6.489"/>
        <path fill="#DFE1E0" d="M439.136 115.715h-7.019c-.279-.366-.294-.79-.291-1.227.012-2.196.014-4.392.019-6.588l7.55.017c.008 2.233.014 4.467.031 6.701.003.399-.051.769-.29 1.097"/>
        <path fill="#B5B3B3" d="M108.146 130.863l.005-7.549c2.127-.003 4.253.001 6.38-.01 1.171-.007 1.185-.019 1.193-1.135.012-1.779.013-3.558-.001-5.337-.008-1.07-.025-1.083-1.101-1.095-2.17-.022-4.338-.029-6.508-.042l.007-7.765.046-.047 7.563.011 7.826-.007.018 7.583c-.018.086-.018.173-.001.26l-.005 7.576c-.015 2.132-.025 4.264-.047 6.396-.005.476-.053.952-.082 1.428l-7.655-.062c-.431-.3-.924-.183-1.391-.187-2.082-.015-4.165-.014-6.247-.018"/>
        <path fill="#707070" d="M123.573 115.73c-.017-.087-.017-.174 0-.26l.265.239-.265.02"/>
        <path fill="#DFE1E0" d="M108.12 107.93l-.005 7.765c-2.595-.01-5.19-.022-7.784-.034l.011-7.742h.007l7.772.01"/>
        <path fill="#A29F9F" d="M115.73 107.894l-7.563-.01-.011-7.575 7.58.005-.006 7.58M92.74 100.32c2.165-.002 4.33-.013 6.493 0 1.058.006 1.074.027 1.084 1.108.02 2.164.022 4.327.031 6.492h-.006c-2.164-.008-4.327-.007-6.491-.025-1.078-.01-1.099-.026-1.105-1.086-.013-2.164-.003-4.328-.002-6.492l-.003.003z"/>
        <path fill="#3A3939" d="M92.74 92.5l-.078-7.584 7.68-.003c.01 2.219.028 4.438.02 6.657-.002.9-.028.919-.965.924-2.22.013-4.439.006-6.658.007M108.135 84.913l7.632.008-.024 7.569c-2.175-.002-4.351.001-6.527-.008-1.09-.005-1.108-.015-1.108-1.042-.003-2.176.017-4.351.027-6.527"/>
        <path fill="#B5B3B3" d="M92.743 100.317c0 2.164-.01 4.328.003 6.491.007 1.061.027 1.078 1.105 1.087 2.164.018 4.327.017 6.491.024l-.011 7.743-.004 7.638-7.587.01c0-2.128.008-4.255-.002-6.383-.005-1.173-.018-1.19-1.135-1.194-2.215-.008-4.43.006-6.644.01l-.104-.031c.031-.083.038-.168.02-.254.112-2.516.07-5.032.022-7.548l.035-7.564 7.811-.029"/>
        <path fill="#3A3939" d="M84.897 107.91c.048 2.516.09 5.032-.022 7.548-2.17.001-4.341.013-6.512 0-1.003-.006-1.025-.028-1.032-1.025-.015-2.17-.005-4.34-.005-6.511l7.57-.012"/>
        <path fill="#A29F9F" d="M84.926 123.274l-7.591.031c-.014-2.204-.04-4.408-.035-6.612.002-.951.032-.97 1.07-.976 2.161-.013 4.323-.005 6.485-.005l.103.032c-.112 2.51-.053 5.02-.032 7.53"/>
        <path fill="#B5B3B3" d="M439.394 107.917l-7.55-.017c0-2.262.008-4.525-.007-6.788-.007-1.012-.032-1.037-1.025-1.046-1.914-.017-3.83.005-5.744-.01-1.023-.008-1.053-.034-1.062-1.007-.018-1.784-.019-3.568 0-5.352.01-.902.056-.944.985-.953 1.871-.018 3.743.006 5.613-.014.407-.005.888.188 1.19-.289l.003.004 7.687-.001 7.494.051c.004.082.01.163.019.244-2.203 0-4.406-.012-6.609.006-.912.007-.962.055-.969.955-.017 2.203-.004 4.406-.004 6.609l.02 7.566-.04.042z"/>
        <path fill="#3A3939" d="M424.074 92.433l-.052-7.529 7.737.032.078-.03-.04 7.54-.003-.005-7.72-.008"/>
        <path fill="#8D8D8D" d="M431.838 77.066l7.584-.001c-.002 2.196-.009 4.393 0 6.59 0 .428.06.855.093 1.283l-.106-.035-7.572.003-.078.03c.179-2.621.037-5.247.079-7.87"/>
        <path fill="#C2C2C1" d="M308.527 30.854l-.007 7.548c-2.117.003-4.234 0-6.351.016-.415.003-.875-.142-1.223.237l-.22.039c-.013-2.61-.024-5.222-.036-7.832l7.837-.008"/>
        <path fill="#707070" d="M446.997 92.739c-.009-.081-.015-.162-.02-.243l.276-.016 7.56-.002c2.605.014 5.21.027 7.814.042l.066 7.772-.07.068-7.795-.039.013-.023c-.003-.083-.007-.165-.012-.248 0-2.04.008-4.08-.002-6.119-.006-1.166-.018-1.183-1.141-1.187-2.17-.006-4.34.01-6.509.016-.061.005-.121-.002-.18-.021"/>
        <path fill="#3A3939" d="M447.253 92.48l-.275.015-7.494-.051-.075-7.541.107.035 7.699-.04.038 7.582z"/>
        <path fill="#C2C2C1" d="M447.253 92.48l-.038-7.582c2.245-.01 4.492-.004 6.737-.039.654-.01.92.194.908.882-.043 2.245-.035 4.491-.047 6.737l-7.56.002"/>
        <path fill="#3A3939" d="M447.256 80.982c0-.954.01-1.91-.003-2.863-.009-.536.197-.798.76-.795 2.04.013 4.08.009 6.118.005.493 0 .699.244.697.721-.004 1.953-.005 3.905.002 5.858.001.48-.201.719-.696.718-2.039-.005-4.078-.009-6.117.005-.56.004-.775-.244-.765-.785.016-.955.004-1.91.004-2.864"/>
        <path fill="#C2C2C1" d="M84.926 123.274c-.02-2.51-.08-5.02.032-7.53 2.216-.005 4.43-.02 6.644-.011 1.118.003 1.13.021 1.136 1.194.01 2.128.002 4.255.002 6.383l-.015.015c-.085-.002-.166.012-.245.042l-7.315-.02c-.077-.034-.157-.058-.24-.073"/>
        <path fill="#5D5D5D" d="M85.165 123.346l7.315.021.183.203.016 7.328c-2.215-.006-4.43-.004-6.645-.02-1.098-.008-1.116-.022-1.125-1.07-.016-1.78 0-3.561-.009-5.342-.002-.4.042-.778.265-1.12"/>
        <path fill="#A29F9F" d="M439.435 107.875l-.02-7.566 7.842.012-.015 7.573-7.807-.02"/>
        <path fill="#4F4E4E" d="M462.661 107.851c.003 2.22.019 4.439.003 6.658-.006.912-.053.96-.972.963-2.262.007-4.525-.019-6.787-.032l-.015-7.271.217-.244 7.554-.074"/>
        <path fill="#CDCDCC" d="M447.242 107.894l.015-7.573-.009.008 7.593-.03-.013.022.015 7.586-.017-.014-7.584.001z"/>
        <path fill="#707070" d="M455.107 107.925l-.217.244-.064-.276.017.014.264.018"/>
        <path fill="#A29F9F" d="M455.107 107.925l-.264-.018-.015-7.586 7.795.04.038 7.49-7.554.074M100.327 123.3l.004-7.638 7.784.033c2.169.013 4.338.02 6.507.043 1.076.01 1.093.025 1.101 1.094.014 1.779.013 3.558 0 5.338-.007 1.116-.021 1.127-1.192 1.133-2.127.012-4.253.008-6.38.01l-7.824-.013"/>
        <path fill="#707070" d="M92.663 123.57l-.183-.203c.079-.03.16-.044.245-.042 0 .087-.02.169-.062.245"/>
        <path fill="#C2C2C1" d="M447.257 100.32l-7.842-.011c0-2.203-.013-4.406.004-6.609.007-.9.057-.948.97-.955 2.202-.018 4.405-.006 6.608-.006.059.02.119.026.18.02l.083 7.292-.012.278.009-.008z"/>
        <path fill="#A29F9F" d="M439.409 84.903l.075 7.54-7.687.002.04-7.54 7.572-.002"/>
        <path fill="#5D5D5D" d="M447.26 100.05l-.083-7.29c2.17-.007 4.34-.022 6.509-.016 1.123.004 1.135.021 1.141 1.187.01 2.04.002 4.08.002 6.119h-7.569"/>
        <path fill="#8D8D8D" d="M447.26 100.05h7.569l.012.248-7.593.03.012-.277z"/>
    </g>
</svg>
