<svg xmlns="http://www.w3.org/2000/svg" width="55" height="55" viewBox="0 0 55 55">
    <g fill="none" fill-rule="evenodd">
        <path fill="#A67C4C" d="M52.067 28.927L53.991 28.927 53.991 26.996 52.067 26.996zM52.067 26.995L53.991 26.995 53.991 25.071 52.067 25.071zM50.136 30.852L52.067 30.852 52.067 28.927 50.136 28.927zM50.136 28.927L52.067 28.927 52.067 26.996 50.136 26.996z" transform="translate(.98 .288)"/>
        <path fill="#C7955B" d="M50.136 26.996L52.067 26.996 52.067 25.071 50.136 25.071zM50.136 25.071L52.067 25.071 52.067 23.14 50.136 23.14z" transform="translate(.98 .288)"/>
        <path fill="#A67C4C" d="M48.21 34.713L50.136 34.713 50.136 32.782 48.21 32.782zM48.21 32.782L50.136 32.782 50.136 30.852 48.21 30.852zM48.21 30.852L50.136 30.852 50.136 28.927 48.21 28.927z" transform="translate(.98 .288)"/>
        <path fill="#6964CC" d="M48.21 28.927L50.136 28.927 50.136 26.996 48.21 26.996zM48.21 26.996L50.136 26.996 50.136 25.071 48.21 25.071zM48.21 25.071L50.136 25.071 50.136 23.14 48.21 23.14z" transform="translate(.98 .288)"/>
        <path fill="#C7955B" d="M48.21 23.14L50.136 23.14 50.136 21.215 48.21 21.215zM48.21 21.215L50.136 21.215 50.136 19.285 48.21 19.285z" transform="translate(.98 .288)"/>
        <path fill="#A67C4C" d="M46.28 36.638L48.21 36.638 48.21 34.713 46.28 34.713zM46.28 34.713L48.21 34.713 48.21 32.782 46.28 32.782zM46.28 32.782L48.21 32.782 48.21 30.852 46.28 30.852zM46.28 30.852L48.21 30.852 48.21 28.927 46.28 28.927z" transform="translate(.98 .288)"/>
        <path fill="#6964CC" d="M46.28 28.927L48.21 28.927 48.21 26.996 46.28 26.996zM46.28 26.996L48.21 26.996 48.21 25.071 46.28 25.071z" transform="translate(.98 .288)"/>
        <path fill="#FFF" d="M46.28 25.071L48.21 25.071 48.21 23.14 46.28 23.14z" transform="translate(.98 .288)"/>
        <path fill="#6964CC" d="M46.28 23.14L48.21 23.14 48.21 21.215 46.28 21.215z" transform="translate(.98 .288)"/>
        <path fill="#C7955B" d="M46.28 21.215L48.21 21.215 48.21 19.285 46.28 19.285zM46.28 19.285L48.21 19.285 48.21 17.354 46.28 17.354z" transform="translate(.98 .288)"/>
        <path fill="#A67C4C" d="M44.355 40.493L46.28 40.493 46.28 38.568 44.355 38.568zM44.355 38.568L46.28 38.568 46.28 36.638 44.355 36.638zM44.355 36.638L46.28 36.638 46.28 34.713 44.355 34.713zM44.355 34.713L46.28 34.713 46.28 32.782 44.355 32.782z" transform="translate(.98 .288)"/>
        <path fill="#6964CC" d="M44.355 32.782L46.28 32.782 46.28 30.852 44.355 30.852zM44.355 30.852L46.28 30.852 46.28 28.927 44.355 28.927zM44.355 28.927L46.28 28.927 46.28 26.996 44.355 26.996z" transform="translate(.98 .288)"/>
        <path fill="#7E78F5" d="M44.355 26.996L46.28 26.996 46.28 25.071 44.355 25.071zM44.355 25.071L46.28 25.071 46.28 23.14 44.355 23.14z" transform="translate(.98 .288)"/>
        <path fill="#6964CC" d="M44.355 23.14L46.28 23.14 46.28 21.215 44.355 21.215zM44.355 21.215L46.28 21.215 46.28 19.285 44.355 19.285z" transform="translate(.98 .288)"/>
        <path fill="#C7955B" d="M44.355 19.285L46.28 19.285 46.28 17.354 44.355 17.354zM44.355 17.354L46.28 17.354 46.28 15.428 44.355 15.428zM44.355 15.428L46.28 15.428 46.28 13.498 44.355 13.498z" transform="translate(.98 .288)"/>
        <path fill="#A67C4C" d="M42.425 42.425L44.355 42.425 44.355 40.494 42.425 40.494zM42.425 40.493L44.355 40.493 44.355 38.568 42.425 38.568zM42.425 38.568L44.355 38.568 44.355 36.638 42.425 36.638zM42.425 36.638L44.355 36.638 44.355 34.713 42.425 34.713z" transform="translate(.98 .288)"/>
        <path fill="#6964CC" d="M42.425 34.713L44.355 34.713 44.355 32.782 42.425 32.782zM42.425 32.782L44.355 32.782 44.355 30.852 42.425 30.852zM42.425 30.852L44.355 30.852 44.355 28.927 42.425 28.927z" transform="translate(.98 .288)"/>
        <path fill="#7E78F5" d="M42.425 28.927L44.355 28.927 44.355 26.996 42.425 26.996zM42.425 26.996L44.355 26.996 44.355 25.071 42.425 25.071zM42.425 25.071L44.355 25.071 44.355 23.14 42.425 23.14zM42.425 23.14L44.355 23.14 44.355 21.215 42.425 21.215z" transform="translate(.98 .288)"/>
        <path fill="#6964CC" d="M42.425 21.215L44.355 21.215 44.355 19.285 42.425 19.285zM42.425 19.285L44.355 19.285 44.355 17.354 42.425 17.354z" transform="translate(.98 .288)"/>
        <path fill="#C7955B" d="M42.425 17.354L44.355 17.354 44.355 15.428 42.425 15.428zM42.425 15.428L44.355 15.428 44.355 13.498 42.425 13.498zM42.425 13.498L44.355 13.498 44.355 11.573 42.425 11.573z" transform="translate(.98 .288)"/>
        <path fill="#A67C4C" d="M40.494 44.355L42.424 44.355 42.424 42.425 40.494 42.425zM40.494 42.425L42.424 42.425 42.424 40.494 40.494 40.494zM40.494 40.493L42.424 40.493 42.424 38.568 40.494 38.568zM40.494 38.568L42.424 38.568 42.424 36.638 40.494 36.638z" transform="translate(.98 .288)"/>
        <path fill="#6964CC" d="M40.494 36.638L42.424 36.638 42.424 34.713 40.494 34.713z" transform="translate(.98 .288)"/>
        <path fill="#FFF" d="M40.494 34.713L42.424 34.713 42.424 32.782 40.494 32.782z" transform="translate(.98 .288)"/>
        <path fill="#6964CC" d="M40.494 32.782L42.424 32.782 42.424 30.852 40.494 30.852z" transform="translate(.98 .288)"/>
        <path fill="#7E78F5" d="M40.494 30.852L42.424 30.852 42.424 28.927 40.494 28.927zM40.494 28.927L42.424 28.927 42.424 26.996 40.494 26.996zM40.494 26.996L42.424 26.996 42.424 25.071 40.494 25.071z" transform="translate(.98 .288)"/>
        <path fill="#FFF" d="M40.494 25.071L42.424 25.071 42.424 23.14 40.494 23.14z" transform="translate(.98 .288)"/>
        <path fill="#7E78F5" d="M40.494 23.14L42.424 23.14 42.424 21.215 40.494 21.215z" transform="translate(.98 .288)"/>
        <path fill="#F5EA4E" d="M40.494 21.215L42.424 21.215 42.424 19.285 40.494 19.285z" transform="translate(.98 .288)"/>
        <path fill="#6964CC" d="M40.494 19.285L42.424 19.285 42.424 17.354 40.494 17.354zM40.494 17.354L42.424 17.354 42.424 15.428 40.494 15.428z" transform="translate(.98 .288)"/>
        <path fill="#C7955B" d="M40.494 15.428L42.424 15.428 42.424 13.498 40.494 13.498zM40.494 13.498L42.424 13.498 42.424 11.573 40.494 11.573zM40.494 11.573L42.424 11.573 42.424 9.642 40.494 9.642z" transform="translate(.98 .288)"/>
        <path fill="#A67C4C" d="M38.568 44.355L40.494 44.355 40.494 42.425 38.568 42.425zM38.568 42.425L40.494 42.425 40.494 40.494 38.568 40.494z" transform="translate(.98 .288)"/>
        <path fill="#6964CC" d="M38.568 40.493L40.494 40.493 40.494 38.568 38.568 38.568zM38.568 38.568L40.494 38.568 40.494 36.638 38.568 36.638zM38.568 36.638L40.494 36.638 40.494 34.713 38.568 34.713z" transform="translate(.98 .288)"/>
        <path fill="#7E78F5" d="M38.568 34.713L40.494 34.713 40.494 32.782 38.568 32.782zM38.568 32.782L40.494 32.782 40.494 30.852 38.568 30.852z" transform="translate(.98 .288)"/>
        <path fill="#F53642" d="M38.568 30.852L40.494 30.852 40.494 28.927 38.568 28.927z" transform="translate(.98 .288)"/>
        <path fill="#7E78F5" d="M38.568 28.927L40.494 28.927 40.494 26.996 38.568 26.996zM38.568 26.996L40.494 26.996 40.494 25.071 38.568 25.071zM38.568 25.071L40.494 25.071 40.494 23.14 38.568 23.14zM38.568 23.14L40.494 23.14 40.494 21.215 38.568 21.215zM38.568 21.215L40.494 21.215 40.494 19.285 38.568 19.285zM38.568 19.285L40.494 19.285 40.494 17.354 38.568 17.354z" transform="translate(.98 .288)"/>
        <path fill="#6964CC" d="M38.568 17.354L40.494 17.354 40.494 15.428 38.568 15.428z" transform="translate(.98 .288)"/>
        <path fill="#C7955B" d="M38.568 15.428L40.494 15.428 40.494 13.498 38.568 13.498zM38.568 13.498L40.494 13.498 40.494 11.573 38.568 11.573zM38.568 11.573L40.494 11.573 40.494 9.642 38.568 9.642z" transform="translate(.98 .288)"/>
        <path fill="#A67C4C" d="M36.638 46.28L38.568 46.28 38.568 44.355 36.638 44.355zM36.638 44.355L38.568 44.355 38.568 42.425 36.638 42.425z" transform="translate(.98 .288)"/>
        <path fill="#6964CC" d="M36.638 42.425L38.568 42.425 38.568 40.494 36.638 40.494zM36.638 40.493L38.568 40.493 38.568 38.568 36.638 38.568z" transform="translate(.98 .288)"/>
        <path fill="#B52831" d="M36.638 38.568L38.568 38.568 38.568 36.638 36.638 36.638z" transform="translate(.98 .288)"/>
        <path fill="#6964CC" d="M36.638 36.638L38.568 36.638 38.568 34.713 36.638 34.713z" transform="translate(.98 .288)"/>
        <path fill="#7E78F5" d="M36.638 34.713L38.568 34.713 38.568 32.782 36.638 32.782zM36.638 32.782L38.568 32.782 38.568 30.852 36.638 30.852z" transform="translate(.98 .288)"/>
        <path fill="#6964CC" d="M36.638 30.852L38.568 30.852 38.568 28.927 36.638 28.927zM36.638 28.927L38.568 28.927 38.568 26.996 36.638 26.996zM36.638 26.996L38.568 26.996 38.568 25.071 36.638 25.071zM36.638 25.071L38.568 25.071 38.568 23.14 36.638 23.14z" transform="translate(.98 .288)"/>
        <path fill="#7E78F5" d="M36.638 23.14L38.568 23.14 38.568 21.215 36.638 21.215z" transform="translate(.98 .288)"/>
        <path fill="#FFF" d="M36.638 21.215L38.568 21.215 38.568 19.285 36.638 19.285z" transform="translate(.98 .288)"/>
        <path fill="#7E78F5" d="M36.638 19.285L38.568 19.285 38.568 17.354 36.638 17.354z" transform="translate(.98 .288)"/>
        <path fill="#6964CC" d="M36.638 17.354L38.568 17.354 38.568 15.428 36.638 15.428zM36.638 15.428L38.568 15.428 38.568 13.498 36.638 13.498z" transform="translate(.98 .288)"/>
        <path fill="#C7955B" d="M36.638 13.498L38.568 13.498 38.568 11.573 36.638 11.573zM36.638 11.573L38.568 11.573 38.568 9.642 36.638 9.642zM36.638 9.642L38.568 9.642 38.568 7.711 36.638 7.711z" transform="translate(.98 .288)"/>
        <path fill="#A67C4C" d="M34.713 48.211L36.638 48.211 36.638 46.28 34.713 46.28zM34.713 46.28L36.638 46.28 36.638 44.355 34.713 44.355zM34.713 44.355L36.638 44.355 36.638 42.425 34.713 42.425z" transform="translate(.98 .288)"/>
        <path fill="#6964CC" d="M34.713 42.425L36.638 42.425 36.638 40.494 34.713 40.494zM34.713 40.493L36.638 40.493 36.638 38.568 34.713 38.568z" transform="translate(.98 .288)"/>
        <path fill="#7E78F5" d="M34.713 38.568L36.638 38.568 36.638 36.638 34.713 36.638z" transform="translate(.98 .288)"/>
        <path fill="#F5EA4E" d="M34.713 36.638L36.638 36.638 36.638 34.713 34.713 34.713z" transform="translate(.98 .288)"/>
        <path fill="#7E78F5" d="M34.713 34.713L36.638 34.713 36.638 32.782 34.713 32.782z" transform="translate(.98 .288)"/>
        <path fill="#6964CC" d="M34.713 32.782L36.638 32.782 36.638 30.852 34.713 30.852zM34.713 30.852L36.638 30.852 36.638 28.927 34.713 28.927z" transform="translate(.98 .288)"/>
        <path fill="#DEA665" d="M34.713 28.927L36.638 28.927 36.638 26.996 34.713 26.996zM34.713 26.996L36.638 26.996 36.638 25.071 34.713 25.071z" transform="translate(.98 .288)"/>
        <path fill="#6964CC" d="M34.713 25.071L36.638 25.071 36.638 23.14 34.713 23.14zM34.713 23.14L36.638 23.14 36.638 21.215 34.713 21.215z" transform="translate(.98 .288)"/>
        <path fill="#7E78F5" d="M34.713 21.215L36.638 21.215 36.638 19.285 34.713 19.285zM34.713 19.285L36.638 19.285 36.638 17.354 34.713 17.354zM34.713 17.354L36.638 17.354 36.638 15.428 34.713 15.428z" transform="translate(.98 .288)"/>
        <path fill="#6964CC" d="M34.713 15.428L36.638 15.428 36.638 13.498 34.713 13.498zM34.713 13.498L36.638 13.498 36.638 11.573 34.713 11.573z" transform="translate(.98 .288)"/>
        <path fill="#F53642" d="M34.713 11.573L36.638 11.573 36.638 9.642 34.713 9.642z" transform="translate(.98 .288)"/>
        <path fill="#C7955B" d="M34.713 9.642L36.638 9.642 36.638 7.711 34.713 7.711zM34.713 7.711L36.638 7.711 36.638 5.786 34.713 5.786z" transform="translate(.98 .288)"/>
        <path fill="#A67C4C" d="M32.783 48.211L34.713 48.211 34.713 46.28 32.783 46.28zM32.783 46.28L34.713 46.28 34.713 44.355 32.783 44.355z" transform="translate(.98 .288)"/>
        <path fill="#6964CC" d="M32.783 44.355L34.713 44.355 34.713 42.425 32.783 42.425z" transform="translate(.98 .288)"/>
        <path fill="#B52831" d="M32.783 42.425L34.713 42.425 34.713 40.494 32.783 40.494z" transform="translate(.98 .288)"/>
        <path fill="#7E78F5" d="M32.783 40.493L34.713 40.493 34.713 38.568 32.783 38.568zM32.783 38.568L34.713 38.568 34.713 36.638 32.783 36.638zM32.783 36.638L34.713 36.638 34.713 34.713 32.783 34.713z" transform="translate(.98 .288)"/>
        <path fill="#6964CC" d="M32.783 34.713L34.713 34.713 34.713 32.782 32.783 32.782zM32.783 32.782L34.713 32.782 34.713 30.852 32.783 30.852z" transform="translate(.98 .288)"/>
        <path fill="#DEA665" d="M32.783 30.852L34.713 30.852 34.713 28.927 32.783 28.927zM32.783 28.927L34.713 28.927 34.713 26.996 32.783 26.996zM32.783 26.996L34.713 26.996 34.713 25.071 32.783 25.071zM32.783 25.071L34.713 25.071 34.713 23.14 32.783 23.14z" transform="translate(.98 .288)"/>
        <path fill="#6964CC" d="M32.783 23.14L34.713 23.14 34.713 21.215 32.783 21.215zM32.783 21.215L34.713 21.215 34.713 19.285 32.783 19.285z" transform="translate(.98 .288)"/>
        <path fill="#7E78F5" d="M32.783 19.285L34.713 19.285 34.713 17.354 32.783 17.354zM32.783 17.354L34.713 17.354 34.713 15.428 32.783 15.428zM32.783 15.428L34.713 15.428 34.713 13.498 32.783 13.498z" transform="translate(.98 .288)"/>
        <path fill="#6964CC" d="M32.783 13.498L34.713 13.498 34.713 11.573 32.783 11.573zM32.783 11.573L34.713 11.573 34.713 9.642 32.783 9.642z" transform="translate(.98 .288)"/>
        <path fill="#C7955B" d="M32.783 9.642L34.713 9.642 34.713 7.711 32.783 7.711zM32.783 7.711L34.713 7.711 34.713 5.786 32.783 5.786z" transform="translate(.98 .288)"/>
        <path fill="#A67C4C" d="M30.851 50.135L32.782 50.135 32.782 48.21 30.851 48.21z" transform="translate(.98 .288)"/>
        <path fill="#A67C4C" d="M30.851 48.211L32.782 48.211 32.782 46.28 30.851 46.28zM30.851 46.28L32.782 46.28 32.782 44.355 30.851 44.355z" transform="translate(.98 .288)"/>
        <path fill="#6964CC" d="M30.851 44.355L32.782 44.355 32.782 42.425 30.851 42.425z" transform="translate(.98 .288)"/>
        <path fill="#7E78F5" d="M30.851 42.425L32.782 42.425 32.782 40.494 30.851 40.494zM30.851 40.493L32.782 40.493 32.782 38.568 30.851 38.568zM30.851 38.568L32.782 38.568 32.782 36.638 30.851 36.638z" transform="translate(.98 .288)"/>
        <path fill="#FFF" d="M30.851 36.638L32.782 36.638 32.782 34.713 30.851 34.713z" transform="translate(.98 .288)"/>
        <path fill="#6964CC" d="M30.851 34.713L32.782 34.713 32.782 32.782 30.851 32.782z" transform="translate(.98 .288)"/>
        <path fill="#DEA665" d="M30.851 32.782L32.782 32.782 32.782 30.852 30.851 30.852zM30.851 30.852L32.782 30.852 32.782 28.927 30.851 28.927z" transform="translate(.98 .288)"/>
        <path fill="#C7955B" d="M30.851 25.071L32.782 25.071 32.782 23.14 30.851 23.14zM30.851 23.14L32.782 23.14 32.782 21.215 30.851 21.215z" transform="translate(.98 .288)"/>
        <path fill="#6964CC" d="M30.851 21.215L32.782 21.215 32.782 19.285 30.851 19.285z" transform="translate(.98 .288)"/>
        <path fill="#FFF" d="M30.851 19.285L32.782 19.285 32.782 17.354 30.851 17.354z" transform="translate(.98 .288)"/>
        <path fill="#7E78F5" d="M30.851 17.354L32.782 17.354 32.782 15.428 30.851 15.428z" transform="translate(.98 .288)"/>
        <path fill="#F53642" d="M30.851 15.428L32.782 15.428 32.782 13.498 30.851 13.498z" transform="translate(.98 .288)"/>
        <path fill="#7E78F5" d="M30.851 13.498L32.782 13.498 32.782 11.573 30.851 11.573z" transform="translate(.98 .288)"/>
        <path fill="#6964CC" d="M30.851 11.573L32.782 11.573 32.782 9.642 30.851 9.642zM30.851 9.642L32.782 9.642 32.782 7.711 30.851 7.711z" transform="translate(.98 .288)"/>
        <path fill="#C7955B" d="M30.851 7.711L32.782 7.711 32.782 5.786 30.851 5.786zM30.851 5.786L32.782 5.786 32.782 3.856 30.851 3.856z" transform="translate(.98 .288)"/>
        <path fill="#A67C4C" d="M28.926 52.067L30.851 52.067 30.851 50.136 28.926 50.136zM28.926 50.135L30.851 50.135 30.851 48.21 28.926 48.21z" transform="translate(.98 .288)"/>
        <path fill="#A67C4C" d="M28.926 48.211L30.851 48.211 30.851 46.28 28.926 46.28z" transform="translate(.98 .288)"/>
        <path fill="#6964CC" d="M28.926 46.28L30.851 46.28 30.851 44.355 28.926 44.355zM28.926 44.355L30.851 44.355 30.851 42.425 28.926 42.425z" transform="translate(.98 .288)"/>
        <path fill="#FFF" d="M28.926 42.425L30.851 42.425 30.851 40.494 28.926 40.494z" transform="translate(.98 .288)"/>
        <path fill="#7E78F5" d="M28.926 40.493L30.851 40.493 30.851 38.568 28.926 38.568z" transform="translate(.98 .288)"/>
        <path fill="#6964CC" d="M28.926 38.568L30.851 38.568 30.851 36.638 28.926 36.638zM28.926 36.638L30.851 36.638 30.851 34.713 28.926 34.713z" transform="translate(.98 .288)"/>
        <path fill="#DEA665" d="M28.926 34.713L30.851 34.713 30.851 32.782 28.926 32.782zM28.926 32.782L30.851 32.782 30.851 30.852 28.926 30.852z" transform="translate(.98 .288)"/>
        <path fill="#C7955B" d="M28.926 23.14L30.851 23.14 30.851 21.215 28.926 21.215zM28.926 21.215L30.851 21.215 30.851 19.285 28.926 19.285z" transform="translate(.98 .288)"/>
        <path fill="#6964CC" d="M28.926 19.285L30.851 19.285 30.851 17.354 28.926 17.354z" transform="translate(.98 .288)"/>
        <path fill="#7E78F5" d="M28.926 17.354L30.851 17.354 30.851 15.428 28.926 15.428zM28.926 15.428L30.851 15.428 30.851 13.498 28.926 13.498zM28.926 13.498L30.851 13.498 30.851 11.573 28.926 11.573zM28.926 11.573L30.851 11.573 30.851 9.642 28.926 9.642zM28.926 9.642L30.851 9.642 30.851 7.711 28.926 7.711z" transform="translate(.98 .288)"/>
        <path fill="#FFF" d="M28.926 7.711L30.851 7.711 30.851 5.786 28.926 5.786z" transform="translate(.98 .288)"/>
        <path fill="#C7955B" d="M28.926 5.786L30.851 5.786 30.851 3.856 28.926 3.856zM28.926 3.856L30.851 3.856 30.851 1.931 28.926 1.931z" transform="translate(.98 .288)"/>
        <path fill="#A67C4C" d="M26.996 53.991L28.927 53.991 28.927 52.067 26.996 52.067zM26.996 52.067L28.926 52.067 28.926 50.136 26.996 50.136zM26.996 50.135L28.926 50.135 28.926 48.21 26.996 48.21z" transform="translate(.98 .288)"/>
        <path fill="#6964CC" d="M26.996 48.211L28.926 48.211 28.926 46.28 26.996 46.28z" transform="translate(.98 .288)"/>
        <path fill="#FFF" d="M26.996 46.28L28.926 46.28 28.926 44.355 26.996 44.355z" transform="translate(.98 .288)"/>
        <path fill="#7E78F5" d="M26.996 44.355L28.926 44.355 28.926 42.425 26.996 42.425zM26.996 42.425L28.926 42.425 28.926 40.494 26.996 40.494z" transform="translate(.98 .288)"/>
        <path fill="#6964CC" d="M26.996 40.493L28.926 40.493 28.926 38.568 26.996 38.568zM26.996 38.568L28.926 38.568 28.926 36.638 26.996 36.638zM26.996 36.638L28.926 36.638 28.926 34.713 26.996 34.713z" transform="translate(.98 .288)"/>
        <path fill="#DEA665" d="M26.996 34.713L28.926 34.713 28.926 32.782 26.996 32.782z" transform="translate(.98 .288)"/>
        <path fill="#C7955B" d="M26.996 21.215L28.926 21.215 28.926 19.285 26.996 19.285z" transform="translate(.98 .288)"/>
        <path fill="#6964CC" d="M26.996 19.285L28.926 19.285 28.926 17.354 26.996 17.354zM26.996 17.354L28.926 17.354 28.926 15.428 26.996 15.428z" transform="translate(.98 .288)"/>
        <path fill="#7E78F5" d="M26.996 15.428L28.926 15.428 28.926 13.498 26.996 13.498zM26.996 13.498L28.926 13.498 28.926 11.573 26.996 11.573zM26.996 11.573L28.926 11.573 28.926 9.642 26.996 9.642zM26.996 9.642L28.926 9.642 28.926 7.711 26.996 7.711zM26.996 7.711L28.926 7.711 28.926 5.786 26.996 5.786z" transform="translate(.98 .288)"/>
        <path fill="#C7955B" d="M26.996 5.786L28.926 5.786 28.926 3.856 26.996 3.856zM26.996 3.856L28.926 3.856 28.926 1.931 26.996 1.931zM26.996 1.931L28.927 1.931 28.927 0 26.996 0z" transform="translate(.98 .288)"/>
        <path fill="#A67C4C" d="M25.07 53.991L26.996 53.991 26.996 52.067 25.07 52.067zM25.07 52.067L26.996 52.067 26.996 50.136 25.07 50.136z" transform="translate(.98 .288)"/>
        <path fill="#C7955B" d="M25.07 50.135L26.996 50.135 26.996 48.21 25.07 48.21z" transform="translate(.98 .288)"/>
        <path fill="#6964CC" d="M25.07 48.211L26.996 48.211 26.996 46.28 25.07 46.28zM25.07 46.28L26.996 46.28 26.996 44.355 25.07 44.355z" transform="translate(.98 .288)"/>
        <path fill="#7E78F5" d="M25.07 44.355L26.996 44.355 26.996 42.425 25.07 42.425zM25.07 42.425L26.996 42.425 26.996 40.494 25.07 40.494zM25.07 40.493L26.996 40.493 26.996 38.568 25.07 38.568z" transform="translate(.98 .288)"/>
        <path fill="#6964CC" d="M25.07 38.568L26.996 38.568 26.996 36.638 25.07 36.638z" transform="translate(.98 .288)"/>
        <path fill="#DEA665" d="M25.07 36.638L26.996 36.638 26.996 34.713 25.07 34.713zM25.07 34.713L26.996 34.713 26.996 32.782 25.07 32.782z" transform="translate(.98 .288)"/>
        <path fill="#C7955B" d="M25.07 21.215L26.996 21.215 26.996 19.285 25.07 19.285z" transform="translate(.98 .288)"/>
        <path fill="#6964CC" d="M25.07 19.285L26.996 19.285 26.996 17.354 25.07 17.354zM25.07 17.354L26.996 17.354 26.996 15.428 25.07 15.428z" transform="translate(.98 .288)"/>
        <path fill="#7E78F5" d="M25.07 15.428L26.996 15.428 26.996 13.498 25.07 13.498zM25.07 13.498L26.996 13.498 26.996 11.573 25.07 11.573zM25.07 11.573L26.996 11.573 26.996 9.642 25.07 9.642zM25.07 9.642L26.996 9.642 26.996 7.711 25.07 7.711zM25.07 7.711L26.996 7.711 26.996 5.786 25.07 5.786z" transform="translate(.98 .288)"/>
        <path fill="#C7955B" d="M25.07 5.786L26.996 5.786 26.996 3.856 25.07 3.856z" transform="translate(.98 .288)"/>
        <path fill="#DEA665" d="M25.07 3.856L26.996 3.856 26.996 1.931 25.07 1.931zM25.07 1.931L26.996 1.931 26.996 0 25.07 0z" transform="translate(.98 .288)"/>
        <path fill="#A67C4C" d="M23.141 52.067L25.071 52.067 25.071 50.136 23.141 50.136z" transform="translate(.98 .288)"/>
        <path fill="#C7955B" d="M23.141 50.135L25.071 50.135 25.071 48.21 23.141 48.21z" transform="translate(.98 .288)"/>
        <path fill="#C7955B" d="M23.141 48.211L25.071 48.211 25.071 46.28 23.141 46.28z" transform="translate(.98 .288)"/>
        <path fill="#6964CC" d="M23.141 46.28L25.071 46.28 25.071 44.355 23.141 44.355z" transform="translate(.98 .288)"/>
        <path fill="#7E78F5" d="M23.141 44.355L25.071 44.355 25.071 42.425 23.141 42.425zM23.141 42.425L25.071 42.425 25.071 40.494 23.141 40.494zM23.141 40.493L25.071 40.493 25.071 38.568 23.141 38.568z" transform="translate(.98 .288)"/>
        <path fill="#FFF" d="M23.141 38.568L25.071 38.568 25.071 36.638 23.141 36.638z" transform="translate(.98 .288)"/>
        <path fill="#6964CC" d="M23.141 36.638L25.071 36.638 25.071 34.713 23.141 34.713z" transform="translate(.98 .288)"/>
        <path fill="#DEA665" d="M23.141 34.713L25.071 34.713 25.071 32.782 23.141 32.782zM23.141 32.782L25.071 32.782 25.071 30.852 23.141 30.852z" transform="translate(.98 .288)"/>
        <path fill="#C7955B" d="M23.141 23.14L25.071 23.14 25.071 21.215 23.141 21.215zM23.141 21.215L25.071 21.215 25.071 19.285 23.141 19.285z" transform="translate(.98 .288)"/>
        <path fill="#6964CC" d="M23.141 19.285L25.071 19.285 25.071 17.354 23.141 17.354z" transform="translate(.98 .288)"/>
        <path fill="#FFF" d="M23.141 17.354L25.071 17.354 25.071 15.428 23.141 15.428z" transform="translate(.98 .288)"/>
        <path fill="#7E78F5" d="M23.141 15.428L25.071 15.428 25.071 13.498 23.141 13.498z" transform="translate(.98 .288)"/>
        <path fill="#FFF" d="M23.141 13.498L25.071 13.498 25.071 11.573 23.141 11.573z" transform="translate(.98 .288)"/>
        <path fill="#7E78F5" d="M23.141 11.573L25.071 11.573 25.071 9.642 23.141 9.642zM23.141 9.642L25.071 9.642 25.071 7.711 23.141 7.711z" transform="translate(.98 .288)"/>
        <path fill="#6964CC" d="M23.141 7.711L25.071 7.711 25.071 5.786 23.141 5.786z" transform="translate(.98 .288)"/>
        <path fill="#DEA665" d="M23.141 5.786L25.071 5.786 25.071 3.856 23.141 3.856zM23.141 3.856L25.071 3.856 25.071 1.931 23.141 1.931z" transform="translate(.98 .288)"/>
        <path fill="#A67C4C" d="M21.215 50.135L23.14 50.135 23.14 48.21 21.215 48.21z" transform="translate(.98 .288)"/>
        <path fill="#C7955B" d="M21.215 48.211L23.14 48.211 23.14 46.28 21.215 46.28z" transform="translate(.98 .288)"/>
        <path fill="#6964CC" d="M21.215 46.28L23.14 46.28 23.14 44.355 21.215 44.355z" transform="translate(.98 .288)"/>
        <path fill="#7E78F5" d="M21.215 44.355L23.14 44.355 23.14 42.425 21.215 42.425zM21.215 42.425L23.14 42.425 23.14 40.494 21.215 40.494zM21.215 40.493L23.14 40.493 23.14 38.568 21.215 38.568zM21.215 38.568L23.14 38.568 23.14 36.638 21.215 36.638z" transform="translate(.98 .288)"/>
        <path fill="#6964CC" d="M21.215 36.638L23.14 36.638 23.14 34.713 21.215 34.713zM21.215 34.713L23.14 34.713 23.14 32.782 21.215 32.782z" transform="translate(.98 .288)"/>
        <path fill="#C7955B" d="M21.215 32.782L23.14 32.782 23.14 30.852 21.215 30.852zM21.215 30.852L23.14 30.852 23.14 28.927 21.215 28.927zM21.215 25.071L23.14 25.071 23.14 23.14 21.215 23.14zM21.215 23.14L23.14 23.14 23.14 21.215 21.215 21.215z" transform="translate(.98 .288)"/>
        <path fill="#6964CC" d="M21.215 21.215L23.14 21.215 23.14 19.285 21.215 19.285zM21.215 19.285L23.14 19.285 23.14 17.354 21.215 17.354z" transform="translate(.98 .288)"/>
        <path fill="#B52831" d="M21.215 17.354L23.14 17.354 23.14 15.428 21.215 15.428z" transform="translate(.98 .288)"/>
        <path fill="#7E78F5" d="M21.215 15.428L23.14 15.428 23.14 13.498 21.215 13.498zM21.215 13.498L23.14 13.498 23.14 11.573 21.215 11.573zM21.215 11.573L23.14 11.573 23.14 9.642 21.215 9.642z" transform="translate(.98 .288)"/>
        <path fill="#6964CC" d="M21.215 9.642L23.14 9.642 23.14 7.711 21.215 7.711z" transform="translate(.98 .288)"/>
        <path fill="#DEA665" d="M21.215 7.711L23.14 7.711 23.14 5.786 21.215 5.786zM21.215 5.786L23.14 5.786 23.14 3.856 21.215 3.856z" transform="translate(.98 .288)"/>
        <path fill="#C7955B" d="M19.285 48.211L21.215 48.211 21.215 46.28 19.285 46.28zM19.285 46.28L21.215 46.28 21.215 44.355 19.285 44.355z" transform="translate(.98 .288)"/>
        <path fill="#6964CC" d="M19.285 44.355L21.215 44.355 21.215 42.425 19.285 42.425z" transform="translate(.98 .288)"/>
        <path fill="#7E78F5" d="M19.285 42.425L21.215 42.425 21.215 40.494 19.285 40.494z" transform="translate(.98 .288)"/>
        <path fill="#F53642" d="M19.285 40.493L21.215 40.493 21.215 38.568 19.285 38.568z" transform="translate(.98 .288)"/>
        <path fill="#7E78F5" d="M19.285 38.568L21.215 38.568 21.215 36.638 19.285 36.638zM19.285 36.638L21.215 36.638 21.215 34.713 19.285 34.713z" transform="translate(.98 .288)"/>
        <path fill="#6964CC" d="M19.285 34.713L21.215 34.713 21.215 32.782 19.285 32.782zM19.285 32.782L21.215 32.782 21.215 30.852 19.285 30.852z" transform="translate(.98 .288)"/>
        <path fill="#C7955B" d="M19.285 30.852L21.215 30.852 21.215 28.927 19.285 28.927zM19.285 28.927L21.215 28.927 21.215 26.996 19.285 26.996zM19.285 26.996L21.215 26.996 21.215 25.071 19.285 25.071zM19.285 25.071L21.215 25.071 21.215 23.14 19.285 23.14z" transform="translate(.98 .288)"/>
        <path fill="#6964CC" d="M19.285 23.14L21.215 23.14 21.215 21.215 19.285 21.215zM19.285 21.215L21.215 21.215 21.215 19.285 19.285 19.285zM19.285 19.285L21.215 19.285 21.215 17.354 19.285 17.354z" transform="translate(.98 .288)"/>
        <path fill="#7E78F5" d="M19.285 17.354L21.215 17.354 21.215 15.428 19.285 15.428zM19.285 15.428L21.215 15.428 21.215 13.498 19.285 13.498zM19.285 13.498L21.215 13.498 21.215 11.573 19.285 11.573z" transform="translate(.98 .288)"/>
        <path fill="#FFF" d="M19.285 11.573L21.215 11.573 21.215 9.642 19.285 9.642z" transform="translate(.98 .288)"/>
        <path fill="#6964CC" d="M19.285 9.642L21.215 9.642 21.215 7.711 19.285 7.711z" transform="translate(.98 .288)"/>
        <path fill="#DEA665" d="M19.285 7.711L21.215 7.711 21.215 5.786 19.285 5.786z" transform="translate(.98 .288)"/>
        <path fill="#C7955B" d="M17.354 48.211L19.285 48.211 19.285 46.28 17.354 46.28zM17.354 46.28L19.285 46.28 19.285 44.355 17.354 44.355z" transform="translate(.98 .288)"/>
        <path fill="#6964CC" d="M17.354 44.355L19.285 44.355 19.285 42.425 17.354 42.425zM17.354 42.425L19.285 42.425 19.285 40.494 17.354 40.494zM17.354 40.493L19.285 40.493 19.285 38.568 17.354 38.568z" transform="translate(.98 .288)"/>
        <path fill="#7E78F5" d="M17.354 38.568L19.285 38.568 19.285 36.638 17.354 36.638zM17.354 36.638L19.285 36.638 19.285 34.713 17.354 34.713zM17.354 34.713L19.285 34.713 19.285 32.782 17.354 32.782z" transform="translate(.98 .288)"/>
        <path fill="#FFF" d="M17.354 32.782L19.285 32.782 19.285 30.852 17.354 30.852z" transform="translate(.98 .288)"/>
        <path fill="#6964CC" d="M17.354 30.852L19.285 30.852 19.285 28.927 17.354 28.927z" transform="translate(.98 .288)"/>
        <path fill="#C7955B" d="M17.354 28.927L19.285 28.927 19.285 26.996 17.354 26.996zM17.354 26.996L19.285 26.996 19.285 25.071 17.354 25.071z" transform="translate(.98 .288)"/>
        <path fill="#6964CC" d="M17.354 25.071L19.285 25.071 19.285 23.14 17.354 23.14zM17.354 23.14L19.285 23.14 19.285 21.215 17.354 21.215zM17.354 21.215L19.285 21.215 19.285 19.285 17.354 19.285z" transform="translate(.98 .288)"/>
        <path fill="#7E78F5" d="M17.354 19.285L19.285 19.285 19.285 17.354 17.354 17.354zM17.354 17.354L19.285 17.354 19.285 15.428 17.354 15.428zM17.354 15.428L19.285 15.428 19.285 13.498 17.354 13.498zM17.354 13.498L19.285 13.498 19.285 11.573 17.354 11.573z" transform="translate(.98 .288)"/>
        <path fill="#6964CC" d="M17.354 11.573L19.285 11.573 19.285 9.642 17.354 9.642z" transform="translate(.98 .288)"/>
        <path fill="#DEA665" d="M17.354 9.642L19.285 9.642 19.285 7.711 17.354 7.711zM17.354 7.711L19.285 7.711 19.285 5.786 17.354 5.786z" transform="translate(.98 .288)"/>
        <path fill="#C7955B" d="M15.428 46.28L17.353 46.28 17.353 44.355 15.428 44.355zM15.428 44.355L17.353 44.355 17.353 42.425 15.428 42.425z" transform="translate(.98 .288)"/>
        <path fill="#6964CC" d="M15.428 42.425L17.353 42.425 17.353 40.494 15.428 40.494z" transform="translate(.98 .288)"/>
        <path fill="#FFF" d="M15.428 40.493L17.353 40.493 17.353 38.568 15.428 38.568z" transform="translate(.98 .288)"/>
        <path fill="#7E78F5" d="M15.428 38.568L17.353 38.568 17.353 36.638 15.428 36.638z" transform="translate(.98 .288)"/>
        <path fill="#FFF" d="M15.428 36.638L17.353 36.638 17.353 34.713 15.428 34.713z" transform="translate(.98 .288)"/>
        <path fill="#7E78F5" d="M15.428 34.713L17.353 34.713 17.353 32.782 15.428 32.782zM15.428 32.782L17.353 32.782 17.353 30.852 15.428 30.852z" transform="translate(.98 .288)"/>
        <path fill="#6964CC" d="M15.428 30.852L17.353 30.852 17.353 28.927 15.428 28.927zM15.428 28.927L17.353 28.927 17.353 26.996 15.428 26.996zM15.428 26.996L17.353 26.996 17.353 25.071 15.428 25.071z" transform="translate(.98 .288)"/>
        <path fill="#F5EA4E" d="M15.428 25.071L17.353 25.071 17.353 23.14 15.428 23.14z" transform="translate(.98 .288)"/>
        <path fill="#7E78F5" d="M15.428 23.14L17.353 23.14 17.353 21.215 15.428 21.215zM15.428 21.215L17.353 21.215 17.353 19.285 15.428 19.285zM15.428 19.285L17.353 19.285 17.353 17.354 15.428 17.354z" transform="translate(.98 .288)"/>
        <path fill="#FFF" d="M15.428 17.354L17.353 17.354 17.353 15.428 15.428 15.428z" transform="translate(.98 .288)"/>
        <path fill="#7E78F5" d="M15.428 15.428L17.353 15.428 17.353 13.498 15.428 13.498z" transform="translate(.98 .288)"/>
        <path fill="#6964CC" d="M15.428 13.498L17.353 13.498 17.353 11.573 15.428 11.573z" transform="translate(.98 .288)"/>
        <path fill="#DEA665" d="M15.428 11.573L17.353 11.573 17.353 9.642 15.428 9.642zM15.428 9.642L17.353 9.642 17.353 7.711 15.428 7.711z" transform="translate(.98 .288)"/>
        <path fill="#C7955B" d="M13.498 44.355L15.429 44.355 15.429 42.425 13.498 42.425zM13.498 42.425L15.429 42.425 15.429 40.494 13.498 40.494z" transform="translate(.98 .288)"/>
        <path fill="#6964CC" d="M13.498 40.493L15.429 40.493 15.429 38.568 13.498 38.568zM13.498 38.568L15.429 38.568 15.429 36.638 13.498 36.638z" transform="translate(.98 .288)"/>
        <path fill="#7E78F5" d="M13.498 36.638L15.429 36.638 15.429 34.713 13.498 34.713z" transform="translate(.98 .288)"/>
        <path fill="#F5EA4E" d="M13.498 34.713L15.429 34.713 15.429 32.782 13.498 32.782z" transform="translate(.98 .288)"/>
        <path fill="#7E78F5" d="M13.498 32.782L15.429 32.782 15.429 30.852 13.498 30.852zM13.498 30.852L15.429 30.852 15.429 28.927 13.498 28.927z" transform="translate(.98 .288)"/>
        <path fill="#6964CC" d="M13.498 28.927L15.429 28.927 15.429 26.996 13.498 26.996zM13.498 26.996L15.429 26.996 15.429 25.071 13.498 25.071z" transform="translate(.98 .288)"/>
        <path fill="#7E78F5" d="M13.498 25.071L15.429 25.071 15.429 23.14 13.498 23.14zM13.498 23.14L15.429 23.14 15.429 21.215 13.498 21.215z" transform="translate(.98 .288)"/>
        <path fill="#F53642" d="M13.498 21.215L15.429 21.215 15.429 19.285 13.498 19.285z" transform="translate(.98 .288)"/>
        <path fill="#7E78F5" d="M13.498 19.285L15.429 19.285 15.429 17.354 13.498 17.354z" transform="translate(.98 .288)"/>
        <path fill="#F5EA4E" d="M13.498 17.354L15.429 17.354 15.429 15.428 13.498 15.428z" transform="translate(.98 .288)"/>
        <path fill="#6964CC" d="M13.498 15.428L15.429 15.428 15.429 13.498 13.498 13.498z" transform="translate(.98 .288)"/>
        <path fill="#C7955B" d="M13.498 13.498L15.429 13.498 15.429 11.573 13.498 11.573z" transform="translate(.98 .288)"/>
        <path fill="#DEA665" d="M13.498 11.573L15.429 11.573 15.429 9.642 13.498 9.642z" transform="translate(.98 .288)"/>
        <path fill="#C7955B" d="M11.572 44.355L13.497 44.355 13.497 42.425 11.572 42.425zM11.572 42.425L13.497 42.425 13.497 40.494 11.572 40.494zM11.572 40.493L13.497 40.493 13.497 38.568 11.572 38.568z" transform="translate(.98 .288)"/>
        <path fill="#6964CC" d="M11.572 38.568L13.497 38.568 13.497 36.638 11.572 36.638zM11.572 36.638L13.497 36.638 13.497 34.713 11.572 34.713z" transform="translate(.98 .288)"/>
        <path fill="#7E78F5" d="M11.572 34.713L13.497 34.713 13.497 32.782 11.572 32.782z" transform="translate(.98 .288)"/>
        <path fill="#F53642" d="M11.572 32.782L13.497 32.782 13.497 30.852 11.572 30.852z" transform="translate(.98 .288)"/>
        <path fill="#7E78F5" d="M11.572 30.852L13.497 30.852 13.497 28.927 11.572 28.927zM11.572 28.927L13.497 28.927 13.497 26.996 11.572 26.996zM11.572 26.996L13.497 26.996 13.497 25.071 11.572 25.071zM11.572 25.071L13.497 25.071 13.497 23.14 11.572 23.14zM11.572 23.14L13.497 23.14 13.497 21.215 11.572 21.215zM11.572 21.215L13.497 21.215 13.497 19.285 11.572 19.285zM11.572 19.285L13.497 19.285 13.497 17.354 11.572 17.354z" transform="translate(.98 .288)"/>
        <path fill="#6964CC" d="M11.572 17.354L13.497 17.354 13.497 15.428 11.572 15.428z" transform="translate(.98 .288)"/>
        <path fill="#C7955B" d="M11.572 15.428L13.497 15.428 13.497 13.498 11.572 13.498z" transform="translate(.98 .288)"/>
        <path fill="#DEA665" d="M11.572 13.498L13.497 13.498 13.497 11.573 11.572 11.573zM11.572 11.573L13.497 11.573 13.497 9.642 11.572 9.642z" transform="translate(.98 .288)"/>
        <path fill="#C7955B" d="M9.643 42.425L11.573 42.425 11.573 40.494 9.643 40.494zM9.643 40.493L11.573 40.493 11.573 38.568 9.643 38.568zM9.643 38.568L11.573 38.568 11.573 36.638 9.643 36.638z" transform="translate(.98 .288)"/>
        <path fill="#6964CC" d="M9.643 36.638L11.573 36.638 11.573 34.713 9.643 34.713zM9.643 34.713L11.573 34.713 11.573 32.782 9.643 32.782z" transform="translate(.98 .288)"/>
        <path fill="#7E78F5" d="M9.643 32.782L11.573 32.782 11.573 30.852 9.643 30.852zM9.643 30.852L11.573 30.852 11.573 28.927 9.643 28.927z" transform="translate(.98 .288)"/>
        <path fill="#FFF" d="M9.643 28.927L11.573 28.927 11.573 26.996 9.643 26.996z" transform="translate(.98 .288)"/>
        <path fill="#7E78F5" d="M9.643 26.996L11.573 26.996 11.573 25.071 9.643 25.071zM9.643 25.071L11.573 25.071 11.573 23.14 9.643 23.14z" transform="translate(.98 .288)"/>
        <path fill="#FFF" d="M9.643 23.14L11.573 23.14 11.573 21.215 9.643 21.215z" transform="translate(.98 .288)"/>
        <path fill="#7E78F5" d="M9.643 21.215L11.573 21.215 11.573 19.285 9.643 19.285z" transform="translate(.98 .288)"/>
        <path fill="#6964CC" d="M9.643 19.285L11.573 19.285 11.573 17.354 9.643 17.354z" transform="translate(.98 .288)"/>
        <path fill="#C7955B" d="M9.643 17.354L11.573 17.354 11.573 15.428 9.643 15.428z" transform="translate(.98 .288)"/>
        <path fill="#DEA665" d="M9.643 15.428L11.573 15.428 11.573 13.498 9.643 13.498zM9.643 13.498L11.573 13.498 11.573 11.573 9.643 11.573z" transform="translate(.98 .288)"/>
        <path fill="#C7955B" d="M7.712 40.493L9.643 40.493 9.643 38.568 7.712 38.568zM7.712 38.568L9.643 38.568 9.643 36.638 7.712 36.638zM7.712 36.638L9.643 36.638 9.643 34.713 7.712 34.713z" transform="translate(.98 .288)"/>
        <path fill="#6964CC" d="M7.712 34.713L9.643 34.713 9.643 32.782 7.712 32.782zM7.712 32.782L9.643 32.782 9.643 30.852 7.712 30.852zM7.712 30.852L9.643 30.852 9.643 28.927 7.712 28.927z" transform="translate(.98 .288)"/>
        <path fill="#7E78F5" d="M7.712 28.927L9.643 28.927 9.643 26.996 7.712 26.996zM7.712 26.996L9.643 26.996 9.643 25.071 7.712 25.071zM7.712 25.071L9.643 25.071 9.643 23.14 7.712 23.14zM7.712 23.14L9.643 23.14 9.643 21.215 7.712 21.215z" transform="translate(.98 .288)"/>
        <path fill="#6964CC" d="M7.712 21.215L9.643 21.215 9.643 19.285 7.712 19.285z" transform="translate(.98 .288)"/>
        <path fill="#DEA665" d="M7.712 19.285L9.643 19.285 9.643 17.354 7.712 17.354zM7.712 17.354L9.643 17.354 9.643 15.428 7.712 15.428zM7.712 15.428L9.643 15.428 9.643 13.498 7.712 13.498z" transform="translate(.98 .288)"/>
        <path fill="#C7955B" d="M5.786 36.638L7.711 36.638 7.711 34.713 5.786 34.713zM5.786 34.713L7.711 34.713 7.711 32.782 5.786 32.782zM5.786 32.782L7.711 32.782 7.711 30.852 5.786 30.852z" transform="translate(.98 .288)"/>
        <path fill="#6964CC" d="M5.786 30.852L7.711 30.852 7.711 28.927 5.786 28.927z" transform="translate(.98 .288)"/>
        <path fill="#7E78F5" d="M5.786 28.927L7.711 28.927 7.711 26.996 5.786 26.996zM5.786 26.996L7.711 26.996 7.711 25.071 5.786 25.071z" transform="translate(.98 .288)"/>
        <path fill="#B52831" d="M5.786 25.071L7.711 25.071 7.711 23.14 5.786 23.14z" transform="translate(.98 .288)"/>
        <path fill="#DEA665" d="M5.786 23.14L7.711 23.14 7.711 21.215 5.786 21.215zM5.786 21.215L7.711 21.215 7.711 19.285 5.786 19.285zM5.786 19.285L7.711 19.285 7.711 17.354 5.786 17.354z" transform="translate(.98 .288)"/>
        <path fill="#C7955B" d="M3.856 34.713L5.786 34.713 5.786 32.782 3.856 32.782zM3.856 32.782L5.786 32.782 5.786 30.852 3.856 30.852zM3.856 30.852L5.786 30.852 5.786 28.927 3.856 28.927z" transform="translate(.98 .288)"/>
        <path fill="#6964CC" d="M3.856 28.927L5.786 28.927 5.786 26.996 3.856 26.996zM3.856 26.996L5.786 26.996 5.786 25.071 3.856 25.071z" transform="translate(.98 .288)"/>
        <path fill="#DEA665" d="M3.856 25.071L5.786 25.071 5.786 23.14 3.856 23.14zM3.856 23.14L5.786 23.14 5.786 21.215 3.856 21.215zM3.856 21.215L5.786 21.215 5.786 19.285 3.856 19.285z" transform="translate(.98 .288)"/>
        <path fill="#C7955B" d="M1.93 30.852L3.856 30.852 3.856 28.927 1.93 28.927zM1.93 28.927L3.856 28.927 3.856 26.996 1.93 26.996z" transform="translate(.98 .288)"/>
        <path fill="#DEA665" d="M1.93 26.996L3.856 26.996 3.856 25.071 1.93 25.071zM1.93 25.071L3.856 25.071 3.856 23.14 1.93 23.14z" transform="translate(.98 .288)"/>
        <path fill="#C7955B" d="M0 28.927L1.931 28.927 1.931 26.996 0 26.996z" transform="translate(.98 .288)"/>
        <path fill="#DEA665" d="M0 26.995L1.931 26.995 1.931 25.071 0 25.071z" transform="translate(.98 .288)"/>
    </g>
</svg>
