<svg xmlns="http://www.w3.org/2000/svg" xmlns:xlink="http://www.w3.org/1999/xlink" width="2560" height="70" viewBox="0 0 2560 70">
    <defs>
        <path id="mmq7btq4la" d="M0 71.68L411.416 71.68 411.416 0.004 0 0.004z"/>
        <path id="kpkyh8pr2c" d="M0 71.68L411.416 71.68 411.416 0.004 0 0.004z"/>
        <path id="nz1mlmitbe" d="M0 71.68L411.416 71.68 411.416 0.004 0 0.004z"/>
        <path id="qlsarffefg" d="M0 71.68L411.416 71.68 411.416 0.004 0 0.004z"/>
        <path id="7z7qjsd0ii" d="M0 71.68L411.416 71.68 411.416 0.004 0 0.004z"/>
        <path id="188ziiztck" d="M0 71.68L411.416 71.68 411.416 0.004 0 0.004z"/>
        <path id="b09omoguwm" d="M0 71.68L411.416 71.68 411.416 0.004 0 0.004z"/>
    </defs>
    <g fill="none" fill-rule="evenodd">
        <g>
            <path fill="#A2C253" d="M12.073 33.919L272.708 33.919 272.708 0.32 12.073 0.32z" transform="translate(-18) translate(774)"/>
            <path fill="#8BA648" d="M265.252 9.083L265.252 14.253 260.184 14.253 260.184 19.423 248.532 19.423 248.532 23.729 237.389 23.729 237.389 16.406 232.322 16.406 232.322 14.253 222.19 14.253 222.19 11.668 213.071 11.668 213.071 18.13 208.512 18.13 208.512 27.607 203.447 27.607 203.447 18.13 195.339 18.13 195.339 9.513 189.766 9.513 189.766 21.576 171.529 21.576 171.529 9.946 154.813 9.946 154.813 18.56 145.693 18.56 145.693 22.868 134.041 22.868 134.041 17.267 129.991 17.267 129.991 19.852 118.336 19.852 118.336 6.069 107.696 6.069 107.696 12.96 91.994 12.96 91.994 17.699 69.196 17.699 69.196 29.762 59.066 29.762 59.066 12.96 45.892 12.96 45.892 18.991 28.667 18.991 28.667 27.607 12.073 27.607 12.073 33.919 272.708 33.919 272.708 9.083z" transform="translate(-18) translate(774)"/>
            <path fill="#7E4D2E" d="M12.073 71.996L272.708 71.996 272.708 33.919 12.073 33.919z" transform="translate(-18) translate(774)"/>
            <path fill="#945835" d="M231.816 33.919L231.816 43.115 224.722 43.115 224.722 46.561 215.606 46.561 215.606 43.115 201.927 43.115 201.927 48.285 188.754 48.285 188.754 33.919 186.219 33.919 186.219 42.253 170.518 42.253 170.518 51.3 151.266 51.3 151.266 44.408 138.603 44.408 138.603 40.531 134.547 40.531 134.547 53.884 120.362 53.884 120.362 45.268 113.269 45.268 113.269 51.731 100.605 51.731 100.605 44.408 88.953 44.408 88.953 38.376 84.395 38.376 84.395 43.115 80.342 43.115 80.342 50.007 71.73 50.007 71.73 43.115 60.582 43.115 60.582 51.731 51.971 51.731 51.971 40.531 35.76 40.531 35.76 45.268 22.082 45.268 22.082 53.023 12.073 53.023 12.073 60.776 24.108 60.776 24.108 71.995 30.693 71.995 30.693 56.899 40.319 56.899 40.319 64.653 47.413 64.653 47.413 59.484 63.117 59.484 63.117 66.378 70.716 66.378 70.716 59.917 85.406 59.917 85.406 67.669 96.553 67.669 96.553 62.069 106.178 62.069 106.178 63.792 120.362 63.792 120.362 59.484 145.187 59.484 145.187 56.899 176.091 56.899 176.091 66.378 180.649 66.378 180.649 61.209 205.471 61.209 205.471 71.995 215.097 71.995 215.097 53.884 225.231 53.884 225.231 62.931 232.828 62.931 232.828 56.469 250.559 56.469 250.559 69.393 262.719 69.393 262.719 63.792 264.237 63.792 264.237 53.884 272.708 53.884 272.708 50.007 267.278 50.007 267.278 37.946 253.094 37.946 253.094 44.837 237.39 44.837 237.39 33.919z" transform="translate(-18) translate(774)"/>
            <g transform="translate(-18) translate(774) translate(0 .316)">
                <path fill="#A27357" d="M263.111 40.926h2.506v-.1c-.836.022-1.672.056-2.506.1"/>
                <mask id="006w2q7kpb" fill="#fff">
                    <use xlink:href="#mmq7btq4la"/>
                </mask>
                <path fill="#7E4D2E" d="M239.921 34.034L248.026 34.034 248.026 28.434 239.921 28.434zM159.374 34.034L167.479 34.034 167.479 28.434 159.374 28.434zM116.816 34.034L124.921 34.034 124.921 28.434 116.816 28.434zM84.142 55.788L90.854 55.788 90.854 50.188 84.142 50.188zM99.211 60.167L105.924 60.167 105.924 54.567 99.211 54.567zM140.161 52.414L146.874 52.414 146.874 46.813 140.161 46.813zM133.535 60.67L140.246 60.67 140.246 55.069 133.535 55.069zM158.612 54.208L165.324 54.208 165.324 48.607 158.612 48.607zM178.875 55.788L185.588 55.788 185.588 50.188 178.875 50.188zM190.275 58.588L196.989 58.588 196.989 52.987 190.275 52.987zM206.106 51.408L212.819 51.408 212.819 45.809 206.106 45.809zM223.521 53.347L230.234 53.347 230.234 47.748 223.521 47.748zM250.538 51.408L257.252 51.408 257.252 45.809 250.538 45.809zM255.69 61.388L262.401 61.388 262.401 55.788 255.69 55.788zM239.921 58.588L246.635 58.588 246.635 52.987 239.921 52.987zM210.866 67.706L217.579 67.706 217.579 62.106 210.866 62.106zM70.716 61.388L77.427 61.388 77.427 55.788 70.716 55.788zM47.412 61.791L54.123 61.791 54.123 56.192 47.412 56.192zM35.591 50.188L42.304 50.188 42.304 44.586 35.591 44.586zM18.029 58.157L24.742 58.157 24.742 52.557 18.029 52.557zM81.86 34.034L89.965 34.034 89.965 28.434 81.86 28.434zM183.688 36.555L191.793 36.555 191.793 30.952 183.688 30.952zM210.17 36.404L218.275 36.404 218.275 30.803 210.17 30.803zM42.851 36.404L50.961 36.404 50.961 30.803 42.851 30.803z" mask="url(#006w2q7kpb)"/>
                <path fill="#523118" d="M243.345 63.124L251.451 63.124 251.451 57.524 243.345 57.524zM162.796 63.124L170.9 63.124 170.9 57.524 162.796 57.524zM120.24 63.124L128.345 63.124 128.345 57.524 120.24 57.524zM85.284 63.124L93.389 63.124 93.389 57.524 85.284 57.524zM187.111 65.644L195.216 65.644 195.216 60.043 187.111 60.043zM213.594 65.493L221.699 65.493 221.699 59.894 213.594 59.894zM46.275 65.493L54.383 65.493 54.383 59.894 46.275 59.894z" mask="url(#006w2q7kpb)"/>
                <path fill="#8BA648" d="M73.754 36.835L81.86 36.835 81.86 31.234 73.754 31.234zM97.819 36.555L105.924 36.555 105.924 30.952 97.819 30.952zM129.483 38.02L137.588 38.02 137.588 32.418 129.483 32.418zM145.944 36.555L154.052 36.555 154.052 30.952 145.944 30.952zM175.582 38.02L183.687 38.02 183.687 32.418 175.582 32.418zM198 38.02L206.106 38.02 206.106 32.418 198 32.418zM222.822 38.02L230.93 38.02 230.93 32.418 222.822 32.418zM252.714 34.68L260.819 34.68 260.819 29.081 252.714 29.081zM56.784 38.02L64.889 38.02 64.889 32.418 56.784 32.418zM25.12 36.404L33.228 36.404 33.228 30.803 25.12 30.803z" mask="url(#006w2q7kpb)"/>
                <path fill="#A2C253" d="M0 27.163L16.795 27.163 16.795.004 0 .004zM262.749 27.163L281.322 27.163 281.322.004 262.749.004z" mask="url(#006w2q7kpb)"/>
                <path fill="#A2C253" d="M142.17 33.604L402.804 33.604 402.804 0.004 142.17 0.004z" mask="url(#006w2q7kpb)"/>
                <path fill="#8BA648" d="M395.351 8.768L395.351 13.937 390.284 13.937 390.284 19.107 378.632 19.107 378.632 23.414 367.486 23.414 367.486 16.091 362.418 16.091 362.418 13.937 352.287 13.937 352.287 11.352 343.167 11.352 343.167 17.814 338.609 17.814 338.609 27.291 333.545 27.291 333.545 17.814 325.436 17.814 325.436 9.198 319.866 9.198 319.866 21.261 301.626 21.261 301.626 9.63 284.909 9.63 284.909 18.244 275.79 18.244 275.79 22.553 264.138 22.553 264.138 16.952 260.085 16.952 260.085 19.537 248.433 19.537 248.433 5.753 237.796 5.753 237.796 12.645 222.09 12.645 222.09 17.383 199.296 17.383 199.296 29.446 189.161 29.446 189.161 12.645 175.988 12.645 175.988 18.676 158.763 18.676 158.763 27.291 142.17 27.291 142.17 33.604 402.804 33.604 402.804 8.768z" mask="url(#006w2q7kpb)"/>
                <path fill="#7E4D2E" d="M142.169 71.68L402.807 71.68 402.807 33.604 142.169 33.604z" mask="url(#006w2q7kpb)"/>
                <path fill="#945835" d="M154.205 71.68L160.793 71.68 160.793 56.584 170.416 56.584 170.416 64.338 177.509 64.338 177.509 59.168 193.214 59.168 193.214 66.062 200.813 66.062 200.813 59.601 215.503 59.601 215.503 67.354 226.649 67.354 226.649 61.753 236.275 61.753 236.275 63.477 250.459 63.477 250.459 59.168 275.284 59.168 275.284 56.584 306.187 56.584 306.187 66.062 310.745 66.062 310.745 60.894 335.571 60.894 335.571 71.68 345.196 71.68 345.196 53.569 355.328 53.569 355.328 62.616 362.924 62.616 362.924 56.154 380.658 56.154 380.658 69.077 392.816 69.077 392.816 63.477 394.334 63.477 394.334 53.569 402.808 53.569 402.808 49.692 397.374 49.692 397.374 37.63 383.191 37.63 383.191 44.522 367.486 44.522 367.486 33.604 361.916 33.604 361.916 42.8 354.819 42.8 354.819 46.246 345.702 46.246 345.702 42.8 332.024 42.8 332.024 47.969 318.851 47.969 318.851 33.604 316.319 33.604 316.319 41.938 300.614 41.938 300.614 50.984 281.362 50.984 281.362 44.092 268.696 44.092 268.696 40.215 264.644 40.215 264.644 53.569 250.459 53.569 250.459 44.953 243.369 44.953 243.369 51.416 230.702 51.416 230.702 44.092 219.05 44.092 219.05 38.06 214.491 38.06 214.491 42.8 210.439 42.8 210.439 49.692 201.825 49.692 201.825 42.8 190.684 42.8 190.684 51.416 182.067 51.416 182.067 40.215 165.86 40.215 165.86 44.953 152.179 44.953 152.179 52.708 142.169 52.708 142.169 60.46 154.205 60.46z" mask="url(#006w2q7kpb)"/>
                <path fill="#A27357" d="M393.208 40.926h2.506v-.1c-.836.022-1.67.056-2.506.1" mask="url(#006w2q7kpb)"/>
                <path fill="#7E4D2E" d="M370.018 34.034L378.123 34.034 378.123 28.434 370.018 28.434zM289.468 34.034L297.573 34.034 297.573 28.434 289.468 28.434zM246.913 34.034L255.018 34.034 255.018 28.434 246.913 28.434zM214.237 55.788L220.951 55.788 220.951 50.188 214.237 50.188zM229.31 60.167L236.02 60.167 236.02 54.567 229.31 54.567zM270.26 52.414L276.971 52.414 276.971 46.813 270.26 46.813zM263.632 60.67L270.345 60.67 270.345 55.069 263.632 55.069zM288.708 54.208L295.421 54.208 295.421 48.607 288.708 48.607zM308.971 55.788L315.684 55.788 315.684 50.188 308.971 50.188zM320.372 58.588L327.082 58.588 327.082 52.987 320.372 52.987zM336.202 51.408L342.916 51.408 342.916 45.809 336.202 45.809zM353.62 53.347L360.331 53.347 360.331 47.748 353.62 47.748zM380.635 51.408L387.348 51.408 387.348 45.809 380.635 45.809zM385.787 61.388L392.498 61.388 392.498 55.788 385.787 55.788zM370.018 58.588L376.731 58.588 376.731 52.987 370.018 52.987zM340.962 67.706L347.676 67.706 347.676 62.106 340.962 62.106zM200.813 61.388L207.526 61.388 207.526 55.788 200.813 55.788zM177.509 61.791L184.222 61.791 184.222 56.192 177.509 56.192zM165.687 50.188L172.401 50.188 172.401 44.586 165.687 44.586zM148.126 58.157L154.839 58.157 154.839 52.557 148.126 52.557zM211.959 34.034L220.068 34.034 220.068 28.434 211.959 28.434zM313.784 36.555L321.892 36.555 321.892 30.952 313.784 30.952zM340.269 36.404L348.372 36.404 348.372 30.803 340.269 30.803zM172.951 36.404L181.056 36.404 181.056 30.803 172.951 30.803z" mask="url(#006w2q7kpb)"/>
                <path fill="#523118" d="M373.442 63.124L381.547 63.124 381.547 57.524 373.442 57.524zM292.892 63.124L300.997 63.124 300.997 57.524 292.892 57.524zM250.336 63.124L258.442 63.124 258.442 57.524 250.336 57.524zM215.38 63.124L223.489 63.124 223.489 57.524 215.38 57.524zM317.208 65.644L325.316 65.644 325.316 60.043 317.208 60.043zM343.691 65.493L351.796 65.493 351.796 59.894 343.691 59.894zM176.374 65.493L184.479 65.493 184.479 59.894 176.374 59.894z" mask="url(#006w2q7kpb)"/>
                <path fill="#8BA648" d="M203.851 36.835L211.959 36.835 211.959 31.234 203.851 31.234zM227.916 36.555L236.02 36.555 236.02 30.952 227.916 30.952zM259.58 38.02L267.684 38.02 267.684 32.418 259.58 32.418zM276.044 36.555L284.149 36.555 284.149 30.952 276.044 30.952zM305.681 38.02L313.784 38.02 313.784 32.418 305.681 32.418zM328.097 38.02L336.202 38.02 336.202 32.418 328.097 32.418zM352.921 38.02L361.027 38.02 361.027 32.418 352.921 32.418zM382.813 34.68L390.919 34.68 390.919 29.081 382.813 29.081zM186.883 38.02L194.986 38.02 194.986 32.418 186.883 32.418zM155.22 36.404L163.324 36.404 163.324 30.803 155.22 30.803z" mask="url(#006w2q7kpb)"/>
                <path fill="#A2C253" d="M130.1 27.163L146.895 27.163 146.895.004 130.1.004zM392.848 27.163L411.415 27.163 411.415.004 392.848.004z" mask="url(#006w2q7kpb)"/>
            </g>
            <g>
                <path fill="#A2C253" d="M12.073 33.919L272.708 33.919 272.708 0.32 12.073 0.32z" transform="translate(-18) translate(774) translate(390)"/>
                <path fill="#8BA648" d="M265.252 9.083L265.252 14.253 260.184 14.253 260.184 19.423 248.532 19.423 248.532 23.729 237.389 23.729 237.389 16.406 232.322 16.406 232.322 14.253 222.19 14.253 222.19 11.668 213.071 11.668 213.071 18.13 208.512 18.13 208.512 27.607 203.447 27.607 203.447 18.13 195.339 18.13 195.339 9.513 189.766 9.513 189.766 21.576 171.529 21.576 171.529 9.946 154.813 9.946 154.813 18.56 145.693 18.56 145.693 22.868 134.041 22.868 134.041 17.267 129.991 17.267 129.991 19.852 118.336 19.852 118.336 6.069 107.696 6.069 107.696 12.96 91.994 12.96 91.994 17.699 69.196 17.699 69.196 29.762 59.066 29.762 59.066 12.96 45.892 12.96 45.892 18.991 28.667 18.991 28.667 27.607 12.073 27.607 12.073 33.919 272.708 33.919 272.708 9.083z" transform="translate(-18) translate(774) translate(390)"/>
                <path fill="#7E4D2E" d="M12.073 71.996L272.708 71.996 272.708 33.919 12.073 33.919z" transform="translate(-18) translate(774) translate(390)"/>
                <path fill="#945835" d="M231.816 33.919L231.816 43.115 224.722 43.115 224.722 46.561 215.606 46.561 215.606 43.115 201.927 43.115 201.927 48.285 188.754 48.285 188.754 33.919 186.219 33.919 186.219 42.253 170.518 42.253 170.518 51.3 151.266 51.3 151.266 44.408 138.603 44.408 138.603 40.531 134.547 40.531 134.547 53.884 120.362 53.884 120.362 45.268 113.269 45.268 113.269 51.731 100.605 51.731 100.605 44.408 88.953 44.408 88.953 38.376 84.395 38.376 84.395 43.115 80.342 43.115 80.342 50.007 71.73 50.007 71.73 43.115 60.582 43.115 60.582 51.731 51.971 51.731 51.971 40.531 35.76 40.531 35.76 45.268 22.082 45.268 22.082 53.023 12.073 53.023 12.073 60.776 24.108 60.776 24.108 71.995 30.693 71.995 30.693 56.899 40.319 56.899 40.319 64.653 47.413 64.653 47.413 59.484 63.117 59.484 63.117 66.378 70.716 66.378 70.716 59.917 85.406 59.917 85.406 67.669 96.553 67.669 96.553 62.069 106.178 62.069 106.178 63.792 120.362 63.792 120.362 59.484 145.187 59.484 145.187 56.899 176.091 56.899 176.091 66.378 180.649 66.378 180.649 61.209 205.471 61.209 205.471 71.995 215.097 71.995 215.097 53.884 225.231 53.884 225.231 62.931 232.828 62.931 232.828 56.469 250.559 56.469 250.559 69.393 262.719 69.393 262.719 63.792 264.237 63.792 264.237 53.884 272.708 53.884 272.708 50.007 267.278 50.007 267.278 37.946 253.094 37.946 253.094 44.837 237.39 44.837 237.39 33.919z" transform="translate(-18) translate(774) translate(390)"/>
                <g transform="translate(-18) translate(774) translate(390) translate(0 .316)">
                    <path fill="#A27357" d="M263.111 40.926h2.506v-.1c-.836.022-1.672.056-2.506.1"/>
                    <mask id="eumwot19id" fill="#fff">
                        <use xlink:href="#kpkyh8pr2c"/>
                    </mask>
                    <path fill="#7E4D2E" d="M239.921 34.034L248.026 34.034 248.026 28.434 239.921 28.434zM159.374 34.034L167.479 34.034 167.479 28.434 159.374 28.434zM116.816 34.034L124.921 34.034 124.921 28.434 116.816 28.434zM84.142 55.788L90.854 55.788 90.854 50.188 84.142 50.188zM99.211 60.167L105.924 60.167 105.924 54.567 99.211 54.567zM140.161 52.414L146.874 52.414 146.874 46.813 140.161 46.813zM133.535 60.67L140.246 60.67 140.246 55.069 133.535 55.069zM158.612 54.208L165.324 54.208 165.324 48.607 158.612 48.607zM178.875 55.788L185.588 55.788 185.588 50.188 178.875 50.188zM190.275 58.588L196.989 58.588 196.989 52.987 190.275 52.987zM206.106 51.408L212.819 51.408 212.819 45.809 206.106 45.809zM223.521 53.347L230.234 53.347 230.234 47.748 223.521 47.748zM250.538 51.408L257.252 51.408 257.252 45.809 250.538 45.809zM255.69 61.388L262.401 61.388 262.401 55.788 255.69 55.788zM239.921 58.588L246.635 58.588 246.635 52.987 239.921 52.987zM210.866 67.706L217.579 67.706 217.579 62.106 210.866 62.106zM70.716 61.388L77.427 61.388 77.427 55.788 70.716 55.788zM47.412 61.791L54.123 61.791 54.123 56.192 47.412 56.192zM35.591 50.188L42.304 50.188 42.304 44.586 35.591 44.586zM18.029 58.157L24.742 58.157 24.742 52.557 18.029 52.557zM81.86 34.034L89.965 34.034 89.965 28.434 81.86 28.434zM183.688 36.555L191.793 36.555 191.793 30.952 183.688 30.952zM210.17 36.404L218.275 36.404 218.275 30.803 210.17 30.803zM42.851 36.404L50.961 36.404 50.961 30.803 42.851 30.803z" mask="url(#eumwot19id)"/>
                    <path fill="#523118" d="M243.345 63.124L251.451 63.124 251.451 57.524 243.345 57.524zM162.796 63.124L170.9 63.124 170.9 57.524 162.796 57.524zM120.24 63.124L128.345 63.124 128.345 57.524 120.24 57.524zM85.284 63.124L93.389 63.124 93.389 57.524 85.284 57.524zM187.111 65.644L195.216 65.644 195.216 60.043 187.111 60.043zM213.594 65.493L221.699 65.493 221.699 59.894 213.594 59.894zM46.275 65.493L54.383 65.493 54.383 59.894 46.275 59.894z" mask="url(#eumwot19id)"/>
                    <path fill="#8BA648" d="M73.754 36.835L81.86 36.835 81.86 31.234 73.754 31.234zM97.819 36.555L105.924 36.555 105.924 30.952 97.819 30.952zM129.483 38.02L137.588 38.02 137.588 32.418 129.483 32.418zM145.944 36.555L154.052 36.555 154.052 30.952 145.944 30.952zM175.582 38.02L183.687 38.02 183.687 32.418 175.582 32.418zM198 38.02L206.106 38.02 206.106 32.418 198 32.418zM222.822 38.02L230.93 38.02 230.93 32.418 222.822 32.418zM252.714 34.68L260.819 34.68 260.819 29.081 252.714 29.081zM56.784 38.02L64.889 38.02 64.889 32.418 56.784 32.418zM25.12 36.404L33.228 36.404 33.228 30.803 25.12 30.803z" mask="url(#eumwot19id)"/>
                    <path fill="#A2C253" d="M0 27.163L16.795 27.163 16.795.004 0 .004zM262.749 27.163L281.322 27.163 281.322.004 262.749.004z" mask="url(#eumwot19id)"/>
                    <path fill="#A2C253" d="M142.17 33.604L402.804 33.604 402.804 0.004 142.17 0.004z" mask="url(#eumwot19id)"/>
                    <path fill="#8BA648" d="M395.351 8.768L395.351 13.937 390.284 13.937 390.284 19.107 378.632 19.107 378.632 23.414 367.486 23.414 367.486 16.091 362.418 16.091 362.418 13.937 352.287 13.937 352.287 11.352 343.167 11.352 343.167 17.814 338.609 17.814 338.609 27.291 333.545 27.291 333.545 17.814 325.436 17.814 325.436 9.198 319.866 9.198 319.866 21.261 301.626 21.261 301.626 9.63 284.909 9.63 284.909 18.244 275.79 18.244 275.79 22.553 264.138 22.553 264.138 16.952 260.085 16.952 260.085 19.537 248.433 19.537 248.433 5.753 237.796 5.753 237.796 12.645 222.09 12.645 222.09 17.383 199.296 17.383 199.296 29.446 189.161 29.446 189.161 12.645 175.988 12.645 175.988 18.676 158.763 18.676 158.763 27.291 142.17 27.291 142.17 33.604 402.804 33.604 402.804 8.768z" mask="url(#eumwot19id)"/>
                    <path fill="#7E4D2E" d="M142.169 71.68L402.807 71.68 402.807 33.604 142.169 33.604z" mask="url(#eumwot19id)"/>
                    <path fill="#945835" d="M154.205 71.68L160.793 71.68 160.793 56.584 170.416 56.584 170.416 64.338 177.509 64.338 177.509 59.168 193.214 59.168 193.214 66.062 200.813 66.062 200.813 59.601 215.503 59.601 215.503 67.354 226.649 67.354 226.649 61.753 236.275 61.753 236.275 63.477 250.459 63.477 250.459 59.168 275.284 59.168 275.284 56.584 306.187 56.584 306.187 66.062 310.745 66.062 310.745 60.894 335.571 60.894 335.571 71.68 345.196 71.68 345.196 53.569 355.328 53.569 355.328 62.616 362.924 62.616 362.924 56.154 380.658 56.154 380.658 69.077 392.816 69.077 392.816 63.477 394.334 63.477 394.334 53.569 402.808 53.569 402.808 49.692 397.374 49.692 397.374 37.63 383.191 37.63 383.191 44.522 367.486 44.522 367.486 33.604 361.916 33.604 361.916 42.8 354.819 42.8 354.819 46.246 345.702 46.246 345.702 42.8 332.024 42.8 332.024 47.969 318.851 47.969 318.851 33.604 316.319 33.604 316.319 41.938 300.614 41.938 300.614 50.984 281.362 50.984 281.362 44.092 268.696 44.092 268.696 40.215 264.644 40.215 264.644 53.569 250.459 53.569 250.459 44.953 243.369 44.953 243.369 51.416 230.702 51.416 230.702 44.092 219.05 44.092 219.05 38.06 214.491 38.06 214.491 42.8 210.439 42.8 210.439 49.692 201.825 49.692 201.825 42.8 190.684 42.8 190.684 51.416 182.067 51.416 182.067 40.215 165.86 40.215 165.86 44.953 152.179 44.953 152.179 52.708 142.169 52.708 142.169 60.46 154.205 60.46z" mask="url(#eumwot19id)"/>
                    <path fill="#A27357" d="M393.208 40.926h2.506v-.1c-.836.022-1.67.056-2.506.1" mask="url(#eumwot19id)"/>
                    <path fill="#7E4D2E" d="M370.018 34.034L378.123 34.034 378.123 28.434 370.018 28.434zM289.468 34.034L297.573 34.034 297.573 28.434 289.468 28.434zM246.913 34.034L255.018 34.034 255.018 28.434 246.913 28.434zM214.237 55.788L220.951 55.788 220.951 50.188 214.237 50.188zM229.31 60.167L236.02 60.167 236.02 54.567 229.31 54.567zM270.26 52.414L276.971 52.414 276.971 46.813 270.26 46.813zM263.632 60.67L270.345 60.67 270.345 55.069 263.632 55.069zM288.708 54.208L295.421 54.208 295.421 48.607 288.708 48.607zM308.971 55.788L315.684 55.788 315.684 50.188 308.971 50.188zM320.372 58.588L327.082 58.588 327.082 52.987 320.372 52.987zM336.202 51.408L342.916 51.408 342.916 45.809 336.202 45.809zM353.62 53.347L360.331 53.347 360.331 47.748 353.62 47.748zM380.635 51.408L387.348 51.408 387.348 45.809 380.635 45.809zM385.787 61.388L392.498 61.388 392.498 55.788 385.787 55.788zM370.018 58.588L376.731 58.588 376.731 52.987 370.018 52.987zM340.962 67.706L347.676 67.706 347.676 62.106 340.962 62.106zM200.813 61.388L207.526 61.388 207.526 55.788 200.813 55.788zM177.509 61.791L184.222 61.791 184.222 56.192 177.509 56.192zM165.687 50.188L172.401 50.188 172.401 44.586 165.687 44.586zM148.126 58.157L154.839 58.157 154.839 52.557 148.126 52.557zM211.959 34.034L220.068 34.034 220.068 28.434 211.959 28.434zM313.784 36.555L321.892 36.555 321.892 30.952 313.784 30.952zM340.269 36.404L348.372 36.404 348.372 30.803 340.269 30.803zM172.951 36.404L181.056 36.404 181.056 30.803 172.951 30.803z" mask="url(#eumwot19id)"/>
                    <path fill="#523118" d="M373.442 63.124L381.547 63.124 381.547 57.524 373.442 57.524zM292.892 63.124L300.997 63.124 300.997 57.524 292.892 57.524zM250.336 63.124L258.442 63.124 258.442 57.524 250.336 57.524zM215.38 63.124L223.489 63.124 223.489 57.524 215.38 57.524zM317.208 65.644L325.316 65.644 325.316 60.043 317.208 60.043zM343.691 65.493L351.796 65.493 351.796 59.894 343.691 59.894zM176.374 65.493L184.479 65.493 184.479 59.894 176.374 59.894z" mask="url(#eumwot19id)"/>
                    <path fill="#8BA648" d="M203.851 36.835L211.959 36.835 211.959 31.234 203.851 31.234zM227.916 36.555L236.02 36.555 236.02 30.952 227.916 30.952zM259.58 38.02L267.684 38.02 267.684 32.418 259.58 32.418zM276.044 36.555L284.149 36.555 284.149 30.952 276.044 30.952zM305.681 38.02L313.784 38.02 313.784 32.418 305.681 32.418zM328.097 38.02L336.202 38.02 336.202 32.418 328.097 32.418zM352.921 38.02L361.027 38.02 361.027 32.418 352.921 32.418zM382.813 34.68L390.919 34.68 390.919 29.081 382.813 29.081zM186.883 38.02L194.986 38.02 194.986 32.418 186.883 32.418zM155.22 36.404L163.324 36.404 163.324 30.803 155.22 30.803z" mask="url(#eumwot19id)"/>
                    <path fill="#A2C253" d="M130.1 27.163L146.895 27.163 146.895.004 130.1.004zM392.848 27.163L411.415 27.163 411.415.004 392.848.004z" mask="url(#eumwot19id)"/>
                </g>
            </g>
        </g>
        <path fill="#A2C253" d="M12.073 33.919L272.708 33.919 272.708 0.32 12.073 0.32z" transform="translate(-18)"/>
        <path fill="#8BA648" d="M265.252 9.083L265.252 14.253 260.184 14.253 260.184 19.423 248.532 19.423 248.532 23.729 237.389 23.729 237.389 16.406 232.322 16.406 232.322 14.253 222.19 14.253 222.19 11.668 213.071 11.668 213.071 18.13 208.512 18.13 208.512 27.607 203.447 27.607 203.447 18.13 195.339 18.13 195.339 9.513 189.766 9.513 189.766 21.576 171.529 21.576 171.529 9.946 154.813 9.946 154.813 18.56 145.693 18.56 145.693 22.868 134.041 22.868 134.041 17.267 129.991 17.267 129.991 19.852 118.336 19.852 118.336 6.069 107.696 6.069 107.696 12.96 91.994 12.96 91.994 17.699 69.196 17.699 69.196 29.762 59.066 29.762 59.066 12.96 45.892 12.96 45.892 18.991 28.667 18.991 28.667 27.607 12.073 27.607 12.073 33.919 272.708 33.919 272.708 9.083z" transform="translate(-18)"/>
        <path fill="#7E4D2E" d="M12.073 71.996L272.708 71.996 272.708 33.919 12.073 33.919z" transform="translate(-18)"/>
        <path fill="#945835" d="M231.816 33.919L231.816 43.115 224.722 43.115 224.722 46.561 215.606 46.561 215.606 43.115 201.927 43.115 201.927 48.285 188.754 48.285 188.754 33.919 186.219 33.919 186.219 42.253 170.518 42.253 170.518 51.3 151.266 51.3 151.266 44.408 138.603 44.408 138.603 40.531 134.547 40.531 134.547 53.884 120.362 53.884 120.362 45.268 113.269 45.268 113.269 51.731 100.605 51.731 100.605 44.408 88.953 44.408 88.953 38.376 84.395 38.376 84.395 43.115 80.342 43.115 80.342 50.007 71.73 50.007 71.73 43.115 60.582 43.115 60.582 51.731 51.971 51.731 51.971 40.531 35.76 40.531 35.76 45.268 22.082 45.268 22.082 53.023 12.073 53.023 12.073 60.776 24.108 60.776 24.108 71.995 30.693 71.995 30.693 56.899 40.319 56.899 40.319 64.653 47.413 64.653 47.413 59.484 63.117 59.484 63.117 66.378 70.716 66.378 70.716 59.917 85.406 59.917 85.406 67.669 96.553 67.669 96.553 62.069 106.178 62.069 106.178 63.792 120.362 63.792 120.362 59.484 145.187 59.484 145.187 56.899 176.091 56.899 176.091 66.378 180.649 66.378 180.649 61.209 205.471 61.209 205.471 71.995 215.097 71.995 215.097 53.884 225.231 53.884 225.231 62.931 232.828 62.931 232.828 56.469 250.559 56.469 250.559 69.393 262.719 69.393 262.719 63.792 264.237 63.792 264.237 53.884 272.708 53.884 272.708 50.007 267.278 50.007 267.278 37.946 253.094 37.946 253.094 44.837 237.39 44.837 237.39 33.919z" transform="translate(-18)"/>
        <g transform="translate(-18) translate(0 .316)">
            <path fill="#A27357" d="M263.111 40.926h2.506v-.1c-.836.022-1.672.056-2.506.1"/>
            <mask id="nh1o3uz4gf" fill="#fff">
                <use xlink:href="#nz1mlmitbe"/>
            </mask>
            <path fill="#7E4D2E" d="M239.921 34.034L248.026 34.034 248.026 28.434 239.921 28.434zM159.374 34.034L167.479 34.034 167.479 28.434 159.374 28.434zM116.816 34.034L124.921 34.034 124.921 28.434 116.816 28.434zM84.142 55.788L90.854 55.788 90.854 50.188 84.142 50.188zM99.211 60.167L105.924 60.167 105.924 54.567 99.211 54.567zM140.161 52.414L146.874 52.414 146.874 46.813 140.161 46.813zM133.535 60.67L140.246 60.67 140.246 55.069 133.535 55.069zM158.612 54.208L165.324 54.208 165.324 48.607 158.612 48.607zM178.875 55.788L185.588 55.788 185.588 50.188 178.875 50.188zM190.275 58.588L196.989 58.588 196.989 52.987 190.275 52.987zM206.106 51.408L212.819 51.408 212.819 45.809 206.106 45.809zM223.521 53.347L230.234 53.347 230.234 47.748 223.521 47.748zM250.538 51.408L257.252 51.408 257.252 45.809 250.538 45.809zM255.69 61.388L262.401 61.388 262.401 55.788 255.69 55.788zM239.921 58.588L246.635 58.588 246.635 52.987 239.921 52.987zM210.866 67.706L217.579 67.706 217.579 62.106 210.866 62.106zM70.716 61.388L77.427 61.388 77.427 55.788 70.716 55.788zM47.412 61.791L54.123 61.791 54.123 56.192 47.412 56.192zM35.591 50.188L42.304 50.188 42.304 44.586 35.591 44.586zM18.029 58.157L24.742 58.157 24.742 52.557 18.029 52.557zM81.86 34.034L89.965 34.034 89.965 28.434 81.86 28.434zM183.688 36.555L191.793 36.555 191.793 30.952 183.688 30.952zM210.17 36.404L218.275 36.404 218.275 30.803 210.17 30.803zM42.851 36.404L50.961 36.404 50.961 30.803 42.851 30.803z" mask="url(#nh1o3uz4gf)"/>
            <path fill="#523118" d="M243.345 63.124L251.451 63.124 251.451 57.524 243.345 57.524zM162.796 63.124L170.9 63.124 170.9 57.524 162.796 57.524zM120.24 63.124L128.345 63.124 128.345 57.524 120.24 57.524zM85.284 63.124L93.389 63.124 93.389 57.524 85.284 57.524zM187.111 65.644L195.216 65.644 195.216 60.043 187.111 60.043zM213.594 65.493L221.699 65.493 221.699 59.894 213.594 59.894zM46.275 65.493L54.383 65.493 54.383 59.894 46.275 59.894z" mask="url(#nh1o3uz4gf)"/>
            <path fill="#8BA648" d="M73.754 36.835L81.86 36.835 81.86 31.234 73.754 31.234zM97.819 36.555L105.924 36.555 105.924 30.952 97.819 30.952zM129.483 38.02L137.588 38.02 137.588 32.418 129.483 32.418zM145.944 36.555L154.052 36.555 154.052 30.952 145.944 30.952zM175.582 38.02L183.687 38.02 183.687 32.418 175.582 32.418zM198 38.02L206.106 38.02 206.106 32.418 198 32.418zM222.822 38.02L230.93 38.02 230.93 32.418 222.822 32.418zM252.714 34.68L260.819 34.68 260.819 29.081 252.714 29.081zM56.784 38.02L64.889 38.02 64.889 32.418 56.784 32.418zM25.12 36.404L33.228 36.404 33.228 30.803 25.12 30.803z" mask="url(#nh1o3uz4gf)"/>
            <path fill="#A2C253" d="M262.749 27.163L281.322 27.163 281.322 0.004 262.749 0.004z" mask="url(#nh1o3uz4gf)"/>
            <path fill="#A2C253" d="M142.17 33.604L402.804 33.604 402.804 0.004 142.17 0.004z" mask="url(#nh1o3uz4gf)"/>
            <path fill="#8BA648" d="M395.351 8.768L395.351 13.937 390.284 13.937 390.284 19.107 378.632 19.107 378.632 23.414 367.486 23.414 367.486 16.091 362.418 16.091 362.418 13.937 352.287 13.937 352.287 11.352 343.167 11.352 343.167 17.814 338.609 17.814 338.609 27.291 333.545 27.291 333.545 17.814 325.436 17.814 325.436 9.198 319.866 9.198 319.866 21.261 301.626 21.261 301.626 9.63 284.909 9.63 284.909 18.244 275.79 18.244 275.79 22.553 264.138 22.553 264.138 16.952 260.085 16.952 260.085 19.537 248.433 19.537 248.433 5.753 237.796 5.753 237.796 12.645 222.09 12.645 222.09 17.383 199.296 17.383 199.296 29.446 189.161 29.446 189.161 12.645 175.988 12.645 175.988 18.676 158.763 18.676 158.763 27.291 142.17 27.291 142.17 33.604 402.804 33.604 402.804 8.768z" mask="url(#nh1o3uz4gf)"/>
            <path fill="#7E4D2E" d="M142.169 71.68L402.807 71.68 402.807 33.604 142.169 33.604z" mask="url(#nh1o3uz4gf)"/>
            <path fill="#945835" d="M154.205 71.68L160.793 71.68 160.793 56.584 170.416 56.584 170.416 64.338 177.509 64.338 177.509 59.168 193.214 59.168 193.214 66.062 200.813 66.062 200.813 59.601 215.503 59.601 215.503 67.354 226.649 67.354 226.649 61.753 236.275 61.753 236.275 63.477 250.459 63.477 250.459 59.168 275.284 59.168 275.284 56.584 306.187 56.584 306.187 66.062 310.745 66.062 310.745 60.894 335.571 60.894 335.571 71.68 345.196 71.68 345.196 53.569 355.328 53.569 355.328 62.616 362.924 62.616 362.924 56.154 380.658 56.154 380.658 69.077 392.816 69.077 392.816 63.477 394.334 63.477 394.334 53.569 402.808 53.569 402.808 49.692 397.374 49.692 397.374 37.63 383.191 37.63 383.191 44.522 367.486 44.522 367.486 33.604 361.916 33.604 361.916 42.8 354.819 42.8 354.819 46.246 345.702 46.246 345.702 42.8 332.024 42.8 332.024 47.969 318.851 47.969 318.851 33.604 316.319 33.604 316.319 41.938 300.614 41.938 300.614 50.984 281.362 50.984 281.362 44.092 268.696 44.092 268.696 40.215 264.644 40.215 264.644 53.569 250.459 53.569 250.459 44.953 243.369 44.953 243.369 51.416 230.702 51.416 230.702 44.092 219.05 44.092 219.05 38.06 214.491 38.06 214.491 42.8 210.439 42.8 210.439 49.692 201.825 49.692 201.825 42.8 190.684 42.8 190.684 51.416 182.067 51.416 182.067 40.215 165.86 40.215 165.86 44.953 152.179 44.953 152.179 52.708 142.169 52.708 142.169 60.46 154.205 60.46z" mask="url(#nh1o3uz4gf)"/>
            <path fill="#A27357" d="M393.208 40.926h2.506v-.1c-.836.022-1.67.056-2.506.1" mask="url(#nh1o3uz4gf)"/>
            <path fill="#7E4D2E" d="M370.018 34.034L378.123 34.034 378.123 28.434 370.018 28.434zM289.468 34.034L297.573 34.034 297.573 28.434 289.468 28.434zM246.913 34.034L255.018 34.034 255.018 28.434 246.913 28.434zM214.237 55.788L220.951 55.788 220.951 50.188 214.237 50.188zM229.31 60.167L236.02 60.167 236.02 54.567 229.31 54.567zM270.26 52.414L276.971 52.414 276.971 46.813 270.26 46.813zM263.632 60.67L270.345 60.67 270.345 55.069 263.632 55.069zM288.708 54.208L295.421 54.208 295.421 48.607 288.708 48.607zM308.971 55.788L315.684 55.788 315.684 50.188 308.971 50.188zM320.372 58.588L327.082 58.588 327.082 52.987 320.372 52.987zM336.202 51.408L342.916 51.408 342.916 45.809 336.202 45.809zM353.62 53.347L360.331 53.347 360.331 47.748 353.62 47.748zM380.635 51.408L387.348 51.408 387.348 45.809 380.635 45.809zM385.787 61.388L392.498 61.388 392.498 55.788 385.787 55.788zM370.018 58.588L376.731 58.588 376.731 52.987 370.018 52.987zM340.962 67.706L347.676 67.706 347.676 62.106 340.962 62.106zM200.813 61.388L207.526 61.388 207.526 55.788 200.813 55.788zM177.509 61.791L184.222 61.791 184.222 56.192 177.509 56.192zM165.687 50.188L172.401 50.188 172.401 44.586 165.687 44.586zM148.126 58.157L154.839 58.157 154.839 52.557 148.126 52.557zM211.959 34.034L220.068 34.034 220.068 28.434 211.959 28.434zM313.784 36.555L321.892 36.555 321.892 30.952 313.784 30.952zM340.269 36.404L348.372 36.404 348.372 30.803 340.269 30.803zM172.951 36.404L181.056 36.404 181.056 30.803 172.951 30.803z" mask="url(#nh1o3uz4gf)"/>
            <path fill="#523118" d="M373.442 63.124L381.547 63.124 381.547 57.524 373.442 57.524zM292.892 63.124L300.997 63.124 300.997 57.524 292.892 57.524zM250.336 63.124L258.442 63.124 258.442 57.524 250.336 57.524zM215.38 63.124L223.489 63.124 223.489 57.524 215.38 57.524zM317.208 65.644L325.316 65.644 325.316 60.043 317.208 60.043zM343.691 65.493L351.796 65.493 351.796 59.894 343.691 59.894zM176.374 65.493L184.479 65.493 184.479 59.894 176.374 59.894z" mask="url(#nh1o3uz4gf)"/>
            <path fill="#8BA648" d="M203.851 36.835L211.959 36.835 211.959 31.234 203.851 31.234zM227.916 36.555L236.02 36.555 236.02 30.952 227.916 30.952zM259.58 38.02L267.684 38.02 267.684 32.418 259.58 32.418zM276.044 36.555L284.149 36.555 284.149 30.952 276.044 30.952zM305.681 38.02L313.784 38.02 313.784 32.418 305.681 32.418zM328.097 38.02L336.202 38.02 336.202 32.418 328.097 32.418zM352.921 38.02L361.027 38.02 361.027 32.418 352.921 32.418zM382.813 34.68L390.919 34.68 390.919 29.081 382.813 29.081zM186.883 38.02L194.986 38.02 194.986 32.418 186.883 32.418zM155.22 36.404L163.324 36.404 163.324 30.803 155.22 30.803z" mask="url(#nh1o3uz4gf)"/>
            <path fill="#A2C253" d="M130.1 27.163L146.895 27.163 146.895.004 130.1.004zM392.848 27.163L411.415 27.163 411.415.004 392.848.004z" mask="url(#nh1o3uz4gf)"/>
        </g>
        <g>
            <path fill="#A2C253" d="M12.073 33.919L272.708 33.919 272.708 0.32 12.073 0.32z" transform="translate(-18) translate(390)"/>
            <path fill="#8BA648" d="M265.252 9.083L265.252 14.253 260.184 14.253 260.184 19.423 248.532 19.423 248.532 23.729 237.389 23.729 237.389 16.406 232.322 16.406 232.322 14.253 222.19 14.253 222.19 11.668 213.071 11.668 213.071 18.13 208.512 18.13 208.512 27.607 203.447 27.607 203.447 18.13 195.339 18.13 195.339 9.513 189.766 9.513 189.766 21.576 171.529 21.576 171.529 9.946 154.813 9.946 154.813 18.56 145.693 18.56 145.693 22.868 134.041 22.868 134.041 17.267 129.991 17.267 129.991 19.852 118.336 19.852 118.336 6.069 107.696 6.069 107.696 12.96 91.994 12.96 91.994 17.699 69.196 17.699 69.196 29.762 59.066 29.762 59.066 12.96 45.892 12.96 45.892 18.991 28.667 18.991 28.667 27.607 12.073 27.607 12.073 33.919 272.708 33.919 272.708 9.083z" transform="translate(-18) translate(390)"/>
            <path fill="#7E4D2E" d="M12.073 71.996L272.708 71.996 272.708 33.919 12.073 33.919z" transform="translate(-18) translate(390)"/>
            <path fill="#945835" d="M231.816 33.919L231.816 43.115 224.722 43.115 224.722 46.561 215.606 46.561 215.606 43.115 201.927 43.115 201.927 48.285 188.754 48.285 188.754 33.919 186.219 33.919 186.219 42.253 170.518 42.253 170.518 51.3 151.266 51.3 151.266 44.408 138.603 44.408 138.603 40.531 134.547 40.531 134.547 53.884 120.362 53.884 120.362 45.268 113.269 45.268 113.269 51.731 100.605 51.731 100.605 44.408 88.953 44.408 88.953 38.376 84.395 38.376 84.395 43.115 80.342 43.115 80.342 50.007 71.73 50.007 71.73 43.115 60.582 43.115 60.582 51.731 51.971 51.731 51.971 40.531 35.76 40.531 35.76 45.268 22.082 45.268 22.082 53.023 12.073 53.023 12.073 60.776 24.108 60.776 24.108 71.995 30.693 71.995 30.693 56.899 40.319 56.899 40.319 64.653 47.413 64.653 47.413 59.484 63.117 59.484 63.117 66.378 70.716 66.378 70.716 59.917 85.406 59.917 85.406 67.669 96.553 67.669 96.553 62.069 106.178 62.069 106.178 63.792 120.362 63.792 120.362 59.484 145.187 59.484 145.187 56.899 176.091 56.899 176.091 66.378 180.649 66.378 180.649 61.209 205.471 61.209 205.471 71.995 215.097 71.995 215.097 53.884 225.231 53.884 225.231 62.931 232.828 62.931 232.828 56.469 250.559 56.469 250.559 69.393 262.719 69.393 262.719 63.792 264.237 63.792 264.237 53.884 272.708 53.884 272.708 50.007 267.278 50.007 267.278 37.946 253.094 37.946 253.094 44.837 237.39 44.837 237.39 33.919z" transform="translate(-18) translate(390)"/>
            <g transform="translate(-18) translate(390) translate(0 .316)">
                <path fill="#A27357" d="M263.111 40.926h2.506v-.1c-.836.022-1.672.056-2.506.1"/>
                <mask id="44vgth2cqh" fill="#fff">
                    <use xlink:href="#qlsarffefg"/>
                </mask>
                <path fill="#7E4D2E" d="M239.921 34.034L248.026 34.034 248.026 28.434 239.921 28.434zM159.374 34.034L167.479 34.034 167.479 28.434 159.374 28.434zM116.816 34.034L124.921 34.034 124.921 28.434 116.816 28.434zM84.142 55.788L90.854 55.788 90.854 50.188 84.142 50.188zM99.211 60.167L105.924 60.167 105.924 54.567 99.211 54.567zM140.161 52.414L146.874 52.414 146.874 46.813 140.161 46.813zM133.535 60.67L140.246 60.67 140.246 55.069 133.535 55.069zM158.612 54.208L165.324 54.208 165.324 48.607 158.612 48.607zM178.875 55.788L185.588 55.788 185.588 50.188 178.875 50.188zM190.275 58.588L196.989 58.588 196.989 52.987 190.275 52.987zM206.106 51.408L212.819 51.408 212.819 45.809 206.106 45.809zM223.521 53.347L230.234 53.347 230.234 47.748 223.521 47.748zM250.538 51.408L257.252 51.408 257.252 45.809 250.538 45.809zM255.69 61.388L262.401 61.388 262.401 55.788 255.69 55.788zM239.921 58.588L246.635 58.588 246.635 52.987 239.921 52.987zM210.866 67.706L217.579 67.706 217.579 62.106 210.866 62.106zM70.716 61.388L77.427 61.388 77.427 55.788 70.716 55.788zM47.412 61.791L54.123 61.791 54.123 56.192 47.412 56.192zM35.591 50.188L42.304 50.188 42.304 44.586 35.591 44.586zM18.029 58.157L24.742 58.157 24.742 52.557 18.029 52.557zM81.86 34.034L89.965 34.034 89.965 28.434 81.86 28.434zM183.688 36.555L191.793 36.555 191.793 30.952 183.688 30.952zM210.17 36.404L218.275 36.404 218.275 30.803 210.17 30.803zM42.851 36.404L50.961 36.404 50.961 30.803 42.851 30.803z" mask="url(#44vgth2cqh)"/>
                <path fill="#523118" d="M243.345 63.124L251.451 63.124 251.451 57.524 243.345 57.524zM162.796 63.124L170.9 63.124 170.9 57.524 162.796 57.524zM120.24 63.124L128.345 63.124 128.345 57.524 120.24 57.524zM85.284 63.124L93.389 63.124 93.389 57.524 85.284 57.524zM187.111 65.644L195.216 65.644 195.216 60.043 187.111 60.043zM213.594 65.493L221.699 65.493 221.699 59.894 213.594 59.894zM46.275 65.493L54.383 65.493 54.383 59.894 46.275 59.894z" mask="url(#44vgth2cqh)"/>
                <path fill="#8BA648" d="M73.754 36.835L81.86 36.835 81.86 31.234 73.754 31.234zM97.819 36.555L105.924 36.555 105.924 30.952 97.819 30.952zM129.483 38.02L137.588 38.02 137.588 32.418 129.483 32.418zM145.944 36.555L154.052 36.555 154.052 30.952 145.944 30.952zM175.582 38.02L183.687 38.02 183.687 32.418 175.582 32.418zM198 38.02L206.106 38.02 206.106 32.418 198 32.418zM222.822 38.02L230.93 38.02 230.93 32.418 222.822 32.418zM252.714 34.68L260.819 34.68 260.819 29.081 252.714 29.081zM56.784 38.02L64.889 38.02 64.889 32.418 56.784 32.418zM25.12 36.404L33.228 36.404 33.228 30.803 25.12 30.803z" mask="url(#44vgth2cqh)"/>
                <path fill="#A2C253" d="M0 27.163L16.795 27.163 16.795.004 0 .004zM262.749 27.163L281.322 27.163 281.322.004 262.749.004z" mask="url(#44vgth2cqh)"/>
                <path fill="#A2C253" d="M142.17 33.604L402.804 33.604 402.804 0.004 142.17 0.004z" mask="url(#44vgth2cqh)"/>
                <path fill="#8BA648" d="M395.351 8.768L395.351 13.937 390.284 13.937 390.284 19.107 378.632 19.107 378.632 23.414 367.486 23.414 367.486 16.091 362.418 16.091 362.418 13.937 352.287 13.937 352.287 11.352 343.167 11.352 343.167 17.814 338.609 17.814 338.609 27.291 333.545 27.291 333.545 17.814 325.436 17.814 325.436 9.198 319.866 9.198 319.866 21.261 301.626 21.261 301.626 9.63 284.909 9.63 284.909 18.244 275.79 18.244 275.79 22.553 264.138 22.553 264.138 16.952 260.085 16.952 260.085 19.537 248.433 19.537 248.433 5.753 237.796 5.753 237.796 12.645 222.09 12.645 222.09 17.383 199.296 17.383 199.296 29.446 189.161 29.446 189.161 12.645 175.988 12.645 175.988 18.676 158.763 18.676 158.763 27.291 142.17 27.291 142.17 33.604 402.804 33.604 402.804 8.768z" mask="url(#44vgth2cqh)"/>
                <path fill="#7E4D2E" d="M142.169 71.68L402.807 71.68 402.807 33.604 142.169 33.604z" mask="url(#44vgth2cqh)"/>
                <path fill="#945835" d="M154.205 71.68L160.793 71.68 160.793 56.584 170.416 56.584 170.416 64.338 177.509 64.338 177.509 59.168 193.214 59.168 193.214 66.062 200.813 66.062 200.813 59.601 215.503 59.601 215.503 67.354 226.649 67.354 226.649 61.753 236.275 61.753 236.275 63.477 250.459 63.477 250.459 59.168 275.284 59.168 275.284 56.584 306.187 56.584 306.187 66.062 310.745 66.062 310.745 60.894 335.571 60.894 335.571 71.68 345.196 71.68 345.196 53.569 355.328 53.569 355.328 62.616 362.924 62.616 362.924 56.154 380.658 56.154 380.658 69.077 392.816 69.077 392.816 63.477 394.334 63.477 394.334 53.569 402.808 53.569 402.808 49.692 397.374 49.692 397.374 37.63 383.191 37.63 383.191 44.522 367.486 44.522 367.486 33.604 361.916 33.604 361.916 42.8 354.819 42.8 354.819 46.246 345.702 46.246 345.702 42.8 332.024 42.8 332.024 47.969 318.851 47.969 318.851 33.604 316.319 33.604 316.319 41.938 300.614 41.938 300.614 50.984 281.362 50.984 281.362 44.092 268.696 44.092 268.696 40.215 264.644 40.215 264.644 53.569 250.459 53.569 250.459 44.953 243.369 44.953 243.369 51.416 230.702 51.416 230.702 44.092 219.05 44.092 219.05 38.06 214.491 38.06 214.491 42.8 210.439 42.8 210.439 49.692 201.825 49.692 201.825 42.8 190.684 42.8 190.684 51.416 182.067 51.416 182.067 40.215 165.86 40.215 165.86 44.953 152.179 44.953 152.179 52.708 142.169 52.708 142.169 60.46 154.205 60.46z" mask="url(#44vgth2cqh)"/>
                <path fill="#A27357" d="M393.208 40.926h2.506v-.1c-.836.022-1.67.056-2.506.1" mask="url(#44vgth2cqh)"/>
                <path fill="#7E4D2E" d="M370.018 34.034L378.123 34.034 378.123 28.434 370.018 28.434zM289.468 34.034L297.573 34.034 297.573 28.434 289.468 28.434zM246.913 34.034L255.018 34.034 255.018 28.434 246.913 28.434zM214.237 55.788L220.951 55.788 220.951 50.188 214.237 50.188zM229.31 60.167L236.02 60.167 236.02 54.567 229.31 54.567zM270.26 52.414L276.971 52.414 276.971 46.813 270.26 46.813zM263.632 60.67L270.345 60.67 270.345 55.069 263.632 55.069zM288.708 54.208L295.421 54.208 295.421 48.607 288.708 48.607zM308.971 55.788L315.684 55.788 315.684 50.188 308.971 50.188zM320.372 58.588L327.082 58.588 327.082 52.987 320.372 52.987zM336.202 51.408L342.916 51.408 342.916 45.809 336.202 45.809zM353.62 53.347L360.331 53.347 360.331 47.748 353.62 47.748zM380.635 51.408L387.348 51.408 387.348 45.809 380.635 45.809zM385.787 61.388L392.498 61.388 392.498 55.788 385.787 55.788zM370.018 58.588L376.731 58.588 376.731 52.987 370.018 52.987zM340.962 67.706L347.676 67.706 347.676 62.106 340.962 62.106zM200.813 61.388L207.526 61.388 207.526 55.788 200.813 55.788zM177.509 61.791L184.222 61.791 184.222 56.192 177.509 56.192zM165.687 50.188L172.401 50.188 172.401 44.586 165.687 44.586zM148.126 58.157L154.839 58.157 154.839 52.557 148.126 52.557zM211.959 34.034L220.068 34.034 220.068 28.434 211.959 28.434zM313.784 36.555L321.892 36.555 321.892 30.952 313.784 30.952zM340.269 36.404L348.372 36.404 348.372 30.803 340.269 30.803zM172.951 36.404L181.056 36.404 181.056 30.803 172.951 30.803z" mask="url(#44vgth2cqh)"/>
                <path fill="#523118" d="M373.442 63.124L381.547 63.124 381.547 57.524 373.442 57.524zM292.892 63.124L300.997 63.124 300.997 57.524 292.892 57.524zM250.336 63.124L258.442 63.124 258.442 57.524 250.336 57.524zM215.38 63.124L223.489 63.124 223.489 57.524 215.38 57.524zM317.208 65.644L325.316 65.644 325.316 60.043 317.208 60.043zM343.691 65.493L351.796 65.493 351.796 59.894 343.691 59.894zM176.374 65.493L184.479 65.493 184.479 59.894 176.374 59.894z" mask="url(#44vgth2cqh)"/>
                <path fill="#8BA648" d="M203.851 36.835L211.959 36.835 211.959 31.234 203.851 31.234zM227.916 36.555L236.02 36.555 236.02 30.952 227.916 30.952zM259.58 38.02L267.684 38.02 267.684 32.418 259.58 32.418zM276.044 36.555L284.149 36.555 284.149 30.952 276.044 30.952zM305.681 38.02L313.784 38.02 313.784 32.418 305.681 32.418zM328.097 38.02L336.202 38.02 336.202 32.418 328.097 32.418zM352.921 38.02L361.027 38.02 361.027 32.418 352.921 32.418zM382.813 34.68L390.919 34.68 390.919 29.081 382.813 29.081zM186.883 38.02L194.986 38.02 194.986 32.418 186.883 32.418zM155.22 36.404L163.324 36.404 163.324 30.803 155.22 30.803z" mask="url(#44vgth2cqh)"/>
                <path fill="#A2C253" d="M130.1 27.163L146.895 27.163 146.895.004 130.1.004zM392.848 27.163L411.415 27.163 411.415.004 392.848.004z" mask="url(#44vgth2cqh)"/>
            </g>
        </g>
        <g>
            <g>
                <path fill="#A2C253" d="M12.073 33.919L272.708 33.919 272.708 0.32 12.073 0.32z" transform="translate(-18) translate(1551) translate(774)"/>
                <path fill="#8BA648" d="M265.252 9.083L265.252 14.253 260.184 14.253 260.184 19.423 248.532 19.423 248.532 23.729 237.389 23.729 237.389 16.406 232.322 16.406 232.322 14.253 222.19 14.253 222.19 11.668 213.071 11.668 213.071 18.13 208.512 18.13 208.512 27.607 203.447 27.607 203.447 18.13 195.339 18.13 195.339 9.513 189.766 9.513 189.766 21.576 171.529 21.576 171.529 9.946 154.813 9.946 154.813 18.56 145.693 18.56 145.693 22.868 134.041 22.868 134.041 17.267 129.991 17.267 129.991 19.852 118.336 19.852 118.336 6.069 107.696 6.069 107.696 12.96 91.994 12.96 91.994 17.699 69.196 17.699 69.196 29.762 59.066 29.762 59.066 12.96 45.892 12.96 45.892 18.991 28.667 18.991 28.667 27.607 12.073 27.607 12.073 33.919 272.708 33.919 272.708 9.083z" transform="translate(-18) translate(1551) translate(774)"/>
                <path fill="#7E4D2E" d="M12.073 71.996L272.708 71.996 272.708 33.919 12.073 33.919z" transform="translate(-18) translate(1551) translate(774)"/>
                <path fill="#945835" d="M231.816 33.919L231.816 43.115 224.722 43.115 224.722 46.561 215.606 46.561 215.606 43.115 201.927 43.115 201.927 48.285 188.754 48.285 188.754 33.919 186.219 33.919 186.219 42.253 170.518 42.253 170.518 51.3 151.266 51.3 151.266 44.408 138.603 44.408 138.603 40.531 134.547 40.531 134.547 53.884 120.362 53.884 120.362 45.268 113.269 45.268 113.269 51.731 100.605 51.731 100.605 44.408 88.953 44.408 88.953 38.376 84.395 38.376 84.395 43.115 80.342 43.115 80.342 50.007 71.73 50.007 71.73 43.115 60.582 43.115 60.582 51.731 51.971 51.731 51.971 40.531 35.76 40.531 35.76 45.268 22.082 45.268 22.082 53.023 12.073 53.023 12.073 60.776 24.108 60.776 24.108 71.995 30.693 71.995 30.693 56.899 40.319 56.899 40.319 64.653 47.413 64.653 47.413 59.484 63.117 59.484 63.117 66.378 70.716 66.378 70.716 59.917 85.406 59.917 85.406 67.669 96.553 67.669 96.553 62.069 106.178 62.069 106.178 63.792 120.362 63.792 120.362 59.484 145.187 59.484 145.187 56.899 176.091 56.899 176.091 66.378 180.649 66.378 180.649 61.209 205.471 61.209 205.471 71.995 215.097 71.995 215.097 53.884 225.231 53.884 225.231 62.931 232.828 62.931 232.828 56.469 250.559 56.469 250.559 69.393 262.719 69.393 262.719 63.792 264.237 63.792 264.237 53.884 272.708 53.884 272.708 50.007 267.278 50.007 267.278 37.946 253.094 37.946 253.094 44.837 237.39 44.837 237.39 33.919z" transform="translate(-18) translate(1551) translate(774)"/>
                <g transform="translate(-18) translate(1551) translate(774) translate(0 .316)">
                    <mask id="3tkexnnuoj" fill="#fff">
                        <use xlink:href="#7z7qjsd0ii"/>
                    </mask>
                    <path fill="#7E4D2E" d="M239.921 34.034L248.026 34.034 248.026 28.434 239.921 28.434zM159.374 34.034L167.479 34.034 167.479 28.434 159.374 28.434zM116.816 34.034L124.921 34.034 124.921 28.434 116.816 28.434zM84.142 55.788L90.854 55.788 90.854 50.188 84.142 50.188zM99.211 60.167L105.924 60.167 105.924 54.567 99.211 54.567zM140.161 52.414L146.874 52.414 146.874 46.813 140.161 46.813zM133.535 60.67L140.246 60.67 140.246 55.069 133.535 55.069zM158.612 54.208L165.324 54.208 165.324 48.607 158.612 48.607zM178.875 55.788L185.588 55.788 185.588 50.188 178.875 50.188zM190.275 58.588L196.989 58.588 196.989 52.987 190.275 52.987zM206.106 51.408L212.819 51.408 212.819 45.809 206.106 45.809zM223.521 53.347L230.234 53.347 230.234 47.748 223.521 47.748zM250.538 51.408L257.252 51.408 257.252 45.809 250.538 45.809zM239.921 58.588L246.635 58.588 246.635 52.987 239.921 52.987zM210.866 67.706L217.579 67.706 217.579 62.106 210.866 62.106zM70.716 61.388L77.427 61.388 77.427 55.788 70.716 55.788zM47.412 61.791L54.123 61.791 54.123 56.192 47.412 56.192zM35.591 50.188L42.304 50.188 42.304 44.586 35.591 44.586zM18.029 58.157L24.742 58.157 24.742 52.557 18.029 52.557zM81.86 34.034L89.965 34.034 89.965 28.434 81.86 28.434zM183.688 36.555L191.793 36.555 191.793 30.952 183.688 30.952zM210.17 36.404L218.275 36.404 218.275 30.803 210.17 30.803zM42.851 36.404L50.961 36.404 50.961 30.803 42.851 30.803z" mask="url(#3tkexnnuoj)"/>
                    <path fill="#523118" d="M243.345 63.124L251.451 63.124 251.451 57.524 243.345 57.524zM162.796 63.124L170.9 63.124 170.9 57.524 162.796 57.524zM120.24 63.124L128.345 63.124 128.345 57.524 120.24 57.524zM85.284 63.124L93.389 63.124 93.389 57.524 85.284 57.524zM187.111 65.644L195.216 65.644 195.216 60.043 187.111 60.043zM213.594 65.493L221.699 65.493 221.699 59.894 213.594 59.894zM46.275 65.493L54.383 65.493 54.383 59.894 46.275 59.894z" mask="url(#3tkexnnuoj)"/>
                    <path fill="#8BA648" d="M73.754 36.835L81.86 36.835 81.86 31.234 73.754 31.234zM97.819 36.555L105.924 36.555 105.924 30.952 97.819 30.952zM129.483 38.02L137.588 38.02 137.588 32.418 129.483 32.418zM145.944 36.555L154.052 36.555 154.052 30.952 145.944 30.952zM175.582 38.02L183.687 38.02 183.687 32.418 175.582 32.418zM198 38.02L206.106 38.02 206.106 32.418 198 32.418zM222.822 38.02L230.93 38.02 230.93 32.418 222.822 32.418zM252.714 34.68L260.819 34.68 260.819 29.081 252.714 29.081zM56.784 38.02L64.889 38.02 64.889 32.418 56.784 32.418zM25.12 36.404L33.228 36.404 33.228 30.803 25.12 30.803z" mask="url(#3tkexnnuoj)"/>
                    <path fill="#A2C253" d="M0 27.163L16.795 27.163 16.795.004 0 .004zM142.17 33.604L402.804 33.604 402.804.004 142.17.004z" mask="url(#3tkexnnuoj)"/>
                    <path fill="#8BA648" d="M395.351 8.768L395.351 13.937 390.284 13.937 390.284 19.107 378.632 19.107 378.632 23.414 367.486 23.414 367.486 16.091 362.418 16.091 362.418 13.937 352.287 13.937 352.287 11.352 343.167 11.352 343.167 17.814 338.609 17.814 338.609 27.291 333.545 27.291 333.545 17.814 325.436 17.814 325.436 9.198 319.866 9.198 319.866 21.261 301.626 21.261 301.626 9.63 284.909 9.63 284.909 18.244 275.79 18.244 275.79 22.553 264.138 22.553 264.138 16.952 260.085 16.952 260.085 19.537 248.433 19.537 248.433 5.753 237.796 5.753 237.796 12.645 222.09 12.645 222.09 17.383 199.296 17.383 199.296 29.446 189.161 29.446 189.161 12.645 175.988 12.645 175.988 18.676 158.763 18.676 158.763 27.291 142.17 27.291 142.17 33.604 402.804 33.604 402.804 8.768z" mask="url(#3tkexnnuoj)"/>
                    <path fill="#7E4D2E" d="M142.169 71.68L402.807 71.68 402.807 33.604 142.169 33.604z" mask="url(#3tkexnnuoj)"/>
                    <path fill="#945835" d="M154.205 71.68L160.793 71.68 160.793 56.584 170.416 56.584 170.416 64.338 177.509 64.338 177.509 59.168 193.214 59.168 193.214 66.062 200.813 66.062 200.813 59.601 215.503 59.601 215.503 67.354 226.649 67.354 226.649 61.753 236.275 61.753 236.275 63.477 250.459 63.477 250.459 59.168 275.284 59.168 275.284 56.584 306.187 56.584 306.187 66.062 310.745 66.062 310.745 60.894 335.571 60.894 335.571 71.68 345.196 71.68 345.196 53.569 355.328 53.569 355.328 62.616 362.924 62.616 362.924 56.154 380.658 56.154 380.658 69.077 392.816 69.077 392.816 63.477 394.334 63.477 394.334 53.569 402.808 53.569 402.808 49.692 397.374 49.692 397.374 37.63 383.191 37.63 383.191 44.522 367.486 44.522 367.486 33.604 361.916 33.604 361.916 42.8 354.819 42.8 354.819 46.246 345.702 46.246 345.702 42.8 332.024 42.8 332.024 47.969 318.851 47.969 318.851 33.604 316.319 33.604 316.319 41.938 300.614 41.938 300.614 50.984 281.362 50.984 281.362 44.092 268.696 44.092 268.696 40.215 264.644 40.215 264.644 53.569 250.459 53.569 250.459 44.953 243.369 44.953 243.369 51.416 230.702 51.416 230.702 44.092 219.05 44.092 219.05 38.06 214.491 38.06 214.491 42.8 210.439 42.8 210.439 49.692 201.825 49.692 201.825 42.8 190.684 42.8 190.684 51.416 182.067 51.416 182.067 40.215 165.86 40.215 165.86 44.953 152.179 44.953 152.179 52.708 142.169 52.708 142.169 60.46 154.205 60.46z" mask="url(#3tkexnnuoj)"/>
                    <path fill="#7E4D2E" d="M246.913 34.034L255.018 34.034 255.018 28.434 246.913 28.434zM214.237 55.788L220.951 55.788 220.951 50.188 214.237 50.188zM229.31 60.167L236.02 60.167 236.02 54.567 229.31 54.567zM200.813 61.388L207.526 61.388 207.526 55.788 200.813 55.788zM177.509 61.791L184.222 61.791 184.222 56.192 177.509 56.192zM165.687 50.188L172.401 50.188 172.401 44.586 165.687 44.586zM148.126 58.157L154.839 58.157 154.839 52.557 148.126 52.557zM211.959 34.034L220.068 34.034 220.068 28.434 211.959 28.434zM172.951 36.404L181.056 36.404 181.056 30.803 172.951 30.803z" mask="url(#3tkexnnuoj)"/>
                    <path fill="#523118" d="M250.336 63.124L258.442 63.124 258.442 57.524 250.336 57.524zM215.38 63.124L223.489 63.124 223.489 57.524 215.38 57.524zM176.374 65.493L184.479 65.493 184.479 59.894 176.374 59.894z" mask="url(#3tkexnnuoj)"/>
                    <path fill="#8BA648" d="M203.851 36.835L211.959 36.835 211.959 31.234 203.851 31.234zM227.916 36.555L236.02 36.555 236.02 30.952 227.916 30.952zM186.883 38.02L194.986 38.02 194.986 32.418 186.883 32.418zM155.22 36.404L163.324 36.404 163.324 30.803 155.22 30.803z" mask="url(#3tkexnnuoj)"/>
                    <path fill="#A2C253" d="M130.1 27.163L146.895 27.163 146.895 0.004 130.1 0.004z" mask="url(#3tkexnnuoj)"/>
                </g>
            </g>
            <path fill="#A2C253" d="M12.073 33.919L272.708 33.919 272.708 0.32 12.073 0.32z" transform="translate(-18) translate(1551)"/>
            <path fill="#8BA648" d="M265.252 9.083L265.252 14.253 260.184 14.253 260.184 19.423 248.532 19.423 248.532 23.729 237.389 23.729 237.389 16.406 232.322 16.406 232.322 14.253 222.19 14.253 222.19 11.668 213.071 11.668 213.071 18.13 208.512 18.13 208.512 27.607 203.447 27.607 203.447 18.13 195.339 18.13 195.339 9.513 189.766 9.513 189.766 21.576 171.529 21.576 171.529 9.946 154.813 9.946 154.813 18.56 145.693 18.56 145.693 22.868 134.041 22.868 134.041 17.267 129.991 17.267 129.991 19.852 118.336 19.852 118.336 6.069 107.696 6.069 107.696 12.96 91.994 12.96 91.994 17.699 69.196 17.699 69.196 29.762 59.066 29.762 59.066 12.96 45.892 12.96 45.892 18.991 28.667 18.991 28.667 27.607 12.073 27.607 12.073 33.919 272.708 33.919 272.708 9.083z" transform="translate(-18) translate(1551)"/>
            <path fill="#7E4D2E" d="M12.073 71.996L272.708 71.996 272.708 33.919 12.073 33.919z" transform="translate(-18) translate(1551)"/>
            <path fill="#945835" d="M231.816 33.919L231.816 43.115 224.722 43.115 224.722 46.561 215.606 46.561 215.606 43.115 201.927 43.115 201.927 48.285 188.754 48.285 188.754 33.919 186.219 33.919 186.219 42.253 170.518 42.253 170.518 51.3 151.266 51.3 151.266 44.408 138.603 44.408 138.603 40.531 134.547 40.531 134.547 53.884 120.362 53.884 120.362 45.268 113.269 45.268 113.269 51.731 100.605 51.731 100.605 44.408 88.953 44.408 88.953 38.376 84.395 38.376 84.395 43.115 80.342 43.115 80.342 50.007 71.73 50.007 71.73 43.115 60.582 43.115 60.582 51.731 51.971 51.731 51.971 40.531 35.76 40.531 35.76 45.268 22.082 45.268 22.082 53.023 12.073 53.023 12.073 60.776 24.108 60.776 24.108 71.995 30.693 71.995 30.693 56.899 40.319 56.899 40.319 64.653 47.413 64.653 47.413 59.484 63.117 59.484 63.117 66.378 70.716 66.378 70.716 59.917 85.406 59.917 85.406 67.669 96.553 67.669 96.553 62.069 106.178 62.069 106.178 63.792 120.362 63.792 120.362 59.484 145.187 59.484 145.187 56.899 176.091 56.899 176.091 66.378 180.649 66.378 180.649 61.209 205.471 61.209 205.471 71.995 215.097 71.995 215.097 53.884 225.231 53.884 225.231 62.931 232.828 62.931 232.828 56.469 250.559 56.469 250.559 69.393 262.719 69.393 262.719 63.792 264.237 63.792 264.237 53.884 272.708 53.884 272.708 50.007 267.278 50.007 267.278 37.946 253.094 37.946 253.094 44.837 237.39 44.837 237.39 33.919z" transform="translate(-18) translate(1551)"/>
            <g transform="translate(-18) translate(1551) translate(0 .316)">
                <path fill="#A27357" d="M263.111 40.926h2.506v-.1c-.836.022-1.672.056-2.506.1"/>
                <mask id="ov17tnuoul" fill="#fff">
                    <use xlink:href="#188ziiztck"/>
                </mask>
                <path fill="#7E4D2E" d="M239.921 34.034L248.026 34.034 248.026 28.434 239.921 28.434zM159.374 34.034L167.479 34.034 167.479 28.434 159.374 28.434zM116.816 34.034L124.921 34.034 124.921 28.434 116.816 28.434zM84.142 55.788L90.854 55.788 90.854 50.188 84.142 50.188zM99.211 60.167L105.924 60.167 105.924 54.567 99.211 54.567zM140.161 52.414L146.874 52.414 146.874 46.813 140.161 46.813zM133.535 60.67L140.246 60.67 140.246 55.069 133.535 55.069zM158.612 54.208L165.324 54.208 165.324 48.607 158.612 48.607zM178.875 55.788L185.588 55.788 185.588 50.188 178.875 50.188zM190.275 58.588L196.989 58.588 196.989 52.987 190.275 52.987zM206.106 51.408L212.819 51.408 212.819 45.809 206.106 45.809zM223.521 53.347L230.234 53.347 230.234 47.748 223.521 47.748zM250.538 51.408L257.252 51.408 257.252 45.809 250.538 45.809zM255.69 61.388L262.401 61.388 262.401 55.788 255.69 55.788zM239.921 58.588L246.635 58.588 246.635 52.987 239.921 52.987zM210.866 67.706L217.579 67.706 217.579 62.106 210.866 62.106zM70.716 61.388L77.427 61.388 77.427 55.788 70.716 55.788zM47.412 61.791L54.123 61.791 54.123 56.192 47.412 56.192zM35.591 50.188L42.304 50.188 42.304 44.586 35.591 44.586zM18.029 58.157L24.742 58.157 24.742 52.557 18.029 52.557zM81.86 34.034L89.965 34.034 89.965 28.434 81.86 28.434zM183.688 36.555L191.793 36.555 191.793 30.952 183.688 30.952zM210.17 36.404L218.275 36.404 218.275 30.803 210.17 30.803zM42.851 36.404L50.961 36.404 50.961 30.803 42.851 30.803z" mask="url(#ov17tnuoul)"/>
                <path fill="#523118" d="M243.345 63.124L251.451 63.124 251.451 57.524 243.345 57.524zM162.796 63.124L170.9 63.124 170.9 57.524 162.796 57.524zM120.24 63.124L128.345 63.124 128.345 57.524 120.24 57.524zM85.284 63.124L93.389 63.124 93.389 57.524 85.284 57.524zM187.111 65.644L195.216 65.644 195.216 60.043 187.111 60.043zM213.594 65.493L221.699 65.493 221.699 59.894 213.594 59.894zM46.275 65.493L54.383 65.493 54.383 59.894 46.275 59.894z" mask="url(#ov17tnuoul)"/>
                <path fill="#8BA648" d="M73.754 36.835L81.86 36.835 81.86 31.234 73.754 31.234zM97.819 36.555L105.924 36.555 105.924 30.952 97.819 30.952zM129.483 38.02L137.588 38.02 137.588 32.418 129.483 32.418zM145.944 36.555L154.052 36.555 154.052 30.952 145.944 30.952zM175.582 38.02L183.687 38.02 183.687 32.418 175.582 32.418zM198 38.02L206.106 38.02 206.106 32.418 198 32.418zM222.822 38.02L230.93 38.02 230.93 32.418 222.822 32.418zM252.714 34.68L260.819 34.68 260.819 29.081 252.714 29.081zM56.784 38.02L64.889 38.02 64.889 32.418 56.784 32.418zM25.12 36.404L33.228 36.404 33.228 30.803 25.12 30.803z" mask="url(#ov17tnuoul)"/>
                <path fill="#A2C253" d="M0 27.163L16.795 27.163 16.795.004 0 .004zM262.749 27.163L281.322 27.163 281.322.004 262.749.004z" mask="url(#ov17tnuoul)"/>
                <path fill="#A2C253" d="M142.17 33.604L402.804 33.604 402.804 0.004 142.17 0.004z" mask="url(#ov17tnuoul)"/>
                <path fill="#8BA648" d="M395.351 8.768L395.351 13.937 390.284 13.937 390.284 19.107 378.632 19.107 378.632 23.414 367.486 23.414 367.486 16.091 362.418 16.091 362.418 13.937 352.287 13.937 352.287 11.352 343.167 11.352 343.167 17.814 338.609 17.814 338.609 27.291 333.545 27.291 333.545 17.814 325.436 17.814 325.436 9.198 319.866 9.198 319.866 21.261 301.626 21.261 301.626 9.63 284.909 9.63 284.909 18.244 275.79 18.244 275.79 22.553 264.138 22.553 264.138 16.952 260.085 16.952 260.085 19.537 248.433 19.537 248.433 5.753 237.796 5.753 237.796 12.645 222.09 12.645 222.09 17.383 199.296 17.383 199.296 29.446 189.161 29.446 189.161 12.645 175.988 12.645 175.988 18.676 158.763 18.676 158.763 27.291 142.17 27.291 142.17 33.604 402.804 33.604 402.804 8.768z" mask="url(#ov17tnuoul)"/>
                <path fill="#7E4D2E" d="M142.169 71.68L402.807 71.68 402.807 33.604 142.169 33.604z" mask="url(#ov17tnuoul)"/>
                <path fill="#945835" d="M154.205 71.68L160.793 71.68 160.793 56.584 170.416 56.584 170.416 64.338 177.509 64.338 177.509 59.168 193.214 59.168 193.214 66.062 200.813 66.062 200.813 59.601 215.503 59.601 215.503 67.354 226.649 67.354 226.649 61.753 236.275 61.753 236.275 63.477 250.459 63.477 250.459 59.168 275.284 59.168 275.284 56.584 306.187 56.584 306.187 66.062 310.745 66.062 310.745 60.894 335.571 60.894 335.571 71.68 345.196 71.68 345.196 53.569 355.328 53.569 355.328 62.616 362.924 62.616 362.924 56.154 380.658 56.154 380.658 69.077 392.816 69.077 392.816 63.477 394.334 63.477 394.334 53.569 402.808 53.569 402.808 49.692 397.374 49.692 397.374 37.63 383.191 37.63 383.191 44.522 367.486 44.522 367.486 33.604 361.916 33.604 361.916 42.8 354.819 42.8 354.819 46.246 345.702 46.246 345.702 42.8 332.024 42.8 332.024 47.969 318.851 47.969 318.851 33.604 316.319 33.604 316.319 41.938 300.614 41.938 300.614 50.984 281.362 50.984 281.362 44.092 268.696 44.092 268.696 40.215 264.644 40.215 264.644 53.569 250.459 53.569 250.459 44.953 243.369 44.953 243.369 51.416 230.702 51.416 230.702 44.092 219.05 44.092 219.05 38.06 214.491 38.06 214.491 42.8 210.439 42.8 210.439 49.692 201.825 49.692 201.825 42.8 190.684 42.8 190.684 51.416 182.067 51.416 182.067 40.215 165.86 40.215 165.86 44.953 152.179 44.953 152.179 52.708 142.169 52.708 142.169 60.46 154.205 60.46z" mask="url(#ov17tnuoul)"/>
                <path fill="#A27357" d="M393.208 40.926h2.506v-.1c-.836.022-1.67.056-2.506.1" mask="url(#ov17tnuoul)"/>
                <path fill="#7E4D2E" d="M370.018 34.034L378.123 34.034 378.123 28.434 370.018 28.434zM289.468 34.034L297.573 34.034 297.573 28.434 289.468 28.434zM246.913 34.034L255.018 34.034 255.018 28.434 246.913 28.434zM214.237 55.788L220.951 55.788 220.951 50.188 214.237 50.188zM229.31 60.167L236.02 60.167 236.02 54.567 229.31 54.567zM270.26 52.414L276.971 52.414 276.971 46.813 270.26 46.813zM263.632 60.67L270.345 60.67 270.345 55.069 263.632 55.069zM288.708 54.208L295.421 54.208 295.421 48.607 288.708 48.607zM308.971 55.788L315.684 55.788 315.684 50.188 308.971 50.188zM320.372 58.588L327.082 58.588 327.082 52.987 320.372 52.987zM336.202 51.408L342.916 51.408 342.916 45.809 336.202 45.809zM353.62 53.347L360.331 53.347 360.331 47.748 353.62 47.748zM380.635 51.408L387.348 51.408 387.348 45.809 380.635 45.809zM385.787 61.388L392.498 61.388 392.498 55.788 385.787 55.788zM370.018 58.588L376.731 58.588 376.731 52.987 370.018 52.987zM340.962 67.706L347.676 67.706 347.676 62.106 340.962 62.106zM200.813 61.388L207.526 61.388 207.526 55.788 200.813 55.788zM177.509 61.791L184.222 61.791 184.222 56.192 177.509 56.192zM165.687 50.188L172.401 50.188 172.401 44.586 165.687 44.586zM148.126 58.157L154.839 58.157 154.839 52.557 148.126 52.557zM211.959 34.034L220.068 34.034 220.068 28.434 211.959 28.434zM313.784 36.555L321.892 36.555 321.892 30.952 313.784 30.952zM340.269 36.404L348.372 36.404 348.372 30.803 340.269 30.803zM172.951 36.404L181.056 36.404 181.056 30.803 172.951 30.803z" mask="url(#ov17tnuoul)"/>
                <path fill="#523118" d="M373.442 63.124L381.547 63.124 381.547 57.524 373.442 57.524zM292.892 63.124L300.997 63.124 300.997 57.524 292.892 57.524zM250.336 63.124L258.442 63.124 258.442 57.524 250.336 57.524zM215.38 63.124L223.489 63.124 223.489 57.524 215.38 57.524zM317.208 65.644L325.316 65.644 325.316 60.043 317.208 60.043zM343.691 65.493L351.796 65.493 351.796 59.894 343.691 59.894zM176.374 65.493L184.479 65.493 184.479 59.894 176.374 59.894z" mask="url(#ov17tnuoul)"/>
                <path fill="#8BA648" d="M203.851 36.835L211.959 36.835 211.959 31.234 203.851 31.234zM227.916 36.555L236.02 36.555 236.02 30.952 227.916 30.952zM259.58 38.02L267.684 38.02 267.684 32.418 259.58 32.418zM276.044 36.555L284.149 36.555 284.149 30.952 276.044 30.952zM305.681 38.02L313.784 38.02 313.784 32.418 305.681 32.418zM328.097 38.02L336.202 38.02 336.202 32.418 328.097 32.418zM352.921 38.02L361.027 38.02 361.027 32.418 352.921 32.418zM382.813 34.68L390.919 34.68 390.919 29.081 382.813 29.081zM186.883 38.02L194.986 38.02 194.986 32.418 186.883 32.418zM155.22 36.404L163.324 36.404 163.324 30.803 155.22 30.803z" mask="url(#ov17tnuoul)"/>
                <path fill="#A2C253" d="M130.1 27.163L146.895 27.163 146.895.004 130.1.004zM392.848 27.163L411.415 27.163 411.415.004 392.848.004z" mask="url(#ov17tnuoul)"/>
            </g>
            <g>
                <path fill="#A2C253" d="M12.073 33.919L272.708 33.919 272.708 0.32 12.073 0.32z" transform="translate(-18) translate(1551) translate(390)"/>
                <path fill="#8BA648" d="M265.252 9.083L265.252 14.253 260.184 14.253 260.184 19.423 248.532 19.423 248.532 23.729 237.389 23.729 237.389 16.406 232.322 16.406 232.322 14.253 222.19 14.253 222.19 11.668 213.071 11.668 213.071 18.13 208.512 18.13 208.512 27.607 203.447 27.607 203.447 18.13 195.339 18.13 195.339 9.513 189.766 9.513 189.766 21.576 171.529 21.576 171.529 9.946 154.813 9.946 154.813 18.56 145.693 18.56 145.693 22.868 134.041 22.868 134.041 17.267 129.991 17.267 129.991 19.852 118.336 19.852 118.336 6.069 107.696 6.069 107.696 12.96 91.994 12.96 91.994 17.699 69.196 17.699 69.196 29.762 59.066 29.762 59.066 12.96 45.892 12.96 45.892 18.991 28.667 18.991 28.667 27.607 12.073 27.607 12.073 33.919 272.708 33.919 272.708 9.083z" transform="translate(-18) translate(1551) translate(390)"/>
                <path fill="#7E4D2E" d="M12.073 71.996L272.708 71.996 272.708 33.919 12.073 33.919z" transform="translate(-18) translate(1551) translate(390)"/>
                <path fill="#945835" d="M231.816 33.919L231.816 43.115 224.722 43.115 224.722 46.561 215.606 46.561 215.606 43.115 201.927 43.115 201.927 48.285 188.754 48.285 188.754 33.919 186.219 33.919 186.219 42.253 170.518 42.253 170.518 51.3 151.266 51.3 151.266 44.408 138.603 44.408 138.603 40.531 134.547 40.531 134.547 53.884 120.362 53.884 120.362 45.268 113.269 45.268 113.269 51.731 100.605 51.731 100.605 44.408 88.953 44.408 88.953 38.376 84.395 38.376 84.395 43.115 80.342 43.115 80.342 50.007 71.73 50.007 71.73 43.115 60.582 43.115 60.582 51.731 51.971 51.731 51.971 40.531 35.76 40.531 35.76 45.268 22.082 45.268 22.082 53.023 12.073 53.023 12.073 60.776 24.108 60.776 24.108 71.995 30.693 71.995 30.693 56.899 40.319 56.899 40.319 64.653 47.413 64.653 47.413 59.484 63.117 59.484 63.117 66.378 70.716 66.378 70.716 59.917 85.406 59.917 85.406 67.669 96.553 67.669 96.553 62.069 106.178 62.069 106.178 63.792 120.362 63.792 120.362 59.484 145.187 59.484 145.187 56.899 176.091 56.899 176.091 66.378 180.649 66.378 180.649 61.209 205.471 61.209 205.471 71.995 215.097 71.995 215.097 53.884 225.231 53.884 225.231 62.931 232.828 62.931 232.828 56.469 250.559 56.469 250.559 69.393 262.719 69.393 262.719 63.792 264.237 63.792 264.237 53.884 272.708 53.884 272.708 50.007 267.278 50.007 267.278 37.946 253.094 37.946 253.094 44.837 237.39 44.837 237.39 33.919z" transform="translate(-18) translate(1551) translate(390)"/>
                <g transform="translate(-18) translate(1551) translate(390) translate(0 .316)">
                    <path fill="#A27357" d="M263.111 40.926h2.506v-.1c-.836.022-1.672.056-2.506.1"/>
                    <mask id="21yghqr1jn" fill="#fff">
                        <use xlink:href="#b09omoguwm"/>
                    </mask>
                    <path fill="#7E4D2E" d="M239.921 34.034L248.026 34.034 248.026 28.434 239.921 28.434zM159.374 34.034L167.479 34.034 167.479 28.434 159.374 28.434zM116.816 34.034L124.921 34.034 124.921 28.434 116.816 28.434zM84.142 55.788L90.854 55.788 90.854 50.188 84.142 50.188zM99.211 60.167L105.924 60.167 105.924 54.567 99.211 54.567zM140.161 52.414L146.874 52.414 146.874 46.813 140.161 46.813zM133.535 60.67L140.246 60.67 140.246 55.069 133.535 55.069zM158.612 54.208L165.324 54.208 165.324 48.607 158.612 48.607zM178.875 55.788L185.588 55.788 185.588 50.188 178.875 50.188zM190.275 58.588L196.989 58.588 196.989 52.987 190.275 52.987zM206.106 51.408L212.819 51.408 212.819 45.809 206.106 45.809zM223.521 53.347L230.234 53.347 230.234 47.748 223.521 47.748zM250.538 51.408L257.252 51.408 257.252 45.809 250.538 45.809zM255.69 61.388L262.401 61.388 262.401 55.788 255.69 55.788zM239.921 58.588L246.635 58.588 246.635 52.987 239.921 52.987zM210.866 67.706L217.579 67.706 217.579 62.106 210.866 62.106zM70.716 61.388L77.427 61.388 77.427 55.788 70.716 55.788zM47.412 61.791L54.123 61.791 54.123 56.192 47.412 56.192zM35.591 50.188L42.304 50.188 42.304 44.586 35.591 44.586zM18.029 58.157L24.742 58.157 24.742 52.557 18.029 52.557zM81.86 34.034L89.965 34.034 89.965 28.434 81.86 28.434zM183.688 36.555L191.793 36.555 191.793 30.952 183.688 30.952zM210.17 36.404L218.275 36.404 218.275 30.803 210.17 30.803zM42.851 36.404L50.961 36.404 50.961 30.803 42.851 30.803z" mask="url(#21yghqr1jn)"/>
                    <path fill="#523118" d="M243.345 63.124L251.451 63.124 251.451 57.524 243.345 57.524zM162.796 63.124L170.9 63.124 170.9 57.524 162.796 57.524zM120.24 63.124L128.345 63.124 128.345 57.524 120.24 57.524zM85.284 63.124L93.389 63.124 93.389 57.524 85.284 57.524zM187.111 65.644L195.216 65.644 195.216 60.043 187.111 60.043zM213.594 65.493L221.699 65.493 221.699 59.894 213.594 59.894zM46.275 65.493L54.383 65.493 54.383 59.894 46.275 59.894z" mask="url(#21yghqr1jn)"/>
                    <path fill="#8BA648" d="M73.754 36.835L81.86 36.835 81.86 31.234 73.754 31.234zM97.819 36.555L105.924 36.555 105.924 30.952 97.819 30.952zM129.483 38.02L137.588 38.02 137.588 32.418 129.483 32.418zM145.944 36.555L154.052 36.555 154.052 30.952 145.944 30.952zM175.582 38.02L183.687 38.02 183.687 32.418 175.582 32.418zM198 38.02L206.106 38.02 206.106 32.418 198 32.418zM222.822 38.02L230.93 38.02 230.93 32.418 222.822 32.418zM252.714 34.68L260.819 34.68 260.819 29.081 252.714 29.081zM56.784 38.02L64.889 38.02 64.889 32.418 56.784 32.418zM25.12 36.404L33.228 36.404 33.228 30.803 25.12 30.803z" mask="url(#21yghqr1jn)"/>
                    <path fill="#A2C253" d="M0 27.163L16.795 27.163 16.795.004 0 .004zM262.749 27.163L281.322 27.163 281.322.004 262.749.004z" mask="url(#21yghqr1jn)"/>
                    <path fill="#A2C253" d="M142.17 33.604L402.804 33.604 402.804 0.004 142.17 0.004z" mask="url(#21yghqr1jn)"/>
                    <path fill="#8BA648" d="M395.351 8.768L395.351 13.937 390.284 13.937 390.284 19.107 378.632 19.107 378.632 23.414 367.486 23.414 367.486 16.091 362.418 16.091 362.418 13.937 352.287 13.937 352.287 11.352 343.167 11.352 343.167 17.814 338.609 17.814 338.609 27.291 333.545 27.291 333.545 17.814 325.436 17.814 325.436 9.198 319.866 9.198 319.866 21.261 301.626 21.261 301.626 9.63 284.909 9.63 284.909 18.244 275.79 18.244 275.79 22.553 264.138 22.553 264.138 16.952 260.085 16.952 260.085 19.537 248.433 19.537 248.433 5.753 237.796 5.753 237.796 12.645 222.09 12.645 222.09 17.383 199.296 17.383 199.296 29.446 189.161 29.446 189.161 12.645 175.988 12.645 175.988 18.676 158.763 18.676 158.763 27.291 142.17 27.291 142.17 33.604 402.804 33.604 402.804 8.768z" mask="url(#21yghqr1jn)"/>
                    <path fill="#7E4D2E" d="M142.169 71.68L402.807 71.68 402.807 33.604 142.169 33.604z" mask="url(#21yghqr1jn)"/>
                    <path fill="#945835" d="M154.205 71.68L160.793 71.68 160.793 56.584 170.416 56.584 170.416 64.338 177.509 64.338 177.509 59.168 193.214 59.168 193.214 66.062 200.813 66.062 200.813 59.601 215.503 59.601 215.503 67.354 226.649 67.354 226.649 61.753 236.275 61.753 236.275 63.477 250.459 63.477 250.459 59.168 275.284 59.168 275.284 56.584 306.187 56.584 306.187 66.062 310.745 66.062 310.745 60.894 335.571 60.894 335.571 71.68 345.196 71.68 345.196 53.569 355.328 53.569 355.328 62.616 362.924 62.616 362.924 56.154 380.658 56.154 380.658 69.077 392.816 69.077 392.816 63.477 394.334 63.477 394.334 53.569 402.808 53.569 402.808 49.692 397.374 49.692 397.374 37.63 383.191 37.63 383.191 44.522 367.486 44.522 367.486 33.604 361.916 33.604 361.916 42.8 354.819 42.8 354.819 46.246 345.702 46.246 345.702 42.8 332.024 42.8 332.024 47.969 318.851 47.969 318.851 33.604 316.319 33.604 316.319 41.938 300.614 41.938 300.614 50.984 281.362 50.984 281.362 44.092 268.696 44.092 268.696 40.215 264.644 40.215 264.644 53.569 250.459 53.569 250.459 44.953 243.369 44.953 243.369 51.416 230.702 51.416 230.702 44.092 219.05 44.092 219.05 38.06 214.491 38.06 214.491 42.8 210.439 42.8 210.439 49.692 201.825 49.692 201.825 42.8 190.684 42.8 190.684 51.416 182.067 51.416 182.067 40.215 165.86 40.215 165.86 44.953 152.179 44.953 152.179 52.708 142.169 52.708 142.169 60.46 154.205 60.46z" mask="url(#21yghqr1jn)"/>
                    <path fill="#A27357" d="M393.208 40.926h2.506v-.1c-.836.022-1.67.056-2.506.1" mask="url(#21yghqr1jn)"/>
                    <path fill="#7E4D2E" d="M370.018 34.034L378.123 34.034 378.123 28.434 370.018 28.434zM289.468 34.034L297.573 34.034 297.573 28.434 289.468 28.434zM246.913 34.034L255.018 34.034 255.018 28.434 246.913 28.434zM214.237 55.788L220.951 55.788 220.951 50.188 214.237 50.188zM229.31 60.167L236.02 60.167 236.02 54.567 229.31 54.567zM270.26 52.414L276.971 52.414 276.971 46.813 270.26 46.813zM263.632 60.67L270.345 60.67 270.345 55.069 263.632 55.069zM288.708 54.208L295.421 54.208 295.421 48.607 288.708 48.607zM308.971 55.788L315.684 55.788 315.684 50.188 308.971 50.188zM320.372 58.588L327.082 58.588 327.082 52.987 320.372 52.987zM336.202 51.408L342.916 51.408 342.916 45.809 336.202 45.809zM353.62 53.347L360.331 53.347 360.331 47.748 353.62 47.748zM380.635 51.408L387.348 51.408 387.348 45.809 380.635 45.809zM385.787 61.388L392.498 61.388 392.498 55.788 385.787 55.788zM370.018 58.588L376.731 58.588 376.731 52.987 370.018 52.987zM340.962 67.706L347.676 67.706 347.676 62.106 340.962 62.106zM200.813 61.388L207.526 61.388 207.526 55.788 200.813 55.788zM177.509 61.791L184.222 61.791 184.222 56.192 177.509 56.192zM165.687 50.188L172.401 50.188 172.401 44.586 165.687 44.586zM148.126 58.157L154.839 58.157 154.839 52.557 148.126 52.557zM211.959 34.034L220.068 34.034 220.068 28.434 211.959 28.434zM313.784 36.555L321.892 36.555 321.892 30.952 313.784 30.952zM340.269 36.404L348.372 36.404 348.372 30.803 340.269 30.803zM172.951 36.404L181.056 36.404 181.056 30.803 172.951 30.803z" mask="url(#21yghqr1jn)"/>
                    <path fill="#523118" d="M373.442 63.124L381.547 63.124 381.547 57.524 373.442 57.524zM292.892 63.124L300.997 63.124 300.997 57.524 292.892 57.524zM250.336 63.124L258.442 63.124 258.442 57.524 250.336 57.524zM215.38 63.124L223.489 63.124 223.489 57.524 215.38 57.524zM317.208 65.644L325.316 65.644 325.316 60.043 317.208 60.043zM343.691 65.493L351.796 65.493 351.796 59.894 343.691 59.894zM176.374 65.493L184.479 65.493 184.479 59.894 176.374 59.894z" mask="url(#21yghqr1jn)"/>
                    <path fill="#8BA648" d="M203.851 36.835L211.959 36.835 211.959 31.234 203.851 31.234zM227.916 36.555L236.02 36.555 236.02 30.952 227.916 30.952zM259.58 38.02L267.684 38.02 267.684 32.418 259.58 32.418zM276.044 36.555L284.149 36.555 284.149 30.952 276.044 30.952zM305.681 38.02L313.784 38.02 313.784 32.418 305.681 32.418zM328.097 38.02L336.202 38.02 336.202 32.418 328.097 32.418zM352.921 38.02L361.027 38.02 361.027 32.418 352.921 32.418zM382.813 34.68L390.919 34.68 390.919 29.081 382.813 29.081zM186.883 38.02L194.986 38.02 194.986 32.418 186.883 32.418zM155.22 36.404L163.324 36.404 163.324 30.803 155.22 30.803z" mask="url(#21yghqr1jn)"/>
                    <path fill="#A2C253" d="M130.1 27.163L146.895 27.163 146.895.004 130.1.004zM392.848 27.163L411.415 27.163 411.415.004 392.848.004z" mask="url(#21yghqr1jn)"/>
                </g>
            </g>
        </g>
    </g>
</svg>
