<svg xmlns="http://www.w3.org/2000/svg" xmlns:xlink="http://www.w3.org/1999/xlink" width="174" height="68" viewBox="0 0 174 68">
    <defs>
        <path id="ln30djls4a" d="M0.017 0.189L9.703 0.189 9.703 9.218 0.017 9.218z"/>
        <path id="nrixkpq90c" d="M0 0.185L13.447 0.185 13.447 4.836 0 4.836z"/>
    </defs>
    <g fill="none" fill-rule="evenodd">
        <path fill="#8A807D" d="M103.445 18.232c1.169.003 2.34.053 3.505-.006.741-.038.905.231.9.927-.027 4.163-.01 8.326-.008 12.489l-.007 13.445.015 9.05.014-.014c-1.13-.005-2.264.036-3.39-.03-.818-.047-1.072.227-1.058 1.049.047 2.661.018 5.324.018 7.986l.026.04-4.637-.008-.01-13.453c1.27 0 2.54-.022 3.808.008.614.015.836-.213.82-.823-.03-1.27-.01-2.539-.01-3.809l-.005-4.403.003-4.61v-4.408-13.415l.016-.015z" transform="translate(.446 .09)"/>
        <path fill="#908683" d="M98.823 63.16l-.015 4.387-4.39-.053c0-1.133-.047-2.268.01-3.398.04-.792-.27-1.013-1.015-.98-1.13.049-2.265.01-3.398.01-.001-1.169-.029-2.338.007-3.506.02-.647-.177-.937-.867-.902-.874.045-1.755-.029-2.629.022-.857.05-1.161-.281-1.149-1.142.04-2.63.015-5.26.015-7.89l-.003-.005 4.625-.001 4.396.004 4.401-.001c.006 4.486.01 8.97.012 13.454z" transform="translate(.446 .09)"/>
        <path fill="#A29A97" d="M40.517 53.882l-.015-4.155.011-9.046H53.92l-.003 4.394-4.385.015c-1.008-.134-2.012-.289-3.037-.227-1.352.082-1.585.302-1.589 1.62v1.861c0 1.762 0 1.762-1.74 2.015-1.312.19-1.98.91-1.995 2.187-.004.409-.033.8-.24 1.16-.138.06-.276.117-.413.176" transform="translate(.446 .09)"/>
        <path fill="#EB9CA0" d="M40.535 4.57c1.135.008 2.272.064 3.403.01.791-.039 1.011.256.982 1.009-.048 1.206-.001 2.415.006 3.623l-.054 4.373c-2.992.02-5.984.038-8.977.057 0-1.862.02-3.723-.012-5.583-.012-.64.21-1.31-.173-1.92-.13-.53.07-1.02.19-1.52l4.635-.05" transform="translate(.446 .09)"/>
        <path fill="#9D9592" d="M4.399 13.617c.006-1.169.055-2.34.003-3.506-.034-.746.246-.917.945-.905 2.374.04 4.75-.013 7.124.034.768.016 1.035-.204.982-.98-.063-.946.016-1.9-.026-2.849-.027-.613.173-.847.803-.822 1.204.047 2.41.033 3.615.044.22 1.078.025 2.166-.07 3.225-.044.497-.35.93.076 1.386l.002 4.37-4.407.012-9.047-.009" transform="translate(.446 .09)"/>
        <g transform="translate(.446 .09) translate(66.89)">
            <mask id="32wc8th57b" fill="#fff">
                <use xlink:href="#ln30djls4a"/>
            </mask>
            <path fill="#9D9592" d="M.453 3.798c.01-.947.028-1.895-.005-2.84-.02-.554.148-.776.734-.77 2.84.035 5.68.034 8.521.045-.304 1.457-.412 2.913-.001 4.37-.429 1.52-.131 3.077-.224 4.614l-4.397.001c-.013-1.47-.071-1.505-1.513-1.544-1.046-.028-2.075.07-3.104.23-.001-.402.012-.806-.008-1.207-.034-.713.227-1.492-.439-2.072.557-.058.433-.485.436-.827z" mask="url(#32wc8th57b)"/>
        </g>
        <g transform="translate(.446 .09) translate(0 13.422)">
            <mask id="7eflre6r9d" fill="#fff">
                <use xlink:href="#nrixkpq90c"/>
            </mask>
            <path fill="#ADA4A1" d="M13.446.204v4.612l-4.395.005-4.658.015c-1.166-.005-2.333-.04-3.498-.003-.64.02-.93-.141-.892-.844.053-.98.05-1.969 0-2.95C-.032.34.261.166.901.187 2.066.224 3.233.196 4.4.195l9.047.01z" mask="url(#7eflre6r9d)"/>
        </g>
        <path fill="#837874" d="M107.835 45.087l.008-13.445c1.279.008 2.559.036 3.837.017.527-.008.79.089.785.71-.034 4.24-.035 8.48-.046 12.72l-4.584-.002" transform="translate(.446 .09)"/>
        <path fill="#908683" d="M22.465 4.638l8.988-.05c.2.06.523.108.285.39-.244.29-.254.586-.252.912.015 2.582-.348 5.153-.23 7.737l-4.39-.006c-.002-1.195-.027-2.39.004-3.585.015-.608-.206-.839-.819-.822-1.121.03-2.244.006-3.367.004-.368-1.513-.18-3.052-.219-4.58" transform="translate(.446 .09)"/>
        <path fill="#A29A97" d="M76.34 63.138l-4.36.007-4.632-.017.002.002-.001-4.401 9.023-.003 4.618.01v4.393h-.439l-4.211.009" transform="translate(.446 .09)"/>
        <path fill="#9D9592" d="M80.551 63.13h.438l9.026-.004c1.133 0 2.267.039 3.398-.01.745-.033 1.055.188 1.015.98-.057 1.13-.01 2.265-.01 3.398l-13.43-.003c-.145-1.454.38-2.975-.437-4.362M40.93 53.707c.207-.361.236-.752.24-1.16.015-1.278.683-1.998 1.996-2.188 1.74-.253 1.74-.253 1.74-2.015 0-.62-.002-1.24 0-1.861.003-1.318.236-1.538 1.588-1.62 1.025-.062 2.03.093 3.037.227l.003 4.62v4.367l-4.6.053c-1.337-.129-2.726.247-4.005-.423" transform="translate(.446 .09)"/>
        <path fill="#7B716E" d="M107.835 45.087l4.584.002c.013 2.776.007 5.553.05 8.33.01.632-.266.704-.783.698-1.278-.018-2.557.01-3.836.02l-.015-9.05M40.514 40.68l-.012 9.047-4.614.006-.023-4.637.023-4.411-.005.005 4.617.001.014-.01z" transform="translate(.446 .09)"/>
        <path fill="#8A807D" d="M62.94 58.747c-1.272-.007-2.545-.04-3.816-.006-.602.016-.832-.147-.811-.785.04-1.27.001-2.544-.005-3.816v-4.415l4.643-.015-.003 9.005-.008.032z" transform="translate(.446 .09)"/>
        <path fill="#978C89" d="M66.907 4.625c.665.58.404 1.359.439 2.072.02.401.006.805.008 1.207l-.01 1.313-9.016.006-.006-4.585 8.585-.013" transform="translate(.446 .09)"/>
        <path fill="#A29A97" d="M35.865 45.096l.023 4.637c0 1.164-.048 2.33.017 3.491.042.757-.262.925-.94.9-1.162-.044-2.327-.017-3.49-.02l.013.014.028-9.037 4.35.015" transform="translate(.446 .09)"/>
        <path fill="#7B716E" d="M103.434 63.128c0-2.662.03-5.325-.018-7.986-.014-.822.24-1.096 1.057-1.049 1.127.066 2.26.025 3.39.03-.009 2.706-.046 5.411-.01 8.116.01.726-.193.943-.91.908-1.167-.057-2.339-.018-3.509-.019" transform="translate(.446 .09)"/>
        <path fill="#A29A97" d="M9.05 18.243l4.397-.005 4.394.001v4.405l-4.425.011-4.362-.05-.003-4.362" transform="translate(.446 .09)"/>
        <path fill="#B39391" d="M31.255 13.627c-.118-2.584.246-5.155.23-7.737-.001-.326.009-.623.253-.911.238-.283-.085-.331-.285-.39.009-1.2.048-2.399.014-3.596-.017-.626.21-.824.816-.802 1.197.043 2.397.03 3.595.04l.021 4.389c-.12.499-.319.989-.19 1.52-.47.626-.207 1.314-.176 1.988.045.966-.175 1.113-1.057.754-1.785-.727-2.942.06-2.997 1.956-.037 1.302.244 2.622-.18 3.906l-.044-1.117" transform="translate(.446 .09)"/>
        <path fill="#CAA0A0" d="M38.064 63.16l.468-.001c.024.255.174.345.418.418.98.292 1.439.984 1.284 1.987-.244 1.586-.447 1.67-1.92 1.763-1.64.102-3.25-.537-4.904-.116-.295.076-.727-.193-.796-.625-.122-.773-.66-1.451-.497-2.29.042-.22-.29-.533.07-.66.253-.088.708-.122.835.025.956 1.108.95-.158 1.314-.5l.457-.001c.032.324.254.462.528.397.904-.212 1.858-.07 2.743-.396" transform="translate(.446 .09)"/>
        <path fill="#C4B4AE" d="M40.93 53.707c1.278.67 2.667.294 4.003.423l-.058 8.326c-.32-.338-.183-.76-.186-1.145-.02-2.649-.014-2.626-2.651-2.598-.782.009-1.12.246-1.11 1.067.011.9.159 1.817-.106 2.707-.103.343.22.415.338.617l-.664.02.015.015.006-9.257.412-.175z" transform="translate(.446 .09)"/>
        <path fill="#978C89" d="M22.465 4.638c.04 1.528-.149 3.067.22 4.58l-.24.008-4.594.018c-.426-.455-.12-.889-.076-1.386.095-1.059.29-2.147.07-3.225l4.62.005M85.405 4.592l4.61.043v4.58l-4.624.007-.009-4.618.023-.012z" transform="translate(.446 .09)"/>
        <path fill="#BCA39E" d="M31.474 54.104c.003 1.275-.02 2.55.02 3.824.019.622-.198.828-.814.81-1.274-.038-2.55-.014-3.825-.014l.014.013c-.002-1.276.02-2.552-.017-3.826-.017-.612.183-.836.81-.815 1.275.043 2.551.019 3.826.022l-.014-.014" transform="translate(.446 .09)"/>
        <path fill="#C4B4AE" d="M22.471 31.629c-1.269.014-2.539-.002-3.806.052-.703.03-.855-.28-.837-.906.034-1.232.005-2.466.003-3.7l.022-.077 4.604.05.014 4.58" transform="translate(.446 .09)"/>
        <path fill="#8A807D" d="M98.823 13.595c1.31.01 2.622.039 3.932.018.52-.009.698.163.687.685-.025 1.311-.001 2.623.003 3.934l-.015.016-4.61-.011-.008-4.393.01-.25" transform="translate(.446 .09)"/>
        <path fill="#BCA39E" d="M62.954 67.5c-2.569 0-5.138.002-7.706.003.143-.682.574-.187.86-.19.884-.01 2.009.1 2.136-.987.126-1.07.32-2.117.525-3.168l4.15-.06.035 4.401" transform="translate(.446 .09)"/>
        <path fill="#978C89" d="M67.348 63.128l4.632.017c-.004 1.2-.04 2.401.001 3.6.021.63-.2.818-.81.795-1.271-.049-2.545-.035-3.818-.047l-.005-4.365" transform="translate(.446 .09)"/>
        <path fill="#C4B4AE" d="M9.05 18.243l.004 4.362c-1.27.012-2.54-.006-3.808.05-.713.03-.85-.296-.835-.913.025-1.16-.009-2.322-.018-3.484l4.658-.015" transform="translate(.446 .09)"/>
        <path fill="#837874" d="M44.872 13.585l.054-4.373 4.597.043-.001 4.356-4.613.015-.037-.041z" transform="translate(.446 .09)"/>
        <path fill="#908683" d="M90.015 9.216V4.635c1.203-.014 2.407.002 3.608-.052.621-.028.827.167.806.797-.042 1.275-.007 2.553-.004 3.83l-.02.019-4.393-.007.003-.006z" transform="translate(.446 .09)"/>
        <path fill="#ADA4A1" d="M22.471 31.629l-.014-4.58 4.405-.005.044 4.624-.075.002-4.36-.041" transform="translate(.446 .09)"/>
        <path fill="#837874" d="M31.512 40.68l-.064-4.604.064-.007h4.368l.003 4.62.005-.004-4.376-.005z" transform="translate(.446 .09)"/>
        <path fill="#8A807D" d="M58.323 4.638l.005 4.584.007.013-4.405-.01-.012-.012c0-1.275.03-2.551-.01-3.825-.02-.626.196-.823.81-.797 1.2.05 2.403.035 3.605.047" transform="translate(.446 .09)"/>
        <path fill="#978C89" d="M31.448 36.076c-1.233-.003-2.468-.05-3.699.005-.737.033-.926-.237-.901-.93.042-1.16-.007-2.32-.017-3.48l.075-.003 4.573-.007.033 4.408-.064.007zM80.551 63.13c.817 1.386.292 2.907.436 4.361-1.274.013-2.549-.002-3.821.049-.616.024-.827-.171-.808-.798.035-1.2-.008-2.402-.018-3.604l4.211-.009" transform="translate(.446 .09)"/>
        <path fill="#908683" d="M98.823 13.595l-.01.249c-1.447-.422-2.929-.136-4.392-.224l-.015-4.392.019-.019c1.196.004 2.394.035 3.589 0 .608-.018.834.17.814.797-.04 1.195-.008 2.392-.005 3.589" transform="translate(.446 .09)"/>
        <path fill="#8A807D" d="M49.522 13.61l.001-4.355 4.395-.042.012.012-.01 4.386-4.393.013-.005-.013z" transform="translate(.446 .09)"/>
        <path fill="#B39391" d="M67.348 63.128l.005 4.365c-1.466.003-2.933.004-4.4.006-.01-1.467-.022-2.934-.034-4.4l.012.021 4.419.01-.002-.002zM53.924 67.504c-1.237.011-2.474.007-3.71.04-.507.013-.759-.154-.696-.683.004-.036-.001-.073 0-.11l.084-3.474c1.432-.325 2.879-.103 4.32-.123l.002 4.35" transform="translate(.446 .09)"/>
        <path fill="#978C89" d="M31.512 40.68l4.376.005-.023 4.41-4.349-.014-.004-4.401M67.35 63.13l-4.419-.01.009-4.373.008-.032 4.4.014.002 4.4" transform="translate(.446 .09)"/>
        <path fill="#CAA0A0" d="M22.471 63.136c0-1.2.026-2.4-.012-3.598-.02-.617.196-.829.812-.81 1.198.038 2.398.01 3.598.01l-.014-.015c-.001 1.2-.033 2.4.008 3.599.022.624-.196.829-.809.81-1.198-.036-2.399-.011-3.598-.012l.015.016z" transform="translate(.446 .09)"/>
        <path fill="#ADA4A1" d="M13.416 22.655l4.426-.012.011 4.354-.022.079c-1.197-.013-2.393-.054-3.588-.025-.616.015-.824-.19-.809-.807.032-1.195-.008-2.392-.018-3.589" transform="translate(.446 .09)"/>
        <path fill="#A29A97" d="M58.309 49.725l-.001 4.415-4.39-.061.013-4.15.218-.208 4.16.004" transform="translate(.446 .09)"/>
        <path fill="#8A807D" d="M53.931 49.928l-.013 4.15-4.384-.001V49.71c1.466.073 2.948-.199 4.397.217" transform="translate(.446 .09)"/>
        <path fill="#CAA0A0" d="M53.924 67.504l-.003-4.35 4.848.004c-.204 1.051-.4 2.097-.525 3.168-.127 1.087-1.252.977-2.136.987-.286.003-.717-.492-.86.19l-1.324.001M41.16 63.104c-.119-.202-.44-.274-.339-.617.266-.89.118-1.806.107-2.707-.01-.821.328-1.058 1.11-1.067 2.637-.028 2.631-.051 2.651 2.598.003.385-.135.807.186 1.145l.005.232c-1.054.414-2.212 0-3.266.41l-.454.006" transform="translate(.446 .09)"/>
        <path fill="#B39391" d="M34.336 63.16c-.363.343-.358 1.61-1.314.5-.127-.146-.581-.112-.835-.023-.36.126-.028.44-.07.658-.163.84.375 1.518.498 2.29.068.433.5.702.795.626 1.654-.421 3.265.218 4.904.116 1.472-.092 1.676-.177 1.92-1.763.155-1.003-.304-1.695-1.284-1.987-.245-.073-.394-.163-.418-.418l1.979-.02-.015-.015c.003 1.205-.008 2.41.016 3.614.01.514-.078.808-.704.801-2.555-.028-5.11-.024-7.666-.005-.543.004-.686-.223-.673-.72.024-.985.03-1.971 0-2.956-.018-.59.241-.763.788-.733.691.038 1.386.026 2.08.036" transform="translate(.446 .09)"/>
        <path fill="#BCA39E" d="M17.83 67.091c.95 0 1.909-.077 2.849.021 1.002.105 1.356-.359 1.507-1.24.292-1.695-.339-2.407-2.007-2.324-.828.042-1.658.053-2.502-.126-3.336-.707-4.177-.11-4.016 2.721.003.037.003.073.001.11-.02.607.29.849.878.842 1.096-.014 2.193-.004 3.29-.004zm4.626-3.97c.004 1.206-.019 2.414.024 3.619.022.63-.212.814-.823.808-2.486-.028-4.974-.026-7.46-.005-.562.005-.798-.168-.764-.75.069-1.163-.45-2.626.197-3.41.636-.769 2.131-.222 3.246-.248 1.865-.043 3.73-.003 5.595 0l-.015-.015z" transform="translate(.446 .09)"/>
        <path fill="#B39391" d="M38.064 63.16c-.885.328-1.839.185-2.743.397-.274.065-.496-.073-.528-.397h3.271" transform="translate(.446 .09)"/>
        <path fill="#C4B4AE" d="M41.614 63.098c1.054-.41 2.212.004 3.266-.41.028.529-.369.44-.672.44-.864.001-1.729-.018-2.594-.03" transform="translate(.446 .09)"/>
        <path fill="#A29A97" d="M103.429 36.07l-.003 4.61c-1.267.002-2.536.025-3.803-.003-.612-.014-.835.216-.82.824.031 1.194.01 2.39.01 3.586l-4.396.004-.007-.007c.001-2.706-.004-5.413.007-8.12.003-.53-.042-.911-.743-.907-3.987.02-7.973.009-11.96.009-.339 0-.654.004-.718.47-.14 1.01-.328 2.019-.214 3.042.076.687.374 1.163 1.193 1.117.73-.04 1.469.05 2.193-.023.946-.095 1.278.2 1.255 1.2-.025 1.068-.288 2.176.19 3.222-.302 1.525-.21 3.07-.224 4.61l.003.004-4.18-.004-.333-4.279c-.653.79-1.388.834-2.18.768-.4-.034-.806-.002-1.209-.006-.709-.008-1.112.317-1.116 1.047-.012 2.3-.263 4.583-.446 6.872h-2.857c-1.361-.784-1.102-2.104-1.101-3.337 0-.147-.007-.293-.002-.44.01-.399-.158-.634-.58-.615-1.346.061-2.71-.194-4.038.214v-4.839c1.537-.128 3.098.257 4.617-.224.285.337.676.215 1.026.218 1.644.01 3.29.026 4.933-.002 3.41-.057 3.033.684 3.073-3.2.01-.89-.508-1.298-1.246-1.378-.79-.085-1.63-.115-2.392.07-.89.218-.947-.12-1.013-.847-.111-1.23.413-2.446.021-3.668l.003-4.392c1.167-.002 2.336-.045 3.501.008.876.039 1.18-.316 1.125-1.158-.048-.763.058-1.539-.026-2.296-.114-1.013.312-1.258 1.243-1.193 1.052.074 2.114.015 3.172.014 1.245.001 2.492.028 3.736-.007.653-.02.934.185.9.872-.045.914.017 1.833-.02 2.747-.026.657.29 1.005.886.991 1.384-.032 2.762.074 4.157-.113 1.232-.165 2.53-.337 3.768.135 0 1.163.014 2.327-.006 3.49-.01.646.264.924.912.914 1.236-.017 2.473-.002 3.709 0" transform="translate(.446 .09)"/>
        <path fill="#9D9592" d="M98.814 31.666c-1.239-.472-2.536-.3-3.768-.135-1.396.187-2.773.08-4.157.113-.596.014-.912-.334-.886-.991.037-.914-.025-1.833.02-2.747.033-.688-.247-.891-.9-.872-1.244.035-2.49.008-3.736.007.001-1.128-.048-2.259.02-3.383.052-.848-.277-1.088-1.07-1.027-.76.057-1.531-.034-2.29.024-.793.06-1.122-.179-1.072-1.026.066-1.124.013-2.255.012-3.383l9.03-.007 4.396.004 4.407-.006 4.61.01v13.415l-4.616.004" transform="translate(.446 .09)"/>
        <path fill="#908683" d="M103.43 45.084c.001 1.27-.02 2.539.012 3.808.015.61-.208.838-.82.823-1.27-.03-2.54-.008-3.809-.008l-.002-.002.002-4.618 4.617-.003z" transform="translate(.446 .09)"/>
        <path fill="#978C89" d="M103.43 45.084l-4.617.003c0-1.196.021-2.392-.01-3.586-.015-.608.208-.838.82-.824 1.267.029 2.536.005 3.803.003l.004 4.404M98.814 31.666l4.616-.004-.001 4.408c-1.236-.001-2.473-.018-3.708 0-.649.01-.923-.268-.913-.914.02-1.163.006-2.327.006-3.49M81.212 49.704l4.18.004c0 2.63.024 5.26-.015 7.89-.012.86.292 1.192 1.15 1.142.873-.05 1.754.023 2.628-.022.69-.035.886.255.867.902-.036 1.168-.008 2.337-.007 3.506l-9.026.003v-4.394c.235-1.543.45-3.086 0-4.63V52.81c.001-1.04-.43-2.112.223-3.106" transform="translate(.446 .09)"/>
        <path fill="#9D9592" d="M85.39 49.704c.014-1.54-.079-3.085.224-4.61l4.396-.003.004 4.61-4.625.003" transform="translate(.446 .09)"/>
        <path fill="#A29A97" d="M90.014 49.702l-.004-4.611 4.4-.007.007.008-.007 4.614-4.396-.004" transform="translate(.446 .09)"/>
        <path fill="#978C89" d="M94.41 49.706l.007-4.615 4.396-.004-.002 4.618h-4.4" transform="translate(.446 .09)"/>
        <path fill="#ADA4A1" d="M53.92 40.682l-13.407-.001-.013.01-.005-4.629v-4.385l.013-4.63 4.4-.007 4.614.014c.001 1.244.03 2.489-.009 3.732-.02.663.203.915.88.89 1.17-.04 2.341-.008 3.512-.007l.014 9.013" transform="translate(.446 .09)"/>
        <path fill="#908683" d="M53.92 40.682l-.015-9.013.04-.007c1.125 0 2.25-.025 3.374.011.76.025 1.038-.291 1.016-1.034-.035-1.196-.01-2.394-.011-3.591 1.27 0 2.54.02 3.808-.012.61-.015.839.207.824.82-.03 1.27-.008 2.54-.008 3.809-1.27 0-2.54.022-3.81-.009-.614-.015-.836.217-.82.826.033 1.196.014 2.394.016 3.592-.002 2.675-.027 5.35.01 8.024.01.768-.23 1.036-1.001 1-1.134-.052-2.272-.007-3.408-.003l-.02-.02.004-4.393" transform="translate(.446 .09)"/>
        <path fill="#908683" d="M53.931 49.928c-1.449-.416-2.931-.144-4.397-.217l-.003-4.621 4.385-.015.02.02c.104 1.54-.27 3.103.213 4.626-.072.07-.145.138-.218.207" transform="translate(.446 .09)"/>
        <path fill="#837874" d="M35.866 18.239l.029-4.598 8.978-.056.037.041-.005 4.61-4.397.01h-4.605l-.037-.007z" transform="translate(.446 .09)"/>
        <path fill="#C4B4AE" d="M17.841 18.24l-4.394-.001-.001-4.613 4.407-.013-.01.007-.002 4.62" transform="translate(.446 .09)"/>
        <path fill="#21201E" d="M17.851 9.244l4.594-.017.01 4.374-4.612.019.01-.007-.002-4.369z" transform="translate(.446 .09)"/>
        <path fill="#A29A97" d="M80.987 18.245l-4.612.001-9.024-.003-4.4.002-.008-.007.009-3.959c1.314-.117 2.71.37 3.916-.589.266-.212.627.015.93.153.937.427 2.042.036 2.967.609.128.079.529-.099.677-.268.533-.607 1.215-.57 1.914-.564 1.426.012 2.853.038 4.278-.009 1.08-.035 2.509.495 3.15-.24.66-.759.128-2.173.214-3.296.054-.694-.256-.882-.9-.864-1.243.034-2.487.007-3.73.006.092-1.537-.205-3.093.223-4.614l4.401-.005 4.39.005.01 4.619c0 1.164.014 2.328-.005 3.492-.01.65.27.922.916.913 1.237-.02 2.474-.005 3.71-.005l-.001-.002.005 4.619-9.03.006z" transform="translate(.446 .09)"/>
        <path fill="#ADA4A1" d="M76.368 9.217c1.243.001 2.487.028 3.73-.006.644-.018.954.17.9.864-.086 1.123.447 2.537-.214 3.295-.641.736-2.07.206-3.15.241-1.425.047-2.852.02-4.278.009-.7-.006-1.38-.043-1.914.564-.148.17-.549.347-.677.268-.925-.573-2.03-.182-2.967-.609-.303-.138-.664-.365-.93-.153-1.206.959-2.602.472-3.916.59.052-.638-.356-.67-.835-.666-1.19.013-2.379.002-3.568.001-.458-1.441-.117-2.921-.214-4.38l-.007-.013 9.016-.005 4.627.001h4.397" transform="translate(.446 .09)"/>
        <path fill="#A29A97" d="M67.344 9.217l.01-1.313c1.028-.16 2.058-.258 3.104-.23 1.442.039 1.5.074 1.513 1.544l-4.627-.001zM22.456 13.6l-.011-4.374.24-.008c1.122.002 2.245.027 3.366-.004.613-.017.834.214.818.822-.03 1.195-.005 2.39-.003 3.585v4.62c0 1.241.003 2.483-.004 3.724-.003.56.185 1.018.812.855 1.267-.33 2.543-.091 3.81-.178l4.399.01v4.394h-4.398l-4.623-.002-4.405.005-4.604-.051-.011-4.355c1.166 0 2.337-.06 3.498.02.949.064 1.159-.31 1.141-1.188-.053-2.624-.023-5.25-.025-7.874" transform="translate(.446 .09)"/>
        <path fill="#978C89" d="M26.865 18.24v-4.62l4.39.007.043 1.117.012 3.48-4.445.017M73.07 54.106h2.858l.443.003v4.617l-9.022.003c0-1.271.022-2.543-.01-3.813-.014-.618.224-.827.83-.817 1.634.026 3.268.008 4.902.007" transform="translate(.446 .09)"/>
        <path fill="#908683" d="M76.372 58.726V54.11c1.538 0 3.077-.002 4.616-.004.452 1.544.236 3.087.002 4.63l-4.618-.009" transform="translate(.446 .09)"/>
        <path fill="#978C89" d="M40.5 40.691l-4.617-.001-.003-4.621 4.615-.007.005 4.629z" transform="translate(.446 .09)"/>
        <path fill="#7B716E" d="M54.15 49.721c-.485-1.523-.11-3.086-.215-4.626 1.136-.004 2.274-.049 3.408.003.771.036 1.012-.232 1-1-.036-2.674-.01-5.35-.01-8.025 1.538-.001 3.076-.004 4.613-.006l.005 4.623.005 9.023-.005-.003-4.642.015-4.16-.004" transform="translate(.446 .09)"/>
        <path fill="#9D9592" d="M73.07 54.106c-1.633 0-3.267.02-4.901-.007-.606-.01-.844.199-.83.817.032 1.27.01 2.542.01 3.813l-4.4-.014c0-3.001 0-6.003.002-9.005l.005.003c1.465.07 2.946-.196 4.394.214 1.328-.407 2.692-.152 4.039-.213.421-.019.59.216.579.615-.005.147.002.293.002.44 0 1.233-.26 2.553 1.1 3.337" transform="translate(.446 .09)"/>
        <path fill="#ADA4A1" d="M22.456 13.6c.002 2.625-.028 5.25.025 7.875.018.878-.192 1.252-1.14 1.188-1.162-.08-2.333-.02-3.5-.02V18.24l.002-4.62 4.613-.018" transform="translate(.446 .09)"/>
        <path fill="#D68387" d="M30.864 7.789H35.972V18.317999999999998H30.864z" transform="translate(.446 .09)"/>
        <path fill="#B39391" d="M30.87 0.186H35.978V8.719H30.87z" transform="translate(.446 .09)"/>
        <path fill="#ADA4A1" d="M90.014 13.622c-1.237 0-2.474-.014-3.71.005-.647.01-.927-.264-.917-.913.02-1.164.005-2.328.004-3.492l4.624-.006-.003.006.002 4.4" transform="translate(.446 .09)"/>
        <path fill="#978C89" d="M98.82 18.237l-4.407.006-.009-4.618.017-.005c1.463.088 2.945-.198 4.391.223l.008 4.394" transform="translate(.446 .09)"/>
        <path fill="#908683" d="M44.905 18.236l.005-4.61 4.612-.015.005.014-.002 4.617-4.622.006.002-.012z" transform="translate(.446 .09)"/>
        <path fill="#9D9592" d="M90.014 13.622l-.002-4.4 4.394.006.015 4.392-.017.006-4.392-.006.002.002zM26.862 27.044l4.623.001-.006 4.616-4.573.007-.044-4.624" transform="translate(.446 .09)"/>
        <path fill="#908683" d="M31.479 31.66l.006-4.615 4.399.001-.002-.001c0 1.268.023 2.537-.007 3.804-.014.606.2.84.816.827 1.267-.028 2.536-.002 3.804.001v4.385l-4.615.007h-4.369l-.032-4.408" transform="translate(.446 .09)"/>
        <path fill="#A29A97" d="M58.335 9.235c.097 1.459-.244 2.939.214 4.38-.454 1.24-.107 2.526-.226 3.784-.066.701.273.87.905.852 1.237-.034 2.477-.012 3.715-.013l.007.007.003 4.392-4.628.011-4.396-.006c0-1.393-.002-2.786-.003-4.178l-.006-4.853.01-4.386 4.405.01" transform="translate(.446 .09)"/>
        <path fill="#9D9592" d="M53.92 13.611l.006 4.853c-.5.06-1.001.186-1.499.17-1.992-.063-1.991-.08-2.02 1.9-.002.108.006.218-.003.326-.02.278.052.646-.393.623-.359-.019-.471-.31-.476-.623-.011-.872-.008-1.745-.01-2.618l.002-4.617 4.393-.014z" transform="translate(.446 .09)"/>
        <path fill="#CAA0A0" d="M17.83 67.09c-1.097 0-2.194-.01-3.29.005-.588.007-.898-.235-.878-.842.002-.037.002-.073 0-.11-.162-2.83.68-3.428 4.015-2.721.844.179 1.674.168 2.502.126 1.668-.083 2.3.63 2.007 2.324-.151.881-.505 1.345-1.507 1.24-.94-.098-1.899-.021-2.85-.021" transform="translate(.446 .09)"/>
        <path fill="#ADA4A1" d="M94.41 45.084l-4.4.007-4.397.002c-.478-1.045-.215-2.153-.19-3.22.023-1-.31-1.296-1.255-1.2-.724.072-1.463-.019-2.193.022-.819.046-1.117-.43-1.193-1.116-.114-1.024.074-2.033.214-3.044.064-.465.38-.47.718-.47 3.987 0 7.973.012 11.96-.009.701-.003.746.377.743.909-.01 2.706-.006 5.413-.007 8.12" transform="translate(.446 .09)"/>
        <path fill="#908683" d="M76.375 18.247l4.612-.002c.001 1.129.054 2.26-.012 3.384-.05.847.279 1.087 1.071 1.026.76-.058 1.531.034 2.291-.024.793-.06 1.122.18 1.07 1.027-.068 1.124-.019 2.255-.02 3.383-1.058.001-2.12.06-3.172-.014-.93-.065-1.357.18-1.244 1.193.085.757-.022 1.533.027 2.296.054.842-.249 1.197-1.125 1.158-1.164-.053-2.334-.01-3.5-.008-.149 0-.297-.002-.445-.003.627-1.492.408-3.065.442-4.613l-.002-4.408.007-4.395" transform="translate(.446 .09)"/>
        <path fill="#ADA4A1" d="M76.37 36.058c.391 1.222-.133 2.439-.022 3.668.066.727.124 1.065 1.014.848.76-.186 1.602-.156 2.391-.07.738.079 1.256.487 1.247 1.378-.041 3.883.335 3.142-3.074 3.2-1.644.027-3.288.012-4.933 0-.35-.002-.741.12-1.026-.217l.01-8.791 4.392-.016" transform="translate(.446 .09)"/>
        <path fill="#978C89" d="M71.978 36.074l-.011 8.79c-1.519.482-3.08.097-4.616.226l-.007-4.41.009-4.614 4.609-.008.016.016z" transform="translate(.446 .09)"/>
        <path fill="#908683" d="M67.344 40.68l.007 4.41-.001 4.837c-1.448-.41-2.93-.145-4.394-.214l-.005-9.023 4.393-.01" transform="translate(.446 .09)"/>
        <path fill="#9D9592" d="M76.371 54.11l-.442-.005c.182-2.288.433-4.571.445-6.87.004-.731.407-1.056 1.116-1.048.404.004.81-.028 1.21.006.791.066 1.526.022 2.179-.768l.333 4.28c-.654.993-.222 2.065-.222 3.105l-.002 1.295-4.617.004z" transform="translate(.446 .09)"/>
        <path fill="#978C89" d="M76.37 36.058l-4.392.016-.016-.016c.003-1.162.02-2.325.003-3.486-.01-.647.266-.926.913-.913 1.016.02 2.034.004 3.05.004l.444.003-.003 4.392" transform="translate(.446 .09)"/>
        <path fill="#ADA4A1" d="M90.012 13.62l4.392.005.01 4.618-4.397-.004-.005-4.619" transform="translate(.446 .09)"/>
        <path fill="#9D9592" d="M35.883 27.047V22.65l.003-.012c1.236.002 2.472-.01 3.708.01.65.012.923-.267.913-.913-.018-1.163-.001-2.327 0-3.49l4.398-.01-.002.012.005 8.792-4.4.006-4.626-.001.001.002z" transform="translate(.446 .09)"/>
        <path fill="#978C89" d="M44.908 27.04l-.005-8.792 4.622-.006c.002.873-.001 1.746.01 2.618.005.313.117.604.476.623.445.023.372-.345.393-.623.009-.108.001-.218.003-.327.029-1.978.028-1.962 2.02-1.899.498.016 1-.11 1.5-.17l.002 4.178c-1.195.001-2.39.024-3.585-.006-.606-.015-.842.2-.826.816.032 1.194.01 2.39.01 3.585l-.006.017-4.614-.014" transform="translate(.446 .09)"/>
        <path fill="#A29A97" d="M35.882 27.045l4.626.001-.013 4.63c-1.268-.002-2.537-.028-3.804 0-.615.014-.83-.22-.816-.827.03-1.267.008-2.536.007-3.804" transform="translate(.446 .09)"/>
        <path fill="#9D9592" d="M53.905 31.67c-1.17-.002-2.343-.034-3.512.007-.677.024-.9-.228-.88-.891.038-1.243.01-2.488.01-3.732l.005-.017 4.4.007.018 4.618-.04.007z" transform="translate(.446 .09)"/>
        <path fill="#8A807D" d="M75.928 31.663c-1.016 0-2.034.015-3.05-.004-.647-.013-.923.266-.913.913.017 1.161 0 2.324-.003 3.486l-4.609.008-4.407.001-4.613.006c-.001-1.197.018-2.395-.014-3.591-.017-.61.205-.84.82-.826 1.269.03 2.54.01 3.81.009 1.195 0 2.392-.022 3.588.01.612.015.835-.214.82-.824-.03-1.268-.008-2.537-.008-3.806l4.619-.004 4.401.008c-.033 1.55.186 3.122-.44 4.614" transform="translate(.446 .09)"/>
        <path fill="#978C89" d="M67.349 27.045c0 1.269-.022 2.538.009 3.806.014.61-.21.839-.821.823-1.196-.031-2.393-.01-3.589-.01 0-1.269-.022-2.539.008-3.808.015-.613-.214-.835-.824-.82-1.269.031-2.539.011-3.808.012v-4.4l4.629-.01 4.395.003v4.404" transform="translate(.446 .09)"/>
        <path fill="#837874" d="M53.946 31.662l-.017-4.618 4.395.004c0 1.197-.024 2.395.011 3.591.022.743-.257 1.059-1.016 1.034-1.123-.036-2.249-.01-3.373-.011" transform="translate(.446 .09)"/>
        <path fill="#9D9592" d="M26.865 18.24l4.445-.016c.057-.005.113-.002.169.009l.006 4.41c-1.268.086-2.544-.154-3.811.177-.627.163-.815-.295-.812-.855.008-1.241.003-2.483.003-3.724" transform="translate(.446 .09)"/>
        <path fill="#978C89" d="M31.479 18.233c.66.007 4.246.006 4.387.006l.037.007-.017 4.393-.003.012-4.398-.009-.006-4.41z" transform="translate(.446 .09)"/>
        <path fill="#8A807D" d="M35.886 22.639l.017-4.394h4.605c-.002 1.164-.019 2.328-.001 3.491.01.646-.263.925-.913.914-1.236-.022-2.472-.01-3.708-.011" transform="translate(.446 .09)"/>
        <path fill="#9D9592" d="M67.348 22.641l.003-4.398 9.024.004-.006 4.395c-1.196 0-2.392.024-3.586-.007-.61-.015-.838.21-.822.82.03 1.195.008 2.391.007 3.586l-4.62.004V22.64z" transform="translate(.446 .09)"/>
        <path fill="#978C89" d="M62.943 18.238c-1.238.001-2.478-.021-3.715.013-.632.017-.97-.15-.905-.852.119-1.258-.228-2.544.226-3.784 1.19.001 2.379.012 3.568 0 .48-.006.887.027.835.664l-.009 3.96" transform="translate(.446 .09)"/>
        <path fill="#ADA4A1" d="M67.35 18.243c0 1.466 0 2.932-.002 4.398l-4.395-.004-.003-4.392 4.4-.002" transform="translate(.446 .09)"/>
        <path fill="#837874" d="M62.946 36.067h4.407l-.009 4.613-4.393.01-.005-4.623" transform="translate(.446 .09)"/>
        <path fill="#908683" d="M58.324 27.048l-4.395-.004-4.401-.007c0-1.195.022-2.39-.01-3.585-.016-.616.22-.831.826-.816 1.194.03 2.39.007 3.585.006l4.396.006-.001 4.4" transform="translate(.446 .09)"/>
        <path fill="#978C89" d="M71.96 23.456c-.015-.611.213-.836.823-.82 1.195.03 2.39.007 3.586.006v4.408l-4.401-.009c0-1.195.023-2.39-.007-3.585z" transform="translate(.446 .09)"/>
        <path fill="#B39391" d="M103.415 67.763L124.098 67.763 124.098 63.167 103.415 63.167z" transform="translate(.446 .09)"/>
        <path fill="#CAA0A0" d="M124.098 67.763L144.781 67.763 144.781 63.167 124.098 63.167z" transform="translate(.446 .09)"/>
        <path fill="#978C89" d="M144.781 67.763L153.399 67.763 153.399 63.167 144.781 63.167z" transform="translate(.446 .09)"/>
        <path fill="#8A807D" d="M153.399 67.763L173.507 67.763 173.507 63.167 153.399 63.167z" transform="translate(.446 .09)"/>
    </g>
</svg>
