<svg xmlns="http://www.w3.org/2000/svg" xmlns:xlink="http://www.w3.org/1999/xlink" width="32" height="32" viewBox="0 0 32 32">
    <defs>
        <path id="prefix__a" d="M0 0L30.538 0 30.538 31.712 0 31.712z"/>
    </defs>
    <g fill="none" fill-rule="evenodd" transform="translate(1.142 .064)">
        <mask id="prefix__b" fill="#fff">
            <use xlink:href="#prefix__a"/>
        </mask>
        <path fill="#FFF" d="M16.793 6.447c7.606 1.607 9.68 9.13 8.025 13.249l-1.657-.939 1.126 6.601 6.25-2.345-1.541-.904c1.637-4.656 1.32-9.131-1.26-13.325-2.588-4.208-6.447-6.48-11.355-7.01l3.013 2.501-2.6 2.172m6.44 18.56c-.093-.535-.19-1.07-.292-1.653-4.752 5.43-12.246 4.269-15.454.343l1.664-.978-6.262-2.324c-.371 2.225-.73 4.377-1.104 6.61l1.551-.893c1.494 1.824 3.285 3.24 5.41 4.22 2.137.987 4.383 1.447 6.736 1.372 2.34-.074 4.54-.67 6.602-1.775 2.042-1.093 4.582-3.389 5.093-4.604l-3.656 1.364c-.1-.591-.193-1.137-.287-1.681m-21.11-5.942l-.66 3.905C-2.785 14.419 2.59 3.303 12.698 1.791V0l5.165 4.278-5.139 4.282V6.616c-5.092.92-9.727 6.85-7.451 13.61l-3.15-1.16" mask="url(#prefix__b)"/>
    </g>
</svg>
