<svg xmlns="http://www.w3.org/2000/svg" width="32" height="32" viewBox="0 0 32 32">
    <path fill="#FFF" fill-rule="evenodd" d="M8.673 13.914l7.026 4.062c.116.062.217.134.302.214.084-.08.184-.152.3-.214l7.026-4.062C25.742 11.61 32 12.267 32 16.11v10.43h-9.66v-8.454l-4.502 2.635c-.72.431-1.417.13-1.839-.42-.42.55-1.118.851-1.837.42L9.66 18.086v8.453H0V16.11c0-3.842 6.258-4.5 8.673-2.195zM4.83 5.461c1.647 0 2.855 1.317 2.855 2.854 0 1.647-1.208 2.964-2.855 2.964-1.537 0-2.854-1.317-2.854-2.964 0-1.537 1.317-2.854 2.854-2.854zm22.34 0c1.537 0 2.854 1.317 2.854 2.854 0 1.647-1.317 2.964-2.854 2.964-1.647 0-2.855-1.317-2.855-2.964 0-1.537 1.208-2.854 2.855-2.854z"/>
</svg>
