<svg xmlns="http://www.w3.org/2000/svg" width="32" height="32" viewBox="0 0 32 32">
    <g fill="#FFF" fill-rule="evenodd" transform="translate(4.5)">
        <path fill-rule="nonzero" d="M19.368 15.37h-.04c-.792 0-1.457.671-1.457 1.535v1.198c0 .238-.194.432-.432.432-.24 0-.432-.194-.432-.432v-2.211c0-.864-.628-1.567-1.418-1.567-.795 0-1.422.703-1.422 1.567v2.343c0 .239-.194.432-.433.432-.238 0-.432-.193-.432-.432v-2.987c0-.863-.652-1.546-1.442-1.546h-.044c-.77 0-1.415.647-1.415 1.481v3.363c0 .239-.194.432-.432.432-.24 0-.433-.193-.433-.432v-3.265-.033-7.715c0-.864-.651-1.566-1.442-1.566-.79 0-1.442.702-1.443 1.565l-.008 12.662c0 .182-.115.345-.287.407-.172.061-.364.008-.48-.133l-1.511-1.84c-.399-.5-.987-.81-1.625-.86-.624-.04-1.237.18-1.692.608l-.017.015-.295.248 5.241 10.073c.828 1.59 2.392 2.585 4.083 2.585h6.06c2.578 0 4.677-2.268 4.68-5.047l.004-3.465c.003-2.376.004-3.25-.002-5.869-.002-.861-.645-1.547-1.434-1.547z"/>
        <circle cx="2.537" cy="2.663" r="2.537"/>
        <circle cx="11.807" cy="2.541" r="2.537"/>
        <circle cx="20.33" cy="2.537" r="2.537"/>
    </g>
</svg>
