<svg xmlns="http://www.w3.org/2000/svg" width="29" height="24" viewBox="0 0 29 24">
    <path fill="#3086D4" d="M28.5 3.223c-1.053.462-2.174.768-3.344.916 1.203-.718 2.121-1.847 2.553-3.207-1.122.668-2.36 1.14-3.68 1.404C22.964 1.202 21.446.5 19.79.5c-3.213 0-5.8 2.608-5.8 5.805 0 .46.04.902.135 1.323C9.3 7.393 5.031 5.081 2.163 1.558c-.5.869-.794 1.863-.794 2.933 0 2.01 1.035 3.792 2.578 4.823-.933-.017-1.847-.288-2.622-.714v.063c0 2.82 2.011 5.163 4.65 5.702-.473.13-.988.192-1.522.192-.372 0-.747-.022-1.1-.1.753 2.299 2.887 3.988 5.424 4.043-1.975 1.545-4.482 2.475-7.196 2.475-.476 0-.932-.02-1.389-.08C2.763 22.554 5.81 23.5 9.095 23.5c10.68 0 16.518-8.846 16.518-16.514 0-.257-.01-.504-.022-.75 1.152-.818 2.12-1.838 2.909-3.013z"/>
</svg>
