<?xml version="1.0" encoding="utf-8"?>
<svg width="107px" height="69px" viewBox="0 0 107 69" version="1.1" xmlns:xlink="http://www.w3.org/1999/xlink" xmlns="http://www.w3.org/2000/svg">
  <desc>Created with Lunacy</desc>
  <path d="M40.8015 27.5455Q43.9614 27.5455 46.6352 26.4901C48.4178 25.7864 49.9514 24.8117 51.2362 23.566C52.5211 22.3202 53.5223 20.861 54.2399 19.1884Q55.3164 16.6796 55.3164 13.7728Q55.3164 10.8659 54.2399 8.35709C53.5223 6.68452 52.5211 5.22534 51.2362 3.97957C49.9514 2.73379 48.4178 1.75908 46.6352 1.05545Q43.9614 0 40.8015 0Q37.6068 0 34.9504 1.05545Q32.2939 2.1109 30.3841 3.97957C29.1108 5.22534 28.1154 6.68452 27.3978 8.35709Q26.3213 10.8659 26.3213 13.7728Q26.3213 16.6796 27.3978 19.1884C28.1154 20.861 29.1108 22.3202 30.3841 23.566C31.6573 24.8117 33.1794 25.7864 34.9504 26.4901Q37.6068 27.5455 40.8015 27.5455ZM6.80603 15.5029L6.80603 26.8187L0 26.8187L0 0.726562L6.80603 0.726562L6.80603 11.4887L15.1052 0.726562L23.5086 0.726562L13.1259 13.0805L24.4809 26.8187L15.6608 26.8187L6.80603 15.5029ZM37.9714 20.434C38.8627 20.7916 39.806 20.9704 40.8015 20.9704C41.7969 20.9704 42.7403 20.7916 43.6315 20.434C44.5228 20.0764 45.3099 19.5746 45.9928 18.9287C46.6757 18.2827 47.214 17.5214 47.6075 16.6447Q48.1978 15.3298 48.1978 13.7725Q48.1978 12.2153 47.6075 10.9003C47.214 10.0237 46.6757 9.26236 45.9928 8.6164C45.3099 7.97044 44.5228 7.46867 43.6315 7.11108C42.7403 6.7535 41.7969 6.57471 40.8015 6.57471C39.806 6.57471 38.8627 6.7535 37.9714 7.11108C37.0802 7.46867 36.2988 7.97044 35.6275 8.6164C34.9562 9.26236 34.4237 10.0237 34.0302 10.9003Q33.4398 12.2153 33.4398 13.7725Q33.4398 15.3298 34.0302 16.6447C34.4237 17.5214 34.9562 18.2827 35.6275 18.9287C36.2988 19.5746 37.0802 20.0764 37.9714 20.434Z" transform="translate(2.055756 0.3613281)" id="КО" fill="#FFFFFF" fill-rule="evenodd" stroke="none" />
  <path d="M19.2375 30.2447L19.2375 27.7185Q22.1543 27.5109 24.533 26.4555Q26.9116 25.4 28.6131 23.7044C29.7475 22.5739 30.6214 21.2763 31.2348 19.8113Q32.155 17.6139 32.155 15.157Q32.155 12.6308 31.2522 10.4161Q30.3494 8.20137 28.6652 6.54033Q26.9811 4.8793 24.5851 3.82384Q22.1891 2.76839 19.2375 2.52616L19.2375 0L12.9176 0L12.9176 2.52616Q9.93125 2.76839 7.55261 3.82384Q5.17397 4.8793 3.48983 6.54033Q1.80568 8.20137 0.902841 10.4161Q0 12.6308 0 15.157Q0 17.6485 0.902841 19.8459Q1.80568 22.0433 3.48983 23.7217Q5.17397 25.4 7.56998 26.4555Q9.96598 27.5109 12.9176 27.7185L12.9176 30.2447L19.2375 30.2447ZM52.3204 22.4239L52.3204 28.1683L37.4235 28.1683L37.4235 2.07617L52.3204 2.07617L52.3204 7.82059L44.2296 7.82059L44.2296 12.1808L51.869 12.1808L51.869 17.9252L44.2296 17.9252L44.2296 22.4239L52.3204 22.4239ZM12.7092 21.2822L12.9176 21.2822L12.9176 8.96289L12.7092 8.96289Q11.4939 8.96289 10.4174 9.44736Q9.34094 9.93183 8.55963 10.7623C8.03876 11.316 7.62785 11.9678 7.32691 12.7175Q6.87548 13.8422 6.87548 15.1226Q6.87548 16.403 7.32691 17.5276C7.62785 18.2774 8.03876 18.9291 8.55963 19.4828C9.0805 20.0365 9.69976 20.4748 10.4174 20.7978Q11.4939 21.2822 12.7092 21.2822ZM19.4111 21.2822L19.2375 21.2822L19.2375 8.96289L19.4111 8.96289Q20.6265 8.96289 21.7029 9.44736Q22.7794 9.93183 23.578 10.7623C24.1105 11.316 24.5272 11.9678 24.8281 12.7175C25.1291 13.4673 25.2796 14.269 25.2796 15.1226C25.2796 15.9762 25.1291 16.7778 24.8281 17.5276C24.5272 18.2774 24.1105 18.9291 23.578 19.4828C23.0456 20.0365 22.4206 20.4748 21.7029 20.7978Q20.6265 21.2822 19.4111 21.2822Z" transform="translate(0 37.82031)" id="ФЕ" fill="#FFFFFF" fill-rule="evenodd" stroke="none" />
  <path d="M0 0L43.7559 0L43.7559 66.2796L0 66.2796L0 0Z" transform="translate(62.1265 0.4360352)" id="Rectangle" fill="#FFFFFF" stroke="none" />
  <path d="M4.76083 6.54075Q4.13072 6.80238 3.4656 6.80238Q1.96034 6.80238 0.980171 5.79074Q0 4.77911 0 3.34886Q0 2.68607 0.262546 2.0756Q0.525091 1.46513 0.997674 0.994194Q1.47026 0.52326 2.10037 0.26163Q2.73048 0 3.4306 0Q4.13072 0 4.74333 0.26163Q5.35593 0.52326 5.82852 0.976752C6.14357 1.27908 6.39445 1.63955 6.58115 2.05816Q6.86119 2.68607 6.86119 3.38375Q6.86119 4.11631 6.58115 4.72678Q6.3011 5.33725 5.84602 5.80819C5.54263 6.12214 5.1809 6.36633 4.76083 6.54075ZM12.9521 6.80238Q14.3873 6.80238 15.385 5.82563Q16.3827 4.84888 16.3827 3.38375Q16.3827 2.68607 16.1026 2.05816C15.9159 1.63955 15.6651 1.27908 15.35 0.976752C15.0349 0.674424 14.6732 0.43605 14.2648 0.26163Q13.6522 0 12.9521 0Q12.252 0 11.6219 0.26163C11.2018 0.43605 10.8342 0.680238 10.5192 0.994194Q10.0466 1.46513 9.78403 2.0756Q9.52148 2.68607 9.52148 3.34886Q9.52148 4.81399 10.5017 5.80819Q11.4818 6.80238 12.9521 6.80238ZM15.4375 35.6166L15.4375 29.8258L7.28112 29.8258L7.28112 25.2909L14.9825 25.2909L14.9825 19.5002L7.28112 19.5002L7.28112 15.1048L15.4375 15.1048L15.4375 9.31402L0.419922 9.31402L0.419922 35.6166L15.4375 35.6166ZM34.411 24.2095L34.411 35.6166L27.5498 35.6166L27.5498 9.31403L34.411 9.31403L34.411 20.1629L42.7775 9.31403L51.2489 9.31403L40.7821 21.7676L52.2291 35.6166L43.3376 35.6166L34.411 24.2095Z" transform="matrix(-4.371139E-08 -1 1 -4.371139E-08 65.76849 59.81396)" id="ЁК" fill="#161719" fill-rule="evenodd" stroke="none" />
</svg>