<?xml version="1.0" encoding="utf-8"?>
<svg width="417px" height="203px" viewBox="0 0 417 203" version="1.1" xmlns:xlink="http://www.w3.org/1999/xlink" xmlns="http://www.w3.org/2000/svg">
  <desc>Created with Lunacy</desc>
  <defs>
    <path d="M40 80C62.0914 80 80 62.0914 80 40C80 17.9086 62.0914 0 40 0C17.9086 0 0 17.9086 0 40C0 62.0914 17.9086 80 40 80Z" transform="translate(336.5 0.5)" id="path_1" />
    <clipPath id="clip_1">
      <use xlink:href="#path_1" />
    </clipPath>
  </defs>
  <path d="M40 80C62.0914 80 80 62.0914 80 40C80 17.9086 62.0914 0 40 0C17.9086 0 0 17.9086 0 40C0 62.0914 17.9086 80 40 80Z" transform="translate(112.5 0.5)" id="Oval" fill="#FBE4B9" stroke="none" />
  <g id="Group-15" transform="translate(112.5 129.8601)">
    <path d="M16 32C24.8366 32 32 24.8366 32 16C32 7.16344 24.8366 0 16 0C7.16344 0 0 7.16344 0 16C0 24.8366 7.16344 32 16 32Z" transform="translate(0 40)" id="Oval-Copy-2" fill="#F3CA89" stroke="none" />
    <path d="M16 32C24.8366 32 32 24.8366 32 16C32 7.16344 24.8366 0 16 0C7.16344 0 0 7.16344 0 16C0 24.8366 7.16344 32 16 32Z" id="Oval-Copy-11" fill="#DCB889" stroke="none" />
    <path d="M16 32C24.8366 32 32 24.8366 32 16C32 7.16344 24.8366 0 16 0C7.16344 0 0 7.16344 0 16C0 24.8366 7.16344 32 16 32Z" transform="translate(48 0)" id="Oval-Copy-13" fill="#F9EFE2" stroke="none" />
    <path d="M16 32C24.8366 32 32 24.8366 32 16C32 7.16344 24.8366 0 16 0C7.16344 0 0 7.16344 0 16C0 24.8366 7.16344 32 16 32Z" transform="translate(48 40)" id="Oval-Copy-10" fill="#E4C7B4" stroke="none" />
  </g>
  <g id="Group-16" transform="translate(224.5 129.8601)">
    <path d="M16 32C24.8366 32 32 24.8366 32 16C32 7.16344 24.8366 0 16 0C7.16344 0 0 7.16344 0 16C0 24.8366 7.16344 32 16 32Z" id="Oval-Copy-14" fill="#51555E" stroke="none" />
    <path d="M16 32C24.8366 32 32 24.8366 32 16C32 7.16344 24.8366 0 16 0C7.16344 0 0 7.16344 0 16C0 24.8366 7.16344 32 16 32Z" transform="translate(48 0)" id="Oval-Copy-15" fill="#F0F3F6" stroke="none" />
  </g>
  <g id="Group-17" transform="translate(0.5 129.8601)">
    <path d="M16 32C24.8366 32 32 24.8366 32 16C32 7.16344 24.8366 0 16 0C7.16344 0 0 7.16344 0 16C0 24.8366 7.16344 32 16 32Z" transform="translate(48 0)" id="Oval-Copy-16" fill="#FFECAE" stroke="none" />
    <path d="M16 32C24.8366 32 32 24.8366 32 16C32 7.16344 24.8366 0 16 0C7.16344 0 0 7.16344 0 16C0 24.8366 7.16344 32 16 32Z" id="Oval-Copy-12" fill="#FED650" stroke="none" />
  </g>
  <path d="M40 80C62.0914 80 80 62.0914 80 40C80 17.9086 62.0914 0 40 0C17.9086 0 0 17.9086 0 40C0 62.0914 17.9086 80 40 80Z" transform="translate(0.5 0.5)" id="Oval-Copy-9" fill="#FEC400" stroke="none" />
  <path d="M40 80C62.0914 80 80 62.0914 80 40C80 17.9086 62.0914 0 40 0C17.9086 0 0 17.9086 0 40C0 62.0914 17.9086 80 40 80Z" transform="translate(224.5 0.5)" id="Oval-Copy" fill="#161719" stroke="none" />
  <g id="Oval-Copy-3">
    <g clip-path="url(#clip_1)">
      <use xlink:href="#path_1" fill="none" stroke="#161719" stroke-width="2" />
    </g>
  </g>
  <g id="#FEC400" fill="#000000" fill-opacity="0.68235296" transform="translate(0.5 89.5)">
    <path d="M27.36 11.8665C27.36 14.9865 29.565 17.4315 32.73 17.4315C35.4 17.4315 36.9 15.6615 36.9 15.6615L36.09 14.5815C36.09 14.5815 34.845 16.0215 32.745 16.0215C30.585 16.0215 28.92 14.1765 28.92 11.8665C28.92 9.48146 30.57 7.87646 32.7 7.87646C33.765 7.87646 35.265 8.32646 35.265 9.21146L35.265 9.81146L36.645 9.81146L36.645 8.77646C36.645 7.06646 34.095 6.48146 32.67 6.48146C29.64 6.48146 27.36 8.80646 27.36 11.8665ZM50.58 17.4315C53.415 17.4315 54.33 15.0015 54.33 11.9415C54.33 8.89646 53.415 6.48146 50.58 6.48146C47.76 6.48146 46.845 8.89646 46.845 11.9415C46.845 15.0015 47.76 17.4315 50.58 17.4315ZM63.315 11.9415C63.315 15.0015 62.4 17.4315 59.565 17.4315C56.745 17.4315 55.83 15.0015 55.83 11.9415C55.83 8.89646 56.745 6.48146 59.565 6.48146C62.4 6.48146 63.315 8.89646 63.315 11.9415ZM2.01 17.2515L3.225 17.2515L3.735 14.3865L6.06 14.3865L5.55 17.2515L6.78 17.2515L7.275 14.3865L9.225 14.3865L9.405 13.2765L7.455 13.2765L7.905 10.7565L9.87 10.7565L10.05 9.66146L8.1 9.66146L8.625 6.66146L7.395 6.66146L6.87 9.66146L4.545 9.66146L5.07 6.66146L3.855 6.66146L3.33 9.66146L1.38 9.66146L1.2 10.7565L3.15 10.7565L2.7 13.2765L0.735 13.2765L0.555 14.3865L2.52 14.3865L2.01 17.2515ZM12.075 17.2515L13.575 17.2515L13.575 12.7215L17.205 12.7215L17.205 11.4315L13.575 11.4315L13.575 7.95146L16.215 7.95146C16.425 7.95146 16.545 8.05646 16.545 8.28146L16.545 8.95646L17.91 8.95646L17.91 7.62146C17.91 6.94646 17.625 6.66146 16.95 6.66146L11.1 6.66146L11.1 7.95146L12.075 7.95146L12.075 17.2515ZM20.715 17.2515C20.04 17.2515 19.74 16.9665 19.74 16.2915L19.74 7.95146L18.765 7.95146L18.765 6.66146L25.005 6.66146C25.68 6.66146 25.965 6.94646 25.965 7.62146L25.965 8.95646L24.585 8.95646L24.585 8.28146C24.585 8.05646 24.465 7.95146 24.255 7.95146L21.24 7.95146L21.24 11.2665L24.96 11.2665L24.96 12.5565L21.24 12.5565L21.24 15.6315C21.24 15.8415 21.36 15.9615 21.57 15.9615L24.675 15.9615C24.885 15.9615 25.005 15.8415 25.005 15.6315L25.005 14.9565L26.37 14.9565L26.37 16.2915C26.37 16.9665 26.085 17.2515 25.41 17.2515L20.715 17.2515ZM42.57 14.4465L37.575 14.4465L37.575 13.4865L42.36 6.66146L44.07 6.66146L44.07 13.1565L45.72 13.1565L45.72 14.4465L44.07 14.4465L44.07 17.2515L42.57 17.2515L42.57 14.4465ZM50.58 16.0665C48.855 16.0665 48.36 14.2515 48.36 11.9415C48.36 9.64646 48.855 7.84646 50.58 7.84646C52.32 7.84646 52.815 9.64646 52.815 11.9415C52.815 14.2515 52.32 16.0665 50.58 16.0665ZM57.345 11.9415C57.345 14.2515 57.84 16.0665 59.565 16.0665C61.305 16.0665 61.8 14.2515 61.8 11.9415C61.8 9.64646 61.305 7.84646 59.565 7.84646C57.84 7.84646 57.345 9.64646 57.345 11.9415ZM39.21 13.1715L39.21 13.2015C39.21 13.2015 39.645 13.1565 40.11 13.1565L42.585 13.1565L42.585 9.51146C42.585 9.03146 42.645 8.43147 42.645 8.43147L42.615 8.43147C42.615 8.43147 42.36 8.92647 42.09 9.31646L39.75 12.4965C39.48 12.8865 39.21 13.1715 39.21 13.1715ZM3.915 13.2765L4.365 10.7565L6.69 10.7565L6.24 13.2765L3.915 13.2765Z" />
  </g>
  <g id="#FBE4B9" fill="#000000" fill-opacity="0.68235296" transform="translate(112.5 89.5)">
    <path d="M57.03 17.4315C55.77 17.4315 54.975 16.9965 54.975 16.9965L55.455 15.7065C55.455 15.7065 56.13 16.0665 56.97 16.0665C58.905 16.0665 59.925 14.2365 60.15 12.4215L60.12 12.4215C59.685 13.0815 58.71 13.4565 57.78 13.4565C55.77 13.4565 54.435 11.9565 54.435 10.0215C54.435 7.93646 55.86 6.48146 57.84 6.48146C60.09 6.48146 61.8 8.40146 61.8 11.3565C61.8 14.1165 60.315 17.4315 57.03 17.4315ZM2.01 17.2515L3.225 17.2515L3.735 14.3865L6.06 14.3865L5.55 17.2515L6.78 17.2515L7.275 14.3865L9.225 14.3865L9.405 13.2765L7.455 13.2765L7.905 10.7565L9.87 10.7565L10.05 9.66146L8.1 9.66146L8.625 6.66146L7.395 6.66146L6.87 9.66146L4.545 9.66146L5.07 6.66146L3.855 6.66146L3.33 9.66146L1.38 9.66146L1.2 10.7565L3.15 10.7565L2.7 13.2765L0.735 13.2765L0.555 14.3865L2.52 14.3865L2.01 17.2515ZM12.075 17.2515L13.575 17.2515L13.575 12.7215L17.205 12.7215L17.205 11.4315L13.575 11.4315L13.575 7.95146L16.215 7.95146C16.425 7.95146 16.545 8.05646 16.545 8.28146L16.545 8.95646L17.91 8.95646L17.91 7.62146C17.91 6.94646 17.625 6.66146 16.95 6.66146L11.1 6.66146L11.1 7.95146L12.075 7.95146L12.075 17.2515ZM20.715 17.2515C20.04 17.2515 19.74 16.9665 19.74 16.2915L19.74 7.95146L18.765 7.95146L18.765 6.66146L23.31 6.66146C25.095 6.66146 26.385 7.65146 26.385 9.36146C26.385 10.5165 25.77 11.2965 25.065 11.6415L25.065 11.6715C26.175 12.0015 26.805 13.0515 26.805 14.2365C26.805 16.2315 25.26 17.2515 23.4 17.2515L20.715 17.2515ZM28.875 16.2915C28.875 16.9665 29.175 17.2515 29.85 17.2515L34.545 17.2515C35.22 17.2515 35.505 16.9665 35.505 16.2915L35.505 14.9565L34.14 14.9565L34.14 15.6315C34.14 15.8415 34.02 15.9615 33.81 15.9615L30.705 15.9615C30.495 15.9615 30.375 15.8415 30.375 15.6315L30.375 12.5565L34.095 12.5565L34.095 11.2665L30.375 11.2665L30.375 7.95146L33.39 7.95146C33.6 7.95146 33.72 8.05646 33.72 8.28146L33.72 8.95646L35.1 8.95646L35.1 7.62146C35.1 6.94646 34.815 6.66146 34.14 6.66146L27.9 6.66146L27.9 7.95146L28.875 7.95146L28.875 16.2915ZM41.235 14.4465L36.24 14.4465L36.24 13.4865L41.025 6.66146L42.735 6.66146L42.735 13.1565L44.385 13.1565L44.385 14.4465L42.735 14.4465L42.735 17.2515L41.235 17.2515L41.235 14.4465ZM46.23 16.2915C46.23 16.9665 46.53 17.2515 47.205 17.2515L49.89 17.2515C51.75 17.2515 53.295 16.2315 53.295 14.2365C53.295 13.0515 52.665 12.0015 51.555 11.6715L51.555 11.6415C52.26 11.2965 52.875 10.5165 52.875 9.36146C52.875 7.65146 51.585 6.66146 49.8 6.66146L45.255 6.66146L45.255 7.95146L46.23 7.95146L46.23 16.2915ZM55.905 10.0215C55.905 11.2815 56.715 12.2115 58.08 12.2115C59.265 12.2115 60.225 11.4915 60.225 10.7265C60.225 9.36146 59.205 7.84646 57.855 7.84646C56.625 7.84646 55.905 8.79146 55.905 10.0215ZM21.24 7.95146L21.24 11.1165L23.31 11.1165C24.255 11.1165 24.855 10.4415 24.855 9.51146C24.855 8.58146 24.285 7.95146 23.28 7.95146L21.24 7.95146ZM47.73 11.1165L47.73 7.95146L49.77 7.95146C50.775 7.95146 51.345 8.58146 51.345 9.51146C51.345 10.4415 50.745 11.1165 49.8 11.1165L47.73 11.1165ZM37.875 13.1715L37.875 13.2015C37.875 13.2015 38.31 13.1565 38.775 13.1565L41.25 13.1565L41.25 9.51146C41.25 9.03146 41.31 8.43147 41.31 8.43147L41.28 8.43147C41.28 8.43147 41.025 8.92647 40.755 9.31646L38.415 12.4965C38.145 12.8865 37.875 13.1715 37.875 13.1715ZM3.915 13.2765L4.365 10.7565L6.69 10.7565L6.24 13.2765L3.915 13.2765ZM21.24 12.3465L21.24 15.6315C21.24 15.8415 21.36 15.9615 21.57 15.9615L23.475 15.9615C24.585 15.9615 25.26 15.2415 25.26 14.1615C25.26 13.0815 24.555 12.3465 23.46 12.3465L21.24 12.3465ZM47.73 15.6315L47.73 12.3465L49.95 12.3465C51.045 12.3465 51.75 13.0815 51.75 14.1615C51.75 15.2415 51.075 15.9615 49.965 15.9615L48.06 15.9615C47.85 15.9615 47.73 15.8415 47.73 15.6315Z" />
  </g>
  <g id="#161719" fill="#000000" fill-opacity="0.68235296" transform="translate(224.5 89.5)">
    <path d="M25.605 13.8915C25.605 15.9765 24.18 17.4315 22.2 17.4315C19.95 17.4315 18.24 15.5115 18.24 12.5565C18.24 9.79646 19.74 6.48146 23.01 6.48146C24.27 6.48146 25.065 6.91646 25.065 6.91646L24.585 8.19146C24.585 8.19146 23.925 7.84646 23.085 7.84646C21.135 7.84646 20.13 9.66146 19.905 11.4765L19.935 11.4765C20.355 10.8315 21.345 10.4415 22.275 10.4415C24.27 10.4415 25.605 11.9565 25.605 13.8915ZM51.15 17.4315C49.89 17.4315 49.095 16.9965 49.095 16.9965L49.575 15.7065C49.575 15.7065 50.25 16.0665 51.09 16.0665C53.025 16.0665 54.045 14.2365 54.27 12.4215L54.24 12.4215C53.805 13.0815 52.83 13.4565 51.9 13.4565C49.89 13.4565 48.555 11.9565 48.555 10.0215C48.555 7.93646 49.98 6.48146 51.96 6.48146C54.21 6.48146 55.92 8.40146 55.92 11.3565C55.92 14.1165 54.435 17.4315 51.15 17.4315ZM2.01 17.2515L3.225 17.2515L3.735 14.3865L6.06 14.3865L5.55 17.2515L6.78 17.2515L7.275 14.3865L9.225 14.3865L9.405 13.2765L7.455 13.2765L7.905 10.7565L9.87 10.7565L10.05 9.66146L8.1 9.66146L8.625 6.66146L7.395 6.66146L6.87 9.66146L4.545 9.66146L5.07 6.66146L3.855 6.66146L3.33 9.66146L1.38 9.66146L1.2 10.7565L3.15 10.7565L2.7 13.2765L0.735 13.2765L0.555 14.3865L2.52 14.3865L2.01 17.2515ZM11.265 17.2515L17.385 17.2515L17.385 15.9615L15.09 15.9615L15.09 6.66146L13.71 6.66146L11.19 9.12146L12.075 10.0515L13.08 9.07646C13.455 8.70146 13.575 8.47646 13.575 8.47646L13.605 8.47646C13.605 8.47646 13.59 8.79146 13.59 9.12146L13.59 15.9615L11.265 15.9615L11.265 17.2515ZM26.805 17.2515L32.925 17.2515L32.925 15.9615L30.63 15.9615L30.63 6.66146L29.25 6.66146L26.73 9.12146L27.615 10.0515L28.62 9.07646C28.995 8.70146 29.115 8.47646 29.115 8.47646L29.145 8.47646C29.145 8.47646 29.13 8.79146 29.13 9.12146L29.13 15.9615L26.805 15.9615L26.805 17.2515ZM35.82 17.2515L34.17 17.2515L38.655 8.91146C38.985 8.31146 39.27 7.93646 39.27 7.93646L39.27 7.90646C39.27 7.90646 39.03 7.95146 38.505 7.95146L35.31 7.95146C35.1 7.95146 34.98 8.05646 34.98 8.28146L34.98 8.95646L33.615 8.95646L33.615 7.62146C33.615 6.94646 33.84 6.66146 34.515 6.66146L40.965 6.66146L40.965 7.68147L35.82 17.2515ZM41.7 17.2515L47.82 17.2515L47.82 15.9615L45.525 15.9615L45.525 6.66146L44.145 6.66146L41.625 9.12146L42.51 10.0515L43.515 9.07646C43.89 8.70146 44.01 8.47646 44.01 8.47646L44.04 8.47646C44.04 8.47646 44.025 8.79146 44.025 9.12146L44.025 15.9615L41.7 15.9615L41.7 17.2515ZM50.025 10.0215C50.025 11.2815 50.835 12.2115 52.2 12.2115C53.385 12.2115 54.345 11.4915 54.345 10.7265C54.345 9.36146 53.325 7.84646 51.975 7.84646C50.745 7.84646 50.025 8.79146 50.025 10.0215ZM3.915 13.2765L4.365 10.7565L6.69 10.7565L6.24 13.2765L3.915 13.2765ZM21.96 11.7015C20.775 11.7015 19.815 12.4215 19.815 13.1865C19.815 14.5365 20.85 16.0665 22.2 16.0665C23.415 16.0665 24.135 15.1215 24.135 13.8915C24.135 12.6165 23.325 11.7015 21.96 11.7015Z" />
  </g>
  <g id="#FFFFFF" fill="#000000" fill-opacity="0.68235296" transform="translate(336.5 89.5)">
    <path d="M2.01 17.2515L3.225 17.2515L3.735 14.3865L6.06 14.3865L5.55 17.2515L6.78 17.2515L7.275 14.3865L9.225 14.3865L9.405 13.2765L7.455 13.2765L7.905 10.7565L9.87 10.7565L10.05 9.66146L8.1 9.66146L8.625 6.66146L7.395 6.66146L6.87 9.66146L4.545 9.66146L5.07 6.66146L3.855 6.66146L3.33 9.66146L1.38 9.66146L1.2 10.7565L3.15 10.7565L2.7 13.2765L0.735 13.2765L0.555 14.3865L2.52 14.3865L2.01 17.2515ZM12.075 17.2515L13.575 17.2515L13.575 12.7215L17.205 12.7215L17.205 11.4315L13.575 11.4315L13.575 7.95146L16.215 7.95146C16.425 7.95146 16.545 8.05646 16.545 8.28146L16.545 8.95646L17.91 8.95646L17.91 7.62146C17.91 6.94646 17.625 6.66146 16.95 6.66146L11.1 6.66146L11.1 7.95146L12.075 7.95146L12.075 17.2515ZM21.24 17.2515L19.74 17.2515L19.74 7.95146L18.765 7.95146L18.765 6.66146L24.615 6.66146C25.29 6.66146 25.575 6.94646 25.575 7.62146L25.575 8.95646L24.21 8.95646L24.21 8.28146C24.21 8.05646 24.09 7.95146 23.88 7.95146L21.24 7.95146L21.24 11.4315L24.87 11.4315L24.87 12.7215L21.24 12.7215L21.24 17.2515ZM27.405 17.2515L28.905 17.2515L28.905 12.7215L32.535 12.7215L32.535 11.4315L28.905 11.4315L28.905 7.95146L31.545 7.95146C31.755 7.95146 31.875 8.05646 31.875 8.28146L31.875 8.95646L33.24 8.95646L33.24 7.62146C33.24 6.94646 32.955 6.66146 32.28 6.66146L26.43 6.66146L26.43 7.95146L27.405 7.95146L27.405 17.2515ZM36.57 17.2515L35.07 17.2515L35.07 7.95146L34.095 7.95146L34.095 6.66146L39.945 6.66146C40.62 6.66146 40.905 6.94646 40.905 7.62146L40.905 8.95646L39.54 8.95646L39.54 8.28146C39.54 8.05646 39.42 7.95146 39.21 7.95146L36.57 7.95146L36.57 11.4315L40.2 11.4315L40.2 12.7215L36.57 12.7215L36.57 17.2515ZM42.735 17.2515L44.235 17.2515L44.235 12.7215L47.865 12.7215L47.865 11.4315L44.235 11.4315L44.235 7.95146L46.875 7.95146C47.085 7.95146 47.205 8.05646 47.205 8.28146L47.205 8.95646L48.57 8.95646L48.57 7.62146C48.57 6.94646 48.285 6.66146 47.61 6.66146L41.76 6.66146L41.76 7.95146L42.735 7.95146L42.735 17.2515ZM51.9 17.2515L50.4 17.2515L50.4 7.95146L49.425 7.95146L49.425 6.66146L55.275 6.66146C55.95 6.66146 56.235 6.94646 56.235 7.62146L56.235 8.95646L54.87 8.95646L54.87 8.28146C54.87 8.05646 54.75 7.95146 54.54 7.95146L51.9 7.95146L51.9 11.4315L55.53 11.4315L55.53 12.7215L51.9 12.7215L51.9 17.2515ZM3.915 13.2765L4.365 10.7565L6.69 10.7565L6.24 13.2765L3.915 13.2765Z" />
  </g>
</svg>