<?xml version="1.0" encoding="utf-8"?>
<svg width="333px" height="134px" viewBox="0 0 333 134" version="1.1" xmlns:xlink="http://www.w3.org/1999/xlink" xmlns="http://www.w3.org/2000/svg">
  <desc>Created with Lunacy</desc>
  <g id="Group-2">
    <g id="Group" transform="translate(0 6.611989)">
      <path d="M128.101 9.18276C125.42 1.1051 116.026 -2.45357 108.708 1.83727L93.8876 10.5245C89.2241 8.1407 83.9946 6.81259 78.5414 6.81259L64.3917 6.81259L50.2419 6.81259C44.7853 6.81259 39.5558 8.1407 34.8957 10.5211L20.0783 1.83386C12.7577 -2.45697 3.36294 1.10169 0.6855 9.17936C-0.334639 12.251 -0.212629 15.5918 1.02781 18.5817L12.1172 45.3211L6.23356 60.431C0.577047 74.9551 5.46422 91.485 18.0956 100.55L35.2245 112.844C40.9657 116.975 47.8525 119.192 54.9189 119.192L64.3917 119.192L73.8644 119.192C80.9274 119.192 87.8142 116.975 93.5622 112.847L110.691 100.554C123.322 91.4884 128.21 74.9585 122.553 60.4344L116.67 45.3245L127.759 18.5851C128.999 15.5952 129.121 12.2545 128.101 9.18276Z" transform="translate(0.002500782 0.5699713)" id="Path" fill="#5F73E6" stroke="none" />
      <path d="M9.89975 21.6449L12.9127 29.3786L21.3009 9.15037C21.9144 7.67582 21.972 6.03441 21.4704 4.5224C20.4333 1.39963 17.5796 0 15.214 0C14.0549 0 12.9466 0.306488 11.9163 0.905843L0 7.89037C4.31102 11.4899 7.76797 16.1689 9.89975 21.6449Z" transform="translate(100.2041 7.382559)" id="Path" fill="#4055CD" stroke="none" />
      <path d="M8.892 29.3786L11.905 21.6449C14.0368 16.1689 17.4937 11.4899 21.8013 7.89037L9.88503 0.905843C8.85811 0.306488 7.74985 0 6.59076 0C4.22512 0 1.37144 1.39963 0.337744 4.52581C-0.163853 6.03782 -0.106237 7.67923 0.507202 9.15378L8.892 29.3786Z" transform="translate(6.779505 7.382559)" id="Path" fill="#4055CD" stroke="none" />
      <path d="M29.6224 68.1085L20.3361 68.1085C8.30459 68.1085 -1.09357 57.6708 0.102805 45.6429L2.81414 18.3995C3.85122 7.95507 12.5987 0 23.0475 0L26.9111 0C37.3599 0 46.1073 7.95507 47.1444 18.3995L49.8558 45.6429C51.0555 57.6708 41.654 68.1085 29.6224 68.1085Z" transform="translate(39.41487 58.4639)" id="Path" fill="#EDEFF1" stroke="none" />
      <path d="M32.2174 25.3568L19.8368 28.4659L19.8368 10.2163L22.4769 10.2163C23.9343 10.2163 25.2323 9.27978 25.6933 7.88696L26.8219 4.48154C27.5539 2.27823 25.9203 0 23.6089 0L12.6789 0C10.3641 0 8.73049 2.27823 9.46255 4.48154L10.5911 7.88696C11.0521 9.27978 12.3467 10.2163 13.8075 10.2163L16.4476 10.2163L16.4476 28.4659L4.067 25.3568L0 29.4433L2.39614 31.8509L5.10747 29.1266L18.1422 32.406L31.1803 29.13L33.8917 31.8543L36.2878 29.4467L32.2174 25.3568Z" transform="translate(46.25195 75.49101)" id="Path" fill="#6A89D8" stroke="none" />
    </g>
    <path d="M8.68919 0L8.68919 21.4983L0 21.4983L15.2061 42.9965L30.4122 21.4983L21.723 21.4983L21.723 0L8.68919 0Z" transform="translate(139.4765 61.87304)" id="Path" fill="#F56773" stroke="none" />
    <path d="M21.723 42.9965L21.723 21.4983L30.4122 21.4983L15.2061 0L0 21.4983L8.68919 21.4983L8.68919 42.9965L21.723 42.9965Z" transform="translate(168.84 54.53217)" id="Path" fill="#8495FC" stroke="none" />
    <g id="Group" transform="translate(197.3221 0)">
      <path d="M18.8745 0L9.76103 9.19835C9.45633 9.50589 9.0907 9.74884 8.6885 9.91183L2.00655 12.6089C-0.817975 13.7499 -0.610783 17.8554 2.31429 18.6981L14.2614 22.1425C15.1633 22.4008 16.1292 22.2501 16.9092 21.7242L25.2578 16.1056L18.8745 0Z" transform="translate(9.855225 38.94615)" id="Path" fill="#6E83B7" stroke="none" />
      <path d="M18.8745 0L9.76103 9.19835C9.45633 9.50589 9.0907 9.74884 8.6885 9.91183L2.00655 12.6089C-0.817975 13.7499 -0.610783 17.8554 2.31429 18.6981L14.2614 22.1425C15.1633 22.4008 16.1292 22.2501 16.9092 21.7242L25.2578 16.1056L18.8745 0Z" transform="translate(9.855225 38.94615)" id="Path" fill="#6E83B7" stroke="none" />
      <path d="M2.00167 11.2281L8.68363 8.531C9.08582 8.36801 9.44841 8.12506 9.75615 7.81752L17.5015 0L22.0628 11.5049L13.7141 17.1204C12.9341 17.6432 11.9682 17.797 11.0663 17.5387L0.00286881 14.3496C-0.0489293 13.0856 0.600071 11.7939 2.00167 11.2281Z" transform="translate(13.0533 42.16911)" id="Path" fill="#4055CD" stroke="none" />
      <path d="M47.8797 29.7386L27.6054 23.8923C23.9947 22.8498 20.7071 20.897 18.0501 18.2183L0 0L9.06162 27.4382C10.3627 31.3747 12.721 34.8652 15.8776 37.5192L33.1478 52.044L47.8797 29.7386Z" id="Path" fill="#EDEFF1" stroke="none" />
      <path d="M6.38336 0L15.4968 9.19835C15.8015 9.50589 16.1671 9.74884 16.5693 9.91183L23.2513 12.6089C26.0758 13.7499 25.8686 17.8554 22.9435 18.6981L10.9964 22.1425C10.0945 22.4008 9.12866 22.2501 8.34864 21.7242L0 16.1056L6.38336 0Z" transform="translate(98.9527 38.94615)" id="Path" fill="#6E83B7" stroke="none" />
      <path d="M6.38336 0L15.4968 9.19835C15.8015 9.50589 16.1671 9.74884 16.5693 9.91183L23.2513 12.6089C26.0758 13.7499 25.8686 17.8554 22.9435 18.6981L10.9964 22.1425C10.0945 22.4008 9.12866 22.2501 8.34864 21.7242L0 16.1056L6.38336 0Z" transform="translate(98.9527 38.94615)" id="Path" fill="#6E83B7" stroke="none" />
      <path d="M20.0611 11.2281L13.3791 8.531C12.977 8.36801 12.6144 8.12506 12.3066 7.81752L4.56128 0L0 11.5049L8.34864 17.1204C9.12866 17.6432 10.0945 17.797 10.9964 17.5387L22.0599 14.3496C22.1117 13.0856 21.4627 11.7939 20.0611 11.2281Z" transform="translate(98.94965 42.16911)" id="Path" fill="#4055CD" stroke="none" />
      <path d="M0 29.7386L20.2744 23.8923C23.885 22.8498 27.1727 20.897 29.8296 18.2183L47.8798 0L38.8181 27.4382C37.5171 31.3747 35.1587 34.8652 32.0021 37.5192L14.732 52.044L0 29.7386Z" transform="translate(86.18598 0)" id="Path" fill="#EDEFF1" stroke="none" />
      <path d="M72.8739 28.4408L70.2291 25.7714L70.2291 23.6248C70.2291 20.8355 69.3333 18.123 67.6758 15.8934L62.0237 8.28805C60.9207 6.80574 59.5343 5.5879 57.9225 4.7022C54.4551 2.79549 47.764 0 38.3062 0C28.8485 0 22.1574 2.79241 18.69 4.7022C17.0781 5.59097 15.6918 6.80574 14.5888 8.28805L8.9367 15.8934C7.27916 18.123 6.38336 20.8385 6.38336 23.6248L6.38336 25.7714L3.73861 28.4408C1.3437 30.858 0 34.1363 0 37.553L0 42.7657C0 44.3096 0.274225 45.8442 0.813535 47.2896L9.01897 69.3705C9.39069 70.37 9.6375 71.4126 9.75328 72.4735L12.7698 99.8718L38.3093 99.8718L63.8457 99.8718L66.8622 72.4735C66.978 71.4126 67.2248 70.37 67.5965 69.3705L75.802 47.2896C76.3382 45.8442 76.6155 44.3096 76.6155 42.7657L76.6155 37.553C76.6125 34.1332 75.2688 30.8549 72.8739 28.4408Z" transform="translate(28.72358 19.33469)" id="Path" fill="#5F73E6" stroke="none" />
      <path d="M60.1425 17.1819L55.6239 6.53818C53.9389 2.57099 50.0754 0 45.8005 0L30.5018 0L15.2061 0C10.9313 0 7.06774 2.57099 5.38278 6.53818L0.864155 17.1819C-0.55877 20.5341 -0.208371 24.3813 1.79652 27.4136C3.78008 30.4151 7.11649 32.2173 10.6875 32.2173L30.5018 32.2173L50.3192 32.2173C53.8932 32.2173 57.2297 30.4151 59.2102 27.4136C61.2151 24.3813 61.5655 20.5341 60.1425 17.1819Z" transform="translate(36.53104 90.20905)" id="Path" fill="#EDEFF1" stroke="none" />
      <path d="M22.3433 0L0 0L1.98356 8.00512C2.6935 10.8744 5.24685 12.8857 8.17801 12.8857L22.3433 12.8857L36.5116 12.8857C39.4397 12.8857 41.993 10.8744 42.706 8.00512L44.6896 0L22.3433 0Z" transform="translate(44.68959 119.2065)" id="Path" fill="#EDEFF1" stroke="none" />
      <path d="M9.1835 8.9062L6.16702 5.85853L0 2.74936L1.36503 0L8.14449 3.50897L11.3377 6.73193L9.1835 8.9062Z" transform="translate(47.19723 101.7231)" id="Path" fill="#6E83B7" stroke="none" />
      <path d="M2.15419 8.9062L0 6.73193L3.5893 3.21989L9.97571 0L11.3377 2.74936L5.17067 5.85853L2.15419 8.9062Z" transform="translate(75.53081 101.7231)" id="Path" fill="#6E83B7" stroke="none" />
    </g>
  </g>
</svg>