<?xml version="1.0" encoding="utf-8"?>
<!-- Generator: Adobe Illustrator 18.1.1, SVG Export Plug-In . SVG Version: 6.00 Build 0)  -->
<svg version="1.1" id="макет" xmlns="http://www.w3.org/2000/svg" xmlns:xlink="http://www.w3.org/1999/xlink" x="0px" y="0px"
	 width="100px" height="100px" viewBox="0 0 100 100" enable-background="new 0 0 100 100" xml:space="preserve">
<g>
	<path fill-rule="evenodd" clip-rule="evenodd" fill="#FFFFFF" d="M50,100c27.5,0,50-22.5,50-50c0-27.5-22.5-50-50-50
		C22.5,0,0,22.5,0,50C0,77.5,22.5,100,50,100z"/>
	<g>
		
			<polygon fill-rule="evenodd" clip-rule="evenodd" fill="none" stroke="#00AFEE" stroke-width="0.75" stroke-linejoin="round" stroke-miterlimit="22.9256" points="
			76.7,35.1 69.2,69.2 42.8,73.5 27.1,63.2 27.8,33.3 54.1,32.3 		"/>
		
			<polyline fill-rule="evenodd" clip-rule="evenodd" fill="none" stroke="#00AFEE" stroke-width="0.75" stroke-linejoin="round" stroke-miterlimit="22.9256" points="
			27.8,33.3 49.5,37.9 76.7,35.1 		"/>
		
			<line fill-rule="evenodd" clip-rule="evenodd" fill="none" stroke="#00AFEE" stroke-width="0.75" stroke-linejoin="round" stroke-miterlimit="22.9256" x1="49.5" y1="37.9" x2="42.8" y2="73.5"/>
		
			<line fill-rule="evenodd" clip-rule="evenodd" fill="none" stroke="#00AFEE" stroke-width="0.75" stroke-linejoin="round" stroke-miterlimit="22.9256" x1="59.3" y1="36.9" x2="52.7" y2="71.9"/>
		
			<polygon fill-rule="evenodd" clip-rule="evenodd" fill="none" stroke="#00AFEE" stroke-width="0.75" stroke-linejoin="round" stroke-miterlimit="22.9256" points="
			56.7,67.7 67,65.9 71.6,45.1 60.7,46.5 		"/>
		
			<polygon fill-rule="evenodd" clip-rule="evenodd" fill="none" stroke="#00AFEE" stroke-width="0.75" stroke-linejoin="round" stroke-miterlimit="22.9256" points="
			50.7,66.1 47.6,66.3 46.9,70.9 50,70.6 		"/>
		
			<polygon fill-rule="evenodd" clip-rule="evenodd" fill="none" stroke="#00AFEE" stroke-width="0.75" stroke-linejoin="round" stroke-miterlimit="22.9256" points="
			42.4,28.5 47.5,28.5 47.5,32.6 42.4,32.8 		"/>
	</g>
</g>
</svg>
