<?xml version="1.0" encoding="utf-8"?>
<!-- Generator: Adobe Illustrator 18.1.1, SVG Export Plug-In . SVG Version: 6.00 Build 0)  -->
<svg version="1.1" id="макет" xmlns="http://www.w3.org/2000/svg" xmlns:xlink="http://www.w3.org/1999/xlink" x="0px" y="0px"
	 width="100px" height="100px" viewBox="0 0 100 100" enable-background="new 0 0 100 100" xml:space="preserve">
<g>
	<circle fill-rule="evenodd" clip-rule="evenodd" fill="#FFFFFF" cx="50" cy="50" r="50"/>
	<g>
		
			<path fill-rule="evenodd" clip-rule="evenodd" fill="#00AFEE" stroke="#00AFEE" stroke-width="0.216" stroke-miterlimit="22.9256" d="
			M69.1,59.9c-3.8,7-11.2,11.8-19.7,11.8c-12.3,0-22.3-10-22.3-22.3c0-10,6.6-18.4,15.6-21.3c-4.2,3.8-6.8,9.3-6.8,15.3
			c0,11.4,9.3,20.7,20.7,20.7C61.3,64.1,65.7,62.5,69.1,59.9z"/>
		<g>
			<polygon fill-rule="evenodd" clip-rule="evenodd" fill="#00AFEE" points="54.5,26.7 55.2,31.8 59.6,29.2 56,32.9 60.9,34.7 
				55.7,34.2 57.4,39.1 54.5,34.8 51.7,39.1 53.3,34.2 48.1,34.7 53,32.9 49.4,29.2 53.8,31.8 			"/>
			<polygon fill-rule="evenodd" clip-rule="evenodd" fill="#00AFEE" points="69.1,37.3 69.7,41.9 73.6,39.5 70.4,42.8 74.7,44.4 
				70.1,44 71.6,48.3 69.1,44.5 66.6,48.3 68,44 63.5,44.4 67.7,42.8 64.6,39.5 68.5,41.9 			"/>
			<polygon fill-rule="evenodd" clip-rule="evenodd" fill="#00AFEE" points="55.1,46.5 55.6,50.7 59.3,48.5 56.3,51.6 60.3,53 
				56.1,52.6 57.4,56.7 55.1,53.1 52.7,56.7 54.1,52.6 49.8,53 53.8,51.6 50.9,48.5 54.5,50.7 			"/>
		</g>
	</g>
</g>
</svg>
