<?xml version="1.0" encoding="utf-8"?>
<!-- Generator: Adobe Illustrator 18.1.1, SVG Export Plug-In . SVG Version: 6.00 Build 0)  -->
<svg version="1.1" id="макет" xmlns="http://www.w3.org/2000/svg" xmlns:xlink="http://www.w3.org/1999/xlink" x="0px" y="0px"
	 width="100px" height="100px" viewBox="0 0 100 100" enable-background="new 0 0 100 100" xml:space="preserve">
<g>
	<path fill-rule="evenodd" clip-rule="evenodd" fill="#FFFFFF" d="M50,100c27.5,0,50-22.5,50-50c0-27.5-22.5-50-50-50
		C22.5,0,0,22.5,0,50C0,77.5,22.5,100,50,100z"/>
</g>
<g>
	<circle fill-rule="evenodd" clip-rule="evenodd" fill="#FFFFFF" cx="50" cy="50" r="50"/>
	<g>
		
			<path fill-rule="evenodd" clip-rule="evenodd" fill="none" stroke="#00AFEE" stroke-width="0.7498" stroke-miterlimit="22.9256" d="
			M16.7,27.7h66.5c1.1,0,2,0.9,2,2v40.6c0,1.1-0.9,2-2,2H16.7c-1.1,0-2-0.9-2-2V29.7C14.8,28.6,15.6,27.7,16.7,27.7z"/>
		
			<path fill-rule="evenodd" clip-rule="evenodd" fill="none" stroke="#00AFEE" stroke-width="0.7498" stroke-miterlimit="22.9256" d="
			M20.7,32.9h58.6c0.5,0,0.9,0.4,0.9,0.9v30.6c0,0.5-0.4,0.9-0.9,0.9H20.7c-0.5,0-0.9-0.4-0.9-0.9V33.8
			C19.8,33.3,20.2,32.9,20.7,32.9z"/>
		
			<line fill-rule="evenodd" clip-rule="evenodd" fill="none" stroke="#00AFEE" stroke-width="1.4998" stroke-miterlimit="22.9256" stroke-dasharray="7.4991,1.4998" x1="33.3" y1="57.9" x2="66.7" y2="57.9"/>
		<path fill-rule="evenodd" clip-rule="evenodd" fill="#00AFEE" d="M36.8,48.1l-0.1,5.7l1,0.8l1-0.8l0.1-5.7l-1-0.8L36.8,48.1
			L36.8,48.1z M38.9,46.6l-1,0.8l-1-0.8l0.1-5.6l1-0.8l1,0.8L38.9,46.6L38.9,46.6z M48.8,40.2H41l2,1.5h5.7l1-0.8L48.8,40.2
			L48.8,40.2z M43,46.6l-1,0.8l1,0.8h5.7l1-0.8l-1-0.8H43L43,46.6z M42.6,48.4l-0.1,5.4l-1,0.8l-1-0.8l0.1-5.4l1-0.8L42.6,48.4
			L42.6,48.4z M42.7,42l-0.1,4.4l-1,0.8l-1-0.8l0.1-5.9L42.7,42L42.7,42z M51.2,42l-0.1,4.4l-1,0.8l-1-0.8l0.1-4.4l1-0.8L51.2,42
			L51.2,42z M54.8,53l-1,0.8l1,0.8h6.1l1-0.8l-1-0.8H54.8L54.8,53z M55.3,40.2l-1,0.8l1,0.8h6.1l1-0.8l-1-0.8H55.3L55.3,40.2z
			 M54.9,42l-0.1,4.4l-1,0.8l-1-0.8l0.1-4.4l1-0.8L54.9,42L54.9,42z M63.3,48.4l-0.1,4.4l-1,0.8l-1-0.8l0.1-4.4l1-0.8L63.3,48.4
			L63.3,48.4z M55.2,46.6l-1,0.8l1,0.8h5.7l1-0.8l-1-0.8H55.2z"/>
	</g>
</g>
</svg>
