<?xml version="1.0" encoding="utf-8"?>
<!-- Generator: Adobe Illustrator 18.1.1, SVG Export Plug-In . SVG Version: 6.00 Build 0)  -->
<svg version="1.1" id="макет" xmlns="http://www.w3.org/2000/svg" xmlns:xlink="http://www.w3.org/1999/xlink" x="0px" y="0px"
	 width="100px" height="100px" viewBox="0 0 100 100" enable-background="new 0 0 100 100" xml:space="preserve">
<g>
	<path fill-rule="evenodd" clip-rule="evenodd" fill="#FFFFFF" d="M50,100c27.5,0,50-22.5,50-50c0-27.5-22.5-50-50-50
		C22.5,0,0,22.5,0,50C0,77.5,22.5,100,50,100z"/>
	<g>
		<g>
			
				<path fill-rule="evenodd" clip-rule="evenodd" fill="none" stroke="#00AFEE" stroke-width="0.75" stroke-miterlimit="22.9256" d="
				M50,72.5c12.4,0,22.5-10.1,22.5-22.5S62.4,27.5,50,27.5S27.5,37.6,27.5,50S37.6,72.5,50,72.5z"/>
			
				<path fill-rule="evenodd" clip-rule="evenodd" fill="none" stroke="#00AFEE" stroke-width="0.75" stroke-miterlimit="22.9256" d="
				M50,69.1c10.5,0,19.1-8.6,19.1-19.1c0-10.5-8.6-19.1-19.1-19.1c-10.5,0-19.1,8.6-19.1,19.1C30.9,60.5,39.5,69.1,50,69.1z"/>
		</g>
		<g>
			<g>
				<path fill="#00AFEE" d="M45.5,47.3l1.5,0.5c-0.2,0.8-0.6,1.4-1.1,1.8c-0.5,0.4-1.2,0.6-2,0.6c-1,0-1.8-0.3-2.4-1s-1-1.6-1-2.8
					c0-1.2,0.3-2.2,1-2.9s1.5-1,2.5-1c0.9,0,1.7,0.3,2.2,0.8c0.3,0.3,0.6,0.8,0.8,1.4L45.4,45c-0.1-0.4-0.3-0.7-0.6-0.9
					s-0.6-0.3-1-0.3c-0.6,0-1,0.2-1.3,0.6c-0.3,0.4-0.5,1-0.5,1.9c0,0.9,0.2,1.6,0.5,2c0.3,0.4,0.8,0.6,1.3,0.6c0.4,0,0.7-0.1,1-0.4
					C45.2,48.3,45.4,47.9,45.5,47.3z"/>
				<path fill="#00AFEE" d="M48.2,50.1v-7.5h2.4c0.9,0,1.5,0,1.8,0.1c0.4,0.1,0.8,0.4,1.1,0.7c0.3,0.4,0.4,0.9,0.4,1.5
					c0,0.5-0.1,0.8-0.2,1.2c-0.2,0.3-0.4,0.6-0.6,0.7c-0.3,0.2-0.5,0.3-0.8,0.4c-0.4,0.1-0.9,0.1-1.6,0.1h-1v2.8H48.2z M49.7,43.9
					V46h0.8c0.6,0,1,0,1.2-0.1c0.2-0.1,0.4-0.2,0.5-0.4c0.1-0.2,0.2-0.4,0.2-0.6c0-0.3-0.1-0.5-0.2-0.7c-0.2-0.2-0.4-0.3-0.6-0.3
					c-0.2,0-0.5-0.1-1.1-0.1H49.7z"/>
				<path fill="#00AFEE" d="M55.2,50.1v-7.4h1.5v6.1h3.7v1.3H55.2z"/>
			</g>
			<g>
				<path fill="#00AFEE" d="M39.7,57.7v0.6h-0.9v-0.6c-0.8,0-1.3-0.2-1.6-0.6c-0.3-0.4-0.5-0.8-0.5-1.3c0-0.6,0.2-1,0.5-1.3
					c0.3-0.3,0.9-0.5,1.6-0.5v-0.5h0.9v0.5c0.8,0,1.3,0.2,1.6,0.6c0.3,0.3,0.5,0.8,0.5,1.3c0,0.5-0.2,1-0.5,1.3
					C41.1,57.5,40.5,57.7,39.7,57.7z M38.8,56.9v-2.1c-0.4,0-0.7,0.1-0.9,0.3c-0.2,0.2-0.3,0.5-0.3,0.8C37.6,56.5,38,56.9,38.8,56.9
					z M39.7,56.9c0.3,0,0.5,0,0.7-0.1c0.2-0.1,0.3-0.2,0.4-0.3c0.1-0.1,0.1-0.4,0.1-0.6c0-0.7-0.4-1-1.2-1V56.9z"/>
				<path fill="#00AFEE" d="M42.6,53.5h0.9v3.2l1.9-3.2h1v4.8h-0.9v-3.1l-1.9,3.1h-1V53.5z"/>
				<path fill="#00AFEE" d="M47.8,53.5h3.4v4.8h-1v-4h-1.4v2c0,0.6,0,1-0.1,1.2c0,0.2-0.1,0.4-0.3,0.5c-0.2,0.1-0.4,0.2-0.7,0.2
					c-0.1,0-0.3,0-0.6,0v-0.7l0.2,0c0.2,0,0.3,0,0.4-0.1c0.1-0.1,0.1-0.2,0.1-0.4l0-0.8V53.5z"/>
				<path fill="#00AFEE" d="M52.2,53.5h1v1.9h1.3c0.6,0,1.1,0.1,1.3,0.4c0.3,0.3,0.4,0.6,0.4,1c0,0.3-0.1,0.6-0.2,0.8
					c-0.2,0.2-0.4,0.4-0.6,0.5c-0.2,0.1-0.5,0.1-0.9,0.1h-2.3V53.5z M53.1,57.5h0.9c0.3,0,0.5,0,0.6,0c0.1,0,0.2-0.1,0.3-0.2
					c0.1-0.1,0.1-0.2,0.1-0.4c0-0.2-0.1-0.4-0.2-0.5c-0.2-0.1-0.4-0.2-0.8-0.2h-1V57.5z"/>
				<path fill="#00AFEE" d="M57.4,58.3v-4h-1.4v-0.8h3.8v0.8h-1.4v4H57.4z"/>
				<path fill="#00AFEE" d="M60.4,58.3v-4.8h1.6c0.6,0,1,0,1.2,0.1c0.3,0.1,0.5,0.2,0.7,0.5c0.2,0.2,0.3,0.6,0.3,0.9
					c0,0.3-0.1,0.5-0.2,0.7c-0.1,0.2-0.2,0.4-0.4,0.5c-0.2,0.1-0.3,0.2-0.5,0.2c-0.2,0-0.6,0.1-1,0.1h-0.6v1.8H60.4z M61.3,54.3v1.4
					h0.5c0.4,0,0.6,0,0.8-0.1c0.1-0.1,0.2-0.1,0.3-0.2C63,55.2,63,55.1,63,55c0-0.2-0.1-0.3-0.2-0.4c-0.1-0.1-0.2-0.2-0.4-0.2
					c-0.1,0-0.3,0-0.7,0H61.3z"/>
			</g>
		</g>
	</g>
</g>
</svg>
