<?xml version="1.0" encoding="utf-8"?>
<!-- Generator: Adobe Illustrator 18.1.1, SVG Export Plug-In . SVG Version: 6.00 Build 0)  -->
<svg version="1.1" id="макет" xmlns="http://www.w3.org/2000/svg" xmlns:xlink="http://www.w3.org/1999/xlink" x="0px" y="0px"
	 width="100px" height="100px" viewBox="0 0 100 100" enable-background="new 0 0 100 100" xml:space="preserve">
<g>
	<path fill-rule="evenodd" clip-rule="evenodd" fill="#FFFFFF" d="M50,100c27.5,0,50-22.5,50-50c0-27.5-22.5-50-50-50
		C22.5,0,0,22.5,0,50C0,77.5,22.5,100,50,100z"/>
	<path fill-rule="evenodd" clip-rule="evenodd" fill="none" stroke="#00AFEE" stroke-width="0.75" stroke-miterlimit="22.9256" d="
		M22.9,27.5h54.2c2.1,0,3.8,1.7,3.8,3.8v32.2c0,2.1-1.7,3.8-3.8,3.8H61.3l-6.5,5.3h-4.5c-0.6,0-1-0.3-1.3-0.8l-0.9-1.5h-5L41.8,72
		c-0.3,0.4-0.7,0.5-1.2,0.5H22.9c-2.1,0-3.8-1.7-3.8-3.8V31.3C19.1,29.2,20.8,27.5,22.9,27.5z"/>
	<g>
		<path fill-rule="evenodd" clip-rule="evenodd" fill="#00AFEE" d="M30,54.9V43.1l0,0c0-1.7,1-2.8,2.3-3.2c0.5-0.2,1-0.2,1.4-0.2
			c0.5,0,1,0.1,1.5,0.3c0.3,0.1,0.6,0.3,0.9,0.4c0.3-0.2,0.6-0.3,0.9-0.4c0.5-0.2,1-0.2,1.4-0.2c0.5,0,1,0.1,1.5,0.3
			c1.3,0.5,2.3,1.6,2.3,3.2l0,11.8h-2.9l0-11.8c0-0.2-0.2-0.4-0.4-0.5c-0.1-0.1-0.3-0.1-0.5-0.1c-0.2,0-0.3,0-0.5,0.1
			c-0.2,0.1-0.4,0.2-0.4,0.5h0v11.8h-2.9V43.1l0,0c0-0.2-0.2-0.4-0.4-0.5c-0.1-0.1-0.3-0.1-0.5-0.1c-0.2,0-0.3,0-0.5,0.1
			c-0.2,0.1-0.4,0.2-0.4,0.5h0v11.8H30z"/>
		<rect x="43.5" y="43.5" fill-rule="evenodd" clip-rule="evenodd" fill="#00AFEE" width="2.2" height="5"/>
		<ellipse fill-rule="evenodd" clip-rule="evenodd" fill="#00AFEE" cx="44.7" cy="41.6" rx="1.5" ry="1.3"/>
		<path fill-rule="evenodd" clip-rule="evenodd" fill="#00AFEE" d="M52.8,43.1h-2c-0.4,0-0.7,0.2-0.9,0.4c-0.3,0.3-0.4,0.7-0.4,1.1
			c0,0.5,0.2,0.9,0.4,1.1c0.2,0.3,0.6,0.4,0.9,0.4h2v2.2h-2c-1,0-1.9-0.4-2.5-1.1c-0.6-0.7-1-1.6-1-2.6c0-1,0.4-2,1-2.6
			c0.6-0.7,1.6-1.1,2.5-1.1h2V43.1z"/>
		<path fill-rule="evenodd" clip-rule="evenodd" fill="#00AFEE" d="M53.5,48.4v-4.5l0,0c0-1.5,0.8-2.4,1.8-2.9
			c0.4-0.2,0.8-0.3,1.3-0.3c0.4,0,0.9,0.1,1.3,0.3c1,0.4,1.8,1.4,1.9,2.9L57.5,44c0-0.5-0.2-0.8-0.5-0.9C56.9,43,56.7,43,56.6,43
			c-0.1,0-0.3,0-0.4,0.1c-0.3,0.1-0.5,0.4-0.5,0.8l0,4.5H53.5z"/>
		<path fill-rule="evenodd" clip-rule="evenodd" fill="#00AFEE" d="M64.6,40.8c1.1,0,2,0.4,2.7,1.1s1.1,1.6,1.1,2.7
			c0,1.1-0.4,2-1.1,2.7c-0.7,0.7-1.6,1.1-2.7,1.1c-1.1,0-2-0.4-2.7-1.1l0,0c-0.7-0.7-1.1-1.6-1.1-2.7c0-1.1,0.4-2,1.1-2.7
			C62.6,41.2,63.6,40.8,64.6,40.8L64.6,40.8z M65.8,43.5c-0.3-0.3-0.7-0.5-1.1-0.5c-0.4,0-0.9,0.2-1.1,0.5c-0.3,0.3-0.5,0.7-0.5,1.1
			c0,0.4,0.2,0.9,0.5,1.1l0,0c0.3,0.3,0.7,0.5,1.1,0.5c0.4,0,0.9-0.2,1.1-0.5c0.3-0.3,0.5-0.7,0.5-1.1
			C66.3,44.2,66.1,43.8,65.8,43.5z"/>
		<path fill-rule="evenodd" clip-rule="evenodd" fill="#00AFEE" d="M56,49.3c-2.6,0.1-5.1,0.2-6.8,0.4c-1.7,0.2-2.6,0.5-3.2,0.9
			c-0.6,0.4-0.9,1-0.9,1.5c0,0.5,0.3,1.1,1,1.5c0.7,0.4,1.8,0.7,2.5,0.9c0.7,0.2,1,0.4,1.1,0.6c0.1,0.2,0.1,0.5-0.2,0.6
			c-0.3,0.2-0.9,0.2-2,0.2c-1.1,0-2.7-0.1-4.3-0.2c-0.3,0.8-0.6,1.6-0.9,2.5c2.2,0,4.3,0.1,6,0c1.7,0,2.8-0.1,3.7-0.3
			c0.9-0.2,1.5-0.7,1.9-1.3c0.4-0.6,0.5-1.3,0.3-1.8c-0.2-0.6-0.7-1-1.6-1.4c-0.9-0.3-2.1-0.5-3-0.7c-0.8-0.2-1.2-0.3-1.4-0.6
			c-0.2-0.2-0.3-0.5-0.1-0.6c0.1-0.2,0.4-0.2,1.7-0.3c1.3-0.1,3.6-0.1,5.8-0.2C55.9,50.5,55.9,49.9,56,49.3z"/>
		<path fill-rule="evenodd" clip-rule="evenodd" fill="#00AFEE" d="M55.9,54.4c-0.4,1.2-0.8,2.4-1.3,3.6c1.5-0.1,2.9-0.1,4.4-0.3
			c1.5-0.2,3-0.5,4.2-0.8c1.2-0.4,2.2-0.8,3.1-1.4c0.9-0.6,1.6-1.4,2-2.1c0.3-0.7,0.3-1.2,0-1.6c-0.3-0.5-0.7-0.9-1.2-1.2
			c-0.4-0.3-0.8-0.4-1.2-0.5c-0.9,0.4-1.8,0.9-2.6,1.2c-0.8,0.3-1.5,0.5-2.1,0.7c-0.2,0.5-0.4,0.9-0.8,1.3c-0.4,0.4-1.1,0.8-2,0.9
			S56.8,54.4,55.9,54.4z"/>
		<path fill-rule="evenodd" clip-rule="evenodd" fill="#00AFEE" d="M57.4,49.3c-0.1,0.6-0.2,1.2-0.2,1.8c0.6,0,1.1,0,1.6,0
			c0.4,0,0.7,0.1,0.9,0.1c0.4-0.3,0.7-0.6,1.1-1c0.4-0.3,0.7-0.6,1.1-0.9c-0.8-0.1-1.6-0.1-2.4-0.1C58.8,49.2,58.1,49.3,57.4,49.3z"
			/>
		<path fill-rule="evenodd" clip-rule="evenodd" fill="#00AFEE" d="M60.5,51.4c1.1-0.6,2.3-1.3,3.4-1.9c0.2,0,0.5,0,0.6,0.1
			c0.2,0,0.3,0.1,0.4,0.2c-1.3,0.6-2.5,1.3-3.8,1.9c-0.1,0-0.2-0.1-0.3-0.1C60.7,51.5,60.6,51.4,60.5,51.4z"/>
	</g>
</g>
</svg>
