<?xml version="1.0" encoding="utf-8"?>
<!-- Generator: Adobe Illustrator 18.1.1, SVG Export Plug-In . SVG Version: 6.00 Build 0)  -->
<svg version="1.1" id="макет" xmlns="http://www.w3.org/2000/svg" xmlns:xlink="http://www.w3.org/1999/xlink" x="0px" y="0px"
	 width="100px" height="100px" viewBox="0 0 100 100" enable-background="new 0 0 100 100" xml:space="preserve">
<g>
	<circle fill-rule="evenodd" clip-rule="evenodd" fill="#FFFFFF" cx="50" cy="50" r="50"/>
	<g>
		<g>
			
				<polyline fill-rule="evenodd" clip-rule="evenodd" fill="none" stroke="#00AFEE" stroke-width="0.7498" stroke-linejoin="round" stroke-miterlimit="22.9256" points="
				67.3,49 67.6,61.1 45.7,71.9 29.9,64.1 29.9,47.2 			"/>
			
				<polygon fill-rule="evenodd" clip-rule="evenodd" fill="none" stroke="#00AFEE" stroke-width="0.7498" stroke-linejoin="round" stroke-miterlimit="22.9256" points="
				45.4,29.8 23.7,40.7 29.9,47.2 26.9,40.4 42.4,48.3 45.7,55.2 53.4,56.1 75.1,45.3 67.2,44.1 72.1,34.6 56.4,26.9 51.6,36.3 			
				"/>
			
				<polyline fill-rule="evenodd" clip-rule="evenodd" fill="none" stroke="#00AFEE" stroke-width="0.7498" stroke-linejoin="round" stroke-miterlimit="22.9256" points="
				29.9,47.2 45.7,55.2 67.2,44.1 51.6,36.3 35.2,44.6 			"/>
			
				<line fill-rule="evenodd" clip-rule="evenodd" fill="none" stroke="#00AFEE" stroke-width="0.7498" stroke-linejoin="round" stroke-miterlimit="22.9256" x1="45.7" y1="55.2" x2="45.7" y2="71.9"/>
		</g>
		<g>
			
				<line fill-rule="evenodd" clip-rule="evenodd" fill="none" stroke="#00AFEE" stroke-width="2.9999" stroke-miterlimit="22.9256" x1="51" y1="40.4" x2="51" y2="48.7"/>
			
				<line fill-rule="evenodd" clip-rule="evenodd" fill="none" stroke="#00AFEE" stroke-width="2.9999" stroke-miterlimit="22.9256" x1="46.8" y1="44.5" x2="55.2" y2="44.5"/>
		</g>
	</g>
</g>
</svg>
