<?xml version="1.0" encoding="utf-8"?>
<!-- Generator: Adobe Illustrator 18.1.1, SVG Export Plug-In . SVG Version: 6.00 Build 0)  -->
<svg version="1.1" id="макет" xmlns="http://www.w3.org/2000/svg" xmlns:xlink="http://www.w3.org/1999/xlink" x="0px" y="0px"
	 width="100px" height="100px" viewBox="0 0 100 100" enable-background="new 0 0 100 100" xml:space="preserve">
<g>
	<circle fill-rule="evenodd" clip-rule="evenodd" fill="#FFFFFF" cx="50" cy="50" r="50"/>
	<g>
		<g>
			<path fill-rule="evenodd" clip-rule="evenodd" fill="#00AFEE" d="M23.2,63.6c-0.2-1-0.4-1.9-0.4-4c-0.1-2.1,0-5.4,0-7.4
				c0.1-2,0.2-2.6,0.7-4.2c0.4-1.6,1.1-4.2,2.3-7.3s2.7-7,3.9-9.1s2.1-2.6,3.9-3c1.7-0.4,4.3-0.7,7.2-0.8c2.9-0.2,6-0.2,9.2-0.2
				c3.2,0,6.3,0.1,9.2,0.2c2.9,0.2,5.5,0.5,7.2,0.8c1.7,0.4,2.6,0.9,3.9,3s2.8,5.9,3.9,9.1s1.8,5.8,2.3,7.3c0.4,1.6,0.6,2.2,0.7,4.2
				c0.1,2,0.1,5.2,0,7.4c-0.1,2.1-0.3,3.1-0.4,4c-0.4,0.5-0.8,1.1-1.2,1.6l-0.1,0c-0.2,0.3-0.4,0.6-0.7,0.9
				c-0.3,0.4-0.8,0.8-1.3,1.2c-7.9,0-15.7,0-23.6,0c-7.9,0-15.7,0-23.6,0c-0.5-0.4-0.9-0.8-1.3-1.2c-0.3-0.3-0.5-0.6-0.7-0.9l-0.1,0
				C24,64.7,23.6,64.1,23.2,63.6z"/>
			<path fill-rule="evenodd" clip-rule="evenodd" fill="#FFFFFF" d="M50,44.2c-1.4,0-2.8-0.1-5.6,0c-2.7,0.1-6.8,0.4-9.9,0.7
				c-3.1,0.3-5.2,0.6-7.3,0.9c0.1-1,0.2-2,0.5-3.2c0.3-1.3,0.8-2.8,1.4-4.6c0.6-1.8,1.2-3.7,1.9-5.7c2.3-0.4,4.6-0.8,7.7-1
				c3.2-0.2,7.3-0.2,11.3-0.3c4.1,0,8.1,0.1,11.3,0.3c3.2,0.2,5.5,0.6,7.7,1c0.7,2,1.3,3.9,1.9,5.7c0.6,1.8,1.1,3.3,1.4,4.6
				c0.3,1.3,0.4,2.2,0.5,3.2c-2.1-0.3-4.3-0.6-7.3-0.9c-3.1-0.3-7.1-0.5-9.9-0.7C52.8,44.1,51.4,44.2,50,44.2z"/>
			<path fill-rule="evenodd" clip-rule="evenodd" fill="#FFFFFF" d="M62.9,57.9c0.6-1.6,1.1-3.2,1.7-4.1c0.5-0.9,1.1-1.2,2.2-1.4
				c1.1-0.2,2.8-0.4,4.1-0.3c1.3,0.1,2.1,0.5,2.7,1c0.6,0.5,0.9,1.2,0.9,2c0,0.8-0.3,1.6-0.8,2.1c-0.5,0.5-1.3,0.6-2.8,0.7
				C69.5,58,67.4,58.1,66,58C64.5,58,63.7,58,62.9,57.9z"/>
			<path fill-rule="evenodd" clip-rule="evenodd" fill="#FFFFFF" d="M37.1,57.9c-0.6-1.6-1.1-3.2-1.7-4.1c-0.5-0.9-1.1-1.2-2.2-1.4
				c-1.1-0.2-2.8-0.4-4.1-0.3c-1.3,0.1-2.1,0.5-2.7,1c-0.6,0.5-0.9,1.2-0.9,2c0,0.8,0.3,1.6,0.8,2.1c0.5,0.5,1.3,0.6,2.8,0.7
				c1.4,0.1,3.5,0.1,4.9,0.1C35.5,58,36.3,58,37.1,57.9z"/>
			<path fill-rule="evenodd" clip-rule="evenodd" fill="#FFFFFF" d="M37.1,57.9c-0.6-1.6-1.1-3.2-1.7-4.1c-0.5-0.9-1.1-1.2-2.2-1.4
				c-1.1-0.2-2.8-0.4-4.1-0.3c-1.3,0.1-2.1,0.5-2.7,1c-0.6,0.5-0.9,1.2-0.9,2c0,0.8,0.3,1.6,0.8,2.1c0.5,0.5,1.3,0.6,2.8,0.7
				c1.4,0.1,3.5,0.1,4.9,0.1C35.5,58,36.3,58,37.1,57.9z"/>
			<path fill-rule="evenodd" clip-rule="evenodd" fill="#FFFFFF" d="M50,54.6c-4.2,0.1-8.4,0.1-12.6,0.2c0.2,0.4,0.4,0.8,0.5,1.3
				c4,0,8,0,12,0c4,0,8,0,12,0c0.2-0.4,0.4-0.8,0.5-1.3C58.4,54.8,54.2,54.7,50,54.6z"/>
			<path fill-rule="evenodd" clip-rule="evenodd" fill="#FFFFFF" d="M50,57.8c-3.7,0-7.4,0.1-11.2,0.1c-0.1-0.3-0.2-0.7-0.4-1
				c3.8,0,7.7,0,11.5,0c3.8,0,7.7,0,11.5,0c-0.1,0.3-0.2,0.7-0.4,1C57.4,57.9,53.7,57.8,50,57.8z"/>
			<path fill-rule="evenodd" clip-rule="evenodd" fill="#FFFFFF" d="M50,61.9c2.8,0,5.7,0,8.5,0c0,0.6,0.1,1.2,0.1,1.6
				c0,0.4,0,0.6-0.1,0.8c-2.8,0-5.7,0-8.5,0c-2.8,0-5.7,0-8.5,0c0-0.2-0.1-0.4-0.1-0.8c0-0.4,0-1,0.1-1.6
				C44.3,61.9,47.2,61.9,50,61.9z"/>
			<path fill-rule="evenodd" clip-rule="evenodd" fill="#00AFEE" d="M76,46.3c0.1-0.1,0.3-0.3,0.4-0.6c0.1-0.3,0.2-0.8,0.5-1.1
				c0.3-0.3,0.8-0.4,1.6-0.5c0.8,0,2,0,2.9,0.2c0.9,0.2,1.4,0.5,1.7,1c0.3,0.5,0.3,1.2,0.3,1.7c-0.1,0.5-0.2,0.9-0.5,1.2
				c-0.3,0.3-0.8,0.5-1.4,0.7c-0.7,0.1-1.5,0.2-2.3,0.2c-0.7,0-1.4,0-1.9,0c-0.5,0-0.9,0-1.3-0.1c-0.1-0.7-0.3-1.5-0.4-2.2
				C75.7,46.6,75.8,46.4,76,46.3z"/>
			<path fill-rule="evenodd" clip-rule="evenodd" fill="#00AFEE" d="M24,46.3c-0.1-0.1-0.3-0.3-0.4-0.6c-0.1-0.3-0.2-0.8-0.5-1.1
				c-0.3-0.3-0.8-0.4-1.6-0.5c-0.8,0-2,0-2.9,0.2c-0.9,0.2-1.4,0.5-1.7,1c-0.3,0.5-0.3,1.2-0.3,1.7c0.1,0.5,0.2,0.9,0.5,1.2
				c0.3,0.3,0.8,0.5,1.4,0.7c0.7,0.1,1.5,0.2,2.3,0.2c0.7,0,1.4,0,1.9,0c0.5,0,0.9,0,1.3-0.1c0.1-0.7,0.3-1.5,0.4-2.2
				C24.3,46.6,24.2,46.4,24,46.3z"/>
			<g>
				
					<path fill-rule="evenodd" clip-rule="evenodd" fill="none" stroke="#FFFFFF" stroke-width="0.7498" stroke-miterlimit="22.9256" d="
					M76.7,49c-0.4,1-0.9,1.9-1.2,2.6c-0.3,0.7-0.6,1.2-0.9,1.5c-0.3,0.3-0.6,0.5-0.8,0.7"/>
				
					<path fill-rule="evenodd" clip-rule="evenodd" fill="none" stroke="#FFFFFF" stroke-width="0.7498" stroke-miterlimit="22.9256" d="
					M23.3,49c0.4,1,0.9,1.9,1.2,2.6c0.4,0.7,0.6,1.2,0.9,1.5c0.3,0.3,0.6,0.5,0.9,0.7"/>
				
					<path fill-rule="evenodd" clip-rule="evenodd" fill="none" stroke="#FFFFFF" stroke-width="0.7498" stroke-miterlimit="22.9256" d="
					M64.9,53.8c-3.1-0.1-6.5-0.3-8.9-0.4c-2.4-0.1-4.2-0.1-6-0.1c-1.8,0-3.5,0-6,0.1c-2.4,0.1-5.8,0.2-8.9,0.4"/>
				
					<path fill-rule="evenodd" clip-rule="evenodd" fill="none" stroke="#FFFFFF" stroke-width="0.7498" stroke-miterlimit="22.9256" d="
					M36.8,57.7c0.3,0.5,0.8,1.2,1.2,1.4c0.4,0.2,1,0.2,3,0.2s5.5,0,9,0c3.5,0,7,0,9,0s2.6,0,3-0.2c0.4-0.2,1-1.2,1.3-1.7"/>
			</g>
			
				<path fill-rule="evenodd" clip-rule="evenodd" fill="none" stroke="#FFFFFF" stroke-width="0.7498" stroke-miterlimit="22.9256" d="
				M50,59.4c-8.2,0-16.4,0-20.6,0.1c-4.2,0.1-4.5,0.2-4.7,0.6c-0.2,0.3-0.4,0.9-0.4,1.5c0,0.6,0.2,1.4,0.6,2
				c0.4,0.7,0.9,1.2,1.7,1.6c0.8,0.4,1.9,0.6,5.8,0.7C36.3,66,43.2,66,50,66c6.8,0,13.7,0,17.6-0.1c3.9-0.1,5-0.3,5.8-0.7
				c0.8-0.4,1.3-1,1.7-1.6c0.4-0.7,0.6-1.4,0.6-2c0-0.6-0.2-1.1-0.4-1.5c-0.2-0.3-0.5-0.5-4.7-0.6C66.4,59.4,58.2,59.4,50,59.4z"/>
			<path fill-rule="evenodd" clip-rule="evenodd" fill="#00AFEE" d="M66.7,66.9h7.2v4c0,0.9-0.7,1.6-1.6,1.6h-4
				c-0.9,0-1.6-0.7-1.6-1.6V66.9z"/>
			<path fill-rule="evenodd" clip-rule="evenodd" fill="#00AFEE" d="M33.3,66.9h-7.2v4c0,0.9,0.7,1.6,1.6,1.6h4
				c0.9,0,1.6-0.7,1.6-1.6V66.9z"/>
		</g>
		<path fill-rule="evenodd" clip-rule="evenodd" fill="#00AFEE" d="M45.9,35.6V34h1.7v1.5H45.9L45.9,35.6z M45.9,42.8v-6.3h1.7v6.3
			H45.9L45.9,42.8z M49.3,42.8V34H53c0.9,0,1.6,0.1,2,0.2c0.4,0.2,0.8,0.4,1,0.8c0.3,0.4,0.4,0.9,0.4,1.4c0,0.7-0.2,1.2-0.6,1.6
			c-0.4,0.4-1,0.7-1.7,0.8c0.4,0.2,0.7,0.5,0.9,0.7c0.2,0.3,0.6,0.7,1,1.4l1.1,1.7H55l-1.3-1.9c-0.5-0.7-0.8-1.1-0.9-1.3
			c-0.2-0.2-0.3-0.3-0.5-0.4c-0.2-0.1-0.5-0.1-0.9-0.1H51v3.6H49.3L49.3,42.8z M51,37.7h1.3c0.8,0,1.4,0,1.6-0.1
			c0.2-0.1,0.4-0.2,0.5-0.4c0.1-0.2,0.2-0.4,0.2-0.7c0-0.3-0.1-0.5-0.2-0.7c-0.2-0.2-0.4-0.3-0.7-0.3c-0.1,0-0.6,0-1.3,0H51V37.7z"
			/>
	</g>
</g>
</svg>
