<?xml version="1.0" encoding="utf-8"?>
<!-- Generator: Adobe Illustrator 18.1.1, SVG Export Plug-In . SVG Version: 6.00 Build 0)  -->
<svg version="1.1" id="макет" xmlns="http://www.w3.org/2000/svg" xmlns:xlink="http://www.w3.org/1999/xlink" x="0px" y="0px"
	 width="100px" height="100px" viewBox="0 0 100 100" enable-background="new 0 0 100 100" xml:space="preserve">
<g>
	<circle fill-rule="evenodd" clip-rule="evenodd" fill="#FFFFFF" cx="50" cy="50" r="50"/>
	<g>
		<g>
			<path fill-rule="evenodd" clip-rule="evenodd" fill="#00AFEE" d="M33.5,46.7h9.4c0.4,0,0.7,0.3,0.7,0.7v13.1
				c0,0.4-0.3,0.7-0.7,0.7h-9.4c-0.4,0-0.7-0.3-0.7-0.7V47.4C32.7,47,33.1,46.7,33.5,46.7z"/>
			<rect x="36.7" y="43.4" fill-rule="evenodd" clip-rule="evenodd" fill="#00AFEE" width="2.6" height="3.5"/>
			<path fill-rule="evenodd" clip-rule="evenodd" fill="#00AFEE" d="M61.2,51.4h5.3c0.4,0,0.7,0.3,0.7,0.7v10.3
				c0,0.4-0.3,0.7-0.7,0.7h-5.3c-0.4,0-0.7-0.3-0.7-0.7V52.1C60.5,51.7,60.8,51.4,61.2,51.4z"/>
			<rect x="62.8" y="48.4" fill-rule="evenodd" clip-rule="evenodd" fill="#00AFEE" width="2.4" height="3.2"/>
			
				<rect x="61.7" y="63.1" fill-rule="evenodd" clip-rule="evenodd" fill="none" stroke="#00AFEE" stroke-width="0.7498" stroke-linejoin="round" stroke-miterlimit="22.9256" width="4.4" height="3.7"/>
			
				<polyline fill-rule="evenodd" clip-rule="evenodd" fill="none" stroke="#00AFEE" stroke-width="0.4997" stroke-miterlimit="22.9256" points="
				63.7,63.1 63.7,64.2 63.3,64.2 63.3,65 64.2,65 64.2,66 63.7,66 63.7,66.8 			"/>
			<path fill-rule="evenodd" clip-rule="evenodd" fill="#00AFEE" d="M37.5,43.5h1.3c0-0.3,0.1-1,0.2-1.3c0.1-1.1,0.3-2.1,0.6-3.2
				c0.3-1.2,0.8-2.4,1.3-3.5c0.5-1,1.1-2,1.8-2.9c0.6-0.8,1.4-1.5,2.2-2.1c0.8-0.5,1.6-0.9,2.6-1.2c0.9-0.3,1.9-0.4,2.8-0.5
				c1,0,2,0,2.9,0.2c1,0.2,2.1,0.6,3,1.1c0.9,0.5,1.7,1.1,2.4,1.8c0.8,0.8,1.4,1.7,2,2.6c0.6,1.1,1.2,2.3,1.6,3.4
				c0.3,0.9,0.6,1.9,0.8,2.9c0.2,0.8,0.3,1.6,0.3,2.4c0.1,0.9,0,1.8,0,2.7c0,0.3,0,0.6,0,0.8c0,0.4,0,1.2,0,1.6h1.3
				c0-0.4,0-1.1,0-1.6c0-0.3,0-0.5,0-0.8c0.1-1,0.1-1.9,0-2.9c0-0.9-0.2-1.7-0.3-2.6c-0.2-1-0.5-2.1-0.9-3.1c-0.5-1.3-1-2.5-1.7-3.7
				c-0.6-1-1.3-2-2.2-2.9c-0.8-0.8-1.7-1.5-2.7-2.1c-1-0.6-2.2-0.9-3.3-1.2c-1.1-0.2-2.2-0.3-3.3-0.3c-1.1,0-2.1,0.2-3.1,0.5
				c-1,0.3-2,0.8-2.9,1.4c-1,0.6-1.8,1.4-2.5,2.4c-0.8,1-1.4,2-1.9,3.1c-0.6,1.2-1.1,2.5-1.4,3.8c-0.3,1.1-0.5,2.2-0.7,3.4
				C37.6,42.4,37.5,43.1,37.5,43.5z"/>
		</g>
		<path fill-rule="evenodd" clip-rule="evenodd" fill="#00AFEE" d="M36.8,68.9c0-0.7,0.1-1.3,0.3-1.8c0.2-0.4,0.4-0.7,0.7-1
			c0.3-0.3,0.6-0.5,0.9-0.6c0.4-0.2,0.9-0.3,1.5-0.3c1,0,1.9,0.3,2.5,1c0.6,0.6,0.9,1.5,0.9,2.7c0,1.1-0.3,2-0.9,2.7
			c-0.6,0.6-1.4,1-2.5,1c-1,0-1.9-0.3-2.5-1C37.1,70.9,36.8,70,36.8,68.9L36.8,68.9z M38.2,68.9c0,0.8,0.2,1.4,0.6,1.8
			c0.4,0.4,0.8,0.6,1.4,0.6c0.6,0,1-0.2,1.4-0.6c0.4-0.4,0.5-1,0.5-1.8c0-0.8-0.2-1.4-0.5-1.8c-0.4-0.4-0.8-0.6-1.4-0.6
			c-0.6,0-1.1,0.2-1.4,0.6C38.4,67.5,38.2,68.1,38.2,68.9L38.2,68.9z M46.3,72.4v-5.8h-2.1v-1.2h5.6v1.2h-2.1v5.8H46.3L46.3,72.4z
			 M53.9,69.8v-1.2h3v2.8c-0.3,0.3-0.7,0.5-1.3,0.8c-0.6,0.2-1.1,0.3-1.7,0.3c-0.7,0-1.4-0.2-1.9-0.5c-0.5-0.3-1-0.8-1.2-1.3
			c-0.3-0.6-0.4-1.2-0.4-1.9c0-0.7,0.2-1.4,0.5-1.9c0.3-0.6,0.8-1,1.3-1.3c0.4-0.2,1-0.3,1.7-0.3c0.9,0,1.5,0.2,2,0.5
			c0.5,0.4,0.8,0.9,0.9,1.5l-1.4,0.3c-0.1-0.3-0.3-0.6-0.6-0.8c-0.3-0.2-0.6-0.3-1-0.3c-0.6,0-1.1,0.2-1.5,0.6
			c-0.4,0.4-0.5,1-0.5,1.7c0,0.8,0.2,1.5,0.6,1.9c0.4,0.4,0.9,0.6,1.5,0.6c0.3,0,0.6-0.1,0.9-0.2c0.3-0.1,0.6-0.3,0.8-0.4v-0.9H53.9
			z"/>
	</g>
</g>
</svg>
