<?xml version="1.0" encoding="utf-8"?>
<!-- Generator: Adobe Illustrator 18.1.1, SVG Export Plug-In . SVG Version: 6.00 Build 0)  -->
<svg version="1.1" id="макет" xmlns="http://www.w3.org/2000/svg" xmlns:xlink="http://www.w3.org/1999/xlink" x="0px" y="0px"
	 width="100px" height="100px" viewBox="0 0 100 100" enable-background="new 0 0 100 100" xml:space="preserve">
<g>
	<path fill-rule="evenodd" clip-rule="evenodd" fill="#FFFFFF" d="M50,100c27.5,0,50-22.5,50-50c0-27.5-22.5-50-50-50
		C22.5,0,0,22.5,0,50C0,77.5,22.5,100,50,100z"/>
	<g>
		
			<path fill-rule="evenodd" clip-rule="evenodd" fill="#00AFEE" stroke="#00AFEE" stroke-width="1.4998" stroke-miterlimit="22.9256" d="
			M66.4,63.3c-0.4-1.3-0.7-2.9-1.1-5c-0.4-2.1-0.9-4.7-1.8-7c-0.8-2.3-2-4.3-2.8-6.9c-0.9-2.6-1.5-5.7-2.1-8.5
			c-0.6-2.7-1.1-5-1.6-6.1c-0.6-1.1-1.2-1.1-1.7-0.7c-0.5,0.4-0.8,1.2-0.8,2.6c0,1.4,0.4,3.3,0.9,5.1c0.4,1.9,0.8,3.7,0.9,4.8
			c0,1.1-0.3,1.6-0.6,1.6c-0.3,0.1-0.6-0.3-1.1-1.4c-0.5-1.1-1.1-3.1-2-5.3c-0.9-2.2-2-4.6-2.9-6.1c-0.9-1.6-1.6-2.3-2.3-2.7
			c-0.7-0.4-1.4-0.4-1.9-0.1c-0.4,0.3-0.6,1-0.4,1.9c0.2,1,0.8,2.3,1.7,4.2c0.9,1.9,2,4.4,2.8,6c0.7,1.7,1.1,2.5,1.1,3.1
			c0.1,0.5-0.2,0.7-0.5,0.6c-0.3-0.1-0.8-0.4-1.8-2c-1-1.6-2.6-4.5-3.9-6.7c-1.3-2.2-2.2-3.8-3-4.6c-0.8-0.8-1.4-0.8-1.9-0.6
			c-0.5,0.2-0.8,0.6-0.8,1.5c0,0.9,0.4,2.3,1.3,4.1c0.9,1.8,2.2,3.9,3.2,5.6c1,1.7,1.7,2.9,2.1,3.8c0.4,0.9,0.6,1.6,0.4,2
			c-0.1,0.4-0.6,0.4-1.1,0.1c-0.5-0.3-1.1-1.1-2.2-2.7c-1.2-1.6-3-4.1-4.2-5.7c-1.2-1.6-1.9-2.2-2.5-2.5c-0.6-0.3-1.2-0.1-1.5,0.3
			c-0.3,0.4-0.3,1.1-0.1,2.1c0.3,1,0.8,2.4,1.7,4c0.9,1.7,2.1,3.7,3.6,5.7c1.4,2,3,4.1,4.1,5.7c1.1,1.5,1.6,2.5,1.9,3.5
			c0.3,1,0.4,2,0.1,2.6c-0.3,0.6-1,0.8-2,0.6c-1-0.3-2.2-1-3.2-1.5c-1-0.5-1.9-0.8-2.9-1c-1-0.1-2.2-0.1-3.1,0.1
			c-0.9,0.2-1.5,0.7-1.8,1.2c-0.3,0.5-0.4,1.1-0.1,1.5c0.2,0.4,0.8,0.7,1.5,0.9c0.7,0.1,1.6,0.1,2.5,0.4c0.9,0.3,1.9,0.8,3.2,1.6
			c1.2,0.7,2.6,1.7,3.7,2.5c1.1,0.8,1.8,1.5,2.8,2c1,0.5,2.4,0.8,3.9,1c1.4,0.2,2.9,0.2,4.1,0.4c1.2,0.2,2.1,0.5,2.9,1.1
			c0.8,0.5,1.5,1.3,2.2,2c2.9-1.9,5.8-3.8,8.8-5.7C67.4,65.7,66.8,64.6,66.4,63.3z"/>
		<path fill-rule="evenodd" clip-rule="evenodd" fill="#00AFEE" d="M73,48.7h-5.3V51H73c-0.2,1.3-0.5,2.6-1.2,3.9l11.7-5l-11.7-5
			C72.4,46.1,72.8,47.4,73,48.7z"/>
		<path fill-rule="evenodd" clip-rule="evenodd" fill="#00AFEE" d="M27.8,51h5.3v-2.3h-5.3c0.2-1.3,0.5-2.6,1.2-3.9l-11.7,5l11.7,5
			C28.4,53.6,28,52.3,27.8,51z"/>
	</g>
</g>
</svg>
