<?xml version="1.0" encoding="utf-8"?>
<!-- Generator: Adobe Illustrator 18.1.1, SVG Export Plug-In . SVG Version: 6.00 Build 0)  -->
<svg version="1.1" id="макет" xmlns="http://www.w3.org/2000/svg" xmlns:xlink="http://www.w3.org/1999/xlink" x="0px" y="0px"
	 width="100px" height="100px" viewBox="0 0 100 100" enable-background="new 0 0 100 100" xml:space="preserve">
<g>
	<circle fill-rule="evenodd" clip-rule="evenodd" fill="#FFFFFF" cx="50" cy="50" r="50"/>
	<g>
		<g>
			
				<path fill-rule="evenodd" clip-rule="evenodd" fill="none" stroke="#00AFEE" stroke-width="0.7498" stroke-linejoin="round" stroke-miterlimit="22.9256" d="
				M26.3,42.9h22.3v0.3l6.4-2.6c1.2-0.5,2.7,0.1,3.2,1.3c0.5,1.2-0.1,2.7-1.3,3.2l-8.3,3.4v13.9c0,0.4-0.4,0.8-0.8,0.8h-3.7v5.8
				c0,1.4-1.1,2.5-2.5,2.5c-1.4,0-2.5-1.1-2.5-2.5v-5.8h-3.4v5.8c0,1.4-1.1,2.5-2.5,2.5c-1.4,0-2.5-1.1-2.5-2.5v-5.8h-3.7
				c-0.4,0-0.8-0.4-0.8-0.8V42.9L26.3,42.9z M29.6,28.8c-0.5-0.5-0.5-1.3,0-1.7c0.5-0.5,1.3-0.5,1.7,0l2.2,2.2
				c1.2-0.5,2.6-0.7,3.9-0.7c1.4,0,2.7,0.3,3.9,0.7l2.2-2.2c0.5-0.5,1.2-0.5,1.7,0c0.5,0.5,0.5,1.2,0,1.7l-1.7,1.7
				c3,2,4.9,5.3,4.9,9.2l0,0.1H26.3l0-0.1c0-3.8,2-7.2,4.9-9.2L29.6,28.8L29.6,28.8z M33.5,29.3c-0.1,0-0.1,0-0.2,0.1L33.5,29.3
				L33.5,29.3z M32.3,29.8c-0.1,0-0.1,0.1-0.2,0.1L32.3,29.8L32.3,29.8z M32.1,30c-0.1,0-0.1,0.1-0.2,0.1C32,30,32.1,30,32.1,30
				L32.1,30z M31.9,30.1c-0.1,0-0.1,0.1-0.2,0.1 M31.7,30.2c-0.1,0.1-0.3,0.2-0.4,0.3C31.4,30.4,31.5,30.3,31.7,30.2L31.7,30.2z
				 M43.7,30.5c-0.1,0-0.1-0.1-0.2-0.1C43.5,30.4,43.6,30.4,43.7,30.5L43.7,30.5z M43.5,30.3c-0.1,0-0.1-0.1-0.2-0.1
				C43.3,30.3,43.4,30.3,43.5,30.3z"/>
			
				<path fill-rule="evenodd" clip-rule="evenodd" fill="none" stroke="#00AFEE" stroke-width="0.7498" stroke-miterlimit="22.9256" d="
				M23,55.8c0,1.4-1.1,2.5-2.5,2.5c-1.4,0-2.5-1.1-2.5-2.5v-9.9c0-1.4,1.1-2.5,2.5-2.5c1.4,0,2.5,1.1,2.5,2.5V55.8z"/>
			<circle fill-rule="evenodd" clip-rule="evenodd" fill="#00AFEE" cx="41.9" cy="35.2" r="1.6"/>
			<circle fill-rule="evenodd" clip-rule="evenodd" fill="#00AFEE" cx="33" cy="35.2" r="1.6"/>
		</g>
		<g>
			
				<path fill-rule="evenodd" clip-rule="evenodd" fill="none" stroke="#00AFEE" stroke-width="0.7498" stroke-linejoin="round" stroke-miterlimit="22.9256" d="
				M67.8,48.3c-4.2-2.4-7.7-2.4-10.4,0c-4.6,4.9-4.6,11.3,0,19.1c2.3,3.5,4.3,4.8,6.3,4c3.1-1.8,5.9-1.8,8.5,0
				c3.1,1.1,6.1-1.7,8.8-8.4c-3-1.8-4.4-4-4.4-6.6c-0.2-3.1,1-5.4,3.7-6.8C77.1,45.2,72,45.8,67.8,48.3z"/>
			
				<path fill-rule="evenodd" clip-rule="evenodd" fill="none" stroke="#00AFEE" stroke-width="0.7498" stroke-linejoin="round" stroke-miterlimit="22.9256" d="
				M67.8,46.2c-0.2-4,1.9-6.6,6.4-7.5C74.1,43.2,72,45.7,67.8,46.2z"/>
		</g>
	</g>
</g>
</svg>
