<?xml version="1.0" encoding="utf-8"?>
<!-- Generator: Adobe Illustrator 18.1.1, SVG Export Plug-In . SVG Version: 6.00 Build 0)  -->
<svg version="1.1" id="макет" xmlns="http://www.w3.org/2000/svg" xmlns:xlink="http://www.w3.org/1999/xlink" x="0px" y="0px"
	 width="100px" height="100px" viewBox="0 0 100 100" enable-background="new 0 0 100 100" xml:space="preserve">
<g>
	<path fill-rule="evenodd" clip-rule="evenodd" fill="#FFFFFF" d="M50,100c27.5,0,50-22.5,50-50c0-27.5-22.5-50-50-50
		C22.5,0,0,22.5,0,50C0,77.5,22.5,100,50,100z"/>
	<g>
		<g>
			
				<rect x="18.4" y="27.5" fill-rule="evenodd" clip-rule="evenodd" fill="none" stroke="#00AFEE" stroke-width="0.75" stroke-linejoin="round" stroke-miterlimit="22.9256" width="31.3" height="31.3"/>
			
				<rect x="50.3" y="27.5" fill-rule="evenodd" clip-rule="evenodd" fill="none" stroke="#00AFEE" stroke-width="0.75" stroke-linejoin="round" stroke-miterlimit="22.9256" width="31.3" height="31.3"/>
		</g>
		<g>
			
				<line fill-rule="evenodd" clip-rule="evenodd" fill="none" stroke="#00AFEE" stroke-width="0.75" stroke-miterlimit="22.9256" x1="17.1" y1="64.1" x2="82.9" y2="64.1"/>
			
				<line fill-rule="evenodd" clip-rule="evenodd" fill="none" stroke="#00AFEE" stroke-width="0.75" stroke-miterlimit="22.9256" x1="17.1" y1="72.5" x2="82.9" y2="72.5"/>
			
				<line fill-rule="evenodd" clip-rule="evenodd" fill="none" stroke="#00AFEE" stroke-width="0.75" stroke-miterlimit="22.9256" x1="50" y1="72.5" x2="56.6" y2="64.1"/>
			
				<line fill-rule="evenodd" clip-rule="evenodd" fill="none" stroke="#00AFEE" stroke-width="0.75" stroke-miterlimit="22.9256" x1="49.6" y1="72.5" x2="43" y2="64.1"/>
			
				<line fill-rule="evenodd" clip-rule="evenodd" fill="none" stroke="#00AFEE" stroke-width="0.75" stroke-miterlimit="22.9256" x1="65.1" y1="72.5" x2="58.5" y2="64.1"/>
			
				<line fill-rule="evenodd" clip-rule="evenodd" fill="none" stroke="#00AFEE" stroke-width="0.75" stroke-miterlimit="22.9256" x1="34.5" y1="72.5" x2="41.1" y2="64.1"/>
			
				<line fill-rule="evenodd" clip-rule="evenodd" fill="none" stroke="#00AFEE" stroke-width="0.75" stroke-miterlimit="22.9256" x1="65.5" y1="72.5" x2="72.1" y2="64.1"/>
			
				<line fill-rule="evenodd" clip-rule="evenodd" fill="none" stroke="#00AFEE" stroke-width="0.75" stroke-miterlimit="22.9256" x1="34.1" y1="72.5" x2="27.5" y2="64.1"/>
			
				<line fill-rule="evenodd" clip-rule="evenodd" fill="none" stroke="#00AFEE" stroke-width="0.75" stroke-miterlimit="22.9256" x1="80.7" y1="72.5" x2="74.1" y2="64.1"/>
			
				<line fill-rule="evenodd" clip-rule="evenodd" fill="none" stroke="#00AFEE" stroke-width="0.75" stroke-miterlimit="22.9256" x1="19" y1="72.5" x2="25.6" y2="64.1"/>
		</g>
		
			<rect x="32.6" y="58.8" fill-rule="evenodd" clip-rule="evenodd" fill="none" stroke="#00AFEE" stroke-width="0.75" stroke-miterlimit="22.9256" width="2.8" height="5.3"/>
		
			<rect x="64.5" y="58.8" fill-rule="evenodd" clip-rule="evenodd" fill="none" stroke="#00AFEE" stroke-width="0.75" stroke-miterlimit="22.9256" width="2.8" height="5.3"/>
		<g>
			
				<line fill-rule="evenodd" clip-rule="evenodd" fill="none" stroke="#00AFEE" stroke-width="0.5" stroke-miterlimit="22.9256" x1="18.4" y1="49.7" x2="27.5" y2="58.8"/>
			<path fill-rule="evenodd" clip-rule="evenodd" fill="none" stroke="#00AFEE" stroke-width="0.5" stroke-miterlimit="22.9256" d="
				M18.4,44.2c4.9,4.9,9.8,9.8,14.6,14.6"/>
			<path fill-rule="evenodd" clip-rule="evenodd" fill="none" stroke="#00AFEE" stroke-width="0.5" stroke-miterlimit="22.9256" d="
				M18.4,38.7c6.7,6.7,13.4,13.4,20.1,20.1"/>
			<path fill-rule="evenodd" clip-rule="evenodd" fill="none" stroke="#00AFEE" stroke-width="0.5" stroke-miterlimit="22.9256" d="
				M18.4,33.2c8.5,8.5,17.1,17.1,25.6,25.6"/>
			<path fill-rule="evenodd" clip-rule="evenodd" fill="none" stroke="#00AFEE" stroke-width="0.5" stroke-miterlimit="22.9256" d="
				M18.3,27.6C28.7,38,39.1,48.5,49.6,58.9"/>
			<path fill-rule="evenodd" clip-rule="evenodd" fill="none" stroke="#00AFEE" stroke-width="0.5" stroke-miterlimit="22.9256" d="
				M23.6,27.5c8.7,8.7,17.4,17.4,26,26"/>
			<path fill-rule="evenodd" clip-rule="evenodd" fill="none" stroke="#00AFEE" stroke-width="0.5" stroke-miterlimit="22.9256" d="
				M29.1,27.5c6.9,6.9,13.7,13.7,20.6,20.6"/>
			<path fill-rule="evenodd" clip-rule="evenodd" fill="none" stroke="#00AFEE" stroke-width="0.5" stroke-miterlimit="22.9256" d="
				M34.6,27.5c5,5,10,10,15.1,15.1"/>
			
				<line fill-rule="evenodd" clip-rule="evenodd" fill="none" stroke="#00AFEE" stroke-width="0.5" stroke-miterlimit="22.9256" x1="40.1" y1="27.5" x2="49.7" y2="37.1"/>
		</g>
	</g>
</g>
</svg>
