<?xml version="1.0" encoding="utf-8"?>
<!-- Generator: Adobe Illustrator 18.1.1, SVG Export Plug-In . SVG Version: 6.00 Build 0)  -->
<svg version="1.1" id="макет" xmlns="http://www.w3.org/2000/svg" xmlns:xlink="http://www.w3.org/1999/xlink" x="0px" y="0px"
	 width="100px" height="100px" viewBox="0 0 100 100" enable-background="new 0 0 100 100" xml:space="preserve">
<g>
	<circle fill-rule="evenodd" clip-rule="evenodd" fill="#FFFFFF" cx="50" cy="50" r="50"/>
	<g>
		<g>
			
				<path fill-rule="evenodd" clip-rule="evenodd" fill="none" stroke="#00AFEE" stroke-width="1.4998" stroke-miterlimit="22.9256" d="
				M52,51.7c-2.7,0-4.9,2.2-4.9,4.9v2.8H57h9.8v-2.8c0-2.7-2.2-4.9-4.9-4.9h-5H52z"/>
			
				<path fill-rule="evenodd" clip-rule="evenodd" fill="#00AFEE" stroke="#00AFEE" stroke-width="0.7498" stroke-miterlimit="22.9256" d="
				M67.5,59.4c0.9,0,1.6,0.6,1.7,1.5l0.6,5.7c0.1,0.5-0.1,0.9-0.4,1.3c-0.3,0.4-0.8,0.6-1.3,0.6H57H45.9c-0.5,0-0.9-0.2-1.3-0.6
				c-0.3-0.4-0.5-0.8-0.4-1.3l0.6-5.7c0.1-0.9,0.8-1.5,1.7-1.5l10.5,0L67.5,59.4z"/>
			
				<path fill-rule="evenodd" clip-rule="evenodd" fill="#00AFEE" stroke="#00AFEE" stroke-width="0.7498" stroke-miterlimit="22.9256" d="
				M63.8,68.5H67v2.8c0,0.7-0.5,1.2-1.2,1.2H65c-0.7,0-1.2-0.5-1.2-1.2V68.5z"/>
			
				<path fill-rule="evenodd" clip-rule="evenodd" fill="#00AFEE" stroke="#00AFEE" stroke-width="0.7498" stroke-miterlimit="22.9256" d="
				M50.2,68.5H47v2.8c0,0.7,0.5,1.2,1.2,1.2H49c0.7,0,1.2-0.5,1.2-1.2V68.5z"/>
			<circle fill-rule="evenodd" clip-rule="evenodd" fill="#FFFFFF" cx="65.3" cy="64.4" r="1.7"/>
			<circle fill-rule="evenodd" clip-rule="evenodd" fill="#FFFFFF" cx="48.7" cy="64.4" r="1.7"/>
		</g>
		
			<path fill-rule="evenodd" clip-rule="evenodd" fill="#00AFEE" stroke="#00AFEE" stroke-width="0.7498" stroke-miterlimit="22.9256" d="
			M30.2,62.2V27.5h13.1c2.3,0,4.1,0.1,5.3,0.3c1.7,0.3,3.1,0.8,4.3,1.6c1.2,0.8,2.1,1.9,2.8,3.3c0.7,1.4,1.1,3,1.1,4.7
			c0,2.9-0.9,5.4-2.8,7.5c-1.9,2-5.3,3.1-10.2,3.1h-8.9v14.2H30.2L30.2,62.2z M34.8,44h9c3,0,5.1-0.5,6.3-1.7
			c1.2-1.1,1.9-2.7,1.9-4.7c0-1.4-0.4-2.7-1.1-3.7c-0.7-1-1.7-1.7-2.9-2.1c-0.8-0.2-2.2-0.3-4.3-0.3h-8.9V44z"/>
	</g>
</g>
</svg>
