<?xml version="1.0" encoding="utf-8"?>
<!-- Generator: Adobe Illustrator 18.1.1, SVG Export Plug-In . SVG Version: 6.00 Build 0)  -->
<svg version="1.1" id="макет" xmlns="http://www.w3.org/2000/svg" xmlns:xlink="http://www.w3.org/1999/xlink" x="0px" y="0px"
	 width="100px" height="100px" viewBox="0 0 100 100" enable-background="new 0 0 100 100" xml:space="preserve">
<g>
	<circle fill-rule="evenodd" clip-rule="evenodd" fill="#FFFFFF" cx="50" cy="50" r="50"/>
	<g>
		
			<path fill-rule="evenodd" clip-rule="evenodd" fill="none" stroke="#00AFEE" stroke-width="0.7498" stroke-miterlimit="22.9256" d="
			M16.7,27.7h66.5c1.1,0,2,0.9,2,2v40.6c0,1.1-0.9,2-2,2H16.7c-1.1,0-2-0.9-2-2V29.7C14.8,28.6,15.6,27.7,16.7,27.7z"/>
		
			<path fill-rule="evenodd" clip-rule="evenodd" fill="none" stroke="#00AFEE" stroke-width="0.7498" stroke-miterlimit="22.9256" d="
			M20.6,32.7h58.9c0.5,0,0.9,0.4,0.9,0.9V65c0,0.5-0.4,0.9-0.9,0.9H20.6c-0.5,0-0.9-0.4-0.9-0.9V33.7C19.6,33.2,20.1,32.7,20.6,32.7
			z"/>
		
			<line fill-rule="evenodd" clip-rule="evenodd" fill="none" stroke="#00AFEE" stroke-width="1.4998" stroke-miterlimit="22.9256" stroke-dasharray="7.4991,1.4998" x1="25.2" y1="57.9" x2="74.8" y2="57.9"/>
		<path fill-rule="evenodd" clip-rule="evenodd" fill="#00AFEE" d="M28.3,53l-1,0.8l1,0.8h6.1l1-0.8l-1-0.8H28.3L28.3,53z
			 M28.8,40.2l-1,0.8l1,0.8h6.1l1-0.8l-1-0.8H28.8L28.8,40.2z M28.5,42l-0.1,4.4l-1,0.8l-1-0.8l0.1-4.4l1-0.8L28.5,42L28.5,42z
			 M36.8,48.4l-0.1,4.4l-1,0.8l-1-0.8l0.1-4.4l1-0.8L36.8,48.4L36.8,48.4z M28.7,46.6l-1,0.8l1,0.8h5.7l1-0.8l-1-0.8H28.7L28.7,46.6
			z M49.2,42l-1-0.8l-1,0.8l-0.1,4.6l1,0.8l1-0.8L49.2,42L49.2,42z M40.8,42l-1-0.8l-1,0.8l-0.1,4.6l1,0.8l1-0.8L40.8,42L40.8,42z
			 M49.1,48.1l-0.1,4.7l-1,0.7l-1-0.7l0.1-4.7l1-0.8L49.1,48.1L49.1,48.1z M40.7,48.1l-0.1,4.7l-1,0.7l-1-0.7l0.1-4.7l1-0.8
			L40.7,48.1L40.7,48.1z M40.9,53l-1,0.8l1,0.8h5.8l1-0.8l-1-0.8H40.9L40.9,53z M41.1,40.2h5.8l1,0.8l-1,0.8h-5.8l-1-0.8L41.1,40.2
			L41.1,40.2z M59.4,48.1l1-0.8l1,0.8l-0.1,5.7l-1,0.8l-1-0.8L59.4,48.1L59.4,48.1z M51,48.1l1-0.8l1,0.8l-0.1,5.7l-1,0.8l-1-0.8
			L51,48.1L51,48.1z M59.5,40.9l-0.1,5.7l1,0.8l1-0.8l0.1-5.7l-1-0.8L59.5,40.9L59.5,40.9z M51.1,40.9L51,46.6l1,0.8l1-0.8l0.1-5.7
			l-1-0.8L51.1,40.9L51.1,40.9z M57.6,46.6l-4.1-4.5l0-1.2h1.3l4.1,4.4l0,1.2H57.6L57.6,46.6z M65.6,46.6l-1,0.8l1,0.8h5.7l1-0.8
			l-1-0.8H65.6L65.6,46.6z M71.7,46.3l0.1-5.4l1-0.8l1,0.8l-0.1,5.4l-1,0.8L71.7,46.3L71.7,46.3z M63.2,46.3l0.1-5.4l1-0.8l1,0.8
			l-0.1,5.4l-1,0.8L63.2,46.3L63.2,46.3z M71.6,52.8l0.1-4.4l1-0.8l1,0.8l-0.1,4.4l-1,0.8L71.6,52.8L71.6,52.8z M65.2,53l-1,0.8
			l1,0.8h6.1l1-0.8l-1-0.8H65.2z"/>
	</g>
</g>
</svg>
