<?xml version="1.0" encoding="utf-8"?>
<!-- Generator: Adobe Illustrator 18.1.1, SVG Export Plug-In . SVG Version: 6.00 Build 0)  -->
<svg version="1.1" id="макет" xmlns="http://www.w3.org/2000/svg" xmlns:xlink="http://www.w3.org/1999/xlink" x="0px" y="0px"
	 width="100px" height="100px" viewBox="0 0 100 100" enable-background="new 0 0 100 100" xml:space="preserve">
<g>
	<circle fill-rule="evenodd" clip-rule="evenodd" fill="#FFFFFF" cx="50" cy="50" r="50"/>
	<g>
		<g>
			
				<path fill-rule="evenodd" clip-rule="evenodd" fill="#00AFEE" stroke="#00AFEE" stroke-width="0.7498" stroke-miterlimit="22.9256" d="
				M31.5,30.8c1.7-0.2,3.6-0.2,5.6,0l27.6,4.6c2.4,0.5,2.2,2.7,0.7,3.1l-6.3,1.8c-0.3,0.1-0.7,0.2-1,0.3v1v1.2v7.4
				c-0.2,0.2-0.4,0.4-0.8,0.4c-0.4,0.1-1.1,0-2.1,0.1c-1,0.1-2.3,0.4-3.3,0.8c-0.9,0.3-1.5,0.7-2,0.9c-0.1,0-0.1,0.1-0.2,0.1
				c-0.5,0.2-0.9,0.1-1.5,0l1.2,3.4c0.7,0.1,1.4,0.1,2.1,0.3c0.6,0.2,1.2,0.4,1.6,0.8c0.4,0.4,0.5,1,0.7,1.5c0.6,0,1.2,0.1,1.5,0.3
				c0.4,0.2,0.5,0.5,0.6,1.2c0.1,0.6,0.1,1.5,0.2,2.6l0.2,3.5l2,0.4l0.2,0.1l-0.1,1L49,72.1c-0.5,0-1,0-1.5,0.1
				c-1.9,0.1-3.7,0.2-5.1,0.1c-0.8,0-1.4-0.1-2-0.2c-0.8-0.1-1.6-0.3-2.7-0.7c-1.9-0.6-4.6-1.7-6.3-2.2c-0.1,0-0.2-0.1-0.3-0.1
				c-1.4-0.4-1.9-0.4-2.4-0.4l-0.2-7.3c0.4-0.3,0.9-0.6,1.2-0.7c0.4-0.1,0.7-0.1,1-0.1c0.1,0,0.2,0,0.4,0c0.2,0,0.5,0.1,0.8,0.1
				c0.3-0.3,0.6-0.6,0.9-0.7c0.3-0.1,0.5-0.2,0.6-0.4c0.2-0.2,0.3-0.7,0.6-1.1c0.2-0.2,0.4-0.4,0.5-0.6c0.2-0.2,0.3-0.4,0.5-0.6
				c0.1-0.2,0.1-0.3,0.2-0.5c0.1-0.3,0.1-0.7,0.1-1c0.7-0.3,1.5-0.5,2.2-0.9c0.7-0.4,1.5-0.9,2.2-1.5l0.8-2.1c-1.3,0-2.6,0-3.5,0
				c-0.6,0-0.9,0-1.2,0c-0.3,0-0.5-0.1-0.6-0.2c-0.3-0.2-0.5-0.4-0.6-0.8c-0.1-0.2-0.1-0.4-0.2-0.6c-0.1-0.2-0.1-0.4-0.2-0.6
				c-0.2-0.4-0.4-0.6-0.6-0.8c-0.2-0.2-0.5-0.2-0.7-0.3l0.1-7.9c-0.1-0.2-0.1-0.4,0-0.6c0.1-0.2,0.2-0.4,0.4-0.5
				c0.2-0.1,0.4-0.2,0.7-0.3c0.4-0.1,0.9-0.2,1.4-0.3l-8.6-1.6c-1.9-0.3-3.9-2.6-1.6-4.1c0.8-0.5,1.6-0.9,2.5-1.3
				c-0.1-0.2-0.2-0.4-0.4-0.6c-0.3-0.3-0.8-0.6-1-1c-0.2-0.4-0.2-1,0.2-1.4c0.4-0.4,1.1-0.7,2-0.8c0.9-0.1,1.9,0,3,0.1V30.8z"/>
			<g>
				
					<path fill-rule="evenodd" clip-rule="evenodd" fill="none" stroke="#FFFFFF" stroke-width="0.7498" stroke-miterlimit="22.9256" d="
					M34.1,39c-0.4,0.1-0.7,0.1-1,0.4c-0.2,0.2-0.4,0.7-0.2,1.1c0.2,0.4,0.7,0.8,1,1.2c0.3,0.4,0.4,0.9,0.7,1.2
					c0.4,0.3,1,0.6,2.3,0.7c1.3,0.1,3.2,0.2,4.9,0.3c1.7,0.2,3.3,0.5,4.2,0.5c0.9,0,1-0.3,1.3-0.5c0.3-0.2,0.7-0.2,1-0.1
					c0.4,0.1,0.7,0.3,1.2,0.4c0.5,0.1,1.1-0.1,2-0.3c0.8-0.2,1.9-0.6,3.1-0.8c1.2-0.2,2.7-0.3,4.1-0.4"/>
				
					<path fill-rule="evenodd" clip-rule="evenodd" fill="none" stroke="#FFFFFF" stroke-width="0.7498" stroke-miterlimit="22.9256" d="
					M49.8,52.9c-0.2,0-1.4-0.5-1.7-0.5c-0.5-0.2-1.2-0.5-2.4-0.7c-1.2-0.2-2.8-0.2-4.5-0.2c-0.9,0-1.1,0-1.6,0c0.1,1-0.1,1.9,0,2.6
					c0.1,0.8,0.2,1.4,0.2,2c0,0.6-0.1,1.2-0.2,1.6c-0.1,0.4-0.2,0.7-0.3,1c-0.1,0.2-0.2,0.4-0.3,0.5"/>
				
					<path fill-rule="evenodd" clip-rule="evenodd" fill="none" stroke="#FFFFFF" stroke-width="0.7498" stroke-miterlimit="22.9256" d="
					M49.8,44.2c0,3,0,6,0,9.1"/>
				
					<path fill-rule="evenodd" clip-rule="evenodd" fill="none" stroke="#FFFFFF" stroke-width="0.7498" stroke-miterlimit="22.9256" d="
					M46.1,44.4c0,2.5,0,4.9,0,7.4"/>
				
					<line fill-rule="evenodd" clip-rule="evenodd" fill="none" stroke="#FFFFFF" stroke-width="0.7498" stroke-miterlimit="22.9256" x1="34.4" y1="42.6" x2="34.3" y2="51.6"/>
				
					<line fill-rule="evenodd" clip-rule="evenodd" fill="none" stroke="#FFFFFF" stroke-width="0.7498" stroke-miterlimit="22.9256" x1="35.7" y1="43.4" x2="35.8" y2="52.2"/>
				
					<path fill-rule="evenodd" clip-rule="evenodd" fill="none" stroke="#FFFFFF" stroke-width="0.7498" stroke-miterlimit="22.9256" d="
					M31,60.6c3.1,0.7,6.3,1.4,9.4,2.1c0,3.4,0,6.7-0.1,10.1"/>
				
					<path fill-rule="evenodd" clip-rule="evenodd" fill="none" stroke="#FFFFFF" stroke-width="0.7498" stroke-miterlimit="22.9256" d="
					M31,60.2c0,3.2,0,6.4,0.1,9.6"/>
				
					<path fill-rule="evenodd" clip-rule="evenodd" fill="none" stroke="#FFFFFF" stroke-width="0.7498" stroke-miterlimit="22.9256" d="
					M40.5,62.8c0.5,0,1.1,0.1,1.6,0c0.5-0.1,0.9-0.4,1.5-0.6c0.6-0.1,1.4-0.1,2,0c0.7,0.1,1.3,0.3,1.9,0.4c0.3-0.4,0.6-0.7,0.8-1.2
					c0.2-0.5,0.3-1.1,0.4-1.6c0.1-0.5,0.1-0.9,0.4-1.2c0.2-0.3,0.7-0.5,1.1-0.7c0.5-0.2,1.1-0.4,1.6-0.6c0.6-0.2,1.1-0.4,1.7-0.5"/>
				
					<path fill-rule="evenodd" clip-rule="evenodd" fill="none" stroke="#FFFFFF" stroke-width="0.7498" stroke-miterlimit="22.9256" d="
					M47.5,62.6c0,3.4,0,6.8,0,10.2"/>
				
					<path fill-rule="evenodd" clip-rule="evenodd" fill="none" stroke="#FFFFFF" stroke-width="0.7498" stroke-miterlimit="22.9256" d="
					M47.5,70.4c3.2-1.7,6.4-3.4,9.6-5.1"/>
				
					<path fill-rule="evenodd" clip-rule="evenodd" fill="none" stroke="#FFFFFF" stroke-width="0.7498" stroke-miterlimit="22.9256" d="
					M33.8,58c1.8,0.4,3.5,0.9,5.3,1.3c-0.1,0.2-0.3,0.4-0.4,0.6c0.7,0.1,1.3,0.2,2,0.4c0.1-0.2,0.2-0.4,0.3-0.6
					c2.5,0.4,5,0.9,7.5,1.3"/>
				
					<path fill-rule="evenodd" clip-rule="evenodd" fill="none" stroke="#FFFFFF" stroke-width="0.7498" stroke-miterlimit="22.9256" d="
					M34.6,55.9c1.7,0.3,3.4,0.6,5.1,0.9"/>
				
					<path fill-rule="evenodd" clip-rule="evenodd" fill="none" stroke="#FFFFFF" stroke-width="0.7498" stroke-miterlimit="22.9256" d="
					M42.3,51.6c-0.2,0.9-0.4,1.7-0.5,2.6c-0.1,0.9-0.2,1.7-0.2,2.4c0,0.7,0,1.3-0.1,1.9c-0.1,0.6-0.5,1.2-0.8,1.8"/>
				
					<path fill-rule="evenodd" clip-rule="evenodd" fill="none" stroke="#FFFFFF" stroke-width="0.7498" stroke-miterlimit="22.9256" d="
					M43.2,51.6c0,1.2,0,2.3,0.1,3.3c0,1,0,2-0.1,2.8c-0.1,0.8-0.3,1.5-0.6,2.2"/>
				
					<path fill-rule="evenodd" clip-rule="evenodd" fill="none" stroke="#FFFFFF" stroke-width="0.7498" stroke-miterlimit="22.9256" d="
					M43.2,57.7c2,0.3,3.9,0.6,5.9,0.9"/>
				
					<path fill-rule="evenodd" clip-rule="evenodd" fill="none" stroke="#FFFFFF" stroke-width="0.7498" stroke-miterlimit="22.9256" d="
					M43.3,52.5c0.8,0.1,1.6,0.2,2.2,0.3c0.6,0.1,1.1,0.3,1.4,0.5c0.3,0.3,0.5,0.7,0.7,1.2c0.2,0.5,0.3,1.2,0.5,1.6
					c0.2,0.4,0.5,0.6,1,0.8c0.5,0.2,1.2,0.4,1.9,0.6"/>
				
					<ellipse transform="matrix(0.9668 0.2554 -0.2554 0.9668 17.2275 -11.1139)" fill-rule="evenodd" clip-rule="evenodd" fill="none" stroke="#FFFFFF" stroke-width="0.7498" stroke-miterlimit="22.9256" cx="51.4" cy="60.8" rx="1.6" ry="1.8"/>
				
					<path fill-rule="evenodd" clip-rule="evenodd" fill="none" stroke="#FFFFFF" stroke-width="0.7498" stroke-miterlimit="22.9256" d="
					M31.5,35.7c0-2.6,0-5.2,0-7.8c-1-0.1-2.1-0.2-3-0.1c-0.9,0.1-1.6,0.4-2,0.8c-0.4,0.4-0.4,1-0.2,1.4c0.2,0.4,0.7,0.7,1,1
					c0.3,0.3,0.5,0.6,0.5,0.9c-0.1,0.3-0.4,0.6-0.7,0.9c-0.3,0.4-0.6,0.8-0.7,1.2c-0.1,0.4-0.1,0.9-0.1,1.3"/>
			</g>
		</g>
		<polygon fill-rule="evenodd" clip-rule="evenodd" fill="#00AFEE" points="73.5,28 65.4,56.5 70.9,51.8 67.7,69.8 75.8,43.9 
			70.4,48.9 		"/>
	</g>
</g>
</svg>
