<?xml version="1.0" encoding="utf-8"?>
<!-- Generator: Adobe Illustrator 18.1.1, SVG Export Plug-In . SVG Version: 6.00 Build 0)  -->
<svg version="1.1" id="макет" xmlns="http://www.w3.org/2000/svg" xmlns:xlink="http://www.w3.org/1999/xlink" x="0px" y="0px"
	 width="100px" height="100px" viewBox="0 0 100 100" enable-background="new 0 0 100 100" xml:space="preserve">
<g>
	<path fill-rule="evenodd" clip-rule="evenodd" fill="#FFFFFF" d="M50,100c27.5,0,50-22.5,50-50c0-27.5-22.5-50-50-50
		C22.5,0,0,22.5,0,50C0,77.5,22.5,100,50,100z"/>
	<g>
		<path fill-rule="evenodd" clip-rule="evenodd" fill="none" stroke="#00AFEE" stroke-width="0.75" stroke-miterlimit="22.9256" d="
			M26.8,42.6h8v12.2c0,1.4,1.1,2.5,2.5,2.5H49c0.3,0,0.6-0.1,0.8-0.4l1-1.1h3.3l0.6,1c0.2,0.3,0.5,0.5,0.9,0.5h3l4.3-3.5h2.4v12.7
			c0,1.4-1.1,2.5-2.5,2.5H52.2L48,72.5h-3c-0.4,0-0.7-0.2-0.9-0.5l-0.6-1h-3.3l-1,1.1c-0.2,0.2-0.5,0.4-0.8,0.4H26.8
			c-1.4,0-2.5-1.1-2.5-2.5V45.1C24.3,43.8,25.4,42.6,26.8,42.6z"/>
		<g>
			<path fill-rule="evenodd" clip-rule="evenodd" fill="#00AFEE" d="M32.4,61.9v-7.5l0,0c0-1.1,0.7-1.8,1.5-2
				c0.3-0.1,0.6-0.2,0.9-0.2c0.3,0,0.6,0.1,0.9,0.2c0.2,0.1,0.4,0.2,0.5,0.3c0.2-0.1,0.4-0.2,0.5-0.3c0.3-0.1,0.6-0.2,0.9-0.2
				c0.3,0,0.6,0.1,0.9,0.2c0.8,0.3,1.5,1,1.5,2.1l0,7.5h-1.9l0-7.5c0-0.1-0.1-0.3-0.3-0.3c-0.1,0-0.2-0.1-0.3-0.1
				c-0.1,0-0.2,0-0.3,0c-0.1,0-0.2,0.2-0.2,0.3h0v7.5h-1.9v-7.5l0,0c0-0.1-0.1-0.2-0.3-0.3C35,54,34.9,54,34.8,54
				c-0.1,0-0.2,0-0.3,0c-0.1,0-0.2,0.2-0.2,0.3h0v7.5H32.4z"/>
			<rect x="41" y="54.6" fill-rule="evenodd" clip-rule="evenodd" fill="#00AFEE" width="1.4" height="3.1"/>
			<ellipse fill-rule="evenodd" clip-rule="evenodd" fill="#00AFEE" cx="41.7" cy="53.4" rx="0.9" ry="0.8"/>
			<path fill-rule="evenodd" clip-rule="evenodd" fill="#00AFEE" d="M46.8,54.3h-1.3c-0.2,0-0.4,0.1-0.6,0.3
				c-0.2,0.2-0.3,0.4-0.3,0.7c0,0.3,0.1,0.5,0.3,0.7c0.2,0.2,0.4,0.3,0.6,0.3h1.3v1.4h-1.3c-0.6,0-1.2-0.3-1.6-0.7
				c-0.4-0.4-0.6-1-0.6-1.7c0-0.6,0.2-1.2,0.6-1.7c0.4-0.4,1-0.7,1.6-0.7h1.3V54.3z"/>
			<path fill-rule="evenodd" clip-rule="evenodd" fill="#00AFEE" d="M47.3,57.7v-2.9l0,0c0-0.9,0.5-1.5,1.1-1.8
				c0.3-0.1,0.5-0.2,0.8-0.2c0.3,0,0.5,0.1,0.8,0.2c0.6,0.3,1.2,0.9,1.2,1.8l-1.4,0c0-0.3-0.2-0.5-0.3-0.6c-0.1,0-0.2-0.1-0.3-0.1
				c-0.1,0-0.2,0-0.2,0.1c-0.2,0.1-0.3,0.3-0.3,0.5l0,2.9H47.3z"/>
			<path fill-rule="evenodd" clip-rule="evenodd" fill="#00AFEE" d="M54.3,52.9c0.7,0,1.3,0.3,1.7,0.7c0.4,0.4,0.7,1,0.7,1.7
				c0,0.7-0.3,1.3-0.7,1.7c-0.4,0.4-1,0.7-1.7,0.7c-0.7,0-1.3-0.3-1.7-0.7l0,0c-0.4-0.4-0.7-1-0.7-1.7c0-0.7,0.3-1.3,0.7-1.7
				C53,53.2,53.6,52.9,54.3,52.9L54.3,52.9z M55,54.6c-0.2-0.2-0.4-0.3-0.7-0.3c-0.3,0-0.5,0.1-0.7,0.3c-0.2,0.2-0.3,0.4-0.3,0.7
				c0,0.3,0.1,0.5,0.3,0.7l0,0c0.2,0.2,0.4,0.3,0.7,0.3c0.3,0,0.5-0.1,0.7-0.3c0.2-0.2,0.3-0.4,0.3-0.7C55.3,55.1,55.2,54.8,55,54.6
				z"/>
			<path fill-rule="evenodd" clip-rule="evenodd" fill="#00AFEE" d="M48.8,58.3c-1.6,0.1-3.2,0.1-4.3,0.2c-1.1,0.1-1.6,0.3-2,0.6
				c-0.4,0.3-0.5,0.6-0.5,1c0,0.3,0.2,0.7,0.6,0.9c0.4,0.3,1.2,0.4,1.6,0.6c0.4,0.1,0.6,0.2,0.7,0.4c0.1,0.1,0.1,0.3-0.1,0.4
				c-0.2,0.1-0.6,0.1-1.3,0.1c-0.7,0-1.7-0.1-2.7-0.1c-0.2,0.5-0.4,1-0.6,1.6c1.4,0,2.7,0,3.8,0c1.1,0,1.8,0,2.3-0.2
				c0.6-0.2,1-0.4,1.2-0.8c0.2-0.4,0.3-0.8,0.2-1.2c-0.1-0.4-0.4-0.7-1-0.9c-0.6-0.2-1.4-0.3-1.9-0.4c-0.5-0.1-0.8-0.2-0.9-0.3
				c-0.1-0.1-0.2-0.3-0.1-0.4c0.1-0.1,0.3-0.1,1.1-0.2c0.8,0,2.3-0.1,3.7-0.1C48.8,59,48.8,58.7,48.8,58.3z"/>
			<path fill-rule="evenodd" clip-rule="evenodd" fill="#00AFEE" d="M48.8,61.5c-0.3,0.8-0.5,1.5-0.8,2.3c0.9,0,1.9-0.1,2.8-0.2
				c0.9-0.1,1.9-0.3,2.7-0.5c0.8-0.2,1.4-0.5,2-0.9c0.6-0.4,1-0.9,1.3-1.3c0.2-0.4,0.2-0.7,0-1c-0.2-0.3-0.5-0.6-0.7-0.8
				c-0.3-0.2-0.5-0.2-0.7-0.3c-0.6,0.3-1.1,0.6-1.6,0.8c-0.5,0.2-0.9,0.3-1.4,0.5c-0.1,0.3-0.2,0.6-0.5,0.8
				c-0.3,0.3-0.7,0.5-1.2,0.6C49.9,61.5,49.4,61.5,48.8,61.5z"/>
			<path fill-rule="evenodd" clip-rule="evenodd" fill="#00AFEE" d="M49.7,58.3c-0.1,0.4-0.1,0.8-0.2,1.1c0.4,0,0.7,0,1,0
				c0.3,0,0.4,0,0.6,0.1c0.2-0.2,0.5-0.4,0.7-0.6c0.2-0.2,0.5-0.4,0.7-0.6c-0.5,0-1-0.1-1.5-0.1C50.6,58.2,50.2,58.3,49.7,58.3z"/>
			<path fill-rule="evenodd" clip-rule="evenodd" fill="#00AFEE" d="M51.7,59.6c0.7-0.4,1.4-0.8,2.2-1.2c0.1,0,0.3,0,0.4,0
				c0.1,0,0.2,0.1,0.2,0.1c-0.8,0.4-1.6,0.8-2.4,1.2c-0.1,0-0.1-0.1-0.2-0.1C51.8,59.7,51.8,59.6,51.7,59.6z"/>
		</g>
		
			<path fill-rule="evenodd" clip-rule="evenodd" fill="#FFFFFF" stroke="#00AFEE" stroke-width="0.75" stroke-miterlimit="22.9256" d="
			M37.3,27.5h36c1.4,0,2.5,1.1,2.5,2.5v21.4c0,1.4-1.1,2.5-2.5,2.5H62.8l-4.3,3.5h-3c-0.4,0-0.7-0.2-0.9-0.5l-0.6-1h-3.3l-1,1.1
			c-0.2,0.2-0.5,0.4-0.8,0.4H37.3c-1.4,0-2.5-1.1-2.5-2.5V30C34.8,28.6,35.9,27.5,37.3,27.5z"/>
		<g>
			<path fill-rule="evenodd" clip-rule="evenodd" fill="#00AFEE" d="M43.1,45.6v-7.5l0,0c0-1.1,0.7-1.8,1.5-2
				c0.3-0.1,0.6-0.2,0.9-0.2c0.3,0,0.6,0.1,0.9,0.2c0.2,0.1,0.4,0.2,0.5,0.3c0.2-0.1,0.4-0.2,0.5-0.3c0.3-0.1,0.6-0.2,0.9-0.2
				c0.3,0,0.6,0.1,0.9,0.2c0.8,0.3,1.5,1,1.5,2.1l0,7.5H49l0-7.5c0-0.1-0.1-0.3-0.3-0.3c-0.1,0-0.2-0.1-0.3-0.1c-0.1,0-0.2,0-0.3,0
				c-0.1,0-0.2,0.2-0.2,0.3h0v7.5h-1.9v-7.5l0,0c0-0.1-0.1-0.2-0.3-0.3c-0.1,0-0.2-0.1-0.3-0.1c-0.1,0-0.2,0-0.3,0
				c-0.1,0-0.2,0.2-0.2,0.3h0v7.5H43.1z"/>
			<rect x="51.7" y="38.4" fill-rule="evenodd" clip-rule="evenodd" fill="#00AFEE" width="1.4" height="3.1"/>
			<ellipse fill-rule="evenodd" clip-rule="evenodd" fill="#00AFEE" cx="52.5" cy="37.2" rx="0.9" ry="0.8"/>
			<path fill-rule="evenodd" clip-rule="evenodd" fill="#00AFEE" d="M57.6,38.1h-1.3c-0.2,0-0.4,0.1-0.6,0.3
				c-0.2,0.2-0.3,0.4-0.3,0.7c0,0.3,0.1,0.5,0.3,0.7c0.2,0.2,0.4,0.3,0.6,0.3h1.3v1.4h-1.3c-0.6,0-1.2-0.3-1.6-0.7
				c-0.4-0.4-0.6-1-0.6-1.7c0-0.6,0.2-1.2,0.6-1.7c0.4-0.4,1-0.7,1.6-0.7h1.3V38.1z"/>
			<path fill-rule="evenodd" clip-rule="evenodd" fill="#00AFEE" d="M58,41.5v-2.9l0,0c0-0.9,0.5-1.5,1.1-1.8
				c0.3-0.1,0.5-0.2,0.8-0.2c0.3,0,0.5,0.1,0.8,0.2c0.6,0.3,1.2,0.9,1.2,1.8l-1.4,0c0-0.3-0.2-0.5-0.3-0.6c-0.1,0-0.2-0.1-0.3-0.1
				c-0.1,0-0.2,0-0.2,0.1c-0.2,0.1-0.3,0.3-0.3,0.5l0,2.9H58z"/>
			<path fill-rule="evenodd" clip-rule="evenodd" fill="#00AFEE" d="M65.1,36.7c0.7,0,1.3,0.3,1.7,0.7c0.4,0.4,0.7,1,0.7,1.7
				c0,0.7-0.3,1.3-0.7,1.7c-0.4,0.4-1,0.7-1.7,0.7c-0.7,0-1.3-0.3-1.7-0.7l0,0c-0.4-0.4-0.7-1-0.7-1.7c0-0.7,0.3-1.3,0.7-1.7
				C63.8,37,64.4,36.7,65.1,36.7L65.1,36.7z M65.8,38.4c-0.2-0.2-0.4-0.3-0.7-0.3c-0.3,0-0.5,0.1-0.7,0.3c-0.2,0.2-0.3,0.4-0.3,0.7
				c0,0.3,0.1,0.5,0.3,0.7l0,0c0.2,0.2,0.4,0.3,0.7,0.3c0.3,0,0.5-0.1,0.7-0.3c0.2-0.2,0.3-0.4,0.3-0.7C66.1,38.8,66,38.6,65.8,38.4
				z"/>
			<path fill-rule="evenodd" clip-rule="evenodd" fill="#00AFEE" d="M59.6,42.1c-1.6,0.1-3.2,0.1-4.3,0.2c-1.1,0.1-1.6,0.3-2,0.6
				c-0.4,0.3-0.5,0.6-0.5,1c0,0.3,0.2,0.7,0.6,0.9c0.4,0.3,1.2,0.4,1.6,0.6c0.4,0.1,0.6,0.2,0.7,0.4c0.1,0.1,0.1,0.3-0.1,0.4
				c-0.2,0.1-0.6,0.1-1.3,0.1c-0.7,0-1.7-0.1-2.7-0.1c-0.2,0.5-0.4,1-0.6,1.6c1.4,0,2.7,0,3.8,0c1.1,0,1.8,0,2.3-0.2
				c0.6-0.2,1-0.4,1.2-0.8c0.2-0.4,0.3-0.8,0.2-1.2c-0.1-0.4-0.4-0.7-1-0.9c-0.6-0.2-1.4-0.3-1.9-0.4c-0.5-0.1-0.8-0.2-0.9-0.3
				c-0.1-0.1-0.2-0.3-0.1-0.4c0.1-0.1,0.3-0.1,1.1-0.2c0.8,0,2.3-0.1,3.7-0.1C59.5,42.8,59.6,42.4,59.6,42.1z"/>
			<path fill-rule="evenodd" clip-rule="evenodd" fill="#00AFEE" d="M59.5,45.3c-0.3,0.8-0.5,1.5-0.8,2.3c0.9,0,1.9-0.1,2.8-0.2
				c0.9-0.1,1.9-0.3,2.7-0.5c0.8-0.2,1.4-0.5,2-0.9c0.6-0.4,1-0.9,1.3-1.3c0.2-0.4,0.2-0.7,0-1c-0.2-0.3-0.5-0.6-0.7-0.8
				s-0.5-0.2-0.7-0.3c-0.6,0.3-1.1,0.6-1.6,0.8c-0.5,0.2-0.9,0.3-1.4,0.5c-0.1,0.3-0.2,0.6-0.5,0.8c-0.3,0.3-0.7,0.5-1.2,0.6
				C60.7,45.3,60.1,45.3,59.5,45.3z"/>
			<path fill-rule="evenodd" clip-rule="evenodd" fill="#00AFEE" d="M60.5,42.1c-0.1,0.4-0.1,0.8-0.2,1.1c0.4,0,0.7,0,1,0
				c0.3,0,0.4,0,0.6,0.1c0.2-0.2,0.5-0.4,0.7-0.6c0.2-0.2,0.5-0.4,0.7-0.6c-0.5,0-1-0.1-1.5-0.1C61.4,42,60.9,42.1,60.5,42.1z"/>
			<path fill-rule="evenodd" clip-rule="evenodd" fill="#00AFEE" d="M62.5,43.4c0.7-0.4,1.4-0.8,2.2-1.2c0.1,0,0.3,0,0.4,0
				c0.1,0,0.2,0.1,0.2,0.1c-0.8,0.4-1.6,0.8-2.4,1.2c-0.1,0-0.1-0.1-0.2-0.1C62.6,43.4,62.5,43.4,62.5,43.4z"/>
		</g>
	</g>
</g>
</svg>
