<?xml version="1.0" encoding="utf-8"?>
<!-- Generator: Adobe Illustrator 18.1.1, SVG Export Plug-In . SVG Version: 6.00 Build 0)  -->
<svg version="1.1" id="макет" xmlns="http://www.w3.org/2000/svg" xmlns:xlink="http://www.w3.org/1999/xlink" x="0px" y="0px"
	 width="100px" height="100px" viewBox="0 0 100 100" enable-background="new 0 0 100 100" xml:space="preserve">
<g>
	<path fill-rule="evenodd" clip-rule="evenodd" fill="#00AFEE" d="M50,100c27.5,0,50-22.5,50-50c0-27.5-22.5-50-50-50
		C22.5,0,0,22.5,0,50C0,77.5,22.5,100,50,100z"/>
	<g>
		
			<path fill-rule="evenodd" clip-rule="evenodd" fill="none" stroke="#FFFFFF" stroke-width="0.7498" stroke-miterlimit="22.9256" d="
			M37.4,43.4c-4,0-7.3,2.7-7.3,6v3.5h14.8h14.8v-3.5c0-3.3-3.3-6-7.3-6h-7.5H37.4z"/>
		
			<path fill-rule="evenodd" clip-rule="evenodd" fill="none" stroke="#FFFFFF" stroke-width="0.7498" stroke-miterlimit="22.9256" d="
			M60.7,52.9c1.3,0,2.4,0.9,2.5,2l0.9,7.7c0.1,0.7-0.1,1.3-0.6,1.8c-0.5,0.5-1.2,0.8-1.9,0.8H44.8H28.1c-0.8,0-1.4-0.3-1.9-0.8
			c-0.5-0.5-0.7-1.1-0.6-1.8l0.9-7.7c0.1-1.2,1.2-2,2.5-2l15.8,0L60.7,52.9z"/>
		
			<path fill-rule="evenodd" clip-rule="evenodd" fill="none" stroke="#FFFFFF" stroke-width="0.7498" stroke-miterlimit="22.9256" d="
			M55.1,65.1h4.8v5.6c0,1-0.8,1.8-1.8,1.8H57c-1,0-1.8-0.8-1.8-1.8V65.1z"/>
		
			<path fill-rule="evenodd" clip-rule="evenodd" fill="none" stroke="#FFFFFF" stroke-width="0.7498" stroke-miterlimit="22.9256" d="
			M34.6,65.1h-4.8v5.6c0,1,0.8,1.8,1.8,1.8h1.1c1,0,1.8-0.8,1.8-1.8V65.1z"/>
		
			<path fill-rule="evenodd" clip-rule="evenodd" fill="none" stroke="#FFFFFF" stroke-width="0.7498" stroke-miterlimit="22.9256" d="
			M57.3,61.9c1.4,0,2.6-1.2,2.6-2.6c0-1.4-1.2-2.6-2.6-2.6c-1.4,0-2.6,1.2-2.6,2.6C54.7,60.7,55.9,61.9,57.3,61.9z"/>
		
			<path fill-rule="evenodd" clip-rule="evenodd" fill="none" stroke="#FFFFFF" stroke-width="0.7498" stroke-miterlimit="22.9256" d="
			M32.4,61.9c1.4,0,2.6-1.2,2.6-2.6c0-1.4-1.2-2.6-2.6-2.6c-1.4,0-2.6,1.2-2.6,2.6C29.8,60.7,30.9,61.9,32.4,61.9z"/>
		<g>
			
				<path fill-rule="evenodd" clip-rule="evenodd" fill="none" stroke="#FFFFFF" stroke-width="0.4997" stroke-miterlimit="22.9256" d="
				M54.8,39.3c-0.2,0-0.4-0.2-0.4-0.4c0-0.2,0.2-0.4,0.4-0.4c1,0,2.1,0.2,3,0.5c0.9,0.3,1.8,0.8,2.6,1.4c0.8,0.6,1.5,1.3,2,2.2
				c0.5,0.8,1,1.8,1.3,2.8c0.1,0.2-0.1,0.4-0.3,0.5c-0.2,0.1-0.4-0.1-0.5-0.3c-0.3-0.9-0.7-1.8-1.2-2.6c-0.5-0.8-1.1-1.4-1.8-2
				c-0.7-0.6-1.5-1-2.4-1.3C56.7,39.5,55.8,39.4,54.8,39.3z"/>
			
				<path fill-rule="evenodd" clip-rule="evenodd" fill="none" stroke="#FFFFFF" stroke-width="0.4997" stroke-miterlimit="22.9256" d="
				M69.2,44.3c0.1,0.2-0.1,0.4-0.3,0.5c-0.2,0.1-0.4-0.1-0.5-0.3c-0.4-1.6-1.1-3-1.9-4.3c-0.9-1.3-1.9-2.5-3.2-3.4
				c-1.2-1-2.6-1.7-4.1-2.2c-1.5-0.5-3-0.8-4.7-0.8c-0.2,0-0.4-0.2-0.4-0.4c0-0.2,0.2-0.4,0.4-0.4c1.7,0,3.3,0.3,4.9,0.9
				c1.6,0.5,3,1.3,4.3,2.4c1.3,1,2.4,2.2,3.3,3.6C68,41.2,68.7,42.7,69.2,44.3z"/>
			
				<path fill-rule="evenodd" clip-rule="evenodd" fill="none" stroke="#FFFFFF" stroke-width="0.4997" stroke-miterlimit="22.9256" d="
				M74.4,43c0.1,0.2-0.1,0.4-0.3,0.5c-0.2,0.1-0.4-0.1-0.5-0.3c-0.6-2.1-1.6-4-2.8-5.8c-1.2-1.8-2.7-3.3-4.4-4.7
				c-1.7-1.3-3.6-2.4-5.6-3.1c-2-0.7-4.1-1.2-6.3-1.3c-0.2,0-0.4-0.2-0.4-0.4c0-0.2,0.2-0.4,0.4-0.4c2.2,0.1,4.5,0.6,6.5,1.3
				c2.1,0.8,4.1,1.9,5.8,3.2c1.8,1.4,3.3,3,4.6,4.9C72.8,38.8,73.8,40.8,74.4,43z"/>
		</g>
	</g>
</g>
</svg>
