<?xml version="1.0" encoding="utf-8"?>
<!-- Generator: Adobe Illustrator 18.1.1, SVG Export Plug-In . SVG Version: 6.00 Build 0)  -->
<svg version="1.1" id="макет" xmlns="http://www.w3.org/2000/svg" xmlns:xlink="http://www.w3.org/1999/xlink" x="0px" y="0px"
	 width="100px" height="100px" viewBox="0 0 100 100" enable-background="new 0 0 100 100" xml:space="preserve">
<g>
	<path fill-rule="evenodd" clip-rule="evenodd" fill="#00AFEE" d="M50,100c27.5,0,50-22.5,50-50c0-27.5-22.5-50-50-50
		C22.5,0,0,22.5,0,50C0,77.5,22.5,100,50,100z"/>
	<g>
		
			<path fill-rule="evenodd" clip-rule="evenodd" fill="none" stroke="#FFFFFF" stroke-width="0.7498" stroke-miterlimit="22.9256" d="
			M40.2,63.4L67,51.8c0.5-0.2,0.7-0.8,0.5-1.2l-9.7-22.5c-0.2-0.5-0.8-0.7-1.2-0.5L29.8,39.1c-0.5,0.2-0.7,0.8-0.5,1.2L39,62.9
			C39.2,63.3,39.7,63.6,40.2,63.4z"/>
		
			<rect x="21.8" y="51.3" transform="matrix(-0.3948 -0.9188 0.9188 -0.3948 -10.0219 100.5416)" fill-rule="evenodd" clip-rule="evenodd" fill="none" stroke="#FFFFFF" stroke-width="0.7498" stroke-linejoin="round" stroke-miterlimit="22.9256" width="12.6" height="4.5"/>
		
			<polygon fill-rule="evenodd" clip-rule="evenodd" fill="none" stroke="#FFFFFF" stroke-width="0.7498" stroke-miterlimit="22.9256" points="
			51.6,68.3 54.3,68.3 57.6,68.3 63.7,68.3 63.7,72.5 70,72.5 70,59.1 63.7,59.1 63.7,62.5 57.6,62.5 57.6,55.9 51.6,58.5 		"/>
		
			<polygon fill-rule="evenodd" clip-rule="evenodd" fill="none" stroke="#FFFFFF" stroke-width="0.7498" stroke-miterlimit="22.9256" points="
			32.5,47.8 35.3,54.4 32.1,57.1 28.3,48.3 		"/>
		
			<path fill-rule="evenodd" clip-rule="evenodd" fill="none" stroke="#FFFFFF" stroke-width="0.7498" stroke-miterlimit="22.9256" d="
			M50.1,35.2l1.5,3.6c0.2,0.4,0.7,0.6,1.1,0.4l4.6-2c0.4-0.2,0.6-0.7,0.4-1.1l-1.5-3.6c-0.2-0.4-0.7-0.6-1.1-0.4l-4.6,2
			C50.1,34.3,49.9,34.7,50.1,35.2z"/>
	</g>
</g>
</svg>
