<?xml version="1.0" encoding="utf-8"?>
<!-- Generator: Adobe Illustrator 21.0.0, SVG Export Plug-In . SVG Version: 6.00 Build 0)  -->
<svg version="1.1" xmlns="http://www.w3.org/2000/svg" xmlns:xlink="http://www.w3.org/1999/xlink" x="0px" y="0px"
	 viewBox="0 0 100 100"  xml:space="preserve" style="enable-background:new 0 0 100 100;" >
<style type="text/css">
	.st0{fill:#00B0F0;}
	.st1{fill:#FFFFFF;}
</style>
<g id="Слой_2">
	<g>
		<path class="st0" d="M50,100c27.5,0,50-22.5,50-50S77.5,0,50,0S0,22.5,0,50S22.5,100,50,100z" style="fill:#00B0F0;" />
	</g>
</g>
<g id="иконка">
	<g>
		<g>
			<path class="st1" d="M80.9,78.6H19.1c-1.2,0-2.1-0.9-2.1-2.1V34.6c0-1.2,0.9-2.1,2.1-2.1h3.5v0.8h-3.5c-0.7,0-1.3,0.6-1.3,1.3
				v41.9c0,0.7,0.6,1.3,1.3,1.3h61.8c0.7,0,1.3-0.6,1.3-1.3V34.6c0-0.7-0.6-1.3-1.3-1.3h-3.5v-0.8h3.5c1.2,0,2.1,0.9,2.1,2.1v41.9
				C83,77.7,82,78.6,80.9,78.6z" style="fill:#FFFFFF;" />
		</g>
		<g>
			<path class="st1" d="M49,76.7c-6.1,0-14.2-4-18.3-15.6l-7.4-22.9c-1.2-4.5-1.7-8.1-1.6-10.7c0.2-2.2,0.9-2.4,3.2-3l0.3-0.1
				c9.1-2.3,19.3-2.8,24.6-2.9c5.3,0.1,15.5,0.7,24.6,2.9l0.3,0.1c2.4,0.6,3.1,0.8,3.2,3c0.2,2.6-0.3,6.2-1.5,10.7l-7.4,22.9
				C65,73.2,56.2,77,50,76.6C49.7,76.6,49.4,76.7,49,76.7z M50,22.1c-5.2,0.1-15.4,0.6-24.4,2.9l-0.3,0.1c-2.3,0.6-2.6,0.6-2.7,2.3
				c-0.2,2.5,0.4,6.1,1.5,10.4l7.4,22.9C35.6,72.6,44,76.3,50,75.9l0,0l0,0c6,0.4,14.4-3.3,18.5-15.1l7.4-22.9
				c1.2-4.3,1.7-7.9,1.5-10.4c-0.1-1.7-0.4-1.7-2.7-2.3l-0.3-0.1C65.4,22.8,55.2,22.3,50,22.1z" style="fill:#FFFFFF;" />
		</g>
		<g>
			<path class="st1" d="M23.4,36.4l-0.2-0.7c14.1-4,28-5,41.2-2.9l-0.1,0.7C51.1,31.5,37.3,32.4,23.4,36.4z M76.6,36.4
				c-0.8-0.3-1.7-0.5-2.6-0.7l0.2-0.7c0.8,0.2,1.7,0.5,2.6,0.8L76.6,36.4z" style="fill:#FFFFFF;" />
		</g>
		<g>
			<path class="st1" d="M22.3,28l-0.2-0.7c19.2-5.7,38-5.7,55.8,0l-0.2,0.7C60,22.3,41.4,22.3,22.3,28z" style="fill:#FFFFFF;" />
		</g>
		<g>
			<path class="st1" d="M69.4,39c-3,0-5.5-2.5-5.5-5.5c0-3,2.5-5.5,5.5-5.5c3,0,5.5,2.5,5.5,5.5C74.9,36.5,72.4,39,69.4,39z
				 M69.4,28.7c-2.6,0-4.7,2.1-4.7,4.7c0,2.6,2.1,4.7,4.7,4.7c2.6,0,4.7-2.1,4.7-4.7C74.1,30.9,72,28.7,69.4,28.7z" style="fill:#FFFFFF;" />
		</g>
		<g>
			<path class="st1" d="M69.9,35.3c-1.6,0-2.9-1.3-2.9-2.9s1.3-2.9,2.9-2.9s2.9,1.3,2.9,2.9S71.5,35.3,69.9,35.3z M69.9,30.2
				c-1.2,0-2.2,1-2.2,2.2s1,2.2,2.2,2.2s2.2-1,2.2-2.2S71.1,30.2,69.9,30.2z" style="fill:#FFFFFF;" />
		</g>
		<g>
			<path class="st1" d="M50,69.3c-6.9,0-12.6-5.6-12.6-12.6S43.1,44.1,50,44.1c6.9,0,12.6,5.6,12.6,12.6S56.9,69.3,50,69.3z
				 M50,44.9c-6.5,0-11.8,5.3-11.8,11.8c0,6.5,5.3,11.8,11.8,11.8s11.8-5.3,11.8-11.8C61.8,50.2,56.5,44.9,50,44.9z" style="fill:#FFFFFF;" />
		</g>
		<g>
			<path class="st1" d="M50,68.2c-6.3,0-11.5-5.1-11.5-11.5c0-6.3,5.1-11.5,11.5-11.5c6.3,0,11.5,5.1,11.5,11.5
				C61.5,63,56.3,68.2,50,68.2z M50,46c-5.9,0-10.7,4.8-10.7,10.7S44.1,67.4,50,67.4s10.7-4.8,10.7-10.7S55.9,46,50,46z" style="fill:#FFFFFF;" />
		</g>
		<g>
			<path class="st1" d="M50,63.2c-3.6,0-6.5-2.9-6.5-6.5c0-3.6,2.9-6.5,6.5-6.5c3.6,0,6.5,2.9,6.5,6.5C56.5,60.3,53.6,63.2,50,63.2z
				 M50,51c-3.1,0-5.7,2.6-5.7,5.7s2.6,5.7,5.7,5.7s5.7-2.6,5.7-5.7S53.1,51,50,51z" style="fill:#FFFFFF;" />
		</g>
		<g>
			<path class="st1" d="M50,62c-2.9,0-5.3-2.4-5.3-5.3s2.4-5.3,5.3-5.3s5.3,2.4,5.3,5.3S52.9,62,50,62z M50,52.1
				c-2.5,0-4.6,2-4.6,4.6s2,4.6,4.6,4.6c2.5,0,4.6-2,4.6-4.6S52.5,52.1,50,52.1z" style="fill:#FFFFFF;" />
		</g>
		<g>
			<path class="st1" d="M50,60.7c-2.2,0-4-1.8-4-4s1.8-4,4-4s4,1.8,4,4S52.2,60.7,50,60.7z M50,53.4c-1.8,0-3.3,1.5-3.3,3.3
				S48.2,60,50,60c1.8,0,3.3-1.5,3.3-3.3S51.8,53.4,50,53.4z" style="fill:#FFFFFF;" />
		</g>
	</g>
</g>
</svg>
