<?xml version="1.0" encoding="utf-8"?>
<!-- Generator: Adobe Illustrator 21.0.0, SVG Export Plug-In . SVG Version: 6.00 Build 0)  -->
<svg version="1.1" id="макет" xmlns="http://www.w3.org/2000/svg" xmlns:xlink="http://www.w3.org/1999/xlink" x="0px" y="0px"
	 viewBox="0 0 100 100"  xml:space="preserve" style="enable-background:new 0 0 100 100;" >
<style type="text/css">
	.st0{fill:#00AFEE;}
	.st1{fill:#FFFFFF;}
</style>
<g>
	<g>
		<circle class="st0" cx="50" cy="50" r="50" style="fill:#00AFEE;" />
	</g>
	<g>
		<g>
			<g>
				<path class="st1" d="M45.7,72.3c-0.1,0-0.1,0-0.2,0l-15.8-7.8c-0.1-0.1-0.2-0.2-0.2-0.3V47.2h0.8v16.7l15.4,7.6l21.5-10.6
					L66.9,49l0.8,0L68,61.1c0,0.1-0.1,0.3-0.2,0.3L45.9,72.2C45.8,72.3,45.8,72.3,45.7,72.3z" style="fill:#FFFFFF;" />
			</g>
			<g>
				<path class="st1" d="M53.4,56.5C53.4,56.5,53.4,56.5,53.4,56.5l-7.7-0.9c-0.1,0-0.2-0.1-0.3-0.2l-3.2-6.8l-14.4-7.4l2.6,5.8
					c0.1,0.2,0,0.4-0.1,0.5c-0.2,0.1-0.4,0.1-0.5-0.1L23.4,41c-0.1-0.1-0.1-0.2-0.1-0.3c0-0.1,0.1-0.2,0.2-0.3l21.7-10.9
					c0.1-0.1,0.3,0,0.4,0.1l5.8,6.1l4.6-8.9c0.1-0.2,0.3-0.3,0.5-0.2l15.7,7.7c0.1,0,0.2,0.1,0.2,0.2c0,0.1,0,0.2,0,0.3l-4.7,9
					l7.4,1.1c0.2,0,0.3,0.2,0.3,0.3s-0.1,0.3-0.2,0.4L53.6,56.4C53.5,56.5,53.5,56.5,53.4,56.5z M45.9,54.9l7.4,0.9l20.5-10.2
					l-6.7-1c-0.1,0-0.2-0.1-0.3-0.2s-0.1-0.2,0-0.3l4.7-9.2l-15-7.4l-4.6,9.1c-0.1,0.1-0.2,0.2-0.3,0.2c-0.1,0-0.2,0-0.3-0.1l-6-6.3
					l-21,10.5l4.4,4.6l-2.1-4.8c-0.1-0.1,0-0.3,0.1-0.4c0.1-0.1,0.3-0.1,0.4-0.1L42.6,48c0.1,0,0.1,0.1,0.2,0.2L45.9,54.9z" style="fill:#FFFFFF;" />
			</g>
			<g>
				<path class="st1" d="M45.7,55.6c-0.1,0-0.1,0-0.2,0l-15.8-8l0.3-0.7l15.6,7.9l20.7-10.7l-14.8-7.4l-16.2,8.2L35,44.3L51.4,36
					c0.1-0.1,0.2-0.1,0.3,0l15.6,7.8c0.1,0.1,0.2,0.2,0.2,0.3s-0.1,0.3-0.2,0.3L45.9,55.5C45.8,55.6,45.8,55.6,45.7,55.6z" style="fill:#FFFFFF;" />
			</g>
			<g>
				<rect x="45.3" y="55.2" class="st1" width="0.8" height="16.7" style="fill:#FFFFFF;" />
			</g>
		</g>
		<g>
			<g>
				<line class="st1" x1="51" y1="40.4" x2="51" y2="48.7" style="fill:#FFFFFF;" />
				<rect x="49.5" y="40.4" class="st1" width="3" height="8.3" style="fill:#FFFFFF;" />
			</g>
			<g>
				<line class="st1" x1="46.8" y1="44.5" x2="55.2" y2="44.5" style="fill:#FFFFFF;" />
				<rect x="46.8" y="43" class="st1" width="8.4" height="3" style="fill:#FFFFFF;" />
			</g>
		</g>
	</g>
</g>
</svg>
