<?xml version="1.0" encoding="utf-8"?>
<!-- Generator: Adobe Illustrator 18.1.1, SVG Export Plug-In . SVG Version: 6.00 Build 0)  -->
<svg version="1.1" id="макет" xmlns="http://www.w3.org/2000/svg" xmlns:xlink="http://www.w3.org/1999/xlink" x="0px" y="0px"
	 width="100px" height="100px" viewBox="0 0 100 100" enable-background="new 0 0 100 100" xml:space="preserve">
<g>
	<path fill-rule="evenodd" clip-rule="evenodd" fill="#FFFFFF" d="M50,100c27.5,0,50-22.5,50-50c0-27.5-22.5-50-50-50
		C22.5,0,0,22.5,0,50C0,77.5,22.5,100,50,100z"/>
	<g>
		
			<path fill-rule="evenodd" clip-rule="evenodd" fill="none" stroke="#00AFEE" stroke-width="0.75" stroke-linejoin="round" stroke-miterlimit="22.9256" d="
			M47.6,46.2l2.1-1.6c0.5-0.4,1.3-0.3,1.7,0.2l5.5,7.4l3.1,0.5l-2.5,0.9l-1.2,1.9l-2.1,0.6l-1.6,2.2l0.4-3.1l-5.5-7.4
			C46.9,47.3,47.1,46.6,47.6,46.2z"/>
		
			<path fill-rule="evenodd" clip-rule="evenodd" fill="none" stroke="#00AFEE" stroke-width="0.75" stroke-linejoin="round" stroke-miterlimit="22.9256" d="
			M52.2,38.4l5.7-4.3c0.2-0.1,0.5-0.1,0.6,0.1l2.3,3.1c0.1,0.2,0.1,0.5-0.1,0.6L55,42.2c-0.2,0.1-0.5,0.1-0.6-0.1L52.1,39
			C52,38.8,52,38.5,52.2,38.4z"/>
		
			<path fill-rule="evenodd" clip-rule="evenodd" fill="none" stroke="#00AFEE" stroke-width="0.75" stroke-linejoin="round" stroke-miterlimit="22.9256" d="
			M59.6,48.2l5.7-4.3c0.2-0.1,0.2-0.4,0.1-0.6l-2.3-3.1C63,40,62.7,40,62.5,40.2l-5.7,4.3c-0.2,0.1-0.2,0.4-0.1,0.6l2.3,3.1
			C59.2,48.3,59.4,48.4,59.6,48.2z"/>
		
			<path fill-rule="evenodd" clip-rule="evenodd" fill="none" stroke="#00AFEE" stroke-width="0.75" stroke-linejoin="round" stroke-miterlimit="22.9256" d="
			M66.6,27.6l-5.7,4.3c-0.2,0.1-0.2,0.4-0.1,0.6l2.3,3.1c0.1,0.2,0.4,0.2,0.6,0.1l5.7-4.3c0.2-0.1,0.2-0.4,0.1-0.6l-2.3-3.1
			C67.1,27.5,66.8,27.4,66.6,27.6z"/>
		
			<path fill-rule="evenodd" clip-rule="evenodd" fill="none" stroke="#00AFEE" stroke-width="0.75" stroke-linejoin="round" stroke-miterlimit="22.9256" d="
			M74.1,37.4l-5.7,4.3c-0.2,0.1-0.5,0.1-0.6-0.1l-2.3-3.1c-0.1-0.2-0.1-0.5,0.1-0.6l5.7-4.3c0.2-0.1,0.5-0.1,0.6,0.1l2.3,3.1
			C74.3,37,74.3,37.3,74.1,37.4z"/>
		
			<path fill-rule="evenodd" clip-rule="evenodd" fill="none" stroke="#00AFEE" stroke-width="0.75" stroke-linejoin="round" stroke-miterlimit="22.9256" d="
			M40.4,47.2l-5.7,4.3c-0.2,0.1-0.2,0.4-0.1,0.6l2.3,3.1c0.1,0.2,0.4,0.2,0.6,0.1l5.7-4.3c0.2-0.1,0.2-0.4,0.1-0.6L41,47.3
			C40.8,47.1,40.6,47.1,40.4,47.2z"/>
		
			<path fill-rule="evenodd" clip-rule="evenodd" fill="none" stroke="#00AFEE" stroke-width="0.75" stroke-linejoin="round" stroke-miterlimit="22.9256" d="
			M47.8,57l-5.7,4.3c-0.2,0.1-0.5,0.1-0.6-0.1l-2.3-3.1c-0.1-0.2-0.1-0.5,0.1-0.6l5.7-4.3c0.2-0.1,0.5-0.1,0.6,0.1l2.3,3.1
			C48,56.6,48,56.9,47.8,57z"/>
		
			<path fill-rule="evenodd" clip-rule="evenodd" fill="none" stroke="#00AFEE" stroke-width="0.75" stroke-linejoin="round" stroke-miterlimit="22.9256" d="
			M25.9,57.8l5.7-4.3c0.2-0.1,0.5-0.1,0.6,0.1l2.3,3.1c0.1,0.2,0.1,0.5-0.1,0.6l-5.7,4.3c-0.2,0.1-0.5,0.1-0.6-0.1l-2.3-3.1
			C25.7,58.2,25.7,58,25.9,57.8z"/>
		
			<path fill-rule="evenodd" clip-rule="evenodd" fill="none" stroke="#00AFEE" stroke-width="0.75" stroke-linejoin="round" stroke-miterlimit="22.9256" d="
			M33.4,67.7l5.7-4.3c0.2-0.1,0.2-0.4,0.1-0.6l-2.3-3.1c-0.1-0.2-0.4-0.2-0.6-0.1l-5.7,4.3c-0.2,0.1-0.2,0.4-0.1,0.6l2.3,3.1
			C32.9,67.8,33.2,67.8,33.4,67.7z"/>
		
			<path fill-rule="evenodd" clip-rule="evenodd" fill="none" stroke="#00AFEE" stroke-width="0.75" stroke-linecap="round" stroke-miterlimit="22.9256" d="
			M64.9,56.7c-0.7,2.2-2.1,4.1-3.9,5.4c-1.8,1.4-4,2.1-6.3,2.2"/>
		
			<path fill-rule="evenodd" clip-rule="evenodd" fill="none" stroke="#00AFEE" stroke-width="0.75" stroke-linecap="round" stroke-miterlimit="22.9256" d="
			M68.5,58c-0.9,2.9-2.7,5.4-5.1,7.1C61,67,58.1,68,55.1,68.1"/>
		
			<path fill-rule="evenodd" clip-rule="evenodd" fill="none" stroke="#00AFEE" stroke-width="0.75" stroke-linecap="round" stroke-miterlimit="22.9256" d="
			M72.8,59.6c-1.2,3.7-3.5,6.9-6.6,9.2c-3.1,2.3-6.8,3.6-10.7,3.7"/>
	</g>
</g>
</svg>
