<?xml version="1.0" encoding="utf-8"?>
<!-- Generator: Adobe Illustrator 18.1.1, SVG Export Plug-In . SVG Version: 6.00 Build 0)  -->
<svg version="1.1" id="макет" xmlns="http://www.w3.org/2000/svg" xmlns:xlink="http://www.w3.org/1999/xlink" x="0px" y="0px"
	 width="100px" height="100px" viewBox="0 0 100 100" enable-background="new 0 0 100 100" xml:space="preserve">
<g>
	<path fill-rule="evenodd" clip-rule="evenodd" fill="#FFFFFF" d="M50,100c27.5,0,50-22.5,50-50c0-27.5-22.5-50-50-50
		C22.5,0,0,22.5,0,50C0,77.5,22.5,100,50,100z"/>
	<g>
		<path fill-rule="evenodd" clip-rule="evenodd" fill="none" stroke="#00AFEE" stroke-width="0.75" stroke-miterlimit="22.9256" d="
			M14,72.5h56.5c2.3,0,4.3-1.3,5.1-3.4l14.7-35.3c0.6-1.4,0.5-3-0.4-4.3c-0.9-1.3-2.2-2-3.8-2H29.6c-2.3,0-4.3,1.3-5.1,3.4L9.8,66.2
			c-0.6,1.4-0.5,3,0.4,4.3C11,71.8,12.4,72.5,14,72.5z"/>
		<path fill-rule="evenodd" clip-rule="evenodd" fill="#00AFEE" d="M28.9,49.6l6.9-14.1h11.8l-1.2,2.4h-8.6L36.3,41h8l-1.2,2.4h-8
			l-1.9,3.8h8.9L41,49.6H28.9L28.9,49.6z M42.1,49.6H46l5.9-4.8l1.2,4.8h3.9L55,42.2l8.3-6.8h-3.8l-5.2,4.2l-1.1-4.2h-3.8l1.7,6.8
			L42.1,49.6L42.1,49.6z M65.4,35.4h5.9c1.3,0,2.3,0.1,2.9,0.3c0.8,0.2,1.4,0.7,1.8,1.3c0.4,0.6,0.5,1.4,0.4,2.3
			c-0.1,0.9-0.5,2-1.1,3.3c-0.6,1.2-1.2,2.2-2,3c-0.9,1-1.9,1.9-2.9,2.5c-0.8,0.5-1.7,0.9-2.8,1.1c-0.8,0.2-1.8,0.3-3,0.3h-6
			L65.4,35.4L65.4,35.4z M67.5,37.8h1.4c1.3,0,2.2,0,2.6,0.1c0.5,0.1,0.9,0.3,1.2,0.7c0.2,0.3,0.3,0.8,0.2,1.4
			c-0.1,0.6-0.4,1.4-0.9,2.5c-0.5,1.1-1.1,2-1.6,2.6c-0.5,0.6-1,1.1-1.5,1.4c-0.5,0.3-1,0.5-1.6,0.6c-0.4,0.1-1.1,0.1-2,0.1h-2.4
			L67.5,37.8z"/>
		<path fill-rule="evenodd" clip-rule="evenodd" fill="#00AFEE" d="M27.9,62.8l2.6-7.2h1.5l-0.9,4.9l2.7-4.9h1.5l-2.6,7.2h-0.9
			l2.1-5.7l-3.1,5.7h-1l1.1-5.7l-2.1,5.7H27.9L27.9,62.8z M36.3,59.3c0.3-0.7,0.6-1.4,0.9-1.9c0.2-0.4,0.5-0.7,0.8-1
			c0.3-0.3,0.6-0.5,0.9-0.7c0.4-0.2,0.8-0.3,1.2-0.3c0.7,0,1.2,0.3,1.4,1c0.2,0.7,0.1,1.6-0.3,2.8c-0.4,1.2-1,2.1-1.7,2.8
			c-0.7,0.7-1.4,1-2.1,1c-0.7,0-1.2-0.3-1.4-1C35.8,61.3,35.9,60.4,36.3,59.3L36.3,59.3z M37.4,59.2c-0.3,0.8-0.4,1.4-0.3,1.9
			c0.1,0.4,0.4,0.6,0.8,0.6c0.4,0,0.8-0.2,1.2-0.6c0.4-0.4,0.8-1.1,1.1-1.9c0.3-0.8,0.4-1.5,0.3-1.9c-0.1-0.4-0.4-0.6-0.8-0.6
			c-0.4,0-0.8,0.2-1.2,0.6C38,57.7,37.7,58.4,37.4,59.2L37.4,59.2z M44.8,55.6h1.9c0.4,0,0.7,0,0.9,0.1c0.2,0.1,0.4,0.3,0.5,0.7
			c0.1,0.3,0.1,0.7,0.1,1.2c-0.1,0.5-0.2,1-0.5,1.7c-0.2,0.6-0.5,1.1-0.7,1.5c-0.3,0.5-0.6,1-1,1.3c-0.3,0.2-0.6,0.4-0.9,0.6
			c-0.3,0.1-0.6,0.2-1,0.2h-1.9L44.8,55.6L44.8,55.6z M45.3,56.8l-1.7,4.8h0.8c0.3,0,0.5,0,0.6-0.1c0.2-0.1,0.4-0.2,0.5-0.3
			c0.2-0.1,0.3-0.4,0.5-0.7c0.2-0.3,0.4-0.8,0.6-1.3c0.2-0.6,0.3-1,0.4-1.3c0-0.3,0-0.5,0-0.7c-0.1-0.2-0.2-0.3-0.3-0.3
			c-0.1,0-0.4-0.1-0.8-0.1H45.3L45.3,56.8z M51.3,55.6h1l-1.4,3.9c-0.2,0.6-0.4,1-0.4,1.2c-0.1,0.3,0,0.5,0,0.7
			c0.1,0.2,0.3,0.3,0.6,0.3c0.3,0,0.5-0.1,0.7-0.3c0.2-0.2,0.4-0.4,0.5-0.6c0.1-0.2,0.3-0.7,0.5-1.2l1.5-4h1l-1.4,3.8
			c-0.3,0.9-0.6,1.5-0.8,1.8c-0.2,0.4-0.4,0.7-0.6,0.9c-0.2,0.2-0.5,0.4-0.8,0.6c-0.3,0.1-0.6,0.2-1,0.2c-0.5,0-0.8-0.1-1-0.2
			c-0.2-0.2-0.3-0.4-0.4-0.6c-0.1-0.3,0-0.5,0-0.8c0.1-0.4,0.3-1,0.6-1.8L51.3,55.6L51.3,55.6z M55.2,62.8h3.5l0.4-1.2h-2.5l2.2-6
			h-1L55.2,62.8L55.2,62.8z M60.9,62.8l2.6-7.2h3.7l-0.4,1.2h-2.7l-0.6,1.6H66l-0.4,1.2h-2.5l-0.7,2h2.8l-0.4,1.2H60.9z"/>
	</g>
</g>
</svg>
