<?xml version="1.0" encoding="utf-8"?>
<!-- Generator: Adobe Illustrator 18.1.1, SVG Export Plug-In . SVG Version: 6.00 Build 0)  -->
<svg version="1.1" id="макет" xmlns="http://www.w3.org/2000/svg" xmlns:xlink="http://www.w3.org/1999/xlink" x="0px" y="0px"
	 width="100px" height="100px" viewBox="0 0 100 100" enable-background="new 0 0 100 100" xml:space="preserve">
<g>
	<path fill-rule="evenodd" clip-rule="evenodd" fill="#FFFFFF" d="M50,100c27.5,0,50-22.5,50-50c0-27.5-22.5-50-50-50
		C22.5,0,0,22.5,0,50C0,77.5,22.5,100,50,100z"/>
	<g>
		<path fill-rule="evenodd" clip-rule="evenodd" fill="#00AFEE" d="M23.5,67.6l1.3-0.1c0.1,0.4,0.2,0.8,0.5,1c0.2,0.2,0.6,0.3,1,0.3
			c0.4,0,0.8-0.1,1-0.3c0.2-0.2,0.3-0.4,0.3-0.6c0-0.2,0-0.3-0.1-0.4c-0.1-0.1-0.3-0.2-0.5-0.3c-0.2-0.1-0.5-0.2-1.1-0.3
			c-0.7-0.2-1.2-0.4-1.5-0.7c-0.4-0.4-0.6-0.8-0.6-1.3c0-0.3,0.1-0.7,0.3-0.9c0.2-0.3,0.5-0.5,0.8-0.7c0.4-0.2,0.8-0.2,1.3-0.2
			c0.8,0,1.5,0.2,1.9,0.6c0.4,0.4,0.6,0.9,0.7,1.5l-1.3,0c-0.1-0.3-0.2-0.6-0.4-0.7c-0.2-0.1-0.5-0.2-0.8-0.2
			c-0.4,0-0.7,0.1-0.9,0.2c-0.1,0.1-0.2,0.2-0.2,0.4c0,0.2,0.1,0.3,0.2,0.4c0.2,0.1,0.6,0.3,1.2,0.4c0.6,0.2,1.1,0.3,1.4,0.5
			c0.3,0.2,0.6,0.4,0.7,0.7c0.2,0.3,0.3,0.6,0.3,1.1c0,0.4-0.1,0.7-0.3,1.1c-0.2,0.3-0.5,0.6-0.9,0.7c-0.4,0.2-0.9,0.2-1.4,0.2
			c-0.8,0-1.5-0.2-1.9-0.6C23.9,68.9,23.6,68.4,23.5,67.6L23.5,67.6z M30,69.8v-6.6h1.3v6.6H30L30,69.8z M35.7,67.4v-1.1h2.9v2.6
			c-0.3,0.3-0.7,0.5-1.2,0.7c-0.5,0.2-1.1,0.3-1.6,0.3c-0.7,0-1.3-0.1-1.8-0.4c-0.5-0.3-0.9-0.7-1.2-1.2c-0.3-0.5-0.4-1.1-0.4-1.8
			c0-0.7,0.1-1.3,0.4-1.8c0.3-0.5,0.7-0.9,1.3-1.2c0.4-0.2,1-0.3,1.6-0.3c0.8,0,1.5,0.2,1.9,0.5c0.5,0.3,0.8,0.8,0.9,1.4l-1.3,0.2
			c-0.1-0.3-0.3-0.6-0.5-0.8c-0.3-0.2-0.6-0.3-1-0.3c-0.6,0-1,0.2-1.4,0.6c-0.3,0.4-0.5,0.9-0.5,1.6c0,0.8,0.2,1.4,0.5,1.8
			c0.3,0.4,0.8,0.6,1.4,0.6c0.3,0,0.6-0.1,0.8-0.2c0.3-0.1,0.5-0.2,0.7-0.4v-0.8H35.7L35.7,67.4z M39.8,69.8v-6.6h1.3l2.7,4.4v-4.4
			h1.2v6.6h-1.3L41,65.4v4.3H39.8L39.8,69.8z M52.4,69.8H51l-0.6-1.5h-2.7l-0.5,1.5h-1.4l2.6-6.6h1.4L52.4,69.8L52.4,69.8z M50,67.2
			l-0.9-2.4l-0.9,2.4H50L50,67.2z M53.9,69.8h1.3v-5.5h1.9v-1.1H52v1.1h2V69.8L53.9,69.8z M58.1,63.2h1.3v3.6c0,0.6,0,0.9,0,1.1
			c0.1,0.3,0.2,0.5,0.4,0.7c0.2,0.2,0.5,0.2,0.9,0.2c0.4,0,0.7-0.1,0.8-0.2c0.2-0.2,0.3-0.3,0.3-0.6c0-0.2,0.1-0.6,0.1-1.1v-3.7h1.3
			v3.5c0,0.8,0,1.4-0.1,1.7c-0.1,0.3-0.2,0.6-0.4,0.8c-0.2,0.2-0.5,0.4-0.8,0.5c-0.3,0.1-0.7,0.2-1.3,0.2c-0.6,0-1.1-0.1-1.4-0.2
			c-0.3-0.1-0.6-0.3-0.8-0.6c-0.2-0.2-0.3-0.5-0.4-0.7c-0.1-0.4-0.1-0.9-0.1-1.7V63.2L58.1,63.2z M64.8,69.8v-6.6h2.8
			c0.7,0,1.2,0.1,1.5,0.2c0.3,0.1,0.6,0.3,0.8,0.6c0.2,0.3,0.3,0.7,0.3,1c0,0.5-0.1,0.9-0.4,1.2c-0.3,0.3-0.7,0.5-1.3,0.6
			c0.3,0.2,0.5,0.4,0.7,0.6c0.2,0.2,0.4,0.6,0.8,1.1l0.8,1.3h-1.6l-1-1.4c-0.3-0.5-0.6-0.8-0.7-1c-0.1-0.1-0.3-0.2-0.4-0.3
			c-0.1,0-0.4-0.1-0.7-0.1h-0.3v2.8H64.8L64.8,69.8z M66.1,66h1c0.6,0,1,0,1.2-0.1c0.2-0.1,0.3-0.1,0.4-0.3c0.1-0.1,0.1-0.3,0.1-0.5
			c0-0.2-0.1-0.4-0.2-0.5c-0.1-0.1-0.3-0.2-0.5-0.3c-0.1,0-0.4,0-1,0h-1V66L66.1,66z M71.4,69.8v-6.6h4.9v1.1h-3.6v1.5h3.3v1.1h-3.3
			v1.8h3.7v1.1H71.4z"/>
		
			<path fill-rule="evenodd" clip-rule="evenodd" fill="none" stroke="#00AFEE" stroke-width="0.75" stroke-linejoin="round" stroke-miterlimit="22.9256" d="
			M30.7,57.9H58c1.3,0,2.4-0.7,2.9-1.9l1.4-3.2H39.4l13.3-18.8H36.1l-8.3,19.6c-0.4,1-0.3,2.1,0.3,3C28.7,57.4,29.6,57.9,30.7,57.9
			L30.7,57.9z M64,48.6l8.2-19.3c0.4-1,0.3-2.1-0.3-3c-0.6-0.9-1.5-1.4-2.6-1.4H42c-1.3,0-2.4,0.7-2.9,1.9l-1.2,2.8h23.2l-13,19H64z
			"/>
	</g>
</g>
</svg>
