<?xml version="1.0" encoding="utf-8"?>
<!-- Generator: Adobe Illustrator 18.1.1, SVG Export Plug-In . SVG Version: 6.00 Build 0)  -->
<svg version="1.1" id="макет" xmlns="http://www.w3.org/2000/svg" xmlns:xlink="http://www.w3.org/1999/xlink" x="0px" y="0px"
	 width="100px" height="100px" viewBox="0 0 100 100" enable-background="new 0 0 100 100" xml:space="preserve">
<g>
	<circle fill-rule="evenodd" clip-rule="evenodd" fill="#FFFFFF" cx="50" cy="50" r="50"/>
	<g>
		
			<path fill-rule="evenodd" clip-rule="evenodd" fill="none" stroke="#00AFEE" stroke-width="0.7498" stroke-miterlimit="22.9256" d="
			M16.7,27.7h66.5c1.1,0,2,0.9,2,2v40.6c0,1.1-0.9,2-2,2H16.7c-1.1,0-2-0.9-2-2V29.7C14.8,28.6,15.6,27.7,16.7,27.7z"/>
		
			<path fill-rule="evenodd" clip-rule="evenodd" fill="none" stroke="#00AFEE" stroke-width="0.7498" stroke-miterlimit="22.9256" d="
			M20.5,33.3h58.9c0.5,0,0.9,0.4,0.9,0.9v31c0,0.5-0.4,0.9-0.9,0.9H20.5c-0.5,0-0.9-0.4-0.9-0.9v-31C19.6,33.7,20,33.3,20.5,33.3z"
			/>
		<g>
			
				<line fill-rule="evenodd" clip-rule="evenodd" fill="none" stroke="#00AFEE" stroke-width="1.4998" stroke-miterlimit="22.9256" stroke-dasharray="7.4991,1.4998" x1="25.3" y1="57.9" x2="76.1" y2="57.9"/>
			<path fill-rule="evenodd" clip-rule="evenodd" fill="#00AFEE" d="M37.9,42l-1-0.8l-1,0.8l-0.1,4.6l1,0.8l1-0.8L37.9,42L37.9,42z
				 M29.5,42l-1-0.8l-1,0.8l-0.1,4.6l1,0.8l1-0.8L29.5,42L29.5,42z M37.8,48.1l-0.1,4.7l-1,0.7l-1-0.7l0.1-4.7l1-0.8L37.8,48.1
				L37.8,48.1z M29.4,48.1l-0.1,4.7l-1,0.7l-1-0.7l0.1-4.7l1-0.8L29.4,48.1L29.4,48.1z M29.6,53l-1,0.8l1,0.8h5.8l1-0.8l-1-0.8H29.6
				L29.6,53z M29.8,40.2h5.8l1,0.8l-1,0.8h-5.8l-1-0.8L29.8,40.2L29.8,40.2z M39.6,48.1l-0.1,6.2l2-1.5l0.1-4.6l-1-0.8L39.6,48.1
				L39.6,48.1z M39.7,40.9l1-0.8l1,0.8l-0.1,5.7l-1,0.8l-1-0.8L39.7,40.9L39.7,40.9z M48,53l1,0.8l-1,0.8h-8.1l2-1.5H48L48,53z
				 M53.3,46.6l-1,0.8l1,0.8h6.1l1-0.8l-1-0.8H53.3L53.3,46.6z M53.2,53l-2,1.5h8.1l1-0.8l-1-0.8H53.2L53.2,53z M59.4,40.2h-8.1
				l2,1.5h6.1l1-0.8L59.4,40.2L59.4,40.2z M53,42l-0.1,4.4l-1,0.8l-1-0.8l0.1-5.9L53,42L53,42z M50.9,48.4l1-0.8l1,0.8l-0.1,4.4
				l-2,1.6L50.9,48.4L50.9,48.4z M62.1,48.1l-0.1,6.2l2-1.5l0.1-4.6l-1-0.8L62.1,48.1L62.1,48.1z M64.3,42l-0.1,4.6l-1,0.8l-1-0.8
				l0.1-6.2L64.3,42L64.3,42z M70.4,40.2h-7.8l2,1.5h5.7l1-0.8L70.4,40.2L70.4,40.2z M64.4,53h5.7l1,0.8l-1,0.8h-7.8L64.4,53
				L64.4,53z M70.6,48.1l-0.1,4.6l1,0.8l1-0.8l0.1-4.6l-1-0.8L70.6,48.1L70.6,48.1z M70.7,42l1-0.8l1,0.8l-0.1,4.6l-1,0.8l-1-0.8
				L70.7,42z"/>
		</g>
	</g>
</g>
</svg>
