<?xml version="1.0" encoding="utf-8"?>
<!-- Generator: Adobe Illustrator 18.1.1, SVG Export Plug-In . SVG Version: 6.00 Build 0)  -->
<svg version="1.1" id="макет" xmlns="http://www.w3.org/2000/svg" xmlns:xlink="http://www.w3.org/1999/xlink" x="0px" y="0px"
	 width="100px" height="100px" viewBox="0 0 100 100" enable-background="new 0 0 100 100" xml:space="preserve">
<g>
	<path fill-rule="evenodd" clip-rule="evenodd" fill="#FFFFFF" d="M50,100c27.5,0,50-22.5,50-50c0-27.5-22.5-50-50-50
		C22.5,0,0,22.5,0,50C0,77.5,22.5,100,50,100z"/>
	<g>
		
			<polygon fill-rule="evenodd" clip-rule="evenodd" fill="none" stroke="#00AFEE" stroke-width="0.75" stroke-linejoin="round" stroke-miterlimit="22.9256" points="
			80.5,65.6 39.2,71.7 15.8,65.4 11.9,57 11.9,37.5 41.6,31.1 89,34.3 89,43 82.3,48.6 82.3,57.5 80.5,61.3 		"/>
		
			<polyline fill-rule="evenodd" clip-rule="evenodd" fill="none" stroke="#00AFEE" stroke-width="0.75" stroke-linejoin="round" stroke-miterlimit="22.9256" points="
			13.8,61.2 21.9,62.9 24.3,61.3 33.8,64.2 35.9,61.6 35.9,48.9 41.6,42 41.6,31.1 		"/>
		
			<line fill-rule="evenodd" clip-rule="evenodd" fill="none" stroke="#00AFEE" stroke-width="0.75" stroke-linejoin="round" stroke-miterlimit="22.9256" x1="39.2" y1="71.7" x2="39.2" y2="45"/>
		
			<polyline fill-rule="evenodd" clip-rule="evenodd" fill="none" stroke="#00AFEE" stroke-width="0.75" stroke-linejoin="round" stroke-miterlimit="22.9256" points="
			42,37.8 80.2,38.8 80.5,61.3 		"/>
		
			<polygon fill-rule="evenodd" clip-rule="evenodd" fill="none" stroke="#00AFEE" stroke-width="0.75" stroke-linejoin="round" stroke-miterlimit="22.9256" points="
			44.2,44.4 57.6,44.3 57.6,63.7 44.2,65.8 		"/>
		
			<polyline fill-rule="evenodd" clip-rule="evenodd" fill="none" stroke="#00AFEE" stroke-width="0.75" stroke-linejoin="round" stroke-miterlimit="22.9256" points="
			80.5,61.9 65.7,63.5 63.1,63.9 63.2,42.2 65.8,42.2 80.3,42.1 		"/>
		
			<path fill-rule="evenodd" clip-rule="evenodd" fill="none" stroke="#00AFEE" stroke-width="0.75" stroke-linejoin="round" stroke-miterlimit="22.9256" d="
			M38.5,72.7c-1.2,0.2-2,0.6-2,1.2c-0.1,0.9,1.4,1.9,3.3,2.1c2,0.2,3.6-0.3,3.7-1.2c0.1-0.7-0.9-1.5-2.4-1.9"/>
		
			<path fill-rule="evenodd" clip-rule="evenodd" fill="none" stroke="#00AFEE" stroke-width="0.75" stroke-linejoin="round" stroke-miterlimit="22.9256" d="
			M74.8,67.4c-1,0.1-1.6,0.5-1.7,1c-0.1,0.8,1.2,1.6,2.8,1.8c1.7,0.2,3.1-0.3,3.2-1.1c0.1-0.5-0.5-1.1-1.6-1.5"/>
		
			<path fill-rule="evenodd" clip-rule="evenodd" fill="none" stroke="#00AFEE" stroke-width="0.75" stroke-linejoin="round" stroke-miterlimit="22.9256" d="
			M41.2,74.1c0,0.1,0,0.1,0,0.2c0,0.3-0.7,0.6-1.4,0.5c-0.6-0.1-1.1-0.3-1.3-0.6l0-2.6l0.7,0.2l2-0.3L41.2,74.1z"/>
		
			<path fill-rule="evenodd" clip-rule="evenodd" fill="none" stroke="#00AFEE" stroke-width="0.75" stroke-linejoin="round" stroke-miterlimit="22.9256" d="
			M74.9,68.8c0.1,0.3,0.6,0.6,1.3,0.6c0.7,0.1,1.4-0.1,1.4-0.5c0-0.1,0-0.1,0-0.2l0-2.7l-2.7,0.4L74.9,68.8z"/>
	</g>
</g>
</svg>
