<?xml version="1.0" encoding="utf-8"?>
<!-- Generator: Adobe Illustrator 18.1.1, SVG Export Plug-In . SVG Version: 6.00 Build 0)  -->
<svg version="1.1" id="макет" xmlns="http://www.w3.org/2000/svg" xmlns:xlink="http://www.w3.org/1999/xlink" x="0px" y="0px"
	 width="100px" height="100px" viewBox="0 0 100 100" enable-background="new 0 0 100 100" xml:space="preserve">
<g>
	<circle fill-rule="evenodd" clip-rule="evenodd" fill="#FFFFFF" cx="50" cy="50" r="50"/>
	<g>
		<g>
			
				<path fill-rule="evenodd" clip-rule="evenodd" fill="#00AFEE" stroke="#FFFFFF" stroke-width="0.9998" stroke-miterlimit="22.9256" d="
				M72.6,57.3c-2.3-0.2-5,0.9-7,3.1c-3.1,3.4-3.6,8.2-1,10.6c1.9,1.8,5,1.9,7.8,0.4L72.6,57.3z"/>
			
				<path fill-rule="evenodd" clip-rule="evenodd" fill="#00AFEE" stroke="#FFFFFF" stroke-width="0.9998" stroke-miterlimit="22.9256" d="
				M72.6,58.5c-1.7-0.1-3.6,0.8-5,2.5c-2.3,2.8-2.7,6.8-0.7,8.9c1.4,1.5,3.6,1.6,5.6,0.5L72.6,58.5z"/>
		</g>
		
			<path fill-rule="evenodd" clip-rule="evenodd" fill="#00AFEE" stroke="#FFFFFF" stroke-width="0.9998" stroke-miterlimit="22.9256" d="
			M56.6,27.5c-3,2.5-6,5-8.9,7.1c-2.9,2.1-5.8,3.8-8.5,5.6c-2.7,1.8-5.3,3.6-7.2,5.4c-1.9,1.9-3.1,3.8-3.8,5.5
			c-0.7,1.7-1.1,3.2-0.9,4.4c0.1,1.2,0.7,2.1,1.2,3c0,1.5,0,2.9,0,4.4c2.7,2.3,5.3,4.6,8,6.2c2.7,1.6,5.3,2.4,8.5,2.7
			c3.2,0.4,6.9,0.3,9.8,0c2.9-0.3,4.9-0.7,7-1.1c0.1-1.3,0.2-2.7,0.8-4.4c0.5-1.7,1.5-3.7,2.7-5.2c1.2-1.5,2.7-2.6,4-3.3
			c1.3-0.7,2.4-1,3.5-1.3c-0.1-9.6-0.2-19.3-0.3-28.9C67.2,27.5,61.9,27.5,56.6,27.5z"/>
		
			<path fill-rule="evenodd" clip-rule="evenodd" fill="#FFFFFF" stroke="#00AFEE" stroke-width="0.7498" stroke-miterlimit="22.9256" d="
			M49.5,34.3c1.4,1.6,2.2,2.5,4.2,4c2.1,1.5,4.9,2.8,7.7,3.9c2.8,1.1,5.5,1.9,7.4,2.3c1.6,0.3,2.2,0.4,3.1,0.4l-0.1-17.4H57.5
			C54.9,29.6,52,32.4,49.5,34.3z"/>
		<g>
			
				<path fill-rule="evenodd" clip-rule="evenodd" fill="none" stroke="#FFFFFF" stroke-width="0.7498" stroke-miterlimit="22.9256" d="
				M60.4,70.9c0-2.2-0.1-4.4,0.4-6.5c0.5-2.1,1.5-4.2,3-5.9c1.5-1.7,3.5-3,5.1-3.8c1.6-0.8,2.8-1.2,3.9-1.5"/>
			
				<path fill-rule="evenodd" clip-rule="evenodd" fill="none" stroke="#FFFFFF" stroke-width="0.7498" stroke-miterlimit="22.9256" d="
				M29.8,48.1c-0.3,1.1-0.6,2.3-0.8,3.7c-0.2,1.4-0.3,3.1-0.4,4.3c-0.1,1.2-0.1,1.7-0.1,2.3"/>
			
				<path fill-rule="evenodd" clip-rule="evenodd" fill="none" stroke="#FFFFFF" stroke-width="0.7498" stroke-miterlimit="22.9256" d="
				M40.1,70.7c0-1.2,0-2.4,0.1-3.5c0.1-1.1,0.4-2,0.7-3c0.7-1.2,1.4-2.3,2.3-3.3c0.9-1,1.9-1.8,3-2.6"/>
		</g>
		<path fill-rule="evenodd" clip-rule="evenodd" fill="#FFFFFF" d="M47.4,58.6c-1.2,1.4-2.4,2.7-3.6,4.1c0.9,0.3,1.7,0.6,3.5,0.7
			c1.8,0.1,4.5,0.1,6.4-0.1c1.9-0.2,3.1-0.4,3.8-0.9c0.7-0.4,1-1,1.1-1.6c0.1-0.6,0.1-1.2-0.2-1.6c-0.3-0.4-0.8-0.6-1.3-0.7
			c-0.6-0.1-1.2-0.1-1.8-0.1c-1.7,0.3-3.4,0.6-5.7,0.5C48.9,58.8,48.2,58.7,47.4,58.6z"/>
		<g>
			
				<path fill-rule="evenodd" clip-rule="evenodd" fill="none" stroke="#FFFFFF" stroke-width="0.7498" stroke-miterlimit="22.9256" d="
				M28.6,56.6c1.9,1.6,3.7,3.2,5.7,4.6c2,1.4,4.2,2.5,6.4,3.6"/>
			
				<path fill-rule="evenodd" clip-rule="evenodd" fill="none" stroke="#FFFFFF" stroke-width="0.7498" stroke-miterlimit="22.9256" d="
				M29.7,48.5c4.7,5.5,10.2,8.9,16.4,10c3.6,0.6,6.8,0.5,9.6-0.4c6-3.7,11.7-6.8,17.1-9.4"/>
			
				<path fill-rule="evenodd" clip-rule="evenodd" fill="none" stroke="#FFFFFF" stroke-width="0.7498" stroke-miterlimit="22.9256" d="
				M29.2,50.9c4.3,4.5,9.4,7.5,15.2,9"/>
			
				<path fill-rule="evenodd" clip-rule="evenodd" fill="none" stroke="#FFFFFF" stroke-width="0.7498" stroke-miterlimit="22.9256" d="
				M28.9,53.4c5.4,4.4,10,7.2,13.9,8.2"/>
			
				<path fill-rule="evenodd" clip-rule="evenodd" fill="none" stroke="#FFFFFF" stroke-width="0.7498" stroke-miterlimit="22.9256" d="
				M28.7,54.9c5.1,4.1,9.4,6.8,13,8"/>
			
				<polygon fill-rule="evenodd" clip-rule="evenodd" fill="none" stroke="#FFFFFF" stroke-width="0.7498" stroke-linejoin="round" stroke-miterlimit="22.9256" stroke-dasharray="1.4995,0.7498" points="
				35.1,48.2 45.7,55.8 48.8,52 38.2,44.3 			"/>
		</g>
	</g>
</g>
</svg>
