<?xml version="1.0" encoding="utf-8"?>
<!-- Generator: Adobe Illustrator 18.1.1, SVG Export Plug-In . SVG Version: 6.00 Build 0)  -->
<svg version="1.1" id="макет" xmlns="http://www.w3.org/2000/svg" xmlns:xlink="http://www.w3.org/1999/xlink" x="0px" y="0px"
	 width="100px" height="100px" viewBox="0 0 100 100" enable-background="new 0 0 100 100" xml:space="preserve">
<g>
	<path fill-rule="evenodd" clip-rule="evenodd" fill="#FFFFFF" d="M50,100c27.5,0,50-22.5,50-50c0-27.5-22.5-50-50-50
		C22.5,0,0,22.5,0,50C0,77.5,22.5,100,50,100z"/>
	<g>
		
			<path fill-rule="evenodd" clip-rule="evenodd" fill="none" stroke="#00AFEE" stroke-width="0.7498" stroke-miterlimit="22.9256" d="
			M38.4,57.3c-0.4,0.3-1,0.2-1.2-0.2s-0.2-1,0.2-1.2c1.9-1.4,4-2.5,6.1-3.2c2.1-0.7,4.4-1.1,6.6-1.1c2.2,0,4.5,0.4,6.6,1.1
			c2.1,0.7,4.2,1.8,6.1,3.2c0.4,0.3,0.5,0.8,0.2,1.2s-0.8,0.5-1.2,0.2C59.9,56,58,55,56,54.4c-2-0.7-4-1-6-1c-2.1,0-4.1,0.3-6,1
			C42,55,40.1,56,38.4,57.3z"/>
		
			<path fill-rule="evenodd" clip-rule="evenodd" fill="none" stroke="#00AFEE" stroke-width="0.7498" stroke-miterlimit="22.9256" d="
			M70.9,46.3c0.4,0.3,0.5,0.9,0.2,1.2c-0.3,0.4-0.9,0.5-1.2,0.2c-2.9-2.2-6.1-3.8-9.4-5C57.1,41.6,53.6,41,50,41
			c-3.6,0-7.1,0.6-10.4,1.7c-3.3,1.1-6.5,2.8-9.4,5c-0.4,0.3-1,0.2-1.2-0.2c-0.3-0.4-0.2-1,0.2-1.2c3.1-2.3,6.4-4.1,9.9-5.2
			c3.5-1.2,7.2-1.8,11-1.8c3.7,0,7.4,0.6,11,1.8C64.5,42.2,67.8,44,70.9,46.3z"/>
		
			<path fill-rule="evenodd" clip-rule="evenodd" fill="none" stroke="#00AFEE" stroke-width="0.7498" stroke-miterlimit="22.9256" d="
			M78.4,36.5c0.4,0.3,0.5,0.8,0.2,1.2c-0.3,0.4-0.8,0.5-1.2,0.2c-4-2.8-8.4-5-13-6.4c-4.6-1.5-9.5-2.2-14.3-2.2
			c-4.9,0-9.7,0.8-14.3,2.2c-4.6,1.5-9,3.6-13,6.4c-0.4,0.3-1,0.2-1.2-0.2c-0.3-0.4-0.2-1,0.2-1.2c4.2-2.9,8.7-5.2,13.5-6.7
			c4.8-1.5,9.8-2.3,14.9-2.3c5.1,0,10.1,0.8,14.9,2.3C69.7,31.3,74.2,33.6,78.4,36.5z"/>
		
			<path fill-rule="evenodd" clip-rule="evenodd" fill="none" stroke="#00AFEE" stroke-width="0.7498" stroke-miterlimit="22.9256" d="
			M50,70.7c0.8,0,1.5-0.3,2-0.8c0.5-0.5,0.8-1.2,0.8-2c0-0.8-0.3-1.5-0.8-2c-0.5-0.5-1.2-0.8-2-0.8c-0.8,0-1.5,0.3-2,0.8l0,0
			c-0.5,0.5-0.8,1.2-0.8,2c0,0.8,0.3,1.5,0.8,2C48.5,70.4,49.2,70.7,50,70.7L50,70.7z M53.3,71.1c-0.8,0.8-2,1.4-3.3,1.4
			c-1.3,0-2.4-0.5-3.3-1.4c-0.8-0.8-1.4-2-1.4-3.3c0-1.3,0.5-2.4,1.4-3.3l0,0c0.8-0.8,2-1.4,3.3-1.4c1.3,0,2.4,0.5,3.3,1.4v0
			c0.8,0.8,1.4,2,1.4,3.3C54.6,69.1,54.1,70.3,53.3,71.1z"/>
	</g>
</g>
</svg>
