<svg xmlns="http://www.w3.org/2000/svg" width="25" height="24" viewBox="0 0 25 24">
    <path fill="#2F3137" d="M21.406 14.577V7.21L6.893 4.59v-.906c0-.984-.801-1.785-1.785-1.785H3.264v1.21h1.844c.317 0 .575.258.575.575v11.167c0 1.29 1.05 2.338 2.338 2.338h.484v1.379c-.247-.109-.52-.17-.806-.17-1.112 0-2.016.905-2.016 2.016 0 1.112.904 2.016 2.016 2.016 1.043 0 1.904-.797 2.006-1.814h.01v-3.427h10.481v1.379c-.247-.109-.52-.17-.806-.17-1.111 0-2.016.905-2.016 2.016 0 1.112.905 2.016 2.016 2.016 1.044 0 1.904-.797 2.006-1.814h.01V15.98H8.02c-.622 0-1.128-.506-1.128-1.129v-.475l14.513.201zM7.699 21.221c-.445 0-.806-.362-.806-.807 0-.444.361-.806.806-.806.445 0 .806.362.806.806 0 .445-.361.807-.806.807zm11.691 0c-.444 0-.806-.362-.806-.807 0-.444.362-.806.806-.806.445 0 .806.362.806.806 0 .445-.361.807-.806.807zm-6.45-7.97l-2.419-.034V6.474l2.419.437v6.34zm1.21-6.122l2.217.4v5.769l-2.218-.031V7.129zm-4.838 6.07l-2.42-.033V5.82l2.42.436V13.2zm10.884.152l-2.62-.036V7.748l2.62.473v5.13z"/>
</svg>
