<svg width="28" height="20" viewBox="0 0 28 20" fill="none" xmlns="http://www.w3.org/2000/svg">
<circle cx="8.2738" cy="5" r="5" fill="#262F56"/>
<circle cx="22.5" cy="7.5" r="2.5" fill="#262F56"/>
<path fill-rule="evenodd" clip-rule="evenodd" d="M16.2235 16.0755C16.8739 16.9264 16.4989 18.1185 15.5128 18.5363C13.2882 19.4788 10.8419 20 8.2738 20C5.7057 20 3.25936 19.4788 1.03479 18.5363C0.048647 18.1185 -0.326305 16.9264 0.324095 16.0755C2.15137 13.685 5.03249 12.1429 8.27378 12.1429C11.5151 12.1429 14.3962 13.685 16.2235 16.0755Z" fill="#262F56"/>
<path fill-rule="evenodd" clip-rule="evenodd" d="M17.9611 16.0952C17.0955 15.7288 16.7139 14.7063 17.2406 13.9278C18.3191 12.3336 20.144 11.2857 22.2137 11.2857C24.3662 11.2857 26.2539 12.4192 27.3127 14.1218C27.8088 14.9198 27.3882 15.9267 26.5093 16.2593C25.2443 16.738 23.8727 17 22.4399 17C20.8511 17 19.3376 16.6778 17.9611 16.0952Z" fill="#262F56"/>
</svg>
