<svg width="18" height="18" viewBox="0 0 18 18" fill="none" xmlns="http://www.w3.org/2000/svg">
<path d="M12.9002 12.4866L12.3141 13.3657C12.1972 13.5411 12.0425 13.6908 11.8386 13.7447C11.1708 13.9212 9.39778 14.0009 6.69846 11.3016C3.99915 8.60225 4.07882 6.82925 4.25528 6.16142C4.30916 5.95754 4.45887 5.80283 4.63434 5.68586L5.5134 5.09982C6.16788 4.6635 6.34473 3.77923 5.90841 3.12475L4.24816 0.634367C3.86732 0.0631067 3.13313 -0.155146 2.50208 0.115308L1.75313 0.436284C1.18419 0.680117 0.720084 1.11772 0.443262 1.67137C0.211987 2.13392 0.0327318 2.62101 0.00844457 3.13759C-0.0680942 4.76552 0.28887 8.77627 4.75631 13.2437C9.22375 17.7112 13.2345 18.0681 14.8624 17.9916C15.379 17.9673 15.8661 17.788 16.3286 17.5567C16.8823 17.2799 17.3199 16.8158 17.5637 16.2469L17.8847 15.4979C18.1551 14.8669 17.9369 14.1327 17.3656 13.7518L14.8753 12.0916C14.2208 11.6553 13.3365 11.8321 12.9002 12.4866Z" fill="#262F56"/>
</svg>
