<svg width="31" height="48" viewBox="0 0 31 48" fill="none" xmlns="http://www.w3.org/2000/svg">
<path d="M15.5 0C6.9533 0 0 6.729 0 15C0 18.342 1.1036 21.498 3.193 24.129C5.6792 27.264 6.2 30.945 6.2 33.483V36H24.8V33.483C24.8 30.945 25.3208 27.261 27.8101 24.129C29.8995 21.501 31 18.342 31 15C31 6.729 24.0467 0 15.5 0ZM15.5 16.5C18.9193 16.5 21.7 18.855 21.7 21.75C21.7 24.189 19.716 26.226 17.05 26.814V28.5C17.05 29.328 16.3556 30 15.5 30C14.6444 30 13.95 29.328 13.95 28.5V26.814C11.284 26.226 9.3 24.189 9.3 21.75C9.3 20.922 9.9944 20.25 10.85 20.25C11.7056 20.25 12.4 20.922 12.4 21.75C12.4 22.971 13.8198 24 15.5 24C17.1802 24 18.6 22.971 18.6 21.75C18.6 20.529 17.1802 19.5 15.5 19.5C12.0807 19.5 9.3 17.145 9.3 14.25C9.3 11.811 11.284 9.774 13.95 9.186V7.5C13.95 6.672 14.6444 6 15.5 6C16.3556 6 17.05 6.672 17.05 7.5V9.186C19.716 9.774 21.7 11.811 21.7 14.25C21.7 15.078 21.0056 15.75 20.15 15.75C19.2944 15.75 18.6 15.078 18.6 14.25C18.6 13.029 17.1802 12 15.5 12C13.8198 12 12.4 13.029 12.4 14.25C12.4 15.471 13.8198 16.5 15.5 16.5Z" fill="white"/>
<path d="M0 0V3C0 6.309 2.7807 9 6.2 9H12.4C15.8193 9 18.6 6.309 18.6 3V0H0Z" transform="translate(6.19995 39)" fill="white"/>
</svg>
