<svg width="47" height="48" viewBox="0 0 47 48" fill="none" xmlns="http://www.w3.org/2000/svg">
<path d="M13.2188 0C5.93081 0 0 6.057 0 13.5C0 20.943 5.93081 27 13.2188 27C20.5067 27 26.4375 20.943 26.4375 13.5C26.4375 6.057 20.5067 0 13.2188 0ZM18.6649 19.062C18.377 19.353 18.001 19.5 17.625 19.5C17.249 19.5 16.873 19.353 16.5851 19.062L12.1789 14.562C11.9057 14.28 11.75 13.899 11.75 13.5V7.5C11.75 6.672 12.408 6 13.2188 6C14.0295 6 14.6875 6.672 14.6875 7.5V12.879L18.6649 16.941C19.2377 17.526 19.2377 18.474 18.6649 19.062Z" transform="translate(20.5625 21)" fill="white"/>
<path d="M9.91406 4.191C9.80538 4.065 9.71725 3.921 9.59975 3.801L5.875 -7.78198e-07L2.15025 3.804C0.76375 5.217 0 7.098 0 9.105V11.637H8.88594C8.84188 11.142 8.8125 10.641 8.8125 10.134C8.8125 8.037 9.212 6.039 9.91406 4.191Z" transform="translate(8.8125 24.366)" fill="white"/>
<path d="M0 0V2.529C0 4.53 0.76375 6.414 2.15025 7.833L5.875 11.637L9.59975 7.833C10.9862 6.417 11.75 4.533 11.75 2.529V0H0Z" transform="translate(8.8125 6)" fill="white"/>
<path d="M27.9062 0H1.46875C0.658 0 0 0.675 0 1.5C0 2.331 0.658 3 1.46875 3H2.9375V8.529C2.9375 12.135 4.31225 15.525 6.80913 18.075L9.67319 21L6.80913 23.925C4.31225 26.478 2.9375 29.865 2.9375 33.471V39H1.46875C0.658 39 0 39.672 0 40.5C0 41.328 0.658 42 1.46875 42L19.4081 41.997C18.9292 41.046 18.5415 40.044 18.2507 38.997L5.875 39V33.471C5.875 30.666 6.94425 28.032 8.88594 26.046L12.7899 22.062C13.0631 21.78 13.2188 21.399 13.2188 21C13.2188 20.604 13.0631 20.22 12.7899 19.938L8.88594 15.954C6.94425 13.971 5.875 11.334 5.875 8.529V3H23.5V8.529C23.5 11.334 22.4307 13.968 20.4891 15.954L16.5851 19.941C16.3119 20.223 16.1562 20.604 16.1562 21C16.1562 21.399 16.3119 21.78 16.5851 22.062L20.1424 25.692C20.6741 24.837 21.2792 24.039 21.9519 23.298L19.7018 21L22.5659 18.072C25.0627 15.525 26.4375 12.135 26.4375 8.529V3H27.9062C28.717 3 29.375 2.328 29.375 1.5C29.375 0.672 28.717 0 27.9062 0Z" fill="white"/>
</svg>
