<svg width="48" height="48" viewBox="0 0 48 48" fill="none" xmlns="http://www.w3.org/2000/svg">
<path d="M3.17368e-07 0V12.7998H12.7994L3.17368e-07 0Z" transform="translate(35.2004)" fill="white"/>
<path d="M15.9567 23.6124L13.5056 13.779C15.0351 12.323 16.0015 10.275 16.0015 7.99987C16.0015 3.59034 12.4112 3.78412e-07 8.00182 3.78412e-07C3.59242 3.78412e-07 0.00218429 3.59034 0.00218429 7.99987C0.00218429 10.275 0.96854 12.323 2.49807 13.779L0.0469823 23.6124C-0.103411 24.2172 0.114179 24.8572 0.600557 25.2508C1.08694 25.6412 1.7589 25.7084 2.31568 25.4332L8.00182 22.5884L13.6848 25.4332C13.912 25.542 14.1583 25.5996 14.4015 25.5996C14.7567 25.5996 15.1119 25.4812 15.4031 25.2508C15.8895 24.8572 16.1071 24.2204 15.9567 23.6124ZM8.00182 12.7998C5.35554 12.7998 3.20204 10.6462 3.20204 7.99987C3.20204 5.35351 5.35554 3.19995 8.00182 3.19995C10.6481 3.19995 12.8016 5.35351 12.8016 7.99987C12.8016 10.6462 10.6481 12.7998 8.00182 12.7998Z" transform="translate(0 22.3995)" fill="white"/>
<path d="M25.5988 15.9997C23.8357 15.9997 22.399 14.563 22.399 12.7998V0H3.19985C1.43674 0 3.17368e-07 1.43678 3.17368e-07 3.19995V19.3629C5.41415 20.1469 9.59956 24.7708 9.59956 30.3995C9.59956 32.8187 8.8316 35.1162 7.41086 37.0266L9.34997 44.7993H35.1984C36.9647 44.7993 38.3983 43.3657 38.3983 41.5993V15.9997H25.5988ZM7.99964 12.7998C7.11648 12.7998 6.39971 12.083 6.39971 11.1998C6.39971 10.3166 7.11648 9.59984 7.99964 9.59984H17.5992C18.4824 9.59984 19.1991 10.3166 19.1991 11.1998C19.1991 12.083 18.4824 12.7998 17.5992 12.7998H7.99964ZM30.3986 31.9995H14.3993C13.5162 31.9995 12.7994 31.2827 12.7994 30.3995C12.7994 29.5163 13.5162 28.7995 14.3993 28.7995H30.3986C31.2818 28.7995 31.9985 29.5163 31.9985 30.3995C31.9985 31.2827 31.2818 31.9995 30.3986 31.9995ZM30.3986 22.3996H11.1995C10.3163 22.3996 9.59956 21.6828 9.59956 20.7997C9.59956 19.9165 10.3163 19.1997 11.1995 19.1997H30.3986C31.2818 19.1997 31.9985 19.9165 31.9985 20.7997C31.9985 21.6828 31.2818 22.3996 30.3986 22.3996Z" transform="translate(9.60181)" fill="white"/>
</svg>
