<svg width="48" height="48" viewBox="0 0 48 48" fill="none" xmlns="http://www.w3.org/2000/svg">
<path d="M5.99988 12C9.31352 12 11.9998 9.31371 11.9998 6C11.9998 2.68629 9.31352 0 5.99988 0C2.68624 0 0 2.68629 0 6C0 9.31371 2.68624 12 5.99988 12Z" transform="translate(17.9995)" fill="white"/>
<path d="M17.9875 13.308L16.6255 2.7C16.4725 1.161 15.1886 4.57764e-07 13.6436 4.57764e-07H11.9996C11.6006 4.57764e-07 11.2196 0.159 10.9376 0.438L8.99968 2.376L7.06172 0.438C6.77973 0.159 6.39873 4.57764e-07 5.99974 4.57764e-07H4.35877C2.8108 4.57764e-07 1.52683 1.161 1.37683 2.661L0.0118607 13.311C-0.0421382 13.737 0.0898585 14.169 0.374853 14.49C0.659847 14.814 1.06784 15 1.49983 15H3.1198L4.37377 30.3C4.52377 31.836 5.81074 33 7.35871 33H10.6436C12.1916 33 13.4756 31.836 13.6316 30.273L14.8826 15H16.4995C16.9315 15 17.3395 14.814 17.6245 14.49C17.9125 14.169 18.0445 13.737 17.9875 13.308Z" transform="translate(14.9998 15)" fill="white"/>
<path d="M5.99988 12C9.31352 12 11.9998 9.31371 11.9998 6C11.9998 2.68629 9.31352 0 5.99988 0C2.68624 0 0 2.68629 0 6C0 9.31371 2.68624 12 5.99988 12Z" transform="translate(32.9993)" fill="white"/>
<path d="M5.99988 0C2.69095 0 5.14974e-08 2.691 5.14974e-08 6C5.14974e-08 9.309 2.69095 12 5.99988 12C9.30581 12 11.9998 9.309 11.9998 6C11.9998 2.691 9.30581 0 5.99988 0Z" transform="translate(3)" fill="white"/>
<path d="M14.6067 13.308L13.2447 2.703C13.0917 1.161 11.8108 4.57764e-07 10.2628 4.57764e-07H8.61883C8.21983 4.57764e-07 7.83884 0.159 7.55685 0.438L5.61889 2.376L3.68093 0.438C3.39893 0.159 3.01794 4.57764e-07 2.62195 4.57764e-07H0.97798C0.791984 4.57764e-07 0.623987 0.0660004 0.44699 0.0990004C0.833983 0.783 1.13698 1.524 1.22698 2.355L2.58595 12.927C2.75395 14.214 2.35195 15.51 1.48797 16.485C1.07998 16.953 0.557988 17.283 -1.09861e-06 17.541L0.995981 27.3C1.14898 28.839 2.43295 30 3.98092 30H7.26585C8.81382 30 10.0978 28.836 10.2538 27.273L11.5018 15H13.1187C13.5507 15 13.9587 14.814 14.2437 14.49C14.5317 14.169 14.6637 13.737 14.6067 13.308Z" transform="translate(33.3804 15)" fill="white"/>
<path d="M13.1217 16.47C12.2697 15.507 11.8737 14.214 12.0357 12.933L13.4007 2.28C13.4787 1.482 13.7727 0.762001 14.1477 0.0960007C13.9797 0.0660007 13.8207 4.57764e-07 13.6437 4.57764e-07H11.9997C11.6007 4.57764e-07 11.2197 0.159 10.9377 0.438L8.99977 2.376L7.06181 0.438C6.77982 0.159 6.39883 4.57764e-07 6.00283 4.57764e-07H4.35877C2.8108 4.57764e-07 1.52683 1.161 1.37683 2.661L0.0118608 13.311C-0.0421381 13.737 0.0898592 14.169 0.374853 14.49C0.659848 14.814 1.07084 15 1.49983 15H3.1198L4.37377 27.3C4.52377 28.836 5.81074 30 7.35871 30H10.6436C12.1916 30 13.4756 28.836 13.6316 27.273L14.6276 17.538C14.0667 17.277 13.5417 16.944 13.1217 16.47Z" transform="translate(0 15)" fill="white"/>
</svg>
