<svg width="1440" height="1441" viewBox="0 0 1440 1441" fill="none" xmlns="http://www.w3.org/2000/svg">
<path d="M25.1817 -1.3723e-05H5.48919e-05V25.1818H25.1817V-1.3723e-05Z" transform="translate(1103.77 97.6665) rotate(-75.0024)" fill="#BFBEBE" fill-opacity="0.1"/>
<path d="M142.09 3.05176e-06H2.74446e-05" transform="translate(717.944 47.3043) rotate(-30)" stroke="#BFBEBE" stroke-opacity="0.1" stroke-width="3" stroke-miterlimit="10" stroke-linecap="round" stroke-linejoin="round"/>
<path d="M-2.44141e-05 142.329V-2.74473e-05" transform="translate(1046.73 -34.7716) rotate(-30)" stroke="#BFBEBE" stroke-opacity="0.1" stroke-width="3" stroke-miterlimit="10" stroke-linecap="round" stroke-linejoin="round"/>
<path d="M-2.44141e-05 142.329V-2.74473e-05" transform="translate(1127.53 -81.4229) rotate(-30)" stroke="#BFBEBE" stroke-opacity="0.1" stroke-width="3" stroke-miterlimit="10" stroke-linecap="round" stroke-linejoin="round"/>
<path d="M-1.2207e-05 142.329V-2.74473e-05" transform="translate(966.315 11.655) rotate(-30)" stroke="#BFBEBE" stroke-opacity="0.1" stroke-width="3" stroke-miterlimit="10" stroke-linecap="round" stroke-linejoin="round"/>
<path d="M132.429 1.3723e-05H-5.48919e-05V132.429H132.429V1.3723e-05Z" transform="translate(837.821 -22.5531) rotate(-75.0024)" stroke="#BFBEBE" stroke-opacity="0.1" stroke-width="5" stroke-miterlimit="10"/>
<path d="M0 3.05176e-06H142.315" transform="translate(548.646 36.0032) rotate(-30)" stroke="#BFBEBE" stroke-opacity="0.1" stroke-width="3" stroke-miterlimit="10" stroke-linecap="round" stroke-linejoin="round"/>
<path d="M0 -3.05176e-06H142.315" transform="translate(595.752 117.593) rotate(-30)" stroke="#BFBEBE" stroke-opacity="0.1" stroke-width="3" stroke-miterlimit="10" stroke-linecap="round" stroke-linejoin="round"/>
<path d="M13.3209 27.6563C31.0822 27.6563 31.0822 1.37236e-05 13.3209 1.37236e-05C-4.44032 1.37236e-05 -4.44032 27.6563 13.3209 27.6563Z" transform="translate(806.344 243.697) rotate(-30)" fill="#BFBEBE" fill-opacity="0.1"/>
<path d="M25.1817 2.74459e-05H5.48919e-05V25.1818H25.1817V2.74459e-05Z" transform="translate(1432.9 667.87) rotate(-75.0024)" fill="#BFBEBE" fill-opacity="0.1"/>
<path d="M142.09 -1.2207e-05H2.74446e-05" transform="translate(1000.69 537.036) rotate(-30)" stroke="#BFBEBE" stroke-opacity="0.1" stroke-width="3" stroke-miterlimit="10" stroke-linecap="round" stroke-linejoin="round"/>
<path d="M142.09 1.2207e-05H2.74446e-05" transform="translate(953.923 456.03) rotate(-30)" stroke="#BFBEBE" stroke-opacity="0.1" stroke-width="3" stroke-miterlimit="10" stroke-linecap="round" stroke-linejoin="round"/>
<path d="M142.09 -2.44141e-05H2.74446e-05" transform="translate(1047.12 617.457) rotate(-30)" stroke="#BFBEBE" stroke-opacity="0.1" stroke-width="3" stroke-miterlimit="10" stroke-linecap="round" stroke-linejoin="round"/>
<path d="M-2.44141e-05 142.104V2.74473e-05" transform="translate(1376.02 535.576) rotate(-30)" stroke="#BFBEBE" stroke-opacity="0.1" stroke-width="3" stroke-miterlimit="10" stroke-linecap="round" stroke-linejoin="round"/>
<path d="M-1.2207e-05 142.104V2.74473e-05" transform="translate(1295.61 582.002) rotate(-30)" stroke="#BFBEBE" stroke-opacity="0.1" stroke-width="3" stroke-miterlimit="10" stroke-linecap="round" stroke-linejoin="round"/>
<path d="M25.1818 2.74459e-05H2.74459e-05V25.1818H25.1818V2.74459e-05Z" transform="translate(983.522 546.86) rotate(-75.0024)" fill="#BFBEBE" fill-opacity="0.1"/>
<path d="M-5.48892e-05 1.2207e-05H142.09" transform="translate(1395.71 200.965) rotate(-30)" stroke="#BFBEBE" stroke-opacity="0.1" stroke-width="3" stroke-miterlimit="10" stroke-linecap="round" stroke-linejoin="round"/>
<path d="M-2.44141e-05 1.37236e-05V142.104" transform="translate(1119.43 88.9004) rotate(-30)" stroke="#BFBEBE" stroke-opacity="0.1" stroke-width="3" stroke-miterlimit="10" stroke-linecap="round" stroke-linejoin="round"/>
<path d="M1.2207e-05 1.37236e-05V142.104" transform="translate(1037.85 136.001) rotate(-30)" stroke="#BFBEBE" stroke-opacity="0.1" stroke-width="3" stroke-miterlimit="10" stroke-linecap="round" stroke-linejoin="round"/>
<path d="M1.2207e-05 1.37236e-05V142.104" transform="translate(1199.45 42.6986) rotate(-30)" stroke="#BFBEBE" stroke-opacity="0.1" stroke-width="3" stroke-miterlimit="10" stroke-linecap="round" stroke-linejoin="round"/>
<path d="M132.429 5.48919e-05H-5.48919e-05V132.429H132.429V5.48919e-05Z" transform="translate(1166.95 547.651) rotate(-75.0024)" stroke="#BFBEBE" stroke-opacity="0.1" stroke-width="5" stroke-miterlimit="10"/>
<path d="M132.429 -2.74459e-05H2.74459e-05V132.429H132.429V-2.74459e-05Z" transform="translate(1330.21 454.341) rotate(-75.0024)" stroke="#BFBEBE" stroke-opacity="0.1" stroke-width="5" stroke-miterlimit="10"/>
<path d="M132.429 -2.74459e-05H-5.48919e-05V132.429H132.429V-2.74459e-05Z" transform="translate(1073.55 385.807) rotate(-75.0024)" stroke="#BFBEBE" stroke-opacity="0.1" stroke-width="5" stroke-miterlimit="10"/>
<path d="M132.429 -2.74459e-05H2.74459e-05V132.429H132.429V-2.74459e-05Z" transform="translate(1236.33 291.839) rotate(-75.0024)" stroke="#BFBEBE" stroke-opacity="0.1" stroke-width="5" stroke-miterlimit="10"/>
<path d="M54.1858 2.74459e-05H5.48919e-05V54.1857H54.1858V2.74459e-05Z" transform="translate(1249.63 391.795) rotate(-75.0024)" fill="#BFBEBE" fill-opacity="0.1"/>
<path d="M54.1857 2.74459e-05H2.74459e-05V54.1857H54.1857V2.74459e-05Z" transform="translate(1091.59 483.12) rotate(-75.0024)" fill="#BFBEBE" fill-opacity="0.1"/>
<path d="M54.1858 -1.3723e-05H5.48919e-05V54.1858H54.1858V-1.3723e-05Z" transform="translate(1157.62 232.568) rotate(-75.0024)" fill="#BFBEBE" fill-opacity="0.1"/>
<path d="M54.1858 0H5.48919e-05V54.1857H54.1858V0Z" transform="translate(1409.69 300.196) rotate(-75.0024)" fill="#BFBEBE" fill-opacity="0.1"/>
<path d="M25.1817 -1.3723e-05H5.48919e-05V25.1818H25.1817V-1.3723e-05Z" transform="translate(1103.77 97.6661) rotate(-75.0024)" fill="#BFBEBE" fill-opacity="0.1"/>
<path d="M54.1858 5.48919e-05H5.48919e-05V54.1858H54.1858V5.48919e-05Z" transform="translate(1340.91 549.917) rotate(-75.0024)" fill="#BFBEBE" fill-opacity="0.1"/>
<path d="M13.3209 27.6563C31.0822 27.6563 31.0822 0 13.3209 0C-4.44037 0 -4.44037 27.6563 13.3209 27.6563Z" transform="translate(1392.63 402.139) rotate(-30)" fill="#BFBEBE" fill-opacity="0.1"/>
<path d="M13.321 27.6563C31.0822 27.6563 31.0822 1.37236e-05 13.321 1.37236e-05C-4.44029 1.37236e-05 -4.44029 27.6563 13.321 27.6563Z" transform="translate(1299.07 239.627) rotate(-30)" fill="#BFBEBE" fill-opacity="0.1"/>
<path d="M13.4053 27.6563C31.1666 27.6563 31.1666 0 13.4053 0C-4.35593 0 -4.58075 27.6563 13.4053 27.6563Z" transform="translate(1229.98 496.046) rotate(-30)" fill="#BFBEBE" fill-opacity="0.1"/>
<path d="M13.4053 27.6563C31.1666 27.6563 31.1666 1.37236e-05 13.4053 1.37236e-05C-4.35593 1.37236e-05 -4.58075 27.6563 13.4053 27.6563Z" transform="translate(1136.22 333.646) rotate(-30)" fill="#BFBEBE" fill-opacity="0.1"/>
<path d="M0 1.2207e-05H142.315" transform="translate(877.937 606.35) rotate(-30)" stroke="#BFBEBE" stroke-opacity="0.1" stroke-width="3" stroke-miterlimit="10" stroke-linecap="round" stroke-linejoin="round"/>
<path d="M0 -2.44141e-05H142.315" transform="translate(925.042 687.94) rotate(-30)" stroke="#BFBEBE" stroke-opacity="0.1" stroke-width="3" stroke-miterlimit="10" stroke-linecap="round" stroke-linejoin="round"/>
<path d="M0 1.2207e-05H142.315" transform="translate(831.843 526.513) rotate(-30)" stroke="#BFBEBE" stroke-opacity="0.1" stroke-width="3" stroke-miterlimit="10" stroke-linecap="round" stroke-linejoin="round"/>
<path d="M13.3209 27.6563C31.0822 27.6563 31.0822 0 13.3209 0C-4.44032 0 -4.44032 27.6563 13.3209 27.6563Z" transform="translate(1135.63 814.044) rotate(-30)" fill="#BFBEBE" fill-opacity="0.1"/>
<path d="M-2.44141e-05 142.329V-2.74473e-05" transform="translate(1046.73 -34.7717) rotate(-30)" stroke="#BFBEBE" stroke-opacity="0.1" stroke-width="3" stroke-miterlimit="10" stroke-linecap="round" stroke-linejoin="round"/>
<path d="M-2.44141e-05 142.329V-2.74473e-05" transform="translate(1127.53 -81.4232) rotate(-30)" stroke="#BFBEBE" stroke-opacity="0.1" stroke-width="3" stroke-miterlimit="10" stroke-linecap="round" stroke-linejoin="round"/>
<path d="M-1.2207e-05 142.329V-2.74473e-05" transform="translate(966.315 11.6552) rotate(-30)" stroke="#BFBEBE" stroke-opacity="0.1" stroke-width="3" stroke-miterlimit="10" stroke-linecap="round" stroke-linejoin="round"/>
<path d="M132.429 -2.74459e-05H5.48919e-05V132.429H132.429V-2.74459e-05Z" transform="translate(1307.14 -29.4773) rotate(-75.0024)" stroke="#BFBEBE" stroke-opacity="0.1" stroke-width="5" stroke-miterlimit="10"/>
<path d="M13.3209 27.6563C31.0822 27.6563 31.0822 1.37236e-05 13.3209 1.37236e-05C-4.44032 1.37236e-05 -4.44032 27.6563 13.3209 27.6563Z" transform="translate(806.344 243.696) rotate(-30)" fill="#BFBEBE" fill-opacity="0.1"/>
<path d="M142.09 1.2207e-05H2.74446e-05" transform="translate(1329.98 1107.38) rotate(-30)" stroke="#BFBEBE" stroke-opacity="0.1" stroke-width="3" stroke-miterlimit="10" stroke-linecap="round" stroke-linejoin="round"/>
<path d="M142.09 -2.44141e-05H2.74446e-05" transform="translate(1283.21 1026.38) rotate(-30)" stroke="#BFBEBE" stroke-opacity="0.1" stroke-width="3" stroke-miterlimit="10" stroke-linecap="round" stroke-linejoin="round"/>
<path d="M142.09 2.44141e-05H2.74446e-05" transform="translate(1376.3 1187.61) rotate(-30)" stroke="#BFBEBE" stroke-opacity="0.1" stroke-width="3" stroke-miterlimit="10" stroke-linecap="round" stroke-linejoin="round"/>
<path d="M25.1818 0H2.74459e-05V25.1818H25.1818V0Z" transform="translate(1312.65 1117.06) rotate(-75.0024)" fill="#BFBEBE" fill-opacity="0.1"/>
<path d="M1.2207e-05 5.48946e-05V142.104" transform="translate(1367.02 706.154) rotate(-30)" stroke="#BFBEBE" stroke-opacity="0.1" stroke-width="3" stroke-miterlimit="10" stroke-linecap="round" stroke-linejoin="round"/>
<path d="M132.429 2.74459e-05H-5.48919e-05V132.429H132.429V2.74459e-05Z" transform="translate(1402.9 956.069) rotate(-75.0024)" stroke="#BFBEBE" stroke-opacity="0.1" stroke-width="5" stroke-miterlimit="10"/>
<path d="M54.1857 0H2.74459e-05V54.1857H54.1857V0Z" transform="translate(1420.72 1053.32) rotate(-75.0024)" fill="#BFBEBE" fill-opacity="0.1"/>
<path d="M25.1817 2.74459e-05H5.48919e-05V25.1818H25.1817V2.74459e-05Z" transform="translate(1432.9 667.87) rotate(-75.0024)" fill="#BFBEBE" fill-opacity="0.1"/>
<path d="M0 0H142.315" transform="translate(1207.11 1176.5) rotate(-30)" stroke="#BFBEBE" stroke-opacity="0.1" stroke-width="3" stroke-miterlimit="10" stroke-linecap="round" stroke-linejoin="round"/>
<path d="M0 2.44141e-05H142.315" transform="translate(1254.22 1258.09) rotate(-30)" stroke="#BFBEBE" stroke-opacity="0.1" stroke-width="3" stroke-miterlimit="10" stroke-linecap="round" stroke-linejoin="round"/>
<path d="M0 -2.44141e-05H142.315" transform="translate(1161.13 1096.86) rotate(-30)" stroke="#BFBEBE" stroke-opacity="0.1" stroke-width="3" stroke-miterlimit="10" stroke-linecap="round" stroke-linejoin="round"/>
<path d="M-2.44141e-05 142.104V2.74473e-05" transform="translate(1376.02 535.576) rotate(-30)" stroke="#BFBEBE" stroke-opacity="0.1" stroke-width="3" stroke-miterlimit="10" stroke-linecap="round" stroke-linejoin="round"/>
<path d="M-1.2207e-05 142.104V2.74473e-05" transform="translate(1295.61 582.002) rotate(-30)" stroke="#BFBEBE" stroke-opacity="0.1" stroke-width="3" stroke-miterlimit="10" stroke-linecap="round" stroke-linejoin="round"/>
<path d="M13.3209 27.6563C31.0822 27.6563 31.0822 0 13.3209 0C-4.44032 0 -4.44032 27.6563 13.3209 27.6563Z" transform="translate(1135.63 814.044) rotate(-30)" fill="#BFBEBE" fill-opacity="0.1"/>
<path d="M25.1818 -1.3723e-05H-1.3723e-05V25.1818H25.1818V-1.3723e-05Z" transform="translate(540.073 423.078) rotate(-75.0024)" fill="#BFBEBE" fill-opacity="0.1"/>
<path d="M142.09 0H2.74446e-05" transform="translate(107.842 292.319) rotate(-30)" stroke="#BFBEBE" stroke-opacity="0.1" stroke-width="3" stroke-miterlimit="10" stroke-linecap="round" stroke-linejoin="round"/>
<path d="M142.09 -6.10352e-06H2.74446e-05" transform="translate(61.0735 211.313) rotate(-30)" stroke="#BFBEBE" stroke-opacity="0.1" stroke-width="3" stroke-miterlimit="10" stroke-linecap="round" stroke-linejoin="round"/>
<path d="M142.09 3.05176e-06H2.74446e-05" transform="translate(154.273 372.74) rotate(-30)" stroke="#BFBEBE" stroke-opacity="0.1" stroke-width="3" stroke-miterlimit="10" stroke-linecap="round" stroke-linejoin="round"/>
<path d="M6.10352e-06 142.329V-2.74473e-05" transform="translate(483.057 290.664) rotate(-30)" stroke="#BFBEBE" stroke-opacity="0.1" stroke-width="3" stroke-miterlimit="10" stroke-linecap="round" stroke-linejoin="round"/>
<path d="M-2.44141e-05 142.329V-2.74473e-05" transform="translate(563.859 244.013) rotate(-30)" stroke="#BFBEBE" stroke-opacity="0.1" stroke-width="3" stroke-miterlimit="10" stroke-linecap="round" stroke-linejoin="round"/>
<path d="M1.2207e-05 142.329V-2.74473e-05" transform="translate(402.449 337.203) rotate(-30)" stroke="#BFBEBE" stroke-opacity="0.1" stroke-width="3" stroke-miterlimit="10" stroke-linecap="round" stroke-linejoin="round"/>
<path d="M25.1818 6.86149e-06H2.74459e-05V25.1818H25.1818V6.86149e-06Z" transform="translate(90.4807 302.01) rotate(-75.0024)" fill="#BFBEBE" fill-opacity="0.1"/>
<path d="M0 3.05176e-06H142.315" transform="translate(548.646 36.0028) rotate(-30)" stroke="#BFBEBE" stroke-opacity="0.1" stroke-width="3" stroke-miterlimit="10" stroke-linecap="round" stroke-linejoin="round"/>
<path d="M0 -3.05176e-06H142.315" transform="translate(595.752 117.592) rotate(-30)" stroke="#BFBEBE" stroke-opacity="0.1" stroke-width="3" stroke-miterlimit="10" stroke-linecap="round" stroke-linejoin="round"/>
<path d="M1.2207e-05 -6.86182e-06V142.329" transform="translate(144.885 -108.91) rotate(-30)" stroke="#BFBEBE" stroke-opacity="0.1" stroke-width="3" stroke-miterlimit="10" stroke-linecap="round" stroke-linejoin="round"/>
<path d="M132.429 1.3723e-05H1.3723e-05V132.429H132.429V1.3723e-05Z" transform="translate(274.128 302.859) rotate(-75.0024)" stroke="#BFBEBE" stroke-opacity="0.1" stroke-width="5" stroke-miterlimit="10"/>
<path d="M132.429 -1.3723e-05H2.74459e-05V132.429H132.429V-1.3723e-05Z" transform="translate(437.166 209.49) rotate(-75.0024)" stroke="#BFBEBE" stroke-opacity="0.1" stroke-width="5" stroke-miterlimit="10"/>
<path d="M132.429 0H1.3723e-05V132.429H132.429V0Z" transform="translate(180.727 141.015) rotate(-75.0024)" stroke="#BFBEBE" stroke-opacity="0.1" stroke-width="5" stroke-miterlimit="10"/>
<path d="M132.429 0H2.74459e-05V132.429H132.429V0Z" transform="translate(343.509 47.0472) rotate(-75.0024)" stroke="#BFBEBE" stroke-opacity="0.1" stroke-width="5" stroke-miterlimit="10"/>
<path d="M54.1858 -1.3723e-05H-2.74459e-05V54.1858H54.1858V-1.3723e-05Z" transform="translate(356.747 147.22) rotate(-75.0024)" fill="#BFBEBE" fill-opacity="0.1"/>
<path d="M54.1857 -1.3723e-05H2.74459e-05V54.1858H54.1857V-1.3723e-05Z" transform="translate(198.767 238.328) rotate(-75.0024)" fill="#BFBEBE" fill-opacity="0.1"/>
<path d="M54.1858 -3.43074e-06H-2.74459e-05V54.1858H54.1858V-3.43074e-06Z" transform="translate(264.741 -12.0067) rotate(-75.0024)" fill="#BFBEBE" fill-opacity="0.1"/>
<path d="M54.1858 1.3723e-05H5.48919e-05V54.1858H54.1858V1.3723e-05Z" transform="translate(516.653 55.3459) rotate(-75.0024)" fill="#BFBEBE" fill-opacity="0.1"/>
<path d="M54.1858 1.3723e-05H-2.74459e-05V54.1858H54.1858V1.3723e-05Z" transform="translate(448.029 305.342) rotate(-75.0024)" fill="#BFBEBE" fill-opacity="0.1"/>
<path d="M13.3209 27.6563C31.0822 27.6563 31.0822 -6.86182e-06 13.3209 -6.86182e-06C-4.44037 -6.86182e-06 -4.44037 27.6563 13.3209 27.6563Z" transform="translate(499.783 157.422) rotate(-30)" fill="#BFBEBE" fill-opacity="0.1"/>
<path d="M13.3209 27.6563C31.0822 27.6563 31.0822 -6.86182e-06 13.3209 -6.86182e-06C-4.44037 -6.86182e-06 -4.44037 27.6563 13.3209 27.6563Z" transform="translate(405.909 -5.17261) rotate(-30)" fill="#BFBEBE" fill-opacity="0.1"/>
<path d="M13.3209 27.6563C31.0822 27.6563 31.0822 -6.86182e-06 13.3209 -6.86182e-06C-4.44032 -6.86182e-06 -4.44032 27.6563 13.3209 27.6563Z" transform="translate(337.009 251.4) rotate(-30)" fill="#BFBEBE" fill-opacity="0.1"/>
<path d="M13.3209 27.6563C31.0822 27.6563 31.0822 -6.86182e-06 13.3209 -6.86182e-06C-4.44032 0.224841 -4.44032 27.6563 13.3209 27.6563Z" transform="translate(243.135 88.8048) rotate(-30)" fill="#BFBEBE" fill-opacity="0.1"/>
<path d="M13.3209 27.6563C31.0822 27.6563 31.0822 1.37236e-05 13.3209 1.37236e-05C-4.44032 1.37236e-05 -4.44032 27.6563 13.3209 27.6563Z" transform="translate(806.344 243.696) rotate(-30)" fill="#BFBEBE" fill-opacity="0.1"/>
<path d="M0 3.05176e-06H142.09" transform="translate(-15.0249 361.439) rotate(-30)" stroke="#BFBEBE" stroke-opacity="0.1" stroke-width="3" stroke-miterlimit="10" stroke-linecap="round" stroke-linejoin="round"/>
<path d="M0 -3.05176e-06H142.09" transform="translate(32.0811 443.028) rotate(-30)" stroke="#BFBEBE" stroke-opacity="0.1" stroke-width="3" stroke-miterlimit="10" stroke-linecap="round" stroke-linejoin="round"/>
<path d="M0 -6.10352e-06H142.09" transform="translate(-61.0063 281.796) rotate(-30)" stroke="#BFBEBE" stroke-opacity="0.1" stroke-width="3" stroke-miterlimit="10" stroke-linecap="round" stroke-linejoin="round"/>
<path d="M13.3209 27.6563C31.0822 27.6563 31.0822 1.37236e-05 13.3209 1.37236e-05C-4.44032 1.37236e-05 -4.44032 27.6563 13.3209 27.6563Z" transform="translate(242.673 569.132) rotate(-30)" fill="#BFBEBE" fill-opacity="0.1"/>
<path d="M25.1818 2.74459e-05H-1.3723e-05V25.1818H25.1818V2.74459e-05Z" transform="translate(869.205 993.282) rotate(-75.0024)" fill="#BFBEBE" fill-opacity="0.1"/>
<path d="M25.1818 2.74459e-05H2.74459e-05V25.1818H25.1818V2.74459e-05Z" transform="translate(983.522 546.86) rotate(-75.0024)" fill="#BFBEBE" fill-opacity="0.1"/>
<path d="M142.09 -1.2207e-05H2.74446e-05" transform="translate(437.02 862.472) rotate(-30)" stroke="#BFBEBE" stroke-opacity="0.1" stroke-width="3" stroke-miterlimit="10" stroke-linecap="round" stroke-linejoin="round"/>
<path d="M142.09 1.2207e-05H2.74446e-05" transform="translate(390.252 781.466) rotate(-30)" stroke="#BFBEBE" stroke-opacity="0.1" stroke-width="3" stroke-miterlimit="10" stroke-linecap="round" stroke-linejoin="round"/>
<path d="M142.09 -2.44141e-05H2.74446e-05" transform="translate(483.451 942.893) rotate(-30)" stroke="#BFBEBE" stroke-opacity="0.1" stroke-width="3" stroke-miterlimit="10" stroke-linecap="round" stroke-linejoin="round"/>
<path d="M6.10352e-06 142.104V2.74473e-05" transform="translate(812.348 861.012) rotate(-30)" stroke="#BFBEBE" stroke-opacity="0.1" stroke-width="3" stroke-miterlimit="10" stroke-linecap="round" stroke-linejoin="round"/>
<path d="M-2.44141e-05 142.104V2.74473e-05" transform="translate(893.15 814.36) rotate(-30)" stroke="#BFBEBE" stroke-opacity="0.1" stroke-width="3" stroke-miterlimit="10" stroke-linecap="round" stroke-linejoin="round"/>
<path d="M1.2207e-05 142.104V2.74473e-05" transform="translate(731.74 907.551) rotate(-30)" stroke="#BFBEBE" stroke-opacity="0.1" stroke-width="3" stroke-miterlimit="10" stroke-linecap="round" stroke-linejoin="round"/>
<path d="M25.1818 2.74459e-05H2.74459e-05V25.1818H25.1818V2.74459e-05Z" transform="translate(419.829 872.272) rotate(-75.0024)" fill="#BFBEBE" fill-opacity="0.1"/>
<path d="M0 1.2207e-05H142.315" transform="translate(877.937 606.35) rotate(-30)" stroke="#BFBEBE" stroke-opacity="0.1" stroke-width="3" stroke-miterlimit="10" stroke-linecap="round" stroke-linejoin="round"/>
<path d="M0 -2.44141e-05H142.315" transform="translate(925.043 687.94) rotate(-30)" stroke="#BFBEBE" stroke-opacity="0.1" stroke-width="3" stroke-miterlimit="10" stroke-linecap="round" stroke-linejoin="round"/>
<path d="M0 1.2207e-05H142.315" transform="translate(831.843 526.513) rotate(-30)" stroke="#BFBEBE" stroke-opacity="0.1" stroke-width="3" stroke-miterlimit="10" stroke-linecap="round" stroke-linejoin="round"/>
<path d="M6.10352e-06 1.37236e-05V142.104" transform="translate(555.757 414.336) rotate(-30)" stroke="#BFBEBE" stroke-opacity="0.1" stroke-width="3" stroke-miterlimit="10" stroke-linecap="round" stroke-linejoin="round"/>
<path d="M1.2207e-05 1.37236e-05V142.104" transform="translate(474.176 461.437) rotate(-30)" stroke="#BFBEBE" stroke-opacity="0.1" stroke-width="3" stroke-miterlimit="10" stroke-linecap="round" stroke-linejoin="round"/>
<path d="M1.2207e-05 1.37236e-05V142.104" transform="translate(635.781 368.134) rotate(-30)" stroke="#BFBEBE" stroke-opacity="0.1" stroke-width="3" stroke-miterlimit="10" stroke-linecap="round" stroke-linejoin="round"/>
<path d="M132.429 5.48919e-05H1.3723e-05V132.429H132.429V5.48919e-05Z" transform="translate(603.259 873.063) rotate(-75.0024)" stroke="#BFBEBE" stroke-opacity="0.1" stroke-width="5" stroke-miterlimit="10"/>
<path d="M132.429 -2.74459e-05H2.74459e-05V132.429H132.429V-2.74459e-05Z" transform="translate(766.515 779.753) rotate(-75.0024)" stroke="#BFBEBE" stroke-opacity="0.1" stroke-width="5" stroke-miterlimit="10"/>
<path d="M132.429 -2.74459e-05H1.3723e-05V132.429H132.429V-2.74459e-05Z" transform="translate(509.858 711.219) rotate(-75.0024)" stroke="#BFBEBE" stroke-opacity="0.1" stroke-width="5" stroke-miterlimit="10"/>
<path d="M132.429 -2.74459e-05H2.74459e-05V132.429H132.429V-2.74459e-05Z" transform="translate(672.641 617.251) rotate(-75.0024)" stroke="#BFBEBE" stroke-opacity="0.1" stroke-width="5" stroke-miterlimit="10"/>
<path d="M54.1858 2.74459e-05H-2.74459e-05V54.1857H54.1858V2.74459e-05Z" transform="translate(685.878 717.424) rotate(-75.0024)" fill="#BFBEBE" fill-opacity="0.1"/>
<path d="M54.1857 2.74459e-05H2.74459e-05V54.1857H54.1857V2.74459e-05Z" transform="translate(527.899 808.533) rotate(-75.0024)" fill="#BFBEBE" fill-opacity="0.1"/>
<path d="M54.1858 -1.3723e-05H-2.74459e-05V54.1858H54.1858V-1.3723e-05Z" transform="translate(593.873 558.198) rotate(-75.0024)" fill="#BFBEBE" fill-opacity="0.1"/>
<path d="M54.1858 0H5.48919e-05V54.1857H54.1858V0Z" transform="translate(846.002 625.608) rotate(-75.0024)" fill="#BFBEBE" fill-opacity="0.1"/>
<path d="M25.1818 -1.3723e-05H-1.3723e-05V25.1818H25.1818V-1.3723e-05Z" transform="translate(540.074 423.078) rotate(-75.0024)" fill="#BFBEBE" fill-opacity="0.1"/>
<path d="M54.1858 5.48919e-05H-2.74459e-05V54.1858H54.1858V5.48919e-05Z" transform="translate(777.16 875.546) rotate(-75.0024)" fill="#BFBEBE" fill-opacity="0.1"/>
<path d="M13.3209 27.6563C31.0822 27.6563 31.0822 0 13.3209 0C-4.44037 0.224848 -4.44037 27.6563 13.3209 27.6563Z" transform="translate(828.961 727.575) rotate(-30)" fill="#BFBEBE" fill-opacity="0.1"/>
<path d="M13.3209 27.6563C31.0822 27.6563 31.0822 1.37236e-05 13.3209 1.37236e-05C-4.44037 1.37236e-05 -4.44037 27.6563 13.3209 27.6563Z" transform="translate(735.199 565.175) rotate(-30)" fill="#BFBEBE" fill-opacity="0.1"/>
<path d="M13.3209 27.6563C31.0822 27.6563 31.0822 0 13.3209 0C-4.44032 0.224848 -4.44032 27.6563 13.3209 27.6563Z" transform="translate(666.188 821.552) rotate(-30)" fill="#BFBEBE" fill-opacity="0.1"/>
<path d="M13.3209 27.6563C31.0822 27.6563 31.0822 1.37236e-05 13.3209 1.37236e-05C-4.44032 1.37236e-05 -4.44032 27.6563 13.3209 27.6563Z" transform="translate(572.426 659.152) rotate(-30)" fill="#BFBEBE" fill-opacity="0.1"/>
<path d="M13.3209 27.6563C31.0822 27.6563 31.0822 0 13.3209 0C-4.44032 0 -4.44032 27.6563 13.3209 27.6563Z" transform="translate(1135.64 814.044) rotate(-30)" fill="#BFBEBE" fill-opacity="0.1"/>
<path d="M0 1.2207e-05H142.09" transform="translate(314.266 931.786) rotate(-30)" stroke="#BFBEBE" stroke-opacity="0.1" stroke-width="3" stroke-miterlimit="10" stroke-linecap="round" stroke-linejoin="round"/>
<path d="M0 -2.44141e-05H142.09" transform="translate(361.371 1013.38) rotate(-30)" stroke="#BFBEBE" stroke-opacity="0.1" stroke-width="3" stroke-miterlimit="10" stroke-linecap="round" stroke-linejoin="round"/>
<path d="M0 1.2207e-05H142.09" transform="translate(268.172 851.949) rotate(-30)" stroke="#BFBEBE" stroke-opacity="0.1" stroke-width="3" stroke-miterlimit="10" stroke-linecap="round" stroke-linejoin="round"/>
<path d="M13.3209 27.6563C31.0822 27.6563 31.0822 0 13.3209 0C-4.44032 0 -4.44032 27.6563 13.3209 27.6563Z" transform="translate(571.964 1139.48) rotate(-30)" fill="#BFBEBE" fill-opacity="0.1"/>
<path d="M6.10352e-06 142.329V-2.74473e-05" transform="translate(483.057 290.664) rotate(-30)" stroke="#BFBEBE" stroke-opacity="0.1" stroke-width="3" stroke-miterlimit="10" stroke-linecap="round" stroke-linejoin="round"/>
<path d="M-2.44141e-05 142.329V-2.74473e-05" transform="translate(563.86 244.013) rotate(-30)" stroke="#BFBEBE" stroke-opacity="0.1" stroke-width="3" stroke-miterlimit="10" stroke-linecap="round" stroke-linejoin="round"/>
<path d="M1.2207e-05 142.329V-2.74473e-05" transform="translate(402.449 337.203) rotate(-30)" stroke="#BFBEBE" stroke-opacity="0.1" stroke-width="3" stroke-miterlimit="10" stroke-linecap="round" stroke-linejoin="round"/>
<path d="M132.429 -2.74459e-05H5.48919e-05V132.429H132.429V-2.74459e-05Z" transform="translate(743.45 295.935) rotate(-75.0024)" stroke="#BFBEBE" stroke-opacity="0.1" stroke-width="5" stroke-miterlimit="10"/>
<path d="M13.3209 27.6563C31.0822 27.6563 31.0822 1.37236e-05 13.3209 1.37236e-05C-4.44032 1.37236e-05 -4.44032 27.6563 13.3209 27.6563Z" transform="translate(806.344 243.696) rotate(-30)" fill="#BFBEBE" fill-opacity="0.1"/>
<path d="M13.3209 27.6563C31.0822 27.6563 31.0822 1.37236e-05 13.3209 1.37236e-05C-4.44032 1.37236e-05 -4.44032 27.6563 13.3209 27.6563Z" transform="translate(242.673 569.132) rotate(-30)" fill="#BFBEBE" fill-opacity="0.1"/>
<path d="M25.1818 0H2.74459e-05V25.1818H25.1818V0Z" transform="translate(1312.65 1117.06) rotate(-75.0024)" fill="#BFBEBE" fill-opacity="0.1"/>
<path d="M142.09 1.2207e-05H2.74446e-05" transform="translate(766.311 1432.82) rotate(-30)" stroke="#BFBEBE" stroke-opacity="0.1" stroke-width="3" stroke-miterlimit="10" stroke-linecap="round" stroke-linejoin="round"/>
<path d="M142.09 -2.44141e-05H2.74446e-05" transform="translate(719.542 1351.81) rotate(-30)" stroke="#BFBEBE" stroke-opacity="0.1" stroke-width="3" stroke-miterlimit="10" stroke-linecap="round" stroke-linejoin="round"/>
<path d="M142.09 2.44141e-05H2.74446e-05" transform="translate(812.629 1513.05) rotate(-30)" stroke="#BFBEBE" stroke-opacity="0.1" stroke-width="3" stroke-miterlimit="10" stroke-linecap="round" stroke-linejoin="round"/>
<path d="M6.10352e-06 142.104V0" transform="translate(1141.53 1431.16) rotate(-30)" stroke="#BFBEBE" stroke-opacity="0.1" stroke-width="3" stroke-miterlimit="10" stroke-linecap="round" stroke-linejoin="round"/>
<path d="M-2.44141e-05 142.104V0" transform="translate(1222.33 1384.51) rotate(-30)" stroke="#BFBEBE" stroke-opacity="0.1" stroke-width="3" stroke-miterlimit="10" stroke-linecap="round" stroke-linejoin="round"/>
<path d="M25.1818 0H2.74459e-05V25.1818H25.1818V0Z" transform="translate(748.96 1442.48) rotate(-75.0024)" fill="#BFBEBE" fill-opacity="0.1"/>
<path d="M0 0H142.315" transform="translate(1207.11 1176.5) rotate(-30)" stroke="#BFBEBE" stroke-opacity="0.1" stroke-width="3" stroke-miterlimit="10" stroke-linecap="round" stroke-linejoin="round"/>
<path d="M0 2.44141e-05H142.315" transform="translate(1254.22 1258.09) rotate(-30)" stroke="#BFBEBE" stroke-opacity="0.1" stroke-width="3" stroke-miterlimit="10" stroke-linecap="round" stroke-linejoin="round"/>
<path d="M0 -2.44141e-05H142.315" transform="translate(1161.13 1096.86) rotate(-30)" stroke="#BFBEBE" stroke-opacity="0.1" stroke-width="3" stroke-miterlimit="10" stroke-linecap="round" stroke-linejoin="round"/>
<path d="M6.10352e-06 5.48946e-05V142.104" transform="translate(884.935 984.489) rotate(-30)" stroke="#BFBEBE" stroke-opacity="0.1" stroke-width="3" stroke-miterlimit="10" stroke-linecap="round" stroke-linejoin="round"/>
<path d="M1.2207e-05 5.48946e-05V142.104" transform="translate(803.354 1031.59) rotate(-30)" stroke="#BFBEBE" stroke-opacity="0.1" stroke-width="3" stroke-miterlimit="10" stroke-linecap="round" stroke-linejoin="round"/>
<path d="M1.2207e-05 5.48946e-05V142.104" transform="translate(964.959 938.287) rotate(-30)" stroke="#BFBEBE" stroke-opacity="0.1" stroke-width="3" stroke-miterlimit="10" stroke-linecap="round" stroke-linejoin="round"/>
<path d="M132.429 -2.74459e-05H1.3723e-05V132.429H132.429V-2.74459e-05Z" transform="translate(932.607 1443.33) rotate(-75.0024)" stroke="#BFBEBE" stroke-opacity="0.1" stroke-width="5" stroke-miterlimit="10"/>
<path d="M132.429 -5.48919e-05H2.74459e-05V132.429H132.429V-5.48919e-05Z" transform="translate(1095.65 1349.96) rotate(-75.0024)" stroke="#BFBEBE" stroke-opacity="0.1" stroke-width="5" stroke-miterlimit="10"/>
<path d="M132.429 2.74459e-05H1.3723e-05V132.429H132.429V2.74459e-05Z" transform="translate(839.207 1281.48) rotate(-75.0024)" stroke="#BFBEBE" stroke-opacity="0.1" stroke-width="5" stroke-miterlimit="10"/>
<path d="M132.429 2.74459e-05H2.74459e-05V132.429H132.429V2.74459e-05Z" transform="translate(1001.99 1187.51) rotate(-75.0024)" stroke="#BFBEBE" stroke-opacity="0.1" stroke-width="5" stroke-miterlimit="10"/>
<path d="M54.1858 0H-2.74459e-05V54.1857H54.1858V0Z" transform="translate(1015.01 1287.63) rotate(-75.0024)" fill="#BFBEBE" fill-opacity="0.1"/>
<path d="M54.1857 0H2.74459e-05V54.1857H54.1857V0Z" transform="translate(857.03 1378.74) rotate(-75.0024)" fill="#BFBEBE" fill-opacity="0.1"/>
<path d="M54.1858 -2.74459e-05H-2.74459e-05V54.1858H54.1858V-2.74459e-05Z" transform="translate(923.221 1128.46) rotate(-75.0024)" fill="#BFBEBE" fill-opacity="0.1"/>
<path d="M54.1858 -2.74459e-05H5.48919e-05V54.1858H54.1858V-2.74459e-05Z" transform="translate(1175.13 1195.81) rotate(-75.0024)" fill="#BFBEBE" fill-opacity="0.1"/>
<path d="M25.1818 2.74459e-05H-1.3723e-05V25.1818H25.1818V2.74459e-05Z" transform="translate(869.205 993.282) rotate(-75.0024)" fill="#BFBEBE" fill-opacity="0.1"/>
<path d="M54.1858 2.74459e-05H-2.74459e-05V54.1857H54.1858V2.74459e-05Z" transform="translate(1106.29 1445.75) rotate(-75.0024)" fill="#BFBEBE" fill-opacity="0.1"/>
<path d="M13.3209 27.6564C31.0822 27.6564 31.0822 5.48946e-05 13.3209 5.48946e-05C-4.44037 5.48946e-05 -4.44037 27.6564 13.3209 27.6564Z" transform="translate(1158.25 1297.92) rotate(-30)" fill="#BFBEBE" fill-opacity="0.1"/>
<path d="M13.3209 27.6564C31.0822 27.6564 31.0822 5.48946e-05 13.3209 5.48946e-05C-4.44037 5.48946e-05 -4.44037 27.6564 13.3209 27.6564Z" transform="translate(1064.38 1135.33) rotate(-30)" fill="#BFBEBE" fill-opacity="0.1"/>
<path d="M13.3209 27.6564C31.0822 27.6564 31.0822 5.48946e-05 13.3209 5.48946e-05C-4.44032 5.48946e-05 -4.44032 27.6564 13.3209 27.6564Z" transform="translate(995.478 1391.9) rotate(-30)" fill="#BFBEBE" fill-opacity="0.1"/>
<path d="M13.3209 27.6564C31.0822 27.6564 31.0822 5.48946e-05 13.3209 5.48946e-05C-4.44032 0.224903 -4.44032 27.6564 13.3209 27.6564Z" transform="translate(901.604 1229.3) rotate(-30)" fill="#BFBEBE" fill-opacity="0.1"/>
<path d="M132.429 5.48919e-05H5.48919e-05V132.429H132.429V5.48919e-05Z" transform="translate(1401.71 1436.34) rotate(-75.0024)" stroke="#BFBEBE" stroke-opacity="0.1" stroke-width="5" stroke-miterlimit="10"/>
<path d="M0 0H142.09" transform="translate(643.443 1501.94) rotate(-30)" stroke="#BFBEBE" stroke-opacity="0.1" stroke-width="3" stroke-miterlimit="10" stroke-linecap="round" stroke-linejoin="round"/>
<path d="M0 -2.44141e-05H142.09" transform="translate(597.462 1422.3) rotate(-30)" stroke="#BFBEBE" stroke-opacity="0.1" stroke-width="3" stroke-miterlimit="10" stroke-linecap="round" stroke-linejoin="round"/>
<path d="M6.10352e-06 142.104V2.74473e-05" transform="translate(812.347 861.011) rotate(-30)" stroke="#BFBEBE" stroke-opacity="0.1" stroke-width="3" stroke-miterlimit="10" stroke-linecap="round" stroke-linejoin="round"/>
<path d="M-2.44141e-05 142.104V2.74473e-05" transform="translate(893.15 814.36) rotate(-30)" stroke="#BFBEBE" stroke-opacity="0.1" stroke-width="3" stroke-miterlimit="10" stroke-linecap="round" stroke-linejoin="round"/>
<path d="M1.2207e-05 142.104V2.74473e-05" transform="translate(731.739 907.55) rotate(-30)" stroke="#BFBEBE" stroke-opacity="0.1" stroke-width="3" stroke-miterlimit="10" stroke-linecap="round" stroke-linejoin="round"/>
<path d="M132.429 -5.48919e-05H5.48919e-05V132.429H132.429V-5.48919e-05Z" transform="translate(1072.58 866.139) rotate(-75.0024)" stroke="#BFBEBE" stroke-opacity="0.1" stroke-width="5" stroke-miterlimit="10"/>
<path d="M13.3209 27.6563C31.0822 27.6563 31.0822 0 13.3209 0C-4.44032 0 -4.44032 27.6563 13.3209 27.6563Z" transform="translate(1135.63 814.044) rotate(-30)" fill="#BFBEBE" fill-opacity="0.1"/>
<path d="M13.3209 27.6563C31.0822 27.6563 31.0822 0 13.3209 0C-4.44032 0 -4.44032 27.6563 13.3209 27.6563Z" transform="translate(571.963 1139.48) rotate(-30)" fill="#BFBEBE" fill-opacity="0.1"/>
<path d="M25.1818 -1.3723e-05H-1.3723e-05V25.1818H25.1818V-1.3723e-05Z" transform="translate(-23.6196 748.49) rotate(-75.0024)" fill="#BFBEBE" fill-opacity="0.1"/>
<path d="M25.1818 6.86149e-06H2.74459e-05V25.1818H25.1818V6.86149e-06Z" transform="translate(90.4807 302.01) rotate(-75.0024)" fill="#BFBEBE" fill-opacity="0.1"/>
<path d="M6.10352e-06 142.329V-2.74473e-05" transform="translate(0.188232 569.448) rotate(-30)" stroke="#BFBEBE" stroke-opacity="0.1" stroke-width="3" stroke-miterlimit="10" stroke-linecap="round" stroke-linejoin="round"/>
<path d="M0 3.05176e-06H142.09" transform="translate(-15.0249 361.438) rotate(-30)" stroke="#BFBEBE" stroke-opacity="0.1" stroke-width="3" stroke-miterlimit="10" stroke-linecap="round" stroke-linejoin="round"/>
<path d="M0 -3.05176e-06H142.09" transform="translate(32.0806 443.028) rotate(-30)" stroke="#BFBEBE" stroke-opacity="0.1" stroke-width="3" stroke-miterlimit="10" stroke-linecap="round" stroke-linejoin="round"/>
<path d="M0 -6.10352e-06H142.09" transform="translate(-61.0066 281.796) rotate(-30)" stroke="#BFBEBE" stroke-opacity="0.1" stroke-width="3" stroke-miterlimit="10" stroke-linecap="round" stroke-linejoin="round"/>
<path d="M132.429 -1.3723e-05H-6.86149e-06V132.429H132.429V-1.3723e-05Z" transform="translate(-126.526 534.902) rotate(-75.0024)" stroke="#BFBEBE" stroke-opacity="0.1" stroke-width="5" stroke-miterlimit="10"/>
<path d="M54.1858 1.3723e-05H-1.3723e-05V54.1858H54.1858V1.3723e-05Z" transform="translate(-47.0396 380.758) rotate(-75.0024)" fill="#BFBEBE" fill-opacity="0.1"/>
<path d="M13.3209 27.6563C31.0822 27.6563 31.0822 1.37236e-05 13.3209 1.37236e-05C-4.44032 1.37236e-05 -4.44032 27.6563 13.3209 27.6563Z" transform="translate(242.673 569.132) rotate(-30)" fill="#BFBEBE" fill-opacity="0.1"/>
<path d="M132.429 0H-1.3723e-05V132.429H132.429V0Z" transform="translate(-149.591 51.0841) rotate(-75.0024)" stroke="#BFBEBE" stroke-opacity="0.1" stroke-width="5" stroke-miterlimit="10"/>
<path d="M25.1818 2.74459e-05H-1.3723e-05V25.1818H25.1818V2.74459e-05Z" transform="translate(305.512 1318.69) rotate(-75.0024)" fill="#BFBEBE" fill-opacity="0.1"/>
<path d="M25.1818 2.74459e-05H2.74459e-05V25.1818H25.1818V2.74459e-05Z" transform="translate(419.829 872.272) rotate(-75.0024)" fill="#BFBEBE" fill-opacity="0.1"/>
<path d="M142.09 -2.44141e-05H-6.86115e-06" transform="translate(-80.2202 1268.33) rotate(-30)" stroke="#BFBEBE" stroke-opacity="0.1" stroke-width="3" stroke-miterlimit="10" stroke-linecap="round" stroke-linejoin="round"/>
<path d="M6.10352e-06 142.104V2.74473e-05" transform="translate(248.676 1186.45) rotate(-30)" stroke="#BFBEBE" stroke-opacity="0.1" stroke-width="3" stroke-miterlimit="10" stroke-linecap="round" stroke-linejoin="round"/>
<path d="M6.10352e-06 142.104V2.74473e-05" transform="translate(329.479 1139.8) rotate(-30)" stroke="#BFBEBE" stroke-opacity="0.1" stroke-width="3" stroke-miterlimit="10" stroke-linecap="round" stroke-linejoin="round"/>
<path d="M-3.05176e-06 142.104V2.74473e-05" transform="translate(168.068 1232.99) rotate(-30)" stroke="#BFBEBE" stroke-opacity="0.1" stroke-width="3" stroke-miterlimit="10" stroke-linecap="round" stroke-linejoin="round"/>
<path d="M0 1.2207e-05H142.09" transform="translate(314.265 931.786) rotate(-30)" stroke="#BFBEBE" stroke-opacity="0.1" stroke-width="3" stroke-miterlimit="10" stroke-linecap="round" stroke-linejoin="round"/>
<path d="M0 -2.44141e-05H142.09" transform="translate(361.371 1013.38) rotate(-30)" stroke="#BFBEBE" stroke-opacity="0.1" stroke-width="3" stroke-miterlimit="10" stroke-linecap="round" stroke-linejoin="round"/>
<path d="M0 1.2207e-05H142.09" transform="translate(268.172 851.949) rotate(-30)" stroke="#BFBEBE" stroke-opacity="0.1" stroke-width="3" stroke-miterlimit="10" stroke-linecap="round" stroke-linejoin="round"/>
<path d="M6.10352e-06 1.37236e-05V142.104" transform="translate(-7.91406 739.772) rotate(-30)" stroke="#BFBEBE" stroke-opacity="0.1" stroke-width="3" stroke-miterlimit="10" stroke-linecap="round" stroke-linejoin="round"/>
<path d="M-3.05176e-06 1.37236e-05V142.104" transform="translate(72.1096 693.57) rotate(-30)" stroke="#BFBEBE" stroke-opacity="0.1" stroke-width="3" stroke-miterlimit="10" stroke-linecap="round" stroke-linejoin="round"/>
<path d="M132.429 5.48919e-05H1.3723e-05V132.429H132.429V5.48919e-05Z" transform="translate(39.5664 1198.48) rotate(-75.0024)" stroke="#BFBEBE" stroke-opacity="0.1" stroke-width="5" stroke-miterlimit="10"/>
<path d="M132.429 -2.74459e-05H-6.86149e-06V132.429H132.429V-2.74459e-05Z" transform="translate(202.822 1105.16) rotate(-75.0024)" stroke="#BFBEBE" stroke-opacity="0.1" stroke-width="5" stroke-miterlimit="10"/>
<path d="M132.429 -2.74459e-05H1.3723e-05V132.429H132.429V-2.74459e-05Z" transform="translate(-53.835 1036.63) rotate(-75.0024)" stroke="#BFBEBE" stroke-opacity="0.1" stroke-width="5" stroke-miterlimit="10"/>
<path d="M132.429 -2.74459e-05H-6.86149e-06V132.429H132.429V-2.74459e-05Z" transform="translate(108.948 942.663) rotate(-75.0024)" stroke="#BFBEBE" stroke-opacity="0.1" stroke-width="5" stroke-miterlimit="10"/>
<path d="M54.1858 2.74459e-05H6.86149e-06V54.1857H54.1858V2.74459e-05Z" transform="translate(122.185 1042.84) rotate(-75.0024)" fill="#BFBEBE" fill-opacity="0.1"/>
<path d="M54.1858 2.74459e-05H-6.86149e-06V54.1857H54.1858V2.74459e-05Z" transform="translate(-35.7937 1133.94) rotate(-75.0024)" fill="#BFBEBE" fill-opacity="0.1"/>
<path d="M54.1858 -1.3723e-05H6.86149e-06V54.1858H54.1858V-1.3723e-05Z" transform="translate(30.1802 883.61) rotate(-75.0024)" fill="#BFBEBE" fill-opacity="0.1"/>
<path d="M54.1858 0H-1.3723e-05V54.1857H54.1858V0Z" transform="translate(282.309 951.02) rotate(-75.0024)" fill="#BFBEBE" fill-opacity="0.1"/>
<path d="M25.1818 -1.3723e-05H-1.3723e-05V25.1818H25.1818V-1.3723e-05Z" transform="translate(-23.6196 748.49) rotate(-75.0024)" fill="#BFBEBE" fill-opacity="0.1"/>
<path d="M54.1858 5.48919e-05H6.86149e-06V54.1858H54.1858V5.48919e-05Z" transform="translate(213.467 1200.96) rotate(-75.0024)" fill="#BFBEBE" fill-opacity="0.1"/>
<path d="M13.321 27.6563C31.0822 27.6563 31.0822 0 13.321 0C-4.4403 0 -4.4403 27.6563 13.321 27.6563Z" transform="translate(265.29 1053.01) rotate(-30)" fill="#BFBEBE" fill-opacity="0.1"/>
<path d="M13.321 27.6563C31.0822 27.6563 31.0822 1.37236e-05 13.321 1.37236e-05C-4.4403 1.37236e-05 -4.4403 27.6563 13.321 27.6563Z" transform="translate(171.528 890.611) rotate(-30)" fill="#BFBEBE" fill-opacity="0.1"/>
<path d="M13.3209 27.6563C31.0822 27.6563 31.0822 0 13.3209 0C-4.44032 0 -4.44032 27.6563 13.3209 27.6563Z" transform="translate(102.516 1146.99) rotate(-30)" fill="#BFBEBE" fill-opacity="0.1"/>
<path d="M13.3209 27.6563C31.0822 27.6563 31.0822 1.37236e-05 13.3209 1.37236e-05C-4.44032 1.37236e-05 -4.44032 27.6563 13.3209 27.6563Z" transform="translate(8.75439 984.588) rotate(-30)" fill="#BFBEBE" fill-opacity="0.1"/>
<path d="M13.3209 27.6563C31.0822 27.6563 31.0822 0 13.3209 0C-4.44032 0 -4.44032 27.6563 13.3209 27.6563Z" transform="translate(571.963 1139.48) rotate(-30)" fill="#BFBEBE" fill-opacity="0.1"/>
<path d="M132.429 -5.48919e-05H0V132.429H132.429V-5.48919e-05Z" transform="translate(-54.8042 1516.96) rotate(-75.0024)" stroke="#BFBEBE" stroke-opacity="0.1" stroke-width="5" stroke-miterlimit="10"/>
<path d="M6.10352e-06 142.329V-2.74473e-05" transform="translate(0.188477 569.448) rotate(-30)" stroke="#BFBEBE" stroke-opacity="0.1" stroke-width="3" stroke-miterlimit="10" stroke-linecap="round" stroke-linejoin="round"/>
<path d="M132.429 -2.74459e-05H-1.3723e-05V132.429H132.429V-2.74459e-05Z" transform="translate(179.758 621.347) rotate(-75.0024)" stroke="#BFBEBE" stroke-opacity="0.1" stroke-width="5" stroke-miterlimit="10"/>
<path d="M13.3209 27.6563C31.0822 27.6563 31.0822 1.37236e-05 13.3209 1.37236e-05C-4.44032 1.37236e-05 -4.44032 27.6563 13.3209 27.6563Z" transform="translate(242.673 569.132) rotate(-30)" fill="#BFBEBE" fill-opacity="0.1"/>
<path d="M25.1818 0H2.74459e-05V25.1818H25.1818V0Z" transform="translate(748.96 1442.48) rotate(-75.0024)" fill="#BFBEBE" fill-opacity="0.1"/>
<path d="M0 0H142.09" transform="translate(643.443 1501.94) rotate(-30)" stroke="#BFBEBE" stroke-opacity="0.1" stroke-width="3" stroke-miterlimit="10" stroke-linecap="round" stroke-linejoin="round"/>
<path d="M0 -2.44141e-05H142.09" transform="translate(597.461 1422.3) rotate(-30)" stroke="#BFBEBE" stroke-opacity="0.1" stroke-width="3" stroke-miterlimit="10" stroke-linecap="round" stroke-linejoin="round"/>
<path d="M6.10352e-06 5.48946e-05V142.104" transform="translate(321.263 1309.92) rotate(-30)" stroke="#BFBEBE" stroke-opacity="0.1" stroke-width="3" stroke-miterlimit="10" stroke-linecap="round" stroke-linejoin="round"/>
<path d="M-3.05176e-06 5.48946e-05V142.104" transform="translate(239.682 1357.03) rotate(-30)" stroke="#BFBEBE" stroke-opacity="0.1" stroke-width="3" stroke-miterlimit="10" stroke-linecap="round" stroke-linejoin="round"/>
<path d="M-3.05176e-06 5.48946e-05V142.104" transform="translate(401.287 1263.72) rotate(-30)" stroke="#BFBEBE" stroke-opacity="0.1" stroke-width="3" stroke-miterlimit="10" stroke-linecap="round" stroke-linejoin="round"/>
<path d="M132.429 2.74459e-05H-6.86149e-06V132.429H132.429V2.74459e-05Z" transform="translate(438.296 1512.93) rotate(-75.0024)" stroke="#BFBEBE" stroke-opacity="0.1" stroke-width="5" stroke-miterlimit="10"/>
<path d="M54.1858 -2.74459e-05H6.86149e-06V54.1858H54.1858V-2.74459e-05Z" transform="translate(359.528 1453.87) rotate(-75.0024)" fill="#BFBEBE" fill-opacity="0.1"/>
<path d="M25.1818 2.74459e-05H-1.3723e-05V25.1818H25.1818V2.74459e-05Z" transform="translate(305.511 1318.69) rotate(-75.0024)" fill="#BFBEBE" fill-opacity="0.1"/>
<path d="M6.10352e-06 142.104V2.74473e-05" transform="translate(248.676 1186.45) rotate(-30)" stroke="#BFBEBE" stroke-opacity="0.1" stroke-width="3" stroke-miterlimit="10" stroke-linecap="round" stroke-linejoin="round"/>
<path d="M6.10352e-06 142.104V2.74473e-05" transform="translate(329.479 1139.8) rotate(-30)" stroke="#BFBEBE" stroke-opacity="0.1" stroke-width="3" stroke-miterlimit="10" stroke-linecap="round" stroke-linejoin="round"/>
<path d="M-3.05176e-06 142.104V2.74473e-05" transform="translate(168.068 1232.99) rotate(-30)" stroke="#BFBEBE" stroke-opacity="0.1" stroke-width="3" stroke-miterlimit="10" stroke-linecap="round" stroke-linejoin="round"/>
<path d="M132.429 -5.48919e-05H-1.3723e-05V132.429H132.429V-5.48919e-05Z" transform="translate(508.888 1191.55) rotate(-75.0024)" stroke="#BFBEBE" stroke-opacity="0.1" stroke-width="5" stroke-miterlimit="10"/>
<path d="M13.3209 27.6563C31.0822 27.6563 31.0822 0 13.3209 0C-4.44032 0 -4.44032 27.6563 13.3209 27.6563Z" transform="translate(571.963 1139.48) rotate(-30)" fill="#BFBEBE" fill-opacity="0.1"/>
</svg>
