<svg xmlns="http://www.w3.org/2000/svg" width="24" height="12" viewBox="0 0 24 12"><g><g><path fill="#0193ef" d="M4.529 7.9c-1.099 0-1.989.909-1.989 2.03 0 1.12.89 2.029 1.989 2.029 1.098-.002 1.988-.91 1.989-2.03 0-1.12-.89-2.029-1.989-2.029z"/></g><g><path fill="#0193ef" d="M23.16 5.287l-2.217-1.032a.422.422 0 0 1-.184-.162L18.84.968A1.93 1.93 0 0 0 17.177.04H9.37a1.945 1.945 0 0 0-1.557.778l-2.47 3.303a.416.416 0 0 1-.223.155L.992 5.429A1.38 1.38 0 0 0 0 6.77v1.54c0 .768.588 1.406 1.34 1.406h.359C1.805 8.29 2.915 7.158 4.312 7.05c1.562-.121 2.924 1.072 3.042 2.666h8.941c.106-1.426 1.216-2.558 2.613-2.666 1.562-.121 2.924 1.072 3.042 2.666h.658c.752 0 1.34-.638 1.34-1.405V6.552a1.383 1.383 0 0 0-.788-1.265z"/></g><g><path fill="#0193ef" d="M19.119 7.9c-1.099 0-1.989.909-1.989 2.03 0 1.12.89 2.029 1.989 2.029 1.098-.002 1.988-.91 1.989-2.03 0-1.12-.89-2.029-1.989-2.029z"/></g></g></svg>