<svg id="check-list" xmlns="http://www.w3.org/2000/svg" width="63.014" height="79.859" viewBox="0 0 63.014 79.859">
  <g id="Group_27" data-name="Group 27" transform="translate(0)">
    <g id="Group_26" data-name="Group 26">
      <path id="Path_4" data-name="Path 4" d="M115.454,40.258a1.56,1.56,0,0,0,1.56-1.56V14.038a7.808,7.808,0,0,0-7.8-7.8H98.643A4.244,4.244,0,0,0,95.295,4.6H92.757A7.817,7.817,0,0,0,85.644,0H85.37a7.817,7.817,0,0,0-7.113,4.6H75.72a4.244,4.244,0,0,0-3.349,1.638H61.8a7.808,7.808,0,0,0-7.8,7.8V72.061a7.808,7.808,0,0,0,7.8,7.8h47.417a7.808,7.808,0,0,0,7.8-7.8V51.774a1.56,1.56,0,1,0-3.119,0V72.061a4.685,4.685,0,0,1-4.679,4.679H61.8a4.685,4.685,0,0,1-4.679-4.679V14.038A4.685,4.685,0,0,1,61.8,9.359h9.67v3.12H63.359a3.123,3.123,0,0,0-3.12,3.12V70.5a3.123,3.123,0,0,0,3.12,3.12h44.3a3.123,3.123,0,0,0,3.12-3.12V15.6a3.123,3.123,0,0,0-3.12-3.12H99.545V9.359h9.67a4.685,4.685,0,0,1,4.679,4.679V38.7A1.56,1.56,0,0,0,115.454,40.258ZM74.589,8.852A1.132,1.132,0,0,1,75.72,7.721h3.63A1.56,1.56,0,0,0,80.855,6.57,4.686,4.686,0,0,1,85.37,3.12h.274a4.686,4.686,0,0,1,4.515,3.45,1.56,1.56,0,0,0,1.505,1.151h3.63a1.132,1.132,0,0,1,1.131,1.131v3.626H74.589ZM107.656,15.6l0,54.9h-44.3V15.6h44.3Z" transform="translate(-54)" fill="#202427"/>
    </g>
  </g>
  <g id="Group_29" data-name="Group 29" transform="translate(59.895 43.814)">
    <g id="Group_28" data-name="Group 28">
      <path id="Path_5" data-name="Path 5" d="M440.663,281.357a1.559,1.559,0,1,0,.457,1.1A1.572,1.572,0,0,0,440.663,281.357Z" transform="translate(-438 -280.9)" fill="#202427"/>
    </g>
  </g>
  <g id="Group_31" data-name="Group 31" transform="translate(31.039 27.452)">
    <g id="Group_30" data-name="Group 30">
      <path id="Path_6" data-name="Path 6" d="M255.663,176.457a1.559,1.559,0,1,0,.457,1.1A1.572,1.572,0,0,0,255.663,176.457Z" transform="translate(-253 -176)" fill="#202427"/>
    </g>
  </g>
  <g id="Group_33" data-name="Group 33" transform="translate(37.902 27.452)">
    <g id="Group_32" data-name="Group 32">
      <path id="Path_7" data-name="Path 7" d="M307.838,176H298.56a1.56,1.56,0,1,0,0,3.12h9.278a1.56,1.56,0,0,0,0-3.12Z" transform="translate(-297 -176)" fill="#202427"/>
    </g>
  </g>
  <g id="Group_35" data-name="Group 35" transform="translate(31.039 44.297)">
    <g id="Group_34" data-name="Group 34">
      <path id="Path_8" data-name="Path 8" d="M270.7,284H254.56a1.56,1.56,0,1,0,0,3.12H270.7a1.56,1.56,0,1,0,0-3.12Z" transform="translate(-253 -284)" fill="#202427"/>
    </g>
  </g>
  <g id="Group_37" data-name="Group 37" transform="translate(31.039 61.142)">
    <g id="Group_36" data-name="Group 36">
      <path id="Path_9" data-name="Path 9" d="M270.7,392H254.56a1.56,1.56,0,1,0,0,3.12H270.7a1.56,1.56,0,1,0,0-3.12Z" transform="translate(-253 -392)" fill="#202427"/>
    </g>
  </g>
  <g id="Group_39" data-name="Group 39" transform="translate(13.726 19.965)">
    <g id="Group_38" data-name="Group 38">
      <path id="Path_10" data-name="Path 10" d="M151.047,135.487H145.12V129.56a1.56,1.56,0,0,0-3.12,0v7.487a1.56,1.56,0,0,0,1.56,1.56h7.487a1.56,1.56,0,1,0,0-3.12Z" transform="translate(-142 -128)" fill="#202427"/>
    </g>
  </g>
  <g id="Group_41" data-name="Group 41" transform="translate(18.85 19.463)">
    <g id="Group_40" data-name="Group 40">
      <path id="Path_11" data-name="Path 11" d="M182.056,125.242a1.56,1.56,0,0,0-2.206,0l-2.151,2.151-.182-.182a1.56,1.56,0,0,0-2.206,2.206L176.6,130.7a1.56,1.56,0,0,0,2.206,0l3.253-3.253A1.56,1.56,0,0,0,182.056,125.242Z" transform="translate(-174.855 -124.785)" fill="#0092e8"/>
    </g>
  </g>
  <g id="Group_43" data-name="Group 43" transform="translate(13.726 36.765)">
    <g id="Group_42" data-name="Group 42">
      <path id="Path_12" data-name="Path 12" d="M151.047,243.2H145.12v-5.927a1.56,1.56,0,0,0-3.12,0v7.487a1.56,1.56,0,0,0,1.56,1.56h7.487a1.56,1.56,0,1,0,0-3.119Z" transform="translate(-142 -235.709)" fill="#202427"/>
    </g>
  </g>
  <g id="Group_45" data-name="Group 45" transform="translate(18.85 36.263)">
    <g id="Group_44" data-name="Group 44">
      <path id="Path_13" data-name="Path 13" d="M182.056,232.951a1.56,1.56,0,0,0-2.206,0L177.7,235.1l-.182-.182a1.56,1.56,0,1,0-2.206,2.206l1.285,1.285a1.56,1.56,0,0,0,2.206,0l3.253-3.253A1.56,1.56,0,0,0,182.056,232.951Z" transform="translate(-174.855 -232.494)" fill="#0092e8"/>
    </g>
  </g>
  <g id="Group_47" data-name="Group 47" transform="translate(13.726 53.656)">
    <g id="Group_46" data-name="Group 46">
      <path id="Path_14" data-name="Path 14" d="M151.047,351.487H145.12V345.56a1.56,1.56,0,1,0-3.12,0v7.487a1.56,1.56,0,0,0,1.56,1.56h7.487a1.56,1.56,0,1,0,0-3.12Z" transform="translate(-142 -344)" fill="#202427"/>
    </g>
  </g>
  <g id="Group_49" data-name="Group 49" transform="translate(18.85 53.154)">
    <g id="Group_48" data-name="Group 48">
      <path id="Path_15" data-name="Path 15" d="M182.056,341.242a1.56,1.56,0,0,0-2.206,0l-2.151,2.151-.182-.182a1.56,1.56,0,0,0-2.206,2.206L176.6,346.7a1.56,1.56,0,0,0,2.206,0l3.253-3.253A1.56,1.56,0,0,0,182.056,341.242Z" transform="translate(-174.855 -340.785)" fill="#0092e8"/>
    </g>
  </g>
</svg>
