<svg xmlns="http://www.w3.org/2000/svg" width="218" height="40" viewBox="0 0 218 40"><defs><mask id="2yrvb" width="2" height="2" x="-1" y="-1"><path fill="#fff" d="M3 1h212v34H3z"/><path d="M3.001 3a2 2 0 0 1 2-2h208a2 2 0 0 1 2 2v7.049a2.589 2.589 0 0 0-.5-.049c-2.485 0-4.5 3.582-4.5 8s2.015 8 4.5 8c.169 0 .336-.017.5-.049V33a2 2 0 0 1-2 2h-208a2 2 0 0 1-2-2v-7.049c2.25-.442 4-3.833 4-7.951 0-4.118-1.75-7.509-4-7.951z"/></mask><filter id="2yrva" width="240" height="64" x="-11" y="-13" filterUnits="userSpaceOnUse"><feOffset dy="2" in="SourceGraphic" result="FeOffset1023Out"/><feGaussianBlur in="FeOffset1023Out" result="FeGaussianBlur1024Out" stdDeviation="1.6 1.6"/></filter><clipPath id="2yrvc"><path fill="#fff" d="M3.001 3a2 2 0 0 1 2-2h208a2 2 0 0 1 2 2v7.049a2.589 2.589 0 0 0-.5-.049c-2.485 0-4.5 3.582-4.5 8s2.015 8 4.5 8c.169 0 .336-.017.5-.049V33a2 2 0 0 1-2 2h-208a2 2 0 0 1-2-2v-7.049c2.25-.442 4-3.833 4-7.951 0-4.118-1.75-7.509-4-7.951z"/></clipPath></defs><g><g><g filter="url(#2yrva)"><path fill="none" d="M3.001 3a2 2 0 0 1 2-2h208a2 2 0 0 1 2 2v7.049a2.589 2.589 0 0 0-.5-.049c-2.485 0-4.5 3.582-4.5 8s2.015 8 4.5 8c.169 0 .336-.017.5-.049V33a2 2 0 0 1-2 2h-208a2 2 0 0 1-2-2v-7.049c2.25-.442 4-3.833 4-7.951 0-4.118-1.75-7.509-4-7.951z" mask="url(&quot;#2yrvb&quot;)"/><path fill="#111" fill-opacity=".2" d="M3.001 3a2 2 0 0 1 2-2h208a2 2 0 0 1 2 2v7.049a2.589 2.589 0 0 0-.5-.049c-2.485 0-4.5 3.582-4.5 8s2.015 8 4.5 8c.169 0 .336-.017.5-.049V33a2 2 0 0 1-2 2h-208a2 2 0 0 1-2-2v-7.049c2.25-.442 4-3.833 4-7.951 0-4.118-1.75-7.509-4-7.951z"/></g><path fill="#04bfbf" d="M3.001 3a2 2 0 0 1 2-2h208a2 2 0 0 1 2 2v7.049a2.589 2.589 0 0 0-.5-.049c-2.485 0-4.5 3.582-4.5 8s2.015 8 4.5 8c.169 0 .336-.017.5-.049V33a2 2 0 0 1-2 2h-208a2 2 0 0 1-2-2v-7.049c2.25-.442 4-3.833 4-7.951 0-4.118-1.75-7.509-4-7.951z"/><path fill="none" d="M3.001 3a2 2 0 0 1 2-2h208a2 2 0 0 1 2 2v7.049a2.589 2.589 0 0 0-.5-.049c-2.485 0-4.5 3.582-4.5 8s2.015 8 4.5 8c.169 0 .336-.017.5-.049V33a2 2 0 0 1-2 2h-208a2 2 0 0 1-2-2v-7.049c2.25-.442 4-3.833 4-7.951 0-4.118-1.75-7.509-4-7.951z" clip-path="url(&quot;#2yrvc&quot;)"/></g></g></svg>