<svg xmlns="http://www.w3.org/2000/svg" xmlns:xlink="http://www.w3.org/1999/xlink" width="1595" height="381" viewBox="0 0 1595 381"><defs><path id="b4bba" d="M284.96 2333h-.002L163 2332.999v-29.136c0-3.011 1.096-6.095 3.087-8.683 2.015-2.62 4.756-4.47 7.718-5.21l37.05-6.175a29.076 29.076 0 0 0 7.938-2.985 32.94 32.94 0 0 0 6.792-5.007c4.034-3.842 7.258-8.724 9.322-14.118 1.895-4.954 2.723-10.145 2.394-15.015a28.202 28.202 0 0 0-1.435-7.249 24.848 24.848 0 0 0-3.4-6.568l-20.067-30.874c-2.183-2.91-3.117-6.313-2.702-9.84.381-3.244 1.889-6.328 4.245-8.684l38.592-38.592c2.758-2.758 6.51-4.34 10.293-4.34 2.946 0 5.792.967 8.232 2.796l30.873 20.068c4.413 3.21 9.924 4.906 15.936 4.906 3.774 0 7.617-.651 11.424-1.935a39.255 39.255 0 0 0 10.53-5.435c3.304-2.399 6.098-5.218 8.305-8.379 2.335-3.345 3.933-6.968 4.747-10.768l6.175-37.05c.74-2.962 2.59-5.703 5.21-7.718 2.588-1.99 5.672-3.087 8.683-3.087h55.572c3.688 0 6.804 1.039 9.263 3.087 2.232 1.86 3.834 4.53 4.63 7.718l7.72 37.05c.816 3.812 2.372 7.435 4.621 10.768 2.142 3.172 4.847 5.99 8.041 8.379a37.404 37.404 0 0 0 10.294 5.435c3.75 1.284 7.579 1.935 11.38 1.935 2.953 0 5.837-.4 8.573-1.187a28.836 28.836 0 0 0 8.032-3.72l30.874-20.067c1.83-1.83 4.247-2.796 6.99-2.796 3.538 0 7.273 1.622 9.99 4.34l40.136 38.592c2.194 2.193 3.462 5.196 3.667 8.683.19 3.229-.564 6.724-2.123 9.841l-20.068 30.874a24.952 24.952 0 0 0-3.426 6.636c-.783 2.296-1.268 4.76-1.44 7.326-.33 4.9.487 10.139 2.36 15.151 1.985 5.314 5.051 10.134 8.867 13.94 4.03 4.022 8.77 6.75 13.707 7.889l37.048 6.175c3.67.734 6.807 2.535 9.07 5.21 2.115 2.5 3.28 5.583 3.28 8.683v29.135H518.04a117.39 117.39 0 0 0-2.374-24.94 114.392 114.392 0 0 0-6.832-21.851 114.356 114.356 0 0 0-10.811-19.682 115.457 115.457 0 0 0-14.322-17.077 116.572 116.572 0 0 0-17.36-14.038 117.424 117.424 0 0 0-19.93-10.565 118.593 118.593 0 0 0-22.027-6.657 121.533 121.533 0 0 0-23.656-2.315c-7.97 0-15.907.779-23.59 2.315-7.497 1.5-14.85 3.74-21.852 6.657a114.46 114.46 0 0 0-19.682 10.565 113.968 113.968 0 0 0-17.077 14.038 114.001 114.001 0 0 0-14.038 17.077 114.466 114.466 0 0 0-10.564 19.682 116.19 116.19 0 0 0-6.658 21.852 120.559 120.559 0 0 0-2.308 24.94z"/><path id="b4bbb" d="M987.014 2197.92h-55.572c-3.1 0-6.183-1.164-8.683-3.28-2.675-2.262-4.476-5.399-5.21-9.069l-6.175-37.048c-1.585-6.866-6.193-13.24-12.976-17.95a40.141 40.141 0 0 0-10.474-5.191c-3.8-1.237-7.626-1.865-11.374-1.865-6.103 0-11.676 1.708-16.118 4.938l-30.873 20.068c-2.816 1.408-5.873 2.152-8.842 2.152-1.877 0-3.644-.3-5.254-.892-1.706-.627-3.196-1.57-4.43-2.804l-38.591-40.135c-2.313-2.313-3.86-5.408-4.246-8.491-.414-3.318.545-6.334 2.702-8.49l20.068-30.874a28.81 28.81 0 0 0 3.442-7.127 30.475 30.475 0 0 0 1.41-7.6c.291-5.027-.612-10.287-2.612-15.212-2.093-5.152-5.316-9.795-9.322-13.426a32.91 32.91 0 0 0-6.711-4.724 30.35 30.35 0 0 0-7.818-2.853l-37.05-7.718c-3.188-.798-5.857-2.399-7.718-4.631-2.048-2.459-3.087-5.575-3.087-9.263V1952.5h122.106a123.195 123.195 0 0 0-.154 6.15c0 7.971.779 15.93 2.315 23.656 1.5 7.542 3.74 14.953 6.658 22.027a117.394 117.394 0 0 0 10.564 19.93 116.574 116.574 0 0 0 14.038 17.36 115.45 115.45 0 0 0 17.077 14.321 114.338 114.338 0 0 0 19.682 10.812 114.403 114.403 0 0 0 21.852 6.832 117.396 117.396 0 0 0 23.59 2.382c7.965 0 15.924-.801 23.656-2.382a116.764 116.764 0 0 0 22.027-6.832 117.258 117.258 0 0 0 19.93-10.812 118.037 118.037 0 0 0 17.36-14.32 118.038 118.038 0 0 0 14.321-17.361 117.266 117.266 0 0 0 10.812-19.93 116.774 116.774 0 0 0 6.832-22.027 118.362 118.362 0 0 0 2.382-23.656c0-2.048-.053-4.117-.158-6.15h122.11v33.936c0 3.772-1.104 6.888-3.28 9.263-2.099 2.289-5.15 3.847-9.07 4.63l-37.048 7.719c-4.877 1.126-9.549 3.71-13.51 7.471-3.786 3.595-6.85 8.173-8.863 13.241-1.978 4.983-2.87 10.29-2.578 15.348a30.946 30.946 0 0 0 1.414 7.68 28.931 28.931 0 0 0 3.47 7.202l20.067 30.873c1.542 2.313 2.315 5.408 2.123 8.491-.208 3.318-1.51 6.334-3.667 8.49l-40.135 40.136c-2.383 2.383-5.73 3.696-9.426 3.696-2.79 0-5.474-.764-7.556-2.152l-30.873-20.068a28.97 28.97 0 0 0-8.12-3.748 31.52 31.52 0 0 0-8.668-1.19c-3.775 0-7.587.628-11.329 1.865a38.188 38.188 0 0 0-10.236 5.191c-6.523 4.663-10.994 11.038-12.589 17.95l-7.718 37.048c-.784 3.92-2.342 6.971-4.631 9.07-2.375 2.176-5.491 3.28-9.263 3.28z"/><path id="b4bbc" d="M1402.459 2333h-.001l-121.958-.001v-29.058c0-3.012 1.097-6.095 3.088-8.684 2.014-2.619 4.755-4.469 7.718-5.21l37.049-6.175a29.075 29.075 0 0 0 7.939-2.984 32.937 32.937 0 0 0 6.791-5.008c4.035-3.841 7.258-8.723 9.322-14.118 1.895-4.953 2.723-10.145 2.394-15.014a28.203 28.203 0 0 0-1.435-7.249 24.85 24.85 0 0 0-3.4-6.568l-20.068-30.874c-2.182-2.91-3.116-6.313-2.701-9.841.381-3.244 1.89-6.328 4.245-8.684l38.592-38.592c2.758-2.758 6.51-4.34 10.293-4.34 2.946 0 5.793.967 8.232 2.797l30.873 20.067c4.413 3.21 9.924 4.906 15.937 4.906 3.773 0 7.616-.65 11.423-1.935a39.255 39.255 0 0 0 10.53-5.434c3.304-2.4 6.098-5.218 8.305-8.38 2.336-3.345 3.933-6.968 4.747-10.768l6.175-37.049c.74-2.962 2.59-5.703 5.21-7.718 2.588-1.991 5.672-3.087 8.683-3.087h55.573c3.687 0 6.803 1.038 9.262 3.087 2.232 1.86 3.834 4.53 4.631 7.718l7.718 37.05c.817 3.812 2.373 7.435 4.623 10.767 2.14 3.172 4.846 5.991 8.04 8.38a37.394 37.394 0 0 0 10.294 5.434c3.75 1.284 7.579 1.935 11.38 1.935 2.953 0 5.837-.4 8.574-1.187a28.835 28.835 0 0 0 8.031-3.719l30.874-20.067c1.83-1.83 4.247-2.797 6.99-2.797 3.539 0 7.273 1.623 9.991 4.34l40.135 38.592c2.194 2.194 3.462 5.197 3.667 8.684.19 3.229-.564 6.724-2.123 9.841l-20.067 30.874a24.947 24.947 0 0 0-3.427 6.635c-.783 2.297-1.267 4.761-1.44 7.326-.329 4.9.487 10.14 2.36 15.152 1.985 5.313 5.051 10.134 8.867 13.94 4.03 4.021 8.77 6.75 13.707 7.888l37.049 6.175c3.67.734 6.806 2.536 9.069 5.21 2.115 2.5 3.28 5.584 3.28 8.684v29.057h-121.958a117.396 117.396 0 0 0-2.375-24.862 114.395 114.395 0 0 0-6.832-21.852 114.337 114.337 0 0 0-10.812-19.681 115.453 115.453 0 0 0-14.322-17.077 116.583 116.583 0 0 0-17.36-14.038 117.413 117.413 0 0 0-19.93-10.565 118.594 118.594 0 0 0-22.027-6.657 121.537 121.537 0 0 0-23.656-2.316c-7.97 0-15.907.78-23.59 2.316a116.18 116.18 0 0 0-21.852 6.657 114.453 114.453 0 0 0-19.682 10.565 113.979 113.979 0 0 0-17.077 14.038 113.983 113.983 0 0 0-14.038 17.076 114.455 114.455 0 0 0-10.564 19.682 116.184 116.184 0 0 0-6.657 21.853 120.558 120.558 0 0 0-2.31 24.862z"/></defs><g><g transform="translate(-163 -1952)"><use fill="#1e92ed" xlink:href="#b4bba"/></g><g transform="translate(-163 -1952)"><use fill="#1e92ed" xlink:href="#b4bbb"/></g><g transform="translate(-163 -1952)"><use fill="#1e92ed" xlink:href="#b4bbc"/></g></g></svg>