<svg xmlns="http://www.w3.org/2000/svg" width="42" height="42" viewBox="0 0 42 42">
  <g id="Group_26" data-name="Group 26" transform="translate(-1474 -32)">
    <path id="Path_554" data-name="Path 554" d="M21,0A21,21,0,1,1,0,21,21,21,0,0,1,21,0Z" transform="translate(1474 32)" fill="#0092e8"/>
    <g id="Symbol_4_1" data-name="Symbol 4 – 1" transform="translate(1152 -15)">
      <rect id="Rectangle_534" data-name="Rectangle 534" width="24" height="24" transform="translate(331 56)" fill="#fff" opacity="0"/>
      <path id="Union_4" data-name="Union 4" d="M-2359-211a.945.945,0,0,1-1-1,.945.945,0,0,1,1-1h18a.945.945,0,0,1,1,1,.945.945,0,0,1-1,1Zm0-6a.945.945,0,0,1-1-1,.944.944,0,0,1,1-1h18a.944.944,0,0,1,1,1,.945.945,0,0,1-1,1Z" transform="translate(2693 283)" fill="#fff"/>
    </g>
  </g>
</svg>
