<svg id="6e7d56e0-45d2-45e1-9ee9-22e066692173" data-name="Слой 1" xmlns="http://www.w3.org/2000/svg" xmlns:xlink="http://www.w3.org/1999/xlink" width="63.01" height="79.86" viewBox="0 0 63.01 79.86">
  <defs>
    <style>
      .a45a833e-3caa-41ca-b6f5-2346ae5639c6 {
        fill: url(#6fbb582c-c992-4a7a-b37b-b57c0c1d7d04);
      }

      .\34 b7901dc-bf9b-4a23-a9aa-7ba8d8f633c1 {
        fill: url(#723ee4ea-23e7-440e-95f3-c3585ff58453);
      }

      .af653c62-65e2-4a03-bd12-bf35a3155f49 {
        fill: url(#747ec3e6-45b4-4430-bd60-d1d97dd2a1f9);
      }

      .bfe1865d-31f0-47c6-b631-09b90046aff7 {
        fill: url(#1d8a6057-4388-4b3f-bee8-2ae973fc8482);
      }

      .\32 a8c1032-08ec-4a41-9f1b-ce2f4d6be4a5 {
        fill: url(#bb214e1c-5e21-432b-8178-a8a149837010);
      }

      .\38 1ed41fc-498f-4ef9-9320-f0d4b4f1a248 {
        fill: url(#caa52d41-e596-4483-a4db-dfad65e2c47b);
      }

      .\37 91cbc5f-a9ca-40aa-b586-4c7fb4d56aff {
        fill: url(#d0d901fe-c63a-49fd-b050-d4422ab7008e);
      }

      .\34 1e885af-730a-4c43-a48e-9e51179b69f7 {
        fill: url(#3a1b6f03-fcbd-4c89-84d5-5bd1cb12a773);
      }

      .\31 1aa7ba4-042a-4591-a48a-bf031fd7e892 {
        fill: url(#c284f51d-c81a-408f-a418-3af65874cd22);
      }

      .a05bf6f2-c53c-40db-a8c3-93b8984fbf5f {
        fill: url(#efa6dd0a-c8d2-44c9-becf-6be84cc70cb2);
      }

      .fae4348d-f4a4-433c-b544-14807348126b {
        fill: url(#77196eb1-ebf6-4a60-b3d7-789f5f599de9);
      }

      .\39 f858c30-64e5-4db2-b891-5d2db0f42a1e {
        fill: url(#57449738-6597-410e-b5e0-09d6dbdda143);
      }
    </style>
    <linearGradient id="6fbb582c-c992-4a7a-b37b-b57c0c1d7d04" data-name="Новый образец градиентной залив" x1="39.93" y1="79.86" x2="39.93" gradientUnits="userSpaceOnUse">
      <stop offset="0" stop-color="#ab47bc"/>
      <stop offset="1" stop-color="#2196f3"/>
    </linearGradient>
    <linearGradient id="723ee4ea-23e7-440e-95f3-c3585ff58453" x1="69.88" y1="46.93" x2="69.88" y2="43.81" xlink:href="#6fbb582c-c992-4a7a-b37b-b57c0c1d7d04"/>
    <linearGradient id="747ec3e6-45b4-4430-bd60-d1d97dd2a1f9" x1="41.02" y1="30.57" x2="41.02" y2="27.45" xlink:href="#6fbb582c-c992-4a7a-b37b-b57c0c1d7d04"/>
    <linearGradient id="1d8a6057-4388-4b3f-bee8-2ae973fc8482" x1="52.52" y1="30.57" x2="52.52" y2="27.45" xlink:href="#6fbb582c-c992-4a7a-b37b-b57c0c1d7d04"/>
    <linearGradient id="bb214e1c-5e21-432b-8178-a8a149837010" x1="49.09" y1="47.42" x2="49.09" y2="44.3" xlink:href="#6fbb582c-c992-4a7a-b37b-b57c0c1d7d04"/>
    <linearGradient id="caa52d41-e596-4483-a4db-dfad65e2c47b" x1="49.09" y1="64.26" x2="49.09" y2="61.14" xlink:href="#6fbb582c-c992-4a7a-b37b-b57c0c1d7d04"/>
    <linearGradient id="d0d901fe-c63a-49fd-b050-d4422ab7008e" x1="27.45" y1="30.57" x2="27.45" y2="19.96" xlink:href="#6fbb582c-c992-4a7a-b37b-b57c0c1d7d04"/>
    <linearGradient id="3a1b6f03-fcbd-4c89-84d5-5bd1cb12a773" x1="31.12" y1="25.84" x2="31.12" y2="19.46" xlink:href="#6fbb582c-c992-4a7a-b37b-b57c0c1d7d04"/>
    <linearGradient id="c284f51d-c81a-408f-a418-3af65874cd22" x1="27.45" y1="47.37" x2="27.45" y2="36.77" xlink:href="#6fbb582c-c992-4a7a-b37b-b57c0c1d7d04"/>
    <linearGradient id="efa6dd0a-c8d2-44c9-becf-6be84cc70cb2" x1="31.12" y1="42.64" x2="31.12" y2="36.26" xlink:href="#6fbb582c-c992-4a7a-b37b-b57c0c1d7d04"/>
    <linearGradient id="77196eb1-ebf6-4a60-b3d7-789f5f599de9" x1="27.45" y1="64.26" x2="27.45" y2="53.65" xlink:href="#6fbb582c-c992-4a7a-b37b-b57c0c1d7d04"/>
    <linearGradient id="57449738-6597-410e-b5e0-09d6dbdda143" x1="31.11" y1="59.53" x2="31.11" y2="53.15" xlink:href="#6fbb582c-c992-4a7a-b37b-b57c0c1d7d04"/>
  </defs>
  <title>how-it-work-icon-1-gradient</title>
  <g>
    <path class="a45a833e-3caa-41ca-b6f5-2346ae5639c6" d="M71.44,14a7.81,7.81,0,0,0-7.8-7.8H53.07A4.26,4.26,0,0,0,49.72,4.6H47.18A7.81,7.81,0,0,0,40.07,0h-.28a7.82,7.82,0,0,0-7.11,4.6H30.14a4.24,4.24,0,0,0-3.35,1.64H16.22A7.81,7.81,0,0,0,8.42,14v58a7.81,7.81,0,0,0,7.8,7.8H63.64a7.81,7.81,0,0,0,7.8-7.8V51.77a1.56,1.56,0,0,0-3.12,0h0V72.06a4.69,4.69,0,0,1-4.68,4.68H16.22a4.69,4.69,0,0,1-4.68-4.68V14a4.69,4.69,0,0,1,4.68-4.68h9.67v3.12H17.78a3.12,3.12,0,0,0-3.12,3.12V70.5a3.12,3.12,0,0,0,3.12,3.12h44.3A3.12,3.12,0,0,0,65.2,70.5V15.6a3.12,3.12,0,0,0-3.12-3.12H54V9.36h9.67A4.69,4.69,0,0,1,68.32,14V38.7a1.56,1.56,0,0,0,1.56,1.56h0a1.56,1.56,0,0,0,1.56-1.56ZM29,8.85a1.14,1.14,0,0,1,1.13-1.13h3.63a1.56,1.56,0,0,0,1.51-1.15,4.69,4.69,0,0,1,4.51-3.45h.28a4.68,4.68,0,0,1,4.51,3.45,1.56,1.56,0,0,0,1.51,1.15h3.63a1.14,1.14,0,0,1,1.13,1.13v3.63H29ZM62.08,15.6V70.5H17.78V15.6Z" transform="translate(-8.42 0)"/>
    <path class="4b7901dc-bf9b-4a23-a9aa-7ba8d8f633c1" d="M69.88,43.81a1.57,1.57,0,0,0-1.56,1.56,1.53,1.53,0,0,0,.46,1.11A1.56,1.56,0,1,0,71,44.27h0A1.61,1.61,0,0,0,69.88,43.81Z" transform="translate(-8.42 0)"/>
    <path class="af653c62-65e2-4a03-bd12-bf35a3155f49" d="M41,30.57a1.61,1.61,0,0,0,1.11-.46,1.57,1.57,0,0,0,0-2.2A1.59,1.59,0,0,0,41,27.45a1.56,1.56,0,0,0,0,3.12Z" transform="translate(-8.42 0)"/>
    <path class="bfe1865d-31f0-47c6-b631-09b90046aff7" d="M47.88,30.57h9.28a1.56,1.56,0,1,0,0-3.12H47.89a1.56,1.56,0,1,0,0,3.12Z" transform="translate(-8.42 0)"/>
    <path class="2a8c1032-08ec-4a41-9f1b-ce2f4d6be4a5" d="M41,47.42H57.16a1.56,1.56,0,1,0,0-3.12H41a1.56,1.56,0,1,0,0,3.12Z" transform="translate(-8.42 0)"/>
    <path class="81ed41fc-498f-4ef9-9320-f0d4b4f1a248" d="M41,64.26H57.16a1.56,1.56,0,1,0,0-3.12H41a1.56,1.56,0,1,0,0,3.12Z" transform="translate(-8.42 0)"/>
    <path class="791cbc5f-a9ca-40aa-b586-4c7fb4d56aff" d="M23.71,30.57H31.2a1.56,1.56,0,0,0,0-3.12H25.27V21.53a1.56,1.56,0,1,0-3.12,0h0V29A1.56,1.56,0,0,0,23.71,30.57Z" transform="translate(-8.42 0)"/>
    <path class="41e885af-730a-4c43-a48e-9e51179b69f7" d="M29,25.38a1.55,1.55,0,0,0,2.2,0l3.26-3.25a1.56,1.56,0,0,0,0-2.21h0a1.56,1.56,0,0,0-2.21,0l-2.15,2.15-.18-.18a1.56,1.56,0,0,0-2.21,2.2Z" transform="translate(-8.42 0)"/>
    <path class="11aa7ba4-042a-4591-a48a-bf031fd7e892" d="M23.71,47.37H31.2a1.56,1.56,0,0,0,0-3.12H25.27V38.33a1.56,1.56,0,0,0-3.12,0v7.48A1.56,1.56,0,0,0,23.71,47.37Z" transform="translate(-8.42 0)"/>
    <path class="a05bf6f2-c53c-40db-a8c3-93b8984fbf5f" d="M34.48,36.72a1.56,1.56,0,0,0-2.21,0l-2.15,2.15-.18-.18a1.56,1.56,0,0,0-2.21,2.2L29,42.18a1.55,1.55,0,0,0,2.2,0l3.26-3.25a1.56,1.56,0,0,0,0-2.21Z" transform="translate(-8.42 0)"/>
    <path class="fae4348d-f4a4-433c-b544-14807348126b" d="M23.71,64.26H31.2a1.56,1.56,0,1,0,0-3.12H25.27V55.22a1.56,1.56,0,1,0-3.12,0h0V62.7A1.56,1.56,0,0,0,23.71,64.26Z" transform="translate(-8.42 0)"/>
    <path class="9f858c30-64e5-4db2-b891-5d2db0f42a1e" d="M34.48,53.61a1.56,1.56,0,0,0-2.21,0l-2.15,2.15-.18-.18a1.56,1.56,0,0,0-2.21,2.21L29,59.07a1.55,1.55,0,0,0,2.2,0l3.26-3.25a1.56,1.56,0,0,0,0-2.21Z" transform="translate(-8.42 0)"/>
  </g>
</svg>
