<svg xmlns="http://www.w3.org/2000/svg" xmlns:xlink="http://www.w3.org/1999/xlink" width="20" height="20" viewBox="0 0 20 20"><defs><path id="yzk1a" d="M1065 262.226c-5.075 0-9.203-4.129-9.203-9.204 0-5.074 4.128-9.203 9.203-9.203 5.075 0 9.203 4.129 9.203 9.203 0 5.075-4.128 9.204-9.203 9.204zm7.071-16.275a9.934 9.934 0 0 0-7.071-2.929 9.934 9.934 0 0 0-7.071 2.93 9.934 9.934 0 0 0-2.929 7.07 9.934 9.934 0 0 0 2.929 7.072 9.934 9.934 0 0 0 7.071 2.928 9.934 9.934 0 0 0 7.071-2.928 9.935 9.935 0 0 0 2.929-7.072 9.935 9.935 0 0 0-2.929-7.07z"/><path id="yzk1b" d="M1065 260.673c-4.219 0-7.651-3.432-7.651-7.65 0-4.22 3.432-7.652 7.651-7.652 4.219 0 7.651 3.433 7.651 7.651 0 4.22-3.432 7.651-7.651 7.651zm0-16.099c-4.658 0-8.448 3.79-8.448 8.448 0 4.659 3.79 8.448 8.448 8.448s8.448-3.79 8.448-8.448-3.79-8.447-8.448-8.447z"/><path id="yzk1c" d="M1067.602 255.057l-2.203-2.202v-4.57a.398.398 0 0 0-.795 0v4.735c0 .106.042.207.116.282l2.319 2.318a.397.397 0 0 0 .563 0 .398.398 0 0 0 0-.563z"/><path id="yzk1d" d="M1065 246.007a.398.398 0 0 0-.398.398v.438a.398.398 0 0 0 .796 0v-.438a.398.398 0 0 0-.398-.398z"/><path id="yzk1e" d="M1065 258.804a.398.398 0 0 0-.398.398v.438a.398.398 0 0 0 .796 0v-.438a.398.398 0 0 0-.398-.398z"/><path id="yzk1f" d="M1071.617 252.625h-.437a.398.398 0 1 0 0 .795h.437a.398.398 0 0 0 0-.795z"/><path id="yzk1g" d="M1058.82 252.625h-.437a.398.398 0 0 0 0 .795h.437a.398.398 0 0 0 0-.795z"/></defs><g><g transform="translate(-1055 -243)"><g><g><g><use fill="#2196f3" xlink:href="#yzk1a"/></g></g></g><g><g><g><use fill="#2196f3" xlink:href="#yzk1b"/></g></g></g><g><g><g><use fill="#2196f3" xlink:href="#yzk1c"/></g></g></g><g><g><g><use fill="#2196f3" xlink:href="#yzk1d"/></g></g></g><g><g><g><use fill="#2196f3" xlink:href="#yzk1e"/></g></g></g><g><g><g><use fill="#2196f3" xlink:href="#yzk1f"/></g></g></g><g><g><g><use fill="#2196f3" xlink:href="#yzk1g"/></g></g></g></g></g></svg>