<svg xmlns="http://www.w3.org/2000/svg" width="1414.425" height="1414.425" viewBox="0 0 1414.425 1414.425">
  <g id="noun_Gear_2131952" transform="translate(315.198 0) rotate(16)">
    <g id="Group_2" data-name="Group 2">
      <path id="Path_1" data-name="Path 1" d="M1113.919,469.993l-88.818-14.8c-48.109-11.1-77.715-81.416-48.109-122.124l48.109-74.015c7.4-14.8,7.4-33.307-3.7-44.409l-96.219-92.518c-11.1-11.1-29.606-14.8-40.708-3.7L810.46,166.533c-44.409,29.606-111.022,0-122.124-51.81l-18.5-88.818C666.131,11.1,655.029,0,636.526,0H503.3c-14.8,0-29.606,11.1-33.307,25.905l-14.8,88.818c-11.1,51.81-81.416,81.416-122.124,51.81l-74.015-48.109c-14.8-11.1-33.307-7.4-44.409,3.7l-92.518,92.518c-11.1,11.1-14.8,29.606-3.7,44.409l48.109,74.015c29.606,40.708,0,111.022-51.81,122.124l-88.818,14.8C11.1,473.693,0,488.5,0,503.3V636.526c0,18.5,11.1,29.606,25.905,33.307l88.818,18.5c51.81,11.1,81.416,77.715,51.81,122.124l-48.109,74.015c-11.1,11.1-7.4,29.606,3.7,40.708l92.518,96.219c11.1,11.1,29.606,11.1,44.409,3.7l74.015-48.109c40.708-29.606,111.022,0,122.124,48.109l14.8,88.818c3.7,18.5,18.5,29.606,33.307,29.606H636.526c18.5,0,29.606-11.1,33.307-29.606l18.5-88.818c11.1-48.109,77.715-77.715,122.124-48.109l74.015,48.109c11.1,7.4,29.606,7.4,40.708-3.7l96.219-96.219c11.1-11.1,11.1-29.606,3.7-40.708L976.992,810.46c-29.606-44.409,0-111.022,48.109-122.124l88.818-18.5c18.5-3.7,29.606-14.8,29.606-33.307V503.3C1143.525,488.5,1132.423,473.693,1113.919,469.993ZM569.912,292.358c155.431,0,281.255,122.124,281.255,277.555S725.343,851.168,569.912,851.168,292.358,725.343,292.358,569.912,414.482,292.358,569.912,292.358Z" fill="#f4f4f4" fill-rule="evenodd"/>
    </g>
  </g>
</svg>
