<svg xmlns="http://www.w3.org/2000/svg" width="60" height="70" viewBox="0 0 60 70"><g><g><g><path fill="#f4f4f4" d="M44.717 0H4.258C1.982 0 .13 1.84.13 4.102v13.945c0 .755.616 1.367 1.376 1.367.76 0 1.376-.612 1.376-1.367V4.102c0-.754.618-1.368 1.376-1.368h40.46c.758 0 1.375.614 1.375 1.368V54.96c0 .754-.617 1.367-1.376 1.367H4.258a1.373 1.373 0 0 1-1.376-1.367V29.577c0-.755-.616-1.367-1.376-1.367-.76 0-1.376.612-1.376 1.367V54.96c0 2.262 1.852 4.102 4.128 4.102h40.46c2.276 0 4.128-1.84 4.128-4.102V4.1C48.846 1.84 46.994 0 44.717 0z"/></g><g><path fill="#f4f4f4" d="M2.479 23.2a1.39 1.39 0 0 0-1.946 0 1.377 1.377 0 0 0-.403.966c0 .36.147.712.403.968.256.254.611.4.973.4s.717-.146.973-.4c.256-.255.403-.607.403-.968 0-.36-.147-.711-.403-.967z"/></g><g><path fill="#f4f4f4" d="M7.99 62.21c-.257-.254-.61-.4-.974-.4a1.373 1.373 0 0 0-1.376 1.367 1.37 1.37 0 0 0 1.376 1.367 1.37 1.37 0 0 0 1.376-1.367c0-.36-.147-.712-.403-.966z"/></g><g><path fill="#f4f4f4" d="M52.985 5.48c-.76 0-1.376.612-1.376 1.367v53.594c0 .754-.618 1.367-1.376 1.367H12.526c-.76 0-1.376.612-1.376 1.367s.616 1.367 1.376 1.367h37.707c2.276 0 4.128-1.84 4.128-4.101V6.847c0-.755-.616-1.367-1.376-1.367z"/></g><g><path fill="#f4f4f4" d="M58.5 10.94c-.76 0-1.377.612-1.377 1.367v53.594c0 .754-.617 1.367-1.376 1.367h-43.21c-.76 0-1.377.612-1.377 1.367s.616 1.367 1.376 1.367h43.211c2.277 0 4.129-1.84 4.129-4.101V12.307c0-.755-.617-1.367-1.377-1.367z"/></g><g><path fill="#f4f4f4" d="M21.051 23.255H10.592v-10.4h10.459zm1.376-13.135H9.217c-.76 0-1.377.612-1.377 1.367v13.125c0 .755.616 1.367 1.376 1.367h13.211c.76 0 1.376-.612 1.376-1.367V11.487c0-.755-.616-1.367-1.376-1.367z"/></g><g><path fill="#f4f4f4" d="M17.995 32.18a1.383 1.383 0 0 0-1.947 0l-3.658 3.635-1.7-1.69a1.383 1.383 0 0 0-1.947 0 1.36 1.36 0 0 0 0 1.933l2.674 2.657a1.381 1.381 0 0 0 1.946 0l4.632-4.601c.537-.534.537-1.4 0-1.934z"/></g><g><path fill="#f4f4f4" d="M40.541 34.04H24.486c-.76 0-1.376.612-1.376 1.367s.616 1.367 1.376 1.367h16.055c.76 0 1.376-.612 1.376-1.367s-.616-1.367-1.376-1.367z"/></g><g><path fill="#f4f4f4" d="M39.76 10.12h-9.634c-.76 0-1.376.612-1.376 1.367s.616 1.367 1.376 1.367h9.633c.76 0 1.376-.612 1.376-1.367s-.616-1.367-1.376-1.367z"/></g><g><path fill="#f4f4f4" d="M39.76 16.68h-9.634c-.76 0-1.376.612-1.376 1.367s.616 1.367 1.376 1.367h9.633c.76 0 1.376-.612 1.376-1.367s-.616-1.367-1.376-1.367z"/></g><g><path fill="#f4f4f4" d="M39.76 23.24h-9.634c-.76 0-1.376.612-1.376 1.367s.616 1.367 1.376 1.367h9.633c.76 0 1.376-.612 1.376-1.367s-.616-1.367-1.376-1.367z"/></g><g><path fill="#f4f4f4" d="M17.995 42.62a1.383 1.383 0 0 0-1.947 0l-3.658 3.635-1.7-1.69a1.383 1.383 0 0 0-1.947 0 1.36 1.36 0 0 0 0 1.933l2.674 2.657a1.381 1.381 0 0 0 1.946 0l4.632-4.601c.537-.534.537-1.4 0-1.934z"/></g><g><path fill="#f4f4f4" d="M40.541 44.43H24.486c-.76 0-1.376.612-1.376 1.367s.616 1.367 1.376 1.367h16.055c.76 0 1.376-.612 1.376-1.367s-.616-1.367-1.376-1.367z"/></g></g></g></svg>