<svg xmlns="http://www.w3.org/2000/svg" width="90" height="70" viewBox="0 0 90 70"><g><g><path fill="#f4f4f4" d="M67.856 61.25c0 .967-.787 1.75-1.758 1.75s-1.758-.783-1.758-1.75.787-1.75 1.758-1.75c.97 0 1.758.783 1.758 1.75z"/></g><g><path fill="#f4f4f4" d="M86.474 10.5H3.516v-7h82.958zm-3.505 56h-8.086V22.75c0-.967-.787-1.75-1.758-1.75h-56.25c-.97 0-1.758.783-1.758 1.75V66.5H7.031V14H82.97zm-64.336-21h52.744v21H18.633zM71.377 28H18.633v-3.5h52.744zM18.633 38.5h52.744V42H18.633zM71.377 35H18.633v-3.5h52.744zM88.242 0H1.758C.787 0 0 .783 0 1.75v10.5C0 13.217.787 14 1.758 14h1.758v54.25c0 .967.787 1.75 1.757 1.75h79.454c.97 0 1.757-.783 1.757-1.75V14h1.758c.971 0 1.758-.783 1.758-1.75V1.75C90 .783 89.213 0 88.242 0z"/></g><g><path fill="#f4f4f4" d="M46.246 49.512a1.765 1.765 0 0 0-2.474-.011l-.011.01-3.516 3.5a1.744 1.744 0 0 0 0 2.475 1.763 1.763 0 0 0 2.486 0l.515-.512v6.275c0 .966.787 1.75 1.757 1.75.971 0 1.758-.784 1.758-1.75v-6.276l.515.513a1.763 1.763 0 0 0 2.486 0 1.744 1.744 0 0 0 0-2.474z"/></g><g><path fill="#f4f4f4" d="M66.098 49c-.971 0-1.758.783-1.758 1.75v3.5c0 .967.787 1.75 1.758 1.75.97 0 1.758-.783 1.758-1.75v-3.5c0-.967-.787-1.75-1.758-1.75z"/></g></g></svg>