<svg xmlns="http://www.w3.org/2000/svg" width="72" height="70" viewBox="0 0 72 70"><g><g><g><path fill="#f4f4f4" d="M53.883 41.28c-.388-.188-.84-.188-1.227.001l-17.27 8.466a1.44 1.44 0 0 0-.792 1.297v15.145l-5.828-2.843V46.237c0-.518-.28-.996-.73-1.245L19.4 40.219c-.356-.225-.855-.22-1.231-.058L2.813 46.844v-6.338l4.184-1.825 8.625-3.763c.98 1.822 1.69 3.137 1.84 3.413.497 1.01 1.966 1.044 2.499.05l1.692-3.146L35.331 42.7a1.41 1.41 0 0 0 1.264.038l8.636-4.071a1.42 1.42 0 0 0 .811-1.286V16.918l5.822-2.84v19.838c0 .542.306 1.038.789 1.275l16.535 8.165v5.404zM37.406 66.19V51.913l14.448-7.086v14.308zM20.131 43.86l5.823 3.22v14.905l-5.823-2.841zM2.812 49.937l14.507-6.314v15.511L2.812 66.191zm0-28.805l4.343-2.11.35.673c.74 1.419 2.12 4.023 4.717 8.87l.021.04c.7 1.307 1.397 2.604 2.043 3.807l-11.474 5zM18.715 2.91c5.606 0 10.168 4.608 10.168 10.271 0 1.248-.222 2.47-.659 3.634l-.025.068c-.064.145-.257.527-.554 1.099l-.012.022-.01.02c-.197.38-.395.758-.594 1.138a971.833 971.833 0 0 1-2.467 4.655l-.65 1.218c-.83 1.561-3.41 6.36-5.197 9.685a2769.449 2769.449 0 0 1-7.656-14.311c-1.235-2.336-1.652-3.156-1.787-3.436a2.542 2.542 0 0 1-.044-.097 10.311 10.311 0 0 1-.681-3.695c0-5.663 4.561-10.271 10.168-10.271zM36 25.455c.777 0 1.406-.636 1.406-1.42V21.13l5.824-2.841v18.185l-5.824 2.745v-4.395c0-.784-.63-1.42-1.406-1.42-.777 0-1.406.636-1.406 1.42v4.243l-11.6-6.33c1.419-2.643 3.025-5.643 4.414-8.254.9-1.687 1.818-3.413 2.709-5.13l.108-.198.068-.124 4.3 2.099v2.904c0 .784.63 1.42 1.407 1.42zm33.188 14.74L54.675 33.03V14.075l14.511 7.057zM53.88 10.535a1.407 1.407 0 0 0-1.221.001L36 18.663l-4.688-2.288c.26-1.04.393-2.11.393-3.194C31.705 5.952 25.88.07 18.72.07 11.56.07 5.734 5.952 5.734 13.181c0 1.082.134 2.148.392 3.187L.796 18.96A1.422 1.422 0 0 0 0 20.24v48.212c0 .488.249.942.658 1.202a1.394 1.394 0 0 0 1.359.077l16.707-8.128 16.664 8.127a1.41 1.41 0 0 0 1.224 0l16.659-8.127 2.927 1.424a1.405 1.405 0 0 0 1.877-.663 1.426 1.426 0 0 0-.657-1.896l-2.742-1.333V44.823l14.512 7.091v14.279l-2.123-1.033a1.4 1.4 0 0 0-1.877.663 1.426 1.426 0 0 0 .657 1.896l4.138 2.013a1.398 1.398 0 0 0 1.359-.077c.41-.26.658-.714.658-1.203V20.24c0-.545-.31-1.042-.796-1.279z"/></g><g><path fill="#f4f4f4" d="M18.72 9.98c1.747 0 3.168 1.435 3.168 3.198 0 1.764-1.42 3.199-3.168 3.199-1.746 0-3.167-1.435-3.167-3.199 0-1.763 1.42-3.198 3.167-3.198zm0 9.237c3.298 0 5.98-2.71 5.98-6.039 0-3.33-2.682-6.038-5.98-6.038-3.297 0-5.98 2.709-5.98 6.038 0 3.33 2.683 6.039 5.98 6.039z"/></g><g><path fill="#f4f4f4" d="M35.007 30.292a1.41 1.41 0 0 0 1.616.269c.504-.25.82-.8.782-1.365a1.43 1.43 0 0 0-1.04-1.279 1.41 1.41 0 0 0-1.544.602 1.445 1.445 0 0 0 .186 1.773z"/></g><g><path fill="#f4f4f4" d="M61.292 62.847a1.428 1.428 0 0 0-1.123 1.229c-.07.595.26 1.191.796 1.446a1.41 1.41 0 0 0 1.595-.28c.415-.42.527-1.072.277-1.608a1.416 1.416 0 0 0-1.545-.787z"/></g></g></g></svg>