<svg id="noun_Gear_2131952" xmlns="http://www.w3.org/2000/svg" width="477" height="477" viewBox="0 0 477 477">
  <g id="Group_2" data-name="Group 2">
    <path id="Path_1" data-name="Path 1" d="M464.65,196.049,427.6,189.874c-20.068-4.631-32.418-33.961-20.068-50.942L427.6,108.058c3.087-6.175,3.087-13.893-1.544-18.524L385.922,50.942c-4.631-4.631-12.349-6.175-16.981-1.544L338.068,69.466c-18.524,12.35-46.311,0-50.942-21.612l-7.718-37.049C277.864,4.631,273.233,0,265.515,0H209.942a14.827,14.827,0,0,0-13.893,10.806l-6.175,37.049c-4.631,21.612-33.961,33.961-50.942,21.612L108.058,49.4a14.053,14.053,0,0,0-18.524,1.544L50.942,89.534A14.053,14.053,0,0,0,49.4,108.058l20.068,30.874c12.35,16.981,0,46.311-21.612,50.942l-37.049,6.175A14.827,14.827,0,0,0,0,209.942v55.573c0,7.718,4.631,12.35,10.806,13.893l37.049,7.718c21.612,4.631,33.961,32.418,21.612,50.942L49.4,368.942c-4.631,4.631-3.087,12.35,1.544,16.981l38.592,40.136c4.631,4.631,12.35,4.631,18.524,1.544l30.874-20.068c16.981-12.35,46.311,0,50.942,20.068l6.175,37.049c1.544,7.718,7.718,12.35,13.893,12.35h55.573c7.718,0,12.35-4.631,13.893-12.35l7.718-37.049c4.631-20.068,32.418-32.418,50.942-20.068L368.942,427.6c4.631,3.087,12.35,3.087,16.981-1.544l40.136-40.136c4.631-4.631,4.631-12.349,1.544-16.981l-20.068-30.874c-12.35-18.524,0-46.311,20.068-50.942l37.049-7.718c7.718-1.544,12.35-6.175,12.35-13.893V209.942C477,203.767,472.369,197.592,464.65,196.049Zm-226.922-74.1c64.835,0,117.32,50.942,117.32,115.777a117.268,117.268,0,0,1-117.32,117.32c-64.835,0-115.777-52.485-115.777-117.32S172.893,121.951,237.728,121.951Z" fill="#f5f5f5" fill-rule="evenodd"/>
  </g>
</svg>
