<svg xmlns="http://www.w3.org/2000/svg" width="16" height="16" viewBox="0 0 16 16"><g><g><path fill="#333" d="M14.948 11.383c-.079-.06-.16-.122-.237-.184-.406-.324-.838-.624-1.256-.913l-.26-.18c-.535-.374-1.016-.556-1.47-.556-.613 0-1.146.336-1.587 1-.195.293-.432.436-.724.436-.172 0-.368-.049-.582-.145-1.728-.779-2.961-1.973-3.666-3.548-.341-.762-.23-1.26.37-1.665.34-.23.974-.658.93-1.477C6.413 3.22 4.348.42 3.477.1A1.705 1.705 0 0 0 2.325.1C1.325.433.607 1.02.248 1.797c-.346.75-.33 1.63.046 2.547 1.085 2.65 2.612 4.96 4.537 6.866 1.884 1.866 4.2 3.394 6.883 4.543.242.103.496.16.681.2.063.015.118.027.157.038.022.005.045.009.067.009h.021c1.263 0 2.778-1.146 3.243-2.453.408-1.144-.336-1.71-.935-2.164z"/></g></g></svg>