<svg id="db126609-1006-40df-9dca-3182bfaf3d1d" data-name="Слой 1" xmlns="http://www.w3.org/2000/svg" width="91" height="14.27" viewBox="0 0 91 14.27">
  <defs>
    <style>
      .\32 ce24cdf-585b-4477-b14e-7b15ccab7a60 {
        fill: #efce4a;
      }
    </style>
  </defs>
  <title>rating</title>
  <path id="c4cb09f7-ecd1-4195-ab98-79acd6c5d515" data-name="w3v6a" class="2ce24cdf-585b-4477-b14e-7b15ccab7a60" d="M7.5,0,9.82,4.7,15,5.45,11.25,9.1l.89,5.17L7.5,11.83,2.86,14.27,3.75,9.1,0,5.45,5.18,4.7Z"/>
  <path id="bef60ff6-c7f5-4cef-b456-bdd1824c410d" data-name="w3v6a" class="2ce24cdf-585b-4477-b14e-7b15ccab7a60" d="M26.5,0l2.32,4.7L34,5.45,30.25,9.1l.89,5.17L26.5,11.83l-4.64,2.44.89-5.17L19,5.45l5.18-.75Z"/>
  <path id="6b5695b7-4923-413a-9aa4-c2f8ae82da1d" data-name="w3v6a" class="2ce24cdf-585b-4477-b14e-7b15ccab7a60" d="M45.5,0l2.32,4.7L53,5.45,49.25,9.1l.89,5.17L45.5,11.83l-4.64,2.44.89-5.17L38,5.45l5.18-.75Z"/>
  <path id="d34fdd2e-1b25-4367-a3ac-88e708b44828" data-name="w3v6a" class="2ce24cdf-585b-4477-b14e-7b15ccab7a60" d="M64.5,0l2.32,4.7L72,5.45,68.25,9.1l.89,5.17L64.5,11.83l-4.64,2.44.89-5.17L57,5.45l5.18-.75Z"/>
  <path id="d3ef2689-5543-4706-9061-449de975d78b" data-name="w3v6a" class="2ce24cdf-585b-4477-b14e-7b15ccab7a60" d="M83.5,0l2.32,4.7L91,5.45,87.25,9.1l.89,5.17L83.5,11.83l-4.64,2.44.89-5.17L76,5.45l5.18-.75Z"/>
</svg>
