<svg id="rating" xmlns="http://www.w3.org/2000/svg" width="79.859" height="79.859" viewBox="0 0 79.859 79.859">
  <g id="Group_51" data-name="Group 51" transform="translate(19.028 43.611)">
    <g id="Group_50" data-name="Group 50">
      <path id="Path_16" data-name="Path 16" d="M126.429,284.657a2.383,2.383,0,0,1,3.186,1l4.4,8.156a1.56,1.56,0,0,0,2.932-.741V281.164a1.56,1.56,0,0,0-3.12,0V286.9l-1.472-2.726a5.515,5.515,0,0,0-10.213,3.914L125,299.925a21.363,21.363,0,0,0,3.537,7.633l5.594,7.655a1.56,1.56,0,1,0,2.519-1.841l-5.594-7.655a18.256,18.256,0,0,1-3.023-6.524l-2.855-11.836A2.386,2.386,0,0,1,126.429,284.657Z" transform="translate(-121.991 -279.604)" fill="#333"/>
    </g>
  </g>
  <g id="Group_53" data-name="Group 53" transform="translate(30.869 24.585)">
    <g id="Group_52" data-name="Group 52">
      <path id="Path_17" data-name="Path 17" d="M225.722,175.051a5.277,5.277,0,0,0-2.542.649,5.3,5.3,0,0,0-7.633-2.688,5.3,5.3,0,0,0-7.018-2.626v-7.457a5.31,5.31,0,1,0-10.62,0v2.7a1.56,1.56,0,0,0,3.12,0v-2.7a2.191,2.191,0,0,1,4.381,0v22.009a1.56,1.56,0,1,0,3.119,0v-9.717a2.191,2.191,0,1,1,4.381,0v9.717a1.56,1.56,0,1,0,3.119,0V177.6a2.191,2.191,0,1,1,4.381,0v7.341a1.56,1.56,0,0,0,3.12,0v-4.578a2.191,2.191,0,0,1,4.381,0v13.161a34.479,34.479,0,0,1-1.582,10.328l-2.2,7.016a1.56,1.56,0,1,0,2.977.933l2.2-7.016a37.6,37.6,0,0,0,1.724-11.262V180.361A5.316,5.316,0,0,0,225.722,175.051Z" transform="translate(-197.909 -157.619)" fill="#333"/>
    </g>
  </g>
  <g id="Group_55" data-name="Group 55" transform="translate(56.822 0)">
    <g id="Group_54" data-name="Group 54">
      <path id="Path_18" data-name="Path 18" d="M387.208,8.271a2.61,2.61,0,0,0-2.12-1.787l-4.777-.693-2.138-4.329A2.609,2.609,0,0,0,375.818,0h0a2.609,2.609,0,0,0-2.354,1.464l-2.135,4.33-4.777.7a2.626,2.626,0,0,0-1.454,4.479l3.458,3.369L367.74,19.1a2.623,2.623,0,0,0,3.811,2.767l4.272-2.248,4.274,2.245a2.626,2.626,0,0,0,3.809-2.769l-.817-4.758,3.456-3.37A2.61,2.61,0,0,0,387.208,8.271Zm-6.483,4.01a2.625,2.625,0,0,0-.755,2.325l.692,4.028-3.618-1.9a2.625,2.625,0,0,0-2.444,0l-3.617,1.9.69-4.028a2.626,2.626,0,0,0-.756-2.324l-2.927-2.852,4.044-.589a2.625,2.625,0,0,0,1.977-1.437l1.808-3.665,1.81,3.664a2.626,2.626,0,0,0,1.978,1.436l4.044.587Z" transform="translate(-364.301 0)" fill="#333"/>
    </g>
  </g>
  <g id="Group_57" data-name="Group 57" transform="translate(28.411 0)">
    <g id="Group_56" data-name="Group 56">
      <path id="Path_19" data-name="Path 19" d="M205.057,8.271a2.609,2.609,0,0,0-2.12-1.787l-4.777-.693-2.138-4.329A2.61,2.61,0,0,0,193.667,0h0a2.609,2.609,0,0,0-2.354,1.464l-2.135,4.33-4.777.7a2.626,2.626,0,0,0-1.454,4.479l3.458,3.369-.815,4.758a2.623,2.623,0,0,0,3.811,2.767l4.272-2.247,4.274,2.245a2.626,2.626,0,0,0,3.809-2.769l-.817-4.758,3.456-3.37A2.61,2.61,0,0,0,205.057,8.271Zm-6.483,4.01a2.625,2.625,0,0,0-.755,2.325l.692,4.028-3.618-1.9a2.625,2.625,0,0,0-2.444,0l-3.617,1.9.69-4.028a2.626,2.626,0,0,0-.756-2.324l-2.927-2.852,4.044-.589a2.626,2.626,0,0,0,1.977-1.437l1.808-3.665,1.81,3.664a2.626,2.626,0,0,0,1.978,1.436l4.044.587Z" transform="translate(-182.15 0)" fill="#0092e8"/>
    </g>
  </g>
  <g id="Group_59" data-name="Group 59" transform="translate(0 0)">
    <g id="Group_58" data-name="Group 58">
      <path id="Path_20" data-name="Path 20" d="M22.906,8.271a2.61,2.61,0,0,0-2.12-1.787l-4.777-.693L13.871,1.463A2.61,2.61,0,0,0,11.517,0h0A2.609,2.609,0,0,0,9.162,1.464L7.026,5.794l-4.777.7A2.626,2.626,0,0,0,.8,10.969l3.458,3.369L3.438,19.1a2.623,2.623,0,0,0,3.811,2.767l4.272-2.247,4.274,2.245a2.626,2.626,0,0,0,3.809-2.77l-.817-4.758,3.456-3.37A2.61,2.61,0,0,0,22.906,8.271Zm-6.483,4.01a2.625,2.625,0,0,0-.755,2.325l.692,4.028-3.618-1.9a2.625,2.625,0,0,0-2.444,0l-3.617,1.9.69-4.028a2.625,2.625,0,0,0-.756-2.324L3.688,9.432l4.044-.589A2.625,2.625,0,0,0,9.709,7.406l1.808-3.665,1.81,3.664A2.626,2.626,0,0,0,15.3,8.842l4.045.587Z" transform="translate(0 0)" fill="#333"/>
    </g>
  </g>
  <g id="Group_61" data-name="Group 61" transform="translate(30.869 37.465)">
    <g id="Group_60" data-name="Group 60">
      <path id="Path_21" data-name="Path 21" d="M200.574,240.657a1.559,1.559,0,1,0,.457,1.1A1.571,1.571,0,0,0,200.574,240.657Z" transform="translate(-197.911 -240.2)" fill="#333"/>
    </g>
  </g>
</svg>
