<svg xmlns="http://www.w3.org/2000/svg" width="36" height="36" viewBox="0 0 36 36"><g><g transform="rotate(16 18 18)"><path fill="#0092e8" d="M17.934 9.305c4.833 0 8.745 3.797 8.745 8.63a8.74 8.74 0 0 1-8.745 8.744c-4.832 0-8.63-3.912-8.63-8.745 0-4.832 3.798-8.63 8.63-8.63zm16.919 5.522l-2.762-.46c-1.496-.346-2.417-2.533-1.496-3.799l1.496-2.302c.23-.46.23-1.035-.115-1.38l-2.993-2.878c-.345-.345-.92-.46-1.266-.115L25.415 5.39c-1.38.921-3.452 0-3.798-1.611l-.575-2.762c-.115-.46-.46-.806-1.036-.806h-4.143c-.46 0-.921.345-1.036.806l-.46 2.762c-.346 1.611-2.533 2.532-3.799 1.611L8.266 3.893c-.46-.345-1.035-.23-1.38.115L4.007 6.885c-.345.346-.46.921-.115 1.381l1.496 2.302c.921 1.266 0 3.453-1.611 3.798l-2.762.46c-.46.116-.806.576-.806 1.037v4.143c0 .575.345.92.806 1.036l2.762.575c1.611.345 2.532 2.417 1.611 3.798l-1.496 2.302c-.345.345-.23.92.115 1.266l2.877 2.993c.346.345.921.345 1.381.115l2.302-1.497c1.266-.92 3.453 0 3.798 1.497l.46 2.762c.116.575.576.92 1.036.92h4.144c.575 0 .92-.345 1.036-.92l.575-2.762c.346-1.496 2.417-2.417 3.798-1.496l2.302 1.496c.345.23.92.23 1.266-.115l2.993-2.993c.345-.345.345-.92.115-1.266l-1.497-2.301c-.92-1.382 0-3.453 1.497-3.799l2.762-.575c.575-.115.92-.46.92-1.036v-4.143c0-.46-.345-.921-.92-1.036z"/></g></g></svg>