<svg id="b1181c20-f513-4fc4-97e6-dd061e81758c" data-name="182580bb-3344-4251-b5ad-1e1e651b56d4" xmlns="http://www.w3.org/2000/svg" width="48" height="48" viewBox="0 0 48 48">
  <defs>
    <style>
      .\30 954ec0e-8d4f-42dd-b1b9-d3d8c84d444f {
        fill: #ffb037;
      }
    </style>
  </defs>
  <title>grid-list</title>
  <g>
    <rect x="0.5" y="0.5" width="5" height="5"/>
    <path d="M5,1V5H1V1H5M6,0H0V6H6Z"/>
  </g>
  <g>
    <rect x="9.5" y="0.5" width="5" height="5"/>
    <path d="M14,1V5H10V1h4m1-1H9V6h6Z"/>
  </g>
  <g>
    <rect x="18.5" y="0.5" width="5" height="5"/>
    <path d="M23,1V5H19V1h4m1-1H18V6h6Z"/>
  </g>
  <g>
    <rect x="0.5" y="9.5" width="5" height="5"/>
    <path d="M5,10v4H1V10H5M6,9H0v6H6Z"/>
  </g>
  <g>
    <rect x="9.5" y="9.5" width="5" height="5"/>
    <path d="M14,10v4H10V10h4m1-1H9v6h6Z"/>
  </g>
  <g>
    <rect x="18.5" y="9.5" width="5" height="5"/>
    <path d="M23,10v4H19V10h4m1-1H18v6h6Z"/>
  </g>
  <g>
    <rect x="0.5" y="18.5" width="5" height="5"/>
    <path d="M5,19v4H1V19H5m1-1H0v6H6Z"/>
  </g>
  <g>
    <rect x="9.5" y="18.5" width="5" height="5"/>
    <path d="M14,19v4H10V19h4m1-1H9v6h6Z"/>
  </g>
  <g>
    <rect x="18.5" y="18.5" width="5" height="5"/>
    <path d="M23,19v4H19V19h4m1-1H18v6h6Z"/>
  </g>
  <g>
    <rect x="24.5" y="0.5" width="5" height="5"/>
    <path d="M29,1V5H25V1h4m1-1H24V6h6Z"/>
  </g>
  <g>
    <rect x="33.5" y="0.5" width="14" height="5"/>
    <path d="M47,1V5H34V1H47m1-1H33V6H48Z"/>
  </g>
  <g>
    <rect x="33.5" y="9.5" width="14" height="5"/>
    <path d="M47,10v4H34V10H47m1-1H33v6H48Z"/>
  </g>
  <g>
    <rect x="33.5" y="18.5" width="14" height="5"/>
    <path d="M47,19v4H34V19H47m1-1H33v6H48Z"/>
  </g>
  <g>
    <rect x="24.5" y="9.5" width="5" height="5"/>
    <path d="M29,10v4H25V10h4m1-1H24v6h6Z"/>
  </g>
  <g>
    <rect x="24.5" y="18.5" width="5" height="5"/>
    <path d="M29,19v4H25V19h4m1-1H24v6h6Z"/>
  </g>
  <g>
    <rect class="0954ec0e-8d4f-42dd-b1b9-d3d8c84d444f" x="0.5" y="24.5" width="5" height="5"/>
    <path class="0954ec0e-8d4f-42dd-b1b9-d3d8c84d444f" d="M5,25v4H1V25H5m1-1H0v6H6Z"/>
  </g>
  <g>
    <rect class="0954ec0e-8d4f-42dd-b1b9-d3d8c84d444f" x="9.5" y="24.5" width="5" height="5"/>
    <path class="0954ec0e-8d4f-42dd-b1b9-d3d8c84d444f" d="M14,25v4H10V25h4m1-1H9v6h6Z"/>
  </g>
  <g>
    <rect class="0954ec0e-8d4f-42dd-b1b9-d3d8c84d444f" x="18.5" y="24.5" width="5" height="5"/>
    <path class="0954ec0e-8d4f-42dd-b1b9-d3d8c84d444f" d="M23,25v4H19V25h4m1-1H18v6h6Z"/>
  </g>
  <g>
    <rect class="0954ec0e-8d4f-42dd-b1b9-d3d8c84d444f" x="0.5" y="33.5" width="5" height="5"/>
    <path class="0954ec0e-8d4f-42dd-b1b9-d3d8c84d444f" d="M5,34v4H1V34H5m1-1H0v6H6Z"/>
  </g>
  <g>
    <rect class="0954ec0e-8d4f-42dd-b1b9-d3d8c84d444f" x="9.5" y="33.5" width="5" height="5"/>
    <path class="0954ec0e-8d4f-42dd-b1b9-d3d8c84d444f" d="M14,34v4H10V34h4m1-1H9v6h6Z"/>
  </g>
  <g>
    <rect class="0954ec0e-8d4f-42dd-b1b9-d3d8c84d444f" x="18.5" y="33.5" width="5" height="5"/>
    <path class="0954ec0e-8d4f-42dd-b1b9-d3d8c84d444f" d="M23,34v4H19V34h4m1-1H18v6h6Z"/>
  </g>
  <g>
    <rect class="0954ec0e-8d4f-42dd-b1b9-d3d8c84d444f" x="0.5" y="42.5" width="5" height="5"/>
    <path class="0954ec0e-8d4f-42dd-b1b9-d3d8c84d444f" d="M5,43v4H1V43H5m1-1H0v6H6Z"/>
  </g>
  <g>
    <rect class="0954ec0e-8d4f-42dd-b1b9-d3d8c84d444f" x="9.5" y="42.5" width="5" height="5"/>
    <path class="0954ec0e-8d4f-42dd-b1b9-d3d8c84d444f" d="M14,43v4H10V43h4m1-1H9v6h6Z"/>
  </g>
  <g>
    <rect class="0954ec0e-8d4f-42dd-b1b9-d3d8c84d444f" x="18.5" y="42.5" width="5" height="5"/>
    <path class="0954ec0e-8d4f-42dd-b1b9-d3d8c84d444f" d="M23,43v4H19V43h4m1-1H18v6h6Z"/>
  </g>
  <g>
    <rect class="0954ec0e-8d4f-42dd-b1b9-d3d8c84d444f" x="24.5" y="24.5" width="5" height="5"/>
    <path class="0954ec0e-8d4f-42dd-b1b9-d3d8c84d444f" d="M29,25v4H25V25h4m1-1H24v6h6Z"/>
  </g>
  <g>
    <rect class="0954ec0e-8d4f-42dd-b1b9-d3d8c84d444f" x="33.5" y="24.5" width="14" height="5"/>
    <path class="0954ec0e-8d4f-42dd-b1b9-d3d8c84d444f" d="M47,25v4H34V25H47m1-1H33v6H48Z"/>
  </g>
  <g>
    <rect class="0954ec0e-8d4f-42dd-b1b9-d3d8c84d444f" x="33.5" y="33.5" width="14" height="5"/>
    <path class="0954ec0e-8d4f-42dd-b1b9-d3d8c84d444f" d="M47,34v4H34V34H47m1-1H33v6H48Z"/>
  </g>
  <g>
    <rect class="0954ec0e-8d4f-42dd-b1b9-d3d8c84d444f" x="33.5" y="42.5" width="14" height="5"/>
    <path class="0954ec0e-8d4f-42dd-b1b9-d3d8c84d444f" d="M47,43v4H34V43H47m1-1H33v6H48Z"/>
  </g>
  <g>
    <rect class="0954ec0e-8d4f-42dd-b1b9-d3d8c84d444f" x="24.5" y="33.5" width="5" height="5"/>
    <path class="0954ec0e-8d4f-42dd-b1b9-d3d8c84d444f" d="M29,34v4H25V34h4m1-1H24v6h6Z"/>
  </g>
  <g>
    <rect class="0954ec0e-8d4f-42dd-b1b9-d3d8c84d444f" x="24.5" y="42.5" width="5" height="5"/>
    <path class="0954ec0e-8d4f-42dd-b1b9-d3d8c84d444f" d="M29,43v4H25V43h4m1-1H24v6h6Z"/>
  </g>
</svg>
