<svg xmlns="http://www.w3.org/2000/svg" xmlns:xlink="http://www.w3.org/1999/xlink" width="123" height="123" viewBox="0 0 123 123"><defs><path id="6emoa" d="M511.038 1531.673l8.964-5.172-8.963-5.175 7.78-6.822-9.799-3.33 6.3-8.209-10.26-1.351 4.577-9.28-10.327.675 2.68-9.995-9.999 2.675.68-10.323-9.284 4.575-1.35-10.261-8.211 6.3-3.325-9.8-6.825 7.782-5.175-8.964-5.174 8.964-6.825-7.781-3.327 9.799-8.21-6.3-1.35 10.26-9.283-4.577.678 10.326-9.997-2.677 2.678 9.997-10.327-.677 4.578 9.282-10.26 1.349 6.3 8.211-9.801 3.326 7.78 6.826-8.963 5.172 8.963 5.175-7.781 6.825 9.801 3.327-6.301 8.208 10.26 1.352-4.577 9.283 10.327-.678-2.678 9.997 9.996-2.678-.677 10.327 9.282-4.578 1.35 10.26 8.212-6.3 3.325 9.8 6.826-7.779 5.172 8.962 5.176-8.962 6.823 7.782 3.329-9.802 8.209 6.3 1.352-10.26 9.28 4.577-.676-10.327 9.996 2.68-2.677-9.999 10.326.68-4.577-9.285 10.26-1.349-6.299-8.211 9.8-3.327z"/></defs><g><g transform="translate(-397 -1465)"><use fill="#34c399" xlink:href="#6emoa"/></g></g></svg>