<svg id="a8086867-a7e1-4347-a2e6-9111effffcbc" data-name="Слой 1" xmlns="http://www.w3.org/2000/svg" width="14" height="14" viewBox="0 0 14 14">
  <defs>
    <style>
      .\39 fcb5283-051a-44e9-8868-166fb0ae2a5a {
        fill: #e5e5e5;
      }
    </style>
  </defs>
  <title>calculator-range__popup-close</title>
  <path class="9fcb5283-051a-44e9-8868-166fb0ae2a5a" d="M8.24,7l5.5-5.51a.85.85,0,0,0,0-1.23.85.85,0,0,0-1.23,0L7,5.76,1.49.26A.85.85,0,0,0,.26.26a.85.85,0,0,0,0,1.23L5.76,7,.26,12.51a.85.85,0,0,0,0,1.23A.87.87,0,0,0,.88,14a.87.87,0,0,0,.61-.26L7,8.24l5.51,5.5a.87.87,0,1,0,1.23-1.24Z" transform="translate(0 0)"/>
</svg>
