<svg id="d1438f0e-6bae-4d09-8191-6a4f85c08c14" data-name="Слой 1" xmlns="http://www.w3.org/2000/svg" width="23.04" height="29.42" viewBox="0 0 23.04 29.42">
  <defs>
    <style>
      .\30 81c1207-ce57-43e4-9ca8-b70091c2f23c {
        fill: #dce1ea;
      }

      .\36 421569a-ace9-40b6-9631-7aac2d6ba48c {
        fill: #6175a1;
      }

      .\39 c9a8d7f-8254-4b39-8fac-58538ad77a3a {
        fill: #fff;
      }
    </style>
  </defs>
  <title>cod-links__button-2</title>
  <path class="081c1207-ce57-43e4-9ca8-b70091c2f23c" d="M19.83,26.43v-.62a8.31,8.31,0,0,0-16.62,0v.62a2.15,2.15,0,0,0,2.15,2.15H17.68A2.15,2.15,0,0,0,19.83,26.43Z" transform="translate(0)"/>
  <path class="6421569a-ace9-40b6-9631-7aac2d6ba48c" d="M22,10.45H20.29a8.77,8.77,0,0,0-17.54,0H1.07a10.45,10.45,0,0,1,20.9,0Z" transform="translate(0)"/>
  <path class="9c9a8d7f-8254-4b39-8fac-58538ad77a3a" d="M18.13,9.37a1.19,1.19,0,0,1,.55-1A2.28,2.28,0,0,1,19.89,8a2.32,2.32,0,0,1,2.31,2.31v1.55a2.32,2.32,0,0,1-2.31,2.3,2.28,2.28,0,0,1-1.21-.35,1.17,1.17,0,0,1-.55-1Z" transform="translate(0)"/>
  <path class="9c9a8d7f-8254-4b39-8fac-58538ad77a3a" d="M4.91,9.37a1.19,1.19,0,0,0-.55-1A2.28,2.28,0,0,0,3.15,8,2.32,2.32,0,0,0,.84,10.33v1.55a2.32,2.32,0,0,0,2.31,2.3,2.28,2.28,0,0,0,1.21-.35,1.17,1.17,0,0,0,.55-1Z" transform="translate(0)"/>
  <path class="6421569a-ace9-40b6-9631-7aac2d6ba48c" d="M3.15,8.87a1.46,1.46,0,0,0-1.46,1.46v1.55a1.46,1.46,0,0,0,1.46,1.46,1.5,1.5,0,0,0,.77-.22.35.35,0,0,0,.15-.28V9.37a.33.33,0,0,0-.15-.28A1.41,1.41,0,0,0,3.15,8.87Zm0,6.16A3.16,3.16,0,0,1,0,11.88V10.33A3.14,3.14,0,0,1,4.81,7.66a2,2,0,0,1,.94,1.71v3.47a2,2,0,0,1-.94,1.71A3.14,3.14,0,0,1,3.15,15Z" transform="translate(0)"/>
  <path class="6421569a-ace9-40b6-9631-7aac2d6ba48c" d="M11.52,18.34a7.48,7.48,0,0,0-7.47,7.47v.62a1.31,1.31,0,0,0,1.31,1.31H17.68A1.31,1.31,0,0,0,19,26.43v-.62A7.48,7.48,0,0,0,11.52,18.34Zm6.16,11.08H5.36a3,3,0,0,1-3-3v-.62a9.16,9.16,0,0,1,18.32,0v.62A3,3,0,0,1,17.68,29.42Z" transform="translate(0)"/>
  <path class="6421569a-ace9-40b6-9631-7aac2d6ba48c" d="M11.52,4.92a5.72,5.72,0,1,0,5.72,5.72A5.72,5.72,0,0,0,11.52,4.92Zm0,13.13a7.41,7.41,0,1,1,7.41-7.41A7.41,7.41,0,0,1,11.52,18.05Z" transform="translate(0)"/>
  <path class="6421569a-ace9-40b6-9631-7aac2d6ba48c" d="M19.89,8.87a1.43,1.43,0,0,0-.77.22.33.33,0,0,0-.15.28v3.47a.35.35,0,0,0,.15.28,1.52,1.52,0,0,0,.77.22,1.46,1.46,0,0,0,1.46-1.46V10.33A1.46,1.46,0,0,0,19.89,8.87Zm0,6.16a3.14,3.14,0,0,1-1.66-.48,2,2,0,0,1-.94-1.71V9.37a2,2,0,0,1,.94-1.71A3.14,3.14,0,0,1,23,10.33v1.55A3.16,3.16,0,0,1,19.89,15Z" transform="translate(0)"/>
  <path class="6421569a-ace9-40b6-9631-7aac2d6ba48c" d="M18,14.07h-6a.84.84,0,0,1,0-1.68h6a.84.84,0,1,1,0,1.68Z" transform="translate(0)"/>
</svg>
