<svg id="70490e82-f0af-47f5-8395-bf859251bb0a" data-name="Слой 1" xmlns="http://www.w3.org/2000/svg" width="336" height="42" viewBox="0 0 336 42">
  <defs>
    <style>
      .db95dc18-cba0-4aa1-b888-ca7c203a3931 {
        fill: #e1e6e8;
      }

      .\31 f6a688a-0cdf-4d75-b67a-ef440822f095, .dc7c6a7d-121a-4133-9088-8766eb085684 {
        fill: #fff;
      }

      .f847f9dc-36a6-4058-beb5-02a0809c9ae3 {
        fill: #444565;
      }

      .e65251ec-90c9-4cd2-99ed-69c82365819b {
        fill: #a4b2d1;
      }

      .\30 ff6deb5-702c-4365-8667-041c7c143469 {
        fill: #77d2a5;
      }

      .d3702aef-63fa-41a3-94c6-2cdea3e3f1cf {
        fill: #e1e6e9;
      }

      .\31 62dbef8-433f-4c4a-8751-b30b178a00fe {
        fill: #4fbf9f;
      }

      .\38 5a7777b-da7d-4440-a993-2e429cecf2b2 {
        fill: #d1d8e8;
      }

      .\32 34f0273-4eb8-4eda-86e7-5e3731dfb254 {
        fill: #193651;
      }

      .\31 f6a688a-0cdf-4d75-b67a-ef440822f095 {
        opacity: 0;
      }
    </style>
  </defs>
  <title>Symbol 14 – 1</title>
  <g>
    <path class="db95dc18-cba0-4aa1-b888-ca7c203a3931" d="M159,19.68a11.63,11.63,0,0,1-3.51,8.52,11.93,11.93,0,0,1-16.94,0,11.63,11.63,0,0,1-3.51-8.52,11.63,11.63,0,0,1,3.51-8.52,11.93,11.93,0,0,1,16.94,0A11.63,11.63,0,0,1,159,19.68Z"/>
    <path class="dc7c6a7d-121a-4133-9088-8766eb085684" d="M157.39,10.77a4.66,4.66,0,0,0-4.62-4.39h-.12a6.45,6.45,0,0,0-12.48.12,3.48,3.48,0,0,0-4.06,4.4,4.33,4.33,0,0,0,.75,8.59h20.59a4.33,4.33,0,0,0,4.31-4.33A4.57,4.57,0,0,0,157.39,10.77Z"/>
    <path class="f847f9dc-36a6-4058-beb5-02a0809c9ae3" d="M139.35,6.94a2.95,2.95,0,0,0-2.8,3.7.67.67,0,0,1-.07.51.64.64,0,0,1-.43.25,3.7,3.7,0,0,0,.62,7.34h20.59a3.7,3.7,0,0,0,.07-7.4.62.62,0,0,1-.63-.57,4,4,0,0,0-4-3.83h-.13A.62.62,0,0,1,152,6.5a5.82,5.82,0,0,0-5.62-4.33,5.89,5.89,0,0,0-5.68,4.4.62.62,0,0,1-.74.43C139.73,7,139.54,6.94,139.35,6.94ZM157.26,20H136.67a4.94,4.94,0,0,1-1.43-9.67,4.23,4.23,0,0,1,1.18-3.39,3.85,3.85,0,0,1,3.18-1.19A7.21,7.21,0,0,1,146.28.92,7,7,0,0,1,153,5.69a5.25,5.25,0,0,1,4.86,4.45,4.94,4.94,0,0,1,4.31,4.9A4.83,4.83,0,0,1,157.26,20Z"/>
    <path class="e65251ec-90c9-4cd2-99ed-69c82365819b" d="M161.51,14.28a4.23,4.23,0,0,0-4.12-3.51,4.66,4.66,0,0,0-4.62-4.39h-.12a6.45,6.45,0,0,0-12.48.12,3.48,3.48,0,0,0-4.06,4.4,4.11,4.11,0,0,0-3.62,3.38"/>
    <path class="f847f9dc-36a6-4058-beb5-02a0809c9ae3" d="M132.49,14.91h-.12a.63.63,0,0,1-.5-.75,5,5,0,0,1,3.37-3.83,4.23,4.23,0,0,1,1.18-3.39,3.85,3.85,0,0,1,3.18-1.19A7.21,7.21,0,0,1,146.28.92,7,7,0,0,1,153,5.69a5.27,5.27,0,0,1,4.87,4.45,4.93,4.93,0,0,1,4.18,4,.69.69,0,0,1-.5.75.67.67,0,0,1-.75-.5,3.68,3.68,0,0,0-3.56-3,.61.61,0,0,1-.62-.57,4,4,0,0,0-4-3.83h-.12a.61.61,0,0,1-.62-.43,5.81,5.81,0,0,0-5.62-4.33,5.89,5.89,0,0,0-5.68,4.39.65.65,0,0,1-.75.44,2.77,2.77,0,0,0-2.62.81,3,3,0,0,0-.75,2.83.69.69,0,0,1-.06.5.61.61,0,0,1-.44.25,3.66,3.66,0,0,0-3,2.95C133.05,14.72,132.8,14.91,132.49,14.91Z"/>
    <path class="0ff6deb5-702c-4365-8667-041c7c143469" d="M148.9,37.38h17.47a3.08,3.08,0,0,1-3.05,3.08H152A3.08,3.08,0,0,1,148.9,37.38Z"/>
    <path class="f847f9dc-36a6-4058-beb5-02a0809c9ae3" d="M149.65,38A2.43,2.43,0,0,0,152,39.83h11.42A2.36,2.36,0,0,0,165.69,38Zm13.73,3.07H152a3.69,3.69,0,0,1-3.68-3.7.59.59,0,0,1,.62-.63h17.47a.59.59,0,0,1,.63.63A3.61,3.61,0,0,1,163.38,41.08Z"/>
    <path class="dc7c6a7d-121a-4133-9088-8766eb085684" d="M151,28.15h13.42a1,1,0,0,1,1,1v8.22H150V29.16A1,1,0,0,1,151,28.15Z"/>
    <path class="f847f9dc-36a6-4058-beb5-02a0809c9ae3" d="M150.59,36.75h14.16V29.16a.36.36,0,0,0-.37-.38H151a.36.36,0,0,0-.37.38ZM165.38,38H150a.59.59,0,0,1-.62-.63V29.16A1.62,1.62,0,0,1,151,27.53h13.42A1.62,1.62,0,0,1,166,29.16v8.22A.59.59,0,0,1,165.38,38Z"/>
    <path class="db95dc18-cba0-4aa1-b888-ca7c203a3931" d="M127.62,37.38H145.1A3.08,3.08,0,0,1,142,40.46H130.68A3.08,3.08,0,0,1,127.62,37.38Z"/>
    <path class="f847f9dc-36a6-4058-beb5-02a0809c9ae3" d="M128.37,38a2.43,2.43,0,0,0,2.31,1.82H142.1A2.36,2.36,0,0,0,144.41,38Zm13.73,3.07H130.68a3.69,3.69,0,0,1-3.68-3.7.59.59,0,0,1,.62-.63H145.1a.59.59,0,0,1,.62.63A3.61,3.61,0,0,1,142.1,41.08Z"/>
    <path class="dc7c6a7d-121a-4133-9088-8766eb085684" d="M129.68,28.15H143.1a1,1,0,0,1,1,1v8.22H128.68V29.16A1,1,0,0,1,129.68,28.15Z"/>
    <path class="f847f9dc-36a6-4058-beb5-02a0809c9ae3" d="M129.31,36.75h14.16V29.16a.36.36,0,0,0-.37-.38H129.68a.36.36,0,0,0-.37.38ZM144.1,38H128.68a.59.59,0,0,1-.62-.63V29.16a1.62,1.62,0,0,1,1.62-1.63H143.1a1.61,1.61,0,0,1,1.62,1.63v8.22A.59.59,0,0,1,144.1,38Z"/>
    <rect class="f847f9dc-36a6-4058-beb5-02a0809c9ae3" x="143.22" y="9.45" width="1.25" height="1.26"/>
    <rect class="f847f9dc-36a6-4058-beb5-02a0809c9ae3" x="146.34" y="9.45" width="1.25" height="1.26"/>
    <rect class="f847f9dc-36a6-4058-beb5-02a0809c9ae3" x="149.46" y="9.45" width="1.25" height="1.26"/>
    <rect class="f847f9dc-36a6-4058-beb5-02a0809c9ae3" x="152.33" y="29.54" width="1.25" height="1.26"/>
    <rect class="f847f9dc-36a6-4058-beb5-02a0809c9ae3" x="152.33" y="32.11" width="1.25" height="1.26"/>
    <rect class="f847f9dc-36a6-4058-beb5-02a0809c9ae3" x="152.33" y="34.74" width="1.25" height="1.26"/>
    <rect class="f847f9dc-36a6-4058-beb5-02a0809c9ae3" x="131.18" y="29.54" width="1.25" height="1.26"/>
    <rect class="f847f9dc-36a6-4058-beb5-02a0809c9ae3" x="131.18" y="32.11" width="1.25" height="1.26"/>
    <rect class="f847f9dc-36a6-4058-beb5-02a0809c9ae3" x="131.18" y="34.74" width="1.25" height="1.26"/>
    <path class="f847f9dc-36a6-4058-beb5-02a0809c9ae3" d="M163.94,28.78a.59.59,0,0,1-.62-.63V14.91h-1.81a.63.63,0,1,1,0-1.25h2.43a.59.59,0,0,1,.62.62V28.15A.62.62,0,0,1,163.94,28.78Z"/>
    <path class="f847f9dc-36a6-4058-beb5-02a0809c9ae3" d="M130,28.78a.59.59,0,0,1-.62-.63V14.28a.59.59,0,0,1,.62-.62h2.44a.63.63,0,0,1,0,1.25h-1.81V28.15A.63.63,0,0,1,130,28.78Z"/>
    <path class="dc7c6a7d-121a-4133-9088-8766eb085684" d="M153.77,20.56V18.8l-1.62-.31a5.56,5.56,0,0,0-.69-1.63l.94-1.38-1.25-1.26-1.37.94a4.86,4.86,0,0,0-1.63-.69l-.31-1.63h-1.75l-.31,1.63a5.5,5.5,0,0,0-1.62.69l-1.37-.94-1.25,1.26.93,1.38a4.65,4.65,0,0,0-.68,1.63l-1.5.31v1.76l1.62.31a5.61,5.61,0,0,0,.69,1.64l-.94,1.31,1.25,1.26,1.37-.94a4.86,4.86,0,0,0,1.63.69l.31,1.63H148l.31-1.63a5.5,5.5,0,0,0,1.62-.69l1.37.94,1.25-1.26-.94-1.38a4.49,4.49,0,0,0,.69-1.63Z"/>
    <path class="f847f9dc-36a6-4058-beb5-02a0809c9ae3" d="M146.72,25.83h.68l.19-1.13a.67.67,0,0,1,.5-.5,5.59,5.59,0,0,0,1.44-.56.64.64,0,0,1,.68,0l.94.69.5-.51-.69-.94a.71.71,0,0,1,0-.69,4,4,0,0,0,.56-1.44.67.67,0,0,1,.5-.5l1.12-.19v-.69L152,19.18a.67.67,0,0,1-.5-.5,5.66,5.66,0,0,0-.56-1.45.71.71,0,0,1,0-.69l.69-.94-.56-.5-.94.69a.66.66,0,0,1-.69,0,3.92,3.92,0,0,0-1.43-.56.68.68,0,0,1-.5-.51l-.19-1.13h-.62l-.19,1.13a.68.68,0,0,1-.5.51,5.39,5.39,0,0,0-1.43.56.66.66,0,0,1-.69,0L143,15.1l-.5.5.69.94a.66.66,0,0,1,0,.69,4.09,4.09,0,0,0-.56,1.45.67.67,0,0,1-.5.5l-1.12.19v.69l1.12.19a.67.67,0,0,1,.5.5,5.59,5.59,0,0,0,.56,1.44.66.66,0,0,1,0,.69l-.69.94.5.51.94-.69a.66.66,0,0,1,.69,0,3.92,3.92,0,0,0,1.43.56.67.67,0,0,1,.5.5Zm1.18,1.26h-1.74a.61.61,0,0,1-.63-.5l-.25-1.26a8.52,8.52,0,0,1-1.06-.44l-1.06.75a.65.65,0,0,1-.81-.06l-1.25-1.25a.66.66,0,0,1-.06-.82l.75-1.07a5.61,5.61,0,0,1-.44-1.06l-1.25-.25a.62.62,0,0,1-.5-.63V18.8a.61.61,0,0,1,.5-.62l1.25-.26a7.93,7.93,0,0,1,.44-1.06L141,15.79a.67.67,0,0,1,.06-.82l1.25-1.25a.65.65,0,0,1,.81-.06l1.06.75a5.61,5.61,0,0,1,1.06-.44l.25-1.25a.61.61,0,0,1,.63-.51h1.74a.62.62,0,0,1,.63.51l.25,1.25a8.52,8.52,0,0,1,1.06.44l1.06-.75a.65.65,0,0,1,.81.06L153,15a.67.67,0,0,1,.06.82l-.81,1.13a5.44,5.44,0,0,1,.44,1.07l1.24.25a.6.6,0,0,1,.5.63v1.75a.6.6,0,0,1-.5.63l-1.24.25a8,8,0,0,1-.44,1.07l.75,1.07a.68.68,0,0,1-.06.81l-1.25,1.26a.66.66,0,0,1-.81.06L149.78,25a6.47,6.47,0,0,1-1.07.44l-.25,1.25A.57.57,0,0,1,147.9,27.09Z"/>
    <path class="0ff6deb5-702c-4365-8667-041c7c143469" d="M149.59,19.68a2.56,2.56,0,1,1-5.12,0,2.56,2.56,0,1,1,5.12,0Z"/>
  </g>
  <g>
    <path class="dc7c6a7d-121a-4133-9088-8766eb085684" d="M265.75,24.25a11.71,11.71,0,0,1,.89,2.6,13.25,13.25,0,0,1,.41,3.35h11.83v-.82a10.93,10.93,0,0,1,1.71-6,11.52,11.52,0,0,1,1.5-2.19,11.85,11.85,0,1,0-18.39-.27A16.54,16.54,0,0,1,265.75,24.25Z"/>
    <path class="f847f9dc-36a6-4058-beb5-02a0809c9ae3" d="M267.74,29.51h10.53v-.13A11.62,11.62,0,0,1,280,23a13,13,0,0,1,1.58-2.26,11.13,11.13,0,0,0-8.55-18.32,11,11,0,0,0-7.59,2.94,11.27,11.27,0,0,0-1.23,15.18A20.1,20.1,0,0,1,266.44,24a17.4,17.4,0,0,1,.95,2.74C267.53,27.6,267.67,28.56,267.74,29.51Zm11.14,1.37H267.05a.68.68,0,0,1-.68-.68A12.35,12.35,0,0,0,266,27a11.91,11.91,0,0,0-.82-2.46,16.5,16.5,0,0,0-2-3.21,12.55,12.55,0,1,1,19.42.27,8.5,8.5,0,0,0-1.36,2.05,10.18,10.18,0,0,0-1.65,5.68v.89A.64.64,0,0,1,278.88,30.88Z"/>
    <path class="0ff6deb5-702c-4365-8667-041c7c143469" d="M279.15,6.74a9.3,9.3,0,0,0-12.37.07,9.19,9.19,0,0,0-1,12.45,18.36,18.36,0,0,1,2.39,3.89,12.92,12.92,0,0,1,1.1,3.15,8.68,8.68,0,0,1,.27,2.26V30.2h6.77V28.35a10.19,10.19,0,0,1,.21-2.05,15.09,15.09,0,0,1,1.71-4.24,11.35,11.35,0,0,1,1.77-2.6A9.18,9.18,0,0,0,279.15,6.74Z"/>
    <rect class="db95dc18-cba0-4aa1-b888-ca7c203a3931" x="266.71" y="30.2" width="12.51" height="7.73"/>
    <path class="f847f9dc-36a6-4058-beb5-02a0809c9ae3" d="M267.39,37.24h11.15V30.88H267.39Zm11.83,1.37H266.71a.69.69,0,0,1-.68-.69V30.2a.68.68,0,0,1,.68-.69h12.51a.7.7,0,0,1,.69.69v7.72A.69.69,0,0,1,279.22,38.61Z"/>
    <path class="f847f9dc-36a6-4058-beb5-02a0809c9ae3" d="M280,36H266a.7.7,0,0,1-.69-.69.69.69,0,0,1,.69-.68H280A.69.69,0,1,1,280,36Z"/>
    <path class="f847f9dc-36a6-4058-beb5-02a0809c9ae3" d="M280,33.41H266A.69.69,0,1,1,266,32H280a.7.7,0,0,1,.69.69A.69.69,0,0,1,280,33.41Z"/>
    <rect class="dc7c6a7d-121a-4133-9088-8766eb085684" x="269.99" y="37.92" width="5.95" height="2.39"/>
    <path class="f847f9dc-36a6-4058-beb5-02a0809c9ae3" d="M270.68,39.63h4.58V38.54h-4.58ZM275.94,41H270a.68.68,0,0,1-.68-.68v-2.4a.68.68,0,0,1,.68-.68h5.95a.68.68,0,0,1,.68.68v2.4A.64.64,0,0,1,275.94,41Z"/>
    <polygon class="dc7c6a7d-121a-4133-9088-8766eb085684" points="274.3 7.7 269.03 15.84 273.68 15.84 272.25 21.17 276.97 14.13 272.66 14.13 274.3 7.7"/>
  </g>
  <g>
    <path class="d3702aef-63fa-41a3-94c6-2cdea3e3f1cf" d="M234.94,10V1.62h-2.56V7.44H221.25a1,1,0,0,0-.81.31l-5.31,4.56a1.23,1.23,0,0,0-.44,1,1.11,1.11,0,0,0,.5.94l3.5,2.5,1.56-2L218,13.19l3.38-2.88V28h2.5V17.37H231v4.44h2.5v-5a2.24,2.24,0,0,0-2.25-2.25h-3.5V9.94Z"/>
    <path class="f847f9dc-36a6-4058-beb5-02a0809c9ae3" d="M218.94,13.19l1.62,1.12.13.13V11.75Zm2.93,14.25h1.25v-10a.59.59,0,0,1,.63-.63H231a.59.59,0,0,1,.62.63v3.81h1.25V16.87a1.65,1.65,0,0,0-1.62-1.62h-3.5a.59.59,0,0,1-.63-.63V10a.65.65,0,0,1,.63-.63h6.56V2.25H233V7.44a.59.59,0,0,1-.63.62H221.31a.67.67,0,0,0-.44.13l-5.31,4.56a.54.54,0,0,0-.19.5.58.58,0,0,0,.25.5l3,2.13.75-1-1.75-1.19a.59.59,0,0,1-.25-.5.72.72,0,0,1,.19-.5l3.38-2.88a.57.57,0,0,1,.68-.06.61.61,0,0,1,.38.56V27.44Zm1.94,1.25h-2.5a.59.59,0,0,1-.62-.63V15.19l-1.57,1.93a.65.65,0,0,1-.87.13l-3.5-2.5a1.91,1.91,0,0,1-.75-1.44,2.21,2.21,0,0,1,.62-1.5l5.32-4.56a1.94,1.94,0,0,1,1.12-.44h10.56V1.63a.58.58,0,0,1,.19-.44.86.86,0,0,1,.56-.19h2.57a.59.59,0,0,1,.62.63V10a.56.56,0,0,1-.19.44.57.57,0,0,1-.43.19h-6.57V14h2.88a2.87,2.87,0,0,1,2.87,2.88v5a.59.59,0,0,1-.62.62H231a.59.59,0,0,1-.63-.62V18.06h-5.93v10A.68.68,0,0,1,223.81,28.69Z"/>
    <path class="162dbef8-433f-4c4a-8751-b30b178a00fe" d="M233.06,37.31a3.07,3.07,0,0,1,3.06-3.06H214.69a3.06,3.06,0,1,0,0,6.12h21.43A3.07,3.07,0,0,1,233.06,37.31Z"/>
    <path class="f847f9dc-36a6-4058-beb5-02a0809c9ae3" d="M233.37,39.75H214.69a2.48,2.48,0,0,1-2.44-2.44,2.43,2.43,0,0,1,2.44-2.43h18.68a3.65,3.65,0,0,0,0,4.87Zm2.82,0a2.44,2.44,0,1,1,0-4.87.63.63,0,0,0,0-1.26h-21.5A3.69,3.69,0,0,0,211,37.31,3.74,3.74,0,0,0,214.69,41h21.43a.59.59,0,0,0,.63-.63A.54.54,0,0,0,236.19,39.75Z"/>
    <path class="dc7c6a7d-121a-4133-9088-8766eb085684" d="M214.69,38.12a.88.88,0,1,1,0-1.75h16.25a3.49,3.49,0,0,0-.07.88,3.65,3.65,0,0,0,.07.87Z"/>
    <path class="85a7777b-da7d-4440-a993-2e429cecf2b2" d="M240.44,31.12a3.07,3.07,0,0,1,3.06-3.06H222.06a3.07,3.07,0,0,0,0,6.13H243.5A3.07,3.07,0,0,1,240.44,31.12Z"/>
    <path class="f847f9dc-36a6-4058-beb5-02a0809c9ae3" d="M240.75,33.56H222.06a2.44,2.44,0,1,1,0-4.87h18.69a3.62,3.62,0,0,0,0,4.87Zm2.75,0a2.44,2.44,0,1,1,0-4.87.63.63,0,0,0,0-1.25H222.06a3.69,3.69,0,0,0-3.69,3.69,3.73,3.73,0,0,0,3.69,3.68H243.5a.63.63,0,0,0,0-1.25Z"/>
    <path class="dc7c6a7d-121a-4133-9088-8766eb085684" d="M222.06,32a.88.88,0,0,1,0-1.75h16.25a4,4,0,0,0-.06.87,4.29,4.29,0,0,0,.06.88Z"/>
    <path class="d3702aef-63fa-41a3-94c6-2cdea3e3f1cf" d="M247.31,24.94a3.07,3.07,0,0,1,3.06-3.06H228.94a3.06,3.06,0,1,0,0,6.12h21.43A3,3,0,0,1,247.31,24.94Z"/>
    <path class="f847f9dc-36a6-4058-beb5-02a0809c9ae3" d="M247.62,27.44H228.94A2.44,2.44,0,0,1,226.5,25a2.48,2.48,0,0,1,2.44-2.44h18.68a3.7,3.7,0,0,0-.93,2.44A3.53,3.53,0,0,0,247.62,27.44Zm2.75,0A2.44,2.44,0,0,1,247.94,25a2.48,2.48,0,0,1,2.43-2.44.63.63,0,1,0,0-1.25H228.94a3.69,3.69,0,1,0,0,7.38h21.43a.63.63,0,1,0,0-1.25Z"/>
    <path class="dc7c6a7d-121a-4133-9088-8766eb085684" d="M228.94,25.81a.88.88,0,1,1,0-1.75h16.25a3.49,3.49,0,0,0-.07.88,3.65,3.65,0,0,0,.07.87Z"/>
    <circle class="dc7c6a7d-121a-4133-9088-8766eb085684" cx="225.75" cy="4.56" r="2.94"/>
    <path class="f847f9dc-36a6-4058-beb5-02a0809c9ae3" d="M225.75,2.25a2.3,2.3,0,0,0-2.31,2.31,2.27,2.27,0,0,0,2.31,2.32,2.32,2.32,0,0,0,0-4.63Zm0,5.81a3.55,3.55,0,0,1-3.56-3.56A3.5,3.5,0,0,1,225.75,1a3.55,3.55,0,0,1,3.56,3.56A3.5,3.5,0,0,1,225.75,8.06Z"/>
    <path class="f847f9dc-36a6-4058-beb5-02a0809c9ae3" d="M242.5,22.5a.59.59,0,0,1-.62-.62V1.63a.63.63,0,1,1,1.25,0V21.88A.59.59,0,0,1,242.5,22.5Z"/>
    <polygon class="0ff6deb5-702c-4365-8667-041c7c143469" points="242.5 1.63 242.5 8.75 250.37 5.19 242.5 1.63"/>
    <path class="f847f9dc-36a6-4058-beb5-02a0809c9ae3" d="M243.13,2.63V7.81l5.75-2.62Zm-.63,6.75a.49.49,0,0,1-.31-.13.63.63,0,0,1-.31-.5V1.63a.54.54,0,0,1,.31-.5.7.7,0,0,1,.62-.07l7.88,3.56a.67.67,0,0,1,.31.57.6.6,0,0,1-.37.56l-7.88,3.56C242.69,9.38,242.63,9.38,242.5,9.38Z"/>
  </g>
  <g>
    <path class="dc7c6a7d-121a-4133-9088-8766eb085684" d="M118.86,14.69a4.76,4.76,0,0,0-1.69.28,5.06,5.06,0,0,0,.49-2.26,4.88,4.88,0,0,0-4.72-5,4.22,4.22,0,0,0-2.47.78,7,7,0,0,0-14-.14,3.92,3.92,0,0,0-2.19-.64,4.4,4.4,0,0,0-4.23,4.52,4.87,4.87,0,0,0,.7,2.47,5.59,5.59,0,0,0-5.15,5.71,5.61,5.61,0,0,0,5.44,5.79h27.79a5.66,5.66,0,0,0,5.43-5.79A5.54,5.54,0,0,0,118.86,14.69Z"/>
    <path class="f847f9dc-36a6-4058-beb5-02a0809c9ae3" d="M94.38,8.41a3.65,3.65,0,0,0-3.52,3.81,4.31,4.31,0,0,0,.56,2.11.65.65,0,0,1,0,.71.71.71,0,0,1-.56.35,4.84,4.84,0,0,0-4.45,5,5,5,0,0,0,4.73,5.08h27.79a4.91,4.91,0,0,0,4.73-5.08,5,5,0,0,0-4.73-5.08,4.62,4.62,0,0,0-1.41.21.79.79,0,0,1-.77-.21.76.76,0,0,1-.15-.78,4.57,4.57,0,0,0,.43-2,4.13,4.13,0,0,0-4-4.3A3.71,3.71,0,0,0,111,8.9a.83.83,0,0,1-.7.07,1.06,1.06,0,0,1-.43-.56,6.29,6.29,0,0,0-12.56-.14c0,.21-.21.42-.42.56a.83.83,0,0,1-.7-.07A4.69,4.69,0,0,0,94.38,8.41Zm24.48,18.48H91.14A6.31,6.31,0,0,1,85,20.4a6.35,6.35,0,0,1,4.8-6.28,6.08,6.08,0,0,1-.36-1.9A5.11,5.11,0,0,1,94.38,7,4.21,4.21,0,0,1,96,7.28a7.68,7.68,0,0,1,15.09.07A4.61,4.61,0,0,1,113,7a5.59,5.59,0,0,1,5.43,5.71,8.7,8.7,0,0,1-.14,1.34h.56A6.31,6.31,0,0,1,125,20.54,6.28,6.28,0,0,1,118.86,26.89Z"/>
    <path class="e65251ec-90c9-4cd2-99ed-69c82365819b" d="M117.66,13.28c0-.22.07-.43.07-.64a4.88,4.88,0,0,0-4.72-5,4.22,4.22,0,0,0-2.47.78,7,7,0,0,0-14-.14,3.92,3.92,0,0,0-2.19-.64,4.4,4.4,0,0,0-4.23,4.52,5.4,5.4,0,0,0,.14,1"/>
    <path class="f847f9dc-36a6-4058-beb5-02a0809c9ae3" d="M90.29,14a.68.68,0,0,1-.7-.56,7,7,0,0,1-.15-1.27,5.11,5.11,0,0,1,4.94-5.22A4.21,4.21,0,0,1,96,7.21a7.68,7.68,0,0,1,15.09.07A4.61,4.61,0,0,1,113,6.93a5.59,5.59,0,0,1,5.43,5.71,2.48,2.48,0,0,1-.07.71A.71.71,0,0,1,117,13.2v-.56a4.13,4.13,0,0,0-4-4.3,3.71,3.71,0,0,0-2,.63.85.85,0,0,1-.71.07,1.09,1.09,0,0,1-.42-.56A6.29,6.29,0,0,0,97.2,8.34c0,.21-.21.42-.42.56a.83.83,0,0,1-.7-.07,3.54,3.54,0,0,0-1.84-.56,3.65,3.65,0,0,0-3.53,3.81,4.19,4.19,0,0,0,.15.91.73.73,0,0,1-.5.85C90.36,14,90.36,14,90.29,14Z"/>
    <rect class="f847f9dc-36a6-4058-beb5-02a0809c9ae3" x="98.9" y="8.83" width="1.41" height="1.41"/>
    <rect class="f847f9dc-36a6-4058-beb5-02a0809c9ae3" x="102.64" y="8.83" width="1.41" height="1.41"/>
    <rect class="f847f9dc-36a6-4058-beb5-02a0809c9ae3" x="106.45" y="8.83" width="1.41" height="1.41"/>
    <path class="dc7c6a7d-121a-4133-9088-8766eb085684" d="M97.84,18.85a7.78,7.78,0,0,0,11,11Z"/>
    <path class="f847f9dc-36a6-4058-beb5-02a0809c9ae3" d="M97.91,19.91a7,7,0,0,0,5.43,11.57,7.11,7.11,0,0,0,4.52-1.63Zm5.43,13a8.7,8.7,0,0,1-6-2.47,8.37,8.37,0,0,1-2.46-6,8.65,8.65,0,0,1,2.46-6,.67.67,0,0,1,1,0l11,11a.69.69,0,0,1,0,1A8.43,8.43,0,0,1,103.34,32.89Z"/>
    <path class="d3702aef-63fa-41a3-94c6-2cdea3e3f1cf" d="M103.34,30.07a5.39,5.39,0,0,1-4-1.7,5.65,5.65,0,0,1-1.69-4,6.17,6.17,0,0,1,.42-2.26l7.48,7.48A4.59,4.59,0,0,1,103.34,30.07Z"/>
    <path class="f847f9dc-36a6-4058-beb5-02a0809c9ae3" d="M102.85,24.84a.68.68,0,0,1,0-1l1.69-1.7a.7.7,0,0,1,1,1l-1.69,1.69A.67.67,0,0,1,102.85,24.84Z"/>
    <path class="dc7c6a7d-121a-4133-9088-8766eb085684" d="M105.53,14.47a7.79,7.79,0,0,1,7.76,7.76"/>
    <path class="f847f9dc-36a6-4058-beb5-02a0809c9ae3" d="M113.22,22.94a.67.67,0,0,1-.71-.71,7.07,7.07,0,0,0-7.05-7,.71.71,0,1,1,0-1.41,8.49,8.49,0,0,1,8.46,8.46A.7.7,0,0,1,113.22,22.94Z"/>
    <path class="dc7c6a7d-121a-4133-9088-8766eb085684" d="M105.53,17.3a5,5,0,0,1,4.94,4.93"/>
    <path class="f847f9dc-36a6-4058-beb5-02a0809c9ae3" d="M110.4,22.94a.67.67,0,0,1-.71-.71,4,4,0,0,0-1.27-3,4.25,4.25,0,0,0-3-1.27.71.71,0,1,1,0-1.41A5.53,5.53,0,0,1,111,22.16.64.64,0,0,1,110.4,22.94Z"/>
    <path class="dc7c6a7d-121a-4133-9088-8766eb085684" d="M105.53,20.12a2.13,2.13,0,0,1,2.12,2.11"/>
    <path class="f847f9dc-36a6-4058-beb5-02a0809c9ae3" d="M107.65,22.94a.67.67,0,0,1-.71-.71,1.42,1.42,0,0,0-1.41-1.41.71.71,0,1,1,0-1.41,2.83,2.83,0,0,1,2.82,2.82A.75.75,0,0,1,107.65,22.94Z"/>
    <polygon class="0ff6deb5-702c-4365-8667-041c7c143469" points="103.13 40.3 97.7 29.78 92.27 40.3 103.13 40.3"/>
    <path class="f847f9dc-36a6-4058-beb5-02a0809c9ae3" d="M93.46,39.59H102l-4.3-8.25ZM103.13,41H92.27a.84.84,0,0,1-.64-.35.65.65,0,0,1,0-.71l5.43-10.51a.73.73,0,0,1,1.27,0l5.43,10.51a.77.77,0,0,1,0,.71A.61.61,0,0,1,103.13,41Z"/>
  </g>
  <g>
    <rect class="d3702aef-63fa-41a3-94c6-2cdea3e3f1cf" x="169.82" y="1.82" width="38.36" height="38.36" rx="2.19" ry="2.19"/>
    <circle class="dc7c6a7d-121a-4133-9088-8766eb085684" cx="174.28" cy="6.28" r="1.64"/>
    <circle class="dc7c6a7d-121a-4133-9088-8766eb085684" cx="203.72" cy="35.72" r="1.64"/>
    <circle class="dc7c6a7d-121a-4133-9088-8766eb085684" cx="174.28" cy="35.72" r="1.64"/>
    <circle class="dc7c6a7d-121a-4133-9088-8766eb085684" cx="203.72" cy="6.28" r="1.64"/>
    <path class="dc7c6a7d-121a-4133-9088-8766eb085684" d="M204.34,21a14.81,14.81,0,0,1-4.49,10.85,15.35,15.35,0,0,1-21.7,0A14.77,14.77,0,0,1,173.66,21a14.77,14.77,0,0,1,4.49-10.85,15.35,15.35,0,0,1,21.7,0A14.81,14.81,0,0,1,204.34,21Z"/>
    <path class="0ff6deb5-702c-4365-8667-041c7c143469" d="M193.27,21A4.27,4.27,0,1,1,186,18a4.27,4.27,0,0,1,7.29,3Z"/>
    <path class="f847f9dc-36a6-4058-beb5-02a0809c9ae3" d="M207.36,38A1.38,1.38,0,0,1,206,39.36H172A1.38,1.38,0,0,1,170.64,38V4A1.38,1.38,0,0,1,172,2.64h34A1.38,1.38,0,0,1,207.36,4ZM209,4a3,3,0,0,0-3-3H172a3,3,0,0,0-3,3V38a3,3,0,0,0,3,3h34a3,3,0,0,0,3-3Z"/>
    <path class="f847f9dc-36a6-4058-beb5-02a0809c9ae3" d="M204.3,36.3a.82.82,0,0,1-1.4-.58.82.82,0,0,1,.82-.82.82.82,0,0,1,.58,1.4Zm-.58-3A2.47,2.47,0,0,0,202,37.47a2.47,2.47,0,1,0,1.74-4.21Z"/>
    <path class="f847f9dc-36a6-4058-beb5-02a0809c9ae3" d="M173.7,5.7a.82.82,0,0,1,1.4.58.82.82,0,0,1-.82.82.83.83,0,0,1-.58-.24A.8.8,0,0,1,173.7,5.7Zm.58,3A2.47,2.47,0,0,0,176,4.53,2.47,2.47,0,0,0,172.53,8,2.45,2.45,0,0,0,174.28,8.74Z"/>
    <path class="f847f9dc-36a6-4058-beb5-02a0809c9ae3" d="M203.14,5.7a.82.82,0,0,1,1.16,0,.8.8,0,0,1,0,1.16.83.83,0,0,1-.58.24.82.82,0,0,1-.82-.82A.83.83,0,0,1,203.14,5.7Zm.58,3A2.45,2.45,0,0,0,205.47,8,2.47,2.47,0,0,0,202,4.53a2.47,2.47,0,0,0,1.74,4.21Z"/>
    <path class="f847f9dc-36a6-4058-beb5-02a0809c9ae3" d="M174.86,36.3a.82.82,0,0,1-1.16,0,.8.8,0,0,1,0-1.16.83.83,0,0,1,.58-.24.82.82,0,0,1,.82.82A.83.83,0,0,1,174.86,36.3Zm-.58-3a2.45,2.45,0,0,0-1.75.72A2.47,2.47,0,0,0,176,37.47a2.47,2.47,0,0,0-1.74-4.21Z"/>
    <path class="f847f9dc-36a6-4058-beb5-02a0809c9ae3" d="M189.82,35.5V26A5.12,5.12,0,0,0,194,21.82h9.47a14.35,14.35,0,0,1-1.7,6H191.19v1.64h9.58A14.55,14.55,0,0,1,189.82,35.5Zm-12.59-6h11v6A14.55,14.55,0,0,1,177.23,29.49Zm11-23v6h-11A14.55,14.55,0,0,1,188.18,6.5Zm.82,18A3.45,3.45,0,1,1,192.45,21,3.46,3.46,0,0,1,189,24.45Zm-14.5-2.63h8V20.18h-8a14.61,14.61,0,0,1,1.7-6h12V16a5.1,5.1,0,0,0,0,10.06v1.82h-12A14.61,14.61,0,0,1,174.5,21.82Zm26.27-9.31h-9.58v1.64H201.8a14.31,14.31,0,0,1,1.7,6H194A5.12,5.12,0,0,0,189.82,16V6.5A14.55,14.55,0,0,1,200.77,12.51ZM189,4.84A16.16,16.16,0,1,0,205.16,21,16.18,16.18,0,0,0,189,4.84Z"/>
  </g>
  <g>
    <path class="dc7c6a7d-121a-4133-9088-8766eb085684" d="M311,1.8,295.75,7.44V24.71s.87,10.64,15.29,15.53c14.36-4.89,15.29-15.53,15.29-15.53V7.44Z"/>
    <path class="f847f9dc-36a6-4058-beb5-02a0809c9ae3" d="M296.37,7.87V24.71c.06.37,1.05,10.15,14.67,14.85,13.62-4.7,14.67-14.79,14.67-14.92V7.87L311,2.48ZM311,40.8a.24.24,0,0,1-.19-.06c-14.61-4.89-15.66-15.54-15.72-16V7.44a.6.6,0,0,1,.43-.56l15.29-5.63a.49.49,0,0,1,.44,0l15.28,5.63a.6.6,0,0,1,.44.56V24.71c-.06.49-1.12,11.14-15.72,16.09Z"/>
    <path class="e65251ec-90c9-4cd2-99ed-69c82365819b" d="M311,4.47l-12.81,4.7V24.52c.12,1,1.48,8.85,12.81,13Z"/>
    <path class="db95dc18-cba0-4aa1-b888-ca7c203a3931" d="M311,4.47V37.58c11.33-4.15,12.69-12.13,12.81-13V9.17Z"/>
    <rect class="0ff6deb5-702c-4365-8667-041c7c143469" x="316.61" y="26.56" width="17.64" height="13.62" rx="1.24" ry="1.24"/>
    <path class="f847f9dc-36a6-4058-beb5-02a0809c9ae3" d="M317.85,27.18a.62.62,0,0,0-.62.62V38.94a.62.62,0,0,0,.62.62H333a.62.62,0,0,0,.62-.62V27.8a.62.62,0,0,0-.62-.62ZM333,40.8H317.85A1.86,1.86,0,0,1,316,38.94V27.8a1.87,1.87,0,0,1,1.86-1.86H333a1.87,1.87,0,0,1,1.86,1.86V38.94A1.83,1.83,0,0,1,333,40.8Z"/>
    <rect class="dc7c6a7d-121a-4133-9088-8766eb085684" x="319.14" y="29.05" width="12.63" height="8.67"/>
    <path class="dc7c6a7d-121a-4133-9088-8766eb085684" d="M320.45,26.56V23.78a5,5,0,1,1,10,0v2.78H333V23.78a7.43,7.43,0,0,0-14.86,0v2.78Z"/>
    <path class="f847f9dc-36a6-4058-beb5-02a0809c9ae3" d="M331,25.94h1.24V23.78a6.81,6.81,0,0,0-13.62,0v2.16h1.24V23.78a5.64,5.64,0,1,1,11.27,0v2.16Zm1.86,1.24h-2.48a.59.59,0,0,1-.62-.62V23.78a4.4,4.4,0,1,0-8.79,0v2.78a.58.58,0,0,1-.61.62h-2.48a.59.59,0,0,1-.62-.62V23.78a8,8,0,1,1,16.09,0v2.78C333.51,26.93,333.26,27.18,332.89,27.18Z"/>
    <path class="f847f9dc-36a6-4058-beb5-02a0809c9ae3" d="M326.82,32.57a1.36,1.36,0,1,0-2.72,0,1.43,1.43,0,0,0,.74,1.24l-.25,1.79h1.74l-.25-1.79A1.5,1.5,0,0,0,326.82,32.57Z"/>
  </g>
  <g>
    <rect class="dc7c6a7d-121a-4133-9088-8766eb085684" x="44.81" y="1.63" width="22.5" height="38.75"/>
    <path class="f847f9dc-36a6-4058-beb5-02a0809c9ae3" d="M45.44,39.75H66.69V2.25H45.44ZM67.31,41H44.81a.59.59,0,0,1-.62-.63V1.63A.59.59,0,0,1,44.81,1h22.5a.59.59,0,0,1,.63.63V40.38A.63.63,0,0,1,67.31,41Z"/>
    <rect class="e65251ec-90c9-4cd2-99ed-69c82365819b" x="47.19" y="4.13" width="4" height="6.56"/>
    <rect class="e65251ec-90c9-4cd2-99ed-69c82365819b" x="54.06" y="4.13" width="4" height="6.56"/>
    <rect class="e65251ec-90c9-4cd2-99ed-69c82365819b" x="60.94" y="4.13" width="4" height="6.56"/>
    <rect class="e65251ec-90c9-4cd2-99ed-69c82365819b" x="47.19" y="13.13" width="4" height="6.56"/>
    <rect class="e65251ec-90c9-4cd2-99ed-69c82365819b" x="54.06" y="13.13" width="4" height="6.56"/>
    <rect class="e65251ec-90c9-4cd2-99ed-69c82365819b" x="60.94" y="13.13" width="4" height="6.56"/>
    <rect class="e65251ec-90c9-4cd2-99ed-69c82365819b" x="47.19" y="22.19" width="4" height="6.56"/>
    <rect class="e65251ec-90c9-4cd2-99ed-69c82365819b" x="54.06" y="22.19" width="4" height="6.56"/>
    <rect class="e65251ec-90c9-4cd2-99ed-69c82365819b" x="60.94" y="22.19" width="4" height="6.56"/>
    <rect class="e65251ec-90c9-4cd2-99ed-69c82365819b" x="47.19" y="31.19" width="4" height="6.56"/>
    <rect class="e65251ec-90c9-4cd2-99ed-69c82365819b" x="54.06" y="31.19" width="4" height="6.56"/>
    <rect class="e65251ec-90c9-4cd2-99ed-69c82365819b" x="60.94" y="31.19" width="4" height="6.56"/>
    <rect class="dc7c6a7d-121a-4133-9088-8766eb085684" x="63.5" y="15.88" width="17.69" height="24.5"/>
    <path class="f847f9dc-36a6-4058-beb5-02a0809c9ae3" d="M64.12,39.75H80.56V16.5H64.12ZM81.19,41H63.5a.59.59,0,0,1-.63-.63V15.88a.59.59,0,0,1,.63-.63H81.19a.59.59,0,0,1,.62.63V40.37A.59.59,0,0,1,81.19,41Z"/>
    <rect class="0ff6deb5-702c-4365-8667-041c7c143469" x="65.88" y="18.31" width="3.13" height="3.38"/>
    <rect class="0ff6deb5-702c-4365-8667-041c7c143469" x="70.75" y="18.31" width="3.13" height="3.38"/>
    <rect class="0ff6deb5-702c-4365-8667-041c7c143469" x="75.69" y="18.31" width="3.13" height="3.38"/>
    <rect class="0ff6deb5-702c-4365-8667-041c7c143469" x="65.88" y="23.75" width="3.13" height="3.38"/>
    <rect class="0ff6deb5-702c-4365-8667-041c7c143469" x="70.75" y="23.75" width="3.13" height="3.38"/>
    <rect class="0ff6deb5-702c-4365-8667-041c7c143469" x="75.69" y="23.75" width="3.13" height="3.38"/>
    <rect class="0ff6deb5-702c-4365-8667-041c7c143469" x="65.88" y="29.19" width="3.13" height="3.38"/>
    <rect class="0ff6deb5-702c-4365-8667-041c7c143469" x="70.75" y="29.19" width="3.13" height="3.38"/>
    <rect class="0ff6deb5-702c-4365-8667-041c7c143469" x="75.69" y="29.19" width="3.13" height="3.38"/>
    <rect class="0ff6deb5-702c-4365-8667-041c7c143469" x="65.88" y="34.56" width="3.13" height="3.38"/>
    <rect class="0ff6deb5-702c-4365-8667-041c7c143469" x="70.75" y="34.56" width="3.13" height="3.38"/>
    <rect class="0ff6deb5-702c-4365-8667-041c7c143469" x="75.69" y="34.56" width="3.13" height="3.38"/>
    <path class="f847f9dc-36a6-4058-beb5-02a0809c9ae3" d="M82.37,41H43.63a.63.63,0,1,1,0-1.25H82.37a.63.63,0,1,1,0,1.25Z"/>
    <rect class="dc7c6a7d-121a-4133-9088-8766eb085684" x="66.06" y="11.63" width="12.62" height="4.19"/>
    <path class="f847f9dc-36a6-4058-beb5-02a0809c9ae3" d="M66.69,15.25H78v-3H66.69ZM78.62,16.5H66.06a.59.59,0,0,1-.62-.63V11.62a.59.59,0,0,1,.62-.62H78.62a.59.59,0,0,1,.63.62v4.19A.64.64,0,0,1,78.62,16.5Z"/>
    <rect class="f847f9dc-36a6-4058-beb5-02a0809c9ae3" x="68.63" y="13.13" width="1.25" height="1.25"/>
    <rect class="f847f9dc-36a6-4058-beb5-02a0809c9ae3" x="71.75" y="13.13" width="1.25" height="1.25"/>
    <rect class="f847f9dc-36a6-4058-beb5-02a0809c9ae3" x="74.81" y="13.13" width="1.25" height="1.25"/>
  </g>
  <g>
    <path class="dc7c6a7d-121a-4133-9088-8766eb085684" d="M37.56,25.19a14.63,14.63,0,0,1-4.45,10.74,14.62,14.62,0,0,1-10.73,4.44,14.63,14.63,0,0,1-10.74-4.44A14.63,14.63,0,0,1,7.19,25.19a14.6,14.6,0,0,1,4.45-10.74A14.6,14.6,0,0,1,22.38,10a14.59,14.59,0,0,1,10.73,4.45A14.6,14.6,0,0,1,37.56,25.19Z"/>
    <path class="f847f9dc-36a6-4058-beb5-02a0809c9ae3" d="M22.38,10.63A14.58,14.58,0,0,0,12.06,35.5a14.42,14.42,0,0,0,10.32,4.25,14.56,14.56,0,1,0,0-29.12Zm0,30.37A15.81,15.81,0,0,1,6.56,25.19,15.84,15.84,0,0,1,22.38,9.37,15.81,15.81,0,0,1,38.19,25.19,15.83,15.83,0,0,1,22.38,41Z"/>
    <path class="d3702aef-63fa-41a3-94c6-2cdea3e3f1cf" d="M35.16,25.17a12.34,12.34,0,0,1-3.75,9.06A12.34,12.34,0,0,1,22.35,38a12.34,12.34,0,0,1-9.06-3.75,12.34,12.34,0,0,1-3.75-9.06,12.34,12.34,0,0,1,3.75-9.06,12.34,12.34,0,0,1,9.06-3.75,12.34,12.34,0,0,1,9.06,3.75A12.34,12.34,0,0,1,35.16,25.17Z"/>
    <path class="e65251ec-90c9-4cd2-99ed-69c82365819b" d="M23.62,27.37s.38-.62-1.75-.68c0,0-.5.31-.62-1.25h-.63s-.43-1.19-1-.69c0,0-.37.44-.87-.38,0,0-1.38-.37-1.5,1.57,0,0-1.81,1.18.37,2.81l1,.81-.06,1.94s.5.06.25.87a1.6,1.6,0,0,1,.13,1.88s.68,1.94,1.93,1.31l-.37-.43.19-.82h-.63l.44-.87-.38-.32s2.19-.06,2.19-1.93c0,0-.94-.94.63-.75,0,0,.75,0,.68-1.75,0,0,.69-.63.57-1S23.62,27.37,23.62,27.37Z"/>
    <path class="e65251ec-90c9-4cd2-99ed-69c82365819b" d="M34.13,20.06c-1.19.13-.82,1.69-.82,1.69-.5,1-1.81-.56-1.81-.56-.5,1.12-1.75-.07-1.75-.07-2.94-1.56-3.44,1.19-3.44,1.19-1.5,1.44-.06,3.44-.06,3.44.88,1.25,2.19-.38,2.19-.38.87,1.07,1.43.82,1.43.82l-.12.62c-.13.63.94,1.38.94,1.75s-1.5,1.13-.38,2.13.63,1.68.63,1.68.81.75,1.25,1.13a12.47,12.47,0,0,0,3.06-8.13A15.37,15.37,0,0,0,34.13,20.06Z"/>
    <path class="e65251ec-90c9-4cd2-99ed-69c82365819b" d="M12.75,22.62,13.38,24c.62,1.31,1.56-.25,1.31-.88s.31-1.68,1.87-1.31.88-.25,2.25-1.94,2.19-.31,2.57-1.37.75-2.94-.82-1.75-1.43.62,0-1.13-.93.32-3.37.19a1.49,1.49,0,0,1-1.5-1.56,13.17,13.17,0,0,0-3.31,2.87c-.25.75-.44,1.63-.82,2.94C11.06,22.19,12.75,22.62,12.75,22.62Z"/>
    <path class="dc7c6a7d-121a-4133-9088-8766eb085684" d="M26.25,8.69c0,3.87,7.06,11.81,7.06,11.81s7.07-7.87,7.07-11.81a7.07,7.07,0,0,0-14.13,0Z"/>
    <path class="f847f9dc-36a6-4058-beb5-02a0809c9ae3" d="M33.31,2.25a6.44,6.44,0,0,0-6.44,6.44c0,2.81,4.32,8.31,6.44,10.81,2.19-2.5,6.44-8.06,6.44-10.81A6.44,6.44,0,0,0,33.31,2.25Zm0,18.87a.51.51,0,0,1-.44-.18c-.31-.31-7.25-8.13-7.25-12.19A7.69,7.69,0,1,1,41,8.69c0,4.12-6.94,11.87-7.25,12.19A.65.65,0,0,1,33.31,21.12Z"/>
    <circle class="0ff6deb5-702c-4365-8667-041c7c143469" cx="33.31" cy="8.63" r="4"/>
    <path class="dc7c6a7d-121a-4133-9088-8766eb085684" d="M1.63,31.69c0,2.87,5.18,8.68,5.18,8.68S12,34.56,12,31.69a5.19,5.19,0,1,0-10.37,0Z"/>
    <path class="f847f9dc-36a6-4058-beb5-02a0809c9ae3" d="M6.81,27.06a4.6,4.6,0,0,0-4.56,4.63c0,1.93,3,5.87,4.56,7.75,1.63-1.88,4.57-5.82,4.57-7.75A4.53,4.53,0,0,0,6.81,27.06ZM6.81,41a.47.47,0,0,1-.43-.19C5.81,40.19,1,34.69,1,31.69a5.82,5.82,0,1,1,11.63,0c0,3.06-4.82,8.5-5.38,9.12A.48.48,0,0,1,6.81,41Z"/>
    <path class="0ff6deb5-702c-4365-8667-041c7c143469" d="M9.38,31.62a2.27,2.27,0,0,1-2.57,2.57,2.27,2.27,0,0,1-2.56-2.57,2.26,2.26,0,0,1,2.56-2.56A2.27,2.27,0,0,1,9.38,31.62Z"/>
    <path class="234f0273-4eb8-4eda-86e7-5e3731dfb254" d="M2.81,25.19H1.56v-.63l1.25.06Z"/>
    <path class="234f0273-4eb8-4eda-86e7-5e3731dfb254" d="M19.38,5.88l-.19-1.25a7.57,7.57,0,0,1,1.25-.13l.12,1.25A6.76,6.76,0,0,0,19.38,5.88Zm-2.32.5-.31-1.19c.38-.13.81-.19,1.19-.31l.25,1.25A6.54,6.54,0,0,0,17.06,6.38Zm-2.18.75L14.38,6a6.86,6.86,0,0,1,1.18-.44L16,6.75A4.32,4.32,0,0,0,14.88,7.13ZM12.75,8.19l-.62-1.06,1.12-.57.56,1.13A5.17,5.17,0,0,0,12.75,8.19Zm-2,1.25-.75-1a10,10,0,0,1,1-.69l.69,1.06A8.57,8.57,0,0,0,10.75,9.44Zm-1.81,1.5L8.06,10c.32-.31.63-.56.94-.81l.81.93A5.19,5.19,0,0,1,8.94,10.94ZM7.31,12.69l-.93-.81c.25-.32.56-.63.81-.94l.94.87A11.79,11.79,0,0,0,7.31,12.69ZM5.94,14.56l-1.06-.69c.25-.31.5-.68.75-1l1,.75A10.68,10.68,0,0,0,5.94,14.56ZM4.75,16.62l-1.12-.56.56-1.12,1.06.62A6.79,6.79,0,0,1,4.75,16.62Zm-.87,2.19-1.19-.44c.12-.37.31-.81.44-1.18l1.12.5Zm-.63,2.25L2,20.81a6.9,6.9,0,0,1,.31-1.19l1.19.32C3.44,20.31,3.31,20.69,3.25,21.06Zm-.37,2.38-1.25-.13c.06-.44.06-.81.12-1.25L3,22.25C2.94,22.62,2.94,23,2.88,23.44Z"/>
    <path class="234f0273-4eb8-4eda-86e7-5e3731dfb254" d="M21.75,5.63l-.06-1.25h.62V5.63Z"/>
  </g>
  <rect class="1f6a688a-0cdf-4d75-b67a-ef440822f095" width="336" height="42"/>
</svg>
