<svg id="118602d9-61f0-4cd9-b07e-63933fd0b78c" data-name="Слой 1" xmlns="http://www.w3.org/2000/svg" width="24.73" height="29.46" viewBox="0 0 24.73 29.46">
  <defs>
    <style>
      .\31 26dfe5a-e6c8-4b4a-b5e8-cfab553eb221 {
        fill: #6074a0;
      }

      .\30 8de71f2-4763-4475-a46e-620f0095778f {
        fill: #dce1ea;
      }

      .\38 038defb-533c-43a3-a998-56dcc107ca3d {
        fill: #6175a1;
      }
    </style>
  </defs>
  <title>cod-links__button-1</title>
  <path class="126dfe5a-e6c8-4b4a-b5e8-cfab553eb221" d="M8.07,21.59h8.59a5.64,5.64,0,0,1,1.82-2.66l.2-.19c.34-.33.69-.67,1-1,.17-.2.33-.4.47-.6a.91.91,0,0,0,.11-.16,5.58,5.58,0,0,0,.32-.52c0-.06.07-.12.1-.19a8.82,8.82,0,0,0,.83-4,8.61,8.61,0,0,0-.39-2.6c-.07-.21-.14-.41-.22-.61s-.23-.52-.36-.77l-.21-.37c-.15-.24-.31-.48-.48-.71a8.31,8.31,0,0,0-1-1.11,9.58,9.58,0,0,0-6.47-2.37A9.59,9.59,0,0,0,5.89,6,8.22,8.22,0,0,0,3.2,12.18a7.89,7.89,0,0,0,2.86,6.58l.18.18A5.68,5.68,0,0,1,8.07,21.59Zm9.25,1.63H7.41a.82.82,0,0,1-.81-.71,3.72,3.72,0,0,0-1.48-2.4l-.2-.18a9.54,9.54,0,0,1-3.34-7.75A9.83,9.83,0,0,1,4.8,4.8,11.25,11.25,0,0,1,12.37,2,11.24,11.24,0,0,1,19.93,4.8,9.91,9.91,0,0,1,21.74,7l.25.44a8.65,8.65,0,0,1,.43.93,6.34,6.34,0,0,1,.26.73,9.93,9.93,0,0,1,.47,3.09,10.47,10.47,0,0,1-1,4.77c0,.08-.08.16-.13.24s-.25.44-.39.65l-.14.19a7.36,7.36,0,0,1-.56.72,15.52,15.52,0,0,1-1.12,1.15l-.2.2a3.67,3.67,0,0,0-1.48,2.41A.82.82,0,0,1,17.32,23.22Z" transform="translate(0 0)"/>
  <path class="126dfe5a-e6c8-4b4a-b5e8-cfab553eb221" d="M12.37,23.64a.82.82,0,0,1-.82-.81V17.06a.82.82,0,0,1,1.63,0v5.77A.81.81,0,0,1,12.37,23.64Z" transform="translate(0 0)"/>
  <path class="126dfe5a-e6c8-4b4a-b5e8-cfab553eb221" d="M12.37,18.16a.82.82,0,0,1-.58-.24L8.28,14.41a.81.81,0,0,1,1.15-1.15l2.94,2.94,2.93-2.94a.81.81,0,0,1,1.15,1.15l-3.51,3.51A.81.81,0,0,1,12.37,18.16Z" transform="translate(0 0)"/>
  <path class="126dfe5a-e6c8-4b4a-b5e8-cfab553eb221" d="M22.21,3.33a.81.81,0,0,1-.58-.23.83.83,0,0,1,0-1.15L23.34.24a.81.81,0,0,1,1.15,1.15L22.78,3.1A.78.78,0,0,1,22.21,3.33Z" transform="translate(0 0)"/>
  <path class="126dfe5a-e6c8-4b4a-b5e8-cfab553eb221" d="M2.52,3.33A.78.78,0,0,1,2,3.1L.24,1.39A.81.81,0,0,1,1.39.24L3.1,2a.83.83,0,0,1,0,1.15A.81.81,0,0,1,2.52,3.33Z" transform="translate(0 0)"/>
  <path class="126dfe5a-e6c8-4b4a-b5e8-cfab553eb221" d="M23.92,24.17a.82.82,0,0,1-.58-.24l-1.71-1.71a.81.81,0,1,1,1.15-1.14l1.71,1.71a.81.81,0,0,1-.57,1.38Z" transform="translate(0 0)"/>
  <path class="126dfe5a-e6c8-4b4a-b5e8-cfab553eb221" d="M.81,24.17a.8.8,0,0,1-.57-.24.8.8,0,0,1,0-1.14L2,21.08A.81.81,0,0,1,3.1,22.22L1.39,23.94A.85.85,0,0,1,.81,24.17Z" transform="translate(0 0)"/>
  <path class="08de71f2-4763-4475-a46e-620f0095778f" d="M7.06,21.65v2a1.64,1.64,0,0,0,1.65,1.64H9a3.41,3.41,0,1,0,6.81,0H16a1.64,1.64,0,0,0,1.65-1.64v-2Z" transform="translate(0 0)"/>
  <path class="8038defb-533c-43a3-a998-56dcc107ca3d" d="M7.87,22.46V23.6a.84.84,0,0,0,.84.83H9a.81.81,0,0,1,.81.81,2.6,2.6,0,0,0,5.19,0,.81.81,0,0,1,.81-.81H16a.84.84,0,0,0,.84-.83V22.46Zm4.5,7A4.22,4.22,0,0,1,8.22,26a2.47,2.47,0,0,1-2-2.41v-2a.81.81,0,0,1,.81-.81H17.67a.81.81,0,0,1,.81.81v2a2.47,2.47,0,0,1-2,2.41A4.22,4.22,0,0,1,12.37,29.46Z" transform="translate(0 0)"/>
</svg>
