<svg id="5ae2e0d6-43e0-4a98-8391-41de8b810d29" data-name="Слой 1" xmlns="http://www.w3.org/2000/svg" viewBox="0 0 60 60">
  <title>Иконка</title>
  <path d="M60,30A30,30,0,0,1,30,60,30,30,0,0,1,0,30,30,30,0,0,1,30,0,30,30,0,0,1,60,30Z" style="fill: #7287cb"/>
  <path d="M35.79,24.16a3.47,3.47,0,1,0,6.94,0c0-1.32-1.88-4.54-3.47-6.87C37.68,19.62,35.79,22.84,35.79,24.16Zm-2,0c0-2.65,3.87-8.11,4.64-9.18a1,1,0,0,1,.8-.41,1,1,0,0,1,.8.41c.78,1.07,4.65,6.53,4.65,9.18a5.45,5.45,0,1,1-10.89,0ZM18.54,34.7a1,1,0,0,1,2,0,4.89,4.89,0,0,0,4.89,4.88,1,1,0,0,1,0,2A6.87,6.87,0,0,1,18.54,34.7ZM17,34.79a8.47,8.47,0,1,0,16.94,0c0-3.65-5.53-12.31-8.47-16.53C22.52,22.48,17,31.14,17,34.79Zm-2,0c0-5.48,9.26-18.28,9.65-18.82a1,1,0,0,1,.8-.41,1,1,0,0,1,.8.41c.39.54,9.65,13.34,9.65,18.82a10.45,10.45,0,0,1-20.9,0Z" style="fill: #fff"/>
</svg>
