<svg id="227c886b-f0c8-4cf6-9edd-2d167a251c88" data-name="Слой 1" xmlns="http://www.w3.org/2000/svg" viewBox="0 0 60 60">
  <title>Иконка</title>
  <path d="M60,30A30,30,0,0,1,30,60,30,30,0,0,1,0,30,30,30,0,0,1,30,0,30,30,0,0,1,60,30Z" style="fill: #77d2a5"/>
  <path d="M26.48,37.87A3.32,3.32,0,0,1,28.18,35V27h3.34V35a3.31,3.31,0,0,1,1.69,2.92,3.37,3.37,0,1,1-6.73,0Zm.19-4.15a5.14,5.14,0,0,0-2.06,4.15,5.23,5.23,0,1,0,10.46,0,5.14,5.14,0,0,0-2-4.13v-14a3.18,3.18,0,1,0-6.36,0V21.1h2.25a.66.66,0,1,1,0,1.32H26.67v1.65h2.25a.68.68,0,0,1,0,1.36H26.67ZM22.6,37.87a7.17,7.17,0,0,1,2-5V19.78a5.21,5.21,0,1,1,10.41,0V32.84a7.15,7.15,0,0,1,2,5,7.25,7.25,0,1,1-14.49,0Z" style="fill: #fff"/>
</svg>
