<svg id="c6fd476c-f9c9-4eb8-bea4-c54607c8ec8a" data-name="Слой 1" xmlns="http://www.w3.org/2000/svg" width="15.65" height="9.19" viewBox="0 0 15.65 9.19">
  <defs>
    <style>
      .\33 5d42aff-c54b-4dad-b90f-9fa2511b2101 {
        fill: #bebfcb;
      }
    </style>
  </defs>
  <title>cod-info__label-arrow</title>
  <path class="35d42aff-c54b-4dad-b90f-9fa2511b2101" d="M8.43,8.94l7-7a.86.86,0,0,0,0-1.21L14.89.26a.86.86,0,0,0-1.22,0L7.83,6.1,2,.25A.84.84,0,0,0,1.37,0,.86.86,0,0,0,.76.25L.25.76A.86.86,0,0,0,0,1.37.84.84,0,0,0,.25,2l7,7a.86.86,0,0,0,.61.25A.84.84,0,0,0,8.43,8.94Z" transform="translate(0 0)"/>
</svg>
