<svg id="91b847c5-3573-4df5-93bc-75a77dc748ae" data-name="a5adf7a0-b0ca-4469-98f2-97d263868727" xmlns="http://www.w3.org/2000/svg" width="180" height="89.96" viewBox="0 0 180 89.96"  preserveAspectRatio="none">
  <defs>
    <style>
      .d58e2580-220c-4cac-89f9-1d1a7117305d {
        fill: #9193b2;
      }

      .df14e0e4-a45f-47b6-89f3-3c3125a37019 {
        fill: #fff;
      }

      .d1247891-6bf9-4bad-840f-2c3143845a11 {
        fill: #667bc0;
      }
    </style>
  </defs>
  <title>coin-selection__item-sprite</title>
  <g>
    <path class="d58e2580-220c-4cac-89f9-1d1a7117305d" d="M20.82,22.31H9.1l1-4.7L8.17,18.93l.47-2.58,2-1.38,2-9.38h3.65L14.91,12l4.77-3.27-.56,2.66-4.77,3.27-.94,4.48h8.06ZM15,0A15,15,0,1,0,30,15,15,15,0,0,0,15,0Z"/>
    <path class="d58e2580-220c-4cac-89f9-1d1a7117305d" d="M46.24,14.3h-.1a3.05,3.05,0,0,1-.6-.06L45,14.16l-.5-.1L44.27,14h-.12l.63-3.27h.42l.58.1a4.15,4.15,0,0,1,.61.14c.26.08.47.15.64.22a3.6,3.6,0,0,1,.55.29,1.51,1.51,0,0,1,.5,2.08,1,1,0,0,1-.37.35,3.1,3.1,0,0,1-.45.21,1.72,1.72,0,0,1-.55.1Zm-.33,5.31h-.06c-.21,0-.41,0-.62,0l-.63-.08-.6-.12-.51-.11h-.16l-.23-.05.7-3.59.5.08.69.13a3.8,3.8,0,0,1,.73.17,6.91,6.91,0,0,1,.77.25,4.07,4.07,0,0,1,.66.33,2.17,2.17,0,0,1,.55.45,1.45,1.45,0,0,1,.3.56,1.78,1.78,0,0,1-.2,1.24,2,2,0,0,1-.35.37,1.44,1.44,0,0,1-.48.24,2.57,2.57,0,0,1-.55.12A2.9,2.9,0,0,1,45.91,19.61Zm-3.2,1.59h0l1.3.26-.52,2.67,1.64.32.52-2.72a13.85,13.85,0,0,0,1.58.15h.14a6.41,6.41,0,0,0,1.23-.12,4,4,0,0,0,1.15-.42,3,3,0,0,0,.87-.82,4,4,0,0,0,.61-1.26,3.23,3.23,0,0,0,0-2.37,3.31,3.31,0,0,0-1.65-1.46A2.57,2.57,0,0,0,51.47,13a2.69,2.69,0,0,0-.15-1.29,2.57,2.57,0,0,0-.72-1A5.37,5.37,0,0,0,49.49,10a10.82,10.82,0,0,0-1.44-.53l.52-2.68-1.64-.32L46.42,9l-1.3-.23.51-2.63L44,5.85l-.52,2.68a6.39,6.39,0,0,1-1-.19l-2.3-.44-.33,1.74L41,9.87a.86.86,0,0,1,.8.91l-.59,3.05h0l-.84,4.28a.57.57,0,0,1-.55.44h-.17l-1.18-.23-.71,1.89,2.13.41.36.07.23,0,.57.11-.53,2.72,1.64.32.52-2.68ZM45,30A15,15,0,1,1,60,15,15,15,0,0,1,45,30Z"/>
    <path class="d58e2580-220c-4cac-89f9-1d1a7117305d" d="M74.89,5.54h0l-5.4,9.08,5.4-2.37Zm.36,0v6.71l5.49,2.41Zm-.35,7.11-5.59,2.44,5.58,3.28V12.65Zm.35,0v5.72l5.59-3.27-5.59-2.45Zm5.55,3.62-5.55,3.25v4.6Zm-11.45,0,5.54,7.85v-4.6ZM75,30A15,15,0,1,1,90,15,15,15,0,0,1,75,30Z"/>
    <path class="d58e2580-220c-4cac-89f9-1d1a7117305d" d="M97.5,13.88l-.81,2.23h6.07l.74-2.23Zm.37,3.59-.81,2.42h11.32a3.11,3.11,0,0,0,1-.19l.18-.1a5.25,5.25,0,0,0,.81-.51,5.17,5.17,0,0,0,.81-.81,6.34,6.34,0,0,0,.49-.93l1.5-4.71a1.63,1.63,0,0,0,.12-1,1.77,1.77,0,0,0-.24-.81,1.12,1.12,0,0,0-.62-.55,1.75,1.75,0,0,0-.81-.19H100.29l-.81,2.42h10.21l-1.61,4.94ZM105,30a15,15,0,1,1,15-15A15,15,0,0,1,105,30Z"/>
    <path class="d58e2580-220c-4cac-89f9-1d1a7117305d" d="M144.75,19.74V7.12L135,16.87l-9.75-9.75V19.74h-4.49a15,15,0,1,1,28.48,0ZM122.18,22.8h6.32v-8l4.26,4.26L135,21.35l2.24-2.24,4.26-4.26v8h6.32a15,15,0,0,1-25.64,0Z"/>
    <path class="d58e2580-220c-4cac-89f9-1d1a7117305d" d="M163.92,21.47V23.8h2.9a6.62,6.62,0,0,0-.07-1.18c-.07-.39,0-.78-.07-1.17h3.45V18.63h-5.6c.48-.51.92-1,1.34-1.49,1.12-1.29,2.22-2.55,3.31-3.85l.29-.31a2.17,2.17,0,0,0,.66-1,8.71,8.71,0,0,0,.07-1.91V9.25h-3.5V7h-2.78V9.35h-3.19v2.82h5.37l-.61.67-.74.82c-1.12,1.3-2.21,2.56-3.3,3.85-.1.12-.2.24-.31.35a2.1,2.1,0,0,0-.61.91,8.71,8.71,0,0,0-.08,1.91v.79ZM165,30a15,15,0,1,1,15-15A15,15,0,0,1,165,30Z"/>
  </g>
  <g>
    <path class="df14e0e4-a45f-47b6-89f3-3c3125a37019" d="M20.82,52.31H9.1l1-4.7L8.17,48.93l.47-2.58,2-1.38,2-9.38h3.65L14.91,42l4.77-3.27-.56,2.66-4.77,3.27-.94,4.48h8.06ZM15,30A15,15,0,1,0,30,45,15,15,0,0,0,15,30Z"/>
    <path class="df14e0e4-a45f-47b6-89f3-3c3125a37019" d="M46.24,44.3h-.1a3.05,3.05,0,0,1-.6-.06L45,44.16l-.5-.1L44.27,44h-.12l.63-3.27.25.05h.17l.58.1a4.15,4.15,0,0,1,.61.14c.26.08.47.15.64.22a3.6,3.6,0,0,1,.55.29,1.51,1.51,0,0,1,.5,2.08,1,1,0,0,1-.37.35,3.1,3.1,0,0,1-.45.21,1.72,1.72,0,0,1-.55.1Zm-.33,5.31h-.68l-.63-.08-.6-.12-.51-.11h-.16l-.23,0,.7-3.59.5.08.69.13a3.8,3.8,0,0,1,.73.17,6.91,6.91,0,0,1,.77.25,4.07,4.07,0,0,1,.66.33,2.17,2.17,0,0,1,.55.45,1.45,1.45,0,0,1,.3.56,1.78,1.78,0,0,1-.2,1.24,2,2,0,0,1-.35.37,1.44,1.44,0,0,1-.48.24,2.57,2.57,0,0,1-.55.12A2.9,2.9,0,0,1,45.91,49.61Zm-3.2,1.59h0l1.3.26-.52,2.67,1.64.32.52-2.72a13.85,13.85,0,0,0,1.58.15h.14a6.41,6.41,0,0,0,1.23-.12,4,4,0,0,0,1.15-.42,3,3,0,0,0,.87-.82,4,4,0,0,0,.61-1.26,3.23,3.23,0,0,0,0-2.37,3.31,3.31,0,0,0-1.65-1.46A2.57,2.57,0,0,0,51.47,43a2.69,2.69,0,0,0-.15-1.29,2.57,2.57,0,0,0-.72-1A5.37,5.37,0,0,0,49.49,40a10.82,10.82,0,0,0-1.44-.53l.52-2.68-1.64-.32L46.42,39l-1.3-.23.51-2.63L44,35.85l-.52,2.68a6.39,6.39,0,0,1-1-.19l-2.26-.44-.33,1.74,1.18.23a.86.86,0,0,1,.8.91l-.59,3h0l-.84,4.28a.57.57,0,0,1-.55.44h-.17l-1.18-.23-.71,1.89,2.13.41.36.07h.23l.57.11-.53,2.72,1.64.32.52-2.68ZM45,60A15,15,0,1,1,60,45,15,15,0,0,1,45,60Z"/>
    <path class="df14e0e4-a45f-47b6-89f3-3c3125a37019" d="M74.89,35.54h0l-5.4,9.08,5.4-2.37Zm.36,0v6.71l5.49,2.41Zm-.35,7.11-5.59,2.44,5.58,3.28V42.65Zm.35,0v5.72l5.59-3.27-5.59-2.45Zm5.55,3.62-5.55,3.25v4.6Zm-11.45,0,5.54,7.85v-4.6ZM75,60A15,15,0,1,1,90,45,15,15,0,0,1,75,60Z"/>
    <path class="df14e0e4-a45f-47b6-89f3-3c3125a37019" d="M97.5,43.88l-.81,2.23h6.07l.74-2.23Zm.37,3.59-.81,2.42h11.32a3.11,3.11,0,0,0,1-.19l.18-.1a5.25,5.25,0,0,0,.81-.51,5.17,5.17,0,0,0,.81-.81,6.34,6.34,0,0,0,.49-.93l1.5-4.71a1.63,1.63,0,0,0,.12-1,1.77,1.77,0,0,0-.24-.81,1.12,1.12,0,0,0-.62-.55,1.75,1.75,0,0,0-.81-.19H100.29l-.81,2.42h10.21l-1.61,4.94ZM105,60a15,15,0,1,1,15-15A15,15,0,0,1,105,60Z"/>
    <path class="df14e0e4-a45f-47b6-89f3-3c3125a37019" d="M144.75,49.74V37.12L135,46.87l-9.75-9.75V49.74h-4.49a15,15,0,1,1,28.48,0ZM122.18,52.8h6.32V44.85l4.26,4.26L135,51.35l2.24-2.24,4.26-4.26V52.8h6.32a15,15,0,0,1-25.64,0Z"/>
    <path class="df14e0e4-a45f-47b6-89f3-3c3125a37019" d="M163.92,51.47V53.8h2.9a6.62,6.62,0,0,0-.07-1.18c-.07-.39,0-.78-.07-1.17h3.45V48.63h-5.6c.48-.51.92-1,1.34-1.49,1.12-1.29,2.22-2.55,3.31-3.85l.29-.31a2.18,2.18,0,0,0,.66-.95,8.71,8.71,0,0,0,.07-1.91V39.3h-3.5V37h-2.78v2.35h-3.19v2.82h5.37l-.61.67-.74.82c-1.12,1.3-2.21,2.56-3.3,3.85-.1.12-.2.24-.31.35a2.1,2.1,0,0,0-.61.91,8.71,8.71,0,0,0-.08,1.91v.79ZM165,60a15,15,0,1,1,15-15A15,15,0,0,1,165,60Z"/>
  </g>
  <g>
    <path class="d1247891-6bf9-4bad-840f-2c3143845a11" d="M20.82,82.26H9.1l1-4.7L8.17,78.88l.47-2.58,2-1.38,2-9.38h3.65L14.91,72l4.77-3.27-.56,2.66-4.77,3.27-.94,4.48h8.06ZM15,60A15,15,0,1,0,30,75,15,15,0,0,0,15,60Z"/>
    <path class="d1247891-6bf9-4bad-840f-2c3143845a11" d="M46.24,74.25h-.1a3.05,3.05,0,0,1-.6-.06L45,74.11l-.5-.1L44.27,74h-.12l.63-3.27.25,0h.17l.58.1a4.15,4.15,0,0,1,.61.14c.26.08.47.15.64.22a3.6,3.6,0,0,1,.55.29,1.51,1.51,0,0,1,.5,2.08,1,1,0,0,1-.37.35,3.1,3.1,0,0,1-.45.21,1.72,1.72,0,0,1-.55.1Zm-.33,5.31h-.68l-.63-.08-.6-.12-.51-.11h-.16l-.23,0,.7-3.59.5.08.69.13a3.8,3.8,0,0,1,.73.17,6.91,6.91,0,0,1,.77.25,4.07,4.07,0,0,1,.66.33,2.17,2.17,0,0,1,.55.45,1.45,1.45,0,0,1,.3.56,1.78,1.78,0,0,1-.2,1.24,2,2,0,0,1-.35.37,1.44,1.44,0,0,1-.48.24,2.57,2.57,0,0,1-.55.12A2.9,2.9,0,0,1,45.91,79.56Zm-3.2,1.59h0l1.3.26-.52,2.67,1.64.32.52-2.72a13.85,13.85,0,0,0,1.58.15h.14a6.41,6.41,0,0,0,1.23-.12,4,4,0,0,0,1.15-.42,3,3,0,0,0,.87-.82,4,4,0,0,0,.61-1.26,3.23,3.23,0,0,0,0-2.37,3.31,3.31,0,0,0-1.65-1.46A2.57,2.57,0,0,0,51.47,73a2.69,2.69,0,0,0-.15-1.29,2.57,2.57,0,0,0-.72-1A5.37,5.37,0,0,0,49.49,70a10.82,10.82,0,0,0-1.44-.53l.52-2.68-1.64-.32L46.42,69l-1.3-.23.51-2.63L44,65.8l-.52,2.68a6.39,6.39,0,0,1-1-.19l-2.26-.44-.33,1.74,1.18.23a.86.86,0,0,1,.8.91l-.59,3h0L40.44,78a.57.57,0,0,1-.55.44h-.17l-1.18-.23-.71,1.89,2.13.41.36.07h.23l.57.11-.53,2.72,1.64.32.52-2.68ZM45,90A15,15,0,1,1,60,75,15,15,0,0,1,45,90Z"/>
    <path class="d1247891-6bf9-4bad-840f-2c3143845a11" d="M74.89,65.49h0l-5.4,9.08,5.4-2.37Zm.36,0V72.2l5.49,2.41ZM74.9,72.6,69.31,75l5.58,3.28V72.6Zm.35,0v5.72l5.59-3.27L75.25,72.6Zm5.55,3.62-5.55,3.25v4.6Zm-11.45,0,5.54,7.85v-4.6ZM75,90A15,15,0,1,1,90,75,15,15,0,0,1,75,90Z"/>
    <path class="d1247891-6bf9-4bad-840f-2c3143845a11" d="M97.5,73.83l-.81,2.23h6.07l.74-2.23Zm.37,3.59-.81,2.42h11.32a3.11,3.11,0,0,0,1-.19l.18-.1a5.25,5.25,0,0,0,.81-.51,5.17,5.17,0,0,0,.81-.81,6.34,6.34,0,0,0,.49-.93l1.5-4.71a1.63,1.63,0,0,0,.12-1,1.77,1.77,0,0,0-.24-.81,1.12,1.12,0,0,0-.62-.55,1.75,1.75,0,0,0-.81-.19H100.29l-.81,2.42h10.21l-1.61,4.94ZM105,90a15,15,0,1,1,15-15A15,15,0,0,1,105,90Z"/>
    <path class="d1247891-6bf9-4bad-840f-2c3143845a11" d="M144.75,79.69V67.07L135,76.82l-9.75-9.75V79.69h-4.49a15,15,0,1,1,28.48,0Zm-22.57,3.06h6.32v-8l4.26,4.26L135,81.3l2.24-2.24,4.26-4.26v8h6.32a15,15,0,0,1-25.64,0Z"/>
    <path class="d1247891-6bf9-4bad-840f-2c3143845a11" d="M163.92,81.42v2.33h2.9a6.62,6.62,0,0,0-.07-1.18c-.07-.39,0-.78-.07-1.17h3.45V78.58h-5.6c.48-.51.92-1,1.34-1.49,1.12-1.29,2.22-2.55,3.31-3.85l.29-.31a2.18,2.18,0,0,0,.66-1,8.71,8.71,0,0,0,.07-1.91v-.82h-3.5V67h-2.78V69.3h-3.19v2.82h5.37l-.61.67-.74.82c-1.12,1.3-2.21,2.56-3.3,3.85-.1.12-.2.24-.31.35a2.1,2.1,0,0,0-.61.91,8.71,8.71,0,0,0-.08,1.91v.79ZM165,90a15,15,0,1,1,15-15A15,15,0,0,1,165,90Z"/>
  </g>
</svg>
