<svg id="42c6964c-c15d-4fe9-9e72-9e1fd6f31d73" data-name="Слой 1" xmlns="http://www.w3.org/2000/svg" width="15.65" height="9.19" viewBox="0 0 15.65 9.19" >
  <defs>
    <style>
      .\30 5857272-a181-4ac9-8d93-3b05bd448e14 {
        fill: #b7b8de;
      }
    </style>
  </defs>
  <title>calculator__select-header-mobile-arrow</title>
  <path class="05857272-a181-4ac9-8d93-3b05bd448e14" d="M7.21.25l-7,7A.86.86,0,0,0,0,7.82a.84.84,0,0,0,.25.6l.51.52A.86.86,0,0,0,2,8.94L7.82,3.09l5.85,5.85a.87.87,0,0,0,1.22,0l.51-.51a.86.86,0,0,0,0-1.21l-7-7a.87.87,0,0,0-1.22,0Z" transform="translate(0 0)"/>
</svg>
