<svg id="cb5aa72c-576f-4646-83ec-c5cae1d34d3b" data-name="Слой 1" xmlns="http://www.w3.org/2000/svg" xmlns:xlink="http://www.w3.org/1999/xlink" viewBox="0 0 46.4 53.03">
  <defs>
    <clipPath id="7b7dd488-126f-4f8c-a551-290fa4f0badb">
      <rect x="36" y="13" width="11" height="11" style="fill: none"/>
    </clipPath>
  </defs>
  <title>file-icon--doc</title>
  <path d="M9.94,0A3.32,3.32,0,0,0,6.63,3.31v46.4A3.32,3.32,0,0,0,9.94,53H43.09a3.32,3.32,0,0,0,3.31-3.32V13.26L33.14,0Z" style="fill: #e2e5e7"/>
  <path d="M36.46,13.26H46.4L33.14,0V9.94A3.33,3.33,0,0,0,36.46,13.26Z" style="fill: #b0b7bd"/>
  <g style="opacity: 0.501960813999176;isolation: isolate">
    <g style="clip-path: url(#7b7dd488-126f-4f8c-a551-290fa4f0badb)">
      <polygon points="46.4 23.2 36.46 13.26 46.4 13.26 46.4 23.2" style="fill: #cad1d8"/>
    </g>
  </g>
  <rect y="24.86" width="39.77" height="19.89" rx="1.66" ry="1.66" style="fill: #4f64aa"/>
  <path d="M7.11,32.22v5.93h2.2c3.58,0,3.73-5.93,0-5.93Zm-.84,7.55A.83.83,0,0,1,5.36,39V31.42a.9.9,0,0,1,.91-.82h3c6,0,5.92,9.17.12,9.17Z" style="fill: #fff"/>
  <path d="M20.15,32a3.15,3.15,0,1,0,3.16,3.15A3,3,0,0,0,20.15,32Zm.15,7.91a4.63,4.63,0,0,1-5-4.77,4.76,4.76,0,0,1,5-4.86A4.77,4.77,0,0,1,25,35.13,4.61,4.61,0,0,1,20.3,39.9Z" style="fill: #fff"/>
  <path d="M26.6,35.12a4.46,4.46,0,0,1,4.65-4.76,4.36,4.36,0,0,1,3,1.18.86.86,0,1,1-1.18,1.25,2.29,2.29,0,0,0-1.86-.73,2.86,2.86,0,0,0-3,3.06,2.91,2.91,0,0,0,3,3.16,3.1,3.1,0,0,0,2.07-.85.89.89,0,0,1,1.22.16.9.9,0,0,1-.15,1.24,4.34,4.34,0,0,1-3.14,1C28.05,39.87,26.6,37.68,26.6,35.12Z" style="fill: #fff"/>
  <path d="M38.11,44.74H6.63V46.4H38.11a1.66,1.66,0,0,0,1.66-1.66V43.09A1.65,1.65,0,0,1,38.11,44.74Z" style="fill: #cad1d8"/>
</svg>
