<svg id="65a8f208-0430-4650-96f8-746a7ba04693" data-name="Слой 1" xmlns="http://www.w3.org/2000/svg" viewBox="0 0 80 20" preserveAspectRatio="none">
  <title>ll</title>
  <path d="M40,10a9.64,9.64,0,0,1-2.93,7.07,10,10,0,0,1-14.14,0A9.64,9.64,0,0,1,20,10a9.64,9.64,0,0,1,2.93-7.07,10,10,0,0,1,14.14,0A9.64,9.64,0,0,1,40,10Z" style="fill: #f9f9f9"/>
  <path d="M22.29,12.86a8.23,8.23,0,0,0,15.42,0L30,12.14Z" style="fill: #ffda44"/>
  <path d="M30,1.78a8.23,8.23,0,0,0-7.71,5.36L30,7.86l7.71-.72A8.23,8.23,0,0,0,30,1.78Z"/>
  <path d="M22.29,7.14a8.27,8.27,0,0,0,0,5.72H37.71a8.27,8.27,0,0,0,0-5.72Z" style="fill: #d80027"/>
  <path d="M60,10a9.64,9.64,0,0,1-2.93,7.07,10,10,0,0,1-14.14,0A9.64,9.64,0,0,1,40,10a9.64,9.64,0,0,1,2.93-7.07,10,10,0,0,1,14.14,0A9.64,9.64,0,0,1,60,10Z" style="fill: #f9f9f9"/>
  <path d="M58.22,10a7.89,7.89,0,0,1-2.41,5.81,8.21,8.21,0,0,1-11.62,0A7.89,7.89,0,0,1,41.78,10a7.89,7.89,0,0,1,2.41-5.81,8.21,8.21,0,0,1,11.62,0A7.89,7.89,0,0,1,58.22,10Z" style="fill: #f9f9f9"/>
  <path d="M58.22,10a8.23,8.23,0,0,0-5.36-7.71V17.71A8.23,8.23,0,0,0,58.22,10Z" style="fill: #ee3f45"/>
  <path d="M41.78,10a8.23,8.23,0,0,0,5.36,7.71V2.29A8.23,8.23,0,0,0,41.78,10Z" style="fill: #33b960"/>
  <path d="M20,10a9.64,9.64,0,0,1-2.93,7.07A9.64,9.64,0,0,1,10,20a9.64,9.64,0,0,1-7.07-2.93A9.64,9.64,0,0,1,0,10,9.64,9.64,0,0,1,2.93,2.93,9.64,9.64,0,0,1,10,0a9.64,9.64,0,0,1,7.07,2.93A9.64,9.64,0,0,1,20,10Z" style="fill: #f9f9f9"/>
  <path d="M3.55,5.05a8.43,8.43,0,0,0-1.4,2.83H6.38Z" style="fill: #2a75cf"/>
  <path d="M17.85,7.88a8.43,8.43,0,0,0-1.4-2.83L13.62,7.88Z" style="fill: #2a75cf"/>
  <path d="M2.15,12.12A8.43,8.43,0,0,0,3.55,15l2.83-2.83Z" style="fill: #2a75cf"/>
  <path d="M15,3.55a8.24,8.24,0,0,0-2.83-1.4V6.38Z" style="fill: #2a75cf"/>
  <path d="M5.05,16.45a8.43,8.43,0,0,0,2.83,1.4V13.62Z" style="fill: #2a75cf"/>
  <path d="M7.88,2.15a8.24,8.24,0,0,0-2.83,1.4L7.88,6.38Z" style="fill: #2a75cf"/>
  <path d="M12.12,17.85A8.43,8.43,0,0,0,15,16.45l-2.83-2.83v4.23Z" style="fill: #2a75cf"/>
  <path d="M13.62,12.12,16.45,15a8.43,8.43,0,0,0,1.4-2.83Z" style="fill: #2a75cf"/>
  <path d="M18.06,8.94h-7v-7a9.39,9.39,0,0,0-2.12,0v7h-7A9.28,9.28,0,0,0,1.87,10a9.28,9.28,0,0,0,.07,1.06h7v7a9.28,9.28,0,0,0,1.06.07,9.28,9.28,0,0,0,1.06-.07v-7h7A9.28,9.28,0,0,0,18.13,10,9.28,9.28,0,0,0,18.06,8.94Z" style="fill: #ee3f45"/>
  <path d="M12.12,12.12l3.63,3.63c.16-.17.32-.35.47-.53l-3.1-3.1Z" style="fill: #ee3f45"/>
  <path d="M7.88,12.12,4.25,15.75l.53.47,3.1-3.1Z" style="fill: #ee3f45"/>
  <path d="M7.88,7.88,4.25,4.25c-.16.17-.32.35-.47.53l3.1,3.1Z" style="fill: #ee3f45"/>
  <path d="M12.12,7.88l3.63-3.63-.53-.47-3.1,3.1Z" style="fill: #ee3f45"/>
  <path d="M80,10a9.64,9.64,0,0,1-2.93,7.07,10,10,0,0,1-14.14,0A9.64,9.64,0,0,1,60,10a9.64,9.64,0,0,1,2.93-7.07,10,10,0,0,1,14.14,0A9.64,9.64,0,0,1,80,10Z" style="fill: #f9f9f9"/>
  <path d="M78.4,10a8.09,8.09,0,0,1-2.46,5.94,8.4,8.4,0,0,1-11.88,0A8.09,8.09,0,0,1,61.6,10a8.09,8.09,0,0,1,2.46-5.94,8.4,8.4,0,0,1,11.88,0A8.09,8.09,0,0,1,78.4,10Z" style="fill: #f9f9f9"/>
  <path d="M77.56,12.81a8,8,0,0,0,.5-2.81,7.86,7.86,0,0,0-.5-2.8H62.44a7.86,7.86,0,0,0-.5,2.8,8,8,0,0,0,.5,2.81l7.56.7Z" style="fill: #2a75cf"/>
  <path d="M70,18.06a8.05,8.05,0,0,0,7.56-5.25H62.44A8.05,8.05,0,0,0,70,18.06Z" style="fill: #ee3f45"/>
</svg>
