<svg id="b487b0b4-f1c6-4b2b-b144-35db9195313c" data-name="65a8f208-0430-4650-96f8-746a7ba04693" xmlns="http://www.w3.org/2000/svg" width="20" height="20" viewBox="0 0 20 20">
  <defs>
    <style>
      .aa157956-9fa1-45d7-83fb-a3eb9fe7cd64 {
        fill: #f9f9f9;
      }

      .\37 0add520-d7ef-42df-8455-d34d2a246f7c {
        fill: #ffda44;
      }

      .e9d84a3f-da0c-45e9-a629-c688b60315e3 {
        fill: #d80027;
      }
    </style>
  </defs>
  <title>footer__info-language-button-german</title>
  <g>
    <path class="aa157956-9fa1-45d7-83fb-a3eb9fe7cd64" d="M20,10a9.64,9.64,0,0,1-2.93,7.07,10,10,0,0,1-14.14,0A9.64,9.64,0,0,1,0,10,9.64,9.64,0,0,1,2.93,2.93a10,10,0,0,1,14.14,0A9.64,9.64,0,0,1,20,10Z"/>
    <path class="70add520-d7ef-42df-8455-d34d2a246f7c" d="M2.29,12.86a8.23,8.23,0,0,0,15.42,0L10,12.14Z"/>
    <path d="M10,1.78A8.23,8.23,0,0,0,2.29,7.14L10,7.86l7.71-.72A8.23,8.23,0,0,0,10,1.78Z"/>
    <path class="e9d84a3f-da0c-45e9-a629-c688b60315e3" d="M2.29,7.14a8.27,8.27,0,0,0,0,5.72H17.71a8.27,8.27,0,0,0,0-5.72Z"/>
  </g>
</svg>
