<svg id="e43960c9-959d-471e-ab6a-4c352faec2bc" data-name="bb93e4e1-6779-4f3a-911d-32d4001f20a9" xmlns="http://www.w3.org/2000/svg" width="30" height="30" viewBox="0 0 30 30">
  <defs>
    <style>
      .\38 9bff90e-bdff-44bb-b415-278d4f45327d {
        fill: #3f4764;
      }

      .b446e2f7-c583-43fe-9037-c2d4cca1e0a5 {
        fill: #c8d4e8;
      }
    </style>
  </defs>
  <title>footer__icons-social-fb</title>
  <g>
    <path class="89bff90e-bdff-44bb-b415-278d4f45327d" d="M30,15a14.42,14.42,0,0,1-4.39,10.61A14.5,14.5,0,0,1,15,30,14.5,14.5,0,0,1,4.39,25.62,14.5,14.5,0,0,1,0,15,14.5,14.5,0,0,1,4.39,4.4,14.42,14.42,0,0,1,15,0,14.42,14.42,0,0,1,25.61,4.4,14.42,14.42,0,0,1,30,15Z" transform="translate(0 0)"/>
    <path class="b446e2f7-c583-43fe-9037-c2d4cca1e0a5" d="M18.94,7.15H16.89a3.6,3.6,0,0,0-3.8,3.4,4.17,4.17,0,0,0,0,.5v1.8H11a.32.32,0,0,0-.32.32v2.6a.33.33,0,0,0,.32.33h2.07v6.57a.33.33,0,0,0,.32.32h2.7a.32.32,0,0,0,.32-.32V16.1h2.42a.32.32,0,0,0,.32-.32h0v-2.6a.31.31,0,0,0-.32-.32h-2.4V11.32c0-.73.18-1.1,1.13-1.1h1.38a.33.33,0,0,0,.33-.33V7.48A.33.33,0,0,0,18.94,7.15Z" transform="translate(0 0)"/>
  </g>
</svg>
