<svg id="d2089ee3-f5b5-43bd-bc4a-2da45312a65d" data-name="4cd7f7e7-d160-49bc-b7cc-cd4c5bb35bf1" xmlns="http://www.w3.org/2000/svg" width="48.04" height="30" viewBox="0 0 48.04 30">
  <defs>
    <style>
      .ec0921bc-a91c-4d97-9bfe-db4ce4a0b1f7 {
        fill: #3957a7;
      }

      .f67e0d8d-7b79-4a6b-8abb-5b294e37e6c2 {
        fill: #fff;
      }

      .ec64bd20-fc62-4f8a-a391-493c06694d98 {
        fill: #f9a533;
      }
    </style>
  </defs>
  <title>footer__icons-payment-visa</title>
  <g>
    <path class="ec0921bc-a91c-4d97-9bfe-db4ce4a0b1f7" d="M0,25.82V4.18A4.1,4.1,0,0,1,4.18,0H43.82a4.1,4.1,0,0,1,3,1.22,4,4,0,0,1,1.22,3v21.6A4.18,4.18,0,0,1,43.86,30H4.18a4,4,0,0,1-3-1.23A4,4,0,0,1,0,25.82Z" transform="translate(0 0)"/>
    <polygon class="f67e0d8d-7b79-4a6b-8abb-5b294e37e6c2" points="22.09 19.51 19.74 19.51 21.21 10.5 23.55 10.5 22.09 19.51"/>
    <path class="f67e0d8d-7b79-4a6b-8abb-5b294e37e6c2" d="M17.77,10.5l-2.23,6.19-.27-1.33-.79-4a1,1,0,0,0-1.11-.81H9.67v.15a9.09,9.09,0,0,1,2.46,1l2,7.84h2.44l3.72-9Z" transform="translate(0 0)"/>
    <path class="f67e0d8d-7b79-4a6b-8abb-5b294e37e6c2" d="M33.63,16.33,34.87,13l.69,3.37Zm2.58,3.19h2.15l-1.87-9H34.61a1.11,1.11,0,0,0-1.09.67L30,19.52h2.44L33,18.18h3Z" transform="translate(0 0)"/>
    <path class="f67e0d8d-7b79-4a6b-8abb-5b294e37e6c2" d="M30.21,12.67l.33-1.95a6.91,6.91,0,0,0-2.11-.39c-1.16,0-3.94.52-3.94,3s3.25,2.36,3.25,3.58-2.91,1-3.87.23l-.33,2a6.31,6.31,0,0,0,2.64.51c1.6,0,4-.83,4-3.08S26.93,14,26.93,13,29.21,12.11,30.21,12.67Z" transform="translate(0 0)"/>
    <path class="ec64bd20-fc62-4f8a-a391-493c06694d98" d="M15.27,15.36l-.79-4a1,1,0,0,0-1.11-.81H9.67v.15a9.3,9.3,0,0,1,3.48,1.75,7,7,0,0,1,2.16,3Z" transform="translate(0 0)"/>
  </g>
</svg>
