<svg id="0991c58b-b923-4ccc-aa39-54bc9e7ac2a8" data-name="bb93e4e1-6779-4f3a-911d-32d4001f20a9" xmlns="http://www.w3.org/2000/svg" width="30" height="30.01" viewBox="0 0 30 30.01">
  <defs>
    <style>
      .f4f8b668-616c-48cc-81fe-aa7bf09bd328 {
        fill: #3f4764;
      }

      .f159896a-048c-4fd2-ad19-94b8672db0f0 {
        fill: #c8d4e8;
      }
    </style>
  </defs>
  <title>footer__icons-social-bc</title>
  <g>
    <path class="f4f8b668-616c-48cc-81fe-aa7bf09bd328" d="M30,15a14.42,14.42,0,0,1-4.39,10.61,15,15,0,0,1-21.21,0h0A14.5,14.5,0,0,1,0,15,14.5,14.5,0,0,1,4.39,4.4a15,15,0,0,1,21.22,0h0A14.42,14.42,0,0,1,30,15Z"/>
    <path class="f159896a-048c-4fd2-ad19-94b8672db0f0" d="M18.32,17.74a1.33,1.33,0,0,1-.24.39,1.45,1.45,0,0,1-.39.3,4,4,0,0,1-.47.21,5.29,5.29,0,0,1-.54.13l-.56.09H14.18V15.58H16a5.87,5.87,0,0,1,.72.08,3.72,3.72,0,0,1,.65.19,1.45,1.45,0,0,1,.56.3,1.32,1.32,0,0,1,.51,1.08A1.31,1.31,0,0,1,18.32,17.74ZM14.18,11h.92a2.71,2.71,0,0,1,.57,0,3.12,3.12,0,0,1,.61.08,3.08,3.08,0,0,1,.54.16,1.18,1.18,0,0,1,.47.28,1.12,1.12,0,0,1,.3.41,1.17,1.17,0,0,1,.13.58,1.43,1.43,0,0,1-.09.5,1.1,1.1,0,0,1-.27.38,3.32,3.32,0,0,1-.36.26,2,2,0,0,1-.48.18L16,14l-.54.06H14.17V11ZM21,15.43a2.9,2.9,0,0,0-1.72-1,2.33,2.33,0,0,0,1.29-2.54,2.51,2.51,0,0,0-.36-1.13A2.22,2.22,0,0,0,19.4,10a4.08,4.08,0,0,0-1.11-.44,9,9,0,0,0-1.38-.22V6.84H15.4V9.25H14.19V6.84H12.68V9.32h-3v1.61h1.09a.78.78,0,0,1,.88.67v2.83h0v3.95a.52.52,0,0,1-.54.5H9.91l-.31,1.8h3v2.53h1.52V20.73h1.2v2.48h1.51V20.7a11.36,11.36,0,0,0,1.43-.15,5.49,5.49,0,0,0,1.2-.34,3.1,3.1,0,0,0,1-.57,2.77,2.77,0,0,0,.64-.88,4.06,4.06,0,0,0,.32-1.23A2.93,2.93,0,0,0,21,15.43Z"/>
  </g>
</svg>
