<svg id="54317846-1f73-4098-8f9c-dc23c715ada9" data-name="65a8f208-0430-4650-96f8-746a7ba04693" xmlns="http://www.w3.org/2000/svg" width="20" height="20" viewBox="0 0 20 20">
  <defs>
    <style>
      .d14fd2df-4b20-4ac9-be3f-e837d176e117 {
        fill: #f9f9f9;
      }

      .\35 d31d7d7-b879-432e-a285-02d317718a17 {
        fill: #ee3f45;
      }

      .\34 d96ed7e-479e-431d-862b-35feb78c0521 {
        fill: #33b960;
      }
    </style>
  </defs>
  <title>footer__info-language-button-Italian</title>
  <g>
    <path class="d14fd2df-4b20-4ac9-be3f-e837d176e117" d="M20,10a9.64,9.64,0,0,1-2.93,7.07,10,10,0,0,1-14.14,0A9.64,9.64,0,0,1,0,10,9.64,9.64,0,0,1,2.93,2.93a10,10,0,0,1,14.14,0A9.64,9.64,0,0,1,20,10Z"/>
    <path class="d14fd2df-4b20-4ac9-be3f-e837d176e117" d="M18.22,10a7.87,7.87,0,0,1-2.41,5.81,8.21,8.21,0,0,1-11.61,0h0A7.91,7.91,0,0,1,1.78,10,7.89,7.89,0,0,1,4.19,4.19a8.2,8.2,0,0,1,11.61,0h0A7.85,7.85,0,0,1,18.22,10Z"/>
    <path class="5d31d7d7-b879-432e-a285-02d317718a17" d="M18.22,10a8.23,8.23,0,0,0-5.36-7.71V17.71A8.24,8.24,0,0,0,18.22,10Z"/>
    <path class="4d96ed7e-479e-431d-862b-35feb78c0521" d="M1.78,10a8.24,8.24,0,0,0,5.36,7.71V2.29A8.23,8.23,0,0,0,1.78,10Z"/>
  </g>
</svg>
