<svg id="188d20cc-80d8-4369-a6fa-e69a183d7bdb" data-name="65a8f208-0430-4650-96f8-746a7ba04693" xmlns="http://www.w3.org/2000/svg" width="20" height="20" viewBox="0 0 20 20">
  <defs>
    <style>
      .cdd89fa9-eed5-4055-b137-6be7245a650f {
        fill: #f9f9f9;
      }

      .\30 7c80140-1536-428a-a1b1-b99c73321c51 {
        fill: #2a75cf;
      }

      .\36 c0bc6c1-2296-4750-b375-3783cd1dd583 {
        fill: #ee3f45;
      }
    </style>
  </defs>
  <title>footer__info-language-button-english</title>
  <g>
    <path class="cdd89fa9-eed5-4055-b137-6be7245a650f" d="M20,10a9.64,9.64,0,0,1-2.93,7.07A9.64,9.64,0,0,1,10,20a9.64,9.64,0,0,1-7.07-2.93A9.64,9.64,0,0,1,0,10,9.64,9.64,0,0,1,2.93,2.93,9.64,9.64,0,0,1,10,0a9.64,9.64,0,0,1,7.07,2.93A9.64,9.64,0,0,1,20,10Z"/>
    <path class="07c80140-1536-428a-a1b1-b99c73321c51" d="M3.55,5.05a8.61,8.61,0,0,0-1.4,2.83H6.38Z"/>
    <path class="07c80140-1536-428a-a1b1-b99c73321c51" d="M17.85,7.88a8.42,8.42,0,0,0-1.4-2.83L13.62,7.88Z"/>
    <path class="07c80140-1536-428a-a1b1-b99c73321c51" d="M2.15,12.12A8.38,8.38,0,0,0,3.55,15l2.83-2.83Z"/>
    <path class="07c80140-1536-428a-a1b1-b99c73321c51" d="M15,3.55a8.24,8.24,0,0,0-2.83-1.4V6.38Z"/>
    <path class="07c80140-1536-428a-a1b1-b99c73321c51" d="M5.05,16.45a8.42,8.42,0,0,0,2.83,1.4V13.62Z"/>
    <path class="07c80140-1536-428a-a1b1-b99c73321c51" d="M7.88,2.15a8.42,8.42,0,0,0-2.83,1.4L7.88,6.38Z"/>
    <path class="07c80140-1536-428a-a1b1-b99c73321c51" d="M12.12,17.85A8.38,8.38,0,0,0,15,16.45l-2.83-2.83v4.23Z"/>
    <path class="07c80140-1536-428a-a1b1-b99c73321c51" d="M13.62,12.12,16.45,15a8.42,8.42,0,0,0,1.4-2.83Z"/>
    <path class="6c0bc6c1-2296-4750-b375-3783cd1dd583" d="M18.06,8.94h-7v-7a9.39,9.39,0,0,0-2.12,0v7h-7A9.43,9.43,0,0,0,1.87,10a9.28,9.28,0,0,0,.07,1.06h7v7a9.43,9.43,0,0,0,1.06.07,9.28,9.28,0,0,0,1.06-.07v-7h7A9.28,9.28,0,0,0,18.13,10,9.43,9.43,0,0,0,18.06,8.94Z"/>
    <path class="6c0bc6c1-2296-4750-b375-3783cd1dd583" d="M12.12,12.12l3.63,3.63c.16-.17.32-.35.47-.53l-3.1-3.1Z"/>
    <path class="6c0bc6c1-2296-4750-b375-3783cd1dd583" d="M7.88,12.12,4.25,15.75l.53.47,3.1-3.1Z"/>
    <path class="6c0bc6c1-2296-4750-b375-3783cd1dd583" d="M7.88,7.88,4.25,4.25c-.16.17-.32.35-.47.53l3.1,3.1Z"/>
    <path class="6c0bc6c1-2296-4750-b375-3783cd1dd583" d="M12.12,7.88l3.63-3.63-.53-.47-3.1,3.1Z"/>
  </g>
</svg>
