<svg id="4cd7f7e7-d160-49bc-b7cc-cd4c5bb35bf1" data-name="Слой 1" xmlns="http://www.w3.org/2000/svg" viewBox="0 0 144 30">
  <title>footer__icons-payment</title>
  <path d="M0,25.82V4.18a4.07,4.07,0,0,1,1.22-3A4.07,4.07,0,0,1,4.18,0H43.82a4.07,4.07,0,0,1,3,1.22,4.07,4.07,0,0,1,1.22,3V25.82A4.18,4.18,0,0,1,43.82,30H4.18a4,4,0,0,1-3-1.23A4,4,0,0,1,0,25.82Z" style="fill: #3957a7"/>
  <polygon points="22.09 19.51 19.74 19.51 21.21 10.5 23.55 10.5 22.09 19.51" style="fill: #fff"/>
  <path d="M17.77,10.5l-2.23,6.19-.27-1.33-.79-4a1,1,0,0,0-1.11-.81H9.67l0,.15a9.17,9.17,0,0,1,2.46,1l2,7.84h2.44l3.72-9Z" style="fill: #fff"/>
  <path d="M33.63,16.33,34.87,13l.69,3.37Zm2.58,3.19h2.15l-1.87-9H34.61a1.11,1.11,0,0,0-1.09.67L30,19.52h2.44L33,18.18h3Z" style="fill: #fff"/>
  <path d="M30.21,12.67l.33-1.95a6.91,6.91,0,0,0-2.11-.39c-1.16,0-3.94.52-3.94,3s3.25,2.36,3.25,3.58-2.91,1-3.87.23l-.33,2a6.28,6.28,0,0,0,2.64.51c1.6,0,4-.83,4-3.08S26.93,14,26.93,13,29.21,12.11,30.21,12.67Z" style="fill: #fff"/>
  <path d="M15.27,15.36l-.79-4a1,1,0,0,0-1.11-.81H9.67l0,.15a9.3,9.3,0,0,1,3.48,1.75,7,7,0,0,1,2.16,3Z" style="fill: #f9a533"/>
  <path d="M48,25.82V4.18a4.07,4.07,0,0,1,1.22-3,4.07,4.07,0,0,1,3-1.22H91.82a4.07,4.07,0,0,1,3,1.22,4.07,4.07,0,0,1,1.22,3V25.82A4.18,4.18,0,0,1,91.82,30H52.18A4.18,4.18,0,0,1,48,25.82Z" style="fill: #13457c"/>
  <polygon points="77.76 23.61 78.2 23.6 78.64 23.57 79.07 23.51 79.5 23.43 79.92 23.34 80.33 23.23 80.73 23.09 81.12 22.93 81.5 22.76 81.88 22.57 82.23 22.36 82.59 22.14 82.92 21.9 83.25 21.64 83.56 21.37 83.86 21.09 84.15 20.78 84.42 20.47 84.67 20.15 84.91 19.81 85.14 19.46 85.35 19.1 85.54 18.72 85.71 18.34 85.86 17.95 86 17.55 86.12 17.14 86.22 16.72 86.29 16.3 86.34 15.87 86.38 15.43 86.39 14.99 86.38 14.54 86.34 14.11 86.29 13.68 86.22 13.26 86.12 12.84 86 12.43 85.86 12.03 85.71 11.64 85.54 11.26 85.35 10.89 85.14 10.54 84.91 10.18 84.67 9.85 84.42 9.53 84.15 9.21 83.86 8.91 83.56 8.63 83.25 8.35 82.92 8.1 82.59 7.86 82.23 7.63 81.88 7.43 81.5 7.24 81.12 7.06 80.73 6.91 80.33 6.77 79.92 6.66 79.5 6.56 79.07 6.49 78.64 6.43 78.2 6.4 77.76 6.39 77.32 6.4 76.88 6.43 76.45 6.49 76.02 6.56 75.61 6.66 75.2 6.77 74.8 6.91 74.41 7.06 74.03 7.24 73.66 7.43 73.3 7.63 72.95 7.86 72.61 8.1 72.29 8.35 71.98 8.63 71.68 8.91 71.39 9.21 71.13 9.53 70.87 9.85 70.63 10.18 70.41 10.54 70.2 10.89 70.01 11.26 69.84 11.64 69.68 12.03 69.55 12.43 69.43 12.84 69.34 13.26 69.26 13.68 69.21 14.11 69.18 14.54 69.16 14.99 69.18 15.43 69.21 15.87 69.26 16.3 69.34 16.72 69.43 17.14 69.55 17.55 69.68 17.95 69.84 18.34 70.01 18.72 70.2 19.1 70.41 19.46 70.63 19.81 70.87 20.15 71.13 20.47 71.39 20.78 71.68 21.09 71.98 21.37 72.29 21.64 72.61 21.9 72.95 22.14 73.3 22.36 73.66 22.57 74.03 22.76 74.41 22.93 74.8 23.09 75.2 23.23 75.61 23.34 76.02 23.43 76.45 23.51 76.88 23.57 77.32 23.6 77.76 23.61" style="fill: #fbb231;fill-rule: evenodd"/>
  <polygon points="66.24 23.61 66.68 23.6 67.12 23.57 67.55 23.51 67.97 23.43 68.39 23.34 68.8 23.23 69.2 23.09 69.59 22.93 69.97 22.76 70.34 22.57 70.7 22.36 71.05 22.14 71.38 21.9 71.71 21.64 72.02 21.37 72.32 21.09 72.6 20.78 72.87 20.47 73.13 20.15 73.37 19.81 73.59 19.46 73.8 19.1 73.99 18.72 74.16 18.34 74.31 17.95 74.45 17.55 74.57 17.14 74.66 16.72 74.73 16.3 74.79 15.87 74.82 15.43 74.83 14.99 74.82 14.54 74.79 14.11 74.73 13.68 74.66 13.26 74.57 12.84 74.45 12.43 74.31 12.03 74.16 11.64 73.99 11.26 73.8 10.89 73.59 10.54 73.37 10.18 73.13 9.85 72.87 9.53 72.6 9.21 72.32 8.91 72.02 8.63 71.71 8.35 71.38 8.1 71.05 7.86 70.7 7.63 70.34 7.43 69.97 7.24 69.59 7.06 69.2 6.91 68.8 6.77 68.39 6.66 67.97 6.56 67.55 6.49 67.12 6.43 66.68 6.4 66.24 6.39 65.8 6.4 65.36 6.43 64.93 6.49 64.5 6.56 64.08 6.66 63.67 6.77 63.27 6.91 62.88 7.06 62.5 7.24 62.13 7.43 61.77 7.63 61.41 7.86 61.08 8.1 60.75 8.35 60.44 8.63 60.14 8.91 59.85 9.21 59.58 9.53 59.33 9.85 59.08 10.18 58.86 10.54 58.65 10.89 58.46 11.26 58.29 11.64 58.13 12.03 58 12.43 57.88 12.84 57.78 13.26 57.71 13.68 57.66 14.11 57.63 14.54 57.61 14.99 57.63 15.43 57.66 15.87 57.71 16.3 57.78 16.72 57.88 17.14 58 17.55 58.13 17.95 58.29 18.34 58.46 18.72 58.65 19.1 58.86 19.46 59.08 19.81 59.33 20.15 59.58 20.47 59.85 20.78 60.14 21.09 60.44 21.37 60.75 21.64 61.08 21.9 61.41 22.14 61.77 22.36 62.13 22.57 62.5 22.76 62.88 22.93 63.27 23.09 63.67 23.23 64.08 23.34 64.5 23.43 64.93 23.51 65.36 23.57 65.8 23.6 66.24 23.61" style="fill: #ec1c2e;fill-rule: evenodd"/>
  <polygon points="70.99 9.69 75.57 9.69 75.57 9.22 71.39 9.22 70.99 9.69" style="fill: #fbb231;fill-rule: evenodd"/>
  <polygon points="70.31 10.73 75.57 10.73 75.57 10.26 70.58 10.26 70.31 10.73" style="fill: #fbb231;fill-rule: evenodd"/>
  <polygon points="69.79 11.77 75.57 11.77 75.57 11.3 70 11.3 69.79 11.77" style="fill: #fbb231;fill-rule: evenodd"/>
  <polygon points="69.44 12.81 75.57 12.81 75.57 12.34 69.59 12.34 69.44 12.81" style="fill: #fbb231;fill-rule: evenodd"/>
  <polygon points="69.65 17.83 75.58 17.83 75.58 17.37 69.5 17.37 69.65 17.83" style="fill: #fbb231;fill-rule: evenodd"/>
  <polygon points="70.08 18.87 75.58 18.87 75.58 18.41 69.87 18.41 70.08 18.87" style="fill: #fbb231;fill-rule: evenodd"/>
  <polygon points="70.7 19.91 75.58 19.91 75.58 19.44 70.41 19.44 70.7 19.91" style="fill: #fbb231;fill-rule: evenodd"/>
  <polygon points="71.55 20.95 75.58 20.95 75.58 20.48 71.14 20.48 71.55 20.95" style="fill: #fbb231;fill-rule: evenodd"/>
  <polygon points="69.24 13.85 75.57 13.85 75.57 13.38 69.33 13.38 69.24 13.85" style="fill: #fbb231;fill-rule: evenodd"/>
  <polygon points="73.1 16.8 75.51 16.8 75.51 16.33 73.18 16.33 73.1 16.8" style="fill: #fbb231;fill-rule: evenodd"/>
  <polygon points="73.29 15.76 75.51 15.76 75.51 15.29 73.38 15.29 73.29 15.76" style="fill: #fbb231;fill-rule: evenodd"/>
  <polygon points="69.08 15.29 69.71 15.29 69.71 15.76 69.11 15.76 69.08 15.29" style="fill: #fbb231;fill-rule: evenodd"/>
  <polygon points="67.91 14.72 67.86 14.72 67.82 14.71 67.79 14.71 67.75 14.7 67.72 14.7 67.68 14.69 67.64 14.68 67.6 14.68 67.56 14.67 67.51 14.67 67.46 14.67 67.41 14.66 67.34 14.66 67.28 14.67 67.2 14.67 67.11 14.68 67.06 14.69 67 14.7 66.95 14.71 66.91 14.73 66.87 14.75 66.83 14.78 66.8 14.81 66.78 14.83 66.76 14.86 66.74 14.89 66.74 14.93 66.74 14.96 66.75 15 66.76 15.04 66.78 15.08 66.81 15.12 66.87 15.17 66.94 15.21 67.02 15.25 67.11 15.28 67.2 15.31 67.3 15.35 67.39 15.38 67.49 15.42 67.57 15.47 67.66 15.53 67.73 15.6 67.79 15.69 67.83 15.8 67.86 15.93 67.88 16.09 67.86 16.27 67.84 16.41 67.81 16.53 67.76 16.64 67.7 16.73 67.64 16.82 67.56 16.89 67.48 16.95 67.39 17.01 67.3 17.05 67.2 17.09 67.1 17.12 67 17.14 66.9 17.16 66.81 17.17 66.71 17.18 66.62 17.18 66.5 17.18 66.38 17.18 66.28 17.18 66.18 17.17 66.09 17.17 66.02 17.16 65.94 17.16 65.88 17.15 65.82 17.14 65.76 17.13 65.71 17.12 65.66 17.11 65.61 17.09 65.56 17.08 65.52 17.06 65.47 17.04 65.6 16.4 65.62 16.41 65.66 16.42 65.69 16.43 65.75 16.44 65.8 16.45 65.86 16.46 65.92 16.48 65.99 16.49 66.06 16.5 66.14 16.51 66.22 16.52 66.3 16.53 66.38 16.53 66.46 16.54 66.55 16.54 66.63 16.53 66.72 16.52 66.79 16.49 66.84 16.46 66.88 16.42 66.91 16.38 66.93 16.33 66.95 16.29 66.96 16.24 66.96 16.16 66.94 16.08 66.89 16.03 66.81 15.98 66.73 15.94 66.63 15.89 66.51 15.85 66.4 15.8 66.28 15.75 66.17 15.69 66.07 15.61 65.98 15.53 65.91 15.41 65.85 15.28 65.83 15.13 65.83 14.94 65.84 14.83 65.86 14.72 65.89 14.62 65.93 14.53 65.97 14.44 66.03 14.37 66.09 14.29 66.16 14.23 66.25 14.17 66.34 14.13 66.44 14.08 66.56 14.05 66.69 14.03 66.83 14.01 66.99 13.99 67.16 13.99 67.27 13.99 67.36 13.99 67.46 14 67.54 14 67.61 14.01 67.68 14.01 67.73 14.02 67.79 14.02 67.84 14.03 67.88 14.04 67.92 14.04 67.95 14.05 67.98 14.06 68.01 14.06 68.03 14.06 68.05 14.07 67.91 14.72" style="fill: #fff;fill-rule: evenodd"/>
  <polyline points="67.91 14.72 67.86 14.72 67.82 14.71 67.79 14.71 67.75 14.7 67.72 14.7 67.68 14.69 67.64 14.68 67.6 14.68 67.56 14.67 67.51 14.67 67.46 14.67 67.41 14.66 67.34 14.66 67.28 14.67 67.2 14.67 67.11 14.68 67.06 14.69 67 14.7 66.95 14.71 66.91 14.73 66.87 14.75 66.83 14.78 66.8 14.81 66.78 14.83 66.76 14.86 66.74 14.89 66.74 14.93 66.74 14.96 66.75 15 66.76 15.04 66.78 15.08 66.81 15.12 66.87 15.17 66.94 15.21 67.02 15.25 67.11 15.28 67.2 15.31 67.3 15.35 67.39 15.38 67.49 15.42 67.57 15.47 67.66 15.53 67.73 15.6 67.79 15.69 67.83 15.8 67.86 15.93 67.88 16.09 67.86 16.27 67.84 16.41 67.81 16.53 67.76 16.64 67.7 16.73 67.64 16.82 67.56 16.89 67.48 16.95 67.39 17.01 67.3 17.05 67.2 17.09 67.1 17.12 67 17.14 66.9 17.16 66.81 17.17 66.71 17.18 66.62 17.18 66.5 17.18 66.38 17.18 66.28 17.18 66.18 17.17 66.09 17.17 66.02 17.16 65.94 17.16 65.88 17.15 65.82 17.14 65.76 17.13 65.71 17.12 65.66 17.11 65.61 17.09 65.56 17.08 65.52 17.06 65.47 17.04 65.6 16.4 65.62 16.41 65.66 16.42 65.69 16.43 65.75 16.44 65.8 16.45 65.86 16.46 65.92 16.48 65.99 16.49 66.06 16.5 66.14 16.51 66.22 16.52 66.3 16.53 66.38 16.53 66.46 16.54 66.55 16.54 66.63 16.53 66.72 16.52 66.79 16.49 66.84 16.46 66.88 16.42 66.91 16.38 66.93 16.33 66.95 16.29 66.96 16.24 66.96 16.16 66.94 16.08 66.89 16.03 66.81 15.98 66.73 15.94 66.63 15.89 66.51 15.85 66.4 15.8 66.28 15.75 66.17 15.69 66.07 15.61 65.98 15.53 65.91 15.41 65.85 15.28 65.83 15.13 65.83 14.94 65.84 14.83 65.86 14.72 65.89 14.62 65.93 14.53 65.97 14.44 66.03 14.37 66.09 14.29 66.16 14.23 66.25 14.17 66.34 14.13 66.44 14.08 66.56 14.05 66.69 14.03 66.83 14.01 66.99 13.99 67.16 13.99 67.27 13.99 67.36 13.99 67.46 14 67.54 14 67.61 14.01 67.68 14.01 67.73 14.02 67.79 14.02 67.84 14.03 67.88 14.04 67.92 14.04 67.95 14.05 67.98 14.06 68.01 14.06 68.03 14.06 68.05 14.07 67.91 14.72" style="fill: none;stroke: #fff;stroke-miterlimit: 2.609999895095825;stroke-width: 0.2199999988079071px"/>
  <polygon points="68.6 13.35 69.4 13.35 69.28 14.05 69.77 14.05 69.66 14.71 69.15 14.7 68.87 16.31 68.87 16.37 68.88 16.42 68.91 16.46 68.95 16.49 69 16.51 69.06 16.53 69.12 16.54 69.19 16.55 69.26 16.54 69.31 16.54 69.37 16.53 69.42 16.52 69.45 16.5 69.48 16.5 69.5 16.49 69.5 16.49 69.4 17.03 69.38 17.04 69.36 17.06 69.34 17.07 69.32 17.08 69.3 17.09 69.27 17.09 69.25 17.11 69.22 17.11 69.19 17.12 69.16 17.13 69.13 17.13 69.09 17.14 69.06 17.14 69.01 17.15 68.97 17.16 68.92 17.16 68.7 17.16 68.58 17.16 68.48 17.14 68.39 17.13 68.31 17.11 68.24 17.08 68.19 17.05 68.14 17.01 68.1 16.98 68.07 16.94 68.05 16.89 68.03 16.84 68.03 16.78 68.02 16.72 68.02 16.66 68.03 16.59 68.04 16.52 68.6 13.35" style="fill: #fff;fill-rule: evenodd"/>
  <polyline points="68.6 13.35 69.4 13.35 69.28 14.05 69.77 14.05 69.66 14.71 69.15 14.7 68.87 16.31 68.87 16.37 68.88 16.42 68.91 16.46 68.95 16.49 69 16.51 69.06 16.53 69.12 16.54 69.19 16.55 69.26 16.54 69.31 16.54 69.37 16.53 69.42 16.52 69.45 16.5 69.48 16.5 69.5 16.49 69.5 16.49 69.4 17.03 69.38 17.04 69.36 17.06 69.34 17.07 69.32 17.08 69.3 17.09 69.27 17.09 69.25 17.11 69.22 17.11 69.19 17.12 69.16 17.13 69.13 17.13 69.09 17.14 69.06 17.14 69.01 17.15 68.97 17.16 68.92 17.16 68.7 17.16 68.58 17.16 68.48 17.14 68.39 17.13 68.31 17.11 68.24 17.08 68.19 17.05 68.14 17.01 68.1 16.98 68.07 16.94 68.05 16.89 68.03 16.84 68.03 16.78 68.02 16.72 68.02 16.66 68.03 16.59 68.04 16.52 68.6 13.35" style="fill: none;stroke: #fff;stroke-miterlimit: 2.609999895095825;stroke-width: 0.2199999988079071px"/>
  <polyline points="70.41 15.8 70.4 15.85 70.39 15.9 70.4 15.96 70.41 16.02 70.43 16.07 70.46 16.12 70.49 16.18 70.53 16.23 70.57 16.27 70.61 16.32 70.66 16.36 70.71 16.4 70.76 16.43 70.82 16.45 70.87 16.48 70.93 16.49 71.01 16.5 71.08 16.51 71.16 16.52 71.23 16.52 71.31 16.53 71.39 16.53 71.46 16.52 71.54 16.52 71.62 16.5 71.7 16.49 71.78 16.47 71.86 16.45 71.94 16.42 72.02 16.38 72.11 16.34 72.19 16.29 72.07 17 72.03 17.02 71.98 17.05 71.93 17.06 71.89 17.08 71.84 17.09 71.8 17.11 71.75 17.12 71.7 17.13 71.65 17.14 71.59 17.14 71.53 17.15 71.47 17.16 71.39 17.16 71.31 17.16 71.22 17.16 71.13 17.16 70.98 17.16 70.84 17.14 70.69 17.13 70.55 17.09 70.41 17.05 70.27 16.99 70.14 16.92 70.02 16.83 69.9 16.73 69.81 16.62 69.72 16.48 69.65 16.33 69.6 16.16 69.57 15.96 69.56 15.75 69.58 15.51 69.59 15.42 69.6 15.31 69.63 15.2 69.66 15.07 69.7 14.95 69.76 14.82 69.82 14.7 69.9 14.58 70 14.46 70.11 14.35 70.23 14.25 70.38 14.16 70.55 14.09 70.74 14.04 70.95 14 71.18 13.99 71.3 13.99 71.42 14.01 71.53 14.03 71.65 14.06 71.77 14.1 71.88 14.15 71.99 14.22 72.08 14.3 72.17 14.4 72.24 14.52 72.3 14.65 72.34 14.81 72.36 14.98 72.37 15.18 72.35 15.39 72.3 15.64 72.29 15.82 70.17 15.82 70.31 15.25 71.58 15.25 71.58 15.17 71.58 15.1 71.57 15.04 71.57 14.98 71.54 14.92 71.52 14.88 71.49 14.83 71.47 14.79 71.43 14.76 71.39 14.73 71.35 14.7 71.31 14.68 71.26 14.66 71.21 14.65 71.16 14.64 71.11 14.63 71.06 14.64 71 14.64 70.95 14.66 70.9 14.68 70.85 14.7 70.81 14.72 70.77 14.76 70.73 14.79 70.69 14.83 70.66 14.88 70.63 14.92 70.6 14.97 70.57 15.02 70.55 15.08 70.54 15.14 70.53 15.2 70.41 15.8" style="fill: none;stroke: #fff;stroke-miterlimit: 2.609999895095825;stroke-width: 0.2199999988079071px"/>
  <polygon points="77.34 14.22 77.3 14.21 77.26 14.19 77.22 14.17 77.18 14.15 77.13 14.13 77.08 14.11 77.03 14.09 76.98 14.08 76.93 14.06 76.87 14.05 76.81 14.04 76.75 14.03 76.68 14.03 76.62 14.02 76.54 14.02 76.47 14.02 76.4 14.02 76.33 14.03 76.25 14.03 76.17 14.05 76.08 14.07 76 14.11 75.92 14.14 75.84 14.2 75.76 14.26 75.69 14.34 75.61 14.43 75.54 14.54 75.48 14.66 75.42 14.81 75.37 14.97 75.32 15.16 75.3 15.26 75.29 15.37 75.28 15.47 75.28 15.56 75.29 15.66 75.32 15.76 75.34 15.84 75.37 15.93 75.42 16.01 75.47 16.08 75.53 16.15 75.6 16.21 75.68 16.26 75.77 16.31 75.87 16.35 75.98 16.37 76.01 16.38 76.06 16.39 76.11 16.39 76.17 16.4 76.23 16.41 76.3 16.41 76.37 16.41 76.44 16.4 76.52 16.39 76.59 16.38 76.67 16.36 76.74 16.34 76.81 16.3 76.88 16.26 76.94 16.22 77 16.17 76.87 16.94 76.85 16.96 76.83 16.98 76.81 17 76.78 17.01 76.75 17.03 76.71 17.06 76.66 17.07 76.61 17.09 76.54 17.11 76.47 17.13 76.38 17.14 76.28 17.15 76.17 17.16 76.04 17.16 75.89 17.16 75.72 17.15 75.59 17.13 75.46 17.11 75.32 17.06 75.19 17 75.06 16.93 74.94 16.85 74.83 16.75 74.72 16.63 74.62 16.5 74.54 16.35 74.47 16.19 74.42 16.01 74.39 15.82 74.38 15.61 74.38 15.38 74.41 15.14 74.44 15.02 74.46 14.91 74.49 14.79 74.52 14.69 74.55 14.59 74.59 14.48 74.63 14.39 74.67 14.3 74.71 14.21 74.75 14.13 74.8 14.04 74.86 13.97 74.91 13.89 74.96 13.83 75.02 13.76 75.09 13.7 75.15 13.64 75.22 13.59 75.29 13.54 75.36 13.49 75.44 13.45 75.52 13.41 75.6 13.38 75.68 13.34 75.77 13.31 75.86 13.29 75.95 13.27 76.06 13.25 76.15 13.24 76.26 13.22 76.36 13.22 76.47 13.22 76.57 13.22 76.66 13.22 76.74 13.24 76.83 13.25 76.91 13.26 76.99 13.28 77.06 13.29 77.14 13.31 77.2 13.32 77.26 13.34 77.32 13.36 77.36 13.38 77.4 13.39 77.44 13.4 77.46 13.42 77.48 13.42 77.34 14.22" style="fill: #fff;fill-rule: evenodd"/>
  <polyline points="77.34 14.22 77.3 14.21 77.26 14.19 77.22 14.17 77.18 14.15 77.13 14.13 77.08 14.11 77.03 14.09 76.98 14.08 76.93 14.06 76.87 14.05 76.81 14.04 76.75 14.03 76.68 14.03 76.62 14.02 76.54 14.02 76.47 14.02 76.4 14.02 76.33 14.03 76.25 14.03 76.17 14.05 76.08 14.07 76 14.11 75.92 14.14 75.84 14.2 75.76 14.26 75.69 14.34 75.61 14.43 75.54 14.54 75.48 14.66 75.42 14.81 75.37 14.97 75.32 15.16 75.3 15.26 75.29 15.37 75.28 15.47 75.28 15.56 75.29 15.66 75.32 15.76 75.34 15.84 75.37 15.93 75.42 16.01 75.47 16.08 75.53 16.15 75.6 16.21 75.68 16.26 75.77 16.31 75.87 16.35 75.98 16.37 76.01 16.38 76.06 16.39 76.11 16.39 76.17 16.4 76.23 16.41 76.3 16.41 76.37 16.41 76.44 16.4 76.52 16.39 76.59 16.38 76.67 16.36 76.74 16.34 76.81 16.3 76.88 16.26 76.94 16.22 77 16.17 76.87 16.94 76.85 16.96 76.83 16.98 76.81 17 76.78 17.01 76.75 17.03 76.71 17.06 76.66 17.07 76.61 17.09 76.54 17.11 76.47 17.13 76.38 17.14 76.28 17.15 76.17 17.16 76.04 17.16 75.89 17.16 75.72 17.15 75.59 17.13 75.46 17.11 75.32 17.06 75.19 17 75.06 16.93 74.94 16.85 74.83 16.75 74.72 16.63 74.62 16.5 74.54 16.35 74.47 16.19 74.42 16.01 74.39 15.82 74.38 15.61 74.38 15.38 74.41 15.14 74.44 15.02 74.46 14.91 74.49 14.79 74.52 14.69 74.55 14.59 74.59 14.48 74.63 14.39 74.67 14.3 74.71 14.21 74.75 14.13 74.8 14.04 74.86 13.97 74.91 13.89 74.96 13.83 75.02 13.76 75.09 13.7 75.15 13.64 75.22 13.59 75.29 13.54 75.36 13.49 75.44 13.45 75.52 13.41 75.6 13.38 75.68 13.34 75.77 13.31 75.86 13.29 75.95 13.27 76.06 13.25 76.15 13.24 76.26 13.22 76.36 13.22 76.47 13.22 76.57 13.22 76.66 13.22 76.74 13.24 76.83 13.25 76.91 13.26 76.99 13.28 77.06 13.29 77.14 13.31 77.2 13.32 77.26 13.34 77.32 13.36 77.36 13.38 77.4 13.39 77.44 13.4 77.46 13.42 77.48 13.42 77.34 14.22" style="fill: none;stroke: #fff;stroke-miterlimit: 2.609999895095825;stroke-width: 0.2199999988079071px"/>
  <polygon points="84.49 17.16 83.68 17.16 83.74 16.84 83.74 16.81 83.69 16.87 83.65 16.92 83.6 16.97 83.54 17.01 83.49 17.05 83.44 17.08 83.39 17.11 83.33 17.13 83.28 17.15 83.22 17.17 83.17 17.18 83.11 17.19 83.05 17.2 82.99 17.2 82.94 17.2 82.88 17.2 82.73 17.19 82.59 17.16 82.46 17.11 82.34 17.05 82.24 16.96 82.15 16.86 82.07 16.76 81.99 16.64 81.94 16.5 81.89 16.37 81.86 16.23 81.84 16.08 81.83 15.93 81.83 15.78 81.84 15.63 81.87 15.48 81.91 15.31 81.97 15.15 82.03 15 82.1 14.86 82.18 14.73 82.26 14.61 82.35 14.51 82.45 14.41 82.55 14.33 82.66 14.26 82.77 14.19 82.88 14.14 82.99 14.1 83.11 14.07 83.23 14.06 83.34 14.05 83.43 14.06 83.51 14.06 83.59 14.08 83.66 14.1 83.72 14.12 83.78 14.15 83.84 14.18 83.89 14.21 83.94 14.25 83.98 14.29 84.02 14.32 84.06 14.36 84.08 14.4 84.11 14.44 84.13 14.47 84.15 14.5 84.36 13.36 85.14 13.36 84.49 17.16" style="fill: #fff;fill-rule: evenodd"/>
  <polyline points="84.49 17.16 83.68 17.16 83.74 16.84 83.74 16.81 83.69 16.87 83.65 16.92 83.6 16.97 83.54 17.01 83.49 17.05 83.44 17.08 83.39 17.11 83.33 17.13 83.28 17.15 83.22 17.17 83.17 17.18 83.11 17.19 83.05 17.2 82.99 17.2 82.94 17.2 82.88 17.2 82.73 17.19 82.59 17.16 82.46 17.11 82.34 17.05 82.24 16.96 82.15 16.86 82.07 16.76 81.99 16.64 81.94 16.5 81.89 16.37 81.86 16.23 81.84 16.08 81.83 15.93 81.83 15.78 81.84 15.63 81.87 15.48 81.91 15.31 81.97 15.15 82.03 15 82.1 14.86 82.18 14.73 82.26 14.61 82.35 14.51 82.45 14.41 82.55 14.33 82.66 14.26 82.77 14.19 82.88 14.14 82.99 14.1 83.11 14.07 83.23 14.06 83.34 14.05 83.43 14.06 83.51 14.06 83.59 14.08 83.66 14.1 83.72 14.12 83.78 14.15 83.84 14.18 83.89 14.21 83.94 14.25 83.98 14.29 84.02 14.32 84.06 14.36 84.08 14.4 84.11 14.44 84.13 14.47 84.15 14.5 84.36 13.36 85.14 13.36 84.49 17.16" style="fill: none;stroke: #fff;stroke-miterlimit: 2.609999895095825;stroke-width: 0.2199999988079071px"/>
  <polygon points="83.17 16.46 83.25 16.46 83.33 16.44 83.4 16.42 83.47 16.38 83.53 16.35 83.59 16.31 83.64 16.26 83.69 16.2 83.73 16.15 83.77 16.08 83.81 16.02 83.84 15.95 83.87 15.87 83.9 15.8 83.92 15.72 83.93 15.64 83.94 15.56 83.95 15.48 83.95 15.4 83.95 15.31 83.94 15.24 83.93 15.17 83.91 15.1 83.89 15.03 83.86 14.97 83.82 14.92 83.78 14.87 83.74 14.83 83.69 14.79 83.64 14.77 83.59 14.76 83.53 14.75 83.44 14.76 83.37 14.77 83.31 14.79 83.24 14.82 83.18 14.86 83.12 14.91 83.07 14.96 83.02 15.01 82.98 15.07 82.94 15.14 82.9 15.21 82.87 15.29 82.84 15.37 82.82 15.45 82.79 15.53 82.78 15.61 82.76 15.74 82.77 15.88 82.79 16.02 82.82 16.16 82.89 16.28 82.96 16.37 83.05 16.44 83.17 16.46" style="fill: #fbb231;fill-rule: evenodd"/>
  <polygon points="65.33 16.52 65.22 17.16 64.49 17.16 64.5 17.05 64.52 16.94 64.53 16.85 64.54 16.81 64.5 16.86 64.45 16.9 64.4 16.95 64.34 16.99 64.27 17.03 64.19 17.06 64.12 17.1 64.04 17.13 63.96 17.16 63.87 17.18 63.79 17.19 63.7 17.2 63.62 17.21 63.54 17.21 63.45 17.2 63.38 17.19 63.27 17.17 63.18 17.14 63.1 17.1 63.03 17.06 62.96 17.01 62.91 16.96 62.86 16.9 62.82 16.84 62.78 16.78 62.75 16.72 62.73 16.66 62.71 16.59 62.7 16.52 62.69 16.46 62.69 16.39 62.69 16.33 62.7 16.21 62.71 16.11 62.74 16.01 62.78 15.91 62.83 15.82 62.88 15.73 62.94 15.65 63.01 15.57 63.08 15.51 63.16 15.45 63.25 15.4 63.33 15.35 63.43 15.31 63.52 15.27 63.62 15.25 63.72 15.23 63.73 15.23 63.74 15.23 63.76 15.23 63.8 15.22 63.83 15.22 63.87 15.22 63.92 15.21 63.97 15.2 64.02 15.2 64.06 15.19 64.11 15.19 64.16 15.18 64.21 15.18 64.25 15.18 64.29 15.17 64.33 15.17 64.39 15.17 64.46 15.18 64.52 15.18 64.59 15.18 64.64 15.18 64.68 15.19 64.71 15.19 64.72 15.19 64.73 15.17 64.74 15.12 64.76 15.05 64.76 15 64.75 14.94 64.73 14.88 64.69 14.82 64.64 14.78 64.59 14.74 64.53 14.72 64.46 14.7 64.38 14.7 64.3 14.69 64.21 14.69 64.12 14.69 64.03 14.69 63.94 14.7 63.84 14.71 63.75 14.71 63.66 14.73 63.57 14.74 63.49 14.75 63.41 14.77 63.34 14.78 63.28 14.8 63.23 14.82 63.19 14.84 63.15 14.85 63.36 14.15 63.43 14.13 63.49 14.11 63.56 14.08 63.63 14.07 63.7 14.06 63.77 14.04 63.85 14.03 63.93 14.03 64.01 14.02 64.09 14.02 64.18 14.01 64.27 14.01 64.36 14.01 64.46 14.01 64.56 14.02 64.66 14.02 64.74 14.03 64.83 14.04 64.92 14.06 65.01 14.09 65.1 14.12 65.19 14.16 65.28 14.21 65.36 14.27 65.43 14.33 65.5 14.4 65.55 14.48 65.6 14.56 65.63 14.66 65.64 14.76 65.64 14.87 65.63 14.99 65.33 16.52" style="fill: #fff;fill-rule: evenodd"/>
  <polyline points="65.33 16.52 65.22 17.16 64.49 17.16 64.5 17.05 64.52 16.94 64.53 16.85 64.54 16.81 64.5 16.86 64.45 16.9 64.4 16.95 64.34 16.99 64.27 17.03 64.19 17.06 64.12 17.1 64.04 17.13 63.96 17.16 63.87 17.18 63.79 17.19 63.7 17.2 63.62 17.21 63.54 17.21 63.45 17.2 63.38 17.19 63.27 17.17 63.18 17.14 63.1 17.1 63.03 17.06 62.96 17.01 62.91 16.96 62.86 16.9 62.82 16.84 62.78 16.78 62.75 16.72 62.73 16.66 62.71 16.59 62.7 16.52 62.69 16.46 62.69 16.39 62.69 16.33 62.7 16.21 62.71 16.11 62.74 16.01 62.78 15.91 62.83 15.82 62.88 15.73 62.94 15.65 63.01 15.57 63.08 15.51 63.16 15.45 63.25 15.4 63.33 15.35 63.43 15.31 63.52 15.27 63.62 15.25 63.72 15.23 63.73 15.23 63.74 15.23 63.76 15.23 63.8 15.22 63.83 15.22 63.87 15.22 63.92 15.21 63.97 15.2 64.02 15.2 64.06 15.19 64.11 15.19 64.16 15.18 64.21 15.18 64.25 15.18 64.29 15.17 64.33 15.17 64.39 15.17 64.46 15.18 64.52 15.18 64.59 15.18 64.64 15.18 64.68 15.19 64.71 15.19 64.72 15.19 64.73 15.17 64.74 15.12 64.76 15.05 64.76 15 64.75 14.94 64.73 14.88 64.69 14.82 64.64 14.78 64.59 14.74 64.53 14.72 64.46 14.7 64.38 14.7 64.3 14.69 64.21 14.69 64.12 14.69 64.03 14.69 63.94 14.7 63.84 14.71 63.75 14.71 63.66 14.73 63.57 14.74 63.49 14.75 63.41 14.77 63.34 14.78 63.28 14.8 63.23 14.82 63.19 14.84 63.15 14.85 63.36 14.15 63.43 14.13 63.49 14.11 63.56 14.08 63.63 14.07 63.7 14.06 63.77 14.04 63.85 14.03 63.93 14.03 64.01 14.02 64.09 14.02 64.18 14.01 64.27 14.01 64.36 14.01 64.46 14.01 64.56 14.02 64.66 14.02 64.74 14.03 64.83 14.04 64.92 14.06 65.01 14.09 65.1 14.12 65.19 14.16 65.28 14.21 65.36 14.27 65.43 14.33 65.5 14.4 65.55 14.48 65.6 14.56 65.63 14.66 65.64 14.76 65.64 14.87 65.63 14.99 65.33 16.52" style="fill: none;stroke: #fff;stroke-miterlimit: 2.609999895095825;stroke-width: 0.2199999988079071px"/>
  <polygon points="64.64 15.76 64.63 15.75 64.62 15.73 64.6 15.72 64.57 15.72 64.54 15.71 64.5 15.71 64.46 15.71 64.41 15.71 64.37 15.71 64.32 15.72 64.27 15.72 64.23 15.73 64.18 15.74 64.14 15.74 64.11 15.75 64.08 15.76 64.05 15.77 64.03 15.77 64 15.79 63.97 15.8 63.93 15.82 63.89 15.84 63.85 15.86 63.81 15.88 63.77 15.91 63.74 15.94 63.7 15.97 63.67 16.01 63.64 16.05 63.62 16.09 63.6 16.13 63.59 16.18 63.59 16.28 63.61 16.36 63.63 16.42 63.67 16.46 63.71 16.49 63.76 16.5 63.81 16.52 63.86 16.52 63.95 16.52 64.02 16.5 64.1 16.49 64.16 16.48 64.22 16.45 64.28 16.43 64.33 16.41 64.37 16.37 64.41 16.34 64.44 16.31 64.47 16.28 64.5 16.24 64.52 16.21 64.53 16.17 64.55 16.14 64.56 16.11 64.58 16.02 64.6 15.93 64.62 15.84 64.64 15.76" style="fill: #ec1c2e;fill-rule: evenodd"/>
  <polygon points="59.22 17.16 58.43 17.16 59.09 13.35 60.46 13.35 60.59 15.61 61.54 13.35 62.98 13.35 62.3 17.16 61.52 17.16 62.01 14.31 61.98 14.31 60.8 17.16 59.91 17.16 59.91 17.04 59.88 16.73 59.86 16.27 59.83 15.76 59.8 15.24 59.77 14.78 59.75 14.45 59.75 14.31 59.74 14.31 59.72 14.31 59.7 14.31 59.22 17.16" style="fill: #fff;fill-rule: evenodd"/>
  <polyline points="59.22 17.16 58.43 17.16 59.09 13.35 60.46 13.35 60.59 15.61 61.54 13.35 62.98 13.35 62.3 17.16 61.52 17.16 62.01 14.31 61.98 14.31 60.8 17.16 59.91 17.16 59.91 17.04 59.88 16.73 59.86 16.27 59.83 15.76 59.8 15.24 59.77 14.78 59.75 14.45 59.75 14.31 59.74 14.31 59.72 14.31 59.7 14.31 59.22 17.16" style="fill: none;stroke: #fff;stroke-miterlimit: 2.609999895095825;stroke-width: 0.2199999988079071px"/>
  <polygon points="79.75 16.52 79.63 17.16 78.9 17.16 78.91 17.05 78.91 16.94 78.91 16.86 78.92 16.83 78.88 16.87 78.83 16.91 78.78 16.95 78.73 17 78.66 17.03 78.59 17.07 78.52 17.1 78.45 17.13 78.37 17.16 78.29 17.18 78.21 17.19 78.13 17.2 78.04 17.21 77.96 17.21 77.88 17.2 77.8 17.19 77.7 17.17 77.6 17.14 77.52 17.1 77.45 17.06 77.39 17.01 77.33 16.96 77.28 16.9 77.24 16.84 77.21 16.78 77.18 16.72 77.16 16.66 77.14 16.59 77.13 16.52 77.12 16.46 77.12 16.39 77.12 16.33 77.12 16.21 77.14 16.11 77.17 16.01 77.21 15.91 77.25 15.82 77.31 15.73 77.36 15.65 77.43 15.57 77.51 15.51 77.58 15.45 77.67 15.4 77.76 15.35 77.85 15.31 77.94 15.27 78.04 15.25 78.14 15.23 78.15 15.23 78.16 15.23 78.18 15.23 78.21 15.22 78.25 15.22 78.29 15.22 78.33 15.21 78.38 15.2 78.43 15.2 78.48 15.19 78.53 15.19 78.58 15.18 78.63 15.18 78.67 15.18 78.71 15.17 78.74 15.17 78.81 15.17 78.88 15.18 78.94 15.18 79.01 15.18 79.06 15.18 79.11 15.19 79.14 15.19 79.15 15.19 79.15 15.17 79.16 15.12 79.17 15.05 79.18 15 79.17 14.94 79.14 14.88 79.1 14.82 79.06 14.78 79.01 14.74 78.95 14.72 78.88 14.7 78.81 14.7 78.73 14.69 78.64 14.69 78.56 14.69 78.46 14.69 78.37 14.7 78.27 14.71 78.18 14.71 78.09 14.73 78 14.74 77.92 14.75 77.84 14.77 77.78 14.78 77.71 14.8 77.66 14.82 77.62 14.84 77.58 14.85 77.79 14.15 77.85 14.13 77.92 14.11 77.99 14.08 78.06 14.07 78.13 14.06 78.2 14.04 78.28 14.03 78.35 14.03 78.44 14.02 78.52 14.02 78.6 14.01 78.69 14.01 78.78 14.01 78.88 14.01 78.98 14.02 79.07 14.02 79.16 14.03 79.25 14.04 79.33 14.06 79.43 14.09 79.52 14.12 79.61 14.16 79.69 14.21 79.77 14.27 79.85 14.33 79.92 14.4 79.97 14.48 80.02 14.56 80.05 14.66 80.07 14.76 80.07 14.87 80.05 14.99 79.75 16.52" style="fill: #fff;fill-rule: evenodd"/>
  <polygon points="79.63 17.18 79.65 17.17 79.77 16.52 79.73 16.52 79.61 17.16 79.63 17.14 79.63 17.18 79.64 17.18 79.65 17.17 79.63 17.18" style="fill: #fff;fill-rule: evenodd"/>
  <polygon points="78.88 17.16 78.9 17.18 79.63 17.18 79.63 17.14 78.9 17.14 78.92 17.16 78.88 17.16 78.88 17.18 78.9 17.18 78.88 17.16" style="fill: #fff;fill-rule: evenodd"/>
  <polygon points="78.93 16.84 78.91 16.82 78.89 16.86 78.89 16.94 78.89 17.05 78.88 17.16 78.92 17.16 78.92 17.05 78.93 16.94 78.93 16.86 78.93 16.84 78.9 16.82 78.93 16.84" style="fill: #fff;fill-rule: evenodd"/>
  <polygon points="77.8 17.21 77.88 17.22 77.96 17.23 78.04 17.23 78.13 17.22 78.21 17.21 78.29 17.19 78.37 17.17 78.45 17.15 78.53 17.12 78.6 17.09 78.67 17.05 78.73 17.01 78.8 16.97 78.85 16.93 78.89 16.88 78.93 16.84 78.9 16.82 78.86 16.86 78.83 16.9 78.77 16.94 78.71 16.98 78.65 17.01 78.58 17.05 78.52 17.09 78.44 17.11 78.37 17.14 78.29 17.16 78.2 17.18 78.13 17.19 78.04 17.19 77.96 17.19 77.88 17.19 77.81 17.18 77.8 17.21" style="fill: #fff;fill-rule: evenodd"/>
  <polygon points="77.09 16.33 77.1 16.39 77.11 16.45 77.11 16.53 77.13 16.59 77.14 16.66 77.16 16.72 77.19 16.79 77.23 16.85 77.27 16.91 77.32 16.97 77.38 17.02 77.44 17.07 77.52 17.12 77.6 17.16 77.7 17.18 77.8 17.21 77.81 17.18 77.7 17.15 77.61 17.12 77.53 17.08 77.46 17.04 77.4 17 77.34 16.95 77.3 16.89 77.26 16.83 77.23 16.77 77.2 16.71 77.18 16.65 77.16 16.59 77.15 16.52 77.14 16.45 77.14 16.39 77.14 16.33 77.09 16.33" style="fill: #fff;fill-rule: evenodd"/>
  <polygon points="78.14 15.22 78.04 15.23 77.94 15.26 77.84 15.29 77.75 15.33 77.66 15.38 77.57 15.43 77.5 15.49 77.42 15.56 77.35 15.64 77.29 15.72 77.23 15.8 77.19 15.9 77.15 16 77.12 16.11 77.11 16.21 77.09 16.33 77.14 16.33 77.14 16.21 77.16 16.11 77.18 16.01 77.22 15.92 77.27 15.82 77.32 15.74 77.38 15.66 77.44 15.59 77.52 15.53 77.6 15.46 77.68 15.41 77.77 15.37 77.86 15.32 77.95 15.29 78.04 15.27 78.14 15.25 78.14 15.22" style="fill: #fff;fill-rule: evenodd"/>
  <polygon points="78.74 15.15 78.71 15.15 78.67 15.16 78.63 15.16 78.58 15.17 78.53 15.17 78.48 15.17 78.43 15.18 78.38 15.19 78.33 15.19 78.29 15.2 78.25 15.2 78.21 15.2 78.18 15.21 78.16 15.21 78.15 15.21 78.14 15.21 78.14 15.25 78.15 15.25 78.16 15.25 78.18 15.24 78.21 15.24 78.25 15.23 78.29 15.23 78.33 15.23 78.38 15.22 78.43 15.21 78.48 15.21 78.53 15.2 78.58 15.2 78.63 15.2 78.67 15.19 78.71 15.19 78.74 15.19 78.74 15.15" style="fill: #fff;fill-rule: evenodd"/>
  <polygon points="79.13 15.19 79.15 15.17 79.14 15.17 79.11 15.17 79.06 15.17 79.01 15.16 78.94 15.16 78.88 15.16 78.81 15.15 78.74 15.15 78.74 15.19 78.81 15.19 78.88 15.19 78.94 15.2 79.01 15.2 79.06 15.2 79.11 15.2 79.14 15.2 79.15 15.2 79.17 15.19 79.15 15.2 79.16 15.21 79.17 15.19 79.13 15.19" style="fill: #fff;fill-rule: evenodd"/>
  <polygon points="79.16 15 79.16 15 79.15 15.05 79.15 15.11 79.14 15.17 79.13 15.19 79.17 15.19 79.17 15.17 79.18 15.12 79.19 15.05 79.2 15 79.2 15 79.16 15" style="fill: #fff;fill-rule: evenodd"/>
  <polygon points="78.81 14.71 78.81 14.71 78.88 14.72 78.94 14.73 79 14.76 79.05 14.79 79.09 14.84 79.12 14.89 79.15 14.94 79.16 15 79.2 15 79.19 14.93 79.16 14.87 79.12 14.81 79.07 14.77 79.02 14.73 78.95 14.7 78.89 14.68 78.81 14.67 78.81 14.68 78.81 14.71" style="fill: #fff;fill-rule: evenodd"/>
  <polygon points="77.57 14.85 77.6 14.87 77.63 14.85 77.67 14.83 77.71 14.82 77.78 14.8 77.84 14.78 77.92 14.77 78.01 14.76 78.09 14.74 78.18 14.73 78.27 14.72 78.37 14.71 78.46 14.71 78.56 14.71 78.64 14.71 78.73 14.71 78.81 14.71 78.81 14.68 78.73 14.67 78.64 14.67 78.56 14.67 78.46 14.67 78.37 14.68 78.27 14.69 78.18 14.7 78.09 14.71 78 14.72 77.92 14.73 77.84 14.75 77.77 14.76 77.71 14.78 77.65 14.8 77.61 14.82 77.57 14.84 77.6 14.86 77.57 14.85" style="fill: #fff;fill-rule: evenodd"/>
  <polygon points="77.78 14.14 77.77 14.15 77.57 14.85 77.6 14.86 77.81 14.15 77.8 14.17 77.78 14.14 77.78 14.14 77.77 14.15 77.78 14.14" style="fill: #fff;fill-rule: evenodd"/>
  <polygon points="79.07 14 78.98 14 78.88 13.99 78.78 13.99 78.69 13.99 78.6 13.99 78.52 14 78.44 14 78.35 14.01 78.28 14.01 78.2 14.03 78.13 14.04 78.05 14.05 77.98 14.07 77.91 14.09 77.84 14.11 77.78 14.14 77.8 14.17 77.86 14.14 77.93 14.12 77.99 14.1 78.06 14.09 78.13 14.07 78.2 14.06 78.28 14.05 78.35 14.04 78.44 14.04 78.52 14.03 78.6 14.03 78.69 14.03 78.78 14.03 78.88 14.03 78.98 14.04 79.07 14.04 79.07 14" style="fill: #fff;fill-rule: evenodd"/>
  <polygon points="80.07 14.99 80.09 14.87 80.09 14.76 80.07 14.66 80.03 14.56 79.99 14.47 79.93 14.39 79.86 14.32 79.79 14.25 79.7 14.2 79.62 14.14 79.53 14.11 79.43 14.07 79.34 14.04 79.25 14.02 79.16 14.01 79.07 14 79.07 14.04 79.16 14.04 79.24 14.06 79.33 14.08 79.42 14.11 79.51 14.14 79.6 14.18 79.69 14.22 79.76 14.28 79.83 14.34 79.9 14.41 79.96 14.49 80 14.57 80.03 14.66 80.05 14.76 80.05 14.87 80.04 14.98 80.07 14.99" style="fill: #fff;fill-rule: evenodd"/>
  <polygon points="79.77 16.52 80.07 14.99 80.04 14.98 79.73 16.52 79.77 16.52" style="fill: #fff;fill-rule: evenodd"/>
  <polygon points="79.05 15.76 79.04 15.74 79.03 15.73 79.01 15.72 78.98 15.71 78.95 15.71 78.91 15.71 78.87 15.71 78.83 15.71 78.78 15.71 78.73 15.72 78.68 15.72 78.64 15.73 78.6 15.74 78.56 15.75 78.52 15.76 78.49 15.76 78.47 15.76 78.45 15.77 78.42 15.78 78.39 15.79 78.35 15.81 78.32 15.83 78.27 15.85 78.24 15.87 78.2 15.9 78.16 15.93 78.13 15.96 78.1 16 78.07 16.04 78.05 16.08 78.03 16.13 78.03 16.18 78.02 16.28 78.04 16.36 78.06 16.42 78.09 16.46 78.14 16.49 78.19 16.5 78.24 16.52 78.29 16.52 78.37 16.52 78.45 16.5 78.53 16.49 78.6 16.47 78.66 16.45 78.71 16.42 78.77 16.39 78.81 16.36 78.86 16.32 78.89 16.29 78.92 16.25 78.95 16.21 78.97 16.18 78.98 16.15 78.99 16.11 79 16.08 79.02 16 79.03 15.92 79.04 15.83 79.05 15.76" style="fill: #fbb231;fill-rule: evenodd"/>
  <polygon points="85.03 16.77 85.04 16.7 85.06 16.62 85.1 16.55 85.15 16.49 85.21 16.44 85.28 16.41 85.35 16.38 85.44 16.37 85.52 16.38 85.59 16.41 85.66 16.44 85.72 16.49 85.78 16.55 85.81 16.62 85.84 16.7 85.84 16.77 85.75 16.77 85.75 16.71 85.74 16.65 85.71 16.59 85.67 16.54 85.62 16.5 85.57 16.47 85.5 16.45 85.44 16.44 85.37 16.45 85.31 16.47 85.25 16.5 85.2 16.54 85.17 16.59 85.14 16.65 85.12 16.71 85.12 16.77 85.03 16.77" style="fill: #fff;fill-rule: evenodd"/>
  <polygon points="85.29 16.77 85.29 16.59 85.45 16.59 85.49 16.59 85.52 16.6 85.54 16.61 85.56 16.62 85.58 16.64 85.59 16.65 85.59 16.67 85.6 16.7 85.59 16.72 85.59 16.74 85.58 16.76 85.58 16.77 85.45 16.77 85.47 16.76 85.48 16.76 85.5 16.75 85.51 16.75 85.53 16.74 85.53 16.73 85.54 16.72 85.54 16.7 85.54 16.68 85.53 16.67 85.52 16.66 85.51 16.66 85.5 16.65 85.48 16.65 85.47 16.65 85.45 16.65 85.36 16.65 85.36 16.77 85.29 16.77" style="fill: #fff;fill-rule: evenodd"/>
  <polygon points="85.03 16.77 85.03 16.78 85.04 16.87 85.06 16.95 85.1 17.01 85.15 17.07 85.21 17.12 85.28 17.16 85.35 17.18 85.44 17.19 85.52 17.18 85.59 17.16 85.66 17.12 85.72 17.07 85.78 17.01 85.81 16.95 85.84 16.87 85.85 16.78 85.84 16.77 85.76 16.77 85.76 16.78 85.76 16.85 85.74 16.91 85.71 16.97 85.67 17.02 85.62 17.06 85.57 17.09 85.5 17.11 85.44 17.12 85.37 17.11 85.31 17.09 85.25 17.06 85.2 17.02 85.17 16.97 85.14 16.91 85.12 16.85 85.12 16.78 85.12 16.77 85.03 16.77" style="fill: #fff;fill-rule: evenodd"/>
  <polygon points="85.29 16.77 85.29 16.94 85.36 16.94 85.36 16.8 85.44 16.8 85.53 16.94 85.58 16.94 85.5 16.8 85.51 16.8 85.54 16.79 85.55 16.79 85.57 16.77 85.58 16.77 85.45 16.77 85.44 16.77 85.36 16.77 85.36 16.77 85.29 16.77" style="fill: #fff;fill-rule: evenodd"/>
  <path d="M85.43,17.06h.07l.06,0,0,0,0,0,0,0,0-.05V16.6l0-.06,0-.05,0,0H85.3l0,0,0,.05,0,.05,0,0v.25l0,.06,0,.05,0,0,.05,0,.07,0h.06m0-.46h0v0h-.15v.11h.08m-.06.23h-.08v-.35h.26v.08h0l.09.15h-.06l-.08-.15h-.08v.15m-.34,0V16.7l0-.08,0-.07,0-.06.06,0,.07,0,.08,0h.16l.08,0,.07,0,.06,0,0,.06,0,.07,0,.08v.16l0,.08,0,.07,0,.06-.06.05-.07,0-.08,0h-.16l-.08,0-.07,0-.06-.05,0-.06,0-.07,0-.08v-.08" style="fill: none;stroke: #fff;stroke-miterlimit: 2.609999895095825;stroke-width: 0.2199999988079071px"/>
  <polygon points="79.97 17.16 80.79 17.16 81.08 15.51 81.09 15.45 81.11 15.38 81.13 15.32 81.15 15.25 81.18 15.19 81.21 15.13 81.25 15.07 81.3 15.02 81.35 14.97 81.41 14.92 81.47 14.88 81.55 14.84 81.63 14.81 81.73 14.79 81.83 14.77 81.94 14.77 81.99 14.77 82 14.77 82.02 14.77 82.15 14.02 82.07 14.03 81.99 14.03 81.91 14.05 81.84 14.07 81.78 14.09 81.72 14.12 81.66 14.15 81.61 14.19 81.55 14.23 81.5 14.27 81.46 14.32 81.41 14.36 81.37 14.41 81.32 14.46 81.28 14.52 81.24 14.58 81.33 14.05 80.51 14.05 79.97 17.16" style="fill: #fff;fill-rule: evenodd"/>
  <polyline points="79.97 17.16 80.79 17.16 81.08 15.51 81.09 15.45 81.11 15.38 81.13 15.32 81.15 15.25 81.18 15.19 81.21 15.13 81.25 15.07 81.3 15.02 81.35 14.97 81.41 14.92 81.47 14.88 81.55 14.84 81.63 14.81 81.73 14.79 81.83 14.77 81.94 14.77 81.99 14.77 82 14.77 82.02 14.77 82.15 14.02 82.07 14.03 81.99 14.03 81.91 14.05 81.84 14.07 81.78 14.09 81.72 14.12 81.66 14.15 81.61 14.19 81.55 14.23 81.5 14.27 81.46 14.32 81.41 14.36 81.37 14.41 81.32 14.46 81.28 14.52 81.24 14.58 81.33 14.05 80.51 14.05 79.97 17.16" style="fill: none;stroke: #fff;stroke-miterlimit: 2.609999895095825;stroke-width: 0.2199999988079071px"/>
  <polygon points="72.28 17.16 73.1 17.16 73.11 17.16 73.39 15.51 73.4 15.45 73.41 15.38 73.43 15.32 73.45 15.27 73.47 15.21 73.5 15.15 73.54 15.1 73.58 15.05 73.62 15.01 73.67 14.96 73.74 14.93 73.81 14.9 73.89 14.87 73.98 14.85 74.08 14.83 74.19 14.82 74.2 14.82 74.21 14.83 74.22 14.83 74.24 14.83 74.26 14.83 74.27 14.84 74.28 14.84 74.28 14.84 74.28 14.83 74.29 14.79 74.3 14.74 74.32 14.68 74.34 14.6 74.36 14.52 74.39 14.44 74.41 14.36 74.44 14.3 74.46 14.25 74.49 14.19 74.52 14.14 74.55 14.1 74.57 14.06 74.58 14.04 74.59 14.03 74.58 14.03 74.57 14.03 74.56 14.03 74.54 14.03 74.52 14.03 74.49 14.02 74.47 14.02 74.45 14.02 74.36 14.03 74.28 14.03 74.21 14.05 74.14 14.07 74.07 14.09 74.01 14.12 73.95 14.15 73.9 14.18 73.85 14.22 73.81 14.26 73.76 14.31 73.72 14.36 73.67 14.41 73.64 14.46 73.59 14.52 73.55 14.58 73.65 14.05 72.82 14.05 72.28 17.16" style="fill: #fff;fill-rule: evenodd"/>
  <polyline points="72.28 17.16 73.1 17.16 73.11 17.16 73.39 15.51 73.4 15.45 73.41 15.38 73.43 15.32 73.45 15.27 73.47 15.21 73.5 15.15 73.54 15.1 73.58 15.05 73.62 15.01 73.67 14.96 73.74 14.93 73.81 14.9 73.89 14.87 73.98 14.85 74.08 14.83 74.19 14.82 74.2 14.82 74.21 14.83 74.22 14.83 74.24 14.83 74.26 14.83 74.27 14.84 74.28 14.84 74.28 14.84 74.28 14.83 74.29 14.79 74.3 14.74 74.32 14.68 74.34 14.6 74.36 14.52 74.39 14.44 74.41 14.36 74.44 14.3 74.46 14.25 74.49 14.19 74.52 14.14 74.55 14.1 74.57 14.06 74.58 14.04 74.59 14.03 74.58 14.03 74.57 14.03 74.56 14.03 74.54 14.03 74.52 14.03 74.49 14.02 74.47 14.02 74.45 14.02 74.36 14.03 74.28 14.03 74.21 14.05 74.14 14.07 74.07 14.09 74.01 14.12 73.95 14.15 73.9 14.18 73.85 14.22 73.81 14.26 73.76 14.31 73.72 14.36 73.67 14.41 73.64 14.46 73.59 14.52 73.55 14.58 73.65 14.05 72.82 14.05 72.28 17.16" style="fill: none;stroke: #fff;stroke-miterlimit: 2.609999895095825;stroke-width: 0.2199999988079071px"/>
  <polygon points="85.04 20.22 85.04 20.21 85.06 20.13 85.1 20.06 85.15 20.01 85.21 19.96 85.28 19.93 85.35 19.91 85.44 19.9 85.52 19.91 85.59 19.93 85.66 19.96 85.72 20.01 85.78 20.06 85.81 20.13 85.84 20.21 85.84 20.22 85.76 20.22 85.74 20.16 85.71 20.1 85.67 20.05 85.62 20.01 85.57 19.98 85.5 19.96 85.44 19.95 85.37 19.96 85.31 19.98 85.25 20.01 85.2 20.05 85.17 20.1 85.14 20.16 85.12 20.22 85.04 20.22" style="fill: #fbb231;fill-rule: evenodd"/>
  <polygon points="85.29 20.22 85.29 20.12 85.45 20.12 85.49 20.12 85.52 20.12 85.54 20.13 85.56 20.14 85.58 20.16 85.59 20.17 85.59 20.19 85.6 20.22 85.54 20.22 85.54 20.21 85.54 20.19 85.53 20.18 85.52 20.17 85.51 20.17 85.5 20.16 85.48 20.16 85.47 20.16 85.45 20.16 85.36 20.16 85.36 20.22 85.29 20.22" style="fill: #fbb231;fill-rule: evenodd"/>
  <polygon points="85.03 20.28 85.04 20.22 85.12 20.22 85.12 20.22 85.12 20.28 85.03 20.28" style="fill: #fbb231;fill-rule: evenodd"/>
  <polygon points="85.29 20.28 85.29 20.22 85.36 20.22 85.36 20.28 85.44 20.28 85.47 20.27 85.48 20.27 85.5 20.26 85.51 20.25 85.53 20.25 85.53 20.24 85.54 20.23 85.54 20.22 85.6 20.22 85.59 20.24 85.59 20.25 85.58 20.27 85.57 20.28 85.29 20.28" style="fill: #fbb231;fill-rule: evenodd"/>
  <polygon points="85.76 20.28 85.75 20.22 85.75 20.22 85.84 20.22 85.85 20.28 85.76 20.28" style="fill: #fbb231;fill-rule: evenodd"/>
  <polygon points="85.03 20.28 85.03 20.29 85.04 20.37 85.06 20.45 85.1 20.52 85.15 20.59 85.21 20.63 85.28 20.67 85.35 20.69 85.44 20.7 85.52 20.69 85.59 20.67 85.66 20.63 85.72 20.59 85.78 20.52 85.81 20.45 85.84 20.37 85.85 20.29 85.85 20.28 85.76 20.28 85.76 20.29 85.76 20.36 85.74 20.42 85.71 20.48 85.67 20.53 85.62 20.57 85.57 20.6 85.5 20.62 85.44 20.63 85.37 20.62 85.31 20.6 85.25 20.57 85.2 20.53 85.17 20.48 85.14 20.42 85.12 20.36 85.12 20.29 85.12 20.28 85.03 20.28" style="fill: #fbb231;fill-rule: evenodd"/>
  <polygon points="85.29 20.28 85.29 20.45 85.36 20.45 85.36 20.3 85.44 20.3 85.53 20.45 85.58 20.45 85.5 20.3 85.51 20.3 85.54 20.3 85.55 20.29 85.57 20.28 85.29 20.28" style="fill: #fbb231;fill-rule: evenodd"/>
  <path d="M71.58,15.25H70.52v-.16l0-.06,0-.06,0-.05,0,0,0,0,0-.05,0,0,0,0,0,0,.05,0h.4l0,0,0,0,0,0,0,0,0,.05,0,0,0,0,0,.05v.19Zm.79-.27,0-.17,0-.16-.06-.13-.07-.12-.09-.1L72,14.22l-.11-.06-.11-.05-.11,0-.12,0-.12,0H71l-.21,0-.18.06-.17.07-.15.09-.12.1-.12.11-.09.11-.1.11-.07.13,0,.13,0,.12,0,.12,0,.11V16l0,.2.05.17.06.15.09.14.1.12.11.1.12.08.14.07.13.06.14,0,.15,0,.15,0H72l0,0,0,0,.12-.72-.09.05-.08,0-.08,0-.08,0-.08,0h-.9l-.08-.1-.06,0-.05,0,0,0,0,0,0,0,0-.05,0-.05,0-.06,0-.05,0-.05v-.2H72.3v-.17l0-.25,0-.22Z" style="fill: #fff;fill-rule: evenodd"/>
  <path d="M96,25.82V4.18a4.07,4.07,0,0,1,1.22-3,4.07,4.07,0,0,1,3-1.22h39.64a4.05,4.05,0,0,1,3,1.22,4.07,4.07,0,0,1,1.22,3V25.82A4.17,4.17,0,0,1,139.82,30H100.18A4.17,4.17,0,0,1,96,25.82Z" style="fill: #f9f9f9"/>
  <path d="M127.83,16.39a2.38,2.38,0,0,1-.31.17,1.58,1.58,0,0,1-.42.09.9.9,0,0,1-.46-.09.3.3,0,0,1-.15-.3.57.57,0,0,1,.11-.38.79.79,0,0,1,.34-.23,2.4,2.4,0,0,1,.53-.12l.59-.07s.08,0,.06.1-.12.48-.16.67a.37.37,0,0,1-.13.15Zm1.42-3a3.18,3.18,0,0,0-1.43-.25,6.24,6.24,0,0,0-1,.07l-.41.08a.46.46,0,0,0-.35.38l-.1.38c0,.26.09.25.16.23a3.68,3.68,0,0,1,.47-.15,3.86,3.86,0,0,1,.76-.1,1.94,1.94,0,0,1,.72.11.39.39,0,0,1,.25.36v.12s0,.06-.12.07c-.45,0-.76.07-1.18.12a3.88,3.88,0,0,0-1,.28,1.56,1.56,0,0,0-.69.55,1.4,1.4,0,0,0-.26.82.92.92,0,0,0,.32.76,1.25,1.25,0,0,0,.84.29,2.07,2.07,0,0,0,.5-.05,2,2,0,0,0,.39-.13,2.68,2.68,0,0,0,.33-.18l.3-.2,0,.13a.24.24,0,0,0,0,.2.26.26,0,0,0,.18.09h.77a.42.42,0,0,0,.34-.29l.58-2.52,0-.21v-.19a.87.87,0,0,0-.42-.77Z" style="fill: #369"/>
  <path d="M119.21,13.18a.65.65,0,0,0-.5.31l-1.28,2.15c-.06.11-.12,0-.13,0L117,13.5a.46.46,0,0,0-.44-.32h-.7a.25.25,0,0,0-.2.09.23.23,0,0,0,0,.22s.54,3.09.65,3.83c0,.4,0,.47,0,.47l-.7,1.23c-.11.17,0,.3.12.3h.83a.66.66,0,0,0,.5-.3l3.19-5.38s.3-.46,0-.46h-1" style="fill: #036"/>
  <path d="M110.88,12.69a1.17,1.17,0,0,0-.44-.47,2.14,2.14,0,0,0-.69-.26,6,6,0,0,0-.94-.07h-1.67a.41.41,0,0,0-.38.3l-1.13,4.88a.24.24,0,0,0,0,.22.27.27,0,0,0,.2.09h.8a.43.43,0,0,0,.39-.31l.27-1.18a.41.41,0,0,1,.38-.31h.23a3.81,3.81,0,0,0,2.3-.6,1.86,1.86,0,0,0,.8-1.59,1.48,1.48,0,0,0-.16-.71m-1.72,1.59a1.66,1.66,0,0,1-1,.27H108a.25.25,0,0,1-.2-.09.22.22,0,0,1,0-.22l.24-1a.41.41,0,0,1,.38-.31h.26a1.28,1.28,0,0,1,.69.16.5.5,0,0,1,.23.47.83.83,0,0,1-.36.77" style="fill: #036"/>
  <path d="M125.4,12.71a1.17,1.17,0,0,0-.44-.47,1.93,1.93,0,0,0-.69-.26,6,6,0,0,0-1-.07h-1.68a.41.41,0,0,0-.38.31l-1.12,4.87a.25.25,0,0,0,0,.21.24.24,0,0,0,.2.09h.81a.41.41,0,0,0,.38-.3l.27-1.18a.41.41,0,0,1,.38-.31h.23a3.81,3.81,0,0,0,2.3-.6,1.88,1.88,0,0,0,.81-1.58,1.48,1.48,0,0,0-.15-.72m-1.74,1.59a1.65,1.65,0,0,1-1,.26h-.2a.22.22,0,0,1-.2-.08.24.24,0,0,1,0-.22l.24-1a.42.42,0,0,1,.38-.3h.27a1.28,1.28,0,0,1,.69.16.52.52,0,0,1,.24.47.89.89,0,0,1-.36.77" style="fill: #369"/>
  <path d="M113.34,16.39a1.87,1.87,0,0,1-.31.17,1.58,1.58,0,0,1-.42.09.93.93,0,0,1-.46-.09.32.32,0,0,1-.15-.3.57.57,0,0,1,.11-.38.71.71,0,0,1,.34-.23,2.4,2.4,0,0,1,.53-.12l.59-.07c.05,0,.08,0,.06.1s-.11.48-.16.67a.54.54,0,0,1-.15.15Zm1.41-3a3.18,3.18,0,0,0-1.43-.25,6.2,6.2,0,0,0-1,.07l-.41.08a.46.46,0,0,0-.35.38l-.1.39c-.06.25.09.24.15.22l.48-.14a3.86,3.86,0,0,1,.76-.1,2.26,2.26,0,0,1,.73.1.41.41,0,0,1,.24.37.2.2,0,0,1,0,.11s0,.06-.12.07c-.45,0-.76.07-1.18.13a3.53,3.53,0,0,0-1,.28,1.59,1.59,0,0,0-.69.54,1.63,1.63,0,0,0-.23.84,1,1,0,0,0,.3.74,1.21,1.21,0,0,0,.84.29,2.11,2.11,0,0,0,.5,0l.38-.13a1.77,1.77,0,0,0,.33-.19l.3-.2,0,.13a.23.23,0,0,0,0,.2.22.22,0,0,0,.18.1h.76a.41.41,0,0,0,.34-.3l.57-2.52,0-.2v-.2A.87.87,0,0,0,114.75,13.39Z" style="fill: #036"/>
  <path d="M132,11.94h-.71a.41.41,0,0,0-.39.27v0l0,.18-1,4.47,0,.19a.24.24,0,0,0,0,.2.25.25,0,0,0,.18.1h.75a.43.43,0,0,0,.38-.28v0l1.07-4.82a.22.22,0,0,0,0-.22A.21.21,0,0,0,132,11.94Z" style="fill: #369"/>
  <path d="M133.08,12.92h-.15a.28.28,0,0,1-.18-.06.27.27,0,0,1-.06-.21v-.4h-.09v-.11h.09v-.23h.13v.23h.27v.11h-.27v.48a.07.07,0,0,0,0,.06s0,0,0,0h.19Z" style="fill: #369"/>
  <path d="M134.38,12.93h-.13v-.54a.19.19,0,0,0,0-.07.1.1,0,0,0,0-.05h-.09a.23.23,0,0,0-.11,0,.41.41,0,0,0-.11.07V13h-.13v-.56a.19.19,0,0,0,0-.07.12.12,0,0,0,0-.05h-.08a.23.23,0,0,0-.11,0l-.1.07V13h-.13v-.77h.13v.07a.25.25,0,0,1,.12-.08.28.28,0,0,1,.13,0,.24.24,0,0,1,.22.12.42.42,0,0,1,.14-.09.35.35,0,0,1,.14,0,.23.23,0,0,1,.19.07.3.3,0,0,1,.06.22Z" style="fill: #369"/>
</svg>
