<svg id="bb93e4e1-6779-4f3a-911d-32d4001f20a9" data-name="Слой 1" xmlns="http://www.w3.org/2000/svg" viewBox="0 0 120 30">
  <title>footer__icons-social</title>
  <path d="M30,15a14.46,14.46,0,0,1-4.39,10.61A14.46,14.46,0,0,1,15,30,14.46,14.46,0,0,1,4.39,25.61,14.46,14.46,0,0,1,0,15,14.46,14.46,0,0,1,4.39,4.39,14.46,14.46,0,0,1,15,0,14.46,14.46,0,0,1,25.61,4.39,14.46,14.46,0,0,1,30,15Z" style="fill: #3f4764"/>
  <path d="M18.94,7.14H16.89a3.61,3.61,0,0,0-3.8,3.9v1.8H11a.32.32,0,0,0-.32.32v2.6a.33.33,0,0,0,.32.33h2.07v6.57a.32.32,0,0,0,.32.32h2.7a.32.32,0,0,0,.32-.32V16.09h2.42a.32.32,0,0,0,.32-.33v-2.6a.32.32,0,0,0-.09-.23.33.33,0,0,0-.23-.09H16.43V11.31c0-.73.18-1.1,1.13-1.1h1.38a.33.33,0,0,0,.33-.33V7.47A.33.33,0,0,0,18.94,7.14Z" style="fill: #c8d4e8"/>
  <path d="M60,15a14.46,14.46,0,0,1-4.39,10.61A14.46,14.46,0,0,1,45,30a14.46,14.46,0,0,1-10.61-4.39A14.46,14.46,0,0,1,30,15,14.46,14.46,0,0,1,34.39,4.39,14.46,14.46,0,0,1,45,0,14.46,14.46,0,0,1,55.61,4.39,14.46,14.46,0,0,1,60,15Z" style="fill: #3f4764"/>
  <path d="M48.17,10.81a1,1,0,1,1,1,1A1,1,0,0,1,48.17,10.81Zm-5.71,4.13A2.54,2.54,0,1,0,45,12.4,2.54,2.54,0,0,0,42.46,14.94Zm-1.62,0A4.16,4.16,0,1,1,45,19.1,4.17,4.17,0,0,1,40.84,14.94Zm-2.26-3.25v6.5a3.17,3.17,0,0,0,3.17,3.17h6.5a3.17,3.17,0,0,0,3.17-3.17v-6.5a3.17,3.17,0,0,0-3.17-3.17h-6.5A3.17,3.17,0,0,0,38.58,11.69ZM41.75,23A4.8,4.8,0,0,1,37,18.19v-6.5A4.8,4.8,0,0,1,41.75,6.9h6.5A4.8,4.8,0,0,1,53,11.69v6.5A4.8,4.8,0,0,1,48.25,23Z" style="fill: #c8d4e8"/>
  <path d="M90,15a14.46,14.46,0,0,1-4.39,10.61,15,15,0,0,1-21.22,0A14.46,14.46,0,0,1,60,15,14.46,14.46,0,0,1,64.39,4.39a15,15,0,0,1,21.22,0A14.46,14.46,0,0,1,90,15Z" style="fill: #3f4764"/>
  <path d="M71.78,15.57l6.47-4a.11.11,0,0,1,.14.18l-5.34,5a1.06,1.06,0,0,0-.34.66l-.18,1.35a.17.17,0,0,1-.33,0l-.7-2.46A.65.65,0,0,1,71.78,15.57ZM67.4,15l3.31,1.24L72,20.35a.39.39,0,0,0,.62.18L74.45,19a.54.54,0,0,1,.67,0l3.33,2.42a.39.39,0,0,0,.61-.24L81.5,9.47A.39.39,0,0,0,81,9L67.4,14.26A.39.39,0,0,0,67.4,15Z" style="fill: #c8d4e8"/>
  <path d="M120,15a14.46,14.46,0,0,1-4.39,10.61,15,15,0,0,1-21.22,0A14.46,14.46,0,0,1,90,15,14.46,14.46,0,0,1,94.39,4.39a15,15,0,0,1,21.22,0A14.46,14.46,0,0,1,120,15Z" style="fill: #3f4764"/>
  <path d="M108.32,17.73a1.28,1.28,0,0,1-.24.39,1.35,1.35,0,0,1-.39.3,4.84,4.84,0,0,1-.47.21,4.31,4.31,0,0,1-.54.13l-.56.09-.58,0h-1.36V15.57h1.11l.68,0a5.82,5.82,0,0,1,.72.08,4.15,4.15,0,0,1,.65.19,1.74,1.74,0,0,1,.56.3,1.38,1.38,0,0,1,.37.45,1.27,1.27,0,0,1,.14.63A1.35,1.35,0,0,1,108.32,17.73ZM104.18,11h.92a4,4,0,0,1,.57,0c.24,0,.45.05.61.08a3.91,3.91,0,0,1,.54.16,1.39,1.39,0,0,1,.47.28,1.28,1.28,0,0,1,.3.41,1.21,1.21,0,0,1,.13.58,1.35,1.35,0,0,1-.09.5,1,1,0,0,1-.27.38,2.7,2.7,0,0,1-.36.26,1.5,1.5,0,0,1-.48.18A4.33,4.33,0,0,1,106,14a3.39,3.39,0,0,1-.54.06l-.49,0h-.8V11ZM111,15.42a2.93,2.93,0,0,0-1.72-1,2.33,2.33,0,0,0,1.29-2.54,2.51,2.51,0,0,0-.36-1.13,2.3,2.3,0,0,0-.81-.77,4.51,4.51,0,0,0-1.11-.44,9.51,9.51,0,0,0-1.38-.22V6.83h-1.51V9.24l-1.21,0V6.83h-1.51V9.31h-3v1.61h1.09a.79.79,0,0,1,.88.67v2.83h0v3.95a.52.52,0,0,1-.57.5H99.91l-.31,1.8h3V23.2h1.52V20.72h1.2V23.2h1.51V20.69a9.39,9.39,0,0,0,1.43-.15,5.34,5.34,0,0,0,1.2-.34,3,3,0,0,0,1-.57,2.67,2.67,0,0,0,.64-.88,4,4,0,0,0,.32-1.23A2.93,2.93,0,0,0,111,15.42Z" style="fill: #c8d4e8"/>
</svg>
