<svg id="a962b0ad-797e-4d91-ae09-c52521d4b2a7" data-name="65a8f208-0430-4650-96f8-746a7ba04693" xmlns="http://www.w3.org/2000/svg" width="20" height="20" viewBox="0 0 20 20">
  <defs>
    <style>
      .\32 7d54fcb-c411-4caf-a41f-24d69905899f {
        fill: #f9f9f9;
      }

      .ec42fd3f-dc39-4ec8-a6d6-1002ee8bb8fe {
        fill: #2a75cf;
      }

      .\39 56debed-6dcd-40eb-bda4-9b1dedf9cd0c {
        fill: #ee3f45;
      }
    </style>
  </defs>
  <title>footer__info-language-button-russian</title>
  <g>
    <path class="27d54fcb-c411-4caf-a41f-24d69905899f" d="M20,10a9.64,9.64,0,0,1-2.93,7.07,10,10,0,0,1-14.14,0A9.64,9.64,0,0,1,0,10,9.64,9.64,0,0,1,2.93,2.93a10,10,0,0,1,14.14,0A9.64,9.64,0,0,1,20,10Z" transform="translate(0)"/>
    <path class="27d54fcb-c411-4caf-a41f-24d69905899f" d="M18.4,10a8.07,8.07,0,0,1-2.46,5.94,8.4,8.4,0,0,1-11.88,0h0A8.15,8.15,0,0,1,1.6,10,8.12,8.12,0,0,1,4.06,4.06a8.4,8.4,0,0,1,11.88,0h0A8,8,0,0,1,18.4,10Z" transform="translate(0)"/>
    <path class="ec42fd3f-dc39-4ec8-a6d6-1002ee8bb8fe" d="M17.56,12.81a8.16,8.16,0,0,0,.5-2.81,7.62,7.62,0,0,0-.5-2.8H2.44a8.06,8.06,0,0,0-.5,2.8,8.16,8.16,0,0,0,.5,2.81l7.56.7Z" transform="translate(0)"/>
    <path class="956debed-6dcd-40eb-bda4-9b1dedf9cd0c" d="M10,18.06a8.06,8.06,0,0,0,7.56-5.25H2.44A8.06,8.06,0,0,0,10,18.06Z" transform="translate(0)"/>
  </g>
</svg>
