<svg id="d918448c-362e-49ef-864d-c207c028d92f" data-name="bb93e4e1-6779-4f3a-911d-32d4001f20a9" xmlns="http://www.w3.org/2000/svg" width="30" height="30" viewBox="0 0 30 30">
  <defs>
    <style>
      .\38 594209a-d19a-45a3-8fbc-0cd7544aa403 {
        fill: #3f4764;
      }

      .\31 10d6b81-a6fc-42f0-b801-d2ce44aa7610 {
        fill: #c8d4e8;
      }
    </style>
  </defs>
  <title>footer__icons-social-inst</title>
  <g>
    <path class="8594209a-d19a-45a3-8fbc-0cd7544aa403" d="M30,15a14.42,14.42,0,0,1-4.39,10.61A14.5,14.5,0,0,1,15,30,14.5,14.5,0,0,1,4.39,25.62,14.5,14.5,0,0,1,0,15,14.5,14.5,0,0,1,4.39,4.4,14.42,14.42,0,0,1,15,0,14.42,14.42,0,0,1,25.61,4.4,14.42,14.42,0,0,1,30,15Z" transform="translate(0 0)"/>
    <path class="110d6b81-a6fc-42f0-b801-d2ce44aa7610" d="M18.17,10.82a1,1,0,1,1,1,1A1,1,0,0,1,18.17,10.82ZM12.46,15A2.54,2.54,0,1,0,15,12.41,2.54,2.54,0,0,0,12.46,15Zm-1.62,0A4.16,4.16,0,1,1,15,19.11h0A4.18,4.18,0,0,1,10.84,15ZM8.58,11.7v6.5a3.17,3.17,0,0,0,3.17,3.17h6.5a3.17,3.17,0,0,0,3.17-3.17V11.7a3.17,3.17,0,0,0-3.17-3.17h-6.5A3.17,3.17,0,0,0,8.58,11.7ZM11.75,23A4.81,4.81,0,0,1,7,18.2V11.7a4.8,4.8,0,0,1,4.75-4.79h6.5A4.79,4.79,0,0,1,23,11.7v6.5A4.8,4.8,0,0,1,18.25,23Z" transform="translate(0 0)"/>
  </g>
</svg>
