<svg id="11230986-e929-4e1b-be48-cec2d134010b" data-name="4cd7f7e7-d160-49bc-b7cc-cd4c5bb35bf1" xmlns="http://www.w3.org/2000/svg" width="48.08" height="30.04" viewBox="0 0 48.08 30.04">
  <defs>
    <style>
      .\33 be44c2f-3886-47cb-bd78-812bf91e991e {
        fill: #f9f9f9;
      }

      .\30 dc65015-4e51-4906-aaf0-ace18697b49d {
        fill: #369;
      }

      .a25830c5-cae2-45fe-bef9-2f0f7637ed4f {
        fill: #036;
      }
    </style>
  </defs>
  <title>footer__icons-payment-paypal</title>
  <g>
    <path class="3be44c2f-3886-47cb-bd78-812bf91e991e" d="M0,25.86V4.22A4.17,4.17,0,0,1,4.22,0H43.86a4.07,4.07,0,0,1,3,1.22,4,4,0,0,1,1.22,3V25.86A4.16,4.16,0,0,1,43.92,30H4.18A4.17,4.17,0,0,1,0,25.88Z" transform="translate(0)"/>
    <path class="0dc65015-4e51-4906-aaf0-ace18697b49d" d="M31.83,16.43a1.87,1.87,0,0,1-.31.17,1.5,1.5,0,0,1-.42.09.9.9,0,0,1-.46-.09.3.3,0,0,1-.15-.3.58.58,0,0,1,.11-.38.89.89,0,0,1,.34-.23,2.4,2.4,0,0,1,.53-.12l.59-.07s.08,0,.06.1-.12.48-.16.67a.37.37,0,0,1-.13.15Zm1.42-3a3.18,3.18,0,0,0-1.43-.25,6.73,6.73,0,0,0-1,.07l-.41.08a.46.46,0,0,0-.35.38l-.1.38c0,.26.09.25.16.23a3.68,3.68,0,0,1,.47-.15,4,4,0,0,1,.76-.1,1.94,1.94,0,0,1,.72.11.39.39,0,0,1,.25.36v.12s0,.06-.12.07a8.89,8.89,0,0,0-1.18.12,3.92,3.92,0,0,0-1,.28,1.56,1.56,0,0,0-.69.55,1.43,1.43,0,0,0-.26.82.92.92,0,0,0,.32.76,1.25,1.25,0,0,0,.84.29,2.07,2.07,0,0,0,.5-.05,1.63,1.63,0,0,0,.39-.13,1.74,1.74,0,0,0,.33-.18l.3-.2v.13a.23.23,0,0,0,0,.2.26.26,0,0,0,.18.09h.77a.41.41,0,0,0,.34-.29l.58-2.52v-.4a.87.87,0,0,0-.42-.77Z" transform="translate(0)"/>
    <path class="a25830c5-cae2-45fe-bef9-2f0f7637ed4f" d="M23.21,13.22a.65.65,0,0,0-.5.31l-1.28,2.15c-.06.11-.12,0-.13,0L21,13.54a.46.46,0,0,0-.44-.32h-.7a.25.25,0,0,0-.2.09.22.22,0,0,0,0,.22s.54,3.09.65,3.83v.47l-.7,1.23c-.11.17,0,.3.12.3h.83a.66.66,0,0,0,.5-.3l3.19-5.38s.3-.46,0-.46h-1" transform="translate(0)"/>
    <path class="a25830c5-cae2-45fe-bef9-2f0f7637ed4f" d="M14.88,12.73a1.17,1.17,0,0,0-.44-.47,2.4,2.4,0,0,0-.69-.26,5.86,5.86,0,0,0-.94-.07H11.14a.42.42,0,0,0-.38.3L9.63,17.11a.28.28,0,0,0,0,.22.25.25,0,0,0,.2.09h.8a.43.43,0,0,0,.39-.31l.27-1.18a.43.43,0,0,1,.38-.31h.23a3.81,3.81,0,0,0,2.3-.6,1.86,1.86,0,0,0,.8-1.59,1.45,1.45,0,0,0-.16-.71m-1.72,1.59a1.61,1.61,0,0,1-1,.27H12a.25.25,0,0,1-.2-.09.22.22,0,0,1,0-.22l.24-1a.43.43,0,0,1,.38-.31h.26a1.28,1.28,0,0,1,.69.16.49.49,0,0,1,.23.47.84.84,0,0,1-.36.77" transform="translate(0)"/>
    <path class="0dc65015-4e51-4906-aaf0-ace18697b49d" d="M29.4,12.75a1.17,1.17,0,0,0-.44-.47,1.86,1.86,0,0,0-.69-.26,6.63,6.63,0,0,0-1-.07H25.59a.43.43,0,0,0-.38.31l-1.12,4.87a.26.26,0,0,0,0,.21.22.22,0,0,0,.2.09h.81a.42.42,0,0,0,.38-.3L25.75,16a.43.43,0,0,1,.38-.31h.23a3.81,3.81,0,0,0,2.3-.6,1.88,1.88,0,0,0,.81-1.58,1.48,1.48,0,0,0-.15-.72m-1.74,1.59a1.69,1.69,0,0,1-1,.26h-.2a.23.23,0,0,1-.2-.08.28.28,0,0,1,0-.22l.24-1a.42.42,0,0,1,.38-.3h.27a1.28,1.28,0,0,1,.69.16.52.52,0,0,1,.24.47.89.89,0,0,1-.36.77" transform="translate(0)"/>
    <path class="a25830c5-cae2-45fe-bef9-2f0f7637ed4f" d="M17.34,16.43a1.87,1.87,0,0,1-.31.17,1.5,1.5,0,0,1-.42.09.9.9,0,0,1-.46-.09.32.32,0,0,1-.15-.3.58.58,0,0,1,.11-.38.71.71,0,0,1,.34-.23,2.4,2.4,0,0,1,.53-.12l.59-.07c.05,0,.08,0,.06.1s-.11.48-.16.67a.54.54,0,0,1-.15.15Zm1.41-3a3.18,3.18,0,0,0-1.43-.25,6.73,6.73,0,0,0-1,.07l-.41.08a.46.46,0,0,0-.35.38l-.1.39c-.06.25.09.24.15.22l.48-.14a4,4,0,0,1,.76-.1,2.26,2.26,0,0,1,.73.1.4.4,0,0,1,.24.37.2.2,0,0,1,0,.11s0,.06-.12.07a7.48,7.48,0,0,0-1.18.13,3.55,3.55,0,0,0-1,.28,1.65,1.65,0,0,0-.69.54,1.69,1.69,0,0,0-.23.84,1,1,0,0,0,.3.74,1.21,1.21,0,0,0,.84.29,2.09,2.09,0,0,0,.5,0l.38-.13a1.35,1.35,0,0,0,.33-.19l.3-.2v.13a.23.23,0,0,0,0,.2.22.22,0,0,0,.18.1h.76a.41.41,0,0,0,.34-.3l.57-2.52v-.4A.86.86,0,0,0,18.75,13.43Z" transform="translate(0)"/>
    <path class="0dc65015-4e51-4906-aaf0-ace18697b49d" d="M36,12h-.71a.42.42,0,0,0-.39.27h0v.18l-1,4.47v.19a.23.23,0,0,0,0,.2.22.22,0,0,0,.18.1h.75a.43.43,0,0,0,.38-.28h0l1.07-4.82a.22.22,0,0,0,0-.22A.21.21,0,0,0,36,12Z" transform="translate(0)"/>
    <path class="0dc65015-4e51-4906-aaf0-ace18697b49d" d="M37.08,13h-.15a.3.3,0,0,1-.18-.06.26.26,0,0,1-.06-.21v-.4H36.6v-.11h.09V12h.13v.23h.27v.11h-.27v.48a.06.06,0,0,0,0,.06H37Z" transform="translate(0)"/>
    <path class="0dc65015-4e51-4906-aaf0-ace18697b49d" d="M38.38,13h-.13v-.54a.09.09,0,0,0,0-.07,0,0,0,0,0,0,0h-.2a.41.41,0,0,0-.11.07V13h-.13v-.56a.09.09,0,0,0,0-.07v-.05h-.19l-.1.07V13h-.13v-.77h.13v.07a.25.25,0,0,1,.12-.08h.13a.24.24,0,0,1,.22.12.42.42,0,0,1,.14-.09h.14a.23.23,0,0,1,.19.07.29.29,0,0,1,.06.22Z" transform="translate(0)"/>
  </g>
</svg>
