<svg id="52cef127-8588-4aef-940a-21b6de59be8b" data-name="bb93e4e1-6779-4f3a-911d-32d4001f20a9" xmlns="http://www.w3.org/2000/svg" width="30" height="30.01" viewBox="0 0 30 30.01">
  <defs>
    <style>
      .\35 a013ca3-db06-4626-b5d5-63b1009f7c03 {
        fill: #3f4764;
      }

      .\36 ca5b4d5-4e24-4dbb-9e60-90ddd483266b {
        fill: #c8d4e8;
      }
    </style>
  </defs>
  <title>footer__icons-social-tg</title>
  <g>
    <path class="5a013ca3-db06-4626-b5d5-63b1009f7c03" d="M30,15a14.42,14.42,0,0,1-4.39,10.61,15,15,0,0,1-21.21,0h0A14.5,14.5,0,0,1,0,15,14.5,14.5,0,0,1,4.39,4.4a15,15,0,0,1,21.22,0h0A14.42,14.42,0,0,1,30,15Z" transform="translate(0)"/>
    <path class="6ca5b4d5-4e24-4dbb-9e60-90ddd483266b" d="M11.78,15.58l6.47-4a.11.11,0,1,1,.14.18h0l-5.34,5a1,1,0,0,0-.34.66l-.18,1.35a.16.16,0,0,1-.2.12.16.16,0,0,1-.13-.12l-.7-2.46A.65.65,0,0,1,11.78,15.58ZM7.4,15l3.31,1.24L12,20.36a.4.4,0,0,0,.49.25l.13-.07L14.45,19a.53.53,0,0,1,.67,0l3.33,2.42a.41.41,0,0,0,.55-.09.47.47,0,0,0,.06-.15L21.5,9.48A.39.39,0,0,0,21.22,9,.33.33,0,0,0,21,9L7.4,14.27a.38.38,0,0,0-.24.49A.38.38,0,0,0,7.4,15Z" transform="translate(0)"/>
  </g>
</svg>
