<svg id="73c1a15a-2ee8-4d3b-9700-26428faca99f" data-name="Capa 1" xmlns="http://www.w3.org/2000/svg" width="32" height="29.87" viewBox="0 0 32 29.87">
  <defs>
    <style>
      .e36bb517-1ef3-464f-87d9-5ae75d2d604d {
        fill: #fff;
      }
    </style>
  </defs>
  <title>header__login-link</title>
  <path class="e36bb517-1ef3-464f-87d9-5ae75d2d604d" d="M26.67,8.47V6.33H24.53a1.07,1.07,0,0,1,0-2.13h2.14V2.07a1.07,1.07,0,1,1,2.13,0V4.2h2.13a1.07,1.07,0,1,1,0,2.13H28.8V8.47a1.07,1.07,0,0,1-2.13,0Zm-19,3.44a5.63,5.63,0,1,0,5.62-5.63A5.62,5.62,0,0,0,7.71,11.91Zm16.87,19a11.25,11.25,0,1,0-22.5,0H0A13.38,13.38,0,0,1,9,18.26a7.71,7.71,0,1,1,8.73,0,13.38,13.38,0,0,1,9,12.61Z" transform="translate(0 -1)"/>
</svg>
