<svg id="46fcf151-2629-4500-be32-ca32b566d740" data-name="Слой 1" xmlns="http://www.w3.org/2000/svg" width="15" height="15" viewBox="0 0 15 15">
  <defs>
    <style>
      .\36 086fe48-02dd-4018-ae2c-2551af755682 {
        fill: #a4b2d1;
      }
    </style>
  </defs>
  <title>header__news-preview-close</title>
  <path class="6086fe48-02dd-4018-ae2c-2551af755682" d="M10.46,10.46a.59.59,0,0,1-.82,0L7.5,8.32,5.26,10.56a.58.58,0,1,1-.82-.82L6.68,7.5,4.54,5.36a.58.58,0,0,1,.82-.82L7.5,6.68l2-2a.58.58,0,0,1,.82.82l-2,2,2.14,2.14A.59.59,0,0,1,10.46,10.46Zm2.35-8.27a7.51,7.51,0,1,0,0,10.62A7.53,7.53,0,0,0,12.81,2.19Z" transform="translate(0 0)"/>
</svg>
