<svg id="b4f652d8-02be-4756-b1e3-ce2f2b8d3201" data-name="1" xmlns="http://www.w3.org/2000/svg" width="513.05" height="143.92" viewBox="0 0 513.05 143.92">
  <defs>
    <style>
      .\38 d29fcce-80f5-407e-8345-445c7d60ba0a {
        fill: #fff;
      }

      .\38 d29fcce-80f5-407e-8345-445c7d60ba0a, .\39 b6d3956-f5d1-4a6f-9772-e27bda1861cb {
        fill-rule: evenodd;
      }

      .\39 b6d3956-f5d1-4a6f-9772-e27bda1861cb {
        fill: #17d68c;
      }
    </style>
  </defs>
  <title>logo</title>
  <path class="8d29fcce-80f5-407e-8345-445c7d60ba0a" d="M171.16,97.57a16,16,0,0,0,16-16,16,16,0,1,0-27.37,11.34,15.45,15.45,0,0,0,11.34,4.68Zm-16-31.72.16-.16a22.43,22.43,0,0,1,38.28,15.86,22.42,22.42,0,0,1-44.84,0V43.07a3.23,3.23,0,0,1,3.2-3.2,3,3,0,0,1,2.25.94,3.08,3.08,0,0,1,.95,2.26V65.85Zm63.21,34.85L203,63.82a3.21,3.21,0,0,1-.36-1.49,3.07,3.07,0,0,1,.94-2.26,3.12,3.12,0,0,1,2.27-.94,3.17,3.17,0,0,1,2.28.92,3.59,3.59,0,0,1,.75,1.2l13,31.09,13-31.09a3.73,3.73,0,0,1,.79-1.2,3.06,3.06,0,0,1,2.26-.92,3.23,3.23,0,0,1,3.2,3.2,3.34,3.34,0,0,1-.36,1.49L216.82,121a3.25,3.25,0,0,1-.75,1.16,3.2,3.2,0,0,1-4.55,0,3.19,3.19,0,0,1-.57-3.75l7.4-17.76Zm60.77,1.3L256.47,56.71v44.06a3.23,3.23,0,0,1-3.19,3.2,3.08,3.08,0,0,1-2.26-1,3.05,3.05,0,0,1-.94-2.25V43.15a3.07,3.07,0,0,1,.94-2.26,3.11,3.11,0,0,1,2.27-.94,3.05,3.05,0,0,1,2.86,1.68l25.94,52,25.94-52a3.23,3.23,0,0,1,6.07,1.52v57.62a3.2,3.2,0,0,1-6.4,0V56.71l-22.85,45.7a2.89,2.89,0,0,1-2.76,1.56,3.15,3.15,0,0,1-3-2Zm54.45-52.46a3.94,3.94,0,0,1-1.17,2.83,3.89,3.89,0,0,1-2.83,1.19,3.82,3.82,0,0,1-2.82-1.19,4,4,0,0,1,0-5.66,3.82,3.82,0,0,1,2.82-1.19,3.89,3.89,0,0,1,2.83,1.19,4,4,0,0,1,1.17,2.83Zm-7.21,12.8a3.2,3.2,0,0,1,6.39,0v38.43a3.05,3.05,0,0,1-.94,2.25,3.15,3.15,0,0,1-4.51,0,3.05,3.05,0,0,1-.94-2.25V62.34Zm18.65,0a3.07,3.07,0,0,1,.94-2.26,3.17,3.17,0,0,1,4.51,0,3.07,3.07,0,0,1,.94,2.26v2.59a20.84,20.84,0,0,1,35.25,15v20.82a3.05,3.05,0,0,1-.94,2.25,3.15,3.15,0,0,1-4.51,0,3.05,3.05,0,0,1-.94-2.25V79.94a14.43,14.43,0,0,0-28.86,0v20.83a3.23,3.23,0,0,1-3.19,3.2,3.08,3.08,0,0,1-2.26-1,3.05,3.05,0,0,1-.94-2.25V62.33Zm61.08-12.79a4,4,0,0,1-4,4,3.82,3.82,0,0,1-2.81-1.19,4,4,0,0,1,0-5.66,3.82,3.82,0,0,1,2.81-1.19,4,4,0,0,1,4,4Zm-7.21,12.8a3.2,3.2,0,0,1,6.4,0v38.43a3.2,3.2,0,0,1-6.4,0V62.34Zm18.65,0a3.2,3.2,0,0,1,6.4,0v2.59a20.83,20.83,0,0,1,35.24,15v20.82A3.23,3.23,0,0,1,456,104a3.08,3.08,0,0,1-2.26-1,3.05,3.05,0,0,1-.94-2.25V79.94a14.43,14.43,0,0,0-28.85,0v20.83a3.2,3.2,0,0,1-6.4,0V62.33Zm73.1,3.19a16,16,0,0,0-16,16A16,16,0,1,0,502,70.21a15.43,15.43,0,0,0-11.34-4.69Zm16,31.73-.16.16a22.43,22.43,0,0,1-38.28-15.86,22.42,22.42,0,0,1,44.84,0v22.4a16.82,16.82,0,0,1-5,12.17,24,24,0,0,1-34,0,23.87,23.87,0,0,1-4.23-5.56,2.88,2.88,0,0,1-.48-1.68,3.08,3.08,0,0,1,.94-2.27,3,3,0,0,1,2.26-.93,3.19,3.19,0,0,1,2.28.92,4.63,4.63,0,0,1,.68,1,18.55,18.55,0,0,0,3.09,4,17.61,17.61,0,0,0,24.9,0,11.92,11.92,0,0,0,3.21-7.63Z"/>
  <path class="9b6d3956-f5d1-4a6f-9772-e27bda1861cb" d="M102.25,28l13.67,13.66a5.55,5.55,0,0,1,0,7.81L102.25,63.13a5.52,5.52,0,0,1-7.8,0L81.35,50H62.57L50,62.57V81.35L62.57,93.89H81.35l13.1-13.1a5.52,5.52,0,0,1,7.8,0l13.67,13.66a5.54,5.54,0,0,1,0,7.8l-13.67,13.67a5.54,5.54,0,0,1-7.8,0l-13.1-13.1H62.57l-13.1,13.1a5.55,5.55,0,0,1-7.81,0L28,102.25a5.54,5.54,0,0,1,0-7.8l13.1-13.1V62.57L28,49.47a5.55,5.55,0,0,1,0-7.81L41.66,28a5.55,5.55,0,0,1,7.81,0l13.1,13.1H81.35L94.45,28a5.54,5.54,0,0,1,7.8,0ZM54.39,120.84a5.55,5.55,0,0,0,0,7.81l13.67,13.66a5.54,5.54,0,0,0,7.8,0l13.66-13.66a5.53,5.53,0,0,0,0-7.81L75.86,107.18a5.52,5.52,0,0,0-7.8,0L54.39,120.84Zm0-52.78a5.54,5.54,0,0,0,0,7.8L68.06,89.52a5.52,5.52,0,0,0,7.8,0L89.52,75.86a5.52,5.52,0,0,0,0-7.8L75.86,54.39a5.54,5.54,0,0,0-7.8,0L54.39,68.06Zm-52.78,0a5.52,5.52,0,0,0,0,7.8L15.27,89.52a5.53,5.53,0,0,0,7.81,0L36.74,75.86a5.54,5.54,0,0,0,0-7.8L23.08,54.39a5.55,5.55,0,0,0-7.81,0L1.61,68.06ZM75.86,1.61a5.52,5.52,0,0,0-7.8,0L54.39,15.27a5.55,5.55,0,0,0,0,7.81L68.06,36.74a5.54,5.54,0,0,0,7.8,0L89.52,23.08a5.53,5.53,0,0,0,0-7.81Z"/>
</svg>
