<svg id="dda2ec20-2a34-4d99-9bfc-f75508db4162" data-name="Слой 1" xmlns="http://www.w3.org/2000/svg" width="52.76" height="33.92" viewBox="0 0 52.76 33.92" preserveAspectRatio="none">
  <defs>
    <style>
      .\32 3d9d15a-6b17-4c11-9b4b-54bb891d5539 {
        fill: #5b6595;
      }
    </style>
  </defs>
  <title>main-image-1-fan</title>
  <path id="28a2972f-f458-4ccc-b713-9ec182b837d7" data-name="Path 98" class="23d9d15a-6b17-4c11-9b4b-54bb891d5539" d="M51.93,19.62,34,15.86a3,3,0,0,0-.31-1L36,14.31c7.15-1.76,11.27-3.74,12.27-5.86.65-1.41,0-2.81-2-4.16A52.4,52.4,0,0,0,41,1.56a1.77,1.77,0,0,0-1.76.2L28.09,11.84H26.62c-.06-3.71-.76-8.44-3.73-10.58A7,7,0,0,0,18.7,0h0a11.94,11.94,0,0,0-3.6.62,48.52,48.52,0,0,0-5,2.14L9.51,3A.73.73,0,0,0,9,3.73a.69.69,0,0,0,.24.44L21,14.56a3.78,3.78,0,0,0-.31.64A65.45,65.45,0,0,0,8.1,13.58c-3.1,0-5.35.51-6.7,1.52A3.37,3.37,0,0,0,.13,18.76,23.55,23.55,0,0,0,1.89,23a1.31,1.31,0,0,0,1.18.55,1.34,1.34,0,0,0,.4,0l19-4.09a5.38,5.38,0,0,0,.66.38c-.66.59-1.35,1.23-2,1.9-4.2,4.17-5.76,7.34-4.64,9.43.74,1.39,2.57,2.26,5.41,2.58,1.47.16,3.78.2,5.47.2h1.23c.68,0,1.22-.38,1.22-.83l-.09-12.73A9,9,0,0,0,30.82,20c.56.49,1.15,1,1.76,1.51,4.73,3.88,8.84,5.84,12.22,5.84a6.91,6.91,0,0,0,5.56-2.56,24.86,24.86,0,0,0,2.35-4.1c.2-.43-.17-.87-.81-1Z"/>
</svg>
