<svg id="155f97bc-0e03-4f60-8b77-7bee928e8f86" data-name="Слой 1" xmlns="http://www.w3.org/2000/svg" xmlns:xlink="http://www.w3.org/1999/xlink" width="420.74" height="364.04" viewBox="0 0 420.74 364.04">
  <defs>
    <style>
      .a98f138e-0161-4a24-98a7-6601b0d1cc52 {
        fill: url(#3a334cc0-83f5-4e80-8dae-2fd8809ec119);
      }

      .fcd16fd1-b8dd-45d8-af44-2e544ba711ee {
        fill: #45457f;
      }

      .\32 203b31c-78db-4ab0-80eb-0f27b5a9e728 {
        fill: url(#2d7123b3-d02f-4c22-abe9-5eaf44b73a0f);
      }

      .\34 1ddc28c-730e-4d52-849d-2284603d00c9 {
        fill: url(#42bc3bf5-05c6-41af-84b0-2ac28abf6988);
      }

      .ea26ac55-85d7-4dc9-bcf6-2ed9e627104e {
        fill: url(#84c6132a-388f-48f8-8c54-3f33d5019c71);
      }

      .\38 df5267a-be46-4661-b547-41ce75250cc2 {
        fill: #a7b8d5;
        opacity: 0.5;
        isolation: isolate;
      }

      .ec0dcfda-b2b6-4b15-920a-1a16394ce01d {
        fill: url(#d757a6a4-e451-45f4-944a-3e20024619c8);
      }

      .\31 e21657c-347b-4bd8-bc19-988d475f0a18 {
        fill: #7f90b8;
      }

      .ae98f7db-bf89-4e5d-bb28-1f7f636756a8 {
        fill: url(#f7fed695-0e3b-4ff1-9e3c-0d020077b79e);
      }

      .b5d9a1b4-3da4-4fbe-8744-038909bc5ace {
        fill: url(#6baef106-be18-4f51-bd8f-0aaf0c049d72);
      }

      .de20c36a-c8fc-4fb8-a82f-9546f6ae60be {
        fill: url(#770091eb-79bc-4fbd-99af-e5a963517656);
      }

      .a405c2d4-e175-49e9-be1e-a845e4737a89 {
        fill: url(#d2309bd6-e208-48e5-8306-c5cf8cdeb3db);
      }

      .f2cac0a9-3ec1-4631-9306-2e2ae804c900 {
        fill: url(#adb6700a-4e45-476a-b390-96d43c9629b7);
      }

      .\34 3b07c00-404d-4330-a03d-45d4f5000545 {
        fill: url(#f415ea22-edf5-418d-87fb-b3c0a9e9dcca);
      }

      .\34 8b4dd4a-44c8-4617-8402-dc05c6e583c3 {
        fill: url(#b1e7c5df-ab9d-42b2-bc31-810ad0c9c9e8);
      }

      .a073c571-9b10-46ae-8f2a-e28961ed3454 {
        fill: url(#fb693a40-14bb-46a9-8915-1eba760bc4c8);
      }

      .c24025bc-9aef-46e9-84bf-51596394f122 {
        fill: url(#d9dfaeeb-ad82-428b-9108-b0d11af99e20);
      }

      .\31 8796b8b-bec7-48c9-97c5-73043843d7ca {
        fill: url(#67405ab1-d0c1-49ab-8372-ae56c07d9ab5);
      }

      .\31 53c15e2-0898-4643-bc57-a33a465b991c {
        fill: url(#1693eb0a-c694-4c31-bb10-787b4c71dee2);
      }

      .b46bdb3f-bd17-47dd-bac6-187748d65623 {
        fill: url(#f48fce88-6509-44fd-8809-d8082fa4fe9b);
      }

      .\37 aa2e418-17ad-4405-a240-c8c1d03a08f6 {
        fill: url(#2beed3a8-13ac-48ce-947f-346198331267);
      }

      .\37 78a8beb-637a-42b8-b6e0-3438c5706cf6 {
        fill: url(#de2a6528-c601-4d82-9152-f93ba287142e);
      }

      .\30 3253c94-8553-4d82-88f9-30599f60af9f {
        fill: url(#8ce3143f-856f-4e12-9b3f-eeebcd87fb3e);
      }

      .\31 0977b6a-3fdc-4cca-b039-2462b51eb5b3 {
        fill: url(#e14dc1bb-367e-43dd-8a63-ae845a5b1342);
      }

      .\30 e921f51-58b9-4594-b5eb-8ff44f64215a {
        fill: #dae2f2;
      }

      .\31 9ea751e-ddce-48b5-ba9d-3ea33d924bf7 {
        fill: #76c695;
      }

      .\36 a3a9f67-9d69-4822-8765-5935fb2b00e8 {
        fill: #63b783;
      }

      .\39 fac5f04-4243-44fe-a674-5a21b4184fe3 {
        fill: #fff;
      }

      .\31 2443c84-db9b-4152-9d5d-1163ad82a409 {
        fill: #9ddbb5;
      }

      .\32 b9ba41c-6f63-44c1-99f9-e03be4950a68 {
        fill: url(#fe636fb8-7aeb-405a-a05e-e1b410cb0446);
      }

      .\32 94f211a-1dde-4985-84c2-921fba6283eb {
        fill: url(#8dcbb28b-713f-41d3-8177-84240511f972);
      }

      .\32 8e6eaeb-ddb4-4e0b-a7de-7236b8ff3415 {
        fill: #77d2a5;
      }

      .\33 304df03-15c6-46a3-9a1e-53c3c48b07f2 {
        fill: #6dc494;
      }

      .\33 beba930-4c94-4621-b446-e0219fd94471 {
        fill: #6ac08e;
      }

      .\31 3a29a1f-1dd9-40e9-96d6-a3b64f4a5fd2 {
        fill: url(#44e7bc19-6f8d-4304-8bb4-c6219d559386);
      }

      .\38 4532622-0ac5-457d-a6c4-a03c34fab034 {
        fill: url(#2f0e086b-71c1-442c-9236-23975cf3cd5a);
      }

      .\31 5d29478-9cbf-455c-9a7b-c65c0999cd76 {
        fill: #a1dec0;
      }

      .\30 408b178-7441-4469-aca1-fe7e2b0cd99b {
        fill: url(#8a300635-acc2-4145-ab68-8ecf4d77abb2);
      }

      .c4cce1ad-d80a-424b-b17f-bbc9f26f0c43 {
        fill: url(#1dd742f5-f5ea-4ac2-82f5-e78619ec3ed9);
      }

      .e31e0a6d-0c5e-4c7f-b962-169db6ee38ec {
        fill: url(#2f49cfd3-b84f-402b-a995-f5954ec464dd);
      }

      .\37 22c17db-3b9b-406c-bb2e-2a3b93adc41b {
        fill: #73cc9e;
      }

      .\36 ac85502-c3e7-4868-9fac-7c025fb0dcbd {
        fill: #68ccea;
      }

      .\31 7575dbb-ed25-4fe2-a85e-0ec35017bf80 {
        fill: #5abce2;
      }

      .fe82b751-b292-484c-8c04-b82db2ddf005 {
        fill: #40b0d3;
      }

      .\36 00dcd6f-4e60-4bcd-b7fa-7acaa3f964b8 {
        fill: url(#c8b4f746-54b9-4651-8002-e38acf2d7ceb);
      }

      .ec0484d3-3c54-45eb-a5bd-0e496dfc0a49 {
        fill: url(#bace1162-000c-436a-91ab-c266b4b5ea57);
      }

      .c4697f1c-680d-497f-9abb-ca9be36b9fc9 {
        fill: url(#2f880365-ab4b-4c24-87a6-0ca93174cb23);
      }

      .d62b2a29-f635-4390-9ab6-27879aa46eb9 {
        fill: url(#1983c828-225a-4f7d-92d0-53ed2b43af60);
      }

      .\38 98a8261-429a-4602-801b-c7ff8d6d416f {
        fill: #85cfec;
      }

      .\32 3d2be22-c071-4241-8641-856114861e8a {
        fill: #60bdd9;
      }

      .\36 30e33f8-2ee2-4ea2-b5b7-0af8f6bc8a26 {
        fill: url(#b36b3b74-2a90-46a9-bfcd-244711fc517e);
      }

      .cce56006-df00-4781-b084-0869f49b0f41 {
        fill: url(#9d6ec3f5-01e6-401a-8b03-bcf610df394e);
      }

      .a59cdc4f-9945-4979-9577-ce4f78a9a787 {
        fill: url(#dd16ba80-8f4c-410a-b510-b67a64502315);
      }

      .\30 e845d39-5eca-4852-9dbd-23d31a6d99c7 {
        fill: url(#c5d6064a-2568-41a4-9dbb-ab22435fe5b3);
      }

      .\30 8b2cf8a-7ce9-45c5-9a48-9ff271842686 {
        fill: #38a1c2;
      }
    </style>
    <linearGradient id="3a334cc0-83f5-4e80-8dae-2fd8809ec119" data-name="Безымянный градиент" x1="-743.42" y1="718.05" x2="-743.5" y2="718.05" gradientTransform="matrix(149.18, 0, 0, -80.31, 111125.53, 57823.98)" gradientUnits="userSpaceOnUse">
      <stop offset="0" stop-color="#9cb1ce"/>
      <stop offset="1" stop-color="#dee3f3"/>
    </linearGradient>
    <linearGradient id="2d7123b3-d02f-4c22-abe9-5eaf44b73a0f" data-name="Безымянный градиент 2" x1="-743.52" y1="718.05" x2="-743.39" y2="718.05" gradientTransform="matrix(149.18, 0, 0, -80.31, 111125.53, 57799.21)" gradientUnits="userSpaceOnUse">
      <stop offset="0" stop-color="#dee3f3"/>
      <stop offset="0.57" stop-color="#9cb1ce"/>
      <stop offset="1" stop-color="#9cb1ce"/>
    </linearGradient>
    <linearGradient id="42bc3bf5-05c6-41af-84b0-2ac28abf6988" data-name="Безымянный градиент 3" x1="-743.41" y1="718.05" x2="-743.49" y2="718.06" gradientTransform="matrix(149.18, 0, 0, -80.31, 111125.52, 57775.14)" xlink:href="#3a334cc0-83f5-4e80-8dae-2fd8809ec119"/>
    <linearGradient id="84c6132a-388f-48f8-8c54-3f33d5019c71" data-name="Безымянный градиент 4" x1="-744.17" y1="718.05" x2="-742.97" y2="718.05" gradientTransform="matrix(148.99, 0, 0, -80.27, 110978.66, 57726.98)" gradientUnits="userSpaceOnUse">
      <stop offset="0" stop-color="#f1f3f9"/>
      <stop offset="1" stop-color="#dee3f3"/>
    </linearGradient>
    <linearGradient id="d757a6a4-e451-45f4-944a-3e20024619c8" data-name="Безымянный градиент 5" x1="-736.52" y1="708.24" x2="-737.31" y2="708.32" gradientTransform="matrix(64.68, 0, 0, -25.15, 47870.54, 17892.62)" gradientUnits="userSpaceOnUse">
      <stop offset="0" stop-color="#cdd3e8"/>
      <stop offset="1" stop-color="#8b9abc"/>
    </linearGradient>
    <linearGradient id="f7fed695-0e3b-4ff1-9e3c-0d020077b79e" data-name="Безымянный градиент 6" x1="-743.42" y1="718.05" x2="-743.5" y2="718.05" gradientTransform="matrix(149.18, 0, 0, -80.31, 111261.38, 57906.87)" xlink:href="#3a334cc0-83f5-4e80-8dae-2fd8809ec119"/>
    <linearGradient id="6baef106-be18-4f51-bd8f-0aaf0c049d72" data-name="Безымянный градиент 7" x1="-743.5" y1="718.05" x2="-743.39" y2="718.05" gradientTransform="matrix(149.18, 0, 0, -80.31, 111261.38, 57882.11)" gradientUnits="userSpaceOnUse">
      <stop offset="0" stop-color="#dee3f3"/>
      <stop offset="0.71" stop-color="#9cb1ce"/>
      <stop offset="1" stop-color="#9cb1ce"/>
    </linearGradient>
    <linearGradient id="770091eb-79bc-4fbd-99af-e5a963517656" data-name="Безымянный градиент 8" x1="-743.41" y1="718.05" x2="-743.49" y2="718.06" gradientTransform="matrix(149.18, 0, 0, -80.31, 111261.37, 57858.04)" xlink:href="#3a334cc0-83f5-4e80-8dae-2fd8809ec119"/>
    <linearGradient id="d2309bd6-e208-48e5-8306-c5cf8cdeb3db" data-name="Безымянный градиент 9" x1="-744.17" y1="718.05" x2="-742.97" y2="718.05" gradientTransform="matrix(148.99, 0, 0, -80.27, 111114.51, 57809.87)" xlink:href="#84c6132a-388f-48f8-8c54-3f33d5019c71"/>
    <linearGradient id="adb6700a-4e45-476a-b390-96d43c9629b7" data-name="Безымянный градиент 10" x1="-736.52" y1="708.24" x2="-737.31" y2="708.32" gradientTransform="matrix(64.68, 0, 0, -25.15, 48006.39, 17975.51)" xlink:href="#d757a6a4-e451-45f4-944a-3e20024619c8"/>
    <linearGradient id="f415ea22-edf5-418d-87fb-b3c0a9e9dcca" data-name="Безымянный градиент 11" x1="-743.42" y1="718.05" x2="-743.5" y2="718.05" gradientTransform="matrix(149.18, 0, 0, -80.31, 110989.82, 57906.87)" xlink:href="#3a334cc0-83f5-4e80-8dae-2fd8809ec119"/>
    <linearGradient id="b1e7c5df-ab9d-42b2-bc31-810ad0c9c9e8" data-name="Безымянный градиент 12" x1="-743.5" y1="718.05" x2="-743.43" y2="718.05" gradientTransform="matrix(149.18, 0, 0, -80.31, 110989.82, 57882.11)" gradientUnits="userSpaceOnUse">
      <stop offset="0" stop-color="#dee3f3"/>
      <stop offset="1" stop-color="#9cb1ce"/>
    </linearGradient>
    <linearGradient id="fb693a40-14bb-46a9-8915-1eba760bc4c8" data-name="Безымянный градиент 13" x1="-743.41" y1="718.05" x2="-743.49" y2="718.06" gradientTransform="matrix(149.18, 0, 0, -80.31, 110989.81, 57858.04)" xlink:href="#3a334cc0-83f5-4e80-8dae-2fd8809ec119"/>
    <linearGradient id="d9dfaeeb-ad82-428b-9108-b0d11af99e20" data-name="Безымянный градиент 14" x1="-744.17" y1="718.05" x2="-742.97" y2="718.05" gradientTransform="matrix(148.99, 0, 0, -80.27, 110842.95, 57809.87)" xlink:href="#84c6132a-388f-48f8-8c54-3f33d5019c71"/>
    <linearGradient id="67405ab1-d0c1-49ab-8372-ae56c07d9ab5" data-name="Безымянный градиент 15" x1="-736.52" y1="708.24" x2="-737.31" y2="708.32" gradientTransform="matrix(64.68, 0, 0, -25.15, 47734.83, 17975.51)" xlink:href="#d757a6a4-e451-45f4-944a-3e20024619c8"/>
    <linearGradient id="1693eb0a-c694-4c31-bb10-787b4c71dee2" data-name="Безымянный градиент 16" x1="-743.42" y1="718.05" x2="-743.5" y2="718.05" gradientTransform="matrix(149.18, 0, 0, -80.31, 111125.68, 57989.77)" xlink:href="#3a334cc0-83f5-4e80-8dae-2fd8809ec119"/>
    <linearGradient id="f48fce88-6509-44fd-8809-d8082fa4fe9b" data-name="Безымянный градиент 17" x1="-743.5" y1="718.05" x2="-743.39" y2="718.05" gradientTransform="matrix(149.18, 0, 0, -80.31, 111125.68, 57965)" gradientUnits="userSpaceOnUse">
      <stop offset="0" stop-color="#dee3f3"/>
      <stop offset="0.61" stop-color="#9cb1ce"/>
      <stop offset="1" stop-color="#9cb1ce"/>
    </linearGradient>
    <linearGradient id="2beed3a8-13ac-48ce-947f-346198331267" data-name="Безымянный градиент 18" x1="-743.41" y1="718.05" x2="-743.49" y2="718.06" gradientTransform="matrix(149.18, 0, 0, -80.31, 111125.67, 57940.93)" xlink:href="#3a334cc0-83f5-4e80-8dae-2fd8809ec119"/>
    <linearGradient id="de2a6528-c601-4d82-9152-f93ba287142e" data-name="Безымянный градиент 19" x1="-744.17" y1="718.05" x2="-742.97" y2="718.05" gradientTransform="matrix(148.99, 0, 0, -80.27, 110978.81, 57892.77)" xlink:href="#84c6132a-388f-48f8-8c54-3f33d5019c71"/>
    <linearGradient id="8ce3143f-856f-4e12-9b3f-eeebcd87fb3e" data-name="Безымянный градиент 20" x1="-736.52" y1="708.24" x2="-737.31" y2="708.32" gradientTransform="matrix(64.68, 0, 0, -25.15, 47870.69, 18058.41)" xlink:href="#d757a6a4-e451-45f4-944a-3e20024619c8"/>
    <linearGradient id="e14dc1bb-367e-43dd-8a63-ae845a5b1342" data-name="Безымянный градиент 21" x1="-718.3" y1="717.12" x2="-717.12" y2="716.31" gradientTransform="matrix(24.32, 0, 0, -61.65, 17839.87, 44254.07)" gradientUnits="userSpaceOnUse">
      <stop offset="0" stop-color="#f6f2ff"/>
      <stop offset="0.31" stop-color="#dcdbff"/>
      <stop offset="0.5" stop-color="#d2d4f6"/>
      <stop offset="0.82" stop-color="#b7c2dc"/>
      <stop offset="1" stop-color="#a6b6cc"/>
    </linearGradient>
    <linearGradient id="fe636fb8-7aeb-405a-a05e-e1b410cb0446" data-name="Безымянный градиент 22" x1="-715.11" y1="714.34" x2="-715.11" y2="713.34" gradientTransform="matrix(23.07, 1.62, 2.45, -34.97, 15019.95, 26138.54)" gradientUnits="userSpaceOnUse">
      <stop offset="0" stop-color="#77d2a5"/>
      <stop offset="1" stop-color="#63b783"/>
    </linearGradient>
    <linearGradient id="8dcbb28b-713f-41d3-8177-84240511f972" data-name="Безымянный градиент 23" x1="-719.25" y1="714.05" x2="-719.25" y2="713.05" gradientTransform="matrix(26.33, 1.85, 2.38, -33.87, 17542.76, 25528.55)" xlink:href="#fe636fb8-7aeb-405a-a05e-e1b410cb0446"/>
    <linearGradient id="44e7bc19-6f8d-4304-8bb4-c6219d559386" data-name="Безымянный градиент 24" x1="-699.25" y1="684.82" x2="-699.78" y2="685.49" gradientTransform="matrix(15.76, 1.11, 0.57, -8.14, 10911.48, 6383.12)" xlink:href="#fe636fb8-7aeb-405a-a05e-e1b410cb0446"/>
    <linearGradient id="2f0e086b-71c1-442c-9236-23975cf3cd5a" data-name="Безымянный градиент 25" x1="-697.39" y1="708.76" x2="-697.39" y2="707.76" gradientTransform="matrix(15.07, 1.06, 1.49, -21.27, 9749.97, 15838.61)" xlink:href="#fe636fb8-7aeb-405a-a05e-e1b410cb0446"/>
    <linearGradient id="8a300635-acc2-4145-ab68-8ecf4d77abb2" data-name="Безымянный градиент 26" x1="-700.93" y1="705.5" x2="-700.93" y2="704.5" gradientTransform="matrix(16.19, 1.14, 1.21, -17.31, 10810.49, 13033.19)" xlink:href="#fe636fb8-7aeb-405a-a05e-e1b410cb0446"/>
    <linearGradient id="1dd742f5-f5ea-4ac2-82f5-e78619ec3ed9" data-name="Безымянный градиент 27" x1="-719.72" y1="713.01" x2="-719.72" y2="712.01" gradientTransform="matrix(26.76, 1.88, 2.13, -30.31, 18085.05, 23002.64)" xlink:href="#fe636fb8-7aeb-405a-a05e-e1b410cb0446"/>
    <linearGradient id="2f49cfd3-b84f-402b-a995-f5954ec464dd" data-name="Безымянный градиент 28" x1="-653.47" y1="691.69" x2="-653.78" y2="692.42" gradientTransform="matrix(8.11, 0.57, 0.69, -9.89, 5138.77, 7252.63)" xlink:href="#fe636fb8-7aeb-405a-a05e-e1b410cb0446"/>
    <linearGradient id="c8b4f746-54b9-4651-8002-e38acf2d7ceb" data-name="Безымянный градиент 29" x1="-683.26" y1="691.13" x2="-682.69" y2="690.43" gradientTransform="matrix(11.77, 0.83, 0.67, -9.6, 7624.23, 7217.16)" gradientUnits="userSpaceOnUse">
      <stop offset="0" stop-color="#60bdd9"/>
      <stop offset="1" stop-color="#38a1c2"/>
    </linearGradient>
    <linearGradient id="bace1162-000c-436a-91ab-c266b4b5ea57" data-name="Безымянный градиент 30" x1="-674.19" y1="705.04" x2="-674.19" y2="704.04" gradientTransform="matrix(10.37, 0.73, 1.18, -16.87, 6217.67, 12398.86)" gradientUnits="userSpaceOnUse">
      <stop offset="0" stop-color="#60bdd9"/>
      <stop offset="1" stop-color="#329cbe"/>
    </linearGradient>
    <linearGradient id="2f880365-ab4b-4c24-87a6-0ca93174cb23" data-name="Безымянный градиент 31" x1="-685.86" y1="690.04" x2="-685.25" y2="689.37" gradientTransform="matrix(12.27, 0.86, 0.65, -9.26, 8036.17, 7014.52)" xlink:href="#c8b4f746-54b9-4651-8002-e38acf2d7ceb"/>
    <linearGradient id="1983c828-225a-4f7d-92d0-53ed2b43af60" data-name="Безымянный градиент 32" x1="-703.74" y1="708.24" x2="-703.74" y2="707.24" gradientTransform="matrix(17.21, 1.21, 1.44, -20.53, 11171.69, 15413.38)" gradientUnits="userSpaceOnUse">
      <stop offset="0" stop-color="#60bdd9"/>
      <stop offset="1" stop-color="#3394b2"/>
    </linearGradient>
    <linearGradient id="b36b3b74-2a90-46a9-bfcd-244711fc517e" data-name="Безымянный градиент 33" x1="-666.75" y1="696.83" x2="-666.75" y2="695.83" gradientTransform="matrix(9.42, 0.66, 0.81, -11.58, 5811.76, 8536.69)" xlink:href="#c8b4f746-54b9-4651-8002-e38acf2d7ceb"/>
    <linearGradient id="9d6ec3f5-01e6-401a-8b03-bcf610df394e" data-name="Безымянный градиент 34" x1="-699.83" y1="706.98" x2="-699.83" y2="705.98" gradientTransform="matrix(15.83, 1.11, 1.33, -18.92, 10251.76, 14196.93)" xlink:href="#c8b4f746-54b9-4651-8002-e38acf2d7ceb"/>
    <linearGradient id="dd16ba80-8f4c-410a-b510-b67a64502315" data-name="Безымянный градиент 35" x1="-701.87" y1="706.9" x2="-701.87" y2="705.9" gradientTransform="matrix(16.52, 1.16, 1.32, -18.82, 10757.71, 14139.52)" xlink:href="#c8b4f746-54b9-4651-8002-e38acf2d7ceb"/>
    <linearGradient id="c5d6064a-2568-41a4-9dbb-ab22435fe5b3" data-name="Безымянный градиент 36" x1="-672.58" y1="696.68" x2="-672.58" y2="695.68" gradientTransform="matrix(10.15, 0.71, 0.81, -11.51, 6372.88, 8548.16)" xlink:href="#c8b4f746-54b9-4651-8002-e38acf2d7ceb"/>
  </defs>
  <title>main-image-3-empty</title>
  <g id="fbeed56b-cefc-49fb-ad3d-c15e7e68c16a" data-name="Group 3">
    <path id="1f6ae277-e0f6-4fb1-87ac-f00d9e24dbeb" data-name="Path 66" class="a98f138e-0161-4a24-98a7-6601b0d1cc52" d="M282.41,163.79l-38.56,19.52L216.7,197.05a13.77,13.77,0,0,1-12.41,0l-66.11-33.26a4.31,4.31,0,0,1-2.4-3.82c0-1.53-.07-16.67-.07-16.67l68-23.33a14,14,0,0,1,13.58,0l67.6,23.32v16.62A4.3,4.3,0,0,1,282.41,163.79Z" transform="translate(0 -0.27)"/>
    <path id="b20a4026-a27b-4e6c-802f-400424d2ef7c" data-name="Path 67" class="fcd16fd1-b8dd-45d8-af44-2e544ba711ee" d="M282.41,147.26,216.7,180.52a13.71,13.71,0,0,1-12.41,0l-66.11-33.26a4.37,4.37,0,0,1-.14-7.72l65.67-36.1a14.07,14.07,0,0,1,13.58,0l65.26,36.08a4.37,4.37,0,0,1-.14,7.74Z" transform="translate(0 -0.27)"/>
    <path id="1e2039f8-6ca4-4810-986b-e54a85d40718" data-name="Path 68" class="2203b31c-78db-4ab0-80eb-0f27b5a9e728" d="M282.41,139,216.7,172.26a13.77,13.77,0,0,1-12.41,0L138.18,139a4.31,4.31,0,0,1-2.4-3.82c0-1.52-.07-16.66-.07-16.66l68-23.34a14.07,14.07,0,0,1,13.58,0l67.6,23.33v16.62A4.27,4.27,0,0,1,282.41,139Z" transform="translate(0 -0.27)"/>
    <path id="538ecdcd-d0ff-43bc-9e20-9d6604e6bef8" data-name="Path 69" class="fcd16fd1-b8dd-45d8-af44-2e544ba711ee" d="M282.41,122.48,216.7,155.74a13.77,13.77,0,0,1-12.41,0l-66.11-33.26a4.37,4.37,0,0,1-.14-7.73l65.67-36.1a14.07,14.07,0,0,1,13.58,0l65.26,36.09a4.37,4.37,0,0,1,1.74,5.93A4.44,4.44,0,0,1,282.41,122.48Z" transform="translate(0 -0.27)"/>
    <path id="8d2f8c61-8315-48d3-b7e4-335952b93390" data-name="Path 70" class="41ddc28c-730e-4d52-849d-2284603d00c9" d="M282.41,114.22,216.7,147.49a13.77,13.77,0,0,1-12.41,0l-66.11-33.27a4.31,4.31,0,0,1-2.4-3.82c0-1.52-.07-16.66-.07-16.66l68-23.34a14.07,14.07,0,0,1,13.58,0l67.6,23.33v16.62a4.27,4.27,0,0,1-2.48,3.87Z" transform="translate(0 -0.27)"/>
    <path id="f01c07c3-1fc3-434f-a826-9295b7b8b157" data-name="Path 71" class="ea26ac55-85d7-4dc9-bcf6-2ed9e627104e" d="M282.41,97.7,216.7,131a13.77,13.77,0,0,1-12.41,0L138.18,97.7A4.37,4.37,0,0,1,138,90l65.67-36.06a14.09,14.09,0,0,1,13.54,0L282.51,90a4.37,4.37,0,0,1,1.71,5.94,4.33,4.33,0,0,1-1.81,1.76Z" transform="translate(0 -0.27)"/>
  </g>
  <path id="de3ed747-8b22-4d58-b3d4-a87c58834973" data-name="Path 96" class="8df5267a-be46-4661-b547-41ce75250cc2" d="M241.89,91.39c0,5.33-2.54,10.25-6.81,14.16-5.92,5.41-15.15,8.88-25.51,8.88-12.2,0-22.83-4.81-28.32-11.92a18,18,0,0,1-4-11.12c0-12.73,14.47-23,32.34-23S241.89,78.66,241.89,91.39Z" transform="translate(0 -0.27)"/>
  <path id="95337212-9a34-4d0a-9595-eb9766b94a69" data-name="Path 97" class="ec0dcfda-b2b6-4b15-920a-1a16394ce01d" d="M209.32,74c16.86,0,30.94,7.7,32.43,19.44a16.22,16.22,0,0,0,.14-2.1c0-12.72-14.47-23-32.33-23s-32.34,10.32-32.34,23a16.46,16.46,0,0,0,.14,2.1C178.88,81.74,192.46,74,209.32,74Z" transform="translate(0 -0.27)"/>
  <path id="22727939-3995-4c7b-9cb0-689c9be0c090" data-name="Path 99" class="1e21657c-347b-4bd8-bc19-988d475f0a18" d="M210.24,88.16c2.67,0,4.84,1.31,4.84,2.92S212.91,94,210.24,94s-4.84-1.31-4.84-2.93S207.57,88.16,210.24,88.16Z" transform="translate(0 -0.27)"/>
  <path id="a3a13851-9105-4799-b91b-bb23caa15f0f" data-name="Path 66-2" class="ae98f7db-bf89-4e5d-bb28-1f7f636756a8" d="M418.27,246.68l-65.71,33.26a13.77,13.77,0,0,1-12.41,0L274,246.68a4.28,4.28,0,0,1-2.4-3.82c0-1.52-.08-16.66-.08-16.66l68-23.34a14.08,14.08,0,0,1,13.59,0l67.6,23.33v16.62A4.31,4.31,0,0,1,418.27,246.68Z" transform="translate(0 -0.27)"/>
  <path id="3cd1ad57-2827-4b32-85b4-945c4ca4d330" data-name="Path 67-2" class="fcd16fd1-b8dd-45d8-af44-2e544ba711ee" d="M418.27,230.16l-65.71,33.26a13.79,13.79,0,0,1-12.42,0L274,230.16a4.37,4.37,0,0,1-.14-7.73l65.67-36.09a14,14,0,0,1,13.58,0l65.26,36.08a4.38,4.38,0,0,1-.14,7.74Z" transform="translate(0 -0.27)"/>
  <path id="8e1c6a6e-4ebf-4fde-8cd4-b88f6d14fbae" data-name="Path 68-2" class="b5d9a1b4-3da4-4fbe-8744-038909bc5ace" d="M418.27,221.89l-65.71,33.27a13.77,13.77,0,0,1-12.41,0L274,221.89a4.27,4.27,0,0,1-2.4-3.82c0-1.52-.08-16.66-.08-16.66l68-23.34a14.08,14.08,0,0,1,13.59,0l67.6,23.33V218A4.31,4.31,0,0,1,418.27,221.89Z" transform="translate(0 -0.27)"/>
  <path id="60dc020b-6a92-435d-9f85-569325a814bd" data-name="Path 69-2" class="fcd16fd1-b8dd-45d8-af44-2e544ba711ee" d="M418.27,205.37l-65.71,33.26a13.79,13.79,0,0,1-12.42,0L274,205.37a4.35,4.35,0,0,1-1.93-5.86,4.29,4.29,0,0,1,1.79-1.86l65.67-36.1a14.07,14.07,0,0,1,13.58,0l65.26,36.08a4.38,4.38,0,0,1-.14,7.74Z" transform="translate(0 -0.27)"/>
  <path id="67c92df7-6f4a-4571-bc19-8eb7e8af1141" data-name="Path 70-2" class="de20c36a-c8fc-4fb8-a82f-9546f6ae60be" d="M418.27,197.12l-65.71,33.26a13.77,13.77,0,0,1-12.41,0L274,197.12a4.3,4.3,0,0,1-2.4-3.82c0-1.53-.07-16.66-.07-16.66l68-23.34a14.07,14.07,0,0,1,13.58,0l67.6,23.32v16.62a4.29,4.29,0,0,1-2.48,3.88Z" transform="translate(0 -0.27)"/>
  <path id="7c4c3eb6-e521-4043-b688-cc33e3c1e05e" data-name="Path 71-2" class="a405c2d4-e175-49e9-be1e-a845e4737a89" d="M418.27,180.59l-65.71,33.27a13.79,13.79,0,0,1-12.42,0L274,180.59a4.36,4.36,0,0,1-.14-7.72l65.67-36.06a14,14,0,0,1,13.54,0l65.25,36.08a4.36,4.36,0,0,1-.1,7.7Z" transform="translate(0 -0.27)"/>
  <path id="077beb23-1b1d-4eca-9528-ba198df4a9fc" data-name="Path 96-2" class="8df5267a-be46-4661-b547-41ce75250cc2" d="M377.75,174.28c0,5.34-2.55,10.25-6.82,14.16-5.92,5.42-15.14,8.89-25.51,8.89-12.19,0-22.83-4.82-28.31-11.92a18,18,0,0,1-4-11.13c0-12.72,14.48-23,32.34-23S377.75,161.55,377.75,174.28Z" transform="translate(0 -0.27)"/>
  <path id="4513c441-7f8d-4762-9dbf-5346998b03f4" data-name="Path 97-2" class="f2cac0a9-3ec1-4631-9306-2e2ae804c900" d="M345.17,156.94c16.87,0,30.94,7.7,32.44,19.44a16.46,16.46,0,0,0,.14-2.1c0-12.73-14.48-23.05-32.34-23.05s-32.34,10.32-32.34,23.05a18.37,18.37,0,0,0,.15,2.1C314.74,164.63,328.31,156.94,345.17,156.94Z" transform="translate(0 -0.27)"/>
  <path id="2466e34d-7ef9-4f72-95fb-7821278b436a" data-name="Path 99-2" class="1e21657c-347b-4bd8-bc19-988d475f0a18" d="M346.1,171.05c2.67,0,4.83,1.31,4.83,2.93s-2.16,2.93-4.83,2.93-4.84-1.31-4.84-2.93S343.42,171.05,346.1,171.05Z" transform="translate(0 -0.27)"/>
  <g id="d8c941f4-4f7c-437a-9963-2bdc62eed808" data-name="Group 3-3">
    <path id="393220ba-3c86-495f-a75c-48d982bbb231" data-name="Path 66-3" class="43b07c00-404d-4330-a03d-45d4f5000545" d="M146.71,246.68,81,279.94a13.77,13.77,0,0,1-12.41,0L2.48,246.68a4.28,4.28,0,0,1-2.4-3.82C.08,241.34,0,226.2,0,226.2l68-23.34a14.08,14.08,0,0,1,13.59,0l67.6,23.33v16.62A4.31,4.31,0,0,1,146.71,246.68Z" transform="translate(0 -0.27)"/>
    <path id="9dd976a1-de4b-46a3-b3db-c74f1b71628b" data-name="Path 67-3" class="fcd16fd1-b8dd-45d8-af44-2e544ba711ee" d="M146.71,230.16,81,263.42a13.79,13.79,0,0,1-12.42,0L2.48,230.16a4.37,4.37,0,0,1-.14-7.73L68,186.34a14,14,0,0,1,13.58,0l65.26,36.08a4.38,4.38,0,0,1-.14,7.74Z" transform="translate(0 -0.27)"/>
    <path id="7526d5e6-2a19-44e5-bb94-812c4e9b0c90" data-name="Path 68-3" class="48b4dd4a-44c8-4617-8402-dc05c6e583c3" d="M146.71,221.89,81,255.16a13.77,13.77,0,0,1-12.41,0L2.48,221.89a4.27,4.27,0,0,1-2.4-3.82c0-1.52-.08-16.66-.08-16.66l68-23.34a14.08,14.08,0,0,1,13.59,0l67.6,23.33V218A4.31,4.31,0,0,1,146.71,221.89Z" transform="translate(0 -0.27)"/>
    <path id="28f52796-8255-4a74-9a1d-79747d1dfe57" data-name="Path 69-3" class="fcd16fd1-b8dd-45d8-af44-2e544ba711ee" d="M146.71,205.37,81,238.63a13.79,13.79,0,0,1-12.42,0L2.48,205.37a4.35,4.35,0,0,1-1.93-5.86,4.29,4.29,0,0,1,1.79-1.86L68,161.55a14.07,14.07,0,0,1,13.58,0l65.26,36.08a4.38,4.38,0,0,1-.14,7.74Z" transform="translate(0 -0.27)"/>
    <path id="1cc62388-3114-42a7-b660-37e7d495ed95" data-name="Path 70-3" class="a073c571-9b10-46ae-8f2a-e28961ed3454" d="M146.71,197.12,81,230.38a13.77,13.77,0,0,1-12.41,0L2.48,197.12a4.3,4.3,0,0,1-2.4-3.82c0-1.53-.07-16.66-.07-16.66L68,153.3a14.07,14.07,0,0,1,13.58,0l67.6,23.32v16.62a4.29,4.29,0,0,1-2.48,3.88Z" transform="translate(0 -0.27)"/>
    <path id="ac736bd8-845c-4b58-89b8-4ee5477abec6" data-name="Path 71-3" class="c24025bc-9aef-46e9-84bf-51596394f122" d="M146.71,180.59,81,213.86a13.79,13.79,0,0,1-12.42,0L2.48,180.59a4.36,4.36,0,0,1-.14-7.72L68,136.81a14,14,0,0,1,13.54,0l65.25,36.08a4.36,4.36,0,0,1-.1,7.7Z" transform="translate(0 -0.27)"/>
  </g>
  <path id="9f9543cb-7780-4eaf-8b7a-91eb8872ef98" data-name="Path 96-3" class="8df5267a-be46-4661-b547-41ce75250cc2" d="M106.19,174.28c0,5.34-2.55,10.25-6.82,14.16-5.91,5.42-15.14,8.89-25.51,8.89-12.19,0-22.83-4.82-28.31-11.92a18,18,0,0,1-4-11.13c0-12.72,14.48-23,32.34-23S106.19,161.55,106.19,174.28Z" transform="translate(0 -0.27)"/>
  <path id="5c91954d-d327-4df0-9b16-f681f0d24434" data-name="Path 97-3" class="18796b8b-bec7-48c9-97c5-73043843d7ca" d="M73.61,156.94c16.87,0,30.94,7.7,32.44,19.44a16.46,16.46,0,0,0,.14-2.1c0-12.73-14.48-23.05-32.34-23.05s-32.34,10.32-32.34,23.05a18.37,18.37,0,0,0,.15,2.1C43.18,164.63,56.75,156.94,73.61,156.94Z" transform="translate(0 -0.27)"/>
  <path id="c8861590-0697-45aa-9502-dbfd1d589fcf" data-name="Path 99-3" class="1e21657c-347b-4bd8-bc19-988d475f0a18" d="M74.54,171.05c2.67,0,4.84,1.31,4.84,2.93s-2.17,2.93-4.84,2.93S69.7,175.6,69.7,174,71.86,171.05,74.54,171.05Z" transform="translate(0 -0.27)"/>
  <g id="38c2e6e2-2878-48b2-8ece-730dea9f4534" data-name="Group 3-4">
    <path id="5e293b40-262e-479c-9d48-91410ccef566" data-name="Path 66-4" class="153c15e2-0898-4643-bc57-a33a465b991c" d="M282.57,329.58l-65.71,33.26a13.79,13.79,0,0,1-12.42,0l-66.1-33.26a4.3,4.3,0,0,1-2.4-3.82c0-1.53-.08-16.67-.08-16.67l68-23.33a14,14,0,0,1,13.59,0l67.6,23.32V325.7A4.33,4.33,0,0,1,282.57,329.58Z" transform="translate(0 -0.27)"/>
    <path id="1b90fb8c-70e7-48c9-a0e5-8600829815a7" data-name="Path 67-4" class="fcd16fd1-b8dd-45d8-af44-2e544ba711ee" d="M282.56,313.05l-65.71,33.26a13.71,13.71,0,0,1-12.41,0l-66.1-33.26a4.36,4.36,0,0,1-.14-7.72l65.66-36.1a14.08,14.08,0,0,1,13.59,0l65.25,36.08a4.37,4.37,0,0,1-.13,7.74Z" transform="translate(0 -0.27)"/>
    <path id="f09dab25-98a4-4ac1-ace2-3f3b7c7c6fed" data-name="Path 68-4" class="b46bdb3f-bd17-47dd-bac6-187748d65623" d="M282.57,304.79l-65.71,33.26a13.79,13.79,0,0,1-12.42,0l-66.1-33.26a4.3,4.3,0,0,1-2.4-3.82c0-1.52-.08-16.66-.08-16.66l68-23.34a14.08,14.08,0,0,1,13.59,0l67.6,23.33v16.62A4.31,4.31,0,0,1,282.57,304.79Z" transform="translate(0 -0.27)"/>
    <path id="e7edd1e6-953e-46e9-8177-b2d32becd4dd" data-name="Path 69-4" class="fcd16fd1-b8dd-45d8-af44-2e544ba711ee" d="M282.56,288.27l-65.71,33.26a13.77,13.77,0,0,1-12.41,0l-66.1-33.26a4.38,4.38,0,0,1-1.94-5.87,4.42,4.42,0,0,1,1.8-1.86l65.66-36.1a14.08,14.08,0,0,1,13.59,0l65.25,36.09a4.37,4.37,0,0,1-.14,7.74Z" transform="translate(0 -0.27)"/>
    <path id="0e1cb69d-d63c-4992-b26f-358aa74f44e2" data-name="Path 70-4" class="7aa2e418-17ad-4405-a240-c8c1d03a08f6" d="M282.57,280l-65.71,33.27a13.79,13.79,0,0,1-12.42,0L138.34,280a4.27,4.27,0,0,1-2.4-3.82c0-1.52-.08-16.66-.08-16.66l68-23.34a14.08,14.08,0,0,1,13.59,0l67.6,23.33v16.62a4.31,4.31,0,0,1-2.48,3.87Z" transform="translate(0 -0.27)"/>
    <path id="434985f2-c4cb-4884-90dc-2e495640595c" data-name="Path 71-4" class="778a8beb-637a-42b8-b6e0-3438c5706cf6" d="M282.56,263.49l-65.71,33.26a13.77,13.77,0,0,1-12.41,0l-66.11-33.26a4.37,4.37,0,0,1-.13-7.73l65.66-36.06a14.09,14.09,0,0,1,13.54,0l65.26,36.08a4.36,4.36,0,0,1-.1,7.7Z" transform="translate(0 -0.27)"/>
  </g>
  <path id="bfb9a024-8288-4eda-88fa-ec4305af26d8" data-name="Path 96-4" class="8df5267a-be46-4661-b547-41ce75250cc2" d="M242.05,257.18c0,5.33-2.55,10.25-6.82,14.16-5.92,5.41-15.14,8.88-25.51,8.88-12.19,0-22.83-4.81-28.32-11.92a18.09,18.09,0,0,1-4-11.12c0-12.73,14.48-23.05,32.34-23.05S242.05,244.45,242.05,257.18Z" transform="translate(0 -0.27)"/>
  <path id="71d22161-c323-4ccc-85de-3f3e04772499" data-name="Path 97-4" class="03253c94-8553-4d82-88f9-30599f60af9f" d="M209.47,239.83c16.86,0,30.94,7.7,32.43,19.44a16.22,16.22,0,0,0,.15-2.1c0-12.72-14.48-23-32.34-23s-32.34,10.32-32.34,23.05a16.48,16.48,0,0,0,.15,2.1C179,247.53,192.61,239.83,209.47,239.83Z" transform="translate(0 -0.27)"/>
  <path id="f08bd470-b387-47a9-9314-c0d03bf5b2ca" data-name="Path 99-4" class="1e21657c-347b-4bd8-bc19-988d475f0a18" d="M210.39,254c2.68,0,4.84,1.31,4.84,2.92s-2.16,2.93-4.84,2.93-4.83-1.31-4.83-2.93S207.72,254,210.39,254Z" transform="translate(0 -0.27)"/>
  <g id="38f7c320-6dad-43f4-b8e4-97f69b6d5309" data-name="Температура">
    <path id="539dd6e5-185d-44c9-b90c-859560772e2e" data-name="Path 806" class="10977b6a-3fdc-4cca-b039-2462b51eb5b3" d="M394.52,91.56c0-4.21-2.13-9.07-5.38-13v-27c0-3.74-3-8.4-6.78-10.4a5.53,5.53,0,0,0-4.68-.63l-.08-.1L371,45.1l2.55,3.6,2-1.43v24c-3.24.45-5.37,3-5.37,7.22,0,6.67,5.37,15,12,18.6a16.8,16.8,0,0,0,2.25,1l-1.11.74,2.1,3,5.24-3.62C393.05,97.32,394.52,95,394.52,91.56Z" transform="translate(0 -0.27)"/>
    <path id="fffde9bd-3622-45b3-8a2d-2b5e48720366" data-name="Path 807" class="0e921f51-58b9-4594-b5eb-8ff44f64215a" d="M370.05,75V48c0-3.74,3-5.16,6.78-3.15h0c3.74,2,6.77,6.67,6.77,10.41v27c3.25,3.94,5.39,8.79,5.39,13,0,6.72-5.56,9.22-12.27,5.56s-12.05-11.92-12.05-18.6C364.67,78,366.8,75.44,370.05,75Z" transform="translate(0 -0.27)"/>
    <path id="d6379a7d-6271-459e-b5b1-5f4bf29388be" data-name="Path 808" class="19ea751e-ddce-48b5-ba9d-3ea33d924bf7" d="M376.83,96.52c4.3,2.31,7.81.68,7.81-3.62a13.94,13.94,0,0,0-3.46-8.34l-1.93-2.32v-19l-4.86-2.6v19l-1.92.27c-2.16.3-3.46,2-3.46,4.63C369,88.84,372.52,94.22,376.83,96.52Z" transform="translate(0 -0.27)"/>
    <path id="5eef63ff-c3fa-4a32-bdfc-9a75c8177492" data-name="Path 809" class="6a3a9f67-9d69-4822-8765-5935fb2b00e8" d="M380.77,90.83a11.19,11.19,0,0,0-.92-4.16,6.1,6.1,0,0,1-.3-4.06l1.62,2a13.88,13.88,0,0,1,3.46,8.34c0,4.3-3.5,5.93-7.81,3.62a12.85,12.85,0,0,1-1.93-1.27C378.27,96.19,380.77,94.47,380.77,90.83Z" transform="translate(0 -0.27)"/>
    <path id="f4cf26bd-da0b-443b-b7c0-69ae57c64a50" data-name="Path 810" class="9fac5f04-4243-44fe-a674-5a21b4184fe3" d="M376.83,50.12h0a4.83,4.83,0,0,1,2.43,3.74v9.38l-4.87-2.61V51.25C374.39,49.91,375.48,49.41,376.83,50.12Z" transform="translate(0 -0.27)"/>
    <path id="dd5fb8b2-4bee-48a6-9abd-6271600b3dba" data-name="Path 811" class="12443c84-db9b-4152-9d5d-1163ad82a409" d="M374.21,84.15c-.81-.43-1.48-.13-1.48.68a2.89,2.89,0,0,0,1.48,2.24c.81.43,1.47.13,1.47-.68A2.88,2.88,0,0,0,374.21,84.15Z" transform="translate(0 -0.27)"/>
    <g id="2b7067b8-d3f3-49aa-9bae-444e20c2e668" data-name="Цифры">
      <g id="7061bc11-3cfb-484e-8896-890f3471a60b" data-name="Слой 6">
        <path id="afc4b564-48cc-466f-929f-f74a3f3a173d" data-name="Path 907" class="2b9ba41c-6f63-44c1-99f9-e03be4950a68" d="M285.53,32l-.43,6.23-21-11.06.34-4.92,10.75-4.41a5.31,5.31,0,0,0,2.14-1.41A3.17,3.17,0,0,0,278,14.6a3.94,3.94,0,0,0-.74-2.57,6.69,6.69,0,0,0-2.52-2.11,5.76,5.76,0,0,0-2.8-.76,3.16,3.16,0,0,0-2.2.92l-5.42-6.24a6.31,6.31,0,0,1,4.72-1.91,14.6,14.6,0,0,1,6.84,2,22.64,22.64,0,0,1,5.37,3.9,16.84,16.84,0,0,1,3.49,4.91,10.61,10.61,0,0,1,1,5.17,7.15,7.15,0,0,1-1.24,3.77,8.65,8.65,0,0,1-4,2.63l-5.43,2.16Z" transform="translate(0 -0.27)"/>
        <path id="bc755c20-dae7-442c-9029-7c977e6e9eb4" data-name="Union 3" class="294f211a-1dde-4985-84c2-921fba6283eb" d="M302.48,48.66l1.12-1h0a12.86,12.86,0,0,1-4.46-1.5,19.65,19.65,0,0,1-6-5A21.31,21.31,0,0,1,289.25,34a22.77,22.77,0,0,1-1-8.56A15.87,15.87,0,0,1,289.49,20l-2.63-.47,5-2.64a6.11,6.11,0,0,1,1.62-.85h0a6,6,0,0,1,1.38-.29,11.16,11.16,0,0,1,6.28,1.54,19.64,19.64,0,0,1,6,4.93A21.43,21.43,0,0,1,311,29.41,22.82,22.82,0,0,1,312,38a13.63,13.63,0,0,1-2.07,7,7.29,7.29,0,0,1-1.31,1.41h0a5.81,5.81,0,0,1-1.95,1.07l-5,2.73ZM297.5,24q-1.28,1.34-1.58,5.49a15.65,15.65,0,0,0,.71,6.69,6.54,6.54,0,0,0,3,3.56,2.43,2.43,0,0,0,3.19-.31h0c.85-.88,1.37-2.72,1.56-5.5a21.42,21.42,0,0,0,0-3.67L301,28,299,23.26A2.25,2.25,0,0,0,297.5,24Z" transform="translate(0 -0.27)"/>
        <path id="af632685-5db3-450d-ad25-15d4d150231e" data-name="Path 909" class="28e6eaeb-ddb4-4e0b-a7de-7236b8ff3415" d="M266.4,2.31l-5.49,3.05,5.5.65,2-2.5L268.8,2Z" transform="translate(0 -0.27)"/>
        <path id="8695fe46-9f2c-43ba-a163-093e539c01e5" data-name="Path 910" class="3304df03-15c6-46a3-9a1e-53c3c48b07f2" d="M259.26,25l5.22-2.8,1.24,1.14-.62,1.28Z" transform="translate(0 -0.27)"/>
        <path id="3a214d8b-078f-4815-9ef6-fb2504a63e54" data-name="Path 911" class="3beba930-4c94-4621-b446-e0219fd94471" d="M279.79,41l5.36-3.5L287,31.74l-6.81,2.95Z" transform="translate(0 -0.27)"/>
        <path id="2f32c4cc-5c56-4f67-bb9f-8596e2d86797" data-name="Path 912" class="3304df03-15c6-46a3-9a1e-53c3c48b07f2" d="M277.31,26.17l5.38-2.86-.79-1.17-3.58,2.12-1.14,1.24Z" transform="translate(0 -0.27)"/>
        <path id="ea214ee9-14d1-4e06-baa5-65ba8f4efcb8" data-name="Path 913" class="13a29a1f-1dd9-40e9-96d6-a3b64f4a5fd2" d="M270.06,29.23l10.17,5.46,5.49-3-2.59-1-8.9-4.59Z" transform="translate(0 -0.27)"/>
        <path id="98bfffbf-27e1-4e07-862a-a610fe606994" data-name="Path 917" class="84532622-0ac5-457d-a6c4-a03c34fab034" d="M296.44,26.37s1.22-.62,1.09.08c-.33,1.63-1.25,7.27.32,10.32,2,3.9,6.06.42,6.06.42l-7.51,7.87-4.85-2.45-2.33-4.38,0-7.92,2.86-6.93Z" transform="translate(0 -0.27)"/>
        <path id="e0101176-3708-4ab8-aff5-cc1ca978b805" data-name="Path 918" class="15d29478-9cbf-455c-9a7b-c65c0999cd76" d="M280.32,34.75,279.89,41l-21-11.07.34-4.92L270,20.59a5.21,5.21,0,0,0,2.14-1.41,3.25,3.25,0,0,0,.65-1.78,4,4,0,0,0-.74-2.57,6.86,6.86,0,0,0-2.52-2.11,5.76,5.76,0,0,0-2.8-.76,3.16,3.16,0,0,0-2.2.92l-5.43-6.24a6.35,6.35,0,0,1,4.73-1.91,14.6,14.6,0,0,1,6.84,2,22.4,22.4,0,0,1,5.37,3.91,16.79,16.79,0,0,1,3.49,4.9,10.61,10.61,0,0,1,1,5.17,7.15,7.15,0,0,1-1.24,3.77,8.65,8.65,0,0,1-4,2.63l-5.43,2.16Z" transform="translate(0 -0.27)"/>
        <path id="c627027c-fe12-4f0a-953f-673aa40d44af" data-name="Path 919" class="15d29478-9cbf-455c-9a7b-c65c0999cd76" d="M287.9,44A21.31,21.31,0,0,1,284,36.81a23,23,0,0,1-1-8.56,13.61,13.61,0,0,1,2.08-7,6.16,6.16,0,0,1,4.56-2.76A11.11,11.11,0,0,1,296,20.07,19.42,19.42,0,0,1,302,25a21.31,21.31,0,0,1,3.86,7.21,22.83,22.83,0,0,1,1,8.57,13.63,13.63,0,0,1-2.07,7,6.21,6.21,0,0,1-4.56,2.76A11.06,11.06,0,0,1,293.94,49a19.57,19.57,0,0,1-6-5Zm9.68-1.79c.85-.88,1.37-2.72,1.57-5.5a15.65,15.65,0,0,0-.71-6.69,6.5,6.5,0,0,0-2.92-3.54,2.47,2.47,0,0,0-3.23.3c-.85.89-1.37,2.73-1.57,5.5a15.64,15.64,0,0,0,.71,6.69,6.5,6.5,0,0,0,3,3.56,2.43,2.43,0,0,0,3.18-.32Z" transform="translate(0 -0.27)"/>
        <path id="af13ea73-e580-40b6-b406-bab63f423277" data-name="Path 920" class="0408b178-7441-4469-aca1-fe7e2b0cd99b" d="M323.34,28.45a11.44,11.44,0,0,0-3.21-2.67,6.42,6.42,0,0,0-3.3-.92,3.75,3.75,0,0,0-1.55.36h0l0,0a3.7,3.7,0,0,0-.66.42l-4.11,2.62,2.65.52.08,0c-.09,1.19,2.92,1.37,3.43,2.65a13,13,0,0,0,1.84,3.82c1,1.12-.42,2.9.76,3.54a8.91,8.91,0,0,0,1.41.63l-.36.18-1.75,2.52.75.29,5.22-3.25.08,0h0a3,3,0,0,0,.51-.43,4.25,4.25,0,0,0,1.11-2.81,8.54,8.54,0,0,0-.65-3.77A13.07,13.07,0,0,0,323.34,28.45Zm-6,4.93a4.82,4.82,0,0,1-.7-2.75v0l3.42,5.15a4.15,4.15,0,0,1-.64-.29A5.38,5.38,0,0,1,317.36,33.38Z" transform="translate(0 -0.27)"/>
        <path id="b7936fa7-f4bb-4160-9936-db26c9c0790b" data-name="Path 921" class="c4cce1ad-d80a-424b-b17f-bbc9f26f0c43" d="M340,59.77a12.78,12.78,0,0,1-3.57-2.93,12.45,12.45,0,0,1-2.29-4,10.71,10.71,0,0,1-.6-4.35,5.84,5.84,0,0,1,1.14-3.37,3.4,3.4,0,0,1,2.66-1.25,7.07,7.07,0,0,1,3.33.88l-.82,1.84,4.21,4,3,1.8,4.42-2.86h0a24.26,24.26,0,0,0-4.32-6.16,25.43,25.43,0,0,0-6.13-4.68,15.11,15.11,0,0,0-7.19-2.18,7.33,7.33,0,0,0-3.93,1h0l-.06,0-.21.13-4.43,2.86,1.76.65h0a12.39,12.39,0,0,0-.68,3.36,18.28,18.28,0,0,0,1.3,7.94,25.13,25.13,0,0,0,4.58,7.5,25.5,25.5,0,0,0,6.95,5.62,16.54,16.54,0,0,0,6.28,2.16,7.15,7.15,0,0,0,4.83-1.1L346.11,60Q343.45,61.68,340,59.77Z" transform="translate(0 -0.27)"/>
        <path id="8b95c8b5-1dc1-4494-adcd-77ab12e294d7" data-name="Path 922" class="e31e0a6d-0c5e-4c7f-b962-169db6ee38ec" d="M317.42,31.5a10.22,10.22,0,0,0,1.39,2c1,1.11.36,1.07.36,1.07l.53,6.5-6.83-3.83-.79-3.75,1-2.83A6.37,6.37,0,0,0,317.42,31.5Z" transform="translate(0 -0.27)"/>
        <path id="27e5cbe0-383a-457a-8965-f0ecd5e964b7" data-name="Path 923" class="15d29478-9cbf-455c-9a7b-c65c0999cd76" d="M311.61,39a13.12,13.12,0,0,1-2.2-3.66,8.68,8.68,0,0,1-.64-3.77,4.29,4.29,0,0,1,1.1-2.81,3.54,3.54,0,0,1,2.53-1.05,6.45,6.45,0,0,1,3.3.91,11.55,11.55,0,0,1,3.22,2.68,13.31,13.31,0,0,1,2.2,3.65,8.72,8.72,0,0,1,.64,3.78,4.25,4.25,0,0,1-1.11,2.81,3.53,3.53,0,0,1-2.53,1,6.51,6.51,0,0,1-3.33-.93A11.28,11.28,0,0,1,311.61,39Zm5.66-.37a2,2,0,0,0,1-1.81,4.79,4.79,0,0,0-.7-2.71A5.44,5.44,0,0,0,315.47,32a2.42,2.42,0,0,0-2.21-.28,1.94,1.94,0,0,0-1,1.78,4.78,4.78,0,0,0,.7,2.75A5.49,5.49,0,0,0,315,38.34,2.5,2.5,0,0,0,317.27,38.63Z" transform="translate(0 -0.27)"/>
        <path id="eda23d11-2f3d-4f04-85dc-d48094873609" data-name="Path 924" class="15d29478-9cbf-455c-9a7b-c65c0999cd76" d="M327.83,62.87a25.36,25.36,0,0,1-4.59-7.5A18.26,18.26,0,0,1,322,47.43a9.28,9.28,0,0,1,2.26-6,6.92,6.92,0,0,1,5.26-2.08,15.14,15.14,0,0,1,7.19,2.18,25.24,25.24,0,0,1,6.1,4.67,24.39,24.39,0,0,1,4.32,6.15L342.3,54.1a14.23,14.23,0,0,0-5.7-6.29,7.21,7.21,0,0,0-3.69-1.08A3.39,3.39,0,0,0,330.25,48a5.81,5.81,0,0,0-1.15,3.38,10.71,10.71,0,0,0,.61,4.35,12.38,12.38,0,0,0,2.28,4,12.61,12.61,0,0,0,3.57,2.93q3.48,1.92,6.12.22l4.22,6.71a7.16,7.16,0,0,1-4.83,1.1,16.48,16.48,0,0,1-6.28-2.16A25.5,25.5,0,0,1,327.83,62.87Z" transform="translate(0 -0.27)"/>
        <path id="4e478387-50ec-49f1-b72e-30f04f7f4111" data-name="Path 925" class="722c17db-3b9b-406c-bb2e-2a3b93adc41b" d="M345.89,69.47l4.68-2.84L346.29,60l-4.69,2.84Z" transform="translate(0 -0.27)"/>
      </g>
    </g>
  </g>
  <g id="85258369-2cd8-47bc-ba44-83be87de45b4" data-name="Влажность">
    <path id="464631e8-eeb6-492b-8902-12f611781fea" data-name="Path 812" class="6ac85502-c3e7-4868-9fac-7c025fb0dcbd" d="M38.58,62.27l0,0L27.2,40.35a.27.27,0,0,0-.37-.11.2.2,0,0,0-.11.11L15.36,62.24a0,0,0,0,0,0,0A12.82,12.82,0,0,0,27,79.56h0A12.82,12.82,0,0,0,38.58,62.27Z" transform="translate(0 -0.27)"/>
    <g id="e406514b-119c-43ce-9a4a-2a30f398b311" data-name="Group 72">
      <path id="7e95e9d1-08fc-4b22-b2e2-bb492465a617" data-name="Path 813" class="17575dbb-ed25-4fe2-a85e-0ec35017bf80" d="M26.55,77.36a14.39,14.39,0,0,0,4.17-10.09v0l-3-26.71,11,21.71,0,0a13,13,0,0,1-.34,9.8,12.56,12.56,0,0,1-7,6.69,12.17,12.17,0,0,1-4,.8h0a12.26,12.26,0,0,1-2.94-.46A13.89,13.89,0,0,0,26.55,77.36Z" transform="translate(0 -0.27)"/>
      <path id="a0e1080f-ec65-4104-90b9-6fc038eac776" data-name="Path 814" class="17575dbb-ed25-4fe2-a85e-0ec35017bf80" d="M56.16,68.15l0,0-5.6-10.8a.27.27,0,0,0-.37-.11.2.2,0,0,0-.11.11l-5.6,10.8a0,0,0,0,0,0,0,6.44,6.44,0,0,0,3.78,8.3,6.34,6.34,0,0,0,2.06.41h0a6.46,6.46,0,0,0,6.25-6.65,6.28,6.28,0,0,0-.4-2.06Z" transform="translate(0 -0.27)"/>
    </g>
    <path id="022b24bf-30a8-4829-9a5a-033dcb21484c" data-name="Path 815" class="6ac85502-c3e7-4868-9fac-7c025fb0dcbd" d="M44.44,68.15l0,0,5.59-10.8a.24.24,0,0,1,.24-.12h0L52.9,70v0A6.89,6.89,0,0,1,51,75.16a7.68,7.68,0,0,1-2,1.53c-.2,0-.41-.11-.61-.18a6.43,6.43,0,0,1-4-8.16C44.4,68.28,44.42,68.21,44.44,68.15Z" transform="translate(0 -0.27)"/>
    <path id="f8832aa9-91ba-4997-acba-5d86823892e7" data-name="Path 816" class="17575dbb-ed25-4fe2-a85e-0ec35017bf80" d="M45,85.2,41.26,78a.27.27,0,0,0-.37-.11.25.25,0,0,0-.12.11L37,85.2s0,0,0,0a4.39,4.39,0,0,0,2.58,5.66,4.46,4.46,0,0,0,1.4.27h0a4.38,4.38,0,0,0,4.25-4.52A4.52,4.52,0,0,0,45,85.23Z" transform="translate(0 -0.27)"/>
    <path id="fb80ba17-4ff6-462e-ac4a-600e25315fa7" data-name="Path 817" class="6ac85502-c3e7-4868-9fac-7c025fb0dcbd" d="M37,85.23s0,0,0,0l3.7-7.15A.3.3,0,0,1,41,77.9h.08l1.75,9v0a4.88,4.88,0,0,1-2.06,4.2,5,5,0,0,1-1.15-.24A4.31,4.31,0,0,1,37,85.38.88.88,0,0,1,37,85.23Z" transform="translate(0 -0.27)"/>
    <g id="c9f19d19-6ac3-4907-9d2b-39c71f9ce9dc" data-name="Цифы">
      <g id="1889764f-bf03-4fbc-849b-ec36b281d44c" data-name="Слой 6-2">
        <path id="63547496-3a73-4402-aab2-477fbc799771" data-name="Path 886" class="fe82b751-b292-484c-8c04-b82db2ddf005" d="M62.53,17.05l5.34-2.77.3-4.37L50.91.39l-.38,5.4L60,11l-3.09,3.44L55,17.8l2.82,1.56q3.64,2,3.48,4.41a1.23,1.23,0,0,1-1.13,1.34h0a5.07,5.07,0,0,1-2.79-.86A19.18,19.18,0,0,1,54,21.82a21.84,21.84,0,0,1-3-3.26l-2.84,3.91a28.21,28.21,0,0,0,4.16,4.16A32.83,32.83,0,0,0,57.19,30a14.65,14.65,0,0,0,5.87,2A4.68,4.68,0,0,0,66.75,31a5,5,0,0,0,1.42-3.42,10.09,10.09,0,0,0-1.26-5.44A15.63,15.63,0,0,0,62.53,17.05Z" transform="translate(0 -0.27)"/>
        <path id="285d439b-f7f9-4d84-9a01-015ad67252cb" data-name="Path 887" class="fe82b751-b292-484c-8c04-b82db2ddf005" d="M79.52,25.5l-1.6-.88.56-3.43L88.1,26.5l.38-5.4L73.26,12.71,71.05,26.48l6.49,3.57a12.8,12.8,0,0,1,3.57,2.63A3.35,3.35,0,0,1,82,35.11a1.26,1.26,0,0,1-1.16,1.35h0A5.08,5.08,0,0,1,78,35.61a18.74,18.74,0,0,1-3.43-2.44,22.26,22.26,0,0,1-3-3.25l-2.79,3.92A27.33,27.33,0,0,0,72.86,38a32.11,32.11,0,0,0,5,3.39,14.5,14.5,0,0,0,5.87,2,4.6,4.6,0,0,0,3.69-1.14,5.45,5.45,0,0,0,1.44-3.6,11.08,11.08,0,0,0-2-7A19.86,19.86,0,0,0,79.52,25.5Z" transform="translate(0 -0.27)"/>
        <path id="0d92f6c5-f80d-45ed-a3a8-e90fe38c4265" data-name="Path 888" class="600dcd6f-4e60-4bcd-b7fa-7acaa3f964b8" d="M46.58,21.36l4.33-2.8,7.2,6.88-1,3.2-2.43-.17-5.2-2.13Z" transform="translate(0 -0.27)"/>
        <path id="30541f32-7a91-4247-aa75-760c7df5b159" data-name="Path 889" class="ec0484d3-3c54-45eb-a5bd-0e496dfc0a49" d="M58.27,19.66l4.64-2.29s5,4.28,5.24,8.54-1.47,5.14-2.34,5.72l-4,2.61-3.5-14.58" transform="translate(0 -0.27)"/>
        <path id="53d6e4d2-3cb1-447d-b12a-371309cc6334" data-name="Path 890" class="fe82b751-b292-484c-8c04-b82db2ddf005" d="M63.65,17,68,14.3l.32-4.5L63.52,13l.13,4" transform="translate(0 -0.27)"/>
        <path id="122d1449-71cc-42d9-9c98-2af9cbd71d63" data-name="Path 892" class="c4697f1c-680d-497f-9abb-ca9be36b9fc9" d="M67.15,32.86l4.43-2.2,7.66,5.57L79,40.48l-5.21-1.12Z" transform="translate(0 -0.27)"/>
        <path id="3b73ba26-f639-4e41-a2fa-590994fa99b7" data-name="Path 893" class="d62b2a29-f635-4390-9ab6-27879aa46eb9" d="M81.46,45.94l5.91-3.61s1.88-1.63,1.44-6.19-7.36-9.82-7.36-9.82L77.26,25l-4.82.66,2.72,4.22,3.51,3.77,1.7,4.4.69,4.57Z" transform="translate(0 -0.27)"/>
        <path id="374483ad-9c72-41ba-9611-eb67e55abc45" data-name="Path 894" class="fe82b751-b292-484c-8c04-b82db2ddf005" d="M73.58,27.28,79,25.21l-4.64-1.9-.82.94Z" transform="translate(0 -0.27)"/>
        <path id="bb5657a2-c70d-441a-ad11-67802394dc79" data-name="Path 895" class="898a8261-429a-4602-801b-c7ff8d6d416f" d="M62.69,24.81A10.05,10.05,0,0,1,64,30.25a5.07,5.07,0,0,1-1.43,3.42,4.68,4.68,0,0,1-3.69,1.1,14.41,14.41,0,0,1-5.86-2,32.2,32.2,0,0,1-5-3.39,27.6,27.6,0,0,1-4.15-4.15l2.82-3.91a21.84,21.84,0,0,0,3,3.26A19.75,19.75,0,0,0,53.16,27a5.19,5.19,0,0,0,2.81.86,1.24,1.24,0,0,0,1.16-1.33h0q.16-2.4-3.48-4.41l-2.83-1.57.31-4.41,4.61-2.41L46.31,8.51l.38-5.4L64,12.63,63.65,17l-5.33,2.78A15.65,15.65,0,0,1,62.69,24.81Z" transform="translate(0 -0.27)"/>
        <path id="b461d530-3007-47e0-bca5-dd6ae71d02a3" data-name="Path 896" class="898a8261-429a-4602-801b-c7ff8d6d416f" d="M82.58,34.44a11.2,11.2,0,0,1,2,7A5.47,5.47,0,0,1,83.15,45a4.59,4.59,0,0,1-3.69,1.15,14.65,14.65,0,0,1-5.87-2,33.44,33.44,0,0,1-5-3.39,26.88,26.88,0,0,1-4.12-4.14l2.79-3.91a22.26,22.26,0,0,0,3,3.25,19.23,19.23,0,0,0,3.43,2.44,5.16,5.16,0,0,0,2.83.85,1.26,1.26,0,0,0,1.17-1.34h0a3.43,3.43,0,0,0-.89-2.44,12.43,12.43,0,0,0-3.57-2.62L66.82,29.2,69,15.43l15.22,8.39-.38,5.4-9.62-5.31-.56,3.43,1.6.89A19.88,19.88,0,0,1,82.58,34.44Z" transform="translate(0 -0.27)"/>
        <path id="889427dc-db64-486c-bf96-5b88fa02679e" data-name="Path 897" class="23d2be22-c071-4241-8641-856114861e8a" d="M46.71,3.13,50.83.27,68.27,9.8,64,12.6Z" transform="translate(0 -0.27)"/>
        <path id="109f5ae6-f07a-4283-bf6f-9c9364fadff8" data-name="Path 898" class="23d2be22-c071-4241-8641-856114861e8a" d="M69.05,15.46l4.3-2.72L88.61,21,84.29,24Z" transform="translate(0 -0.27)"/>
        <path id="6e906a28-d5c8-44ee-99e1-b7233b45cb96" data-name="Path 899" class="630e33f8-2ee2-4ea2-b5b7-0af8f6bc8a26" d="M97.41,29.14s-2.7,7.17,1,7.93-4.14,3.49-4.14,3.49l-2.94-1.21L90,36.48l.41-5.76,1.7-.44Z" transform="translate(0 -0.27)"/>
        <path id="cfbb6b9f-e0bc-4ff6-b3cd-14a6a145bbca" data-name="Path 891" class="fe82b751-b292-484c-8c04-b82db2ddf005" d="M83.76,29.25l4.37-2.8L88.61,21,84.22,24Z" transform="translate(0 -0.27)"/>
        <path id="5808c59a-ab7f-4c56-8aab-27bf7ad7112f" data-name="Path 900" class="cce56006-df00-4781-b084-0869f49b0f41" d="M120.46,51.65a11.4,11.4,0,0,0-4.63-4.5,5.42,5.42,0,0,0-4.5-.67l0,0-.19.11-.16.07-.33.2-4,2.21,1.74,2.05.37-.22V51c-.16,2.27,2.86.95,4,2.89s.12,6.88,2.08,7.91c.22.12.44.22.65.32l-.91,1.7-.43,1.5,4.79-2.69a3.41,3.41,0,0,0,.81-.29q2-1,2.22-4.41A11,11,0,0,0,120.46,51.65Zm-6.92,4.84a6.59,6.59,0,0,1-.39-3l2,4.81-.08,0A3.38,3.38,0,0,1,113.54,56.49Z" transform="translate(0 -0.27)"/>
        <path id="a40a3dfd-25d1-4df0-892c-cc45497d33f3" data-name="Path 901" class="fe82b751-b292-484c-8c04-b82db2ddf005" d="M113.75,33.46,94.36,50.7l5.28,2.78L119,36.24Z" transform="translate(0 -0.27)"/>
        <path id="07d20eea-604e-4e9a-84bf-4e8bd632cef2" data-name="Path 902" class="a59cdc4f-9945-4979-9577-ce4f78a9a787" d="M97.56,39.78c.21.11.41.2.61.29l-.93,1.45L97,43.22l5.19-2.76.26-.12q2-1,2.21-4.41a10.92,10.92,0,0,0-1.45-6.32,11.42,11.42,0,0,0-4.63-4.51,6.68,6.68,0,0,0-3.46-.9,3.74,3.74,0,0,0-1,.24l0,0-5.38,2.9,2.89,1.09c0,.19,0,.38-.06.58-.16,2.28,2,.58,3.16,2.55S95.62,38.77,97.56,39.78Zm-1.24-5.35a6.85,6.85,0,0,1-.41-3.14l0-.25,2.19,5.28a1.73,1.73,0,0,1-.31-.14,3.36,3.36,0,0,1-1.49-1.73Z" transform="translate(0 -0.27)"/>
        <path id="eeb62076-b08e-4fb5-9216-f79918551ba2" data-name="Path 903" class="0e845d39-5eca-4852-9dbd-23d31a6d99c7" d="M114.34,51s-3.4,6.92.53,8.2S112.66,62,112.66,62l-3.54.25-2.44-4.7-.27-3.29Z" transform="translate(0 -0.27)"/>
        <path id="9db4b57d-f464-4561-9a9c-f9853af2fef5" data-name="Path 904" class="898a8261-429a-4602-801b-c7ff8d6d416f" d="M88,38a10.93,10.93,0,0,1-1.46-6.35,6.16,6.16,0,0,1,1.12-3.44,3.37,3.37,0,0,1,2.51-1.33,6.49,6.49,0,0,1,3.46.9,11.31,11.31,0,0,1,4.62,4.5,10.84,10.84,0,0,1,1.46,6.32Q99.47,42,97.5,43c-1.32.66-3,.48-4.91-.56A11.36,11.36,0,0,1,88,38Zm20.78-1.87,5.28,2.78L94.68,56.15,89.4,53.37ZM94.49,38.79a3.9,3.9,0,0,0,.78-2.53,6.76,6.76,0,0,0-.39-3.15,3.38,3.38,0,0,0-1.51-1.74,1.31,1.31,0,0,0-1.62.11A3.75,3.75,0,0,0,91,34a6.67,6.67,0,0,0,.4,3.13,3.39,3.39,0,0,0,1.5,1.75A1.32,1.32,0,0,0,94.49,38.79ZM105.22,60a10.9,10.9,0,0,1-1.43-6.34q.22-3.36,2.21-4.38t4.87.51a11.4,11.4,0,0,1,4.63,4.5A11,11,0,0,1,117,60.65q-.24,3.41-2.22,4.41c-1.31.66-2.95.48-4.9-.55A11.36,11.36,0,0,1,105.22,60Zm6.51.8a3.9,3.9,0,0,0,.78-2.53,6.89,6.89,0,0,0-.38-3.15,3.4,3.4,0,0,0-1.52-1.74,1.31,1.31,0,0,0-1.64.08,3.88,3.88,0,0,0-.78,2.52,6.87,6.87,0,0,0,.38,3.15,3.42,3.42,0,0,0,1.52,1.75,1.34,1.34,0,0,0,1.64-.08Z" transform="translate(0 -0.27)"/>
        <path id="8370c3d7-975d-4c7f-962d-b011b2c7163b" data-name="Path 905" class="23d2be22-c071-4241-8641-856114861e8a" d="M108.69,36l5-2.67L119,36.25l-5,2.67Z" transform="translate(0 -0.27)"/>
        <path id="45f08226-4d05-4dcc-ac0d-a62e7a1a3b1f" data-name="Path 906" class="08b2cf8a-7ce9-45c5-9a48-9ff271842686" d="M94.7,56.18l5-2.67,19.3-17L114,38.92Z" transform="translate(0 -0.27)"/>
      </g>
    </g>
  </g>
</svg>
