<svg xmlns="http://www.w3.org/2000/svg" xmlns:xlink="http://www.w3.org/1999/xlink" viewBox="0 0 2557.299 839.993" preserveAspectRatio="none">
  <defs>
    <style>
      .cls-1 {
        opacity: 0.5;
      }

      .cls-1, .cls-2, .cls-5 {
        fill: url(#linear-gradient);
      }

      .cls-2 {
        opacity: 0.3;
      }

      .cls-3 {
        fill: none;
        opacity: 0.9;
      }

      .cls-4 {
        fill: #7287cb;
      }
    </style>
    <linearGradient id="linear-gradient" x1="0.479" y1="1" x2="0.479" gradientUnits="objectBoundingBox">
      <stop offset="0" stop-color="#7287cb"/>
      <stop offset="1" stop-color="#42579e"/>
    </linearGradient>
  </defs>
  <g id="Фон" transform="translate(481.668 0)">
    <path id="Path_6" data-name="Path 6" class="cls-1" d="M9.951,336.865,599.617,639.09a18.309,18.309,0,0,0,16.65,0l593.419-302.244a18.309,18.309,0,0,0,0-32.6L618.209,2a18.309,18.309,0,0,0-16.65,0L9.969,304.282a18.309,18.309,0,0,0-.019,32.583Z" transform="translate(-221.658 117.902)"/>
    <path id="Path_83" data-name="Path 83" class="cls-2" d="M8.258,279.538,497.577,530.33a15.193,15.193,0,0,0,13.816,0l492.432-250.808a15.193,15.193,0,0,0,0-27.054L513,1.66a15.193,15.193,0,0,0-13.816,0L8.274,252.5a15.193,15.193,0,0,0-.016,27.038Z" transform="translate(866.287 238.002)"/>
    <path id="Path_7" data-name="Path 7" class="cls-2" d="M8.258,279.538,497.577,530.33a15.193,15.193,0,0,0,13.816,0l492.432-250.808a15.193,15.193,0,0,0,0-27.054L513,1.66a15.193,15.193,0,0,0-13.816,0L8.274,252.5a15.193,15.193,0,0,0-.016,27.038Z" transform="translate(353.287 252.002)"/>
    <path id="Path_4" data-name="Path 4" class="cls-3" d="M7.234,244.858,435.847,464.537a13.308,13.308,0,0,0,12.1,0l431.34-219.693a13.308,13.308,0,0,0,0-23.7L449.361,1.453a13.308,13.308,0,0,0-12.1,0L7.248,221.174a13.309,13.309,0,0,0-.014,23.684Z" transform="translate(1189.093 374.002)"/>
    <path id="Path_9" data-name="Path 9" class="cls-4" d="M7.234,244.858,435.847,464.537a13.308,13.308,0,0,0,12.1,0l431.34-219.693a13.308,13.308,0,0,0,0-23.7L449.361,1.453a13.308,13.308,0,0,0-12.1,0L7.248,221.174a13.309,13.309,0,0,0-.014,23.684Z" transform="translate(302.093 260.002)"/>
    <path id="Path_1" data-name="Path 1" class="cls-4" d="M7.234,244.858,435.847,464.537a13.308,13.308,0,0,0,12.1,0l431.34-219.693a13.308,13.308,0,0,0,0-23.7L449.361,1.453a13.308,13.308,0,0,0-12.1,0L7.248,221.174a13.309,13.309,0,0,0-.014,23.684Z" transform="translate(-442.907 238.002)"/>
    <path id="Path_3" data-name="Path 3" class="cls-3" d="M7.234,244.858,435.847,464.537a13.308,13.308,0,0,0,12.1,0l431.34-219.693a13.308,13.308,0,0,0,0-23.7L449.361,1.453a13.308,13.308,0,0,0-12.1,0L7.248,221.174a13.309,13.309,0,0,0-.014,23.684Z" transform="translate(-431.907 238.002)"/>
    <path id="Union_1" data-name="Union 1" class="cls-5" d="M-438.935,866.032-863.811,648.268l-216.11,110.764a17.932,17.932,0,0,1-16.31,0L-1945.193,313.2a17.935,17.935,0,0,1-9.769-15.968,17.935,17.935,0,0,1,9.769-15.968l392-193.264,79.9.485V88h1440v.15L468.669,338.029a17.935,17.935,0,0,1,0,31.936L-422.625,866.032a17.923,17.923,0,0,1-8.155,1.962A17.928,17.928,0,0,1-438.935,866.032Z" transform="translate(1473.293 -88)"/>
  </g>
</svg>
