<svg id="2db9c4a3-c3bd-4727-82fb-c94cd9ba8c4f" data-name="Слой 1" xmlns="http://www.w3.org/2000/svg" width="65.3" height="55.84" viewBox="0 0 65.3 55.84">
  <defs>
    <style>
      .\31 1532dc0-ac58-4ca3-bb86-29681f828339 {
        fill: #718bc5;
      }

      .\39 283e834-60cc-42e9-b7a2-8b0754f0523f {
        fill: #9dace2;
      }
    </style>
  </defs>
  <title>main-first__img-cloud-3</title>
  <g id="92329ae9-e4d8-421f-aed8-29e4224931b3" data-name=" 3">
    <g id="67efe38c-881b-4ee4-abe2-aeeebfe5cae0" data-name="Colors 2D-3">
      <path id="417d4bf0-3be4-402d-81f5-7a06588c7531" data-name="Path 858-3" class="11532dc0-ac58-4ca3-bb86-29681f828339" d="M55.79,28.66c0-.35,0-.7,0-1.06a29.45,29.45,0,0,0-15-25.15C37,.4,34.35-.06,32.32.45h0L32,.52,26.35,3.16v.11l1.75.49c-.37.55-.72,1.14-1.06,1.74A14.73,14.73,0,0,0,22.18,1,6,6,0,0,0,17.11.28h0L17,.33l-.26.13L13,2.31l.55.6,1.29.14a7,7,0,0,0-.21,1.71,9.33,9.33,0,0,0,.11,1.4c-2.71-1-5.12-.92-6.89.13h0L4.3,8,5.49,9.07A9.61,9.61,0,0,0,4.75,13c0,6.88,5.32,15.37,11.88,18.94L53.41,52c2.87,1.57.33,4.32,2.39,3.66,2.64-.84,9.5-3.94,9.5-9.63C65.29,40.05,61.21,32.78,55.79,28.66Z"/>
      <path id="927fe03a-fdb6-4ab3-bb86-fd0b068442f8" data-name="MobileMe-3" class="9283e834-60cc-42e9-b7a2-8b0754f0523f" d="M60.54,48.28c0,6.88-5.32,9.55-11.88,6L11.88,34.18C5.32,30.6,0,22.12,0,15.24,0,9,4.34,6.25,10,8.41A9.36,9.36,0,0,1,9.88,7c0-4.35,3.37-6,7.53-3.78a14.76,14.76,0,0,1,4.87,4.53C24.62,3.51,27.62.1,36,4.69A29.48,29.48,0,0,1,51,29.84a9.39,9.39,0,0,1,0,1.06C56.46,35,60.54,42.25,60.54,48.28Z"/>
    </g>
  </g>
</svg>
