<svg xmlns="http://www.w3.org/2000/svg" xmlns:xlink="http://www.w3.org/1999/xlink" viewBox="0 0 2905.241 1096.7"  preserveAspectRatio="none">
  <defs>
    <style>
      .cls-1 {
        fill: #ccd3e9;
      }

      .cls-2 {
        fill: #7287cb;
      }

      .cls-3 {
        fill: url(#linear-gradient);
      }

      .cls-4, .cls-5, .cls-6 {
        fill: url(#linear-gradient-2);
      }

      .cls-5 {
        opacity: 0.7;
      }

      .cls-6 {
        opacity: 0.4;
      }
    </style>
    <linearGradient id="linear-gradient" x1="0.5" x2="0.5" y2="1" gradientUnits="objectBoundingBox">
      <stop offset="0" stop-color="#576cb1"/>
      <stop offset="1" stop-color="#42579e"/>
    </linearGradient>
    <linearGradient id="linear-gradient-2" x1="0.5" x2="0.5" y2="1" gradientUnits="objectBoundingBox">
      <stop offset="0" stop-color="#6075ba"/>
      <stop offset="1" stop-color="#42579e" stop-opacity="0.82"/>
    </linearGradient>
  </defs>
  <g id="Общий_фон" data-name="Общий фон" transform="translate(716 -687)">
    <path id="Path_649" data-name="Path 649" class="cls-1" d="M11.195,379.01,674.634,719.046a20.6,20.6,0,0,0,18.733,0l667.661-340.057a20.6,20.6,0,0,0,0-36.681L695.552,2.251a20.6,20.6,0,0,0-18.733,0l-665.6,340.1a20.6,20.6,0,0,0-.021,36.66Z" transform="translate(266.994 726.002)"/>
    <path id="Path_651" data-name="Path 651" class="cls-1" d="M11.195,379.01,674.634,719.046a20.6,20.6,0,0,0,18.733,0l667.661-340.057a20.6,20.6,0,0,0,0-36.681L695.552,2.251a20.6,20.6,0,0,0-18.733,0l-665.6,340.1a20.6,20.6,0,0,0-.021,36.66Z" transform="translate(-110.006 782.002)"/>
    <path id="Path_648" data-name="Path 648" class="cls-1" d="M11.195,379.01,674.634,719.046a20.6,20.6,0,0,0,18.733,0l667.661-340.057a20.6,20.6,0,0,0,0-36.681L695.552,2.251a20.6,20.6,0,0,0-18.733,0l-665.6,340.1a20.6,20.6,0,0,0-.021,36.66Z" transform="translate(816.994 726.002)"/>
    <path id="Path_650" data-name="Path 650" class="cls-1" d="M11.195,379.01,674.634,719.046a20.6,20.6,0,0,0,18.733,0l667.661-340.057a20.6,20.6,0,0,0,0-36.681L695.552,2.251a20.6,20.6,0,0,0-18.733,0l-665.6,340.1a20.6,20.6,0,0,0-.021,36.66Z" transform="translate(-716.006 687.002)"/>
    <path id="Path_206" data-name="Path 206" class="cls-2" d="M11.195,379.01,674.634,719.046a20.6,20.6,0,0,0,18.733,0l667.661-340.057a20.6,20.6,0,0,0,0-36.681L695.552,2.251a20.6,20.6,0,0,0-18.733,0l-665.6,340.1a20.6,20.6,0,0,0-.021,36.66Z" transform="translate(655.994 807.002)"/>
    <path id="Path_204" data-name="Path 204" class="cls-3" d="M15.547,526.453l921.53,472.316a28.613,28.613,0,0,0,26.02,0l927.394-472.346a28.613,28.613,0,0,0,0-50.951L966.133,3.127a28.613,28.613,0,0,0-26.02,0L15.577,475.532a28.614,28.614,0,0,0-.029,50.921Z" transform="translate(-0.274 781.802)"/>
    <path id="Path_195" data-name="Path 195" class="cls-2" d="M9.747,329.981,587.365,626.031a17.935,17.935,0,0,0,16.31,0l581.293-296.068a17.935,17.935,0,0,0,0-31.936L605.577,1.959a17.935,17.935,0,0,0-16.31,0l-579.5,296.1a17.935,17.935,0,0,0-.018,31.917Z" transform="translate(-566.006 804.002)"/>
    <path id="Path_212" data-name="Path 212" class="cls-4" d="M11.976,405.467l709.75,363.772a22.037,22.037,0,0,0,20.041,0l714.266-363.794a22.038,22.038,0,0,0,0-39.241L744.1,2.408a22.038,22.038,0,0,0-20.04,0L12,366.248a22.038,22.038,0,0,0-.023,39.219Z" transform="translate(-319.006 782.002)"/>
    <path id="Path_646" data-name="Path 646" class="cls-5" d="M4.575,154.766,275.488,293.619a8.412,8.412,0,0,0,7.65,0L555.774,154.758a8.412,8.412,0,0,0,0-14.979L284.03.918a8.412,8.412,0,0,0-7.649,0L4.584,139.8a8.412,8.412,0,0,0-.009,14.97Z" transform="translate(-198.006 1047.936)"/>
    <path id="Path_647" data-name="Path 647" class="cls-6" d="M8.1,274.173l479.927,245.98a14.9,14.9,0,0,0,13.551,0L984.559,274.157a14.9,14.9,0,0,0,0-26.535L503.159,1.628a14.9,14.9,0,0,0-13.551,0L8.115,247.653A14.9,14.9,0,0,0,8.1,274.173Z" transform="translate(797.674 1052.936)"/>
  </g>
</svg>
