<svg xmlns="http://www.w3.org/2000/svg" xmlns:xlink="http://www.w3.org/1999/xlink" viewBox="0 0 420.746 364.315">
  <defs>
    <style>
      .cls-1 {
        fill: url(#linear-gradient);
      }

      .cls-2 {
        fill: #45457f;
      }

      .cls-3 {
        fill: url(#linear-gradient-2);
      }

      .cls-4 {
        fill: url(#linear-gradient-3);
      }

      .cls-5 {
        fill: url(#linear-gradient-4);
      }

      .cls-6 {
        fill: #f4f9fd;
      }

      .cls-7 {
        fill: #a7b8d5;
        opacity: 0.5;
      }

      .cls-8 {
        fill: url(#linear-gradient-5);
      }

      .cls-9 {
        fill: #5b6595;
      }

      .cls-10 {
        fill: #7f90b8;
      }

      .cls-11 {
        fill: url(#linear-gradient-7);
      }

      .cls-12 {
        fill: url(#linear-gradient-12);
      }

      .cls-13 {
        fill: url(#linear-gradient-17);
      }

      .cls-14 {
        fill: url(#linear-gradient-21);
      }

      .cls-15 {
        fill: #dae2f2;
      }

      .cls-16 {
        fill: #76c695;
      }

      .cls-17 {
        fill: #63b783;
      }

      .cls-18 {
        fill: #fff;
      }

      .cls-19 {
        fill: #9ddbb5;
      }

      .cls-20 {
        fill: url(#linear-gradient-22);
      }

      .cls-21 {
        fill: #77d2a5;
      }

      .cls-22 {
        fill: #6dc494;
      }

      .cls-23 {
        fill: #6ac08e;
      }

      .cls-24 {
        fill: url(#linear-gradient-24);
      }

      .cls-25 {
        fill: #a1dec0;
      }

      .cls-26 {
        fill: url(#linear-gradient-28);
      }

      .cls-27 {
        fill: #73cc9e;
      }

      .cls-28 {
        fill: #68ccea;
      }

      .cls-29 {
        fill: #5abce2;
      }

      .cls-30 {
        fill: #40b0d3;
      }

      .cls-31 {
        fill: url(#linear-gradient-29);
      }

      .cls-32 {
        fill: url(#linear-gradient-30);
      }

      .cls-33 {
        fill: url(#linear-gradient-31);
      }

      .cls-34 {
        fill: url(#linear-gradient-32);
      }

      .cls-35 {
        fill: #85cfec;
      }

      .cls-36 {
        fill: #60bdd9;
      }

      .cls-37 {
        fill: url(#linear-gradient-33);
      }

      .cls-38 {
        fill: #38a1c2;
      }
    </style>
    <linearGradient id="linear-gradient" x1="0.558" y1="1" x2="0.475" y2="1" gradientUnits="objectBoundingBox">
      <stop offset="0" stop-color="#9cb1ce"/>
      <stop offset="1" stop-color="#dee3f3"/>
    </linearGradient>
    <linearGradient id="linear-gradient-2" x1="0.463" y1="1" x2="0.588" y2="1" gradientUnits="objectBoundingBox">
      <stop offset="0" stop-color="#dee3f3"/>
      <stop offset="0.574" stop-color="#9cb1ce"/>
      <stop offset="1" stop-color="#9cb1ce"/>
    </linearGradient>
    <linearGradient id="linear-gradient-3" x1="0.572" y1="0.531" x2="0.483" y2="0.523" xlink:href="#linear-gradient"/>
    <linearGradient id="linear-gradient-4" x1="-0.196" y1="0.5" x2="1" y2="0.5" gradientUnits="objectBoundingBox">
      <stop offset="0" stop-color="#f1f3f9"/>
      <stop offset="1" stop-color="#dee3f3"/>
    </linearGradient>
    <linearGradient id="linear-gradient-5" x1="0.9" y1="0.575" x2="0.109" y2="0.5" gradientUnits="objectBoundingBox">
      <stop offset="0" stop-color="#cdd3e8"/>
      <stop offset="1" stop-color="#8b9abc"/>
    </linearGradient>
    <linearGradient id="linear-gradient-7" x1="0.477" y1="1" x2="0.588" y2="1" gradientUnits="objectBoundingBox">
      <stop offset="0" stop-color="#dee3f3"/>
      <stop offset="0.71" stop-color="#9cb1ce"/>
      <stop offset="1" stop-color="#9cb1ce"/>
    </linearGradient>
    <linearGradient id="linear-gradient-12" x1="0.477" y1="1" x2="0.549" y2="1" gradientUnits="objectBoundingBox">
      <stop offset="0" stop-color="#dee3f3"/>
      <stop offset="1" stop-color="#9cb1ce"/>
    </linearGradient>
    <linearGradient id="linear-gradient-17" x1="0.477" y1="1" x2="0.588" y2="1" gradientUnits="objectBoundingBox">
      <stop offset="0" stop-color="#dee3f3"/>
      <stop offset="0.61" stop-color="#9cb1ce"/>
      <stop offset="1" stop-color="#9cb1ce"/>
    </linearGradient>
    <linearGradient id="linear-gradient-21" x1="-0.088" y1="0.092" x2="1.088" y2="0.896" gradientUnits="objectBoundingBox">
      <stop offset="0" stop-color="#f6f2ff"/>
      <stop offset="0.31" stop-color="#dcdbff"/>
      <stop offset="0.5" stop-color="#d2d4f6"/>
      <stop offset="0.82" stop-color="#b7c2dc"/>
      <stop offset="1" stop-color="#a6b6cc"/>
    </linearGradient>
    <linearGradient id="linear-gradient-22" x1="0.5" x2="0.5" y2="1" gradientUnits="objectBoundingBox">
      <stop offset="0" stop-color="#77d2a5"/>
      <stop offset="1" stop-color="#63b783"/>
    </linearGradient>
    <linearGradient id="linear-gradient-24" x1="0.825" y1="1" x2="0.293" y2="0.336" xlink:href="#linear-gradient-22"/>
    <linearGradient id="linear-gradient-28" y1="0.722" x2="0.193" y2="0" xlink:href="#linear-gradient-22"/>
    <linearGradient id="linear-gradient-29" x1="0.274" y1="0.296" x2="0.841" y2="1" gradientUnits="objectBoundingBox">
      <stop offset="0" stop-color="#60bdd9"/>
      <stop offset="1" stop-color="#38a1c2"/>
    </linearGradient>
    <linearGradient id="linear-gradient-30" x1="0.5" x2="0.5" y2="1" gradientUnits="objectBoundingBox">
      <stop offset="0" stop-color="#60bdd9"/>
      <stop offset="1" stop-color="#329cbe"/>
    </linearGradient>
    <linearGradient id="linear-gradient-31" x1="0.262" y1="0.327" x2="0.872" y2="1" xlink:href="#linear-gradient-29"/>
    <linearGradient id="linear-gradient-32" x1="0.5" x2="0.5" y2="1" gradientUnits="objectBoundingBox">
      <stop offset="0" stop-color="#60bdd9"/>
      <stop offset="1" stop-color="#3394b2"/>
    </linearGradient>
    <linearGradient id="linear-gradient-33" x1="0.5" y1="0" x2="0.5" y2="1" xlink:href="#linear-gradient-29"/>
  </defs>
  <g id="Иллюстрация" transform="translate(-181.035 -3773.975)">
    <g id="_1" data-name="1" transform="translate(316.739 3826.151)">
      <g id="Group_3" data-name="Group 3" transform="translate(0 0)">
        <path id="Path_66" data-name="Path 66" class="cls-1" d="M335.707,442.5,297.145,462.02,270,475.761a13.766,13.766,0,0,1-12.414,0L191.479,442.5a4.292,4.292,0,0,1-2.4-3.82c0-1.524-.075-16.663-.075-16.663l68-23.337a14.067,14.067,0,0,1,13.584,0l67.6,23.326v16.62A4.292,4.292,0,0,1,335.707,442.5Z" transform="translate(-189 -330.89)"/>
        <path id="Path_67" data-name="Path 67" class="cls-2" d="M335.7,427.1l-65.709,33.262a13.766,13.766,0,0,1-12.414,0L191.473,427.1a4.367,4.367,0,0,1-.139-7.725L257,383.279a14.067,14.067,0,0,1,13.584,0l65.258,36.084a4.367,4.367,0,0,1-.139,7.736Z" transform="translate(-188.995 -332.014)"/>
        <path id="Path_68" data-name="Path 68" class="cls-3" d="M335.707,419.4,270,452.661a13.766,13.766,0,0,1-12.414,0L191.479,419.4a4.292,4.292,0,0,1-2.4-3.82c0-1.524-.075-16.663-.075-16.663l68-23.337a14.067,14.067,0,0,1,13.584,0l67.6,23.326v16.62A4.292,4.292,0,0,1,335.707,419.4Z" transform="translate(-189 -332.576)"/>
        <path id="Path_69" data-name="Path 69" class="cls-2" d="M335.7,404l-65.709,33.262a13.766,13.766,0,0,1-12.414,0L191.473,404a4.367,4.367,0,0,1-.139-7.725L257,360.179a14.067,14.067,0,0,1,13.584,0l65.258,36.084A4.367,4.367,0,0,1,335.7,404Z" transform="translate(-188.995 -333.7)"/>
        <path id="Path_70" data-name="Path 70" class="cls-4" d="M335.707,396.309,270,429.571a13.766,13.766,0,0,1-12.414,0l-66.106-33.262a4.292,4.292,0,0,1-2.4-3.82c0-1.524-.075-16.663-.075-16.663l68-23.337a14.067,14.067,0,0,1,13.584,0l67.6,23.326v16.62a4.292,4.292,0,0,1-2.479,3.873Z" transform="translate(-189 -334.261)"/>
        <path id="Path_71" data-name="Path 71" class="cls-5" d="M335.7,380.906l-65.709,33.262a13.766,13.766,0,0,1-12.414,0l-66.106-33.262a4.367,4.367,0,0,1-.139-7.725L257,337.118a14.067,14.067,0,0,1,13.541,0L335.8,373.2a4.367,4.367,0,0,1-.1,7.7Z" transform="translate(-188.995 -335.382)"/>
      </g>
      <g id="Group_2" data-name="Group 2" transform="translate(89.196 65.909)">
        <path id="Path_72" data-name="Path 72" class="cls-6" d="M279.855,409.156a7.511,7.511,0,0,1-3.863,5.9c-2.146,1.127-3.863.311-3.863-1.824a7.511,7.511,0,0,1,3.863-5.9C278.117,406.259,279.855,407.075,279.855,409.156Z" transform="translate(-272.13 -396.075)"/>
        <path id="Path_73" data-name="Path 73" class="cls-6" d="M289.935,404.159a7.511,7.511,0,0,1-3.863,5.9c-2.146,1.127-3.863.311-3.863-1.824a7.511,7.511,0,0,1,3.863-5.9C288.208,401.208,289.935,402.013,289.935,404.159Z" transform="translate(-271.394 -396.442)"/>
        <path id="Path_74" data-name="Path 74" class="cls-6" d="M300.025,399.16a7.511,7.511,0,0,1-3.863,5.9c-2.146,1.127-3.863.311-3.863-1.824a7.511,7.511,0,0,1,3.863-5.9C298.287,396.166,300.025,397.014,300.025,399.16Z" transform="translate(-270.658 -396.808)"/>
        <path id="Path_75" data-name="Path 75" class="cls-6" d="M279.855,432.3a7.511,7.511,0,0,1-3.863,5.9c-2.146,1.127-3.863.311-3.863-1.824a7.511,7.511,0,0,1,3.863-5.9C278.117,429.348,279.855,430.163,279.855,432.3Z" transform="translate(-272.13 -394.389)"/>
        <path id="Path_76" data-name="Path 76" class="cls-6" d="M289.935,427.258a7.511,7.511,0,0,1-3.863,5.9c-2.146,1.127-3.863.311-3.863-1.824a7.511,7.511,0,0,1,3.863-5.9C288.208,424.308,289.935,425.123,289.935,427.258Z" transform="translate(-271.394 -394.756)"/>
        <path id="Path_77" data-name="Path 77" class="cls-6" d="M279.855,455.4a7.511,7.511,0,0,1-3.863,5.9c-2.146,1.127-3.863.311-3.863-1.824a7.511,7.511,0,0,1,3.863-5.9C278.117,452.448,279.855,453.263,279.855,455.4Z" transform="translate(-272.13 -392.703)"/>
        <path id="Path_78" data-name="Path 78" class="cls-6" d="M300.025,445.309a7.511,7.511,0,0,1-3.863,5.9c-2.146,1.127-3.863.311-3.863-1.824a7.511,7.511,0,0,1,3.863-5.9C298.287,442.358,300.025,443.173,300.025,445.309Z" transform="translate(-270.658 -393.439)"/>
      </g>
      <g id="Group_1" data-name="Group 1" transform="translate(41.514 16.161)">
        <path id="Path_96" data-name="Path 96" class="cls-7" d="M100.927,35.7c0,5.336-2.549,10.253-6.819,14.162-5.916,5.412-15.142,8.883-25.509,8.883-12.193,0-22.827-4.813-28.315-11.917A18.071,18.071,0,0,1,36.27,35.7c0-12.726,14.476-23.045,32.338-23.045S100.927,22.97,100.927,35.7Z" transform="translate(-36.251 -12.65)"/>
        <path id="Path_97" data-name="Path 97" class="cls-8" d="M68.35,18.357c16.863,0,30.94,7.7,32.433,19.441a16.666,16.666,0,0,0,.143-2.1c0-12.726-14.476-23.045-32.338-23.045S36.25,22.97,36.25,35.7a16.661,16.661,0,0,0,.143,2.1C37.914,26.051,51.487,18.357,68.35,18.357Z" transform="translate(-36.25 -12.65)"/>
        <path id="Path_98" data-name="Path 98" class="cls-9" d="M96.1,39.416l-19.5-4.08a3.358,3.358,0,0,0-.333-1.094c.827-.181,1.674-.38,2.53-.59,7.761-1.9,12.231-4.052,13.316-6.353.7-1.531,0-3.053-2.226-4.518a54.218,54.218,0,0,0-5.707-2.958,1.9,1.9,0,0,0-1.9.209L70.243,30.97H68.636c-.057-4.023-.818-9.15-4.042-11.48a7.609,7.609,0,0,0-4.546-1.36h0a12.85,12.85,0,0,0-3.909.666,52.438,52.438,0,0,0-5.469,2.33l-.6.295a.818.818,0,0,0-.533.751.723.723,0,0,0,.266.485L62.492,33.928a3.738,3.738,0,0,0-.342.694,70.677,70.677,0,0,0-13.6-1.76c-3.367,0-5.811.552-7.267,1.655A3.624,3.624,0,0,0,39.9,38.484a25.318,25.318,0,0,0,1.9,4.575,1.455,1.455,0,0,0,1.284.6,2.007,2.007,0,0,0,.428,0l20.649-4.442a7.478,7.478,0,0,0,.723.409c-.713.637-1.465,1.332-2.188,2.064-4.556,4.527-6.249,7.97-5.031,10.234.808,1.512,2.787,2.454,5.868,2.8,1.6.181,4.109.219,5.944.219H70.8c.742,0,1.332-.409,1.332-.894l-.1-13.82a9.224,9.224,0,0,0,1.16-.39c.6.533,1.246,1.084,1.9,1.645,5.136,4.2,9.6,6.334,13.268,6.334a7.514,7.514,0,0,0,6.03-2.777,27.5,27.5,0,0,0,2.549-4.451c.219-.466-.181-.951-.885-1.1ZM69.292,38.179" transform="translate(-36.421 -12.918)"/>
        <path id="Path_99" data-name="Path 99" class="cls-10" d="M5.339.5c2.673,0,4.839,1.311,4.839,2.929S8.012,6.359,5.339,6.359.5,5.047.5,3.429,2.667.5,5.339.5Z" transform="translate(27.683 19.319)"/>
      </g>
    </g>
    <g id="_2" data-name="2" transform="translate(452.595 3909.046)">
      <g id="Group_3-2" data-name="Group 3" transform="translate(0 0)">
        <path id="Path_66-2" data-name="Path 66" class="cls-1" d="M335.707,442.5,270,475.761a13.766,13.766,0,0,1-12.414,0L191.479,442.5a4.292,4.292,0,0,1-2.4-3.82c0-1.524-.075-16.663-.075-16.663l68-23.337a14.067,14.067,0,0,1,13.584,0l67.6,23.326v16.62A4.292,4.292,0,0,1,335.707,442.5Z" transform="translate(-189 -330.89)"/>
        <path id="Path_67-2" data-name="Path 67" class="cls-2" d="M335.7,427.1l-65.709,33.262a13.766,13.766,0,0,1-12.414,0L191.473,427.1a4.367,4.367,0,0,1-.139-7.725L257,383.279a14.067,14.067,0,0,1,13.584,0l65.258,36.084a4.367,4.367,0,0,1-.139,7.736Z" transform="translate(-188.995 -332.014)"/>
        <path id="Path_68-2" data-name="Path 68" class="cls-11" d="M335.707,419.4,270,452.661a13.766,13.766,0,0,1-12.414,0L191.479,419.4a4.292,4.292,0,0,1-2.4-3.82c0-1.524-.075-16.663-.075-16.663l68-23.337a14.067,14.067,0,0,1,13.584,0l67.6,23.326v16.62A4.292,4.292,0,0,1,335.707,419.4Z" transform="translate(-189 -332.576)"/>
        <path id="Path_69-2" data-name="Path 69" class="cls-2" d="M335.7,404l-65.709,33.262a13.766,13.766,0,0,1-12.414,0L191.473,404a4.367,4.367,0,0,1-.139-7.725L257,360.179a14.067,14.067,0,0,1,13.584,0l65.258,36.084A4.367,4.367,0,0,1,335.7,404Z" transform="translate(-188.995 -333.7)"/>
        <path id="Path_70-2" data-name="Path 70" class="cls-4" d="M335.707,396.309,270,429.571a13.766,13.766,0,0,1-12.414,0l-66.106-33.262a4.292,4.292,0,0,1-2.4-3.82c0-1.524-.075-16.663-.075-16.663l68-23.337a14.067,14.067,0,0,1,13.584,0l67.6,23.326v16.62a4.292,4.292,0,0,1-2.479,3.873Z" transform="translate(-189 -334.261)"/>
        <path id="Path_71-2" data-name="Path 71" class="cls-5" d="M335.7,380.906l-65.709,33.262a13.766,13.766,0,0,1-12.414,0l-66.106-33.262a4.367,4.367,0,0,1-.139-7.725L257,337.118a14.067,14.067,0,0,1,13.541,0L335.8,373.2a4.367,4.367,0,0,1-.1,7.7Z" transform="translate(-188.995 -335.382)"/>
      </g>
      <g id="Group_2-2" data-name="Group 2" transform="translate(89.196 65.909)">
        <path id="Path_72-2" data-name="Path 72" class="cls-6" d="M279.855,409.156a7.511,7.511,0,0,1-3.863,5.9c-2.146,1.127-3.863.311-3.863-1.824a7.511,7.511,0,0,1,3.863-5.9C278.117,406.259,279.855,407.075,279.855,409.156Z" transform="translate(-272.13 -396.075)"/>
        <path id="Path_73-2" data-name="Path 73" class="cls-6" d="M289.935,404.159a7.511,7.511,0,0,1-3.863,5.9c-2.146,1.127-3.863.311-3.863-1.824a7.511,7.511,0,0,1,3.863-5.9C288.208,401.208,289.935,402.013,289.935,404.159Z" transform="translate(-271.394 -396.442)"/>
        <path id="Path_74-2" data-name="Path 74" class="cls-6" d="M300.025,399.16a7.511,7.511,0,0,1-3.863,5.9c-2.146,1.127-3.863.311-3.863-1.824a7.511,7.511,0,0,1,3.863-5.9C298.287,396.166,300.025,397.014,300.025,399.16Z" transform="translate(-270.658 -396.808)"/>
        <path id="Path_75-2" data-name="Path 75" class="cls-6" d="M279.855,432.3a7.511,7.511,0,0,1-3.863,5.9c-2.146,1.127-3.863.311-3.863-1.824a7.511,7.511,0,0,1,3.863-5.9C278.117,429.348,279.855,430.163,279.855,432.3Z" transform="translate(-272.13 -394.389)"/>
        <path id="Path_76-2" data-name="Path 76" class="cls-6" d="M289.935,427.258a7.511,7.511,0,0,1-3.863,5.9c-2.146,1.127-3.863.311-3.863-1.824a7.511,7.511,0,0,1,3.863-5.9C288.208,424.308,289.935,425.123,289.935,427.258Z" transform="translate(-271.394 -394.756)"/>
        <path id="Path_77-2" data-name="Path 77" class="cls-6" d="M279.855,455.4a7.511,7.511,0,0,1-3.863,5.9c-2.146,1.127-3.863.311-3.863-1.824a7.511,7.511,0,0,1,3.863-5.9C278.117,452.448,279.855,453.263,279.855,455.4Z" transform="translate(-272.13 -392.703)"/>
        <path id="Path_78-2" data-name="Path 78" class="cls-6" d="M300.025,445.309a7.511,7.511,0,0,1-3.863,5.9c-2.146,1.127-3.863.311-3.863-1.824a7.511,7.511,0,0,1,3.863-5.9C298.287,442.358,300.025,443.173,300.025,445.309Z" transform="translate(-270.658 -393.439)"/>
      </g>
      <g id="Group_1-2" data-name="Group 1" transform="translate(41.514 16.161)">
        <path id="Path_96-2" data-name="Path 96" class="cls-7" d="M100.927,35.7c0,5.336-2.549,10.253-6.819,14.162-5.916,5.412-15.142,8.883-25.509,8.883-12.193,0-22.827-4.813-28.315-11.917A18.071,18.071,0,0,1,36.27,35.7c0-12.726,14.476-23.045,32.338-23.045S100.927,22.97,100.927,35.7Z" transform="translate(-36.251 -12.65)"/>
        <path id="Path_97-2" data-name="Path 97" class="cls-8" d="M68.35,18.357c16.863,0,30.94,7.7,32.433,19.441a16.666,16.666,0,0,0,.143-2.1c0-12.726-14.476-23.045-32.338-23.045S36.25,22.97,36.25,35.7a16.661,16.661,0,0,0,.143,2.1C37.914,26.051,51.487,18.357,68.35,18.357Z" transform="translate(-36.25 -12.65)"/>
        <path id="Path_98-2" data-name="Path 98" class="cls-9" d="M96.1,39.416l-19.5-4.08a3.358,3.358,0,0,0-.333-1.094c.827-.181,1.674-.38,2.53-.59,7.761-1.9,12.231-4.052,13.316-6.353.7-1.531,0-3.053-2.226-4.518a54.218,54.218,0,0,0-5.707-2.958,1.9,1.9,0,0,0-1.9.209L70.243,30.97H68.636c-.057-4.023-.818-9.15-4.042-11.48a7.609,7.609,0,0,0-4.546-1.36h0a12.85,12.85,0,0,0-3.909.666,52.438,52.438,0,0,0-5.469,2.33l-.6.295a.818.818,0,0,0-.533.751.723.723,0,0,0,.266.485L62.492,33.928a3.738,3.738,0,0,0-.342.694,70.677,70.677,0,0,0-13.6-1.76c-3.367,0-5.811.552-7.267,1.655A3.624,3.624,0,0,0,39.9,38.484a25.318,25.318,0,0,0,1.9,4.575,1.455,1.455,0,0,0,1.284.6,2.007,2.007,0,0,0,.428,0l20.649-4.442a7.478,7.478,0,0,0,.723.409c-.713.637-1.465,1.332-2.188,2.064-4.556,4.527-6.249,7.97-5.031,10.234.808,1.512,2.787,2.454,5.868,2.8,1.6.181,4.109.219,5.944.219H70.8c.742,0,1.332-.409,1.332-.894l-.1-13.82a9.224,9.224,0,0,0,1.16-.39c.6.533,1.246,1.084,1.9,1.645,5.136,4.2,9.6,6.334,13.268,6.334a7.514,7.514,0,0,0,6.03-2.777,27.5,27.5,0,0,0,2.549-4.451c.219-.466-.181-.951-.885-1.1ZM69.292,38.179" transform="translate(-36.421 -12.918)"/>
        <path id="Path_99-2" data-name="Path 99" class="cls-10" d="M5.339.5c2.673,0,4.839,1.311,4.839,2.929S8.012,6.359,5.339,6.359.5,5.047.5,3.429,2.667.5,5.339.5Z" transform="translate(27.683 19.319)"/>
      </g>
    </g>
    <g id="_3" data-name="3" transform="translate(181.035 3909.046)">
      <g id="Group_3-3" data-name="Group 3" transform="translate(0 0)">
        <path id="Path_66-3" data-name="Path 66" class="cls-1" d="M335.707,442.5,270,475.761a13.766,13.766,0,0,1-12.414,0L191.479,442.5a4.292,4.292,0,0,1-2.4-3.82c0-1.524-.075-16.663-.075-16.663l68-23.337a14.067,14.067,0,0,1,13.584,0l67.6,23.326v16.62A4.292,4.292,0,0,1,335.707,442.5Z" transform="translate(-189 -330.89)"/>
        <path id="Path_67-3" data-name="Path 67" class="cls-2" d="M335.7,427.1l-65.709,33.262a13.766,13.766,0,0,1-12.414,0L191.473,427.1a4.367,4.367,0,0,1-.139-7.725L257,383.279a14.067,14.067,0,0,1,13.584,0l65.258,36.084a4.367,4.367,0,0,1-.139,7.736Z" transform="translate(-188.995 -332.014)"/>
        <path id="Path_68-3" data-name="Path 68" class="cls-12" d="M335.707,419.4,270,452.661a13.766,13.766,0,0,1-12.414,0L191.479,419.4a4.292,4.292,0,0,1-2.4-3.82c0-1.524-.075-16.663-.075-16.663l68-23.337a14.067,14.067,0,0,1,13.584,0l67.6,23.326v16.62A4.292,4.292,0,0,1,335.707,419.4Z" transform="translate(-189 -332.576)"/>
        <path id="Path_69-3" data-name="Path 69" class="cls-2" d="M335.7,404l-65.709,33.262a13.766,13.766,0,0,1-12.414,0L191.473,404a4.367,4.367,0,0,1-.139-7.725L257,360.179a14.067,14.067,0,0,1,13.584,0l65.258,36.084A4.367,4.367,0,0,1,335.7,404Z" transform="translate(-188.995 -333.7)"/>
        <path id="Path_70-3" data-name="Path 70" class="cls-4" d="M335.707,396.309,270,429.571a13.766,13.766,0,0,1-12.414,0l-66.106-33.262a4.292,4.292,0,0,1-2.4-3.82c0-1.524-.075-16.663-.075-16.663l68-23.337a14.067,14.067,0,0,1,13.584,0l67.6,23.326v16.62a4.292,4.292,0,0,1-2.479,3.873Z" transform="translate(-189 -334.261)"/>
        <path id="Path_71-3" data-name="Path 71" class="cls-5" d="M335.7,380.906l-65.709,33.262a13.766,13.766,0,0,1-12.414,0l-66.106-33.262a4.367,4.367,0,0,1-.139-7.725L257,337.118a14.067,14.067,0,0,1,13.541,0L335.8,373.2a4.367,4.367,0,0,1-.1,7.7Z" transform="translate(-188.995 -335.382)"/>
      </g>
      <g id="Group_2-3" data-name="Group 2" transform="translate(89.196 65.909)">
        <path id="Path_72-3" data-name="Path 72" class="cls-6" d="M279.855,409.156a7.511,7.511,0,0,1-3.863,5.9c-2.146,1.127-3.863.311-3.863-1.824a7.511,7.511,0,0,1,3.863-5.9C278.117,406.259,279.855,407.075,279.855,409.156Z" transform="translate(-272.13 -396.075)"/>
        <path id="Path_73-3" data-name="Path 73" class="cls-6" d="M289.935,404.159a7.511,7.511,0,0,1-3.863,5.9c-2.146,1.127-3.863.311-3.863-1.824a7.511,7.511,0,0,1,3.863-5.9C288.208,401.208,289.935,402.013,289.935,404.159Z" transform="translate(-271.394 -396.442)"/>
        <path id="Path_74-3" data-name="Path 74" class="cls-6" d="M300.025,399.16a7.511,7.511,0,0,1-3.863,5.9c-2.146,1.127-3.863.311-3.863-1.824a7.511,7.511,0,0,1,3.863-5.9C298.287,396.166,300.025,397.014,300.025,399.16Z" transform="translate(-270.658 -396.808)"/>
        <path id="Path_75-3" data-name="Path 75" class="cls-6" d="M279.855,432.3a7.511,7.511,0,0,1-3.863,5.9c-2.146,1.127-3.863.311-3.863-1.824a7.511,7.511,0,0,1,3.863-5.9C278.117,429.348,279.855,430.163,279.855,432.3Z" transform="translate(-272.13 -394.389)"/>
        <path id="Path_76-3" data-name="Path 76" class="cls-6" d="M289.935,427.258a7.511,7.511,0,0,1-3.863,5.9c-2.146,1.127-3.863.311-3.863-1.824a7.511,7.511,0,0,1,3.863-5.9C288.208,424.308,289.935,425.123,289.935,427.258Z" transform="translate(-271.394 -394.756)"/>
        <path id="Path_77-3" data-name="Path 77" class="cls-6" d="M279.855,455.4a7.511,7.511,0,0,1-3.863,5.9c-2.146,1.127-3.863.311-3.863-1.824a7.511,7.511,0,0,1,3.863-5.9C278.117,452.448,279.855,453.263,279.855,455.4Z" transform="translate(-272.13 -392.703)"/>
        <path id="Path_78-3" data-name="Path 78" class="cls-6" d="M300.025,445.309a7.511,7.511,0,0,1-3.863,5.9c-2.146,1.127-3.863.311-3.863-1.824a7.511,7.511,0,0,1,3.863-5.9C298.287,442.358,300.025,443.173,300.025,445.309Z" transform="translate(-270.658 -393.439)"/>
      </g>
      <g id="Group_1-3" data-name="Group 1" transform="translate(41.514 16.161)">
        <path id="Path_96-3" data-name="Path 96" class="cls-7" d="M100.927,35.7c0,5.336-2.549,10.253-6.819,14.162-5.916,5.412-15.142,8.883-25.509,8.883-12.193,0-22.827-4.813-28.315-11.917A18.071,18.071,0,0,1,36.27,35.7c0-12.726,14.476-23.045,32.338-23.045S100.927,22.97,100.927,35.7Z" transform="translate(-36.251 -12.65)"/>
        <path id="Path_97-3" data-name="Path 97" class="cls-8" d="M68.35,18.357c16.863,0,30.94,7.7,32.433,19.441a16.666,16.666,0,0,0,.143-2.1c0-12.726-14.476-23.045-32.338-23.045S36.25,22.97,36.25,35.7a16.661,16.661,0,0,0,.143,2.1C37.914,26.051,51.487,18.357,68.35,18.357Z" transform="translate(-36.25 -12.65)"/>
        <path id="Path_98-3" data-name="Path 98" class="cls-9" d="M96.1,39.416l-19.5-4.08a3.358,3.358,0,0,0-.333-1.094c.827-.181,1.674-.38,2.53-.59,7.761-1.9,12.231-4.052,13.316-6.353.7-1.531,0-3.053-2.226-4.518a54.218,54.218,0,0,0-5.707-2.958,1.9,1.9,0,0,0-1.9.209L70.243,30.97H68.636c-.057-4.023-.818-9.15-4.042-11.48a7.609,7.609,0,0,0-4.546-1.36h0a12.85,12.85,0,0,0-3.909.666,52.438,52.438,0,0,0-5.469,2.33l-.6.295a.818.818,0,0,0-.533.751.723.723,0,0,0,.266.485L62.492,33.928a3.738,3.738,0,0,0-.342.694,70.677,70.677,0,0,0-13.6-1.76c-3.367,0-5.811.552-7.267,1.655A3.624,3.624,0,0,0,39.9,38.484a25.318,25.318,0,0,0,1.9,4.575,1.455,1.455,0,0,0,1.284.6,2.007,2.007,0,0,0,.428,0l20.649-4.442a7.478,7.478,0,0,0,.723.409c-.713.637-1.465,1.332-2.188,2.064-4.556,4.527-6.249,7.97-5.031,10.234.808,1.512,2.787,2.454,5.868,2.8,1.6.181,4.109.219,5.944.219H70.8c.742,0,1.332-.409,1.332-.894l-.1-13.82a9.224,9.224,0,0,0,1.16-.39c.6.533,1.246,1.084,1.9,1.645,5.136,4.2,9.6,6.334,13.268,6.334a7.514,7.514,0,0,0,6.03-2.777,27.5,27.5,0,0,0,2.549-4.451c.219-.466-.181-.951-.885-1.1ZM69.292,38.179" transform="translate(-36.421 -12.918)"/>
        <path id="Path_99-3" data-name="Path 99" class="cls-10" d="M5.339.5c2.673,0,4.839,1.311,4.839,2.929S8.012,6.359,5.339,6.359.5,5.047.5,3.429,2.667.5,5.339.5Z" transform="translate(27.683 19.319)"/>
      </g>
    </g>
    <g id="_4" data-name="4" transform="translate(316.893 3991.941)">
      <g id="Group_3-4" data-name="Group 3" transform="translate(0 0)">
        <path id="Path_66-4" data-name="Path 66" class="cls-1" d="M335.707,442.5,270,475.761a13.766,13.766,0,0,1-12.414,0L191.479,442.5a4.292,4.292,0,0,1-2.4-3.82c0-1.524-.075-16.663-.075-16.663l68-23.337a14.067,14.067,0,0,1,13.584,0l67.6,23.326v16.62A4.292,4.292,0,0,1,335.707,442.5Z" transform="translate(-189 -330.89)"/>
        <path id="Path_67-4" data-name="Path 67" class="cls-2" d="M335.7,427.1l-65.709,33.262a13.766,13.766,0,0,1-12.414,0L191.473,427.1a4.367,4.367,0,0,1-.139-7.725L257,383.279a14.067,14.067,0,0,1,13.584,0l65.258,36.084a4.367,4.367,0,0,1-.139,7.736Z" transform="translate(-188.995 -332.014)"/>
        <path id="Path_68-4" data-name="Path 68" class="cls-13" d="M335.707,419.4,270,452.661a13.766,13.766,0,0,1-12.414,0L191.479,419.4a4.292,4.292,0,0,1-2.4-3.82c0-1.524-.075-16.663-.075-16.663l68-23.337a14.067,14.067,0,0,1,13.584,0l67.6,23.326v16.62A4.292,4.292,0,0,1,335.707,419.4Z" transform="translate(-189 -332.576)"/>
        <path id="Path_69-4" data-name="Path 69" class="cls-2" d="M335.7,404l-65.709,33.262a13.766,13.766,0,0,1-12.414,0L191.473,404a4.367,4.367,0,0,1-.139-7.725L257,360.179a14.067,14.067,0,0,1,13.584,0l65.258,36.084A4.367,4.367,0,0,1,335.7,404Z" transform="translate(-188.995 -333.7)"/>
        <path id="Path_70-4" data-name="Path 70" class="cls-4" d="M335.707,396.309,270,429.571a13.766,13.766,0,0,1-12.414,0l-66.106-33.262a4.292,4.292,0,0,1-2.4-3.82c0-1.524-.075-16.663-.075-16.663l68-23.337a14.067,14.067,0,0,1,13.584,0l67.6,23.326v16.62a4.292,4.292,0,0,1-2.479,3.873Z" transform="translate(-189 -334.261)"/>
        <path id="Path_71-4" data-name="Path 71" class="cls-5" d="M335.7,380.906l-65.709,33.262a13.766,13.766,0,0,1-12.414,0l-66.106-33.262a4.367,4.367,0,0,1-.139-7.725L257,337.118a14.067,14.067,0,0,1,13.541,0L335.8,373.2a4.367,4.367,0,0,1-.1,7.7Z" transform="translate(-188.995 -335.382)"/>
      </g>
      <g id="Group_2-4" data-name="Group 2" transform="translate(89.196 65.909)">
        <path id="Path_72-4" data-name="Path 72" class="cls-6" d="M279.855,409.156a7.511,7.511,0,0,1-3.863,5.9c-2.146,1.127-3.863.311-3.863-1.824a7.511,7.511,0,0,1,3.863-5.9C278.117,406.259,279.855,407.075,279.855,409.156Z" transform="translate(-272.13 -396.075)"/>
        <path id="Path_73-4" data-name="Path 73" class="cls-6" d="M289.935,404.159a7.511,7.511,0,0,1-3.863,5.9c-2.146,1.127-3.863.311-3.863-1.824a7.511,7.511,0,0,1,3.863-5.9C288.208,401.208,289.935,402.013,289.935,404.159Z" transform="translate(-271.394 -396.442)"/>
        <path id="Path_74-4" data-name="Path 74" class="cls-6" d="M300.025,399.16a7.511,7.511,0,0,1-3.863,5.9c-2.146,1.127-3.863.311-3.863-1.824a7.511,7.511,0,0,1,3.863-5.9C298.287,396.166,300.025,397.014,300.025,399.16Z" transform="translate(-270.658 -396.808)"/>
        <path id="Path_75-4" data-name="Path 75" class="cls-6" d="M279.855,432.3a7.511,7.511,0,0,1-3.863,5.9c-2.146,1.127-3.863.311-3.863-1.824a7.511,7.511,0,0,1,3.863-5.9C278.117,429.348,279.855,430.163,279.855,432.3Z" transform="translate(-272.13 -394.389)"/>
        <path id="Path_76-4" data-name="Path 76" class="cls-6" d="M289.935,427.258a7.511,7.511,0,0,1-3.863,5.9c-2.146,1.127-3.863.311-3.863-1.824a7.511,7.511,0,0,1,3.863-5.9C288.208,424.308,289.935,425.123,289.935,427.258Z" transform="translate(-271.394 -394.756)"/>
        <path id="Path_77-4" data-name="Path 77" class="cls-6" d="M279.855,455.4a7.511,7.511,0,0,1-3.863,5.9c-2.146,1.127-3.863.311-3.863-1.824a7.511,7.511,0,0,1,3.863-5.9C278.117,452.448,279.855,453.263,279.855,455.4Z" transform="translate(-272.13 -392.703)"/>
        <path id="Path_78-4" data-name="Path 78" class="cls-6" d="M300.025,445.309a7.511,7.511,0,0,1-3.863,5.9c-2.146,1.127-3.863.311-3.863-1.824a7.511,7.511,0,0,1,3.863-5.9C298.287,442.358,300.025,443.173,300.025,445.309Z" transform="translate(-270.658 -393.439)"/>
      </g>
      <g id="Group_1-4" data-name="Group 1" transform="translate(41.514 16.161)">
        <path id="Path_96-4" data-name="Path 96" class="cls-7" d="M100.927,35.7c0,5.336-2.549,10.253-6.819,14.162-5.916,5.412-15.142,8.883-25.509,8.883-12.193,0-22.827-4.813-28.315-11.917A18.071,18.071,0,0,1,36.27,35.7c0-12.726,14.476-23.045,32.338-23.045S100.927,22.97,100.927,35.7Z" transform="translate(-36.251 -12.65)"/>
        <path id="Path_97-4" data-name="Path 97" class="cls-8" d="M68.35,18.357c16.863,0,30.94,7.7,32.433,19.441a16.666,16.666,0,0,0,.143-2.1c0-12.726-14.476-23.045-32.338-23.045S36.25,22.97,36.25,35.7a16.661,16.661,0,0,0,.143,2.1C37.914,26.051,51.487,18.357,68.35,18.357Z" transform="translate(-36.25 -12.65)"/>
        <path id="Path_98-4" data-name="Path 98" class="cls-9" d="M96.1,39.416l-19.5-4.08a3.358,3.358,0,0,0-.333-1.094c.827-.181,1.674-.38,2.53-.59,7.761-1.9,12.231-4.052,13.316-6.353.7-1.531,0-3.053-2.226-4.518a54.218,54.218,0,0,0-5.707-2.958,1.9,1.9,0,0,0-1.9.209L70.243,30.97H68.636c-.057-4.023-.818-9.15-4.042-11.48a7.609,7.609,0,0,0-4.546-1.36h0a12.85,12.85,0,0,0-3.909.666,52.438,52.438,0,0,0-5.469,2.33l-.6.295a.818.818,0,0,0-.533.751.723.723,0,0,0,.266.485L62.492,33.928a3.738,3.738,0,0,0-.342.694,70.677,70.677,0,0,0-13.6-1.76c-3.367,0-5.811.552-7.267,1.655A3.624,3.624,0,0,0,39.9,38.484a25.318,25.318,0,0,0,1.9,4.575,1.455,1.455,0,0,0,1.284.6,2.007,2.007,0,0,0,.428,0l20.649-4.442a7.478,7.478,0,0,0,.723.409c-.713.637-1.465,1.332-2.188,2.064-4.556,4.527-6.249,7.97-5.031,10.234.808,1.512,2.787,2.454,5.868,2.8,1.6.181,4.109.219,5.944.219H70.8c.742,0,1.332-.409,1.332-.894l-.1-13.82a9.224,9.224,0,0,0,1.16-.39c.6.533,1.246,1.084,1.9,1.645,5.136,4.2,9.6,6.334,13.268,6.334a7.514,7.514,0,0,0,6.03-2.777,27.5,27.5,0,0,0,2.549-4.451c.219-.466-.181-.951-.885-1.1ZM69.292,38.179" transform="translate(-36.421 -12.918)"/>
        <path id="Path_99-4" data-name="Path 99" class="cls-10" d="M5.339.5c2.673,0,4.839,1.311,4.839,2.929S8.012,6.359,5.339,6.359.5,5.047.5,3.429,2.667.5,5.339.5Z" transform="translate(27.683 19.319)"/>
      </g>
    </g>
    <g id="Температура" transform="translate(545.702 3814.205)">
      <path id="Path_806" data-name="Path 806" class="cls-14" d="M39.324,51.327c0-4.209-2.13-9.066-5.381-12.991V11.314C33.932,7.57,30.9,2.911,27.162.907a5.534,5.534,0,0,0-4.68-.623L22.408.177,15.8,4.872l2.558,3.6,2.02-1.434V31.075C17.134,31.521,15,34.083,15,38.288c0,6.674,5.377,14.97,12.037,18.6A15.736,15.736,0,0,0,29.285,57.9l-1.106.737,2.093,3.033,5.244-3.619C37.85,57.095,39.324,54.762,39.324,51.327Z" transform="translate(-9.472 0)"/>
      <path id="Path_807" data-name="Path 807" class="cls-15" d="M5.381,41.06V14.038c0-3.744,3.033-5.16,6.778-3.147h0c3.741,2,6.774,6.663,6.774,10.408V48.312c3.251,3.932,5.392,8.79,5.392,13,0,6.715-5.558,9.214-12.276,5.561C5.377,63.242,0,54.946,0,48.272,0,44.067,2.134,41.505,5.381,41.06Z" transform="translate(0 -6.298)"/>
      <path id="Path_808" data-name="Path 808" class="cls-16" d="M19.607,91.246c4.3,2.307,7.809.678,7.809-3.626a13.919,13.919,0,0,0-3.461-8.34l-1.924-2.314V57.956L17.171,55.35V74.356l-1.92.262c-2.167.3-3.461,2.031-3.461,4.633C11.79,83.558,15.295,88.939,19.607,91.246Z" transform="translate(-7.445 -34.951)"/>
      <path id="Path_809" data-name="Path 809" class="cls-17" d="M33.618,123.215a11.056,11.056,0,0,0-.918-4.161A6.07,6.07,0,0,1,32.395,115l1.625,1.964a13.919,13.919,0,0,1,3.461,8.34c0,4.3-3.5,5.934-7.809,3.626a13.1,13.1,0,0,1-1.931-1.275C31.116,128.581,33.618,126.856,33.618,123.215Z" transform="translate(-17.517 -72.617)"/>
      <path id="Path_810" data-name="Path 810" class="cls-18" d="M28.826,26.289h0a4.808,4.808,0,0,1,2.429,3.733V39.4L26.39,36.793V27.417C26.39,26.076,27.477,25.571,28.826,26.289Z" transform="translate(-16.664 -16.394)"/>
      <path id="Path_811" data-name="Path 811" class="cls-19" d="M23.364,118.834c-.807-.431-1.474-.129-1.474.678a2.871,2.871,0,0,0,1.474,2.241c.807.431,1.474.129,1.474-.678A2.871,2.871,0,0,0,23.364,118.834Z" transform="translate(-13.823 -74.914)"/>
      <g id="Цифры" transform="translate(-109.603 -39.005)">
        <g id="Слой_6" data-name="Слой 6" transform="matrix(0.998, 0.07, -0.07, 0.998, 4.43, 0)">
          <path id="Path_907" data-name="Path 907" class="cls-20" d="M23.114,28.817v6.245L1.432,25.5V20.566l10.411-5.15a5.227,5.227,0,0,0,2.029-1.553,3.24,3.24,0,0,0,.526-1.821,3.976,3.976,0,0,0-.916-2.513A6.821,6.821,0,0,0,10.816,7.6,5.711,5.711,0,0,0,7.971,7.04,3.158,3.158,0,0,0,5.842,8.111L0,2.271A6.335,6.335,0,0,1,4.574.031a14.585,14.585,0,0,1,6.963,1.521,22.332,22.332,0,0,1,5.629,3.516,16.619,16.619,0,0,1,3.819,4.65A10.587,10.587,0,0,1,22.369,14.8a7.187,7.187,0,0,1-.976,3.847,8.582,8.582,0,0,1-3.761,2.895L12.369,24.08Z" transform="translate(5 0)"/>
          <path id="Union_3" data-name="Union 3" class="cls-20" d="M17.609,32.416l1.053-1.053.009-.007a12.842,12.842,0,0,1-4.552-1.183A19.616,19.616,0,0,1,7.75,25.653a21.336,21.336,0,0,1-4.355-6.916,22.814,22.814,0,0,1-1.579-8.471,16.044,16.044,0,0,1,.836-5.532L0,4.441,4.83,1.464A5.841,5.841,0,0,1,6.384.506L6.395.5h0A6.323,6.323,0,0,1,7.75.113a11.161,11.161,0,0,1,6.366,1.1,19.521,19.521,0,0,1,6.316,4.5,21.352,21.352,0,0,1,4.356,6.916A22.829,22.829,0,0,1,26.366,21.1a13.561,13.561,0,0,1-1.579,7.084,7.29,7.29,0,0,1-1.2,1.5h0l-.01.007a5.893,5.893,0,0,1-1.874,1.2l-4.793,3.075ZM10.919,8.181Q9.745,9.6,9.732,13.76a15.524,15.524,0,0,0,1.174,6.624,6.525,6.525,0,0,0,3.2,3.342,2.442,2.442,0,0,0,3.164-.532l.007,0q1.174-1.411,1.174-5.59a21.783,21.783,0,0,0-.278-3.658l-3.461-2.055-2.4-4.552A2.243,2.243,0,0,0,10.919,8.181Z" transform="translate(28.567 11.872)"/>
          <path id="Path_909" data-name="Path 909" class="cls-21" d="M5.263.526,0,3.947l5.526.263L7.369,1.579,7.632,0Z" transform="translate(1.7 0.076)"/>
          <path id="Path_910" data-name="Path 910" class="cls-22" d="M0,3.158,5,0,6.316,1.053,5.79,2.368Z" transform="translate(1.437 20.603)"/>
          <path id="Path_911" data-name="Path 911" class="cls-23" d="M0,9.737,5.1,5.869,6.579,0,0,3.421Z" transform="translate(23.017 28.498)"/>
          <path id="Path_912" data-name="Path 912" class="cls-22" d="M.174,4.337,5.34,1.116,4.474,0,1.053,2.368,0,3.684Z" transform="translate(19.332 19.287)"/>
          <path id="Path_913" data-name="Path 913" class="cls-24" d="M0,3.421,10.527,8.158,15.79,4.737l-2.65-.784L3.947,0Z" transform="translate(12.49 23.761)"/>
          <path id="Path_917" data-name="Path 917" class="cls-20" d="M6.892,2.674s1.178-.705,1.09,0c-.21,1.655-.738,7.336,1.046,10.27,2.282,3.753,6.073,0,6.073,0L8.158,21.316l-5-2.105L.526,15,0,7.105,2.368,0Z" transform="translate(31.704 19.814)"/>
          <path id="Path_918" data-name="Path 918" class="cls-25" d="M23.114,28.817v6.245L1.432,25.5V20.567l10.411-5.15a5.227,5.227,0,0,0,2.029-1.553,3.24,3.24,0,0,0,.526-1.821,3.976,3.976,0,0,0-.916-2.513A6.821,6.821,0,0,0,10.816,7.6,5.711,5.711,0,0,0,7.971,7.04,3.158,3.158,0,0,0,5.842,8.111L0,2.272A6.347,6.347,0,0,1,4.574.032a14.544,14.544,0,0,1,6.963,1.521,22.332,22.332,0,0,1,5.629,3.516,16.619,16.619,0,0,1,3.819,4.65A10.587,10.587,0,0,1,22.369,14.8a7.187,7.187,0,0,1-.976,3.847,8.582,8.582,0,0,1-3.761,2.895L12.369,24.08Z" transform="translate(0 3.157)"/>
          <path id="Path_919" data-name="Path 919" class="cls-25" d="M5.935,25.653a21.332,21.332,0,0,1-4.355-6.916A22.822,22.822,0,0,1,0,10.266,13.572,13.572,0,0,1,1.579,3.181,6.176,6.176,0,0,1,5.935.113,11.165,11.165,0,0,1,12.3,1.21a19.517,19.517,0,0,1,6.316,4.5,21.356,21.356,0,0,1,4.355,6.916A22.835,22.835,0,0,1,24.551,21.1a13.563,13.563,0,0,1-1.579,7.084,6.194,6.194,0,0,1-4.353,3.071A11.04,11.04,0,0,1,12.3,30.174a19.608,19.608,0,0,1-6.369-4.521Zm9.529-2.461q1.174-1.411,1.174-5.59a15.509,15.509,0,0,0-1.174-6.624,6.479,6.479,0,0,0-3.158-3.324,2.468,2.468,0,0,0-3.2.526Q7.93,9.6,7.93,13.771A15.52,15.52,0,0,0,9.1,20.395a6.525,6.525,0,0,0,3.2,3.342,2.436,2.436,0,0,0,3.15-.542Z" transform="translate(25.382 15.03)"/>
          <path id="Path_920" data-name="Path 920" class="cls-20" d="M12.856,3.149A11.405,11.405,0,0,0,9.463.707,6.406,6.406,0,0,0,6.108.026,3.9,3.9,0,0,0,4.59.489h0L4.54.526a3.339,3.339,0,0,0-.621.463L0,3.889l2.676.329.079-.032c0,1.19,3.013,1.158,3.605,2.4a12.83,12.83,0,0,0,2.105,3.684c1.026,1.053-.216,2.916,1,3.476a8.537,8.537,0,0,0,1.455.526l-.345.208L9,17.113l.771.242,4.979-3.608.074-.053h0a3.461,3.461,0,0,0,.484-.466,4.262,4.262,0,0,0,.908-2.879A8.606,8.606,0,0,0,15.3,6.629,13.072,13.072,0,0,0,12.856,3.149ZM7.24,8.481A4.769,4.769,0,0,1,6.35,5.789V5.765l3.771,4.9a4.412,4.412,0,0,1-.658-.247A5.4,5.4,0,0,1,7.24,8.481Z" transform="translate(52.71 19.533)"/>
          <path id="Path_921" data-name="Path 921" class="cls-20" d="M16.014,22.766a12.632,12.632,0,0,1-3.763-2.671,12.464,12.464,0,0,1-2.558-3.8A10.75,10.75,0,0,1,8.785,12,5.822,5.822,0,0,1,9.692,8.55,3.405,3.405,0,0,1,12.25,7.121a7,7,0,0,1,3.382.65l-.687,1.892,4.474,3.684,3.158,1.579,4.211-3.158h.029A24.368,24.368,0,0,0,22.08,5.936a25.432,25.432,0,0,0-6.437-4.245A15.188,15.188,0,0,0,8.321.023a7.369,7.369,0,0,0-3.85,1.284h0l-.055.039c-.068.05-.137.1-.205.153L0,4.658l1.8.526.029-.013a12.037,12.037,0,0,0-.442,3.392,18.242,18.242,0,0,0,1.842,7.829,25.206,25.206,0,0,0,5.1,7.161,25.527,25.527,0,0,0,7.321,5.116,16.383,16.383,0,0,0,6.413,1.711A7.1,7.1,0,0,0,26.8,28.945l-4.671-6.39Q19.609,24.432,16.014,22.766Z" transform="translate(68.341 29.975)"/>
          <path id="Path_922" data-name="Path 922" class="cls-26" d="M5.185.529a10.142,10.142,0,0,0,1.534,1.9c1.043,1.043.43,1.043.43,1.043l.981,6.441L1.053,6.579,0,2.895.789,0A6.311,6.311,0,0,0,5.185.529Z" transform="translate(54.686 25.603)"/>
          <path id="Path_923" data-name="Path 923" class="cls-25" d="M3.355,11.341A13.042,13.042,0,0,1,.908,7.846,8.6,8.6,0,0,1,0,4.125,4.287,4.287,0,0,1,.908,1.246,3.563,3.563,0,0,1,3.355.025,6.447,6.447,0,0,1,6.711.707,11.406,11.406,0,0,1,10.1,3.149,13.072,13.072,0,0,1,12.55,6.636a8.606,8.606,0,0,1,.908,3.721,4.287,4.287,0,0,1-.908,2.879A3.563,3.563,0,0,1,10.1,14.457a6.522,6.522,0,0,1-3.392-.7,11.3,11.3,0,0,1-3.355-2.416Zm5.616-.771A1.949,1.949,0,0,0,9.861,8.7a4.719,4.719,0,0,0-.89-2.655A5.469,5.469,0,0,0,6.711,4.091,2.385,2.385,0,0,0,4.487,3.97,1.923,1.923,0,0,0,3.6,5.812,4.769,4.769,0,0,0,4.487,8.5a5.4,5.4,0,0,0,2.224,1.94A2.463,2.463,0,0,0,8.971,10.57Z" transform="translate(51.252 22.681)"/>
          <path id="Path_924" data-name="Path 924" class="cls-25" d="M6.94,23.563a25.206,25.206,0,0,1-5.1-7.161A18.243,18.243,0,0,1,0,8.573,9.286,9.286,0,0,1,1.842,2.463,6.914,6.914,0,0,1,6.94.023a15.18,15.18,0,0,1,7.321,1.668,25.433,25.433,0,0,1,6.413,4.232,24.367,24.367,0,0,1,4.737,5.832L20.748,13.8a14.207,14.207,0,0,0-6.116-5.874,7.331,7.331,0,0,0-3.763-.816A3.405,3.405,0,0,0,8.311,8.542,5.822,5.822,0,0,0,7.4,11.995a10.751,10.751,0,0,0,.908,4.295,12.463,12.463,0,0,0,2.558,3.8,12.632,12.632,0,0,0,3.763,2.671q3.595,1.666,6.116-.208l4.671,6.39a7.128,7.128,0,0,1-4.737,1.434,16.444,16.444,0,0,1-6.413-1.711A25.527,25.527,0,0,1,6.94,23.563Z" transform="translate(65.512 33.128)"/>
          <path id="Path_925" data-name="Path 925" class="cls-27" d="M4.737,9.474,9.211,6.316,4.474,0,0,3.158Z" transform="translate(86.178 52.533)"/>
        </g>
      </g>
    </g>
    <g id="Влажность" transform="translate(195.565 3814.18)">
      <path id="Path_812" data-name="Path 812" class="cls-28" d="M68.864,22.07a.275.275,0,0,0-.013-.03L57.492.148a.274.274,0,0,0-.486,0L45.647,22.04a.247.247,0,0,0-.013.03A12.807,12.807,0,0,0,57.241,39.353h.017A12.807,12.807,0,0,0,68.864,22.07Z" transform="translate(-44.818)"/>
      <g id="Group_72" data-name="Group 72" transform="translate(9.93 0.325)">
        <path id="Path_813" data-name="Path 813" class="cls-29" d="M46.908,40.1a14.39,14.39,0,0,0,4.165-10.089.294.294,0,0,0,0-.037L48.091,3.266l11,21.715a.25.25,0,0,1,.013.03,13.008,13.008,0,0,1-.337,9.8,12.545,12.545,0,0,1-7,6.683,12.213,12.213,0,0,1-3.993.8h-.016a12.2,12.2,0,0,1-2.938-.455A14.2,14.2,0,0,0,46.908,40.1Z" transform="translate(-44.818 -3.266)"/>
        <path id="Path_814" data-name="Path 814" class="cls-29" d="M353.372,181.5a.291.291,0,0,0-.013-.03l-5.6-10.794a.274.274,0,0,0-.486,0l-5.6,10.794a.247.247,0,0,0-.013.03,6.453,6.453,0,0,0,5.849,8.709h.017a6.454,6.454,0,0,0,5.849-8.709Z" transform="translate(-321.675 -153.882)"/>
      </g>
      <path id="Path_815" data-name="Path 815" class="cls-28" d="M382.362,181.517a.272.272,0,0,1,.014-.03l5.589-10.8a.251.251,0,0,1,.244-.122h0l2.606,12.8a.271.271,0,0,1,0,.036,6.873,6.873,0,0,1-1.922,5.125,7.661,7.661,0,0,1-1.968,1.536c-.2-.052-.412-.112-.609-.183A6.436,6.436,0,0,1,382.362,181.517Z" transform="translate(-352.448 -153.573)"/>
      <path id="Path_816" data-name="Path 816" class="cls-29" d="M276.343,385.729l-3.732-7.193a.274.274,0,0,0-.486,0l-3.732,7.193a.252.252,0,0,0-.013.03,4.392,4.392,0,0,0,3.98,5.927h.017a4.392,4.392,0,0,0,3.98-5.927A.264.264,0,0,0,276.343,385.729Z" transform="translate(-245.88 -340.729)"/>
      <path id="Path_817" data-name="Path 817" class="cls-28" d="M294.917,385.782a.263.263,0,0,1,.014-.03l3.7-7.156a.285.285,0,0,1,.252-.148.288.288,0,0,1,.087.014l1.746,8.977a.3.3,0,0,1,0,.037,4.9,4.9,0,0,1-2.056,4.207,5.316,5.316,0,0,1-1.156-.245A4.322,4.322,0,0,1,294.917,385.782Z" transform="translate(-272.408 -340.753)"/>
      <g id="Цифы" transform="translate(36.881 -32.296)">
        <g id="Слой_6-2" data-name="Слой 6" transform="matrix(0.998, 0.07, -0.07, 0.998, -5.77, -8)">
          <path id="Path_886" data-name="Path 886" class="cls-30" d="M14.03,15.8l5.122-3.141V8.28L1.272,0V5.406l9.765,4.515L8.2,13.573,6.607,17.065l2.925,1.36q3.78,1.756,3.78,4.154A1.24,1.24,0,0,1,12.251,24,5.154,5.154,0,0,1,9.4,23.341a19.832,19.832,0,0,1-3.587-2.192,21.5,21.5,0,0,1-3.261-3.033L0,22.212a28.28,28.28,0,0,0,4.435,3.855A32.534,32.534,0,0,0,9.612,29.1a14.523,14.523,0,0,0,5.99,1.625,4.667,4.667,0,0,0,3.6-1.352,5.072,5.072,0,0,0,1.184-3.512,10.058,10.058,0,0,0-1.643-5.338A15.746,15.746,0,0,0,14.03,15.8Z" transform="translate(4.013 0.113)"/>
          <path id="Path_887" data-name="Path 887" class="cls-30" d="M10.167,12.316l-1.661-.77L8.825,8.09l9.966,4.616V7.3L3.03,0,1.794,13.879l6.715,3.11a12.823,12.823,0,0,1,3.745,2.37,3.4,3.4,0,0,1,1.061,2.363,1.258,1.258,0,0,1-1.079,1.427,5.146,5.146,0,0,1-2.88-.645,19.45,19.45,0,0,1-3.587-2.192,22.687,22.687,0,0,1-3.261-3.033L0,21.384a27.4,27.4,0,0,0,4.4,3.84,32.507,32.507,0,0,0,5.177,3.033,14.523,14.523,0,0,0,5.99,1.625,4.569,4.569,0,0,0,3.6-1.4A5.443,5.443,0,0,0,20.356,24.8,11.1,11.1,0,0,0,17.865,18,19.941,19.941,0,0,0,10.167,12.316Z" transform="translate(25.403 10.834)"/>
          <path id="Path_888" data-name="Path 888" class="cls-31" d="M0,3.093,4.124,0,11.79,6.354l-.753,3.261H8.594L3.261,7.859Z" transform="translate(2.433 18.229)"/>
          <path id="Path_889" data-name="Path 889" class="cls-32" d="M0,2.606,4.468,0s5.338,3.906,5.827,8.147S9.181,13.375,8.353,14.01,4.515,16.9,4.515,16.9L0,2.606" transform="translate(13.972 16.207)"/>
          <path id="Path_890" data-name="Path 890" class="cls-30" d="M.413,7.525l4.1-3.01V0L0,3.512.413,7.525" transform="translate(18.738 8.278)"/>
          <path id="Path_892" data-name="Path 892" class="cls-33" d="M0,2.508,4.264,0l8.027,5.017V9.281L7.024,8.529Z" transform="translate(23.755 28.847)"/>
          <path id="Path_893" data-name="Path 893" class="cls-34" d="M10.418,20.569l5.636-4.013s1.756-1.756,1-6.271S9.03,1,9.03,1L4.766,0,0,1,3.01,5.017,6.773,8.529l2.007,4.264,1,4.515Z" transform="translate(28.521 22.827)"/>
          <path id="Path_894" data-name="Path 894" class="cls-30" d="M.251,4.013,5.509,1.575.753,0,0,1Z" transform="translate(29.524 21.322)"/>
          <path id="Path_895" data-name="Path 895" class="cls-35" d="M18.746,20.514a10.049,10.049,0,0,1,1.643,5.338A5.066,5.066,0,0,1,19.2,29.364a4.679,4.679,0,0,1-3.6,1.352A14.523,14.523,0,0,1,9.61,29.09a32.534,32.534,0,0,1-5.177-3.033A28.28,28.28,0,0,1,0,22.212l2.544-4.1A21.5,21.5,0,0,0,5.8,21.149a19.832,19.832,0,0,0,3.587,2.192A5.2,5.2,0,0,0,12.254,24a1.242,1.242,0,0,0,1.061-1.417q0-2.4-3.78-4.154l-2.927-1.36V12.648l4.43-2.727L1.272,5.406V0l17.88,8.278v4.385L14.03,15.8A15.692,15.692,0,0,1,18.746,20.514Z" transform="translate(0 3.123)"/>
          <path id="Path_896" data-name="Path 896" class="cls-35" d="M17.865,18A11.1,11.1,0,0,1,20.356,24.8a5.443,5.443,0,0,1-1.184,3.675,4.569,4.569,0,0,1-3.6,1.4,14.523,14.523,0,0,1-5.99-1.625A32.507,32.507,0,0,1,4.4,25.225,27.4,27.4,0,0,1,0,21.384l2.508-4.1a22.688,22.688,0,0,0,3.261,3.033,19.451,19.451,0,0,0,3.587,2.192,5.145,5.145,0,0,0,2.88.645,1.258,1.258,0,0,0,1.079-1.427,3.425,3.425,0,0,0-1.061-2.363,12.55,12.55,0,0,0-3.745-2.37l-6.715-3.11L3.03,0l15.76,7.3v5.406L8.825,8.09l-.319,3.457,1.661.77A19.967,19.967,0,0,1,17.865,18Z" transform="translate(21.377 13.844)"/>
          <path id="Path_897" data-name="Path 897" class="cls-36" d="M0,3.139,3.9,0,21.958,8.278l-4.1,3.1Z" transform="translate(1.295 0)"/>
          <path id="Path_898" data-name="Path 898" class="cls-36" d="M0,3.015,4.1,0,19.9,7.2l-4.106,3.213Z" transform="translate(24.424 10.856)"/>
          <path id="Path_899" data-name="Path 899" class="cls-37" d="M6.827,0S4.637,7.332,8.4,7.834,4.515,11.6,4.515,11.6l-3.01-1L0,7.834V2.065L1.666,1.5Z" transform="translate(46.832 25.528)"/>
          <path id="Path_891" data-name="Path 891" class="cls-30" d="M0,8.529l4.163-3.1L4.264,0,.092,3.212Z" transform="translate(40.06 18.061)"/>
          <path id="Path_900" data-name="Path 900" class="cls-37" d="M13.952,4.871A11.361,11.361,0,0,0,9.023.7,5.427,5.427,0,0,0,4.488.351L4.465.336,4.289.451c-.053.028-.105.055-.158.088A3.349,3.349,0,0,0,3.82.757L0,3.245,1.881,5.164l.356-.251v.158c0,2.275,2.912.74,4.161,2.6s.6,6.853,2.626,7.746c.228.1.452.188.67.268L8.91,17.446l-.329,1.52,4.588-3.01a3.561,3.561,0,0,0,.788-.349q1.9-1.136,1.9-4.548A10.9,10.9,0,0,0,13.952,4.871Zm-6.56,5.31a6.675,6.675,0,0,1-.6-2.988l2.325,4.653-.09-.035A3.382,3.382,0,0,1,7.392,10.181Z" transform="translate(64.266 41.492)"/>
          <path id="Path_901" data-name="Path 901" class="cls-30" d="M18.126,0,0,18.55l5.461,2.408L23.587,2.411Z" transform="translate(52.128 28.686)"/>
          <path id="Path_902" data-name="Path 902" class="cls-37" d="M9.728,15.4c.216.1.424.178.63.251L9.53,17.157,9.422,18.87,14.4,15.755a2.673,2.673,0,0,0,.251-.138q1.9-1.134,1.9-4.548a10.906,10.906,0,0,0-1.891-6.2A11.363,11.363,0,0,0,9.728.7,6.55,6.55,0,0,0,6.216.042,3.6,3.6,0,0,0,5.2.35L5.162.323,0,3.591l2.957.885c0,.191-.018.386-.018.587C2.94,7.339,5,5.5,6.269,7.377S7.728,14.533,9.728,15.4Zm-1.61-5.243a6.721,6.721,0,0,1-.625-3.1V6.807l2.554,5.11a2.458,2.458,0,0,1-.324-.115,3.4,3.4,0,0,1-1.608-1.63Z" transform="translate(44.828 20.72)"/>
          <path id="Path_903" data-name="Path 903" class="cls-37" d="M7.679,0s-2.9,7.138,1.11,8.142-2.016,2.891-2.016,2.891l-3.512.5L.5,7.019,0,3.758Z" transform="translate(64.391 46.16)"/>
          <path id="Path_904" data-name="Path 904" class="cls-35" d="M1.9,11.28A10.871,10.871,0,0,1,0,5.059,6.142,6.142,0,0,1,.873,1.547,3.349,3.349,0,0,1,3.281.042,6.561,6.561,0,0,1,6.793.7a11.363,11.363,0,0,1,4.922,4.164,10.907,10.907,0,0,1,1.9,6.2q0,3.414-1.9,4.548T6.786,15.4A11.331,11.331,0,0,1,1.9,11.28ZM22.488,7.964l5.461,2.408L9.823,28.919,4.362,26.511ZM8.419,11.618a3.893,3.893,0,0,0,.607-2.576,6.822,6.822,0,0,0-.607-3.113A3.381,3.381,0,0,0,6.788,4.3a1.311,1.311,0,0,0-1.61.218,3.78,3.78,0,0,0-.625,2.549,6.721,6.721,0,0,0,.625,3.1,3.4,3.4,0,0,0,1.61,1.641A1.321,1.321,0,0,0,8.419,11.618ZM20.61,32.052a10.914,10.914,0,0,1-1.876-6.213q0-3.374,1.9-4.53t4.891.168a11.361,11.361,0,0,1,4.929,4.167,10.9,10.9,0,0,1,1.9,6.2q0,3.414-1.9,4.548t-4.929-.2a11.288,11.288,0,0,1-4.914-4.139Zm6.542.346a3.893,3.893,0,0,0,.607-2.576,6.822,6.822,0,0,0-.607-3.113,3.381,3.381,0,0,0-1.63-1.63,1.322,1.322,0,0,0-1.63.191,3.893,3.893,0,0,0-.607,2.576,6.822,6.822,0,0,0,.607,3.113,3.381,3.381,0,0,0,1.63,1.63,1.321,1.321,0,0,0,1.628-.193Z" transform="translate(43.004 23.733)"/>
          <path id="Path_905" data-name="Path 905" class="cls-36" d="M0,3.01,4.766,0l5.519,2.508L5.519,5.519Z" transform="translate(65.395 28.596)"/>
          <path id="Path_906" data-name="Path 906" class="cls-38" d="M0,21.322l4.766-3.01L22.827,0,18.061,2.759Z" transform="translate(52.853 31.355)"/>
        </g>
      </g>
    </g>
  </g>
</svg>
