<svg id="0c426dc8-d4f0-46ca-baad-c63e53ad2081" data-name="Слой 1" xmlns="http://www.w3.org/2000/svg" width="55.1" height="54.39" viewBox="0 0 55.1 54.39" preserveAspectRatio="none">
  <defs>
    <style>
      .\38 f589332-4f2a-419c-839a-98150f6d3c1a {
        fill: #5b6595;
      }

      .bc205fcb-79ae-4470-8428-4dd093cc38bb {
        fill: #7f90b8;
      }
    </style>
  </defs>
  <title>main-image-1-fan-flat</title>
  <g>
    <g>
      <path class="8f589332-4f2a-419c-839a-98150f6d3c1a" d="M23.56,26.79,26,26.06a1.76,1.76,0,0,1,2.19,1.16l7,23A1.76,1.76,0,0,1,34,52.37l-6.54,2c-.92.28-4.11-1.24-4.82-4.85-1-5,3.14-21.88,3.14-21.88C25.47,26.71,22.64,27.07,23.56,26.79Z"/>
      <path class="8f589332-4f2a-419c-839a-98150f6d3c1a" d="M27.56,29.86l.05-2.54a1.75,1.75,0,0,1,1.78-1.71l24,.47a1.75,1.75,0,0,1,1.71,1.79L55,34.7c0,1-2.45,3.53-6.11,3.09C43.77,37.16,29,28,29,28,28.07,28,27.54,30.83,27.56,29.86Z"/>
      <path class="8f589332-4f2a-419c-839a-98150f6d3c1a" d="M25.22,22l1.45,2.09a1.75,1.75,0,0,1-.44,2.43L6.54,40.25a1.75,1.75,0,0,1-2.43-.43L.2,34.21c-.55-.79-.1-4.3,3.12-6.09,4.49-2.49,21.78-3.77,21.78-3.77C25.89,23.8,24.67,21.22,25.22,22Z"/>
      <path class="8f589332-4f2a-419c-839a-98150f6d3c1a" d="M30.26,22.1l-1.54,2a1.75,1.75,0,0,1-2.45.34L7.14,10A1.75,1.75,0,0,1,6.8,7.52l4.12-5.45C11.5,1.31,15,.65,17.68,3.16,21.43,6.66,28,22.7,28,22.7,28.76,23.29,30.84,21.33,30.26,22.1Z"/>
      <path class="8f589332-4f2a-419c-839a-98150f6d3c1a" d="M31.71,26.91l-2.4-.83a1.76,1.76,0,0,1-1.08-2.23L36.1,1.18A1.74,1.74,0,0,1,38.32.1l6.46,2.24c.91.31,2.61,3.41,1,6.76-2.17,4.65-15.4,15.84-15.4,15.84C30.12,25.85,32.62,27.23,31.71,26.91Z"/>
    </g>
    <circle class="bc205fcb-79ae-4470-8428-4dd093cc38bb" cx="27.56" cy="25.61" r="4.47"/>
  </g>
</svg>
