<svg id="9ec6fade-f4c2-4eec-9546-a7e3ed110210" data-name="Слой 1" xmlns="http://www.w3.org/2000/svg" width="65.3" height="55.84" viewBox="0 0 65.3 55.84">
  <defs>
    <style>
      .\33 36c1779-f597-466a-a900-c4ee9adbdf56 {
        fill: #82cae1;
      }

      .\39 c89eab3-a600-4814-ba5a-2811ede5c8e6 {
        fill: #addbee;
      }
    </style>
  </defs>
  <title>main-first__img-cloud-1</title>
  <g id="51c460ca-47cd-4c50-81b7-6fd54a51fc9f" data-name=" 2">
    <g id="ffcfe763-da2e-4a0a-98b4-9b4a7c53d5bf" data-name="Colors 2D-2">
      <path id="4984eb35-5d54-4600-8d0b-7d78f59a04d0" data-name="Path 858-2" class="336c1779-f597-466a-a900-c4ee9adbdf56" d="M55.79,28.66c0-.35,0-.7,0-1.06a29.45,29.45,0,0,0-15-25.15C37,.4,34.35-.06,32.32.45h0L32,.52,26.35,3.16v.11l1.75.49c-.37.55-.72,1.14-1.06,1.74A14.73,14.73,0,0,0,22.18,1,6,6,0,0,0,17.11.28h0L17,.33l-.26.13L13,2.31l.55.6,1.29.14a7,7,0,0,0-.21,1.71,9.33,9.33,0,0,0,.11,1.4c-2.71-1-5.12-.92-6.89.13h0L4.3,8,5.49,9.07A9.61,9.61,0,0,0,4.75,13c0,6.88,5.32,15.37,11.88,18.94L53.41,52c2.87,1.57.33,4.32,2.39,3.66,2.64-.84,9.5-3.94,9.5-9.63C65.29,40.05,61.21,32.78,55.79,28.66Z"/>
      <path id="56150e51-eeb1-460c-bb33-45db84d45216" data-name="MobileMe-2" class="9c89eab3-a600-4814-ba5a-2811ede5c8e6" d="M60.54,48.28c0,6.88-5.32,9.55-11.88,6L11.88,34.18C5.32,30.6,0,22.12,0,15.24,0,9,4.34,6.25,10,8.41A9.36,9.36,0,0,1,9.88,7c0-4.35,3.37-6,7.53-3.78a14.76,14.76,0,0,1,4.87,4.53C24.62,3.51,27.62.1,36,4.69A29.48,29.48,0,0,1,51,29.84a9.39,9.39,0,0,1,0,1.06C56.46,35,60.54,42.25,60.54,48.28Z"/>
    </g>
  </g>
</svg>
