<svg id="ba0ec847-60e1-4105-9a2c-047cb18fb7a4" data-name="Слой 1" xmlns="http://www.w3.org/2000/svg" width="58" height="58" viewBox="0 0 58 58">
  <defs>
    <style>
      .\30 29e9015-58a8-45c6-b09e-997007831214 {
        fill: #bdcce2;
      }

      .\33 6487034-68ba-4048-ab62-b4d66eb8004e {
        fill: #5b6595;
      }

      .\38 a2ab173-ff48-4e75-97f9-6e8d2eec69d8 {
        fill: #7f90b8;
      }
    </style>
  </defs>
  <title>main-image-1-fan-flat2</title>
  <circle class="029e9015-58a8-45c6-b09e-997007831214" cx="29" cy="29" r="29"/>
  <g>
    <path class="36487034-68ba-4048-ab62-b4d66eb8004e" d="M24.9,30.25l2.43-.74a1.75,1.75,0,0,1,2.18,1.17l7,23a1.76,1.76,0,0,1-1.16,2.19l-6.54,2c-.92.28-4.12-1.23-4.83-4.85-1-5,3.15-21.88,3.15-21.88C26.81,30.16,24,30.53,24.9,30.25Z"/>
    <path class="36487034-68ba-4048-ab62-b4d66eb8004e" d="M28.93,33.3,29,30.76A1.75,1.75,0,0,1,30.76,29l24,.48a1.76,1.76,0,0,1,1.72,1.78l-.14,6.83c0,1-2.45,3.54-6.1,3.09-5.1-.62-19.84-9.75-19.84-9.75C29.44,31.45,28.91,34.26,28.93,33.3Z"/>
    <path class="36487034-68ba-4048-ab62-b4d66eb8004e" d="M26.55,25.48,28,27.56A1.76,1.76,0,0,1,27.57,30L7.88,43.72a1.76,1.76,0,0,1-2.44-.43l-3.9-5.61c-.55-.79-.1-4.3,3.12-6.09,4.49-2.49,21.77-3.77,21.77-3.77C27.22,27.27,26,24.69,26.55,25.48Z"/>
    <path class="36487034-68ba-4048-ab62-b4d66eb8004e" d="M31.6,25.58l-1.54,2a1.75,1.75,0,0,1-2.45.34L8.48,13.45A1.75,1.75,0,0,1,8.14,11l4.13-5.45c.58-.76,4.05-1.42,6.75,1.09,3.75,3.5,10.31,19.55,10.31,19.55C30.1,26.77,32.18,24.81,31.6,25.58Z"/>
    <path class="36487034-68ba-4048-ab62-b4d66eb8004e" d="M33.06,30.41l-2.4-.84a1.75,1.75,0,0,1-1.08-2.22L37.45,4.67a1.76,1.76,0,0,1,2.23-1.08l6.45,2.24c.91.32,2.61,3.42,1,6.76C45,17.24,31.78,28.44,31.78,28.44,31.47,29.35,34,30.72,33.06,30.41Z"/>
  </g>
  <circle class="8a2ab173-ff48-4e75-97f9-6e8d2eec69d8" cx="29" cy="28.99" r="4.47"/>
</svg>
