<svg id="b3b9f69c-3662-4cda-b316-3bff978afd1e" data-name="Слой 1" xmlns="http://www.w3.org/2000/svg" xmlns:xlink="http://www.w3.org/1999/xlink" width="19.11" height="20.45" viewBox="0 0 19.11 20.45">
  <defs>
    <style>
      .e25c1a6b-4a19-4a4e-b2a2-4477109ac411 {
        fill: url(#590a8a57-2363-4298-82e6-1ff31db579cd);
      }

      .\38 cfe5761-d64a-4716-b8cb-27974e0d1f11 {
        fill: #66cca2;
      }

      .\33 25d19a3-5ea0-463c-abcf-5434c61d1591 {
        fill: #e7f8f4;
      }
    </style>
    <linearGradient id="590a8a57-2363-4298-82e6-1ff31db579cd" data-name="Безымянный градиент 23" x1="-1146.63" y1="608.41" x2="-1145.63" y2="608.41" gradientTransform="matrix(17.36, 0, 0, -19.9, 19901.66, 12117.02)" gradientUnits="userSpaceOnUse">
      <stop offset="0" stop-color="#66cca2"/>
      <stop offset="0.38" stop-color="#5ec397"/>
      <stop offset="1" stop-color="#53b789"/>
    </linearGradient>
  </defs>
  <title>main-first__img-check</title>
  <path id="655a576d-0709-414b-ae4a-c2ac825016d8" data-name="Path 930" class="e25c1a6b-4a19-4a4e-b2a2-4477109ac411" d="M19.08,13.37c0-4.5-3.65-10-8.14-12.35C8.46-.26,6.28-.29,4.76.68h0L4.51.87,1.75,3v.19L3,3.34A7.1,7.1,0,0,0,2.79,5c0,4.5,3.65,10,8.14,12.35a8.72,8.72,0,0,0,3.31,1V19.9l3-2.22h0A4.84,4.84,0,0,0,19.08,13.37Z"/>
  <path id="e8d6646d-eb2a-4465-9175-40baaf272091" data-name="Path 931" class="8cfe5761-d64a-4716-b8cb-27974e0d1f11" d="M16.28,15.49c0,4.5-3.65,6.26-8.14,3.94S0,11.58,0,7.08,3.65.82,8.15,3.14,16.28,11,16.28,15.49Z"/>
  <path id="ca3a483f-3c90-4f6e-b480-d6f3e1e823aa" data-name="Path 932" class="325d19a3-5ea0-463c-abcf-5434c61d1591" d="M7.23,14.65,3.46,8.93,5,8.19l2.26,3.44,4.53-2.19,1.51,2.29Z"/>
</svg>
