<svg id="75b9e2fe-80ac-4cfe-890d-c38520f3d4cc" data-name="Слой 1" xmlns="http://www.w3.org/2000/svg" width="118.96" height="101.77" viewBox="0 0 118.96 101.77">
  <defs>
    <style>
      .ee80b765-4b47-4d09-8189-bccd275f05b1 {
        fill: #82cae1;
      }

      .\36 d0784ad-3c0a-46fb-834c-bc03e80cdb6e {
        fill: #addbee;
      }
    </style>
  </defs>
  <title>main-first__img-cloud-2</title>
  <g id="52a0d1db-8aa6-4624-aca4-e67b5a219212" data-name=" 1">
    <g id="d65a1876-0ca6-457b-9b9c-345cfb7fb428" data-name="Colors 2D">
      <path id="f0f35a38-ec8e-4eca-b4a4-0d9fe662d60d" data-name="Path 858" class="ee80b765-4b47-4d09-8189-bccd275f05b1" d="M101.64,52.25c0-.63.07-1.27.07-1.93,0-15.85-8.23-36.68-26.81-46.82C68-.25,62.57-.06,58.29,1L48,5.79V6l3.19.89c-.68,1-1.31,2.07-1.92,3.17A26.83,26.83,0,0,0,40.4,1.81C36.85-.12,33.61-.45,31.17.55h0L31,.64l-.47.24L23.76,4.25l1,1.1,2.35.25a12.1,12.1,0,0,0-.38,3.11,16.88,16.88,0,0,0,.2,2.56C22,9.4,17.61,9.59,14.39,11.5h0L7.83,14.62,10,16.56a17.78,17.78,0,0,0-1.35,7.16c0,12.53,9.69,28,21.65,34.51l67,36.57c5.23,2.86.6,7.87,4.35,6.67C106.46,99.94,119,94.3,119,83.93,118.94,73,111.51,59.75,101.64,52.25Z"/>
      <path id="cce80400-c19b-4ca0-9334-96d72bfd4ed4" data-name="MobileMe" class="6d0784ad-3c0a-46fb-834c-bc03e80cdb6e" d="M110.29,88c0,12.53-9.7,17.4-21.65,10.87l-67-36.57C9.69,55.79,0,40.34,0,27.81,0,16.49,7.9,11.43,18.25,15.36A16.94,16.94,0,0,1,18,12.8c0-7.94,6.14-11,13.72-6.89a26.83,26.83,0,0,1,8.87,8.25c4.26-7.73,9.72-13.93,25-5.57C84.17,18.73,93,38.59,93,54.4a17.79,17.79,0,0,1-.07,1.93C102.86,63.84,110.29,77,110.29,88Z"/>
    </g>
  </g>
</svg>
