<svg xmlns="http://www.w3.org/2000/svg" viewBox="0 0 2757.241 1185.953"  preserveAspectRatio="none">
  <defs>
    <style>
      .cls-1 {
        fill: #7287cb;
      }

      .cls-2 {
        fill: #ccd3e9;
      }

      .cls-3 {
        fill: #576cb1;
      }

      .cls-4 {
        fill: #6075ba;
      }
    </style>
  </defs>
  <g id="Общий_фон" data-name="Общий фон" transform="translate(619 -688)">
    <path id="Path_217" data-name="Path 217" class="cls-1" d="M9.747,329.981,587.365,626.031a17.935,17.935,0,0,0,16.31,0l581.293-296.068a17.935,17.935,0,0,0,0-31.936L605.577,1.959a17.935,17.935,0,0,0-16.31,0l-579.5,296.1a17.935,17.935,0,0,0-.018,31.917Z" transform="translate(864.994 1232.002)"/>
    <path id="Path_216" data-name="Path 216" class="cls-2" d="M11.949,404.547l708.14,362.947a21.987,21.987,0,0,0,20,0L1452.73,404.524a21.988,21.988,0,0,0,0-39.152L742.416,2.4a21.988,21.988,0,0,0-19.995,0L11.971,365.417a21.988,21.988,0,0,0-.023,39.13Z" transform="translate(-382.006 1104.055)"/>
    <path id="Path_209" data-name="Path 209" class="cls-2" d="M11.949,404.547l708.14,362.947a21.987,21.987,0,0,0,20,0L1452.73,404.524a21.988,21.988,0,0,0,0-39.152L742.416,2.4a21.988,21.988,0,0,0-19.995,0L11.971,365.417a21.988,21.988,0,0,0-.023,39.13Z" transform="translate(112.994 1053.055)"/>
    <path id="Path_215" data-name="Path 215" class="cls-3" d="M7.373,249.537l436.8,223.877a13.563,13.563,0,0,0,12.334,0L896.094,249.523a13.563,13.563,0,0,0,0-24.15L457.949,1.481a13.563,13.563,0,0,0-12.334,0L7.387,225.4a13.563,13.563,0,0,0-.014,24.137Z" transform="translate(314.218 1309.002)"/>
    <path id="Path_207" data-name="Path 207" class="cls-2" d="M11.195,379.01,674.634,719.046a20.6,20.6,0,0,0,18.733,0l667.661-340.057a20.6,20.6,0,0,0,0-36.681L695.552,2.251a20.6,20.6,0,0,0-18.733,0l-665.6,340.1a20.6,20.6,0,0,0-.021,36.66Z" transform="translate(-57.006 767.002)"/>
    <path id="Path_208" data-name="Path 208" class="cls-4" d="M11.949,404.547l708.14,362.947a21.987,21.987,0,0,0,20,0L1452.73,404.524a21.988,21.988,0,0,0,0-39.152L742.416,2.4a21.988,21.988,0,0,0-19.995,0L11.971,365.417a21.988,21.988,0,0,0-.023,39.13Z" transform="translate(-382.006 1024.002)"/>
    <path id="Path_206" data-name="Path 206" class="cls-1" d="M11.195,379.01,674.634,719.046a20.6,20.6,0,0,0,18.733,0l667.661-340.057a20.6,20.6,0,0,0,0-36.681L695.552,2.251a20.6,20.6,0,0,0-18.733,0l-665.6,340.1a20.6,20.6,0,0,0-.021,36.66Z" transform="translate(765.994 798.002)"/>
    <path id="Path_204" data-name="Path 204" class="cls-3" d="M15.547,526.453l921.53,472.316a28.613,28.613,0,0,0,26.02,0l927.394-472.346a28.613,28.613,0,0,0,0-50.951L966.133,3.127a28.613,28.613,0,0,0-26.02,0L15.577,475.532a28.614,28.614,0,0,0-.029,50.921Z" transform="translate(103.726 820.802)"/>
    <path id="Path_195" data-name="Path 195" class="cls-1" d="M9.747,329.981,587.365,626.031a17.935,17.935,0,0,0,16.31,0l581.293-296.068a17.935,17.935,0,0,0,0-31.936L605.577,1.959a17.935,17.935,0,0,0-16.31,0l-579.5,296.1a17.935,17.935,0,0,0-.018,31.917Z" transform="translate(-619.006 688.002)"/>
    <path id="Path_212" data-name="Path 212" class="cls-4" d="M11.976,405.467l709.75,363.772a22.037,22.037,0,0,0,20.041,0l714.266-363.794a22.038,22.038,0,0,0,0-39.241L744.1,2.408a22.038,22.038,0,0,0-20.04,0L12,366.248a22.038,22.038,0,0,0-.023,39.219Z" transform="translate(-385.006 732.002)"/>
  </g>
</svg>
