<svg id="723c2063-e361-4f7a-94be-93c8291feb70" data-name="Слой 1" xmlns="http://www.w3.org/2000/svg" width="16" height="16" viewBox="0 0 16 16">
  <defs>
    <style>
      .c28df3ec-6280-4cad-8ec0-775aadae9246 {
        fill: #e7ebf5;
      }
    </style>
  </defs>
  <title>main-first__button-video</title>
  <path class="c28df3ec-6280-4cad-8ec0-775aadae9246" d="M10.77,8.42l-4,2.5A.56.56,0,0,1,6.5,11a.5.5,0,0,1-.24-.06A.51.51,0,0,1,6,10.5v-5a.51.51,0,0,1,.26-.44.49.49,0,0,1,.51,0l4,2.5a.5.5,0,0,1,0,.84ZM8,0a8,8,0,1,0,8,8A8,8,0,0,0,8,0Z"/>
</svg>
