<svg id="6e30d4ac-60ea-4cc0-90fc-08c80415ec6f" data-name="Слой 1" xmlns="http://www.w3.org/2000/svg" viewBox="0 0 24 11.44">
  <title>Symbol 11 – 1</title>
  <path d="M6.28.19,7.81,3.8l3.91.34a.31.31,0,0,1,.17.54l-3,2.56.89,3.82a.31.31,0,0,1-.46.34L6,9.37l-3.36,2a.31.31,0,0,1-.46-.34l.89-3.82-3-2.56a.31.31,0,0,1,.17-.54L4.19,3.8,5.72.19a.3.3,0,0,1,.56,0Z" style="fill: #63b783"/>
  <path d="M18.28.19,19.81,3.8l3.91.34a.31.31,0,0,1,.17.54l-3,2.56.89,3.82a.31.31,0,0,1-.46.34L18,9.37l-3.36,2a.31.31,0,0,1-.46-.34l.89-3.82-3-2.56a.31.31,0,0,1,.17-.54l3.91-.34L17.72.19a.3.3,0,0,1,.56,0Z" style="fill: #dcdcdc"/>
</svg>
