<svg id="5fbe768e-ba74-422b-b63e-011a3f7fdacb" data-name="Слой 1" xmlns="http://www.w3.org/2000/svg" width="40" height="40" viewBox="0 0 40 40">
  <defs>
    <style>
      .f77053a8-23e7-424d-a81e-95630abd8892 {
        fill: #c6d1e4;
      }

      .\37 9251f8c-e2b0-4d0e-a69a-2f2614cfeeed {
        fill: #fff;
      }
    </style>
  </defs>
  <title>team-button</title>
  <path class="f77053a8-23e7-424d-a81e-95630abd8892" d="M40,20A20,20,0,0,1,12.35,38.48,20,20,0,0,1,0,20,20,20,0,0,1,27.65,1.52,20,20,0,0,1,40,20Z"/>
  <path class="79251f8c-e2b0-4d0e-a69a-2f2614cfeeed" d="M15.18,20.61l7,7a.86.86,0,0,0,1.21,0l.51-.52a.85.85,0,0,0,0-1.21L18,20l5.85-5.86a.84.84,0,0,0,.25-.6.86.86,0,0,0-.25-.61l-.51-.51a.86.86,0,0,0-.61-.25.84.84,0,0,0-.6.25l-7,7a.82.82,0,0,0-.25.61A.8.8,0,0,0,15.18,20.61Z"/>
</svg>
