<svg id="6a9dc2e3-d630-465c-aeb9-ff252f5a6822" data-name="svg8" xmlns="http://www.w3.org/2000/svg" width="179.97" height="200.09" viewBox="0 0 179.97 200.09">
  <title>bell</title>
  <g id="f806bc39-c98e-427e-a27a-5cd9dba4db26" data-name="layer1">
    <path id="5fb4032b-6d4d-4cd7-af07-6baad9d7eb47" data-name="path34" d="M5.08,198.6C.56,196.1,0,193.7,0,175,0,160.35.24,157,1.61,155c2.47-3.72,17.32-18.79,21.76-22.08l3.9-2.89h85.9l3.4,3.4c4.61,4.61,4.61,8.59,0,13.2l-3.4,3.4H34.42l-7.23,7.27L20,164.55V180H160V164.45l-7.11-7a123.35,123.35,0,0,1-10-10.87L140,142.7V113.56c0-31.46-.53-35.83-5.61-46.31-2.9-6-10.89-15.16-15.93-18.27L115,46.87l-3.1,3.52c-8,9.14-23.67,12-35.13,6.32A33.48,33.48,0,0,1,68,50.39l-3.1-3.52L61.5,49a52.7,52.7,0,0,0-8.4,7.57C44.12,66.37,40,78.15,40,93.81c0,9.35,0,9.41-3.4,12.79-4.62,4.61-8.59,4.61-13.2,0-3.4-3.4-3.4-3.41-3.4-13,0-13.41,2.18-23.28,7.63-34.43,5.56-11.38,15.77-22.69,25.8-28.55,5.76-3.37,6.69-4.34,7.64-8C64.45,9.7,76.85,0,90,0s25.51,9.7,28.92,22.62c1,3.62,1.88,4.59,7.65,8,10,5.86,20.24,17.17,25.8,28.55C159.05,72.88,160,79,160,109.73v25.82l7.11,7a126.59,126.59,0,0,1,10,10.87l2.89,3.9v17.4c0,19-.67,21.92-5.48,24.11-4,1.83-166.09,1.64-169.41-.21Zm89.74-160c6.75-3.49,6.55-14.24-.33-17.38-9.08-4.13-17.91,5.08-13.13,13.7C84,39.62,89.75,41.2,94.82,38.57Z"/>
  </g>
</svg>
