<svg id="97ab962a-892e-4e0a-994d-098a39beeecd" data-name="svg8" xmlns="http://www.w3.org/2000/svg" width="199.95" height="139.92" viewBox="0 0 199.95 139.92">
  <title>bonus-check</title>
  <g id="2792b25e-d35b-4076-b731-6e3d678ab320" data-name="layer1">
    <path id="765edb56-970c-458b-a8a9-f189dadf0742" data-name="path120" d="M65,138.35c-1.38-.88-7.68-7.67-14-15.08C27,95.2,27,95.14,27,91.59a11.42,11.42,0,0,1,6.77-9.69c5.3-2,8.43.33,22.85,17.18,7.5,8.75,14,15.92,14.32,15.92.64,0,76.16-68.77,82.56-75.18,3.17-3.18,3.41-3.33-50.39,30.87C85.1,82.13,71.72,90,70.28,90c-4.15,0-6.3-1.73-23.53-18.84L30,54.54l-6.25,6.09C12.66,71.4,9.21,72.42,3.39,66.6-3,60.23-1.09,56,15.25,40.29c9.76-9.39,12.66-11,17.45-9.83,1.65.42,9.8,7.7,20.86,18.67l18.16,18,52.76-33.56C156.46,13.21,178.19,0,179.66,0c3.88,0,7.61,2.45,13.66,9,7.18,7.76,8.33,12.2,4.41,17C195.32,29,76.27,137.78,74.21,138.88a8.93,8.93,0,0,1-9.22-.53Z"/>
  </g>
</svg>
