<svg id="1a1b1d35-3af0-4f8b-8470-ade093371145" data-name="svg8" xmlns="http://www.w3.org/2000/svg" width="199.76" height="199.77" viewBox="0 0 199.76 199.77">
  <title>bonus-icon</title>
  <g id="663e68ee-a908-4c19-8acf-b95dc0828d0c" data-name="layer1">
    <path id="25b71b14-a626-4533-8264-d9a8f0f2c4e4" data-name="path133" d="M93.28,197c-2.14-1.58-9.64-8.74-16.65-15.91C64.42,168.62,63.88,167.9,63.88,163.9a9.62,9.62,0,0,1,10-10c3.92,0,4.74.59,15.07,10.66L99.88,175.2l10.91-10.63,10.9-10.64,15.85-.27,15.84-.28.28-15.84.27-15.85,10.64-10.9L175.2,99.88,164.57,89l-10.64-10.9-.27-15.85-.28-15.85-15.84-.27-15.85-.28L110.79,35.2,99.88,24.57,89,35.2,78.08,45.83l-15.85.28-15.85.27-.27,15.85-.28,15.85L35.2,89,24.57,99.88l10.65,10.93,10.66,10.93v45.87l-2.52,2.52a9.64,9.64,0,0,1-11.26,2.2c-5.33-2.23-6.22-5.83-6.22-25.09v-16.7L13.44,117.86C.93,105.13-.92,102.21.33,97.23.71,95.73,6.44,89,13.44,81.9L25.88,69.23V52.52c0-26.39.25-26.64,26.64-26.64H69.23L81.9,13.44C94.64.93,97.55-.92,102.54.33c1.49.38,8.2,6.11,15.32,13.11l12.68,12.44h16.7c26.4,0,26.64.25,26.64,26.64V69.23L186.32,81.9c7,7.13,12.74,13.83,13.11,15.33,1.25,5-.6,7.9-13.11,20.63l-12.44,12.68v16.7c0,26.41-.23,26.64-26.73,26.64H130.34l-10,10.11c-16.64,16.86-19.8,18.38-27.08,13Zm25-65.54c-4.61-4.61-4.61-8.58,0-13.2,2.45-2.45,4.3-3.4,6.6-3.4s4.15,1,6.6,3.4c4.62,4.62,4.62,8.59,0,13.2-2.45,2.45-4.29,3.4-6.6,3.4S120.73,133.93,118.28,131.48Zm-45-5c-4.29-4.29-4.43-7.91-.5-13.2,3.39-4.56,38.45-39.36,42.07-41.76,4-2.65,7.8-2.07,11.63,1.76s4.41,7.63,1.77,11.63C125.84,88.54,91,123.6,86.48,127c-5.29,3.92-8.9,3.79-13.2-.51Zm-5-45c-4.61-4.61-4.61-8.58,0-13.2,2.45-2.45,4.3-3.4,6.6-3.4,4.45,0,10,5.56,10,10,0,2.31-.95,4.15-3.4,6.6s-4.29,3.4-6.6,3.4S70.73,83.93,68.28,81.48Z"/>
  </g>
</svg>
