<svg id="d7088c82-0c8b-46de-ad9f-4577359a39a9" data-name="svg8" xmlns="http://www.w3.org/2000/svg" width="219.63" height="179.63" viewBox="0 0 219.63 179.63">
  <title>21</title>
  <g id="8e69d796-4e8c-4865-8797-b3df726f8e0a" data-name="layer1">
    <path id="e3367cd6-5de5-4148-9adf-f787afb4878a" data-name="path34" d="M3.4,176.23,0,172.83V56.43L3.4,53c2.34-2.34,4.33-3.4,6.37-3.4s13.73,6.72,41.5,24.05L89.82,97.74l28.63-19.06C150.37,57.44,150.82,57.25,156.6,63c4,4,4.45,8,1.24,12.08-3.55,4.51-64.42,44.52-67.73,44.52-2.59,0-12.61-6-61.86-36.84L20,77.62v82H180V58l-3.38-1.61a29.73,29.73,0,0,1-12.71-12.22l-2.41-4.54H26.8l-3.4-3.4C21,33.78,20,31.94,20,29.63S21,25.48,23.4,23l3.4-3.4H161.5L164,15c9-16.9,33.2-20.18,47-6.35s10.56,38.06-6.35,47L200,58.13v114.7l-3.4,3.4-3.4,3.4H6.8Zm191.45-138c4.76-2.46,6.38-8.3,3.73-13.43-3.45-6.66-13.71-6.66-17.15,0C176.73,33.85,185.78,42.9,194.85,38.21Z"/>
  </g>
</svg>
