<svg id="deaa518d-1f4d-4603-af27-ddfa1363ab84" data-name="svg8" xmlns="http://www.w3.org/2000/svg" width="139.98" height="139.93" viewBox="0 0 139.98 139.93">
  <title>close_chat</title>
  <g id="d30c7b35-f1bb-440f-8da2-5bdbb3193ae6" data-name="layer1">
    <path id="9fc18c3c-f1d5-4e9d-acd7-c74c523de648" data-name="path60" d="M3.39,136.59C-.44,132.76-1,129,1.63,125c.9-1.36,13.38-14.28,27.74-28.72L55.48,70,29.37,43.74C15,29.3,2.53,16.38,1.63,15-1,11-.44,7.22,3.39,3.39S11-1,15,1.63C16.38,2.53,29.3,15,43.74,29.37L70,55.48,96.24,29.37C110.68,15,123.6,2.53,125,1.63c4-2.65,7.8-2.07,11.63,1.76S141,11,138.36,15C136,18.59,21.24,133.63,16.59,137.09,11.3,141,7.69,140.89,3.39,136.59Zm120,.5C118.85,133.72,89,103.66,86.63,100c-2.65-4-2.07-7.8,1.76-11.63S96,84,100,86.63c3.64,2.41,33.7,32.22,37.07,36.76,3.93,5.29,3.79,8.91-.5,13.2s-7.91,4.43-13.2.5Z"/>
  </g>
</svg>
