<svg id="72c6e2c7-6ce6-4cda-87aa-71bd6f15ea7e" data-name="svg8" xmlns="http://www.w3.org/2000/svg" width="499.9" height="256.56" viewBox="0 0 499.9 256.56">
  <title>virl1</title>
  <g id="ee16cc0d-5a86-4519-a5a7-200afa638ce1" data-name="layer1">
    <path id="8a9f7d1d-701b-4e1e-afa8-ce685a0898ab" data-name="path21" d="M123.08,255.27c0-.85,42.1-109.78,42.58-110.17,1.12-.91,49.72-1.78,49.37-.88-.24.58-9.95,25.78-21.6,56l-21.16,54.92-24.6.38c-13.53.21-24.59.11-24.59-.24Zm77.25,0c0-.34,9.71-25.56,21.5-56l21.46-55.42,11.18-.79c6.15-.44,30.24-1.12,53.53-1.52l42.33-.73,7.33,8.82c4,4.85,7.38,9.46,7.47,10.24s-8,22.55-17.91,48.37l-18.05,46.95-24.6.37c-13.53.2-24.59.16-24.59-.1s8.4-22.24,18.68-48.84,18.68-48.7,18.68-49.08-6.8-.53-15.09-.34l-15.1.35-18.83,48.83-18.83,48.83-24.6.36c-13.54.19-24.59.08-24.56-.27Zm156.88.31c0-.51,10-26.71,22.18-58.21l22.15-57.28,24.21-.62c13.31-.35,24.43-.5,24.7-.34s-5.27,15.27-12.33,33.58S425,207,424.72,208.22c-.55,2.09,1.13,2.22,26.83,2.22H479l-8.46,21.71c-4.65,11.93-8.83,22.3-9.29,23-.95,1.55-104,1.95-104,.4ZM3.64,241.89c2-7.37,8.51-31.72,14.48-54.12L29,147l22.47-.36c12.35-.2,22.67-.25,22.93-.1s-3.81,14.15-9,31.13S55.8,209,55.81,209.6s1.16.84,2.56.62c2-.31,5.72-7.3,17.23-32.15l14.7-31.76,23.24-.62c12.78-.34,23.1-.34,22.92,0l-27.71,55.1L81.36,255.27H0ZM413.4,131.07c-6.74-.38-7.82-.76-7.31-2.56.33-1.17,9.41-24.81,20.17-52.55s20.67-53.37,22-57l2.46-6.54H475c13.3,0,24.2.42,24.21.94S489,40.8,476.53,73.16L453.87,132l-16.28-.24c-8.95-.13-19.84-.44-24.19-.68Zm-128.82-2.88c-18.36-.49-33.64-1.16-33.95-1.47S260,100.57,272.05,69.3l22-56.85H387l10.66,15.76L408.28,44,396.91,73.35c-6.25,16.16-12.2,31.48-13.23,34.05-1.55,3.89-4.18,6.14-15.64,13.39l-13.77,8.71-18.16-.2c-10-.11-33.17-.61-51.53-1.11Zm59.21-38.53c4.63-12,9.26-23.9,10.28-26.46l1.85-4.67H325.26l-9.88,25.72-10.3,26.81c-.24.6,6.46.93,14.92.74l15.35-.35ZM193.62,126.11c-16-.31-20.82-.77-20.33-1.93S195.49,67.1,212.92,22.1l3.73-9.65h24.19c13.31,0,24.2.43,24.2,1s-9.73,26.15-21.62,57c-21.54,55.83-21.63,56-25.22,56.08-2,0-13-.12-24.58-.34Zm-86.83-2.72-5.7-.73,12-25.53L125,71.6l24.57-.34,24.57-.33L160.77,97.72l-13.38,26.8-17.45-.19c-9.59-.11-20-.53-23.15-.94Zm-58.74-1c-6.67-.23-12.11-.83-12.08-1.32s3-11.81,6.61-25.17L49.13,71.6l24.52-.34c13.49-.18,24.52-.18,24.51,0s-3.58,11.83-7.94,25.87l-7.93,25.53-11.05.07C65.17,122.77,54.73,122.61,48.05,122.37ZM485.64,5c0-1.71.28-2.41.63-1.56a4.9,4.9,0,0,1,0,3.12C485.92,7.39,485.64,6.69,485.64,5Zm6.6-2.57c-.45-.73-.55-1.6-.23-1.92s.93.27,1.33,1.32c.84,2.2.13,2.58-1.1.6Zm5.2-.54c.4-1,1.29-1.87,2-1.87s.6.79-.29,1.87a6.82,6.82,0,0,1-2,1.87C496.92,3.74,497.05,2.9,497.44,1.87Z"/>
  </g>
</svg>
