<svg id="bceb73a6-b23c-46b7-8912-073de805695c" data-name="svg8" xmlns="http://www.w3.org/2000/svg" width="472.73" height="196" viewBox="0 0 472.73 196">
  <title>16</title>
  <g id="f100b511-330a-4013-ad80-bcde5d82b5e6" data-name="layer1">
    <path id="56c1313e-e299-47d7-b513-8109a5a8b434" data-name="path224" d="M178.52,195.31c-1.37-1.36-1-6.53,1.14-15.07,1.54-6.19,1.9-9,1.63-12.36-.3-3.8-.12-4.78,1.43-7.55a22.4,22.4,0,0,0,2.23-6.17c.48-3.12,2.84-8.39,5.33-11.91,3.35-4.73,3.9-6.49,4.16-13.25a97.09,97.09,0,0,1,1.11-11.2c.49-2.58.61-5.11.29-5.84-.65-1.5-1.11-9.54-.66-11.66a2.51,2.51,0,0,1,1.53-1.78c1.28-.33,1.27-.94-.21-14.66-.43-3.94-.35-4.26,1.34-5.59a6.94,6.94,0,0,0,1.79-1.75,5.24,5.24,0,0,0-2.35-.78c-1.3-.24-2.47-.77-2.6-1.18a88.44,88.44,0,0,1,.81-10.1l1.06-9.36,3.23-.37a11.2,11.2,0,0,0,3.69-.84c.26-.25.41-3.23.33-6.61a43.85,43.85,0,0,1,.65-9.11c2-7.65,6.51-13.7,11.46-15.42,3.07-1.07,7.05-1.21,7.05-.24,0,.38.5.69,1.11.69.85,0,1-.43.68-1.89-1.14-5-1.15-6.31-.07-10,2.21-7.62,8.73-12.15,16-11.15C243,.45,249,3.13,251.63,5a4.53,4.53,0,0,1,.48,1.43c.15.72.61,2.38,1,3.69,1.68,5.56.65,9.58-2.71,10.65-1,.32-1.37,1-1.37,2.79,0,2.05.22,2.35,1.73,2.35a19.21,19.21,0,0,0,4.51-.86c2.19-.67,2.86-1.26,3.16-2.76.52-2.54,1.58-3.09,1.58-.82,0,1.25.44,1.94,1.38,2.18.75.2,1.37.64,1.37,1s9.13.61,20.58.61c17.84,0,20.59.13,20.59,1,0,.57.31,1,.68,1s.69-1.69.69-3.77.31-3.77.69-3.77.68,1.36.68,3c0,2.63.21,3.07,1.55,3.26,1.15.16,1.5.62,1.37,1.81l-.17,1.58,9.78-.21c9.39-.21,9.77-.17,9.77,1.15,0,1.16-.58,1.43-3.65,1.74-2,.2-3.82.1-4-.24s-4-.49-8.48-.36c-7,.2-8.16.39-8.44,1.43s-1.3,1.21-8.84,1.21H287l-3.2,3.15c-3.55,3.5-3.84,4.8-2.24,10.12,1,3.18.95,3.2-.73,3.63-1.87.46-3,2.64-3,5.83,0,2.52-5.49,8.53-8.61,9.43-2.84.81-8.44-.75-14.59-4.06-2.77-1.49-5.13-2.72-5.25-2.72a4.46,4.46,0,0,0-.54,1.75c-.25,1.31.19,2.28,1.72,3.81l2.06,2.06-.5,9c-.64,11.54-1.82,14.43-5.72,14.09l-2.53-.22.11,3.25c.09,2.77.56,3.78,3.18,6.86,3.58,4.22,8.44,13.12,11.15,20.42,1,2.83,2.47,5.66,3.17,6.29a4.1,4.1,0,0,1,1.26,2.58,6.13,6.13,0,0,0,.82,2.75c.63,1,.6,3.41-.17,10.8a139.32,139.32,0,0,0-.77,15.08c.13,3.46-.07,5.77-.52,6.05s-.73,3-.73,6.76v6.3l3.6,3.89c2.49,2.69,4.62,4.26,6.89,5.08,1.81.66,3.59,1.74,3.95,2.41a3.58,3.58,0,0,1-1,4.22c-1.31.9-13,.55-16.38-.49a27.42,27.42,0,0,0-7.06-.9c-5.56.15-6.14-.69-4.68-6.71s1.87-15.93.71-17.79c-1.07-1.71-2.31-8.58-2.87-15.82-.35-4.57-.24-5.68.66-6.43,1.2-1,1.53-7.22.47-8.88-.32-.51-1.85-1-3.4-1.07a9.76,9.76,0,0,1-3.06-.44c-.13-.16-2.49-3.58-5.24-7.6-4-5.85-5.4-7.39-7-7.71a4.91,4.91,0,0,1-3.18-2.47c-1.33-2.34-2.2-2.66-2.2-.82a5.12,5.12,0,0,1-1.67,2.82c-1.92,1.8-5.57,10.61-6.26,15.1a7.34,7.34,0,0,1-2.45,4.79,5.94,5.94,0,0,0-2,2.54,5.54,5.54,0,0,1-1.76,2.42c-2.35,2.16-3.23,4.35-3.41,8.55a24.73,24.73,0,0,1-2.5,8.58c-1.29,2.79-2.78,6.41-3.31,8.05-.61,1.91-1.5,3.19-2.47,3.56-2.25.86-4.39,7.16-4.39,12.9,0,2.56.33,5,.73,5.38a4.74,4.74,0,0,1,.52,3l-.23,2.32-6.53.19c-4.49.14-6.79-.06-7.37-.65ZM271.37,40.74c1.2-2.38.71-4.51-1-4.51-1.32,0-3,1.59-2.38,2.23.21.21-.57.94-1.72,1.63-2.46,1.45-2.48,1.51-.92,4.77l1.19,2.49,1.93-2.3a26.8,26.8,0,0,0,2.93-4.31ZM13.19,161.85a16.64,16.64,0,0,1-11.83-9.52c-1.44-2.88-1.47-3.55-1.27-25.79l.2-22.83,2.08-3.35a22.26,22.26,0,0,1,5-5.44l3-2.08H65.69l3,2.15c3.55,2.55,6.59,7.21,6.89,10.55l.21,2.4-28.3.18-28.31.18V146h57l-.47,2.58c-1,5.33-3.4,8.6-8.86,11.89l-2.74,1.66-24.36.12c-13.4.07-25.35-.12-26.56-.42Zm88.66,0c-6.32-1.54-12.7-8.44-12.7-13.75,0-1.38.3-1.39,30.2-1.39h30.19V134.36h-24.4c-27,0-26.13.13-31.28-4.64-3.74-3.46-5.39-8.31-5.39-15.85s1.38-12.39,4.62-16c5-5.51,4.28-5.4,34.32-5.4h26.65l3.72,2.23c4,2.42,7.29,6.87,7.67,10.47l.21,2-29.67.18-29.68.18V119.2l24.53.2c23.62.2,24.63.26,27.28,1.69a18.79,18.79,0,0,1,7.64,7.78c1.07,2,1.27,3.92,1.26,11.66,0,8.95-.08,9.39-2,12.94a16.33,16.33,0,0,1-11.4,8.35c-4.05.76-48.61.79-51.74,0Zm195-1a16.2,16.2,0,0,1-9.22-7.6l-1.91-3.43V103.14l1.88-3.2a17.44,17.44,0,0,1,11.21-8.14c2.38-.49,12.29-.68,28.56-.54,24,.2,25,.26,27.7,1.7,3.54,1.9,7,5.41,8.25,8.37,1.89,4.5,4.07,4.21-30.94,4.21H300.5V147.4h48.72V133.09L336,132.87c-12.11-.21-13.45-.36-16.07-1.76-3.05-1.63-5.13-4.09-6.78-8l-1-2.45h52.25L364.18,136,364,151.4l-2.08,3a22.08,22.08,0,0,1-5.44,5l-3.35,2.07-26.82.16c-21.31.12-27.34,0-29.41-.79Zm92,0a14.41,14.41,0,0,1-6.33-4.16c-4.69-4.64-5.32-8.75-5-33,.21-17.78.33-19.39,1.67-22.25a16.91,16.91,0,0,1,8.5-8.51c2.91-1.36,4.41-1.45,26.08-1.66,23.56-.23,28.42.14,32.23,2.49a17.35,17.35,0,0,1,6.35,7.12c1.53,2.9,1.56,3.4,1.56,25.62v22.67l-1.75,3.4c-2,3.84-6.28,7.48-10.11,8.54-4,1.12-49.93.89-53.16-.27Zm49.58-34v-22H393.13v21.5c0,11.83.21,21.71.46,22s10.44.46,22.64.46h22.19ZM471.81,101a5.4,5.4,0,0,1-.48-2.57l0-2.12-1,2.23c-.53,1.23-1.15,2.23-1.37,2.23s-.85-1-1.38-2.23l-1-2.23,0,2.23c0,1.23-.33,2.23-.71,2.23s-.69-1.54-.69-3.43c0-4.21,1.41-4.63,2.87-.85l1,2.57.86-2.57c1.34-4,2.82-3.36,2.82,1.2,0,3.81-.09,4.14-.91,3.31ZM460.38,97.7c0-2.32-.29-3.12-1.2-3.36-.66-.17.19-.31,1.88-.31s2.55.14,1.89.31c-.92.24-1.2,1-1.2,3.36,0,1.67-.31,3-.69,3s-.68-1.36-.68-3Z"/>
  </g>
</svg>
