<svg id="1c1287de-a319-44b8-9a45-60aea2bc43fe" data-name="svg8" xmlns="http://www.w3.org/2000/svg" width="442.65" height="247.37" viewBox="0 0 442.65 247.37">
  <title>15</title>
  <g id="715e2d22-bd1d-465c-a536-35f00697533d" data-name="layer1">
    <path id="59e9b56e-8de6-4999-862d-df4f2303b21b" data-name="path211" d="M61.84,123.68,0,0H49.88l36.9,73.8c20.29,40.59,37.13,73.81,37.41,73.81s17.12-33.22,37.41-73.81L198.5,0h49.89L234.7,27.36,221,54.72l3.76.62c2.07.35,38.81.69,81.64.78s91,.43,107.06.77l29.18.63L407,124.7c-19.62,37-35.81,67.34-36,67.52-.52.58-129.09.22-174.73-.48l-43.44-.68-14.07,28.15c-7.73,15.49-14.3,28.16-14.58,28.16S95.85,191.71,61.84,123.68Zm333.47,2.8C411.86,95.27,425.68,69,426,68.12c.55-1.46-5.78-1.68-65.86-2.29-36.56-.37-84-.68-105.4-.68H215.81l-29,58c-16,31.91-29,58.25-29,58.52,0,.49,34.66.79,151.82,1.3l55.63.24ZM191,164.84c-3.41-2.68-3.62-8.35-.52-14.48,8.35-16.53,30.54-54.93,33.79-58.46a41.42,41.42,0,0,1,10.12-7.38l6.16-3.08h60.85l2.5,2.5c3.53,3.53,3.27,8.69-.84,16.33l-3.28,6.11-8.4.29-8.4.3v-2.89c0-5.11-.92-5.34-21.68-5.34-21,0-24.37.71-28.09,6-2.31,3.26-20.85,36.55-21.81,39.14a5.34,5.34,0,0,0,.37,3.82c1,1.84,2.34,2,21.22,2,19.32,0,20.32-.1,23.63-2.32,3.1-2.09,10.08-11.22,10.08-13.19,0-.43-5.16-.82-11.46-.87s-13.57-.39-16.17-.76l-4.73-.67,4.34-7.62c2.93-5.13,5.14-7.84,6.77-8.3,3.18-.89,38.88-.92,44.28,0l4.2.69L284,134.37c-11,19.73-16,25.78-24.8,29.93L253.6,167h-30c-28.76,0-30.06-.09-32.63-2.11Zm88.25-.52c-4.65-4.64-3.45-7.93,14.36-39.62C311,93.83,314.4,89.31,324.13,84.45l6-3h30.26c28.28,0,30.42.13,32.67,1.94,1.93,1.57,2.4,2.91,2.38,6.87,0,4.48-1.5,7.53-16.28,33.43-8.94,15.68-18,30.44-20.18,32.81a41.82,41.82,0,0,1-10.1,7.38L342.73,167H281.88Zm67.58-17.52c3.59-2.57,25.74-40.25,25.74-43.8,0-4-2-4.39-23.17-4.06-20.07.31-20.3.34-23.74,3-2.41,1.84-6.87,8.69-14.43,22.13-6,10.71-10.94,20.29-10.94,21.31,0,4.11,1.64,4.4,22.9,4.08C342.55,149.15,343.73,149,346.84,146.8ZM420.42,46.39c0-3.43-.42-4.61-1.78-5-1-.26.28-.47,2.8-.47s3.78.21,2.8.47c-1.36.36-1.78,1.54-1.78,5,0,2.48-.46,4.51-1,4.51S420.42,48.87,420.42,46.39Zm6.11,0c0-6.08,1.63-6.72,3.73-1.45L432,49.24,433.8,45c1-2.34,2.05-4.26,2.36-4.26s.47,2.4.39,5.34c-.13,4.14-.27,4.54-.6,1.79l-.43-3.57-1.39,3.31c-1.7,4-2.79,4.17-4.24.51l-1.11-2.8-.11,2.8c-.18,4.69-2.14,3.12-2.14-1.72Z"/>
  </g>
</svg>
