<svg id="0d026781-794a-412b-935e-e37ee51b8c6f" data-name="svg8" xmlns="http://www.w3.org/2000/svg" width="352.7" height="354.53" viewBox="0 0 352.7 354.53">
  <title>17</title>
  <g id="5767022a-cd92-4407-ae06-f7ef49288246" data-name="layer1">
    <path id="64ed6c30-3acc-4328-9675-055b3cb99a7b" data-name="path237" d="M147.91,351.05a36.86,36.86,0,0,1-4.95-6.84c-.94-1.85-1.85-3.52-2-3.72s-1.7.36-3.41,1.23a6.78,6.78,0,0,1-5.3.71,32.6,32.6,0,0,0-8.21-1c-3.31-.06-6.83-.73-7.82-1.49-1.45-1.1-4.57-1.09-15.81,0-9.39.95-14.36,1.06-15.1.32-1.63-1.63-9.51-1.32-13,.51-2.48,1.29-3.16,1.32-3.61.16s-4.54-1.32-19.92-.86c-10.65.32-22.32.55-25.93.52-7.73-.08-19-3.15-19.9-5.39-.33-.86-.07-5.13.58-9.48.87-5.74.85-13.07-.05-26.79C2,277.69,2.9,270.6,7.38,266.45c2.74-2.55,3.31-5.95,4.52-27l.55-9.49-3.58-2.5c-4.53-3.16-5.2-4.15-5.09-7.52.05-1.51-.28-10.25-.73-19.42-.74-14.83-.64-16.69.9-16.69,1,0,3.24-1.28,5.09-2.83,3-2.51,3.37-3.51,3.37-8.62,0-4-.54-6.24-1.81-7.29C6.33,161.55,4.37,149.56,7,142.77c1.36-3.58-1.5-21.68-4.54-28.79C1.28,111.37.6,108.85.88,108.39s.09-5.86-.45-12C-.18,89.32-.14,84,.54,81.74c4-13.12,5.7-51.09,2.46-56C1.49,23.4,1.43,22,2.56,15.35,4,6.8,4.28,6.58,13.5,6.72c2.71,0,15.76.07,29,.06,42.25,0,48.37.25,50.63,2.29,2.91,2.63,33.16,3.1,36.07.56a20.43,20.43,0,0,1,5.88-3,18,18,0,0,0,6.48-4L144.1,0h27.64c29,0,31.81.48,26.57,4.5-1.91,1.47-2.17,2.07-1,2.23,2.85.37,5.91.61,9.52.77,2.65.12,3.84.88,4.93,3.17,1.2,2.52,2.24,3.06,6.33,3.36a40.88,40.88,0,0,0,8.35-.3c3-.56,3.58-1.25,4.23-4.71C232.31.37,231.33.69,253,1.55c46,1.81,47.3,2,48.84,8.07l.76,3,3.08-3.66c2-2.39,4-3.62,5.64-3.53,25.17,1.3,29.62,1.81,30.87,3.52.72,1,3.2,2.59,5.5,3.55l4.19,1.75-.72,8.49c-1.12,13.41-1.11,14.45.27,25.68,1.35,11.06,1.52,38.67.34,59.4l-.68,12L347.51,121c-5.33,1.72-6.38,3.15-4.81,6.58,1.17,2.57,1,3.26-2,6.63-1.82,2.07-3.31,4.52-3.31,5.43s1.9,4.47,4.21,7.9c4.86,7.19,6.07,12.68,6,27-.17,22.36,0,21.1-3.64,23-4.21,2.18-3.14,4,2.09,3.68,2.22-.16,4.63.08,5.36.53,1,.64,1.34,16.78,1.32,70.52,0,38.33-.43,70.35-.94,71.16-.75,1.19-1.77,1-5.36-.79-6.86-3.5-13.17-4.91-22.31-5s-11.51.95-7.75,3.47c1.35.91,2.46,2,2.46,2.49,0,2.31-14.84,3.08-36.36,1.89-6.28-.34-10.5-1.14-12.31-2.33-2.43-1.59-3.05-1.62-5.22-.23-3.72,2.39-19.81,3.84-42.74,3.88-17.83,0-21.22.31-25.3,2.11-2.59,1.15-5.05,2.63-5.47,3.3-1.14,1.85-6.2,1.46-8.53-.64-1.56-1.42-2.51-1.59-3.92-.71a4,4,0,0,1-3.5.34c-6.44-3.25-11-4.49-14.1-3.81-1.87.41-3.4,1.2-3.4,1.75,0,1.41-4.12,5.39-5.58,5.39-.66,0-2.66-1.57-4.45-3.48Zm-46.32-59.48a106.23,106.23,0,0,1,13.6-4.38c3.87-.91,7.56-2.09,8.21-2.62s4-1.79,7.52-2.8,6.2-2.23,6-2.7-6.2-6.22-13.37-12.77C110.27,254.17,103.79,248,80.5,225l-13.2-13-3.5,7.55c-9.53,20.61-18.56,44.4-18.56,48.9,0,3.58.52,4.45,3.83,6.4,2.1,1.25,3.83,2.6,3.83,3s1.59,1.69,3.53,2.84a70,70,0,0,1,13.18,11.24c2.09,2.26,3.24,2.46,13.85,2.44,9.8,0,12.57-.44,18.13-2.75Zm188.53-2.23c5.58-3.9,17.78-37.46,21.07-57.91.87-5.45.85-5.5-3.7-9.6-8.37-7.55-25.05-18-31.13-19.5-3.61-.89-5.6-1.92-5.28-2.73.59-1.54-4.34-6.47-9.67-9.66-4.94-3-41-27.26-43.83-29.56-3.68-3-15.71-10.47-16.78-10.47a4.83,4.83,0,0,1-2.5-1.79c-1.5-1.81-2.71-2.68-19-13.53-5-3.31-11.11-7.5-13.66-9.3s-7.27-5-10.46-7.11-10.67-7.11-16.59-11.11A164.75,164.75,0,0,0,124,98c-8.61-4-18.19-10.36-20.24-13.52A20.73,20.73,0,0,0,97,78.81C94.42,77.52,92,76,91.63,75.33s-4.78-3.78-9.77-7-9.39-6.37-9.78-7c-1.19-1.93-12.32-1.34-16.77.89a88.26,88.26,0,0,1-9.8,3.92c-3.16,1-5.74,2.21-5.74,2.61,0,.85,6.62,7.91,31.61,33.73,10,10.33,19.51,20.39,21.15,22.36S103,136,112.23,145.13s17.45,17.55,18.36,18.57c10.44,11.81,26.5,29,29.5,31.62a77.35,77.35,0,0,1,7,7.11c1.79,2.11,9.44,10,17,17.51s15.21,15.64,17,18.05a53.6,53.6,0,0,0,4.48,5.47c.68.61,6.67,7,13.3,14.23s15.7,16.87,20.16,21.45l8.1,8.33,11.47,1.34c6.31.74,12.21,1.49,13.11,1.67,5.45,1.09,16.15.42,18.38-1.14Zm-8.34-177.18c1-7.22,2.36-15.84,3-19.15a90.26,90.26,0,0,0,1.15-12.23l.08-6.21-7.38-4.78C265.47,61.3,264.36,61,255.1,63.52c-4.39,1.19-10.68,2.7-14,3.35a44.43,44.43,0,0,0-8.75,2.57A44.76,44.76,0,0,1,223,72a61.13,61.13,0,0,0-10.17,2.61l-3.54,1.46,5.64,4.37,9.84,7.66c2.32,1.81,6.5,5,9.3,7.12s8.23,6.29,12.06,9.3c12.41,9.74,25.84,19.67,27.66,20.46a9.48,9.48,0,0,0,3.95.54c1.91-.19,2.39-1.78,4-13.34Z"/>
  </g>
</svg>
