<svg id="2c17a115-0428-4507-8888-2817a41fc521" data-name="svg8" xmlns="http://www.w3.org/2000/svg" width="179.05" height="199.7" viewBox="0 0 179.05 199.7">
  <title>menu-icon-logout</title>
  <g id="fd51abcb-e15b-40c8-bf6a-6dbfd45874e2" data-name="layer1">
    <path id="dbf7bebc-4500-4b79-8942-e379b3121ca6" data-name="path198" d="M74,198.66c-35.2-6.85-62.49-32.21-71.68-66.6-2.91-10.89-3.16-31.7-.52-42.33A95.1,95.1,0,0,1,26,46.54C33.56,39,46.68,30.06,50.22,30.06a10.27,10.27,0,0,1,10.26,10c0,4.31-1.88,6.7-8.95,11.37A75,75,0,0,0,22.88,88.56c-2.48,7.16-2.77,9.37-2.77,21,0,9.78.46,14.49,1.85,19C29.43,152.9,46.7,170.18,71,177.62c8.4,2.58,28.59,2.58,37,0,24.32-7.44,41.59-24.72,49.06-49.06,1.39-4.51,1.85-9.22,1.85-19,0-11.63-.29-13.84-2.77-21a75,75,0,0,0-28.64-37.13c-7.08-4.67-9-7.06-9-11.37a10.27,10.27,0,0,1,10.26-10c3.55,0,16.66,8.93,24.21,16.48a95,95,0,0,1,24.18,43.19c2.64,10.63,2.39,31.44-.52,42.33-8.45,31.65-33.43,56.75-64.67,65-10.28,2.72-28.32,3.47-38,1.59Zm8.9-112-3.4-3.4V6.86l3.4-3.4c4.61-4.61,8.58-4.61,13.2,0l3.4,3.4v76.4l-3.4,3.4c-2.45,2.45-4.3,3.4-6.6,3.4S85.38,89.11,82.93,86.66Z"/>
  </g>
</svg>
