<svg id="24a960db-bc8e-4358-b6e3-073c01769177" data-name="svg8" xmlns="http://www.w3.org/2000/svg" width="180" height="180.06" viewBox="0 0 180 180.06">
  <title>menu-icon-trade-history</title>
  <g id="d5094122-4a32-4725-be54-4fd768b2e751" data-name="layer1">
    <path id="7e8aab7b-d597-48e7-86d9-32ded8922ebc" data-name="path172" d="M3.4,176.66,0,173.26V6.86l3.4-3.4C8-1.15,12-1.15,16.6,3.46L20,6.86v153.2H160v-140H46.8l-3.4-3.4c-4.61-4.61-4.61-8.59,0-13.2L46.8.06H173.2l3.4,3.4,3.4,3.4v166.4l-3.4,3.4-3.4,3.4H6.8Zm40-50c-4.61-4.61-4.61-8.59,0-13.2l3.4-3.4h56.4l3.4,3.4c2.45,2.45,3.4,4.29,3.4,6.6s-1,4.15-3.4,6.6l-3.4,3.4H46.8Zm0-30c-4.61-4.61-4.61-8.59,0-13.2l3.4-3.4h86.4l3.4,3.4c4.61,4.61,4.61,8.59,0,13.2l-3.4,3.4H46.8Zm0-30c-4.61-4.61-4.61-8.59,0-13.2l3.4-3.4h86.4l3.4,3.4c4.61,4.61,4.61,8.59,0,13.2l-3.4,3.4H46.8Z"/>
  </g>
</svg>
