<svg id="82750ed8-6ac7-4363-9178-7277b29e6b87" data-name="svg8" xmlns="http://www.w3.org/2000/svg" width="179.34" height="179.5" viewBox="0 0 179.34 179.5">
  <title>menu-icon-user</title>
  <g id="6ca1a21b-66dc-4326-bbab-a6f91c30e9ca" data-name="layer1">
    <path id="dbe6c487-d8df-4526-ac87-0aa7eb668221" data-name="path185" d="M3.4,176.1c-1.87-1.87-3.4-4.11-3.4-5,0-2.14,9.82-69,10.57-72a10.78,10.78,0,0,1,2.76-4.38C16,92.21,47.28,79.5,50.7,79.5c3.63,0,9.3,6,9.3,9.82,0,5.48-3.83,8.49-18,14.18-7.15,2.87-13,5.31-13,5.42s-1.58,10.85-3.5,23.87S22,157.14,22,158c0,1.35,7.77,1.52,68,1.52,64.55,0,68-.09,68-1.78,0-4.09-6.93-47.54-7.68-48.16a52.87,52.87,0,0,0-7.82-2.8l-17.45-5.33-10.44-3.21L105.05,89,95.5,79.78l-7.79-.57c-15-1.09-26.79-9-33.48-22.55-3.52-7.13-3.73-8.09-3.73-17.11,0-8.65.3-10.18,3.16-16.23C58.07,14,63.74,8.23,72.84,3.73,80,.21,80.92,0,90,0s10,.21,17.16,3.73c9.1,4.5,14.77,10.29,19.18,19.59,2.86,6,3.16,7.59,3.16,16.18s-.31,10.15-3.14,16.12a53.67,53.67,0,0,1-6.92,10.82l-3.79,4.19,5.43,5.31c5.39,5.28,5.51,5.33,24.42,11,11.4,3.42,19.88,6.53,21.21,7.76,2.69,2.5,3,4,8.87,44,5.11,34.8,5.09,35.74-.53,39.06-2.62,1.55-9.7,1.69-85.55,1.69H6.8ZM101,56.13c6-4,8.51-8.93,8.51-16.63s-2.56-12.69-8.8-16.82c-5.58-3.69-15.35-3.83-21-.31A20.62,20.62,0,0,0,71,45.31c1.38,5.11,7.5,11.66,12.26,13.12C88.45,60,96.7,59,101,56.13Z"/>
  </g>
</svg>
