<svg id="585f4a54-4bee-4f67-97cb-8f5c6f768847" data-name="svg8" xmlns="http://www.w3.org/2000/svg" width="200.12" height="179.92" viewBox="0 0 200.12 179.92">
  <title>menu-icon-trade-link</title>
  <g id="3ae4fd80-9e89-46e7-82a8-4349ebb96965" data-name="layer1">
    <path id="25edd953-1e70-4a95-bfe7-311912c1e5e0" data-name="path159" d="M103.7,176.56l-3.4-3.4V130H67.1l-3.4-3.4c-4.61-4.61-4.61-8.58,0-13.2l3.4-3.4h46.4l3.4,3.4,3.4,3.4v28.7l27.75-27.75L175.8,90,148.05,62.21,120.3,34.47V48.26c0,19.8-.61,20.59-17.29,22.68C84.27,73.29,67.22,79,54.47,87.28,33.27,101,22.36,122.14,20.59,153c-.59,10.16-.72,10.61-3.85,13.75-4.49,4.51-8.47,4.42-13.19-.3L0,162.86l.62-10.7c2-33.94,14.45-60.46,36.32-77.09C49.81,65.29,71,56.44,89.8,53c3.3-.61,7-1.32,8.25-1.59l2.25-.48V6.76l3.4-3.4c3.74-3.74,7-4.3,11.4-2,4.7,2.48,84,82.78,84.74,85.82a13.76,13.76,0,0,1,0,5.5c-.76,3-80,83.34-84.74,85.83-4.41,2.32-7.66,1.76-11.4-2Z"/>
  </g>
</svg>
