<svg id="2c9ca72b-77b9-463d-a653-7c88546a7d3c" data-name="svg8" xmlns="http://www.w3.org/2000/svg" width="199.88" height="199.88" viewBox="0 0 199.88 199.88">
  <title>reload</title>
  <g id="c2cdadb8-f932-408a-84f5-430da8018ed9" data-name="layer1">
    <path id="0dd5fea8-a08e-492a-b266-f477840852e4" data-name="path21" d="M83.34,197.07c-6.75-5-32.23-31.62-32.95-34.46-1.28-5.11.58-7.92,14.86-22.48,21.41-21.82,24.57-23.51,31.29-16.79,5.82,5.82,4.8,9.27-6,20.35l-6.07,6.25h25.17c14.51,0,27.41-.47,30.47-1.11,18.74-3.91,34.79-20,38.69-38.69,3-14.42-.4-28.82-9.75-41.18-4.3-5.67-5.26-10.06-3.11-14.08,1.33-2.48,6.11-4.94,9.6-4.94,4.26,0,11.36,8.12,16.75,19.15,10.1,20.68,10.08,40.78-.06,61.8-3.84,7.94-5.94,10.83-13.24,18.13s-10.18,9.4-18.13,13.24c-14,6.75-20.09,7.68-50.63,7.68H84.5l6.07,6.25c10.77,11.07,11.79,14.53,6,20.35-4.28,4.28-7.9,4.43-13.2.53ZM16.85,145c-2.9-3-6.49-8.52-9.29-14.25C-2.54,110.1-2.52,90,7.62,69,11.45,61,13.56,58.15,20.86,50.86S31,41.45,39,37.62c14-6.76,20.09-7.68,50.63-7.68h25.76l-6.08-6.25c-10.77-11.08-11.78-14.53-6-20.35,4.28-4.28,7.9-4.43,13.2-.53,6.75,5,32.23,31.61,32.94,34.45,1.29,5.12-.57,7.93-14.85,22.48-21.42,21.82-24.57,23.52-31.29,16.8-5.82-5.82-4.81-9.28,6-20.35l6.08-6.25H90.21c-14.51,0-27.42.47-30.47,1.1A49.46,49.46,0,0,0,34.85,64.85C16.6,83.1,15,110,30.8,130.91c5.91,7.82,5.61,14.18-.84,17.52-5.19,2.68-7.95,2-13.11-3.39Z"/>
  </g>
</svg>
