<svg id="3faa8146-ece9-45ce-85e5-84750ebe5719" data-name="svg8" xmlns="http://www.w3.org/2000/svg" width="179.37" height="179.38" viewBox="0 0 179.37 179.38">
  <title>search</title>
  <g id="de537336-3a26-4629-a439-e93b73f7b668" data-name="layer1">
    <path id="445020a6-5ebe-4c6f-af6c-13d9cbb1ca7a" data-name="path47" d="M162.78,176.56c-7.35-5.43-51.21-50.51-51.92-53.38-1-4.08.09-7.12,4.51-12.22a58.35,58.35,0,0,0,11.17-19.1c3.11-8.49,3.11-26.35,0-34.84-6.13-16.74-18.59-29.13-35-34.75-9.44-3.25-24.89-3.26-34.3,0a56.23,56.23,0,0,0-35.06,35C19,66.74,19,82.14,22.21,91.63c6.24,18.17,21,31.59,40.14,36.41,6.41,1.61,13.88,1.56,27.84-.2,4.9-.61,5.53-.45,8.25,2.15,2.32,2.23,2.94,3.69,2.94,6.91a13.16,13.16,0,0,1-1.54,6.3c-2.68,3.82-11.31,5.7-26,5.66-12,0-13.73-.29-22.5-3.29a73.43,73.43,0,0,1-30.11-18.8c-10-10.35-15.76-20.54-20-35.33-1.69-5.9-1.69-28.1,0-34C9.34,29.31,27.19,10.78,54.38,2.3,60.6.37,64,0,74.38,0c12.92,0,16.69.73,28,5.16,16,6.25,30.85,20,38.52,35.65,6.49,13.22,8,19.72,7.9,34.63-.05,11.38-.34,13.35-3.29,22a94.1,94.1,0,0,1-7.25,15.92l-4,6.42,20.94,21.08c11.51,11.59,21.67,22.19,22.57,23.55,2.64,4,2.06,7.8-1.77,11.63-4.28,4.29-7.9,4.43-13.2.52Z"/>
  </g>
</svg>
