<svg id="2ed23657-dba4-4c4c-a02d-0c7814bb34af" data-name="svg8" xmlns="http://www.w3.org/2000/svg" width="170" height="160" viewBox="0 0 170 160">
  <title>send</title>
  <g id="4ab4a7d0-6e52-45b2-86b6-1bfcd53e240d" data-name="layer1">
    <path id="11b371aa-32e5-4e1c-accc-5f926ee30e8a" data-name="path73" d="M3.4,156.6c-1.87-1.87-3.4-4.32-3.4-5.45s4.7-18.61,10.44-38.85C20,78.65,21.14,75.26,24,72.75L27,70H73.2l3.4,3.4C79.05,75.85,80,77.69,80,80s-1,4.15-3.4,6.6L73.2,90H37.4l-5.74,20.13c-3.15,11.07-5.53,20.33-5.28,20.58C27,131.33,135,80.89,135,80c0-.71-109.26-52-109.78-51.52-.15.13,1,5.2,2.43,11.25,3.06,12.45,2.64,15.5-2.6,18.59s-10.79,1.55-13.46-3.68C9.85,51.21,0,12.39,0,8.94,0,5.88,6.2,0,9.43,0c1.45,0,37.41,16.23,79.92,36.07C170.79,74.06,170,73.64,170,80s.88,6-80.69,44c-42.51,19.82-78.46,36-79.9,36-1.64,0-3.88-1.27-6-3.4Z"/>
  </g>
</svg>
