<svg id="e6d70e2b-e123-4384-a624-a1894d3b4a5d" data-name="svg8" xmlns="http://www.w3.org/2000/svg" width="198.86" height="199.68" viewBox="0 0 198.86 199.68">
  <title>6</title>
  <g id="a13fd1a3-cda5-4e17-a028-efa9107a04e9" data-name="layer1">
    <path id="ca13abde-ac32-4419-b6b1-c714a39d421b" data-name="path94" d="M93,196.14l-3.54-3.55V154.94c0-40.83.13-41.92,5.47-44.35,5.13-2.34,10.72-.65,13.1,4,1.14,2.21,1.43,8.82,1.43,33.3,0,34.38-.79,31.47,8,29.49,22.29-5,43.11-21.45,53.74-42.44,6.58-13,9.65-32.71,7.36-47.33a80.63,80.63,0,0,0-52.83-63.64C71.93,5.12,16.17,47.49,19.82,104.39c1,15.23,5.11,27.43,13.41,39.65,5.57,8.2,16.83,18.51,26.11,23.9,9.91,5.76,12.07,9.8,8.7,16.31a10.45,10.45,0,0,1-8.9,5.14c-2.76,0-16.26-7.61-22.52-12.69A102.21,102.21,0,0,1,1.84,120.89c-2.23-9.67-2.49-31.92-.48-41A102.26,102.26,0,0,1,80,1.28c7.76-1.71,31.24-1.71,39,0a102.27,102.27,0,0,1,78.61,78.61c1.71,7.76,1.71,31.24,0,39C187.69,163.75,151,195.78,105.76,199l-9.21.66ZM90,97.66C68.87,90.11,62.8,64.06,78.47,48.39c6.13-6.13,11.9-8.46,21-8.46s14.86,2.33,21,8.46,8.45,11.9,8.45,21-2.32,14.87-8.45,21C112.52,98.34,100.12,101.3,90,97.66ZM104.32,78c6.75-3.49,6.55-14.25-.33-17.38-9.08-4.14-17.91,5.07-13.13,13.69C93.48,79,99.25,80.59,104.32,78Z"/>
  </g>
</svg>
