<svg id="Layer_1" data-name="Layer 1" xmlns="http://www.w3.org/2000/svg" viewBox="0 0 93.43 83.67"><defs><style>.cls-1,.cls-2{fill:none;stroke:#bb8b50;stroke-width:0.75px;}.cls-1{stroke-miterlimit:10;}.cls-2{stroke-linecap:round;stroke-linejoin:round;}</style></defs><title>кщслуе</title><path class="cls-1" d="M52.11,46.87l-6,6.72a5,5,0,0,1-6.18-.5L15.9,31.75C12.77,29-4.25,8.63,1.58,2.07"/><path class="cls-1" d="M52.11,46.87l6-6.72a5,5,0,0,0-1.24-6.07L32.76,12.74C29.63,10,7.4-4.5,1.58,2.07"/><path class="cls-1" d="M21.55,12.65a5.51,5.51,0,1,1-7.78.46A5.51,5.51,0,0,1,21.55,12.65Z"/><path class="cls-1" d="M21,35.85s-7.11,10.92,9.38,25.54,19.35,6.4,13.17.92-2-8.28-2-8.28"/><path class="cls-1" d="M37.45,17.33s10-8.36,26.47,6.26,8.67,18.45,2.49,13S58,35.51,58,35.51"/><path class="cls-1" d="M60.74,42.33a2.35,2.35,0,0,1,.19,3.31L51.71,56a2.34,2.34,0,0,1-3.31.2l-.82-.73a2.35,2.35,0,0,1-.2-3.31l9.23-10.4a2.33,2.33,0,0,1,3.3-.19Z"/><path class="cls-2" d="M93.05,83.3S80.66,62.58,77.3,57.19c-4.52-7.27-9.26-3-12.62.83l-.12.13c-3.35,3.78-7.06,9,.69,12.63C71,73.47,93.05,83.3,93.05,83.3Z"/></svg>