<svg id="51b96a3b-6f52-40db-9615-f67ae3e5ab08" data-name="Layer 1" xmlns="http://www.w3.org/2000/svg" width="41.67" height="41.66" viewBox="0 0 41.67 41.66">
  <defs>
    <style>
      .\37 e89b7f3-d0dd-441e-bfd7-0a5b314053b0 {
        fill: #fff;
      }
    </style>
  </defs>
  <title>button--payment-apple-logo</title>
  <path class="7e89b7f3-d0dd-441e-bfd7-0a5b314053b0" d="M0,21a16.51,16.51,0,0,0,1.24,7.1.8.8,0,0,0,.71.45.75.75,0,0,0,.33-.07.78.78,0,0,0,.38-1,11.71,11.71,0,0,1-.93-3.48A20.47,20.47,0,0,1,.18,18.23,20.63,20.63,0,0,0,0,21Z"/>
  <path class="7e89b7f3-d0dd-441e-bfd7-0a5b314053b0" d="M3.66,32.39a.78.78,0,0,0,.61.92l.16,0a.78.78,0,0,0,.76-.62,18.24,18.24,0,0,0,.39-2.93A19,19,0,0,1,4,27.88,16.27,16.27,0,0,1,3.66,32.39Z"/>
  <path class="7e89b7f3-d0dd-441e-bfd7-0a5b314053b0" d="M34,31.74c-.06,1.29-.16,2.66-.3,4.12a.77.77,0,0,0,.7.85h.08a.79.79,0,0,0,.77-.71c.21-2.08.32-4,.36-5.74C35.13,30.78,34.59,31.28,34,31.74Z"/>
  <path class="7e89b7f3-d0dd-441e-bfd7-0a5b314053b0" d="M6.16,35a.79.79,0,0,0,.5,1l.24,0a.77.77,0,0,0,.74-.54,32.48,32.48,0,0,0,.86-3.14c-.48-.35-.94-.71-1.38-1.1A28.54,28.54,0,0,1,6.16,35Z"/>
  <path class="7e89b7f3-d0dd-441e-bfd7-0a5b314053b0" d="M29.59,38.57a.79.79,0,0,0,.52,1,.91.91,0,0,0,.23,0,.79.79,0,0,0,.75-.56,32.47,32.47,0,0,0,1.13-6,17.86,17.86,0,0,1-1.69,1A29.42,29.42,0,0,1,29.59,38.57Z"/>
  <path class="7e89b7f3-d0dd-441e-bfd7-0a5b314053b0" d="M25.35,40.24a.78.78,0,0,0,1.47.51,35.64,35.64,0,0,0,1.45-5.69c-.55.21-1.11.41-1.69.57A35.84,35.84,0,0,1,25.35,40.24Z"/>
  <path class="7e89b7f3-d0dd-441e-bfd7-0a5b314053b0" d="M11.72,38.73a.78.78,0,0,0,.71,1.11.8.8,0,0,0,.71-.45,26.45,26.45,0,0,0,1.47-3.88c-.5-.16-1-.35-1.47-.54A25.2,25.2,0,0,1,11.72,38.73Z"/>
  <path class="7e89b7f3-d0dd-441e-bfd7-0a5b314053b0" d="M14.77,39.91a.79.79,0,0,0,.39,1,.77.77,0,0,0,.32.07.79.79,0,0,0,.72-.46,31.75,31.75,0,0,0,1.6-4.34c-.52-.08-1-.16-1.55-.28A28.32,28.32,0,0,1,14.77,39.91Z"/>
  <path class="7e89b7f3-d0dd-441e-bfd7-0a5b314053b0" d="M21.78,40.59a.79.79,0,0,0,.43,1,1,1,0,0,0,.29,0,.79.79,0,0,0,.73-.49,31.49,31.49,0,0,0,1.55-5.1c-.54.1-1.1.19-1.66.25A30.26,30.26,0,0,1,21.78,40.59Z"/>
  <path class="7e89b7f3-d0dd-441e-bfd7-0a5b314053b0" d="M19.91,38.06a.78.78,0,0,0-1,.49l-.7,2.08a.79.79,0,0,0,.5,1,.73.73,0,0,0,.25,0,.78.78,0,0,0,.74-.53L20.4,39A.77.77,0,0,0,19.91,38.06Z"/>
  <path class="7e89b7f3-d0dd-441e-bfd7-0a5b314053b0" d="M11,33a.76.76,0,0,0-.88.49.93.93,0,0,0-.05.1l0,.11c-.29,1.16-1.23,3.52-1.24,3.55a.77.77,0,0,0,.44,1,.72.72,0,0,0,.29.06.79.79,0,0,0,.72-.49c0-.1.91-2.27,1.25-3.57l.06-.18,0-.15A.78.78,0,0,0,11,33Z"/>
  <path class="7e89b7f3-d0dd-441e-bfd7-0a5b314053b0" d="M39.14,27.7a.78.78,0,0,0-.81-.75h0a.78.78,0,0,0-.73.8,1.48,1.48,0,0,1,0,.21c0,.88.05,1.79.05,2.75a.78.78,0,1,0,1.56,0C39.19,29.66,39.17,28.65,39.14,27.7Z"/>
  <path class="7e89b7f3-d0dd-441e-bfd7-0a5b314053b0" d="M41.48,18.29a21.7,21.7,0,0,0-.64-3.15,21,21,0,0,1-1,2.72A19.85,19.85,0,0,1,40.1,21v.13a.78.78,0,0,0,.62.75,1,1,0,0,0,.17,0,.78.78,0,0,0,.78-.78V21A21.37,21.37,0,0,0,41.48,18.29Z"/>
  <path class="7e89b7f3-d0dd-441e-bfd7-0a5b314053b0" d="M1.82,17.86a20.7,20.7,0,0,1-1-2.7.67.67,0,0,1-.06.12,22.65,22.65,0,0,0-.59,3,20.57,20.57,0,0,0,1.55,5.69,23.89,23.89,0,0,1-.17-3A20.05,20.05,0,0,1,1.82,17.86Z"/>
  <path class="7e89b7f3-d0dd-441e-bfd7-0a5b314053b0" d="M37.32,23.9a.79.79,0,0,0,.78.71h.07a.78.78,0,0,0,.71-.85c-.12-1.27-.26-2.37-.4-3.34a19.42,19.42,0,0,1-1.33,1.89C37.21,22.8,37.27,23.33,37.32,23.9Z"/>
  <path class="7e89b7f3-d0dd-441e-bfd7-0a5b314053b0" d="M5.3,25.22c-.1-.73-.2-1.48-.26-2.29a19.6,19.6,0,0,1-1.65-2.19c0,.08,0,.15,0,.22a31,31,0,0,0,.37,4.46c.11.84.21,1.63.27,2.46a19,19,0,0,0,1.56,1.9A23.57,23.57,0,0,0,5.3,25.22Z"/>
  <path class="7e89b7f3-d0dd-441e-bfd7-0a5b314053b0" d="M35.5,24.16A18.7,18.7,0,0,1,34,25.49a61.46,61.46,0,0,1,0,6.25c.56-.46,1.1-1,1.61-1.47A60.76,60.76,0,0,0,35.5,24.16Z"/>
  <path class="7e89b7f3-d0dd-441e-bfd7-0a5b314053b0" d="M8.9,26.43a20.84,20.84,0,0,1-1.74-1.36,17.69,17.69,0,0,1,0,6.21c.44.39.9.75,1.37,1.1A18.76,18.76,0,0,0,8.9,26.43Z"/>
  <path class="7e89b7f3-d0dd-441e-bfd7-0a5b314053b0" d="M32.44,26.67c-.5.34-1,.65-1.55.94a44.3,44.3,0,0,1-.36,6.44,19.39,19.39,0,0,0,1.7-1A49.61,49.61,0,0,0,32.44,26.67Z"/>
  <path class="7e89b7f3-d0dd-441e-bfd7-0a5b314053b0" d="M10.68,30a.77.77,0,0,0,.78.77h0a.78.78,0,0,0,.78-.78c0-.59,0-1.12,0-1.62-.54-.24-1.07-.5-1.58-.79C10.66,28.22,10.67,29,10.68,30Z"/>
  <path class="7e89b7f3-d0dd-441e-bfd7-0a5b314053b0" d="M27.32,29.16a40.64,40.64,0,0,1-.74,6.47c.58-.16,1.14-.36,1.69-.57a42.36,42.36,0,0,0,.63-6.48C28.39,28.8,27.86,29,27.32,29.16Z"/>
  <path class="7e89b7f3-d0dd-441e-bfd7-0a5b314053b0" d="M14.07,29.06A24,24,0,0,1,13.14,35c.49.19,1,.38,1.48.54a25.32,25.32,0,0,0,1-6C15.09,29.38,14.57,29.23,14.07,29.06Z"/>
  <path class="7e89b7f3-d0dd-441e-bfd7-0a5b314053b0" d="M17.34,29.89a28.56,28.56,0,0,1-1.09,6c.51.12,1,.2,1.55.28a29.79,29.79,0,0,0,1.1-6.1C18.37,30.06,17.86,30,17.34,29.89Z"/>
  <path class="7e89b7f3-d0dd-441e-bfd7-0a5b314053b0" d="M24.66,31.25a.77.77,0,0,0-.83.73,28.43,28.43,0,0,1-.71,4.34c.56-.06,1.12-.15,1.66-.25a28.87,28.87,0,0,0,.61-4A.77.77,0,0,0,24.66,31.25Z"/>
  <path class="7e89b7f3-d0dd-441e-bfd7-0a5b314053b0" d="M20.59,30.19a36.33,36.33,0,0,1-.65,4.93.78.78,0,0,0,.6.93h.16a.78.78,0,0,0,.77-.62,39.45,39.45,0,0,0,.7-5.3c-.44,0-.88.06-1.34.06Z"/>
  <path class="7e89b7f3-d0dd-441e-bfd7-0a5b314053b0" d="M39.85,17.86a21,21,0,0,0,1-2.72A20.18,20.18,0,0,0,39.66,12c-.28.61-.6,1.2-.94,1.78A19.33,19.33,0,0,1,39.85,17.86Z"/>
  <path class="7e89b7f3-d0dd-441e-bfd7-0a5b314053b0" d="M1.74,14.74a.77.77,0,0,0-.91.42,20.7,20.7,0,0,0,1,2.7,17.65,17.65,0,0,1,.46-2.16A.78.78,0,0,0,1.74,14.74Z"/>
  <path class="7e89b7f3-d0dd-441e-bfd7-0a5b314053b0" d="M37.45,15.64a16.79,16.79,0,0,1-1.2,1.45,43.48,43.48,0,0,1,.9,5.21,19.42,19.42,0,0,0,1.33-1.89,37,37,0,0,0-.81-4.08C37.61,16.1,37.52,15.87,37.45,15.64Z"/>
  <path class="7e89b7f3-d0dd-441e-bfd7-0a5b314053b0" d="M5.42,17.1c-.42-.46-.83-1-1.21-1.46a17.56,17.56,0,0,0-.82,5.11A20.45,20.45,0,0,0,5,22.93C5,22.32,5,21.67,5,21A16.06,16.06,0,0,1,5.42,17.1Z"/>
  <path class="7e89b7f3-d0dd-441e-bfd7-0a5b314053b0" d="M33.37,19.73A42.51,42.51,0,0,1,34,25.49a18.7,18.7,0,0,0,1.48-1.33,42.33,42.33,0,0,0-.76-5.56C34.3,19,33.85,19.37,33.37,19.73Z"/>
  <path class="7e89b7f3-d0dd-441e-bfd7-0a5b314053b0" d="M8.33,21c0-.39,0-.78.06-1.16-.49-.36-1-.75-1.42-1.16A14.82,14.82,0,0,0,6.77,21a24.86,24.86,0,0,0,.33,3.66l.06.45A20.84,20.84,0,0,0,8.9,26.43c-.06-.71-.16-1.37-.25-2A23.11,23.11,0,0,1,8.33,21Z"/>
  <path class="7e89b7f3-d0dd-441e-bfd7-0a5b314053b0" d="M30.42,21.6a43.83,43.83,0,0,1,.47,6c.53-.29,1.05-.6,1.55-.94a41.36,41.36,0,0,0-.57-5.9C31.4,21.06,30.92,21.35,30.42,21.6Z"/>
  <path class="7e89b7f3-d0dd-441e-bfd7-0a5b314053b0" d="M11.75,21.85c-.55-.27-1.08-.56-1.59-.86a19.44,19.44,0,0,0,.18,2.54c.1.95.23,2.08.3,4,.51.29,1,.55,1.58.79a45.61,45.61,0,0,0-.33-5C11.83,22.82,11.78,22.35,11.75,21.85Z"/>
  <path class="7e89b7f3-d0dd-441e-bfd7-0a5b314053b0" d="M28.91,26c0-1.42-.14-2.6-.26-3.6-.49.2-1,.39-1.51.56.1.87.17,1.88.21,3.08s0,2.08,0,3.1a16.5,16.5,0,0,0,1.58-.58C28.92,27.74,28.93,26.88,28.91,26Z"/>
  <path class="7e89b7f3-d0dd-441e-bfd7-0a5b314053b0" d="M15.3,23.32c0-.05,0-.09,0-.14-.55-.15-1.09-.33-1.62-.52,0,.27.05.54.09.84a37.42,37.42,0,0,1,.31,5.56c.51.17,1,.32,1.55.46A38,38,0,0,0,15.3,23.32Z"/>
  <path class="7e89b7f3-d0dd-441e-bfd7-0a5b314053b0" d="M18.77,23.85c-.54-.05-1.07-.14-1.6-.24a34,34,0,0,1,.17,6.28c.52.09,1,.17,1.56.22A35.35,35.35,0,0,0,18.77,23.85Z"/>
  <path class="7e89b7f3-d0dd-441e-bfd7-0a5b314053b0" d="M24.09,28a.78.78,0,0,0,.78.78h0a.77.77,0,0,0,.78-.78,42.9,42.9,0,0,0-.3-4.54c-.51.11-1,.19-1.55.27A38.38,38.38,0,0,1,24.09,28Z"/>
  <path class="7e89b7f3-d0dd-441e-bfd7-0a5b314053b0" d="M22.11,23.89c-.43,0-.85.06-1.28.06h-.29a43.18,43.18,0,0,1,.06,6.25h.23c.46,0,.9,0,1.34-.06A43.23,43.23,0,0,0,22.11,23.89Z"/>
  <path class="7e89b7f3-d0dd-441e-bfd7-0a5b314053b0" d="M36.44,9.59a19.68,19.68,0,0,1,2.28,4.18c.34-.58.66-1.17.94-1.78a20.38,20.38,0,0,0-2.2-3.64C37.13,8.78,36.8,9.19,36.44,9.59Z"/>
  <path class="7e89b7f3-d0dd-441e-bfd7-0a5b314053b0" d="M2.21,11.56l0,.07a.73.73,0,0,0,.39,1,.63.63,0,0,0,.3.07.93.93,0,0,0,.78-.48A20.12,20.12,0,0,1,5.22,9.59c-.35-.4-.69-.81-1-1.24A21.06,21.06,0,0,0,2.21,11.56Z"/>
  <path class="7e89b7f3-d0dd-441e-bfd7-0a5b314053b0" d="M34,12a16.16,16.16,0,0,1,2.17,4.77l.09.34c.42-.46.82-.94,1.2-1.45a17.44,17.44,0,0,0-2.29-4.71C34.78,11.29,34.39,11.65,34,12Z"/>
  <path class="7e89b7f3-d0dd-441e-bfd7-0a5b314053b0" d="M7.69,12c-.41-.33-.8-.69-1.18-1.05a18.06,18.06,0,0,0-2.3,4.71c.38.51.79,1,1.21,1.46A16,16,0,0,1,7.69,12Z"/>
  <path class="7e89b7f3-d0dd-441e-bfd7-0a5b314053b0" d="M32.52,13.08c-.43.29-.89.55-1.34.81a13,13,0,0,1,1.77,4c.11.38.26,1,.42,1.88.48-.36.93-.73,1.37-1.13-.11-.52-.22-.94-.3-1.22A14.26,14.26,0,0,0,32.52,13.08Z"/>
  <path class="7e89b7f3-d0dd-441e-bfd7-0a5b314053b0" d="M9.15,13.08A14.3,14.3,0,0,0,7,18.64c.46.41.93.8,1.42,1.16a12.72,12.72,0,0,1,2.09-5.91C10,13.63,9.58,13.37,9.15,13.08Z"/>
  <path class="7e89b7f3-d0dd-441e-bfd7-0a5b314053b0" d="M31.17,18a.78.78,0,0,0-1.48.51,16,16,0,0,1,.53,2c.07.34.14.72.2,1.13.5-.25,1-.54,1.45-.83,0-.21-.08-.43-.12-.62A17.34,17.34,0,0,0,31.17,18Z"/>
  <path class="7e89b7f3-d0dd-441e-bfd7-0a5b314053b0" d="M13.61,15.35c-.51-.19-1-.39-1.49-.62a10.87,10.87,0,0,0-2,6.23v0c.51.31,1,.59,1.59.86,0-.28,0-.57,0-.89A9.27,9.27,0,0,1,13.61,15.35Z"/>
  <path class="7e89b7f3-d0dd-441e-bfd7-0a5b314053b0" d="M26.29,15.92c-.62.16-1.25.3-1.88.41a5.83,5.83,0,0,1,2.06,2.93A19.76,19.76,0,0,1,27.14,23c.52-.17,1-.36,1.51-.56A21.16,21.16,0,0,0,28,18.78,7.28,7.28,0,0,0,26.29,15.92Z"/>
  <path class="7e89b7f3-d0dd-441e-bfd7-0a5b314053b0" d="M20.83,16.92a4,4,0,0,0-3.9,4c0,.47.07,1.08.15,1.85,0,.25.06.52.09.8.53.1,1.06.19,1.6.24-.05-.43-.09-.84-.13-1.21-.08-.73-.15-1.3-.15-1.68a2.41,2.41,0,0,1,2.34-2.48,2.38,2.38,0,0,1,2.3,1.66,18.34,18.34,0,0,1,.67,3.58c.52-.08,1-.16,1.55-.27a17.05,17.05,0,0,0-.82-4A4,4,0,0,0,20.83,16.92Z"/>
  <path class="7e89b7f3-d0dd-441e-bfd7-0a5b314053b0" d="M20.81,20.32a.78.78,0,0,0-.61.92s.19,1,.34,2.7h.29c.43,0,.85,0,1.28-.06-.15-1.74-.36-2.84-.38-2.95A.79.79,0,0,0,20.81,20.32Z"/>
  <path class="7e89b7f3-d0dd-441e-bfd7-0a5b314053b0" d="M16.25,16.18a.6.6,0,0,0-.16-.08.89.89,0,0,0-.28-.07.76.76,0,0,0-.66.28A7.5,7.5,0,0,0,13.54,21a15.91,15.91,0,0,0,.12,1.7c.53.2,1.07.37,1.63.52A21.65,21.65,0,0,1,15.1,21a5.82,5.82,0,0,1,1.28-3.68A.79.79,0,0,0,16.25,16.18Z"/>
  <path class="7e89b7f3-d0dd-441e-bfd7-0a5b314053b0" d="M36.44,9.59c.36-.4.69-.81,1-1.24A20.79,20.79,0,0,0,34,4.7c-.42.34-.85.66-1.3,1A18.93,18.93,0,0,1,36.44,9.59Z"/>
  <path class="7e89b7f3-d0dd-441e-bfd7-0a5b314053b0" d="M9,5.66c-.45-.3-.88-.62-1.3-1A20.79,20.79,0,0,0,4.21,8.35c.32.43.66.84,1,1.24A19.81,19.81,0,0,1,9,5.66Z"/>
  <path class="7e89b7f3-d0dd-441e-bfd7-0a5b314053b0" d="M34,12c.4-.33.79-.69,1.17-1.05A17.51,17.51,0,0,0,31,6.71c-.51.28-1,.54-1.58.79A16,16,0,0,1,34,12Z"/>
  <path class="7e89b7f3-d0dd-441e-bfd7-0a5b314053b0" d="M28.28,8.92a.79.79,0,0,0-1.08.24.78.78,0,0,0,.25,1.08,12.52,12.52,0,0,1,3.73,3.66c.45-.26.91-.53,1.34-.82A14,14,0,0,0,28.28,8.92Z"/>
  <path class="7e89b7f3-d0dd-441e-bfd7-0a5b314053b0" d="M9.15,13.08c.43.29.88.55,1.33.81A12.5,12.5,0,0,1,16.88,9a22.35,22.35,0,0,1-2.47-.64A14.09,14.09,0,0,0,9.15,13.08Z"/>
  <path class="7e89b7f3-d0dd-441e-bfd7-0a5b314053b0" d="M29.19,14.23a10.59,10.59,0,0,0-17.07.5c.49.23,1,.43,1.49.62A9,9,0,0,1,28,15.19a.54.54,0,0,0,.16.14.78.78,0,0,0,.94,0,.79.79,0,0,0,.13-1.09Z"/>
  <path class="7e89b7f3-d0dd-441e-bfd7-0a5b314053b0" d="M20.83,13.54a7.08,7.08,0,0,0-2.33.39l-.15.05a.78.78,0,0,0,.54,1.47l.11,0a5.71,5.71,0,0,1,1.83-.3,6,6,0,0,1,3.58,1.23c.63-.11,1.26-.25,1.88-.41A7.52,7.52,0,0,0,20.83,13.54Z"/>
  <path class="7e89b7f3-d0dd-441e-bfd7-0a5b314053b0" d="M11.78,6.83a.78.78,0,0,0-1.09-.18l0,0a17.68,17.68,0,0,0-4.13,4.24c.38.36.77.72,1.18,1.05a15.75,15.75,0,0,1,3.92-4.06.78.78,0,0,0,.31-.57A.82.82,0,0,0,11.78,6.83Z"/>
  <path class="7e89b7f3-d0dd-441e-bfd7-0a5b314053b0" d="M23.71,1a.78.78,0,0,0,.63.91,19.12,19.12,0,0,1,8.34,3.79c.44-.31.87-.63,1.29-1A20.71,20.71,0,0,0,24.62.34.79.79,0,0,0,23.71,1Z"/>
  <path class="7e89b7f3-d0dd-441e-bfd7-0a5b314053b0" d="M20.58,1.56a.77.77,0,0,0,.77-.79A.77.77,0,0,0,20.57,0h0A20.66,20.66,0,0,0,7.69,4.7q.63.51,1.29,1A19.17,19.17,0,0,1,20.58,1.56Z"/>
  <path class="7e89b7f3-d0dd-441e-bfd7-0a5b314053b0" d="M20.83,3.38a17.12,17.12,0,0,0-6.41,1.23.77.77,0,0,0-.44,1,.78.78,0,0,0,1,.44A15.75,15.75,0,0,1,29.43,7.5C30,7.25,30.5,7,31,6.71A17.34,17.34,0,0,0,20.83,3.38Z"/>
  <path class="7e89b7f3-d0dd-441e-bfd7-0a5b314053b0" d="M20.83,8.33A12.69,12.69,0,0,1,24,8.74.77.77,0,0,0,25,8.19a.78.78,0,0,0-.55-1,14,14,0,0,0-10,1.12A22.35,22.35,0,0,0,16.88,9,12.35,12.35,0,0,1,20.83,8.33Z"/>
</svg>
