<svg xmlns="http://www.w3.org/2000/svg" width="48" height="48" viewBox="0 0 48 48">
    <g>
        <path d="M24.364 47.181C11.38 47.181.819 36.62.819 23.636.819 10.653 11.38.091 24.364.091c12.983 0 23.545 10.562 23.545 23.545 0 12.983-10.562 23.545-23.545 23.545zm0-45.999c-12.382 0-22.455 10.073-22.455 22.454 0 12.382 10.073 22.455 22.455 22.455 12.38 0 22.454-10.073 22.454-22.455 0-12.38-10.073-22.454-22.454-22.454z"/>
        <path d="M21.48 21.755l-.058-.405c9.926-1.43 15.406-7.105 17.302-9.477l.32.255c-1.927 2.41-7.493 8.175-17.564 9.627z"/>
        <circle cx="21.523" cy="21.517" r="1.538"/>
        <circle cx="38.826" cy="12.055" r="1.538"/>
        <path d="M15.568 40.544c-1.9-2.393-4.916-7.385-3.761-13.938l.402.072c-1.127 6.394 1.821 11.272 3.678 13.611l-.32.255z"/>
        <circle cx="12.006" cy="26.72" r="1.538"/>
        <circle cx="15.68" cy="40.354" r="1.538"/>
        <path d="M39.938 28.155l-.41-.012c.144-5.113-1.811-10.008-5.504-13.78-3.846-3.93-9.214-6.16-14.742-6.128l-.003-.409c5.63-.021 11.115 2.242 15.037 6.25 3.771 3.853 5.768 8.853 5.622 14.079z"/>
        <circle cx="39.706" cy="28.071" r="1.538"/>
        <circle cx="19.356" cy="8.059" r="1.538"/>
        <path d="M27.309 39.488c-12.34-.609-20.705-8.688-24.42-16.046C.157 18.032-.27 12.76 1.774 9.684 3.094 7.7 5.361 6.76 8.324 6.966l-.028.408c-2.817-.197-4.949.681-6.181 2.537C.152 12.865.588 17.978 3.253 23.257 6.916 30.513 15.165 38.48 27.33 39.08l-.02.409z"/>
        <circle cx="27.242" cy="39.257" r="1.538"/>
        <path d="M9.95 41.782C4.246 40.847.384 36.733.11 31.302c-.263-5.226 2.953-11.439 10.735-13.538l.106.395C3.39 20.199.263 26.219.52 31.28c.21 4.164 2.815 9.003 9.496 10.098l-.067.404z"/>
        <circle cx="10.825" cy="17.985" r="1.538"/>
        <path d="M36.596 47.94c-.177 0-.357-.01-.539-.026-3.456-.321-6.586-3.514-8.375-8.54l.386-.138c1.733 4.873 4.734 7.965 8.027 8.27 1.772.17 3.342-.545 4.102-1.852.787-1.353.56-3.102-.624-4.798l.335-.235c1.28 1.833 1.513 3.742.643 5.238-.763 1.31-2.248 2.08-3.955 2.08zM31.492 6.686l-.39-.128c.93-2.818 2.572-4.634 4.506-4.98 1.19-.215 2.361.191 3.052 1.057.682.855.793 2.006.303 3.158l-.376-.16c.43-1.009.34-2.009-.246-2.743-.597-.748-1.616-1.096-2.66-.91-1.782.32-3.308 2.035-4.19 4.706z"/>
        <circle cx="31.33" cy="6.551" r="1.538"/>
    </g>
</svg>
