<svg xmlns="http://www.w3.org/2000/svg" width="48" height="48" viewBox="0 0 48 48">
    <g>
        <g>
            <path d="M39.571 10.771L39.744 10.31 40.09 9.446 40.262 9.043 40.435 8.582 40.435 0.173 0.173 0.173 0.173 47.981 40.435 47.981 40.616 18.523 40.616 18.177 40.444 18.638 39.925 20.021 39.58 20.942 39.58 21.288 39.398 47.002 1.21 47.002 1.21 1.152 39.398 1.152 39.398 11.232z" transform="translate(3)"/>
            <path d="M36.777 42.854H13.743c-.081 0-.202-.115-.202-.288 0-.115.08-.288.202-.288h23.034c.08 0 .202.116.202.288-.04.173-.121.288-.202.288zM33.35 6.74H6.797c-.346 0-.634-.346-.634-.75 0-.46.288-.806.634-.806H33.35c.346 0 .634.346.634.749 0 .46-.288.806-.634.806zM31.853 12.154c0-.404-.288-.692-.576-.692H8.813c-.346 0-.576.288-.576.75 0 .402.288.69.576.69h22.406c.346 0 .634-.288.634-.748zM33.984 18.374c0-.403-.288-.748-.634-.748H6.797c-.346 0-.634.345-.634.806 0 .403.288.749.634.749H33.35c.346 0 .634-.346.634-.807zM31.853 24.595c0-.403-.288-.691-.576-.691H8.813c-.346 0-.576.288-.576.749 0 .403.288.691.576.691h22.406c.346 0 .634-.288.634-.749zM31.033 39.276L31.294 39.339 33.367 35.883 31.609 35.301zM42.373 10.417L41.069 9.907 40.262 12.154 39.917 11.981 38.304 16.416 38.65 16.589 31.91 34.963 33.335 35.402z" transform="translate(3)"/>
        </g>
        <path d="M23.567 40.288l-.027.17-.095.532c-.05.278-.108.576-.171.893-.065.326-.467.426-.68.2l-.05-.063-1.242-1.944-.025.048c-.052.093-.112.194-.18.306l-.332.537c-.04.07-.073.129-.106.194-.1.196-.342.274-.539.173-.196-.101-.274-.342-.173-.539l.08-.147c.054-.098.116-.2.207-.348l.075-.119c.337-.537.458-.773.516-1.062.065-.326.466-.425.68-.2l.05.064 1.122 1.759.11-.63c.063-.383.11-.711.142-.982l-.022-.148-.015-.175c-.014-.24.005-.473.047-.62.02-.067.044-.122.09-.18.16-.201.48-.227.653.01.08.11.094.203.098.375l-.003.208c-.001.04-.004.081-.007.125l-.033.364.025.093c.065.211.171.382.318.492l.093.058c.287.15.725.14 1.33-.08l.146-.058-.01-.067c-.021-.147-.032-.312-.034-.49l.001-.181c.025-1.024.295-1.968.825-2.355.38-.277.8-.18 1.052.19.164.24.262.597.295 1.001.057.708-.082 1.404-.425 1.826l-.105.113 3.19 1.133.012-.02c.63-1.214.654-2.443.314-4.98l-.158-1.164c-.129-1.001-.17-1.58-.151-2.263.005-.221.19-.395.41-.39.22.006.395.19.39.41l-.004.314c.003.622.066 1.243.22 2.366l.128.942c.345 2.708.25 4.007-.633 5.48-.084.14-.243.213-.4.191l-.077-.02-3.974-1.41-.036.024c-.127.071-.264.085-.389.044l-.015-.006-.14.058c-.822.326-1.487.375-2.005.16l-.127-.058c-.05-.026-.096-.054-.142-.084l-.094-.07zm3.29-3.083l-.007-.012-.008.008c-.236.254-.418.942-.436 1.674-.002.096-.002.188.002.273l.004.079.23-.13c.226-.133.388-.724.338-1.34-.018-.233-.065-.43-.123-.552z"/>
    </g>
</svg>
