<svg xmlns="http://www.w3.org/2000/svg" width="48" height="48" viewBox="0 0 48 48">
    <g>
        <path d="M39.893 11.392L20.181.064c-.128-.064-.192-.064-.32 0L.213 11.392c-.128.064-.128.192-.128.256v22.72c0 .128.064.192.128.256l19.648 11.328c.064 0 .128.064.128.064s.128 0 .128-.064l19.776-11.264c.128-.064.128-.192.128-.256v-22.72c0-.128-.064-.256-.128-.32zM20.053.704l19.008 11.008-19.008 10.944L1.045 11.712 20.053.704zM.725 12.224l19.008 11.008v21.952L.725 34.176V12.224zm19.648 32.96V23.232l19.008-11.008v21.952L20.373 45.184z" transform="translate(3)"/>
        <path d="M37.653 9.6H41.813V13.76H37.653zM18.005 20.992H22.165V25.152H18.005zM37.653 32.32H41.813V36.480000000000004H37.653zM18.005 43.648H22.165V47.80800000000001H18.005z" transform="translate(3)"/>
    </g>
</svg>
