<svg xmlns="http://www.w3.org/2000/svg" width="48" height="48" viewBox="0 0 48 48">
    <path d="M42.065 11.598c-.007-.049-.033-.091-.067-.129l.005-.003L31.858.186l-.01.007c-.055-.06-.128-.105-.218-.105h-.004c-.024 0-.043.013-.066.019l-.003-.011L8.879 5.294l.002.006c-.014.003-.03.002-.042.007-.084.031-.147.096-.17.174l-5.5 18.407c-.03.1.009.208.1.273l9.954 7.125 1.903 10.72.004-.001c.005.027.01.054.024.079.037.063.1.111.178.131l21.142 5.686c.028.008.056.01.085.01.106 0 .207-.052.259-.14.005-.008.005-.015.008-.023l.004.001 7.876-17.129-.004-.001c.018-.041.03-.085.024-.132l-2.66-18.889zM11.92 20.595l5.112-2.205.498.76-5.55 1.784-.06-.339zm-.502.52l-2.764.888 2.714-1.17.05.282zm25.748-8.462l1.144-.187-1.077.346-.067-.159zm-11.534 3.89l.469-1.203.301.956-.77.248zm.93.26l.323 1.032-1.108-.78.784-.252zm.073-1.706l.93.825-.61.196-.32-1.02zm.022-.72l9.92-1.627.103.24-8.504 2.735-1.52-1.349zm-1.112.341l-.656 1.713-1.26-.887 1.916-.826zm-2.429.465L12.174 7.482l13.244 6.708-2.302.993zm-1.141 10.745l.532.813-.799-.128.267-.685zm.254-.651l3.074-7.888 1.852 1.303 2.154 6.856-1.74 2.004-4.3-.69-1.04-1.585zm5.71-6.033l4.25 2.99-2.432 2.798-1.819-5.788zm1.567 6.933l.558 1.775-1.843-.296 1.285-1.48zm.448-.516l2.695-3.102 6.576 4.629-.316 2.18-8.203-1.314-.752-2.393zm9.808 1.905l3.567 2.51-3.841-.616.274-1.894zm.088-.606l.018-.122.73.649-.748-.527zm-.537-.379l-6.304-4.436.683-.786 5.65 5.014-.029.208zm-6.765-4.76l-4.88-3.434-.553-1.762.912-.293 5.246 4.654-.725.835zm-3.91-5.686l8.251-2.654.953 2.247-4.206 4.84-4.997-4.433zm8.803-2.831l3.48-1.12-2.657 3.058-.823-1.938zm-.487-1.15l-.529-1.246 3.816.707-3.287.54zm-.588.097l-9.68 1.587 1.72-4.416 7.337 1.36.623 1.469zm-7.765-3.329l3.041-7.804 3.854 9.082-6.895-1.278zm-2.709 4.904l-15.164-7.68 16.989 3.148-1.825 4.532zm-3.364 1.61l-5.263 2.27L9.99 6.613l12.537 8.824zm-5.794 2.5l-4.91 2.117-2.338-13.17 7.248 11.053zm.829.225l5.479-2.363 1.54 1.084-6.49 2.087-.53-.808zm6.929-.693l-2.723 7.106-3.374-5.145 6.097-1.96zm-6.057 17.547l1.632 1.169-3.785 4.356 2.153-5.525zm.204-.526l2.873-7.374 1.387.223 2.088 3.185-4.56 5.246-1.788-1.28zm5.02-7.03l3.502.56-1.786 2.056-1.715-2.615zm4.155.666l2.426.388 2.046 6.51-2.913 1.15-3.679-5.61 2.12-2.438zm4.632 7.41l3.213 10.224-5.986-9.13 2.773-1.094zm.544-.214l5.364-2.115-1.902 13.133-3.462-11.018zm-.16-.512l-1.947-6.193 7.95 1.274-.39 2.706-5.614 2.213zm6.583-4.826l4.023.644-4.366 1.721.343-2.365zm.55-3.8l.589-4.07 3.126 7.366-3.715-3.296zm-.525-.466l-5.382-4.776 4.03-4.638 2.024 4.77-.672 4.644zm-.93-9.9l2.837-3.263-1.074 7.415-1.762-4.152zm-2.33-5.491l-3.616-8.52 8.47 9.42-4.854-.9zm-8.26-1.531L10.254 5.52 31.165.728l-3.247 8.067zM11.271 20.29l-7.37 3.18L8.879 6.81l2.392 13.48zm.24 1.352l.61 3.434-7.535-1.206 6.926-2.228zm.564-.18l5.758-1.852 3.684 5.62-.488 1.273-8.295-1.328-.66-3.714zm8.761 5.545l-2.723 7.106-4.345-3.111-.938-5.278 8.006 1.283zm-.31 9.504l2.837 2.03-7.002 2.762 4.164-4.792zm.36-.415l4.42-5.087 3.526 5.376-4.863 1.917-3.084-2.206zm8.245.746l6.37 9.713-11.014-7.882 4.644-1.831zm9.85-3.885l4.905-1.935-6.75 14.68 1.846-12.745zm4.855-4.59l-3.124-7.359 1.058-7.306 2.066 14.666zM4.538 24.398l7.68 1.23.868 4.888-8.548-6.118zM17.911 34.64l-2.39 6.24-1.617-9.108 4.007 2.868zm-1.65 7.276l7.62-3.004 11.31 8.094-18.93-5.09z"/>
</svg>
