<svg xmlns="http://www.w3.org/2000/svg" width="56" height="56" viewBox="0 0 56 56">
    <g fill="#FFF" opacity=".907">
        <path d="M33.946 9.5c-3.4-1.638-7.77-2.07-12.033-1.174-1.925.374-3.754 1.131-5.38 2.228-.92.63-1.694 1.451-2.266 2.409-.493.916-.707 1.956-.618 2.993-.008.054-.008.11 0 .164l.09.3c.104.417.256.82.454 1.202 2.386 4.274 8.372 5.05 10.837 5.186.278 0 .664.029 1.134.029 2.517 0 7.369-.42 10.407-3.327 1.91-1.82 2.51-3.872 1.745-5.935-.59-1.604-1.995-2.942-4.37-4.075zM25.11 21.675c-1.939-.09-3.852-.485-5.668-1.168 3.578-1.367 7.484-1.626 11.211-.742.779.173 1.538.424 2.267.748-3.06 1.28-6.558 1.23-7.81 1.162zm10.69-2.97c-.48.436-1.01.817-1.576 1.133-1.063-.532-2.186-.937-3.344-1.207-4.688-.986-8.99-.567-12.787 1.202-1.205-.642-2.208-1.605-2.897-2.783-.153-.307-.27-.63-.351-.964l-.063-.215c-.066-.802.097-1.606.47-2.319.486-.819 1.144-1.523 1.928-2.063 1.502-1.01 3.193-1.709 4.971-2.052 4.024-.844 8.145-.447 11.336 1.083 2.075 1.003 3.322 2.131 3.815 3.452.567 1.627.073 3.214-1.502 4.733z" transform="translate(2.042 8.793)"/>
        <path d="M52.192 22.786v-7.947c-.083-1.806-.672-3.552-1.7-5.039-.052-.085-.097-.17-.137-.238-.19-.539-.762-.842-1.315-.697l-1.27.204c-.382.069-.76.157-1.133.266-.438.135-.888.228-1.343.278l-.533-.544-.289-.3V5.713v-.232c.083-.362.043-.74-.113-1.077-.23-.271-.543-.46-.89-.538l-.216-.08-1.133-.533c-.645-.314-1.307-.59-1.984-.827L37.982 1.7c-.46-.215-1.005-.1-1.338.284l-.89.748c-.272.228-.52.482-.742.76l-.136.175-.074.102h-.057c-.453-.068-.923-.175-1.383-.283l-.725-.164c-1.203-.232-2.418-.395-3.639-.488h-.3v-.567h-.029v-.38C28.607.794 28.533.453 28.312.232c-.22-.22-.714-.232-1.417-.198h-1.564c-.97 0-1.837.045-2.664.125l-1.35.158h-.3c-.438-.042-.88.045-1.27.25-.43.306-.464.992-.35 2.76v.063c-1.047.185-2.08.435-3.096.748l-1.008.334c-.114.04-.25.096-.392.153-.194.09-.395.166-.6.227-.318-.173-.615-.382-.885-.624-.206-.177-.423-.34-.651-.487l-.941-.567c-.411-.332-.99-.358-1.429-.062l-1.882.94c-.725.379-1.424.807-2.091 1.282l-.8.566c-.511.232-.804.778-.713 1.333v4.273c-.647-.085-1.27-.17-1.882-.17l-.425-.034c-.322-.038-.646-.053-.97-.045h-.096c-.253-.028-.503.074-.663.272-.172.232-.278.506-.306.793 0 .063 0 .12-.034.165-.276.86-.429 1.755-.454 2.658-.034.913-.034 1.86-.034 2.766V26.153c-.081.4.13.802.505.963.246.092.51.123.77.09h.165l1.134.052v1.802c0 .284 0 .567-.029.879-.057.666-.044 1.337.04 2 .125.743.958 1.457 1.632 2.03l.375.323c.532.469 1.1.895 1.7 1.275l.64.437c.432.384 1.064.437 1.553.13l.216-.096.476-.193c.334-.13.669-.266.992-.42.198-.101.388-.219.567-.35.18-.137.37-.262.567-.375.299.118.586.266.855.442.17.102.318.187.42.238.842.402 1.707.755 2.59 1.055v.606c-.09 1.332-.113 2.165.357 2.522.416.228.881.35 1.355.357l.34.046 1.224.25c.907.186 1.82.288 2.75.39l1.45.153h.148c.164.039.33.062.499.069.117.002.233-.021.34-.069.286-.176.49-.46.566-.788l.046-.119c.045-.096.096-.198.142-.3.13-.248.239-.508.323-.776.04-.152.063-.308.068-.465v-.142c.566-.028 1.133 0 1.728 0h.936c.68-.008 1.36-.054 2.034-.136l.567-.057c.13 0 .29-.04.454-.073.223-.05.451-.077.68-.08.04.081.077.164.108.25.06.171.139.336.232.493.195.298.411.582.646.85.102.119.204.238.295.363.298.477.902.663 1.417.436l.232-.056 2.568-.567c.69-.165 1.369-.37 2.035-.612l.714-.244.25-.057c.566-.125.969-.232 1.184-.567.19-.45.231-.947.12-1.422v-2.001c.529-.292 1.042-.614 1.535-.964l.442-.306.187-.147.17-.142c.059.019.115.041.17.068l.17.074.136.056c.37.16.749.297 1.134.414.13.034.295.097.482.165.986.351 1.785.566 2.33.3.347-.231.652-.521.9-.856.097-.113.188-.22.261-.3l.261-.255c.215-.198.415-.41.601-.635.207-.27.396-.551.567-.845.08-.13.153-.255.238-.38.085-.124.113-.164.176-.249.234-.282.41-.608.521-.958.116-.657.135-1.327.057-1.99 0-.283-.04-.566-.04-.804v-2.267c.146-.02.286-.068.414-.142.255-.085.425-.326.42-.595-.003-.036-.003-.072 0-.108.048-.343.061-.691.039-1.037zM43.338 5.878v1.865c-.42-.318-.856-.613-1.292-.896l-.057-.045c.493-.284.93-.607 1.35-.924zM6.037 7.612c.623.34 1.264.675 1.955.987-.454.401-.877.837-1.264 1.303-.208.272-.398.558-.567.856l-.136.227.012-3.373zM2.692 21.54c-.188.424-.23.898-.119 1.349V26.124l-1.037-.05H1.18V17.91v-.952c.748.028 1.547.057 2.37.057h1.133v3.633l-.437.164-.232.051c-.777.238-1.134.386-1.32.675zm4.49 8.672v4.534l-.21-.141c-.558-.346-1.089-.735-1.587-1.162-.114-.102-.255-.221-.408-.357-.397-.323-1.196-1.01-1.247-1.344-.06-.584-.06-1.173 0-1.757 0-.323.034-.635.034-.935v-5.81c.395.417.82.805 1.27 1.162.288.216.566.42.884.624l.425.294c.107.074.22.148.334.216.357.22.482.317.487.442.057 1.4.034 2.834.017 4.223v.011zm3.599 3.52c-.231.121-.453.26-.663.414-.127.093-.26.178-.397.255-.3.141-.618.266-.93.39l-.493.2v-2.682-2.114c0-1.389.034-2.834 0-4.24.845-.351 1.672-.714 2.488-1.133l-.005 8.91zm4.534-5.288c-.187.65-.243 1.333-.164 2.006V35.227c-.705-.258-1.395-.554-2.069-.884-.08-.04-.198-.108-.334-.193-.277-.172-.565-.325-.862-.459v-8.876l.085.045c.635.323 1.287.658 1.961.924.675.267 1.423.505 2.126.726l.272.085c-.41.564-.74 1.182-.98 1.836l-.035.012zm7.561 2.267v8.927h-.113l-1.45-.153c-.936-.102-1.78-.198-2.642-.374l-1.225-.25c-.102 0-.26-.04-.436-.062s-.567-.068-.731-.108c-.045-.52-.045-1.043 0-1.564 0-.25.028-.459.028-.567v-5.51-.662c0-.227-.028-.567 0-.85 2.318.459 4.37.776 6.41.997h.216c-.017.074-.023.113-.023.153l-.034.023zm8.095 6.008c-.223.018-.444.048-.664.09-.136 0-.26.046-.368.057l-.567.063c-.94.105-1.887.148-2.834.13h-1.65v-7.986-.374c0-.17-.033-.539-.039-.805.283 0 .674.034.856.045h2.097c.901 0 1.814-.13 2.692-.238l.522-.057-.045 9.075zm1.66 1.462c-.045-.068-.102-.13-.141-.198-.054-.096-.1-.197-.136-.3-.063-.18-.146-.351-.25-.51v-8.123c.153.21.323.425.488.64-.038.402-.038.806 0 1.208v.329l.04 6.954zm6.802-.566c-.142.034-.272.062-.351.09l-.732.25c-.625.225-1.263.414-1.91.566l-2.562.567-.119.029v-7.89-.414c0-.176-.045-.63-.034-.873.244-.062.675-.12.879-.142l.43-.062.567-.125 1.134-.244c.935-.229 1.857-.51 2.76-.844l.352-.12v8.407c0 .164.04.459.034.652-.085.045-.29.09-.403.113l-.045.04zm3.254-5.39c-.1.063-.194.133-.284.209l-.113.09-.448.318c-.3.21-.567.414-.879.6v-5.05c.088-.624-.122-1.253-.566-1.7l-.255-.317c-.175-.244-.364-.477-.567-.697-.114-.114-.233-.222-.357-.324l.073-.034c.612-.283 1.247-.566 1.848-.906.547-.319 1.075-.669 1.582-1.05l-.034 8.86zm4.137-8.078v9.007c-.34-.08-.765-.233-.992-.318-.226-.085-.408-.141-.567-.187-.342-.106-.679-.231-1.008-.374l-.272-.113-.097-.04V23.11c1.049.38 2.075.68 2.97.93-.028.033-.028.073-.034.107zm.136-.499l.097-.357-.097.357zm.652-1.082l-.408.402h-.051v.097-.097c-1.236-.327-2.453-.725-3.645-1.19-.174-.07-.371-.048-.527.057-.255.175-.51.357-.765.566-.519.392-1.06.754-1.621 1.083-.567.312-1.179.595-1.768.867l-.919.431c-.173.084-.292.25-.315.442-.023.192.053.382.202.505l.357.283c.22.162.43.338.63.527.176.179.343.368.498.567l.193.244-.335.113c-.863.319-1.742.59-2.635.81l-1.106.239-.566.124-.335.051c-.357.039-.71.1-1.06.182-.52-.636-.966-1.33-1.326-2.07-.104-.214-.33-.34-.567-.317l-1.168.136c-.856.102-1.734.21-2.584.233H25.813c-1.196-.085-1.582-.074-1.831.187-.141.155-.22.357-.221.567-.133.644-.338 1.272-.612 1.87h-.278c-1.984-.215-3.968-.527-6.235-.97.29-.665.664-1.291 1.11-1.864.118-.144.157-.337.105-.516-.052-.179-.188-.32-.365-.38l-1.054-.334c-.68-.215-1.389-.43-2.046-.697-.658-.266-1.253-.567-1.865-.884l-.924-.465c-.165-.087-.362-.087-.527 0-1.051.595-2.14 1.122-3.26 1.576-.176-.146-.366-.275-.566-.386-.09-.056-.187-.113-.278-.175l-.436-.3c-.284-.194-.567-.386-.84-.568-.53-.432-1.028-.901-1.49-1.405l-.062-.063.22-.068.352-.113c.855-.328 1.727-.606 2.613-.833.175-.046.317-.173.383-.34.066-.169.048-.358-.048-.51-.136-.216-.29-.437-.443-.658-.29-.393-.545-.81-.765-1.247-.175-.426-.316-.866-.42-1.315-.061-.238-.124-.476-.192-.703-.079-.243-.311-.403-.567-.391-1.405.074-2.805.034-4.058 0v-.674c.023-.804.16-1.6.408-2.364 0-.068.04-.164.057-.266v-.142c.265-.002.53.011.793.04l.46.034c.793.045 1.603.13 2.465.266h.085c.398.114.822-.06 1.026-.42.099-.13.188-.269.266-.413l.091-.153c.085-.13.164-.272.25-.414.14-.254.297-.498.47-.731.348-.425.727-.822 1.134-1.19.215-.199.425-.397.629-.601.133-.135.19-.327.153-.512-.037-.186-.165-.34-.34-.412-.912-.378-1.802-.808-2.664-1.287l.566-.368c.612-.435 1.252-.827 1.916-1.174l1.922-.946.181-.08.165.097.946.567c.18.12.351.25.516.39.646.528 1.134.868 1.553.874.38-.037.749-.144 1.088-.318.114-.05.221-.096.312-.125l1.003-.334c1.056-.327 2.131-.588 3.22-.782l.958-.193c.169-.036.312-.146.39-.301.077-.155.08-.336.006-.492-.283-.632-.485-1.296-.6-1.979h.76l1.348-.13c.794-.074 1.633-.113 2.562-.119h1.678c.108 0 .312 0 .476-.028 0 .158.04.413.062.81v.153c.007.291-.02.582-.079.867l-.04.255c-.022.154.02.31.114.431.096.123.237.2.39.216l.987.05c1.177.088 2.349.241 3.509.46l.697.158c.476.108.969.222 1.468.3.467.09.94-.123 1.184-.532l.114-.147c.168-.22.358-.424.567-.607l.946-.765.13-.108.108.034 2.188.743c.635.222 1.255.481 1.86.776l1.133.533h.045c-.69.542-1.415 1.036-2.17 1.48-.17.097-.277.273-.285.468-.008.194.085.379.245.49.26.175.527.35.799.527.52.321 1.022.673 1.502 1.054.236.206.459.425.669.657l.357.369.527.527c.223.28.585.41.935.334.515-.056 1.024-.16 1.52-.311.332-.086.669-.154 1.008-.204l1.253-.204h.068l.062.119c.046.09.102.187.17.294.591.907 1.039 1.899 1.327 2.942l-1.474.198c-.295.046-.64.091-1.003.108h-.284c-.383-.05-.772-.006-1.133.13l-.063.029c-.27.106-.435.38-.402.669V16.324l-.607 1.99c-.048.157-.025.327.062.466s.23.234.392.26l.635.096c.964.162 1.92.374 2.862.634h.068v.046c-.297.519-.632 1.015-1.003 1.485-.425.442-.85.861-1.264 1.264h-.006zM5.861 20.24v-.72c.13.204.272.408.408.6l-.408.12zM47 18.574v.074-.074zm3.185 10.9c-.08.206-.193.397-.334.567-.08.102-.153.21-.215.306-.063.096-.17.272-.255.408-.146.252-.307.494-.482.726-.155.184-.322.358-.499.521l-.283.278-.176.193v-7.936-.272c.012-.136.012-.272 0-.408l.453-.448c.437-.42.885-.856 1.281-1.332.172-.21.333-.43.482-.657v5.543c0 .272 0 .567.04.884.07.54.067 1.088-.012 1.627zm.84-10.503c-.241-.148-.513-.24-.794-.266h-.159c-.788-.204-1.627-.414-2.5-.567v-3.084-.266h.817c.413 0 .793-.074 1.133-.119l1.508-.221v.385l-.006 4.138z" transform="translate(2.042 8.793)"/>
    </g>
</svg>
