<svg xmlns="http://www.w3.org/2000/svg" width="56" height="56" viewBox="0 0 56 56">
    <g fill="#FFF">
        <path d="M50.275 14.75c-.01-.015-.022-.029-.032-.042h-.001l-.025-.025L34.342.098c-.08-.074-.19-.11-.3-.095L.538 4.488c-.1.013-.188.065-.248.145l-.153.205c-.05.066-.078.15-.076.238 0 .006 0 .012.002.017l2.422 29.998c.003.04.014.08.03.118l8.811 20.405c.02.044.046.088.084.123.013.014.027.025.04.035l.204.152c.064.05.142.076.22.076.029 0 .054-.003.082-.01l.932-.206 34.072-7.938c.154-.036.269-.168.286-.326l3.093-32.522v-.026c.002-.082-.02-.159-.064-.222zM33.97.762L49.16 14.72l-38.945 6.582L1.046 5.17 33.97.762zM3.22 34.97L.916 6.444l8.737 15.374 1.546 31.63L3.22 34.97zm43.312 12.212L12.723 55.06l-.694.152-1.621-33.191 39.146-6.618-3.022 31.779z" transform="matrix(-1 0 0 1 53.5 0)"/>
        <path d="M8.484 31.692l-.31-5.67c-.002-.034-.008-.066-.019-.098l-.154-.464c-.007-.018-.014-.036-.024-.054L3.545 16.9c-.044-.086-.12-.15-.212-.18l-.154-.053c-.117-.039-.249-.016-.345.06-.098.076-.152.197-.142.32L3.877 32.4c.002.04.01.084.029.123v.002c.001.003.004.007.004.011l4.433 9.741c.063.135.196.217.338.217.03 0 .06-.004.089-.011.173-.042.292-.203.281-.38l-.567-10.411zM3.548 18.514l3.759 7.208.13.39.288 5.29-3.139.545-1.038-13.433zm1.236 14.15l2.98-.516.439 8.03-3.42-7.513zM20.422 36.302v.003l.052 3.454.051 6.132c0 .11.052.217.14.285.066.053.147.083.231.083.027 0 .054-.003.079-.009l17.68-3.815.026-.005.36-.104c.107-.03.194-.106.239-.207.043-.1.04-.216-.009-.315l-.007-.014 1.077-16.188c.008-.115-.038-.227-.125-.303-.086-.077-.204-.107-.316-.086l-4.271.823-.012.001-7.103 1.287h-.003l-7.836 1.443c-.176.032-.305.186-.305.366v.208l.052 6.961zm.841 9.125l-.045-5.373 9.443-1.949 4.353-.882 3.32 4.52-17.07 3.684zM36.01 27.454l.044-.745 3.514-.677-.983 14.795-3.032-4.126.457-9.247zm-.718-.447l-.435 8.738-5.551-7.637 5.986-1.1zm-6.213 2.049l5.456 7.51-3.777.762-1.806-2.685.127-5.587zm.892 8.433l-8.761 1.809-.041-2.696 7.238-1.438 1.564 2.325zm-1.617-9.205l-.142 6.162-7.05 1.401-.046-6.2 7.238-1.363zM16.723 14.962l.02.025.012.014.41.462c.072.08.173.125.278.125.02 0 .039-.002.058-.005l8.454-1.34h.004l3.032-.513.405-.05c.007 0 .014-.002.02-.003l6.956-1.186c.136-.024.248-.12.29-.25.043-.131.01-.275-.087-.375L29.41 4.494l-.011-.011c-.062-.058-.143-.094-.23-.1h-.025c-.02 0-.04.002-.059.005l-17.416 2.42c-.127.018-.237.101-.288.22-.05.119-.037.256.036.361l5.306 7.573zm12.768-9.319l6.06 6.233-6.075 1.035-.164-.164.179-7.104zm-.73-.463l-.187 7.396-2.727.416-.014.001L17.2 14.35l-4.827-6.891L28.762 5.18z" transform="matrix(-1 0 0 1 53.5 0)"/>
    </g>
</svg>
