<svg xmlns="http://www.w3.org/2000/svg" width="56" height="56" viewBox="0 0 56 56">
    <g fill="#FFF">
        <path d="M1.742 40.286c-.297-.012-.516.045-.655.206-.33.381-.135 1.277-.023 1.705.579 2.216 3.188 5.384 4.713 7.086 1.594 1.78 4.054 4.297 6.14 5.453.577.32 1.114.53 1.57.568 1.24.105 1.38-1.077 1.146-1.992-.655-2.563-3.809-6.184-5.647-8.06-1.513-1.544-4.972-4.868-7.244-4.966zm45.07-38.528c.174.256.228.557.174.838-.053.28-.214.541-.47.715-.254.173-.556.227-.837.174-.17-.033-.332-.104-.472-.212l-.299.355c-.066.077-.187.056-.225-.037-.017-.046-.01-.097.022-.134l.312-.37c-.018-.023-.036-.047-.053-.072-.173-.255-.227-.556-.174-.837.054-.281.215-.542.47-.715.255-.174.556-.227.837-.174.281.053.542.214.715.47zm-.219.15c-.132-.195-.331-.318-.545-.359-.215-.04-.444 0-.64.133-.194.132-.316.331-.357.545-.04.215 0 .445.132.64.133.194.332.316.546.357.214.041.444 0 .639-.132.194-.133.317-.331.358-.546.04-.214 0-.444-.133-.639zm5.875 5.752c.174.255.227.556.174.837-.054.281-.214.542-.47.715-.255.174-.556.227-.837.174-.28-.054-.541-.214-.715-.47-.174-.255-.227-.556-.174-.837.054-.28.214-.541.47-.715.255-.173.556-.227.837-.174.281.054.542.215.715.47zm-.22.149c-.131-.195-.33-.317-.545-.358-.214-.041-.444 0-.638.132-.195.133-.318.331-.358.546-.041.214 0 .444.132.639.133.194.331.317.546.358.214.04.444 0 .638-.133.195-.132.318-.331.358-.545.041-.215 0-.445-.132-.64zm2.243 6.782c.173.255.227.556.173.837-.053.281-.214.542-.47.715-.254.174-.556.228-.837.174-.205-.04-.4-.136-.557-.285.014.047.004.1-.036.138l-.391.36c-.033.03-.078.041-.121.03-.103-.026-.136-.154-.058-.226l.39-.358c.035-.034.086-.044.133-.029l.003.002c-.028-.032-.053-.066-.078-.101-.173-.255-.227-.557-.173-.838.053-.28.214-.541.47-.715.254-.173.556-.227.837-.173.28.053.541.214.715.469zm-.087.788c.04-.215 0-.444-.133-.64-.132-.194-.33-.316-.545-.357-.214-.04-.444 0-.639.132-.194.133-.317.332-.358.546-.04.214 0 .444.133.639.132.194.33.317.545.358.214.04.444 0 .639-.133.194-.132.317-.331.358-.545zm-.002 9.114c.345.508.212 1.208-.296 1.553-.507.345-1.207.212-1.552-.296-.345-.507-.212-1.207.295-1.552.508-.345 1.208-.212 1.553.295zm-.22.15c-.263-.388-.796-.49-1.183-.226-.388.263-.49.797-.226 1.184.263.387.797.489 1.184.226.387-.264.49-.797.226-1.185zm-5.639 3.682c.075.197.092.407.054.608-.054.28-.215.541-.47.715-.255.173-.556.227-.837.173-.281-.053-.542-.214-.715-.469l-.01-.014-.34.166c-.09.043-.194-.025-.19-.125.003-.05.03-.093.075-.114l.337-.164c-.069-.19-.083-.393-.046-.586.054-.281.214-.542.47-.715.255-.174.556-.228.837-.174.28.053.538.212.712.464.124-.066.248-.134.372-.202.07-.038.157-.006.187.068.024.062-.001.133-.06.165l-.376.204zm-.34-.08c-.132-.195-.33-.318-.545-.359-.214-.04-.444 0-.639.133-.194.132-.317.33-.358.545-.04.214 0 .444.133.639.132.195.331.317.545.358.215.04.445 0 .64-.133.194-.132.316-.33.357-.545.041-.214 0-.444-.132-.639zm.18-8.325c.155.246.2.532.15.8-.053.28-.214.54-.47.714-.255.174-.556.228-.837.174-.28-.053-.541-.214-.715-.47-.173-.254-.227-.556-.174-.837.054-.28.215-.541.47-.715.255-.173.556-.227.837-.173.213.04.414.142.574.3l.352-.286c.05-.041.122-.04.171.002.062.055.06.15-.003.203l-.354.288zm-.243.11c-.132-.194-.331-.316-.545-.357-.215-.04-.444 0-.64.132-.194.133-.316.332-.357.546-.04.214 0 .444.132.639.133.194.332.317.546.358.214.04.444 0 .639-.133.194-.132.317-.33.358-.545.04-.215 0-.444-.133-.64zm-2.232-5.156c.173.255.227.557.174.838-.054.28-.215.541-.47.715-.255.173-.556.227-.837.173-.165-.031-.323-.1-.46-.202l-.164.171c-.038.04-.093.052-.144.032-.088-.034-.113-.146-.048-.215l.164-.171c-.022-.027-.043-.055-.063-.084-.174-.255-.227-.557-.174-.837.054-.281.214-.542.47-.715.255-.174.556-.228.837-.174.164.031.32.099.458.2l.28-.297c.067-.07.183-.048.22.042.019.048.009.102-.027.14l-.28.298c.022.027.043.056.064.086zm-.087.788c.041-.214 0-.444-.132-.639-.133-.194-.331-.317-.546-.358-.214-.04-.444 0-.639.133-.194.132-.317.33-.358.545-.04.214 0 .444.133.639.132.195.331.317.545.358.215.04.445 0 .64-.133.194-.132.316-.33.357-.545zM40.53 9.336c.174.256.227.557.174.838-.054.28-.214.541-.47.715-.255.173-.556.227-.837.174-.127-.025-.25-.07-.363-.138l-.277.346c-.045.057-.127.067-.185.022-.058-.046-.068-.129-.022-.187.09-.115.182-.229.274-.342-.052-.051-.1-.108-.142-.17-.174-.256-.227-.557-.174-.838.054-.281.214-.542.47-.715.255-.174.556-.227.837-.174.28.054.541.214.715.47zm-.087.788c.041-.214 0-.444-.132-.639-.133-.194-.331-.317-.546-.358-.214-.04-.444 0-.638.133-.195.132-.318.331-.358.545-.041.215 0 .445.132.64.132.194.331.316.545.357.215.041.445 0 .64-.132.194-.133.316-.331.357-.546zm-.113 22.137c.186.483.014 1.034-.415 1.325-.492.335-1.17.221-1.524-.256-.142.085-.283.172-.424.26-.04.025-.09.027-.132.005-.09-.048-.095-.174-.009-.23.143-.09.288-.178.432-.265-.208-.487-.039-1.063.4-1.362.505-.343 1.201-.213 1.548.29l.375-.19c.065-.031.143-.006.177.058.034.066.008.147-.059.18l-.369.185zm-.338-.078c-.264-.387-.797-.489-1.185-.226-.387.264-.488.797-.225 1.185.263.387.797.488 1.184.225.387-.263.489-.797.226-1.184zm-.343-5.096c.173.255.227.556.174.837-.054.281-.215.542-.47.715-.255.174-.556.228-.837.174-.187-.035-.364-.118-.513-.244l-.172.163c-.033.031-.078.043-.123.033-.101-.026-.135-.152-.06-.225l.174-.166-.021-.03c-.174-.256-.228-.557-.174-.838.053-.28.214-.541.47-.715.254-.173.556-.227.837-.174.194.037.378.125.53.26l.347-.305c.068-.058.172-.035.209.047.023.053.01.114-.034.153l-.345.303.008.012zm-.22.149c-.132-.195-.33-.317-.545-.358-.214-.04-.444 0-.639.132-.194.133-.317.332-.358.546-.04.214 0 .444.133.639.132.194.331.317.545.358.215.04.444 0 .64-.133.194-.132.316-.331.357-.545.04-.215 0-.444-.132-.64zm-1.593-3.965c.174.256.227.557.174.838-.054.28-.214.541-.47.715-.255.173-.556.227-.837.174-.28-.054-.541-.214-.715-.47-.173-.255-.227-.556-.174-.837.054-.281.215-.542.47-.715.255-.174.556-.227.837-.174.166.032.325.1.463.205l.306-.32c.062-.063.166-.05.211.026.03.052.022.115-.02.158l-.306.32c.022.025.042.052.061.08zm-.086.788c.04-.214 0-.444-.133-.638-.132-.195-.331-.318-.545-.358-.215-.041-.445 0-.64.132-.194.132-.316.331-.357.545-.041.215 0 .445.132.64.133.194.331.316.546.357.214.041.444 0 .639-.132.194-.133.317-.331.358-.546zm-3.662-5.209c.174.255.227.557.174.838-.054.28-.214.541-.47.715-.255.173-.556.227-.837.173-.084-.016-.166-.041-.244-.076-.066.128-.13.256-.195.385-.045.09-.17.099-.227.016-.028-.04-.031-.091-.01-.135l.203-.402c-.091-.07-.173-.156-.242-.257-.173-.255-.227-.557-.174-.837.054-.281.215-.542.47-.715.255-.174.556-.228.837-.174.054.01.107.024.16.042l.055-.097c.02-.036.056-.06.096-.066.11-.015.189.102.134.198l-.047.082c.122.079.23.183.317.31zm-.219.15c-.078-.115-.178-.204-.291-.267-.015 0-.029-.004-.043-.01-.02-.007-.036-.02-.05-.034-.052-.021-.106-.037-.161-.048-.215-.04-.445 0-.64.133-.194.132-.316.33-.357.545-.041.214 0 .444.132.639.133.195.331.317.546.358.214.04.444 0 .638-.133.195-.132.318-.33.358-.545.041-.214 0-.444-.132-.639zM17.024 7.52c-.082.431-.408.774-.833.877.027.137.05.274.071.412.026.17-.235.214-.262.04-.021-.14-.045-.28-.072-.42-.071 0-.142-.006-.211-.02-.606-.115-1.004-.7-.889-1.306.116-.607.7-1.005 1.307-.89.606.116 1.004.701.889 1.308zm-.26-.049c.087-.462-.216-.909-.679-.997-.462-.088-.908.216-.996.678-.088.463.215.909.678.997.462.088.908-.215.996-.678zm.26 6.675c-.106.556-.612.945-1.176.905-.03.147-.061.294-.093.44-.037.17-.296.117-.259-.055l.092-.435c-.539-.17-.865-.718-.76-1.274.104-.544.591-.93 1.144-.907-.003-.014-.004-.03-.002-.045.023-.174.043-.349.062-.523.009-.087.097-.141.18-.11.055.022.09.077.083.137-.018.177-.04.354-.062.53-.002.017-.008.034-.016.048.564.152.917.714.807 1.289zm-.938-1.047c-.463-.088-.909.216-.997.678-.088.463.215.909.678.997.462.088.909-.216.997-.678.088-.463-.216-.909-.678-.997zm-.576 8.735c.173.255.227.556.173.837-.053.281-.214.542-.469.715-.087.06-.18.105-.276.137v.001c.04.13.085.258.135.385.063.163-.184.258-.247.096-.056-.14-.105-.284-.149-.429-.1.008-.202.003-.3-.016-.281-.054-.542-.214-.715-.47-.174-.255-.228-.556-.174-.837.053-.28.214-.541.47-.715.29-.198.522-.234.837-.174.28.054.541.214.715.47zm-.087.788c.04-.215 0-.445-.133-.64-.132-.194-.33-.316-.545-.357-.214-.041-.444 0-.639.132-.194.133-.317.331-.358.546-.04.214 0 .444.133.638.132.195.33.318.545.358.214.041.444 0 .639-.132s.317-.331.358-.545zM35.65 34.903c-.077.062-.062.182.027.224.046.021.098.015.138-.016.138-.11.277-.217.417-.323.079-.06.067-.18-.022-.225-.045-.022-.098-.017-.138.014-.142.107-.282.216-.422.326zm16.682-8.841c.148-.098-.002-.316-.146-.222-.147.098-.294.194-.442.29-.08.051-.082.166-.004.22.045.03.102.031.147.002.15-.096.298-.193.445-.29zm-1.118.717c.09-.056.08-.189-.016-.233-.04-.018-.086-.016-.124.008l-.451.277c-.094.057-.082.196.02.237.04.015.081.011.118-.01l.453-.279zm-1.139.687c.094-.055.086-.194-.015-.237-.038-.016-.082-.013-.118.008-.152.089-.305.177-.458.264-.062.036-.085.113-.052.177.035.066.118.09.183.053.154-.087.308-.176.46-.265zm-4.57 2.38c.045-.021.074-.064.077-.113.005-.1-.098-.17-.189-.127l-.48.224c-.1.046-.103.187-.004.238.037.018.078.02.116.002l.48-.224zm-1.204.556c.044-.02.074-.062.077-.11.008-.1-.095-.173-.187-.13l-.482.219c-.055.025-.086.083-.076.142.014.086.106.135.185.099l.483-.22zm-1.207.549c.094-.043.105-.17.021-.23-.039-.026-.087-.031-.13-.012l-.483.22c-.088.042-.105.159-.031.222.04.034.094.041.141.02l.482-.22zm-1.203.553c.043-.02.072-.061.076-.108.009-.102-.096-.175-.188-.132l-.48.226c-.095.046-.102.177-.013.233.039.024.085.026.126.007l.48-.226zm-4.587 2.517c.087-.059.075-.188-.021-.231-.042-.018-.089-.014-.127.012-.147.099-.294.2-.439.302-.058.042-.073.121-.034.18.04.064.126.08.187.037.144-.102.289-.201.434-.3zm-1.524-3.59c-.073.08-.026.208.08.222.044.005.085-.01.115-.041l.36-.386c.072-.075.033-.2-.068-.221-.045-.01-.092.005-.123.038-.122.13-.244.259-.364.389zm16-13.368c.05-.045.06-.117.022-.173-.045-.067-.137-.078-.198-.025l-.397.35c-.082.072-.047.207.06.23.042.007.083-.004.114-.03l.4-.352zm-1.002.872c.086-.074.046-.214-.066-.232-.039-.006-.076.005-.106.03l-.404.343c-.08.069-.053.199.05.229.043.011.087.002.121-.027l.405-.343zm-1.015.854c.037-.03.054-.078.045-.126-.019-.1-.137-.142-.215-.077l-.408.337c-.05.042-.063.112-.03.169.041.07.135.088.199.036l.409-.339zm-3.635 2.941c.086-.068.056-.205-.05-.232-.04-.01-.082-.001-.115.025l-.414.33c-.037.03-.055.076-.05.122.015.102.135.15.215.086l.414-.33zm-1.036.827c.083-.066.058-.198-.043-.23-.042-.013-.088-.004-.122.023l-.414.331c-.081.065-.06.194.038.229.044.015.091.007.127-.022l.414-.33zm-1.034.829c.06-.049.067-.135.016-.192-.047-.053-.127-.06-.182-.015l-.413.333c-.083.068-.057.2.046.23.042.012.086.004.12-.024l.413-.332zm-1.03.833c.085-.07.054-.206-.052-.232-.04-.01-.083 0-.115.026-.137.112-.275.223-.411.336-.083.068-.056.2.047.23.042.011.087.002.12-.025l.411-.335zm-1.024.84c.057-.048.064-.132.017-.188-.048-.056-.13-.063-.186-.016l-.408.339c-.082.07-.053.2.05.23.042.01.086.002.12-.027l.407-.338zm-1.015.85c.084-.072.05-.209-.059-.231-.04-.008-.08.002-.112.029l-.404.344c-.08.068-.053.195.046.227.044.014.091.005.126-.025l.403-.344zm-3.727 3.375c.067-.067.046-.18-.042-.217-.05-.02-.105-.01-.144.028l-.377.376c-.042.043-.05.109-.02.161.046.075.147.087.209.025.124-.125.249-.25.374-.373zm-3.565-2.161c-.033.035-.044.084-.03.13.033.097.155.124.225.05l.36-.39c.03-.033.042-.08.03-.125-.028-.1-.154-.13-.225-.055l-.36.39zM50.595 9.591c.04-.045.044-.11.01-.16-.048-.073-.152-.08-.21-.015-.116.133-.232.266-.35.398-.062.072-.032.182.057.213.051.017.107.003.142-.037.118-.133.234-.266.35-.399zm-.88.994c.046-.051.046-.127 0-.178-.054-.058-.144-.057-.197.001l-.354.395c-.07.078-.025.203.078.22.045.006.09-.01.12-.043l.354-.395zm-.887.986c.04-.046.046-.111.013-.162-.049-.073-.15-.081-.21-.017l-.356.392c-.044.048-.047.118-.008.17.05.065.147.07.203.009l.358-.392zm-.896.978c.072-.077.028-.203-.076-.22-.044-.008-.088.007-.119.04l-.36.39c-.075.082-.021.215.09.222.04.002.078-.013.105-.042l.36-.39zm-.901.973c.047-.05.047-.128.001-.18-.052-.057-.142-.058-.195 0l-.362.386c-.075.08-.025.212.084.223.041.004.081-.011.11-.041l.362-.388zm-3.43 3.622c.043-.046.049-.115.013-.168-.049-.068-.147-.076-.205-.015l-.367.382c-.07.074-.036.194.063.22.047.012.095-.001.128-.036l.368-.383zm-.919.956c.071-.075.035-.197-.065-.22-.047-.011-.093.003-.126.037l-.368.381c-.073.078-.031.206.075.223.043.007.086-.007.116-.039l.368-.382zm-.92.955c.073-.076.033-.203-.07-.222-.044-.009-.09.006-.12.038l-.369.382c-.074.077-.031.205.074.222.044.007.087-.007.117-.038l.368-.382zm-.92.954c.034-.036.045-.086.03-.133-.03-.095-.151-.123-.221-.051l-.368.381c-.072.074-.035.197.065.221.046.01.093-.003.125-.037l.369-.381zm-.921.953c.074-.077.032-.205-.074-.222-.043-.008-.086.007-.117.038l-.368.382c-.033.034-.045.083-.032.13.03.097.152.127.223.054l.368-.382zm-.92.954c.05-.053.049-.138-.005-.188-.053-.05-.136-.048-.186.004l-.368.382c-.072.076-.034.2.069.222.045.009.09-.005.122-.038l.368-.382zm-2.936 3.066c.032-.034.044-.082.031-.127-.028-.099-.153-.13-.223-.055l-.365.385c-.053.057-.047.145.014.194.054.043.13.038.179-.012l.364-.385zm-.91.963c.077-.082.024-.215-.088-.223-.04-.002-.077.013-.105.042l-.363.387c-.042.045-.047.112-.013.164.048.071.148.08.207.017l.362-.387zm-4.51-1.543c-.04.099.047.201.152.179.043-.01.077-.04.093-.08l.2-.49c.042-.102-.05-.207-.157-.178-.04.011-.071.039-.087.077-.068.163-.136.327-.201.492zm.512-1.227c-.042.098.043.204.148.183.042-.008.078-.037.095-.077.07-.162.141-.323.213-.484.04-.092-.03-.193-.13-.186-.05.004-.092.033-.112.078-.072.162-.144.324-.214.486zm.545-1.212c-.02.044-.016.094.012.134.06.082.185.07.228-.022.074-.16.15-.32.226-.478.046-.096-.034-.204-.139-.188-.044.006-.081.033-.1.073-.077.16-.153.32-.227.481zm2.289-4.326c-.048.082 0 .185.095.2.053.007.105-.018.133-.064.09-.151.18-.302.273-.453.056-.093-.017-.21-.126-.201-.042.004-.079.027-.1.063-.093.151-.184.303-.275.455zm.695-1.133c-.026.042-.027.093-.004.136.05.088.174.09.228.006.094-.149.189-.297.285-.446.06-.093-.014-.214-.125-.203-.04.004-.076.025-.098.06-.096.148-.191.298-.286.447zm.723-1.114c-.061.093.013.216.124.205.04-.004.075-.025.097-.058.098-.147.196-.293.296-.439.052-.077.01-.182-.08-.203-.054-.012-.108.009-.14.054l-.297.44zm.75-1.097c-.061.089.002.21.11.209.043 0 .082-.02.108-.056.1-.145.203-.289.305-.432.065-.091-.005-.217-.117-.21-.04.003-.075.023-.098.056-.103.144-.206.288-.307.433zm.775-1.079c-.027.038-.033.086-.015.13.04.095.168.11.229.027.104-.142.21-.284.315-.425.035-.047.035-.11 0-.158-.052-.071-.159-.072-.212 0-.106.141-.212.283-.317.426zm.798-1.062c-.058.075-.02.184.07.209.053.013.107-.005.14-.048.107-.14.215-.28.324-.418.047-.062.033-.15-.032-.193-.058-.038-.135-.025-.177.03-.11.14-.218.28-.325.42zm2.765-3.567c-.025.033-.033.074-.022.114.029.107.166.134.233.047l.323-.42c.068-.088.003-.216-.109-.213-.04.001-.076.02-.1.05-.11.14-.217.281-.325.422zm.817-1.047c-.038.048-.038.115 0 .164.053.067.154.068.208 0l.33-.412c.068-.084.014-.207-.092-.216-.044-.003-.086.015-.113.05-.112.137-.222.275-.333.413zm.836-1.032c-.062.075-.025.188.07.213.05.012.101-.005.134-.045l.337-.409c.044-.052.04-.128-.006-.176-.055-.057-.147-.054-.198.007l-.337.41zm.847-1.021c-.046.055-.04.134.012.182.056.052.142.046.191-.012l.34-.406c.032-.038.04-.088.023-.133-.037-.094-.16-.115-.225-.038l-.341.407zm.853-1.015c-.031.037-.04.088-.022.134.037.093.16.113.225.037l.342-.405c.068-.081.018-.206-.087-.218-.045-.004-.087.013-.116.047l-.342.405zM20.045 29.98c.104.14.317-.017.212-.158-.107-.144-.216-.284-.328-.424-.112-.136-.314.033-.206.168.11.136.217.274.322.414zm-.835-1.012c.12.13.312-.05.196-.179-.12-.131-.243-.26-.367-.388-.123-.126-.31.06-.19.185.123.125.243.253.361.382zm-.924-.936c.125.118.31-.07.182-.193-.128-.122-.258-.243-.39-.363-.127-.116-.308.076-.178.196.13.119.258.238.386.36zm-.975-.895c.13.117.307-.078.179-.196-.13-.118-.261-.237-.39-.357-.127-.119-.309.075-.18.194.128.121.26.24.391.36zm-.968-.916c.124.125.31-.061.19-.186-.122-.124-.242-.252-.357-.382-.118-.132-.313.046-.2.175.12.134.242.265.367.393zm-.87-1.027c.099.141.318-.006.217-.152-.1-.141-.193-.286-.28-.436-.09-.153-.315-.017-.23.132.092.157.188.308.293.456zm-1.028-4.549c-.014.172.248.2.265.023.016-.174.034-.347.056-.521.022-.176-.24-.205-.263-.034-.023.177-.041.354-.058.532zm.182-1.325c-.03.173.23.218.26.048.032-.173.066-.345.102-.517.036-.173-.223-.223-.26-.055-.037.174-.07.35-.102.524zm.277-1.302c-.038.168.218.232.258.06l.12-.517c.04-.172-.218-.228-.258-.06l-.12.517zm.301-1.291c-.04.172.219.228.258.06l.12-.517c.038-.174-.22-.227-.26-.06l-.118.517zm.892-5.262c-.01.176.254.188.265.016.01-.178.018-.356.023-.535.003-.175-.26-.18-.265-.006-.005.175-.013.35-.023.525zm.02-1.313c.007.178.27.163.265-.009-.006-.178-.016-.357-.03-.535-.013-.172-.276-.155-.264.02.014.175.023.35.03.524zM35.025 34.45c-.316 1.905-1.289 3.751-2.842 5.085-2.476 2.127-5.941 2.349-8.719.602-.746-.469-1.434-1.105-2.01-1.952-1.076-1.582-1.418-3.556-1.1-5.468.316-1.906 1.289-3.751 2.842-5.086 1.87-1.606 4.393-2.309 6.784-1.547 1.206.385 2.563 1.263 3.433 2.24 1.48 1.667 1.973 3.952 1.612 6.126zm-12.58 3.98c-.965-1.544-1.263-3.427-.96-5.254.317-1.905 1.289-3.751 2.842-5.085.926-.796 2.023-1.374 3.206-1.632 1.024-.223 1.287-.257-.088-.132-1.435.132-2.811.767-3.904 1.705-1.457 1.252-2.37 2.984-2.666 4.771-.296 1.782.02 3.617 1.017 5.084.16.235.33.453.506.654.702.796.312.311.048-.11zm12.059-4.067c.334-2.01-.115-4.144-1.487-5.688-.806-.907-1.865-1.515-3.06-1.741-1.917-.362-3.827.305-5.285 1.558-1.457 1.251-2.369 2.983-2.666 4.77-.387 2.332.296 4.85 2.188 6.353 2.337 1.855 5.484 1.375 7.644-.48 1.457-1.252 2.37-2.984 2.666-4.772zM15.92 50.946c.072.158-.17.267-.241.11-.78-1.723-2.296-3.662-3.53-5.092-.114-.132.086-.304.2-.173 1.252 1.45 2.78 3.41 3.57 5.155zM52.32 23.8c-1.093.556-2.18 1.287-3.326 2.057-2.35 1.58-4.944 3.324-8.337 4.09-.219.292-.426.597-.62.918-.075.126-.237.166-.363.091-.125-.075-.166-.237-.091-.363 1.152-1.912 2.74-3.243 4.311-4.56.448-.376.895-.75 1.329-1.136l7.702-6.488.01-.008c1.108-.843 1.784-1.628 2.136-2.322.411-.81.477-1.742-.28-2.37-.908-.754-1.953-.392-2.86.18-.712.452-1.41 1.094-2.048 1.727-.233.231-.488.488-.749.75-1.8 1.813-3.903 3.93-7.667 6.436L40.03 24.29c-.102.105-.27.108-.375.007-.105-.102-.108-.27-.007-.375l12.615-13.069c.968-1.003 1.634-2.703.563-3.863-.903-.978-2.091-.632-3.015.092-.618.485-1.228 1.18-1.852 1.97-.585.74-1.705 2.15-3.519 4.003-1.786 1.825-4.245 4.082-7.532 6.558-.117.316-.147.535-.07.633.092.114.072.28-.042.371-.115.09-.281.071-.372-.043-.372-.47.307-1.96 1.483-3.865.01-.027.026-.052.046-.074.25-.405.524-.828.814-1.264 2.867-4.309 7.342-9.969 8.124-10.854.86-.974 1.342-2.655.19-3.586-1.51-1.22-3.546.624-4.442 1.759l-.008.009-8.984 10.41-.401.468c-2.471 2.883-10.47 10.69-13.583 4.314-.718-1.472-.643-3.279-.596-4.885.065-2.236.135-4.603-.931-6.578-.355-.657-.809-1.165-1.291-1.5-.485-.338-.995-.497-1.453-.45-.877.092-1.282.811-1.459 1.677-.191.939-.122 2.053-.075 2.797.065 1.028.115 1.99-.032 3.017-.41 2.878-1.422 4.986-2.46 7.15-1.187 2.473-2.409 5.02-2.779 8.875-.04.423-.053.87-.066 1.329-.03 1.076-.063 2.217-.457 3.39.397-.373.757-.746 1.007-1.065.215-.274.631.052.417.326-.699.889-1.8 1.83-2.709 2.518 4.282 1.077 12.39 9.446 13.512 13.813.193.75-.011.712.692.07 2.59-2.362 5.032-3.87 7.42-5.345 1.12-.691 2.228-1.376 3.343-2.145 2.962-2.044 4.49-3.41 5.721-4.51 1.825-1.63 3.005-2.683 7.136-4.47 1.546-.669 3.228-1.495 4.87-2.39 1.581-.864 3.127-1.794 4.482-2.716.851-.578 1.558-1.646.942-2.636-.625-1.006-1.71-.806-2.579-.363zm-11.404 5.814c3.192-.79 5.674-2.46 7.93-3.976l.465-.312c-.934.463-1.952.95-2.966 1.41-1.586.719-3.169 1.372-4.423 1.762-.35.353-.688.722-1.006 1.116zm1.463-7.757c3.092-2.178 4.952-4.05 6.567-5.677.249-.25.49-.494.75-.751.677-.671 1.424-1.367 2.246-1.855-.866.398-1.825 1.109-3.026 2-.488.361-1.014.752-1.603 1.171l-4.934 5.112zm-5.255-2.74c3.088-2.355 5.418-4.5 7.128-6.247 1.808-1.847 2.92-3.248 3.5-3.982.4-.505.795-.973 1.191-1.376l-10.597 9.48c-.526.833-.951 1.564-1.222 2.126zm12.355-4.615c1.533-1.116 3.839-2.704 5.65-1.2.953.79.94 1.978.413 3.016-.386.762-1.11 1.61-2.287 2.504l-7.683 6.472c-.437.389-.887.765-1.337 1.143-.463.388-.928.778-1.381 1.183 1.005-.371 2.137-.851 3.273-1.366 2.251-1.02 4.509-2.172 5.83-2.889 1.133-.65 2.643-.685 3.39.52.772 1.24.007 2.605-1.093 3.353-1.358.924-2.92 1.863-4.526 2.74-1.654.903-3.351 1.736-4.915 2.412-4.049 1.751-5.204 2.783-6.992 4.38-1.241 1.108-2.783 2.486-5.773 4.55-1.11.766-2.233 1.46-3.367 2.16-2.848 1.758-5.773 3.565-8.934 6.837l-.001.002-4.147 4.225c-.656.667-1.104 1.376-2.158 1.287-.536-.045-1.144-.278-1.78-.631-2.141-1.186-4.642-3.738-6.278-5.564-1.595-1.78-4.225-4.985-4.832-7.307-.165-.63-.34-1.597.111-2.156.22-.273.343-.152-.102-.253-.566-.127-.727-.435-.371-.957 1.094-1.603 3.028-3.365 4.63-4.453.315-.259.721-.242 1.252-.155.826-.573 1.1-.722 1.444-1.675.416-1.154.448-2.298.479-3.374.013-.465.026-.918.069-1.364.379-3.95 1.62-6.538 2.826-9.05 1.021-2.128 2.016-4.2 2.415-7 .141-.987.09-1.92.028-2.908-.049-.772-.12-1.928.085-2.934.22-1.078.748-1.976 1.922-2.098.584-.06 1.219.131 1.808.541.548.38 1.06.952 1.455 1.684 1.133 2.1 1.062 4.54.994 6.846-.044 1.505-.128 3.263.543 4.636 2.882 5.904 10.525-1.882 12.706-4.427l.403-.47 8.976-10.4C43.34.949 45.63-.923 47.414.52c1.396 1.129.949 3.132-.125 4.347-.755.855-4.971 6.184-7.825 10.415l9.25-8.275.004-.002c1.26-1.09 3.211-1.766 4.498-.373 1.27 1.376.605 3.37-.571 4.59l-3.166 3.28zM9.364 44.882c1.838 1.874 5.49 6.049 5.849 8.647.082.601-.075.726.51.13l3.645-3.712c.418-.433.552-.611.512-1.041-.376-4.042-9.363-13.023-13.322-13.923-.364-.083-1.173-.26-1.408-.06l-.024.017c-1.624 1.1-3.07 2.501-4.293 4.03-.474.593.1.523 1.095.748 2.889.652 5.432 3.117 7.436 5.163z"/>
        <path d="M1.742 40.286c-.297-.012-.516.045-.655.206-.33.381-.135 1.277-.023 1.705.579 2.216 3.188 5.384 4.713 7.086 1.594 1.78 4.054 4.297 6.14 5.453.577.32 1.114.53 1.57.568 1.24.105 1.38-1.077 1.146-1.992-.655-2.563-3.809-6.184-5.647-8.06-1.513-1.544-4.972-4.868-7.244-4.966zm45.07-38.528c.174.256.228.557.174.838-.053.28-.214.541-.47.715-.254.173-.556.227-.837.174-.17-.033-.332-.104-.472-.212l-.299.355c-.066.077-.187.056-.225-.037-.017-.046-.01-.097.022-.134l.312-.37c-.018-.023-.036-.047-.053-.072-.173-.255-.227-.556-.174-.837.054-.281.215-.542.47-.715.255-.174.556-.227.837-.174.281.053.542.214.715.47zm-.219.15c-.132-.195-.331-.318-.545-.359-.215-.04-.444 0-.64.133-.194.132-.316.331-.357.545-.04.215 0 .445.132.64.133.194.332.316.546.357.214.041.444 0 .639-.132.194-.133.317-.331.358-.546.04-.214 0-.444-.133-.639zm5.875 5.752c.174.255.227.556.174.837-.054.281-.214.542-.47.715-.255.174-.556.227-.837.174-.28-.054-.541-.214-.715-.47-.174-.255-.227-.556-.174-.837.054-.28.214-.541.47-.715.255-.173.556-.227.837-.174.281.054.542.215.715.47zm-.22.149c-.131-.195-.33-.317-.545-.358-.214-.041-.444 0-.638.132-.195.133-.318.331-.358.546-.041.214 0 .444.132.639.133.194.331.317.546.358.214.04.444 0 .638-.133.195-.132.318-.331.358-.545.041-.215 0-.445-.132-.64zm2.243 6.782c.173.255.227.556.173.837-.053.281-.214.542-.47.715-.254.174-.556.228-.837.174-.205-.04-.4-.136-.557-.285.014.047.004.1-.036.138l-.391.36c-.033.03-.078.041-.121.03-.103-.026-.136-.154-.058-.226l.39-.358c.035-.034.086-.044.133-.029l.003.002c-.028-.032-.053-.066-.078-.101-.173-.255-.227-.557-.173-.838.053-.28.214-.541.47-.715.254-.173.556-.227.837-.173.28.053.541.214.715.469zm-.087.788c.04-.215 0-.444-.133-.64-.132-.194-.33-.316-.545-.357-.214-.04-.444 0-.639.132-.194.133-.317.332-.358.546-.04.214 0 .444.133.639.132.194.33.317.545.358.214.04.444 0 .639-.133.194-.132.317-.331.358-.545zm-.002 9.114c.345.508.212 1.208-.296 1.553-.507.345-1.207.212-1.552-.296-.345-.507-.212-1.207.295-1.552.508-.345 1.208-.212 1.553.295zm-.22.15c-.263-.388-.796-.49-1.183-.226-.388.263-.49.797-.226 1.184.263.387.797.489 1.184.226.387-.264.49-.797.226-1.185zm-5.639 3.682c.075.197.092.407.054.608-.054.28-.215.541-.47.715-.255.173-.556.227-.837.173-.281-.053-.542-.214-.715-.469l-.01-.014-.34.166c-.09.043-.194-.025-.19-.125.003-.05.03-.093.075-.114l.337-.164c-.069-.19-.083-.393-.046-.586.054-.281.214-.542.47-.715.255-.174.556-.228.837-.174.28.053.538.212.712.464.124-.066.248-.134.372-.202.07-.038.157-.006.187.068.024.062-.001.133-.06.165l-.376.204zm-.34-.08c-.132-.195-.33-.318-.545-.359-.214-.04-.444 0-.639.133-.194.132-.317.33-.358.545-.04.214 0 .444.133.639.132.195.331.317.545.358.215.04.445 0 .64-.133.194-.132.316-.33.357-.545.041-.214 0-.444-.132-.639zm.18-8.325c.155.246.2.532.15.8-.053.28-.214.54-.47.714-.255.174-.556.228-.837.174-.28-.053-.541-.214-.715-.47-.173-.254-.227-.556-.174-.837.054-.28.215-.541.47-.715.255-.173.556-.227.837-.173.213.04.414.142.574.3l.352-.286c.05-.041.122-.04.171.002.062.055.06.15-.003.203l-.354.288zm-.243.11c-.132-.194-.331-.316-.545-.357-.215-.04-.444 0-.64.132-.194.133-.316.332-.357.546-.04.214 0 .444.132.639.133.194.332.317.546.358.214.04.444 0 .639-.133.194-.132.317-.33.358-.545.04-.215 0-.444-.133-.64zm-2.232-5.156c.173.255.227.557.174.838-.054.28-.215.541-.47.715-.255.173-.556.227-.837.173-.165-.031-.323-.1-.46-.202l-.164.171c-.038.04-.093.052-.144.032-.088-.034-.113-.146-.048-.215l.164-.171c-.022-.027-.043-.055-.063-.084-.174-.255-.227-.557-.174-.837.054-.281.214-.542.47-.715.255-.174.556-.228.837-.174.164.031.32.099.458.2l.28-.297c.067-.07.183-.048.22.042.019.048.009.102-.027.14l-.28.298c.022.027.043.056.064.086zm-.087.788c.041-.214 0-.444-.132-.639-.133-.194-.331-.317-.546-.358-.214-.04-.444 0-.639.133-.194.132-.317.33-.358.545-.04.214 0 .444.133.639.132.195.331.317.545.358.215.04.445 0 .64-.133.194-.132.316-.33.357-.545zM40.53 9.336c.174.256.227.557.174.838-.054.28-.214.541-.47.715-.255.173-.556.227-.837.174-.127-.025-.25-.07-.363-.138l-.277.346c-.045.057-.127.067-.185.022-.058-.046-.068-.129-.022-.187.09-.115.182-.229.274-.342-.052-.051-.1-.108-.142-.17-.174-.256-.227-.557-.174-.838.054-.281.214-.542.47-.715.255-.174.556-.227.837-.174.28.054.541.214.715.47zm-.087.788c.041-.214 0-.444-.132-.639-.133-.194-.331-.317-.546-.358-.214-.04-.444 0-.638.133-.195.132-.318.331-.358.545-.041.215 0 .445.132.64.132.194.331.316.545.357.215.041.445 0 .64-.132.194-.133.316-.331.357-.546zm-.113 22.137c.186.483.014 1.034-.415 1.325-.492.335-1.17.221-1.524-.256-.142.085-.283.172-.424.26-.04.025-.09.027-.132.005-.09-.048-.095-.174-.009-.23.143-.09.288-.178.432-.265-.208-.487-.039-1.063.4-1.362.505-.343 1.201-.213 1.548.29l.375-.19c.065-.031.143-.006.177.058.034.066.008.147-.059.18l-.369.185zm-.338-.078c-.264-.387-.797-.489-1.185-.226-.387.264-.488.797-.225 1.185.263.387.797.488 1.184.225.387-.263.489-.797.226-1.184zm-.343-5.096c.173.255.227.556.174.837-.054.281-.215.542-.47.715-.255.174-.556.228-.837.174-.187-.035-.364-.118-.513-.244l-.172.163c-.033.031-.078.043-.123.033-.101-.026-.135-.152-.06-.225l.174-.166-.021-.03c-.174-.256-.228-.557-.174-.838.053-.28.214-.541.47-.715.254-.173.556-.227.837-.174.194.037.378.125.53.26l.347-.305c.068-.058.172-.035.209.047.023.053.01.114-.034.153l-.345.303.008.012zm-.22.149c-.132-.195-.33-.317-.545-.358-.214-.04-.444 0-.639.132-.194.133-.317.332-.358.546-.04.214 0 .444.133.639.132.194.331.317.545.358.215.04.444 0 .64-.133.194-.132.316-.331.357-.545.04-.215 0-.444-.132-.64zm-1.593-3.965c.174.256.227.557.174.838-.054.28-.214.541-.47.715-.255.173-.556.227-.837.174-.28-.054-.541-.214-.715-.47-.173-.255-.227-.556-.174-.837.054-.281.215-.542.47-.715.255-.174.556-.227.837-.174.166.032.325.1.463.205l.306-.32c.062-.063.166-.05.211.026.03.052.022.115-.02.158l-.306.32c.022.025.042.052.061.08zm-.086.788c.04-.214 0-.444-.133-.638-.132-.195-.331-.318-.545-.358-.215-.041-.445 0-.64.132-.194.132-.316.331-.357.545-.041.215 0 .445.132.64.133.194.331.316.546.357.214.041.444 0 .639-.132.194-.133.317-.331.358-.546zm-3.662-5.209c.174.255.227.557.174.838-.054.28-.214.541-.47.715-.255.173-.556.227-.837.173-.084-.016-.166-.041-.244-.076-.066.128-.13.256-.195.385-.045.09-.17.099-.227.016-.028-.04-.031-.091-.01-.135l.203-.402c-.091-.07-.173-.156-.242-.257-.173-.255-.227-.557-.174-.837.054-.281.215-.542.47-.715.255-.174.556-.228.837-.174.054.01.107.024.16.042l.055-.097c.02-.036.056-.06.096-.066.11-.015.189.102.134.198l-.047.082c.122.079.23.183.317.31zm-.219.15c-.078-.115-.178-.204-.291-.267-.015 0-.029-.004-.043-.01-.02-.007-.036-.02-.05-.034-.052-.021-.106-.037-.161-.048-.215-.04-.445 0-.64.133-.194.132-.316.33-.357.545-.041.214 0 .444.132.639.133.195.331.317.546.358.214.04.444 0 .638-.133.195-.132.318-.33.358-.545.041-.214 0-.444-.132-.639zM17.024 7.52c-.082.431-.408.774-.833.877.027.137.05.274.071.412.026.17-.235.214-.262.04-.021-.14-.045-.28-.072-.42-.071 0-.142-.006-.211-.02-.606-.115-1.004-.7-.889-1.306.116-.607.7-1.005 1.307-.89.606.116 1.004.701.889 1.308zm-.26-.049c.087-.462-.216-.909-.679-.997-.462-.088-.908.216-.996.678-.088.463.215.909.678.997.462.088.908-.215.996-.678zm.26 6.675c-.106.556-.612.945-1.176.905-.03.147-.061.294-.093.44-.037.17-.296.117-.259-.055l.092-.435c-.539-.17-.865-.718-.76-1.274.104-.544.591-.93 1.144-.907-.003-.014-.004-.03-.002-.045.023-.174.043-.349.062-.523.009-.087.097-.141.18-.11.055.022.09.077.083.137-.018.177-.04.354-.062.53-.002.017-.008.034-.016.048.564.152.917.714.807 1.289zm-.938-1.047c-.463-.088-.909.216-.997.678-.088.463.215.909.678.997.462.088.909-.216.997-.678.088-.463-.216-.909-.678-.997zm-.576 8.735c.173.255.227.556.173.837-.053.281-.214.542-.469.715-.087.06-.18.105-.276.137v.001c.04.13.085.258.135.385.063.163-.184.258-.247.096-.056-.14-.105-.284-.149-.429-.1.008-.202.003-.3-.016-.281-.054-.542-.214-.715-.47-.174-.255-.228-.556-.174-.837.053-.28.214-.541.47-.715.29-.198.522-.234.837-.174.28.054.541.214.715.47zm-.087.788c.04-.215 0-.445-.133-.64-.132-.194-.33-.316-.545-.357-.214-.041-.444 0-.639.132-.194.133-.317.331-.358.546-.04.214 0 .444.133.638.132.195.33.318.545.358.214.041.444 0 .639-.132s.317-.331.358-.545zM35.65 34.903c-.077.062-.062.182.027.224.046.021.098.015.138-.016.138-.11.277-.217.417-.323.079-.06.067-.18-.022-.225-.045-.022-.098-.017-.138.014-.142.107-.282.216-.422.326zm16.682-8.841c.148-.098-.002-.316-.146-.222-.147.098-.294.194-.442.29-.08.051-.082.166-.004.22.045.03.102.031.147.002.15-.096.298-.193.445-.29zm-1.118.717c.09-.056.08-.189-.016-.233-.04-.018-.086-.016-.124.008l-.451.277c-.094.057-.082.196.02.237.04.015.081.011.118-.01l.453-.279zm-1.139.687c.094-.055.086-.194-.015-.237-.038-.016-.082-.013-.118.008-.152.089-.305.177-.458.264-.062.036-.085.113-.052.177.035.066.118.09.183.053.154-.087.308-.176.46-.265zm-4.57 2.38c.045-.021.074-.064.077-.113.005-.1-.098-.17-.189-.127l-.48.224c-.1.046-.103.187-.004.238.037.018.078.02.116.002l.48-.224zm-1.204.556c.044-.02.074-.062.077-.11.008-.1-.095-.173-.187-.13l-.482.219c-.055.025-.086.083-.076.142.014.086.106.135.185.099l.483-.22zm-1.207.549c.094-.043.105-.17.021-.23-.039-.026-.087-.031-.13-.012l-.483.22c-.088.042-.105.159-.031.222.04.034.094.041.141.02l.482-.22zm-1.203.553c.043-.02.072-.061.076-.108.009-.102-.096-.175-.188-.132l-.48.226c-.095.046-.102.177-.013.233.039.024.085.026.126.007l.48-.226zm-4.587 2.517c.087-.059.075-.188-.021-.231-.042-.018-.089-.014-.127.012-.147.099-.294.2-.439.302-.058.042-.073.121-.034.18.04.064.126.08.187.037.144-.102.289-.201.434-.3zm-1.524-3.59c-.073.08-.026.208.08.222.044.005.085-.01.115-.041l.36-.386c.072-.075.033-.2-.068-.221-.045-.01-.092.005-.123.038-.122.13-.244.259-.364.389zm16-13.368c.05-.045.06-.117.022-.173-.045-.067-.137-.078-.198-.025l-.397.35c-.082.072-.047.207.06.23.042.007.083-.004.114-.03l.4-.352zm-1.002.872c.086-.074.046-.214-.066-.232-.039-.006-.076.005-.106.03l-.404.343c-.08.069-.053.199.05.229.043.011.087.002.121-.027l.405-.343zm-1.015.854c.037-.03.054-.078.045-.126-.019-.1-.137-.142-.215-.077l-.408.337c-.05.042-.063.112-.03.169.041.07.135.088.199.036l.409-.339zm-3.635 2.941c.086-.068.056-.205-.05-.232-.04-.01-.082-.001-.115.025l-.414.33c-.037.03-.055.076-.05.122.015.102.135.15.215.086l.414-.33zm-1.036.827c.083-.066.058-.198-.043-.23-.042-.013-.088-.004-.122.023l-.414.331c-.081.065-.06.194.038.229.044.015.091.007.127-.022l.414-.33zm-1.034.829c.06-.049.067-.135.016-.192-.047-.053-.127-.06-.182-.015l-.413.333c-.083.068-.057.2.046.23.042.012.086.004.12-.024l.413-.332zm-1.03.833c.085-.07.054-.206-.052-.232-.04-.01-.083 0-.115.026-.137.112-.275.223-.411.336-.083.068-.056.2.047.23.042.011.087.002.12-.025l.411-.335zm-1.024.84c.057-.048.064-.132.017-.188-.048-.056-.13-.063-.186-.016l-.408.339c-.082.07-.053.2.05.23.042.01.086.002.12-.027l.407-.338zm-1.015.85c.084-.072.05-.209-.059-.231-.04-.008-.08.002-.112.029l-.404.344c-.08.068-.053.195.046.227.044.014.091.005.126-.025l.403-.344zm-3.727 3.375c.067-.067.046-.18-.042-.217-.05-.02-.105-.01-.144.028l-.377.376c-.042.043-.05.109-.02.161.046.075.147.087.209.025.124-.125.249-.25.374-.373zm-3.565-2.161c-.033.035-.044.084-.03.13.033.097.155.124.225.05l.36-.39c.03-.033.042-.08.03-.125-.028-.1-.154-.13-.225-.055l-.36.39zM50.595 9.591c.04-.045.044-.11.01-.16-.048-.073-.152-.08-.21-.015-.116.133-.232.266-.35.398-.062.072-.032.182.057.213.051.017.107.003.142-.037.118-.133.234-.266.35-.399zm-.88.994c.046-.051.046-.127 0-.178-.054-.058-.144-.057-.197.001l-.354.395c-.07.078-.025.203.078.22.045.006.09-.01.12-.043l.354-.395zm-.887.986c.04-.046.046-.111.013-.162-.049-.073-.15-.081-.21-.017l-.356.392c-.044.048-.047.118-.008.17.05.065.147.07.203.009l.358-.392zm-.896.978c.072-.077.028-.203-.076-.22-.044-.008-.088.007-.119.04l-.36.39c-.075.082-.021.215.09.222.04.002.078-.013.105-.042l.36-.39zm-.901.973c.047-.05.047-.128.001-.18-.052-.057-.142-.058-.195 0l-.362.386c-.075.08-.025.212.084.223.041.004.081-.011.11-.041l.362-.388zm-3.43 3.622c.043-.046.049-.115.013-.168-.049-.068-.147-.076-.205-.015l-.367.382c-.07.074-.036.194.063.22.047.012.095-.001.128-.036l.368-.383zm-.919.956c.071-.075.035-.197-.065-.22-.047-.011-.093.003-.126.037l-.368.381c-.073.078-.031.206.075.223.043.007.086-.007.116-.039l.368-.382zm-.92.955c.073-.076.033-.203-.07-.222-.044-.009-.09.006-.12.038l-.369.382c-.074.077-.031.205.074.222.044.007.087-.007.117-.038l.368-.382zm-.92.954c.034-.036.045-.086.03-.133-.03-.095-.151-.123-.221-.051l-.368.381c-.072.074-.035.197.065.221.046.01.093-.003.125-.037l.369-.381zm-.921.953c.074-.077.032-.205-.074-.222-.043-.008-.086.007-.117.038l-.368.382c-.033.034-.045.083-.032.13.03.097.152.127.223.054l.368-.382zm-.92.954c.05-.053.049-.138-.005-.188-.053-.05-.136-.048-.186.004l-.368.382c-.072.076-.034.2.069.222.045.009.09-.005.122-.038l.368-.382zm-2.936 3.066c.032-.034.044-.082.031-.127-.028-.099-.153-.13-.223-.055l-.365.385c-.053.057-.047.145.014.194.054.043.13.038.179-.012l.364-.385zm-.91.963c.077-.082.024-.215-.088-.223-.04-.002-.077.013-.105.042l-.363.387c-.042.045-.047.112-.013.164.048.071.148.08.207.017l.362-.387zm-4.51-1.543c-.04.099.047.201.152.179.043-.01.077-.04.093-.08l.2-.49c.042-.102-.05-.207-.157-.178-.04.011-.071.039-.087.077-.068.163-.136.327-.201.492zm.512-1.227c-.042.098.043.204.148.183.042-.008.078-.037.095-.077.07-.162.141-.323.213-.484.04-.092-.03-.193-.13-.186-.05.004-.092.033-.112.078-.072.162-.144.324-.214.486zm.545-1.212c-.02.044-.016.094.012.134.06.082.185.07.228-.022.074-.16.15-.32.226-.478.046-.096-.034-.204-.139-.188-.044.006-.081.033-.1.073-.077.16-.153.32-.227.481zm2.289-4.326c-.048.082 0 .185.095.2.053.007.105-.018.133-.064.09-.151.18-.302.273-.453.056-.093-.017-.21-.126-.201-.042.004-.079.027-.1.063-.093.151-.184.303-.275.455zm.695-1.133c-.026.042-.027.093-.004.136.05.088.174.09.228.006.094-.149.189-.297.285-.446.06-.093-.014-.214-.125-.203-.04.004-.076.025-.098.06-.096.148-.191.298-.286.447zm.723-1.114c-.061.093.013.216.124.205.04-.004.075-.025.097-.058.098-.147.196-.293.296-.439.052-.077.01-.182-.08-.203-.054-.012-.108.009-.14.054l-.297.44zm.75-1.097c-.061.089.002.21.11.209.043 0 .082-.02.108-.056.1-.145.203-.289.305-.432.065-.091-.005-.217-.117-.21-.04.003-.075.023-.098.056-.103.144-.206.288-.307.433zm.775-1.079c-.027.038-.033.086-.015.13.04.095.168.11.229.027.104-.142.21-.284.315-.425.035-.047.035-.11 0-.158-.052-.071-.159-.072-.212 0-.106.141-.212.283-.317.426zm.798-1.062c-.058.075-.02.184.07.209.053.013.107-.005.14-.048.107-.14.215-.28.324-.418.047-.062.033-.15-.032-.193-.058-.038-.135-.025-.177.03-.11.14-.218.28-.325.42zm2.765-3.567c-.025.033-.033.074-.022.114.029.107.166.134.233.047l.323-.42c.068-.088.003-.216-.109-.213-.04.001-.076.02-.1.05-.11.14-.217.281-.325.422zm.817-1.047c-.038.048-.038.115 0 .164.053.067.154.068.208 0l.33-.412c.068-.084.014-.207-.092-.216-.044-.003-.086.015-.113.05-.112.137-.222.275-.333.413zm.836-1.032c-.062.075-.025.188.07.213.05.012.101-.005.134-.045l.337-.409c.044-.052.04-.128-.006-.176-.055-.057-.147-.054-.198.007l-.337.41zm.847-1.021c-.046.055-.04.134.012.182.056.052.142.046.191-.012l.34-.406c.032-.038.04-.088.023-.133-.037-.094-.16-.115-.225-.038l-.341.407zm.853-1.015c-.031.037-.04.088-.022.134.037.093.16.113.225.037l.342-.405c.068-.081.018-.206-.087-.218-.045-.004-.087.013-.116.047l-.342.405zM20.045 29.98c.104.14.317-.017.212-.158-.107-.144-.216-.284-.328-.424-.112-.136-.314.033-.206.168.11.136.217.274.322.414zm-.835-1.012c.12.13.312-.05.196-.179-.12-.131-.243-.26-.367-.388-.123-.126-.31.06-.19.185.123.125.243.253.361.382zm-.924-.936c.125.118.31-.07.182-.193-.128-.122-.258-.243-.39-.363-.127-.116-.308.076-.178.196.13.119.258.238.386.36zm-.975-.895c.13.117.307-.078.179-.196-.13-.118-.261-.237-.39-.357-.127-.119-.309.075-.18.194.128.121.26.24.391.36zm-.968-.916c.124.125.31-.061.19-.186-.122-.124-.242-.252-.357-.382-.118-.132-.313.046-.2.175.12.134.242.265.367.393zm-.87-1.027c.099.141.318-.006.217-.152-.1-.141-.193-.286-.28-.436-.09-.153-.315-.017-.23.132.092.157.188.308.293.456zm-1.028-4.549c-.014.172.248.2.265.023.016-.174.034-.347.056-.521.022-.176-.24-.205-.263-.034-.023.177-.041.354-.058.532zm.182-1.325c-.03.173.23.218.26.048.032-.173.066-.345.102-.517.036-.173-.223-.223-.26-.055-.037.174-.07.35-.102.524zm.277-1.302c-.038.168.218.232.258.06l.12-.517c.04-.172-.218-.228-.258-.06l-.12.517zm.301-1.291c-.04.172.219.228.258.06l.12-.517c.038-.174-.22-.227-.26-.06l-.118.517zm.892-5.262c-.01.176.254.188.265.016.01-.178.018-.356.023-.535.003-.175-.26-.18-.265-.006-.005.175-.013.35-.023.525zm.02-1.313c.007.178.27.163.265-.009-.006-.178-.016-.357-.03-.535-.013-.172-.276-.155-.264.02.014.175.023.35.03.524zM35.025 34.45c-.316 1.905-1.289 3.751-2.842 5.085-2.476 2.127-5.941 2.349-8.719.602-.746-.469-1.434-1.105-2.01-1.952-1.076-1.582-1.418-3.556-1.1-5.468.316-1.906 1.289-3.751 2.842-5.086 1.87-1.606 4.393-2.309 6.784-1.547 1.206.385 2.563 1.263 3.433 2.24 1.48 1.667 1.973 3.952 1.612 6.126zm-12.58 3.98c-.965-1.544-1.263-3.427-.96-5.254.317-1.905 1.289-3.751 2.842-5.085.926-.796 2.023-1.374 3.206-1.632 1.024-.223 1.287-.257-.088-.132-1.435.132-2.811.767-3.904 1.705-1.457 1.252-2.37 2.984-2.666 4.771-.296 1.782.02 3.617 1.017 5.084.16.235.33.453.506.654.702.796.312.311.048-.11zm12.059-4.067c.334-2.01-.115-4.144-1.487-5.688-.806-.907-1.865-1.515-3.06-1.741-1.917-.362-3.827.305-5.285 1.558-1.457 1.251-2.369 2.983-2.666 4.77-.387 2.332.296 4.85 2.188 6.353 2.337 1.855 5.484 1.375 7.644-.48 1.457-1.252 2.37-2.984 2.666-4.772zM15.92 50.946c.072.158-.17.267-.241.11-.78-1.723-2.296-3.662-3.53-5.092-.114-.132.086-.304.2-.173 1.252 1.45 2.78 3.41 3.57 5.155zM52.32 23.8c-1.093.556-2.18 1.287-3.326 2.057-2.35 1.58-4.944 3.324-8.337 4.09-.219.292-.426.597-.62.918-.075.126-.237.166-.363.091-.125-.075-.166-.237-.091-.363 1.152-1.912 2.74-3.243 4.311-4.56.448-.376.895-.75 1.329-1.136l7.702-6.488.01-.008c1.108-.843 1.784-1.628 2.136-2.322.411-.81.477-1.742-.28-2.37-.908-.754-1.953-.392-2.86.18-.712.452-1.41 1.094-2.048 1.727-.233.231-.488.488-.749.75-1.8 1.813-3.903 3.93-7.667 6.436L40.03 24.29c-.102.105-.27.108-.375.007-.105-.102-.108-.27-.007-.375l12.615-13.069c.968-1.003 1.634-2.703.563-3.863-.903-.978-2.091-.632-3.015.092-.618.485-1.228 1.18-1.852 1.97-.585.74-1.705 2.15-3.519 4.003-1.786 1.825-4.245 4.082-7.532 6.558-.117.316-.147.535-.07.633.092.114.072.28-.042.371-.115.09-.281.071-.372-.043-.372-.47.307-1.96 1.483-3.865.01-.027.026-.052.046-.074.25-.405.524-.828.814-1.264 2.867-4.309 7.342-9.969 8.124-10.854.86-.974 1.342-2.655.19-3.586-1.51-1.22-3.546.624-4.442 1.759l-.008.009-8.984 10.41-.401.468c-2.471 2.883-10.47 10.69-13.583 4.314-.718-1.472-.643-3.279-.596-4.885.065-2.236.135-4.603-.931-6.578-.355-.657-.809-1.165-1.291-1.5-.485-.338-.995-.497-1.453-.45-.877.092-1.282.811-1.459 1.677-.191.939-.122 2.053-.075 2.797.065 1.028.115 1.99-.032 3.017-.41 2.878-1.422 4.986-2.46 7.15-1.187 2.473-2.409 5.02-2.779 8.875-.04.423-.053.87-.066 1.329-.03 1.076-.063 2.217-.457 3.39.397-.373.757-.746 1.007-1.065.215-.274.631.052.417.326-.699.889-1.8 1.83-2.709 2.518 4.282 1.077 12.39 9.446 13.512 13.813.193.75-.011.712.692.07 2.59-2.362 5.032-3.87 7.42-5.345 1.12-.691 2.228-1.376 3.343-2.145 2.962-2.044 4.49-3.41 5.721-4.51 1.825-1.63 3.005-2.683 7.136-4.47 1.546-.669 3.228-1.495 4.87-2.39 1.581-.864 3.127-1.794 4.482-2.716.851-.578 1.558-1.646.942-2.636-.625-1.006-1.71-.806-2.579-.363zm-11.404 5.814c3.192-.79 5.674-2.46 7.93-3.976l.465-.312c-.934.463-1.952.95-2.966 1.41-1.586.719-3.169 1.372-4.423 1.762-.35.353-.688.722-1.006 1.116zm1.463-7.757c3.092-2.178 4.952-4.05 6.567-5.677.249-.25.49-.494.75-.751.677-.671 1.424-1.367 2.246-1.855-.866.398-1.825 1.109-3.026 2-.488.361-1.014.752-1.603 1.171l-4.934 5.112zm-5.255-2.74c3.088-2.355 5.418-4.5 7.128-6.247 1.808-1.847 2.92-3.248 3.5-3.982.4-.505.795-.973 1.191-1.376l-10.597 9.48c-.526.833-.951 1.564-1.222 2.126zm12.355-4.615c1.533-1.116 3.839-2.704 5.65-1.2.953.79.94 1.978.413 3.016-.386.762-1.11 1.61-2.287 2.504l-7.683 6.472c-.437.389-.887.765-1.337 1.143-.463.388-.928.778-1.381 1.183 1.005-.371 2.137-.851 3.273-1.366 2.251-1.02 4.509-2.172 5.83-2.889 1.133-.65 2.643-.685 3.39.52.772 1.24.007 2.605-1.093 3.353-1.358.924-2.92 1.863-4.526 2.74-1.654.903-3.351 1.736-4.915 2.412-4.049 1.751-5.204 2.783-6.992 4.38-1.241 1.108-2.783 2.486-5.773 4.55-1.11.766-2.233 1.46-3.367 2.16-2.848 1.758-5.773 3.565-8.934 6.837l-.001.002-4.147 4.225c-.656.667-1.104 1.376-2.158 1.287-.536-.045-1.144-.278-1.78-.631-2.141-1.186-4.642-3.738-6.278-5.564-1.595-1.78-4.225-4.985-4.832-7.307-.165-.63-.34-1.597.111-2.156.22-.273.343-.152-.102-.253-.566-.127-.727-.435-.371-.957 1.094-1.603 3.028-3.365 4.63-4.453.315-.259.721-.242 1.252-.155.826-.573 1.1-.722 1.444-1.675.416-1.154.448-2.298.479-3.374.013-.465.026-.918.069-1.364.379-3.95 1.62-6.538 2.826-9.05 1.021-2.128 2.016-4.2 2.415-7 .141-.987.09-1.92.028-2.908-.049-.772-.12-1.928.085-2.934.22-1.078.748-1.976 1.922-2.098.584-.06 1.219.131 1.808.541.548.38 1.06.952 1.455 1.684 1.133 2.1 1.062 4.54.994 6.846-.044 1.505-.128 3.263.543 4.636 2.882 5.904 10.525-1.882 12.706-4.427l.403-.47 8.976-10.4C43.34.949 45.63-.923 47.414.52c1.396 1.129.949 3.132-.125 4.347-.755.855-4.971 6.184-7.825 10.415l9.25-8.275.004-.002c1.26-1.09 3.211-1.766 4.498-.373 1.27 1.376.605 3.37-.571 4.59l-3.166 3.28zM9.364 44.882c1.838 1.874 5.49 6.049 5.849 8.647.082.601-.075.726.51.13l3.645-3.712c.418-.433.552-.611.512-1.041-.376-4.042-9.363-13.023-13.322-13.923-.364-.083-1.173-.26-1.408-.06l-.024.017c-1.624 1.1-3.07 2.501-4.293 4.03-.474.593.1.523 1.095.748 2.889.652 5.432 3.117 7.436 5.163z"/>
    </g>
</svg>
