<svg xmlns="http://www.w3.org/2000/svg" width="56" height="56" viewBox="0 0 56 56">
    <path fill="#FFF" d="M34.337 2.4c2.134.03 4.725.404 6.71 1.178 1.493.582 2.874 1.397 3.897 2.664 1.577 1.954 1.878 4.456 2.223 7.314.091.763.189 1.561.46 2.284.17.453.41.877.766 1.266 1.618.7 3.092 1.679 4.152 2.783 1.11 1.157 1.617 2.288 1.984 3.823.111.464.202.94.26 1.353.051.368-.016.225.242.194.427-.051.705.376.865 1.716.168 1.41.225 3.098-.076 4.663l-.038.184-.008.038c-.235 1.222-.689 2.37-1.478 3.263-.447.505-1.092 1.096-1.622 1.502-.833.637-1.847 1.26-2.61 1.676-.683.372-1.369.692-2.012.933l.039-.22c-.03.185-.064.367-.102.548l.057-.326c-.9 5.544-5.302 8.82-9.885 11.51-.516.303-1.048.598-1.589.876-3.58 1.842-6.388 2.709-10.335 1.226L7.86 45.947C1.488 43.554-.99 35.796.354 29.512c.075-.383.166-.761.27-1.132 1.047-3.733 3.063-5.883 6.813-6.898l.01-.003c1.82-.49 2.88-.862 3.894-1.388.851-.442 1.67-.993 2.877-1.812.748-.508 1.59-.963 2.521-1.36 1.584-.678 3.424-1.19 5.487-1.514 1.3-3.303 3.052-6.857 5.461-9.496 1.69-1.852 4.037-3.545 6.65-3.509zM9.902 21.73c-.293.06-.576.145-.86.233 1.126.2 2.29.65 3.373 1.03 3.46 1.22 6.952 2.38 10.424 3.566l.01.004 6.267 2.142c5.352 1.83 7.684 7.105 7.757 12.28.017 1.25-.1 2.568-.37 3.863-.404 2.082-1.199 4.117-2.456 5.716-.72.916-1.565 1.65-2.52 2.133 1.636-.314 3.113-1.13 4.358-2.258 2.01-1.823 3.177-4.22 3.71-6.798.137-.715.227-1.443.273-2.176.145-2.303-.167-4.692-1.01-6.82-1.115-2.821-3.168-5.182-6.33-6.263L13.886 22.01c-.746-.255-1.448-.385-2.11-.421-.663-.037-1.287.02-1.874.142zm-8.777 7.025c-.08.284-.151.573-.214.865-1.187 5.974 1.165 13.31 7.193 15.574l18.378 6.902c2.993 1.124 5.458.066 7.164-2.104 1.142-1.454 1.884-3.292 2.288-5.186.24-1.208.344-2.433.328-3.592-.07-4.96-2.287-10.01-7.373-11.75l-6.03-2.06-2.957 6.522v.002c-.784 1.697-6.7.387-6.982-1.711l-.01-.135-.554-8.27c-1.348-.46-2.794-1.068-4.217-1.158-3.812-.242-6.081 2.776-7.014 6.1zm11.503-7.925l-.13.032c.519.071 1.057.197 1.615.388l18.642 6.373c3.34 1.142 5.504 3.625 6.677 6.591.871 2.2 1.195 4.669 1.047 7.048-.055.893-.173 1.777-.36 2.642-.483 2.4-1.495 4.651-3.186 6.473l-.472.3c.321-.2.636-.407.944-.618 3.625-2.473 7.365-5.594 8.296-10.058l.05-.302c-2.179-.221-3.355-5.564-2.853-7.637.04-.232.096-.434.17-.596.077-.166.258-.403.377-.541.235-.276.65.066.448.345.02.077.006.165-.063.245-.044.051-.082.097-.112.138.034.034.104.06.217.08.311.054.769.01 1.265-.13l.067.19c-.39-1.18-.98-2.24-1.839-3.083-.92-.903-2.153-1.564-3.789-1.87-2.202-.413-4.354-.927-6.482-1.502-2.048-.553-4.076-1.164-6.105-1.794-.258.44-.785.602-1.264.461l-4.305-1.353c-.562-.176-.78-.61-.835-1.096-4.186-1.188-6.169-1.183-8.02-.726zm34.807 18.613c-.514.156-.987.25-1.391.263l.038-.222c-.03.191-.063.38-.102.566l.057-.344c-.62 4.061-3.375 6.94-6.486 9.334 3.597-2.292 6.913-5.15 7.857-9.461.01-.045.018-.09.027-.136zm3.729-9.995c-.29.195-.586.385-.885.57-1.348.83-4.85 2.783-6.487 2.496-.225-.04-.326-.116-.374-.093l-.005.24c-.052 1.906.792 6.185 2.491 6.256.937.039 2.433-.518 3.934-1.336.812-.442 1.383-.747 2.088-1.308.159-.126.261-.211.316-.298-.008-.077-.036-.172-.08-.297-.16-.313-.273-.763-.35-1.28-.261-1.74-.148-4.334-.114-4.8.054-.732.182-.632-.534-.15zm3.531-3.075c-.227.247-.489.556-.579.651-.406.429-1.468 1.173-1.689 1.768-.028.077-.052.157-.073.24-.02.125-.035.253-.045.385-.033.454-.144 2.987.11 4.676.054.367.125.688.216.93.313.838.885-.048 1.282-.497.675-.764 1.082-1.75 1.308-2.812l-.008.04c.289-1.498.233-3.126.07-4.49-.037-.31-.044-.379-.072-.561-.097-.617-.112-.773-.52-.33zm-41.697-2.34l.523 7.789v.019c.002 1.49 4.091 2.345 5.39 1.979l2.144-7.034-8.057-2.754zm8.346 2.852l-2.061 6.76.044-.035c.045-.042.08-.088.103-.14l2.842-6.268-.928-.317zm6.037-4.65l.042-.222c-.054.253-.091.554-.152.824-.015.077-.03.154-.047.228l-.013-.005c2.015.626 4.029 1.232 6.065 1.782 2.123.574 4.27 1.086 6.46 1.497 1.696.317 2.977 1.005 3.936 1.947.895.878 1.506 1.975 1.91 3.195.463-.16.954-.357 1.459-.582l.056.177c-.114-.385-.247-.757-.4-1.116l-.007-.014-.002-.006c-.372-.862-.865-1.642-1.509-2.301-.964-.988-2.275-1.71-4.036-2.04-2.178-.408-4.321-.86-6.441-1.365-2.467-.588-4.897-1.257-7.321-1.998zm26.4 2.873c-.352.623-.895 1.23-1.536 1.797-.478.425-1.012.829-1.56 1.202-1.023.695-2.132 1.325-3.254 1.831l-.065-.173c.109.276.207.558.295.846.783-.378 1.587-.817 2.365-1.297 1.288-.793 2.67-1.79 3.725-2.903.228-.24.397-.43.474-.633.002-.023.001-.047 0-.072-.009-.15-.028-.322-.057-.509-.137-.885-.077-.638-.388-.089zm-4.164.408c-.924 1.04-2.381 1.558-4.336 1.026l-.221-.06c.045.036.091.075.14.117.151.132.295.273.43.422.633.648 1.128 1.399 1.512 2.223.689-.305 2.858-1.245 3.23-2.076.022-.049.04-.098.055-.147.065-.593-.301-1.193-.81-1.505zm.281-6.747l.074.12c.377.644.625 1.351.747 2.066.126.745.116 1.5-.029 2.202l-.022.105-.023.117c-.111.544-.302 1.056-.572 1.51l-.065-.046c.7.454 1.163 1.304 1.01 2.143.313-.234.615-.477.897-.727.843-.747 1.5-1.551 1.703-2.332.014-.091.021-.182.021-.272 0-1.192-.76-2.331-1.548-3.15-.606-.632-1.355-1.22-2.193-1.736zm-13.517-.195l.032-.166c-.228 1.05-.11 2.082.279 2.99.591 1.383 1.812 2.478 3.398 2.91l5.385 1.464c1.832.498 3.15-.036 3.923-1.05.341-.446.58-.985.714-1.571l-.022.115c.13-.634.14-1.318.024-1.995-.188-1.107-.71-2.192-1.582-3.007-.128-.1-.247-.2-.358-.305-.54-.416-1.191-.737-1.956-.92l-4.99-1.189c-2.318-.552-4.312.386-4.847 2.724zm10.495 6.131c.18-.036.241.24.056.279l.031-.013c.062.073.05.209-.076.235-.192.037-.397.052-.593.052-.162 0-.186-.217-.062-.272-.067-.079-.033-.234.106-.234.18 0 .36-.012.538-.047zm-1.936-.221l.05.006c.178.054.357.11.538.155.144.035.134.218.03.268.078.088.01.265-.14.23-.187-.045-.37-.103-.555-.158-.14-.043-.12-.215-.022-.265-.084-.09 0-.274.149-.23zm3.105-.386c.131-.132.333.067.2.2l-.036.036c.043.048.053.125-.008.187-.145.142-.3.262-.474.368-.159.096-.31-.143-.15-.242l.016-.01c-.052-.059-.06-.157.03-.212.154-.094.293-.2.422-.327zm-4.466-.021l.05.006.544.163c.141.043.12.215.022.265.084.092 0 .274-.148.23l-.544-.164c-.141-.042-.12-.214-.022-.264-.085-.092 0-.274.148-.23zm-1.361-.408l.05.007.544.163c.142.043.12.216.021.265.086.09.001.273-.147.23l-.544-.164c-.141-.043-.12-.214-.022-.265-.085-.091 0-.273.148-.23zm-13.779-1.944l-.505-.15c2.297.695 4.61 1.328 6.944 1.884 1.02.244 2.041.474 3.065.691l.068.051c-.732-.519-1.286-1.18-1.669-1.909-1.403-.29-3.455-.533-5.307-.607-.965-.038-1.871-.03-2.596.04zm12.418 1.537l.05.007.545.163c.14.043.12.214.021.265.085.091 0 .273-.148.229l-.544-.163c-.142-.043-.12-.216-.021-.266-.086-.09-.001-.273.147-.228zm7.864-.317c.053-.177.326-.1.273.081l-.046.139c.01.023.01.052 0 .083-.057.19-.132.374-.222.55-.085.167-.337.039-.253-.128l.046-.094c-.022-.035-.025-.08-.001-.128.084-.164.148-.327.203-.503zm-9.167-.172l.049.016c.163.088.327.162.5.228.132.05.108.214.012.263.088.094-.006.281-.157.225-.184-.07-.36-.15-.533-.242-.117-.062-.085-.208.004-.255-.096-.102.024-.297.174-.219zM34.286 3.188c-2.435-.033-4.653 1.603-6.225 3.325-2.37 2.598-4.1 6.129-5.376 9.381-.564 1.438-1.031 2.975-1.362 4.47-.113.596-.164 1.356.373 1.524l4.291 1.349c.371.087.602-.052.693-.382l.001-.006.078-.419.032-.161-.088.482c.093-.544.21-1.085.342-1.62.434-1.76 1.108-3.716 1.957-5.663 1.486-3.405 3.721-7.32 6.483-9.788.932-.833 2.056-1.607 3.283-1.95l.45.109c-1.602-.408-3.282-.628-4.932-.65zm4.038 18.942c-.124-.14.088-.327.212-.188.121.138.25.265.389.384.092.077.049.197-.032.239.115.118-.055.318-.196.201-.147-.125-.29-.268-.418-.414-.074-.082-.03-.182.045-.22zm10.541-.538c-.014-.184.268-.21.284-.022.014.195.015.393.002.588-.003.039-.017.069-.039.09l-.006.132c-.012.184-.295.172-.284-.018.012-.181.012-.366-.002-.548-.004-.053.017-.093.049-.119zm-11.29-.721c-.063-.174.2-.276.267-.1.065.173.138.337.227.498.045.083.003.16-.06.193l.014.03c.09.162-.157.302-.248.137-.095-.174-.174-.35-.244-.536-.03-.079.009-.143.065-.173zm-7.982-5.22c-.82 1.845-1.484 3.706-1.932 5.402h-.013c.846-.173 2.1-.21 3.454-.156 1.664.066 3.487.267 4.874.516l.082.246c-.375-.997-.47-2.107-.245-3.149l.014-.063.031-.159c.2-.92.65-1.771 1.352-2.394l.194.027c-2.497-.354-5.299-.425-7.81-.27zm18.947 4.615c-.075-.17.182-.288.26-.116.076.179.145.367.197.554.02.074-.013.13-.064.16l.019.062c.05.179-.222.26-.274.078-.048-.175-.183-.516-.183-.516-.035-.08.003-.148.061-.18l-.016-.042zm-35.808.034l.12-.027c1.804-.406 3.802-.37 7.791.752.02-.267.07-.528.118-.752l.012-.063c-3.406-.953-4.943-1.331-8.041.09zm24.852-.19l.01.088c.028.186-.252.226-.28.042-.029-.193-.041-.393-.041-.588 0-.047.019-.083.047-.106l-.002-.116c0-.185.284-.188.284.001 0 .185.013.363.038.545.009.062-.017.108-.056.135zm10.2-.984c-.122-.133.075-.328.206-.195.136.14.263.294.376.453.06.084.017.174-.054.21l.01.012c.107.15-.119.32-.23.167-.106-.148-.224-.29-.35-.42-.078-.08-.037-.185.037-.226zm-25.876-2.88l.038-.007c-1.883.318-3.57.799-5.03 1.423-.715.306-1.376.646-1.978 1.018 1.32-.251 2.951-.1 6.013.758.264-1.084.578-2.144.957-3.192zm15.708 1.746c.075-.17.335-.058.26.115-.019.041-.033.076-.047.11.018.03.02.07.001.112-.076.174-.13.336-.175.513-.045.183-.32.114-.276-.067.013-.054.028-.107.043-.16-.004-.018-.004-.04.002-.063.048-.192.11-.38.192-.56zm9.133.075l.05.014c.176.083.35.18.513.288.106.07.068.203-.018.248.106.108-.037.306-.183.211-.151-.1-.313-.19-.477-.267-.124-.057-.094-.21-.003-.257-.093-.1.017-.291.167-.223zm-1.38-.432l.056.005.549.15c.14.038.127.217.024.267.08.09.007.269-.144.229l-.548-.15c-.14-.038-.127-.216-.026-.266-.08-.09-.006-.27.145-.23zm-1.371-.373l.057.005.548.149c.14.038.127.218.025.267.08.09.007.27-.145.23l-.548-.15c-.14-.038-.127-.218-.025-.267-.08-.09-.007-.27.145-.23zm-5.45-.42c.153-.105.316.126.162.234l-.02.014c.05.058.057.15-.025.208-.148.105-.278.218-.4.354-.122.138-.337-.047-.212-.189l.04-.043c-.04-.046-.05-.117.005-.179.135-.15.284-.28.45-.398zm4.08.046l.056.005.548.15c.14.038.127.217.025.267.08.09.007.27-.144.229l-.549-.15c-.14-.038-.127-.217-.024-.267-.08-.09-.007-.269.144-.229zm-1.8-.475c.35.06.69.163 1.034.256.14.039.127.219.024.268.08.09.007.269-.144.229-.333-.091-.662-.191-1.002-.25-.15-.024-.15-.218-.041-.27-.074-.084-.02-.255.13-.233zm-.882-.046c.185-.014.211.266.023.283l.05-.014c.064.078.04.224-.095.236-.183.014-.356.04-.533.089-.18.049-.257-.224-.076-.274l-.022.01c-.06-.07-.052-.199.067-.232.195-.053.385-.083.586-.098zm-1.134-11.85l-.2.063c.818.317 1.478.928 2.005 1.707.965 1.427 1.475 3.423 1.688 5.154.095.771.27 1.776.065 2.607-.07.43-.226.825-.524 1.134l4.548 1.083c.264.063.516.14.756.232-.036-.077-.068-.157-.099-.238-.29-.772-.395-1.6-.493-2.414-.334-2.771-.626-5.193-2.158-7.064-.822-1.004-2.414-2.17-3.729-2.395-.612-.104-1.234-.053-1.859.13zm-1.394.618c-.538.316-1.073.717-1.6 1.189-2.442 2.182-4.442 5.518-5.855 8.519l-.06.002c2.657-.136 5.702-.054 8.323.4.716-.311 1.581-.431 2.587-.284.58-.203.867-.613.994-1.106.11-.688-.033-1.494-.11-2.123-.205-1.66-.688-3.563-1.596-4.905-.653-.966-1.529-1.637-2.683-1.692zm-8.747 2.653l-.042.054c.035.045.043.11-.003.168-1.331 1.695-2.415 3.626-3.329 5.573-.078.169-.335.05-.256-.12l.046-.098c-.019-.034-.023-.077-.001-.124.923-1.966 2.018-3.917 3.362-5.628.115-.147.338.029.223.175z"/>
</svg>
