<svg xmlns="http://www.w3.org/2000/svg" width="56" height="56" viewBox="0 0 56 56">
    <path fill="#FFF" d="M31.909 10.248L14.199 8.97l5.166 15.033 12.544-13.755zm-17.642-2.22L26.497.852l-10.36 2.33c-.659.136-.526 0-.742.78l-1.128 4.066zM27.87.725L14.753 8.422l17.348 1.252L27.87.725zM16.01 2.61L26.714.203c1.202-.27 1.151-.294 2.351.08l13.298 4.133c.673.21.88.22 1.28.696l9.363 11.024c.362.444.354.408.45 1.089l1.946 13.773c.168 1.19.212 1.133-.308 2.242l-6.039 12.916c-.094.2-.208.579-.445.725l-10.85 7.398c-.858.587-.883.582-1.914.663l-12.006.947c-.435.034-1.055.173-1.414-.077l-14.033-7.9c-.842-.474-.883-.433-1.328-1.328L.031 32.45c-.03-.063-.038-.13-.024-.194l2.914-17.35c.012-.067.046-.126.093-.169L14.847 3.195c.51-.498.435-.421 1.162-.585zm-1.265 1.503l-9.479 9.245 8.276-4.904 1.203-4.34zM3.633 15.637l1.408 6.248 7.847-12.362-8.962 5.311c-.532.31-.448.104-.293.803zM13.7 9.339L5.431 22.366l13.387 1.852L13.7 9.338zM3.24 16.553L.93 30.298l3.668-7.713-1.359-6.032zm6.438 23.002l9.215 11.509 8.085-8.937-17.3-2.572zm18.398 2.57l8.711 11.917c.05-.082.112-.193.194-.338 2.757-4.87 5.511-9.74 8.266-14.612l-17.17 3.032zm8.05 12.005l-8.589-11.75-8.082 8.935 16.671 2.815zM18.7 51.76l-7.319-2.84 9.724 5.475-2.405-2.636zm-.73-.912L8.948 39.581l-.946 7.397c.02.034 9.146 3.551 9.968 3.87zM1.161 33.403l6.357 12.77.876-6.879-7.233-5.89zm22.634 21.901l10.785-.85-14.913-2.51 2.455 2.697c.795.87.656.753 1.673.663zm13.915-1.7l10.411-7.099c-.778-2.369-1.586-4.731-2.381-7.095l-8.03 14.195zm14.948-36.986L44.112 6.557l4.809 13.014 3.737-2.953zM36.192 26.66l-8.06 14.86 17.138-3.027-9.078-11.833zm9.964 12.152l2.381 7.074 6.013-12.862-8.394 5.788zm8.47-7.235L48.89 20.771l-2.69 17.297 8.343-5.752c.346-.239.342-.289.081-.74zm.123-1.02l-1.886-13.347-3.664 2.89 5.55 10.457zM27.58 41.3l8.107-14.941-15.914-1.372L27.581 41.3zm5.435-30.685l3.339 15.083c3.873-2.119 7.959-3.667 11.868-5.688l-15.207-9.395zm-14.294 14.19l-13.404-1.86 3.7 15.562 9.704-13.701zm1.077-.41l15.974 1.384-3.364-15.2c-4.455 4.336-8.155 9.48-12.61 13.817zm-.6.75L9.447 38.929l17.602 2.616L19.2 25.147zM8.428 38.567L4.835 23.452c-.336.706-4.183 8.735-4.174 8.78.012.053 7.21 5.881 7.766 6.334zM48.2 19.31c-1.711-4.63-3.506-9.159-5.098-13.84L33.2 10.04l15 9.268zm.123 1.314L36.6 26.232l9.02 11.762 2.702-17.37zm-5.785-15.54c-4.552-1.4-9.095-2.827-13.643-4.24l-.376-.118 4.204 8.89 9.815-4.532z"/>
</svg>
