<svg id="Layer_1" data-name="Layer 1" xmlns="http://www.w3.org/2000/svg" viewBox="0 0 99.8 38"><defs><style>.cls-1{fill:#12132d;}</style></defs><title>Vector Smart Object21</title><path class="cls-1" d="M60.7,37.59a6.35,6.35,0,0,1-2.08.37,3.17,3.17,0,0,1-3.48-3.42A3.4,3.4,0,0,1,58.81,31a4,4,0,0,1,1.69.32l-.21.71a3.58,3.58,0,0,0-1.5-.29,2.53,2.53,0,0,0-2.73,2.72,2.49,2.49,0,0,0,2.62,2.74,2.84,2.84,0,0,0,1.16-.18V35H58.47v-.71H60.7Z"/><path class="cls-1" d="M65.05,31.2a9.26,9.26,0,0,1,1.68-.14,2.72,2.72,0,0,1,2,.56,1.65,1.65,0,0,1,.54,1.28A1.78,1.78,0,0,1,68,34.63v0A1.73,1.73,0,0,1,69,36a10.65,10.65,0,0,0,.52,1.86h-.91a8.67,8.67,0,0,1-.45-1.62c-.2-.93-.56-1.28-1.36-1.31h-.82v2.93h-.88Zm.88,3.09h.89c.94,0,1.53-.51,1.53-1.29s-.63-1.25-1.56-1.26a3.58,3.58,0,0,0-.86.08Z"/><path class="cls-1" d="M79.3,34.43c0,2.34-1.41,3.57-3.14,3.57s-3-1.39-3-3.44S74.45,31,76.26,31,79.3,32.42,79.3,34.43ZM74,34.54c0,1.45.79,2.75,2.17,2.75s2.17-1.28,2.17-2.82c0-1.34-.71-2.75-2.16-2.75S74,33.05,74,34.54Z"/><path class="cls-1" d="M84.33,31.11v4c0,1.51.68,2.16,1.58,2.16s1.65-.67,1.65-2.16v-4h.89v4c0,2.08-1.1,2.93-2.57,2.93s-2.43-.79-2.43-2.89v-4Z"/><path class="cls-1" d="M93,31.19a10.22,10.22,0,0,1,1.68-.13,2.78,2.78,0,0,1,1.9.57,1.82,1.82,0,0,1,.6,1.41,2,2,0,0,1-.53,1.45,2.77,2.77,0,0,1-2.07.75,3,3,0,0,1-.7-.06v2.71H93Zm.88,3.27a2.92,2.92,0,0,0,.72.07c1.06,0,1.7-.51,1.7-1.45s-.63-1.32-1.6-1.32a3.65,3.65,0,0,0-.82.07Z"/><path class="cls-1" d="M79.09,16.74a4.52,4.52,0,0,0-1.55-1,5,5,0,0,0-2-.38,5.18,5.18,0,0,0-2,.37,4.59,4.59,0,0,0-1.56,1,4.74,4.74,0,0,0-1,1.57,5.36,5.36,0,0,0-.36,2,5.27,5.27,0,0,0,.36,2,4.68,4.68,0,0,0,1,1.58,4.57,4.57,0,0,0,1.56,1,5.48,5.48,0,0,0,4,0,4.52,4.52,0,0,0,1.55-1,4.68,4.68,0,0,0,1-1.58,5.27,5.27,0,0,0,.35-2,5.36,5.36,0,0,0-.35-2A4.74,4.74,0,0,0,79.09,16.74Zm-.71,5a3,3,0,0,1-.6,1.07,2.79,2.79,0,0,1-1,.68,3.38,3.38,0,0,1-1.27.23,3.53,3.53,0,0,1-1.29-.23,2.89,2.89,0,0,1-1-.68,3,3,0,0,1-.61-1.07,4.79,4.79,0,0,1,0-2.87,3,3,0,0,1,.61-1.07,2.75,2.75,0,0,1,1-.68,3.53,3.53,0,0,1,1.29-.23,3.38,3.38,0,0,1,1.27.23,2.66,2.66,0,0,1,1,.68,3,3,0,0,1,.6,1.07,5,5,0,0,1,0,2.87Z"/><path class="cls-1" d="M8.94,15.44l-.15,0a.26.26,0,0,0-.13.09.4.4,0,0,0-.1.16L5.68,21.09c-.08.15-.14.3-.22.46L5.27,22l-.19-.46a4.54,4.54,0,0,0-.21-.45L2,15.73a.41.41,0,0,0-.11-.16.26.26,0,0,0-.13-.09l-.16,0H0v9.7H1.59V18.87c0-.12,0-.25,0-.39s0-.28,0-.43l3,5.52a.75.75,0,0,0,.27.29.62.62,0,0,0,.37.11H5.4a.65.65,0,0,0,.37-.11A.84.84,0,0,0,6,23.57L9,18.07a3,3,0,0,0,0,.42c0,.14,0,.27,0,.38v6.27h1.59v-9.7H8.94Z"/><path class="cls-1" d="M2.35,8.52a4.65,4.65,0,0,0,1.54,1,5,5,0,0,0,2,.37A9.53,9.53,0,0,0,7,9.85a6.94,6.94,0,0,0,1-.19,4.83,4.83,0,0,0,.85-.33,4.41,4.41,0,0,0,.77-.47V4.94H6.32V6a.33.33,0,0,0,.1.24.41.41,0,0,0,.28.1H7.91V8.06a4.61,4.61,0,0,1-.86.31A4.82,4.82,0,0,1,6,8.48a3.54,3.54,0,0,1-1.27-.24,2.8,2.8,0,0,1-1-.69,2.89,2.89,0,0,1-.66-1.1A4.37,4.37,0,0,1,2.81,5,4.42,4.42,0,0,1,3,3.55a3.25,3.25,0,0,1,.63-1.09,2.91,2.91,0,0,1,1-.68A3.31,3.31,0,0,1,6,1.54a4.45,4.45,0,0,1,.77.05,5.92,5.92,0,0,1,.61.16,2.89,2.89,0,0,1,.5.22l.44.25a.54.54,0,0,0,.33.11A.46.46,0,0,0,9,2.08l.52-.81A4.72,4.72,0,0,0,8.07.35,5.59,5.59,0,0,0,6,0,5.76,5.76,0,0,0,3.92.36a4.53,4.53,0,0,0-1.59,1A4.66,4.66,0,0,0,1.32,3,5.64,5.64,0,0,0,1,5a5.39,5.39,0,0,0,.36,2A4.84,4.84,0,0,0,2.35,8.52Z"/><polygon class="cls-1" points="44.65 8.31 40.77 8.31 40.77 0.11 38.96 0.11 38.96 9.8 44.65 9.8 44.65 8.31"/><path class="cls-1" d="M90.36,3.85c0-.12,0-.25,0-.39s0-.28,0-.42l5.07,6.45a.61.61,0,0,0,.28.24A.73.73,0,0,0,96,9.8H97V.11H95.37V6c0,.13,0,.27,0,.42a3.55,3.55,0,0,0,0,.46L90.32.4,90.19.24a.46.46,0,0,0-.13-.08.33.33,0,0,0-.14,0H88.77V9.8h1.59Z"/><polygon class="cls-1" points="78.59 8.36 74.29 8.36 74.29 5.62 77.68 5.62 77.68 4.23 74.29 4.23 74.29 1.54 78.59 1.54 78.59 0.11 72.47 0.11 72.47 9.8 78.59 9.8 78.59 8.36"/><path class="cls-1" d="M98.39,15.44a.62.62,0,0,0-.39.12.51.51,0,0,0-.21.28l-1.65,5.81c0,.14-.07.28-.1.44s-.07.33-.1.51a5.67,5.67,0,0,0-.26-1l-1.89-5.81a.56.56,0,0,0-.21-.29.71.71,0,0,0-.39-.11h-.53a.55.55,0,0,0-.38.13.61.61,0,0,0-.22.27l-1.9,5.81a2.89,2.89,0,0,0-.14.47c0,.17-.08.34-.11.53,0-.19-.07-.36-.11-.53a3,3,0,0,0-.11-.47l-1.64-5.81a.56.56,0,0,0-.21-.29.71.71,0,0,0-.39-.11H85.93l3,9.7h1.63l2.14-6.63c0-.09.05-.17.08-.27l.09-.32a3,3,0,0,0,.08.32c0,.1.05.18.08.27l2.13,6.63h1.62l3-9.7Z"/><path class="cls-1" d="M42.53,21a3.33,3.33,0,0,0,.91-.43,2.52,2.52,0,0,0,.67-.63,2.4,2.4,0,0,0,.42-.79,2.81,2.81,0,0,0,.14-.92,3,3,0,0,0-.21-1.13,2.15,2.15,0,0,0-.67-.89,3.26,3.26,0,0,0-1.15-.57,6.08,6.08,0,0,0-1.71-.2H38v9.7h1.81V21.35h.77a.84.84,0,0,1,.4.07.93.93,0,0,1,.33.25S43.5,25,43.61,25a1.55,1.55,0,0,0,.59.1h1.43L43.2,21.55A2.06,2.06,0,0,0,42.53,21Zm-1.62-.95H39.79V16.83h1.14a2.84,2.84,0,0,1,1.62.39A1.39,1.39,0,0,1,43,18.37a1.85,1.85,0,0,1-.12.67,1.41,1.41,0,0,1-.37.54,1.61,1.61,0,0,1-.62.34A3.51,3.51,0,0,1,40.91,20.05Z"/><path class="cls-1" d="M59.38,21a3.64,3.64,0,0,0,.91-.43,2.93,2.93,0,0,0,1.09-1.42,3.1,3.1,0,0,0,.14-.92,3,3,0,0,0-.22-1.13,2.19,2.19,0,0,0-.65-.89,3.55,3.55,0,0,0-1.17-.57,6.05,6.05,0,0,0-1.7-.2h-3v9.7h1.81V21.35h.77a.87.87,0,0,1,.4.07.79.79,0,0,1,.33.25S60.34,25,60.45,25a1.61,1.61,0,0,0,.6.1h1.42L60,21.55A1.93,1.93,0,0,0,59.38,21Zm-1.63-.95H56.63V16.83h1.15a2.83,2.83,0,0,1,1.61.39,1.4,1.4,0,0,1,.5,1.15,1.67,1.67,0,0,1-.13.67,1.41,1.41,0,0,1-.37.54,1.5,1.5,0,0,1-.61.34A3.63,3.63,0,0,1,57.75,20.05Z"/><path class="cls-1" d="M27.67,1.41a4.48,4.48,0,0,0-1.55-1,5.25,5.25,0,0,0-2-.38,5.45,5.45,0,0,0-2,.37,4.5,4.5,0,0,0-1.55,1,4.64,4.64,0,0,0-1,1.57,5.31,5.31,0,0,0-.36,2,5.29,5.29,0,0,0,.36,2,4.89,4.89,0,0,0,1,1.58,4.62,4.62,0,0,0,1.55,1,5.64,5.64,0,0,0,4,0,4.62,4.62,0,0,0,1.55-1,4.89,4.89,0,0,0,1-1.58A5.28,5.28,0,0,0,29,5a5.3,5.3,0,0,0-.35-2A4.64,4.64,0,0,0,27.67,1.41Zm-.71,5a2.88,2.88,0,0,1-.61,1.07,2.66,2.66,0,0,1-1,.68,3.44,3.44,0,0,1-1.28.23,3.47,3.47,0,0,1-1.28-.23,2.66,2.66,0,0,1-1-.68,2.77,2.77,0,0,1-.62-1.07A4.32,4.32,0,0,1,21,5a4.26,4.26,0,0,1,.21-1.43,2.77,2.77,0,0,1,.62-1.07,2.55,2.55,0,0,1,1-.68,3.47,3.47,0,0,1,1.28-.23,3.44,3.44,0,0,1,1.28.23,2.55,2.55,0,0,1,1,.68A2.88,2.88,0,0,1,27,3.52,4.53,4.53,0,0,1,27.17,5,4.59,4.59,0,0,1,27,6.39Z"/><path class="cls-1" d="M23.18,15.44l-3.81,9.7h1.4a.61.61,0,0,0,.39-.13.53.53,0,0,0,.21-.29l.73-2h4l.72,2a.65.65,0,0,0,.22.3.66.66,0,0,0,.38.12h1.4L25,15.44Zm-.62,6,1.18-3.22a4.38,4.38,0,0,0,.18-.52q.09-.28.18-.63c.06.23.13.44.2.63s.12.37.17.51l1.19,3.23Z"/><path class="cls-1" d="M61.6,1.46a4.55,4.55,0,0,0-1.55-1,5.62,5.62,0,0,0-2-.35h-3.7V9.8H58a5.41,5.41,0,0,0,2-.35,4.55,4.55,0,0,0,1.55-1,4.48,4.48,0,0,0,1-1.54A5.14,5.14,0,0,0,63,5,5.13,5.13,0,0,0,62.59,3,4.48,4.48,0,0,0,61.6,1.46Zm-.71,4.93a2.88,2.88,0,0,1-.61,1.07,2.66,2.66,0,0,1-1,.68A3.44,3.44,0,0,1,58,8.37H56.16V1.54H58a3.25,3.25,0,0,1,1.28.24,2.52,2.52,0,0,1,1,.67,2.88,2.88,0,0,1,.61,1.07A4.25,4.25,0,0,1,61.11,5,4.31,4.31,0,0,1,60.89,6.39Z"/></svg>