<svg width="117" height="62" viewBox="0 0 117 62" fill="none" xmlns="http://www.w3.org/2000/svg">
<path fill-rule="evenodd" clip-rule="evenodd" d="M7.51899 31.606H8.26705C9.46011 31.606 11.4051 33.7811 11.3053 35.5151V41.6531L12.1608 41.0469C13.561 38.6832 14.8413 36.2505 15.997 33.7581C16.6875 32.3502 17.8422 31.606 19.0315 31.6022H23.0173V32.1431C22.4035 32.1431 21.5442 31.9474 21.0723 32.3617C20.4419 32.9689 19.9225 33.6816 19.5378 34.4678L17.1325 38.9485L11.3053 42.3743V44.5647L15.2681 42.309L15.3947 42.5507L15.6019 42.9113L20.4278 50.7717C20.9246 51.5023 21.5804 52.1108 22.3459 52.5517C23.516 53.1463 23.9495 51.9763 24.7819 51.2896C24.9276 51.5475 25.1522 51.7519 25.4226 51.8727L21.5097 56.3803C20.5544 56.223 18.2527 55.1028 16.7873 52.5441L12.5329 44.676L11.3053 45.3742V52.4865C11.3053 53.6757 9.77084 56.3918 8.55476 56.3956H3.6329V55.8394H5.2748C6.26838 55.2141 7.542 54.0172 7.51899 52.264V35.1392C7.51899 33.6469 6.06123 32.6533 4.71472 32.1584H4.68019H3.91295V31.606H7.51899Z" fill="white"/>
<path fill-rule="evenodd" clip-rule="evenodd" d="M40.9822 47.8831L41.3659 48.2667L38.9375 50.4572C38.4346 50.1136 38.0098 49.6679 37.6908 49.149C37.4184 48.6223 37.2863 48.0344 37.3072 47.4419L33.6512 50.3613C33.1305 50.0034 32.7061 49.5224 32.416 48.961C32.112 48.3505 31.9619 47.6749 31.9787 46.9931V39.7043L31.595 39.2593L31.0043 39.7043L30.6206 39.2593L33.1871 37.0649L35.2931 38.8334L34.4914 39.6007V46.9317C34.4824 47.1855 34.555 47.4356 34.6985 47.6452C34.8676 47.8584 35.0681 48.0447 35.2931 48.1976L37.311 46.5941V39.7273L36.6473 38.8334L38.6038 37.088L40.5833 38.8334L39.816 39.6007V47.4726C39.8323 47.6294 39.9045 47.7751 40.0194 47.8831C40.1587 48.0362 40.322 48.1657 40.5027 48.2667L40.9822 47.8831Z" fill="white"/>
<path fill-rule="evenodd" clip-rule="evenodd" d="M43.2494 42.9113C43.18 42.7057 43.1399 42.4913 43.1305 42.2745C43.5121 42.5254 43.959 42.6588 44.4157 42.6581C44.8254 42.6308 45.232 42.746 45.5665 42.9842C45.6473 42.6441 45.6974 42.2975 45.7161 41.9484C45.743 41.5648 45.7545 41.1313 45.7545 40.6748V38.8794L43.4528 40.9088C43.1727 40.5597 42.9502 40.3027 42.7968 40.1416C42.4724 39.7335 42.0608 39.4032 41.5922 39.1748C42.3244 38.743 43.0108 38.2379 43.6407 37.6672C43.8606 37.4582 44.0681 37.2366 44.2622 37.0035C44.8453 37.4281 45.4706 37.8488 46.1381 38.2657C46.8056 38.6825 47.4296 39.0406 48.0102 39.3398C48.1266 39.5117 48.2292 39.6926 48.3171 39.8807C48.519 40.3335 48.6235 40.8236 48.624 41.3193C48.5999 41.7929 48.4267 42.2467 48.1291 42.6159C47.9921 42.84 47.8023 43.0271 47.5763 43.1609C47.3502 43.2946 47.0948 43.3709 46.8325 43.3832C47.0772 43.4554 47.305 43.5757 47.5026 43.7371C47.7002 43.8985 47.8637 44.0977 47.9833 44.323C48.1675 44.7297 48.2555 45.1734 48.2404 45.6197C48.2404 45.8729 48.2404 46.1222 48.2173 46.3639C48.1943 46.6056 48.1867 46.8396 48.1713 47.0583C48.1596 47.4376 48.2114 47.8162 48.3248 48.1784C48.4041 48.4326 48.5452 48.6632 48.7352 48.8498C48.0859 48.9833 47.4454 49.1562 46.8171 49.3677C46.1785 49.5962 45.587 49.9394 45.0716 50.3804C43.8786 49.4559 43.1075 48.8459 42.7699 48.6158C42.1254 48.1247 41.6306 47.7628 41.2853 47.5301L41.6689 47.0813L43.4604 48.4009L45.6279 47.4611C45.6919 47.2423 45.7318 47.0172 45.7468 46.7897C45.7468 46.5595 45.7698 46.2948 45.7698 45.9995C45.7717 45.6151 45.7525 45.2309 45.7123 44.8486C45.6816 44.5762 45.6471 44.3269 45.6087 44.0814C45.5512 43.7323 43.6906 43.5021 43.3415 43.4254C43.3474 43.2526 43.3241 43.0801 43.2725 42.9151L43.2494 42.9113Z" fill="white"/>
<path fill-rule="evenodd" clip-rule="evenodd" d="M53.166 43.7361C53.6331 43.229 54.137 42.7571 54.6737 42.3244C54.8923 42.1479 55.1992 41.9216 55.5944 41.6377C54.9843 41.1944 54.4372 40.6704 53.9678 40.0802C53.7645 39.8462 53.4921 39.5086 53.166 39.0674C53.1931 39.2324 53.2085 39.399 53.2121 39.5661C53.2914 40.4127 53.331 41.1658 53.331 41.8257V42.0865C53.3464 42.6412 53.291 43.1955 53.166 43.7361ZM54.4167 37.0035C54.7773 37.5521 55.088 37.9933 55.3565 38.3232C56.0726 39.256 56.8953 40.1019 57.8079 40.8436C57.2439 41.2272 56.4805 41.8257 55.5061 42.6121L53.2428 44.4995V47.2808C53.731 47.505 54.2039 47.7613 54.6583 48.048C54.8156 48.1401 55.0036 48.2705 55.2223 48.4316L57.0138 47.112L57.1711 47.7296C56.4805 48.2168 56.0662 48.4968 55.4601 48.9725C54.6353 49.6093 54.0292 50.1004 53.6187 50.4111C53.1116 49.9727 52.5293 49.6296 51.9001 49.3983C51.2632 49.1726 50.6088 48.9994 49.9436 48.8805C50.2275 48.6247 50.4398 47.9853 50.5804 46.9623C50.7274 45.8534 50.7979 44.7357 50.7914 43.6172C50.7914 42.9228 50.7914 42.2016 50.7454 41.4497C50.6994 40.6978 50.684 40.0035 50.6495 39.3743C51.2786 39.0444 51.9001 38.6915 52.5139 38.3155C53.1277 37.9319 53.753 37.5138 54.4013 37.0419L54.4167 37.0035Z" fill="white"/>
<path fill-rule="evenodd" clip-rule="evenodd" d="M23.8229 48.2552L25.741 46.5443L25.7026 43.7132L23.1362 42.3014C22.9175 42.7081 22.7526 42.9996 22.5301 43.4178C22.3229 43.8146 22.2137 44.2552 22.2117 44.7029C22.2188 45.3701 22.3803 46.0266 22.6835 46.621C22.9853 47.2236 23.373 47.7793 23.8344 48.2706L23.8229 48.2552ZM29.4352 47.6721L29.8189 48.1171L27.3445 50.3805C26.2589 49.7398 25.718 48.7156 25.718 47.3115L22.2999 50.3805H22.0889C21.5768 49.8939 21.1329 49.3403 20.7692 48.7348C20.4003 48.0953 20.2046 47.3707 20.2015 46.6325C20.2053 45.6818 20.4565 44.7484 20.9304 43.9241C21.4379 43.1094 22.0492 42.3641 22.7487 41.7068L23.1669 41.6339L25.718 43.038V40.6327C24.845 40.2663 24.0446 39.7467 23.3548 39.0982L22.3536 40.0726L21.7168 39.6046C22.0655 39.3808 22.3918 39.1239 22.6912 38.8373L23.2666 38.2964L23.6848 37.9128L24.5517 37.088C25.2116 37.8975 26.6003 38.6762 28.1961 39.4511V47.3844C28.253 47.5606 28.3357 47.7274 28.4417 47.8793C28.5385 48.0153 28.6714 48.1215 28.8253 48.1862L29.4352 47.6721Z" fill="white"/>
<path fill-rule="evenodd" clip-rule="evenodd" d="M62.0469 47.0967C62.4996 47.2194 62.9446 47.3537 63.3896 47.5072C63.685 47.5992 64.1568 47.7795 64.8243 48.0481V40.813C64.8122 40.6483 64.7677 40.4876 64.6933 40.3401C64.6189 40.1926 64.5161 40.0613 64.3908 39.9537C64.1326 39.6849 63.8218 39.472 63.4778 39.3284L61.997 40.79C61.997 42.9191 62.0469 44.9407 62.0469 47.0967ZM67.2757 41.4498V47.6721C66.6765 48.002 66.1156 48.3969 65.6031 48.8498C65.2732 49.1299 64.7629 49.6171 64.0686 50.2884C63.8192 50.1311 63.5699 49.9815 63.3013 49.8396C62.8679 49.6171 62.4459 49.3946 62.0316 49.1721V54.3663C61.9934 54.8874 61.7709 55.3778 61.4039 55.7497C61.037 56.1215 60.5496 56.3506 60.0291 56.3957H59.4613L57.2094 55.0722L57.5125 54.5389C57.7807 54.737 58.0803 54.8887 58.3987 54.9878C59.3385 54.796 59.4997 53.8829 59.4613 52.9431V48.1018C59.4603 48.0209 59.4539 47.9401 59.4421 47.8601C59.3194 47.4765 59.3769 47.3998 58.7439 47.2962H58.0956L57.9728 46.8358C58.4514 46.6248 58.9501 46.4628 59.4613 46.3525V43.1914V40.6941C59.4798 40.3379 59.4449 39.981 59.3577 39.6353C59.2844 39.4405 59.1498 39.2749 58.9741 39.1634L58.3104 39.6122L57.9268 39.3284L60.1672 37.088C60.6871 37.3352 61.134 37.7133 61.4638 38.1852C61.7721 38.6971 61.9572 39.2736 62.0047 39.8693C62.598 39.2759 63.0379 38.8284 63.3244 38.5266C63.7672 38.0779 64.1762 37.5971 64.5481 37.088C65.4361 37.3711 66.1851 37.9777 66.6465 38.7875C67.0909 39.6028 67.3107 40.5216 67.2833 41.4498H67.2757Z" fill="white"/>
<path fill-rule="evenodd" clip-rule="evenodd" d="M33.9466 34.8859L35.9376 32.8105L37.9248 34.8859L35.9376 36.9652L33.9466 34.8859Z" fill="white"/>
<path fill-rule="evenodd" clip-rule="evenodd" d="M82.3213 32.5919C81.9837 32.8681 81.1512 34.4563 81.1704 35.2772V35.2389L80.8827 51.8765H73.5939C74.5308 51.1478 75.1682 50.101 75.3854 48.9341C75.3962 48.881 75.4027 48.8272 75.4046 48.773C75.6386 44.4803 76.8739 39.873 77.4646 35.5803C77.6564 34.2069 79.0375 33.0445 80.3571 32.6878C80.5336 32.6417 82.1448 32.6072 82.3098 32.5919H82.3213ZM78.4237 31.606H78.205C76.145 31.606 74.2882 33.62 73.7895 35.5151L71.6259 48.8958C71.6259 50.3881 69.3932 51.3778 68.0429 51.8765H68.0084H66.1747V54.0018C66.1747 55.0068 65.1926 55.6743 64.2872 56.0081H64.2642H63.7578V56.3725H68.837C69.3254 56.3705 69.7932 56.1753 70.1382 55.8296C70.4832 55.4839 70.6774 55.0157 70.6784 54.5273V53.1156H83.4683V54.7C83.4491 55.3061 83.3264 55.7281 82.6627 55.9736H82.6397H82.1333V56.3572H86.1306C86.6197 56.3552 87.088 56.1595 87.4332 55.8129C87.7783 55.4664 87.972 54.9972 87.972 54.5081V51.8535H84.6652V34.932C84.7918 33.5548 86.1728 32.6302 87.458 32.1584H87.4925H88.2597V31.606H78.4237Z" fill="white"/>
<path fill-rule="evenodd" clip-rule="evenodd" d="M54.3361 4.23459L57.3821 0.943115L60.4242 4.23459L57.3821 7.52222L54.3361 4.23459Z" fill="#D32825"/>
<path fill-rule="evenodd" clip-rule="evenodd" d="M62.3461 12.7165L65.3154 9.51327L73.0185 17.8225L70.0531 21.0296L62.3461 12.7165ZM58.46 16.9133L61.3334 13.8137L69.0518 22.1382L66.1785 25.2417L58.46 16.9133ZM57.3092 18.0105L57.3706 17.9414L57.4396 18.0105L64.2527 25.3683H50.5037L57.3092 18.0105ZM53.4308 13.8137L56.3041 16.9133L48.5971 25.2417L45.7238 22.1382L53.4308 13.8137ZM41.7457 17.8225L49.4526 9.49792L52.4218 12.7012L44.7111 21.0449L41.7457 17.8225Z" fill="#D32825"/>
<path fill-rule="evenodd" clip-rule="evenodd" d="M57.9805 9.06447L61.4331 5.328L64.2949 8.41999L57.9767 15.2484L57.9805 9.06447ZM50.4615 8.41999L53.3234 5.328L56.776 9.06447V15.2484L50.4615 8.41999Z" fill="#D32825"/>
<path fill-rule="evenodd" clip-rule="evenodd" d="M0.817108 28.491H113.939L113.283 29.7377H1.47694L0.817108 28.491Z" fill="#D32825"/>
<path fill-rule="evenodd" clip-rule="evenodd" d="M0 26.9335H114.76L114.43 27.5626H0.329914L0 26.9335Z" fill="#D32825"/>
<path fill-rule="evenodd" clip-rule="evenodd" d="M0.817108 59.6372H113.939L113.283 58.3866H1.47694L0.817108 59.6372Z" fill="#D32825"/>
<path fill-rule="evenodd" clip-rule="evenodd" d="M0 61.1947H114.76L114.43 60.5618H0.329914L0 61.1947Z" fill="#D32825"/>
<path fill-rule="evenodd" clip-rule="evenodd" d="M115.98 32.8566C115.552 32.4297 114.99 32.1643 114.388 32.1058C113.786 32.0472 113.183 32.1991 112.681 32.5356C112.179 32.872 111.809 33.3722 111.634 33.9508C111.459 34.5295 111.491 35.1508 111.723 35.709C111.955 36.2671 112.373 36.7275 112.907 37.0117C113.44 37.2959 114.056 37.3863 114.648 37.2675C115.241 37.1487 115.774 36.828 116.157 36.3602C116.54 35.8924 116.748 35.3063 116.747 34.7018C116.747 34.3589 116.679 34.0195 116.548 33.7028C116.416 33.3862 116.223 33.0987 115.98 32.8566ZM114.135 31.8285C114.799 31.8295 115.442 32.0606 115.954 32.4824C116.466 32.9041 116.817 33.4905 116.946 34.1416C117.074 34.7927 116.973 35.4683 116.66 36.0533C116.346 36.6383 115.84 37.0965 115.226 37.35C114.613 37.6034 113.931 37.6364 113.296 37.4433C112.661 37.2502 112.112 36.843 111.744 36.291C111.375 35.7389 111.21 35.0763 111.275 34.4158C111.34 33.7553 111.632 33.1379 112.102 32.6686C112.369 32.4014 112.685 32.1896 113.034 32.0454C113.383 31.9012 113.757 31.8275 114.135 31.8285Z" fill="white"/>
<path fill-rule="evenodd" clip-rule="evenodd" d="M113.506 34.4524H113.985C114.179 34.4624 114.374 34.4495 114.565 34.414C114.638 34.3915 114.702 34.344 114.745 34.2798C114.79 34.209 114.813 34.126 114.81 34.0419C114.815 33.9476 114.785 33.8547 114.726 33.7811C114.66 33.7125 114.574 33.6679 114.48 33.6545C114.43 33.6545 114.269 33.6545 114.008 33.6545H113.506V34.4524ZM112.865 36.2938V33.1059H114.219C114.471 33.0945 114.722 33.1243 114.964 33.1941C115.122 33.2483 115.258 33.3552 115.347 33.4972C115.44 33.648 115.488 33.8224 115.485 33.9997C115.493 34.2176 115.418 34.4303 115.274 34.5944C115.104 34.7634 114.88 34.8667 114.641 34.8859C114.769 34.9585 114.885 35.0489 114.987 35.1544C115.13 35.3151 115.258 35.4884 115.37 35.6723L115.754 36.2938H114.987L114.519 35.6033C114.415 35.4386 114.301 35.2809 114.177 35.1314C114.126 35.0716 114.06 35.0266 113.985 35.001C113.88 34.9698 113.769 34.9568 113.659 34.9626H113.529V36.2938H112.865Z" fill="white"/>
<path fill-rule="evenodd" clip-rule="evenodd" d="M90.5768 46.6746L93.2622 47.8255V40.0418L90.5768 38.891V46.6746ZM91.7047 36.877C92.9317 37.7348 94.3043 38.3626 95.7557 38.7298V47.883C95.0903 48.1367 94.4397 48.4274 93.8069 48.7539C93.1886 49.0913 92.5973 49.476 92.0384 49.9047C91.3327 49.3617 90.5714 48.8949 89.7674 48.5122C89.0205 48.147 88.2011 47.9543 87.3698 47.9483V47.6414L87.8071 47.204C87.8641 47.1251 87.9069 47.0368 87.9337 46.9432C88.0212 46.59 88.0726 46.2288 88.0871 45.8652V38.96C89.4304 38.5271 90.6635 37.8071 91.7008 36.8501L91.7047 36.877Z" fill="white"/>
<path fill-rule="evenodd" clip-rule="evenodd" d="M104.387 39.689L107.134 37.0036L107.28 37.0612C107.816 37.2755 108.33 37.5428 108.814 37.8591C109.17 38.0865 109.484 38.3733 109.743 38.7069L110.855 37.6404L111.515 38.4077L111.35 38.5688C110.945 38.9272 110.622 39.368 110.402 39.8616C110.239 40.4087 110.166 40.9789 110.188 41.5495V45.6274C110.156 46.1742 110.244 46.7213 110.445 47.231C110.46 47.2645 110.486 47.2926 110.517 47.3115C110.659 47.3614 111.024 47.02 111.108 46.9279L111.327 46.7054L111.887 47.6376L109.014 49.9662L108.856 49.8281C108.571 49.5793 108.314 49.3002 108.089 48.9956C107.901 48.7356 107.751 48.4501 107.644 48.1478C107.537 47.8382 107.471 47.5157 107.448 47.1888C107.422 46.8052 107.414 46.4215 107.414 46.0379V40.1685C107.416 40.0823 107.397 39.9969 107.358 39.9199C107.319 39.8429 107.262 39.7768 107.191 39.7273C107.046 39.6161 106.896 39.5048 106.743 39.3974L105.81 40.4294V46.7361L106.877 47.722L104.452 49.8051L102.043 47.7834L103.056 46.7438V40.5214L101.848 39.4741C101.593 39.7395 101.409 40.0638 101.311 40.4179C101.179 40.8684 101.104 41.3336 101.088 41.8027C101.074 42.2554 101.098 42.7084 101.161 43.1569C101.211 43.4983 101.257 43.8474 101.307 44.1927L101.548 46.2949C101.581 47.405 101.222 48.4911 100.536 49.3639C99.7248 50.2913 98.7393 51.0499 97.6354 51.5966L97.3976 51.7232L97.0792 50.9252L97.2441 50.8178C97.7952 50.4481 98.2281 49.9273 98.4909 49.3179C98.7717 48.7197 98.8908 48.0583 98.8362 47.3998C98.794 47.0545 98.7479 46.7092 98.7019 46.364C98.6405 45.9113 98.5753 45.4586 98.5101 45.0098C98.4333 44.4957 98.3643 43.9817 98.3029 43.4753C98.2415 42.9689 98.1955 42.4434 98.1802 41.9408C98.1663 41.5037 98.2089 41.0666 98.3068 40.6404C98.4085 40.1566 98.5736 39.6884 98.7978 39.2478C99.0271 38.7897 99.316 38.364 99.6571 37.9819C100.014 37.5822 100.452 37.2631 100.942 37.0458L101.08 36.9883L104.387 39.689Z" fill="white"/>
</svg>
