<svg width="72" height="62" viewBox="0 0 72 62" fill="none" xmlns="http://www.w3.org/2000/svg">
<path d="M5.66531 50.9277C3.23227 50.9277 0.730469 52.8691 0.730469 56.2673C0.730469 59.3739 2.93014 61.5682 5.66531 61.5682C7.92305 61.5682 8.9293 60.0592 8.9293 60.0592V60.7169C8.9293 61.0278 9.22449 61.3747 9.58986 61.3747H11.2219V51.1599H8.9293V52.4561C8.9293 52.4561 7.91462 50.9277 5.66531 50.9277ZM6.07369 53.0164C8.07659 53.0164 9.12723 54.7705 9.12723 56.2665C9.12723 57.9329 7.8798 59.5155 6.07794 59.5155C4.5717 59.5155 3.06287 58.3008 3.06287 56.2446C3.06287 54.3884 4.36131 53.0164 6.07369 53.0164Z" fill="#191818"/>
<path d="M14.4067 61.3739C14.0544 61.3739 13.7461 61.1223 13.7461 60.7161V51.1591H16.0386V52.4232C16.5581 51.6456 17.5731 50.9238 19.1309 50.9238C21.6771 50.9238 23.0329 52.9449 23.0329 54.8349V61.3739H21.4398C21.022 61.3739 20.7404 61.0257 20.7404 60.6775V55.3379C20.7404 54.2903 20.0958 53.018 18.605 53.018C16.9965 53.018 16.0386 54.5318 16.0386 55.957V61.3739H14.4067Z" fill="#191818"/>
<path d="M29.7161 50.926C27.2831 50.926 24.7812 52.8674 24.7812 56.2656C24.7812 59.3722 26.9809 61.5665 29.7161 61.5665C31.9738 61.5665 32.9801 60.0575 32.9801 60.0575V60.7152C32.9801 61.0261 33.2753 61.373 33.6406 61.373H35.2726V46.0508H32.9801V52.4544C32.9801 52.4544 31.9654 50.926 29.7161 50.926ZM30.1245 53.0147C32.1274 53.0147 33.178 54.7688 33.178 56.2648C33.178 57.9312 31.9306 59.5138 30.1287 59.5138C28.6225 59.5138 27.1137 58.2991 27.1137 56.2428C27.1137 54.3867 28.4121 53.0147 30.1245 53.0147Z" fill="#191818"/>
<path d="M38.4614 61.3739C38.1091 61.3739 37.8008 61.1223 37.8008 60.7161V51.159H40.0933V52.8615C40.488 51.9078 41.3395 51.043 42.8522 51.043C43.2739 51.043 43.6682 51.1204 43.6682 51.1204V53.4806C43.6682 53.4806 43.1758 53.2871 42.5802 53.2871C40.9716 53.2871 40.0933 54.8009 40.0933 56.2261V61.3739H38.4614Z" fill="#191818"/>
<path d="M57.5785 61.373C57.2263 61.373 56.918 61.1215 56.918 60.7153V51.1582H59.2105V61.373H57.5785Z" fill="#191818"/>
<path d="M65.9309 50.926C63.4979 50.926 60.9961 52.8674 60.9961 56.2656C60.9961 59.3722 63.1958 61.5665 65.9309 61.5665C68.1887 61.5665 69.1949 60.0575 69.1949 60.0575V60.7152C69.1949 61.0261 69.4901 61.373 69.8555 61.373H71.4875V46.0508H69.1949V52.4544C69.1949 52.4544 68.1802 50.926 65.9309 50.926ZM66.3393 53.0147C68.3422 53.0147 69.3928 54.7688 69.3928 56.2648C69.3928 57.9312 68.1454 59.5138 66.3436 59.5138C64.8373 59.5138 63.3285 58.2991 63.3285 56.2428C63.3285 54.3867 64.6269 53.0147 66.3393 53.0147Z" fill="#191818"/>
<path d="M58.0476 48.9553C58.885 48.9553 59.5639 48.2793 59.5639 47.4454C59.5639 46.6115 58.885 45.9355 58.0476 45.9355C57.2101 45.9355 56.5312 46.6115 56.5312 47.4454C56.5312 48.2793 57.2101 48.9553 58.0476 48.9553Z" fill="#191818"/>
<path d="M49.7147 50.9238C47.1666 50.9238 44.3672 52.8178 44.3672 56.2487C44.3672 59.3751 46.7516 61.568 49.7091 61.568C53.3539 61.568 55.1336 58.6504 55.1336 56.2685C55.1336 53.3455 52.8419 50.9238 49.7147 50.9238ZM49.723 53.0557C51.485 53.0557 52.7994 54.4698 52.7994 56.2551C52.7994 58.0713 51.4041 59.4728 49.7282 59.4728C48.1725 59.4728 46.6602 58.2121 46.6602 56.2856C46.6602 54.327 48.0985 53.0557 49.723 53.0557Z" fill="#191818"/>
<path d="M53.3797 11.961L59.2454 1.84305C59.5764 1.27583 59.3763 0.55531 58.8143 0.225708C58.2524 -0.103888 57.5211 0.0877337 57.1978 0.654954L51.2551 10.9032C46.7212 8.84132 41.6176 7.69155 36.1291 7.69155C30.6406 7.69155 25.537 8.84132 21.0031 10.9032L15.0604 0.654954C14.7294 0.0877337 14.0058 -0.103888 13.4362 0.225708C12.8666 0.55531 12.6741 1.27583 13.0051 1.84305L18.8708 11.961C8.75598 17.4186 1.905 27.6132 0.773438 39.5479H71.4848C70.3532 27.6132 63.5022 17.4186 53.3797 11.961ZM19.8946 29.6598C18.255 29.6598 16.931 28.3338 16.931 26.7088C16.931 25.0761 18.2627 23.7577 19.8946 23.7577C21.5342 23.7577 22.8582 25.0837 22.8582 26.7088C22.8659 28.3338 21.5342 29.6598 19.8946 29.6598ZM52.3559 29.6598C50.7163 29.6598 49.3923 28.3338 49.3923 26.7088C49.3923 25.0761 50.724 23.7577 52.3559 23.7577C53.9955 23.7577 55.3195 25.0837 55.3195 26.7088C55.3272 28.3338 53.9955 29.6598 52.3559 29.6598Z" fill="white"/>
</svg>
