<svg width="71" height="62" viewBox="0 0 71 62" fill="none" xmlns="http://www.w3.org/2000/svg">
<path d="M4.93484 50.8633C2.5018 50.8633 0 52.8047 0 56.2029C0 59.3094 2.19967 61.5037 4.93484 61.5037C7.19258 61.5037 8.19883 59.9947 8.19883 59.9947V60.6525C8.19883 60.9634 8.49402 61.3103 8.85939 61.3103H10.4914V51.0954H8.19883V52.3916C8.19883 52.3916 7.18415 50.8633 4.93484 50.8633ZM5.34322 52.952C7.34613 52.952 8.39676 54.706 8.39676 56.2021C8.39676 57.8685 7.14933 59.451 5.34747 59.4511C3.84123 59.4511 2.3324 58.2363 2.3324 56.1801C2.3324 54.324 3.63084 52.952 5.34322 52.952Z" fill="#191818"/>
<path d="M13.6762 61.3095C13.324 61.3095 13.0156 61.0579 13.0156 60.6517V51.0946H15.3082V52.3587C15.8277 51.5812 16.8426 50.8594 18.4004 50.8594C20.9466 50.8594 22.3025 52.8805 22.3025 54.7704V61.3095H20.7093C20.2916 61.3095 20.0099 60.9612 20.0099 60.613V55.2734C20.0099 54.2258 19.3653 52.9536 17.8746 52.9536C16.266 52.9536 15.3082 54.4673 15.3082 55.8925V61.3095H13.6762Z" fill="#191818"/>
<path d="M28.9856 50.8616C26.5526 50.8616 24.0508 52.803 24.0508 56.2011C24.0508 59.3077 26.2505 61.502 28.9856 61.502C31.2434 61.502 32.2496 59.993 32.2496 59.993V60.6508C32.2496 60.9617 32.5448 61.3085 32.9102 61.3085H34.5422V45.9863H32.2496V52.3899C32.2496 52.3899 31.2349 50.8616 28.9856 50.8616ZM29.394 52.9503C31.3969 52.9503 32.4475 54.7043 32.4475 56.2004C32.4475 57.8668 31.2001 59.4493 29.3982 59.4493C27.892 59.4493 26.3832 58.2346 26.3832 56.1784C26.3832 54.3223 27.6816 52.9503 29.394 52.9503V52.9503Z" fill="#191818"/>
<path d="M37.7309 61.3094C37.3787 61.3094 37.0703 61.0578 37.0703 60.6516V51.0946H39.3629V52.7971C39.7575 51.8433 40.609 50.9785 42.1217 50.9785C42.5434 50.9785 42.9377 51.0559 42.9377 51.0559V53.4161C42.9377 53.4161 42.4454 53.2227 41.8497 53.2227C40.2412 53.2227 39.3629 54.7364 39.3629 56.1616V61.3094H37.7309Z" fill="#191818"/>
<path d="M56.8481 61.3086C56.4958 61.3086 56.1875 61.057 56.1875 60.6508V51.0938H58.4801V61.3086H56.8481Z" fill="#191818"/>
<path d="M65.2005 50.8616C62.7674 50.8616 60.2656 52.803 60.2656 56.2011C60.2656 59.3077 62.4653 61.502 65.2005 61.502C67.4582 61.502 68.4645 59.993 68.4645 59.993V60.6508C68.4645 60.9617 68.7596 61.3085 69.125 61.3085H70.757V45.9863H68.4645V52.3899C68.4645 52.3899 67.4498 50.8616 65.2005 50.8616V50.8616ZM65.6088 52.9503C67.6117 52.9503 68.6624 54.7043 68.6624 56.2004C68.6624 57.8668 67.415 59.4493 65.6131 59.4493C64.1068 59.4493 62.598 58.2346 62.598 56.1784C62.598 54.3223 63.8965 52.9503 65.6088 52.9503Z" fill="#191818"/>
<path d="M57.3171 48.8909C58.1545 48.8909 58.8334 48.2149 58.8334 47.381C58.8334 46.5471 58.1545 45.8711 57.3171 45.8711C56.4797 45.8711 55.8008 46.5471 55.8008 47.381C55.8008 48.2149 56.4797 48.8909 57.3171 48.8909Z" fill="#191818"/>
<path d="M48.9842 50.8594C46.4361 50.8594 43.6367 52.7533 43.6367 56.1842C43.6367 59.3106 46.0212 61.5036 48.9786 61.5036C52.6234 61.5036 54.4031 58.586 54.4031 56.204C54.4031 53.2811 52.1114 50.8594 48.9842 50.8594ZM48.9925 52.9913C50.7546 52.9913 52.0689 54.4054 52.0689 56.1906C52.0689 58.0068 50.6737 59.4083 48.9978 59.4083C47.442 59.4083 45.9297 58.1476 45.9297 56.2212C45.9297 54.2626 47.3681 52.9913 48.9925 52.9913V52.9913Z" fill="#191818"/>
<path d="M52.6492 11.8966L58.5149 1.77859C58.8459 1.21138 58.6458 0.490857 58.0838 0.161255C57.5219 -0.168342 56.7906 0.0232805 56.4673 0.590501L50.5247 10.8388C45.9907 8.77686 40.8871 7.6271 35.3986 7.6271C29.9102 7.6271 24.8066 8.77686 20.2726 10.8388L14.33 0.590501C13.999 0.0232805 13.2754 -0.168342 12.7057 0.161255C12.1361 0.490857 11.9437 1.21138 12.2747 1.77859L18.1403 11.8966C8.02551 17.3542 1.17453 27.5488 0.0429688 39.4834H70.7543C69.6227 27.5488 62.7718 17.3542 52.6492 11.8966ZM19.1641 29.5954C17.5245 29.5954 16.2005 28.2693 16.2005 26.6443C16.2005 25.0116 17.5322 23.6932 19.1641 23.6932C20.8037 23.6932 22.1278 25.0193 22.1278 26.6443C22.1355 28.2693 20.8037 29.5954 19.1641 29.5954ZM51.6255 29.5954C49.9858 29.5954 48.6618 28.2693 48.6618 26.6443C48.6618 25.0116 49.9935 23.6932 51.6255 23.6932C53.2651 23.6932 54.5891 25.0193 54.5891 26.6443C54.5968 28.2693 53.2651 29.5954 51.6255 29.5954Z" fill="#32DE84"/>
</svg>
