<svg width="153" height="162" viewBox="0 0 153 162" fill="none" xmlns="http://www.w3.org/2000/svg">
<g filter="url(#filter0_d)">
<path d="M101.315 97.9288C100.374 100.078 99.2604 102.055 97.9698 103.874C96.2106 106.353 94.7703 108.069 93.6602 109.022C91.9395 110.586 90.0958 111.387 88.1216 111.432C86.7043 111.432 84.995 111.034 83.0054 110.225C81.0093 109.42 79.1748 109.022 77.4975 109.022C75.7383 109.022 73.8516 109.42 71.8336 110.225C69.8125 111.034 68.1843 111.455 66.9394 111.497C65.0462 111.577 63.1591 110.753 61.2755 109.022C60.0733 107.985 58.5696 106.209 56.7682 103.692C54.8354 101.004 53.2464 97.8871 52.0015 94.3337C50.6683 90.4957 50 86.7791 50 83.1809C50 79.0593 50.9011 75.5044 52.706 72.5254C54.1244 70.1326 56.0115 68.2451 58.3733 66.8594C60.7351 65.4738 63.287 64.7677 66.0353 64.7225C67.539 64.7225 69.5109 65.1822 71.9615 66.0857C74.4051 66.9923 75.9741 67.452 76.6621 67.452C77.1764 67.452 78.9194 66.9145 81.8742 65.8428C84.6685 64.8489 87.0269 64.4374 88.9589 64.5995C94.1941 65.0171 98.1273 67.0568 100.743 70.7317C96.0608 73.5356 93.7447 77.4629 93.7908 82.501C93.8331 86.4252 95.2734 89.6908 98.1042 92.2837C99.3871 93.4871 100.82 94.4172 102.414 95.0778C102.068 96.0686 101.703 97.0177 101.315 97.9288ZM89.3084 51.2304C89.3084 54.3062 88.1715 57.1781 85.9053 59.8363C83.1706 62.9963 79.8627 64.8223 76.2757 64.5342C76.2299 64.1652 76.2034 63.7768 76.2034 63.3687C76.2034 60.4159 77.504 57.2559 79.8136 54.6721C80.9666 53.3639 82.4331 52.2762 84.2115 51.4084C85.986 50.5537 87.6645 50.0809 89.2431 50C89.2892 50.4112 89.3084 50.8224 89.3084 51.2304V51.2304Z" fill="#191818"/>
</g>
<defs>
<filter id="filter0_d" x="0" y="0" width="152.414" height="161.502" filterUnits="userSpaceOnUse" color-interpolation-filters="sRGB">
<feFlood flood-opacity="0" result="BackgroundImageFix"/>
<feColorMatrix in="SourceAlpha" type="matrix" values="0 0 0 0 0 0 0 0 0 0 0 0 0 0 0 0 0 0 127 0"/>
<feOffset/>
<feGaussianBlur stdDeviation="25"/>
<feColorMatrix type="matrix" values="0 0 0 0 1 0 0 0 0 1 0 0 0 0 1 0 0 0 0.5 0"/>
<feBlend mode="normal" in2="BackgroundImageFix" result="effect1_dropShadow"/>
<feBlend mode="normal" in="SourceGraphic" in2="effect1_dropShadow" result="shape"/>
</filter>
</defs>
</svg>
