<svg width="154" height="162" viewBox="0 0 154 162" fill="none" xmlns="http://www.w3.org/2000/svg">
<g filter="url(#filter0_d)">
<path d="M102.218 98.1808C101.277 100.329 100.163 102.307 98.8721 104.126C97.113 106.605 95.6726 108.321 94.5626 109.274C92.8418 110.838 90.9982 111.639 89.0239 111.684C87.6066 111.684 85.8974 111.286 83.9077 110.477C81.9116 109.672 80.0772 109.274 78.3998 109.274C76.6406 109.274 74.754 109.672 72.7359 110.477C70.7148 111.286 69.0866 111.707 67.8418 111.749C65.9486 111.829 64.0615 111.005 62.1779 109.274C60.9757 108.237 59.4719 106.461 57.6705 103.944C55.7377 101.256 54.1487 98.139 52.9039 94.5857C51.5707 90.7476 50.9023 87.031 50.9023 83.4329C50.9023 79.3112 51.8034 75.7563 53.6083 72.7774C55.0268 70.3846 56.9138 68.497 59.2756 67.1114C61.6375 65.7257 64.1894 65.0196 66.9376 64.9744C68.4413 64.9744 70.4133 65.4342 72.8638 66.3377C75.3074 67.2443 76.8765 67.704 77.5644 67.704C78.0787 67.704 79.8217 67.1664 82.7766 66.0947C85.5709 65.1009 87.9292 64.6893 89.8612 64.8514C95.0965 65.269 99.0296 67.3088 101.645 70.9836C96.9632 73.7876 94.6471 77.7149 94.6932 82.7529C94.7354 86.6772 96.1758 89.9428 99.0066 92.5357C100.289 93.7391 101.722 94.6692 103.316 95.3298C102.97 96.3206 102.606 97.2697 102.218 98.1808ZM90.2108 51.4823C90.2108 54.5582 89.0738 57.43 86.8077 60.0882C84.0729 63.2483 80.7651 65.0743 77.178 64.7861C77.1323 64.4171 77.1058 64.0288 77.1058 63.6207C77.1058 60.6679 78.4063 57.5079 80.7159 54.9241C81.869 53.6159 83.3354 52.5281 85.1138 51.6604C86.8883 50.8056 88.5668 50.3329 90.1455 50.252C90.1916 50.6631 90.2108 51.0744 90.2108 51.4823V51.4823Z" fill="white"/>
</g>
<defs>
<filter id="filter0_d" x="0.902344" y="0.251953" width="152.414" height="161.502" filterUnits="userSpaceOnUse" color-interpolation-filters="sRGB">
<feFlood flood-opacity="0" result="BackgroundImageFix"/>
<feColorMatrix in="SourceAlpha" type="matrix" values="0 0 0 0 0 0 0 0 0 0 0 0 0 0 0 0 0 0 127 0"/>
<feOffset/>
<feGaussianBlur stdDeviation="25"/>
<feColorMatrix type="matrix" values="0 0 0 0 1 0 0 0 0 1 0 0 0 0 1 0 0 0 0.5 0"/>
<feBlend mode="normal" in2="BackgroundImageFix" result="effect1_dropShadow"/>
<feBlend mode="normal" in="SourceGraphic" in2="effect1_dropShadow" result="shape"/>
</filter>
</defs>
</svg>
