<svg width="18" height="18" viewBox="0 0 18 18" fill="none" xmlns="http://www.w3.org/2000/svg">
<path d="M15.3639 2.63602C13.6641 0.936176 11.404 0 9 0C6.59598 0 4.33589 0.936176 2.63602 2.63602C0.936176 4.33589 0 6.59602 0 9C0 11.404 0.936176 13.6641 2.63602 15.3639C4.33589 17.0638 6.59602 18 9 18C11.404 18 13.6641 17.0638 15.3639 15.364C17.0638 13.6641 18 11.404 18 9C18 6.59602 17.0638 4.33593 15.3639 2.63602ZM13.2998 6.85804L8.27019 11.8877C8.16722 11.9907 8.03225 12.0421 7.89732 12.0421C7.76236 12.0421 7.62739 11.9907 7.52442 11.8877L4.70018 9.06349C4.49423 8.85758 4.49423 8.5237 4.70018 8.31772C4.90609 8.11178 5.24 8.11178 5.44595 8.31772L7.89732 10.7691L12.5541 6.11227C12.76 5.90632 13.0939 5.90632 13.2998 6.11227C13.5058 6.31821 13.5058 6.65209 13.2998 6.85804Z" fill="white"/>
</svg>
