<svg width="32" height="68" viewBox="0 0 32 68" fill="none" xmlns="http://www.w3.org/2000/svg">
<path d="M18.5641 60.2948C18.5641 61.9032 18.6021 63.4367 18.5641 65.0077C18.5262 66.8405 17.4253 68.0374 15.9069 68.0374C14.3886 68 13.3257 66.8031 13.3257 64.9703C13.2877 63.4367 13.3257 61.8658 13.3257 60.2574C10.0991 59.7712 7.13827 58.9483 4.74681 56.8163C0.95084 53.4499 -0.301829 49.1859 0.115728 44.3234C0.229607 42.9395 1.1786 42.0044 2.62107 41.967C4.17741 41.9296 5.08844 42.8647 5.27824 44.3608C5.39212 45.1089 5.3162 45.857 5.3162 46.6051C5.39212 51.3179 8.92237 54.8713 13.7053 55.0209C15.1478 55.0583 16.6282 55.0583 18.0706 55.0209C22.3601 54.9461 25.5867 52.3652 26.4977 48.2882C27.3328 44.5479 25.3209 40.6205 21.4491 38.9747C17.2735 37.2167 12.9841 35.6458 8.77053 33.9626C4.86069 32.3916 2.16555 29.6612 0.799002 25.6964C-1.82022 18.0286 2.7729 10.0616 10.7824 8.22882C11.5795 8.0418 12.3767 7.89219 13.3257 7.70517C13.3257 6.13421 13.2877 4.56326 13.3257 3.0297C13.3636 1.19692 14.4645 0 15.9829 0C17.5013 0.0374037 18.5641 1.23432 18.6021 3.06711C18.64 4.60066 18.6021 6.17162 18.6021 7.74257C19.5511 7.92959 20.3482 8.0418 21.1454 8.22882C28.2059 9.76238 32.9888 16.6821 31.85 23.714C31.6222 25.0979 30.7492 26.033 29.3067 26.0704C27.7883 26.1078 26.8393 25.1727 26.6495 23.6766C26.5357 22.9285 26.6495 22.1804 26.6116 21.4323C26.5357 16.6073 22.9295 13.0913 18.0327 13.0165C16.6282 12.9791 15.2616 12.9791 13.8571 13.0165C9.56768 13.0913 6.34111 15.6722 5.43008 19.7492C4.59497 23.4895 6.60683 27.4169 10.4787 29.0627C14.6543 30.8207 18.9437 32.3916 23.1572 34.0748C27.0671 35.6458 29.7622 38.3762 31.1288 42.341C33.71 49.9714 29.1169 57.9758 21.1454 59.8086C20.3103 59.9582 19.5131 60.1078 18.5641 60.2948Z" fill="#FF8C2B"/>
</svg>
