<svg width="32" height="29" viewBox="0 0 32 29" fill="none" xmlns="http://www.w3.org/2000/svg">
<mask id="mask0" mask-type="alpha" maskUnits="userSpaceOnUse" x="0" y="0" width="32" height="29">
<path d="M0.167767 9.74667L14.2266 27.8176L7.84965 9.74667H0.167767Z" fill="white"/>
<path d="M9.10252 9.74667L15.8966 29L22.8242 9.74667H9.10252Z" fill="white"/>
<path d="M17.4104 28.2842L31.8317 9.74667H24.0798L17.4104 28.2842Z" fill="white"/>
<path d="M26.3308 0H17.2364L23.4721 7.94658L26.3308 0Z" fill="white"/>
<path d="M22.4119 8.52828L15.9997 0.357529L9.58801 8.52828H22.4119Z" fill="white"/>
<path d="M14.7637 0H5.66272L8.48614 8.00019L14.7637 0Z" fill="white"/>
<path d="M4.68255 0.771274L0 8.52841H7.41949L4.68255 0.771274Z" fill="white"/>
<path d="M32 8.52829L27.3127 0.763243L24.5182 8.52829H32Z" fill="white"/>
</mask>
<g mask="url(#mask0)">
<rect width="80" height="65" transform="translate(-22 -13)" fill="#6CAC20"/>
</g>
</svg>
