<svg width="28" height="26" viewBox="0 0 28 26" fill="none" xmlns="http://www.w3.org/2000/svg">
<mask id="mask0" mask-type="alpha" maskUnits="userSpaceOnUse" x="0" y="0" width="29" height="26">
<path d="M25.5734 15.6241C26.3483 15.785 26.9176 16.2636 27.4745 16.7762C28.2491 15.1881 29.2981 11.3035 21.3922 10.8237C21.3922 10.8237 21.6603 8.85196 22.7351 7.15901C23.81 5.46542 24.3639 2.55639 22.1923 0.935382C20.0206 -0.685628 19.6851 0.12142 19.48 0.956336C19.3633 1.43147 18.6377 4.6682 18.6377 4.6682C18.6377 4.6682 13.7098 9.95895 12.8693 11.5074C12.8693 11.5074 12.2612 12.4203 11.1875 12.4203C10.1137 12.4203 7.35826 12.4203 7.35826 12.4203C7.35826 12.4203 4.20318 16.4483 6.93791 22.0361C6.93791 22.0361 6.9843 22.2906 7.54478 22.2906C8.10526 22.2906 11.8415 22.2906 11.8415 22.2906C11.8415 22.2906 13.0323 23.6696 15.8344 25.3138C15.8344 25.3138 17.6323 26.1609 19.2205 25.6767C19.2205 25.6767 19.5471 25.968 20.2948 25.968C21.0144 25.967 23.3528 26.4295 23.7957 23.8708C23.4606 23.5924 23.1038 23.3802 22.6687 23.2964C22.3137 23.2283 22.4647 22.6682 22.8176 22.7363C23.3612 22.8417 23.8099 23.1285 24.2258 23.4868C24.807 23.3088 25.8519 22.7735 25.9186 21.228C25.8994 21.2155 25.8797 21.2076 25.861 21.1894C25.456 20.7779 25.0095 20.4513 24.4436 20.3448C24.0879 20.279 24.2394 19.7188 24.5926 19.7845C25.235 19.9048 25.768 20.2898 26.2283 20.7525C26.8099 20.444 27.9473 19.5447 27.0891 17.4519C27.0891 17.4519 27.1307 17.3924 27.1953 17.2875C26.6743 16.799 26.1485 16.3339 25.4243 16.1841C25.0698 16.11 25.2204 15.5514 25.5734 15.6241Z" fill="white"/>
<path d="M6.30472 11.8397H1.40106C-1.75132 17.646 1.40106 22.8714 1.40106 22.8714H6.44474C2.55663 17.3557 6.30472 11.8397 6.30472 11.8397Z" fill="white"/>
</mask>
<g mask="url(#mask0)">
<rect width="80" height="65" transform="translate(-26 -12)" fill="#6CAC20"/>
</g>
</svg>
