<svg width="26" height="31" viewBox="0 0 26 31" fill="none" xmlns="http://www.w3.org/2000/svg">
<mask id="mask0" mask-type="alpha" maskUnits="userSpaceOnUse" x="0" y="0" width="26" height="31">
<path d="M15.132 20.5925C15.0149 20.4657 14.8668 20.3709 14.7138 20.2919C14.3805 20.1201 14.0161 20.0158 13.6542 19.9217V22.6948C14.2416 22.6291 14.9159 22.4183 15.2243 21.876C15.3715 21.617 15.4008 21.2988 15.3408 21.0104C15.3083 20.8542 15.2411 20.7108 15.132 20.5925Z" fill="white"/>
<path d="M15.2212 21.8814C15.2223 21.8794 15.223 21.8782 15.2243 21.876C15.2232 21.8778 15.2222 21.8795 15.2212 21.8814Z" fill="white"/>
<path d="M10.8993 16.1595C10.7983 16.3054 10.735 16.471 10.7175 16.6471C10.7 16.8235 10.7098 17.0198 10.7776 17.1859C10.8421 17.3442 10.9773 17.4611 11.1169 17.5552C11.2735 17.6605 11.4457 17.7428 11.6211 17.8125C11.7682 17.8711 11.9338 17.9271 12.1122 17.9813V15.472C11.6614 15.5671 11.169 15.7702 10.8993 16.1595Z" fill="white"/>
<path d="M15.2359 21.8555C15.2322 21.862 15.2282 21.8688 15.2243 21.876C15.2289 21.8676 15.2325 21.8615 15.2359 21.8555Z" fill="white"/>
<path d="M15.2506 21.8296C15.2517 21.8277 15.2516 21.8278 15.2506 21.8296V21.8296Z" fill="white"/>
<path d="M14.6421 6.74509C17.0266 4.76406 18.6199 0.301102 17.6394 0.105902C16.3365 -0.153561 13.5073 0.984154 12.1398 1.18461C10.2003 1.4162 8.08785 -0.895407 6.90212 0.393085C5.93802 1.44071 7.5933 5.2506 10.183 6.91038C2.45672 10.6659 -8.40312 29.5187 10.5424 30.8866C36.7569 32.7794 23.6304 10.4047 14.6421 6.74509ZM16.8934 21.6133C16.8128 22.3483 16.4189 23.013 15.8302 23.4642C15.2085 23.9407 14.4288 24.1623 13.6541 24.2243V25.0364C13.6541 25.2537 13.5582 25.4639 13.3937 25.6077C13.1676 25.8056 12.8354 25.8544 12.5611 25.7293C12.2901 25.6061 12.1122 25.3313 12.1122 25.0364V24.1488C11.9793 24.1239 11.8474 24.0942 11.7171 24.0588C10.9931 23.8621 10.3215 23.4786 9.83097 22.9113C9.58661 22.6285 9.38739 22.3076 9.24961 21.9612C9.21362 21.8706 9.18153 21.7784 9.15343 21.6852C9.12799 21.6008 9.10173 21.515 9.09266 21.4271C9.07739 21.2795 9.10697 21.1289 9.17652 20.9975C9.31946 20.7271 9.62069 20.5638 9.92826 20.5909C10.231 20.6175 10.4963 20.8252 10.5916 21.1106C10.6209 21.1985 10.6408 21.2885 10.6738 21.3755C10.7065 21.4619 10.7459 21.5458 10.7923 21.6258C10.8839 21.7832 10.9987 21.9283 11.1309 22.0543C11.4033 22.3139 11.7504 22.4826 12.1122 22.583V19.5659C11.4047 19.3848 10.6745 19.1508 10.0904 18.7016C9.80649 18.4832 9.56559 18.2119 9.40782 17.8907C9.24135 17.5517 9.17239 17.1741 9.16959 16.799C9.16671 16.4182 9.23988 16.0407 9.40052 15.6937C9.55099 15.3688 9.76762 15.0771 10.0332 14.8353C10.6012 14.3183 11.3556 14.03 12.1122 13.9241V13.081C12.1122 12.8638 12.2082 12.6536 12.3727 12.5097C12.5988 12.312 12.9309 12.2631 13.2053 12.3881C13.4762 12.5115 13.6542 12.7862 13.6542 13.081V13.9195C13.755 13.932 13.8556 13.947 13.9556 13.965C14.6986 14.098 15.4254 14.4014 15.9687 14.9312C16.2262 15.1821 16.4369 15.4811 16.5851 15.8072C16.6264 15.8982 16.6627 15.9912 16.694 16.0861C16.7232 16.1746 16.7526 16.2657 16.7665 16.3581C16.7888 16.5055 16.7661 16.6578 16.7023 16.7927C16.5716 17.069 16.2785 17.2449 15.9701 17.2319C15.6671 17.2188 15.3926 17.0237 15.2841 16.7436C15.2517 16.6603 15.2356 16.5721 15.2026 16.489C15.1694 16.4049 15.1263 16.3247 15.0766 16.2489C14.9802 16.1015 14.8551 15.9752 14.7124 15.8711C14.4034 15.6454 14.0285 15.5278 13.654 15.4621V18.3494C14.0991 18.4548 14.5446 18.5698 14.9711 18.7361C15.6157 18.9874 16.2265 19.3729 16.5783 19.9806C16.5237 19.886 16.4706 19.7937 16.5801 19.9838C16.6877 20.1705 16.6363 20.0815 16.5823 19.9879C16.8623 20.4758 16.9542 21.0591 16.8934 21.6133Z" fill="white"/>
<path d="M15.2129 21.8957C15.2084 21.9036 15.2045 21.9106 15.2014 21.9159C15.2041 21.9114 15.2081 21.9044 15.2129 21.8957Z" fill="white"/>
</mask>
<g mask="url(#mask0)">
<rect width="80" height="65" transform="translate(-25 -8)" fill="#6CAC20"/>
</g>
</svg>
