<svg width="35" height="24" viewBox="0 0 35 24" fill="none" xmlns="http://www.w3.org/2000/svg">
<mask id="mask0" mask-type="alpha" maskUnits="userSpaceOnUse" x="0" y="0" width="35" height="24">
<path d="M34.3965 19.2H33.177C32.8511 19.2 32.5862 18.9372 32.5862 18.6126V16.5246C32.5862 13.7208 31.8059 11.0298 30.4379 8.70182L23.1386 11.3628C23.071 11.388 23.0009 11.4 22.931 11.4C22.7784 11.4 22.6275 11.3418 22.5134 11.2333C22.3469 11.0742 22.2859 10.8355 22.3559 10.6171L24.7776 3.09432C24.0009 2.65154 23.1857 2.26809 22.3275 1.96809V1.76709C22.3275 0.792697 21.5304 6.91026e-05 20.5504 6.91026e-05H18.1034V8.39525C18.1034 8.72706 17.833 8.99525 17.4999 8.99525C17.1668 8.99525 16.8965 8.72706 16.8965 8.39525V0H14.4495C13.4695 0 12.6723 0.792627 12.6723 1.76702V1.96262C11.7484 2.27341 10.8746 2.68086 10.0455 3.15481L12.6392 10.6038C12.714 10.8198 12.6597 11.0598 12.4979 11.2218C12.3826 11.3376 12.2276 11.4 12.0689 11.4C12.0049 11.4 11.9409 11.3897 11.8782 11.3688L4.36351 8.8782C3.12281 11.0754 2.41373 13.5834 2.41373 16.2V18.6126C2.41373 18.9372 2.14879 19.2 1.82294 19.2H0.603451C0.270364 19.2 0 19.4682 0 19.8V23.4C0 23.7318 0.270364 24 0.603451 24H34.3965C34.7296 24 35 23.7318 35 23.4V19.8C35 19.4682 34.7296 19.2 34.3965 19.2ZM27.7586 20.4H7.24141C6.90832 20.4 6.63796 20.1318 6.63796 19.8C6.63796 19.4682 6.90832 19.2 7.24141 19.2H27.7587C28.0917 19.2 28.3621 19.4682 28.3621 19.8C28.3621 20.1318 28.0917 20.4 27.7586 20.4Z" fill="white"/>
<path d="M8.99773 3.81249C7.42332 4.89426 6.07345 6.2611 5.01258 7.82886L11.0983 9.84604L8.99773 3.81249Z" fill="white"/>
<path d="M29.7754 7.66574C28.7098 6.13933 27.3725 4.81217 25.8319 3.75557L23.8821 9.81435L29.7754 7.66574Z" fill="white"/>
</mask>
<g mask="url(#mask0)">
<rect width="80" height="65" transform="translate(-27 -14)" fill="#6CAC20"/>
</g>
</svg>
