<svg id="ac12b2f5-3b47-483d-9376-692748a4871e" data-name="Capa 1" xmlns="http://www.w3.org/2000/svg" width="527.14" height="451.85" viewBox="0 0 527.14 451.85">
  <defs>
    <style>
      .d344095b-71f1-4dfc-976c-17982c5d786f {
        fill: #fff;
      }
    </style>
  </defs>
  <title>arrows</title>
  <path d="M248.3,248.29,54,442.57A31.64,31.64,0,0,1,9.27,397.83L181.18,225.92,9.27,54A31.64,31.64,0,0,1,54,9.27L248.31,203.55a31.64,31.64,0,0,1,0,44.74Z"/>
  <path class="d344095b-71f1-4dfc-976c-17982c5d786f" d="M517.87,248.29,323.58,442.57a31.64,31.64,0,0,1-44.75-44.74L450.75,225.92,278.84,54A31.64,31.64,0,0,1,323.59,9.27L517.88,203.55a31.64,31.64,0,0,1,0,44.74Z"/>
</svg>
