<svg id="1999b590-9af2-44c2-a15d-aa168866fcc0" data-name="Слой 1" xmlns="http://www.w3.org/2000/svg" xmlns:xlink="http://www.w3.org/1999/xlink" width="309" height="47" viewBox="0 0 309 47">
  <defs>
    <style>
      .\38 f0ce25e-75d6-44ce-9305-776ef6bfd985 {
        fill: none;
      }

      .\31 4e369aa-dc87-498c-a342-c2374f027554 {
        fill: #3c58bf;
      }

      .\31 7d8df3c-71a3-4552-a53a-bb65a30b1090 {
        fill: #293688;
      }

      .\31 b99ec9e-71ef-4fd4-b3fd-c60ab306f7ac {
        fill: #ffbc00;
      }

      .\31 6cf560a-a2ef-472a-a099-349fc0720220 {
        fill: #f7981d;
      }

      .\35 da68e7d-4248-4e5a-b74a-3884ff6f7df0 {
        fill: #ed7c00;
      }

      .fae92298-a134-452a-ad6e-01f4ddc9827b {
        fill: #051244;
      }

      .c4501e0e-0ea6-4b6d-a1fa-b6bff6d2f179 {
        fill: url(#0997b346-13e9-4f14-a0cd-5be182fddc7e);
      }

      .\30 fc1fcb4-de58-417c-bcdc-c99e2869a826 {
        fill: #4db45f;
      }

      .e5087f40-0593-402d-9813-5a35945eb860 {
        fill: #fff;
      }

      .\38 88fb556-d332-4219-a24b-0e2efef1fc8e {
        fill: #ff5f00;
      }

      .\32 d6f83f9-3c9f-4709-a7cc-8d6297b71fea {
        fill: #eb001b;
      }

      .\37 5af1cb9-6afe-442a-9d76-438fddee8308 {
        fill: #f79e1b;
      }
    </style>
    <linearGradient id="0997b346-13e9-4f14-a0cd-5be182fddc7e" data-name="Безымянный градиент 2" x1="185.8" y1="990.98" x2="205" y2="990.98" gradientTransform="matrix(1, 0, 0, -1, 0, 1008)" gradientUnits="userSpaceOnUse">
      <stop offset="0" stop-color="#00b4e6"/>
      <stop offset="1" stop-color="#088ccb"/>
    </linearGradient>
  </defs>
  <title>payment-systems</title>
  <rect class="8f0ce25e-75d6-44ce-9305-776ef6bfd985" width="309" height="47"/>
  <g>
    <polygon class="14e369aa-dc87-498c-a342-c2374f027554" points="29.27 30.72 32.21 14.15 36.82 14.15 33.96 30.72 29.27 30.72"/>
    <polygon class="17d8df3c-71a3-4552-a53a-bb65a30b1090" points="29.27 30.72 33.04 14.15 36.82 14.15 33.96 30.72 29.27 30.72"/>
    <path class="14e369aa-dc87-498c-a342-c2374f027554" d="M50.63,14.34a11.71,11.71,0,0,0-4.24-.74c-4.6,0-7.92,2.3-7.92,5.62,0,2.48,2.3,3.77,4.15,4.6S45,25.2,45,25.94c0,1.1-1.47,1.65-2.76,1.65a9.92,9.92,0,0,1-4.42-.92l-.65-.27-.64,3.77a14.92,14.92,0,0,0,5.25.92c4.88,0,8.1-2.3,8.1-5.8,0-1.93-1.2-3.4-4-4.6-1.66-.83-2.67-1.29-2.67-2.12s.83-1.47,2.67-1.47a8.42,8.42,0,0,1,3.5.64l.46.19.74-3.59Z"/>
    <path class="17d8df3c-71a3-4552-a53a-bb65a30b1090" d="M50.63,14.34a11.71,11.71,0,0,0-4.24-.74c-4.6,0-7.09,2.3-7.09,5.62,0,2.48,1.47,3.77,3.32,4.6S45,25.2,45,25.94c0,1.1-1.47,1.65-2.76,1.65a9.92,9.92,0,0,1-4.42-.92l-.65-.27-.64,3.77a14.92,14.92,0,0,0,5.25.92c4.88,0,8.1-2.3,8.1-5.8,0-1.93-1.2-3.4-4-4.6-1.66-.83-2.67-1.29-2.67-2.12s.83-1.47,2.67-1.47a8.42,8.42,0,0,1,3.5.64l.46.19.74-3.59Z"/>
    <path class="14e369aa-dc87-498c-a342-c2374f027554" d="M58.54,14.15c-1.1,0-1.93.09-2.39,1.2L49.24,30.72h5L55.14,28H61l.55,2.76H66L62.13,14.15Zm-2.11,11c.27-.83,1.84-4.88,1.84-4.88s.36-1,.64-1.66l.28,1.57s.92,4.14,1.1,5.06H56.43Z"/>
    <path class="17d8df3c-71a3-4552-a53a-bb65a30b1090" d="M59.65,14.15c-1.11,0-1.94.09-2.4,1.2l-8,15.37h5L55.14,28H61l.55,2.76H66L62.13,14.15Zm-3.22,11c.36-.92,1.84-4.88,1.84-4.88s.36-1,.64-1.66l.28,1.57s.92,4.14,1.1,5.06H56.43Z"/>
    <path class="14e369aa-dc87-498c-a342-c2374f027554" d="M20.8,25.75l-.46-2.39a13.34,13.34,0,0,0-6.45-7.27L18,30.82h5l7.45-16.58h-5Z"/>
    <path class="17d8df3c-71a3-4552-a53a-bb65a30b1090" d="M20.8,25.75l-.46-2.39a13.34,13.34,0,0,0-6.45-7.27L18,30.82h5l7.45-16.58H26.41Z"/>
    <path class="1b99ec9e-71ef-4fd4-b3fd-c60ab306f7ac" d="M8,14.15l.83.19c5.89,1.38,9.94,4.88,11.51,9l-1.66-7.83c-.28-1.1-1.11-1.38-2.12-1.38Z"/>
    <path class="16cf560a-a2ef-472a-a099-349fc0720220" d="M8,14.15H8c5.89,1.38,10.77,5,12.34,9.12l-1.57-6.54A2.25,2.25,0,0,0,16.56,15Z"/>
    <path class="5da68e7d-4248-4e5a-b74a-3884ff6f7df0" d="M8,14.15H8c5.89,1.38,10.77,5,12.34,9.12l-1.11-3.59A3.22,3.22,0,0,0,17.3,17Z"/>
    <g>
      <path class="fae92298-a134-452a-ad6e-01f4ddc9827b" d="M25.4,25.2l-3.13-3.13-1.47,3.5-.37-2.3A13.36,13.36,0,0,0,14,16l4.15,14.73h5Z"/>
      <polygon class="fae92298-a134-452a-ad6e-01f4ddc9827b" points="33.96 30.72 30 26.67 29.27 30.72 33.96 30.72"/>
      <path class="fae92298-a134-452a-ad6e-01f4ddc9827b" d="M44.55,25h0c.37.36.55.64.46,1,0,1.1-1.47,1.66-2.76,1.66a10.06,10.06,0,0,1-4.42-.92l-.65-.28-.64,3.77a14.92,14.92,0,0,0,5.25.92c2.94,0,5.34-.82,6.72-2.3Z"/>
      <path class="fae92298-a134-452a-ad6e-01f4ddc9827b" d="M49.89,30.72h4.33L55.14,28H61l.55,2.76H66L64.43,24l-5.52-5.34.28,1.48s.92,4.14,1.1,5.06H56.43c.36-.92,1.84-4.88,1.84-4.88s.36-1,.64-1.66"/>
    </g>
  </g>
  <g>
    <path id="b0bc30c7-a77c-4a5f-af3b-62210554b536" data-name="path10" class="c4501e0e-0ea6-4b6d-a1fa-b6bff6d2f179" d="M198.3,13H185.84c.67,4.15,4.69,8,9.11,8h9.92A4.69,4.69,0,0,0,205,19.7,6.64,6.64,0,0,0,198.3,13Z"/>
    <path id="a33e6b4a-fbac-40d0-aed9-0c6abb2b6cbc" data-name="path12" class="0fc1fcb4-de58-417c-bcdc-c99e2869a826" d="M186.91,21.71V31.76h6V26.4h5.36a6.64,6.64,0,0,0,6.3-4.69Z"/>
    <path id="a2974861-29ad-4ea1-b841-314e64abcf69" data-name="path14" class="0fc1fcb4-de58-417c-bcdc-c99e2869a826" d="M165.46,13V31.76h5.36a2.4,2.4,0,0,0,2-1.34L177.53,21h.67V31.76h6V13h-5.36a2.77,2.77,0,0,0-2,1.34l-4.7,9.38h-.67V13Z"/>
    <path id="4df536f4-f445-46ba-8420-5e1d737c3361" data-name="path16" class="0fc1fcb4-de58-417c-bcdc-c99e2869a826" d="M140,31.76V13h6s1.74,0,2.68,2.68c2.41,7.1,2.68,8,2.68,8s.54-1.74,2.68-8C155,13,156.75,13,156.75,13h6V31.76h-6v-10h-.67l-3.35,10.05h-2.68l-3.35-10H146V31.76Z"/>
  </g>
  <path class="e5087f40-0593-402d-9813-5a35945eb860" d="M86.59,44V41.3a1.62,1.62,0,0,0-1.51-1.73h-.21a1.7,1.7,0,0,0-1.53.77,1.58,1.58,0,0,0-1.44-.77,1.43,1.43,0,0,0-1.28.65v-.54h-1V44h1v-2.4a1,1,0,0,1,.87-1.15h.2c.63,0,1,.41,1,1.15v2.43h1V41.64a1,1,0,0,1,.88-1.15h.18c.65,0,1,.41,1,1.15v2.43Zm14.18-4.36H99.21V38.35h-1v1.33h-.87v.86h.89v2c0,1,.39,1.62,1.51,1.62a2.26,2.26,0,0,0,1.19-.34L100.7,43a1.82,1.82,0,0,1-.84.25c-.46,0-.63-.3-.63-.74v-2h1.55Zm8.1-.11a1.26,1.26,0,0,0-1.15.64v-.53h-.94V44h1V41.59c0-.72.31-1.12.91-1.12a1.71,1.71,0,0,1,.59.11l.29-.91a1.89,1.89,0,0,0-.67-.12ZM96.63,40a3.37,3.37,0,0,0-1.78-.45C93.74,39.57,93,40.1,93,41s.53,1.15,1.51,1.29l.45.07c.52.07.77.21.77.45s-.35.53-1,.53a2.3,2.3,0,0,1-1.46-.45l-.45.73a3.1,3.1,0,0,0,1.89.57c1.26,0,2-.59,2-1.42s-.58-1.17-1.53-1.31l-.45-.06c-.41-.06-.74-.14-.74-.43s.31-.51.83-.51a2.76,2.76,0,0,1,1.37.37Zm25.42-.45a1.28,1.28,0,0,0-1.15.64v-.53H120V44h1V41.59c0-.72.31-1.12.91-1.12a1.73,1.73,0,0,1,.6.11l.29-.91a2,2,0,0,0-.68-.12Zm-12.23,2.28a2.2,2.2,0,0,0,2.12,2.28h.21a2.25,2.25,0,0,0,1.57-.52l-.46-.76a2,2,0,0,1-1.14.39,1.41,1.41,0,0,1,0-2.8,2,2,0,0,1,1.14.4l.46-.77a2.29,2.29,0,0,0-1.57-.52,2.21,2.21,0,0,0-2.33,2.08v.22Zm8.89,0V39.68h-.95v.53a1.64,1.64,0,0,0-1.37-.64,2.28,2.28,0,0,0,0,4.56,1.64,1.64,0,0,0,1.37-.64V44h.95Zm-3.53,0a1.35,1.35,0,1,1,0,.1Zm-11.46-2.28a2.28,2.28,0,1,0,.07,4.56h0a2.65,2.65,0,0,0,1.81-.59l-.46-.7a2,2,0,0,1-1.27.45,1.2,1.2,0,0,1-1.3-1.07h3.24v-.36a2.07,2.07,0,0,0-2.07-2.28Zm0,.85a1.08,1.08,0,0,1,1.11,1.06h-2.28a1.12,1.12,0,0,1,1.16-1.06Zm23.79,1.44V37.93h-.92v2.28a1.64,1.64,0,0,0-1.37-.64,2.28,2.28,0,0,0,0,4.56,1.64,1.64,0,0,0,1.37-.64V44h.92Zm1.58,1.55a.47.47,0,0,1,.17,0,.46.46,0,0,1,.15.09.42.42,0,0,1,.09.14.38.38,0,0,1,0,.33.34.34,0,0,1-.09.14.46.46,0,0,1-.15.09.33.33,0,0,1-.17,0,.45.45,0,0,1-.41-.27.38.38,0,0,1,0-.33.45.45,0,0,1,.1-.14.34.34,0,0,1,.14-.09.29.29,0,0,1,.18,0Zm0,.77a.28.28,0,0,0,.13,0,.41.41,0,0,0,.11-.07.34.34,0,0,0,0-.46.41.41,0,0,0-.11-.07.28.28,0,0,0-.13,0,.31.31,0,0,0-.13,0,.26.26,0,0,0-.11.07.34.34,0,0,0,0,.46.41.41,0,0,0,.11.07.32.32,0,0,0,.14,0Zm0-.55a.28.28,0,0,1,.12,0,.15.15,0,0,1,0,.1.11.11,0,0,1,0,.08.18.18,0,0,1-.1,0l.13.15h-.1l-.13-.15h0V44h-.08v-.4Zm-.1.08v.11h.15a0,0,0,0,0,0,0,0,0,0,0,0,0,0,0,0,0,0,0,0,0Zm-5-1.85a1.23,1.23,0,1,1,0,.1A.34.34,0,0,1,124,41.86Zm-32.06,0V39.68H91v.53a1.64,1.64,0,0,0-1.36-.64,2.28,2.28,0,1,0,0,4.56A1.64,1.64,0,0,0,91,43.49V44h1Zm-3.53,0a1.32,1.32,0,1,1,1.32,1.4A1.31,1.31,0,0,1,88.4,42v-.11Z"/>
  <g id="0b057835-d49d-47ff-93db-d2224b984b93" data-name=" Group ">
    <rect class="888fb556-d332-4219-a24b-0e2efef1fc8e" x="96.31" y="6.43" width="14.38" height="25.84"/>
    <path id="8edce446-7b82-4a37-aa2f-e7ba7061ee70" data-name=" Path " class="2d6f83f9-3c9f-4709-a7cc-8d6297b71fea" d="M97.22,19.35A16.41,16.41,0,0,1,103.5,6.43a16.43,16.43,0,1,0,0,25.84A16.43,16.43,0,0,1,97.22,19.35Z"/>
    <path class="75af1cb9-6afe-442a-9d76-438fddee8308" d="M130.09,19.35A16.44,16.44,0,0,1,103.5,32.27a16.45,16.45,0,0,0,2.77-23.08,16.82,16.82,0,0,0-2.77-2.76,16.44,16.44,0,0,1,26.59,12.92Z"/>
    <path class="75af1cb9-6afe-442a-9d76-438fddee8308" d="M128.52,29.53V29h.21v-.11h-.54V29h.23v.53Zm1,0v-.64h-.16l-.2.45-.19-.45h-.14v.64H129v-.48l.18.41h.13l.17-.41v.48Z"/>
  </g>
  <path class="e5087f40-0593-402d-9813-5a35945eb860" d="M237.46,20a7.11,7.11,0,0,0,4.43,6.47A17.36,17.36,0,0,1,239.61,31c-1.38,1.95-2.8,3.89-5.05,3.93s-2.92-1.27-5.45-1.27-3.31,1.23-5.4,1.31-3.83-2.11-5.21-4.05c-2.84-4-5-11.21-2.1-16.1a8.1,8.1,0,0,1,6.83-4c2.13,0,4.15,1.38,5.45,1.38s3.74-1.71,6.32-1.46a7.78,7.78,0,0,1,6,3.17A7.22,7.22,0,0,0,237.46,20M233.31,8.1A6.91,6.91,0,0,0,235,3a7.45,7.45,0,0,0-4.86,2.42,6.53,6.53,0,0,0-1.75,4.95,6.22,6.22,0,0,0,4.89-2.27M250,5.79q1.41-.23,2.82-.39a29.78,29.78,0,0,1,3.4-.17,14.71,14.71,0,0,1,4.57.63,8,8,0,0,1,3.16,1.79,7.33,7.33,0,0,1,1.66,2.45,8.57,8.57,0,0,1,.59,3.28,8.85,8.85,0,0,1-.82,3.93,8.14,8.14,0,0,1-2.22,2.82,9.51,9.51,0,0,1-3.36,1.7,15,15,0,0,1-4.24.56,17.17,17.17,0,0,1-3.49-.3V34.51H250V5.79Zm2.07,14.49a8.85,8.85,0,0,0,1.68.3c.62.06,1.28.09,2,.09a9.44,9.44,0,0,0,6.16-1.81,6.53,6.53,0,0,0,2.18-5.31,7,7,0,0,0-.57-2.93,5.37,5.37,0,0,0-1.64-2,7.61,7.61,0,0,0-2.51-1.21A12,12,0,0,0,256.12,7a23.65,23.65,0,0,0-2.42.11,15.34,15.34,0,0,0-1.64.24v13ZM282.7,29.6c0,.83,0,1.66,0,2.5a16.93,16.93,0,0,0,.26,2.41h-1.94l-.31-2.93h-.09a7.2,7.2,0,0,1-1,1.21,8.07,8.07,0,0,1-1.43,1.1,8.28,8.28,0,0,1-1.86.8,8.74,8.74,0,0,1-2.27.3,7,7,0,0,1-2.72-.5,5.59,5.59,0,0,1-1.92-1.29,5.12,5.12,0,0,1-1.12-1.84,5.84,5.84,0,0,1-.38-2.07,6.28,6.28,0,0,1,3.16-5.64q3.15-2,9.51-1.9v-.56a13.47,13.47,0,0,0-.15-1.88,6,6,0,0,0-.69-2,4.32,4.32,0,0,0-1.59-1.59,5.47,5.47,0,0,0-2.87-.65,9.57,9.57,0,0,0-5.16,1.55l-.66-1.51a9.81,9.81,0,0,1,2.91-1.35,11.45,11.45,0,0,1,3.13-.41,7.65,7.65,0,0,1,3.6.73,5.91,5.91,0,0,1,2.19,1.9,7.06,7.06,0,0,1,1.08,2.61,14.48,14.48,0,0,1,.29,2.87V29.6Zm-2.08-6.17a29.42,29.42,0,0,0-3.51.13,13.16,13.16,0,0,0-3.38.75A6.49,6.49,0,0,0,271.17,26a4.28,4.28,0,0,0-1,3,3.9,3.9,0,0,0,1.28,3.24,4.44,4.44,0,0,0,2.87,1,7.07,7.07,0,0,0,2.29-.34,6,6,0,0,0,1.77-.93,5.95,5.95,0,0,0,2-2.83,5.51,5.51,0,0,0,.22-1.25V23.43Zm6.13-9.62,5.39,13.46c.3.76.58,1.53.84,2.3s.5,1.52.71,2.18h.08c.21-.63.45-1.34.71-2.13s.56-1.61.88-2.44l5-13.37h2.2L296.47,29c-.56,1.47-1.15,2.93-1.75,4.38q-.74,1.8-1.65,3.54a27.18,27.18,0,0,1-1.7,2.78,11.67,11.67,0,0,1-1.92,2.11,10.29,10.29,0,0,1-2.28,1.57c-.69.34-1.15.54-1.39.63l-.7-1.68a17.24,17.24,0,0,0,1.76-.91,9.61,9.61,0,0,0,1.9-1.46,17.44,17.44,0,0,0,1.74-2.05,14,14,0,0,0,1.7-3.09,3.38,3.38,0,0,0,.27-.9,2.52,2.52,0,0,0-.27-.91l-7.63-19.19Z"/>
</svg>
